<?xml version="1.0" encoding="UTF-8" standalone="no"?>
<!-- Created with Inkscape (http://www.inkscape.org/) -->

<svg
   xmlns:dc="http://purl.org/dc/elements/1.1/"
   xmlns:cc="http://creativecommons.org/ns#"
   xmlns:rdf="http://www.w3.org/1999/02/22-rdf-syntax-ns#"
   xmlns:svg="http://www.w3.org/2000/svg"
   xmlns="http://www.w3.org/2000/svg"
   xmlns:xlink="http://www.w3.org/1999/xlink"
   xmlns:sodipodi="http://sodipodi.sourceforge.net/DTD/sodipodi-0.dtd"
   xmlns:inkscape="http://www.inkscape.org/namespaces/inkscape"
   sodipodi:docname="Move.svg"
   inkscape:version="0.48.1 "
   sodipodi:version="0.32"
   id="svg2"
   height="16.000000px"
   width="16.000000px"
   inkscape:export-filename="C:\Documents and Settings\inigo\Escritorio\iconos\Move.png"
   inkscape:export-xdpi="90.000000"
   inkscape:export-ydpi="90.000000"
   version="1.1">
  <defs
     id="defs3">
    <linearGradient
       id="linearGradient2154">
      <stop
         id="stop2156"
         offset="0.00000000"
         style="stop-color:#ffffff;stop-opacity:1.0000000;" />
      <stop
         id="stop2158"
         offset="1"
         style="stop-color:#9b9aff;stop-opacity:0;" />
    </linearGradient>
    <linearGradient
       gradientUnits="userSpaceOnUse"
       y2="14.671875"
       x2="14.671875"
       y1="4.1718750"
       x1="7.4531250"
       id="linearGradient2160"
       xlink:href="#linearGradient2154"
       inkscape:collect="always" />
  </defs>
  <sodipodi:namedview
     inkscape:window-y="-4"
     inkscape:window-x="-4"
     inkscape:window-height="708"
     inkscape:window-width="1024"
     inkscape:guide-bbox="true"
     showguides="true"
     inkscape:guide-points="true"
     gridtolerance="0.50000000px"
     inkscape:grid-points="true"
     inkscape:grid-bbox="true"
     showgrid="true"
     inkscape:current-layer="layer1"
     inkscape:document-units="px"
     inkscape:cy="8"
     inkscape:cx="8"
     inkscape:zoom="30.6875"
     inkscape:pageshadow="2"
     inkscape:pageopacity="0.0"
     borderopacity="1.0"
     bordercolor="#666666"
     pagecolor="#ffffff"
     id="base"
     inkscape:window-maximized="0">
    <inkscape:grid
       id="GridFromPre046Settings"
       type="xygrid"
       originx="0px"
       originy="0px"
       spacingx="0.50000000px"
       spacingy="0.50000000px"
       color="#0000ff"
       empcolor="#0000ff"
       opacity="0.2"
       empopacity="0.4"
       empspacing="2" />
  </sodipodi:namedview>
  <metadata
     id="metadata4">
    <rdf:RDF>
      <cc:Work
         rdf:about="">
        <dc:format>image/svg+xml</dc:format>
        <dc:type
           rdf:resource="http://purl.org/dc/dcmitype/StillImage" />
      </cc:Work>
    </rdf:RDF>
  </metadata>
  <g
     id="layer1"
     inkscape:groupmode="layer"
     inkscape:label="Layer 1">
    <g
       transform="translate(1.500000,1.000000)"
       id="g2132">
      <path
         sodipodi:nodetypes="cccccccc"
         id="path2124"
         d="M 0.00000000,7.5000000 L 3.0000000,11.000000 L 3.0000000,9.0000000 L 8.0000000,9.0000000 L 8.0000000,6.0000000 L 3.0000000,6.0000000 L 3.0000000,4.0000000 L 0.00000000,7.5000000 z "
         style="fill:#9b9b9b;fill-opacity:1.0000000;fill-rule:evenodd;stroke:none;stroke-width:1.0000000px;stroke-linecap:butt;stroke-linejoin:miter;stroke-opacity:1.0000000" />
      <path
         sodipodi:nodetypes="cccccccc"
         id="path2126"
         d="M 7.5000000,0.00000000 L 4.0000000,3.0000000 L 6.0000000,3.0000000 L 6.0000000,8.0000000 L 9.0000000,8.0000000 L 9.0000000,3.0000000 L 11.000000,3.0000000 L 7.5000000,0.00000000 z "
         style="fill:#9b9b9b;fill-opacity:1.0000000;fill-rule:evenodd;stroke:none;stroke-width:1.0000000px;stroke-linecap:butt;stroke-linejoin:miter;stroke-opacity:1.0000000" />
      <path
         sodipodi:nodetypes="cccccccc"
         id="path2128"
         d="M 7.5000000,16.000000 L 4.0000000,13.000000 L 6.0000000,13.000000 L 6.0000000,8.0000000 L 9.0000000,8.0000000 L 9.0000000,13.000000 L 11.000000,13.000000 L 7.5000000,16.000000 z "
         style="fill:#9b9b9b;fill-opacity:1.0000000;fill-rule:evenodd;stroke:none;stroke-width:1.0000000px;stroke-linecap:butt;stroke-linejoin:miter;stroke-opacity:1.0000000" />
      <path
         sodipodi:nodetypes="cccccccc"
         id="path2130"
         d="M 16.000000,7.5000000 L 13.000000,11.000000 L 13.000000,9.0000000 L 8.0000000,9.0000000 L 8.0000000,6.0000000 L 13.000000,6.0000000 L 13.000000,4.0000000 L 16.000000,7.5000000 z "
         style="fill:#9b9b9b;fill-opacity:1.0000000;fill-rule:evenodd;stroke:none;stroke-width:1.0000000px;stroke-linecap:butt;stroke-linejoin:miter;stroke-opacity:1.0000000" />
    </g>
    <path
       sodipodi:nodetypes="cccccccc"
       id="path2098"
       d="M 0.00000000,7.5000000 L 3.0000000,11.000000 L 3.0000000,9.0000000 L 8.0000000,9.0000000 L 8.0000000,6.0000000 L 3.0000000,6.0000000 L 3.0000000,4.0000000 L 0.00000000,7.5000000 z "
       style="fill:#000000;fill-opacity:1.0000000;fill-rule:evenodd;stroke:none;stroke-width:1.0000000px;stroke-linecap:butt;stroke-linejoin:miter;stroke-opacity:1.0000000" />
    <path
       sodipodi:nodetypes="cccccccc"
       id="path1324"
       d="M 7.5000000,0.00000000 L 4.0000000,3.0000000 L 6.0000000,3.0000000 L 6.0000000,8.0000000 L 9.0000000,8.0000000 L 9.0000000,3.0000000 L 11.000000,3.0000000 L 7.5000000,0.00000000 z "
       style="fill:#000000;fill-opacity:1.0000000;fill-rule:evenodd;stroke:none;stroke-width:1.0000000px;stroke-linecap:butt;stroke-linejoin:miter;stroke-opacity:1.0000000" />
    <path
       sodipodi:nodetypes="cccccccc"
       id="path2092"
       d="M 7.5000000,1.0000000 L 6.0000000,2.5000000 L 7.0000000,2.5000000 L 7.0000000,8.0000000 L 8.0000000,8.0000000 L 8.0000000,2.5000000 L 9.0000000,2.5000000 L 7.5000000,1.0000000 z "
       style="fill:#9b9aff;fill-opacity:1.0000000;fill-rule:evenodd;stroke:none;stroke-width:1.0000000px;stroke-linecap:butt;stroke-linejoin:miter;stroke-opacity:1.0000000" />
    <path
       sodipodi:nodetypes="cccccccc"
       id="path2094"
       d="M 7.5000000,16.000000 L 4.0000000,13.000000 L 6.0000000,13.000000 L 6.0000000,8.0000000 L 9.0000000,8.0000000 L 9.0000000,13.000000 L 11.000000,13.000000 L 7.5000000,16.000000 z "
       style="fill:#000000;fill-opacity:1.0000000;fill-rule:evenodd;stroke:none;stroke-width:1.0000000px;stroke-linecap:butt;stroke-linejoin:miter;stroke-opacity:1.0000000" />
    <path
       sodipodi:nodetypes="cccccccc"
       id="path2096"
       d="M 7.5000000,15.000000 L 6.0000000,13.500000 L 7.0000000,13.500000 L 7.0000000,8.0000000 L 8.0000000,8.0000000 L 8.0000000,13.500000 L 9.0000000,13.500000 L 7.5000000,15.000000 z "
       style="fill:#9b9aff;fill-opacity:1.0000000;fill-rule:evenodd;stroke:none;stroke-width:1.0000000px;stroke-linecap:butt;stroke-linejoin:miter;stroke-opacity:1.0000000" />
    <path
       sodipodi:nodetypes="cccccccc"
       id="path2100"
       d="M 1.0000000,7.5000000 L 2.5000000,9.0000000 L 2.5000000,8.0000000 L 8.0000000,8.0000000 L 8.0000000,7.0000000 L 2.5000000,7.0000000 L 2.5000000,6.0000000 L 1.0000000,7.5000000 z "
       style="fill:#9b9aff;fill-opacity:1.0000000;fill-rule:evenodd;stroke:none;stroke-width:1.0000000px;stroke-linecap:butt;stroke-linejoin:miter;stroke-opacity:1.0000000" />
    <path
       sodipodi:nodetypes="cccccccc"
       id="path2102"
       d="M 16.000000,7.5000000 L 13.000000,11.000000 L 13.000000,9.0000000 L 8.0000000,9.0000000 L 8.0000000,6.0000000 L 13.000000,6.0000000 L 13.000000,4.0000000 L 16.000000,7.5000000 z "
       style="fill:#000000;fill-opacity:1.0000000;fill-rule:evenodd;stroke:none;stroke-width:1.0000000px;stroke-linecap:butt;stroke-linejoin:miter;stroke-opacity:1.0000000" />
    <path
       sodipodi:nodetypes="cccccccc"
       id="path2104"
       d="M 15.000000,7.5000000 L 13.500000,9.0000000 L 13.500000,8.0000000 L 8.0000000,8.0000000 L 8.0000000,7.0000000 L 13.500000,7.0000000 L 13.500000,6.0000000 L 15.000000,7.5000000 z "
       style="fill:#9b9aff;fill-opacity:1.0000000;fill-rule:evenodd;stroke:none;stroke-width:1.0000000px;stroke-linecap:butt;stroke-linejoin:miter;stroke-opacity:1.0000000" />
    <path
       id="path2143"
       d="M 7.5000000,1.0000000 L 6.0000000,2.5000000 L 7.0000000,2.5000000 L 7.0000000,7.0000000 L 2.5000000,7.0000000 L 2.5000000,6.0000000 L 1.0000000,7.5000000 L 2.5000000,9.0000000 L 2.5000000,8.0000000 L 7.0000000,8.0000000 L 7.0000000,13.500000 L 6.0000000,13.500000 L 7.5000000,15.000000 L 9.0000000,13.500000 L 8.0000000,13.500000 L 8.0000000,8.0000000 L 13.500000,8.0000000 L 13.500000,9.0000000 L 15.000000,7.5000000 L 13.500000,6.0000000 L 13.500000,7.0000000 L 8.0000000,7.0000000 L 8.0000000,2.5000000 L 9.0000000,2.5000000 L 7.5000000,1.0000000 z "
       style="stroke-opacity:1.0000000;stroke-linejoin:miter;stroke-linecap:butt;stroke-width:1.0000000px;stroke:none;fill-rule:evenodd;fill-opacity:1.0;fill:url(#linearGradient2160)" />
  </g>
  <g
     inkscape:groupmode="layer"
     id="layer2"
     inkscape:label="fondo"
     sodipodi:insensitive="true">
    <rect
       style="fill:#ffffff;fill-opacity:0.00000000;stroke:none;stroke-width:1.2500000;stroke-linecap:butt;stroke-linejoin:round;stroke-miterlimit:0.00000000;stroke-opacity:0.48858449"
       id="rect2277"
       width="16.000000"
       height="16.000000"
       x="0.00000000"
       y="0.00000000" />
  </g>
</svg>
