%TF.GenerationSoftware,KiCad,Pcbnew,9.0.0-rc2-3baa6cd791~182~ubuntu24.04.1*%
%TF.CreationDate,2025-02-03T22:31:15-05:00*%
%TF.ProjectId,RoyalBlue54L-NFC-Antenna,526f7961-6c42-46c7-9565-35344c2d4e46,rev?*%
%TF.SameCoordinates,Original*%
%TF.FileFunction,Legend,Top*%
%TF.FilePolarity,Positive*%
%FSLAX46Y46*%
G04 Gerber Fmt 4.6, Leading zero omitted, Abs format (unit mm)*
G04 Created by KiCad (PCBNEW 9.0.0-rc2-3baa6cd791~182~ubuntu24.04.1) date 2025-02-03 22:31:15*
%MOMM*%
%LPD*%
G01*
G04 APERTURE LIST*
G04 Aperture macros list*
%AMRoundRect*
0 Rectangle with rounded corners*
0 $1 Rounding radius*
0 $2 $3 $4 $5 $6 $7 $8 $9 X,Y pos of 4 corners*
0 Add a 4 corners polygon primitive as box body*
4,1,4,$2,$3,$4,$5,$6,$7,$8,$9,$2,$3,0*
0 Add four circle primitives for the rounded corners*
1,1,$1+$1,$2,$3*
1,1,$1+$1,$4,$5*
1,1,$1+$1,$6,$7*
1,1,$1+$1,$8,$9*
0 Add four rect primitives between the rounded corners*
20,1,$1+$1,$2,$3,$4,$5,0*
20,1,$1+$1,$4,$5,$6,$7,0*
20,1,$1+$1,$6,$7,$8,$9,0*
20,1,$1+$1,$8,$9,$2,$3,0*%
G04 Aperture macros list end*
%ADD10C,0.000000*%
%ADD11RoundRect,0.045000X-0.105000X-0.705000X0.105000X-0.705000X0.105000X0.705000X-0.105000X0.705000X0*%
G04 APERTURE END LIST*
D10*
%TO.C,REF\u002A\u002A*%
G36*
X152805360Y-117823862D02*
G01*
X152807205Y-117824002D01*
X152809024Y-117824233D01*
X152810814Y-117824553D01*
X152812572Y-117824959D01*
X152814297Y-117825450D01*
X152815986Y-117826021D01*
X152817637Y-117826673D01*
X152819247Y-117827401D01*
X152820814Y-117828204D01*
X152822337Y-117829080D01*
X152823812Y-117830026D01*
X152825237Y-117831040D01*
X152826611Y-117832119D01*
X152827930Y-117833262D01*
X152829193Y-117834466D01*
X152830397Y-117835729D01*
X152831540Y-117837048D01*
X152832620Y-117838422D01*
X152833633Y-117839847D01*
X152834579Y-117841322D01*
X152835455Y-117842845D01*
X152836258Y-117844412D01*
X152836987Y-117846023D01*
X152837638Y-117847673D01*
X152838210Y-117849362D01*
X152838700Y-117851087D01*
X152839106Y-117852845D01*
X152839426Y-117854635D01*
X152839657Y-117856454D01*
X152839798Y-117858299D01*
X152839845Y-117860169D01*
X152839845Y-117993471D01*
X152839798Y-117995341D01*
X152839657Y-117997186D01*
X152839426Y-117999005D01*
X152839106Y-118000795D01*
X152838700Y-118002553D01*
X152838210Y-118004278D01*
X152837638Y-118005967D01*
X152836987Y-118007617D01*
X152836258Y-118009228D01*
X152835455Y-118010795D01*
X152834579Y-118012317D01*
X152833633Y-118013793D01*
X152832620Y-118015218D01*
X152831540Y-118016592D01*
X152830397Y-118017911D01*
X152829193Y-118019174D01*
X152827930Y-118020378D01*
X152826611Y-118021521D01*
X152825237Y-118022600D01*
X152823812Y-118023614D01*
X152822337Y-118024560D01*
X152820814Y-118025436D01*
X152819247Y-118026239D01*
X152817637Y-118026967D01*
X152815986Y-118027619D01*
X152814297Y-118028190D01*
X152812572Y-118028680D01*
X152810814Y-118029087D01*
X152809024Y-118029407D01*
X152807205Y-118029638D01*
X152805360Y-118029778D01*
X152803490Y-118029826D01*
X152670189Y-118029826D01*
X152668319Y-118029778D01*
X152666473Y-118029638D01*
X152664654Y-118029407D01*
X152662865Y-118029087D01*
X152661106Y-118028680D01*
X152659382Y-118028190D01*
X152657693Y-118027619D01*
X152656042Y-118026967D01*
X152654432Y-118026239D01*
X152652864Y-118025436D01*
X152651342Y-118024560D01*
X152649867Y-118023614D01*
X152648441Y-118022600D01*
X152647068Y-118021521D01*
X152645748Y-118020378D01*
X152644486Y-118019174D01*
X152643282Y-118017911D01*
X152642139Y-118016592D01*
X152641059Y-118015218D01*
X152640045Y-118013793D01*
X152639099Y-118012317D01*
X152638224Y-118010795D01*
X152637420Y-118009228D01*
X152636692Y-118007617D01*
X152636041Y-118005967D01*
X152635469Y-118004278D01*
X152634979Y-118002553D01*
X152634573Y-118000795D01*
X152634253Y-117999005D01*
X152634021Y-117997186D01*
X152633881Y-117995341D01*
X152633834Y-117993471D01*
X152633834Y-117860169D01*
X152633881Y-117858299D01*
X152634021Y-117856454D01*
X152634253Y-117854635D01*
X152634573Y-117852845D01*
X152634979Y-117851087D01*
X152635469Y-117849362D01*
X152636041Y-117847673D01*
X152636692Y-117846023D01*
X152637420Y-117844412D01*
X152638224Y-117842845D01*
X152639099Y-117841322D01*
X152640045Y-117839847D01*
X152641059Y-117838422D01*
X152642139Y-117837048D01*
X152643282Y-117835729D01*
X152644486Y-117834466D01*
X152645748Y-117833262D01*
X152647068Y-117832119D01*
X152648441Y-117831040D01*
X152649867Y-117830026D01*
X152651342Y-117829080D01*
X152652864Y-117828204D01*
X152654432Y-117827401D01*
X152656042Y-117826673D01*
X152657693Y-117826021D01*
X152659382Y-117825450D01*
X152661106Y-117824959D01*
X152662865Y-117824553D01*
X152664654Y-117824233D01*
X152666473Y-117824002D01*
X152668319Y-117823862D01*
X152670189Y-117823814D01*
X152803490Y-117823814D01*
X152805360Y-117823862D01*
G37*
G36*
X152805360Y-117520901D02*
G01*
X152807205Y-117521042D01*
X152809024Y-117521273D01*
X152810814Y-117521593D01*
X152812572Y-117521999D01*
X152814297Y-117522489D01*
X152815986Y-117523061D01*
X152817637Y-117523712D01*
X152819247Y-117524441D01*
X152820814Y-117525244D01*
X152822337Y-117526119D01*
X152823812Y-117527065D01*
X152825237Y-117528079D01*
X152826611Y-117529159D01*
X152827930Y-117530302D01*
X152829193Y-117531506D01*
X152830397Y-117532769D01*
X152831540Y-117534088D01*
X152832620Y-117535462D01*
X152833633Y-117536887D01*
X152834579Y-117538362D01*
X152835455Y-117539884D01*
X152836258Y-117541452D01*
X152836987Y-117543062D01*
X152837638Y-117544713D01*
X152838210Y-117546402D01*
X152838700Y-117548127D01*
X152839106Y-117549885D01*
X152839426Y-117551675D01*
X152839657Y-117553493D01*
X152839798Y-117555339D01*
X152839845Y-117557209D01*
X152839845Y-117690510D01*
X152839798Y-117692380D01*
X152839657Y-117694226D01*
X152839426Y-117696044D01*
X152839106Y-117697834D01*
X152838700Y-117699593D01*
X152838210Y-117701317D01*
X152837638Y-117703006D01*
X152836987Y-117704657D01*
X152836258Y-117706267D01*
X152835455Y-117707835D01*
X152834579Y-117709357D01*
X152833633Y-117710832D01*
X152832620Y-117712258D01*
X152831540Y-117713631D01*
X152830397Y-117714950D01*
X152829193Y-117716213D01*
X152827930Y-117717417D01*
X152826611Y-117718560D01*
X152825237Y-117719640D01*
X152823812Y-117720654D01*
X152822337Y-117721600D01*
X152820814Y-117722475D01*
X152819247Y-117723279D01*
X152817637Y-117724007D01*
X152815986Y-117724658D01*
X152814297Y-117725230D01*
X152812572Y-117725720D01*
X152810814Y-117726126D01*
X152809024Y-117726446D01*
X152807205Y-117726678D01*
X152805360Y-117726818D01*
X152803490Y-117726865D01*
X152670189Y-117726865D01*
X152668319Y-117726818D01*
X152666473Y-117726678D01*
X152664654Y-117726446D01*
X152662865Y-117726126D01*
X152661106Y-117725720D01*
X152659382Y-117725230D01*
X152657693Y-117724658D01*
X152656042Y-117724007D01*
X152654432Y-117723279D01*
X152652864Y-117722475D01*
X152651342Y-117721600D01*
X152649867Y-117720654D01*
X152648441Y-117719640D01*
X152647068Y-117718560D01*
X152645748Y-117717417D01*
X152644486Y-117716213D01*
X152643282Y-117714950D01*
X152642139Y-117713631D01*
X152641059Y-117712258D01*
X152640045Y-117710832D01*
X152639099Y-117709357D01*
X152638224Y-117707835D01*
X152637420Y-117706267D01*
X152636692Y-117704657D01*
X152636041Y-117703006D01*
X152635469Y-117701317D01*
X152634979Y-117699593D01*
X152634573Y-117697834D01*
X152634253Y-117696044D01*
X152634021Y-117694226D01*
X152633881Y-117692380D01*
X152633834Y-117690510D01*
X152633834Y-117557209D01*
X152633881Y-117555339D01*
X152634021Y-117553493D01*
X152634253Y-117551675D01*
X152634573Y-117549885D01*
X152634979Y-117548127D01*
X152635469Y-117546402D01*
X152636041Y-117544713D01*
X152636692Y-117543062D01*
X152637420Y-117541452D01*
X152638224Y-117539884D01*
X152639099Y-117538362D01*
X152640045Y-117536887D01*
X152641059Y-117535462D01*
X152642139Y-117534088D01*
X152643282Y-117532769D01*
X152644486Y-117531506D01*
X152645748Y-117530302D01*
X152647068Y-117529159D01*
X152648441Y-117528079D01*
X152649867Y-117527065D01*
X152651342Y-117526119D01*
X152652864Y-117525244D01*
X152654432Y-117524441D01*
X152656042Y-117523712D01*
X152657693Y-117523061D01*
X152659382Y-117522489D01*
X152661106Y-117521999D01*
X152662865Y-117521593D01*
X152664654Y-117521273D01*
X152666473Y-117521042D01*
X152668319Y-117520901D01*
X152670189Y-117520854D01*
X152803490Y-117520854D01*
X152805360Y-117520901D01*
G37*
G36*
X152805360Y-116919312D02*
G01*
X152807205Y-116919452D01*
X152809024Y-116919683D01*
X152810814Y-116920003D01*
X152812572Y-116920409D01*
X152814297Y-116920900D01*
X152815986Y-116921471D01*
X152817637Y-116922123D01*
X152819247Y-116922851D01*
X152820814Y-116923654D01*
X152822337Y-116924530D01*
X152823812Y-116925476D01*
X152825237Y-116926490D01*
X152826611Y-116927569D01*
X152827930Y-116928712D01*
X152829193Y-116929916D01*
X152830397Y-116931179D01*
X152831540Y-116932498D01*
X152832620Y-116933872D01*
X152833633Y-116935297D01*
X152834579Y-116936772D01*
X152835455Y-116938295D01*
X152836258Y-116939862D01*
X152836987Y-116941473D01*
X152837638Y-116943123D01*
X152838210Y-116944812D01*
X152838700Y-116946537D01*
X152839106Y-116948295D01*
X152839426Y-116950085D01*
X152839657Y-116951904D01*
X152839798Y-116953749D01*
X152839845Y-116955619D01*
X152839845Y-117088921D01*
X152839798Y-117090791D01*
X152839657Y-117092636D01*
X152839426Y-117094455D01*
X152839106Y-117096245D01*
X152838700Y-117098003D01*
X152838210Y-117099728D01*
X152837638Y-117101417D01*
X152836987Y-117103067D01*
X152836258Y-117104678D01*
X152835455Y-117106245D01*
X152834579Y-117107768D01*
X152833633Y-117109243D01*
X152832620Y-117110668D01*
X152831540Y-117112042D01*
X152830397Y-117113361D01*
X152829193Y-117114624D01*
X152827930Y-117115828D01*
X152826611Y-117116971D01*
X152825237Y-117118050D01*
X152823812Y-117119064D01*
X152822337Y-117120010D01*
X152820814Y-117120886D01*
X152819247Y-117121689D01*
X152817637Y-117122417D01*
X152815986Y-117123068D01*
X152814297Y-117123640D01*
X152812572Y-117124130D01*
X152810814Y-117124537D01*
X152809024Y-117124857D01*
X152807205Y-117125088D01*
X152805360Y-117125228D01*
X152803490Y-117125276D01*
X152670189Y-117125276D01*
X152668319Y-117125228D01*
X152666473Y-117125088D01*
X152664654Y-117124857D01*
X152662865Y-117124537D01*
X152661106Y-117124130D01*
X152659382Y-117123640D01*
X152657693Y-117123068D01*
X152656042Y-117122417D01*
X152654432Y-117121689D01*
X152652864Y-117120886D01*
X152651342Y-117120010D01*
X152649867Y-117119064D01*
X152648441Y-117118050D01*
X152647068Y-117116971D01*
X152645748Y-117115828D01*
X152644486Y-117114624D01*
X152643282Y-117113361D01*
X152642139Y-117112042D01*
X152641059Y-117110668D01*
X152640045Y-117109243D01*
X152639099Y-117107768D01*
X152638224Y-117106245D01*
X152637420Y-117104678D01*
X152636692Y-117103067D01*
X152636041Y-117101417D01*
X152635469Y-117099728D01*
X152634979Y-117098003D01*
X152634573Y-117096245D01*
X152634253Y-117094455D01*
X152634021Y-117092636D01*
X152633881Y-117090791D01*
X152633834Y-117088921D01*
X152633834Y-116955619D01*
X152633881Y-116953749D01*
X152634021Y-116951904D01*
X152634253Y-116950085D01*
X152634573Y-116948295D01*
X152634979Y-116946537D01*
X152635469Y-116944812D01*
X152636041Y-116943123D01*
X152636692Y-116941473D01*
X152637420Y-116939862D01*
X152638224Y-116938295D01*
X152639099Y-116936772D01*
X152640045Y-116935297D01*
X152641059Y-116933872D01*
X152642139Y-116932498D01*
X152643282Y-116931179D01*
X152644486Y-116929916D01*
X152645748Y-116928712D01*
X152647068Y-116927569D01*
X152648441Y-116926490D01*
X152649867Y-116925476D01*
X152651342Y-116924530D01*
X152652864Y-116923654D01*
X152654432Y-116922851D01*
X152656042Y-116922123D01*
X152657693Y-116921471D01*
X152659382Y-116920900D01*
X152661106Y-116920409D01*
X152662865Y-116920003D01*
X152664654Y-116919683D01*
X152666473Y-116919452D01*
X152668319Y-116919312D01*
X152670189Y-116919264D01*
X152803490Y-116919264D01*
X152805360Y-116919312D01*
G37*
G36*
X152501071Y-117823862D02*
G01*
X152502917Y-117824002D01*
X152504736Y-117824233D01*
X152506525Y-117824553D01*
X152508284Y-117824959D01*
X152510009Y-117825450D01*
X152511697Y-117826021D01*
X152513348Y-117826673D01*
X152514958Y-117827401D01*
X152516526Y-117828204D01*
X152518048Y-117829080D01*
X152519523Y-117830026D01*
X152520949Y-117831040D01*
X152522322Y-117832119D01*
X152523642Y-117833262D01*
X152524904Y-117834466D01*
X152526109Y-117835729D01*
X152527251Y-117837048D01*
X152528331Y-117838422D01*
X152529345Y-117839847D01*
X152530291Y-117841322D01*
X152531167Y-117842845D01*
X152531970Y-117844412D01*
X152532698Y-117846023D01*
X152533349Y-117847673D01*
X152533921Y-117849362D01*
X152534411Y-117851087D01*
X152534817Y-117852845D01*
X152535137Y-117854635D01*
X152535369Y-117856454D01*
X152535509Y-117858299D01*
X152535556Y-117860169D01*
X152535556Y-117993471D01*
X152535509Y-117995341D01*
X152535369Y-117997186D01*
X152535137Y-117999005D01*
X152534817Y-118000795D01*
X152534411Y-118002553D01*
X152533921Y-118004278D01*
X152533349Y-118005967D01*
X152532698Y-118007617D01*
X152531970Y-118009228D01*
X152531167Y-118010795D01*
X152530291Y-118012317D01*
X152529345Y-118013793D01*
X152528331Y-118015218D01*
X152527251Y-118016592D01*
X152526109Y-118017911D01*
X152524904Y-118019174D01*
X152523642Y-118020378D01*
X152522322Y-118021521D01*
X152520949Y-118022600D01*
X152519523Y-118023614D01*
X152518048Y-118024560D01*
X152516526Y-118025436D01*
X152514958Y-118026239D01*
X152513348Y-118026967D01*
X152511697Y-118027619D01*
X152510009Y-118028190D01*
X152508284Y-118028680D01*
X152506525Y-118029087D01*
X152504736Y-118029407D01*
X152502917Y-118029638D01*
X152501071Y-118029778D01*
X152499202Y-118029826D01*
X152365900Y-118029826D01*
X152364030Y-118029778D01*
X152362185Y-118029638D01*
X152360366Y-118029407D01*
X152358576Y-118029087D01*
X152356818Y-118028680D01*
X152355093Y-118028190D01*
X152353404Y-118027619D01*
X152351753Y-118026967D01*
X152350143Y-118026239D01*
X152348576Y-118025436D01*
X152347053Y-118024560D01*
X152345578Y-118023614D01*
X152344153Y-118022600D01*
X152342779Y-118021521D01*
X152341460Y-118020378D01*
X152340197Y-118019174D01*
X152338993Y-118017911D01*
X152337850Y-118016592D01*
X152336771Y-118015218D01*
X152335757Y-118013793D01*
X152334811Y-118012317D01*
X152333935Y-118010795D01*
X152333132Y-118009228D01*
X152332403Y-118007617D01*
X152331752Y-118005967D01*
X152331180Y-118004278D01*
X152330690Y-118002553D01*
X152330284Y-118000795D01*
X152329964Y-117999005D01*
X152329733Y-117997186D01*
X152329592Y-117995341D01*
X152329545Y-117993471D01*
X152329545Y-117860169D01*
X152329592Y-117858299D01*
X152329733Y-117856454D01*
X152329964Y-117854635D01*
X152330284Y-117852845D01*
X152330690Y-117851087D01*
X152331180Y-117849362D01*
X152331752Y-117847673D01*
X152332403Y-117846023D01*
X152333132Y-117844412D01*
X152333935Y-117842845D01*
X152334811Y-117841322D01*
X152335757Y-117839847D01*
X152336771Y-117838422D01*
X152337850Y-117837048D01*
X152338993Y-117835729D01*
X152340197Y-117834466D01*
X152341460Y-117833262D01*
X152342779Y-117832119D01*
X152344153Y-117831040D01*
X152345578Y-117830026D01*
X152347053Y-117829080D01*
X152348576Y-117828204D01*
X152350143Y-117827401D01*
X152351753Y-117826673D01*
X152353404Y-117826021D01*
X152355093Y-117825450D01*
X152356818Y-117824959D01*
X152358576Y-117824553D01*
X152360366Y-117824233D01*
X152362185Y-117824002D01*
X152364030Y-117823862D01*
X152365900Y-117823814D01*
X152499202Y-117823814D01*
X152501071Y-117823862D01*
G37*
G36*
X152501071Y-117520901D02*
G01*
X152502917Y-117521042D01*
X152504736Y-117521273D01*
X152506525Y-117521593D01*
X152508284Y-117521999D01*
X152510009Y-117522489D01*
X152511697Y-117523061D01*
X152513348Y-117523712D01*
X152514958Y-117524441D01*
X152516526Y-117525244D01*
X152518048Y-117526119D01*
X152519523Y-117527065D01*
X152520949Y-117528079D01*
X152522322Y-117529159D01*
X152523642Y-117530302D01*
X152524904Y-117531506D01*
X152526109Y-117532769D01*
X152527251Y-117534088D01*
X152528331Y-117535462D01*
X152529345Y-117536887D01*
X152530291Y-117538362D01*
X152531167Y-117539884D01*
X152531970Y-117541452D01*
X152532698Y-117543062D01*
X152533349Y-117544713D01*
X152533921Y-117546402D01*
X152534411Y-117548127D01*
X152534817Y-117549885D01*
X152535137Y-117551675D01*
X152535369Y-117553493D01*
X152535509Y-117555339D01*
X152535556Y-117557209D01*
X152535556Y-117690510D01*
X152535509Y-117692380D01*
X152535369Y-117694226D01*
X152535137Y-117696044D01*
X152534817Y-117697834D01*
X152534411Y-117699593D01*
X152533921Y-117701317D01*
X152533349Y-117703006D01*
X152532698Y-117704657D01*
X152531970Y-117706267D01*
X152531167Y-117707835D01*
X152530291Y-117709357D01*
X152529345Y-117710832D01*
X152528331Y-117712258D01*
X152527251Y-117713631D01*
X152526109Y-117714950D01*
X152524904Y-117716213D01*
X152523642Y-117717417D01*
X152522322Y-117718560D01*
X152520949Y-117719640D01*
X152519523Y-117720654D01*
X152518048Y-117721600D01*
X152516526Y-117722475D01*
X152514958Y-117723279D01*
X152513348Y-117724007D01*
X152511697Y-117724658D01*
X152510009Y-117725230D01*
X152508284Y-117725720D01*
X152506525Y-117726126D01*
X152504736Y-117726446D01*
X152502917Y-117726678D01*
X152501071Y-117726818D01*
X152499202Y-117726865D01*
X152365900Y-117726865D01*
X152364030Y-117726818D01*
X152362185Y-117726678D01*
X152360366Y-117726446D01*
X152358576Y-117726126D01*
X152356818Y-117725720D01*
X152355093Y-117725230D01*
X152353404Y-117724658D01*
X152351753Y-117724007D01*
X152350143Y-117723279D01*
X152348576Y-117722475D01*
X152347053Y-117721600D01*
X152345578Y-117720654D01*
X152344153Y-117719640D01*
X152342779Y-117718560D01*
X152341460Y-117717417D01*
X152340197Y-117716213D01*
X152338993Y-117714950D01*
X152337850Y-117713631D01*
X152336771Y-117712258D01*
X152335757Y-117710832D01*
X152334811Y-117709357D01*
X152333935Y-117707835D01*
X152333132Y-117706267D01*
X152332403Y-117704657D01*
X152331752Y-117703006D01*
X152331180Y-117701317D01*
X152330690Y-117699593D01*
X152330284Y-117697834D01*
X152329964Y-117696044D01*
X152329733Y-117694226D01*
X152329592Y-117692380D01*
X152329545Y-117690510D01*
X152329545Y-117557209D01*
X152329592Y-117555339D01*
X152329733Y-117553493D01*
X152329964Y-117551675D01*
X152330284Y-117549885D01*
X152330690Y-117548127D01*
X152331180Y-117546402D01*
X152331752Y-117544713D01*
X152332403Y-117543062D01*
X152333132Y-117541452D01*
X152333935Y-117539884D01*
X152334811Y-117538362D01*
X152335757Y-117536887D01*
X152336771Y-117535462D01*
X152337850Y-117534088D01*
X152338993Y-117532769D01*
X152340197Y-117531506D01*
X152341460Y-117530302D01*
X152342779Y-117529159D01*
X152344153Y-117528079D01*
X152345578Y-117527065D01*
X152347053Y-117526119D01*
X152348576Y-117525244D01*
X152350143Y-117524441D01*
X152351753Y-117523712D01*
X152353404Y-117523061D01*
X152355093Y-117522489D01*
X152356818Y-117521999D01*
X152358576Y-117521593D01*
X152360366Y-117521273D01*
X152362185Y-117521042D01*
X152364030Y-117520901D01*
X152365900Y-117520854D01*
X152499202Y-117520854D01*
X152501071Y-117520901D01*
G37*
G36*
X152501071Y-116919312D02*
G01*
X152502917Y-116919452D01*
X152504736Y-116919683D01*
X152506525Y-116920003D01*
X152508284Y-116920409D01*
X152510009Y-116920900D01*
X152511697Y-116921471D01*
X152513348Y-116922123D01*
X152514958Y-116922851D01*
X152516526Y-116923654D01*
X152518048Y-116924530D01*
X152519523Y-116925476D01*
X152520949Y-116926490D01*
X152522322Y-116927569D01*
X152523642Y-116928712D01*
X152524904Y-116929916D01*
X152526109Y-116931179D01*
X152527251Y-116932498D01*
X152528331Y-116933872D01*
X152529345Y-116935297D01*
X152530291Y-116936772D01*
X152531167Y-116938295D01*
X152531970Y-116939862D01*
X152532698Y-116941473D01*
X152533349Y-116943123D01*
X152533921Y-116944812D01*
X152534411Y-116946537D01*
X152534817Y-116948295D01*
X152535137Y-116950085D01*
X152535369Y-116951904D01*
X152535509Y-116953749D01*
X152535556Y-116955619D01*
X152535556Y-117088921D01*
X152535509Y-117090791D01*
X152535369Y-117092636D01*
X152535137Y-117094455D01*
X152534817Y-117096245D01*
X152534411Y-117098003D01*
X152533921Y-117099728D01*
X152533349Y-117101417D01*
X152532698Y-117103067D01*
X152531970Y-117104678D01*
X152531167Y-117106245D01*
X152530291Y-117107768D01*
X152529345Y-117109243D01*
X152528331Y-117110668D01*
X152527251Y-117112042D01*
X152526109Y-117113361D01*
X152524904Y-117114624D01*
X152523642Y-117115828D01*
X152522322Y-117116971D01*
X152520949Y-117118050D01*
X152519523Y-117119064D01*
X152518048Y-117120010D01*
X152516526Y-117120886D01*
X152514958Y-117121689D01*
X152513348Y-117122417D01*
X152511697Y-117123068D01*
X152510009Y-117123640D01*
X152508284Y-117124130D01*
X152506525Y-117124537D01*
X152504736Y-117124857D01*
X152502917Y-117125088D01*
X152501071Y-117125228D01*
X152499202Y-117125276D01*
X152365900Y-117125276D01*
X152364030Y-117125228D01*
X152362185Y-117125088D01*
X152360366Y-117124857D01*
X152358576Y-117124537D01*
X152356818Y-117124130D01*
X152355093Y-117123640D01*
X152353404Y-117123068D01*
X152351753Y-117122417D01*
X152350143Y-117121689D01*
X152348576Y-117120886D01*
X152347053Y-117120010D01*
X152345578Y-117119064D01*
X152344153Y-117118050D01*
X152342779Y-117116971D01*
X152341460Y-117115828D01*
X152340197Y-117114624D01*
X152338993Y-117113361D01*
X152337850Y-117112042D01*
X152336771Y-117110668D01*
X152335757Y-117109243D01*
X152334811Y-117107768D01*
X152333935Y-117106245D01*
X152333132Y-117104678D01*
X152332403Y-117103067D01*
X152331752Y-117101417D01*
X152331180Y-117099728D01*
X152330690Y-117098003D01*
X152330284Y-117096245D01*
X152329964Y-117094455D01*
X152329733Y-117092636D01*
X152329592Y-117090791D01*
X152329545Y-117088921D01*
X152329545Y-116955619D01*
X152329592Y-116953749D01*
X152329733Y-116951904D01*
X152329964Y-116950085D01*
X152330284Y-116948295D01*
X152330690Y-116946537D01*
X152331180Y-116944812D01*
X152331752Y-116943123D01*
X152332403Y-116941473D01*
X152333132Y-116939862D01*
X152333935Y-116938295D01*
X152334811Y-116936772D01*
X152335757Y-116935297D01*
X152336771Y-116933872D01*
X152337850Y-116932498D01*
X152338993Y-116931179D01*
X152340197Y-116929916D01*
X152341460Y-116928712D01*
X152342779Y-116927569D01*
X152344153Y-116926490D01*
X152345578Y-116925476D01*
X152347053Y-116924530D01*
X152348576Y-116923654D01*
X152350143Y-116922851D01*
X152351753Y-116922123D01*
X152353404Y-116921471D01*
X152355093Y-116920900D01*
X152356818Y-116920409D01*
X152358576Y-116920003D01*
X152360366Y-116919683D01*
X152362185Y-116919452D01*
X152364030Y-116919312D01*
X152365900Y-116919264D01*
X152499202Y-116919264D01*
X152501071Y-116919312D01*
G37*
G36*
X152199444Y-117823862D02*
G01*
X152201289Y-117824002D01*
X152203108Y-117824233D01*
X152204898Y-117824553D01*
X152206656Y-117824959D01*
X152208381Y-117825450D01*
X152210070Y-117826021D01*
X152211721Y-117826673D01*
X152213331Y-117827401D01*
X152214898Y-117828204D01*
X152216421Y-117829080D01*
X152217896Y-117830026D01*
X152219321Y-117831040D01*
X152220695Y-117832119D01*
X152222014Y-117833262D01*
X152223277Y-117834466D01*
X152224481Y-117835729D01*
X152225624Y-117837048D01*
X152226704Y-117838422D01*
X152227717Y-117839847D01*
X152228663Y-117841322D01*
X152229539Y-117842845D01*
X152230342Y-117844412D01*
X152231071Y-117846023D01*
X152231722Y-117847673D01*
X152232294Y-117849362D01*
X152232784Y-117851087D01*
X152233190Y-117852845D01*
X152233510Y-117854635D01*
X152233741Y-117856454D01*
X152233882Y-117858299D01*
X152233929Y-117860169D01*
X152233929Y-117993471D01*
X152233882Y-117995341D01*
X152233741Y-117997186D01*
X152233510Y-117999005D01*
X152233190Y-118000795D01*
X152232784Y-118002553D01*
X152232294Y-118004278D01*
X152231722Y-118005967D01*
X152231071Y-118007617D01*
X152230342Y-118009228D01*
X152229539Y-118010795D01*
X152228663Y-118012317D01*
X152227717Y-118013793D01*
X152226704Y-118015218D01*
X152225624Y-118016592D01*
X152224481Y-118017911D01*
X152223277Y-118019174D01*
X152222014Y-118020378D01*
X152220695Y-118021521D01*
X152219321Y-118022600D01*
X152217896Y-118023614D01*
X152216421Y-118024560D01*
X152214898Y-118025436D01*
X152213331Y-118026239D01*
X152211721Y-118026967D01*
X152210070Y-118027619D01*
X152208381Y-118028190D01*
X152206656Y-118028680D01*
X152204898Y-118029087D01*
X152203108Y-118029407D01*
X152201289Y-118029638D01*
X152199444Y-118029778D01*
X152197574Y-118029826D01*
X152064273Y-118029826D01*
X152062403Y-118029778D01*
X152060557Y-118029638D01*
X152058738Y-118029407D01*
X152056949Y-118029087D01*
X152055190Y-118028680D01*
X152053466Y-118028190D01*
X152051777Y-118027619D01*
X152050126Y-118026967D01*
X152048516Y-118026239D01*
X152046948Y-118025436D01*
X152045426Y-118024560D01*
X152043951Y-118023614D01*
X152042525Y-118022600D01*
X152041152Y-118021521D01*
X152039832Y-118020378D01*
X152038570Y-118019174D01*
X152037366Y-118017911D01*
X152036223Y-118016592D01*
X152035143Y-118015218D01*
X152034129Y-118013793D01*
X152033183Y-118012317D01*
X152032307Y-118010795D01*
X152031504Y-118009228D01*
X152030776Y-118007617D01*
X152030125Y-118005967D01*
X152029553Y-118004278D01*
X152029063Y-118002553D01*
X152028657Y-118000795D01*
X152028337Y-117999005D01*
X152028105Y-117997186D01*
X152027965Y-117995341D01*
X152027918Y-117993471D01*
X152027918Y-117860169D01*
X152027965Y-117858299D01*
X152028105Y-117856454D01*
X152028337Y-117854635D01*
X152028657Y-117852845D01*
X152029063Y-117851087D01*
X152029553Y-117849362D01*
X152030125Y-117847673D01*
X152030776Y-117846023D01*
X152031504Y-117844412D01*
X152032307Y-117842845D01*
X152033183Y-117841322D01*
X152034129Y-117839847D01*
X152035143Y-117838422D01*
X152036223Y-117837048D01*
X152037366Y-117835729D01*
X152038570Y-117834466D01*
X152039832Y-117833262D01*
X152041152Y-117832119D01*
X152042525Y-117831040D01*
X152043951Y-117830026D01*
X152045426Y-117829080D01*
X152046948Y-117828204D01*
X152048516Y-117827401D01*
X152050126Y-117826673D01*
X152051777Y-117826021D01*
X152053466Y-117825450D01*
X152055190Y-117824959D01*
X152056949Y-117824553D01*
X152058738Y-117824233D01*
X152060557Y-117824002D01*
X152062403Y-117823862D01*
X152064273Y-117823814D01*
X152197574Y-117823814D01*
X152199444Y-117823862D01*
G37*
G36*
X152199444Y-117520901D02*
G01*
X152201289Y-117521042D01*
X152203108Y-117521273D01*
X152204898Y-117521593D01*
X152206656Y-117521999D01*
X152208381Y-117522489D01*
X152210070Y-117523061D01*
X152211721Y-117523712D01*
X152213331Y-117524441D01*
X152214898Y-117525244D01*
X152216421Y-117526119D01*
X152217896Y-117527065D01*
X152219321Y-117528079D01*
X152220695Y-117529159D01*
X152222014Y-117530302D01*
X152223277Y-117531506D01*
X152224481Y-117532769D01*
X152225624Y-117534088D01*
X152226704Y-117535462D01*
X152227717Y-117536887D01*
X152228663Y-117538362D01*
X152229539Y-117539884D01*
X152230342Y-117541452D01*
X152231071Y-117543062D01*
X152231722Y-117544713D01*
X152232294Y-117546402D01*
X152232784Y-117548127D01*
X152233190Y-117549885D01*
X152233510Y-117551675D01*
X152233741Y-117553493D01*
X152233882Y-117555339D01*
X152233929Y-117557209D01*
X152233929Y-117690510D01*
X152233882Y-117692380D01*
X152233741Y-117694226D01*
X152233510Y-117696044D01*
X152233190Y-117697834D01*
X152232784Y-117699593D01*
X152232294Y-117701317D01*
X152231722Y-117703006D01*
X152231071Y-117704657D01*
X152230342Y-117706267D01*
X152229539Y-117707835D01*
X152228663Y-117709357D01*
X152227717Y-117710832D01*
X152226704Y-117712258D01*
X152225624Y-117713631D01*
X152224481Y-117714950D01*
X152223277Y-117716213D01*
X152222014Y-117717417D01*
X152220695Y-117718560D01*
X152219321Y-117719640D01*
X152217896Y-117720654D01*
X152216421Y-117721600D01*
X152214898Y-117722475D01*
X152213331Y-117723279D01*
X152211721Y-117724007D01*
X152210070Y-117724658D01*
X152208381Y-117725230D01*
X152206656Y-117725720D01*
X152204898Y-117726126D01*
X152203108Y-117726446D01*
X152201289Y-117726678D01*
X152199444Y-117726818D01*
X152197574Y-117726865D01*
X152064273Y-117726865D01*
X152062403Y-117726818D01*
X152060557Y-117726678D01*
X152058738Y-117726446D01*
X152056949Y-117726126D01*
X152055190Y-117725720D01*
X152053466Y-117725230D01*
X152051777Y-117724658D01*
X152050126Y-117724007D01*
X152048516Y-117723279D01*
X152046948Y-117722475D01*
X152045426Y-117721600D01*
X152043951Y-117720654D01*
X152042525Y-117719640D01*
X152041152Y-117718560D01*
X152039832Y-117717417D01*
X152038570Y-117716213D01*
X152037366Y-117714950D01*
X152036223Y-117713631D01*
X152035143Y-117712258D01*
X152034129Y-117710832D01*
X152033183Y-117709357D01*
X152032307Y-117707835D01*
X152031504Y-117706267D01*
X152030776Y-117704657D01*
X152030125Y-117703006D01*
X152029553Y-117701317D01*
X152029063Y-117699593D01*
X152028657Y-117697834D01*
X152028337Y-117696044D01*
X152028105Y-117694226D01*
X152027965Y-117692380D01*
X152027918Y-117690510D01*
X152027918Y-117557209D01*
X152027965Y-117555339D01*
X152028105Y-117553493D01*
X152028337Y-117551675D01*
X152028657Y-117549885D01*
X152029063Y-117548127D01*
X152029553Y-117546402D01*
X152030125Y-117544713D01*
X152030776Y-117543062D01*
X152031504Y-117541452D01*
X152032307Y-117539884D01*
X152033183Y-117538362D01*
X152034129Y-117536887D01*
X152035143Y-117535462D01*
X152036223Y-117534088D01*
X152037366Y-117532769D01*
X152038570Y-117531506D01*
X152039832Y-117530302D01*
X152041152Y-117529159D01*
X152042525Y-117528079D01*
X152043951Y-117527065D01*
X152045426Y-117526119D01*
X152046948Y-117525244D01*
X152048516Y-117524441D01*
X152050126Y-117523712D01*
X152051777Y-117523061D01*
X152053466Y-117522489D01*
X152055190Y-117521999D01*
X152056949Y-117521593D01*
X152058738Y-117521273D01*
X152060557Y-117521042D01*
X152062403Y-117520901D01*
X152064273Y-117520854D01*
X152197574Y-117520854D01*
X152199444Y-117520901D01*
G37*
G36*
X152199444Y-117217943D02*
G01*
X152201289Y-117218084D01*
X152203108Y-117218315D01*
X152204898Y-117218635D01*
X152206656Y-117219041D01*
X152208381Y-117219531D01*
X152210070Y-117220103D01*
X152211721Y-117220754D01*
X152213331Y-117221483D01*
X152214898Y-117222286D01*
X152216421Y-117223161D01*
X152217896Y-117224107D01*
X152219321Y-117225121D01*
X152220695Y-117226201D01*
X152222014Y-117227344D01*
X152223277Y-117228548D01*
X152224481Y-117229811D01*
X152225624Y-117231130D01*
X152226704Y-117232503D01*
X152227717Y-117233929D01*
X152228663Y-117235404D01*
X152229539Y-117236926D01*
X152230342Y-117238494D01*
X152231071Y-117240104D01*
X152231722Y-117241755D01*
X152232294Y-117243444D01*
X152232784Y-117245168D01*
X152233190Y-117246927D01*
X152233510Y-117248717D01*
X152233741Y-117250535D01*
X152233882Y-117252381D01*
X152233929Y-117254251D01*
X152233929Y-117387552D01*
X152233882Y-117389422D01*
X152233741Y-117391268D01*
X152233510Y-117393086D01*
X152233190Y-117394876D01*
X152232784Y-117396634D01*
X152232294Y-117398359D01*
X152231722Y-117400048D01*
X152231071Y-117401699D01*
X152230342Y-117403309D01*
X152229539Y-117404877D01*
X152228663Y-117406399D01*
X152227717Y-117407874D01*
X152226704Y-117409300D01*
X152225624Y-117410673D01*
X152224481Y-117411992D01*
X152223277Y-117413255D01*
X152222014Y-117414459D01*
X152220695Y-117415602D01*
X152219321Y-117416682D01*
X152217896Y-117417696D01*
X152216421Y-117418642D01*
X152214898Y-117419517D01*
X152213331Y-117420320D01*
X152211721Y-117421049D01*
X152210070Y-117421700D01*
X152208381Y-117422272D01*
X152206656Y-117422762D01*
X152204898Y-117423168D01*
X152203108Y-117423488D01*
X152201289Y-117423719D01*
X152199444Y-117423860D01*
X152197574Y-117423907D01*
X152064273Y-117423907D01*
X152062403Y-117423860D01*
X152060557Y-117423719D01*
X152058738Y-117423488D01*
X152056949Y-117423168D01*
X152055190Y-117422762D01*
X152053466Y-117422272D01*
X152051777Y-117421700D01*
X152050126Y-117421049D01*
X152048516Y-117420320D01*
X152046948Y-117419517D01*
X152045426Y-117418642D01*
X152043951Y-117417696D01*
X152042525Y-117416682D01*
X152041152Y-117415602D01*
X152039832Y-117414459D01*
X152038570Y-117413255D01*
X152037366Y-117411992D01*
X152036223Y-117410673D01*
X152035143Y-117409300D01*
X152034129Y-117407874D01*
X152033183Y-117406399D01*
X152032307Y-117404877D01*
X152031504Y-117403309D01*
X152030776Y-117401699D01*
X152030125Y-117400048D01*
X152029553Y-117398359D01*
X152029063Y-117396634D01*
X152028657Y-117394876D01*
X152028337Y-117393086D01*
X152028105Y-117391268D01*
X152027965Y-117389422D01*
X152027918Y-117387552D01*
X152027918Y-117254251D01*
X152027965Y-117252381D01*
X152028105Y-117250535D01*
X152028337Y-117248717D01*
X152028657Y-117246927D01*
X152029063Y-117245168D01*
X152029553Y-117243444D01*
X152030125Y-117241755D01*
X152030776Y-117240104D01*
X152031504Y-117238494D01*
X152032307Y-117236926D01*
X152033183Y-117235404D01*
X152034129Y-117233929D01*
X152035143Y-117232503D01*
X152036223Y-117231130D01*
X152037366Y-117229811D01*
X152038570Y-117228548D01*
X152039832Y-117227344D01*
X152041152Y-117226201D01*
X152042525Y-117225121D01*
X152043951Y-117224107D01*
X152045426Y-117223161D01*
X152046948Y-117222286D01*
X152048516Y-117221483D01*
X152050126Y-117220754D01*
X152051777Y-117220103D01*
X152053466Y-117219531D01*
X152055190Y-117219041D01*
X152056949Y-117218635D01*
X152058738Y-117218315D01*
X152060557Y-117218084D01*
X152062403Y-117217943D01*
X152064273Y-117217896D01*
X152197574Y-117217896D01*
X152199444Y-117217943D01*
G37*
G36*
X151896486Y-117823862D02*
G01*
X151898332Y-117824002D01*
X151900150Y-117824233D01*
X151901940Y-117824553D01*
X151903698Y-117824959D01*
X151905423Y-117825450D01*
X151907112Y-117826021D01*
X151908763Y-117826673D01*
X151910373Y-117827401D01*
X151911941Y-117828204D01*
X151913463Y-117829080D01*
X151914938Y-117830026D01*
X151916363Y-117831040D01*
X151917737Y-117832119D01*
X151919056Y-117833262D01*
X151920319Y-117834466D01*
X151921523Y-117835729D01*
X151922666Y-117837048D01*
X151923746Y-117838422D01*
X151924760Y-117839847D01*
X151925706Y-117841322D01*
X151926581Y-117842845D01*
X151927384Y-117844412D01*
X151928113Y-117846023D01*
X151928764Y-117847673D01*
X151929336Y-117849362D01*
X151929826Y-117851087D01*
X151930232Y-117852845D01*
X151930552Y-117854635D01*
X151930783Y-117856454D01*
X151930924Y-117858299D01*
X151930971Y-117860169D01*
X151930971Y-117993471D01*
X151930924Y-117995341D01*
X151930783Y-117997186D01*
X151930552Y-117999005D01*
X151930232Y-118000795D01*
X151929826Y-118002553D01*
X151929336Y-118004278D01*
X151928764Y-118005967D01*
X151928113Y-118007617D01*
X151927384Y-118009228D01*
X151926581Y-118010795D01*
X151925706Y-118012317D01*
X151924760Y-118013793D01*
X151923746Y-118015218D01*
X151922666Y-118016592D01*
X151921523Y-118017911D01*
X151920319Y-118019174D01*
X151919056Y-118020378D01*
X151917737Y-118021521D01*
X151916363Y-118022600D01*
X151914938Y-118023614D01*
X151913463Y-118024560D01*
X151911941Y-118025436D01*
X151910373Y-118026239D01*
X151908763Y-118026967D01*
X151907112Y-118027619D01*
X151905423Y-118028190D01*
X151903698Y-118028680D01*
X151901940Y-118029087D01*
X151900150Y-118029407D01*
X151898332Y-118029638D01*
X151896486Y-118029778D01*
X151894616Y-118029826D01*
X151761315Y-118029826D01*
X151759445Y-118029778D01*
X151757599Y-118029638D01*
X151755781Y-118029407D01*
X151753991Y-118029087D01*
X151752232Y-118028680D01*
X151750508Y-118028190D01*
X151748819Y-118027619D01*
X151747168Y-118026967D01*
X151745558Y-118026239D01*
X151743990Y-118025436D01*
X151742468Y-118024560D01*
X151740993Y-118023614D01*
X151739567Y-118022600D01*
X151738194Y-118021521D01*
X151736875Y-118020378D01*
X151735612Y-118019174D01*
X151734408Y-118017911D01*
X151733265Y-118016592D01*
X151732185Y-118015218D01*
X151731171Y-118013793D01*
X151730225Y-118012317D01*
X151729350Y-118010795D01*
X151728546Y-118009228D01*
X151727818Y-118007617D01*
X151727167Y-118005967D01*
X151726595Y-118004278D01*
X151726105Y-118002553D01*
X151725699Y-118000795D01*
X151725379Y-117999005D01*
X151725147Y-117997186D01*
X151725007Y-117995341D01*
X151724960Y-117993471D01*
X151724960Y-117860169D01*
X151725007Y-117858299D01*
X151725147Y-117856454D01*
X151725379Y-117854635D01*
X151725699Y-117852845D01*
X151726105Y-117851087D01*
X151726595Y-117849362D01*
X151727167Y-117847673D01*
X151727818Y-117846023D01*
X151728546Y-117844412D01*
X151729350Y-117842845D01*
X151730225Y-117841322D01*
X151731171Y-117839847D01*
X151732185Y-117838422D01*
X151733265Y-117837048D01*
X151734408Y-117835729D01*
X151735612Y-117834466D01*
X151736875Y-117833262D01*
X151738194Y-117832119D01*
X151739567Y-117831040D01*
X151740993Y-117830026D01*
X151742468Y-117829080D01*
X151743990Y-117828204D01*
X151745558Y-117827401D01*
X151747168Y-117826673D01*
X151748819Y-117826021D01*
X151750508Y-117825450D01*
X151752232Y-117824959D01*
X151753991Y-117824553D01*
X151755781Y-117824233D01*
X151757599Y-117824002D01*
X151759445Y-117823862D01*
X151761315Y-117823814D01*
X151894616Y-117823814D01*
X151896486Y-117823862D01*
G37*
G36*
X151896486Y-117520901D02*
G01*
X151898332Y-117521042D01*
X151900150Y-117521273D01*
X151901940Y-117521593D01*
X151903698Y-117521999D01*
X151905423Y-117522489D01*
X151907112Y-117523061D01*
X151908763Y-117523712D01*
X151910373Y-117524441D01*
X151911941Y-117525244D01*
X151913463Y-117526119D01*
X151914938Y-117527065D01*
X151916363Y-117528079D01*
X151917737Y-117529159D01*
X151919056Y-117530302D01*
X151920319Y-117531506D01*
X151921523Y-117532769D01*
X151922666Y-117534088D01*
X151923746Y-117535462D01*
X151924760Y-117536887D01*
X151925706Y-117538362D01*
X151926581Y-117539884D01*
X151927384Y-117541452D01*
X151928113Y-117543062D01*
X151928764Y-117544713D01*
X151929336Y-117546402D01*
X151929826Y-117548127D01*
X151930232Y-117549885D01*
X151930552Y-117551675D01*
X151930783Y-117553493D01*
X151930924Y-117555339D01*
X151930971Y-117557209D01*
X151930971Y-117690510D01*
X151930924Y-117692380D01*
X151930783Y-117694226D01*
X151930552Y-117696044D01*
X151930232Y-117697834D01*
X151929826Y-117699593D01*
X151929336Y-117701317D01*
X151928764Y-117703006D01*
X151928113Y-117704657D01*
X151927384Y-117706267D01*
X151926581Y-117707835D01*
X151925706Y-117709357D01*
X151924760Y-117710832D01*
X151923746Y-117712258D01*
X151922666Y-117713631D01*
X151921523Y-117714950D01*
X151920319Y-117716213D01*
X151919056Y-117717417D01*
X151917737Y-117718560D01*
X151916363Y-117719640D01*
X151914938Y-117720654D01*
X151913463Y-117721600D01*
X151911941Y-117722475D01*
X151910373Y-117723279D01*
X151908763Y-117724007D01*
X151907112Y-117724658D01*
X151905423Y-117725230D01*
X151903698Y-117725720D01*
X151901940Y-117726126D01*
X151900150Y-117726446D01*
X151898332Y-117726678D01*
X151896486Y-117726818D01*
X151894616Y-117726865D01*
X151761315Y-117726865D01*
X151759445Y-117726818D01*
X151757599Y-117726678D01*
X151755781Y-117726446D01*
X151753991Y-117726126D01*
X151752232Y-117725720D01*
X151750508Y-117725230D01*
X151748819Y-117724658D01*
X151747168Y-117724007D01*
X151745558Y-117723279D01*
X151743990Y-117722475D01*
X151742468Y-117721600D01*
X151740993Y-117720654D01*
X151739567Y-117719640D01*
X151738194Y-117718560D01*
X151736875Y-117717417D01*
X151735612Y-117716213D01*
X151734408Y-117714950D01*
X151733265Y-117713631D01*
X151732185Y-117712258D01*
X151731171Y-117710832D01*
X151730225Y-117709357D01*
X151729350Y-117707835D01*
X151728546Y-117706267D01*
X151727818Y-117704657D01*
X151727167Y-117703006D01*
X151726595Y-117701317D01*
X151726105Y-117699593D01*
X151725699Y-117697834D01*
X151725379Y-117696044D01*
X151725147Y-117694226D01*
X151725007Y-117692380D01*
X151724960Y-117690510D01*
X151724960Y-117557209D01*
X151725007Y-117555339D01*
X151725147Y-117553493D01*
X151725379Y-117551675D01*
X151725699Y-117549885D01*
X151726105Y-117548127D01*
X151726595Y-117546402D01*
X151727167Y-117544713D01*
X151727818Y-117543062D01*
X151728546Y-117541452D01*
X151729350Y-117539884D01*
X151730225Y-117538362D01*
X151731171Y-117536887D01*
X151732185Y-117535462D01*
X151733265Y-117534088D01*
X151734408Y-117532769D01*
X151735612Y-117531506D01*
X151736875Y-117530302D01*
X151738194Y-117529159D01*
X151739567Y-117528079D01*
X151740993Y-117527065D01*
X151742468Y-117526119D01*
X151743990Y-117525244D01*
X151745558Y-117524441D01*
X151747168Y-117523712D01*
X151748819Y-117523061D01*
X151750508Y-117522489D01*
X151752232Y-117521999D01*
X151753991Y-117521593D01*
X151755781Y-117521273D01*
X151757599Y-117521042D01*
X151759445Y-117520901D01*
X151761315Y-117520854D01*
X151894616Y-117520854D01*
X151896486Y-117520901D01*
G37*
G36*
X151896486Y-117217943D02*
G01*
X151898332Y-117218084D01*
X151900150Y-117218315D01*
X151901940Y-117218635D01*
X151903698Y-117219041D01*
X151905423Y-117219531D01*
X151907112Y-117220103D01*
X151908763Y-117220754D01*
X151910373Y-117221483D01*
X151911941Y-117222286D01*
X151913463Y-117223161D01*
X151914938Y-117224107D01*
X151916363Y-117225121D01*
X151917737Y-117226201D01*
X151919056Y-117227344D01*
X151920319Y-117228548D01*
X151921523Y-117229811D01*
X151922666Y-117231130D01*
X151923746Y-117232503D01*
X151924760Y-117233929D01*
X151925706Y-117235404D01*
X151926581Y-117236926D01*
X151927384Y-117238494D01*
X151928113Y-117240104D01*
X151928764Y-117241755D01*
X151929336Y-117243444D01*
X151929826Y-117245168D01*
X151930232Y-117246927D01*
X151930552Y-117248717D01*
X151930783Y-117250535D01*
X151930924Y-117252381D01*
X151930971Y-117254251D01*
X151930971Y-117387552D01*
X151930924Y-117389422D01*
X151930783Y-117391268D01*
X151930552Y-117393086D01*
X151930232Y-117394876D01*
X151929826Y-117396634D01*
X151929336Y-117398359D01*
X151928764Y-117400048D01*
X151928113Y-117401699D01*
X151927384Y-117403309D01*
X151926581Y-117404877D01*
X151925706Y-117406399D01*
X151924760Y-117407874D01*
X151923746Y-117409300D01*
X151922666Y-117410673D01*
X151921523Y-117411992D01*
X151920319Y-117413255D01*
X151919056Y-117414459D01*
X151917737Y-117415602D01*
X151916363Y-117416682D01*
X151914938Y-117417696D01*
X151913463Y-117418642D01*
X151911941Y-117419517D01*
X151910373Y-117420320D01*
X151908763Y-117421049D01*
X151907112Y-117421700D01*
X151905423Y-117422272D01*
X151903698Y-117422762D01*
X151901940Y-117423168D01*
X151900150Y-117423488D01*
X151898332Y-117423719D01*
X151896486Y-117423860D01*
X151894616Y-117423907D01*
X151761315Y-117423907D01*
X151759445Y-117423860D01*
X151757599Y-117423719D01*
X151755781Y-117423488D01*
X151753991Y-117423168D01*
X151752232Y-117422762D01*
X151750508Y-117422272D01*
X151748819Y-117421700D01*
X151747168Y-117421049D01*
X151745558Y-117420320D01*
X151743990Y-117419517D01*
X151742468Y-117418642D01*
X151740993Y-117417696D01*
X151739567Y-117416682D01*
X151738194Y-117415602D01*
X151736875Y-117414459D01*
X151735612Y-117413255D01*
X151734408Y-117411992D01*
X151733265Y-117410673D01*
X151732185Y-117409300D01*
X151731171Y-117407874D01*
X151730225Y-117406399D01*
X151729350Y-117404877D01*
X151728546Y-117403309D01*
X151727818Y-117401699D01*
X151727167Y-117400048D01*
X151726595Y-117398359D01*
X151726105Y-117396634D01*
X151725699Y-117394876D01*
X151725379Y-117393086D01*
X151725147Y-117391268D01*
X151725007Y-117389422D01*
X151724960Y-117387552D01*
X151724960Y-117254251D01*
X151725007Y-117252381D01*
X151725147Y-117250535D01*
X151725379Y-117248717D01*
X151725699Y-117246927D01*
X151726105Y-117245168D01*
X151726595Y-117243444D01*
X151727167Y-117241755D01*
X151727818Y-117240104D01*
X151728546Y-117238494D01*
X151729350Y-117236926D01*
X151730225Y-117235404D01*
X151731171Y-117233929D01*
X151732185Y-117232503D01*
X151733265Y-117231130D01*
X151734408Y-117229811D01*
X151735612Y-117228548D01*
X151736875Y-117227344D01*
X151738194Y-117226201D01*
X151739567Y-117225121D01*
X151740993Y-117224107D01*
X151742468Y-117223161D01*
X151743990Y-117222286D01*
X151745558Y-117221483D01*
X151747168Y-117220754D01*
X151748819Y-117220103D01*
X151750508Y-117219531D01*
X151752232Y-117219041D01*
X151753991Y-117218635D01*
X151755781Y-117218315D01*
X151757599Y-117218084D01*
X151759445Y-117217943D01*
X151761315Y-117217896D01*
X151894616Y-117217896D01*
X151896486Y-117217943D01*
G37*
G36*
X151594861Y-117823862D02*
G01*
X151596707Y-117824002D01*
X151598525Y-117824233D01*
X151600315Y-117824553D01*
X151602073Y-117824959D01*
X151603798Y-117825450D01*
X151605487Y-117826021D01*
X151607138Y-117826673D01*
X151608748Y-117827401D01*
X151610316Y-117828204D01*
X151611838Y-117829080D01*
X151613313Y-117830026D01*
X151614738Y-117831040D01*
X151616112Y-117832119D01*
X151617431Y-117833262D01*
X151618694Y-117834466D01*
X151619898Y-117835729D01*
X151621041Y-117837048D01*
X151622121Y-117838422D01*
X151623135Y-117839847D01*
X151624081Y-117841322D01*
X151624956Y-117842845D01*
X151625759Y-117844412D01*
X151626488Y-117846023D01*
X151627139Y-117847673D01*
X151627711Y-117849362D01*
X151628201Y-117851087D01*
X151628607Y-117852845D01*
X151628927Y-117854635D01*
X151629158Y-117856454D01*
X151629299Y-117858299D01*
X151629346Y-117860169D01*
X151629346Y-117993471D01*
X151629299Y-117995341D01*
X151629158Y-117997186D01*
X151628927Y-117999005D01*
X151628607Y-118000795D01*
X151628201Y-118002553D01*
X151627711Y-118004278D01*
X151627139Y-118005967D01*
X151626488Y-118007617D01*
X151625759Y-118009228D01*
X151624956Y-118010795D01*
X151624081Y-118012317D01*
X151623135Y-118013793D01*
X151622121Y-118015218D01*
X151621041Y-118016592D01*
X151619898Y-118017911D01*
X151618694Y-118019174D01*
X151617431Y-118020378D01*
X151616112Y-118021521D01*
X151614738Y-118022600D01*
X151613313Y-118023614D01*
X151611838Y-118024560D01*
X151610316Y-118025436D01*
X151608748Y-118026239D01*
X151607138Y-118026967D01*
X151605487Y-118027619D01*
X151603798Y-118028190D01*
X151602073Y-118028680D01*
X151600315Y-118029087D01*
X151598525Y-118029407D01*
X151596707Y-118029638D01*
X151594861Y-118029778D01*
X151592991Y-118029826D01*
X151459690Y-118029826D01*
X151457820Y-118029778D01*
X151455974Y-118029638D01*
X151454156Y-118029407D01*
X151452366Y-118029087D01*
X151450607Y-118028680D01*
X151448883Y-118028190D01*
X151447194Y-118027619D01*
X151445543Y-118026967D01*
X151443933Y-118026239D01*
X151442365Y-118025436D01*
X151440843Y-118024560D01*
X151439368Y-118023614D01*
X151437942Y-118022600D01*
X151436569Y-118021521D01*
X151435250Y-118020378D01*
X151433987Y-118019174D01*
X151432783Y-118017911D01*
X151431640Y-118016592D01*
X151430560Y-118015218D01*
X151429546Y-118013793D01*
X151428600Y-118012317D01*
X151427725Y-118010795D01*
X151426922Y-118009228D01*
X151426193Y-118007617D01*
X151425542Y-118005967D01*
X151424970Y-118004278D01*
X151424480Y-118002553D01*
X151424074Y-118000795D01*
X151423754Y-117999005D01*
X151423523Y-117997186D01*
X151423382Y-117995341D01*
X151423335Y-117993471D01*
X151423335Y-117860169D01*
X151423382Y-117858299D01*
X151423523Y-117856454D01*
X151423754Y-117854635D01*
X151424074Y-117852845D01*
X151424480Y-117851087D01*
X151424970Y-117849362D01*
X151425542Y-117847673D01*
X151426193Y-117846023D01*
X151426922Y-117844412D01*
X151427725Y-117842845D01*
X151428600Y-117841322D01*
X151429546Y-117839847D01*
X151430560Y-117838422D01*
X151431640Y-117837048D01*
X151432783Y-117835729D01*
X151433987Y-117834466D01*
X151435250Y-117833262D01*
X151436569Y-117832119D01*
X151437942Y-117831040D01*
X151439368Y-117830026D01*
X151440843Y-117829080D01*
X151442365Y-117828204D01*
X151443933Y-117827401D01*
X151445543Y-117826673D01*
X151447194Y-117826021D01*
X151448883Y-117825450D01*
X151450607Y-117824959D01*
X151452366Y-117824553D01*
X151454156Y-117824233D01*
X151455974Y-117824002D01*
X151457820Y-117823862D01*
X151459690Y-117823814D01*
X151592991Y-117823814D01*
X151594861Y-117823862D01*
G37*
G36*
X151594861Y-117520901D02*
G01*
X151596707Y-117521042D01*
X151598525Y-117521273D01*
X151600315Y-117521593D01*
X151602073Y-117521999D01*
X151603798Y-117522489D01*
X151605487Y-117523061D01*
X151607138Y-117523712D01*
X151608748Y-117524441D01*
X151610316Y-117525244D01*
X151611838Y-117526119D01*
X151613313Y-117527065D01*
X151614738Y-117528079D01*
X151616112Y-117529159D01*
X151617431Y-117530302D01*
X151618694Y-117531506D01*
X151619898Y-117532769D01*
X151621041Y-117534088D01*
X151622121Y-117535462D01*
X151623135Y-117536887D01*
X151624081Y-117538362D01*
X151624956Y-117539884D01*
X151625759Y-117541452D01*
X151626488Y-117543062D01*
X151627139Y-117544713D01*
X151627711Y-117546402D01*
X151628201Y-117548127D01*
X151628607Y-117549885D01*
X151628927Y-117551675D01*
X151629158Y-117553493D01*
X151629299Y-117555339D01*
X151629346Y-117557209D01*
X151629346Y-117690510D01*
X151629299Y-117692380D01*
X151629158Y-117694226D01*
X151628927Y-117696044D01*
X151628607Y-117697834D01*
X151628201Y-117699593D01*
X151627711Y-117701317D01*
X151627139Y-117703006D01*
X151626488Y-117704657D01*
X151625759Y-117706267D01*
X151624956Y-117707835D01*
X151624081Y-117709357D01*
X151623135Y-117710832D01*
X151622121Y-117712258D01*
X151621041Y-117713631D01*
X151619898Y-117714950D01*
X151618694Y-117716213D01*
X151617431Y-117717417D01*
X151616112Y-117718560D01*
X151614738Y-117719640D01*
X151613313Y-117720654D01*
X151611838Y-117721600D01*
X151610316Y-117722475D01*
X151608748Y-117723279D01*
X151607138Y-117724007D01*
X151605487Y-117724658D01*
X151603798Y-117725230D01*
X151602073Y-117725720D01*
X151600315Y-117726126D01*
X151598525Y-117726446D01*
X151596707Y-117726678D01*
X151594861Y-117726818D01*
X151592991Y-117726865D01*
X151459690Y-117726865D01*
X151457820Y-117726818D01*
X151455974Y-117726678D01*
X151454156Y-117726446D01*
X151452366Y-117726126D01*
X151450607Y-117725720D01*
X151448883Y-117725230D01*
X151447194Y-117724658D01*
X151445543Y-117724007D01*
X151443933Y-117723279D01*
X151442365Y-117722475D01*
X151440843Y-117721600D01*
X151439368Y-117720654D01*
X151437942Y-117719640D01*
X151436569Y-117718560D01*
X151435250Y-117717417D01*
X151433987Y-117716213D01*
X151432783Y-117714950D01*
X151431640Y-117713631D01*
X151430560Y-117712258D01*
X151429546Y-117710832D01*
X151428600Y-117709357D01*
X151427725Y-117707835D01*
X151426922Y-117706267D01*
X151426193Y-117704657D01*
X151425542Y-117703006D01*
X151424970Y-117701317D01*
X151424480Y-117699593D01*
X151424074Y-117697834D01*
X151423754Y-117696044D01*
X151423523Y-117694226D01*
X151423382Y-117692380D01*
X151423335Y-117690510D01*
X151423335Y-117557209D01*
X151423382Y-117555339D01*
X151423523Y-117553493D01*
X151423754Y-117551675D01*
X151424074Y-117549885D01*
X151424480Y-117548127D01*
X151424970Y-117546402D01*
X151425542Y-117544713D01*
X151426193Y-117543062D01*
X151426922Y-117541452D01*
X151427725Y-117539884D01*
X151428600Y-117538362D01*
X151429546Y-117536887D01*
X151430560Y-117535462D01*
X151431640Y-117534088D01*
X151432783Y-117532769D01*
X151433987Y-117531506D01*
X151435250Y-117530302D01*
X151436569Y-117529159D01*
X151437942Y-117528079D01*
X151439368Y-117527065D01*
X151440843Y-117526119D01*
X151442365Y-117525244D01*
X151443933Y-117524441D01*
X151445543Y-117523712D01*
X151447194Y-117523061D01*
X151448883Y-117522489D01*
X151450607Y-117521999D01*
X151452366Y-117521593D01*
X151454156Y-117521273D01*
X151455974Y-117521042D01*
X151457820Y-117520901D01*
X151459690Y-117520854D01*
X151592991Y-117520854D01*
X151594861Y-117520901D01*
G37*
G36*
X151594861Y-117217943D02*
G01*
X151596707Y-117218084D01*
X151598525Y-117218315D01*
X151600315Y-117218635D01*
X151602073Y-117219041D01*
X151603798Y-117219531D01*
X151605487Y-117220103D01*
X151607138Y-117220754D01*
X151608748Y-117221483D01*
X151610316Y-117222286D01*
X151611838Y-117223161D01*
X151613313Y-117224107D01*
X151614738Y-117225121D01*
X151616112Y-117226201D01*
X151617431Y-117227344D01*
X151618694Y-117228548D01*
X151619898Y-117229811D01*
X151621041Y-117231130D01*
X151622121Y-117232503D01*
X151623135Y-117233929D01*
X151624081Y-117235404D01*
X151624956Y-117236926D01*
X151625759Y-117238494D01*
X151626488Y-117240104D01*
X151627139Y-117241755D01*
X151627711Y-117243444D01*
X151628201Y-117245168D01*
X151628607Y-117246927D01*
X151628927Y-117248717D01*
X151629158Y-117250535D01*
X151629299Y-117252381D01*
X151629346Y-117254251D01*
X151629346Y-117387552D01*
X151629299Y-117389422D01*
X151629158Y-117391268D01*
X151628927Y-117393086D01*
X151628607Y-117394876D01*
X151628201Y-117396634D01*
X151627711Y-117398359D01*
X151627139Y-117400048D01*
X151626488Y-117401699D01*
X151625759Y-117403309D01*
X151624956Y-117404877D01*
X151624081Y-117406399D01*
X151623135Y-117407874D01*
X151622121Y-117409300D01*
X151621041Y-117410673D01*
X151619898Y-117411992D01*
X151618694Y-117413255D01*
X151617431Y-117414459D01*
X151616112Y-117415602D01*
X151614738Y-117416682D01*
X151613313Y-117417696D01*
X151611838Y-117418642D01*
X151610316Y-117419517D01*
X151608748Y-117420320D01*
X151607138Y-117421049D01*
X151605487Y-117421700D01*
X151603798Y-117422272D01*
X151602073Y-117422762D01*
X151600315Y-117423168D01*
X151598525Y-117423488D01*
X151596707Y-117423719D01*
X151594861Y-117423860D01*
X151592991Y-117423907D01*
X151459690Y-117423907D01*
X151457820Y-117423860D01*
X151455974Y-117423719D01*
X151454156Y-117423488D01*
X151452366Y-117423168D01*
X151450607Y-117422762D01*
X151448883Y-117422272D01*
X151447194Y-117421700D01*
X151445543Y-117421049D01*
X151443933Y-117420320D01*
X151442365Y-117419517D01*
X151440843Y-117418642D01*
X151439368Y-117417696D01*
X151437942Y-117416682D01*
X151436569Y-117415602D01*
X151435250Y-117414459D01*
X151433987Y-117413255D01*
X151432783Y-117411992D01*
X151431640Y-117410673D01*
X151430560Y-117409300D01*
X151429546Y-117407874D01*
X151428600Y-117406399D01*
X151427725Y-117404877D01*
X151426922Y-117403309D01*
X151426193Y-117401699D01*
X151425542Y-117400048D01*
X151424970Y-117398359D01*
X151424480Y-117396634D01*
X151424074Y-117394876D01*
X151423754Y-117393086D01*
X151423523Y-117391268D01*
X151423382Y-117389422D01*
X151423335Y-117387552D01*
X151423335Y-117254251D01*
X151423382Y-117252381D01*
X151423523Y-117250535D01*
X151423754Y-117248717D01*
X151424074Y-117246927D01*
X151424480Y-117245168D01*
X151424970Y-117243444D01*
X151425542Y-117241755D01*
X151426193Y-117240104D01*
X151426922Y-117238494D01*
X151427725Y-117236926D01*
X151428600Y-117235404D01*
X151429546Y-117233929D01*
X151430560Y-117232503D01*
X151431640Y-117231130D01*
X151432783Y-117229811D01*
X151433987Y-117228548D01*
X151435250Y-117227344D01*
X151436569Y-117226201D01*
X151437942Y-117225121D01*
X151439368Y-117224107D01*
X151440843Y-117223161D01*
X151442365Y-117222286D01*
X151443933Y-117221483D01*
X151445543Y-117220754D01*
X151447194Y-117220103D01*
X151448883Y-117219531D01*
X151450607Y-117219041D01*
X151452366Y-117218635D01*
X151454156Y-117218315D01*
X151455974Y-117218084D01*
X151457820Y-117217943D01*
X151459690Y-117217896D01*
X151592991Y-117217896D01*
X151594861Y-117217943D01*
G37*
G36*
X151290570Y-117823862D02*
G01*
X151292416Y-117824002D01*
X151294234Y-117824233D01*
X151296024Y-117824553D01*
X151297782Y-117824959D01*
X151299507Y-117825450D01*
X151301196Y-117826021D01*
X151302847Y-117826673D01*
X151304457Y-117827401D01*
X151306024Y-117828204D01*
X151307547Y-117829080D01*
X151309022Y-117830026D01*
X151310447Y-117831040D01*
X151311821Y-117832119D01*
X151313140Y-117833262D01*
X151314403Y-117834466D01*
X151315607Y-117835729D01*
X151316750Y-117837048D01*
X151317830Y-117838422D01*
X151318843Y-117839847D01*
X151319789Y-117841322D01*
X151320665Y-117842845D01*
X151321468Y-117844412D01*
X151322197Y-117846023D01*
X151322848Y-117847673D01*
X151323420Y-117849362D01*
X151323910Y-117851087D01*
X151324316Y-117852845D01*
X151324636Y-117854635D01*
X151324867Y-117856454D01*
X151325008Y-117858299D01*
X151325055Y-117860169D01*
X151325055Y-117993471D01*
X151325008Y-117995341D01*
X151324867Y-117997186D01*
X151324636Y-117999005D01*
X151324316Y-118000795D01*
X151323910Y-118002553D01*
X151323420Y-118004278D01*
X151322848Y-118005967D01*
X151322197Y-118007617D01*
X151321468Y-118009228D01*
X151320665Y-118010795D01*
X151319789Y-118012317D01*
X151318843Y-118013793D01*
X151317830Y-118015218D01*
X151316750Y-118016592D01*
X151315607Y-118017911D01*
X151314403Y-118019174D01*
X151313140Y-118020378D01*
X151311821Y-118021521D01*
X151310447Y-118022600D01*
X151309022Y-118023614D01*
X151307547Y-118024560D01*
X151306024Y-118025436D01*
X151304457Y-118026239D01*
X151302847Y-118026967D01*
X151301196Y-118027619D01*
X151299507Y-118028190D01*
X151297782Y-118028680D01*
X151296024Y-118029087D01*
X151294234Y-118029407D01*
X151292416Y-118029638D01*
X151290570Y-118029778D01*
X151288700Y-118029826D01*
X151155399Y-118029826D01*
X151153529Y-118029778D01*
X151151683Y-118029638D01*
X151149864Y-118029407D01*
X151148075Y-118029087D01*
X151146316Y-118028680D01*
X151144592Y-118028190D01*
X151142903Y-118027619D01*
X151141252Y-118026967D01*
X151139642Y-118026239D01*
X151138074Y-118025436D01*
X151136552Y-118024560D01*
X151135077Y-118023614D01*
X151133651Y-118022600D01*
X151132278Y-118021521D01*
X151130958Y-118020378D01*
X151129696Y-118019174D01*
X151128492Y-118017911D01*
X151127349Y-118016592D01*
X151126269Y-118015218D01*
X151125255Y-118013793D01*
X151124309Y-118012317D01*
X151123434Y-118010795D01*
X151122630Y-118009228D01*
X151121902Y-118007617D01*
X151121251Y-118005967D01*
X151120679Y-118004278D01*
X151120189Y-118002553D01*
X151119783Y-118000795D01*
X151119463Y-117999005D01*
X151119231Y-117997186D01*
X151119091Y-117995341D01*
X151119044Y-117993471D01*
X151119044Y-117860169D01*
X151119091Y-117858299D01*
X151119231Y-117856454D01*
X151119463Y-117854635D01*
X151119783Y-117852845D01*
X151120189Y-117851087D01*
X151120679Y-117849362D01*
X151121251Y-117847673D01*
X151121902Y-117846023D01*
X151122630Y-117844412D01*
X151123434Y-117842845D01*
X151124309Y-117841322D01*
X151125255Y-117839847D01*
X151126269Y-117838422D01*
X151127349Y-117837048D01*
X151128492Y-117835729D01*
X151129696Y-117834466D01*
X151130958Y-117833262D01*
X151132278Y-117832119D01*
X151133651Y-117831040D01*
X151135077Y-117830026D01*
X151136552Y-117829080D01*
X151138074Y-117828204D01*
X151139642Y-117827401D01*
X151141252Y-117826673D01*
X151142903Y-117826021D01*
X151144592Y-117825450D01*
X151146316Y-117824959D01*
X151148075Y-117824553D01*
X151149864Y-117824233D01*
X151151683Y-117824002D01*
X151153529Y-117823862D01*
X151155399Y-117823814D01*
X151288700Y-117823814D01*
X151290570Y-117823862D01*
G37*
G36*
X151290570Y-117520901D02*
G01*
X151292416Y-117521042D01*
X151294234Y-117521273D01*
X151296024Y-117521593D01*
X151297782Y-117521999D01*
X151299507Y-117522489D01*
X151301196Y-117523061D01*
X151302847Y-117523712D01*
X151304457Y-117524441D01*
X151306024Y-117525244D01*
X151307547Y-117526119D01*
X151309022Y-117527065D01*
X151310447Y-117528079D01*
X151311821Y-117529159D01*
X151313140Y-117530302D01*
X151314403Y-117531506D01*
X151315607Y-117532769D01*
X151316750Y-117534088D01*
X151317830Y-117535462D01*
X151318843Y-117536887D01*
X151319789Y-117538362D01*
X151320665Y-117539884D01*
X151321468Y-117541452D01*
X151322197Y-117543062D01*
X151322848Y-117544713D01*
X151323420Y-117546402D01*
X151323910Y-117548127D01*
X151324316Y-117549885D01*
X151324636Y-117551675D01*
X151324867Y-117553493D01*
X151325008Y-117555339D01*
X151325055Y-117557209D01*
X151325055Y-117690510D01*
X151325008Y-117692380D01*
X151324867Y-117694226D01*
X151324636Y-117696044D01*
X151324316Y-117697834D01*
X151323910Y-117699593D01*
X151323420Y-117701317D01*
X151322848Y-117703006D01*
X151322197Y-117704657D01*
X151321468Y-117706267D01*
X151320665Y-117707835D01*
X151319789Y-117709357D01*
X151318843Y-117710832D01*
X151317830Y-117712258D01*
X151316750Y-117713631D01*
X151315607Y-117714950D01*
X151314403Y-117716213D01*
X151313140Y-117717417D01*
X151311821Y-117718560D01*
X151310447Y-117719640D01*
X151309022Y-117720654D01*
X151307547Y-117721600D01*
X151306024Y-117722475D01*
X151304457Y-117723279D01*
X151302847Y-117724007D01*
X151301196Y-117724658D01*
X151299507Y-117725230D01*
X151297782Y-117725720D01*
X151296024Y-117726126D01*
X151294234Y-117726446D01*
X151292416Y-117726678D01*
X151290570Y-117726818D01*
X151288700Y-117726865D01*
X151155399Y-117726865D01*
X151153529Y-117726818D01*
X151151683Y-117726678D01*
X151149864Y-117726446D01*
X151148075Y-117726126D01*
X151146316Y-117725720D01*
X151144592Y-117725230D01*
X151142903Y-117724658D01*
X151141252Y-117724007D01*
X151139642Y-117723279D01*
X151138074Y-117722475D01*
X151136552Y-117721600D01*
X151135077Y-117720654D01*
X151133651Y-117719640D01*
X151132278Y-117718560D01*
X151130958Y-117717417D01*
X151129696Y-117716213D01*
X151128492Y-117714950D01*
X151127349Y-117713631D01*
X151126269Y-117712258D01*
X151125255Y-117710832D01*
X151124309Y-117709357D01*
X151123434Y-117707835D01*
X151122630Y-117706267D01*
X151121902Y-117704657D01*
X151121251Y-117703006D01*
X151120679Y-117701317D01*
X151120189Y-117699593D01*
X151119783Y-117697834D01*
X151119463Y-117696044D01*
X151119231Y-117694226D01*
X151119091Y-117692380D01*
X151119044Y-117690510D01*
X151119044Y-117557209D01*
X151119091Y-117555339D01*
X151119231Y-117553493D01*
X151119463Y-117551675D01*
X151119783Y-117549885D01*
X151120189Y-117548127D01*
X151120679Y-117546402D01*
X151121251Y-117544713D01*
X151121902Y-117543062D01*
X151122630Y-117541452D01*
X151123434Y-117539884D01*
X151124309Y-117538362D01*
X151125255Y-117536887D01*
X151126269Y-117535462D01*
X151127349Y-117534088D01*
X151128492Y-117532769D01*
X151129696Y-117531506D01*
X151130958Y-117530302D01*
X151132278Y-117529159D01*
X151133651Y-117528079D01*
X151135077Y-117527065D01*
X151136552Y-117526119D01*
X151138074Y-117525244D01*
X151139642Y-117524441D01*
X151141252Y-117523712D01*
X151142903Y-117523061D01*
X151144592Y-117522489D01*
X151146316Y-117521999D01*
X151148075Y-117521593D01*
X151149864Y-117521273D01*
X151151683Y-117521042D01*
X151153529Y-117520901D01*
X151155399Y-117520854D01*
X151288700Y-117520854D01*
X151290570Y-117520901D01*
G37*
G36*
X151290570Y-117217943D02*
G01*
X151292416Y-117218084D01*
X151294234Y-117218315D01*
X151296024Y-117218635D01*
X151297782Y-117219041D01*
X151299507Y-117219531D01*
X151301196Y-117220103D01*
X151302847Y-117220754D01*
X151304457Y-117221483D01*
X151306024Y-117222286D01*
X151307547Y-117223161D01*
X151309022Y-117224107D01*
X151310447Y-117225121D01*
X151311821Y-117226201D01*
X151313140Y-117227344D01*
X151314403Y-117228548D01*
X151315607Y-117229811D01*
X151316750Y-117231130D01*
X151317830Y-117232503D01*
X151318843Y-117233929D01*
X151319789Y-117235404D01*
X151320665Y-117236926D01*
X151321468Y-117238494D01*
X151322197Y-117240104D01*
X151322848Y-117241755D01*
X151323420Y-117243444D01*
X151323910Y-117245168D01*
X151324316Y-117246927D01*
X151324636Y-117248717D01*
X151324867Y-117250535D01*
X151325008Y-117252381D01*
X151325055Y-117254251D01*
X151325055Y-117387552D01*
X151325008Y-117389422D01*
X151324867Y-117391268D01*
X151324636Y-117393086D01*
X151324316Y-117394876D01*
X151323910Y-117396634D01*
X151323420Y-117398359D01*
X151322848Y-117400048D01*
X151322197Y-117401699D01*
X151321468Y-117403309D01*
X151320665Y-117404877D01*
X151319789Y-117406399D01*
X151318843Y-117407874D01*
X151317830Y-117409300D01*
X151316750Y-117410673D01*
X151315607Y-117411992D01*
X151314403Y-117413255D01*
X151313140Y-117414459D01*
X151311821Y-117415602D01*
X151310447Y-117416682D01*
X151309022Y-117417696D01*
X151307547Y-117418642D01*
X151306024Y-117419517D01*
X151304457Y-117420320D01*
X151302847Y-117421049D01*
X151301196Y-117421700D01*
X151299507Y-117422272D01*
X151297782Y-117422762D01*
X151296024Y-117423168D01*
X151294234Y-117423488D01*
X151292416Y-117423719D01*
X151290570Y-117423860D01*
X151288700Y-117423907D01*
X151155399Y-117423907D01*
X151153529Y-117423860D01*
X151151683Y-117423719D01*
X151149864Y-117423488D01*
X151148075Y-117423168D01*
X151146316Y-117422762D01*
X151144592Y-117422272D01*
X151142903Y-117421700D01*
X151141252Y-117421049D01*
X151139642Y-117420320D01*
X151138074Y-117419517D01*
X151136552Y-117418642D01*
X151135077Y-117417696D01*
X151133651Y-117416682D01*
X151132278Y-117415602D01*
X151130958Y-117414459D01*
X151129696Y-117413255D01*
X151128492Y-117411992D01*
X151127349Y-117410673D01*
X151126269Y-117409300D01*
X151125255Y-117407874D01*
X151124309Y-117406399D01*
X151123434Y-117404877D01*
X151122630Y-117403309D01*
X151121902Y-117401699D01*
X151121251Y-117400048D01*
X151120679Y-117398359D01*
X151120189Y-117396634D01*
X151119783Y-117394876D01*
X151119463Y-117393086D01*
X151119231Y-117391268D01*
X151119091Y-117389422D01*
X151119044Y-117387552D01*
X151119044Y-117254251D01*
X151119091Y-117252381D01*
X151119231Y-117250535D01*
X151119463Y-117248717D01*
X151119783Y-117246927D01*
X151120189Y-117245168D01*
X151120679Y-117243444D01*
X151121251Y-117241755D01*
X151121902Y-117240104D01*
X151122630Y-117238494D01*
X151123434Y-117236926D01*
X151124309Y-117235404D01*
X151125255Y-117233929D01*
X151126269Y-117232503D01*
X151127349Y-117231130D01*
X151128492Y-117229811D01*
X151129696Y-117228548D01*
X151130958Y-117227344D01*
X151132278Y-117226201D01*
X151133651Y-117225121D01*
X151135077Y-117224107D01*
X151136552Y-117223161D01*
X151138074Y-117222286D01*
X151139642Y-117221483D01*
X151141252Y-117220754D01*
X151142903Y-117220103D01*
X151144592Y-117219531D01*
X151146316Y-117219041D01*
X151148075Y-117218635D01*
X151149864Y-117218315D01*
X151151683Y-117218084D01*
X151153529Y-117217943D01*
X151155399Y-117217896D01*
X151288700Y-117217896D01*
X151290570Y-117217943D01*
G37*
G36*
X150988945Y-117828185D02*
G01*
X150990791Y-117828326D01*
X150992609Y-117828557D01*
X150994399Y-117828877D01*
X150996157Y-117829283D01*
X150997882Y-117829773D01*
X150999571Y-117830345D01*
X151001222Y-117830996D01*
X151002832Y-117831725D01*
X151004399Y-117832528D01*
X151005922Y-117833404D01*
X151007397Y-117834350D01*
X151008822Y-117835364D01*
X151010196Y-117836443D01*
X151011515Y-117837586D01*
X151012778Y-117838790D01*
X151013982Y-117840053D01*
X151015125Y-117841372D01*
X151016205Y-117842746D01*
X151017219Y-117844171D01*
X151018165Y-117845646D01*
X151019040Y-117847169D01*
X151019843Y-117848736D01*
X151020572Y-117850346D01*
X151021223Y-117851997D01*
X151021795Y-117853686D01*
X151022285Y-117855411D01*
X151022691Y-117857169D01*
X151023011Y-117858959D01*
X151023242Y-117860778D01*
X151023383Y-117862623D01*
X151023430Y-117864493D01*
X151023430Y-117997795D01*
X151023383Y-117999664D01*
X151023242Y-118001510D01*
X151023011Y-118003329D01*
X151022691Y-118005118D01*
X151022285Y-118006877D01*
X151021795Y-118008601D01*
X151021223Y-118010290D01*
X151020572Y-118011941D01*
X151019843Y-118013551D01*
X151019040Y-118015119D01*
X151018165Y-118016641D01*
X151017219Y-118018116D01*
X151016205Y-118019542D01*
X151015125Y-118020915D01*
X151013982Y-118022235D01*
X151012778Y-118023497D01*
X151011515Y-118024701D01*
X151010196Y-118025844D01*
X151008822Y-118026924D01*
X151007397Y-118027938D01*
X151005922Y-118028884D01*
X151004399Y-118029760D01*
X151002832Y-118030563D01*
X151001222Y-118031291D01*
X150999571Y-118031942D01*
X150997882Y-118032514D01*
X150996157Y-118033004D01*
X150994399Y-118033410D01*
X150992609Y-118033730D01*
X150990791Y-118033962D01*
X150988945Y-118034102D01*
X150987075Y-118034149D01*
X150853774Y-118034149D01*
X150851904Y-118034102D01*
X150850058Y-118033962D01*
X150848240Y-118033730D01*
X150846450Y-118033410D01*
X150844691Y-118033004D01*
X150842967Y-118032514D01*
X150841278Y-118031942D01*
X150839627Y-118031291D01*
X150838017Y-118030563D01*
X150836449Y-118029760D01*
X150834927Y-118028884D01*
X150833452Y-118027938D01*
X150832026Y-118026924D01*
X150830653Y-118025844D01*
X150829333Y-118024701D01*
X150828071Y-118023497D01*
X150826867Y-118022235D01*
X150825724Y-118020915D01*
X150824644Y-118019542D01*
X150823630Y-118018116D01*
X150822684Y-118016641D01*
X150821809Y-118015119D01*
X150821005Y-118013551D01*
X150820277Y-118011941D01*
X150819626Y-118010290D01*
X150819054Y-118008601D01*
X150818564Y-118006877D01*
X150818158Y-118005118D01*
X150817838Y-118003329D01*
X150817606Y-118001510D01*
X150817466Y-117999664D01*
X150817419Y-117997795D01*
X150817419Y-117864493D01*
X150817466Y-117862623D01*
X150817606Y-117860778D01*
X150817838Y-117858959D01*
X150818158Y-117857169D01*
X150818564Y-117855411D01*
X150819054Y-117853686D01*
X150819626Y-117851997D01*
X150820277Y-117850346D01*
X150821005Y-117848736D01*
X150821809Y-117847169D01*
X150822684Y-117845646D01*
X150823630Y-117844171D01*
X150824644Y-117842746D01*
X150825724Y-117841372D01*
X150826867Y-117840053D01*
X150828071Y-117838790D01*
X150829333Y-117837586D01*
X150830653Y-117836443D01*
X150832026Y-117835364D01*
X150833452Y-117834350D01*
X150834927Y-117833404D01*
X150836449Y-117832528D01*
X150838017Y-117831725D01*
X150839627Y-117830996D01*
X150841278Y-117830345D01*
X150842967Y-117829773D01*
X150844691Y-117829283D01*
X150846450Y-117828877D01*
X150848240Y-117828557D01*
X150850058Y-117828326D01*
X150851904Y-117828185D01*
X150853774Y-117828138D01*
X150987075Y-117828138D01*
X150988945Y-117828185D01*
G37*
G36*
X150988945Y-117520901D02*
G01*
X150990791Y-117521042D01*
X150992609Y-117521273D01*
X150994399Y-117521593D01*
X150996157Y-117521999D01*
X150997882Y-117522489D01*
X150999571Y-117523061D01*
X151001222Y-117523712D01*
X151002832Y-117524441D01*
X151004399Y-117525244D01*
X151005922Y-117526119D01*
X151007397Y-117527065D01*
X151008822Y-117528079D01*
X151010196Y-117529159D01*
X151011515Y-117530302D01*
X151012778Y-117531506D01*
X151013982Y-117532769D01*
X151015125Y-117534088D01*
X151016205Y-117535462D01*
X151017219Y-117536887D01*
X151018165Y-117538362D01*
X151019040Y-117539884D01*
X151019843Y-117541452D01*
X151020572Y-117543062D01*
X151021223Y-117544713D01*
X151021795Y-117546402D01*
X151022285Y-117548127D01*
X151022691Y-117549885D01*
X151023011Y-117551675D01*
X151023242Y-117553493D01*
X151023383Y-117555339D01*
X151023430Y-117557209D01*
X151023430Y-117690510D01*
X151023383Y-117692380D01*
X151023242Y-117694226D01*
X151023011Y-117696044D01*
X151022691Y-117697834D01*
X151022285Y-117699593D01*
X151021795Y-117701317D01*
X151021223Y-117703006D01*
X151020572Y-117704657D01*
X151019843Y-117706267D01*
X151019040Y-117707835D01*
X151018165Y-117709357D01*
X151017219Y-117710832D01*
X151016205Y-117712258D01*
X151015125Y-117713631D01*
X151013982Y-117714950D01*
X151012778Y-117716213D01*
X151011515Y-117717417D01*
X151010196Y-117718560D01*
X151008822Y-117719640D01*
X151007397Y-117720654D01*
X151005922Y-117721600D01*
X151004399Y-117722475D01*
X151002832Y-117723279D01*
X151001222Y-117724007D01*
X150999571Y-117724658D01*
X150997882Y-117725230D01*
X150996157Y-117725720D01*
X150994399Y-117726126D01*
X150992609Y-117726446D01*
X150990791Y-117726678D01*
X150988945Y-117726818D01*
X150987075Y-117726865D01*
X150853774Y-117726865D01*
X150851904Y-117726818D01*
X150850058Y-117726678D01*
X150848240Y-117726446D01*
X150846450Y-117726126D01*
X150844691Y-117725720D01*
X150842967Y-117725230D01*
X150841278Y-117724658D01*
X150839627Y-117724007D01*
X150838017Y-117723279D01*
X150836449Y-117722475D01*
X150834927Y-117721600D01*
X150833452Y-117720654D01*
X150832026Y-117719640D01*
X150830653Y-117718560D01*
X150829333Y-117717417D01*
X150828071Y-117716213D01*
X150826867Y-117714950D01*
X150825724Y-117713631D01*
X150824644Y-117712258D01*
X150823630Y-117710832D01*
X150822684Y-117709357D01*
X150821809Y-117707835D01*
X150821005Y-117706267D01*
X150820277Y-117704657D01*
X150819626Y-117703006D01*
X150819054Y-117701317D01*
X150818564Y-117699593D01*
X150818158Y-117697834D01*
X150817838Y-117696044D01*
X150817606Y-117694226D01*
X150817466Y-117692380D01*
X150817419Y-117690510D01*
X150817419Y-117557209D01*
X150817466Y-117555339D01*
X150817606Y-117553493D01*
X150817838Y-117551675D01*
X150818158Y-117549885D01*
X150818564Y-117548127D01*
X150819054Y-117546402D01*
X150819626Y-117544713D01*
X150820277Y-117543062D01*
X150821005Y-117541452D01*
X150821809Y-117539884D01*
X150822684Y-117538362D01*
X150823630Y-117536887D01*
X150824644Y-117535462D01*
X150825724Y-117534088D01*
X150826867Y-117532769D01*
X150828071Y-117531506D01*
X150829333Y-117530302D01*
X150830653Y-117529159D01*
X150832026Y-117528079D01*
X150833452Y-117527065D01*
X150834927Y-117526119D01*
X150836449Y-117525244D01*
X150838017Y-117524441D01*
X150839627Y-117523712D01*
X150841278Y-117523061D01*
X150842967Y-117522489D01*
X150844691Y-117521999D01*
X150846450Y-117521593D01*
X150848240Y-117521273D01*
X150850058Y-117521042D01*
X150851904Y-117520901D01*
X150853774Y-117520854D01*
X150987075Y-117520854D01*
X150988945Y-117520901D01*
G37*
G36*
X150988945Y-117217943D02*
G01*
X150990791Y-117218084D01*
X150992609Y-117218315D01*
X150994399Y-117218635D01*
X150996157Y-117219041D01*
X150997882Y-117219531D01*
X150999571Y-117220103D01*
X151001222Y-117220754D01*
X151002832Y-117221483D01*
X151004399Y-117222286D01*
X151005922Y-117223161D01*
X151007397Y-117224107D01*
X151008822Y-117225121D01*
X151010196Y-117226201D01*
X151011515Y-117227344D01*
X151012778Y-117228548D01*
X151013982Y-117229811D01*
X151015125Y-117231130D01*
X151016205Y-117232503D01*
X151017219Y-117233929D01*
X151018165Y-117235404D01*
X151019040Y-117236926D01*
X151019843Y-117238494D01*
X151020572Y-117240104D01*
X151021223Y-117241755D01*
X151021795Y-117243444D01*
X151022285Y-117245168D01*
X151022691Y-117246927D01*
X151023011Y-117248717D01*
X151023242Y-117250535D01*
X151023383Y-117252381D01*
X151023430Y-117254251D01*
X151023430Y-117387552D01*
X151023383Y-117389422D01*
X151023242Y-117391268D01*
X151023011Y-117393086D01*
X151022691Y-117394876D01*
X151022285Y-117396634D01*
X151021795Y-117398359D01*
X151021223Y-117400048D01*
X151020572Y-117401699D01*
X151019843Y-117403309D01*
X151019040Y-117404877D01*
X151018165Y-117406399D01*
X151017219Y-117407874D01*
X151016205Y-117409300D01*
X151015125Y-117410673D01*
X151013982Y-117411992D01*
X151012778Y-117413255D01*
X151011515Y-117414459D01*
X151010196Y-117415602D01*
X151008822Y-117416682D01*
X151007397Y-117417696D01*
X151005922Y-117418642D01*
X151004399Y-117419517D01*
X151002832Y-117420320D01*
X151001222Y-117421049D01*
X150999571Y-117421700D01*
X150997882Y-117422272D01*
X150996157Y-117422762D01*
X150994399Y-117423168D01*
X150992609Y-117423488D01*
X150990791Y-117423719D01*
X150988945Y-117423860D01*
X150987075Y-117423907D01*
X150853774Y-117423907D01*
X150851904Y-117423860D01*
X150850058Y-117423719D01*
X150848240Y-117423488D01*
X150846450Y-117423168D01*
X150844691Y-117422762D01*
X150842967Y-117422272D01*
X150841278Y-117421700D01*
X150839627Y-117421049D01*
X150838017Y-117420320D01*
X150836449Y-117419517D01*
X150834927Y-117418642D01*
X150833452Y-117417696D01*
X150832026Y-117416682D01*
X150830653Y-117415602D01*
X150829333Y-117414459D01*
X150828071Y-117413255D01*
X150826867Y-117411992D01*
X150825724Y-117410673D01*
X150824644Y-117409300D01*
X150823630Y-117407874D01*
X150822684Y-117406399D01*
X150821809Y-117404877D01*
X150821005Y-117403309D01*
X150820277Y-117401699D01*
X150819626Y-117400048D01*
X150819054Y-117398359D01*
X150818564Y-117396634D01*
X150818158Y-117394876D01*
X150817838Y-117393086D01*
X150817606Y-117391268D01*
X150817466Y-117389422D01*
X150817419Y-117387552D01*
X150817419Y-117254251D01*
X150817466Y-117252381D01*
X150817606Y-117250535D01*
X150817838Y-117248717D01*
X150818158Y-117246927D01*
X150818564Y-117245168D01*
X150819054Y-117243444D01*
X150819626Y-117241755D01*
X150820277Y-117240104D01*
X150821005Y-117238494D01*
X150821809Y-117236926D01*
X150822684Y-117235404D01*
X150823630Y-117233929D01*
X150824644Y-117232503D01*
X150825724Y-117231130D01*
X150826867Y-117229811D01*
X150828071Y-117228548D01*
X150829333Y-117227344D01*
X150830653Y-117226201D01*
X150832026Y-117225121D01*
X150833452Y-117224107D01*
X150834927Y-117223161D01*
X150836449Y-117222286D01*
X150838017Y-117221483D01*
X150839627Y-117220754D01*
X150841278Y-117220103D01*
X150842967Y-117219531D01*
X150844691Y-117219041D01*
X150846450Y-117218635D01*
X150848240Y-117218315D01*
X150850058Y-117218084D01*
X150851904Y-117217943D01*
X150853774Y-117217896D01*
X150987075Y-117217896D01*
X150988945Y-117217943D01*
G37*
G36*
X150685987Y-117520901D02*
G01*
X150687833Y-117521042D01*
X150689651Y-117521273D01*
X150691441Y-117521593D01*
X150693200Y-117521999D01*
X150694924Y-117522489D01*
X150696613Y-117523061D01*
X150698264Y-117523712D01*
X150699874Y-117524441D01*
X150701442Y-117525244D01*
X150702964Y-117526119D01*
X150704439Y-117527065D01*
X150705865Y-117528079D01*
X150707238Y-117529159D01*
X150708557Y-117530302D01*
X150709820Y-117531506D01*
X150711024Y-117532769D01*
X150712167Y-117534088D01*
X150713247Y-117535462D01*
X150714261Y-117536887D01*
X150715207Y-117538362D01*
X150716082Y-117539884D01*
X150716885Y-117541452D01*
X150717614Y-117543062D01*
X150718265Y-117544713D01*
X150718837Y-117546402D01*
X150719327Y-117548127D01*
X150719733Y-117549885D01*
X150720053Y-117551675D01*
X150720284Y-117553493D01*
X150720425Y-117555339D01*
X150720472Y-117557209D01*
X150720472Y-117690510D01*
X150720425Y-117692380D01*
X150720284Y-117694226D01*
X150720053Y-117696044D01*
X150719733Y-117697834D01*
X150719327Y-117699593D01*
X150718837Y-117701317D01*
X150718265Y-117703006D01*
X150717614Y-117704657D01*
X150716885Y-117706267D01*
X150716082Y-117707835D01*
X150715207Y-117709357D01*
X150714261Y-117710832D01*
X150713247Y-117712258D01*
X150712167Y-117713631D01*
X150711024Y-117714950D01*
X150709820Y-117716213D01*
X150708557Y-117717417D01*
X150707238Y-117718560D01*
X150705865Y-117719640D01*
X150704439Y-117720654D01*
X150702964Y-117721600D01*
X150701442Y-117722475D01*
X150699874Y-117723279D01*
X150698264Y-117724007D01*
X150696613Y-117724658D01*
X150694924Y-117725230D01*
X150693200Y-117725720D01*
X150691441Y-117726126D01*
X150689651Y-117726446D01*
X150687833Y-117726678D01*
X150685987Y-117726818D01*
X150684117Y-117726865D01*
X150550816Y-117726865D01*
X150548946Y-117726818D01*
X150547100Y-117726678D01*
X150545282Y-117726446D01*
X150543492Y-117726126D01*
X150541733Y-117725720D01*
X150540009Y-117725230D01*
X150538320Y-117724658D01*
X150536669Y-117724007D01*
X150535059Y-117723279D01*
X150533491Y-117722475D01*
X150531969Y-117721600D01*
X150530494Y-117720654D01*
X150529068Y-117719640D01*
X150527695Y-117718560D01*
X150526376Y-117717417D01*
X150525113Y-117716213D01*
X150523909Y-117714950D01*
X150522766Y-117713631D01*
X150521686Y-117712258D01*
X150520672Y-117710832D01*
X150519726Y-117709357D01*
X150518851Y-117707835D01*
X150518048Y-117706267D01*
X150517319Y-117704657D01*
X150516668Y-117703006D01*
X150516096Y-117701317D01*
X150515606Y-117699593D01*
X150515200Y-117697834D01*
X150514880Y-117696044D01*
X150514649Y-117694226D01*
X150514508Y-117692380D01*
X150514461Y-117690510D01*
X150514461Y-117557209D01*
X150514508Y-117555339D01*
X150514649Y-117553493D01*
X150514880Y-117551675D01*
X150515200Y-117549885D01*
X150515606Y-117548127D01*
X150516096Y-117546402D01*
X150516668Y-117544713D01*
X150517319Y-117543062D01*
X150518048Y-117541452D01*
X150518851Y-117539884D01*
X150519726Y-117538362D01*
X150520672Y-117536887D01*
X150521686Y-117535462D01*
X150522766Y-117534088D01*
X150523909Y-117532769D01*
X150525113Y-117531506D01*
X150526376Y-117530302D01*
X150527695Y-117529159D01*
X150529068Y-117528079D01*
X150530494Y-117527065D01*
X150531969Y-117526119D01*
X150533491Y-117525244D01*
X150535059Y-117524441D01*
X150536669Y-117523712D01*
X150538320Y-117523061D01*
X150540009Y-117522489D01*
X150541733Y-117521999D01*
X150543492Y-117521593D01*
X150545282Y-117521273D01*
X150547100Y-117521042D01*
X150548946Y-117520901D01*
X150550816Y-117520854D01*
X150684117Y-117520854D01*
X150685987Y-117520901D01*
G37*
G36*
X150685987Y-116919312D02*
G01*
X150687833Y-116919452D01*
X150689651Y-116919683D01*
X150691441Y-116920003D01*
X150693200Y-116920409D01*
X150694924Y-116920900D01*
X150696613Y-116921471D01*
X150698264Y-116922123D01*
X150699874Y-116922851D01*
X150701442Y-116923654D01*
X150702964Y-116924530D01*
X150704439Y-116925476D01*
X150705865Y-116926490D01*
X150707238Y-116927569D01*
X150708557Y-116928712D01*
X150709820Y-116929916D01*
X150711024Y-116931179D01*
X150712167Y-116932498D01*
X150713247Y-116933872D01*
X150714261Y-116935297D01*
X150715207Y-116936772D01*
X150716082Y-116938295D01*
X150716885Y-116939862D01*
X150717614Y-116941473D01*
X150718265Y-116943123D01*
X150718837Y-116944812D01*
X150719327Y-116946537D01*
X150719733Y-116948295D01*
X150720053Y-116950085D01*
X150720284Y-116951904D01*
X150720425Y-116953749D01*
X150720472Y-116955619D01*
X150720472Y-117088921D01*
X150720425Y-117090791D01*
X150720284Y-117092636D01*
X150720053Y-117094455D01*
X150719733Y-117096245D01*
X150719327Y-117098003D01*
X150718837Y-117099728D01*
X150718265Y-117101417D01*
X150717614Y-117103067D01*
X150716885Y-117104678D01*
X150716082Y-117106245D01*
X150715207Y-117107768D01*
X150714261Y-117109243D01*
X150713247Y-117110668D01*
X150712167Y-117112042D01*
X150711024Y-117113361D01*
X150709820Y-117114624D01*
X150708557Y-117115828D01*
X150707238Y-117116971D01*
X150705865Y-117118050D01*
X150704439Y-117119064D01*
X150702964Y-117120010D01*
X150701442Y-117120886D01*
X150699874Y-117121689D01*
X150698264Y-117122417D01*
X150696613Y-117123068D01*
X150694924Y-117123640D01*
X150693200Y-117124130D01*
X150691441Y-117124537D01*
X150689651Y-117124857D01*
X150687833Y-117125088D01*
X150685987Y-117125228D01*
X150684117Y-117125276D01*
X150550816Y-117125276D01*
X150548946Y-117125228D01*
X150547100Y-117125088D01*
X150545282Y-117124857D01*
X150543492Y-117124537D01*
X150541733Y-117124130D01*
X150540009Y-117123640D01*
X150538320Y-117123068D01*
X150536669Y-117122417D01*
X150535059Y-117121689D01*
X150533491Y-117120886D01*
X150531969Y-117120010D01*
X150530494Y-117119064D01*
X150529068Y-117118050D01*
X150527695Y-117116971D01*
X150526376Y-117115828D01*
X150525113Y-117114624D01*
X150523909Y-117113361D01*
X150522766Y-117112042D01*
X150521686Y-117110668D01*
X150520672Y-117109243D01*
X150519726Y-117107768D01*
X150518851Y-117106245D01*
X150518048Y-117104678D01*
X150517319Y-117103067D01*
X150516668Y-117101417D01*
X150516096Y-117099728D01*
X150515606Y-117098003D01*
X150515200Y-117096245D01*
X150514880Y-117094455D01*
X150514649Y-117092636D01*
X150514508Y-117090791D01*
X150514461Y-117088921D01*
X150514461Y-116955619D01*
X150514508Y-116953749D01*
X150514649Y-116951904D01*
X150514880Y-116950085D01*
X150515200Y-116948295D01*
X150515606Y-116946537D01*
X150516096Y-116944812D01*
X150516668Y-116943123D01*
X150517319Y-116941473D01*
X150518048Y-116939862D01*
X150518851Y-116938295D01*
X150519726Y-116936772D01*
X150520672Y-116935297D01*
X150521686Y-116933872D01*
X150522766Y-116932498D01*
X150523909Y-116931179D01*
X150525113Y-116929916D01*
X150526376Y-116928712D01*
X150527695Y-116927569D01*
X150529068Y-116926490D01*
X150530494Y-116925476D01*
X150531969Y-116924530D01*
X150533491Y-116923654D01*
X150535059Y-116922851D01*
X150536669Y-116922123D01*
X150538320Y-116921471D01*
X150540009Y-116920900D01*
X150541733Y-116920409D01*
X150543492Y-116920003D01*
X150545282Y-116919683D01*
X150547100Y-116919452D01*
X150548946Y-116919312D01*
X150550816Y-116919264D01*
X150684117Y-116919264D01*
X150685987Y-116919312D01*
G37*
G36*
X150381696Y-117520901D02*
G01*
X150383541Y-117521042D01*
X150385360Y-117521273D01*
X150387150Y-117521593D01*
X150388908Y-117521999D01*
X150390633Y-117522489D01*
X150392322Y-117523061D01*
X150393973Y-117523712D01*
X150395583Y-117524441D01*
X150397150Y-117525244D01*
X150398673Y-117526119D01*
X150400148Y-117527065D01*
X150401573Y-117528079D01*
X150402947Y-117529159D01*
X150404266Y-117530302D01*
X150405529Y-117531506D01*
X150406733Y-117532769D01*
X150407876Y-117534088D01*
X150408956Y-117535462D01*
X150409970Y-117536887D01*
X150410915Y-117538362D01*
X150411791Y-117539884D01*
X150412594Y-117541452D01*
X150413323Y-117543062D01*
X150413974Y-117544713D01*
X150414546Y-117546402D01*
X150415036Y-117548127D01*
X150415442Y-117549885D01*
X150415762Y-117551675D01*
X150415993Y-117553493D01*
X150416134Y-117555339D01*
X150416181Y-117557209D01*
X150416181Y-117690510D01*
X150416134Y-117692380D01*
X150415993Y-117694226D01*
X150415762Y-117696044D01*
X150415442Y-117697834D01*
X150415036Y-117699593D01*
X150414546Y-117701317D01*
X150413974Y-117703006D01*
X150413323Y-117704657D01*
X150412594Y-117706267D01*
X150411791Y-117707835D01*
X150410915Y-117709357D01*
X150409970Y-117710832D01*
X150408956Y-117712258D01*
X150407876Y-117713631D01*
X150406733Y-117714950D01*
X150405529Y-117716213D01*
X150404266Y-117717417D01*
X150402947Y-117718560D01*
X150401573Y-117719640D01*
X150400148Y-117720654D01*
X150398673Y-117721600D01*
X150397150Y-117722475D01*
X150395583Y-117723279D01*
X150393973Y-117724007D01*
X150392322Y-117724658D01*
X150390633Y-117725230D01*
X150388908Y-117725720D01*
X150387150Y-117726126D01*
X150385360Y-117726446D01*
X150383541Y-117726678D01*
X150381696Y-117726818D01*
X150379826Y-117726865D01*
X150246525Y-117726865D01*
X150244655Y-117726818D01*
X150242809Y-117726678D01*
X150240991Y-117726446D01*
X150239201Y-117726126D01*
X150237442Y-117725720D01*
X150235718Y-117725230D01*
X150234029Y-117724658D01*
X150232378Y-117724007D01*
X150230768Y-117723279D01*
X150229200Y-117722475D01*
X150227678Y-117721600D01*
X150226203Y-117720654D01*
X150224777Y-117719640D01*
X150223404Y-117718560D01*
X150222084Y-117717417D01*
X150220822Y-117716213D01*
X150219618Y-117714950D01*
X150218475Y-117713631D01*
X150217395Y-117712258D01*
X150216381Y-117710832D01*
X150215435Y-117709357D01*
X150214560Y-117707835D01*
X150213756Y-117706267D01*
X150213028Y-117704657D01*
X150212377Y-117703006D01*
X150211805Y-117701317D01*
X150211315Y-117699593D01*
X150210909Y-117697834D01*
X150210589Y-117696044D01*
X150210357Y-117694226D01*
X150210217Y-117692380D01*
X150210170Y-117690510D01*
X150210170Y-117557209D01*
X150210217Y-117555339D01*
X150210357Y-117553493D01*
X150210589Y-117551675D01*
X150210909Y-117549885D01*
X150211315Y-117548127D01*
X150211805Y-117546402D01*
X150212377Y-117544713D01*
X150213028Y-117543062D01*
X150213756Y-117541452D01*
X150214560Y-117539884D01*
X150215435Y-117538362D01*
X150216381Y-117536887D01*
X150217395Y-117535462D01*
X150218475Y-117534088D01*
X150219618Y-117532769D01*
X150220822Y-117531506D01*
X150222084Y-117530302D01*
X150223404Y-117529159D01*
X150224777Y-117528079D01*
X150226203Y-117527065D01*
X150227678Y-117526119D01*
X150229200Y-117525244D01*
X150230768Y-117524441D01*
X150232378Y-117523712D01*
X150234029Y-117523061D01*
X150235718Y-117522489D01*
X150237442Y-117521999D01*
X150239201Y-117521593D01*
X150240991Y-117521273D01*
X150242809Y-117521042D01*
X150244655Y-117520901D01*
X150246525Y-117520854D01*
X150379826Y-117520854D01*
X150381696Y-117520901D01*
G37*
G36*
X150381696Y-116914985D02*
G01*
X150383541Y-116915125D01*
X150385360Y-116915357D01*
X150387150Y-116915677D01*
X150388908Y-116916083D01*
X150390633Y-116916573D01*
X150392322Y-116917145D01*
X150393973Y-116917796D01*
X150395583Y-116918524D01*
X150397150Y-116919328D01*
X150398673Y-116920203D01*
X150400148Y-116921149D01*
X150401573Y-116922163D01*
X150402947Y-116923243D01*
X150404266Y-116924386D01*
X150405529Y-116925590D01*
X150406733Y-116926853D01*
X150407876Y-116928172D01*
X150408956Y-116929545D01*
X150409970Y-116930971D01*
X150410915Y-116932446D01*
X150411791Y-116933968D01*
X150412594Y-116935536D01*
X150413323Y-116937146D01*
X150413974Y-116938797D01*
X150414546Y-116940486D01*
X150415036Y-116942210D01*
X150415442Y-116943969D01*
X150415762Y-116945759D01*
X150415993Y-116947577D01*
X150416134Y-116949423D01*
X150416181Y-116951293D01*
X150416181Y-117084594D01*
X150416134Y-117086464D01*
X150415993Y-117088310D01*
X150415762Y-117090128D01*
X150415442Y-117091918D01*
X150415036Y-117093677D01*
X150414546Y-117095401D01*
X150413974Y-117097090D01*
X150413323Y-117098741D01*
X150412594Y-117100351D01*
X150411791Y-117101919D01*
X150410915Y-117103441D01*
X150409970Y-117104916D01*
X150408956Y-117106342D01*
X150407876Y-117107715D01*
X150406733Y-117109034D01*
X150405529Y-117110297D01*
X150404266Y-117111501D01*
X150402947Y-117112644D01*
X150401573Y-117113724D01*
X150400148Y-117114738D01*
X150398673Y-117115684D01*
X150397150Y-117116559D01*
X150395583Y-117117362D01*
X150393973Y-117118091D01*
X150392322Y-117118742D01*
X150390633Y-117119314D01*
X150388908Y-117119804D01*
X150387150Y-117120210D01*
X150385360Y-117120530D01*
X150383541Y-117120761D01*
X150381696Y-117120902D01*
X150379826Y-117120949D01*
X150246525Y-117120949D01*
X150244655Y-117120902D01*
X150242809Y-117120761D01*
X150240991Y-117120530D01*
X150239201Y-117120210D01*
X150237442Y-117119804D01*
X150235718Y-117119314D01*
X150234029Y-117118742D01*
X150232378Y-117118091D01*
X150230768Y-117117362D01*
X150229200Y-117116559D01*
X150227678Y-117115684D01*
X150226203Y-117114738D01*
X150224777Y-117113724D01*
X150223404Y-117112644D01*
X150222084Y-117111501D01*
X150220822Y-117110297D01*
X150219618Y-117109034D01*
X150218475Y-117107715D01*
X150217395Y-117106342D01*
X150216381Y-117104916D01*
X150215435Y-117103441D01*
X150214560Y-117101919D01*
X150213756Y-117100351D01*
X150213028Y-117098741D01*
X150212377Y-117097090D01*
X150211805Y-117095401D01*
X150211315Y-117093677D01*
X150210909Y-117091918D01*
X150210589Y-117090128D01*
X150210357Y-117088310D01*
X150210217Y-117086464D01*
X150210170Y-117084594D01*
X150210170Y-116951293D01*
X150210217Y-116949423D01*
X150210357Y-116947577D01*
X150210589Y-116945759D01*
X150210909Y-116943969D01*
X150211315Y-116942210D01*
X150211805Y-116940486D01*
X150212377Y-116938797D01*
X150213028Y-116937146D01*
X150213756Y-116935536D01*
X150214560Y-116933968D01*
X150215435Y-116932446D01*
X150216381Y-116930971D01*
X150217395Y-116929545D01*
X150218475Y-116928172D01*
X150219618Y-116926853D01*
X150220822Y-116925590D01*
X150222084Y-116924386D01*
X150223404Y-116923243D01*
X150224777Y-116922163D01*
X150226203Y-116921149D01*
X150227678Y-116920203D01*
X150229200Y-116919328D01*
X150230768Y-116918524D01*
X150232378Y-116917796D01*
X150234029Y-116917145D01*
X150235718Y-116916573D01*
X150237442Y-116916083D01*
X150239201Y-116915677D01*
X150240991Y-116915357D01*
X150242809Y-116915125D01*
X150244655Y-116914985D01*
X150246525Y-116914938D01*
X150379826Y-116914938D01*
X150381696Y-116914985D01*
G37*
G36*
X152190068Y-116914985D02*
G01*
X152192417Y-116915125D01*
X152194732Y-116915357D01*
X152197009Y-116915677D01*
X152199247Y-116916083D01*
X152201442Y-116916573D01*
X152203590Y-116917145D01*
X152205691Y-116917796D01*
X152207739Y-116918524D01*
X152209733Y-116919328D01*
X152211670Y-116920203D01*
X152213546Y-116921149D01*
X152215359Y-116922163D01*
X152217106Y-116923243D01*
X152218783Y-116924386D01*
X152220389Y-116925590D01*
X152221920Y-116926853D01*
X152223374Y-116928172D01*
X152224746Y-116929545D01*
X152226035Y-116930971D01*
X152227238Y-116932446D01*
X152228351Y-116933968D01*
X152229372Y-116935536D01*
X152230298Y-116937146D01*
X152231126Y-116938797D01*
X152231853Y-116940486D01*
X152232476Y-116942210D01*
X152232992Y-116943969D01*
X152233399Y-116945759D01*
X152233693Y-116947577D01*
X152233871Y-116949423D01*
X152233932Y-116951293D01*
X152233932Y-117084594D01*
X152233871Y-117086464D01*
X152233693Y-117088310D01*
X152233399Y-117090128D01*
X152232992Y-117091918D01*
X152232476Y-117093677D01*
X152231853Y-117095401D01*
X152231126Y-117097090D01*
X152230298Y-117098741D01*
X152229372Y-117100351D01*
X152228351Y-117101919D01*
X152227238Y-117103441D01*
X152226035Y-117104916D01*
X152224746Y-117106342D01*
X152223374Y-117107715D01*
X152221920Y-117109034D01*
X152220389Y-117110297D01*
X152217106Y-117112644D01*
X152213546Y-117114738D01*
X152209733Y-117116559D01*
X152205691Y-117118091D01*
X152201442Y-117119314D01*
X152197009Y-117120210D01*
X152192417Y-117120761D01*
X152190068Y-117120902D01*
X152187688Y-117120949D01*
X152101091Y-117120949D01*
X152018129Y-117120949D01*
X151803998Y-117120949D01*
X151634438Y-117120949D01*
X151416915Y-117120949D01*
X151247355Y-117120949D01*
X151033224Y-117120949D01*
X150950238Y-117120949D01*
X150863665Y-117120949D01*
X150861285Y-117120902D01*
X150858936Y-117120761D01*
X150856621Y-117120530D01*
X150854344Y-117120210D01*
X150852106Y-117119804D01*
X150849911Y-117119314D01*
X150847763Y-117118742D01*
X150845662Y-117118091D01*
X150843614Y-117117362D01*
X150841620Y-117116559D01*
X150839683Y-117115684D01*
X150837807Y-117114738D01*
X150835994Y-117113724D01*
X150834247Y-117112644D01*
X150832569Y-117111501D01*
X150830964Y-117110297D01*
X150829433Y-117109034D01*
X150827979Y-117107715D01*
X150826607Y-117106342D01*
X150825317Y-117104916D01*
X150824115Y-117103441D01*
X150823001Y-117101919D01*
X150821980Y-117100351D01*
X150821055Y-117098741D01*
X150820227Y-117097090D01*
X150819500Y-117095401D01*
X150818877Y-117093677D01*
X150818361Y-117091918D01*
X150817954Y-117090128D01*
X150817660Y-117088310D01*
X150817481Y-117086464D01*
X150817421Y-117084594D01*
X150817421Y-116951293D01*
X150817481Y-116949423D01*
X150817660Y-116947577D01*
X150817954Y-116945759D01*
X150818361Y-116943969D01*
X150818877Y-116942210D01*
X150819500Y-116940486D01*
X150820227Y-116938797D01*
X150821055Y-116937146D01*
X150821980Y-116935536D01*
X150823001Y-116933968D01*
X150824115Y-116932446D01*
X150825317Y-116930971D01*
X150826607Y-116929545D01*
X150827979Y-116928172D01*
X150829433Y-116926853D01*
X150830964Y-116925590D01*
X150834247Y-116923243D01*
X150837807Y-116921149D01*
X150841620Y-116919328D01*
X150845662Y-116917796D01*
X150849911Y-116916573D01*
X150854344Y-116915677D01*
X150858936Y-116915125D01*
X150861285Y-116914985D01*
X150863665Y-116914938D01*
X150950238Y-116914938D01*
X151033224Y-116914938D01*
X151247355Y-116914938D01*
X151416915Y-116914938D01*
X151634438Y-116914938D01*
X151803998Y-116914938D01*
X152018129Y-116914938D01*
X152101091Y-116914938D01*
X152187688Y-116914938D01*
X152190068Y-116914985D01*
G37*
G36*
X152806693Y-117217943D02*
G01*
X152808539Y-117218083D01*
X152810358Y-117218315D01*
X152812147Y-117218635D01*
X152813906Y-117219041D01*
X152815630Y-117219531D01*
X152817319Y-117220103D01*
X152818970Y-117220754D01*
X152820580Y-117221482D01*
X152822148Y-117222285D01*
X152823670Y-117223161D01*
X152825145Y-117224107D01*
X152826571Y-117225121D01*
X152827944Y-117226200D01*
X152829263Y-117227343D01*
X152830526Y-117228547D01*
X152831730Y-117229810D01*
X152832873Y-117231130D01*
X152833953Y-117232503D01*
X152834967Y-117233929D01*
X152835913Y-117235404D01*
X152836788Y-117236926D01*
X152837591Y-117238494D01*
X152838320Y-117240104D01*
X152838971Y-117241755D01*
X152839543Y-117243443D01*
X152840033Y-117245168D01*
X152840439Y-117246927D01*
X152840759Y-117248716D01*
X152840990Y-117250535D01*
X152841131Y-117252381D01*
X152841178Y-117254251D01*
X152841178Y-117387552D01*
X152841131Y-117389422D01*
X152840990Y-117391267D01*
X152840759Y-117393086D01*
X152840439Y-117394876D01*
X152840033Y-117396634D01*
X152839543Y-117398359D01*
X152838971Y-117400048D01*
X152838320Y-117401699D01*
X152837591Y-117403309D01*
X152836788Y-117404876D01*
X152835913Y-117406399D01*
X152834967Y-117407874D01*
X152833953Y-117409299D01*
X152832873Y-117410673D01*
X152831730Y-117411992D01*
X152830526Y-117413255D01*
X152829263Y-117414459D01*
X152827944Y-117415602D01*
X152826571Y-117416681D01*
X152825145Y-117417695D01*
X152823670Y-117418641D01*
X152822148Y-117419517D01*
X152820580Y-117420320D01*
X152818970Y-117421049D01*
X152817319Y-117421700D01*
X152815630Y-117422272D01*
X152813906Y-117422762D01*
X152812147Y-117423168D01*
X152810358Y-117423488D01*
X152808539Y-117423719D01*
X152806693Y-117423860D01*
X152804823Y-117423907D01*
X152780659Y-117423907D01*
X152671522Y-117423907D01*
X152501865Y-117423907D01*
X152388729Y-117423907D01*
X152368564Y-117423907D01*
X152366694Y-117423860D01*
X152364849Y-117423719D01*
X152363030Y-117423488D01*
X152361240Y-117423168D01*
X152359482Y-117422762D01*
X152357757Y-117422272D01*
X152356068Y-117421700D01*
X152354417Y-117421049D01*
X152352807Y-117420320D01*
X152351240Y-117419517D01*
X152349717Y-117418641D01*
X152348242Y-117417695D01*
X152346817Y-117416681D01*
X152345443Y-117415602D01*
X152344124Y-117414459D01*
X152342861Y-117413255D01*
X152341657Y-117411992D01*
X152340514Y-117410673D01*
X152339434Y-117409299D01*
X152338420Y-117407874D01*
X152337475Y-117406399D01*
X152336599Y-117404876D01*
X152335796Y-117403309D01*
X152335067Y-117401699D01*
X152334416Y-117400048D01*
X152333844Y-117398359D01*
X152333354Y-117396634D01*
X152332948Y-117394876D01*
X152332628Y-117393086D01*
X152332397Y-117391267D01*
X152332256Y-117389422D01*
X152332209Y-117387552D01*
X152332209Y-117254251D01*
X152332256Y-117252381D01*
X152332397Y-117250535D01*
X152332628Y-117248716D01*
X152332948Y-117246927D01*
X152333354Y-117245168D01*
X152333844Y-117243443D01*
X152334416Y-117241755D01*
X152335067Y-117240104D01*
X152335796Y-117238494D01*
X152336599Y-117236926D01*
X152337475Y-117235404D01*
X152338420Y-117233929D01*
X152339434Y-117232503D01*
X152340514Y-117231130D01*
X152341657Y-117229810D01*
X152342861Y-117228547D01*
X152344124Y-117227343D01*
X152345443Y-117226200D01*
X152346817Y-117225121D01*
X152348242Y-117224107D01*
X152349717Y-117223161D01*
X152351240Y-117222285D01*
X152352807Y-117221482D01*
X152354417Y-117220754D01*
X152356068Y-117220103D01*
X152357757Y-117219531D01*
X152359482Y-117219041D01*
X152361240Y-117218635D01*
X152363030Y-117218315D01*
X152364849Y-117218083D01*
X152366694Y-117217943D01*
X152368564Y-117217896D01*
X152388729Y-117217896D01*
X152501865Y-117217896D01*
X152671522Y-117217896D01*
X152780659Y-117217896D01*
X152804823Y-117217896D01*
X152806693Y-117217943D01*
G37*
G36*
X150685987Y-117823859D02*
G01*
X150687833Y-117824000D01*
X150689651Y-117824231D01*
X150691441Y-117824551D01*
X150693199Y-117824957D01*
X150694924Y-117825447D01*
X150696613Y-117826019D01*
X150698264Y-117826670D01*
X150699874Y-117827399D01*
X150701441Y-117828202D01*
X150702964Y-117829077D01*
X150704439Y-117830023D01*
X150705864Y-117831037D01*
X150707238Y-117832117D01*
X150708557Y-117833260D01*
X150709820Y-117834464D01*
X150711024Y-117835727D01*
X150712167Y-117837046D01*
X150713246Y-117838419D01*
X150714260Y-117839845D01*
X150715206Y-117841320D01*
X150716082Y-117842842D01*
X150716885Y-117844410D01*
X150717614Y-117846020D01*
X150718265Y-117847671D01*
X150718837Y-117849360D01*
X150719327Y-117851085D01*
X150719733Y-117852843D01*
X150720053Y-117854633D01*
X150720284Y-117856451D01*
X150720425Y-117858297D01*
X150720472Y-117860167D01*
X150720472Y-117993468D01*
X150720425Y-117995338D01*
X150720284Y-117997184D01*
X150720053Y-117999002D01*
X150719733Y-118000792D01*
X150719327Y-118002551D01*
X150718837Y-118004275D01*
X150718265Y-118005964D01*
X150717614Y-118007615D01*
X150716885Y-118009225D01*
X150716082Y-118010793D01*
X150715206Y-118012315D01*
X150714260Y-118013790D01*
X150713246Y-118015216D01*
X150712167Y-118016589D01*
X150711024Y-118017908D01*
X150709820Y-118019171D01*
X150708557Y-118020375D01*
X150707238Y-118021518D01*
X150705864Y-118022598D01*
X150704439Y-118023612D01*
X150702964Y-118024558D01*
X150701441Y-118025433D01*
X150699874Y-118026237D01*
X150698264Y-118026965D01*
X150696613Y-118027616D01*
X150694924Y-118028188D01*
X150693199Y-118028678D01*
X150691441Y-118029084D01*
X150689651Y-118029404D01*
X150687833Y-118029635D01*
X150685987Y-118029776D01*
X150684117Y-118029823D01*
X150661286Y-118029823D01*
X150550815Y-118029823D01*
X150379826Y-118029823D01*
X150269356Y-118029823D01*
X150246525Y-118029823D01*
X150244655Y-118029776D01*
X150242809Y-118029635D01*
X150240991Y-118029404D01*
X150239201Y-118029084D01*
X150237442Y-118028678D01*
X150235718Y-118028188D01*
X150234029Y-118027616D01*
X150232378Y-118026965D01*
X150230768Y-118026237D01*
X150229200Y-118025433D01*
X150227678Y-118024558D01*
X150226203Y-118023612D01*
X150224777Y-118022598D01*
X150223404Y-118021518D01*
X150222084Y-118020375D01*
X150220822Y-118019171D01*
X150219618Y-118017908D01*
X150218475Y-118016589D01*
X150217395Y-118015216D01*
X150216381Y-118013790D01*
X150215435Y-118012315D01*
X150214560Y-118010793D01*
X150213756Y-118009225D01*
X150213028Y-118007615D01*
X150212377Y-118005964D01*
X150211805Y-118004275D01*
X150211315Y-118002551D01*
X150210909Y-118000792D01*
X150210589Y-117999002D01*
X150210357Y-117997184D01*
X150210217Y-117995338D01*
X150210170Y-117993468D01*
X150210170Y-117860167D01*
X150210217Y-117858297D01*
X150210357Y-117856451D01*
X150210589Y-117854633D01*
X150210909Y-117852843D01*
X150211315Y-117851085D01*
X150211805Y-117849360D01*
X150212377Y-117847671D01*
X150213028Y-117846020D01*
X150213756Y-117844410D01*
X150214560Y-117842842D01*
X150215435Y-117841320D01*
X150216381Y-117839845D01*
X150217395Y-117838419D01*
X150218475Y-117837046D01*
X150219618Y-117835727D01*
X150220822Y-117834464D01*
X150222084Y-117833260D01*
X150223404Y-117832117D01*
X150224777Y-117831037D01*
X150226203Y-117830023D01*
X150227678Y-117829077D01*
X150229200Y-117828202D01*
X150230768Y-117827399D01*
X150232378Y-117826670D01*
X150234029Y-117826019D01*
X150235718Y-117825447D01*
X150237442Y-117824957D01*
X150239201Y-117824551D01*
X150240991Y-117824231D01*
X150242809Y-117824000D01*
X150244655Y-117823859D01*
X150246525Y-117823812D01*
X150269356Y-117823812D01*
X150379826Y-117823812D01*
X150550815Y-117823812D01*
X150661286Y-117823812D01*
X150684117Y-117823812D01*
X150685987Y-117823859D01*
G37*
G36*
X150685987Y-117217943D02*
G01*
X150687833Y-117218084D01*
X150689651Y-117218315D01*
X150691441Y-117218635D01*
X150693199Y-117219041D01*
X150694924Y-117219531D01*
X150696613Y-117220103D01*
X150698264Y-117220754D01*
X150699874Y-117221483D01*
X150701441Y-117222286D01*
X150702964Y-117223161D01*
X150704439Y-117224107D01*
X150705864Y-117225121D01*
X150707238Y-117226201D01*
X150708557Y-117227344D01*
X150709820Y-117228548D01*
X150711024Y-117229811D01*
X150712167Y-117231130D01*
X150713246Y-117232503D01*
X150714260Y-117233929D01*
X150715206Y-117235404D01*
X150716082Y-117236926D01*
X150716885Y-117238494D01*
X150717614Y-117240104D01*
X150718265Y-117241755D01*
X150718837Y-117243444D01*
X150719327Y-117245168D01*
X150719733Y-117246927D01*
X150720053Y-117248717D01*
X150720284Y-117250535D01*
X150720425Y-117252381D01*
X150720472Y-117254251D01*
X150720472Y-117387552D01*
X150720425Y-117389422D01*
X150720284Y-117391268D01*
X150720053Y-117393086D01*
X150719733Y-117394876D01*
X150719327Y-117396635D01*
X150718837Y-117398359D01*
X150718265Y-117400048D01*
X150717614Y-117401699D01*
X150716885Y-117403309D01*
X150716082Y-117404877D01*
X150715206Y-117406399D01*
X150714260Y-117407874D01*
X150713246Y-117409300D01*
X150712167Y-117410673D01*
X150711024Y-117411992D01*
X150709820Y-117413255D01*
X150708557Y-117414459D01*
X150707238Y-117415602D01*
X150705864Y-117416682D01*
X150704439Y-117417696D01*
X150702964Y-117418642D01*
X150701441Y-117419517D01*
X150699874Y-117420320D01*
X150698264Y-117421049D01*
X150696613Y-117421700D01*
X150694924Y-117422272D01*
X150693199Y-117422762D01*
X150691441Y-117423168D01*
X150689651Y-117423488D01*
X150687833Y-117423719D01*
X150685987Y-117423860D01*
X150684117Y-117423907D01*
X150661286Y-117423907D01*
X150550815Y-117423907D01*
X150379826Y-117423907D01*
X150269356Y-117423907D01*
X150246525Y-117423907D01*
X150244655Y-117423860D01*
X150242809Y-117423719D01*
X150240991Y-117423488D01*
X150239201Y-117423168D01*
X150237442Y-117422762D01*
X150235718Y-117422272D01*
X150234029Y-117421700D01*
X150232378Y-117421049D01*
X150230768Y-117420320D01*
X150229200Y-117419517D01*
X150227678Y-117418642D01*
X150226203Y-117417696D01*
X150224777Y-117416682D01*
X150223404Y-117415602D01*
X150222084Y-117414459D01*
X150220822Y-117413255D01*
X150219618Y-117411992D01*
X150218475Y-117410673D01*
X150217395Y-117409300D01*
X150216381Y-117407874D01*
X150215435Y-117406399D01*
X150214560Y-117404877D01*
X150213756Y-117403309D01*
X150213028Y-117401699D01*
X150212377Y-117400048D01*
X150211805Y-117398359D01*
X150211315Y-117396635D01*
X150210909Y-117394876D01*
X150210589Y-117393086D01*
X150210357Y-117391268D01*
X150210217Y-117389422D01*
X150210170Y-117387552D01*
X150210170Y-117254251D01*
X150210217Y-117252381D01*
X150210357Y-117250535D01*
X150210589Y-117248717D01*
X150210909Y-117246927D01*
X150211315Y-117245168D01*
X150211805Y-117243444D01*
X150212377Y-117241755D01*
X150213028Y-117240104D01*
X150213756Y-117238494D01*
X150214560Y-117236926D01*
X150215435Y-117235404D01*
X150216381Y-117233929D01*
X150217395Y-117232503D01*
X150218475Y-117231130D01*
X150219618Y-117229811D01*
X150220822Y-117228548D01*
X150222084Y-117227344D01*
X150223404Y-117226201D01*
X150224777Y-117225121D01*
X150226203Y-117224107D01*
X150227678Y-117223161D01*
X150229200Y-117222286D01*
X150230768Y-117221483D01*
X150232378Y-117220754D01*
X150234029Y-117220103D01*
X150235718Y-117219531D01*
X150237442Y-117219041D01*
X150239201Y-117218635D01*
X150240991Y-117218315D01*
X150242809Y-117218084D01*
X150244655Y-117217943D01*
X150246525Y-117217896D01*
X150269356Y-117217896D01*
X150379826Y-117217896D01*
X150550815Y-117217896D01*
X150661286Y-117217896D01*
X150684117Y-117217896D01*
X150685987Y-117217943D01*
G37*
G36*
X153112500Y-118781903D02*
G01*
X153112375Y-118789020D01*
X153112001Y-118796080D01*
X153111382Y-118803079D01*
X153110522Y-118810011D01*
X153109422Y-118816872D01*
X153108086Y-118823657D01*
X153106517Y-118830361D01*
X153104718Y-118836980D01*
X153102692Y-118843508D01*
X153100443Y-118849941D01*
X153097973Y-118856274D01*
X153095285Y-118862502D01*
X153092383Y-118868620D01*
X153089269Y-118874624D01*
X153085947Y-118880509D01*
X153082419Y-118886269D01*
X153078689Y-118891901D01*
X153074760Y-118897399D01*
X153070635Y-118902758D01*
X153066316Y-118907975D01*
X153061808Y-118913043D01*
X153057113Y-118917958D01*
X153052233Y-118922715D01*
X153047173Y-118927310D01*
X153041935Y-118931738D01*
X153036523Y-118935994D01*
X153030939Y-118940072D01*
X153025186Y-118943969D01*
X153019268Y-118947679D01*
X153013187Y-118951198D01*
X153006947Y-118954521D01*
X153000551Y-118957643D01*
X152987493Y-118963179D01*
X152974243Y-118967723D01*
X152960848Y-118971280D01*
X152947351Y-118973857D01*
X152933798Y-118975458D01*
X152920235Y-118976091D01*
X152906706Y-118975760D01*
X152893258Y-118974472D01*
X152879935Y-118972233D01*
X152866782Y-118969049D01*
X152853845Y-118964925D01*
X152841169Y-118959868D01*
X152828800Y-118953884D01*
X152816782Y-118946978D01*
X152805161Y-118939156D01*
X152793982Y-118930425D01*
X152144343Y-118385295D01*
X152142588Y-118383891D01*
X152140789Y-118382580D01*
X152138949Y-118381361D01*
X152137071Y-118380234D01*
X152135158Y-118379199D01*
X152133212Y-118378257D01*
X152131237Y-118377407D01*
X152129237Y-118376648D01*
X152127213Y-118375982D01*
X152125169Y-118375408D01*
X152123108Y-118374925D01*
X152121033Y-118374535D01*
X152118947Y-118374236D01*
X152116853Y-118374029D01*
X152114754Y-118373914D01*
X152112653Y-118373891D01*
X152110554Y-118373960D01*
X152108459Y-118374120D01*
X152106370Y-118374372D01*
X152104292Y-118374716D01*
X152102228Y-118375151D01*
X152100179Y-118375678D01*
X152098150Y-118376296D01*
X152096143Y-118377006D01*
X152094162Y-118377807D01*
X152092208Y-118378700D01*
X152090287Y-118379684D01*
X152088399Y-118380759D01*
X152086550Y-118381926D01*
X152084740Y-118383184D01*
X152082974Y-118384533D01*
X152081255Y-118385973D01*
X151653915Y-118760308D01*
X151646996Y-118766093D01*
X151639875Y-118771506D01*
X151632563Y-118776546D01*
X151625075Y-118781213D01*
X151617424Y-118785508D01*
X151609624Y-118789431D01*
X151601688Y-118792981D01*
X151593629Y-118796158D01*
X151585462Y-118798963D01*
X151577200Y-118801395D01*
X151568856Y-118803455D01*
X151560444Y-118805142D01*
X151551977Y-118806456D01*
X151543469Y-118807398D01*
X151534934Y-118807967D01*
X151526385Y-118808163D01*
X151517835Y-118807987D01*
X151509298Y-118807439D01*
X151500787Y-118806517D01*
X151492317Y-118805223D01*
X151483901Y-118803556D01*
X151475551Y-118801517D01*
X151467282Y-118799105D01*
X151459108Y-118796320D01*
X151451041Y-118793163D01*
X151443096Y-118789632D01*
X151435285Y-118785729D01*
X151427622Y-118781454D01*
X151420122Y-118776805D01*
X151412797Y-118771784D01*
X151405661Y-118766390D01*
X151398727Y-118760623D01*
X150968866Y-118385755D01*
X150967145Y-118384317D01*
X150965377Y-118382971D01*
X150963566Y-118381716D01*
X150961715Y-118380552D01*
X150959827Y-118379480D01*
X150957904Y-118378499D01*
X150955951Y-118377610D01*
X150953969Y-118376813D01*
X150951963Y-118376107D01*
X150949934Y-118375492D01*
X150947887Y-118374969D01*
X150945823Y-118374538D01*
X150943747Y-118374198D01*
X150941660Y-118373950D01*
X150939567Y-118373793D01*
X150937470Y-118373728D01*
X150935373Y-118373754D01*
X150933277Y-118373872D01*
X150931187Y-118374082D01*
X150929105Y-118374383D01*
X150927035Y-118374776D01*
X150924979Y-118375261D01*
X150922940Y-118375837D01*
X150920922Y-118376505D01*
X150918927Y-118377265D01*
X150916959Y-118378116D01*
X150915020Y-118379059D01*
X150913114Y-118380094D01*
X150911243Y-118381220D01*
X150909411Y-118382438D01*
X150907621Y-118383748D01*
X150905875Y-118385149D01*
X150256018Y-118930425D01*
X150244839Y-118939153D01*
X150233219Y-118946971D01*
X150221202Y-118953875D01*
X150208834Y-118959858D01*
X150196160Y-118964915D01*
X150183225Y-118969038D01*
X150170075Y-118972223D01*
X150156754Y-118974463D01*
X150143308Y-118975752D01*
X150129781Y-118976084D01*
X150116220Y-118975453D01*
X150102669Y-118973853D01*
X150089174Y-118971279D01*
X150075780Y-118967722D01*
X150062531Y-118963179D01*
X150049473Y-118957643D01*
X150036837Y-118951198D01*
X150024837Y-118943969D01*
X150013499Y-118935994D01*
X150002847Y-118927310D01*
X149992906Y-118917958D01*
X149983700Y-118907975D01*
X149975254Y-118897399D01*
X149967593Y-118886269D01*
X149960741Y-118874624D01*
X149954723Y-118862502D01*
X149949563Y-118849941D01*
X149945286Y-118836980D01*
X149941916Y-118823657D01*
X149939479Y-118810011D01*
X149937999Y-118796080D01*
X149937500Y-118781903D01*
X149937500Y-116767790D01*
X150082920Y-116767790D01*
X150082920Y-118164863D01*
X150082999Y-118167979D01*
X150083233Y-118171055D01*
X150083619Y-118174086D01*
X150084152Y-118177069D01*
X150084829Y-118180000D01*
X150085646Y-118182874D01*
X150086599Y-118185689D01*
X150087684Y-118188440D01*
X150088898Y-118191124D01*
X150090237Y-118193737D01*
X150091696Y-118196274D01*
X150093273Y-118198732D01*
X150094963Y-118201108D01*
X150096762Y-118203397D01*
X150098667Y-118205596D01*
X150100673Y-118207701D01*
X150102778Y-118209708D01*
X150104977Y-118211612D01*
X150107266Y-118213412D01*
X150109642Y-118215102D01*
X150112100Y-118216678D01*
X150114638Y-118218138D01*
X150117250Y-118219476D01*
X150119934Y-118220690D01*
X150122685Y-118221776D01*
X150125500Y-118222729D01*
X150128375Y-118223546D01*
X150131305Y-118224222D01*
X150134288Y-118224756D01*
X150137319Y-118225141D01*
X150140395Y-118225375D01*
X150143512Y-118225454D01*
X152906488Y-118225454D01*
X152909607Y-118225375D01*
X152912685Y-118225141D01*
X152915717Y-118224756D01*
X152918702Y-118224222D01*
X152921633Y-118223546D01*
X152924509Y-118222729D01*
X152927324Y-118221776D01*
X152930076Y-118220690D01*
X152932760Y-118219476D01*
X152935373Y-118218138D01*
X152937910Y-118216678D01*
X152940369Y-118215102D01*
X152942744Y-118213412D01*
X152945033Y-118211612D01*
X152947231Y-118209708D01*
X152949336Y-118207701D01*
X152951342Y-118205596D01*
X152953246Y-118203397D01*
X152955044Y-118201108D01*
X152956734Y-118198732D01*
X152958309Y-118196274D01*
X152959768Y-118193737D01*
X152961106Y-118191124D01*
X152962319Y-118188440D01*
X152963404Y-118185689D01*
X152964356Y-118182874D01*
X152965173Y-118180000D01*
X152965849Y-118177069D01*
X152966382Y-118174086D01*
X152966767Y-118171055D01*
X152967001Y-118167979D01*
X152967080Y-118164863D01*
X152967080Y-116767790D01*
X152967017Y-116765295D01*
X152966830Y-116762832D01*
X152966522Y-116760406D01*
X152966095Y-116758018D01*
X152965554Y-116755672D01*
X152964901Y-116753372D01*
X152964140Y-116751119D01*
X152963272Y-116748918D01*
X152962302Y-116746770D01*
X152961231Y-116744680D01*
X152960065Y-116742650D01*
X152958804Y-116740683D01*
X152957453Y-116738783D01*
X152956014Y-116736952D01*
X152954491Y-116735193D01*
X152952886Y-116733510D01*
X152951203Y-116731905D01*
X152949444Y-116730382D01*
X152947613Y-116728944D01*
X152945713Y-116727592D01*
X152943746Y-116726332D01*
X152941716Y-116725165D01*
X152939626Y-116724095D01*
X152937479Y-116723124D01*
X152935278Y-116722257D01*
X152933025Y-116721495D01*
X152930724Y-116720842D01*
X152928379Y-116720301D01*
X152925991Y-116719875D01*
X152923564Y-116719567D01*
X152921102Y-116719380D01*
X152918607Y-116719317D01*
X150131393Y-116719317D01*
X150128900Y-116719380D01*
X150126439Y-116719567D01*
X150124014Y-116719875D01*
X150121628Y-116720301D01*
X150119284Y-116720842D01*
X150116984Y-116721495D01*
X150114732Y-116722257D01*
X150112531Y-116723124D01*
X150110384Y-116724095D01*
X150108294Y-116725165D01*
X150106264Y-116726332D01*
X150104297Y-116727592D01*
X150102397Y-116728944D01*
X150100566Y-116730382D01*
X150098806Y-116731905D01*
X150097123Y-116733510D01*
X150095517Y-116735193D01*
X150093993Y-116736952D01*
X150092554Y-116738783D01*
X150091202Y-116740683D01*
X150089941Y-116742650D01*
X150088773Y-116744680D01*
X150087702Y-116746770D01*
X150086731Y-116748918D01*
X150085863Y-116751119D01*
X150085101Y-116753372D01*
X150084447Y-116755672D01*
X150083905Y-116758018D01*
X150083479Y-116760406D01*
X150083171Y-116762832D01*
X150082983Y-116765295D01*
X150082920Y-116767790D01*
X149937500Y-116767790D01*
X149937753Y-116757826D01*
X149938503Y-116747991D01*
X149939738Y-116738297D01*
X149941447Y-116728757D01*
X149943615Y-116719384D01*
X149946232Y-116710189D01*
X149949285Y-116701184D01*
X149952762Y-116692382D01*
X149956650Y-116683796D01*
X149960937Y-116675436D01*
X149965612Y-116667317D01*
X149970660Y-116659449D01*
X149976072Y-116651846D01*
X149981833Y-116644519D01*
X149987932Y-116637481D01*
X149994356Y-116630744D01*
X150001094Y-116624320D01*
X150008132Y-116618222D01*
X150015460Y-116612461D01*
X150023063Y-116607051D01*
X150030931Y-116602003D01*
X150039050Y-116597329D01*
X150047409Y-116593043D01*
X150055996Y-116589155D01*
X150064797Y-116585679D01*
X150073801Y-116582627D01*
X150082995Y-116580011D01*
X150092368Y-116577843D01*
X150101906Y-116576135D01*
X150111598Y-116574900D01*
X150121431Y-116574150D01*
X150131393Y-116573897D01*
X152918607Y-116573897D01*
X152928571Y-116574150D01*
X152938406Y-116574900D01*
X152948099Y-116576135D01*
X152957639Y-116577843D01*
X152967013Y-116580011D01*
X152976208Y-116582627D01*
X152985213Y-116585679D01*
X152994014Y-116589155D01*
X153002601Y-116593043D01*
X153010960Y-116597329D01*
X153019080Y-116602003D01*
X153026947Y-116607051D01*
X153034551Y-116612461D01*
X153041877Y-116618222D01*
X153048916Y-116624320D01*
X153055653Y-116630744D01*
X153062077Y-116637481D01*
X153068175Y-116644519D01*
X153073935Y-116651846D01*
X153079346Y-116659449D01*
X153084394Y-116667317D01*
X153089067Y-116675436D01*
X153093354Y-116683796D01*
X153097241Y-116692382D01*
X153100717Y-116701184D01*
X153103770Y-116710189D01*
X153106386Y-116719384D01*
X153108554Y-116728757D01*
X153110262Y-116738297D01*
X153111497Y-116747991D01*
X153112247Y-116757826D01*
X153112500Y-116767790D01*
X153112500Y-118164863D01*
X153112500Y-118781903D01*
G37*
%TD*%
%LPC*%
D11*
%TO.C,J1*%
X151949710Y-67310695D03*
X150949710Y-67310695D03*
%TD*%
%LPD*%
M02*
