%TF.GenerationSoftware,KiCad,Pcbnew,9.0.0-rc2-3baa6cd791~182~ubuntu24.04.1*%
%TF.CreationDate,2025-02-03T22:31:15-05:00*%
%TF.ProjectId,RoyalBlue54L-NFC-Antenna,526f7961-6c42-46c7-9565-35344c2d4e46,rev?*%
%TF.SameCoordinates,Original*%
%TF.FileFunction,Other,Comment*%
%FSLAX46Y46*%
G04 Gerber Fmt 4.6, Leading zero omitted, Abs format (unit mm)*
G04 Created by KiCad (PCBNEW 9.0.0-rc2-3baa6cd791~182~ubuntu24.04.1) date 2025-02-03 22:31:15*
%MOMM*%
%LPD*%
G01*
G04 APERTURE LIST*
%ADD10C,0.150000*%
%ADD11C,0.100000*%
%ADD12C,0.050000*%
G04 APERTURE END LIST*
D10*
X162928281Y-63415514D02*
X163023519Y-63415514D01*
X163023519Y-63415514D02*
X163118757Y-63463133D01*
X163118757Y-63463133D02*
X163166376Y-63510752D01*
X163166376Y-63510752D02*
X163213995Y-63605990D01*
X163213995Y-63605990D02*
X163261614Y-63796466D01*
X163261614Y-63796466D02*
X163261614Y-64034561D01*
X163261614Y-64034561D02*
X163213995Y-64225037D01*
X163213995Y-64225037D02*
X163166376Y-64320275D01*
X163166376Y-64320275D02*
X163118757Y-64367895D01*
X163118757Y-64367895D02*
X163023519Y-64415514D01*
X163023519Y-64415514D02*
X162928281Y-64415514D01*
X162928281Y-64415514D02*
X162833043Y-64367895D01*
X162833043Y-64367895D02*
X162785424Y-64320275D01*
X162785424Y-64320275D02*
X162737805Y-64225037D01*
X162737805Y-64225037D02*
X162690186Y-64034561D01*
X162690186Y-64034561D02*
X162690186Y-63796466D01*
X162690186Y-63796466D02*
X162737805Y-63605990D01*
X162737805Y-63605990D02*
X162785424Y-63510752D01*
X162785424Y-63510752D02*
X162833043Y-63463133D01*
X162833043Y-63463133D02*
X162928281Y-63415514D01*
X163690186Y-64320275D02*
X163737805Y-64367895D01*
X163737805Y-64367895D02*
X163690186Y-64415514D01*
X163690186Y-64415514D02*
X163642567Y-64367895D01*
X163642567Y-64367895D02*
X163690186Y-64320275D01*
X163690186Y-64320275D02*
X163690186Y-64415514D01*
X164071138Y-63415514D02*
X164690185Y-63415514D01*
X164690185Y-63415514D02*
X164356852Y-63796466D01*
X164356852Y-63796466D02*
X164499709Y-63796466D01*
X164499709Y-63796466D02*
X164594947Y-63844085D01*
X164594947Y-63844085D02*
X164642566Y-63891704D01*
X164642566Y-63891704D02*
X164690185Y-63986942D01*
X164690185Y-63986942D02*
X164690185Y-64225037D01*
X164690185Y-64225037D02*
X164642566Y-64320275D01*
X164642566Y-64320275D02*
X164594947Y-64367895D01*
X164594947Y-64367895D02*
X164499709Y-64415514D01*
X164499709Y-64415514D02*
X164213995Y-64415514D01*
X164213995Y-64415514D02*
X164118757Y-64367895D01*
X164118757Y-64367895D02*
X164071138Y-64320275D01*
X165118757Y-64415514D02*
X165118757Y-63748847D01*
X165118757Y-63844085D02*
X165166376Y-63796466D01*
X165166376Y-63796466D02*
X165261614Y-63748847D01*
X165261614Y-63748847D02*
X165404471Y-63748847D01*
X165404471Y-63748847D02*
X165499709Y-63796466D01*
X165499709Y-63796466D02*
X165547328Y-63891704D01*
X165547328Y-63891704D02*
X165547328Y-64415514D01*
X165547328Y-63891704D02*
X165594947Y-63796466D01*
X165594947Y-63796466D02*
X165690185Y-63748847D01*
X165690185Y-63748847D02*
X165833042Y-63748847D01*
X165833042Y-63748847D02*
X165928281Y-63796466D01*
X165928281Y-63796466D02*
X165975900Y-63891704D01*
X165975900Y-63891704D02*
X165975900Y-64415514D01*
X166452090Y-64415514D02*
X166452090Y-63748847D01*
X166452090Y-63844085D02*
X166499709Y-63796466D01*
X166499709Y-63796466D02*
X166594947Y-63748847D01*
X166594947Y-63748847D02*
X166737804Y-63748847D01*
X166737804Y-63748847D02*
X166833042Y-63796466D01*
X166833042Y-63796466D02*
X166880661Y-63891704D01*
X166880661Y-63891704D02*
X166880661Y-64415514D01*
X166880661Y-63891704D02*
X166928280Y-63796466D01*
X166928280Y-63796466D02*
X167023518Y-63748847D01*
X167023518Y-63748847D02*
X167166375Y-63748847D01*
X167166375Y-63748847D02*
X167261614Y-63796466D01*
X167261614Y-63796466D02*
X167309233Y-63891704D01*
X167309233Y-63891704D02*
X167309233Y-64415514D01*
X168404471Y-63415514D02*
X168975899Y-63415514D01*
X168690185Y-64415514D02*
X168690185Y-63415514D01*
X169309233Y-64415514D02*
X169309233Y-63415514D01*
X169737804Y-64415514D02*
X169737804Y-63891704D01*
X169737804Y-63891704D02*
X169690185Y-63796466D01*
X169690185Y-63796466D02*
X169594947Y-63748847D01*
X169594947Y-63748847D02*
X169452090Y-63748847D01*
X169452090Y-63748847D02*
X169356852Y-63796466D01*
X169356852Y-63796466D02*
X169309233Y-63844085D01*
X170213995Y-64415514D02*
X170213995Y-63748847D01*
X170213995Y-63415514D02*
X170166376Y-63463133D01*
X170166376Y-63463133D02*
X170213995Y-63510752D01*
X170213995Y-63510752D02*
X170261614Y-63463133D01*
X170261614Y-63463133D02*
X170213995Y-63415514D01*
X170213995Y-63415514D02*
X170213995Y-63510752D01*
X171118756Y-64367895D02*
X171023518Y-64415514D01*
X171023518Y-64415514D02*
X170833042Y-64415514D01*
X170833042Y-64415514D02*
X170737804Y-64367895D01*
X170737804Y-64367895D02*
X170690185Y-64320275D01*
X170690185Y-64320275D02*
X170642566Y-64225037D01*
X170642566Y-64225037D02*
X170642566Y-63939323D01*
X170642566Y-63939323D02*
X170690185Y-63844085D01*
X170690185Y-63844085D02*
X170737804Y-63796466D01*
X170737804Y-63796466D02*
X170833042Y-63748847D01*
X170833042Y-63748847D02*
X171023518Y-63748847D01*
X171023518Y-63748847D02*
X171118756Y-63796466D01*
X171547328Y-64415514D02*
X171547328Y-63415514D01*
X171642566Y-64034561D02*
X171928280Y-64415514D01*
X171928280Y-63748847D02*
X171547328Y-64129799D01*
X172356852Y-63748847D02*
X172356852Y-64415514D01*
X172356852Y-63844085D02*
X172404471Y-63796466D01*
X172404471Y-63796466D02*
X172499709Y-63748847D01*
X172499709Y-63748847D02*
X172642566Y-63748847D01*
X172642566Y-63748847D02*
X172737804Y-63796466D01*
X172737804Y-63796466D02*
X172785423Y-63891704D01*
X172785423Y-63891704D02*
X172785423Y-64415514D01*
X173642566Y-64367895D02*
X173547328Y-64415514D01*
X173547328Y-64415514D02*
X173356852Y-64415514D01*
X173356852Y-64415514D02*
X173261614Y-64367895D01*
X173261614Y-64367895D02*
X173213995Y-64272656D01*
X173213995Y-64272656D02*
X173213995Y-63891704D01*
X173213995Y-63891704D02*
X173261614Y-63796466D01*
X173261614Y-63796466D02*
X173356852Y-63748847D01*
X173356852Y-63748847D02*
X173547328Y-63748847D01*
X173547328Y-63748847D02*
X173642566Y-63796466D01*
X173642566Y-63796466D02*
X173690185Y-63891704D01*
X173690185Y-63891704D02*
X173690185Y-63986942D01*
X173690185Y-63986942D02*
X173213995Y-64082180D01*
X174071138Y-64367895D02*
X174166376Y-64415514D01*
X174166376Y-64415514D02*
X174356852Y-64415514D01*
X174356852Y-64415514D02*
X174452090Y-64367895D01*
X174452090Y-64367895D02*
X174499709Y-64272656D01*
X174499709Y-64272656D02*
X174499709Y-64225037D01*
X174499709Y-64225037D02*
X174452090Y-64129799D01*
X174452090Y-64129799D02*
X174356852Y-64082180D01*
X174356852Y-64082180D02*
X174213995Y-64082180D01*
X174213995Y-64082180D02*
X174118757Y-64034561D01*
X174118757Y-64034561D02*
X174071138Y-63939323D01*
X174071138Y-63939323D02*
X174071138Y-63891704D01*
X174071138Y-63891704D02*
X174118757Y-63796466D01*
X174118757Y-63796466D02*
X174213995Y-63748847D01*
X174213995Y-63748847D02*
X174356852Y-63748847D01*
X174356852Y-63748847D02*
X174452090Y-63796466D01*
X174880662Y-64367895D02*
X174975900Y-64415514D01*
X174975900Y-64415514D02*
X175166376Y-64415514D01*
X175166376Y-64415514D02*
X175261614Y-64367895D01*
X175261614Y-64367895D02*
X175309233Y-64272656D01*
X175309233Y-64272656D02*
X175309233Y-64225037D01*
X175309233Y-64225037D02*
X175261614Y-64129799D01*
X175261614Y-64129799D02*
X175166376Y-64082180D01*
X175166376Y-64082180D02*
X175023519Y-64082180D01*
X175023519Y-64082180D02*
X174928281Y-64034561D01*
X174928281Y-64034561D02*
X174880662Y-63939323D01*
X174880662Y-63939323D02*
X174880662Y-63891704D01*
X174880662Y-63891704D02*
X174928281Y-63796466D01*
X174928281Y-63796466D02*
X175023519Y-63748847D01*
X175023519Y-63748847D02*
X175166376Y-63748847D01*
X175166376Y-63748847D02*
X175261614Y-63796466D01*
X162928281Y-63415514D02*
X163023519Y-63415514D01*
X163023519Y-63415514D02*
X163118757Y-63463133D01*
X163118757Y-63463133D02*
X163166376Y-63510752D01*
X163166376Y-63510752D02*
X163213995Y-63605990D01*
X163213995Y-63605990D02*
X163261614Y-63796466D01*
X163261614Y-63796466D02*
X163261614Y-64034561D01*
X163261614Y-64034561D02*
X163213995Y-64225037D01*
X163213995Y-64225037D02*
X163166376Y-64320275D01*
X163166376Y-64320275D02*
X163118757Y-64367895D01*
X163118757Y-64367895D02*
X163023519Y-64415514D01*
X163023519Y-64415514D02*
X162928281Y-64415514D01*
X162928281Y-64415514D02*
X162833043Y-64367895D01*
X162833043Y-64367895D02*
X162785424Y-64320275D01*
X162785424Y-64320275D02*
X162737805Y-64225037D01*
X162737805Y-64225037D02*
X162690186Y-64034561D01*
X162690186Y-64034561D02*
X162690186Y-63796466D01*
X162690186Y-63796466D02*
X162737805Y-63605990D01*
X162737805Y-63605990D02*
X162785424Y-63510752D01*
X162785424Y-63510752D02*
X162833043Y-63463133D01*
X162833043Y-63463133D02*
X162928281Y-63415514D01*
X163690186Y-64320275D02*
X163737805Y-64367895D01*
X163737805Y-64367895D02*
X163690186Y-64415514D01*
X163690186Y-64415514D02*
X163642567Y-64367895D01*
X163642567Y-64367895D02*
X163690186Y-64320275D01*
X163690186Y-64320275D02*
X163690186Y-64415514D01*
X164071138Y-63415514D02*
X164690185Y-63415514D01*
X164690185Y-63415514D02*
X164356852Y-63796466D01*
X164356852Y-63796466D02*
X164499709Y-63796466D01*
X164499709Y-63796466D02*
X164594947Y-63844085D01*
X164594947Y-63844085D02*
X164642566Y-63891704D01*
X164642566Y-63891704D02*
X164690185Y-63986942D01*
X164690185Y-63986942D02*
X164690185Y-64225037D01*
X164690185Y-64225037D02*
X164642566Y-64320275D01*
X164642566Y-64320275D02*
X164594947Y-64367895D01*
X164594947Y-64367895D02*
X164499709Y-64415514D01*
X164499709Y-64415514D02*
X164213995Y-64415514D01*
X164213995Y-64415514D02*
X164118757Y-64367895D01*
X164118757Y-64367895D02*
X164071138Y-64320275D01*
X165118757Y-64415514D02*
X165118757Y-63748847D01*
X165118757Y-63844085D02*
X165166376Y-63796466D01*
X165166376Y-63796466D02*
X165261614Y-63748847D01*
X165261614Y-63748847D02*
X165404471Y-63748847D01*
X165404471Y-63748847D02*
X165499709Y-63796466D01*
X165499709Y-63796466D02*
X165547328Y-63891704D01*
X165547328Y-63891704D02*
X165547328Y-64415514D01*
X165547328Y-63891704D02*
X165594947Y-63796466D01*
X165594947Y-63796466D02*
X165690185Y-63748847D01*
X165690185Y-63748847D02*
X165833042Y-63748847D01*
X165833042Y-63748847D02*
X165928281Y-63796466D01*
X165928281Y-63796466D02*
X165975900Y-63891704D01*
X165975900Y-63891704D02*
X165975900Y-64415514D01*
X166452090Y-64415514D02*
X166452090Y-63748847D01*
X166452090Y-63844085D02*
X166499709Y-63796466D01*
X166499709Y-63796466D02*
X166594947Y-63748847D01*
X166594947Y-63748847D02*
X166737804Y-63748847D01*
X166737804Y-63748847D02*
X166833042Y-63796466D01*
X166833042Y-63796466D02*
X166880661Y-63891704D01*
X166880661Y-63891704D02*
X166880661Y-64415514D01*
X166880661Y-63891704D02*
X166928280Y-63796466D01*
X166928280Y-63796466D02*
X167023518Y-63748847D01*
X167023518Y-63748847D02*
X167166375Y-63748847D01*
X167166375Y-63748847D02*
X167261614Y-63796466D01*
X167261614Y-63796466D02*
X167309233Y-63891704D01*
X167309233Y-63891704D02*
X167309233Y-64415514D01*
X168404471Y-63415514D02*
X168975899Y-63415514D01*
X168690185Y-64415514D02*
X168690185Y-63415514D01*
X169309233Y-64415514D02*
X169309233Y-63415514D01*
X169737804Y-64415514D02*
X169737804Y-63891704D01*
X169737804Y-63891704D02*
X169690185Y-63796466D01*
X169690185Y-63796466D02*
X169594947Y-63748847D01*
X169594947Y-63748847D02*
X169452090Y-63748847D01*
X169452090Y-63748847D02*
X169356852Y-63796466D01*
X169356852Y-63796466D02*
X169309233Y-63844085D01*
X170213995Y-64415514D02*
X170213995Y-63748847D01*
X170213995Y-63415514D02*
X170166376Y-63463133D01*
X170166376Y-63463133D02*
X170213995Y-63510752D01*
X170213995Y-63510752D02*
X170261614Y-63463133D01*
X170261614Y-63463133D02*
X170213995Y-63415514D01*
X170213995Y-63415514D02*
X170213995Y-63510752D01*
X171118756Y-64367895D02*
X171023518Y-64415514D01*
X171023518Y-64415514D02*
X170833042Y-64415514D01*
X170833042Y-64415514D02*
X170737804Y-64367895D01*
X170737804Y-64367895D02*
X170690185Y-64320275D01*
X170690185Y-64320275D02*
X170642566Y-64225037D01*
X170642566Y-64225037D02*
X170642566Y-63939323D01*
X170642566Y-63939323D02*
X170690185Y-63844085D01*
X170690185Y-63844085D02*
X170737804Y-63796466D01*
X170737804Y-63796466D02*
X170833042Y-63748847D01*
X170833042Y-63748847D02*
X171023518Y-63748847D01*
X171023518Y-63748847D02*
X171118756Y-63796466D01*
X171547328Y-64415514D02*
X171547328Y-63415514D01*
X171642566Y-64034561D02*
X171928280Y-64415514D01*
X171928280Y-63748847D02*
X171547328Y-64129799D01*
X172356852Y-63748847D02*
X172356852Y-64415514D01*
X172356852Y-63844085D02*
X172404471Y-63796466D01*
X172404471Y-63796466D02*
X172499709Y-63748847D01*
X172499709Y-63748847D02*
X172642566Y-63748847D01*
X172642566Y-63748847D02*
X172737804Y-63796466D01*
X172737804Y-63796466D02*
X172785423Y-63891704D01*
X172785423Y-63891704D02*
X172785423Y-64415514D01*
X173642566Y-64367895D02*
X173547328Y-64415514D01*
X173547328Y-64415514D02*
X173356852Y-64415514D01*
X173356852Y-64415514D02*
X173261614Y-64367895D01*
X173261614Y-64367895D02*
X173213995Y-64272656D01*
X173213995Y-64272656D02*
X173213995Y-63891704D01*
X173213995Y-63891704D02*
X173261614Y-63796466D01*
X173261614Y-63796466D02*
X173356852Y-63748847D01*
X173356852Y-63748847D02*
X173547328Y-63748847D01*
X173547328Y-63748847D02*
X173642566Y-63796466D01*
X173642566Y-63796466D02*
X173690185Y-63891704D01*
X173690185Y-63891704D02*
X173690185Y-63986942D01*
X173690185Y-63986942D02*
X173213995Y-64082180D01*
X174071138Y-64367895D02*
X174166376Y-64415514D01*
X174166376Y-64415514D02*
X174356852Y-64415514D01*
X174356852Y-64415514D02*
X174452090Y-64367895D01*
X174452090Y-64367895D02*
X174499709Y-64272656D01*
X174499709Y-64272656D02*
X174499709Y-64225037D01*
X174499709Y-64225037D02*
X174452090Y-64129799D01*
X174452090Y-64129799D02*
X174356852Y-64082180D01*
X174356852Y-64082180D02*
X174213995Y-64082180D01*
X174213995Y-64082180D02*
X174118757Y-64034561D01*
X174118757Y-64034561D02*
X174071138Y-63939323D01*
X174071138Y-63939323D02*
X174071138Y-63891704D01*
X174071138Y-63891704D02*
X174118757Y-63796466D01*
X174118757Y-63796466D02*
X174213995Y-63748847D01*
X174213995Y-63748847D02*
X174356852Y-63748847D01*
X174356852Y-63748847D02*
X174452090Y-63796466D01*
X174880662Y-64367895D02*
X174975900Y-64415514D01*
X174975900Y-64415514D02*
X175166376Y-64415514D01*
X175166376Y-64415514D02*
X175261614Y-64367895D01*
X175261614Y-64367895D02*
X175309233Y-64272656D01*
X175309233Y-64272656D02*
X175309233Y-64225037D01*
X175309233Y-64225037D02*
X175261614Y-64129799D01*
X175261614Y-64129799D02*
X175166376Y-64082180D01*
X175166376Y-64082180D02*
X175023519Y-64082180D01*
X175023519Y-64082180D02*
X174928281Y-64034561D01*
X174928281Y-64034561D02*
X174880662Y-63939323D01*
X174880662Y-63939323D02*
X174880662Y-63891704D01*
X174880662Y-63891704D02*
X174928281Y-63796466D01*
X174928281Y-63796466D02*
X175023519Y-63748847D01*
X175023519Y-63748847D02*
X175166376Y-63748847D01*
X175166376Y-63748847D02*
X175261614Y-63796466D01*
D11*
X153303263Y-66957142D02*
X156299710Y-63960695D01*
X153303263Y-66957142D02*
X153685159Y-65745921D01*
X153303263Y-66957142D02*
X154514484Y-66575246D01*
X156299710Y-63960695D02*
X161874710Y-63960695D01*
X153303263Y-66957142D02*
X156299710Y-63960695D01*
X153303263Y-66957142D02*
X153685159Y-65745921D01*
X153303263Y-66957142D02*
X154514484Y-66575246D01*
X156299710Y-63960695D02*
X161874710Y-63960695D01*
D12*
%TO.C,J1*%
X152749709Y-66560694D02*
G75*
G02*
X152949711Y-66760694I1J-200001D01*
G01*
X149949709Y-66760694D02*
G75*
G02*
X150149709Y-66560694I200001J-1D01*
G01*
X152949710Y-69060695D02*
X149949710Y-69060695D01*
X152949709Y-66760694D02*
X152949709Y-69060694D01*
X150149709Y-66560694D02*
X152749709Y-66560694D01*
X149949709Y-66760694D02*
X149949709Y-69060694D01*
%TD*%
M02*
