%TF.GenerationSoftware,KiCad,Pcbnew,9.0.0-rc2-3baa6cd791~182~ubuntu24.04.1*%
%TF.CreationDate,2025-02-03T22:31:15-05:00*%
%TF.ProjectId,RoyalBlue54L-NFC-Antenna,526f7961-6c42-46c7-9565-35344c2d4e46,rev?*%
%TF.SameCoordinates,Original*%
%TF.FileFunction,Copper,L1,Top*%
%TF.FilePolarity,Positive*%
%FSLAX46Y46*%
G04 Gerber Fmt 4.6, Leading zero omitted, Abs format (unit mm)*
G04 Created by KiCad (PCBNEW 9.0.0-rc2-3baa6cd791~182~ubuntu24.04.1) date 2025-02-03 22:31:15*
%MOMM*%
%LPD*%
G01*
G04 APERTURE LIST*
G04 Aperture macros list*
%AMRoundRect*
0 Rectangle with rounded corners*
0 $1 Rounding radius*
0 $2 $3 $4 $5 $6 $7 $8 $9 X,Y pos of 4 corners*
0 Add a 4 corners polygon primitive as box body*
4,1,4,$2,$3,$4,$5,$6,$7,$8,$9,$2,$3,0*
0 Add four circle primitives for the rounded corners*
1,1,$1+$1,$2,$3*
1,1,$1+$1,$4,$5*
1,1,$1+$1,$6,$7*
1,1,$1+$1,$8,$9*
0 Add four rect primitives between the rounded corners*
20,1,$1+$1,$2,$3,$4,$5,0*
20,1,$1+$1,$4,$5,$6,$7,0*
20,1,$1+$1,$6,$7,$8,$9,0*
20,1,$1+$1,$8,$9,$2,$3,0*%
G04 Aperture macros list end*
%TA.AperFunction,Conductor*%
%ADD10C,0.000000*%
%TD*%
%TA.AperFunction,SMDPad,CuDef*%
%ADD11RoundRect,0.045000X-0.105000X-0.705000X0.105000X-0.705000X0.105000X0.705000X-0.105000X0.705000X0*%
%TD*%
%TA.AperFunction,ViaPad*%
%ADD12C,1.270000*%
%TD*%
%TA.AperFunction,Conductor*%
%ADD13C,0.300000*%
%TD*%
%TA.AperFunction,Conductor*%
%ADD14C,0.299970*%
%TD*%
%TA.AperFunction,Conductor*%
%ADD15C,0.381000*%
%TD*%
G04 APERTURE END LIST*
D10*
%TA.AperFunction,Conductor*%
%TO.N,/ANT*%
G36*
X152807850Y-72206125D02*
G01*
X152816680Y-72258285D01*
X152831410Y-72311095D01*
X152852030Y-72364565D01*
X152878540Y-72418685D01*
X152910950Y-72473455D01*
X152949240Y-72528875D01*
X152993430Y-72584955D01*
X153043500Y-72641695D01*
X153099470Y-72699075D01*
X152210470Y-72699355D01*
X152266420Y-72641925D01*
X152360650Y-72529035D01*
X152398920Y-72473585D01*
X152431320Y-72418795D01*
X152457820Y-72364655D01*
X152478430Y-72311185D01*
X152493150Y-72258365D01*
X152501980Y-72206205D01*
X152504930Y-72154715D01*
X152804900Y-72154615D01*
X152807850Y-72206125D01*
G37*
%TD.AperFunction*%
%TA.AperFunction,Conductor*%
G36*
X149596440Y-105144445D02*
G01*
X149539010Y-105088495D01*
X149426130Y-104994275D01*
X149370670Y-104955995D01*
X149315880Y-104923605D01*
X149261740Y-104897105D01*
X149208270Y-104876495D01*
X149155450Y-104861765D01*
X149103290Y-104852935D01*
X149051800Y-104849995D01*
X149051700Y-104550015D01*
X149103210Y-104547075D01*
X149155370Y-104538235D01*
X149208180Y-104523505D01*
X149261650Y-104502885D01*
X149315770Y-104476375D01*
X149370540Y-104443975D01*
X149425970Y-104405675D01*
X149482040Y-104361495D01*
X149538780Y-104311415D01*
X149596160Y-104255445D01*
X149596440Y-105144445D01*
G37*
%TD.AperFunction*%
%TD*%
D11*
%TO.P,J1,2,Pin_2*%
%TO.N,/ANT*%
X151949710Y-67310695D03*
%TO.P,J1,1,Pin_1*%
X150949710Y-67310695D03*
%TD*%
D12*
%TO.N,/ANT*%
X152650110Y-73152695D03*
X150049780Y-104699805D03*
%TD*%
D13*
%TO.N,/ANT*%
X152540521Y-104629296D02*
G75*
G02*
X152535263Y-104627189I409379J1029296D01*
G01*
D14*
X150290900Y-100746065D02*
X150223680Y-100727435D01*
D15*
X151949710Y-67310695D02*
X151949710Y-70905695D01*
D14*
X142600010Y-102700005D02*
X142600010Y-123399995D01*
X158300000Y-102700005D02*
X152909870Y-102700005D01*
D13*
X150342951Y-74857034D02*
G75*
G02*
X150050092Y-74150005I707049J707034D01*
G01*
D14*
X157300000Y-120399745D02*
X157300000Y-120399995D01*
X152583990Y-99265415D02*
X150400090Y-97099815D01*
X143600010Y-103700005D02*
X143600010Y-122399995D01*
X159300000Y-122399735D02*
X159300000Y-122399995D01*
X150155320Y-102713525D02*
X150086160Y-102704415D01*
X150356660Y-102769345D02*
X150290900Y-102746065D01*
X158300000Y-104700005D02*
X158300000Y-121399745D01*
D13*
X144600000Y-123399995D02*
G75*
G02*
X143600005Y-122399995I0J999995D01*
G01*
X152543346Y-103630414D02*
X152540714Y-103629373D01*
X153169960Y-100700015D02*
G75*
G02*
X152719885Y-100249925I40J450115D01*
G01*
D14*
X152540710Y-102629375D02*
X152540520Y-102629295D01*
X152543350Y-102630415D02*
X152540520Y-102629295D01*
X156300010Y-121399995D02*
X146600000Y-121399995D01*
X150223680Y-100727435D02*
X150155320Y-100713525D01*
D13*
X156300010Y-104700005D02*
G75*
G02*
X157299995Y-105700005I-10J-999995D01*
G01*
X143600000Y-103700005D02*
G75*
G02*
X144600000Y-102700000I1000000J5D01*
G01*
D15*
X150950900Y-70905975D02*
G75*
G02*
X150658019Y-71613094I-1000000J-25D01*
G01*
D14*
X142600010Y-100700015D02*
X142599750Y-100700015D01*
D13*
X152650030Y-85549925D02*
X152650030Y-85550035D01*
X152543346Y-104630414D02*
X152540714Y-104629373D01*
D14*
X159300000Y-103700005D02*
X159300000Y-122399735D01*
D15*
X150658010Y-71613085D02*
X150343000Y-71928085D01*
X152743930Y-72777595D02*
X152743930Y-73152695D01*
D14*
X157300000Y-105700005D02*
X157300000Y-120399745D01*
D13*
X160300000Y-123399995D02*
G75*
G02*
X159300000Y-124400000I-1000000J-5D01*
G01*
D14*
X149990140Y-103700005D02*
X145600000Y-103700005D01*
D13*
X159300000Y-122399989D02*
G75*
G02*
X158300000Y-123399700I-1000000J289D01*
G01*
D14*
X152357160Y-86257065D02*
X150371390Y-88242835D01*
X152650030Y-77549835D02*
X152650030Y-77549945D01*
D13*
X160300250Y-100700015D02*
G75*
G02*
X161300085Y-101699755I50J-999785D01*
G01*
D14*
X152650030Y-85549925D02*
X152650030Y-85550035D01*
X150016530Y-102700165D02*
X149990140Y-102700005D01*
X159300000Y-124399985D02*
X143600010Y-124399985D01*
X158300000Y-123399995D02*
X144600000Y-123399995D01*
X161300000Y-101699755D02*
X161300000Y-124399985D01*
D13*
X145600000Y-122399995D02*
G75*
G02*
X144600005Y-121399995I0J999995D01*
G01*
X150371390Y-88242835D02*
X150322900Y-88291325D01*
D14*
X150356660Y-100769355D02*
X150290900Y-100746065D01*
X160300000Y-123399735D02*
X160300000Y-123399995D01*
X152719880Y-99608315D02*
X152719880Y-100154165D01*
X150050080Y-104700005D02*
X146600000Y-104700005D01*
X152650030Y-85549925D02*
X152650030Y-85550035D01*
D13*
X157300000Y-103700005D02*
G75*
G02*
X158299995Y-104700005I0J-999995D01*
G01*
D14*
X150290900Y-102746065D02*
X150223680Y-102727425D01*
X160300000Y-125399985D02*
X142600010Y-125399985D01*
D13*
X152719880Y-99593485D02*
X152719880Y-99608315D01*
X152909870Y-103700005D02*
G75*
G02*
X152543350Y-103630404I30J1000005D01*
G01*
D14*
X157300000Y-122399995D02*
X145600000Y-122399995D01*
D13*
X152540521Y-102629296D02*
G75*
G02*
X152535263Y-102627189I409379J1029296D01*
G01*
D14*
X152584060Y-99265495D02*
X152583990Y-99265415D01*
X145600000Y-105700005D02*
X145600000Y-120399995D01*
X141600010Y-101699755D02*
X141600010Y-124399985D01*
X160249960Y-100700015D02*
X153169960Y-100700015D01*
X142600010Y-100700015D02*
X142599750Y-100700015D01*
X152540520Y-102629295D02*
X150356660Y-101769355D01*
D13*
X152543432Y-101630194D02*
G75*
G02*
X152535273Y-101626939I349068J886794D01*
G01*
D14*
X149990140Y-100700015D02*
X142600010Y-100700015D01*
X152357160Y-76842805D02*
X150342940Y-74857035D01*
X150086160Y-101704415D02*
X150016530Y-101700165D01*
D13*
X160300250Y-100700015D02*
X160249960Y-100700015D01*
D14*
X150155320Y-100713525D02*
X150086160Y-100704425D01*
D13*
X159300000Y-101699755D02*
G75*
G02*
X160300045Y-102699755I0J-1000045D01*
G01*
X152909880Y-101699755D02*
G75*
G02*
X152543436Y-101630184I20J999955D01*
G01*
D14*
X150223680Y-102727425D02*
X150155320Y-102713525D01*
X150223680Y-101727425D02*
X150155320Y-101713525D01*
X150016530Y-101700165D02*
X149990140Y-101699755D01*
X156300010Y-104700005D02*
X152909870Y-104700005D01*
D13*
X150050080Y-88949975D02*
G75*
G02*
X150322903Y-88291328I931520J-25D01*
G01*
D14*
X152584060Y-99265495D02*
X152583990Y-99265415D01*
X150016530Y-103700155D02*
X149990140Y-103700005D01*
D15*
X150050110Y-72635195D02*
G75*
G02*
X150343008Y-71928093I999990J-5D01*
G01*
D14*
X150086160Y-103704415D02*
X150016530Y-103700155D01*
X150155320Y-101713525D02*
X150086160Y-101704415D01*
D13*
X157300010Y-120399999D02*
G75*
G02*
X156300010Y-121399710I-1000010J299D01*
G01*
X152650020Y-85550035D02*
G75*
G02*
X152357148Y-86257053I-999920J35D01*
G01*
X150345143Y-97044872D02*
G75*
G02*
X150054911Y-96344165I700657J700672D01*
G01*
D14*
X152540520Y-103629295D02*
X150356660Y-102769345D01*
X152543350Y-103630405D02*
X152540520Y-103629295D01*
X150054910Y-96344165D02*
X150050080Y-88949975D01*
D13*
X144600000Y-104700005D02*
G75*
G02*
X145600000Y-103700000I1000000J5D01*
G01*
X142600010Y-125399985D02*
G75*
G02*
X141600015Y-124399985I-10J999985D01*
G01*
X146600000Y-121399995D02*
G75*
G02*
X145600005Y-120399995I0J999995D01*
G01*
D14*
X150086160Y-100704425D02*
X150016530Y-100700165D01*
X159300000Y-101699755D02*
X152909880Y-101699755D01*
D15*
X150950510Y-67310695D02*
X150950510Y-70905695D01*
D13*
X141600010Y-101699755D02*
G75*
G02*
X142599750Y-100700110I999690J-45D01*
G01*
D14*
X152540520Y-104629295D02*
X150356660Y-103769345D01*
D13*
X152584063Y-99265489D02*
G75*
G02*
X152719885Y-99593485I-328163J-328011D01*
G01*
D14*
X152543350Y-104630405D02*
X152540520Y-104629295D01*
X152540710Y-104629375D02*
X152540520Y-104629295D01*
D13*
X158300000Y-121399999D02*
G75*
G02*
X157300000Y-122399700I-1000000J299D01*
G01*
X161299990Y-124399985D02*
G75*
G02*
X160300250Y-125399690I-999690J-15D01*
G01*
D14*
X158300000Y-121399745D02*
X158300000Y-121399995D01*
X150086160Y-102704415D02*
X150016530Y-102700165D01*
D15*
X152655120Y-72440195D02*
X152655120Y-73152695D01*
D13*
X160300000Y-123399735D02*
X160300000Y-123399995D01*
D14*
X152650030Y-77549945D02*
X152650030Y-85549925D01*
X150016530Y-100700165D02*
X149990140Y-100700015D01*
D13*
X152357159Y-76842806D02*
G75*
G02*
X152649986Y-77549835I-707059J-706994D01*
G01*
D14*
X150155320Y-103713515D02*
X150086160Y-103704415D01*
X150290900Y-101746065D02*
X150223680Y-101727425D01*
D13*
X143600010Y-124399995D02*
G75*
G02*
X142600005Y-123399995I-10J999995D01*
G01*
X145600000Y-105700005D02*
G75*
G02*
X146600000Y-104700000I1000000J5D01*
G01*
D15*
X152242223Y-71613082D02*
G75*
G02*
X151949339Y-70905975I707077J707082D01*
G01*
D14*
X149990140Y-102700005D02*
X144600000Y-102700005D01*
X152650030Y-77549835D02*
X152650030Y-77549945D01*
X160300000Y-102699755D02*
X160300000Y-102700005D01*
D13*
X152719880Y-100154165D02*
X152719880Y-100249925D01*
D14*
X150356660Y-101769355D02*
X150290900Y-101746065D01*
D15*
X150050110Y-72635195D02*
X150050110Y-74150005D01*
D13*
X152909870Y-102700005D02*
G75*
G02*
X152543350Y-102630404I30J1000005D01*
G01*
D14*
X149990140Y-101699755D02*
X143600010Y-101699755D01*
D13*
X150400090Y-97099815D02*
X150345150Y-97044875D01*
D14*
X150356660Y-103769345D02*
X150290900Y-103746065D01*
D13*
X158300000Y-102700005D02*
G75*
G02*
X159299995Y-103700005I0J-999995D01*
G01*
X152909870Y-104700005D02*
G75*
G02*
X152543350Y-104630404I30J1000005D01*
G01*
X142600010Y-102699755D02*
G75*
G02*
X143600010Y-101699810I999990J-45D01*
G01*
D14*
X144600000Y-104700005D02*
X144600000Y-121399995D01*
X150290900Y-103746065D02*
X150223680Y-103727425D01*
D13*
X152540521Y-103629296D02*
G75*
G02*
X152535263Y-103627189I409379J1029296D01*
G01*
D14*
X160300000Y-102699755D02*
X160300000Y-102700005D01*
X150223680Y-103727425D02*
X150155320Y-103713515D01*
X160300000Y-123399735D02*
X160300000Y-123399995D01*
D13*
X152543346Y-102630414D02*
X152540714Y-102629373D01*
D15*
X152362220Y-71733085D02*
X152242220Y-71613085D01*
D14*
X160300000Y-102700005D02*
X160300000Y-123399735D01*
X152543350Y-101630415D02*
X150356660Y-100769355D01*
X157300000Y-103700005D02*
X152909870Y-103700005D01*
X152540710Y-103629375D02*
X152540520Y-103629295D01*
D13*
X142600010Y-102699755D02*
X142600010Y-102700005D01*
D15*
X152362227Y-71733088D02*
G75*
G02*
X152655118Y-72440195I-707127J-707112D01*
G01*
%TD*%
M02*
