<?xml version="1.0" encoding="UTF-8" standalone="no"?>
<svg
   version="1.1"
   width="250"
   height="250"
   viewBox="0 0 12.002 12.006999"
   id="svg881"
   sodipodi:docname="routing-width.svg"
   inkscape:version="1.4.3 (0d15f75, 2025-12-25)"
   xmlns:inkscape="http://www.inkscape.org/namespaces/inkscape"
   xmlns:sodipodi="http://sodipodi.sourceforge.net/DTD/sodipodi-0.dtd"
   xmlns="http://www.w3.org/2000/svg"
   xmlns:svg="http://www.w3.org/2000/svg"
   xmlns:rdf="http://www.w3.org/1999/02/22-rdf-syntax-ns#"
   xmlns:cc="http://creativecommons.org/ns#"
   xmlns:dc="http://purl.org/dc/elements/1.1/">
  <defs
     id="defs881">
    <marker
       style="overflow:visible"
       id="Triangle"
       refX="0"
       refY="0"
       orient="auto-start-reverse"
       inkscape:stockid="Triangle arrow"
       markerWidth="1"
       markerHeight="1"
       viewBox="0 0 1 1"
       inkscape:isstock="true"
       inkscape:collect="always"
       preserveAspectRatio="xMidYMid">
      <path
         transform="scale(0.5)"
         style="fill:context-stroke;fill-rule:evenodd;stroke:context-stroke;stroke-width:1pt"
         d="M 5.77,0 -2.88,5 V -5 Z"
         id="path882" />
    </marker>
  </defs>
  <sodipodi:namedview
     id="namedview881"
     pagecolor="#ffffff"
     bordercolor="#ded3dd"
     borderopacity="0.25"
     inkscape:showpageshadow="2"
     inkscape:pageopacity="0.0"
     inkscape:pagecheckerboard="0"
     inkscape:deskcolor="#d1d1d1"
     inkscape:document-units="mm"
     inkscape:zoom="2.2178644"
     inkscape:cx="82.286365"
     inkscape:cy="109.56486"
     inkscape:window-width="1512"
     inkscape:window-height="839"
     inkscape:window-x="0"
     inkscape:window-y="34"
     inkscape:window-maximized="0"
     inkscape:current-layer="g346" />
  <title
     id="title1">SVG Image created as new_project-F_Silkscreen.svg date 2026-03-05T09:11:06 </title>
  <desc
     id="desc1">Image generated by PCBNEW </desc>
  <g
     style="fill:#ded3dd;fill-opacity:1;stroke:#ded3dd;stroke-linecap:round;stroke-linejoin:round;stroke-opacity:1"
     id="g1" />
  <g
     style="fill:none;stroke:#f2647e;stroke-width:0.5;stroke-linecap:round;stroke-linejoin:round;stroke-opacity:1"
     id="g563"
     transform="translate(-100.5144,-99.500567)">
    <path
       style="fill:#f2647e;fill-opacity:1;fill-rule:evenodd;stroke:none"
       d="m 109.7301,101.1287 0.0458,0.0528 0.0112,0.0515 0.002,8.1532 -0.0197,0.0671 -0.0528,0.0457 -0.0515,0.0112 -7.5578,0.002 -0.0671,-0.0197 -0.0457,-0.0528 -0.0112,-0.0515 -0.002,-8.1529 0.0197,-0.067 0.0528,-0.0458 0.0515,-0.0112 7.5582,-0.002 z"
       id="path459" />
  </g>
  <g
     style="fill:none;stroke:#42b8eb;stroke-width:0.5;stroke-linecap:round;stroke-linejoin:round;stroke-opacity:1"
     id="g346"
     transform="translate(-100.5144,-99.500567)">
    <path
       d="m 106.48788,102.9808 3.06128,3.06589"
       id="path339"
       style="stroke-width:0.476156;stroke-dasharray:none" />
    <path
       d="m 102.22038,102.973 h 4.26994"
       id="path340"
       style="stroke-width:0.481415" />
    <path
       d="m 102.2236,104.999 h 1.86603"
       id="path341"
       style="stroke-width:0.487246" />
    <path
       d="m 104.077,104.999 3.009,3.009"
       id="path342" />
    <path
       d="m 107.086,108.00361 v 1.26733"
       id="path343"
       style="stroke-width:0.495588" />
    <path
       d="m 104.967,108.2419 v 1.02733"
       id="path344"
       style="stroke-width:0.488788" />
    <path
       d="m 103.433,106.719 1.534,1.534"
       id="path345" />
    <path
       d="m 102.22728,106.719 h 1.20965"
       id="path346"
       style="stroke-width:0.49605" />
  </g>
  <g
     style="fill:none;stroke:#42b8eb;stroke-width:0.2;stroke-linecap:round;stroke-linejoin:round;stroke-opacity:1"
     id="g353"
     transform="translate(-100.5144,-99.500567)">
    <path
       style="fill:#42b8eb;fill-opacity:1;fill-rule:evenodd;stroke:none"
       d="m 109.7301,101.1287 0.0458,0.0528 0.0112,0.0515 9e-4,3.9781 -0.0197,0.067 -0.0528,0.0458 -0.0691,0.01 -0.0636,-0.029 -0.007,-0.006 -2.7663,-2.7663 v 0 l -0.1255,-0.0725 v 0 l -0.035,-0.009 -0.105,-0.0281 h -4.4393 l -0.067,-0.0197 -0.0458,-0.0528 -0.0112,-0.0515 -3e-4,-1.0635 0.0197,-0.067 0.0528,-0.0458 0.0515,-0.0112 7.5582,-0.002 z"
       id="path350" />
    <path
       style="fill:#42b8eb;fill-opacity:1;fill-rule:evenodd;stroke:none"
       d="m 106.2597,103.5432 0.0206,0.0166 3.2927,3.2927 0.1255,0.0725 0.0133,0.004 0.0137,0.008 0.0138,0.0142 0.0168,0.0103 0.007,0.0143 0.011,0.0114 0.004,0.0194 0.009,0.0177 0.002,0.0206 5e-4,2.342 -0.0197,0.0671 -0.0528,0.0457 -0.0515,0.0112 -1.9054,4e-4 -0.0671,-0.0196 -0.0457,-0.0528 -0.009,-0.0596 h -0.001 v -1.4431 0 l -0.0375,-0.14 -0.0725,-0.1255 -0.1025,-0.1025 -3.009,-3.009 -0.1255,-0.0725 v 0 l -0.035,-0.009 -0.105,-0.0281 h -2.0438 l -0.067,-0.0197 -0.0457,-0.0528 -0.0113,-0.0515 -1e-4,-0.677 0.0196,-0.067 0.0528,-0.0458 0.0516,-0.0112 h 4.087 z"
       id="path351" />
    <path
       style="fill:#42b8eb;fill-opacity:1;fill-rule:evenodd;stroke:none"
       d="m 103.8647,105.5692 0.0206,0.0166 2.6139,2.6139 0.0335,0.0613 0.003,0.0264 v 1.0831 3e-4 2e-4 0.008 h -0.001 l -0.01,0.0612 -0.0464,0.0522 -0.0658,0.0189 -0.7711,2e-4 -0.067,-0.0197 -0.0458,-0.0528 -0.0112,-0.0515 v -1.2066 0 l -0.0375,-0.14 -0.0725,-0.1255 -1.6365,-1.6365 -0.1255,-0.0725 v 0 l -0.0243,-0.007 v 0 l -0.0579,-0.0155 -0.0578,-0.0155 h -1.374 v 0 l -0.008,10e-4 -5e-4,-0.003 -0.0546,-10e-4 -0.0579,-0.0392 -0.0274,-0.0642 -9e-4,-0.0146 -1e-4,-0.3735 0.0197,-0.067 0.0528,-0.0458 0.0515,-0.0112 h 1.6915 z"
       id="path352" />
    <path
       style="fill:#42b8eb;fill-opacity:1;fill-rule:evenodd;stroke:none"
       d="m 102.1254,107.2687 0.006,8e-4 v 0 h 1.0221 l 0.0671,0.0197 0.0206,0.0166 1.1389,1.1389 0.0335,0.0613 0.003,0.0264 v 0.855 l -0.0197,0.067 -0.0528,0.0458 -0.0515,0.0112 -2.1854,5e-4 -0.0671,-0.0197 -0.0457,-0.0528 -0.0112,-0.0515 -6e-4,-1.9967 0.0197,-0.067 0.0528,-0.0458 0.0685,-0.01 v -1e-4 l 3e-4,1e-4 4e-4,-1e-4 z"
       id="path353" />
  </g>
  <g
     style="fill:none;stroke:#ded3dd;stroke-width:0.1;stroke-linecap:round;stroke-linejoin:round;stroke-opacity:1"
     id="g572">
    <path
       d="m 8.1878885,4.7611428 1.433,-1.436"
       id="path564"
       style="marker-start:url(#Triangle)" />
    <path
       d="m 7.5060985,5.4434328 -0.9995,1"
       id="path565" />
    <path
       d="m 6.9930985,4.0834328 1.873,1.872"
       id="path566" />
    <path
       d="m 6.5695985,4.5074328 1.873,1.872"
       id="path567" />
  </g>
  <metadata
     id="metadata882">
    <rdf:RDF>
      <cc:Work
         rdf:about="">
        <dc:title>SVG Image created as new_project-F_Silkscreen.svg date 2026-03-05T09:11:06 </dc:title>
      </cc:Work>
    </rdf:RDF>
  </metadata>
</svg>
