<?xml version="1.0" encoding="UTF-8" standalone="no"?>
<svg
   version="1.1"
   width="245"
   height="163"
   viewBox="0 0 11.906251 7.9374998"
   id="svg89"
   sodipodi:docname="silk_to_soldermask_clearance.svg"
   inkscape:version="1.4.3 (0d15f75, 2025-12-25)"
   xmlns:inkscape="http://www.inkscape.org/namespaces/inkscape"
   xmlns:sodipodi="http://sodipodi.sourceforge.net/DTD/sodipodi-0.dtd"
   xmlns="http://www.w3.org/2000/svg"
   xmlns:svg="http://www.w3.org/2000/svg"
   xmlns:rdf="http://www.w3.org/1999/02/22-rdf-syntax-ns#"
   xmlns:cc="http://creativecommons.org/ns#"
   xmlns:dc="http://purl.org/dc/elements/1.1/">
  <defs
     id="defs89">
    <marker
       style="overflow:visible"
       id="marker89"
       refX="0"
       refY="0"
       orient="auto-start-reverse"
       inkscape:stockid="Triangle arrow"
       markerWidth="1"
       markerHeight="1"
       viewBox="0 0 1 1"
       inkscape:isstock="true"
       inkscape:collect="always"
       preserveAspectRatio="xMidYMid">
      <path
         transform="scale(0.5)"
         style="fill:context-stroke;fill-rule:evenodd;stroke:context-stroke;stroke-width:1pt"
         d="M 5.77,0 -2.88,5 V -5 Z"
         id="path89" />
    </marker>
    <marker
       style="overflow:visible"
       id="Triangle"
       refX="0"
       refY="0"
       orient="auto-start-reverse"
       inkscape:stockid="Triangle arrow"
       markerWidth="1"
       markerHeight="1"
       viewBox="0 0 1 1"
       inkscape:isstock="true"
       inkscape:collect="always"
       preserveAspectRatio="xMidYMid">
      <path
         transform="scale(0.5)"
         style="fill:context-stroke;fill-rule:evenodd;stroke:context-stroke;stroke-width:1pt"
         d="M 5.77,0 -2.88,5 V -5 Z"
         id="path135" />
    </marker>
  </defs>
  <sodipodi:namedview
     id="namedview89"
     pagecolor="#ffffff"
     bordercolor="#ded3dd"
     borderopacity="0.25"
     inkscape:showpageshadow="2"
     inkscape:pageopacity="0.0"
     inkscape:pagecheckerboard="0"
     inkscape:deskcolor="#d1d1d1"
     inkscape:document-units="mm"
     inkscape:zoom="18.56181"
     inkscape:cx="19.85259"
     inkscape:cy="15.219421"
     inkscape:window-width="1512"
     inkscape:window-height="734"
     inkscape:window-x="0"
     inkscape:window-y="34"
     inkscape:window-maximized="0"
     inkscape:current-layer="g35" />
  <title
     id="title1">SVG Image created as RuleCheckProject-B_Cu.svg date 2026-03-06T08:40:35 </title>
  <desc
     id="desc1">Image generated by PCBNEW </desc>
  <g
     style="fill:#ded3dd;fill-opacity:1;stroke:#ded3dd;stroke-linecap:round;stroke-linejoin:round;stroke-opacity:1"
     transform="translate(-146.73698,-44.890231)"
     id="g19">
    <path
       style="fill:#1a81c4;fill-opacity:1;fill-rule:evenodd;stroke:none"
       d="m 152.283,50.49 -0.0156,0.107 -0.0542,0.1109 -0.0873,0.0873 -0.1109,0.0542 -0.107,0.0156 h -1.25 l -0.107,-0.0156 -0.1109,-0.0542 -0.0873,-0.0873 -0.0542,-0.1109 -0.0156,-0.107 v -0.75 l 0.0156,-0.107 0.0542,-0.1109 0.0873,-0.0873 0.1109,-0.0542 0.107,-0.0156 h 1.25 l 0.107,0.0156 0.1109,0.0542 0.0873,0.0873 0.0542,0.1109 0.0156,0.107 z"
       id="path1" />
    <path
       style="fill:#1a81c4;fill-opacity:1;fill-rule:evenodd;stroke:none"
       d="m 154.3715,46.1062 0.0458,0.0528 0.0112,0.0515 v 5.401 l -0.0197,0.067 -0.0528,0.0458 -0.0515,0.0112 h -5.123 l -0.067,-0.0197 -0.0458,-0.0528 -0.0112,-0.0515 v -1.9476 h 0.725 v 0.9022 0 l 0.003,0.0428 v 0 l 0.046,0.1848 0.0846,0.1706 v 0 l 0.1193,0.1484 v 0 l 0.1484,0.1193 v 0 l 0.1706,0.0846 v 0 0 l 0.1848,0.046 0.0428,0.0029 h 1.4022 l 0.0428,-0.0029 0.1848,-0.046 0.1706,-0.0846 0.1484,-0.1193 0.1193,-0.1484 0.0846,-0.1706 0.046,-0.1848 0.003,-0.0428 v -0.9022 l -0.003,-0.0428 -0.046,-0.1848 -0.003,-0.0052 -0.082,-0.1654 v 0 l -0.1193,-0.1484 v 0 L 152.382,48.998 v 0 l -0.1706,-0.0846 -0.1848,-0.046 -0.0214,-0.0015 -0.0214,-0.0014 v 0 h -1.4022 v 0 l -0.0428,0.0029 v 0 l -0.1848,0.046 -0.1706,0.0846 v 0 l -0.1484,0.1193 v 0 l -0.1193,0.1484 v 0 l -0.0846,0.1706 -0.046,0.1848 -0.003,0.0428 h -0.725 v -3.4534 l 0.0197,-0.067 0.0528,-0.0458 0.0515,-0.0112 h 5.123 z"
       id="path2" />
    <path
       style="fill:#f29100;fill-opacity:1;fill-rule:evenodd;stroke:none"
       d="m 152.288,50.498 -0.0156,0.107 -0.0542,0.1109 -0.0873,0.0873 -0.1109,0.0542 -0.107,0.0156 h -1.25 l -0.107,-0.0156 -0.1109,-0.0542 -0.0873,-0.0873 -0.0542,-0.1109 -0.0156,-0.107 v -0.75 l 0.0156,-0.107 0.0542,-0.1109 0.0873,-0.0873 0.1109,-0.0542 0.107,-0.0156 h 1.25 l 0.107,0.0156 0.1109,0.0542 0.0873,0.0873 0.0542,0.1109 0.0156,0.107 z"
       id="path3" />
  </g>
  <g
     style="fill:none;stroke:#f2647e;stroke-width:0.5;stroke-linecap:round;stroke-linejoin:round;stroke-opacity:1"
     id="g22"
     transform="matrix(0.75790433,0,0,1,-108.56745,-44.890231)">
    <path
       d="m 150.31237,50.123 h 1.536"
       id="path20"
       style="stroke:#f29100;stroke-width:0.49966861;stroke-opacity:1;stroke-dasharray:none" />
    <path
       d="m 151.62158,50.123 h 3.71795"
       id="path21"
       style="stroke:#42b8eb;stroke-width:0.49966861;stroke-dasharray:none;stroke-opacity:1" />
    <path
       d="m 151.47277,50.122744 h 3.44421"
       id="path21-7"
       style="fill:none;stroke:#42b8eb;stroke-width:0.499669;stroke-linecap:square;stroke-linejoin:round;stroke-dasharray:none;stroke-opacity:1" />
  </g>
  <g
     style="fill:none;stroke:#f2eda1;stroke-width:0.2;stroke-linecap:round;stroke-linejoin:round;stroke-opacity:1"
     id="g34"
     transform="translate(-146.73698,-44.890231)">
    <text
       x="152.97391"
       y="48.056702"
       textLength="1.64"
       font-size="1.7333px"
       lengthAdjust="spacingAndGlyphs"
       text-anchor="start"
       opacity="0"
       stroke-opacity="0"
       id="text22">R</text>
    <g
       class="stroked-text"
       id="g33">
      <desc
         id="desc22">R</desc>
      <path
         d="m 154.1579,47.8872 -0.4334,-0.619"
         id="path23" />
      <path
         d="m 153.415,47.8872 v -1.3"
         id="path24" />
      <path
         d="m 153.415,46.5872 h 0.4952"
         id="path25" />
      <path
         d="m 153.9102,46.5872 0.1239,0.0619"
         id="path26" />
      <path
         d="m 154.0341,46.6491 0.0619,0.062"
         id="path27" />
      <path
         d="m 154.096,46.7111 0.0619,0.1238"
         id="path28" />
      <path
         d="m 154.1579,46.8349 v 0.1857"
         id="path29" />
      <path
         d="m 154.1579,47.0206 -0.0619,0.1238"
         id="path30" />
      <path
         d="m 154.096,47.1444 -0.0619,0.0619"
         id="path31" />
      <path
         d="m 154.0341,47.2063 -0.1239,0.0619"
         id="path32" />
      <path
         d="M 153.9102,47.2682 H 153.415"
         id="path33" />
    </g>
  </g>
  <g
     style="fill:none;stroke:#f2eda1;stroke-width:0.3;stroke-linecap:round;stroke-linejoin:round;stroke-opacity:1"
     id="g35"
     transform="translate(-146.73698,-44.890231)">
    <path
       d="m 152.81454,47.818 h -3.54158"
       id="path34"
       style="stroke-width:0.3;stroke-dasharray:none" />
    <path
       d="m 152.817,46.373699 v 1.466484"
       id="path35"
       style="stroke-width:0.3;stroke-dasharray:none" />
    <path
       d="m 152.81504,46.234947 v 1.007832"
       id="path35-5"
       style="fill:none;stroke:#f2eda1;stroke-width:0.3;stroke-linecap:square;stroke-linejoin:round;stroke-dasharray:none;stroke-opacity:1" />
    <path
       d="m 149.20362,47.818442 h 1.00784"
       id="path35-5-9"
       style="fill:none;stroke:#f2eda1;stroke-width:0.3;stroke-linecap:square;stroke-linejoin:round;stroke-dasharray:none;stroke-opacity:1" />
  </g>
  <g
     style="fill:none;stroke:#e0e0e0;stroke-width:0.1;stroke-linecap:round;stroke-linejoin:round;stroke-opacity:1"
     id="g89">
    <path
       d="m 10.217976,0.11014516 -0.008,2.63400004"
       id="path80"
       style="marker-end:url(#Triangle)" />
    <path
       d="m 10.235653,4.2814151 -0.008,2.634"
       id="path81"
       style="marker-start:url(#marker89)" />
    <path
       d="m 3.9410114,3.1287688 6.8819996,-10e-4"
       id="path82" />
    <path
       d="m 3.9420114,3.9267688 6.8819996,-10e-4"
       id="path83" />
  </g>
  <metadata
     id="metadata89">
    <rdf:RDF>
      <cc:Work
         rdf:about="">
        <dc:title>SVG Image created as RuleCheckProject-B_Cu.svg date 2026-03-06T08:40:35 </dc:title>
      </cc:Work>
    </rdf:RDF>
  </metadata>
</svg>
