<?xml version="1.0" encoding="UTF-8" standalone="no"?>
<svg
   version="1.1"
   width="240"
   height="170"
   viewBox="0 0 6.9646168 4.926277"
   id="svg69"
   sodipodi:docname="silk-to-soldermask-clearance.svg"
   inkscape:version="1.4.3 (0d15f75, 2025-12-25)"
   xmlns:inkscape="http://www.inkscape.org/namespaces/inkscape"
   xmlns:sodipodi="http://sodipodi.sourceforge.net/DTD/sodipodi-0.dtd"
   xmlns="http://www.w3.org/2000/svg"
   xmlns:svg="http://www.w3.org/2000/svg"
   xmlns:rdf="http://www.w3.org/1999/02/22-rdf-syntax-ns#"
   xmlns:cc="http://creativecommons.org/ns#"
   xmlns:dc="http://purl.org/dc/elements/1.1/">
  <defs
     id="defs69">
    <marker
       style="overflow:visible"
       id="Triangle"
       refX="0"
       refY="0"
       orient="auto-start-reverse"
       inkscape:stockid="Triangle arrow"
       markerWidth="1"
       markerHeight="1"
       viewBox="0 0 1 1"
       inkscape:isstock="true"
       inkscape:collect="always"
       preserveAspectRatio="xMidYMid">
      <path
         transform="scale(0.5)"
         style="fill:context-stroke;fill-rule:evenodd;stroke:context-stroke;stroke-width:1pt"
         d="M 5.77,0 -2.88,5 V -5 Z"
         id="path135" />
    </marker>
  </defs>
  <sodipodi:namedview
     id="namedview69"
     pagecolor="#ffffff"
     bordercolor="#ded3dd"
     borderopacity="0.25"
     inkscape:showpageshadow="2"
     inkscape:pageopacity="0.0"
     inkscape:pagecheckerboard="0"
     inkscape:deskcolor="#d1d1d1"
     inkscape:document-units="mm"
     inkscape:zoom="1.7555934"
     inkscape:cx="102.81424"
     inkscape:cy="96.263748"
     inkscape:window-width="1512"
     inkscape:window-height="769"
     inkscape:window-x="0"
     inkscape:window-y="34"
     inkscape:window-maximized="0"
     inkscape:current-layer="svg69" />
  <title
     id="title1">SVG Image created as new_project-B_Mask.svg date 2026-03-04T21:23:10 </title>
  <desc
     id="desc1">Image generated by PCBNEW </desc>
  <g
     style="fill:#ded3dd;fill-opacity:1;stroke:#ded3dd;stroke-linecap:round;stroke-linejoin:round;stroke-opacity:1"
     transform="translate(-100.25997,-74.824754)"
     id="g2">
    <path
       style="fill:#d864ff;fill-opacity:0.4;fill-rule:evenodd;stroke:none"
       d="m 103.975,77.095 0.019,-0.0957 0.0542,-0.0811 0.0811,-0.0542 0.0957,-0.019 h 0.7 l 0.0957,0.019 0.0811,0.0542 0.0542,0.0811 0.019,0.0957 v 0.9 l -0.019,0.0957 -0.0542,0.0811 -0.0811,0.0542 -0.0957,0.019 h -0.7 l -0.0957,-0.019 -0.0811,-0.0542 -0.0542,-0.0811 -0.019,-0.0957 z"
       id="path1" />
    <path
       style="fill:#d864ff;fill-opacity:0.4;fill-rule:evenodd;stroke:none"
       d="m 105.975,77.095 0.019,-0.0957 0.0542,-0.0811 0.0811,-0.0542 0.0957,-0.019 h 0.7 l 0.0957,0.019 0.0811,0.0542 0.0542,0.0811 0.019,0.0957 v 0.9 l -0.019,0.0957 -0.0542,0.0811 -0.0811,0.0542 -0.0957,0.019 h -0.7 l -0.0957,-0.019 -0.0811,-0.0542 -0.0542,-0.0811 -0.019,-0.0957 z"
       id="path2" />
  </g>
  <g
     style="fill:none;stroke:#f2eda1;stroke-width:0.15;stroke-linecap:round;stroke-linejoin:round;stroke-opacity:1"
     id="g29"
     transform="translate(-100.25997,-74.824754)">
    <text
       x="101.225"
       y="78.025002"
       textLength="2.2024"
       font-size="1.3333px"
       lengthAdjust="spacingAndGlyphs"
       text-anchor="middle"
       opacity="0"
       stroke-opacity="0"
       id="text2">R5</text>
    <g
       class="stroked-text"
       id="g28">
      <desc
         id="desc2">R5</desc>
      <path
         d="M 101.0583,77.9798 100.725,77.5036"
         id="path3" />
      <path
         d="m 100.4869,77.9798 v -1"
         id="path4" />
      <path
         d="m 100.4869,76.9798 h 0.381"
         id="path5" />
      <path
         d="m 100.8679,76.9798 0.0952,0.0476"
         id="path6" />
      <path
         d="m 100.9631,77.0274 0.0476,0.0477"
         id="path7" />
      <path
         d="m 101.0107,77.0751 0.0476,0.0952"
         id="path8" />
      <path
         d="m 101.0583,77.1703 v 0.1429"
         id="path9" />
      <path
         d="m 101.0583,77.3132 -0.0476,0.0952"
         id="path10" />
      <path
         d="m 101.0107,77.4084 -0.0476,0.0476"
         id="path11" />
      <path
         d="m 100.9631,77.456 -0.0952,0.0476"
         id="path12" />
      <path
         d="m 100.8679,77.5036 h -0.381"
         id="path13" />
      <path
         d="m 101.9631,76.9798 h -0.4762"
         id="path14" />
      <path
         d="m 101.4869,76.9798 -0.0476,0.4762"
         id="path15" />
      <path
         d="m 101.4393,77.456 0.0476,-0.0476"
         id="path16" />
      <path
         d="m 101.4869,77.4084 0.0952,-0.0476"
         id="path17" />
      <path
         d="m 101.5821,77.3608 h 0.2381"
         id="path18" />
      <path
         d="m 101.8202,77.3608 0.0953,0.0476"
         id="path19" />
      <path
         d="m 101.9155,77.4084 0.0476,0.0476"
         id="path20" />
      <path
         d="m 101.9631,77.456 0.0476,0.0952"
         id="path21" />
      <path
         d="m 102.0107,77.5512 v 0.2381"
         id="path22" />
      <path
         d="m 102.0107,77.7893 -0.0476,0.0953"
         id="path23" />
      <path
         d="m 101.9631,77.8846 -0.0476,0.0476"
         id="path24" />
      <path
         d="m 101.9155,77.9322 -0.0953,0.0476"
         id="path25" />
      <path
         d="m 101.8202,77.9798 h -0.2381"
         id="path26" />
      <path
         d="m 101.5821,77.9798 -0.0952,-0.0476"
         id="path27" />
      <path
         d="m 101.4869,77.9322 -0.0476,-0.0476"
         id="path28" />
    </g>
  </g>
  <g
     style="fill:none;stroke:#ded3dd;stroke-width:0.0394861;stroke-linecap:round;stroke-linejoin:round;stroke-dasharray:none;stroke-opacity:1"
     id="g31"
     transform="translate(-100.25997,-74.824754)">
    <path
       d="m 102.25434,76.08 h 1.56669"
       id="path29"
       style="stroke-width:0.0398896;stroke-dasharray:none;marker-start:url(#Triangle);marker-end:url(#Triangle)" />
    <path
       d="M 103.95612,77.89 V 75.85"
       id="path30"
       style="stroke-width:0.0394861;stroke-dasharray:none" />
    <path
       d="M 102.12041,77.9 V 75.86"
       id="path31"
       style="stroke-width:0.0394861;stroke-dasharray:none" />
  </g>
  <g
     style="fill:none;stroke:#ded3dd;stroke-width:0.15;stroke-linecap:round;stroke-linejoin:round;stroke-opacity:1"
     id="g43"
     transform="translate(-100.25997,-74.824754)">
    <text
       x="105.575"
       y="79.695"
       textLength="1.25"
       font-size="1.3333px"
       lengthAdjust="spacingAndGlyphs"
       text-anchor="middle"
       opacity="0"
       stroke-opacity="0"
       id="text31">R</text>
    <g
       class="stroked-text"
       id="g42">
      <desc
         id="desc31">R</desc>
      <path
         d="m 105.8845,79.6498 -0.3333,-0.4762"
         id="path32" />
      <path
         d="m 105.3131,79.6498 v -1"
         id="path33" />
      <path
         d="m 105.3131,78.6498 h 0.3809"
         id="path34" />
      <path
         d="m 105.694,78.6498 0.0953,0.0476"
         id="path35" />
      <path
         d="m 105.7893,78.6974 0.0476,0.0477"
         id="path36" />
      <path
         d="m 105.8369,78.7451 0.0476,0.0952"
         id="path37" />
      <path
         d="m 105.8845,78.8403 v 0.1429"
         id="path38" />
      <path
         d="m 105.8845,78.9832 -0.0476,0.0952"
         id="path39" />
      <path
         d="m 105.8369,79.0784 -0.0476,0.0476"
         id="path40" />
      <path
         d="m 105.7893,79.126 -0.0953,0.0476"
         id="path41" />
      <path
         d="m 105.694,79.1736 h -0.3809"
         id="path42" />
    </g>
  </g>
  <g
     style="fill:none;stroke:#ded3dd;stroke-width:0.08;stroke-linecap:round;stroke-linejoin:round;stroke-opacity:1"
     id="g69"
     transform="translate(-100.25997,-74.824754)">
    <text
       x="105.575"
       y="77.794998"
       textLength="1.1162"
       font-size="0.6667px"
       lengthAdjust="spacingAndGlyphs"
       text-anchor="middle"
       opacity="0"
       stroke-opacity="0"
       id="text43">R5</text>
    <g
       class="stroked-text"
       id="g68">
      <desc
         id="desc43">R5</desc>
      <path
         d="m 105.4917,77.7721 -0.1667,-0.238"
         id="path43" />
      <path
         d="m 105.206,77.7721 v -0.5"
         id="path44" />
      <path
         d="m 105.206,77.2721 h 0.1904"
         id="path45" />
      <path
         d="m 105.3964,77.2721 0.0476,0.0239"
         id="path46" />
      <path
         d="m 105.444,77.296 0.0239,0.0238"
         id="path47" />
      <path
         d="m 105.4679,77.3198 0.0238,0.0476"
         id="path48" />
      <path
         d="m 105.4917,77.3674 v 0.0714"
         id="path49" />
      <path
         d="m 105.4917,77.4388 -0.0238,0.0476"
         id="path50" />
      <path
         d="m 105.4679,77.4864 -0.0239,0.0238"
         id="path51" />
      <path
         d="m 105.444,77.5102 -0.0476,0.0239"
         id="path52" />
      <path
         d="M 105.3964,77.5341 H 105.206"
         id="path53" />
      <path
         d="m 105.944,77.2721 h -0.238"
         id="path54" />
      <path
         d="m 105.706,77.2721 -0.0239,0.2381"
         id="path55" />
      <path
         d="m 105.6821,77.5102 0.0239,-0.0238"
         id="path56" />
      <path
         d="m 105.706,77.4864 0.0476,-0.0238"
         id="path57" />
      <path
         d="m 105.7536,77.4626 h 0.119"
         id="path58" />
      <path
         d="m 105.8726,77.4626 0.0476,0.0238"
         id="path59" />
      <path
         d="m 105.9202,77.4864 0.0238,0.0238"
         id="path60" />
      <path
         d="m 105.944,77.5102 0.0239,0.0477"
         id="path61" />
      <path
         d="m 105.9679,77.5579 v 0.119"
         id="path62" />
      <path
         d="m 105.9679,77.6769 -0.0239,0.0476"
         id="path63" />
      <path
         d="m 105.944,77.7245 -0.0238,0.0238"
         id="path64" />
      <path
         d="m 105.9202,77.7483 -0.0476,0.0238"
         id="path65" />
      <path
         d="m 105.8726,77.7721 h -0.119"
         id="path66" />
      <path
         d="M 105.7536,77.7721 105.706,77.7483"
         id="path67" />
      <path
         d="m 105.706,77.7483 -0.0239,-0.0238"
         id="path68" />
    </g>
    <path
       style="fill:none;stroke:#ded3dd;stroke-width:0.1;stroke-linecap:round;stroke-linejoin:round;stroke-opacity:1"
       d="m 104.575,76.92 h 2 v 1.25 h -2 z"
       id="path69" />
  </g>
  <metadata
     id="metadata69">
    <rdf:RDF>
      <cc:Work
         rdf:about="">
        <dc:title>SVG Image created as new_project-B_Mask.svg date 2026-03-04T21:23:10 </dc:title>
      </cc:Work>
    </rdf:RDF>
  </metadata>
</svg>
