<?xml version="1.0" encoding="UTF-8" standalone="no"?>
<svg
   version="1.1"
   width="400"
   height="300"
   viewBox="0 0 52.916667 39.6875"
   id="svg67"
   sodipodi:docname="silk-to-silk-clearance.svg"
   inkscape:version="1.4.3 (0d15f75, 2025-12-25)"
   xmlns:inkscape="http://www.inkscape.org/namespaces/inkscape"
   xmlns:sodipodi="http://sodipodi.sourceforge.net/DTD/sodipodi-0.dtd"
   xmlns="http://www.w3.org/2000/svg"
   xmlns:svg="http://www.w3.org/2000/svg"
   xmlns:rdf="http://www.w3.org/1999/02/22-rdf-syntax-ns#"
   xmlns:cc="http://creativecommons.org/ns#"
   xmlns:dc="http://purl.org/dc/elements/1.1/">
  <defs
     id="defs67">
    <marker
       style="overflow:visible"
       id="marker70"
       refX="0"
       refY="0"
       orient="auto-start-reverse"
       inkscape:stockid="Triangle arrow"
       markerWidth="1"
       markerHeight="1"
       viewBox="0 0 1 1"
       inkscape:isstock="true"
       inkscape:collect="always"
       preserveAspectRatio="xMidYMid">
      <path
         transform="scale(0.5)"
         style="fill:context-stroke;fill-rule:evenodd;stroke:context-stroke;stroke-width:1pt"
         d="M 5.77,0 -2.88,5 V -5 Z"
         id="path70" />
    </marker>
    <marker
       style="overflow:visible"
       id="marker69"
       refX="0"
       refY="0"
       orient="auto-start-reverse"
       inkscape:stockid="Triangle arrow"
       markerWidth="1"
       markerHeight="1"
       viewBox="0 0 1 1"
       inkscape:isstock="true"
       inkscape:collect="always"
       preserveAspectRatio="xMidYMid">
      <path
         transform="scale(0.5)"
         style="fill:context-stroke;fill-rule:evenodd;stroke:context-stroke;stroke-width:1pt"
         d="M 5.77,0 -2.88,5 V -5 Z"
         id="path69" />
    </marker>
    <marker
       style="overflow:visible"
       id="marker68"
       refX="0"
       refY="0"
       orient="auto-start-reverse"
       inkscape:stockid="Triangle arrow"
       markerWidth="1"
       markerHeight="1"
       viewBox="0 0 1 1"
       inkscape:isstock="true"
       inkscape:collect="always"
       preserveAspectRatio="xMidYMid">
      <path
         transform="scale(0.5)"
         style="fill:context-stroke;fill-rule:evenodd;stroke:context-stroke;stroke-width:1pt"
         d="M 5.77,0 -2.88,5 V -5 Z"
         id="path68" />
    </marker>
    <marker
       style="overflow:visible"
       id="Triangle"
       refX="0"
       refY="0"
       orient="auto-start-reverse"
       inkscape:stockid="Triangle arrow"
       markerWidth="1"
       markerHeight="1"
       viewBox="0 0 1 1"
       inkscape:isstock="true"
       inkscape:collect="always"
       preserveAspectRatio="xMidYMid">
      <path
         transform="scale(0.5)"
         style="fill:context-stroke;fill-rule:evenodd;stroke:context-stroke;stroke-width:1pt"
         d="M 5.77,0 -2.88,5 V -5 Z"
         id="path135" />
    </marker>
  </defs>
  <sodipodi:namedview
     id="namedview67"
     pagecolor="#ffffff"
     bordercolor="#ded3dd"
     borderopacity="0.25"
     inkscape:showpageshadow="2"
     inkscape:pageopacity="0.0"
     inkscape:pagecheckerboard="0"
     inkscape:deskcolor="#d1d1d1"
     inkscape:document-units="mm"
     inkscape:zoom="2.5746242"
     inkscape:cx="108.75374"
     inkscape:cy="129.33926"
     inkscape:window-width="1511"
     inkscape:window-height="739"
     inkscape:window-x="0"
     inkscape:window-y="34"
     inkscape:window-maximized="0"
     inkscape:current-layer="svg67" />
  <title
     id="title1">SVG Image created as RuleCheckProject-B_Cu.svg date 2026-03-06T00:25:47 </title>
  <desc
     id="desc1">Image generated by PCBNEW </desc>
  <g
     style="fill:#ded3dd;fill-opacity:1;stroke:#ded3dd;stroke-linecap:round;stroke-linejoin:round;stroke-opacity:1"
     transform="translate(-103.03823,-35.998167)"
     id="g17">
    <path
       style="fill:#f29100;fill-opacity:1;fill-rule:evenodd;stroke:none"
       d="m 139.062,62.933 -0.0156,0.107 -0.0542,0.1109 -0.0873,0.0873 -0.1109,0.0542 -0.107,0.0156 h -1.25 l -0.107,-0.0156 -0.1109,-0.0542 -0.0873,-0.0873 -0.0542,-0.1109 -0.0156,-0.107 v -0.75 l 0.0156,-0.107 0.0542,-0.1109 0.0873,-0.0873 0.1109,-0.0542 0.107,-0.0156 h 1.25 l 0.107,0.0156 0.1109,0.0542 0.0873,0.0873 0.0542,0.1109 0.0156,0.107 z"
       id="path1" />
    <path
       style="fill:#f29100;fill-opacity:1;fill-rule:evenodd;stroke:none"
       d="m 139.062,60.633 -0.0156,0.107 -0.0542,0.1109 -0.0873,0.0873 -0.1109,0.0542 -0.107,0.0156 h -1.25 l -0.107,-0.0156 -0.1109,-0.0542 -0.0873,-0.0873 -0.0542,-0.1109 -0.0156,-0.107 v -0.75 l 0.0156,-0.107 0.0542,-0.1109 0.0873,-0.0873 0.1109,-0.0542 0.107,-0.0156 h 1.25 l 0.107,0.0156 0.1109,0.0542 0.0873,0.0873 0.0542,0.1109 0.0156,0.107 z"
       id="path2" />
    <path
       style="fill:#f29100;fill-opacity:1;fill-rule:evenodd;stroke:none"
       d="m 139.062,58.333 -0.0156,0.107 -0.0542,0.1109 -0.0873,0.0873 -0.1109,0.0542 -0.107,0.0156 h -1.25 l -0.107,-0.0156 -0.1109,-0.0542 -0.0873,-0.0873 -0.0542,-0.1109 -0.0156,-0.107 v -0.75 l 0.0156,-0.107 0.0542,-0.1109 0.0873,-0.0873 0.1109,-0.0542 0.107,-0.0156 h 1.25 l 0.107,0.0156 0.1109,0.0542 0.0873,0.0873 0.0542,0.1109 0.0156,0.107 z"
       id="path3" />
    <path
       style="fill:#f29100;fill-opacity:1;fill-rule:evenodd;stroke:none"
       d="m 132.762,61.658 -0.0114,0.1063 -0.0498,0.1333 -0.0852,0.114 -0.114,0.0852 -0.1333,0.0498 -0.1063,0.0114 h -1 l -0.1063,-0.0114 -0.1333,-0.0498 -0.114,-0.0852 -0.0852,-0.114 -0.0498,-0.1333 -0.0114,-0.1063 v -2.8 l 0.0114,-0.1063 0.0498,-0.1333 0.0852,-0.114 0.114,-0.0852 0.1333,-0.0498 0.1063,-0.0114 h 1 l 0.1063,0.0114 0.1333,0.0498 0.114,0.0852 0.0852,0.114 0.0498,0.1333 0.0114,0.1063 z"
       id="path4" />
    <path
       style="fill:#f29100;fill-opacity:1;fill-rule:evenodd;stroke:none"
       d="m 123.334,49.323 0.0957,0.019 0.0811,0.0542 0.0542,0.0811 0.019,0.0957 v 1.5 l -0.019,0.0957 -0.0542,0.0811 -0.0811,0.0542 -0.0957,0.019 h -1.28 l -0.0957,-0.019 -0.0811,-0.0542 -0.0542,-0.0811 -0.019,-0.0957 v -1.5 l 0.019,-0.0957 0.0542,-0.0811 0.0811,-0.0542 0.0957,-0.019 z"
       id="path5" />
    <path
       style="fill:#f29100;fill-opacity:1;fill-rule:evenodd;stroke:none"
       d="m 120.794,49.323 0.0957,0.019 0.0811,0.0542 0.0542,0.0811 0.019,0.0957 v 1.5 l -0.019,0.0957 -0.0542,0.0811 -0.0811,0.0542 -0.0957,0.019 h -1.28 l -0.0957,-0.019 -0.0811,-0.0542 -0.0542,-0.0811 -0.019,-0.0957 v -1.5 l 0.019,-0.0957 0.0542,-0.0811 0.0811,-0.0542 0.0957,-0.019 z"
       id="path6" />
    <path
       style="fill:#f29100;fill-opacity:1;fill-rule:evenodd;stroke:none"
       d="m 118.254,49.323 0.0957,0.019 0.0811,0.0542 0.0542,0.0811 0.019,0.0957 v 1.5 l -0.019,0.0957 -0.0542,0.0811 -0.0811,0.0542 -0.0957,0.019 h -1.28 l -0.0957,-0.019 -0.0811,-0.0542 -0.0542,-0.0811 -0.019,-0.0957 v -1.5 l 0.019,-0.0957 0.0542,-0.0811 0.0811,-0.0542 0.0957,-0.019 z"
       id="path7" />
    <path
       style="fill:#f29100;fill-opacity:1;fill-rule:evenodd;stroke:none"
       d="m 115.714,49.323 0.0957,0.019 0.0811,0.0542 0.0542,0.0811 0.019,0.0957 v 1.5 l -0.019,0.0957 -0.0542,0.0811 -0.0811,0.0542 -0.0957,0.019 h -1.28 l -0.0957,-0.019 -0.0811,-0.0542 -0.0542,-0.0811 -0.019,-0.0957 v -1.5 l 0.019,-0.0957 0.0542,-0.0811 0.0811,-0.0542 0.0957,-0.019 z"
       id="path8" />
    <path
       style="fill:#f29100;fill-opacity:1;fill-rule:evenodd;stroke:none"
       d="m 113.174,49.323 0.0957,0.019 0.0811,0.0542 0.0542,0.0811 0.019,0.0957 v 1.5 l -0.019,0.0957 -0.0542,0.0811 -0.0811,0.0542 -0.0957,0.019 h -1.28 l -0.0957,-0.019 -0.0811,-0.0542 -0.0542,-0.0811 -0.019,-0.0957 v -1.5 l 0.019,-0.0957 0.0542,-0.0811 0.0811,-0.0542 0.0957,-0.019 z"
       id="path9" />
    <path
       style="fill:#f29100;fill-opacity:1;fill-rule:evenodd;stroke:none"
       d="m 110.634,49.323 0.0957,0.019 0.0811,0.0542 0.0542,0.0811 0.019,0.0957 v 1.5 l -0.019,0.0957 -0.0542,0.0811 -0.0811,0.0542 -0.0957,0.019 h -1.28 l -0.0957,-0.019 -0.0811,-0.0542 -0.0542,-0.0811 -0.019,-0.0957 v -1.5 l 0.019,-0.0957 0.0542,-0.0811 0.0811,-0.0542 0.0957,-0.019 z"
       id="path10" />
    <path
       style="fill:#f29100;fill-opacity:1;fill-rule:evenodd;stroke:none"
       d="m 110.634,60.803 0.0957,0.019 0.0811,0.0542 0.0542,0.0811 0.019,0.0957 v 1.5 l -0.019,0.0957 -0.0542,0.0811 -0.0811,0.0542 -0.0957,0.019 h -1.28 l -0.0957,-0.019 -0.0811,-0.0542 -0.0542,-0.0811 -0.019,-0.0957 v -1.5 l 0.019,-0.0957 0.0542,-0.0811 0.0811,-0.0542 0.0957,-0.019 z"
       id="path11" />
    <path
       style="fill:#f29100;fill-opacity:1;fill-rule:evenodd;stroke:none"
       d="m 113.174,60.803 0.0957,0.019 0.0811,0.0542 0.0542,0.0811 0.019,0.0957 v 1.5 l -0.019,0.0957 -0.0542,0.0811 -0.0811,0.0542 -0.0957,0.019 h -1.28 l -0.0957,-0.019 -0.0811,-0.0542 -0.0542,-0.0811 -0.019,-0.0957 v -1.5 l 0.019,-0.0957 0.0542,-0.0811 0.0811,-0.0542 0.0957,-0.019 z"
       id="path12" />
    <path
       style="fill:#f29100;fill-opacity:1;fill-rule:evenodd;stroke:none"
       d="m 115.714,60.803 0.0957,0.019 0.0811,0.0542 0.0542,0.0811 0.019,0.0957 v 1.5 l -0.019,0.0957 -0.0542,0.0811 -0.0811,0.0542 -0.0957,0.019 h -1.28 l -0.0957,-0.019 -0.0811,-0.0542 -0.0542,-0.0811 -0.019,-0.0957 v -1.5 l 0.019,-0.0957 0.0542,-0.0811 0.0811,-0.0542 0.0957,-0.019 z"
       id="path13" />
    <path
       style="fill:#f29100;fill-opacity:1;fill-rule:evenodd;stroke:none"
       d="m 118.254,60.803 0.0957,0.019 0.0811,0.0542 0.0542,0.0811 0.019,0.0957 v 1.5 l -0.019,0.0957 -0.0542,0.0811 -0.0811,0.0542 -0.0957,0.019 h -1.28 l -0.0957,-0.019 -0.0811,-0.0542 -0.0542,-0.0811 -0.019,-0.0957 v -1.5 l 0.019,-0.0957 0.0542,-0.0811 0.0811,-0.0542 0.0957,-0.019 z"
       id="path14" />
    <path
       style="fill:#f29100;fill-opacity:1;fill-rule:evenodd;stroke:none"
       d="m 120.794,60.803 0.0957,0.019 0.0811,0.0542 0.0542,0.0811 0.019,0.0957 v 1.5 l -0.019,0.0957 -0.0542,0.0811 -0.0811,0.0542 -0.0957,0.019 h -1.28 l -0.0957,-0.019 -0.0811,-0.0542 -0.0542,-0.0811 -0.019,-0.0957 v -1.5 l 0.019,-0.0957 0.0542,-0.0811 0.0811,-0.0542 0.0957,-0.019 z"
       id="path15" />
    <path
       style="fill:#f29100;fill-opacity:1;fill-rule:evenodd;stroke:none"
       d="m 123.334,60.803 0.0957,0.019 0.0811,0.0542 0.0542,0.0811 0.019,0.0957 v 1.5 l -0.019,0.0957 -0.0542,0.0811 -0.0811,0.0542 -0.0957,0.019 h -1.28 l -0.0957,-0.019 -0.0811,-0.0542 -0.0542,-0.0811 -0.019,-0.0957 v -1.5 l 0.019,-0.0957 0.0542,-0.0811 0.0811,-0.0542 0.0957,-0.019 z"
       id="path16" />
    <path
       style="fill:#c83434;fill-opacity:0;fill-rule:evenodd;stroke:none"
       d="m 141.0155,47.3742 0.0458,0.0528 0.0112,0.0515 v 19.257 l -0.0197,0.067 -0.0528,0.0458 -0.0515,0.0112 h -34.835 l -0.067,-0.0197 -0.0458,-0.0528 -0.0112,-0.0515 V 61.003 h 2.614 v 1.6 l 0.0105,0.1028 v 0 l 0.0552,0.1665 0.0921,0.1494 0.124,0.124 0.1494,0.0921 0.1665,0.0552 0.1028,0.0105 v 0 h 1.38 v 0 l 0.1028,-0.0105 0.1665,-0.0552 0.1494,-0.0921 0.0736,-0.0737 0.0613,-0.0334 0.0697,0.0049 0.0444,0.0285 0.0736,0.0737 0.1494,0.0921 0.1665,0.0552 0.1028,0.0105 v 0 h 1.38 v 0 l 0.1028,-0.0105 0.1665,-0.0552 0.1494,-0.0921 0.0736,-0.0737 0.0613,-0.0334 0.0697,0.0049 0.0444,0.0285 0.0736,0.0737 0.1494,0.0921 0.1665,0.0552 0.1028,0.0105 v 0 h 1.38 v 0 l 0.1028,-0.0105 0.1665,-0.0552 0.1494,-0.0921 0.0736,-0.0737 0.0613,-0.0334 0.0697,0.0049 0.0444,0.0285 0.0736,0.0737 0.1494,0.0921 0.1665,0.0552 0.1028,0.0105 v 0 h 1.38 v 0 l 0.1028,-0.0105 0.1665,-0.0552 0.1494,-0.0921 0.0736,-0.0737 0.0613,-0.0334 0.0697,0.0049 0.0444,0.0285 0.0736,0.0737 0.1494,0.0921 0.1665,0.0552 0.1028,0.0105 v 0 h 1.38 v 0 l 0.1028,-0.0105 0.1665,-0.0552 0.1494,-0.0921 0.0736,-0.0737 0.0613,-0.0334 0.0697,0.0049 0.0444,0.0285 0.0736,0.0737 0.1494,0.0921 0.1665,0.0552 0.1028,0.0105 v 0 h 1.38 v 0 l 0.1028,-0.0105 0.1665,-0.0552 0.1494,-0.0921 0.124,-0.124 0.0921,-0.1494 0.0552,-0.1665 0.0105,-0.1028 v -1.6 l -0.0105,-0.1028 -0.0552,-0.1665 -0.0921,-0.1494 -0.124,-0.124 -0.1494,-0.0921 -0.1665,-0.0552 v 0 l -0.1028,-0.0105 v 0 h -1.38 v 0 l -0.1028,0.0105 v 0 l -0.0825,0.0273 -0.084,0.0279 v 0 l -0.1494,0.0921 -0.0736,0.0737 -0.0613,0.0334 -0.0697,-0.0049 -0.0444,-0.0285 -0.0736,-0.0737 v 0 l -0.1494,-0.0921 -0.1665,-0.0552 v 0 l -0.1028,-0.0105 v 0 h -1.38 v 0 l -0.1028,0.0105 v 0 l -0.0825,0.0273 -0.084,0.0279 v 0 l -0.1494,0.0921 -0.0736,0.0737 -0.0613,0.0334 -0.0697,-0.0049 -0.0444,-0.0285 -0.0736,-0.0737 v 0 l -0.1494,-0.0921 -0.1665,-0.0552 v 0 l -0.1028,-0.0105 v 0 h -1.38 v 0 l -0.1028,0.0105 v 0 l -0.0825,0.0273 -0.084,0.0279 v 0 l -0.1494,0.0921 -0.0736,0.0737 -0.0613,0.0334 -0.0697,-0.0049 -0.0444,-0.0285 -0.0736,-0.0737 v 0 l -0.1494,-0.0921 -0.1665,-0.0552 v 0 l -0.1028,-0.0105 v 0 h -1.38 v 0 l -0.1028,0.0105 v 0 l -0.0825,0.0273 -0.084,0.0279 v 0 l -0.1494,0.0921 -0.0736,0.0737 -0.0613,0.0334 -0.0697,-0.0049 -0.0444,-0.0285 -0.0736,-0.0737 v 0 l -0.1494,-0.0921 -0.1665,-0.0552 v 0 l -0.1028,-0.0105 v 0 h -1.38 v 0 l -0.1028,0.0105 v 0 l -0.0825,0.0273 -0.084,0.0279 v 0 l -0.1494,0.0921 -0.0736,0.0737 -0.0613,0.0334 -0.0697,-0.0049 -0.0444,-0.0285 -0.0736,-0.0737 v 0 l -0.1494,-0.0921 -0.1665,-0.0552 v 0 l -0.1028,-0.0105 v 0 h -1.38 v 0 l -0.1028,0.0105 v 0 l -0.0825,0.0273 -0.084,0.0279 v 0 l -0.1494,0.0921 -0.124,0.124 -0.0921,0.1494 v 0 l -0.0552,0.1665 v 0 0 l -0.0105,0.1028 h -2.614 V 58.8 h 24.272 v 2.916 0 l 0.0106,0.1194 0.056,0.1956 v 0 0 l 0.0942,0.1804 v 0 l 0.1286,0.1577 0.0939,0.0766 0.0638,0.052 0.1804,0.0942 0.1956,0.056 0.1194,0.0106 h 1.116 l 0.1194,-0.0106 0.1956,-0.056 0.1804,-0.0942 0.1577,-0.1286 0.1286,-0.1577 0.0942,-0.1804 0.056,-0.1956 0.0106,-0.1194 V 58.8 l -0.0106,-0.1194 -0.056,-0.1956 -0.0942,-0.1804 -0.052,-0.0638 -0.0766,-0.0939 -0.1577,-0.1286 v 0 0 l -0.1804,-0.0942 v 0 0 l -0.1172,-0.0336 -0.0784,-0.0224 v 0 0 l -0.0663,-0.0059 -0.0531,-0.0047 v 0 h -1.116 v 0 0 l -0.0117,10e-4 -0.1077,0.0096 -0.1956,0.056 -0.0902,0.0471 -0.0902,0.0471 v 0 0 l -0.1577,0.1286 -0.1286,0.1577 -0.0942,0.1804 -0.056,0.1956 v 0 L 130.2615,58.8 h -24.272 v -1.2931 h 30.572 v 0.9022 0 l 0.003,0.0428 v 0 l 0.046,0.1848 0.0846,0.1706 v 0 l 0.1193,0.1484 v 0 l 0.0692,0.0557 0.0399,0.0573 0.003,0.0698 -0.0356,0.0602 -0.007,0.0059 -0.0692,0.0557 v 0 l -0.1193,0.1484 v 0 l -0.0846,0.1706 -0.046,0.1848 -0.003,0.0428 v 0.9022 0 l 0.003,0.0428 v 0 l 0.046,0.1848 0.0846,0.1706 v 0 l 0.1193,0.1484 v 0 l 0.0692,0.0557 0.0399,0.0573 0.003,0.0698 -0.0356,0.0602 -0.007,0.0059 -0.0692,0.0557 v 0 l -0.1193,0.1484 v 0 l -0.0846,0.1706 -0.046,0.1848 -0.003,0.0428 v 0.9022 0 l 0.003,0.0428 v 0 l 0.046,0.1848 0.0846,0.1706 v 0 l 0.1193,0.1484 v 0 l 0.1484,0.1193 v 0 l 0.1706,0.0846 v 0 0 l 0.1848,0.046 0.0428,0.0029 h 1.4022 l 0.0428,-0.0029 0.1848,-0.046 0.1706,-0.0846 0.1484,-0.1193 0.1193,-0.1484 0.0846,-0.1706 0.046,-0.1848 0.003,-0.0428 v -0.9022 l -0.003,-0.0428 -0.046,-0.1848 -0.0809,-0.1633 -0.004,-0.0073 v 0 l -0.1193,-0.1484 v 0 l -0.0692,-0.0557 -0.0399,-0.0573 -0.003,-0.0698 0.0356,-0.0602 0.007,-0.0059 0.009,-0.0076 0.0598,-0.0481 0.1193,-0.1484 0.0846,-0.1706 0.046,-0.1848 0.003,-0.0428 v -0.9022 l -0.003,-0.0428 -0.046,-0.1848 -0.003,-0.0052 -0.082,-0.1654 v 0 l -0.1193,-0.1484 v 0 l -0.0692,-0.0557 -0.0399,-0.0573 -0.003,-0.0698 0.0356,-0.0602 0.007,-0.0059 0.009,-0.0076 0.0598,-0.0481 0.1193,-0.1484 0.0846,-0.1706 0.046,-0.1848 0.003,-0.0428 v -0.9022 l -0.003,-0.0428 -0.046,-0.1848 -0.003,-0.0052 -0.082,-0.1654 v 0 l -0.1193,-0.1484 v 0 l -0.1484,-0.1193 v 0 l -0.1706,-0.0846 -0.1848,-0.046 -0.0214,-0.0015 -0.0214,-0.0014 v 0 h -1.4022 v 0 l -0.0428,0.0029 v 0 l -0.1848,0.046 -0.1706,0.0846 v 0 l -0.1484,0.1193 v 0 l -0.1193,0.1484 v 0 l -0.0846,0.1706 -0.046,0.1848 -0.003,0.0428 h -30.572 V 49.523 h 2.614 v 1.6 l 0.0105,0.1028 v 0 l 0.0552,0.1665 0.0921,0.1494 0.124,0.124 0.1494,0.0921 0.1665,0.0552 0.1028,0.0105 v 0 h 1.38 v 0 l 0.1028,-0.0105 0.1665,-0.0552 0.1494,-0.0921 0.0736,-0.0737 0.0613,-0.0334 0.0697,0.0049 0.0444,0.0285 0.0736,0.0737 0.1494,0.0921 0.1665,0.0552 0.1028,0.0105 v 0 h 1.38 v 0 l 0.1028,-0.0105 0.1665,-0.0552 0.1494,-0.0921 0.0736,-0.0737 0.0613,-0.0334 0.0697,0.0049 0.0444,0.0285 0.0736,0.0737 0.1494,0.0921 0.1665,0.0552 0.1028,0.0105 v 0 h 1.38 v 0 l 0.1028,-0.0105 0.1665,-0.0552 0.1494,-0.0921 0.0736,-0.0737 0.0613,-0.0334 0.0697,0.0049 0.0444,0.0285 0.0736,0.0737 0.1494,0.0921 0.1665,0.0552 0.1028,0.0105 v 0 h 1.38 v 0 l 0.1028,-0.0105 0.1665,-0.0552 0.1494,-0.0921 0.0736,-0.0737 0.0613,-0.0334 0.0697,0.0049 0.0444,0.0285 0.0736,0.0737 0.1494,0.0921 0.1665,0.0552 0.1028,0.0105 v 0 h 1.38 v 0 l 0.1028,-0.0105 0.1665,-0.0552 0.1494,-0.0921 0.0736,-0.0737 0.0613,-0.0334 0.0697,0.0049 0.0444,0.0285 0.0736,0.0737 0.1494,0.0921 0.1665,0.0552 0.1028,0.0105 v 0 h 1.38 v 0 l 0.1028,-0.0105 0.1665,-0.0552 0.1494,-0.0921 0.124,-0.124 0.0921,-0.1494 0.0552,-0.1665 0.0105,-0.1028 v -1.6 l -0.0105,-0.1028 -0.0552,-0.1665 -0.0921,-0.1494 -0.124,-0.124 -0.1494,-0.0921 -0.1665,-0.0552 v 0 l -0.1028,-0.0105 v 0 h -1.38 v 0 l -0.1028,0.0105 v 0 l -0.0825,0.0273 -0.084,0.0279 v 0 l -0.1494,0.0921 -0.0736,0.0737 -0.0613,0.0334 -0.0697,-0.0049 -0.0444,-0.0285 -0.0736,-0.0737 v 0 l -0.1494,-0.0921 -0.1665,-0.0552 v 0 l -0.1028,-0.0105 v 0 h -1.38 v 0 l -0.1028,0.0105 v 0 l -0.0825,0.0273 -0.084,0.0279 v 0 l -0.1494,0.0921 -0.0736,0.0737 -0.0613,0.0334 -0.0697,-0.0049 -0.0444,-0.0285 -0.0736,-0.0737 v 0 l -0.1494,-0.0921 -0.1665,-0.0552 v 0 l -0.1028,-0.0105 v 0 h -1.38 v 0 l -0.1028,0.0105 v 0 l -0.0825,0.0273 -0.084,0.0279 v 0 l -0.1494,0.0921 -0.0736,0.0737 -0.0613,0.0334 -0.0697,-0.0049 -0.0444,-0.0285 -0.0736,-0.0737 v 0 l -0.1494,-0.0921 -0.1665,-0.0552 v 0 l -0.1028,-0.0105 v 0 h -1.38 v 0 l -0.1028,0.0105 v 0 l -0.0825,0.0273 -0.084,0.0279 v 0 l -0.1494,0.0921 -0.0736,0.0737 -0.0613,0.0334 -0.0697,-0.0049 -0.0444,-0.0285 -0.0736,-0.0737 v 0 l -0.1494,-0.0921 -0.1665,-0.0552 v 0 l -0.1028,-0.0105 v 0 h -1.38 v 0 l -0.1028,0.0105 v 0 l -0.0825,0.0273 -0.084,0.0279 v 0 l -0.1494,0.0921 -0.0736,0.0737 -0.0613,0.0334 -0.0697,-0.0049 -0.0444,-0.0285 -0.0736,-0.0737 v 0 l -0.1494,-0.0921 -0.1665,-0.0552 v 0 l -0.1028,-0.0105 v 0 h -1.38 v 0 l -0.1028,0.0105 v 0 l -0.0825,0.0273 -0.084,0.0279 v 0 l -0.1494,0.0921 -0.124,0.124 -0.0921,0.1494 v 0 l -0.0552,0.1665 v 0 0 l -0.0105,0.1028 h -2.614 v -2.0445 l 0.0197,-0.067 0.0528,-0.0458 0.0515,-0.0112 h 34.835 z"
       id="path17" />
  </g>
  <g
     style="fill:none;stroke:#f2eda1;stroke-width:0.3;stroke-linecap:round;stroke-linejoin:round;stroke-dasharray:none;stroke-opacity:1"
     id="g51"
     transform="translate(-103.03823,-35.998167)">
    <text
       x="131.528"
       y="64.319"
       textLength="2.25"
       font-size="1.3333px"
       lengthAdjust="spacingAndGlyphs"
       text-anchor="middle"
       opacity="0"
       stroke-opacity="0"
       id="text17"
       style="stroke-width:0.3;stroke-dasharray:none">U2</text>
    <g
       class="stroked-text"
       id="g36"
       style="stroke-width:0.3;stroke-dasharray:none">
      <desc
         id="desc17">U2</desc>
      <path
         d="m 130.7661,63.2738 v 0.8095"
         id="path18"
         style="stroke-width:0.3;stroke-dasharray:none" />
      <path
         d="m 130.7661,64.0833 0.0476,0.0953"
         id="path19"
         style="stroke-width:0.3;stroke-dasharray:none" />
      <path
         d="m 130.8137,64.1786 0.0476,0.0476"
         id="path20"
         style="stroke-width:0.3;stroke-dasharray:none" />
      <path
         d="m 130.8613,64.2262 0.0953,0.0476"
         id="path21"
         style="stroke-width:0.3;stroke-dasharray:none" />
      <path
         d="m 130.9566,64.2738 h 0.1904"
         id="path22"
         style="stroke-width:0.3;stroke-dasharray:none" />
      <path
         d="m 131.147,64.2738 0.0953,-0.0476"
         id="path23"
         style="stroke-width:0.3;stroke-dasharray:none" />
      <path
         d="m 131.2423,64.2262 0.0476,-0.0476"
         id="path24"
         style="stroke-width:0.3;stroke-dasharray:none" />
      <path
         d="m 131.2899,64.1786 0.0476,-0.0953"
         id="path25"
         style="stroke-width:0.3;stroke-dasharray:none" />
      <path
         d="M 131.3375,64.0833 V 63.2738"
         id="path26"
         style="stroke-width:0.3;stroke-dasharray:none" />
      <path
         d="m 131.7661,63.3691 0.0476,-0.0477"
         id="path27"
         style="stroke-width:0.3;stroke-dasharray:none" />
      <path
         d="m 131.8137,63.3214 0.0953,-0.0476"
         id="path28"
         style="stroke-width:0.3;stroke-dasharray:none" />
      <path
         d="m 131.909,63.2738 h 0.238"
         id="path29"
         style="stroke-width:0.3;stroke-dasharray:none" />
      <path
         d="m 132.147,63.2738 0.0953,0.0476"
         id="path30"
         style="stroke-width:0.3;stroke-dasharray:none" />
      <path
         d="m 132.2423,63.3214 0.0476,0.0477"
         id="path31"
         style="stroke-width:0.3;stroke-dasharray:none" />
      <path
         d="m 132.2899,63.3691 0.0476,0.0952"
         id="path32"
         style="stroke-width:0.3;stroke-dasharray:none" />
      <path
         d="m 132.3375,63.4643 v 0.0952"
         id="path33"
         style="stroke-width:0.3;stroke-dasharray:none" />
      <path
         d="m 132.3375,63.5595 -0.0476,0.1429"
         id="path34"
         style="stroke-width:0.3;stroke-dasharray:none" />
      <path
         d="m 132.2899,63.7024 -0.5714,0.5714"
         id="path35"
         style="stroke-width:0.3;stroke-dasharray:none" />
      <path
         d="m 131.7185,64.2738 h 0.619"
         id="path36"
         style="stroke-width:0.3;stroke-dasharray:none" />
    </g>
    <text
       x="125.583"
       y="59.287998"
       textLength="2.25"
       font-size="1.3333px"
       lengthAdjust="spacingAndGlyphs"
       text-anchor="middle"
       opacity="0"
       stroke-opacity="0"
       id="text36"
       style="stroke-width:0.3;stroke-dasharray:none">U1</text>
    <g
       class="stroked-text"
       id="g50"
       style="stroke-width:0.3;stroke-dasharray:none">
      <desc
         id="desc36">U1</desc>
      <path
         d="m 124.8211,58.2428 v 0.8095"
         id="path37"
         style="stroke-width:0.3;stroke-dasharray:none" />
      <path
         d="m 124.8211,59.0523 0.0476,0.0953"
         id="path38"
         style="stroke-width:0.3;stroke-dasharray:none" />
      <path
         d="m 124.8687,59.1476 0.0476,0.0476"
         id="path39"
         style="stroke-width:0.3;stroke-dasharray:none" />
      <path
         d="m 124.9163,59.1952 0.0953,0.0476"
         id="path40"
         style="stroke-width:0.3;stroke-dasharray:none" />
      <path
         d="m 125.0116,59.2428 h 0.1904"
         id="path41"
         style="stroke-width:0.3;stroke-dasharray:none" />
      <path
         d="m 125.202,59.2428 0.0953,-0.0476"
         id="path42"
         style="stroke-width:0.3;stroke-dasharray:none" />
      <path
         d="m 125.2973,59.1952 0.0476,-0.0476"
         id="path43"
         style="stroke-width:0.3;stroke-dasharray:none" />
      <path
         d="m 125.3449,59.1476 0.0476,-0.0953"
         id="path44"
         style="stroke-width:0.3;stroke-dasharray:none" />
      <path
         d="M 125.3925,59.0523 V 58.2428"
         id="path45"
         style="stroke-width:0.3;stroke-dasharray:none" />
      <path
         d="m 126.3925,59.2428 h -0.5714"
         id="path46"
         style="stroke-width:0.3;stroke-dasharray:none" />
      <path
         d="m 126.1068,59.2428 v -1"
         id="path47"
         style="stroke-width:0.3;stroke-dasharray:none" />
      <path
         d="m 126.1068,58.2428 -0.0952,0.1429"
         id="path48"
         style="stroke-width:0.3;stroke-dasharray:none" />
      <path
         d="m 126.0116,58.3857 -0.0953,0.0952"
         id="path49"
         style="stroke-width:0.3;stroke-dasharray:none" />
      <path
         d="m 125.9163,58.4809 -0.0952,0.0476"
         id="path50"
         style="stroke-width:0.3;stroke-dasharray:none" />
    </g>
  </g>
  <g
     style="fill:none;stroke:#f2eda1;stroke-width:0.3;stroke-linecap:round;stroke-linejoin:round;stroke-dasharray:none;stroke-opacity:1"
     id="g55"
     transform="translate(-103.03823,-35.998167)">
    <path
       d="m 136.762,63.668 h -3.76"
       id="path51"
       style="stroke-width:0.3;stroke-dasharray:none" />
    <path
       d="m 136.762,56.848 h -3.76"
       id="path52"
       style="stroke-width:0.3;stroke-dasharray:none" />
    <path
       d="m 133.002,63.668 v -1.26"
       id="path53"
       style="stroke-width:0.3;stroke-dasharray:none" />
    <path
       d="m 133.002,56.848 v 1.26"
       id="path54"
       style="stroke-width:0.3;stroke-dasharray:none" />
    <path
       style="fill:#f2eda1;fill-opacity:1;fill-rule:evenodd;stroke:#f2eda1;stroke-width:0.3;stroke-linecap:round;stroke-linejoin:round;stroke-dasharray:none;stroke-opacity:1"
       d="m 138.282,63.898 h -0.48 l 0.24,-0.33 z"
       id="path55" />
  </g>
  <g
     style="fill:none;stroke:#f2eda1;stroke-width:0.3;stroke-linecap:round;stroke-linejoin:round;stroke-dasharray:none;stroke-opacity:1"
     id="g61"
     transform="translate(-103.03823,-35.998167)">
    <path
       d="m 124.024,52.828 h -15.36"
       id="path56"
       style="stroke-width:0.3;stroke-dasharray:none" />
    <path
       d="m 108.664,52.828 v 6.47"
       id="path57"
       style="stroke-width:0.3;stroke-dasharray:none" />
    <path
       d="M 124.024,55.063 V 52.828"
       id="path58"
       style="stroke-width:0.3;stroke-dasharray:none" />
    <path
       d="M 124.024,59.298 V 57.063"
       id="path59"
       style="stroke-width:0.3;stroke-dasharray:none" />
    <path
       d="m 108.664,59.298 h 15.36"
       id="path60"
       style="stroke-width:0.3;stroke-dasharray:none" />
    <path
       d="m 124.024,55.063 a 1,1 0 0 0 0,2"
       id="path61"
       style="stroke-width:0.3;stroke-dasharray:none" />
  </g>
  <g
     style="fill:none;stroke:#e0e0e0;stroke-width:0.3;stroke-linecap:round;stroke-linejoin:round;stroke-dasharray:none;stroke-opacity:1"
     id="g67"
     transform="translate(-103.03823,-35.998167)">
    <path
       d="m 131.53342,71.393989 h 2.03859"
       id="path62"
       style="stroke-width:0.3;stroke-dasharray:none;marker-start:url(#marker69);stroke:#e0e0e0;stroke-opacity:1" />
    <path
       d="m 123.45393,71.444148 h 2.03859"
       id="path62-1"
       style="fill:none;stroke:#e0e0e0;stroke-width:0.3;stroke-linecap:round;stroke-linejoin:round;stroke-dasharray:none;stroke-opacity:1;marker-end:url(#marker70)" />
    <path
       d="m 125.47493,45.207259 6.2072,-0.01451"
       id="path63"
       style="stroke-width:0.299313;stroke-dasharray:none;marker-start:url(#Triangle);marker-end:url(#marker68);stroke:#e0e0e0;stroke-opacity:1" />
    <path
       d="m 132.77572,57.638 0.001,-13.229"
       id="path64"
       style="stroke-width:0.3;stroke-dasharray:none;stroke:#e0e0e0;stroke-opacity:1" />
    <path
       d="m 124.3329,59.247 0.021,-14.838"
       id="path65"
       style="stroke-width:0.3;stroke-dasharray:none;stroke:#e0e0e0;stroke-opacity:1" />
    <path
       d="m 130.4573,63.20093 0.004,8.987"
       id="path66"
       style="stroke-width:0.3;stroke-dasharray:none;stroke:#e0e0e0;stroke-opacity:1" />
    <path
       d="m 126.67381,58.145 -0.062,14.062"
       id="path67"
       style="stroke-width:0.3;stroke-dasharray:none;stroke:#e0e0e0;stroke-opacity:1" />
  </g>
  <metadata
     id="metadata70">
    <rdf:RDF>
      <cc:Work
         rdf:about="">
        <dc:title>SVG Image created as RuleCheckProject-B_Cu.svg date 2026-03-06T00:25:47 </dc:title>
      </cc:Work>
    </rdf:RDF>
  </metadata>
</svg>
