/* XPM */
const char *annotate_right_down_xpm[] = {
/* columns rows colors chars-per-pixel */
"16 16 16 1",
"o c #A25451",
"+ c #88A887",
"* c #424004",
"% c #308530",
"@ c #8B0405",
"# c #7C563C",
"  c None",
"- c #B18B8C",
"O c #BAA6A6",
"X c #8E1C17",
"$ c #549354",
"; c #74381C",
"& c #067205",
". c #993F3B",
"= c #748157",
": c #AC7474",
/* pixels */
" .XoO           ",
"+X@@@X#$$$$$$$+ ",
"%&*@@@@&&&&&&&% ",
"O#@@@X=+++$&&&O ",
" X@.O    O&&%O  ",
"  O  o@O+&&%    ",
"     @@=&&$     ",
"    -@X&&=      ",
"    o@**X@o     ",
"   O@@@@@X-     ",
"  +&@@@.-       ",
" +&&;oO X@.:    ",
"$&&&%%%%;@@@@;%+",
"%&&&&&&&&*@@@@&%",
" +++++++;@@@#++ ",
"        .X:     "
};
