/* XPM */
const char *checked_ok_xpm[] = {
/* columns rows colors chars-per-pixel */
"16 16 16 1",
"- c #C4F874",
"% c #B2E58B",
"o c #C7E5C4",
"= c #B7F456",
"O c #ACCEAC",
"$ c #2A8504",
"  c None",
". c #7FAC78",
"+ c #1C510A",
"X c #0C2906",
"@ c #70B158",
"# c #91D35F",
"& c #32720A",
"; c #53B412",
"* c #77CE1C",
": c #AAFA18",
/* pixels */
"                ",
"                ",
"            ..X ",
"           .ooOX",
"          .ooo.+",
" +@#     .ooo@$ ",
"+#%%&   .%%O@$  ",
"X*=-# X#%%%;$   ",
" ;::=&#-%%;$    ",
" &:::::==*$     ",
" X*==:::*&      ",
"  ;--==*&       ",
"  +===*&        ",
"  X;;;&         ",
"                ",
"                "
};
