/* XPM */
#ifndef XPMMAIN
extern const char * directory_xpm[];

#else
const char * directory_xpm[] = {
"16 16 136 2",
"  	c None",
". 	c #469FFF",
"+ 	c #4193FF",
"@ 	c #4499FF",
"# 	c #2C63AC",
"$ 	c #4DA0FF",
"% 	c #B5D9FB",
"& 	c #AAD3FB",
"* 	c #ADD3FB",
"= 	c #89C4FF",
"- 	c #184888",
"; 	c #4495FF",
"> 	c #AED5FB",
", 	c #6DB3F9",
"' 	c #6FB2F9",
") 	c #6BAEF8",
"! 	c #67ABF6",
"~ 	c #549FF9",
"{ 	c #3E91FF",
"] 	c #ACD4FB",
"^ 	c #6BAEF9",
"/ 	c #6CAFF8",
"( 	c #66AAF7",
"_ 	c #5DA3F6",
": 	c #74AEF7",
"< 	c #9EC4F8",
"[ 	c #92BCF7",
"} 	c #8DB5F5",
"| 	c #88B1F3",
"1 	c #83ABF2",
"2 	c #80A8F0",
"3 	c #87AEF5",
"4 	c #0940B7",
"5 	c #AAD2FB",
"6 	c #67ACF8",
"7 	c #68ABF8",
"8 	c #61A4F7",
"9 	c #5B9FF5",
"0 	c #5399F3",
"a 	c #498FF1",
"b 	c #3F85EF",
"c 	c #367CEB",
"d 	c #2E73E8",
"e 	c #286BE6",
"f 	c #2164E2",
"g 	c #2163E5",
"h 	c #023AB6",
"i 	c #4394FF",
"j 	c #A7D0FA",
"k 	c #63A9F7",
"l 	c #61A7F7",
"m 	c #5BA0F6",
"n 	c #5499F4",
"o 	c #4B90F2",
"p 	c #4186EF",
"q 	c #377DEB",
"r 	c #2E73E7",
"s 	c #266AE5",
"t 	c #2062E2",
"u 	c #1C5DDF",
"v 	c #1A5CE2",
"w 	c #A4CEF9",
"x 	c #5DA5F7",
"y 	c #5DA1F6",
"z 	c #559AF4",
"A 	c #4C91F3",
"B 	c #4489F1",
"C 	c #3A7FED",
"D 	c #3075E9",
"E 	c #276BE5",
"F 	c #2062E1",
"G 	c #1B5CDE",
"H 	c #1758DB",
"I 	c #1857DE",
"J 	c #0239B6",
"K 	c #A1CBF9",
"L 	c #589FF6",
"M 	c #559BF5",
"N 	c #4F96F3",
"O 	c #478CF2",
"P 	c #3D84F0",
"Q 	c #3378EB",
"R 	c #2B6EE7",
"S 	c #2265E3",
"T 	c #1C5DDE",
"U 	c #1757DB",
"V 	c #1554DA",
"W 	c #1555DD",
"X 	c #0139B5",
"Y 	c #4696FF",
"Z 	c #FFFFFF",
"` 	c #FBFBFB",
" .	c #F2F2F2",
"..	c #E9E9E9",
"+.	c #E0E0E0",
"@.	c #D7D7D7",
"#.	c #D4D4D4",
"$.	c #A9A9A9",
"%.	c #BABABA",
"&.	c #9E9990",
"*.	c #0A3DAF",
"=.	c #FEFEFE",
"-.	c #F8F8F8",
";.	c #F1F1F1",
">.	c #E8E8E8",
",.	c #DCDCDC",
"'.	c #D6D6D6",
").	c #D2D2D2",
"!.	c #A7A7A7",
"~.	c #B7B7B7",
"{.	c #929292",
"].	c #BAB6AC",
"^.	c #0E41B3",
"/.	c #F0F0F0",
"(.	c #E5E5E5",
"_.	c #DDDDDD",
":.	c #D3D3D3",
"<.	c #D0D0D0",
"[.	c #ABABAB",
"}.	c #B5B5B5",
"|.	c #939393",
"1.	c #ADADAD",
"2.	c #938E85",
"3.	c #0A3DAE",
"4.	c #FFFFFE",
"5.	c #F4F4F4",
"6.	c #EDEDED",
"7.	c #DBDBDB",
"8.	c #AEAEAE",
"9.	c #969696",
"0.	c #878787",
"a.	c #AFABA1",
"b.	c #0D40B2",
"c.	c #0037B2",
"d.	c #0034A8",
"e.	c #0038B6",
"                                ",
"    . + @ #                     ",
"  $ % & * = -                   ",
"; > , ' ) ! ~ { + + + + + .     ",
"; ] ^ / ( _ : < [ } | 1 2 3 4   ",
"; 5 6 7 8 9 0 a b c d e f g h   ",
"i j k l m n o p q r s t u v h   ",
"i w x y z A B C D E F G H I J   ",
"i K L M N O P Q R S T U V W X   ",
"Y Z Z Z Z `  ...+.@.#.$.%.&.*.  ",
"Y Z Z =.-.;.>.,.'.).!.~.{.].^.  ",
"Y Z =.-./.(._.:.<.[.}.|.1.2.3.  ",
"Y 4.5.6.(.7.#.<.1.8.9.!.0.a.b.  ",
"  c.d.d.d.d.d.d.d.d.d.d.d.e.    ",
"                                ",
"                                "};
#endif
