/* XPM */
const char *fabrication_xpm[] = {
/* columns rows colors chars-per-pixel */
"16 16 16 1",
"- c #5D7FB0",
"O c #7493A6",
"& c #AFB6BF",
"X c #C2AA9C",
"# c #8B6C60",
"o c #8DA4BD",
"= c #94817F",
"$ c #69839C",
"% c #6C493D",
"  c None",
"+ c #A78372",
"; c #4973A9",
"@ c #755A52",
". c #B6917F",
"* c #708EB8",
": c #3C6397",
/* pixels */
"   ...X      oO ",
"    +@#X    o$$$",
"     +%.   OOOO$",
"X.& &+%.   $OO$ ",
".#+.+%%+  ooO*& ",
" +%%%%%%.ooO&   ",
" &.=.=%%@oO     ",
"     &.@o$.     ",
"    &**$$%@.    ",
"   &**-;=@%@.   ",
"  o***;-&+@%#.  ",
" **o*:;o  +@%#. ",
"*o *:-o    +@#+X",
"*o-:;*      .==.",
"*-:;-        .. ",
" *--            "
};
