/* XPM */
#ifndef XPMMAIN
extern const char *fill_zone_xpm[];
#else
const char *fill_zone_xpm[] = {
/* columns rows colors chars-per-pixel */
"16 16 15 1",
"# c #FCFEFC",
"@ c #ACBEFC",
"O c #444A5C",
"$ c #645AEC",
"X c #040204",
"o c #ECEAEC",
". c #F4F2F4",
"  c None",
"+ c #C4C6CC",
"& c #6476C4",
"* c #A4A2AC",
"= c #848A9C",
"; c #646674",
"% c #8496F4",
"- c #7C7E8C",
/* pixels */
"  .  XX   . .. .",
"   oX  X o   o  ",
"    X OXX  o    ",
"oo oXO+X X@@ooo ",
"    O+.X#.X$%@oo",
" o O+.#X..+X$%@o",
"o O+.##..+*=X$%@",
"&O+.##..+*=-;$%@",
"O+.##..+*=-;X$%@",
" X+#. +*=-;X&$%@",
"  X+.+*=-;X &$%@",
"   X=*=-;X  &$%@",
"    X;-;X   &$%&",
"     X;X    &$% ",
"      X      $% ",
"             $% "
};
#endif
