/* XPM */
const char *gerbview_drill_file_xpm[] = {
/* columns rows colors chars-per-pixel */
"16 16 16 1",
"- c #AC4706",
"$ c #A68B79",
"+ c #989898",
"@ c #548E54",
": c #97674C",
"% c #3A3B3A",
"  c None",
"o c #51B851",
"= c #8F706A",
". c #ABB485",
"& c #504D4D",
"; c #A1653C",
"# c #3C911B",
"* c #5C7A24",
"X c #0FB30C",
"O c #AEA9A2",
/* pixels */
"     .XXXXXooo. ",
"  O +@X######XX ",
"$%%%&@#******#X.",
"&%%%&@X*******Xo",
"&%%%&@X*******Xo",
" $===@X*******XX",
"    +@X#######XX",
"     oXXXXXXXXXX",
"      ++    -;&&",
"      .+   O-;=:",
"    O ..   $-;==",
"  O   ..   ;-;==",
"      ..  O$$$=:",
"      ..     +==",
"      O+     $=:",
"             +&&"
};
