/* XPM */
#ifndef XPMMAIN
extern const char *lang_es_xpm[];

#else
const char * lang_es_xpm[] = {
"16 16 5 1",
" 	c None",
".	c #000000",
"+	c #F00000",
"@	c #B47800",
"#	c #F0F000",
"                ",
"                ",
"..............  ",
".++++++++++++.  ",
".++++++++++++.  ",
".@@@@@@@@@@@@.  ",
".############.  ",
".############.  ",
".############.  ",
".@@@@@@@@@@@@.  ",
".++++++++++++.  ",
".++++++++++++.  ",
"..............  ",
"                ",
"                ",
"                "};
#endif
