/* XPM */
#ifndef XPMMAIN
extern const char * module_xpm[];

#else
const char * module_xpm[] = {
"16 15 4 1",
"X c Red",
". c None",
"o c Blue",
"c c Gray",
"....XXX..XXX....",
".cooX..XX..Xooc.",
".cooX......Xooc.",
"....X......X....",
".cooX......Xooc.",
".cooX......Xooc.",
"....X......X....",
".cooX......Xooc.",
".cooX......Xooc.",
"....X......X....",
".cooX......Xooc.",
".cooX......Xooc.",
"....X......X....",
".cooX......Xooc.",
"....XXXXXXXX...."
};
#endif

