/* XPM */
const char *new_component_xpm[] = {
/* columns rows colors chars-per-pixel */
"16 16 15 1",
"# c #8C8D14",
"& c #7878B0",
"= c #9797AC",
"% c #30302D",
"o c #CDCF65",
"- c #4E4E68",
"$ c #AAABF8",
"  c none",
"@ c #0A090C",
"X c #D3D30B",
"* c #B4B5B4",
"; c #6C6E6C",
". c #E0E09C",
"+ c #F6F704",
"O c #BEBE1C",
/* pixels */
"          .     ",
"          Xo    ",
"         .XX    ",
"      oOXX++XXO.",
"       oX++++Xo ",
"       .O+++Xo  ",
"   @@@@@#+X+X.  ",
"   @$$$$OO##Xo  ",
"%%%@$$$$o$$&%o  ",
"**=@$$$$$$$$@*  ",
"   @$$$$$$$$-%;;",
"   @$$$$$$$$-%;;",
"   @$$$$$$$$%=  ",
"***@$$$$$$$&@   ",
"%%@@$=$=$&-@*   ",
"   @@@@@@%-*    "
};
