/* XPM */
const char *pinshape_normal_xpm[] = {
/* columns rows colors chars-per-pixel */
"15 15 2 1",
". c Black",
"  c #FFFFFF",
/* pixels */
"               ",
"               ",
"    .          ",
"    .          ",
"    .          ",
"    .          ",
"    .          ",
"    .......... ",
"    .          ",
"    .          ",
"    .          ",
"    .          ",
"    .          ",
"               ",
"               "
};
