/* XPM */
const char *pintype_noconnect_xpm[] = {
/* columns rows colors chars-per-pixel */
"15 15 3 1",
"  c none",
"X c #040204",
". c #0402C4",
/* pixels */
"               ",
"               ",
"               ",
"              X",
".     .       X",
" .   .        X",
"  . .         X",
"   .XXXXXXXXXXX",
"  . .         X",
" .   .        X",
".     .       X",
"              X",
"               ",
"               ",
"               "
};
