<?xml version="1.0" encoding="UTF-8" standalone="no"?>
<svg
   xmlns:dc="http://purl.org/dc/elements/1.1/"
   xmlns:cc="http://creativecommons.org/ns#"
   xmlns:rdf="http://www.w3.org/1999/02/22-rdf-syntax-ns#"
   xmlns:svg="http://www.w3.org/2000/svg"
   xmlns="http://www.w3.org/2000/svg"
   xmlns:sodipodi="http://sodipodi.sourceforge.net/DTD/sodipodi-0.dtd"
   xmlns:inkscape="http://www.inkscape.org/namespaces/inkscape"
   id="Слой_1"
   data-name="Слой 1"
   viewBox="0 0 24 24"
   version="1.1"
   sodipodi:docname="bus_definition_tool.svg"
   inkscape:version="1.0.1 (c497b03c, 2020-09-10)">
  <sodipodi:namedview
     pagecolor="#ffffff"
     bordercolor="#666666"
     borderopacity="1"
     objecttolerance="10"
     gridtolerance="10"
     guidetolerance="10"
     inkscape:pageopacity="0"
     inkscape:pageshadow="2"
     inkscape:window-width="1609"
     inkscape:window-height="1035"
     id="namedview30"
     showgrid="true"
     inkscape:zoom="37.437403"
     inkscape:cx="11.392905"
     inkscape:cy="8.0547688"
     inkscape:window-x="0"
     inkscape:window-y="23"
     inkscape:window-maximized="0"
     inkscape:document-rotation="0"
     inkscape:current-layer="Слой_1">
    <inkscape:grid
       type="xygrid"
       id="grid_kicad"
       spacingx="0.5"
       spacingy="0.5"
       color="#9999ff"
       opacity="0.13"
       empspacing="2" />
  </sodipodi:namedview>
  <metadata
     id="metadata43">
    <rdf:RDF>
      <cc:Work
         rdf:about="">
        <cc:license
           rdf:resource="http://creativecommons.org/licenses/by-sa/4.0/" />
        <dc:format>image/svg+xml</dc:format>
        <dc:type
           rdf:resource="http://purl.org/dc/dcmitype/StillImage" />
        <dc:title>add_arc</dc:title>
      </cc:Work>
      <cc:License
         rdf:about="http://creativecommons.org/licenses/by-sa/4.0/">
        <cc:permits
           rdf:resource="http://creativecommons.org/ns#Reproduction" />
        <cc:permits
           rdf:resource="http://creativecommons.org/ns#Distribution" />
        <cc:requires
           rdf:resource="http://creativecommons.org/ns#Notice" />
        <cc:requires
           rdf:resource="http://creativecommons.org/ns#Attribution" />
        <cc:permits
           rdf:resource="http://creativecommons.org/ns#DerivativeWorks" />
        <cc:requires
           rdf:resource="http://creativecommons.org/ns#ShareAlike" />
      </cc:License>
    </rdf:RDF>
  </metadata>
  <defs
     id="defs619">
    <style
       id="style617">.cls-1{fill:#b9b9b9;}.cls-2,.cls-3,.cls-4{fill:none;stroke-linejoin:round;}.cls-2,.cls-4{stroke:#545454;}.cls-2{stroke-width:2px;}.cls-3{stroke:#1a81c4;}.cls-3,.cls-4{stroke-linecap:round;}.cls-5{fill:#fff;}.cls-6{fill:#bf2641;}</style>
  </defs>
  <title
     id="title621">bus_definition_tool</title>
  <line
     class="cls-2"
     x1="4.5"
     y1="0"
     x2="4.5"
     y2="21"
     id="line625"
     style="stroke-width:3;stroke-miterlimit:4;stroke-dasharray:none" />
  <line
     class="cls-4"
     x1="17.5"
     y1="2"
     x2="11"
     y2="2"
     id="line631"
     style="stroke-width:2;stroke-miterlimit:4;stroke-dasharray:none" />
  <circle
     class="cls-5"
     cx="16.8974"
     cy="17.1164"
     r="3.4667001"
     id="circle635" />
  <path
     class="cls-6"
     d="m 23.7087,18.5535 -1.2674,-0.907 -0.015,0.0269 a 5.1976,5.1976 0 0 0 0.0693,-0.6877 5.203,5.203 0 0 0 -0.0738,-0.7314 l 0.0074,0.0127 1.2576,-0.92 a 0.67,0.67 0 0 0 0.1848,-0.8745 l -1.1327,-1.9683 a 0.67,0.67 0 0 0 -0.8489,-0.28 l -1.4277,0.6248 0.0124,0.0215 a 5.2207,5.2207 0 0 0 -1.2774,-0.757 L 19.0279,10.5749 A 0.67,0.67 0 0 0 18.3623,9.9785 h -2.271 a 0.67,0.67 0 0 0 -0.6658,0.5964 l -0.17,1.5453 a 5.2192,5.2192 0 0 0 -1.3211,0.8044 l 0.018,-0.0322 -1.4342,-0.61 a 0.67,0.67 0 0 0 -0.846,0.2886 l -1.1118,1.98 a 0.67,0.67 0 0 0 0.1943,0.8725 l 1.2674,0.907 0.0276,-0.0492 a 5.2141,5.2141 0 0 0 -0.0709,0.7037 5.21,5.21 0 0 0 0.0767,0.7616 l -0.021,-0.0367 -1.2576,0.9205 a 0.67,0.67 0 0 0 -0.1851,0.8744 l 1.1327,1.9684 a 0.67,0.67 0 0 0 0.8489,0.2795 l 1.4279,-0.6249 -0.0293,-0.0507 a 5.22,5.22 0 0 0 1.2933,0.7762 l 0.17,1.5487 a 0.67,0.67 0 0 0 0.6656,0.5964 h 2.271 a 0.67,0.67 0 0 0 0.6656,-0.5964 l 0.1705,-1.5484 a 5.2191,5.2191 0 0 0 1.318,-0.7963 l -0.0154,0.0271 1.4344,0.61 a 0.67,0.67 0 0 0 0.8459,-0.2885 l 1.1117,-1.98 a 0.67,0.67 0 0 0 -0.1939,-0.8724 z m -6.4714,0.9334 a 2.5012,2.5012 0 1 1 2.5012,-2.5012 2.5013,2.5013 0 0 1 -2.5012,2.5012 z"
     id="path637" />
  <path
     style="fill:none;stroke:#1a81c4;stroke-width:2;stroke-linecap:round;stroke-linejoin:miter;stroke-miterlimit:4;stroke-dasharray:none;stroke-opacity:1"
     d="M 11,1.9999999 4.4999999,8.4999998"
     id="path241457"
     sodipodi:nodetypes="cc" />
  <line
     class="cls-4"
     x1="17.5"
     y1="8"
     x2="11"
     y2="8"
     id="line631-7"
     style="fill:none;stroke:#545454;stroke-width:2;stroke-linecap:round;stroke-linejoin:round;stroke-miterlimit:4;stroke-dasharray:none" />
  <path
     style="fill:none;stroke:#1a81c4;stroke-width:2;stroke-linecap:round;stroke-linejoin:miter;stroke-miterlimit:4;stroke-dasharray:none;stroke-opacity:1"
     d="M 11,8 4.5,14.5"
     id="path241457-8"
     sodipodi:nodetypes="cc" />
</svg>
