<?xml version="1.0" encoding="UTF-8" standalone="no"?>
<svg
   xmlns:dc="http://purl.org/dc/elements/1.1/"
   xmlns:cc="http://creativecommons.org/ns#"
   xmlns:rdf="http://www.w3.org/1999/02/22-rdf-syntax-ns#"
   xmlns:svg="http://www.w3.org/2000/svg"
   xmlns="http://www.w3.org/2000/svg"
   xmlns:sodipodi="http://sodipodi.sourceforge.net/DTD/sodipodi-0.dtd"
   xmlns:inkscape="http://www.inkscape.org/namespaces/inkscape"
   id="Слой_1"
   data-name="Слой 1"
   viewBox="0 0 24 24"
   version="1.1"
   sodipodi:docname="edit_comp_value.svg"
   inkscape:version="1.0.1 (c497b03c, 2020-09-10)">
  <sodipodi:namedview
     pagecolor="#ffffff"
     bordercolor="#666666"
     borderopacity="1"
     objecttolerance="10"
     gridtolerance="10"
     guidetolerance="10"
     inkscape:pageopacity="0"
     inkscape:pageshadow="2"
     inkscape:window-width="1280"
     inkscape:window-height="715"
     id="namedview26"
     showgrid="true"
     inkscape:zoom="30.200144"
     inkscape:cx="22.259274"
     inkscape:cy="12.877816"
     inkscape:window-x="0"
     inkscape:window-y="23"
     inkscape:window-maximized="0"
     inkscape:current-layer="g893"
     inkscape:document-rotation="0">
    <inkscape:grid
       type="xygrid"
       id="grid851"
       spacingx="0.5"
       spacingy="0.5"
       color="#9595ff"
       opacity="0.1254902"
       empspacing="2" />
  </sodipodi:namedview>
  <metadata
     id="metadata43">
    <rdf:RDF>
      <cc:Work
         rdf:about="">
        <cc:license
           rdf:resource="http://creativecommons.org/licenses/by-sa/4.0/" />
        <dc:format>image/svg+xml</dc:format>
        <dc:type
           rdf:resource="http://purl.org/dc/dcmitype/StillImage" />
        <dc:title>add_arc</dc:title>
      </cc:Work>
      <cc:License
         rdf:about="http://creativecommons.org/licenses/by-sa/4.0/">
        <cc:permits
           rdf:resource="http://creativecommons.org/ns#Reproduction" />
        <cc:permits
           rdf:resource="http://creativecommons.org/ns#Distribution" />
        <cc:requires
           rdf:resource="http://creativecommons.org/ns#Notice" />
        <cc:requires
           rdf:resource="http://creativecommons.org/ns#Attribution" />
        <cc:permits
           rdf:resource="http://creativecommons.org/ns#DerivativeWorks" />
        <cc:requires
           rdf:resource="http://creativecommons.org/ns#ShareAlike" />
      </cc:License>
    </rdf:RDF>
  </metadata>
  <defs
     id="defs5">
    <style
       id="style3">.cls-1{fill:#b9b9b9;}.cls-2{fill:#545454;}.cls-3{fill:#1a81c4;}.cls-4{fill:#fff;}</style>
  </defs>
  <title
     id="title7">edit_comp_value</title>
  <g
     id="g893"
     transform="translate(1.614474,5.118756)">
    <polygon
       class="cls-1"
       points="5,2 5,24 21.654,13 "
       id="polygon27928"
       transform="matrix(0.99890119,0,0,1,-2.6122763,-6.1182919)"
       style="fill:none;fill-opacity:1;stroke:#545454;stroke-width:2.00110000000000010px;stroke-linecap:round;stroke-linejoin:round" />
    <line
       class="cls-1"
       x1="19.018129"
       y1="6.8817091"
       x2="21.385527"
       y2="6.8817091"
       id="line27930"
       style="fill:none;stroke:#545454;stroke-width:2px;stroke-linecap:round;stroke-linejoin:round" />
    <line
       class="cls-1"
       x1="2.3043151"
       y1="0.88170809"
       x2="-0.614474"
       y2="0.88170809"
       id="line27932"
       style="fill:none;stroke:#545454;stroke-width:2px;stroke-linecap:round;stroke-linejoin:round" />
    <line
       class="cls-1"
       x1="2.2867343"
       y1="12.881707"
       x2="-0.614474"
       y2="12.881707"
       id="line27934"
       style="fill:none;stroke:#545454;stroke-width:2px;stroke-linecap:round;stroke-linejoin:round" />
    <path
       id="line27936"
       style="fill:none;stroke:#545454;stroke-width:1.5;stroke-linecap:square;stroke-linejoin:round;stroke-miterlimit:4;stroke-dasharray:none"
       d="M 5.3789332,3.3817081 H 8.3756368"
       class="cls-1"
       sodipodi:nodetypes="cc" />
    <path
       style="fill:none;stroke:#545454;stroke-width:1.5;stroke-linecap:butt;stroke-linejoin:miter;stroke-miterlimit:4;stroke-dasharray:none;stroke-opacity:1"
       d="M 6.877285,6.8817082 V 11.881708"
       id="path17250"
       sodipodi:nodetypes="cc" />
    <path
       style="fill:none;stroke:#545454;stroke-width:1.5;stroke-linecap:butt;stroke-linejoin:miter;stroke-miterlimit:4;stroke-dasharray:none;stroke-opacity:1"
       d="m 4.3807133,9.3459452 4.9938248,0.03576"
       id="path17252"
       sodipodi:nodetypes="cc" />
  </g>
  <rect
     class="cls-3"
     x="7"
     y="15"
     width="17"
     height="9"
     id="rect17"
     style="stroke-width:0.999998" />
  <path
     class="cls-4"
     d="M 11.869186,22.003437 H 10.884077 V 17.024346 H 9.6842728 v -0.727288 l 2.1849132,-0.210381 z"
     id="path19"
     sodipodi:nodetypes="ccccccc"
     style="stroke-width:0.999999" />
  <path
     class="cls-4"
     d="M 17.623847,22.003437 H 13.70392 v -0.682056 l 1.921938,-2.097921 c 0.247638,-0.256857 0.46511,-0.541173 0.648184,-0.847415 0.112955,-0.197675 0.174445,-0.243232 0.178824,-0.47086 0.0079,-0.243198 -0.07452,-0.451067 -0.231419,-0.637055 C 16.064999,17.088271 15.835082,16.989558 15.59693,17 c -0.287756,-0.0232 -0.570678,0.08431 -0.770416,0.292745 -0.178429,0.228813 -0.267526,0.307755 -0.250669,0.597424 h -0.953342 l -0.0082,-0.02472 C 13.589233,17.370286 13.776451,16.88792 14.128996,16.539312 14.523355,16.165377 15.054283,15.970317 15.59693,16 c 0.493247,-0.02687 0.977069,0.142642 1.345703,0.471464 0.332849,0.321357 0.512943,0.769354 0.495132,1.231676 -0.0016,0.344556 -0.101014,0.681573 -0.286644,0.971856 -0.261845,0.400236 -0.558135,0.776845 -0.885494,1.125539 l -0.876917,1.118254 0.01126,0.02472 h 2.223671 z"
     id="path21"
     sodipodi:nodetypes="cccccccccccccccccccccc"
     style="stroke-width:0.999999" />
  <path
     class="cls-4"
     d="m 19.147849,18.5 h 0.685211 c 0.253367,0.02371 0.504628,-0.06319 0.689209,-0.238362 0.151399,-0.190439 0.226406,-0.332358 0.210381,-0.575118 0.01514,-0.241585 -0.06654,-0.284024 -0.227001,-0.465262 -0.181189,-0.166646 -0.423173,-0.251038 -0.668697,-0.233208 -0.239434,-0.01031 -0.473691,0.07168 -0.654391,0.229105 -0.169582,0.154015 -0.262447,0.17986 -0.253719,0.408776 h -0.948609 l -0.0082,-0.02472 c -0.02224,-0.438543 0.164932,-0.861624 0.504389,-1.140161 0.376371,-0.31577 0.856776,-0.480193 1.347702,-0.461261 0.497669,-0.02555 0.987653,0.130721 1.378627,0.439697 0.353151,0.31516 0.542752,0.774537 0.514698,1.247034 -0.0028,0.261368 -0.08336,0.515982 -0.231419,0.73139 -0.161547,0.242376 -0.389402,0.433169 -0.656389,0.549621 0.300672,0.09324 0.561198,0.284993 0.739594,0.544361 0.159491,0.248242 0.242053,0.538086 0.23731,0.83311 0.02307,0.489517 -0.183001,0.961887 -0.55751,1.27796 -0.830813,0.609761 -1.958085,0.621317 -2.801225,0.02872 -0.369461,-0.287934 -0.569745,-0.742077 -0.533211,-1.20906 l 0.0082,-0.02462 h 0.94924 c -0.0095,0.239891 0.08667,0.471882 0.262976,0.634825 0.193611,0.168791 0.445074,0.256031 0.701621,0.243411 0.263403,0.01441 0.522055,-0.07437 0.721082,-0.247513 0.184039,-0.18552 0.280103,-0.440797 0.264028,-0.701621 0.0225,-0.268093 -0.06482,-0.380406 -0.241938,-0.582909 -0.208246,-0.174572 -0.476998,-0.259859 -0.7478,-0.23731 h -0.684159 z"
     id="path23"
     sodipodi:nodetypes="ccccccccccccccccccccccccccccccc"
     style="stroke-width:0.999999" />
</svg>
