<?xml version="1.0" encoding="UTF-8" standalone="no"?>
<svg xmlns:dc="http://purl.org/dc/elements/1.1/"
   xmlns:cc="http://creativecommons.org/ns#"
   xmlns:rdf="http://www.w3.org/1999/02/22-rdf-syntax-ns#"
   xmlns:svg="http://www.w3.org/2000/svg"
   xmlns="http://www.w3.org/2000/svg"
   xmlns:sodipodi="http://sodipodi.sourceforge.net/DTD/sodipodi-0.dtd"
   xmlns:inkscape="http://www.inkscape.org/namespaces/inkscape" id="Слой_1" data-name="Слой 1" viewBox="0 0 24 24" version="1.1" sodipodi:docname="export_module копия.svg" inkscape:version="1.0.1 (3bc2e813f5, 2020-09-07)">
   <sodipodi:namedview pagecolor="#ffffff" bordercolor="#666666" borderopacity="1" objecttolerance="10" gridtolerance="10" guidetolerance="10" inkscape:pageopacity="0" inkscape:pageshadow="2" inkscape:window-width="1609" inkscape:window-height="1286" id="namedview30" showgrid="true" inkscape:zoom="27.961538" inkscape:cx="3.3259971" inkscape:cy="13" inkscape:window-x="0" inkscape:window-y="37" inkscape:window-maximized="0" inkscape:document-rotation="0" inkscape:current-layer="Слой_1">
      <inkscape:grid type="xygrid" id="grid_kicad" spacingx="0.5" spacingy="0.5" color="#9999ff" opacity="0.13" empspacing="2" />
   </sodipodi:namedview>
   <metadata id="metadata43">
      <rdf:RDF>
         <cc:Work rdf:about="">
            <cc:license rdf:resource="http://creativecommons.org/licenses/by-sa/4.0/" />
            <dc:format>image/svg+xml</dc:format>
            <dc:type rdf:resource="http://purl.org/dc/dcmitype/StillImage" />
            <dc:title>add_arc</dc:title>
         </cc:Work>
         <cc:License rdf:about="http://creativecommons.org/licenses/by-sa/4.0/">
            <cc:permits rdf:resource="http://creativecommons.org/ns#Reproduction" />
            <cc:permits rdf:resource="http://creativecommons.org/ns#Distribution" />
            <cc:requires rdf:resource="http://creativecommons.org/ns#Notice" />
            <cc:requires rdf:resource="http://creativecommons.org/ns#Attribution" />
            <cc:permits rdf:resource="http://creativecommons.org/ns#DerivativeWorks" />
            <cc:requires rdf:resource="http://creativecommons.org/ns#ShareAlike" />
         </cc:License>
      </rdf:RDF>
   </metadata>
   <defs id="defs117051">
      <style id="style117049">.cls-1{fill:#b9b9b9;}.cls-2,.cls-3,.cls-5{fill:none;}.cls-2{stroke:#545454;stroke-miterlimit:10;}.cls-3{stroke:#1a81c4;stroke-width:0.9549px;}.cls-3,.cls-5{stroke-linecap:round;stroke-linejoin:round;}.cls-4{fill:#bf2641;}.cls-5{stroke:#f5f5f5;stroke-width:2px;}</style>
   </defs>
   <title id="title117053">export_module копия</title>
   <rect class="cls-1" x="0" y="0" width="20.9958" height="20.9958" rx="3.4993" id="rect117055" />
   <path class="cls-2" d="m 4.6642,4.91 h 8.2239 a 2.1,2.1 0 0 1 2.1,2.1 v 0.2816 a 2.1,2.1 0 0 1 -2.1,2.1 H 7.0457 a 2.1,2.1 0 0 0 -2.1,2.1 v 0 a 2.1,2.1 0 0 0 2.1,2.1 h 1.138" id="path117057" />
   <path class="cls-3" d="m 4.3357,5.66 a 1.2747,1.2747 0 1 1 0,-1.8027 1.2747,1.2747 0 0 1 0,1.8027 z" id="path117059" />
   <circle class="cls-3" cx="9.3835001" cy="13.5158" r="1.2747" id="circle117061" />
   <path class="cls-4" d="m 23.88,16.9978 a 7.0066,7.0066 0 1 1 -7.0066,-7 7.0033,7.0033 0 0 1 7.0066,7 z" id="path117063" />
   <line class="cls-5" x1="16.977301" y1="13.629" x2="16.977301" y2="20.629" id="line117065" />
   <polyline class="cls-5" points="15.222 17.162 17.977 14.41 20.732 17.162" id="polyline117067" transform="translate(-1,-1)" />
</svg>
