<?xml version="1.0" encoding="UTF-8" standalone="no"?>
<svg
   xmlns:dc="http://purl.org/dc/elements/1.1/"
   xmlns:cc="http://creativecommons.org/ns#"
   xmlns:rdf="http://www.w3.org/1999/02/22-rdf-syntax-ns#"
   xmlns:svg="http://www.w3.org/2000/svg"
   xmlns="http://www.w3.org/2000/svg"
   xmlns:sodipodi="http://sodipodi.sourceforge.net/DTD/sodipodi-0.dtd"
   xmlns:inkscape="http://www.inkscape.org/namespaces/inkscape"
   id="Слой_1"
   data-name="Слой 1"
   viewBox="0 0 24 24"
   version="1.1"
   sodipodi:docname="general_ratsnest.svg"
   inkscape:version="1.0.1 (c497b03c, 2020-09-10)">
  <sodipodi:namedview
     pagecolor="#ffffff"
     bordercolor="#666666"
     borderopacity="1"
     objecttolerance="10"
     gridtolerance="10"
     guidetolerance="10"
     inkscape:pageopacity="0"
     inkscape:pageshadow="2"
     inkscape:window-width="1280"
     inkscape:window-height="715"
     id="namedview30"
     showgrid="true"
     inkscape:zoom="26.841039"
     inkscape:cx="13.700078"
     inkscape:cy="14.290971"
     inkscape:window-x="0"
     inkscape:window-y="23"
     inkscape:window-maximized="0"
     inkscape:document-rotation="0"
     inkscape:current-layer="Слой_1">
    <inkscape:grid
       type="xygrid"
       id="grid_kicad"
       spacingx="0.5"
       spacingy="0.5"
       color="#9999ff"
       opacity="0.13"
       empspacing="2" />
  </sodipodi:namedview>
  <metadata
     id="metadata43">
    <rdf:RDF>
      <cc:Work
         rdf:about="">
        <cc:license
           rdf:resource="http://creativecommons.org/licenses/by-sa/4.0/" />
        <dc:format>image/svg+xml</dc:format>
        <dc:type
           rdf:resource="http://purl.org/dc/dcmitype/StillImage" />
        <dc:title>add_arc</dc:title>
      </cc:Work>
      <cc:License
         rdf:about="http://creativecommons.org/licenses/by-sa/4.0/">
        <cc:permits
           rdf:resource="http://creativecommons.org/ns#Reproduction" />
        <cc:permits
           rdf:resource="http://creativecommons.org/ns#Distribution" />
        <cc:requires
           rdf:resource="http://creativecommons.org/ns#Notice" />
        <cc:requires
           rdf:resource="http://creativecommons.org/ns#Attribution" />
        <cc:permits
           rdf:resource="http://creativecommons.org/ns#DerivativeWorks" />
        <cc:requires
           rdf:resource="http://creativecommons.org/ns#ShareAlike" />
      </cc:License>
    </rdf:RDF>
  </metadata>
  <defs
     id="defs24975">
    <style
       id="style24973">.cls-1{fill:#b9b9b9;}.cls-2{fill:#545454;}.cls-3{fill:#1a81c4;}</style>
  </defs>
  <title
     id="title24977">general_deletions_1</title>
  <path
     class="cls-2"
     d="M 4.7156,6.2551 A 0.5,0.5 0 0 1 5.0689,5.3413 L 24,8.5251 24.0018,9.537 A 0.4835,0.4835 0 0 1 23.9436,9.5307 L 4.9023,6.3274 A 0.4993,0.4993 0 0 1 4.7156,6.2551 Z"
     id="path24981" />
  <path
     class="cls-2"
     d="M 17.3877,7.3205 17.3849,7.3223 5.4944,18.7405 A 0.5055,0.5055 0 0 0 5.4711,19.4472 0.5,0.5 0 0 0 6.178,19.4706 L 17.948,8.1652 Z"
     id="path24983" />
  <path
     class="cls-2"
     d="M 18.88,17.38 5.01,5.698 4.6842,6.7212 l 13.5254,11.4 A 0.4935,0.4935 0 0 0 18.3934,18.2268 0.5,0.5 0 0 0 18.88,17.38 Z"
     id="path24985" />
  <path
     class="cls-3"
     d="M 7.379,5.8873 A 2.8088,2.8088 0 1 1 4.57,3.0785 2.8087,2.8087 0 0 1 7.379,5.8873 Z"
     id="path24987"
     style="fill:#545454;fill-opacity:1" />
  <circle
     class="cls-1"
     cx="4.5702"
     cy="5.8873"
     r="2"
     id="circle24989"
     style="fill:#ffffff;fill-opacity:1" />
  <path
     class="cls-3"
     d="M 20.366,7.4359 A 2.8088,2.8088 0 1 1 17.5571,4.6271 2.8088,2.8088 0 0 1 20.366,7.4359 Z"
     id="path24991"
     style="fill:#545454;fill-opacity:1" />
  <circle
     class="cls-1"
     cx="17.5571"
     cy="7.4358997"
     r="2"
     id="circle24993"
     style="fill:#ffffff;fill-opacity:1" />
  <path
     class="cls-3"
     d="M 21.5626,17.8184 A 2.8088,2.8088 0 1 1 18.7538,15.01 2.8087,2.8087 0 0 1 21.5626,17.8184 Z"
     id="path24995"
     style="fill:#545454;fill-opacity:1" />
  <circle
     class="cls-1"
     cx="18.753799"
     cy="17.818399"
     r="2"
     id="circle24997"
     style="fill:#ffffff;fill-opacity:1" />
  <path
     class="cls-3"
     d="M 8.6108,19.2966 A 2.8088,2.8088 0 1 1 5.802,16.4878 2.8087,2.8087 0 0 1 8.6108,19.2966 Z"
     id="path24999"
     style="fill:#545454;fill-opacity:1" />
  <circle
     class="cls-1"
     cx="5.802"
     cy="19.2966"
     r="2"
     id="circle25001"
     style="fill:#ffffff;fill-opacity:1" />
</svg>
