<?xml version="1.0" encoding="UTF-8" standalone="no"?>
<svg
   xmlns:dc="http://purl.org/dc/elements/1.1/"
   xmlns:cc="http://creativecommons.org/ns#"
   xmlns:rdf="http://www.w3.org/1999/02/22-rdf-syntax-ns#"
   xmlns:svg="http://www.w3.org/2000/svg"
   xmlns="http://www.w3.org/2000/svg"
   xmlns:sodipodi="http://sodipodi.sourceforge.net/DTD/sodipodi-0.dtd"
   xmlns:inkscape="http://www.inkscape.org/namespaces/inkscape"
   id="Слой_1"
   data-name="Слой 1"
   viewBox="0 0 24 24"
   version="1.1"
   sodipodi:docname="help.svg"
   inkscape:version="1.0.1 (c497b03c, 2020-09-10)">
  <sodipodi:namedview
     pagecolor="#ffffff"
     bordercolor="#666666"
     borderopacity="1"
     objecttolerance="10"
     gridtolerance="10"
     guidetolerance="10"
     inkscape:pageopacity="0"
     inkscape:pageshadow="2"
     inkscape:window-width="1280"
     inkscape:window-height="715"
     id="namedview30"
     showgrid="true"
     inkscape:zoom="18.088405"
     inkscape:cx="11.919953"
     inkscape:cy="11.864085"
     inkscape:window-x="0"
     inkscape:window-y="23"
     inkscape:window-maximized="0"
     inkscape:document-rotation="0"
     inkscape:current-layer="Слой_1">
    <inkscape:grid
       type="xygrid"
       id="grid_kicad"
       spacingx="0.5"
       spacingy="0.5"
       color="#9999ff"
       opacity="0.13"
       empspacing="2" />
  </sodipodi:namedview>
  <metadata
     id="metadata43">
    <rdf:RDF>
      <cc:Work
         rdf:about="">
        <cc:license
           rdf:resource="http://creativecommons.org/licenses/by-sa/4.0/" />
        <dc:format>image/svg+xml</dc:format>
        <dc:type
           rdf:resource="http://purl.org/dc/dcmitype/StillImage" />
        <dc:title>add_arc</dc:title>
      </cc:Work>
      <cc:License
         rdf:about="http://creativecommons.org/licenses/by-sa/4.0/">
        <cc:permits
           rdf:resource="http://creativecommons.org/ns#Reproduction" />
        <cc:permits
           rdf:resource="http://creativecommons.org/ns#Distribution" />
        <cc:requires
           rdf:resource="http://creativecommons.org/ns#Notice" />
        <cc:requires
           rdf:resource="http://creativecommons.org/ns#Attribution" />
        <cc:permits
           rdf:resource="http://creativecommons.org/ns#DerivativeWorks" />
        <cc:requires
           rdf:resource="http://creativecommons.org/ns#ShareAlike" />
      </cc:License>
    </rdf:RDF>
  </metadata>
  <defs
     id="defs25179">
    <style
       id="style25177">.cls-1{fill:#b9b9b9;}.cls-2{fill:#1a81c4;}.cls-3{fill:#bf2641;}.cls-4{fill:#fff;}.cls-5{fill:#545454;}</style>
  </defs>
  <title
     id="title25181">help</title>
  <g
     id="g847"
     transform="matrix(1.5699707,0,0,1.5699707,-14.689507,-14.699705)"
     style="stroke-width:0.636954">
    <path
       class="cls-3"
       d="M 24.0065,17 A 7.0065,7.0065 0 1 1 17,10 a 7.0032,7.0032 0 0 1 7.0065,7 z"
       id="path25187"
       style="stroke-width:0.636954" />
    <path
       class="cls-4"
       d="m 15.9332,19.1182 a 3.4488,3.4488 0 0 1 0.2364,-1.4659 4.2208,4.2208 0 0 1 1.0156,-1.1084 6.5544,6.5544 0 0 0 0.8867,-1.0429 1.96,1.96 0 0 0 0.3291,-1.101 1.4789,1.4789 0 0 0 -0.376,-1.0791 1.427,1.427 0 0 0 -1.0693,-0.3838 1.5777,1.5777 0 0 0 -1.0078,0.3262 1.1511,1.1511 0 0 0 -0.415,0.9648 H 13.859 l -0.0215,-0.043 a 2.37,2.37 0 0 1 0.8545,-1.99 3.4705,3.4705 0 0 1 2.2637,-0.7129 3.346,3.346 0 0 1 2.3428,0.7666 2.7414,2.7414 0 0 1 0.84,2.13 2.9558,2.9558 0 0 1 -0.5254,1.6885 6.51,6.51 0 0 1 -1.3273,1.4227 1.6386,1.6386 0 0 0 -0.5108,0.6817 3.2688,3.2688 0 0 0 -0.1035,0.9463 z M 17.7,22.0723 H 15.9264 V 20.4014 H 17.7 Z"
       id="path25189"
       style="stroke-width:0.636954" />
  </g>
</svg>
