<?xml version="1.0" encoding="UTF-8" standalone="no"?>
<svg
   xmlns:dc="http://purl.org/dc/elements/1.1/"
   xmlns:cc="http://creativecommons.org/ns#"
   xmlns:rdf="http://www.w3.org/1999/02/22-rdf-syntax-ns#"
   xmlns:svg="http://www.w3.org/2000/svg"
   xmlns="http://www.w3.org/2000/svg"
   xmlns:sodipodi="http://sodipodi.sourceforge.net/DTD/sodipodi-0.dtd"
   xmlns:inkscape="http://www.inkscape.org/namespaces/inkscape"
   id="Слой_1"
   data-name="Слой 1"
   viewBox="0 0 48 48"
   version="1.1"
   sodipodi:docname="icon_pcbcalculator.svg"
   width="48"
   height="48"
   inkscape:version="1.0.1 (c497b03c, 2020-09-10)">
  <sodipodi:namedview
     pagecolor="#ffffff"
     bordercolor="#666666"
     borderopacity="1"
     objecttolerance="10"
     gridtolerance="10"
     guidetolerance="10"
     inkscape:pageopacity="0"
     inkscape:pageshadow="2"
     inkscape:window-width="1280"
     inkscape:window-height="715"
     id="namedview6443"
     showgrid="true"
     inkscape:zoom="10.860336"
     inkscape:cx="20.213405"
     inkscape:cy="8.231863"
     inkscape:window-x="0"
     inkscape:window-y="23"
     inkscape:window-maximized="0"
     inkscape:current-layer="Слой_1"
     inkscape:document-rotation="0">
    <inkscape:grid
       type="xygrid"
       id="grid7006"
       spacingx="0.5"
       spacingy="0.5"
       empspacing="2"
       color="#9d9dff"
       opacity="0.1254902" />
  </sodipodi:namedview>
  <metadata
     id="metadata43">
    <rdf:RDF>
      <cc:Work
         rdf:about="">
        <cc:license
           rdf:resource="http://creativecommons.org/licenses/by-sa/4.0/" />
        <dc:format>image/svg+xml</dc:format>
        <dc:type
           rdf:resource="http://purl.org/dc/dcmitype/StillImage" />
        <dc:title>add_arc</dc:title>
      </cc:Work>
      <cc:License
         rdf:about="http://creativecommons.org/licenses/by-sa/4.0/">
        <cc:permits
           rdf:resource="http://creativecommons.org/ns#Reproduction" />
        <cc:permits
           rdf:resource="http://creativecommons.org/ns#Distribution" />
        <cc:requires
           rdf:resource="http://creativecommons.org/ns#Notice" />
        <cc:requires
           rdf:resource="http://creativecommons.org/ns#Attribution" />
        <cc:permits
           rdf:resource="http://creativecommons.org/ns#DerivativeWorks" />
        <cc:requires
           rdf:resource="http://creativecommons.org/ns#ShareAlike" />
      </cc:License>
    </rdf:RDF>
  </metadata>
  <defs
     id="defs6422">
    <style
       id="style6420">.cls-1{fill:#f29100;}.cls-2{fill:#b9b9b9;}.cls-3{fill:none;stroke:#fff;stroke-miterlimit:10;}.cls-4{fill:#545454;}</style>
  </defs>
  <title
     id="title6424">icon_pcbcalculator</title>
  <path
     class="cls-1"
     d="M 39.999998,0 H 7.9999997 A 7.9999997,7.9999997 0 0 0 0,7.9999997 V 39.999998 a 7.9999997,7.9999997 0 0 0 7.9999997,8 H 39.999998 a 7.9999997,7.9999997 0 0 0 8,-8 V 7.9999997 A 7.9999997,7.9999997 0 0 0 39.999998,0 Z"
     id="path6426"
     style="stroke-width:1" />
  <path
     class="cls-2"
     d="m 29.2346,23.990608 h -5.2088 v 0.0098 L 24,47.990607 h 15.999999 a 7.9999997,7.9967344 0 0 0 8,-7.996734 V 23.990608 Z"
     id="path6428"
     style="stroke-width:1" />
  <path
     id="line6430"
     style="fill:none;stroke:#ffffff;stroke-width:2;stroke-miterlimit:10;stroke-dasharray:none"
     d="m 24.000001,0 c 0,16 0,32.000001 0,48.000001" />
  <line
     class="cls-3"
     x1="48"
     y1="24"
     x2="0"
     y2="24"
     id="line6432"
     style="stroke-width:1.99999;stroke-miterlimit:10;stroke-dasharray:none" />
  <path
     class="cls-4"
     d="m 12.5,10.5 h 3 v 2 h -3 v 3 l -2,-0.0089 V 12.5 h -3 v -2 h 3 v -3 l 2,-0.02194 z"
     id="path6434"
     style="stroke-width:1"
     sodipodi:nodetypes="ccccccccccccc" />
  <path
     class="cls-4"
     d="m 40,12.5 h -7 v -2 h 7 z"
     id="path6440"
     style="stroke-width:1"
     sodipodi:nodetypes="ccccc" />
  <path
     class="cls-4"
     d="m 11.507757,35.082573 2.12132,-2.12132 1.414214,1.414214 -2.12132,2.12132 2.12132,2.12132 -1.420507,1.407921 -2.115027,-2.115027 -2.12132,2.12132 -1.4142139,-1.414214 2.1213199,-2.12132 -2.1213199,-2.12132 1.3986999,-1.429728 z"
     id="path7008"
     style="stroke-width:1"
     sodipodi:nodetypes="ccccccccccccc" />
  <g
     id="g7016"
     transform="translate(0,1)">
    <path
       class="cls-4"
       d="m 40,35 h -7 v -2 h 7 z"
       id="path7010"
       style="stroke-width:1"
       sodipodi:nodetypes="ccccc" />
    <path
       class="cls-4"
       d="m 40,38 h -7 v -2 h 7 z"
       id="path7012"
       style="stroke-width:1"
       sodipodi:nodetypes="ccccc" />
  </g>
</svg>
