<?xml version="1.0" encoding="UTF-8" standalone="no"?>
<svg
   xmlns:dc="http://purl.org/dc/elements/1.1/"
   xmlns:cc="http://creativecommons.org/ns#"
   xmlns:rdf="http://www.w3.org/1999/02/22-rdf-syntax-ns#"
   xmlns:svg="http://www.w3.org/2000/svg"
   xmlns="http://www.w3.org/2000/svg"
   xmlns:sodipodi="http://sodipodi.sourceforge.net/DTD/sodipodi-0.dtd"
   xmlns:inkscape="http://www.inkscape.org/namespaces/inkscape"
   id="Слой_1"
   data-name="Слой 1"
   viewBox="0 0 16 16"
   version="1.1"
   sodipodi:docname="icon_pcbcalculator_16.svg"
   width="16"
   height="16"
   inkscape:version="1.0.1 (3bc2e813f5, 2020-09-07)">
  <sodipodi:namedview
     pagecolor="#ffffff"
     bordercolor="#666666"
     borderopacity="1"
     objecttolerance="10"
     gridtolerance="10"
     guidetolerance="10"
     inkscape:pageopacity="0"
     inkscape:pageshadow="2"
     inkscape:window-width="3005"
     inkscape:window-height="1519"
     id="namedview6443"
     showgrid="true"
     inkscape:zoom="64.000003"
     inkscape:cx="12.361108"
     inkscape:cy="9.6317035"
     inkscape:window-x="0"
     inkscape:window-y="37"
     inkscape:window-maximized="0"
     inkscape:current-layer="Слой_1"
     inkscape:document-rotation="0">
    <inkscape:grid
       type="xygrid"
       id="grid7006"
       spacingx="0.5"
       spacingy="0.5"
       empspacing="2"
       color="#9d9dff"
       opacity="0.1254902" />
  </sodipodi:namedview>
  <metadata
     id="metadata43">
    <rdf:RDF>
      <cc:Work
         rdf:about="">
        <cc:license
           rdf:resource="http://creativecommons.org/licenses/by-sa/4.0/" />
        <dc:format>image/svg+xml</dc:format>
        <dc:type
           rdf:resource="http://purl.org/dc/dcmitype/StillImage" />
        <dc:title>icon_pcbcalculator</dc:title>
      </cc:Work>
      <cc:License
         rdf:about="http://creativecommons.org/licenses/by-sa/4.0/">
        <cc:permits
           rdf:resource="http://creativecommons.org/ns#Reproduction" />
        <cc:permits
           rdf:resource="http://creativecommons.org/ns#Distribution" />
        <cc:requires
           rdf:resource="http://creativecommons.org/ns#Notice" />
        <cc:requires
           rdf:resource="http://creativecommons.org/ns#Attribution" />
        <cc:permits
           rdf:resource="http://creativecommons.org/ns#DerivativeWorks" />
        <cc:requires
           rdf:resource="http://creativecommons.org/ns#ShareAlike" />
      </cc:License>
    </rdf:RDF>
  </metadata>
  <defs
     id="defs6422">
    <style
       id="style6420">.cls-1{fill:#f29100;}.cls-2{fill:#b9b9b9;}.cls-3{fill:none;stroke:#fff;stroke-miterlimit:10;}.cls-4{fill:#545454;}</style>
  </defs>
  <title
     id="title6424">icon_pcbcalculator</title>
  <path
     class="cls-1"
     d="M 13.333334,0 H 2.6666666 A 2.6666666,2.6666666 0 0 0 0,2.6666666 V 13.333334 A 2.6666666,2.6666666 0 0 0 2.6666666,16 H 13.333334 A 2.6666666,2.6666666 0 0 0 16,13.333334 V 2.6666666 A 2.6666666,2.6666666 0 0 0 13.333334,0 Z"
     id="path6426"
     style="stroke-width:0.5" />
  <path
     class="cls-2"
     d="M 9.7448665,7.9967335 H 8.0086 v 0.00325 L 8,15.999984 h 5.333334 A 2.6666666,2.6666666 0 0 0 16,13.333317 v -5.3366 z"
     id="path6428"
     style="stroke-width:0.5" />
  <path
     id="line6430"
     style="fill:none;stroke:#ffffff;stroke-width:1;stroke-miterlimit:10;stroke-dasharray:none"
     d="m 8.5,0 c 0,5.3330445 0,10.666089 0,15.999133" />
  <line
     class="cls-3"
     x1="16"
     y1="7.5"
     x2="0.00093115005"
     y2="7.5"
     id="line6432"
     style="stroke-width:1;stroke-miterlimit:10;stroke-dasharray:none" />
  <path
     class="cls-4"
     d="M 15,5 H 10 V 3 h 5 z"
     id="path6440"
     style="stroke-width:0.645497"
     sodipodi:nodetypes="ccccc" />
  <g
     id="g7016"
     transform="matrix(0.34782608,0,0,0.34782608,-0.69565215,-0.34782608)"
     style="stroke-width:1.4375">
    <path
       class="cls-4"
       d="M 45.124998,32.625001 H 30.750001 v -5.75 h 14.374997 z"
       id="path7010"
       style="stroke-width:1.60718"
       sodipodi:nodetypes="ccccc" />
    <path
       class="cls-4"
       d="M 45.125001,41.250001 H 30.750003 v -5.75 h 14.374998 z"
       id="path7012"
       style="stroke-width:1.60717"
       sodipodi:nodetypes="ccccc" />
  </g>
  <g
     id="g2773"
     transform="matrix(0.5,0,0,0.5,0,-0.5)">
    <path
       class="cls-4"
       d="M 14,11 H 2.0723592 V 7 H 14 Z"
       id="path2767"
       style="stroke-width:1.22104"
       sodipodi:nodetypes="ccccc" />
    <path
       class="cls-4"
       d="m 10,5 v 8 H 6 V 5 Z"
       id="path2769"
       style="stroke-width:1"
       sodipodi:nodetypes="ccccc" />
  </g>
  <path
     style="fill:none;stroke:#545454;stroke-width:1;stroke-linecap:butt;stroke-linejoin:miter;stroke-opacity:1;stroke-miterlimit:4;stroke-dasharray:none"
     d="m 4,11.5 c 1,0 1,0 1,0"
     id="path2799" />
  <path
     style="fill:none;stroke:#545454;stroke-width:1;stroke-linecap:butt;stroke-linejoin:miter;stroke-miterlimit:4;stroke-dasharray:none;stroke-opacity:1"
     d="m 3,11.5 c 1,0 1,0 1,0"
     id="path2801" />
  <path
     style="fill:none;stroke:#545454;stroke-width:1;stroke-linecap:butt;stroke-linejoin:miter;stroke-miterlimit:4;stroke-dasharray:none;stroke-opacity:1"
     d="m 3,12.5 c 1,0 1,0 1,0"
     id="path2803" />
  <path
     style="fill:none;stroke:#545454;stroke-width:1;stroke-linecap:butt;stroke-linejoin:miter;stroke-miterlimit:4;stroke-dasharray:none;stroke-opacity:1"
     d="m 2,13.5 c 1,0 1,0 1,0"
     id="path2805" />
  <path
     style="fill:none;stroke:#545454;stroke-width:1;stroke-linecap:butt;stroke-linejoin:miter;stroke-miterlimit:4;stroke-dasharray:none;stroke-opacity:1"
     d="m 4,12.5 c 1,0 1,0 1,0"
     id="path2807" />
  <path
     style="fill:none;stroke:#545454;stroke-width:1;stroke-linecap:butt;stroke-linejoin:miter;stroke-miterlimit:4;stroke-dasharray:none;stroke-opacity:1"
     d="m 2,10.5 c 1,0 1,0 1,0"
     id="path848" />
  <path
     style="fill:none;stroke:#545454;stroke-width:1;stroke-linecap:butt;stroke-linejoin:miter;stroke-miterlimit:4;stroke-dasharray:none;stroke-opacity:1"
     d="m 5,10.5 c 1,0 1,0 1,0"
     id="path850" />
  <path
     style="fill:none;stroke:#545454;stroke-width:1;stroke-linecap:butt;stroke-linejoin:miter;stroke-miterlimit:4;stroke-dasharray:none;stroke-opacity:1"
     d="m 5,13.5 c 1,0 1,0 1,0"
     id="path852" />
  <path
     style="fill:none;stroke:#545454;stroke-width:1;stroke-linecap:butt;stroke-linejoin:miter;stroke-miterlimit:4;stroke-dasharray:none;stroke-opacity:1"
     d="m 5,13.5 c 1,0 1,0 1,0"
     id="path854" />
  <path
     style="fill:none;stroke:#545454;stroke-width:1;stroke-linecap:butt;stroke-linejoin:miter;stroke-miterlimit:4;stroke-dasharray:none;stroke-opacity:1"
     d="m 5,9.5 c 1,0 1,0 1,0"
     id="path858" />
  <path
     style="fill:none;stroke:#545454;stroke-width:1;stroke-linecap:butt;stroke-linejoin:miter;stroke-miterlimit:4;stroke-dasharray:none;stroke-opacity:1"
     d="m 6,10.5 c 1,0 1,0 1,0"
     id="path860" />
  <path
     style="fill:none;stroke:#545454;stroke-width:1;stroke-linecap:butt;stroke-linejoin:miter;stroke-miterlimit:4;stroke-dasharray:none;stroke-opacity:1"
     d="m 6,13.5 c 1,0 1,0 1,0"
     id="path862" />
  <path
     style="fill:none;stroke:#545454;stroke-width:1;stroke-linecap:butt;stroke-linejoin:miter;stroke-miterlimit:4;stroke-dasharray:none;stroke-opacity:1"
     d="m 5,14.5 c 1,0 1,0 1,0"
     id="path864" />
  <path
     style="fill:none;stroke:#545454;stroke-width:1;stroke-linecap:butt;stroke-linejoin:miter;stroke-miterlimit:4;stroke-dasharray:none;stroke-opacity:1"
     d="m 2,14.5 c 1,0 1,0 1,0"
     id="path866" />
  <path
     style="fill:none;stroke:#545454;stroke-width:1;stroke-linecap:butt;stroke-linejoin:miter;stroke-miterlimit:4;stroke-dasharray:none;stroke-opacity:1"
     d="m 1,13.5 c 1,0 1,0 1,0"
     id="path868" />
  <path
     style="fill:none;stroke:#545454;stroke-width:1;stroke-linecap:butt;stroke-linejoin:miter;stroke-miterlimit:4;stroke-dasharray:none;stroke-opacity:1"
     d="m 1,10.5 c 1,0 1,0 1,0"
     id="path870" />
  <path
     style="fill:none;stroke:#545454;stroke-width:1;stroke-linecap:butt;stroke-linejoin:miter;stroke-miterlimit:4;stroke-dasharray:none;stroke-opacity:1"
     d="m 2,9.5 c 1,0 1,0 1,0"
     id="path872" />
</svg>
