<?xml version="1.0" encoding="UTF-8" standalone="no"?>
<svg
   xmlns:dc="http://purl.org/dc/elements/1.1/"
   xmlns:cc="http://creativecommons.org/ns#"
   xmlns:rdf="http://www.w3.org/1999/02/22-rdf-syntax-ns#"
   xmlns:svg="http://www.w3.org/2000/svg"
   xmlns="http://www.w3.org/2000/svg"
   xmlns:sodipodi="http://sodipodi.sourceforge.net/DTD/sodipodi-0.dtd"
   xmlns:inkscape="http://www.inkscape.org/namespaces/inkscape"
   id="Слой_1"
   data-name="Слой 1"
   viewBox="0 0 24 24"
   version="1.1"
   sodipodi:docname="info.svg"
   inkscape:version="1.0.1 (3bc2e813f5, 2020-09-07)">
  <sodipodi:namedview
     pagecolor="#ffffff"
     bordercolor="#666666"
     borderopacity="1"
     objecttolerance="10"
     gridtolerance="10"
     guidetolerance="10"
     inkscape:pageopacity="0"
     inkscape:pageshadow="2"
     inkscape:window-width="1609"
     inkscape:window-height="1286"
     id="namedview30"
     showgrid="true"
     inkscape:zoom="27.961538"
     inkscape:cx="3.3259971"
     inkscape:cy="13"
     inkscape:window-x="0"
     inkscape:window-y="37"
     inkscape:window-maximized="0"
     inkscape:document-rotation="0"
     inkscape:current-layer="Слой_1">
    <inkscape:grid
       type="xygrid"
       id="grid_kicad"
       spacingx="0.5"
       spacingy="0.5"
       color="#9999ff"
       opacity="0.13"
       empspacing="2" />
  </sodipodi:namedview>
  <metadata
     id="metadata43">
    <rdf:RDF>
      <cc:Work
         rdf:about="">
        <cc:license
           rdf:resource="http://creativecommons.org/licenses/by-sa/4.0/" />
        <dc:format>image/svg+xml</dc:format>
        <dc:type
           rdf:resource="http://purl.org/dc/dcmitype/StillImage" />
        <dc:title>add_arc</dc:title>
      </cc:Work>
      <cc:License
         rdf:about="http://creativecommons.org/licenses/by-sa/4.0/">
        <cc:permits
           rdf:resource="http://creativecommons.org/ns#Reproduction" />
        <cc:permits
           rdf:resource="http://creativecommons.org/ns#Distribution" />
        <cc:requires
           rdf:resource="http://creativecommons.org/ns#Notice" />
        <cc:requires
           rdf:resource="http://creativecommons.org/ns#Attribution" />
        <cc:permits
           rdf:resource="http://creativecommons.org/ns#DerivativeWorks" />
        <cc:requires
           rdf:resource="http://creativecommons.org/ns#ShareAlike" />
      </cc:License>
    </rdf:RDF>
  </metadata>
  <defs
     id="defs25491">
    <style
       id="style25489">.cls-1{fill:#1a81c4;}.cls-2{fill:#fff;}</style>
  </defs>
  <title
     id="title25493">info</title>
  <path
     class="cls-1"
     d="M 20,0 H 4 A 4,4 0 0 0 0,4 v 16 a 4,4 0 0 0 4,4 h 16 a 4,4 0 0 0 4,-4 V 4 A 4,4 0 0 0 20,0 Z"
     id="path25495" />
  <path
     class="cls-2"
     d="m 13.6388,17.7157 c -0.6868,-0.0475 -0.8933,-0.3222 -0.86,-1.0169 a 2.597,2.597 0 0 1 0.0818,-0.55 c 0.3168,-1.1763 0.6724,-2.3429 0.958,-3.5265 0.6073,-2.5166 -1.0665,-3.2731 -2.6951,-2.8733 -0.4778,0.1173 -0.9506,0.2457 -1.43,0.3925 -0.5126,0.1567 -0.8777,0.3648 -0.8241,1.0133 a 1.3542,1.3542 0 0 0 0.1859,-0.0219 c 1.6756,-0.4476 2.1509,-0.0044 1.7336,1.6611 -0.2911,1.1616 -0.6692,2.302 -0.941,3.4675 a 2.0437,2.0437 0 0 0 2.3412,2.7264 9.9337,9.9337 0 0 0 2.0983,-0.5031 0.7257,0.7257 0 0 0 0.6044,-0.8664 8.3055,8.3055 0 0 1 -1.253,0.0973 z"
     id="path25497" />
  <path
     class="cls-2"
     d="M 13.3686,8.2288 A 1.6724,1.6724 0 0 0 15.1365,6.6248 1.7006,1.7006 0 0 0 13.373,5.0014 1.727,1.727 0 0 0 11.5607,6.649 1.7147,1.7147 0 0 0 13.3686,8.2288 Z"
     id="path25499" />
</svg>
