<?xml version="1.0" encoding="UTF-8" standalone="no"?>
<svg
   xmlns:dc="http://purl.org/dc/elements/1.1/"
   xmlns:cc="http://creativecommons.org/ns#"
   xmlns:rdf="http://www.w3.org/1999/02/22-rdf-syntax-ns#"
   xmlns:svg="http://www.w3.org/2000/svg"
   xmlns="http://www.w3.org/2000/svg"
   xmlns:sodipodi="http://sodipodi.sourceforge.net/DTD/sodipodi-0.dtd"
   xmlns:inkscape="http://www.inkscape.org/namespaces/inkscape"
   id="Слой_1"
   data-name="Слой 1"
   viewBox="0 0 24 24"
   version="1.1"
   sodipodi:docname="pad_enumerate.svg"
   inkscape:version="1.0.1 (3bc2e813f5, 2020-09-07)">
  <sodipodi:namedview
     pagecolor="#ffffff"
     bordercolor="#666666"
     borderopacity="1"
     objecttolerance="10"
     gridtolerance="10"
     guidetolerance="10"
     inkscape:pageopacity="0"
     inkscape:pageshadow="2"
     inkscape:window-width="1779"
     inkscape:window-height="1268"
     id="namedview158802"
     showgrid="true"
     inkscape:zoom="30.291667"
     inkscape:cx="10.045004"
     inkscape:cy="13.571809"
     inkscape:window-x="0"
     inkscape:window-y="37"
     inkscape:window-maximized="0"
     inkscape:current-layer="Слой_1">
    <inkscape:grid
       type="xygrid"
       id="grid240598"
       spacingx="0.5"
       spacingy="0.5"
       color="#b6b6ff"
       opacity="0.1254902"
       empspacing="2" />
  </sodipodi:namedview>
  <metadata
     id="metadata43">
    <rdf:RDF>
      <cc:Work
         rdf:about="">
        <cc:license
           rdf:resource="http://creativecommons.org/licenses/by-sa/4.0/" />
        <dc:format>image/svg+xml</dc:format>
        <dc:type
           rdf:resource="http://purl.org/dc/dcmitype/StillImage" />
        <dc:title>add_arc</dc:title>
      </cc:Work>
      <cc:License
         rdf:about="http://creativecommons.org/licenses/by-sa/4.0/">
        <cc:permits
           rdf:resource="http://creativecommons.org/ns#Reproduction" />
        <cc:permits
           rdf:resource="http://creativecommons.org/ns#Distribution" />
        <cc:requires
           rdf:resource="http://creativecommons.org/ns#Notice" />
        <cc:requires
           rdf:resource="http://creativecommons.org/ns#Attribution" />
        <cc:permits
           rdf:resource="http://creativecommons.org/ns#DerivativeWorks" />
        <cc:requires
           rdf:resource="http://creativecommons.org/ns#ShareAlike" />
      </cc:License>
    </rdf:RDF>
  </metadata>
  <defs
     id="defs158759">
    <style
       id="style158754">.cls-1,.cls-5,.cls-6{fill:none;}.cls-2{clip-path:url(#clip-path);}.cls-3{fill:#545454;}.cls-4{fill:#1a81c4;}.cls-5,.cls-6{stroke:#b9b9b9;stroke-width:0.25px;}.cls-5{stroke-linecap:round;stroke-linejoin:round;}.cls-6{stroke-miterlimit:10;}.cls-7{fill:#f29100;}.cls-8{fill:#fff;}</style>
    <clipPath
       id="clip-path">
      <rect
         class="cls-1"
         x="-29"
         y="-29"
         width="24"
         height="24"
         rx="4"
         id="rect158756" />
    </clipPath>
  </defs>
  <title
     id="title158761">pad_enumerate</title>
  <g
     class="cls-2"
     clip-path="url(#clip-path)"
     id="g158783"
     transform="translate(-1,-1)">
    <path
       class="cls-3"
       d="M 7.41,-5.1439 A 1.351,1.351 0 0 1 6.059,-6.4949 V -8.3138 H -8.015 V 5.697 h 1.8823 a 1.351,1.351 0 0 1 1.351,1.3509 V 9.12 H 9.3558 V -5.1439 Z M -4.0978,-5.06 A 0.9351,0.9351 0 0 1 -5.0329,-5.9951 0.935,0.935 0 0 1 -4.0978,-6.93 0.9351,0.9351 0 0 1 -3.1627,-5.9949 0.9352,0.9352 0 0 1 -4.0978,-5.06 Z M 5.98,7.5989 A 0.9351,0.9351 0 1 1 6.9152,6.6638 0.9351,0.9351 0 0 1 5.98,7.5989 Z"
       id="path158763" />
    <rect
       class="cls-4"
       x="6.3011999"
       y="-0.8531"
       width="1.9539"
       height="1.2809"
       id="rect158765" />
    <rect
       class="cls-5"
       x="-4.6708999"
       y="-3.9057"
       width="9.4134998"
       height="8.5455999"
       id="rect158767" />
    <polyline
       class="cls-6"
       points="-1.644 1.312 0.528 1.312 0.528 4.629"
       id="polyline158769" />
    <line
       class="cls-6"
       x1="3.4353001"
       y1="1.3209"
       x2="4.6675"
       y2="1.3209"
       id="line158771" />
    <line
       class="cls-6"
       x1="3.4353001"
       y1="3.1326001"
       x2="4.6675"
       y2="3.1326001"
       id="line158773" />
    <path
       class="cls-4"
       d="m -0.3439,7.2949 a 0.64,0.64 0 0 1 -0.64,-0.6405 0.64,0.64 0 0 1 0.64,-0.64 0.64,0.64 0 0 1 0.6405,0.64 0.6405,0.6405 0 0 1 -0.6405,0.6405 z"
       id="path158775" />
    <rect
       class="cls-4"
       x="1.4928"
       y="-1.1654"
       width="1.9538"
       height="1.2809"
       id="rect158777" />
    <rect
       class="cls-4"
       x="1.4928"
       y="0.68339998"
       width="1.9538"
       height="1.2808"
       id="rect158779" />
    <rect
       class="cls-4"
       x="1.4928"
       y="2.5308001"
       width="1.9538"
       height="1.2809"
       id="rect158781" />
  </g>
  <path
     class="cls-7"
     d="m 17.3107,0.036 a 6.75,6.75 0 1 0 6.75,6.75 6.7578,6.7578 0 0 0 -6.75,-6.75 z"
     id="path158785" />
  <path
     class="cls-3"
     d="M 14.2246,11.085 V 9.6973 L 17.2266,6.43 a 6.98,6.98 0 0 0 0.956,-1.2412 1.85,1.85 0 0 0 0.2422,-0.87 1.2463,1.2463 0 0 0 -0.293,-0.8526 0.95,0.95 0 0 0 -0.7646,-0.3213 1.227,1.227 0 0 0 -0.9873,0.3584 1.5889,1.5889 0 0 0 -0.3233,1.0635 v 0.25 h -1.8837 l -0.07,-0.2051 -0.0136,-0.0752 a 2.9026,2.9026 0 0 1 0.8593,-2.206 3.2793,3.2793 0 0 1 2.419,-0.8936 3.1158,3.1158 0 0 1 2.2285,0.7862 2.7243,2.7243 0 0 1 0.834,2.0586 3.035,3.035 0 0 1 -0.4736,1.6123 12.7581,12.7581 0 0 1 -1.3819,1.7519 L 16.93,9.377 h 3.7851 v 1.708 z"
     id="path158787" />
  <path
     class="cls-8"
     d="m 17.3669,1.6869 a 2.8645,2.8645 0 0 1 2.0567,0.7177 2.4736,2.4736 0 0 1 0.7558,1.877 2.7726,2.7726 0 0 1 -0.4365,1.4805 12.4334,12.4334 0 0 1 -1.3535,1.7157 L 16.3825,9.59 16.4011,9.6272 h 4.0635 v 1.2079 h -5.99 v -1.04 L 17.4112,6.5987 A 7.1364,7.1364 0 0 0 18.4024,5.3067 2.0743,2.0743 0 0 0 18.6748,4.3184 1.4994,1.4994 0 0 0 18.321,3.303 1.1949,1.1949 0 0 0 17.3669,2.8948 1.4706,1.4706 0 0 0 16.19,3.34 1.82,1.82 0 0 0 15.8062,4.5666 H 14.3513 L 14.3386,4.53 a 2.6515,2.6515 0 0 1 0.7861,-2.0225 3.0261,3.0261 0 0 1 2.2422,-0.82 m 0,-0.5 a 3.52,3.52 0 0 0 -2.5961,0.967 3.1449,3.1449 0 0 0 -0.9321,2.3885 l 0.002,0.0766 0.0248,0.0726 0.1157,0.338 0.37,0.0371 h 1.9551 v -0.5 A 1.3535,1.3535 0 0 1 16.57,3.666 a 0.998,0.998 0 0 1 0.7974,-0.2712 0.6925,0.6925 0 0 1 0.5757,0.2351 1.0071,1.0071 0 0 1 0.2319,0.6887 1.5725,1.5725 0 0 1 -0.2125,0.7511 6.7337,6.7337 0 0 1 -0.92,1.1922 L 14.1061,9.457 13.9743,9.6004 v 1.7348 h 6.99 V 9.1273 H 17.512 l 1.24,-1.3051 A 13.0135,13.0135 0 0 0 20.1683,6.0249 3.278,3.278 0 0 0 20.6795,4.2816 2.965,2.965 0 0 0 19.7683,2.0424 3.3578,3.3578 0 0 0 17.367,1.1869 Z"
     id="path158789" />
  <path
     class="cls-3"
     d="m 1.5447,14.4915 a 0.5,0.5 0 0 1 -0.47,-0.3281 C 0.981,13.9085 0.8941,13.6576 0.812,13.4115 A 0.50002018,0.50002018 0 0 1 1.7613,13.097 c 0.0781,0.2363 0.163,0.4775 0.2529,0.7227 a 0.5,0.5 0 0 1 -0.47,0.6718 z m -0.7959,-2.664 a 0.5012,0.5012 0 0 1 -0.4883,-0.3906 15.1508,15.1508 0 0 1 -0.3194,-2.042 0.4988,0.4988 0 0 1 0.4571,-0.5391 0.5115,0.5115 0 0 1 0.539,0.457 14.08,14.08 0 0 0 0.3,1.9053 0.5013,0.5013 0 0 1 -0.3789,0.5977 0.5279,0.5279 0 0 1 -0.1095,0.0117 z M 0.4588,7.8587 A 0.5554,0.5554 0 0 1 0.4012,7.8558 0.5,0.5 0 0 1 -0.0388,7.3021 7.7813,7.7813 0 0 1 0.4778,5.2367 0.50052829,0.50052829 0 1 1 1.4036,5.6175 6.7182,6.7182 0 0 0 0.9553,7.4154 0.5008,0.5008 0 0 1 0.4587,7.8587 Z M 1.99,4.2376 A 0.5,0.5 0 0 1 1.6169,3.4046 6.6113,6.6113 0 0 1 3.2956,2.0579 0.5,0.5 0 0 1 3.7898,2.9271 5.61,5.61 0 0 0 2.363,4.0706 0.4987,0.4987 0 0 1 1.99,4.2376 Z M 5.3943,2.2542 A 0.5,0.5 0 0 1 5.27,1.27 9.8429,9.8429 0 0 1 7.3533,0.973 a 0.50030791,0.50030791 0 0 1 0.0351,1 8.7485,8.7485 0 0 0 -1.87,0.2656 0.4879,0.4879 0 0 1 -0.1241,0.0156 z"
     id="path158791" />
  <polygon
     class="cls-3"
     points="12.681,3.494 7.079,3.821 7.666,0.976 "
     id="polygon158793"
     transform="translate(-1,-1)" />
  <path
     class="cls-7"
     d="m 6.8226,10.5241 a 6.75,6.75 0 1 0 6.75,6.75 6.7578,6.7578 0 0 0 -6.75,-6.75 z"
     id="path158795" />
  <polygon
     class="cls-3"
     points="7.285,15.126 5.451,15.126 5.451,13.541 9.29,13.17 9.29,22.714 7.285,22.714 "
     id="polygon158797"
     transform="translate(-1,-1)" />
  <path
     class="cls-8"
     d="m 8.04,12.4456 v 9.0186 H 6.5349 V 13.8763 H 4.7009 V 12.7679 L 8.04,12.4456 m 0.5,-0.5505 -0.548,0.0529 -3.339,0.3223 -0.4519,0.0436 v 2.0624 h 1.834 v 7.5879 H 8.54 Z"
     id="path158799" />
</svg>
