<?xml version="1.0" encoding="UTF-8" standalone="no"?>
<svg xmlns:dc="http://purl.org/dc/elements/1.1/"
   xmlns:cc="http://creativecommons.org/ns#"
   xmlns:rdf="http://www.w3.org/1999/02/22-rdf-syntax-ns#"
   xmlns:svg="http://www.w3.org/2000/svg"
   xmlns="http://www.w3.org/2000/svg"
   xmlns:sodipodi="http://sodipodi.sourceforge.net/DTD/sodipodi-0.dtd"
   xmlns:inkscape="http://www.inkscape.org/namespaces/inkscape" id="Слой_1" data-name="Слой 1" viewBox="0 0 24 24" version="1.1" sodipodi:docname="pads_remove.svg" inkscape:version="1.0.1 (3bc2e813f5, 2020-09-07)">
   <sodipodi:namedview pagecolor="#ffffff" bordercolor="#666666" borderopacity="1" objecttolerance="10" gridtolerance="10" guidetolerance="10" inkscape:pageopacity="0" inkscape:pageshadow="2" inkscape:window-width="1609" inkscape:window-height="1286" id="namedview30" showgrid="true" inkscape:zoom="27.961538" inkscape:cx="10.328008" inkscape:cy="12.857597" inkscape:window-x="0" inkscape:window-y="37" inkscape:window-maximized="0" inkscape:document-rotation="0" inkscape:current-layer="Слой_1">
      <inkscape:grid type="xygrid" id="grid_kicad" spacingx="0.5" spacingy="0.5" color="#9999ff" opacity="0.13" empspacing="2" />
   </sodipodi:namedview>
   <metadata id="metadata43">
      <rdf:RDF>
         <cc:Work rdf:about="">
            <cc:license rdf:resource="http://creativecommons.org/licenses/by-sa/4.0/" />
            <dc:format>image/svg+xml</dc:format>
            <dc:type rdf:resource="http://purl.org/dc/dcmitype/StillImage" />
            <dc:title>add_arc</dc:title>
         </cc:Work>
         <cc:License rdf:about="http://creativecommons.org/licenses/by-sa/4.0/">
            <cc:permits rdf:resource="http://creativecommons.org/ns#Reproduction" />
            <cc:permits rdf:resource="http://creativecommons.org/ns#Distribution" />
            <cc:requires rdf:resource="http://creativecommons.org/ns#Notice" />
            <cc:requires rdf:resource="http://creativecommons.org/ns#Attribution" />
            <cc:permits rdf:resource="http://creativecommons.org/ns#DerivativeWorks" />
            <cc:requires rdf:resource="http://creativecommons.org/ns#ShareAlike" />
         </cc:License>
      </rdf:RDF>
   </metadata>
   <defs id="defs26135">
      <style id="style26133">.cls-1{fill:#545454;}.cls-2{fill:#1a81c4;}.cls-3{fill:#b9b9b9;}.cls-4{fill:#f29100;}.cls-5{fill:#bf2641;}</style>
   </defs>
   <title id="title26137">pads_remove</title>
   <rect class="cls-1" x="10.9263" y="9.8514004" width="2.1473999" height="3.5792999" id="rect26139" />
   <polygon class="cls-1" points="14.074,4.773 11.926,4.791 11.926,9.445 14.074,9.445 " id="polygon26141" transform="translate(-1,-1)" />
   <polygon class="cls-1" points="11.926,24.007 14.074,23.99 14.074,15.837 11.926,15.837 " id="polygon26143" transform="translate(-1,-1)" />
   <path class="cls-2" d="m 23.491,2.9929 h -7.4082 a 0.5,0.5 0 0 1 0,-1 h 7.4082 a 0.5,0.5 0 0 1 0,1 z" id="path26145" />
   <path class="cls-3" d="m 9.9911,0.9928 h 4.0178 a 1.1235,1.1235 0 0 1 1.1235,1.1235 V 2.8692 A 1.1236,1.1236 0 0 1 14.0088,3.9928 H 9.9912 A 1.1236,1.1236 0 0 1 8.8676,2.8692 V 2.1163 A 1.1235,1.1235 0 0 1 9.9911,0.9928 Z" id="path26147" />
   <rect class="cls-4" x="7.5" y="1.4928" width="9" height="2" rx="0.81840003" id="rect26149" />
   <path class="cls-5" d="M 7.9219,18.9851 H 0.5107 a 0.5,0.5 0 0 1 0,-1 h 7.4112 a 0.5,0.5 0 0 1 0,1 z" id="path26151" />
   <rect class="cls-3" x="-15.1306" y="-19.984701" width="6.2646999" height="3" rx="1.1235" transform="scale(-1)" id="rect26153" />
   <rect class="cls-4" x="-16.498199" y="-19.484701" width="9" height="2" rx="0.81840003" transform="scale(-1)" id="rect26155" />
</svg>
