<?xml version="1.0" encoding="UTF-8" standalone="no"?>
<svg
   xmlns:dc="http://purl.org/dc/elements/1.1/"
   xmlns:cc="http://creativecommons.org/ns#"
   xmlns:rdf="http://www.w3.org/1999/02/22-rdf-syntax-ns#"
   xmlns:svg="http://www.w3.org/2000/svg"
   xmlns="http://www.w3.org/2000/svg"
   xmlns:sodipodi="http://sodipodi.sourceforge.net/DTD/sodipodi-0.dtd"
   xmlns:inkscape="http://www.inkscape.org/namespaces/inkscape"
   id="Слой_1"
   data-name="Слой 1"
   viewBox="0 0 24 24"
   version="1.1"
   sodipodi:docname="part_properties.svg"
   inkscape:version="1.0.1 (c497b03c, 2020-09-10)">
  <sodipodi:namedview
     pagecolor="#ffffff"
     bordercolor="#666666"
     borderopacity="1"
     objecttolerance="10"
     gridtolerance="10"
     guidetolerance="10"
     inkscape:pageopacity="0"
     inkscape:pageshadow="2"
     inkscape:window-width="1280"
     inkscape:window-height="715"
     id="namedview30"
     showgrid="true"
     inkscape:zoom="21.893518"
     inkscape:cx="8.8075193"
     inkscape:cy="14.297606"
     inkscape:window-x="0"
     inkscape:window-y="23"
     inkscape:window-maximized="0"
     inkscape:document-rotation="0"
     inkscape:current-layer="g893">
    <inkscape:grid
       type="xygrid"
       id="grid_kicad"
       spacingx="0.5"
       spacingy="0.5"
       color="#9999ff"
       opacity="0.13"
       empspacing="2" />
  </sodipodi:namedview>
  <metadata
     id="metadata43">
    <rdf:RDF>
      <cc:Work
         rdf:about="">
        <cc:license
           rdf:resource="http://creativecommons.org/licenses/by-sa/4.0/" />
        <dc:format>image/svg+xml</dc:format>
        <dc:type
           rdf:resource="http://purl.org/dc/dcmitype/StillImage" />
        <dc:title>export_part</dc:title>
      </cc:Work>
      <cc:License
         rdf:about="http://creativecommons.org/licenses/by-sa/4.0/">
        <cc:permits
           rdf:resource="http://creativecommons.org/ns#Reproduction" />
        <cc:permits
           rdf:resource="http://creativecommons.org/ns#Distribution" />
        <cc:requires
           rdf:resource="http://creativecommons.org/ns#Notice" />
        <cc:requires
           rdf:resource="http://creativecommons.org/ns#Attribution" />
        <cc:permits
           rdf:resource="http://creativecommons.org/ns#DerivativeWorks" />
        <cc:requires
           rdf:resource="http://creativecommons.org/ns#ShareAlike" />
      </cc:License>
    </rdf:RDF>
  </metadata>
  <defs
     id="defs117075">
    <style
       id="style117073">.cls-1{fill:#b9b9b9;}.cls-2{fill:#545454;}.cls-3{fill:#bf2641;}.cls-4{fill:none;stroke:#f5f5f5;stroke-linecap:round;stroke-linejoin:round;stroke-width:2px;}</style>
  </defs>
  <title
     id="title117077">export_part</title>
  <g
     id="g893"
     transform="translate(1.614474,5.118756)"
     style="display:inline">
    <path
       id="polygon27928"
       style="fill:none;fill-opacity:1;stroke:#545454;stroke-width:2.0011px;stroke-linecap:round;stroke-linejoin:round"
       transform="matrix(0.99890119,0,0,1,-2.6122763,-6.1182919)"
       d="M 20.102163,14.024991 21.654,13 5,2 v 22 l 9.646737,-6.371689"
       class="cls-1"
       sodipodi:nodetypes="ccccc" />
    <line
       class="cls-1"
       x1="19.018129"
       y1="6.8817091"
       x2="21.385527"
       y2="6.8817091"
       id="line27930"
       style="fill:none;stroke:#545454;stroke-width:2px;stroke-linecap:round;stroke-linejoin:round" />
    <line
       class="cls-1"
       x1="2.3043151"
       y1="0.88170809"
       x2="-0.614474"
       y2="0.88170809"
       id="line27932"
       style="fill:none;stroke:#545454;stroke-width:2px;stroke-linecap:round;stroke-linejoin:round" />
    <line
       class="cls-1"
       x1="2.2867343"
       y1="12.881707"
       x2="-0.614474"
       y2="12.881707"
       id="line27934"
       style="fill:none;stroke:#545454;stroke-width:2px;stroke-linecap:round;stroke-linejoin:round" />
    <path
       id="line27936"
       style="fill:none;stroke:#545454;stroke-width:1.5;stroke-linecap:square;stroke-linejoin:round;stroke-miterlimit:4;stroke-dasharray:none"
       d="M 5.3789332,3.3817081 H 8.3756368"
       class="cls-1"
       sodipodi:nodetypes="cc" />
    <path
       style="fill:none;stroke:#545454;stroke-width:1.5;stroke-linecap:butt;stroke-linejoin:miter;stroke-miterlimit:4;stroke-dasharray:none;stroke-opacity:1"
       d="M 6.877285,6.8817082 V 11.881708"
       id="path17250"
       sodipodi:nodetypes="cc" />
    <path
       style="fill:none;stroke:#545454;stroke-width:1.5;stroke-linecap:butt;stroke-linejoin:miter;stroke-miterlimit:4;stroke-dasharray:none;stroke-opacity:1"
       d="m 4.3807133,9.3459452 4.9938248,0.03576"
       id="path17252"
       sodipodi:nodetypes="cc" />
  </g>
  <path
     class="cls-4"
     d="m 23.734378,18.575 -1.267442,-0.907 -0.015,0.0269 a 5.1977726,5.1976 0 0 0 0.0693,-0.6877 5.2031727,5.203 0 0 0 -0.0738,-0.7314 l 0.0074,0.0127 1.257642,-0.92 a 0.67002224,0.67 0 0 0 0.184806,-0.8745 l -1.132737,-1.9683 a 0.67002224,0.67 0 0 0 -0.848928,-0.28 l -1.427749,0.6248 0.0124,0.0215 A 5.2208733,5.2207 0 0 0 19.222827,12.135 L 19.053422,10.5964 A 0.67002224,0.67 0 0 0 18.387799,10 h -2.271075 a 0.67002224,0.67 0 0 0 -0.665822,0.5964 l -0.170006,1.5453 a 5.2193733,5.2192 0 0 0 -1.321144,0.8044 l 0.018,-0.0322 -1.434248,-0.61 a 0.67002224,0.67 0 0 0 -0.846028,0.2886 l -1.111837,1.98 a 0.67002224,0.67 0 0 0 0.194307,0.8725 l 1.267442,0.907 0.0276,-0.0492 a 5.2142731,5.2141 0 0 0 -0.0709,0.7037 5.210173,5.21 0 0 0 0.0767,0.7616 l -0.021,-0.0367 -1.257641,0.9205 a 0.67002224,0.67 0 0 0 -0.185107,0.8744 l 1.132738,1.9684 a 0.67002224,0.67 0 0 0 0.848928,0.2795 l 1.427948,-0.6249 -0.0293,-0.0507 a 5.2201733,5.22 0 0 0 1.293343,0.7762 l 0.170005,1.5487 a 0.67002224,0.67 0 0 0 0.665622,0.5964 H 18.3974 a 0.67002224,0.67 0 0 0 0.665622,-0.5964 l 0.170506,-1.5484 a 5.2192733,5.2191 0 0 0 1.318044,-0.7963 l -0.0154,0.0271 1.434447,0.61 a 0.67002224,0.67 0 0 0 0.845928,-0.2885 l 1.111737,-1.98 A 0.67002224,0.67 0 0 0 23.734378,18.575 Z m -6.471616,0.9334 a 2.501283,2.5012 0 1 1 2.501283,-2.5012 2.501383,2.5013 0 0 1 -2.501283,2.5012 z"
     id="path158885"
     style="display:inline;fill:#bf2641;stroke:none" />
</svg>
