<?xml version="1.0" encoding="UTF-8" standalone="no"?>
<svg xmlns:dc="http://purl.org/dc/elements/1.1/"
   xmlns:cc="http://creativecommons.org/ns#"
   xmlns:rdf="http://www.w3.org/1999/02/22-rdf-syntax-ns#"
   xmlns:svg="http://www.w3.org/2000/svg"
   xmlns="http://www.w3.org/2000/svg"
   xmlns:sodipodi="http://sodipodi.sourceforge.net/DTD/sodipodi-0.dtd"
   xmlns:inkscape="http://www.inkscape.org/namespaces/inkscape" id="Слой_1" data-name="Слой 1" viewBox="0 0 24 24" version="1.1" sodipodi:docname="post_bom.svg" inkscape:version="1.0.1 (3bc2e813f5, 2020-09-07)">
   <sodipodi:namedview pagecolor="#ffffff" bordercolor="#666666" borderopacity="1" objecttolerance="10" gridtolerance="10" guidetolerance="10" inkscape:pageopacity="0" inkscape:pageshadow="2" inkscape:window-width="1609" inkscape:window-height="1286" id="namedview30" showgrid="true" inkscape:zoom="27.961538" inkscape:cx="3.3259971" inkscape:cy="13" inkscape:window-x="0" inkscape:window-y="37" inkscape:window-maximized="0" inkscape:document-rotation="0" inkscape:current-layer="Слой_1">
      <inkscape:grid type="xygrid" id="grid_kicad" spacingx="0.5" spacingy="0.5" color="#9999ff" opacity="0.13" empspacing="2" />
   </sodipodi:namedview>
   <metadata id="metadata43">
      <rdf:RDF>
         <cc:Work rdf:about="">
            <cc:license rdf:resource="http://creativecommons.org/licenses/by-sa/4.0/" />
            <dc:format>image/svg+xml</dc:format>
            <dc:type rdf:resource="http://purl.org/dc/dcmitype/StillImage" />
            <dc:title>add_arc</dc:title>
         </cc:Work>
         <cc:License rdf:about="http://creativecommons.org/licenses/by-sa/4.0/">
            <cc:permits rdf:resource="http://creativecommons.org/ns#Reproduction" />
            <cc:permits rdf:resource="http://creativecommons.org/ns#Distribution" />
            <cc:requires rdf:resource="http://creativecommons.org/ns#Notice" />
            <cc:requires rdf:resource="http://creativecommons.org/ns#Attribution" />
            <cc:permits rdf:resource="http://creativecommons.org/ns#DerivativeWorks" />
            <cc:requires rdf:resource="http://creativecommons.org/ns#ShareAlike" />
         </cc:License>
      </rdf:RDF>
   </metadata>
   <defs id="defs26527">
      <style id="style26525">.cls-1{fill:#b9b9b9;}.cls-2{fill:#1a81c4;}.cls-3{fill:#fff;}.cls-4{fill:#bf2641;}.cls-5{fill:none;stroke:#f5f5f5;stroke-linecap:round;stroke-linejoin:round;stroke-width:2px;}</style>
   </defs>
   <title id="title26529">post_bom</title>
   <rect class="cls-1" x="3.0489998" y="0" width="17.937201" height="17.983299" rx="2.9934001" id="rect26531" />
   <rect class="cls-2" x="0.00039994717" y="3.0022998" width="19.266701" height="9.2298002" id="rect26533" />
   <path class="cls-3" d="M 1.5615,9.94 H 0.6035 V 9.0151 h 0.958 z" id="path26535" />
   <path class="cls-3" d="M 6.5273,7.9355 A 2.4272,2.4272 0 0 1 6.09,9.4492 1.4574,1.4574 0 0 1 4.8576,10.0225 1.414,1.414 0 0 1 4.1633,9.8604 1.3569,1.3569 0 0 1 3.6711,9.3838 L 3.5754,9.9395 H 2.7686 V 3.75 H 3.73 V 6.1348 A 1.3812,1.3812 0 0 1 4.2056,5.7139 1.3576,1.3576 0 0 1 4.85,5.5674 1.4227,1.4227 0 0 1 6.09,6.1943 2.84,2.84 0 0 1 6.5275,7.8525 Z M 5.5664,7.8525 A 2.2162,2.2162 0 0 0 5.3359,6.77 0.7714,0.7714 0 0 0 4.6084,6.3579 0.9453,0.9453 0 0 0 4.0723,6.5 1.0023,1.0023 0 0 0 3.7295,6.8965 v 1.8008 a 0.9408,0.9408 0 0 0 0.3408,0.3994 0.9862,0.9862 0 0 0 0.5459,0.1406 0.7975,0.7975 0 0 0 0.7246,-0.3516 1.74,1.74 0 0 0 0.2256,-0.95 z" id="path26537" />
   <path class="cls-3" d="M 7.18,7.7539 A 2.3461,2.3461 0 0 1 7.7024,6.1826 1.7987,1.7987 0 0 1 9.139,5.5674 a 1.7916,1.7916 0 0 1 1.4443,0.6152 2.3224,2.3224 0 0 1 0.5264,1.5713 v 0.083 A 2.3346,2.3346 0 0 1 10.5833,9.416 1.7952,1.7952 0 0 1 9.1468,10.0225 1.8055,1.8055 0 0 1 7.7024,9.4125 2.3424,2.3424 0 0 1 7.18,7.8369 Z M 8.1419,7.835 a 1.9231,1.9231 0 0 0 0.2451,1.0224 0.9252,0.9252 0 0 0 1.5117,0 1.87,1.87 0 0 0 0.253,-1.0224 V 7.752 a 1.8445,1.8445 0 0 0 -0.253,-1.0108 0.9136,0.9136 0 0 0 -1.5117,0 1.9083,1.9083 0 0 0 -0.2454,1.0108 z" id="path26539" />
   <path class="cls-3" d="m 12.8271,5.6465 0.0518,0.56 a 1.457,1.457 0 0 1 0.5264,-0.4717 1.5441,1.5441 0 0 1 0.7314,-0.167 1.3182,1.3182 0 0 1 0.7207,0.19 1.1543,1.1543 0 0 1 0.4512,0.5713 1.4962,1.4962 0 0 1 0.5225,-0.56 1.4066,1.4066 0 0 1 0.76,-0.2021 1.2631,1.2631 0 0 1 1.0186,0.4424 2.0439,2.0439 0 0 1 0.374,1.3427 V 9.94 H 17.0218 V 7.3486 A 1.209,1.209 0 0 0 16.8343,6.5791 0.6957,0.6957 0 0 0 16.2708,6.3574 0.8222,0.8222 0 0 0 15.7483,6.5234 0.9252,0.9252 0 0 0 15.4398,6.9717 c 0,0.04 9e-4,0.0742 0.0039,0.1035 0.003,0.0293 0.0039,0.0566 0.0039,0.083 V 9.94 H 14.4857 V 7.3486 a 1.1951,1.1951 0 0 0 -0.1915,-0.76 0.6928,0.6928 0 0 0 -0.5644,-0.2315 1.01,1.01 0 0 0 -0.4961,0.1123 0.839,0.839 0 0 0 -0.3232,0.3194 v 3.15 h -0.961 V 5.6465 Z" id="path26541" />
   <ellipse class="cls-4" cx="17.0075" cy="16.996099" rx="6.9924002" ry="7.0039001" id="ellipse26543" />
   <line class="cls-5" x1="17.1112" y1="13.6254" x2="17.1112" y2="20.629299" id="line26545" />
   <polyline class="cls-5" points="15.362 17.16 18.111 14.406 20.861 17.16" id="polyline26547" transform="translate(-1,-1)" />
</svg>
