/* XPM */
static char * add_line_label_xpm[] = {
"16 16 24 1",
" 	c None",
".	c #000000",
"+	c #020202",
"@	c #8D8D8D",
"#	c #202020",
"$	c #555555",
"%	c #9A9A9A",
"&	c #8C8C8C",
"*	c #080808",
"=	c #161616",
"-	c #9B9B9B",
";	c #131313",
">	c #969696",
",	c #212121",
"'	c #7C7C7C",
")	c #414141",
"!	c #515151",
"~	c #525252",
"{	c #070707",
"]	c #0B0B0B",
"^	c #979797",
"/	c #1F1F1F",
"(	c #6B6B6B",
"_	c #009B00",
"                ",
"      ..+       ",
"      ..+@      ",
"      .#.$%     ",
"     ..&*=-     ",
"     .;>,.'     ",
"    ......)-    ",
"    ..!~~{]^    ",
"    ./-% #+(    ",
"     --    --   ",
"                ",
"________________",
"________________",
"----------------",
"                ",
"                "};
