/* XPM */ 
static const char * add_hierar_pin_xpm[] = {
"16 16 37 1",
" 	c None",
"!	c black",
"#	c white",
"$	c #FDFDFD",
"%	c #FCFCFC",
"&	c #666666",
"'	c #D99300",
"(	c #F0F0F0",
")	c #707070",
"*	c #151515",
"+	c #747474",
",	c #4A4A48",
"-	c #ECECEC",
".	c #EAEAEA",
"0	c #FF0000",
"1	c #D1D1D1",
"2	c #C4C4C4",
"3	c #287C00",
"4	c #EBEBEB",
"5	c #C3C3C3",
"6	c #3CBA00",
"7	c #0D0D0D",
"8	c #C2C2C2",
"9	c #0055F0",
":	c #0C0C0C",
";	c #C0C0C0",
"<	c #090909",
"=	c #BFBFBF",
">	c #060606",
"?	c #BEBEBE",
"@	c #040404",
"A	c #BDBDBD",
"B	c #010101",
"C	c #BCBCBC",
"D	c #BABABA",
"E	c #B8B8B8",
"F	c #9F9F9F",
" !!!!!!!!!!!!   ",
"!####$$$$$%&'!  ",
"!###$((((((&''! ",
"!###$((((((&'''!",
"!#)!!!!****!+,*!",
"!#!----...!0!12!",
"!#!333--44!00!5!",
"!#!6663-44!!!78!",
"!996663399945:;!",
"!#!6663-44945<=!",
"!#!333-444995>?!",
"!#!----444445@A!",
"!#!5552555555BC!",
"!#)!!!!!!!!!!)D!",
"!EEEEEEEEEEEEEF!",
" !!!!!!!!!!!!!! "};
