/* XPM */
static char * add_power_xpm[] = {
"16 16 26 1",
" 	c None",
".	c #D72D2D",
"+	c #E88B8B",
"@	c #ECDBE9",
"#	c #D87B8B",
"$	c #C54C4C",
"%	c #DCDCFF",
"&	c #CAB9E9",
"*	c #D13838",
"=	c #9A9A9A",
"-	c #C76A8B",
";	c #BE5959",
">	c #9B9B9B",
",	c #D72E2E",
"'	c #A18E8E",
")	c #C35252",
"!	c #DC4848",
"~	c #EFDAE5",
"{	c #E5E5FF",
"]	c #D6C1E5",
"^	c #D54148",
"/	c #B96464",
"(	c #D74348",
"_	c #CCA2CB",
":	c #D33F48",
"<	c #B37070",
"                ",
"      ...       ",
"     .+@#$      ",
"     .@%&*=     ",
"     .#&-;>     ",
"      $,;'=     ",
"       ,>=      ",
"       ,>       ",
"       ,>       ",
"        >       ",
"   ,,,,,,,,,    ",
"    )!~{]^/>>   ",
"     )(_:/>>    ",
"      ),/>>     ",
"       <>>      ",
"                "};
