/* XPM */
static char * add_bus2bus_xpm[] = {
"16 16 38 1",
" 	c None",
".	c #AFAFFF",
"+	c #9B9B9B",
"@	c #00009A",
"#	c #02029B",
"$	c #A4A4CA",
"%	c #91919A",
"&	c #00009B",
"*	c #03039A",
"=	c #5F5F9A",
"-	c #ACACFD",
";	c #16169B",
">	c #0F0F9B",
",	c #7A7A9B",
"'	c #A9A9FC",
")	c #25259A",
"!	c #8C8C9A",
"~	c #AAAAFC",
"{	c #41419A",
"]	c #96969A",
"^	c #0D0D9A",
"/	c #909099",
"(	c #08089A",
"_	c #A9A9F9",
":	c #97979A",
"<	c #19199A",
"[	c #01019B",
"}	c #A5A5CD",
"|	c #AEAEFC",
"1	c #929299",
"2	c #0F0F9A",
"3	c #5D5D9B",
"4	c #18189A",
"5	c #77779B",
"6	c #22229A",
"7	c #898999",
"8	c #3E3E9B",
"9	c #96969B",
" ..             ",
" ..+   @....... ",
" ..+  @#.......$",
" ..%@&*=++++++++",
" .-;&>,         ",
" .'&)! @....... ",
" .~{]^@#.......$",
" ../@&*=++++++++",
" .-;&>,         ",
" .'&)! (........",
" ._{:<[&.......}",
" .|12&*3++++++++",
" ..4&>5         ",
" ..&67          ",
" ..89           ",
" .}+            "};
