/* XPM */
static char * AddLine2Bus_xpm[] = {
"16 16 29 1",
" 	c None",
".	c #9B9BFF",
"+	c #006900",
"@	c #95F400",
"#	c #9B9B9B",
"$	c #397B39",
"%	c #026902",
"&	c #437E43",
"*	c #879487",
"=	c #046A04",
"-	c #498049",
";	c #788F78",
">	c #126F12",
",	c #4C814C",
"'	c #006800",
")	c #397C39",
"!	c #4D814D",
"~	c #437F43",
"{	c #126E12",
"]	c #387B38",
"^	c #9A9A9A",
"/	c #4D824D",
"(	c #016901",
"_	c #427E42",
":	c #488048",
"<	c #799079",
"[	c #4B814B",
"}	c #869386",
"|	c #9B9BCD",
" ..    +@@@@@@@@",
" ..#  +$########",
" ..# %&#        ",
" ..*=-;+@@@@@@@@",
" ..>,;')########",
" ..!;%~#        ",
" ..*=-;+@@@@@@@@",
" ..{,;']^#######",
" ../;(_#        ",
" ..*=:<+@@@@@@@@",
" ..{[<')########",
" ../<%~#        ",
" ..}=-#         ",
" ..{,#          ",
" ../#           ",
" .|#            "};
