/* XPM */
static char * break_bus_xpm[] = {
"16 16 36 1",
" 	c None",
".	c #D72E2E",
"+	c #D82E2E",
"@	c #D43232",
"#	c #9B9B9B",
"$	c #D82F2F",
"%	c #CF3A3A",
"&	c #C45050",
"*	c #D62D2D",
"=	c #A98080",
"-	c #B66868",
";	c #9C9C9C",
">	c #0000C3",
",	c #1818BC",
"'	c #0000C2",
")	c #1212BE",
"!	c #4E4EAE",
"~	c #0404C1",
"{	c #1111BE",
"]	c #2C2CB7",
"^	c #7474A4",
"/	c #1B1BBB",
"(	c #0A0AC0",
"_	c #6F6FA6",
":	c #6767A8",
"<	c #1C1CBB",
"[	c #2020BA",
"}	c #0202C2",
"|	c #0909C0",
"1	c #5656AC",
"2	c #97979B",
"3	c #5353AD",
"4	c #0C0CBF",
"5	c #7C7CA3",
"6	c #8E8E9E",
"7	c #6161A9",
"                ",
"       .        ",
"   +@  .#  $    ",
"    %& .# *=    ",
"     -  #$=;    ",
"                ",
"    >>, >')     ",
"   >>>'!>>>~{   ",
" >>>>>]^/>>>>(  ",
"'>>>,_## :<>>>[ ",
" }|12#     34'5#",
"  6#         7# ",
"                ",
"                ",
"                ",
"                "};
