/* XPM */
static char * delete_node_xpm[] = {
"16 16 132 2",
"  	c None",
". 	c #007D00",
"+ 	c #4D8B4D",
"@ 	c #ABABAB",
"# 	c #001900",
"$ 	c #0F1C0F",
"% 	c #545454",
"& 	c #3C3C3C",
"* 	c #C9C8C8",
"= 	c #C9BBAE",
"- 	c #3C342C",
"; 	c #2E2E2E",
"> 	c #C9C3BE",
", 	c #FFE6D0",
"' 	c #FFD4AE",
") 	c #C9996E",
"! 	c #0D1A0D",
"~ 	c #C9B099",
"{ 	c #FFCDA1",
"] 	c #FFBB7F",
"^ 	c #C98549",
"/ 	c #091609",
"( 	c #448244",
"_ 	c #9B9B9B",
": 	c #555555",
"< 	c #3C2F23",
"[ 	c #C98E5A",
"} 	c #C9803F",
"| 	c #3C220B",
"1 	c #4C4C4C",
"2 	c #9C9C9C",
"3 	c #0C0C0C",
"4 	c #1A1A1A",
"5 	c #020E02",
"6 	c #000000",
"7 	c #838170",
"8 	c #DFDDC9",
"9 	c #2E6C2B",
"0 	c #7A7972",
"a 	c #4D4C41",
"b 	c #0F0F0F",
"c 	c #C0BEA3",
"d 	c #BFBDA3",
"e 	c #797866",
"f 	c #47463F",
"g 	c #0F4E0D",
"h 	c #6B6A5B",
"i 	c #9E9C86",
"j 	c #A19F88",
"k 	c #A3A18A",
"l 	c #2A2A2A",
"m 	c #D1CFBA",
"n 	c #DAD8C2",
"o 	c #E0DECD",
"p 	c #B7B5A0",
"q 	c #63615A",
"r 	c #11500F",
"s 	c #4D4D42",
"t 	c #989681",
"u 	c #B5B399",
"v 	c #B1B096",
"w 	c #A2A089",
"x 	c #E6E2D1",
"y 	c #F2EFE7",
"z 	c #F0EFE2",
"A 	c #E8E7D8",
"B 	c #E3E0D0",
"C 	c #3A7831",
"D 	c #8B8A76",
"E 	c #BEBCA2",
"F 	c #C4C2AA",
"G 	c #B6B49A",
"H 	c #787665",
"I 	c #888774",
"J 	c #EFEBD0",
"K 	c #F9F6E7",
"L 	c #F7F3EB",
"M 	c #F6F5EC",
"N 	c #498745",
"O 	c #BCBBAD",
"P 	c #DCDBC9",
"Q 	c #9B9987",
"R 	c #626153",
"S 	c #575649",
"T 	c #515045",
"U 	c #727064",
"V 	c #9D9B8F",
"W 	c #E2DFC6",
"X 	c #E7E3CD",
"Y 	c #E0DEC9",
"Z 	c #7E7E7A",
"` 	c #717066",
" .	c #757463",
"..	c #676657",
"+.	c #424137",
"@.	c #282721",
"#.	c #1E1E1A",
"$.	c #33332F",
"%.	c #4A4843",
"&.	c #676661",
"*.	c #6F6E65",
"=.	c #6A6A63",
"-.	c #6D6B5C",
";.	c #57564A",
">.	c #383830",
",.	c #161514",
"'.	c #191915",
").	c #1E1D18",
"!.	c #292922",
"~.	c #9E9E93",
"{.	c #4C4C3F",
"].	c #35352F",
"^.	c #292925",
"/.	c #2E2E29",
"(.	c #0E0E0C",
"_.	c #0A0A08",
":.	c #0F0F0C",
"<.	c #3D3D37",
"[.	c #33332A",
"}.	c #23231E",
"|.	c #2A2A23",
"1.	c #A3A297",
"2.	c #B5B4AC",
"3.	c #706F66",
"4.	c #9F9F90",
"5.	c #737262",
"6.	c #3F3F34",
"7.	c #68685A",
"8.	c #38382E",
"9.	c #68685E",
"0.	c #3E3E33",
"a.	c #25251F",
"              . + @             ",
"              # $ %             ",
"            & * = - ;           ",
". . . . . # > , ' ) # . . . .   ",
". + + + + ! ~ { ] ^ / ( + + + _ ",
"  @ @ @ @ : < [ } | 1 2 @ @ @ @ ",
"          3 4 # 5 3 6           ",
"      6 6 7 8 . 9 0 a 6 6       ",
"    b c d e f . g h i j k 6     ",
"  l m n o p q . r s t u v w 6   ",
"  6 x y z A B . C D E F G H 6   ",
"  6 I J K L M . N O P Q R S 6   ",
"  6 T U V W X Y Z `  ...+.@.6   ",
"    #.$.%.&.*.=.-.;.>.,.'.).    ",
"    !.~.{.].^./.(._.:.<.[.}.    ",
"    |.1.2.3.4.5.6.7.8.9.0.a.    "};
