/* XPM */
static char * delete_bus_xpm[] = {
"16 16 130 2",
"  	c None",
". 	c #0000C3",
"+ 	c #9B9B9B",
"@ 	c #060606",
"# 	c #202020",
"$ 	c #242424",
"% 	c #1E1E1E",
"& 	c #151515",
"* 	c #000000",
"= 	c #48473F",
"- 	c #97968B",
"; 	c #9C9C98",
"> 	c #94948F",
", 	c #787872",
"' 	c #292822",
") 	c #080808",
"! 	c #605F51",
"~ 	c #5F5E51",
"{ 	c #7E7D6B",
"] 	c #9A988A",
"^ 	c #8B8A85",
"/ 	c #908F87",
"( 	c #A5A494",
"_ 	c #787766",
": 	c #504F44",
"< 	c #515045",
"[ 	c #161616",
"} 	c #706F65",
"| 	c #CDCBB3",
"1 	c #CFCDB8",
"2 	c #989683",
"3 	c #55534C",
"4 	c #2F2F2D",
"5 	c #383830",
"6 	c #737161",
"7 	c #9B9984",
"8 	c #ABA991",
"9 	c #AAA990",
"0 	c #515044",
"a 	c #DBD8C5",
"b 	c #E6E3D4",
"c 	c #E8E6D7",
"d 	c #CFCEBC",
"e 	c #A3A095",
"f 	c #858379",
"g 	c #7E7D6C",
"h 	c #868572",
"i 	c #ABA992",
"j 	c #BDBBA2",
"k 	c #B4B298",
"l 	c #8D8B77",
"m 	c #B7B5A2",
"n 	c #F0EDDB",
"o 	c #F4F2E4",
"p 	c #EFEDE1",
"q 	c #ECEADE",
"r 	c #E4E2D3",
"s 	c #DAD8C4",
"t 	c #CBC9B5",
"u 	c #CDCBB6",
"v 	c #B0AE99",
"w 	c #8C8A77",
"x 	c #676657",
"y 	c #6D6C5C",
"z 	c #B0AD9A",
"A 	c #CBC8BB",
"B 	c #ECE9D8",
"C 	c #EEECDC",
"D 	c #EBE9D9",
"E 	c #E1E0D6",
"F 	c #BBBAAA",
"G 	c #A8A796",
"H 	c #817F6F",
"I 	c #525145",
"J 	c #3F3F35",
"K 	c #383730",
"L 	c #525149",
"M 	c #747269",
"N 	c #A4A293",
"O 	c #ABA899",
"P 	c #A5A496",
"Q 	c #9E9D92",
"R 	c #727164",
"S 	c #565649",
"T 	c #3F3E36",
"U 	c #2E2D26",
"V 	c #23221D",
"W 	c #24241E",
"X 	c #696961",
"Y 	c #4B4A41",
"Z 	c #4E4D48",
"` 	c #4C4B45",
" .	c #4C4C46",
"..	c #3E3D34",
"+.	c #313029",
"@.	c #2A2926",
"#.	c #262620",
"$.	c #21201B",
"%.	c #2A2A23",
"&.	c #A1A095",
"*.	c #808076",
"=.	c #52524A",
"-.	c #64645B",
";.	c #505045",
">.	c #272720",
",.	c #393931",
"'.	c #24241D",
").	c #39392F",
"!.	c #24241F",
"~.	c #2B2B24",
"{.	c #A7A79C",
"].	c #C6C5BE",
"^.	c #7D7C72",
"/.	c #BAB9AE",
"(.	c #7D7C6E",
"_.	c #7D7D70",
":.	c #404035",
"<.	c #6F6F64",
"[.	c #46463A",
"}.	c #ABABA1",
"|.	c #D7D7D0",
"1.	c #8B8B7F",
"2.	c #D7D7CF",
"3.	c #989888",
"4.	c #59594F",
"5.	c #98988B",
"6.	c #4A4A3E",
"7.	c #77776A",
"8.	c #4F4F41",
"9.	c #282821",
". . . . . . . . . . . . . . .   ",
". . . . . . . . . . . . . . . + ",
". . . . . . . . . . . . . . . + ",
"  + + + + + + + + + + + + + + + ",
"          @ # $ % & *           ",
"      * * = - ; > , ' * *       ",
"    ) ! ~ { ] ^ / ( _ : < *     ",
"  [ } | 1 2 3 4 5 6 7 8 9 0 *   ",
"  & a b c d e f g h i j k l *   ",
"  * m n o p q r s t u v w x *   ",
"  * y z A B C D E F G H I J *   ",
"    K L M N O P Q R S T U V     ",
"    W X Y Z `  ...+.W @.#.$.    ",
"    %.&.*.=.-.;.>.,.'.=.).!.    ",
"    ~.{.].^./.(.Y _.:.<.[.>.    ",
"    ~.}.|.1.2.3.4.5.6.7.8.9.    "};
