/* XPM */
static char * delete_sheet_xpm[] = {
"16 16 134 2",
"  	c None",
". 	c #000000",
"+ 	c #FFFFFF",
"@ 	c #242424",
"# 	c #FDFDFD",
"$ 	c #EBEBEB",
"% 	c #787878",
"& 	c #484848",
"* 	c #FCFCFC",
"= 	c #424242",
"- 	c #616161",
"; 	c #FAFAFA",
"> 	c #BCBCBC",
", 	c #101010",
"' 	c #F9F9F9",
") 	c #C7C7C7",
"! 	c #1A1A1A",
"~ 	c #F8F8F8",
"{ 	c #DCDCDC",
"] 	c #A8A8A8",
"^ 	c #0E0E0E",
"/ 	c #4A4A4A",
"( 	c #3D3D3D",
"_ 	c #2B2B2B",
": 	c #F6F6F6",
"< 	c #B7B7B7",
"[ 	c #010101",
"} 	c #848271",
"| 	c #EFECD7",
"1 	c #F1F0E8",
"2 	c #ECEBE2",
"3 	c #C5C4B8",
"4 	c #525145",
"5 	c #F5F5F5",
"6 	c #B4B4B4",
"7 	c #C1BFA4",
"8 	c #C0BEA4",
"9 	c #7A7967",
"0 	c #484740",
"a 	c #272725",
"b 	c #35342D",
"c 	c #858371",
"d 	c #9E9C86",
"e 	c #A19F88",
"f 	c #A3A18A",
"g 	c #F3F3F3",
"h 	c #D2D0BB",
"i 	c #DBD9C3",
"j 	c #E1DFCE",
"k 	c #B8B6A1",
"l 	c #64625B",
"m 	c #393836",
"n 	c #3B3B32",
"o 	c #605F52",
"p 	c #989681",
"q 	c #B5B399",
"r 	c #B1B096",
"s 	c #A2A089",
"t 	c #F2F2F2",
"u 	c #E7E3D2",
"v 	c #F3F0E8",
"w 	c #F1F0E3",
"x 	c #E9E8D9",
"y 	c #E4E1D1",
"z 	c #D4D1BD",
"A 	c #C1BFA5",
"B 	c #ADAB92",
"C 	c #BEBCA2",
"D 	c #C4C2AA",
"E 	c #B6B49A",
"F 	c #787665",
"G 	c #F0F0F0",
"H 	c #898875",
"I 	c #F0ECD1",
"J 	c #FAF7E8",
"K 	c #F8F4EC",
"L 	c #F7F6ED",
"M 	c #F7F6EB",
"N 	c #F3F1E4",
"O 	c #EAE8D7",
"P 	c #DCDBC9",
"Q 	c #9B9987",
"R 	c #626153",
"S 	c #575649",
"T 	c #BEBEBE",
"U 	c #606060",
"V 	c #525146",
"W 	c #737165",
"X 	c #9E9C90",
"Y 	c #E3E0C7",
"Z 	c #E8E4CE",
"` 	c #E1DFCA",
" .	c #CFCFC9",
"..	c #8C8B7E",
"+.	c #757463",
"@.	c #676657",
"#.	c #424137",
"$.	c #282721",
"%.	c #1E1E1A",
"&.	c #33332F",
"*.	c #4A4843",
"=.	c #676661",
"-.	c #6F6E65",
";.	c #6A6A63",
">.	c #6D6B5C",
",.	c #57564A",
"'.	c #383830",
").	c #161514",
"!.	c #191915",
"~.	c #1E1D18",
"{.	c #292922",
"].	c #9E9E93",
"^.	c #4C4C3F",
"/.	c #35352F",
"(.	c #292925",
"_.	c #2E2E29",
":.	c #0E0E0C",
"<.	c #0A0A08",
"[.	c #0F0F0C",
"}.	c #3D3D37",
"|.	c #33332A",
"1.	c #23231E",
"2.	c #2A2A23",
"3.	c #A3A297",
"4.	c #B5B4AC",
"5.	c #706F66",
"6.	c #9F9F90",
"7.	c #737262",
"8.	c #3F3F34",
"9.	c #68685A",
"0.	c #38382E",
"a.	c #68685E",
"b.	c #3E3E33",
"c.	c #25251F",
". . . . . . . .                 ",
". + + + + + + @ .               ",
". # $ $ $ $ $ % & .             ",
". * $ $ $ $ $ = - .             ",
". ; $ $ $ $ $ $ > ,             ",
". ' $ $ $ $ $ $ ) !             ",
". ~ $ $ { ] ^ = / ( _ .         ",
". : $ < [ [ } | 1 2 3 4 . .     ",
". 5 6 , 7 8 9 0 a b c d e f .   ",
". g _ h i j k l m n o p q r s . ",
". t [ u v w x y z A B C D E F . ",
". G [ H I J K L M N O P Q R S . ",
". T U V W X Y Z `  ...+.@.#.$.. ",
". . . %.&.*.=.-.;.>.,.'.).!.~.  ",
"      {.].^./.(._.:.<.[.}.|.1.  ",
"      2.3.4.5.6.7.8.9.0.a.b.c.  "};
