/* XPM */
static char * delete_pinsheet_xpm[] = {
"16 16 159 2",
"  	c None",
". 	c #6F6500",
"+ 	c #FEFEFF",
"@ 	c #FCFCFF",
"# 	c #F1F1FF",
"$ 	c #D3D2D8",
"% 	c #746B0E",
"& 	c #8D8A6C",
"* 	c #6E6400",
"= 	c #695F00",
"- 	c #4F4800",
"; 	c #F8F8FF",
"> 	c #EDEDFF",
", 	c #E2E2FF",
"' 	c #D6D6FF",
") 	c #AEABB1",
"! 	c #716707",
"~ 	c #92907D",
"{ 	c #635A00",
"] 	c #5C5300",
"^ 	c #675E00",
"/ 	c #F3F3FF",
"( 	c #E8E8FF",
"_ 	c #DDDDFF",
": 	c #D2D2FF",
"< 	c #C7C7FF",
"[ 	c #BCBCFF",
"} 	c #827B4C",
"| 	c #787020",
"1 	c #939180",
"2 	c #E4E4FF",
"3 	c #D9D9FF",
"4 	c #CECEFF",
"5 	c #C2C2FF",
"6 	c #B7B7FF",
"7 	c #9895B1",
"8 	c #847F4D",
"9 	c #72690E",
"0 	c #D4D4FF",
"a 	c #C9C9FF",
"b 	c #BEBEFF",
"c 	c #B3B3FF",
"d 	c #9E9DD8",
"e 	c #71680E",
"f 	c #9B9B9B",
"g 	c #756D18",
"h 	c #675F0B",
"i 	c #685F00",
"j 	c #504901",
"k 	c #0E0E0D",
"l 	c #424242",
"m 	c #4A4A4A",
"n 	c #3E3E3E",
"o 	c #2B2B2B",
"p 	c #000000",
"q 	c #797979",
"r 	c #010101",
"s 	c #848271",
"t 	c #EFECD7",
"u 	c #F1F0E8",
"v 	c #ECEBE2",
"w 	c #C5C4B8",
"x 	c #525145",
"y 	c #0F0F0F",
"z 	c #C0BEA3",
"A 	c #BFBDA3",
"B 	c #797866",
"C 	c #47463F",
"D 	c #262624",
"E 	c #35342D",
"F 	c #858371",
"G 	c #9E9C86",
"H 	c #A19F88",
"I 	c #A3A18A",
"J 	c #2A2A2A",
"K 	c #D1CFBA",
"L 	c #DAD8C2",
"M 	c #E0DECD",
"N 	c #B7B5A0",
"O 	c #63615A",
"P 	c #383735",
"Q 	c #3B3B32",
"R 	c #605F52",
"S 	c #989681",
"T 	c #B5B399",
"U 	c #B1B096",
"V 	c #A2A089",
"W 	c #E6E2D1",
"X 	c #F2EFE7",
"Y 	c #F0EFE2",
"Z 	c #E8E7D8",
"` 	c #E3E0D0",
" .	c #D3D0BC",
"..	c #C1BFA5",
"+.	c #ADAB92",
"@.	c #BEBCA2",
"#.	c #C4C2AA",
"$.	c #B6B49A",
"%.	c #787665",
"&.	c #888774",
"*.	c #EFEBD0",
"=.	c #F9F6E7",
"-.	c #F7F3EB",
";.	c #F6F5EC",
">.	c #F6F5EA",
",.	c #F3F1E4",
"'.	c #EAE8D7",
").	c #DCDBC9",
"!.	c #9B9987",
"~.	c #626153",
"{.	c #575649",
"].	c #515045",
"^.	c #727064",
"/.	c #9D9B8F",
"(.	c #E2DFC6",
"_.	c #E7E3CD",
":.	c #E0DEC9",
"<.	c #CFCFC9",
"[.	c #8C8B7E",
"}.	c #757463",
"|.	c #676657",
"1.	c #424137",
"2.	c #282721",
"3.	c #1E1E1A",
"4.	c #33332F",
"5.	c #4A4843",
"6.	c #676661",
"7.	c #6F6E65",
"8.	c #6A6A63",
"9.	c #6D6B5C",
"0.	c #57564A",
"a.	c #383830",
"b.	c #161514",
"c.	c #191915",
"d.	c #1E1D18",
"e.	c #292922",
"f.	c #9E9E93",
"g.	c #4C4C3F",
"h.	c #35352F",
"i.	c #292925",
"j.	c #2E2E29",
"k.	c #0E0E0C",
"l.	c #0A0A08",
"m.	c #0F0F0C",
"n.	c #3D3D37",
"o.	c #33332A",
"p.	c #23231E",
"q.	c #2A2A23",
"r.	c #A3A297",
"s.	c #B5B4AC",
"t.	c #706F66",
"u.	c #9F9F90",
"v.	c #737262",
"w.	c #3F3F34",
"x.	c #68685A",
"y.	c #38382E",
"z.	c #68685E",
"A.	c #3E3E33",
"B.	c #25251F",
". . . . . .           . .       ",
". + + @ # $ % &     . * = -     ",
". + ; > , ' ) ! ~   . { ] ^     ",
". / ( _ : < [ } | 1 . . . .     ",
". 2 3 4 5 6 7 ! ~ 8 9     = -   ",
". 0 a b c d e & f g h     . ^   ",
". . . . i j k l m n o p         ",
"  f f q r r s t u v w x p p     ",
"      y z A B C D E F G H I p   ",
"    J K L M N O P Q R S T U V p ",
"    p W X Y Z `  ...+.@.#.$.%.p ",
"    p &.*.=.-.;.>.,.'.).!.~.{.p ",
"    p ].^./.(._.:.<.[.}.|.1.2.p ",
"      3.4.5.6.7.8.9.0.a.b.c.d.  ",
"      e.f.g.h.i.j.k.l.m.n.o.p.  ",
"      q.r.s.t.u.v.w.x.y.z.A.B.  "};
