/* XPM */
static char * delete_pin_xpm[] = {
"16 16 129 2",
"  	c None",
". 	c #D72E2E",
"+ 	c #DE676B",
"@ 	c #DA636B",
"# 	c #D62E2E",
"$ 	c #E5E5FF",
"% 	c #D7D7FF",
"& 	c #D25B6B",
"* 	c #D23535",
"= 	c #CACAFF",
"- 	c #CE576B",
"; 	c #D03939",
"> 	c #B96464",
", 	c #9B9B9B",
"' 	c #C35151",
") 	c #B17171",
"! 	c #B36E6E",
"~ 	c #CA4444",
"{ 	c #9C9898",
"] 	c #919191",
"^ 	c #6F6F6F",
"/ 	c #0E0E0E",
"( 	c #414141",
"_ 	c #494949",
": 	c #3D3D3D",
"< 	c #2B2B2B",
"[ 	c #000000",
"} 	c #838170",
"| 	c #EEEBD6",
"1 	c #F0EFE7",
"2 	c #ECEBE2",
"3 	c #C5C4B8",
"4 	c #525145",
"5 	c #0F0F0F",
"6 	c #C0BEA3",
"7 	c #BFBDA3",
"8 	c #797866",
"9 	c #47463F",
"0 	c #262624",
"a 	c #35342D",
"b 	c #858371",
"c 	c #9E9C86",
"d 	c #A19F88",
"e 	c #A3A18A",
"f 	c #2A2A2A",
"g 	c #D1CFBA",
"h 	c #DAD8C2",
"i 	c #E0DECD",
"j 	c #B7B5A0",
"k 	c #63615A",
"l 	c #383735",
"m 	c #3B3B32",
"n 	c #605F52",
"o 	c #989681",
"p 	c #B5B399",
"q 	c #B1B096",
"r 	c #A2A089",
"s 	c #E6E2D1",
"t 	c #F2EFE7",
"u 	c #F0EFE2",
"v 	c #E8E7D8",
"w 	c #E3E0D0",
"x 	c #D3D0BC",
"y 	c #C1BFA5",
"z 	c #ADAB92",
"A 	c #BEBCA2",
"B 	c #C4C2AA",
"C 	c #B6B49A",
"D 	c #787665",
"E 	c #888774",
"F 	c #EFEBD0",
"G 	c #F9F6E7",
"H 	c #F7F3EB",
"I 	c #F6F5EC",
"J 	c #F6F5EA",
"K 	c #F3F1E4",
"L 	c #EAE8D7",
"M 	c #DCDBC9",
"N 	c #9B9987",
"O 	c #626153",
"P 	c #575649",
"Q 	c #515045",
"R 	c #727064",
"S 	c #9D9B8F",
"T 	c #E2DFC6",
"U 	c #E7E3CD",
"V 	c #E0DEC9",
"W 	c #CFCFC9",
"X 	c #8C8B7E",
"Y 	c #757463",
"Z 	c #676657",
"` 	c #424137",
" .	c #282721",
"..	c #1E1E1A",
"+.	c #33332F",
"@.	c #4A4843",
"#.	c #676661",
"$.	c #6F6E65",
"%.	c #6A6A63",
"&.	c #6D6B5C",
"*.	c #57564A",
"=.	c #383830",
"-.	c #161514",
";.	c #191915",
">.	c #1E1D18",
",.	c #292922",
"'.	c #9E9E93",
").	c #4C4C3F",
"!.	c #35352F",
"~.	c #292925",
"{.	c #2E2E29",
"].	c #0E0E0C",
"^.	c #0A0A08",
"/.	c #0F0F0C",
"(.	c #3D3D37",
"_.	c #33332A",
":.	c #23231E",
"<.	c #2A2A23",
"[.	c #A3A297",
"}.	c #B5B4AC",
"|.	c #706F66",
"1.	c #9F9F90",
"2.	c #737262",
"3.	c #3F3F34",
"4.	c #68685A",
"5.	c #38382E",
"6.	c #68685E",
"7.	c #3E3E33",
"8.	c #25251F",
"    . .                         ",
"  . + @ .                       ",
"# + $ % & . . . . . . . . .     ",
"* @ % = - ; > > > > > > > > ,   ",
"' . & - . ) , , , , , , , , ,   ",
"  ! ~ ~ ) {                     ",
"    , ] ^ / ( _ : < [           ",
"      [ [ } | 1 2 3 4 [ [       ",
"    5 6 7 8 9 0 a b c d e [     ",
"  f g h i j k l m n o p q r [   ",
"  [ s t u v w x y z A B C D [   ",
"  [ E F G H I J K L M N O P [   ",
"  [ Q R S T U V W X Y Z `  .[   ",
"    ..+.@.#.$.%.&.*.=.-.;.>.    ",
"    ,.'.).!.~.{.].^./.(._.:.    ",
"    <.[.}.|.1.2.3.4.5.6.7.8.    "};
