/* XPM */
static char * edit_component_xpm[] = {
"16 16 80 1",
" 	c None",
".	c #000000",
"+	c #F9E53A",
"@	c #F0B44C",
"#	c #FAE93C",
"$	c #F5B343",
"%	c #635632",
"&	c #0D0D0D",
"*	c #FAE73A",
"=	c #F5B344",
"-	c #6B5E33",
";	c #F5F5F5",
">	c #3D3D3E",
",	c #161616",
"'	c #F8E239",
")	c #F2B043",
"!	c #615739",
"~	c #FBFBFF",
"{	c #F1F1FA",
"]	c #9E9EA4",
"^	c #111111",
"/	c #F7DD38",
"(	c #F1AD41",
"_	c #615637",
":	c #F7F7FF",
"<	c #F3F3FF",
"[	c #EEEEFF",
"}	c #D6D6E7",
"|	c #515156",
"1	c #F7DA37",
"2	c #EDB24C",
"3	c #655931",
"4	c #9B9B9B",
"5	c #F4F4FF",
"6	c #EFEFFF",
"7	c #EBEBFF",
"8	c #E6E6FF",
"9	c #010101",
"0	c #F7D737",
"a	c #EEA73E",
"b	c #64582F",
"c	c #F0F0FF",
"d	c #ECECFF",
"e	c #E7E7FF",
"f	c #F5D136",
"g	c #ECA33E",
"h	c #5C5230",
"i	c #B8B8B8",
"j	c #A6A6B4",
"k	c #131313",
"l	c #1C1C1C",
"m	c #EDEDFF",
"n	c #E8E8FF",
"o	c #E4E4FF",
"p	c #D6AD74",
"q	c #61562F",
"r	c #141417",
"s	c #AAAAB8",
"t	c #9898B4",
"u	c #171717",
"v	c #464646",
"w	c #333333",
"x	c #E9E9FF",
"y	c #E5E5FF",
"z	c #4F4115",
"A	c #1D1D1F",
"B	c #4E4E4E",
"C	c #202020",
"D	c #767676",
"E	c #E1E1FF",
"F	c #42424B",
"G	c #8E8E8E",
"H	c #E2E2FF",
"I	c #DADAF9",
"J	c #838394",
"K	c #0F0F10",
"L	c #676767",
"M	c #BABAD0",
"N	c #27272B",
"O	c #0C0C0C",
"             .+@",
"  .         .#$%",
"  .&       .*=-.",
"  .;>,    .')!. ",
"  .~{]^  ./(_.  ",
"...:<[}|.123.   ",
" 4.567890ab..   ",
"  .cde9fgh.ijkl.",
"  .mno9pq9rstuvw",
"  .xy9z99ABCCD44",
"...8E99FwG4 44  ",
" 4.HIJKL44      ",
"  .MNwG4        ",
"  .OL44         ",
"  .G4           ",
"   4            "};
