/* XPM */
static char * Edit_Part_xpm[] = {
"16 16 82 1",
" 	c None",
".	c #000000",
"+	c #F9E53A",
"@	c #F0B44C",
"#	c #FAE93C",
"$	c #F5B343",
"%	c #635632",
"&	c #080808",
"*	c #FAE73A",
"=	c #F5B344",
"-	c #6B5E33",
";	c #B0B0B0",
">	c #1C1A19",
",	c #161616",
"'	c #F8E239",
")	c #F2B043",
"!	c #615739",
"~	c #FFF3EC",
"{	c #F3DBCB",
"]	c #6F5E53",
"^	c #0A0909",
"/	c #F7DD38",
"(	c #F1AD41",
"_	c #615637",
":	c #FFE8D8",
"<	c #FFDBC2",
"[	c #FFCEAB",
"}	c #CC9A77",
"|	c #332419",
"1	c #F7DA37",
"2	c #EDB24C",
"3	c #655931",
"4	c #9B9B9B",
"5	c #FFDDC5",
"6	c #FFD0AF",
"7	c #FFC298",
"8	c #FFB582",
"9	c #010100",
"0	c #F7D636",
"a	c #EEA73E",
"b	c #64582F",
"c	c #FFD1B2",
"d	c #FFC49C",
"e	c #FFB785",
"f	c #F5D135",
"g	c #ECA33D",
"h	c #5C512F",
"i	c #B8B8B8",
"j	c #B49681",
"k	c #131313",
"l	c #1C1C1C",
"m	c #FFC69F",
"n	c #FFB988",
"o	c #FFAC72",
"p	c #D6AD73",
"q	c #61562E",
"r	c #010000",
"s	c #100600",
"t	c #B89A85",
"u	c #B47950",
"v	c #171717",
"w	c #464646",
"x	c #333333",
"y	c #FFBB8C",
"z	c #FFAE75",
"A	c #4F4114",
"B	c #17100B",
"C	c #4E4E4E",
"D	c #202020",
"E	c #767676",
"F	c #FFB079",
"G	c #FFA262",
"H	c #331906",
"I	c #8E8E8E",
"J	c #FFA465",
"K	c #F3904B",
"L	c #6F3C18",
"M	c #0E0C0B",
"N	c #676767",
"O	c #B06A39",
"P	c #1C0F07",
"Q	c #0C0C0C",
"             .+@",
"  .         .#$%",
"  .&       .*=-.",
"  .;>,    .')!. ",
"  .~{]^  ./(_.  ",
"...:<[}|.123.   ",
" 4.567890ab..   ",
"  .cde9fgh.ijkl.",
"  .mno9pqrstuvwx",
"  .yz9A9rBCDDE44",
"...FG9rHxI4 44  ",
" 4.JKLMN44      ",
"  .OPxI4        ",
"  .QN44         ",
"  .I4           ",
"   4            "};
