/* XPM */
static char * edit_sheet_xpm[] = {
"16 16 49 1",
" 	c None",
".	c #000000",
"+	c #F9E53A",
"@	c #F0B44C",
"#	c #FAE93C",
"$	c #F5B343",
"%	c #635632",
"&	c #FFFFFF",
"*	c #242424",
"=	c #FAE73A",
"-	c #F5B344",
";	c #6B5E33",
">	c #FDFDFD",
",	c #EBEBEB",
"'	c #787878",
")	c #484848",
"!	c #F8E239",
"~	c #F2B043",
"{	c #615739",
"]	c #FCFCFC",
"^	c #424242",
"/	c #F7DD38",
"(	c #F1AD41",
"_	c #615637",
":	c #FAFAFA",
"<	c #010101",
"[	c #F8DB38",
"}	c #EDB24C",
"|	c #655931",
"1	c #F9F9F9",
"2	c #F7D737",
"3	c #EFA83F",
"4	c #64582F",
"5	c #F8F8F8",
"6	c #F5D136",
"7	c #ECA33E",
"8	c #5C5230",
"9	c #F6F6F6",
"0	c #D6AD74",
"a	c #61562F",
"b	c #1A1A1A",
"c	c #F5F5F5",
"d	c #4F4115",
"e	c #C6C6C6",
"f	c #F3F3F3",
"g	c #F2F2F2",
"h	c #F0F0F0",
"i	c #BEBEBE",
"j	c #C3C3C3",
"             ...",
"            .+@.",
"........   .#$%.",
".&&&&&&*. .=-;. ",
".>,,,,,').!~{.  ",
".],,,,,^./(_.   ",
".:,,,,,<[}|.    ",
".1,,,,<234.     ",
".5,,,<678.      ",
".9,,,<0a<b      ",
".c,,<d<<eb      ",
".f,,<<,,eb      ",
".g,,,,,,eb      ",
".h,,,,,,eb      ",
".ijjjjjjj.      ",
"..........      "};
