/* XPM */
static char * gl_change_xpm[] = {
"16 16 30 1",
" 	c None",
".	c #695F00",
"+	c #685E00",
"@	c #635A00",
"#	c #4B4400",
"$	c #5E5500",
"%	c #574E00",
"&	c #625800",
"*	c #000000",
"=	c #00AA00",
"-	c #007900",
";	c #008200",
">	c #00B300",
",	c #002900",
"'	c #005F00",
")	c #004300",
"!	c #00BD00",
"~	c #00BC00",
"{	c #009C00",
"]	c #007300",
"^	c #005700",
"/	c #00B800",
"(	c #003300",
"_	c #000F00",
":	c #004800",
"<	c #007D00",
"[	c #000100",
"}	c #009600",
"|	c #000800",
"1	c #001500",
"  ..            ",
" .+@#           ",
" .$%&           ",
" ....           ",
".+  @#          ",
".$  .&          ",
"                ",
"  ***           ",
"  *=-*  *       ",
"  *;>, *'*      ",
"   )!~{]!'*     ",
"   *^/!!!!(     ",
"     _:^!<[     ",
"       *}|      ",
"       *1       ",
"                "};
