/* XPM */
static char * hidden_pin_xpm[] = {
"16 16 133 2",
"  	c None",
". 	c #030303",
"+ 	c #050505",
"@ 	c #040404",
"# 	c #232324",
"$ 	c #AEAEB4",
"% 	c #B9B9C1",
"& 	c #0B0B0C",
"* 	c #020202",
"= 	c #BCBCC1",
"- 	c #7A7A7F",
"; 	c #79797F",
"> 	c #55555C",
", 	c #000000",
"' 	c #F5F5FD",
") 	c #F5F5FF",
"! 	c #F2F2FF",
"~ 	c #9B9BA7",
"{ 	c #09090A",
"] 	c #010101",
"^ 	c #F6F6FF",
"/ 	c #ACACBA",
"( 	c #080809",
"_ 	c #D72E2E",
": 	c #DF6669",
"< 	c #DD6469",
"[ 	c #D62F2F",
"} 	c #F4F4FF",
"| 	c #F1F1FF",
"1 	c #EEEEFF",
"2 	c #B6B6C7",
"3 	c #070708",
"4 	c #E89FA4",
"5 	c #ECECFF",
"6 	c #E1E1FF",
"7 	c #D68DA4",
"8 	c #C64C4C",
"9 	c #010102",
"0 	c #212124",
"a 	c #EFEFFF",
"b 	c #EBEBFF",
"c 	c #BEBED2",
"d 	c #060607",
"e 	c #E9D7E8",
"f 	c #E2E2FF",
"g 	c #D7D7FF",
"h 	c #CDBBE8",
"i 	c #CA2B2B",
"j 	c #110506",
"k 	c #B45D67",
"l 	c #D97887",
"m 	c #D77E91",
"n 	c #D5849A",
"o 	c #C58199",
"p 	c #0C0506",
"q 	c #D12C2C",
"r 	c #C94545",
"s 	c #DD94A4",
"t 	c #CDCDFF",
"u 	c #CB82A4",
"v 	c #BE5A5A",
"w 	c #494949",
"x 	c #434347",
"y 	c #B6B6C4",
"z 	c #B7B7C8",
"A 	c #B8B8CD",
"B 	c #B9B9D1",
"C 	c #B9B9D6",
"D 	c #323239",
"E 	c #666666",
"F 	c #9B9B9B",
"G 	c #CF3B3B",
"H 	c #D45B69",
"I 	c #D15869",
"J 	c #987F7F",
"K 	c #C8C8D3",
"L 	c #A3A3B5",
"M 	c #E3E3FF",
"N 	c #DFDFFF",
"O 	c #7E7E97",
"P 	c #0A0A0C",
"Q 	c #9B9999",
"R 	c #AC7A7A",
"S 	c #9B9A9A",
"T 	c #363636",
"U 	c #35353A",
"V 	c #D0D0E4",
"W 	c #62626E",
"X 	c #E0E0FF",
"Y 	c #DCDCFF",
"Z 	c #CFCFF7",
"` 	c #070709",
" .	c #040405",
"..	c #B1B1BD",
"+.	c #EDEDFF",
"@.	c #D3D3E7",
"#.	c #494951",
"$.	c #CECEEA",
"%.	c #DDDDFF",
"&.	c #D8D8FF",
"*.	c #D2D2FF",
"=.	c #30303D",
"-.	c #0D0D0F",
";.	c #DFDFF3",
">.	c #484850",
",.	c #CCCCE7",
"'.	c #DEDEFF",
").	c #D9D9FF",
"!.	c #D5D5FF",
"~.	c #CFCFFF",
"{.	c #646482",
"].	c #2A2A2F",
"^.	c #9E9EAE",
"/.	c #8C8C9D",
"(.	c #D9D9F8",
"_.	c #DBDBFF",
":.	c #D6D6FF",
"<.	c #D1D1FF",
"[.	c #CBCBFF",
"}.	c #8484AC",
"|.	c #0A0A0D",
"1.	c #26262B",
"2.	c #7D7D8B",
"3.	c #383840",
"4.	c #030304",
"5.	c #76768E",
"6.	c #B3B3DA",
"7.	c #8888AC",
"8.	c #444459",
"9.	c #060608",
"0.	c #050506",
"a.	c #09090B",
"b.	c #0C0C0F",
"                  . . . +       ",
"                @ # $ % &       ",
"                * = - ; > +     ",
"                , ' ) ! ~ {     ",
"                ] ^ , , / (     ",
"  _ : < [       . } | 1 2 3     ",
"_ 4 5 6 7 8   9 0 ! a b c d     ",
"[ e f g h _ i j k l m n o p q   ",
"r s g t u v w x y z A B C D E F ",
"  G H I G J @ K 1 b L M N O P   ",
"  Q R R S T U a 5 V W X Y Z `   ",
"           ...+.@.#.$.%.&.*.=., ",
"          -.1 ;.>.,.'.).!.~.{.` ",
"        , ].5 ^./.(._.:.<.[.}.|.",
"        . 1.2.3.4.d 5.6.7.8.9.9.",
"        , 3 P 0.    a.0.b.d     "};
