/* XPM */
static char * hierarchy_cursor_xpm[] = {
"16 16 61 1",
" 	c None",
".	c #000000",
"+	c #D783D7",
"@	c #9B9B9B",
"#	c #373737",
"$	c #4B7B7B",
"%	c #71BABA",
"&	c #83D7D7",
"*	c #343434",
"=	c #141414",
"-	c #D6D6D6",
";	c #989898",
">	c #2E2E2F",
",	c #838383",
"'	c #171717",
")	c #C8C8C8",
"!	c #FFFFFF",
"~	c #D2D2E1",
"{	c #3B3B45",
"]	c #1A1A1A",
"^	c #B8B8B8",
"/	c #F7F7FF",
"(	c #E6E6FF",
"_	c #D6D6FF",
":	c #767699",
"<	c #1F3121",
"[	c #6DB46D",
"}	c #83D783",
"|	c #1E1E1E",
"1	c #A9A9A9",
"2	c #F0F0FF",
"3	c #DFDFFF",
"4	c #72728E",
"5	c #1C1C26",
"6	c #222222",
"7	c #959599",
"8	c #ADADBF",
"9	c #7A7A91",
"0	c #6E6E8D",
"a	c #363636",
"b	c #606060",
"c	c #878787",
"d	c #262626",
"e	c #36363A",
"f	c #050506",
"g	c #101014",
"h	c #B7B7F5",
"i	c #2E2E44",
"j	c #2B2B2B",
"k	c #212121",
"l	c #6C6C96",
"m	c #9595E5",
"n	c #212F28",
"o	c #7FD17F",
"p	c #181824",
"q	c #8282D0",
"r	c #1B1B2D",
"s	c #383838",
"t	c #161616",
"u	c #4B4B4B",
"v	c #898989",
"........        ",
".++++++.@       ",
"........@       ",
" #@@@@@@@       ",
" # ........     ",
" ##.$%&&&&.@    ",
"   ..*.....@    ",
"    =-;>,@@@    ",
"    ')!~{...... ",
"    ]^/(_:<[}}.@",
"    |12345.....@",
"    67890abc@@@@",
"    defghi..... ",
"    j=k.lmno}}.@",
"       .pqr....@",
"        stuv@@@@"};
