/* XPM */
static char * import_glabel_xpm[] = {
"16 16 92 2",
"  	c None",
". 	c #000000",
"+ 	c #020202",
"@ 	c #00AE00",
"# 	c #007000",
"$ 	c #7C7C7C",
"% 	c #3C3C3C",
"& 	c #E5E5E5",
"* 	c #EBEBEB",
"= 	c #98914E",
"- 	c #6F6500",
"; 	c #676767",
"> 	c #303030",
", 	c #008800",
"' 	c #00AD00",
") 	c #002600",
"! 	c #6A6F6A",
"~ 	c #005800",
"{ 	c #505050",
"] 	c #E4E4E0",
"^ 	c #746A09",
"/ 	c #8D853A",
"( 	c #E5E5E1",
"_ 	c #3F3F3F",
": 	c #606060",
"< 	c #004900",
"[ 	c #00BD00",
"} 	c #00BA00",
"| 	c #009A00",
"1 	c #007400",
"2 	c #535143",
"3 	c #C9C6AE",
"4 	c #C1BE9C",
"5 	c #C3C3C3",
"6 	c #005C00",
"7 	c #00B800",
"8 	c #002D00",
"9 	c #544C00",
"0 	c #001300",
"a 	c #004500",
"b 	c #015B01",
"c 	c #007800",
"d 	c #302C03",
"e 	c #BCB892",
"f 	c #727872",
"g 	c #009200",
"h 	c #3B3F2F",
"i 	c #6E6400",
"j 	c #DBDACD",
"k 	c #747674",
"l 	c #314131",
"m 	c #A49F71",
"n 	c #695F00",
"o 	c #B3AF86",
"p 	c #9E9E9E",
"q 	c #DADADA",
"r 	c #AAA575",
"s 	c #7D7880",
"t 	c #9B9BFF",
"u 	c #A5A5FF",
"v 	c #A4A3D8",
"w 	c #6E6510",
"x 	c #C3C0A4",
"y 	c #FDFDFD",
"z 	c #847F80",
"A 	c #A8A8FF",
"B 	c #B2B2FF",
"C 	c #BDBDFF",
"D 	c #AAA7B1",
"E 	c #6F660C",
"F 	c #B2B09E",
"G 	c #8B8680",
"H 	c #B6B6FF",
"I 	c #C0C0FF",
"J 	c #CACAFF",
"K 	c #D4D4FF",
"L 	c #8C854C",
"M 	c #7C7429",
"N 	c #918C80",
"O 	c #C3C3FF",
"P 	c #CECEFF",
"Q 	c #D8D8FF",
"R 	c #BDBAB1",
"S 	c #70670C",
"T 	c #989380",
"U 	c #D1D1FF",
"V 	c #DBDBFF",
"W 	c #D2D1D8",
"X 	c #716810",
"Y 	c #BEBEBE",
"Z 	c #969161",
"` 	c #9C986F",
". . .   . . . . . . . . . +     ",
". @ #   . $ % & * = - = * ; >   ",
". , ' ) . ! ~ { ] ^ / ^ ( _ : . ",
"  < [ } | 1 [ ~ 2 - 3 - 4 * 5 . ",
"    6 7 [ [ [ [ 8 9 - - = * 5 . ",
"      0 a b [ c d e * e ^ ( 5 . ",
"        . f g h i j * j - 4 5 . ",
"        . k l m n n n n o * 5 . ",
"        . p q r s t u v w x 5 . ",
"        . y * r z A B C D E F . ",
"        . y * r G H I J K L M . ",
"        . y * r N O P Q R S F . ",
"        . y * r T U V W X x 5 . ",
"        . Y 5 Z n n n n ` 5 5 . ",
"        . . . . . . . . . . . . ",
"                                "};
