/* XPM */
static char * lib_next_xpm[] = {
"16 16 63 1",
" 	c None",
".	c #000000",
"+	c #C5C9CD",
"@	c #FBFBFB",
"#	c #E9E9E9",
"$	c #D4D4D4",
"%	c #A0A0A0",
"&	c #797979",
"*	c #393939",
"=	c #C1C1C1",
"-	c #D6D6D6",
";	c #EBEBEB",
">	c #E1E1E1",
",	c #C9C9C9",
"'	c #6C7C8C",
")	c #C2C7CB",
"!	c #C3C3C3",
"~	c #B0B0B0",
"{	c #A8A8A8",
"]	c #FFFFFF",
"^	c #F9F9F9",
"/	c #CACACA",
"(	c #627080",
"_	c #627180",
":	c #637181",
"<	c #C2C7CC",
"[	c #A7A7A7",
"}	c #878787",
"|	c #5F5F5F",
"1	c #363636",
"2	c #647382",
"3	c #C3C7CC",
"4	c #657482",
"5	c #C3C7CD",
"6	c #667584",
"7	c #C4C8CD",
"8	c #687584",
"9	c #D3D6D9",
"0	c #CDCFD0",
"a	c #BEC0C1",
"b	c #B3B5B6",
"c	c #A8A9AA",
"d	c #DDDEDF",
"e	c #D6D7D8",
"f	c #CDCECF",
"g	c #C5C7C8",
"h	c #B6B7B8",
"i	c #657382",
"j	c #637488",
"k	c #556A80",
"l	c #5C6F84",
"m	c #5D7084",
"n	c #5E7185",
"o	c #697888",
"p	c #868A8E",
"q	c #6B747E",
"r	c #576674",
"s	c #586776",
"t	c #596776",
"u	c #5A6776",
"v	c #445464",
"w	c #616467",
"x	c #686D72",
"                ",
"....... ....... ",
".+@#$%&*=-;>,'. ",
".)@#$!~{]^;>/(. ",
".)@#$!~{].;>,_. ",
".)@#$!~{]..>,:. ",
".<@#[}|1....,2. ",
".3@#$!~{]..>,4. ",
".5@#$!~{].;>,6. ",
".7@#$!~{]^;>,8. ",
".790abc[defghi. ",
".jklmnopqrstuv. ",
"......wxw...... ",
"      ...       ",
"                ",
"                "};
