/* XPM */
static char * library_browse_xpm[] = {
"16 16 130 2",
"  	c None",
". 	c #070809",
"+ 	c #323538",
"@ 	c #1F1F20",
"# 	c #0B0D0E",
"$ 	c #E5E7E8",
"% 	c #F6F6F6",
"& 	c #838587",
"* 	c #050506",
"= 	c #0B0D0F",
"- 	c #F7F7F7",
"; 	c #D8D8D8",
"> 	c #E0E1E2",
", 	c #1F2021",
"' 	c #050709",
") 	c #E4E7E8",
"! 	c #D8D9D9",
"~ 	c #D2D2D2",
"{ 	c #E2E2E2",
"] 	c #BFC1C3",
"^ 	c #0F0F0F",
"/ 	c #080B0D",
"( 	c #E6E8EA",
"_ 	c #F9F9F9",
": 	c #D5D5D5",
"< 	c #BDBDBD",
"[ 	c #CDCDCD",
"} 	c #CACACA",
"| 	c #DDDEDE",
"1 	c #535455",
"2 	c #030406",
"3 	c #9F9FA0",
"4 	c #F5F5F6",
"5 	c #CFCFCF",
"6 	c #D0D0D0",
"7 	c #969696",
"8 	c #5A5A5A",
"9 	c #525253",
"0 	c #4D4D4D",
"a 	c #3C3C3C",
"b 	c #292929",
"c 	c #333333",
"d 	c #353535",
"e 	c #363636",
"f 	c #0B0B0B",
"g 	c #000000",
"h 	c #848787",
"i 	c #B5B9BC",
"j 	c #DEDEDE",
"k 	c #B8B8B8",
"l 	c #A6A6A6",
"m 	c #5F5F5F",
"n 	c #B2B2B2",
"o 	c #F1F1F1",
"p 	c #F2F2F2",
"q 	c #C5C5C5",
"r 	c #6B6B6B",
"s 	c #ADADAD",
"t 	c #FAFBFC",
"u 	c #EAEAEA",
"v 	c #242425",
"w 	c #1C1C1C",
"x 	c #999A9C",
"y 	c #BCBCBC",
"z 	c #C9C9C9",
"A 	c #FCFCFC",
"B 	c #FEFEFE",
"C 	c #686868",
"D 	c #C3C3C4",
"E 	c #AFB1B2",
"F 	c #7C7F81",
"G 	c #B4B7BA",
"H 	c #E0E0E0",
"I 	c #4F4F4F",
"J 	c #EEEEEE",
"K 	c #F4F4F4",
"L 	c #7B7B7B",
"M 	c #9D9E9F",
"N 	c #868C92",
"O 	c #171818",
"P 	c #747F88",
"Q 	c #BABABA",
"R 	c #4E4E4E",
"S 	c #FDFDFD",
"T 	c #FBFBFB",
"U 	c #818181",
"V 	c #898B8F",
"W 	c #181B1E",
"X 	c #424548",
"Y 	c #8E9599",
"Z 	c #4F4F50",
"` 	c #FAFAFA",
" .	c #E4E4E4",
"..	c #69696A",
"+.	c #616870",
"@.	c #000001",
"#.	c #626A74",
"$.	c #626263",
"%.	c #727272",
"&.	c #D9D9D9",
"*.	c #E1E1E1",
"=.	c #2F3032",
"-.	c #111315",
";.	c #12161B",
">.	c #45505B",
",.	c #85898D",
"'.	c #5D5E5E",
").	c #7A7A7A",
"!.	c #7E7E7E",
"~.	c #676767",
"{.	c #4C4C4C",
"].	c #131313",
"^.	c #030303",
"/.	c #181B1D",
"(.	c #2A2E31",
"_.	c #3D4245",
":.	c #616465",
"<.	c #767879",
"[.	c #868B91",
"}.	c #74797E",
"|.	c #272728",
"1.	c #313131",
"2.	c #2B343D",
"3.	c #191E22",
"4.	c #1D2227",
"5.	c #3F3F3F",
"6.	c #343434",
"7.	c #040404",
"8.	c #191919",
"9.	c #050505",
"          . + @                 ",
"        # $ % & *               ",
"      = $ - ; > ,               ",
"    ' ) - ! ~ { ] ^             ",
"  / ( _ : < [ } | 1             ",
"2 3 4 5 6 } 7 8 9 0 a b c d e f ",
"g h i j k l m n o p q r s t u v ",
"  w x y z m k A B B A ; C D E g ",
"  g F G H I J B B B A K L M N g ",
"    O P Q R p B B S T % U V W   ",
"    g X Y Z q A A T `  ...+.g   ",
"      @.#.$.%.&.K % *.L =.-.    ",
"        ;.>.,.'.).!.~.{.].^.    ",
"          /.(._.:.<.[.}.|.1.^.  ",
"                  2.3.4.  5.6.7.",
"                            8.9."};
