/* XPM */
static char * lines90_xpm[] = {
"16 16 24 1",
" 	c None",
".	c #000000",
"+	c #9B9B9B",
"@	c #0000FF",
"#	c #FEFEFF",
"$	c #F7F7FF",
"%	c #EDECFF",
"&	c #E3E2FF",
"*	c #D9D8FF",
"=	c #6969FF",
"-	c #EDEDFF",
";	c #E3E3FF",
">	c #CFCEFF",
",	c #EEEDFF",
"'	c #D9D9FF",
")	c #CFCFFF",
"!	c #C5C4FF",
"~	c #E4E3FF",
"{	c #DAD9FF",
"]	c #D0CFFF",
"^	c #C6C5FF",
"/	c #BCBAFF",
"(	c #BCBBFF",
"_	c #B2B1FF",
"                ",
" .              ",
" .+             ",
" .+             ",
" .+             ",
" .+             ",
" .+             ",
" .@@@@@@        ",
" .#$%&*@=       ",
" .$-;*>@=       ",
" .,;')!@=       ",
" .~{]^/@=       ",
" .{]^(_@=       ",
" .............. ",
"  ++++++++++++++",
"                "};
