/* XPM */
static char * mirror_V_xpm[] = {
"16 16 30 1",
" 	c None",
".	c #000000",
"+	c #9B9B9B",
"@	c #E3E3FF",
"#	c #EBEAFF",
"$	c #F2F2FF",
"%	c #F9F9FF",
"&	c #FFFFFF",
"*	c #D2D2D2",
"=	c #696969",
"-	c #1A1A1A",
";	c #4D4D4D",
">	c #8C8C8C",
",	c #D3D2FF",
"'	c #DAD9FF",
")	c #E2E1FF",
"!	c #E4E3F9",
"~	c #9B9BA5",
"{	c #3A3A3C",
"]	c #202020",
"^	c #636363",
"/	c #979797",
"(	c #C3C1FF",
"_	c #B1B0DF",
":	c #626278",
"<	c #141417",
"[	c #373737",
"}	c #7A7A7A",
"|	c #34344B",
"1	c #0E0E0F",
"                ",
"                ",
"                ",
"                ",
"                ",
"                ",
"                ",
"....  ....  ....",
" ++++  ++++  +++",
" .............  ",
" .@#$%&&*=-;>++ ",
" .,')!~{]^/++   ",
" .(_:<[}++      ",
" .|1;>++        ",
" .^/++          ",
"  +             "};
