/* XPM */
static char * move_pinsheet_xpm[] = {
"16 16 81 1",
" 	c None",
".	c #6F6500",
"+	c #FEFEFF",
"@	c #FCFCFF",
"#	c #F1F1FF",
"$	c #D3D2D8",
"%	c #746B0E",
"&	c #8D8A6C",
"*	c #6E6400",
"=	c #695F00",
"-	c #4F4800",
";	c #F8F8FF",
">	c #EDEDFF",
",	c #E2E2FF",
"'	c #D6D6FF",
")	c #AEABB1",
"!	c #716707",
"~	c #92907D",
"{	c #635A00",
"]	c #5C5300",
"^	c #675E00",
"/	c #F3F3FF",
"(	c #E8E8FF",
"_	c #DDDDFF",
":	c #D2D2FF",
"<	c #C7C7FF",
"[	c #BCBCFF",
"}	c #827B4C",
"|	c #615A19",
"1	c #1C1B18",
"2	c #544D00",
"3	c #E4E4FF",
"4	c #D9D9FF",
"5	c #CECEFF",
"6	c #C2C2FF",
"7	c #B7B7FF",
"8	c #9895B1",
"9	c #4F4804",
"0	c #34343F",
"a	c #DCDCEF",
"b	c #32323B",
"c	c #000000",
"d	c #D4D4FF",
"e	c #C9C9FF",
"f	c #BEBEFF",
"g	c #B3B3FF",
"h	c #9E9DD8",
"i	c #403B08",
"j	c #010101",
"k	c #84849B",
"l	c #FFFFFF",
"m	c #3F3900",
"n	c #7C7750",
"o	c #7C7C7C",
"p	c #9B9B9B",
"q	c #6C6C6C",
"r	c #31313D",
"s	c #E7E5FF",
"t	c #646489",
"u	c #232332",
"v	c #FBFBFF",
"w	c #EAEAFF",
"x	c #E2E1FF",
"y	c #DBDBFF",
"z	c #D5D3FF",
"A	c #CDCDFF",
"B	c #C8C6FF",
"C	c #C1C1FF",
"D	c #9F9DDB",
"E	c #30303B",
"F	c #7A7A96",
"G	c #D2D0FF",
"H	c #5A5981",
"I	c #20202F",
"J	c #C8C8FF",
"K	c #C0BFFF",
"L	c #5C5C82",
"M	c #B8B8FF",
"N	c #56557D",
"O	c #9493D6",
"P	c #1D1D2C",
"......     ..   ",
".++@#$%&  .*=-  ",
".+;>,')!~ .{]^  ",
"./(_:<[}|12...  ",
".34567890abc =- ",
".defghijklkcc.^ ",
".....mnoclc     ",
" pppqjopc#c  c  ",
"    rkcccsccctu ",
"   cav#wxyzABCDc",
"    EFcccGcccHI ",
"     c  cJc  cc ",
"     c  cKc  c  ",
"       cLMNcc   ",
"        IOPc    ",
"         c      "};
