/* XPM */ 
static const char * new_component_xpm[] = {
"16 16 26 1",
" 	c None",
"!	c black",
"#	c #FEFEFE",
"$	c #090909",
"%	c #B4FFE6",
"&	c #D90000",
"'	c #EEEEEE",
"(	c #F1F1F1",
")	c white",
"*	c #767676",
"+	c #F0F0F0",
",	c #161616",
"-	c #A0A0A4",
".	c #EFEFEF",
"0	c #C4C4C4",
"1	c #ECECEC",
"2	c #FFE6B4",
"3	c #FFB4B4",
"4	c #EDEDED",
"5	c #E8E8E8",
"6	c #E7E7E7",
"7	c #B8B8B8",
"8	c #E6E6E6",
"9	c #E5E5E5",
":	c #E4E4E4",
";	c #E3E3E3",
" !!!!!!!!!!!!   ",
"!##########$%!  ",
"!#&&'(((((($%%! ",
"!#&)&&((((($*%%!",
"!&&'))&(((+$$$,!",
"!-&''()&&...''0!",
"!#&''..))&&''10!",
"!#&'''''233&&&0!",
"!#&''4223&&---0!",
"!#&'223&&--5550!",
"!&&233&--555660!",
"!-&3&&788888890!",
"!#&&--688899::0!",
"!#--'''''':;;;0!",
"!00000000000000!",
" !!!!!!!!!!!!!! "};
