/* XPM */
static char * options_pinsheet_xpm[] = {
"16 16 78 1",
" 	c None",
".	c #6F6500",
"+	c #FEFEFF",
"@	c #FCFCFF",
"#	c #F1F1FF",
"$	c #D3D2D8",
"%	c #746B0E",
"&	c #8D8A6C",
"*	c #6E6400",
"=	c #695F00",
"-	c #4F4800",
";	c #F8F8FF",
">	c #EDEDFF",
",	c #E2E2FF",
"'	c #D6D6FF",
")	c #AEABB1",
"!	c #716707",
"~	c #92907D",
"{	c #635A00",
"]	c #5C5300",
"^	c #675E00",
"/	c #F3F3FF",
"(	c #E8E8FF",
"_	c #DDDDFF",
":	c #D2D2FF",
"<	c #C7C7FF",
"[	c #BCBCFF",
"}	c #827B4C",
"|	c #787020",
"1	c #939180",
"2	c #E4E4FF",
"3	c #D9D9FF",
"4	c #CECEFF",
"5	c #C2C2FF",
"6	c #B7B7FF",
"7	c #9895B1",
"8	c #847F4D",
"9	c #72690E",
"0	c #D4D4FF",
"a	c #C9C9FF",
"b	c #BEBEFF",
"c	c #B3B3FF",
"d	c #9E9DD8",
"e	c #71680E",
"f	c #9B9B9B",
"g	c #756D18",
"h	c #675F0B",
"i	c #888358",
"j	c #010101",
"k	c #000000",
"l	c #F0F0F0",
"m	c #DEDEDE",
"n	c #DFDFDF",
"o	c #BFBFBF",
"p	c #C0C0C0",
"q	c #979797",
"r	c #989898",
"s	c #C1C1C1",
"t	c #E3E3E3",
"u	c #DDDDDD",
"v	c #C8C8C8",
"w	c #656565",
"x	c #838383",
"y	c #878787",
"z	c #888888",
"A	c #AFAFAF",
"B	c #A3A3A3",
"C	c #F1F1F1",
"D	c #CECECE",
"E	c #ABABAB",
"F	c #EEEEEE",
"G	c #EDEDED",
"H	c #E9E9E9",
"I	c #D9D9D9",
"J	c #B5B5B5",
"K	c #757575",
"L	c #6B6B6B",
"M	c #777777",
"......     ..   ",
".++@#$%&  .*=-  ",
".+;>,')!~ .{]^  ",
"./(_:<[}|1....  ",
".234567!~89  =- ",
".0abcde&fgh  .^ ",
"......iff       ",
" ffjjjjjjkkkkkkk",
"  klmnnnnnnnnnnn",
"  knoooooopppppp",
"  knoqkkkrppppps",
"  knoktuvkwxyzAs",
"  knokupBkkkkkCp",
"  knokDBqkEFGHIs",
"  knprkkkwxssssp",
"  knpJKLwMzkkkrp"};
