/* XPM */
static char * options_pin_xpm[] = {
"16 16 48 1",
" 	c None",
".	c #D72E2E",
"+	c #DE676B",
"@	c #DA636B",
"#	c #D62E2E",
"$	c #E5E5FF",
"%	c #D7D7FF",
"&	c #D25B6B",
"*	c #D23535",
"=	c #CACAFF",
"-	c #CE576B",
";	c #D03939",
">	c #B96464",
",	c #9B9B9B",
"'	c #C35151",
")	c #B17171",
"!	c #B36E6E",
"~	c #CA4444",
"{	c #9C9898",
"]	c #000000",
"^	c #F0F0F0",
"/	c #DEDEDE",
"(	c #DFDFDF",
"_	c #BFBFBF",
":	c #C0C0C0",
"<	c #979797",
"[	c #989898",
"}	c #C1C1C1",
"|	c #E3E3E3",
"1	c #DDDDDD",
"2	c #C8C8C8",
"3	c #656565",
"4	c #838383",
"5	c #878787",
"6	c #888888",
"7	c #AFAFAF",
"8	c #A3A3A3",
"9	c #F1F1F1",
"0	c #CECECE",
"a	c #ABABAB",
"b	c #EEEEEE",
"c	c #EDEDED",
"d	c #E9E9E9",
"e	c #D9D9D9",
"f	c #B5B5B5",
"g	c #757575",
"h	c #6B6B6B",
"i	c #777777",
"  ..            ",
" .+@.           ",
"#+$%&.........  ",
"*@%=-;>>>>>>>>, ",
"'.&-.),,,,,,,,, ",
" !~~){          ",
"  ,,,           ",
"   ]]]]]]]]]]]]]",
"  ]^/(((((((((((",
"  ](______::::::",
"  ](_<]]][:::::}",
"  ](_]|12]34567}",
"  ](_]1:8]]]]]9:",
"  ](_]08<]abcde}",
"  ](:[]]]34}}}}:",
"  ](:fgh3i6]]][:"};
