/* XPM */
static char * pin_to_xpm[] = {
"16 16 48 1",
" 	c None",
".	c #D72E2E",
"+	c #DE676B",
"@	c #DA636B",
"#	c #D62E2E",
"$	c #E5E5FF",
"%	c #D7D7FF",
"&	c #D25B6B",
"*	c #D23535",
"=	c #CACAFF",
"-	c #CE576B",
";	c #D03939",
">	c #B96464",
",	c #9B9B9B",
"'	c #C35151",
")	c #B17171",
"!	c #B36E6E",
"~	c #CA4444",
"{	c #9C9898",
"]	c #939393",
"^	c #838383",
"/	c #000900",
"(	c #001100",
"_	c #000000",
":	c #004D00",
"<	c #00BD00",
"[	c #001700",
"}	c #000100",
"|	c #002500",
"1	c #008000",
"2	c #005200",
"3	c #001E00",
"4	c #000400",
"5	c #009500",
"6	c #00BA00",
"7	c #009800",
"8	c #009E00",
"9	c #00AB00",
"0	c #008C00",
"a	c #00BC00",
"b	c #001D00",
"c	c #003F00",
"d	c #008700",
"e	c #00AF00",
"f	c #001A00",
"g	c #006000",
"h	c #003000",
"i	c #000D00",
"  ..            ",
" .+@.           ",
"#+$%&.........  ",
"*@%=-;>>>>>>>>, ",
"'.&-.),,,,,,,,, ",
" !~~){          ",
"  ,]^           ",
"    /(_         ",
"    :<[  }      ",
"    |<1/ 23     ",
"    45<67893    ",
"     (0a<<<0_   ",
"      _bcdef    ",
"         gh     ",
"         i_     ",
"                "};
