/* XPM */
static char * pin_number_to_xpm[] = {
"16 16 58 1",
" 	c None",
".	c #D72E2E",
"+	c #D72F2F",
"@	c #E06E72",
"#	c #DC6A72",
"$	c #CA4343",
"%	c #00009B",
"&	c #D62E2E",
"*	c #DF696D",
"=	c #E5E5FF",
"-	c #D7D7FF",
";	c #D35D6D",
">	c #D23636",
",	c #DB6168",
"'	c #CACAFF",
")	c #CF5568",
"!	c #CF3A3A",
"~	c #B76767",
"{	c #B76666",
"]	c #B86666",
"^	c #B86565",
"/	c #B86464",
"(	c #9B9B9B",
"_	c #C35151",
":	c #D35664",
"<	c #CF5264",
"[	c #B17272",
"}	c #B17171",
"|	c #C84747",
"1	c #553838",
"2	c #393838",
"3	c #000000",
"4	c #161616",
"5	c #006600",
"6	c #004500",
"7	c #008C00",
"8	c #00A300",
"9	c #000800",
"0	c #002100",
"a	c #006000",
"b	c #00BD00",
"c	c #009500",
"d	c #005100",
"e	c #002C00",
"f	c #00AA00",
"g	c #002500",
"h	c #009300",
"i	c #00B000",
"j	c #002300",
"k	c #000D00",
"l	c #004F00",
"m	c #008B00",
"n	c #00A200",
"o	c #00AD00",
"p	c #001800",
"q	c #00B200",
"r	c #002D00",
"s	c #004000",
"                ",
"                ",
"  ..            ",
" +@#+$       %%%",
"&*=-;....... % %",
">,-')!~{]]^/(%%%",
"_.:<.[(      % %",
" }||123         ",
"  ((456         ",
"    3789  0     ",
"     abcdefg    ",
"     9hbbbbij   ",
"      klmnbop   ",
"        33qr3   ",
"         3s3    ",
"                "};
