/* XPM */
static char * Rotate_Pin_xpm[] = {
"16 16 72 1",
" 	c None",
".	c #D72E2E",
"+	c #DE676B",
"@	c #DA636B",
"#	c #D62E2E",
"$	c #E5E5FF",
"%	c #D7D7FF",
"&	c #D25B6B",
"*	c #D23535",
"=	c #CACAFF",
"-	c #CE576B",
";	c #D03939",
">	c #B96464",
",	c #9F5656",
"'	c #B86363",
")	c #9B9B9B",
"!	c #C35151",
"~	c #B17171",
"{	c #666666",
"]	c #070707",
"^	c #7E7E7E",
"/	c #B36E6E",
"(	c #CA4444",
"_	c #9C9898",
":	c #393939",
"<	c #67676A",
"[	c #000000",
"}	c #626262",
"|	c #F7F7F8",
"1	c #F8F8FF",
"2	c #EBEBF9",
"3	c #E0E0F3",
"4	c #BFBFD6",
"5	c #8B8BA0",
"6	c #30303A",
"7	c #616161",
"8	c #F1F1FF",
"9	c #EBEBFF",
"0	c #E4E4FF",
"a	c #DDDDFF",
"b	c #CECEF4",
"c	c #353541",
"d	c #383838",
"e	c #69696C",
"f	c #161617",
"g	c #28282B",
"h	c #36363D",
"i	c #777789",
"j	c #D4D4FC",
"k	c #8888A7",
"l	c #9494B0",
"m	c #B8B8E2",
"n	c #A1A1CC",
"o	c #A0A0C4",
"p	c #757594",
"q	c #CFCFFE",
"r	c #7D7D94",
"s	c #383842",
"t	c #2F2F34",
"u	c #1D1D1F",
"v	c #5C5C61",
"w	c #434345",
"x	c #2B2B37",
"y	c #C2C2EE",
"z	c #F5F5FC",
"A	c #6F6F6F",
"B	c #22222A",
"C	c #83839B",
"D	c #B5B5D1",
"E	c #D8D8F2",
"F	c #E5E5F9",
"G	c #59595E",
"  ..            ",
" .+@.           ",
"#+$%&.........  ",
"*@%=-;>>,'>>>>) ",
"!.&-.~){]^))))) ",
" /((~_ :<[      ",
"  ))) }|123456  ",
"      7|1890abc ",
"       defghijk[",
"   [[[  [   [lm[",
"   [no[   [  [[[",
"   [pqrstuvw    ",
"    xy%a098zA   ",
"     BCDEF8zA[  ",
"       [[[Gw[   ",
"          [[    "};
