/* XPM */
static char * rotate_glabel_xpm[] = {
"16 16 91 1",
" 	c None",
".	c #695F00",
"+	c #685E00",
"@	c #635A00",
"#	c #4B4400",
"$	c #9191FF",
"%	c #9B9BFF",
"&	c #A5A5FF",
"*	c #857F66",
"=	c #5F5500",
"-	c #5E5500",
";	c #574E00",
">	c #625800",
",	c #9E9EFF",
"'	c #A8A8FF",
")	c #B2B2FF",
"!	c #BBBBF9",
"~	c #7D7539",
"{	c #595100",
"]	c #675D00",
"^	c #4A4A6F",
"/	c #B6B6FF",
"(	c #C0C0FF",
"_	c #CACAFF",
":	c #BFBDCC",
"<	c #201D03",
"[	c #252526",
"}	c #9898C7",
"|	c #CECEFF",
"1	c #D5D5F9",
"2	c #847C39",
"3	c #4E4700",
"4	c #594F00",
"5	c #141414",
"6	c #B9B9BA",
"7	c #B5B5BA",
"8	c #73737B",
"9	c #757580",
"0	c #59595C",
"a	c #302D1B",
"b	c #020200",
"c	c #000000",
"d	c #B7B7B8",
"e	c #FEFEFF",
"f	c #F8F8FF",
"g	c #F1F1FF",
"h	c #EBEBFF",
"i	c #E4E4FF",
"j	c #DDDDFF",
"k	c #7C7C93",
"l	c #020204",
"m	c #131313",
"n	c #B8B8BD",
"o	c #8B8B93",
"p	c #9999A6",
"q	c #A5A5B9",
"r	c #D6D6F7",
"s	c #D7D7FF",
"t	c #606076",
"u	c #030303",
"v	c #242425",
"w	c #19191D",
"x	c #C6C6EB",
"y	c #9494B5",
"z	c #5F5F78",
"A	c #3E3E4C",
"B	c #474754",
"C	c #5B5B70",
"D	c #9B9BC5",
"E	c #B7B7E0",
"F	c #151518",
"G	c #252527",
"H	c #010101",
"I	c #6A6A86",
"J	c #D0D0FF",
"K	c #CDCDF3",
"L	c #9F9FB7",
"M	c #9393A4",
"N	c #878792",
"O	c #BABAC5",
"P	c #AAAAAF",
"Q	c #0F0F0F",
"R	c #070708",
"S	c #8787A5",
"T	c #A8A8A9",
"U	c #202026",
"V	c #50505C",
"W	c #6A6A76",
"X	c #70707A",
"Y	c #B7B7C2",
"Z	c #0D0D0D",
"  ..   .....    ",
" .+@#  .$%&*=   ",
" .-;>  .,')!~{  ",
" ....  ]^/(_:.  ",
".+  @# <[}|123  ",
".-  .4567890ab  ",
"     cdefghijkl ",
"      m6nopqrstc",
"    cc uv ccwxyc",
"   czA  c c  BCc",
"   cDEF   GH ccc",
"    IJKLMNOPQ   ",
"    RSsjihgfTc  ",
"     cUVWXYPZ   ",
"          GH    ",
"          c     "};
