M48
METRIC
T01C.1
T02C.2
T03C.2032
T04C1.05
T05C1.21
T06C.5
T07C.8
T08C3.2
;LEADER: 12 
;HEADER: 
;CODE  : ASCII 
;FILE  : 48DMVQAD1_SGB-20250729a4-6-7.drl for  ... layers S6 and G7
;DESIGN: 48DMVQAD1_SGB-20250729a4.brd
;T01 Holesize 1. = 0.100000 Tolerance = +0.000000/-0.100000 PLATED MM Quantity = 1423
%
G90
T01
X00467594Y00182936
X00467594Y00186206
X00025500Y00453800
X00025500Y00451300
X00027900Y00453800
X00027900Y00451300
X00030400Y00453800
X00030400Y00451300
X00032800Y00451300
X00032800Y00453800
X00073000Y00547100
X00073000Y00549900
X00073000Y00552500
X00070600Y00547100
X00070600Y00549900
X00070600Y00552500
X00068200Y00547200
X00068200Y00550000
X00068200Y00552600
X00016900Y00490000
R02X00002400
X00017000Y00492300
R02X00002400
X00021800Y00494600
R02X-00002400
X00174100Y00040500
X00173600Y00037500
X00177900Y00039400
X00181000Y00036800
X00171600Y00042050
X00176100Y00042700
X00034000Y00196500
X00070000Y00485200
X00072400Y00485200
X00074900Y00485100
X00070000Y00487800
X00072400Y00487800
X00074900Y00487700
X00074800Y00490100
X00072300Y00490200
X00069900Y00490200
X00217100Y00028000
X00199360Y00043100
X00210160Y00043700
X00225840Y00043700
X00455300Y00190400
X00458492Y00194718
X00120400Y00516000
X00078740Y00206756
X00140462Y00390652
X00073700Y00517800
X00071200Y00517800
X00068500Y00517800
X00073700Y00519900
X00071200Y00519900
X00068500Y00519900
X00073700Y00522100
X00071200Y00522100
X00068500Y00522100
X00059700Y00306324
X00056300Y00086700
X00058400Y00086700
X00065500Y00086700
X00057700Y00084700
X00060600Y00086700
X00063100Y00086700
X00067200Y00084700
X00064700Y00084700
X00062300Y00084700
X00060000Y00084700
X00335566Y00341505
X00298302Y00376791
X00292905Y00376791
X00263689Y00366916
X00269156Y00366563
X00269226Y00361361
X00305980Y00304872
X00306300Y00315368
X00305660Y00309326
X00297600Y00626330
X00296820Y00614930
X00128500Y00037000
X00131200Y00040500
X00131300Y00037000
X00128400Y00040500
X00132620Y00038800
X00129900Y00038800
X00127009Y00038800
X00111570Y00279070
X00189484Y00135636
X00192278Y00135636
X00194818Y00135636
X00197612Y00135636
X00196088Y00137668
X00193294Y00137668
X00190754Y00137668
X00187960Y00137668
X00199136Y00133604
X00196342Y00133604
X00193802Y00133604
X00191008Y00133604
X00113983Y00271123
X00332376Y00322364
X00309637Y00329586
X00303040Y00258040
X00399160Y00373562
X00377210Y00384056
X00398524Y00313778
X00371804Y00310598
X00332786Y00302173
X00332594Y00307257
X00251902Y00335279
X00251902Y00330199
X00264324Y00310280
X00257964Y00310916
X00296083Y00297733
X00277680Y00379604
X00303494Y00381781
X00351700Y00471700
X00115850Y00538750
X00350542Y00509900
X00332232Y00473964
X00371094Y00515366
X00371094Y00517652
X00087600Y00612150
X00091550Y00610100
X00088850Y00610100
X00088960Y00606500
X00087550Y00608300
X00091560Y00606500
X00090250Y00608350
X00094160Y00606500
X00092850Y00608250
X00095600Y00608250
X00096960Y00606500
X00323849Y00118600
X00108200Y00048100
X00106300Y00049700
X00111500Y00048200
X00109600Y00049800
X00115000Y00048200
X00113100Y00049800
X00118400Y00048200
X00116500Y00049800
X00119900Y00049800
X00121800Y00048200
X00188976Y00149352
X00132334Y00300482
X00134112Y00297942
X00131572Y00298196
X00133096Y00295656
X00131572Y00277622
X00108984Y00276122
X00080772Y00389636
X00088984Y00271123
X00076454Y00273558
X00115316Y00204470
X00088984Y00246122
X00076862Y00248228
X00090878Y00224228
X00077216Y00219202
X00189600Y00329200
X00189700Y00366100
X00253960Y00657880
X00253930Y00655510
X00253880Y00653210
X00256250Y00657880
X00256220Y00655510
X00256170Y00653210
X00258490Y00657950
X00258460Y00655580
X00258410Y00653280
X00260750Y00653340
X00260800Y00655640
X00260830Y00658010
X00472440Y00477266
X00472948Y00455168
X00098800Y00318400
X00098800Y00321150
X00096400Y00321050
X00127100Y00365650
X00128650Y00369700
X00129200Y00366150
X00096500Y00318400
X00099500Y00428800
X00099500Y00431200
X00099500Y00433400
X00127254Y00367792
X00149550Y00417750
X00155600Y00424300
X00352552Y00527304
X00153029Y00514229
X00362966Y00560832
X00333502Y00566674
X00328676Y00567182
X00330962Y00567182
X00331724Y00565150
X00361950Y00562864
X00359664Y00562864
X00011938Y00419862
X00134850Y00026650
X00206200Y00407400
X00175700Y00093100
X00127000Y00223774
X00138700Y00048400
X00048768Y00216408
X00139972Y00045872
X00046736Y00207010
X00125900Y00170500
X00179100Y00091500
X00128778Y00227838
X00336549Y00057451
X00034544Y00262890
X00034800Y00213500
X00253746Y00085344
X00253746Y00088900
X00347100Y00463000
X00364236Y00512064
X00372364Y00531622
X00361442Y00512064
X00394716Y00145288
X00269412Y00351302
X00200406Y00163576
X00148984Y00221121
X00374649Y00079052
X00141732Y00263398
X00387349Y00079052
X00098984Y00236122
X00192600Y00395600
X00124460Y00178054
X00197500Y00399500
X00328678Y00483609
X00058166Y00225552
X00200050Y00404350
X00403818Y00520513
X00257125Y00324872
X00246834Y00319180
X00082296Y00232664
X00407088Y00520513
X00094234Y00280416
X00416425Y00487000
X00183896Y00145288
X00416425Y00492000
X00418120Y00561850
X00422975Y00502000
X00406500Y00502830
X00414850Y00561850
X00422975Y00507000
X00406500Y00506100
X00433708Y00532900
X00430438Y00532900
X00099060Y00280670
X00151200Y00616575
X00064600Y00094700
X00057000Y00074600
X00333000Y00349500
X00343188Y00334766
X00301932Y00302521
X00333549Y00346317
X00089916Y00250952
X00123985Y00226122
X00328678Y00486879
X00400049Y00080830
X00138891Y00221028
X00063086Y00426214
X00064900Y00417000
X00135400Y00358800
X00190700Y00362900
X00128905Y00251333
X00412749Y00080830
X00138492Y00255255
X00276851Y00438451
X00022606Y00241046
X00425449Y00080830
X00136144Y00259080
X00426466Y00165354
X00131485Y00268645
X00438149Y00080830
X00131572Y00273812
X00450849Y00080830
X00191600Y00375500
X00138984Y00261123
X00188200Y00374600
X00123985Y00271123
X00156300Y00029100
X00017018Y00265938
X00156100Y00025400
X00016764Y00269494
X00144100Y00324800
X00062738Y00190300
X00256671Y00342134
X00186182Y00273558
X00151000Y00031500
X00046736Y00264922
X00187198Y00266446
X00275000Y00178000
X00272792Y00178000
X00272227Y00208006
X00276098Y00199644
X00054610Y00282956
X00058166Y00283210
X00067300Y00092800
X00061214Y00286258
X00081300Y00400400
X00081262Y00397936
X00081300Y00403000
X00078700Y00400400
X00078662Y00397936
X00078700Y00403000
X00076200Y00403000
X00076200Y00400400
X00076162Y00397936
X00152908Y00070104
X00151892Y00075184
X00151892Y00072644
X00150368Y00070104
X00149352Y00075184
X00149352Y00072644
X00145796Y00070104
X00148082Y00070104
X00144272Y00072644
X00146812Y00072644
X00146812Y00075184
X00144018Y00075438
X00196849Y00118200
X00045720Y00233426
X00043434Y00207010
X00322985Y00374631
X00316476Y00366566
X00322023Y00366004
X00066248Y00253362
X00065400Y00272400
X00066294Y00243586
X00265500Y00623375
X00270500Y00623375
X00250500Y00623475
X00255500Y00623475
X00069596Y00265176
X00372618Y00168910
X00156200Y00616575
X00136200Y00616575
X00109220Y00231648
X00141200Y00616575
X00199400Y00622100
X00204400Y00622100
X00383032Y00566928
R02X00002032
X00255889Y00441289
X00252619Y00441289
X00230000Y00286960
X00237229Y00243008
X00181200Y00504192
X00241101Y00440972
X00193900Y00522425
X00181200Y00507462
X00244371Y00440972
X00188900Y00522425
X00252062Y00508300
X00267129Y00441272
X00269388Y00521713
X00248792Y00508300
X00263859Y00441272
X00266118Y00521713
X00290267Y00392385
X00375064Y00207500
X00287701Y00438466
X00156200Y00032600
X00043942Y00246126
X00284431Y00438466
X00273581Y00438451
X00382726Y00039000
X00472400Y00435600
X00245600Y00636900
X00057658Y00193294
X00365140Y00048526
X00269300Y00642500
X00407500Y00392000
X00376264Y00294062
X00392800Y00384692
X00377536Y00390734
X00425559Y00419500
X00411554Y00411086
X00333231Y00372035
X00330450Y00338665
X00333966Y00356390
X00447810Y00303916
X00386754Y00276568
X00430320Y00281020
X00329051Y00315368
X00455093Y00281024
X00468700Y00437200
X00271301Y00387699
X00341966Y00299803
X00338272Y00299874
X00318384Y00337946
X00317311Y00335929
X00317748Y00351938
X00318307Y00360603
X00306578Y00355092
X00306618Y00344624
X00305028Y00346214
X00294852Y00366884
X00304710Y00367838
X00300837Y00366317
X00296442Y00352256
X00295806Y00347168
X00295536Y00355990
X00295218Y00361091
X00298583Y00335381
X00297000Y00339113
X00274000Y00367354
X00274810Y00350326
X00275500Y00361500
X00274548Y00358755
X00315204Y00317912
X00481000Y00435200
X00391100Y00050100
X00415800Y00038000
X00083400Y00534800
X00106426Y00278892
X00079000Y00535900
X00102616Y00279400
X00043434Y00236498
X00043180Y00211836
X00420500Y00170688
X00422500Y00038900
X00286990Y00614460
X00290630Y00617450
X00402500Y00053000
X00157000Y00530540
X00147600Y00528340
X00177118Y00064832
X00290267Y00389115
X00371794Y00207500
X00173200Y00064800
X00298202Y00324217
X00278788Y00289693
X00271220Y00295719
X00292944Y00324594
X00296482Y00318913
X00279588Y00318548
X00274512Y00318517
X00282705Y00330306
X00277680Y00329678
X00281305Y00324386
X00277044Y00321728
X00278952Y00335402
X00285306Y00309058
X00276332Y00301800
X00277911Y00303828
X00274182Y00308054
X00279522Y00313776
X00288289Y00307644
X00274515Y00314134
X00478100Y00436200
X00401300Y00043700
X00470500Y00432600
X00186234Y00064632
X00076200Y00267208
X00073700Y00187600
X00198426Y00064632
X00207300Y00064600
X00216700Y00064500
X00344000Y00342500
X00400114Y00275300
X00338418Y00369114
X00371176Y00364022
X00342870Y00312502
X00462120Y00319498
X00464660Y00349712
X00461802Y00331900
X00366088Y00325544
X00117602Y00225298
X00115062Y00211335
X00410296Y00048526
X00115570Y00221121
X00113983Y00241121
X00465628Y00048526
X00109474Y00234950
X00340795Y00229464
X00118984Y00241121
X00419518Y00048526
X00113497Y00234672
X00123985Y00231121
X00272227Y00228006
X00432100Y00475400
X00316837Y00380876
X00272136Y00335752
X00262416Y00334766
X00381426Y00188042
X00370002Y00176962
X00353417Y00156629
X00350988Y00160742
X00430639Y00419500
X00452700Y00036100
X00406474Y00411086
X00341000Y00253040
X00475300Y00436200
X00429500Y00035600
X00296000Y00312500
X00355952Y00201620
R06Y00002226
X00327606Y00322046
X00297078Y00328406
X00327818Y00363770
X00326334Y00354800
X00328422Y00348234
X00326970Y00327134
X00330966Y00328584
X00326334Y00317594
X00317521Y00344840
X00315639Y00330043
X00312097Y00365547
X00313521Y00350055
X00310679Y00361231
X00312910Y00339965
X00312910Y00334569
X00267504Y00324590
X00295174Y00314414
X00290082Y00314100
X00283722Y00367520
X00286338Y00370110
X00287556Y00346734
X00287856Y00351620
X00284358Y00355118
X00285630Y00361478
X00284040Y00360206
X00232227Y00238006
X00314000Y00297000
X00322352Y00307017
X00322498Y00311594
X00322307Y00301929
X00322200Y00297242
X00232227Y00233008
X00213900Y00266100
X00213900Y00269400
X00315911Y00375609
X00294534Y00304238
X00129286Y00389636
X00234188Y00392684
X00281370Y00349492
X00267300Y00345905
X00316000Y00309500
X00303198Y00329112
X00258620Y00357424
X00256864Y00348528
X00258620Y00362821
X00258620Y00368218
X00345000Y00247500
X00282132Y00341126
X00288073Y00339267
X00376100Y00470200
X00143000Y00044348
X00044704Y00242824
X00191400Y00089200
X00120904Y00213868
X00315204Y00314414
X00282227Y00223008
X00192800Y00379000
X00062000Y00361900
X00048768Y00229108
X00034800Y00204700
X00133800Y00056000
X00060400Y00072100
X00174200Y00055700
X00167700Y00096200
X00228244Y00238182
X00086360Y00194564
X00140500Y00497600
X00138800Y00496316
X00408900Y00142500
X00391400Y00412600
X00411000Y00142509
X00389890Y00414020
X00136600Y00050400
X00052451Y00219329
X00134600Y00052400
X00053848Y00215646
X00365609Y00156621
X00365938Y00158594
X00324358Y00187198
X00324029Y00185225
X00327481Y00193743
X00327152Y00191770
X00389636Y00134366
X00391668Y00203200
X00391682Y00200908
X00460648Y00116954
X00458844Y00120928
X00460648Y00122042
X00459058Y00118226
X00460455Y00119741
X00458844Y00126334
X00460648Y00127448
X00459058Y00123632
X00460455Y00125147
X00458526Y00131740
X00460330Y00132854
X00458740Y00129038
X00460137Y00130553
X00460330Y00138260
X00460137Y00135959
X00458526Y00137146
X00458740Y00134444
X00391318Y00169135
X00388817Y00169043
X00378404Y00202306
X00378404Y00204532
X00232227Y00243008
X00232227Y00228006
X00424000Y00163000
X00233195Y00223798
X00228244Y00233094
X00228244Y00228006
X00202400Y00402500
X00343916Y00347726
X00361950Y00081280
X00142240Y00224282
X00262280Y00200550
X00271750Y00239430
X00271890Y00232180
X00114808Y00217932
X00097536Y00246825
X00074676Y00214122
X00450850Y00588460
X00393500Y00504850
X00388950Y00498950
X00389300Y00490850
X00419180Y00484600
X00419110Y00494310
X00425800Y00499200
X00418490Y00500230
X00418680Y00509260
X00409960Y00525530
X00415770Y00529040
X00423950Y00544250
X00426500Y00549750
X00429650Y00544950
X00427400Y00539300
X00434600Y00540450
X00439550Y00541550
X00446300Y00534900
X00446350Y00546450
X00445100Y00558700
X00432550Y00549700
X00439550Y00550550
X00410600Y00520650
X00410420Y00529610
X00415500Y00541700
X00387650Y00557250
X00382900Y00552600
X00365000Y00539200
X00393000Y00552100
X00398950Y00553950
X00407500Y00557500
X00406750Y00552350
X00401300Y00546750
X00400900Y00539200
X00388350Y00547700
X00419050Y00547350
X00418850Y00540450
X00417050Y00536400
X00399250Y00533650
X00262050Y00183950
X00245100Y00184350
X00228700Y00184850
X00250300Y00191700
X00265200Y00192750
X00236700Y00192100
X00226900Y00202000
X00223850Y00218650
X00229850Y00212700
X00235350Y00207500
X00241100Y00202400
X00224350Y00243900
X00227700Y00244100
X00232350Y00247100
X00262350Y00251250
X00241550Y00245550
X00224050Y00237750
X00230350Y00240250
X00237250Y00237650
X00230350Y00235350
X00230850Y00225600
X00230100Y00230350
X00239500Y00230850
X00262700Y00237750
X00255600Y00237550
X00254600Y00225950
X00255250Y00220250
X00247550Y00222500
X00400000Y00292500
X00446900Y00285250
X00445150Y00292950
X00423000Y00273300
X00412500Y00273900
X00418600Y00280300
X00404700Y00281400
X00397400Y00281300
X00388950Y00286800
X00379050Y00287500
X00368500Y00275250
X00369100Y00281550
X00350750Y00284000
X00362400Y00288100
X00367500Y00294400
X00359100Y00294150
X00349950Y00291650
X00340450Y00289200
X00257950Y00302000
X00258500Y00289450
X00261150Y00284150
X00252450Y00286850
X00253000Y00295200
X00252850Y00301900
X00263000Y00302300
X00275000Y00252300
X00272950Y00258550
X00263900Y00260600
X00255300Y00252300
X00254150Y00261150
X00231550Y00252450
X00225300Y00259250
X00232600Y00261600
X00242350Y00252000
X00243950Y00260750
X00431050Y00207400
X00476200Y00186400
X00476500Y00202850
X00455300Y00207650
X00465850Y00218150
X00462600Y00199050
X00453200Y00154800
X00467000Y00164950
X00468200Y00177450
X00446350Y00194350
X00433850Y00162550
X00442150Y00167800
X00451450Y00173850
X00453450Y00185050
X00433900Y00178550
X00435500Y00193400
X00426250Y00185700
X00421450Y00194000
X00426050Y00177250
X00411450Y00193900
X00415650Y00180600
X00389600Y00219900
X00387600Y00265850
X00391100Y00239750
X00398950Y00212100
X00407850Y00203650
X00408000Y00217350
X00449350Y00252150
X00447450Y00237600
X00437550Y00229700
X00430700Y00243550
X00436100Y00252900
X00419650Y00233950
X00416850Y00254650
X00409150Y00245900
X00419700Y00221850
X00474600Y00226700
X00453850Y00227250
X00462150Y00236550
X00459700Y00252300
X00460150Y00277200
X00464800Y00268300
X00444550Y00262650
X00427050Y00259150
X00402750Y00258700
X00439900Y00182200
X00429550Y00679150
X00431700Y00671100
X00432600Y00654500
X00467850Y00639650
X00486800Y00619850
X00163900Y00436000
X00149350Y00455350
X00112250Y00403800
X00107350Y00409900
X00103950Y00418150
X00104800Y00398850
X00096100Y00407850
X00006150Y00300750
X00006300Y00314150
X00006300Y00328600
X00006300Y00340300
X00006200Y00372850
X00006200Y00393450
X00006350Y00410000
X00010600Y00462300
X00011050Y00451600
X00012150Y00439500
X00006450Y00433900
X00007050Y00444850
X00006450Y00459550
X00006450Y00472350
X00011650Y00476800
X00016800Y00469150
X00020450Y00476150
X00025500Y00469150
X00031150Y00483500
X00031000Y00474650
X00035150Y00469750
X00035600Y00480950
X00035900Y00492200
X00035950Y00507850
X00017900Y00517150
X00012200Y00528100
X00025250Y00523300
X00035450Y00515850
X00035000Y00526250
X00036550Y00564350
X00022000Y00578050
X00018650Y00582550
X00029000Y00589700
X00017300Y00596100
X00038750Y00592900
X00471200Y00650300
X00467550Y00670400
X00326400Y00679000
X00463900Y00679000
X00478050Y00678850
X00448450Y00625050
X00434200Y00622300
X00449600Y00619700
X00461250Y00620250
X00449350Y00632350
X00438100Y00631650
X00431250Y00613400
X00429350Y00631350
X00368600Y00598700
X00413950Y00610350
X00412450Y00615000
X00368500Y00622900
X00380150Y00623450
X00379400Y00617350
X00392200Y00617050
X00403600Y00616350
X00404300Y00624350
X00397200Y00627250
X00403000Y00632950
X00386850Y00633400
X00351000Y00624400
X00355750Y00616700
X00355300Y00633300
X00365400Y00617150
X00365150Y00629250
X00272700Y00662900
X00286100Y00662600
X00295550Y00656300
X00305200Y00646550
X00331400Y00632300
X00323550Y00630850
X00279700Y00620850
X00279000Y00614750
X00264200Y00599700
X00254650Y00599050
X00261550Y00606000
X00219650Y00623050
X00239500Y00630300
X00232350Y00622900
X00226350Y00616900
X00219650Y00610200
X00180700Y00605500
X00189350Y00605500
X00186600Y00615150
X00190550Y00621800
X00181450Y00622300
X00176050Y00614900
X00171400Y00605700
X00167800Y00613800
X00167300Y00622100
X00160950Y00616850
X00113550Y00603350
X00109900Y00611450
X00119800Y00610500
X00125900Y00609100
X00131750Y00617650
X00119100Y00617450
X00106700Y00617650
X00127150Y00622600
X00110250Y00622600
X00081400Y00622450
X00093300Y00562150
X00114150Y00557900
X00105400Y00566500
X00097650Y00573050
X00224250Y00534850
X00212100Y00534750
X00227850Y00538550
X00286100Y00513800
X00280550Y00523700
X00297850Y00504750
X00289000Y00520250
X00297950Y00518500
X00300300Y00526250
X00285450Y00526750
X00293400Y00532200
X00278900Y00531100
X00297850Y00537800
X00304000Y00532650
X00304550Y00515150
X00394150Y00496800
X00400150Y00506500
X00400850Y00511900
X00380400Y00433700
X00390200Y00442300
X00396900Y00449550
X00399950Y00441100
X00409400Y00452050
X00421750Y00471000
X00419300Y00477850
X00427900Y00480650
X00410850Y00479450
X00410850Y00471750
X00349500Y00482450
X00382050Y00499850
X00378200Y00502400
X00378800Y00460450
X00373400Y00454350
X00374100Y00462200
X00373850Y00478800
X00362200Y00458200
X00351850Y00465750
X00361900Y00466800
X00355900Y00452950
X00341950Y00462300
X00346000Y00449900
X00333350Y00453400
X00327950Y00442050
X00320200Y00434600
X00235600Y00434150
X00228300Y00434900
X00300250Y00445100
X00311350Y00445250
X00318200Y00442750
X00309900Y00452350
X00321800Y00452950
X00298100Y00452500
X00242300Y00517050
X00232800Y00512400
X00230800Y00523750
X00234250Y00505400
X00211550Y00509050
X00218700Y00499850
X00216800Y00514700
X00206450Y00516450
X00219400Y00523150
X00205850Y00523600
X00167850Y00512850
X00163850Y00515850
X00161600Y00529700
X00155100Y00517150
X00158820Y00513150
X00166600Y00508250
X00177700Y00506200
X00181300Y00497400
X00177900Y00494900
X00170150Y00501850
X00117650Y00500500
X00118300Y00505600
X00127950Y00505700
X00137000Y00505750
X00151450Y00496850
X00146200Y00482450
X00142400Y00488550
X00147400Y00490700
X00150600Y00486800
X00170150Y00477000
X00175650Y00474200
X00202500Y00471150
X00208850Y00477150
X00196050Y00477400
X00196850Y00465900
X00205200Y00451650
X00198500Y00459050
X00211050Y00458650
X00222400Y00454600
X00211900Y00447350
X00198200Y00447800
X00157550Y00467100
X00170950Y00467300
X00180900Y00464300
X00180450Y00446250
X00171150Y00444700
X00163600Y00429800
X00171700Y00438500
X00165050Y00451850
X00159100Y00443850
X00144950Y00458850
X00150200Y00462350
X00074550Y00301600
X00073750Y00368950
X00073450Y00375250
X00053350Y00360100
X00060750Y00366950
X00063550Y00355400
X00085450Y00328250
X00121800Y00336350
X00121500Y00344950
X00113950Y00341000
X00122000Y00356150
X00147250Y00381700
X00139450Y00376050
X00138500Y00364500
X00132150Y00362350
X00122174Y00361950
X00122174Y00367792
X00116800Y00376150
X00116350Y00366300
X00116650Y00351300
X00096250Y00344000
X00096450Y00327400
X00127800Y00341000
X00105184Y00341033
X00114150Y00332950
X00064150Y00283350
X00045250Y00285050
X00040550Y00277200
X00034900Y00271300
X00037900Y00258250
X00039850Y00251100
X00213500Y00069600
X00219150Y00070250
X00329950Y00107350
X00340000Y00107300
X00354000Y00107300
X00366250Y00107100
X00376100Y00107500
X00382200Y00109000
X00404200Y00103600
X00405500Y00110250
X00412300Y00099400
X00419500Y00103900
X00419400Y00110300
X00469950Y00074550
X00501150Y00062900
X00492550Y00062050
X00486300Y00047450
X00483200Y00032000
X00481050Y00039900
X00329950Y00019800
X00342500Y00051250
X00358500Y00048600
X00373100Y00039150
X00379050Y00049200
X00380400Y00033750
X00387100Y00030100
X00396700Y00037250
X00394800Y00025900
X00405600Y00032300
X00410950Y00042050
X00418400Y00042350
X00428300Y00042950
X00435150Y00041800
X00441700Y00035500
X00448400Y00041350
X00462250Y00035950
X00472300Y00041500
X00480450Y00053800
X00459850Y00075450
X00467550Y00084150
X00478800Y00076600
X00478950Y00089550
X00479350Y00113150
X00472950Y00131800
X00469450Y00107600
X00458250Y00108500
X00461650Y00098900
X00267400Y00120700
X00266300Y00130900
X00268150Y00140050
X00263100Y00143650
X00254300Y00146700
X00253850Y00130750
X00240800Y00145150
X00245700Y00149700
X00236450Y00153100
X00257150Y00156550
X00267900Y00156600
X00245750Y00155000
X00238450Y00166300
X00252250Y00166200
X00266350Y00166450
X00226900Y00162500
X00225000Y00175300
X00243950Y00175750
X00256000Y00175750
X00266650Y00176050
X00017000Y00060650
X00016600Y00067450
X00032300Y00064100
X00035350Y00042300
X00038000Y00047650
X00055200Y00019150
X00045400Y00026600
X00140450Y00020000
X00117300Y00008000
X00111100Y00014400
X00219500Y00030350
X00199350Y00024850
X00193000Y00030200
X00189400Y00042150
X00197150Y00049750
X00204000Y00055300
X00213900Y00058750
X00223800Y00065350
X00061700Y00445300
X00419610Y00482490
X00425100Y00483300
X00434600Y00487400
X00430400Y00485800
X00429700Y00497400
X00434800Y00497700
X00433600Y00504200
X00428900Y00501100
X00429100Y00493200
X00405500Y00509500
X00403300Y00501200
X00408900Y00515500
X00402700Y00515200
X00416300Y00511100
X00428700Y00509500
X00438700Y00534600
X00427100Y00524700
X00413000Y00530900
X00413000Y00525800
X00413000Y00521425
X00331200Y00498700
X00328000Y00495200
X00321500Y00482900
X00328500Y00479800
X00328600Y00491000
X00350000Y00530200
X00349900Y00534100
X00304500Y00503000
X00291000Y00482600
X00303900Y00538300
X00309700Y00538200
X00332500Y00538100
X00302300Y00497600
X00241600Y00474200
X00241400Y00482200
X00253800Y00476000
X00246200Y00525400
X00245900Y00534700
X00262700Y00537050
X00256100Y00537400
X00289400Y00538200
X00282300Y00536400
X00274100Y00534200
X00274200Y00527100
X00273700Y00520800
X00271300Y00514500
X00261500Y00511900
X00247400Y00516500
X00246000Y00510600
X00255400Y00507800
X00254700Y00505100
X00245600Y00505900
X00205000Y00505300
X00192900Y00506100
X00199900Y00510400
X00198300Y00520000
X00197900Y00525900
X00169700Y00531000
X00167800Y00526750
X00170400Y00517900
X00173300Y00513100
X00186300Y00516800
X00180100Y00516700
X00195000Y00516200
X00178100Y00501800
X00183800Y00509800
X00178300Y00510000
X00213000Y00474200
X00218100Y00469200
X00222600Y00475700
X00227800Y00471000
X00222800Y00464500
X00227000Y00459800
X00233100Y00465400
X00279100Y00482700
X00264800Y00475200
X00264200Y00459800
X00278700Y00459800
X00282400Y00460200
X00289600Y00465100
X00289900Y00451200
X00289700Y00444800
X00291100Y00440600
X00282300Y00444300
X00282300Y00449400
X00278900Y00444300
X00278900Y00449400
X00270000Y00447400
X00261600Y00449200
X00258200Y00447600
X00245600Y00452200
X00246800Y00445600
X00238800Y00444100
X00212700Y00064500
X00206300Y00060100
X00368500Y00534140
X00290200Y00624900
X00303700Y00614300
X00150926Y00447700
X00184000Y00530900
X00183900Y00522425
X00183900Y00526800
X00374700Y00591100
X00448700Y00549500
X00374700Y00547200
X00337800Y00547200
X00298450Y00549460
X00260350Y00549460
X00222200Y00554200
X00184600Y00554900
X00146100Y00555100
X00107800Y00555200
X00108100Y00586400
X00146150Y00582700
X00147250Y00595300
X00184100Y00591000
X00184100Y00583600
X00222200Y00591000
X00222100Y00583700
X00260300Y00583600
X00260200Y00591100
X00260500Y00616500
X00260500Y00621200
X00260500Y00625575
X00234949Y00080830
X00224858Y00049112
X00202062Y00048858
X00210998Y00049120
X00122900Y00140700
X00098900Y00141000
X00093100Y00118800
X00062300Y00438440
X00176530Y00139870
X00173800Y00142500
X00153900Y00142900
X00139400Y00140198
X00186234Y00060632
X00396000Y00493000
X00378700Y00480100
X00196596Y00154686
X00282839Y00306700
X00284000Y00299800
X00297200Y00307100
X00261699Y00386000
X00291500Y00300500
X00286500Y00327000
X00350040Y00343500
X00407000Y00397540
X00224000Y00292040
X00230000Y00292040
X00087376Y00210820
X00367050Y00153971
X00345860Y00235814
X00345875Y00229464
X00335562Y00327987
X00336925Y00322868
X00317112Y00386918
X00326418Y00384000
X00308844Y00351302
X00309445Y00314768
X00312660Y00375470
X00292905Y00381871
X00298302Y00381871
X00294984Y00370737
X00300837Y00371397
X00303494Y00376701
X00292314Y00350573
X00292944Y00329360
X00282132Y00379604
X00280500Y00367000
X00280562Y00356061
X00287828Y00329801
X00284393Y00319701
X00289764Y00319184
X00269156Y00371643
X00274000Y00371500
X00263759Y00371643
X00262897Y00351852
X00270000Y00356146
X00263500Y00357000
X00262220Y00345905
X00272879Y00324799
X00269090Y00319005
X00320699Y00322283
X00320365Y00317217
X00304499Y00323826
X00306530Y00323739
X00314700Y00324027
X00312024Y00317912
X00305982Y00319184
X00300486Y00319188
X00299654Y00314080
X00300500Y00309300
X00288390Y00289693
X00342870Y00307418
X00337674Y00307257
X00332694Y00296924
X00327432Y00296815
X00304170Y00361811
X00302071Y00350031
X00301212Y00356072
X00321301Y00356042
X00322350Y00349699
X00322130Y00340545
X00319606Y00329280
X00308042Y00334858
X00462280Y00055880
X00462280Y00081280
X00043180Y00093980
X00386080Y00093980
X00474980Y00093980
X00043180Y00106680
X00208280Y00119380
X00474980Y00119380
X00474980Y00144780
X00462280Y00157480
X00474980Y00157480
X00132080Y00170180
X00182880Y00170180
X00157480Y00182880
X00182880Y00195580
X00259050Y00246600
X00043180Y00259080
X00055880Y00347980
X00068580Y00347980
X00144780Y00373380
X00220980Y00373380
X00259080Y00373380
X00106680Y00386080
X00144780Y00386080
X00144780Y00398780
X00297180Y00436880
X00309880Y00436880
X00386080Y00436880
X00170180Y00449580
X00259080Y00474980
X00093980Y00487680
X00347980Y00487680
X00183600Y00501700
X00373380Y00525780
X00438900Y00526400
X00246380Y00538480
X00349100Y00538500
X00373380Y00538480
X00246380Y00563880
X00259080Y00563880
X00081280Y00589280
X00424180Y00589280
X00344850Y00614700
X00043180Y00627380
X00373380Y00627380
X00386080Y00627380
X00469278Y00031520
X00456578Y00031520
X00431578Y00033020
X00418478Y00031520
X00339739Y00346343
X00404240Y00373562
X00272227Y00213008
X00267229Y00228006
X00247324Y00219014
X00261829Y00329949
X00260300Y00295300
X00280576Y00345755
X00276324Y00345572
X00403604Y00313778
X00366724Y00310598
X00372130Y00384056
X00461802Y00326820
X00462120Y00314418
X00464695Y00281024
X00459580Y00349712
X00430320Y00275940
X00405194Y00275300
X00397880Y00384692
X00382616Y00390734
X00381344Y00294062
X00386754Y00271488
X00333648Y00377060
X00328397Y00374802
X00306618Y00371018
X00311450Y00371401
X00282989Y00335283
X00288174Y00335720
X00279906Y00361160
X00285417Y00313215
X00269095Y00308212
X00284300Y00302500
X00291036Y00297878
X00269095Y00302816
X00269095Y00313608
X00263532Y00316014
X00257646Y00315368
X00272723Y00330035
X00272703Y00340496
X00291354Y00344624
X00292975Y00337394
X00290718Y00365930
X00290044Y00371497
X00338418Y00374194
X00323596Y00361188
X00300357Y00346004
X00323472Y00334130
X00327914Y00345186
M30
