M48
METRIC
T01C.1
T02C.2
T03C.2032
T04C1.05
T05C1.21
T06C.5
T07C.8
T08C3.2
;LEADER: 12 
;HEADER: 
;CODE  : ASCII 
;FILE  : 48DMVQAD1_SGB-20250729a4-1-8.drl for  ... layers TOP and BOTTOM
;DESIGN: 48DMVQAD1_SGB-20250729a4.brd
;T03 Holesize 1. = 0.203200 Tolerance = +0.076200/-0.076200 PLATED MM Quantity = 224
;T04 Holesize 2. = 1.050000 Tolerance = +0.076200/-0.076200 PLATED MM Quantity = 32
;T05 Holesize 3. = 1.210000 Tolerance = +0.076200/-0.076200 PLATED MM Quantity = 6
;T06 Holesize 4. = 0.500000 Tolerance = +0.050800/-0.050800 NON_PLATED MM Quantity = 2
;T07 Holesize 5. = 0.800000 Tolerance = +0.050800/-0.050800 NON_PLATED MM Quantity = 4
;T08 Holesize 6. = 3.200000 Tolerance = +0.050800/-0.050800 NON_PLATED MM Quantity = 4
%
G90
T03
X00042400Y00082700
X00042450Y00075550
X00042200Y00069100
X00042500Y00063500
X00041600Y00042550
X00491235Y00050137
X00457500Y00598700
X00457500Y00594100
X00457500Y00585200
X00457600Y00589600
X00461400Y00596800
X00455700Y00511300
X00044200Y00047400
X00501203Y00570897
X00501700Y00560400
X00034290Y00136652
X00033020Y00141986
X00501100Y00599000
X00508000Y00556900
X00377969Y00666629
X00372635Y00666629
X00230050Y00566050
X00233680Y00564134
X00519300Y00570500
X00441993Y00473456
X00513590Y00569900
X00222200Y00646350
X00229150Y00673300
X00241500Y00646050
X00426600Y00093900
X00435150Y00102200
X00403050Y00452850
X00410450Y00459350
X00418100Y00466100
X00410950Y00466450
X00400450Y00464950
X00292950Y00562450
X00280150Y00562350
X00270800Y00562700
X00224650Y00507600
X00241350Y00507350
X00210900Y00467400
X00018250Y00207750
X00018050Y00165200
X00018400Y00139150
X00021200Y00114350
X00047250Y00053650
X00038100Y00052950
X00097850Y00026250
X00098450Y00014300
X00316950Y00043600
X00298500Y00035650
X00291950Y00016950
X00228450Y00014000
X00266350Y00016650
X00266350Y00031050
X00237200Y00007550
X00220900Y00007650
X00234450Y00021700
X00336800Y00043200
X00379650Y00024750
X00501950Y00215550
X00501800Y00189900
X00501350Y00164200
X00500500Y00138300
X00492450Y00044050
X00500100Y00113150
X00501250Y00087850
X00495250Y00055500
X00515150Y00063350
X00515550Y00088600
X00515550Y00114700
X00515150Y00139250
X00515550Y00164500
X00515250Y00190850
X00514900Y00215300
X00515200Y00281700
X00515350Y00308350
X00515750Y00332750
X00515650Y00383700
X00515050Y00358300
X00515200Y00434500
X00499150Y00434350
X00500000Y00408800
X00515900Y00409800
X00516050Y00484700
X00499900Y00485150
X00499800Y00510600
X00516200Y00607500
X00497300Y00606500
X00497750Y00619150
X00518050Y00619250
X00519300Y00638550
X00501850Y00639000
X00480600Y00638700
X00480850Y00655050
X00501700Y00655300
X00519150Y00656300
X00502550Y00664650
X00250530Y00645560
X00243450Y00633000
X00249650Y00640350
X00260350Y00640650
X00381300Y00662100
X00368700Y00662500
X00007620Y00599598
R02Y-00012700
X00032800Y00638600
X00023100Y00638300
X00057000Y00638500
X00051600Y00638500
X00372850Y00633400
X00341660Y00607350
X00222150Y00656000
X00222884Y00666880
X00016300Y00570000
X00029200Y00570200
X00036400Y00579300
X00017700Y00617800
X00016000Y00607800
X00023800Y00631900
X00024000Y00622900
X00015800Y00638200
X00044200Y00638400
X00055880Y00030480
X00335280Y00030480
X00455300Y00100850
X00024200Y00190600
X00475700Y00212400
X00395500Y00249200
X00500380Y00246380
X00513080Y00246380
X00513080Y00513080
X00347980Y00652980
X00360680Y00652980
X00386080Y00652980
X00398780Y00652980
X00411400Y00653100
X00347980Y00665480
X00359550Y00664750
X00390400Y00664500
X00398780Y00665480
X00411480Y00665480
X00487680Y00665480
X00223184Y00678180
X00312084Y00678180
X00350184Y00678180
X00360400Y00678150
X00375584Y00678180
X00389250Y00678200
X00400984Y00678180
X00413684Y00678180
X00439084Y00678180
X00451784Y00678180
X00489884Y00678180
R02X00012700
X00525780Y00671030
R10Y-00012700
X00525780Y00518630
R02Y-00012700
X00525780Y00455130
R32Y-00012700
X00519612Y00037628
X00507778Y00033020
X00495078Y00033020
X00385908Y00018224
X00376927Y00009243
X00338932Y00007620
X00326232Y00007620
X00097632Y00007620
X00059532Y00007620
X00048207Y00013368
X00039227Y00022348
X00007620Y00485298
R03Y00012700
X00007620Y00561498
X00007620Y00612298
X00007620Y00624998
X00007620Y00637698
T04
X00025400Y00406400
R07Y-00025400
X00025400Y00177800
R05Y-00025400
X00508000Y00050800
R07Y00025400
X00508000Y00269200
R09Y00025400
T05
X00304910Y00049112
X00304910Y00023712
X00279510Y00049112
X00279510Y00023712
X00254110Y00049112
X00254110Y00023712
T06
X00344460Y00632072
X00412460Y00632072
T07
X00444500Y00568960
X00088900Y00568960
X00088899Y00100330
X00444499Y00100330
T08
X00508000Y00533400
X00355600Y00025400
X00076200Y00025400
X00025400Y00546100
M30
