M48
METRIC
T01C.1
T02C.2
T03C.2032
T04C1.05
T05C1.21
T06C.5
T07C.8
T08C3.2
;LEADER: 12 
;HEADER: 
;CODE  : ASCII 
;FILE  : 48DMVQAD1_SGB-20250729a4-3-6.drl for  ... layers S3 and S6
;DESIGN: 48DMVQAD1_SGB-20250729a4.brd
;T02 Holesize 1. = 0.200000 Tolerance = +0.076200/-0.076200 PLATED MM Quantity = 849
%
G90
T02
X00463551Y00182215
X00463551Y00186985
X00016700Y00455100
X00018400Y00451400
X00020700Y00455200
X00022500Y00451500
X00072900Y00555400
X00072700Y00543900
X00065200Y00548500
X00065200Y00552400
X00068900Y00555500
X00068500Y00543900
X00017100Y00486500
X00021100Y00486500
X00021100Y00482500
X00017100Y00482500
X00105156Y00148336
X00107696Y00137668
X00102362Y00157480
X00175768Y00150876
X00194500Y00288800
X00102362Y00135636
X00111760Y00141478
X00182118Y00150876
X00107188Y00153924
X00198374Y00278602
X00019300Y00199000
X00070400Y00477700
X00074200Y00477700
X00074200Y00481500
X00070400Y00481500
X00204000Y00028000
X00206600Y00043500
X00213500Y00044100
X00218700Y00046600
X00452300Y00190200
X00455602Y00194518
X00388400Y00423400
X00362500Y00154136
X00117400Y00516000
X00075692Y00206756
X00138000Y00392100
X00199700Y00375000
X00434800Y00472600
X00152400Y00438658
X00152400Y00430276
X00152400Y00434340
X00057682Y00462626
X00057682Y00458406
X00059600Y00095700
X00057200Y00089400
X00057200Y00093000
X00057100Y00098300
X00314800Y00661600
X00310800Y00661500
X00312300Y00665200
X00440100Y00643200
X00443700Y00643000
X00442214Y00646176
X00300900Y00509100
X00224700Y00502158
X00195300Y00282100
X00394068Y00436232
X00322744Y00141640
X00338179Y00342914
X00295529Y00374464
X00271810Y00363786
X00304499Y00311819
X00296050Y00630510
X00065800Y00576600
X00067900Y00580300
X00070900Y00576500
X00112251Y00380651
X00140949Y00380651
X00143700Y00038800
X00139900Y00038800
X00136000Y00038800
X00197700Y00069500
X00202100Y00069600
X00196600Y00130100
X00200200Y00129800
X00203800Y00128700
X00201000Y00126000
X00204500Y00125000
X00193400Y00069400
X00107188Y00314452
X00330875Y00324819
X00305816Y00331820
X00392176Y00524256
X00413620Y00203454
X00364112Y00118488
X00436852Y00311322
X00465489Y00378656
X00436371Y00373889
X00398958Y00369221
X00377222Y00380250
X00398640Y00310719
X00371790Y00307070
X00465628Y00307108
X00329669Y00303757
X00326966Y00308311
X00251757Y00338734
X00262546Y00312379
X00296670Y00300821
X00330948Y00361675
X00276670Y00376820
X00306919Y00380821
X00340300Y00468300
X00225700Y00529900
X00253000Y00454900
X00115850Y00541650
X00353743Y00516382
X00334772Y00471170
X00283300Y00623600
X00359300Y00472400
X00358394Y00524002
X00364683Y00531429
X00359918Y00539300
X00362712Y00526288
X00094000Y00614500
X00090400Y00612850
X00098150Y00611150
X00097600Y00614800
X00094250Y00610850
X00111100Y00041300
X00115300Y00041200
X00119800Y00041300
X00121900Y00044500
X00117500Y00044600
R02X-00004200
X00323849Y00115551
X00133300Y00205500
X00412750Y00033528
X00143510Y00080518
X00188976Y00153416
X00133100Y00201200
X00128778Y00300228
X00129540Y00295910
X00106426Y00274320
X00075200Y00389636
X00079756Y00273558
X00114046Y00201676
X00076862Y00251530
X00093472Y00221488
X00074422Y00219202
X00271970Y00653490
X00272070Y00657190
X00267920Y00657440
X00268120Y00653590
X00264220Y00657330
X00127700Y00375450
X00130450Y00372750
X00131600Y00369300
X00146304Y00416052
X00152908Y00423164
X00350520Y00525272
X00150300Y00515400
X00328676Y00564388
X00325882Y00566674
X00360100Y00560100
X00358394Y00529082
X00356362Y00549910
X00220450Y00459250
X00142800Y00473500
X00009707Y00417793
X00055800Y00036500
X00209000Y00406000
X00029718Y00266700
X00031496Y00214376
X00249428Y00087884
X00253492Y00092202
X00084400Y00601200
X00242800Y00564400
X00348742Y00513080
X00330708Y00503682
X00192400Y00383300
X00400760Y00457760
X00354450Y00459050
X00359156Y00516128
X00392068Y00542400
X00346202Y00519430
X00329438Y00511556
X00394208Y00151384
X00363720Y00142700
X00266636Y00351395
X00321397Y00150637
X00231902Y00096400
X00178300Y00030000
X00195500Y00395600
X00178124Y00050100
X00201400Y00398500
X00331500Y00482930
X00159766Y00027940
X00202300Y00406600
X00414140Y00551069
X00389500Y00110220
X00262333Y00339372
X00261671Y00326070
X00166878Y00022098
X00414140Y00546299
X00169672Y00026416
X00413600Y00487000
X00443283Y00206526
X00384556Y00165354
X00413600Y00491770
X00409200Y00502030
X00409200Y00506800
X00434700Y00535700
X00429930Y00535700
X00294000Y00570500
X00381530Y00579400
X00178308Y00023622
X00151430Y00613800
X00094600Y00066900
X00086800Y00067500
X00326100Y00137600
X00300420Y00304819
X00330970Y00342396
X00164338Y00017526
X00137668Y00085100
X00370840Y00155194
X00361828Y00097260
X00331500Y00487700
X00135539Y00355761
X00189600Y00355100
X00277622Y00435356
X00019558Y00240538
X00139900Y00479600
X00214050Y00462250
X00429514Y00165354
X00474726Y00087376
X00385765Y00147424
X00192532Y00351790
X00142500Y00353500
X00143800Y00364200
X00191100Y00359300
X00145288Y00257282
X00060452Y00158750
X00390224Y00117856
X00257670Y00339571
X00142494Y00270510
X00179070Y00160528
X00186944Y00270510
X00190246Y00266700
X00289230Y00570500
X00386300Y00579400
X00279146Y00109728
X00191500Y00169000
X00194500Y00293200
X00114800Y00064500
X00442562Y00590296
X00349521Y00560324
X00122700Y00064300
X00437792Y00590296
X00354291Y00560324
X00101578Y00067078
X00108500Y00067200
X00064900Y00405700
X00064900Y00401200
X00068900Y00401100
X00068900Y00405600
X00072900Y00401100
X00072900Y00405600
X00469400Y00149900
X00467400Y00153000
X00467400Y00156600
X00465900Y00149600
R02X-00003700
X00138938Y00073660
X00153162Y00066802
X00148590Y00066802
X00144272Y00066802
X00141732Y00070612
X00155702Y00071374
X00224200Y00091600
X00332966Y00145946
X00318920Y00364819
X00321670Y00371569
X00406631Y00589026
X00173754Y00167386
X00178524Y00167386
X00411401Y00589026
X00068100Y00280000
X00066040Y00181610
X00057150Y00167132
X00193548Y00162560
X00197400Y00274400
X00128550Y00600330
X00128550Y00605100
X00139900Y00606100
X00144670Y00606100
X00069596Y00262382
X00433800Y00570776
X00366268Y00548640
X00370202Y00170622
X00387096Y00161290
X00409630Y00137409
X00156200Y00613800
X00433800Y00566006
X00361498Y00548640
X00136430Y00613400
X00077900Y00111400
X00141200Y00613400
X00199630Y00617200
X00204400Y00617200
X00235550Y00535050
X00239500Y00535100
X00393700Y00566928
X00389890Y00566928
X00474980Y00406400
X00373888Y00271272
X00389043Y00144146
X00256617Y00438418
X00251847Y00438418
X00240230Y00438200
X00245000Y00438200
X00268000Y00438500
X00263230Y00438500
X00420878Y00205486
X00410726Y00167938
X00414335Y00167825
X00372926Y00144062
X00366824Y00136800
X00288214Y00170862
X00291266Y00174868
X00284398Y00171116
X00292030Y00170862
X00291266Y00167110
X00378480Y00168636
X00288234Y00435356
X00283464Y00435356
X00272571Y00435460
X00379800Y00040400
X00471700Y00440600
X00243100Y00638100
X00058420Y00173482
X00372500Y00045500
X00265800Y00642500
X00423814Y00286200
X00425404Y00289698
X00425086Y00281748
X00449672Y00281070
X00418872Y00411086
X00449201Y00377130
X00465490Y00391570
X00388198Y00279598
X00393489Y00307101
X00409341Y00282303
X00409659Y00293433
X00428421Y00292161
X00444321Y00305518
X00465628Y00294069
X00444578Y00406466
X00432702Y00406466
X00427958Y00392184
X00404578Y00393466
X00408606Y00406534
X00392804Y00381203
X00392706Y00406533
X00376609Y00393631
X00329862Y00371332
X00329299Y00334096
X00330843Y00357160
X00327032Y00313500
X00428012Y00279232
X00374640Y00296920
X00467000Y00439600
X00276500Y00368500
X00276500Y00364500
X00370390Y00235584
R02X-00004770
X00360689Y00231992
X00370527Y00231826
X00365620Y00232084
X00340305Y00297149
X00317441Y00320393
X00309669Y00325820
X00277277Y00357904
X00277496Y00349735
X00317748Y00340808
X00317748Y00349076
X00317671Y00357048
X00305778Y00365217
X00305711Y00349063
X00297712Y00349800
X00296750Y00341852
X00305661Y00357821
X00297670Y00357821
X00294202Y00333373
X00306135Y00341632
X00297722Y00365819
X00481000Y00438200
X00386900Y00045400
X00412100Y00038000
X00423672Y00170688
X00419800Y00037000
X00139960Y00583590
X00386910Y00175766
X00140465Y00587865
X00405600Y00042700
X00139600Y00528300
X00143600Y00524764
X00143600Y00136398
X00375234Y00171777
X00383716Y00178960
X00122174Y00159512
X00393672Y00227316
X00398696Y00227062
X00403720Y00227316
X00403595Y00230884
X00398696Y00230816
X00393789Y00231074
X00297529Y00321521
X00289669Y00324367
X00289814Y00310037
X00277670Y00332820
X00280866Y00321024
X00273546Y00321092
X00277681Y00325820
X00281493Y00327814
X00273536Y00303819
X00277680Y00307736
X00273528Y00311567
X00277681Y00315820
X00476500Y00432700
X00398400Y00043700
X00467800Y00433600
X00128524Y00164338
X00073463Y00266934
X00070866Y00187452
X00133096Y00159766
X00138430Y00159766
X00143764Y00159512
X00403863Y00307070
X00448643Y00335107
X00398479Y00271724
X00427244Y00307070
X00449387Y00349762
X00438640Y00271720
X00465472Y00336762
X00464836Y00346620
X00432702Y00380466
X00404578Y00380466
X00334727Y00318043
X00330544Y00352653
X00333669Y00367569
X00333669Y00335670
X00433509Y00365621
X00365773Y00321100
X00379927Y00313508
X00404625Y00318053
X00426195Y00318360
X00386596Y00333029
X00377540Y00333029
X00384536Y00354173
X00380402Y00353994
X00465490Y00365571
X00404888Y00363395
X00385490Y00372203
X00465490Y00352556
X00465490Y00333069
X00465490Y00320069
X00371192Y00367685
X00334493Y00311500
X00105000Y00106500
X00115500Y00096000
X00408200Y00046300
X00111800Y00099500
X00105900Y00099200
X00463000Y00044400
X00100076Y00097282
X00374248Y00123574
X00100800Y00109900
X00416100Y00046200
X00083200Y00111600
X00125222Y00090170
X00263600Y00224499
X00430100Y00473234
X00199390Y00284819
X00074700Y00588300
X00201500Y00561200
X00309626Y00144018
X00319861Y00376735
X00329438Y00160782
X00274670Y00336821
X00384637Y00192266
X00381225Y00190846
X00349814Y00152676
X00371889Y00174812
X00355597Y00171848
X00345823Y00162800
X00292272Y00206606
R02X00003816
X00298950Y00201836
X00298632Y00210510
X00430639Y00413920
X00448500Y00036100
X00406474Y00414266
X00340500Y00256000
X00174935Y00211003
X00362204Y00494030
X00476900Y00440000
X00426200Y00036600
X00353090Y00213514
R02Y-00003816
X00353060Y00202184
X00325768Y00365604
X00326115Y00349794
X00325698Y00357662
X00325493Y00320285
X00326167Y00330114
X00313669Y00344819
R02Y00008001
X00313753Y00337328
X00313614Y00331904
X00298350Y00331586
X00269669Y00327819
X00294330Y00310000
X00286729Y00316746
X00285958Y00365832
X00284241Y00346625
X00285671Y00349820
X00285671Y00357821
X00265358Y00217000
X00178308Y00214376
X00357434Y00494030
X00333716Y00131318
X00313961Y00300274
X00320548Y00309644
X00376682Y00552196
X00183500Y00174000
X00269870Y00217194
X00192243Y00221397
X00390144Y00534416
X00120900Y00537700
X00376428Y00093726
X00316384Y00370331
X00290711Y00304759
X00236800Y00528850
X00281671Y00352399
X00270764Y00345440
X00301478Y00326076
X00313873Y00307741
X00258921Y00352820
X00264414Y00363220
X00361000Y00249000
X00318770Y00163278
X00284040Y00338900
X00278671Y00340821
X00247142Y00099314
X00376100Y00467300
X00382200Y00420100
X00326357Y00149144
X00192243Y00216627
X00390144Y00529646
X00173736Y00013208
X00132200Y00091000
X00371602Y00116586
X00312669Y00312820
X00282000Y00208500
X00190246Y00197358
X00374396Y00494030
X00190246Y00202128
X00369626Y00494030
X00071700Y00326300
X00140000Y00327200
X00145100Y00348600
X00194564Y00347218
X00025000Y00204700
X00404137Y00496824
X00193294Y00234132
X00268312Y00207336
X00233140Y00475313
X00124460Y00496570
X00399367Y00496824
X00193294Y00229362
X00233140Y00480083
X00119690Y00496570
X00187703Y00245298
X00396771Y00481076
X00266192Y00484147
X00157988Y00502666
X00168402Y00013970
X00266192Y00479377
X00153218Y00502666
X00095000Y00506707
X00299720Y00485727
X00187703Y00240528
X00392001Y00481076
X00190500Y00181730
X00337368Y00542544
X00278300Y00516900
X00133700Y00494900
X00135600Y00535800
X00405130Y00142509
X00387802Y00415810
X00095000Y00511477
X00299720Y00490497
X00290640Y00493855
X00190754Y00496570
X00290640Y00498625
X00185984Y00496570
X00362966Y00158750
X00390683Y00131741
X00381000Y00203454
X00463042Y00118364
X00463395Y00122179
X00463072Y00125994
X00463042Y00130048
R02Y00003810
X00389977Y00171537
X00389128Y00201930
X00324664Y00193294
X00326898Y00185674
X00190500Y00186500
X00342138Y00542544
X00274386Y00217194
X00251500Y00221500
X00423926Y00159929
X00257000Y00215500
X00264178Y00210516
X00259316Y00210708
X00183500Y00178770
X00371912Y00552196
X00205600Y00401600
X00336897Y00348815
X00177860Y00226270
X00179960Y00206170
X00188040Y00206500
X00130830Y00595570
X00124100Y00597470
X00123640Y00606640
X00128760Y00610370
X00061700Y00242500
X00061700Y00252000
X00148100Y00609800
X00159500Y00606850
X00258000Y00609400
X00252750Y00612050
X00269800Y00618850
X00249700Y00634700
X00252850Y00619250
X00206650Y00611450
X00143200Y00483700
X00194600Y00617350
X00209450Y00618450
X00287200Y00532050
X00294000Y00524850
X00302350Y00520550
X00259750Y00557000
X00260050Y00542900
X00284850Y00543900
X00288000Y00551250
X00293600Y00543800
X00302900Y00562600
X00305500Y00547200
X00312950Y00543650
X00318200Y00548900
X00344500Y00532150
X00384200Y00526000
X00383650Y00531750
X00396750Y00544750
X00366300Y00483400
X00299000Y00569350
X00284050Y00570450
X00390100Y00575850
X00439000Y00562200
X00417600Y00524350
X00423350Y00528200
X00430300Y00527850
X00438050Y00546150
X00421650Y00552200
X00367300Y00562550
X00342150Y00549150
X00344750Y00538100
X00357750Y00545300
X00379550Y00556350
X00409700Y00543750
X00413000Y00556250
X00424650Y00534650
X00439100Y00537800
X00182900Y00164900
X00415500Y00496600
X00408100Y00493600
X00365600Y00499100
X00372300Y00489500
X00359800Y00489700
X00366100Y00490300
X00325400Y00479900
X00121000Y00491600
X00094900Y00516400
X00098200Y00503100
X00113900Y00496200
X00128200Y00493100
X00148200Y00503400
X00421200Y00497800
X00422300Y00511200
X00410700Y00497200
X00413800Y00482000
X00161200Y00613300
X00135400Y00608400
X00131600Y00612900
X00146300Y00613850
X00149600Y00606000
X00325200Y00490000
X00333100Y00478400
X00238100Y00473500
X00237900Y00481600
X00260600Y00486700
X00270900Y00486300
X00295100Y00484000
X00304100Y00492500
X00290400Y00504000
X00295200Y00492400
X00398300Y00476100
X00397000Y00501300
X00398200Y00490700
X00408600Y00511900
X00394200Y00537600
X00376450Y00579750
X00390650Y00581800
X00401800Y00588500
X00416400Y00590100
X00439900Y00583600
X00432900Y00588400
X00436100Y00575400
X00432900Y00561200
X00235400Y00439900
X00248500Y00434500
X00248500Y00442200
X00280600Y00440600
X00271400Y00442700
X00259800Y00443000
X00260100Y00434600
X00083600Y00423900
X00077900Y00423900
X00083600Y00431800
X00077900Y00431800
X00083700Y00438700
X00078000Y00438700
X00073000Y00197900
X00170900Y00171400
X00186100Y00169800
X00179800Y00200100
X00192500Y00246900
X00178900Y00219200
X00185800Y00195600
X00192600Y00206500
X00173700Y00206000
X00336000Y00295361
X00263500Y00379000
X00268000Y00374500
X00269000Y00380000
X00347500Y00344554
X00088138Y00208026
X00133604Y00177038
X00406641Y00313729
X00366724Y00307732
X00371816Y00380567
X00459862Y00359071
X00465478Y00326833
X00465490Y00313569
X00465766Y00300570
X00465490Y00287570
X00453862Y00388836
X00441777Y00362441
X00438640Y00388720
X00454816Y00349721
X00452908Y00330640
X00450682Y00292797
X00439233Y00296931
X00444625Y00276586
X00427889Y00398049
X00427890Y00300474
X00432555Y00285483
X00430639Y00271720
X00428694Y00383125
X00428576Y00373967
X00404625Y00370055
X00395348Y00353994
X00395790Y00294058
X00403799Y00287349
X00406641Y00271720
X00396445Y00389751
X00385227Y00393249
X00388123Y00357401
X00382641Y00296920
X00390837Y00271473
X00376288Y00400936
X00371278Y00287838
X00465596Y00398070
X00465596Y00385070
X00465487Y00372204
X00449702Y00411070
X00409956Y00398070
X00330864Y00376820
X00321670Y00345472
X00321670Y00353316
X00322131Y00337560
X00322058Y00328034
X00318935Y00332531
X00319855Y00314278
X00290670Y00368819
X00310116Y00376820
X00333012Y00380821
X00304420Y00372820
X00301670Y00360664
X00301670Y00352752
X00302132Y00321607
X00309874Y00368588
X00309241Y00337523
X00310298Y00355827
X00310169Y00348337
X00302345Y00335572
X00300990Y00316484
X00292512Y00319295
X00309669Y00319571
X00325825Y00300584
X00318334Y00301402
X00282846Y00376820
X00283058Y00371962
X00282029Y00363605
X00290718Y00361796
X00291036Y00356072
X00292079Y00347709
X00287388Y00342971
X00291785Y00339909
X00289687Y00333249
X00281671Y00303602
X00288529Y00300804
X00279042Y00296012
X00285166Y00323724
X00285948Y00332222
X00285202Y00305293
X00282811Y00311940
X00273670Y00354070
X00268313Y00341587
X00270983Y00332166
X00260327Y00316821
X00262921Y00320821
X00266919Y00300821
X00267150Y00306267
M30
