M48
METRIC
T01C.1
T02C.2
T03C.2032
T04C1.05
T05C1.21
T06C.5
T07C.8
T08C3.2
;LEADER: 12 
;HEADER: 
;CODE  : ASCII 
;FILE  : 48DMVQAD1_SGB-20250729a4-2-3.drl for  ... layers G2 and S3
;DESIGN: 48DMVQAD1_SGB-20250729a4.brd
;T01 Holesize 1. = 0.100000 Tolerance = +0.000000/-0.100000 PLATED MM Quantity = 2360
%
G90
T01
X00459200Y00181440
X00459200Y00186660
X00369824Y00523240
X00392500Y00417300
X00016400Y00474000
X00019100Y00474000
X00022000Y00474000
X00016400Y00476300
X00019100Y00476300
X00022000Y00476300
X00022000Y00478600
X00019100Y00478600
X00016400Y00478600
X00247000Y00173300
X00253000Y00168858
X00257670Y00288820
X00255100Y00166900
X00250500Y00170737
X00261671Y00292820
X00257670Y00313030
X00068600Y00381300
X00078400Y00381200
X00241670Y00308530
X00245670Y00308430
X00074900Y00383600
X00253900Y00308800
X00068800Y00389200
X00009300Y00199000
X00448818Y00181356
X00415206Y00176775
X00069100Y00470000
R02X-00002400
X00069100Y00472300
R02X-00002400
X00064300Y00474600
R02X00002400
X00413500Y00179605
X00448588Y00186800
X00227900Y00083800
X00438464Y00175935
X00403888Y00171116
X00398226Y00159795
X00438210Y00170633
X00438210Y00165331
X00395397Y00156966
X00406718Y00179605
X00409547Y00182434
X00388600Y00433040
X00365250Y00154136
X00434900Y00508200
X00411700Y00429600
X00261671Y00396820
X00198000Y00403200
X00438120Y00160116
X00406718Y00156966
X00443357Y00503100
X00431700Y00644600
X00434900Y00647800
X00308800Y00638800
X00305900Y00642000
X00390010Y00616048
X00390000Y00611850
X00390000Y00613950
X00392209Y00631351
X00392209Y00633951
X00364400Y00610950
X00364400Y00613350
X00364400Y00615950
X00366950Y00631300
X00366950Y00633450
X00415751Y00580551
X00307388Y00640468
X00433256Y00646176
X00245362Y00405128
X00148900Y00492506
X00225500Y00497900
X00353743Y00531429
X00338328Y00516636
X00253238Y00285496
X00376428Y00534416
X00329438Y00141478
X00334550Y00344050
X00297670Y00376820
X00293670Y00376820
X00269161Y00363046
X00269669Y00360821
X00301678Y00312781
X00306500Y00309754
X00227140Y00123760
X00253800Y00123900
X00277400Y00150000
X00333669Y00324819
X00305671Y00328820
X00333669Y00360821
X00411318Y00201152
X00363784Y00121226
X00438640Y00313569
X00462640Y00378570
X00438640Y00372071
X00398958Y00372071
X00374572Y00378000
X00398640Y00313569
X00374640Y00307070
X00462640Y00307070
X00329669Y00300821
X00329669Y00308820
X00253702Y00336789
X00265671Y00312820
X00293670Y00300821
X00273670Y00376820
X00309669Y00380821
X00341226Y00463900
X00215660Y00372700
X00046400Y00581860
X00353743Y00519431
X00353743Y00521716
X00333400Y00465800
X00281300Y00625900
X00362474Y00469900
X00361950Y00519684
X00361741Y00531429
X00357743Y00541782
X00364744Y00524256
X00365741Y00527429
X00136400Y00069000
X00160100Y00065560
X00474500Y00032512
X00455526Y00032512
X00436443Y00032512
X00417262Y00032600
X00275844Y00608330
X00349292Y00531429
X00361550Y00572300
X00369742Y00515430
X00377884Y00432952
X00347726Y00525780
X00255016Y00406400
X00320802Y00565150
X00320802Y00567436
X00323088Y00567436
X00323088Y00565150
X00357378Y00531876
X00357290Y00556833
X00309669Y00388819
X00139500Y00473500
X00217900Y00404400
X00215800Y00290000
X00249669Y00284819
X00426300Y00493000
X00425400Y00429300
X00216200Y00293800
X00253670Y00288820
X00435800Y00466300
X00434200Y00429300
X00092000Y00057000
X00076200Y00070200
X00337670Y00400821
X00237700Y00618700
X00337782Y00405044
X00041232Y00633412
X00331200Y00412600
X00241100Y00553000
X00325093Y00400243
X00226900Y00604600
X00390240Y00591850
X00338328Y00520700
X00375650Y00575060
X00340106Y00524256
X00348742Y00515874
X00332740Y00501650
X00215100Y00351800
X00253670Y00316821
X00212200Y00358800
X00241671Y00316821
X00215300Y00355700
X00245671Y00316821
X00365522Y00435970
X00363728Y00516890
X00253670Y00384819
X00370165Y00535853
X00387096Y00544322
X00340950Y00584350
X00341376Y00502412
X00341950Y00589600
X00338328Y00502300
X00358875Y00443025
X00357378Y00519176
X00392264Y00545200
X00349292Y00535430
X00358280Y00572300
X00347726Y00521970
X00330581Y00515493
X00370036Y00519725
X00371364Y00434192
X00374000Y00098500
X00369926Y00148474
X00395986Y00146304
X00389738Y00151304
X00419606Y00105412
X00362682Y00145541
X00307086Y00156638
X00265671Y00348819
X00207000Y00047100
X00390639Y00295660
X00341684Y00308424
X00390639Y00298980
X00337670Y00308820
X00388022Y00437200
X00369824Y00527812
X00245671Y00396820
X00181200Y00049000
X00265671Y00392820
X00361300Y00150800
X00326391Y00095001
X00370078Y00531114
X00390100Y00439300
X00334400Y00483530
X00378460Y00156972
X00244000Y00134100
X00300482Y00149860
X00237236Y00402336
X00396000Y00533500
X00389000Y00124500
X00386500Y00110220
X00261657Y00336666
X00261671Y00328820
X00454639Y00398070
X00341670Y00352444
X00396000Y00530230
X00372758Y00162625
X00237200Y00144600
X00337670Y00352820
X00454617Y00404548
X00341670Y00320622
X00410139Y00323868
X00404500Y00485200
X00441929Y00208920
X00384810Y00168148
X00398618Y00404548
X00345671Y00388819
X00341670Y00316480
X00403926Y00322138
X00215250Y00274250
X00267751Y00286224
X00313669Y00388819
X00220100Y00467200
X00401230Y00485200
X00215400Y00277200
X00268986Y00289560
X00105594Y00624978
X00249669Y00332820
X00317670Y00388819
X00221200Y00470100
X00403500Y00518700
X00403500Y00515430
X00398618Y00378548
X00341670Y00388961
X00418930Y00515900
X00367096Y00173946
X00049850Y00491650
X00432000Y00327000
X00337670Y00324819
X00422200Y00515900
X00437073Y00327000
X00341670Y00324764
X00292000Y00596160
X00361741Y00535430
X00290500Y00392500
X00390639Y00317638
X00338000Y00316732
X00399792Y00318866
X00337875Y00313025
X00098806Y00058166
X00436370Y00236756
X00392567Y00176775
X00398226Y00182434
X00441628Y00236846
X00369316Y00099314
X00366500Y00145550
X00100203Y00054229
X00398226Y00188096
X00431400Y00236760
X00392358Y00148103
X00396636Y00088504
X00329400Y00137454
X00297670Y00304819
X00329669Y00344819
X00293386Y00116572
X00350200Y00146600
X00218500Y00079574
X00318516Y00145034
X00358608Y00159795
X00249669Y00328820
X00099700Y00604200
X00303022Y00130556
X00344457Y00139986
X00368548Y00156966
X00363808Y00099488
X00341708Y00312338
X00442851Y00317007
X00334400Y00486800
X00343614Y00416500
X00242300Y00619400
X00355800Y00145700
X00348460Y00114824
X00410647Y00316648
X00442533Y00323545
X00237000Y00141500
X00367096Y00162625
X00364044Y00109920
X00365760Y00148474
X00410329Y00310775
X00434708Y00317472
X00341670Y00360821
X00438618Y00404548
X00316400Y00135060
X00355778Y00156966
X00438618Y00320047
X00410294Y00307426
X00306618Y00396909
X00184000Y00047200
X00337670Y00360821
X00438640Y00398070
X00039878Y00485700
X00282080Y00125018
X00135500Y00478500
X00317670Y00392820
X00351800Y00142800
X00343000Y00118500
X00341670Y00356679
X00446641Y00389980
X00426718Y00165419
X00372758Y00151304
X00488442Y00560832
X00388874Y00088646
X00386908Y00154136
X00389338Y00099894
X00337670Y00356820
X00446756Y00386545
X00233900Y00185700
X00268732Y00194564
X00445008Y00243078
X00398226Y00176775
X00346456Y00142800
X00302768Y00125222
X00384000Y00088500
X00392567Y00142815
X00385000Y00100000
X00352806Y00148844
X00303022Y00135636
X00337670Y00380821
X00390639Y00389980
X00341670Y00380821
X00390639Y00386660
X00317800Y00149519
X00355778Y00162625
X00337670Y00320821
X00382748Y00319125
X00367284Y00151384
X00358888Y00099614
X00277670Y00289052
X00236194Y00324996
X00253670Y00332820
X00234900Y00193700
X00272796Y00200660
X00228800Y00321300
X00257670Y00328820
X00233800Y00189900
X00270764Y00197612
X00255500Y00177300
X00232696Y00324042
X00253670Y00328820
X00232400Y00197000
X00275336Y00202692
X00337670Y00368819
X00406641Y00359071
X00206100Y00309300
X00265671Y00296821
X00390224Y00120824
X00257754Y00336737
X00255600Y00180300
X00398640Y00359748
X00337670Y00372820
X00273670Y00288820
X00432229Y00359071
X00341670Y00364819
X00286500Y00596160
X00365741Y00535430
X00436895Y00359226
X00337670Y00364819
X00380500Y00111000
X00379000Y00109500
X00381731Y00140138
X00391314Y00364927
X00341670Y00372678
X00309669Y00384819
X00244491Y00613156
X00387210Y00625322
X00362284Y00597719
X00313669Y00384819
X00247142Y00616712
X00230108Y00325100
X00253670Y00324819
X00443100Y00429300
X00216200Y00299212
X00280162Y00203708
X00261671Y00296821
X00440660Y00450040
X00117094Y00054864
X00337670Y00328820
X00438618Y00281048
X00438618Y00287548
X00341670Y00328678
X00442000Y00587500
X00353743Y00535430
X00119888Y00058420
X00357743Y00535430
X00438200Y00587500
X00107188Y00054102
X00426314Y00360460
X00413509Y00362123
X00337670Y00336821
X00454617Y00287548
X00462940Y00164000
X00405137Y00148474
X00426984Y00365170
X00410965Y00366257
X00112014Y00054864
X00341624Y00336947
X00454617Y00281048
X00439900Y00368821
X00337670Y00376820
X00349669Y00300821
X00398640Y00281070
X00411261Y00375139
X00427170Y00370320
X00398618Y00287548
X00341677Y00304282
X00341708Y00368536
X00386730Y00362251
X00464300Y00157100
X00464200Y00154600
X00464300Y00152400
X00457200Y00157200
X00457200Y00154600
X00457300Y00152300
X00461900Y00157100
X00461800Y00154600
X00461900Y00152400
X00459800Y00152300
X00459700Y00154600
X00459700Y00157200
X00341670Y00376820
X00398846Y00364349
X00224200Y00087200
X00403606Y00181864
X00438150Y00200152
X00330216Y00145943
X00321670Y00368819
X00321670Y00364819
X00321670Y00360821
X00390617Y00398048
X00341670Y00384819
X00317670Y00288820
X00406400Y00591805
X00377210Y00625322
X00379710Y00612322
X00411401Y00591805
X00317670Y00292820
X00273670Y00292820
X00277635Y00292518
X00269669Y00292820
X00285671Y00388819
X00285671Y00392820
X00285000Y00397500
X00285000Y00401500
X00369710Y00612322
X00357284Y00597719
X00273670Y00296821
X00365365Y00545706
X00429936Y00576878
X00407137Y00139321
X00372758Y00168284
X00290500Y00396500
X00362095Y00545706
X00424602Y00576878
X00293670Y00388819
X00086900Y00077674
X00341670Y00300821
X00402844Y00278364
X00293670Y00392820
X00290576Y00400050
X00292298Y00404796
X00228854Y00546354
R02Y-00002032
X00474980Y00409194
X00369316Y00265938
X00395536Y00110428
X00389576Y00140148
X00297670Y00388819
X00297670Y00392820
X00229300Y00312100
X00257670Y00324819
X00297815Y00396820
X00297815Y00400821
X00302166Y00392006
X00302686Y00396118
X00358902Y00109982
X00359000Y00141800
X00416640Y00201152
X00415206Y00170434
X00409547Y00165453
X00372800Y00140700
X00367252Y00139986
X00294128Y00164756
X00294128Y00166982
X00288404Y00166346
X00288404Y00164120
X00286178Y00164120
X00286178Y00166346
X00283952Y00166346
X00283952Y00164120
X00294128Y00176204
X00294128Y00173978
X00286178Y00176522
X00288404Y00176522
X00283952Y00176522
X00286178Y00173978
X00283952Y00173978
X00288404Y00173978
X00380790Y00171133
X00358608Y00182434
X00352806Y00219456
X00305671Y00388819
X00305671Y00392820
X00390617Y00287548
X00337670Y00304819
X00306618Y00400910
X00469200Y00038000
X00471300Y00437722
X00249669Y00388819
X00185100Y00390800
X00266300Y00185900
X00243900Y00181000
X00266902Y00191314
X00448056Y00241554
X00401320Y00179578
X00238200Y00183100
X00214122Y00410464
X00150400Y00485100
X00229000Y00490300
X00281671Y00288820
X00375500Y00045500
X00265800Y00564200
X00312978Y00395822
X00265800Y00448800
X00331900Y00330400
X00329669Y00336821
X00329533Y00365500
X00406641Y00294070
X00406641Y00281070
X00446641Y00281070
X00446776Y00378570
X00462640Y00391570
X00390639Y00281070
X00390639Y00307070
X00446641Y00307070
X00462640Y00294070
X00446641Y00404570
X00430639Y00404570
X00430639Y00391570
X00406641Y00404570
X00406641Y00391570
X00390639Y00404570
X00430639Y00294070
X00374640Y00391570
X00329677Y00368588
X00333669Y00356820
X00333669Y00328820
X00329669Y00320821
X00329500Y00317000
X00374640Y00294070
X00390738Y00379277
X00381526Y00219874
X00378346Y00221782
X00372758Y00179605
X00381590Y00237174
X00378728Y00239400
X00430639Y00281070
X00465600Y00442366
X00253670Y00388819
X00180200Y00386500
X00277670Y00372820
X00368482Y00229224
X00368164Y00233358
X00362758Y00229224
X00363076Y00233358
X00373252Y00229224
X00373252Y00233676
X00365620Y00229224
X00371060Y00229088
X00373252Y00231450
X00360532Y00229224
X00317670Y00352820
X00317670Y00344819
X00317670Y00336821
X00317670Y00360821
X00317400Y00317135
X00309669Y00328820
X00277670Y00360821
X00277670Y00352820
X00296760Y00362750
X00297714Y00354800
X00297715Y00346800
X00296842Y00339000
X00305671Y00368819
X00305671Y00360821
X00305671Y00352820
X00305680Y00345195
X00305477Y00337664
X00293670Y00364819
X00297670Y00368819
X00297670Y00360821
X00297726Y00352800
X00297712Y00344800
X00297000Y00337000
X00293670Y00328820
X00478000Y00436400
X00188100Y00391800
X00253670Y00392820
X00301384Y00259488
X00309669Y00292820
X00301384Y00254082
X00309669Y00296821
X00377250Y00595550
X00372500Y00621650
X00385450Y00042450
X00373150Y00599585
X00384400Y00608600
X00415800Y00038000
X00354193Y00182500
X00426718Y00170670
X00352628Y00231724
X00361437Y00179605
X00357025Y00179671
X00422150Y00038850
X00265671Y00388819
X00383805Y00175080
X00350000Y00178500
X00269669Y00396820
X00487700Y00037500
X00261671Y00384819
X00352700Y00177029
X00261671Y00388819
X00257300Y00164100
X00378417Y00173946
X00381043Y00176489
X00285671Y00292820
X00403860Y00233680
X00401320Y00233680
X00393695Y00233823
X00391059Y00231407
X00391414Y00233680
X00406146Y00233426
X00406400Y00231140
X00406400Y00229108
X00396152Y00229288
X00401240Y00229288
X00391064Y00228970
X00396494Y00233680
X00398780Y00233680
X00297670Y00324819
X00297224Y00316482
X00288920Y00321297
X00289669Y00328820
X00289669Y00312820
X00273670Y00300821
X00273670Y00308820
X00273670Y00316821
X00277670Y00312820
X00277725Y00320826
X00277670Y00328820
X00281454Y00324899
X00281671Y00332820
X00272905Y00314751
X00274182Y00306782
X00276726Y00310916
X00278316Y00318866
X00278952Y00323000
X00275136Y00318548
X00276718Y00322978
X00280860Y00330950
X00347726Y00219456
X00352946Y00188096
X00472600Y00433100
X00249669Y00396820
X00190300Y00393500
X00394900Y00047000
X00468400Y00430700
X00190600Y00416560
X00221140Y00406560
X00285671Y00296821
X00289669Y00296821
X00293670Y00292820
X00293670Y00296821
X00446641Y00333069
X00406641Y00307070
X00398640Y00274570
X00430639Y00307070
X00446641Y00349613
X00414342Y00221850
X00411480Y00225348
X00414342Y00211674
X00411480Y00215172
X00382386Y00183631
X00384076Y00185264
X00438640Y00411070
X00398640Y00411206
X00438640Y00274570
X00430639Y00378570
X00406641Y00378570
X00333669Y00320821
X00333669Y00352820
X00334255Y00364882
X00430639Y00365571
X00370745Y00319982
X00382620Y00312824
X00406641Y00320069
X00429693Y00318871
X00390639Y00333351
X00374640Y00333351
X00390639Y00353214
X00374640Y00353214
X00462640Y00365571
X00406641Y00365571
X00382705Y00371981
X00462640Y00352571
X00462640Y00333069
X00462640Y00320069
X00373088Y00365621
X00333669Y00308820
X00333869Y00332820
X00095500Y00077774
X00104800Y00077774
X00401800Y00046800
X00113400Y00077574
X00078700Y00077574
X00436400Y00041000
X00180800Y00079874
X00374462Y00120824
X00172100Y00081300
X00419100Y00044400
X00199500Y00079874
X00417700Y00429500
X00430200Y00462100
X00208900Y00079874
X00239300Y00215500
X00440700Y00483200
X00245671Y00284819
X00046400Y00593660
X00313436Y00160528
X00317112Y00376820
X00322611Y00376744
X00329438Y00157480
X00277670Y00336821
X00404622Y00093218
X00399808Y00145600
X00383762Y00189658
X00352946Y00154136
X00369926Y00176775
X00381247Y00188096
X00352946Y00171116
X00348867Y00162625
X00301812Y00203680
X00301812Y00201454
X00291636Y00200818
X00291636Y00203044
X00293862Y00203044
X00293862Y00200818
X00296088Y00200818
X00296088Y00203044
X00301494Y00209722
X00301494Y00211948
X00295770Y00212266
X00295770Y00209722
X00293544Y00209722
X00291318Y00209722
X00430639Y00411070
X00445111Y00035200
X00406474Y00411086
X00345671Y00296821
X00362204Y00496824
X00305671Y00296821
X00475800Y00442700
X00182300Y00388800
X00245671Y00388819
X00423100Y00035400
X00350266Y00214376
X00350228Y00212218
R05Y-00002226
X00325671Y00324819
X00325671Y00332820
X00325671Y00344819
X00325671Y00352820
X00325671Y00368819
X00325671Y00360821
X00325626Y00317337
X00285671Y00352820
X00285671Y00360821
X00285671Y00368819
X00281701Y00344819
X00277670Y00344819
X00269669Y00324819
X00269669Y00320821
X00297670Y00328820
X00313789Y00357270
X00313669Y00364819
X00313669Y00340821
X00313900Y00348851
X00305671Y00324819
X00313669Y00324819
X00293670Y00312820
X00289476Y00316598
X00345671Y00288820
X00357124Y00496824
X00305671Y00292820
X00329438Y00131318
X00309706Y00304782
X00317861Y00308890
X00376059Y00549287
X00329669Y00296821
X00345671Y00284819
X00398618Y00398048
X00337670Y00384819
X00387096Y00534416
X00301670Y00288820
X00374462Y00109902
X00378206Y00137668
X00317670Y00372820
X00293670Y00304819
X00230638Y00577264
X00281192Y00349008
X00273864Y00344624
X00301670Y00328820
X00309669Y00308820
X00313669Y00304819
X00261671Y00352820
X00261671Y00364819
X00261671Y00360821
X00353669Y00292820
X00318770Y00160528
X00281671Y00340821
X00281671Y00336821
X00372126Y00469900
X00330548Y00151638
X00387096Y00529336
X00305671Y00288820
X00190300Y00077400
X00369316Y00109982
X00376200Y00142200
X00309669Y00312820
X00362500Y00265500
X00374396Y00496824
X00310434Y00288656
X00325671Y00288820
X00322690Y00254718
X00369062Y00496824
X00310434Y00284655
X00187300Y00047400
X00387096Y00522224
X00298196Y00283464
X00349669Y00292820
X00124714Y00499364
X00325671Y00392820
X00387096Y00516890
X00301244Y00283464
X00119380Y00499364
X00329669Y00392820
X00387350Y00509064
X00297670Y00292820
X00077500Y00616500
X00080900Y00508300
X00329669Y00388819
X00158242Y00499364
X00325671Y00388819
X00152908Y00499364
X00091694Y00499364
X00345722Y00400044
X00387350Y00503730
X00301670Y00296821
X00333669Y00284819
X00338360Y00545338
X00321670Y00296821
X00314104Y00248994
X00310388Y00511556
X00443200Y00160116
X00402358Y00142082
X00086106Y00499364
X00349720Y00400044
X00356713Y00402752
X00191008Y00499364
X00321670Y00292820
X00314422Y00254400
X00185674Y00499364
X00360525Y00402752
X00406848Y00145752
X00462800Y00168400
X00357700Y00154100
X00361437Y00162625
X00389344Y00134144
X00381508Y00200660
X00378206Y00203962
X00460756Y00132080
X00461010Y00123952
X00459994Y00117602
R02Y00002286
X00459994Y00125984
R02Y00002032
X00459994Y00134112
X00460248Y00136398
X00460248Y00138430
X00392695Y00171960
X00386842Y00200152
X00385572Y00201930
X00327914Y00192532
X00324358Y00196088
X00328676Y00187960
X00326644Y00188468
X00329669Y00284819
X00341630Y00545338
X00345671Y00292820
X00292734Y00130480
X00041286Y00625992
X00341670Y00292820
X00329669Y00288820
X00322690Y00248994
X00426718Y00160196
X00341670Y00288820
X00349669Y00288820
X00349669Y00284819
X00325671Y00296821
X00372789Y00549287
X00326500Y00091000
X00335153Y00114173
X00358608Y00148474
X00265671Y00396820
X00333669Y00348819
X00337670Y00332820
X00446641Y00295660
X00237600Y00307300
X00091948Y00489966
X00341670Y00332820
X00446641Y00298980
X00302380Y00574540
X00309020Y00572160
X00349680Y00591200
X00352210Y00625322
X00349710Y00612322
X00350500Y00604730
X00257180Y00632400
X00270670Y00644500
X00263830Y00647470
X00238340Y00669390
X00242710Y00654810
X00254900Y00664430
X00278700Y00659070
X00281080Y00648060
X00279990Y00639140
X00302400Y00627240
X00316380Y00634280
X00307660Y00633980
X00295510Y00604330
X00296200Y00599870
X00305125Y00604500
X00299030Y00604430
X00293480Y00607310
X00298630Y00608500
X00193750Y00522900
X00187050Y00522600
X00314200Y00182850
X00309100Y00171550
X00320100Y00171550
X00331300Y00171350
X00364400Y00182650
X00364550Y00193350
X00364500Y00201900
X00364750Y00213900
X00365000Y00225050
X00351900Y00193250
X00340400Y00189200
X00331750Y00194450
X00335300Y00201050
X00316200Y00200750
X00355150Y00235650
X00348150Y00227900
X00366700Y00262900
X00386650Y00273000
X00382250Y00270750
X00362550Y00270200
X00367400Y00270700
X00419606Y00100534
X00324358Y00156718
X00307086Y00151558
X00318770Y00155448
X00313436Y00155448
X00367284Y00588969
X00353550Y00586650
X00344150Y00586150
X00352400Y00575150
X00349500Y00572700
X00354800Y00570750
X00364950Y00571000
X00334950Y00490600
X00338950Y00488900
X00341800Y00481350
X00337400Y00481400
X00361550Y00398450
X00361850Y00405600
X00394200Y00476850
X00417750Y00489150
X00404850Y00481750
X00425650Y00515550
X00397400Y00537000
X00406500Y00513950
X00404500Y00521950
X00392550Y00513000
X00387500Y00513000
X00416300Y00518100
X00373150Y00262950
X00365800Y00266600
X00362700Y00275700
X00368050Y00247050
X00372800Y00251600
X00294800Y00237850
X00311350Y00237950
X00323400Y00237850
X00331900Y00243250
X00339600Y00252000
X00284400Y00202050
X00286950Y00208100
X00016750Y00368400
X00035550Y00368550
X00016450Y00343800
X00035400Y00343200
X00016750Y00317850
X00017650Y00291800
X00034500Y00320050
X00034350Y00291950
X00034950Y00264250
X00018350Y00088500
X00032200Y00089350
X00034950Y00161000
X00034650Y00170750
X00035250Y00146450
X00034650Y00113850
X00054200Y00016850
X00043550Y00027750
X00102550Y00040000
X00105000Y00018850
X00113150Y00025850
X00128150Y00014350
X00140850Y00018600
X00157600Y00013200
X00165450Y00050450
X00127600Y00063000
X00129750Y00040150
X00154550Y00022950
X00129600Y00023100
X00079950Y00045100
X00061600Y00043200
X00051000Y00080350
X00052150Y00095750
X00045300Y00108600
X00045450Y00089050
X00048500Y00069700
X00062800Y00077550
X00068300Y00090400
X00071500Y00074350
X00128509Y00050980
X00208400Y00068750
X00159650Y00096700
X00166050Y00090400
X00175700Y00098150
X00187200Y00100600
X00199150Y00096400
X00238300Y00129900
X00245750Y00127400
X00231300Y00127250
X00233200Y00132950
X00214800Y00145200
X00208750Y00146250
X00223850Y00140150
X00222450Y00155950
X00230900Y00156250
X00231050Y00139700
X00308900Y00138850
X00311950Y00133900
X00303150Y00186600
X00311900Y00189000
X00345750Y00196350
X00285340Y00195800
X00283200Y00190950
X00270500Y00179700
X00273500Y00189000
X00264250Y00183250
X00264350Y00174650
X00264100Y00163600
X00259450Y00168150
X00258050Y00155750
X00267200Y00155750
X00283300Y00151200
X00272000Y00144750
X00255400Y00145100
X00256150Y00138350
X00267000Y00138400
X00284150Y00141800
X00293650Y00150200
X00291300Y00140250
X00261350Y00127300
X00256250Y00133400
X00268550Y00133550
X00273700Y00129050
X00283850Y00133850
X00273700Y00120950
X00267250Y00122550
X00255950Y00120750
X00246000Y00120500
X00233400Y00120800
X00222700Y00127600
X00214900Y00127600
X00214900Y00120250
X00222400Y00120150
X00235400Y00086900
X00236550Y00094600
X00222200Y00110300
X00215050Y00110200
X00214850Y00102500
X00215000Y00094800
X00222650Y00102300
X00221950Y00095300
X00234100Y00109800
X00242850Y00109600
X00247150Y00104350
X00254750Y00096200
X00254200Y00087300
X00262950Y00087000
X00271100Y00100600
X00261600Y00109600
X00270550Y00109200
X00253400Y00109150
X00261350Y00101300
X00269750Y00093800
X00275500Y00088300
X00287050Y00111700
X00277800Y00115600
X00282750Y00120150
X00290900Y00121100
X00287200Y00105000
X00288300Y00097650
X00299200Y00108000
X00299600Y00099150
X00294400Y00093650
X00309250Y00103000
X00305200Y00093500
X00315250Y00093100
X00315400Y00102950
X00305650Y00111450
X00314100Y00107550
X00300700Y00116550
X00313300Y00115350
X00345950Y00108050
X00351750Y00093000
X00348650Y00101950
X00353900Y00107100
X00482350Y00044700
X00376050Y00033200
X00323200Y00015400
X00333250Y00021100
X00319100Y00021850
X00324500Y00036850
X00345750Y00044100
X00362200Y00045400
X00372700Y00040600
X00389450Y00033050
X00483550Y00089500
X00483550Y00075300
X00471150Y00083500
X00478150Y00085350
X00464650Y00076650
X00418150Y00094000
X00414100Y00086000
X00431800Y00086350
X00447900Y00086400
X00458800Y00092750
X00464700Y00100600
X00470950Y00108750
X00468700Y00115350
X00469250Y00141700
X00459300Y00143150
X00452600Y00148000
X00472300Y00145400
X00472900Y00156850
X00469900Y00163800
X00444700Y00183800
X00445250Y00189850
X00481400Y00193300
X00469100Y00189950
X00468450Y00182000
X00477850Y00176400
X00477750Y00185000
X00472300Y00192500
X00455650Y00203200
X00443750Y00201950
X00435850Y00202050
X00459200Y00191740
X00464900Y00194600
X00474700Y00202900
X00481100Y00220800
X00471450Y00228200
X00480200Y00237250
X00466100Y00244100
X00481800Y00250500
X00456350Y00237250
X00456200Y00246000
X00361950Y00415750
X00354100Y00404200
X00346650Y00406500
X00349300Y00408750
X00367300Y00415550
X00362350Y00410450
X00212400Y00376150
X00220450Y00368400
X00238450Y00375600
X00237350Y00446900
X00251350Y00447000
X00261700Y00447600
X00227300Y00447950
X00220650Y00454150
X00187600Y00440150
X00179000Y00448900
X00178700Y00419650
X00178400Y00398250
X00171550Y00386850
X00157300Y00383250
X00149300Y00387450
X00135250Y00386800
X00119650Y00381900
X00101300Y00383500
X00090500Y00383500
X00015800Y00397050
X00016700Y00417450
X00024850Y00419050
X00036800Y00396600
X00036350Y00411050
X00055400Y00410000
X00077550Y00408150
X00077400Y00396600
X00080350Y00387300
X00093450Y00391250
X00093300Y00406650
X00086750Y00413350
X00074350Y00412800
X00205450Y00633300
X00217650Y00632850
X00230500Y00633600
X00232250Y00646850
X00255650Y00655700
X00231350Y00662250
X00246350Y00668950
X00260050Y00671450
X00270700Y00663300
X00280150Y00672300
X00290350Y00662850
X00299950Y00673350
X00323550Y00676850
X00325400Y00668800
X00318500Y00672100
X00292500Y00647400
X00291600Y00629950
X00300980Y00635190
X00282550Y00632750
X00279950Y00621000
X00254450Y00626950
X00251250Y00582550
X00250800Y00594050
X00251650Y00605400
X00240150Y00530250
X00225300Y00563150
X00225000Y00553550
X00239750Y00558650
X00235350Y00570000
X00217450Y00570150
X00207250Y00580150
X00218200Y00591100
X00218050Y00582100
X00227700Y00591650
X00232600Y00587350
X00235200Y00582000
X00232200Y00556900
X00186350Y00549050
X00186400Y00564050
X00193000Y00575750
X00098200Y00559300
X00097500Y00572100
X00097650Y00529300
X00084250Y00535100
X00083950Y00551300
X00078100Y00555800
X00075550Y00563500
X00082750Y00563600
X00096300Y00582400
X00095600Y00596000
X00084750Y00584500
X00077650Y00581000
X00078250Y00593450
X00084650Y00596400
X00105950Y00632600
X00149800Y00632500
X00133500Y00631750
X00093200Y00631800
X00075150Y00635100
X00061550Y00634800
X00032450Y00633300
X00035650Y00624600
X00027350Y00605950
X00038200Y00596900
X00036800Y00604750
X00053050Y00599450
X00071550Y00598350
X00046400Y00586940
X00059850Y00583650
X00059450Y00562100
X00051300Y00571250
X00053950Y00547150
X00052850Y00557750
X00045400Y00565800
X00044300Y00577450
X00038050Y00567350
X00044600Y00557000
X00047800Y00547950
X00047550Y00535900
X00054900Y00539850
X00051700Y00529100
X00048350Y00521350
X00075850Y00535650
X00073950Y00524850
X00062750Y00520900
X00064200Y00509850
X00055050Y00510000
X00035650Y00495300
X00026750Y00503000
X00015550Y00497600
X00017150Y00508550
X00029700Y00514500
X00016750Y00522650
X00034500Y00524550
X00036250Y00472700
X00035950Y00467200
X00036450Y00454200
X00036550Y00443150
X00051950Y00448750
X00052500Y00438800
X00042500Y00452750
X00042450Y00463250
X00042500Y00475650
X00035900Y00485950
X00042200Y00489450
X00102950Y00438500
X00106000Y00445100
X00099400Y00452900
X00083650Y00460150
X00082500Y00446150
X00088100Y00445600
X00071500Y00446650
X00076350Y00452200
X00091250Y00460550
X00076550Y00460150
X00059050Y00467650
X00052300Y00464100
X00059050Y00475400
X00052100Y00475100
X00053550Y00481750
X00081500Y00487850
X00052150Y00488150
X00049400Y00512350
X00048400Y00502500
X00049050Y00495400
X00055400Y00502050
X00061350Y00500150
X00069650Y00502400
X00076200Y00507850
X00077550Y00514750
X00078350Y00495100
X00088050Y00495300
X00084550Y00504050
X00084150Y00511300
X00098700Y00509550
X00084050Y00522650
X00090050Y00522450
X00098100Y00522450
X00109550Y00502150
X00117900Y00504800
X00109450Y00508200
X00115800Y00511450
X00127650Y00511900
X00128350Y00504950
X00106850Y00495400
X00103450Y00489400
X00115550Y00489550
X00131600Y00489950
X00142900Y00496400
X00140200Y00484700
X00146500Y00478350
X00148850Y00472800
X00154450Y00481450
X00148550Y00488550
X00154150Y00495300
X00158900Y00495400
X00194650Y00511700
X00184600Y00504100
X00184050Y00511400
X00152000Y00508450
X00159000Y00509850
X00144900Y00514550
X00147550Y00521900
X00110650Y00513700
X00114000Y00522300
X00121700Y00522400
X00127700Y00522850
X00110200Y00528700
X00111200Y00544000
X00122700Y00544150
X00137300Y00544600
X00123200Y00590600
X00114900Y00592800
X00122430Y00601940
X00127450Y00584100
X00116350Y00584300
X00109000Y00585800
X00109200Y00596150
X00115100Y00602750
X00176950Y00626500
X00165900Y00626750
X00155150Y00626600
X00144300Y00626800
X00146150Y00617300
X00171000Y00619350
X00160300Y00619200
X00228990Y00627260
X00211900Y00634000
X00222900Y00596800
X00206200Y00589700
X00206750Y00598200
X00206400Y00606800
X00162700Y00600870
X00180470Y00590570
X00159500Y00602900
X00162950Y00591590
X00180640Y00580470
X00156950Y00587200
X00152850Y00596700
X00136950Y00592750
X00148850Y00601200
X00156950Y00545150
X00156950Y00551900
X00157050Y00558600
X00157150Y00565350
X00157050Y00571800
X00157350Y00579950
X00172500Y00539650
X00179350Y00546950
X00179600Y00555300
X00179750Y00561700
X00179450Y00568500
X00172850Y00590600
X00186050Y00590450
X00196150Y00590000
X00182250Y00584200
X00181400Y00574850
X00199550Y00571700
X00193450Y00563200
X00193450Y00552400
X00217000Y00507600
X00194300Y00544600
X00200850Y00536800
X00190050Y00527750
X00182650Y00536100
X00174150Y00531400
X00167650Y00538100
X00179950Y00525900
X00194400Y00503350
X00208350Y00499200
X00208350Y00510000
X00218550Y00516500
X00218850Y00498650
X00191300Y00470200
X00189250Y00477500
X00195300Y00471200
X00195000Y00463050
X00183750Y00475350
X00183850Y00484150
X00194750Y00484300
X00207850Y00478300
X00208050Y00471350
X00226700Y00493650
X00209400Y00483450
X00215100Y00475250
X00223450Y00482900
X00278200Y00481050
X00284600Y00474000
X00293250Y00465450
X00241050Y00514550
X00241100Y00497700
X00241550Y00486800
X00253750Y00492950
X00255750Y00500050
X00250200Y00505500
X00261850Y00493800
X00273100Y00506750
X00279200Y00501850
X00262200Y00517500
X00269450Y00517800
X00261550Y00563700
X00262700Y00550400
X00262550Y00537150
X00269300Y00534300
X00269000Y00547250
X00268950Y00558800
X00331350Y00591350
X00353700Y00592200
X00338050Y00589300
X00332000Y00603900
X00298750Y00621700
X00441550Y00510500
X00438350Y00514400
X00427900Y00510200
X00431450Y00515750
X00424600Y00518600
X00441100Y00519400
X00452900Y00517450
X00461050Y00517650
X00462450Y00543100
X00446350Y00549700
X00449050Y00541500
X00441050Y00528050
X00428550Y00539900
X00439250Y00533800
X00406700Y00534650
X00409700Y00540750
X00418000Y00543900
X00412100Y00559450
X00414200Y00541150
X00405050Y00542550
X00404150Y00549550
X00404300Y00558600
X00404450Y00565400
X00070100Y00639600
X00064800Y00639600
X00045600Y00621500
X00051000Y00621800
X00057100Y00622000
X00067900Y00621900
X00078100Y00620900
X00075200Y00619700
X00073800Y00615800
X00081000Y00614700
X00101900Y00615500
X00108900Y00615500
X00110300Y00622900
X00112900Y00629300
X00119900Y00629500
X00122000Y00622600
X00115200Y00619300
X00100100Y00621100
X00088700Y00621100
X00083594Y00624978
X00127594Y00624978
X00072594Y00517078
X00096774Y00499364
X00081026Y00499364
X00114300Y00499364
X00245900Y00474100
X00254400Y00473300
X00253900Y00481800
X00246000Y00481900
X00453200Y00429700
X00397600Y00433000
X00429400Y00429300
X00438200Y00429300
X00447100Y00429300
X00483000Y00442100
X00484900Y00453700
X00449000Y00486600
X00454200Y00492200
X00439300Y00492400
X00432000Y00492600
X00418800Y00483400
X00418600Y00491900
X00432700Y00483400
X00402400Y00471100
X00418800Y00458200
X00446800Y00453500
X00447100Y00446800
X00393100Y00470700
X00368900Y00460000
X00365700Y00462700
X00377600Y00460200
X00274300Y00512500
X00281200Y00509100
X00290100Y00509500
X00287600Y00501600
X00294200Y00501200
X00286700Y00497500
X00286100Y00492800
X00290200Y00489400
X00295600Y00488200
X00297600Y00480100
X00301900Y00475600
X00307400Y00469600
X00307200Y00477000
X00303800Y00482600
X00320040Y00493268
X00322900Y00486700
X00314200Y00496700
X00311100Y00487300
X00315000Y00481300
X00315900Y00467900
X00323300Y00467400
X00326300Y00467800
X00367100Y00474200
X00375600Y00473900
X00408300Y00485300
X00398100Y00486600
X00401600Y00481200
X00390600Y00476500
X00389500Y00490700
X00376000Y00487000
X00375700Y00479700
X00370400Y00480800
X00368000Y00486900
X00363000Y00477300
X00363300Y00486700
X00348400Y00507900
X00348300Y00502800
X00363300Y00503700
X00375300Y00506200
X00371500Y00507900
X00375200Y00501500
X00370000Y00546900
X00379600Y00548600
X00366600Y00553000
X00275500Y00524200
X00275700Y00532600
X00275400Y00540800
X00275400Y00549900
X00279000Y00555000
X00286004Y00565658
X00279146Y00523373
X00279146Y00536486
X00279146Y00546099
X00288800Y00558300
X00300700Y00558200
X00311700Y00558600
X00321700Y00558800
X00328550Y00559900
X00321700Y00555350
X00316500Y00555400
X00305900Y00555500
X00294300Y00555400
X00284500Y00555500
X00262600Y00632400
X00269600Y00639900
X00269000Y00633100
X00268600Y00615900
X00268700Y00624700
X00262700Y00622100
X00262600Y00614100
X00262600Y00606500
X00262400Y00584200
X00269700Y00581900
X00279600Y00588700
X00281600Y00593500
X00282000Y00599100
X00284500Y00591900
X00286100Y00587300
X00287900Y00581700
X00282500Y00603400
X00285800Y00610500
X00289200Y00614300
X00293400Y00615900
X00299000Y00615900
X00305500Y00618300
X00311600Y00618000
X00318800Y00617800
X00319000Y00623300
X00319000Y00629900
X00322800Y00635100
X00334700Y00634900
X00330900Y00630300
X00326000Y00626400
X00326100Y00618800
X00325800Y00611500
X00321200Y00608300
X00293300Y00592200
X00294400Y00588500
X00297200Y00582000
X00305500Y00580600
X00312700Y00580400
X00317000Y00577400
X00322200Y00577600
X00326800Y00580200
X00327900Y00577800
X00335300Y00581050
X00333300Y00585500
X00327000Y00588200
X00312700Y00587600
X00303900Y00587600
X00301600Y00590500
X00308800Y00590600
X00316700Y00590900
X00320400Y00601100
X00322800Y00593700
X00331200Y00596050
X00340000Y00595950
X00346000Y00596300
X00340700Y00603150
X00353900Y00597400
X00446500Y00636900
X00446900Y00632600
X00446800Y00624400
X00447200Y00618100
X00447300Y00610000
X00447300Y00603800
X00442500Y00600100
X00444200Y00594800
X00418500Y00562100
X00418500Y00567200
X00429300Y00564100
X00424300Y00567100
X00423600Y00572500
X00434200Y00578100
X00434300Y00582400
X00430500Y00586000
X00420200Y00577400
X00416700Y00572200
X00396400Y00577800
X00396600Y00584000
X00397000Y00588600
X00422300Y00595400
X00423300Y00599900
X00417800Y00600100
X00415700Y00594200
X00410900Y00600000
X00396900Y00594000
X00389200Y00596600
X00382500Y00596600
X00386900Y00604700
X00392900Y00604700
X00404300Y00635300
X00404800Y00632900
X00418500Y00635200
X00423900Y00634600
X00429300Y00634800
X00429700Y00629600
X00430100Y00621400
X00430000Y00611700
X00429600Y00605000
X00415500Y00607500
X00408700Y00610000
X00409700Y00617000
X00407210Y00625322
X00404710Y00612322
X00085520Y00401200
X00066600Y00437900
X00089460Y00451600
X00057200Y00444140
X00401200Y00584400
X00405300Y00584400
X00471200Y00571500
X00485540Y00571700
X00494000Y00585400
X00516500Y00669400
X00516500Y00585400
X00315000Y00604500
X00309500Y00604500
X00297736Y00640468
X00442474Y00631700
X00442500Y00606060
X00323560Y00573500
X00160200Y00637300
X00164500Y00637000
X00169800Y00636900
X00174600Y00636900
X00180400Y00636900
X00185700Y00637000
X00191400Y00636300
X00195400Y00632500
X00198200Y00627900
X00188400Y00626700
X00187700Y00631200
X00179900Y00631200
X00172500Y00631300
X00165500Y00631200
X00157500Y00631800
X00153700Y00635800
X00075500Y00639600
X00080800Y00639600
X00215700Y00639100
R02X00005400
X00210400Y00639100
X00194100Y00639200
R02X00005400
X00188800Y00639200
X00172500Y00639300
R02X00005400
X00167200Y00639300
X00150900Y00639400
X00161700Y00639400
X00145600Y00639400
X00140100Y00639500
X00135000Y00639500
X00129600Y00639500
X00124300Y00639500
X00118800Y00639600
X00086000Y00419800
X00075100Y00419700
X00080900Y00419800
X00086200Y00428500
X00075300Y00428400
X00081100Y00428500
X00086100Y00435500
X00075200Y00435400
X00081000Y00435500
X00086000Y00441900
X00080900Y00441900
X00075100Y00441800
X00236600Y00138200
X00238600Y00148000
X00316400Y00140140
X00352946Y00159795
X00215100Y00152500
X00072700Y00495900
X00065200Y00487900
X00089700Y00487700
X00092400Y00493300
X00094300Y00476600
X00391400Y00113500
X00347900Y00185400
X00334000Y00185200
X00406300Y00153500
X00391700Y00127500
X00387600Y00128600
X00375900Y00148500
X00378500Y00144500
X00359600Y00171400
X00365900Y00178300
X00358600Y00176700
X00338450Y00177150
X00318550Y00177200
X00276400Y00163500
X00217400Y00410300
X00152500Y00472500
X00331700Y00395000
X00347700Y00493950
X00364900Y00501800
X00122295Y00577178
X00134294Y00577178
X00134294Y00553178
X00122295Y00553178
X00122295Y00565177
X00110293Y00553178
X00110293Y00565177
X00110293Y00577178
X00329600Y00328400
X00332500Y00315000
X00351000Y00342000
X00343590Y00347210
X00046400Y00598740
X00341630Y00096520
X00319786Y00108966
X00106680Y00030480
R03X00012700
X00322580Y00030480
X00093980Y00043180
X00322580Y00043180
X00335280Y00068580
R11X00012700
X00398780Y00093980
X00411480Y00093980
X00436880Y00093980
X00449580Y00093980
X00411480Y00106680
R03X00012700
X00271780Y00157480
X00271780Y00170180
X00474980Y00170180
X00195580Y00195580
X00449580Y00220980
X00449580Y00233680
X00462280Y00233680
X00449580Y00246380
X00500380Y00259080
R05Y00025400
X00170180Y00398780
X00170180Y00411480
X00182880Y00411480
X00055880Y00424180
X00068580Y00424180
X00030480Y00436880
X00055880Y00436880
X00055880Y00449580
X00424180Y00449580
X00474980Y00449580
X00474980Y00462280
X00487680Y00462280
X00500380Y00462280
X00474980Y00474980
X00487680Y00474980
X00233680Y00487680
X00284480Y00500380
X00119380Y00513080
X00322580Y00513080
X00373380Y00513080
X00119380Y00525780
X00233680Y00525780
X00322580Y00525780
X00093980Y00538480
X00132080Y00538480
X00210000Y00538600
X00322580Y00538480
X00093980Y00551180
X00209700Y00551100
X00322580Y00551180
X00209700Y00563300
X00297180Y00563880
X00309880Y00563880
X00093980Y00576580
X00220980Y00576580
X00271780Y00576580
R03X00012700
X00474980Y00576580
X00093980Y00589280
X00259080Y00589280
X00271780Y00589280
X00474980Y00589280
X00229700Y00601800
X00224100Y00602200
X00259080Y00601980
X00271780Y00601980
X00386080Y00601980
X00449580Y00601980
X00462280Y00601980
X00474980Y00601980
X00043180Y00614680
R02X00012700
X00119380Y00614680
X00271780Y00614680
X00284480Y00614680
X00322580Y00614680
X00335280Y00614680
X00398780Y00614680
X00449580Y00614680
R02X00012700
X00093980Y00627380
X00246380Y00627380
X00284000Y00628100
X00309880Y00627380
X00322580Y00627380
X00449580Y00627380
X00462280Y00627380
X00284480Y00640080
X00449580Y00640080
X00322580Y00652780
X00436880Y00652780
X00449580Y00652780
X00462280Y00652780
X00235884Y00678180
R05X00012700
X00525780Y00480530
X00525780Y00467830
X00406178Y00033020
X00394888Y00027204
X00364332Y00007620
X00313532Y00007620
X00300832Y00007620
R04X-00012700
X00161132Y00007620
R04X-00012700
X00084932Y00007620
X00030246Y00031329
X00017660Y00033020
X00007620Y00269398
R15Y00012700
X00007620Y00536098
X00256794Y00333502
X00294640Y00133725
X00302768Y00139752
X00324665Y00152509
X00324358Y00131318
X00404562Y00088225
X00389338Y00094814
X00369194Y00094410
X00364098Y00094254
X00395536Y00105348
X00390274Y00105330
X00385004Y00105140
X00364046Y00104840
X00369316Y00104822
X00358902Y00104902
X00301068Y00143900
X00297180Y00155194
X00287020Y00155194
X00284226Y00157734
X00318262Y00192786
X00318008Y00195834
X00323088Y00186944
X00321564Y00188468
X00403888Y00176775
X00401056Y00173946
X00472948Y00118618
X00470154Y00121412
X00472948Y00126746
X00470154Y00129540
X00472948Y00135382
X00470408Y00137922
X00342800Y00114300
X00348662Y00109728
X00364023Y00113431
X00413512Y00100076
X00410464Y00103124
X00414274Y00108712
X00411226Y00111506
X00405892Y00110062
X00405892Y00115320
X00405892Y00120982
X00415206Y00137156
X00412377Y00139986
X00401056Y00151304
X00389373Y00157812
X00384076Y00156966
X00431800Y00175768
X00433207Y00164615
X00431798Y00160196
X00431798Y00170670
X00443544Y00175935
X00355346Y00150622
X00340655Y00132588
X00299466Y00119126
X00313690Y00150216
X00313690Y00145136
X00298196Y00185928
X00293878Y00182372
X00288036Y00182626
X00284226Y00185674
X00305816Y00190754
X00301498Y00194056
X00295656Y00190754
X00291338Y00194310
X00343662Y00200660
X00341628Y00171116
X00459740Y00201168
X00455930Y00198120
X00462788Y00206756
X00459232Y00211074
X00462788Y00216916
X00459232Y00221234
X00462788Y00227076
X00459232Y00231394
X00433832Y00207010
X00433578Y00210820
X00433832Y00216916
X00433832Y00221234
X00434086Y00227076
X00433832Y00231140
X00424180Y00211328
X00420624Y00215646
X00387096Y00205486
X00385572Y00207010
X00371877Y00383689
X00409702Y00584454
X00367284Y00593344
X00462640Y00359071
X00462640Y00326569
X00462640Y00313569
X00462640Y00300570
X00462640Y00287570
X00454639Y00391570
X00446641Y00372071
X00438640Y00391570
X00454639Y00352571
X00454639Y00333069
X00445986Y00313267
X00454639Y00294070
X00438640Y00294070
X00446641Y00274570
X00430639Y00398070
X00431601Y00312863
X00430639Y00300570
R02Y-00013000
X00430639Y00385070
X00406641Y00385070
X00430639Y00372071
X00406641Y00372071
X00398640Y00353214
X00398640Y00294070
X00406641Y00287570
X00406641Y00274570
X00398640Y00391570
X00383211Y00391233
X00390639Y00359071
X00382641Y00294070
X00390837Y00274323
X00374207Y00398988
X00374040Y00287131
X00333669Y00296821
X00301670Y00292820
X00289669Y00292820
X00265671Y00292820
X00361950Y00242316
X00372298Y00239400
X00369118Y00241944
X00405374Y00239782
X00401876Y00242326
X00394880Y00239782
X00381247Y00159795
X00375587Y00159795
X00375587Y00165454
X00378417Y00162625
X00380875Y00164555
X00369926Y00182434
X00369926Y00188096
X00392567Y00159795
X00395397Y00162625
X00392567Y00182434
X00395397Y00168284
X00398226Y00165454
X00392567Y00165454
X00388319Y00165514
X00411455Y00206537
X00416640Y00206232
X00249669Y00292820
X00462640Y00398070
X00462640Y00385070
X00462640Y00372071
X00446641Y00411070
X00406641Y00398070
X00345671Y00396820
X00341670Y00392820
X00341670Y00396820
X00349720Y00396774
X00333669Y00372820
X00333669Y00376820
X00333669Y00300821
X00333669Y00304819
X00321670Y00356820
X00321670Y00348819
X00321670Y00340821
X00321670Y00316821
X00317670Y00328820
X00321670Y00332820
X00321670Y00324819
X00317670Y00324819
X00293670Y00368819
X00313608Y00372876
X00309669Y00372820
X00313669Y00376820
X00305671Y00376820
X00329669Y00380821
X00325671Y00380821
X00321670Y00380821
X00317670Y00380821
X00313669Y00380821
X00301670Y00376820
X00301670Y00372820
X00301670Y00364819
X00301670Y00356820
X00301670Y00348819
X00305671Y00320821
X00309669Y00364819
X00309669Y00360821
X00309669Y00352820
X00309669Y00344819
X00309983Y00340761
X00309669Y00332820
X00301915Y00332802
X00297670Y00296821
X00297784Y00313315
X00309669Y00300821
X00301670Y00300821
X00305671Y00304000
X00293290Y00316657
X00293670Y00324819
X00309669Y00316821
X00305664Y00317276
X00313614Y00316958
X00317670Y00296821
X00321670Y00300821
X00325317Y00304924
X00321670Y00304819
X00317670Y00304819
X00313632Y00296522
X00305671Y00384819
X00301670Y00384819
X00297670Y00384819
X00293670Y00384819
X00289669Y00384819
X00285671Y00384819
X00281671Y00384819
X00277670Y00384819
X00281671Y00368819
X00297670Y00380821
X00293670Y00380821
X00301670Y00380821
X00285671Y00376820
X00289669Y00380821
X00285671Y00380821
X00281671Y00380821
X00277670Y00380821
X00273670Y00380821
X00285671Y00372820
X00281671Y00360821
X00293670Y00360821
X00293670Y00352820
X00293670Y00344819
X00293624Y00337566
X00289669Y00364819
X00289733Y00336789
X00290082Y00344624
X00289669Y00352820
X00277670Y00300821
X00281671Y00300821
X00285671Y00300821
X00281671Y00296821
X00281671Y00316821
X00285671Y00328820
X00285671Y00320821
X00285671Y00312820
X00285671Y00308820
X00281671Y00308820
X00261500Y00381000
X00265671Y00380821
X00273670Y00356820
X00273922Y00360588
X00273670Y00372820
X00273670Y00348819
X00273670Y00340821
X00273670Y00332820
X00273670Y00328820
X00273830Y00324848
X00269669Y00376820
X00265671Y00376820
X00261671Y00376820
X00257670Y00376820
X00269669Y00356820
X00269669Y00368819
X00265671Y00368819
X00261671Y00368819
X00257670Y00368819
X00253670Y00368819
X00270500Y00373000
X00265671Y00372820
X00261671Y00372820
X00257670Y00372820
X00257670Y00364819
X00253670Y00364819
X00257670Y00360821
X00253670Y00360821
X00265500Y00357500
X00261671Y00356820
X00257670Y00356820
X00253670Y00356820
X00253670Y00372820
X00266301Y00359960
X00269957Y00353172
X00261671Y00348819
X00265579Y00341284
X00265671Y00344819
X00261671Y00344819
X00257670Y00344819
X00253670Y00344819
X00254023Y00341743
X00249669Y00356820
X00249669Y00360821
X00249669Y00364819
X00249669Y00368819
X00249669Y00372820
X00249009Y00336157
X00249127Y00341431
X00249669Y00344819
X00249669Y00348819
X00249669Y00352820
X00269669Y00316821
X00265671Y00316821
X00265671Y00320821
X00265671Y00324819
X00269669Y00304819
X00269669Y00308820
X00265671Y00308820
X00269669Y00312820
X00269669Y00300821
M30
