/* XPM */
static char const* current_probe_xpm[] = {
"32 32 2 1",
" 	c None",
".	c #000000",
"                                ",
"                                ",
"                                ",
"                                ",
"                                ",
"                                ",
"                                ",
"                                ",
"                      ....      ",
"                     ..  ..     ",
"                    ..    ..    ",
"                  ...      .    ",
"                ....       .    ",
"               .....       ..   ",
"              ......        ..  ",
"       ..    ......          .. ",
"       ..   ......              ",
"       ..  ......               ",
"       .. ......                ",
"       ........                 ",
"       .......                  ",
"       ......                   ",
"      ......                    ",
"   ........                     ",
" .........                      ",
" ..   ...                       ",
"..     ..                       ",
"..     ..                       ",
"..     ..                       ",
" .    ..                        ",
"  ......                        ",
"   ...                          "};
