#define current_probe_width 32
#define current_probe_height 32
static unsigned char current_probe_bits[] = {
   0x00, 0x00, 0x00, 0x00, 0x00, 0x00, 0x00, 0x00, 0x00, 0x00, 0x00, 0x00,
   0x00, 0x00, 0x00, 0x00, 0x00, 0x00, 0x00, 0x00, 0x00, 0x00, 0x00, 0x00,
   0x00, 0x00, 0x00, 0x00, 0x00, 0x00, 0x00, 0x00, 0x00, 0x00, 0xc0, 0x03,
   0x00, 0x00, 0x60, 0x06, 0x00, 0x00, 0x30, 0x0c, 0x00, 0x00, 0x1c, 0x08,
   0x00, 0x00, 0x0f, 0x08, 0x00, 0x80, 0x0f, 0x18, 0x00, 0xc0, 0x0f, 0x30,
   0x80, 0xe1, 0x07, 0x60, 0x80, 0xf1, 0x03, 0x00, 0x80, 0xf9, 0x01, 0x00,
   0x80, 0xfd, 0x00, 0x00, 0x80, 0x7f, 0x00, 0x00, 0x80, 0x3f, 0x00, 0x00,
   0x80, 0x1f, 0x00, 0x00, 0xc0, 0x0f, 0x00, 0x00, 0xf8, 0x07, 0x00, 0x00,
   0xfe, 0x03, 0x00, 0x00, 0xc6, 0x01, 0x00, 0x00, 0x83, 0x01, 0x00, 0x00,
   0x83, 0x01, 0x00, 0x00, 0x83, 0x01, 0x00, 0x00, 0xc2, 0x00, 0x00, 0x00,
   0xfc, 0x00, 0x00, 0x00, 0x38, 0x00, 0x00, 0x00 };
