/* XPM */ 
static char const *cursor_label_hier_xpm[] = {
"32 32 3 1",
" 	c None",
"!	c black",
"#	c white",
"       #                        ",
"      #!#                       ",
"      #!#                       ",
"      #!#                       ",
"      #!#                       ",
"      #!#                       ",
" #####   #####                  ",
"#!!!!!   !!!!!#                 ",
" #####   #####                  ",
"      #!#                       ",
"      #!#                       ",
"      #!#                       ",
"      #!#                       ",
"      #!#                       ",
"       #                        ",
"                                ",
"             ####               ",
"            #!!!!#     ####     ",
"            #!!!!#    #!!!!#    ",
"           #!!!!!!#   #!###!#   ",
"           #!!!!!!#   #!#  #!#  ",
"           #!!##!!#   #!#   #!# ",
"          #!!!##!!!#  #!#    #! ",
"          #!!!##!!!#  #!#   #!# ",
"          #!!!!!!!!#  #!#  #!#  ",
"         #!!!!!!!!!!# #!###!#   ",
"         #!!!####!!!# #!!!!#    ",
"        #!!!#    #!!!# ####     ",
"        #!!!#    #!!!#          ",
"         ###      ###           ",
"                                ",
"                                "};