/* XPM */
static char const * cursor_line_bus64_xpm[] = {
"64 64 4 1",
" 	c None",
".	c #000000",
"+	c #0000FF",
"@	c #FFFFFF",
"                                                                ",
"                                                                ",
"                                                                ",
"                                                                ",
"                                                                ",
"                                                                ",
"                                                 @@             ",
"                                                @@@@            ",
"                                               @@++@@           ",
"                                              @@++++@@          ",
"                                             @@++++++@@         ",
"                                            @@++++++++@@        ",
"                                           @@++++++++++@@       ",
"                                          @@+++++++++++@@       ",
"                                         @@+++++++++++@@        ",
"                                        @@+++++++++++@@         ",
"                                       @@+++++++++++@@          ",
"                                      @@+++++++++++@@           ",
"                                     @@+++++++++++@@            ",
"                                    @@+++++++++++@@             ",
"                                   @@+++++++++++@@              ",
"                                  @@+++++++++++@@               ",
"                                 @@+++++++++++@@                ",
"                                @@+++++++++++@@                 ",
"                               @@+++++++++++@@                  ",
"                              @@+++++++++++@@                   ",
"                             @@+++++++++++@@                    ",
"                            @@+++++++++++@@                     ",
"                           @@+++++++++++@@                      ",
"                          @@+++++++++++@@                       ",
"                         @@+++++++++++@@                        ",
"                        @@+++++++++++@@                         ",
"                       @@+++++++++++@@                          ",
"                      @@+++++++++++@@                           ",
"                     @@+++++++++++@@                            ",
"                    @@+++++++++++@@                             ",
"                   @@+++++++++++@@                              ",
"                  @@+++++++++++@@                               ",
"                 @@+++++++++++@@                                ",
"                 @@++++++++++@@                                 ",
"                  @@++++++++@@                                  ",
"                   @@++++++@@                                   ",
"                    @@++++@@                                    ",
"         @@@@        @@++@@                                     ",
"         @..@         @@@@                                      ",
"         @..@          @@                                       ",
"         @..@                                                   ",
"         @..@                                                   ",
"         @..@                                                   ",
"         @..@                                                   ",
"         @..@                                                   ",
" @@@@@@@@@..@@@@@@@@@                                           ",
" @........  ........@                                           ",
" @........  ........@                                           ",
" @@@@@@@@@..@@@@@@@@@                                           ",
"         @..@                                                   ",
"         @..@                                                   ",
"         @..@                                                   ",
"         @..@                                                   ",
"         @..@                                                   ",
"         @..@                                                   ",
"         @..@                                                   ",
"         @@@@                                                   ",
"                                                                "};
