/* XPM */ 
static const char * cursor_label_global_xpm[] = {
"32 32 3 1",
" 	c None",
"!	c black",
"#	c white",
"       #                        ",
"      #!#                       ",
"      #!#                       ",
"      #!#                       ",
"      #!#                       ",
"      #!#                       ",
" #####   #####                  ",
"#!!!!!   !!!!!#                 ",
" #####   #####                  ",
"      #!#                       ",
"      #!#                       ",
"      #!#                       ",
"      #!#                       ",
"      #!#                       ",
"       #  ##############        ",
"         #!!!!!!!!!!!!!!#       ",
"         #!     ####    !#      ",
"         #!    #!!!!#    !#     ",
"         #!    #!!!!#     !#    ",
"         #!   #!!!!!!#     !#   ",
"         #!   #!!!!!!#      !#  ",
"         #!   #!!##!!#       !# ",
"         #!  #!!!##!!!#       !#",
"         #!  #!!!##!!!#        !",
"         #!  #!!!!!!!!#       !#",
"         #! #!!!!!!!!!!#     !# ",
"         #! #!!!####!!!#    !#  ",
"         #!#!!!#    #!!!#  !#   ",
"         #!#!!!#    #!!!# !#    ",
"         #! ###      ### !#     ",
"         #!             !#      ",
"         #!!!!!!!!!!!!!!#       "};