#define voltage_probe_width 32
#define voltage_probe_height 32
static unsigned char voltage_probe_bits[] = {
   0x00, 0x00, 0x00, 0x00, 0x00, 0x00, 0x00, 0x00, 0x00,
    0x00, 0x00, 0x00, 0x00, 0x00, 0x00, 0x03, 0x00, 0x00, 0x80, 0x07, 0x00, 0x00, 0xc0, 0x0f, 0x00,
    0x00, 0xe0, 0x1f, 0x00, 0x00, 0xf0, 0x1f, 0x00, 0x00, 0xf8, 0x0f, 0x00, 0x00, 0xfc, 0x07, 0x00,
    0x00, 0xfe, 0x03, 0x00, 0x00, 0xff, 0x01, 0x00, 0x80, 0xff, 0x00, 0x00, 0xc0, 0x7f, 0x00, 0x00,
    0xe0, 0x3f, 0x00, 0x00, 0xe0, 0x1f, 0x00, 0x00, 0xfc, 0x0f, 0x00, 0x00, 0xfc, 0x07, 0x00, 0x00,
    0xfc, 0x03, 0x00, 0x00, 0xf8, 0x00, 0x00, 0x00, 0xf4, 0x00, 0x00, 0x00, 0xea, 0x00, 0x00, 0x00,
    0x05, 0x00, 0x00, 0x80, 0x02, 0x00, 0x00, 0x40, 0x01, 0x00, 0x00, 0xa0, 0x00, 0x00, 0x00, 0x50,
    0x00, 0x00, 0x00, 0x2c, 0x00, 0x00, 0x00, 0x12, 0x00, 0x00, 0x00, 0x11, 0x00, 0x00, 0x00, 0x0a,
    0x00, 0x00, 0x00, 0x04, 0x00, 0x00, 0x00 };
