/* XPM */
static char const * cursor_warning64_xpm[] = {
"64 64 4 1",
" 	c None",
".	c #000000",
"+	c #FFFFFF",
"@	c #FF0000",
"                                                                ",
"                                                                ",
" ..                                                             ",
" ...                                                            ",
" .+..                                                           ",
" .++..                                                          ",
" .+++..                                                         ",
" .++++..                                                        ",
" .+++++..                                                       ",
" .++++++..                                                      ",
" .+++++++..                                                     ",
" .++++++++..                                                    ",
" .+++++++++..                                                   ",
" .++++++++++..                                                  ",
" .+++++++++++..                                                 ",
" .++++++++++++..                                                ",
" .+++++++++++++..                                               ",
" .++++++++++++++..                                              ",
" .+++++++++++++++..                                             ",
" .++++++++++++++++..                                            ",
" .+++++++++++++++++..                                           ",
" .++++++++++++++++++..                                          ",
" .++++++++++++.........                                         ",
" .+++++++++++.                                                  ",
" .+++++++++++..                                                 ",
" .++++++++++++.                                                 ",
" .++++...+++++..                                                ",
" .+++..  .+++++..                                               ",
" .++..   .++++++.                                               ",
" .+..    ..+++++.                                               ",
" ...      .+++++..                                              ",
" ..       ..+++++..                                             ",
"           ..+++++.                                             ",
"            .+++++.                       ++                    ",
"            ..+++..                      +..+                   ",
"             .++..                      +....+                  ",
"             ....  @@                  +......+                 ",
"                  @@@@                +........+                ",
"                  @@@@               +..........+               ",
"                 @@++@@              +..........+               ",
"                @@@++@@@              ++++..++++                ",
"                @@++++@@          ++     +..+     ++            ",
"               @@+....+@@        +..+    +..+    +..+           ",
"              @@@+....+@@@      +...+    +..+    +...+          ",
"              @@@+....+@@@     +....+    +..+    +....+         ",
"             @@@++....++@@@   +.....++++++..++++++.....+        ",
"            @@@+++....+++@@@ +..........................+       ",
"            @@@+++....+++@@@ +..........................+       ",
"           @@@++++....++++@@@ +.....++++++..++++++.....+        ",
"          @@@+++++....+++++@@@ +....+    +..+    +....+         ",
"          @@@+++++....+++++@@@  +...+    +..+    +...+          ",
"         @@@++++++....++++++@@@  +..+    +..+    +..+           ",
"        @@@++++++++..++++++++@@@  ++     +..+     ++            ",
"        @@@++++++++..++++++++@@@      ++++..++++                ",
"       @@@++++++++++++++++++++@@@    +..........+               ",
"      @@@++++++++++++++++++++++@@@   +..........+               ",
"      @@@++++++++++..++++++++++@@@    +........+                ",
"     @@@++++++++++....++++++++++@@@    +......+                 ",
"    @@@+++++++++++....+++++++++++@@@    +....+                  ",
"    @@@++++++++++++..++++++++++++@@@     +..+                   ",
"   @@@++++++++++++++++++++++++++++@@@     ++                    ",
"   @@++++++++++++++++++++++++++++++@@                           ",
"    @@@@@@@@@@@@@@@@@@@@@@@@@@@@@@@@                            ",
"     @@@@@@@@@@@@@@@@@@@@@@@@@@@@@@                             "};
