#define voltage_probe_width 32
#define voltage_probe_height 32
static unsigned char voltage_probe_bits[] = {
   0x00, 0x00, 0x00, 0x00, 0x00, 0x00, 0x00, 0x00, 0x00, 0x00, 0x00, 0x00,
   0x00, 0x00, 0x00, 0x00, 0x00, 0x00, 0x00, 0x00, 0x00, 0x00, 0x00, 0x00,
   0x00, 0x00, 0x00, 0x00, 0x00, 0x00, 0x00, 0x00, 0x00, 0x00, 0x00, 0x00,
   0x00, 0x00, 0xe0, 0x03, 0x00, 0x00, 0x30, 0x06, 0x00, 0x00, 0x18, 0x0c,
   0x00, 0x00, 0x0e, 0x08, 0x00, 0x80, 0x07, 0x08, 0x00, 0xc0, 0x07, 0x18,
   0x00, 0xe0, 0x07, 0x30, 0x00, 0xf0, 0x03, 0x60, 0x00, 0xf8, 0x01, 0x00,
   0x00, 0xfc, 0x00, 0x00, 0x00, 0x7e, 0x00, 0x00, 0x00, 0x3f, 0x00, 0x00,
   0x80, 0x1f, 0x00, 0x00, 0xc0, 0x0f, 0x00, 0x00, 0xe0, 0x07, 0x00, 0x00,
   0xf0, 0x03, 0x00, 0x00, 0xf0, 0x01, 0x00, 0x00, 0xf0, 0x00, 0x00, 0x00,
   0x18, 0x00, 0x00, 0x00, 0x0c, 0x00, 0x00, 0x00, 0x06, 0x00, 0x00, 0x00,
   0x02, 0x00, 0x00, 0x00, 0x00, 0x00, 0x00, 0x00 };
