0
SECTION
2
HEADER
9
$INSUNITS
70
4
9
$ACADVER
1
AC1014
9
$HANDSEED
5
FFFF
0
ENDSEC
0
SECTION
2
TABLES
0
TABLE
2
VPORT
5
8
100
AcDbSymbolTable
0
ENDTAB
0
TABLE
2
LTYPE
5
5
100
AcDbSymbolTable
0
LTYPE
5
14
100
AcDbSymbolTableRecord
100
AcDbLinetypeTableRecord
2
BYBLOCK
70
0
0
LTYPE
5
15
100
AcDbSymbolTableRecord
100
AcDbLinetypeTableRecord
2
BYLAYER
70
0
0
LTYPE
5
16
100
AcDbSymbolTableRecord
100
AcDbLinetypeTableRecord
2
DASHED
70
0
3
Dashed __ __ __ __ __ __ __ __ __ __ __ __ __ _
72
65
73
2
40
0.75
49
0.5
74
0
49
-0.25
74
0
0
ENDTAB
0
TABLE
2
LAYER
5
2
100
AcDbSymbolTable
70
2
0
LAYER
5
50
100
AcDbSymbolTableRecord
100
AcDbLayerTableRecord
2
0
70
0
62
7
6
CONTINUOUS
0
ENDTAB
0
TABLE
2
STYLE
5
3
100
AcDbSymbolTable
70
1
0
STYLE
5
11
100
AcDbSymbolTableRecord
100
AcDbTextStyleTableRecord
2
STANDARD
70
0
0
ENDTAB
0
TABLE
2
VIEW
5
6
100
AcDbSymbolTable
70
0
0
ENDTAB
0
TABLE
2
UCS
5
7
100
AcDbSymbolTable
70
0
0
ENDTAB
0
TABLE
2
APPID
5
9
100
AcDbSymbolTable
70
2
0
APPID
5
12
100
AcDbSymbolTableRecord
100
AcDbRegAppTableRecord
2
ACAD
70
0
0
ENDTAB
0
TABLE
2
DIMSTYLE
5
A
100
AcDbSymbolTable
70
1
0
ENDTAB
0
TABLE
2
BLOCK_RECORD
5
1
100
AcDbSymbolTable
70
1
0
BLOCK_RECORD
5
1F
100
AcDbSymbolTableRecord
100
AcDbBlockTableRecord
2
*MODEL_SPACE
0
BLOCK_RECORD
5
1B
100
AcDbSymbolTableRecord
100
AcDbBlockTableRecord
2
*PAPER_SPACE
0
ENDTAB
0
ENDSEC
0
SECTION
2
BLOCKS
0
BLOCK
5
20
100
AcDbEntity
100
AcDbBlockBegin
2
*MODEL_SPACE
0
ENDBLK
5
21
100
AcDbEntity
100
AcDbBlockEnd
0
BLOCK
5
1C
100
AcDbEntity
100
AcDbBlockBegin
2
*PAPER_SPACE
0
ENDBLK
5
1D
100
AcDbEntity
100
AcDbBlockEnd
0
ENDSEC
0
SECTION
2
ENTITIES
0
SPLINE
5
100
100
AcDbEntity
8
0
100
AcDbSpline
70
0
71
3
72
12
73
8
74
0
42
0.000000001
43
0.0000000001
44
0.0000000001
40
0
40
0
40
0
40
0
40
0.33333333333333298
40
0.33333333333333298
40
0.66666666666666696
40
0.66666666666666696
40
1
40
1
40
1
40
1
10
75.095496232325601
20
-23.336064580942701
30
0
10
74.663252470047794
20
-23.336064580942701
30
0
10
74.231041194511505
20
-23.279702124050601
30
0
10
73.395464003413906
20
-23.058005399153998
30
0
10
72.992160888481905
20
-22.892687793516405
30
0
10
72.241381049540621
20
-22.464122380129204
30
0
10
71.893960752929019
20
-22.200906782662205
30
0
10
71.586077211939298
20
-21.897521886505999
30
0
0
LINE
5
101
100
AcDbEntity
8
0
100
AcDbLine
10
75.095496232325601
20
-23.336064580942701
30
0
11
80
21
-23.336064580942701
31
0
0
LINE
5
102
100
AcDbEntity
8
0
100
AcDbLine
10
80
20
-23.336064580942701
30
0
11
80
21
23.336064580942701
31
0
0
LINE
5
103
100
AcDbEntity
8
0
100
AcDbLine
10
80
20
23.336064580942701
30
0
11
75.095496232325601
21
23.336064580942701
31
0
0
SPLINE
5
104
100
AcDbEntity
8
0
100
AcDbSpline
70
0
71
3
72
12
73
8
74
0
42
0.000000001
43
0.0000000001
44
0.0000000001
40
0
40
0
40
0
40
0
40
0.33333333333333298
40
0.33333333333333298
40
0.66666666666666696
40
0.66666666666666696
40
1
40
1
40
1
40
1
10
71.586077211939198
20
21.897521886506102
30
0
10
71.893960752928905
20
22.200906782662301
30
0
10
72.241381049540621
20
22.464122380129204
30
0
10
72.992160888481806
20
22.892687793516501
30
0
10
73.395464003413906
20
23.058005399153998
30
0
10
74.231041194511405
20
23.279702124050701
30
0
10
74.663252470047794
20
23.3360645809428
30
0
10
75.095496232325601
20
23.3360645809428
30
0
0
SPLINE
5
105
100
AcDbEntity
8
0
100
AcDbSpline
70
0
71
3
72
17
73
13
74
0
42
0.000000001
43
0.0000000001
44
0.0000000001
40
0
40
0
40
0
40
0
40
8.75
40
17.5
40
26.25
40
35
40
43.75
40
48.125
40
54.6875
40
61.25
40
65.625
40
68.586113146178306
40
68.586113146178306
40
68.586113146178306
40
68.586113146178306
10
3.0000000000000009
20
1
30
0
10
5.9166666666685011
20
1.13125000000367
30
0
10
11.7499999999953
20
1.4447241794501999
30
0
10
20.499999999995403
20
2.1418663824043001
30
0
10
29.250000000007002
20
3.1753759810356104
30
0
10
38.000000000009997
20
4.7075909670105798
30
0
10
45.291666666675205
20
6.5999034569298498
30
0
10
51.854166666672405
20
8.9220580486826897
30
0
10
57.687500000007205
20
11.5468446566103
30
0
10
63.520833333340804
20
15.072454931720999
30
0
10
68.153704382073641
20
18.675740306301417
30
0
10
70.599075430770398
20
20.924813993762925
30
0
10
71.586113146164777
20
21.897485421534199
30
0
0
LINE
5
106
100
AcDbEntity
8
0
100
AcDbLine
10
3.0000000000000009
20
1
30
0
11
0
21
1
31
0
0
SPLINE
5
107
100
AcDbEntity
8
0
100
AcDbSpline
70
0
71
3
72
24
73
20
74
0
42
0.000000001
43
0.0000000001
44
0.0000000001
40
-208.43365301662922
40
-208.43365301662922
40
-208.43365301662922
40
-208.43365301662922
40
-206.25
40
-199.375
40
-189.0625
40
-178.75
40
-168.4375
40
-158.125
40
-147.8125
40
-137.5
40
-123.75
40
-110
40
-96.25
40
-82.5
40
-68.75
40
-55
40
-41.25
40
-27.5
40
0
40
0
40
0
40
0
10
-208.43365301660072
20
-96.056036040185575
30
0
10
-207.70576867772178
20
-94.485857108108746
30
0
10
-204.68621767216931
20
-88.128723568742487
30
0
10
-198.22916666661601
20
-75.855310418393302
30
0
10
-189.062499999946
20
-61.484586409825901
30
0
10
-178.749999999946
20
-48.598512067210002
30
0
10
-168.437499999946
20
-38.328040975759201
30
0
10
-158.12499999994699
20
-30.142293632750299
30
0
10
-147.812499999945
20
-23.617975295174702
30
0
10
-136.35416666659501
20
-17.840689191687499
30
0
10
-123.74999999994301
20
-12.988044895035802
30
0
10
-110.000000000016
20
-9.0756929678389398
30
0
10
-96.250000000016414
20
-6.1845877297502909
30
0
10
-82.500000000016314
20
-4.0481538581406511
30
0
10
-68.750000000016598
20
-2.46938936745198
30
0
10
-55.000000000015703
20
-1.3027608877378802
30
0
10
-41.250000000016406
20
-0.44054428657116307
30
0
10
-22.916666666691299
20
0.40834163278261698
30
0
10
-9.1666666666666696
20
0.79833333335535206
30
0
10
1.8488927466117464e-31
20
1
30
0
0
SPLINE
5
108
100
AcDbEntity
8
0
100
AcDbSpline
70
0
71
3
72
35
73
31
74
0
42
0.000000001
43
0.0000000001
44
0.0000000001
40
0
40
0
40
0
40
0
40
4.020604669580301
40
4.020604669580301
40
4.020604669580301
40
8.0412093391606021
40
8.0412093391606021
40
8.0412093391606021
40
12.0618140087409
40
12.0618140087409
40
12.0618140087409
40
16.082418678321204
40
16.082418678321204
40
16.082418678321204
40
20.103023347901502
40
20.103023347901502
40
20.103023347901502
40
24.123628017481799
40
24.123628017481799
40
24.123628017481799
40
28.1442326870621
40
28.1442326870621
40
28.1442326870621
40
32.164837356642401
40
32.164837356642401
40
32.164837356642401
40
36.185442026222702
40
36.185442026222702
40
36.185442026222702
40
40.206046695803003
40
40.206046695803003
40
40.206046695803003
40
40.206046695803003
10
-190.28706428121501
20
-124.467400490364
30
0
10
-191.62368583447801
20
-124.467488265909
30
0
10
-192.96028028899102
20
-124.33313720765904
30
0
10
-194.27014474594401
20
-124.06703142275303
30
0
10
-195.580009202897
20
-123.800925637847
30
0
10
-196.86307324609294
20
-123.40307943170001
30
0
10
-198.09370342389144
20
-122.88144109928751
30
0
10
-199.32433360169
20
-122.35980276687501
30
0
10
-200.50246375740002
20
-121.71440035063
30
0
10
-201.60455684114999
20
-120.9581279003185
30
0
10
-202.70664992490001
20
-120.201855450007
30
0
10
-203.73264668994699
20
-119.33475362161397
30
0
10
-204.66204945451054
20
-118.37414564456449
30
0
10
-205.591452219074
20
-117.41353766751502
30
0
10
-206.42421101996302
20
-116.359475182541
30
0
10
-207.14368874341503
20
-115.23301657708451
30
0
10
-207.863166466867
20
-114.10655797162802
30
0
10
-208.46932443492193
20
-112.907763802285
30
0
10
-208.95005263558002
20
-111.6605839510035
30
0
10
-209.43078083623803
20
-110.413404099722
30
0
10
-209.78605342632602
20
-109.11790561287602
30
0
10
-210.00877265978502
20
-107.79997036128101
30
0
10
-210.231491893244
20
-106.482035109686
30
0
10
-210.32164579704801
20
-105.141733943411
30
0
10
-210.2774332485275
20
-103.80584381510604
30
0
10
-210.23322070000702
20
-102.46995368680102
30
0
10
-210.054644075959
20
-101.13854641176002
30
0
10
-209.74527103559552
20
-99.838221257713258
30
0
10
-209.43589799523204
20
-98.537896103666498
30
0
10
-208.99574516995003
20
-97.268722973993604
30
0
10
-208.43360606948903
20
-96.056057803353696
30
0
0
LINE
5
109
100
AcDbEntity
8
0
100
AcDbLine
10
-190.28706428121501
20
-124.467400490364
30
0
11
-111.373692868833
21
-124.46221827247001
31
0
0
SPLINE
5
110
100
AcDbEntity
8
0
100
AcDbSpline
70
0
71
3
72
20
73
16
74
0
42
0.000000001
43
0.0000000001
44
0.0000000001
40
0
40
0
40
0
40
0
40
0.14285714285714299
40
0.14285714285714299
40
0.28571428571428598
40
0.28571428571428598
40
0.42857142857142899
40
0.42857142857142899
40
0.57142857142857095
40
0.57142857142857095
40
0.71428571428571397
40
0.71428571428571397
40
0.85714285714285698
40
0.85714285714285698
40
1
40
1
40
1
40
1
10
-106.45711086970999
20
-120.369958682898
30
0
10
-106.51711554428502
20
-120.694982891847
30
0
10
-106.60945165821602
20
-121.01402955187602
30
0
10
-106.85517676951702
20
-121.62769424792002
30
0
10
-107.00855944475499
20
-121.92229649527701
30
0
10
-107.370368347859
20
-122.47552294722
30
0
10
-107.57878526693402
20
-122.734132918133
30
0
10
-108.042495721335
20
-123.205235671228
30
0
10
-108.297777326098
20
-123.41771633265502
30
0
10
-108.84521273875902
20
-123.78822902941501
30
0
10
-109.13735246197702
20
-123.94625153202
30
0
10
-109.74705437619001
20
-124.201650759308
30
0
10
-110.064600880485
20
-124.29902091295901
30
0
10
-110.712670107729
20
-124.429295492956
30
0
10
-111.043176156846
20
-124.462196567535
30
-2.7755575615628914e-16
10
-111.373692868833
20
-124.46221827247001
30
0
0
SPLINE
5
111
100
AcDbEntity
8
0
100
AcDbSpline
70
0
71
3
72
25
73
21
74
0
42
0.000000001
43
0.0000000001
44
0.0000000001
40
0
40
0
40
0
40
0
40
13.4
40
20.100000000000001
40
26.800000000000001
40
33.5
40
40.200000000000003
40
46.899999999999999
40
53.600000000000001
40
60.299999999999997
40
67
40
72.025000000000006
40
77.049999999999997
40
82.075000000000003
40
87.099999999999994
40
92.125
40
97.150000000000006
40
100.5
40
103.84999999999999
40
106.45712433226663
40
106.45712433226663
40
106.45712433226663
40
106.45712433226663
10
1.8488927466117464e-31
20
-1
30
0
10
-4.4666666666666694
20
-1.20100000000066
30
0
10
-11.166666666660801
20
-1.5894437788973101
30
0
10
-20.099999999996104
20
-2.43347928512891
30
0
10
-26.800000000005504
20
-3.2899069755152706
30
0
10
-33.500000000007603
20
-4.4475456324009404
30
0
10
-40.200000000007101
20
-6.0125783988351404
30
0
10
-46.900000000007211
20
-8.1283133261109608
30
0
10
-53.600000000007206
20
-10.988546275469202
30
0
10
-60.300000000007898
20
-14.855252027145301
30
0
10
-66.441666666674394
20
-19.6464915138999
30
0
10
-72.025000000006202
20
-25.345492659933502
30
0
10
-77.050000000005895
20
-31.776573163797401
30
0
10
-82.075000000006
20
-39.839291314899299
30
0
10
-87.10000000000602
20
-49.947815983412305
30
0
10
-92.125000000006011
20
-62.621192114886099
30
0
10
-96.591666666672396
20
-76.744123152591101
30
0
10
-100.50000000000401
20
-91.717338918235995
30
0
10
-103.6023747774401
20
-105.5373481931175
30
0
10
-105.58808288815212
20
-115.662535814617
30
0
10
-106.45712433225057
20
-120.36995619756496
30
0
0
LINE
5
112
100
AcDbEntity
8
0
100
AcDbLine
10
1.8488927466117464e-31
20
-1
30
0
11
3.0000000000000009
21
-1
31
0
0
SPLINE
5
113
100
AcDbEntity
8
0
100
AcDbSpline
70
0
71
3
72
17
73
13
74
0
42
0.000000001
43
0.0000000001
44
0.0000000001
40
-68.586113146176601
40
-68.586113146176601
40
-68.586113146176601
40
-68.586113146176601
40
-65.625
40
-61.25
40
-54.6875
40
-48.125
40
-43.75
40
-35
40
-26.25
40
-17.5
40
-8.75
40
0
40
0
40
0
40
0
10
71.586113146163072
20
-21.897485421535947
30
0
10
70.599075430769275
20
-20.924813993765781
30
0
10
68.153704382073073
20
-18.675740306297914
30
0
10
63.520833333340804
20
-15.072454931720301
30
0
10
57.687500000007205
20
-11.546844656605902
30
0
10
51.854166666672405
20
-8.92205804868264
30
0
10
45.291666666675205
20
-6.5999034569300408
30
0
10
38.000000000009997
20
-4.7075909670120097
30
0
10
29.250000000007002
20
-3.1753759810357103
30
0
10
20.499999999995403
20
-2.1418663824039199
30
0
10
11.7499999999953
20
-1.4447241794518102
30
0
10
5.9166666666685011
20
-1.13125000000043
30
0
10
3.0000000000000009
20
-1
30
0
0
ENDSEC
0
SECTION
2
OBJECTS
0
DICTIONARY
5
C
100
AcDbDictionary
3
ACAD_GROUP
350
D
3
ACAD_MLINESTYLE
350
17
0
DICTIONARY
5
D
100
AcDbDictionary
0
DICTIONARY
5
1A
330
C
100
AcDbDictionary
0
DICTIONARY
5
17
100
AcDbDictionary
0
ENDSEC
0
EOF
