/* XPM */
static char * browse_files_xpm[] = {
"16 16 66 1",
" 	c None",
".	c #000000",
"+	c #E4E5DE",
"@	c #D3D5CA",
"#	c #A5A797",
"$	c #F3F4F0",
"%	c #ABAE99",
"&	c #BDC0AD",
"*	c #BCBEAA",
"=	c #B1B49F",
"-	c #6E715C",
";	c #E6E7DD",
">	c #F5F6F3",
",	c #818181",
"'	c #E2E4D9",
")	c #E1E3D8",
"!	c #DFE1D6",
"~	c #C4C6B6",
"{	c #F7F7F6",
"]	c #D3D6C5",
"^	c #808080",
"/	c #636363",
"(	c #D2D2D2",
"_	c #F2F2F2",
":	c #CACDB9",
"<	c #C8CBB6",
"[	c #C6C9B3",
"}	c #C4C8B1",
"|	c #93967C",
"1	c #F0F0EB",
"2	c #C5C5C5",
"3	c #F5F5F5",
"4	c #FEFEFE",
"5	c #F0F1EC",
"6	c #D2D4C2",
"7	c #AEAEAE",
"8	c #E5E5E5",
"9	c #F8F8F8",
"0	c #E0E0E0",
"a	c #C3C6AF",
"b	c #C1C4AD",
"c	c #909478",
"d	c #EFF0EB",
"e	c #CED1BD",
"f	c #7B7B7B",
"g	c #5D5D5D",
"h	c #ADADAD",
"i	c #BCBCBC",
"j	c #626262",
"k	c #666666",
"l	c #BFC2AB",
"m	c #BDC1A8",
"n	c #8E9175",
"o	c #EDEEE8",
"p	c #7C7C7C",
"q	c #525252",
"r	c #BBBEA5",
"s	c #BABDA3",
"t	c #8B8F72",
"u	c #ECEEE7",
"v	c #B7BAA0",
"w	c #E8E8E0",
"x	c #C6C9BA",
"y	c #8E9276",
"z	c #8C9073",
"A	c #646751",
"                ",
"                ",
"   ....         ",
"  .+@@#.        ",
" .$%&*=-....... ",
" .;>;,..,''))!~.",
" .{]^/(_/^:<[}|.",
" .1].234_.:<[}|.",
" .56.7890.[}abc.",
" .defghijkablmn.",
" .o:<p..q..mrst.",
" .u[}ablm...vvt.",
" .wablmrsv...vt.",
" .xcynztttt..tA.",
"  ............. ",
"                "};
