/* XPM */
static char * fonts_xpm[] = {
"16 16 46 1",
" 	c None",
".	c #70653B",
"+	c #463F24",
"@	c #6B6139",
"#	c #1B180D",
"$	c #2C2818",
"%	c #595030",
"&	c #252112",
"*	c #292516",
"=	c #70643B",
"-	c #827544",
";	c #3D3721",
">	c #37311D",
",	c #3E3721",
"'	c #302B1A",
")	c #5C5331",
"!	c #010101",
"~	c #1A170E",
"{	c #1E1A10",
"]	c #403922",
"^	c #584F2F",
"/	c #16140C",
"(	c #1E1B10",
"_	c #312B1A",
":	c #0F0D07",
"<	c #2D2818",
"[	c #322D1A",
"}	c #231F11",
"|	c #3C3620",
"1	c #5A5230",
"2	c #332E1B",
"3	c #12100A",
"4	c #4F472A",
"5	c #413A23",
"6	c #302B19",
"7	c #342E1B",
"8	c #4A4227",
"9	c #6E633A",
"0	c #080704",
"a	c #2F2919",
"b	c #4C4529",
"c	c #51472B",
"d	c #242113",
"e	c #322D1B",
"f	c #5E5432",
"g	c #211E12",
"                ",
"   .+           ",
"  @  #          ",
"     $          ",
"   %&*          ",
"  =  *  -;>     ",
" ,   '  )!~     ",
" {  !]  ^!/ (_  ",
" :<[ }| 1!2<!3[ ",
"        4!5 6!7 ",
"        8!* ^!* ",
"        8!* ^!* ",
"        8!/ 90a ",
"        b!!cd~e ",
"        f*g a5  ",
"                "};
