/* XPM */ 
static const char * open_project_xpm[] = {
"16 16 67 1",
" 	c None",
"!	c black",
"#	c #020202",
"$	c #F8F8F8",
"%	c #ECECEC",
"&	c #EBEBEB",
"'	c #6B6B6B",
"(	c #2D2D2D",
")	c #181818",
"*	c #C5C5C5",
"+	c #434343",
",	c #5E5E5E",
"-	c #F0F0F0",
".	c #707070",
"0	c #3D3D3D",
"1	c #C3C3C3",
"2	c #0E0E0E",
"3	c #171717",
"4	c #4B4B4B",
"5	c #616161",
"6	c #131313",
"7	c #E4E5DF",
"8	c #6F6F6F",
"9	c #C6C6C6",
":	c #1B1B1B",
";	c #8D907B",
"<	c #4A4A4A",
"=	c #A6A6A6",
">	c #8A8C7D",
"?	c #1A1A1A",
"@	c #878A75",
"A	c #666858",
"B	c #4B4D3F",
"C	c #4D4F40",
"D	c #404135",
"E	c #424337",
"F	c #434437",
"G	c #404236",
"H	c #3C3D32",
"I	c #48493C",
"J	c #1A1A16",
"K	c #848672",
"L	c #25261F",
"M	c #F1F2E9",
"N	c #DDE0C7",
"O	c #D6DABB",
"P	c #CDD2AC",
"Q	c #C7CCA7",
"R	c #989C80",
"S	c #090909",
"T	c #5F6152",
"U	c #888980",
"V	c #A7AB8C",
"W	c #878A70",
"X	c #EFF0E5",
"Y	c #9EA284",
"Z	c #0C0C0C",
"[	c #96968D",
"]	c #E3E5D1",
"^	c #83866D",
"_	c #EDEFE2",
"`	c #A2A688",
"a	c #E7E9DA",
"b	c #D1D3BD",
"c	c #BBBF9D",
"d	c #989B80",
"e	c #6E715C",
"       !!!!!!#  ",
"       !$%&&&'( ",
"    !!!!!!)*&+,!",
"    !-%&&&.01&*2",
"!!!!!!!3*&456&*2",
"7!-%&&&801&9:&*2",
";!-%&&&<56=9:&*2",
">!-%&&&&9?&9:&*2",
"@ABCDEEFGHIJ6&*2",
"KLMNOPPPPPQR!11S",
"TUNPPPPPPPVW!!! ",
"LXOPPPPPPPY!Z   ",
"[]PPPPPPPP^!!   ",
"_PPPPPPPP`!!    ",
"abccccccde!     ",
"!!!!!!!!!!!     "};
