/* XPM */
static char * unzip_xpm[] = {
"16 16 16 1",
" 	c none",
".	c #060304",
"X	c #1c2824",
"o	c #043e50",
"O	c #045b72",
"+	c #047796",
"@	c #048cb0",
"#	c #2e1806",
"$	c #4a2204",
"%	c #833b04",
"&	c #a04904",
"*	c #0a2e36",
"=	c #eb6d04",
"-	c #5d2b04",
";	c #fcb472",
":	c #cc925c",
"         .....  ",
"      ..XoO++.  ",
"       .o@@@O.  ",
"     ....+@@O.  ",
"  ...#$$O@++o.  ",
" ..$%&%*@@X#*.  ",
" .=-%&%%*X==#.. ",
" .==&%&&-%--&&..",
" #====%$-&=&==$.",
" .====;%=&==&=%.",
" .====;-&==%$.. ",
" .====;&#$....  ",
" .$===;&$..-$.  ",
" ...%=;&&%%#..  ",
"   ..#:%$....   ",
"     .....      "};
