/* XPM */
static char * zip_xpm[] = {
"16 16 16 1",
" 	c none",
".	c #060304",
"X	c #1a1804",
"o	c #074d04",
"O	c #04ca04",
"+	c #2f2704",
"@	c #047e04",
"#	c #046704",
"$	c #572704",
"%	c #9f4904",
"&	c #7d3904",
"*	c #049a04",
"=	c #fc7604",
"-	c #d56204",
";	c #fcb472",
":	c #cc925c",
"       .  .X.   ",
"       ...oO+.  ",
"       o@oOOo.  ",
"     ..oOOO#.   ",
"  ...X$oOOOX.   ",
" ..$%%&#OOO*..  ",
" .%$&%&o#o&&$.. ",
" .==&&&$$%$$%%..",
" .===-$$&%----$.",
" .====;&------&.",
" .====;$%--&$.. ",
" .====;%X$....  ",
" .$-==;%$..$$.  ",
" ...&=;%%&&X..  ",
"   ..X:&$....   ",
"     .....      "};
