G04 (Genere par PCBNEW (2007-03-13)) le 24/3/2007-17:10:47*
G01*
G70*
G90*
%MOIN*%
G04 Gerber Fmt 3.4, Leading zero omitted, Abs format*
%FSLAX34Y34*%
G04 APERTURE LIST*
%ADD10C,0.007100*%
%ADD11C,0.005000*%
%ADD12C,0.015000*%
%ADD13C,0.012000*%
%ADD14C,0.055000*%
%ADD15R,0.055000X0.055000*%
%ADD16C,0.070000*%
%ADD17R,0.070000X0.300000*%
%ADD18R,0.060000X0.060000*%
%ADD19C,0.060000*%
%ADD20O,0.250000X0.150000*%
%ADD21C,0.045000*%
%ADD22C,0.017000*%
%ADD23C,0.025000*%
G04 APERTURE END LIST*
G54D10*
X48871Y-57910D02*
X49171Y-57910D01*
X49021Y-57910D02*
X49021Y-57110D01*
X49021Y-57199D02*
X48871Y-57377D01*
X49608Y-57910D02*
X49908Y-57910D01*
X49758Y-57910D02*
X49758Y-57110D01*
X49758Y-57199D02*
X49608Y-57377D01*
X50195Y-57733D02*
X50195Y-57822D01*
X50195Y-57822D02*
X50270Y-57910D01*
X50270Y-57910D02*
X50645Y-57910D01*
X50645Y-57910D02*
X50720Y-57822D01*
X50720Y-57822D02*
X50720Y-57555D01*
X50720Y-57555D02*
X50570Y-57377D01*
X50570Y-57377D02*
X50195Y-57377D01*
X50195Y-57377D02*
X50195Y-57110D01*
X50195Y-57110D02*
X50720Y-57110D01*
X51157Y-57822D02*
X51157Y-57910D01*
X51157Y-57910D02*
X51082Y-58176D01*
X51669Y-57733D02*
X51669Y-57822D01*
X51669Y-57822D02*
X51744Y-57910D01*
X51744Y-57910D02*
X52119Y-57910D01*
X52119Y-57910D02*
X52194Y-57822D01*
X52194Y-57822D02*
X52194Y-57555D01*
X52194Y-57555D02*
X52044Y-57377D01*
X52044Y-57377D02*
X51669Y-57377D01*
X51669Y-57377D02*
X51669Y-57110D01*
X51669Y-57110D02*
X52194Y-57110D01*
X52406Y-57110D02*
X52931Y-57110D01*
X52931Y-57110D02*
X52406Y-57910D01*
X53143Y-57910D02*
X53668Y-57110D01*
X53143Y-57822D02*
X53143Y-57199D01*
X53143Y-57199D02*
X53218Y-57110D01*
X53218Y-57110D02*
X53593Y-57110D01*
X53593Y-57110D02*
X53668Y-57199D01*
X53668Y-57199D02*
X53668Y-57822D01*
X53668Y-57822D02*
X53593Y-57910D01*
X53593Y-57910D02*
X53218Y-57910D01*
X53218Y-57910D02*
X53143Y-57822D01*
X54617Y-57910D02*
X54617Y-57377D01*
X54617Y-57466D02*
X54692Y-57377D01*
X54692Y-57377D02*
X54842Y-57377D01*
X54842Y-57377D02*
X54917Y-57466D01*
X54917Y-57466D02*
X54917Y-57910D01*
X54917Y-57466D02*
X54992Y-57377D01*
X54992Y-57377D02*
X55142Y-57377D01*
X55142Y-57377D02*
X55217Y-57466D01*
X55217Y-57466D02*
X55217Y-57910D01*
X55354Y-57910D02*
X55354Y-57377D01*
X55354Y-57466D02*
X55429Y-57377D01*
X55429Y-57377D02*
X55579Y-57377D01*
X55579Y-57377D02*
X55654Y-57466D01*
X55654Y-57466D02*
X55654Y-57910D01*
X55654Y-57466D02*
X55729Y-57377D01*
X55729Y-57377D02*
X55879Y-57377D01*
X55879Y-57377D02*
X55954Y-57466D01*
X55954Y-57466D02*
X55954Y-57910D01*
X29500Y-56800D02*
X75000Y-56800D01*
X29500Y-52000D02*
X29500Y-58220D01*
X75000Y-52000D02*
X75000Y-58220D01*
X75000Y-56800D02*
X74557Y-57030D01*
X75000Y-56800D02*
X74557Y-56570D01*
X29500Y-56800D02*
X29943Y-57030D01*
X29500Y-56800D02*
X29943Y-56570D01*
G54D11*
X50273Y-11641D02*
X50273Y-10841D01*
X50273Y-10841D02*
X49898Y-11464D01*
X49898Y-11464D02*
X50423Y-11464D01*
X50839Y-11553D02*
X50839Y-11641D01*
X50839Y-11641D02*
X50764Y-11907D01*
X51330Y-11464D02*
X51330Y-11553D01*
X51330Y-11553D02*
X51405Y-11641D01*
X51405Y-11641D02*
X51780Y-11641D01*
X51780Y-11641D02*
X51855Y-11553D01*
X51855Y-11553D02*
X51855Y-11286D01*
X51855Y-11286D02*
X51705Y-11108D01*
X51705Y-11108D02*
X51330Y-11108D01*
X51330Y-11108D02*
X51330Y-10841D01*
X51330Y-10841D02*
X51855Y-10841D01*
X52046Y-11464D02*
X52046Y-11553D01*
X52046Y-11553D02*
X52121Y-11641D01*
X52121Y-11641D02*
X52496Y-11641D01*
X52496Y-11641D02*
X52571Y-11553D01*
X52571Y-11553D02*
X52571Y-11286D01*
X52571Y-11286D02*
X52421Y-11108D01*
X52421Y-11108D02*
X52046Y-11108D01*
X52046Y-11108D02*
X52046Y-10841D01*
X52046Y-10841D02*
X52571Y-10841D01*
X52762Y-11641D02*
X53287Y-10841D01*
X52762Y-11553D02*
X52762Y-10930D01*
X52762Y-10930D02*
X52837Y-10841D01*
X52837Y-10841D02*
X53212Y-10841D01*
X53212Y-10841D02*
X53287Y-10930D01*
X53287Y-10930D02*
X53287Y-11553D01*
X53287Y-11553D02*
X53212Y-11641D01*
X53212Y-11641D02*
X52837Y-11641D01*
X52837Y-11641D02*
X52762Y-11553D01*
X53478Y-11641D02*
X54003Y-10841D01*
X53478Y-11553D02*
X53478Y-10930D01*
X53478Y-10930D02*
X53553Y-10841D01*
X53553Y-10841D02*
X53928Y-10841D01*
X53928Y-10841D02*
X54003Y-10930D01*
X54003Y-10930D02*
X54003Y-11553D01*
X54003Y-11553D02*
X53928Y-11641D01*
X53928Y-11641D02*
X53553Y-11641D01*
X53553Y-11641D02*
X53478Y-11553D01*
X29500Y-11951D02*
X75000Y-11951D01*
X29500Y-13000D02*
X29500Y-10531D01*
X75000Y-13000D02*
X75000Y-10531D01*
X75000Y-11951D02*
X74557Y-12181D01*
X75000Y-11951D02*
X74557Y-11721D01*
X29500Y-11951D02*
X29943Y-12181D01*
X29500Y-11951D02*
X29943Y-11721D01*
G54D12*
X26400Y-56650D02*
X26304Y-57128D01*
X26304Y-57128D02*
X26033Y-57533D01*
X26033Y-57533D02*
X25628Y-57804D01*
X25628Y-57804D02*
X25150Y-57900D01*
X25150Y-57900D02*
X24672Y-57804D01*
X24672Y-57804D02*
X24267Y-57533D01*
X24267Y-57533D02*
X23996Y-57128D01*
X23996Y-57128D02*
X23900Y-56650D01*
X23900Y-56650D02*
X23996Y-56172D01*
X23996Y-56172D02*
X24267Y-55767D01*
X24267Y-55767D02*
X24672Y-55496D01*
X24672Y-55496D02*
X25150Y-55400D01*
X25150Y-55400D02*
X25628Y-55496D01*
X25628Y-55496D02*
X26033Y-55767D01*
X26033Y-55767D02*
X26304Y-56172D01*
X26304Y-56172D02*
X26400Y-56650D01*
X21650Y-53150D02*
X28650Y-60150D01*
X21650Y-60150D02*
X28650Y-53150D01*
X79400Y-17850D02*
X79304Y-18328D01*
X79304Y-18328D02*
X79033Y-18733D01*
X79033Y-18733D02*
X78628Y-19004D01*
X78628Y-19004D02*
X78150Y-19100D01*
X78150Y-19100D02*
X77672Y-19004D01*
X77672Y-19004D02*
X77267Y-18733D01*
X77267Y-18733D02*
X76996Y-18328D01*
X76996Y-18328D02*
X76900Y-17850D01*
X76900Y-17850D02*
X76996Y-17372D01*
X76996Y-17372D02*
X77267Y-16967D01*
X77267Y-16967D02*
X77672Y-16696D01*
X77672Y-16696D02*
X78150Y-16600D01*
X78150Y-16600D02*
X78628Y-16696D01*
X78628Y-16696D02*
X79033Y-16967D01*
X79033Y-16967D02*
X79304Y-17372D01*
X79304Y-17372D02*
X79400Y-17850D01*
X75650Y-17850D02*
X80650Y-17850D01*
X78150Y-15350D02*
X78150Y-20350D01*
G54D13*
X30794Y-15400D02*
X30269Y-15400D01*
X30269Y-15400D02*
X30269Y-15134D01*
X30269Y-15134D02*
X30344Y-15045D01*
X30344Y-15045D02*
X30719Y-15045D01*
X30719Y-15045D02*
X30794Y-14956D01*
X30794Y-14956D02*
X30794Y-14689D01*
X30794Y-14689D02*
X30719Y-14600D01*
X30719Y-14600D02*
X30344Y-14600D01*
X30344Y-14600D02*
X30269Y-14689D01*
X70900Y-17656D02*
X70900Y-17356D01*
X70900Y-17506D02*
X70100Y-17506D01*
X70100Y-17656D02*
X70100Y-17356D01*
G54D12*
X66441Y-14100D02*
X66741Y-14900D01*
X66741Y-14900D02*
X67041Y-14100D01*
X67257Y-14900D02*
X67782Y-14100D01*
X67257Y-14812D02*
X67257Y-14189D01*
X67257Y-14189D02*
X67332Y-14100D01*
X67332Y-14100D02*
X67707Y-14100D01*
X67707Y-14100D02*
X67782Y-14189D01*
X67782Y-14189D02*
X67782Y-14812D01*
X67782Y-14812D02*
X67707Y-14900D01*
X67707Y-14900D02*
X67332Y-14900D01*
X67332Y-14900D02*
X67257Y-14812D01*
X68598Y-14900D02*
X68073Y-14900D01*
X68073Y-14900D02*
X68073Y-14634D01*
X68073Y-14634D02*
X68148Y-14545D01*
X68148Y-14545D02*
X68523Y-14545D01*
X68523Y-14545D02*
X68598Y-14456D01*
X68598Y-14456D02*
X68598Y-14189D01*
X68598Y-14189D02*
X68523Y-14100D01*
X68523Y-14100D02*
X68148Y-14100D01*
X68148Y-14100D02*
X68073Y-14189D01*
G54D13*
X34000Y-52000D02*
X34000Y-55000D01*
X34000Y-55000D02*
X34000Y-55500D01*
X34000Y-55500D02*
X66000Y-55500D01*
X66000Y-55500D02*
X66000Y-52000D01*
X66000Y-52000D02*
X75000Y-52000D01*
X75000Y-52000D02*
X75000Y-13000D01*
X34000Y-52000D02*
X29500Y-52000D01*
X29500Y-52000D02*
X29500Y-13000D01*
X29500Y-13000D02*
X75000Y-13000D01*
X32500Y-13000D02*
X32500Y-16000D01*
X32500Y-16000D02*
X29500Y-16000D01*
X29500Y-13000D02*
X32500Y-16000D01*
G54D14*
X54500Y-38000D03*
X55500Y-38000D03*
X56500Y-38000D03*
X54500Y-37000D03*
X55500Y-37000D03*
X56500Y-37000D03*
X54500Y-36000D03*
X55500Y-36000D03*
X56500Y-36000D03*
X54500Y-35000D03*
X55500Y-35000D03*
X56500Y-35000D03*
X54500Y-34000D03*
X55500Y-34000D03*
X56500Y-34000D03*
X54500Y-33000D03*
X55500Y-33000D03*
X56500Y-33000D03*
X54500Y-32000D03*
X55500Y-32000D03*
X56500Y-32000D03*
X54500Y-31000D03*
X55500Y-31000D03*
X56500Y-31000D03*
X54500Y-30000D03*
X55500Y-30000D03*
X56500Y-30000D03*
X54500Y-29000D03*
X55500Y-29000D03*
X56500Y-29000D03*
X54500Y-28000D03*
X55500Y-28000D03*
X56500Y-28000D03*
X57500Y-28000D03*
X58500Y-28000D03*
X59500Y-28000D03*
X60500Y-28000D03*
X61500Y-28000D03*
X62500Y-28000D03*
X63500Y-28000D03*
X64500Y-28000D03*
X65500Y-28000D03*
X66500Y-28000D03*
X54500Y-27000D03*
X55500Y-27000D03*
X56500Y-27000D03*
X57500Y-27000D03*
X58500Y-27000D03*
X59500Y-27000D03*
X60500Y-27000D03*
X61500Y-27000D03*
X62500Y-27000D03*
X63500Y-27000D03*
X64500Y-27000D03*
X65500Y-27000D03*
X66500Y-27000D03*
G54D15*
X54500Y-26000D03*
G54D14*
X55500Y-26000D03*
X56500Y-26000D03*
X57500Y-26000D03*
X58500Y-26000D03*
X59500Y-26000D03*
X60500Y-26000D03*
X61500Y-26000D03*
X62500Y-26000D03*
X63500Y-26000D03*
X64500Y-26000D03*
X65500Y-26000D03*
X66500Y-26000D03*
X57500Y-38000D03*
X58500Y-38000D03*
X59500Y-38000D03*
X60500Y-38000D03*
X61500Y-38000D03*
X62500Y-38000D03*
X63500Y-38000D03*
X64500Y-38000D03*
X65500Y-38000D03*
X66500Y-38000D03*
X57500Y-37000D03*
X58500Y-37000D03*
X59500Y-37000D03*
X60500Y-37000D03*
X61500Y-37000D03*
X62500Y-37000D03*
X63500Y-37000D03*
X64500Y-37000D03*
X65500Y-37000D03*
X66500Y-37000D03*
X57500Y-36000D03*
X58500Y-36000D03*
X59500Y-36000D03*
X60500Y-36000D03*
X61500Y-36000D03*
X62500Y-36000D03*
X63500Y-36000D03*
X64500Y-36000D03*
X65500Y-36000D03*
X66500Y-36000D03*
X64500Y-35000D03*
X65500Y-35000D03*
X66500Y-35000D03*
X64500Y-34000D03*
X65500Y-34000D03*
X66500Y-34000D03*
X64500Y-33000D03*
X65500Y-33000D03*
X66500Y-33000D03*
X64500Y-32000D03*
X65500Y-32000D03*
X66500Y-32000D03*
X64500Y-31000D03*
X65500Y-31000D03*
X66500Y-31000D03*
X64500Y-30000D03*
X65500Y-30000D03*
X66500Y-30000D03*
X64500Y-29000D03*
X65500Y-29000D03*
X66500Y-29000D03*
G54D15*
X36000Y-44000D03*
G54D14*
X37000Y-44000D03*
X38000Y-44000D03*
X39000Y-44000D03*
X40000Y-44000D03*
X41000Y-44000D03*
X42000Y-44000D03*
X43000Y-44000D03*
X44000Y-44000D03*
X45000Y-44000D03*
G54D16*
X43000Y-36000D03*
X43000Y-38000D03*
G54D15*
X47000Y-44000D03*
G54D14*
X48000Y-44000D03*
X49000Y-44000D03*
X50000Y-44000D03*
X51000Y-44000D03*
X52000Y-44000D03*
X53000Y-44000D03*
X54000Y-44000D03*
X55000Y-44000D03*
X56000Y-44000D03*
X57000Y-44000D03*
X58000Y-44000D03*
X58000Y-41000D03*
X57000Y-41000D03*
X56000Y-41000D03*
X55000Y-41000D03*
X54000Y-41000D03*
X53000Y-41000D03*
X52000Y-41000D03*
X51000Y-41000D03*
X50000Y-41000D03*
X49000Y-41000D03*
X48000Y-41000D03*
X47000Y-41000D03*
G54D15*
X32500Y-29500D03*
G54D14*
X33500Y-29500D03*
X34500Y-29500D03*
X35500Y-29500D03*
X36500Y-29500D03*
X37500Y-29500D03*
X38500Y-29500D03*
X39500Y-29500D03*
X40500Y-29500D03*
X41500Y-29500D03*
X42500Y-29500D03*
X43500Y-29500D03*
X44500Y-29500D03*
X45500Y-29500D03*
X46500Y-29500D03*
X47500Y-29500D03*
X47500Y-23500D03*
X46500Y-23500D03*
X45500Y-23500D03*
X44500Y-23500D03*
X43500Y-23500D03*
X42500Y-23500D03*
X41500Y-23500D03*
X40500Y-23500D03*
X39500Y-23500D03*
X38500Y-23500D03*
X37500Y-23500D03*
X36500Y-23500D03*
X35500Y-23500D03*
X34500Y-23500D03*
X33500Y-23500D03*
X32500Y-23500D03*
X46000Y-35500D03*
X47000Y-35500D03*
X46000Y-38500D03*
X47000Y-38500D03*
G54D15*
X58000Y-48500D03*
G54D14*
X59000Y-48500D03*
X60000Y-48500D03*
X61000Y-48500D03*
X62000Y-48500D03*
X63000Y-48500D03*
X64000Y-48500D03*
X65000Y-48500D03*
X66000Y-48500D03*
X67000Y-48500D03*
X67000Y-45500D03*
X66000Y-45500D03*
X65000Y-45500D03*
X64000Y-45500D03*
X63000Y-45500D03*
X62000Y-45500D03*
X61000Y-45500D03*
X60000Y-45500D03*
X59000Y-45500D03*
X58000Y-45500D03*
G54D15*
X47000Y-48500D03*
G54D14*
X48000Y-48500D03*
X49000Y-48500D03*
X50000Y-48500D03*
X51000Y-48500D03*
X52000Y-48500D03*
X53000Y-48500D03*
X54000Y-48500D03*
X55000Y-48500D03*
X56000Y-48500D03*
X56000Y-45500D03*
X55000Y-45500D03*
X54000Y-45500D03*
X53000Y-45500D03*
X52000Y-45500D03*
X51000Y-45500D03*
X50000Y-45500D03*
X49000Y-45500D03*
X48000Y-45500D03*
X47000Y-45500D03*
G54D15*
X36000Y-48500D03*
G54D14*
X37000Y-48500D03*
X38000Y-48500D03*
X39000Y-48500D03*
X40000Y-48500D03*
X41000Y-48500D03*
X42000Y-48500D03*
X43000Y-48500D03*
X44000Y-48500D03*
X45000Y-48500D03*
X45000Y-45500D03*
X44000Y-45500D03*
X43000Y-45500D03*
X42000Y-45500D03*
X41000Y-45500D03*
X40000Y-45500D03*
X39000Y-45500D03*
X38000Y-45500D03*
X37000Y-45500D03*
X36000Y-45500D03*
G54D15*
X31000Y-32500D03*
G54D14*
X37000Y-32500D03*
G54D15*
X65500Y-20000D03*
G54D14*
X59500Y-20000D03*
G54D15*
X32500Y-44000D03*
G54D14*
X32500Y-50000D03*
G54D15*
X61000Y-43500D03*
G54D14*
X67000Y-43500D03*
X44500Y-38500D03*
X44500Y-35500D03*
X48500Y-35500D03*
X48500Y-38500D03*
X34500Y-22000D03*
X31500Y-22000D03*
X59500Y-16000D03*
X56500Y-16000D03*
X64500Y-16000D03*
X67500Y-16000D03*
G54D15*
X64500Y-14500D03*
G54D14*
X63500Y-14500D03*
G54D15*
X60500Y-14500D03*
G54D14*
X59500Y-14500D03*
G54D17*
X65000Y-54000D03*
X64000Y-54000D03*
X63000Y-54000D03*
X62000Y-54000D03*
X61000Y-54000D03*
X60000Y-54000D03*
X59000Y-54000D03*
X58000Y-54000D03*
X57000Y-54000D03*
X56000Y-54000D03*
X55000Y-54000D03*
X54000Y-54000D03*
X53000Y-54000D03*
X52000Y-54000D03*
X51000Y-54000D03*
X50000Y-54000D03*
X49000Y-54000D03*
X48000Y-54000D03*
X47000Y-54000D03*
X46000Y-54000D03*
X45000Y-54000D03*
X44000Y-54000D03*
X43000Y-54000D03*
X42000Y-54000D03*
X41000Y-54000D03*
X40000Y-54000D03*
X39000Y-54000D03*
X38000Y-54000D03*
X37000Y-54000D03*
X36000Y-54000D03*
X35000Y-54000D03*
G54D18*
X44000Y-41000D03*
G54D19*
X44000Y-42000D03*
X43000Y-41000D03*
X43000Y-42000D03*
X42000Y-41000D03*
X42000Y-42000D03*
X41000Y-41000D03*
X41000Y-42000D03*
X40000Y-41000D03*
X40000Y-42000D03*
X39000Y-41000D03*
X39000Y-42000D03*
X38000Y-41000D03*
X38000Y-42000D03*
X37000Y-41000D03*
X37000Y-42000D03*
G54D20*
X71000Y-43750D03*
X71000Y-25250D03*
G54D18*
X70000Y-28000D03*
G54D19*
X70000Y-29100D03*
X70000Y-30150D03*
X70000Y-31250D03*
X70000Y-32350D03*
X70000Y-33450D03*
X70000Y-34500D03*
X70000Y-35600D03*
X70000Y-36700D03*
X70000Y-37800D03*
X70000Y-38850D03*
X70000Y-39950D03*
X70000Y-41050D03*
X71000Y-28620D03*
X71000Y-29620D03*
X71000Y-30720D03*
X71000Y-31800D03*
X71000Y-32880D03*
X71000Y-33980D03*
X71000Y-35060D03*
X71000Y-36140D03*
X71000Y-37260D03*
X71000Y-38320D03*
X71000Y-39400D03*
X71000Y-40500D03*
G54D21*
X55500Y-39250D03*
X60000Y-39250D03*
X63500Y-29000D03*
X65500Y-46500D03*
X37000Y-51500D03*
X63500Y-52000D03*
X38000Y-51500D03*
X50500Y-52000D03*
X51500Y-35500D03*
X47000Y-20000D03*
X37000Y-34500D03*
X60500Y-35000D03*
X46000Y-41000D03*
X40500Y-34000D03*
X40000Y-49250D03*
X36500Y-33500D03*
X43000Y-51000D03*
X38500Y-33000D03*
X39000Y-51000D03*
X42500Y-32500D03*
X58000Y-46500D03*
X39000Y-46500D03*
X38000Y-32000D03*
G54D19*
X52500Y-25500D03*
G54D21*
X39500Y-26500D03*
G54D19*
X53000Y-27000D03*
G54D21*
X36500Y-26500D03*
X40000Y-28500D03*
X44000Y-27500D03*
X33000Y-18500D03*
X62000Y-18500D03*
X41500Y-25000D03*
X64000Y-25000D03*
X67000Y-24500D03*
X38000Y-24500D03*
X42000Y-26500D03*
X36000Y-20500D03*
X56000Y-20500D03*
X46000Y-21000D03*
X58000Y-21000D03*
X61000Y-23000D03*
X40500Y-18000D03*
X63000Y-18000D03*
X57500Y-24000D03*
X45000Y-26000D03*
X59500Y-23500D03*
X60500Y-17500D03*
X46500Y-17500D03*
X45500Y-19000D03*
X61500Y-19000D03*
X44500Y-21500D03*
X62500Y-21500D03*
X63500Y-22500D03*
X43000Y-22000D03*
X64500Y-22000D03*
X66500Y-17500D03*
X35500Y-17000D03*
X50500Y-38500D03*
X36000Y-50500D03*
X48000Y-50500D03*
X59500Y-44500D03*
X44000Y-51500D03*
X59000Y-51500D03*
X41000Y-51500D03*
X62500Y-50000D03*
X55000Y-50000D03*
X37500Y-47500D03*
X49500Y-37500D03*
X35000Y-47000D03*
X49000Y-47000D03*
X57000Y-49000D03*
X62000Y-41000D03*
X54500Y-43000D03*
X57000Y-43000D03*
X45000Y-37000D03*
X68500Y-32500D03*
X68500Y-29500D03*
X57000Y-47000D03*
X53500Y-47000D03*
X49000Y-42000D03*
X59000Y-42000D03*
X53000Y-52000D03*
X52000Y-52000D03*
X46000Y-49000D03*
G54D22*
X60000Y-39250D02*
X60000Y-45500D01*
X55500Y-39250D02*
X55500Y-38000D01*
X55000Y-35500D02*
X55000Y-31500D01*
X57000Y-25500D02*
X56500Y-25000D01*
X56500Y-37000D02*
X56000Y-36500D01*
X56000Y-35500D02*
X55000Y-35500D01*
X56500Y-25000D02*
X56500Y-16000D01*
X56000Y-36500D02*
X56000Y-35500D01*
X57000Y-31500D02*
X57000Y-25500D01*
X55000Y-31500D02*
X57000Y-31500D01*
X53000Y-41000D02*
X53000Y-36625D01*
X55500Y-36375D02*
X55500Y-36000D01*
X55375Y-36500D02*
X55500Y-36375D01*
X53125Y-36500D02*
X55375Y-36500D01*
X53000Y-36625D02*
X53125Y-36500D01*
G54D23*
X64500Y-29000D02*
X65000Y-29500D01*
X31000Y-32500D02*
X31000Y-34000D01*
G54D12*
X63500Y-36000D02*
X63500Y-29000D01*
G54D23*
X36000Y-45500D02*
X36000Y-44000D01*
X61000Y-37500D02*
X60500Y-37000D01*
X65500Y-27000D02*
X66000Y-26500D01*
X31000Y-34000D02*
X32500Y-35500D01*
X65000Y-31500D02*
X65500Y-32000D01*
G54D22*
X61000Y-43500D02*
X61000Y-37500D01*
G54D23*
X37000Y-49500D02*
X37000Y-51500D01*
X66000Y-20750D02*
X65500Y-20250D01*
G54D22*
X65000Y-29500D02*
X65000Y-31500D01*
G54D23*
X36000Y-46500D02*
X36500Y-47000D01*
X32500Y-44000D02*
X32500Y-35500D01*
G54D22*
X65500Y-46500D02*
X65500Y-50000D01*
G54D23*
X31500Y-22000D02*
X32500Y-23000D01*
G54D22*
X32500Y-23500D02*
X31000Y-25000D01*
G54D23*
X32500Y-23000D02*
X32500Y-23500D01*
G54D22*
X36500Y-47000D02*
X36500Y-49000D01*
G54D23*
X64500Y-29000D02*
X64500Y-28000D01*
G54D22*
X36500Y-49000D02*
X37000Y-49500D01*
G54D23*
X65500Y-50000D02*
X63500Y-52000D01*
G54D22*
X66000Y-26500D02*
X66000Y-20750D01*
G54D23*
X36000Y-45500D02*
X36000Y-46500D01*
X31000Y-25000D02*
X31000Y-32500D01*
X64500Y-28000D02*
X64500Y-27000D01*
X65500Y-20250D02*
X65500Y-20000D01*
G54D22*
X38000Y-51500D02*
X38000Y-54000D01*
X51000Y-48500D02*
X51000Y-49500D01*
X51000Y-47250D02*
X51500Y-46750D01*
X50500Y-50000D02*
X50500Y-52000D01*
X51000Y-49500D02*
X50500Y-50000D01*
X51500Y-46750D02*
X51500Y-35500D01*
X51000Y-48500D02*
X51000Y-47250D01*
G54D23*
X60500Y-35000D02*
X60500Y-36000D01*
G54D22*
X60000Y-14000D02*
X61000Y-14000D01*
X61000Y-14000D02*
X61500Y-14500D01*
X61500Y-14500D02*
X63500Y-14500D01*
X59500Y-14500D02*
X59000Y-15000D01*
X59000Y-15000D02*
X59000Y-16500D01*
X59000Y-16500D02*
X59500Y-17000D01*
X59500Y-14500D02*
X60000Y-14000D01*
G54D23*
X47000Y-40000D02*
X46000Y-41000D01*
X60500Y-27000D02*
X60000Y-26500D01*
X47000Y-44500D02*
X48000Y-45500D01*
X63500Y-28000D02*
X64000Y-28500D01*
X48000Y-47000D02*
X48000Y-45500D01*
X47000Y-48000D02*
X48000Y-47000D01*
X47500Y-29500D02*
X47500Y-29000D01*
X56000Y-34500D02*
X56500Y-35000D01*
X47000Y-48500D02*
X47000Y-48000D01*
G54D22*
X59500Y-17000D02*
X59500Y-20000D01*
G54D23*
X47000Y-31000D02*
X47000Y-35500D01*
X47000Y-38500D02*
X47000Y-40000D01*
X64000Y-32500D02*
X64500Y-32000D01*
G54D22*
X47000Y-28500D02*
X47000Y-20000D01*
G54D23*
X64500Y-35000D02*
X64000Y-34500D01*
G54D22*
X64000Y-34500D02*
X64000Y-32500D01*
G54D23*
X60000Y-20500D02*
X59500Y-20000D01*
X55500Y-32000D02*
X56000Y-32500D01*
G54D22*
X60000Y-26500D02*
X60000Y-20500D01*
X58000Y-27500D02*
X60000Y-27500D01*
X64000Y-28500D02*
X64000Y-31500D01*
X56000Y-32500D02*
X56000Y-34500D01*
G54D23*
X47500Y-30500D02*
X47000Y-31000D01*
X64000Y-31500D02*
X64500Y-32000D01*
G54D22*
X37000Y-32500D02*
X37000Y-34500D01*
G54D23*
X57500Y-28000D02*
X58000Y-27500D01*
X47500Y-29000D02*
X47000Y-28500D01*
X47000Y-38500D02*
X47000Y-35500D01*
X46000Y-41000D02*
X46000Y-43000D01*
X60000Y-27500D02*
X60500Y-27000D01*
X46000Y-43000D02*
X47000Y-44000D01*
X47500Y-29500D02*
X47500Y-30500D01*
X47000Y-44000D02*
X47000Y-44500D01*
G54D22*
X41000Y-45000D02*
X41000Y-45500D01*
X41000Y-54000D02*
X41000Y-52500D01*
X40500Y-34000D02*
X40500Y-44500D01*
X41000Y-47500D02*
X41000Y-45500D01*
X41000Y-52500D02*
X40500Y-52000D01*
X40500Y-44500D02*
X41000Y-45000D01*
X40500Y-52000D02*
X40500Y-48000D01*
X40500Y-48000D02*
X41000Y-47500D01*
X37000Y-46500D02*
X36500Y-46000D01*
X40000Y-54000D02*
X40000Y-49250D01*
X36500Y-46000D02*
X36500Y-33500D01*
X37000Y-48500D02*
X37000Y-46500D01*
X38500Y-48000D02*
X39000Y-48500D01*
X38500Y-33000D02*
X38500Y-48000D01*
X43000Y-54000D02*
X43000Y-51000D01*
X39000Y-51000D02*
X39000Y-48500D01*
X42000Y-52500D02*
X42500Y-52000D01*
X42000Y-54000D02*
X42000Y-52500D01*
X42500Y-32500D02*
X42000Y-33000D01*
X42500Y-52000D02*
X42500Y-48000D01*
X43000Y-47500D02*
X43000Y-45500D01*
X42000Y-39000D02*
X42500Y-39500D01*
X42500Y-39500D02*
X42500Y-45000D01*
X42000Y-33000D02*
X42000Y-39000D01*
X42500Y-45000D02*
X43000Y-45500D01*
X42500Y-48000D02*
X43000Y-47500D01*
X57500Y-46000D02*
X57500Y-40000D01*
X39000Y-46500D02*
X39000Y-45500D01*
X57500Y-40000D02*
X58000Y-39500D01*
X39000Y-47250D02*
X39000Y-46500D01*
X58000Y-46500D02*
X57500Y-46000D01*
X39000Y-52000D02*
X39500Y-51500D01*
X57875Y-33000D02*
X56500Y-33000D01*
X39000Y-54000D02*
X39000Y-52000D01*
X39500Y-47750D02*
X39000Y-47250D01*
X58000Y-33125D02*
X57875Y-33000D01*
X58000Y-39500D02*
X58000Y-33125D01*
X39500Y-51500D02*
X39500Y-47750D01*
X38000Y-32000D02*
X38000Y-29000D01*
X38000Y-29000D02*
X37500Y-28500D01*
X37500Y-28500D02*
X37500Y-23500D01*
X52500Y-30000D02*
X53500Y-31000D01*
X52500Y-25500D02*
X52500Y-30000D01*
X53500Y-31000D02*
X54500Y-31000D01*
X53000Y-27500D02*
X53000Y-27000D01*
X55000Y-28500D02*
X54000Y-28500D01*
X54000Y-28500D02*
X53000Y-27500D01*
X55500Y-29000D02*
X55000Y-28500D01*
X39500Y-26500D02*
X39500Y-23500D01*
X36500Y-26500D02*
X36500Y-23500D01*
X40500Y-29500D02*
X40500Y-29000D01*
X40500Y-29000D02*
X40000Y-28500D01*
X44000Y-28500D02*
X44000Y-27500D01*
X44500Y-29500D02*
X44500Y-29000D01*
X44500Y-29000D02*
X44000Y-28500D01*
X33500Y-29000D02*
X33500Y-29500D01*
X33000Y-18500D02*
X33000Y-28500D01*
X33000Y-28500D02*
X33500Y-29000D01*
X62000Y-27500D02*
X61500Y-28000D01*
X62000Y-18500D02*
X62000Y-27500D01*
X41500Y-25000D02*
X41500Y-23500D01*
X63000Y-27500D02*
X64000Y-27500D01*
X62500Y-28000D02*
X63000Y-27500D01*
X64000Y-27500D02*
X64000Y-25000D01*
X38500Y-29000D02*
X38000Y-28500D01*
X38500Y-29500D02*
X38500Y-29000D01*
X38000Y-28500D02*
X38000Y-24500D01*
X67000Y-24500D02*
X67000Y-27500D01*
X67000Y-27500D02*
X66500Y-28000D01*
X42500Y-29000D02*
X42000Y-28500D01*
X42500Y-29500D02*
X42500Y-29000D01*
X42000Y-28500D02*
X42000Y-26500D01*
X56500Y-27000D02*
X56000Y-26500D01*
X36500Y-29500D02*
X36500Y-29000D01*
X56000Y-26500D02*
X56000Y-20500D01*
X36000Y-20500D02*
X36000Y-28500D01*
X36500Y-29000D02*
X36000Y-28500D01*
X46000Y-28500D02*
X46000Y-21000D01*
X59000Y-22000D02*
X58000Y-21000D01*
X46500Y-29500D02*
X46500Y-29000D01*
X59500Y-27000D02*
X59000Y-26500D01*
X46500Y-29000D02*
X46000Y-28500D01*
X59000Y-26500D02*
X59000Y-22000D01*
X61500Y-27000D02*
X61000Y-26500D01*
X61000Y-26500D02*
X61000Y-23000D01*
X40500Y-18000D02*
X40500Y-23500D01*
X62500Y-27000D02*
X63000Y-26500D01*
X63000Y-26500D02*
X63000Y-18000D01*
X57500Y-26000D02*
X57500Y-24000D01*
X45000Y-26000D02*
X45000Y-28500D01*
X45500Y-29000D02*
X45000Y-28500D01*
X45500Y-29500D02*
X45500Y-29000D01*
X59500Y-26000D02*
X59500Y-23500D01*
X46500Y-23500D02*
X46500Y-17500D01*
X60500Y-26000D02*
X60500Y-17500D01*
X45500Y-23500D02*
X45500Y-19000D01*
X61500Y-26000D02*
X61500Y-19000D01*
X62500Y-26000D02*
X62500Y-21500D01*
X44500Y-23500D02*
X44500Y-21500D01*
X63500Y-26000D02*
X63500Y-22500D01*
X43500Y-29000D02*
X43000Y-28500D01*
X64500Y-26000D02*
X64500Y-22000D01*
X43500Y-29500D02*
X43500Y-29000D01*
X43000Y-22000D02*
X43000Y-28500D01*
X35500Y-23500D02*
X35500Y-17000D01*
X66500Y-26000D02*
X66500Y-17500D01*
X36000Y-50500D02*
X36000Y-54000D01*
X48000Y-48500D02*
X48000Y-50500D01*
X48500Y-49000D02*
X48000Y-48500D01*
X50500Y-38500D02*
X50500Y-49000D01*
X50500Y-49000D02*
X48500Y-49000D01*
X53000Y-45500D02*
X53000Y-44000D01*
X59500Y-44500D02*
X59500Y-38000D01*
X59000Y-51500D02*
X60500Y-50000D01*
X44000Y-54000D02*
X44000Y-51500D01*
X41000Y-51500D02*
X41000Y-48500D01*
X60500Y-50000D02*
X60500Y-38000D01*
X61000Y-45000D02*
X61750Y-44250D01*
X61750Y-44250D02*
X61750Y-41750D01*
X61000Y-45500D02*
X61000Y-45000D01*
X61500Y-41500D02*
X61500Y-38000D01*
X61750Y-41750D02*
X61500Y-41500D01*
X62000Y-45000D02*
X62000Y-45500D01*
X62500Y-44500D02*
X62000Y-45000D01*
X62500Y-38000D02*
X62500Y-44500D01*
X62500Y-50000D02*
X62500Y-47500D01*
X55000Y-50000D02*
X55000Y-54000D01*
X63500Y-46500D02*
X63500Y-38000D01*
X62500Y-47500D02*
X63500Y-46500D01*
X64500Y-38000D02*
X64500Y-43750D01*
X65000Y-44250D02*
X65000Y-45500D01*
X64500Y-43750D02*
X65000Y-44250D01*
X57500Y-37000D02*
X57000Y-37500D01*
X57000Y-40000D02*
X56500Y-40500D01*
X56500Y-40500D02*
X55125Y-40500D01*
X55125Y-40500D02*
X55000Y-40625D01*
X57000Y-37500D02*
X57000Y-40000D01*
X55000Y-40625D02*
X55000Y-41000D01*
X57500Y-36000D02*
X57500Y-37000D01*
X37500Y-52000D02*
X37000Y-52500D01*
X50000Y-47750D02*
X50000Y-48500D01*
X49500Y-47250D02*
X50000Y-47750D01*
X49500Y-37500D02*
X49500Y-47250D01*
X37500Y-47500D02*
X37500Y-52000D01*
X37000Y-52500D02*
X37000Y-54000D01*
X59500Y-37000D02*
X59000Y-37500D01*
X58500Y-49000D02*
X57000Y-49000D01*
X49000Y-48500D02*
X49000Y-47000D01*
X58500Y-41500D02*
X58500Y-49000D01*
X35000Y-47000D02*
X35000Y-54000D01*
X59000Y-37500D02*
X59000Y-41000D01*
X59000Y-41000D02*
X58500Y-41500D01*
X57000Y-41000D02*
X57000Y-43000D01*
X62000Y-37500D02*
X61500Y-37000D01*
X54500Y-45000D02*
X54000Y-45500D01*
X62000Y-41000D02*
X62000Y-37500D01*
X54500Y-43000D02*
X54500Y-45000D01*
X63000Y-37500D02*
X63000Y-45500D01*
X62500Y-37000D02*
X63000Y-37500D01*
X63500Y-37000D02*
X64000Y-37500D01*
X64000Y-37500D02*
X64000Y-45500D01*
X66000Y-44500D02*
X66000Y-45500D01*
X65000Y-43500D02*
X66000Y-44500D01*
X64500Y-37000D02*
X65000Y-37500D01*
X65000Y-37500D02*
X65000Y-43500D01*
X44500Y-43000D02*
X44500Y-45000D01*
X44500Y-45000D02*
X45000Y-45500D01*
X45000Y-54000D02*
X45000Y-52500D01*
X44500Y-48000D02*
X45000Y-47500D01*
X45000Y-42500D02*
X44500Y-43000D01*
X45000Y-37000D02*
X45000Y-42500D01*
X44500Y-52000D02*
X44500Y-48000D01*
X45000Y-52500D02*
X44500Y-52000D01*
X45000Y-47500D02*
X45000Y-45500D01*
X66000Y-36500D02*
X66000Y-43750D01*
X66000Y-43750D02*
X67000Y-44750D01*
X67000Y-44750D02*
X67000Y-45500D01*
X65500Y-36000D02*
X66000Y-36500D01*
X69500Y-36000D02*
X70000Y-36500D01*
X69000Y-32500D02*
X69500Y-33000D01*
X70000Y-36500D02*
X70000Y-36700D01*
X69500Y-33000D02*
X69500Y-36000D01*
X68500Y-32500D02*
X69000Y-32500D01*
X71000Y-31750D02*
X71000Y-31800D01*
X68750Y-31750D02*
X71000Y-31750D01*
X68500Y-29500D02*
X68500Y-31500D01*
X68500Y-31500D02*
X68750Y-31750D01*
X67500Y-30000D02*
X67500Y-16000D01*
X66500Y-31000D02*
X67500Y-30000D01*
X37000Y-44000D02*
X37000Y-42000D01*
X37000Y-44000D02*
X37500Y-44500D01*
X38000Y-47000D02*
X38000Y-48500D01*
X37500Y-44500D02*
X37500Y-46500D01*
X37500Y-46500D02*
X38000Y-47000D01*
X38000Y-44000D02*
X38000Y-45500D01*
X38000Y-42000D02*
X38000Y-44000D01*
X39000Y-44000D02*
X39000Y-42000D01*
X39000Y-44000D02*
X39500Y-44500D01*
X39500Y-44500D02*
X39500Y-46500D01*
X40000Y-47000D02*
X40000Y-48500D01*
X39500Y-46500D02*
X40000Y-47000D01*
X40000Y-44000D02*
X40000Y-42000D01*
X40000Y-45500D02*
X40000Y-44000D01*
X41000Y-44000D02*
X41000Y-42000D01*
X41500Y-46500D02*
X42000Y-47000D01*
X41000Y-44000D02*
X41500Y-44500D01*
X41500Y-44500D02*
X41500Y-46500D01*
X42000Y-47000D02*
X42000Y-48500D01*
X42000Y-45500D02*
X42000Y-44000D01*
X42000Y-44000D02*
X42000Y-42000D01*
X44000Y-47000D02*
X44000Y-48500D01*
X43000Y-44000D02*
X43500Y-44500D01*
X43000Y-44000D02*
X43000Y-42000D01*
X43500Y-44500D02*
X43500Y-46500D01*
X43500Y-46500D02*
X44000Y-47000D01*
X44000Y-45500D02*
X44000Y-44000D01*
X44000Y-44000D02*
X44000Y-42000D01*
X49000Y-45500D02*
X49000Y-44000D01*
X50000Y-45500D02*
X50000Y-44000D01*
X51000Y-45500D02*
X51000Y-44000D01*
X52000Y-45500D02*
X52000Y-44000D01*
X56500Y-45000D02*
X55500Y-45000D01*
X55500Y-45000D02*
X55000Y-45500D01*
X57000Y-44000D02*
X57000Y-44500D01*
X57000Y-44500D02*
X56500Y-45000D01*
X57000Y-47000D02*
X57500Y-47500D01*
X53500Y-43000D02*
X53500Y-47000D01*
X57500Y-47500D02*
X57500Y-48000D01*
X57500Y-48000D02*
X58000Y-48500D01*
X54000Y-41000D02*
X54000Y-42500D01*
X54000Y-42500D02*
X53500Y-43000D01*
X59000Y-42000D02*
X59000Y-45500D01*
X49000Y-41000D02*
X49000Y-42000D01*
X57000Y-54000D02*
X57000Y-51500D01*
X59000Y-49500D02*
X59000Y-48500D01*
X57000Y-51500D02*
X59000Y-49500D01*
X60000Y-49500D02*
X60000Y-48500D01*
X58000Y-51500D02*
X60000Y-49500D01*
X58000Y-54000D02*
X58000Y-51500D01*
X59000Y-52500D02*
X61000Y-50500D01*
X61000Y-50500D02*
X61000Y-48500D01*
X59000Y-54000D02*
X59000Y-52500D01*
X60000Y-52500D02*
X62000Y-50500D01*
X62000Y-50500D02*
X62000Y-48500D01*
X60000Y-54000D02*
X60000Y-52500D01*
X61000Y-52250D02*
X63000Y-50250D01*
X61000Y-54000D02*
X61000Y-52250D01*
X63000Y-50250D02*
X63000Y-48500D01*
X64000Y-50000D02*
X64000Y-48500D01*
X62000Y-54000D02*
X62000Y-52000D01*
X62000Y-52000D02*
X64000Y-50000D01*
X63000Y-51500D02*
X63000Y-54000D01*
X65000Y-48500D02*
X65000Y-49500D01*
X65000Y-49500D02*
X63000Y-51500D01*
X64000Y-54000D02*
X64000Y-52500D01*
X65500Y-52000D02*
X66000Y-51500D01*
X64500Y-52000D02*
X65500Y-52000D01*
X66000Y-51500D02*
X66000Y-48500D01*
X64000Y-52500D02*
X64500Y-52000D01*
X52500Y-48000D02*
X52000Y-48500D01*
X53000Y-52000D02*
X53500Y-51500D01*
X53500Y-51500D02*
X53500Y-48000D01*
X53500Y-48000D02*
X52500Y-48000D01*
X53000Y-51000D02*
X53000Y-48500D01*
X52000Y-52000D02*
X53000Y-51000D01*
X46000Y-54000D02*
X46000Y-49000D01*
X60500Y-15000D02*
X60500Y-14500D01*
X59500Y-16000D02*
X60500Y-15000D01*
X64500Y-16000D02*
X64500Y-14500D01*
M02*
