M48
;DRILL file {PCBNEW (2007-02-25)} date 11/3/2007-15:44:38
;FORMAT={2:4 / absolute / Pouces / Format décimal}
R,T
VER,1
FMAT,2
INCH,TZ
TCST,OFF
ICI,OFF
ATC,ON
T1C0.025
T2C0.030
T3C0.031
T4C0.032
T5C0.033
T6C0.034
T7C0.035
T8C0.036
T9C0.037
T10C0.038
T11C0.039
T12C0.040
T13C0.041
T14C0.042
T15C0.043
T16C0.120
%
M47
G05
M72
T1
X2.600Y1.625
X3.050Y1.625
X3.400Y2.650
X3.600Y0.900
X0.750Y0.400
X3.400Y0.350
X0.850Y0.400
X2.100Y0.350
X2.200Y2.000
X1.750Y3.550
X0.750Y2.100
X3.100Y2.050
X1.650Y1.450
X1.100Y2.150
X1.050Y0.625
X0.700Y2.200
X1.350Y0.450
X0.900Y2.250
X0.950Y0.450
X1.300Y2.300
X2.850Y0.900
X0.950Y0.900
X0.850Y2.350
X1.000Y2.900
X2.350Y2.850
X0.700Y2.900
X1.050Y2.700
X1.450Y2.800
X0.350Y3.700
X3.250Y3.700
X1.200Y3.050
X3.450Y3.050
X3.750Y3.100
X0.850Y3.100
X1.250Y2.900
X0.650Y3.500
X2.650Y3.500
X1.650Y3.450
X2.850Y3.450
X3.150Y3.250
X1.100Y3.750
X3.350Y3.750
X2.800Y3.150
X1.550Y2.950
X3.000Y3.200
X3.100Y3.800
X1.700Y3.800
X1.600Y3.650
X3.200Y3.650
X1.500Y3.400
X3.300Y3.400
X3.400Y3.300
X1.350Y3.350
X3.500Y3.350
X3.700Y3.800
X0.600Y3.850
X2.100Y1.700
X0.650Y0.500
X1.850Y0.500
X3.000Y1.100
X1.450Y0.400
X2.950Y0.400
X1.150Y0.400
X3.300Y0.550
X2.550Y0.550
X0.800Y0.800
X2.000Y1.800
X0.550Y0.850
X1.950Y0.850
X2.750Y0.650
X3.250Y1.450
X2.500Y1.250
X2.750Y1.250
X1.550Y1.850
X3.900Y2.300
X3.900Y2.600
X2.750Y0.850
X2.400Y0.850
X1.950Y1.350
X2.950Y1.350
X2.350Y0.350
X2.250Y0.350
X1.650Y0.650
T2
X2.300Y3.000
T3
X2.500Y1.750
X2.600Y1.750
X2.700Y1.750
X2.500Y1.850
X2.600Y1.850
X2.700Y1.850
X2.500Y1.950
X2.600Y1.950
X2.700Y1.950
X2.500Y2.050
X2.600Y2.050
X2.700Y2.050
X2.500Y2.150
X2.600Y2.150
X2.700Y2.150
X2.500Y2.250
X2.600Y2.250
X2.700Y2.250
X2.500Y2.350
X2.600Y2.350
X2.700Y2.350
X2.500Y2.450
X2.600Y2.450
X2.700Y2.450
X2.500Y2.550
X2.600Y2.550
X2.700Y2.550
X2.500Y2.650
X2.600Y2.650
X2.700Y2.650
X2.500Y2.750
X2.600Y2.750
X2.700Y2.750
X2.800Y2.750
X2.900Y2.750
X3.000Y2.750
X3.100Y2.750
X3.200Y2.750
X3.300Y2.750
X3.400Y2.750
X3.500Y2.750
X3.600Y2.750
X3.700Y2.750
X2.500Y2.850
X2.600Y2.850
X2.700Y2.850
X2.800Y2.850
X2.900Y2.850
X3.000Y2.850
X3.100Y2.850
X3.200Y2.850
X3.300Y2.850
X3.400Y2.850
X3.500Y2.850
X3.600Y2.850
X3.700Y2.850
X2.500Y2.950
X2.600Y2.950
X2.700Y2.950
X2.800Y2.950
X2.900Y2.950
X3.000Y2.950
X3.100Y2.950
X3.200Y2.950
X3.300Y2.950
X3.400Y2.950
X3.500Y2.950
X3.600Y2.950
X3.700Y2.950
X2.800Y1.750
X2.900Y1.750
X3.000Y1.750
X3.100Y1.750
X3.200Y1.750
X3.300Y1.750
X3.400Y1.750
X3.500Y1.750
X3.600Y1.750
X3.700Y1.750
X2.800Y1.850
X2.900Y1.850
X3.000Y1.850
X3.100Y1.850
X3.200Y1.850
X3.300Y1.850
X3.400Y1.850
X3.500Y1.850
X3.600Y1.850
X3.700Y1.850
X2.800Y1.950
X2.900Y1.950
X3.000Y1.950
X3.100Y1.950
X3.200Y1.950
X3.300Y1.950
X3.400Y1.950
X3.500Y1.950
X3.600Y1.950
X3.700Y1.950
X3.500Y2.050
X3.600Y2.050
X3.700Y2.050
X3.500Y2.150
X3.600Y2.150
X3.700Y2.150
X3.500Y2.250
X3.600Y2.250
X3.700Y2.250
X3.500Y2.350
X3.600Y2.350
X3.700Y2.350
X3.500Y2.450
X3.600Y2.450
X3.700Y2.450
X3.500Y2.550
X3.600Y2.550
X3.700Y2.550
X3.500Y2.650
X3.600Y2.650
X3.700Y2.650
T4
X0.650Y1.150
X0.750Y1.150
X0.850Y1.150
X0.950Y1.150
X1.050Y1.150
X1.150Y1.150
X1.250Y1.150
X1.350Y1.150
X1.450Y1.150
X1.550Y1.150
X1.350Y1.950
X1.350Y1.750
X1.750Y1.150
X1.850Y1.150
X1.950Y1.150
X2.050Y1.150
X2.150Y1.150
X2.250Y1.150
X2.350Y1.150
X2.450Y1.150
X2.550Y1.150
X2.650Y1.150
X2.750Y1.150
X2.850Y1.150
X2.850Y1.450
X2.750Y1.450
X2.650Y1.450
X2.550Y1.450
X2.450Y1.450
X2.350Y1.450
X2.250Y1.450
X2.150Y1.450
X2.050Y1.450
X1.950Y1.450
X1.850Y1.450
X1.750Y1.450
X0.300Y2.600
X0.400Y2.600
X0.500Y2.600
X0.600Y2.600
X0.700Y2.600
X0.800Y2.600
X0.900Y2.600
X1.000Y2.600
X1.100Y2.600
X1.200Y2.600
X1.300Y2.600
X1.400Y2.600
X1.500Y2.600
X1.600Y2.600
X1.700Y2.600
X1.800Y2.600
X1.800Y3.200
X1.700Y3.200
X1.600Y3.200
X1.500Y3.200
X1.400Y3.200
X1.650Y2.000
X1.750Y2.000
X1.650Y1.700
X1.750Y1.700
X2.850Y0.700
X2.950Y0.700
X3.050Y0.700
X3.150Y0.700
X3.250Y0.700
X3.350Y0.700
X3.450Y0.700
X3.550Y0.700
X3.650Y0.700
X3.750Y0.700
X3.750Y1.000
X3.650Y1.000
X3.550Y1.000
X3.450Y1.000
X3.350Y1.000
X3.250Y1.000
X3.150Y1.000
X3.050Y1.000
X2.950Y1.000
X2.850Y1.000
X1.750Y0.700
X1.850Y0.700
X1.950Y0.700
X2.050Y0.700
X2.150Y0.700
X2.250Y0.700
X2.350Y0.700
X2.450Y0.700
X2.550Y0.700
X2.650Y0.700
X2.650Y1.000
X2.550Y1.000
X2.450Y1.000
X2.350Y1.000
X2.250Y1.000
X2.150Y1.000
X2.050Y1.000
X1.950Y1.000
X1.850Y1.000
X1.750Y1.000
X0.650Y0.700
X0.750Y0.700
X0.850Y0.700
X0.950Y0.700
X1.050Y0.700
X1.150Y0.700
X1.250Y0.700
X1.350Y0.700
X1.450Y0.700
X1.550Y0.700
X1.550Y1.000
X1.450Y1.000
X1.350Y1.000
X1.250Y1.000
X1.150Y1.000
X1.050Y1.000
X0.950Y1.000
X0.850Y1.000
X0.750Y1.000
X0.650Y1.000
X0.150Y2.300
X0.750Y2.300
X3.600Y3.550
X3.000Y3.550
X0.300Y1.150
X0.300Y0.550
X3.150Y1.200
X3.750Y1.200
X1.500Y1.700
X1.500Y2.000
X1.900Y2.000
X1.900Y1.700
X0.500Y3.350
X0.200Y3.350
X3.000Y3.950
X2.700Y3.950
X3.500Y3.950
X3.800Y3.950
X3.500Y4.100
X3.400Y4.100
X3.100Y4.100
X3.000Y4.100
T5
X0.300Y3.200
T6
X0.400Y3.200
T7
X0.500Y3.200
T8
X0.600Y3.200
T9
X0.700Y3.200
T10
X0.800Y3.200
T11
X0.900Y3.200
T12
X1.000Y3.200
X1.450Y1.450
X1.450Y1.350
X1.350Y1.450
X1.350Y1.350
X1.250Y1.450
X1.250Y1.350
X1.150Y1.450
X1.150Y1.350
X1.050Y1.450
X1.050Y1.350
X0.950Y1.450
X0.950Y1.350
X0.850Y1.450
X0.850Y1.350
X0.750Y1.450
X0.750Y1.350
X4.050Y2.750
X4.050Y2.640
X4.050Y2.535
X4.050Y2.425
X4.050Y2.315
X4.050Y2.205
X4.050Y2.100
X4.050Y1.990
X4.050Y1.880
X4.050Y1.770
X4.050Y1.665
X4.050Y1.555
X4.050Y1.445
X4.150Y2.688
X4.150Y2.588
X4.150Y2.478
X4.150Y2.370
X4.150Y2.262
X4.150Y2.152
X4.150Y2.044
X4.150Y1.936
X4.150Y1.824
X4.150Y1.718
X4.150Y1.610
X4.150Y1.500
T13
X1.100Y3.200
T14
X1.200Y3.200
T15
X1.300Y3.200
T16
X4.200Y1.175G85X4.100Y1.175
G05
X4.200Y3.025G85X4.100Y3.025
G05
T0
M30
