M48
;DRILL file {PCBNEW (2007-04-24)} date 2/5/2007-08:54:51
;FORMAT={2:4 / absolute / Pouces / Format décimal}
R,T
VER,1
FMAT,2
INCH,TZ
TCST,OFF
ICI,OFF
ATC,ON
T1C0.002
T2C0.025
T3C0.032
T4C0.060
%
M47
G05
M72
T1
X4.050Y2.650
X4.050Y4.350
X7.250Y4.350
X7.250Y2.650
T2
X7.000Y3.200
X4.900Y3.450
X5.475Y3.950
T3
X5.400Y2.850
X5.800Y2.850
X4.800Y3.000
X4.400Y3.000
X6.400Y3.500
X6.000Y3.500
X5.950Y2.900
X6.350Y2.900
X4.800Y3.300
X4.400Y3.300
X4.800Y3.650
X4.400Y3.650
X4.800Y3.400
X4.400Y3.400
X4.800Y3.200
X4.400Y3.200
X4.800Y3.100
X4.400Y3.100
X6.400Y3.700
X6.000Y3.700
X6.400Y3.900
X6.000Y3.900
X6.400Y4.150
X6.000Y4.150
X4.800Y4.100
X4.400Y4.100
X5.300Y3.000
X5.800Y3.000
X6.000Y3.100
X6.300Y3.100
X5.000Y2.850
X5.300Y2.850
X5.550Y3.250
X5.550Y3.350
X5.550Y3.450
X5.550Y3.550
X5.550Y3.650
X5.550Y3.750
X5.550Y3.850
X5.850Y3.850
X5.850Y3.750
X5.850Y3.650
X5.850Y3.550
X5.850Y3.450
X5.850Y3.350
X5.850Y3.250
X5.000Y3.250
X5.000Y3.350
X5.000Y3.450
X5.000Y3.550
X5.000Y3.650
X5.000Y3.750
X5.000Y3.850
X5.300Y3.850
X5.300Y3.750
X5.300Y3.650
X5.300Y3.550
X5.300Y3.450
X5.300Y3.350
X5.300Y3.250
X5.550Y4.050
X5.550Y4.250
X5.950Y2.750
X6.150Y2.750
X5.700Y4.050
X5.700Y4.250
X5.850Y4.050
X5.850Y4.250
T4
X6.700Y3.200
X6.700Y3.400
X6.700Y3.000
X6.700Y3.600
X6.700Y3.800
X6.700Y4.000
T0
M30
