<?xml version="1.0" encoding="UTF-8" standalone="no"?>
<svg
   id="Слой_1"
   data-name="Слой 1"
   viewBox="0 0 48 48"
   version="1.1"
   sodipodi:docname="bitmap2component_new.svg"
   inkscape:version="1.2.2 (b0a8486541, 2022-12-01)"
   width="48"
   height="48"
   inkscape:export-filename="/Users/jeff/kicad_dev/kicad/bitmaps_png/png_48/icon_bitmap2component.png"
   inkscape:export-xdpi="96"
   inkscape:export-ydpi="96"
   xmlns:inkscape="http://www.inkscape.org/namespaces/inkscape"
   xmlns:sodipodi="http://sodipodi.sourceforge.net/DTD/sodipodi-0.dtd"
   xmlns="http://www.w3.org/2000/svg"
   xmlns:svg="http://www.w3.org/2000/svg"
   xmlns:rdf="http://www.w3.org/1999/02/22-rdf-syntax-ns#"
   xmlns:cc="http://creativecommons.org/ns#"
   xmlns:dc="http://purl.org/dc/elements/1.1/">
  <path
     class="cls-1"
     d="m 8,-0.0013 h 32 a 8,8.026722 0 0 1 8,8.026722 v 32.111704 a 8,8.026722 0 0 1 -8,8.026722 H 8 A 8,8.026722 0 0 1 1.125e-8,40.137126 V 8.026024 A 8,8.026722 0 0 1 8,-0.0013 Z"
     id="path157661"
     style="display:inline;stroke-width:1" />
  <sodipodi:namedview
     pagecolor="#ffffff"
     bordercolor="#666666"
     borderopacity="1"
     objecttolerance="10"
     gridtolerance="10"
     guidetolerance="10"
     inkscape:pageopacity="0"
     inkscape:pageshadow="2"
     inkscape:window-width="1920"
     inkscape:window-height="1011"
     id="namedview30"
     showgrid="true"
     inkscape:zoom="11.313709"
     inkscape:cx="24.792931"
     inkscape:cy="29.742679"
     inkscape:window-x="0"
     inkscape:window-y="0"
     inkscape:window-maximized="1"
     inkscape:document-rotation="0"
     inkscape:current-layer="Слой_1"
     inkscape:showpageshadow="2"
     inkscape:pagecheckerboard="0"
     inkscape:deskcolor="#d1d1d1">
    <inkscape:grid
       type="xygrid"
       id="grid_kicad"
       spacingx="0.5"
       spacingy="0.5"
       color="#9999ff"
       opacity="0.13"
       empspacing="2" />
  </sodipodi:namedview>
  <metadata
     id="metadata43">
    <rdf:RDF>
      <cc:Work
         rdf:about="">
        <cc:license
           rdf:resource="http://creativecommons.org/licenses/by-sa/4.0/" />
        <dc:format>image/svg+xml</dc:format>
        <dc:type
           rdf:resource="http://purl.org/dc/dcmitype/StillImage" />
        <dc:title>icon_bitmap2component</dc:title>
      </cc:Work>
      <cc:License
         rdf:about="http://creativecommons.org/licenses/by-sa/4.0/">
        <cc:permits
           rdf:resource="http://creativecommons.org/ns#Reproduction" />
        <cc:permits
           rdf:resource="http://creativecommons.org/ns#Distribution" />
        <cc:requires
           rdf:resource="http://creativecommons.org/ns#Notice" />
        <cc:requires
           rdf:resource="http://creativecommons.org/ns#Attribution" />
        <cc:permits
           rdf:resource="http://creativecommons.org/ns#DerivativeWorks" />
        <cc:requires
           rdf:resource="http://creativecommons.org/ns#ShareAlike" />
      </cc:License>
    </rdf:RDF>
  </metadata>
  <defs
     id="defs157657">
    <style
       id="style157655">.cls-1{fill:#b9b9b9;}.cls-2{fill:#545454;}</style>
    <clipPath
       clipPathUnits="userSpaceOnUse"
       id="clipPath991">
      <path
         style="fill:none;stroke:#000000;stroke-width:0.999999px;stroke-linecap:butt;stroke-linejoin:miter;stroke-opacity:1"
         d="M 1,22.500371 24.964897,-1.2376972 1,-1.2724678 Z"
         id="path993"
         sodipodi:nodetypes="cccc" />
    </clipPath>
    <clipPath
       clipPathUnits="userSpaceOnUse"
       id="clipPath1015">
      <path
         class="cls-1"
         d="m 8,-0.0013 h 32 a 8,8.026722 0 0 1 8,8.026722 v 32.111704 a 8,8.026722 0 0 1 -8,8.026722 H 8 A 8,8.026722 0 0 1 1.125e-8,40.137126 V 8.026024 A 8,8.026722 0 0 1 8,-0.0013 Z"
         id="path1017"
         style="stroke-width:1" />
    </clipPath>
  </defs>
  <title
     id="title157659">icon_bitmap2component</title>
  <g
     id="g4595"
     transform="matrix(1.1030313,0,0,1.1030334,17.056867,20.281519)"
     style="display:inline;stroke-width:0.906592">
    <g
       id="g964"
       transform="matrix(2.04,0,0,2.04,-24.120841,-16.101471)"
       style="stroke-width:0.444408">
      <path
         class="cls-2"
         d="M 5.6107041,17.382 10.447604,7.9879 a 1.0508,1.0508 0 0 1 1.749,-0.1825 l 4.9165,6.0372 a 1.0509,1.0509 0 0 0 1.5964,0.0388 l 1.32,-1.4693 a 1.0508,1.0508 0 0 1 1.6628,0.13 l 3.1145,4.7944 a 0.5253,0.5253 0 0 1 -0.4406,0.8115 H 6.0778041 a 0.5253,0.5253 0 0 1 -0.4671,-0.766 z"
         id="path4007"
         style="fill:#1a81c4;fill-opacity:1;stroke-width:0.444408"
         inkscape:connector-curvature="0" />
      <circle
         class="cls-2"
         cx="18.745304"
         cy="4.7492037"
         id="circle4009"
         style="fill:#1a81c4;fill-opacity:1;stroke-width:0.444408"
         r="2.6747999" />
    </g>
  </g>
  <g
     id="g983"
     transform="matrix(2,0,0,2.019111,-2,2.5692537)"
     style="display:inline;stroke-width:0.497628"
     clip-path="url(#clipPath991)">
    <path
       class="cls-2"
       d="M 5.6107041,17.382 10.447604,7.9879 a 1.0508,1.0508 0 0 1 1.749,-0.1825 l 4.9165,6.0372 a 1.0509,1.0509 0 0 0 1.5964,0.0388 l 1.32,-1.4693 a 1.0508,1.0508 0 0 1 1.6628,0.13 l 3.1145,4.7944 a 0.5253,0.5253 0 0 1 -0.4406,0.8115 H 6.0778041 a 0.5253,0.5253 0 0 1 -0.4671,-0.766 z"
       id="path414"
       style="display:inline;fill:#545454;fill-opacity:1;stroke-width:0.444408"
       inkscape:connector-curvature="0"
       transform="matrix(1.1250919,0,0,1.114445,-3.7745878,-0.02386942)" />
    <circle
       class="cls-2"
       cx="18.745304"
       cy="4.7492037"
       id="circle416"
       style="display:inline;fill:#545454;fill-opacity:1;stroke-width:0.444408"
       r="2.6747999"
       transform="matrix(1.1250919,0,0,1.114445,-3.7745878,-0.02386942)" />
    <path
       style="display:inline;fill:none;stroke:#b9b9b9;stroke-width:0.995256;stroke-linecap:butt;stroke-linejoin:miter;stroke-miterlimit:4;stroke-dasharray:none;stroke-opacity:1"
       d="M 4,20.5 V 2.5"
       id="path918" />
    <path
       style="display:inline;fill:none;stroke:#b9b9b9;stroke-width:0.995256;stroke-linecap:butt;stroke-linejoin:miter;stroke-miterlimit:4;stroke-dasharray:none;stroke-opacity:1"
       d="M 7,20.5 V 2.5"
       id="path922" />
    <path
       style="display:inline;fill:none;stroke:#b9b9b9;stroke-width:0.995256;stroke-linecap:butt;stroke-linejoin:miter;stroke-miterlimit:4;stroke-dasharray:none;stroke-opacity:1"
       d="M 10,20.5 V 2.5"
       id="path924" />
    <path
       style="display:inline;fill:none;stroke:#b9b9b9;stroke-width:0.995256;stroke-linecap:butt;stroke-linejoin:miter;stroke-miterlimit:4;stroke-dasharray:none;stroke-opacity:1"
       d="M 13,20.5 V 2.5"
       id="path928" />
    <path
       style="display:inline;fill:none;stroke:#b9b9b9;stroke-width:0.995256;stroke-linecap:butt;stroke-linejoin:miter;stroke-miterlimit:4;stroke-dasharray:none;stroke-opacity:1"
       d="M 16,20 V 2"
       id="path930" />
    <path
       style="display:inline;fill:none;stroke:#b9b9b9;stroke-width:0.995256;stroke-linecap:butt;stroke-linejoin:miter;stroke-miterlimit:4;stroke-dasharray:none;stroke-opacity:1"
       d="M 19,20 V 2"
       id="path934" />
    <path
       style="display:inline;fill:none;stroke:#b9b9b9;stroke-width:0.995256;stroke-linecap:butt;stroke-linejoin:miter;stroke-miterlimit:4;stroke-dasharray:none;stroke-opacity:1"
       d="M 22,20 V 2"
       id="path936" />
    <path
       style="display:inline;fill:none;stroke:#b9b9b9;stroke-width:0.497628px;stroke-linecap:butt;stroke-linejoin:miter;stroke-opacity:1"
       d="M 22.5,20.5 H 4.5"
       id="path938" />
    <path
       style="display:inline;fill:none;stroke:#b9b9b9;stroke-width:0.995256;stroke-linecap:butt;stroke-linejoin:miter;stroke-miterlimit:4;stroke-dasharray:none;stroke-opacity:1"
       d="M 22,17.5 H 4"
       id="path940" />
    <path
       style="display:inline;fill:none;stroke:#b9b9b9;stroke-width:0.995256;stroke-linecap:butt;stroke-linejoin:miter;stroke-miterlimit:4;stroke-dasharray:none;stroke-opacity:1"
       d="M 22,14.5 H 4"
       id="path942" />
    <path
       style="display:inline;fill:none;stroke:#b9b9b9;stroke-width:0.995256;stroke-linecap:butt;stroke-linejoin:miter;stroke-miterlimit:4;stroke-dasharray:none;stroke-opacity:1"
       d="M 22,11.5 H 4"
       id="path944" />
    <path
       style="display:inline;fill:none;stroke:#b9b9b9;stroke-width:0.995256;stroke-linecap:butt;stroke-linejoin:miter;stroke-miterlimit:4;stroke-dasharray:none;stroke-opacity:1"
       d="M 21.5,8.5 H 3.5"
       id="path946" />
    <path
       style="display:inline;fill:none;stroke:#b9b9b9;stroke-width:0.995256;stroke-linecap:butt;stroke-linejoin:miter;stroke-miterlimit:4;stroke-dasharray:none;stroke-opacity:1"
       d="M 21.5,5.5 H 3.5"
       id="path948" />
    <path
       style="display:inline;fill:none;stroke:#b9b9b9;stroke-width:0.995256;stroke-linecap:butt;stroke-linejoin:miter;stroke-miterlimit:4;stroke-dasharray:none;stroke-opacity:1"
       d="M 21.5,2.5 H 3.5"
       id="path950" />
  </g>
  <path
     style="display:inline;fill:none;stroke:#545454;stroke-width:1.5;stroke-linecap:round;stroke-linejoin:miter;stroke-miterlimit:4;stroke-dasharray:none;stroke-opacity:1"
     d="m 2.5,45.5 43,-43"
     id="path995"
     sodipodi:nodetypes="cc"
     clip-path="url(#clipPath1015)" />
</svg>
