/* XPM */
static char * lang_fr_xpm[] = {
"16 16 5 1",
" 	c None",
".	c #000000",
"+	c #0000D2",
"@	c #FFFFFF",
"#	c #F00000",
"                ",
"                ",
"..............  ",
".++++@@@@####.  ",
".++++@@@@####.  ",
".++++@@@@####.  ",
".++++@@@@####.  ",
".++++@@@@####.  ",
".++++@@@@####.  ",
".++++@@@@####.  ",
".++++@@@@####.  ",
".++++@@@@####.  ",
"..............  ",
"                ",
"                ",
"                "};
