/* XPM */
static char * lang_de_xpm[] = {
"16 16 5 1",
" 	c None",
".	c #000000",
"@	c #000000",
"#	c #C00000",
"+	c #C0C000",
"                ",
"                ",
"..............  ",
".@@@@@@@@@@@@.  ",
".@@@@@@@@@@@@.  ",
".@@@@@@@@@@@@.  ",
".############.  ",
".############.  ",
".############.  ",
".++++++++++++.  ",
".++++++++++++.  ",
".++++++++++++.  ",
"..............  ",
"                ",
"                ",
"                "};
