/* XPM */
static char * language_xpm[] = {
"16 16 92 2",
"  	c None",
". 	c #000000",
"+ 	c #7F91A3",
"@ 	c #C0C8D1",
"# 	c #FAFAFA",
"$ 	c #8495A7",
"% 	c #597088",
"& 	c #8395A6",
"* 	c #DFE3E7",
"= 	c #F9F9F9",
"- 	c #F7F7F7",
"; 	c #EDEDED",
"> 	c #F3F3F3",
", 	c #DDDDDD",
"' 	c #8C9CAD",
") 	c #5D738B",
"! 	c #4A637D",
"~ 	c #798C9F",
"{ 	c #D9DEE2",
"] 	c #F1F1F1",
"^ 	c #F4F4F4",
"/ 	c #8F9FAF",
"( 	c #4F6781",
"_ 	c #3D5874",
": 	c #33506D",
"< 	c #AA5C50",
"[ 	c #C95841",
"} 	c #E35D3E",
"| 	c #E46345",
"1 	c #CE5236",
"2 	c #8B9BAC",
"3 	c #3C5774",
"4 	c #8394A6",
"5 	c #324F6D",
"6 	c #AA5C51",
"7 	c #7FBF5F",
"8 	c #84C166",
"9 	c #97C97A",
"0 	c #FFFFFF",
"a 	c #FDFBF9",
"b 	c #F59B5E",
"c 	c #FA9D5F",
"d 	c #EE6306",
"e 	c #687C92",
"f 	c #905957",
"g 	c #DD5A3C",
"h 	c #8EC672",
"i 	c #4BA51F",
"j 	c #51A521",
"k 	c #FBFBFB",
"l 	c #F2F2F2",
"m 	c #F2EEEB",
"n 	c #FF7011",
"o 	c #FF7E29",
"p 	c #E77528",
"q 	c #91C876",
"r 	c #3F9F0F",
"s 	c #48A015",
"t 	c #F0F0F0",
"u 	c #F8F5F2",
"v 	c #FF7C25",
"w 	c #FF812D",
"x 	c #E76F1F",
"y 	c #8DC671",
"z 	c #359A03",
"A 	c #459D12",
"B 	c #F6F6F6",
"C 	c #FCF9F6",
"D 	c #FF812E",
"E 	c #FF7B24",
"F 	c #E76813",
"G 	c #85C267",
"H 	c #329700",
"I 	c #439A12",
"J 	c #FCFCFC",
"K 	c #FFFBF8",
"L 	c #FF7317",
"M 	c #E76006",
"N 	c #7FBF60",
"O 	c #319500",
"P 	c #419511",
"Q 	c #FFFBF9",
"R 	c #FF7418",
"S 	c #FF6C0A",
"T 	c #E75D01",
"U 	c #358F08",
"V 	c #2B8300",
"W 	c #3C8810",
"X 	c #E7E7E7",
"Y 	c #E7E4E2",
"Z 	c #E76209",
"` 	c #D45400",
"                                ",
". . . . . . . . . . .           ",
". + @ # # # # # # # .           ",
". $ % & * = - ; > , .           ",
". ' ) ! ~ { ] ^ ^ , .           ",
". / ( _ : < [ } | 1 .           ",
". 2 3 : . . . . . . . . . . .   ",
". 4 5 6 . 7 8 9 0 0 a b c d .   ",
". e f g . h i j k l m n o p .   ",
". . . . . q r s ^ t u v w x .   ",
"        . y z A t B C D E F .   ",
"        . G H I ^ J K E L M .   ",
"        . N O P # 0 Q R S T .   ",
"        . U V W X X Y Z T ` .   ",
"        . . . . . . . . . . .   ",
"                                "};
