/* XPM */
static char * lang_en_xpm[] = {
"16 16 21 1",
" 	c None",
".	c #000000",
"+	c #FFFFFF",
"@	c #A2A2E8",
"#	c #0D0DC3",
"$	c #0000C0",
"%	c #F77F7F",
"&	c #5D5DD6",
"*	c #F2F2FB",
"=	c #DBDBF6",
"-	c #3434CC",
";	c #2424C8",
">	c #CBCBF2",
",	c #FAFAFD",
"'	c #7474DC",
")	c #8080DF",
"!	c #8282DF",
"~	c #C5C5F0",
"{	c #FEFEFE",
"]	c #F00000",
"^	c #EF0000",
"                ",
"                ",
"..............  ",
".+@#$$%%$$#@+.  ",
".&*=-$%%$-=*&.  ",
".$;>,'%%',>;$.  ",
".))!~{%%{~!)).  ",
".]]]]]^^]]]]].  ",
".))!~{%%{~!)).  ",
".$;>,'%%',>;$.  ",
".&*=-$%%$-=*&.  ",
".+@#$$%%$$#@+.  ",
"..............  ",
"                ",
"                ",
"                "};
