M48
; DRILL file {KiCad 7.0.9-7.0.9~ubuntu22.04.1} date Fri 15 Dec 2023 03:20:48 PM
; FORMAT={-:-/ absolute / metric / decimal}
; #@! TF.CreationDate,2023-12-15T15:20:48-05:00
; #@! TF.GenerationSoftware,Kicad,Pcbnew,7.0.9-7.0.9~ubuntu22.04.1
; #@! TF.FileFunction,Plated,1,4,PTH
FMAT,2
METRIC
; #@! TA.AperFunction,Plated,PTH,ViaDrill
T1C0.300
; #@! TA.AperFunction,Plated,PTH,ComponentDrill
T2C0.300
; #@! TA.AperFunction,Plated,PTH,ViaDrill
T3C0.400
; #@! TA.AperFunction,Plated,PTH,ComponentDrill
T4C0.600
; #@! TA.AperFunction,Plated,PTH,ComponentDrill
T5C1.000
; #@! TA.AperFunction,Plated,PTH,ComponentDrill
T6C3.200
%
G90
G05
T1
X4.9Y33.08
X5.724Y14.712
X5.998Y61.12
X6.433Y15.702
X6.525Y31.2
X6.543Y27.545
X6.632Y33.758
X6.677Y35.792
X7.055Y30.205
X7.067Y37.015
X7.2Y74.5
X7.2Y70.9
X7.3Y8.5
X7.382Y60.53
X7.8Y75.1
X8.2Y60.015
X8.3Y20.2
X8.62Y50.5
X8.65Y45.3
X8.674Y34.7
X9.1Y21.5
X9.109Y27.286
X9.252Y51.2
X9.4Y57.1
X9.507Y36.529
X9.6Y62.6
X9.6Y55.495
X9.6Y37.6
X9.65Y25.85
X9.9Y22.6
X10.025Y42.765
X10.152Y18.5
X10.154Y35.758
X10.4Y58.267
X10.47Y47.994
X10.47Y41.061
X10.8Y10.9
X11.102Y53.002
X11.903Y64.183
X12.18Y25.177
X12.2Y19.4
X12.5Y37.3
X12.58Y26.638
X12.626Y60.63
X12.8Y31.3
X13.029Y19.296
X13.45Y41.078
X13.5Y57.2
X13.5Y54.8
X13.5Y52.3
X13.5Y49.7
X13.5Y47.186
X13.5Y44.6
X13.506Y59.594
X13.709Y37.14
X13.9Y16.2
X14.157Y26.345
X14.232Y20.995
X14.291Y45.691
X14.322Y19.3
X14.325Y24.9
X14.5Y48.71
X14.942Y22.0
X14.989Y32.433
X15.25Y30.9
X15.558Y19.175
X15.639Y25.176
X15.665Y28.665
X16.1Y14.0
X16.2Y7.15
X16.287Y20.594
X16.555Y35.375
X16.602Y25.175
X16.9Y16.7
X16.924Y66.013
X17.1Y80.2
X17.1Y7.8
X17.346Y17.7
X17.6Y18.7
X17.648Y27.821
X17.68Y23.7
X17.85Y80.15
X18.0Y78.2
X18.0Y25.8
X18.175Y29.2
X18.221Y33.068
X18.807Y23.02
X18.9Y17.95
X19.0Y19.8
X19.2Y72.2
X19.25Y52.6
X19.476Y24.326
X19.5Y25.3
X19.762Y34.011
X19.77Y40.372
X19.964Y19.794
X20.1Y76.3
X20.194Y71.302
X20.3Y32.5
X20.436Y7.086
X20.476Y33.496
X20.527Y50.527
X21.057Y42.373
X21.2Y43.7
X21.3Y56.8
X21.3Y25.738
X21.3Y8.8
X21.5Y17.712
X21.922Y12.6
X22.4Y46.5
X22.521Y35.879
X22.637Y17.062
X22.7Y4.342
X22.8Y63.052
X22.912Y30.238
X23.1Y52.2
X23.1Y33.3
X23.7Y9.474
X23.73Y28.529
X23.9Y44.5
X23.981Y38.78
X24.026Y56.332
X24.1Y47.2
X24.159Y22.895
X24.65Y15.75
X24.738Y26.064
X24.898Y17.987
X25.099Y8.351
X25.312Y65.093
X25.442Y43.219
X25.675Y25.261
X25.8Y22.7
X26.2Y31.7
X26.407Y18.197
X26.473Y7.48
X26.506Y26.871
X26.924Y25.616
X27.1Y27.7
X27.247Y18.064
X27.4Y72.5
X27.55Y10.9
X27.615Y25.134
X28.162Y10.288
X28.527Y18.118
X28.671Y71.51
X28.8Y72.3
X28.85Y15.195
X28.85Y14.3
X29.444Y47.837
X29.5Y16.95
X29.6Y12.3
X30.11Y47.19
X30.3Y0.7
X30.35Y28.9
X30.35Y16.988
X31.027Y28.166
X31.1Y8.838
X31.6Y53.9
X31.6Y46.1
X32.0Y13.6
X32.0Y10.6
X32.0Y7.877
X32.004Y27.007
X32.371Y26.106
X32.39Y18.578
X32.4Y24.8
X32.5Y64.6
X32.688Y36.627
X32.752Y1.195
X32.889Y50.725
X32.95Y12.25
X33.0Y44.3
X33.264Y24.631
X33.371Y18.578
X33.7Y49.1
X34.167Y31.3
X34.556Y59.572
X34.88Y52.938
X35.05Y1.7
X35.114Y34.5
X35.2Y9.6
X35.22Y68.56
X35.4Y14.4
X35.85Y8.15
X35.97Y51.3
X35.986Y55.098
X35.995Y64.747
X36.0Y62.9
X36.234Y24.6
X36.234Y17.456
X36.5Y41.6
X36.8Y73.9
X36.8Y13.0
X37.9Y33.9
X38.507Y15.088
X38.6Y23.5
X38.8Y72.97
X39.1Y8.185
X39.172Y64.887
X39.176Y54.413
X39.3Y32.7
X39.572Y72.174
X40.25Y0.85
X41.8Y32.7
X43.098Y12.473
X43.1Y14.6
X43.25Y10.0
X44.046Y68.625
X44.05Y12.3
X44.1Y74.3
X44.67Y41.735
X45.896Y11.603
X45.9Y17.0
X46.3Y25.5
X46.6Y11.1
X46.65Y12.35
X46.8Y73.4
X48.6Y23.2
X48.741Y58.685
X49.247Y61.197
X49.285Y20.7
X50.0Y10.7
X50.1Y11.55
X50.2Y26.1
X50.267Y42.867
X50.444Y66.3
X51.042Y58.24
X51.042Y22.5
X51.6Y69.4
X51.755Y56.2
X51.8Y61.7
X51.835Y20.133
X51.867Y65.88
X52.427Y30.5
X52.468Y9.3
X53.1Y62.7
X53.1Y50.6
X53.14Y22.1
X53.9Y19.7
X54.4Y70.985
X54.4Y58.705
X54.4Y55.9
X54.967Y45.7
X54.967Y18.184
X55.152Y48.545
X55.7Y20.8
X55.999Y63.785
X56.9Y67.2
X57.35Y17.95
X58.0Y53.05
X58.037Y28.0
X58.2Y7.7
X58.7Y14.1
X58.8Y38.9
X59.6Y15.7
X59.8Y23.0
X60.9Y65.8
X60.9Y1.3
X61.51Y12.543
X61.8Y13.9
X61.847Y10.1
X61.9Y7.0
X61.9Y70.312
X63.19Y21.245
X63.2Y16.4
X64.25Y67.75
X64.3Y8.4
X64.331Y14.066
X64.55Y5.6
X65.4Y15.8
X65.9Y12.5
X66.22Y64.9
X66.7Y38.7
X67.0Y11.79
X67.55Y74.2
X68.2Y46.5
X69.0Y12.4
X69.0Y9.8
X69.0Y8.4
X70.0Y59.6
X70.5Y70.9
X70.807Y13.207
X72.1Y39.832
X72.14Y46.8
X73.256Y12.575
X74.7Y49.2
X74.7Y37.322
X75.7Y43.915
X75.9Y11.867
X76.4Y45.4
X77.2Y36.6
X78.397Y40.097
X78.397Y11.167
X79.2Y60.4
X79.825Y43.7
X82.3Y10.5
X82.4Y68.435
X84.8Y74.0
X84.8Y45.7
X84.8Y9.7
X84.9Y13.207
X86.2Y57.9
X86.2Y51.9
X87.1Y30.0
X87.15Y16.2
X87.2Y25.2
X87.4Y63.2
X87.4Y50.0
X87.45Y8.95
X87.82Y68.14
X88.05Y20.6
X88.15Y26.2
X88.4Y76.7
X88.65Y19.8
X88.669Y70.061
X88.775Y24.298
X89.92Y7.4
X90.0Y54.2
X90.0Y49.1
X90.05Y25.9
X90.05Y19.9
X90.1Y73.5
X90.531Y69.425
X91.45Y26.0
X91.45Y19.9
X92.0Y76.7
X92.5Y52.7
X92.65Y45.98
X92.703Y56.625
X93.8Y70.2
X94.35Y25.2
X94.35Y17.7
X94.4Y73.2
X94.4Y65.0
X94.4Y60.7
X94.5Y48.1
X95.7Y69.6
X98.6Y69.9
X99.1Y41.4
X99.7Y11.8
X100.0Y10.5
X100.529Y8.941
X100.553Y13.147
X100.679Y11.735
X101.174Y10.441
X101.551Y9.0
T2
X0.7Y63.6
X0.7Y58.6
X0.7Y12.9
X0.9Y72.3
X3.4Y49.5
X3.7Y9.0
X7.2Y34.8
X8.1Y73.6
X8.1Y62.9
X8.45Y67.55
X8.5Y19.1
X8.5Y13.1
X8.6Y58.2
X8.6Y54.8
X8.7Y41.9
X10.3Y39.0
X10.3Y29.3
X11.2Y54.7
X11.25Y80.2
X12.3Y21.3
X12.4Y71.8
X12.5Y49.7
X12.5Y45.7
X12.5Y41.9
X12.5Y13.1
X12.5Y5.2
X12.5Y0.7
X17.6Y13.9
X19.7Y5.2
X20.0Y48.8
X20.2Y57.3
X23.0Y43.3
X23.6Y8.1
X23.75Y71.0
X24.0Y73.3
X24.2Y33.3
X24.4Y18.9
X24.5Y22.1
X26.0Y63.0
X26.0Y20.5
X27.0Y68.2
X27.7Y22.0
X27.7Y18.8
X29.0Y70.4
X31.2Y56.8
X31.4Y44.5
X31.9Y67.2
X32.8Y73.3
X34.4Y10.3
X34.5Y14.8
X35.2Y72.2
X35.5Y26.4
X35.5Y19.0
X35.7Y32.9
X35.7Y5.6
X37.8Y41.5
X39.9Y9.7
X40.2Y19.1
X40.4Y5.6
X42.9Y0.8
X43.6Y41.3
X43.9Y36.4
X43.9Y31.5
X47.98Y0.8
X48.1Y75.6
X48.8Y66.0
X50.1Y17.2
X52.0Y62.8
X53.0Y69.5
X53.06Y0.8
X53.1Y75.6
X54.9Y50.1
X55.7Y75.6
X56.5Y30.3
X56.5Y9.2
X56.6Y55.5
X56.7Y19.1
X58.14Y0.8
X58.7Y13.2
X62.2Y65.3
X62.2Y55.6
X62.2Y50.3
X62.2Y45.3
X62.2Y41.1
X62.2Y34.0
X62.2Y27.1
X62.2Y19.1
X63.2Y6.3
X63.22Y0.8
X63.3Y75.6
X66.6Y31.6
X66.6Y29.0
X66.6Y26.5
X66.6Y23.5
X67.4Y75.6
X68.3Y0.8
X70.9Y75.6
X71.2Y65.2
X71.2Y59.4
X71.2Y50.9
X71.3Y46.3
X71.3Y38.8
X71.3Y32.6
X71.3Y27.4
X71.3Y22.1
X71.6Y12.0
X73.38Y0.8
X73.6Y75.6
X74.4Y73.5
X78.46Y0.8
X78.9Y73.5
X80.7Y14.2
X81.1Y75.6
X83.5Y6.8
X83.54Y0.8
X83.6Y75.6
X86.0Y43.1
X86.0Y37.5
X86.0Y31.4
X86.2Y75.6
X86.85Y14.2
X87.1Y23.0
X88.62Y0.8
X88.7Y49.4
X88.8Y6.8
X90.05Y23.0
X90.1Y59.2
X91.8Y75.6
X92.9Y23.0
X93.4Y55.1
X95.3Y73.6
X95.8Y25.6
X95.8Y18.0
X95.9Y59.4
X96.2Y43.1
X96.2Y37.5
X97.7Y71.7
X101.4Y26.6
X101.4Y24.1
X101.4Y21.5
X103.7Y69.1
X103.7Y64.1
X103.7Y59.1
X103.7Y54.1
X103.7Y49.1
X103.7Y44.1
X103.7Y39.1
X103.7Y34.1
X103.7Y29.1
T3
X11.2Y69.8
X12.7Y68.2
X13.1Y67.3
X21.1Y69.5
X21.7Y72.8
X23.1Y41.6
X24.701Y72.305
X25.75Y72.252
X26.2Y67.3
X30.6Y72.4
X30.7Y67.3
X31.7Y72.4
X36.435Y49.27
X38.027Y66.715
X39.2Y61.6
X41.5Y76.0
X41.5Y70.62
X41.5Y65.3
X43.4Y53.9
X43.6Y49.1
X44.0Y24.8
X46.5Y62.8
X48.3Y24.6
X48.7Y72.0
X67.6Y73.0
X67.6Y70.5
X67.6Y54.9
X69.0Y27.5
X69.0Y24.5
X69.25Y77.386
X69.25Y53.915
X69.25Y51.389
X69.47Y70.538
X69.56Y73.066
X70.0Y55.105
X70.0Y31.5
X70.0Y29.0
X75.1Y41.7
X75.4Y56.8
X79.0Y48.3
X79.4Y33.9
X80.1Y28.8
X80.2Y31.4
X80.2Y26.3
X80.2Y23.8
X80.6Y72.0
X80.7Y50.9
X82.5Y60.4
X82.6Y43.1
X83.5Y68.6
X84.7Y49.1
X87.15Y21.8
X88.5Y54.5
X88.669Y56.69
X96.5Y4.4
X96.9Y79.4
X96.9Y78.5
X96.9Y70.7
X97.1Y5.3
T4
X96.9Y31.78
X96.9Y29.28
X96.9Y26.78
X96.9Y24.28
X96.9Y21.78
X96.9Y19.28
X96.9Y16.78
X96.9Y14.28
X99.9Y31.78
X99.9Y29.28
X99.9Y26.78
X99.9Y24.28
X99.9Y21.78
X99.9Y19.28
X99.9Y16.78
X99.9Y14.28
T5
X1.69Y29.26
X1.96Y70.0
X1.96Y67.46
X1.96Y64.92
X1.96Y62.38
X1.96Y59.84
X1.96Y57.3
X1.96Y47.14
X1.96Y44.6
X1.96Y42.06
X1.96Y39.52
X1.96Y36.98
X1.96Y34.44
X1.96Y24.28
X1.96Y21.74
X1.96Y19.2
X1.96Y16.66
X1.96Y14.12
X1.96Y11.58
X4.23Y29.26
X4.5Y70.0
X4.5Y67.46
X4.5Y64.92
X4.5Y62.38
X4.5Y59.84
X4.5Y57.3
X4.5Y47.14
X4.5Y44.6
X4.5Y42.06
X4.5Y39.52
X4.5Y36.98
X4.5Y34.44
X4.5Y24.28
X4.5Y21.74
X4.5Y19.2
X4.5Y16.66
X4.5Y14.12
X4.5Y11.58
X11.19Y3.0
X13.73Y3.0
X16.27Y3.0
X18.81Y3.0
X21.345Y5.545
X21.345Y3.005
X23.885Y5.545
X23.885Y3.005
X26.425Y5.545
X26.425Y3.005
X28.965Y5.545
X28.965Y3.005
X31.505Y5.545
X31.505Y3.005
X34.045Y5.545
X34.045Y3.005
X36.58Y79.0
X36.62Y3.0
X39.12Y79.0
X39.16Y3.0
X41.66Y79.0
X41.7Y3.0
X44.2Y79.0
X44.205Y5.545
X44.205Y3.005
X46.74Y79.0
X46.745Y5.545
X46.745Y3.005
X49.28Y79.0
X49.285Y5.545
X49.285Y3.005
X51.82Y79.0
X51.825Y5.545
X51.825Y3.005
X54.36Y79.0
X54.365Y5.545
X54.365Y3.005
X56.9Y79.0
X56.905Y5.545
X56.905Y3.005
X59.44Y79.0
X59.465Y3.0
X61.98Y79.0
X62.005Y3.0
X64.52Y79.0
X64.545Y3.0
X67.06Y79.0
X67.065Y5.545
X67.065Y3.005
X69.6Y79.0
X69.605Y5.545
X69.605Y3.005
X72.14Y79.0
X72.145Y5.545
X72.145Y3.005
X74.68Y79.0
X74.685Y5.545
X74.685Y3.005
X77.22Y79.0
X77.225Y5.545
X77.225Y3.005
X79.76Y79.0
X79.765Y5.545
X79.765Y3.005
X82.3Y79.0
X82.3Y3.0
X84.84Y79.0
X84.84Y3.0
X87.38Y79.0
X87.38Y3.0
X89.92Y79.0
X89.92Y3.0
X92.46Y79.0
X92.46Y3.0
X95.0Y79.0
X95.0Y3.0
T6
X3.75Y77.25
X3.75Y3.75
X100.75Y77.25
X100.75Y3.75
T4
G00X22.63Y78.4
M15
G01X22.63Y79.6
M16
G05
G00X22.63Y74.6
M15
G01X22.63Y75.4
M16
G05
G00X33.87Y78.4
M15
G01X33.87Y79.6
M16
G05
G00X33.87Y74.6
M15
G01X33.87Y75.4
M16
G05
T0
M30
