G04 #@! TF.GenerationSoftware,KiCad,Pcbnew,7.0.9-7.0.9~ubuntu22.04.1*
G04 #@! TF.CreationDate,2023-12-15T15:20:45-05:00*
G04 #@! TF.ProjectId,tinytapeout-demo,74696e79-7461-4706-956f-75742d64656d,0.9.4*
G04 #@! TF.SameCoordinates,PX35e1f20PY8044ea0*
G04 #@! TF.FileFunction,Soldermask,Top*
G04 #@! TF.FilePolarity,Negative*
%FSLAX46Y46*%
G04 Gerber Fmt 4.6, Leading zero omitted, Abs format (unit mm)*
G04 Created by KiCad (PCBNEW 7.0.9-7.0.9~ubuntu22.04.1) date 2023-12-15 15:20:45*
%MOMM*%
%LPD*%
G01*
G04 APERTURE LIST*
G04 Aperture macros list*
%AMRoundRect*
0 Rectangle with rounded corners*
0 $1 Rounding radius*
0 $2 $3 $4 $5 $6 $7 $8 $9 X,Y pos of 4 corners*
0 Add a 4 corners polygon primitive as box body*
4,1,4,$2,$3,$4,$5,$6,$7,$8,$9,$2,$3,0*
0 Add four circle primitives for the rounded corners*
1,1,$1+$1,$2,$3*
1,1,$1+$1,$4,$5*
1,1,$1+$1,$6,$7*
1,1,$1+$1,$8,$9*
0 Add four rect primitives between the rounded corners*
20,1,$1+$1,$2,$3,$4,$5,0*
20,1,$1+$1,$4,$5,$6,$7,0*
20,1,$1+$1,$6,$7,$8,$9,0*
20,1,$1+$1,$8,$9,$2,$3,0*%
%AMFreePoly0*
4,1,19,0.500000,-0.750000,0.000000,-0.750000,0.000000,-0.744911,-0.071157,-0.744911,-0.207708,-0.704816,-0.327430,-0.627875,-0.420627,-0.520320,-0.479746,-0.390866,-0.500000,-0.250000,-0.500000,0.250000,-0.479746,0.390866,-0.420627,0.520320,-0.327430,0.627875,-0.207708,0.704816,-0.071157,0.744911,0.000000,0.744911,0.000000,0.750000,0.500000,0.750000,0.500000,-0.750000,0.500000,-0.750000,
$1*%
%AMFreePoly1*
4,1,19,0.000000,0.744911,0.071157,0.744911,0.207708,0.704816,0.327430,0.627875,0.420627,0.520320,0.479746,0.390866,0.500000,0.250000,0.500000,-0.250000,0.479746,-0.390866,0.420627,-0.520320,0.327430,-0.627875,0.207708,-0.704816,0.071157,-0.744911,0.000000,-0.744911,0.000000,-0.750000,-0.500000,-0.750000,-0.500000,0.750000,0.000000,0.750000,0.000000,0.744911,0.000000,0.744911,
$1*%
G04 Aperture macros list end*
%ADD10C,0.900000*%
%ADD11FreePoly0,180.000000*%
%ADD12FreePoly1,180.000000*%
%ADD13RoundRect,0.225000X0.225000X0.250000X-0.225000X0.250000X-0.225000X-0.250000X0.225000X-0.250000X0*%
%ADD14RoundRect,0.135000X0.185000X-0.135000X0.185000X0.135000X-0.185000X0.135000X-0.185000X-0.135000X0*%
%ADD15RoundRect,0.225000X-0.250000X0.225000X-0.250000X-0.225000X0.250000X-0.225000X0.250000X0.225000X0*%
%ADD16RoundRect,0.140000X-0.140000X-0.170000X0.140000X-0.170000X0.140000X0.170000X-0.140000X0.170000X0*%
%ADD17RoundRect,0.135000X-0.185000X0.135000X-0.185000X-0.135000X0.185000X-0.135000X0.185000X0.135000X0*%
%ADD18C,6.400000*%
%ADD19C,2.000000*%
%ADD20RoundRect,0.135000X0.135000X0.185000X-0.135000X0.185000X-0.135000X-0.185000X0.135000X-0.185000X0*%
%ADD21RoundRect,0.102000X0.300000X0.550000X-0.300000X0.550000X-0.300000X-0.550000X0.300000X-0.550000X0*%
%ADD22RoundRect,0.102000X0.150000X0.550000X-0.150000X0.550000X-0.150000X-0.550000X0.150000X-0.550000X0*%
%ADD23O,1.250000X2.400000*%
%ADD24O,1.180000X2.080000*%
%ADD25R,1.700000X1.700000*%
%ADD26O,1.700000X1.700000*%
%ADD27C,1.700000*%
%ADD28RoundRect,0.250000X0.250000X0.475000X-0.250000X0.475000X-0.250000X-0.475000X0.250000X-0.475000X0*%
%ADD29RoundRect,0.135000X-0.135000X-0.185000X0.135000X-0.185000X0.135000X0.185000X-0.135000X0.185000X0*%
%ADD30RoundRect,0.140000X-0.170000X0.140000X-0.170000X-0.140000X0.170000X-0.140000X0.170000X0.140000X0*%
%ADD31RoundRect,0.200000X0.200000X0.275000X-0.200000X0.275000X-0.200000X-0.275000X0.200000X-0.275000X0*%
%ADD32RoundRect,0.140000X0.170000X-0.140000X0.170000X0.140000X-0.170000X0.140000X-0.170000X-0.140000X0*%
%ADD33R,1.400000X1.200000*%
%ADD34RoundRect,0.225000X-0.225000X-0.250000X0.225000X-0.250000X0.225000X0.250000X-0.225000X0.250000X0*%
%ADD35RoundRect,0.140000X0.140000X0.170000X-0.140000X0.170000X-0.140000X-0.170000X0.140000X-0.170000X0*%
%ADD36RoundRect,0.225000X0.250000X-0.225000X0.250000X0.225000X-0.250000X0.225000X-0.250000X-0.225000X0*%
%ADD37RoundRect,0.102000X0.750000X0.700000X-0.750000X0.700000X-0.750000X-0.700000X0.750000X-0.700000X0*%
%ADD38R,1.000000X2.510000*%
%ADD39R,2.200000X1.100000*%
%ADD40RoundRect,0.150000X-0.150000X0.650000X-0.150000X-0.650000X0.150000X-0.650000X0.150000X0.650000X0*%
%ADD41RoundRect,0.200000X0.300000X-0.950000X0.300000X0.950000X-0.300000X0.950000X-0.300000X-0.950000X0*%
%ADD42R,1.000000X2.300000*%
%ADD43RoundRect,0.150000X-0.650000X-0.150000X0.650000X-0.150000X0.650000X0.150000X-0.650000X0.150000X0*%
%ADD44RoundRect,0.050000X-0.387500X-0.050000X0.387500X-0.050000X0.387500X0.050000X-0.387500X0.050000X0*%
%ADD45RoundRect,0.050000X-0.050000X-0.387500X0.050000X-0.387500X0.050000X0.387500X-0.050000X0.387500X0*%
%ADD46R,3.200000X3.200000*%
%ADD47RoundRect,0.243750X0.243750X0.456250X-0.243750X0.456250X-0.243750X-0.456250X0.243750X-0.456250X0*%
%ADD48RoundRect,0.200000X0.200000X0.250000X-0.200000X0.250000X-0.200000X-0.250000X0.200000X-0.250000X0*%
%ADD49RoundRect,0.102000X-0.750000X-0.700000X0.750000X-0.700000X0.750000X0.700000X-0.750000X0.700000X0*%
%ADD50RoundRect,0.200000X0.275000X-0.200000X0.275000X0.200000X-0.275000X0.200000X-0.275000X-0.200000X0*%
%ADD51RoundRect,0.100000X0.100000X-0.637500X0.100000X0.637500X-0.100000X0.637500X-0.100000X-0.637500X0*%
%ADD52RoundRect,0.150000X-0.150000X0.512500X-0.150000X-0.512500X0.150000X-0.512500X0.150000X0.512500X0*%
%ADD53R,1.500000X2.000000*%
%ADD54R,3.800000X2.000000*%
%ADD55R,3.150000X1.000000*%
%ADD56RoundRect,0.218750X0.256250X-0.218750X0.256250X0.218750X-0.256250X0.218750X-0.256250X-0.218750X0*%
%ADD57C,1.500000*%
%ADD58RoundRect,0.250000X-0.250000X-0.475000X0.250000X-0.475000X0.250000X0.475000X-0.250000X0.475000X0*%
%ADD59RoundRect,0.218750X-0.218750X-0.256250X0.218750X-0.256250X0.218750X0.256250X-0.218750X0.256250X0*%
G04 APERTURE END LIST*
D10*
G04 #@! TO.C,JP7*
X99900000Y16780000D03*
D11*
X99050000Y16780000D03*
D12*
X97750000Y16780000D03*
D10*
X96900000Y16780000D03*
G04 #@! TD*
D13*
G04 #@! TO.C,C21*
X94775000Y74500000D03*
X93225000Y74500000D03*
G04 #@! TD*
D14*
G04 #@! TO.C,R15*
X99500000Y70790000D03*
X99500000Y71810000D03*
G04 #@! TD*
D15*
G04 #@! TO.C,C32*
X28200000Y27700000D03*
X28200000Y26150000D03*
G04 #@! TD*
D16*
G04 #@! TO.C,C23*
X68195000Y72000000D03*
X69155000Y72000000D03*
G04 #@! TD*
G04 #@! TO.C,C36*
X26920000Y14250000D03*
X27880000Y14250000D03*
G04 #@! TD*
D10*
G04 #@! TO.C,JP1*
X99900000Y31780000D03*
D11*
X99050000Y31780000D03*
D12*
X97750000Y31780000D03*
D10*
X96900000Y31780000D03*
G04 #@! TD*
D17*
G04 #@! TO.C,R20*
X26900000Y71710000D03*
X26900000Y70690000D03*
G04 #@! TD*
D18*
G04 #@! TO.C,MT3*
X3750000Y77250000D03*
G04 #@! TD*
D19*
G04 #@! TO.C,FID3*
X103000000Y72500000D03*
G04 #@! TD*
D20*
G04 #@! TO.C,R38*
X24360000Y31050000D03*
X23340000Y31050000D03*
G04 #@! TD*
D21*
G04 #@! TO.C,J15*
X31450000Y73550000D03*
X30650000Y73550000D03*
D22*
X29500000Y73550000D03*
X28500000Y73550000D03*
X28000000Y73550000D03*
X27000000Y73550000D03*
D21*
X25050000Y73550000D03*
X25850000Y73550000D03*
D22*
X26500000Y73550000D03*
X27500000Y73550000D03*
X29000000Y73550000D03*
X30000000Y73550000D03*
D23*
X33870000Y79000000D03*
D24*
X22630000Y75000000D03*
X33870000Y75000000D03*
D23*
X22630000Y79000000D03*
G04 #@! TD*
D25*
G04 #@! TO.C,J13*
X4500000Y34440000D03*
D26*
X4500000Y36980000D03*
X4500000Y39520000D03*
X4500000Y42060000D03*
X4500000Y44600000D03*
D27*
X4500000Y47140000D03*
D26*
X1960000Y34440000D03*
X1960000Y36980000D03*
X1960000Y39520000D03*
X1960000Y42060000D03*
X1960000Y44600000D03*
X1960000Y47140000D03*
G04 #@! TD*
D28*
G04 #@! TO.C,C6*
X16190000Y67290000D03*
X14290000Y67290000D03*
G04 #@! TD*
D29*
G04 #@! TO.C,R5*
X14390000Y52271429D03*
X15410000Y52271429D03*
G04 #@! TD*
D30*
G04 #@! TO.C,C56*
X8700000Y23880000D03*
X8700000Y22920000D03*
G04 #@! TD*
D28*
G04 #@! TO.C,C7*
X20800000Y79700000D03*
X18900000Y79700000D03*
G04 #@! TD*
D31*
G04 #@! TO.C,R7*
X42325000Y14750000D03*
X40675000Y14750000D03*
G04 #@! TD*
D29*
G04 #@! TO.C,R1*
X14390000Y42100000D03*
X15410000Y42100000D03*
G04 #@! TD*
D32*
G04 #@! TO.C,C29*
X22400000Y10870000D03*
X22400000Y11830000D03*
G04 #@! TD*
D27*
G04 #@! TO.C,J2*
X18810000Y3000000D03*
D26*
X16270000Y3000000D03*
X13730000Y3000000D03*
X11190000Y3000000D03*
G04 #@! TD*
D16*
G04 #@! TO.C,C24*
X68195000Y29000000D03*
X69155000Y29000000D03*
G04 #@! TD*
G04 #@! TO.C,C8*
X47595000Y11100000D03*
X48555000Y11100000D03*
G04 #@! TD*
D33*
G04 #@! TO.C,Y1*
X23900000Y10900000D03*
X26100000Y10900000D03*
X26100000Y12600000D03*
X23900000Y12600000D03*
G04 #@! TD*
D14*
G04 #@! TO.C,R18*
X90400000Y70790000D03*
X90400000Y71810000D03*
G04 #@! TD*
D30*
G04 #@! TO.C,C58*
X8500000Y69880000D03*
X8500000Y68920000D03*
G04 #@! TD*
D16*
G04 #@! TO.C,C27*
X11120000Y25400000D03*
X12080000Y25400000D03*
G04 #@! TD*
D29*
G04 #@! TO.C,R11*
X14390000Y59900000D03*
X15410000Y59900000D03*
G04 #@! TD*
D34*
G04 #@! TO.C,C16*
X65400000Y13260000D03*
X66950000Y13260000D03*
G04 #@! TD*
D20*
G04 #@! TO.C,R43*
X93810000Y59500000D03*
X92790000Y59500000D03*
G04 #@! TD*
D32*
G04 #@! TO.C,C4*
X17020000Y6165000D03*
X17020000Y7125000D03*
G04 #@! TD*
D20*
G04 #@! TO.C,R24*
X95765000Y26808572D03*
X94745000Y26808572D03*
G04 #@! TD*
G04 #@! TO.C,R22*
X95765000Y31820000D03*
X94745000Y31820000D03*
G04 #@! TD*
D10*
G04 #@! TO.C,JP3*
X99900000Y26780000D03*
D11*
X99050000Y26780000D03*
D12*
X97750000Y26780000D03*
D10*
X96900000Y26780000D03*
G04 #@! TD*
D29*
G04 #@! TO.C,R3*
X14390000Y47185715D03*
X15410000Y47185715D03*
G04 #@! TD*
D10*
G04 #@! TO.C,JP8*
X99900000Y14280000D03*
D11*
X99050000Y14280000D03*
D12*
X97750000Y14280000D03*
D10*
X96900000Y14280000D03*
G04 #@! TD*
D27*
G04 #@! TO.C,J8*
X64545000Y3000000D03*
D26*
X62005000Y3000000D03*
X59465000Y3000000D03*
G04 #@! TD*
D16*
G04 #@! TO.C,C2*
X63020000Y14900000D03*
X63980000Y14900000D03*
G04 #@! TD*
D25*
G04 #@! TO.C,J12*
X4500000Y11580000D03*
D26*
X4500000Y14120000D03*
X4500000Y16660000D03*
X4500000Y19200000D03*
X4500000Y21740000D03*
D27*
X4500000Y24280000D03*
D26*
X1960000Y11580000D03*
X1960000Y14120000D03*
X1960000Y16660000D03*
X1960000Y19200000D03*
X1960000Y21740000D03*
X1960000Y24280000D03*
G04 #@! TD*
D35*
G04 #@! TO.C,C18*
X69155000Y26500000D03*
X68195000Y26500000D03*
G04 #@! TD*
D17*
G04 #@! TO.C,R41*
X39250000Y14547500D03*
X39250000Y13527500D03*
G04 #@! TD*
D36*
G04 #@! TO.C,C42*
X87100000Y70425000D03*
X87100000Y71975000D03*
G04 #@! TD*
D37*
G04 #@! TO.C,SW2*
X67250000Y10000000D03*
X60750000Y10000000D03*
G04 #@! TD*
D14*
G04 #@! TO.C,R8*
X61100000Y12890000D03*
X61100000Y13910000D03*
G04 #@! TD*
D35*
G04 #@! TO.C,C28*
X87680000Y65800000D03*
X86720000Y65800000D03*
G04 #@! TD*
D16*
G04 #@! TO.C,C35*
X32120000Y19200000D03*
X33080000Y19200000D03*
G04 #@! TD*
D25*
G04 #@! TO.C,J3*
X34045000Y5545000D03*
D26*
X31505000Y5545000D03*
X28965000Y5545000D03*
X26425000Y5545000D03*
X23885000Y5545000D03*
D27*
X21345000Y5545000D03*
D26*
X34045000Y3005000D03*
X31505000Y3005000D03*
X28965000Y3005000D03*
X26425000Y3005000D03*
X23885000Y3005000D03*
X21345000Y3005000D03*
G04 #@! TD*
D38*
G04 #@! TO.C,J7*
X63190000Y21245000D03*
X60650000Y24555000D03*
G04 #@! TD*
D29*
G04 #@! TO.C,R12*
X40990000Y13250000D03*
X42010000Y13250000D03*
G04 #@! TD*
D13*
G04 #@! TO.C,C25*
X94775000Y76040000D03*
X93225000Y76040000D03*
G04 #@! TD*
D18*
G04 #@! TO.C,MT4*
X100750000Y77250000D03*
G04 #@! TD*
G04 #@! TO.C,MT2*
X100750000Y3750000D03*
G04 #@! TD*
D15*
G04 #@! TO.C,C5*
X18400000Y7675000D03*
X18400000Y6125000D03*
G04 #@! TD*
D29*
G04 #@! TO.C,R13*
X61090000Y14900000D03*
X62110000Y14900000D03*
G04 #@! TD*
D17*
G04 #@! TO.C,R21*
X30200000Y70910000D03*
X30200000Y69890000D03*
G04 #@! TD*
D29*
G04 #@! TO.C,R42*
X86790000Y73200000D03*
X87810000Y73200000D03*
G04 #@! TD*
D25*
G04 #@! TO.C,J5*
X56905000Y5545000D03*
D26*
X54365000Y5545000D03*
X51825000Y5545000D03*
X49285000Y5545000D03*
X46745000Y5545000D03*
D27*
X44205000Y5545000D03*
D26*
X56905000Y3005000D03*
X54365000Y3005000D03*
X51825000Y3005000D03*
X49285000Y3005000D03*
X46745000Y3005000D03*
X44205000Y3005000D03*
G04 #@! TD*
D29*
G04 #@! TO.C,R2*
X14390000Y44642858D03*
X15410000Y44642858D03*
G04 #@! TD*
D39*
G04 #@! TO.C,SW4*
X17600000Y59890000D03*
X17600000Y57350000D03*
X17600000Y54810000D03*
X17600000Y52270000D03*
X17600000Y49730000D03*
X17600000Y47190000D03*
X17600000Y44650000D03*
X17600000Y42110000D03*
X26400000Y42110000D03*
X26400000Y44650000D03*
X26400000Y47190000D03*
X26400000Y49730000D03*
X26400000Y52270000D03*
X26400000Y54810000D03*
X26400000Y57350000D03*
X26400000Y59890000D03*
G04 #@! TD*
D17*
G04 #@! TO.C,R19*
X95250000Y64010000D03*
X95250000Y62990000D03*
G04 #@! TD*
D10*
G04 #@! TO.C,JP2*
X99900000Y29280000D03*
D11*
X99050000Y29280000D03*
D12*
X97750000Y29280000D03*
D10*
X96900000Y29280000D03*
G04 #@! TD*
D40*
G04 #@! TO.C,U7*
X93905000Y57600000D03*
X92635000Y57600000D03*
X91365000Y57600000D03*
X90095000Y57600000D03*
X90095000Y50400000D03*
X91365000Y50400000D03*
X92635000Y50400000D03*
X93905000Y50400000D03*
G04 #@! TD*
D30*
G04 #@! TO.C,C30*
X27700000Y12630000D03*
X27700000Y11670000D03*
G04 #@! TD*
D20*
G04 #@! TO.C,R28*
X95765000Y16785716D03*
X94745000Y16785716D03*
G04 #@! TD*
D35*
G04 #@! TO.C,C39*
X21280000Y24100000D03*
X20320000Y24100000D03*
G04 #@! TD*
D41*
G04 #@! TO.C,U1*
X87050000Y17550000D03*
D42*
X88550000Y17550000D03*
X90050000Y17550000D03*
X91550000Y17550000D03*
X93050000Y17550000D03*
X93050000Y28450000D03*
X91550000Y28450000D03*
X90050000Y28450000D03*
X88550000Y28450000D03*
X87050000Y28450000D03*
G04 #@! TD*
D20*
G04 #@! TO.C,R23*
X95765000Y29314286D03*
X94745000Y29314286D03*
G04 #@! TD*
D35*
G04 #@! TO.C,C38*
X20180000Y19300000D03*
X19220000Y19300000D03*
G04 #@! TD*
D20*
G04 #@! TO.C,R45*
X93810000Y47600000D03*
X92790000Y47600000D03*
G04 #@! TD*
D43*
G04 #@! TO.C,U5*
X14400000Y31905000D03*
X14400000Y30635000D03*
X14400000Y29365000D03*
X14400000Y28095000D03*
X21600000Y28095000D03*
X21600000Y29365000D03*
X21600000Y30635000D03*
X21600000Y31905000D03*
G04 #@! TD*
D36*
G04 #@! TO.C,C37*
X29700000Y26125000D03*
X29700000Y27675000D03*
G04 #@! TD*
D29*
G04 #@! TO.C,R35*
X11740000Y29035000D03*
X12760000Y29035000D03*
G04 #@! TD*
D25*
G04 #@! TO.C,J10*
X1690000Y29260000D03*
D26*
X4230000Y29260000D03*
G04 #@! TD*
D44*
G04 #@! TO.C,U6*
X22562500Y23100000D03*
X22562500Y22700000D03*
X22562500Y22300000D03*
X22562500Y21900000D03*
X22562500Y21500000D03*
X22562500Y21100000D03*
X22562500Y20700000D03*
X22562500Y20300000D03*
X22562500Y19900000D03*
X22562500Y19500000D03*
X22562500Y19100000D03*
X22562500Y18700000D03*
X22562500Y18300000D03*
X22562500Y17900000D03*
D45*
X23400000Y17062500D03*
X23800000Y17062500D03*
X24200000Y17062500D03*
X24600000Y17062500D03*
X25000000Y17062500D03*
X25400000Y17062500D03*
X25800000Y17062500D03*
X26200000Y17062500D03*
X26600000Y17062500D03*
X27000000Y17062500D03*
X27400000Y17062500D03*
X27800000Y17062500D03*
X28200000Y17062500D03*
X28600000Y17062500D03*
D44*
X29437500Y17900000D03*
X29437500Y18300000D03*
X29437500Y18700000D03*
X29437500Y19100000D03*
X29437500Y19500000D03*
X29437500Y19900000D03*
X29437500Y20300000D03*
X29437500Y20700000D03*
X29437500Y21100000D03*
X29437500Y21500000D03*
X29437500Y21900000D03*
X29437500Y22300000D03*
X29437500Y22700000D03*
X29437500Y23100000D03*
D45*
X28600000Y23937500D03*
X28200000Y23937500D03*
X27800000Y23937500D03*
X27400000Y23937500D03*
X27000000Y23937500D03*
X26600000Y23937500D03*
X26200000Y23937500D03*
X25800000Y23937500D03*
X25400000Y23937500D03*
X25000000Y23937500D03*
X24600000Y23937500D03*
X24200000Y23937500D03*
X23800000Y23937500D03*
X23400000Y23937500D03*
D46*
X26000000Y20500000D03*
G04 #@! TD*
D32*
G04 #@! TO.C,C33*
X31100000Y25920000D03*
X31100000Y26880000D03*
G04 #@! TD*
D20*
G04 #@! TO.C,R27*
X95765000Y19291430D03*
X94745000Y19291430D03*
G04 #@! TD*
D16*
G04 #@! TO.C,C20*
X68195000Y55500000D03*
X69155000Y55500000D03*
G04 #@! TD*
D27*
G04 #@! TO.C,J17*
X41700000Y3000000D03*
D26*
X39160000Y3000000D03*
X36620000Y3000000D03*
G04 #@! TD*
D13*
G04 #@! TO.C,C9*
X49150000Y9900000D03*
X47600000Y9900000D03*
G04 #@! TD*
D47*
G04 #@! TO.C,F1*
X19627500Y67302500D03*
X17752500Y67302500D03*
G04 #@! TD*
D25*
G04 #@! TO.C,J9*
X95000000Y79000000D03*
D26*
X92460000Y79000000D03*
X89920000Y79000000D03*
X87380000Y79000000D03*
X84840000Y79000000D03*
X82300000Y79000000D03*
X79760000Y79000000D03*
X77220000Y79000000D03*
X74680000Y79000000D03*
X72140000Y79000000D03*
X69600000Y79000000D03*
X67060000Y79000000D03*
X64520000Y79000000D03*
X61980000Y79000000D03*
X59440000Y79000000D03*
X56900000Y79000000D03*
X54360000Y79000000D03*
X51820000Y79000000D03*
X49280000Y79000000D03*
X46740000Y79000000D03*
X44200000Y79000000D03*
X41660000Y79000000D03*
X39120000Y79000000D03*
X36580000Y79000000D03*
G04 #@! TD*
D16*
G04 #@! TO.C,C12*
X15020000Y80200000D03*
X15980000Y80200000D03*
G04 #@! TD*
D29*
G04 #@! TO.C,R40*
X11740000Y30335000D03*
X12760000Y30335000D03*
G04 #@! TD*
D14*
G04 #@! TO.C,R37*
X25900000Y13990000D03*
X25900000Y15010000D03*
G04 #@! TD*
D16*
G04 #@! TO.C,C26*
X68195000Y23500000D03*
X69155000Y23500000D03*
G04 #@! TD*
G04 #@! TO.C,C19*
X68195000Y69500000D03*
X69155000Y69500000D03*
G04 #@! TD*
D48*
G04 #@! TO.C,X1*
X88125000Y66975000D03*
X88125000Y68825000D03*
X86675000Y68825000D03*
X86675000Y66975000D03*
G04 #@! TD*
D13*
G04 #@! TO.C,C15*
X71225000Y8900000D03*
X69675000Y8900000D03*
G04 #@! TD*
D49*
G04 #@! TO.C,SW3*
X1650000Y52900000D03*
X8150000Y52900000D03*
G04 #@! TD*
D50*
G04 #@! TO.C,R16*
X37200000Y74875000D03*
X37200000Y76525000D03*
G04 #@! TD*
D34*
G04 #@! TO.C,C17*
X65400000Y14760000D03*
X66950000Y14760000D03*
G04 #@! TD*
D51*
G04 #@! TO.C,U4*
X11725000Y18137500D03*
X12375000Y18137500D03*
X13025000Y18137500D03*
X13675000Y18137500D03*
X14325000Y18137500D03*
X14975000Y18137500D03*
X15625000Y18137500D03*
X16275000Y18137500D03*
X16275000Y23862500D03*
X15625000Y23862500D03*
X14975000Y23862500D03*
X14325000Y23862500D03*
X13675000Y23862500D03*
X13025000Y23862500D03*
X12375000Y23862500D03*
X11725000Y23862500D03*
G04 #@! TD*
D37*
G04 #@! TO.C,SW1*
X44750000Y10000000D03*
X38250000Y10000000D03*
G04 #@! TD*
D36*
G04 #@! TO.C,C3*
X35700000Y74925000D03*
X35700000Y76475000D03*
G04 #@! TD*
D19*
G04 #@! TO.C,FID2*
X8700000Y78500000D03*
G04 #@! TD*
D14*
G04 #@! TO.C,R17*
X94550000Y70790000D03*
X94550000Y71810000D03*
G04 #@! TD*
D16*
G04 #@! TO.C,C34*
X31570000Y23900000D03*
X32530000Y23900000D03*
G04 #@! TD*
D10*
G04 #@! TO.C,JP5*
X99900000Y21780000D03*
D11*
X99050000Y21780000D03*
D12*
X97750000Y21780000D03*
D10*
X96900000Y21780000D03*
G04 #@! TD*
D20*
G04 #@! TO.C,R31*
X37510000Y64600000D03*
X36490000Y64600000D03*
G04 #@! TD*
D52*
G04 #@! TO.C,U3*
X21050000Y77637500D03*
X20100000Y77637500D03*
X19150000Y77637500D03*
X19150000Y75362500D03*
X21050000Y75362500D03*
G04 #@! TD*
D30*
G04 #@! TO.C,C60*
X8400000Y47030000D03*
X8400000Y46070000D03*
G04 #@! TD*
D53*
G04 #@! TO.C,U2*
X12350000Y69850000D03*
X14650000Y69850000D03*
D54*
X14650000Y76150000D03*
D53*
X16950000Y69850000D03*
G04 #@! TD*
D20*
G04 #@! TO.C,R25*
X95765000Y24302858D03*
X94745000Y24302858D03*
G04 #@! TD*
D25*
G04 #@! TO.C,J14*
X4500000Y57300000D03*
D26*
X4500000Y59840000D03*
X4500000Y62380000D03*
X4500000Y64920000D03*
X4500000Y67460000D03*
D27*
X4500000Y70000000D03*
D26*
X1960000Y57300000D03*
X1960000Y59840000D03*
X1960000Y62380000D03*
X1960000Y64920000D03*
X1960000Y67460000D03*
X1960000Y70000000D03*
G04 #@! TD*
D19*
G04 #@! TO.C,FID1*
X1500000Y8500000D03*
G04 #@! TD*
D20*
G04 #@! TO.C,R29*
X95765000Y14280000D03*
X94745000Y14280000D03*
G04 #@! TD*
D36*
G04 #@! TO.C,C61*
X7150000Y45425000D03*
X7150000Y46975000D03*
G04 #@! TD*
D20*
G04 #@! TO.C,R47*
X93810000Y46600000D03*
X92790000Y46600000D03*
G04 #@! TD*
D29*
G04 #@! TO.C,R6*
X14390000Y54814286D03*
X15410000Y54814286D03*
G04 #@! TD*
D10*
G04 #@! TO.C,JP6*
X99900000Y19280000D03*
D11*
X99050000Y19280000D03*
D12*
X97750000Y19280000D03*
D10*
X96900000Y19280000D03*
G04 #@! TD*
D13*
G04 #@! TO.C,C11*
X20925000Y73600000D03*
X19375000Y73600000D03*
G04 #@! TD*
D55*
G04 #@! TO.C,J4*
X41395000Y72030000D03*
X46445000Y72030000D03*
X41395000Y69490000D03*
X46445000Y69490000D03*
X41395000Y66950000D03*
X46445000Y66950000D03*
X41395000Y64410000D03*
X46445000Y64410000D03*
X41395000Y61870000D03*
X46445000Y61870000D03*
X41395000Y59330000D03*
X46445000Y59330000D03*
X41395000Y56790000D03*
X46445000Y56790000D03*
X41395000Y54250000D03*
X46445000Y54250000D03*
X41395000Y51710000D03*
X46445000Y51710000D03*
X41395000Y49170000D03*
X46445000Y49170000D03*
X41395000Y46630000D03*
X46445000Y46630000D03*
X41395000Y44090000D03*
X46445000Y44090000D03*
X41395000Y41550000D03*
X46445000Y41550000D03*
X41395000Y39010000D03*
X46445000Y39010000D03*
X41395000Y36470000D03*
X46445000Y36470000D03*
X41395000Y33930000D03*
X46445000Y33930000D03*
X41395000Y31390000D03*
X46445000Y31390000D03*
X41395000Y28850000D03*
X46445000Y28850000D03*
X41395000Y26310000D03*
X46445000Y26310000D03*
X41395000Y23770000D03*
X46445000Y23770000D03*
X77395000Y72030000D03*
X82445000Y72030000D03*
X77395000Y69490000D03*
X82445000Y69490000D03*
X77395000Y66950000D03*
X82445000Y66950000D03*
X77395000Y64410000D03*
X82445000Y64410000D03*
X77395000Y61870000D03*
X82445000Y61870000D03*
X77395000Y59330000D03*
X82445000Y59330000D03*
X77395000Y56790000D03*
X82445000Y56790000D03*
X77395000Y54250000D03*
X82445000Y54250000D03*
X77395000Y51710000D03*
X82445000Y51710000D03*
X77395000Y49170000D03*
X82445000Y49170000D03*
X77395000Y46630000D03*
X82445000Y46630000D03*
X77395000Y44090000D03*
X82445000Y44090000D03*
X77395000Y41550000D03*
X82445000Y41550000D03*
X77395000Y39010000D03*
X82445000Y39010000D03*
X77395000Y36470000D03*
X82445000Y36470000D03*
X77395000Y33930000D03*
X82445000Y33930000D03*
X77395000Y31390000D03*
X82445000Y31390000D03*
X77395000Y28850000D03*
X82445000Y28850000D03*
X77395000Y26310000D03*
X82445000Y26310000D03*
X77395000Y23770000D03*
X82445000Y23770000D03*
G04 #@! TD*
D35*
G04 #@! TO.C,C43*
X95280000Y48800000D03*
X94320000Y48800000D03*
G04 #@! TD*
D25*
G04 #@! TO.C,J1*
X95000000Y3000000D03*
D26*
X92460000Y3000000D03*
X89920000Y3000000D03*
X87380000Y3000000D03*
X84840000Y3000000D03*
X82300000Y3000000D03*
G04 #@! TD*
D29*
G04 #@! TO.C,R10*
X14390000Y57357143D03*
X15410000Y57357143D03*
G04 #@! TD*
D56*
G04 #@! TO.C,D2*
X95800000Y70212500D03*
X95800000Y71787500D03*
G04 #@! TD*
D29*
G04 #@! TO.C,R30*
X36490000Y68900000D03*
X37510000Y68900000D03*
G04 #@! TD*
D20*
G04 #@! TO.C,R44*
X93810000Y60600000D03*
X92790000Y60600000D03*
G04 #@! TD*
G04 #@! TO.C,R26*
X95765000Y21797144D03*
X94745000Y21797144D03*
G04 #@! TD*
D32*
G04 #@! TO.C,C41*
X25800000Y26070000D03*
X25800000Y27030000D03*
G04 #@! TD*
D35*
G04 #@! TO.C,C13*
X21080000Y72100000D03*
X20120000Y72100000D03*
G04 #@! TD*
D20*
G04 #@! TO.C,R48*
X91810000Y47600000D03*
X90790000Y47600000D03*
G04 #@! TD*
D25*
G04 #@! TO.C,J6*
X79765000Y5545000D03*
D26*
X77225000Y5545000D03*
X74685000Y5545000D03*
X72145000Y5545000D03*
X69605000Y5545000D03*
D27*
X67065000Y5545000D03*
D26*
X79765000Y3005000D03*
X77225000Y3005000D03*
X74685000Y3005000D03*
X72145000Y3005000D03*
X69605000Y3005000D03*
X67065000Y3005000D03*
G04 #@! TD*
D10*
G04 #@! TO.C,JP4*
X99900000Y24280000D03*
D11*
X99050000Y24280000D03*
D12*
X97750000Y24280000D03*
D10*
X96900000Y24280000D03*
G04 #@! TD*
D36*
G04 #@! TO.C,C57*
X7200000Y22325000D03*
X7200000Y23875000D03*
G04 #@! TD*
D16*
G04 #@! TO.C,C14*
X69620000Y10200000D03*
X70580000Y10200000D03*
G04 #@! TD*
D56*
G04 #@! TO.C,D3*
X91700000Y70212500D03*
X91700000Y71787500D03*
G04 #@! TD*
D20*
G04 #@! TO.C,R34*
X24410000Y29450000D03*
X23390000Y29450000D03*
G04 #@! TD*
D29*
G04 #@! TO.C,R9*
X6990000Y49500000D03*
X8010000Y49500000D03*
G04 #@! TD*
D20*
G04 #@! TO.C,R46*
X91810000Y46600000D03*
X90790000Y46600000D03*
G04 #@! TD*
D17*
G04 #@! TO.C,R33*
X10500000Y23810000D03*
X10500000Y22790000D03*
G04 #@! TD*
D56*
G04 #@! TO.C,D1*
X100800000Y70212500D03*
X100800000Y71787500D03*
G04 #@! TD*
D57*
G04 #@! TO.C,TP1*
X85300000Y71000000D03*
G04 #@! TD*
D20*
G04 #@! TO.C,R39*
X24410000Y27700000D03*
X23390000Y27700000D03*
G04 #@! TD*
D58*
G04 #@! TO.C,C10*
X15000000Y78540000D03*
X16900000Y78540000D03*
G04 #@! TD*
D59*
G04 #@! TO.C,D4*
X91712500Y63500000D03*
X93287500Y63500000D03*
G04 #@! TD*
D29*
G04 #@! TO.C,R32*
X36490000Y63300000D03*
X37510000Y63300000D03*
G04 #@! TD*
D18*
G04 #@! TO.C,MT1*
X3750000Y3750000D03*
G04 #@! TD*
D29*
G04 #@! TO.C,R4*
X14390000Y49728572D03*
X15410000Y49728572D03*
G04 #@! TD*
D16*
G04 #@! TO.C,C40*
X27170000Y15200000D03*
X28130000Y15200000D03*
G04 #@! TD*
D36*
G04 #@! TO.C,C1*
X44000000Y13125000D03*
X44000000Y14675000D03*
G04 #@! TD*
D14*
G04 #@! TO.C,R36*
X6600000Y27890000D03*
X6600000Y28910000D03*
G04 #@! TD*
D36*
G04 #@! TO.C,C59*
X7200000Y68325000D03*
X7200000Y69875000D03*
G04 #@! TD*
D16*
G04 #@! TO.C,C31*
X21070000Y33400000D03*
X22030000Y33400000D03*
G04 #@! TD*
G04 #@! TO.C,C22*
X68195000Y31540000D03*
X69155000Y31540000D03*
G04 #@! TD*
D29*
G04 #@! TO.C,R14*
X1090000Y49500000D03*
X2110000Y49500000D03*
G04 #@! TD*
M02*
