G04 #@! TF.GenerationSoftware,KiCad,Pcbnew,7.0.9-7.0.9~ubuntu22.04.1*
G04 #@! TF.CreationDate,2023-12-15T15:20:45-05:00*
G04 #@! TF.ProjectId,tinytapeout-demo,74696e79-7461-4706-956f-75742d64656d,0.9.4*
G04 #@! TF.SameCoordinates,PX35e1f20PY8044ea0*
G04 #@! TF.FileFunction,Other,User*
%FSLAX46Y46*%
G04 Gerber Fmt 4.6, Leading zero omitted, Abs format (unit mm)*
G04 Created by KiCad (PCBNEW 7.0.9-7.0.9~ubuntu22.04.1) date 2023-12-15 15:20:45*
%MOMM*%
%LPD*%
G01*
G04 APERTURE LIST*
%ADD10C,0.150000*%
G04 APERTURE END LIST*
D10*
X47726190Y89345181D02*
X47154762Y89345181D01*
X47440476Y89345181D02*
X47440476Y90345181D01*
X47440476Y90345181D02*
X47345238Y90202324D01*
X47345238Y90202324D02*
X47250000Y90107086D01*
X47250000Y90107086D02*
X47154762Y90059467D01*
X48345238Y90345181D02*
X48440476Y90345181D01*
X48440476Y90345181D02*
X48535714Y90297562D01*
X48535714Y90297562D02*
X48583333Y90249943D01*
X48583333Y90249943D02*
X48630952Y90154705D01*
X48630952Y90154705D02*
X48678571Y89964229D01*
X48678571Y89964229D02*
X48678571Y89726134D01*
X48678571Y89726134D02*
X48630952Y89535658D01*
X48630952Y89535658D02*
X48583333Y89440420D01*
X48583333Y89440420D02*
X48535714Y89392800D01*
X48535714Y89392800D02*
X48440476Y89345181D01*
X48440476Y89345181D02*
X48345238Y89345181D01*
X48345238Y89345181D02*
X48250000Y89392800D01*
X48250000Y89392800D02*
X48202381Y89440420D01*
X48202381Y89440420D02*
X48154762Y89535658D01*
X48154762Y89535658D02*
X48107143Y89726134D01*
X48107143Y89726134D02*
X48107143Y89964229D01*
X48107143Y89964229D02*
X48154762Y90154705D01*
X48154762Y90154705D02*
X48202381Y90249943D01*
X48202381Y90249943D02*
X48250000Y90297562D01*
X48250000Y90297562D02*
X48345238Y90345181D01*
X49535714Y90011848D02*
X49535714Y89345181D01*
X49297619Y90392800D02*
X49059524Y89678515D01*
X49059524Y89678515D02*
X49678571Y89678515D01*
X50059524Y89440420D02*
X50107143Y89392800D01*
X50107143Y89392800D02*
X50059524Y89345181D01*
X50059524Y89345181D02*
X50011905Y89392800D01*
X50011905Y89392800D02*
X50059524Y89440420D01*
X50059524Y89440420D02*
X50059524Y89345181D01*
X51011904Y90345181D02*
X50535714Y90345181D01*
X50535714Y90345181D02*
X50488095Y89868991D01*
X50488095Y89868991D02*
X50535714Y89916610D01*
X50535714Y89916610D02*
X50630952Y89964229D01*
X50630952Y89964229D02*
X50869047Y89964229D01*
X50869047Y89964229D02*
X50964285Y89916610D01*
X50964285Y89916610D02*
X51011904Y89868991D01*
X51011904Y89868991D02*
X51059523Y89773753D01*
X51059523Y89773753D02*
X51059523Y89535658D01*
X51059523Y89535658D02*
X51011904Y89440420D01*
X51011904Y89440420D02*
X50964285Y89392800D01*
X50964285Y89392800D02*
X50869047Y89345181D01*
X50869047Y89345181D02*
X50630952Y89345181D01*
X50630952Y89345181D02*
X50535714Y89392800D01*
X50535714Y89392800D02*
X50488095Y89440420D01*
X51678571Y90345181D02*
X51773809Y90345181D01*
X51773809Y90345181D02*
X51869047Y90297562D01*
X51869047Y90297562D02*
X51916666Y90249943D01*
X51916666Y90249943D02*
X51964285Y90154705D01*
X51964285Y90154705D02*
X52011904Y89964229D01*
X52011904Y89964229D02*
X52011904Y89726134D01*
X52011904Y89726134D02*
X51964285Y89535658D01*
X51964285Y89535658D02*
X51916666Y89440420D01*
X51916666Y89440420D02*
X51869047Y89392800D01*
X51869047Y89392800D02*
X51773809Y89345181D01*
X51773809Y89345181D02*
X51678571Y89345181D01*
X51678571Y89345181D02*
X51583333Y89392800D01*
X51583333Y89392800D02*
X51535714Y89440420D01*
X51535714Y89440420D02*
X51488095Y89535658D01*
X51488095Y89535658D02*
X51440476Y89726134D01*
X51440476Y89726134D02*
X51440476Y89964229D01*
X51440476Y89964229D02*
X51488095Y90154705D01*
X51488095Y90154705D02*
X51535714Y90249943D01*
X51535714Y90249943D02*
X51583333Y90297562D01*
X51583333Y90297562D02*
X51678571Y90345181D01*
X52630952Y90345181D02*
X52726190Y90345181D01*
X52726190Y90345181D02*
X52821428Y90297562D01*
X52821428Y90297562D02*
X52869047Y90249943D01*
X52869047Y90249943D02*
X52916666Y90154705D01*
X52916666Y90154705D02*
X52964285Y89964229D01*
X52964285Y89964229D02*
X52964285Y89726134D01*
X52964285Y89726134D02*
X52916666Y89535658D01*
X52916666Y89535658D02*
X52869047Y89440420D01*
X52869047Y89440420D02*
X52821428Y89392800D01*
X52821428Y89392800D02*
X52726190Y89345181D01*
X52726190Y89345181D02*
X52630952Y89345181D01*
X52630952Y89345181D02*
X52535714Y89392800D01*
X52535714Y89392800D02*
X52488095Y89440420D01*
X52488095Y89440420D02*
X52440476Y89535658D01*
X52440476Y89535658D02*
X52392857Y89726134D01*
X52392857Y89726134D02*
X52392857Y89964229D01*
X52392857Y89964229D02*
X52440476Y90154705D01*
X52440476Y90154705D02*
X52488095Y90249943D01*
X52488095Y90249943D02*
X52535714Y90297562D01*
X52535714Y90297562D02*
X52630952Y90345181D01*
X53583333Y90345181D02*
X53678571Y90345181D01*
X53678571Y90345181D02*
X53773809Y90297562D01*
X53773809Y90297562D02*
X53821428Y90249943D01*
X53821428Y90249943D02*
X53869047Y90154705D01*
X53869047Y90154705D02*
X53916666Y89964229D01*
X53916666Y89964229D02*
X53916666Y89726134D01*
X53916666Y89726134D02*
X53869047Y89535658D01*
X53869047Y89535658D02*
X53821428Y89440420D01*
X53821428Y89440420D02*
X53773809Y89392800D01*
X53773809Y89392800D02*
X53678571Y89345181D01*
X53678571Y89345181D02*
X53583333Y89345181D01*
X53583333Y89345181D02*
X53488095Y89392800D01*
X53488095Y89392800D02*
X53440476Y89440420D01*
X53440476Y89440420D02*
X53392857Y89535658D01*
X53392857Y89535658D02*
X53345238Y89726134D01*
X53345238Y89726134D02*
X53345238Y89964229D01*
X53345238Y89964229D02*
X53392857Y90154705D01*
X53392857Y90154705D02*
X53440476Y90249943D01*
X53440476Y90249943D02*
X53488095Y90297562D01*
X53488095Y90297562D02*
X53583333Y90345181D01*
X55107143Y89345181D02*
X55107143Y90011848D01*
X55107143Y89916610D02*
X55154762Y89964229D01*
X55154762Y89964229D02*
X55250000Y90011848D01*
X55250000Y90011848D02*
X55392857Y90011848D01*
X55392857Y90011848D02*
X55488095Y89964229D01*
X55488095Y89964229D02*
X55535714Y89868991D01*
X55535714Y89868991D02*
X55535714Y89345181D01*
X55535714Y89868991D02*
X55583333Y89964229D01*
X55583333Y89964229D02*
X55678571Y90011848D01*
X55678571Y90011848D02*
X55821428Y90011848D01*
X55821428Y90011848D02*
X55916667Y89964229D01*
X55916667Y89964229D02*
X55964286Y89868991D01*
X55964286Y89868991D02*
X55964286Y89345181D01*
X56440476Y89345181D02*
X56440476Y90011848D01*
X56440476Y89916610D02*
X56488095Y89964229D01*
X56488095Y89964229D02*
X56583333Y90011848D01*
X56583333Y90011848D02*
X56726190Y90011848D01*
X56726190Y90011848D02*
X56821428Y89964229D01*
X56821428Y89964229D02*
X56869047Y89868991D01*
X56869047Y89868991D02*
X56869047Y89345181D01*
X56869047Y89868991D02*
X56916666Y89964229D01*
X56916666Y89964229D02*
X57011904Y90011848D01*
X57011904Y90011848D02*
X57154761Y90011848D01*
X57154761Y90011848D02*
X57250000Y89964229D01*
X57250000Y89964229D02*
X57297619Y89868991D01*
X57297619Y89868991D02*
X57297619Y89345181D01*
X104500000Y78500000D02*
X104500000Y89236420D01*
X0Y78500000D02*
X0Y89236420D01*
X104500000Y88650000D02*
X0Y88650000D01*
X104500000Y88650000D02*
X0Y88650000D01*
X104500000Y88650000D02*
X103373496Y88063579D01*
X104500000Y88650000D02*
X103373496Y89236421D01*
X0Y88650000D02*
X1126504Y89236421D01*
X0Y88650000D02*
X1126504Y88063579D01*
X115083390Y36071430D02*
X115035771Y35976192D01*
X115035771Y35976192D02*
X114988152Y35928573D01*
X114988152Y35928573D02*
X114892914Y35880954D01*
X114892914Y35880954D02*
X114845295Y35880954D01*
X114845295Y35880954D02*
X114750057Y35928573D01*
X114750057Y35928573D02*
X114702438Y35976192D01*
X114702438Y35976192D02*
X114654819Y36071430D01*
X114654819Y36071430D02*
X114654819Y36261906D01*
X114654819Y36261906D02*
X114702438Y36357144D01*
X114702438Y36357144D02*
X114750057Y36404763D01*
X114750057Y36404763D02*
X114845295Y36452382D01*
X114845295Y36452382D02*
X114892914Y36452382D01*
X114892914Y36452382D02*
X114988152Y36404763D01*
X114988152Y36404763D02*
X115035771Y36357144D01*
X115035771Y36357144D02*
X115083390Y36261906D01*
X115083390Y36261906D02*
X115083390Y36071430D01*
X115083390Y36071430D02*
X115131009Y35976192D01*
X115131009Y35976192D02*
X115178628Y35928573D01*
X115178628Y35928573D02*
X115273866Y35880954D01*
X115273866Y35880954D02*
X115464342Y35880954D01*
X115464342Y35880954D02*
X115559580Y35928573D01*
X115559580Y35928573D02*
X115607200Y35976192D01*
X115607200Y35976192D02*
X115654819Y36071430D01*
X115654819Y36071430D02*
X115654819Y36261906D01*
X115654819Y36261906D02*
X115607200Y36357144D01*
X115607200Y36357144D02*
X115559580Y36404763D01*
X115559580Y36404763D02*
X115464342Y36452382D01*
X115464342Y36452382D02*
X115273866Y36452382D01*
X115273866Y36452382D02*
X115178628Y36404763D01*
X115178628Y36404763D02*
X115131009Y36357144D01*
X115131009Y36357144D02*
X115083390Y36261906D01*
X115654819Y37404763D02*
X115654819Y36833335D01*
X115654819Y37119049D02*
X114654819Y37119049D01*
X114654819Y37119049D02*
X114797676Y37023811D01*
X114797676Y37023811D02*
X114892914Y36928573D01*
X114892914Y36928573D02*
X114940533Y36833335D01*
X115559580Y37833335D02*
X115607200Y37880954D01*
X115607200Y37880954D02*
X115654819Y37833335D01*
X115654819Y37833335D02*
X115607200Y37785716D01*
X115607200Y37785716D02*
X115559580Y37833335D01*
X115559580Y37833335D02*
X115654819Y37833335D01*
X114654819Y38500001D02*
X114654819Y38595239D01*
X114654819Y38595239D02*
X114702438Y38690477D01*
X114702438Y38690477D02*
X114750057Y38738096D01*
X114750057Y38738096D02*
X114845295Y38785715D01*
X114845295Y38785715D02*
X115035771Y38833334D01*
X115035771Y38833334D02*
X115273866Y38833334D01*
X115273866Y38833334D02*
X115464342Y38785715D01*
X115464342Y38785715D02*
X115559580Y38738096D01*
X115559580Y38738096D02*
X115607200Y38690477D01*
X115607200Y38690477D02*
X115654819Y38595239D01*
X115654819Y38595239D02*
X115654819Y38500001D01*
X115654819Y38500001D02*
X115607200Y38404763D01*
X115607200Y38404763D02*
X115559580Y38357144D01*
X115559580Y38357144D02*
X115464342Y38309525D01*
X115464342Y38309525D02*
X115273866Y38261906D01*
X115273866Y38261906D02*
X115035771Y38261906D01*
X115035771Y38261906D02*
X114845295Y38309525D01*
X114845295Y38309525D02*
X114750057Y38357144D01*
X114750057Y38357144D02*
X114702438Y38404763D01*
X114702438Y38404763D02*
X114654819Y38500001D01*
X114654819Y39452382D02*
X114654819Y39547620D01*
X114654819Y39547620D02*
X114702438Y39642858D01*
X114702438Y39642858D02*
X114750057Y39690477D01*
X114750057Y39690477D02*
X114845295Y39738096D01*
X114845295Y39738096D02*
X115035771Y39785715D01*
X115035771Y39785715D02*
X115273866Y39785715D01*
X115273866Y39785715D02*
X115464342Y39738096D01*
X115464342Y39738096D02*
X115559580Y39690477D01*
X115559580Y39690477D02*
X115607200Y39642858D01*
X115607200Y39642858D02*
X115654819Y39547620D01*
X115654819Y39547620D02*
X115654819Y39452382D01*
X115654819Y39452382D02*
X115607200Y39357144D01*
X115607200Y39357144D02*
X115559580Y39309525D01*
X115559580Y39309525D02*
X115464342Y39261906D01*
X115464342Y39261906D02*
X115273866Y39214287D01*
X115273866Y39214287D02*
X115035771Y39214287D01*
X115035771Y39214287D02*
X114845295Y39261906D01*
X114845295Y39261906D02*
X114750057Y39309525D01*
X114750057Y39309525D02*
X114702438Y39357144D01*
X114702438Y39357144D02*
X114654819Y39452382D01*
X114654819Y40404763D02*
X114654819Y40500001D01*
X114654819Y40500001D02*
X114702438Y40595239D01*
X114702438Y40595239D02*
X114750057Y40642858D01*
X114750057Y40642858D02*
X114845295Y40690477D01*
X114845295Y40690477D02*
X115035771Y40738096D01*
X115035771Y40738096D02*
X115273866Y40738096D01*
X115273866Y40738096D02*
X115464342Y40690477D01*
X115464342Y40690477D02*
X115559580Y40642858D01*
X115559580Y40642858D02*
X115607200Y40595239D01*
X115607200Y40595239D02*
X115654819Y40500001D01*
X115654819Y40500001D02*
X115654819Y40404763D01*
X115654819Y40404763D02*
X115607200Y40309525D01*
X115607200Y40309525D02*
X115559580Y40261906D01*
X115559580Y40261906D02*
X115464342Y40214287D01*
X115464342Y40214287D02*
X115273866Y40166668D01*
X115273866Y40166668D02*
X115035771Y40166668D01*
X115035771Y40166668D02*
X114845295Y40214287D01*
X114845295Y40214287D02*
X114750057Y40261906D01*
X114750057Y40261906D02*
X114702438Y40309525D01*
X114702438Y40309525D02*
X114654819Y40404763D01*
X114654819Y41357144D02*
X114654819Y41452382D01*
X114654819Y41452382D02*
X114702438Y41547620D01*
X114702438Y41547620D02*
X114750057Y41595239D01*
X114750057Y41595239D02*
X114845295Y41642858D01*
X114845295Y41642858D02*
X115035771Y41690477D01*
X115035771Y41690477D02*
X115273866Y41690477D01*
X115273866Y41690477D02*
X115464342Y41642858D01*
X115464342Y41642858D02*
X115559580Y41595239D01*
X115559580Y41595239D02*
X115607200Y41547620D01*
X115607200Y41547620D02*
X115654819Y41452382D01*
X115654819Y41452382D02*
X115654819Y41357144D01*
X115654819Y41357144D02*
X115607200Y41261906D01*
X115607200Y41261906D02*
X115559580Y41214287D01*
X115559580Y41214287D02*
X115464342Y41166668D01*
X115464342Y41166668D02*
X115273866Y41119049D01*
X115273866Y41119049D02*
X115035771Y41119049D01*
X115035771Y41119049D02*
X114845295Y41166668D01*
X114845295Y41166668D02*
X114750057Y41214287D01*
X114750057Y41214287D02*
X114702438Y41261906D01*
X114702438Y41261906D02*
X114654819Y41357144D01*
X115654819Y42880954D02*
X114988152Y42880954D01*
X115083390Y42880954D02*
X115035771Y42928573D01*
X115035771Y42928573D02*
X114988152Y43023811D01*
X114988152Y43023811D02*
X114988152Y43166668D01*
X114988152Y43166668D02*
X115035771Y43261906D01*
X115035771Y43261906D02*
X115131009Y43309525D01*
X115131009Y43309525D02*
X115654819Y43309525D01*
X115131009Y43309525D02*
X115035771Y43357144D01*
X115035771Y43357144D02*
X114988152Y43452382D01*
X114988152Y43452382D02*
X114988152Y43595239D01*
X114988152Y43595239D02*
X115035771Y43690478D01*
X115035771Y43690478D02*
X115131009Y43738097D01*
X115131009Y43738097D02*
X115654819Y43738097D01*
X115654819Y44214287D02*
X114988152Y44214287D01*
X115083390Y44214287D02*
X115035771Y44261906D01*
X115035771Y44261906D02*
X114988152Y44357144D01*
X114988152Y44357144D02*
X114988152Y44500001D01*
X114988152Y44500001D02*
X115035771Y44595239D01*
X115035771Y44595239D02*
X115131009Y44642858D01*
X115131009Y44642858D02*
X115654819Y44642858D01*
X115131009Y44642858D02*
X115035771Y44690477D01*
X115035771Y44690477D02*
X114988152Y44785715D01*
X114988152Y44785715D02*
X114988152Y44928572D01*
X114988152Y44928572D02*
X115035771Y45023811D01*
X115035771Y45023811D02*
X115131009Y45071430D01*
X115131009Y45071430D02*
X115654819Y45071430D01*
X102000000Y0D02*
X116936420Y0D01*
X102000000Y81000000D02*
X116936420Y81000000D01*
X116350000Y0D02*
X116350000Y81000000D01*
X116350000Y0D02*
X116350000Y81000000D01*
X116350000Y0D02*
X115763579Y1126504D01*
X116350000Y0D02*
X116936421Y1126504D01*
X116350000Y81000000D02*
X116936421Y79873496D01*
X116350000Y81000000D02*
X115763579Y79873496D01*
X-7495181Y-1363094D02*
X-7495181Y-744047D01*
X-7495181Y-744047D02*
X-7114229Y-1077380D01*
X-7114229Y-1077380D02*
X-7114229Y-934523D01*
X-7114229Y-934523D02*
X-7066610Y-839285D01*
X-7066610Y-839285D02*
X-7018991Y-791666D01*
X-7018991Y-791666D02*
X-6923753Y-744047D01*
X-6923753Y-744047D02*
X-6685658Y-744047D01*
X-6685658Y-744047D02*
X-6590420Y-791666D01*
X-6590420Y-791666D02*
X-6542800Y-839285D01*
X-6542800Y-839285D02*
X-6495181Y-934523D01*
X-6495181Y-934523D02*
X-6495181Y-1220237D01*
X-6495181Y-1220237D02*
X-6542800Y-1315475D01*
X-6542800Y-1315475D02*
X-6590420Y-1363094D01*
X-6590420Y-315475D02*
X-6542800Y-267856D01*
X-6542800Y-267856D02*
X-6495181Y-315475D01*
X-6495181Y-315475D02*
X-6542800Y-363094D01*
X-6542800Y-363094D02*
X-6590420Y-315475D01*
X-6590420Y-315475D02*
X-6495181Y-315475D01*
X-7495181Y65477D02*
X-7495181Y732143D01*
X-7495181Y732143D02*
X-6495181Y303572D01*
X-7495181Y1589286D02*
X-7495181Y1113096D01*
X-7495181Y1113096D02*
X-7018991Y1065477D01*
X-7018991Y1065477D02*
X-7066610Y1113096D01*
X-7066610Y1113096D02*
X-7114229Y1208334D01*
X-7114229Y1208334D02*
X-7114229Y1446429D01*
X-7114229Y1446429D02*
X-7066610Y1541667D01*
X-7066610Y1541667D02*
X-7018991Y1589286D01*
X-7018991Y1589286D02*
X-6923753Y1636905D01*
X-6923753Y1636905D02*
X-6685658Y1636905D01*
X-6685658Y1636905D02*
X-6590420Y1589286D01*
X-6590420Y1589286D02*
X-6542800Y1541667D01*
X-6542800Y1541667D02*
X-6495181Y1446429D01*
X-6495181Y1446429D02*
X-6495181Y1208334D01*
X-6495181Y1208334D02*
X-6542800Y1113096D01*
X-6542800Y1113096D02*
X-6590420Y1065477D01*
X-6495181Y2827382D02*
X-7161848Y2827382D01*
X-7066610Y2827382D02*
X-7114229Y2875001D01*
X-7114229Y2875001D02*
X-7161848Y2970239D01*
X-7161848Y2970239D02*
X-7161848Y3113096D01*
X-7161848Y3113096D02*
X-7114229Y3208334D01*
X-7114229Y3208334D02*
X-7018991Y3255953D01*
X-7018991Y3255953D02*
X-6495181Y3255953D01*
X-7018991Y3255953D02*
X-7114229Y3303572D01*
X-7114229Y3303572D02*
X-7161848Y3398810D01*
X-7161848Y3398810D02*
X-7161848Y3541667D01*
X-7161848Y3541667D02*
X-7114229Y3636906D01*
X-7114229Y3636906D02*
X-7018991Y3684525D01*
X-7018991Y3684525D02*
X-6495181Y3684525D01*
X-6495181Y4160715D02*
X-7161848Y4160715D01*
X-7066610Y4160715D02*
X-7114229Y4208334D01*
X-7114229Y4208334D02*
X-7161848Y4303572D01*
X-7161848Y4303572D02*
X-7161848Y4446429D01*
X-7161848Y4446429D02*
X-7114229Y4541667D01*
X-7114229Y4541667D02*
X-7018991Y4589286D01*
X-7018991Y4589286D02*
X-6495181Y4589286D01*
X-7018991Y4589286D02*
X-7114229Y4636905D01*
X-7114229Y4636905D02*
X-7161848Y4732143D01*
X-7161848Y4732143D02*
X-7161848Y4875000D01*
X-7161848Y4875000D02*
X-7114229Y4970239D01*
X-7114229Y4970239D02*
X-7018991Y5017858D01*
X-7018991Y5017858D02*
X-6495181Y5017858D01*
X3250000Y3750000D02*
X-6386420Y3750000D01*
X3250000Y0D02*
X-6386420Y0D01*
X-5800000Y3750000D02*
X-5800000Y0D01*
X-5800000Y3750000D02*
X-5800000Y0D01*
X-5800000Y3750000D02*
X-5213579Y2623496D01*
X-5800000Y3750000D02*
X-6386421Y2623496D01*
X-5800000Y0D02*
X-6386421Y1126504D01*
X-5800000Y0D02*
X-5213579Y1126504D01*
X110004819Y35833335D02*
X110004819Y36500001D01*
X110004819Y36500001D02*
X111004819Y36071430D01*
X110004819Y36785716D02*
X110004819Y37404763D01*
X110004819Y37404763D02*
X110385771Y37071430D01*
X110385771Y37071430D02*
X110385771Y37214287D01*
X110385771Y37214287D02*
X110433390Y37309525D01*
X110433390Y37309525D02*
X110481009Y37357144D01*
X110481009Y37357144D02*
X110576247Y37404763D01*
X110576247Y37404763D02*
X110814342Y37404763D01*
X110814342Y37404763D02*
X110909580Y37357144D01*
X110909580Y37357144D02*
X110957200Y37309525D01*
X110957200Y37309525D02*
X111004819Y37214287D01*
X111004819Y37214287D02*
X111004819Y36928573D01*
X111004819Y36928573D02*
X110957200Y36833335D01*
X110957200Y36833335D02*
X110909580Y36785716D01*
X110909580Y37833335D02*
X110957200Y37880954D01*
X110957200Y37880954D02*
X111004819Y37833335D01*
X111004819Y37833335D02*
X110957200Y37785716D01*
X110957200Y37785716D02*
X110909580Y37833335D01*
X110909580Y37833335D02*
X111004819Y37833335D01*
X110004819Y38785715D02*
X110004819Y38309525D01*
X110004819Y38309525D02*
X110481009Y38261906D01*
X110481009Y38261906D02*
X110433390Y38309525D01*
X110433390Y38309525D02*
X110385771Y38404763D01*
X110385771Y38404763D02*
X110385771Y38642858D01*
X110385771Y38642858D02*
X110433390Y38738096D01*
X110433390Y38738096D02*
X110481009Y38785715D01*
X110481009Y38785715D02*
X110576247Y38833334D01*
X110576247Y38833334D02*
X110814342Y38833334D01*
X110814342Y38833334D02*
X110909580Y38785715D01*
X110909580Y38785715D02*
X110957200Y38738096D01*
X110957200Y38738096D02*
X111004819Y38642858D01*
X111004819Y38642858D02*
X111004819Y38404763D01*
X111004819Y38404763D02*
X110957200Y38309525D01*
X110957200Y38309525D02*
X110909580Y38261906D01*
X110004819Y39452382D02*
X110004819Y39547620D01*
X110004819Y39547620D02*
X110052438Y39642858D01*
X110052438Y39642858D02*
X110100057Y39690477D01*
X110100057Y39690477D02*
X110195295Y39738096D01*
X110195295Y39738096D02*
X110385771Y39785715D01*
X110385771Y39785715D02*
X110623866Y39785715D01*
X110623866Y39785715D02*
X110814342Y39738096D01*
X110814342Y39738096D02*
X110909580Y39690477D01*
X110909580Y39690477D02*
X110957200Y39642858D01*
X110957200Y39642858D02*
X111004819Y39547620D01*
X111004819Y39547620D02*
X111004819Y39452382D01*
X111004819Y39452382D02*
X110957200Y39357144D01*
X110957200Y39357144D02*
X110909580Y39309525D01*
X110909580Y39309525D02*
X110814342Y39261906D01*
X110814342Y39261906D02*
X110623866Y39214287D01*
X110623866Y39214287D02*
X110385771Y39214287D01*
X110385771Y39214287D02*
X110195295Y39261906D01*
X110195295Y39261906D02*
X110100057Y39309525D01*
X110100057Y39309525D02*
X110052438Y39357144D01*
X110052438Y39357144D02*
X110004819Y39452382D01*
X110004819Y40404763D02*
X110004819Y40500001D01*
X110004819Y40500001D02*
X110052438Y40595239D01*
X110052438Y40595239D02*
X110100057Y40642858D01*
X110100057Y40642858D02*
X110195295Y40690477D01*
X110195295Y40690477D02*
X110385771Y40738096D01*
X110385771Y40738096D02*
X110623866Y40738096D01*
X110623866Y40738096D02*
X110814342Y40690477D01*
X110814342Y40690477D02*
X110909580Y40642858D01*
X110909580Y40642858D02*
X110957200Y40595239D01*
X110957200Y40595239D02*
X111004819Y40500001D01*
X111004819Y40500001D02*
X111004819Y40404763D01*
X111004819Y40404763D02*
X110957200Y40309525D01*
X110957200Y40309525D02*
X110909580Y40261906D01*
X110909580Y40261906D02*
X110814342Y40214287D01*
X110814342Y40214287D02*
X110623866Y40166668D01*
X110623866Y40166668D02*
X110385771Y40166668D01*
X110385771Y40166668D02*
X110195295Y40214287D01*
X110195295Y40214287D02*
X110100057Y40261906D01*
X110100057Y40261906D02*
X110052438Y40309525D01*
X110052438Y40309525D02*
X110004819Y40404763D01*
X110004819Y41357144D02*
X110004819Y41452382D01*
X110004819Y41452382D02*
X110052438Y41547620D01*
X110052438Y41547620D02*
X110100057Y41595239D01*
X110100057Y41595239D02*
X110195295Y41642858D01*
X110195295Y41642858D02*
X110385771Y41690477D01*
X110385771Y41690477D02*
X110623866Y41690477D01*
X110623866Y41690477D02*
X110814342Y41642858D01*
X110814342Y41642858D02*
X110909580Y41595239D01*
X110909580Y41595239D02*
X110957200Y41547620D01*
X110957200Y41547620D02*
X111004819Y41452382D01*
X111004819Y41452382D02*
X111004819Y41357144D01*
X111004819Y41357144D02*
X110957200Y41261906D01*
X110957200Y41261906D02*
X110909580Y41214287D01*
X110909580Y41214287D02*
X110814342Y41166668D01*
X110814342Y41166668D02*
X110623866Y41119049D01*
X110623866Y41119049D02*
X110385771Y41119049D01*
X110385771Y41119049D02*
X110195295Y41166668D01*
X110195295Y41166668D02*
X110100057Y41214287D01*
X110100057Y41214287D02*
X110052438Y41261906D01*
X110052438Y41261906D02*
X110004819Y41357144D01*
X111004819Y42880954D02*
X110338152Y42880954D01*
X110433390Y42880954D02*
X110385771Y42928573D01*
X110385771Y42928573D02*
X110338152Y43023811D01*
X110338152Y43023811D02*
X110338152Y43166668D01*
X110338152Y43166668D02*
X110385771Y43261906D01*
X110385771Y43261906D02*
X110481009Y43309525D01*
X110481009Y43309525D02*
X111004819Y43309525D01*
X110481009Y43309525D02*
X110385771Y43357144D01*
X110385771Y43357144D02*
X110338152Y43452382D01*
X110338152Y43452382D02*
X110338152Y43595239D01*
X110338152Y43595239D02*
X110385771Y43690478D01*
X110385771Y43690478D02*
X110481009Y43738097D01*
X110481009Y43738097D02*
X111004819Y43738097D01*
X111004819Y44214287D02*
X110338152Y44214287D01*
X110433390Y44214287D02*
X110385771Y44261906D01*
X110385771Y44261906D02*
X110338152Y44357144D01*
X110338152Y44357144D02*
X110338152Y44500001D01*
X110338152Y44500001D02*
X110385771Y44595239D01*
X110385771Y44595239D02*
X110481009Y44642858D01*
X110481009Y44642858D02*
X111004819Y44642858D01*
X110481009Y44642858D02*
X110385771Y44690477D01*
X110385771Y44690477D02*
X110338152Y44785715D01*
X110338152Y44785715D02*
X110338152Y44928572D01*
X110338152Y44928572D02*
X110385771Y45023811D01*
X110385771Y45023811D02*
X110481009Y45071430D01*
X110481009Y45071430D02*
X111004819Y45071430D01*
X101250000Y77250000D02*
X112286420Y77250000D01*
X101250000Y3750000D02*
X112286420Y3750000D01*
X111700000Y77250000D02*
X111700000Y3750000D01*
X111700000Y77250000D02*
X111700000Y3750000D01*
X111700000Y77250000D02*
X112286421Y76123496D01*
X111700000Y77250000D02*
X111113579Y76123496D01*
X111700000Y3750000D02*
X111113579Y4876504D01*
X111700000Y3750000D02*
X112286421Y4876504D01*
X47726191Y86445181D02*
X47916667Y86445181D01*
X47916667Y86445181D02*
X48011905Y86492800D01*
X48011905Y86492800D02*
X48059524Y86540420D01*
X48059524Y86540420D02*
X48154762Y86683277D01*
X48154762Y86683277D02*
X48202381Y86873753D01*
X48202381Y86873753D02*
X48202381Y87254705D01*
X48202381Y87254705D02*
X48154762Y87349943D01*
X48154762Y87349943D02*
X48107143Y87397562D01*
X48107143Y87397562D02*
X48011905Y87445181D01*
X48011905Y87445181D02*
X47821429Y87445181D01*
X47821429Y87445181D02*
X47726191Y87397562D01*
X47726191Y87397562D02*
X47678572Y87349943D01*
X47678572Y87349943D02*
X47630953Y87254705D01*
X47630953Y87254705D02*
X47630953Y87016610D01*
X47630953Y87016610D02*
X47678572Y86921372D01*
X47678572Y86921372D02*
X47726191Y86873753D01*
X47726191Y86873753D02*
X47821429Y86826134D01*
X47821429Y86826134D02*
X48011905Y86826134D01*
X48011905Y86826134D02*
X48107143Y86873753D01*
X48107143Y86873753D02*
X48154762Y86921372D01*
X48154762Y86921372D02*
X48202381Y87016610D01*
X48535715Y87445181D02*
X49202381Y87445181D01*
X49202381Y87445181D02*
X48773810Y86445181D01*
X49583334Y86540420D02*
X49630953Y86492800D01*
X49630953Y86492800D02*
X49583334Y86445181D01*
X49583334Y86445181D02*
X49535715Y86492800D01*
X49535715Y86492800D02*
X49583334Y86540420D01*
X49583334Y86540420D02*
X49583334Y86445181D01*
X50250000Y87445181D02*
X50345238Y87445181D01*
X50345238Y87445181D02*
X50440476Y87397562D01*
X50440476Y87397562D02*
X50488095Y87349943D01*
X50488095Y87349943D02*
X50535714Y87254705D01*
X50535714Y87254705D02*
X50583333Y87064229D01*
X50583333Y87064229D02*
X50583333Y86826134D01*
X50583333Y86826134D02*
X50535714Y86635658D01*
X50535714Y86635658D02*
X50488095Y86540420D01*
X50488095Y86540420D02*
X50440476Y86492800D01*
X50440476Y86492800D02*
X50345238Y86445181D01*
X50345238Y86445181D02*
X50250000Y86445181D01*
X50250000Y86445181D02*
X50154762Y86492800D01*
X50154762Y86492800D02*
X50107143Y86540420D01*
X50107143Y86540420D02*
X50059524Y86635658D01*
X50059524Y86635658D02*
X50011905Y86826134D01*
X50011905Y86826134D02*
X50011905Y87064229D01*
X50011905Y87064229D02*
X50059524Y87254705D01*
X50059524Y87254705D02*
X50107143Y87349943D01*
X50107143Y87349943D02*
X50154762Y87397562D01*
X50154762Y87397562D02*
X50250000Y87445181D01*
X51202381Y87445181D02*
X51297619Y87445181D01*
X51297619Y87445181D02*
X51392857Y87397562D01*
X51392857Y87397562D02*
X51440476Y87349943D01*
X51440476Y87349943D02*
X51488095Y87254705D01*
X51488095Y87254705D02*
X51535714Y87064229D01*
X51535714Y87064229D02*
X51535714Y86826134D01*
X51535714Y86826134D02*
X51488095Y86635658D01*
X51488095Y86635658D02*
X51440476Y86540420D01*
X51440476Y86540420D02*
X51392857Y86492800D01*
X51392857Y86492800D02*
X51297619Y86445181D01*
X51297619Y86445181D02*
X51202381Y86445181D01*
X51202381Y86445181D02*
X51107143Y86492800D01*
X51107143Y86492800D02*
X51059524Y86540420D01*
X51059524Y86540420D02*
X51011905Y86635658D01*
X51011905Y86635658D02*
X50964286Y86826134D01*
X50964286Y86826134D02*
X50964286Y87064229D01*
X50964286Y87064229D02*
X51011905Y87254705D01*
X51011905Y87254705D02*
X51059524Y87349943D01*
X51059524Y87349943D02*
X51107143Y87397562D01*
X51107143Y87397562D02*
X51202381Y87445181D01*
X52154762Y87445181D02*
X52250000Y87445181D01*
X52250000Y87445181D02*
X52345238Y87397562D01*
X52345238Y87397562D02*
X52392857Y87349943D01*
X52392857Y87349943D02*
X52440476Y87254705D01*
X52440476Y87254705D02*
X52488095Y87064229D01*
X52488095Y87064229D02*
X52488095Y86826134D01*
X52488095Y86826134D02*
X52440476Y86635658D01*
X52440476Y86635658D02*
X52392857Y86540420D01*
X52392857Y86540420D02*
X52345238Y86492800D01*
X52345238Y86492800D02*
X52250000Y86445181D01*
X52250000Y86445181D02*
X52154762Y86445181D01*
X52154762Y86445181D02*
X52059524Y86492800D01*
X52059524Y86492800D02*
X52011905Y86540420D01*
X52011905Y86540420D02*
X51964286Y86635658D01*
X51964286Y86635658D02*
X51916667Y86826134D01*
X51916667Y86826134D02*
X51916667Y87064229D01*
X51916667Y87064229D02*
X51964286Y87254705D01*
X51964286Y87254705D02*
X52011905Y87349943D01*
X52011905Y87349943D02*
X52059524Y87397562D01*
X52059524Y87397562D02*
X52154762Y87445181D01*
X53107143Y87445181D02*
X53202381Y87445181D01*
X53202381Y87445181D02*
X53297619Y87397562D01*
X53297619Y87397562D02*
X53345238Y87349943D01*
X53345238Y87349943D02*
X53392857Y87254705D01*
X53392857Y87254705D02*
X53440476Y87064229D01*
X53440476Y87064229D02*
X53440476Y86826134D01*
X53440476Y86826134D02*
X53392857Y86635658D01*
X53392857Y86635658D02*
X53345238Y86540420D01*
X53345238Y86540420D02*
X53297619Y86492800D01*
X53297619Y86492800D02*
X53202381Y86445181D01*
X53202381Y86445181D02*
X53107143Y86445181D01*
X53107143Y86445181D02*
X53011905Y86492800D01*
X53011905Y86492800D02*
X52964286Y86540420D01*
X52964286Y86540420D02*
X52916667Y86635658D01*
X52916667Y86635658D02*
X52869048Y86826134D01*
X52869048Y86826134D02*
X52869048Y87064229D01*
X52869048Y87064229D02*
X52916667Y87254705D01*
X52916667Y87254705D02*
X52964286Y87349943D01*
X52964286Y87349943D02*
X53011905Y87397562D01*
X53011905Y87397562D02*
X53107143Y87445181D01*
X54630953Y86445181D02*
X54630953Y87111848D01*
X54630953Y87016610D02*
X54678572Y87064229D01*
X54678572Y87064229D02*
X54773810Y87111848D01*
X54773810Y87111848D02*
X54916667Y87111848D01*
X54916667Y87111848D02*
X55011905Y87064229D01*
X55011905Y87064229D02*
X55059524Y86968991D01*
X55059524Y86968991D02*
X55059524Y86445181D01*
X55059524Y86968991D02*
X55107143Y87064229D01*
X55107143Y87064229D02*
X55202381Y87111848D01*
X55202381Y87111848D02*
X55345238Y87111848D01*
X55345238Y87111848D02*
X55440477Y87064229D01*
X55440477Y87064229D02*
X55488096Y86968991D01*
X55488096Y86968991D02*
X55488096Y86445181D01*
X55964286Y86445181D02*
X55964286Y87111848D01*
X55964286Y87016610D02*
X56011905Y87064229D01*
X56011905Y87064229D02*
X56107143Y87111848D01*
X56107143Y87111848D02*
X56250000Y87111848D01*
X56250000Y87111848D02*
X56345238Y87064229D01*
X56345238Y87064229D02*
X56392857Y86968991D01*
X56392857Y86968991D02*
X56392857Y86445181D01*
X56392857Y86968991D02*
X56440476Y87064229D01*
X56440476Y87064229D02*
X56535714Y87111848D01*
X56535714Y87111848D02*
X56678571Y87111848D01*
X56678571Y87111848D02*
X56773810Y87064229D01*
X56773810Y87064229D02*
X56821429Y86968991D01*
X56821429Y86968991D02*
X56821429Y86445181D01*
X3750000Y77750000D02*
X3750000Y86336420D01*
X100750000Y77750000D02*
X100750000Y86336420D01*
X3750000Y85750000D02*
X100750000Y85750000D01*
X3750000Y85750000D02*
X100750000Y85750000D01*
X3750000Y85750000D02*
X4876504Y86336421D01*
X3750000Y85750000D02*
X4876504Y85163579D01*
X100750000Y85750000D02*
X99623496Y85163579D01*
X100750000Y85750000D02*
X99623496Y86336421D01*
X-1363095Y-5654819D02*
X-744048Y-5654819D01*
X-744048Y-5654819D02*
X-1077381Y-6035771D01*
X-1077381Y-6035771D02*
X-934524Y-6035771D01*
X-934524Y-6035771D02*
X-839286Y-6083390D01*
X-839286Y-6083390D02*
X-791667Y-6131009D01*
X-791667Y-6131009D02*
X-744048Y-6226247D01*
X-744048Y-6226247D02*
X-744048Y-6464342D01*
X-744048Y-6464342D02*
X-791667Y-6559580D01*
X-791667Y-6559580D02*
X-839286Y-6607200D01*
X-839286Y-6607200D02*
X-934524Y-6654819D01*
X-934524Y-6654819D02*
X-1220238Y-6654819D01*
X-1220238Y-6654819D02*
X-1315476Y-6607200D01*
X-1315476Y-6607200D02*
X-1363095Y-6559580D01*
X-315476Y-6559580D02*
X-267857Y-6607200D01*
X-267857Y-6607200D02*
X-315476Y-6654819D01*
X-315476Y-6654819D02*
X-363095Y-6607200D01*
X-363095Y-6607200D02*
X-315476Y-6559580D01*
X-315476Y-6559580D02*
X-315476Y-6654819D01*
X65476Y-5654819D02*
X732142Y-5654819D01*
X732142Y-5654819D02*
X303571Y-6654819D01*
X1589285Y-5654819D02*
X1113095Y-5654819D01*
X1113095Y-5654819D02*
X1065476Y-6131009D01*
X1065476Y-6131009D02*
X1113095Y-6083390D01*
X1113095Y-6083390D02*
X1208333Y-6035771D01*
X1208333Y-6035771D02*
X1446428Y-6035771D01*
X1446428Y-6035771D02*
X1541666Y-6083390D01*
X1541666Y-6083390D02*
X1589285Y-6131009D01*
X1589285Y-6131009D02*
X1636904Y-6226247D01*
X1636904Y-6226247D02*
X1636904Y-6464342D01*
X1636904Y-6464342D02*
X1589285Y-6559580D01*
X1589285Y-6559580D02*
X1541666Y-6607200D01*
X1541666Y-6607200D02*
X1446428Y-6654819D01*
X1446428Y-6654819D02*
X1208333Y-6654819D01*
X1208333Y-6654819D02*
X1113095Y-6607200D01*
X1113095Y-6607200D02*
X1065476Y-6559580D01*
X2827381Y-6654819D02*
X2827381Y-5988152D01*
X2827381Y-6083390D02*
X2875000Y-6035771D01*
X2875000Y-6035771D02*
X2970238Y-5988152D01*
X2970238Y-5988152D02*
X3113095Y-5988152D01*
X3113095Y-5988152D02*
X3208333Y-6035771D01*
X3208333Y-6035771D02*
X3255952Y-6131009D01*
X3255952Y-6131009D02*
X3255952Y-6654819D01*
X3255952Y-6131009D02*
X3303571Y-6035771D01*
X3303571Y-6035771D02*
X3398809Y-5988152D01*
X3398809Y-5988152D02*
X3541666Y-5988152D01*
X3541666Y-5988152D02*
X3636905Y-6035771D01*
X3636905Y-6035771D02*
X3684524Y-6131009D01*
X3684524Y-6131009D02*
X3684524Y-6654819D01*
X4160714Y-6654819D02*
X4160714Y-5988152D01*
X4160714Y-6083390D02*
X4208333Y-6035771D01*
X4208333Y-6035771D02*
X4303571Y-5988152D01*
X4303571Y-5988152D02*
X4446428Y-5988152D01*
X4446428Y-5988152D02*
X4541666Y-6035771D01*
X4541666Y-6035771D02*
X4589285Y-6131009D01*
X4589285Y-6131009D02*
X4589285Y-6654819D01*
X4589285Y-6131009D02*
X4636904Y-6035771D01*
X4636904Y-6035771D02*
X4732142Y-5988152D01*
X4732142Y-5988152D02*
X4874999Y-5988152D01*
X4874999Y-5988152D02*
X4970238Y-6035771D01*
X4970238Y-6035771D02*
X5017857Y-6131009D01*
X5017857Y-6131009D02*
X5017857Y-6654819D01*
X3750000Y3250000D02*
X3750000Y-5286420D01*
X0Y3250000D02*
X0Y-5286420D01*
X3750000Y-4700000D02*
X0Y-4700000D01*
X3750000Y-4700000D02*
X0Y-4700000D01*
X3750000Y-4700000D02*
X2623496Y-5286421D01*
X3750000Y-4700000D02*
X2623496Y-4113579D01*
X0Y-4700000D02*
X1126504Y-4113579D01*
X0Y-4700000D02*
X1126504Y-5286421D01*
M02*
