G04 start of page 2 for group 0 idx 0
G04 Title: (unknown), component *
G04 Creator: pcb 20080202 *
G04 CreationDate: Sat 27 Feb 2010 07:29:32 PM GMT UTC *
G04 For: randomplague *
G04 Format: Gerber/RS-274X *
G04 PCB-Dimensions: 70000 45000 *
G04 PCB-Coordinate-Origin: lower left *
%MOIN*%
%FSLAX24Y24*%
%LNFRONT*%
%ADD11C,0.0200*%
%ADD12C,0.0600*%
%ADD13R,0.0200X0.0200*%
%ADD14R,0.0512X0.0512*%
%ADD15C,0.0380*%
G54D11*X1900Y1250D02*X1250D01*
X1900Y750D02*X750D01*
X2550D02*X3250D01*
X1250Y1250D02*X750Y1750D01*
X1900Y2250D02*Y2600D01*
X750Y3750D01*
X1000Y2750D02*X750D01*
X1000D02*X1500Y2250D01*
Y1750D02*X1900D01*
X1500D02*Y2250D01*
X3250Y750D02*Y3069D01*
X5750Y3750D02*X4000D01*
X4600Y2250D02*Y2900D01*
X4000Y3500D01*
X3250Y3069D02*X2819Y3500D01*
X4600Y750D02*X5750D01*
X4600Y1250D02*X5250D01*
X5750Y1750D01*
X4600D02*X5000D01*
X5750Y2750D02*X5250Y2250D01*
X5000Y2000D02*Y1750D01*
Y2000D02*X5250Y2250D01*
G54D11*G36*
X5450Y4050D02*Y3450D01*
X6050D01*
Y4050D01*
X5450D01*
G37*
G54D12*X5750Y2750D03*
Y1750D03*
G54D11*G36*
X450Y4050D02*Y3450D01*
X1050D01*
Y4050D01*
X450D01*
G37*
G54D12*X750Y2750D03*
Y1750D03*
Y750D03*
X5750D03*
G54D13*X3950D02*X4600D01*
X3950Y1250D02*X4600D01*
X3950Y1750D02*X4600D01*
X1900Y2250D02*X2550D01*
X1900Y1750D02*X2550D01*
X1900Y1250D02*X2550D01*
X1900Y750D02*X2550D01*
X3950Y2250D02*X4600D01*
G54D14*X2819Y4051D02*Y3500D01*
X4000Y4051D02*Y3500D01*
G54D15*M02*
