<?xml version="1.0" standalone="no"?>
 <!DOCTYPE svg PUBLIC "-//W3C//DTD SVG 1.1//EN" 
 "http://www.w3.org/Graphics/SVG/1.1/DTD/svg11.dtd"> 
<svg
  xmlns:svg="http://www.w3.org/2000/svg"
  xmlns="http://www.w3.org/2000/svg"
  xmlns:xlink="http://www.w3.org/1999/xlink"
  version="1.1"
  width="297.0022mm" height="210.0072mm" viewBox="0.0000 0.0000 297.0022 210.0072">
<title>SVG Image created as ZoneFill-Legacy-B_Cu-generated.svg date 2025-10-02T09:57:40+0000 </title>
  <desc>Image generated by PCBNEW </desc>
<g style="fill:#000000; fill-opacity:1.0000;stroke:#000000; stroke-opacity:1.0000;
stroke-linecap:round; stroke-linejoin:round;"
 transform="translate(0 0) scale(1 1)">
<path style="fill:#000000; fill-opacity:1.0000; stroke:none;fill-rule:evenodd;"
d="M 116.2216,99.2178
116.2216,99.7182
116.6712,99.7182
116.6712,99.2178
Z" /> 
<path style="fill:#000000; fill-opacity:1.0000; stroke:none;fill-rule:evenodd;"
d="M 116.2216,100.7418
116.2216,101.2422
116.6712,101.2422
116.6712,100.7418
Z" /> 
<path style="fill:#000000; fill-opacity:1.0000; stroke:none;fill-rule:evenodd;"
d="M 115.4088,99.2178
115.4088,99.7182
115.8584,99.7182
115.8584,99.2178
Z" /> 
<path style="fill:#000000; fill-opacity:1.0000; stroke:none;fill-rule:evenodd;"
d="M 115.4088,100.7418
115.4088,101.2422
115.8584,101.2422
115.8584,100.7418
Z" /> 
</g>
<g style="fill:#000000; fill-opacity:1.0000; stroke:none;">
<circle cx="121.7498" cy="101.3460" r="0.1524" /> 
<circle cx="122.7506" cy="101.3460" r="0.1524" /> 
<circle cx="123.7513" cy="101.3460" r="0.1524" /> 
<circle cx="123.7513" cy="99.3445" r="0.1524" /> 
<circle cx="122.7506" cy="99.3445" r="0.1524" /> 
<circle cx="121.7498" cy="99.3445" r="0.1524" /> 
<circle cx="121.7498" cy="100.3452" r="0.1524" /> 
<circle cx="123.7513" cy="100.3452" r="0.1524" /> 
<circle cx="122.7506" cy="100.3452" r="0.1524" /> 
<path style="fill:#000000; fill-opacity:1.0000; stroke:none;fill-rule:evenodd;"
d="M 121.0221,93.5495
121.0221,92.7494
120.4811,92.7494
120.4811,93.5495
Z" /> 
<path style="fill:#000000; fill-opacity:1.0000; stroke:none;fill-rule:evenodd;"
d="M 126.1224,93.5495
126.1224,92.7494
125.5814,92.7494
125.5814,93.5495
Z" /> 
<path style="fill:#000000; fill-opacity:1.0000; stroke:none;fill-rule:evenodd;"
d="M 117.8522,93.4987
117.8522,91.7994
116.4526,91.7994
116.4526,93.4987
Z" /> 
<path style="fill:#000000; fill-opacity:1.0000; stroke:none;fill-rule:evenodd;"
d="M 130.0518,93.6003
130.0518,91.9010
128.6523,91.9010
128.6523,93.6003
Z" /> 
<path style="fill:#000000; fill-opacity:1.0000; stroke:none;fill-rule:evenodd;"
d="M 117.3264,104.8512
117.3264,103.5507
116.8768,103.5507
116.8768,104.8512
Z" /> 
<path style="fill:#000000; fill-opacity:1.0000; stroke:none;fill-rule:evenodd;"
d="M 117.3264,102.8497
117.3264,101.5492
116.8768,101.5492
116.8768,102.8497
Z" /> 
<path style="fill:#000000; fill-opacity:1.0000; stroke:none;fill-rule:evenodd;"
d="M 129.6251,102.8497
129.6251,101.5492
129.1755,101.5492
129.1755,102.8497
Z" /> 
<path style="fill:#000000; fill-opacity:1.0000; stroke:none;fill-rule:evenodd;"
d="M 129.6251,104.8512
129.6251,103.5507
129.1755,103.5507
129.1755,104.8512
Z" /> 
<path style="fill:#000000; fill-opacity:1.0000; stroke:none;fill-rule:evenodd;"
d="M 121.2520,107.0013
121.2520,105.8507
120.6017,105.8507
120.6017,107.0013
Z" /> 
<path style="fill:#000000; fill-opacity:1.0000; stroke:none;fill-rule:evenodd;"
d="M 122.5271,107.0013
122.5271,105.8507
121.8768,105.8507
121.8768,107.0013
Z" /> 
<path style="fill:#000000; fill-opacity:1.0000; stroke:none;fill-rule:evenodd;"
d="M 123.8021,107.0013
123.8021,105.8507
123.1519,105.8507
123.1519,107.0013
Z" /> 
<path style="fill:#000000; fill-opacity:1.0000; stroke:none;fill-rule:evenodd;"
d="M 125.0772,107.0013
125.0772,105.8507
124.4270,105.8507
124.4270,107.0013
Z" /> 
<path style="fill:#000000; fill-opacity:1.0000; stroke:none;fill-rule:evenodd;"
d="M 127.6020,107.0013
127.6020,105.8507
126.9517,105.8507
126.9517,107.0013
Z" /> 
<path style="fill:#000000; fill-opacity:1.0000; stroke:none;fill-rule:evenodd;"
d="M 126.3523,107.0013
126.3523,105.8507
125.7021,105.8507
125.7021,107.0013
Z" /> 
<circle cx="122.2000" cy="91.9000" r="0.6000" /> 
<circle cx="120.2000" cy="91.9000" r="0.6000" /> 
<circle cx="122.2000" cy="91.9000" r="0.6000" /> 
<circle cx="120.2000" cy="91.9000" r="0.6000" /> 
<path style="fill:#000000; fill-opacity:1.0000; stroke:none;fill-rule:evenodd;"
d="M 121.0221,93.5495
121.0221,92.7494
120.4811,92.7494
120.4811,93.5495
Z" /> 
<path style="fill:#000000; fill-opacity:1.0000; stroke:none;fill-rule:evenodd;"
d="M 126.1224,93.5495
126.1224,92.7494
125.5814,92.7494
125.5814,93.5495
Z" /> 
<path style="fill:#000000; fill-opacity:1.0000; stroke:none;fill-rule:evenodd;"
d="M 117.8522,93.4987
117.8522,91.7994
116.4526,91.7994
116.4526,93.4987
Z" /> 
<path style="fill:#000000; fill-opacity:1.0000; stroke:none;fill-rule:evenodd;"
d="M 130.0518,93.6003
130.0518,91.9010
128.6523,91.9010
128.6523,93.6003
Z" /> 
<path style="fill:#000000; fill-opacity:1.0000; stroke:none;fill-rule:evenodd;"
d="M 117.3264,104.8512
117.3264,103.5507
116.8768,103.5507
116.8768,104.8512
Z" /> 
<path style="fill:#000000; fill-opacity:1.0000; stroke:none;fill-rule:evenodd;"
d="M 117.3264,102.8497
117.3264,101.5492
116.8768,101.5492
116.8768,102.8497
Z" /> 
<path style="fill:#000000; fill-opacity:1.0000; stroke:none;fill-rule:evenodd;"
d="M 129.6251,102.8497
129.6251,101.5492
129.1755,101.5492
129.1755,102.8497
Z" /> 
<path style="fill:#000000; fill-opacity:1.0000; stroke:none;fill-rule:evenodd;"
d="M 129.6251,104.8512
129.6251,103.5507
129.1755,103.5507
129.1755,104.8512
Z" /> 
<path style="fill:#000000; fill-opacity:1.0000; stroke:none;fill-rule:evenodd;"
d="M 121.2520,107.0013
121.2520,105.8507
120.6017,105.8507
120.6017,107.0013
Z" /> 
<path style="fill:#000000; fill-opacity:1.0000; stroke:none;fill-rule:evenodd;"
d="M 122.5271,107.0013
122.5271,105.8507
121.8768,105.8507
121.8768,107.0013
Z" /> 
<path style="fill:#000000; fill-opacity:1.0000; stroke:none;fill-rule:evenodd;"
d="M 123.8021,107.0013
123.8021,105.8507
123.1519,105.8507
123.1519,107.0013
Z" /> 
<path style="fill:#000000; fill-opacity:1.0000; stroke:none;fill-rule:evenodd;"
d="M 125.0772,107.0013
125.0772,105.8507
124.4270,105.8507
124.4270,107.0013
Z" /> 
<path style="fill:#000000; fill-opacity:1.0000; stroke:none;fill-rule:evenodd;"
d="M 127.6020,107.0013
127.6020,105.8507
126.9517,105.8507
126.9517,107.0013
Z" /> 
<path style="fill:#000000; fill-opacity:1.0000; stroke:none;fill-rule:evenodd;"
d="M 126.3523,107.0013
126.3523,105.8507
125.7021,105.8507
125.7021,107.0013
Z" /> 
<circle cx="121.7498" cy="101.3460" r="0.1524" /> 
<circle cx="122.7506" cy="101.3460" r="0.1524" /> 
<circle cx="123.7513" cy="101.3460" r="0.1524" /> 
<circle cx="123.7513" cy="99.3445" r="0.1524" /> 
<circle cx="122.7506" cy="99.3445" r="0.1524" /> 
<circle cx="121.7498" cy="99.3445" r="0.1524" /> 
<circle cx="121.7498" cy="100.3452" r="0.1524" /> 
<circle cx="123.7513" cy="100.3452" r="0.1524" /> 
<circle cx="122.7506" cy="100.3452" r="0.1524" /> 
<path style="fill:#000000; fill-opacity:1.0000; stroke:none;fill-rule:evenodd;"
d="M 116.2216,99.2178
116.2216,99.7182
116.6712,99.7182
116.6712,99.2178
Z" /> 
<path style="fill:#000000; fill-opacity:1.0000; stroke:none;fill-rule:evenodd;"
d="M 116.2216,100.7418
116.2216,101.2422
116.6712,101.2422
116.6712,100.7418
Z" /> 
<path style="fill:#000000; fill-opacity:1.0000; stroke:none;fill-rule:evenodd;"
d="M 115.4088,99.2178
115.4088,99.7182
115.8584,99.7182
115.8584,99.2178
Z" /> 
<path style="fill:#000000; fill-opacity:1.0000; stroke:none;fill-rule:evenodd;"
d="M 115.4088,100.7418
115.4088,101.2422
115.8584,101.2422
115.8584,100.7418
Z" /> 
<circle cx="133.9996" cy="96.7621" r="0.5499" /> 
<circle cx="133.9996" cy="101.2629" r="0.5499" /> 
<path style="fill:#000000; fill-opacity:1.0000; stroke:none;fill-rule:evenodd;"
d="M 132.8985,94.9129
132.8985,96.1118
130.8995,96.1118
130.8995,94.9129
Z" /> 
<path style="fill:#000000; fill-opacity:1.0000; stroke:none;fill-rule:evenodd;"
d="M 132.8985,101.9132
132.8985,103.1120
130.8995,103.1120
130.8995,101.9132
Z" /> 
<path style="fill:#000000; fill-opacity:1.0000; stroke:none;fill-rule:evenodd;"
d="M 132.8985,97.3970
132.8985,98.5959
130.8995,98.5959
130.8995,97.3970
Z" /> 
<path style="fill:#000000; fill-opacity:1.0000; stroke:none;fill-rule:evenodd;"
d="M 132.8985,99.4138
132.8985,100.6127
130.8995,100.6127
130.8995,99.4138
Z" /> 
</g>
<g style="fill:none; 
stroke:#000000; stroke-width:1.5011; stroke-opacity:1; 
stroke-linecap:round; stroke-linejoin:round;">
<path d="M134.9991 104.7122
L133.0001 104.7122
" />
<path d="M134.9991 93.3127
L133.0001 93.3127
" />
</g>
<g style="fill:#000000; fill-opacity:1.0000; stroke:none;">
<circle cx="116.3000" cy="103.1500" r="0.2731" /> 
<circle cx="116.3000" cy="103.1500" r="0.2731" /> 
<circle cx="116.2000" cy="102.1750" r="0.2731" /> 
<circle cx="116.2000" cy="102.1750" r="0.2731" /> 
<circle cx="117.3480" cy="96.9772" r="0.2731" /> 
<circle cx="119.2276" cy="96.9264" r="0.2731" /> 
<circle cx="133.5024" cy="95.1992" r="0.2731" /> 
<circle cx="127.4572" cy="104.6988" r="0.2731" /> 
<circle cx="127.6604" cy="95.4532" r="0.2731" /> 
<circle cx="126.4412" cy="95.8596" r="0.2731" /> 
<circle cx="122.1740" cy="94.5896" r="0.2731" /> 
<circle cx="125.8000" cy="91.6500" r="0.2731" /> 
<circle cx="125.8000" cy="91.6500" r="0.2731" /> 
<circle cx="122.1740" cy="94.5896" r="0.2731" /> 
<circle cx="126.4412" cy="95.8596" r="0.2731" /> 
<circle cx="127.6604" cy="95.4532" r="0.2731" /> 
<circle cx="127.4572" cy="104.6988" r="0.2731" /> 
<circle cx="133.5024" cy="95.1992" r="0.2731" /> 
<circle cx="119.2276" cy="96.9264" r="0.2731" /> 
<circle cx="117.3480" cy="96.9772" r="0.2731" /> 
<circle cx="133.4516" cy="102.5652" r="0.2731" /> 
<circle cx="133.4516" cy="102.5652" r="0.2731" /> 
<circle cx="123.9012" cy="93.9800" r="0.2731" /> 
<circle cx="129.2225" cy="98.6155" r="0.2731" /> 
<circle cx="129.2225" cy="98.6155" r="0.2731" /> 
<circle cx="123.9012" cy="93.9800" r="0.2731" /> 
<circle cx="123.7488" cy="95.5548" r="0.2731" /> 
<circle cx="123.7488" cy="95.5548" r="0.2731" /> 
<circle cx="122.2248" cy="96.7740" r="0.2731" /> 
<circle cx="122.2248" cy="96.7740" r="0.2731" /> 
<circle cx="123.7488" cy="96.2660" r="0.2731" /> 
<circle cx="123.7488" cy="96.2660" r="0.2731" /> 
<circle cx="126.6444" cy="101.8540" r="0.2731" /> 
<circle cx="126.6444" cy="101.8540" r="0.2731" /> 
<circle cx="133.3500" cy="100.0125" r="0.2731" /> 
<circle cx="133.3500" cy="100.0125" r="0.2731" /> 
<circle cx="133.3500" cy="97.9805" r="0.2731" /> 
<circle cx="133.3500" cy="97.9805" r="0.2731" /> 
<circle cx="127.6350" cy="100.0125" r="0.2731" /> 
<circle cx="127.5715" cy="96.5835" r="0.2731" /> 
<circle cx="127.5715" cy="96.5835" r="0.2731" /> 
<circle cx="127.6350" cy="100.0125" r="0.2731" /> 
<circle cx="119.7864" cy="97.6376" r="0.2731" /> 
<circle cx="118.7196" cy="102.7684" r="0.2731" /> 
<circle cx="126.3396" cy="94.9452" r="0.2731" /> 
<circle cx="127.6500" cy="93.9000" r="0.2731" /> 
<circle cx="128.4732" cy="102.1080" r="0.2731" /> 
<circle cx="128.4732" cy="102.1080" r="0.2731" /> 
<circle cx="127.6500" cy="93.9000" r="0.2731" /> 
<circle cx="126.3396" cy="94.9452" r="0.2731" /> 
<circle cx="118.7196" cy="102.7684" r="0.2731" /> 
<circle cx="119.7864" cy="97.6376" r="0.2731" /> 
</g>
<g style="fill:none; 
stroke:#000000; stroke-width:0.1270; stroke-opacity:1; 
stroke-linecap:round; stroke-linejoin:round;">
<path d="M115.6336 102.4836
L116.3000 103.1500
" />
<path d="M115.6336 100.9920
L115.6336 102.4836
" />
<path d="M115.6336 100.9920
L115.6336 102.4836
" />
<path d="M115.6336 102.4836
L116.3000 103.1500
" />
<path d="M116.2000 102.1750
L116.4464 101.9286
" />
<path d="M116.4464 101.9286
L116.4464 100.9920
" />
<path d="M116.4464 101.9286
L116.4464 100.9920
" />
<path d="M116.2000 102.1750
L116.4464 101.9286
" />
</g>
<g style="fill:none; 
stroke:#000000; stroke-width:0.2007; stroke-opacity:1; 
stroke-linecap:round; stroke-linejoin:round;">
<path d="M119.1768 96.9772
L117.3480 96.9772
" />
<path d="M119.2276 96.9264
L119.1768 96.9772
" />
<path d="M133.2078 95.4938
L133.5024 95.1992
" />
<path d="M131.6355 95.4938
L133.2078 95.4938
" />
<path d="M127.2769 104.8791
L127.4572 104.6988
" />
<path d="M127.2769 106.4260
L127.2769 104.8791
" />
<path d="M116.5733 99.3775
L116.7500 99.2008
" />
<path d="M117.0940 99.0600
L117.3480 98.8060
" />
<path d="M116.8908 99.0600
L117.0940 99.0600
" />
<path d="M116.7500 99.2008
L116.8908 99.0600
" />
<path d="M117.3480 98.8060
L117.3480 96.9772
" />
<path d="M115.6336 99.4680
L116.4464 99.4680
" />
<path d="M116.4820 99.4680
L116.7500 99.2000
" />
<path d="M116.7500 99.2000
L116.7500 99.2008
" />
<path d="M116.4464 99.4680
L116.4820 99.4680
" />
<path d="M122.4280 94.8436
L122.1740 94.5896
" />
<path d="M122.1740 94.5896
L122.1740 94.5388
" />
<path d="M127.6604 95.4532
L127.2540 95.8596
" />
<path d="M127.2540 95.8596
L126.4412 95.8596
" />
<path d="M126.4412 95.8596
L126.2380 95.8596
" />
<path d="M126.2380 95.8596
L125.3490 94.9706
" />
<path d="M125.3490 94.9706
L122.5550 94.9706
" />
<path d="M122.5550 94.9706
L122.1740 94.5896
" />
<path d="M125.8000 91.6500
L125.8000 91.7000
" />
<path d="M125.8000 91.6500
L125.8000 91.7000
" />
<path d="M122.5550 94.9706
L122.1740 94.5896
" />
<path d="M125.3490 94.9706
L122.5550 94.9706
" />
<path d="M126.2380 95.8596
L125.3490 94.9706
" />
<path d="M126.4412 95.8596
L126.2380 95.8596
" />
<path d="M127.2540 95.8596
L126.4412 95.8596
" />
<path d="M127.6604 95.4532
L127.2540 95.8596
" />
<path d="M122.1740 94.5896
L122.1740 94.5388
" />
<path d="M122.4280 94.8436
L122.1740 94.5896
" />
<path d="M116.4464 99.4680
L116.4820 99.4680
" />
<path d="M116.7500 99.2000
L116.7500 99.2008
" />
<path d="M116.4820 99.4680
L116.7500 99.2000
" />
<path d="M115.6336 99.4680
L116.4464 99.4680
" />
<path d="M117.3480 98.8060
L117.3480 96.9772
" />
<path d="M116.7500 99.2008
L116.8908 99.0600
" />
<path d="M116.8908 99.0600
L117.0940 99.0600
" />
<path d="M117.0940 99.0600
L117.3480 98.8060
" />
<path d="M116.5733 99.3775
L116.7500 99.2008
" />
<path d="M127.2769 106.4260
L127.2769 104.8791
" />
<path d="M127.2769 104.8791
L127.4572 104.6988
" />
<path d="M131.6355 95.4938
L133.2078 95.4938
" />
<path d="M133.2078 95.4938
L133.5024 95.1992
" />
<path d="M119.2276 96.9264
L119.1768 96.9772
" />
<path d="M119.1768 96.9772
L117.3480 96.9772
" />
</g>
<g style="fill:none; 
stroke:#000000; stroke-width:0.1270; stroke-opacity:1; 
stroke-linecap:round; stroke-linejoin:round;">
<path d="M133.4516 102.5652
L133.3805 102.4941
" />
<path d="M133.3805 102.4941
L131.6355 102.4941
" />
<path d="M133.3805 102.4941
L131.6355 102.4941
" />
<path d="M133.4516 102.5652
L133.3805 102.4941
" />
<path d="M123.9012 93.9800
L124.2060 94.2848
" />
<path d="M124.2060 94.2848
L127.0000 94.2848
" />
<path d="M127.0000 94.2848
L127.2540 94.5388
" />
<path d="M128.8415 95.1103
L128.8415 96.4565
" />
<path d="M128.3208 94.5896
L128.8415 95.1103
" />
<path d="M127.3048 94.5896
L128.3208 94.5896
" />
<path d="M127.2540 94.5388
L127.3048 94.5896
" />
<path d="M128.8415 96.4565
L129.2225 96.8375
" />
<path d="M129.2225 96.8375
L129.2225 98.6155
" />
<path d="M129.2225 96.8375
L129.2225 98.6155
" />
<path d="M128.8415 96.4565
L129.2225 96.8375
" />
<path d="M127.2540 94.5388
L127.3048 94.5896
" />
<path d="M127.3048 94.5896
L128.3208 94.5896
" />
<path d="M128.3208 94.5896
L128.8415 95.1103
" />
<path d="M128.8415 95.1103
L128.8415 96.4565
" />
<path d="M127.0000 94.2848
L127.2540 94.5388
" />
<path d="M124.2060 94.2848
L127.0000 94.2848
" />
<path d="M123.9012 93.9800
L124.2060 94.2848
" />
<path d="M126.0272 106.4260
L126.0272 105.2144
" />
<path d="M124.0536 95.8596
L123.7488 95.5548
" />
<path d="M125.6284 95.8596
L124.0536 95.8596
" />
<path d="M127.0508 97.2820
L125.6284 95.8596
" />
<path d="M127.0508 100.5332
L127.0508 97.2820
" />
<path d="M127.8128 101.2952
L127.0508 100.5332
" />
<path d="M127.8128 103.5304
L127.8128 101.2952
" />
<path d="M126.5936 104.7496
L127.8128 103.5304
" />
<path d="M126.4920 104.7496
L126.5936 104.7496
" />
<path d="M126.0272 105.2144
L126.4920 104.7496
" />
<path d="M126.0272 105.2144
L126.4920 104.7496
" />
<path d="M126.4920 104.7496
L126.5936 104.7496
" />
<path d="M126.5936 104.7496
L127.8128 103.5304
" />
<path d="M127.8128 103.5304
L127.8128 101.2952
" />
<path d="M127.8128 101.2952
L127.0508 100.5332
" />
<path d="M127.0508 100.5332
L127.0508 97.2820
" />
<path d="M127.0508 97.2820
L125.6284 95.8596
" />
<path d="M125.6284 95.8596
L124.0536 95.8596
" />
<path d="M124.0536 95.8596
L123.7488 95.5548
" />
<path d="M126.0272 106.4260
L126.0272 105.2144
" />
<path d="M122.2019 105.0265
L123.0376 104.1908
" />
<path d="M123.0376 104.1908
L126.1364 104.1908
" />
<path d="M126.1364 104.1908
L127.0000 103.3272
" />
<path d="M127.0000 103.3272
L127.0000 102.2604
" />
<path d="M127.0000 102.2604
L127.1524 102.1080
" />
<path d="M127.1524 102.1080
L127.1524 101.6508
" />
<path d="M127.1524 101.6508
L126.4920 100.9904
" />
<path d="M126.4920 100.9904
L126.4920 97.5360
" />
<path d="M126.4920 97.5360
L125.7300 96.7740
" />
<path d="M125.7300 96.7740
L122.2248 96.7740
" />
<path d="M122.2019 106.4260
L122.2019 105.0265
" />
<path d="M122.2019 106.4260
L122.2019 105.0265
" />
<path d="M125.7300 96.7740
L122.2248 96.7740
" />
<path d="M126.4920 97.5360
L125.7300 96.7740
" />
<path d="M126.4920 100.9904
L126.4920 97.5360
" />
<path d="M127.1524 101.6508
L126.4920 100.9904
" />
<path d="M127.1524 102.1080
L127.1524 101.6508
" />
<path d="M127.0000 102.2604
L127.1524 102.1080
" />
<path d="M127.0000 103.3272
L127.0000 102.2604
" />
<path d="M126.1364 104.1908
L127.0000 103.3272
" />
<path d="M123.0376 104.1908
L126.1364 104.1908
" />
<path d="M122.2019 105.0265
L123.0376 104.1908
" />
<path d="M123.4770 105.0214
L124.0028 104.4956
" />
<path d="M124.0028 104.4956
L126.3904 104.4956
" />
<path d="M126.3904 104.4956
L127.4064 103.4796
" />
<path d="M127.4064 103.4796
L127.4064 102.3620
" />
<path d="M127.4064 102.3620
L127.5080 102.2604
" />
<path d="M127.5080 102.2604
L127.5080 101.4984
" />
<path d="M127.5080 101.4984
L126.7460 100.7364
" />
<path d="M126.7460 100.7364
L126.7460 97.3836
" />
<path d="M126.7460 97.3836
L125.6284 96.2660
" />
<path d="M125.6284 96.2660
L123.7488 96.2660
" />
<path d="M123.4770 106.4260
L123.4770 105.0214
" />
<path d="M123.4770 106.4260
L123.4770 105.0214
" />
<path d="M125.6284 96.2660
L123.7488 96.2660
" />
<path d="M126.7460 97.3836
L125.6284 96.2660
" />
<path d="M126.7460 100.7364
L126.7460 97.3836
" />
<path d="M127.5080 101.4984
L126.7460 100.7364
" />
<path d="M127.5080 102.2604
L127.5080 101.4984
" />
<path d="M127.4064 102.3620
L127.5080 102.2604
" />
<path d="M127.4064 103.4796
L127.4064 102.3620
" />
<path d="M126.3904 104.4956
L127.4064 103.4796
" />
<path d="M124.0028 104.4956
L126.3904 104.4956
" />
<path d="M123.4770 105.0214
L124.0028 104.4956
" />
<path d="M126.6444 101.8540
L126.6444 103.2256
" />
<path d="M126.6444 103.2256
L125.9840 103.8860
" />
<path d="M125.9840 103.8860
L121.3612 103.8860
" />
<path d="M121.3612 103.8860
L120.9269 104.3203
" />
<path d="M120.9269 104.3203
L120.9269 106.4260
" />
<path d="M120.9269 104.3203
L120.9269 106.4260
" />
<path d="M121.3612 103.8860
L120.9269 104.3203
" />
<path d="M125.9840 103.8860
L121.3612 103.8860
" />
<path d="M126.6444 103.2256
L125.9840 103.8860
" />
<path d="M126.6444 101.8540
L126.6444 103.2256
" />
<path d="M133.3500 100.0125
L133.3322 99.9947
" />
<path d="M133.3322 99.9947
L131.6355 99.9947
" />
<path d="M133.3322 99.9947
L131.6355 99.9947
" />
<path d="M133.3500 100.0125
L133.3322 99.9947
" />
<path d="M133.3500 97.9805
L133.3475 97.9780
" />
<path d="M133.3475 97.9780
L131.6355 97.9780
" />
<path d="M133.3475 97.9780
L131.6355 97.9780
" />
<path d="M133.3500 97.9805
L133.3475 97.9780
" />
<path d="M127.6350 100.0125
L127.5715 99.9490
" />
<path d="M127.5715 99.9490
L127.5715 96.5835
" />
<path d="M127.5715 99.9490
L127.5715 96.5835
" />
<path d="M127.6350 100.0125
L127.5715 99.9490
" />
</g>
<g style="fill:none; 
stroke:#000000; stroke-width:0.1524; stroke-opacity:1; 
stroke-linecap:round; stroke-linejoin:round;">
<path d="M119.7864 97.6376
L118.7196 98.7044
" />
<path d="M118.7196 98.7044
L118.7196 102.7684
" />
<path d="M126.3396 94.9452
L125.9840 94.5896
" />
<path d="M125.9840 94.5896
L123.6472 94.5896
" />
<path d="M123.6472 94.5896
L123.2916 94.2340
" />
<path d="M123.2916 94.2340
L123.2916 93.3004
" />
<path d="M122.2000 93.2000
L122.2000 91.9000
" />
<path d="M119.7864 95.6136
L119.7864 97.6376
" />
<path d="M121.9000 93.5000
L119.7864 95.6136
" />
<path d="M121.9000 93.5000
L122.2000 93.2000
" />
<path d="M123.2916 92.9916
L122.2000 91.9000
" />
<path d="M123.2916 93.3004
L123.2916 92.9916
" />
<path d="M128.4732 102.1080
L128.3716 102.0064
" />
<path d="M128.3716 102.0064
L128.3716 100.9396
" />
<path d="M128.3716 100.9396
L129.9972 99.3140
" />
<path d="M129.9972 99.3140
L129.9972 95.5040
" />
<path d="M129.9972 95.5040
L128.6256 94.1324
" />
<path d="M128.3932 93.9000
L128.6256 94.1324
" />
<path d="M127.6500 93.9000
L128.3932 93.9000
" />
<path d="M127.6500 93.9000
L128.3932 93.9000
" />
<path d="M128.3932 93.9000
L128.6256 94.1324
" />
<path d="M129.9972 95.5040
L128.6256 94.1324
" />
<path d="M129.9972 99.3140
L129.9972 95.5040
" />
<path d="M128.3716 100.9396
L129.9972 99.3140
" />
<path d="M128.3716 102.0064
L128.3716 100.9396
" />
<path d="M128.4732 102.1080
L128.3716 102.0064
" />
<path d="M123.2916 93.3004
L123.2916 92.9916
" />
<path d="M123.2916 92.9916
L122.2000 91.9000
" />
<path d="M121.9000 93.5000
L122.2000 93.2000
" />
<path d="M121.9000 93.5000
L119.7864 95.6136
" />
<path d="M119.7864 95.6136
L119.7864 97.6376
" />
<path d="M122.2000 93.2000
L122.2000 91.9000
" />
<path d="M123.2916 94.2340
L123.2916 93.3004
" />
<path d="M123.6472 94.5896
L123.2916 94.2340
" />
<path d="M125.9840 94.5896
L123.6472 94.5896
" />
<path d="M126.3396 94.9452
L125.9840 94.5896
" />
<path d="M118.7196 98.7044
L118.7196 102.7684
" />
<path d="M119.7864 97.6376
L118.7196 98.7044
" />
<path style="fill:#000000; fill-opacity:1.0000; stroke:none;fill-rule:evenodd;"
d="M 130.3214,91.1349
130.3626,91.1624
130.3901,91.2036
130.3998,91.2522
130.3998,91.6586
130.3901,91.7072
130.3626,91.7484
130.3214,91.7759
130.2728,91.7856
130.2242,91.7759
130.1830,91.7484
130.1829,91.7483
130.1656,91.7310
130.0919,91.7004
129.9868,91.7003
128.6126,91.7003
128.5388,91.7308
128.4823,91.7872
128.4516,91.8609
128.4516,91.9660
128.4516,93.4961
128.4419,93.5447
128.4144,93.5859
128.3732,93.6135
128.3246,93.6231
128.0956,93.6231
128.0470,93.6135
128.0058,93.5859
128.0058,93.5859
127.9187,93.4986
127.7446,93.4264
127.6376,93.4263
127.6376,93.4263
127.5562,93.4262
127.3820,93.4982
127.2486,93.6313
127.1764,93.8054
127.1763,93.9036
127.1666,93.9521
127.1390,93.9933
127.0978,94.0208
127.0492,94.0304
127.0245,94.0280
126.9875,94.0206
124.5020,94.0206
124.4534,94.0110
124.4122,93.9834
124.3847,93.9422
124.3750,93.8936
124.3750,93.8935
124.3750,93.8862
124.3030,93.7120
124.1699,93.5786
123.9958,93.5064
123.8074,93.5062
123.7440,93.5324
123.6953,93.5420
123.6468,93.5323
123.6056,93.5048
123.5781,93.4635
123.5685,93.4150
123.5685,93.0199
123.5781,92.9713
123.6057,92.9301
123.6057,92.9300
123.6692,92.8666
123.7006,92.7911
123.7006,92.7907
124.5593,92.7907
124.5905,92.8663
124.6484,92.9242
124.7239,92.9556
124.8057,92.9557
124.8813,92.9245
124.9392,92.8666
124.9610,92.8144
125.3807,92.8144
125.3807,93.5892
125.4112,93.6630
125.4676,93.7195
125.5413,93.7501
125.6464,93.7502
126.1621,93.7502
126.2359,93.7197
126.2924,93.6633
126.3231,93.5896
126.3231,93.4845
126.3231,92.7907
127.0993,92.7907
127.1305,92.8663
127.1884,92.9242
127.2639,92.9556
127.3457,92.9557
127.4213,92.9245
127.4792,92.8666
127.5106,92.7911
127.5107,92.7093
127.4795,92.6337
127.4216,92.5758
127.3461,92.5444
127.2643,92.5443
127.1887,92.5755
127.1308,92.6334
127.0994,92.7089
127.0993,92.7907
126.3231,92.7907
126.3231,92.7097
126.2926,92.6359
126.2362,92.5794
126.1625,92.5487
126.1117,92.5487
126.0901,92.5444
125.9805,92.5443
125.9585,92.5487
125.5417,92.5487
125.4679,92.5792
125.4114,92.6356
125.3808,92.7093
125.3807,92.8144
124.9610,92.8144
124.9706,92.7911
124.9707,92.7093
124.9395,92.6337
124.8816,92.5758
124.8061,92.5444
124.7243,92.5443
124.6487,92.5755
124.5908,92.6334
124.5594,92.7089
124.5593,92.7907
123.7006,92.7907
123.7007,92.7093
123.6695,92.6337
123.6116,92.5758
123.5361,92.5444
123.4543,92.5443
123.3781,92.5758
123.3295,92.5854
123.2809,92.5757
123.2398,92.5482
122.9875,92.2960
122.9600,92.2548
122.9503,92.2062
122.9600,92.1576
122.9600,92.1575
123.0005,92.0600
123.0008,91.7414
122.8792,91.4471
122.7742,91.3419
122.7467,91.3007
122.7371,91.2521
122.7468,91.2035
122.7744,91.1623
122.8156,91.1348
122.8641,91.1252
130.2728,91.1252
Z" /> 
<path style="fill:#000000; fill-opacity:1.0000; stroke:none;fill-rule:evenodd;"
d="M 126.9554,94.6274
126.9965,94.6549
127.1092,94.7675
127.2047,94.8314
127.3173,94.8538
128.1588,94.8538
128.2074,94.8634
128.2486,94.8910
128.5401,95.1825
128.5677,95.2237
128.5773,95.2723
128.5773,96.4440
128.5997,96.5566
128.6636,96.6521
128.9211,96.9097
128.9487,96.9509
128.9583,96.9995
128.9583,98.1572
128.9487,98.2058
128.9211,98.2470
128.9211,98.2471
128.8211,98.3468
128.7489,98.5209
128.7487,98.7093
128.8207,98.8835
128.9538,99.0169
129.1279,99.0891
129.3163,99.0893
129.4905,99.0173
129.5036,99.0042
129.5448,98.9767
129.5935,98.9671
129.6420,98.9768
129.6832,99.0044
129.7107,99.0456
129.7203,99.0941
129.7203,99.1467
129.7107,99.1953
129.6831,99.2365
128.1847,100.7350
128.1181,100.8346
128.0994,100.9288
128.0804,100.9746
128.0454,101.0096
127.9996,101.0286
127.9500,101.0286
127.9043,101.0096
127.8850,100.9938
127.5942,100.7031
127.5667,100.6619
127.5570,100.6133
127.5667,100.5647
127.5942,100.5234
127.6354,100.4959
127.6840,100.4863
127.6842,100.4863
127.7288,100.4863
127.9030,100.4143
128.0364,100.2812
128.1086,100.1071
128.1088,99.9187
128.0368,99.7445
127.8958,99.6033
127.8728,99.5878
127.8453,99.5466
127.8357,99.4981
127.8357,97.0418
127.8453,96.9932
127.8729,96.9520
127.8729,96.9519
127.9729,96.8522
128.0451,96.6781
128.0453,96.4897
127.9733,96.3155
127.8402,96.1821
127.6661,96.1099
127.4777,96.1097
127.3035,96.1817
127.1701,96.3148
127.0979,96.4889
127.0977,96.6489
127.0880,96.6975
127.0605,96.7386
127.0192,96.7661
126.9706,96.7757
126.9220,96.7660
126.8809,96.7386
125.8240,95.6817
125.7285,95.6178
125.6159,95.5954
124.3496,95.5954
124.3010,95.5858
124.2598,95.5582
124.2323,95.5170
124.2226,95.4684
124.2226,95.4683
124.2226,95.4610
124.1506,95.2868
124.0175,95.1534
123.9147,95.1107
123.8735,95.0832
123.8460,95.0420
123.8364,94.9933
123.8461,94.9448
123.8737,94.9036
123.9149,94.8761
123.9634,94.8665
125.7388,94.8665
125.7874,94.8761
125.8286,94.9037
125.8562,94.9449
125.8658,94.9935
125.8658,94.9936
125.8658,95.0390
125.9378,95.2132
126.0709,95.3466
126.2450,95.4188
126.4334,95.4190
126.6076,95.3470
126.7410,95.2139
126.8132,95.0398
126.8134,94.8514
126.7894,94.7932
126.7797,94.7446
126.7894,94.6960
126.8170,94.6548
126.8582,94.6273
126.9068,94.6177
Z" /> 
<path style="fill:#000000; fill-opacity:1.0000; stroke:none;fill-rule:evenodd;"
d="M 136.1710,91.1349
136.2122,91.1624
136.2397,91.2036
136.2494,91.2522
136.2494,106.7728
136.2397,106.8214
136.2122,106.8626
136.1710,106.8901
136.1224,106.8998
131.7272,106.8998
131.6786,106.8901
131.6374,106.8626
131.6099,106.8214
131.6002,106.7728
131.6002,106.1125
131.5788,106.0052
131.5252,105.9248
131.4448,105.8712
131.3375,105.8498
130.6625,105.8498
130.5552,105.8712
130.4748,105.9248
130.4212,106.0052
130.3998,106.1125
130.3998,106.7728
130.3901,106.8214
130.3626,106.8626
130.3214,106.8901
130.2728,106.8998
127.9297,106.8998
127.8811,106.8901
127.8399,106.8626
127.8124,106.8214
127.8027,106.7728
127.8027,105.8110
127.7722,105.7372
127.7158,105.6807
127.6421,105.6501
127.5370,105.6500
126.9121,105.6500
126.8382,105.6805
126.7817,105.7369
126.7693,105.7668
126.7418,105.8079
126.7005,105.8354
126.6519,105.8451
126.6033,105.8353
126.5621,105.8078
126.5347,105.7666
126.5225,105.7372
126.4661,105.6807
126.3696,105.6406
126.3285,105.6131
126.3010,105.5718
126.2913,105.5233
126.2913,105.3764
126.3010,105.3278
126.3285,105.2866
126.5792,105.0360
126.6204,105.0084
126.6443,105.0012
126.6937,104.9914
126.7892,104.9275
127.9907,103.7260
128.0546,103.6305
128.0575,103.6157
128.9748,103.6157
128.9748,104.8909
129.0053,104.9647
129.0617,105.0212
129.1354,105.0518
129.2405,105.0519
129.6648,105.0519
129.7386,105.0214
129.7951,104.9650
129.8257,104.8913
129.8258,104.7862
129.8258,104.7122
132.0107,104.7122
132.0829,105.0753
132.2885,105.3831
132.5963,105.5888
132.9719,105.6635
135.0273,105.6635
135.4029,105.5888
135.7107,105.3831
135.9163,105.0753
135.9885,104.7122
135.9163,104.3492
135.7107,104.0414
135.4029,103.8357
135.0273,103.7610
132.9719,103.7610
132.5963,103.8357
132.2885,104.0414
132.0829,104.3492
132.0107,104.7122
129.8258,104.7122
129.8258,103.5110
129.7953,103.4372
129.7389,103.3807
129.6652,103.3501
129.5601,103.3500
129.1358,103.3500
129.0620,103.3805
129.0055,103.4369
128.9749,103.5106
128.9748,103.6157
128.0575,103.6157
128.0770,103.5179
128.0770,102.6466
128.0866,102.5980
128.1142,102.5568
128.1554,102.5293
128.2040,102.5196
128.2526,102.5293
128.2527,102.5294
128.3786,102.5816
128.5670,102.5818
128.7412,102.5098
128.7581,102.4930
128.7993,102.4655
128.8479,102.4559
128.8965,102.4656
128.9377,102.4931
128.9652,102.5344
128.9748,102.5829
128.9748,102.8894
129.0053,102.9632
129.0617,103.0197
129.1354,103.0503
129.2405,103.0504
129.6648,103.0504
129.7386,103.0199
129.7951,102.9635
129.8257,102.8898
129.8258,102.7847
129.8258,101.5095
129.7953,101.4357
129.7389,101.3792
129.6652,101.3486
129.5601,101.3485
129.1358,101.3485
129.0620,101.3790
129.0055,101.4354
128.9749,101.5091
128.9748,101.6142
128.9748,101.6330
128.9651,101.6816
128.9376,101.7228
128.8964,101.7503
128.8478,101.7600
128.7992,101.7503
128.7580,101.7228
128.7579,101.7227
128.7419,101.7066
128.7268,101.7004
128.6856,101.6728
128.6581,101.6316
128.6485,101.5831
128.6485,101.1069
128.6581,101.0583
128.6857,101.0171
130.1841,99.5186
130.2107,99.4788
130.6988,99.4788
130.6988,100.6524
130.7293,100.7262
130.7857,100.7827
130.8594,100.8133
130.9645,100.8134
132.9382,100.8134
133.0120,100.7829
133.0685,100.7265
133.0991,100.6528
133.0992,100.6114
133.1089,100.5628
133.1364,100.5216
133.1777,100.4941
133.2263,100.4845
133.2342,100.4861
133.4084,100.4863
133.4570,100.4960
133.4981,100.5235
133.5256,100.5648
133.5352,100.6134
133.5255,100.6620
133.4980,100.7031
133.3637,100.8372
133.2492,101.1130
133.2489,101.4116
133.3629,101.6875
133.5498,101.8748
133.5773,101.9160
133.5870,101.9646
133.5772,102.0132
133.5497,102.0544
133.5085,102.0819
133.4598,102.0915
133.3578,102.0914
133.2747,102.1257
133.2261,102.1354
133.1775,102.1256
133.1363,102.0981
133.1089,102.0569
133.0992,102.0084
133.0992,101.8735
133.0687,101.7997
133.0123,101.7432
132.9386,101.7125
132.8335,101.7125
130.8598,101.7125
130.7860,101.7430
130.7295,101.7994
130.6989,101.8731
130.6988,101.9782
130.6988,103.1517
130.7293,103.2256
130.7857,103.2821
130.8594,103.3127
130.9645,103.3128
132.9382,103.3128
133.0120,103.2823
133.0685,103.2259
133.0991,103.1521
133.0992,103.1219
133.1089,103.0733
133.1364,103.0321
133.1777,103.0047
133.2263,102.9950
133.2749,103.0047
133.2749,103.0047
133.3570,103.0388
133.5454,103.0390
133.7196,102.9670
133.8530,102.8339
133.9252,102.6598
133.9254,102.4714
133.8534,102.2972
133.7864,102.2301
133.7589,102.1889
133.7493,102.1403
133.7590,102.0917
133.7866,102.0505
133.8278,102.0230
133.8764,102.0134
134.1482,102.0136
134.4242,101.8996
134.6355,101.6886
134.7500,101.4129
134.7503,101.1143
134.6363,100.8383
134.4253,100.6270
134.1496,100.5125
133.8268,100.5122
133.7782,100.5025
133.7370,100.4749
133.7095,100.4337
133.6999,100.3851
133.7096,100.3365
133.7372,100.2953
133.7372,100.2953
133.7514,100.2812
133.8236,100.1071
133.8238,99.9187
133.7518,99.7445
133.6187,99.6111
133.4446,99.5389
133.2361,99.5387
133.2261,99.5407
133.1775,99.5310
133.1363,99.5034
133.1089,99.4622
133.0992,99.4137
133.0992,99.3741
133.0687,99.3003
133.0123,99.2438
132.9386,99.2132
132.8335,99.2131
130.8598,99.2131
130.7860,99.2436
130.7295,99.3000
130.6989,99.3737
130.6988,99.4788
130.2107,99.4788
130.2507,99.4190
130.2741,99.3015
130.2741,97.4621
130.6988,97.4621
130.6988,98.6356
130.7293,98.7094
130.7857,98.7659
130.8594,98.7966
130.9645,98.7966
132.9382,98.7966
133.0120,98.7661
133.0685,98.7097
133.0991,98.6360
133.0992,98.5794
133.1089,98.5308
133.1365,98.4896
133.1777,98.4622
133.2263,98.4525
133.2342,98.4541
133.4438,98.4543
133.6180,98.3823
133.7514,98.2492
133.8236,98.0751
133.8238,97.8867
133.7428,97.6907
133.7410,97.6880
133.7314,97.6394
133.7411,97.5908
133.7687,97.5496
133.8099,97.5221
133.8585,97.5125
133.8585,97.5125
134.1482,97.5127
134.4242,97.3987
134.6355,97.1878
134.7500,96.9120
134.7503,96.6134
134.6363,96.3374
134.4253,96.1261
134.1496,96.0116
133.8510,96.0113
133.5821,96.1224
133.5335,96.1321
133.4849,96.1224
133.4437,96.0948
133.4162,96.0536
133.4066,96.0050
133.4066,96.0049
133.4066,95.9861
133.4065,95.8508
133.3222,95.7664
132.1530,95.7664
132.1530,96.5355
132.2374,96.6198
132.9991,96.6199
133.0736,96.5891
133.1222,96.5795
133.1708,96.5892
133.2120,96.6168
133.2395,96.6580
133.2491,96.7066
133.2489,96.9107
133.3629,97.1867
133.4662,97.2901
133.4937,97.3313
133.5033,97.3799
133.4936,97.4285
133.4660,97.4697
133.4248,97.4972
133.3762,97.5068
133.2361,97.5067
133.2261,97.5087
133.1775,97.4990
133.1363,97.4714
133.1089,97.4302
133.0992,97.3817
133.0992,97.3574
133.0687,97.2835
133.0123,97.2270
132.9386,97.1964
132.8335,97.1963
130.8598,97.1963
130.7860,97.2268
130.7295,97.2832
130.6989,97.3570
130.6988,97.4621
130.2741,97.4621
130.2741,96.5115
130.2837,96.4629
130.3113,96.4216
130.3525,96.3941
130.4011,96.3845
130.4497,96.3941
130.4908,96.4216
130.6121,96.5427
130.7990,96.6199
131.5607,96.6198
131.6450,96.5355
131.6450,95.7034
131.6347,95.6880
131.6250,95.6394
131.6250,95.3854
131.6347,95.3368
131.6450,95.3213
131.6450,94.4893
131.5607,94.4049
130.7990,94.4048
130.6121,94.4820
130.4691,94.6248
130.3916,94.8114
130.3914,95.0388
130.3915,95.2001
130.3819,95.2487
130.3544,95.2899
130.3132,95.3175
130.2646,95.3272
130.2160,95.3175
130.1748,95.2900
130.1747,95.2900
128.9025,94.0178
128.8750,93.9766
128.8653,93.9280
128.8750,93.8794
128.9025,93.8382
128.9437,93.8107
128.9923,93.8010
130.0915,93.8010
130.1653,93.7705
130.2218,93.7141
130.2524,93.6404
130.2525,93.5353
130.2525,93.3127
132.0107,93.3127
132.0829,93.6758
132.2885,93.9836
132.5710,94.1723
132.6060,94.2073
132.6250,94.2531
132.6250,94.3027
132.6060,94.3484
132.5710,94.3835
132.5252,94.4024
132.5004,94.4049
132.2374,94.4049
132.1530,94.4893
132.1530,95.2584
133.3222,95.2584
133.4065,95.1740
133.4066,95.0388
133.4064,94.8114
133.3289,94.6248
133.1847,94.4808
133.1571,94.4397
133.1474,94.3911
133.1571,94.3425
133.1846,94.3012
133.2257,94.2737
133.2743,94.2640
135.0273,94.2640
135.4029,94.1893
135.7107,93.9836
135.9163,93.6758
135.9885,93.3127
135.9163,92.9497
135.7107,92.6419
135.4029,92.4362
135.0273,92.3615
132.9719,92.3615
132.5963,92.4362
132.2885,92.6419
132.0829,92.9497
132.0107,93.3127
130.2525,93.3127
130.2525,92.1611
130.2622,92.1125
130.2897,92.0713
130.3309,92.0438
130.3795,92.0341
130.4281,92.0438
130.4693,92.0713
130.4697,92.0717
130.5552,92.1288
130.6625,92.1502
131.3375,92.1502
131.4448,92.1288
131.5252,92.0752
131.5788,91.9948
131.6002,91.8875
131.6002,91.2522
131.6099,91.2036
131.6374,91.1624
131.6786,91.1349
131.7272,91.1252
136.1224,91.1252
Z" /> 
<path style="fill:#000000; fill-opacity:1.0000; stroke:none;fill-rule:evenodd;"
d="M 119.5845,91.1349
119.6257,91.1624
119.6532,91.2036
119.6629,91.2522
119.6532,91.3008
119.6257,91.3420
119.6256,91.3421
119.5216,91.4459
119.3995,91.7400
119.3992,92.0586
119.5208,92.3529
119.7459,92.5784
120.0400,92.7005
120.1535,92.7006
120.2021,92.7103
120.2433,92.7379
120.2707,92.7791
120.2804,92.8276
120.2804,93.5892
120.3109,93.6630
120.3673,93.7195
120.4410,93.7501
120.5461,93.7502
120.9517,93.7502
121.0003,93.7599
121.0415,93.7874
121.0690,93.8286
121.0787,93.8772
121.0690,93.9258
121.0415,93.9670
119.5995,95.4090
119.5329,95.5086
119.5095,95.6261
119.5095,97.1920
119.4999,97.2406
119.4723,97.2818
119.4723,97.2818
119.3850,97.3689
119.3128,97.5430
119.3127,97.6673
119.3030,97.7159
119.2755,97.7570
118.5327,98.4998
118.4661,98.5994
118.4427,98.7169
118.4427,102.3228
118.4331,102.3714
118.4055,102.4126
118.4055,102.4126
118.3182,102.4997
118.2972,102.5504
118.2460,102.6738
118.2458,102.8622
118.3178,103.0364
118.4509,103.1698
118.6250,103.2420
118.8134,103.2422
118.9876,103.1702
119.1210,103.0371
119.1932,102.8630
119.1934,102.6746
119.1214,102.5004
119.0336,102.4124
119.0061,102.3712
118.9965,102.3227
118.9965,101.9490
121.4735,101.9490
121.6555,102.0127
121.9215,101.9978
122.0264,101.9544
122.0261,101.9490
122.4743,101.9490
122.6562,102.0127
122.9222,101.9978
123.0271,101.9544
123.0269,101.9490
123.4751,101.9490
123.6570,102.0127
123.9230,101.9978
124.0279,101.9544
124.0254,101.9075
123.7513,101.6334
123.4772,101.9075
123.4751,101.9490
123.0269,101.9490
123.0247,101.9075
122.7506,101.6334
122.4765,101.9075
122.4743,101.9490
122.0261,101.9490
122.0239,101.9075
121.7498,101.6334
121.7319,101.6513
121.4757,101.9075
121.4735,101.9490
118.9965,101.9490
118.9965,101.2517
121.0831,101.2517
121.0980,101.5176
121.1414,101.6226
121.1884,101.6201
121.4625,101.3460
121.1884,101.0719
121.1469,101.0697
121.0831,101.2517
118.9965,101.2517
118.9965,100.2509
121.0831,100.2509
121.0980,100.5169
121.1414,100.6218
121.1884,100.6193
121.4625,100.3452
121.1884,100.0711
121.1469,100.0690
121.0831,100.2509
118.9965,100.2509
118.9965,99.7369
121.4733,99.7369
121.4771,99.8089
121.4842,99.8449
121.4771,99.8808
121.4735,99.9474
121.6664,100.0150
121.6929,100.0188
121.7356,100.0440
121.7408,100.0488
121.7602,100.0683
121.7999,100.0604
121.8485,100.0701
121.8897,100.0976
121.8897,100.0976
121.9974,100.2054
122.0250,100.2466
122.0346,100.2952
122.0250,100.3438
122.0240,100.3452
122.0250,100.3467
122.0346,100.3953
122.0250,100.4439
121.9974,100.4851
121.8897,100.5929
121.8485,100.6204
121.7999,100.6301
121.7602,100.6222
121.7319,100.6506
121.7319,100.6506
121.7291,100.6533
121.6879,100.6809
121.6464,100.6903
121.5782,100.6942
121.4733,100.7376
121.4771,100.8097
121.4842,100.8456
121.4771,100.8816
121.4735,100.9482
121.6664,101.0158
121.6929,101.0195
121.7356,101.0447
121.7408,101.0496
121.7602,101.0691
121.7999,101.0612
121.8485,101.0708
121.8897,101.0984
121.8897,101.0984
121.9974,101.2061
122.0250,101.2473
122.0346,101.2959
122.0268,101.3356
122.0579,101.3667
122.0855,101.4079
122.0949,101.4495
122.0987,101.5176
122.1422,101.6226
122.2143,101.6188
122.2502,101.6116
122.2861,101.6188
122.3528,101.6223
122.4204,101.4294
122.4241,101.4029
122.4493,101.3602
122.4542,101.3550
122.4736,101.3356
122.4658,101.2959
122.4754,101.2473
122.5029,101.2061
122.6107,101.0984
122.6519,101.0708
122.7005,101.0612
122.7491,101.0708
122.7506,101.0718
122.7520,101.0708
122.8006,101.0612
122.8492,101.0708
122.8904,101.0984
122.8904,101.0984
122.9982,101.2061
123.0257,101.2473
123.0354,101.2959
123.0275,101.3356
123.0587,101.3667
123.0862,101.4079
123.0957,101.4495
123.0995,101.5176
123.1430,101.6226
123.2150,101.6188
123.2510,101.6116
123.2869,101.6188
123.3535,101.6223
123.4211,101.4294
123.4249,101.4029
123.4501,101.3602
123.4549,101.3550
123.4640,101.3460
124.0387,101.3460
124.3128,101.6201
124.3543,101.6223
124.4180,101.4403
124.4032,101.1744
124.3597,101.0694
124.3128,101.0719
124.2493,101.1355
124.0387,101.3460
123.4640,101.3460
123.4744,101.3356
123.4665,101.2959
123.4762,101.2473
123.5037,101.2061
123.6115,101.0984
123.6527,101.0708
123.7013,101.0612
123.7409,101.0691
123.7721,101.0379
123.8133,101.0104
123.8548,101.0009
123.9230,100.9971
124.0279,100.9536
124.0241,100.8816
124.0170,100.8456
124.0241,100.8097
124.0276,100.7430
123.8347,100.6755
123.8082,100.6717
123.7655,100.6465
123.7604,100.6417
123.7409,100.6222
123.7013,100.6301
123.6527,100.6204
123.6115,100.5929
123.5037,100.4851
123.4762,100.4439
123.4665,100.3953
123.4762,100.3467
123.4772,100.3452
124.0387,100.3452
124.3128,100.6193
124.3543,100.6215
124.4180,100.4396
124.4032,100.1736
124.3597,100.0687
124.3128,100.0711
124.0387,100.3452
123.4772,100.3452
123.4772,100.3452
123.4762,100.3438
123.4665,100.2952
123.4762,100.2466
123.5037,100.2054
123.6115,100.0976
123.6527,100.0701
123.7013,100.0604
123.7409,100.0683
123.7721,100.0371
123.8133,100.0096
123.8548,100.0001
123.9230,99.9963
124.0279,99.9529
124.0241,99.8808
124.0170,99.8449
124.0241,99.8089
124.0276,99.7423
123.8347,99.6747
123.8082,99.6709
123.7655,99.6458
123.7604,99.6409
123.7409,99.6214
123.7013,99.6293
123.6527,99.6196
123.6115,99.5921
123.5037,99.4843
123.4762,99.4431
123.4665,99.3945
123.4744,99.3549
123.4640,99.3445
124.0387,99.3445
124.3128,99.6186
124.3543,99.6208
124.4180,99.4388
124.4032,99.1728
124.3597,99.0679
124.3128,99.0704
124.2493,99.1339
124.0387,99.3445
123.4640,99.3445
123.4432,99.3237
123.4157,99.2825
123.4062,99.2410
123.4024,99.1728
123.3590,99.0679
123.2869,99.0717
123.2510,99.0789
123.2150,99.0717
123.1520,99.0684
123.1520,99.0684
123.1484,99.0682
123.0808,99.2611
123.0770,99.2876
123.0519,99.3303
123.0470,99.3354
123.0275,99.3549
123.0354,99.3945
123.0257,99.4431
122.9982,99.4843
122.8904,99.5921
122.8492,99.6196
122.8006,99.6293
122.7520,99.6196
122.7506,99.6187
122.7491,99.6196
122.7005,99.6293
122.6519,99.6196
122.6107,99.5921
122.5029,99.4843
122.4754,99.4431
122.4658,99.3945
122.4736,99.3549
122.4425,99.3237
122.4149,99.2825
122.4055,99.2410
122.4017,99.1728
122.3582,99.0679
122.2861,99.0717
122.2502,99.0789
122.2143,99.0717
122.1512,99.0684
122.1512,99.0684
122.1476,99.0682
122.0800,99.2611
122.0763,99.2876
122.0511,99.3303
122.0462,99.3354
122.0268,99.3549
122.0346,99.3945
122.0250,99.4431
121.9974,99.4843
121.8897,99.5921
121.8485,99.6196
121.7999,99.6293
121.7602,99.6214
121.7319,99.6498
121.7319,99.6498
121.7291,99.6526
121.6879,99.6801
121.6464,99.6896
121.5782,99.6934
121.4733,99.7369
118.9965,99.7369
118.9965,99.2501
121.0831,99.2501
121.0980,99.5161
121.1414,99.6210
121.1884,99.6186
121.4625,99.3445
121.1884,99.0704
121.1469,99.0682
121.0831,99.2501
118.9965,99.2501
118.9965,98.8717
119.0061,98.8231
119.0337,98.7819
119.0794,98.7361
121.4733,98.7361
121.4757,98.7830
121.7498,99.0571
122.0239,98.7830
122.0261,98.7415
122.0106,98.7361
122.4740,98.7361
122.4765,98.7830
122.7506,99.0571
123.0247,98.7830
123.0269,98.7415
123.0114,98.7361
123.4748,98.7361
123.4772,98.7830
123.7513,99.0571
124.0254,98.7830
124.0276,98.7415
123.8457,98.6778
123.5797,98.6926
123.4748,98.7361
123.0114,98.7361
122.8449,98.6778
122.5789,98.6926
122.4740,98.7361
122.0106,98.7361
121.8442,98.6778
121.5782,98.6926
121.4733,98.7361
119.0794,98.7361
119.6671,98.1485
119.7083,98.1210
119.7569,98.1113
119.7570,98.1113
119.8802,98.1114
120.0544,98.0394
120.1878,97.9063
120.2600,97.7322
120.2602,97.5438
120.1882,97.3696
120.1004,97.2816
120.0729,97.2404
120.0633,97.1919
120.0633,95.7809
120.0729,95.7323
120.1005,95.6911
122.0958,93.6958
122.0958,93.6958
122.3869,93.4046
122.4535,93.3050
122.4769,93.1875
122.4769,92.8750
122.4865,92.8264
122.5141,92.7852
122.5553,92.7577
122.6039,92.7480
122.6525,92.7577
122.6937,92.7852
122.9775,93.0691
123.0051,93.1103
123.0147,93.1589
123.0147,94.2215
123.0381,94.3390
123.1047,94.4386
123.4426,94.7765
123.5422,94.8431
123.5958,94.8537
123.6415,94.8727
123.6766,94.9077
123.6955,94.9535
123.6955,95.0031
123.6766,95.0489
123.6415,95.0839
123.6195,95.0957
123.4808,95.1530
123.3474,95.2861
123.2752,95.4602
123.2750,95.6486
123.3482,95.8257
123.3722,95.8618
123.3819,95.9104
123.3722,95.9590
123.3490,95.9936
123.2752,96.1714
123.2750,96.3830
123.2653,96.4315
123.2377,96.4727
123.1965,96.5002
123.1480,96.5098
122.6831,96.5098
122.6345,96.5002
122.5933,96.4726
122.5932,96.4726
122.4935,96.3726
122.3194,96.3004
122.1310,96.3002
121.9568,96.3722
121.8234,96.5053
121.7512,96.6794
121.7510,96.8678
121.8230,97.0420
121.9561,97.1754
122.1302,97.2476
122.3186,97.2478
122.4928,97.1758
122.5935,97.0753
122.6347,97.0478
122.6832,97.0382
125.5680,97.0382
125.6166,97.0478
125.6578,97.0754
126.1906,97.6082
126.2182,97.6494
126.2278,97.6980
126.2278,100.9779
126.2502,101.0905
126.3141,101.1860
126.3885,101.2605
126.4160,101.3017
126.4257,101.3503
126.4160,101.3989
126.3885,101.4401
126.3884,101.4402
126.2430,101.5853
126.1708,101.7594
126.1706,101.9478
126.2426,102.1220
126.3431,102.2227
126.3706,102.2639
126.3802,102.3124
126.3802,103.0636
126.3706,103.1122
126.3430,103.1534
125.9118,103.5846
125.8706,103.6122
125.8220,103.6218
121.3737,103.6218
121.2611,103.6442
121.1656,103.7081
120.7489,104.1247
120.6851,104.2202
120.6627,104.3328
120.6627,105.5234
120.6530,105.5720
120.6255,105.6133
120.5843,105.6408
120.5842,105.6408
120.4882,105.6805
120.4317,105.7369
120.4011,105.8106
120.4010,105.9157
120.4010,106.7728
120.3914,106.8214
120.3638,106.8626
120.3226,106.8901
120.2740,106.8998
115.1022,106.8998
115.0536,106.8901
115.0124,106.8626
114.9849,106.8214
114.9752,106.7728
114.9752,101.3581
114.9849,101.3095
115.0124,101.2683
115.0536,101.2408
115.1022,101.2311
115.1508,101.2408
115.1920,101.2683
115.2195,101.3095
115.2196,101.3096
115.2386,101.3557
115.2979,101.4152
115.3323,101.4382
115.3598,101.4794
115.3694,101.5279
115.3694,102.4711
115.3918,102.5837
115.4557,102.6792
115.7891,103.0127
115.8167,103.0539
115.8263,103.1025
115.8263,103.1026
115.8262,103.2438
115.8982,103.4180
116.0313,103.5514
116.2054,103.6236
116.3938,103.6238
116.5006,103.5797
116.5492,103.5700
116.5978,103.5797
116.6390,103.6073
116.6665,103.6485
116.6761,103.6970
116.6761,104.8909
116.7066,104.9647
116.7630,105.0212
116.8367,105.0518
116.9418,105.0519
117.3661,105.0519
117.4399,105.0214
117.4964,104.9650
117.5270,104.8913
117.5271,104.7862
117.5271,103.5110
117.4966,103.4372
117.4402,103.3807
117.3665,103.3501
117.2614,103.3500
116.9006,103.3500
116.8520,103.3403
116.8108,103.3128
116.7833,103.2716
116.7736,103.2230
116.7736,103.2229
116.7737,103.1773
116.7834,103.1287
116.8110,103.0875
116.8522,103.0600
116.9008,103.0504
116.9418,103.0504
117.3661,103.0504
117.4399,103.0199
117.4964,102.9635
117.5270,102.8898
117.5271,102.7847
117.5271,101.5095
117.4966,101.4357
117.4402,101.3792
117.3665,101.3486
117.2614,101.3485
116.9989,101.3485
116.9503,101.3388
116.9091,101.3113
116.8815,101.2701
116.8719,101.2215
116.8719,101.2214
116.8719,101.1772
116.8719,100.7021
116.8414,100.6283
116.7850,100.5718
116.7113,100.5412
116.6062,100.5411
116.1819,100.5411
116.0884,100.5798
116.0397,100.5894
115.9912,100.5797
115.8985,100.5412
115.7934,100.5411
115.3691,100.5411
115.2953,100.5716
115.2388,100.6280
115.2195,100.6745
115.1919,100.7157
115.1507,100.7432
115.1021,100.7528
115.0535,100.7431
115.0123,100.7155
114.9848,100.6743
114.9752,100.6258
114.9752,99.8341
114.9849,99.7855
115.0124,99.7443
115.0536,99.7168
115.1022,99.7071
115.1508,99.7168
115.1920,99.7443
115.2195,99.7855
115.2196,99.7856
115.2386,99.8317
115.2950,99.8882
115.3687,99.9188
115.4738,99.9189
115.8981,99.9189
115.9916,99.8802
116.0402,99.8706
116.0888,99.8803
116.0888,99.8803
116.1815,99.9188
116.2866,99.9189
116.7109,99.9189
116.7847,99.8884
116.8412,99.8320
116.8718,99.7583
116.8719,99.6532
116.8719,99.1781
116.8414,99.1043
116.7850,99.0478
116.7113,99.0172
116.6062,99.0171
116.1819,99.0171
116.0884,99.0558
116.0397,99.0654
115.9912,99.0557
115.8985,99.0172
115.7934,99.0171
115.3691,99.0171
115.2953,99.0476
115.2388,99.1040
115.2195,99.1505
115.1919,99.1917
115.1507,99.2192
115.1021,99.2288
115.0535,99.2191
115.0123,99.1915
114.9848,99.1503
114.9752,99.1018
114.9752,91.8644
116.2519,91.8644
116.2519,93.5384
116.2824,93.6122
116.3388,93.6687
116.4126,93.6993
116.5177,93.6994
117.8919,93.6994
117.9657,93.6689
118.0222,93.6125
118.0528,93.5388
118.0529,93.4337
118.0529,91.7597
118.0224,91.6859
117.9660,91.6294
117.8923,91.5988
117.7872,91.5987
116.4130,91.5987
116.3391,91.6292
116.2826,91.6856
116.2520,91.7593
116.2519,91.8644
114.9752,91.8644
114.9752,91.2522
114.9849,91.2036
115.0124,91.1624
115.0536,91.1349
115.1022,91.1252
119.5359,91.1252
Z" /> 
<path style="fill:#000000; fill-opacity:1.0000; stroke:none;fill-rule:evenodd;"
d="M 122.8492,100.0701
122.8904,100.0976
122.8904,100.0976
122.9982,100.2054
123.0257,100.2466
123.0354,100.2952
123.0257,100.3438
123.0248,100.3452
123.0257,100.3467
123.0354,100.3953
123.0257,100.4439
122.9982,100.4851
122.8904,100.5929
122.8492,100.6204
122.8006,100.6301
122.7520,100.6204
122.7506,100.6194
122.7491,100.6204
122.7005,100.6301
122.6519,100.6204
122.6107,100.5929
122.5029,100.4851
122.4754,100.4439
122.4658,100.3953
122.4754,100.3467
122.4764,100.3452
122.4754,100.3438
122.4658,100.2952
122.4754,100.2466
122.5029,100.2054
122.6107,100.0976
122.6519,100.0701
122.7005,100.0604
122.7491,100.0701
122.7506,100.0711
122.7520,100.0701
122.8006,100.0604
Z" /> 
</g>
<g style="fill:#FFFFFF; fill-opacity:1.0000; stroke:none;">
<circle cx="116.3000" cy="103.1500" r="0.1905" /> 
<circle cx="116.3000" cy="103.1500" r="0.1905" /> 
<circle cx="116.2000" cy="102.1750" r="0.1905" /> 
<circle cx="116.2000" cy="102.1750" r="0.1905" /> 
<circle cx="117.3480" cy="96.9772" r="0.1905" /> 
<circle cx="119.2276" cy="96.9264" r="0.1905" /> 
<circle cx="133.5024" cy="95.1992" r="0.1905" /> 
<circle cx="127.4572" cy="104.6988" r="0.1905" /> 
<circle cx="127.6604" cy="95.4532" r="0.1905" /> 
<circle cx="126.4412" cy="95.8596" r="0.1905" /> 
<circle cx="122.1740" cy="94.5896" r="0.1905" /> 
<circle cx="125.8000" cy="91.6500" r="0.1905" /> 
<circle cx="125.8000" cy="91.6500" r="0.1905" /> 
<circle cx="122.1740" cy="94.5896" r="0.1905" /> 
<circle cx="126.4412" cy="95.8596" r="0.1905" /> 
<circle cx="127.6604" cy="95.4532" r="0.1905" /> 
<circle cx="127.4572" cy="104.6988" r="0.1905" /> 
<circle cx="133.5024" cy="95.1992" r="0.1905" /> 
<circle cx="119.2276" cy="96.9264" r="0.1905" /> 
<circle cx="117.3480" cy="96.9772" r="0.1905" /> 
<circle cx="133.4516" cy="102.5652" r="0.1905" /> 
<circle cx="133.4516" cy="102.5652" r="0.1905" /> 
<circle cx="123.9012" cy="93.9800" r="0.1905" /> 
<circle cx="129.2225" cy="98.6155" r="0.1905" /> 
<circle cx="129.2225" cy="98.6155" r="0.1905" /> 
<circle cx="123.9012" cy="93.9800" r="0.1905" /> 
<circle cx="123.7488" cy="95.5548" r="0.1905" /> 
<circle cx="123.7488" cy="95.5548" r="0.1905" /> 
<circle cx="122.2248" cy="96.7740" r="0.1905" /> 
<circle cx="122.2248" cy="96.7740" r="0.1905" /> 
<circle cx="123.7488" cy="96.2660" r="0.1905" /> 
<circle cx="123.7488" cy="96.2660" r="0.1905" /> 
<circle cx="126.6444" cy="101.8540" r="0.1905" /> 
<circle cx="126.6444" cy="101.8540" r="0.1905" /> 
<circle cx="133.3500" cy="100.0125" r="0.1905" /> 
<circle cx="133.3500" cy="100.0125" r="0.1905" /> 
<circle cx="133.3500" cy="97.9805" r="0.1905" /> 
<circle cx="133.3500" cy="97.9805" r="0.1905" /> 
<circle cx="127.6350" cy="100.0125" r="0.1905" /> 
<circle cx="127.5715" cy="96.5835" r="0.1905" /> 
<circle cx="127.5715" cy="96.5835" r="0.1905" /> 
<circle cx="127.6350" cy="100.0125" r="0.1905" /> 
<circle cx="119.7864" cy="97.6376" r="0.1905" /> 
<circle cx="118.7196" cy="102.7684" r="0.1905" /> 
<circle cx="126.3396" cy="94.9452" r="0.1905" /> 
<circle cx="127.6500" cy="93.9000" r="0.1905" /> 
<circle cx="128.4732" cy="102.1080" r="0.1905" /> 
<circle cx="128.4732" cy="102.1080" r="0.1905" /> 
<circle cx="127.6500" cy="93.9000" r="0.1905" /> 
<circle cx="126.3396" cy="94.9452" r="0.1905" /> 
<circle cx="118.7196" cy="102.7684" r="0.1905" /> 
<circle cx="119.7864" cy="97.6376" r="0.1905" /> 
</g>
<g style="fill:#FFFFFF; fill-opacity:1.0000; stroke:none;">
<circle cx="121.7498" cy="101.3460" r="0.1499" /> 
</g>
<g style="fill:#FFFFFF; fill-opacity:1.0000; stroke:none;">
<circle cx="122.7506" cy="101.3460" r="0.1499" /> 
</g>
<g style="fill:#FFFFFF; fill-opacity:1.0000; stroke:none;">
<circle cx="123.7513" cy="101.3460" r="0.1499" /> 
</g>
<g style="fill:#FFFFFF; fill-opacity:1.0000; stroke:none;">
<circle cx="123.7513" cy="99.3445" r="0.1499" /> 
</g>
<g style="fill:#FFFFFF; fill-opacity:1.0000; stroke:none;">
<circle cx="122.7506" cy="99.3445" r="0.1499" /> 
</g>
<g style="fill:#FFFFFF; fill-opacity:1.0000; stroke:none;">
<circle cx="121.7498" cy="99.3445" r="0.1499" /> 
</g>
<g style="fill:#FFFFFF; fill-opacity:1.0000; stroke:none;">
<circle cx="121.7498" cy="100.3452" r="0.1499" /> 
</g>
<g style="fill:#FFFFFF; fill-opacity:1.0000; stroke:none;">
<circle cx="123.7513" cy="100.3452" r="0.1499" /> 
</g>
<g style="fill:#FFFFFF; fill-opacity:1.0000; stroke:none;">
<circle cx="122.7506" cy="100.3452" r="0.1499" /> 
</g>
<g style="fill:#FFFFFF; fill-opacity:1.0000; stroke:none;">
<circle cx="122.2000" cy="91.9000" r="0.2500" /> 
</g>
<g style="fill:#FFFFFF; fill-opacity:1.0000; stroke:none;">
<circle cx="120.2000" cy="91.9000" r="0.2500" /> 
</g>
<g style="fill:#000000; fill-opacity:1.0000; stroke:none;">
<circle cx="127.3050" cy="92.7500" r="0.0050" /> 
<circle cx="123.4950" cy="92.7500" r="0.0050" /> 
<circle cx="126.0350" cy="92.7500" r="0.0050" /> 
<circle cx="124.7650" cy="92.7500" r="0.0050" /> 
<circle cx="127.3050" cy="92.7500" r="0.0050" /> 
<circle cx="123.4950" cy="92.7500" r="0.0050" /> 
<circle cx="126.0350" cy="92.7500" r="0.0050" /> 
<circle cx="124.7650" cy="92.7500" r="0.0050" /> 
</g>
<g style="fill:#FFFFFF; fill-opacity:1.0000; stroke:none;">
<circle cx="122.2000" cy="91.9000" r="0.2500" /> 
</g>
<g style="fill:#FFFFFF; fill-opacity:1.0000; stroke:none;">
<circle cx="120.2000" cy="91.9000" r="0.2500" /> 
</g>
<g style="fill:#FFFFFF; fill-opacity:1.0000; stroke:none;">
<circle cx="121.7498" cy="101.3460" r="0.1499" /> 
</g>
<g style="fill:#FFFFFF; fill-opacity:1.0000; stroke:none;">
<circle cx="122.7506" cy="101.3460" r="0.1499" /> 
</g>
<g style="fill:#FFFFFF; fill-opacity:1.0000; stroke:none;">
<circle cx="123.7513" cy="101.3460" r="0.1499" /> 
</g>
<g style="fill:#FFFFFF; fill-opacity:1.0000; stroke:none;">
<circle cx="123.7513" cy="99.3445" r="0.1499" /> 
</g>
<g style="fill:#FFFFFF; fill-opacity:1.0000; stroke:none;">
<circle cx="122.7506" cy="99.3445" r="0.1499" /> 
</g>
<g style="fill:#FFFFFF; fill-opacity:1.0000; stroke:none;">
<circle cx="121.7498" cy="99.3445" r="0.1499" /> 
</g>
<g style="fill:#FFFFFF; fill-opacity:1.0000; stroke:none;">
<circle cx="121.7498" cy="100.3452" r="0.1499" /> 
</g>
<g style="fill:#FFFFFF; fill-opacity:1.0000; stroke:none;">
<circle cx="123.7513" cy="100.3452" r="0.1499" /> 
</g>
<g style="fill:#FFFFFF; fill-opacity:1.0000; stroke:none;">
<circle cx="122.7506" cy="100.3452" r="0.1499" /> 
</g>
<g style="fill:#000000; fill-opacity:1.0000; stroke:none;">
<circle cx="133.9996" cy="96.7621" r="0.5499" /> 
<circle cx="133.9996" cy="101.2629" r="0.5499" /> 
</g>
<g style="fill:none; 
stroke:#FFFFFF; stroke-width:1.0008; stroke-opacity:1; 
stroke-linecap:round; stroke-linejoin:round;">
<path d="M134.7489 104.7122
L133.2503 104.7122
" />
</g>
<g style="fill:none; 
stroke:#FFFFFF; stroke-width:1.0008; stroke-opacity:1; 
stroke-linecap:round; stroke-linejoin:round;">
<path d="M134.7489 93.3127
L133.2503 93.3127
" />
</g> 
</svg>
