<?xml version="1.0" standalone="no"?>
 <!DOCTYPE svg PUBLIC "-//W3C//DTD SVG 1.1//EN" 
 "http://www.w3.org/Graphics/SVG/1.1/DTD/svg11.dtd"> 
<svg xmlns="http://www.w3.org/2000/svg" version="1.1" 
    width="29.7002cm" height="21.0007cm" viewBox="0 0 116930 82680 ">
<title>SVG Picture created as cryptostick-Back.svg date 2023/08/03 15:57:24 </title>
  <desc>Picture generated by PCBNEW </desc>
<g style="fill:#000000; fill-opacity:1;stroke:#000000; stroke-opacity:1;
stroke-linecap:round; stroke-linejoin:round; "
 transform="translate(0 0) scale(1 1)">
</g>
<g style="fill:#000000; fill-opacity:0.0; 
stroke:#000000; stroke-width:0; stroke-opacity:1; 
stroke-linecap:round; stroke-linejoin:round;">
</g>
<g style="fill:#000000; fill-opacity:1.0; 
stroke:#000000; stroke-width:7.87402; stroke-opacity:1; 
stroke-linecap:round; stroke-linejoin:round;">
<polyline style="fill-rule:evenodd;"
points="45436,39662
45613,39662
45613,39859
45436,39859
45436,39662
" /> 
</g>
<g style="fill:#000000; fill-opacity:1.0; 
stroke:#000000; stroke-width:0; stroke-opacity:1; 
stroke-linecap:round; stroke-linejoin:round;">
</g>
<g style="fill:#000000; fill-opacity:1.0; 
stroke:#000000; stroke-width:7.87402; stroke-opacity:1; 
stroke-linecap:round; stroke-linejoin:round;">
<polyline style="fill-rule:evenodd;"
points="45436,39062
45613,39062
45613,39259
45436,39259
45436,39062
" /> 
</g>
<g style="fill:#000000; fill-opacity:1.0; 
stroke:#000000; stroke-width:0; stroke-opacity:1; 
stroke-linecap:round; stroke-linejoin:round;">
</g>
<g style="fill:#000000; fill-opacity:1.0; 
stroke:#000000; stroke-width:7.87402; stroke-opacity:1; 
stroke-linecap:round; stroke-linejoin:round;">
<polyline style="fill-rule:evenodd;"
points="45756,39662
45933,39662
45933,39859
45756,39859
45756,39662
" /> 
</g>
<g style="fill:#000000; fill-opacity:1.0; 
stroke:#000000; stroke-width:0; stroke-opacity:1; 
stroke-linecap:round; stroke-linejoin:round;">
</g>
<g style="fill:#000000; fill-opacity:1.0; 
stroke:#000000; stroke-width:7.87402; stroke-opacity:1; 
stroke-linecap:round; stroke-linejoin:round;">
<polyline style="fill-rule:evenodd;"
points="45756,39062
45933,39062
45933,39259
45756,39259
45756,39062
" /> 
<circle cx="48327" cy="39506" r="56.063" /> 
<circle cx="48721" cy="39506" r="56.063" /> 
<circle cx="47933" cy="39506" r="56.063" /> 
<circle cx="47933" cy="39112" r="56.063" /> 
<circle cx="48327" cy="39112" r="56.063" /> 
<circle cx="48721" cy="39112" r="56.063" /> 
<circle cx="48721" cy="39900" r="56.063" /> 
<circle cx="48327" cy="39900" r="56.063" /> 
<circle cx="47933" cy="39900" r="56.063" /> 
</g>
<g style="fill:#000000; fill-opacity:1.0; 
stroke:#000000; stroke-width:0; stroke-opacity:1; 
stroke-linecap:round; stroke-linejoin:round;">
</g>
<g style="fill:#000000; fill-opacity:1.0; 
stroke:#000000; stroke-width:7.87402; stroke-opacity:1; 
stroke-linecap:round; stroke-linejoin:round;">
<polyline style="fill-rule:evenodd;"
points="49745,42126
49489,42126
49489,41673
49745,41673
49745,42126
" /> 
</g>
<g style="fill:#000000; fill-opacity:1.0; 
stroke:#000000; stroke-width:0; stroke-opacity:1; 
stroke-linecap:round; stroke-linejoin:round;">
</g>
<g style="fill:#000000; fill-opacity:1.0; 
stroke:#000000; stroke-width:7.87402; stroke-opacity:1; 
stroke-linecap:round; stroke-linejoin:round;">
<polyline style="fill-rule:evenodd;"
points="50237,42126
49981,42126
49981,41673
50237,41673
50237,42126
" /> 
</g>
<g style="fill:#000000; fill-opacity:1.0; 
stroke:#000000; stroke-width:0; stroke-opacity:1; 
stroke-linecap:round; stroke-linejoin:round;">
</g>
<g style="fill:#000000; fill-opacity:1.0; 
stroke:#000000; stroke-width:7.87402; stroke-opacity:1; 
stroke-linecap:round; stroke-linejoin:round;">
<polyline style="fill-rule:evenodd;"
points="49243,42126
48987,42126
48987,41673
49243,41673
49243,42126
" /> 
</g>
<g style="fill:#000000; fill-opacity:1.0; 
stroke:#000000; stroke-width:0; stroke-opacity:1; 
stroke-linecap:round; stroke-linejoin:round;">
</g>
<g style="fill:#000000; fill-opacity:1.0; 
stroke:#000000; stroke-width:7.87402; stroke-opacity:1; 
stroke-linecap:round; stroke-linejoin:round;">
<polyline style="fill-rule:evenodd;"
points="48741,42126
48485,42126
48485,41673
48741,41673
48741,42126
" /> 
</g>
<g style="fill:#000000; fill-opacity:1.0; 
stroke:#000000; stroke-width:0; stroke-opacity:1; 
stroke-linecap:round; stroke-linejoin:round;">
</g>
<g style="fill:#000000; fill-opacity:1.0; 
stroke:#000000; stroke-width:7.87402; stroke-opacity:1; 
stroke-linecap:round; stroke-linejoin:round;">
<polyline style="fill-rule:evenodd;"
points="48239,42126
47983,42126
47983,41673
48239,41673
48239,42126
" /> 
</g>
<g style="fill:#000000; fill-opacity:1.0; 
stroke:#000000; stroke-width:0; stroke-opacity:1; 
stroke-linecap:round; stroke-linejoin:round;">
</g>
<g style="fill:#000000; fill-opacity:1.0; 
stroke:#000000; stroke-width:7.87402; stroke-opacity:1; 
stroke-linecap:round; stroke-linejoin:round;">
<polyline style="fill-rule:evenodd;"
points="47737,42126
47481,42126
47481,41673
47737,41673
47737,42126
" /> 
</g>
<g style="fill:#000000; fill-opacity:1.0; 
stroke:#000000; stroke-width:0; stroke-opacity:1; 
stroke-linecap:round; stroke-linejoin:round;">
</g>
<g style="fill:#000000; fill-opacity:1.0; 
stroke:#000000; stroke-width:7.87402; stroke-opacity:1; 
stroke-linecap:round; stroke-linejoin:round;">
<polyline style="fill-rule:evenodd;"
points="51033,41280
50856,41280
50856,40768
51033,40768
51033,41280
" /> 
</g>
<g style="fill:#000000; fill-opacity:1.0; 
stroke:#000000; stroke-width:0; stroke-opacity:1; 
stroke-linecap:round; stroke-linejoin:round;">
</g>
<g style="fill:#000000; fill-opacity:1.0; 
stroke:#000000; stroke-width:7.87402; stroke-opacity:1; 
stroke-linecap:round; stroke-linejoin:round;">
<polyline style="fill-rule:evenodd;"
points="51033,40492
50856,40492
50856,39980
51033,39980
51033,40492
" /> 
</g>
<g style="fill:#000000; fill-opacity:1.0; 
stroke:#000000; stroke-width:0; stroke-opacity:1; 
stroke-linecap:round; stroke-linejoin:round;">
</g>
<g style="fill:#000000; fill-opacity:1.0; 
stroke:#000000; stroke-width:7.87402; stroke-opacity:1; 
stroke-linecap:round; stroke-linejoin:round;">
<polyline style="fill-rule:evenodd;"
points="46191,40492
46014,40492
46014,39980
46191,39980
46191,40492
" /> 
</g>
<g style="fill:#000000; fill-opacity:1.0; 
stroke:#000000; stroke-width:0; stroke-opacity:1; 
stroke-linecap:round; stroke-linejoin:round;">
</g>
<g style="fill:#000000; fill-opacity:1.0; 
stroke:#000000; stroke-width:7.87402; stroke-opacity:1; 
stroke-linecap:round; stroke-linejoin:round;">
<polyline style="fill-rule:evenodd;"
points="46191,41280
46014,41280
46014,40768
46191,40768
46191,41280
" /> 
</g>
<g style="fill:#000000; fill-opacity:1.0; 
stroke:#000000; stroke-width:0; stroke-opacity:1; 
stroke-linecap:round; stroke-linejoin:round;">
</g>
<g style="fill:#000000; fill-opacity:1.0; 
stroke:#000000; stroke-width:7.87402; stroke-opacity:1; 
stroke-linecap:round; stroke-linejoin:round;">
<polyline style="fill-rule:evenodd;"
points="51201,36850
50650,36850
50650,36181
51201,36181
51201,36850
" /> 
</g>
<g style="fill:#000000; fill-opacity:1.0; 
stroke:#000000; stroke-width:0; stroke-opacity:1; 
stroke-linecap:round; stroke-linejoin:round;">
</g>
<g style="fill:#000000; fill-opacity:1.0; 
stroke:#000000; stroke-width:7.87402; stroke-opacity:1; 
stroke-linecap:round; stroke-linejoin:round;">
<polyline style="fill-rule:evenodd;"
points="46398,36810
45847,36810
45847,36141
46398,36141
46398,36810
" /> 
</g>
<g style="fill:#000000; fill-opacity:1.0; 
stroke:#000000; stroke-width:0; stroke-opacity:1; 
stroke-linecap:round; stroke-linejoin:round;">
</g>
<g style="fill:#000000; fill-opacity:1.0; 
stroke:#000000; stroke-width:7.87402; stroke-opacity:1; 
stroke-linecap:round; stroke-linejoin:round;">
<polyline style="fill-rule:evenodd;"
points="49654,36830
49441,36830
49441,36515
49654,36515
49654,36830
" /> 
</g>
<g style="fill:#000000; fill-opacity:1.0; 
stroke:#000000; stroke-width:0; stroke-opacity:1; 
stroke-linecap:round; stroke-linejoin:round;">
</g>
<g style="fill:#000000; fill-opacity:1.0; 
stroke:#000000; stroke-width:7.87402; stroke-opacity:1; 
stroke-linecap:round; stroke-linejoin:round;">
<polyline style="fill-rule:evenodd;"
points="47646,36830
47433,36830
47433,36515
47646,36515
47646,36830
" /> 
<circle cx="47322.8" cy="36181.1" r="232.283" /> 
<circle cx="48110.2" cy="36181.1" r="232.283" /> 
<circle cx="47322.8" cy="36181.1" r="232.283" /> 
<circle cx="48110.2" cy="36181.1" r="232.283" /> 
</g>
<g style="fill:#000000; fill-opacity:1.0; 
stroke:#000000; stroke-width:0; stroke-opacity:1; 
stroke-linecap:round; stroke-linejoin:round;">
</g>
<g style="fill:#000000; fill-opacity:1.0; 
stroke:#000000; stroke-width:7.87402; stroke-opacity:1; 
stroke-linecap:round; stroke-linejoin:round;">
<polyline style="fill-rule:evenodd;"
points="49745,42126
49489,42126
49489,41673
49745,41673
49745,42126
" /> 
</g>
<g style="fill:#000000; fill-opacity:1.0; 
stroke:#000000; stroke-width:0; stroke-opacity:1; 
stroke-linecap:round; stroke-linejoin:round;">
</g>
<g style="fill:#000000; fill-opacity:1.0; 
stroke:#000000; stroke-width:7.87402; stroke-opacity:1; 
stroke-linecap:round; stroke-linejoin:round;">
<polyline style="fill-rule:evenodd;"
points="50237,42126
49981,42126
49981,41673
50237,41673
50237,42126
" /> 
</g>
<g style="fill:#000000; fill-opacity:1.0; 
stroke:#000000; stroke-width:0; stroke-opacity:1; 
stroke-linecap:round; stroke-linejoin:round;">
</g>
<g style="fill:#000000; fill-opacity:1.0; 
stroke:#000000; stroke-width:7.87402; stroke-opacity:1; 
stroke-linecap:round; stroke-linejoin:round;">
<polyline style="fill-rule:evenodd;"
points="49243,42126
48987,42126
48987,41673
49243,41673
49243,42126
" /> 
</g>
<g style="fill:#000000; fill-opacity:1.0; 
stroke:#000000; stroke-width:0; stroke-opacity:1; 
stroke-linecap:round; stroke-linejoin:round;">
</g>
<g style="fill:#000000; fill-opacity:1.0; 
stroke:#000000; stroke-width:7.87402; stroke-opacity:1; 
stroke-linecap:round; stroke-linejoin:round;">
<polyline style="fill-rule:evenodd;"
points="48741,42126
48485,42126
48485,41673
48741,41673
48741,42126
" /> 
</g>
<g style="fill:#000000; fill-opacity:1.0; 
stroke:#000000; stroke-width:0; stroke-opacity:1; 
stroke-linecap:round; stroke-linejoin:round;">
</g>
<g style="fill:#000000; fill-opacity:1.0; 
stroke:#000000; stroke-width:7.87402; stroke-opacity:1; 
stroke-linecap:round; stroke-linejoin:round;">
<polyline style="fill-rule:evenodd;"
points="48239,42126
47983,42126
47983,41673
48239,41673
48239,42126
" /> 
</g>
<g style="fill:#000000; fill-opacity:1.0; 
stroke:#000000; stroke-width:0; stroke-opacity:1; 
stroke-linecap:round; stroke-linejoin:round;">
</g>
<g style="fill:#000000; fill-opacity:1.0; 
stroke:#000000; stroke-width:7.87402; stroke-opacity:1; 
stroke-linecap:round; stroke-linejoin:round;">
<polyline style="fill-rule:evenodd;"
points="47737,42126
47481,42126
47481,41673
47737,41673
47737,42126
" /> 
</g>
<g style="fill:#000000; fill-opacity:1.0; 
stroke:#000000; stroke-width:0; stroke-opacity:1; 
stroke-linecap:round; stroke-linejoin:round;">
</g>
<g style="fill:#000000; fill-opacity:1.0; 
stroke:#000000; stroke-width:7.87402; stroke-opacity:1; 
stroke-linecap:round; stroke-linejoin:round;">
<polyline style="fill-rule:evenodd;"
points="51033,41280
50856,41280
50856,40768
51033,40768
51033,41280
" /> 
</g>
<g style="fill:#000000; fill-opacity:1.0; 
stroke:#000000; stroke-width:0; stroke-opacity:1; 
stroke-linecap:round; stroke-linejoin:round;">
</g>
<g style="fill:#000000; fill-opacity:1.0; 
stroke:#000000; stroke-width:7.87402; stroke-opacity:1; 
stroke-linecap:round; stroke-linejoin:round;">
<polyline style="fill-rule:evenodd;"
points="51033,40492
50856,40492
50856,39980
51033,39980
51033,40492
" /> 
</g>
<g style="fill:#000000; fill-opacity:1.0; 
stroke:#000000; stroke-width:0; stroke-opacity:1; 
stroke-linecap:round; stroke-linejoin:round;">
</g>
<g style="fill:#000000; fill-opacity:1.0; 
stroke:#000000; stroke-width:7.87402; stroke-opacity:1; 
stroke-linecap:round; stroke-linejoin:round;">
<polyline style="fill-rule:evenodd;"
points="46191,40492
46014,40492
46014,39980
46191,39980
46191,40492
" /> 
</g>
<g style="fill:#000000; fill-opacity:1.0; 
stroke:#000000; stroke-width:0; stroke-opacity:1; 
stroke-linecap:round; stroke-linejoin:round;">
</g>
<g style="fill:#000000; fill-opacity:1.0; 
stroke:#000000; stroke-width:7.87402; stroke-opacity:1; 
stroke-linecap:round; stroke-linejoin:round;">
<polyline style="fill-rule:evenodd;"
points="46191,41280
46014,41280
46014,40768
46191,40768
46191,41280
" /> 
</g>
<g style="fill:#000000; fill-opacity:1.0; 
stroke:#000000; stroke-width:0; stroke-opacity:1; 
stroke-linecap:round; stroke-linejoin:round;">
</g>
<g style="fill:#000000; fill-opacity:1.0; 
stroke:#000000; stroke-width:7.87402; stroke-opacity:1; 
stroke-linecap:round; stroke-linejoin:round;">
<polyline style="fill-rule:evenodd;"
points="51201,36850
50650,36850
50650,36181
51201,36181
51201,36850
" /> 
</g>
<g style="fill:#000000; fill-opacity:1.0; 
stroke:#000000; stroke-width:0; stroke-opacity:1; 
stroke-linecap:round; stroke-linejoin:round;">
</g>
<g style="fill:#000000; fill-opacity:1.0; 
stroke:#000000; stroke-width:7.87402; stroke-opacity:1; 
stroke-linecap:round; stroke-linejoin:round;">
<polyline style="fill-rule:evenodd;"
points="46398,36810
45847,36810
45847,36141
46398,36141
46398,36810
" /> 
</g>
<g style="fill:#000000; fill-opacity:1.0; 
stroke:#000000; stroke-width:0; stroke-opacity:1; 
stroke-linecap:round; stroke-linejoin:round;">
</g>
<g style="fill:#000000; fill-opacity:1.0; 
stroke:#000000; stroke-width:7.87402; stroke-opacity:1; 
stroke-linecap:round; stroke-linejoin:round;">
<polyline style="fill-rule:evenodd;"
points="49654,36830
49441,36830
49441,36515
49654,36515
49654,36830
" /> 
</g>
<g style="fill:#000000; fill-opacity:1.0; 
stroke:#000000; stroke-width:0; stroke-opacity:1; 
stroke-linecap:round; stroke-linejoin:round;">
</g>
<g style="fill:#000000; fill-opacity:1.0; 
stroke:#000000; stroke-width:7.87402; stroke-opacity:1; 
stroke-linecap:round; stroke-linejoin:round;">
<polyline style="fill-rule:evenodd;"
points="47646,36830
47433,36830
47433,36515
47646,36515
47646,36830
" /> 
<circle cx="48327" cy="39506" r="56.063" /> 
<circle cx="48721" cy="39506" r="56.063" /> 
<circle cx="47933" cy="39506" r="56.063" /> 
<circle cx="47933" cy="39112" r="56.063" /> 
<circle cx="48327" cy="39112" r="56.063" /> 
<circle cx="48721" cy="39112" r="56.063" /> 
<circle cx="48721" cy="39900" r="56.063" /> 
<circle cx="48327" cy="39900" r="56.063" /> 
<circle cx="47933" cy="39900" r="56.063" /> 
</g>
<g style="fill:#000000; fill-opacity:1.0; 
stroke:#000000; stroke-width:0; stroke-opacity:1; 
stroke-linecap:round; stroke-linejoin:round;">
</g>
<g style="fill:#000000; fill-opacity:1.0; 
stroke:#000000; stroke-width:7.87402; stroke-opacity:1; 
stroke-linecap:round; stroke-linejoin:round;">
<polyline style="fill-rule:evenodd;"
points="45436,39662
45613,39662
45613,39859
45436,39859
45436,39662
" /> 
</g>
<g style="fill:#000000; fill-opacity:1.0; 
stroke:#000000; stroke-width:0; stroke-opacity:1; 
stroke-linecap:round; stroke-linejoin:round;">
</g>
<g style="fill:#000000; fill-opacity:1.0; 
stroke:#000000; stroke-width:7.87402; stroke-opacity:1; 
stroke-linecap:round; stroke-linejoin:round;">
<polyline style="fill-rule:evenodd;"
points="45436,39062
45613,39062
45613,39259
45436,39259
45436,39062
" /> 
</g>
<g style="fill:#000000; fill-opacity:1.0; 
stroke:#000000; stroke-width:0; stroke-opacity:1; 
stroke-linecap:round; stroke-linejoin:round;">
</g>
<g style="fill:#000000; fill-opacity:1.0; 
stroke:#000000; stroke-width:7.87402; stroke-opacity:1; 
stroke-linecap:round; stroke-linejoin:round;">
<polyline style="fill-rule:evenodd;"
points="45756,39662
45933,39662
45933,39859
45756,39859
45756,39662
" /> 
</g>
<g style="fill:#000000; fill-opacity:1.0; 
stroke:#000000; stroke-width:0; stroke-opacity:1; 
stroke-linecap:round; stroke-linejoin:round;">
</g>
<g style="fill:#000000; fill-opacity:1.0; 
stroke:#000000; stroke-width:7.87402; stroke-opacity:1; 
stroke-linecap:round; stroke-linejoin:round;">
<polyline style="fill-rule:evenodd;"
points="45756,39062
45933,39062
45933,39259
45756,39259
45756,39062
" /> 
</g>
<g style="fill:#000000; fill-opacity:1.0; 
stroke:#000000; stroke-width:591; stroke-opacity:1; 
stroke-linecap:round; stroke-linejoin:round;">
<path d="M53149 36737
L52362 36737
" />
<path d="M53149 41225
L52362 41225
" />
</g>
<g style="fill:#000000; fill-opacity:1.0; 
stroke:#000000; stroke-width:7.87402; stroke-opacity:1; 
stroke-linecap:round; stroke-linejoin:round;">
<polyline style="fill-rule:evenodd;"
points="52318,39143
52318,39607
51539,39607
51539,39143
52318,39143
" /> 
<polyline style="fill-rule:evenodd;"
points="52318,38349
52318,38813
51539,38813
51539,38349
52318,38349
" /> 
<polyline style="fill-rule:evenodd;"
points="52318,40127
52318,40591
51539,40591
51539,40127
52318,40127
" /> 
<polyline style="fill-rule:evenodd;"
points="52318,37371
52318,37835
51539,37835
51539,37371
52318,37371
" /> 
<circle cx="52755.7" cy="39867.3" r="212.563" /> 
<circle cx="52755.7" cy="38095.3" r="212.563" /> 
<circle cx="47160" cy="38440" r="103.563" /> 
<circle cx="46740" cy="40460" r="103.563" /> 
<circle cx="49740" cy="37380" r="103.563" /> 
<circle cx="50255.9" cy="36968.5" r="103.563" /> 
<circle cx="50580" cy="40200" r="103.563" /> 
<circle cx="50580" cy="40200" r="103.563" /> 
<circle cx="50255.9" cy="36968.5" r="103.563" /> 
<circle cx="49740" cy="37380" r="103.563" /> 
<circle cx="46740" cy="40460" r="103.563" /> 
<circle cx="47160" cy="38440" r="103.563" /> 
<circle cx="50250" cy="39375" r="103.563" /> 
<circle cx="50225" cy="38025" r="103.563" /> 
<circle cx="50225" cy="38025" r="103.563" /> 
<circle cx="50250" cy="39375" r="103.563" /> 
<circle cx="52500" cy="38575" r="103.563" /> 
<circle cx="52500" cy="38575" r="103.563" /> 
<circle cx="52500" cy="39375" r="103.563" /> 
<circle cx="52500" cy="39375" r="103.563" /> 
<circle cx="49860" cy="40100" r="103.563" /> 
<circle cx="49860" cy="40100" r="103.563" /> 
<circle cx="48720" cy="37900" r="103.563" /> 
<circle cx="48720" cy="37900" r="103.563" /> 
<circle cx="48120" cy="38100" r="103.563" /> 
<circle cx="48120" cy="38100" r="103.563" /> 
<circle cx="48720" cy="37620" r="103.563" /> 
<circle cx="48720" cy="37620" r="103.563" /> 
<circle cx="48780" cy="37000" r="103.563" /> 
<circle cx="50875" cy="38825" r="103.563" /> 
<circle cx="50875" cy="38825" r="103.563" /> 
<circle cx="48780" cy="37000" r="103.563" /> 
<circle cx="52540" cy="40380" r="103.563" /> 
<circle cx="52540" cy="40380" r="103.563" /> 
<circle cx="46200" cy="38180" r="103.563" /> 
<circle cx="46940" cy="38160" r="103.563" /> 
<circle cx="52560" cy="37480" r="103.563" /> 
<circle cx="50180" cy="41220" r="103.563" /> 
<circle cx="50260" cy="37580" r="103.563" /> 
<circle cx="49780" cy="37740" r="103.563" /> 
<circle cx="48100" cy="37240" r="103.563" /> 
<circle cx="49527.6" cy="36082.7" r="103.563" /> 
<circle cx="49527.6" cy="36082.7" r="103.563" /> 
<circle cx="48100" cy="37240" r="103.563" /> 
<circle cx="49780" cy="37740" r="103.563" /> 
<circle cx="50260" cy="37580" r="103.563" /> 
<circle cx="50180" cy="41220" r="103.563" /> 
<circle cx="52560" cy="37480" r="103.563" /> 
<circle cx="46940" cy="38160" r="103.563" /> 
<circle cx="46200" cy="38180" r="103.563" /> 
<circle cx="45748" cy="40226.4" r="103.563" /> 
<circle cx="45748" cy="40226.4" r="103.563" /> 
<circle cx="45787.4" cy="40610.2" r="103.563" /> 
<circle cx="45787.4" cy="40610.2" r="103.563" /> 
</g>
<g style="fill:#000000; fill-opacity:1.0; 
stroke:#000000; stroke-width:60; stroke-opacity:1; 
stroke-linecap:round; stroke-linejoin:round;">
<path d="M47160 38440
L46740 38860
" />
<path d="M46740 38860
L46740 40460
" />
<path d="M49740 37380
L49600 37240
" />
<path d="M49600 37240
L48680 37240
" />
<path d="M48680 37240
L48540 37100
" />
<path d="M48540 37100
L48540 36732
" />
<path d="M48110 36692
L48110 36181
" />
<path d="M47160 37643
L47160 38440
" />
<path d="M47992 36811
L47160 37643
" />
<path d="M47992 36811
L48110 36692
" />
<path d="M48540 36610
L48110 36181
" />
<path d="M48540 36732
L48540 36610
" />
<path d="M50580 40200
L50540 40160
" />
<path d="M50540 40160
L50540 39740
" />
<path d="M50540 39740
L51180 39100
" />
<path d="M51180 39100
L51180 37600
" />
<path d="M51180 37600
L50640 37060
" />
<path d="M50548 36968
L50640 37060
" />
<path d="M50255 36968
L50548 36968
" />
<path d="M50255 36968
L50548 36968
" />
<path d="M50548 36968
L50640 37060
" />
<path d="M51180 37600
L50640 37060
" />
<path d="M51180 39100
L51180 37600
" />
<path d="M50540 39740
L51180 39100
" />
<path d="M50540 40160
L50540 39740
" />
<path d="M50580 40200
L50540 40160
" />
<path d="M48540 36732
L48540 36610
" />
<path d="M48540 36610
L48110 36181
" />
<path d="M47992 36811
L48110 36692
" />
<path d="M47992 36811
L47160 37643
" />
<path d="M47160 37643
L47160 38440
" />
<path d="M48110 36692
L48110 36181
" />
<path d="M48540 37100
L48540 36732
" />
<path d="M48680 37240
L48540 37100
" />
<path d="M49600 37240
L48680 37240
" />
<path d="M49740 37380
L49600 37240
" />
<path d="M46740 38860
L46740 40460
" />
<path d="M47160 38440
L46740 38860
" />
</g>
<g style="fill:#000000; fill-opacity:1.0; 
stroke:#000000; stroke-width:50; stroke-opacity:1; 
stroke-linecap:round; stroke-linejoin:round;">
<path d="M50250 39375
L50225 39350
" />
<path d="M50225 39350
L50225 38025
" />
<path d="M50225 39350
L50225 38025
" />
<path d="M50250 39375
L50225 39350
" />
<path d="M52500 38575
L52499 38574
" />
<path d="M52499 38574
L51825 38574
" />
<path d="M52499 38574
L51825 38574
" />
<path d="M52500 38575
L52499 38574
" />
<path d="M52500 39375
L52493 39368
" />
<path d="M52493 39368
L51825 39368
" />
<path d="M52493 39368
L51825 39368
" />
<path d="M52500 39375
L52493 39368
" />
<path d="M49860 40100
L49860 40640
" />
<path d="M49860 40640
L49600 40900
" />
<path d="M49600 40900
L47780 40900
" />
<path d="M47780 40900
L47609 41071
" />
<path d="M47609 41071
L47609 41900
" />
<path d="M47609 41071
L47609 41900
" />
<path d="M47780 40900
L47609 41071
" />
<path d="M49600 40900
L47780 40900
" />
<path d="M49860 40640
L49600 40900
" />
<path d="M49860 40100
L49860 40640
" />
<path d="M48613 41347
L48820 41140
" />
<path d="M48820 41140
L49760 41140
" />
<path d="M49760 41140
L50160 40740
" />
<path d="M50160 40740
L50160 40300
" />
<path d="M50160 40300
L50200 40260
" />
<path d="M50200 40260
L50200 39960
" />
<path d="M50200 39960
L49900 39660
" />
<path d="M49900 39660
L49900 38340
" />
<path d="M49900 38340
L49460 37900
" />
<path d="M49460 37900
L48720 37900
" />
<path d="M48613 41900
L48613 41347
" />
<path d="M48613 41900
L48613 41347
" />
<path d="M49460 37900
L48720 37900
" />
<path d="M49900 38340
L49460 37900
" />
<path d="M49900 39660
L49900 38340
" />
<path d="M50200 39960
L49900 39660
" />
<path d="M50200 40260
L50200 39960
" />
<path d="M50160 40300
L50200 40260
" />
<path d="M50160 40740
L50160 40300
" />
<path d="M49760 41140
L50160 40740
" />
<path d="M48820 41140
L49760 41140
" />
<path d="M48613 41347
L48820 41140
" />
<path d="M48111 41349
L48440 41020
" />
<path d="M48440 41020
L49660 41020
" />
<path d="M49660 41020
L50000 40680
" />
<path d="M50000 40680
L50000 40260
" />
<path d="M50000 40260
L50060 40200
" />
<path d="M50060 40200
L50060 40020
" />
<path d="M50060 40020
L49800 39760
" />
<path d="M49800 39760
L49800 38400
" />
<path d="M49800 38400
L49500 38100
" />
<path d="M49500 38100
L48120 38100
" />
<path d="M48111 41900
L48111 41349
" />
<path d="M48111 41900
L48111 41349
" />
<path d="M49500 38100
L48120 38100
" />
<path d="M49800 38400
L49500 38100
" />
<path d="M49800 39760
L49800 38400
" />
<path d="M50060 40020
L49800 39760
" />
<path d="M50060 40200
L50060 40020
" />
<path d="M50000 40260
L50060 40200
" />
<path d="M50000 40680
L50000 40260
" />
<path d="M49660 41020
L50000 40680
" />
<path d="M48440 41020
L49660 41020
" />
<path d="M48111 41349
L48440 41020
" />
<path d="M49617 41900
L49617 41423
" />
<path d="M48840 37740
L48720 37620
" />
<path d="M49460 37740
L48840 37740
" />
<path d="M50020 38300
L49460 37740
" />
<path d="M50020 39579
L50020 38300
" />
<path d="M50320 39879
L50020 39579
" />
<path d="M50320 40760
L50320 39879
" />
<path d="M49840 41240
L50320 40760
" />
<path d="M49800 41240
L49840 41240
" />
<path d="M49617 41423
L49800 41240
" />
<path d="M49617 41423
L49800 41240
" />
<path d="M49800 41240
L49840 41240
" />
<path d="M49840 41240
L50320 40760
" />
<path d="M50320 40760
L50320 39879
" />
<path d="M50320 39879
L50020 39579
" />
<path d="M50020 39579
L50020 38300
" />
<path d="M50020 38300
L49460 37740
" />
<path d="M49460 37740
L48840 37740
" />
<path d="M48840 37740
L48720 37620
" />
<path d="M49617 41900
L49617 41423
" />
<path d="M48780 37000
L48900 37120
" />
<path d="M48900 37120
L50000 37120
" />
<path d="M50000 37120
L50100 37220
" />
<path d="M50725 37445
L50725 37975
" />
<path d="M50520 37240
L50725 37445
" />
<path d="M50120 37240
L50520 37240
" />
<path d="M50100 37220
L50120 37240
" />
<path d="M50725 37975
L50875 38125
" />
<path d="M50875 38125
L50875 38825
" />
<path d="M50875 38125
L50875 38825
" />
<path d="M50725 37975
L50875 38125
" />
<path d="M50100 37220
L50120 37240
" />
<path d="M50120 37240
L50520 37240
" />
<path d="M50520 37240
L50725 37445
" />
<path d="M50725 37445
L50725 37975
" />
<path d="M50000 37120
L50100 37220
" />
<path d="M48900 37120
L50000 37120
" />
<path d="M48780 37000
L48900 37120
" />
<path d="M52540 40380
L52512 40352
" />
<path d="M52512 40352
L51825 40352
" />
<path d="M52512 40352
L51825 40352
" />
<path d="M52540 40380
L52512 40352
" />
</g>
<g style="fill:#000000; fill-opacity:1.0; 
stroke:#000000; stroke-width:79; stroke-opacity:1; 
stroke-linecap:round; stroke-linejoin:round;">
<path d="M46920 38180
L46200 38180
" />
<path d="M46940 38160
L46920 38180
" />
<path d="M52444 37596
L52560 37480
" />
<path d="M51825 37596
L52444 37596
" />
<path d="M50109 41291
L50180 41220
" />
<path d="M50109 41900
L50109 41291
" />
<path d="M45895 39125
L45964 39055
" />
<path d="M46100 39000
L46200 38900
" />
<path d="M46020 39000
L46100 39000
" />
<path d="M45964 39055
L46020 39000
" />
<path d="M46200 38900
L46200 38180
" />
<path d="M45525 39160
L45845 39160
" />
<path d="M45859 39160
L45964 39055
" />
<path d="M45964 39055
L45964 39055
" />
<path d="M45845 39160
L45859 39160
" />
<path d="M48200 37340
L48100 37240
" />
<path d="M48100 37240
L48100 37220
" />
<path d="M50260 37580
L50100 37740
" />
<path d="M50100 37740
L49780 37740
" />
<path d="M49780 37740
L49700 37740
" />
<path d="M49700 37740
L49350 37390
" />
<path d="M49350 37390
L48250 37390
" />
<path d="M48250 37390
L48100 37240
" />
<path d="M49527 36082
L49527 36102
" />
<path d="M49527 36082
L49527 36102
" />
<path d="M48250 37390
L48100 37240
" />
<path d="M49350 37390
L48250 37390
" />
<path d="M49700 37740
L49350 37390
" />
<path d="M49780 37740
L49700 37740
" />
<path d="M50100 37740
L49780 37740
" />
<path d="M50260 37580
L50100 37740
" />
<path d="M48100 37240
L48100 37220
" />
<path d="M48200 37340
L48100 37240
" />
<path d="M45845 39160
L45859 39160
" />
<path d="M45964 39055
L45964 39055
" />
<path d="M45859 39160
L45964 39055
" />
<path d="M45525 39160
L45845 39160
" />
<path d="M46200 38900
L46200 38180
" />
<path d="M45964 39055
L46020 39000
" />
<path d="M46020 39000
L46100 39000
" />
<path d="M46100 39000
L46200 38900
" />
<path d="M45895 39125
L45964 39055
" />
<path d="M50109 41900
L50109 41291
" />
<path d="M50109 41291
L50180 41220
" />
<path d="M51825 37596
L52444 37596
" />
<path d="M52444 37596
L52560 37480
" />
<path d="M46940 38160
L46920 38180
" />
<path d="M46920 38180
L46200 38180
" />
</g>
<g style="fill:#000000; fill-opacity:1.0; 
stroke:#000000; stroke-width:50; stroke-opacity:1; 
stroke-linecap:round; stroke-linejoin:round;">
<path d="M45748 40226
L45845 40129
" />
<path d="M45845 40129
L45845 39760
" />
<path d="M45845 40129
L45845 39760
" />
<path d="M45748 40226
L45845 40129
" />
<path d="M45525 40347
L45787 40610
" />
<path d="M45525 39760
L45525 40347
" />
<path d="M45525 39760
L45525 40347
" />
<path d="M45525 40347
L45787 40610
" />
</g>
<g style="fill:#000000; fill-opacity:1.0; 
stroke:#000000; stroke-width:7.87402; stroke-opacity:1; 
stroke-linecap:round; stroke-linejoin:round;">
<polyline style="fill-rule:evenodd;"
points="48389,39525
48346,39568
48327,39548
48307,39568
48264,39525
48284,39506
48264,39486
48307,39443
48327,39463
48346,39443
48389,39486
48369,39506
48389,39525
" /> 
</g>
<g style="fill:#000000; fill-opacity:0.0; 
stroke:#000000; stroke-width:100; stroke-opacity:1; 
stroke-linecap:round; stroke-linejoin:round;">
<polyline fill="none;"
points="48389,39525
48346,39568
48327,39548
48307,39568
48264,39525
48284,39506
48264,39486
48307,39443
48327,39463
48346,39443
48389,39486
48369,39506
48389,39525
" /> 
</g>
<g style="fill:#000000; fill-opacity:1.0; 
stroke:#000000; stroke-width:7.87402; stroke-opacity:1; 
stroke-linecap:round; stroke-linejoin:round;">
<polyline style="fill-rule:evenodd;"
points="49723,39901
49659,39965
49623,40052
49623,40146
49659,40233
49706,40280
49706,40576
49536,40746
49033,40746
49033,39944
49033,39550
49033,39156
49027,39033
48993,38951
48920,38955
48881,38993
48881,38839
48765,38799
48642,38805
48560,38839
48564,38912
48721,39069
48877,38912
48881,38839
48881,38993
48763,39112
48920,39268
48993,39272
49033,39156
49033,39550
49027,39427
48993,39345
48920,39349
48763,39506
48920,39662
48993,39666
49033,39550
49033,39944
49027,39821
48993,39739
48920,39743
48881,39781
48881,39778
48877,39705
48875,39703
48877,39700
48881,39627
48765,39587
48759,39587
48721,39548
48701,39568
48658,39525
48678,39506
48658,39486
48701,39443
48721,39463
48764,39420
48799,39418
48881,39384
48877,39311
48875,39309
48877,39306
48881,39233
48765,39193
48759,39193
48721,39154
48701,39174
48658,39131
48678,39112
48635,39068
48633,39033
48599,38951
48526,38955
48524,38957
48521,38955
48487,38953
48487,38839
48371,38799
48248,38805
48166,38839
48170,38912
48327,39069
48483,38912
48487,38839
48487,38953
48448,38951
48408,39067
48408,39073
48369,39112
48389,39131
48346,39174
48327,39154
48307,39174
48264,39131
48284,39112
48241,39068
48239,39033
48205,38951
48132,38955
48130,38957
48127,38955
48093,38953
48093,38839
47977,38799
47854,38805
47772,38839
47776,38912
47933,39069
48089,38912
48093,38839
48093,38953
48054,38951
48014,39067
48014,39073
47975,39112
47995,39131
47952,39174
47933,39154
47890,39196
47890,39112
47733,38955
47660,38951
47620,39067
47626,39190
47660,39272
47733,39268
47890,39112
47890,39196
47889,39197
47854,39199
47772,39233
47776,39306
47778,39309
47776,39311
47772,39384
47888,39424
47894,39424
47933,39463
47952,39443
47995,39486
47975,39506
47995,39525
47952,39568
47933,39548
47890,39590
47890,39506
47733,39349
47660,39345
47620,39461
47626,39584
47660,39666
47733,39662
47890,39506
47890,39590
47889,39591
47854,39593
47772,39627
47776,39700
47778,39703
47776,39705
47772,39778
47888,39818
47894,39818
47933,39857
47952,39837
47995,39880
47975,39900
48018,39943
48020,39978
48054,40060
48127,40056
48130,40054
48132,40056
48205,40060
48245,39944
48245,39938
48284,39900
48264,39880
48307,39837
48327,39857
48346,39837
48389,39880
48369,39900
48412,39943
48414,39978
48448,40060
48521,40056
48524,40054
48526,40056
48599,40060
48639,39944
48639,39938
48678,39900
48658,39880
48701,39837
48721,39857
48764,39814
48799,39812
48881,39778
48881,39781
48763,39900
48920,40056
48993,40060
49033,39944
49033,40746
48881,40746
48881,40172
48877,40099
48721,39942
48564,40099
48560,40172
48676,40212
48799,40206
48881,40172
48881,40746
48487,40746
48487,40172
48483,40099
48327,39942
48170,40099
48166,40172
48282,40212
48405,40206
48487,40172
48487,40746
48093,40746
48093,40172
48089,40099
47933,39942
47890,39984
47890,39900
47733,39743
47660,39739
47620,39855
47626,39978
47660,40060
47733,40056
47890,39900
47890,39984
47776,40099
47772,40172
47888,40212
48011,40206
48093,40172
48093,40746
47780,40746
47721,40757
47671,40791
47500,40962
47466,41012
47455,41071
47455,41544
47408,41564
47371,41600
47352,41647
47351,41699
47351,42036
45403,42036
45364,42036
45315,42036
45315,39904
45327,39932
45363,39968
45371,39971
45371,40347
45382,40406
45416,40456
45550,40591
45550,40657
45586,40744
45653,40810
45740,40846
45834,40846
45885,40825
45885,41305
45905,41352
45941,41389
45988,41408
46040,41409
46217,41409
46264,41389
46300,41353
46320,41305
46320,41254
46320,40742
46300,40695
46264,40658
46217,40639
46165,40638
46023,40638
46023,40621
46040,40621
46217,40621
46264,40601
46300,40565
46320,40517
46320,40466
46320,39954
46300,39907
46264,39870
46217,39851
46165,39850
46062,39850
46062,39833
46062,39636
46042,39589
46006,39552
45959,39533
45907,39533
45730,39533
45684,39552
45639,39533
45587,39533
45410,39533
45363,39552
45327,39588
45315,39616
45315,39304
45327,39332
45363,39368
45410,39388
45462,39388
45639,39388
45685,39369
45730,39388
45782,39388
45959,39388
46006,39368
46042,39332
46062,39284
46062,39233
46062,39036
46042,38989
46006,38952
45959,38933
45907,38933
45730,38933
45684,38952
45639,38933
45587,38933
45410,38933
45363,38952
45327,38988
45315,39016
45315,35926
45364,35926
45383,35926
47061,35926
47013,35973
46957,36108
46957,36253
47013,36387
47115,36490
47249,36546
47304,36546
47304,36856
47324,36903
47360,36939
47407,36959
47459,36959
47618,36959
47047,37530
47013,37582
47001,37643
47001,38264
46959,38305
46923,38392
46923,38451
46627,38747
46593,38799
46581,38860
46581,40284
46539,40325
46527,40354
46527,36784
46527,36115
46507,36068
46471,36032
46424,36012
46372,36012
45821,36012
45774,36032
45738,36068
45718,36115
45718,36167
45718,36836
45738,36883
45774,36919
45821,36939
45873,36939
46424,36939
46471,36919
46507,36883
46527,36836
46527,36784
46527,40354
46503,40412
46503,40506
46539,40593
46605,40660
46692,40696
46786,40696
46873,40660
46940,40594
46976,40507
46976,40413
46940,40326
46899,40284
46899,38925
47148,38676
47206,38676
47293,38640
47360,38574
47396,38487
47396,38393
47360,38306
47319,38264
47319,37709
48104,36923
48104,36923
48104,36923
48222,36805
48257,36753
48257,36753
48269,36692
48269,36564
48381,36676
48381,36732
48381,37100
48393,37160
48427,37212
48567,37352
48619,37386
48619,37386
48649,37393
48586,37419
48519,37485
48483,37572
48483,37666
48519,37753
48525,37759
48519,37765
48483,37852
48483,37946
48300,37946
48254,37899
48167,37863
48073,37863
47986,37899
47919,37965
47883,38052
47883,38146
47919,38233
47985,38300
48072,38336
48166,38336
48253,38300
48300,38254
49436,38254
49646,38463
49646,39760
49657,39818
49691,39868
49723,39901
" /> 
</g>
<g style="fill:#000000; fill-opacity:0.0; 
stroke:#000000; stroke-width:100; stroke-opacity:1; 
stroke-linecap:round; stroke-linejoin:round;">
<polyline fill="none;"
points="49723,39901
49659,39965
49623,40052
49623,40146
49659,40233
49706,40280
49706,40576
49536,40746
49033,40746
49033,39944
49033,39550
49033,39156
49027,39033
48993,38951
48920,38955
48881,38993
48881,38839
48765,38799
48642,38805
48560,38839
48564,38912
48721,39069
48877,38912
48881,38839
48881,38993
48763,39112
48920,39268
48993,39272
49033,39156
49033,39550
49027,39427
48993,39345
48920,39349
48763,39506
48920,39662
48993,39666
49033,39550
49033,39944
49027,39821
48993,39739
48920,39743
48881,39781
48881,39778
48877,39705
48875,39703
48877,39700
48881,39627
48765,39587
48759,39587
48721,39548
48701,39568
48658,39525
48678,39506
48658,39486
48701,39443
48721,39463
48764,39420
48799,39418
48881,39384
48877,39311
48875,39309
48877,39306
48881,39233
48765,39193
48759,39193
48721,39154
48701,39174
48658,39131
48678,39112
48635,39068
48633,39033
48599,38951
48526,38955
48524,38957
48521,38955
48487,38953
48487,38839
48371,38799
48248,38805
48166,38839
48170,38912
48327,39069
48483,38912
48487,38839
48487,38953
48448,38951
48408,39067
48408,39073
48369,39112
48389,39131
48346,39174
48327,39154
48307,39174
48264,39131
48284,39112
48241,39068
48239,39033
48205,38951
48132,38955
48130,38957
48127,38955
48093,38953
48093,38839
47977,38799
47854,38805
47772,38839
47776,38912
47933,39069
48089,38912
48093,38839
48093,38953
48054,38951
48014,39067
48014,39073
47975,39112
47995,39131
47952,39174
47933,39154
47890,39196
47890,39112
47733,38955
47660,38951
47620,39067
47626,39190
47660,39272
47733,39268
47890,39112
47890,39196
47889,39197
47854,39199
47772,39233
47776,39306
47778,39309
47776,39311
47772,39384
47888,39424
47894,39424
47933,39463
47952,39443
47995,39486
47975,39506
47995,39525
47952,39568
47933,39548
47890,39590
47890,39506
47733,39349
47660,39345
47620,39461
47626,39584
47660,39666
47733,39662
47890,39506
47890,39590
47889,39591
47854,39593
47772,39627
47776,39700
47778,39703
47776,39705
47772,39778
47888,39818
47894,39818
47933,39857
47952,39837
47995,39880
47975,39900
48018,39943
48020,39978
48054,40060
48127,40056
48130,40054
48132,40056
48205,40060
48245,39944
48245,39938
48284,39900
48264,39880
48307,39837
48327,39857
48346,39837
48389,39880
48369,39900
48412,39943
48414,39978
48448,40060
48521,40056
48524,40054
48526,40056
48599,40060
48639,39944
48639,39938
48678,39900
48658,39880
48701,39837
48721,39857
48764,39814
48799,39812
48881,39778
48881,39781
48763,39900
48920,40056
48993,40060
49033,39944
49033,40746
48881,40746
48881,40172
48877,40099
48721,39942
48564,40099
48560,40172
48676,40212
48799,40206
48881,40172
48881,40746
48487,40746
48487,40172
48483,40099
48327,39942
48170,40099
48166,40172
48282,40212
48405,40206
48487,40172
48487,40746
48093,40746
48093,40172
48089,40099
47933,39942
47890,39984
47890,39900
47733,39743
47660,39739
47620,39855
47626,39978
47660,40060
47733,40056
47890,39900
47890,39984
47776,40099
47772,40172
47888,40212
48011,40206
48093,40172
48093,40746
47780,40746
47721,40757
47671,40791
47500,40962
47466,41012
47455,41071
47455,41544
47408,41564
47371,41600
47352,41647
47351,41699
47351,42036
45403,42036
45364,42036
45315,42036
45315,39904
45327,39932
45363,39968
45371,39971
45371,40347
45382,40406
45416,40456
45550,40591
45550,40657
45586,40744
45653,40810
45740,40846
45834,40846
45885,40825
45885,41305
45905,41352
45941,41389
45988,41408
46040,41409
46217,41409
46264,41389
46300,41353
46320,41305
46320,41254
46320,40742
46300,40695
46264,40658
46217,40639
46165,40638
46023,40638
46023,40621
46040,40621
46217,40621
46264,40601
46300,40565
46320,40517
46320,40466
46320,39954
46300,39907
46264,39870
46217,39851
46165,39850
46062,39850
46062,39833
46062,39636
46042,39589
46006,39552
45959,39533
45907,39533
45730,39533
45684,39552
45639,39533
45587,39533
45410,39533
45363,39552
45327,39588
45315,39616
45315,39304
45327,39332
45363,39368
45410,39388
45462,39388
45639,39388
45685,39369
45730,39388
45782,39388
45959,39388
46006,39368
46042,39332
46062,39284
46062,39233
46062,39036
46042,38989
46006,38952
45959,38933
45907,38933
45730,38933
45684,38952
45639,38933
45587,38933
45410,38933
45363,38952
45327,38988
45315,39016
45315,35926
45364,35926
45383,35926
47061,35926
47013,35973
46957,36108
46957,36253
47013,36387
47115,36490
47249,36546
47304,36546
47304,36856
47324,36903
47360,36939
47407,36959
47459,36959
47618,36959
47047,37530
47013,37582
47001,37643
47001,38264
46959,38305
46923,38392
46923,38451
46627,38747
46593,38799
46581,38860
46581,40284
46539,40325
46527,40354
46527,36784
46527,36115
46507,36068
46471,36032
46424,36012
46372,36012
45821,36012
45774,36032
45738,36068
45718,36115
45718,36167
45718,36836
45738,36883
45774,36919
45821,36939
45873,36939
46424,36939
46471,36919
46507,36883
46527,36836
46527,36784
46527,40354
46503,40412
46503,40506
46539,40593
46605,40660
46692,40696
46786,40696
46873,40660
46940,40594
46976,40507
46976,40413
46940,40326
46899,40284
46899,38925
47148,38676
47206,38676
47293,38640
47360,38574
47396,38487
47396,38393
47360,38306
47319,38264
47319,37709
48104,36923
48104,36923
48104,36923
48222,36805
48257,36753
48257,36753
48269,36692
48269,36564
48381,36676
48381,36732
48381,37100
48393,37160
48427,37212
48567,37352
48619,37386
48619,37386
48649,37393
48586,37419
48519,37485
48483,37572
48483,37666
48519,37753
48525,37759
48519,37765
48483,37852
48483,37946
48300,37946
48254,37899
48167,37863
48073,37863
47986,37899
47919,37965
47883,38052
47883,38146
47919,38233
47985,38300
48072,38336
48166,38336
48253,38300
48300,38254
49436,38254
49646,38463
49646,39760
49657,39818
49691,39868
49723,39901
" /> 
</g>
<g style="fill:#000000; fill-opacity:1.0; 
stroke:#000000; stroke-width:7.87402; stroke-opacity:1; 
stroke-linecap:round; stroke-linejoin:round;">
<polyline style="fill-rule:evenodd;"
points="51021,39034
50427,39627
50393,39679
50383,39725
50269,39611
50296,39611
50383,39575
50450,39509
50486,39422
50486,39328
50450,39241
50384,39174
50379,39172
50379,38205
50425,38159
50461,38072
50461,37978
50425,37891
50359,37824
50272,37788
50178,37788
50091,37824
50024,37890
49988,37977
49988,38050
49568,37631
49518,37597
49460,37586
48956,37586
48956,37573
48920,37486
48854,37419
48804,37399
49503,37399
49503,37426
49539,37513
49605,37580
49692,37616
49786,37616
49873,37580
49940,37514
49976,37427
49976,37333
49963,37301
49991,37328
50011,37348
50061,37382
50061,37382
50120,37394
50456,37394
50571,37508
50571,37975
50582,38033
50616,38083
50721,38188
50721,38644
50674,38690
50638,38777
50638,38871
50674,38958
50740,39025
50827,39061
50921,39061
51008,39025
51021,39013
51021,39034
" /> 
</g>
<g style="fill:#000000; fill-opacity:0.0; 
stroke:#000000; stroke-width:100; stroke-opacity:1; 
stroke-linecap:round; stroke-linejoin:round;">
<polyline fill="none;"
points="51021,39034
50427,39627
50393,39679
50383,39725
50269,39611
50296,39611
50383,39575
50450,39509
50486,39422
50486,39328
50450,39241
50384,39174
50379,39172
50379,38205
50425,38159
50461,38072
50461,37978
50425,37891
50359,37824
50272,37788
50178,37788
50091,37824
50024,37890
49988,37977
49988,38050
49568,37631
49518,37597
49460,37586
48956,37586
48956,37573
48920,37486
48854,37419
48804,37399
49503,37399
49503,37426
49539,37513
49605,37580
49692,37616
49786,37616
49873,37580
49940,37514
49976,37427
49976,37333
49963,37301
49991,37328
50011,37348
50061,37382
50061,37382
50120,37394
50456,37394
50571,37508
50571,37975
50582,38033
50616,38083
50721,38188
50721,38644
50674,38690
50638,38777
50638,38871
50674,38958
50740,39025
50827,39061
50921,39061
51008,39025
51021,39013
51021,39034
" /> 
</g>
<g style="fill:#000000; fill-opacity:1.0; 
stroke:#000000; stroke-width:7.87402; stroke-opacity:1; 
stroke-linecap:round; stroke-linejoin:round;">
<polyline style="fill-rule:evenodd;"
points="51288,36086
51274,36072
51227,36052
51175,36052
50624,36052
50577,36072
50541,36108
50521,36155
50521,36207
50521,36809
50431,36809
50390,36768
50303,36732
50251,36731
50251,36489
50231,36441
50194,36404
50146,36384
50094,36384
50045,36404
50009,36441
49989,36489
49989,36541
50008,36589
50045,36626
50093,36646
50146,36646
50194,36626
50231,36590
50251,36541
50251,36489
50251,36731
50209,36731
50122,36767
50055,36834
50019,36921
50019,36969
50000,36966
49783,36966
49783,36804
49783,36489
49763,36442
49727,36406
49680,36386
49650,36386
49646,36384
49594,36384
49589,36386
49415,36386
49368,36406
49332,36442
49312,36489
49312,36541
49312,36856
49332,36903
49368,36939
49415,36959
49467,36959
49680,36959
49727,36939
49763,36903
49783,36856
49783,36804
49783,36966
49251,36966
49251,36489
49231,36441
49194,36404
49146,36384
49094,36384
49045,36404
49009,36441
48989,36489
48989,36541
49008,36589
49045,36626
49093,36646
49146,36646
49194,36626
49231,36590
49251,36541
49251,36489
49251,36966
49016,36966
49016,36953
48980,36866
48914,36799
48827,36763
48733,36763
48699,36777
48699,36732
48699,36622
48731,36590
48751,36541
48751,36489
48731,36441
48694,36404
48646,36384
48594,36384
48554,36400
48455,36301
48475,36254
48475,36108
48420,35974
48371,35926
51288,35926
51288,36086
" /> 
</g>
<g style="fill:#000000; fill-opacity:0.0; 
stroke:#000000; stroke-width:100; stroke-opacity:1; 
stroke-linecap:round; stroke-linejoin:round;">
<polyline fill="none;"
points="51288,36086
51274,36072
51227,36052
51175,36052
50624,36052
50577,36072
50541,36108
50521,36155
50521,36207
50521,36809
50431,36809
50390,36768
50303,36732
50251,36731
50251,36489
50231,36441
50194,36404
50146,36384
50094,36384
50045,36404
50009,36441
49989,36489
49989,36541
50008,36589
50045,36626
50093,36646
50146,36646
50194,36626
50231,36590
50251,36541
50251,36489
50251,36731
50209,36731
50122,36767
50055,36834
50019,36921
50019,36969
50000,36966
49783,36966
49783,36804
49783,36489
49763,36442
49727,36406
49680,36386
49650,36386
49646,36384
49594,36384
49589,36386
49415,36386
49368,36406
49332,36442
49312,36489
49312,36541
49312,36856
49332,36903
49368,36939
49415,36959
49467,36959
49680,36959
49727,36939
49763,36903
49783,36856
49783,36804
49783,36966
49251,36966
49251,36489
49231,36441
49194,36404
49146,36384
49094,36384
49045,36404
49009,36441
48989,36489
48989,36541
49008,36589
49045,36626
49093,36646
49146,36646
49194,36626
49231,36590
49251,36541
49251,36489
49251,36966
49016,36966
49016,36953
48980,36866
48914,36799
48827,36763
48733,36763
48699,36777
48699,36732
48699,36622
48731,36590
48751,36541
48751,36489
48731,36441
48694,36404
48646,36384
48594,36384
48554,36400
48455,36301
48475,36254
48475,36108
48420,35974
48371,35926
51288,35926
51288,36086
" /> 
</g>
<g style="fill:#000000; fill-opacity:1.0; 
stroke:#000000; stroke-width:7.87402; stroke-opacity:1; 
stroke-linecap:round; stroke-linejoin:round;">
<polyline style="fill-rule:evenodd;"
points="53591,42036
53589,42036
53589,41225
53589,36737
53557,36574
53465,36437
53327,36345
53165,36312
52346,36312
52183,36345
52046,36437
51954,36574
51921,36737
51954,36899
52046,37037
52165,37117
52041,37117
51978,37179
51978,37553
52509,37553
52572,37490
52572,37416
52572,37317
52534,37225
52470,37161
53165,37161
53327,37129
53465,37037
53557,36899
53589,36737
53589,41225
53557,41062
53465,40925
53327,40833
53165,40800
53101,40800
53101,39798
53101,38026
53048,37899
52951,37802
52824,37749
52687,37749
52572,37797
52572,37789
52572,37715
52509,37653
51978,37653
51978,38026
52041,38089
52371,38089
52410,38073
52410,38163
52462,38290
52510,38338
52453,38338
52451,38339
52451,38319
52431,38272
52395,38235
52348,38216
52296,38216
51509,38216
51462,38235
51425,38272
51406,38319
51406,38370
51406,38842
51425,38890
51462,38926
51509,38946
51560,38946
52347,38946
52395,38926
52431,38890
52451,38843
52451,38810
52452,38811
52546,38811
52633,38775
52700,38709
52736,38622
52736,38528
52700,38441
52700,38440
52824,38440
52951,38388
53048,38291
53101,38164
53101,38026
53101,39798
53048,39671
52951,39574
52824,39521
52687,39521
52700,39509
52736,39422
52736,39328
52700,39241
52634,39174
52547,39138
52453,39138
52451,39139
52451,39113
52431,39066
52395,39029
52348,39010
52296,39010
51509,39010
51462,39029
51425,39066
51406,39113
51406,39164
51406,39636
51425,39684
51462,39720
51509,39740
51560,39740
52347,39740
52395,39720
52431,39684
52451,39637
52451,39610
52452,39611
52522,39611
52463,39671
52410,39798
52410,39935
52462,40062
52543,40143
52493,40143
52451,40160
52451,40097
52431,40050
52395,40013
52348,39994
52296,39994
51509,39994
51462,40013
51425,40050
51406,40097
51406,40148
51406,40620
51425,40668
51462,40704
51509,40724
51560,40724
52347,40724
52395,40704
52431,40668
52451,40621
52451,40599
52492,40616
52586,40616
52673,40580
52740,40514
52776,40427
52776,40333
52740,40246
52707,40212
52824,40212
52951,40160
53048,40063
53101,39936
53101,39798
53101,40800
52346,40800
52183,40833
52046,40925
51954,41062
51921,41225
51954,41387
52046,41525
52183,41617
52346,41649
53165,41649
53327,41617
53465,41525
53557,41387
53589,41225
53589,42036
51861,42036
51861,41771
51849,41714
51817,41666
51769,41634
51712,41623
51437,41623
51380,41634
51332,41666
51299,41714
51288,41771
51288,42036
51162,42036
51162,41254
51162,40742
51142,40695
51106,40658
51059,40639
51007,40638
50830,40638
50783,40658
50747,40694
50727,40742
50727,40793
50727,41305
50747,41352
50783,41389
50830,41408
50882,41409
51059,41409
51106,41389
51142,41353
51162,41305
51162,41254
51162,42036
50366,42036
50366,41647
50346,41600
50310,41564
50262,41544
50211,41544
49955,41544
49908,41564
49871,41600
49863,41621
49854,41600
49818,41564
49771,41544
49771,41486
49869,41388
49898,41382
49898,41382
49948,41348
50428,40868
50462,40818
50462,40818
50474,40760
50474,40412
50532,40436
50626,40436
50713,40400
50727,40386
50727,40517
50747,40564
50783,40601
50830,40620
50882,40621
51059,40621
51106,40601
51142,40565
51162,40517
51162,40466
51162,39954
51142,39907
51106,39870
51059,39851
51007,39850
50830,39850
50783,39870
50747,39906
50727,39954
50727,40005
50727,40012
50714,39999
50699,39993
50699,39805
51292,39212
51292,39212
51326,39160
51338,39100
51339,39100
51339,37996
51393,38051
51485,38089
51816,38089
51878,38026
51878,37653
51870,37653
51870,37553
51878,37553
51878,37179
51816,37117
51485,37117
51393,37155
51323,37225
51285,37317
51285,37416
51285,37480
50784,36979
51227,36979
51274,36959
51310,36923
51330,36876
51330,36824
51330,36283
51332,36286
51380,36318
51437,36329
51712,36329
51769,36318
51817,36286
51849,36237
51861,36181
51861,35926
53591,35926
53591,42036
" /> 
</g>
<g style="fill:#000000; fill-opacity:0.0; 
stroke:#000000; stroke-width:100; stroke-opacity:1; 
stroke-linecap:round; stroke-linejoin:round;">
<polyline fill="none;"
points="53591,42036
53589,42036
53589,41225
53589,36737
53557,36574
53465,36437
53327,36345
53165,36312
52346,36312
52183,36345
52046,36437
51954,36574
51921,36737
51954,36899
52046,37037
52165,37117
52041,37117
51978,37179
51978,37553
52509,37553
52572,37490
52572,37416
52572,37317
52534,37225
52470,37161
53165,37161
53327,37129
53465,37037
53557,36899
53589,36737
53589,41225
53557,41062
53465,40925
53327,40833
53165,40800
53101,40800
53101,39798
53101,38026
53048,37899
52951,37802
52824,37749
52687,37749
52572,37797
52572,37789
52572,37715
52509,37653
51978,37653
51978,38026
52041,38089
52371,38089
52410,38073
52410,38163
52462,38290
52510,38338
52453,38338
52451,38339
52451,38319
52431,38272
52395,38235
52348,38216
52296,38216
51509,38216
51462,38235
51425,38272
51406,38319
51406,38370
51406,38842
51425,38890
51462,38926
51509,38946
51560,38946
52347,38946
52395,38926
52431,38890
52451,38843
52451,38810
52452,38811
52546,38811
52633,38775
52700,38709
52736,38622
52736,38528
52700,38441
52700,38440
52824,38440
52951,38388
53048,38291
53101,38164
53101,38026
53101,39798
53048,39671
52951,39574
52824,39521
52687,39521
52700,39509
52736,39422
52736,39328
52700,39241
52634,39174
52547,39138
52453,39138
52451,39139
52451,39113
52431,39066
52395,39029
52348,39010
52296,39010
51509,39010
51462,39029
51425,39066
51406,39113
51406,39164
51406,39636
51425,39684
51462,39720
51509,39740
51560,39740
52347,39740
52395,39720
52431,39684
52451,39637
52451,39610
52452,39611
52522,39611
52463,39671
52410,39798
52410,39935
52462,40062
52543,40143
52493,40143
52451,40160
52451,40097
52431,40050
52395,40013
52348,39994
52296,39994
51509,39994
51462,40013
51425,40050
51406,40097
51406,40148
51406,40620
51425,40668
51462,40704
51509,40724
51560,40724
52347,40724
52395,40704
52431,40668
52451,40621
52451,40599
52492,40616
52586,40616
52673,40580
52740,40514
52776,40427
52776,40333
52740,40246
52707,40212
52824,40212
52951,40160
53048,40063
53101,39936
53101,39798
53101,40800
52346,40800
52183,40833
52046,40925
51954,41062
51921,41225
51954,41387
52046,41525
52183,41617
52346,41649
53165,41649
53327,41617
53465,41525
53557,41387
53589,41225
53589,42036
51861,42036
51861,41771
51849,41714
51817,41666
51769,41634
51712,41623
51437,41623
51380,41634
51332,41666
51299,41714
51288,41771
51288,42036
51162,42036
51162,41254
51162,40742
51142,40695
51106,40658
51059,40639
51007,40638
50830,40638
50783,40658
50747,40694
50727,40742
50727,40793
50727,41305
50747,41352
50783,41389
50830,41408
50882,41409
51059,41409
51106,41389
51142,41353
51162,41305
51162,41254
51162,42036
50366,42036
50366,41647
50346,41600
50310,41564
50262,41544
50211,41544
49955,41544
49908,41564
49871,41600
49863,41621
49854,41600
49818,41564
49771,41544
49771,41486
49869,41388
49898,41382
49898,41382
49948,41348
50428,40868
50462,40818
50462,40818
50474,40760
50474,40412
50532,40436
50626,40436
50713,40400
50727,40386
50727,40517
50747,40564
50783,40601
50830,40620
50882,40621
51059,40621
51106,40601
51142,40565
51162,40517
51162,40466
51162,39954
51142,39907
51106,39870
51059,39851
51007,39850
50830,39850
50783,39870
50747,39906
50727,39954
50727,40005
50727,40012
50714,39999
50699,39993
50699,39805
51292,39212
51292,39212
51326,39160
51338,39100
51339,39100
51339,37996
51393,38051
51485,38089
51816,38089
51878,38026
51878,37653
51870,37653
51870,37553
51878,37553
51878,37179
51816,37117
51485,37117
51393,37155
51323,37225
51285,37317
51285,37416
51285,37480
50784,36979
51227,36979
51274,36959
51310,36923
51330,36876
51330,36824
51330,36283
51332,36286
51380,36318
51437,36329
51712,36329
51769,36318
51817,36286
51849,36237
51861,36181
51861,35926
53591,35926
53591,42036
" /> 
</g>
<g style="fill:#FFFFFF; fill-opacity:0.0; 
stroke:#FFFFFF; stroke-width:7.87402; stroke-opacity:1; 
stroke-linecap:round; stroke-linejoin:round;">
</g>
<g style="fill:#FFFFFF; fill-opacity:1.0; 
stroke:#FFFFFF; stroke-width:7.87402; stroke-opacity:1; 
stroke-linecap:round; stroke-linejoin:round;">
<circle cx="47160" cy="38440" r="71.063" /> 
<circle cx="46740" cy="40460" r="71.063" /> 
<circle cx="49740" cy="37380" r="71.063" /> 
<circle cx="50255.9" cy="36968.5" r="71.063" /> 
<circle cx="50580" cy="40200" r="71.063" /> 
<circle cx="50580" cy="40200" r="71.063" /> 
<circle cx="50255.9" cy="36968.5" r="71.063" /> 
<circle cx="49740" cy="37380" r="71.063" /> 
<circle cx="46740" cy="40460" r="71.063" /> 
<circle cx="47160" cy="38440" r="71.063" /> 
<circle cx="50250" cy="39375" r="71.063" /> 
<circle cx="50225" cy="38025" r="71.063" /> 
<circle cx="50225" cy="38025" r="71.063" /> 
<circle cx="50250" cy="39375" r="71.063" /> 
<circle cx="52500" cy="38575" r="71.063" /> 
<circle cx="52500" cy="38575" r="71.063" /> 
<circle cx="52500" cy="39375" r="71.063" /> 
<circle cx="52500" cy="39375" r="71.063" /> 
<circle cx="49860" cy="40100" r="71.063" /> 
<circle cx="49860" cy="40100" r="71.063" /> 
<circle cx="48720" cy="37900" r="71.063" /> 
<circle cx="48720" cy="37900" r="71.063" /> 
<circle cx="48120" cy="38100" r="71.063" /> 
<circle cx="48120" cy="38100" r="71.063" /> 
<circle cx="48720" cy="37620" r="71.063" /> 
<circle cx="48720" cy="37620" r="71.063" /> 
<circle cx="48780" cy="37000" r="71.063" /> 
<circle cx="50875" cy="38825" r="71.063" /> 
<circle cx="50875" cy="38825" r="71.063" /> 
<circle cx="48780" cy="37000" r="71.063" /> 
<circle cx="52540" cy="40380" r="71.063" /> 
<circle cx="52540" cy="40380" r="71.063" /> 
<circle cx="46200" cy="38180" r="71.063" /> 
<circle cx="46940" cy="38160" r="71.063" /> 
<circle cx="52560" cy="37480" r="71.063" /> 
<circle cx="50180" cy="41220" r="71.063" /> 
<circle cx="50260" cy="37580" r="71.063" /> 
<circle cx="49780" cy="37740" r="71.063" /> 
<circle cx="48100" cy="37240" r="71.063" /> 
<circle cx="49527.6" cy="36082.7" r="71.063" /> 
<circle cx="49527.6" cy="36082.7" r="71.063" /> 
<circle cx="48100" cy="37240" r="71.063" /> 
<circle cx="49780" cy="37740" r="71.063" /> 
<circle cx="50260" cy="37580" r="71.063" /> 
<circle cx="50180" cy="41220" r="71.063" /> 
<circle cx="52560" cy="37480" r="71.063" /> 
<circle cx="46940" cy="38160" r="71.063" /> 
<circle cx="46200" cy="38180" r="71.063" /> 
<circle cx="45748" cy="40226.4" r="71.063" /> 
<circle cx="45748" cy="40226.4" r="71.063" /> 
<circle cx="45787.4" cy="40610.2" r="71.063" /> 
<circle cx="45787.4" cy="40610.2" r="71.063" /> 
<circle cx="48327" cy="39506" r="55.063" /> 
<circle cx="48721" cy="39506" r="55.063" /> 
<circle cx="47933" cy="39506" r="55.063" /> 
<circle cx="47933" cy="39112" r="55.063" /> 
<circle cx="48327" cy="39112" r="55.063" /> 
<circle cx="48721" cy="39112" r="55.063" /> 
<circle cx="48721" cy="39900" r="55.063" /> 
<circle cx="48327" cy="39900" r="55.063" /> 
<circle cx="47933" cy="39900" r="55.063" /> 
<circle cx="47322.8" cy="36181.1" r="94.4882" /> 
<circle cx="48110.2" cy="36181.1" r="94.4882" /> 
</g>
<g style="fill:#FFFFFF; fill-opacity:1.0; 
stroke:#FFFFFF; stroke-width:3.93701; stroke-opacity:1; 
stroke-linecap:round; stroke-linejoin:round;">
<circle cx="49120.1" cy="36515.7" r="-1.9685" /> 
</g>
<g style="fill:#FFFFFF; fill-opacity:1.0; 
stroke:#FFFFFF; stroke-width:7.87402; stroke-opacity:1; 
stroke-linecap:round; stroke-linejoin:round;">
</g>
<g style="fill:#FFFFFF; fill-opacity:1.0; 
stroke:#FFFFFF; stroke-width:3.93701; stroke-opacity:1; 
stroke-linecap:round; stroke-linejoin:round;">
<circle cx="49620.1" cy="36515.7" r="-1.9685" /> 
</g>
<g style="fill:#FFFFFF; fill-opacity:1.0; 
stroke:#FFFFFF; stroke-width:7.87402; stroke-opacity:1; 
stroke-linecap:round; stroke-linejoin:round;">
</g>
<g style="fill:#FFFFFF; fill-opacity:1.0; 
stroke:#FFFFFF; stroke-width:3.93701; stroke-opacity:1; 
stroke-linecap:round; stroke-linejoin:round;">
<circle cx="48620.1" cy="36515.7" r="-1.9685" /> 
</g>
<g style="fill:#FFFFFF; fill-opacity:1.0; 
stroke:#FFFFFF; stroke-width:7.87402; stroke-opacity:1; 
stroke-linecap:round; stroke-linejoin:round;">
</g>
<g style="fill:#FFFFFF; fill-opacity:1.0; 
stroke:#FFFFFF; stroke-width:3.93701; stroke-opacity:1; 
stroke-linecap:round; stroke-linejoin:round;">
<circle cx="50120.1" cy="36515.7" r="-1.9685" /> 
</g>
<g style="fill:#FFFFFF; fill-opacity:1.0; 
stroke:#FFFFFF; stroke-width:7.87402; stroke-opacity:1; 
stroke-linecap:round; stroke-linejoin:round;">
</g>
<g style="fill:#FFFFFF; fill-opacity:1.0; 
stroke:#FFFFFF; stroke-width:3.93701; stroke-opacity:1; 
stroke-linecap:round; stroke-linejoin:round;">
<circle cx="49120.1" cy="36515.7" r="-1.9685" /> 
</g>
<g style="fill:#FFFFFF; fill-opacity:1.0; 
stroke:#FFFFFF; stroke-width:7.87402; stroke-opacity:1; 
stroke-linecap:round; stroke-linejoin:round;">
</g>
<g style="fill:#FFFFFF; fill-opacity:1.0; 
stroke:#FFFFFF; stroke-width:3.93701; stroke-opacity:1; 
stroke-linecap:round; stroke-linejoin:round;">
<circle cx="49620.1" cy="36515.7" r="-1.9685" /> 
</g>
<g style="fill:#FFFFFF; fill-opacity:1.0; 
stroke:#FFFFFF; stroke-width:7.87402; stroke-opacity:1; 
stroke-linecap:round; stroke-linejoin:round;">
</g>
<g style="fill:#FFFFFF; fill-opacity:1.0; 
stroke:#FFFFFF; stroke-width:3.93701; stroke-opacity:1; 
stroke-linecap:round; stroke-linejoin:round;">
<circle cx="48620.1" cy="36515.7" r="-1.9685" /> 
</g>
<g style="fill:#FFFFFF; fill-opacity:1.0; 
stroke:#FFFFFF; stroke-width:7.87402; stroke-opacity:1; 
stroke-linecap:round; stroke-linejoin:round;">
</g>
<g style="fill:#FFFFFF; fill-opacity:1.0; 
stroke:#FFFFFF; stroke-width:3.93701; stroke-opacity:1; 
stroke-linecap:round; stroke-linejoin:round;">
<circle cx="50120.1" cy="36515.7" r="-1.9685" /> 
</g>
<g style="fill:#FFFFFF; fill-opacity:1.0; 
stroke:#FFFFFF; stroke-width:7.87402; stroke-opacity:1; 
stroke-linecap:round; stroke-linejoin:round;">
<circle cx="47322.8" cy="36181.1" r="94.4882" /> 
<circle cx="48110.2" cy="36181.1" r="94.4882" /> 
<circle cx="48327" cy="39506" r="55.063" /> 
<circle cx="48721" cy="39506" r="55.063" /> 
<circle cx="47933" cy="39506" r="55.063" /> 
<circle cx="47933" cy="39112" r="55.063" /> 
<circle cx="48327" cy="39112" r="55.063" /> 
<circle cx="48721" cy="39112" r="55.063" /> 
<circle cx="48721" cy="39900" r="55.063" /> 
<circle cx="48327" cy="39900" r="55.063" /> 
<circle cx="47933" cy="39900" r="55.063" /> 
</g>
<g style="fill:#FFFFFF; fill-opacity:1.0; 
stroke:#FFFFFF; stroke-width:394; stroke-opacity:1; 
stroke-linecap:round; stroke-linejoin:round;">
<path d="M53050 36737
L52460 36737
" />
<path d="M53050 41225
L52460 41225
" />
</g>
<g style="fill:#FFFFFF; fill-opacity:1.0; 
stroke:#FFFFFF; stroke-width:7.87402; stroke-opacity:1; 
stroke-linecap:round; stroke-linejoin:round;">
<circle cx="52755.7" cy="39867.3" r="212.563" /> 
<circle cx="52755.7" cy="38095.3" r="212.563" /> 
</g> 
</svg>
