/* XPM */
const char *bitmap2component_xpm[] = {
/* columns rows colors chars-per-pixel */
"32 32 16 1",
"@ c #592904",
"# c #974704",
"$ c #5455D0",
"o c #090915",
"- c #2E1604",
"+ c #4B4BB5",
"* c #222352",
"X c #0F1128",
": c #BE5904",
"  c #0CFA0C",
"% c #FC7A04",
"= c #323378",
"; c #753704",
"O c #3C3B8F",
"& c #DF6904",
". c #050204",
/* pixels */
"                         .    ..",
"                               .",
"                                ",
"........................   ..   ",
"........................   ..   ",
"   X.oO              ...        ",
"+++X@#.X+    $        ...      .",
"...o@%&@.*$$X.o=       ...    ..",
"....@%%%#-..-#;....     ........",
"....@%%&%&-.#%%-....     .......",
"....@%%%%;..;%&......====O+$    ",
"....@%%:-....o..............=   ",
"....@&@.... +*O ......%%%%&#.X  ",
"....-.....       .....%%&%%%:...",
"OO O=+       .      *.%%%%%&%@X ",
"            ...     =.%%%%%%%#..",
"             .      O.%%%%&%%;.=",
"..........       .....%%%%%%%-..",
"....@@.....     ......%%%%%%;...",
"....@%:-....X.........###;;-.=  ",
"....@%%&#...-#@...........o*$   ",
"....@%%%%&-.#%%...... $         ",
"....@%%%%#..;%%.....     .......",
"....@%%&-....-.....     ........",
"XXXo@%;.X+  +*=$       ...    ..",
"   X-.oO              ...      .",
"   X.=               ...        ",
"........................   ..   ",
"........................   ..   ",
"                                ",
"                               .",
"                         .    .."
};
