/* XPM */
const char *icon_bitmap2component_xpm[] = {
/* columns rows colors chars-per-pixel */
"32 32 427 2",
"^X c #DDDDDC",
"qX c #70726F",
"_X c Black",
"5  c #DDDDDD",
"#. c #E0E1E1",
"e  c #E6E6E6",
"cO c #7C7F7D",
"-  c #7C7C7C",
"G  c #EFEFEF",
"mX c #828482",
"dO c #828483",
"u. c #858585",
"8X c #888988",
"#o c #8B8D8C",
"g. c #8B9090",
"EX c #A0A3A0",
"K  c #A0A0A0",
"OO c #A3A4A2",
"Lo c #36393A",
"So c #ACADAB",
"-O c #ACADAC",
"M. c #A9ACAC",
"!X c #B2B2B0",
"d. c #ACADAF",
";o c #AFB1B1",
"b. c #ACADB0",
"Z  c #B2B2B2",
":o c #B5B6B5",
"{X c #B5B6B6",
" o c #BBBBBA",
"A  c #BBBBBB",
"dX c #BBBEBD",
"jo c #BEBFBD",
"*X c #C4C4C0",
"fX c #C1C3C2",
"]X c #C4C4C3",
"+o c #515757",
"-X c #C4C4C4",
"2. c #5A5A5A",
"GX c #CACCCA",
"[. c #D0D1D0",
"w. c #5D6162",
"4o c #D6D6D4",
"XX c #D6D6D5",
"b  c #D6D6D6",
"8o c #452358",
"). c #E2E3DC",
";. c #D9DADA",
"%  c #6C6C6C",
")o c #DFDFDE",
"D. c #E2E3E0",
"a  c #DFDFDF",
"B. c #6C7272",
"xX c #727473",
"$. c #E2E3E3",
"S. c #E8E8E6",
"bO c #7B7D7B",
"t  c #E8E8E8",
"jO c #7E817F",
"I. c #7E7E7E",
"|. c #7E8181",
"iO c #848684",
"E  c #F1F1F1",
">  c #878787",
"]o c #878A89",
"0. c #878A8B",
"<O c #999C99",
"~  c #999999",
"4O c #A5A6A3",
"u  c #A2A2A2",
"$o c #A5A6A5",
"tO c #383838",
"oO c #ABABA9",
"^o c #AEAFAC",
"9O c #AEAFAD",
"a. c #A8AAAC",
"!o c #AEAFAE",
"{. c #ABAEAE",
"l. c #AEAFB1",
">X c #B1B3B3",
"n  c #B4B4B4",
"6o c #B7B8B6",
".  c #4A4A4A",
"@X c #BABCB9",
"@O c #BDBDBB",
"V  c #BDBDBD",
"%o c #C3C5C1",
"/. c #C6C6C4",
"6. c #505556",
"L  c #C6C6C6",
",o c #C9CAC8",
":X c #C9CAC9",
"+  c #5C5C5C",
"7. c #595E5F",
"QX c #5F6361",
"Zo c #5C6262",
"B  c #CFCFCF",
"Y. c #D2D3D2",
"yO c #656867",
"_. c #DEE0D8",
"<. c #D8D8D9",
"wX c #717271",
"K. c #E1E1DF",
"Fo c #E1E1E0",
"8  c #E1E1E1",
"Yo c #EAEAE8",
"xO c #7D7F7D",
"m. c #777A7C",
"c  c #EAEAEA",
"<X c #7A7E7E",
"fO c #808381",
";  c #808080",
"sO c #838483",
"{o c #F3F3F1",
"f  c #F3F3F3",
"1. c #898989",
"Io c #8C908E",
"_o c #9B9E9B",
".o c #A1A3A2",
"Go c #A7A8A4",
"@o c #A4A7A4",
"1O c #A7A8A5",
"Qo c #A4A7A5",
"D  c #A4A4A4",
"mo c #ADB0AC",
"Co c #AAACAC",
"W  c #ADADAD",
"Eo c #B0B1AF",
"f. c #AAACAE",
"Ho c #B3B5B3",
"OX c #B3B5B4",
"KX c #B3B5B5",
"(  c #B6B6B6",
"'o c #464A4B",
"}  c #BFBFBF",
",O c #4F5656",
"=. c #C2C3C3",
"+X c #C5C7C6",
"o. c #4C4C55",
" O c #525A5A",
"4X c #CBCCCB",
"7X c #D1D1CF",
"t. c #5B6061",
"/  c #D1D1D1",
"V. c #D4D5D4",
"2  c #676767",
"x  c #DADADA",
"&  c #707070",
"*. c #DDDEDE",
"0  c #E3E3E3",
"mO c #797C7A",
"A. c #ECECEA",
"s  c #ECECEC",
".. c #F5F5F5",
",  c #8B8B8B",
"5o c #979894",
"~X c #9A9C98",
"zX c #979897",
"$X c #9A9C9A",
"3O c #A6A6A4",
"|o c #A3A5A4",
"Ko c #2A3036",
"/o c #A9AAA7",
"d  c #A6A6A6",
"UX c #A9AAA8",
"po c #ACAEAD",
"Oo c #302F3E",
"^. c #B2B3B1",
"HX c #B5B7B6",
"VX c #BEC0BF",
"%X c #C1C1C0",
"&X c #C4C5C2",
"_  c #C1C1C1",
"5. c #4E5455",
"1X c #C4C5C4",
"~. c #515557",
"bX c #5A5B5B",
"[X c #CACAC9",
"kX c #CDCECB",
"S  c #CACACA",
"@  c #606060",
"Q. c #D3D3D1",
"to c #D6D7D4",
"!  c #D3D3D3",
".X c #D6D7D5",
"i. c #636769",
",. c #D6D7D7",
"(. c #DCDCD9",
"0X c #6C706E",
"4  c #DCDCDC",
"`X c #6C7070",
"%. c #DFE0E0",
"w  c #E5E5E5",
"U. c #727878",
"vO c #7B7E7C",
"p. c #75797B",
"C. c #EEEEEC",
"F  c #EEEEEE",
"Xo c #848786",
"W. c #8A8C8A",
"X. c #F7F7F7",
"|X c #939590",
"/X c #999A99",
"5O c #9F9F9D",
".O c #9FA2A0",
"3o c #9F9F9F",
"CO c #2C2F32",
"6O c #A2A3A1",
"1o c #A2A3A2",
"0O c #A5A7A4",
"XO c #ABACA9",
"l  c #A8A8A8",
"P. c #A8ABAB",
"n. c #ABACAD",
"yo c #AEB0AF",
"s. c #ABACAE",
"ro c #B4B5B2",
"C  c #B1B1B1",
"ao c #B4B5B3",
"(X c #B1B4B3",
"z. c #AEB0B2",
"<o c #B4B5B4",
"bo c #444648",
"9o c #6F178A",
"DX c #B7B9B8",
"v  c #BABABA",
"Uo c #BDBEBC",
"X  c #505050",
"pX c #C0C2C1",
"Mo c #C6C7C3",
"`  c #C3C3C3",
"=X c #C6C7C5",
"`o c #595C5D",
"h  c #CCCCCC",
"Po c #5C6060",
"MO c #5F6161",
"q. c #5C6061",
"co c #352050",
"NX c #D5D5D3",
"Q  c #D5D5D5",
":. c #D8D9D9",
"T  c #6B6B6B",
"*O c #DEDEDC",
"6  c #DEDEDE",
"T. c #E1E2E0",
"y. c #6E7272",
"@. c #E1E2E2",
"*  c #747474",
"NO c #0A0A0A",
"r  c #E7E7E7",
"sX c #747A7A",
"zO c #7D807D",
"lO c #7D807E",
"aO c #838583",
"P  c #F0F0F0",
"pO c #838584",
"TX c #838586",
"<  c #8F8F8F",
"Do c #989898",
">O c #9EA09E",
"BO c #2E3131",
"eO c #A4A5A2",
"VO c #2E3134",
"wO c #A4A5A3",
";O c #A7A9A6",
"x. c #A7A9A8",
"7O c #ADAEAC",
"v. c #ADAEB0",
"vo c #28263C",
"*o c #B0B2B2",
"'X c #B6B7B6",
"7o c #B9BBB9",
"jX c #B9BBBA",
"rX c #BFC0BC",
"U  c #BCBCBC",
"oo c #3D3349",
"so c #C2C4C0",
"4. c #4F5455",
"%O c #C8C9C6",
"{  c #C5C5C5",
"3. c #555959",
"iX c #C8C9C9",
"6X c #CECECB",
" X c #CBCDCB",
"3X c #CBCDCC",
"xo c #372851",
"tX c #D1D2CF",
"L. c #D1D2D0",
"#  c #646464",
"`. c #DDDFD7",
"G. c #676B6A",
")X c #646769",
"R. c #E0E0DE",
"7  c #E0E0E0",
"eX c #737574",
",X c #767676",
"YX c #767977",
"AX c #707476",
"g  c #E9E9E9",
"hO c #7F8280",
"uO c #858785",
"p  c #F2F2F2",
"zo c #8B8F8D",
" . c #919191",
"k. c #8E9091",
"lX c #949593",
"8. c #919494",
"rO c #979997",
"IX c #A0A29B",
"go c #A0A29F",
"BX c #A0A2A1",
"}X c #A3A3A2",
"2O c #A6A7A4",
"JX c #A6A7A5",
":O c #A9ABA8",
"Ao c #A9ABAA",
"5X c #ACACAC",
"yX c #AFB0AF",
"fo c #B2B4B1",
"aX c #B2B4B4",
"8O c #B8B9B7",
"[o c #B8BCB8",
"H. c #BBBDBB",
"O. c #485050",
"#O c #C1C2BF",
"j  c #BEBEBE",
"$O c #C4C6C3",
"o  c #545454",
"FX c #C4C6C4",
"R  c #C7C7C7",
"=O c #CACBC9",
"=o c #575B5B",
"PX c #CDCFCE",
")  c #D0D0D0",
";X c #D3D4D3",
"0o c #392455",
"-o c #666C6C",
"y  c #D9D9D9",
"ZX c #6F6F6F",
"9  c #E2E2E2",
"=  c #787878",
"z  c #EBEBEB",
"kO c #7E807F",
"N. c #818181",
"N  c #F4F4F4",
"h. c #818486",
"1  c #939393",
"(o c #A5A5A3",
"LX c #A2A4A4",
"~o c #AEAEAD",
"I  c #AEAEAE",
"ho c #B1B2B0",
"2o c #B1B2B1",
"#X c #B4B6B4",
"SX c #B4B6B5",
"^  c #C0C0C0",
">o c #C3C4C2",
"cX c #505454",
"uX c #C3C4C3",
"'  c #C9C9C9",
"2X c #CCCDCB",
"r. c #5C6162",
"3  c #D2D2D2",
"+. c #656767",
"$  c #686868",
"io c #626668",
"H  c #DBDBDB",
"&. c #DEDFDF",
"J. c #E4E4E1",
"q  c #E4E4E4",
"CX c #747878",
"nO c #7A7D7B",
"}. c #7A7A7A",
"Z. c #EDEDEB",
"No c #EDEDEC",
"gO c #808280",
"M  c #EDEDED",
":  c #838383",
"[  c #F6F6F6",
"!. c #8C8F8E",
"j. c #898B8D",
"WX c #8F9391",
"   c #FFFFFF",
"nX c #959594",
"F. c #959895",
"]  c #959595",
"E. c #9B9D9A",
"eo c #9B9D9B",
"+O c #9E9E9D",
"Y  c #9E9E9E",
"Jo c #282D32",
"Bo c #A1A2A1",
"ko c #A4A6A2",
"qO c #A4A6A3",
"&o c #A1A2A2",
"}o c #AAABA8",
"RX c #AAABA9",
"qo c #2E353B",
"Ro c #ADAFAC",
"MX c #B3B4B1",
"9. c #B0B0B0",
"Vo c #B3B4B2",
"c. c #ADAFB1",
"k  c #B9B9B9",
"lo c #BCBDBC",
"vX c #494D4E",
"hX c #BFC1C0",
"no c #4C5152",
"To c #C2C2C1",
"|  c #C2C2C2",
"O  c #585858",
"do c #C8CAC7",
"gX c #C8CAC9",
"Wo c #585E5E",
"J  c #CBCBCB",
"&O c #CECFCE",
"e. c #5B5F60",
"-. c #CECFCF",
"uo c #5E6363",
"'. c #DADCD4",
"]. c #D7D8D3",
"oX c #D4D4D3",
"m  c #D4D4D4",
"wo c #676C6A",
">. c #D7D8D8",
"i  c #6A6A6A",
"9X c #6D6E6C",
/* pixels */
"          . X o O O + @ # $ % & * * = - ; : > > , < < 1 1 1     ",
"        2 3 4 4 5 6 7 7 8 8 9 0 0 q q w e e e r r r t t t y u   ",
"        i p t t t t t w 0 t r r e e w w q q 0 9 8 8 7 a 6 s d   ",
"        i f g g g g g y h g 6 j t r r e w w q k 7 8 8 7 a s l   ",
"        i f z z z z z x h c v v g t t r e e b n m 9 8 8 7 M l   ",
"        i N s s s s s 4 B z z 8 c g g t r e e 4 q 0 9 8 7 M d   ",
"        i N M M m V C V V Z A S z c c g t r r e w q 0 9 8 M D   ",
"        i F 3 G G H J F F b B M s z z c g t r e w w q 0 9 M K   ",
"        i c L P 6 I q P G F U z M s s z c g t r e w q 0 9 s Y   ",
"        T c R E S W c E E P Q 3 F M M t Q m ! 3 3 7 w q 0 s ~   ",
"        T M ^ / ( w f p p E G U ) J h _ ` 3 / / R v ' 4 0 z ]   ",
"        T [ w a g N N f f p p z 4 { / J V R R L } | m 7 q c  .  ",
"        T [ N ..........N f p p E 3 8 F 9 7 a 6 5 w e w q c <   ",
"        T X...[ [ X.[ [ ..N f p E 3 8 F M s z c g r e w q c ,   ",
"    o.O.+.@.#.@.$.$.@.@.#.%.&.&.*.=.-.;.:.>.>.,.<.t r w q g 1.  ",
"2.3.4.5.6.7.8.9.Z 0.q.w.w.w.w.w.w.e.q.r.r.t.t.t.w.y.6 w q g u.  ",
"i.p.a.s.d.f.g.h.j.k.l.z.z.z.z.d.x.c.v.v.b.d.d.n.a.m.M.w q t N.  ",
"B.V.C.C.C.C.Z.A.Z.Z.Z.Z.Z.S.D.F.G.H.J.K.5 a H x ! L.P.w q t I.  ",
"U.Y.T.T.K.K.K.K.R.R.R.R.E.W.Q.!.~.^./.(.)._.`.'.].[.{.w q r }.  ",
"|. X.X.X.X.X.XXXXXXXXXoXOX+X@XJ #X$X%X&X*X=X-X;X;X:X>Xw q r ,X  ",
"<X1X2X2X2X3X3X3X3X4X4X5X6X7X8X9X0XqXwXeXrXtXyXuXiXpXaXs z J &   ",
"sXdXfXfXfX+XgXpXhXpXjX^.kXlXzXxXcXvXbXnXmXMXNXBXVXjXCX* * ZX    ",
"AXSXDXDXDXFXGXHXJXKXLXPXIXUXYXTXRXEXWXQX!X~X^X/XHX(X)X_X_X_X_X  ",
"`X>X'X'XHX]X[X{X}X^./X^X|X o.oXoooOo+o@o#o$o%o&oHX*o=o_X_X_X_X  ",
"-o;o:o:o:o>o,o<o1o2o3o4o5o6o7o8o9o0oqowoeoroto1oSXyouo_X_X_X    ",
"iopoaoaoaosodofogohoRXjokolozoxocovobonomoMoNoBoVoCoio          ",
"ZoAo2o2o2olo-XhoSo2o9.DoFoGoHoJoKoLoPoIoUoYoToRoEox.Zo          ",
"WoQo!o!o!oI I ~o~o^o^o/o(o)oMX_o`o'o]o[o{o(.}oRoRo|oWo          ",
" O.OXOXOXOXOoOoO}oRXRXRXOO+O@O#O$O%O&O*O=O-O;O:O:O>O O          ",
",O<O1O2O2O2O2O3O4O2O2O2O2O2O5O6O7O o8O9O0OqOwOeO4OrO,O          ",
"tOyOuOiOiOpOaOsOdOfOgOhOhOhOjOkOlOzOxOcOvObOnOnOmOMOtO          ",
"_XNOBOVOVOCOCOCOCOCOCOCOCOCOCOCOCOCOCOCOCOCOVOVOBONO_X          "
};
