<?xml version="1.0" encoding="UTF-8" standalone="no"?>
<svg
   width="850"
   height="260"
   viewBox="0 0 850 260"
   version="1.1"
   id="svg14"
   sodipodi:docname="constraint_absolute_length.svg"
   inkscape:version="1.4.3 (0d15f75, 2025-12-25)"
   xmlns:inkscape="http://www.inkscape.org/namespaces/inkscape"
   xmlns:sodipodi="http://sodipodi.sourceforge.net/DTD/sodipodi-0.dtd"
   xmlns="http://www.w3.org/2000/svg"
   xmlns:svg="http://www.w3.org/2000/svg">
  <sodipodi:namedview
     id="namedview14"
     pagecolor="#ffffff"
     bordercolor="#000000"
     borderopacity="0.25"
     inkscape:showpageshadow="2"
     inkscape:pageopacity="0.0"
     inkscape:pagecheckerboard="0"
     inkscape:deskcolor="#d1d1d1"
     inkscape:zoom="0.79318995"
     inkscape:cx="443.14732"
     inkscape:cy="124.18211"
     inkscape:window-width="1512"
     inkscape:window-height="838"
     inkscape:window-x="0"
     inkscape:window-y="34"
     inkscape:window-maximized="0"
     inkscape:current-layer="svg14" />
  <defs
     id="defs2">
    <!-- Inward-pointing arrowheads for dimension lines -->
    <marker
       id="ah-start"
       markerWidth="10"
       markerHeight="6"
       refX="0"
       refY="4"
       orient="auto"
       markerUnits="userSpaceOnUse"
       viewBox="0 0 10 6"
       preserveAspectRatio="xMidYMid">
      <polygon
         points="0,1 10,4 0,7"
         fill="#B0B0B0"
         id="polygon1" />
    </marker>
    <marker
       id="ah-end"
       markerWidth="10"
       markerHeight="6"
       refX="10"
       refY="4"
       orient="auto"
       markerUnits="userSpaceOnUse"
       viewBox="0 0 10 6"
       preserveAspectRatio="xMidYMid">
      <polygon
         points="10,1 0,4 10,7"
         fill="#B0B0B0"
         id="polygon2" />
    </marker>
  </defs>
  <!-- ===== PADS ===== -->
  <!-- Left pads (round, through-hole style) -->
  <circle
     cx="30"
     cy="90"
     r="10"
     fill="#5b9bd5"
     id="circle2" />
  <!-- Right pads (rectangular, SMD style) -->
  <rect
     x="794.49725"
     y="107"
     width="24"
     height="24"
     rx="3"
     fill="#5b9bd5"
     id="rect3" />
  <!-- ===== SINGLE TRACE WITH MEANDER ===== -->
  <!-- Uniform serpentine: R=22 semicircular turns, 44px channel pitch,
       y_top=38, y_bot=108. Entry/exit via quarter-arc transitions. -->
  <path
     d="M 40,90 H 70 C 82.150264,90 92,80.150264 92,68 V 38 c 0,-12.150273 9.84974,-21.99999 22,-21.99999 12.15026,0 22,9.849717 22,21.99999 v 70 c 0.21322,11.30374 9.63652,19.7908 21.78678,19.7908 12.15027,0 22.42644,-8.06062 22.21322,-19.7908 V 38 c 0,-12.150273 9.84974,-21.99999 22,-21.99999 12.15026,0 22,9.849717 22,21.99999 v 70 c 0,13.00949 10.91583,19.36436 23.06609,19.36436 12.15027,0 21.14713,-5.502 20.93391,-19.36436 V 38 c 0,-12.150273 9.84974,-21.99999 22,-21.99999 12.15026,0 22,9.849717 22,21.99999 v 70 c 0.42644,13.22271 9.84974,19.57758 22,19.57758 12.15026,0 22,-5.07556 22,-19.57758 V 38 c 0,-12.150273 9.84974,-21.99999 22,-21.99999 12.15026,0 22,9.849717 22,21.99999 v 70 c -0.21322,13.22271 10.06295,19.57758 22.21322,19.57758 12.15026,0 22.21322,-5.07556 21.78678,-19.57758 V 38 c 0,-12.150273 9.84974,-21.99999 22,-21.99999 12.15026,0 22,9.849717 22,21.99999 v 59 c -0.003,15.35172 6.64828,22.2164 22,22 h 285"
     stroke="#5b9bd5"
     stroke-width="7"
     fill="none"
     stroke-linecap="round"
     stroke-linejoin="round"
     id="path4"
     sodipodi:nodetypes="cssssscscssscscssscscssscscsssccc" />
  <!-- ===== LENGTH DIMENSION ARROWS (below traces) ===== -->
  <!-- Common left extension line (dashed, from pad area down to arrows) -->
  <line
     x1="20.16864"
     y1="140"
     x2="20.16864"
     y2="204.44565"
     stroke="#707070"
     stroke-width="0.7"
     stroke-dasharray="3, 3"
     id="line5" />
  <!-- Min length: x=30 to x=285, y=190 -->
  <line
     x1="524.33136"
     y1="138.8214"
     x2="524.33136"
     y2="154.8214"
     stroke="#808080"
     stroke-width="0.7"
     id="line6" />
  <line
     x1="30.978367"
     y1="147.80708"
     x2="513.7215"
     y2="147.80708"
     stroke="#b0b0b0"
     stroke-width="2.06386"
     marker-start="url(#ah-start)"
     marker-end="url(#ah-end)"
     id="line7"
     style="marker-start:url(#ah-end);marker-end:url(#ah-start)" />
  <!-- Field position: ~(290, 183) -->
  <!-- Opt length: x=30 to x=475, y=210 -->
  <line
     x1="666.53131"
     y1="167.05452"
     x2="666.53131"
     y2="183.05452"
     stroke="#808080"
     stroke-width="0.7"
     id="line8" />
  <line
     x1="30.206526"
     y1="174.81697"
     x2="655.6615"
     y2="174.81697"
     stroke="#b0b0b0"
     stroke-width="1.77832"
     marker-start="url(#ah-start)"
     marker-end="url(#ah-end)"
     id="line9"
     style="marker-start:url(#ah-end);marker-end:url(#ah-start)" />
  <!-- Field position: ~(480, 203) -->
  <!-- Max length: x=30 to x=700, y=230 -->
  <line
     x1="819.27112"
     y1="194.58308"
     x2="819.27112"
     y2="210.58308"
     stroke="#808080"
     stroke-width="0.7"
     id="line10"
     style="stroke-width:1.123;stroke-dasharray:none" />
  <line
     x1="30.613073"
     y1="203.02974"
     x2="808.76239"
     y2="203.02974"
     stroke="#b0b0b0"
     stroke-width="1.61654"
     marker-start="url(#ah-start)"
     marker-end="url(#ah-end)"
     id="line11"
     style="marker-start:url(#ah-end);marker-end:url(#ah-start)" />
  <!-- Field position: ~(705, 223) -->
  <!-- ===== SKEW DIMENSION ARROW (right side) ===== -->
  <!-- Brackets the extra meander section of trace N -->
  <!-- Field position: ~(773, 161) -->
</svg>
