/* XPM */ 
static char const *cursor_select_window_xpm[] = {
"32 32 3 1",
" 	c None",
"!	c black",
"#	c white",
"       #                        ",
"      #!#                       ",
"      #!#                       ",
"      #!#                       ",
"      #!#                       ",
"      #!#                       ",
" #####   #####                  ",
"#!!!!!   !!!!!#                 ",
" #####   #####                  ",
"      #!#                       ",
"      #!# ###################   ",
"      #!# #!!!!!!!!!!!!!!!!!#   ",
"      #!# #!###############!#   ",
"      #!# #!#             #!#   ",
"       #  #!#             #!#   ",
"          #!#     ###     #!#   ",
"          #!#    #!!!#    #!#   ",
"          #!#   #!!!!!#   #!#   ",
"          #!#  #!!!!!!!#  #!#   ",
"          #!#  #!!!!!!!#  #!#   ",
"          #!#  #!!!!!!!#  #!#   ",
"          #!#   #!!!!!#   #!#   ",
"          #!#    #!!!#    #!#   ",
"          #!#     ###     #!#   ",
"          #!#             #!#   ",
"          #!#             #!#   ",
"          #!###############!#   ",
"          #!!!!!!!!!!!!!!!!!#   ",
"          ###################   ",
"                                ",
"                                ",
"                                "};