/* XPM */ 
static const char * cursor_line_bus_xpm[] = {
"32 32 4 1",
" 	c None",
"!	c black",
"#	c white",
"$	c #0000FF",
"   ###                          ",
"   #!#                          ",
"   #!#                          ",
"####!####                       ",
"#!!! !!!#                       ",
"####!####                       ",
"   #!#                  ##      ",
"   #!#                 #$$#     ",
"   ###                #$$$$#    ",
"                     #$$$$$$#   ",
"                    #$$$$$$#    ",
"                   #$$$$$$#     ",
"                  #$$$$$$#      ",
"                 #$$$$$$#       ",
"                #$$$$$$#        ",
"               #$$$$$$#         ",
"              #$$$$$$#          ",
"             #$$$$$$#           ",
"            #$$$$$$#            ",
"           #$$$$$$#             ",
"          #$$$$$$#              ",
"         #$$$$$$#               ",
"        #$$$$$$#                ",
"       #$$$$$$#                 ",
"      #$$$$$$#                  ",
"       #$$$$#                   ",
"        #$$#                    ",
"         ##                     ",
"                                ",
"                                ",
"                                ",
"                                "};