/* XPM */
static const char * cursor_line_bus_xpm[] = {
"32 32 4 1",
" 	c None",
".	c #FFFFFF",
"+	c #0000FF",
"@	c #000000",
"                                ",
"                                ",
"                                ",
"                        ..      ",
"                       .++.     ",
"                      .++++.    ",
"                     .++++++.   ",
"                    .++++++.    ",
"                   .++++++.     ",
"                  .++++++.      ",
"                 .++++++.       ",
"                .++++++.        ",
"               .++++++.         ",
"              .++++++.          ",
"             .++++++.           ",
"            .++++++.            ",
"           .++++++.             ",
"          .++++++.              ",
"         .++++++.               ",
"        .++++++.                ",
"         .++++.                 ",
"    ...   .++.                  ",
"    .@.    ..                   ",
"    .@.                         ",
"    .@.                         ",
".....@.....                     ",
".@@@@ @@@@.                     ",
".....@.....                     ",
"    .@.                         ",
"    .@.                         ",
"    .@.                         ",
"    ...                         "};
