/* XPM */
static const char * cursor_line_wire_add_xpm[] = {
"32 32 4 1",
" 	c None",
".	c #FFFFFF",
"+	c #008000",
"@	c #000000",
"                                ",
"                                ",
"                                ",
"                                ",
"              ..         .      ",
"             .++.       .+.     ",
"            ..++..     .+++.    ",
"           .++++++.   .+++.     ",
"           .++++++.  .+++.      ",
"            ..++..  .+++.       ",
"             .++.  .+++.        ",
"              ..  .+++.         ",
"                 .+++.          ",
"                .+++.           ",
"               .+++.            ",
"              .+++.             ",
"             .+++.              ",
"            .+++.               ",
"           .+++.                ",
"          .+++.                 ",
"         .+++.                  ",
"    ...   .+.                   ",
"    .@.    .                    ",
"    .@.                         ",
"    .@.                         ",
".....@.....                     ",
".@@@@ @@@@.                     ",
".....@.....                     ",
"    .@.                         ",
"    .@.                         ",
"    .@.                         ",
"    ...                         "};
