<?xml version="1.0" encoding="UTF-8" standalone="no"?>
<!-- Created with Inkscape (http://www.inkscape.org/) -->

<svg
   xmlns:dc="http://purl.org/dc/elements/1.1/"
   xmlns:cc="http://creativecommons.org/ns#"
   xmlns:rdf="http://www.w3.org/1999/02/22-rdf-syntax-ns#"
   xmlns:svg="http://www.w3.org/2000/svg"
   xmlns="http://www.w3.org/2000/svg"
   xmlns:xlink="http://www.w3.org/1999/xlink"
   xmlns:sodipodi="http://sodipodi.sourceforge.net/DTD/sodipodi-0.dtd"
   xmlns:inkscape="http://www.inkscape.org/namespaces/inkscape"
   width="64px"
   height="64px"
   id="svg3205"
   version="1.1"
   inkscape:version="0.47+devel r9369"
   sodipodi:docname="pcbnew.svg">
  <defs
     id="defs3207">
    <linearGradient
       inkscape:collect="always"
       id="linearGradient5713">
      <stop
         style="stop-color:#babdb6;stop-opacity:1;"
         offset="0"
         id="stop5715" />
      <stop
         style="stop-color:#babdb6;stop-opacity:0;"
         offset="1"
         id="stop5717" />
    </linearGradient>
    <linearGradient
       id="linearGradient5705">
      <stop
         style="stop-color:#2e3436;stop-opacity:1;"
         offset="0"
         id="stop5707" />
      <stop
         style="stop-color:#ffffff;stop-opacity:1;"
         offset="1"
         id="stop5709" />
    </linearGradient>
    <linearGradient
       id="linearGradient5695">
      <stop
         style="stop-color:#000000;stop-opacity:1;"
         offset="0"
         id="stop5697" />
      <stop
         style="stop-color:#000000;stop-opacity:0;"
         offset="1"
         id="stop5699" />
    </linearGradient>
    <linearGradient
       id="linearGradient4081">
      <stop
         style="stop-color:#3465a4;stop-opacity:0.52991456;"
         offset="0"
         id="stop4083" />
      <stop
         style="stop-color:#3465a4;stop-opacity:0;"
         offset="1"
         id="stop4085" />
    </linearGradient>
    <linearGradient
       inkscape:collect="always"
       xlink:href="#linearGradient4081"
       id="linearGradient4087"
       x1="54"
       y1="62"
       x2="29"
       y2="13"
       gradientUnits="userSpaceOnUse" />
    <linearGradient
       inkscape:collect="always"
       xlink:href="#linearGradient4081-7"
       id="linearGradient4087-6"
       x1="54"
       y1="62"
       x2="29"
       y2="13"
       gradientUnits="userSpaceOnUse" />
    <linearGradient
       id="linearGradient4081-7">
      <stop
         style="stop-color:#3465a4;stop-opacity:1;"
         offset="0"
         id="stop4083-6" />
      <stop
         style="stop-color:#ffffff;stop-opacity:1;"
         offset="1"
         id="stop4085-1" />
    </linearGradient>
    <clipPath
       clipPathUnits="userSpaceOnUse"
       id="clipPath5683">
      <path
         transform="matrix(1.0056356,0,0,1.0230341,9.2147668,6.1937063)"
         d="m 32,21.4375 a 18.375,18.0625 0 1 1 -36.75,0 18.375,18.0625 0 1 1 36.75,0 z"
         sodipodi:ry="18.0625"
         sodipodi:rx="18.375"
         sodipodi:cy="21.4375"
         sodipodi:cx="13.625"
         id="path5685"
         style="fill:none;stroke:#000000;stroke-width:1.97180796;stroke-linecap:butt;stroke-linejoin:miter;stroke-miterlimit:4;stroke-opacity:1;stroke-dasharray:none;stroke-dashoffset:0"
         sodipodi:type="arc" />
    </clipPath>
    <clipPath
       clipPathUnits="userSpaceOnUse"
       id="clipPath5687">
      <path
         transform="matrix(1.0056356,0,0,1.0230341,9.2147668,-23.806294)"
         d="m 32,21.4375 a 18.375,18.0625 0 1 1 -36.75,0 18.375,18.0625 0 1 1 36.75,0 z"
         sodipodi:ry="18.0625"
         sodipodi:rx="18.375"
         sodipodi:cy="21.4375"
         sodipodi:cx="13.625"
         id="path5689"
         style="fill:none;stroke:#000000;stroke-width:1.97180796;stroke-linecap:butt;stroke-linejoin:miter;stroke-miterlimit:4;stroke-opacity:1;stroke-dasharray:none;stroke-dashoffset:0"
         sodipodi:type="arc" />
    </clipPath>
    <clipPath
       clipPathUnits="userSpaceOnUse"
       id="clipPath5691">
      <path
         transform="matrix(-1.0056356,0,0,1.0230341,54.118337,-8.8062937)"
         d="m 32,21.4375 a 18.375,18.0625 0 1 1 -36.75,0 18.375,18.0625 0 1 1 36.75,0 z"
         sodipodi:ry="18.0625"
         sodipodi:rx="18.375"
         sodipodi:cy="21.4375"
         sodipodi:cx="13.625"
         id="path5693"
         style="fill:none;stroke:#000000;stroke-width:1.97180796;stroke-linecap:butt;stroke-linejoin:miter;stroke-miterlimit:4;stroke-opacity:1;stroke-dasharray:none;stroke-dashoffset:0"
         sodipodi:type="arc" />
    </clipPath>
    <linearGradient
       inkscape:collect="always"
       xlink:href="#linearGradient5713"
       id="linearGradient5719"
       x1="35.8125"
       y1="44.875"
       x2="74.5625"
       y2="44.875"
       gradientUnits="userSpaceOnUse" />
    <linearGradient
       inkscape:collect="always"
       xlink:href="#linearGradient5705"
       id="linearGradient5721"
       gradientUnits="userSpaceOnUse"
       x1="48.6875"
       y1="50.5"
       x2="53.1875"
       y2="44.1875" />
    <clipPath
       clipPathUnits="userSpaceOnUse"
       id="clipPath5779">
      <rect
         style="fill:#ffffff;fill-opacity:1;stroke:none"
         id="rect5781"
         width="68.888885"
         height="38.680088"
         x="-3.7447917"
         y="29.023071" />
    </clipPath>
  </defs>
  <sodipodi:namedview
     id="base"
     pagecolor="#ffffff"
     bordercolor="#666666"
     borderopacity="1.0"
     inkscape:pageopacity="0.0"
     inkscape:pageshadow="2"
     inkscape:zoom="8.2"
     inkscape:cx="55.354323"
     inkscape:cy="25.374987"
     inkscape:current-layer="layer1"
     showgrid="false"
     inkscape:document-units="px"
     inkscape:grid-bbox="true"
     inkscape:snap-global="true"
     inkscape:window-width="1918"
     inkscape:window-height="1045"
     inkscape:window-x="0"
     inkscape:window-y="19"
     inkscape:window-maximized="0"
     showguides="true"
     inkscape:guide-bbox="true">
    <inkscape:grid
       type="xygrid"
       id="grid4017" />
  </sodipodi:namedview>
  <metadata
     id="metadata3210">
    <rdf:RDF>
      <cc:Work
         rdf:about="">
        <dc:format>image/svg+xml</dc:format>
        <dc:type
           rdf:resource="http://purl.org/dc/dcmitype/StillImage" />
        <dc:title></dc:title>
      </cc:Work>
    </rdf:RDF>
  </metadata>
  <g
     id="layer1"
     inkscape:label="Layer 1"
     inkscape:groupmode="layer">
    <rect
       style="fill:#ffffff;fill-opacity:1;stroke:none"
       id="rect4019-0"
       width="64"
       height="64"
       x="0"
       y="0" />
    <rect
       style="fill:url(#linearGradient4087);stroke:#2e3436;stroke-width:2.04792737999999996;stroke-linecap:butt;stroke-linejoin:miter;stroke-miterlimit:7.69999980999999867;stroke-opacity:1;stroke-dasharray:none;stroke-dashoffset:0;fill-opacity:1;opacity:1"
       id="rect4019"
       width="61.952072"
       height="61.952072"
       x="1.0239637"
       y="1.0239642" />
    <g
       id="g4029"
       transform="matrix(-1,0,0,1,64.166552,40)">
      <path
         style="fill:none;stroke:#ce5c00;stroke-width:4;stroke-linecap:butt;stroke-linejoin:miter;stroke-miterlimit:4;stroke-opacity:1;stroke-dasharray:none"
         d="m 13.818183,14 45,-0.303481"
         id="path4031"
         inkscape:connector-curvature="0" />
      <path
         sodipodi:type="arc"
         style="fill:#ffffff;fill-opacity:1;stroke:#ce5c00;stroke-width:3.59950399000000010;stroke-linecap:butt;stroke-linejoin:miter;stroke-miterlimit:4;stroke-opacity:1;stroke-dasharray:none;stroke-dashoffset:0"
         id="path4033"
         sodipodi:cx="12.545455"
         sodipodi:cy="12.272727"
         sodipodi:rx="5.090909"
         sodipodi:ry="4.909091"
         d="m 17.636364,12.272727 c 0,2.711216 -2.279278,4.909091 -5.090909,4.909091 -2.8116314,0 -5.090909,-2.197875 -5.090909,-4.909091 0,-2.7112161 2.2792776,-4.909091 5.090909,-4.909091 2.811631,0 5.090909,2.1978749 5.090909,4.909091 z"
         transform="matrix(0.81842984,0,0,0.84874203,-0.26757473,3.5836208)" />
    </g>
    <g
       transform="matrix(-1,0,0,1,64.166552,10)"
       id="g4047">
      <path
         inkscape:connector-curvature="0"
         id="path4049"
         d="m 13.818183,14 45,-0.303481"
         style="fill:none;stroke:#ce5c00;stroke-width:4;stroke-linecap:butt;stroke-linejoin:miter;stroke-miterlimit:4;stroke-opacity:1;stroke-dasharray:none" />
      <path
         transform="matrix(0.81842984,0,0,0.84874203,-0.26757473,3.5836208)"
         d="m 17.636364,12.272727 c 0,2.711216 -2.279278,4.909091 -5.090909,4.909091 -2.8116314,0 -5.090909,-2.197875 -5.090909,-4.909091 0,-2.7112161 2.2792776,-4.909091 5.090909,-4.909091 2.811631,0 5.090909,2.1978749 5.090909,4.909091 z"
         sodipodi:ry="4.909091"
         sodipodi:rx="5.090909"
         sodipodi:cy="12.272727"
         sodipodi:cx="12.545455"
         id="path4051"
         style="fill:#ffffff;fill-opacity:0.66513813;stroke:#ce5c00;stroke-width:3.59950399000000010;stroke-linecap:butt;stroke-linejoin:miter;stroke-miterlimit:4;stroke-opacity:1;stroke-dasharray:none;stroke-dashoffset:0"
         sodipodi:type="arc" />
    </g>
    <g
       transform="translate(0.83344818,25)"
       id="g4053">
      <path
         inkscape:connector-curvature="0"
         id="path4055"
         d="m 13.818183,14 45,-0.303481"
         style="fill:none;stroke:#ce5c00;stroke-width:4;stroke-linecap:butt;stroke-linejoin:miter;stroke-miterlimit:4;stroke-opacity:1;stroke-dasharray:none" />
      <path
         transform="matrix(0.81842984,0,0,0.84874203,-0.26757473,3.5836208)"
         d="m 17.636364,12.272727 c 0,2.711216 -2.279278,4.909091 -5.090909,4.909091 -2.8116314,0 -5.090909,-2.197875 -5.090909,-4.909091 0,-2.7112161 2.2792776,-4.909091 5.090909,-4.909091 2.811631,0 5.090909,2.1978749 5.090909,4.909091 z"
         sodipodi:ry="4.909091"
         sodipodi:rx="5.090909"
         sodipodi:cy="12.272727"
         sodipodi:cx="12.545455"
         id="path4057"
         style="fill:#ffffff;fill-opacity:0.66513813;stroke:#ce5c00;stroke-width:3.59950399000000010;stroke-linecap:butt;stroke-linejoin:miter;stroke-miterlimit:4;stroke-opacity:1;stroke-dasharray:none;stroke-dashoffset:0"
         sodipodi:type="arc" />
    </g>
    <g
       id="g4059"
       transform="translate(0.83344818,-5)">
      <path
         style="fill:none;stroke:#ce5c00;stroke-width:4;stroke-linecap:butt;stroke-linejoin:miter;stroke-miterlimit:4;stroke-opacity:1;stroke-dasharray:none"
         d="m 13.818183,14 45,-0.303481"
         id="path4061"
         inkscape:connector-curvature="0" />
      <path
         sodipodi:type="arc"
         style="fill:#ffffff;fill-opacity:0.66513759;stroke:#ce5c00;stroke-width:3.59950399000000010;stroke-linecap:butt;stroke-linejoin:miter;stroke-miterlimit:4;stroke-opacity:1;stroke-dasharray:none;stroke-dashoffset:0"
         id="path4063"
         sodipodi:cx="12.545455"
         sodipodi:cy="12.272727"
         sodipodi:rx="5.090909"
         sodipodi:ry="4.909091"
         d="m 17.636364,12.272727 a 5.090909,4.909091 0 1 1 -10.181818,0 5.090909,4.909091 0 1 1 10.181818,0 z"
         transform="matrix(0.81842984,0,0,0.84874203,-0.26757473,3.5836208)" />
    </g>
    <g
       id="g5665"
       transform="matrix(-1.0036006,0,0,1.0036006,64.245545,9.9291868)"
       clip-path="url(#clipPath5691)"
       style="stroke:#8f5902">
      <path
         style="fill:#a40000;stroke:#a40000;stroke-width:4;stroke-linecap:butt;stroke-linejoin:miter;stroke-miterlimit:4;stroke-opacity:1;stroke-dasharray:none"
         d="m 13.818183,14 45,-0.303481"
         id="path5667"
         inkscape:connector-curvature="0" />
      <path
         sodipodi:type="arc"
         style="fill:#ffffff;fill-opacity:0.66513815;stroke:#8f5902;stroke-width:3.59950399;stroke-linecap:butt;stroke-linejoin:miter;stroke-miterlimit:4;stroke-opacity:1;stroke-dasharray:none;stroke-dashoffset:0"
         id="path5669"
         sodipodi:cx="12.545455"
         sodipodi:cy="12.272727"
         sodipodi:rx="5.090909"
         sodipodi:ry="4.909091"
         d="m 17.636364,12.272727 c 0,2.711216 -2.279278,4.909091 -5.090909,4.909091 -2.8116314,0 -5.090909,-2.197875 -5.090909,-4.909091 0,-2.7112161 2.2792776,-4.909091 5.090909,-4.909091 2.811631,0 5.090909,2.1978749 5.090909,4.909091 z"
         transform="matrix(0.81842984,0,0,0.84874203,-0.26757473,3.5836208)" />
    </g>
    <g
       id="g5630"
       style="fill:url(#linearGradient5719);fill-opacity:1"
       transform="matrix(0.92903226,0,0,0.9048583,3.4790323,2.7382338)"
       clip-path="url(#clipPath5779)">
      <path
         style="fill:url(#linearGradient5721);fill-opacity:1;stroke:#000000;stroke-width:1px;stroke-linecap:butt;stroke-linejoin:miter;stroke-opacity:1"
         d="m 36.3125,37 33.25,22.8125 4.5,-7.5625 -32.875,-22.3125 z"
         id="path5637"
         inkscape:connector-curvature="0" />
    </g>
    <g
       id="g5671"
       transform="matrix(1.0541168,0,0,1.0541168,0.280778,23.976469)"
       clip-path="url(#clipPath5687)"
       style="stroke:#a40000">
      <path
         style="fill:none;stroke:#a40000;stroke-width:4;stroke-linecap:butt;stroke-linejoin:miter;stroke-miterlimit:4;stroke-opacity:1;stroke-dasharray:none"
         d="m 13.818183,14 45,-0.303481"
         id="path5673"
         inkscape:connector-curvature="0" />
      <path
         sodipodi:type="arc"
         style="fill:#ffffff;fill-opacity:0.66513815;stroke:#a40000;stroke-width:3.59950399;stroke-linecap:butt;stroke-linejoin:miter;stroke-miterlimit:4;stroke-opacity:1;stroke-dasharray:none;stroke-dashoffset:0"
         id="path5675"
         sodipodi:cx="12.545455"
         sodipodi:cy="12.272727"
         sodipodi:rx="5.090909"
         sodipodi:ry="4.909091"
         d="m 17.636364,12.272727 c 0,2.711216 -2.279278,4.909091 -5.090909,4.909091 -2.8116314,0 -5.090909,-2.197875 -5.090909,-4.909091 0,-2.7112161 2.2792776,-4.909091 5.090909,-4.909091 2.811631,0 5.090909,2.1978749 5.090909,4.909091 z"
         transform="matrix(0.81842984,0,0,0.84874203,-0.26757473,3.5836208)" />
    </g>
    <g
       transform="matrix(1.0710282,0,0,1.0710282,-0.41927514,-5.9976706)"
       id="g5677"
       clip-path="url(#clipPath5683)"
       style="stroke:#a40000">
      <path
         inkscape:connector-curvature="0"
         id="path5679"
         d="m 13.818183,14 45,-0.303481"
         style="fill:none;stroke:#a40000;stroke-width:4;stroke-linecap:butt;stroke-linejoin:miter;stroke-miterlimit:4;stroke-opacity:1;stroke-dasharray:none" />
      <path
         transform="matrix(0.81842984,0,0,0.84874203,-0.26757473,3.5836208)"
         d="m 17.636364,12.272727 c 0,2.711216 -2.279278,4.909091 -5.090909,4.909091 -2.8116314,0 -5.090909,-2.197875 -5.090909,-4.909091 0,-2.7112161 2.2792776,-4.909091 5.090909,-4.909091 2.811631,0 5.090909,2.1978749 5.090909,4.909091 z"
         sodipodi:ry="4.909091"
         sodipodi:rx="5.090909"
         sodipodi:cy="12.272727"
         sodipodi:cx="12.545455"
         id="path5681"
         style="fill:#ffffff;fill-opacity:0.66513804;stroke:#a40000;stroke-width:3.59950399;stroke-linecap:butt;stroke-linejoin:miter;stroke-miterlimit:4;stroke-opacity:1;stroke-dasharray:none;stroke-dashoffset:0"
         sodipodi:type="arc" />
    </g>
    <path
       sodipodi:type="arc"
       style="fill:none;stroke:#000000;stroke-width:1.97180796000000003;stroke-linecap:butt;stroke-linejoin:miter;stroke-miterlimit:4;stroke-opacity:1;stroke-dasharray:none;stroke-dashoffset:0;fill-opacity:1"
       id="path5620"
       sodipodi:cx="13.625"
       sodipodi:cy="21.4375"
       sodipodi:rx="18.375"
       sodipodi:ry="18.0625"
       d="m 32,21.4375 a 18.375,18.0625 0 1 1 -36.75,0 18.375,18.0625 0 1 1 36.75,0 z"
       transform="matrix(1.0056356,0,0,1.0230341,10.048215,1.1937063)" />
  </g>
</svg>
