<?xml version="1.0" encoding="UTF-8" standalone="no"?>
<!-- Created with Inkscape (http://www.inkscape.org/) -->

<svg
   xmlns:dc="http://purl.org/dc/elements/1.1/"
   xmlns:cc="http://creativecommons.org/ns#"
   xmlns:rdf="http://www.w3.org/1999/02/22-rdf-syntax-ns#"
   xmlns:svg="http://www.w3.org/2000/svg"
   xmlns="http://www.w3.org/2000/svg"
   xmlns:xlink="http://www.w3.org/1999/xlink"
   xmlns:sodipodi="http://sodipodi.sourceforge.net/DTD/sodipodi-0.dtd"
   xmlns:inkscape="http://www.inkscape.org/namespaces/inkscape"
   width="48.000000px"
   height="48.000000px"
   id="svg249"
   sodipodi:version="0.32"
   inkscape:version="0.47+devel r9401"
   sodipodi:docname="kicad_file.svg"
   inkscape:export-filename="/Users/jerry/kicad_file.png"
   inkscape:export-xdpi="30"
   inkscape:export-ydpi="30"
   inkscape:output_extension="org.inkscape.output.svg.inkscape"
   version="1.1">
  <defs
     id="defs3">
    <linearGradient
       inkscape:collect="always"
       id="linearGradient4542">
      <stop
         style="stop-color: rgb(0, 0, 0); stop-opacity: 1;"
         offset="0"
         id="stop4544" />
      <stop
         style="stop-color: rgb(0, 0, 0); stop-opacity: 0;"
         offset="1"
         id="stop4546" />
    </linearGradient>
    <radialGradient
       inkscape:collect="always"
       xlink:href="#linearGradient4542"
       id="radialGradient4548"
       cx="24.306795"
       cy="42.07798"
       fx="24.306795"
       fy="42.07798"
       r="15.821514"
       gradientTransform="matrix(1,0,0,0.284916,0,30.0893)"
       gradientUnits="userSpaceOnUse" />
    <linearGradient
       id="linearGradient15662">
      <stop
         style="stop-color: rgb(255, 255, 255); stop-opacity: 1;"
         offset="0.0000000"
         id="stop15664" />
      <stop
         style="stop-color: rgb(248, 248, 248); stop-opacity: 1;"
         offset="1.0000000"
         id="stop15666" />
    </linearGradient>
    <radialGradient
       gradientUnits="userSpaceOnUse"
       fy="64.5679"
       fx="20.8921"
       r="5.257"
       cy="64.5679"
       cx="20.8921"
       id="aigrd3">
      <stop
         id="stop15573"
         style="stop-color: rgb(240, 240, 240);"
         offset="0" />
      <stop
         id="stop15575"
         style="stop-color: rgb(154, 154, 154); stop-opacity: 1;"
         offset="1.0000000" />
    </radialGradient>
    <radialGradient
       gradientUnits="userSpaceOnUse"
       fy="114.5684"
       fx="20.8921"
       r="5.256"
       cy="114.5684"
       cx="20.8921"
       id="aigrd2">
      <stop
         id="stop15566"
         style="stop-color: rgb(240, 240, 240);"
         offset="0" />
      <stop
         id="stop15568"
         style="stop-color: rgb(154, 154, 154); stop-opacity: 1;"
         offset="1.0000000" />
    </radialGradient>
    <linearGradient
       id="linearGradient269">
      <stop
         style="stop-color: rgb(163, 163, 163); stop-opacity: 1;"
         offset="0.0000000"
         id="stop270" />
      <stop
         style="stop-color: rgb(76, 76, 76); stop-opacity: 1;"
         offset="1.0000000"
         id="stop271" />
    </linearGradient>
    <linearGradient
       id="linearGradient259">
      <stop
         style="stop-color: rgb(250, 250, 250); stop-opacity: 1;"
         offset="0.0000000"
         id="stop260" />
      <stop
         style="stop-color: rgb(187, 187, 187); stop-opacity: 1;"
         offset="1.0000000"
         id="stop261" />
    </linearGradient>
    <linearGradient
       id="linearGradient12512">
      <stop
         style="stop-color: rgb(255, 255, 255); stop-opacity: 1;"
         offset="0.0000000"
         id="stop12513" />
      <stop
         style="stop-color: rgb(255, 245, 32); stop-opacity: 0.891089;"
         offset="0.50000000"
         id="stop12517" />
      <stop
         style="stop-color: rgb(255, 243, 0); stop-opacity: 0;"
         offset="1.0000000"
         id="stop12514" />
    </linearGradient>
    <radialGradient
       r="37.751713"
       fy="3.7561285"
       fx="8.8244190"
       cy="3.7561285"
       cx="8.8244190"
       gradientTransform="matrix(1.055021,0,0,1.1252965,1.7153276,-2.4525294)"
       gradientUnits="userSpaceOnUse"
       id="radialGradient15656"
       xlink:href="#linearGradient269"
       inkscape:collect="always" />
    <radialGradient
       r="86.708450"
       fy="35.736916"
       fx="33.966679"
       cy="35.736916"
       cx="33.966679"
       gradientTransform="matrix(1.0465441,0,0,1.1344054,-1.9386687,-3.1568918)"
       gradientUnits="userSpaceOnUse"
       id="radialGradient15658"
       xlink:href="#linearGradient259"
       inkscape:collect="always" />
    <radialGradient
       r="38.158695"
       fy="7.2678967"
       fx="8.1435566"
       cy="7.2678967"
       cx="8.1435566"
       gradientTransform="matrix(1.055021,0,0,1.1252965,1.7153276,-2.4525294)"
       gradientUnits="userSpaceOnUse"
       id="radialGradient15668"
       xlink:href="#linearGradient15662"
       inkscape:collect="always" />
    <radialGradient
       inkscape:collect="always"
       xlink:href="#aigrd2"
       id="radialGradient2283"
       gradientUnits="userSpaceOnUse"
       gradientTransform="matrix(0.229703,0,0,0.229703,4.61353,3.97981)"
       cx="20.8921"
       cy="114.5684"
       fx="20.8921"
       fy="114.5684"
       r="5.256" />
    <radialGradient
       inkscape:collect="always"
       xlink:href="#aigrd3"
       id="radialGradient2285"
       gradientUnits="userSpaceOnUse"
       gradientTransform="matrix(0.229703,0,0,0.229703,4.61353,3.97981)"
       cx="20.8921"
       cy="64.5679"
       fx="20.8921"
       fy="64.5679"
       r="5.257" />
    <inkscape:perspective
       id="perspective9"
       inkscape:persp3d-origin="372.04724 : 350.78739 : 1"
       inkscape:vp_z="744.09448 : 526.18109 : 1"
       inkscape:vp_y="0 : 1000 : 0"
       inkscape:vp_x="0 : 526.18109 : 1"
       sodipodi:type="inkscape:persp3d" />
    <linearGradient
       inkscape:collect="always"
       xlink:href="#linearGradient269"
       id="linearGradient6588"
       x1="1.125"
       y1="8.0625"
       x2="16.875"
       y2="8.0625"
       gradientUnits="userSpaceOnUse"
       gradientTransform="matrix(0.96090001,0,0,0.94263807,0.03940014,0.83748061)" />
  </defs>
  <sodipodi:namedview
     id="base"
     pagecolor="#ffffff"
     bordercolor="#666666"
     borderopacity="0.32941176"
     inkscape:pageopacity="0.0"
     inkscape:pageshadow="2"
     inkscape:zoom="8"
     inkscape:cx="8.4999999"
     inkscape:cy="27.066406"
     inkscape:current-layer="layer4"
     showgrid="false"
     inkscape:grid-bbox="true"
     inkscape:document-units="px"
     inkscape:window-width="1280"
     inkscape:window-height="688"
     inkscape:window-x="0"
     inkscape:window-y="0"
     inkscape:showpageshadow="false"
     inkscape:window-maximized="0" />
  <metadata
     id="metadata4">
    <rdf:RDF>
      <cc:Work
         rdf:about="">
        <dc:format>image/svg+xml</dc:format>
        <dc:type
           rdf:resource="http://purl.org/dc/dcmitype/StillImage" />
        <dc:title></dc:title>
        <dc:creator>
          <cc:Agent>
            <dc:title>Jakub Steiner</dc:title>
          </cc:Agent>
        </dc:creator>
        <dc:source>http://jimmac.musichall.cz</dc:source>
        <cc:license
           rdf:resource="http://creativecommons.org/licenses/by-sa/2.0/" />
      </cc:Work>
      <cc:License
         rdf:about="http://creativecommons.org/licenses/by-sa/2.0/">
        <cc:permits
           rdf:resource="http://web.resource.org/cc/Reproduction" />
        <cc:permits
           rdf:resource="http://web.resource.org/cc/Distribution" />
        <cc:requires
           rdf:resource="http://web.resource.org/cc/Notice" />
        <cc:requires
           rdf:resource="http://web.resource.org/cc/Attribution" />
        <cc:permits
           rdf:resource="http://web.resource.org/cc/DerivativeWorks" />
        <cc:requires
           rdf:resource="http://web.resource.org/cc/ShareAlike" />
      </cc:License>
    </rdf:RDF>
  </metadata>
  <g
     inkscape:label="Shadow"
     id="layer6"
     inkscape:groupmode="layer">
    <path
       sodipodi:type="arc"
       style="opacity:0.56725105;color:#000000;fill:url(#radialGradient4548);fill-opacity:1;fill-rule:evenodd;stroke:none;stroke-width:2;marker:none;visibility:visible;display:inline;overflow:visible"
       id="path3667"
       sodipodi:cx="24.306795"
       sodipodi:cy="42.07798"
       sodipodi:rx="15.821514"
       sodipodi:ry="4.5078058"
       d="m 40.128309,42.07798 a 15.821514,4.5078058 0 1 1 -31.643028,0 15.821514,4.5078058 0 1 1 31.643028,0 z"
       transform="matrix(1.2722059,0,0,1.0895904,-7.051561,-2.4827434)" />
  </g>
  <g
     id="layer1"
     inkscape:label="Base"
     inkscape:groupmode="layer"
     style="display: inline;">
    <rect
       ry="1.2519923"
       y="0.8162415"
       x="5.2564993"
       height="44.586582"
       width="37.99947"
       id="rect15391"
       style="color:#000000;fill:url(#radialGradient15658);fill-opacity:1;fill-rule:nonzero;stroke:url(#radialGradient15656);stroke-width:1.08959043;stroke-linecap:round;stroke-linejoin:round;stroke-miterlimit:4;stroke-opacity:1;stroke-dashoffset:0;marker:none;visibility:visible;display:block;overflow:visible" />
    <rect
       rx="0.16240191"
       ry="0.16240191"
       y="1.8377323"
       x="6.4141903"
       height="42.435608"
       width="35.712292"
       id="rect15660"
       style="color:#000000;fill:none;stroke:url(#radialGradient15668);stroke-width:1.08959043;stroke-linecap:round;stroke-linejoin:round;stroke-miterlimit:4;stroke-opacity:1;stroke-dashoffset:0;marker:none;visibility:visible;display:block;overflow:visible" />
    <g
       id="g2270"
       transform="matrix(1.0895904,0,0,1.0895904,-1.2343061,-3.1982844)">
      <g
         transform="matrix(0.229703,0,0,0.229703,4.96708,4.24497)"
         style="fill:#ffffff;fill-opacity:1;fill-rule:nonzero;stroke:#000000;stroke-miterlimit:4"
         id="g1440">
        <radialGradient
           gradientUnits="userSpaceOnUse"
           fy="114.5684"
           fx="20.892099"
           r="5.256"
           cy="114.5684"
           cx="20.892099"
           id="radialGradient1442">
          <stop
             id="stop1444"
             style="stop-color: rgb(240, 240, 240);"
             offset="0" />
          <stop
             id="stop1446"
             style="stop-color: rgb(71, 71, 71);"
             offset="1" />
        </radialGradient>
        <path
           id="path1448"
           d="m 23.428,113.07 c 0,1.973 -1.6,3.572 -3.573,3.572 -1.974,0 -3.573,-1.6 -3.573,-3.572 0,-1.974 1.6,-3.573 3.573,-3.573 1.973,0 3.573,1.6 3.573,3.573 z"
           style="stroke:none"
           inkscape:connector-curvature="0" />
        <radialGradient
           gradientUnits="userSpaceOnUse"
           fy="64.567902"
           fx="20.892099"
           r="5.257"
           cy="64.567902"
           cx="20.892099"
           id="radialGradient1450">
          <stop
             id="stop1452"
             style="stop-color: rgb(240, 240, 240);"
             offset="0" />
          <stop
             id="stop1454"
             style="stop-color: rgb(71, 71, 71);"
             offset="1" />
        </radialGradient>
        <path
           id="path1456"
           d="m 23.428,63.07 c 0,1.973 -1.6,3.573 -3.573,3.573 -1.974,0 -3.573,-1.6 -3.573,-3.573 0,-1.974 1.6,-3.573 3.573,-3.573 1.973,0 3.573,1.6 3.573,3.573 z"
           style="stroke:none"
           inkscape:connector-curvature="0" />
      </g>
      <path
         id="path15570"
         d="m 9.9950109,29.952326 c 0,0.453204 -0.3675248,0.820499 -0.8207288,0.820499 -0.4534338,0 -0.8207289,-0.367524 -0.8207289,-0.820499 0,-0.453434 0.3675248,-0.820729 0.8207289,-0.820729 0.453204,0 0.8207288,0.367525 0.8207288,0.820729 z"
         style="fill:url(#radialGradient2283);fill-rule:nonzero;stroke:none"
         inkscape:connector-curvature="0" />
      <path
         id="path15577"
         d="m 9.9950109,18.467176 c 0,0.453204 -0.3675248,0.820729 -0.8207288,0.820729 -0.4534338,0 -0.8207289,-0.367525 -0.8207289,-0.820729 0,-0.453434 0.3675248,-0.820729 0.8207289,-0.820729 0.453204,0 0.8207288,0.367525 0.8207288,0.820729 z"
         style="fill:url(#radialGradient2285);fill-rule:nonzero;stroke:none"
         inkscape:connector-curvature="0" />
    </g>
    <path
       sodipodi:nodetypes="cc"
       id="path15672"
       d="m 10.597858,2.8296199 0,41.3026621"
       style="fill:none;stroke:#000000;stroke-width:1.0771178;stroke-linecap:butt;stroke-linejoin:miter;stroke-miterlimit:4;stroke-opacity:0.0175439"
       inkscape:connector-curvature="0" />
    <path
       sodipodi:nodetypes="cc"
       id="path15674"
       d="m 11.681212,2.3134142 0,41.4237378"
       style="fill:none;stroke:#ffffff;stroke-width:1.08959043;stroke-linecap:butt;stroke-linejoin:miter;stroke-miterlimit:4;stroke-opacity:0.20467799"
       inkscape:connector-curvature="0" />
  </g>
  <g
     inkscape:groupmode="layer"
     id="layer4"
     inkscape:label="new"
     style="display: inline;">
    <g
       transform="matrix(0.89802322,0,0,0.89802322,12.96733,9.287639)"
       id="g2494">
      <path
         id="path2508"
         d="M 5,29.568094 5,27 3.75,26.984687 2.5,26.969374 4,26 5.5,25.030626 2.75,25.015313 0,25 0,23.5 0,22 2.625,22 5.25,22 4.5035014,18.75 C 3.54427,14.573834 3.5357188,12.90791 4.4624371,10.75 L 5.2139776,9 2.6069888,9 0,9 0,7.5 0,6 1.75,5.8815789 c 0.9625,-0.065131 2.0875,-0.065131 2.5,0 L 5,6 5,2.9319058 5,-0.13618842 8,2 11,4.1361884 11.09968,1.8180942 11.19936,-0.5 12,2 12.80064,4.5 12.90032,2.25 13,0 15.930449,0 18.860898,0 19.294267,2.25 19.727636,4.5 19.863818,2.25 20,0 l 2.5,0 2.5,0 0,1.8930112 0,1.8930112 1.5,0.575604 1.5,0.575604 0,4.9202737 0,4.9202739 L 26.25,14.638889 24.5,14.5 l 0,1.5 0,1.5 4,-0.166403 4,-0.166404 -2.25,0.485955 L 28,18.139102 28,22.569551 28,27 l -1.5,0 -1.5,0 0,2.5 0,2.5 -2.433578,0 -2.433577,0 -0.416591,-2.75 -0.41659,-2.75 -0.149832,2.75 L 19,32 16,32 13,32 12.881685,29.25 12.76337,26.5 12,29.5 11.23663,32.5 11.118315,30.181906 11,27.863812 8,30 5,32.136188 5,29.568094 z M 20,25 c 0,-0.55 -0.45,-1 -1,-1 -0.55,0 -1,0.45 -1,1 0,0.55 0.45,1 1,1 0.55,0 1,-0.45 1,-1 z m 7,-2.393011 0,-3.393011 -1.620518,-0.621851 -1.620518,-0.621852 0.606863,2.264863 C 24.699602,21.480812 24.978835,23.2875 24.986345,24.25 L 25,26 l 1,0 1,0 0,-3.393011 z M 22,20 C 22,19.45 21.801558,19 21.559017,19 21.316476,19 20.839919,19.45 20.5,20 l -0.618034,1 1.059017,0 L 22,21 22,20 z M 27,9.5 27,6 26.113499,6 25.226999,6 24.785857,9.0056909 C 24.338234,12.055542 24.664728,13 26.166667,13 L 27,13 27,9.5 z M 20,6.559017 C 20,6.3164763 19.55,5.8399187 19,5.5 L 18,4.881966 18,5.940983 18,7 19,7 c 0.55,0 1,-0.1984424 1,-0.440983 z"
         style="fill:#a3a3f1"
         inkscape:connector-curvature="0" />
      <path
         id="path2506"
         d="M 5,29.568094 5,27 3.75,26.984687 2.5,26.969374 4,26 5.5,25.030626 2.75,25.015313 0,25 0,23.5 0,22 2.625,22 5.25,22 4.5035014,18.75 C 3.54427,14.573834 3.5357188,12.90791 4.4624371,10.75 L 5.2139776,9 2.6069888,9 0,9 0,7.5 0,6 2.5,6 5,6 5,3.5 5,1 5.7774938,1 C 6.2051153,1 7.5233859,1.6782926 8.706984,2.507317 L 10.85898,4.014634 11.293308,1.757317 11.727636,-0.5 11.863818,2.75 12,6 l 0.826807,0 0.826807,0 -0.440306,-3 -0.440307,-3 2.645724,0 2.645723,0 0.90439,2.25 0.904389,2.25 0.06339,-2.25 L 20,0 l 2.5,0 2.5,0 0,1.8930112 0,1.8930112 1.5,0.575604 1.5,0.575604 0,4.9202737 0,4.9202739 L 26.25,14.638889 24.5,14.5 l 0,1.5 0,1.5 4,-0.166403 4,-0.166404 -2.25,0.485955 L 28,18.139102 28,22.569551 28,27 26.5,27 25,27 25,29.5 25,32 22.5,32 20,32 19.90032,29.25 19.80064,26.5 19.110774,29 18.420908,31.5 15.710454,31.816422 13,32.132845 12.881685,29.316422 12.76337,26.5 12,29.5 11.23663,32.5 11.118315,30.181906 11,27.863812 8,30 5,32.136188 5,29.568094 z M 20,25 c 0,-0.55 -0.45,-1 -1,-1 -0.55,0 -1,0.45 -1,1 0,0.55 0.45,1 1,1 0.55,0 1,-0.45 1,-1 z m 7,-2.393011 0,-3.393011 -1.620518,-0.621851 -1.620518,-0.621852 0.606863,2.264863 C 24.699602,21.480812 24.978835,23.2875 24.986345,24.25 L 25,26 l 1,0 1,0 0,-3.393011 z M 22,20 C 22,19.45 21.801558,19 21.559017,19 21.316476,19 20.839919,19.45 20.5,20 l -0.618034,1 1.059017,0 L 22,21 22,20 z M 17.018406,13.395196 C 19.758283,11.962553 22,10.624109 22,10.420876 22,10.217642 20.605895,9.3304406 18.901989,8.4493166 l -3.098011,-1.6020438 -5.391785,2.1883655 -5.3917851,2.1883657 0.4659289,0.753888 0.4659289,0.753889 2.6876017,-0.513767 2.6876016,-0.513768 -0.594833,1.550111 -0.594834,1.550112 0.597766,0.597765 c 0.847515,0.847515 0.786067,0.867145 6.282838,-2.007038 z M 27,9.5 27,6 26.113499,6 25.226999,6 24.785857,9.0056909 C 24.338234,12.055542 24.664728,13 26.166667,13 L 27,13 27,9.5 z M 20,6 c 0,-0.55 -0.45,-1 -1,-1 -0.55,0 -1,0.45 -1,1 0,0.55 0.45,1 1,1 0.55,0 1,-0.45 1,-1 z"
         style="fill:#a49fa2"
         inkscape:connector-curvature="0" />
      <path
         id="path2504"
         d="m 19.881517,29.25 c -0.06517,-1.5125 -0.04312,-3.322598 0.04899,-4.022439 l 0.167472,-1.272439 -1.394185,-1.394186 -1.394186,-1.394185 0.472425,4.916624 L 18.254459,31 16.127229,31 14,31 l 0,-1.968615 0,-1.968615 1.5,0.575604 1.5,0.575604 0,-1.392703 0,-1.392704 -2.172895,0 -2.172894,0 -3.0499669,2.785715 C 7.9267625,29.746429 6.2045651,31 5.7771387,31 L 5,31 5,28 5,25 2.5,25 0,25 0,23.5 0,22 2.4062105,22 4.812421,22 4.6562105,15.503231 4.5,9.0064624 2.25,9.0032312 0,9 0,7.5 0,6 2.5,6 5,6 5,3.5 5,1 5.7771387,1 C 6.2045651,1 7.9902979,2.3116021 9.745434,3.9146714 L 12.936591,6.8293427 14.968295,6.29804 17,5.7667373 17,4.7763798 17,3.7860224 15.5,4.3616264 14,4.9372304 14,2.9686152 14,1 16,1 18,1 18,3.940983 18,6.881966 19,7.5 20,8.118034 20,4.059017 20,0 l 2.359443,0 2.359444,0 -0.460485,13 -0.460486,13 1.543544,0 1.543544,0 0.382791,-4.25 0.382791,-4.25 0.174707,4.281385 L 28,26.06277 26.5,26.638374 25,27.213978 25,29.606989 25,32 22.5,32 20,32 19.881517,29.25 z M 23,26.440983 l 0,-1.559017 -1.016312,0.628115 -1.016312,0.628116 0.575329,0.930901 C 22.399945,28.456142 23,28.197509 23,26.440983 z m -6.738,-8.778115 -0.487735,-0.837133 -0.919915,0.919915 -0.919915,0.919915 0.707649,1.844103 0.707648,1.844103 0.700002,-1.926886 L 16.749736,18.5 16.262,17.662868 z m 5.738,1.719098 0,-1.5 L 21,18.5 c -0.55,0.339919 -1,1.293034 -1,2.118034 l 0,1.5 L 21,21.5 c 0.55,-0.339919 1,-1.293034 1,-2.118034 z m -2,-2.350581 0,-1.968615 -1.436858,0.551374 -1.436857,0.551374 0.543846,1.417241 C 17.969247,18.362241 18.615833,19 19.106989,19 L 20,19 20,17.031385 z M 22.604167,14.270833 22,13.666667 l -0.600136,0.600135 -0.600135,0.600136 0.78322,1.267277 0.78322,1.267277 0.421082,-1.263246 c 0.231595,-0.694785 0.149207,-1.535121 -0.183084,-1.867413 z M 17.033244,13.483154 C 19.76496,12.098889 22,10.760445 22,10.508834 22,10.257224 20.605895,9.3304406 18.901989,8.4493166 l -3.098011,-1.6020438 -5.391785,2.1883655 -5.3917851,2.1883657 0.5510815,0.891668 0.5510814,0.891669 2.6031395,-0.653347 2.6031397,-0.653346 -0.595524,1.55191 -0.595524,1.551911 0.597766,0.597765 c 0.848645,0.848646 0.816505,0.85844 6.297676,-1.91908 z M 23,5.440983 23,3.881966 21.983688,4.5100813 20.967376,5.1381966 21.542705,6.0690983 C 22.399945,7.4561416 23,7.1975091 23,5.440983 z M 27.286014,9.5 l 0.01365,-5 0.417917,2.7637497 c 0.229855,1.5200624 0.223712,3.7700623 -0.01365,5.0000003 L 27.272364,14.5 l 0.01365,-5 z"
         style="fill:#e79d5c"
         inkscape:connector-curvature="0" />
      <path
         id="path2502"
         d="m 20.719414,30.25 c 0.361154,-0.9625 1.359531,-2.280361 2.218615,-2.92858 L 24.5,26.14284 22.726453,25.455396 20.952907,24.767951 21.614864,21.239416 22.276821,17.710881 21.13841,18.414458 20,19.118034 20,21.059017 20,23 19.083333,23 c -0.504166,0 -1.14364,-0.5625 -1.421052,-1.25 L 17.157895,20.5 17.078947,22.690983 17,24.881966 16.13948,25.413797 15.27896,25.945627 14.724585,25.391252 14.17021,24.836877 15.576173,21.471935 16.982135,18.106993 15.991068,17.49448 15,16.881966 14.85194,17.690983 C 14.770507,18.135942 14.658007,19.4 14.60194,20.5 L 14.5,22.5 12.25,22.4206 10,22.3412 l 0,2.388418 0,2.388418 1.154508,-0.713526 1.154509,-0.713525 -0.754644,1.22104 -0.754644,1.221039 -0.56017,-0.560169 -0.5601694,-0.56017 -1.3963988,1.993638 C 7.5149715,30.102863 6.4621088,31 5.943296,31 L 5,31 5,28 5,25 2.5,25 0,25 0,23.5 0,22 2.4062105,22 4.812421,22 4.6562105,15.503231 4.5,9.0064624 2.25,9.0032312 0,9 0,7.5 0,6 2.5,6 5,6 5,3.5 5,1 5.943296,1 C 6.4621088,1 7.5957747,2.0125 8.4625534,3.25 9.3293321,4.4875 10.367349,5.425 10.769257,5.3333333 11.171166,5.2416667 11.725,5.4263131 12,5.7436587 12.275,6.0610043 11.9375,5.9969466 11.25,5.6013083 L 10,4.881966 10,6.3889635 10,7.895961 13.146665,6.7990276 16.29333,5.7020942 18.169697,6.8739046 20.046064,8.045715 22.023032,6.9876737 24,5.9296325 24.07878,9.7148162 C 24.12211,11.796667 24.091097,16.3125 24.009863,19.75 l -0.147698,6.25 1.51142,0 1.511419,0 0.382791,-4.25 0.382791,-4.25 0.174707,4.281385 L 28,26.06277 26.5,26.638374 25,27.213978 25,29.606989 25,32 22.531385,32 20.06277,32 20.719414,30.25 z M 20,17.031385 l 0,-1.968615 -1.436858,0.551374 -1.436857,0.551374 0.543846,1.417241 C 17.969247,18.362241 18.615833,19 19.106989,19 L 20,19 20,17.031385 z M 22.604167,14.270833 22,13.666667 l -0.600136,0.600135 -0.600135,0.600136 0.78322,1.267277 0.78322,1.267277 0.421082,-1.263246 c 0.231595,-0.694785 0.149207,-1.535121 -0.183084,-1.867413 z M 17.033244,13.483154 C 19.76496,12.098889 22,10.760445 22,10.508834 22,10.257224 20.605895,9.3304406 18.901989,8.4493166 l -3.098011,-1.6020438 -5.391785,2.1883655 -5.3917851,2.1883657 0.5510815,0.891668 0.5510814,0.891669 2.6031395,-0.653347 2.6031397,-0.653346 -0.595524,1.55191 -0.595524,1.551911 0.597766,0.597765 c 0.848645,0.848646 0.816505,0.85844 6.297676,-1.91908 z M 27.286014,9.5 l 0.01365,-5 0.417917,2.7637497 c 0.229855,1.5200624 0.223712,3.7700623 -0.01365,5.0000003 L 27.272364,14.5 l 0.01365,-5 z M 22.427058,4.2346872 C 21.836941,3.8306093 21.063564,2.7125 20.708443,1.75 L 20.06277,0 22.531385,0 25,0 25,2.5 25,5 24.25,4.9846872 c -0.4125,-0.00842 -1.232824,-0.345922 -1.822942,-0.75 z"
         style="fill:#fb9236"
         inkscape:connector-curvature="0" />
      <path
         id="path2500"
         d="M 21.75,31.294267 24,30.860898 24,28.430449 24,26 l 1.442502,0 1.442502,0 0.382791,-4.25 0.382791,-4.25 0.174707,4.281385 L 28,26.06277 26.5,26.638374 25,27.213978 25,29.606989 25,32 22.25,31.863818 19.5,31.727636 21.75,31.294267 z M 5,28 5,25 2.5,25 0,25 0,23.5 0,22 2.4062105,22 4.812421,22 4.6562105,15.503231 4.5,9.0064624 2.25,9.0032312 0,9 0,7.5 0,6 2.5,6 5,6 5,3.5 5,1 5.8775553,1 c 0.4826554,0 1.4951554,0.7875 2.25,1.75 L 9.5,4.5 7.75,3.1275553 6,1.7551106 6,5.791526 l 0,4.0364154 4.853974,-2.050745 4.853975,-2.050745 4.098973,1.8084628 4.098973,1.8084628 0.297053,2.078311 C 24.366326,12.56476 24.342188,15.4125 24.149306,17.75 L 23.798613,22 22.899306,22 22,22 22,19.940983 22,17.881966 21,18.5 20,19.118034 20,21.059017 20,23 19.083333,23 c -0.504166,0 -1.14364,-0.5625 -1.421052,-1.25 L 17.157895,20.5 17.078947,22.690983 17,24.881966 l -0.86052,0.531831 -0.86052,0.53183 -0.554375,-0.554375 -0.554375,-0.554375 1.405963,-3.364942 1.405962,-3.364942 -0.921969,-0.569808 -0.921969,-0.569809 -0.572343,0.92607 -0.572343,0.92607 0.606999,1.581813 0.606998,1.581812 -1.56826,0.601798 -1.568259,0.601798 L 9.0354943,21.025274 6,18.863812 6,24.554351 6,30.244889 7.75,28.872445 9.5,27.5 8.1275553,29.25 C 7.3727107,30.2125 6.3602107,31 5.8775553,31 L 5,31 5,28 z M 4.25,23.337719 3,22.833333 1.75,23.337719 0.5,23.842105 l 2.5,0 2.5,0 -1.25,-0.504386 z M 20,17.031385 l 0,-1.968615 -1.436858,0.551374 -1.436857,0.551374 0.543846,1.417241 C 17.969247,18.362241 18.615833,19 19.106989,19 L 20,19 20,17.031385 z M 22.604167,14.270833 22,13.666667 l -0.600136,0.600135 -0.600135,0.600136 0.78322,1.267277 0.78322,1.267277 0.421082,-1.263246 c 0.231595,-0.694785 0.149207,-1.535121 -0.183084,-1.867413 z M 17.033244,13.483154 C 19.76496,12.098889 22,10.760445 22,10.508834 22,10.257224 20.605895,9.3304406 18.901989,8.4493166 l -3.098011,-1.6020438 -5.391785,2.1883655 -5.3917851,2.1883657 0.5510815,0.891668 0.5510814,0.891669 2.6031395,-0.653347 2.6031397,-0.653346 -0.595524,1.55191 -0.595524,1.551911 0.597766,0.597765 c 0.848645,0.848646 0.816505,0.85844 6.297676,-1.91908 z M 4.25,7.3377193 3,6.8333333 1.75,7.3377193 0.5,7.8421053 l 2.5,0 2.5,0 -1.25,-0.504386 z M 27.286014,9.5 l 0.01365,-5 0.417917,2.7637497 c 0.229855,1.5200624 0.223712,3.7700623 -0.01365,5.0000003 L 27.272364,14.5 l 0.01365,-5 z M 24,3.069551 24,1.1391019 21.75,0.70573301 19.5,0.27236411 22.25,0.13618205 25,0 25,2.5 C 25,3.875 24.775,5 24.5,5 24.225,5 24,4.1312979 24,3.069551 z"
         style="fill:#7271b7"
         inkscape:connector-curvature="0" />
      <path
         id="path2498"
         d="M 21.75,31.294267 24,30.860898 24,28.430449 24,26 l 1.442502,0 1.442502,0 0.382791,-4.25 0.382791,-4.25 0.174707,4.281385 L 28,26.06277 26.5,26.638374 25,27.213978 25,29.606989 25,32 22.25,31.863818 19.5,31.727636 21.75,31.294267 z M 5,28 5,25 2.5,25 0,25 0,23.5 0,22 2.5,22 5,22 5,20 5,18 5.8651413,18 c 0.4758277,0 2.0108527,0.901217 3.4111666,2.002704 l 2.5460251,2.002704 1.752879,-0.672643 1.752878,-0.672642 -0.723062,1.169938 c -1.033251,1.671836 -2.392101,1.457745 -5.7006575,-0.898155 L 6,18.863812 6,24.554351 6,30.244889 7.75,28.872445 9.5,27.5 8.1275553,29.25 C 7.3727107,30.2125 6.3602107,31 5.8775553,31 L 5,31 5,28 z M 4.25,23.337719 3,22.833333 1.75,23.337719 0.5,23.842105 l 2.5,0 2.5,0 -1.25,-0.504386 z m 10.456377,2.035325 -0.572583,-0.572583 1.110623,-2.437552 1.110623,-2.437552 3.32248,-1.57662 L 23,16.772117 23,15.445076 c 0,-0.729873 0.3375,-1.535647 0.75,-1.79061 L 24.5,13.190899 24.149306,17.595449 23.798613,22 22.899306,22 22,22 22,19.940983 22,17.881966 21,18.5 20,19.118034 20,21.059017 20,23 19.083333,23 c -0.504166,0 -1.14364,-0.5625 -1.421052,-1.25 L 17.157895,20.5 17.078947,22.690983 17,24.881966 l -0.86052,0.531831 -0.86052,0.53183 -0.572583,-0.572583 z M 4.5363043,12.75 4.809687,9 2.4048435,9 0,9 0,7.5 0,6 2.5,6 5,6 5,3.5 5,1 5.8775553,1 c 0.4826554,0 1.4951554,0.7875 2.25,1.75 L 9.5,4.5 7.75,3.1275553 6,1.7551106 6,5.9032354 6,10.05136 9.0929304,8.4519438 C 10.794042,7.5722648 12.37363,7.0402965 12.603125,7.269792 12.832621,7.4992876 11.240031,8.4898867 9.0640371,9.4711233 L 5.1076842,11.25519 4.6853029,13.877595 4.2629217,16.5 4.5363043,12.75 z M 4.25,7.3377193 3,6.8333333 1.75,7.3377193 0.5,7.8421053 l 2.5,0 2.5,0 -1.25,-0.504386 z M 27.286014,9.5 l 0.01365,-5 0.417917,2.7637497 c 0.229855,1.5200624 0.223712,3.7700623 -0.01365,5.0000003 L 27.272364,14.5 l 0.01365,-5 z M 21.75,9.7916667 C 19.913807,7.9117553 20.533956,7.4186763 22.871885,8.8996587 L 24.243769,9.7686918 23.871885,10.676013 23.5,11.583333 21.75,9.7916667 z M 16,7 13.5,6.1993601 15.690983,6.09968 17.881966,6 18.5,7 c 0.339919,0.55 0.478976,0.955144 0.309017,0.90032 C 18.639058,7.845496 17.375,7.440352 16,7 z M 24,3.069551 24,1.1391019 21.75,0.70573301 19.5,0.27236411 22.25,0.13618205 25,0 25,2.5 C 25,3.875 24.775,5 24.5,5 24.225,5 24,4.1312979 24,3.069551 z"
         style="fill:#9a6f4a"
         inkscape:connector-curvature="0" />
      <path
         id="path2496"
         d="M 24.136182,29.25 24,26 l 1.5,0 1.5,0 0.168103,-4.25 0.168103,-4.25 0.404789,3.960116 0.404788,3.960116 -1.475714,1.079069 -1.475715,1.079069 -0.460995,2.460815 L 24.272364,32.5 24.136182,29.25 z M 15.399599,24 c 0.3152,-1.375 0.579236,-2.816387 0.586746,-3.203083 C 15.993855,20.410222 17.575,19.346448 19.5,18.432976 l 3.5,-1.660859 0,-1.327041 c 0,-0.729873 0.345782,-1.540747 0.768404,-1.801942 l 0.768404,-0.4749 -0.374037,3.922151 -0.374037,3.922151 -0.894367,0.552749 L 22,22.118034 22,20 22,17.881966 21,18.5 20,19.118034 20,21.059017 20,23 l -0.926676,0 -0.926676,0 -0.457322,-1.75 -0.457323,-1.75 -0.131314,2 c -0.07222,1.1 -0.61346,2.675 -1.202748,3.5 L 14.826507,26.5 15.399599,24 z M 5.0789474,23.416667 5.1578947,21.5 5.683114,22.8125 6.2083333,24.125 5.6041667,24.729167 5,25.333333 5.0789474,23.416667 z m 7.6543856,-1.540755 1.233334,-1.242579 0.559794,0.559795 0.559795,0.559795 -1.793128,0.682784 L 11.5,23.118491 12.733333,21.875912 z M 7.5,19.932166 l -3,-1.921637 1.139216,-0.0053 c 0.6265689,-0.0029 2.2015689,0.879764 3.5,1.961466 2.973067,2.476813 2.25793,2.461734 -1.639216,-0.03457 z M 4.1600371,14.285184 4,11.070368 6.0856464,9.9541635 C 7.2327519,9.3402512 8.3916641,9.0583308 8.6610069,9.3276735 8.9303496,9.5970163 8.2436949,10.105267 7.1351073,10.457119 L 5.1194937,11.09685 4.7197839,14.298425 4.3200741,17.5 4.1600371,14.285184 z M 27.286014,9.5 l 0.01365,-5 0.417917,2.7637497 c 0.229855,1.5200624 0.223712,3.7700623 -0.01365,5.0000003 L 27.272364,14.5 l 0.01365,-5 z M 22.564293,10.293128 21.881509,8.5 l 1.242579,1.2333333 1.242579,1.2333337 -0.559795,0.559794 -0.559795,0.559795 -0.682784,-1.793128 z M 14.8125,6.316886 16.125,5.7916667 16.729167,6.3958333 17.333333,7 15.416667,6.9210526 13.5,6.8421053 14.8125,6.316886 z M 24.194949,2.5 l 0.03705,-3 0.460988,1.7690319 c 0.253543,0.9729675 0.236869,2.3229675 -0.03705,3 L 24.157895,5.5 l 0.03705,-3 z"
         style="fill:#605655"
         inkscape:connector-curvature="0" />
    </g>
    <rect
       style="fill:#ffffff;fill-opacity:1;stroke:url(#linearGradient6588);stroke-width:0.95172518;stroke-opacity:1"
       id="rect6072"
       width="14.173275"
       height="7.4232745"
       x="1.6008626"
       y="4.7258625"
       ry="1.8852762"
       rx="1.9217999" />
    <text
       xml:space="preserve"
       style="font-size:5px;font-style:normal;font-variant:normal;font-weight:bold;font-stretch:normal;line-height:125%;letter-spacing:0;word-spacing:0;fill:#000000;fill-opacity:1;stroke:none;font-family:Sans;-inkscape-font-specification:Terminal Bold"
       x="2.75"
       y="10.375"
       id="text6590"
       sodipodi:linespacing="125%"><tspan
         sodipodi:role="line"
         id="tspan6592"
         x="2.75"
         y="10.375"
         style="font-size:5px;font-style:normal;font-variant:normal;font-weight:bold;font-stretch:normal;font-family:Sans;-inkscape-font-specification:Terminal Bold">PRO</tspan></text>
  </g>
</svg>
