<?xml version="1.0" encoding="UTF-8" standalone="no"?>
<!-- Created with Inkscape (http://www.inkscape.org/) -->

<svg
   width="380"
   height="240"
   viewBox="0 0 100.54166 63.5"
   version="1.1"
   id="svg5"
   sodipodi:docname="daisy-chain-stub-2.svg"
   inkscape:version="1.2.1 (9c6d41e4, 2022-07-14)"
   xml:space="preserve"
   xmlns:inkscape="http://www.inkscape.org/namespaces/inkscape"
   xmlns:sodipodi="http://sodipodi.sourceforge.net/DTD/sodipodi-0.dtd"
   xmlns="http://www.w3.org/2000/svg"
   xmlns:svg="http://www.w3.org/2000/svg"><sodipodi:namedview
     id="namedview7"
     pagecolor="#ffffff"
     bordercolor="#666666"
     borderopacity="1.0"
     inkscape:showpageshadow="2"
     inkscape:pageopacity="0"
     inkscape:pagecheckerboard="0"
     inkscape:deskcolor="#d1d1d1"
     inkscape:document-units="px"
     showgrid="true"
     inkscape:zoom="1.4142136"
     inkscape:cx="117.02617"
     inkscape:cy="138.94648"
     inkscape:window-width="1366"
     inkscape:window-height="663"
     inkscape:window-x="0"
     inkscape:window-y="25"
     inkscape:window-maximized="1"
     inkscape:current-layer="layer1"
     showguides="true"><inkscape:grid
       type="xygrid"
       id="grid1049"
       empcolor="#3f3fff"
       empopacity="0.25098039"
       color="#ceceff"
       opacity="0.1254902"
       empspacing="2"
       spacingx="0.13229167"
       spacingy="0.13229167"
       originx="107.94999"
       originy="-10.583334" /><sodipodi:guide
       position="33.866655,50.799998"
       orientation="1,0"
       id="guide7457"
       inkscape:locked="false" /><sodipodi:guide
       position="14.816664,-25.400001"
       orientation="0,-1"
       id="guide7459"
       inkscape:locked="false" /><sodipodi:guide
       position="82.550002,2.2179273"
       orientation="0,-1"
       id="guide7463"
       inkscape:locked="false" /><sodipodi:guide
       position="44.449988,15.34583"
       orientation="0,-1"
       id="guide1898"
       inkscape:locked="false" /><sodipodi:guide
       position="29.633321,35.983331"
       orientation="0,-1"
       id="guide1900"
       inkscape:locked="false" /><sodipodi:guide
       position="60.324989,46.566665"
       orientation="1,0"
       id="guide12622"
       inkscape:locked="false" /></sodipodi:namedview><defs
     id="defs2">
        
    </defs><g
     inkscape:label="Copper track"
     inkscape:groupmode="layer"
     id="layer1"
     transform="translate(40.216671)"
     style="display:inline"><path
       style="color:#000000;fill:#f29100;stroke-width:1;-inkscape-stroke:none;paint-order:markers stroke fill"
       d="m -33.429613,24.870832 c 0,0 1.058164,1.587435 0.264821,2.645899 -0.793344,1.058463 -0.264821,2.645768 -0.264821,2.645768 h 86.738725 c 0,0 -0.902921,-1.897243 0,-2.800737 0.902919,-0.903494 0,-2.49093 0,-2.49093 z"
       id="path17766"
       sodipodi:nodetypes="czcczcc" /><path
       style="color:#000000;fill:#f29100;stroke-width:1;paint-order:markers stroke fill"
       d="m -8.9958387,29.633333 v 14.2875 h 5.2916665 v -14.2875 z"
       id="path18552" /><path
       style="color:#000000;fill:#f29100;stroke-width:1;paint-order:markers stroke fill"
       d="m 17.462493,29.633333 v 14.2875 h 5.291667 v -14.2875 z"
       id="path18591" /></g><g
     inkscape:groupmode="layer"
     id="layer12"
     inkscape:label="circular pads"
     style="display:inline"><path
       style="color:#000000;display:inline;fill:#f29100;stroke-width:1;paint-order:markers stroke fill"
       d="m 33.866666,55.562498 c -4.060239,0 -7.408333,-3.348095 -7.408334,-7.408333 0,-4.060238 3.348095,-7.408333 7.408334,-7.408333 4.060238,0 7.408332,3.348095 7.408332,7.408333 0,4.060238 -3.348094,7.408333 -7.408332,7.408333 z m 0,-5.291109 c 1.200361,0 2.117225,-0.916864 2.117225,-2.117224 0,-1.200361 -0.916864,-2.117225 -2.117225,-2.117225 -1.20036,0 -2.117224,0.916864 -2.117224,2.117225 0,1.20036 0.916864,2.117224 2.117224,2.117224 z"
       id="circle18554" /><path
       style="color:#000000;display:inline;fill:#f29100;stroke-width:0.999996;paint-order:markers stroke fill"
       d="m 60.324022,55.562498 c -4.059703,0 -7.407357,-3.348094 -7.407357,-7.408332 0,-4.060239 3.347654,-7.408334 7.407357,-7.408334 4.059703,0 7.409309,3.348095 7.409309,7.408334 0,4.060238 -3.349606,7.408332 -7.409309,7.408332 z m 0,-5.291108 c 1.200202,0 2.116945,-0.916865 2.116945,-2.117224 0,-1.200362 -0.916743,-2.117226 -2.116945,-2.117226 -1.200203,0 -2.114993,0.916864 -2.114993,2.117226 0,1.200359 0.91479,2.117224 2.114993,2.117224 z"
       id="circle18593" /></g></svg>
