<?xml version="1.0" encoding="UTF-8" standalone="no"?>
<!-- Created with Inkscape (http://www.inkscape.org/) -->

<svg
   width="280.00018"
   height="256.00003"
   viewBox="0 0 74.083374 67.733341"
   version="1.1"
   id="svg5"
   sodipodi:docname="matched-lenght-all-traces-in-group.svg"
   inkscape:version="1.2.1 (9c6d41e4, 2022-07-14)"
   xml:space="preserve"
   xmlns:inkscape="http://www.inkscape.org/namespaces/inkscape"
   xmlns:sodipodi="http://sodipodi.sourceforge.net/DTD/sodipodi-0.dtd"
   xmlns="http://www.w3.org/2000/svg"
   xmlns:svg="http://www.w3.org/2000/svg"><sodipodi:namedview
     id="namedview7"
     pagecolor="#ffffff"
     bordercolor="#666666"
     borderopacity="1.0"
     inkscape:showpageshadow="2"
     inkscape:pageopacity="0.0"
     inkscape:pagecheckerboard="0"
     inkscape:deskcolor="#d1d1d1"
     inkscape:document-units="px"
     showgrid="true"
     inkscape:zoom="2.8284271"
     inkscape:cx="107.30345"
     inkscape:cy="70.180349"
     inkscape:window-width="1366"
     inkscape:window-height="663"
     inkscape:window-x="0"
     inkscape:window-y="25"
     inkscape:window-maximized="1"
     inkscape:current-layer="layer10"
     showguides="true"
     inkscape:lockguides="true"><inkscape:grid
       type="xygrid"
       id="grid1049"
       empcolor="#3f3fff"
       empopacity="0.25098039"
       color="#ceceff"
       opacity="0.1254902"
       empspacing="2"
       spacingx="0.13229167"
       spacingy="0.13229167"
       originx="105.83333"
       originy="-10.583334" /><sodipodi:guide
       position="59.531302,29.104165"
       orientation="0,-1"
       id="guide1282"
       inkscape:locked="true" /><sodipodi:guide
       position="66.145885,48.154165"
       orientation="0,-1"
       id="guide1284"
       inkscape:locked="true" /><sodipodi:guide
       position="23.812551,11.112494"
       orientation="0,-1"
       id="guide1286"
       inkscape:locked="true" /><sodipodi:guide
       position="52.387551,32.279165"
       orientation="0,-1"
       id="guide3496"
       inkscape:locked="true" /><sodipodi:guide
       position="46.566718,26.193748"
       orientation="0.70710678,-0.70710678"
       id="guide9799"
       inkscape:locked="true" /><sodipodi:guide
       position="54.504218,20.108331"
       orientation="0.70710678,-0.70710678"
       id="guide9801"
       inkscape:locked="true" /><sodipodi:guide
       position="68.262552,25.929165"
       orientation="-0.70710678,-0.70710678"
       id="guide9809"
       inkscape:locked="true" /><sodipodi:guide
       position="69.320885,28.045832"
       orientation="-0.70710678,-0.70710678"
       id="guide9811"
       inkscape:locked="true" /><sodipodi:guide
       position="62.838593,35.85104"
       orientation="0,-1"
       id="guide9813"
       inkscape:locked="true" /><sodipodi:guide
       position="56.620885,47.624999"
       orientation="0.70710678,-0.70710678"
       id="guide11323"
       inkscape:locked="true"
       inkscape:label=""
       inkscape:color="rgb(246,97,81)" /><sodipodi:guide
       position="49.212551,44.449999"
       orientation="-0.70710678,-0.70710678"
       id="guide12051"
       inkscape:locked="true"
       inkscape:label=""
       inkscape:color="rgb(246,97,81)" /><sodipodi:guide
       position="44.185412,24.606254"
       orientation="0.70710678,-0.70710678"
       id="guide13700"
       inkscape:locked="true" /><sodipodi:guide
       position="43.39166,15.345837"
       orientation="0.70710678,-0.70710678"
       id="guide13702"
       inkscape:locked="true" /><sodipodi:guide
       position="10.715619,46.963546"
       orientation="1,0"
       id="guide25119"
       inkscape:locked="true" /><sodipodi:guide
       position="64.161454,58.737504"
       orientation="1,0"
       id="guide25121"
       inkscape:locked="true" /></sodipodi:namedview><defs
     id="defs2"><inkscape:path-effect
   effect="fillet_chamfer"
   id="path-effect7872"
   is_visible="true"
   lpeversion="1"
   nodesatellites_param="F,0,0,1,0,0,0,1 @ F,0,0,1,0,3.1749986,0,1 @ F,0,0,1,0,5.2916669,0,1 @ F,0,0,1,0,5.2916669,0,1 @ F,0,0,1,0,3.1749986,0,1 @ F,0,0,1,0,2.6458349,0,1 @ F,0,0,1,0,4.2333336,0,1 @ F,0,0,1,0,4.2333336,0,1 @ F,0,0,1,0,4.2333335,0,1 @ F,0,0,1,0,4.2333335,0,1 @ F,0,0,1,0,3.1750006,0,1 @ F,0,0,1,0,0,0,1"
   unit="px"
   method="auto"
   mode="F"
   radius="0"
   chamfer_steps="1"
   flexible="false"
   use_knot_distance="true"
   apply_no_radius="true"
   apply_with_radius="true"
   only_selected="false"
   hide_knots="false" /><inkscape:path-effect
   effect="fillet_chamfer"
   id="path-effect2042"
   is_visible="true"
   lpeversion="1"
   nodesatellites_param="F,0,0,1,0,0,0,1 @ F,0,0,1,0,3.1749986,0,1 @ F,0,0,1,0,5.2916669,0,1 @ F,0,0,1,0,5.2916669,0,1 @ F,0,0,1,0,3.1749986,0,1 @ F,0,0,1,0,2.6458349,0,1 @ F,0,0,1,0,4.2333336,0,1 @ F,0,0,1,0,4.2333336,0,1 @ F,0,0,1,0,4.2333335,0,1 @ F,0,0,1,0,4.2333335,0,1 @ F,0,0,1,0,3.1750006,0,1 @ F,0,0,1,0,0,0,1"
   unit="px"
   method="auto"
   mode="F"
   radius="0"
   chamfer_steps="1"
   flexible="false"
   use_knot_distance="true"
   apply_no_radius="true"
   apply_with_radius="true"
   only_selected="false"
   hide_knots="false" /><inkscape:path-effect
   effect="fillet_chamfer"
   id="path-effect11489"
   is_visible="true"
   lpeversion="1"
   nodesatellites_param="F,0,0,1,0,0,0,1 @ F,0,0,1,0,0,0,1 @ F,0,0,1,0,0,0,1 @ F,0,0,1,0,0,0,1 @ F,0,0,1,0,0,0,1 @ F,0,0,1,0,0,0,1 @ F,0,0,1,0,0,0,1 @ F,0,0,1,0,0,0,1 @ F,0,0,1,0,0,0,1 @ F,0,0,1,0,0,0,1 @ F,0,0,1,0,0,0,1 @ F,0,0,1,0,0,0,1 @ F,0,0,1,0,0,0,1 @ F,0,0,1,0,0,0,1 @ F,0,0,1,0,0,0,1 @ F,0,0,1,0,0,0,1 @ F,0,0,1,0,0,0,1 @ F,0,0,1,0,0,0,1 @ F,0,0,1,0,0,0,1 @ F,0,0,1,0,0,0,1 @ F,0,0,1,0,0,0,1 @ F,0,0,1,0,0,0,1 @ F,0,0,1,0,0,0,1 @ F,0,0,1,0,0,0,1 @ F,0,0,1,0,0,0,1 @ F,0,0,1,0,0,0,1 @ F,0,0,1,0,0,0,1 @ F,0,0,1,0,0,0,1 @ F,0,0,1,0,0,0,1 @ F,0,0,1,0,0,0,1 @ F,0,0,1,0,0,0,1 @ F,0,0,1,0,0,0,1 @ F,0,0,1,0,0,0,1 @ F,0,0,1,0,0,0,1 @ F,0,0,1,0,0,0,1 @ F,0,0,1,0,0,0,1 @ F,0,0,1,0,0,0,1 @ F,0,0,1,0,0,0,1 @ F,0,0,1,0,0,0,1 @ F,0,0,1,0,0,0,1"
   unit="px"
   method="auto"
   mode="F"
   radius="0"
   chamfer_steps="1"
   flexible="false"
   use_knot_distance="false"
   apply_no_radius="false"
   apply_with_radius="false"
   only_selected="false"
   hide_knots="false" />
        
    </defs><g
     inkscape:groupmode="layer"
     id="layer10"
     inkscape:label="board"><path
       id="rect6810"
       style="display:inline;opacity:1;fill:#006400;fill-opacity:1;stroke:none;stroke-width:0.264583;stroke-linejoin:round;stroke-dasharray:none;stroke-opacity:1;paint-order:stroke fill markers"
       d="M 10.583333,8.9958332 V 36.060457 c 0.540675,0.14776 1.058333,0.430643 1.058333,0.972551 0,0.541701 -0.517676,0.82429 -1.058333,0.972033 v 0.890385 c 0.540675,0.147761 1.058333,0.430639 1.058333,0.972551 0,0.541701 -0.517676,0.824286 -1.058333,0.972033 v 0.890385 c 0.540661,0.147762 1.058333,0.430656 1.058333,0.972551 0,0.541713 -0.517663,0.824289 -1.058333,0.972033 v 16.650022 h 35.351328 c 0.147763,-0.540664 0.430142,-1.058334 0.972034,-1.058334 0.541704,0 0.824287,0.517674 0.972034,1.058334 h 0.890385 c 0.147758,-0.540679 0.430641,-1.058334 0.97255,-1.058334 0.541702,0 0.824287,0.517674 0.972034,1.058334 h 0.890385 c 0.147757,-0.540679 0.430643,-1.058334 0.97255,-1.058334 0.541702,0 0.824287,0.517674 0.972034,1.058334 H 64.029165 V 29.38748 c -0.54067,-0.147744 -1.058335,-0.430321 -1.058335,-0.972033 0,-0.541895 0.517675,-0.824789 1.058335,-0.972551 v -0.890385 c -0.54066,-0.147747 -1.058335,-0.430333 -1.058335,-0.972033 0,-0.541912 0.517655,-0.82479 1.058335,-0.972551 V 23.717542 C 63.488505,23.5698 62.97083,23.287209 62.97083,22.745509 c 0,-0.541908 0.517655,-0.824791 1.058335,-0.972551 V 8.9958332 h -23.10505 c -0.147747,0.54066 -0.43033,1.0583338 -0.972034,1.0583338 -0.541906,0 -0.824791,-0.5176558 -0.97255,-1.0583338 h -0.890385 c -0.147747,0.54066 -0.430329,1.0583338 -0.972034,1.0583338 -0.541897,0 -0.82427,-0.5176698 -0.972033,-1.0583338 h -0.890385 c -0.147744,0.540673 -0.430318,1.0583338 -0.972034,1.0583338 -0.541893,0 -0.824788,-0.5176698 -0.97255,-1.0583338 z"
       sodipodi:nodetypes="ccsccsccscccsccsccscccsccsccscccsccsccscc" /></g><g
     inkscape:groupmode="layer"
     id="layer2"
     inkscape:label="Corner-style"
     style="display:inline"
     transform="translate(-2.116566,1.38e-5)"><path
       id="path726"
       style="color:#000000;fill:#f29100;fill-opacity:1;stroke-linejoin:round;paint-order:markers stroke fill"
       d="m 23.025366,21.720623 c -2.331171,0 -4.246252,1.912832 -4.246252,4.244185 v 4.001823 c 0,0.211784 -0.11713,0.328145 -0.328145,0.328145 h -5.618784 v 1.05885 h 5.618784 c 0.756464,0 1.386995,-0.631301 1.386995,-1.386995 v -4.001823 c 0,-1.752054 1.433341,-3.186317 3.185335,-3.187402 h 0.0021 c 0.01256,1.07e-4 0.02472,8.51e-4 0.03514,0.0021 1.591684,0.176855 2.749215,1.623768 2.57607,3.214791 l -0.0016,0.03514 c 0.0019,0.0019 0.0038,0.0038 0.0057,0.0057 v 3.931543 c 0,0.756463 0.630015,1.386995 1.386479,1.386995 h 2.572452 c 0.96171,0 1.755966,0.794256 1.755966,1.755965 v 3.144511 c 0,1.077484 0.88157,1.959053 1.959053,1.959053 1.077484,0 1.959053,-0.881569 1.959053,-1.959053 V 25.39275 c 0,-1.43663 1.178196,-2.615343 2.614828,-2.615344 1.43663,0 2.615344,1.178714 2.615344,2.615344 v 4.573881 c 0,0.756464 0.630531,1.386995 1.386995,1.386995 h 20.462833 l 3.924308,3.9672 v -1.504301 l -3.328996,-3.365169 c -0.0991,-0.09993 -0.233917,-0.15628 -0.374654,-0.15658 H 41.89088 c -0.211014,0 -0.330212,-0.117131 -0.330212,-0.328145 V 25.39275 c 0,-2.015996 -1.656131,-3.672127 -3.672127,-3.672127 -2.015996,1e-6 -3.673678,1.656131 -3.673678,3.672127 v 10.861352 c 0,0.521442 -0.378763,0.900203 -0.900203,0.900203 -0.52144,0 -0.900719,-0.378761 -0.90072,-0.900203 v -3.144511 c 1e-6,-1.543753 -1.270545,-2.814815 -2.814299,-2.814815 h -2.572452 c -0.211015,0 -0.328146,-0.11713 -0.328146,-0.328145 v -4.001823 c -0.0081,-0.0094 -0.01656,-0.01856 -0.02532,-0.02739 0.133433,-2.095022 -1.389302,-3.974978 -3.49591,-4.209046 -0.05137,-0.0058 -0.101015,-0.0077 -0.150379,-0.0078 -6.89e-4,-1e-6 -0.0014,-1e-6 -0.0021,0 z m 14.863175,1.713074 c -1.077484,0 -1.959054,0.881569 -1.959054,1.959053 v 10.861352 c 0,1.436631 -1.178411,2.614827 -2.614827,2.614827 -1.436416,0 -2.615344,-1.178194 -2.615344,-2.614827 v -3.144511 c 0,-0.592103 -0.507569,-1.099674 -1.099675,-1.099674 h -2.572452 c -1.120115,0 -2.044837,-0.923434 -2.044837,-2.043286 v -4.001823 c 0,-0.01172 6.16e-4,-0.02455 0.0021,-0.03721 0.135211,-1.21691 -0.731587,-2.310716 -1.933732,-2.478401 -0.02839,-0.0042 -0.05708,-0.0061 -0.08578,-0.0057 -1.364111,0.03354 -2.47065,1.14639 -2.47065,2.521293 v 4.001823 c 0,1.120117 -0.92317,2.043286 -2.043286,2.043286 H 12.83222 v 1.058333 h 5.618784 c 1.701067,0 3.101619,-1.400552 3.101619,-3.101619 V 25.96479 c 0,-0.803836 0.602615,-1.401301 1.394747,-1.44539 0.634324,0.114071 1.058887,0.639423 0.986503,1.290878 -0.0056,0.0504 -0.0098,0.102769 -0.0098,0.154512 v 4.001823 c 0,1.701332 1.402103,3.101621 3.10317,3.101619 h 2.572452 c 0.05966,0 0.04289,-0.01832 0.04289,0.04134 v 3.144511 c 0,2.015997 1.655915,3.673677 3.672127,3.673677 2.016212,0 3.673677,-1.65768 3.673677,-3.673677 V 25.39275 c 0,-0.52144 0.378764,-0.90072 0.900204,-0.90072 0.521439,0 0.90072,0.37928 0.90072,0.90072 v 4.573881 c 0,1.701068 1.400551,3.101621 3.101619,3.101619 h 3.429248 3.429765 4.488614 7.609355 l 5.430159,5.430676 V 37.00031 L 61.441624,32.163913 C 61.341977,32.0648 61.206997,32.009395 61.066453,32.009917 H 53.238507 48.749893 45.320128 41.89088 c -1.120117,0 -2.043286,-0.923168 -2.043286,-2.043286 V 25.39275 c 0,-1.077484 -0.88157,-1.959053 -1.959053,-1.959053 z"
       sodipodi:nodetypes="csssccsssscccccsssssssssssscccccsssssssssssscccscsssssssssscccsssccssscsssssssssssssscccccccccccssss" /><path
       style="color:#000000;fill:#f29100;fill-opacity:1;-inkscape-stroke:none;paint-order:markers stroke fill"
       d="m 59.046875,44.449219 -6.349609,6.351562 h -6.34961 l -2.117187,2.115235 h -6.615235 l -3.835937,3.83789 H 12.832185 v 1.056641 H 34.21875 l 3.835937,-3.835938 h 6.615235 l 2.115234,-2.117187 h 6.351563 l 6.349609,-6.34961 h 6.79175 v -1.058593 z"
       id="path9803"
       sodipodi:nodetypes="ccccccccccccccccc" /><path
       style="color:#000000;fill:#f29100;fill-opacity:1;paint-order:markers stroke fill"
       d="m 12.832185,16.933594 v 1.058593 h 32.456877 l 4.232422,4.232422 h 7.847657 l 4.232421,-4.232422 h 4.675782 v -1.058593 h -5.113282 l -4.232421,4.232422 h -6.970704 l -4.234375,-4.232422 z"
       id="path9815"
       sodipodi:nodetypes="ccccccccccccc" /><path
       style="color:#000000;fill:#f29100;fill-opacity:1;paint-order:markers stroke fill"
       d="M 48.728516,40.746094 43.4375,46.037109 H 12.832185 v 1.058594 H 43.875 l 5.292969,-5.291016 h 17.110109 v -1.058593 z"
       id="path10595"
       sodipodi:nodetypes="ccccccccc" /></g></svg>
