<?xml version="1.0" encoding="UTF-8" standalone="no"?>
<!-- Created with Inkscape (http://www.inkscape.org/) -->

<svg
   width="376.00009"
   height="232"
   viewBox="0 0 99.483348 61.383333"
   version="1.1"
   id="svg5"
   sodipodi:docname="matched-lenght-diff-pair.svg"
   inkscape:version="1.2.1 (9c6d41e4, 2022-07-14)"
   xml:space="preserve"
   xmlns:inkscape="http://www.inkscape.org/namespaces/inkscape"
   xmlns:sodipodi="http://sodipodi.sourceforge.net/DTD/sodipodi-0.dtd"
   xmlns="http://www.w3.org/2000/svg"
   xmlns:svg="http://www.w3.org/2000/svg"><sodipodi:namedview
     id="namedview7"
     pagecolor="#ffffff"
     bordercolor="#666666"
     borderopacity="1.0"
     inkscape:showpageshadow="2"
     inkscape:pageopacity="0.0"
     inkscape:pagecheckerboard="0"
     inkscape:deskcolor="#d1d1d1"
     inkscape:document-units="px"
     showgrid="true"
     inkscape:zoom="1"
     inkscape:cx="150.5"
     inkscape:cy="207.5"
     inkscape:window-width="1366"
     inkscape:window-height="663"
     inkscape:window-x="1"
     inkscape:window-y="25"
     inkscape:window-maximized="0"
     inkscape:current-layer="layer2"
     showguides="true"
     inkscape:lockguides="true"><inkscape:grid
       type="xygrid"
       id="grid1049"
       empcolor="#3f3fff"
       empopacity="0.25098039"
       color="#ceceff"
       opacity="0.1254902"
       empspacing="2"
       spacingx="0.13229167"
       spacingy="0.13229167"
       originx="95.249998"
       originy="-14.816671" /><sodipodi:guide
       position="48.947914,26.9875"
       orientation="0,-1"
       id="guide1282"
       inkscape:locked="true" /><sodipodi:guide
       position="59.531247,46.83125"
       orientation="0,-1"
       id="guide1284"
       inkscape:locked="true" /><sodipodi:guide
       position="50.799997,13.49375"
       orientation="0,-1"
       id="guide1286"
       inkscape:locked="true" /><sodipodi:guide
       position="41.804163,30.1625"
       orientation="0,-1"
       id="guide3496"
       inkscape:locked="true" /></sodipodi:namedview><defs
     id="defs2"><inkscape:path-effect
   effect="fillet_chamfer"
   id="path-effect7872"
   is_visible="true"
   lpeversion="1"
   nodesatellites_param="F,0,0,1,0,0,0,1 @ F,0,0,1,0,3.1749986,0,1 @ F,0,0,1,0,5.2916669,0,1 @ F,0,0,1,0,5.2916669,0,1 @ F,0,0,1,0,3.1749986,0,1 @ F,0,0,1,0,2.6458349,0,1 @ F,0,0,1,0,4.2333336,0,1 @ F,0,0,1,0,4.2333336,0,1 @ F,0,0,1,0,4.2333335,0,1 @ F,0,0,1,0,4.2333335,0,1 @ F,0,0,1,0,3.1750006,0,1 @ F,0,0,1,0,0,0,1"
   unit="px"
   method="auto"
   mode="F"
   radius="0"
   chamfer_steps="1"
   flexible="false"
   use_knot_distance="true"
   apply_no_radius="true"
   apply_with_radius="true"
   only_selected="false"
   hide_knots="false" /><inkscape:path-effect
   effect="fillet_chamfer"
   id="path-effect2042"
   is_visible="true"
   lpeversion="1"
   nodesatellites_param="F,0,0,1,0,0,0,1 @ F,0,0,1,0,3.1749986,0,1 @ F,0,0,1,0,5.2916669,0,1 @ F,0,0,1,0,5.2916669,0,1 @ F,0,0,1,0,3.1749986,0,1 @ F,0,0,1,0,2.6458349,0,1 @ F,0,0,1,0,4.2333336,0,1 @ F,0,0,1,0,4.2333336,0,1 @ F,0,0,1,0,4.2333335,0,1 @ F,0,0,1,0,4.2333335,0,1 @ F,0,0,1,0,3.1750006,0,1 @ F,0,0,1,0,0,0,1"
   unit="px"
   method="auto"
   mode="F"
   radius="0"
   chamfer_steps="1"
   flexible="false"
   use_knot_distance="true"
   apply_no_radius="true"
   apply_with_radius="true"
   only_selected="false"
   hide_knots="false" /><inkscape:path-effect
   effect="fillet_chamfer"
   id="path-effect11489"
   is_visible="true"
   lpeversion="1"
   nodesatellites_param="F,0,0,1,0,0,0,1 @ F,0,0,1,0,0,0,1 @ F,0,0,1,0,0,0,1 @ F,0,0,1,0,0,0,1 @ F,0,0,1,0,0,0,1 @ F,0,0,1,0,0,0,1 @ F,0,0,1,0,0,0,1 @ F,0,0,1,0,0,0,1 @ F,0,0,1,0,0,0,1 @ F,0,0,1,0,0,0,1 @ F,0,0,1,0,0,0,1 @ F,0,0,1,0,0,0,1 @ F,0,0,1,0,0,0,1 @ F,0,0,1,0,0,0,1 @ F,0,0,1,0,0,0,1 @ F,0,0,1,0,0,0,1 @ F,0,0,1,0,0,0,1 @ F,0,0,1,0,0,0,1 @ F,0,0,1,0,0,0,1 @ F,0,0,1,0,0,0,1 @ F,0,0,1,0,0,0,1 @ F,0,0,1,0,0,0,1 @ F,0,0,1,0,0,0,1 @ F,0,0,1,0,0,0,1 @ F,0,0,1,0,0,0,1 @ F,0,0,1,0,0,0,1 @ F,0,0,1,0,0,0,1 @ F,0,0,1,0,0,0,1 @ F,0,0,1,0,0,0,1 @ F,0,0,1,0,0,0,1 @ F,0,0,1,0,0,0,1 @ F,0,0,1,0,0,0,1 @ F,0,0,1,0,0,0,1 @ F,0,0,1,0,0,0,1 @ F,0,0,1,0,0,0,1 @ F,0,0,1,0,0,0,1 @ F,0,0,1,0,0,0,1 @ F,0,0,1,0,0,0,1 @ F,0,0,1,0,0,0,1 @ F,0,0,1,0,0,0,1"
   unit="px"
   method="auto"
   mode="F"
   radius="0"
   chamfer_steps="1"
   flexible="false"
   use_knot_distance="true"
   apply_no_radius="true"
   apply_with_radius="true"
   only_selected="false"
   hide_knots="false" />
        
    </defs><g
     inkscape:groupmode="layer"
     id="layer9"
     inkscape:label="board"><path
       id="rect6810"
       style="display:inline;opacity:1;fill:#006400;fill-opacity:1;stroke:none;stroke-width:0.264583;stroke-linejoin:round;stroke-dasharray:none;stroke-opacity:1;paint-order:stroke fill markers"
       d="M 11.641666,4.2333331 V 17.586007 c 0.540675,0.14776 1.058333,0.430643 1.058333,0.972551 0,0.541701 -0.517676,0.82429 -1.058333,0.972033 v 0.890385 c 0.540675,0.147761 1.058333,0.430639 1.058333,0.972551 0,0.541701 -0.517676,0.824286 -1.058333,0.972033 v 0.890385 c 0.540661,0.147762 1.058333,0.430656 1.058333,0.972551 0,0.541713 -0.517663,0.824289 -1.058333,0.972033 V 56.091666 H 69.74716 c 0.147763,-0.540664 0.430142,-1.058334 0.972034,-1.058334 0.541704,0 0.824287,0.517674 0.972034,1.058334 h 0.890385 c 0.147758,-0.540679 0.430641,-1.058334 0.97255,-1.058334 0.541702,0 0.824287,0.517674 0.972034,1.058334 h 0.890385 c 0.147757,-0.540679 0.430643,-1.058334 0.97255,-1.058334 0.541702,0 0.824287,0.517674 0.972034,1.058334 h 10.480498 v -9.195305 c -0.54067,-0.147744 -1.058335,-0.430321 -1.058335,-0.972033 0,-0.541895 0.517675,-0.824789 1.058335,-0.972551 v -0.890385 c -0.54066,-0.147747 -1.058335,-0.430333 -1.058335,-0.972033 0,-0.541912 0.517655,-0.82479 1.058335,-0.972551 v -0.890385 c -0.54066,-0.147742 -1.058335,-0.430333 -1.058335,-0.972033 0,-0.541908 0.517655,-0.824791 1.058335,-0.972551 V 4.2333331 H 30.340782 c -0.147747,0.54066 -0.43033,1.058334 -0.972034,1.058334 -0.541906,0 -0.824791,-0.517656 -0.97255,-1.058334 h -0.890385 c -0.147747,0.54066 -0.430329,1.058334 -0.972034,1.058334 -0.541897,0 -0.82427,-0.51767 -0.972033,-1.058334 h -0.890385 c -0.147744,0.540673 -0.430318,1.058334 -0.972034,1.058334 -0.541893,0 -0.824788,-0.51767 -0.97255,-1.058334 z"
       inkscape:path-effect="#path-effect11489"
       inkscape:original-d="M 11.641666,4.2333331 V 17.586007 c 0.540675,0.14776 1.058333,0.430643 1.058333,0.972551 0,0.541701 -0.517676,0.82429 -1.058333,0.972033 v 0.890385 c 0.540675,0.147761 1.058333,0.430639 1.058333,0.972551 0,0.541701 -0.517676,0.824286 -1.058333,0.972033 v 0.890385 c 0.540661,0.147762 1.058333,0.430656 1.058333,0.972551 0,0.541713 -0.517663,0.824289 -1.058333,0.972033 V 56.091666 H 69.74716 c 0.147763,-0.540664 0.430142,-1.058334 0.972034,-1.058334 0.541704,0 0.824287,0.517674 0.972034,1.058334 h 0.890385 c 0.147758,-0.540679 0.430641,-1.058334 0.97255,-1.058334 0.541702,0 0.824287,0.517674 0.972034,1.058334 h 0.890385 c 0.147757,-0.540679 0.430643,-1.058334 0.97255,-1.058334 0.541702,0 0.824287,0.517674 0.972034,1.058334 h 10.480498 v -9.195305 c -0.54067,-0.147744 -1.058335,-0.430321 -1.058335,-0.972033 0,-0.541895 0.517675,-0.824789 1.058335,-0.972551 v -0.890385 c -0.54066,-0.147747 -1.058335,-0.430333 -1.058335,-0.972033 0,-0.541912 0.517655,-0.82479 1.058335,-0.972551 v -0.890385 c -0.54066,-0.147742 -1.058335,-0.430333 -1.058335,-0.972033 0,-0.541908 0.517655,-0.824791 1.058335,-0.972551 V 4.2333331 H 30.340782 c -0.147747,0.54066 -0.43033,1.058334 -0.972034,1.058334 -0.541906,0 -0.824791,-0.517656 -0.97255,-1.058334 h -0.890385 c -0.147747,0.54066 -0.430329,1.058334 -0.972034,1.058334 -0.541897,0 -0.82427,-0.51767 -0.972033,-1.058334 h -0.890385 c -0.147744,0.540673 -0.430318,1.058334 -0.972034,1.058334 -0.541893,0 -0.824788,-0.51767 -0.97255,-1.058334 z"
       sodipodi:nodetypes="ccsccsccscccsccsccscccsccsccscccsccsccscc" /></g><g
     inkscape:groupmode="layer"
     id="layer2"
     inkscape:label="copper tracks"
     style="display:inline"
     transform="translate(-12.699954,-4.2333323)"><path
       style="color:#000000;fill:none;stroke:#f29100;stroke-width:1.5875;stroke-linejoin:round;stroke-dasharray:none;stroke-opacity:1;paint-order:markers stroke fill"
       d="M 100.54162,35.454199 H 78.184118 c -0.895555,0 -1.587891,-0.692336 -1.58789,-1.587891 v -8.466796 c -10e-7,-3.195951 -2.624362,-5.820313 -5.820313,-5.820313 -3.19595,1e-6 -5.820312,2.624362 -5.820312,5.820313 v 20.107421 c 0,1.480056 -1.16643,2.646485 -2.646485,2.646485 -1.480055,0 -2.646484,-1.166429 -2.646484,-2.646485 v -5.820312 c 0,-2.319201 -1.913221,-4.232422 -4.232422,-4.232422 h -4.761719 c -0.895554,0 -1.58789,-0.692337 -1.58789,-1.587891 v -7.408203 l -0.0098,0.173828 c 0.387029,-3.482953 -2.153731,-6.655973 -5.636685,-7.042968 -0.05772,-0.0064 -0.11575,-0.0097 -0.173828,-0.0098 v 3.4e-5 c -3.780452,0 -6.880859,3.098454 -6.880859,6.878906 v 7.408203 c 0,0.895554 -0.690384,1.587891 -1.585938,1.587891 H 24.34162 m 4e-6,3.173828 h 10.451869 c 2.61145,0 4.761719,-2.150269 4.761719,-4.761719 v -7.408203 c 0,-2.032623 1.59584,-3.63785 3.615234,-3.6875 1.727681,0.240995 2.938164,1.765509 2.744141,3.511719 -0.0065,0.05837 -0.0098,0.117051 -0.0098,0.175781 v 7.408203 c 0,2.61145 2.152222,4.76172 4.763672,4.761719 h 4.761753 c 0.603305,0 1.058594,0.455289 1.058594,1.058594 v 5.820312 c -10e-7,3.195952 2.624361,5.822266 5.820312,5.822266 3.195951,-1e-6 5.820314,-2.626315 5.820313,-5.822266 V 25.399512 c 0,-1.480055 1.166429,-2.646485 2.646484,-2.646485 1.480056,0 2.646484,1.166429 2.646484,2.646485 v 8.466796 c 0,2.611452 2.150268,4.76172 4.761719,4.761719 h 6.350053 6.350053 6.350053 3.307343"
       id="path726"
       sodipodi:nodetypes="csssssssssssscccccsssccssscccsssssssssssscccc" /></g><g
     inkscape:groupmode="layer"
     id="layer1"
     inkscape:label="Arrows"
     transform="translate(-12.699954,-4.2333323)" /></svg>
