<?xml version="1.0" encoding="UTF-8" standalone="no"?>
<!-- Created with Inkscape (http://www.inkscape.org/) -->

<svg
   width="376.00009"
   height="232"
   viewBox="0 0 99.483348 61.383333"
   version="1.1"
   id="svg5"
   sodipodi:docname="vias-under-SMD.svg"
   inkscape:version="1.2.1 (9c6d41e4, 2022-07-14)"
   xml:space="preserve"
   xmlns:inkscape="http://www.inkscape.org/namespaces/inkscape"
   xmlns:sodipodi="http://sodipodi.sourceforge.net/DTD/sodipodi-0.dtd"
   xmlns="http://www.w3.org/2000/svg"
   xmlns:svg="http://www.w3.org/2000/svg"><sodipodi:namedview
     id="namedview7"
     pagecolor="#ffffff"
     bordercolor="#666666"
     borderopacity="1.0"
     inkscape:showpageshadow="2"
     inkscape:pageopacity="0.0"
     inkscape:pagecheckerboard="0"
     inkscape:deskcolor="#d1d1d1"
     inkscape:document-units="px"
     showgrid="true"
     inkscape:zoom="2.0000001"
     inkscape:cx="216.74999"
     inkscape:cy="134.75"
     inkscape:window-width="1360"
     inkscape:window-height="663"
     inkscape:window-x="1369"
     inkscape:window-y="25"
     inkscape:window-maximized="0"
     inkscape:current-layer="layer1"
     showguides="true"
     inkscape:lockguides="false"><inkscape:grid
       type="xygrid"
       id="grid1049"
       empcolor="#3f3fff"
       empopacity="0.25098039"
       color="#ceceff"
       opacity="0.1254902"
       empspacing="2"
       spacingx="0.13229167"
       spacingy="0.13229167"
       originx="95.249998"
       originy="-14.816671" /><sodipodi:guide
       position="22.754163,33.602083"
       orientation="0,-1"
       id="guide41783"
       inkscape:locked="false" /><sodipodi:guide
       position="65.087497,27.516667"
       orientation="0.70710678,-0.70710678"
       id="guide41795"
       inkscape:locked="false" /><sodipodi:guide
       position="42.33333,43.391667"
       orientation="0,-1"
       id="guide15370"
       inkscape:locked="false" /><sodipodi:guide
       position="44.979163,23.812479"
       orientation="0,-1"
       id="guide15372"
       inkscape:locked="false" /><sodipodi:guide
       position="22.224995,30.691668"
       orientation="1,0"
       id="guide15374"
       inkscape:locked="false" /><sodipodi:guide
       position="57.149994,31.750002"
       orientation="1,0"
       id="guide15376"
       inkscape:locked="false" /></sodipodi:namedview><defs
     id="defs2">
        
    </defs><g
     inkscape:groupmode="layer"
     id="layer2"
     inkscape:label="copper"
     style="display:inline"
     transform="translate(-12.699954,-4.2333323)"><path
       id="rect42790"
       style="color:#000000;fill:#f29100;fill-opacity:1;stroke-width:1;stroke-linejoin:round;paint-order:stroke fill markers"
       d="m 38.732065,22.224998 c -2.063069,0 -3.807114,1.743903 -3.807114,3.806802 v 11.96608 c 0,2.062899 1.744045,3.806285 3.807114,3.806284 h 27.311286 c 2.063069,10e-7 3.806599,-1.743385 3.806598,-3.806284 V 26.0318 c 0,-2.062899 -1.743529,-3.806802 -3.806598,-3.806802 z" /><path
       style="color:#000000;display:inline;fill:#be7300;fill-opacity:1;stroke:none;stroke-width:1.05833;stroke-dasharray:none;paint-order:markers stroke fill"
       d="m 53.313296,23.812495 c -4.431328,0 -8.069986,3.638661 -8.069987,8.069988 0,4.431328 3.638659,8.071599 8.069987,8.071599 4.431329,0 8.069988,-3.640271 8.069988,-8.071599 0,-4.431327 -3.638659,-8.069988 -8.069988,-8.069988 z m 0,4.363463 c 2.073722,0 3.708139,1.632806 3.708139,3.706526 0,2.073721 -1.634417,3.708139 -3.708139,3.708139 -2.07372,0 -3.708136,-1.634418 -3.708136,-3.708139 0,-2.07372 1.634416,-3.706526 3.708136,-3.706526 z"
       id="path1072" /><path
       style="color:#000000;fill:#f29100;-inkscape-stroke:none"
       d="m 92.849609,19.294922 -9.808593,9.808594 H 64.029297 v 5.292968 H 85.232422 L 96.591797,23.037109 c 0,0 -1.424468,-0.250438 -1.854193,-1.854192 -0.429725,-1.603755 -1.887995,-1.887995 -1.887995,-1.887995 z"
       id="path49394"
       sodipodi:nodetypes="cccccczc" /></g><g
     inkscape:groupmode="layer"
     id="layer1"
     inkscape:label="circular hole"
     transform="translate(-12.699954,-4.2333323)"><circle
       style="display:inline;fill:#ffffff;fill-opacity:1;stroke:none;stroke-width:5.29167;stroke-dasharray:none;paint-order:markers stroke fill"
       id="path19478"
       cx="52.122345"
       cy="32.01432"
       r="3.96875" /><path
       style="color:#000000;display:inline;fill:#f29100;fill-opacity:1;stroke:#786721;stroke-width:1.05833;stroke-dasharray:none;paint-order:markers stroke fill"
       d="m 52.122868,24.07708 c -4.358578,0 -7.9375,3.578567 -7.937501,7.93671 0,4.358142 3.578923,7.938292 7.937501,7.938292 4.358579,0 7.937501,-3.58015 7.937501,-7.938292 0,-4.358143 -3.578922,-7.93671 -7.937501,-7.93671 z m 0,4.291398 c 2.039678,0 3.647261,1.605839 3.647261,3.645312 0,2.039472 -1.607583,3.646896 -3.647261,3.646896 -2.039676,0 -3.647259,-1.607424 -3.647259,-3.646896 0,-2.039473 1.607583,-3.645312 3.647259,-3.645312 z"
       id="path18848" /></g></svg>
