<svg xmlns="http://www.w3.org/2000/svg" height="48" width="48" version="1.1" xmlns:xlink="http://www.w3.org/1999/xlink">
 <defs>
  <linearGradient id="a">
   <stop stop-color="#ff7800" offset="0"/>
   <stop stop-color="#fff" offset="1"/>
  </linearGradient>
  <filter id="e" color-interpolation-filters="sRGB">
   <feGaussianBlur stdDeviation="1.1680352"/>
  </filter>
  <linearGradient id="f" y2="4.6406" xlink:href="#a" gradientUnits="userSpaceOnUse" x2="6.0964" gradientTransform="matrix(1.3965,0,0,1.3225,186.81,36.076)" y1="8.6836" x1="8.9893"/>
  <linearGradient id="g" y2="4.6406" xlink:href="#a" gradientUnits="userSpaceOnUse" x2="6.0964" gradientTransform="matrix(1.3965,0,0,1.3225,171.73,36.076)" y1="8.6836" x1="8.9893"/>
 </defs>
 <rect fill-opacity="0" height="16" width="16" y="32.05" x="32.272"/>
 <g opacity=".37891" filter="url(#e)" transform="matrix(.95982 0 0 1.0323 2.8361 29.724)">
  <path d="m22.832-17.789c-10.119 0-18.332 7.2315-18.332 16.142 0 8.9102 8.2129 16.142 18.332 16.142s18.332-7.2315 18.332-16.142c0-8.9102-8.2129-16.142-18.332-16.142zm0 4.6119c7.2282 0 13.094 5.1654 13.094 11.53 0 6.3644-5.8663 11.53-13.094 11.53-7.2282 0-13.094-5.1654-13.094-11.53 0-6.3644 5.8663-11.53 13.094-11.53z"/>
  <path d="m10.5 6.75a2.25 2.25 0 1 1 -4.5 0 2.25 2.25 0 1 1 4.5 0z" transform="matrix(2.3279,0,0,2.0497,19.34,-15.484)"/>
  <path d="m10.5 6.75a2.25 2.25 0 1 1 -4.5 0 2.25 2.25 0 1 1 4.5 0z" transform="matrix(2.3279,0,0,2.0497,3.6271,-15.484)"/>
 </g>
 <g transform="translate(-160.2,-21)">
  <path fill="#00009b" d="m183.25 28.339c-9.7128 0-17.596 7.4654-17.596 16.664 0 9.1984 7.8828 16.664 17.596 16.664 9.7128 0 17.596-7.4654 17.596-16.664 0-9.1984-7.8828-16.664-17.596-16.664zm0 4.7611c6.9377 0 12.568 5.3324 12.568 11.903 0 6.5703-5.6306 11.903-12.568 11.903-6.9377 0-12.568-5.3324-12.568-11.903 0-6.5703 5.6306-11.903 12.568-11.903z"/>
  <path d="m203.36 45.003a5.0275 4.7613 0 0 1 -10.055 0 5.0275 4.7613 0 1 1 10.055 0z"/>
  <path fill="url(#f)" d="m201.47 45.003a3.1421 2.9757 0 0 1 -6.2842 0 3.1421 2.9757 0 1 1 6.2842 0z"/>
  <path d="m188.28 45.003a5.0275 4.7613 0 0 1 -10.055 0 5.0275 4.7613 0 1 1 10.055 0z"/>
  <path fill="url(#g)" d="m186.39 45.003a3.1421 2.9757 0 0 1 -6.2842 0 3.1421 2.9757 0 1 1 6.2842 0z"/>
 </g>
 <rect fill-opacity="0" height="16" width="16" y="33.55" x="10.022"/>
</svg>
