<svg xmlns="http://www.w3.org/2000/svg" height="48" width="48" version="1.1">
 <defs>
  <filter id="c" height="1.3651" width="1.2097" color-interpolation-filters="sRGB" y="-.18257" x="-.10484">
   <feGaussianBlur stdDeviation="1.5978799"/>
  </filter>
  <filter id="d" height="1.4696" width="1.481" color-interpolation-filters="sRGB" y="-.23482" x="-.24049">
   <feGaussianBlur stdDeviation="1.5978799"/>
  </filter>
 </defs>
 <g transform="matrix(2.4566,0,0,2.2316,-37.589,-39.022)">
  <rect fill-opacity="0" height="16" width="16" y="0" x="0"/>
 </g>
 <g transform="matrix(2.9379,0,0,2.1996,3.2038,3.4368)">
  <rect fill-opacity="0" height="16" width="16" y="0" x="0"/>
 </g>
 <g transform="matrix(3.433,0,0,3.1874,36.579,24.886)">
  <path fill="#afaf00" d="m12 5.5-2.5174-1.3495-2.5388 1.3087 0.5056-2.8112-2.0292-2.0101 2.8298-0.3879 1.2847-2.551 1.2433 2.5714 2.823 0.43352-2.061 1.9771z" transform="matrix(.86499 0 0 .86499 3.3638 -4.5167)"/>
  <path fill="#ebeb00" d="m12 5.5-2.5174-1.3495-2.5388 1.3087 0.5056-2.8112-2.0292-2.0101 2.8298-0.3879 1.2847-2.551 1.2433 2.5714 2.823 0.43352-2.061 1.9771z" transform="matrix(.61624 0 0 .61624 5.7296 -4.1188)"/>
  <path fill="#ff0" d="m12 5.5-2.5174-1.3495-2.5388 1.3087 0.5056-2.8112-2.0292-2.0101 2.8298-0.3879 1.2847-2.551 1.2433 2.5714 2.823 0.43352-2.061 1.9771z" transform="matrix(.3815 0 0 .3815 7.9622 -3.7434)"/>
 </g>
 <g fill-rule="evenodd" transform="matrix(1.0859,0,0,1.1186,104.11,18.842)">
  <path opacity=".71094" filter="url(#c)" d="m-89.451-7.3604 18.355 0.0081 5.5649 16.331h12.66l-0.13021 4.666h-15.946l-5.6951-16.331h-14.807v-4.6743z"/>
  <path fill="#007d00" d="m-91.729-9.3017 18.355 0.0081 5.5649 16.331h12.66l-0.13021 4.666h-15.946l-5.6951-16.331h-14.807v-4.6743z"/>
 </g>
 <g transform="translate(28.697,7.7147)">
  <path opacity=".71094" filter="url(#d)" d="m-15.677 14.571c-4.4012 0-7.9732 3.6582-7.9732 8.1655 0 4.5074 3.572 8.1655 7.9732 8.1655s7.9732-3.6582 7.9732-8.1655c0-4.5074-3.572-8.1655-7.9732-8.1655zm0 4.666c1.8862 0 3.4171 1.5678 3.4171 3.4995s-1.5309 3.4995-3.4171 3.4995-3.4171-1.5678-3.4171-3.4995 1.5309-3.4995 3.4171-3.4995z"/>
  <path fill="#d72e2e" d="m-17.955 12.638c-4.4012 0-7.9732 3.6582-7.9732 8.1655 0 4.5074 3.572 8.1655 7.9732 8.1655s7.9732-3.6582 7.9732-8.1655c0-4.5074-3.572-8.1655-7.9732-8.1655zm0 4.666c1.8862 0 3.4171 1.5678 3.4171 3.4995s-1.5309 3.4995-3.4171 3.4995-3.4171-1.5678-3.4171-3.4995 1.5309-3.4995 3.4171-3.4995z"/>
 </g>
</svg>
