<?xml version="1.0" encoding="UTF-8" standalone="no"?>
<svg
   xmlns:dc="http://purl.org/dc/elements/1.1/"
   xmlns:cc="http://creativecommons.org/ns#"
   xmlns:rdf="http://www.w3.org/1999/02/22-rdf-syntax-ns#"
   xmlns:svg="http://www.w3.org/2000/svg"
   xmlns="http://www.w3.org/2000/svg"
   xmlns:sodipodi="http://sodipodi.sourceforge.net/DTD/sodipodi-0.dtd"
   xmlns:inkscape="http://www.inkscape.org/namespaces/inkscape"
   height="26"
   width="26"
   version="1.1"
   viewBox="0 0 26 26"
   id="svg2"
   inkscape:version="0.48.2 r9819"
   sodipodi:docname="add_component.svg">
  <metadata
     id="metadata56">
    <rdf:RDF>
      <cc:Work
         rdf:about="">
        <dc:format>image/svg+xml</dc:format>
        <dc:type
           rdf:resource="http://purl.org/dc/dcmitype/StillImage" />
        <dc:title />
      </cc:Work>
    </rdf:RDF>
  </metadata>
  <defs
     id="defs54" />
  <sodipodi:namedview
     pagecolor="#ffffff"
     bordercolor="#666666"
     borderopacity="1"
     objecttolerance="10"
     gridtolerance="10"
     guidetolerance="10"
     inkscape:pageopacity="0"
     inkscape:pageshadow="2"
     inkscape:window-width="1600"
     inkscape:window-height="841"
     id="namedview52"
     showgrid="true"
     inkscape:zoom="18.351206"
     inkscape:cx="25.807289"
     inkscape:cy="13.250246"
     inkscape:window-x="0"
     inkscape:window-y="28"
     inkscape:window-maximized="1"
     inkscape:current-layer="svg2"
     inkscape:snap-to-guides="false"
     inkscape:snap-grids="false">
    <inkscape:grid
       type="xygrid"
       id="grid3033"
       empspacing="5"
       visible="true"
       enabled="true"
       snapvisiblegridlinesonly="true" />
  </sodipodi:namedview>
  <rect
     transform="matrix(0,-1,1,0,0,0)"
     height="21.994465"
     width="12.99073"
     y="1.5596062"
     x="-17.520231"
     id="rect8"
     style="fill:#ffffff;stroke:#484848;stroke-width:0.99127513000000000;stroke-linejoin:round;stroke-miterlimit:4;stroke-dasharray:none;stroke-opacity:1" />
  <rect
     style="fill:#ac9393;fill-opacity:1;fill-rule:evenodd;stroke:none;opacity:0.708"
     id="rect3003"
     width="18.963331"
     height="10.026589"
     x="3.0515707"
     y="6.0558066"
     ry="0.88184816" />
  <path
     d="m 1.5927632,8.9410802 a 2.0341261,1.8090857 0 1 1 0.012585,3.6181538"
     id="path10"
     inkscape:connector-curvature="0"
     style="fill:none;stroke:#484848;stroke-width:0.99127518999999997;stroke-linejoin:round;stroke-miterlimit:4;stroke-dasharray:none;stroke-opacity:1" />
  <rect
     transform="matrix(0,-1,1,0,0,0)"
     height="3.9761357"
     width="5.9874525"
     y="3.5188339"
     x="-20.502354"
     id="rect30"
     style="fill:#ff7800;stroke:#484848;stroke-width:1;stroke-linejoin:round;stroke-miterlimit:4;stroke-dasharray:none;stroke-opacity:1" />
  <path
     d="m 5.5071146,16.522119 a 0.98526485,0.92342205 0 0 1 0,1.846844 0.98526485,0.92342205 0 1 1 0,-1.846844 z"
     id="path32"
     inkscape:connector-curvature="0"
     style="fill:#ffede0;stroke:#484848;stroke-width:1;stroke-linejoin:round;stroke-miterlimit:4;stroke-dasharray:none;stroke-opacity:1" />
  <rect
     transform="matrix(0,-1,1,0,0,0)"
     height="3.9761357"
     width="5.9874525"
     y="10.507601"
     x="-20.513519"
     id="rect30-5"
     style="fill:#ff7800;stroke:#484848;stroke-width:1;stroke-linejoin:round;stroke-miterlimit:4;stroke-dasharray:none;stroke-opacity:1" />
  <path
     d="m 12.495882,16.533284 a 0.98526485,0.92342205 0 0 1 0,1.846845 0.98526485,0.92342205 0 1 1 0,-1.846845 z"
     id="path32-4"
     inkscape:connector-curvature="0"
     style="fill:#ffede0;stroke:#484848;stroke-width:1;stroke-linejoin:round;stroke-miterlimit:4;stroke-dasharray:none;stroke-opacity:1" />
  <rect
     transform="matrix(0,-1,1,0,0,0)"
     height="3.9761357"
     width="5.9874525"
     y="17.499128"
     x="-20.488094"
     id="rect30-2"
     style="fill:#ff7800;stroke:#484848;stroke-width:1;stroke-linejoin:round;stroke-miterlimit:4;stroke-dasharray:none;stroke-opacity:1" />
  <path
     d="m 19.487408,16.507861 a 0.98526485,0.92342205 0 0 1 0,1.846844 0.98526485,0.92342205 0 1 1 0,-1.846844 z"
     id="path32-0"
     inkscape:connector-curvature="0"
     style="fill:#ffede0;stroke:#484848;stroke-width:1;stroke-linejoin:round;stroke-miterlimit:4;stroke-dasharray:none;stroke-opacity:1" />
  <rect
     transform="matrix(0,-1,1,0,0,0)"
     height="3.9761357"
     width="5.9874525"
     y="3.5339792"
     x="-7.5303874"
     id="rect30-1"
     style="fill:#ff7800;stroke:#484848;stroke-width:1;stroke-linejoin:round;stroke-miterlimit:4;stroke-dasharray:none;stroke-opacity:1" />
  <path
     d="m 5.5222603,3.5501532 a 0.98526485,0.92342205 0 0 1 0,1.8468441 0.98526485,0.92342205 0 1 1 0,-1.8468441 z"
     id="path32-3"
     inkscape:connector-curvature="0"
     style="fill:#ffede0;stroke:#484848;stroke-width:1;stroke-linejoin:round;stroke-miterlimit:4;stroke-dasharray:none;stroke-opacity:1" />
  <rect
     transform="matrix(0,-1,1,0,0,0)"
     height="3.9761357"
     width="5.9874525"
     y="10.522747"
     x="-7.5415525"
     id="rect30-5-6"
     style="fill:#ff7800;stroke:#484848;stroke-width:1;stroke-linejoin:round;stroke-miterlimit:4;stroke-dasharray:none;stroke-opacity:1" />
  <path
     d="m 12.511028,3.5613187 a 0.98526485,0.92342205 0 0 1 0,1.8468441 0.98526485,0.92342205 0 1 1 0,-1.8468441 z"
     id="path32-4-0"
     inkscape:connector-curvature="0"
     style="fill:#ffede0;stroke:#484848;stroke-width:1;stroke-linejoin:round;stroke-miterlimit:4;stroke-dasharray:none;stroke-opacity:1" />
  <rect
     transform="matrix(0,-1,1,0,0,0)"
     height="3.9761357"
     width="5.9874525"
     y="17.514275"
     x="-7.516129"
     id="rect30-2-8"
     style="fill:#ff7800;stroke:#484848;stroke-width:1;stroke-linejoin:round;stroke-miterlimit:4;stroke-dasharray:none;stroke-opacity:1" />
  <path
     d="m 19.502554,3.535895 a 0.98526485,0.92342205 0 0 1 0,1.8468441 0.98526485,0.92342205 0 1 1 0,-1.8468441 z"
     id="path32-0-4"
     inkscape:connector-curvature="0"
     style="fill:#ffede0;stroke:#484848;stroke-width:1;stroke-linejoin:round;stroke-miterlimit:4;stroke-dasharray:none;stroke-opacity:1" />
</svg>
