<svg xmlns="http://www.w3.org/2000/svg" height="48" width="48" version="1.1">
 <path fill="#007d00" d="m4.87 3.4228v40.089h39.945l-18.42-21.731c-1.7948 2.6376-4.7629 4.4896-8.3105 4.4896-5.5605 0-10.073-4.2909-10.073-9.5778 0-5.287 4.5129-9.5778 10.073-9.5778 3.6797 0 6.7415 1.9856 8.4994 4.7889h3.5886l14.693 16.186c0.01408-1.6186-0.04718-15.141-0.05153-24.667z"/>
 <path fill="#007d00" d="m22.114 14.778 6.6833-0.000002 16.021 17.518c0.08857 1.7509 0.03074 2.5207 0.11262 7.4264l-18.044-21.113-4.7738-0.000002v-1.9156z"/>
 <path fill="#007d00" d="m18.084 10.946c-3.3363 0-6.044 2.5745-6.044 5.7467s2.7077 5.7467 6.044 5.7467 6.044-2.5745 6.044-5.7467-2.7077-5.7467-6.044-5.7467zm0 3.2838c1.4298 0 2.5903 1.1034 2.5903 2.4629s-1.1604 2.4629-2.5903 2.4629c-1.4298 0-2.5903-1.1034-2.5903-2.4629s1.1604-2.4629 2.5903-2.4629z"/>
</svg>
