<svg xmlns="http://www.w3.org/2000/svg" height="48" width="48" version="1.1">
 <defs>
  <linearGradient id="f" y2="5.5" gradientUnits="userSpaceOnUse" x2="1.0312" gradientTransform="matrix(1.9385,0,0,1.7906,-101.39,-12.363)" y1="9.4062" x1="4.9688">
   <stop stop-color="#afafff" offset="0"/>
   <stop stop-color="#fff" offset="1"/>
  </linearGradient>
  <filter id="d" height="1.2293" width="1.09" color-interpolation-filters="sRGB" y="-.11464" x="-.044985">
   <feGaussianBlur stdDeviation="0.68425161"/>
  </filter>
  <filter id="e" height="1.1071" width="1.2934" color-interpolation-filters="sRGB" y="-.053551" x="-.14671">
   <feGaussianBlur stdDeviation="0.77576414"/>
  </filter>
 </defs>
 <g transform="matrix(2.4566,0,0,2.2316,-37.589,-39.022)">
  <rect fill-opacity="0" height="16" width="16" y="0" x="0"/>
 </g>
 <g transform="matrix(.9966 0 0 1.0887 42.066 59.505)">
  <g opacity=".69531" filter="url(#d)">
   <g transform="matrix(-1,0,0,1,-101.77,-29.616)">
    <rect transform="rotate(-90)" height="23.582" width="3.5811" y="-90.407" x="-2.8595"/>
    <path d="m-95.576-6.0964c-4.2802 0-7.754 3.2087-7.754 7.1622s3.4738 7.1622 7.754 7.1622 7.754-3.2087 7.754-7.1622-3.4738-7.1622-7.754-7.1622z"/>
    <path d="m-95.576-2.5153c2.1401 0 3.877 1.6043 3.877 3.5811s-1.7369 3.5811-3.877 3.5811-3.877-1.6043-3.877-3.5811 1.7369-3.5811 3.877-3.5811z"/>
   </g>
  </g>
  <g opacity=".66016" font-family="Arial" font-size="18.731px" filter="url(#e)" font-weight="bold">
   <text style="word-spacing:0px;letter-spacing:0px" xml:space="preserve" transform="scale(1.0492 .9531)" line-height="125%" y="-35.033535" x="-26.868841"><tspan y="-35.033535" x="-26.868841">P</tspan></text>
   <text style="word-spacing:0px;letter-spacing:0px" xml:space="preserve" transform="scale(1.0492 .9531)" line-height="125%" y="-11.963096" x="-28.812323"><tspan y="-11.963096" x="-28.812323">1</tspan></text>
  </g>
  <g transform="matrix(2.4566,0,0,2.2316,-35.244,-45.716)">
   <rect fill-opacity="0" height="16" width="16" y="0" x="0"/>
  </g>
 </g>
 <g transform="matrix(2.6586,0,0,2.1996,5.9761,11.922)">
  <rect fill-opacity="0" height="16" width="16" y="0" x="0"/>
 </g>
 <g transform="matrix(.9966 0 0 1.0887 108.44 24.668)">
  <g transform="matrix(-1,0,0,1,-170.15,0)">
   <rect transform="rotate(-90)" height="23.582" width="3.5811" y="-90.407" x="-2.8595" fill="#d72e2e"/>
   <path fill="#d72e2e" d="m-95.576-6.0964c-4.2802 0-7.754 3.2087-7.754 7.1622s3.4738 7.1622 7.754 7.1622 7.754-3.2087 7.754-7.1622-3.4738-7.1622-7.754-7.1622z"/>
   <path fill="url(#f)" d="m-95.576-2.5153c2.1401 0 3.877 1.6043 3.877 3.5811s-1.7369 3.5811-3.877 3.5811-3.877-1.6043-3.877-3.5811 1.7369-3.5811 3.877-3.5811z"/>
  </g>
  <text style="word-spacing:0px;letter-spacing:0px" font-weight="bold" xml:space="preserve" transform="scale(1.0492 .9531)" line-height="125%" font-size="18.731px" y="-3.9598818" x="-92.042854" font-family="Arial" fill="#000000"><tspan y="-3.9598818" x="-92.042854">P</tspan></text>
  <text style="word-spacing:0px;letter-spacing:0px" font-weight="bold" xml:space="preserve" transform="scale(1.0492 .9531)" line-height="125%" font-size="18.731px" y="19.110556" x="-93.986336" font-family="Arial" fill="#000000"><tspan y="19.110556" x="-93.986336">1</tspan></text>
  <g transform="matrix(2.4566,0,0,2.2316,-105.97,-9.4053)">
   <rect fill-opacity="0" height="16" width="16" y="0" x="0"/>
  </g>
  <g transform="matrix(2.4566,0,0,2.2316,-103.63,-16.1)">
   <rect fill-opacity="0" height="16" width="16" y="0" x="0"/>
  </g>
 </g>
 <g transform="matrix(3.433,0,0,3.1874,27.729,23.386)">
  <path fill="#afaf00" d="m12 5.5-2.5174-1.3495-2.5388 1.3087 0.5056-2.8112-2.0292-2.0101 2.8298-0.3879 1.2847-2.551 1.2433 2.5714 2.823 0.43352-2.061 1.9771z" transform="matrix(.86499 0 0 .86499 3.3638 -4.5167)"/>
  <path fill="#ebeb00" d="m12 5.5-2.5174-1.3495-2.5388 1.3087 0.5056-2.8112-2.0292-2.0101 2.8298-0.3879 1.2847-2.551 1.2433 2.5714 2.823 0.43352-2.061 1.9771z" transform="matrix(.61624 0 0 .61624 5.7296 -4.1188)"/>
  <path fill="#ff0" d="m12 5.5-2.5174-1.3495-2.5388 1.3087 0.5056-2.8112-2.0292-2.0101 2.8298-0.3879 1.2847-2.551 1.2433 2.5714 2.823 0.43352-2.061 1.9771z" transform="matrix(.3815 0 0 .3815 7.9622 -3.7434)"/>
 </g>
</svg>
