<svg id="Слой_1" data-name="Слой 1"
  xmlns:cc="http://creativecommons.org/ns#"
  xmlns:rdf="http://www.w3.org/1999/02/22-rdf-syntax-ns#"
  xmlns="http://www.w3.org/2000/svg"
  xmlns:xlink="http://www.w3.org/1999/xlink" viewBox="0 0 26 26">
  <metadata id="metadata43">
    <rdf:RDF>
      <cc:Work rdf:about="">
        <cc:license rdf:resource="http://creativecommons.org/licenses/by/4.0/" />
      </cc:Work>
      <cc:License rdf:about="http://creativecommons.org/licenses/by/4.0/">
        <cc:permits rdf:resource="http://creativecommons.org/ns#Reproduction" />
        <cc:permits rdf:resource="http://creativecommons.org/ns#Distribution" />
        <cc:requires rdf:resource="http://creativecommons.org/ns#Notice" />
        <cc:requires rdf:resource="http://creativecommons.org/ns#Attribution" />
        <cc:permits rdf:resource="http://creativecommons.org/ns#DerivativeWorks" />
      </cc:License>
    </rdf:RDF>
  </metadata>
  <defs>
    <style>.cls-1,.cls-2,.cls-3{fill:none;stroke-linecap:round;stroke-linejoin:round;stroke-width:2px;}.cls-1{stroke:#545454;}.cls-2{stroke:url(#Безымянный_градиент_19);}.cls-3{stroke:url(#Безымянный_градиент_19-2);}.cls-4{fill:#1a81c4;}</style>
    <linearGradient id="Безымянный_градиент_19" x1="4" y1="3.2797" x2="4" y2="23" gradientUnits="userSpaceOnUse">
      <stop offset="0" stop-color="#ececec"/>
      <stop offset="1" stop-color="#c6c6c5"/>
    </linearGradient>
    <linearGradient id="Безымянный_градиент_19-2" x1="22.8125" y1="22" x2="3" y2="22" xlink:href="#Безымянный_градиент_19"/>
  </defs>
  <title>add_arc</title>
  <path class="cls-1" d="M4,4H4A18,18,0,0,1,22,22h0"/>
  <line class="cls-2" x1="4" y1="22" x2="4" y2="4.2797"/>
  <line class="cls-3" x1="21.8125" y1="22" x2="4" y2="22"/>
  <path class="cls-4" d="M25,22a3,3,0,1,1-3-3A3,3,0,0,1,25,22Z"/>
  <circle class="cls-4" cx="4" cy="22" r="2.9999"/>
  <path class="cls-4" d="M7,4A3,3,0,1,1,4,1,3,3,0,0,1,7,4Z"/>
</svg>