<?xml version="1.0" encoding="UTF-8" standalone="no"?>
<svg
   xmlns:dc="http://purl.org/dc/elements/1.1/"
   xmlns:cc="http://creativecommons.org/ns#"
   xmlns:rdf="http://www.w3.org/1999/02/22-rdf-syntax-ns#"
   xmlns:svg="http://www.w3.org/2000/svg"
   xmlns="http://www.w3.org/2000/svg"
   xmlns:sodipodi="http://sodipodi.sourceforge.net/DTD/sodipodi-0.dtd"
   xmlns:inkscape="http://www.inkscape.org/namespaces/inkscape"
   height="48"
   width="48"
   version="1.1"
   id="svg2"
   inkscape:version="0.47 r22583"
   sodipodi:docname="add_bus.svg">
  <metadata
     id="metadata29">
    <rdf:RDF>
      <cc:Work
         rdf:about="">
        <dc:format>image/svg+xml</dc:format>
        <dc:type
           rdf:resource="http://purl.org/dc/dcmitype/StillImage" />
        <dc:title></dc:title>
      </cc:Work>
    </rdf:RDF>
  </metadata>
  <sodipodi:namedview
     pagecolor="#ffffff"
     bordercolor="#666666"
     borderopacity="1"
     objecttolerance="10"
     gridtolerance="10"
     guidetolerance="10"
     inkscape:pageopacity="0"
     inkscape:pageshadow="2"
     inkscape:window-width="1059"
     inkscape:window-height="817"
     id="namedview27"
     showgrid="false"
     inkscape:zoom="4.9166667"
     inkscape:cx="-12.610169"
     inkscape:cy="23.59322"
     inkscape:window-x="0"
     inkscape:window-y="25"
     inkscape:window-maximized="0"
     inkscape:current-layer="svg2" />
  <defs
     id="defs4">
    <inkscape:perspective
       sodipodi:type="inkscape:persp3d"
       inkscape:vp_x="0 : 24 : 1"
       inkscape:vp_y="0 : 1000 : 0"
       inkscape:vp_z="48 : 24 : 1"
       inkscape:persp3d-origin="24 : 16 : 1"
       id="perspective31" />
    <filter
       id="a"
       color-interpolation-filters="sRGB">
      <feGaussianBlur
         stdDeviation="0.32744172"
         id="feGaussianBlur7" />
    </filter>
  </defs>
  <rect
     fill-opacity="0"
     height="16"
     width="16"
     y="34.75"
     x="30.172"
     id="rect9" />
  <path
     opacity=".33203"
     d="m-1.2075 3.4073h4.5166v7.8427h6.6011v2.1389h-8.6857v-7.843h-2.432v-2.1389z"
     transform="matrix(3.5694,0,0,2.9883,9.5784,4.8181)"
     filter="url(#a)"
     id="path11" />
  <path
     fill="#000069"
     d="m5 11h15.966v23.105h23.335v6.3013h-30.704v-23.105h-8.5972v-6.301z"
     id="path13"
     style="fill:#2c2cff;fill-opacity:1" />
  <g
     transform="translate(33.3,1.5)"
     id="g15">
    <path
       fill="#afaf00"
       d="m42.9 21.863-7.476-3.721-7.539 3.609 1.501-7.751-6.025-5.5421l8.403-1.0694 3.815-7.0333 3.692 7.0895 8.3835 1.1952-6.1213 5.4511z"
       id="path17" />
    <path
       fill="#ebeb00"
       d="m40.774 18.77-5.3257-2.6507-5.3711 2.5705 1.0695-5.5217-4.2929-3.9483 5.9867-0.76192 2.7179-5.0107 2.6305 5.0508 5.9726 0.85151-4.361 3.8835z"
       id="path19" />
    <path
       fill="#ff0"
       d="m38.768 15.852-3.297-1.6409-3.3251 1.5913 0.6621-3.4183-2.6576-2.4443 3.7062-0.47168 1.6826-3.102 1.6284 3.1268 3.6975 0.52715-2.6997 2.4041z"
       id="path21" />
  </g>
  <rect
     fill-opacity="0"
     height="16"
     width="16"
     y="33.25"
     x="1.5"
     id="rect23" />
  <rect
     fill-opacity="0"
     height="16"
     width="16"
     y="36.25"
     x="7.9217"
     id="rect25" />
</svg>
