<svg id="Слой_1" data-name="Слой 1"
  xmlns:dc="http://purl.org/dc/elements/1.1/"
  xmlns:cc="http://creativecommons.org/ns#"
  xmlns:rdf="http://www.w3.org/1999/02/22-rdf-syntax-ns#"
  xmlns="http://www.w3.org/2000/svg" viewBox="0 0 26 26">
  <metadata id="metadata43">
    <rdf:RDF>
      <cc:Work rdf:about="">
        <cc:license rdf:resource="http://creativecommons.org/licenses/by-sa/4.0/" />
        <dc:format>image/svg+xml</dc:format>
        <dc:type rdf:resource="http://purl.org/dc/dcmitype/StillImage" />
        <dc:title>add_arc</dc:title>
      </cc:Work>
      <cc:License rdf:about="http://creativecommons.org/licenses/by-sa/4.0/">
        <cc:permits rdf:resource="http://creativecommons.org/ns#Reproduction" />
        <cc:permits rdf:resource="http://creativecommons.org/ns#Distribution" />
        <cc:requires rdf:resource="http://creativecommons.org/ns#Notice" />
        <cc:requires rdf:resource="http://creativecommons.org/ns#Attribution" />
        <cc:permits rdf:resource="http://creativecommons.org/ns#DerivativeWorks" />
        <cc:requires rdf:resource="http://creativecommons.org/ns#ShareAlike" />
      </cc:License>
    </rdf:RDF>
  </metadata>
  <defs>
    <style>.cls-1{fill:#b9b9b9;}.cls-2{fill:none;stroke:#545454;stroke-linecap:round;stroke-linejoin:round;stroke-width:2px;}.cls-3{fill:#1a81c4;}</style>
  </defs>
  <title>add_zone_cutout</title>
  <path class="cls-1" d="M21,1H5A4,4,0,0,0,1,5V21a4,4,0,0,0,4,4H21a4,4,0,0,0,4-4V5A4,4,0,0,0,21,1Zm-.7713,18.6434L7.1714,19.651,6.4579,6.61l11.448-.261-.4928-.0418Z"/>
  <polyline class="cls-2" points="18.669 20.068 6.045 20.068 6.045 6.096 16.148 6.096"/>
  <path class="cls-3" d="M9.0051,6.0251a3,3,0,1,1-3-3A3,3,0,0,1,9.0051,6.0251Z"/>
  <path class="cls-3" d="M9.0051,19.9894a3,3,0,1,1-3-3A3,3,0,0,1,9.0051,19.9894Z"/>
  <path class="cls-3" d="M23.0155,19.9894a3,3,0,1,1-3-3A3,3,0,0,1,23.0155,19.9894Z"/>
  <path class="cls-3" d="M20.1061,6.0251a3,3,0,1,1-3-3A3,3,0,0,1,20.1061,6.0251Z"/>
</svg>