<?xml version="1.0" encoding="UTF-8" standalone="no"?>
<svg
   xmlns:dc="http://purl.org/dc/elements/1.1/"
   xmlns:cc="http://creativecommons.org/ns#"
   xmlns:rdf="http://www.w3.org/1999/02/22-rdf-syntax-ns#"
   xmlns:svg="http://www.w3.org/2000/svg"
   xmlns="http://www.w3.org/2000/svg"
   xmlns:xlink="http://www.w3.org/1999/xlink"
   xmlns:sodipodi="http://sodipodi.sourceforge.net/DTD/sodipodi-0.dtd"
   xmlns:inkscape="http://www.inkscape.org/namespaces/inkscape"
   height="48"
   width="48"
   version="1.1"
   id="svg2"
   inkscape:version="0.47 r22583"
   sodipodi:docname="add_rectangle.svg">
  <metadata
     id="metadata50">
    <rdf:RDF>
      <cc:Work
         rdf:about="">
        <dc:format>image/svg+xml</dc:format>
        <dc:type
           rdf:resource="http://purl.org/dc/dcmitype/StillImage" />
        <dc:title></dc:title>
      </cc:Work>
    </rdf:RDF>
  </metadata>
  <sodipodi:namedview
     pagecolor="#ffffff"
     bordercolor="#666666"
     borderopacity="1"
     objecttolerance="10"
     gridtolerance="10"
     guidetolerance="10"
     inkscape:pageopacity="0"
     inkscape:pageshadow="2"
     inkscape:window-width="1280"
     inkscape:window-height="949"
     id="namedview48"
     showgrid="false"
     inkscape:zoom="4.9166667"
     inkscape:cx="-12.610169"
     inkscape:cy="23.59322"
     inkscape:window-x="0"
     inkscape:window-y="25"
     inkscape:window-maximized="1"
     inkscape:current-layer="svg2" />
  <defs
     id="defs4">
    <linearGradient
       id="a"
       y2="4.6406"
       gradientUnits="userSpaceOnUse"
       x2="6.0964"
       y1="8.6836"
       x1="8.9893">
      <stop
         stop-color="#ff7800"
         offset="0"
         id="stop7" />
      <stop
         stop-color="#fff"
         offset="1"
         id="stop9" />
    </linearGradient>
    <filter
       id="b"
       color-interpolation-filters="sRGB">
      <feGaussianBlur
         stdDeviation="1.7161664"
         id="feGaussianBlur12" />
    </filter>
    <linearGradient
       inkscape:collect="always"
       xlink:href="#a"
       id="linearGradient2862"
       gradientUnits="userSpaceOnUse"
       x1="8.9893"
       y1="8.6836"
       x2="6.0964"
       y2="4.6406" />
    <linearGradient
       inkscape:collect="always"
       xlink:href="#a"
       id="linearGradient2864"
       gradientUnits="userSpaceOnUse"
       x1="8.9893"
       y1="8.6836"
       x2="6.0964"
       y2="4.6406" />
    <linearGradient
       inkscape:collect="always"
       xlink:href="#a"
       id="linearGradient2867"
       gradientUnits="userSpaceOnUse"
       x1="8.9893"
       y1="8.6836"
       x2="6.0964"
       y2="4.6406"
       gradientTransform="matrix(1.5051482,0,0,1.3223114,24.652494,26.416551)" />
    <linearGradient
       inkscape:collect="always"
       xlink:href="#a"
       id="linearGradient2871"
       gradientUnits="userSpaceOnUse"
       x1="8.9893"
       y1="8.6836"
       x2="6.0964"
       y2="4.6406"
       gradientTransform="matrix(1.5051482,0,0,1.3223114,-5.15204,0.2345328)" />
  </defs>
  <g
     opacity=".30078"
     filter="url(#b)"
     transform="matrix(.8336 0 0 .7901 -68.84 -23.728)"
     id="g14">
    <path
       d="m96.125 43.619-3.25 3.0125v33.138l3.25 3.0125h35.75l3.25-3.0125v-33.138l-3.25-3.0125h-35.75zm3.25 6.025h29.25v27.113h-29.235v-27.113z"
       id="path16" />
    <path
       d="m10.5 6.75a2.25 2.25 0 1 1 -4.5 0 2.25 2.25 0 1 1 4.5 0z"
       transform="matrix(2.8889,0,0,2.6778,72.292,28.556)"
       id="path18" />
    <path
       d="m10.5 6.75a2.25 2.25 0 1 1 -4.5 0 2.25 2.25 0 1 1 4.5 0z"
       transform="matrix(1.8056,0,0,1.6736,81.229,35.334)"
       id="path20" />
    <path
       d="m10.5 6.75a2.25 2.25 0 1 1 -4.5 0 2.25 2.25 0 1 1 4.5 0z"
       transform="matrix(2.8889,0,0,2.6778,108.04,61.694)"
       id="path22" />
    <path
       d="m10.5 6.75a2.25 2.25 0 1 1 -4.5 0 2.25 2.25 0 1 1 4.5 0z"
       transform="matrix(1.8056,0,0,1.6736,116.98,68.472)"
       id="path24" />
  </g>
  <path
     style="fill:#2c2cff;fill-opacity:1"
     id="path28"
     d="m 7.2686,6.7797212 -2.7092,2.3801762 0,26.1823336 2.7092,2.380176 29.8012,0 2.7092,-2.380176 0,-26.1823336 -2.7092,-2.3801762 -29.8012,0 z m 2.7092,4.7603528 24.3828,0 0,21.421981 -24.3828,0 0,-21.421981 z" />
  <path
     id="path30"
     d="m 12.689875,9.1604112 a 5.4184207,4.760392 0 0 1 -10.836841,0 5.4184207,4.760392 0 1 1 10.836841,0 z" />
  <path
     style="fill:url(#linearGradient2871)"
     id="path32"
     d="m 10.652016,9.1601348 a 3.3865835,2.9752007 0 0 1 -6.7731668,0 3.3865835,2.9752007 0 1 1 6.7731668,0 z" />
  <path
     id="path34"
     d="m 42.488574,35.342342 a 5.4184207,4.760392 0 0 1 -10.836841,0 5.4184207,4.760392 0 1 1 10.836841,0 z" />
  <path
     style="fill:url(#linearGradient2867)"
     id="path36"
     d="m 40.45655,35.342153 a 3.3865835,2.9752007 0 0 1 -6.773167,0 3.3865835,2.9752007 0 1 1 6.773167,0 z" />
  <g
     transform="matrix(2.4566,0,0,2.2316,-37.589,-39.022)"
     id="g38">
    <rect
       fill-opacity="0"
       height="16"
       width="16"
       y="0"
       x="0"
       id="rect40" />
  </g>
  <g
     transform="matrix(2.9379,0,0,2.1996,1.5067,11.922)"
     id="g42">
    <rect
       fill-opacity="0"
       height="16"
       width="16"
       y="0"
       x="0"
       id="rect44" />
  </g>
  <rect
     fill-opacity="0"
     height="38.871"
     width="43.287"
     y="-47.036"
     x="-74.787"
     id="rect46" />
</svg>
