<?xml version="1.0" encoding="UTF-8" standalone="no"?>
<svg
   xmlns:dc="http://purl.org/dc/elements/1.1/"
   xmlns:cc="http://creativecommons.org/ns#"
   xmlns:rdf="http://www.w3.org/1999/02/22-rdf-syntax-ns#"
   xmlns:svg="http://www.w3.org/2000/svg"
   xmlns="http://www.w3.org/2000/svg"
   xmlns:sodipodi="http://sodipodi.sourceforge.net/DTD/sodipodi-0.dtd"
   xmlns:inkscape="http://www.inkscape.org/namespaces/inkscape"
   height="26"
   width="26"
   version="1.1"
   id="svg2"
   inkscape:version="0.48.2 r9819"
   sodipodi:docname="add_junction.svg">
  <metadata
     id="metadata54">
    <rdf:RDF>
      <cc:Work
         rdf:about="">
        <dc:format>image/svg+xml</dc:format>
        <dc:type
           rdf:resource="http://purl.org/dc/dcmitype/StillImage" />
      </cc:Work>
    </rdf:RDF>
  </metadata>
  <sodipodi:namedview
     pagecolor="#ffffff"
     bordercolor="#666666"
     borderopacity="1"
     objecttolerance="10"
     gridtolerance="10"
     guidetolerance="10"
     inkscape:pageopacity="0"
     inkscape:pageshadow="2"
     inkscape:window-width="1280"
     inkscape:window-height="941"
     id="namedview52"
     showgrid="true"
     inkscape:zoom="19.666667"
     inkscape:cx="-2.1923002"
     inkscape:cy="10.361289"
     inkscape:window-x="0"
     inkscape:window-y="30"
     inkscape:window-maximized="1"
     inkscape:current-layer="svg2"
     inkscape:snap-grids="false"
     inkscape:snap-to-guides="false">
    <inkscape:grid
       type="xygrid"
       id="grid2837"
       empspacing="5"
       visible="true"
       enabled="true"
       snapvisiblegridlinesonly="true" />
  </sodipodi:namedview>
  <defs
     id="defs4">
    <filter
       id="c"
       color-interpolation-filters="sRGB">
      <feGaussianBlur
         stdDeviation="0.69535627"
         id="feGaussianBlur12" />
    </filter>
    <filter
       id="c-1"
       color-interpolation-filters="sRGB">
      <feGaussianBlur
         stdDeviation="0.69535627"
         id="feGaussianBlur12-8" />
    </filter>
    <filter
       inkscape:collect="always"
       id="filter3660">
      <feGaussianBlur
         inkscape:collect="always"
         stdDeviation="0.54112259"
         id="feGaussianBlur3662" />
    </filter>
  </defs>
  <g
     id="g3654"
     transform="matrix(0.98929803,0,0,0.9588585,-18.379466,-27.788064)"
     style="opacity:0.48373988;filter:url(#filter3660)">
    <path
       transform="matrix(0.58304281,0,0,0.55020984,88.293773,44.817991)"
       id="path32-7"
       d="m -88.8,-6.6671 c -2.3569,0 -4.2698,1.7466 -4.2698,3.8987 0,2.1521 1.9129,3.8987 4.2698,3.8987 2.3569,0 4.2698,-1.7466 4.2698,-3.8987 0,-2.1521 -1.9129,-3.8987 -4.2698,-3.8987 z"
       style="opacity:0.71094001;fill:#000000;fill-opacity:1;filter:url(#c-1)"
       inkscape:connector-curvature="0" />
    <rect
       transform="scale(1,-1)"
       height="24"
       width="3"
       y="-55"
       x="34.85955"
       id="rect34-9"
       style="fill:#000000;fill-opacity:1" />
    <rect
       transform="matrix(0,-1,-1,0,0,0)"
       height="17.178312"
       width="3"
       y="-38.178314"
       x="-44.012604"
       id="rect36-1"
       style="fill:#000000;fill-opacity:1" />
    <path
       d="m 36.359553,36.784272 c 3.165126,0 5.733998,2.566301 5.733998,5.728333 0,3.162033 -2.568804,5.728332 -5.733998,5.728332 -3.165128,0 -5.733999,-2.566299 -5.733999,-5.728332 0,-3.162032 2.568804,-5.728333 5.733999,-5.728333 z"
       id="path38-0"
       style="fill:#000000;fill-opacity:1;stroke:#000000;stroke-width:1;stroke-miterlimit:4;stroke-opacity:1;stroke-dasharray:none"
       inkscape:connector-curvature="0" />
  </g>
  <g
     transform="matrix(2.4566,0,0,2.2316,-37.589,-61.022)"
     id="g14">
    <rect
       height="16"
       width="16"
       y="0"
       x="0"
       id="rect16"
       style="fill-opacity:0" />
  </g>
  <g
     transform="matrix(1.4086525,0,0,0.97671012,2.7780007,6.5564801)"
     id="g18">
    <rect
       height="16"
       width="16"
       y="0"
       x="0"
       id="rect20"
       style="fill-opacity:0" />
  </g>
  <path
     style="opacity:0.71094001;filter:url(#c)"
     d="m -88.8,-6.6671 c -2.3569,0 -4.2698,1.7466 -4.2698,3.8987 0,2.1521 1.9129,3.8987 4.2698,3.8987 2.3569,0 4.2698,-1.7466 4.2698,-3.8987 0,-2.1521 -1.9129,-3.8987 -4.2698,-3.8987 z"
     id="path32"
     transform="matrix(0.58304281,0,0,0.55020984,68.293773,14.817991)" />
  <rect
     style="fill:#007d00;fill-opacity:1"
     id="rect34"
     x="15.00337"
     y="-24"
     width="3"
     height="23"
     transform="scale(1,-1)" />
  <rect
     style="fill:#007d00;fill-opacity:1"
     id="rect36"
     x="-14.012605"
     y="-18.178312"
     width="3"
     height="17.178312"
     transform="matrix(0,-1,-1,0,0,0)" />
  <path
     style="fill:#007d00;fill-opacity:1;stroke:#004300;stroke-width:1.03875768;stroke-miterlimit:4;stroke-opacity:1;stroke-dasharray:none"
     id="path38"
     d="m 16.512096,6.5748377 c 3.294766,0 5.968855,2.6601276 5.968855,5.9377673 0,3.27764 -2.674019,5.937767 -5.968855,5.937767 -3.294769,0 -5.968858,-2.660127 -5.968858,-5.937767 0,-3.2776397 2.674019,-5.9377673 5.968858,-5.9377673 z" />
  <rect
     height="38.870998"
     width="43.286999"
     y="-69.035995"
     x="-74.787003"
     id="rect50"
     style="fill-opacity:0" />
</svg>
