<?xml version="1.0" encoding="UTF-8" standalone="no"?>
<svg
   xmlns:dc="http://purl.org/dc/elements/1.1/"
   xmlns:cc="http://creativecommons.org/ns#"
   xmlns:rdf="http://www.w3.org/1999/02/22-rdf-syntax-ns#"
   xmlns:svg="http://www.w3.org/2000/svg"
   xmlns="http://www.w3.org/2000/svg"
   xmlns:xlink="http://www.w3.org/1999/xlink"
   xmlns:sodipodi="http://sodipodi.sourceforge.net/DTD/sodipodi-0.dtd"
   xmlns:inkscape="http://www.inkscape.org/namespaces/inkscape"
   height="48"
   width="48"
   version="1.1"
   id="svg2"
   inkscape:version="0.48.2 r9819"
   sodipodi:docname="add_hierar_pin.svg">
  <metadata
     id="metadata148">
    <rdf:RDF>
      <cc:Work
         rdf:about="">
        <dc:format>image/svg+xml</dc:format>
        <dc:type
           rdf:resource="http://purl.org/dc/dcmitype/StillImage" />
        <dc:title />
      </cc:Work>
    </rdf:RDF>
  </metadata>
  <sodipodi:namedview
     pagecolor="#ffffff"
     bordercolor="#666666"
     borderopacity="1"
     objecttolerance="10"
     gridtolerance="10"
     guidetolerance="10"
     inkscape:pageopacity="0"
     inkscape:pageshadow="2"
     inkscape:window-width="1280"
     inkscape:window-height="941"
     id="namedview146"
     showgrid="false"
     inkscape:zoom="9.8333333"
     inkscape:cx="18.920277"
     inkscape:cy="26.743859"
     inkscape:window-x="0"
     inkscape:window-y="30"
     inkscape:window-maximized="1"
     inkscape:current-layer="svg2" />
  <defs
     id="defs4">
    <filter
       id="p"
       color-interpolation-filters="sRGB">
      <feGaussianBlur
         stdDeviation="0.27692308"
         id="feGaussianBlur7" />
    </filter>
    <filter
       id="q"
       height="1.2466"
       width="1.1726"
       color-interpolation-filters="sRGB"
       y="-.1233"
       x="-.086308">
      <feGaussianBlur
         stdDeviation="0.35961538"
         id="feGaussianBlur10" />
    </filter>
    <filter
       id="r"
       height="2.1508"
       width="1.1114"
       color-interpolation-filters="sRGB"
       y="-.57538"
       x="-.055682">
      <feGaussianBlur
         stdDeviation="0.35961538"
         id="feGaussianBlur13" />
    </filter>
    <filter
       id="k"
       color-interpolation-filters="sRGB">
      <feGaussianBlur
         stdDeviation="0.89955545"
         id="feGaussianBlur16" />
    </filter>
    <filter
       id="l"
       color-interpolation-filters="sRGB">
      <feGaussianBlur
         stdDeviation="1.2065414"
         id="feGaussianBlur19" />
    </filter>
    <radialGradient
       id="n"
       gradientUnits="userSpaceOnUse"
       cy="112.3"
       cx="102"
       gradientTransform="matrix(.875 0 0 .85714 10 17.143)"
       r="139.56">
      <stop
         stop-color="#00537d"
         offset="0"
         id="stop22" />
      <stop
         stop-color="#186389"
         offset=".0151"
         id="stop24" />
      <stop
         stop-color="#558ca8"
         offset=".0558"
         id="stop26" />
      <stop
         stop-color="#89afc3"
         offset=".0964"
         id="stop28" />
      <stop
         stop-color="#b3ccd8"
         offset=".1357"
         id="stop30" />
      <stop
         stop-color="#d4e2e9"
         offset=".1737"
         id="stop32" />
      <stop
         stop-color="#ecf2f5"
         offset=".20990"
         id="stop34" />
      <stop
         stop-color="#fafcfd"
         offset=".24350"
         id="stop36" />
      <stop
         stop-color="#fff"
         offset=".27220"
         id="stop38" />
    </radialGradient>
    <radialGradient
       id="o"
       gradientUnits="userSpaceOnUse"
       cy="109.33"
       cx="99.081"
       gradientTransform="matrix(.85638 0 0 .84156 11.191 18.14)"
       r="139.56">
      <stop
         stop-color="#7a7d80"
         offset="0"
         id="stop41" />
      <stop
         stop-color="#c2c2c2"
         offset=".12618"
         id="stop43" />
      <stop
         stop-color="#fafafa"
         offset=".23251"
         id="stop45" />
      <stop
         stop-color="#fff"
         offset=".27220"
         id="stop47" />
      <stop
         stop-color="#fafafa"
         offset=".53130"
         id="stop49" />
      <stop
         stop-color="#ebecec"
         offset=".84490"
         id="stop51" />
      <stop
         stop-color="#e1e2e3"
         offset="1"
         id="stop53" />
    </radialGradient>
    <linearGradient
       id="m"
       y2="94.104"
       gradientUnits="userSpaceOnUse"
       x2="86.572"
       gradientTransform="matrix(.875 0 0 .85714 10 17.143)"
       y1="104"
       x1="96">
      <stop
         stop-color="#888a85"
         offset="0"
         id="stop56" />
      <stop
         stop-color="#8c8e89"
         offset=".0072"
         id="stop58" />
      <stop
         stop-color="#abaca9"
         offset=".0673"
         id="stop60" />
      <stop
         stop-color="#c5c6c4"
         offset=".1347"
         id="stop62" />
      <stop
         stop-color="#dbdbda"
         offset=".2115"
         id="stop64" />
      <stop
         stop-color="#ebebeb"
         offset=".3012"
         id="stop66" />
      <stop
         stop-color="#f7f7f6"
         offset=".4122"
         id="stop68" />
      <stop
         stop-color="#fdfdfd"
         offset=".5679"
         id="stop70" />
      <stop
         stop-color="#fff"
         offset="1"
         id="stop72" />
    </linearGradient>
    <linearGradient
       id="t"
       y2="12.267"
       gradientUnits="userSpaceOnUse"
       x2="6.0408"
       gradientTransform="matrix(1.2247 0 0 .8165 -61.732 9.7935)"
       y1="17.051"
       x1="11.431">
      <stop
         stop-color="#8787ff"
         offset="0"
         id="stop75" />
      <stop
         stop-color="#fff"
         offset="1"
         id="stop77" />
    </linearGradient>
  </defs>
  <g
     transform="matrix(.35996 0 0 .33328 .93206 2.9203)"
     id="g85">
    <use
       xlink:href="#s"
       transform="translate(-12,-12)"
       height="128"
       width="128"
       y="0"
       x="0"
       id="use87" />
    <g
       id="s"
       transform="translate(-4,-8)">
      <path
         opacity=".6"
         d="m23 25v96h53.525c0.464 0 30.475-29.398 30.475-29.853v-66.147h-84z"
         transform="matrix(1.0476,0,0,1.0417,-2.0952,-4.0417)"
         filter="url(#k)"
         id="path90" />
      <path
         fill="url(#n)"
         d="m24 24v96h53.525c0.464 0 30.475-29.398 30.475-29.853v-66.147h-84z"
         id="path92" />
      <path
         fill="url(#o)"
         d="m26.606 25.714c-0.47187 0-0.85638 0.37786-0.85638 0.84156v90.888c0 0.46455 0.38452 0.84157 0.85638 0.84157h50.674c0.22523 0 0.44618-0.0892 0.60546-0.24658l28.115-27.618c0.16013-0.15737 0.25092-0.37365 0.25092-0.59498v-63.262c0-0.4637-0.38366-0.84156-0.85639-0.84156h-78.787z"
         id="path94" />
      <path
         opacity=".5"
         filter="url(#l)"
         d="m76.526 120s11.662-9 16.474-13.714c4.812-4.72 14-16.143 14-16.143s-8 5.853-24 5.853c0 16-6.4745 24-6.4745 24z"
         id="path96" />
      <path
         fill="url(#m)"
         d="m77.526 120s11.662-9 16.474-13.714c4.812-4.72 14-16.143 14-16.143s-8 5.853-24 5.853c0 16-6.4745 24-6.4745 24z"
         id="path98" />
    </g>
    <g
       transform="translate(8,4)"
       id="g100">
      <path
         opacity=".6"
         d="m23 25v96h53.525c0.464 0 30.475-29.398 30.475-29.853v-66.147h-84z"
         transform="matrix(1.0476,0,0,1.0417,-2.0952,-4.0417)"
         filter="url(#k)"
         id="path102" />
      <path
         fill="url(#n)"
         d="m24 24v96h53.525c0.464 0 30.475-29.398 30.475-29.853v-66.147h-84z"
         id="path104" />
      <path
         fill="url(#o)"
         d="m26.606 25.714c-0.47187 0-0.85638 0.37786-0.85638 0.84156v90.888c0 0.46455 0.38452 0.84157 0.85638 0.84157h50.674c0.22523 0 0.44618-0.0892 0.60546-0.24658l28.115-27.618c0.16013-0.15737 0.25092-0.37365 0.25092-0.59498v-63.262c0-0.4637-0.38366-0.84156-0.85639-0.84156h-78.787z"
         id="path106" />
      <path
         opacity=".5"
         filter="url(#l)"
         d="m76.526 120s11.662-9 16.474-13.714c4.812-4.72 14-16.143 14-16.143s-8 5.853-24 5.853c0 16-6.4745 24-6.4745 24z"
         id="path108" />
      <path
         fill="url(#m)"
         d="m77.526 120s11.662-9 16.474-13.714c4.812-4.72 14-16.143 14-16.143s-8 5.853-24 5.853c0 16-6.4745 24-6.4745 24z"
         id="path110" />
    </g>
  </g>
  <g
     transform="matrix(.6436 0 0 .7523 -73.884 9.901)"
     id="g120">
    <g
       transform="matrix(2.9379,0,0,2.1996,138.01,18.222)"
       id="g122">
      <rect
         fill-opacity="0"
         height="16"
         width="16"
         y="0"
         x="0"
         id="rect124" />
    </g>
    <g
       transform="matrix(2.9804,0,0,2.6654,320.95,-16.41)"
       id="g126">
      <rect
         opacity=".71484"
         transform="matrix(.43925 0 0 1 -61.451 9.7935)"
         height="1.5"
         filter="url(#r)"
         width="15.5"
         y="12"
         x=".5"
         fill="#9b9b9b"
         id="rect128" />
      <rect
         height="1.5332"
         width="14.35"
         y="20.56"
         x="-61.732"
         fill="#009b00"
         id="rect130" />
      <path
         opacity=".70703"
         d="m-45.932 18.743h-7l-3 3.5 3 3.5h7v-7z"
         fill-rule="evenodd"
         filter="url(#q)"
         fill="#9b9b9b"
         id="path132" />
      <path
         opacity=".77734"
         d="m7 7.5-0.5 1.5h-2l3-8h2l3 8h-2l-0.5-1.5m-0.5-1.5-0.9121-2.9492-1.0879 2.9492"
         transform="matrix(.89817 0 0 .87673 -61.641 9.6348)"
         filter="url(#p)"
         fill="#9b9b9b"
         id="path134" />
      <path
         d="m-56.403 15.887-0.46562 1.4062h-1.8625l2.7938-7.5h1.8625l2.7938 7.5h-1.8625l-0.46562-1.4062m-0.46562-1.4062-0.8494-2.7649-1.0131 2.7649"
         id="path136" />
      <path
         fill-rule="evenodd"
         fill="#6f6500"
         d="m-46.732 17.793h-7l-3 3.5 3 3.5h7v-7z"
         id="path138" />
      <path
         fill-rule="evenodd"
         fill="url(#t)"
         d="m-47.732 18.793h-5.5l-2 2.5 2 2.5h5.5v-5z"
         id="path140" />
      <g
         transform="translate(-61.732,9.7935)"
         id="g142">
        <rect
           fill-opacity="0"
           height="16"
           width="16"
           y="0"
           x="0"
           id="rect144" />
      </g>
    </g>
  </g>
</svg>
