<svg xmlns="http://www.w3.org/2000/svg" height="48" width="48" version="1.1" xmlns:xlink="http://www.w3.org/1999/xlink">
 <defs>
  <filter id="p" color-interpolation-filters="sRGB">
   <feGaussianBlur stdDeviation="0.27692308"/>
  </filter>
  <filter id="q" height="1.2466" width="1.1726" color-interpolation-filters="sRGB" y="-.1233" x="-.086308">
   <feGaussianBlur stdDeviation="0.35961538"/>
  </filter>
  <filter id="r" height="2.1508" width="1.1114" color-interpolation-filters="sRGB" y="-.57538" x="-.055682">
   <feGaussianBlur stdDeviation="0.35961538"/>
  </filter>
  <filter id="k" color-interpolation-filters="sRGB">
   <feGaussianBlur stdDeviation="0.89955545"/>
  </filter>
  <filter id="l" color-interpolation-filters="sRGB">
   <feGaussianBlur stdDeviation="1.2065414"/>
  </filter>
  <radialGradient id="n" gradientUnits="userSpaceOnUse" cy="112.3" cx="102" gradientTransform="matrix(.875 0 0 .85714 10 17.143)" r="139.56">
   <stop stop-color="#00537d" offset="0"/>
   <stop stop-color="#186389" offset=".0151"/>
   <stop stop-color="#558ca8" offset=".0558"/>
   <stop stop-color="#89afc3" offset=".0964"/>
   <stop stop-color="#b3ccd8" offset=".1357"/>
   <stop stop-color="#d4e2e9" offset=".1737"/>
   <stop stop-color="#ecf2f5" offset=".20990"/>
   <stop stop-color="#fafcfd" offset=".24350"/>
   <stop stop-color="#fff" offset=".27220"/>
  </radialGradient>
  <radialGradient id="o" gradientUnits="userSpaceOnUse" cy="109.33" cx="99.081" gradientTransform="matrix(.85638 0 0 .84156 11.191 18.14)" r="139.56">
   <stop stop-color="#7a7d80" offset="0"/>
   <stop stop-color="#c2c2c2" offset=".12618"/>
   <stop stop-color="#fafafa" offset=".23251"/>
   <stop stop-color="#fff" offset=".27220"/>
   <stop stop-color="#fafafa" offset=".53130"/>
   <stop stop-color="#ebecec" offset=".84490"/>
   <stop stop-color="#e1e2e3" offset="1"/>
  </radialGradient>
  <linearGradient id="m" y2="94.104" gradientUnits="userSpaceOnUse" x2="86.572" gradientTransform="matrix(.875 0 0 .85714 10 17.143)" y1="104" x1="96">
   <stop stop-color="#888a85" offset="0"/>
   <stop stop-color="#8c8e89" offset=".0072"/>
   <stop stop-color="#abaca9" offset=".0673"/>
   <stop stop-color="#c5c6c4" offset=".1347"/>
   <stop stop-color="#dbdbda" offset=".2115"/>
   <stop stop-color="#ebebeb" offset=".3012"/>
   <stop stop-color="#f7f7f6" offset=".4122"/>
   <stop stop-color="#fdfdfd" offset=".5679"/>
   <stop stop-color="#fff" offset="1"/>
  </linearGradient>
  <linearGradient id="t" y2="12.267" gradientUnits="userSpaceOnUse" x2="6.0408" gradientTransform="matrix(1.2247 0 0 .8165 -61.732 9.7935)" y1="17.051" x1="11.431">
   <stop stop-color="#8787ff" offset="0"/>
   <stop stop-color="#fff" offset="1"/>
  </linearGradient>
 </defs>
 <g transform="matrix(2.4566,0,0,2.2316,-37.589,-39.022)">
  <rect fill-opacity="0" height="16" width="16" y="0" x="0"/>
 </g>
 <rect fill-opacity="0" height="38.871" width="43.287" y="-47.036" x="-74.787"/>
 <g transform="matrix(.35996 0 0 .33328 .93206 2.9203)">
  <use xlink:href="#s" transform="translate(-12,-12)" height="128" width="128" y="0" x="0"/>
  <g id="s" transform="translate(-4,-8)">
   <path opacity=".6" d="m23 25v96h53.525c0.464 0 30.475-29.398 30.475-29.853v-66.147h-84z" transform="matrix(1.0476,0,0,1.0417,-2.0952,-4.0417)" filter="url(#k)"/>
   <path fill="url(#n)" d="m24 24v96h53.525c0.464 0 30.475-29.398 30.475-29.853v-66.147h-84z"/>
   <path fill="url(#o)" d="m26.606 25.714c-0.47187 0-0.85638 0.37786-0.85638 0.84156v90.888c0 0.46455 0.38452 0.84157 0.85638 0.84157h50.674c0.22523 0 0.44618-0.0892 0.60546-0.24658l28.115-27.618c0.16013-0.15737 0.25092-0.37365 0.25092-0.59498v-63.262c0-0.4637-0.38366-0.84156-0.85639-0.84156h-78.787z"/>
   <path opacity=".5" filter="url(#l)" d="m76.526 120s11.662-9 16.474-13.714c4.812-4.72 14-16.143 14-16.143s-8 5.853-24 5.853c0 16-6.4745 24-6.4745 24z"/>
   <path fill="url(#m)" d="m77.526 120s11.662-9 16.474-13.714c4.812-4.72 14-16.143 14-16.143s-8 5.853-24 5.853c0 16-6.4745 24-6.4745 24z"/>
  </g>
  <g transform="translate(8,4)">
   <path opacity=".6" d="m23 25v96h53.525c0.464 0 30.475-29.398 30.475-29.853v-66.147h-84z" transform="matrix(1.0476,0,0,1.0417,-2.0952,-4.0417)" filter="url(#k)"/>
   <path fill="url(#n)" d="m24 24v96h53.525c0.464 0 30.475-29.398 30.475-29.853v-66.147h-84z"/>
   <path fill="url(#o)" d="m26.606 25.714c-0.47187 0-0.85638 0.37786-0.85638 0.84156v90.888c0 0.46455 0.38452 0.84157 0.85638 0.84157h50.674c0.22523 0 0.44618-0.0892 0.60546-0.24658l28.115-27.618c0.16013-0.15737 0.25092-0.37365 0.25092-0.59498v-63.262c0-0.4637-0.38366-0.84156-0.85639-0.84156h-78.787z"/>
   <path opacity=".5" filter="url(#l)" d="m76.526 120s11.662-9 16.474-13.714c4.812-4.72 14-16.143 14-16.143s-8 5.853-24 5.853c0 16-6.4745 24-6.4745 24z"/>
   <path fill="url(#m)" d="m77.526 120s11.662-9 16.474-13.714c4.812-4.72 14-16.143 14-16.143s-8 5.853-24 5.853c0 16-6.4745 24-6.4745 24z"/>
  </g>
 </g>
 <g transform="matrix(3.433,0,0,3.1874,-3.5155,20.077)">
  <path fill="#afaf00" d="m12 5.5-2.5174-1.3495-2.5388 1.3087 0.5056-2.8112-2.0292-2.0101 2.8298-0.3879 1.2847-2.551 1.2433 2.5714 2.823 0.43352-2.061 1.9771z" transform="matrix(.86499 0 0 .86499 3.3638 -4.5167)"/>
  <path fill="#ebeb00" d="m12 5.5-2.5174-1.3495-2.5388 1.3087 0.5056-2.8112-2.0292-2.0101 2.8298-0.3879 1.2847-2.551 1.2433 2.5714 2.823 0.43352-2.061 1.9771z" transform="matrix(.61624 0 0 .61624 5.7296 -4.1188)"/>
  <path fill="#ff0" d="m12 5.5-2.5174-1.3495-2.5388 1.3087 0.5056-2.8112-2.0292-2.0101 2.8298-0.3879 1.2847-2.551 1.2433 2.5714 2.823 0.43352-2.061 1.9771z" transform="matrix(.3815 0 0 .3815 7.9622 -3.7434)"/>
 </g>
 <g transform="matrix(.6436 0 0 .7523 -73.884 9.901)">
  <g transform="matrix(2.9379,0,0,2.1996,138.01,18.222)">
   <rect fill-opacity="0" height="16" width="16" y="0" x="0"/>
  </g>
  <g transform="matrix(2.9804,0,0,2.6654,320.95,-16.41)">
   <rect opacity=".71484" transform="matrix(.43925 0 0 1 -61.451 9.7935)" height="1.5" filter="url(#r)" width="15.5" y="12" x=".5" fill="#9b9b9b"/>
   <rect height="1.5332" width="14.35" y="20.56" x="-61.732" fill="#009b00"/>
   <path opacity=".70703" d="m-45.932 18.743h-7l-3 3.5 3 3.5h7v-7z" fill-rule="evenodd" filter="url(#q)" fill="#9b9b9b"/>
   <path opacity=".77734" d="m7 7.5-0.5 1.5h-2l3-8h2l3 8h-2l-0.5-1.5m-0.5-1.5-0.9121-2.9492-1.0879 2.9492" transform="matrix(.89817 0 0 .87673 -61.641 9.6348)" filter="url(#p)" fill="#9b9b9b"/>
   <path d="m-56.403 15.887-0.46562 1.4062h-1.8625l2.7938-7.5h1.8625l2.7938 7.5h-1.8625l-0.46562-1.4062m-0.46562-1.4062-0.8494-2.7649-1.0131 2.7649"/>
   <path fill-rule="evenodd" fill="#6f6500" d="m-46.732 17.793h-7l-3 3.5 3 3.5h7v-7z"/>
   <path fill-rule="evenodd" fill="url(#t)" d="m-47.732 18.793h-5.5l-2 2.5 2 2.5h5.5v-5z"/>
   <g transform="translate(-61.732,9.7935)">
    <rect fill-opacity="0" height="16" width="16" y="0" x="0"/>
   </g>
  </g>
 </g>
</svg>
