<svg id="Слой_1" data-name="Слой 1"
  xmlns:cc="http://creativecommons.org/ns#"
  xmlns:rdf="http://www.w3.org/1999/02/22-rdf-syntax-ns#"
  xmlns="http://www.w3.org/2000/svg" viewBox="0 0 26 26">
  <metadata id="metadata43">
    <rdf:RDF>
      <cc:Work rdf:about="">
        <cc:license rdf:resource="http://creativecommons.org/licenses/by/4.0/" />
      </cc:Work>
      <cc:License rdf:about="http://creativecommons.org/licenses/by/4.0/">
        <cc:permits rdf:resource="http://creativecommons.org/ns#Reproduction" />
        <cc:permits rdf:resource="http://creativecommons.org/ns#Distribution" />
        <cc:requires rdf:resource="http://creativecommons.org/ns#Notice" />
        <cc:requires rdf:resource="http://creativecommons.org/ns#Attribution" />
        <cc:permits rdf:resource="http://creativecommons.org/ns#DerivativeWorks" />
      </cc:License>
    </rdf:RDF>
  </metadata>
  <defs>
    <style>.cls-1{fill:#1a81c4;}.cls-2{fill:none;stroke:#545454;stroke-linecap:round;stroke-linejoin:round;}.cls-3{fill:#545454;}</style>
  </defs>
  <title>add_leader</title>
  <path class="cls-1" d="M7,8A3,3,0,1,1,4,5,3,3,0,0,1,7,8Z"/>
  <polyline class="cls-2" points="7.766 11.768 11.503 15.505 14.5 15.505"/>
  <polygon class="cls-3" points="7.439 13.495 4.634 8.635 9.494 11.441 7.439 13.495"/>
  <path class="cls-3" d="M19.5,21A5.5,5.5,0,1,1,25,15.5,5.5069,5.5069,0,0,1,19.5,21Zm0-10A4.5,4.5,0,1,0,24,15.5,4.505,4.505,0,0,0,19.5,11Z"/>
  <path class="cls-3" d="M21.7284,18.3185h-.9436l-2.5186-4.1439-.0235.0079v4.136h-.947V12.6422h.947l2.5185,4.14.0236-.0078V12.6422h.9436Z"/>
</svg>