<svg id="Слой_1" data-name="Слой 1"
  xmlns:cc="http://creativecommons.org/ns#"
  xmlns:rdf="http://www.w3.org/1999/02/22-rdf-syntax-ns#"
  xmlns="http://www.w3.org/2000/svg" viewBox="0 0 26 26">
  <metadata id="metadata43">
    <rdf:RDF>
      <cc:Work rdf:about="">
        <cc:license rdf:resource="http://creativecommons.org/licenses/by/4.0/" />
      </cc:Work>
      <cc:License rdf:about="http://creativecommons.org/licenses/by/4.0/">
        <cc:permits rdf:resource="http://creativecommons.org/ns#Reproduction" />
        <cc:permits rdf:resource="http://creativecommons.org/ns#Distribution" />
        <cc:requires rdf:resource="http://creativecommons.org/ns#Notice" />
        <cc:requires rdf:resource="http://creativecommons.org/ns#Attribution" />
        <cc:permits rdf:resource="http://creativecommons.org/ns#DerivativeWorks" />
      </cc:License>
    </rdf:RDF>
  </metadata>
  <defs>
    <style>.cls-1{fill:none;stroke:#545454;stroke-linecap:round;stroke-linejoin:round;stroke-width:2px;}.cls-2{fill:#1a81c4;}</style>
  </defs>
  <title>add_graphical_segments</title>
  <polyline class="cls-1" points="6.01 3.97 19.117 6.767 21.892 16.495 4.062 21.918"/>
  <path class="cls-2" d="M22.116,6.7836a3,3,0,1,1-3-3A3,3,0,0,1,22.116,6.7836Z"/>
  <path class="cls-2" d="M24.8924,16.4574a3,3,0,1,1-3-3A3,3,0,0,1,24.8924,16.4574Z"/>
  <path class="cls-2" d="M7,21.98a3,3,0,1,1-3-3A3,3,0,0,1,7,21.98Z"/>
  <path class="cls-2" d="M9.01,3.97a3,3,0,1,1-3-3A3,3,0,0,1,9.01,3.97Z"/>
</svg>