<svg id="Слой_1" data-name="Слой 1"
  xmlns:dc="http://purl.org/dc/elements/1.1/"
  xmlns:cc="http://creativecommons.org/ns#"
  xmlns:rdf="http://www.w3.org/1999/02/22-rdf-syntax-ns#"
  xmlns="http://www.w3.org/2000/svg" viewBox="0 0 26 26">
  <metadata id="metadata43">
    <rdf:RDF>
      <cc:Work rdf:about="">
        <cc:license rdf:resource="http://creativecommons.org/licenses/by-sa/4.0/" />
        <dc:format>image/svg+xml</dc:format>
        <dc:type rdf:resource="http://purl.org/dc/dcmitype/StillImage" />
        <dc:title>add_arc</dc:title>
      </cc:Work>
      <cc:License rdf:about="http://creativecommons.org/licenses/by-sa/4.0/">
        <cc:permits rdf:resource="http://creativecommons.org/ns#Reproduction" />
        <cc:permits rdf:resource="http://creativecommons.org/ns#Distribution" />
        <cc:requires rdf:resource="http://creativecommons.org/ns#Notice" />
        <cc:requires rdf:resource="http://creativecommons.org/ns#Attribution" />
        <cc:permits rdf:resource="http://creativecommons.org/ns#DerivativeWorks" />
        <cc:requires rdf:resource="http://creativecommons.org/ns#ShareAlike" />
      </cc:License>
    </rdf:RDF>
  </metadata>
  <defs>
    <style>.cls-1{fill:none;stroke:#545454;stroke-linecap:round;stroke-linejoin:round;stroke-width:2px;stroke-dasharray:2 4;}.cls-2{fill:#1a81c4;}</style>
  </defs>
  <title>add_dashed_line</title>
  <polygon class="cls-1" points="4.673 22.325 8.326 12.405 3.544 3.583 22.321 7.665 19.479 18.938 4.673 22.325"/>
  <path class="cls-2" d="M10.7968,12.4882A2.6633,2.6633,0,1,1,8.1335,9.825,2.6633,2.6633,0,0,1,10.7968,12.4882Z"/>
  <path class="cls-2" d="M22.201,18.9871a2.6633,2.6633,0,1,1-2.6632-2.6633A2.6633,2.6633,0,0,1,22.201,18.9871Z"/>
  <path class="cls-2" d="M7.3367,22.3251a2.6633,2.6633,0,1,1-2.6633-2.6633A2.6632,2.6632,0,0,1,7.3367,22.3251Z"/>
  <path class="cls-2" d="M24.9846,7.665a2.6633,2.6633,0,1,1-2.6635-2.6633A2.6634,2.6634,0,0,1,24.9846,7.665Z"/>
  <path class="cls-2" d="M6.3379,3.6259A2.6633,2.6633,0,1,1,3.6744.9627,2.6633,2.6633,0,0,1,6.3379,3.6259Z"/>
</svg>