<svg id="Слой_1" data-name="Слой 1"
  xmlns:cc="http://creativecommons.org/ns#"
  xmlns:rdf="http://www.w3.org/1999/02/22-rdf-syntax-ns#"
  xmlns="http://www.w3.org/2000/svg"
  xmlns:xlink="http://www.w3.org/1999/xlink" viewBox="0 0 26 26">
  <metadata id="metadata43">
    <rdf:RDF>
      <cc:Work rdf:about="">
        <cc:license rdf:resource="http://creativecommons.org/licenses/by/4.0/" />
      </cc:Work>
      <cc:License rdf:about="http://creativecommons.org/licenses/by/4.0/">
        <cc:permits rdf:resource="http://creativecommons.org/ns#Reproduction" />
        <cc:permits rdf:resource="http://creativecommons.org/ns#Distribution" />
        <cc:requires rdf:resource="http://creativecommons.org/ns#Notice" />
        <cc:requires rdf:resource="http://creativecommons.org/ns#Attribution" />
        <cc:permits rdf:resource="http://creativecommons.org/ns#DerivativeWorks" />
      </cc:License>
    </rdf:RDF>
  </metadata>
  <defs>
    <style>.cls-1{fill:#1a81c4;}.cls-2{fill:#595959;}.cls-3{fill:url(#Безымянный_градиент_19);}.cls-4{fill:url(#Безымянный_градиент_19-2);}.cls-5{fill:#545454;}</style>
    <linearGradient id="Безымянный_градиент_19" x1="9.3634" y1="17.5836" x2="9.3634" y2="14.6041" gradientUnits="userSpaceOnUse">
      <stop offset="0" stop-color="#ececec"/>
      <stop offset="1" stop-color="#c6c6c5"/>
    </linearGradient>
    <linearGradient id="Безымянный_градиент_19-2" x1="10.7628" y1="17.5836" x2="10.7628" y2="14.6041" xlink:href="#Безымянный_градиент_19"/>
  </defs>
  <title>add_zone_2</title>
  <rect class="cls-1" x="9.4339" y="13.4349" width="1.9885" height="11.8275" transform="translate(29.7768 8.9205) rotate(90)"/>
  <path class="cls-2" d="M10.0411,13.6421a.9994.9994,0,0,1-1-1V8.6558a.9978.9978,0,0,1,.3008-.7148l1.5488-1.5137a1.0013,1.0013,0,0,1,.6993-.2851H23.757a1,1,0,0,1,0,2h-11.76l-.9561.9345v3.5654A.9993.9993,0,0,1,10.0411,13.6421Z"/>
  <rect class="cls-3" x="8.8634" y="14.6041" width="1" height="2.9795"/>
  <rect class="cls-4" x="10.2628" y="14.6041" width="1" height="2.9795"/>
  <path class="cls-5" d="M8.7673,10.6548h2.5078a.7461.7461,0,0,1,.7461.7461v2.5077a.7462.7462,0,0,1-.7462.7462H8.7674a.7462.7462,0,0,1-.7462-.7462V11.4009A.7461.7461,0,0,1,8.7673,10.6548Z"/>
  <path class="cls-5" d="M8.759,17.373h2.5078a.7461.7461,0,0,1,.7461.7461v2.5077a.7462.7462,0,0,1-.7462.7462H8.7591a.7462.7462,0,0,1-.7462-.7462V18.1191A.7461.7461,0,0,1,8.759,17.373Z"/>
  <path class="cls-1" d="M13.7256,10.1421a2.7308,2.7308,0,0,1,.3057,1.2588v2.5078a2.7333,2.7333,0,0,1-.5215,1.6084,5.0361,5.0361,0,1,1-6.9561-.0029,2.71,2.71,0,0,1-.5224-1.6055V11.4009A2.74,2.74,0,0,1,7.041,9.275V8.6558a3.0159,3.0159,0,0,1,.9053-2.1474L9.4932,4.9966A2.9887,2.9887,0,0,1,11.59,4.1421H24.8921L24.89,4.1287A3.9881,3.9881,0,0,0,21,1H5A4,4,0,0,0,1,5V21a4,4,0,0,0,4,4H21a4,4,0,0,0,4-4V10.1421Z"/>
  <rect class="cls-1" x="9.0187" y="21.3511" width="1.9885" height="3.0796"/>
</svg>