<svg xmlns="http://www.w3.org/2000/svg" height="48" width="48" version="1.1">
 <defs>
  <linearGradient id="a" y2="4.6406" gradientUnits="userSpaceOnUse" x2="6.0964" y1="8.6836" x1="8.9893">
   <stop stop-color="#ff7800" offset="0"/>
   <stop stop-color="#fff" offset="1"/>
  </linearGradient>
  <filter id="b" color-interpolation-filters="sRGB">
   <feGaussianBlur stdDeviation="0.74722191"/>
  </filter>
 </defs>
 <g opacity=".3125" filter="url(#b)" transform="matrix(1.1663,0,0,1.2132,51.521,-20.786)">
  <path fill-rule="evenodd" d="m-35.689 25.302h17.73l8.8649 9.9497v15.92l-21.833 3.677-1.4142-3.5556 18.815-4.1012v-9.9497l-6.6487-7.9598h-15.514z"/>
  <path d="m10.5 6.75a2.25 2.25 0 1 1 -4.5 0 2.25 2.25 0 1 1 4.5 0z" transform="matrix(1.97,0,0,1.7688,-49.725,15.352)"/>
  <path d="m10.5 6.75a2.25 2.25 0 1 1 -4.5 0 2.25 2.25 0 1 1 4.5 0z" transform="matrix(1.2312,0,0,1.1055,-43.631,19.83)"/>
  <path d="m10.5 6.75a2.25 2.25 0 1 1 -4.5 0 2.25 2.25 0 1 1 4.5 0z" transform="matrix(1.97,0,0,1.7688,-48.075,41.06)"/>
  <path d="m10.5 6.75a2.25 2.25 0 1 1 -4.5 0 2.25 2.25 0 1 1 4.5 0z" transform="matrix(1.2312,0,0,1.1055,-41.98,45.538)"/>
  <path d="m10.5 6.75a2.25 2.25 0 1 1 -4.5 0 2.25 2.25 0 1 1 4.5 0z" transform="matrix(1.97,0,0,1.7688,-35.874,15.352)"/>
  <path d="m10.5 6.75a2.25 2.25 0 1 1 -4.5 0 2.25 2.25 0 1 1 4.5 0z" transform="matrix(1.2312,0,0,1.1055,-29.779,19.83)"/>
  <path d="m10.5 6.75a2.25 2.25 0 1 1 -4.5 0 2.25 2.25 0 1 1 4.5 0z" transform="matrix(1.97,0,0,1.7688,-27.563,24.307)"/>
  <path d="m10.5 6.75a2.25 2.25 0 1 1 -4.5 0 2.25 2.25 0 1 1 4.5 0z" transform="matrix(1.2312,0,0,1.1055,-21.469,28.785)"/>
  <path d="m10.5 6.75a2.25 2.25 0 1 1 -4.5 0 2.25 2.25 0 1 1 4.5 0z" transform="matrix(1.97,0,0,1.7688,-27.563,37.242)"/>
  <path d="m10.5 6.75a2.25 2.25 0 1 1 -4.5 0 2.25 2.25 0 1 1 4.5 0z" transform="matrix(1.2312,0,0,1.1055,-21.469,41.719)"/>
 </g>
 <g transform="matrix(3.4266,0,0,2.6684,3.6625,4.1077)">
  <rect fill-opacity="0" height="16" width="16" y="0" x="0"/>
 </g>
 <g transform="matrix(1.1663,0,0,1.2132,48.002,-24.309)">
  <path fill-rule="evenodd" fill="#00009b" d="m-35.689 25.302h17.73l8.8649 9.9497v15.92l-21.833 3.677-1.4142-3.5556 18.815-4.1012v-9.9497l-6.6487-7.9598h-15.514z"/>
  <path d="m10.5 6.75a2.25 2.25 0 1 1 -4.5 0 2.25 2.25 0 1 1 4.5 0z" transform="matrix(1.97,0,0,1.7688,-49.725,15.352)"/>
  <path fill="url(#a)" d="m10.5 6.75a2.25 2.25 0 1 1 -4.5 0 2.25 2.25 0 1 1 4.5 0z" transform="matrix(1.2312,0,0,1.1055,-43.631,19.83)"/>
  <path d="m10.5 6.75a2.25 2.25 0 1 1 -4.5 0 2.25 2.25 0 1 1 4.5 0z" transform="matrix(1.97,0,0,1.7688,-48.075,41.06)"/>
  <path fill="url(#a)" d="m10.5 6.75a2.25 2.25 0 1 1 -4.5 0 2.25 2.25 0 1 1 4.5 0z" transform="matrix(1.2312,0,0,1.1055,-41.98,45.538)"/>
  <path d="m10.5 6.75a2.25 2.25 0 1 1 -4.5 0 2.25 2.25 0 1 1 4.5 0z" transform="matrix(1.97,0,0,1.7688,-35.874,15.352)"/>
  <path fill="url(#a)" d="m10.5 6.75a2.25 2.25 0 1 1 -4.5 0 2.25 2.25 0 1 1 4.5 0z" transform="matrix(1.2312,0,0,1.1055,-29.779,19.83)"/>
  <path d="m10.5 6.75a2.25 2.25 0 1 1 -4.5 0 2.25 2.25 0 1 1 4.5 0z" transform="matrix(1.97,0,0,1.7688,-27.563,24.307)"/>
  <path fill="url(#a)" d="m10.5 6.75a2.25 2.25 0 1 1 -4.5 0 2.25 2.25 0 1 1 4.5 0z" transform="matrix(1.2312,0,0,1.1055,-21.469,28.785)"/>
  <path d="m10.5 6.75a2.25 2.25 0 1 1 -4.5 0 2.25 2.25 0 1 1 4.5 0z" transform="matrix(1.97,0,0,1.7688,-27.563,37.242)"/>
  <path fill="url(#a)" d="m10.5 6.75a2.25 2.25 0 1 1 -4.5 0 2.25 2.25 0 1 1 4.5 0z" transform="matrix(1.2312,0,0,1.1055,-21.469,41.719)"/>
 </g>
</svg>
