<?xml version="1.0" encoding="UTF-8" standalone="no"?>
<svg xmlns:dc="http://purl.org/dc/elements/1.1/"
   xmlns:cc="http://creativecommons.org/ns#"
   xmlns:rdf="http://www.w3.org/1999/02/22-rdf-syntax-ns#"
   xmlns:svg="http://www.w3.org/2000/svg"
   xmlns="http://www.w3.org/2000/svg"
   xmlns:sodipodi="http://sodipodi.sourceforge.net/DTD/sodipodi-0.dtd"
   xmlns:inkscape="http://www.inkscape.org/namespaces/inkscape" id="Слой_1" data-name="Слой 1" viewBox="0 0 24 24" version="1.1" sodipodi:docname="add_hierarchical_subsheet.svg" inkscape:version="1.0.1 (3bc2e813f5, 2020-09-07)">
   <sodipodi:namedview pagecolor="#ffffff" bordercolor="#666666" borderopacity="1" objecttolerance="10" gridtolerance="10" guidetolerance="10" inkscape:pageopacity="0" inkscape:pageshadow="2" inkscape:window-width="1609" inkscape:window-height="1286" id="namedview30" showgrid="true" inkscape:zoom="27.961538" inkscape:cx="3.3259971" inkscape:cy="13" inkscape:window-x="0" inkscape:window-y="37" inkscape:window-maximized="0" inkscape:document-rotation="0" inkscape:current-layer="Слой_1">
      <inkscape:grid type="xygrid" id="grid_kicad" spacingx="0.5" spacingy="0.5" color="#9999ff" opacity="0.13" empspacing="2" />
   </sodipodi:namedview>
   <metadata id="metadata43">
      <rdf:RDF>
         <cc:Work rdf:about="">
            <cc:license rdf:resource="http://creativecommons.org/licenses/by-sa/4.0/" />
            <dc:format>image/svg+xml</dc:format>
            <dc:type rdf:resource="http://purl.org/dc/dcmitype/StillImage" />
            <dc:title>add_arc</dc:title>
         </cc:Work>
         <cc:License rdf:about="http://creativecommons.org/licenses/by-sa/4.0/">
            <cc:permits rdf:resource="http://creativecommons.org/ns#Reproduction" />
            <cc:permits rdf:resource="http://creativecommons.org/ns#Distribution" />
            <cc:requires rdf:resource="http://creativecommons.org/ns#Notice" />
            <cc:requires rdf:resource="http://creativecommons.org/ns#Attribution" />
            <cc:permits rdf:resource="http://creativecommons.org/ns#DerivativeWorks" />
            <cc:requires rdf:resource="http://creativecommons.org/ns#ShareAlike" />
         </cc:License>
      </rdf:RDF>
   </metadata>
   <defs id="defs222">
      <style id="style220">.cls-1{fill:none;stroke:#bf2641;stroke-linecap:round;stroke-linejoin:round;}.cls-2{fill:#d8d8d8;}.cls-3{fill:#333;}.cls-4{fill:#545454;}.cls-5{fill:#1a81c4;}.cls-6{fill:#b9b9b9;}.cls-7{fill:#bf2641;}</style>
   </defs>
   <title id="title224">add_hierarchical_subshet</title>
   <polyline class="cls-1" points="5.985 16.459 5.985 20.049 9.575 20.049" id="polyline226" transform="translate(-1,-1)" />
   <path class="cls-2" d="m 2.48,0.0063 h 9.9969 a 2.4992,2.4992 0 0 1 2.4992,2.4992 v 9.9968 a 2.4993,2.4993 0 0 1 -2.4993,2.4993 H 2.4806 A 2.4993,2.4993 0 0 1 -0.0187,12.5023 V 2.5055 A 2.4992,2.4992 0 0 1 2.48,0.0063 Z" id="path228" />
   <path class="cls-3" d="M 7.2011,9.1258 A 0.682,0.682 0 0 1 6.5192,8.4439 V 2.8822 a 0.6819,0.6819 0 1 1 1.3638,0 V 8.4439 A 0.682,0.682 0 0 1 7.2011,9.1258 Z" id="path230" />
   <path class="cls-4" d="m 5.3179,5.18 h -3.21 a 0.341,0.341 0 0 1 0,-0.6819 h 3.21 a 0.341,0.341 0 0 1 0,0.6819 z" id="path232" />
   <path class="cls-4" d="M 5.3179,4.1246 H 3.3168 a 0.341,0.341 0 0 1 0,-0.6819 h 2.0011 a 0.341,0.341 0 0 1 0,0.6819 z" id="path234" />
   <path class="cls-4" d="m 11.6829,11.3249 h -3.21 a 0.341,0.341 0 0 1 0,-0.6819 h 3.21 a 0.341,0.341 0 0 1 0,0.6819 z" id="path236" />
   <path class="cls-4" d="m 10.4732,10.2693 h -2 a 0.341,0.341 0 0 1 0,-0.6819 h 2 a 0.341,0.341 0 0 1 0,0.6819 z" id="path238" />
   <rect class="cls-4" x="-0.0026999712" y="10.2777" width="3.4958999" height="1.3637" id="rect240" />
   <path class="cls-3" d="M 4.4735,13.7519 A 0.6819,0.6819 0 0 1 3.7916,13.0701 V 8.8476 a 0.6819,0.6819 0 0 1 1.3638,0 V 13.07 a 0.6819,0.6819 0 0 1 -0.6819,0.6819 z" id="path242" />
   <rect class="cls-3" x="6.5191998" y="5.2339001" width="8.4609003" height="1.3638" id="rect244" />
   <rect class="cls-4" x="6.4551001" y="13.3155" width="1.3637" height="1.6803" id="rect246" />
   <path class="cls-3" d="M 8.3591,5.916 A 1.1579,1.1579 0 1 1 7.2012,4.7582 1.158,1.158 0 0 1 8.3591,5.916 Z" id="path248" />
   <rect class="cls-5" x="5.9517999" y="0.0025000572" width="2.4986999" height="2.8794999" id="rect250" />
   <rect class="cls-5" x="4.6942" y="-14.2042" width="2.4988" height="4.9022999" transform="rotate(90)" id="rect252" />
   <path class="cls-3" d="M 4.5635,10.79 A 0.6819,0.6819 0 0 1 4.1988,9.5315 L 6.8371,7.8673 A 0.6819,0.6819 0 1 1 7.565,9.0206 L 4.9267,10.6848 A 0.68,0.68 0 0 1 4.5635,10.79 Z" id="path254" />
   <path class="cls-3" d="M 6.895,13.8607 A 0.6772,0.6772 0 0 1 6.5555,13.7694 L 4.1493,12.384 a 0.6816,0.6816 0 0 1 0.68,-1.1811 l 2.4067,1.3854 a 0.6818,0.6818 0 0 1 -0.341,1.2724 z" id="path256" />
   <path class="cls-5" d="m 5.8586,13.3966 0.8878,-1.2612 a 0.4609,0.4609 0 0 1 0.8248,0.1566 l 0.2392,0.9871 a 0.5631,0.5631 0 0 1 -0.4678,0.69 L 6.3,14.1181 A 0.4608,0.4608 0 0 1 5.8586,13.3966 Z" id="path258" />
   <path class="cls-3" d="m 4.4735,11.6414 h -1.605 a 0.6819,0.6819 0 1 1 0,-1.3637 h 1.605 a 0.6819,0.6819 0 1 1 0,1.3637 z" id="path260" />
   <path class="cls-6" d="m 11.4859,8.9984 h 9.9969 a 2.4992,2.4992 0 0 1 2.4992,2.4992 v 9.9968 a 2.4993,2.4993 0 0 1 -2.4993,2.4993 H 11.486 A 2.4993,2.4993 0 0 1 8.9867,21.4944 v -9.9968 a 2.4992,2.4992 0 0 1 2.4992,-2.4992 z" id="path262" />
   <path class="cls-3" d="M 16.1979,18.1226 A 0.682,0.682 0 0 1 15.516,17.4407 V 11.879 a 0.6819,0.6819 0 0 1 1.3638,0 v 5.5617 a 0.682,0.682 0 0 1 -0.6819,0.6819 z" id="path264" />
   <path class="cls-4" d="m 14.3147,14.1763 h -3.21 a 0.341,0.341 0 0 1 0,-0.6819 h 3.21 a 0.341,0.341 0 0 1 0,0.6819 z" id="path266" />
   <path class="cls-4" d="m 14.3147,13.1214 h -2.0011 a 0.341,0.341 0 0 1 0,-0.6819 h 2.0011 a 0.341,0.341 0 0 1 0,0.6819 z" id="path268" />
   <path class="cls-4" d="m 20.68,20.3217 h -3.21 a 0.341,0.341 0 0 1 0,-0.6819 h 3.21 a 0.341,0.341 0 0 1 0,0.6819 z" id="path270" />
   <path class="cls-4" d="m 19.47,19.2661 h -2 a 0.341,0.341 0 0 1 0,-0.6819 h 2 a 0.341,0.341 0 0 1 0,0.6819 z" id="path272" />
   <rect class="cls-4" x="8.9940996" y="19.2745" width="3.4958999" height="1.3637" id="rect274" />
   <path class="cls-3" d="m 13.47,22.7487 a 0.6819,0.6819 0 0 1 -0.6819,-0.6818 v -4.2225 a 0.6819,0.6819 0 0 1 1.3638,0 v 4.2225 A 0.6819,0.6819 0 0 1 13.47,22.7487 Z" id="path276" />
   <rect class="cls-3" x="15.516001" y="14.2307" width="8.4609003" height="1.3638" id="rect278" />
   <rect class="cls-4" x="15.4519" y="22.3123" width="1.3637" height="1.6803" id="rect280" />
   <path class="cls-3" d="M 17.3559,14.9128 A 1.1579,1.1579 0 1 1 16.198,13.755 1.158,1.158 0 0 1 17.3559,14.9128 Z" id="path282" />
   <rect class="cls-5" x="14.9486" y="8.9993" width="2.4986999" height="2.8794" id="rect284" />
   <rect class="cls-5" x="13.690901" y="-23.201" width="2.4988" height="4.9024" transform="rotate(90)" id="rect286" />
   <path class="cls-3" d="m 13.56,19.7869 a 0.6819,0.6819 0 0 1 -0.3647,-1.2585 l 2.6383,-1.6643 a 0.6819,0.6819 0 0 1 0.7279,1.1533 l -2.6383,1.6642 A 0.68,0.68 0 0 1 13.56,19.7869 Z" id="path288" />
   <path class="cls-3" d="m 15.8918,22.8575 a 0.6772,0.6772 0 0 1 -0.34,-0.0913 l -2.4062,-1.3854 a 0.6816,0.6816 0 1 1 0.68,-1.1811 l 2.4061,1.3854 a 0.6817,0.6817 0 0 1 -0.3409,1.2724 z" id="path290" />
   <path class="cls-5" d="m 14.8554,22.3934 0.8878,-1.2612 a 0.4609,0.4609 0 0 1 0.8248,0.1566 l 0.2392,0.9871 a 0.5631,0.5631 0 0 1 -0.4678,0.69 l -1.0422,0.1487 a 0.4608,0.4608 0 0 1 -0.4418,-0.7212 z" id="path292" />
   <path class="cls-3" d="m 13.47,20.6382 h -1.605 a 0.6819,0.6819 0 1 1 0,-1.3637 h 1.605 a 0.6819,0.6819 0 1 1 0,1.3637 z" id="path294" />
   <circle class="cls-7" cx="8.9864998" cy="19.0138" r="0.75" id="circle296" />
   <circle class="cls-7" cx="4.9854002" cy="15.0016" r="0.75" id="circle298" />
</svg>
