<?xml version="1.0" encoding="UTF-8" standalone="no"?>
<svg xmlns:dc="http://purl.org/dc/elements/1.1/"
   xmlns:cc="http://creativecommons.org/ns#"
   xmlns:rdf="http://www.w3.org/1999/02/22-rdf-syntax-ns#"
   xmlns:svg="http://www.w3.org/2000/svg"
   xmlns="http://www.w3.org/2000/svg"
   xmlns:sodipodi="http://sodipodi.sourceforge.net/DTD/sodipodi-0.dtd"
   xmlns:inkscape="http://www.inkscape.org/namespaces/inkscape" id="Слой_1" data-name="Слой 1" viewBox="0 0 24 24" version="1.1" sodipodi:docname="add_hierarchical_label.svg" inkscape:version="1.0.1 (3bc2e813f5, 2020-09-07)">
   <sodipodi:namedview pagecolor="#ffffff" bordercolor="#666666" borderopacity="1" objecttolerance="10" gridtolerance="10" guidetolerance="10" inkscape:pageopacity="0" inkscape:pageshadow="2" inkscape:window-width="1609" inkscape:window-height="1286" id="namedview30" showgrid="true" inkscape:zoom="27.961538" inkscape:cx="3.3259971" inkscape:cy="13" inkscape:window-x="0" inkscape:window-y="37" inkscape:window-maximized="0" inkscape:document-rotation="0" inkscape:current-layer="Слой_1">
      <inkscape:grid type="xygrid" id="grid_kicad" spacingx="0.5" spacingy="0.5" color="#9999ff" opacity="0.13" empspacing="2" />
   </sodipodi:namedview>
   <metadata id="metadata43">
      <rdf:RDF>
         <cc:Work rdf:about="">
            <cc:license rdf:resource="http://creativecommons.org/licenses/by-sa/4.0/" />
            <dc:format>image/svg+xml</dc:format>
            <dc:type rdf:resource="http://purl.org/dc/dcmitype/StillImage" />
            <dc:title>add_arc</dc:title>
         </cc:Work>
         <cc:License rdf:about="http://creativecommons.org/licenses/by-sa/4.0/">
            <cc:permits rdf:resource="http://creativecommons.org/ns#Reproduction" />
            <cc:permits rdf:resource="http://creativecommons.org/ns#Distribution" />
            <cc:requires rdf:resource="http://creativecommons.org/ns#Notice" />
            <cc:requires rdf:resource="http://creativecommons.org/ns#Attribution" />
            <cc:permits rdf:resource="http://creativecommons.org/ns#DerivativeWorks" />
            <cc:requires rdf:resource="http://creativecommons.org/ns#ShareAlike" />
         </cc:License>
      </rdf:RDF>
   </metadata>
   <defs id="defs190">
      <style id="style188">.cls-1,.cls-3,.cls-4{fill:none;stroke-linejoin:round;}.cls-1{stroke:#bf2641;}.cls-1,.cls-4{stroke-linecap:round;}.cls-2{fill:#d8d8d8;}.cls-3{stroke:#1a81c4;}.cls-4{stroke:#545454;}.cls-5{fill:#545454;}.cls-6{fill:#b9b9b9;}.cls-7{fill:#bf2641;}</style>
   </defs>
   <title id="title192">add_hierarchical_label</title>
   <polyline class="cls-1" points="5.985 16.459 5.985 21.049 9.575 21.049" id="polyline194" transform="translate(-1,-1)" />
   <path class="cls-2" d="m 2.48,0.0063 h 9.9969 a 2.4992,2.4992 0 0 1 2.4992,2.4992 v 9.9968 a 2.4993,2.4993 0 0 1 -2.4993,2.4993 H 2.4806 A 2.4993,2.4993 0 0 1 -0.0187,12.5023 V 2.5055 A 2.4992,2.4992 0 0 1 2.48,0.0063 Z" id="path196" />
   <line class="cls-3" x1="13.293" y1="7.1684999" x2="14.9736" y2="7.1684999" id="line198" />
   <polygon class="cls-4" points="11.719,11.102 14.293,8.168 11.719,5.197 8.335,5.197 8.335,11.102 " id="polygon200" transform="translate(-1,-1)" />
   <path class="cls-5" d="M 4.8073,8.7274 H 2.0722 L 1.4536,10.4087 H 0.5525 L 3.077,3.8805 h 0.7572 l 2.484,6.5282 H 5.417 Z M 2.3458,7.9874 H 4.5431 L 3.4668,5.0151 H 3.44 Z" id="path202" />
   <path class="cls-6" d="m 11.4859,8.9984 h 9.9969 a 2.4992,2.4992 0 0 1 2.4992,2.4992 v 9.9968 a 2.4993,2.4993 0 0 1 -2.4993,2.4993 H 11.486 A 2.4993,2.4993 0 0 1 8.9867,21.4944 v -9.9968 a 2.4992,2.4992 0 0 1 2.4992,-2.4992 z" id="path204" />
   <circle class="cls-7" cx="8.9864998" cy="20.0138" r="0.75" id="circle206" />
   <line class="cls-3" x1="22.3381" y1="16.2136" x2="24.0187" y2="16.2136" id="line208" />
   <polygon class="cls-4" points="20.764,20.147 23.338,17.214 20.764,14.242 17.38,14.242 17.38,20.147 " id="polygon210" transform="translate(-1,-1)" />
   <path class="cls-5" d="m 13.8524,17.7725 h -2.7351 l -0.6186,1.6813 H 9.5976 l 2.5245,-6.5282 h 0.7572 l 2.484,6.5282 h -0.9011 z m -2.4615,-0.74 h 2.1973 L 12.5119,14.06 h -0.0271 z" id="path212" />
   <circle class="cls-7" cx="4.9854002" cy="15.0016" r="0.75" id="circle214" />
</svg>
