<?xml version="1.0" encoding="UTF-8" standalone="no"?>
<svg
   xmlns:dc="http://purl.org/dc/elements/1.1/"
   xmlns:cc="http://creativecommons.org/ns#"
   xmlns:rdf="http://www.w3.org/1999/02/22-rdf-syntax-ns#"
   xmlns:svg="http://www.w3.org/2000/svg"
   xmlns="http://www.w3.org/2000/svg"
   xmlns:xlink="http://www.w3.org/1999/xlink"
   xmlns:sodipodi="http://sodipodi.sourceforge.net/DTD/sodipodi-0.dtd"
   xmlns:inkscape="http://www.inkscape.org/namespaces/inkscape"
   height="48"
   width="48"
   version="1.1"
   id="svg2"
   inkscape:version="0.47 r22583"
   sodipodi:docname="add_polygon.svg">
  <metadata
     id="metadata68">
    <rdf:RDF>
      <cc:Work
         rdf:about="">
        <dc:format>image/svg+xml</dc:format>
        <dc:type
           rdf:resource="http://purl.org/dc/dcmitype/StillImage" />
        <dc:title></dc:title>
      </cc:Work>
    </rdf:RDF>
  </metadata>
  <sodipodi:namedview
     pagecolor="#ffffff"
     bordercolor="#666666"
     borderopacity="1"
     objecttolerance="10"
     gridtolerance="10"
     guidetolerance="10"
     inkscape:pageopacity="0"
     inkscape:pageshadow="2"
     inkscape:window-width="1280"
     inkscape:window-height="949"
     id="namedview66"
     showgrid="false"
     inkscape:zoom="4.9166667"
     inkscape:cx="-12.610169"
     inkscape:cy="23.59322"
     inkscape:window-x="0"
     inkscape:window-y="25"
     inkscape:window-maximized="1"
     inkscape:current-layer="svg2" />
  <defs
     id="defs4">
    <linearGradient
       id="a"
       y2="4.6406"
       gradientUnits="userSpaceOnUse"
       x2="6.0964"
       y1="8.6836"
       x1="8.9893">
      <stop
         stop-color="#ff7800"
         offset="0"
         id="stop7" />
      <stop
         stop-color="#fff"
         offset="1"
         id="stop9" />
    </linearGradient>
    <filter
       id="b"
       color-interpolation-filters="sRGB">
      <feGaussianBlur
         stdDeviation="0.74722191"
         id="feGaussianBlur12" />
    </filter>
    <linearGradient
       inkscape:collect="always"
       xlink:href="#a"
       id="linearGradient2876"
       gradientUnits="userSpaceOnUse"
       x1="8.9893"
       y1="8.6836"
       x2="6.0964"
       y2="4.6406" />
    <linearGradient
       inkscape:collect="always"
       xlink:href="#a"
       id="linearGradient2878"
       gradientUnits="userSpaceOnUse"
       x1="8.9893"
       y1="8.6836"
       x2="6.0964"
       y2="4.6406" />
    <linearGradient
       inkscape:collect="always"
       xlink:href="#a"
       id="linearGradient2880"
       gradientUnits="userSpaceOnUse"
       x1="8.9893"
       y1="8.6836"
       x2="6.0964"
       y2="4.6406" />
    <linearGradient
       inkscape:collect="always"
       xlink:href="#a"
       id="linearGradient2882"
       gradientUnits="userSpaceOnUse"
       x1="8.9893"
       y1="8.6836"
       x2="6.0964"
       y2="4.6406" />
    <linearGradient
       inkscape:collect="always"
       xlink:href="#a"
       id="linearGradient2884"
       gradientUnits="userSpaceOnUse"
       x1="8.9893"
       y1="8.6836"
       x2="6.0964"
       y2="4.6406" />
    <linearGradient
       inkscape:collect="always"
       xlink:href="#a"
       id="linearGradient2887"
       gradientUnits="userSpaceOnUse"
       x1="8.9893"
       y1="8.6836"
       x2="6.0964"
       y2="4.6406"
       gradientTransform="matrix(1.4359486,0,0,1.3411926,22.962705,26.304491)" />
    <linearGradient
       inkscape:collect="always"
       xlink:href="#a"
       id="linearGradient2891"
       gradientUnits="userSpaceOnUse"
       x1="8.9893"
       y1="8.6836"
       x2="6.0964"
       y2="4.6406"
       gradientTransform="matrix(1.4359486,0,0,1.3411926,22.962705,10.612962)" />
    <linearGradient
       inkscape:collect="always"
       xlink:href="#a"
       id="linearGradient2895"
       gradientUnits="userSpaceOnUse"
       x1="8.9893"
       y1="8.6836"
       x2="6.0964"
       y2="4.6406"
       gradientTransform="matrix(1.4359486,0,0,1.3411926,13.270752,-0.251244)" />
    <linearGradient
       inkscape:collect="always"
       xlink:href="#a"
       id="linearGradient2899"
       gradientUnits="userSpaceOnUse"
       x1="8.9893"
       y1="8.6836"
       x2="6.0964"
       y2="4.6406"
       gradientTransform="matrix(1.4359486,0,0,1.3411926,-0.959274,30.937702)" />
    <linearGradient
       inkscape:collect="always"
       xlink:href="#a"
       id="linearGradient2903"
       gradientUnits="userSpaceOnUse"
       x1="8.9893"
       y1="8.6836"
       x2="6.0964"
       y2="4.6406"
       gradientTransform="matrix(1.4359486,0,0,1.3411926,-2.8848353,-0.251244)" />
  </defs>
  <g
     opacity=".3125"
     filter="url(#b)"
     transform="matrix(1.1663,0,0,1.2132,51.521,-20.786)"
     id="g14">
    <path
       fill-rule="evenodd"
       d="m-35.689 25.302h17.73l8.8649 9.9497v15.92l-21.833 3.677-1.4142-3.5556 18.815-4.1012v-9.9497l-6.6487-7.9598h-15.514z"
       id="path16" />
    <path
       d="m10.5 6.75a2.25 2.25 0 1 1 -4.5 0 2.25 2.25 0 1 1 4.5 0z"
       transform="matrix(1.97,0,0,1.7688,-49.725,15.352)"
       id="path18" />
    <path
       d="m10.5 6.75a2.25 2.25 0 1 1 -4.5 0 2.25 2.25 0 1 1 4.5 0z"
       transform="matrix(1.2312,0,0,1.1055,-43.631,19.83)"
       id="path20" />
    <path
       d="m10.5 6.75a2.25 2.25 0 1 1 -4.5 0 2.25 2.25 0 1 1 4.5 0z"
       transform="matrix(1.97,0,0,1.7688,-48.075,41.06)"
       id="path22" />
    <path
       d="m10.5 6.75a2.25 2.25 0 1 1 -4.5 0 2.25 2.25 0 1 1 4.5 0z"
       transform="matrix(1.2312,0,0,1.1055,-41.98,45.538)"
       id="path24" />
    <path
       d="m10.5 6.75a2.25 2.25 0 1 1 -4.5 0 2.25 2.25 0 1 1 4.5 0z"
       transform="matrix(1.97,0,0,1.7688,-35.874,15.352)"
       id="path26" />
    <path
       d="m10.5 6.75a2.25 2.25 0 1 1 -4.5 0 2.25 2.25 0 1 1 4.5 0z"
       transform="matrix(1.2312,0,0,1.1055,-29.779,19.83)"
       id="path28" />
    <path
       d="m10.5 6.75a2.25 2.25 0 1 1 -4.5 0 2.25 2.25 0 1 1 4.5 0z"
       transform="matrix(1.97,0,0,1.7688,-27.563,24.307)"
       id="path30" />
    <path
       d="m10.5 6.75a2.25 2.25 0 1 1 -4.5 0 2.25 2.25 0 1 1 4.5 0z"
       transform="matrix(1.2312,0,0,1.1055,-21.469,28.785)"
       id="path32" />
    <path
       d="m10.5 6.75a2.25 2.25 0 1 1 -4.5 0 2.25 2.25 0 1 1 4.5 0z"
       transform="matrix(1.97,0,0,1.7688,-27.563,37.242)"
       id="path34" />
    <path
       d="m10.5 6.75a2.25 2.25 0 1 1 -4.5 0 2.25 2.25 0 1 1 4.5 0z"
       transform="matrix(1.2312,0,0,1.1055,-21.469,41.719)"
       id="path36" />
  </g>
  <g
     transform="matrix(3.4266,0,0,2.6684,3.6625,4.1077)"
     id="g38">
    <rect
       fill-opacity="0"
       height="16"
       width="16"
       y="0"
       x="0"
       id="rect40" />
  </g>
  <path
     style="fill:#2c2cff;fill-rule:evenodd;fill-opacity:1"
     id="path44"
     d="m 6.3779193,6.3873864 20.6784987,0 10.339133,12.0709756 0,19.314144 -25.463828,4.460937 -1.649381,-4.313654 21.943934,-4.975576 0,-12.070976 -7.754378,-9.656829 -18.0939787,0 z" />
  <path
     id="path46"
     d="m 14.132648,8.8009268 a 5.1696247,4.8282935 0 0 1 -10.3392495,0 5.1696247,4.8282935 0 1 1 10.3392495,0 z" />
  <path
     style="fill:url(#linearGradient2903)"
     id="path48"
     d="m 12.192625,8.8018061 a 3.2308844,3.0176834 0 0 1 -6.4617687,0 3.2308844,3.0176834 0 1 1 6.4617687,0 z" />
  <path
     id="path50"
     d="m 16.057043,39.989872 a 5.1696248,4.8282935 0 0 1 -10.3392495,0 5.1696248,4.8282935 0 1 1 10.3392495,0 z" />
  <path
     style="fill:url(#linearGradient2899)"
     id="path52"
     d="m 14.118186,39.990752 a 3.2308844,3.0176834 0 0 1 -6.4617684,0 3.2308844,3.0176834 0 1 1 6.4617684,0 z" />
  <path
     id="path54"
     d="m 30.287069,8.8009268 a 5.1696248,4.8282935 0 0 1 -10.339249,0 5.1696248,4.8282935 0 1 1 10.339249,0 z" />
  <path
     style="fill:url(#linearGradient2895)"
     id="path56"
     d="m 28.348212,8.8018061 a 3.2308844,3.0176834 0 0 1 -6.461768,0 3.2308844,3.0176834 0 1 1 6.461768,0 z" />
  <path
     id="path58"
     d="m 39.980188,19.665133 a 5.1696247,4.8282935 0 0 1 -10.339249,0 5.1696247,4.8282935 0 1 1 10.339249,0 z" />
  <path
     style="fill:url(#linearGradient2891)"
     id="path60"
     d="m 38.040165,19.666012 a 3.2308844,3.0176834 0 0 1 -6.461768,0 3.2308844,3.0176834 0 1 1 6.461768,0 z" />
  <path
     id="path62"
     d="m 39.980188,35.357874 a 5.1696247,4.8282935 0 0 1 -10.339249,0 5.1696247,4.8282935 0 1 1 10.339249,0 z" />
  <path
     style="fill:url(#linearGradient2887)"
     id="path64"
     d="m 38.040165,35.357541 a 3.2308844,3.0176834 0 0 1 -6.461768,0 3.2308844,3.0176834 0 1 1 6.461768,0 z" />
</svg>
