<svg id="Слой_1" data-name="Слой 1"
  xmlns:dc="http://purl.org/dc/elements/1.1/"
  xmlns:cc="http://creativecommons.org/ns#"
  xmlns:rdf="http://www.w3.org/1999/02/22-rdf-syntax-ns#"
  xmlns="http://www.w3.org/2000/svg" viewBox="0 0 26 26">
  <metadata id="metadata43">
    <rdf:RDF>
      <cc:Work rdf:about="">
        <cc:license rdf:resource="http://creativecommons.org/licenses/by-sa/4.0/" />
        <dc:format>image/svg+xml</dc:format>
        <dc:type rdf:resource="http://purl.org/dc/dcmitype/StillImage" />
        <dc:title>add_arc</dc:title>
      </cc:Work>
      <cc:License rdf:about="http://creativecommons.org/licenses/by-sa/4.0/">
        <cc:permits rdf:resource="http://creativecommons.org/ns#Reproduction" />
        <cc:permits rdf:resource="http://creativecommons.org/ns#Distribution" />
        <cc:requires rdf:resource="http://creativecommons.org/ns#Notice" />
        <cc:requires rdf:resource="http://creativecommons.org/ns#Attribution" />
        <cc:permits rdf:resource="http://creativecommons.org/ns#DerivativeWorks" />
        <cc:requires rdf:resource="http://creativecommons.org/ns#ShareAlike" />
      </cc:License>
    </rdf:RDF>
  </metadata>
  <defs>
    <style>.cls-1{fill:#545454;}.cls-2{fill:#1a81c4;}</style>
  </defs>
  <title>add_center_dimension</title>
  <path class="cls-1" d="M12,24a1,1,0,0,1-1-1V3a1,1,0,0,1,2,0V23A.9994.9994,0,0,1,12,24Z"/>
  <path class="cls-1" d="M21.8548,14H2.0033a1,1,0,1,1,0-2H21.8548a1,1,0,0,1,0,2Z"/>
  <path class="cls-2" d="M15.0034,13a3,3,0,1,1-3-3A3,3,0,0,1,15.0034,13Z"/>
  <path class="cls-2" d="M24.9967,13a3,3,0,1,1-3-3A3,3,0,0,1,24.9967,13Z"/>
</svg>