<svg xmlns="http://www.w3.org/2000/svg" height="48" width="48" version="1.1">
 <defs>
  <filter id="a" height="1.2015" width="1.1159" color-interpolation-filters="sRGB" y="-.10075" x="-.057925">
   <feGaussianBlur stdDeviation="0.88285369"/>
  </filter>
 </defs>
 <g transform="matrix(2.4566,0,0,2.2316,-37.589,-39.022)">
  <rect fill-opacity="0" height="16" width="16" y="0" x="0"/>
 </g>
 <g transform="matrix(2.9379,0,0,2.1996,1.5067,11.922)">
  <rect fill-opacity="0" height="16" width="16" y="0" x="0"/>
 </g>
 <g transform="matrix(3.433,0,0,3.1874,22.929,21.886)">
  <path fill="#afaf00" d="m12 5.5-2.5174-1.3495-2.5388 1.3087 0.5056-2.8112-2.0292-2.0101 2.8298-0.3879 1.2847-2.551 1.2433 2.5714 2.823 0.43352-2.061 1.9771z" transform="matrix(.86499 0 0 .86499 3.3638 -4.5167)"/>
  <path fill="#ebeb00" d="m12 5.5-2.5174-1.3495-2.5388 1.3087 0.5056-2.8112-2.0292-2.0101 2.8298-0.3879 1.2847-2.551 1.2433 2.5714 2.823 0.43352-2.061 1.9771z" transform="matrix(.61624 0 0 .61624 5.7296 -4.1188)"/>
  <path fill="#ff0" d="m12 5.5-2.5174-1.3495-2.5388 1.3087 0.5056-2.8112-2.0292-2.0101 2.8298-0.3879 1.2847-2.551 1.2433 2.5714 2.823 0.43352-2.061 1.9771z" transform="matrix(.3815 0 0 .3815 7.9622 -3.7434)"/>
 </g>
 <g fill-rule="evenodd" transform="matrix(1.0859,0,0,1.1186,102.41,27.327)">
  <path opacity=".45703" filter="url(#a)" d="m-89.671-7.5642 18.873-0.02542 0.074 16.365h17.632l-0.13021 4.666-21.99-0.03352-0.13512-16.298h-14.324v-4.6743z"/>
  <path fill="#007d00" d="m-91.729-9.3017 18.873-0.025425 0.07398 16.365h17.632l-0.13021 4.666-21.99-0.03352-0.13512-16.298h-14.324v-4.6743z"/>
 </g>
</svg>
