<svg xmlns="http://www.w3.org/2000/svg" height="48" width="48" version="1.1">
 <defs>
  <filter id="a" color-interpolation-filters="sRGB">
   <feGaussianBlur stdDeviation="1.1991925"/>
  </filter>
 </defs>
 <g transform="matrix(2.9379,0,0,2.1996,1.931,4.2853)">
  <rect fill-opacity="0" height="16" width="16" y="0" x="0"/>
 </g>
 <g transform="translate(.42426 -8.2368)">
  <g opacity=".59766" filter="url(#a)" transform="translate(-25.8,-18.45)">
   <path fill-rule="evenodd" d="m43.993 62.938 20.383-0.0092 6.1798-18.554c3.099-6.107-3.795-5.302-3.795-5.302l-6.3243 18.554-29.193 0.3047v5.1582z"/>
   <path d="m61.214 68.211c-4.4012 0-7.9732-3.7155-7.9732-8.2936s3.572-8.2936 7.9732-8.2936 7.9732 3.7155 7.9732 8.2936-3.572 8.2936-7.9732 8.2936zm0-4.7392c1.8862 0 3.4171-1.5924 3.4171-3.5544s-1.5309-3.5544-3.4171-3.5544-3.4171 1.5924-3.4171 3.5544 1.5309 3.5544 3.4171 3.5544z"/>
   <path d="m64.714 59.843a3.5 4.5783 0 1 0 -7 0 3.5 4.5783 0 0 0 7 0z"/>
  </g>
  <g transform="matrix(1,0,0,-1,-42.9,74.019)">
   <path fill-rule="evenodd" fill="#007d00" d="m58.968 33.765 20.383 0.0091 6.1798 18.267c3.0995 6.0122-3.7946 5.2193-3.7946 5.2193l-6.3243-18.267-29.193-0.3v-5.0785z"/>
   <g transform="translate(14.1,37.35)">
    <path fill="#d72e2e" d="m62.088-8.7771c-4.4012 0-7.9732 3.6582-7.9732 8.1655 0 4.5074 3.572 8.1655 7.9732 8.1655s7.9732-3.6582 7.9732-8.1655c0-4.5074-3.572-8.1655-7.9732-8.1655zm0 4.666c1.8862 0 3.4171 1.5678 3.4171 3.4995s-1.5309 3.4995-3.4171 3.4995-3.4171-1.5678-3.4171-3.4995 1.5309-3.4995 3.4171-3.4995z"/>
    <path d="m65.588-0.61154a3.5 3.4 0 0 1 -7 0 3.5 3.4 0 1 1 7 0z"/>
   </g>
  </g>
 </g>
 <g transform="matrix(3.433,0,0,3.1874,29.274,23.977)">
  <path fill="#afaf00" d="m12 5.5-2.5174-1.3495-2.5388 1.3087 0.5056-2.8112-2.0292-2.0101 2.8298-0.3879 1.2847-2.551 1.2433 2.5714 2.823 0.43352-2.061 1.9771z" transform="matrix(.86499 0 0 .86499 3.3638 -4.5167)"/>
  <path fill="#ebeb00" d="m12 5.5-2.5174-1.3495-2.5388 1.3087 0.5056-2.8112-2.0292-2.0101 2.8298-0.3879 1.2847-2.551 1.2433 2.5714 2.823 0.43352-2.061 1.9771z" transform="matrix(.61624 0 0 .61624 5.7296 -4.1188)"/>
  <path fill="#ff0" d="m12 5.5-2.5174-1.3495-2.5388 1.3087 0.5056-2.8112-2.0292-2.0101 2.8298-0.3879 1.2847-2.551 1.2433 2.5714 2.823 0.43352-2.061 1.9771z" transform="matrix(.3815 0 0 .3815 7.9622 -3.7434)"/>
 </g>
</svg>
