<svg xmlns="http://www.w3.org/2000/svg" height="48" width="48" version="1.1">
 <g transform="matrix(.12065 0 0 .10619 -17.827 -6.7758)">
  <path d="m349.13 470.16c-1.5291-2.4741-11.882-7.2235-27.697-12.705-42.259-14.649-66.313-30.738-86.014-57.532-6.3897-8.6904-7.094-9.1962-12.805-9.1962-3.3237 0-6.7537 0.7105-7.6221 1.5789-3.0005 3.0005-17.648-26.96-21.81-44.609-2.8243-11.979-2.8005-29.501 0.0533-39.111l2.267-7.6337 15.758 15.901c17.47 17.629 30.277 27.385 44.984 34.268l9.7852 4.5791-3.63 4.314c-4.2354 5.0335-5.9451 12.4-4.574 19.708 3.5629 18.992 48.352 40.837 63.447 30.946 8.0558-5.2783 8.1731-6.4012 10.156-97.154 1.0081-46.148 1.5599-84.402 1.2264-85.009-0.33356-0.60695-26.059-1.1035-57.168-1.1035h-56.562v-22.07h114.77l-0.0537-10.668-0.0537-10.668-6.458-4.0902c-18.315-11.6-23.439-38.176-10.752-55.761 5.7955-8.033 7.3995-9.3386 17.318-14.096 11.244-5.3936 24.069-5.3936 35.313 0 9.9182 4.7576 11.522 6.0632 17.318 14.096 12.687 17.585 7.5626 44.161-10.752 55.761l-6.458 4.0902-0.0537 10.668-0.0537 10.668h114.77v22.07h-56.562c-31.109 0-56.835 0.49659-57.168 1.1035-0.33358 0.60695 0.21828 38.861 1.2264 85.009 1.9824 90.753 2.0998 91.876 10.156 97.154 15.096 9.891 59.884-11.955 63.447-30.946 1.3711-7.3084-0.33858-14.675-4.574-19.708l-3.63-4.314 9.7852-4.5791c14.707-6.8822 27.515-16.639 44.984-34.268l15.758-15.901 2.267 7.6337c2.8537 9.6095 2.8776 27.132 0.0533 39.111-4.1611 17.649-18.809 47.609-21.81 44.609-1.7837-1.7837-11.252-2.1012-13.501-0.45284-0.81131 0.59456-4.2746 4.7672-7.6962 9.2725-19.923 26.233-43.649 41.912-85.244 56.33-15.814 5.4818-26.168 10.231-27.697 12.705-0.5073 0.82083-1.5063 1.4924-2.2201 1.4924-0.71374 0-1.7128-0.67159-2.2201-1.4924zm12.633-313.27c6.1994-6.1994 6.087-14.921-0.2688-20.858-14.194-13.259-34.287 7.1281-20.557 20.858 6.0565 6.0565 14.769 6.0565 20.826 0z"/>
 </g>
 <g transform="matrix(.083501 0 0 .0688 -40.129 5.9274)">
  <path d="m198.18 22.91c-5.4897 0.14506-8.486 4.1791-6.6797 9.6967 2.3002 7.026 14.943 4.6285 14.943-2.8366-0.00001-3.8341-1.893-6.0448-5.7615-6.6864-0.87836-0.14567-1.7178-0.19439-2.502-0.17367zm0.96408-14.588c15.083 0 28.97 20.632 20.544 30.508-3.2013 3.7524-0.56029 22.365 3.7645 26.572 1.6899 1.644 16.429 4.9216 32.779 7.2942 27.816 4.0365 30.199 4.0133 36.956-0.66574 11.482-7.9499 15.632-2.8638 15.632 19.162 0 20.829-3.9738 26.654-13.933 20.406-4.4982-2.8218-11.39-2.9121-31.929-0.46312-31.692 3.7787-37.598 6.1582-39.688 15.92-1.9786 9.2406 0.52115 149.74 3.535 198.42 2.2879 36.951 6.0772 58.03 11.867 66.082 4.0307 5.6049 28.184 13.953 39.849 13.778 21.512-0.32228 47.279-18.632 79.835-56.762 3.968-4.6474 6.9316-8.0022 9.8703-11.318-12.684-4.5175-31.447-7.0337-31.447-7.0337l67.164-30.421s-4.2138 90.313-6.3124 95.606c-2.3816 3.2534-6.2902-23.089-12.808-40.494-1.026 2.402-1.718 4.3046-2.984 7.0626-32.146 70.028-60.499 98.307-103.89 103.54-22.912 2.7617-50.514 9.4688-57.891 14.096-2.7092 1.6996-7.7955 8.8776-11.316 15.92-3.5209 7.0424-7.8387 12.794-9.5949 12.794-1.7561-0.00003-6.0739-5.7515-9.5949-12.794-3.521-7.0423-8.6301-14.22-11.339-15.92-7.3768-4.6276-34.956-11.335-57.868-14.096-41.075-4.9511-68.72-31.028-98.818-93.146-5.5958 17.091-9.107 38.966-11.293 35.979-2.0987-5.2929-6.2895-95.606-6.2895-95.606l67.141 30.45s-17.49 2.3152-30.116 6.5416c32.058 37.292 57.523 55.285 78.802 55.604 11.665 0.17474 35.795-8.173 39.826-13.778 5.7901-8.0516 9.5794-29.131 11.867-66.082 3.0138-48.675 5.5365-189.18 3.5579-198.42-2.0902-9.7617-7.9957-12.141-39.688-15.92-20.54-2.449-27.431-2.3587-31.929 0.46312-9.9594 6.2477-13.956 0.42233-13.956-20.406 0-22.026 4.1732-27.112 15.655-19.162 6.7576 4.679 9.1173 4.7022 36.933 0.66574 16.35-2.3726 31.112-5.6502 32.802-7.2942 4.3248-4.2071 6.9658-22.819 3.7645-26.572-8.4259-9.8764 5.4607-30.508 20.544-30.508z"/>
  <path fill="#1e1e1e" d="m193.45 485.17c-2.3294-4.6223-6.7463-10.333-9.8152-12.69-7.1814-5.5154-33.648-12.434-59.477-15.547-43.265-5.22-69.707-31.49-101.58-100.92l-11.554-25.168 24.243 28.025c34.196 39.531 57.335 54.795 83.443 55.042 17.116 0.16203 39.992-7.4131 45.89-15.196 11.039-14.566 14.558-53.947 16.819-188.22 1.7464-103.7 2.4252-100.36-21.393-105.07-9.2963-1.838-27.838-3.5416-41.203-3.786l-24.301-0.44425-0.01359-11.02c-0.01161-9.3936 0.6158-10.71 4.2519-8.918 9.1788 4.5223 15.525 4.5525 45.684 0.21744 34.933-5.0213 38.988-7.447 41.492-24.819 1.5826-10.98 1.7934-11.174 12.151-11.174 10.357 0 10.568 0.19383 12.151 11.174 2.5039 17.372 6.5591 19.797 41.492 24.819 30.159 4.3351 36.505 4.3049 45.684-0.21744 3.6361-1.7915 4.2636-0.47562 4.2519 8.918l-0.0136 11.02-24.301 0.44425c-13.366 0.24435-31.907 1.948-41.203 3.786-23.818 4.709-23.139 1.3748-21.393 105.07 2.2613 134.28 5.7804 173.66 16.819 188.22 5.8979 7.7826 28.774 15.358 45.89 15.196 26.108-0.24718 49.247-16.446 83.444-55.978l30.921-37.382-8.5858 24.233c-31.847 69.374-67.89 106.84-111.23 112.21-42.831 5.3048-58.739 11.345-67.587 25.661l-6.744 10.913-4.2353-8.4041z"/>
  <path fill-rule="evenodd" fill="#1e1e1e" d="m8.2243 318.93 3.7897 72.184s8.4018-30.184 13.43-41.701c5.9706-1.687 31.318-7.4536 30.595-8.4119-28.086-14.07-47.128-19.24-47.815-22.07z"/>
  <path fill-rule="evenodd" fill="#1e1e1e" d="m399.42 306.96-3.2511 72.226s-8.6266-30.083-13.74-41.54c-5.9829-1.6161-31.372-7.0818-30.656-8.0486 27.979-14.406 46.981-19.8 47.647-22.637z"/>
 </g>
</svg>
