<svg id="Слой_1" data-name="Слой 1"
  xmlns:cc="http://creativecommons.org/ns#"
  xmlns:rdf="http://www.w3.org/1999/02/22-rdf-syntax-ns#"
  xmlns="http://www.w3.org/2000/svg" viewBox="0 0 26 26">
  <metadata id="metadata43">
    <rdf:RDF>
      <cc:Work rdf:about="">
        <cc:license rdf:resource="http://creativecommons.org/licenses/by/4.0/" />
      </cc:Work>
      <cc:License rdf:about="http://creativecommons.org/licenses/by/4.0/">
        <cc:permits rdf:resource="http://creativecommons.org/ns#Reproduction" />
        <cc:permits rdf:resource="http://creativecommons.org/ns#Distribution" />
        <cc:requires rdf:resource="http://creativecommons.org/ns#Notice" />
        <cc:requires rdf:resource="http://creativecommons.org/ns#Attribution" />
        <cc:permits rdf:resource="http://creativecommons.org/ns#DerivativeWorks" />
      </cc:License>
    </rdf:RDF>
  </metadata>
  <defs>
    <style>.cls-1{fill:none;stroke:#e61c50;stroke-linecap:round;stroke-linejoin:round;}.cls-2{fill:#e61c50;}.cls-3{fill:#b9b9b9;}.cls-4{fill:#545454;}</style>
  </defs>
  <title>annotate_right_down</title>
  <line class="cls-1" x1="9.0975" y1="15.2322" x2="20.9646" y2="8.3124"/>
  <polygon class="cls-2" points="10.368 15.837 6.036 17.017 9.197 13.829 10.368 15.837"/>
  <rect class="cls-3" x="1" y="1.0019" width="10" height="8"/>
  <path class="cls-4" d="M3.1211,5.2764V7.61H2.1846V1.9854H4.2588A2.2173,2.2173,0,0,1,5.7109,2.41,1.4861,1.4861,0,0,1,6.2236,3.623a1.2578,1.2578,0,0,1-.2256.752,1.5431,1.5431,0,0,1-.6572.5039,1.1755,1.1755,0,0,1,.6826.4922,1.5927,1.5927,0,0,1,.208.8408V6.68a1.9054,1.9054,0,0,0,.0616.4824.6761.6761,0,0,0,.208.3594V7.61H5.5381a.6294.6294,0,0,1-.1992-.4014,3.4031,3.4031,0,0,1-.044-.5371V6.22a.9509.9509,0,0,0-.2461-.6885A.9012.9012,0,0,0,4.37,5.2764Zm0-.753H4.208a1.2693,1.2693,0,0,0,.8213-.2168.812.812,0,0,0,.2578-.66.8787.8787,0,0,0-.2539-.667,1.0889,1.0889,0,0,0-.7744-.2412H3.1211Z"/>
  <path class="cls-4" d="M9.17,7.61H8.2334V2.877H7.0928V2.1855l2.0771-.2Z"/>
  <rect class="cls-3" x="15.0076" y="1.0019" width="10" height="8"/>
  <rect class="cls-3" x="1" y="17" width="10" height="8"/>
  <rect class="cls-3" x="15.0076" y="17" width="10" height="8"/>
  <line class="cls-1" x1="12.7114" y1="4.9888" x2="10.1877" y2="4.9888"/>
  <polygon class="cls-2" points="12.018 3.972 15.812 4.989 12.018 6.006 12.018 3.972"/>
  <line class="cls-1" x1="12.7114" y1="21.0142" x2="10.8284" y2="21.0142"/>
  <polygon class="cls-2" points="12.018 19.997 15.812 21.014 12.018 22.031 12.018 19.997"/>
  <path class="cls-4" d="M16.9082,21.5244v2.334h-.9365v-5.625h2.0742a2.2173,2.2173,0,0,1,1.4521.4248,1.4861,1.4861,0,0,1,.5127,1.2129,1.2581,1.2581,0,0,1-.2255.7519,1.5442,1.5442,0,0,1-.6573.504,1.175,1.175,0,0,1,.6826.4921,1.5931,1.5931,0,0,1,.2081.8409v.4677a1.9067,1.9067,0,0,0,.0615.4825.6758.6758,0,0,0,.208.3593v.0889h-.9629a.6294.6294,0,0,1-.1992-.4014,3.4031,3.4031,0,0,1-.044-.5371v-.4521a.9507.9507,0,0,0-.2461-.6885.9012.9012,0,0,0-.6787-.2549Zm0-.7529h1.0869a1.27,1.27,0,0,0,.8213-.2168.8124.8124,0,0,0,.2578-.66.8785.8785,0,0,0-.2539-.667,1.0889,1.0889,0,0,0-.7744-.2412H16.9082Z"/>
  <path class="cls-4" d="M23.7705,21.8535h.709v.7529h-.709v1.252h-.9326v-1.252H20.43l-.0235-.5722,2.4-3.8008h.9639Zm-2.4394,0h1.5068V19.5693l-.0234-.0068-.0772.166Z"/>
</svg>