<?xml version="1.0" encoding="UTF-8" standalone="no"?>
<svg
   xmlns:dc="http://purl.org/dc/elements/1.1/"
   xmlns:cc="http://creativecommons.org/ns#"
   xmlns:rdf="http://www.w3.org/1999/02/22-rdf-syntax-ns#"
   xmlns:svg="http://www.w3.org/2000/svg"
   xmlns="http://www.w3.org/2000/svg"
   xmlns:sodipodi="http://sodipodi.sourceforge.net/DTD/sodipodi-0.dtd"
   xmlns:inkscape="http://www.inkscape.org/namespaces/inkscape"
   height="26"
   width="26"
   version="1.1"
   viewBox="0 0 26 26"
   id="svg2"
   inkscape:version="0.48.3.1 r9886"
   sodipodi:docname="annotate.svg">
  <metadata
     id="metadata186">
    <rdf:RDF>
      <cc:Work
         rdf:about="">
        <dc:format>image/svg+xml</dc:format>
        <dc:type
           rdf:resource="http://purl.org/dc/dcmitype/StillImage" />
        <dc:title />
      </cc:Work>
    </rdf:RDF>
  </metadata>
  <sodipodi:namedview
     pagecolor="#ffffff"
     bordercolor="#666666"
     borderopacity="1"
     objecttolerance="10"
     gridtolerance="10"
     guidetolerance="10"
     inkscape:pageopacity="0"
     inkscape:pageshadow="2"
     inkscape:window-width="1600"
     inkscape:window-height="849"
     id="namedview184"
     showgrid="true"
     inkscape:zoom="22.961538"
     inkscape:cx="6.1110434"
     inkscape:cy="11.23117"
     inkscape:window-x="0"
     inkscape:window-y="29"
     inkscape:window-maximized="1"
     inkscape:current-layer="svg2"
     inkscape:snap-grids="false"
     inkscape:snap-to-guides="false">
    <inkscape:grid
       type="xygrid"
       id="grid3126"
       empspacing="5"
       visible="true"
       enabled="true"
       snapvisiblegridlinesonly="true" />
  </sodipodi:namedview>
  <defs
     id="defs4" />
  <path
     style="fill:#f9f9f9;stroke:#800000;stroke-width:1.12351239;stroke-linecap:butt;stroke-linejoin:round;stroke-miterlimit:4;stroke-opacity:1;stroke-dasharray:none"
     d="m 4.4469168,6.310718 0,16.478183 12.3586372,-8.239091 z"
     id="path2990"
     inkscape:connector-curvature="0"
     sodipodi:nodetypes="cccc" />
  <path
     style="fill:none;stroke:#800000;stroke-width:0.97785228;stroke-linecap:round;stroke-linejoin:miter;stroke-miterlimit:4;stroke-opacity:1;stroke-dasharray:none"
     d="m 6.605131,12.52054 3.989421,0"
     id="path3760"
     inkscape:connector-curvature="0"
     sodipodi:nodetypes="cc" />
  <path
     sodipodi:nodetypes="cc"
     inkscape:connector-curvature="0"
     id="path3762"
     d="m 6.4062266,16.552983 4.1259234,0"
     style="fill:none;stroke:#800000;stroke-width:0.99444073;stroke-linecap:round;stroke-linejoin:miter;stroke-miterlimit:4;stroke-opacity:1;stroke-dasharray:none" />
  <path
     style="fill:none;stroke:#800000;stroke-width:1.12351239;stroke-linecap:round;stroke-linejoin:miter;stroke-miterlimit:4;stroke-opacity:1;stroke-dasharray:none"
     d="m 16.849105,14.506259 2.621529,0"
     id="path3766"
     inkscape:connector-curvature="0"
     sodipodi:nodetypes="cc" />
  <path
     style="fill:none;stroke:#800000;stroke-width:1.12351239;stroke-linecap:round;stroke-linejoin:miter;stroke-miterlimit:4;stroke-opacity:1;stroke-dasharray:none"
     d="m 3.8807526,11.510225 -2.99603306,0"
     id="path3768"
     inkscape:connector-curvature="0"
     sodipodi:nodetypes="cc" />
  <path
     style="fill:none;stroke:#800000;stroke-width:1.12351239;stroke-linecap:round;stroke-linejoin:miter;stroke-miterlimit:4;stroke-opacity:1;stroke-dasharray:none"
     d="m 3.5758951,17.458741 -2.99603319,0"
     id="path3770"
     inkscape:connector-curvature="0"
     sodipodi:nodetypes="cc" />
  <path
     style="fill:none;stroke:#800000;stroke-width:0.9608494;stroke-linecap:round;stroke-linejoin:miter;stroke-miterlimit:4;stroke-opacity:1;stroke-dasharray:none"
     d="m 8.4790619,14.499692 0,3.851891"
     id="path3813"
     inkscape:connector-curvature="0"
     sodipodi:nodetypes="cc" />
  <g
     transform="scale(0.85855393,1.1647492)"
     style="font-size:10.0978241px;font-style:normal;font-variant:normal;font-weight:normal;font-stretch:normal;line-height:125%;letter-spacing:0px;word-spacing:0px;fill:#000000;fill-opacity:1;stroke:none;font-family:Garuda;-inkscape-font-specification:Garuda"
     id="text3036">
    <path
       d="m 13.767886,1.8663839 -1.157982,3.1400741 2.32019,0 -1.162208,-3.1400741 m -0.481788,-0.8410158 0.967802,0 2.404714,6.3097316 -0.887505,0 -0.574764,-1.6186385 -2.844239,0 -0.574765,1.6186385 -0.900183,0 2.40894,-6.3097316"
       style="font-size:8.65527821px;font-family:OpenSymbol;-inkscape-font-specification:OpenSymbol"
       id="path2994" />
    <path
       d="m 18.429396,4.3218119 0,2.3117369 1.369292,0 c 0.459244,7e-7 0.79875,-0.094384 1.018516,-0.283156 C 21.03978,6.1588057 21.151071,5.8671975 21.151075,5.4755673 21.151071,5.0811233 21.03978,4.7909238 20.817204,4.604968 20.597438,4.4162002 20.257932,4.3218149 19.798688,4.3218119 l -1.369292,0 m 0,-2.594893 0,1.9017946 1.263636,0 c 0.416983,3.7e-6 0.726905,-0.077477 0.929767,-0.2324416 C 20.82847,3.2384975 20.931308,2.9990125 20.931312,2.6778162 20.931308,2.3594467 20.82847,2.1213704 20.622799,1.9635867 20.419937,1.8058137 20.110015,1.7269246 19.693032,1.7269189 l -1.263636,0 m -0.853695,-0.7015508 2.180725,0 c 0.650832,6.3e-6 1.152342,0.1352449 1.50453,0.4057161 0.35218,0.2704831 0.528272,0.6550678 0.528277,1.1537554 -5e-6,0.3859982 -0.09016,0.6931025 -0.270478,0.9213138 -0.180323,0.2282189 -0.445165,0.3705012 -0.794527,0.4268472 0.419799,0.090162 0.745217,0.278933 0.976254,0.5663121 0.233845,0.2845674 0.35077,0.6409774 0.350776,1.0692312 -6e-6,0.5634959 -0.191594,0.9987951 -0.574765,1.3058989 -0.383181,0.3071048 -0.928361,0.4606569 -1.635543,0.4606569 l -2.265249,0 0,-6.3097316"
       style="font-size:8.65527821px;font-family:OpenSymbol;-inkscape-font-specification:OpenSymbol"
       id="path2996" />
    <path
       d="m 28.08206,1.5113822 0,0.9001828 C 27.794672,2.1439102 27.487568,1.9438698 27.160746,1.8114431 26.836732,1.6790276 26.491592,1.612817 26.125324,1.6128113 c -0.721276,5.7e-6 -1.2735,0.2211771 -1.656674,0.663515 -0.383178,0.4395304 -0.574766,1.0762788 -0.574765,1.9102469 -1e-6,0.831157 0.191587,1.4679053 0.574765,1.9102469 0.383174,0.4395267 0.935398,0.6592894 1.656674,0.6592888 0.366268,6e-7 0.711408,-0.06621 1.035422,-0.1986319 0.326822,-0.1324203 0.633926,-0.3324607 0.921314,-0.6001218 l 0,0.8917303 c -0.298658,0.2028584 -0.615623,0.3550018 -0.950898,0.4564307 -0.332466,0.101429 -0.68465,0.1521435 -1.056552,0.1521436 -0.955126,-1e-7 -1.707391,-0.2916083 -2.256796,-0.8748255 -0.549408,-0.5860331 -0.824112,-1.384786 -0.824111,-2.3962611 -1e-6,-1.0142863 0.274703,-1.8130392 0.824111,-2.3962611 0.549405,-0.5860283 1.30167,-0.87904527 2.256796,-0.8790517 0.377537,6.43e-6 0.732539,0.0507209 1.065005,0.1521436 0.335274,0.098618 0.649422,0.2479436 0.942445,0.4479782"
       style="font-size:8.65527821px;font-family:OpenSymbol;-inkscape-font-specification:OpenSymbol"
       id="path2998" />
  </g>
  <g
     transform="scale(0.88744146,1.1268349)"
     style="font-size:9.76912498px;font-style:normal;font-variant:normal;font-weight:normal;font-stretch:normal;line-height:125%;letter-spacing:0px;word-spacing:0px;fill:#000000;fill-opacity:1;stroke:none;font-family:Garuda;-inkscape-font-specification:Garuda"
     id="text3040">
    <path
       d="m 13.751739,21.490968 1.349252,0 0,-4.656962 -1.467822,0.294383 0,-0.75231 1.459644,-0.294382 0.825906,0 0,5.409271 1.349251,0 0,0.695069 -3.516231,0 0,-0.695069"
       style="font-size:8.37353611px;font-family:OpenSymbol;-inkscape-font-specification:OpenSymbol"
       id="path3001" />
    <path
       d="m 19.651648,21.490968 2.882491,0 0,0.695069 -3.876031,0 0,-0.695069 c 0.313461,-0.324364 0.740042,-0.759123 1.279744,-1.304276 0.542424,-0.547876 0.883144,-0.900861 1.022161,-1.058958 0.264395,-0.297105 0.448384,-0.547874 0.551966,-0.75231 0.106301,-0.207154 0.159453,-0.410223 0.159457,-0.609208 -4e-6,-0.32436 -0.114485,-0.588759 -0.343446,-0.793196 -0.226241,-0.204426 -0.521986,-0.306642 -0.887235,-0.306648 -0.258949,6e-6 -0.532888,0.04498 -0.821817,0.134925 -0.286206,0.08996 -0.592853,0.226244 -0.919944,0.408864 l 0,-0.834082 c 0.332542,-0.133557 0.643278,-0.23441 0.93221,-0.30256 0.288929,-0.06814 0.553328,-0.10221 0.793197,-0.102216 0.632373,6e-6 1.136638,0.1581 1.512797,0.474283 0.37615,0.316193 0.564228,0.738686 0.564232,1.267478 -4e-6,0.250774 -0.04771,0.489278 -0.143102,0.715512 -0.09268,0.223516 -0.26304,0.487915 -0.51108,0.793197 -0.06815,0.07905 -0.284846,0.308013 -0.650094,0.686891 -0.365255,0.376157 -0.880423,0.903591 -1.545506,1.582304"
       style="font-size:8.37353611px;font-family:OpenSymbol;-inkscape-font-specification:OpenSymbol"
       id="path3003" />
    <path
       d="m 26.774059,18.894681 c 0.395232,0.0845 0.703243,0.260313 0.924033,0.527435 0.223508,0.267127 0.335264,0.596944 0.335269,0.989451 -5e-6,0.602394 -0.207162,1.068499 -0.621474,1.398315 -0.414319,0.329817 -1.003082,0.494726 -1.766292,0.494726 -0.256224,0 -0.520622,-0.0259 -0.793197,-0.07769 -0.269851,-0.04906 -0.549241,-0.124022 -0.838171,-0.224875 l 0,-0.797285 c 0.228963,0.133563 0.479733,0.234416 0.75231,0.30256 0.272574,0.06814 0.557416,0.102216 0.854526,0.102216 0.517891,0 0.911763,-0.102216 1.181617,-0.306648 0.272572,-0.204431 0.40886,-0.501539 0.408864,-0.891324 -4e-6,-0.359798 -0.126752,-0.640551 -0.380244,-0.84226 -0.250773,-0.204429 -0.601033,-0.306645 -1.05078,-0.306648 l -0.711424,0 0,-0.678714 0.744133,0 c 0.406135,3e-6 0.716872,-0.08041 0.93221,-0.24123 0.215331,-0.163542 0.322999,-0.397957 0.323003,-0.703246 -4e-6,-0.313458 -0.11176,-0.553325 -0.335269,-0.719601 -0.22079,-0.168992 -0.53834,-0.25349 -0.952653,-0.253496 -0.226241,6e-6 -0.468833,0.02454 -0.727778,0.0736 -0.258949,0.04907 -0.543791,0.12539 -0.854526,0.228964 l 0,-0.735956 c 0.313461,-0.08722 0.60648,-0.152636 0.879058,-0.196255 0.275299,-0.0436 0.534246,-0.06541 0.776841,-0.06542 0.626922,6e-6 1.12301,0.143109 1.488265,0.429308 0.365248,0.283484 0.547874,0.667816 0.547878,1.152996 -4e-6,0.337999 -0.09677,0.624203 -0.290293,0.858615 -0.193533,0.231693 -0.468835,0.392513 -0.825906,0.482459"
       style="font-size:8.37353611px;font-family:OpenSymbol;-inkscape-font-specification:OpenSymbol"
       id="path3005" />
  </g>
</svg>
