<svg id="Слой_1" data-name="Слой 1"
  xmlns:cc="http://creativecommons.org/ns#"
  xmlns:rdf="http://www.w3.org/1999/02/22-rdf-syntax-ns#"
  xmlns="http://www.w3.org/2000/svg" viewBox="0 0 26 26">
  <metadata id="metadata43">
    <rdf:RDF>
      <cc:Work rdf:about="">
        <cc:license rdf:resource="http://creativecommons.org/licenses/by/4.0/" />
      </cc:Work>
      <cc:License rdf:about="http://creativecommons.org/licenses/by/4.0/">
        <cc:permits rdf:resource="http://creativecommons.org/ns#Reproduction" />
        <cc:permits rdf:resource="http://creativecommons.org/ns#Distribution" />
        <cc:requires rdf:resource="http://creativecommons.org/ns#Notice" />
        <cc:requires rdf:resource="http://creativecommons.org/ns#Attribution" />
        <cc:permits rdf:resource="http://creativecommons.org/ns#DerivativeWorks" />
      </cc:License>
    </rdf:RDF>
  </metadata>
  <defs>
    <style>.cls-1{fill:none;stroke:#e61c50;stroke-linecap:round;stroke-linejoin:round;}.cls-2{fill:#e61c50;}.cls-3{fill:#b9b9b9;}.cls-4{fill:#545454;}</style>
  </defs>
  <title>annotate_down_right</title>
  <line class="cls-1" x1="6.0131" y1="13.878" x2="6.0131" y2="8.6962"/>
  <polygon class="cls-2" points="7.03 13.184 6.013 16.979 4.996 13.184 7.03 13.184"/>
  <line class="cls-1" x1="20.5017" y1="13.878" x2="20.5017" y2="8.6962"/>
  <polygon class="cls-2" points="21.519 13.184 20.502 16.979 19.485 13.184 21.519 13.184"/>
  <line class="cls-1" x1="6.0131" y1="17.6273" x2="16.9688" y2="10.8657"/>
  <polygon class="cls-2" points="16.905 12.271 19.984 9.005 15.684 10.293 16.905 12.271"/>
  <rect class="cls-3" x="1.0024" y="1.0019" width="10" height="8"/>
  <path class="cls-4" d="M3.123,5.2764V7.61H2.1865V1.9854H4.2607A2.2176,2.2176,0,0,1,5.7129,2.41,1.4861,1.4861,0,0,1,6.2256,3.623,1.2578,1.2578,0,0,1,6,4.375a1.5437,1.5437,0,0,1-.6572.5039,1.1758,1.1758,0,0,1,.6826.4922,1.5927,1.5927,0,0,1,.208.8408V6.68a1.9053,1.9053,0,0,0,.0615.4824.6768.6768,0,0,0,.208.3594V7.61H5.54a.63.63,0,0,1-.1992-.4014,3.4028,3.4028,0,0,1-.0439-.5371V6.22a.9513.9513,0,0,0-.2461-.6885.9013.9013,0,0,0-.6787-.2548Zm0-.753H4.21a1.2688,1.2688,0,0,0,.8212-.2168.8121.8121,0,0,0,.2579-.66.8787.8787,0,0,0-.2539-.667,1.0893,1.0893,0,0,0-.7745-.2412H3.123Z"/>
  <path class="cls-4" d="M9.1719,7.61H8.2354V2.877H7.0947V2.1855l2.0772-.2Z"/>
  <rect class="cls-3" x="15.01" y="1.0019" width="10" height="8"/>
  <rect class="cls-3" x="1.0024" y="17" width="10" height="8"/>
  <rect class="cls-3" x="15.01" y="17" width="10" height="8"/>
  <path class="cls-4" d="M16.9082,21.5244v2.334h-.9365v-5.625h2.0742a2.2173,2.2173,0,0,1,1.4521.4248,1.4861,1.4861,0,0,1,.5127,1.2129,1.2581,1.2581,0,0,1-.2255.7519,1.5442,1.5442,0,0,1-.6573.504,1.175,1.175,0,0,1,.6826.4921,1.5931,1.5931,0,0,1,.2081.8409v.4677a1.9067,1.9067,0,0,0,.0615.4825.6758.6758,0,0,0,.208.3593v.0889h-.9629a.6294.6294,0,0,1-.1992-.4014,3.4031,3.4031,0,0,1-.044-.5371v-.4521a.9507.9507,0,0,0-.2461-.6885.9012.9012,0,0,0-.6787-.2549Zm0-.7529h1.0869a1.27,1.27,0,0,0,.8213-.2168.8124.8124,0,0,0,.2578-.66.8785.8785,0,0,0-.2539-.667,1.0889,1.0889,0,0,0-.7744-.2412H16.9082Z"/>
  <path class="cls-4" d="M23.7705,21.8535h.709v.7529h-.709v1.252h-.9326v-1.252H20.43l-.0235-.5722,2.4-3.8008h.9639Zm-2.4394,0h1.5068V19.5693l-.0234-.0068-.0772.166Z"/>
</svg>