<?xml version="1.0" encoding="UTF-8" standalone="no"?>
<svg
   xmlns:dc="http://purl.org/dc/elements/1.1/"
   xmlns:cc="http://creativecommons.org/ns#"
   xmlns:rdf="http://www.w3.org/1999/02/22-rdf-syntax-ns#"
   xmlns:svg="http://www.w3.org/2000/svg"
   xmlns="http://www.w3.org/2000/svg"
   xmlns:xlink="http://www.w3.org/1999/xlink"
   xmlns:sodipodi="http://sodipodi.sourceforge.net/DTD/sodipodi-0.dtd"
   xmlns:inkscape="http://www.inkscape.org/namespaces/inkscape"
   style="enable-background:new"
   height="26"
   width="26"
   version="1.0"
   id="svg2"
   inkscape:version="0.48.4 r9939"
   sodipodi:docname="apply.svg">
  <metadata
     id="metadata99">
    <rdf:RDF>
      <cc:Work
         rdf:about="">
        <dc:format>image/svg+xml</dc:format>
        <dc:type
           rdf:resource="http://purl.org/dc/dcmitype/StillImage" />
        <dc:title></dc:title>
      </cc:Work>
    </rdf:RDF>
  </metadata>
  <sodipodi:namedview
     pagecolor="#ffffff"
     bordercolor="#666666"
     borderopacity="1"
     objecttolerance="10"
     gridtolerance="10"
     guidetolerance="10"
     inkscape:pageopacity="0"
     inkscape:pageshadow="2"
     inkscape:window-width="1119"
     inkscape:window-height="823"
     id="namedview97"
     showgrid="true"
     borderlayer="true"
     inkscape:zoom="28.639971"
     inkscape:cx="13.118885"
     inkscape:cy="13.473811"
     inkscape:window-x="0"
     inkscape:window-y="0"
     inkscape:window-maximized="0"
     inkscape:current-layer="svg2">
    <inkscape:grid
       type="xygrid"
       id="grid3080"
       empspacing="2"
       visible="true"
       enabled="true"
       snapvisiblegridlinesonly="true"
       dotted="false" />
  </sodipodi:namedview>
  <defs
     id="defs4">
    <linearGradient
       id="a">
      <stop
         stop-color="#fff"
         offset="0"
         id="stop7" />
      <stop
         stop-color="#fff"
         stop-opacity="0"
         offset="1"
         id="stop9" />
    </linearGradient>
    <linearGradient
       id="c">
      <stop
         stop-color="#f0ff80"
         offset="0"
         id="stop12" />
      <stop
         stop-color="#f0ff80"
         stop-opacity="0"
         offset="1"
         id="stop14" />
    </linearGradient>
    <radialGradient
       id="ad"
       fy="99.884003"
       gradientUnits="userSpaceOnUse"
       cy="77.542"
       cx="54.537998"
       gradientTransform="matrix(1.3117,5.847e-8,-4.3853e-8,0.98379,-16.906,1.3137)"
       r="48">
      <stop
         stop-color="#66f515"
         offset="0"
         id="stop17" />
      <stop
         stop-color="#002e00"
         offset="1"
         id="stop19" />
    </radialGradient>
    <linearGradient
       id="y"
       y2="30.849001"
       gradientUnits="userSpaceOnUse"
       x2="89.091003"
       gradientTransform="translate(0,4)"
       y1="103.9"
       x1="89.091003">
      <stop
         stop-color="#003100"
         offset="0"
         id="stop22" />
      <stop
         stop-color="#008c00"
         offset="1"
         id="stop24" />
    </linearGradient>
    <linearGradient
       id="z"
       y2="89.995003"
       gradientUnits="userSpaceOnUse"
       x2="83.324997"
       gradientTransform="translate(-2.3932e-5,4)"
       y1="24.062"
       x1="83.324997">
      <stop
         stop-color="#bfffbf"
         offset="0"
         id="stop27" />
      <stop
         stop-color="#bfffbf"
         stop-opacity="0"
         offset="1"
         id="stop29" />
    </linearGradient>
    <radialGradient
       id="ae"
       fx="53.16"
       fy="87.081001"
       gradientUnits="userSpaceOnUse"
       cy="95.459"
       cx="52.792"
       gradientTransform="matrix(0.56466,8.5323e-8,-1.3866e-7,0.91764,24.424,0.14392)"
       r="52">
      <stop
         stop-color="#001400"
         offset="0"
         id="stop32" />
      <stop
         stop-color="#001400"
         stop-opacity="0"
         offset="1"
         id="stop34" />
    </radialGradient>
    <radialGradient
       id="b"
       xlink:href="#a"
       gradientUnits="userSpaceOnUse"
       cy="29.375"
       cx="99.765999"
       gradientTransform="matrix(1.9647,3.4243e-7,-1.0415e-6,5.9753,-96.241,-146.15)"
       r="3.0156" />
    <radialGradient
       id="af"
       xlink:href="#a"
       gradientUnits="userSpaceOnUse"
       cy="29.375"
       cx="99.765999"
       gradientTransform="matrix(1.9647,3.4243e-7,-1.0415e-6,5.9753,-167.24,-126.15)"
       r="3.0156" />
    <linearGradient
       id="aa"
       y2="47.379002"
       xlink:href="#c"
       gradientUnits="userSpaceOnUse"
       x2="71.603996"
       y1="96.884003"
       x1="71.603996" />
    <filter
       id="ai"
       color-interpolation-filters="sRGB">
      <feGaussianBlur
         stdDeviation="0.425"
         id="feGaussianBlur40" />
    </filter>
    <linearGradient
       id="ab"
       y2="46.277"
       xlink:href="#a"
       gradientUnits="userSpaceOnUse"
       x2="77.138"
       y1="74.838997"
       x1="87.532997" />
    <linearGradient
       id="ac"
       y2="69.837997"
       xlink:href="#a"
       gradientUnits="userSpaceOnUse"
       x2="83.324997"
       gradientTransform="translate(0,4)"
       y1="24.062"
       x1="83.324997" />
    <radialGradient
       id="ag"
       xlink:href="#c"
       gradientUnits="userSpaceOnUse"
       cy="29.375"
       cx="99.765999"
       gradientTransform="matrix(1.9647,3.4243e-7,-1.0415e-6,5.9753,-167.24,-126.15)"
       r="3.0156" />
    <filter
       id="aj"
       color-interpolation-filters="sRGB">
      <feGaussianBlur
         stdDeviation="0.4605"
         id="feGaussianBlur46" />
    </filter>
    <radialGradient
       id="ah"
       xlink:href="#a"
       gradientUnits="userSpaceOnUse"
       cy="51.919998"
       cx="53.632999"
       gradientTransform="matrix(1.0961,0.087912,-0.10023,1.2497,1.0599,-18.687)"
       r="52" />
    <filter
       id="ak"
       color-interpolation-filters="sRGB">
      <feBlend
         mode="lighten"
         in2="BackgroundImage"
         id="feBlend50" />
    </filter>
    <filter
       id="al"
       height="1.2058001"
       width="1.3647"
       color-interpolation-filters="sRGB"
       y="-0.10289"
       x="-0.18233">
      <feGaussianBlur
         stdDeviation="0.45819706"
         id="feGaussianBlur53" />
    </filter>
    <filter
       id="am"
       height="1.2058001"
       width="1.3647"
       color-interpolation-filters="sRGB"
       y="-0.10289"
       x="-0.18233">
      <feGaussianBlur
         stdDeviation="0.45819706"
         id="feGaussianBlur56" />
    </filter>
    <filter
       id="v"
       height="1.3703001"
       width="1.2077"
       color-interpolation-filters="sRGB"
       y="-0.18513"
       x="-0.10383">
      <feGaussianBlur
         stdDeviation="0.45819702"
         id="feGaussianBlur59" />
    </filter>
    <filter
       id="w"
       height="1.2058001"
       width="1.3647"
       color-interpolation-filters="sRGB"
       y="-0.10289"
       x="-0.18233">
      <feGaussianBlur
         stdDeviation="0.45819706"
         id="feGaussianBlur62" />
    </filter>
    <filter
       id="x"
       height="1.3703001"
       width="1.2077"
       color-interpolation-filters="sRGB"
       y="-0.18513"
       x="-0.10383">
      <feGaussianBlur
         stdDeviation="0.45819702"
         id="feGaussianBlur65" />
    </filter>
    <radialGradient
       inkscape:collect="always"
       xlink:href="#a"
       id="radialGradient3076"
       gradientUnits="userSpaceOnUse"
       gradientTransform="matrix(1.9647,3.4243e-7,-1.0415e-6,5.9753,-96.241,-146.15)"
       cx="99.765999"
       cy="29.375"
       r="3.0156" />
    <radialGradient
       inkscape:collect="always"
       xlink:href="#a"
       id="radialGradient3078"
       gradientUnits="userSpaceOnUse"
       gradientTransform="matrix(1.9647,3.4243e-7,-1.0415e-6,5.9753,-96.241,-146.15)"
       cx="99.765999"
       cy="29.375"
       r="3.0156" />
  </defs>
  <g
     transform="matrix(0.24502174,0,0,0.25091083,-2.5625062,-3.5450263)"
     id="g67">
    <path
       d="M 54.394,74.154 C 46.246,65.804 28.631,47.75 28.631,47.75 L 16,60.698 54.394,100.05 112,41 99.367,28.053 54.394,74.154 z"
       id="path69"
       inkscape:connector-curvature="0"
       style="fill:none;stroke:#004d00;stroke-width:8.10000038;stroke-linecap:round;stroke-linejoin:round;filter:url(#aj)" />
    <path
       d="M 54.394,74.154 C 46.246,65.804 28.631,47.75 28.631,47.75 L 16,60.698 54.394,100.05 112,41 99.367,28.053 54.394,74.154 z"
       id="path71"
       inkscape:connector-curvature="0"
       style="fill:none;stroke:url(#y);stroke-width:8;stroke-linecap:round;stroke-linejoin:round" />
    <path
       d="M 54.394,74.154 C 46.246,65.804 28.631,47.75 28.631,47.75 L 16,60.698 54.394,100.05 112,41 99.367,28.053 54.394,74.154 z"
       id="path73"
       inkscape:connector-curvature="0"
       style="opacity:0.28570999;fill:none;stroke:url(#ah);stroke-width:8;stroke-linecap:round;stroke-linejoin:round;filter:url(#ak)" />
    <path
       d="m 28.406,44.031 c -0.14989,-0.0024 -0.28658,0.01658 -0.4375,0.03125 -0.82719,0.08205 -1.5953,0.42708 -2.2188,0.96875 l 1.6875,9.6875 c 0.11092,-0.11368 0.85037,-0.84818 0.9375,-0.9375 l 0.375,0.375 3.0312,-8.3438 -0.5625,-0.5625 c -0.74135,-0.75959 -1.7633,-1.2019 -2.8125,-1.2188 z"
       transform="matrix(1,0,0,-1,26,147.75)"
       id="path75"
       inkscape:connector-curvature="0"
       style="opacity:0.40951999;fill:url(#ag);filter:url(#al)" />
    <path
       d="m 99.406,24.031 c -0.14989,-0.0024 -0.28658,0.01658 -0.4375,0.03125 -0.82719,0.08205 -1.5953,0.42708 -2.2188,0.96875 l 1.6875,9.6875 c 0.11092,-0.11368 0.85037,-0.84818 0.9375,-0.9375 l 0.375,0.375 3.0312,-8.3438 -0.5625,-0.5625 c -0.74135,-0.75959 -1.7633,-1.2019 -2.8125,-1.2188 z"
       transform="matrix(-0.34202,0.93969,0.93969,0.34202,24.21,-42.203)"
       id="path77"
       inkscape:connector-curvature="0"
       style="opacity:0.2381;fill:url(#radialGradient3076);filter:url(#v)" />
    <path
       d="m 28.406,44.031 c -0.14989,-0.0024 -0.28658,0.01658 -0.4375,0.03125 -0.82719,0.08205 -1.5953,0.42708 -2.2188,0.96875 l 1.6875,9.6875 c 0.11092,-0.11368 0.85037,-0.84818 0.9375,-0.9375 l 0.375,0.375 3.0312,-8.3438 -0.5625,-0.5625 c -0.74135,-0.75959 -1.7633,-1.2019 -2.8125,-1.2188 z"
       id="path79"
       inkscape:connector-curvature="0"
       style="opacity:0.77619001;fill:url(#af);filter:url(#am)" />
    <path
       d="m 99.406,24.031 c -0.14989,-0.0024 -0.28658,0.01658 -0.4375,0.03125 -0.82719,0.08205 -1.5953,0.42708 -2.2188,0.96875 l 1.6875,9.6875 c 0.11092,-0.11368 0.85037,-0.84818 0.9375,-0.9375 l 0.375,0.375 3.0312,-8.3438 -0.5625,-0.5625 c -0.74135,-0.75959 -1.7633,-1.2019 -2.8125,-1.2188 z"
       transform="matrix(0.34202,0.93969,-0.93969,0.34202,104.53,-62.203)"
       id="path81"
       inkscape:connector-curvature="0"
       style="opacity:0.37142998;fill:url(#radialGradient3078);filter:url(#x)" />
    <path
       d="m 99.406,24.031 c -0.14989,-0.0024 -0.28658,0.01658 -0.4375,0.03125 -0.82719,0.08205 -1.5953,0.42708 -2.2188,0.96875 l 1.6875,9.6875 c 0.11092,-0.11368 0.85037,-0.84818 0.9375,-0.9375 l 0.375,0.375 3.0312,-8.3438 -0.5625,-0.5625 c -0.74135,-0.75959 -1.7633,-1.2019 -2.8125,-1.2188 z"
       transform="translate(-2.3932e-5,0)"
       id="path83"
       inkscape:connector-curvature="0"
       style="opacity:0.87142998;fill:url(#b);filter:url(#w)" />
    <path
       d="M 54.394,74.154 C 46.246,65.804 28.631,47.75 28.631,47.75 L 16,60.698 54.394,100.05 112,41 99.367,28.053 54.394,74.154 z"
       id="path85"
       inkscape:connector-curvature="0"
       style="opacity:0.28570999;fill:none;stroke:url(#ae);stroke-width:8;stroke-linecap:round;stroke-linejoin:round" />
    <path
       d="M 54.394,74.154 C 46.246,65.804 28.631,47.75 28.631,47.75 L 16,60.698 54.394,100.05 112,41 99.367,28.053 54.394,74.154 z"
       id="path87"
       inkscape:connector-curvature="0"
       style="fill:url(#ad)" />
    <path
       d="m 99.375,28.062 c -3e-6,0 -35.257,36.14 -44.969,46.094 C 46.258,65.806 28.625,47.75 28.625,47.75 L 16,60.688 32.469,77.563 c 0.18891,4.87e-4 0.37338,0 0.5625,0 17.53,0 34.136,-2.0931 49.031,-5.8438 l 29.937,-30.719 -12.625,-12.938 z"
       id="path89"
       inkscape:connector-curvature="0"
       style="fill:url(#z)" />
    <path
       d="M 54.394,74.154 C 46.246,65.804 28.631,47.75 28.631,47.75 L 16,60.698 54.394,100.05 112,41 99.367,28.053 54.394,74.154 z"
       id="path91"
       inkscape:connector-curvature="0"
       style="fill:none;stroke:url(#aa);filter:url(#ai)" />
    <path
       d="m 99.375,28.062 c 0,0 -0.40024,0.43134 -0.40625,0.4375 l 12.188,12.281 -30,30.219 c -14.927,3.6876 -31.057,6.2187 -48.625,6.2188 -0.12636,0 -0.25009,-10e-7 -0.375,0 l 0.3125,0.34375 c 0.18891,4.87e-4 0.37338,0 0.5625,0 17.53,0 34.136,-2.0931 49.031,-5.8438 l 29.936,-30.719 -12.625,-12.938 z"
       transform="translate(-2.3932e-5,0)"
       id="path93"
       inkscape:connector-curvature="0"
       style="fill:url(#ab)" />
    <path
       d="m 99.375,28.062 c -3e-6,0 -35.257,36.14 -44.969,46.094 C 46.258,65.806 28.625,47.75 28.625,47.75 L 16,60.688 l 0.5,0.5 12.125,-12.438 c 0,0 17.633,18.056 25.781,26.406 9.712,-9.954 44.969,-46.094 44.969,-46.094 L 111.5,41.5 112,41 99.375,28.062 z"
       transform="translate(-2.3932e-5,0)"
       id="path95"
       inkscape:connector-curvature="0"
       style="fill:url(#ac)" />
  </g>
</svg>
