<?xml version="1.0" encoding="UTF-8" standalone="no"?>
<!-- Created with Inkscape (http://www.inkscape.org/) -->

<svg
   xmlns:dc="http://purl.org/dc/elements/1.1/"
   xmlns:cc="http://creativecommons.org/ns#"
   xmlns:rdf="http://www.w3.org/1999/02/22-rdf-syntax-ns#"
   xmlns:svg="http://www.w3.org/2000/svg"
   xmlns="http://www.w3.org/2000/svg"
   version="1.1"
   width="48"
   height="48"
   id="svg18970">
  <metadata
     id="metadata18987">
    <rdf:RDF>
      <cc:Work
         rdf:about="">
        <dc:format>image/svg+xml</dc:format>
        <dc:type
           rdf:resource="http://purl.org/dc/dcmitype/StillImage" />
        <dc:title></dc:title>
      </cc:Work>
    </rdf:RDF>
  </metadata>
  <defs
     id="defs18972" />
  <path
     d="m 1,2 0,6 2,0 2,-3 4,0 0,14.5 -3,2 0,1.5 6,0 6,0 0,-1.5 -3,-2 0,-14.5 4,0 2,3 2,0 0,-6 -11,0 z"
     id="path19013"
     style="fill:#00009b;fill-rule:evenodd" />
  <path
     d="m 25,2 0,6 2,0 2,-3 4,0 0,14.5 -3,2 0,1.5 6,0 6,0 0,-1.5 -3,-2 0,-14.5 4,0 2,3 2,0 0,-6 -11,0 z"
     id="path3308"
     style="opacity:0.7;fill:#00009b;fill-rule:evenodd" />
  <path
     d="m 1,25 0,6 2,0 2,-3 4,0 0,14.5 -3,2 0,1.5 6,0 6,0 0,-1.5 -3,-2 0,-14.5 4,0 2,3 2,0 0,-6 -11,0 z"
     id="path3310"
     style="opacity:0.7;fill:#00009b;fill-rule:evenodd" />
  <path
     d="m 25,25 0,6 2,0 2,-3 4,0 0,14.5 -3,2 0,1.5 6,0 6,0 0,-1.5 -3,-2 0,-14.5 4,0 2,3 2,0 0,-6 -11,0 z"
     id="path3312"
     style="opacity:0.7;fill:#00009b;fill-rule:evenodd" />
</svg>
