<?xml version="1.0" encoding="UTF-8" standalone="no"?>
<svg
   xmlns:dc="http://purl.org/dc/elements/1.1/"
   xmlns:cc="http://creativecommons.org/ns#"
   xmlns:rdf="http://www.w3.org/1999/02/22-rdf-syntax-ns#"
   xmlns:svg="http://www.w3.org/2000/svg"
   xmlns="http://www.w3.org/2000/svg"
   xmlns:xlink="http://www.w3.org/1999/xlink"
   xmlns:sodipodi="http://sodipodi.sourceforge.net/DTD/sodipodi-0.dtd"
   xmlns:inkscape="http://www.inkscape.org/namespaces/inkscape"
   height="48"
   width="48"
   version="1.1"
   viewBox="0 0 48 48"
   id="svg2"
   inkscape:version="0.91 r13725"
   sodipodi:docname="autoplace_fields.svg">
  <metadata
     id="metadata151">
    <rdf:RDF>
      <cc:Work
         rdf:about="">
        <dc:format>image/svg+xml</dc:format>
        <dc:type
           rdf:resource="http://purl.org/dc/dcmitype/StillImage" />
      </cc:Work>
    </rdf:RDF>
  </metadata>
  <sodipodi:namedview
     pagecolor="#ffffff"
     bordercolor="#666666"
     borderopacity="1"
     objecttolerance="10"
     gridtolerance="10"
     guidetolerance="10"
     inkscape:pageopacity="0"
     inkscape:pageshadow="2"
     inkscape:window-width="1676"
     inkscape:window-height="994"
     id="namedview149"
     showgrid="false"
     inkscape:zoom="6.9532167"
     inkscape:cx="19.533569"
     inkscape:cy="26.564532"
     inkscape:window-x="0"
     inkscape:window-y="54"
     inkscape:window-maximized="0"
     inkscape:current-layer="svg2" />
  <defs
     id="defs4">
    <linearGradient
       id="a">
      <stop
         stop-color="#fff"
         offset="0"
         id="stop7" />
      <stop
         stop-color="#babaff"
         offset="1"
         id="stop9" />
    </linearGradient>
    <linearGradient
       id="j"
       y2="10.441"
       xlink:href="#a"
       gradientUnits="userSpaceOnUse"
       x2="12.136"
       gradientTransform="matrix(2.2734557,0,0,2.6193664,-58.250764,5.4148976)"
       y1="1.9828"
       x1="3.4673" />
    <linearGradient
       id="b"
       y2="7.8438"
       xlink:href="#a"
       gradientUnits="userSpaceOnUse"
       x2="12.922"
       y1="6.0625"
       x1="11.078"
       gradientTransform="matrix(2.5619,0,0,2.3244,-58.266136,5.4148976)" />
    <linearGradient
       id="k"
       y2="14.691"
       gradientUnits="userSpaceOnUse"
       x2="30.432"
       gradientTransform="translate(6.3922,12.185)"
       y1="12.338"
       x1="28.079">
      <stop
         stop-color="#fcaf3e"
         offset="0"
         id="stop14" />
      <stop
         stop-color="#ce5c00"
         offset="1"
         id="stop16" />
    </linearGradient>
    <linearGradient
       id="l"
       y2="22.119"
       gradientUnits="userSpaceOnUse"
       x2="22.81"
       gradientTransform="translate(6.3922,12.185)"
       y1="21.481"
       x1="23.448">
      <stop
         stop-color="#ce5c00"
         offset="0"
         id="stop19" />
      <stop
         stop-color="#ce5c00"
         offset="1"
         id="stop21" />
    </linearGradient>
    <linearGradient
       id="m"
       y2="32.714"
       gradientUnits="userSpaceOnUse"
       x2="25.485"
       y1="34.39"
       x1="26.379">
      <stop
         stop-color="#e9b96e"
         offset="0"
         id="stop24" />
      <stop
         stop-color="#fff"
         offset="1"
         id="stop26" />
    </linearGradient>
    <radialGradient
       id="p"
       gradientUnits="userSpaceOnUse"
       cy="128"
       cx="-138.84"
       gradientTransform="matrix(.35473 -.34328 .35696 .34544 130.15 -71.026)"
       r="9.1267">
      <stop
         stop-color="#f9a9a9"
         offset="0"
         id="stop29" />
      <stop
         stop-color="#ab5f5f"
         offset="1"
         id="stop31" />
    </radialGradient>
    <linearGradient
       id="n"
       y2="134.25"
       gradientUnits="userSpaceOnUse"
       x2="-158.75"
       gradientTransform="matrix(.20949 -.20274 .20949 .20274 129.28 -31.999)"
       y1="115.94"
       x1="-158.75">
      <stop
         stop-color="#ddd"
         offset="0"
         id="stop34" />
      <stop
         stop-color="#fff"
         offset=".34468"
         id="stop36" />
      <stop
         stop-color="#737373"
         offset=".72695"
         id="stop38" />
      <stop
         stop-color="#bbb"
         offset="1"
         id="stop40" />
    </linearGradient>
    <linearGradient
       id="o"
       y2="10.441"
       xlink:href="#a"
       gradientUnits="userSpaceOnUse"
       x2="12.136"
       gradientTransform="matrix(2.246184,0,0,2.7037,-1.2081619,11.548735)"
       y1="1.9828"
       x1="3.4673" />
    <linearGradient
       inkscape:collect="always"
       xlink:href="#a"
       id="linearGradient3479"
       gradientUnits="userSpaceOnUse"
       x1="11.078"
       y1="6.0625"
       x2="12.922"
       y2="7.8438"
       gradientTransform="matrix(2.531196,0,0,2.3993,-1.2229579,11.548735)" />
  </defs>
  <g
     id="g4323">
    <g
       transform="matrix(2.531196,0,0,2.3993,-13.87883,-17.842265)"
       id="g107"
       style="fill:#9b9b9b">
      <path
         d="m 8,13.25 0,14 10.5,-7 -10.5,-7 z"
         id="path109"
         inkscape:connector-curvature="0"
         style="fill-rule:evenodd" />
      <rect
         y="17.25"
         width="1.9942"
         x="6.0057998"
         height="1"
         id="rect111" />
      <rect
         y="22.25"
         width="2"
         x="6"
         height="1"
         id="rect113" />
      <path
         d="m 14.5,6.5 a 1.5,1.5 0 1 1 -3,0 1.5,1.5 0 1 1 3,0 z"
         transform="matrix(1.3333,0,0,1.3333,0.66664,11.583)"
         id="path115"
         inkscape:connector-curvature="0" />
      <rect
         y="19.75"
         width="2.4942"
         x="19.506001"
         height="1"
         id="rect117" />
    </g>
    <rect
       transform="matrix(-1.754568e-7,1,-1,-4.4663889e-8,0,0)"
       height="2.5311959"
       width="2.3993001"
       y="-8.9018316"
       x="16.347736"
       id="rect119"
       style="fill:#ffffff" />
    <path
       d="m 3.8394341,11.548735 0,33.591 26.5766399,-16.795 -26.5766399,-16.796 z"
       id="path121"
       inkscape:connector-curvature="0"
       style="fill-rule:evenodd" />
    <rect
       y="21.146734"
       width="2.5311959"
       x="1.3082383"
       height="2.3993001"
       id="rect123" />
    <rect
       y="33.143135"
       width="2.5311959"
       x="1.3082383"
       height="2.3993001"
       id="rect125" />
    <path
       d="m 6.3853181,16.347735 0,23.993 20.2499999,-11.996 -20.2499999,-11.997 z"
       id="path127"
       style="fill:url(#o);fill-rule:evenodd"
       inkscape:connector-curvature="0" />
    <path
       d="m 34.213624,28.344885 a 5.062338,4.79865 0 0 1 -10.124676,0 5.062338,4.79865 0 1 1 10.124676,0 z"
       id="path129"
       inkscape:connector-curvature="0" />
    <path
       d="m 31.68259,28.343835 a 2.531196,2.3993 0 0 1 -5.062392,0 2.531196,2.3993 0 1 1 5.062392,0 z"
       id="path131"
       style="fill:url(#linearGradient3479)"
       inkscape:connector-curvature="0" />
    <rect
       y="27.144733"
       width="6.3132482"
       x="32.962929"
       height="2.3993001"
       id="rect133" />
    <path
       d="m 22.49337,0.60054242 0,7.19799968 2.531196,2.3992999 2.531196,0 2.531196,-2.3992999 0,-7.19799968 -2.531196,0 0,7.19799968 -2.531196,0 0,-7.19799968 -2.53152,0 z"
       id="path135"
       inkscape:connector-curvature="0"
       style="fill-rule:evenodd" />
    <path
       d="m 32.61729,0.60054242 5.062392,0 2.531196,2.39929998 0,2.3993 -2.531196,2.3992997 -2.531196,0 0,2.3992999 -2.53044,0 0,-4.7986996 5.062392,0 0,-2.3993 -5.06196,0 0,-2.39929998 z"
       id="path147"
       inkscape:connector-curvature="0"
       style="fill-rule:evenodd" />
    <path
       d="m 15.393889,11.860171 6.40475,0 0,2.3244 -3.84285,6.990866 -2.5619,0 3.84285,-6.9732 -3.84285,0 0,-2.342995 z"
       id="path75"
       inkscape:connector-curvature="0"
       style="fill-rule:evenodd" />
    <path
       d="m 39.731939,11.860171 0,2.3244 3.84285,0 0,1.1622 -3.84285,3.4866 0,2.3244 6.40475,0 0,-2.3244 -3.84285,0 3.84285,-3.4866 0,-2.3244 -1.28095,-1.179842 -5.1238,0.01767 z"
       id="path77"
       inkscape:connector-curvature="0"
       style="fill-rule:evenodd" />
    <path
       d="m 32.046239,14.312413 0.01947,4.520958 1.261505,2.3244 3.84285,0 1.300395,-2.452242 0,-4.6488 -1.300395,-2.196488 -3.84285,0 -1.28095,2.452242 z"
       id="path79"
       inkscape:connector-curvature="0"
       style="fill-rule:evenodd" />
    <path
       d="m 33.327189,15.346771 1.28095,-1.1622 1.28095,0 1.28095,1.1622 0,2.3244 -1.28095,1.1622 -1.28095,0 -1.28095,-1.1622 0,-2.3244 z"
       id="path81"
       inkscape:connector-curvature="0"
       style="fill:#ffffff;fill-rule:evenodd" />
    <path
       d="m 23.079589,11.860171 0,5.811 5.1238,0 0,3.4866 2.5619,0 0,-9.2976 -2.5619,0 0,3.4866 -2.5619,0 0,-3.4866 -2.5619,0 z"
       id="path83"
       inkscape:connector-curvature="0"
       style="fill-rule:evenodd" />
  </g>
</svg>
