<svg id="Слой_1" data-name="Слой 1"
  xmlns:cc="http://creativecommons.org/ns#"
  xmlns:rdf="http://www.w3.org/1999/02/22-rdf-syntax-ns#"
  xmlns="http://www.w3.org/2000/svg" viewBox="0 0 26 26">
  <metadata id="metadata43">
    <rdf:RDF>
      <cc:Work rdf:about="">
        <cc:license rdf:resource="http://creativecommons.org/licenses/by/4.0/" />
      </cc:Work>
      <cc:License rdf:about="http://creativecommons.org/licenses/by/4.0/">
        <cc:permits rdf:resource="http://creativecommons.org/ns#Reproduction" />
        <cc:permits rdf:resource="http://creativecommons.org/ns#Distribution" />
        <cc:requires rdf:resource="http://creativecommons.org/ns#Notice" />
        <cc:requires rdf:resource="http://creativecommons.org/ns#Attribution" />
        <cc:permits rdf:resource="http://creativecommons.org/ns#DerivativeWorks" />
      </cc:License>
    </rdf:RDF>
  </metadata>
  <defs>
    <style>.cls-1{fill:#b9b9b9;}.cls-2{fill:#545454;}</style>
  </defs>
  <title>bitmap2component</title>
  <path class="cls-1" d="M6.6929,2.0043H21.3071a3.66,3.66,0,0,1,3.66,3.66v14.67a3.66,3.66,0,0,1-3.66,3.66H6.693a3.6606,3.6606,0,0,1-3.6606-3.6606V5.6648A3.66,3.66,0,0,1,6.6929,2.0043Z"/>
  <path class="cls-2" d="M9.64,14.2842v1.5h1.3706c.0425-.0794.0791-.1608.1294-.2377V14.2842Z"/>
  <rect class="cls-2" x="13.6401" y="12.2842" width="1.5" height="1.5"/>
  <path class="cls-2" d="M10.7993,16.2842H9.64v1.5h1.0856a2.2439,2.2439,0,0,1-.0182-1.1934A2.898,2.898,0,0,1,10.7993,16.2842Z"/>
  <path class="cls-2" d="M19.14,5.7842V4.9528a5.2974,5.2974,0,0,0-1.5-.5356v1.367Z"/>
  <path class="cls-2" d="M15.64,7.2261a2.17,2.17,0,0,1,1.5.553V6.2842h-1.5Z"/>
  <path class="cls-2" d="M9.14,13.0657a5.3532,5.3532,0,0,0-.7765.7185H9.14Z"/>
  <path class="cls-2" d="M13.14,11.5931a10.9691,10.9691,0,0,0-1.1181.1911H13.14Z"/>
  <rect class="cls-2" x="11.6401" y="12.2842" width="1.5" height="1.5"/>
  <path class="cls-2" d="M12.4575,9.4326a2.4358,2.4358,0,0,1,.5672-1.1484H11.64V9.4326Z"/>
  <path class="cls-2" d="M13.64,7.7507a3.1558,3.1558,0,0,1,1.5-.5162v-.95h-1.5Z"/>
  <rect class="cls-2" x="11.6401" y="6.2842" width="1.5" height="1.5"/>
  <path class="cls-2" d="M11.64,14.9558c.094-.0923.1834-.1863.2911-.2742a3.6832,3.6832,0,0,1,.6052-.3974H11.64Z"/>
  <path class="cls-2" d="M14.7964,11.498c-.4055,0-.78.03-1.1563.0591v.2271h1.5V11.498Z"/>
  <rect class="cls-2" x="17.6401" y="6.2842" width="1.5" height="1.5"/>
  <rect class="cls-2" x="19.6401" y="8.2842" width="1.5" height="1.5"/>
  <polygon class="cls-2" points="19.64 10.284 19.64 11.784 20.911 11.784 21.14 10.632 21.14 10.284 19.64 10.284"/>
  <path class="cls-2" d="M19.64,6.2842v1.5h1.5V7.1094a3.651,3.651,0,0,0-.4348-.8252Z"/>
  <rect class="cls-2" x="17.6401" y="18.2842" width="1.5" height="1.5"/>
  <polygon class="cls-2" points="19.64 15.784 20.114 15.784 20.413 14.284 19.64 14.284 19.64 15.784"/>
  <polygon class="cls-2" points="19.64 12.284 19.64 13.784 20.513 13.784 20.811 12.284 19.64 12.284"/>
  <path class="cls-2" d="M20.2931,5.7842a4.7293,4.7293,0,0,0-.653-.5356v.5356Z"/>
  <rect class="cls-2" x="17.6401" y="14.2842" width="1.5" height="1.5"/>
  <rect class="cls-2" x="17.6401" y="8.2842" width="1.5" height="1.5"/>
  <rect class="cls-2" x="17.6401" y="16.2842" width="1.5" height="1.5"/>
  <rect class="cls-2" x="17.6401" y="12.2842" width="1.5" height="1.5"/>
  <rect class="cls-2" x="17.6401" y="10.2842" width="1.5" height="1.5"/>
  <rect class="cls-2" x="9.6401" y="8.2842" width="1.5" height="1.1484"/>
  <path class="cls-2" d="M11.14,18.3591c-.03-.0222-.0534-.05-.081-.0749H9.64v1.5h1.5Z"/>
  <path class="cls-2" d="M6.8933,18.2842A3.9335,3.9335,0,0,0,7.14,19.4255V18.2842Z"/>
  <path class="cls-2" d="M9.64,20.2842v1.2564a5.4186,5.4186,0,0,0,1.3457.1752c.0518,0,.1026-.0083.1543-.01V20.2842Z"/>
  <path class="cls-2" d="M6.86,17.7842h.28v-1.5H7.0957c-.0317.1263-.08.2378-.106.3691A6.4168,6.4168,0,0,0,6.86,17.7842Z"/>
  <path class="cls-2" d="M7.64,20.2842v.0294l.0079.0126a3.504,3.504,0,0,0,1.4921,1.07V20.2842Z"/>
  <rect class="cls-2" x="7.6401" y="16.2842" width="1.5" height="1.5"/>
  <rect class="cls-2" x="7.6401" y="18.2842" width="1.5" height="1.5"/>
  <path class="cls-2" d="M9.14,15.7842v-1.5H7.9574a5.623,5.623,0,0,0-.3173.5614v.9386Z"/>
  <rect class="cls-2" x="17.6401" y="20.2842" width="1.5" height="1.1054"/>
  <path class="cls-2" d="M20.0148,16.2842H19.64v1.5h.0821c.0171-.089.0269-.17.0459-.2608Z"/>
  <path class="cls-2" d="M15.7363,20.2842c0,.0218-.0029.0436-.0024.0654a10.2619,10.2619,0,0,0,.0693,1.04H17.14V20.2842Z"/>
  <path class="cls-2" d="M15.7549,19.7842H17.14v-1.5h-1.5v1.1612c.0417-.0432.091-.0769.1319-.1212C15.7583,19.4775,15.7615,19.6309,15.7549,19.7842Z"/>
  <path class="cls-2" d="M13.14,20.2842h-1.5v1.39a5.3516,5.3516,0,0,0,1.5-.4343Z"/>
  <path class="cls-2" d="M13.64,20.991a8.53,8.53,0,0,0,1.0834-.7068H13.64Z"/>
  <path class="cls-2" d="M15.14,17.717c-.0333.0231-.07.0445-.104.0672h.104Z"/>
  <path class="cls-2" d="M8.9106,9.4326H9.14V8.3865a4.8711,4.8711,0,0,0-.2607.9533Z"/>
  <polygon class="cls-2" points="17.14 14.284 16.693 14.284 16.391 15.784 17.14 15.784 17.14 14.284"/>
  <rect class="cls-2" x="15.6401" y="12.2842" width="1.5" height="1.5"/>
  <path class="cls-2" d="M11.14,13.7842v-1.5h-.6866a6.821,6.821,0,0,0-.8134.4221v1.0779Z"/>
  <path class="cls-2" d="M15.14,18.2842h-.9758a5.054,5.054,0,0,1-.5242.1987v1.3013h1.5Z"/>
  <path class="cls-2" d="M13.14,18.6092a3.9073,3.9073,0,0,1-.7285.0783,2.8292,2.8292,0,0,1-.7715-.1007v1.1974h1.5Z"/>
  <path class="cls-2" d="M17.14,16.2842h-.85l-.0993.4931a4.4587,4.4587,0,0,1-.5508.5522v.4547h1.5Z"/>
  <path class="cls-2" d="M11.14,7.7842v-1.5h-.4909A6.0083,6.0083,0,0,0,9.64,7.4059v.3783Z"/>
  <rect class="cls-2" x="15.6401" y="11.498" width="1.5" height="0.2862"/>
  <path class="cls-2" d="M11.64,5.7842h1.5V4.806a7.5448,7.5448,0,0,0-1.5.7318Z"/>
  <path class="cls-2" d="M17.14,5.7842V4.3466a7.4512,7.4512,0,0,0-.8-.0624h-.1918c-.1748.0016-.3379.0237-.5081.0334V5.7842Z"/>
  <path class="cls-2" d="M15.14,5.7842V4.35a8.9348,8.9348,0,0,0-1.5.2771V5.7842Z"/>
</svg>