<?xml version="1.0" encoding="UTF-8" standalone="no"?>
<svg
   xmlns:dc="http://purl.org/dc/elements/1.1/"
   xmlns:cc="http://creativecommons.org/ns#"
   xmlns:rdf="http://www.w3.org/1999/02/22-rdf-syntax-ns#"
   xmlns:svg="http://www.w3.org/2000/svg"
   xmlns="http://www.w3.org/2000/svg"
   xmlns:xlink="http://www.w3.org/1999/xlink"
   xmlns:sodipodi="http://sodipodi.sourceforge.net/DTD/sodipodi-0.dtd"
   xmlns:inkscape="http://www.inkscape.org/namespaces/inkscape"
   height="26"
   width="26"
   version="1.1"
   id="svg2"
   inkscape:version="0.48.3.1 r9886"
   sodipodi:docname="bom.svg">
  <metadata
     id="metadata176">
    <rdf:RDF>
      <cc:Work
         rdf:about="">
        <dc:format>image/svg+xml</dc:format>
        <dc:type
           rdf:resource="http://purl.org/dc/dcmitype/StillImage" />
        <dc:title />
      </cc:Work>
    </rdf:RDF>
  </metadata>
  <sodipodi:namedview
     pagecolor="#ffffff"
     bordercolor="#666666"
     borderopacity="1"
     objecttolerance="10"
     gridtolerance="10"
     guidetolerance="10"
     inkscape:pageopacity="0"
     inkscape:pageshadow="2"
     inkscape:window-width="1301"
     inkscape:window-height="744"
     id="namedview174"
     showgrid="true"
     inkscape:zoom="22.961538"
     inkscape:cx="13"
     inkscape:cy="13"
     inkscape:window-x="65"
     inkscape:window-y="24"
     inkscape:window-maximized="1"
     inkscape:current-layer="svg2">
    <inkscape:grid
       type="xygrid"
       id="grid3153"
       empspacing="5"
       visible="true"
       enabled="true"
       snapvisiblegridlinesonly="true" />
  </sodipodi:namedview>
  <defs
     id="defs4">
    <linearGradient
       id="ag"
       y2="9.6875"
       gradientUnits="userSpaceOnUse"
       x2="-24.75"
       y1="11.566"
       x1="-26.754">
      <stop
         stop-color="#fff"
         offset="0"
         id="stop46" />
      <stop
         stop-color="#fff"
         stop-opacity="0"
         offset="1"
         id="stop48" />
    </linearGradient>
    <linearGradient
       id="ah"
       y2="14.07"
       gradientUnits="userSpaceOnUse"
       x2="-28.789"
       gradientTransform="matrix(0.92231,0,0,0.91858,-92.447,61.326)"
       y1="11.053"
       x1="-18.589001">
      <stop
         stop-opacity=".41296"
         offset="0"
         id="stop51" />
      <stop
         stop-opacity="0"
         offset="1"
         id="stop53" />
    </linearGradient>
    <radialGradient
       id="ad"
       gradientUnits="userSpaceOnUse"
       cy="10.108"
       cx="-26.305"
       gradientTransform="matrix(0.40734,-0.27983,0.75103,1.0932,-115.18,51.562)"
       r="7.0421">
      <stop
         stop-color="#fff"
         offset="0"
         id="stop56" />
      <stop
         stop-color="#fff"
         offset=".47534"
         id="stop58" />
      <stop
         stop-color="#fff"
         stop-opacity="0"
         offset="1"
         id="stop60" />
    </radialGradient>
    <linearGradient
       id="aj"
       y2="67.799004"
       gradientUnits="userSpaceOnUse"
       x2="61.181"
       gradientTransform="translate(-180,0)"
       y1="70.751999"
       x1="58.282001">
      <stop
         offset="0"
         id="stop63" />
      <stop
         stop-opacity="0"
         offset="1"
         id="stop65" />
    </linearGradient>
    <radialGradient
       id="ac"
       gradientUnits="userSpaceOnUse"
       cy="5.3000002"
       cx="4"
       gradientTransform="matrix(1.886,0,0,1.1765,-3.5441,-4.2353)"
       r="17">
      <stop
         stop-color="#fff"
         offset="0"
         id="stop68" />
      <stop
         stop-color="#fff"
         stop-opacity="0"
         offset="1"
         id="stop70" />
    </radialGradient>
    <linearGradient
       id="ai"
       y2="-22.502001"
       gradientUnits="userSpaceOnUse"
       x2="-62.75"
       gradientTransform="translate(-90,60)"
       y1="49.021"
       x1="-47.5">
      <stop
         stop-color="#888a85"
         offset="0"
         id="stop73" />
      <stop
         stop-color="#babdb6"
         offset="1"
         id="stop75" />
    </linearGradient>
    <radialGradient
       id="ae"
       gradientUnits="userSpaceOnUse"
       cy="35.356998"
       cx="-30.25"
       gradientTransform="matrix(3.9957,0,0,1.935,0.62141,28.833)"
       r="18">
      <stop
         stop-color="#f6f6f5"
         offset="0"
         id="stop78" />
      <stop
         stop-color="#d3d7cf"
         offset="1"
         id="stop80" />
    </radialGradient>
    <linearGradient
       id="t"
       y2="39.999001"
       gradientUnits="userSpaceOnUse"
       x2="25.058001"
       y1="47.028"
       x1="25.058001">
      <stop
         stop-opacity="0"
         offset="0"
         id="stop83" />
      <stop
         offset=".5"
         id="stop85" />
      <stop
         stop-opacity="0"
         offset="1"
         id="stop87" />
    </linearGradient>
    <radialGradient
       id="v"
       xlink:href="#s"
       gradientUnits="userSpaceOnUse"
       cy="43.5"
       cx="4.993"
       gradientTransform="matrix(2.0038,0,0,1.4,-20.012,-104.4)"
       r="2.5" />
    <radialGradient
       id="u"
       xlink:href="#s"
       gradientUnits="userSpaceOnUse"
       cy="43.5"
       cx="4.993"
       gradientTransform="matrix(2.0038,0,0,1.4,27.988,-17.4)"
       r="2.5" />
    <linearGradient
       id="s">
      <stop
         offset="0"
         id="stop92" />
      <stop
         stop-opacity="0"
         offset="1"
         id="stop94" />
    </linearGradient>
    <radialGradient
       inkscape:collect="always"
       xlink:href="#s"
       id="radialGradient3155"
       gradientUnits="userSpaceOnUse"
       gradientTransform="matrix(2.0038,0,0,1.4,27.988,-17.4)"
       cx="4.993"
       cy="43.5"
       r="2.5" />
    <radialGradient
       inkscape:collect="always"
       xlink:href="#s"
       id="radialGradient3157"
       gradientUnits="userSpaceOnUse"
       gradientTransform="matrix(2.0038,0,0,1.4,-20.012,-104.4)"
       cx="4.993"
       cy="43.5"
       r="2.5" />
    <linearGradient
       inkscape:collect="always"
       xlink:href="#t"
       id="linearGradient3159"
       gradientUnits="userSpaceOnUse"
       x1="25.058001"
       y1="47.028"
       x2="25.058001"
       y2="39.999001" />
    <linearGradient
       inkscape:collect="always"
       xlink:href="#t"
       id="linearGradient3161"
       gradientUnits="userSpaceOnUse"
       x1="25.058001"
       y1="47.028"
       x2="25.058001"
       y2="39.999001" />
    <linearGradient
       inkscape:collect="always"
       xlink:href="#ag"
       id="linearGradient3175"
       gradientUnits="userSpaceOnUse"
       x1="-26.754"
       y1="11.566"
       x2="-24.75"
       y2="9.6875"
       gradientTransform="matrix(0.64321352,0,0,0.58034524,36.155686,-0.9282856)" />
    <linearGradient
       inkscape:collect="always"
       xlink:href="#ah"
       id="linearGradient3178"
       gradientUnits="userSpaceOnUse"
       gradientTransform="matrix(0.59324229,0,0,0.53309353,34.581743,-0.1587476)"
       x1="-18.589001"
       y1="11.053"
       x2="-28.789"
       y2="14.07" />
    <radialGradient
       inkscape:collect="always"
       xlink:href="#ad"
       id="radialGradient3181"
       gradientUnits="userSpaceOnUse"
       gradientTransform="matrix(0.2620066,-0.16239801,0.48307266,0.63443343,19.95957,-5.8252386)"
       cx="-26.305"
       cy="10.108"
       r="7.0421" />
    <linearGradient
       inkscape:collect="always"
       xlink:href="#aj"
       id="linearGradient3184"
       gradientUnits="userSpaceOnUse"
       gradientTransform="matrix(0.64321352,0,0,0.58034524,-21.733532,-35.749)"
       x1="58.282001"
       y1="70.751999"
       x2="61.181"
       y2="67.799004" />
    <radialGradient
       inkscape:collect="always"
       xlink:href="#ac"
       id="radialGradient3187"
       gradientUnits="userSpaceOnUse"
       gradientTransform="matrix(1.2131007,0,0,0.68277617,-4.7167384,-3.3862216)"
       cx="4"
       cy="5.3000002"
       r="17" />
    <radialGradient
       inkscape:collect="always"
       xlink:href="#ae"
       id="radialGradient3190"
       gradientUnits="userSpaceOnUse"
       gradientTransform="matrix(2.5700884,0,0,1.122968,94.444597,-19.015906)"
       cx="-30.25"
       cy="35.356998"
       r="18" />
    <linearGradient
       inkscape:collect="always"
       xlink:href="#ai"
       id="linearGradient3192"
       gradientUnits="userSpaceOnUse"
       gradientTransform="matrix(0.64321352,0,0,0.58034524,36.155686,-0.9282856)"
       x1="-47.5"
       y1="49.021"
       x2="-62.75"
       y2="-22.502001" />
  </defs>
  <rect
     style="opacity:0"
     id="rect98"
     x="-2.4371252"
     y="-0.9282856"
     width="30.87425"
     height="27.856571" />
  <g
     style="opacity:0.65587003"
     id="g100"
     transform="matrix(0.67305861,0,0,0.51586308,-3.2025494,2.3924504)">
    <g
       style="opacity:0.4"
       id="g102"
       transform="matrix(1.0526,0,0,1.2857,-1.2632,-13.429)">
      <rect
         style="fill:url(#radialGradient3155)"
         id="rect104"
         x="38"
         y="40"
         width="5"
         height="7" />
      <rect
         style="fill:url(#radialGradient3157)"
         id="rect106"
         x="-10"
         y="-47"
         width="5"
         height="7"
         transform="scale(-1,-1)" />
      <rect
         style="fill:url(#linearGradient3159)"
         id="rect108"
         x="10"
         y="40"
         width="28"
         height="7" />
    </g>
  </g>
  <g
     id="g110"
     transform="matrix(0.61417242,0,0,0.3224166,-1.7874796,10.614201)">
    <g
       style="opacity:0.4"
       id="g112"
       transform="matrix(1.0526,0,0,1.2857,-1.2632,-13.429)">
      <rect
         style="fill:url(#u)"
         id="rect114"
         x="38"
         y="40"
         width="5"
         height="7" />
      <rect
         style="fill:url(#v)"
         id="rect116"
         x="-10"
         y="-47"
         width="5"
         height="7"
         transform="scale(-1,-1)" />
      <rect
         style="fill:url(#linearGradient3161)"
         id="rect118"
         x="10"
         y="40"
         width="28"
         height="7" />
    </g>
  </g>
  <path
     inkscape:connector-curvature="0"
     style="fill:url(#radialGradient3190);stroke:url(#linearGradient3192);stroke-width:0.58993483"
     id="path120"
     d="M 3.0430545,1.1029234 H 15.248674 c 2.493739,0.04233 4.180888,1.450863 5.788922,2.901726 1.608033,1.450863 2.963734,3.048321 3.216067,5.223107 V 23.722458 c 0,0.650684 -0.58059,1.174561 -1.301735,1.174561 H 3.0431825 c -0.721171,0 -1.3018,-0.523843 -1.3018,-1.174561 V 2.2728994 c 0,-0.650683 0.580591,-1.174561 1.3018,-1.174561 z" />
  <path
     inkscape:connector-curvature="0"
     style="opacity:0.68015998;fill:url(#radialGradient3187)"
     id="path122"
     d="m 3.0502585,1.3930954 c -0.551942,0 -0.984889,0.390631 -0.984889,0.888625 V 23.718512 c 0,0.497936 0.432947,0.888509 0.984889,0.888509 H 22.949998 c 0.551877,0 0.98476,-0.390573 0.98476,-0.888509 V 9.2278724 c 0,-0.807841 -0.313232,-2.495194 -1.507564,-3.572721 l -3.216068,-2.901726 c -1.194447,-1.077702 -3.064269,-1.36033 -3.959622,-1.36033 H 3.0503865 z" />
  <path
     inkscape:connector-curvature="0"
     style="opacity:0.15;fill:url(#linearGradient3184);fill-rule:evenodd"
     id="path124"
     d="m 4.9019415,4.3673654 c -0.140658,0 -0.261306,0.108849 -0.261306,0.235765 0,0.12691 0.120648,0.235765 0.261306,0.235765 H 18.53035 c 0.140657,0 0.261304,-0.108855 0.261304,-0.235765 0,-0.12691 -0.120647,-0.235765 -0.261304,-0.235765 H 4.9019415 z m 0.0402,1.124419 c -0.167036,0 -0.301507,0.121327 -0.301507,0.272036 0,0.15071 0.134471,0.272037 0.301507,0.272037 H 19.132718 c 0.167036,0 0.301506,-0.121327 0.301506,-0.272037 0,-0.150709 -0.13447,-0.272036 -0.301506,-0.272036 H 4.9421425 z m 0,1.16069 c -0.167036,0 -0.301507,0.121327 -0.301507,0.272037 0,0.15071 0.134471,0.272037 0.301507,0.272037 H 21.143404 c 0.167035,0 0.301506,-0.121327 0.301506,-0.272037 0,-0.15071 -0.134471,-0.272037 -0.301506,-0.272037 H 4.9421425 z m 0,1.16069 c -0.167036,0 -0.301507,0.121327 -0.301507,0.272037 0,0.15071 0.134471,0.272037 0.301507,0.272037 H 21.143404 c 0.167035,0 0.301506,-0.121327 0.301506,-0.272037 0,-0.15071 -0.134471,-0.272037 -0.301506,-0.272037 H 4.9421425 z m 0,1.160691 c -0.167036,0 -0.301507,0.121327 -0.301507,0.272037 0,0.15071 0.134471,0.272037 0.301507,0.272037 H 21.143404 c 0.167035,0 0.301506,-0.121327 0.301506,-0.272037 0,-0.15071 -0.134471,-0.272037 -0.301506,-0.272037 H 4.9421425 z" />
  <path
     inkscape:connector-curvature="0"
     style="fill:url(#radialGradient3181)"
     id="path126"
     d="m 15.251247,1.3930954 c -0.89336,0 -0.02708,0.288484 0.86435,0.652889 0.891365,0.364404 3.198637,1.865868 2.673324,3.989873 2.780805,-0.249885 4.296088,1.81207 4.502495,2.484574 0.206388,0.672562 0.643214,1.5133076 0.643214,0.707325 0.0182,-2.208562 -1.8302,-3.732606 -3.115599,-5.023584 -1.286427,-1.291269 -3.222499,-2.534368 -5.570229,-2.811193 z" />
  <path
     inkscape:connector-curvature="0"
     style="opacity:0.87853998;fill:url(#linearGradient3178)"
     id="path128"
     d="m 15.958781,1.9815654 c 0.593236,0 1.935044,3.595645 1.341808,5.994386 2.762603,-0.248248 5.694627,0.05118 5.990248,0.544161 -0.206388,-0.672562 -1.72169,-2.734471 -4.502495,-2.484574 0.556161,-2.248954 -2.049664,-3.840319 -2.829561,-4.05406 z" />
  <path
     inkscape:connector-curvature="0"
     style="fill:none;stroke:url(#linearGradient3175);stroke-width:0.58993483"
     id="path130"
     d="m 3.0501295,1.6832684 c -0.374994,0 -0.663153,0.260053 -0.663153,0.598452 V 23.718512 c 0,0.338435 0.288217,0.598453 0.663282,0.598453 H 22.949998 c 0.375096,0 0.663282,-0.260048 0.663282,-0.598453 V 9.2278724 c 0,-0.742261 -0.309045,-2.382607 -1.407029,-3.373257 L 18.990182,2.9528894 C 17.892217,1.9619504 16.074495,1.6830944 15.251825,1.6830944 H 3.0507085 z" />
  <rect
     style="opacity:0.15;fill-rule:evenodd"
     rx="0.30150959"
     ry="0.27203682"
     height="0.54407364"
     width="16.803974"
     y="10.134255"
     x="4.637516"
     id="rect134" />
  <rect
     style="opacity:0.15;fill-rule:evenodd"
     rx="0.30150959"
     ry="0.27203682"
     height="0.54407364"
     width="16.803974"
     y="11.294946"
     x="4.637516"
     id="rect136" />
  <rect
     style="opacity:0.15;fill-rule:evenodd"
     rx="0.30150959"
     ry="0.27203682"
     height="0.54407364"
     width="16.803974"
     y="12.455636"
     x="4.637516"
     id="rect138" />
  <rect
     style="opacity:0.15;fill-rule:evenodd"
     rx="0.30150959"
     ry="0.27203682"
     height="0.54407364"
     width="16.803974"
     y="13.616328"
     x="4.637516"
     id="rect140" />
  <rect
     style="fill:#001c50;fill-opacity:0.86274511;stroke:none"
     id="rect3219"
     width="20.58346"
     height="9.2083902"
     x="2.5868635"
     y="14.626311" />
  <text
     xml:space="preserve"
     style="font-size:10.83339976999999976px;font-style:normal;font-weight:normal;line-height:125%;letter-spacing:0px;word-spacing:0px;fill:#ffffff;fill-opacity:1;stroke:none;font-family:Sans"
     x="2.9111891"
     y="22.372189"
     id="text3215"
     sodipodi:linespacing="125%"><tspan
       sodipodi:role="line"
       id="tspan3217"
       x="2.9111891"
       y="22.372189"
       style="font-style:normal;font-variant:normal;font-weight:normal;font-stretch:normal;fill:#ffffff;stroke:none;font-family:Courier 10 Pitch;-inkscape-font-specification:Courier 10 Pitch">BOM</tspan></text>
</svg>
