<svg id="Слой_1" data-name="Слой 1"
  xmlns:cc="http://creativecommons.org/ns#"
  xmlns:rdf="http://www.w3.org/1999/02/22-rdf-syntax-ns#"
  xmlns="http://www.w3.org/2000/svg" viewBox="0 0 26 26">
  <metadata id="metadata43">
    <rdf:RDF>
      <cc:Work rdf:about="">
        <cc:license rdf:resource="http://creativecommons.org/licenses/by/4.0/" />
      </cc:Work>
      <cc:License rdf:about="http://creativecommons.org/licenses/by/4.0/">
        <cc:permits rdf:resource="http://creativecommons.org/ns#Reproduction" />
        <cc:permits rdf:resource="http://creativecommons.org/ns#Distribution" />
        <cc:requires rdf:resource="http://creativecommons.org/ns#Notice" />
        <cc:requires rdf:resource="http://creativecommons.org/ns#Attribution" />
        <cc:permits rdf:resource="http://creativecommons.org/ns#DerivativeWorks" />
      </cc:License>
    </rdf:RDF>
  </metadata>
  <defs>
    <style>.cls-1{fill:#b9b9b9;}.cls-2{fill:#1a81c4;}.cls-3{fill:#fff;}.cls-4{fill:#e61c50;}.cls-5{fill:none;stroke:#f5f5f5;stroke-linecap:round;stroke-linejoin:round;stroke-width:2px;}</style>
  </defs>
  <title>bom</title>
  <rect class="cls-1" x="4.0462" y="1" width="17.9372" height="17.9833" rx="2.9934"/>
  <rect class="cls-2" x="1.0028" y="4.0004" width="18.71" height="9.2299"/>
  <path class="cls-3" d="M2.8252,11.3623H1.9033v-.89h.9219Z"/>
  <path class="cls-3" d="M7.6045,9.4336a2.3366,2.3366,0,0,1-.4209,1.457,1.4033,1.4033,0,0,1-1.1856.5518,1.3627,1.3627,0,0,1-.6689-.1563,1.303,1.303,0,0,1-.4746-.458l-.0908.5342H3.9863V5.4053h.9258V7.7a1.3225,1.3225,0,0,1,.457-.4043A1.3017,1.3017,0,0,1,5.99,7.1543a1.3683,1.3683,0,0,1,1.1934.6035,2.7311,2.7311,0,0,1,.4209,1.5957Zm-.9248-.08a2.1342,2.1342,0,0,0-.2217-1.042.744.744,0,0,0-.7-.3974.9155.9155,0,0,0-.5166.1377.9633.9633,0,0,0-.3291.3818V10.167a.9052.9052,0,0,0,.3272.3838.9475.9475,0,0,0,.5263.1357.7652.7652,0,0,0,.6963-.3379,1.6715,1.6715,0,0,0,.2178-.915Z"/>
  <path class="cls-3" d="M8.2334,9.2578a2.25,2.25,0,0,1,.5029-1.5117,1.73,1.73,0,0,1,1.3819-.5918,1.7269,1.7269,0,0,1,1.3906.5918,2.2332,2.2332,0,0,1,.5068,1.5117v.0811a2.2454,2.2454,0,0,1-.5068,1.5195,1.7271,1.7271,0,0,1-1.3828.584,1.7378,1.7378,0,0,1-1.39-.5879,2.2465,2.2465,0,0,1-.5029-1.5156Zm.9248.0791a1.8445,1.8445,0,0,0,.2363.9834.8893.8893,0,0,0,1.4551,0,1.7919,1.7919,0,0,0,.2442-.9834v-.08a1.7693,1.7693,0,0,0-.2442-.9726.8789.8789,0,0,0-1.4551,0,1.8351,1.8351,0,0,0-.2363.9726Z"/>
  <path class="cls-3" d="M13.668,7.2305l.05.5381a1.4009,1.4009,0,0,1,.5068-.4541,1.4911,1.4911,0,0,1,.7041-.16,1.2706,1.2706,0,0,1,.6934.1836,1.1078,1.1078,0,0,1,.4345.55,1.4379,1.4379,0,0,1,.502-.5391,1.3533,1.3533,0,0,1,.7314-.1943,1.214,1.214,0,0,1,.98.4258,1.9662,1.9662,0,0,1,.36,1.2929v2.4893h-.9258V8.8691a1.1662,1.1662,0,0,0-.1807-.7412.6711.6711,0,0,0-.543-.2138.7969.7969,0,0,0-.5029.16.9037.9037,0,0,0-.2969.4317c0,.038.001.0712.0039.1a.7512.7512,0,0,1,.004.08v2.6768h-.9258V8.8691a1.1492,1.1492,0,0,0-.1846-.7314.6619.6619,0,0,0-.543-.2236.9649.9649,0,0,0-.4775.1093.8008.8008,0,0,0-.3106.3067v3.0322h-.9257V7.2305Z"/>
  <ellipse class="cls-4" cx="18.0047" cy="17.9961" rx="6.9924" ry="7.0039"/>
  <line class="cls-5" x1="18.1084" y1="14.6254" x2="18.1084" y2="21.6293"/>
  <polyline class="cls-5" points="15.359 17.16 18.108 14.406 20.858 17.16"/>
</svg>