<svg xmlns="http://www.w3.org/2000/svg" height="48pt" width="48pt" version="1.1" xmlns:xlink="http://www.w3.org/1999/xlink">
 <defs>
  <linearGradient id="b">
   <stop stop-color="#d8b72a" offset="0"/>
   <stop stop-color="#fff" offset="1"/>
  </linearGradient>
  <linearGradient id="a" y2="11989" gradientUnits="userSpaceOnUse" x2="-1535" y1="23432" x1="19079">
   <stop stop-color="#001c9a" offset="0"/>
   <stop stop-color="#fff" offset="1"/>
  </linearGradient>
  <linearGradient id="n" y2="20339" xlink:href="#a" gradientUnits="userSpaceOnUse" x2="14956" gradientTransform="matrix(.002071 .00068003 -.00094733 .0022649 13.813 -15.399)" y1="25759" x1="17987"/>
  <linearGradient id="o" y2="-1996.6" xlink:href="#a" gradientUnits="userSpaceOnUse" x2="4104.9" gradientTransform="matrix(.0021777 .00037169 -.00050411 .0022528 5.4289 -9.9952)" y1="16646" x1="21152"/>
  <linearGradient id="p" y2="-15.714" xlink:href="#a" gradientUnits="userSpaceOnUse" x2="-.71429" y1="36.429" x1="51.429"/>
  <linearGradient id="q" y2="9224.6" xlink:href="#a" gradientUnits="userSpaceOnUse" x2="68600" gradientTransform="matrix(.002071 .00068003 -.00094733 .0022649 13.813 -15.399)" y1="18090" x1="-10294"/>
  <linearGradient id="r" y2="4710.4" xlink:href="#a" gradientUnits="userSpaceOnUse" x2="-5397.6" gradientTransform="matrix(.002071 .00068003 -.00094733 .0022649 13.813 -15.399)" y1="14304" x1="17635"/>
  <linearGradient id="s" y2="35" xlink:href="#b" gradientUnits="userSpaceOnUse" x2="-16.071" y1="42.143" x1="76.071"/>
  <linearGradient id="t" y2="7392.3" xlink:href="#a" gradientUnits="userSpaceOnUse" x2="-7038.8" gradientTransform="matrix(.002071 .00068003 -.00094733 .0022649 13.813 -15.399)" y1="24488" x1="15802"/>
  <linearGradient id="u" y2="48.304" xlink:href="#b" gradientUnits="userSpaceOnUse" x2="74.286" y1="46.057" x1="17.5"/>
  <linearGradient id="v" y2="10824" xlink:href="#a" gradientUnits="userSpaceOnUse" x2="-4624.8" gradientTransform="matrix(.002071 .00068003 -.00094733 .0022649 13.813 -15.399)" y1="23432" x1="19079"/>
  <linearGradient id="w" y2="-2.3222" xlink:href="#a" gradientUnits="userSpaceOnUse" x2="6.4286" gradientTransform="matrix(1.1284 .031268 -.017565 1.0861 -2.6593 -5.142)" y1="47.678" x1="33.571"/>
  <linearGradient id="x" y2="37.421" gradientUnits="userSpaceOnUse" x2="3.9286" gradientTransform="matrix(1,0,0,1.5379,0,-29.637)" y1="63.929" x1="38.929">
   <stop offset="0"/>
   <stop stop-opacity="0" offset="1"/>
  </linearGradient>
 </defs>
 <path fill="url(#x)" d="m1.9785 29.455 33.836-7.034 21.688 22.063c0.90742 0.92511-0.17783 1.3834-0.88033 1.579l-31.219 8.7047c-2.1967 0.62713-2.8756 0.30281-3.6437-0.52975l-20.676-22.565c-0.55218-0.597-0.26428-0.881 0.111-1.171 0.2619-0.201 1.6189 0.104 0.7845-1.047z"/>
 <path fill="url(#w)" d="m1.9785 14.854 33.836-2.496 21.688 34.761c0.90742 1.4571-0.17783 1.8555-0.88033 1.9752l-31.22 5.334-3.643-1.493-20.676-35.235c-0.55218-0.934-0.26428-1.262 0.111-1.579 0.2619-0.22 1.6189 0.483 0.7845-1.267z"/>
 <path fill="url(#v)" d="m4.5229 8.4046c-0.0291-1.1919 0.6018-2.0357 2.8525-2.1288l22.694 38.064c-1.2148-0.22114-2.2952 0.04747-3.0802 1.3893-1.3952 1.7984-2.2343 3.7819-2.6252 5.8483-0.005 0.699-0.40113 1.2181 1.3633 1.1612l-0.32479 1.6888c-1.5301 0.4146-2.5356 0.59964-3.3921-0.92837l-20.338-36.217c-0.3055-0.544-0.98816-1.018-0.84031-1.399 0.26541-0.691 0.47291-0.067 0.81951-0.867l2.8717-6.6124z"/>
 <path fill="url(#u)" d="m59.163 38.901-32.445 5.6237-3.9729 8.6875 32.819-5.8411 3.5993-8.4701z"/>
 <path fill="url(#t)" d="m1.1149 15.691 22.153 37.6c0.10529 0.17625 0.09443 0.55135-0.02209 0.82992-0.11652 0.27858-0.29702 0.36099-0.40137 0.18248l-22.086-37.492c-0.10278-0.175-0.09287-0.548 0.0246-0.829 0.11616-0.279 0.22554-0.467 0.33074-0.291z"/>
 <path fill="url(#s)" d="m59.163 38.901-4.2767 0.74147c0.94649 0.37261 2.9189-0.22649 3.8654 0.14612-1.4982 0.20871-3.0905 1.1773-4.5887 1.386 1.1253 0.27163 3.0975-0.5465 3.9422-0.0038-1.7329 0.35316-3.1025 1.0034-5.4403 1.2429 1.5183 0.23321 3.1457-0.30141 4.6651-0.06525-1.7018 0.75749-3.7285 0.87252-6.357 1.2665 1.4832 0.25518 3.5396 0.05204 4.5046 0.4874-3.1273 0.57277-4.5246 0.91764-6.8854 1.1162 2.4817 0.04725 3.5445-0.1679 5.7496 0.11826-20.259 2.5567-7.9053 3.1717-23.936 6.4473l25.157-4.4129 3.5993-8.4701z"/>
 <path fill="url(#r)" d="m7.3763 6.2736 27.994-3.1468c2.7156-0.30355 4.0034-0.46542 5.4283 1.8494l20.043 32.549c0.90156 1.4655-0.17783 1.8555-0.87938 1.9729l-30.001 5.1253c-2.333 0.345-2.979-0.207-4.158-2.168l-19.814-32.943c-0.1109-0.1859-1.1-1.5771-1.1627-2.3396-0.0423-0.5239 0.38-0.5707 0.7653-0.6245l1.3227-0.189c0.1804-0.0258 0.3423-0.0525 0.462-0.0853z"/>
 <path fill="url(#q)" d="m40.081 5.5136 20.031 32.532c0.22206 0.35885 0.2686 0.52353-0.1834 0.60179l-29.978 5.1201c-1.9355 0.26863-2.4894-0.3048-3.4241-1.843l-19.812-32.938-0.0855-0.139c-0.8866-1.3267-0.9104-1.5457 0.7865-1.7226l27.93-3.1396c2.2269-0.25021 3.512-0.40008 4.7343 1.5262z"/>
 <path fill="url(#p)" d="m7.4587 7.9801 27.863-3.1329c1.942-0.2175 2.985-0.4596 4.042 1.2037l19.64 31.896-29.065 4.964c-1.6184 0.22589-1.8995-0.21156-2.6901-1.5144l-19.809-32.934c-0.1508-0.2511-0.3702-0.3798 0.0175-0.4844z"/>
 <path fill="url(#o)" d="m7.4587 7.9801 27.863-3.1329c1.9423-0.21744 2.9857-0.45955 4.0425 1.2037l3.1047 4.3877c2.9594 4.1824-5.1907 5.5956-9.8469 4.0063-15.636-5.3371-8.458 22.18-9.249 20.878l-15.933-26.86c-0.1496-0.2499-0.369-0.3786 0.0187-0.4832z"/>
 <path fill="url(#n)" d="m27.231 43.877c0.24023 0.07888 0.336 0.54824 0.08457 0.98602-1.5069 2.6453-2.5859 5.225-3.237 7.7391-0.12112 0.47542-0.5482 0.77566-0.78843 0.69678-0.24024-0.07888-0.47274-0.5648-0.32488-1.0366 0.82842-2.662 2.0367-5.3537 3.3799-7.8441 0.23994-0.44413 0.64563-0.62003 0.88586-0.54115z"/>
 <path fill="#001c9a" d="m27.318 44.171 0.19339-0.03439c0.09161-0.01629 0.23156 0.0039 0.2028 0.21342-0.023 0.16761-0.40244 0.72564-0.50824 0.92789-1.3805 2.5966-2.5021 5.2782-3.3649 8.0448-0.15337 0.49058-0.48164 0.83616-0.62246 0.78992-0.14083-0.04624-0.03528-0.46752 0.10886-0.95856 0.72529-2.4717 1.753-5.1146 3.3649-8.0448 0.25184-0.45567 0.46071-0.91 0.62564-0.93828z"/>
 <path fill="#aca2e0" d="m6.5339 6.7053c0.055-0.0077-0.4888 0.4758-0.6664 0.8554-0.1797 0.3789-0.4877 0.4452-0.5459 0.5394-1.6045 2.6369-2.8372 5.3919-3.4103 8.3669-0.0399 0.214-0.2382 0.345-0.3397 0.311l-0.5053-0.166c-0.10151-0.033-0.08223-0.22-0.029-0.432 0.7314-2.925 1.7736-5.777 3.5-8.4688 0.5545-0.8637 1.0855-0.8774 1.9966-1.0059z"/>
 <path fill="#001c9a" d="m5.5017 8.1593c-0.3204 0.0004-3.8401 7.3457-3.5024 9.1227 0.0136 0.069-0.4765-0.494-0.5428-0.516-0.0725-0.023 0.102-0.615 0.1591-0.836 0.6696-2.603 1.724-5.124 3.164-7.5648 0.1415-0.2369 1.2456-0.2015 0.7221-0.2059z"/>
 <path fill="#aca2e0" d="m6.6667 11.103c0.24023 0.07888 0.36423 0.47508 0.15183 0.82521-1.2901 2.1214-2.1645 4.2119-2.6231 6.2714-0.087195 0.38867-0.48189 0.61713-0.72212 0.53824-0.2403-0.079-0.2638-0.44-0.154-0.826 0.6238-2.173 1.4837-4.268 2.6232-6.272 0.203-0.356 0.4839-0.616 0.7242-0.537z"/>
 <path fill="#001c9a" d="m6.7786 11.477c0.14083 0.04624 0.18016 0.39145-0.011291 0.72528-1.0812 1.8809-1.9044 3.8491-2.4678 5.9-0.10127 0.36602-0.38501 0.60514-0.52584 0.5589s-0.079804-0.36107 0.012238-0.72754c0.45909-1.8353 1.195-3.7806 2.4678-5.9 0.19766-0.33179 0.38407-0.60288 0.5249-0.55663z"/>
 <path fill="#aca2e0" d="m8.4942 14.248c0.24023 0.07888 0.36423 0.47508 0.15183 0.82521-1.2901 2.1214-2.1645 4.2119-2.6231 6.2714-0.087195 0.38867-0.48189 0.61713-0.72212 0.53824-0.2423-0.07956-0.2637-0.43949-0.1539-0.82589 0.62379-2.1728 1.4816-4.2687 2.6231-6.2714 0.203-0.356 0.4819-0.618 0.7242-0.538z"/>
 <path fill="#001c9a" d="m8.6062 14.622c0.14083 0.04624 0.17809 0.39077-0.011291 0.72528-1.0811 1.8809-1.9044 3.8491-2.4678 5.9-0.10334 0.36533-0.38501 0.60514-0.52584 0.5589-0.1429-0.047-0.0798-0.361 0.0122-0.727 0.4591-1.836 1.195-3.781 2.4678-5.9 0.1976-0.332 0.382-0.604 0.5249-0.557z"/>
 <path fill="#aca2e0" d="m10.467 17.559c0.2423 0.07956 0.3663 0.47576 0.1539 0.82589-1.2901 2.1214-2.1645 4.2119-2.6231 6.2714-0.087194 0.38867-0.48189 0.61712-0.72419 0.53756-0.24023-0.07888-0.26163-0.43881-0.15183-0.82521 0.62379-2.1728 1.4816-4.2687 2.6231-6.2714 0.203-0.3558 0.48189-0.61712 0.72212-0.53824z"/>
 <path fill="#001c9a" d="m10.582 17.932c0.14083 0.04624 0.17809 0.39077-0.01431 0.72686-1.0791 1.8816-1.9023 3.8498-2.4678 5.9-0.10127 0.36602-0.38294 0.60582-0.52377 0.55958s-0.079805-0.36107 0.012238-0.72755c0.45702-1.836 1.195-3.7806 2.4678-5.9 0.19766-0.33179 0.38502-0.60514 0.52584-0.5589z"/>
 <path fill="#aca2e0" d="m12.46 21.111c0.24023 0.07889 0.36423 0.47508 0.15183 0.82521-1.2901 2.1214-2.1645 4.2119-2.6231 6.2714-0.087194 0.38867-0.48189 0.61712-0.72212 0.53824-0.24231-0.07956-0.2637-0.43949-0.1539-0.82589 0.62379-2.1728 1.4816-4.2687 2.6231-6.2714 0.203-0.3558 0.48189-0.61712 0.7242-0.53756z"/>
 <path fill="#001c9a" d="m12.573 21.483c0.14083 0.04624 0.17809 0.39077-0.01431 0.72687-1.0791 1.8816-1.9023 3.8498-2.4678 5.9-0.10127 0.36601-0.38295 0.60582-0.52377 0.55958-0.14083-0.04624-0.079807-0.36107 0.012236-0.72754 0.45909-1.8353 1.195-3.7806 2.4678-5.9 0.19766-0.33179 0.38501-0.60514 0.52584-0.5589z"/>
</svg>
