<?xml version="1.0" encoding="UTF-8" standalone="no"?>
<svg
   xmlns:dc="http://purl.org/dc/elements/1.1/"
   xmlns:cc="http://creativecommons.org/ns#"
   xmlns:rdf="http://www.w3.org/1999/02/22-rdf-syntax-ns#"
   xmlns:svg="http://www.w3.org/2000/svg"
   xmlns="http://www.w3.org/2000/svg"
   xmlns:sodipodi="http://sodipodi.sourceforge.net/DTD/sodipodi-0.dtd"
   xmlns:inkscape="http://www.inkscape.org/namespaces/inkscape"
   height="48"
   width="48"
   version="1.1"
   id="svg2"
   inkscape:version="0.47 r22583"
   sodipodi:docname="break_bus.svg">
  <metadata
     id="metadata33">
    <rdf:RDF>
      <cc:Work
         rdf:about="">
        <dc:format>image/svg+xml</dc:format>
        <dc:type
           rdf:resource="http://purl.org/dc/dcmitype/StillImage" />
        <dc:title></dc:title>
      </cc:Work>
    </rdf:RDF>
  </metadata>
  <sodipodi:namedview
     pagecolor="#ffffff"
     bordercolor="#666666"
     borderopacity="1"
     objecttolerance="10"
     gridtolerance="10"
     guidetolerance="10"
     inkscape:pageopacity="0"
     inkscape:pageshadow="2"
     inkscape:window-width="1280"
     inkscape:window-height="949"
     id="namedview31"
     showgrid="false"
     inkscape:zoom="4.9166667"
     inkscape:cx="-12.610169"
     inkscape:cy="23.18644"
     inkscape:window-x="0"
     inkscape:window-y="25"
     inkscape:window-maximized="1"
     inkscape:current-layer="svg2" />
  <defs
     id="defs4">
    <filter
       id="a"
       color-interpolation-filters="sRGB">
      <feGaussianBlur
         stdDeviation="0.31984412"
         id="feGaussianBlur7" />
    </filter>
  </defs>
  <g
     opacity=".62109"
     filter="url(#a)"
     transform="matrix(2.8443,0,0,2.9435,4.2788,4.4613)"
     id="g9">
    <path
       d="m0 9 6.0622-3.5 1.5 2.5981-6.0622 3.4999-1.5-2.598z"
       id="path11" />
    <path
       d="m15.062 9-6.062-3.5-1.5 2.5981 6.062 3.4999 1.5-2.598z"
       id="path13" />
    <rect
       y="1"
       width="1"
       x="7"
       height="3"
       id="rect15" />
    <rect
       transform="rotate(45)"
       height="3"
       width="1"
       y="-6.4497"
       x="9.2782"
       id="rect17" />
    <rect
       transform="matrix(-.70711 .70711 .70711 .70711 0 0)"
       height="3"
       width="1"
       y="4.0711"
       x="-1.4142"
       id="rect19" />
  </g>
  <path
     fill="#0000c3"
     d="m1.7796 28.298 17.242-10.302 4.267 7.647-17.243 10.302-4.2664-7.647z"
     id="path21"
     style="fill:#2c2cff;fill-opacity:1" />
  <path
     fill="#0000c3"
     d="m44.621 28.298-17.243-10.302-4.266 7.647 17.243 10.302 4.266-7.647z"
     id="path23"
     style="fill:#2c2cff;fill-opacity:1" />
  <rect
     height="8.8304"
     width="2.8443"
     y="4.75"
     x="21.69"
     fill="#d72e2e"
     id="rect25" />
  <rect
     transform="matrix(.69489 .71912 -.69489 .71912 0 0)"
     height="8.683"
     width="2.8943"
     y="-18.692"
     x="29.391"
     fill="#d72e2e"
     id="rect27" />
  <rect
     transform="matrix(-.69489 .71912 .69489 .71912 0 0)"
     height="8.683"
     width="2.8943"
     y="14.32"
     x="-4.1176"
     fill="#d72e2e"
     id="rect29" />
</svg>
