<?xml version="1.0" encoding="UTF-8" standalone="no"?>
<svg
   xmlns:dc="http://purl.org/dc/elements/1.1/"
   xmlns:cc="http://creativecommons.org/ns#"
   xmlns:rdf="http://www.w3.org/1999/02/22-rdf-syntax-ns#"
   xmlns:svg="http://www.w3.org/2000/svg"
   xmlns="http://www.w3.org/2000/svg"
   xmlns:sodipodi="http://sodipodi.sourceforge.net/DTD/sodipodi-0.dtd"
   xmlns:inkscape="http://www.inkscape.org/namespaces/inkscape"
   height="26"
   width="26"
   version="1.1"
   id="svg2"
   inkscape:version="0.91 r13725"
   sodipodi:docname="browse_files.svg">
  <metadata
     id="metadata90">
    <rdf:RDF>
      <cc:Work
         rdf:about="">
        <dc:format>image/svg+xml</dc:format>
        <dc:type
           rdf:resource="http://purl.org/dc/dcmitype/StillImage" />
        <dc:title></dc:title>
      </cc:Work>
    </rdf:RDF>
  </metadata>
  <sodipodi:namedview
     pagecolor="#ffffff"
     bordercolor="#666666"
     borderopacity="1"
     objecttolerance="10"
     gridtolerance="10"
     guidetolerance="10"
     inkscape:pageopacity="0"
     inkscape:pageshadow="2"
     inkscape:window-width="1300"
     inkscape:window-height="987"
     id="namedview88"
     showgrid="true"
     inkscape:zoom="27.812867"
     inkscape:cx="13.354179"
     inkscape:cy="15.279692"
     inkscape:window-x="0"
     inkscape:window-y="0"
     inkscape:window-maximized="0"
     inkscape:current-layer="g4">
    <inkscape:grid
       type="xygrid"
       id="grid4218" />
  </sodipodi:namedview>
  <defs
     id="defs4">
    <radialGradient
       id="s"
       gradientUnits="userSpaceOnUse"
       cy="36.812"
       cx="25.375"
       gradientTransform="matrix(1,0,0,0.45357,0,20.115)"
       r="17.5">
      <stop
         offset="0"
         id="stop7" />
      <stop
         stop-opacity="0"
         offset="1"
         id="stop9" />
    </radialGradient>
    <radialGradient
       id="t"
       gradientUnits="userSpaceOnUse"
       cy="24.149"
       cx="17.813999"
       gradientTransform="matrix(-4.378,0,4.8624e-8,3.6749,144.59,-83.252)"
       r="9.125">
      <stop
         stop-color="#fff"
         offset="0"
         id="stop12" />
      <stop
         stop-color="#b6b6b6"
         offset="1"
         id="stop14" />
    </radialGradient>
    <radialGradient
       id="r"
       gradientUnits="userSpaceOnUse"
       cy="210.28999"
       cx="24.735001"
       gradientTransform="scale(2.1101,0.47392)"
       r="20.929001">
      <stop
         stop-opacity=".32292"
         offset="0"
         id="stop17" />
      <stop
         stop-opacity="0"
         offset="1"
         id="stop19" />
    </radialGradient>
    <linearGradient
       id="k"
       y2="101.19"
       gradientUnits="userSpaceOnUse"
       x2="113.84"
       gradientTransform="matrix(0.41765,0,0,0.41692,-120.31,23.331)"
       y1="76.004997"
       x1="113.84">
      <stop
         stop-color="#ffa740"
         offset="0"
         id="stop22" />
      <stop
         stop-color="#bf731a"
         offset="1"
         id="stop24" />
    </linearGradient>
    <linearGradient
       id="l"
       y2="27.309999"
       gradientUnits="userSpaceOnUse"
       x2="49.016998"
       gradientTransform="matrix(0.4832,0,0,0.47061,-116.63,22.513)"
       y1="95.898003"
       x1="22.532">
      <stop
         stop-opacity=".73958"
         offset="0"
         id="stop27" />
      <stop
         stop-opacity="0"
         offset="1"
         id="stop29" />
    </linearGradient>
    <linearGradient
       id="m"
       y2="105.1"
       gradientUnits="userSpaceOnUse"
       x2="42.138"
       gradientTransform="matrix(0.52779,0,0,0.42776,-118.25,22.91)"
       y1="68.161003"
       x1="42.138">
      <stop
         stop-color="#ffa740"
         offset="0"
         id="stop32" />
      <stop
         stop-color="#ca6b18"
         offset="1"
         id="stop34" />
    </linearGradient>
    <linearGradient
       id="n"
       y2="73.220001"
       gradientUnits="userSpaceOnUse"
       x2="7.0335002"
       gradientTransform="matrix(0.52673,0,0,0.42862,-118.25,23.847)"
       y1="74.338997"
       x1="29.540001">
      <stop
         stop-color="#ae5b00"
         offset="0"
         id="stop37" />
      <stop
         stop-color="#ae5b00"
         stop-opacity="0"
         offset="1"
         id="stop39" />
    </linearGradient>
    <linearGradient
       id="o"
       y2="95.257004"
       gradientUnits="userSpaceOnUse"
       x2="30.809999"
       gradientTransform="matrix(0.62433,0,0,0.34514,-118.65,25.099)"
       y1="28.559"
       x1="30.223">
      <stop
         stop-color="#fff"
         stop-opacity=".61458"
         offset="0"
         id="stop42" />
      <stop
         stop-color="#fff"
         stop-opacity="0"
         offset="1"
         id="stop44" />
    </linearGradient>
    <linearGradient
       id="p"
       y2="52.198002"
       gradientUnits="userSpaceOnUse"
       x2="37.014"
       gradientTransform="matrix(0.86756,0,0,0.28918,-118.4,20.727)"
       y1="28.907"
       x1="34.212002">
      <stop
         stop-color="#fff"
         offset="0"
         id="stop47" />
      <stop
         stop-color="#fff"
         stop-opacity="0"
         offset="1"
         id="stop49" />
    </linearGradient>
    <linearGradient
       id="q"
       y2="108.22"
       gradientUnits="userSpaceOnUse"
       x2="56.610001"
       gradientTransform="matrix(0.41323,0,0,0.40486,-120.64,24.465)"
       y1="38.661999"
       x1="17.033001">
      <stop
         stop-color="#fff"
         offset="0"
         id="stop52" />
      <stop
         stop-color="#fff"
         stop-opacity=".21961"
         offset="1"
         id="stop54" />
    </linearGradient>
  </defs>
  <g
     id="Folder"
     transform="matrix(0.34509659,0,0,0.49875858,1.9687145,1.984105)">
    <g
       id="g4">
      <path
         inkscape:connector-curvature="0"
         d="m 60,4.001 -36,0 C 24,1.792 22.209,0 20,0 L 4,0 C 1.791,0 0,1.792 0,4.001 L 0,8 l 0,6.001 0,2 c 0,2.209 1.791,4 4,4 l 56,0 c 2.209,0 4,-1.791 4,-4 L 64,8 C 64,5.791 62.209,4.001 60,4.001 Z"
         style="clip-rule:evenodd;fill:#cca352;fill-rule:evenodd"
         id="path6" />
    </g>
  </g>
  <g
     id="File_1_"
     transform="matrix(0.32198293,0,0,0.37052689,2.7083516,3.0747293)">
    <g
       id="g9">
      <path
         inkscape:connector-curvature="0"
         d="M 56,8 8,8 C 5.791,8 4,9.791 4,12.001 l 0,4 c 0,2.209 1.791,4 4,4 l 48,0 c 2.209,0 4,-1.791 4,-4 l 0,-4 C 60,9.791 58.209,8 56,8 Z"
         style="fill:#ffffff"
         id="path11" />
    </g>
  </g>
  <g
     id="Folder_1_"
     transform="matrix(0.34509659,0,0,0.3143481,1.9687145,5.1751273)">
    <g
       id="g14">
      <path
         inkscape:connector-curvature="0"
         d="m 60,12.001 -56,0 c -2.209,0 -4,1.791 -4,4 l 0,40 c 0,2.209 1.791,4 4,4 l 56,0 c 2.209,0 4,-1.791 4,-4 l 0,-40 c 0,-2.209 -1.791,-4 -4,-4 z"
         style="fill:#ffcc66"
         id="path16" />
    </g>
  </g>
  <g
     id="g18"
     transform="matrix(0.37711864,0,0,0.37711864,1.440678,1.5413739)" />
  <g
     id="g20"
     transform="matrix(0.37711864,0,0,0.37711864,1.440678,1.5413739)" />
  <g
     id="g22"
     transform="matrix(0.37711864,0,0,0.37711864,1.440678,1.5413739)" />
  <g
     id="g24"
     transform="matrix(0.37711864,0,0,0.37711864,1.440678,1.5413739)" />
  <g
     id="g26"
     transform="matrix(0.37711864,0,0,0.37711864,1.440678,1.5413739)" />
  <g
     id="g28"
     transform="matrix(0.37711864,0,0,0.37711864,1.440678,1.5413739)" />
  <g
     id="g30"
     transform="matrix(0.37711864,0,0,0.37711864,1.440678,1.5413739)" />
  <g
     id="g32"
     transform="matrix(0.37711864,0,0,0.37711864,1.440678,1.5413739)" />
  <g
     id="g34"
     transform="matrix(0.37711864,0,0,0.37711864,1.440678,1.5413739)" />
  <g
     id="g36"
     transform="matrix(0.37711864,0,0,0.37711864,1.440678,1.5413739)" />
  <g
     id="g38"
     transform="matrix(0.37711864,0,0,0.37711864,1.440678,1.5413739)" />
  <g
     id="g40"
     transform="matrix(0.37711864,0,0,0.37711864,1.440678,1.5413739)" />
  <g
     id="g42"
     transform="matrix(0.37711864,0,0,0.37711864,1.440678,1.5413739)" />
  <g
     id="g44"
     transform="matrix(0.37711864,0,0,0.37711864,1.440678,1.5413739)" />
  <g
     id="g46"
     transform="matrix(0.37711864,0,0,0.37711864,1.440678,1.5413739)" />
</svg>
