<?xml version="1.0" encoding="UTF-8" standalone="no"?>
<svg
   xmlns:dc="http://purl.org/dc/elements/1.1/"
   xmlns:cc="http://creativecommons.org/ns#"
   xmlns:rdf="http://www.w3.org/1999/02/22-rdf-syntax-ns#"
   xmlns:svg="http://www.w3.org/2000/svg"
   xmlns="http://www.w3.org/2000/svg"
   xmlns:xlink="http://www.w3.org/1999/xlink"
   xmlns:sodipodi="http://sodipodi.sourceforge.net/DTD/sodipodi-0.dtd"
   xmlns:inkscape="http://www.inkscape.org/namespaces/inkscape"
   height="26"
   width="26"
   version="1.1"
   id="svg2"
   inkscape:version="0.92.0 r15299"
   sodipodi:docname="bus_definition_tool.svg">
  <metadata
     id="metadata40">
    <rdf:RDF>
      <cc:Work
         rdf:about="">
        <dc:format>image/svg+xml</dc:format>
        <dc:type
           rdf:resource="http://purl.org/dc/dcmitype/StillImage" />
        <dc:title></dc:title>
      </cc:Work>
    </rdf:RDF>
  </metadata>
  <sodipodi:namedview
     pagecolor="#ffffff"
     bordercolor="#666666"
     borderopacity="1"
     objecttolerance="10"
     gridtolerance="10"
     guidetolerance="10"
     inkscape:pageopacity="0"
     inkscape:pageshadow="2"
     inkscape:window-width="1276"
     inkscape:window-height="966"
     id="namedview38"
     showgrid="false"
     inkscape:zoom="27.086547"
     inkscape:cx="17.367575"
     inkscape:cy="12.688961"
     inkscape:window-x="65"
     inkscape:window-y="34"
     inkscape:window-maximized="0"
     inkscape:current-layer="svg2"
     showguides="false" />
  <defs
     id="defs4">
    <linearGradient
       id="d"
       y2="39.685001"
       gradientUnits="userSpaceOnUse"
       x2="34.534"
       gradientTransform="matrix(0.92673,0,0,0.84499,4.7271,52.187)"
       y1="12.285"
       x1="14.463">
      <stop
         stop-color="#c9c9c9"
         offset="0"
         id="stop7" />
      <stop
         stop-color="#f8f8f8"
         offset=".25"
         id="stop9" />
      <stop
         stop-color="#e2e2e2"
         offset=".5"
         id="stop11" />
      <stop
         stop-color="#b0b0b0"
         offset=".75"
         id="stop13" />
      <stop
         stop-color="#c9c9c9"
         offset="1"
         id="stop15" />
    </linearGradient>
    <filter
       id="c"
       style="color-interpolation-filters:sRGB">
      <feGaussianBlur
         stdDeviation="0.78951921"
         id="feGaussianBlur18" />
    </filter>
    <radialGradient
       inkscape:collect="always"
       xlink:href="#linearGradient3846"
       id="radialGradient4649"
       gradientUnits="userSpaceOnUse"
       gradientTransform="matrix(0.93333333,0,0,0.93333333,13.424581,1170.6826)"
       cx="13"
       cy="13"
       fx="13"
       fy="13"
       r="12" />
    <linearGradient
       id="linearGradient3846">
      <stop
         style="stop-color:#d2d2d2;stop-opacity:1"
         offset="0"
         id="stop3848" />
      <stop
         id="stop3793"
         offset="0.61904764"
         style="stop-color:#c3c3c3;stop-opacity:1" />
      <stop
         style="stop-color:#d2d2d2;stop-opacity:1"
         offset="1"
         id="stop3850" />
    </linearGradient>
    <radialGradient
       inkscape:collect="always"
       xlink:href="#linearGradient3846"
       id="radialGradient3852"
       cx="13"
       cy="13"
       fx="13"
       fy="13"
       r="12"
       gradientUnits="userSpaceOnUse"
       gradientTransform="matrix(0.93333333,0,0,0.93333333,13.424581,1170.6826)" />
    <radialGradient
       inkscape:collect="always"
       xlink:href="#linearGradient3846"
       id="radialGradient4223"
       gradientUnits="userSpaceOnUse"
       gradientTransform="matrix(0.93333333,0,0,0.93333333,13.424581,1170.6826)"
       cx="13"
       cy="13"
       fx="13"
       fy="13"
       r="12" />
  </defs>
  <g
     transform="translate(-18.583467,8.0405322)"
     id="g20">
    <rect
       height="17.066668"
       width="17.066668"
       y="0"
       x="0"
       id="rect22"
       style="fill-opacity:0;stroke-width:1.06666672" />
  </g>
  <g
     id="g4645"
     transform="matrix(0.6399426,0,0,0.640713,6.7756694,-719.63076)">
    <g
       id="g5128"
       transform="translate(-10.817885,-33.245207)"
       style="stroke:#ffffff;stroke-width:4;stroke-miterlimit:4;stroke-dasharray:none">
      <path
         inkscape:connector-curvature="0"
         style="fill:url(#radialGradient4649);fill-opacity:1;stroke:#ffffff;stroke-width:4.26666689;stroke-linecap:round;stroke-linejoin:round;stroke-miterlimit:4;stroke-dasharray:none;stroke-dashoffset:0;stroke-opacity:1"
         d="m 25.557915,1170.5492 c -0.334524,0 -0.672238,0.041 -1,0.066 l -0.8,3.8332 c -1.021302,0.2172 -1.949677,0.6533 -2.8,1.2 l -3.333334,-2.1666 c -0.502455,0.4278 -0.972281,0.8975 -1.4,1.4 l 2.166667,3.3334 c -0.546764,0.8503 -0.982812,1.7786 -1.2,2.8 l -3.833333,0.8 c -0.02627,0.3277 -0.06667,0.6655 -0.06667,1 0,0.3345 0.0404,0.6722 0.06667,1 l 3.833333,0.8 c 0.217188,1.0212 0.653236,1.9496 1.2,2.8 l -2.166667,3.3333 c 0.427719,0.5024 0.897545,0.9723 1.4,1.4 l 3.333334,-2.1667 c 0.850323,0.5467 1.778698,0.9828 2.8,1.2 l 0.8,3.8334 c 0.327762,0.027 0.665476,0.066 1,0.066 0.334523,0 0.672238,-0.041 1,-0.066 l 0.8,-3.8334 c 1.021301,-0.2172 1.949676,-0.6533 2.8,-1.2 l 3.333333,2.1667 c 0.502455,-0.4277 0.972282,-0.8976 1.4,-1.4 l -2.166667,-3.3333 c 0.546763,-0.8504 0.982812,-1.7788 1.2,-2.8 l 3.833334,-0.8 c 0.02627,-0.3278 0.06667,-0.6655 0.06667,-1 0,-0.3345 -0.04039,-0.6723 -0.06667,-1 l -3.833334,-0.8 c -0.217188,-1.0214 -0.653237,-1.9497 -1.2,-2.8 l 2.166667,-3.3334 c -0.427718,-0.5025 -0.897545,-0.9722 -1.4,-1.4 l -3.333333,2.1666 c -0.850324,-0.5467 -1.778699,-0.9828 -2.8,-1.2 l -0.8,-3.8332 c -0.327762,-0.027 -0.665477,-0.066 -1,-0.066 z m 0,8.5334 c 2.061863,0 3.733333,1.6714 3.733333,3.7333 0,2.0619 -1.67147,3.7333 -3.733333,3.7333 -2.061864,0 -3.733334,-1.6714 -3.733334,-3.7333 0,-2.0619 1.67147,-3.7333 3.733334,-3.7333 z"
         id="path5130" />
      <path
         id="path5132"
         d="m 25.557915,1170.5492 c -0.334524,0 -0.672238,0.041 -1,0.066 l -0.8,3.8332 c -1.021302,0.2172 -1.949677,0.6533 -2.8,1.2 l -3.333334,-2.1666 c -0.502455,0.4278 -0.972281,0.8975 -1.4,1.4 l 2.166667,3.3334 c -0.546764,0.8503 -0.982812,1.7786 -1.2,2.8 l -3.833333,0.8 c -0.02627,0.3277 -0.06667,0.6655 -0.06667,1 0,0.3345 0.0404,0.6722 0.06667,1 l 3.833333,0.8 c 0.217188,1.0212 0.653236,1.9496 1.2,2.8 l -2.166667,3.3333 c 0.427719,0.5024 0.897545,0.9723 1.4,1.4 l 3.333334,-2.1667 c 0.850323,0.5467 1.778698,0.9828 2.8,1.2 l 0.8,3.8334 c 0.327762,0.027 0.665476,0.066 1,0.066 0.334523,0 0.672238,-0.041 1,-0.066 l 0.8,-3.8334 c 1.021301,-0.2172 1.949676,-0.6533 2.8,-1.2 l 3.333333,2.1667 c 0.502455,-0.4277 0.972282,-0.8976 1.4,-1.4 l -2.166667,-3.3333 c 0.546763,-0.8504 0.982812,-1.7788 1.2,-2.8 l 3.833334,-0.8 c 0.02627,-0.3278 0.06667,-0.6655 0.06667,-1 0,-0.3345 -0.04039,-0.6723 -0.06667,-1 l -3.833334,-0.8 c -0.217188,-1.0214 -0.653237,-1.9497 -1.2,-2.8 l 2.166667,-3.3334 c -0.427718,-0.5025 -0.897545,-0.9722 -1.4,-1.4 l -3.333333,2.1666 c -0.850324,-0.5467 -1.778699,-0.9828 -2.8,-1.2 l -0.8,-3.8332 c -0.327762,-0.027 -0.665477,-0.066 -1,-0.066 z m 0,8.5334 c 2.061863,0 3.733333,1.6714 3.733333,3.7333 0,2.0619 -1.67147,3.7333 -3.733333,3.7333 -2.061864,0 -3.733334,-1.6714 -3.733334,-3.7333 0,-2.0619 1.67147,-3.7333 3.733334,-3.7333 z"
         style="fill:url(#radialGradient3852);fill-opacity:1;stroke:#ffffff;stroke-width:4.26666689;stroke-linecap:round;stroke-linejoin:round;stroke-miterlimit:4;stroke-dasharray:none;stroke-dashoffset:0;stroke-opacity:1"
         inkscape:connector-curvature="0" />
    </g>
    <g
       style="stroke:#000000"
       transform="translate(-10.817885,-33.245207)"
       id="g4219">
      <path
         id="path4215"
         d="m 25.557915,1170.5492 c -0.334524,0 -0.672238,0.041 -1,0.066 l -0.8,3.8332 c -1.021302,0.2172 -1.949677,0.6533 -2.8,1.2 l -3.333334,-2.1666 c -0.502455,0.4278 -0.972281,0.8975 -1.4,1.4 l 2.166667,3.3334 c -0.546764,0.8503 -0.982812,1.7786 -1.2,2.8 l -3.833333,0.8 c -0.02627,0.3277 -0.06667,0.6655 -0.06667,1 0,0.3345 0.0404,0.6722 0.06667,1 l 3.833333,0.8 c 0.217188,1.0212 0.653236,1.9496 1.2,2.8 l -2.166667,3.3333 c 0.427719,0.5024 0.897545,0.9723 1.4,1.4 l 3.333334,-2.1667 c 0.850323,0.5467 1.778698,0.9828 2.8,1.2 l 0.8,3.8334 c 0.327762,0.027 0.665476,0.066 1,0.066 0.334523,0 0.672238,-0.041 1,-0.066 l 0.8,-3.8334 c 1.021301,-0.2172 1.949676,-0.6533 2.8,-1.2 l 3.333333,2.1667 c 0.502455,-0.4277 0.972282,-0.8976 1.4,-1.4 l -2.166667,-3.3333 c 0.546763,-0.8504 0.982812,-1.7788 1.2,-2.8 l 3.833334,-0.8 c 0.02627,-0.3278 0.06667,-0.6655 0.06667,-1 0,-0.3345 -0.04039,-0.6723 -0.06667,-1 l -3.833334,-0.8 c -0.217188,-1.0214 -0.653237,-1.9497 -1.2,-2.8 l 2.166667,-3.3334 c -0.427718,-0.5025 -0.897545,-0.9722 -1.4,-1.4 l -3.333333,2.1666 c -0.850324,-0.5467 -1.778699,-0.9828 -2.8,-1.2 l -0.8,-3.8332 c -0.327762,-0.027 -0.665477,-0.066 -1,-0.066 z m 0,8.5334 c 2.061863,0 3.733333,1.6714 3.733333,3.7333 0,2.0619 -1.67147,3.7333 -3.733333,3.7333 -2.061864,0 -3.733334,-1.6714 -3.733334,-3.7333 0,-2.0619 1.67147,-3.7333 3.733334,-3.7333 z"
         style="fill:url(#radialGradient4223);fill-opacity:1;stroke:#000000;stroke-width:1.06666672;stroke-linecap:round;stroke-linejoin:round;stroke-miterlimit:4;stroke-dasharray:none;stroke-dashoffset:0;stroke-opacity:1"
         inkscape:connector-curvature="0" />
    </g>
  </g>
  <g
     id="g5118">
    <path
       sodipodi:nodetypes="ccc"
       inkscape:connector-curvature="0"
       id="path5069"
       d="m 7.2103535,11.126809 4.7295995,-4.7296 h 13.725379"
       style="fill:none;fill-rule:evenodd;stroke:#008300;stroke-width:1;stroke-linecap:round;stroke-linejoin:miter;stroke-miterlimit:4;stroke-dasharray:none;stroke-opacity:1" />
    <path
       sodipodi:nodetypes="ccc"
       inkscape:connector-curvature="0"
       id="path5069-1"
       d="M 7.0157009,5.8418954 11.7453,1.1122958 h 13.762299"
       style="fill:none;fill-rule:evenodd;stroke:#008300;stroke-width:1;stroke-linecap:round;stroke-linejoin:miter;stroke-miterlimit:4;stroke-dasharray:none;stroke-opacity:1" />
  </g>
  <path
     style="fill:none;fill-rule:evenodd;stroke:#0000c8;stroke-width:2.04428124;stroke-linecap:round;stroke-linejoin:miter;stroke-miterlimit:4;stroke-dasharray:none;stroke-opacity:1"
     d="M 6.8258543,1.0837996 V 24.810217"
     id="path3703"
     inkscape:connector-curvature="0" />
  <text
     xml:space="preserve"
     style="font-style:normal;font-variant:normal;font-weight:bold;font-stretch:normal;font-size:6.67062235px;line-height:166.76554871px;font-family:Arial;-inkscape-font-specification:'Arial Bold';letter-spacing:0px;word-spacing:0px;fill:#000000;fill-opacity:1;stroke:none;stroke-width:0.83382779px;stroke-linecap:butt;stroke-linejoin:miter;stroke-opacity:1"
     x="-20.690458"
     y="5.6071129"
     id="text5110"
     transform="matrix(0.00373681,-1.0326644,0.96835438,0.00398498,0,0)"><tspan
       sodipodi:role="line"
       id="tspan5108"
       x="-20.690458"
       y="5.6071129"
       style="stroke-width:0.83382779px">BUS</tspan></text>
</svg>
