<svg id="Слой_1" data-name="Слой 1"
  xmlns:dc="http://purl.org/dc/elements/1.1/"
  xmlns:cc="http://creativecommons.org/ns#"
  xmlns:rdf="http://www.w3.org/1999/02/22-rdf-syntax-ns#"
  xmlns="http://www.w3.org/2000/svg" viewBox="0 0 26 26">
  <metadata id="metadata43">
    <rdf:RDF>
      <cc:Work rdf:about="">
        <cc:license rdf:resource="http://creativecommons.org/licenses/by-sa/4.0/" />
        <dc:format>image/svg+xml</dc:format>
        <dc:type rdf:resource="http://purl.org/dc/dcmitype/StillImage" />
        <dc:title>add_arc</dc:title>
      </cc:Work>
      <cc:License rdf:about="http://creativecommons.org/licenses/by-sa/4.0/">
        <cc:permits rdf:resource="http://creativecommons.org/ns#Reproduction" />
        <cc:permits rdf:resource="http://creativecommons.org/ns#Distribution" />
        <cc:requires rdf:resource="http://creativecommons.org/ns#Notice" />
        <cc:requires rdf:resource="http://creativecommons.org/ns#Attribution" />
        <cc:permits rdf:resource="http://creativecommons.org/ns#DerivativeWorks" />
        <cc:requires rdf:resource="http://creativecommons.org/ns#ShareAlike" />
      </cc:License>
    </rdf:RDF>
  </metadata>
  <defs>
    <style>.cls-1{fill:#b9b9b9;}.cls-2,.cls-3,.cls-4{fill:none;stroke-linejoin:round;}.cls-2,.cls-4{stroke:#545454;}.cls-2{stroke-width:2px;}.cls-3{stroke:#1a81c4;}.cls-3,.cls-4{stroke-linecap:round;}.cls-5{fill:#fff;}.cls-6{fill:#e61c50;}</style>
  </defs>
  <title>bus_definition_tool</title>
  <path class="cls-1" d="M4.4927,1H18.4743A3.4977,3.4977,0,0,1,21.972,4.4977V18.4991a3.4978,3.4978,0,0,1-3.4978,3.4978H4.4926A3.4978,3.4978,0,0,1,.9948,18.4991V4.4979A3.4979,3.4979,0,0,1,4.4927,1Z"/>
  <line class="cls-2" x1="6.1876" y1="1.0003" x2="6.1876" y2="21.9948"/>
  <line class="cls-3" x1="6.1844" y1="9.2656" x2="14.0049" y2="4.2355"/>
  <line class="cls-3" x1="6.1844" y1="13.532" x2="14.0049" y2="8.5018"/>
  <line class="cls-4" x1="18.985" y1="4.2181" x2="13.9465" y2="4.2181"/>
  <line class="cls-4" x1="18.985" y1="8.4844" x2="13.9465" y2="8.4844"/>
  <circle class="cls-5" cx="17.8974" cy="18.1164" r="3.4667"/>
  <path class="cls-6" d="M24.7087,19.5535l-1.2674-.907-.015.0269a5.1976,5.1976,0,0,0,.0693-.6877,5.203,5.203,0,0,0-.0738-.7314l.0074.0127,1.2576-.92a.67.67,0,0,0,.1848-.8745l-1.1327-1.9683a.67.67,0,0,0-.8489-.28l-1.4277.6248.0124.0215a5.2207,5.2207,0,0,0-1.2774-.757l-.1694-1.5386a.67.67,0,0,0-.6656-.5964h-2.271a.67.67,0,0,0-.6658.5964l-.17,1.5453a5.2192,5.2192,0,0,0-1.3211.8044l.018-.0322-1.4342-.61a.67.67,0,0,0-.846.2886l-1.1118,1.98a.67.67,0,0,0,.1943.8725l1.2674.907.0276-.0492a5.2141,5.2141,0,0,0-.0709.7037,5.21,5.21,0,0,0,.0767.7616l-.021-.0367-1.2576.9205a.67.67,0,0,0-.1851.8744l1.1327,1.9684a.67.67,0,0,0,.8489.2795l1.4279-.6249-.0293-.0507a5.22,5.22,0,0,0,1.2933.7762l.17,1.5487a.67.67,0,0,0,.6656.5964h2.271a.67.67,0,0,0,.6656-.5964l.1705-1.5484a5.2191,5.2191,0,0,0,1.318-.7963l-.0154.0271,1.4344.61a.67.67,0,0,0,.8459-.2885l1.1117-1.98A.67.67,0,0,0,24.7087,19.5535Zm-6.4714.9334a2.5012,2.5012,0,1,1,2.5012-2.5012A2.5013,2.5013,0,0,1,18.2373,20.4869Z"/>
</svg>