<?xml version="1.0" encoding="UTF-8" standalone="no"?>
<svg
   xmlns:dc="http://purl.org/dc/elements/1.1/"
   xmlns:cc="http://creativecommons.org/ns#"
   xmlns:rdf="http://www.w3.org/1999/02/22-rdf-syntax-ns#"
   xmlns:svg="http://www.w3.org/2000/svg"
   xmlns="http://www.w3.org/2000/svg"
   xmlns:sodipodi="http://sodipodi.sourceforge.net/DTD/sodipodi-0.dtd"
   xmlns:inkscape="http://www.inkscape.org/namespaces/inkscape"
   id="Слой_1"
   data-name="Слой 1"
   viewBox="0 0 24 24"
   version="1.1"
   sodipodi:docname="calculator.svg"
   inkscape:version="1.0.1 (3bc2e813f5, 2020-09-07)">
  <sodipodi:namedview
     pagecolor="#ffffff"
     bordercolor="#666666"
     borderopacity="1"
     objecttolerance="10"
     gridtolerance="10"
     guidetolerance="10"
     inkscape:pageopacity="0"
     inkscape:pageshadow="2"
     inkscape:window-width="1609"
     inkscape:window-height="1286"
     id="namedview30"
     showgrid="true"
     inkscape:zoom="27.961538"
     inkscape:cx="3.3259971"
     inkscape:cy="13"
     inkscape:window-x="0"
     inkscape:window-y="37"
     inkscape:window-maximized="0"
     inkscape:document-rotation="0"
     inkscape:current-layer="Слой_1">
    <inkscape:grid
       type="xygrid"
       id="grid_kicad"
       spacingx="0.5"
       spacingy="0.5"
       color="#9999ff"
       opacity="0.13"
       empspacing="2" />
  </sodipodi:namedview>
  <metadata
     id="metadata43">
    <rdf:RDF>
      <cc:Work
         rdf:about="">
        <cc:license
           rdf:resource="http://creativecommons.org/licenses/by-sa/4.0/" />
        <dc:format>image/svg+xml</dc:format>
        <dc:type
           rdf:resource="http://purl.org/dc/dcmitype/StillImage" />
        <dc:title>add_arc</dc:title>
      </cc:Work>
      <cc:License
         rdf:about="http://creativecommons.org/licenses/by-sa/4.0/">
        <cc:permits
           rdf:resource="http://creativecommons.org/ns#Reproduction" />
        <cc:permits
           rdf:resource="http://creativecommons.org/ns#Distribution" />
        <cc:requires
           rdf:resource="http://creativecommons.org/ns#Notice" />
        <cc:requires
           rdf:resource="http://creativecommons.org/ns#Attribution" />
        <cc:permits
           rdf:resource="http://creativecommons.org/ns#DerivativeWorks" />
        <cc:requires
           rdf:resource="http://creativecommons.org/ns#ShareAlike" />
      </cc:License>
    </rdf:RDF>
  </metadata>
  <defs
     id="defs645">
    <style
       id="style643">.cls-1{fill:#f29100;}.cls-2{fill:#b9b9b9;}.cls-3{fill:none;stroke:#fff;stroke-miterlimit:10;}.cls-4{fill:#545454;}</style>
  </defs>
  <title
     id="title647">calculator</title>
  <path
     class="cls-1"
     d="M 20,0 H 4 A 4,4 0 0 0 0,4 v 16 a 4,4 0 0 0 4,4 h 16 a 4,4 0 0 0 4,-4 V 4 A 4,4 0 0 0 20,0 Z"
     id="path649" />
  <path
     class="cls-2"
     d="M 14.6173,11.9951 H 12.0129 V 12 L 12,24 h 8 a 4,4 0 0 0 4,-4 v -8.0049 z"
     id="path651" />
  <line
     class="cls-3"
     x1="12"
     y1="0"
     x2="12"
     y2="23.998699"
     id="line653" />
  <line
     class="cls-3"
     x1="23.9993"
     y1="11.9993"
     x2="0.00069999695"
     y2="11.9993"
     id="line655" />
  <path
     class="cls-4"
     d="M 6.5225,5.9883 H 7.9512 V 6.8252 H 6.5225 V 8.457 H 5.6357 V 6.8252 H 4.1992 V 5.9883 H 5.6357 V 4.4619 h 0.8868 z"
     id="path657" />
  <path
     class="cls-4"
     d="m 6.7246,17.9161 1.01,1.01 -0.5918,0.5918 -1.01,-1.01 L 4.979,19.6618 4.352,19.0348 5.5058,17.8809 4.49,16.8651 5.0818,16.2733 6.0975,17.2891 7.1769,16.21 l 0.627,0.627 z"
     id="path659" />
  <path
     class="cls-4"
     d="m 19.7041,17.3623 h -3.2412 v -0.7617 h 3.2412 z m 0,1.5977 h -3.2412 v -0.7579 h 3.2412 z"
     id="path661" />
  <path
     class="cls-4"
     d="M 19.7558,7.04 H 16.5371 V 6.3047 h 3.2187 z"
     id="path663" />
</svg>
