<?xml version="1.0" encoding="UTF-8" standalone="no"?>
<svg
   xmlns:dc="http://purl.org/dc/elements/1.1/"
   xmlns:cc="http://creativecommons.org/ns#"
   xmlns:rdf="http://www.w3.org/1999/02/22-rdf-syntax-ns#"
   xmlns:svg="http://www.w3.org/2000/svg"
   xmlns="http://www.w3.org/2000/svg"
   xmlns:sodipodi="http://sodipodi.sourceforge.net/DTD/sodipodi-0.dtd"
   xmlns:inkscape="http://www.inkscape.org/namespaces/inkscape"
   id="Слой_1"
   data-name="Слой 1"
   viewBox="0 0 24 24"
   version="1.1"
   sodipodi:docname="change_lib_symbols_in_schematic.svg"
   inkscape:version="1.0.1 (3bc2e813f5, 2020-09-07)">
  <sodipodi:namedview
     pagecolor="#ffffff"
     bordercolor="#666666"
     borderopacity="1"
     objecttolerance="10"
     gridtolerance="10"
     guidetolerance="10"
     inkscape:pageopacity="0"
     inkscape:pageshadow="2"
     inkscape:window-width="1609"
     inkscape:window-height="1286"
     id="namedview30"
     showgrid="true"
     inkscape:zoom="27.961538"
     inkscape:cx="12.012381"
     inkscape:cy="11.481535"
     inkscape:window-x="0"
     inkscape:window-y="37"
     inkscape:window-maximized="0"
     inkscape:document-rotation="0"
     inkscape:current-layer="Слой_1">
    <inkscape:grid
       type="xygrid"
       id="grid_kicad"
       spacingx="0.5"
       spacingy="0.5"
       color="#9999ff"
       opacity="0.13"
       empspacing="2" />
  </sodipodi:namedview>
  <metadata
     id="metadata43">
    <rdf:RDF>
      <cc:Work
         rdf:about="">
        <cc:license
           rdf:resource="http://creativecommons.org/licenses/by-sa/4.0/" />
        <dc:format>image/svg+xml</dc:format>
        <dc:type
           rdf:resource="http://purl.org/dc/dcmitype/StillImage" />
        <dc:title>add_arc</dc:title>
      </cc:Work>
      <cc:License
         rdf:about="http://creativecommons.org/licenses/by-sa/4.0/">
        <cc:permits
           rdf:resource="http://creativecommons.org/ns#Reproduction" />
        <cc:permits
           rdf:resource="http://creativecommons.org/ns#Distribution" />
        <cc:requires
           rdf:resource="http://creativecommons.org/ns#Notice" />
        <cc:requires
           rdf:resource="http://creativecommons.org/ns#Attribution" />
        <cc:permits
           rdf:resource="http://creativecommons.org/ns#DerivativeWorks" />
        <cc:requires
           rdf:resource="http://creativecommons.org/ns#ShareAlike" />
      </cc:License>
    </rdf:RDF>
  </metadata>
  <defs
     id="defs671">
    <style
       id="style669">.cls-1{fill:#b9b9b9;}.cls-2{fill:#545454;}.cls-3{fill:#d8d8d8;}.cls-4{fill:none;stroke:#e61c50;stroke-linecap:round;stroke-linejoin:round;stroke-width:2px;}</style>
  </defs>
  <title
     id="title673">change_lib_symbols_in_schematic</title>
  <path
     class="cls-1"
     d="m 10.6511,7.9948 h 10.6668 a 2.6666,2.6666 0 0 1 2.6666,2.6666 v 10.6667 a 2.6667,2.6667 0 0 1 -2.6667,2.6667 H 10.6511 A 2.6666,2.6666 0 0 1 7.9845,21.3282 V 10.6614 a 2.6666,2.6666 0 0 1 2.6666,-2.6666 z"
     id="path675" />
  <path
     class="cls-2"
     d="M 22.4357,15.4549 H 21.2329 L 11.7058,9.163 A 0.58,0.58 0 0 0 10.8051,9.6473 V 11.97 H 9.6434 a 0.5808,0.5808 0 1 0 0,1.1615 h 1.1617 V 18.94 H 9.6434 a 0.5808,0.5808 0 1 0 0,1.1615 h 1.1617 v 2.323 a 0.58,0.58 0 0 0 0.9007,0.4844 l 9.5271,-6.292 h 1.2028 a 0.5808,0.5808 0 1 0 0,-1.1616 z m -10.469,5.8893 v -10.617 l 8.0385,5.3086 z"
     id="path677" />
  <path
     class="cls-2"
     d="m 13.1074,14.8742 h 1.351 a 0.5808,0.5808 0 1 0 0,-1.1615 h -1.351 a 0.5808,0.5808 0 1 0 0,1.1615 z"
     id="path679" />
  <path
     class="cls-2"
     d="m 14.4817,17 v -0.1917 a 0.5808,0.5808 0 0 0 -1.1616,0 V 17 H 13.129 a 0.5808,0.5808 0 1 0 0,1.1615 h 0.191 v 0.1912 a 0.5808,0.5808 0 0 0 1.1616,0 v -0.1912 h 0.1912 a 0.5808,0.5808 0 1 0 0,-1.1615 z"
     id="path681" />
  <path
     class="cls-3"
     d="m 2.6662,-5e-4 h 10.6666 a 2.6667,2.6667 0 0 1 2.6667,2.6667 v 10.6666 a 2.6667,2.6667 0 0 1 -2.6667,2.6667 H 2.6661 A 2.6666,2.6666 0 0 1 -5e-4,13.3329 V 2.6662 A 2.6667,2.6667 0 0 1 2.6662,-5e-4 Z"
     id="path683" />
  <path
     class="cls-2"
     d="M 14.4219,7.3548 H 13.1685 A 1.7655,1.7655 0 0 0 11.5279,6.2316 H 11.2243 A 4.5116,4.5116 0 0 0 7.087,3.4886 H 3.4916 A 0.6443,0.6443 0 0 0 2.8471,4.1329 v 0.9144 h -1.27 a 0.6444,0.6444 0 1 0 0,1.2887 h 1.27 v 3.3264 h -1.27 a 0.6444,0.6444 0 1 0 0,1.2887 h 1.27 v 0.915 a 0.6443,0.6443 0 0 0 0.6445,0.6444 H 7.087 a 4.5042,4.5042 0 0 0 4.1506,-2.7437 h 0.29 a 1.7648,1.7648 0 0 0 1.64,-1.1232 h 1.2539 a 0.6444,0.6444 0 1 0 0,-1.2888 z M 7.087,11.2217 H 4.136 V 4.7773 H 7.087 A 3.2284,3.2284 0 0 1 9.8942,6.4218 1.7544,1.7544 0 0 0 9.8914,9.575 3.2128,3.2128 0 0 1 7.087,11.2217 Z m 4.4409,-2.7436 h -0.8521 a 0.4789,0.4789 0 1 1 0,-0.9578 h 0.8521 a 0.4789,0.4789 0 0 1 0,0.9578 z"
     id="path685" />
  <polyline
     class="cls-4"
     points="10.167 21.546 3.997 21.546 3.997 15.935"
     id="polyline687"
     transform="translate(-1,-1)" />
  <polyline
     class="cls-4"
     points="7.79 19.12 10.216 21.546 7.79 23.973"
     id="polyline689"
     transform="translate(-1,-1)" />
</svg>
