<svg id="Слой_1" data-name="Слой 1"
  xmlns:dc="http://purl.org/dc/elements/1.1/"
  xmlns:cc="http://creativecommons.org/ns#"
  xmlns:rdf="http://www.w3.org/1999/02/22-rdf-syntax-ns#"
  xmlns="http://www.w3.org/2000/svg" viewBox="0 0 26 26">
  <metadata id="metadata43">
    <rdf:RDF>
      <cc:Work rdf:about="">
        <cc:license rdf:resource="http://creativecommons.org/licenses/by-sa/4.0/" />
        <dc:format>image/svg+xml</dc:format>
        <dc:type rdf:resource="http://purl.org/dc/dcmitype/StillImage" />
        <dc:title>add_arc</dc:title>
      </cc:Work>
      <cc:License rdf:about="http://creativecommons.org/licenses/by-sa/4.0/">
        <cc:permits rdf:resource="http://creativecommons.org/ns#Reproduction" />
        <cc:permits rdf:resource="http://creativecommons.org/ns#Distribution" />
        <cc:requires rdf:resource="http://creativecommons.org/ns#Notice" />
        <cc:requires rdf:resource="http://creativecommons.org/ns#Attribution" />
        <cc:permits rdf:resource="http://creativecommons.org/ns#DerivativeWorks" />
        <cc:requires rdf:resource="http://creativecommons.org/ns#ShareAlike" />
      </cc:License>
    </rdf:RDF>
  </metadata>
  <defs>
    <style>.cls-1{fill:#1a81c4;}.cls-2{fill:none;stroke:#545454;stroke-linecap:round;stroke-linejoin:round;}</style>
  </defs>
  <title>component_select_unit</title>
  <path class="cls-1" d="M10.3126,14.0209,11.01,13.26a5.1111,5.1111,0,0,0,.71-.9268,1.493,1.493,0,0,0,.1954-.709,1.08,1.08,0,0,0-.253-.7294.8563.8563,0,0,0-.6826-.293,1.051,1.051,0,0,0-.8428.3193,1.3075,1.3075,0,0,0-.2753.8809H8.8193l-.0088-.0264a1.9046,1.9046,0,0,1,.5634-1.4521,2.16,2.16,0,0,1,1.6055-.5889,2.0455,2.0455,0,0,1,1.4717.5156,1.7776,1.7776,0,0,1,.541,1.3467,1.9956,1.9956,0,0,1-.3125,1.0625,8.93,8.93,0,0,1-.9687,1.2324l-.59.6222Z"/>
  <path class="cls-1" d="M13.8169,6.4539h.7486a.9621.9621,0,0,0,.7539-.26,1.0715,1.0715,0,0,0,.23-.7363.9943.9943,0,0,0-.248-.7226A.975.975,0,0,0,14.57,4.48a1.0192,1.0192,0,0,0-.7154.251.8455.8455,0,0,0-.2773.66H12.54l-.0088-.0264a1.5116,1.5116,0,0,1,.5518-1.247,2.16,2.16,0,0,1,1.4741-.5049,2.2435,2.2435,0,0,1,1.5078.4805,1.6912,1.6912,0,0,1,.5635,1.3642,1.4424,1.4424,0,0,1-.253.8008,1.6554,1.6554,0,0,1-.7187.6,1.5379,1.5379,0,0,1,.81.5957,1.6418,1.6418,0,0,1,.26.9121,1.72,1.72,0,0,1-.61,1.3975c-.4063.34-.9483-.4473-.7559-.628a.8393.8393,0,0,0,.1711-.2259,1.16,1.16,0,0,0,.117-.5416,1.0873,1.0873,0,0,0-.2637-.8057,1.1274,1.1274,0,0,0-.8183-.2588h-.7486Z"/>
  <path class="cls-2" d="M13.0148,21.16A5.3184,5.3184,0,0,1,8.116,24.5009H3.1729v-10.94H8.116a5.3308,5.3308,0,0,1,5.0108,3.6372"/>
  <path class="cls-2" d="M13.0586,17.4418h1.1493a1.5557,1.5557,0,0,1,1.5557,1.5557v.0669A1.5557,1.5557,0,0,1,14.2079,20.62H13.0585a1.553,1.553,0,0,1-1.553-1.553v-.0722a1.5531,1.5531,0,0,1,1.5531-1.5531Z"/>
  <line class="cls-2" x1="2.8547" y1="15.7667" x2="1.5273" y2="15.7667"/>
  <line class="cls-2" x1="2.8547" y1="22.2951" x2="1.5273" y2="22.2951"/>
  <line class="cls-2" x1="17.214" y1="19.0309" x2="15.8513" y2="19.0309"/>
  <path class="cls-2" d="M6.83,13.277v-5.75h4.9431a5.3308,5.3308,0,0,1,5.0108,3.6372"/>
  <path class="cls-2" d="M16.6715,15.1264a5.4721,5.4721,0,0,1-1.6128,2.1713"/>
  <path class="cls-2" d="M16.7152,11.4081h1.1494A1.5557,1.5557,0,0,1,19.42,12.9638v.0669a1.5557,1.5557,0,0,1-1.5557,1.5557H16.7153a1.5531,1.5531,0,0,1-1.5531-1.5531v-.0722a1.553,1.553,0,0,1,1.553-1.553Z"/>
  <line class="cls-2" x1="6.5114" y1="9.7331" x2="5.184" y2="9.7331"/>
  <line class="cls-2" x1="20.8706" y1="12.9973" x2="19.5079" y2="12.9973"/>
  <path class="cls-2" d="M10.4862,7.2433v-5.75h4.9432A5.3309,5.3309,0,0,1,20.44,5.1308"/>
  <path class="cls-2" d="M20.3282,9.0928a5.4657,5.4657,0,0,1-1.7538,2.2816"/>
  <path class="cls-2" d="M20.372,5.3745h1.1493A1.5557,1.5557,0,0,1,23.077,6.93v.0669a1.5557,1.5557,0,0,1-1.5557,1.5557H20.372A1.5531,1.5531,0,0,1,18.8189,7V6.9276A1.5531,1.5531,0,0,1,20.372,5.3745Z"/>
  <line class="cls-2" x1="10.1681" y1="3.6994" x2="8.8407" y2="3.6994"/>
  <line class="cls-2" x1="24.5273" y1="6.9636" x2="23.1646" y2="6.9636"/>
  <path class="cls-1" d="M8.3726,22.3213H7.2954V16.875H5.9829v-.7959l2.39-.2305Z"/>
</svg>