<?xml version="1.0" encoding="UTF-8" standalone="no"?>
<svg
   xmlns:dc="http://purl.org/dc/elements/1.1/"
   xmlns:cc="http://creativecommons.org/ns#"
   xmlns:rdf="http://www.w3.org/1999/02/22-rdf-syntax-ns#"
   xmlns:svg="http://www.w3.org/2000/svg"
   xmlns="http://www.w3.org/2000/svg"
   xmlns:xlink="http://www.w3.org/1999/xlink"
   xmlns:sodipodi="http://sodipodi.sourceforge.net/DTD/sodipodi-0.dtd"
   xmlns:inkscape="http://www.inkscape.org/namespaces/inkscape"
   height="48"
   width="48"
   version="1.1"
   id="svg2"
   inkscape:version="0.48.1 r9760"
   sodipodi:docname="config.svg">
  <metadata
     id="metadata223">
    <rdf:RDF>
      <cc:Work
         rdf:about="">
        <dc:format>image/svg+xml</dc:format>
        <dc:type
           rdf:resource="http://purl.org/dc/dcmitype/StillImage" />
      </cc:Work>
    </rdf:RDF>
  </metadata>
  <sodipodi:namedview
     pagecolor="#ffffff"
     bordercolor="#666666"
     borderopacity="1"
     objecttolerance="10"
     gridtolerance="10"
     guidetolerance="10"
     inkscape:pageopacity="0"
     inkscape:pageshadow="2"
     inkscape:window-width="1600"
     inkscape:window-height="876"
     id="namedview221"
     showgrid="false"
     inkscape:zoom="6.6666667"
     inkscape:cx="20.268593"
     inkscape:cy="24"
     inkscape:window-x="0"
     inkscape:window-y="24"
     inkscape:window-maximized="1"
     inkscape:current-layer="svg2" />
  <defs
     id="defs4">
    <linearGradient
       id="b">
      <stop
         stop-color="#fff"
         offset="0"
         id="stop7" />
      <stop
         stop-color="#fff"
         stop-opacity="0"
         offset="1"
         id="stop9" />
    </linearGradient>
    <linearGradient
       id="a">
      <stop
         offset="0"
         id="stop12" />
      <stop
         stop-opacity="0"
         offset="1"
         id="stop14" />
    </linearGradient>
    <clipPath
       id="an">
      <path
         display="block"
         fill="url(#linearGradient3774)"
         d="m30.916 135.97c-0.93726 0.54113-1.2283 1.7475-0.67792 2.7008l1.9375 3.3558c-1.4181 1.4141-2.6223 3.012-3.5955 4.71l-3.7836-0.99094c-0.53163-0.14245-1.0379-0.11751-1.4762 0.13061-0.43816 0.24835-0.79654 0.66758-0.9366 1.1903l-1.9788 7.3851c-0.2801 1.0454 0.36595 2.0654 1.4291 2.3503l3.7722 1.0336c-0.0062 1.9571 0.23771 3.943 0.75875 5.8767l-3.3558 1.9375c-0.95328 0.55038-1.3044 1.7407-0.7633 2.6779l3.8125 6.6034c0.54113 0.93726 1.7475 1.2283 2.7008 0.67792l3.3558-1.9375c1.4141 1.4181 3.012 2.6223 4.71 3.5954l-0.99094 3.7836c-0.2849 1.0632 0.27544 2.1327 1.3209 2.4128l7.3851 1.9788c1.0454 0.28012 2.0654-0.36588 2.3503-1.4291l1.0336-3.7722c1.9571 0.006 3.943-0.2377 5.8767-0.75875l1.9375 3.3558c0.55038 0.95327 1.7407 1.3044 2.6779 0.7633l6.6034-3.8125c0.93726-0.54113 1.2283-1.7475 0.67792-2.7008l-1.9375-3.3558c1.4181-1.4141 2.6223-3.012 3.5955-4.71l3.7836 0.99095c1.0632 0.28489 2.1327-0.2755 2.4128-1.3209l1.9788-7.3851c0.2801-1.0454-0.36595-2.0654-1.4291-2.3503l-3.7722-1.0336c0.0062-1.9571-0.2377-3.943-0.75876-5.8767l3.3558-1.9375c0.95327-0.55037 1.3044-1.7407 0.7633-2.6779l-3.8125-6.6034c-0.54113-0.93727-1.7475-1.2283-2.7008-0.67793l-3.3558 1.9375c-1.4141-1.4181-3.012-2.6223-4.71-3.5954l0.99094-3.7836c0.2849-1.0632-0.27542-2.1328-1.3209-2.4128l-7.3851-1.9788c-1.0454-0.28011-2.0654 0.36588-2.3503 1.4291l-1.0336 3.7722c-1.9571-0.006-3.943 0.23771-5.8767 0.75876l-1.9375-3.3558c-0.55038-0.95329-1.7407-1.3044-2.6779-0.7633l-6.6034 3.8125zm13.052 14.981c3.8263-2.2091 8.7191-0.89814 10.928 2.9282 2.2091 3.8263 0.89814 8.7191-2.9282 10.928-3.8263 2.2091-8.7191 0.89814-10.928-2.9282-2.2091-3.8264-0.89814-8.7191 2.9282-10.928z"
         id="path17" />
    </clipPath>
    <radialGradient
       id="al"
       xlink:href="#a"
       gradientUnits="userSpaceOnUse"
       cy="41.5"
       cx="5"
       gradientTransform="matrix(.99002 0 0 1.1 32.115 -5.15)"
       r="5" />
    <radialGradient
       id="am"
       xlink:href="#a"
       gradientUnits="userSpaceOnUse"
       cy="41.5"
       cx="5"
       gradientTransform="matrix(.99001 0 0 1.1 -14.885 -86.15)"
       r="5" />
    <linearGradient
       id="aj"
       y2="35"
       gradientUnits="userSpaceOnUse"
       x2="17.554"
       gradientTransform="matrix(1.1795,0,0,1,-4.2194,0)"
       y1="46"
       x1="17.554">
      <stop
         stop-opacity="0"
         offset="0"
         id="stop22" />
      <stop
         offset=".5"
         id="stop24" />
      <stop
         stop-opacity="0"
         offset="1"
         id="stop26" />
    </linearGradient>
    <radialGradient
       id="ak"
       gradientUnits="userSpaceOnUse"
       cy="39.161"
       cx="25.456"
       gradientTransform="matrix(1 0 0 .31532 0 26.813)"
       r="19.622">
      <stop
         offset="0"
         id="stop29" />
      <stop
         stop-opacity="0"
         offset="1"
         id="stop31" />
    </radialGradient>
    <linearGradient
       id="ad"
       y2="39.685"
       gradientUnits="userSpaceOnUse"
       x2="34.534"
       gradientTransform="matrix(1.2419,0,0,1.2419,36.866,-2.4533)"
       y1="12.285"
       x1="14.463">
      <stop
         stop-color="#c9c9c9"
         offset="0"
         id="stop34" />
      <stop
         stop-color="#f8f8f8"
         offset=".25"
         id="stop36" />
      <stop
         stop-color="#e2e2e2"
         offset=".5"
         id="stop38" />
      <stop
         stop-color="#b0b0b0"
         offset=".75"
         id="stop40" />
      <stop
         stop-color="#c9c9c9"
         offset="1"
         id="stop42" />
    </linearGradient>
    <linearGradient
       id="ao"
       y2="36.049"
       gradientUnits="userSpaceOnUse"
       x2="18.938"
       gradientTransform="matrix(1.2963 0 0 1.1069 67.324 .35705)"
       y1="33.95"
       x1="18.938">
      <stop
         offset="0"
         id="stop45" />
      <stop
         stop-opacity="0"
         offset="1"
         id="stop47" />
    </linearGradient>
    <linearGradient
       id="ae"
       y2="48.125"
       xlink:href="#b"
       gradientUnits="userSpaceOnUse"
       x2="50.5"
       gradientTransform="matrix(1.2963 0 0 1.1069 15.473 .35705)"
       y1="33.75"
       x1="48.25" />
    <linearGradient
       id="ap"
       y2="40.006"
       gradientUnits="userSpaceOnUse"
       x2="71.562"
       gradientTransform="matrix(1.2963 0 0 1.1069 15.473 .35705)"
       y1="18.675"
       x1="66.84">
      <stop
         stop-color="#eeeeec"
         offset="0"
         id="stop51" />
      <stop
         stop-color="#e9b96e"
         offset="1"
         id="stop53" />
    </linearGradient>
    <linearGradient
       id="aq"
       y2="21.5"
       gradientUnits="userSpaceOnUse"
       x2="12.11"
       gradientTransform="matrix(1.2963,0,0,-1.1069,67.324,53.489)"
       y1="21.5"
       x1="10.749">
      <stop
         stop-color="#8f5902"
         offset="0"
         id="stop56" />
      <stop
         stop-color="#8f5902"
         stop-opacity="0"
         offset="1"
         id="stop58" />
    </linearGradient>
    <linearGradient
       id="ar"
       y2="21.562"
       gradientUnits="userSpaceOnUse"
       x2="13.168"
       gradientTransform="matrix(-1.2963,0,0,-1.1069,128.15,53.489)"
       y1="21.562"
       x1="11.124">
      <stop
         stop-color="#e9b96e"
         offset="0"
         id="stop61" />
      <stop
         stop-color="#e9b96e"
         stop-opacity="0"
         offset="1"
         id="stop63" />
    </linearGradient>
    <linearGradient
       id="as"
       y2="37.447"
       gradientUnits="userSpaceOnUse"
       x2="17.38"
       gradientTransform="matrix(1.2987,0,0,-1.4846,67.306,63.438)"
       y1="20.096"
       x1="17.38">
      <stop
         stop-color="#eaba6f"
         offset="0"
         id="stop66" />
      <stop
         stop-color="#b97a1b"
         offset="1"
         id="stop68" />
    </linearGradient>
    <linearGradient
       id="at"
       y2="23.531"
       gradientUnits="userSpaceOnUse"
       x2="20.812"
       gradientTransform="matrix(1.2929 0 0 1.087 67.324 .34217)"
       y1="24.594"
       x1="20.781">
      <stop
         offset="0"
         id="stop71" />
      <stop
         stop-opacity="0"
         offset="1"
         id="stop73" />
    </linearGradient>
    <linearGradient
       id="au"
       y2="24.08"
       gradientUnits="userSpaceOnUse"
       x2="22.188"
       gradientTransform="matrix(1.2963 0 0 1.1069 67.324 .35705)"
       y1="20"
       x1="22.188">
      <stop
         stop-color="#e9b96e"
         offset="0"
         id="stop76" />
      <stop
         stop-color="#e9b96e"
         stop-opacity="0"
         offset="1"
         id="stop78" />
    </linearGradient>
    <linearGradient
       id="av"
       y2="45.017"
       gradientUnits="userSpaceOnUse"
       x2="20.759"
       gradientTransform="matrix(.83721 0 0 .83721 107.91 38.744)"
       y1="1"
       x1="20.759">
      <stop
         stop-color="#f0f0f0"
         offset="0"
         id="stop81" />
      <stop
         stop-color="#aaa"
         offset="1"
         id="stop83" />
    </linearGradient>
    <linearGradient
       id="ac"
       y2="66.233"
       xlink:href="#a"
       gradientUnits="userSpaceOnUse"
       x2="126.14"
       y1="48.047"
       x1="48.234" />
    <linearGradient
       id="z"
       y2="62.839"
       xlink:href="#a"
       gradientUnits="userSpaceOnUse"
       x2="126.67"
       y1="48.032"
       x1="48.055" />
    <linearGradient
       id="aa"
       y2="60.29"
       xlink:href="#a"
       gradientUnits="userSpaceOnUse"
       x2="127.05"
       y1="48.029"
       x1="47.997" />
    <linearGradient
       id="ab"
       y2="57.665"
       xlink:href="#a"
       gradientUnits="userSpaceOnUse"
       x2="127.42"
       y1="48.029"
       x1="47.998" />
    <linearGradient
       id="af"
       y2="66.233"
       xlink:href="#b"
       gradientUnits="userSpaceOnUse"
       x2="126.14"
       y1="48.047"
       x1="48.234" />
    <linearGradient
       id="ag"
       y2="62.839"
       xlink:href="#b"
       gradientUnits="userSpaceOnUse"
       x2="126.67"
       y1="48.032"
       x1="48.055" />
    <linearGradient
       id="ah"
       y2="60.29"
       xlink:href="#b"
       gradientUnits="userSpaceOnUse"
       x2="127.05"
       y1="48.029"
       x1="47.997" />
    <linearGradient
       id="ai"
       y2="57.665"
       xlink:href="#b"
       gradientUnits="userSpaceOnUse"
       x2="127.42"
       y1="48.029"
       x1="47.998" />
    <linearGradient
       inkscape:collect="always"
       xlink:href="#ad"
       id="linearGradient3207"
       gradientUnits="userSpaceOnUse"
       gradientTransform="matrix(1.0770005,0,0,1.0219719,-1.2120675,-1.5986851)"
       x1="14.463"
       y1="12.285"
       x2="34.534"
       y2="39.685" />
    <radialGradient
       inkscape:collect="always"
       xlink:href="#ak"
       id="radialGradient3210"
       gradientUnits="userSpaceOnUse"
       gradientTransform="matrix(0.86722,0,0,0.25947998,2.3816922,28.434979)"
       cx="25.456"
       cy="39.161"
       r="19.622" />
  </defs>
  <g
     transform="matrix(.90016 0 0 .87207 -91.511 -47.243)"
     id="g121">
    <g
       transform="translate(-60,16)"
       id="g123">
      <path
         opacity=".05"
         d="m126 38.469c-1.8584 0-3.2812 1.5681-3.2812 3.3438v1.1875c-0.36268 0.13513-0.71008 0.30878-1.0625 0.46875l-0.875-0.875c-0.5657-0.56571-1.3669-0.99198-2.3125-1-0.82395-0.007-1.699 0.29275-2.375 0.96875l-3.5312 3.5312c-1.3106 1.3106-1.2411 3.415 0.0313 4.6875l0.875 0.875c-0.15997 0.35242-0.33362 0.69982-0.46875 1.0625h-1.1875c-1.7756 0-3.3438 1.4228-3.3438 3.2812v5c0 1.8584 1.5681 3.2812 3.3438 3.2812h1.1875c0.13513 0.36268 0.30878 0.71008 0.46875 1.0625l-0.875 0.875c-1.2725 1.2725-1.3419 3.377-0.0313 4.6875l3.5312 3.5312c1.3105 1.3105 3.415 1.2413 4.6875-0.03125l0.875-0.875c0.35242 0.15997 0.69982 0.33362 1.0625 0.46875v1.1875c0 1.7756 1.4228 3.3438 3.2812 3.3438h5c1.8584 0 3.2812-1.5681 3.2812-3.3438v-1.1875c0.36268-0.13513 0.71008-0.30878 1.0625-0.46875l0.875 0.875c1.2726 1.2725 3.377 1.3418 4.6875 0.03125l3.5312-3.5312c1.3106-1.3106 1.2411-3.415-0.0313-4.6875l-0.875-0.875c0.15997-0.35242 0.33362-0.69982 0.46875-1.0625h1.1875c1.7756 0 3.3438-1.4228 3.3438-3.2812v-5c0-1.8584-1.5681-3.2812-3.3438-3.2812h-1.1875c-0.13513-0.36268-0.30878-0.71008-0.46875-1.0625l0.875-0.875c1.2725-1.2725 1.342-3.3769 0.0313-4.6875l-3.5312-3.5312c-1.3105-1.3105-3.415-1.2413-4.6875 0.03125l-0.875 0.875c-0.35-0.16-0.7-0.334-1.06-0.469v-1.1875c0-1.7756-1.4228-3.3438-3.2812-3.3438h-5zm2.5 16.812c1.7874 0 3.2188 1.4313 3.2188 3.2188 0 1.7874-1.4313 3.2188-3.2188 3.2188-1.7874 0-3.2188-1.4313-3.2188-3.2188 0-1.7874 1.4313-3.2188 3.2188-3.2188z"
         transform="translate(-.5 .5)"
         display="block"
         id="path125" />
      <path
         opacity=".15"
         d="m126 39.5c-1.2683 0-2.25 1.0884-2.25 2.3125v1.875c-0.81272 0.26478-1.5968 0.58312-2.3438 0.96875l-1.35-1.344c-0.38667-0.38668-0.96689-0.68219-1.5938-0.6875-0.5946-0.005-1.1882 0.18823-1.6562 0.65625l-3.5312 3.5312c-0.89095 0.89096-0.84049 2.3782 0.0313 3.25l1.3438 1.3438c-0.38563 0.74697-0.70397 1.531-0.96875 2.3438h-1.875c-1.2241 0-2.3125 0.98174-2.3125 2.25v5c0 1.2683 1.0884 2.25 2.3125 2.25h1.875c0.26478 0.81272 0.58312 1.5968 0.96875 2.3438l-1.3438 1.3438c-0.87182 0.87182-0.92228 2.3591-0.0313 3.25l3.5312 3.5312c0.89093 0.89094 2.3782 0.8406 3.25-0.03125l1.3438-1.3438c0.74697 0.38563 1.531 0.70397 2.3438 0.96875v1.875c0 1.2241 0.98174 2.3125 2.25 2.3125h5c1.2683 0 2.25-1.0884 2.25-2.3125v-1.875c0.81272-0.26478 1.5968-0.58312 2.3438-0.96875l1.3438 1.3438c0.87184 0.87184 2.3591 0.92218 3.25 0.03125l3.5312-3.5312c0.89095-0.89096 0.84047-2.3782-0.0313-3.25l-1.3438-1.3438c0.38563-0.74696 0.70397-1.531 0.96875-2.3438h1.875c1.2241 0 2.3125-0.98172 2.3125-2.25v-5c0-1.2683-1.0884-2.25-2.3125-2.25h-1.875c-0.26478-0.81272-0.58312-1.5968-0.96875-2.3438l1.3438-1.3438c0.87182-0.87181 0.9223-2.3591 0.0313-3.25l-3.5312-3.5312c-0.89093-0.89094-2.3782-0.84059-3.25 0.03125l-1.3438 1.3438c-0.73-0.385-1.52-0.704-2.33-0.968v-1.875c0-1.225-0.98-2.313-2.25-2.313h-5zm2.5 14.75c2.3457 0 4.25 1.9043 4.25 4.25s-1.9043 4.25-4.25 4.25-4.25-1.9043-4.25-4.25 1.9043-4.25 4.25-4.25z"
         transform="translate(-.5 .5)"
         display="block"
         id="path127" />
      <path
         opacity=".3"
         display="block"
         d="m125.5 41c-0.70838 0-1.2682 0.5886-1.2682 1.3091v2.5364c-1.2666 0.33748-2.4722 0.84915-3.5795 1.4932l-1.8205-1.8c-0.25473-0.25473-0.54989-0.4063-0.87954-0.40909-0.32965-0.0028-0.67001 0.11773-0.92046 0.36818l-3.5386 3.5386c-0.5009 0.5009-0.46851 1.2905 0.0409 1.8l1.8 1.8205c-0.64403 1.1074-1.1557 2.3129-1.4932 3.5795h-2.5364c-0.72049 0-1.3091 0.5598-1.3091 1.2682v4.9909c0 0.70838 0.5886 1.2682 1.3091 1.2682h2.5364c0.33749 1.2666 0.84916 2.4722 1.4932 3.5795l-1.8 1.8205c-0.50947 0.50946-0.54186 1.2991-0.0409 1.8l3.5386 3.5386c0.5009 0.5009 1.2905 0.46856 1.8-0.04091l1.8205-1.8c1.1074 0.64403 2.3129 1.1557 3.5795 1.4932v2.5364c0 0.72049 0.5598 1.3091 1.2682 1.3091h4.9909c0.70838 0 1.2682-0.5886 1.2682-1.3091v-2.5364c1.2666-0.33748 2.4722-0.84915 3.5796-1.4932l1.8204 1.8c0.50947 0.50947 1.2991 0.54181 1.8 0.04091l3.5386-3.5386c0.5009-0.5009 0.4685-1.2905-0.0409-1.8l-1.8-1.8205c0.64403-1.1074 1.1557-2.3129 1.4932-3.5795h2.5364c0.72048 0 1.3091-0.5598 1.3091-1.2682v-4.9909c0-0.70838-0.58861-1.2682-1.3091-1.2682h-2.54c-0.33748-1.2666-0.84915-2.4722-1.4932-3.5795l1.8-1.8205c0.50947-0.50947 0.54187-1.2991 0.0409-1.8l-3.5386-3.5386c-0.5009-0.5009-1.2905-0.46856-1.8 0.04091l-1.8204 1.8c-1.1074-0.64403-2.3129-1.1557-3.5796-1.4932v-2.536c0-0.72-0.56-1.309-1.27-1.309h-4.99zm2.5 12.764c2.892 0 5.2364 2.3444 5.2364 5.2364s-2.3444 5.2364-5.2364 5.2364-5.2364-2.3444-5.2364-5.2364 2.3444-5.2364 5.2364-5.2364z"
         id="path129" />
      <path
         display="block"
         fill="url(#av)"
         d="m125.5 40c-0.70838 0-1.2682 0.5886-1.2682 1.3091v2.5364c-1.2666 0.33748-2.4722 0.84915-3.5795 1.4932l-1.8205-1.8c-0.25473-0.25473-0.54989-0.4063-0.87954-0.40909-0.32965-0.0028-0.67001 0.11773-0.92046 0.36818l-3.5386 3.5386c-0.5009 0.5009-0.46851 1.2905 0.0409 1.8l1.8 1.8205c-0.64403 1.1074-1.1557 2.3129-1.4932 3.5795h-2.5364c-0.72049 0-1.3091 0.5598-1.3091 1.2682v4.9909c0 0.70838 0.5886 1.2682 1.3091 1.2682h2.5364c0.33749 1.2666 0.84916 2.4722 1.4932 3.5795l-1.8 1.8205c-0.50947 0.50946-0.54186 1.2991-0.0409 1.8l3.5386 3.5386c0.5009 0.5009 1.2905 0.46856 1.8-0.04091l1.8205-1.8c1.1074 0.64403 2.3129 1.1557 3.5795 1.4932v2.5364c0 0.72049 0.5598 1.3091 1.2682 1.3091h4.9909c0.70838 0 1.2682-0.5886 1.2682-1.3091v-2.5364c1.2666-0.33748 2.4722-0.84915 3.5796-1.4932l1.8204 1.8c0.50947 0.50947 1.2991 0.54181 1.8 0.04091l3.5386-3.5386c0.5009-0.5009 0.4685-1.2905-0.0409-1.8l-1.8-1.8205c0.64403-1.1074 1.1557-2.3129 1.4932-3.5795h2.5364c0.72048 0 1.3091-0.5598 1.3091-1.2682v-4.9909c0-0.70838-0.58861-1.2682-1.3091-1.2682h-2.54c-0.33748-1.2666-0.84915-2.4722-1.4932-3.5795l1.8-1.8205c0.50947-0.50947 0.54187-1.2991 0.0409-1.8l-3.5386-3.5386c-0.5009-0.5009-1.2905-0.46856-1.8 0.04091l-1.8204 1.8c-1.1074-0.64403-2.3129-1.1557-3.5796-1.4932v-2.536c0-0.72-0.56-1.309-1.27-1.309h-4.99zm2.5 12.764c2.892 0 5.2364 2.3444 5.2364 5.2364s-2.3444 5.2364-5.2364 5.2364-5.2364-2.3444-5.2364-5.2364 2.3444-5.2364 5.2364-5.2364z"
         id="path131" />
      <g
         transform="matrix(.56685 .32727 -.32727 .56685 152.48 -47.194)"
         clip-path="url(#an)"
         id="g133">
        <g
           opacity=".9"
           transform="matrix(.14137 .99272 -1.1652 .12045 96.937 104.81)"
           id="g135">
          <path
             opacity=".05"
             style="color:#000000"
             d="m108.9 48a60.896 60.896 0 0 1 -6.5462 27.467l-54.338-27.467z"
             transform="matrix(.99411 -.10837 .10837 .99411 -5.1582 5.4919)"
             fill="url(#ac)"
             id="path137" />
          <path
             opacity="0.07"
             style="color:#000000"
             d="m108.9 48a60.896 60.896 0 0 1 -4.4572 22.869l-56.431-22.869z"
             transform="matrix(.99786 -.065374 .065374 .99786 -3.094 3.2416)"
             fill="url(#z)"
             id="path139" />
          <path
             opacity=".1"
             style="color:#000000"
             d="m108.9 48a60.896 60.896 0 0 1 -3.1299 19.272l-57.77-19.272z"
             transform="matrix(.99945 -.033121 .033121 .99945 -1.5635 1.6161)"
             fill="url(#aa)"
             id="path141" />
          <path
             opacity=".05"
             style="color:#000000"
             fill="url(#ab)"
             d="m108.9 48a60.896 60.896 0 0 1 -2.075 15.761l-58.805-15.761z"
             id="path143" />
        </g>
        <g
           opacity=".9"
           transform="matrix(1.0628 -.13088 -.7401 3.2275 32.525 9.3323)"
           id="g145">
          <path
             opacity=".2"
             style="color:#000000"
             d="m108.9 48a60.896 60.896 0 0 1 -6.5462 27.467l-54.338-27.467z"
             transform="matrix(.99411 -.10837 .10837 .99411 -5.1582 5.4919)"
             fill="url(#af)"
             id="path147" />
          <path
             opacity=".4"
             style="color:#000000"
             d="m108.9 48a60.896 60.896 0 0 1 -4.4572 22.869l-56.431-22.869z"
             transform="matrix(.99786 -.065374 .065374 .99786 -3.094 3.2416)"
             fill="url(#ag)"
             id="path149" />
          <path
             opacity=".6"
             style="color:#000000"
             d="m108.9 48a60.896 60.896 0 0 1 -3.1299 19.272l-57.77-19.272z"
             transform="matrix(.99945 -.033121 .033121 .99945 -1.5635 1.6161)"
             fill="url(#ah)"
             id="path151" />
          <path
             opacity=".8"
             style="color:#000000"
             fill="url(#ai)"
             d="m108.9 48a60.896 60.896 0 0 1 -2.075 15.761l-58.805-15.761z"
             id="path153" />
        </g>
        <g
           opacity=".5"
           transform="matrix(-.61679 .78713 -.78713 -.61679 115 150.01)"
           id="g155">
          <path
             opacity=".05"
             style="color:#000000"
             d="m108.9 48a60.896 60.896 0 0 1 -6.5462 27.467l-54.338-27.467z"
             transform="matrix(.99411 -.10837 .10837 .99411 -5.1582 5.4919)"
             fill="url(#ac)"
             id="path157" />
          <path
             opacity="0.07"
             style="color:#000000"
             d="m108.9 48a60.896 60.896 0 0 1 -4.4572 22.869l-56.431-22.869z"
             transform="matrix(.99786 -.065374 .065374 .99786 -3.094 3.2416)"
             fill="url(#z)"
             id="path159" />
          <path
             opacity=".1"
             style="color:#000000"
             d="m108.9 48a60.896 60.896 0 0 1 -3.1299 19.272l-57.77-19.272z"
             transform="matrix(.99945 -.033121 .033121 .99945 -1.5635 1.6161)"
             fill="url(#aa)"
             id="path161" />
          <path
             opacity=".1"
             style="color:#000000"
             fill="url(#ab)"
             d="m108.9 48a60.896 60.896 0 0 1 -2.075 15.761l-58.805-15.761z"
             id="path163" />
        </g>
        <g
           opacity=".8"
           transform="matrix(-.068172 -1.046 2.7107 .60163 -79.095 179.08)"
           id="g165">
          <path
             opacity=".05"
             style="color:#000000"
             d="m108.9 48a60.896 60.896 0 0 1 -6.5462 27.467l-54.338-27.467z"
             transform="matrix(.99411 -.10837 .10837 .99411 -5.1582 5.4919)"
             fill="url(#ac)"
             id="path167" />
          <path
             opacity="0.07"
             style="color:#000000"
             d="m108.9 48a60.896 60.896 0 0 1 -4.4572 22.869l-56.431-22.869z"
             transform="matrix(.99786 -.065374 .065374 .99786 -3.094 3.2416)"
             fill="url(#z)"
             id="path169" />
          <path
             opacity=".1"
             style="color:#000000"
             d="m108.9 48a60.896 60.896 0 0 1 -3.1299 19.272l-57.77-19.272z"
             transform="matrix(.99945 -.033121 .033121 .99945 -1.5635 1.6161)"
             fill="url(#aa)"
             id="path171" />
          <path
             opacity=".1"
             style="color:#000000"
             fill="url(#ab)"
             d="m108.9 48a60.896 60.896 0 0 1 -2.075 15.761l-58.805-15.761z"
             id="path173" />
        </g>
        <g
           opacity=".9"
           transform="matrix(-1.0628 .13088 .7401 -3.2275 62.997 306.67)"
           id="g175">
          <path
             opacity=".2"
             style="color:#000000"
             d="m108.9 48a60.896 60.896 0 0 1 -6.5462 27.467l-54.338-27.467z"
             transform="matrix(.99411 -.10837 .10837 .99411 -5.1582 5.4919)"
             fill="url(#af)"
             id="path177" />
          <path
             opacity=".4"
             style="color:#000000"
             d="m108.9 48a60.896 60.896 0 0 1 -4.4572 22.869l-56.431-22.869z"
             transform="matrix(.99786 -.065374 .065374 .99786 -3.094 3.2416)"
             fill="url(#ag)"
             id="path179" />
          <path
             opacity=".6"
             style="color:#000000"
             d="m108.9 48a60.896 60.896 0 0 1 -3.1299 19.272l-57.77-19.272z"
             transform="matrix(.99945 -.033121 .033121 .99945 -1.5635 1.6161)"
             fill="url(#ah)"
             id="path181" />
          <path
             opacity=".8"
             style="color:#000000"
             fill="url(#ai)"
             d="m108.9 48a60.896 60.896 0 0 1 -2.075 15.761l-58.805-15.761z"
             id="path183" />
        </g>
      </g>
      <path
         display="block"
         fill="url(#linearGradient4407)"
         d="m125.5 40c-0.70838-0.000001-1.2682 0.5886-1.2682 1.3091v2.5364c-1.2666 0.33748-2.4722 0.84915-3.5795 1.4932l-1.8205-1.8c-0.25473-0.25474-0.54989-0.4063-0.87954-0.40909-0.32965-0.0026-0.67 0.11773-0.92046 0.36818l-3.5386 3.5386c-0.5009 0.50091-0.4685 1.2905 0.0409 1.8l1.8 1.8205c-0.64403 1.1074-1.1557 2.3129-1.4932 3.5796h-2.5364c-0.72049-0.000004-1.3091 0.55979-1.3091 1.2682v4.9909c0 0.70839 0.5886 1.2682 1.3091 1.2682h2.5364c0.33749 1.2666 0.84916 2.4722 1.4932 3.5795l-1.8 1.8205c-0.50947 0.50947-0.54186 1.2991-0.0409 1.8l3.5386 3.5386c0.5009 0.5009 1.2905 0.46856 1.8-0.04091l1.8205-1.8c1.1074 0.64391 2.3129 1.1557 3.5795 1.4932v2.5364c0 0.72049 0.5598 1.3091 1.2682 1.3091l4.9909 0.000001c0.70839-0.000003 1.2682-0.5886 1.2682-1.3091v-2.5364c1.2666-0.33749 2.4722-0.84915 3.5796-1.4932l1.8204 1.8c0.50947 0.50947 1.2991 0.54182 1.8 0.04091l3.5386-3.5386c0.5009-0.5009 0.4685-1.2905-0.0409-1.8l-1.8-1.8205c0.64403-1.1074 1.1557-2.3129 1.4932-3.5795h2.5364c0.72048 0.000001 1.3091-0.55979 1.3091-1.2682v-4.9909c0-0.70838-0.5886-1.2682-1.3091-1.2682h-2.54c-0.33747-1.2666-0.84915-2.4722-1.4932-3.5796l1.8-1.8205c0.50947-0.50946 0.54187-1.2991 0.0409-1.8l-3.5386-3.5386c-0.5009-0.50091-1.2905-0.46856-1.8 0.0409l-1.8204 1.8c-1.1074-0.64391-2.3129-1.1557-3.5796-1.4932v-2.5364c0-0.72049-0.5598-1.3091-1.2682-1.3091h-4.99zm2.5 8.836c5.0609-0.000004 9.1636 4.1027 9.1636 9.1636s-4.1027 9.1636-9.1636 9.1636c-5.0609-0.000001-9.1636-4.1027-9.1636-9.1636s4.1027-9.1636 9.1636-9.1636z"
         id="path185" />
      <path
         opacity=".7"
         d="m125.5 40c-0.70838 0-1.25 0.59201-1.25 1.3125v0.71875c0.12-0.595 0.63-1.031 1.25-1.031h5c0.61983 0 1.1332 0.43591 1.25 1.0312v-0.718c0-0.72-0.54-1.312-1.25-1.312h-5zm-7.5312 3.125c-0.32965-0.0028-0.68705 0.12455-0.9375 0.375l-3.53 3.531c-0.37568 0.37568-0.45054 0.91451-0.25 1.375 0.059-0.12899 0.14211-0.26711 0.25-0.375l3.53-3.531c0.25045-0.25045 0.60785-0.3778 0.9375-0.375s0.62027 0.15152 0.875 0.40625l1.8125 1.8125c1.1074-0.64403 2.3271-1.1625 3.5938-1.5v-1c-1.2666 0.33748-2.4864 0.85597-3.5938 1.5l-1.8125-1.8125c-0.25473-0.25473-0.54535-0.40346-0.875-0.40625zm20.094 0c-0.3237 0.0092-0.65151 0.15152-0.90625 0.40625l-1.8125 1.8125c-1.1074-0.64403-2.3271-1.1625-3.5938-1.5v1c1.2666 0.33748 2.4864 0.85597 3.5938 1.5l1.8125-1.8125c0.50947-0.50947 1.3116-0.53215 1.8125-0.03125l3.54 3.53c0.1079 0.10789 0.19102 0.24601 0.25 0.375 0.20056-0.46049 0.12573-0.99932-0.25-1.375l-3.53-3.531c-0.25-0.25-0.58-0.384-0.91-0.375zm-23.06 8.187c-0.47821 0.92428-0.8835 1.9138-1.1562 2.9375h-2.5312c-0.72 0-1.31 0.542-1.31 1.25v1c0-0.70839 0.59201-1.25 1.3125-1.25h2.5312c0.33749-1.2666 0.85597-2.4864 1.5-3.5938l-0.34-0.344zm26 0-0.34375 0.34375c0.64403 1.1074 1.1625 2.3271 1.5 3.5938h2.5312c0.72048 0 1.3125 0.54162 1.3125 1.25v-1c0-0.70838-0.59202-1.25-1.3125-1.25h-2.5312c-0.28-1.024-0.68-2.013-1.16-2.938zm-18.219 7.2188c-0.014 0.15592-0.0313 0.30919-0.0313 0.46875 0 2.892 2.358 5.25 5.25 5.25s5.25-2.358 5.25-5.25c0-0.15956-0.0173-0.31283-0.0313-0.46875-0.27 2.641-2.51 4.719-5.22 4.719-2.7112 0-4.9506-2.0783-5.2188-4.7188zm-7.78 7.157-1.4688 1.4688c-0.39974 0.39973-0.49609 0.9676-0.28125 1.4375 0.0669-0.1535 0.15388-0.31013 0.28125-0.4375l1.8125-1.8125c-0.12-0.213-0.23-0.437-0.34-0.656zm26 0c-0.1135 0.21938-0.22021 0.44383-0.34375 0.65625l1.8125 1.8125c0.12735 0.12737 0.2144 0.284 0.28125 0.4375 0.21481-0.4699 0.11843-1.0378-0.28125-1.4375l-1.47-1.468z"
         display="block"
         fill="#fff"
         id="path187" />
    </g>
  </g>
  <path
     inkscape:connector-curvature="0"
     id="path213"
     d="m 41.474235,38.596272 a 17.016591,5.0915088 0 0 1 -34.0331813,0 17.016591,5.0915088 0 1 1 34.0331813,0 z"
     style="opacity:0.40909005;color:#000000;fill:url(#radialGradient3210)" />
  <path
     inkscape:connector-curvature="0"
     id="path215"
     d="m 23.31118,4.719371 c -0.403639,0.026206 -0.795961,0.085525 -1.192428,0.1285797 h -0.0271 L 21.143086,9.7597359 C 19.597093,10.093829 18.142592,10.660822 16.834044,11.431231 L 12.579462,8.5258646 C 11.428661,9.3731328 10.382794,10.361448 9.4626736,11.432054 l 2.9539244,4.088793 c -0.896879,1.300609 -1.571402,2.785714 -1.951245,4.345952 -6.5e-5,0.0074 -5.3e-5,0.02443 0,0.02572 l -5.1491184,0.771478 c -0.094137,0.729617 -0.1355031,1.483624 -0.1355031,2.237328 0,0.616606 0.017943,1.224983 0.081302,1.825872 l 5.1491185,0.874342 c 0.36621,1.696758 1.061911,3.281354 2.03259,4.680301 l -3.0623267,3.986011 c 0.8770197,1.033164 1.8895857,1.973832 2.9810687,2.802996 l 4.3361,-2.828753 c 1.51538,0.917298 3.207066,1.560567 5.040716,1.877222 l 0.813019,4.860271 c 0.577724,0.0499 1.17014,0.05143 1.761497,0.05143 0.834855,0 1.632282,-0.03002 2.439056,-0.128579 l 0.975623,-4.963135 c 1.741031,-0.411126 3.376521,-1.124342 4.796767,-2.08295 l 4.173496,2.880185 c 1.082291,-0.873766 2.072049,-1.878127 2.926868,-2.957374 l -3.03527,-4.165982 c 0.821994,-1.347103 1.391541,-2.833361 1.680239,-4.423141 l 5.121801,-0.771067 c 0.04491,-0.5072 0.0542,-0.999095 0.0542,-1.517281 0,-0.900428 -0.110293,-1.783328 -0.243905,-2.648783 l -5.20332,-0.900099 C 37.591612,17.924075 36.922543,16.591043 36.075183,15.392557 L 39.13751,11.406628 C 38.188772,10.306395 37.106482,9.2884553 35.913187,8.424729 l -4.417445,2.880185 C 30.226132,10.592406 28.859827,10.045697 27.376447,9.736283 L 26.563862,4.8504194 c -0.740606,-0.08262 -1.486415,-0.1286208 -2.249569,-0.1286208 -0.206286,0 -0.41859,-0.00616 -0.623314,0 -0.0998,0.003 -0.198568,-0.00551 -0.298107,0 -0.02696,0.00149 -0.05439,-0.00174 -0.0813,0 z m 0.704616,12.497534 c 0.09901,-0.0048 0.197856,0 0.298107,0 3.207933,0 5.826678,2.484859 5.826678,5.528968 0,3.044026 -2.618658,5.503211 -5.826678,5.503211 -3.207934,0 -5.799534,-2.459185 -5.799534,-5.503211 1e-6,-2.948898 2.432205,-5.381173 5.50147,-5.528968 z"
     style="color:#000000;fill:url(#linearGradient3207);stroke:#766a6a;stroke-width:1.14500000000000002;stroke-miterlimit:4;stroke-dasharray:none;stroke-opacity:1" />
  <path
     inkscape:connector-curvature="0"
     id="path217"
     d="m 31.011814,22.735224 a 6.6947532,6.3526895 0 0 1 -13.389506,0 6.6947532,6.3526895 0 1 1 13.389506,0 z"
     style="opacity:0.64772997;color:#000000;fill:none;stroke:#ffffff;stroke-width:0.84480006" />
  <path
     inkscape:connector-curvature="0"
     id="path219"
     d="M 22.711063,5.6915569 21.94948,10.447154 c -1.449125,0.31315 -4.114699,1.270902 -5.341208,1.993088 L 12.55662,9.57059 c -1.078128,0.79424 -1.152015,0.848091 -2.014119,1.851383 l 2.929556,4.122779 c -0.8407,1.219141 -1.850474,3.391624 -2.213059,4.944126 0,0 -5.1334217,0.821132 -5.1334217,0.821132 -0.08824,0.683896 -0.045832,2.147631 0.013555,2.71083 l 4.9034347,0.838216 c 0.343255,1.590439 1.627772,4.150429 2.537659,5.461654 l -3.100831,3.887427 c 0.822072,0.9684 0.986636,1.057028 2.009695,1.834266 l 4.146353,-2.882489 c 1.420419,0.859859 4.239838,1.905777 5.958581,2.202601 l 0.680499,4.695771 c 0.541518,0.04677 2.037534,0.177979 2.793663,0.0856 l 0.763153,-4.888908 c 1.631848,-0.38536 4.451614,-1.483707 5.782884,-2.382242 l 4.141929,2.839698 c 1.014474,-0.819001 1.02358,-0.942397 1.824804,-1.954 L 35.51169,29.61862 c 0.770482,-1.262673 1.766701,-3.732062 2.037273,-5.222187 l 5.025194,-0.791195 c 0.04423,-0.476465 0.04596,-1.802173 -0.07892,-2.613562 L 37.375346,20.15346 c -0.38221,-1.339204 -1.693854,-3.75247 -2.488054,-4.875825 l 3.254156,-3.887426 C 37.25168,10.357703 36.920923,10.215998 35.802729,9.4062549 l -4.286061,2.9124431 c -1.188959,-0.668203 -3.56254,-1.686143 -4.952694,-1.97663 L 25.806891,5.6891704 c -0.693619,-0.077423 -2.694799,-0.043043 -3.091205,0 z"
     style="opacity:0.34659005;color:#000000;fill:none;stroke:#ffffff;stroke-width:0.84477454" />
</svg>
