<svg id="Слой_1" data-name="Слой 1"
  xmlns:cc="http://creativecommons.org/ns#"
  xmlns:rdf="http://www.w3.org/1999/02/22-rdf-syntax-ns#"
  xmlns="http://www.w3.org/2000/svg"
  xmlns:xlink="http://www.w3.org/1999/xlink" viewBox="0 0 26 26">
  <metadata id="metadata43">
    <rdf:RDF>
      <cc:Work rdf:about="">
        <cc:license rdf:resource="http://creativecommons.org/licenses/by/4.0/" />
      </cc:Work>
      <cc:License rdf:about="http://creativecommons.org/licenses/by/4.0/">
        <cc:permits rdf:resource="http://creativecommons.org/ns#Reproduction" />
        <cc:permits rdf:resource="http://creativecommons.org/ns#Distribution" />
        <cc:requires rdf:resource="http://creativecommons.org/ns#Notice" />
        <cc:requires rdf:resource="http://creativecommons.org/ns#Attribution" />
        <cc:permits rdf:resource="http://creativecommons.org/ns#DerivativeWorks" />
      </cc:License>
    </rdf:RDF>
  </metadata>
  <defs>
    <style>.cls-1,.cls-2,.cls-3,.cls-5{fill:none;stroke-linecap:round;stroke-linejoin:round;}.cls-1,.cls-2,.cls-3{stroke-width:2px;}.cls-1{stroke:url(#Безымянный_градиент_19);}.cls-2{stroke:#1a81c4;}.cls-3{stroke:url(#Безымянный_градиент_19-2);}.cls-4{fill:#e61c50;}.cls-5{stroke:#545454;}</style>
    <linearGradient id="Безымянный_градиент_19" x1="18" y1="21.4931" x2="5.1177" y2="21.4931" gradientUnits="userSpaceOnUse">
      <stop offset="0" stop-color="#ececec"/>
      <stop offset="1" stop-color="#c6c6c5"/>
    </linearGradient>
    <linearGradient id="Безымянный_градиент_19-2" x1="24" y1="8.9949" x2="15.113" y2="8.9949" xlink:href="#Безымянный_градиент_19"/>
  </defs>
  <title>contrast_mode</title>
  <polyline class="cls-1" points="17 24 15 18.986 6.118 18.986"/>
  <polyline class="cls-2" points="12.092 14 19 14 23 24"/>
  <polyline class="cls-2" points="3 3 7 14 12.092 14"/>
  <line class="cls-3" x1="16.113" y1="8.9949" x2="23" y2="8.9949"/>
  <path class="cls-4" d="M16.3767,9.9951H11a.9988.9988,0,0,1-.9482-.6836l-2-5.9951a1,1,0,1,1,1.8964-.6328l1.7725,5.3115h5.3338c.5527,0,.2963.5129.0352,1A6.8531,6.8531,0,0,1,16.3767,9.9951Z"/>
  <path class="cls-4" d="M6.98,19.9863H3a1,1,0,0,1,0-2H7.9038C8.4565,17.9863,7.5327,19.9863,6.98,19.9863Z"/>
  <line class="cls-5" x1="23.5" y1="1.5" x2="2.5" y2="24.5"/>
</svg>