<svg id="Слой_1" data-name="Слой 1"
  xmlns:cc="http://creativecommons.org/ns#"
  xmlns:rdf="http://www.w3.org/1999/02/22-rdf-syntax-ns#"
  xmlns="http://www.w3.org/2000/svg" viewBox="0 0 26 26">
  <metadata id="metadata43">
    <rdf:RDF>
      <cc:Work rdf:about="">
        <cc:license rdf:resource="http://creativecommons.org/licenses/by/4.0/" />
      </cc:Work>
      <cc:License rdf:about="http://creativecommons.org/licenses/by/4.0/">
        <cc:permits rdf:resource="http://creativecommons.org/ns#Reproduction" />
        <cc:permits rdf:resource="http://creativecommons.org/ns#Distribution" />
        <cc:requires rdf:resource="http://creativecommons.org/ns#Notice" />
        <cc:requires rdf:resource="http://creativecommons.org/ns#Attribution" />
        <cc:permits rdf:resource="http://creativecommons.org/ns#DerivativeWorks" />
      </cc:License>
    </rdf:RDF>
  </metadata>
  <defs>
    <style>.cls-1,.cls-4{fill:none;stroke:#545454;stroke-linecap:round;stroke-linejoin:round;}.cls-1{stroke-width:2px;}.cls-2{fill:#b9b9b9;}.cls-3{fill:#1a81c4;}.cls-5{fill:#545454;}</style>
  </defs>
  <title>convert</title>
  <line class="cls-1" x1="4.0008" y1="7.0115" x2="22.0013" y2="4.0021"/>
  <polygon class="cls-2" points="4 19.453 13 24.037 21.964 14.016 4 19.453"/>
  <path class="cls-3" d="M13,25.0371a.99.99,0,0,1-.4541-.1094l-9-4.5839A1,1,0,0,1,3.71,18.4961l17.9638-5.4375a1,1,0,0,1,1.0352,1.624L13.7451,24.7041A.9976.9976,0,0,1,13,25.0371ZM6.6689,19.69l6.0987,3.1065,6.0752-6.792Z"/>
  <path class="cls-3" d="M7.0008,7.0115a3,3,0,1,1-3-3A3,3,0,0,1,7.0008,7.0115Z"/>
  <path class="cls-3" d="M25.0013,4.0021a3,3,0,1,1-3-3A3,3,0,0,1,25.0013,4.0021Z"/>
  <path class="cls-3" d="M16,5.4971a3,3,0,1,1-3-3A3,3,0,0,1,16,5.4971Z"/>
  <line class="cls-4" x1="13" y1="9.4899" x2="13" y2="16.3459"/>
  <polygon class="cls-5" points="11.547 15.355 13 20.776 14.453 15.355 11.547 15.355"/>
</svg>