<svg xmlns="http://www.w3.org/2000/svg" height="48" width="48" version="1.1">
 <defs>
  <linearGradient id="e" y2="39.685" gradientUnits="userSpaceOnUse" x2="34.534" gradientTransform="matrix(1.077,0,0,1.022,46.599,-37.835)" y1="12.285" x1="14.463">
   <stop stop-color="#c9c9c9" offset="0"/>
   <stop stop-color="#f8f8f8" offset=".25"/>
   <stop stop-color="#e2e2e2" offset=".5"/>
   <stop stop-color="#b0b0b0" offset=".75"/>
   <stop stop-color="#c9c9c9" offset="1"/>
  </linearGradient>
  <linearGradient id="h" y2="21" gradientUnits="userSpaceOnUse" x2="51.909" gradientTransform="matrix(.76531 0 0 .66003 53.154 18.363)" y1="54.263" x1="24.75">
   <stop stop-opacity=".4039" offset="0"/>
   <stop stop-opacity="0" offset="1"/>
  </linearGradient>
  <linearGradient id="f" y2="6.7758" gradientUnits="userSpaceOnUse" x2="20.631" gradientTransform="matrix(.98748 0 0 1.0024 2.1114 14.453)" y1="42.254" x1="19.648">
   <stop stop-color="#b6b6b6" offset="0"/>
   <stop stop-color="#f2f2f2" offset=".5"/>
   <stop stop-color="#fafafa" offset=".67613"/>
   <stop stop-color="#d8d8d8" offset=".84052"/>
   <stop stop-color="#f2f2f2" offset=".875"/>
   <stop stop-color="#dbdbdb" offset="1"/>
  </linearGradient>
  <linearGradient id="g" y2="-4.3003" gradientUnits="userSpaceOnUse" x2="25.291" gradientTransform="matrix(.99518 0 0 .9948 11.761 8.4873)" y1="-3.6324" x1="50.153">
   <stop stop-color="#fff" offset="0"/>
   <stop offset="1"/>
  </linearGradient>
 </defs>
 <g transform="matrix(2.9379,0,0,2.1996,-5.2815,-32.414)">
  <rect fill-opacity="0" height="16" width="16" y="0" x="0"/>
 </g>
 <g transform="matrix(1.1137,0,0,1,-2.09,-4.6751e-7)">
  <path d="m3.4551 21.968h30.186l10.062 9.6972h-30.186l-10.062-9.697z"/>
  <path fill="#fff" d="m8.4861 23.908h23.897l6.2887 5.8183h-23.897l-6.2889-5.818z"/>
  <path fill-opacity=".39216" d="m7.2284 20.029h12.577l11.32 0.000005 8.8042 7.7578-11.32-0.000006h-12.577l-8.8042-7.7578z"/>
  <path fill-opacity=".39216" d="m8.4861 20.029h23.897l6.2887 5.8183h-23.897l-6.2889-5.818z"/>
  <path d="m3.4551 16.15h30.186l10.062 9.6972h-30.186l-10.062-9.697z"/>
  <path fill="#fff" d="m8.4861 18.089h23.897l6.2887 5.8183h-23.897l-6.2889-5.818z"/>
  <path fill-opacity=".39216" d="m7.2284 14.21h12.577l11.32 0.000005 8.8042 7.7578-11.32-0.000006h-12.577l-8.8042-7.7578z"/>
  <path fill-opacity=".39216" d="m8.4861 14.21h23.897l6.2887 5.8183h-23.897l-6.2889-5.818z"/>
  <path d="m4.2388 10.836h30.186l10.062 9.6972h-30.186l-10.062-9.697z"/>
  <path fill="#fff" d="m9.2698 12.775h23.897l6.2887 5.8183h-23.898l-6.2882-5.818z"/>
  <path fill-opacity=".39216" d="m7.2284 8.3922h12.577l11.32 0.0000056 8.8042 7.7578-11.32-0.000006h-12.574l-8.8054-7.7578z"/>
  <path fill-opacity=".39216" d="m8.4861 8.3922h23.897l6.2887 5.8183h-23.897l-6.2893-5.8168z"/>
  <path d="m3.4551 4.5133h30.186l10.062 9.6972h-30.186l-10.062-9.6952z"/>
  <path fill="#fff" d="m8.4861 6.4527h23.897l6.2887 5.8183h-23.897l-6.2893-5.8183z"/>
 </g>
 <g stroke-width=".84478" transform="matrix(.70169 0 0 .73739 18.652 9.8551)">
  <path style="color:#000000" fill="url(#e)" d="m71.122-31.517c-0.40364 0.02621-0.79596 0.08553-1.1924 0.12858h-0.0271l-0.94852 4.9118c-1.546 0.33409-3.0005 0.90108-4.309 1.6715l-4.2548-2.9059c-1.1502 0.84735-2.1968 1.8356-3.1166 2.9059l2.954 4.0889c-0.8969 1.3006-1.5714 2.7858-1.9512 4.346-0.000065 0.0074-0.000053 0.02443 0 0.02572l-5.1491 0.77148c-0.09414 0.72962-0.1355 1.4837-0.1355 2.2373 0 0.61661 0.01794 1.225 0.0813 1.8258l5.1491 0.87435c0.36621 1.6968 1.0619 3.2814 2.0325 4.6803l-3.0624 3.986c0.87704 1.0332 1.8896 1.9739 2.9811 2.8031l4.3361-2.8288c1.5154 0.91732 3.207 1.5606 5.0407 1.8773l0.81302 4.8603c0.57773 0.049901 1.1702 0.051432 1.7615 0.051432 0.83486-9e-7 1.6323-0.03002 2.4391-0.12858l0.97562-4.9632c1.741-0.41113 3.3765-1.1243 4.7968-2.083l4.1735 2.8802c1.0823-0.87377 2.072-1.8781 2.9269-2.9573l-3.0353-4.166c0.822-1.3471 1.3916-2.8334 1.6802-4.4232l5.122-0.77148c0.04491-0.5072 0.0542-0.99909 0.0542-1.5172 0-0.90044-0.1103-1.7833-0.2439-2.6488l-5.2033-0.90006c-0.40776-1.4288-1.0768-2.7618-1.9241-3.9603l3.0624-3.986c-0.94923-1.1016-2.032-2.1192-3.225-2.9831l-4.4174 2.8802c-1.2696-0.71251-2.6359-1.2592-4.1193-1.5687l-0.81302-4.8861c-0.74-0.0826-1.4861-0.12858-2.2493-0.12858-0.20629 0-0.41859-0.0062-0.62331 0-0.0998 0.003-0.19856-0.0055-0.29811 0-0.02696 0.0015-0.05439-0.0017-0.0813 0zm0.70461 12.498c0.09901-0.0048 0.19786 0 0.29811 0 3.2079 0 5.8266 2.4849 5.8266 5.529 0.000001 3.0441-2.6187 5.5032-5.8266 5.5032-3.2079 9e-7 -5.7995-2.4592-5.7995-5.5032 0-2.9489 2.4322-5.3812 5.5014-5.529z" stroke="#808080"/>
  <path opacity=".64773" style="color:#000000" d="m78.823-13.502a6.6947 6.3527 0 0 1 -13.389 0 6.6947 6.3527 0 1 1 13.389 0z" stroke="#fff" fill="none"/>
  <path opacity=".34659" style="color:#000000" d="m70.522-30.545-0.76158 4.7556c-1.4491 0.31316-4.1147 1.2709-5.3412 1.9931l-4.0517-2.8697c-1.0781 0.79424-1.152 0.8481-2.0141 1.8514l2.9295 4.1228c-0.84069 1.2191-1.8505 3.3916-2.213 4.9441l-5.1334 0.82114c-0.08824 0.6839-0.04583 2.1476 0.01356 2.7108l4.9035 0.83821c0.34326 1.5904 1.6278 4.1504 2.5376 5.4617l-3.1008 3.8875c0.82207 0.96843 0.9866 1.0571 2.0097 1.8343l4.1463-2.8825c1.4204 0.85983 4.2399 1.9058 5.9586 2.2026l0.6805 4.6958c0.54152 0.046774 2.0375 0.17798 2.7937 0.0856l0.76158-4.8882c1.632-0.385 4.452-1.4834 5.783-2.3819l4.1419 2.8397c1.015-0.819 1.024-0.9424 1.825-1.954l-3.0693-4.1398c0.77048-1.2627 1.7667-3.7321 2.0373-5.2222l5.0252-0.7912c0.0421-0.47541 0.04415-1.8012-0.08109-2.6124l-5.1199-0.83821c-0.38221-1.3392-1.6939-3.7525-2.4881-4.8759l3.2541-3.8875c-0.88974-1.0325-1.2206-1.1742-2.3387-1.984l-4.2861 2.9125c-1.19-0.66786-3.5631-1.6859-4.9535-1.976l-0.75715-4.653c-0.69362-0.07742-2.6948-0.04304-3.0912 0z" stroke="#fff" fill="none"/>
 </g>
 <path fill="url(#h)" d="m82.162 27.353c-2.5221 0.15243-4.8796 1.5327-5.8951 2.8574-0.99848 1.3026-1.2423 2.9088 0.09992 5.0774-0.0024-0.0011-5.5097 6.1845-5.9451 6.6889-2.8874-0.51158-7.6917 0.17435-8.9176 3.4344-0.32753 0.71244 0.28619 0.78545 0.79934 1.6768 1.0533 0.82956 1.3658 1.1247 1.8485 1.4063 0.33483 0.31452 1.0654 0.09281 1.199 0.02519l2.7727-1.498c0.23387-0.17175 0.43623-0.19957 0.82431-0.06297 0 0 2.2232 0.52658 2.2232 0.52658 0.05098 0.1954 0.58188 1.563 0.37469 1.6895l-3.1973 1.9154c0.17733 0.36184 0.60881 1.0239 1.0991 1.5467l1.5987 1.2595c0.53689 0.41121 1.4598 0.26971 2.0233 0.20857 1.8543-0.20453 3.3593-0.99777 4.3963-2.1718 1.4049-1.5925 1.4931-3.6685 0.24979-5.3963 0.0032-0.0046-0.0029-0.01288 0-0.0176 1.2916-1.4689 4.7172-5.3629 5.9451-6.7593 3.0329 0.58373 6.5038-0.2365 8.1432-2.0821 0.46716-0.52592 0.93304-1.2331 1.0741-1.8343 0.0365-0.15662-0.46603-0.95326-1.0991-1.4235l-1.9734-1.4884c-0.195-0.179-0.715-0.226-0.9-0.156l-2.5229 1.5392c-0.43812 0.21206-0.89636 0.25277-1.3739 0.13428 0 0-2.2232-0.52658-2.2232-0.52658-0.0934-0.41139-0.27477-1.1522-0.27477-1.1522-0.07306-0.3449-0.08671-0.62095 0.22481-0.82344l2.6228-1.6177c0.21294-0.27523 0.15578-0.61334 0.02498-0.70153l-0.87427-1.0152-1.149-0.95312c-0.23055-0.18726-0.90029-0.32692-1.199-0.30674z"/>
 <g transform="matrix(1.2391,0,0,1.2707,-1.774,-5.7126)">
  <path style="color:#000000" d="m19.392 32.998 21.354 22.179c0.86405 1.0024 3.6019 1.7772 5.4312 0 1.7665-1.7162 1.3578-4.1351-0.37031-5.8893l-20.49-22.304c2.53-7.134-2.59-13.126-9.196-11.842l-1.4195 1.3157 4.4437 4.2604 0.24687 3.7591-3.3178 3.0744-3.9649-0.44302-4.0734-3.8844s-1.4281 1.4323-1.4281 1.4323c-0.66423 6.4389 5.9678 12.194 12.784 8.3414z" stroke="#7c7e79" stroke-width="1.833" fill="url(#f)"/>
  <path opacity=".42614" style="color:#000000" d="m19.629 31.542 21.591 22.859c0.66889 0.77601 2.7883 1.3758 4.2044 0 1.3675-1.3286 1.0511-3.2011-0.28666-4.5591l-20.791-22.395c1.686-7.419-2.09-11.419-7.712-11.276l-0.30372 0.31203 4.051 3.6938 0.14635 4.773-4.0633 3.7648-4.7698-0.52299-3.5716-3.4144-0.39649 0.49086c-0.35136 6.8126 7.299 9.9126 11.902 6.2745z" stroke="#fff" stroke-width="1.1328" fill="none"/>
  <rect opacity=".17045" style="color:#000000" transform="matrix(.69254 .72138 -.71089 .7033 0 0)" rx="1.0015" ry="1.0012" height="2.3282" width="26.366" stroke="url(#g)" y="3.6523" x="37.661" stroke-width="1.1329" fill="none"/>
  <path style="color:#000000" d="m43.25 37.5a1.375 1.375 0 1 1 -2.75 0 1.375 1.375 0 1 1 2.75 0z" transform="matrix(.98748 0 0 1.0024 1.9879 14.579)" stroke="#a1a1a1" stroke-width="1.1386" fill="#fff"/>
 </g>
</svg>
