<?xml version="1.0" encoding="UTF-8" standalone="no"?>
<svg
   xmlns:dc="http://purl.org/dc/elements/1.1/"
   xmlns:cc="http://creativecommons.org/ns#"
   xmlns:rdf="http://www.w3.org/1999/02/22-rdf-syntax-ns#"
   xmlns:svg="http://www.w3.org/2000/svg"
   xmlns="http://www.w3.org/2000/svg"
   xmlns:xlink="http://www.w3.org/1999/xlink"
   xmlns:sodipodi="http://sodipodi.sourceforge.net/DTD/sodipodi-0.dtd"
   xmlns:inkscape="http://www.inkscape.org/namespaces/inkscape"
   height="26"
   width="26"
   version="1.1"
   id="svg2"
   inkscape:version="0.91 r"
   sodipodi:docname="copper_layers_setup.svg">
  <metadata
     id="metadata40">
    <rdf:RDF>
      <cc:Work
         rdf:about="">
        <dc:format>image/svg+xml</dc:format>
        <dc:type
           rdf:resource="http://purl.org/dc/dcmitype/StillImage" />
        <dc:title />
      </cc:Work>
    </rdf:RDF>
  </metadata>
  <sodipodi:namedview
     pagecolor="#ffffff"
     bordercolor="#666666"
     borderopacity="1"
     objecttolerance="10"
     gridtolerance="10"
     guidetolerance="10"
     inkscape:pageopacity="0"
     inkscape:pageshadow="2"
     inkscape:window-width="1920"
     inkscape:window-height="1053"
     id="namedview38"
     showgrid="true"
     inkscape:snap-to-guides="false"
     inkscape:snap-grids="true"
     inkscape:zoom="21.730769"
     inkscape:cx="3.6584064"
     inkscape:cy="11.757523"
     inkscape:window-x="0"
     inkscape:window-y="0"
     inkscape:window-maximized="1"
     inkscape:current-layer="svg2"
     showguides="true"
     inkscape:guide-bbox="true">
    <inkscape:grid
       type="xygrid"
       id="grid3017"
       empspacing="2"
       visible="true"
       enabled="true"
       snapvisiblegridlinesonly="true"
       spacingx="0.5px"
       spacingy="0.5px" />
  </sodipodi:namedview>
  <defs
     id="defs4">
    <linearGradient
       id="linearGradient4067"
       y2="39.685001"
       gradientUnits="userSpaceOnUse"
       x2="34.534"
       gradientTransform="matrix(1.2419,0,0,1.2419,36.866,-2.4533)"
       y1="12.285"
       x1="14.463">
      <stop
         stop-color="#c9c9c9"
         offset="0"
         id="stop4069" />
      <stop
         stop-color="#f8f8f8"
         offset="0.44999999"
         id="stop4071" />
      <stop
         stop-color="#e2e2e2"
         offset="0.66666645"
         id="stop4073" />
      <stop
         stop-color="#b0b0b0"
         offset="0.95000005"
         id="stop4075" />
      <stop
         stop-color="#c9c9c9"
         offset="1"
         id="stop4077" />
    </linearGradient>
    <linearGradient
       y2="35.973965"
       x2="37.265358"
       y1="9.6206512"
       x1="8.6861582"
       gradientTransform="matrix(0.41988577,0,0,0.39843198,7.9508427,8.6193332)"
       gradientUnits="userSpaceOnUse"
       id="linearGradient3037"
       xlink:href="#linearGradient4067"
       inkscape:collect="always" />
  </defs>
  <path
     sodipodi:nodetypes="ccccc"
     inkscape:connector-curvature="0"
     id="path3835"
     d="m 10.5,16.5 15,0 -10,8 -15,0 z"
     style="fill:#a000a0;fill-opacity:1;stroke:#4d4d4d;stroke-width:1;stroke-linecap:square;stroke-linejoin:round;stroke-miterlimit:4;stroke-opacity:1;stroke-dasharray:none" />
  <g
     transform="matrix(1.6382539,0,0,1.5572263,-0.2427793,0.36314149)"
     id="g16">
    <rect
       height="16"
       width="16"
       y="0"
       x="0"
       id="rect18"
       style="fill-opacity:0" />
  </g>
  <path
     style="fill:#00a000;fill-opacity:1;stroke:#4d4d4d;stroke-width:1;stroke-linecap:square;stroke-linejoin:round;stroke-miterlimit:4;stroke-dasharray:none;stroke-opacity:1"
     d="m 11,11.5 14.5,0 -10,8 -15,0 z"
     id="rect3828"
     inkscape:connector-curvature="0"
     sodipodi:nodetypes="ccccc" />
  <path
     sodipodi:nodetypes="ccccc"
     inkscape:connector-curvature="0"
     id="path3831"
     d="m 10.5,6.5 15,0 -10,8 -15,0 z"
     style="fill:#e60000;fill-opacity:1;stroke:#4d4d4d;stroke-width:1;stroke-linecap:square;stroke-linejoin:round;stroke-miterlimit:4;stroke-opacity:1;stroke-dasharray:none" />
  <path
     style="fill:#00a0a0;fill-opacity:1;stroke:#4d4d4d;stroke-width:1;stroke-linecap:square;stroke-linejoin:round;stroke-miterlimit:4;stroke-dasharray:none;stroke-opacity:1"
     d="m 10.5,1.5 15,0 -10,8 -15,0 z"
     id="path3833"
     inkscape:connector-curvature="0"
     sodipodi:nodetypes="ccccc" />
  <path
     style="color:#000000;fill:#ffffff;fill-opacity:1;stroke:#ffffff;stroke-width:2.1;stroke-miterlimit:4;stroke-dasharray:none;stroke-opacity:1"
     d="m 16.411852,8.9105265 c -0.192596,0.01215 -0.379791,0.03958 -0.568965,0.05952 l -0.013,0 -0.452607,2.2733895 c -0.737667,0.154632 -1.431679,0.417064 -2.05605,0.773643 l -2.030005,-1.344732 c -0.549105,0.392151 -1.04814,0.849589 -1.4871745,1.34511 l 1.4094605,1.892472 c -0.427945,0.601979 -0.749794,1.289349 -0.931036,2.011496 -3e-5,0.0032 -2.6e-5,0.01139 0,0.01187 L 7.82558,16.290369 c -0.04491,0.337697 -0.064641,0.686685 -0.064641,1.035532 0,0.28539 0.00858,0.566974 0.038796,0.845092 l 2.456893,0.404681 c 0.174736,0.785335 0.50669,1.518755 0.969848,2.166248 l -1.4611863,1.844893 c 0.4184703,0.478192 0.9016163,0.913574 1.4224153,1.297348 l 2.068962,-1.309269 c 0.723062,0.424565 1.530247,0.722296 2.40517,0.86886 l 0.387931,2.249544 c 0.275659,0.0231 0.55833,0.0238 0.840494,0.0238 0.398349,0 0.778843,-0.01383 1.163793,-0.05951 l 0.46552,-2.297153 c 0.830728,-0.190289 1.6111,-0.520396 2.288768,-0.964081 l 1.991377,1.333074 c 0.516414,-0.404417 0.988676,-0.869278 1.396551,-1.368802 l -1.448269,-1.928194 c 0.392213,-0.623498 0.663971,-1.311403 0.801723,-2.047221 l 2.443859,-0.356884 c 0.02142,-0.234688 0.02586,-0.462358 0.02586,-0.702197 0,-0.416757 -0.05263,-0.825402 -0.116365,-1.225971 l -2.482753,-0.416607 c -0.194564,-0.661284 -0.513807,-1.278268 -0.918125,-1.83298 l 1.461186,-1.844863 c -0.452706,-0.509261 -0.969118,-0.980408 -1.538499,-1.380177 l -2.107776,1.333074 C 19.71132,11.628823 19.059389,11.375785 18.351595,11.232574 L 17.963866,8.9711825 c -0.35338,-0.03824 -0.709244,-0.05953 -1.073379,-0.05953 -0.09844,0 -0.199731,-0.003 -0.297415,0 -0.04761,0.0014 -0.09474,-0.0026 -0.142246,0 -0.01283,6.76e-4 -0.02596,-7.72e-4 -0.03879,0 z m 0.336206,5.7844045 c 0.04725,-0.0022 0.09441,0 0.142247,0 1.530659,0 2.780189,1.1501 2.780189,2.559046 0,1.408907 -1.249487,2.547125 -2.780189,2.547125 -1.530661,0 -2.767239,-1.138218 -2.767239,-2.547125 1e-6,-1.364877 1.160522,-2.49064 2.625017,-2.559046 z"
     id="path4178"
     inkscape:connector-curvature="0" />
  <path
     inkscape:connector-curvature="0"
     id="path215"
     d="m 16.455405,9.5896682 c -0.170724,0.0111 -0.33666,0.03617 -0.504349,0.05439 h -0.01152 l -0.401205,2.0774888 c -0.653893,0.141308 -1.269088,0.381125 -1.822552,0.706977 l -1.799463,-1.228855 c -0.486744,0.35836 -0.929104,0.776379 -1.318278,1.229202 l 1.24939,1.729397 c -0.379345,0.550106 -0.664641,1.178245 -0.825299,1.838164 -2.7e-5,0.003 -2.3e-5,0.01041 0,0.01085 l -2.1778723,0.326306 c -0.03981,0.308598 -0.0573,0.627513 -0.0573,0.9463 0,0.260798 0.0076,0.518118 0.03439,0.77227 l 2.1778703,0.36981 c 0.154892,0.717662 0.449145,1.387883 0.859704,1.979582 l -1.295242,1.685918 c 0.370945,0.436986 0.79922,0.834851 1.260874,1.185555 l 1.833996,-1.196449 c 0.640946,0.38798 1.356462,0.660056 2.132022,0.79399 l 0.343875,2.055701 c 0.244354,0.02111 0.494922,0.02175 0.745042,0.02175 0.35311,0 0.690392,-0.01264 1.031623,-0.05438 l 0.412653,-2.099208 c 0.736385,-0.17389 1.428132,-0.475553 2.028839,-0.881005 l 1.765222,1.218203 c 0.457767,-0.369569 0.876395,-0.794373 1.237949,-1.250852 L 22.071976,20.11873 c 0.347671,-0.569771 0.588566,-1.198399 0.710674,-1.870812 l 2.166317,-0.326131 c 0.01899,-0.214464 0.02292,-0.422516 0.02292,-0.641688 0,-0.380845 -0.04665,-0.754277 -0.103151,-1.120329 l -2.200793,-0.380708 c -0.172467,-0.604301 -0.455456,-1.16812 -0.813856,-1.675032 l 1.295243,-1.68589 c -0.401291,-0.465382 -0.859056,-0.89593 -1.363773,-1.261252 l -1.868403,1.218204 c -0.536993,-0.301365 -1.114886,-0.5326 -1.742297,-0.66347 L 17.831161,9.6450972 c -0.313248,-0.03494 -0.628697,-0.0544 -0.951479,-0.0544 -0.08726,0 -0.177048,-0.0027 -0.263638,0 -0.04221,0.0013 -0.08398,-0.0024 -0.126091,0 -0.01138,6.18e-4 -0.02301,-7.06e-4 -0.03439,0 z m 0.298024,5.2859588 c 0.04188,-0.002 0.08369,0 0.126092,0 1.356827,0 2.464451,1.050995 2.464451,2.338532 0,1.287501 -1.107587,2.327639 -2.464451,2.327639 -1.356828,0 -2.452972,-1.040138 -2.452972,-2.327639 1e-6,-1.247265 1.028726,-2.276021 2.326902,-2.338532 z"
     style="color:#000000;fill:url(#linearGradient3037);fill-opacity:1;stroke:#4d4d4d;stroke-width:1;stroke-miterlimit:4;stroke-opacity:1;stroke-dasharray:none" />
</svg>
