<svg id="Слой_1" data-name="Слой 1"
  xmlns:cc="http://creativecommons.org/ns#"
  xmlns:rdf="http://www.w3.org/1999/02/22-rdf-syntax-ns#"
  xmlns="http://www.w3.org/2000/svg" viewBox="0 0 26 26">
  <metadata id="metadata43">
    <rdf:RDF>
      <cc:Work rdf:about="">
        <cc:license rdf:resource="http://creativecommons.org/licenses/by/4.0/" />
      </cc:Work>
      <cc:License rdf:about="http://creativecommons.org/licenses/by/4.0/">
        <cc:permits rdf:resource="http://creativecommons.org/ns#Reproduction" />
        <cc:permits rdf:resource="http://creativecommons.org/ns#Distribution" />
        <cc:requires rdf:resource="http://creativecommons.org/ns#Notice" />
        <cc:requires rdf:resource="http://creativecommons.org/ns#Attribution" />
        <cc:permits rdf:resource="http://creativecommons.org/ns#DerivativeWorks" />
      </cc:License>
    </rdf:RDF>
  </metadata>
  <defs>
    <style>.cls-1{fill:#b9b9b9;}.cls-2{fill:#1a81c4;}</style>
  </defs>
  <title>copy</title>
  <path class="cls-1" d="M4.2616.9859H17.3933a3.2829,3.2829,0,0,1,3.2829,3.2829V17.4007a3.2829,3.2829,0,0,1-3.2829,3.2829H4.2617A3.2831,3.2831,0,0,1,.9786,17.4V4.2689A3.283,3.283,0,0,1,4.2616.9859Z"/>
  <path class="cls-2" d="M8.5687,5.2989H21.7a3.283,3.283,0,0,1,3.283,3.283V21.7135A3.2831,3.2831,0,0,1,21.7,24.9966H8.5689a3.2831,3.2831,0,0,1-3.2831-3.2831V8.5818A3.2829,3.2829,0,0,1,8.5687,5.2989Z"/>
</svg>