<?xml version="1.0" encoding="UTF-8" standalone="no"?>
<svg xmlns:dc="http://purl.org/dc/elements/1.1/"
   xmlns:cc="http://creativecommons.org/ns#"
   xmlns:rdf="http://www.w3.org/1999/02/22-rdf-syntax-ns#"
   xmlns:svg="http://www.w3.org/2000/svg"
   xmlns="http://www.w3.org/2000/svg"
   xmlns:sodipodi="http://sodipodi.sourceforge.net/DTD/sodipodi-0.dtd"
   xmlns:inkscape="http://www.inkscape.org/namespaces/inkscape" id="Слой_1" data-name="Слой 1" viewBox="0 0 24 24" version="1.1" sodipodi:docname="copy_pad_settings.svg" inkscape:version="1.0.1 (3bc2e813f5, 2020-09-07)">
   <sodipodi:namedview pagecolor="#ffffff" bordercolor="#666666" borderopacity="1" objecttolerance="10" gridtolerance="10" guidetolerance="10" inkscape:pageopacity="0" inkscape:pageshadow="2" inkscape:window-width="1609" inkscape:window-height="1286" id="namedview30" showgrid="true" inkscape:zoom="27.961538" inkscape:cx="3.3259971" inkscape:cy="13" inkscape:window-x="0" inkscape:window-y="37" inkscape:window-maximized="0" inkscape:document-rotation="0" inkscape:current-layer="Слой_1">
      <inkscape:grid type="xygrid" id="grid_kicad" spacingx="0.5" spacingy="0.5" color="#9999ff" opacity="0.13" empspacing="2" />
   </sodipodi:namedview>
   <metadata id="metadata43">
      <rdf:RDF>
         <cc:Work rdf:about="">
            <cc:license rdf:resource="http://creativecommons.org/licenses/by-sa/4.0/" />
            <dc:format>image/svg+xml</dc:format>
            <dc:type rdf:resource="http://purl.org/dc/dcmitype/StillImage" />
            <dc:title>add_arc</dc:title>
         </cc:Work>
         <cc:License rdf:about="http://creativecommons.org/licenses/by-sa/4.0/">
            <cc:permits rdf:resource="http://creativecommons.org/ns#Reproduction" />
            <cc:permits rdf:resource="http://creativecommons.org/ns#Distribution" />
            <cc:requires rdf:resource="http://creativecommons.org/ns#Notice" />
            <cc:requires rdf:resource="http://creativecommons.org/ns#Attribution" />
            <cc:permits rdf:resource="http://creativecommons.org/ns#DerivativeWorks" />
            <cc:requires rdf:resource="http://creativecommons.org/ns#ShareAlike" />
         </cc:License>
      </rdf:RDF>
   </metadata>
   <defs id="defs763">
      <style id="style761">.cls-1{fill:#f29100;}.cls-2{fill:#b9b9b9;}.cls-3{fill:none;stroke:#bf2641;stroke-linecap:round;stroke-linejoin:round;stroke-width:2px;}</style>
   </defs>
   <title id="title765">copy_pad_settings</title>
   <path class="cls-1" d="M 15.49,6.9829 A 8.5073,8.5073 0 1 0 23.9974,15.49 8.5171,8.5171 0 0 0 15.49,6.9829 Z m 0,16.3057 A 7.7984,7.7984 0 1 1 23.2886,15.49 7.8068,7.8068 0 0 1 15.49,23.2886 Z" id="path767" />
   <path class="cls-1" d="M 15.49,8.9143 A 6.5759,6.5759 0 1 0 22.066,15.49 6.5832,6.5832 0 0 0 15.49,8.9143 Z m 0,10.3162 a 3.74,3.74 0 1 1 3.74,-3.74 3.7448,3.7448 0 0 1 -3.74,3.74 z" id="path769" />
   <path class="cls-2" d="m 6.0149,15.8917 a 7.7945,7.7945 0 1 1 9.8768,-9.8768 c 0.2578,0.0109 0.5136,0.0279 0.7658,0.0591 A 8.5053,8.5053 0 1 0 6.074,16.6575 C 6.0428,16.4053 6.0258,16.15 6.0149,15.8917 Z" id="path771" />
   <path class="cls-2" d="M 6.7467,11.7879 A 3.7275,3.7275 0 1 1 11.788,6.7467 9.42,9.42 0 0 1 14.6,6.04 6.5734,6.5734 0 1 0 6.04,14.6 9.4207,9.4207 0 0 1 6.7467,11.7879 Z" id="path773" />
   <polyline class="cls-3" points="11.181 21.614 5.01 21.614 5.01 16.004" id="polyline775" transform="translate(-1,-1)" />
   <polyline class="cls-3" points="8.803 19.188 11.229 21.614 8.803 24.041" id="polyline777" transform="translate(-1,-1)" />
</svg>
