<svg id="Слой_1" data-name="Слой 1"
  xmlns:dc="http://purl.org/dc/elements/1.1/"
  xmlns:cc="http://creativecommons.org/ns#"
  xmlns:rdf="http://www.w3.org/1999/02/22-rdf-syntax-ns#"
  xmlns="http://www.w3.org/2000/svg" viewBox="0 0 26 26">
  <metadata id="metadata43">
    <rdf:RDF>
      <cc:Work rdf:about="">
        <cc:license rdf:resource="http://creativecommons.org/licenses/by-sa/4.0/" />
        <dc:format>image/svg+xml</dc:format>
        <dc:type rdf:resource="http://purl.org/dc/dcmitype/StillImage" />
        <dc:title>add_arc</dc:title>
      </cc:Work>
      <cc:License rdf:about="http://creativecommons.org/licenses/by-sa/4.0/">
        <cc:permits rdf:resource="http://creativecommons.org/ns#Reproduction" />
        <cc:permits rdf:resource="http://creativecommons.org/ns#Distribution" />
        <cc:requires rdf:resource="http://creativecommons.org/ns#Notice" />
        <cc:requires rdf:resource="http://creativecommons.org/ns#Attribution" />
        <cc:permits rdf:resource="http://creativecommons.org/ns#DerivativeWorks" />
        <cc:requires rdf:resource="http://creativecommons.org/ns#ShareAlike" />
      </cc:License>
    </rdf:RDF>
  </metadata>
  <defs>
    <style>.cls-1{fill:#f29100;}.cls-2{fill:#b9b9b9;}.cls-3{fill:none;stroke:#e61c50;stroke-linecap:round;stroke-linejoin:round;stroke-width:2px;}</style>
  </defs>
  <title>copy_pad_settings</title>
  <path class="cls-1" d="M16.49,7.9829A8.5073,8.5073,0,1,0,24.9974,16.49,8.5171,8.5171,0,0,0,16.49,7.9829Zm0,16.3057A7.7984,7.7984,0,1,1,24.2886,16.49,7.8068,7.8068,0,0,1,16.49,24.2886Z"/>
  <path class="cls-1" d="M16.49,9.9143A6.5759,6.5759,0,1,0,23.066,16.49,6.5832,6.5832,0,0,0,16.49,9.9143Zm0,10.3162a3.74,3.74,0,1,1,3.74-3.74A3.7448,3.7448,0,0,1,16.49,20.2305Z"/>
  <path class="cls-2" d="M7.0149,16.8917a7.7945,7.7945,0,1,1,9.8768-9.8768c.2578.0109.5136.0279.7658.0591A8.5053,8.5053,0,1,0,7.074,17.6575C7.0428,17.4053,7.0258,17.15,7.0149,16.8917Z"/>
  <path class="cls-2" d="M7.7467,12.7879A3.7275,3.7275,0,1,1,12.788,7.7467,9.42,9.42,0,0,1,15.6,7.04,6.5734,6.5734,0,1,0,7.04,15.6,9.4207,9.4207,0,0,1,7.7467,12.7879Z"/>
  <polyline class="cls-3" points="11.181 21.614 5.01 21.614 5.01 16.004"/>
  <polyline class="cls-3" points="8.803 19.188 11.229 21.614 8.803 24.041"/>
</svg>