<svg id="Слой_1" data-name="Слой 1"
  xmlns:dc="http://purl.org/dc/elements/1.1/"
  xmlns:cc="http://creativecommons.org/ns#"
  xmlns:rdf="http://www.w3.org/1999/02/22-rdf-syntax-ns#"
  xmlns="http://www.w3.org/2000/svg"
  xmlns:sodipodi="http://sodipodi.sourceforge.net/DTD/sodipodi-0.dtd"
  xmlns:inkscape="http://www.inkscape.org/namespaces/inkscape" viewBox="0 0 26 26">
  <sodipodi:namedview pagecolor="#ffffff" bordercolor="#666666" borderopacity="1" objecttolerance="10" gridtolerance="10" guidetolerance="10" inkscape:pageopacity="0" inkscape:pageshadow="2" inkscape:window-width="1609" inkscape:window-height="1286" id="namedview30" showgrid="true" inkscape:zoom="27.961538" inkscape:cx="13" inkscape:cy="13" inkscape:window-x="0" inkscape:window-y="37" inkscape:window-maximized="0">
    <inkscape:grid type="xygrid" id="grid_kicad" spacingx="0.5" spacingy="0.5" color="#9999ff" opacity="0.13" empspacing="2" />
  </sodipodi:namedview>
  <metadata id="metadata43">
    <rdf:RDF>
      <cc:Work rdf:about="">
        <cc:license rdf:resource="http://creativecommons.org/licenses/by-sa/4.0/" />
        <dc:format>image/svg+xml</dc:format>
        <dc:type rdf:resource="http://purl.org/dc/dcmitype/StillImage" />
        <dc:title>add_arc</dc:title>
      </cc:Work>
      <cc:License rdf:about="http://creativecommons.org/licenses/by-sa/4.0/">
        <cc:permits rdf:resource="http://creativecommons.org/ns#Reproduction" />
        <cc:permits rdf:resource="http://creativecommons.org/ns#Distribution" />
        <cc:requires rdf:resource="http://creativecommons.org/ns#Notice" />
        <cc:requires rdf:resource="http://creativecommons.org/ns#Attribution" />
        <cc:permits rdf:resource="http://creativecommons.org/ns#DerivativeWorks" />
        <cc:requires rdf:resource="http://creativecommons.org/ns#ShareAlike" />
      </cc:License>
    </rdf:RDF>
  </metadata>
  <defs>
    <style>.cls-1{fill:#545454;}.cls-2{fill:#1a81c4;}.cls-3{fill:#e61c50;}.cls-4{fill:none;stroke:#fff;stroke-linecap:round;stroke-linejoin:round;stroke-width:2px;}</style>
  </defs>
  <title>cvpcb</title>
  <path class="cls-1" d="M5.0678,6.8087H6.4189a.5808.5808,0,1,0,0-1.1615H5.0678a.5808.5808,0,1,0,0,1.1615Z"/>
  <path class="cls-1" d="M6.4422,8.9349V8.7432a.5809.5809,0,0,0-1.1617,0v.1917H5.0894a.5808.5808,0,1,0,0,1.1615h.1911v.1912a.5809.5809,0,0,0,1.1617,0v-.1912h.1911a.5808.5808,0,1,0,0-1.1615Z"/>
  <path class="cls-1" d="M6.985,11.83v-.5707L3.9272,13.2787V2.6617L9.8961,6.6035h2.1074L3.6663,1.0975a.58.58,0,0,0-.9007.4843v2.323H1.6039a.5808.5808,0,1,0,0,1.1615H2.7656v5.8078H1.6039a.5807.5807,0,1,0,0,1.1614H2.7656v2.3231a.58.58,0,0,0,.9007.4844L7.4721,12.33Z"/>
  <path class="cls-1" d="M18.6565,17.2678H7.7877A.2679.2679,0,0,1,7.52,17V14.3066a.2692.2692,0,0,1,.0885-.199l.8488-.7645v-.9258l-.8488-.7645a.2692.2692,0,0,1-.0885-.199V9.033a.2679.2679,0,0,1,.2681-.2681H18.6649a.2682.2682,0,0,1,.2681.2686L18.9246,17A.2678.2678,0,0,1,18.6565,17.2678ZM8.0558,16.7316H18.3889l.0074-7.43H8.0558v2.0333l.8489.7645a.2691.2691,0,0,1,.0884.199v1.1646a.2689.2689,0,0,1-.0884.199l-.8489.7646Zm.6693-3.2691h0Z"/>
  <rect class="cls-2" x="15.05" y="15.3596" width="2.3433" height="3.2806"/>
  <rect class="cls-2" x="8.9635" y="15.3596" width="2.3434" height="3.2806"/>
  <rect class="cls-2" x="12.0057" y="15.3596" width="2.3432" height="3.2806"/>
  <rect class="cls-2" x="15.05" y="7.3924" width="2.3433" height="3.2806"/>
  <rect class="cls-2" x="8.9635" y="7.3924" width="2.3434" height="3.2806"/>
  <rect class="cls-2" x="12.0057" y="7.3924" width="2.3432" height="3.2806"/>
  <path class="cls-3" d="M25.0065,18A7.0065,7.0065,0,1,1,18,11,7.0032,7.0032,0,0,1,25.0065,18Z"/>
  <path class="cls-4" d="M18.2893,17.7107h0a1.6461,1.6461,0,0,1,0-2.3279l.8383-.8382a1.6458,1.6458,0,0,1,2.3278,0h0a1.6458,1.6458,0,0,1,0,2.3278l-.8382.8383A1.6461,1.6461,0,0,1,18.2893,17.7107Z"/>
  <path class="cls-4" d="M14.5446,21.4554h0a1.6458,1.6458,0,0,1,0-2.3278l.8382-.8383a1.6461,1.6461,0,0,1,2.3279,0h0a1.6461,1.6461,0,0,1,0,2.3279l-.8383.8382A1.6458,1.6458,0,0,1,14.5446,21.4554Z"/>
  <line class="cls-4" x1="18.83" y1="17.17" x2="17.1297" y2="18.8703"/>
</svg>