<?xml version="1.0" encoding="UTF-8" standalone="no"?>
<svg
   xmlns:dc="http://purl.org/dc/elements/1.1/"
   xmlns:cc="http://creativecommons.org/ns#"
   xmlns:rdf="http://www.w3.org/1999/02/22-rdf-syntax-ns#"
   xmlns:svg="http://www.w3.org/2000/svg"
   xmlns="http://www.w3.org/2000/svg"
   xmlns:xlink="http://www.w3.org/1999/xlink"
   xmlns:sodipodi="http://sodipodi.sourceforge.net/DTD/sodipodi-0.dtd"
   xmlns:inkscape="http://www.inkscape.org/namespaces/inkscape"
   height="48"
   width="48"
   version="1.1"
   id="svg2"
   inkscape:version="0.47 r22583"
   sodipodi:docname="datasheet.svg">
  <metadata
     id="metadata33">
    <rdf:RDF>
      <cc:Work
         rdf:about="">
        <dc:format>image/svg+xml</dc:format>
        <dc:type
           rdf:resource="http://purl.org/dc/dcmitype/StillImage" />
      </cc:Work>
    </rdf:RDF>
  </metadata>
  <sodipodi:namedview
     pagecolor="#ffffff"
     bordercolor="#666666"
     borderopacity="1"
     objecttolerance="10"
     gridtolerance="10"
     guidetolerance="10"
     inkscape:pageopacity="0"
     inkscape:pageshadow="2"
     inkscape:window-width="1280"
     inkscape:window-height="949"
     id="namedview31"
     showgrid="false"
     inkscape:zoom="4.9166667"
     inkscape:cx="24"
     inkscape:cy="23.59322"
     inkscape:window-x="0"
     inkscape:window-y="25"
     inkscape:window-maximized="1"
     inkscape:current-layer="svg2" />
  <defs
     id="defs4">
    <inkscape:perspective
       sodipodi:type="inkscape:persp3d"
       inkscape:vp_x="0 : 24 : 1"
       inkscape:vp_y="0 : 1000 : 0"
       inkscape:vp_z="48 : 24 : 1"
       inkscape:persp3d-origin="24 : 16 : 1"
       id="perspective35" />
    <linearGradient
       id="a"
       y2="73.399"
       gradientUnits="userSpaceOnUse"
       x2="72.999"
       gradientTransform="matrix(0.25365,0,0,0.2205,4.7206034,0.98497864)"
       y1="16.369"
       x1="23.984">
      <stop
         stop-color="#fff"
         offset="0"
         id="stop7" />
      <stop
         stop-color="#fff"
         stop-opacity="0"
         offset="1"
         id="stop9" />
    </linearGradient>
    <linearGradient
       inkscape:collect="always"
       xlink:href="#a"
       id="linearGradient2852"
       gradientUnits="userSpaceOnUse"
       gradientTransform="matrix(0.25365,0,0,0.2205,4.7206034,0.98497864)"
       x1="23.984"
       y1="16.369"
       x2="72.999"
       y2="73.399" />
  </defs>
  <g
     id="g2843"
     transform="matrix(1.2474856,0,0,1.1873106,-6.8698031,2.1122211)">
    <rect
       style="fill:none;stroke:#000000;stroke-width:1.93180001;stroke-linejoin:round;stroke-opacity:0.5"
       id="rect15"
       x="8.9930029"
       y="2.7310185"
       width="31.778"
       height="32.792"
       ry="5.6279998"
       rx="6.178" />
    <rect
       style="fill:#bab5ab;fill-rule:evenodd;stroke:#000000;stroke-width:0.9659"
       id="rect17"
       x="8.9556036"
       y="2.7090187"
       width="31.778"
       height="32.792"
       ry="5.6279998"
       rx="6.178" />
    <path
       style="fill:#ffffff;fill-opacity:0.27935001;fill-rule:evenodd"
       id="path19"
       d="m 35.061203,34.397119 h -20.434 c -3.1425,0 -4.6812996,-1.4018 -4.6812996,-4.2645 0,0 7.4537996,-16.352 29.7959996,-18.846 v 18.846 c 0,2.8627 -1.5388,4.2645 -4.6813,4.2645 z" />
    <path
       d="m 39.209113,24.909265 -3.089357,0 c -0.477851,0 -0.860936,0.05569 -1.149265,0.167086 -0.140055,0.04284 -0.263625,0.09426 -0.370743,0.154226 -0.107085,0.05998 -0.210071,0.145666 -0.308936,0.257048 -0.271867,0.257048 -0.469586,0.574087 -0.593167,0.951091 l -0.07421,0.308465 -0.02477,0.347022 0,0.269908 5.610436,0 0,1.645121 -5.610436,0 0,4.177041 -2.076095,0 0,-4.999667 c 0,-0.436982 0.01239,-0.818286 0.03716,-1.143886 0.02477,-0.334174 0.06587,-0.625491 0.123581,-0.873978 0.172991,-0.822573 0.535492,-1.495208 1.08748,-2.017877 0.346016,-0.334174 0.766169,-0.578374 1.260425,-0.7326 0.494313,-0.154226 1.120427,-0.231352 1.878388,-0.231352 l 3.299542,0 0,1.722234 z m -17.745545,-1.722626 5.103748,0 c 1.293395,0 2.277923,0.428421 2.953469,1.285264 0.675569,0.856843 1.013354,2.09499 1.013354,3.714363 0,1.602252 -0.337785,2.83619 -1.013354,3.701555 -0.667304,0.865404 -1.651832,1.298113 -2.953469,1.298113 l -5.103519,0 0,-9.999335 z m 2.001912,8.289908 2.434417,0 c 0.807359,0 1.40467,-0.269908 1.791841,-0.809712 0.387217,-0.548378 0.580814,-1.375226 0.580814,-2.480555 0,-1.10533 -0.185366,-1.927956 -0.556098,-2.467747 -0.362512,-0.539817 -0.96802,-0.809713 -1.816568,-0.809713 l -2.434417,0 0,6.567675 z m -9.651694,-1.863782 0,3.573077 -2.076782,0 0,-9.999334 5.771051,0 c 0.889739,0 1.594134,0.274182 2.113187,0.822573 0.519029,0.539804 0.778544,1.336669 0.778544,2.390634 0,1.045339 -0.259515,1.842217 -0.778544,2.390634 -0.519018,0.548378 -1.223448,0.822573 -2.113187,0.822573 l -3.694956,0 z m 0,-4.704023 0,2.994598 2.755419,0 c 0.453112,0 0.823844,-0.119956 1.112196,-0.359869 0.288352,-0.248487 0.432517,-0.629778 0.432517,-1.143887 0,-0.505534 -0.144165,-0.878264 -0.432517,-1.118177 -0.280362,-0.24833 -0.651048,-0.372495 -1.112402,-0.372495 l -2.755763,0 z"
       id="path23"
       style="fill:#ffffff;stroke-width:1pt" />
    <path
       d="m 39.418611,25.127534 -3.089471,0 c -0.477851,0 -0.860936,0.0557 -1.149265,0.167086 -0.140055,0.04284 -0.263625,0.09425 -0.370744,0.154226 -0.107084,0.05998 -0.21007,0.145666 -0.308935,0.257048 -0.271867,0.257048 -0.469597,0.574087 -0.593178,0.951091 l -0.07421,0.308465 -0.02477,0.347022 0,0.269908 5.610436,0 0,1.645121 -5.610436,0 0,4.177041 -2.076095,0 0,-4.999667 c 0,-0.436982 0.01239,-0.818286 0.03705,-1.143886 0.02477,-0.334174 0.06587,-0.625491 0.123581,-0.873978 0.172991,-0.822573 0.535492,-1.495208 1.08748,-2.017877 0.346004,-0.334174 0.766169,-0.578374 1.260539,-0.7326 0.494302,-0.154226 1.120416,-0.231352 1.878388,-0.231352 l 3.299543,0 0,1.722234 z m -17.745544,-1.722626 5.103747,0 c 1.293395,0 2.277923,0.428421 2.953469,1.285264 0.675558,0.856843 1.013332,2.09499 1.013332,3.714363 0,1.602252 -0.337785,2.83619 -1.013332,3.701555 -0.667315,0.865404 -1.651831,1.298113 -2.953469,1.298113 l -5.103518,0 0,-9.999335 z m 2.001911,8.289908 2.434418,0 c 0.80737,0 1.404669,-0.269908 1.791841,-0.809712 0.387205,-0.548378 0.580802,-1.375226 0.580802,-2.480555 0,-1.10533 -0.185354,-1.927956 -0.556098,-2.467747 -0.362489,-0.539804 -0.96802,-0.809713 -1.816568,-0.809713 l -2.434418,0 0,6.567675 z m -9.651694,-1.863782 0,3.573077 -2.076782,0 0,-9.999334 5.771052,0 c 0.889761,0 1.594134,0.274182 2.113186,0.822573 0.519018,0.539804 0.778533,1.336669 0.778533,2.390634 0,1.045339 -0.259515,1.842217 -0.778533,2.390634 -0.519029,0.548378 -1.223448,0.822573 -2.113186,0.822573 l -3.694728,0 z m 0,-4.704023 0,2.994598 2.755419,0 c 0.453112,0 0.823844,-0.119956 1.112196,-0.359869 0.288352,-0.248487 0.432517,-0.629778 0.432517,-1.143887 0,-0.505534 -0.144165,-0.878264 -0.432517,-1.118177 -0.280476,-0.24833 -0.651048,-0.372495 -1.112402,-0.372495 l -2.755762,0 z"
       id="path25"
       style="stroke-width:1pt" />
    <path
       style="fill:#ffffff;fill-rule:evenodd;stroke:#df421e;stroke-width:1.52709997"
       id="path27"
       d="m 24.764203,5.3940186 c 4.382,0.0339 -5.087,19.0780004 -8.6885,16.5410004 -3.119,-3.856 19.976,-7.848 17.972,-5.378 -4.085,4.296 -12.069,-11.1630004 -9.284,-11.1630004 z" />
    <path
       style="fill:url(#linearGradient2852);fill-rule:evenodd"
       id="path29"
       d="m 14.627903,3.6119186 h 20.434 c 3.1425,0 4.6813,1.4018 4.6813,4.2645 0,0 -21.397,0.22263 -29.7959996,22.4570004 V 7.8734186 c 0,-2.5294 1.9046996,-4.2645 4.6812996,-4.2645 z" />
  </g>
</svg>
