<svg id="Слой_1" data-name="Слой 1"
  xmlns:dc="http://purl.org/dc/elements/1.1/"
  xmlns:cc="http://creativecommons.org/ns#"
  xmlns:rdf="http://www.w3.org/1999/02/22-rdf-syntax-ns#"
  xmlns="http://www.w3.org/2000/svg" viewBox="0 0 26 26">
  <metadata id="metadata43">
    <rdf:RDF>
      <cc:Work rdf:about="">
        <cc:license rdf:resource="http://creativecommons.org/licenses/by-sa/4.0/" />
        <dc:format>image/svg+xml</dc:format>
        <dc:type rdf:resource="http://purl.org/dc/dcmitype/StillImage" />
        <dc:title>add_arc</dc:title>
      </cc:Work>
      <cc:License rdf:about="http://creativecommons.org/licenses/by-sa/4.0/">
        <cc:permits rdf:resource="http://creativecommons.org/ns#Reproduction" />
        <cc:permits rdf:resource="http://creativecommons.org/ns#Distribution" />
        <cc:requires rdf:resource="http://creativecommons.org/ns#Notice" />
        <cc:requires rdf:resource="http://creativecommons.org/ns#Attribution" />
        <cc:permits rdf:resource="http://creativecommons.org/ns#DerivativeWorks" />
        <cc:requires rdf:resource="http://creativecommons.org/ns#ShareAlike" />
      </cc:License>
    </rdf:RDF>
  </metadata>
  <defs>
    <style>.cls-1{fill:#b9b9b9;}.cls-2{fill:#1a81c4;}.cls-3{fill:#fff;}.cls-4{fill:#e61c50;}.cls-5{fill:none;stroke:#fff;stroke-linecap:round;stroke-linejoin:round;stroke-width:2px;}</style>
  </defs>
  <title>datasheet</title>
  <path class="cls-1" d="M7.0335,1h11.95a2.9933,2.9933,0,0,1,2.9933,2.9933V15.99a2.9934,2.9934,0,0,1-2.9934,2.9934H7.0335A2.9934,2.9934,0,0,1,4.04,15.99V3.9934A2.9934,2.9934,0,0,1,7.0335,1Z"/>
  <rect class="cls-2" x="1.0089" y="3.9936" width="18.7099" height="9.2299"/>
  <path class="cls-3" d="M3.0781,11.2012H2.0049V10.165H3.0781Z"/>
  <path class="cls-3" d="M8.6338,8.9561a2.7163,2.7163,0,0,1-.4922,1.6933,1.6249,1.6249,0,0,1-1.37.6455,1.68,1.68,0,0,1-.7227-.1474,1.4852,1.4852,0,0,1-.541-.4307v2.334H4.43v-6.66h.9092l.1064.6045A1.6049,1.6049,0,0,1,6.002,6.48a1.5571,1.5571,0,0,1,.7558-.1777,1.5933,1.5933,0,0,1,1.3818.705,3.1688,3.1688,0,0,1,.4942,1.8555ZM7.5605,8.86a2.3437,2.3437,0,0,0-.2773-1.2051.9.9,0,0,0-.8271-.4688,1.0649,1.0649,0,0,0-.5713.1446,1.0514,1.0514,0,0,0-.377.4013V9.9033a.9958.9958,0,0,0,.377.3887,1.1382,1.1382,0,0,0,.58.1357.9251.9251,0,0,0,.8233-.4062,1.8861,1.8861,0,0,0,.2724-1.0684Z"/>
  <path class="cls-3" d="M9.375,8.8623a3.1767,3.1767,0,0,1,.4922-1.8555,1.591,1.591,0,0,1,1.3838-.705,1.5088,1.5088,0,0,1,.6982.1582,1.5649,1.5649,0,0,1,.5342.4511V4.2656h1.0771v6.9356h-.9043l-.1064-.5957a1.588,1.588,0,0,1-.5537.5136,1.5573,1.5573,0,0,1-.7539.1758,1.629,1.629,0,0,1-1.375-.6455A2.7163,2.7163,0,0,1,9.375,8.9561Zm1.0771.0938a1.9422,1.9422,0,0,0,.2549,1.0625.8934.8934,0,0,0,.81.3955,1.0835,1.0835,0,0,0,.5791-.1465,1.1156,1.1156,0,0,0,.3877-.418V7.751a1.128,1.128,0,0,0-.3906-.4151,1.0487,1.0487,0,0,0-.5674-.1494.87.87,0,0,0-.8115.4649,2.459,2.459,0,0,0-.2618,1.2109Z"/>
  <path class="cls-3" d="M15.0684,11.2012v-4.01h-.7315V6.3906h.7315V5.8311a1.6576,1.6576,0,0,1,.4326-1.2276,1.6436,1.6436,0,0,1,1.2129-.4316,2.1651,2.1651,0,0,1,.3144.0244c.1065.0166.2266.04.3594.0693l-.1113.836c-.0586-.0118-.125-.0225-.1973-.0313a1.9187,1.9187,0,0,0-.2324-.0137.6626.6626,0,0,0-.5254.2.845.845,0,0,0-.1758.5743v.5595h.9756v.8008h-.9756v4.01Z"/>
  <path class="cls-4" d="M24.9961,17.9968a6.9925,6.9925,0,1,1-6.9926-7.0039A6.9982,6.9982,0,0,1,24.9961,17.9968Z"/>
  <polyline class="cls-5" points="21.865 19.871 15.694 19.871 15.694 14.26"/>
  <polyline class="cls-5" points="19.487 17.444 21.913 19.871 19.487 22.297"/>
</svg>