<?xml version="1.0" encoding="UTF-8" standalone="no"?>
<svg
   xmlns:dc="http://purl.org/dc/elements/1.1/"
   xmlns:cc="http://creativecommons.org/ns#"
   xmlns:rdf="http://www.w3.org/1999/02/22-rdf-syntax-ns#"
   xmlns:svg="http://www.w3.org/2000/svg"
   xmlns="http://www.w3.org/2000/svg"
   xmlns:xlink="http://www.w3.org/1999/xlink"
   xmlns:sodipodi="http://sodipodi.sourceforge.net/DTD/sodipodi-0.dtd"
   xmlns:inkscape="http://www.inkscape.org/namespaces/inkscape"
   height="48"
   width="48"
   version="1.1"
   id="svg2"
   inkscape:version="0.48.1 r9760"
   sodipodi:docname="datasheet.svg">
  <metadata
     id="metadata33">
    <rdf:RDF>
      <cc:Work
         rdf:about="">
        <dc:format>image/svg+xml</dc:format>
        <dc:type
           rdf:resource="http://purl.org/dc/dcmitype/StillImage" />
        <dc:title />
      </cc:Work>
    </rdf:RDF>
  </metadata>
  <sodipodi:namedview
     pagecolor="#ffffff"
     bordercolor="#666666"
     borderopacity="1"
     objecttolerance="10"
     gridtolerance="10"
     guidetolerance="10"
     inkscape:pageopacity="0"
     inkscape:pageshadow="2"
     inkscape:window-width="1600"
     inkscape:window-height="876"
     id="namedview31"
     showgrid="false"
     inkscape:zoom="9.8333333"
     inkscape:cx="-0.5832341"
     inkscape:cy="26.726924"
     inkscape:window-x="0"
     inkscape:window-y="24"
     inkscape:window-maximized="1"
     inkscape:current-layer="svg2" />
  <defs
     id="defs4">
    <linearGradient
       id="a"
       y2="73.399"
       gradientUnits="userSpaceOnUse"
       x2="72.999"
       gradientTransform="matrix(0.25365,0,0,0.2205,4.7206034,0.98497864)"
       y1="16.369"
       x1="23.984">
      <stop
         stop-color="#fff"
         offset="0"
         id="stop7" />
      <stop
         stop-color="#fff"
         stop-opacity="0"
         offset="1"
         id="stop9" />
    </linearGradient>
    <linearGradient
       inkscape:collect="always"
       xlink:href="#a"
       id="linearGradient2824"
       gradientUnits="userSpaceOnUse"
       gradientTransform="matrix(0.3154331,0,0,0.30075853,-0.90210036,-0.68623611)"
       x1="23.984"
       y1="16.369"
       x2="72.999"
       y2="73.399" />
  </defs>
  <rect
     rx="7.6828136"
     ry="7.6765027"
     height="44.727772"
     width="39.518372"
     y="1.6953347"
     x="4.4109545"
     id="rect15"
     style="fill:none;stroke:#000000;stroke-width:2.51595616;stroke-linejoin:round;stroke-opacity:0.0657895" />
  <rect
     rx="7.6828136"
     ry="7.6765027"
     height="44.727772"
     width="39.518372"
     y="1.6653272"
     x="4.3644452"
     id="rect17"
     style="fill:#bab5ab;fill-opacity:0.44298245;fill-rule:evenodd;stroke:#000000;stroke-width:1.25797808;stroke-opacity:0.04385962" />
  <path
     d="m 36.828749,44.887397 -25.411237,0 c -3.9079388,0 -5.8215534,-1.912033 -5.8215534,-5.816709 0,0 9.2693684,-22.303872 37.0535984,-25.70565 l 0,25.70565 c 0,3.904676 -1.913616,5.816709 -5.821555,5.816709 z"
     id="path19"
     style="fill:#ffffff;fill-opacity:0.27935001;fill-rule:evenodd" />
  <path
     style="fill:#ffffff;stroke-width:1pt"
     id="path23"
     d="m 41.986992,31.946113 -3.841853,0 c -0.594242,0 -1.070639,0.07596 -1.429197,0.227904 -0.17417,0.05842 -0.327839,0.128568 -0.461048,0.210363 -0.133168,0.08183 -0.261238,0.198684 -0.384186,0.350609 -0.338086,0.350608 -0.583965,0.783045 -0.737647,1.297272 l -0.09228,0.420743 -0.03081,0.473331 0,0.368151 6.977006,0 0,2.24392 -6.977006,0 0,5.697416 -2.581783,0 0,-6.819467 c 0,-0.596035 0.01541,-1.116129 0.04621,-1.560243 0.0308,-0.455806 0.08191,-0.853158 0.153681,-1.19209 0.215128,-1.121979 0.665927,-2.039442 1.352365,-2.752354 0.430296,-0.455807 0.95279,-0.788893 1.567435,-0.999255 0.614715,-0.210361 1.393336,-0.315558 2.33592,-0.315558 l 4.103232,0 0,2.349098 z m -22.067939,-2.349634 6.346899,0 c 1.608437,0 2.832771,0.58436 3.672864,1.75308 0.840121,1.168722 1.260182,2.857533 1.260182,5.066332 0,2.185449 -0.420061,3.868518 -1.260182,5.048864 -0.829843,1.180397 -2.054179,1.770605 -3.672864,1.770605 l -6.346613,0 0,-13.638934 z m 2.48953,11.307306 3.027382,0 c 1.004013,0 1.746815,-0.368152 2.228291,-1.104436 0.481536,-0.747979 0.722288,-1.875786 0.722288,-3.383437 0,-1.507654 -0.230517,-2.629702 -0.691552,-3.365969 -0.450811,-0.736302 -1.203806,-1.104436 -2.259041,-1.104436 l -3.027381,0 0,8.958205 z m -12.002618,-2.54217 0,4.87362 -2.5826362,0 0,-13.638934 7.1767412,0 c 1.106459,0 1.982427,0.373979 2.627911,1.121975 0.64545,0.736285 0.968179,1.823198 0.968179,3.260789 0,1.425825 -0.322729,2.512755 -0.968179,3.260788 -0.64544,0.747979 -1.521452,1.121976 -2.627911,1.121976 l -4.59496,0 z m 0,-6.416214 0,4.084584 3.426574,0 c 0.56348,0 1.024513,-0.16362 1.383101,-0.490856 0.358589,-0.338931 0.537868,-0.859007 0.537868,-1.560243 0,-0.689541 -0.179279,-1.197938 -0.537868,-1.525175 -0.348653,-0.338719 -0.809628,-0.508078 -1.383357,-0.508078 l -3.427002,0 z" />
  <path
     style="stroke-width:1pt;stroke:none;stroke-opacity:1;fill:#636363;fill-opacity:1"
     id="path25"
     d="m 42.247516,32.243832 -3.841991,0 c -0.594245,0 -1.07064,0.07596 -1.429198,0.227901 -0.17417,0.05842 -0.327839,0.128555 -0.461048,0.210362 -0.133167,0.08183 -0.261241,0.198684 -0.384185,0.350609 -0.338087,0.350609 -0.58398,0.783046 -0.737663,1.297274 l -0.09228,0.42074 -0.03081,0.473334 0,0.368148 6.977006,0 0,2.243921 -6.977006,0 0,5.697416 -2.581782,0 0,-6.819467 c 0,-0.596035 0.01542,-1.116126 0.04607,-1.560242 0.03081,-0.455807 0.08191,-0.853159 0.153682,-1.192091 0.215128,-1.121976 0.665925,-2.03944 1.352365,-2.752354 0.430282,-0.455806 0.952788,-0.788892 1.567575,-0.999254 0.614703,-0.210361 1.393324,-0.315559 2.335919,-0.315559 l 4.103232,0 0,2.349097 z m -22.067937,-2.349637 6.346901,0 c 1.608434,0 2.83277,0.58436 3.672864,1.753079 0.840106,1.168722 1.260156,2.857536 1.260156,5.066334 0,2.185446 -0.420063,3.868519 -1.260156,5.048862 -0.829858,1.180397 -2.054179,1.770604 -3.672864,1.770604 l -6.346615,0 0,-13.638934 z m 2.489529,11.307304 3.027385,0 c 1.004028,0 1.746812,-0.368151 2.228292,-1.104436 0.48152,-0.747976 0.72227,-1.875784 0.72227,-3.383436 0,-1.507652 -0.230501,-2.629702 -0.691549,-3.365968 -0.450782,-0.736284 -1.203806,-1.104436 -2.259041,-1.104436 l -3.027386,0 0,8.958206 z m -12.002615,-2.542169 0,4.873621 -2.5826373,0 0,-13.638935 7.1767423,0 c 1.106485,0 1.982428,0.373981 2.627908,1.121978 0.645441,0.736284 0.968166,1.823196 0.968166,3.260787 0,1.425825 -0.322725,2.512755 -0.968166,3.260787 -0.645453,0.747978 -1.52145,1.121975 -2.627908,1.121975 l -4.594675,0 z m 0,-6.416214 0,4.084586 3.426573,0 c 0.56348,0 1.024511,-0.163617 1.383101,-0.490856 0.358588,-0.338933 0.537868,-0.859008 0.537868,-1.560245 0,-0.689541 -0.17928,-1.197937 -0.537868,-1.525176 -0.348793,-0.338717 -0.809629,-0.508077 -1.383357,-0.508077 l -3.427,0 z" />
  <path
     d="M 24.023644,5.3276251 C 29.472995,5.3738642 17.69757,31.349717 13.218834,27.889291 9.3401175,22.629767 38.060511,17.184742 35.568384,20.553782 30.488375,26.413459 20.559662,5.3276251 24.023023,5.3276251 z"
     id="path27"
     style="fill:#ffffff;fill-rule:evenodd;stroke:#df421e;stroke-width:1.9888792" />
  <path
     d="m 11.418383,2.8968687 25.411236,0 c 3.907937,0 5.821553,1.912033 5.821553,5.8167104 0,0 -26.6088,0.3036639 -37.0535969,30.6309959 l 0,-30.6350879 c 0,-3.4500612 2.3686392,-5.8167103 5.8215539,-5.8167103 z"
     id="path29"
     style="fill:url(#linearGradient2824);fill-rule:evenodd" />
</svg>
