<?xml version="1.0" encoding="UTF-8" standalone="no"?>
<svg
   xmlns:dc="http://purl.org/dc/elements/1.1/"
   xmlns:cc="http://creativecommons.org/ns#"
   xmlns:rdf="http://www.w3.org/1999/02/22-rdf-syntax-ns#"
   xmlns:svg="http://www.w3.org/2000/svg"
   xmlns="http://www.w3.org/2000/svg"
   xmlns:xlink="http://www.w3.org/1999/xlink"
   xmlns:sodipodi="http://sodipodi.sourceforge.net/DTD/sodipodi-0.dtd"
   xmlns:inkscape="http://www.inkscape.org/namespaces/inkscape"
   height="48"
   width="48"
   version="1.1"
   id="svg2"
   inkscape:version="0.91 r13725"
   sodipodi:docname="delete_polygon.svg">
  <metadata
     id="metadata87">
    <rdf:RDF>
      <cc:Work
         rdf:about="">
        <dc:format>image/svg+xml</dc:format>
        <dc:type
           rdf:resource="http://purl.org/dc/dcmitype/StillImage" />
        <dc:title />
      </cc:Work>
    </rdf:RDF>
  </metadata>
  <sodipodi:namedview
     pagecolor="#ffffff"
     bordercolor="#666666"
     borderopacity="1"
     objecttolerance="10"
     gridtolerance="10"
     guidetolerance="10"
     inkscape:pageopacity="0"
     inkscape:pageshadow="2"
     inkscape:window-width="928"
     inkscape:window-height="1028"
     id="namedview85"
     showgrid="false"
     inkscape:zoom="7.0987676"
     inkscape:cx="23.351602"
     inkscape:cy="-0.89583159"
     inkscape:window-x="992"
     inkscape:window-y="24"
     inkscape:window-maximized="0"
     inkscape:current-layer="svg2" />
  <defs
     id="defs4">
    <linearGradient
       id="e"
       y2="48"
       gradientUnits="userSpaceOnUse"
       x2="69"
       gradientTransform="matrix(0,-1,1,0,84,98.4)"
       y1="48"
       x1="27">
      <stop
         stop-color="#c80000"
         offset="0"
         id="stop7" />
      <stop
         stop-color="#f3604d"
         offset="1"
         id="stop9" />
    </linearGradient>
    <filter
       id="d"
       height="1.2217"
       width="1.2406"
       color-interpolation-filters="sRGB"
       y="-.11086"
       x="-.12029">
      <feGaussianBlur
         stdDeviation="1.5551616"
         id="feGaussianBlur12" />
    </filter>
    <linearGradient
       id="a"
       y2="4.6406"
       gradientUnits="userSpaceOnUse"
       x2="6.0964"
       y1="8.6836"
       x1="8.9893">
      <stop
         stop-color="#ff7800"
         offset="0"
         id="stop15" />
      <stop
         stop-color="#fff"
         offset="1"
         id="stop17" />
    </linearGradient>
    <linearGradient
       inkscape:collect="always"
       xlink:href="#a"
       id="linearGradient2905"
       gradientUnits="userSpaceOnUse"
       x1="8.9893"
       y1="8.6836"
       x2="6.0964"
       y2="4.6406" />
    <linearGradient
       inkscape:collect="always"
       xlink:href="#a"
       id="linearGradient2907"
       gradientUnits="userSpaceOnUse"
       x1="8.9893"
       y1="8.6836"
       x2="6.0964"
       y2="4.6406" />
    <linearGradient
       inkscape:collect="always"
       xlink:href="#a"
       id="linearGradient2909"
       gradientUnits="userSpaceOnUse"
       x1="8.9893"
       y1="8.6836"
       x2="6.0964"
       y2="4.6406" />
    <linearGradient
       inkscape:collect="always"
       xlink:href="#a"
       id="linearGradient2911"
       gradientUnits="userSpaceOnUse"
       x1="8.9893"
       y1="8.6836"
       x2="6.0964"
       y2="4.6406" />
    <linearGradient
       inkscape:collect="always"
       xlink:href="#a"
       id="linearGradient2913"
       gradientUnits="userSpaceOnUse"
       x1="8.9893"
       y1="8.6836"
       x2="6.0964"
       y2="4.6406" />
    <linearGradient
       inkscape:collect="always"
       xlink:href="#a"
       id="linearGradient2916"
       gradientUnits="userSpaceOnUse"
       x1="8.9893"
       y1="8.6836"
       x2="6.0964"
       y2="4.6406"
       gradientTransform="matrix(1.2312,0,0,1.1055,17.705,31.537)" />
    <linearGradient
       inkscape:collect="always"
       xlink:href="#a"
       id="linearGradient2920"
       gradientUnits="userSpaceOnUse"
       x1="8.9893"
       y1="8.6836"
       x2="6.0964"
       y2="4.6406"
       gradientTransform="matrix(1.2312,0,0,1.1055,17.705,18.603)" />
    <linearGradient
       inkscape:collect="always"
       xlink:href="#a"
       id="linearGradient2924"
       gradientUnits="userSpaceOnUse"
       x1="8.9893"
       y1="8.6836"
       x2="6.0964"
       y2="4.6406"
       gradientTransform="matrix(1.2312,0,0,1.1055,9.395,9.648)" />
    <linearGradient
       inkscape:collect="always"
       xlink:href="#a"
       id="linearGradient2928"
       gradientUnits="userSpaceOnUse"
       x1="8.9893"
       y1="8.6836"
       x2="6.0964"
       y2="4.6406"
       gradientTransform="matrix(1.2312,0,0,1.1055,-2.806,35.356)" />
    <linearGradient
       inkscape:collect="always"
       xlink:href="#a"
       id="linearGradient2932"
       gradientUnits="userSpaceOnUse"
       x1="8.9893"
       y1="8.6836"
       x2="6.0964"
       y2="4.6406"
       gradientTransform="matrix(1.2312,0,0,1.1055,-4.457,9.648)" />
    <radialGradient
       id="radialGradient5050"
       gradientUnits="userSpaceOnUse"
       cy="20.493999"
       cx="35.292999"
       gradientTransform="matrix(0,-0.84302,1.0202,0,-4.8963249,41.059418)"
       r="16.955999">
      <stop
         stop-color="#73d216"
         offset="0"
         id="stop5052"
         style="stop-color:#ef0b0b;stop-opacity:1" />
      <stop
         stop-color="#4e9a06"
         offset="1"
         id="stop5054"
         style="stop-color:#f52727;stop-opacity:1" />
    </radialGradient>
    <radialGradient
       inkscape:collect="always"
       xlink:href="#radialGradient5050-3"
       id="radialGradient5048"
       gradientUnits="userSpaceOnUse"
       gradientTransform="matrix(0.33544035,0.33544035,0.39413145,-0.39413145,19.911706,959.26466)"
       cx="18.496571"
       cy="-18.924658"
       fx="18.496571"
       fy="-18.924658"
       r="16.955999" />
    <radialGradient
       id="radialGradient5050-3"
       gradientUnits="userSpaceOnUse"
       cy="20.493999"
       cx="35.292999"
       gradientTransform="matrix(0,-0.84302,1.0202,0,-4.8963249,41.059418)"
       r="16.955999">
      <stop
         stop-color="#73d216"
         offset="0"
         id="stop5052-6"
         style="stop-color:#ef0b0b;stop-opacity:1" />
      <stop
         stop-color="#4e9a06"
         offset="1"
         id="stop5054-7"
         style="stop-color:#f52727;stop-opacity:1" />
    </radialGradient>
    <radialGradient
       inkscape:collect="always"
       xlink:href="#radialGradient5050-3"
       id="radialGradient4313"
       gradientUnits="userSpaceOnUse"
       gradientTransform="matrix(0.33544035,0.33544035,0.39413145,-0.39413145,19.911706,959.26466)"
       cx="18.496571"
       cy="-18.924658"
       fx="18.496571"
       fy="-18.924658"
       r="16.955999" />
    <radialGradient
       id="radialGradient4315"
       gradientUnits="userSpaceOnUse"
       cy="20.493999"
       cx="35.292999"
       gradientTransform="matrix(0,-0.84302,1.0202,0,-4.8963249,41.059418)"
       r="16.955999">
      <stop
         stop-color="#73d216"
         offset="0"
         id="stop4317"
         style="stop-color:#ef0b0b;stop-opacity:1" />
      <stop
         stop-color="#4e9a06"
         offset="1"
         id="stop4319"
         style="stop-color:#f52727;stop-opacity:1" />
    </radialGradient>
    <radialGradient
       r="16.955999"
       fy="-18.924658"
       fx="18.496571"
       cy="-18.924658"
       cx="18.496571"
       gradientTransform="matrix(0.33544035,0.33544035,0.39413145,-0.39413145,19.911706,959.26466)"
       gradientUnits="userSpaceOnUse"
       id="radialGradient4324"
       xlink:href="#radialGradient5050-3"
       inkscape:collect="always" />
  </defs>
  <g
     transform="matrix(2.9379,0,0,2.1996,1.1578,13.241)"
     id="g19">
    <rect
       fill-opacity="0"
       height="16"
       width="16"
       y="0"
       x="0"
       id="rect21" />
  </g>
  <g
     style="opacity:0.59375;filter:url(#d)"
     id="g25"
     transform="translate(42.1913,-7.2778)">
    <path
       style="fill-rule:evenodd"
       id="path27"
       d="m -35.689,25.302 h 17.73 l 8.8649,9.9497 v 15.92 l -21.833,3.677 -1.4142,-3.5556 18.815,-4.1012 v -9.9497 l -6.6487,-7.9598 h -15.514 z" />
    <path
       id="path29"
       transform="matrix(1.97,0,0,1.7688,-49.725,15.352)"
       d="m 10.5,6.75 a 2.25,2.25 0 1 1 -4.5,0 2.25,2.25 0 1 1 4.5,0 z" />
    <path
       id="path31"
       transform="matrix(1.2312,0,0,1.1055,-43.631,19.83)"
       d="m 10.5,6.75 a 2.25,2.25 0 1 1 -4.5,0 2.25,2.25 0 1 1 4.5,0 z" />
    <path
       id="path33"
       transform="matrix(1.97,0,0,1.7688,-48.075,41.06)"
       d="m 10.5,6.75 a 2.25,2.25 0 1 1 -4.5,0 2.25,2.25 0 1 1 4.5,0 z" />
    <path
       id="path35"
       transform="matrix(1.2312,0,0,1.1055,-41.98,45.538)"
       d="m 10.5,6.75 a 2.25,2.25 0 1 1 -4.5,0 2.25,2.25 0 1 1 4.5,0 z" />
    <path
       id="path37"
       transform="matrix(1.97,0,0,1.7688,-35.874,15.352)"
       d="m 10.5,6.75 a 2.25,2.25 0 1 1 -4.5,0 2.25,2.25 0 1 1 4.5,0 z" />
    <path
       id="path39"
       transform="matrix(1.2312,0,0,1.1055,-29.779,19.83)"
       d="m 10.5,6.75 a 2.25,2.25 0 1 1 -4.5,0 2.25,2.25 0 1 1 4.5,0 z" />
    <path
       id="path41"
       transform="matrix(1.97,0,0,1.7688,-27.563,24.307)"
       d="m 10.5,6.75 a 2.25,2.25 0 1 1 -4.5,0 2.25,2.25 0 1 1 4.5,0 z" />
    <path
       id="path43"
       transform="matrix(1.2312,0,0,1.1055,-21.469,28.785)"
       d="m 10.5,6.75 a 2.25,2.25 0 1 1 -4.5,0 2.25,2.25 0 1 1 4.5,0 z" />
    <path
       id="path45"
       transform="matrix(1.97,0,0,1.7688,-27.563,37.242)"
       d="m 10.5,6.75 a 2.25,2.25 0 1 1 -4.5,0 2.25,2.25 0 1 1 4.5,0 z" />
    <path
       id="path47"
       transform="matrix(1.2312,0,0,1.1055,-21.469,41.719)"
       d="m 10.5,6.75 a 2.25,2.25 0 1 1 -4.5,0 2.25,2.25 0 1 1 4.5,0 z" />
  </g>
  <path
     style="fill:#2c2cff;fill-rule:evenodd;fill-opacity:1"
     id="path49"
     d="m 3.485,15.12 h 17.73 l 8.8649,9.9497 v 15.92 l -21.833,3.677 -1.4142,-3.5556 18.815,-4.1012 V 27.0602 L 18.999,19.1004 H 3.485 z" />
  <path
     id="path51"
     d="m 10.134,17.1094 a 4.4325,3.9798 0 0 1 -8.865,0 4.4325,3.9798 0 1 1 8.865,0 z" />
  <path
     style="fill:url(#linearGradient2932)"
     id="path53"
     d="m 8.4706,17.110125 a 2.7702,2.487375 0 0 1 -5.5404,0 2.7702,2.487375 0 1 1 5.5404,0 z" />
  <path
     id="path55"
     d="m 11.784,42.8174 a 4.4325,3.9798 0 0 1 -8.865,0 4.4325,3.9798 0 1 1 8.865,0 z" />
  <path
     style="fill:url(#linearGradient2928)"
     id="path57"
     d="m 10.1216,42.818125 a 2.7702,2.487375 0 0 1 -5.5404,0 2.7702,2.487375 0 1 1 5.5404,0 z" />
  <path
     id="path59"
     d="m 23.985,17.1094 a 4.4325,3.9798 0 0 1 -8.865,0 4.4325,3.9798 0 1 1 8.865,0 z" />
  <path
     style="fill:url(#linearGradient2924)"
     id="path61"
     d="m 22.3226,17.110125 a 2.7702,2.487375 0 0 1 -5.5404,0 2.7702,2.487375 0 1 1 5.5404,0 z" />
  <path
     id="path63"
     d="m 32.296,26.0644 a 4.4325,3.9798 0 0 1 -8.865,0 4.4325,3.9798 0 1 1 8.865,0 z" />
  <path
     style="fill:url(#linearGradient2920)"
     id="path65"
     d="m 30.6326,26.065125 a 2.7702,2.487375 0 0 1 -5.5404,0 2.7702,2.487375 0 1 1 5.5404,0 z" />
  <path
     id="path67"
     d="m 32.296,38.9994 a 4.4325,3.9798 0 0 1 -8.865,0 4.4325,3.9798 0 1 1 8.865,0 z" />
  <path
     style="fill:url(#linearGradient2916)"
     id="path69"
     d="m 30.6326,38.999125 a 2.7702,2.487375 0 0 1 -5.5404,0 2.7702,2.487375 0 1 1 5.5404,0 z" />
  <g
     transform="matrix(1.2022017,0,0,1.2022017,11.540931,-1156.1423)"
     id="g5102">
    <path
       inkscape:connector-curvature="0"
       id="path5100"
       d="m 24.145508,963.6874 -5.313766,5.31377 -5.313816,-5.31382 -4.1814755,4.18148 5.3138155,5.31381 -5.3137447,5.31375 4.1814407,4.18144 5.313745,-5.31375 5.313815,5.31382 4.181476,-4.18148 -5.313815,-5.31381 5.313766,-5.31377 -4.181441,-4.18144 z"
       style="color:#000000;clip-rule:nonzero;display:inline;overflow:visible;visibility:visible;opacity:1;isolation:auto;mix-blend-mode:normal;color-interpolation:sRGB;color-interpolation-filters:linearRGB;solid-color:#000000;solid-opacity:1;fill:url(#radialGradient4324);fill-opacity:1;fill-rule:evenodd;stroke:#ffffff;stroke-width:4;stroke-linecap:round;stroke-linejoin:round;stroke-miterlimit:10;stroke-dasharray:none;stroke-dashoffset:0;stroke-opacity:1;color-rendering:auto;image-rendering:auto;shape-rendering:auto;text-rendering:auto;enable-background:accumulate" />
    <path
       style="color:#000000;clip-rule:nonzero;display:inline;overflow:visible;visibility:visible;opacity:1;isolation:auto;mix-blend-mode:normal;color-interpolation:sRGB;color-interpolation-filters:linearRGB;solid-color:#000000;solid-opacity:1;fill:url(#radialGradient5048);fill-opacity:1;fill-rule:evenodd;stroke:#000000;stroke-width:1.72931588;stroke-linecap:round;stroke-linejoin:round;stroke-miterlimit:10;stroke-dasharray:none;stroke-dashoffset:0;stroke-opacity:1;color-rendering:auto;image-rendering:auto;shape-rendering:auto;text-rendering:auto;enable-background:accumulate"
       d="m 24.145508,963.6874 -5.313766,5.31377 -5.313816,-5.31382 -4.1814755,4.18148 5.3138155,5.31381 -5.3137447,5.31375 4.1814407,4.18144 5.313745,-5.31375 5.313815,5.31382 4.181476,-4.18148 -5.313815,-5.31381 5.313766,-5.31377 -4.181441,-4.18144 z"
       id="path5046"
       inkscape:connector-curvature="0" />
  </g>
</svg>
