<?xml version="1.0" encoding="UTF-8" standalone="no"?>
<svg
   xmlns:dc="http://purl.org/dc/elements/1.1/"
   xmlns:cc="http://creativecommons.org/ns#"
   xmlns:rdf="http://www.w3.org/1999/02/22-rdf-syntax-ns#"
   xmlns:svg="http://www.w3.org/2000/svg"
   xmlns="http://www.w3.org/2000/svg"
   xmlns:xlink="http://www.w3.org/1999/xlink"
   xmlns:sodipodi="http://sodipodi.sourceforge.net/DTD/sodipodi-0.dtd"
   xmlns:inkscape="http://www.inkscape.org/namespaces/inkscape"
   height="48"
   width="48"
   version="1.1"
   id="svg2"
   inkscape:version="0.47 r22583"
   sodipodi:docname="delete_rectangle.svg">
  <metadata
     id="metadata69">
    <rdf:RDF>
      <cc:Work
         rdf:about="">
        <dc:format>image/svg+xml</dc:format>
        <dc:type
           rdf:resource="http://purl.org/dc/dcmitype/StillImage" />
        <dc:title></dc:title>
      </cc:Work>
    </rdf:RDF>
  </metadata>
  <sodipodi:namedview
     pagecolor="#ffffff"
     bordercolor="#666666"
     borderopacity="1"
     objecttolerance="10"
     gridtolerance="10"
     guidetolerance="10"
     inkscape:pageopacity="0"
     inkscape:pageshadow="2"
     inkscape:window-width="1280"
     inkscape:window-height="949"
     id="namedview67"
     showgrid="false"
     inkscape:zoom="4.9166667"
     inkscape:cx="-12.610169"
     inkscape:cy="23.59322"
     inkscape:window-x="0"
     inkscape:window-y="25"
     inkscape:window-maximized="1"
     inkscape:current-layer="svg2" />
  <defs
     id="defs4">
    <linearGradient
       id="a"
       y2="4.6406"
       gradientUnits="userSpaceOnUse"
       x2="6.0964"
       y1="8.6836"
       x1="8.9893">
      <stop
         stop-color="#ff7800"
         offset="0"
         id="stop7" />
      <stop
         stop-color="#fff"
         offset="1"
         id="stop9" />
    </linearGradient>
    <filter
       id="d"
       color-interpolation-filters="sRGB">
      <feGaussianBlur
         stdDeviation="1.7161664"
         id="feGaussianBlur12" />
    </filter>
    <linearGradient
       id="e"
       y2="48"
       gradientUnits="userSpaceOnUse"
       x2="69"
       gradientTransform="matrix(0,-1,1,0,84,98.4)"
       y1="48"
       x1="27">
      <stop
         stop-color="#c80000"
         offset="0"
         id="stop15" />
      <stop
         stop-color="#f3604d"
         offset="1"
         id="stop17" />
    </linearGradient>
    <linearGradient
       inkscape:collect="always"
       xlink:href="#a"
       id="linearGradient2881"
       gradientUnits="userSpaceOnUse"
       x1="8.9893"
       y1="8.6836"
       x2="6.0964"
       y2="4.6406" />
    <linearGradient
       inkscape:collect="always"
       xlink:href="#a"
       id="linearGradient2883"
       gradientUnits="userSpaceOnUse"
       x1="8.9893"
       y1="8.6836"
       x2="6.0964"
       y2="4.6406" />
    <linearGradient
       inkscape:collect="always"
       xlink:href="#a"
       id="linearGradient2886"
       gradientUnits="userSpaceOnUse"
       x1="8.9893"
       y1="8.6836"
       x2="6.0964"
       y2="4.6406"
       gradientTransform="matrix(1.2986056,0,0,1.1744153,20.27264,31.554489)" />
    <linearGradient
       inkscape:collect="always"
       xlink:href="#a"
       id="linearGradient2890"
       gradientUnits="userSpaceOnUse"
       x1="8.9893"
       y1="8.6836"
       x2="6.0964"
       y2="4.6406"
       gradientTransform="matrix(1.2986056,0,0,1.1744153,-5.441994,8.3008414)" />
  </defs>
  <g
     style="opacity:0.60938003;filter:url(#d)"
     id="g21"
     transform="matrix(0.71921,0,0,0.70173,-60.389638,-12.981226)">
    <path
       id="path23"
       d="m 96.125,43.619 -3.25,3.0125 v 33.138 l 3.25,3.0125 h 35.75 l 3.25,-3.0125 v -33.138 l -3.25,-3.0125 h -35.75 z m 3.25,6.025 h 29.25 V 76.757 H 99.39 V 49.644 z" />
    <path
       id="path25"
       transform="matrix(2.8889,0,0,2.6778,72.292,28.556)"
       d="m 10.5,6.75 a 2.25,2.25 0 1 1 -4.5,0 2.25,2.25 0 1 1 4.5,0 z" />
    <path
       id="path27"
       transform="matrix(1.8056,0,0,1.6736,81.229,35.334)"
       d="m 10.5,6.75 a 2.25,2.25 0 1 1 -4.5,0 2.25,2.25 0 1 1 4.5,0 z" />
    <path
       id="path29"
       transform="matrix(2.8889,0,0,2.6778,108.04,61.694)"
       d="m 10.5,6.75 a 2.25,2.25 0 1 1 -4.5,0 2.25,2.25 0 1 1 4.5,0 z" />
    <path
       id="path31"
       transform="matrix(1.8056,0,0,1.6736,116.98,68.472)"
       d="m 10.5,6.75 a 2.25,2.25 0 1 1 -4.5,0 2.25,2.25 0 1 1 4.5,0 z" />
  </g>
  <path
     style="fill:#2c2cff;fill-opacity:1"
     id="path33"
     d="m 5.274235,14.113973 -2.3374325,2.113961 0,23.253929 2.3374325,2.113962 25.711757,0 2.337433,-2.113962 0,-23.253929 -2.337433,-2.113961 -25.711757,0 z m 2.3374325,4.227923 21.0368925,0 0,19.026006 -21.0368925,0 0,-19.026006 z" />
  <path
     id="path35"
     d="m 9.9515819,16.228391 a 4.674883,4.2279583 0 0 1 -9.3497661,0 4.674883,4.2279583 0 1 1 9.3497661,0 z" />
  <path
     style="fill:url(#linearGradient2890)"
     id="path37"
     d="m 8.1933648,16.228145 a 2.9218626,2.6424344 0 0 1 -5.8437252,0 2.9218626,2.6424344 0 1 1 5.8437252,0 z" />
  <path
     id="path39"
     d="m 35.661182,39.481961 a 4.6748831,4.2279584 0 0 1 -9.349766,0 4.6748831,4.2279584 0 1 1 9.349766,0 z" />
  <path
     style="fill:url(#linearGradient2886)"
     id="path41"
     d="m 33.907999,39.481792 a 2.9218626,2.6424344 0 0 1 -5.843725,0 2.9218626,2.6424344 0 1 1 5.843725,0 z" />
  <g
     transform="matrix(2.4566,0,0,2.2316,-37.589,-39.022)"
     id="g43">
    <rect
       fill-opacity="0"
       height="16"
       width="16"
       y="0"
       x="0"
       id="rect45" />
  </g>
  <g
     transform="matrix(2.5347 0 0 1.9535 .69206 16.016)"
     id="g47">
    <rect
       fill-opacity="0"
       height="16"
       width="16"
       y="0"
       x="0"
       id="rect49" />
  </g>
  <rect
     fill-opacity="0"
     height="38.871"
     width="43.287"
     y="-47.036"
     x="-74.787"
     id="rect51" />
  <g
     transform="matrix(.59887 0 0 .59597 -44.25 -17.223)"
     id="g53">
    <path
       opacity=".1"
       d="m143.47 28.369a0.98823 0.98823 0 0 0 0 0.03125c-0.0003 0.000032-0.1872-0.000059-0.1875 0s-0.15596 0.06241-0.15625 0.0625c-0.00029 0.000086-0.18722 0.06239-0.1875 0.0625-0.00028 0.000111-0.15598 0.06236-0.15625 0.0625-0.00027 0.000136-0.15599 0.09359-0.15625 0.09375s-0.15601 0.09357-0.15625 0.09375c-0.00024 0.000182-0.12477 0.09355-0.125 0.09375-0.0002 0.000178-0.0694 0.10112-0.0937 0.125-0.004 0.0034-0.0312-0.000028-0.0312 0l-10.22 10.25-10.25-10.25c-0.00014-0.000139-0.0623-0.09362-0.0625-0.09375-0.00015-0.00013-0.0936-0.06238-0.0937-0.0625-0.00015-0.000122-0.0936-0.06239-0.0937-0.0625-0.00016-0.000113-0.0936-0.0624-0.0937-0.0625-0.00017-0.000103-0.0936-0.06241-0.0937-0.0625-0.00017-0.000093-0.12482-0.06242-0.125-0.0625-0.00018-0.000083-0.0936-0.03118-0.0937-0.03125-0.00018-0.000073-0.0936-0.06244-0.0937-0.0625-0.00019-0.000062-0.12481-0.0312-0.125-0.03125-0.00019-0.000051-0.12481-0.03121-0.125-0.03125s-0.0936 0.000029-0.0937 0c-0.00019-0.000029-0.1248-0.03123-0.125-0.03125-0.0002-0.000018-0.0935 0.000007-0.0937 0s-0.1248-0.000005-0.125 0-0.1248-0.000016-0.125 0c-0.00014 0.000011-0.029 0.02752-0.0625 0.03125-0.0143 0.0016-0.0312-0.000008-0.0312 0-0.0382 0.0057-0.15602-0.000045-0.15625 0-0.00028 0.000054-0.15597 0.06242-0.15625 0.0625-0.00028 0.000077-0.15598 0.03115-0.15625 0.03125s-0.15599 0.06238-0.15625 0.0625c-0.00026 0.000122-0.156 0.09361-0.15625 0.09375-0.00025 0.000143-0.12477 0.09359-0.125 0.09375-0.00023 0.000164-0.12478 0.09357-0.125 0.09375-0.00022 0.000183-0.1248 0.09355-0.125 0.09375a0.98823 0.98823 0 0 0 0 0.03125l-9.3438 9.3125v0.03125c-0.0191 0.01939-0.0624 0.0624-0.0625 0.0625-0.00012 0.000125-0.0624 0.06237-0.0625 0.0625-0.00011 0.00013-0.0624 0.06236-0.0625 0.0625-0.0001 0.000136-0.0624 0.09361-0.0625 0.09375-0.0001 0.000141-0.0624 0.0936-0.0625 0.09375-0.00009 0.000146-0.0624 0.06235-0.0625 0.0625-0.00008 0.00015-0.0312 0.0936-0.0312 0.09375-0.00007 0.000154-0.0312 0.09359-0.0312 0.09375-0.00007 0.000157-0.0624 0.09359-0.0625 0.09375-0.00006 0.000161-0.0312 0.09359-0.0312 0.09375-0.00005 0.000163 0.00004 0.09358 0 0.09375-0.00004 0.000166-0.0312 0.09358-0.0312 0.09375-0.00003 0.000168-0.0312 0.09358-0.0312 0.09375-0.00003 0.000169 0.00002 0.12483 0 0.125s0.00001 0.09358 0 0.09375c-0.00001 0.000171 0 0.09358 0 0.09375 0 0.000171-0.00001 0.09358 0 0.09375 0.00001 0.000171-0.00002 0.09358 0 0.09375s-0.00003 0.12483 0 0.125c0.00003 0.000169 0.0312 0.09358 0.0312 0.09375 0.00003 0.000168 0.0312 0.09358 0.0312 0.09375 0.00004 0.000166-0.00005 0.09359 0 0.09375 0.00005 0.000163 0.0312 0.09359 0.0312 0.09375 0.00006 0.000161 0.0624 0.09359 0.0625 0.09375 0.00007 0.000157 0.0312 0.0936 0.0312 0.09375 0.00007 0.000154 0.0312 0.0936 0.0312 0.09375 0.00008 0.00015 0.0624 0.06235 0.0625 0.0625 0.00009 0.000146 0.0624 0.09361 0.0625 0.09375 0.0001 0.000141 0.0624 0.09361 0.0625 0.09375 0.0001 0.000136 0.0624 0.06237 0.0625 0.0625 0.00011 0.00013 0.0624 0.06238 0.0625 0.0625 0.00009 0.000096 0.0434 0.04311 0.0625 0.0625 0.006 0.0058-0.00003 0.03122 0 0.03125l10.25 10.219-10.25 10.219v0.03125c-0.0191 0.01939-0.0624 0.0624-0.0625 0.0625-0.00012 0.000125-0.0624 0.06237-0.0625 0.0625-0.00011 0.00013-0.0624 0.06236-0.0625 0.0625-0.0001 0.000136-0.0624 0.09361-0.0625 0.09375-0.0001 0.000141-0.0624 0.0936-0.0625 0.09375-0.00009 0.000146-0.0624 0.06235-0.0625 0.0625-0.00008 0.00015-0.0312 0.0936-0.0312 0.09375-0.00007 0.000154-0.0312 0.09359-0.0312 0.09375-0.00007 0.000157-0.0624 0.09359-0.0625 0.09375-0.00006 0.000161-0.0312 0.09359-0.0312 0.09375-0.00005 0.000163 0.00004 0.09358 0 0.09375-0.00004 0.000166-0.0312 0.09358-0.0312 0.09375-0.00003 0.000168-0.0312 0.09358-0.0312 0.09375-0.00003 0.000169 0.00002 0.12483 0 0.125s0.00001 0.09358 0 0.09375c-0.00001 0.000171 0 0.09358 0 0.09375 0 0.000171-0.00001 0.09358 0 0.09375 0.00001 0.000171-0.00002 0.09358 0 0.09375s-0.00003 0.12483 0 0.125c0.00003 0.000169 0.0312 0.09358 0.0312 0.09375 0.00003 0.000168 0.0312 0.09358 0.0312 0.09375 0.00004 0.000166-0.00005 0.09359 0 0.09375 0.00005 0.000163 0.0312 0.09359 0.0312 0.09375 0.00006 0.000161 0.0624 0.09359 0.0625 0.09375 0.00007 0.000157 0.0312 0.0936 0.0312 0.09375 0.00007 0.000154 0.0312 0.0936 0.0312 0.09375 0.00008 0.00015 0.0624 0.06235 0.0625 0.0625 0.00009 0.000146 0.0624 0.09361 0.0625 0.09375 0.0001 0.000141 0.0624 0.09361 0.0625 0.09375 0.0001 0.000136 0.0624 0.06237 0.0625 0.0625 0.00011 0.00013 0.0624 0.06238 0.0625 0.0625 0.00009 0.000096 0.0434 0.04311 0.0625 0.0625 0.006 0.0058-0.00003 0.03122 0 0.03125l9.3438 9.3125c0.0194 0.01913 0.0624 0.06241 0.0625 0.0625 0.00012 0.000117 0.0624 0.06239 0.0625 0.0625 0.00013 0.000111 0.0624 0.0624 0.0625 0.0625 0.00014 0.000104 0.0936 0.0624 0.0937 0.0625 0.00014 0.000097 0.0936 0.06241 0.0937 0.0625 0.00015 0.00009 0.0623 0.06242 0.0625 0.0625 0.00015 0.000082 0.0936 0.03118 0.0937 0.03125 0.00015 0.000075 0.0936 0.03118 0.0937 0.03125 0.00016 0.000067 0.0936 0.06244 0.0937 0.0625 0.00016 0.000059 0.0936 0.0312 0.0937 0.03125 0.00016 0.000051 0.0936-0.000043 0.0937 0 0.00017 0.000043 0.0936 0.03122 0.0937 0.03125 0.00017 0.000034 0.0936 0.03122 0.0937 0.03125 0.00017 0.000026 0.12483-0.000017 0.125 0s0.0936-0.000009 0.0937 0c0.00017 0.000009 0.0936 0 0.0937 0 0.00017 0 0.0936 0.000009 0.0937 0 0.00017-0.000009 0.0936 0.000017 0.0937 0 0.00017-0.000017 0.12483 0.000026 0.125 0s0.0936-0.03122 0.0937-0.03125c0.00017-0.000034 0.0936-0.03121 0.0937-0.03125 0.00017-0.000043 0.0936 0.000051 0.0937 0 0.00016-0.000051 0.0936-0.03119 0.0937-0.03125 0.00016-0.000059 0.0936-0.06243 0.0937-0.0625 0.00016-0.000067 0.0936-0.03118 0.0937-0.03125 0.00015-0.000075 0.0936-0.03117 0.0937-0.03125 0.00015-0.000082 0.0623-0.06241 0.0625-0.0625 0.00015-0.00009 0.0936-0.0624 0.0937-0.0625 0.00014-0.000097 0.0936-0.0624 0.0937-0.0625 0.00014-0.000104 0.0624-0.06239 0.0625-0.0625 0.00013-0.000111 0.0624-0.06238 0.0625-0.0625 0.0001-0.00009 0.0431-0.04337 0.0625-0.0625h0.0312l10.219-10.25 10.25 10.25c0.0194 0.01913 0.0624 0.06241 0.0625 0.0625 0.00012 0.000117 0.0624 0.06239 0.0625 0.0625 0.00013 0.000111 0.0624 0.0624 0.0625 0.0625 0.00014 0.000104 0.0936 0.0624 0.0937 0.0625 0.00014 0.000097 0.0936 0.06241 0.0937 0.0625 0.00015 0.00009 0.0624 0.06242 0.0625 0.0625 0.00015 0.000082 0.0936 0.03118 0.0937 0.03125 0.00015 0.000075 0.0936 0.03118 0.0937 0.03125 0.00016 0.000067 0.0936 0.06244 0.0937 0.0625 0.00016 0.000059 0.0936 0.0312 0.0937 0.03125 0.00016 0.000051 0.0936-0.000043 0.0937 0 0.00017 0.000043 0.0936 0.03122 0.0937 0.03125 0.00017 0.000034 0.0936 0.03122 0.0937 0.03125 0.00017 0.000026 0.12483-0.000017 0.125 0s0.0936-0.000009 0.0937 0c0.00017 0.000009 0.0936 0 0.0937 0 0.00017 0 0.0936 0.000009 0.0937 0 0.00017-0.000009 0.0936 0.000017 0.0937 0 0.00017-0.000017 0.12483 0.000026 0.125 0s0.0936-0.03122 0.0937-0.03125c0.00017-0.000034 0.0936-0.03121 0.0937-0.03125 0.00017-0.000043 0.0936 0.000051 0.0937 0 0.00016-0.000051 0.0936-0.03119 0.0937-0.03125 0.00016-0.000059 0.0936-0.06243 0.0937-0.0625 0.00016-0.000067 0.0936-0.03118 0.0937-0.03125 0.00015-0.000075 0.0936-0.03117 0.0937-0.03125 0.00015-0.000082 0.0624-0.06241 0.0625-0.0625 0.00015-0.00009 0.0936-0.0624 0.0937-0.0625 0.00014-0.000097 0.0936-0.0624 0.0937-0.0625 0.00014-0.000104 0.0624-0.06239 0.0625-0.0625 0.00013-0.000111 0.0624-0.06238 0.0625-0.0625 0.0001-0.00009 0.0431-0.04337 0.0625-0.0625h0.0312l9.3125-9.3125v-0.03125c0.0191-0.01939 0.0624-0.0624 0.0625-0.0625 0.00012-0.000125 0.0624-0.06237 0.0625-0.0625 0.00011-0.00013 0.0624-0.06236 0.0625-0.0625 0.0001-0.000136 0.0624-0.09361 0.0625-0.09375 0.0001-0.000141 0.0624-0.0936 0.0625-0.09375 0.00009-0.000146 0.0624-0.06235 0.0625-0.0625 0.00008-0.00015 0.0312-0.0936 0.0312-0.09375 0.00007-0.000154 0.0312-0.09359 0.0312-0.09375 0.00007-0.000157 0.0624-0.09359 0.0625-0.09375 0.00006-0.000161 0.0312-0.09359 0.0312-0.09375 0.00005-0.000163-0.00004-0.09358 0-0.09375 0.00004-0.000166 0.0312-0.09358 0.0312-0.09375 0.00003-0.000168 0.0312-0.09358 0.0312-0.09375 0.00003-0.000169-0.00002-0.12483 0-0.125s-0.00001-0.09358 0-0.09375c0.00001-0.000171 0-0.09358 0-0.09375 0-0.000171 0.00001-0.09358 0-0.09375-0.00001-0.000171 0.00002-0.09358 0-0.09375s0.00003-0.12483 0-0.125c-0.00003-0.000169-0.0312-0.09358-0.0312-0.09375-0.00003-0.000168-0.0312-0.09358-0.0312-0.09375-0.00004-0.000166 0.00005-0.09359 0-0.09375-0.00005-0.000163-0.0312-0.09359-0.0312-0.09375-0.00006-0.000161-0.0624-0.09359-0.0625-0.09375-0.00007-0.000157-0.0312-0.0936-0.0312-0.09375-0.00007-0.000154-0.0312-0.0936-0.0312-0.09375-0.00008-0.00015-0.0624-0.06235-0.0625-0.0625-0.00009-0.000146-0.0624-0.09361-0.0625-0.09375-0.0001-0.000141-0.0624-0.09361-0.0625-0.09375-0.0001-0.000136-0.0624-0.06237-0.0625-0.0625-0.00011-0.00013-0.0624-0.06238-0.0625-0.0625-0.00009-0.000096-0.0434-0.04311-0.0625-0.0625l-10.25-10.25 10.25-10.25c0.0191-0.01939 0.0624-0.0624 0.0625-0.0625 0.00012-0.000125 0.0624-0.06237 0.0625-0.0625 0.00011-0.00013 0.0624-0.06236 0.0625-0.0625 0.0001-0.000136 0.0624-0.09361 0.0625-0.09375 0.0001-0.000141 0.0624-0.0936 0.0625-0.09375 0.00009-0.000146 0.0624-0.06235 0.0625-0.0625 0.00008-0.00015 0.0312-0.0936 0.0312-0.09375 0.00007-0.000154 0.0312-0.09359 0.0312-0.09375 0.00007-0.000157 0.0624-0.09359 0.0625-0.09375 0.00006-0.000161 0.0312-0.09359 0.0312-0.09375 0.00005-0.000163-0.00004-0.09358 0-0.09375 0.00004-0.000166 0.0312-0.09358 0.0312-0.09375 0.00003-0.000168 0.0312-0.09358 0.0312-0.09375 0.00003-0.000169-0.00002-0.12483 0-0.125s-0.00001-0.09358 0-0.09375c0.00001-0.000171 0-0.09358 0-0.09375 0-0.000171 0.00001-0.09358 0-0.09375-0.00001-0.000171 0.00002-0.09358 0-0.09375s0.00003-0.12483 0-0.125c-0.00003-0.000169-0.0312-0.09358-0.0312-0.09375-0.00003-0.000168-0.0312-0.09358-0.0312-0.09375-0.00004-0.000166 0.00005-0.09359 0-0.09375-0.00005-0.000163-0.0312-0.09359-0.0312-0.09375-0.00006-0.000161-0.0624-0.09359-0.0625-0.09375-0.00007-0.000157-0.0312-0.0936-0.0312-0.09375-0.00007-0.000154-0.0312-0.0936-0.0312-0.09375-0.00008-0.00015-0.0624-0.06235-0.0625-0.0625-0.00009-0.000146-0.0624-0.09361-0.0625-0.09375-0.0001-0.000141-0.0624-0.09361-0.0625-0.09375-0.0001-0.000136-0.0624-0.06237-0.0625-0.0625-0.00011-0.00013-0.0624-0.06238-0.0625-0.0625-0.00009-0.000096-0.0434-0.04311-0.0625-0.0625l-9.3125-9.3438c-0.00003-0.000035-0.0239 0.0075-0.0312 0-0.0222-0.02237-0.0311-0.0624-0.0312-0.0625-0.00014-0.000133-0.0936-0.09362-0.0937-0.09375-0.00015-0.000125-0.0936-0.06238-0.0937-0.0625-0.00015-0.000116-0.0936-0.06239-0.0937-0.0625-0.00016-0.000107-0.0936-0.0624-0.0937-0.0625-0.00017-0.000098-0.0936-0.06241-0.0937-0.0625-0.00017-0.000089-0.0936-0.03117-0.0937-0.03125-0.00018-0.000079-0.12482-0.03118-0.125-0.03125-0.00018-0.000069-0.0936-0.06244-0.0937-0.0625-0.00018-0.000059-0.0936-0.0312-0.0937-0.03125-0.00019-0.000048-0.12481 0.000038-0.125 0s-0.0936-0.03122-0.0937-0.03125c-0.00019-0.000027-0.12481-0.03123-0.125-0.03125-0.00019-0.000016-0.0936 0.000006-0.0937 0-0.00019-0.000006-0.12481-0.000005-0.125 0s-0.12481-0.000016-0.125 0z"
       id="path55" />
    <path
       opacity=".15"
       d="m120.22 29.4a0.99834 0.99834 0 0 0 -0.59375 0.28125l-9.3438 9.3438a0.99834 0.99834 0 0 0 0 1.4375l10.938 10.938-10.938 10.938a0.99834 0.99834 0 0 0 0 1.4375l9.3438 9.3438a0.99834 0.99834 0 0 0 1.4375 0l10.93-10.939 10.938 10.938a0.99834 0.99834 0 0 0 1.4375 0l9.3438-9.3438a0.99834 0.99834 0 0 0 0 -1.4375l-10.94-10.938 10.94-10.938a0.99834 0.99834 0 0 0 0 -1.4375l-9.34-9.343a0.99834 0.99834 0 0 0 -1.4375 0l-10.94 10.938-10.94-10.938a0.99834 0.99834 0 0 0 -0.84 -0.281z"
       id="path57" />
    <path
       opacity=".3"
       d="m111 63.067 9.33 9.333 11.67-11.667 11.67 11.667 9.33-9.333-11.67-11.667 11.67-11.667-9.33-9.333-11.67 11.667-11.67-11.667-9.33 9.333 11.67 11.667-11.67 11.667z"
       id="path59" />
    <path
       fill="url(#e)"
       d="m111 62.067 9.33 9.333 11.67-11.667 11.67 11.667 9.33-9.333-11.67-11.667 11.67-11.667-9.33-9.333-11.67 11.667-11.67-11.667-9.33 9.333 11.67 11.667-11.67 11.667z"
       id="path61" />
    <path
       opacity=".3"
       fill="#fff"
       d="m120.34 29.4-9.34 9.344 0.5 0.5l8.84-8.844 11.66 11.656 11.66-11.656 8.84 8.844 0.5-0.5-9.34-9.344-11.66 11.656-11.66-11.656zm1.8125 21.5-11.15 11.156 0.5 0.5 11.156-11.156-0.5-0.5zm19.688 0-0.5 0.5 11.156 11.156 0.5-0.5-11.16-11.156z"
       id="path63" />
    <path
       opacity=".1"
       d="m111.5 38.244-0.5 0.5 11.156 11.156 0.5-0.5-11.16-11.156zm41 0-11.156 11.156 0.5 0.5 11.16-11.156-0.5-0.5zm-20.5 20.5-11.66 11.656-8.84-8.844-0.5 0.5 9.34 9.344 11.66-11.656 11.66 11.656 9.34-9.344-0.5-0.5-8.84 8.844-11.66-11.656z"
       id="path65" />
  </g>
</svg>
