<svg xmlns="http://www.w3.org/2000/svg" height="48" width="48" version="1.1" xmlns:xlink="http://www.w3.org/1999/xlink">
 <defs>
  <linearGradient id="q" y2="48" gradientUnits="userSpaceOnUse" x2="69" gradientTransform="matrix(0,-1,1,0,84,98.4)" y1="48" x1="27">
   <stop stop-color="#c80000" offset="0"/>
   <stop stop-color="#f3604d" offset="1"/>
  </linearGradient>
  <radialGradient id="o" xlink:href="#m" gradientUnits="userSpaceOnUse" cy="43.5" cx="4.993" gradientTransform="matrix(2.0038,0,0,1.4,27.988,-17.4)" r="2.5"/>
  <linearGradient id="m">
   <stop offset="0"/>
   <stop stop-opacity="0" offset="1"/>
  </linearGradient>
  <radialGradient id="p" xlink:href="#m" gradientUnits="userSpaceOnUse" cy="43.5" cx="4.993" gradientTransform="matrix(2.0038,0,0,1.4,-20.012,-104.4)" r="2.5"/>
  <linearGradient id="n" y2="39.999" gradientUnits="userSpaceOnUse" x2="25.058" y1="47.028" x1="25.058">
   <stop stop-opacity="0" offset="0"/>
   <stop offset=".5"/>
   <stop stop-opacity="0" offset="1"/>
  </linearGradient>
  <radialGradient id="x" gradientUnits="userSpaceOnUse" cy="35.357" cx="-30.25" gradientTransform="matrix(3.9957 0 0 1.935 .62141 28.833)" r="18">
   <stop stop-color="#f6f6f5" offset="0"/>
   <stop stop-color="#d3d7cf" offset="1"/>
  </radialGradient>
  <linearGradient id="t" y2="-22.502" gradientUnits="userSpaceOnUse" x2="-62.75" gradientTransform="translate(-90,60)" y1="49.021" x1="-47.5">
   <stop stop-color="#888a85" offset="0"/>
   <stop stop-color="#babdb6" offset="1"/>
  </linearGradient>
  <radialGradient id="v" gradientUnits="userSpaceOnUse" cy="5.3" cx="4" gradientTransform="matrix(1.886,0,0,1.1765,-3.5441,-4.2353)" r="17">
   <stop stop-color="#fff" offset="0"/>
   <stop stop-color="#fff" stop-opacity="0" offset="1"/>
  </radialGradient>
  <linearGradient id="u" y2="67.799" gradientUnits="userSpaceOnUse" x2="61.181" gradientTransform="translate(-180)" y1="70.752" x1="58.282">
   <stop offset="0"/>
   <stop stop-opacity="0" offset="1"/>
  </linearGradient>
  <radialGradient id="w" gradientUnits="userSpaceOnUse" cy="10.108" cx="-26.305" gradientTransform="matrix(.40734 -.27983 .75103 1.0932 -115.18 51.562)" r="7.0421">
   <stop stop-color="#fff" offset="0"/>
   <stop stop-color="#fff" offset=".47534"/>
   <stop stop-color="#fff" stop-opacity="0" offset="1"/>
  </radialGradient>
  <linearGradient id="s" y2="14.07" gradientUnits="userSpaceOnUse" x2="-28.789" gradientTransform="matrix(.92231 0 0 .91858 -92.447 61.326)" y1="11.053" x1="-18.589">
   <stop stop-opacity=".41296" offset="0"/>
   <stop stop-opacity="0" offset="1"/>
  </linearGradient>
  <linearGradient id="r" y2="9.6875" gradientUnits="userSpaceOnUse" x2="-24.75" y1="11.566" x1="-26.754">
   <stop stop-color="#fff" offset="0"/>
   <stop stop-color="#fff" stop-opacity="0" offset="1"/>
  </linearGradient>
 </defs>
 <g transform="matrix(-1.0158 0 0 .96831 -104.73 -56.743)">
  <rect opacity="0" height="48" width="48" y="60" x="-150"/>
  <g opacity=".65587" transform="matrix(1.0464 0 0 .88889 -151.19 65.722)">
   <g opacity=".4" transform="matrix(1.0526,0,0,1.2857,-1.2632,-13.429)">
    <rect height="7" width="5" y="40" x="38" fill="url(#o)"/>
    <rect transform="scale(-1)" height="7" width="5" y="-47" x="-10" fill="url(#p)"/>
    <rect height="7" width="28" y="40" x="10" fill="url(#n)"/>
   </g>
  </g>
  <g transform="matrix(.95485 0 0 .55556 -148.99 79.889)">
   <g opacity=".4" transform="matrix(1.0526,0,0,1.2857,-1.2632,-13.429)">
    <rect height="7" width="5" y="40" x="38" fill="url(#o)"/>
    <rect transform="scale(-1)" height="7" width="5" y="-47" x="-10" fill="url(#p)"/>
    <rect height="7" width="28" y="40" x="10" fill="url(#n)"/>
   </g>
  </g>
  <path fill="url(#x)" d="m-141.48 63.5h18.976c3.877 0.07294 6.5 2.5 9 5s4.6077 5.2526 5 9v24.976c0 1.1212-0.90264 2.0239-2.0238 2.0239h-30.952c-1.1212 0-2.0239-0.90264-2.0239-2.0239v-36.96c0-1.1212 0.90264-2.0239 2.0239-2.0239z" stroke="url(#t)"/>
  <path opacity=".68016" d="m8.5312 4c-0.8581 0-1.5312 0.6731-1.5312 1.5312v36.938c0 0.858 0.6731 1.531 1.5312 1.531h30.938c0.858 0 1.531-0.673 1.531-1.531v-24.969c0-1.392-0.48698-4.2995-2.3438-6.1562l-5-5c-1.857-1.857-4.764-2.344-6.156-2.344h-18.969z" transform="translate(-150,60)" fill="url(#v)"/>
  <path opacity=".15" d="m-138.59 69.125c-0.21868 0-0.40625 0.18756-0.40625 0.40625 0 0.21868 0.18757 0.40625 0.40625 0.40625h21.188c0.21868 0 0.40625-0.18757 0.40625-0.40625s-0.18757-0.40625-0.40625-0.40625h-21.188zm0.0625 1.9375c-0.25969 0-0.46875 0.20906-0.46875 0.46875s0.20906 0.46875 0.46875 0.46875h22.062c0.25969 0 0.46875-0.20906 0.46875-0.46875s-0.20906-0.46875-0.46875-0.46875h-22.062zm0 2c-0.25969 0-0.46875 0.20906-0.46875 0.46875s0.20906 0.46875 0.46875 0.46875h25.188c0.25969 0 0.46875-0.20906 0.46875-0.46875s-0.20906-0.46875-0.46875-0.46875h-25.188zm0 2c-0.25969 0-0.46875 0.20906-0.46875 0.46875s0.20906 0.46875 0.46875 0.46875h25.188c0.25969 0 0.46875-0.20906 0.46875-0.46875s-0.20906-0.46875-0.46875-0.46875h-25.188zm0 2c-0.25969 0-0.46875 0.20906-0.46875 0.46875s0.20906 0.46875 0.46875 0.46875h25.188c0.25969 0 0.46875-0.20906 0.46875-0.46875s-0.20906-0.46875-0.46875-0.46875h-25.188z" fill-rule="evenodd" fill="url(#u)"/>
  <path fill="url(#w)" d="m-122.5 64c-1.3889 0-0.0421 0.49709 1.3438 1.125 1.3858 0.62791 4.9729 3.2151 4.1562 6.875 4.3233-0.43058 6.6791 3.1224 7 4.2812 0.32087 1.1589 1 2.6076 1 1.2188 0.0283-3.8056-2.8454-6.4317-4.8438-8.6562-2-2.225-5.01-4.367-8.66-4.844z"/>
  <path opacity=".87854" fill="url(#s)" d="m-121.4 65.014c0.9223 0 3.0084 6.1957 2.0861 10.329 4.295-0.42776 8.8534 0.08818 9.313 0.93765-0.32087-1.1589-2.6767-4.7118-7-4.2812 0.86466-3.8752-3.1866-6.6173-4.3991-6.9856z"/>
  <path d="m-51.469 4.5c-0.583 0-1.031 0.4481-1.031 1.0312v36.938c0 0.58316 0.44809 1.0312 1.0312 1.0312h30.938c0.58316 0 1.0312-0.44809 1.0312-1.0312v-24.969c0-1.279-0.48047-4.1055-2.1875-5.8125l-5-5c-1.707-1.7075-4.533-2.188-5.812-2.188h-18.969z" transform="translate(-90,60)" stroke="url(#r)" fill="none"/>
  <g opacity=".15" fill-rule="evenodd" transform="matrix(.92889 0 0 1 -148.29 60)">
   <rect rx=".50464" ry=".46875" height=".9375" width="28.125" y="19.062" x="10"/>
   <rect rx=".50464" ry=".46875" height=".9375" width="28.125" y="21.062" x="10"/>
   <rect rx=".50464" ry=".46875" height=".9375" width="28.125" y="23.062" x="10"/>
   <rect rx=".50464" ry=".46875" height=".9375" width="28.125" y="25.062" x="10"/>
   <rect rx=".50464" ry=".46875" height=".9375" width="28.125" y="27.062" x="10"/>
   <rect rx=".50464" ry=".46875" height=".9375" width="28.125" y="29.062" x="10"/>
   <rect rx=".50464" ry=".46875" height=".9375" width="28.125" y="31.062" x="10"/>
   <rect rx=".50464" ry=".46875" height=".9375" width="28.125" y="33.062" x="10"/>
   <rect rx=".50464" ry=".46875" height=".9375" width="28.125" y="35.062" x="10"/>
   <rect rx="1.0052" ry=".46875" height=".9375" width="12.919" y="37.062" x="10"/>
  </g>
 </g>
 <g transform="matrix(2.9379,0,0,2.1996,1.1578,13.241)">
  <rect fill-opacity="0" height="16" width="16" y="0" x="0"/>
 </g>
 <g transform="matrix(.50971 0 0 .51916 -30.457 -14.098)">
  <path opacity=".1" d="m143.47 28.369a0.98823 0.98823 0 0 0 0 0.03125c-0.0003 0.000032-0.1872-0.000059-0.1875 0s-0.15596 0.06241-0.15625 0.0625c-0.00029 0.000086-0.18722 0.06239-0.1875 0.0625-0.00028 0.000111-0.15598 0.06236-0.15625 0.0625-0.00027 0.000136-0.15599 0.09359-0.15625 0.09375s-0.15601 0.09357-0.15625 0.09375c-0.00024 0.000182-0.12477 0.09355-0.125 0.09375-0.0002 0.000178-0.0694 0.10112-0.0937 0.125-0.004 0.0034-0.0312-0.000028-0.0312 0l-10.22 10.25-10.25-10.25c-0.00014-0.000139-0.0623-0.09362-0.0625-0.09375-0.00015-0.00013-0.0936-0.06238-0.0937-0.0625-0.00015-0.000122-0.0936-0.06239-0.0937-0.0625-0.00016-0.000113-0.0936-0.0624-0.0937-0.0625-0.00017-0.000103-0.0936-0.06241-0.0937-0.0625-0.00017-0.000093-0.12482-0.06242-0.125-0.0625-0.00018-0.000083-0.0936-0.03118-0.0937-0.03125-0.00018-0.000073-0.0936-0.06244-0.0937-0.0625-0.00019-0.000062-0.12481-0.0312-0.125-0.03125-0.00019-0.000051-0.12481-0.03121-0.125-0.03125s-0.0936 0.000029-0.0937 0c-0.00019-0.000029-0.1248-0.03123-0.125-0.03125-0.0002-0.000018-0.0935 0.000007-0.0937 0s-0.1248-0.000005-0.125 0-0.1248-0.000016-0.125 0c-0.00014 0.000011-0.029 0.02752-0.0625 0.03125-0.0143 0.0016-0.0312-0.000008-0.0312 0-0.0382 0.0057-0.15602-0.000045-0.15625 0-0.00028 0.000054-0.15597 0.06242-0.15625 0.0625-0.00028 0.000077-0.15598 0.03115-0.15625 0.03125s-0.15599 0.06238-0.15625 0.0625c-0.00026 0.000122-0.156 0.09361-0.15625 0.09375-0.00025 0.000143-0.12477 0.09359-0.125 0.09375-0.00023 0.000164-0.12478 0.09357-0.125 0.09375-0.00022 0.000183-0.1248 0.09355-0.125 0.09375a0.98823 0.98823 0 0 0 0 0.03125l-9.3438 9.3125v0.03125c-0.0191 0.01939-0.0624 0.0624-0.0625 0.0625-0.00012 0.000125-0.0624 0.06237-0.0625 0.0625-0.00011 0.00013-0.0624 0.06236-0.0625 0.0625-0.0001 0.000136-0.0624 0.09361-0.0625 0.09375-0.0001 0.000141-0.0624 0.0936-0.0625 0.09375-0.00009 0.000146-0.0624 0.06235-0.0625 0.0625-0.00008 0.00015-0.0312 0.0936-0.0312 0.09375-0.00007 0.000154-0.0312 0.09359-0.0312 0.09375-0.00007 0.000157-0.0624 0.09359-0.0625 0.09375-0.00006 0.000161-0.0312 0.09359-0.0312 0.09375-0.00005 0.000163 0.00004 0.09358 0 0.09375-0.00004 0.000166-0.0312 0.09358-0.0312 0.09375-0.00003 0.000168-0.0312 0.09358-0.0312 0.09375-0.00003 0.000169 0.00002 0.12483 0 0.125s0.00001 0.09358 0 0.09375c-0.00001 0.000171 0 0.09358 0 0.09375 0 0.000171-0.00001 0.09358 0 0.09375 0.00001 0.000171-0.00002 0.09358 0 0.09375s-0.00003 0.12483 0 0.125c0.00003 0.000169 0.0312 0.09358 0.0312 0.09375 0.00003 0.000168 0.0312 0.09358 0.0312 0.09375 0.00004 0.000166-0.00005 0.09359 0 0.09375 0.00005 0.000163 0.0312 0.09359 0.0312 0.09375 0.00006 0.000161 0.0624 0.09359 0.0625 0.09375 0.00007 0.000157 0.0312 0.0936 0.0312 0.09375 0.00007 0.000154 0.0312 0.0936 0.0312 0.09375 0.00008 0.00015 0.0624 0.06235 0.0625 0.0625 0.00009 0.000146 0.0624 0.09361 0.0625 0.09375 0.0001 0.000141 0.0624 0.09361 0.0625 0.09375 0.0001 0.000136 0.0624 0.06237 0.0625 0.0625 0.00011 0.00013 0.0624 0.06238 0.0625 0.0625 0.00009 0.000096 0.0434 0.04311 0.0625 0.0625 0.006 0.0058-0.00003 0.03122 0 0.03125l10.25 10.219-10.25 10.219v0.03125c-0.0191 0.01939-0.0624 0.0624-0.0625 0.0625-0.00012 0.000125-0.0624 0.06237-0.0625 0.0625-0.00011 0.00013-0.0624 0.06236-0.0625 0.0625-0.0001 0.000136-0.0624 0.09361-0.0625 0.09375-0.0001 0.000141-0.0624 0.0936-0.0625 0.09375-0.00009 0.000146-0.0624 0.06235-0.0625 0.0625-0.00008 0.00015-0.0312 0.0936-0.0312 0.09375-0.00007 0.000154-0.0312 0.09359-0.0312 0.09375-0.00007 0.000157-0.0624 0.09359-0.0625 0.09375-0.00006 0.000161-0.0312 0.09359-0.0312 0.09375-0.00005 0.000163 0.00004 0.09358 0 0.09375-0.00004 0.000166-0.0312 0.09358-0.0312 0.09375-0.00003 0.000168-0.0312 0.09358-0.0312 0.09375-0.00003 0.000169 0.00002 0.12483 0 0.125s0.00001 0.09358 0 0.09375c-0.00001 0.000171 0 0.09358 0 0.09375 0 0.000171-0.00001 0.09358 0 0.09375 0.00001 0.000171-0.00002 0.09358 0 0.09375s-0.00003 0.12483 0 0.125c0.00003 0.000169 0.0312 0.09358 0.0312 0.09375 0.00003 0.000168 0.0312 0.09358 0.0312 0.09375 0.00004 0.000166-0.00005 0.09359 0 0.09375 0.00005 0.000163 0.0312 0.09359 0.0312 0.09375 0.00006 0.000161 0.0624 0.09359 0.0625 0.09375 0.00007 0.000157 0.0312 0.0936 0.0312 0.09375 0.00007 0.000154 0.0312 0.0936 0.0312 0.09375 0.00008 0.00015 0.0624 0.06235 0.0625 0.0625 0.00009 0.000146 0.0624 0.09361 0.0625 0.09375 0.0001 0.000141 0.0624 0.09361 0.0625 0.09375 0.0001 0.000136 0.0624 0.06237 0.0625 0.0625 0.00011 0.00013 0.0624 0.06238 0.0625 0.0625 0.00009 0.000096 0.0434 0.04311 0.0625 0.0625 0.006 0.0058-0.00003 0.03122 0 0.03125l9.3438 9.3125c0.0194 0.01913 0.0624 0.06241 0.0625 0.0625 0.00012 0.000117 0.0624 0.06239 0.0625 0.0625 0.00013 0.000111 0.0624 0.0624 0.0625 0.0625 0.00014 0.000104 0.0936 0.0624 0.0937 0.0625 0.00014 0.000097 0.0936 0.06241 0.0937 0.0625 0.00015 0.00009 0.0623 0.06242 0.0625 0.0625 0.00015 0.000082 0.0936 0.03118 0.0937 0.03125 0.00015 0.000075 0.0936 0.03118 0.0937 0.03125 0.00016 0.000067 0.0936 0.06244 0.0937 0.0625 0.00016 0.000059 0.0936 0.0312 0.0937 0.03125 0.00016 0.000051 0.0936-0.000043 0.0937 0 0.00017 0.000043 0.0936 0.03122 0.0937 0.03125 0.00017 0.000034 0.0936 0.03122 0.0937 0.03125 0.00017 0.000026 0.12483-0.000017 0.125 0s0.0936-0.000009 0.0937 0c0.00017 0.000009 0.0936 0 0.0937 0 0.00017 0 0.0936 0.000009 0.0937 0 0.00017-0.000009 0.0936 0.000017 0.0937 0 0.00017-0.000017 0.12483 0.000026 0.125 0s0.0936-0.03122 0.0937-0.03125c0.00017-0.000034 0.0936-0.03121 0.0937-0.03125 0.00017-0.000043 0.0936 0.000051 0.0937 0 0.00016-0.000051 0.0936-0.03119 0.0937-0.03125 0.00016-0.000059 0.0936-0.06243 0.0937-0.0625 0.00016-0.000067 0.0936-0.03118 0.0937-0.03125 0.00015-0.000075 0.0936-0.03117 0.0937-0.03125 0.00015-0.000082 0.0623-0.06241 0.0625-0.0625 0.00015-0.00009 0.0936-0.0624 0.0937-0.0625 0.00014-0.000097 0.0936-0.0624 0.0937-0.0625 0.00014-0.000104 0.0624-0.06239 0.0625-0.0625 0.00013-0.000111 0.0624-0.06238 0.0625-0.0625 0.0001-0.00009 0.0431-0.04337 0.0625-0.0625h0.0312l10.219-10.25 10.25 10.25c0.0194 0.01913 0.0624 0.06241 0.0625 0.0625 0.00012 0.000117 0.0624 0.06239 0.0625 0.0625 0.00013 0.000111 0.0624 0.0624 0.0625 0.0625 0.00014 0.000104 0.0936 0.0624 0.0937 0.0625 0.00014 0.000097 0.0936 0.06241 0.0937 0.0625 0.00015 0.00009 0.0624 0.06242 0.0625 0.0625 0.00015 0.000082 0.0936 0.03118 0.0937 0.03125 0.00015 0.000075 0.0936 0.03118 0.0937 0.03125 0.00016 0.000067 0.0936 0.06244 0.0937 0.0625 0.00016 0.000059 0.0936 0.0312 0.0937 0.03125 0.00016 0.000051 0.0936-0.000043 0.0937 0 0.00017 0.000043 0.0936 0.03122 0.0937 0.03125 0.00017 0.000034 0.0936 0.03122 0.0937 0.03125 0.00017 0.000026 0.12483-0.000017 0.125 0s0.0936-0.000009 0.0937 0c0.00017 0.000009 0.0936 0 0.0937 0 0.00017 0 0.0936 0.000009 0.0937 0 0.00017-0.000009 0.0936 0.000017 0.0937 0 0.00017-0.000017 0.12483 0.000026 0.125 0s0.0936-0.03122 0.0937-0.03125c0.00017-0.000034 0.0936-0.03121 0.0937-0.03125 0.00017-0.000043 0.0936 0.000051 0.0937 0 0.00016-0.000051 0.0936-0.03119 0.0937-0.03125 0.00016-0.000059 0.0936-0.06243 0.0937-0.0625 0.00016-0.000067 0.0936-0.03118 0.0937-0.03125 0.00015-0.000075 0.0936-0.03117 0.0937-0.03125 0.00015-0.000082 0.0624-0.06241 0.0625-0.0625 0.00015-0.00009 0.0936-0.0624 0.0937-0.0625 0.00014-0.000097 0.0936-0.0624 0.0937-0.0625 0.00014-0.000104 0.0624-0.06239 0.0625-0.0625 0.00013-0.000111 0.0624-0.06238 0.0625-0.0625 0.0001-0.00009 0.0431-0.04337 0.0625-0.0625h0.0312l9.3125-9.3125v-0.03125c0.0191-0.01939 0.0624-0.0624 0.0625-0.0625 0.00012-0.000125 0.0624-0.06237 0.0625-0.0625 0.00011-0.00013 0.0624-0.06236 0.0625-0.0625 0.0001-0.000136 0.0624-0.09361 0.0625-0.09375 0.0001-0.000141 0.0624-0.0936 0.0625-0.09375 0.00009-0.000146 0.0624-0.06235 0.0625-0.0625 0.00008-0.00015 0.0312-0.0936 0.0312-0.09375 0.00007-0.000154 0.0312-0.09359 0.0312-0.09375 0.00007-0.000157 0.0624-0.09359 0.0625-0.09375 0.00006-0.000161 0.0312-0.09359 0.0312-0.09375 0.00005-0.000163-0.00004-0.09358 0-0.09375 0.00004-0.000166 0.0312-0.09358 0.0312-0.09375 0.00003-0.000168 0.0312-0.09358 0.0312-0.09375 0.00003-0.000169-0.00002-0.12483 0-0.125s-0.00001-0.09358 0-0.09375c0.00001-0.000171 0-0.09358 0-0.09375 0-0.000171 0.00001-0.09358 0-0.09375-0.00001-0.000171 0.00002-0.09358 0-0.09375s0.00003-0.12483 0-0.125c-0.00003-0.000169-0.0312-0.09358-0.0312-0.09375-0.00003-0.000168-0.0312-0.09358-0.0312-0.09375-0.00004-0.000166 0.00005-0.09359 0-0.09375-0.00005-0.000163-0.0312-0.09359-0.0312-0.09375-0.00006-0.000161-0.0624-0.09359-0.0625-0.09375-0.00007-0.000157-0.0312-0.0936-0.0312-0.09375-0.00007-0.000154-0.0312-0.0936-0.0312-0.09375-0.00008-0.00015-0.0624-0.06235-0.0625-0.0625-0.00009-0.000146-0.0624-0.09361-0.0625-0.09375-0.0001-0.000141-0.0624-0.09361-0.0625-0.09375-0.0001-0.000136-0.0624-0.06237-0.0625-0.0625-0.00011-0.00013-0.0624-0.06238-0.0625-0.0625-0.00009-0.000096-0.0434-0.04311-0.0625-0.0625l-10.25-10.25 10.25-10.25c0.0191-0.01939 0.0624-0.0624 0.0625-0.0625 0.00012-0.000125 0.0624-0.06237 0.0625-0.0625 0.00011-0.00013 0.0624-0.06236 0.0625-0.0625 0.0001-0.000136 0.0624-0.09361 0.0625-0.09375 0.0001-0.000141 0.0624-0.0936 0.0625-0.09375 0.00009-0.000146 0.0624-0.06235 0.0625-0.0625 0.00008-0.00015 0.0312-0.0936 0.0312-0.09375 0.00007-0.000154 0.0312-0.09359 0.0312-0.09375 0.00007-0.000157 0.0624-0.09359 0.0625-0.09375 0.00006-0.000161 0.0312-0.09359 0.0312-0.09375 0.00005-0.000163-0.00004-0.09358 0-0.09375 0.00004-0.000166 0.0312-0.09358 0.0312-0.09375 0.00003-0.000168 0.0312-0.09358 0.0312-0.09375 0.00003-0.000169-0.00002-0.12483 0-0.125s-0.00001-0.09358 0-0.09375c0.00001-0.000171 0-0.09358 0-0.09375 0-0.000171 0.00001-0.09358 0-0.09375-0.00001-0.000171 0.00002-0.09358 0-0.09375s0.00003-0.12483 0-0.125c-0.00003-0.000169-0.0312-0.09358-0.0312-0.09375-0.00003-0.000168-0.0312-0.09358-0.0312-0.09375-0.00004-0.000166 0.00005-0.09359 0-0.09375-0.00005-0.000163-0.0312-0.09359-0.0312-0.09375-0.00006-0.000161-0.0624-0.09359-0.0625-0.09375-0.00007-0.000157-0.0312-0.0936-0.0312-0.09375-0.00007-0.000154-0.0312-0.0936-0.0312-0.09375-0.00008-0.00015-0.0624-0.06235-0.0625-0.0625-0.00009-0.000146-0.0624-0.09361-0.0625-0.09375-0.0001-0.000141-0.0624-0.09361-0.0625-0.09375-0.0001-0.000136-0.0624-0.06237-0.0625-0.0625-0.00011-0.00013-0.0624-0.06238-0.0625-0.0625-0.00009-0.000096-0.0434-0.04311-0.0625-0.0625l-9.3125-9.3438c-0.00003-0.000035-0.0239 0.0075-0.0312 0-0.0222-0.02237-0.0311-0.0624-0.0312-0.0625-0.00014-0.000133-0.0936-0.09362-0.0937-0.09375-0.00015-0.000125-0.0936-0.06238-0.0937-0.0625-0.00015-0.000116-0.0936-0.06239-0.0937-0.0625-0.00016-0.000107-0.0936-0.0624-0.0937-0.0625-0.00017-0.000098-0.0936-0.06241-0.0937-0.0625-0.00017-0.000089-0.0936-0.03117-0.0937-0.03125-0.00018-0.000079-0.12482-0.03118-0.125-0.03125-0.00018-0.000069-0.0936-0.06244-0.0937-0.0625-0.00018-0.000059-0.0936-0.0312-0.0937-0.03125-0.00019-0.000048-0.12481 0.000038-0.125 0s-0.0936-0.03122-0.0937-0.03125c-0.00019-0.000027-0.12481-0.03123-0.125-0.03125-0.00019-0.000016-0.0936 0.000006-0.0937 0-0.00019-0.000006-0.12481-0.000005-0.125 0s-0.12481-0.000016-0.125 0z"/>
  <path opacity=".15" d="m120.22 29.4a0.99834 0.99834 0 0 0 -0.59375 0.28125l-9.3438 9.3438a0.99834 0.99834 0 0 0 0 1.4375l10.938 10.938-10.938 10.938a0.99834 0.99834 0 0 0 0 1.4375l9.3438 9.3438a0.99834 0.99834 0 0 0 1.4375 0l10.93-10.939 10.938 10.938a0.99834 0.99834 0 0 0 1.4375 0l9.3438-9.3438a0.99834 0.99834 0 0 0 0 -1.4375l-10.94-10.938 10.94-10.938a0.99834 0.99834 0 0 0 0 -1.4375l-9.34-9.343a0.99834 0.99834 0 0 0 -1.4375 0l-10.94 10.938-10.94-10.938a0.99834 0.99834 0 0 0 -0.84 -0.281z"/>
  <path opacity=".3" d="m111 63.067 9.33 9.333 11.67-11.667 11.67 11.667 9.33-9.333-11.67-11.667 11.67-11.667-9.33-9.333-11.67 11.667-11.67-11.667-9.33 9.333 11.67 11.667-11.67 11.667z"/>
  <path fill="url(#q)" d="m111 62.067 9.33 9.333 11.67-11.667 11.67 11.667 9.33-9.333-11.67-11.667 11.67-11.667-9.33-9.333-11.67 11.667-11.67-11.667-9.33 9.333 11.67 11.667-11.67 11.667z"/>
  <path opacity=".3" fill="#fff" d="m120.34 29.4-9.34 9.344 0.5 0.5l8.84-8.844 11.66 11.656 11.66-11.656 8.84 8.844 0.5-0.5-9.34-9.344-11.66 11.656-11.66-11.656zm1.8125 21.5-11.15 11.156 0.5 0.5 11.156-11.156-0.5-0.5zm19.688 0-0.5 0.5 11.156 11.156 0.5-0.5-11.16-11.156z"/>
  <path opacity=".1" d="m111.5 38.244-0.5 0.5 11.156 11.156 0.5-0.5-11.16-11.156zm41 0-11.156 11.156 0.5 0.5 11.16-11.156-0.5-0.5zm-20.5 20.5-11.66 11.656-8.84-8.844-0.5 0.5 9.34 9.344 11.66-11.656 11.66 11.656 9.34-9.344-0.5-0.5-8.84 8.844-11.66-11.656z"/>
 </g>
</svg>
