<?xml version="1.0" encoding="UTF-8" standalone="no"?>
<svg
   xmlns:dc="http://purl.org/dc/elements/1.1/"
   xmlns:cc="http://creativecommons.org/ns#"
   xmlns:rdf="http://www.w3.org/1999/02/22-rdf-syntax-ns#"
   xmlns:svg="http://www.w3.org/2000/svg"
   xmlns="http://www.w3.org/2000/svg"
   xmlns:sodipodi="http://sodipodi.sourceforge.net/DTD/sodipodi-0.dtd"
   xmlns:inkscape="http://www.inkscape.org/namespaces/inkscape"
   height="48"
   width="48"
   version="1.1"
   id="svg3048"
   inkscape:version="0.48.3.1 r9886"
   sodipodi:docname="delete_pin.svg">
  <metadata
     id="metadata3142">
    <rdf:RDF>
      <cc:Work
         rdf:about="">
        <dc:format>image/svg+xml</dc:format>
        <dc:type
           rdf:resource="http://purl.org/dc/dcmitype/StillImage" />
        <dc:title></dc:title>
      </cc:Work>
    </rdf:RDF>
  </metadata>
  <sodipodi:namedview
     pagecolor="#ffffff"
     bordercolor="#666666"
     borderopacity="1"
     objecttolerance="10"
     gridtolerance="10"
     guidetolerance="10"
     inkscape:pageopacity="0"
     inkscape:pageshadow="2"
     inkscape:window-width="640"
     inkscape:window-height="480"
     id="namedview3140"
     showgrid="false"
     inkscape:zoom="4.9166667"
     inkscape:cx="24"
     inkscape:cy="24"
     inkscape:window-x="0"
     inkscape:window-y="29"
     inkscape:window-maximized="0"
     inkscape:current-layer="svg3048" />
  <defs
     id="defs3050">
    <linearGradient
       id="g"
       y2="48"
       gradientUnits="userSpaceOnUse"
       x2="69"
       gradientTransform="matrix(0,-1,1,0,84,98.4)"
       y1="48"
       x1="27">
      <stop
         stop-color="#c80000"
         offset="0"
         id="stop3053" />
      <stop
         stop-color="#f3604d"
         offset="1"
         id="stop3055" />
    </linearGradient>
    <filter
       id="e"
       height="1.2293"
       width="1.09"
       color-interpolation-filters="sRGB"
       y="-.11464"
       x="-.044985">
      <feGaussianBlur
         stdDeviation="0.68425161"
         id="feGaussianBlur3058" />
    </filter>
    <filter
       id="f"
       height="1.1071"
       width="1.2934"
       color-interpolation-filters="sRGB"
       y="-.053551"
       x="-.14671">
      <feGaussianBlur
         stdDeviation="0.77576414"
         id="feGaussianBlur3061" />
    </filter>
    <linearGradient
       id="h"
       y2="5.5"
       gradientUnits="userSpaceOnUse"
       x2="1.0312"
       gradientTransform="matrix(1.9385,0,0,1.7906,-101.39,-12.363)"
       y1="9.4062"
       x1="4.9688">
      <stop
         stop-color="#afafff"
         offset="0"
         id="stop3064" />
      <stop
         stop-color="#fff"
         offset="1"
         id="stop3066" />
    </linearGradient>
  </defs>
  <g
     transform="matrix(2.9379,0,0,2.1996,1.1578,13.241)"
     id="g3068">
    <rect
       fill-opacity="0"
       height="16"
       width="16"
       y="0"
       x="0"
       id="rect3070" />
  </g>
  <g
     opacity=".58594"
     filter="url(#e)"
     transform="matrix(-1.0211,0,0,1.0154,3.9949,58.703)"
     id="g3072">
    <g
       transform="matrix(-1,0,0,1,-101.77,-29.616)"
       id="g3074">
      <rect
         transform="rotate(-90)"
         height="23.582"
         width="3.5811"
         y="-90.407"
         x="-2.8595"
         id="rect3076" />
      <path
         d="m-95.576-6.0964c-4.2802 0-7.754 3.2087-7.754 7.1622s3.4738 7.1622 7.754 7.1622 7.754-3.2087 7.754-7.1622-3.4738-7.1622-7.754-7.1622z"
         id="path3078" />
      <path
         d="m-95.576-2.5153c2.1401 0 3.877 1.6043 3.877 3.5811s-1.7369 3.5811-3.877 3.5811-3.877-1.6043-3.877-3.5811 1.7369-3.5811 3.877-3.5811z"
         id="path3080" />
    </g>
  </g>
  <g
     opacity=".58594"
     font-family="Arial"
     transform="matrix(1.0211,0,0,1.0154,47.931,58.43)"
     filter="url(#f)"
     font-size="18.731px"
     font-weight="bold"
     id="g3082">
    <text
       style="word-spacing:0px;letter-spacing:0px"
       xml:space="preserve"
       transform="scale(1.0492 .9531)"
       line-height="125%"
       y="-35.033535"
       x="-26.868841"
       id="text3084"><tspan
         y="-35.033535"
         x="-26.868841"
         id="tspan3086">P</tspan></text>
    <g
       transform="scale(1.0492 .9531)"
       style="line-height:125%;letter-spacing:0px;word-spacing:0px"
       id="text3088">
      <path
         d="m -27.632489,-11.963096 0,-1.911513 3.191953,0 0,-8.789303 -3.091347,1.929806 0,-2.021266 3.228537,-2.094433 2.432835,0 0,10.975196 2.954157,0 0,1.911513 -8.716135,0"
         style=""
         id="path3151" />
    </g>
  </g>
  <g
     transform="matrix(2.5084,0,0,2.2659,2.1041,12.283)"
     id="g3092">
    <rect
       fill-opacity="0"
       height="16"
       width="16"
       y="0"
       x="0"
       id="rect3094" />
  </g>
  <g
     transform="matrix(2.7239,0,0,2.0515,1.1149,14.323)"
     id="g3096">
    <rect
       fill-opacity="0"
       height="16"
       width="16"
       y="0"
       x="0"
       id="rect3098" />
  </g>
  <g
     transform="matrix(1.0211,0,0,1.0154,106.1,26.211)"
     id="g3100">
    <rect
       transform="rotate(-90)"
       height="23.582"
       width="3.5811"
       y="-90.407"
       x="-2.8595"
       fill="#d72e2e"
       id="rect3102" />
    <path
       fill="#d72e2e"
       d="m-95.576-6.0964c-4.2802 0-7.754 3.2087-7.754 7.1622s3.4738 7.1622 7.754 7.1622 7.754-3.2087 7.754-7.1622-3.4738-7.1622-7.754-7.1622z"
       id="path3104" />
    <path
       fill="url(#h)"
       d="m-95.576-2.5153c2.1401 0 3.877 1.6043 3.877 3.5811s-1.7369 3.5811-3.877 3.5811-3.877-1.6043-3.877-3.5811 1.7369-3.5811 3.877-3.5811z"
       id="path3106" />
  </g>
  <g
     font-weight="bold"
     transform="translate(84.429,4.1012)"
     font-size="19.073px"
     font-family="Arial"
     id="g3108">
    <g
       transform="scale(1.0521 .95044)"
       style="line-height:125%;letter-spacing:0px;word-spacing:0px"
       id="text3110">
      <path
         d="m -51.851002,11.39199 c -1.3e-5,0.564996 -0.09625,1.111357 -0.288703,1.639086 -0.186271,0.521534 -0.474974,0.984078 -0.866108,1.387635 -0.391156,0.403568 -0.887848,0.726418 -1.490078,0.968551 -0.602249,0.235933 -1.316244,0.353898 -2.141987,0.353893 l -3.259546,0 0,4.619242 -2.747332,0 0,-13.1220001 5.895122,0 c 0.838161,1.31e-5 1.564573,0.1024559 2.179239,0.3073286 0.614647,0.1986897 1.123757,0.4811834 1.52733,0.8474819 0.403552,0.3663225 0.701567,0.8040325 0.894047,1.3131314 0.198665,0.5091202 0.298003,1.0710032 0.298016,1.6856512 m -2.765958,0.04656 c -9e-6,-0.676735 -0.204895,-1.188948 -0.614657,-1.5366435 -0.403571,-0.3538827 -1.012019,-0.5308293 -1.825346,-0.5308403 l -2.840461,0 0,4.2560358 2.914965,0 c 0.409764,7e-6 0.760553,-0.05277 1.052368,-0.158321 0.298007,-0.10554 0.543249,-0.254548 0.735726,-0.447023 0.198668,-0.192461 0.344571,-0.422181 0.43771,-0.689162 0.09312,-0.273172 0.139686,-0.571188 0.139695,-0.894046"
         style=""
         id="path3145" />
    </g>
    <g
       transform="scale(1.0521 .95044)"
       style="line-height:125%;letter-spacing:0px;word-spacing:0px"
       id="text3114">
      <path
         d="m -64.698199,43.851746 0,-1.946415 3.250233,0 0,-8.949782 -3.14779,1.965041 0,-2.058171 3.287485,-2.132674 2.477255,0 0,11.175586 3.008095,0 0,1.946415 -8.875278,0"
         style=""
         id="path3148" />
    </g>
  </g>
  <g
     transform="matrix(2.5084,0,0,2.2659,-2.1089,16.661)"
     id="g3118">
    <rect
       fill-opacity="0"
       height="16"
       width="16"
       y="0"
       x="0"
       id="rect3120" />
  </g>
  <g
     transform="matrix(2.5084 0 0 2.2659 .28565 9.8627)"
     id="g3122">
    <rect
       fill-opacity="0"
       height="16"
       width="16"
       y="0"
       x="0"
       id="rect3124" />
  </g>
  <g
     transform="matrix(.53738 0 0 .52838 -34.746 -14.359)"
     id="g3126">
    <path
       opacity=".1"
       d="m143.47 28.369a0.98823 0.98823 0 0 0 0 0.03125c-0.0003 0.000032-0.1872-0.000059-0.1875 0s-0.15596 0.06241-0.15625 0.0625c-0.00029 0.000086-0.18722 0.06239-0.1875 0.0625-0.00028 0.000111-0.15598 0.06236-0.15625 0.0625-0.00027 0.000136-0.15599 0.09359-0.15625 0.09375s-0.15601 0.09357-0.15625 0.09375c-0.00024 0.000182-0.12477 0.09355-0.125 0.09375-0.0002 0.000178-0.0694 0.10112-0.0937 0.125-0.004 0.0034-0.0312-0.000028-0.0312 0l-10.22 10.25-10.25-10.25c-0.00014-0.000139-0.0623-0.09362-0.0625-0.09375-0.00015-0.00013-0.0936-0.06238-0.0937-0.0625-0.00015-0.000122-0.0936-0.06239-0.0937-0.0625-0.00016-0.000113-0.0936-0.0624-0.0937-0.0625-0.00017-0.000103-0.0936-0.06241-0.0937-0.0625-0.00017-0.000093-0.12482-0.06242-0.125-0.0625-0.00018-0.000083-0.0936-0.03118-0.0937-0.03125-0.00018-0.000073-0.0936-0.06244-0.0937-0.0625-0.00019-0.000062-0.12481-0.0312-0.125-0.03125-0.00019-0.000051-0.12481-0.03121-0.125-0.03125s-0.0936 0.000029-0.0937 0c-0.00019-0.000029-0.1248-0.03123-0.125-0.03125-0.0002-0.000018-0.0935 0.000007-0.0937 0s-0.1248-0.000005-0.125 0-0.1248-0.000016-0.125 0c-0.00014 0.000011-0.029 0.02752-0.0625 0.03125-0.0143 0.0016-0.0312-0.000008-0.0312 0-0.0382 0.0057-0.15602-0.000045-0.15625 0-0.00028 0.000054-0.15597 0.06242-0.15625 0.0625-0.00028 0.000077-0.15598 0.03115-0.15625 0.03125s-0.15599 0.06238-0.15625 0.0625c-0.00026 0.000122-0.156 0.09361-0.15625 0.09375-0.00025 0.000143-0.12477 0.09359-0.125 0.09375-0.00023 0.000164-0.12478 0.09357-0.125 0.09375-0.00022 0.000183-0.1248 0.09355-0.125 0.09375a0.98823 0.98823 0 0 0 0 0.03125l-9.3438 9.3125v0.03125c-0.0191 0.01939-0.0624 0.0624-0.0625 0.0625-0.00012 0.000125-0.0624 0.06237-0.0625 0.0625-0.00011 0.00013-0.0624 0.06236-0.0625 0.0625-0.0001 0.000136-0.0624 0.09361-0.0625 0.09375-0.0001 0.000141-0.0624 0.0936-0.0625 0.09375-0.00009 0.000146-0.0624 0.06235-0.0625 0.0625-0.00008 0.00015-0.0312 0.0936-0.0312 0.09375-0.00007 0.000154-0.0312 0.09359-0.0312 0.09375-0.00007 0.000157-0.0624 0.09359-0.0625 0.09375-0.00006 0.000161-0.0312 0.09359-0.0312 0.09375-0.00005 0.000163 0.00004 0.09358 0 0.09375-0.00004 0.000166-0.0312 0.09358-0.0312 0.09375-0.00003 0.000168-0.0312 0.09358-0.0312 0.09375-0.00003 0.000169 0.00002 0.12483 0 0.125s0.00001 0.09358 0 0.09375c-0.00001 0.000171 0 0.09358 0 0.09375 0 0.000171-0.00001 0.09358 0 0.09375 0.00001 0.000171-0.00002 0.09358 0 0.09375s-0.00003 0.12483 0 0.125c0.00003 0.000169 0.0312 0.09358 0.0312 0.09375 0.00003 0.000168 0.0312 0.09358 0.0312 0.09375 0.00004 0.000166-0.00005 0.09359 0 0.09375 0.00005 0.000163 0.0312 0.09359 0.0312 0.09375 0.00006 0.000161 0.0624 0.09359 0.0625 0.09375 0.00007 0.000157 0.0312 0.0936 0.0312 0.09375 0.00007 0.000154 0.0312 0.0936 0.0312 0.09375 0.00008 0.00015 0.0624 0.06235 0.0625 0.0625 0.00009 0.000146 0.0624 0.09361 0.0625 0.09375 0.0001 0.000141 0.0624 0.09361 0.0625 0.09375 0.0001 0.000136 0.0624 0.06237 0.0625 0.0625 0.00011 0.00013 0.0624 0.06238 0.0625 0.0625 0.00009 0.000096 0.0434 0.04311 0.0625 0.0625 0.006 0.0058-0.00003 0.03122 0 0.03125l10.25 10.219-10.25 10.219v0.03125c-0.0191 0.01939-0.0624 0.0624-0.0625 0.0625-0.00012 0.000125-0.0624 0.06237-0.0625 0.0625-0.00011 0.00013-0.0624 0.06236-0.0625 0.0625-0.0001 0.000136-0.0624 0.09361-0.0625 0.09375-0.0001 0.000141-0.0624 0.0936-0.0625 0.09375-0.00009 0.000146-0.0624 0.06235-0.0625 0.0625-0.00008 0.00015-0.0312 0.0936-0.0312 0.09375-0.00007 0.000154-0.0312 0.09359-0.0312 0.09375-0.00007 0.000157-0.0624 0.09359-0.0625 0.09375-0.00006 0.000161-0.0312 0.09359-0.0312 0.09375-0.00005 0.000163 0.00004 0.09358 0 0.09375-0.00004 0.000166-0.0312 0.09358-0.0312 0.09375-0.00003 0.000168-0.0312 0.09358-0.0312 0.09375-0.00003 0.000169 0.00002 0.12483 0 0.125s0.00001 0.09358 0 0.09375c-0.00001 0.000171 0 0.09358 0 0.09375 0 0.000171-0.00001 0.09358 0 0.09375 0.00001 0.000171-0.00002 0.09358 0 0.09375s-0.00003 0.12483 0 0.125c0.00003 0.000169 0.0312 0.09358 0.0312 0.09375 0.00003 0.000168 0.0312 0.09358 0.0312 0.09375 0.00004 0.000166-0.00005 0.09359 0 0.09375 0.00005 0.000163 0.0312 0.09359 0.0312 0.09375 0.00006 0.000161 0.0624 0.09359 0.0625 0.09375 0.00007 0.000157 0.0312 0.0936 0.0312 0.09375 0.00007 0.000154 0.0312 0.0936 0.0312 0.09375 0.00008 0.00015 0.0624 0.06235 0.0625 0.0625 0.00009 0.000146 0.0624 0.09361 0.0625 0.09375 0.0001 0.000141 0.0624 0.09361 0.0625 0.09375 0.0001 0.000136 0.0624 0.06237 0.0625 0.0625 0.00011 0.00013 0.0624 0.06238 0.0625 0.0625 0.00009 0.000096 0.0434 0.04311 0.0625 0.0625 0.006 0.0058-0.00003 0.03122 0 0.03125l9.3438 9.3125c0.0194 0.01913 0.0624 0.06241 0.0625 0.0625 0.00012 0.000117 0.0624 0.06239 0.0625 0.0625 0.00013 0.000111 0.0624 0.0624 0.0625 0.0625 0.00014 0.000104 0.0936 0.0624 0.0937 0.0625 0.00014 0.000097 0.0936 0.06241 0.0937 0.0625 0.00015 0.00009 0.0623 0.06242 0.0625 0.0625 0.00015 0.000082 0.0936 0.03118 0.0937 0.03125 0.00015 0.000075 0.0936 0.03118 0.0937 0.03125 0.00016 0.000067 0.0936 0.06244 0.0937 0.0625 0.00016 0.000059 0.0936 0.0312 0.0937 0.03125 0.00016 0.000051 0.0936-0.000043 0.0937 0 0.00017 0.000043 0.0936 0.03122 0.0937 0.03125 0.00017 0.000034 0.0936 0.03122 0.0937 0.03125 0.00017 0.000026 0.12483-0.000017 0.125 0s0.0936-0.000009 0.0937 0c0.00017 0.000009 0.0936 0 0.0937 0 0.00017 0 0.0936 0.000009 0.0937 0 0.00017-0.000009 0.0936 0.000017 0.0937 0 0.00017-0.000017 0.12483 0.000026 0.125 0s0.0936-0.03122 0.0937-0.03125c0.00017-0.000034 0.0936-0.03121 0.0937-0.03125 0.00017-0.000043 0.0936 0.000051 0.0937 0 0.00016-0.000051 0.0936-0.03119 0.0937-0.03125 0.00016-0.000059 0.0936-0.06243 0.0937-0.0625 0.00016-0.000067 0.0936-0.03118 0.0937-0.03125 0.00015-0.000075 0.0936-0.03117 0.0937-0.03125 0.00015-0.000082 0.0623-0.06241 0.0625-0.0625 0.00015-0.00009 0.0936-0.0624 0.0937-0.0625 0.00014-0.000097 0.0936-0.0624 0.0937-0.0625 0.00014-0.000104 0.0624-0.06239 0.0625-0.0625 0.00013-0.000111 0.0624-0.06238 0.0625-0.0625 0.0001-0.00009 0.0431-0.04337 0.0625-0.0625h0.0312l10.219-10.25 10.25 10.25c0.0194 0.01913 0.0624 0.06241 0.0625 0.0625 0.00012 0.000117 0.0624 0.06239 0.0625 0.0625 0.00013 0.000111 0.0624 0.0624 0.0625 0.0625 0.00014 0.000104 0.0936 0.0624 0.0937 0.0625 0.00014 0.000097 0.0936 0.06241 0.0937 0.0625 0.00015 0.00009 0.0624 0.06242 0.0625 0.0625 0.00015 0.000082 0.0936 0.03118 0.0937 0.03125 0.00015 0.000075 0.0936 0.03118 0.0937 0.03125 0.00016 0.000067 0.0936 0.06244 0.0937 0.0625 0.00016 0.000059 0.0936 0.0312 0.0937 0.03125 0.00016 0.000051 0.0936-0.000043 0.0937 0 0.00017 0.000043 0.0936 0.03122 0.0937 0.03125 0.00017 0.000034 0.0936 0.03122 0.0937 0.03125 0.00017 0.000026 0.12483-0.000017 0.125 0s0.0936-0.000009 0.0937 0c0.00017 0.000009 0.0936 0 0.0937 0 0.00017 0 0.0936 0.000009 0.0937 0 0.00017-0.000009 0.0936 0.000017 0.0937 0 0.00017-0.000017 0.12483 0.000026 0.125 0s0.0936-0.03122 0.0937-0.03125c0.00017-0.000034 0.0936-0.03121 0.0937-0.03125 0.00017-0.000043 0.0936 0.000051 0.0937 0 0.00016-0.000051 0.0936-0.03119 0.0937-0.03125 0.00016-0.000059 0.0936-0.06243 0.0937-0.0625 0.00016-0.000067 0.0936-0.03118 0.0937-0.03125 0.00015-0.000075 0.0936-0.03117 0.0937-0.03125 0.00015-0.000082 0.0624-0.06241 0.0625-0.0625 0.00015-0.00009 0.0936-0.0624 0.0937-0.0625 0.00014-0.000097 0.0936-0.0624 0.0937-0.0625 0.00014-0.000104 0.0624-0.06239 0.0625-0.0625 0.00013-0.000111 0.0624-0.06238 0.0625-0.0625 0.0001-0.00009 0.0431-0.04337 0.0625-0.0625h0.0312l9.3125-9.3125v-0.03125c0.0191-0.01939 0.0624-0.0624 0.0625-0.0625 0.00012-0.000125 0.0624-0.06237 0.0625-0.0625 0.00011-0.00013 0.0624-0.06236 0.0625-0.0625 0.0001-0.000136 0.0624-0.09361 0.0625-0.09375 0.0001-0.000141 0.0624-0.0936 0.0625-0.09375 0.00009-0.000146 0.0624-0.06235 0.0625-0.0625 0.00008-0.00015 0.0312-0.0936 0.0312-0.09375 0.00007-0.000154 0.0312-0.09359 0.0312-0.09375 0.00007-0.000157 0.0624-0.09359 0.0625-0.09375 0.00006-0.000161 0.0312-0.09359 0.0312-0.09375 0.00005-0.000163-0.00004-0.09358 0-0.09375 0.00004-0.000166 0.0312-0.09358 0.0312-0.09375 0.00003-0.000168 0.0312-0.09358 0.0312-0.09375 0.00003-0.000169-0.00002-0.12483 0-0.125s-0.00001-0.09358 0-0.09375c0.00001-0.000171 0-0.09358 0-0.09375 0-0.000171 0.00001-0.09358 0-0.09375-0.00001-0.000171 0.00002-0.09358 0-0.09375s0.00003-0.12483 0-0.125c-0.00003-0.000169-0.0312-0.09358-0.0312-0.09375-0.00003-0.000168-0.0312-0.09358-0.0312-0.09375-0.00004-0.000166 0.00005-0.09359 0-0.09375-0.00005-0.000163-0.0312-0.09359-0.0312-0.09375-0.00006-0.000161-0.0624-0.09359-0.0625-0.09375-0.00007-0.000157-0.0312-0.0936-0.0312-0.09375-0.00007-0.000154-0.0312-0.0936-0.0312-0.09375-0.00008-0.00015-0.0624-0.06235-0.0625-0.0625-0.00009-0.000146-0.0624-0.09361-0.0625-0.09375-0.0001-0.000141-0.0624-0.09361-0.0625-0.09375-0.0001-0.000136-0.0624-0.06237-0.0625-0.0625-0.00011-0.00013-0.0624-0.06238-0.0625-0.0625-0.00009-0.000096-0.0434-0.04311-0.0625-0.0625l-10.25-10.25 10.25-10.25c0.0191-0.01939 0.0624-0.0624 0.0625-0.0625 0.00012-0.000125 0.0624-0.06237 0.0625-0.0625 0.00011-0.00013 0.0624-0.06236 0.0625-0.0625 0.0001-0.000136 0.0624-0.09361 0.0625-0.09375 0.0001-0.000141 0.0624-0.0936 0.0625-0.09375 0.00009-0.000146 0.0624-0.06235 0.0625-0.0625 0.00008-0.00015 0.0312-0.0936 0.0312-0.09375 0.00007-0.000154 0.0312-0.09359 0.0312-0.09375 0.00007-0.000157 0.0624-0.09359 0.0625-0.09375 0.00006-0.000161 0.0312-0.09359 0.0312-0.09375 0.00005-0.000163-0.00004-0.09358 0-0.09375 0.00004-0.000166 0.0312-0.09358 0.0312-0.09375 0.00003-0.000168 0.0312-0.09358 0.0312-0.09375 0.00003-0.000169-0.00002-0.12483 0-0.125s-0.00001-0.09358 0-0.09375c0.00001-0.000171 0-0.09358 0-0.09375 0-0.000171 0.00001-0.09358 0-0.09375-0.00001-0.000171 0.00002-0.09358 0-0.09375s0.00003-0.12483 0-0.125c-0.00003-0.000169-0.0312-0.09358-0.0312-0.09375-0.00003-0.000168-0.0312-0.09358-0.0312-0.09375-0.00004-0.000166 0.00005-0.09359 0-0.09375-0.00005-0.000163-0.0312-0.09359-0.0312-0.09375-0.00006-0.000161-0.0624-0.09359-0.0625-0.09375-0.00007-0.000157-0.0312-0.0936-0.0312-0.09375-0.00007-0.000154-0.0312-0.0936-0.0312-0.09375-0.00008-0.00015-0.0624-0.06235-0.0625-0.0625-0.00009-0.000146-0.0624-0.09361-0.0625-0.09375-0.0001-0.000141-0.0624-0.09361-0.0625-0.09375-0.0001-0.000136-0.0624-0.06237-0.0625-0.0625-0.00011-0.00013-0.0624-0.06238-0.0625-0.0625-0.00009-0.000096-0.0434-0.04311-0.0625-0.0625l-9.3125-9.3438c-0.00003-0.000035-0.0239 0.0075-0.0312 0-0.0222-0.02237-0.0311-0.0624-0.0312-0.0625-0.00014-0.000133-0.0936-0.09362-0.0937-0.09375-0.00015-0.000125-0.0936-0.06238-0.0937-0.0625-0.00015-0.000116-0.0936-0.06239-0.0937-0.0625-0.00016-0.000107-0.0936-0.0624-0.0937-0.0625-0.00017-0.000098-0.0936-0.06241-0.0937-0.0625-0.00017-0.000089-0.0936-0.03117-0.0937-0.03125-0.00018-0.000079-0.12482-0.03118-0.125-0.03125-0.00018-0.000069-0.0936-0.06244-0.0937-0.0625-0.00018-0.000059-0.0936-0.0312-0.0937-0.03125-0.00019-0.000048-0.12481 0.000038-0.125 0s-0.0936-0.03122-0.0937-0.03125c-0.00019-0.000027-0.12481-0.03123-0.125-0.03125-0.00019-0.000016-0.0936 0.000006-0.0937 0-0.00019-0.000006-0.12481-0.000005-0.125 0s-0.12481-0.000016-0.125 0z"
       id="path3128" />
    <path
       opacity=".15"
       d="m120.22 29.4a0.99834 0.99834 0 0 0 -0.59375 0.28125l-9.3438 9.3438a0.99834 0.99834 0 0 0 0 1.4375l10.938 10.938-10.938 10.938a0.99834 0.99834 0 0 0 0 1.4375l9.3438 9.3438a0.99834 0.99834 0 0 0 1.4375 0l10.93-10.939 10.938 10.938a0.99834 0.99834 0 0 0 1.4375 0l9.3438-9.3438a0.99834 0.99834 0 0 0 0 -1.4375l-10.94-10.938 10.94-10.938a0.99834 0.99834 0 0 0 0 -1.4375l-9.34-9.343a0.99834 0.99834 0 0 0 -1.4375 0l-10.94 10.938-10.94-10.938a0.99834 0.99834 0 0 0 -0.84 -0.281z"
       id="path3130" />
    <path
       opacity=".3"
       d="m111 63.067 9.33 9.333 11.67-11.667 11.67 11.667 9.33-9.333-11.67-11.667 11.67-11.667-9.33-9.333-11.67 11.667-11.67-11.667-9.33 9.333 11.67 11.667-11.67 11.667z"
       id="path3132" />
    <path
       fill="url(#g)"
       d="m111 62.067 9.33 9.333 11.67-11.667 11.67 11.667 9.33-9.333-11.67-11.667 11.67-11.667-9.33-9.333-11.67 11.667-11.67-11.667-9.33 9.333 11.67 11.667-11.67 11.667z"
       id="path3134" />
    <path
       opacity=".3"
       fill="#fff"
       d="m120.34 29.4-9.34 9.344 0.5 0.5l8.84-8.844 11.66 11.656 11.66-11.656 8.84 8.844 0.5-0.5-9.34-9.344-11.66 11.656-11.66-11.656zm1.8125 21.5-11.15 11.156 0.5 0.5 11.156-11.156-0.5-0.5zm19.688 0-0.5 0.5 11.156 11.156 0.5-0.5-11.16-11.156z"
       id="path3136" />
    <path
       opacity=".1"
       d="m111.5 38.244-0.5 0.5 11.156 11.156 0.5-0.5-11.16-11.156zm41 0-11.156 11.156 0.5 0.5 11.16-11.156-0.5-0.5zm-20.5 20.5-11.66 11.656-8.84-8.844-0.5 0.5 9.34 9.344 11.66-11.656 11.66 11.656 9.34-9.344-0.5-0.5-8.84 8.844-11.66-11.656z"
       id="path3138" />
  </g>
</svg>
