<?xml version="1.0" encoding="UTF-8" standalone="no"?>
<svg
   xmlns:dc="http://purl.org/dc/elements/1.1/"
   xmlns:cc="http://creativecommons.org/ns#"
   xmlns:rdf="http://www.w3.org/1999/02/22-rdf-syntax-ns#"
   xmlns:svg="http://www.w3.org/2000/svg"
   xmlns="http://www.w3.org/2000/svg"
   xmlns:xlink="http://www.w3.org/1999/xlink"
   xmlns:sodipodi="http://sodipodi.sourceforge.net/DTD/sodipodi-0.dtd"
   xmlns:inkscape="http://www.inkscape.org/namespaces/inkscape"
   height="48"
   width="48"
   version="1.1"
   id="svg5286"
   inkscape:version="0.91 r13725"
   sodipodi:docname="delete_connection.svg">
  <metadata
     id="metadata5343">
    <rdf:RDF>
      <cc:Work
         rdf:about="">
        <dc:format>image/svg+xml</dc:format>
        <dc:type
           rdf:resource="http://purl.org/dc/dcmitype/StillImage" />
      </cc:Work>
    </rdf:RDF>
  </metadata>
  <sodipodi:namedview
     pagecolor="#ffffff"
     bordercolor="#666666"
     borderopacity="1"
     objecttolerance="10"
     gridtolerance="10"
     guidetolerance="10"
     inkscape:pageopacity="0"
     inkscape:pageshadow="2"
     inkscape:window-width="928"
     inkscape:window-height="1028"
     id="namedview5341"
     showgrid="false"
     inkscape:zoom="8.1101586"
     inkscape:cx="18.826191"
     inkscape:cy="-2.6618551"
     inkscape:window-x="992"
     inkscape:window-y="24"
     inkscape:window-maximized="0"
     inkscape:current-layer="svg5286" />
  <defs
     id="defs5288">
    <linearGradient
       id="e"
       y2="48"
       gradientUnits="userSpaceOnUse"
       x2="69"
       gradientTransform="matrix(0,-1,1,0,84,98.4)"
       y1="48"
       x1="27">
      <stop
         stop-color="#c80000"
         offset="0"
         id="stop5291" />
      <stop
         stop-color="#f3604d"
         offset="1"
         id="stop5293" />
    </linearGradient>
    <filter
       id="d"
       color-interpolation-filters="sRGB">
      <feGaussianBlur
         stdDeviation="0.87384176"
         id="feGaussianBlur5296" />
    </filter>
    <linearGradient
       id="f"
       y2="4.6406"
       gradientUnits="userSpaceOnUse"
       x2="6.0964"
       y1="8.6836"
       x1="8.9893">
      <stop
         stop-color="#ff7800"
         offset="0"
         id="stop5299" />
      <stop
         stop-color="#fff"
         offset="1"
         id="stop5301" />
    </linearGradient>
    <radialGradient
       id="radialGradient5050"
       gradientUnits="userSpaceOnUse"
       cy="20.493999"
       cx="35.292999"
       gradientTransform="matrix(0,-0.84302,1.0202,0,-4.8963249,41.059418)"
       r="16.955999">
      <stop
         stop-color="#73d216"
         offset="0"
         id="stop5052"
         style="stop-color:#ef0b0b;stop-opacity:1" />
      <stop
         stop-color="#4e9a06"
         offset="1"
         id="stop5054"
         style="stop-color:#f52727;stop-opacity:1" />
    </radialGradient>
    <radialGradient
       inkscape:collect="always"
       xlink:href="#radialGradient5050-5"
       id="radialGradient5048"
       gradientUnits="userSpaceOnUse"
       gradientTransform="matrix(0.33544035,0.33544035,0.39413145,-0.39413145,19.911706,959.26466)"
       cx="18.496571"
       cy="-18.924658"
       fx="18.496571"
       fy="-18.924658"
       r="16.955999" />
    <radialGradient
       id="radialGradient5050-5"
       gradientUnits="userSpaceOnUse"
       cy="20.493999"
       cx="35.292999"
       gradientTransform="matrix(0,-0.84302,1.0202,0,-4.8963249,41.059418)"
       r="16.955999">
      <stop
         stop-color="#73d216"
         offset="0"
         id="stop5052-3"
         style="stop-color:#ef0b0b;stop-opacity:1" />
      <stop
         stop-color="#4e9a06"
         offset="1"
         id="stop5054-5"
         style="stop-color:#f52727;stop-opacity:1" />
    </radialGradient>
    <radialGradient
       inkscape:collect="always"
       xlink:href="#radialGradient5050-5"
       id="radialGradient4313"
       gradientUnits="userSpaceOnUse"
       gradientTransform="matrix(0.33544035,0.33544035,0.39413145,-0.39413145,19.911706,959.26466)"
       cx="18.496571"
       cy="-18.924658"
       fx="18.496571"
       fy="-18.924658"
       r="16.955999" />
    <radialGradient
       id="radialGradient4315"
       gradientUnits="userSpaceOnUse"
       cy="20.493999"
       cx="35.292999"
       gradientTransform="matrix(0,-0.84302,1.0202,0,-4.8963249,41.059418)"
       r="16.955999">
      <stop
         stop-color="#73d216"
         offset="0"
         id="stop4317"
         style="stop-color:#ef0b0b;stop-opacity:1" />
      <stop
         stop-color="#4e9a06"
         offset="1"
         id="stop4319"
         style="stop-color:#f52727;stop-opacity:1" />
    </radialGradient>
    <radialGradient
       r="16.955999"
       fy="-18.924658"
       fx="18.496571"
       cy="-18.924658"
       cx="18.496571"
       gradientTransform="matrix(0.33544035,0.33544035,0.39413145,-0.39413145,19.911706,959.26466)"
       gradientUnits="userSpaceOnUse"
       id="radialGradient4324"
       xlink:href="#radialGradient5050-5"
       inkscape:collect="always" />
  </defs>
  <g
     transform="matrix(2.9379,0,0,2.1996,-4.1441925,21.378942)"
     id="g5303">
    <rect
       height="16"
       width="16"
       y="0"
       x="0"
       id="rect5305"
       style="fill-opacity:0" />
  </g>
  <g
     transform="matrix(1.0485,0,0,1.0797,52.489008,12.289342)"
     id="g5307">
    <g
       transform="translate(3.2994,2.4579)"
       id="g5309"
       style="opacity:0.72655999;filter:url(#d)">
      <path
         d="m -54.362,18.441 35.418,-3e-6 0,3.449 -35.418,3e-6 0,-3.449 z"
         id="path5311"
         inkscape:connector-curvature="0" />
      <path
         d="m -38.424,37.41 -2e-6,-34.49 3.5418,0 3e-6,34.49 -3.5418,0 z"
         id="path5313"
         inkscape:connector-curvature="0" />
      <path
         d="m 10.5,6.75 a 2.25,2.25 0 1 1 -4.5,0 2.25,2.25 0 1 1 4.5,0 z"
         transform="matrix(4.46,0,0,4.0877,-73.448,-7.4267)"
         id="path5315"
         inkscape:connector-curvature="0" />
      <path
         d="m 10.5,6.75 a 2.25,2.25 0 1 1 -4.5,0 2.25,2.25 0 1 1 4.5,0 z"
         transform="matrix(3.4106,0,0,3.0657,-64.79,-0.52878)"
         id="path5317"
         inkscape:connector-curvature="0" />
    </g>
    <path
       d="m -54.362,18.441 35.418,-3e-6 0,3.449 -35.418,3e-6 0,-3.449 z"
       id="path5319"
       inkscape:connector-curvature="0"
       style="fill:#007d00" />
    <path
       d="m -38.424,37.41 -2e-6,-34.49 3.5418,0 3e-6,34.49 -3.5418,0 z"
       id="path5321"
       inkscape:connector-curvature="0"
       style="fill:#007d00" />
    <path
       d="m 10.5,6.75 a 2.25,2.25 0 1 1 -4.5,0 2.25,2.25 0 1 1 4.5,0 z"
       transform="matrix(4.46,0,0,4.0877,-73.448,-7.4267)"
       id="path5323"
       inkscape:connector-curvature="0" />
    <path
       d="m 10.5,6.75 a 2.25,2.25 0 1 1 -4.5,0 2.25,2.25 0 1 1 4.5,0 z"
       transform="matrix(3.4106,0,0,3.0657,-64.79,-0.52878)"
       id="path5325"
       style="fill:url(#f)"
       inkscape:connector-curvature="0" />
  </g>
  <g
     transform="matrix(1.2896131,0,0,1.2896131,8.2661286,-1239.8275)"
     id="g5102">
    <path
       inkscape:connector-curvature="0"
       id="path5100"
       d="m 24.145508,963.6874 -5.313766,5.31377 -5.313816,-5.31382 -4.1814755,4.18148 5.3138155,5.31381 -5.3137447,5.31375 4.1814407,4.18144 5.313745,-5.31375 5.313815,5.31382 4.181476,-4.18148 -5.313815,-5.31381 5.313766,-5.31377 -4.181441,-4.18144 z"
       style="color:#000000;clip-rule:nonzero;display:inline;overflow:visible;visibility:visible;opacity:1;isolation:auto;mix-blend-mode:normal;color-interpolation:sRGB;color-interpolation-filters:linearRGB;solid-color:#000000;solid-opacity:1;fill:url(#radialGradient4324);fill-opacity:1;fill-rule:evenodd;stroke:#ffffff;stroke-width:4;stroke-linecap:round;stroke-linejoin:round;stroke-miterlimit:10;stroke-dasharray:none;stroke-dashoffset:0;stroke-opacity:1;color-rendering:auto;image-rendering:auto;shape-rendering:auto;text-rendering:auto;enable-background:accumulate" />
    <path
       style="color:#000000;clip-rule:nonzero;display:inline;overflow:visible;visibility:visible;opacity:1;isolation:auto;mix-blend-mode:normal;color-interpolation:sRGB;color-interpolation-filters:linearRGB;solid-color:#000000;solid-opacity:1;fill:url(#radialGradient5048);fill-opacity:1;fill-rule:evenodd;stroke:#000000;stroke-width:1.72931588;stroke-linecap:round;stroke-linejoin:round;stroke-miterlimit:10;stroke-dasharray:none;stroke-dashoffset:0;stroke-opacity:1;color-rendering:auto;image-rendering:auto;shape-rendering:auto;text-rendering:auto;enable-background:accumulate"
       d="m 24.145508,963.6874 -5.313766,5.31377 -5.313816,-5.31382 -4.1814755,4.18148 5.3138155,5.31381 -5.3137447,5.31375 4.1814407,4.18144 5.313745,-5.31375 5.313815,5.31382 4.181476,-4.18148 -5.313815,-5.31381 5.313766,-5.31377 -4.181441,-4.18144 z"
       id="path5046"
       inkscape:connector-curvature="0" />
  </g>
</svg>
