<?xml version="1.0" encoding="UTF-8" standalone="no"?>
<svg
   xmlns:dc="http://purl.org/dc/elements/1.1/"
   xmlns:cc="http://creativecommons.org/ns#"
   xmlns:rdf="http://www.w3.org/1999/02/22-rdf-syntax-ns#"
   xmlns:svg="http://www.w3.org/2000/svg"
   xmlns="http://www.w3.org/2000/svg"
   xmlns:xlink="http://www.w3.org/1999/xlink"
   xmlns:sodipodi="http://sodipodi.sourceforge.net/DTD/sodipodi-0.dtd"
   xmlns:inkscape="http://www.inkscape.org/namespaces/inkscape"
   height="48"
   width="48"
   version="1.1"
   id="svg2"
   inkscape:version="0.91 r13725"
   sodipodi:docname="delete_rectangle.svg">
  <metadata
     id="metadata69">
    <rdf:RDF>
      <cc:Work
         rdf:about="">
        <dc:format>image/svg+xml</dc:format>
        <dc:type
           rdf:resource="http://purl.org/dc/dcmitype/StillImage" />
        <dc:title />
      </cc:Work>
    </rdf:RDF>
  </metadata>
  <sodipodi:namedview
     pagecolor="#ffffff"
     bordercolor="#666666"
     borderopacity="1"
     objecttolerance="10"
     gridtolerance="10"
     guidetolerance="10"
     inkscape:pageopacity="0"
     inkscape:pageshadow="2"
     inkscape:window-width="1855"
     inkscape:window-height="1056"
     id="namedview67"
     showgrid="false"
     inkscape:zoom="7.0987676"
     inkscape:cx="3.4599949"
     inkscape:cy="0.20482065"
     inkscape:window-x="65"
     inkscape:window-y="24"
     inkscape:window-maximized="1"
     inkscape:current-layer="svg2" />
  <defs
     id="defs4">
    <linearGradient
       id="a"
       y2="4.6406"
       gradientUnits="userSpaceOnUse"
       x2="6.0964"
       y1="8.6836"
       x1="8.9893">
      <stop
         stop-color="#ff7800"
         offset="0"
         id="stop7" />
      <stop
         stop-color="#fff"
         offset="1"
         id="stop9" />
    </linearGradient>
    <filter
       id="d"
       color-interpolation-filters="sRGB">
      <feGaussianBlur
         stdDeviation="1.7161664"
         id="feGaussianBlur12" />
    </filter>
    <linearGradient
       id="e"
       y2="48"
       gradientUnits="userSpaceOnUse"
       x2="69"
       gradientTransform="matrix(0,-1,1,0,84,98.4)"
       y1="48"
       x1="27">
      <stop
         stop-color="#c80000"
         offset="0"
         id="stop15" />
      <stop
         stop-color="#f3604d"
         offset="1"
         id="stop17" />
    </linearGradient>
    <linearGradient
       inkscape:collect="always"
       xlink:href="#a"
       id="linearGradient2881"
       gradientUnits="userSpaceOnUse"
       x1="8.9893"
       y1="8.6836"
       x2="6.0964"
       y2="4.6406" />
    <linearGradient
       inkscape:collect="always"
       xlink:href="#a"
       id="linearGradient2883"
       gradientUnits="userSpaceOnUse"
       x1="8.9893"
       y1="8.6836"
       x2="6.0964"
       y2="4.6406" />
    <linearGradient
       inkscape:collect="always"
       xlink:href="#a"
       id="linearGradient2886"
       gradientUnits="userSpaceOnUse"
       x1="8.9893"
       y1="8.6836"
       x2="6.0964"
       y2="4.6406"
       gradientTransform="matrix(1.2986056,0,0,1.1744153,20.27264,31.554489)" />
    <linearGradient
       inkscape:collect="always"
       xlink:href="#a"
       id="linearGradient2890"
       gradientUnits="userSpaceOnUse"
       x1="8.9893"
       y1="8.6836"
       x2="6.0964"
       y2="4.6406"
       gradientTransform="matrix(1.2986056,0,0,1.1744153,-5.441994,8.3008414)" />
    <radialGradient
       id="radialGradient5050"
       gradientUnits="userSpaceOnUse"
       cy="20.493999"
       cx="35.292999"
       gradientTransform="matrix(0,-0.84302,1.0202,0,-4.8963249,41.059418)"
       r="16.955999">
      <stop
         stop-color="#73d216"
         offset="0"
         id="stop5052"
         style="stop-color:#ef0b0b;stop-opacity:1" />
      <stop
         stop-color="#4e9a06"
         offset="1"
         id="stop5054"
         style="stop-color:#f52727;stop-opacity:1" />
    </radialGradient>
    <radialGradient
       inkscape:collect="always"
       xlink:href="#radialGradient5050-3"
       id="radialGradient5048"
       gradientUnits="userSpaceOnUse"
       gradientTransform="matrix(0.33544035,0.33544035,0.39413145,-0.39413145,19.911706,959.26466)"
       cx="18.496571"
       cy="-18.924658"
       fx="18.496571"
       fy="-18.924658"
       r="16.955999" />
    <radialGradient
       id="radialGradient5050-3"
       gradientUnits="userSpaceOnUse"
       cy="20.493999"
       cx="35.292999"
       gradientTransform="matrix(0,-0.84302,1.0202,0,-4.8963249,41.059418)"
       r="16.955999">
      <stop
         stop-color="#73d216"
         offset="0"
         id="stop5052-6"
         style="stop-color:#ef0b0b;stop-opacity:1" />
      <stop
         stop-color="#4e9a06"
         offset="1"
         id="stop5054-7"
         style="stop-color:#f52727;stop-opacity:1" />
    </radialGradient>
    <radialGradient
       inkscape:collect="always"
       xlink:href="#radialGradient5050-3"
       id="radialGradient4313"
       gradientUnits="userSpaceOnUse"
       gradientTransform="matrix(0.33544035,0.33544035,0.39413145,-0.39413145,19.911706,959.26466)"
       cx="18.496571"
       cy="-18.924658"
       fx="18.496571"
       fy="-18.924658"
       r="16.955999" />
    <radialGradient
       id="radialGradient4315"
       gradientUnits="userSpaceOnUse"
       cy="20.493999"
       cx="35.292999"
       gradientTransform="matrix(0,-0.84302,1.0202,0,-4.8963249,41.059418)"
       r="16.955999">
      <stop
         stop-color="#73d216"
         offset="0"
         id="stop4317"
         style="stop-color:#ef0b0b;stop-opacity:1" />
      <stop
         stop-color="#4e9a06"
         offset="1"
         id="stop4319"
         style="stop-color:#f52727;stop-opacity:1" />
    </radialGradient>
    <radialGradient
       r="16.955999"
       fy="-18.924658"
       fx="18.496571"
       cy="-18.924658"
       cx="18.496571"
       gradientTransform="matrix(0.33544035,0.33544035,0.39413145,-0.39413145,19.911706,959.26466)"
       gradientUnits="userSpaceOnUse"
       id="radialGradient4324"
       xlink:href="#radialGradient5050-3"
       inkscape:collect="always" />
  </defs>
  <g
     style="opacity:0.60938003;filter:url(#d)"
     id="g21"
     transform="matrix(0.71921,0,0,0.70173,-60.389638,-12.981226)">
    <path
       id="path23"
       d="m 96.125,43.619 -3.25,3.0125 v 33.138 l 3.25,3.0125 h 35.75 l 3.25,-3.0125 v -33.138 l -3.25,-3.0125 h -35.75 z m 3.25,6.025 h 29.25 V 76.757 H 99.39 V 49.644 z" />
    <path
       id="path25"
       transform="matrix(2.8889,0,0,2.6778,72.292,28.556)"
       d="m 10.5,6.75 a 2.25,2.25 0 1 1 -4.5,0 2.25,2.25 0 1 1 4.5,0 z" />
    <path
       id="path27"
       transform="matrix(1.8056,0,0,1.6736,81.229,35.334)"
       d="m 10.5,6.75 a 2.25,2.25 0 1 1 -4.5,0 2.25,2.25 0 1 1 4.5,0 z" />
    <path
       id="path29"
       transform="matrix(2.8889,0,0,2.6778,108.04,61.694)"
       d="m 10.5,6.75 a 2.25,2.25 0 1 1 -4.5,0 2.25,2.25 0 1 1 4.5,0 z" />
    <path
       id="path31"
       transform="matrix(1.8056,0,0,1.6736,116.98,68.472)"
       d="m 10.5,6.75 a 2.25,2.25 0 1 1 -4.5,0 2.25,2.25 0 1 1 4.5,0 z" />
  </g>
  <path
     style="fill:#2c2cff;fill-opacity:1"
     id="path33"
     d="m 5.274235,14.113973 -2.3374325,2.113961 0,23.253929 2.3374325,2.113962 25.711757,0 2.337433,-2.113962 0,-23.253929 -2.337433,-2.113961 -25.711757,0 z m 2.3374325,4.227923 21.0368925,0 0,19.026006 -21.0368925,0 0,-19.026006 z" />
  <path
     id="path35"
     d="m 9.9515819,16.228391 a 4.674883,4.2279583 0 0 1 -9.3497661,0 4.674883,4.2279583 0 1 1 9.3497661,0 z" />
  <path
     style="fill:url(#linearGradient2890)"
     id="path37"
     d="m 8.1933648,16.228145 a 2.9218626,2.6424344 0 0 1 -5.8437252,0 2.9218626,2.6424344 0 1 1 5.8437252,0 z" />
  <path
     id="path39"
     d="m 35.661182,39.481961 a 4.6748831,4.2279584 0 0 1 -9.349766,0 4.6748831,4.2279584 0 1 1 9.349766,0 z" />
  <path
     style="fill:url(#linearGradient2886)"
     id="path41"
     d="m 33.907999,39.481792 a 2.9218626,2.6424344 0 0 1 -5.843725,0 2.9218626,2.6424344 0 1 1 5.843725,0 z" />
  <g
     transform="matrix(2.4566,0,0,2.2316,-37.589,-39.022)"
     id="g43">
    <rect
       fill-opacity="0"
       height="16"
       width="16"
       y="0"
       x="0"
       id="rect45" />
  </g>
  <g
     transform="matrix(2.5347 0 0 1.9535 .69206 16.016)"
     id="g47">
    <rect
       fill-opacity="0"
       height="16"
       width="16"
       y="0"
       x="0"
       id="rect49" />
  </g>
  <rect
     fill-opacity="0"
     height="38.871"
     width="43.287"
     y="-47.036"
     x="-74.787"
     id="rect51" />
  <g
     transform="matrix(1.2389656,0,0,1.2389656,10.425995,-1191.4977)"
     id="g5102">
    <path
       inkscape:connector-curvature="0"
       id="path5100"
       d="m 24.145508,963.6874 -5.313766,5.31377 -5.313816,-5.31382 -4.1814755,4.18148 5.3138155,5.31381 -5.3137447,5.31375 4.1814407,4.18144 5.313745,-5.31375 5.313815,5.31382 4.181476,-4.18148 -5.313815,-5.31381 5.313766,-5.31377 -4.181441,-4.18144 z"
       style="color:#000000;clip-rule:nonzero;display:inline;overflow:visible;visibility:visible;opacity:1;isolation:auto;mix-blend-mode:normal;color-interpolation:sRGB;color-interpolation-filters:linearRGB;solid-color:#000000;solid-opacity:1;fill:url(#radialGradient4324);fill-opacity:1;fill-rule:evenodd;stroke:#ffffff;stroke-width:4;stroke-linecap:round;stroke-linejoin:round;stroke-miterlimit:10;stroke-dasharray:none;stroke-dashoffset:0;stroke-opacity:1;color-rendering:auto;image-rendering:auto;shape-rendering:auto;text-rendering:auto;enable-background:accumulate" />
    <path
       style="color:#000000;clip-rule:nonzero;display:inline;overflow:visible;visibility:visible;opacity:1;isolation:auto;mix-blend-mode:normal;color-interpolation:sRGB;color-interpolation-filters:linearRGB;solid-color:#000000;solid-opacity:1;fill:url(#radialGradient5048);fill-opacity:1;fill-rule:evenodd;stroke:#000000;stroke-width:1.72931588;stroke-linecap:round;stroke-linejoin:round;stroke-miterlimit:10;stroke-dasharray:none;stroke-dashoffset:0;stroke-opacity:1;color-rendering:auto;image-rendering:auto;shape-rendering:auto;text-rendering:auto;enable-background:accumulate"
       d="m 24.145508,963.6874 -5.313766,5.31377 -5.313816,-5.31382 -4.1814755,4.18148 5.3138155,5.31381 -5.3137447,5.31375 4.1814407,4.18144 5.313745,-5.31375 5.313815,5.31382 4.181476,-4.18148 -5.313815,-5.31381 5.313766,-5.31377 -4.181441,-4.18144 z"
       id="path5046"
       inkscape:connector-curvature="0" />
  </g>
</svg>
