<?xml version="1.0" encoding="UTF-8" standalone="no"?>
<svg
   xmlns:dc="http://purl.org/dc/elements/1.1/"
   xmlns:cc="http://creativecommons.org/ns#"
   xmlns:rdf="http://www.w3.org/1999/02/22-rdf-syntax-ns#"
   xmlns:svg="http://www.w3.org/2000/svg"
   xmlns="http://www.w3.org/2000/svg"
   xmlns:xlink="http://www.w3.org/1999/xlink"
   xmlns:sodipodi="http://sodipodi.sourceforge.net/DTD/sodipodi-0.dtd"
   xmlns:inkscape="http://www.inkscape.org/namespaces/inkscape"
   height="48"
   width="48"
   version="1.1"
   id="svg3042"
   inkscape:version="0.91 r13725"
   sodipodi:docname="delete_field.svg">
  <metadata
     id="metadata3075">
    <rdf:RDF>
      <cc:Work
         rdf:about="">
        <dc:format>image/svg+xml</dc:format>
        <dc:type
           rdf:resource="http://purl.org/dc/dcmitype/StillImage" />
        <dc:title />
      </cc:Work>
    </rdf:RDF>
  </metadata>
  <sodipodi:namedview
     pagecolor="#ffffff"
     bordercolor="#666666"
     borderopacity="1"
     objecttolerance="10"
     gridtolerance="10"
     guidetolerance="10"
     inkscape:pageopacity="0"
     inkscape:pageshadow="2"
     inkscape:window-width="1855"
     inkscape:window-height="1056"
     id="namedview3073"
     showgrid="false"
     inkscape:zoom="5.7347481"
     inkscape:cx="-16.641678"
     inkscape:cy="9.3103648"
     inkscape:window-x="65"
     inkscape:window-y="24"
     inkscape:window-maximized="1"
     inkscape:current-layer="svg3042" />
  <defs
     id="defs3044">
    <linearGradient
       id="a"
       y2="48"
       gradientUnits="userSpaceOnUse"
       x2="69"
       gradientTransform="matrix(0,-1,1,0,84,98.4)"
       y1="48"
       x1="27">
      <stop
         stop-color="#c80000"
         offset="0"
         id="stop3047" />
      <stop
         stop-color="#f3604d"
         offset="1"
         id="stop3049" />
    </linearGradient>
    <radialGradient
       id="radialGradient5050"
       gradientUnits="userSpaceOnUse"
       cy="20.493999"
       cx="35.292999"
       gradientTransform="matrix(0,-0.84302,1.0202,0,-4.8963249,41.059418)"
       r="16.955999">
      <stop
         stop-color="#73d216"
         offset="0"
         id="stop5052"
         style="stop-color:#ef0b0b;stop-opacity:1" />
      <stop
         stop-color="#4e9a06"
         offset="1"
         id="stop5054"
         style="stop-color:#f52727;stop-opacity:1" />
    </radialGradient>
    <radialGradient
       inkscape:collect="always"
       xlink:href="#radialGradient5050-3"
       id="radialGradient5048"
       gradientUnits="userSpaceOnUse"
       gradientTransform="matrix(0.33544035,0.33544035,0.39413145,-0.39413145,19.911706,959.26466)"
       cx="18.496571"
       cy="-18.924658"
       fx="18.496571"
       fy="-18.924658"
       r="16.955999" />
    <radialGradient
       id="radialGradient5050-3"
       gradientUnits="userSpaceOnUse"
       cy="20.493999"
       cx="35.292999"
       gradientTransform="matrix(0,-0.84302,1.0202,0,-4.8963249,41.059418)"
       r="16.955999">
      <stop
         stop-color="#73d216"
         offset="0"
         id="stop5052-6"
         style="stop-color:#ef0b0b;stop-opacity:1" />
      <stop
         stop-color="#4e9a06"
         offset="1"
         id="stop5054-7"
         style="stop-color:#f52727;stop-opacity:1" />
    </radialGradient>
    <radialGradient
       inkscape:collect="always"
       xlink:href="#radialGradient5050-3"
       id="radialGradient4313"
       gradientUnits="userSpaceOnUse"
       gradientTransform="matrix(0.33544035,0.33544035,0.39413145,-0.39413145,19.911706,959.26466)"
       cx="18.496571"
       cy="-18.924658"
       fx="18.496571"
       fy="-18.924658"
       r="16.955999" />
    <radialGradient
       id="radialGradient4315"
       gradientUnits="userSpaceOnUse"
       cy="20.493999"
       cx="35.292999"
       gradientTransform="matrix(0,-0.84302,1.0202,0,-4.8963249,41.059418)"
       r="16.955999">
      <stop
         stop-color="#73d216"
         offset="0"
         id="stop4317"
         style="stop-color:#ef0b0b;stop-opacity:1" />
      <stop
         stop-color="#4e9a06"
         offset="1"
         id="stop4319"
         style="stop-color:#f52727;stop-opacity:1" />
    </radialGradient>
    <radialGradient
       r="16.955999"
       fy="-18.924658"
       fx="18.496571"
       cy="-18.924658"
       cx="18.496571"
       gradientTransform="matrix(0.33544035,0.33544035,0.39413145,-0.39413145,19.911706,959.26466)"
       gradientUnits="userSpaceOnUse"
       id="radialGradient4324"
       xlink:href="#radialGradient5050-3"
       inkscape:collect="always" />
  </defs>
  <g
     transform="scale(.88968 1.124)"
     style="font-size:44.95999908px;line-height:125%;letter-spacing:0px;word-spacing:0px;fill:#000000;font-family:Sans"
     id="text3051">
    <path
       d="m 16.789184,37.088988 c -1.4e-5,-0.76057 0.222912,-1.27199 0.66878,-1.53426 0.445838,-0.288489 1.088391,-0.432736 1.92766,-0.43274 l 0.90482,0 -0.90482,-2.28172 -9.36292,0 -0.9048204,2.28172 0.9048204,0 c 1.730951,4e-6 2.59643,0.65567 2.59644,1.967 -10e-6,1.311334 -0.865489,1.967 -2.59644,1.967 l -5.2322204,0 c -1.7309601,0 -2.5964392,-0.655666 -2.59644,-1.967 8e-7,-0.786797 0.2360406,-1.31133 0.70812,-1.5736 0.445853,-0.262263 1.0884057,-0.393396 1.92766,-0.3934 l 6.0977004,-15.06722 -2.4784204,0 c -1.7571904,1.9e-5 -2.6357828,-0.655647 -2.63578,-1.967 -2.8e-6,-0.786778 0.2229236,-1.311311 0.66878,-1.5736 0.472076,-0.262244 1.1277421,-0.393377 1.967,-0.3934 l 8.4974404,0 7.82866,19.00122 c 1.783389,4e-6 2.675095,0.65567 2.67512,1.967 -2.5e-5,1.311334 -0.865504,1.967 -2.59644,1.967 l -5.46826,0 c -1.730975,0 -2.596454,-0.655666 -2.59644,-1.967 m 0.9835,-8.18272 -3.06852,-7.55328 -3.10786,7.55328 6.17638,0"
       style="font-size:39.34000015px;font-weight:bold;letter-spacing:3.95650005px;font-family:FreeMono"
       id="path3143" />
    <path
       d="m 33.673175,39.055988 c -1.730961,0 -2.59644,-0.655666 -2.59644,-1.967 0,-1.31133 0.865479,-1.966996 2.59644,-1.967 l 0.5901,0 0,-15.06722 -0.5901,0 c -1.730961,1.9e-5 -2.59644,-0.655647 -2.59644,-1.967 0,-0.760551 0.222926,-1.271971 0.66878,-1.53426 0.472079,-0.28847 1.114631,-0.432717 1.92766,-0.43274 l 9.95302,0 c 2.229252,2.3e-5 4.065117,0.616349 5.5076,1.84898 1.468674,1.232673 2.20302,2.780045 2.20304,4.64212 -2e-5,1.678522 -0.82616,3.160327 -2.47842,4.44542 2.780006,1.390024 4.170018,3.291456 4.17004,5.7043 -2.2e-5,1.888325 -0.708141,3.40947 -2.12436,4.56344 -1.416259,1.153974 -3.291463,1.73096 -5.62562,1.73096 l -11.6053,0 m 4.5241,-13.45428 4.44542,0 c 1.416227,1.4e-5 2.557086,-0.275366 3.42258,-0.82614 0.891691,-0.576972 1.337543,-1.311317 1.33756,-2.20304 -1.7e-5,-0.786782 -0.354076,-1.403109 -1.06218,-1.84898 -0.708135,-0.445834 -1.67852,-0.668761 -2.91116,-0.66878 l -5.23222,0 0,5.54694 m 10.89718,7.39592 c -1.8e-5,-1.049059 -0.511438,-1.888312 -1.53426,-2.51776 -1.022856,-0.629431 -2.373528,-0.94415 -4.05202,-0.94416 l -5.3109,0 0,5.58628 6.8845,0 c 2.675103,4e-6 4.012662,-0.708115 4.01268,-2.12436"
       style="font-size:39.34000015px;font-weight:bold;letter-spacing:3.95650005px;font-family:FreeMono"
       id="path3145" />
  </g>
  <g
     transform="matrix(2.9379,0,0,2.1996,1.1578,13.241)"
     id="g3055">
    <rect
       fill-opacity="0"
       height="16"
       width="16"
       y="0"
       x="0"
       id="rect3057" />
  </g>
  <g
     transform="matrix(1.1744485,0,0,1.1744485,12.3826,-1129.4524)"
     id="g5102">
    <path
       inkscape:connector-curvature="0"
       id="path5100"
       d="m 24.145508,963.6874 -5.313766,5.31377 -5.313816,-5.31382 -4.1814755,4.18148 5.3138155,5.31381 -5.3137447,5.31375 4.1814407,4.18144 5.313745,-5.31375 5.313815,5.31382 4.181476,-4.18148 -5.313815,-5.31381 5.313766,-5.31377 -4.181441,-4.18144 z"
       style="color:#000000;clip-rule:nonzero;display:inline;overflow:visible;visibility:visible;opacity:1;isolation:auto;mix-blend-mode:normal;color-interpolation:sRGB;color-interpolation-filters:linearRGB;solid-color:#000000;solid-opacity:1;fill:url(#radialGradient4324);fill-opacity:1;fill-rule:evenodd;stroke:#ffffff;stroke-width:4;stroke-linecap:round;stroke-linejoin:round;stroke-miterlimit:10;stroke-dasharray:none;stroke-dashoffset:0;stroke-opacity:1;color-rendering:auto;image-rendering:auto;shape-rendering:auto;text-rendering:auto;enable-background:accumulate" />
    <path
       style="color:#000000;clip-rule:nonzero;display:inline;overflow:visible;visibility:visible;opacity:1;isolation:auto;mix-blend-mode:normal;color-interpolation:sRGB;color-interpolation-filters:linearRGB;solid-color:#000000;solid-opacity:1;fill:url(#radialGradient5048);fill-opacity:1;fill-rule:evenodd;stroke:#000000;stroke-width:1.72931588;stroke-linecap:round;stroke-linejoin:round;stroke-miterlimit:10;stroke-dasharray:none;stroke-dashoffset:0;stroke-opacity:1;color-rendering:auto;image-rendering:auto;shape-rendering:auto;text-rendering:auto;enable-background:accumulate"
       d="m 24.145508,963.6874 -5.313766,5.31377 -5.313816,-5.31382 -4.1814755,4.18148 5.3138155,5.31381 -5.3137447,5.31375 4.1814407,4.18144 5.313745,-5.31375 5.313815,5.31382 4.181476,-4.18148 -5.313815,-5.31381 5.313766,-5.31377 -4.181441,-4.18144 z"
       id="path5046"
       inkscape:connector-curvature="0" />
  </g>
</svg>
