<svg xmlns="http://www.w3.org/2000/svg" height="48" width="48" version="1.1">
 <defs>
  <linearGradient id="n" y2="48" gradientUnits="userSpaceOnUse" x2="69" gradientTransform="matrix(0,-1,1,0,84,98.4)" y1="48" x1="27">
   <stop stop-color="#c80000" offset="0"/>
   <stop stop-color="#f3604d" offset="1"/>
  </linearGradient>
  <filter id="j" color-interpolation-filters="sRGB">
   <feGaussianBlur stdDeviation="0.11294425"/>
  </filter>
  <marker id="i" refY="0" refX="0" overflow="visible" orient="auto">
   <path stroke-linejoin="round" d="m8.7186 4.0337-10.926-4.0177 10.926-4.0177c-1.7455 2.3721-1.7354 5.6175-6e-7 8.0354z" fill-rule="evenodd" transform="scale(.6)" stroke-width=".625"/>
  </marker>
  <marker id="h" refY="0" refX="0" overflow="visible" orient="auto">
   <path stroke-linejoin="round" d="m8.7186 4.0337-10.926-4.0177 10.926-4.0177c-1.7455 2.3721-1.7354 5.6175-6e-7 8.0354z" fill-rule="evenodd" transform="scale(-.6)" stroke-width=".625"/>
  </marker>
  <filter id="k" height="38.835" width="1.0879" color-interpolation-filters="sRGB" y="-18.917" x="-.043948">
   <feGaussianBlur stdDeviation="0.23111596"/>
  </filter>
  <filter id="l" height="1.1117" width="2.1169" color-interpolation-filters="sRGB" y="-.055846" x="-.55846">
   <feGaussianBlur stdDeviation="0.23269231"/>
  </filter>
  <filter id="m" height="1.1117" width="2.1169" color-interpolation-filters="sRGB" y="-.055846" x="-.55846">
   <feGaussianBlur stdDeviation="0.23269231"/>
  </filter>
 </defs>
 <rect opacity=".45312" transform="matrix(-2.9379,0,0,2.1996,15.604,18.074)" height="10" filter="url(#m)" width="1" y="3.35" x="3.375"/>
 <rect opacity=".47266" transform="matrix(-2.9379,0,0,2.1996,56.441,17.854)" height="10" filter="url(#l)" width="1" y="3.35" x="3.375"/>
 <path opacity=".49609" marker-end="url(#h)" d="m81.485 4.0679 12.621-0.0293" marker-start="url(#i)" transform="matrix(2.9379,0,0,2.1996,-233.23,24.403)" filter="url(#k)" stroke="#000" stroke-width=".81649px" fill="none"/>
 <path marker-end="url(#h)" d="m4.7655 31.839 37.08-0.06449" marker-start="url(#i)" stroke="#000" stroke-width="2.0756px" fill="none"/>
 <rect height="21.996" width="2.9379" y="24.317" x="1.1577" fill="#00009b"/>
 <rect transform="scale(-1,1)" height="21.996" width="2.9379" y="24.317" x="-45.226" fill="#00009b"/>
 <g transform="matrix(2.9379,0,0,2.1996,1.1578,13.241)">
  <rect fill-opacity="0" height="16" width="16" y="0" x="0"/>
 </g>
 <path opacity=".44922" d="m85.283 0.33485 0.00001-5.0355h1l2 2.5355 0.00001-2.5355h1l-0.00001 5.0355h-1v-1l-2-2.5355-0.00001 3.5355h-1z" fill-rule="evenodd" transform="matrix(2.9379,0,0,2.1996,-241.1,22.007)" filter="url(#j)"/>
 <path fill-rule="evenodd" d="m7.9941 20.579 0.00003-11.076h2.9379l5.8758 5.5771 0.000029-5.5771h2.9379l-0.00003 11.076h-2.9379v-2.1996l-5.8758-5.5771-0.000029 7.7766h-2.9379z"/>
 <g transform="matrix(.563 0 0 .54383 -38.717 -14.798)">
  <path opacity=".1" d="m143.47 28.369a0.98823 0.98823 0 0 0 0 0.03125c-0.0003 0.000032-0.1872-0.000059-0.1875 0s-0.15596 0.06241-0.15625 0.0625c-0.00029 0.000086-0.18722 0.06239-0.1875 0.0625-0.00028 0.000111-0.15598 0.06236-0.15625 0.0625-0.00027 0.000136-0.15599 0.09359-0.15625 0.09375s-0.15601 0.09357-0.15625 0.09375c-0.00024 0.000182-0.12477 0.09355-0.125 0.09375-0.0002 0.000178-0.0694 0.10112-0.0937 0.125-0.004 0.0034-0.0312-0.000028-0.0312 0l-10.22 10.25-10.25-10.25c-0.00014-0.000139-0.0623-0.09362-0.0625-0.09375-0.00015-0.00013-0.0936-0.06238-0.0937-0.0625-0.00015-0.000122-0.0936-0.06239-0.0937-0.0625-0.00016-0.000113-0.0936-0.0624-0.0937-0.0625-0.00017-0.000103-0.0936-0.06241-0.0937-0.0625-0.00017-0.000093-0.12482-0.06242-0.125-0.0625-0.00018-0.000083-0.0936-0.03118-0.0937-0.03125-0.00018-0.000073-0.0936-0.06244-0.0937-0.0625-0.00019-0.000062-0.12481-0.0312-0.125-0.03125-0.00019-0.000051-0.12481-0.03121-0.125-0.03125s-0.0936 0.000029-0.0937 0c-0.00019-0.000029-0.1248-0.03123-0.125-0.03125-0.0002-0.000018-0.0935 0.000007-0.0937 0s-0.1248-0.000005-0.125 0-0.1248-0.000016-0.125 0c-0.00014 0.000011-0.029 0.02752-0.0625 0.03125-0.0143 0.0016-0.0312-0.000008-0.0312 0-0.0382 0.0057-0.15602-0.000045-0.15625 0-0.00028 0.000054-0.15597 0.06242-0.15625 0.0625-0.00028 0.000077-0.15598 0.03115-0.15625 0.03125s-0.15599 0.06238-0.15625 0.0625c-0.00026 0.000122-0.156 0.09361-0.15625 0.09375-0.00025 0.000143-0.12477 0.09359-0.125 0.09375-0.00023 0.000164-0.12478 0.09357-0.125 0.09375-0.00022 0.000183-0.1248 0.09355-0.125 0.09375a0.98823 0.98823 0 0 0 0 0.03125l-9.3438 9.3125v0.03125c-0.0191 0.01939-0.0624 0.0624-0.0625 0.0625-0.00012 0.000125-0.0624 0.06237-0.0625 0.0625-0.00011 0.00013-0.0624 0.06236-0.0625 0.0625-0.0001 0.000136-0.0624 0.09361-0.0625 0.09375-0.0001 0.000141-0.0624 0.0936-0.0625 0.09375-0.00009 0.000146-0.0624 0.06235-0.0625 0.0625-0.00008 0.00015-0.0312 0.0936-0.0312 0.09375-0.00007 0.000154-0.0312 0.09359-0.0312 0.09375-0.00007 0.000157-0.0624 0.09359-0.0625 0.09375-0.00006 0.000161-0.0312 0.09359-0.0312 0.09375-0.00005 0.000163 0.00004 0.09358 0 0.09375-0.00004 0.000166-0.0312 0.09358-0.0312 0.09375-0.00003 0.000168-0.0312 0.09358-0.0312 0.09375-0.00003 0.000169 0.00002 0.12483 0 0.125s0.00001 0.09358 0 0.09375c-0.00001 0.000171 0 0.09358 0 0.09375 0 0.000171-0.00001 0.09358 0 0.09375 0.00001 0.000171-0.00002 0.09358 0 0.09375s-0.00003 0.12483 0 0.125c0.00003 0.000169 0.0312 0.09358 0.0312 0.09375 0.00003 0.000168 0.0312 0.09358 0.0312 0.09375 0.00004 0.000166-0.00005 0.09359 0 0.09375 0.00005 0.000163 0.0312 0.09359 0.0312 0.09375 0.00006 0.000161 0.0624 0.09359 0.0625 0.09375 0.00007 0.000157 0.0312 0.0936 0.0312 0.09375 0.00007 0.000154 0.0312 0.0936 0.0312 0.09375 0.00008 0.00015 0.0624 0.06235 0.0625 0.0625 0.00009 0.000146 0.0624 0.09361 0.0625 0.09375 0.0001 0.000141 0.0624 0.09361 0.0625 0.09375 0.0001 0.000136 0.0624 0.06237 0.0625 0.0625 0.00011 0.00013 0.0624 0.06238 0.0625 0.0625 0.00009 0.000096 0.0434 0.04311 0.0625 0.0625 0.006 0.0058-0.00003 0.03122 0 0.03125l10.25 10.219-10.25 10.219v0.03125c-0.0191 0.01939-0.0624 0.0624-0.0625 0.0625-0.00012 0.000125-0.0624 0.06237-0.0625 0.0625-0.00011 0.00013-0.0624 0.06236-0.0625 0.0625-0.0001 0.000136-0.0624 0.09361-0.0625 0.09375-0.0001 0.000141-0.0624 0.0936-0.0625 0.09375-0.00009 0.000146-0.0624 0.06235-0.0625 0.0625-0.00008 0.00015-0.0312 0.0936-0.0312 0.09375-0.00007 0.000154-0.0312 0.09359-0.0312 0.09375-0.00007 0.000157-0.0624 0.09359-0.0625 0.09375-0.00006 0.000161-0.0312 0.09359-0.0312 0.09375-0.00005 0.000163 0.00004 0.09358 0 0.09375-0.00004 0.000166-0.0312 0.09358-0.0312 0.09375-0.00003 0.000168-0.0312 0.09358-0.0312 0.09375-0.00003 0.000169 0.00002 0.12483 0 0.125s0.00001 0.09358 0 0.09375c-0.00001 0.000171 0 0.09358 0 0.09375 0 0.000171-0.00001 0.09358 0 0.09375 0.00001 0.000171-0.00002 0.09358 0 0.09375s-0.00003 0.12483 0 0.125c0.00003 0.000169 0.0312 0.09358 0.0312 0.09375 0.00003 0.000168 0.0312 0.09358 0.0312 0.09375 0.00004 0.000166-0.00005 0.09359 0 0.09375 0.00005 0.000163 0.0312 0.09359 0.0312 0.09375 0.00006 0.000161 0.0624 0.09359 0.0625 0.09375 0.00007 0.000157 0.0312 0.0936 0.0312 0.09375 0.00007 0.000154 0.0312 0.0936 0.0312 0.09375 0.00008 0.00015 0.0624 0.06235 0.0625 0.0625 0.00009 0.000146 0.0624 0.09361 0.0625 0.09375 0.0001 0.000141 0.0624 0.09361 0.0625 0.09375 0.0001 0.000136 0.0624 0.06237 0.0625 0.0625 0.00011 0.00013 0.0624 0.06238 0.0625 0.0625 0.00009 0.000096 0.0434 0.04311 0.0625 0.0625 0.006 0.0058-0.00003 0.03122 0 0.03125l9.3438 9.3125c0.0194 0.01913 0.0624 0.06241 0.0625 0.0625 0.00012 0.000117 0.0624 0.06239 0.0625 0.0625 0.00013 0.000111 0.0624 0.0624 0.0625 0.0625 0.00014 0.000104 0.0936 0.0624 0.0937 0.0625 0.00014 0.000097 0.0936 0.06241 0.0937 0.0625 0.00015 0.00009 0.0623 0.06242 0.0625 0.0625 0.00015 0.000082 0.0936 0.03118 0.0937 0.03125 0.00015 0.000075 0.0936 0.03118 0.0937 0.03125 0.00016 0.000067 0.0936 0.06244 0.0937 0.0625 0.00016 0.000059 0.0936 0.0312 0.0937 0.03125 0.00016 0.000051 0.0936-0.000043 0.0937 0 0.00017 0.000043 0.0936 0.03122 0.0937 0.03125 0.00017 0.000034 0.0936 0.03122 0.0937 0.03125 0.00017 0.000026 0.12483-0.000017 0.125 0s0.0936-0.000009 0.0937 0c0.00017 0.000009 0.0936 0 0.0937 0 0.00017 0 0.0936 0.000009 0.0937 0 0.00017-0.000009 0.0936 0.000017 0.0937 0 0.00017-0.000017 0.12483 0.000026 0.125 0s0.0936-0.03122 0.0937-0.03125c0.00017-0.000034 0.0936-0.03121 0.0937-0.03125 0.00017-0.000043 0.0936 0.000051 0.0937 0 0.00016-0.000051 0.0936-0.03119 0.0937-0.03125 0.00016-0.000059 0.0936-0.06243 0.0937-0.0625 0.00016-0.000067 0.0936-0.03118 0.0937-0.03125 0.00015-0.000075 0.0936-0.03117 0.0937-0.03125 0.00015-0.000082 0.0623-0.06241 0.0625-0.0625 0.00015-0.00009 0.0936-0.0624 0.0937-0.0625 0.00014-0.000097 0.0936-0.0624 0.0937-0.0625 0.00014-0.000104 0.0624-0.06239 0.0625-0.0625 0.00013-0.000111 0.0624-0.06238 0.0625-0.0625 0.0001-0.00009 0.0431-0.04337 0.0625-0.0625h0.0312l10.219-10.25 10.25 10.25c0.0194 0.01913 0.0624 0.06241 0.0625 0.0625 0.00012 0.000117 0.0624 0.06239 0.0625 0.0625 0.00013 0.000111 0.0624 0.0624 0.0625 0.0625 0.00014 0.000104 0.0936 0.0624 0.0937 0.0625 0.00014 0.000097 0.0936 0.06241 0.0937 0.0625 0.00015 0.00009 0.0624 0.06242 0.0625 0.0625 0.00015 0.000082 0.0936 0.03118 0.0937 0.03125 0.00015 0.000075 0.0936 0.03118 0.0937 0.03125 0.00016 0.000067 0.0936 0.06244 0.0937 0.0625 0.00016 0.000059 0.0936 0.0312 0.0937 0.03125 0.00016 0.000051 0.0936-0.000043 0.0937 0 0.00017 0.000043 0.0936 0.03122 0.0937 0.03125 0.00017 0.000034 0.0936 0.03122 0.0937 0.03125 0.00017 0.000026 0.12483-0.000017 0.125 0s0.0936-0.000009 0.0937 0c0.00017 0.000009 0.0936 0 0.0937 0 0.00017 0 0.0936 0.000009 0.0937 0 0.00017-0.000009 0.0936 0.000017 0.0937 0 0.00017-0.000017 0.12483 0.000026 0.125 0s0.0936-0.03122 0.0937-0.03125c0.00017-0.000034 0.0936-0.03121 0.0937-0.03125 0.00017-0.000043 0.0936 0.000051 0.0937 0 0.00016-0.000051 0.0936-0.03119 0.0937-0.03125 0.00016-0.000059 0.0936-0.06243 0.0937-0.0625 0.00016-0.000067 0.0936-0.03118 0.0937-0.03125 0.00015-0.000075 0.0936-0.03117 0.0937-0.03125 0.00015-0.000082 0.0624-0.06241 0.0625-0.0625 0.00015-0.00009 0.0936-0.0624 0.0937-0.0625 0.00014-0.000097 0.0936-0.0624 0.0937-0.0625 0.00014-0.000104 0.0624-0.06239 0.0625-0.0625 0.00013-0.000111 0.0624-0.06238 0.0625-0.0625 0.0001-0.00009 0.0431-0.04337 0.0625-0.0625h0.0312l9.3125-9.3125v-0.03125c0.0191-0.01939 0.0624-0.0624 0.0625-0.0625 0.00012-0.000125 0.0624-0.06237 0.0625-0.0625 0.00011-0.00013 0.0624-0.06236 0.0625-0.0625 0.0001-0.000136 0.0624-0.09361 0.0625-0.09375 0.0001-0.000141 0.0624-0.0936 0.0625-0.09375 0.00009-0.000146 0.0624-0.06235 0.0625-0.0625 0.00008-0.00015 0.0312-0.0936 0.0312-0.09375 0.00007-0.000154 0.0312-0.09359 0.0312-0.09375 0.00007-0.000157 0.0624-0.09359 0.0625-0.09375 0.00006-0.000161 0.0312-0.09359 0.0312-0.09375 0.00005-0.000163-0.00004-0.09358 0-0.09375 0.00004-0.000166 0.0312-0.09358 0.0312-0.09375 0.00003-0.000168 0.0312-0.09358 0.0312-0.09375 0.00003-0.000169-0.00002-0.12483 0-0.125s-0.00001-0.09358 0-0.09375c0.00001-0.000171 0-0.09358 0-0.09375 0-0.000171 0.00001-0.09358 0-0.09375-0.00001-0.000171 0.00002-0.09358 0-0.09375s0.00003-0.12483 0-0.125c-0.00003-0.000169-0.0312-0.09358-0.0312-0.09375-0.00003-0.000168-0.0312-0.09358-0.0312-0.09375-0.00004-0.000166 0.00005-0.09359 0-0.09375-0.00005-0.000163-0.0312-0.09359-0.0312-0.09375-0.00006-0.000161-0.0624-0.09359-0.0625-0.09375-0.00007-0.000157-0.0312-0.0936-0.0312-0.09375-0.00007-0.000154-0.0312-0.0936-0.0312-0.09375-0.00008-0.00015-0.0624-0.06235-0.0625-0.0625-0.00009-0.000146-0.0624-0.09361-0.0625-0.09375-0.0001-0.000141-0.0624-0.09361-0.0625-0.09375-0.0001-0.000136-0.0624-0.06237-0.0625-0.0625-0.00011-0.00013-0.0624-0.06238-0.0625-0.0625-0.00009-0.000096-0.0434-0.04311-0.0625-0.0625l-10.25-10.25 10.25-10.25c0.0191-0.01939 0.0624-0.0624 0.0625-0.0625 0.00012-0.000125 0.0624-0.06237 0.0625-0.0625 0.00011-0.00013 0.0624-0.06236 0.0625-0.0625 0.0001-0.000136 0.0624-0.09361 0.0625-0.09375 0.0001-0.000141 0.0624-0.0936 0.0625-0.09375 0.00009-0.000146 0.0624-0.06235 0.0625-0.0625 0.00008-0.00015 0.0312-0.0936 0.0312-0.09375 0.00007-0.000154 0.0312-0.09359 0.0312-0.09375 0.00007-0.000157 0.0624-0.09359 0.0625-0.09375 0.00006-0.000161 0.0312-0.09359 0.0312-0.09375 0.00005-0.000163-0.00004-0.09358 0-0.09375 0.00004-0.000166 0.0312-0.09358 0.0312-0.09375 0.00003-0.000168 0.0312-0.09358 0.0312-0.09375 0.00003-0.000169-0.00002-0.12483 0-0.125s-0.00001-0.09358 0-0.09375c0.00001-0.000171 0-0.09358 0-0.09375 0-0.000171 0.00001-0.09358 0-0.09375-0.00001-0.000171 0.00002-0.09358 0-0.09375s0.00003-0.12483 0-0.125c-0.00003-0.000169-0.0312-0.09358-0.0312-0.09375-0.00003-0.000168-0.0312-0.09358-0.0312-0.09375-0.00004-0.000166 0.00005-0.09359 0-0.09375-0.00005-0.000163-0.0312-0.09359-0.0312-0.09375-0.00006-0.000161-0.0624-0.09359-0.0625-0.09375-0.00007-0.000157-0.0312-0.0936-0.0312-0.09375-0.00007-0.000154-0.0312-0.0936-0.0312-0.09375-0.00008-0.00015-0.0624-0.06235-0.0625-0.0625-0.00009-0.000146-0.0624-0.09361-0.0625-0.09375-0.0001-0.000141-0.0624-0.09361-0.0625-0.09375-0.0001-0.000136-0.0624-0.06237-0.0625-0.0625-0.00011-0.00013-0.0624-0.06238-0.0625-0.0625-0.00009-0.000096-0.0434-0.04311-0.0625-0.0625l-9.3125-9.3438c-0.00003-0.000035-0.0239 0.0075-0.0312 0-0.0222-0.02237-0.0311-0.0624-0.0312-0.0625-0.00014-0.000133-0.0936-0.09362-0.0937-0.09375-0.00015-0.000125-0.0936-0.06238-0.0937-0.0625-0.00015-0.000116-0.0936-0.06239-0.0937-0.0625-0.00016-0.000107-0.0936-0.0624-0.0937-0.0625-0.00017-0.000098-0.0936-0.06241-0.0937-0.0625-0.00017-0.000089-0.0936-0.03117-0.0937-0.03125-0.00018-0.000079-0.12482-0.03118-0.125-0.03125-0.00018-0.000069-0.0936-0.06244-0.0937-0.0625-0.00018-0.000059-0.0936-0.0312-0.0937-0.03125-0.00019-0.000048-0.12481 0.000038-0.125 0s-0.0936-0.03122-0.0937-0.03125c-0.00019-0.000027-0.12481-0.03123-0.125-0.03125-0.00019-0.000016-0.0936 0.000006-0.0937 0-0.00019-0.000006-0.12481-0.000005-0.125 0s-0.12481-0.000016-0.125 0z"/>
  <path opacity=".15" d="m120.22 29.4a0.99834 0.99834 0 0 0 -0.59375 0.28125l-9.3438 9.3438a0.99834 0.99834 0 0 0 0 1.4375l10.938 10.938-10.938 10.938a0.99834 0.99834 0 0 0 0 1.4375l9.3438 9.3438a0.99834 0.99834 0 0 0 1.4375 0l10.93-10.939 10.938 10.938a0.99834 0.99834 0 0 0 1.4375 0l9.3438-9.3438a0.99834 0.99834 0 0 0 0 -1.4375l-10.94-10.938 10.94-10.938a0.99834 0.99834 0 0 0 0 -1.4375l-9.34-9.343a0.99834 0.99834 0 0 0 -1.4375 0l-10.94 10.938-10.94-10.938a0.99834 0.99834 0 0 0 -0.84 -0.281z"/>
  <path opacity=".3" d="m111 63.067 9.33 9.333 11.67-11.667 11.67 11.667 9.33-9.333-11.67-11.667 11.67-11.667-9.33-9.333-11.67 11.667-11.67-11.667-9.33 9.333 11.67 11.667-11.67 11.667z"/>
  <path fill="url(#n)" d="m111 62.067 9.33 9.333 11.67-11.667 11.67 11.667 9.33-9.333-11.67-11.667 11.67-11.667-9.33-9.333-11.67 11.667-11.67-11.667-9.33 9.333 11.67 11.667-11.67 11.667z"/>
  <path opacity=".3" fill="#fff" d="m120.34 29.4-9.34 9.344 0.5 0.5l8.84-8.844 11.66 11.656 11.66-11.656 8.84 8.844 0.5-0.5-9.34-9.344-11.66 11.656-11.66-11.656zm1.8125 21.5-11.15 11.156 0.5 0.5 11.156-11.156-0.5-0.5zm19.688 0-0.5 0.5 11.156 11.156 0.5-0.5-11.16-11.156z"/>
  <path opacity=".1" d="m111.5 38.244-0.5 0.5 11.156 11.156 0.5-0.5-11.16-11.156zm41 0-11.156 11.156 0.5 0.5 11.16-11.156-0.5-0.5zm-20.5 20.5-11.66 11.656-8.84-8.844-0.5 0.5 9.34 9.344 11.66-11.656 11.66 11.656 9.34-9.344-0.5-0.5-8.84 8.844-11.66-11.656z"/>
 </g>
</svg>
