<?xml version="1.0" encoding="UTF-8" standalone="no"?>
<svg
   xmlns:dc="http://purl.org/dc/elements/1.1/"
   xmlns:cc="http://creativecommons.org/ns#"
   xmlns:rdf="http://www.w3.org/1999/02/22-rdf-syntax-ns#"
   xmlns:svg="http://www.w3.org/2000/svg"
   xmlns="http://www.w3.org/2000/svg"
   xmlns:xlink="http://www.w3.org/1999/xlink"
   xmlns:sodipodi="http://sodipodi.sourceforge.net/DTD/sodipodi-0.dtd"
   xmlns:inkscape="http://www.inkscape.org/namespaces/inkscape"
   height="48"
   width="48"
   version="1.1"
   id="svg2"
   inkscape:version="0.91 r13725"
   sodipodi:docname="delete_glabel.svg">
  <metadata
     id="metadata65">
    <rdf:RDF>
      <cc:Work
         rdf:about="">
        <dc:format>image/svg+xml</dc:format>
        <dc:type
           rdf:resource="http://purl.org/dc/dcmitype/StillImage" />
        <dc:title />
      </cc:Work>
    </rdf:RDF>
  </metadata>
  <sodipodi:namedview
     pagecolor="#ffffff"
     bordercolor="#666666"
     borderopacity="1"
     objecttolerance="10"
     gridtolerance="10"
     guidetolerance="10"
     inkscape:pageopacity="0"
     inkscape:pageshadow="2"
     inkscape:window-width="1855"
     inkscape:window-height="1056"
     id="namedview63"
     showgrid="false"
     inkscape:zoom="5.7347482"
     inkscape:cx="18.068302"
     inkscape:cy="5.7861103"
     inkscape:window-x="65"
     inkscape:window-y="24"
     inkscape:window-maximized="1"
     inkscape:current-layer="svg2" />
  <defs
     id="defs4">
    <linearGradient
       id="e"
       y2="48"
       gradientUnits="userSpaceOnUse"
       x2="69"
       gradientTransform="matrix(0,-1,1,0,84,98.4)"
       y1="48"
       x1="27">
      <stop
         stop-color="#c80000"
         offset="0"
         id="stop7" />
      <stop
         stop-color="#f3604d"
         offset="1"
         id="stop9" />
    </linearGradient>
    <filter
       id="d"
       height="1.2029"
       width="1.1161"
       color-interpolation-filters="sRGB"
       y="-.10147"
       x="-.058043">
      <feGaussianBlur
         stdDeviation="0.81103601"
         id="feGaussianBlur12" />
    </filter>
    <linearGradient
       id="f"
       y2="6.4143"
       gradientUnits="userSpaceOnUse"
       x2="3.7417"
       gradientTransform="matrix(2.5607 0 0 1.9937 -.84439 15.09)"
       y1="13.722"
       x1="11.124">
      <stop
         stop-color="#afafff"
         offset="0"
         id="stop15" />
      <stop
         stop-color="#fff"
         offset="1"
         id="stop17" />
    </linearGradient>
    <radialGradient
       id="radialGradient5050"
       gradientUnits="userSpaceOnUse"
       cy="20.493999"
       cx="35.292999"
       gradientTransform="matrix(0,-0.84302,1.0202,0,-4.8963249,41.059418)"
       r="16.955999">
      <stop
         stop-color="#73d216"
         offset="0"
         id="stop5052"
         style="stop-color:#ef0b0b;stop-opacity:1" />
      <stop
         stop-color="#4e9a06"
         offset="1"
         id="stop5054"
         style="stop-color:#f52727;stop-opacity:1" />
    </radialGradient>
    <radialGradient
       inkscape:collect="always"
       xlink:href="#radialGradient5050-3"
       id="radialGradient5048"
       gradientUnits="userSpaceOnUse"
       gradientTransform="matrix(0.33544035,0.33544035,0.39413145,-0.39413145,19.911706,959.26466)"
       cx="18.496571"
       cy="-18.924658"
       fx="18.496571"
       fy="-18.924658"
       r="16.955999" />
    <radialGradient
       id="radialGradient5050-3"
       gradientUnits="userSpaceOnUse"
       cy="20.493999"
       cx="35.292999"
       gradientTransform="matrix(0,-0.84302,1.0202,0,-4.8963249,41.059418)"
       r="16.955999">
      <stop
         stop-color="#73d216"
         offset="0"
         id="stop5052-6"
         style="stop-color:#ef0b0b;stop-opacity:1" />
      <stop
         stop-color="#4e9a06"
         offset="1"
         id="stop5054-7"
         style="stop-color:#f52727;stop-opacity:1" />
    </radialGradient>
    <radialGradient
       inkscape:collect="always"
       xlink:href="#radialGradient5050-3"
       id="radialGradient4313"
       gradientUnits="userSpaceOnUse"
       gradientTransform="matrix(0.33544035,0.33544035,0.39413145,-0.39413145,19.911706,959.26466)"
       cx="18.496571"
       cy="-18.924658"
       fx="18.496571"
       fy="-18.924658"
       r="16.955999" />
    <radialGradient
       id="radialGradient4315"
       gradientUnits="userSpaceOnUse"
       cy="20.493999"
       cx="35.292999"
       gradientTransform="matrix(0,-0.84302,1.0202,0,-4.8963249,41.059418)"
       r="16.955999">
      <stop
         stop-color="#73d216"
         offset="0"
         id="stop4317"
         style="stop-color:#ef0b0b;stop-opacity:1" />
      <stop
         stop-color="#4e9a06"
         offset="1"
         id="stop4319"
         style="stop-color:#f52727;stop-opacity:1" />
    </radialGradient>
    <radialGradient
       r="16.955999"
       fy="-18.924658"
       fx="18.496571"
       cy="-18.924658"
       cx="18.496571"
       gradientTransform="matrix(0.33544035,0.33544035,0.39413145,-0.39413145,19.911706,959.26466)"
       gradientUnits="userSpaceOnUse"
       id="radialGradient4324"
       xlink:href="#radialGradient5050-3"
       inkscape:collect="always" />
  </defs>
  <g
     transform="scale(.91929 1.0878)"
     style="font-size:41.86899948px;line-height:125%;letter-spacing:0px;word-spacing:0px;fill:#000000;font-family:Sans"
     id="text19">
    <path
       d="m 14.176597,20.19295 c -1.3e-5,-0.708274 0.207586,-1.184528 0.622795,-1.428765 0.415183,-0.268653 1.013554,-0.402981 1.795115,-0.402985 l 0.842605,0 -0.842605,-2.12483 -8.7191295,0 -0.8426049,2.12483 0.8426049,0 c 1.6119318,4e-6 2.4179005,0.610587 2.4179095,1.83175 -9e-6,1.221167 -0.8059777,1.83175 -2.4179095,1.83175 l -4.8724548,0 c -1.6119399,0 -2.41790907,-0.610583 -2.41790984,-1.83175 7.7e-7,-0.732697 0.21981054,-1.221163 0.65942994,-1.4654 0.4151964,-0.244229 1.0135674,-0.366346 1.7951149,-0.36635 l 5.6784248,-14.031204 -2.3080049,0 C 4.7736109,4.3300137 3.9554301,3.719431 3.9554327,2.4982461 3.9554301,1.7655664 4.1630282,1.2771002 4.5782277,1.0328461 5.017844,0.78863404 5.6284267,0.6665175 6.4099776,0.66649614 l 7.9131594,0 L 21.613502,18.3612 c 1.660765,4e-6 2.491157,0.610587 2.49118,1.83175 -2.3e-5,1.221167 -0.805992,1.83175 -2.41791,1.83175 l -5.092265,0 c -1.611953,0 -2.417923,-0.610583 -2.41791,-1.83175 m 0.915875,-7.620079 -2.85753,-7.0339201 -2.8941645,7.0339201 5.7516945,0"
       style="font-size:36.63499832px;font-weight:bold;letter-spacing:3.68440008px;font-family:FreeMono"
       id="path3167" />
  </g>
  <g
     transform="matrix(2.9379,0,0,2.1996,1.1578,13.241)"
     id="g23">
    <rect
       fill-opacity="0"
       height="16"
       width="16"
       y="0"
       x="0"
       id="rect25" />
  </g>
  <g
     transform="matrix(1.0448 0 0 1.0547 -.06949 -1.4088)"
     id="g41">
    <g
       opacity=".66016"
       filter="url(#d)"
       id="g43">
      <rect
         y="36.403"
         width="9.5814"
         x="27.9"
         height="2.1314"
         id="rect45" />
      <rect
         y="42.798"
         width="9.5814"
         x="3.9463"
         height="2.1314"
         id="rect47" />
      <rect
         y="32.141"
         width="9.5814"
         x="3.9463"
         height="2.1314"
         id="rect49" />
      <path
         d="m8.5506 27.878h13.36c13.864 0 14.19 19.182 0 19.182h-13.36v-19.182z"
         id="path51" />
    </g>
    <rect
       height="2.1314"
       width="7.1861"
       y="34.272"
       x="27.9"
       fill="#d72e2e"
       id="rect53" />
    <path
       fill="#d72e2e"
       d="m6.4504 25.747h13.36c13.864 0 14.19 19.182 0 19.182h-13.36v-19.182z"
       id="path55" />
    <rect
       height="2.1314"
       width="7.1861"
       y="40.666"
       x="1.551"
       fill="#d72e2e"
       id="rect57" />
    <rect
       height="2.1314"
       width="7.1861"
       y="30.009"
       x="1.551"
       fill="#d72e2e"
       id="rect59" />
    <path
       fill="url(#f)"
       d="m8.737 27.878h11.159c10.547 0 10.795 14.92 0 14.92h-11.159v-14.92z"
       id="path61" />
  </g>
  <g
     transform="matrix(1.1365249,0,0,1.1365249,13.532705,-1092.9817)"
     id="g5102">
    <path
       inkscape:connector-curvature="0"
       id="path5100"
       d="m 24.145508,963.6874 -5.313766,5.31377 -5.313816,-5.31382 -4.1814755,4.18148 5.3138155,5.31381 -5.3137447,5.31375 4.1814407,4.18144 5.313745,-5.31375 5.313815,5.31382 4.181476,-4.18148 -5.313815,-5.31381 5.313766,-5.31377 -4.181441,-4.18144 z"
       style="color:#000000;clip-rule:nonzero;display:inline;overflow:visible;visibility:visible;opacity:1;isolation:auto;mix-blend-mode:normal;color-interpolation:sRGB;color-interpolation-filters:linearRGB;solid-color:#000000;solid-opacity:1;fill:url(#radialGradient4324);fill-opacity:1;fill-rule:evenodd;stroke:#ffffff;stroke-width:4;stroke-linecap:round;stroke-linejoin:round;stroke-miterlimit:10;stroke-dasharray:none;stroke-dashoffset:0;stroke-opacity:1;color-rendering:auto;image-rendering:auto;shape-rendering:auto;text-rendering:auto;enable-background:accumulate" />
    <path
       style="color:#000000;clip-rule:nonzero;display:inline;overflow:visible;visibility:visible;opacity:1;isolation:auto;mix-blend-mode:normal;color-interpolation:sRGB;color-interpolation-filters:linearRGB;solid-color:#000000;solid-opacity:1;fill:url(#radialGradient5048);fill-opacity:1;fill-rule:evenodd;stroke:#000000;stroke-width:1.72931588;stroke-linecap:round;stroke-linejoin:round;stroke-miterlimit:10;stroke-dasharray:none;stroke-dashoffset:0;stroke-opacity:1;color-rendering:auto;image-rendering:auto;shape-rendering:auto;text-rendering:auto;enable-background:accumulate"
       d="m 24.145508,963.6874 -5.313766,5.31377 -5.313816,-5.31382 -4.1814755,4.18148 5.3138155,5.31381 -5.3137447,5.31375 4.1814407,4.18144 5.313745,-5.31375 5.313815,5.31382 4.181476,-4.18148 -5.313815,-5.31381 5.313766,-5.31377 -4.181441,-4.18144 z"
       id="path5046"
       inkscape:connector-curvature="0" />
  </g>
</svg>
