<?xml version="1.0" encoding="UTF-8" standalone="no"?>
<svg
   xmlns:dc="http://purl.org/dc/elements/1.1/"
   xmlns:cc="http://creativecommons.org/ns#"
   xmlns:rdf="http://www.w3.org/1999/02/22-rdf-syntax-ns#"
   xmlns:svg="http://www.w3.org/2000/svg"
   xmlns="http://www.w3.org/2000/svg"
   xmlns:xlink="http://www.w3.org/1999/xlink"
   xmlns:sodipodi="http://sodipodi.sourceforge.net/DTD/sodipodi-0.dtd"
   xmlns:inkscape="http://www.inkscape.org/namespaces/inkscape"
   height="26"
   width="26"
   version="1.0"
   id="svg2"
   inkscape:version="0.48.1 r9760"
   sodipodi:docname="delete.svg">
  <metadata
     id="metadata175">
    <rdf:RDF>
      <cc:Work
         rdf:about="">
        <dc:format>image/svg+xml</dc:format>
        <dc:type
           rdf:resource="http://purl.org/dc/dcmitype/StillImage" />
      </cc:Work>
    </rdf:RDF>
  </metadata>
  <sodipodi:namedview
     pagecolor="#ffffff"
     bordercolor="#666666"
     borderopacity="1"
     objecttolerance="10"
     gridtolerance="10"
     guidetolerance="10"
     inkscape:pageopacity="0"
     inkscape:pageshadow="2"
     inkscape:window-width="1600"
     inkscape:window-height="876"
     id="namedview173"
     showgrid="true"
     inkscape:snap-grids="false"
     inkscape:snap-to-guides="false"
     inkscape:zoom="3.3333333"
     inkscape:cx="-110.70961"
     inkscape:cy="12.165865"
     inkscape:window-x="0"
     inkscape:window-y="24"
     inkscape:window-maximized="1"
     inkscape:current-layer="svg2">
    <inkscape:grid
       type="xygrid"
       id="grid3162"
       empspacing="5"
       visible="true"
       enabled="true"
       snapvisiblegridlinesonly="true" />
  </sodipodi:namedview>
  <defs
     id="defs4">
    <linearGradient
       id="a">
      <stop
         stop-color="#fff"
         offset="0"
         id="stop7" />
      <stop
         stop-color="#fff"
         stop-opacity="0"
         offset="1"
         id="stop9" />
    </linearGradient>
    <linearGradient
       id="b">
      <stop
         offset="0"
         id="stop12" />
      <stop
         stop-color="#fff"
         offset="1"
         id="stop14" />
    </linearGradient>
    <radialGradient
       id="al"
       gradientUnits="userSpaceOnUse"
       cy="12.219"
       cx="23.969"
       gradientTransform="matrix(0.94564,0,0,0.32574,1.3029,8.2386)"
       r="14.969">
      <stop
         offset="0"
         id="stop17" />
      <stop
         stop-opacity="0"
         offset="1"
         id="stop19" />
    </radialGradient>
    <linearGradient
       id="ar"
       y2="17.860001"
       gradientUnits="userSpaceOnUse"
       x2="6.1231999"
       y1="17.860001"
       x1="45.631001">
      <stop
         stop-color="#555753"
         offset="0"
         id="stop22" />
      <stop
         stop-color="#d5d9d2"
         offset=".61818"
         id="stop24" />
      <stop
         stop-color="#888a85"
         offset="1"
         id="stop26" />
    </linearGradient>
    <linearGradient
       id="as"
       y2="39.25"
       gradientUnits="userSpaceOnUse"
       x2="42.269001"
       y1="39.25"
       x1="18.871">
      <stop
         stop-color="#fff"
         offset="0"
         id="stop29" />
      <stop
         stop-color="#fff"
         stop-opacity="0"
         offset="1"
         id="stop31" />
    </linearGradient>
    <linearGradient
       id="at"
       y2="26.125"
       xlink:href="#b"
       gradientUnits="userSpaceOnUse"
       x2="25.976999"
       gradientTransform="matrix(0.83333,0,0,1,3.6667,1)"
       y1="26.125"
       x1="21.096001" />
    <linearGradient
       id="au"
       y2="25.275999"
       xlink:href="#b"
       gradientUnits="userSpaceOnUse"
       x2="31.362"
       gradientTransform="matrix(1.1429,0,0,1,-3.8571,1)"
       y1="25.188"
       x1="26.997" />
    <linearGradient
       id="av"
       y2="24.5"
       xlink:href="#b"
       gradientUnits="userSpaceOnUse"
       x2="37.535"
       gradientTransform="matrix(1.25,0,0,1,-8.875,1)"
       y1="24.5"
       x1="32.699001" />
    <linearGradient
       id="aw"
       y2="25"
       xlink:href="#b"
       gradientUnits="userSpaceOnUse"
       x2="15.672"
       gradientTransform="matrix(0.83333,0,0,1,2.25,1)"
       y1="24.827"
       x1="6.8744998" />
    <linearGradient
       id="ax"
       y2="25.562"
       xlink:href="#b"
       gradientUnits="userSpaceOnUse"
       x2="20.114"
       gradientTransform="matrix(1.1429,0,0,1,-3,1)"
       y1="25.620001"
       x1="12.02" />
    <linearGradient
       id="ay"
       y2="39.022999"
       gradientUnits="userSpaceOnUse"
       x2="21.969999"
       gradientTransform="matrix(0.61028,0,0,1,9.3454,0)"
       y1="41"
       x1="27.006001">
      <stop
         stop-color="#fff"
         offset="0"
         id="stop39" />
      <stop
         stop-color="#fff"
         stop-opacity="0"
         offset="1"
         id="stop41" />
    </linearGradient>
    <linearGradient
       id="az"
       y2="37.973"
       xlink:href="#a"
       gradientUnits="userSpaceOnUse"
       x2="30"
       gradientTransform="translate(-0.99704,5.0008e-4)"
       y1="41.207001"
       x1="33.398998" />
    <linearGradient
       id="ba"
       y2="38.460999"
       xlink:href="#a"
       gradientUnits="userSpaceOnUse"
       x2="16.620001"
       gradientTransform="translate(1.0052,-5.6326e-6)"
       y1="39.688"
       x1="20.002001" />
    <linearGradient
       id="bb"
       y2="32.848"
       xlink:href="#a"
       gradientUnits="userSpaceOnUse"
       x2="36.562"
       y1="40.759998"
       x1="36.562" />
    <linearGradient
       id="bc"
       y2="29.922001"
       xlink:href="#a"
       gradientUnits="userSpaceOnUse"
       x2="11.5"
       y1="38.062"
       x1="11.5" />
    <linearGradient
       id="ad"
       y2="38.210999"
       xlink:href="#a"
       gradientUnits="userSpaceOnUse"
       x2="17.216"
       gradientTransform="matrix(0.69296,0,0,1,2.0699,-0.97775)"
       y1="38.813"
       x1="21.445" />
    <linearGradient
       id="ae"
       y2="37.973"
       xlink:href="#a"
       gradientUnits="userSpaceOnUse"
       x2="30"
       gradientTransform="matrix(0.64642,0,0,1,14.071,-0.9995)"
       y1="41.207001"
       x1="33.398998" />
    <radialGradient
       id="am"
       gradientUnits="userSpaceOnUse"
       cy="18.468"
       cx="24"
       gradientTransform="matrix(1,0,0,0.30363,0,14.142)"
       r="14">
      <stop
         offset="0"
         id="stop50" />
      <stop
         stop-opacity="0"
         offset="1"
         id="stop52" />
    </radialGradient>
    <linearGradient
       id="af"
       y2="11.686"
       gradientUnits="userSpaceOnUse"
       x2="5.2537999"
       y1="11.686"
       x1="43.299999">
      <stop
         stop-color="#6d6f6a"
         offset="0"
         id="stop55" />
      <stop
         stop-color="#e7e8e5"
         offset=".61818"
         id="stop57" />
      <stop
         stop-color="#999b96"
         offset="1"
         id="stop59" />
    </linearGradient>
    <linearGradient
       id="c"
       y2="7.75"
       gradientUnits="userSpaceOnUse"
       x2="19"
       y1="7.75"
       x1="29">
      <stop
         stop-color="#95998e"
         offset="0"
         id="stop62" />
      <stop
         stop-color="#fff"
         offset=".59524"
         id="stop64" />
      <stop
         stop-color="#dfdfdb"
         offset="1"
         id="stop66" />
    </linearGradient>
    <linearGradient
       id="ag"
       y2="20.608999"
       gradientUnits="userSpaceOnUse"
       x2="15.96"
       y1="10.081"
       x1="26.965">
      <stop
         stop-color="#babdb6"
         offset="0"
         id="stop69" />
      <stop
         stop-color="#fff"
         offset="1"
         id="stop71" />
    </linearGradient>
    <radialGradient
       id="an"
       gradientUnits="userSpaceOnUse"
       cy="12.5"
       cx="24"
       gradientTransform="matrix(1,0,0,0.3871,0,7.6613)"
       r="15.5">
      <stop
         offset="0"
         id="stop74" />
      <stop
         stop-opacity="0"
         offset="1"
         id="stop76" />
    </radialGradient>
    <linearGradient
       id="ah"
       y2="16.375"
       gradientUnits="userSpaceOnUse"
       x2="46.327999"
       y1="16.375"
       x1="18.247">
      <stop
         stop-color="#fff"
         offset="0"
         id="stop79" />
      <stop
         stop-color="#fff"
         stop-opacity="0"
         offset="1"
         id="stop81" />
    </linearGradient>
    <radialGradient
       id="ao"
       xlink:href="#a"
       gradientUnits="userSpaceOnUse"
       cy="27.858"
       cx="18.034"
       gradientTransform="matrix(1.2188,-0.17313,0.053174,0.2095,-4.4516,12.172)"
       r="15.447" />
    <radialGradient
       id="ap"
       gradientUnits="userSpaceOnUse"
       cy="10.75"
       cx="18.75"
       gradientTransform="matrix(1,0,0,0.63636,0,3.9091)"
       r="2.75">
      <stop
         offset="0"
         id="stop85" />
      <stop
         stop-opacity="0"
         offset="1"
         id="stop87" />
    </radialGradient>
    <linearGradient
       id="ai"
       y2="10.809"
       gradientUnits="userSpaceOnUse"
       x2="26.127001"
       y1="9.5279999"
       x1="26.464001">
      <stop
         stop-color="#888a85"
         offset="0"
         id="stop90" />
      <stop
         stop-color="#d3d7cf"
         offset="1"
         id="stop92" />
    </linearGradient>
    <linearGradient
       id="aj"
       y2="-10.483"
       gradientUnits="userSpaceOnUse"
       x2="21.674"
       y1="-8.5719004"
       x1="21.084">
      <stop
         stop-color="#d3d7cf"
         offset="0"
         id="stop95" />
      <stop
         stop-color="#eeeeec"
         offset="1"
         id="stop97" />
    </linearGradient>
    <linearGradient
       id="ak"
       y2="10.94"
       gradientUnits="userSpaceOnUse"
       x2="6.25"
       gradientTransform="translate(18,0)"
       y1="8.2417002"
       x1="6.25">
      <stop
         stop-opacity=".32317"
         offset="0"
         id="stop100" />
      <stop
         stop-opacity="0"
         offset="1"
         id="stop102" />
    </linearGradient>
    <radialGradient
       id="aq"
       xlink:href="#a"
       gradientUnits="userSpaceOnUse"
       cy="17.987"
       cx="12.143"
       gradientTransform="matrix(1.6798,-0.03179,0.0072084,0.21318,-9.2227,10.39)"
       r="15.447" />
    <linearGradient
       inkscape:collect="always"
       xlink:href="#c"
       id="linearGradient3152"
       gradientUnits="userSpaceOnUse"
       x1="29"
       y1="7.75"
       x2="19"
       y2="7.75" />
    <radialGradient
       inkscape:collect="always"
       xlink:href="#ap"
       id="radialGradient3154"
       gradientUnits="userSpaceOnUse"
       gradientTransform="matrix(1,0,0,0.63636,0,3.9091)"
       cx="18.75"
       cy="10.75"
       r="2.75" />
    <radialGradient
       inkscape:collect="always"
       xlink:href="#ap"
       id="radialGradient3156"
       gradientUnits="userSpaceOnUse"
       gradientTransform="matrix(1,0,0,0.63636,0,3.9091)"
       cx="18.75"
       cy="10.75"
       r="2.75" />
    <radialGradient
       inkscape:collect="always"
       xlink:href="#ap"
       id="radialGradient3158"
       gradientUnits="userSpaceOnUse"
       gradientTransform="matrix(1,0,0,0.63636,0,3.9091)"
       cx="18.75"
       cy="10.75"
       r="2.75" />
    <linearGradient
       inkscape:collect="always"
       xlink:href="#c"
       id="linearGradient3160"
       gradientUnits="userSpaceOnUse"
       x1="29"
       y1="7.75"
       x2="19"
       y2="7.75" />
  </defs>
  <g
     transform="matrix(0.53838031,0,0,0.52790227,-0.00754609,0.20709196)"
     id="g105">
    <path
       style="opacity:0.8;color:#000000;fill:url(#al)"
       d="m 38.938,12.219 a 14.969,5.1562 0 1 1 -29.938,0 14.969,5.1562 0 1 1 29.938,0 z"
       transform="matrix(1.3585,0,0,1.3746,-8.5605,23.394)"
       id="path107"
       inkscape:connector-curvature="0" />
    <path
       style="color:#000000;fill:url(#ar);stroke:#555753;stroke-width:1.02919996;stroke-linecap:round"
       d="m 22.5,7.5 c -6.7569,0.23395 -13,2.255 -13,5 0,2.2903 3e-7,24.709 0,27 0,2.7656 6.4407,5 14.469,5 8.0281,0 14.531,-2.2344 14.531,-5 0,-2.2213 -10e-7,-24.779 0,-27 0,-2.7656 -6.5032,-5 -14.531,-5 -0.37632,0 -0.75585,-0.00969 -1.125,0 -0.118,0.0031 -0.228,-0.004 -0.344,0 z"
       id="path109"
       inkscape:connector-curvature="0" />
    <path
       style="opacity:0.70980003;color:#000000;fill:none;stroke:url(#as);stroke-linecap:round"
       d="M 22.938,8.5 C 16.357,8.6584 11.101,10.444 10.518,12.516 10.502,12.579 10.5,39.435 10.5,39.5 c 0,2 6.4108,4 13.469,4 7.2913,0 13.531,-2 13.531,-4 0,-0.04597 0.0046,-26.829 0,-26.875 C 37.225,10.342 31.26,8.5 23.969,8.5 c -0.34998,0 -0.68793,-0.00826 -1.0312,0 z"
       id="path111"
       inkscape:connector-curvature="0" />
    <rect
       style="opacity:0.3;color:#000000;fill:url(#at)"
       rx="2"
       ry="2"
       height="22"
       width="4"
       y="19"
       x="22"
       id="rect113" />
    <rect
       style="opacity:0.3;color:#000000;fill:url(#au)"
       rx="2.2857001"
       ry="2"
       height="22"
       width="4"
       y="18.5"
       x="27"
       id="rect115" />
    <rect
       style="opacity:0.3;color:#000000;fill:url(#av)"
       rx="1.5"
       ry="1.5"
       height="22"
       width="3"
       y="17.5"
       x="32"
       id="rect117" />
    <rect
       style="opacity:0.3;color:#000000"
       rx="0.5"
       ry="2"
       height="22"
       width="1"
       y="15.5"
       x="36"
       id="rect119" />
    <rect
       style="opacity:0.3;color:#000000;fill:#ffffff"
       rx="0.5"
       ry="2"
       height="22"
       width="1"
       y="16"
       x="11"
       id="rect121" />
    <rect
       style="opacity:0.5;color:#000000;fill:url(#aw)"
       rx="1.5"
       ry="1.5"
       height="22"
       width="3"
       y="17.5"
       x="13"
       id="rect123" />
    <rect
       style="opacity:0.5;color:#000000;fill:url(#ax)"
       rx="2.2857001"
       ry="2"
       height="22"
       width="4"
       y="18.5"
       x="17"
       id="rect125" />
    <rect
       style="color:#000000;fill:none;stroke:url(#ay);stroke-linecap:round"
       rx="1.5312999"
       ry="1.5312999"
       height="21.023001"
       width="3.0627"
       y="19.478001"
       x="22.459"
       id="rect127" />
    <rect
       style="opacity:0.49412004;color:#000000;fill:none;stroke:url(#az);stroke-linecap:round"
       rx="1.503"
       ry="1.4917001"
       height="21.000999"
       width="3.0058999"
       y="19"
       x="27.5"
       id="rect129" />
    <rect
       style="color:#000000;fill:none;stroke:url(#ba);stroke-linecap:round"
       rx="1.7185"
       ry="1.5358"
       height="21.021999"
       width="3.0072999"
       y="18.978001"
       x="17.5"
       id="rect131" />
    <rect
       style="opacity:0.4;color:#000000;fill:url(#bb)"
       rx="0.5"
       ry="2"
       height="22"
       width="1"
       y="15.5"
       x="36"
       id="rect133" />
    <rect
       style="opacity:0.3;color:#000000;fill:url(#bc)"
       rx="0.5"
       ry="2"
       height="22"
       width="1"
       y="16"
       x="11"
       id="rect135" />
    <rect
       style="color:#000000;fill:none;stroke:url(#ad);stroke-linecap:round"
       rx="1.7185"
       ry="1.5358"
       height="21.021999"
       width="2.0839"
       y="18"
       x="13.5"
       id="rect137" />
    <rect
       style="opacity:0.49412004;color:#000000;fill:none;stroke:url(#ae);stroke-linecap:round"
       rx="0.97153997"
       ry="0.97153997"
       height="21.000999"
       width="1.9431"
       y="18"
       x="32.492001"
       id="rect139" />
    <path
       style="opacity:0.55294004;color:#000000;fill:url(#am)"
       d="M 23.188,15.5 C 17.505,15.577 12.602,16.457 10,17.707 v 4.0865 c 2.727,1.309 7.97,2.206 14,2.206 6.0295,0 11.273,-0.89712 14,-2.2067 v -4.0865 c -2.727,-1.309 -7.97,-2.206 -14,-2.206 -0.276,0 -0.53992,-0.0037 -0.8125,0 z"
       id="path141"
       inkscape:connector-curvature="0" />
    <path
       style="color:#000000;fill:url(#af);stroke:#555753;stroke-linecap:round"
       d="M 22.419,6.5091 C 14.605,6.8165 8.498,9.3807 8.498,12.486 v 3.0039 c 0,3.3119 6.9274,6.0078 15.485,6.0078 8.5579,0 15.517,-2.6959 15.517,-6.0078 v -3.004 c 0,-3.3119 -6.9587,-5.9765 -15.517,-5.9765 -0.53487,0 -1.0432,-0.020496 -1.5642,0 z"
       id="path143"
       inkscape:connector-curvature="0" />
    <path
       style="color:#000000;fill:url(#linearGradient3152);stroke:#555753;stroke-width:2;stroke-linecap:round"
       d="M 19.5,9 19,11 h 1 c 0,-1.5 2.301,-3.9964 4,-3.9964 1.699,0 4,2.4964 4,3.9964 h 1 L 28.5,9 C 28.229,7.1691 27,4.5 24,4.5036 21,4.5072 19.758,7.255 19.5,9 z"
       id="path145"
       inkscape:connector-curvature="0" />
    <path
       style="color:#000000;fill:url(#ag)"
       d="m 39.5,12.712 c 0,3.312 -6.944,5.788 -15.5,5.788 -8.556,0 -15.5,-2.688 -15.5,-6 0,-3.312 6.944,-6 15.5,-6 8.556,0 15.5,3.6404 15.5,6.2121 z"
       transform="matrix(0.96774,0,0,0.83333,0.77419,1.5833)"
       id="path147"
       inkscape:connector-curvature="0" />
    <path
       style="opacity:0.3;color:#000000;fill:url(#an)"
       d="m 39.5,12.5 a 15.5,6 0 1 1 -31,0 15.5,6 0 1 1 31,0 z"
       transform="matrix(0.54006,0,0,0.46505,11.039,4.6869)"
       id="path149"
       inkscape:connector-curvature="0" />
    <path
       style="opacity:0.56471001;color:#000000;fill:none;stroke:url(#ah);stroke-linecap:round"
       d="M 22.53,7.5 C 15.216,7.7674 9.5,9.9974 9.5,12.698 v 2.6125 c 0,2.8804 6.4838,5.225 14.494,5.225 8.0099,0 14.523,-2.3446 14.523,-5.225 v -2.612 c 0,-2.8804 -6.5131,-5.1978 -14.523,-5.1978 -0.50062,0 -0.9764,-0.017825 -1.464,0 z"
       id="path151"
       inkscape:connector-curvature="0" />
    <path
       style="color:#000000;fill:none;stroke:url(#ao);stroke-width:0.89376003;stroke-linecap:round"
       d="m 38.5,10.5 a 15,4 0 1 1 -30,0 15,4 0 1 1 30,0 z"
       transform="matrix(0.96774,0,0,1.2936,1.2742,-1.9083)"
       id="path153"
       inkscape:connector-curvature="0" />
    <g
       id="g155"
       style="opacity:0.55686005;fill:url(#radialGradient3158)">
      <path
         style="color:#000000;fill:url(#radialGradient3154)"
         d="m 21.5,10.75 a 2.75,1.75 0 1 1 -5.5,0 2.75,1.75 0 1 1 5.5,0 z"
         transform="matrix(0.90909,0,0,0.85714,12.455,1.2857)"
         id="path157"
         inkscape:connector-curvature="0" />
      <path
         style="color:#000000;fill:url(#radialGradient3156)"
         d="m 21.5,10.75 a 2.75,1.75 0 1 1 -5.5,0 2.75,1.75 0 1 1 5.5,0 z"
         transform="matrix(0.90909,0,0,0.85714,1.4545,1.2857)"
         id="path159"
         inkscape:connector-curvature="0" />
    </g>
    <rect
       style="color:#000000;fill:url(#ai)"
       transform="matrix(1,0,0.30875,0.95114,0,0)"
       rx="0.41802001"
       ry="0.39096001"
       height="2.0376999"
       width="2.5427001"
       y="9.4623003"
       x="24.957001"
       id="rect161" />
    <path
       style="color:#000000;fill:url(#aj)"
       d="m 20.918,-11.5 h 1.7064 c 0.23158,0 0.41802,0.17437 0.41802,0.39096 v 1.2558 c 0,0.21659 -0.18644,0.39096 -0.41802,0.39096 h -1.706 c -0.232,-10e-5 -0.418,-0.1745 -0.418,-0.391 v -1.2558 c 0,-0.217 0.186,-0.391 0.418,-0.391 z"
       transform="matrix(1,0,0.30875,-0.95114,0,0)"
       id="path163"
       inkscape:connector-curvature="0" />
    <path
       style="color:#000000;fill:url(#linearGradient3160)"
       d="M 19.5,9 19,11 h 1 c 0,-1.5 2.301,-3.9964 4,-3.9964 1.699,0 4,2.4964 4,3.9964 h 1 L 28.5,9 C 28.229,7.1691 27,4.5 24,4.5036 21,4.5072 19.758,7.255 19.5,9 z"
       id="path165"
       inkscape:connector-curvature="0" />
    <path
       style="color:#000000;fill:url(#ak);stroke:#ffffff;stroke-linecap:round"
       d="m 17.5,11 h 2 C 19.5,11 20,7.5 24,7.5036 28.002,7.5072 28.5,11 28.5,11 h 1.9706"
       id="path167"
       inkscape:connector-curvature="0" />
    <path
       style="color:#000000;fill:none;stroke:url(#aq);stroke-width:1.61549997;stroke-linecap:round"
       d="m 38.5,10.5 a 15,4 0 1 1 -30,0 15,4 0 1 1 30,0 z"
       transform="matrix(0.53539,0,0,0.71566,11.435,4.1599)"
       id="path169"
       inkscape:connector-curvature="0" />
    <path
       d="m 23.504,10.608 h 0.04416 l 0.01793,0.07404 0.04706,-0.07404 h 0.04594 l -0.02717,0.1394 h -0.03408 l 0.01989,-0.10289 -0.04837,0.0761 h -0.02 l -0.019,-0.075 -0.02,0.102 h -0.034 l 0.027,-0.139 m 0.18552,0.03483 h 0.03361 l -0.02045,0.10457 h -0.03352 l 0.02035,-0.10457 m 0.0078,-0.04071 h 0.03361 l -0.0053,0.02726 h -0.03371 l 0.0054,-0.02726 m 0.14276,0.04398 -0.0053,0.02726 c -0.0045,-0.003 -0.0089,-0.0053 -0.01326,-0.0068 -0.0044,-0.0016 -0.0086,-0.0023 -0.01279,-0.0023 -0.01089,0 -0.0198,0.0037 -0.0267,0.01102 -0.0069,0.0073 -0.01036,0.01662 -0.01036,0.02801 0,0.0073 0.0021,0.01295 0.0064,0.01699 0.0043,0.004 0.01036,0.006 0.01821,0.006 0.0052,0 0.01036,-7.78e-4 0.01541,-0.0023 0.005,-0.0016 0.0098,-0.0039 0.01438,-0.0069 l -0.0051,0.02736 c -0.0055,0.0019 -0.01111,0.0034 -0.01671,0.0043 -0.0056,9.95e-4 -0.01123,0.0015 -0.0169,0.0015 -0.01643,0 -0.0291,-0.0037 -0.038,-0.01102 -0.0088,-0.0074 -0.01326,-0.0179 -0.01326,-0.03147 0,-0.0085 0.0016,-0.01681 0.0049,-0.02484 0.0033,-0.008 0.008,-0.01525 0.0141,-0.02166 0.0068,-0.007 0.01456,-0.01226 0.02334,-0.01569 0.0088,-0.0034 0.01889,-0.0051 0.03035,-0.0051 0.0053,0 0.01055,4.98e-4 0.01578,0.0015 0.0052,9.34e-4 0.01043,0.0024 0.01559,0.0043 m 0.10074,0.02521 c -0.0023,-0.0013 -0.0049,-0.0023 -0.0077,-0.003 -0.0028,-6.85e-4 -0.0058,-10e-4 -0.0091,-10e-4 -0.0085,0 -0.01562,0.0027 -0.02129,0.0082 -0.0056,0.0055 -0.0094,0.01338 -0.01139,0.02371 l -0.0095,0.04818 h -0.036 l 0.02,-0.103 h 0.03361 l -0.0036,0.01793 c 0.0044,-0.0066 0.0099,-0.01164 0.01653,-0.01513 0.0067,-0.0035 0.01404,-0.0053 0.02213,-0.0053 0.0012,0 0.0025,6.3e-5 0.004,1.87e-4 0.0015,1.25e-4 0.0033,3.11e-4 0.0053,5.6e-4 l -0.0059,0.03025 m 0.06788,-0.0071 c -0.0087,0 -0.01578,0.0039 -0.02138,0.01176 -0.0056,0.0078 -0.0084,0.01783 -0.0084,0.02997 0,0.0066 0.0015,0.01164 0.0045,0.01513 0.0031,0.0034 0.0075,0.0051 0.01326,0.0051 0.0087,0 0.01578,-0.0039 0.02138,-0.01177 0.0056,-0.0079 0.0084,-0.01796 0.0084,-0.03016 0,-0.0065 -0.0015,-0.01151 -0.0046,-0.01494 -0.003,-0.0034 -0.0074,-0.0051 -0.01317,-0.0051 m 0.0027,-0.0239 c 0.01556,0 0.02779,0.004 0.03669,0.01186 0.0089,0.0079 0.01335,0.01867 0.01335,0.03231 0,0.0079 -0.0014,0.01559 -0.0042,0.02306 -0.0028,0.0074 -0.0069,0.01419 -0.01223,0.02036 -0.0063,0.0073 -0.01385,0.01289 -0.0225,0.01662 -0.0087,0.0037 -0.0183,0.0056 -0.02894,0.0056 -0.01537,0 -0.02751,-0.004 -0.03641,-0.01186 -0.0088,-0.0079 -0.01326,-0.01867 -0.01326,-0.03231 0,-0.0078 0.0014,-0.0155 0.0043,-0.02297 0.0029,-0.0075 0.007,-0.01441 0.01233,-0.02063 0.0062,-0.0072 0.01363,-0.0127 0.02222,-0.01643 0.0087,-0.0037 0.01821,-0.0056 0.02866,-0.0056 m 0.16414,0.0058 -0.0049,0.02596 c -0.0065,-0.0031 -0.01304,-0.0055 -0.01951,-0.0071 -0.0065,-0.0016 -0.0126,-0.0024 -0.01839,-0.0024 -0.0066,0 -0.0117,8.72e-4 -0.01531,0.0026 -0.0035,0.0017 -0.0053,0.0041 -0.0053,0.0073 0,0.0019 9.96e-4,0.0034 0.003,0.0045 0.002,0.0011 0.0059,0.0023 0.01176,0.0035 l 0.0061,0.0011 c 0.01351,0.0029 0.02297,0.0066 0.02839,0.01111 0.0054,0.0045 0.0081,0.01074 0.0081,0.01877 0,0.01214 -0.0048,0.02163 -0.01429,0.02848 -0.0095,0.0068 -0.02284,0.01018 -0.03996,0.01018 -0.0072,0 -0.01447,-5.6e-4 -0.02194,-0.0017 -0.0075,-0.0011 -0.01509,-0.0028 -0.02288,-0.005 l 0.005,-0.02624 c 0.006,0.0035 0.01248,0.0062 0.01933,0.008 0.0069,0.0018 0.01398,0.0027 0.0212,0.0027 0.007,0 0.01233,-8.41e-4 0.01587,-0.0025 0.0035,-0.0017 0.0053,-0.0041 0.0053,-0.0074 0,-0.0022 -9.96e-4,-0.004 -0.003,-0.0052 -0.002,-0.0012 -0.0061,-0.0025 -0.01232,-0.0038 l -0.0061,-0.0011 c -0.01195,-0.0025 -0.02048,-0.0062 -0.02558,-0.01102 -0.0051,-0.0049 -0.0077,-0.01158 -0.0077,-0.02017 0,-0.01164 0.0044,-0.0206 0.01317,-0.02689 0.0088,-0.0063 0.02144,-0.0094 0.03782,-0.0094 0.0072,0 0.01419,4.98e-4 0.0211,0.0015 0.007,9.34e-4 0.01397,0.0024 0.02101,0.0043 m 0.01979,0.0606 0.01223,-0.06386 h 0.03352 l -0.01055,0.05443 c -7.47e-4,0.0035 -0.0013,0.0066 -0.0017,0.0091 -3.74e-4,0.0025 -5.6e-4,0.0045 -5.6e-4,0.0059 0,0.0039 0.0011,0.007 0.0033,0.0091 0.0022,0.0022 0.0053,0.0033 0.0093,0.0033 0.0069,0 0.01285,-0.0027 0.01783,-0.008 0.005,-0.0054 0.0084,-0.01279 0.01027,-0.02232 l 0.01008,-0.05145 h 0.03352 l -0.02026,0.10457 h -0.03371 l 0.0031,-0.01531 c -0.0057,0.006 -0.01173,0.01055 -0.01802,0.01354 -0.0063,0.003 -0.01292,0.0045 -0.01989,0.0045 -0.0095,0 -0.0169,-0.0025 -0.02213,-0.0076 -0.0052,-0.005 -0.0078,-0.01217 -0.0078,-0.02138 0,-0.0022 1.25e-4,-0.0045 3.74e-4,-0.0069 2.49e-4,-0.0024 6.22e-4,-0.0049 0.0011,-0.0076 m 0.23445,-0.0606 -0.0053,0.02726 c -0.0045,-0.003 -0.0089,-0.0053 -0.01326,-0.0068 -0.0044,-0.0016 -0.0086,-0.0023 -0.01279,-0.0023 -0.01089,0 -0.01979,0.0037 -0.0267,0.01102 -0.0069,0.0073 -0.01036,0.01662 -0.01036,0.02801 0,0.0073 0.0021,0.01295 0.0064,0.01699 0.0043,0.004 0.01036,0.006 0.01821,0.006 0.0052,0 0.01036,-7.78e-4 0.01541,-0.0023 0.005,-0.0016 0.0098,-0.0039 0.01438,-0.0069 l -0.0051,0.02736 c -0.0055,0.0019 -0.01111,0.0034 -0.01671,0.0043 -0.0056,9.95e-4 -0.01124,0.0015 -0.0169,0.0015 -0.01643,0 -0.0291,-0.0037 -0.038,-0.01102 -0.0088,-0.0074 -0.01326,-0.0179 -0.01326,-0.03147 0,-0.0085 0.0016,-0.01681 0.0049,-0.02484 0.0033,-0.008 0.008,-0.01525 0.0141,-0.02166 0.0068,-0.007 0.01457,-0.01226 0.02334,-0.01569 0.0088,-0.0034 0.01889,-0.0051 0.03035,-0.0051 0.0053,0 0.01055,4.98e-4 0.01578,0.0015 0.0052,9.34e-4 0.01043,0.0024 0.01559,0.0043 m 0.03651,-0.04398 h 0.03361 l -0.01531,0.07871 0.0451,-0.038 h 0.0394 l -0.06078,0.04837 0.04416,0.05621 h -0.03819 l -0.03389,-0.0451 -0.0088,0.0451 h -0.03352 l 0.0282,-0.14528 m 0.20037,0.04398 -0.0049,0.02596 c -0.0065,-0.0031 -0.01304,-0.0055 -0.01951,-0.0071 -0.0065,-0.0016 -0.01261,-0.0024 -0.01839,-0.0024 -0.0066,0 -0.0117,8.72e-4 -0.01531,0.0026 -0.0035,0.0017 -0.0053,0.0041 -0.0053,0.0073 0,0.0019 9.96e-4,0.0034 0.003,0.0045 0.002,0.0011 0.0059,0.0023 0.01176,0.0035 l 0.0061,0.0011 c 0.01351,0.0029 0.02297,0.0066 0.02838,0.01111 0.0054,0.0045 0.0081,0.01074 0.0081,0.01877 0,0.01214 -0.0048,0.02163 -0.01429,0.02848 -0.0095,0.0068 -0.02284,0.01018 -0.03996,0.01018 -0.0072,0 -0.01447,-5.6e-4 -0.02194,-0.0017 -0.0075,-0.0011 -0.01509,-0.0028 -0.02287,-0.005 l 0.005,-0.02624 c 0.006,0.0035 0.01248,0.0062 0.01933,0.008 0.0069,0.0018 0.01397,0.0027 0.0212,0.0027 0.007,0 0.01232,-8.41e-4 0.01587,-0.0025 0.0035,-0.0017 0.0053,-0.0041 0.0053,-0.0074 0,-0.0022 -9.96e-4,-0.004 -0.003,-0.0052 -0.002,-0.0012 -0.0061,-0.0025 -0.01232,-0.0038 l -0.0061,-0.0011 c -0.01195,-0.0025 -0.02048,-0.0062 -0.02558,-0.01102 -0.0051,-0.0049 -0.0077,-0.01158 -0.0077,-0.02017 0,-0.01164 0.0044,-0.0206 0.01317,-0.02689 0.0088,-0.0063 0.02144,-0.0094 0.03781,-0.0094 0.0072,0 0.01419,4.98e-4 0.0211,0.0015 0.007,9.34e-4 0.01397,0.0024 0.02101,0.0043"
       id="path171"
       inkscape:connector-curvature="0"
       style="opacity:0.26275" />
  </g>
</svg>
