<svg id="Слой_1" data-name="Слой 1"
  xmlns:dc="http://purl.org/dc/elements/1.1/"
  xmlns:cc="http://creativecommons.org/ns#"
  xmlns:rdf="http://www.w3.org/1999/02/22-rdf-syntax-ns#"
  xmlns="http://www.w3.org/2000/svg"
  xmlns:sodipodi="http://sodipodi.sourceforge.net/DTD/sodipodi-0.dtd"
  xmlns:inkscape="http://www.inkscape.org/namespaces/inkscape" viewBox="0 0 26 26">
  <sodipodi:namedview pagecolor="#ffffff" bordercolor="#666666" borderopacity="1" objecttolerance="10" gridtolerance="10" guidetolerance="10" inkscape:pageopacity="0" inkscape:pageshadow="2" inkscape:window-width="1609" inkscape:window-height="1286" id="namedview30" showgrid="true" inkscape:zoom="27.961538" inkscape:cx="13" inkscape:cy="13" inkscape:window-x="0" inkscape:window-y="37" inkscape:window-maximized="0">
    <inkscape:grid type="xygrid" id="grid_kicad" spacingx="0.5" spacingy="0.5" color="#9999ff" opacity="0.13" empspacing="2" />
  </sodipodi:namedview>
  <metadata id="metadata43">
    <rdf:RDF>
      <cc:Work rdf:about="">
        <cc:license rdf:resource="http://creativecommons.org/licenses/by-sa/4.0/" />
        <dc:format>image/svg+xml</dc:format>
        <dc:type rdf:resource="http://purl.org/dc/dcmitype/StillImage" />
        <dc:title>add_arc</dc:title>
      </cc:Work>
      <cc:License rdf:about="http://creativecommons.org/licenses/by-sa/4.0/">
        <cc:permits rdf:resource="http://creativecommons.org/ns#Reproduction" />
        <cc:permits rdf:resource="http://creativecommons.org/ns#Distribution" />
        <cc:requires rdf:resource="http://creativecommons.org/ns#Notice" />
        <cc:requires rdf:resource="http://creativecommons.org/ns#Attribution" />
        <cc:permits rdf:resource="http://creativecommons.org/ns#DerivativeWorks" />
        <cc:requires rdf:resource="http://creativecommons.org/ns#ShareAlike" />
      </cc:License>
    </rdf:RDF>
  </metadata>
  <defs>
    <style>.cls-1,.cls-5{fill:#b9b9b9;}.cls-2{fill:#e61c50;}.cls-3{fill:#545454;}.cls-4{fill:#1a81c4;}.cls-5{opacity:0.6;}.cls-6{fill:none;stroke:#f5f5f5;stroke-linecap:round;stroke-linejoin:round;stroke-width:2px;}</style>
  </defs>
  <title>delete_sheet</title>
  <path class="cls-1" d="M4.1492.9976H16.7515a3.151,3.151,0,0,1,3.151,3.151v12.606a3.151,3.151,0,0,1-3.151,3.151H4.1493a3.151,3.151,0,0,1-3.151-3.151V4.1485A3.1509,3.1509,0,0,1,4.1492.9976Z"/>
  <rect class="cls-2" x="2.0466" y="2.0458" width="18.9041" height="18.9081" rx="3.151"/>
  <rect class="cls-3" x="3.0948" y="3.096" width="18.9041" height="18.9081" rx="3.151"/>
  <path class="cls-1" d="M10.1611,10.4194H6.7L3.0988,6.818l0-.5034s.0018-.3012.0133-.4008c.0121-.1048.0828-.414.0828-.414l3.92,3.92h3.0468Z"/>
  <rect class="cls-1" x="9.7139" y="8.9181" width="3.2258" height="1.9354"/>
  <rect class="cls-1" x="9.7139" y="13.1127" width="3.2258" height="1.9354"/>
  <rect class="cls-1" x="9.7139" y="17.3072" width="3.2258" height="1.9355"/>
  <rect class="cls-1" x="17.2359" y="18.3452" width="3.2258" height="1.9354"/>
  <rect class="cls-1" x="17.2359" y="13.5107" width="3.2258" height="1.9354"/>
  <rect class="cls-1" x="17.2359" y="8.6762" width="3.2258" height="1.9354"/>
  <rect class="cls-1" x="17.2359" y="4.6375" width="3.2258" height="1.9354"/>
  <path class="cls-1" d="M10.1611,6.2036H6.7L4.2808,3.7842s.3-.22.4078-.2818A3.3455,3.3455,0,0,1,5.1905,3.28L7.1143,5.2036h3.0468Z"/>
  <rect class="cls-1" x="9.7139" y="4.7235" width="3.2258" height="1.9355"/>
  <polygon class="cls-1" points="17.29 19.833 15.965 19.833 14.876 18.744 14.876 12.59 15.876 12.59 15.876 18.33 16.379 18.833 17.29 18.833 17.29 19.833"/>
  <rect class="cls-1" x="14.876" y="3.0949" width="1" height="7.4632"/>
  <rect class="cls-1" x="20.3652" y="14.0259" width="1.6344" height="1"/>
  <polygon class="cls-1" points="6.361 22.006 5.923 22.006 5.361 21.869 5.361 19.832 7.44 17.752 9.757 17.752 9.757 18.752 7.854 18.752 6.361 20.246 6.361 22.006"/>
  <rect class="cls-1" x="6.6855" y="13.563" width="3.0391" height="1"/>
  <path class="cls-4" d="M16.9456,11.5744A1.5753,1.5753,0,1,1,15.37,9.9987,1.5754,1.5754,0,0,1,16.9456,11.5744Z"/>
  <path class="cls-1" d="M16.492,11.5744a1.1217,1.1217,0,1,1-1.1216-1.122A1.1217,1.1217,0,0,1,16.492,11.5744Z"/>
  <circle class="cls-4" cx="5.6697" cy="14.0627" r="1.5755"/>
  <path class="cls-1" d="M6.7913,14.0627A1.1217,1.1217,0,1,1,5.67,12.9407,1.1217,1.1217,0,0,1,6.7913,14.0627Z"/>
  <rect class="cls-5" x="3.0971" y="3.0963" width="18.9041" height="18.9081" rx="3.151"/>
  <circle class="cls-2" cx="18.0017" cy="17.9939" r="7"/>
  <line class="cls-6" x1="20.4706" y1="15.5251" x2="15.5208" y2="20.4749"/>
  <line class="cls-6" x1="20.4706" y1="20.4749" x2="15.5208" y2="15.5251"/>
</svg>