<?xml version="1.0" encoding="UTF-8" standalone="no"?>
<svg
   xmlns:dc="http://purl.org/dc/elements/1.1/"
   xmlns:cc="http://creativecommons.org/ns#"
   xmlns:rdf="http://www.w3.org/1999/02/22-rdf-syntax-ns#"
   xmlns:svg="http://www.w3.org/2000/svg"
   xmlns="http://www.w3.org/2000/svg"
   xmlns:xlink="http://www.w3.org/1999/xlink"
   xmlns:sodipodi="http://sodipodi.sourceforge.net/DTD/sodipodi-0.dtd"
   xmlns:inkscape="http://www.inkscape.org/namespaces/inkscape"
   version="1.1"
   id="Layer_1"
   width="26"
   height="26"
   viewBox="0 0 26 26"
   style="overflow:visible"
   xml:space="preserve"
   inkscape:version="0.48.3.1 r9886"
   sodipodi:docname="directory.svg"><metadata
     id="metadata130"><rdf:RDF><cc:Work
         rdf:about=""><dc:format>image/svg+xml</dc:format><dc:type
           rdf:resource="http://purl.org/dc/dcmitype/StillImage" /></cc:Work></rdf:RDF></metadata><defs
     id="defs128"><linearGradient
       x1="302.86"
       y1="366.65"
       gradientTransform="matrix(2.7744,0,0,1.9697,-1892.2,-872.89)"
       x2="302.86"
       gradientUnits="userSpaceOnUse"
       y2="609.51"
       id="linearGradient2528"><stop
         offset="0"
         style="stop-opacity:0"
         id="stop5050" /><stop
         offset=".5"
         id="stop5056" /><stop
         offset="1"
         style="stop-opacity:0"
         id="stop5052" /></linearGradient><radialGradient
       r="117.14"
       gradientTransform="matrix(2.7744,0,0,1.9697,-1891.6,-872.89)"
       cx="605.71"
       cy="486.65"
       gradientUnits="userSpaceOnUse"
       xlink:href="#linearGradient5060"
       id="radialGradient2530" /><linearGradient
       id="linearGradient5060"><stop
         offset="0"
         id="stop5062" /><stop
         offset="1"
         style="stop-opacity:0"
         id="stop5064" /></linearGradient><radialGradient
       r="117.14"
       gradientTransform="matrix(-2.7744,0,0,1.9697,112.76,-872.89)"
       cx="605.71"
       cy="486.65"
       gradientUnits="userSpaceOnUse"
       xlink:href="#linearGradient5060"
       id="radialGradient2532" /><linearGradient
       x1="-28.531"
       y1="17.956"
       gradientTransform="translate(34.378,-14.501)"
       x2="-28.531"
       gradientUnits="userSpaceOnUse"
       y2="37.503"
       id="linearGradient2558"><stop
         offset="0"
         style="stop-color:#fff"
         id="stop11113" /><stop
         offset=".91014"
         style="stop-color:#cdcdcd"
         id="stop11115" /><stop
         offset="1"
         style="stop-color:#a1a1a1"
         id="stop11117" /></linearGradient><linearGradient
       x1="9.8764"
       y1="2.6015"
       x2="9.8764"
       gradientUnits="userSpaceOnUse"
       y2="23.062"
       id="linearGradient2560"><stop
         offset="0"
         style="stop-color:#c1c1c1"
         id="stop5159" /><stop
         offset="1"
         style="stop-color:#909090"
         id="stop5161" /></linearGradient><radialGradient
       r="11.268"
       gradientTransform="matrix(1.69,0,0,1.0436,-5.449,0.96175)"
       cx="7.8186"
       cy="8.5609"
       gradientUnits="userSpaceOnUse"
       id="radialGradient2553"><stop
         offset="0"
         style="stop-color:#f0c178"
         id="stop2612" /><stop
         offset=".5"
         style="stop-color:#e18941"
         id="stop2614" /><stop
         offset="1"
         style="stop-color:#ec4f18"
         id="stop2616" /></radialGradient><linearGradient
       x1="9.7046"
       y1="20.882"
       gradientTransform="matrix(0.99458,0,0,0.99458,-0.33927,1.7178)"
       x2="9.7046"
       gradientUnits="userSpaceOnUse"
       y2="4.303"
       id="linearGradient2555"><stop
         offset="0"
         style="stop-color:#bb2b12"
         id="stop2605" /><stop
         offset="1"
         style="stop-color:#cd7233"
         id="stop2607" /></linearGradient><radialGradient
       r="10.273"
       gradientTransform="matrix(-0.016802,1.3943,-1.7966,-0.021651,14.152,2.1566)"
       cx="4.02"
       cy="5.5927"
       gradientUnits="userSpaceOnUse"
       id="radialGradient2550"><stop
         offset="0"
         style="stop-color:#fff"
         id="stop3754" /><stop
         offset=".84754"
         style="stop-color:#fff"
         id="stop3760" /><stop
         offset="1"
         style="stop-color:#fff;stop-opacity:0"
         id="stop3756" /></radialGradient><linearGradient
       x1="18.031"
       y1="16.408"
       gradientTransform="matrix(0.44503,0,0,0.40237,2.8192,3.8499)"
       x2="20.055"
       gradientUnits="userSpaceOnUse"
       y2="24.628"
       id="linearGradient2547"><stop
         offset="0"
         style="stop-color:#fff;stop-opacity:.27451"
         id="stop2687" /><stop
         offset="1"
         style="stop-color:#fff;stop-opacity:.078431"
         id="stop2689" /></linearGradient><linearGradient
       inkscape:collect="always"
       xlink:href="#XMLID_14_"
       id="linearGradient4000"
       gradientUnits="userSpaceOnUse"
       gradientTransform="matrix(0.20708755,0,0,0.20708755,0.78183411,0.35730487)"
       x1="53.915501"
       y1="91.115196"
       x2="55.820202"
       y2="110.6698" /><linearGradient
       inkscape:collect="always"
       xlink:href="#XMLID_15_"
       id="linearGradient4002"
       gradientUnits="userSpaceOnUse"
       gradientTransform="matrix(0.20708755,0,0,0.20708755,0.78183411,0.35730487)"
       x1="56.851101"
       y1="91.507797"
       x2="58.826099"
       y2="111.7843" /><linearGradient
       inkscape:collect="always"
       xlink:href="#XMLID_16_"
       id="linearGradient4004"
       gradientUnits="userSpaceOnUse"
       gradientTransform="matrix(0.20708755,0,0,0.20708755,0.78183411,0.35730487)"
       x1="57.940899"
       y1="89.600601"
       x2="60.232399"
       y2="113.1264" /><linearGradient
       inkscape:collect="always"
       xlink:href="#XMLID_18_"
       id="linearGradient4006"
       gradientUnits="userSpaceOnUse"
       gradientTransform="matrix(0.20708755,0,0,0.20708755,0.78183411,0.35730487)"
       x1="35.979"
       y1="15.0229"
       x2="68.9291"
       y2="107.2834" /><linearGradient
       inkscape:collect="always"
       xlink:href="#XMLID_19_"
       id="linearGradient4008"
       gradientUnits="userSpaceOnUse"
       gradientTransform="matrix(0.20708755,0,0,0.20708755,0.78183411,0.35730487)"
       x1="49.921902"
       y1="23.2446"
       x2="58.3703"
       y2="104.0195" /><radialGradient
       inkscape:collect="always"
       xlink:href="#XMLID_21_"
       id="radialGradient4010"
       gradientUnits="userSpaceOnUse"
       gradientTransform="matrix(0.20708755,0,0,0.20708755,0.78183411,0.35730487)"
       cx="79.615196"
       cy="116.7344"
       r="88.041702" /><radialGradient
       inkscape:collect="always"
       xlink:href="#XMLID_22_"
       id="radialGradient4012"
       gradientUnits="userSpaceOnUse"
       gradientTransform="matrix(0.20708755,0,0,0.20708755,0.78183411,0.35730487)"
       cx="126.5"
       cy="130.1982"
       r="82.374199" /><linearGradient
       inkscape:collect="always"
       xlink:href="#XMLID_23_"
       id="linearGradient4014"
       gradientUnits="userSpaceOnUse"
       gradientTransform="matrix(0.20708755,0,0,0.20708755,0.78183411,0.35730487)"
       x1="132.50591"
       y1="35.3008"
       x2="40.759701"
       y2="115.4526" /><radialGradient
       inkscape:collect="always"
       xlink:href="#XMLID_24_"
       id="radialGradient4016"
       gradientUnits="userSpaceOnUse"
       gradientTransform="matrix(0.20708755,0,0,0.20708755,0.78183411,0.35730487)"
       cx="87.546898"
       cy="108.1338"
       r="112.4545" /><linearGradient
       inkscape:collect="always"
       xlink:href="#XMLID_25_"
       id="linearGradient4018"
       gradientUnits="userSpaceOnUse"
       gradientTransform="matrix(0.20708755,0,0,0.20708755,0.78183411,0.35730487)"
       x1="59.637199"
       y1="28.6401"
       x2="65.511497"
       y2="120.5861" /><linearGradient
       inkscape:collect="always"
       xlink:href="#XMLID_26_"
       id="linearGradient4020"
       gradientUnits="userSpaceOnUse"
       gradientTransform="matrix(0.20708755,0,0,0.20708755,0.78183411,0.35730487)"
       x1="103.9541"
       y1="11.4053"
       x2="108.0303"
       y2="106.0095" /></defs><sodipodi:namedview
     pagecolor="#ffffff"
     bordercolor="#666666"
     borderopacity="1"
     objecttolerance="10"
     gridtolerance="10"
     guidetolerance="10"
     inkscape:pageopacity="0"
     inkscape:pageshadow="2"
     inkscape:window-width="1301"
     inkscape:window-height="744"
     id="namedview126"
     showgrid="false"
     inkscape:zoom="13.302446"
     inkscape:cx="5.9687205"
     inkscape:cy="10.821029"
     inkscape:window-x="65"
     inkscape:window-y="24"
     inkscape:window-maximized="1"
     inkscape:current-layer="Layer_1" /><linearGradient
     id="XMLID_14_"
     gradientUnits="userSpaceOnUse"
     x1="53.915501"
     y1="91.115196"
     x2="55.820202"
     y2="110.6698"
     gradientTransform="matrix(0.20708755,0,0,0.20708755,0.78183411,0.35730487)"><stop
       offset="0"
       style="stop-color:#999999"
       id="stop4" /><stop
       offset="1"
       style="stop-color:#4D4D4D"
       id="stop6" /></linearGradient><linearGradient
     id="XMLID_15_"
     gradientUnits="userSpaceOnUse"
     x1="56.851101"
     y1="91.507797"
     x2="58.826099"
     y2="111.7843"
     gradientTransform="matrix(0.20708755,0,0,0.20708755,0.78183411,0.35730487)"><stop
       offset="0"
       style="stop-color:#999999"
       id="stop11" /><stop
       offset="1"
       style="stop-color:#4D4D4D"
       id="stop13" /></linearGradient><linearGradient
     id="XMLID_16_"
     gradientUnits="userSpaceOnUse"
     x1="57.940899"
     y1="89.600601"
     x2="60.232399"
     y2="113.1264"
     gradientTransform="matrix(0.20708755,0,0,0.20708755,0.78183411,0.35730487)"><stop
       offset="0"
       style="stop-color:#999999"
       id="stop18" /><stop
       offset="1"
       style="stop-color:#4D4D4D"
       id="stop20" /></linearGradient><linearGradient
     id="XMLID_17_"
     gradientUnits="userSpaceOnUse"
     x1="47.311501"
     y1="10.7583"
     x2="58.862999"
     y2="110.2979"
     gradientTransform="matrix(0.20708755,0,0,0.20708755,0.78183411,0.35730487)"><stop
       offset="0"
       style="stop-color:#999999"
       id="stop25" /><stop
       offset="1"
       style="stop-color:#4D4D4D"
       id="stop27" /></linearGradient><linearGradient
     id="XMLID_18_"
     gradientUnits="userSpaceOnUse"
     x1="35.979"
     y1="15.0229"
     x2="68.9291"
     y2="107.2834"
     gradientTransform="matrix(0.20708755,0,0,0.20708755,0.78183411,0.35730487)"><stop
       offset="0"
       style="stop-color:#FFFFFF"
       id="stop32" /><stop
       offset="0.2191"
       style="stop-color:#F4F4F4"
       id="stop34" /><stop
       offset="0.6013"
       style="stop-color:#D8D8D8"
       id="stop36" /><stop
       offset="1"
       style="stop-color:#B3B3B3"
       id="stop38" /></linearGradient><linearGradient
     id="XMLID_19_"
     gradientUnits="userSpaceOnUse"
     x1="49.921902"
     y1="23.2446"
     x2="58.3703"
     y2="104.0195"
     gradientTransform="matrix(0.20708755,0,0,0.20708755,0.78183411,0.35730487)"><stop
       offset="0"
       style="stop-color:#D9D9D9"
       id="stop45" /><stop
       offset="0.3749"
       style="stop-color:#CECECE"
       id="stop47" /><stop
       offset="1"
       style="stop-color:#B3B3B3"
       id="stop49" /></linearGradient><linearGradient
     id="XMLID_20_"
     gradientUnits="userSpaceOnUse"
     x1="54.9907"
     y1="39.262199"
     x2="63.210098"
     y2="110.0893"
     gradientTransform="matrix(0.20708755,0,0,0.20708755,0.78183411,0.35730487)"><stop
       offset="0"
       style="stop-color:#999999"
       id="stop54" /><stop
       offset="1"
       style="stop-color:#4D4D4D"
       id="stop56" /></linearGradient><radialGradient
     id="XMLID_21_"
     cx="79.615196"
     cy="116.7344"
     r="88.041702"
     gradientUnits="userSpaceOnUse"
     gradientTransform="matrix(0.20708755,0,0,0.20708755,0.78183411,0.35730487)"><stop
       offset="0"
       style="stop-color:#FFDD70"
       id="stop61" /><stop
       offset="0.4225"
       style="stop-color:#FFAB43"
       id="stop63" /><stop
       offset="0.8022"
       style="stop-color:#FF841F"
       id="stop65" /><stop
       offset="1"
       style="stop-color:#FF7512"
       id="stop67" /></radialGradient><radialGradient
     id="XMLID_22_"
     cx="126.5"
     cy="130.1982"
     r="82.374199"
     gradientUnits="userSpaceOnUse"
     gradientTransform="matrix(0.20708755,0,0,0.20708755,0.78183411,0.35730487)"><stop
       offset="0"
       style="stop-color:#F2D26A"
       id="stop72" /><stop
       offset="0.2621"
       style="stop-color:#F6B650"
       id="stop74" /><stop
       offset="0.7541"
       style="stop-color:#FC8723"
       id="stop76" /><stop
       offset="1"
       style="stop-color:#FF7512"
       id="stop78" /></radialGradient><linearGradient
     id="XMLID_23_"
     gradientUnits="userSpaceOnUse"
     x1="132.50591"
     y1="35.3008"
     x2="40.759701"
     y2="115.4526"
     gradientTransform="matrix(0.20708755,0,0,0.20708755,0.78183411,0.35730487)"><stop
       offset="0"
       style="stop-color:#FFDD70"
       id="stop83" /><stop
       offset="0.3826"
       style="stop-color:#FFB047"
       id="stop85" /><stop
       offset="0.791"
       style="stop-color:#FF8521"
       id="stop87" /><stop
       offset="1"
       style="stop-color:#FF7512"
       id="stop89" /></linearGradient><radialGradient
     id="XMLID_24_"
     cx="87.546898"
     cy="108.1338"
     r="112.4545"
     gradientUnits="userSpaceOnUse"
     gradientTransform="matrix(0.20708755,0,0,0.20708755,0.78183411,0.35730487)"><stop
       offset="0"
       style="stop-color:#FFF3CC"
       id="stop94" /><stop
       offset="0.1912"
       style="stop-color:#FFDBAA"
       id="stop96" /><stop
       offset="0.5738"
       style="stop-color:#FFB06C"
       id="stop98" /><stop
       offset="0.854"
       style="stop-color:#FF9445"
       id="stop100" /><stop
       offset="1"
       style="stop-color:#FF8A36"
       id="stop102" /></radialGradient><linearGradient
     id="XMLID_25_"
     gradientUnits="userSpaceOnUse"
     x1="59.637199"
     y1="28.6401"
     x2="65.511497"
     y2="120.5861"
     gradientTransform="matrix(0.20708755,0,0,0.20708755,0.78183411,0.35730487)"><stop
       offset="0"
       style="stop-color:#EBDBA6"
       id="stop107" /><stop
       offset="1"
       style="stop-color:#FF7512"
       id="stop109" /></linearGradient><linearGradient
     id="XMLID_26_"
     gradientUnits="userSpaceOnUse"
     x1="103.9541"
     y1="11.4053"
     x2="108.0303"
     y2="106.0095"
     gradientTransform="matrix(0.20708755,0,0,0.20708755,0.78183411,0.35730487)"><stop
       offset="0"
       style="stop-color:#999999"
       id="stop114" /><stop
       offset="1"
       style="stop-color:#4D4D4D"
       id="stop116" /></linearGradient><g
     id="g3981"
     transform="translate(-36.233937,15.561048)"><path
       inkscape:connector-curvature="0"
       id="path8"
       d="m 0.78183411,20.438378 c 0,0.993399 0.93603579,1.456032 1.34606909,1.456032 H 22.493308 c 0.812197,-0.04929 0.861069,-0.695192 0.861069,-1.471149 v 0.02257 c 0,-0.788589 -22.57254289,-0.0074 -22.57254289,-0.0074 z"
       style="opacity:0.2;fill:url(#linearGradient4000)" /><path
       inkscape:connector-curvature="0"
       id="path15"
       d="m 0.78183411,20.645465 c 0,0.850923 0.67634799,1.456033 1.34606909,1.456033 H 23.158266 c 0.812197,-0.04929 1.473221,-0.156144 1.473221,-0.931894 l -0.03459,-0.516683 c 0,-0.768089 -23.81506854,-0.443996 -23.81506854,-0.0074 z"
       style="opacity:0.2;fill:url(#linearGradient4002)" /><path
       inkscape:connector-curvature="0"
       id="path22"
       d="M 23.572441,20.615438 0.78183411,20.23129 v 0.621263 c 0,1.167974 0.93603579,1.456033 1.34606909,1.456033 H 23.492504 c 0.358055,-0.02153 0.735369,-0.05467 1.045793,-0.150967 0.394088,-0.122389 0.679868,-0.346872 0.679868,-0.780928 0,0 -0.371515,-0.761253 -1.645724,-0.761253 z"
       style="opacity:0.2;fill:url(#linearGradient4004)" /><path
       inkscape:connector-curvature="0"
       id="path29"
       d="m 2.2202643,3.6914145 c -0.7931454,0 -1.43843019,0.6438352 -1.43843019,1.4353238 V 20.251999 c 0,0.791489 0.64528479,1.435324 1.43843019,1.435324 H 21.501772 c 0.793146,0 1.438223,-0.643835 1.438223,-1.435324 V 7.0041941 c 0,-0.7914886 -0.645077,-1.4353238 -1.438223,-1.4353238 h -7.729543 c -0.578395,0 -1.310864,-0.3089747 -1.822578,-0.7689161 0,0 -0.214335,-0.1921773 -0.214335,-0.1921773 C 11.297533,4.2145177 10.622842,3.6914145 9.8205846,3.6914145 H 2.2202643 z"
       style="fill:#4d4d4d" /><path
       inkscape:connector-curvature="0"
       id="path40"
       d="m 22.733114,20.251999 c 0,0.675726 -0.554165,1.228237 -1.231135,1.228237 H 2.2202643 c -0.6771763,0 -1.23134259,-0.552511 -1.23134259,-1.228237 V 5.1267383 c 0,-0.6755196 0.55416629,-1.2282362 1.23134259,-1.2282362 h 7.6003203 c 0.6773834,0 1.2733814,0.4114829 1.7763964,0.863348 l 0.214129,0.1921772 c 0.503016,0.4518651 1.283943,0.8219305 1.961119,0.8219305 h 7.72975 c 0.677176,0 1.231135,0.5525096 1.231135,1.2282363 V 20.251999 z"
       style="fill:url(#linearGradient4006)" /><path
       inkscape:connector-curvature="0"
       id="path42"
       d="m 21.501979,5.7761649 h -7.72975 c -0.677176,0 -1.458103,-0.3700655 -1.961119,-0.8219305 L 11.596981,4.7620572 C 11.094173,4.3101921 10.497968,3.8987091 9.8205846,3.8987091 H 2.2202643 C 1.543088,3.8985021 0.98892171,4.4512187 0.98892171,5.1267383 v 0.2070876 c 0,-0.6755196 0.55416629,-1.2282363 1.23134259,-1.2282363 h 7.6003203 c 0.6773834,0 1.2733814,0.411483 1.7763964,0.863348 l 0.214129,0.1921773 c 0.503016,0.451865 1.283943,0.8219305 1.961119,0.8219305 h 7.72975 c 0.677176,0 1.231135,0.5525096 1.231135,1.2282363 V 7.0041941 c 0,-0.6755196 -0.554165,-1.2280292 -1.231135,-1.2280292 z"
       style="fill:#ffffff" /><path
       inkscape:connector-curvature="0"
       id="path51"
       d="m 1.4743349,21.027956 c 0,0 0.2037742,0.03479 0.3344464,-0.05882 0.1379203,-0.09899 0.2155782,-0.38042 0.2155782,-0.75297 v -8.648805 c 0,-0.78859 0.6454919,-1.42994 1.4386372,-1.42994 h 7.7260223 c 0.620434,0 1.36305,-0.4156242 1.82382,-0.8277285 l 0.213922,-0.1913489 c 0.655225,-0.5862649 1.281457,-0.8712173 1.914938,-0.8712173 h 7.591415 V 8.1228811 h -7.798502 c -0.633481,0 -1.259714,0.2849524 -1.914939,0.8712173 l -0.213921,0.1913489 c -0.46077,0.4118971 -1.203386,0.8277287 -1.82382,0.8277287 H 3.2559091 c -0.7931453,0 -1.4386372,0.641558 -1.4386372,1.430147 v 8.648598 c 0.012839,0.417695 -0.1025083,0.803085 -0.2416712,0.901037 -0.027336,0.01905 -0.1012658,0.035 -0.1012658,0.035 z"
       style="fill:url(#linearGradient4008)" /><path
       inkscape:connector-curvature="0"
       id="path58"
       d="m 15.141699,8.2473407 c -0.633481,0 -1.259713,0.2849525 -1.914938,0.8712173 l -0.213922,0.1913489 c -0.46077,0.4118972 -1.203386,0.8275221 -1.82382,0.8275221 H 3.4629967 c -0.7931453,0 -1.4386372,0.641557 -1.4386372,1.42994 v 8.648597 c 0,0.38249 -0.076623,0.655432 -0.2101939,0.74945 -0.078279,0.05509 -0.2164065,0.09443 -0.3756568,0.05509 -0.1578007,-0.03894 -0.2209624,-0.116382 -0.3236779,-0.211643 -0.049908,0.08718 0.068753,0.435712 0.1459968,0.49991 0.045352,0.03789 0.4270145,0.355983 0.8995883,0.355983 l 21.204937,0.02257 c 0.812404,-0.04929 1.438637,-0.695401 1.438637,-1.47115 V 9.6772802 c 0,-0.7883823 -0.645284,-1.4299395 -1.438637,-1.4299395 h -8.223654 z"
       style="opacity:0.75;fill:#4d4d4d" /><path
       inkscape:connector-curvature="0"
       id="path69"
       d="m 2.231447,20.216173 c 0,0.707618 -0.3139447,1.209184 -0.8380833,0.943905 0,0 0.3849757,0.320364 0.7345395,0.320364 0.3495638,0 21.2374498,0 21.2374498,0 0.677383,-0.04142 1.23155,-0.591648 1.23155,-1.264062 V 9.6772802 c 0,-0.6726203 -0.554167,-1.2228519 -1.23155,-1.2228519 h -8.223654 c -0.677383,0 -1.273795,0.3684087 -1.776811,0.8184099 L 13.150967,9.4641871 C 12.647744,9.9139814 11.86661,10.344516 11.189019,10.344516 H 3.4629967 c -0.6773834,0 -1.2315497,0.550232 -1.2315497,1.222853 v 8.648804 z"
       style="fill:url(#radialGradient4010)" /><path
       inkscape:connector-curvature="0"
       id="path80"
       d="M 23.365353,8.4544283 H 22.733114 V 21.480236 c 0.533873,0 0.632239,0 0.632239,0 0.677383,-0.04142 1.23155,-0.59165 1.23155,-1.264063 V 9.6772802 c 0,-0.6726203 -0.554167,-1.2228519 -1.23155,-1.2228519 z"
       style="fill:url(#radialGradient4012)" /><path
       inkscape:connector-curvature="0"
       id="path91"
       d="m 23.365353,21.06606 c 0,0 -20.9048672,-0.107685 -21.2374498,0 -0.067096,0.02154 -0.1259092,0.03914 -0.1793378,0.05385 -0.1290155,0.09919 -0.3601252,0.176025 -0.546297,0.03935 0.1000233,0.07869 0.4321918,0.320986 0.7256348,0.320986 0.3495638,0 21.2374498,0 21.2374498,0 0.677383,-0.04142 1.23155,-0.59165 1.23155,-1.264063 V 20.00909 c 0,0.672414 -0.554167,1.015557 -1.23155,1.056975 z"
       style="fill:url(#linearGradient4014)" /><path
       inkscape:connector-curvature="0"
       id="path104"
       d="m 12.92462,14.830861 c 5.82206,-0.702234 11.672283,-0.857549 11.672283,-0.857549 V 9.6772802 c 0,-0.6726203 -0.554167,-1.2228519 -1.23155,-1.2228519 h -8.223654 c -0.677383,0 -1.273795,0.3684087 -1.776811,0.8184099 L 13.150967,9.4641871 C 12.647744,9.9139814 11.86661,10.344516 11.189019,10.344516 H 3.4629967 c -0.6773834,0 -1.2315497,0.550232 -1.2315497,1.222853 v 6.340606 c 0,0 4.8709063,-2.375087 10.693173,-3.077114 z"
       style="fill:url(#radialGradient4016)" /><path
       inkscape:connector-curvature="0"
       id="path111"
       d="m 23.365353,8.4544283 h -8.223654 c -0.677383,0 -1.273795,0.3684087 -1.776811,0.8184099 L 13.150967,9.4641871 C 12.647744,9.9139814 11.86661,10.344516 11.189019,10.344516 H 3.4629967 c -0.6773834,0 -1.2315497,0.550232 -1.2315497,1.222853 v 0.207087 c 0,-0.672621 0.5541663,-1.222852 1.2315497,-1.222852 h 7.7260223 c 0.677383,0 1.458725,-0.430535 1.961948,-0.8803293 l 0.213921,-0.1913489 c 0.503016,-0.4500012 1.099428,-0.81841 1.776811,-0.81841 h 8.223654 c 0.677383,0 1.23155,0.5502316 1.23155,1.222852 V 9.6772802 c 0,-0.6726203 -0.554167,-1.2228519 -1.23155,-1.2228519 z"
       style="fill:url(#linearGradient4018)" /><rect
       id="rect118"
       height="13.046516"
       width="0.20708755"
       style="opacity:0.15;fill:url(#linearGradient4020)"
       y="8.4337196"
       x="22.733116" /><path
       inkscape:connector-curvature="0"
       id="path120"
       d="m 9.4795114,5.3274062 c 0,0.2277963 -0.1863788,0.4141751 -0.4141751,0.4141751 H 2.6456221 c -0.2277963,0 -0.4141751,-0.1863788 -0.4141751,-0.4141751 V 4.9132311 c 0,-0.2277964 0.1863788,-0.4141751 0.4141751,-0.4141751 h 6.4197142 c 0.2277963,0 0.4141751,0.1863787 0.4141751,0.4141751 v 0.4141751 z"
       style="fill:#f3af61" /><path
       inkscape:connector-curvature="0"
       id="path122"
       d="m 2.5420783,9.0549822 c -0.1714685,0 -0.3106313,0.1391628 -0.3106313,0.3106313 0,0.1714684 0.1391628,0.3106313 0.3106313,0.3106313 0.1714685,0 0.3106314,-0.1391629 0.3106314,-0.3106313 0,-0.1714685 -0.1391629,-0.3106313 -0.3106314,-0.3106313 z m 1.863788,0 c -0.1714684,0 -0.3106313,0.1391628 -0.3106313,0.3106313 0,0.1714684 0.1391629,0.3106313 0.3106313,0.3106313 0.1714685,0 0.3106314,-0.1391629 0.3106314,-0.3106313 0,-0.1714685 -0.1391629,-0.3106313 -0.3106314,-0.3106313 z m 1.863788,0 c -0.1714685,0 -0.3106313,0.1391628 -0.3106313,0.3106313 0,0.1714684 0.1391628,0.3106313 0.3106313,0.3106313 0.1714685,0 0.3106313,-0.1391629 0.3106313,-0.3106313 0,-0.1714685 -0.1391628,-0.3106313 -0.3106313,-0.3106313 z m 1.863788,0 c -0.1714685,0 -0.3106314,0.1391628 -0.3106314,0.3106313 0,0.1714684 0.1391629,0.3106313 0.3106314,0.3106313 0.1714685,0 0.3106313,-0.1391629 0.3106313,-0.3106313 0,-0.1714685 -0.1391628,-0.3106313 -0.3106313,-0.3106313 z m 1.863788,0 c -0.1714686,0 -0.3106314,0.1391628 -0.3106314,0.3106313 0,0.1714684 0.1391628,0.3106313 0.3106314,0.3106313 0.1714687,0 0.3106317,-0.1391629 0.3106317,-0.3106313 0,-0.1714685 -0.139163,-0.3106313 -0.3106317,-0.3106313 z m 1.8637887,0 c -0.171469,0 -0.310632,0.1391628 -0.310632,0.3106313 0,0.1714684 0.139163,0.3106313 0.310632,0.3106313 0.171468,0 0.310631,-0.1391629 0.310631,-0.3106313 0,-0.1714685 -0.139163,-0.3106313 -0.310631,-0.3106313 z"
       style="fill:#cccccc" /><path
       inkscape:connector-curvature="0"
       id="path124"
       d="m 2.5420783,10.91877 c -0.1714685,0 -0.3106313,0.139163 -0.3106313,0.310632 0,0.171468 0.1391628,0.310631 0.3106313,0.310631 0.1714685,0 0.3106314,-0.139163 0.3106314,-0.310631 0,-0.171469 -0.1391629,-0.310632 -0.3106314,-0.310632 z m 1.863788,0 c -0.1714684,0 -0.3106313,0.139163 -0.3106313,0.310632 0,0.171468 0.1391629,0.310631 0.3106313,0.310631 0.1714685,0 0.3106314,-0.139163 0.3106314,-0.310631 0,-0.171469 -0.1391629,-0.310632 -0.3106314,-0.310632 z m 1.863788,0 c -0.1714685,0 -0.3106313,0.139163 -0.3106313,0.310632 0,0.171468 0.1391628,0.310631 0.3106313,0.310631 0.1714685,0 0.3106313,-0.139163 0.3106313,-0.310631 0,-0.171469 -0.1391628,-0.310632 -0.3106313,-0.310632 z m 1.863788,0 c -0.1714685,0 -0.3106314,0.139163 -0.3106314,0.310632 0,0.171468 0.1391629,0.310631 0.3106314,0.310631 0.1714685,0 0.3106313,-0.139163 0.3106313,-0.310631 0,-0.171469 -0.1391628,-0.310632 -0.3106313,-0.310632 z m 1.863788,0 c -0.1714686,0 -0.3106314,0.139163 -0.3106314,0.310632 0,0.171468 0.1391628,0.310631 0.3106314,0.310631 0.1714687,0 0.3106317,-0.139163 0.3106317,-0.310631 0,-0.171469 -0.139163,-0.310632 -0.3106317,-0.310632 z m 1.8637887,0 c -0.171469,0 -0.310632,0.139163 -0.310632,0.310632 0,0.171468 0.139163,0.310631 0.310632,0.310631 0.171468,0 0.310631,-0.139163 0.310631,-0.310631 0,-0.171469 -0.139163,-0.310632 -0.310631,-0.310632 z m 1.863787,0 c -0.171468,0 -0.310632,0.139163 -0.310632,0.310632 0,0.171468 0.139164,0.310631 0.310632,0.310631 0.171469,0 0.310631,-0.139163 0.310631,-0.310631 0,-0.171469 -0.139162,-0.310632 -0.310631,-0.310632 z m 1.863788,0 c -0.171468,0 -0.310631,0.139163 -0.310631,0.310632 0,0.171468 0.139163,0.310631 0.310631,0.310631 0.171469,0 0.310631,-0.139163 0.310631,-0.310631 0,-0.171469 -0.139162,-0.310632 -0.310631,-0.310632 z m 1.863788,0 c -0.171468,0 -0.310631,0.139163 -0.310631,0.310632 0,0.171468 0.139163,0.310631 0.310631,0.310631 0.171468,0 0.310632,-0.139163 0.310632,-0.310631 0,-0.171469 -0.139164,-0.310632 -0.310632,-0.310632 z m 1.863788,0 c -0.171469,0 -0.310631,0.139163 -0.310631,0.310632 0,0.171468 0.139162,0.310631 0.310631,0.310631 0.171468,0 0.310632,-0.139163 0.310632,-0.310631 0,-0.171469 -0.139164,-0.310632 -0.310632,-0.310632 z m 1.863788,0 c -0.171468,0 -0.310631,0.139163 -0.310631,0.310632 0,0.171468 0.139163,0.310631 0.310631,0.310631 0.171469,0 0.310631,-0.139163 0.310631,-0.310631 0,-0.171469 -0.139162,-0.310632 -0.310631,-0.310632 z M 13.724806,9.0549822 c -0.171468,0 -0.310632,0.1391628 -0.310632,0.3106313 0,0.1714684 0.139164,0.3106313 0.310632,0.3106313 0.171469,0 0.310631,-0.1391629 0.310631,-0.3106313 0,-0.1714685 -0.139162,-0.3106313 -0.310631,-0.3106313 z m 1.863788,0 c -0.171468,0 -0.310631,0.1391628 -0.310631,0.3106313 0,0.1714684 0.139163,0.3106313 0.310631,0.3106313 0.171469,0 0.310631,-0.1391629 0.310631,-0.3106313 0,-0.1714685 -0.139162,-0.3106313 -0.310631,-0.3106313 z m 1.863788,0 c -0.171468,0 -0.310631,0.1391628 -0.310631,0.3106313 0,0.1714684 0.139163,0.3106313 0.310631,0.3106313 0.171468,0 0.310632,-0.1391629 0.310632,-0.3106313 0,-0.1714685 -0.139164,-0.3106313 -0.310632,-0.3106313 z m 1.863788,0 c -0.171469,0 -0.310631,0.1391628 -0.310631,0.3106313 0,0.1714684 0.139162,0.3106313 0.310631,0.3106313 0.171468,0 0.310632,-0.1391629 0.310632,-0.3106313 0,-0.1714685 -0.139164,-0.3106313 -0.310632,-0.3106313 z m 1.863788,0.6212626 c 0.171469,0 0.310631,-0.1391629 0.310631,-0.3106313 0,-0.1714685 -0.139162,-0.3106313 -0.310631,-0.3106313 -0.171468,0 -0.310631,0.1391628 -0.310631,0.3106313 0,0.1714684 0.139163,0.3106313 0.310631,0.3106313 z M 2.5420783,12.782558 c -0.1714685,0 -0.3106313,0.139163 -0.3106313,0.310632 0,0.171468 0.1391628,0.310631 0.3106313,0.310631 0.1714685,0 0.3106314,-0.139163 0.3106314,-0.310631 0,-0.171469 -0.1391629,-0.310632 -0.3106314,-0.310632 z m 1.863788,0 c -0.1714684,0 -0.3106313,0.139163 -0.3106313,0.310632 0,0.171468 0.1391629,0.310631 0.3106313,0.310631 0.1714685,0 0.3106314,-0.139163 0.3106314,-0.310631 0,-0.171469 -0.1391629,-0.310632 -0.3106314,-0.310632 z m 1.863788,0 c -0.1714685,0 -0.3106313,0.139163 -0.3106313,0.310632 0,0.171468 0.1391628,0.310631 0.3106313,0.310631 0.1714685,0 0.3106313,-0.139163 0.3106313,-0.310631 0,-0.171469 -0.1391628,-0.310632 -0.3106313,-0.310632 z m 1.863788,0 c -0.1714685,0 -0.3106314,0.139163 -0.3106314,0.310632 0,0.171468 0.1391629,0.310631 0.3106314,0.310631 0.1714685,0 0.3106313,-0.139163 0.3106313,-0.310631 0,-0.171469 -0.1391628,-0.310632 -0.3106313,-0.310632 z m 1.863788,0 c -0.1714686,0 -0.3106314,0.139163 -0.3106314,0.310632 0,0.171468 0.1391628,0.310631 0.3106314,0.310631 0.1714687,0 0.3106317,-0.139163 0.3106317,-0.310631 0,-0.171469 -0.139163,-0.310632 -0.3106317,-0.310632 z m 1.8637887,0 c -0.171469,0 -0.310632,0.139163 -0.310632,0.310632 0,0.171468 0.139163,0.310631 0.310632,0.310631 0.171468,0 0.310631,-0.139163 0.310631,-0.310631 0,-0.171469 -0.139163,-0.310632 -0.310631,-0.310632 z m 1.863787,0 c -0.171468,0 -0.310632,0.139163 -0.310632,0.310632 0,0.171468 0.139164,0.310631 0.310632,0.310631 0.171469,0 0.310631,-0.139163 0.310631,-0.310631 0,-0.171469 -0.139162,-0.310632 -0.310631,-0.310632 z m 1.863788,0 c -0.171468,0 -0.310631,0.139163 -0.310631,0.310632 0,0.171468 0.139163,0.310631 0.310631,0.310631 0.171469,0 0.310631,-0.139163 0.310631,-0.310631 0,-0.171469 -0.139162,-0.310632 -0.310631,-0.310632 z m 1.863788,0 c -0.171468,0 -0.310631,0.139163 -0.310631,0.310632 0,0.171468 0.139163,0.310631 0.310631,0.310631 0.171468,0 0.310632,-0.139163 0.310632,-0.310631 0,-0.171469 -0.139164,-0.310632 -0.310632,-0.310632 z m 1.863788,0 c -0.171469,0 -0.310631,0.139163 -0.310631,0.310632 0,0.171468 0.139162,0.310631 0.310631,0.310631 0.171468,0 0.310632,-0.139163 0.310632,-0.310631 0,-0.171469 -0.139164,-0.310632 -0.310632,-0.310632 z m 1.863788,0 c -0.171468,0 -0.310631,0.139163 -0.310631,0.310632 0,0.171468 0.139163,0.310631 0.310631,0.310631 0.171469,0 0.310631,-0.139163 0.310631,-0.310631 0,-0.171469 -0.139162,-0.310632 -0.310631,-0.310632 z M 2.5420783,14.646346 c -0.1714685,0 -0.3106313,0.139163 -0.3106313,0.310631 0,0.171469 0.1391628,0.310632 0.3106313,0.310632 0.1714685,0 0.3106314,-0.139163 0.3106314,-0.310632 0,-0.171468 -0.1391629,-0.310631 -0.3106314,-0.310631 z m 1.863788,0 c -0.1714684,0 -0.3106313,0.139163 -0.3106313,0.310631 0,0.171469 0.1391629,0.310632 0.3106313,0.310632 0.1714685,0 0.3106314,-0.139163 0.3106314,-0.310632 0,-0.171468 -0.1391629,-0.310631 -0.3106314,-0.310631 z m 1.863788,0 c -0.1714685,0 -0.3106313,0.139163 -0.3106313,0.310631 0,0.171469 0.1391628,0.310632 0.3106313,0.310632 0.1714685,0 0.3106313,-0.139163 0.3106313,-0.310632 0,-0.171468 -0.1391628,-0.310631 -0.3106313,-0.310631 z m 1.863788,0 c -0.1714685,0 -0.3106314,0.139163 -0.3106314,0.310631 0,0.171469 0.1391629,0.310632 0.3106314,0.310632 0.1714685,0 0.3106313,-0.139163 0.3106313,-0.310632 0,-0.171468 -0.1391628,-0.310631 -0.3106313,-0.310631 z m 1.863788,0 c -0.1714686,0 -0.3106314,0.139163 -0.3106314,0.310631 0,0.171469 0.1391628,0.310632 0.3106314,0.310632 0.1714687,0 0.3106317,-0.139163 0.3106317,-0.310632 0,-0.171468 -0.139163,-0.310631 -0.3106317,-0.310631 z m 1.8637887,0 c -0.171469,0 -0.310632,0.139163 -0.310632,0.310631 0,0.171469 0.139163,0.310632 0.310632,0.310632 0.171468,0 0.310631,-0.139163 0.310631,-0.310632 0,-0.171468 -0.139163,-0.310631 -0.310631,-0.310631 z m 1.863787,0 c -0.171468,0 -0.310632,0.139163 -0.310632,0.310631 0,0.171469 0.139164,0.310632 0.310632,0.310632 0.171469,0 0.310631,-0.139163 0.310631,-0.310632 0,-0.171468 -0.139162,-0.310631 -0.310631,-0.310631 z m 1.863788,0 c -0.171468,0 -0.310631,0.139163 -0.310631,0.310631 0,0.171469 0.139163,0.310632 0.310631,0.310632 0.171469,0 0.310631,-0.139163 0.310631,-0.310632 0,-0.171468 -0.139162,-0.310631 -0.310631,-0.310631 z m 1.863788,0 c -0.171468,0 -0.310631,0.139163 -0.310631,0.310631 0,0.171469 0.139163,0.310632 0.310631,0.310632 0.171468,0 0.310632,-0.139163 0.310632,-0.310632 0,-0.171468 -0.139164,-0.310631 -0.310632,-0.310631 z m 1.863788,0 c -0.171469,0 -0.310631,0.139163 -0.310631,0.310631 0,0.171469 0.139162,0.310632 0.310631,0.310632 0.171468,0 0.310632,-0.139163 0.310632,-0.310632 0,-0.171468 -0.139164,-0.310631 -0.310632,-0.310631 z m 1.863788,0 c -0.171468,0 -0.310631,0.139163 -0.310631,0.310631 0,0.171469 0.139163,0.310632 0.310631,0.310632 0.171469,0 0.310631,-0.139163 0.310631,-0.310632 0,-0.171468 -0.139162,-0.310631 -0.310631,-0.310631 z M 2.5420783,16.510134 c -0.1714685,0 -0.3106313,0.139163 -0.3106313,0.310631 0,0.171469 0.1391628,0.310631 0.3106313,0.310631 0.1714685,0 0.3106314,-0.139162 0.3106314,-0.310631 0,-0.171468 -0.1391629,-0.310631 -0.3106314,-0.310631 z m 1.863788,0 c -0.1714684,0 -0.3106313,0.139163 -0.3106313,0.310631 0,0.171469 0.1391629,0.310631 0.3106313,0.310631 0.1714685,0 0.3106314,-0.139162 0.3106314,-0.310631 0,-0.171468 -0.1391629,-0.310631 -0.3106314,-0.310631 z m 1.863788,0 c -0.1714685,0 -0.3106313,0.139163 -0.3106313,0.310631 0,0.171469 0.1391628,0.310631 0.3106313,0.310631 0.1714685,0 0.3106313,-0.139162 0.3106313,-0.310631 0,-0.171468 -0.1391628,-0.310631 -0.3106313,-0.310631 z m 1.863788,0 c -0.1714685,0 -0.3106314,0.139163 -0.3106314,0.310631 0,0.171469 0.1391629,0.310631 0.3106314,0.310631 0.1714685,0 0.3106313,-0.139162 0.3106313,-0.310631 0,-0.171468 -0.1391628,-0.310631 -0.3106313,-0.310631 z m 1.863788,0 c -0.1714686,0 -0.3106314,0.139163 -0.3106314,0.310631 0,0.171469 0.1391628,0.310631 0.3106314,0.310631 0.1714687,0 0.3106317,-0.139162 0.3106317,-0.310631 0,-0.171468 -0.139163,-0.310631 -0.3106317,-0.310631 z m 1.8637887,0 c -0.171469,0 -0.310632,0.139163 -0.310632,0.310631 0,0.171469 0.139163,0.310631 0.310632,0.310631 0.171468,0 0.310631,-0.139162 0.310631,-0.310631 0,-0.171468 -0.139163,-0.310631 -0.310631,-0.310631 z m 1.863787,0 c -0.171468,0 -0.310632,0.139163 -0.310632,0.310631 0,0.171469 0.139164,0.310631 0.310632,0.310631 0.171469,0 0.310631,-0.139162 0.310631,-0.310631 0,-0.171468 -0.139162,-0.310631 -0.310631,-0.310631 z m 1.863788,0 c -0.171468,0 -0.310631,0.139163 -0.310631,0.310631 0,0.171469 0.139163,0.310631 0.310631,0.310631 0.171469,0 0.310631,-0.139162 0.310631,-0.310631 0,-0.171468 -0.139162,-0.310631 -0.310631,-0.310631 z m 1.863788,0 c -0.171468,0 -0.310631,0.139163 -0.310631,0.310631 0,0.171469 0.139163,0.310631 0.310631,0.310631 0.171468,0 0.310632,-0.139162 0.310632,-0.310631 0,-0.171468 -0.139164,-0.310631 -0.310632,-0.310631 z m 1.863788,0 c -0.171469,0 -0.310631,0.139163 -0.310631,0.310631 0,0.171469 0.139162,0.310631 0.310631,0.310631 0.171468,0 0.310632,-0.139162 0.310632,-0.310631 0,-0.171468 -0.139164,-0.310631 -0.310632,-0.310631 z m 1.863788,0 c -0.171468,0 -0.310631,0.139163 -0.310631,0.310631 0,0.171469 0.139163,0.310631 0.310631,0.310631 0.171469,0 0.310631,-0.139162 0.310631,-0.310631 0,-0.171468 -0.139162,-0.310631 -0.310631,-0.310631 z M 2.5420783,18.373922 c -0.1714685,0 -0.3106313,0.139163 -0.3106313,0.310631 0,0.171469 0.1391628,0.310632 0.3106313,0.310632 0.1714685,0 0.3106314,-0.139163 0.3106314,-0.310632 0,-0.171468 -0.1391629,-0.310631 -0.3106314,-0.310631 z m 1.863788,0 c -0.1714684,0 -0.3106313,0.139163 -0.3106313,0.310631 0,0.171469 0.1391629,0.310632 0.3106313,0.310632 0.1714685,0 0.3106314,-0.139163 0.3106314,-0.310632 0,-0.171468 -0.1391629,-0.310631 -0.3106314,-0.310631 z m 1.863788,0 c -0.1714685,0 -0.3106313,0.139163 -0.3106313,0.310631 0,0.171469 0.1391628,0.310632 0.3106313,0.310632 0.1714685,0 0.3106313,-0.139163 0.3106313,-0.310632 0,-0.171468 -0.1391628,-0.310631 -0.3106313,-0.310631 z m 1.863788,0 c -0.1714685,0 -0.3106314,0.139163 -0.3106314,0.310631 0,0.171469 0.1391629,0.310632 0.3106314,0.310632 0.1714685,0 0.3106313,-0.139163 0.3106313,-0.310632 0,-0.171468 -0.1391628,-0.310631 -0.3106313,-0.310631 z m 1.863788,0 c -0.1714686,0 -0.3106314,0.139163 -0.3106314,0.310631 0,0.171469 0.1391628,0.310632 0.3106314,0.310632 0.1714687,0 0.3106317,-0.139163 0.3106317,-0.310632 0,-0.171468 -0.139163,-0.310631 -0.3106317,-0.310631 z m 1.8637887,0 c -0.171469,0 -0.310632,0.139163 -0.310632,0.310631 0,0.171469 0.139163,0.310632 0.310632,0.310632 0.171468,0 0.310631,-0.139163 0.310631,-0.310632 0,-0.171468 -0.139163,-0.310631 -0.310631,-0.310631 z m 1.863787,0 c -0.171468,0 -0.310632,0.139163 -0.310632,0.310631 0,0.171469 0.139164,0.310632 0.310632,0.310632 0.171469,0 0.310631,-0.139163 0.310631,-0.310632 0,-0.171468 -0.139162,-0.310631 -0.310631,-0.310631 z m 1.863788,0 c -0.171468,0 -0.310631,0.139163 -0.310631,0.310631 0,0.171469 0.139163,0.310632 0.310631,0.310632 0.171469,0 0.310631,-0.139163 0.310631,-0.310632 0,-0.171468 -0.139162,-0.310631 -0.310631,-0.310631 z m 1.863788,0 c -0.171468,0 -0.310631,0.139163 -0.310631,0.310631 0,0.171469 0.139163,0.310632 0.310631,0.310632 0.171468,0 0.310632,-0.139163 0.310632,-0.310632 0,-0.171468 -0.139164,-0.310631 -0.310632,-0.310631 z m 1.863788,0 c -0.171469,0 -0.310631,0.139163 -0.310631,0.310631 0,0.171469 0.139162,0.310632 0.310631,0.310632 0.171468,0 0.310632,-0.139163 0.310632,-0.310632 0,-0.171468 -0.139164,-0.310631 -0.310632,-0.310631 z m 1.863788,0 c -0.171468,0 -0.310631,0.139163 -0.310631,0.310631 0,0.171469 0.139163,0.310632 0.310631,0.310632 0.171469,0 0.310631,-0.139163 0.310631,-0.310632 0,-0.171468 -0.139162,-0.310631 -0.310631,-0.310631 z"
       style="opacity:0.07000002;fill:#802600" /></g><g
     id="layer1"
     transform="translate(1.1944941,0.35681363)"><g
       transform="translate(0.036304,-1.2166e-7)"
       id="g2589"><g
         transform="matrix(0.54593,0,0,0.51685,-1.002,-0.57818)"
         style="stroke-width:1.88259995"
         id="g3490"><g
           transform="matrix(0.021652,0,0,0.014857,43.008,42.685)"
           style="stroke-width:104.95999908"
           id="g5022"><rect
             x="-1559.3"
             y="-150.7"
             width="1339.6"
             height="478.35999"
             style="opacity:0.40206;fill:url(#linearGradient2528)"
             id="rect2527" /><path
             d="m -219.62,-150.68 v 478.33 c 142.88,0.9 345.4,-107.17 345.4,-239.2 0,-132.02 -159.44,-239.13 -345.4,-239.13 z"
             style="opacity:0.40206;fill:url(#radialGradient2530)"
             id="path2529"
             inkscape:connector-curvature="0" /><path
             d="m -1559.3,-150.68 v 478.33 c -142.8,0.9 -345.4,-107.17 -345.4,-239.2 0,-132.02 159.5,-239.13 345.4,-239.13 z"
             style="opacity:0.40206;fill:url(#radialGradient2532)"
             id="path2531"
             inkscape:connector-curvature="0" /></g></g><path
         d="m 0.67728,2.5695 c -0.08554,0 -0.15887,0.0927 -0.15887,0.1885 0,5.8692 -0.04308,12.244 -0.04914,18.225 0.02908,0.895 0.53723,1.505 0.88963,1.508 1.0128,0.009 0.5393,-0.004 1.0486,0 6.4703,-0.016 13.578,-0.078 20.05,-0.094 0.053,0.007 -1.478,-0.108 -1.463,-1.446 0,-4.673 -0.502,-11.187 -0.502,-15.86 0,-0.1865 -0.015,-0.2905 -0.032,-0.3767 -0.012,-0.0665 -0.028,-0.0989 -0.063,-0.1257 -0.028,-0.0244 -0.055,-0.057 -0.096,-0.0628 h -8.82 c -0.815,0 -1.002,-1.992 -2.2134,-1.992 L 0.6768,2.5695 h -2e-5 z"
         style="fill:url(#linearGradient2558);stroke:url(#linearGradient2560);stroke-width:1.01110005;stroke-linecap:round;stroke-linejoin:round"
         id="path3496"
         inkscape:connector-curvature="0" /><path
         d="m 3.4994,6.5471 c 10.57,0 13.031,5e-4 19.994,-0.0275 0,1.5704 0.258,16.04 -0.484,16.04 -0.714,0 -14.046,-0.094 -21.009,-0.066 1.4717,0 1.4994,-0.623 1.4994,-15.947 v 1e-4 z"
         style="fill:url(#radialGradient2553);stroke:url(#linearGradient2555);stroke-linecap:round;stroke-linejoin:round"
         id="path3498"
         inkscape:connector-curvature="0" /><path
         d="m 22.939,7.6088 c 0,0 -16.832,0.0937 -18.397,-0.0923 -0.0829,13.83 -0.5009,14.44 -0.5009,14.44"
         style="opacity:0.4;fill:none;stroke:url(#radialGradient2550);stroke-width:0.98119998"
         id="path3211"
         inkscape:connector-curvature="0" /><path
         d="M 4.2517,6 C 3.5668,6 3,6.5124 3,7.1317 v 6.4373 c 0.0026,0.116 0.0661,0.247 0.1669,0.327 0.1008,0.081 0.2297,0.115 0.3755,0.101 h 0.0139 l 20.027,-2.867 c 0.232,-0.033 0.414,-0.215 0.417,-0.427 V 7.1317 C 24.0003,6.5124 23.4333,6 22.7483,6 H 4.2523 4.252 z"
         style="fill:url(#linearGradient2547);fill-rule:evenodd"
         id="path2608"
         inkscape:connector-curvature="0" /></g><rect
       x="2"
       y="4"
       width="7"
       height="1"
       ry="0.5"
       rx="0.53846002"
       style="fill:#e9a961;display:block"
       id="rect2545" /></g></svg>