<?xml version="1.0" encoding="UTF-8" standalone="no"?>
<svg
   xmlns:dc="http://purl.org/dc/elements/1.1/"
   xmlns:cc="http://creativecommons.org/ns#"
   xmlns:rdf="http://www.w3.org/1999/02/22-rdf-syntax-ns#"
   xmlns:svg="http://www.w3.org/2000/svg"
   xmlns="http://www.w3.org/2000/svg"
   xmlns:sodipodi="http://sodipodi.sourceforge.net/DTD/sodipodi-0.dtd"
   xmlns:inkscape="http://www.inkscape.org/namespaces/inkscape"
   id="Слой_1"
   data-name="Слой 1"
   viewBox="0 0 24 24"
   version="1.1"
   sodipodi:docname="directory_close.svg"
   inkscape:version="1.0.1 (3bc2e813f5, 2020-09-07)">
  <sodipodi:namedview
     pagecolor="#ffffff"
     bordercolor="#666666"
     borderopacity="1"
     objecttolerance="10"
     gridtolerance="10"
     guidetolerance="10"
     inkscape:pageopacity="0"
     inkscape:pageshadow="2"
     inkscape:window-width="2261"
     inkscape:window-height="1603"
     id="namedview9483"
     showgrid="true"
     inkscape:zoom="39.543587"
     inkscape:cx="5.0255591"
     inkscape:cy="12.016475"
     inkscape:window-x="1186"
     inkscape:window-y="146"
     inkscape:window-maximized="0"
     inkscape:current-layer="Слой_1"
     inkscape:document-rotation="0"
     inkscape:snap-global="true">
    <inkscape:grid
       type="xygrid"
       id="grid10046" />
  </sodipodi:namedview>
  <metadata
     id="metadata43">
    <rdf:RDF>
      <cc:Work
         rdf:about="">
        <cc:license
           rdf:resource="http://creativecommons.org/licenses/by-sa/4.0/" />
        <dc:format>image/svg+xml</dc:format>
        <dc:type
           rdf:resource="http://purl.org/dc/dcmitype/StillImage" />
        <dc:title>folder</dc:title>
      </cc:Work>
      <cc:License
         rdf:about="http://creativecommons.org/licenses/by-sa/4.0/">
        <cc:permits
           rdf:resource="http://creativecommons.org/ns#Reproduction" />
        <cc:permits
           rdf:resource="http://creativecommons.org/ns#Distribution" />
        <cc:requires
           rdf:resource="http://creativecommons.org/ns#Notice" />
        <cc:requires
           rdf:resource="http://creativecommons.org/ns#Attribution" />
        <cc:permits
           rdf:resource="http://creativecommons.org/ns#DerivativeWorks" />
        <cc:requires
           rdf:resource="http://creativecommons.org/ns#ShareAlike" />
      </cc:License>
    </rdf:RDF>
  </metadata>
  <defs
     id="defs9472">
    <style
       id="style9470">.cls-1{fill:#545454;}.cls-2{fill:#1a81c4;}.cls-3{fill:#b9b9b9;}</style>
  </defs>
  <title
     id="title9474">folder</title>
  <path
     class="cls-1"
     d="M 19.0641,24 H 4.6546 C 2.6362,24 1,22.3638 1,21.3454 V 3 C 1,0.8954 1.8954,0 3,0 h 4.7761 a 6,6 0 0 1 2.447,0.5217 l 3.8169,1.705 a 4,4 0 0 0 1.6313,0.3478 h 5.3315 A 1.9968,1.9968 0 0 1 23,4.5713 V 20.0641 A 3.9359,3.9359 0 0 1 19.0641,24 Z"
     id="path9476" />
  <path
     class="cls-2"
     d="m 3.6,4.3623003 h 16.8093 c 0.883656,0 1.6,-0.052087 1.6,5.6026827 V 10 H 2 V 9.96498 C 2,4.3704291 2.7163447,4.3623003 3.6,4.3623003 Z"
     id="path9478"
     style="stroke-width:1"
     sodipodi:nodetypes="sssccss" />
  <path
     class="cls-3"
     d="m 2,4.3604791 h 20 a 2,2.1787799 0 0 1 2,2.1787799 v 13.103183 a 4,4.3575599 0 0 1 -4,4.35756 H 4 A 4,4.3575599 0 0 1 0,19.642442 V 6.539259 A 2,2.1787799 0 0 1 2,4.3604791 Z"
     id="path9480"
     style="stroke-width:1" />
</svg>
