<?xml version="1.0" encoding="UTF-8" standalone="no"?>
<svg
   xmlns:dc="http://purl.org/dc/elements/1.1/"
   xmlns:cc="http://creativecommons.org/ns#"
   xmlns:rdf="http://www.w3.org/1999/02/22-rdf-syntax-ns#"
   xmlns:svg="http://www.w3.org/2000/svg"
   xmlns="http://www.w3.org/2000/svg"
   xmlns:sodipodi="http://sodipodi.sourceforge.net/DTD/sodipodi-0.dtd"
   xmlns:inkscape="http://www.inkscape.org/namespaces/inkscape"
   id="Слой_1"
   data-name="Слой 1"
   viewBox="0 0 24 24"
   version="1.1"
   sodipodi:docname="directory_open.svg"
   inkscape:version="1.0.1 (3bc2e813f5, 2020-09-07)">
  <sodipodi:namedview
     pagecolor="#ffffff"
     bordercolor="#666666"
     borderopacity="1"
     objecttolerance="10"
     gridtolerance="10"
     guidetolerance="10"
     inkscape:pageopacity="0"
     inkscape:pageshadow="2"
     inkscape:window-width="2261"
     inkscape:window-height="1603"
     id="namedview9483"
     showgrid="true"
     inkscape:zoom="19.771794"
     inkscape:cx="1.6337435"
     inkscape:cy="28.285144"
     inkscape:window-x="505"
     inkscape:window-y="157"
     inkscape:window-maximized="0"
     inkscape:current-layer="Слой_1"
     inkscape:document-rotation="0"
     inkscape:snap-global="true">
    <inkscape:grid
       type="xygrid"
       id="grid10046" />
  </sodipodi:namedview>
  <metadata
     id="metadata43">
    <rdf:RDF>
      <cc:Work
         rdf:about="">
        <cc:license
           rdf:resource="http://creativecommons.org/licenses/by-sa/4.0/" />
        <dc:format>image/svg+xml</dc:format>
        <dc:type
           rdf:resource="http://purl.org/dc/dcmitype/StillImage" />
        <dc:title>folder</dc:title>
      </cc:Work>
      <cc:License
         rdf:about="http://creativecommons.org/licenses/by-sa/4.0/">
        <cc:permits
           rdf:resource="http://creativecommons.org/ns#Reproduction" />
        <cc:permits
           rdf:resource="http://creativecommons.org/ns#Distribution" />
        <cc:requires
           rdf:resource="http://creativecommons.org/ns#Notice" />
        <cc:requires
           rdf:resource="http://creativecommons.org/ns#Attribution" />
        <cc:permits
           rdf:resource="http://creativecommons.org/ns#DerivativeWorks" />
        <cc:requires
           rdf:resource="http://creativecommons.org/ns#ShareAlike" />
      </cc:License>
    </rdf:RDF>
  </metadata>
  <defs
     id="defs9472">
    <style
       id="style9470">.cls-1{fill:#545454;}.cls-2{fill:#1a81c4;}.cls-3{fill:#b9b9b9;}</style>
  </defs>
  <title
     id="title9474">folder</title>
  <path
     class="cls-1"
     d="M 18.090047,24 H 4.9665158 C 1.3289756,24 0.0259535,20.953637 0.0259535,19.935237 V 3 c 0,-2.1046 0.8954,-3 2,-3 h 4.7761 C 7.6453161,1.3e-5 8.479106,0.1777773 9.249047,0.5217 l 3.8169,1.705 c 0.513285,0.2292778 1.069135,0.3477873 1.6313,0.3478 h 5.3315 c 1.102958,-2.209e-4 1.9972,0.8938416 1.9972,1.9968 v 15.4928 c 0,2.173738 -1.762162,3.9359 -3.9359,3.9359 z"
     id="path9476"
     sodipodi:nodetypes="ssssscccccsss" />
  <path
     class="cls-2"
     d="M 3.5221125,4.4995207 H 19.513135 c 0.840639,0 1.522112,-0.049551 1.522112,5.3299453 v 0.03331 H 2 V 9.829466 C 2,4.5072538 2.6814732,4.4995207 3.5221125,4.4995207 Z"
     id="path9478"
     style="stroke-width:0.999999"
     sodipodi:nodetypes="sssccss" />
  <path
     class="cls-3"
     d="M 2.9862554,9 H 22.012218 c 1.104569,0 2,0.745033 2,1.664078 v 10.34045 c 0,1.83809 -1.790861,2.995472 -4,2.995472 H 4.9862554 c -2.2091389,0 -4,-0.939036 -4,-2.985581 V 10.664078 C 0.9862554,9.744507 1.881686,9 2.9862554,9 Z"
     id="path9480"
     style="stroke-width:1"
     sodipodi:nodetypes="sssssssss" />
</svg>
