<svg xmlns="http://www.w3.org/2000/svg" height="48" width="48" version="1.1" xmlns:xlink="http://www.w3.org/1999/xlink">
 <defs>
  <linearGradient id="ae">
   <stop offset="0"/>
   <stop stop-opacity="0" offset="1"/>
  </linearGradient>
  <linearGradient id="ah">
   <stop stop-opacity="0" offset="0"/>
   <stop offset=".5"/>
   <stop stop-opacity="0" offset="1"/>
  </linearGradient>
  <linearGradient id="af" y2="68.225" gradientUnits="userSpaceOnUse" x2="28.245" gradientTransform="matrix(-.4933 -.71665 .71665 -.4933 -9.2678 79.419)" y1="60.446" x1="28.245">
   <stop stop-color="#729fcf" offset="0"/>
   <stop stop-color="#a5bfda" offset=".31579"/>
   <stop stop-color="#376ca4" offset="1"/>
  </linearGradient>
  <linearGradient id="at" y2="68.225" gradientUnits="userSpaceOnUse" x2="28.245" gradientTransform="matrix(-.4933 -.71665 .71665 -.4933 -9.2678 79.419)" y1="60.446" x1="28.245">
   <stop stop-color="#5b90c8" offset="0"/>
   <stop stop-color="#8fb0d1" offset=".31579"/>
   <stop stop-color="#34679d" offset="1"/>
  </linearGradient>
  <linearGradient id="as" y2="62.827" gradientUnits="userSpaceOnUse" x2="38.061" gradientTransform="matrix(-.4933 -.71665 .71665 -.4933 -9.2678 79.419)" y1="62.402" x1="55.876">
   <stop stop-color="#fff" offset="0"/>
   <stop stop-color="#fff" stop-opacity="0" offset="1"/>
  </linearGradient>
  <linearGradient id="ar" y2="44.111" gradientUnits="userSpaceOnUse" x2="20.683" y1="27.14" x1="20.064">
   <stop stop-color="#fff" offset="0"/>
   <stop stop-color="#fff" stop-opacity="0" offset="1"/>
  </linearGradient>
  <radialGradient id="ag" xlink:href="#ah" gradientUnits="userSpaceOnUse" cy="37.75" cx="23.25" gradientTransform="matrix(1 0 0 .42017 0 21.889)" r="14.875"/>
  <linearGradient id="aq" y2="30.703" gradientUnits="userSpaceOnUse" x2="25.515" gradientTransform="matrix(.0052596 .99999 .99999 -.0052596 48.693 -14.145)" y1="31.047" x1="25.719">
   <stop offset="0"/>
   <stop stop-color="#c9c9c9" offset="1"/>
  </linearGradient>
  <radialGradient id="ay" gradientUnits="userSpaceOnUse" cy="27.641" cx="29.053" gradientTransform="matrix(.015377 2.9235 2.0297 -.010675 20.391 -69.727)" r="3.2409">
   <stop stop-color="#e7e2b8" offset="0"/>
   <stop stop-color="#e7e2b8" stop-opacity="0" offset="1"/>
  </radialGradient>
  <linearGradient id="ap" y2="22.625" gradientUnits="userSpaceOnUse" x2="47.688" gradientTransform="matrix(.0052596 .99999 .99999 -.0052596 42.996 -2.4962)" y1="19.812" x1="46">
   <stop stop-color="#c1c1c1" offset="0"/>
   <stop stop-color="#acacac" offset="1"/>
  </linearGradient>
  <linearGradient id="ao" y2="22.251" gradientUnits="userSpaceOnUse" x2="50.988" gradientTransform="matrix(.0052596 .99999 .99999 -.0052596 42.996 -2.4962)" y1="17.376" x1="48.906">
   <stop stop-color="#ffd1d1" offset="0"/>
   <stop stop-color="#ff1d1d" offset=".5"/>
   <stop stop-color="#6f0000" offset="1"/>
  </linearGradient>
  <linearGradient id="an" y2="14.188" gradientUnits="userSpaceOnUse" x2="37.625" y1="14.188" x1="11.75">
   <stop stop-color="#fff" offset="0"/>
   <stop stop-color="#fff" stop-opacity=".69" offset=".32895"/>
   <stop stop-color="#c2c2c2" stop-opacity=".34" offset=".65789"/>
   <stop stop-color="#fff" stop-opacity="0" offset="1"/>
  </linearGradient>
  <linearGradient id="am" y2="19.085" gradientUnits="userSpaceOnUse" x2="15.625" gradientTransform="translate(0,5.625)" y1="19.46" x1="30.875">
   <stop stop-color="#959791" offset="0"/>
   <stop stop-color="#f8f8f8" offset=".5"/>
   <stop stop-color="#8c8c8c" offset="1"/>
  </linearGradient>
  <linearGradient id="al" y2="26.085" gradientUnits="userSpaceOnUse" x2="34.25" gradientTransform="translate(0,5.625)" y1="26.085" x1="15.375">
   <stop stop-color="#f5f5f5" stop-opacity=".09" offset="0"/>
   <stop stop-color="#fff" stop-opacity="0.9" offset=".26316"/>
   <stop stop-color="#c7c7c7" stop-opacity="0.46" offset=".74792"/>
   <stop stop-color="#fff" stop-opacity=".78039" offset="1"/>
  </linearGradient>
  <linearGradient id="bg" y2="609.51" xlink:href="#ah" gradientUnits="userSpaceOnUse" x2="302.86" gradientTransform="matrix(2.7744,0,0,1.9697,-1892.2,-872.89)" y1="366.65" x1="302.86"/>
  <radialGradient id="av" xlink:href="#ae" gradientUnits="userSpaceOnUse" cy="486.65" cx="605.71" gradientTransform="matrix(2.7744,0,0,1.9697,-1891.6,-872.89)" r="117.14"/>
  <radialGradient id="aw" xlink:href="#ae" gradientUnits="userSpaceOnUse" cy="486.65" cx="605.71" gradientTransform="matrix(-2.7744,0,0,1.9697,112.76,-872.89)" r="117.14"/>
  <radialGradient id="ax" gradientUnits="userSpaceOnUse" cy="37.518" cx="20.706" gradientTransform="matrix(1.055 -.027345 .1777 1.1909 -3.5722 -7.1253)" r="30.905">
   <stop stop-color="#202020" offset="0"/>
   <stop stop-color="#b9b9b9" offset="1"/>
  </radialGradient>
  <linearGradient id="bh" y2="6.1803" gradientUnits="userSpaceOnUse" x2="15.515" y1="31.368" x1="18.113">
   <stop stop-color="#424242" offset="0"/>
   <stop stop-color="#777" offset="1"/>
  </linearGradient>
  <linearGradient id="ai" y2="66.834" gradientUnits="userSpaceOnUse" x2="9.8981" gradientTransform="matrix(1.5168 0 0 .70898 -.87957 -1.3182)" y1="13.773" x1="6.2298">
   <stop stop-color="#fff" stop-opacity=".87629" offset="0"/>
   <stop stop-color="#fffffe" stop-opacity="0" offset="1"/>
  </linearGradient>
  <linearGradient id="aj" y2="32.05" gradientUnits="userSpaceOnUse" x2="22.065" y1="36.988" x1="22.176">
   <stop stop-color="#6194cb" offset="0"/>
   <stop stop-color="#729fcf" offset="1"/>
  </linearGradient>
  <linearGradient id="ak" y2="46.689" gradientUnits="userSpaceOnUse" x2="12.854" gradientTransform="matrix(1.3175 0 0 .81626 -.87957 -1.3182)" y1="32.567" x1="13.036">
   <stop stop-color="#fff" offset="0"/>
   <stop stop-color="#fff" stop-opacity="0" offset="1"/>
  </linearGradient>
  <radialGradient id="au" gradientUnits="userSpaceOnUse" cy="210.29" cx="24.735" gradientTransform="scale(2.1101 .47392)" r="20.929">
   <stop stop-opacity=".32292" offset="0"/>
   <stop stop-opacity="0" offset="1"/>
  </radialGradient>
  <linearGradient id="az" y2="101.19" gradientUnits="userSpaceOnUse" x2="113.84" gradientTransform="matrix(.41765 0 0 .41692 251.43 3.8403)" y1="76.005" x1="113.84">
   <stop stop-color="#ffa740" offset="0"/>
   <stop stop-color="#bf731a" offset="1"/>
  </linearGradient>
  <linearGradient id="ba" y2="27.31" gradientUnits="userSpaceOnUse" x2="49.017" gradientTransform="matrix(.4832 0 0 .47061 255.11 3.0218)" y1="95.898" x1="22.532">
   <stop stop-opacity=".73958" offset="0"/>
   <stop stop-opacity="0" offset="1"/>
  </linearGradient>
  <linearGradient id="bb" y2="105.1" gradientUnits="userSpaceOnUse" x2="42.138" gradientTransform="matrix(.52779 0 0 .42776 253.49 3.4189)" y1="68.161" x1="42.138">
   <stop stop-color="#ffa740" offset="0"/>
   <stop stop-color="#ca6b18" offset="1"/>
  </linearGradient>
  <linearGradient id="bc" y2="73.22" gradientUnits="userSpaceOnUse" x2="7.0335" gradientTransform="matrix(.52673 0 0 .42862 253.49 4.3563)" y1="74.339" x1="29.54">
   <stop stop-color="#ae5b00" offset="0"/>
   <stop stop-color="#ae5b00" stop-opacity="0" offset="1"/>
  </linearGradient>
  <linearGradient id="bd" y2="95.257" gradientUnits="userSpaceOnUse" x2="30.81" gradientTransform="matrix(.62433 0 0 .34514 253.09 5.6081)" y1="28.559" x1="30.223">
   <stop stop-color="#fff" stop-opacity=".61458" offset="0"/>
   <stop stop-color="#fff" stop-opacity="0" offset="1"/>
  </linearGradient>
  <linearGradient id="be" y2="52.198" gradientUnits="userSpaceOnUse" x2="37.014" gradientTransform="matrix(.86756 0 0 .28918 253.34 1.2362)" y1="28.907" x1="34.212">
   <stop stop-color="#fff" offset="0"/>
   <stop stop-color="#fff" stop-opacity="0" offset="1"/>
  </linearGradient>
  <linearGradient id="bf" y2="108.22" gradientUnits="userSpaceOnUse" x2="56.61" gradientTransform="matrix(.41323 0 0 .40486 251.1 4.974)" y1="38.662" x1="17.033">
   <stop stop-color="#fff" offset="0"/>
   <stop stop-color="#fff" stop-opacity=".21961" offset="1"/>
  </linearGradient>
 </defs>
 <g transform="matrix(1.0651,0,0,1.1275,-111.39,16.287)">
  <g transform="matrix(.022624 0 0 .020868 43.383 36.37)">
   <rect opacity=".40206" style="color:#000000" height="478.36" width="1339.6" y="-150.7" x="-1559.3" fill="url(#bg)"/>
   <path opacity=".40206" style="color:#000000" fill="url(#av)" d="m-219.62-150.68v478.33c142.87 0.90045 345.4-107.17 345.4-239.2s-159.44-239.13-345.4-239.13z"/>
   <path opacity=".40206" style="color:#000000" fill="url(#aw)" d="m-1559.3-150.68v478.33c-142.87 0.90045-345.4-107.17-345.4-239.2s159.44-239.13 345.4-239.13z"/>
  </g>
  <path stroke-linejoin="round" d="m4.5218 38.687c0.021796 0.4163 0.4599 0.83261 0.87621 0.83261h31.327c0.4163 0 0.81081-0.4163 0.78902-0.83261l-0.936-27.226c-0.0218-0.4163-0.4599-0.83262-0.8762-0.83262h-13.271c-0.48506 0-1.2345-0.31559-1.4016-1.1066l-0.612-2.893c-0.155-0.7357-0.882-1.0379-1.298-1.0379h-14.779c-0.41631 0-0.81082 0.4163-0.78902 0.83261l0.9708 32.264z" stroke="url(#bh)" stroke-linecap="round" fill="url(#ax)"/>
  <path opacity=".11364" stroke-linejoin="round" style="color:#000000" d="m5.2266 22.562h30.266" stroke="#000" stroke-linecap="round" fill="#729fcf"/>
  <path opacity=".11364" stroke-linejoin="round" style="color:#000000" d="m5.0422 18.562h30.447" stroke="#000" stroke-linecap="round" fill="#729fcf"/>
  <path opacity=".11364" stroke-linejoin="round" style="color:#000000" d="m4.9807 12.562h30.507" stroke="#000" stroke-linecap="round" fill="#729fcf"/>
  <path opacity=".11364" stroke-linejoin="round" style="color:#000000" d="m5.3862 32.562h30.109" stroke="#000" stroke-linecap="round" fill="#729fcf"/>
  <path opacity=".11364" stroke-linejoin="round" style="color:#000000" d="m5.5091 34.562h29.988" stroke="#000" stroke-linecap="round" fill="#729fcf"/>
  <path opacity=".11364" stroke-linejoin="round" style="color:#000000" d="m5.0422 16.562h30.447" stroke="#000" stroke-linecap="round" fill="#729fcf"/>
  <path opacity=".11364" stroke-linejoin="round" style="color:#000000" d="m5.0114 14.562h30.477" stroke="#000" stroke-linecap="round" fill="#729fcf"/>
  <path opacity=".11364" stroke-linejoin="round" style="color:#000000" d="m4.9221 10.562h15.281" stroke="#000" stroke-linecap="round" fill="#729fcf"/>
  <path opacity=".11364" stroke-linejoin="round" style="color:#000000" d="m4.8738 8.5625h14.784" stroke="#000" stroke-linecap="round" fill="#729fcf"/>
  <path opacity=".11364" stroke-linejoin="round" style="color:#000000" d="m5.3247 28.562h30.169" stroke="#000" stroke-linecap="round" fill="#729fcf"/>
  <path opacity=".11364" stroke-linejoin="round" style="color:#000000" d="m5.2881 26.562h30.205" stroke="#000" stroke-linecap="round" fill="#729fcf"/>
  <path opacity=".11364" stroke-linejoin="round" style="color:#000000" d="m5.2266 24.562h30.266" stroke="#000" stroke-linecap="round" fill="#729fcf"/>
  <path opacity=".11364" stroke-linejoin="round" style="color:#000000" d="m5.1959 20.562h30.296" stroke="#000" stroke-linecap="round" fill="#729fcf"/>
  <path opacity=".11364" stroke-linejoin="round" style="color:#000000" d="m5.3247 30.562h30.169" stroke="#000" stroke-linecap="round" fill="#729fcf"/>
  <path opacity=".11364" stroke-linejoin="round" style="color:#000000" d="m5.5091 36.562h29.988" stroke="#000" stroke-linecap="round" fill="#729fcf"/>
  <path opacity=".45143" style="color:#000000" d="m6.0683 38.864c0.016343 0.31223-0.18091 0.52038-0.49858 0.4163-0.3176-0.104-0.5367-0.312-0.553-0.624l-0.9477-32.065c-0.0164-0.3109 0.1651-0.4995 0.4774-0.4995l14.422-0.0477c0.31223 0 0.93194 0.30047 1.1329 1.3222l0.57349 2.8155c-0.426-0.4656-0.418-0.48-0.637-1.1571l-0.406-1.2592c-0.219-0.7276-0.698-0.8319-1.01-0.8319h-12.888c-0.31223 0-0.50948 0.20815-0.49313 0.52039l0.938 31.515-0.1096-0.104z" display="block" fill="url(#ai)"/>
  <g fill-opacity=".75706" fill="#fff" transform="matrix(1.0408 0 .054493 1.0408 -8.6702 2.6706)">
   <path fill-opacity=".50847" fill="#fff" d="m42.417 8.5152c0.005-0.0971-0.128-0.247-0.235-0.247l-13.031-0.0021s0.91171 0.58795 2.2018 0.59624l11.053 0.07102c0.011-0.2117 0.002-0.256 0.011-0.4181z"/>
  </g>
  <path stroke-linejoin="round" style="color:#000000" d="m39.784 39.511c1.1439-0.04406 1.9631-1.0963 2.047-2.321 0.79179-11.549 1.6594-21.232 1.6594-21.232 0.07215-0.24748-0.16791-0.49497-0.48014-0.49497h-34.371l-1.8503 21.867c-0.11456 0.98207-0.46601 1.8047-1.5498 2.1837l34.545-0.0027z" stroke="#3465a4" display="block" fill="url(#aj)"/>
  <path opacity=".46591" d="m9.6202 16.464 32.791 0.06481-1.574 20.002c-0.08432 1.0715-0.45068 1.4282-1.8727 1.4282-1.8715 0-28.678-0.03241-31.395-0.03241 0.2336-0.32081 0.33376-0.98862 0.3351-1.0046l1.718-20.458z" stroke="url(#ak)" stroke-linecap="round" stroke-width="1px" fill="none"/>
  <path d="m9.6202 16.223-1.1666 15.643s8.2962-4.1481 18.666-4.1481 15.555-11.495 15.555-11.495h-33.055z" fill-opacity=".089286" fill-rule="evenodd" fill="#fff"/>
 </g>
 <g transform="matrix(.57879 0 0 .57879 -46.445 61.768)">
  <path opacity=".31868" d="m37.625 37.75a14.375 5.75 0 1 1 -28.75 0 14.375 5.75 0 1 1 28.75 0z" fill-rule="evenodd" transform="translate(1,4)" fill="url(#ag)"/>
  <path opacity=".69780" d="m33.5 36.812a8.5625 2.9375 0 1 1 -17.125 0 8.5625 2.9375 0 1 1 17.125 0z" fill-rule="evenodd" transform="translate(-.125 4.75)" fill="#fff"/>
  <path opacity=".78571" d="m37.625 37.75a14.375 5.75 0 1 1 -28.75 0 14.375 5.75 0 1 1 28.75 0z" fill-rule="evenodd" transform="matrix(.57391 0 0 .57391 10.907 19.585)" fill="url(#ag)"/>
  <path d="m37.125 14.188a12.438 5.6875 0 1 1 -24.875 0 12.438 5.6875 0 1 1 24.875 0z" fill-rule="evenodd" transform="matrix(1.005 0 0 1 -.18656 5.625)" stroke="#8c8c8c" stroke-width=".9975" fill="url(#an)"/>
  <g fill-rule="evenodd" transform="translate(-40.25,-7.5)">
   <path fill="#cb9022" d="m81.189 8.8512-5.595 5.6548-15.269 31.644c-1.2329 3.2565 3.4022 5.1697 5.0121 2.2862l14.894-31.58 0.958-8.0048z" stroke="#5c410c"/>
   <path fill="url(#ao)" d="m63.227 41.398s0.10131 1.437 1.3543 1.9929c1.2908 0.57271 2.6562-0.01397 2.6562-0.01397l-2.4423 5.0442s-0.87372 1.4566-2.8403 0.6712c-1.9397-0.77472-1.1704-2.6814-1.1704-2.6814l2.4424-5.0129z"/>
   <path fill="url(#ap)" d="m63.227 41.398s0.10131 1.437 1.3543 1.9929c1.2908 0.57271 2.6562-0.01397 2.6562-0.01397l-0.98947 2.0052s-1.3145 0.83396-2.6863 0.23288c-1.4095-0.6176-1.3242-2.2118-1.3242-2.2118l0.989-2.005z"/>
   <path fill="url(#ay)" d="m80.478 10.282-4.4763 4.5236c0.82038 1.4957 2.1682 2.2699 3.7286 1.8554l0.74771-6.379z"/>
   <path fill="url(#aq)" d="m79.079 11.633 1.5852-1.6334-0.30017 2.3454c-0.71759 0.22253-1.0635-0.18191-1.285-0.712z"/>
   <path fill-opacity=".36364" fill="#fff" d="m75.971 14.806 1.258 1.556-12.789 26.954c-0.858-0.44-1.091-1.236-1.172-1.897l12.703-26.613z"/>
   <path fill-opacity=".36364" d="m79.793 16.661-0.749 0.19144-12.549 26.768s0.61304-0.11339 0.7482-0.21982l12.55-26.739z"/>
  </g>
  <path opacity=".53846" d="m35.591 22.336-2.1138 18.333c-0.84306 4.7799-16.746 4.8321-17.704 0l-2.202-18.271c2.1078 5.2304 21.013 4.4554 22.02-0.06181z" stroke="#fff" fill="none"/>
  <path d="m23.877 29.503c0.88241-0.6074 3.3808 1.5847 5.632 4.8551s2.7188 6.8604 2.5244 6.9942c-0.21668 0.14915-3.3808-1.5847-5.632-4.8551s-3.4068-6.3868-2.5244-6.9942z" fill-rule="evenodd" stroke="#7d7d7d" fill="#e7e7e7"/>
  <g stroke-width="1.2535" transform="matrix(.79601 .082581 -.082581 .79601 1.5307 -.72997)" stroke="#3465a4">
   <path fill="none" d="m32.086 57.686a13.062 5.5 0 0 1 20.861 3.1355" transform="matrix(-.56251 -.81719 .82507 -.56793 -15.221 83.887)"/>
   <path d="m36.365 54.473a3 1.5625 0 0 1 -5.6707 1.0168l2.806-0.552z" fill-rule="evenodd" transform="matrix(-.56251 -.81719 .82507 -.56793 -14.286 81.453)" fill="#729fcf"/>
  </g>
  <path d="m18.309 27.046c2.9418 4.1547 5.8328 7.753 8.2186 10.339l3.8675-2.6622c-1.762-3.551-4.505-8.145-7.831-12.978-6.007-8.722-11.961-15.367-14.315-16.155-0.0725-0.0235-0.1694-0.0536-0.2346-0.0651-0.0458-0.007-0.1138-0.0046-0.1559-0.0056-0.0662 0.0003-0.151 0.014-0.2074 0.0299-0.0138 0.0044-0.056 0.0045-0.0692 0.0099-0.0128 0.006-0.0393 0.0286-0.0515 0.0355-0.006 0.0037-0.02 0.0138-0.0258 0.0178-0.0058 0.0039-0.0202 0.0135-0.0258 0.0177-0.0108 0.0089-0.0414 0.0256-0.0516 0.0355-0.0098 0.0103-0.0248 0.0498-0.0339 0.061-0.035 0.0471-0.0781 0.1214-0.102 0.1832-0.0141 0.0397-0.0405 0.1023-0.0504 0.1476-0.0126 0.0649-0.019 0.1662-0.0234 0.2419-0.1045 2.4812 3.9768 10.415 9.9808 19.137 0.37358 0.54272 0.73522 1.0832 1.1074 1.6088z" fill-rule="evenodd" stroke="#3465a4" fill="url(#af)"/>
  <path d="m13.744 20.855c0.74705 1.0476 1.521 2.0541 2.2559 3.0013l5.4145-3.727c-0.885-1.458-1.868-2.99-2.93-4.532-5.065-7.3589-10.292-12.825-12.542-13.309-0.0186-0.003-0.0662-0.0116-0.0855-0.0147-0.0191-0.0027-0.0682-0.0136-0.0867-0.0156-0.0459-0.0038-0.1131-0.0068-0.1559-0.0056-0.0169 0.0009-0.0528 0.0083-0.0692 0.01-0.0483 0.0064-0.1203 0.0238-0.164 0.0376-0.0144 0.0051-0.0554 0.0041-0.0692 0.01-0.0203 0.0094-0.0582 0.0419-0.0773 0.0533-0.0063 0.004-0.0197 0.0135-0.0258 0.0177s-0.0198 0.0133-0.0258 0.0177c-0.0174 0.0139-0.0613 0.0377-0.0773 0.0533-0.0105 0.0108-0.0242 0.0494-0.034 0.061-0.0286 0.036-0.0705 0.0969-0.0938 0.1398-0.0074 0.0147-0.0271 0.0456-0.034 0.0611-0.0164 0.0395-0.0376 0.1034-0.0504 0.1476-0.0048 0.018-0.0121 0.0678-0.0164 0.0866-0.004 0.0191-0.013 0.0667-0.0164 0.0865-0.3512 2.2746 2.8877 9.1084 7.9535 16.468 0.3152 0.45792 0.61609 0.91097 0.93166 1.3535z" fill-rule="evenodd" stroke="#3465a4" fill="url(#at)"/>
  <path d="m6.2003 8.0188 3.8157-2.6267c-2.0246-2.2647-3.8523-3.6636-4.8387-3.6072-0.0063 0.0005-0.0303 0.0015-0.0365 0.0022s-0.0304 0.0013-0.0365 0.0021c-0.006 0.001-0.0306 0.0011-0.0365 0.0022-0.0352 0.0073-0.0921 0.0281-0.1246 0.0398-0.0054 0.0021-0.0205 0.0155-0.0258 0.0177-0.0052 0.0024-0.0314-0.0003-0.0365 0.0022-0.0051 0.0026-0.0208 0.015-0.0258 0.0178-0.0049 0.0028-0.021 0.0147-0.0258 0.0177-0.0047 0.0031-0.0211 0.0145-0.0258 0.0177-0.0046 0.0033-0.0212 0.0145-0.0258 0.0178-0.0045 0.0034-0.0213 0.0142-0.0257 0.0177-0.0044 0.0037-0.0216 0.014-0.0258 0.0178-0.0042 0.0039-0.011 0.0293-0.0151 0.0333-0.0039 0.0042-0.0219 0.0135-0.0258 0.0178-0.0226 0.0262-0.0623 0.0719-0.0816 0.1021-0.0032 0.0052-0.012 0.0281-0.0151 0.0334-0.003 0.0054-0.0122 0.0278-0.015 0.0333-0.0028 0.0056-0.0124 0.0276-0.0151 0.0333-0.4048 0.9013 0.2493 3.108 1.6419 5.808z" fill-rule="evenodd" stroke="#3465a4" fill="url(#af)"/>
  <path opacity=".35714" stroke-linejoin="round" d="m15.418 21.244c0.18883 0.26732 0.37813 0.51637 0.56571 0.77815l3.7496-2.584c-0.514-0.778-1.238-2.048-1.777-2.857-6.212-9.3166-12.3-13.972-12.554-13.798-0.2792 0.1912 2.1645 7.477 8.497 16.278 0.37182 0.51674 1.1596 1.6764 1.5174 2.1829z" stroke="url(#as)" stroke-linecap="round" fill="none"/>
  <path d="m37.125 20-2.875 21.375c-0.91667 5.1972-18.208 5.254-19.25 0l-2.963-21.367c1.84 6.869 23.992 7.21 25.088-0.008z" fill-rule="evenodd" stroke="url(#am)" fill="url(#al)"/>
  <path opacity=".72527" d="m40.482 2.5242-4.773 4.8614-8.309 17.279 8.707-16.793 4.375-5.349z" fill-rule="evenodd" fill="#fff"/>
  <path opacity=".41758" d="m40.349 2.5242-0.884 6.7175-6.761 14.407 6.54-14.452-0.53 0.0889 1.635-6.7617z" fill-rule="evenodd" fill="#fff"/>
  <path fill-rule="evenodd" fill="url(#ar)" d="m18.473 25.284 0.97227 18.915 3.2704 0.53033 0.17678-18.915-4.4194-0.53033z"/>
 </g>
 <g transform="matrix(.81848 0 0 .82217 -204.01 -3.192)">
  <path opacity=".60793" d="m96.354 99.661a44.162 9.9191 0 1 1 -88.325 0 44.162 9.9191 0 1 1 88.325 0z" transform="matrix(.46154 .079703 -.079703 .46154 261.63 -.46787)" fill="url(#au)"/>
  <path stroke-linejoin="round" d="m290.13 12.239-12.682 1.1266-1.5295 3.706-13.617 1.1118-0.22275 2.8017-6.1776 0.32613c0 19.866 2.2751 23.778 4.0392 25.097l34.897 5.8258v-0.0148l0.1188 0.0148c2.6655 0 5.94-23.745 5.94-37.193l-8.8951 0.72638-1.8711-3.5281z" fill-rule="evenodd" stroke="#833800" stroke-linecap="round" stroke-width="1.0048" fill="url(#az)"/>
  <path d="m265.53 19.574-0.63494 23.909 28.467 7.262c1.6898-10.594 4.2752-18.194 4.5504-33.517l-32.382 2.3462z" fill-rule="evenodd" stroke="#dcdcdc" stroke-width="0.983" fill="#fff"/>
  <path fill-rule="evenodd" fill="url(#ba)" d="m265.07 19.116-0.67139 24.255 29.29 7.2645c1.7786-8.3279 4.6912-21.648 4.7103-33.9l-33.329 2.3802z"/>
  <path fill-opacity="0.16" fill-rule="evenodd" d="m294.15 22.736c-0.74281 9.2525-1.1484 21.289 0.25143 28.428l-5.3535-1.2675-3.6465-26.922 8.7486-0.23847z"/>
  <path stroke-linejoin="round" d="m256.9 22.049 33.375-1.8089c0.8103 10.856 0.70273 23.711 4.6179 30.993l-34.106-5.4912c-3.3619-5.5279-3.4959-14.576-3.8865-23.692z" fill-rule="evenodd" stroke="url(#bc)" stroke-linecap="round" stroke-width="1.0075" fill="url(#bb)"/>
  <path opacity=".52720" d="m256.4 22.648c11.052-0.46338 21.711-0.96406 32.763-1.4274 0.57142 8.0657 1.0383 13.744 2.2371 20.516-13.786-9.0536-22.28-12.853-32.582-2.9792-0.93658-5.3822-1.481-10.727-2.4176-16.109z" fill-rule="evenodd" fill="url(#bd)"/>
  <path fill-rule="evenodd" fill="url(#be)" d="m276.4 17.736 1.5672-4 11.53-1 1.903 3.5-15 1.5z"/>
  <path d="m260.82 45.594c-1.7589-0.30627-3.6679-4.774-3.9254-22.881l32.162-1.4793c0.24374 11.051 1.2454 24.245 3.843 29.005l-32.079-4.6443z" stroke-opacity=".897" stroke="url(#bf)" stroke-width=".99536" fill="none"/>
 </g>
</svg>
