<?xml version="1.0" encoding="UTF-8" standalone="no"?>
<svg
   xmlns:dc="http://purl.org/dc/elements/1.1/"
   xmlns:cc="http://creativecommons.org/ns#"
   xmlns:rdf="http://www.w3.org/1999/02/22-rdf-syntax-ns#"
   xmlns:svg="http://www.w3.org/2000/svg"
   xmlns="http://www.w3.org/2000/svg"
   xmlns:sodipodi="http://sodipodi.sourceforge.net/DTD/sodipodi-0.dtd"
   xmlns:inkscape="http://www.inkscape.org/namespaces/inkscape"
   id="Слой_1"
   data-name="Слой 1"
   viewBox="0 0 26 26"
   version="1.1"
   sodipodi:docname="directory_close.svg"
   inkscape:version="1.0.1 (3bc2e813f5, 2020-09-07)">
  <sodipodi:namedview
     pagecolor="#ffffff"
     bordercolor="#666666"
     borderopacity="1"
     objecttolerance="10"
     gridtolerance="10"
     guidetolerance="10"
     inkscape:pageopacity="0"
     inkscape:pageshadow="2"
     inkscape:window-width="2261"
     inkscape:window-height="1603"
     id="namedview9483"
     showgrid="true"
     inkscape:zoom="39.543587"
     inkscape:cx="11.866112"
     inkscape:cy="12.016475"
     inkscape:window-x="1186"
     inkscape:window-y="146"
     inkscape:window-maximized="0"
     inkscape:current-layer="Слой_1"
     inkscape:document-rotation="0"
     inkscape:snap-global="true">
    <inkscape:grid
       type="xygrid"
       id="grid10046" />
  </sodipodi:namedview>
  <metadata
     id="metadata43">
    <rdf:RDF>
      <cc:Work
         rdf:about="">
        <cc:license
           rdf:resource="http://creativecommons.org/licenses/by-sa/4.0/" />
        <dc:format>image/svg+xml</dc:format>
        <dc:type
           rdf:resource="http://purl.org/dc/dcmitype/StillImage" />
        <dc:title>folder</dc:title>
      </cc:Work>
      <cc:License
         rdf:about="http://creativecommons.org/licenses/by-sa/4.0/">
        <cc:permits
           rdf:resource="http://creativecommons.org/ns#Reproduction" />
        <cc:permits
           rdf:resource="http://creativecommons.org/ns#Distribution" />
        <cc:requires
           rdf:resource="http://creativecommons.org/ns#Notice" />
        <cc:requires
           rdf:resource="http://creativecommons.org/ns#Attribution" />
        <cc:permits
           rdf:resource="http://creativecommons.org/ns#DerivativeWorks" />
        <cc:requires
           rdf:resource="http://creativecommons.org/ns#ShareAlike" />
      </cc:License>
    </rdf:RDF>
  </metadata>
  <defs
     id="defs9472">
    <style
       id="style9470">.cls-1{fill:#545454;}.cls-2{fill:#1a81c4;}.cls-3{fill:#b9b9b9;}</style>
  </defs>
  <title
     id="title9474">folder</title>
  <path
     class="cls-1"
     d="M20.0641,25H5.6546C3.6362,25,2,23.3638,2,22.3454V4c0-2.1046.8954-3,2-3H8.7761a6,6,0,0,1,2.447.5217L15.04,3.2267a4,4,0,0,0,1.6313.3478h5.3315A1.9968,1.9968,0,0,1,24,5.5713V21.0641A3.9359,3.9359,0,0,1,20.0641,25Z"
     id="path9476" />
  <path
     class="cls-2"
     d="m 4.6,5.3623003 h 16.8093 c 0.883656,0 1.6,-0.052087 1.6,5.6026827 V 11 H 3 V 10.96498 C 3,5.3704291 3.7163447,5.3623003 4.6,5.3623003 Z"
     id="path9478"
     style="stroke-width:1"
     sodipodi:nodetypes="sssccss" />
  <path
     class="cls-3"
     d="m 3,5.3604791 h 20 a 2,2.1787799 0 0 1 2,2.1787799 v 13.103183 a 4,4.3575599 0 0 1 -4,4.35756 H 5 A 4,4.3575599 0 0 1 1,20.642442 V 7.539259 A 2,2.1787799 0 0 1 3,5.3604791 Z"
     id="path9480"
     style="stroke-width:1" />
</svg>
