<?xml version="1.0" encoding="UTF-8" standalone="no"?>
<svg
   xmlns:dc="http://purl.org/dc/elements/1.1/"
   xmlns:cc="http://creativecommons.org/ns#"
   xmlns:rdf="http://www.w3.org/1999/02/22-rdf-syntax-ns#"
   xmlns:svg="http://www.w3.org/2000/svg"
   xmlns="http://www.w3.org/2000/svg"
   xmlns:sodipodi="http://sodipodi.sourceforge.net/DTD/sodipodi-0.dtd"
   xmlns:inkscape="http://www.inkscape.org/namespaces/inkscape"
   version="1.1"
   id="Слой_1"
   inkscape:version="1.0.1 (c497b03c, 2020-09-10)"
   sodipodi:docname="directory_open.svg"
   x="0px"
   y="0px"
   viewBox="0 0 24 24"
   style="enable-background:new 0 0 24 24;"
   xml:space="preserve"><metadata
   id="metadata843"><rdf:RDF><cc:Work
       rdf:about=""><dc:format>image/svg+xml</dc:format><dc:type
         rdf:resource="http://purl.org/dc/dcmitype/StillImage" /><dc:title>folder</dc:title><cc:license
         rdf:resource="http://creativecommons.org/licenses/by-sa/4.0/" /></cc:Work><cc:License
       rdf:about="http://creativecommons.org/licenses/by-sa/4.0/"><cc:permits
         rdf:resource="http://creativecommons.org/ns#Reproduction" /><cc:permits
         rdf:resource="http://creativecommons.org/ns#Distribution" /><cc:requires
         rdf:resource="http://creativecommons.org/ns#Notice" /><cc:requires
         rdf:resource="http://creativecommons.org/ns#Attribution" /><cc:permits
         rdf:resource="http://creativecommons.org/ns#DerivativeWorks" /><cc:requires
         rdf:resource="http://creativecommons.org/ns#ShareAlike" /></cc:License></rdf:RDF></metadata><defs
   id="defs841" />
<style
   type="text/css"
   id="style833">
	.st0{fill:#545454;}
	.st1{fill:#727272;stroke:#F3F3F3;}
</style>
<sodipodi:namedview
   bordercolor="#666666"
   borderopacity="1"
   gridtolerance="10000"
   guidetolerance="10"
   id="namedview9483"
   inkscape:current-layer="Слой_1"
   inkscape:cx="3.8591244"
   inkscape:cy="13.627163"
   inkscape:document-rotation="0"
   inkscape:pageopacity="0"
   inkscape:pageshadow="2"
   inkscape:snap-global="true"
   inkscape:window-height="715"
   inkscape:window-maximized="1"
   inkscape:window-width="1280"
   inkscape:window-x="0"
   inkscape:window-y="23"
   inkscape:zoom="22.234533"
   objecttolerance="10"
   pagecolor="#ffffff"
   showgrid="true">
	<inkscape:grid
   color="#ceceff"
   empspacing="2"
   id="grid10046"
   opacity="0.1254902"
   spacingx="0.5"
   spacingy="0.5"
   type="xygrid">
		</inkscape:grid>
</sodipodi:namedview>
<title
   id="title9474">folder</title>
<path
   id="path9476"
   sodipodi:nodetypes="ssssscccccsss"
   class="st0"
   d="M15.5,20.9L5.5,21C1.9,21.1,0,21,0,19.9L0.1,6.6  c0-2.1,1.9-2.8,3-2.7L9,4c0.8,0,1.2,0.2,2,0.5L12,5c0.9,0.3,2,1,3,1h3.5c1.1,0,2.4-0.1,2.4,1l0.1,7C21,14.5,16.2,20.8,15.5,20.9z" />
<path
   id="path9480"
   sodipodi:nodetypes="sssssssss"
   class="st1"
   d="M7.6,7.5l14,0c1.1,0,2.4,0.8,2,1.7L19.2,20  c-0.7,1.7-1.7,1.6-4,1.6l-10.6,0c-2.2,0-4.9-0.2-4.1-2.1L5,9C5.4,8.2,6.5,7.5,7.6,7.5z"
   style="fill:#545454;fill-opacity:1" />
</svg>
