<svg id="Слой_1" data-name="Слой 1"
  xmlns:dc="http://purl.org/dc/elements/1.1/"
  xmlns:cc="http://creativecommons.org/ns#"
  xmlns:rdf="http://www.w3.org/1999/02/22-rdf-syntax-ns#"
  xmlns="http://www.w3.org/2000/svg" viewBox="0 0 26 26">
  <metadata id="metadata43">
    <rdf:RDF>
      <cc:Work rdf:about="">
        <cc:license rdf:resource="http://creativecommons.org/licenses/by-sa/4.0/" />
        <dc:format>image/svg+xml</dc:format>
        <dc:type rdf:resource="http://purl.org/dc/dcmitype/StillImage" />
        <dc:title>add_arc</dc:title>
      </cc:Work>
      <cc:License rdf:about="http://creativecommons.org/licenses/by-sa/4.0/">
        <cc:permits rdf:resource="http://creativecommons.org/ns#Reproduction" />
        <cc:permits rdf:resource="http://creativecommons.org/ns#Distribution" />
        <cc:requires rdf:resource="http://creativecommons.org/ns#Notice" />
        <cc:requires rdf:resource="http://creativecommons.org/ns#Attribution" />
        <cc:permits rdf:resource="http://creativecommons.org/ns#DerivativeWorks" />
        <cc:requires rdf:resource="http://creativecommons.org/ns#ShareAlike" />
      </cc:License>
    </rdf:RDF>
  </metadata>
  <defs>
    <style>.cls-1,.cls-3{fill:none;stroke-linecap:round;stroke-linejoin:round;}.cls-1{stroke:#1a81c4;stroke-width:1.0035px;}.cls-2{fill:#b9b9b9;}.cls-3{stroke:#545454;}.cls-4{fill:#545454;}</style>
  </defs>
  <title>distribute_horizontal</title>
  <line class="cls-1" x1="13" y1="24.5" x2="13" y2="1.5"/>
  <rect class="cls-2" x="8.0001" y="10.9954" width="10" height="4" transform="translate(0.0047 25.9955) rotate(-90)"/>
  <line class="cls-1" x1="23.9999" y1="24.5" x2="23.9999" y2="1.5"/>
  <rect class="cls-2" x="19" y="10.9463" width="10" height="4" transform="translate(11.0537 36.9463) rotate(-90)"/>
  <line class="cls-1" x1="1.9994" y1="24.5" x2="1.9994" y2="1.5"/>
  <rect class="cls-2" x="-3" y="11.0231" width="10" height="3.999" transform="translate(-11.0224 15.0239) rotate(-90.0057)"/>
  <line class="cls-3" x1="5.3303" y1="22.6674" x2="9.4888" y2="22.6674"/>
  <polygon class="cls-4" points="6.123 23.829 1.787 22.667 6.123 21.505 6.123 23.829"/>
  <polygon class="cls-4" points="8.696 23.829 13.033 22.667 8.696 21.505 8.696 23.829"/>
  <line class="cls-3" x1="16.5612" y1="22.6674" x2="20.4508" y2="22.6674"/>
  <polygon class="cls-4" points="17.354 23.829 13.017 22.667 17.354 21.505 17.354 23.829"/>
  <polygon class="cls-4" points="19.658 23.829 23.995 22.667 19.658 21.505 19.658 23.829"/>
</svg>