<svg id="Слой_1" data-name="Слой 1"
  xmlns:dc="http://purl.org/dc/elements/1.1/"
  xmlns:cc="http://creativecommons.org/ns#"
  xmlns:rdf="http://www.w3.org/1999/02/22-rdf-syntax-ns#"
  xmlns="http://www.w3.org/2000/svg" viewBox="0 0 26 26">
  <metadata id="metadata43">
    <rdf:RDF>
      <cc:Work rdf:about="">
        <cc:license rdf:resource="http://creativecommons.org/licenses/by-sa/4.0/" />
        <dc:format>image/svg+xml</dc:format>
        <dc:type rdf:resource="http://purl.org/dc/dcmitype/StillImage" />
        <dc:title>add_arc</dc:title>
      </cc:Work>
      <cc:License rdf:about="http://creativecommons.org/licenses/by-sa/4.0/">
        <cc:permits rdf:resource="http://creativecommons.org/ns#Reproduction" />
        <cc:permits rdf:resource="http://creativecommons.org/ns#Distribution" />
        <cc:requires rdf:resource="http://creativecommons.org/ns#Notice" />
        <cc:requires rdf:resource="http://creativecommons.org/ns#Attribution" />
        <cc:permits rdf:resource="http://creativecommons.org/ns#DerivativeWorks" />
        <cc:requires rdf:resource="http://creativecommons.org/ns#ShareAlike" />
      </cc:License>
    </rdf:RDF>
  </metadata>
  <defs>
    <style>.cls-1,.cls-3{fill:none;stroke-linecap:round;stroke-linejoin:round;}.cls-1{stroke:#1a81c4;stroke-width:1.0035px;}.cls-2{fill:#b9b9b9;}.cls-3{stroke:#545454;}.cls-4{fill:#545454;}</style>
  </defs>
  <title>distribute_vertical</title>
  <line class="cls-1" x1="1.5" y1="13" x2="24.5" y2="13"/>
  <rect class="cls-2" x="8.0046" y="11.0001" width="10" height="4"/>
  <line class="cls-1" x1="1.5" y1="23.9999" x2="24.5" y2="23.9999"/>
  <rect class="cls-2" x="8.0537" y="22" width="10" height="4"/>
  <line class="cls-1" x1="1.5" y1="1.9994" x2="24.5" y2="1.9994"/>
  <rect class="cls-2" x="7.9774" y="0.0005" width="10" height="3.999"/>
  <line class="cls-3" x1="3.3326" y1="5.3303" x2="3.3326" y2="9.4888"/>
  <polygon class="cls-4" points="2.17 6.123 3.333 1.787 4.495 6.123 2.17 6.123"/>
  <polygon class="cls-4" points="2.17 8.696 3.333 13.033 4.495 8.696 2.17 8.696"/>
  <line class="cls-3" x1="3.3326" y1="16.5612" x2="3.3326" y2="20.4508"/>
  <polygon class="cls-4" points="2.17 17.354 3.333 13.017 4.495 17.354 2.17 17.354"/>
  <polygon class="cls-4" points="2.17 19.658 3.333 23.995 4.495 19.658 2.17 19.658"/>
</svg>