<?xml version="1.0" encoding="UTF-8" standalone="no"?>
<svg
   xmlns:dc="http://purl.org/dc/elements/1.1/"
   xmlns:cc="http://creativecommons.org/ns#"
   xmlns:rdf="http://www.w3.org/1999/02/22-rdf-syntax-ns#"
   xmlns:svg="http://www.w3.org/2000/svg"
   xmlns="http://www.w3.org/2000/svg"
   xmlns:xlink="http://www.w3.org/1999/xlink"
   xmlns:sodipodi="http://sodipodi.sourceforge.net/DTD/sodipodi-0.dtd"
   xmlns:inkscape="http://www.inkscape.org/namespaces/inkscape"
   height="26"
   width="26"
   version="1.1"
   id="svg2"
   inkscape:version="0.48.4 r9939"
   sodipodi:docname="drag_outline_segment.svg">
  <metadata
     id="metadata40">
    <rdf:RDF>
      <cc:Work
         rdf:about="">
        <dc:format>image/svg+xml</dc:format>
        <dc:type
           rdf:resource="http://purl.org/dc/dcmitype/StillImage" />
        <dc:title />
      </cc:Work>
    </rdf:RDF>
  </metadata>
  <sodipodi:namedview
     pagecolor="#ffffff"
     bordercolor="#666666"
     borderopacity="1"
     objecttolerance="10"
     gridtolerance="10"
     guidetolerance="10"
     inkscape:pageopacity="0"
     inkscape:pageshadow="2"
     inkscape:window-width="1366"
     inkscape:window-height="744"
     id="namedview38"
     showgrid="true"
     inkscape:snap-to-guides="false"
     inkscape:snap-grids="true"
     inkscape:zoom="21.730769"
     inkscape:cx="13"
     inkscape:cy="13"
     inkscape:window-x="0"
     inkscape:window-y="24"
     inkscape:window-maximized="1"
     inkscape:current-layer="svg2">
    <inkscape:grid
       type="xygrid"
       id="grid3017"
       empspacing="2"
       visible="true"
       enabled="true"
       snapvisiblegridlinesonly="true"
       spacingx="0.5px"
       spacingy="0.5px" />
  </sodipodi:namedview>
  <defs
     id="defs4">
    <filter
       id="c"
       height="1.3651"
       width="1.2097"
       color-interpolation-filters="sRGB"
       y="-0.18257"
       x="-0.10484">
      <feGaussianBlur
         stdDeviation="1.5978799"
         id="feGaussianBlur7" />
    </filter>
    <filter
       id="d"
       height="1.4696"
       width="1.4809999"
       color-interpolation-filters="sRGB"
       y="-0.23481999"
       x="-0.24049">
      <feGaussianBlur
         stdDeviation="1.5978799"
         id="feGaussianBlur10" />
    </filter>
    <radialGradient
       inkscape:collect="always"
       xlink:href="#linearGradient3778"
       id="radialGradient3784"
       cx="16"
       cy="7.9285707"
       fx="16"
       fy="7.9285707"
       r="8"
       gradientUnits="userSpaceOnUse"
       gradientTransform="matrix(0.875,2.9802322e-8,-2.9802322e-8,0.875,3.5000003,10.5625)" />
    <linearGradient
       id="linearGradient3778">
      <stop
         style="stop-color:#2b3fc5;stop-opacity:1"
         offset="0"
         id="stop3780" />
      <stop
         id="stop3786"
         offset="0.35714284"
         style="stop-color:#2b3fc5;stop-opacity:1" />
      <stop
         style="stop-color:#1b2999;stop-opacity:1"
         offset="1"
         id="stop3782" />
    </linearGradient>
    <radialGradient
       inkscape:collect="always"
       xlink:href="#linearGradient3778-1"
       id="radialGradient3784-4"
       cx="16"
       cy="7.9285707"
       fx="16"
       fy="7.9285707"
       r="8"
       gradientUnits="userSpaceOnUse"
       gradientTransform="matrix(0.875,2.9802322e-8,-2.9802322e-8,0.875,3.5000003,10.5625)" />
    <linearGradient
       id="linearGradient3778-1">
      <stop
         style="stop-color:#2b3fc5;stop-opacity:1"
         offset="0"
         id="stop3780-6" />
      <stop
         id="stop3786-3"
         offset="0.35714284"
         style="stop-color:#2b3fc5;stop-opacity:1" />
      <stop
         style="stop-color:#1b2999;stop-opacity:1"
         offset="1"
         id="stop3782-2" />
    </linearGradient>
    <radialGradient
       inkscape:collect="always"
       xlink:href="#linearGradient3778-1-2"
       id="radialGradient3784-4-4"
       cx="16"
       cy="7.9285707"
       fx="16"
       fy="7.9285707"
       r="8"
       gradientUnits="userSpaceOnUse"
       gradientTransform="matrix(0.875,2.9802322e-8,-2.9802322e-8,0.875,3.5000003,10.5625)" />
    <linearGradient
       id="linearGradient3778-1-2">
      <stop
         style="stop-color:#15a410;stop-opacity:1"
         offset="0"
         id="stop3780-6-7" />
      <stop
         id="stop3786-3-2"
         offset="0.35714284"
         style="stop-color:#159e0f;stop-opacity:1" />
      <stop
         style="stop-color:#12820c;stop-opacity:1"
         offset="1"
         id="stop3782-2-1" />
    </linearGradient>
  </defs>
  <path
     style="fill:#cccccc;fill-opacity:1;stroke:#008000;stroke-width:1.50000000000000000;stroke-linecap:butt;stroke-linejoin:round;stroke-miterlimit:4;stroke-opacity:1;stroke-dasharray:none"
     d="m 13.5,2.5 -16,0 0,25 16,0 z"
     id="rect3811"
     inkscape:connector-curvature="0"
     sodipodi:nodetypes="ccccc" />
  <g
     transform="matrix(1.6382539,0,0,1.5572263,1.2572207,0.36314149)"
     id="g16">
    <rect
       height="16"
       width="16"
       y="0"
       x="0"
       id="rect18"
       style="fill-opacity:0" />
  </g>
  <path
     inkscape:connector-curvature="0"
     style="opacity:0.75;fill:#ffffff;fill-opacity:1;fill-rule:evenodd;stroke:none"
     d="M 17.40625,8.96875 A 0.524477,0.524477 0 0 0 17.0625,9.1875 l -2.5,3.5 A 0.524477,0.524477 0 0 0 15,13.53125 l 0.46875,0 0,1.9375 -1.9375,0 0,-0.46875 A 0.524477,0.524477 0 0 0 12.6875,14.5625 l -3.5,2.5 a 0.524477,0.524477 0 0 0 0,0.875 l 3.5,2.5 A 0.524477,0.524477 0 0 0 13.53125,20 l 0,-0.46875 1.9375,0 0,1.9375 -0.46875,0 a 0.524477,0.524477 0 0 0 -0.4375,0.84375 l 2.5,3.5 a 0.524477,0.524477 0 0 0 0.875,0 l 2.5,-3.5 A 0.524477,0.524477 0 0 0 20,21.46875 l -0.46875,0 0,-1.9375 1.9375,0 0,0.46875 a 0.524477,0.524477 0 0 0 0.84375,0.4375 l 3.5,-2.5 a 0.524477,0.524477 0 0 0 0,-0.875 l -3.5,-2.5 A 0.524477,0.524477 0 0 0 21.46875,15 l 0,0.46875 -1.9375,0 0,-1.9375 0.46875,0 a 0.524477,0.524477 0 0 0 0.4375,-0.84375 l -2.5,-3.5 A 0.524477,0.524477 0 0 0 17.40625,8.96875 z"
     id="path3859" />
  <path
     d="M 17.5,9.5 15,13 l 1,0 0,3 -3,0 0,-1 -3.5,2.5 3.5,2.5 0,-1 3,0 0,3 -1,0 2.5,3.5 2.5,-3.5 -1,0 0,-3 3,0 0,1 3.5,-2.5 -3.5,-2.5 0,1 -3,0 0,-3 1,0 z"
     id="path27"
     inkscape:connector-curvature="0"
     style="fill:url(#radialGradient3784-4-4);fill-opacity:1;fill-rule:evenodd;stroke:none"
     sodipodi:nodetypes="ccccccccccccccccccccccccc" />
</svg>
