<svg xmlns="http://www.w3.org/2000/svg" height="48" width="48" version="1.1">
 <path fill="#007d00" d="m-5.5178 40.111 20.42-9.838 42.657 13.652c1.5867 2.7277 2.1131 4.0143 6.2645 11.807l-49.172-17.594-17.558 7.623c-1.8119-3.0654-0.82018-2.9532-2.612-5.6492z"/>
 <g transform="matrix(2.9379,0,0,2.1996,-5.2815,-32.414)">
  <rect fill-opacity="0" height="16" width="16" y="0" x="0"/>
 </g>
 <path d="m14.955 29.014 42.426 13.576" stroke="#ff0013" stroke-width="3.4" fill="none"/>
 <path d="m14.001 39.197 42.214 14.849" stroke="#ff0013" stroke-width="3.4" fill="none"/>
 <path d="m30.964 1.0427-7.0793 6.2502h4.5106v7.146h-1.5187v0.03624h-6.5222v-4.3135l-6.4659 6.8457 6.4659 6.8431v-4.3601h8.0409v1.09h0.03751v6.3046h-4.4624l7.082 6.2502 7.0793-6.2502h-4.5106v-7.3946h0.48213v-0.03625h6.5195v4.3135l6.466-6.8457-6.466-6.8431v4.3601h-7.0016v-0.84405h-0.03749v-6.302h4.4624l-7.082-6.2502z" fill-rule="evenodd" stroke="#44a118" stroke-width="1.421" fill="#59d421"/>
</svg>
