<svg id="Слой_1" data-name="Слой 1"
  xmlns:cc="http://creativecommons.org/ns#"
  xmlns:rdf="http://www.w3.org/1999/02/22-rdf-syntax-ns#"
  xmlns="http://www.w3.org/2000/svg" viewBox="0 0 26 26">
  <metadata id="metadata43">
    <rdf:RDF>
      <cc:Work rdf:about="">
        <cc:license rdf:resource="http://creativecommons.org/licenses/by/4.0/" />
      </cc:Work>
      <cc:License rdf:about="http://creativecommons.org/licenses/by/4.0/">
        <cc:permits rdf:resource="http://creativecommons.org/ns#Reproduction" />
        <cc:permits rdf:resource="http://creativecommons.org/ns#Distribution" />
        <cc:requires rdf:resource="http://creativecommons.org/ns#Notice" />
        <cc:requires rdf:resource="http://creativecommons.org/ns#Attribution" />
        <cc:permits rdf:resource="http://creativecommons.org/ns#DerivativeWorks" />
      </cc:License>
    </rdf:RDF>
  </metadata>
  <defs>
    <style>.cls-1{fill:#545454;}.cls-2{fill:#1a81c4;}.cls-3{fill:none;stroke:#545454;stroke-linecap:round;stroke-linejoin:round;}</style>
  </defs>
  <title>drag</title>
  <path class="cls-1" d="M1,20a.9987.9987,0,0,1,.63-.9287l12.3916-4.9345L18.0491,1.6928a1,1,0,0,1,1.9023.6152L15.78,15.2a.9984.9984,0,0,1-.581.621L2.37,20.9291a.999.999,0,0,1-1.2988-.5586A.9889.9889,0,0,1,1,20Z"/>
  <path class="cls-2" d="M14.88,17.9215a3,3,0,1,1,3-3A3,3,0,0,1,14.88,17.9215Z"/>
  <path class="cls-1" d="M14.8284,14.8917,18.86,25l1.3865-3.0426c.5772.5679,1.4264,1.4078,2.1685,2.1407a1.2338,1.2338,0,0,0,1.747-.0135h0A1.2337,1.2337,0,0,0,24.15,22.34c-.7421-.7331-1.5925-1.5744-2.1712-2.1441L25,18.7612Z"/>
  <path class="cls-3" d="M9.2794,17.1235A6.0022,6.0022,0,0,1,16.6376,9.217"/>
</svg>