<svg xmlns="http://www.w3.org/2000/svg" height="48" width="48" version="1.1">
 <path fill="#007d00" d="m16.756 40.167 20.42 9.838 42.657-13.652c1.586-2.728 2.113-4.015 6.264-11.807l-49.171 17.594-17.558-7.623c-1.8119 3.0654-0.82018 2.9532-2.612 5.6492z"/>
 <path fill="#007d00" d="m13.213 47.072c-6.6501 0.015-12.058-5.034-12.072-11.269-0.0142-6.235 5.3714-11.308 12.021-11.323 6.6499-0.01474 12.058 5.0338 12.072 11.269 0.01394 6.2354-5.3718 11.308-12.022 11.323zm-0.01443-6.4548c2.85-0.0064 5.1581-2.1803 5.1521-4.8526s-2.3238-4.836-5.1738-4.8297c-2.85 0.0064-5.1581 2.1803-5.1521 4.8526 0.00598 2.6723 2.3238 4.836 5.1738 4.8297z"/>
 <path d="m30.964 1.0427-7.0793 6.2502h4.5106v7.146h-1.5187v0.03624h-6.5222v-4.3135l-6.4659 6.8457 6.4659 6.8431v-4.3601h8.0409v1.09h0.03751v6.3046h-4.4624l7.082 6.2502 7.0793-6.2502h-4.5106v-7.3946h0.48213v-0.03625h6.5195v4.3135l6.466-6.8457-6.466-6.8431v4.3601h-7.0016v-0.84405h-0.03749v-6.302h4.4624l-7.082-6.2502z" fill-rule="evenodd" stroke="#44a118" stroke-width="1.421" fill="#59d421"/>
 <g transform="matrix(2.9379,0,0,2.1996,-5.2815,-32.414)">
  <rect fill-opacity="0" height="16" width="16" y="0" x="0"/>
 </g>
</svg>
