<?xml version="1.0" encoding="UTF-8" standalone="no"?>
<svg
   xmlns:dc="http://purl.org/dc/elements/1.1/"
   xmlns:cc="http://creativecommons.org/ns#"
   xmlns:rdf="http://www.w3.org/1999/02/22-rdf-syntax-ns#"
   xmlns:svg="http://www.w3.org/2000/svg"
   xmlns="http://www.w3.org/2000/svg"
   xmlns:xlink="http://www.w3.org/1999/xlink"
   xmlns:sodipodi="http://sodipodi.sourceforge.net/DTD/sodipodi-0.dtd"
   xmlns:inkscape="http://www.inkscape.org/namespaces/inkscape"
   height="48"
   width="48"
   version="1.1"
   id="svg4143"
   inkscape:version="0.91 r13725"
   sodipodi:docname="drag_pad.svg">
  <metadata
     id="metadata4159">
    <rdf:RDF>
      <cc:Work
         rdf:about="">
        <dc:format>image/svg+xml</dc:format>
        <dc:type
           rdf:resource="http://purl.org/dc/dcmitype/StillImage" />
      </cc:Work>
    </rdf:RDF>
  </metadata>
  <defs
     id="defs4157">
    <radialGradient
       inkscape:collect="always"
       xlink:href="#radialGradient5361"
       id="radialGradient4573"
       gradientUnits="userSpaceOnUse"
       gradientTransform="matrix(0,0.85211317,-1.0012051,0,5.7907932,1613.5391)"
       cx="-1872.6962"
       cy="-25.046564"
       fx="-1872.6962"
       fy="-25.046564"
       r="16.955999" />
    <radialGradient
       id="radialGradient5361"
       gradientUnits="userSpaceOnUse"
       cy="20.493999"
       cx="35.292999"
       gradientTransform="matrix(0,-0.84302,1.0202,0,-4.8963249,41.059418)"
       r="16.955999">
      <stop
         stop-color="#73d216"
         offset="0"
         id="stop5363"
         style="stop-color:#09caca;stop-opacity:1" />
      <stop
         stop-color="#4e9a06"
         offset="1"
         id="stop5365"
         style="stop-color:#0ff1f4;stop-opacity:1" />
    </radialGradient>
  </defs>
  <sodipodi:namedview
     pagecolor="#ffffff"
     bordercolor="#666666"
     borderopacity="1"
     objecttolerance="10"
     gridtolerance="10"
     guidetolerance="10"
     inkscape:pageopacity="0"
     inkscape:pageshadow="2"
     inkscape:window-width="1855"
     inkscape:window-height="1056"
     id="namedview4155"
     showgrid="false"
     inkscape:zoom="9.8333333"
     inkscape:cx="39.927823"
     inkscape:cy="8.8828674"
     inkscape:window-x="65"
     inkscape:window-y="24"
     inkscape:window-maximized="1"
     inkscape:current-layer="svg4143" />
  <path
     fill="#007d00"
     d="m16.756 40.167 20.42 9.838 42.657-13.652c1.586-2.728 2.113-4.015 6.264-11.807l-49.171 17.594-17.558-7.623c-1.8119 3.0654-0.82018 2.9532-2.612 5.6492z"
     id="path4145" />
  <path
     fill="#007d00"
     d="m13.213 47.072c-6.6501 0.015-12.058-5.034-12.072-11.269-0.0142-6.235 5.3714-11.308 12.021-11.323 6.6499-0.01474 12.058 5.0338 12.072 11.269 0.01394 6.2354-5.3718 11.308-12.022 11.323zm-0.01443-6.4548c2.85-0.0064 5.1581-2.1803 5.1521-4.8526s-2.3238-4.836-5.1738-4.8297c-2.85 0.0064-5.1581 2.1803-5.1521 4.8526 0.00598 2.6723 2.3238 4.836 5.1738 4.8297z"
     id="path4147" />
  <g
     transform="matrix(2.9379,0,0,2.1996,-5.2815,-32.414)"
     id="g4151">
    <rect
       fill-opacity="0"
       height="16"
       width="16"
       y="0"
       x="0"
       id="rect4153" />
  </g>
  <path
     inkscape:connector-curvature="0"
     style="color:#000000;clip-rule:nonzero;display:inline;overflow:visible;visibility:visible;opacity:1;isolation:auto;mix-blend-mode:normal;color-interpolation:sRGB;color-interpolation-filters:linearRGB;solid-color:#000000;solid-opacity:1;fill:url(#radialGradient4573);fill-opacity:1;fill-rule:evenodd;stroke:#000000;stroke-width:1.83469939;stroke-linecap:round;stroke-linejoin:round;stroke-miterlimit:10;stroke-dasharray:none;stroke-dashoffset:0;stroke-opacity:1;color-rendering:auto;image-rendering:auto;shape-rendering:auto;text-rendering:auto;enable-background:accumulate"
     d="m 30.711865,0.92290045 -3.646484,4.34374995 -3.644532,4.3437495 4.333985,0 0,4.7207111 -4.722657,0 0,-4.3320311 -4.341796,3.6445311 -4.34375,3.64453 4.34375,3.64648 4.341796,3.64453 0,-4.33398 4.722657,0 0,4.7207 -4.333985,0 3.644532,4.34375 3.646484,4.34375 3.644531,-4.34375 3.644531,-4.34375 -4.333984,0 0,-4.7207 4.722656,0 0,4.33398 4.34375,-3.64453 4.34375,-3.64648 -4.34375,-3.64453 -4.34375,-3.6445311 0,4.3320311 -4.722656,0 0,-4.7207111 4.333984,0 -3.644531,-4.3437495 -3.644531,-4.34374995 z"
     id="path5230" />
</svg>
