<?xml version="1.0" encoding="UTF-8" standalone="no"?>
<svg
   xmlns:dc="http://purl.org/dc/elements/1.1/"
   xmlns:cc="http://creativecommons.org/ns#"
   xmlns:rdf="http://www.w3.org/1999/02/22-rdf-syntax-ns#"
   xmlns:svg="http://www.w3.org/2000/svg"
   xmlns="http://www.w3.org/2000/svg"
   xmlns:xlink="http://www.w3.org/1999/xlink"
   xmlns:sodipodi="http://sodipodi.sourceforge.net/DTD/sodipodi-0.dtd"
   xmlns:inkscape="http://www.inkscape.org/namespaces/inkscape"
   height="26"
   width="26"
   version="1.1"
   id="svg2"
   inkscape:version="0.48.4 r9939"
   sodipodi:docname="drag_track_segment.svg">
  <metadata
     id="metadata40">
    <rdf:RDF>
      <cc:Work
         rdf:about="">
        <dc:format>image/svg+xml</dc:format>
        <dc:type
           rdf:resource="http://purl.org/dc/dcmitype/StillImage" />
        <dc:title />
      </cc:Work>
    </rdf:RDF>
  </metadata>
  <sodipodi:namedview
     pagecolor="#ffffff"
     bordercolor="#666666"
     borderopacity="1"
     objecttolerance="10"
     gridtolerance="10"
     guidetolerance="10"
     inkscape:pageopacity="0"
     inkscape:pageshadow="2"
     inkscape:window-width="1366"
     inkscape:window-height="744"
     id="namedview38"
     showgrid="true"
     inkscape:snap-to-guides="false"
     inkscape:snap-grids="false"
     inkscape:zoom="22.961538"
     inkscape:cx="14.587061"
     inkscape:cy="14.143528"
     inkscape:window-x="0"
     inkscape:window-y="24"
     inkscape:window-maximized="1"
     inkscape:current-layer="svg2">
    <inkscape:grid
       type="xygrid"
       id="grid3017"
       empspacing="2"
       visible="true"
       enabled="true"
       snapvisiblegridlinesonly="true"
       spacingx="0.5px"
       spacingy="0.5px" />
  </sodipodi:namedview>
  <defs
     id="defs4">
    <filter
       id="c"
       height="1.3651"
       width="1.2097"
       color-interpolation-filters="sRGB"
       y="-0.18257"
       x="-0.10484">
      <feGaussianBlur
         stdDeviation="1.5978799"
         id="feGaussianBlur7" />
    </filter>
    <filter
       id="d"
       height="1.4696"
       width="1.4809999"
       color-interpolation-filters="sRGB"
       y="-0.23481999"
       x="-0.24049">
      <feGaussianBlur
         stdDeviation="1.5978799"
         id="feGaussianBlur10" />
    </filter>
    <radialGradient
       inkscape:collect="always"
       xlink:href="#linearGradient3778"
       id="radialGradient3784"
       cx="16"
       cy="7.9285707"
       fx="16"
       fy="7.9285707"
       r="8"
       gradientUnits="userSpaceOnUse"
       gradientTransform="matrix(0.875,2.9802322e-8,-2.9802322e-8,0.875,3.5000003,10.5625)" />
    <linearGradient
       id="linearGradient3778">
      <stop
         style="stop-color:#2b3fc5;stop-opacity:1"
         offset="0"
         id="stop3780" />
      <stop
         id="stop3786"
         offset="0.35714284"
         style="stop-color:#2b3fc5;stop-opacity:1" />
      <stop
         style="stop-color:#1b2999;stop-opacity:1"
         offset="1"
         id="stop3782" />
    </linearGradient>
    <radialGradient
       inkscape:collect="always"
       xlink:href="#linearGradient3778-1"
       id="radialGradient3784-4"
       cx="16"
       cy="7.9285707"
       fx="16"
       fy="7.9285707"
       r="8"
       gradientUnits="userSpaceOnUse"
       gradientTransform="matrix(0.875,2.9802322e-8,-2.9802322e-8,0.875,3.507538,10.82778)" />
    <linearGradient
       id="linearGradient3778-1">
      <stop
         style="stop-color:#15a410;stop-opacity:1"
         offset="0"
         id="stop3780-6" />
      <stop
         id="stop3786-3"
         offset="0.35714284"
         style="stop-color:#159e0f;stop-opacity:1" />
      <stop
         style="stop-color:#12820c;stop-opacity:1"
         offset="1"
         id="stop3782-2" />
    </linearGradient>
    <radialGradient
       inkscape:collect="always"
       xlink:href="#linearGradient3778-1-4"
       id="radialGradient3784-4-5"
       cx="16"
       cy="7.9285707"
       fx="16"
       fy="7.9285707"
       r="8"
       gradientUnits="userSpaceOnUse"
       gradientTransform="matrix(0.875,2.9802322e-8,-2.9802322e-8,0.875,3.551089,10.610024)" />
    <linearGradient
       id="linearGradient3778-1-4">
      <stop
         style="stop-color:#15a410;stop-opacity:1"
         offset="0"
         id="stop3780-6-2" />
      <stop
         id="stop3786-3-2"
         offset="0.35714284"
         style="stop-color:#159e0f;stop-opacity:1" />
      <stop
         style="stop-color:#12820c;stop-opacity:1"
         offset="1"
         id="stop3782-2-3" />
    </linearGradient>
  </defs>
  <path
     style="fill:none;stroke:#b3b3b3;stroke-width:3;stroke-linecap:round;stroke-linejoin:miter;stroke-miterlimit:4;stroke-opacity:1;stroke-dasharray:none"
     d="m 7,12.5 -4.5,11"
     id="path2990"
     inkscape:connector-curvature="0"
     sodipodi:nodetypes="cc" />
  <path
     style="fill:none;stroke:#b3b3b3;stroke-width:3;stroke-linecap:round;stroke-linejoin:miter;stroke-miterlimit:4;stroke-opacity:1;stroke-dasharray:none"
     d="m 19,12.5 4.5,-10"
     id="path3024"
     inkscape:connector-curvature="0"
     sodipodi:nodetypes="cc" />
  <path
     style="fill:none;stroke:#008000;stroke-width:3;stroke-linecap:round;stroke-linejoin:miter;stroke-miterlimit:4;stroke-opacity:1;stroke-dasharray:none"
     d="m 12.5,12.5 6.5,0"
     id="path3026"
     inkscape:connector-curvature="0"
     sodipodi:nodetypes="cc" />
  <path
     style="fill:none;stroke:#008000;stroke-width:3;stroke-linecap:round;stroke-linejoin:miter;stroke-miterlimit:4;stroke-opacity:1;stroke-dasharray:none"
     d="M 12.5,12.5 7,12.5"
     id="path3022"
     inkscape:connector-curvature="0"
     sodipodi:nodetypes="cc" />
  <path
     inkscape:connector-curvature="0"
     style="opacity:0.75;fill:#ffffff;fill-opacity:1;fill-rule:evenodd;stroke:none"
     d="m 17.457339,9.0162745 a 0.524477,0.524477 0 0 0 -0.34375,0.21875 l -2.5,3.4999995 a 0.524477,0.524477 0 0 0 0.4375,0.84375 l 0.46875,0 0,1.9375 -1.9375,0 0,-0.46875 a 0.524477,0.524477 0 0 0 -0.84375,-0.4375 l -3.5000006,2.5 a 0.524477,0.524477 0 0 0 0,0.875 l 3.5000006,2.5 a 0.524477,0.524477 0 0 0 0.84375,-0.4375 l 0,-0.46875 1.9375,0 0,1.9375 -0.46875,0 a 0.524477,0.524477 0 0 0 -0.4375,0.84375 l 2.5,3.5 a 0.524477,0.524477 0 0 0 0.875,0 l 2.5,-3.5 a 0.524477,0.524477 0 0 0 -0.4375,-0.84375 l -0.46875,0 0,-1.9375 1.9375,0 0,0.46875 a 0.524477,0.524477 0 0 0 0.84375,0.4375 l 3.5,-2.5 a 0.524477,0.524477 0 0 0 0,-0.875 l -3.5,-2.5 a 0.524477,0.524477 0 0 0 -0.84375,0.4375 l 0,0.46875 -1.9375,0 0,-1.9375 0.46875,0 a 0.524477,0.524477 0 0 0 0.4375,-0.84375 l -2.5,-3.4999995 a 0.524477,0.524477 0 0 0 -0.53125,-0.21875 z"
     id="path3859" />
  <path
     d="m 17.551089,9.5475245 -2.5,3.4999995 1,0 0,3 -3,0 0,-1 -3.5000006,2.5 3.5000006,2.5 0,-1 3,0 0,3 -1,0 2.5,3.5 2.5,-3.5 -1,0 0,-3 3,0 0,1 3.5,-2.5 -3.5,-2.5 0,1 -3,0 0,-3 1,0 z"
     id="path27"
     inkscape:connector-curvature="0"
     style="fill:url(#radialGradient3784-4-5);fill-opacity:1;fill-rule:evenodd;stroke:none"
     sodipodi:nodetypes="ccccccccccccccccccccccccc" />
</svg>
