<svg id="Слой_1" data-name="Слой 1"
  xmlns:dc="http://purl.org/dc/elements/1.1/"
  xmlns:cc="http://creativecommons.org/ns#"
  xmlns:rdf="http://www.w3.org/1999/02/22-rdf-syntax-ns#"
  xmlns="http://www.w3.org/2000/svg"
  xmlns:sodipodi="http://sodipodi.sourceforge.net/DTD/sodipodi-0.dtd"
  xmlns:inkscape="http://www.inkscape.org/namespaces/inkscape" viewBox="0 0 26 26">
  <sodipodi:namedview pagecolor="#ffffff" bordercolor="#666666" borderopacity="1" objecttolerance="10" gridtolerance="10" guidetolerance="10" inkscape:pageopacity="0" inkscape:pageshadow="2" inkscape:window-width="1609" inkscape:window-height="1286" id="namedview30" showgrid="true" inkscape:zoom="27.961538" inkscape:cx="13" inkscape:cy="13" inkscape:window-x="0" inkscape:window-y="37" inkscape:window-maximized="0">
    <inkscape:grid type="xygrid" id="grid_kicad" spacingx="0.5" spacingy="0.5" color="#9999ff" opacity="0.13" empspacing="2" />
  </sodipodi:namedview>
  <metadata id="metadata43">
    <rdf:RDF>
      <cc:Work rdf:about="">
        <cc:license rdf:resource="http://creativecommons.org/licenses/by-sa/4.0/" />
        <dc:format>image/svg+xml</dc:format>
        <dc:type rdf:resource="http://purl.org/dc/dcmitype/StillImage" />
        <dc:title>add_arc</dc:title>
      </cc:Work>
      <cc:License rdf:about="http://creativecommons.org/licenses/by-sa/4.0/">
        <cc:permits rdf:resource="http://creativecommons.org/ns#Reproduction" />
        <cc:permits rdf:resource="http://creativecommons.org/ns#Distribution" />
        <cc:requires rdf:resource="http://creativecommons.org/ns#Notice" />
        <cc:requires rdf:resource="http://creativecommons.org/ns#Attribution" />
        <cc:permits rdf:resource="http://creativecommons.org/ns#DerivativeWorks" />
        <cc:requires rdf:resource="http://creativecommons.org/ns#ShareAlike" />
      </cc:License>
    </rdf:RDF>
  </metadata>
  <defs>
    <style>.cls-1{fill:#b9b9b9;}.cls-2{fill:#fff;}.cls-2,.cls-3{stroke:#545454;}.cls-2,.cls-3,.cls-4{stroke-linecap:round;stroke-linejoin:round;}.cls-3,.cls-4{fill:none;}.cls-4{stroke:#1a81c4;}.cls-5{fill:#545454;}</style>
  </defs>
  <title>drc</title>
  <path class="cls-1" d="M19.3457,2.0062H4.6675A3.67,3.67,0,0,0,.9981,5.6757V20.3539a3.67,3.67,0,0,0,3.6694,3.6694H19.3457a3.67,3.67,0,0,0,3.6695-3.6694V5.6757A3.67,3.67,0,0,0,19.3457,2.0062Z"/>
  <rect class="cls-2" x="4.1572" y="4.6674" width="3.8692" height="3.8692"/>
  <rect class="cls-2" x="4.1572" y="11.1623" width="3.8692" height="3.8693"/>
  <rect class="cls-2" x="4.1572" y="17.6573" width="3.8692" height="3.8693"/>
  <line class="cls-3" x1="10.1601" y1="6.4052" x2="18.8754" y2="6.4052"/>
  <line class="cls-3" x1="10.1601" y1="12.9494" x2="17.1207" y2="12.9494"/>
  <line class="cls-3" x1="10.1601" y1="19.6903" x2="11.7505" y2="19.6903"/>
  <polyline class="cls-4" points="3.737 5.378 5.819 7.46 9.538 3.741"/>
  <polyline class="cls-4" points="3.737 11.898 5.819 13.98 9.538 10.261"/>
  <path class="cls-5" d="M24.6079,8.0745l-.8253-.8253a1.316,1.316,0,0,0-1.8611,0l-9.27,9.27,2.6864,2.6867,9.27-9.2707A1.316,1.316,0,0,0,24.6079,8.0745Z"/>
  <polygon class="cls-5" points="12.286 16.884 11.632 20.19 14.973 19.571 13.658 18.268 12.286 16.884"/>
</svg>