<svg xmlns="http://www.w3.org/2000/svg" height="48" width="48" version="1.0" xmlns:xlink="http://www.w3.org/1999/xlink">
 <defs>
  <radialGradient id="a" gradientUnits="userSpaceOnUse" cy="91.174" cx="1.5898" gradientTransform="matrix(.4279 0 0 .4279 32.818 38.608)" r="108.42">
   <stop stop-color="#fff" offset=".0393"/>
   <stop stop-color="#fff" stop-opacity="0" offset=".4862"/>
   <stop stop-opacity="0" offset=".52810"/>
   <stop stop-color="#030303" stop-opacity="0" offset=".60050"/>
   <stop stop-color="#0e0e0e" stop-opacity="0" offset=".66160"/>
   <stop stop-color="#1f1f1f" stop-opacity="0" offset=".71850"/>
   <stop stop-color="#fff" offset="1"/>
  </radialGradient>
  <radialGradient id="bg" gradientUnits="userSpaceOnUse" cy="28.805" cx="118.78" gradientTransform="matrix(.42791 0 0 .42791 46.121 42.612)" r="44.628">
   <stop stop-color="#444" offset="0"/>
   <stop stop-color="#111" offset=".8876"/>
  </radialGradient>
  <radialGradient id="bh" fx="101.45" fy="19.029" gradientUnits="userSpaceOnUse" cy="33.695" cx="100.56" gradientTransform="matrix(.42791 0 0 .42791 46.121 42.612)" r="27.629">
   <stop stop-color="#494949" offset=".0169"/>
   <stop stop-color="#222" offset="0.309"/>
   <stop stop-color="#111" offset=".8876"/>
  </radialGradient>
  <radialGradient id="bi" fx="-33.487" fy="27.809" gradientUnits="userSpaceOnUse" cy="32.028" cx="-40.504" gradientTransform="matrix(.42791 0 0 .42791 46.121 42.612)" r="8.1883">
   <stop stop-color="#aaa" offset=".0169"/>
   <stop stop-color="#444" offset="0.309"/>
   <stop stop-color="#111" offset=".8876"/>
  </radialGradient>
  <radialGradient id="bj" fx="-21.227" fy="23.026" gradientUnits="userSpaceOnUse" cy="39.027" cx="-24.19" gradientTransform="matrix(.42791 0 0 .42791 46.121 42.612)" r="22.421">
   <stop stop-color="#494949" offset=".0169"/>
   <stop stop-color="#222" offset="0.309"/>
   <stop stop-color="#111" offset=".8876"/>
  </radialGradient>
  <radialGradient id="bk" gradientUnits="userSpaceOnUse" cy="44.331" cx="-55.986" gradientTransform="matrix(.42791 0 0 .42791 46.121 42.612)" r="9.899">
   <stop stop-color="#494949" offset=".0169"/>
   <stop stop-color="#222" offset="0.309"/>
   <stop stop-color="#111" offset=".8876"/>
  </radialGradient>
  <radialGradient id="bl" fx="34.332" fy="-24.528" gradientUnits="userSpaceOnUse" cy="-28.825" cx="27.22" gradientTransform="matrix(.42791 0 0 .42791 46.121 42.612)" r="17.706">
   <stop stop-color="#fff" offset="0"/>
   <stop stop-color="#ccc" offset=".16670"/>
   <stop stop-color="#777" offset=".45730"/>
   <stop stop-color="#555" offset=".58990"/>
   <stop offset="1"/>
  </radialGradient>
  <radialGradient id="bm" gradientUnits="userSpaceOnUse" cy="-21.416" cx="47.221" gradientTransform="matrix(.42791 0 0 .42791 46.121 42.612)" r="23.885">
   <stop stop-color="#fff" offset="0"/>
   <stop stop-color="#ccc" offset=".16670"/>
   <stop stop-color="#777" offset=".45730"/>
   <stop stop-color="#555" offset=".58990"/>
   <stop offset="1"/>
  </radialGradient>
  <radialGradient id="bn" fx="-4.6608" fy="-16.723" gradientUnits="userSpaceOnUse" cy="-11.343" cx="-7.27" gradientTransform="matrix(.42791 0 0 .42791 46.121 42.612)" r="5.9793">
   <stop stop-color="#aaa" offset=".0169"/>
   <stop stop-color="#444" offset="0.309"/>
   <stop stop-color="#111" offset=".62360"/>
  </radialGradient>
  <radialGradient id="bo" fx="85.497" fy="-16.341" gradientUnits="userSpaceOnUse" cy="-11.64" cx="89.191" gradientTransform="matrix(.42791 0 0 .42791 46.121 42.612)" r="5.9789">
   <stop stop-color="#aaa" offset=".0169"/>
   <stop stop-color="#444" offset="0.309"/>
   <stop stop-color="#111" offset=".68540"/>
  </radialGradient>
  <radialGradient id="bp" gradientUnits="userSpaceOnUse" cy="-55.796" cx="67.939" gradientTransform="matrix(.42791 0 0 .42791 46.121 42.612)" r="13.239">
   <stop stop-color="#fff" offset="0"/>
   <stop stop-color="#ba7878" offset=".1635"/>
   <stop stop-color="#8d2222" offset=".2753"/>
   <stop stop-color="#7c0000" offset=".3258"/>
   <stop stop-color="#600000" offset="1"/>
  </radialGradient>
  <linearGradient id="db" y2="38.318" gradientUnits="userSpaceOnUse" x2="50.508" gradientTransform="translate(13.302,4.0031)" y1="5.8594" x1="50.508">
   <stop stop-color="#fff" offset="0"/>
   <stop stop-color="#f0f0f0" offset=".0176"/>
   <stop stop-color="#bebebe" offset=".0817"/>
   <stop stop-color="#919191" offset=".1506"/>
   <stop stop-color="#6a6a6a" offset=".2229"/>
   <stop stop-color="#494949" offset=".2992"/>
   <stop stop-color="#2e2e2e" offset=".38080"/>
   <stop stop-color="#1a1a1a" offset=".46970"/>
   <stop stop-color="#0b0b0b" offset=".56950"/>
   <stop stop-color="#030303" offset=".68920"/>
   <stop offset="0.882"/>
  </linearGradient>
  <radialGradient id="bq" gradientUnits="userSpaceOnUse" cy="43.174" cx="40.102" gradientTransform="matrix(.42791 0 0 .42791 46.121 42.612)" r="130.98">
   <stop stop-color="#fa746b" offset="0"/>
   <stop stop-color="#fb3a3c" offset=".1629"/>
   <stop stop-color="#e00" offset="0.309"/>
   <stop stop-color="#e10000" offset=".42450"/>
   <stop stop-color="#d00" offset=".53370"/>
   <stop stop-color="#700" offset=".76970"/>
   <stop stop-color="#400" offset=".98880"/>
  </radialGradient>
  <linearGradient id="dc" y2="115" gradientUnits="userSpaceOnUse" x2="50.508" gradientTransform="translate(13.302,4.0031)" y1="70.395" x1="50.508">
   <stop stop-color="#fa746b" offset="0"/>
   <stop stop-color="#910018" offset=".56740"/>
   <stop stop-color="#200" offset="1"/>
  </linearGradient>
  <radialGradient id="br" gradientUnits="userSpaceOnUse" cy="14.788" cx="40.102" gradientTransform="matrix(.42791 0 0 .42791 46.121 42.612)" r="84.23">
   <stop stop-color="#fa746b" offset=".1236"/>
   <stop stop-color="#fb3a3c" offset=".24160"/>
   <stop stop-color="#f00" offset=".35960"/>
   <stop stop-color="#c70010" offset=".66850"/>
   <stop stop-color="#910018" offset=".94380"/>
  </radialGradient>
  <radialGradient id="bs" gradientUnits="userSpaceOnUse" cy="-34.751" cx="17.293" gradientTransform="matrix(.42791 0 0 .42791 46.121 42.612)" r="22.371">
   <stop stop-color="#fff740" offset="0"/>
   <stop stop-color="#dea200" offset=".75840"/>
   <stop stop-color="#bd8a00" offset="1"/>
  </radialGradient>
  <radialGradient id="bt" gradientUnits="userSpaceOnUse" cy="-35.26" cx="53.378" gradientTransform="matrix(.42791 0 0 .42791 46.121 42.612)" r="5.3807">
   <stop stop-color="#fff740" offset="0"/>
   <stop stop-color="#f0c000" offset=".75840"/>
   <stop stop-color="#bd8a00" offset="1"/>
  </radialGradient>
  <radialGradient id="bu" fx="32.152" fy="-24.979" gradientUnits="userSpaceOnUse" cy="-28.075" cx="27.028" gradientTransform="matrix(.42791 0 0 .42791 46.121 42.612)" r="12.756">
   <stop stop-color="#fff" offset="0"/>
   <stop stop-color="#ccc" offset=".0921"/>
   <stop stop-color="#777" offset=".25260"/>
   <stop stop-color="#555" offset=".3258"/>
   <stop offset="1"/>
  </radialGradient>
  <radialGradient id="bv" gradientUnits="userSpaceOnUse" cy="-22.624" cx="48.898" gradientTransform="matrix(.42791 0 0 .42791 46.121 42.612)" r="18.83">
   <stop stop-color="#fff" offset="0"/>
   <stop stop-color="#ccc" offset=".0921"/>
   <stop stop-color="#777" offset=".25260"/>
   <stop stop-color="#555" offset=".3258"/>
   <stop offset="1"/>
  </radialGradient>
  <radialGradient id="bw" fx="26.78" fy="-10.751" gradientUnits="userSpaceOnUse" cy="-13.416" cx="28.557" gradientTransform="matrix(.42791 0 0 .42791 46.121 42.612)" r="39.596">
   <stop stop-color="#fff" offset=".0112"/>
   <stop stop-color="#222" offset=".31460"/>
   <stop offset="1"/>
  </radialGradient>
  <linearGradient id="dd" y2="38.159" gradientUnits="userSpaceOnUse" x2="50.508" gradientTransform="translate(13.302,4.0031)" y1="43.935" x1="50.508">
   <stop stop-color="#474747" offset="0"/>
   <stop offset="1"/>
  </linearGradient>
  <radialGradient id="bx" gradientUnits="userSpaceOnUse" cy="164.07" cx="126.04" gradientTransform="matrix(.42791 0 0 .42791 46.121 42.612)" r="69.16">
   <stop stop-color="#494949" offset=".0169"/>
   <stop stop-color="#222" offset="0.309"/>
   <stop stop-color="#111" offset=".8876"/>
  </radialGradient>
  <radialGradient id="by" gradientUnits="userSpaceOnUse" cy="154.59" cx="145.6" gradientTransform="matrix(.42791 0 0 .42791 46.121 42.612)" r="36.693">
   <stop stop-color="#aaa" offset=".0169"/>
   <stop stop-color="#444" offset="0.309"/>
   <stop stop-color="#111" offset=".8876"/>
  </radialGradient>
  <radialGradient id="bz" gradientUnits="userSpaceOnUse" cy="141.55" cx="-58.267" gradientTransform="matrix(.42791 0 0 .42791 46.121 42.612)" r="33.405">
   <stop stop-color="#aaa" offset=".0169"/>
   <stop stop-color="#444" offset="0.309"/>
   <stop stop-color="#111" offset=".8876"/>
  </radialGradient>
  <radialGradient id="ca" gradientUnits="userSpaceOnUse" cy="131.72" cx="-35.522" gradientTransform="matrix(.42791 0 0 .42791 46.121 42.612)" r="19.28">
   <stop stop-color="#494949" offset=".0169"/>
   <stop stop-color="#222" offset="0.309"/>
   <stop stop-color="#111" offset=".8876"/>
  </radialGradient>
  <radialGradient id="cb" gradientUnits="userSpaceOnUse" cy="-32.53" cx="30.774" gradientTransform="matrix(.42791 0 0 .42791 46.121 42.612)" r="15.846">
   <stop stop-color="#fff" offset="0"/>
   <stop stop-color="#ccc" offset=".0762"/>
   <stop stop-color="#777" offset=".20910"/>
   <stop stop-color="#555" offset=".26970"/>
   <stop offset="1"/>
  </radialGradient>
  <radialGradient id="cg" gradientUnits="userSpaceOnUse" cy="-36.084" cx="50.997" gradientTransform="matrix(.42791 0 0 .42791 46.121 42.612)" r="11.17">
   <stop stop-color="#fff" offset="0"/>
   <stop stop-color="#ccc" offset=".0556"/>
   <stop stop-color="#777" offset=".1524"/>
   <stop stop-color="#555" offset=".19660"/>
   <stop offset="1"/>
  </radialGradient>
  <radialGradient id="cc" gradientUnits="userSpaceOnUse" cy="-56.351" cx="11.715" gradientTransform="matrix(.42791 0 0 .42791 46.121 42.612)" r="13.292">
   <stop stop-color="#fff" offset="0"/>
   <stop stop-color="#ba7878" offset=".1635"/>
   <stop stop-color="#8d2222" offset=".2753"/>
   <stop stop-color="#7c0000" offset=".3258"/>
   <stop stop-color="#600000" offset="1"/>
  </radialGradient>
  <radialGradient id="cd" gradientUnits="userSpaceOnUse" cy="-21.86" cx="-34.114" gradientTransform="matrix(.42791 0 0 .42791 46.121 42.612)" r="42.539">
   <stop stop-color="#aaa" offset=".0169"/>
   <stop stop-color="#444" offset="0.309"/>
   <stop stop-color="#111" offset=".8876"/>
  </radialGradient>
  <radialGradient id="ce" fx="-9.4612" fy="-52.653" gradientUnits="userSpaceOnUse" cy="-60.838" cx="-12.252" gradientTransform="matrix(.42791 0 0 .42791 46.121 42.612)" r="8.6472">
   <stop stop-color="#aaa" offset=".0169"/>
   <stop stop-color="#444" offset="0.309"/>
   <stop stop-color="#111" offset=".8876"/>
  </radialGradient>
  <radialGradient id="cf" gradientUnits="userSpaceOnUse" cy="-70.752" cx="-22.561" gradientTransform="matrix(.42791 0 0 .42791 46.121 42.612)" r="9.0005">
   <stop stop-color="#aaa" offset=".0169"/>
   <stop stop-color="#444" offset="0.309"/>
   <stop stop-color="#111" offset=".8876"/>
  </radialGradient>
  <radialGradient id="ch" gradientUnits="userSpaceOnUse" cy="-27.638" cx="83.22" gradientTransform="matrix(.42791 0 0 .42791 46.121 42.612)" r="22.667">
   <stop stop-color="#aaa" offset=".0169"/>
   <stop stop-color="#444" offset="0.309"/>
   <stop stop-color="#111" offset=".8876"/>
  </radialGradient>
  <radialGradient id="ci" fx="91.796" fy="-52.82" gradientUnits="userSpaceOnUse" cy="-61.135" cx="94.171" gradientTransform="matrix(.42791 0 0 .42791 46.121 42.612)" r="8.6472">
   <stop stop-color="#aaa" offset=".0169"/>
   <stop stop-color="#444" offset="0.309"/>
   <stop stop-color="#111" offset=".8876"/>
  </radialGradient>
  <radialGradient id="cj" fx="104.11" fy="-72.087" gradientUnits="userSpaceOnUse" cy="-76.52" cx="100.82" gradientTransform="matrix(.42791 0 0 .42791 46.121 42.612)" r="6.1028">
   <stop stop-color="#aaa" offset=".0169"/>
   <stop stop-color="#444" offset="0.309"/>
   <stop stop-color="#111" offset=".8876"/>
  </radialGradient>
  <linearGradient id="de" y2="43.159" gradientUnits="userSpaceOnUse" x2="50.425" gradientTransform="translate(13.302,4.0031)" y1="49.349" x1="50.425">
   <stop stop-color="#fffa7e" offset="0"/>
   <stop stop-color="#fff740" offset="1"/>
  </linearGradient>
  <radialGradient id="ck" gradientUnits="userSpaceOnUse" cy="53.155" cx="-17.531" gradientTransform="matrix(.23775 .12794 -.19058 .35417 52.036 46.729)" r="22.767">
   <stop offset="0"/>
   <stop stop-color="#626262" stop-opacity="0" offset="1"/>
  </radialGradient>
  <radialGradient id="cl" gradientUnits="userSpaceOnUse" cy="78.245" cx="-76.899" gradientTransform="matrix(-.1327 .24821 .25821 .13806 56.669 70.962)" r="22.765">
   <stop offset="0"/>
   <stop stop-opacity="0" offset="1"/>
  </radialGradient>
  <radialGradient id="cm" gradientUnits="userSpaceOnUse" cy="158.75" cx="36.555" gradientTransform="matrix(.42791 0 0 .42791 46.121 42.612)" r="165.36">
   <stop offset=".0506"/>
   <stop stop-color="#040404" offset=".27270"/>
   <stop stop-color="#111" offset=".50950"/>
   <stop stop-color="#262626" offset=".75310"/>
   <stop stop-color="#444" offset="1"/>
  </radialGradient>
  <radialGradient id="cn" gradientUnits="userSpaceOnUse" cy="158.73" cx="36.553" gradientTransform="matrix(.42791 0 0 .42791 46.121 42.612)" r="165.33">
   <stop offset=".0506"/>
   <stop stop-color="#040404" offset=".27270"/>
   <stop stop-color="#111" offset=".50950"/>
   <stop stop-color="#262626" offset=".75310"/>
   <stop stop-color="#444" offset="1"/>
  </radialGradient>
  <radialGradient id="co" gradientUnits="userSpaceOnUse" cy="158.73" cx="36.556" gradientTransform="matrix(.42791 0 0 .42791 46.121 42.612)" r="165.33">
   <stop offset=".0506"/>
   <stop stop-color="#040404" offset=".27270"/>
   <stop stop-color="#111" offset=".50950"/>
   <stop stop-color="#262626" offset=".75310"/>
   <stop stop-color="#444" offset="1"/>
  </radialGradient>
  <radialGradient id="cp" gradientUnits="userSpaceOnUse" cy="158.74" cx="36.556" gradientTransform="matrix(.42791 0 0 .42791 46.121 42.612)" r="165.34">
   <stop offset=".0506"/>
   <stop stop-color="#040404" offset=".27270"/>
   <stop stop-color="#111" offset=".50950"/>
   <stop stop-color="#262626" offset=".75310"/>
   <stop stop-color="#444" offset="1"/>
  </radialGradient>
  <radialGradient id="cq" gradientUnits="userSpaceOnUse" cy="158.73" cx="36.553" gradientTransform="matrix(.42791 0 0 .42791 46.121 42.612)" r="165.35">
   <stop offset=".0506"/>
   <stop stop-color="#040404" offset=".27270"/>
   <stop stop-color="#111" offset=".50950"/>
   <stop stop-color="#262626" offset=".75310"/>
   <stop stop-color="#444" offset="1"/>
  </radialGradient>
  <radialGradient id="cr" gradientUnits="userSpaceOnUse" cy="158.74" cx="36.552" gradientTransform="matrix(.42791 0 0 .42791 46.121 42.612)" r="165.37">
   <stop offset=".0506"/>
   <stop stop-color="#040404" offset=".27270"/>
   <stop stop-color="#111" offset=".50950"/>
   <stop stop-color="#262626" offset=".75310"/>
   <stop stop-color="#444" offset="1"/>
  </radialGradient>
  <radialGradient id="cs" gradientUnits="userSpaceOnUse" cy="158.73" cx="36.558" gradientTransform="matrix(.42791 0 0 .42791 46.121 42.612)" r="165.31">
   <stop offset=".0506"/>
   <stop stop-color="#040404" offset=".27270"/>
   <stop stop-color="#111" offset=".50950"/>
   <stop stop-color="#262626" offset=".75310"/>
   <stop stop-color="#444" offset="1"/>
  </radialGradient>
  <radialGradient id="ct" gradientUnits="userSpaceOnUse" cy="158.73" cx="36.55" gradientTransform="matrix(.42791 0 0 .42791 46.121 42.612)" r="165.35">
   <stop offset=".0506"/>
   <stop stop-color="#040404" offset=".27270"/>
   <stop stop-color="#111" offset=".50950"/>
   <stop stop-color="#262626" offset=".75310"/>
   <stop stop-color="#444" offset="1"/>
  </radialGradient>
  <radialGradient id="cu" gradientUnits="userSpaceOnUse" cy="-37.862" cx="1.8848" gradientTransform="matrix(.42791 0 0 .42791 46.121 42.612)" r="24.092">
   <stop stop-color="#fffa7e" offset="0"/>
   <stop stop-color="#ffe600" offset=".82020"/>
   <stop stop-color="#dea200" offset="1"/>
  </radialGradient>
  <radialGradient id="cv" gradientUnits="userSpaceOnUse" cy="-36.838" cx="1.8848" gradientTransform="matrix(.42791 0 0 .42791 46.121 42.612)" r="21.602">
   <stop stop-color="#fffa7e" offset="0"/>
   <stop stop-color="#bd8a00" offset="1"/>
  </radialGradient>
  <radialGradient id="cw" gradientUnits="userSpaceOnUse" cy="-36.084" cx="80.555" gradientTransform="matrix(.42791 0 0 .42791 46.121 42.612)" r="21.673">
   <stop stop-color="#fffa7e" offset="0"/>
   <stop stop-color="#ffe600" offset=".82020"/>
   <stop stop-color="#dea200" offset="1"/>
  </radialGradient>
  <radialGradient id="cx" gradientUnits="userSpaceOnUse" cy="-35.594" cx="80.555" gradientTransform="matrix(.42791 0 0 .42791 46.121 42.612)" r="19.511">
   <stop stop-color="#fffa7e" offset="0"/>
   <stop stop-color="#dea200" offset="1"/>
  </radialGradient>
  <radialGradient id="cy" xlink:href="#a" gradientUnits="userSpaceOnUse" cy="91.174" cx="1.5898" gradientTransform="matrix(.42791 0 0 .42791 46.121 42.612)" r="108.42"/>
  <linearGradient id="dg" y2="98.519" gradientUnits="userSpaceOnUse" x2="49.412" gradientTransform="translate(13.302,4.0031)" y1="106" x1="49.412">
   <stop stop-opacity="0" offset="0"/>
   <stop stop-opacity=".49804" offset=".13542"/>
   <stop offset="1"/>
  </linearGradient>
  <linearGradient id="be" y2="79.258" gradientUnits="userSpaceOnUse" x2="51.698" gradientTransform="translate(13.302,4.0031)" y1="79.258" x1="35.434">
   <stop stop-color="#ff0606" stop-opacity="0" offset="0"/>
   <stop stop-color="#910000" stop-opacity=".36076" offset=".77083"/>
   <stop offset="1"/>
  </linearGradient>
  <radialGradient id="cz" gradientUnits="userSpaceOnUse" cy="155.74" cx="36.553" gradientTransform="matrix(.42791 0 0 .42791 46.121 42.612)" r="161.06">
   <stop offset=".0506"/>
   <stop stop-color="#040404" offset=".27270"/>
   <stop stop-color="#111" offset=".50950"/>
   <stop stop-color="#262626" offset=".75310"/>
   <stop stop-color="#444" offset="1"/>
  </radialGradient>
  <radialGradient id="da" fx="18.775" fy="36.806" gradientUnits="userSpaceOnUse" cy="48.114" cx="9.7202" gradientTransform="matrix(.4279 0 0 .4279 32.818 38.608)" r="48.696">
   <stop stop-color="#fff" offset="0"/>
   <stop stop-color="#fff" stop-opacity="0" offset=".27083"/>
   <stop stop-opacity="0" offset="1"/>
  </radialGradient>
  <radialGradient id="df" xlink:href="#a" gradientUnits="userSpaceOnUse" cy="82.886" cx="57.453" gradientTransform="matrix(.42791 0 0 .42791 46.121 42.612)" r="145.2"/>
  <linearGradient id="bf" y2="29" gradientUnits="userSpaceOnUse" x2="64.001" gradientTransform="matrix(.27247 0 0 .28636 13.768 -1.4739)" y1="113" x1="64.001">
   <stop stop-color="#37a42c" offset="0"/>
   <stop stop-color="#00892c" offset="1"/>
  </linearGradient>
 </defs>
 <g transform="matrix(.38621 0 0 .35866 -3.9329 .49069)">
  <path opacity=".05" stroke-linejoin="round" d="m27.94 109.05-0.126 0.178s0.013-0.015 0.031-0.037c0.002-0.004 0.002-0.004 0.005-0.007 0.022-0.028 0.052-0.07 0.09-0.134l-0.007 0.011c0.002-0.005 0.004-0.006 0.007-0.011z" stroke="#000" stroke-width="8.0002" fill="none"/>
  <path opacity=".1" stroke-linejoin="round" d="m27.94 109.05-0.126 0.178s0.013-0.015 0.031-0.037c0.002-0.004 0.002-0.004 0.005-0.007 0.022-0.028 0.052-0.07 0.09-0.134l-0.007 0.011c0.002-0.005 0.004-0.006 0.007-0.011z" stroke="#000" stroke-width="6.0001" fill="none"/>
  <path opacity=".1" stroke-linejoin="round" d="m109.93 61.454s0.39 1.68-0.74402 1.267c0 0-6.9292-6.0591-11.96-5.1851l0.40001 1.284s3.0811 2.04 4.4121 1.802c0 0 0.83302 0.52201 0.83302 0.99802s2.8281 1.451 3.7081 0.90402c0 0 1.688 0.28601 1.688 1.759 0 0-1.189 0.71302-1.83 0.33301 0 0 1.272 2.033 3.7791-0.47601 1.248-1.249-0.286-2.6861-0.286-2.6861z" stroke="#000" stroke-width="4.0001" fill="none"/>
  <path opacity=".1" stroke-linejoin="round" d="m27.94 109.05-0.126 0.178s0.013-0.015 0.031-0.037c0.002-0.004 0.002-0.004 0.005-0.007 0.022-0.028 0.052-0.07 0.09-0.134l-0.007 0.011c0.002-0.005 0.004-0.006 0.007-0.011z" stroke="#000" stroke-width="4.0001" fill="none"/>
  <path opacity=".1" stroke-linejoin="round" d="m107.98 117.45s-3.5791-6.2171-9.6512-8.8782l-0.1 0.022c0.223-0.051 0.36801-0.085 0.36801-0.085 2.663-11.024-4.135-20.03-4.135-20.03l-0.012 0.037c0.93802-3.6701 1.521-7.5122 1.686-11.43 0.012-0.27301 0.011-0.53901 0.018-0.81102 0.002 0.035 0.005 0.068 0.006 0.103 0.006-0.204 0.002-0.40101 0.006-0.60401 0.008-0.41001 0.015-0.81902 0.014-1.224-0.001-0.047 0.002-0.096 0.002-0.144 0 0.039-0.003 0.079-0.003 0.118 0-0.014-0.001-0.027-0.001-0.041-0.001-0.28701-0.01-0.56901-0.016-0.85402-0.01-0.42801-0.02-0.85402-0.04-1.276-0.013-0.27301-0.031-0.54401-0.049-0.81502-0.026-0.42401-0.055-0.84702-0.092-1.264-0.023-0.26101-0.053-0.51801-0.08-0.77502-0.044-0.41901-0.09-0.83702-0.145-1.248-0.033-0.252-0.072-0.49901-0.11-0.74702-0.061-0.41001-0.123-0.81902-0.195-1.222-0.043-0.241-0.092-0.47901-0.138-0.71702-0.079-0.40201-0.158-0.80502-0.247-1.2-0.052-0.23-0.109-0.45601-0.165-0.68502-0.095-0.39301-0.19-0.78502-0.29601-1.171-0.062-0.224-0.129-0.44201-0.193-0.66402-0.111-0.38101-0.223-0.76202-0.34401-1.135-0.069-0.216-0.146-0.42701-0.219-0.64001-0.127-0.37001-0.25401-0.73902-0.39101-1.102-0.079-0.208-0.163-0.41001-0.245-0.61501-0.142-0.35701-0.28401-0.71502-0.43601-1.064-0.088-0.201-0.181-0.39701-0.27101-0.59601-0.156-0.34401-0.31201-0.68702-0.47901-1.022-0.096-0.195-0.198-0.38501-0.29801-0.57701-0.17-0.32901-0.34001-0.65902-0.51901-0.97902-0.105-0.188-0.216-0.37101-0.32401-0.55601-0.173-0.29601-0.34301-0.59401-0.52301-0.88302l0.008 0.006c2.6171 1.096 3.9121 3.9131 4.7371 4.7361 0.82302 0.82402 2.6611 0.88802 2.6611 0.88802l-1.205-3.868-2.091-2.092c-3.423-5.833-9.756-6.461-9.756-6.461l0.003 0.011c-0.069-0.063-0.142-0.123-0.212-0.186-0.222-0.197-0.44101-0.39901-0.66802-0.59001 1.368-0.56601 2.226-1.24 2.226-2.042 0-0.27401-0.026-0.56101-0.067-0.85302-0.003-0.019-0.002-0.036-0.005-0.055-0.001 0.002-0.003 0.005-0.004 0.007-0.11-0.74302-0.34401-1.54-0.69002-2.3751 0.242-0.68902 0.63401-1.626 1.027-1.783 0.232-0.093 0.036-0.56401-0.36001-1.121l0.154 0.138v-0.143s0.095-0.38101 0.95102-0.38101c0.85402 0 0.99802-9.5562-1.142-14.929 0 0-0.33801-0.65602-1.157-0.70402l0.39701-0.057c0.42801-1.759 1.71-4.2791 3.0901-5.9911 0.81302-1.009 0.85502-1.748 0.55701-2.237 0.233-0.66702 1.439-4.0391 1.439-4.0391 0.523-0.1907 1.332 0.6173 1.332 0.6173-2.188-4.2311-4.659-0.951-4.659-0.951 0.61701-0.095002 1.235-0.47501 1.663 0.095002 0.42801 0.57101-0.76102 3.6141-0.76102 3.6141-0.99802-0.238-2.092 1.236-2.092 1.236-1.319 1.911-1.854 7.3362-1.897 7.7992-0.75702 0.17-1.466 0.60701-1.43 1.709 0.047 1.474-0.42901 2.7111-0.42901 2.7111l3.4231 6.5611s0 2.3301 0.237 2.9951c0.171 0.47701-0.33901 0.73102-0.64401 0.83902-0.60401-0.58701-1.268-1.061-1.717-1.061l-0.63401 0.50701-0.024 0.048c-0.055-0.073-0.113-0.146-0.169-0.22-0.196-0.25701-0.39601-0.51401-0.60301-0.77002-0.092-0.113-0.187-0.225-0.28001-0.33801-0.184-0.22-0.36901-0.44001-0.56101-0.65902-0.109-0.126-0.221-0.25-0.33301-0.37501-0.186-0.206-0.37301-0.41101-0.56401-0.61501-0.12-0.128-0.241-0.256-0.36401-0.38401-0.194-0.202-0.39201-0.40101-0.59201-0.59901-0.124-0.124-0.24701-0.24801-0.37401-0.37001-0.217-0.21-0.43801-0.41601-0.66102-0.62201-0.113-0.105-0.225-0.212-0.34001-0.31601-0.33801-0.30601-0.68202-0.60701-1.03-0.90102-0.37101 0.214-0.76702 0.41801-1.182 0.61301-0.178 0.083-0.37201 0.158-0.55801 0.238-0.24301 0.104-0.48101 0.211-0.73702 0.30901-0.021 0.008-0.046 0.015-0.067 0.023l0.27901-0.27301s-1.062-1.38 0.58601-4.2971c1.252-2.213-2.4601-0.99302-4.3231 0.55501-0.001 0-0.001-0.001-0.002-0.001-0.002 0.001-0.003 0.003-0.005 0.004-0.40001-0.34001-0.80802-0.66602-1.226-0.96202l-0.012-0.009h-0.001c-0.014-0.01-0.028-0.019-0.043-0.029l0.044 0.028c0-0.82602 1.747-0.49001 1.033-1.204-0.131-0.13-0.258-0.25801-0.38301-0.38301 0.57401-1.344 3.0631-1.773 6.1521-3.0091 3.3271-1.331 4.4701-4.4691 4.8491-5.6101 0.38101-1.141-1.901-2.7571-2.092-0.57001-0.189 2.187-1.332 4.1841-3.1381 5.2301-2.7631 1.057-5.7251 2.7321-6.5311 3.2001-0.156-0.156-0.252-0.25201-0.252-0.25201h-0.44401c0.44401 0.44401-0.44401 1.789-0.44401 1.789l0.146 0.094c-1.664-0.99702-3.3271-1.598-4.5941-1.598-1.334 0-3.1091 0.65901-4.8611 1.754l0.005-0.003s-0.61701-1.56-0.61701-2.6061l-1.542 0.46201c-0.96602-0.55501-3.7781-2.122-6.4021-3.1251-1.807-1.046-2.9471-3.0431-3.1381-5.2301-0.19-2.187-2.4721-0.57101-2.092 0.57001 0.38001 1.142 1.521 4.2791 4.8501 5.6101 2.9681 1.188 5.6691 1.696 6.4231 2.9381v0.96002s1.275 0.36201 1.275 1.275l0.115-0.079c-0.112 0.083-0.222 0.167-0.33301 0.25301l-0.003-0.004-0.031 0.03c-0.27101 0.211-0.53501 0.43101-0.79502 0.66002l-0.004-0.004-0.004 0.004c-1.774-1.631-5.8311-3.0411-4.5311-0.74002 1.575 2.7871 0.67702 4.1671 0.59401 4.2851-0.026-0.011-0.053-0.022-0.08-0.033-0.198-0.084-0.40501-0.165-0.59501-0.25301-0.41401-0.194-0.80902-0.39701-1.179-0.61101-0.58001 0.48901-1.145 0.99802-1.694 1.518-0.038 0.037-0.078 0.072-0.116 0.108-0.52301 0.49901-1.026 1.009-1.513 1.527-0.057 0.061-0.115 0.121-0.172 0.182-0.46901 0.50501-0.91602 1.016-1.342 1.531-0.062 0.074-0.124 0.148-0.185 0.222-0.38001 0.46601-0.74002 0.93402-1.08 1.4l-0.119-0.239-0.63401-0.50701c-0.44901 0-1.114 0.47301-1.717 1.061-0.30501-0.108-0.81502-0.36201-0.64501-0.83902 0.238-0.66601 0.238-2.9961 0.238-2.9961l3.4231-6.5621s-0.47601-1.236-0.42701-2.7101c0.035-1.102-0.67402-1.539-1.431-1.709-0.043-0.46201-0.57801-5.8881-1.897-7.8002 0 0-1.094-1.474-2.093-1.236 0 0-1.188-3.0431-0.76102-3.6141 0.42901-0.57001 1.047-0.19 1.665-0.095002 0 0-2.4731-3.2801-4.6601 0.95102 0 0 0.80802-0.80802 1.331-0.61801 0 0 1.207 3.3701 1.44 4.0381-0.29901 0.49001-0.25701 1.228 0.55601 2.238 1.379 1.712 2.6631 4.2321 3.0911 5.9911l0.39701 0.057c-0.82002 0.048-1.158 0.70402-1.158 0.70402-2.139 5.3731-1.997 14.929-1.141 14.929 0.85602 0 0.95102 0.38101 0.95102 0.38101v0.142l0.154-0.137c-0.39601 0.55701-0.59301 1.026-0.36001 1.12 0.47501 0.19 0.94902 1.516 1.157 2.171-0.238 0.64701-0.40701 1.271-0.49401 1.859 0-0.002-0.002-0.003-0.003-0.005-0.002 0.014-0.001 0.027-0.003 0.042-0.042 0.29701-0.07 0.58801-0.07 0.86702 0 0.80302 0.85802 1.476 2.227 2.042l-0.003 0.003s-5.4731 0.75702-6.9952 2.025c-1.521 1.268-4.1831 5.3251-4.1831 5.3251s-2.282 2.156-2.4091 3.1701l0.72802-0.53401-0.78202 0.78102s-4.7961 0.52901-5.3661 1.859c0 0 0.127 0.149 0.34001 0.34601l-0.013-0.007s-5.2721 0.85102-6.3181 3.3231c0 0-0.238-0.80802-0.57101-1.141 0 0-0.45201 1.783-0.80802 2.139-0.35601 0.35601 0.237 2.9011 2.044 2.6631 0 0-0.80802-2.6631 1.854-3.9471 0 0 1.427 0.144 1.427 1.427 0 0 1.284-1.331 1.284-2.188l3.0161-1.226-0.019-0.01c0.24001 0.056 0.49001 0.095 0.75902 0.095l3.4391-1.299c0.63401 0.25201 3.6761-1.395 4.0581-1.648 0.014-0.009 0.042-0.039 0.078-0.077-0.075 0.158-0.145 0.32001-0.218 0.47901-0.093 0.205-0.189 0.40601-0.27901 0.61401-0.149 0.34501-0.29001 0.69702-0.43001 1.049-0.083 0.21-0.17 0.41701-0.25 0.62901-0.136 0.35901-0.26201 0.72602-0.38801 1.093-0.074 0.215-0.151 0.42901-0.221 0.64601-0.121 0.37301-0.232 0.75202-0.34301 1.133-0.064 0.222-0.132 0.44101-0.193 0.66502-0.105 0.38601-0.201 0.77802-0.29701 1.171-0.055 0.229-0.113 0.45401-0.165 0.68502-0.089 0.39801-0.169 0.80402-0.24901 1.21-0.046 0.233-0.094 0.46501-0.136 0.70102-0.073 0.41001-0.136 0.82602-0.199 1.243-0.036 0.241-0.074 0.48101-0.106 0.72502-0.056 0.42001-0.102 0.84602-0.147 1.272-0.026 0.25001-0.054 0.49801-0.077 0.74902-0.038 0.42901-0.067 0.86302-0.094 1.299-0.017 0.25901-0.035 0.51601-0.047 0.77602-0.021 0.43701-0.032 0.87902-0.041 1.322-0.006 0.26801-0.014 0.53401-0.015 0.80502 0 0.022-0.001 0.044-0.001 0.066 0-0.042-0.002-0.086-0.003-0.128 0 0.052 0.003 0.105 0.003 0.157-0.002 0.41201 0.006 0.82902 0.014 1.246 0.003 0.19 0 0.37601 0.005 0.56701 0.001-0.032 0.004-0.063 0.005-0.096 0.008 0.26901 0.007 0.53301 0.018 0.80402 0.156 3.7131 0.69302 7.3542 1.546 10.849l-0.055-0.197s-5.7031 7.3392-4.7511 13.233c0.76702 4.7581 0.028 6.5621-0.28601 7.0832l0.89802-1.259-0.011 0.017-0.222 1.766c-6.0711 2.6611-9.6502 8.8782-9.6502 8.8782-0.57101 0-0.95102-2.029-0.95102-2.029-0.82402 4.8831 3.8041 3.3601 3.8041 3.3601-1.902-0.69601-0.25301-3.1711-0.25301-3.5501 0-0.382 2.4731 0.12601 2.4731 0.12601 0.95102-3.3591 3.6771-1.965 3.6771-1.965 0.69702-3.2331 2.218-2.219 2.218-2.219l0.37601-2.9191 0.59101 1.969 0.44301-1.269s0.82402 1.269 1.395 1.269c0 0-4.6241-15.427 1.301-18.714l-0.062-0.222c3.1431 10.069 8.9882 18.592 16.211 23.486 0.021 0.016 0.039 0.037 0.06 0.052l0.094 0.052c1.42 0.94902 2.8911 1.762 4.4061 2.415l0.051 0.028c0.026 0.011 0.053 0.021 0.079 0.031 0.32201 0.137 0.64702 0.25901 0.97202 0.38101 0.146 0.055 0.29101 0.116 0.43801 0.168 0.34401 0.12201 0.69202 0.22901 1.04 0.33501 0.135 0.041 0.26901 0.089 0.40501 0.127 0.35501 0.102 0.71402 0.18701 1.073 0.27001 0.131 0.031 0.26101 0.069 0.39301 0.098 0.49001 0.105 0.98202 0.19401 1.478 0.26701 0.119 0.018 0.237 0.009 0.35601-0.011-0.005 0.001-0.01 0.003-0.015 0.004 0.012 0.003 0.027 0.005 0.04 0.007 0.96202 0.139 1.934-1.091 2.9161-1.27 1.006 0.126 2.004 1.414 2.9911 1.27 11.453-1.664 21.387-12.278 26.179-26.118l-0.055 0.181c4.5001 6.1681 0.63601 18.368 0.63601 18.368l1.141-1.143 0.69802 1.458-0.19-2.5341c0.088 0 0.61601-0.11 1.22-0.243l0.42901 2.208s1.521-1.015 2.218 2.219c0 0 2.7271-1.395 3.6781 1.965 0 0 2.4731-0.50801 2.4731-0.12601 0 0.37901 1.647 2.8541-0.25501 3.5501 0 0 4.6281 1.522 3.8051-3.3601-0.001 0.004-0.381 2.033-0.95202 2.033zm-78.433-11.649 0.012-0.017 0.061 0.201-0.073-0.184zm31.694 13.125c0.051-0.017 0.102-0.029 0.153-0.05-0.052 0.021-0.103 0.033-0.153 0.05zm0.38301-0.15901c0.045-0.023 0.09-0.045 0.135-0.07-0.045 0.025-0.09 0.046-0.135 0.07zm0.40401-0.231c0.025-0.017 0.051-0.032 0.076-0.049-0.025 0.017-0.05 0.033-0.076 0.049zm0.52601-0.33701c0.033-0.021 0.065-0.041 0.098-0.062-0.034 0.021-0.066 0.042-0.098 0.062zm0.36201-0.21201c0.045-0.024 0.09-0.05 0.136-0.072-0.046 0.022-0.091 0.047-0.136 0.072zm0.39301-0.178c0.042-0.015 0.083-0.034 0.125-0.047-0.041 0.013-0.083 0.032-0.125 0.047z" stroke="#000" stroke-width="4.0001" fill="none"/>
  <path opacity=".1" stroke-linejoin="round" d="m107.98 117.45s-3.5791-6.2171-9.6512-8.8782l-0.1 0.022c0.223-0.051 0.36801-0.085 0.36801-0.085 2.663-11.024-4.135-20.03-4.135-20.03l-0.012 0.037c0.93802-3.6701 1.521-7.5122 1.686-11.43 0.012-0.27301 0.011-0.53901 0.018-0.81102 0.002 0.035 0.005 0.068 0.006 0.103 0.006-0.204 0.002-0.40101 0.006-0.60401 0.008-0.41001 0.015-0.81902 0.014-1.224-0.001-0.047 0.002-0.096 0.002-0.144 0 0.039-0.003 0.079-0.003 0.118 0-0.014-0.001-0.027-0.001-0.041-0.001-0.28701-0.01-0.56901-0.016-0.85402-0.01-0.42801-0.02-0.85402-0.04-1.276-0.013-0.27301-0.031-0.54401-0.049-0.81502-0.026-0.42401-0.055-0.84702-0.092-1.264-0.023-0.26101-0.053-0.51801-0.08-0.77502-0.044-0.41901-0.09-0.83702-0.145-1.248-0.033-0.252-0.072-0.49901-0.11-0.74702-0.061-0.41001-0.123-0.81902-0.195-1.222-0.043-0.241-0.092-0.47901-0.138-0.71702-0.079-0.40201-0.158-0.80502-0.247-1.2-0.052-0.23-0.109-0.45601-0.165-0.68502-0.095-0.39301-0.19-0.78502-0.29601-1.171-0.062-0.224-0.129-0.44201-0.193-0.66402-0.111-0.38101-0.223-0.76202-0.34401-1.135-0.069-0.216-0.146-0.42701-0.219-0.64001-0.127-0.37001-0.25401-0.73902-0.39101-1.102-0.079-0.208-0.163-0.41001-0.245-0.61501-0.142-0.35701-0.28401-0.71502-0.43601-1.064-0.088-0.201-0.181-0.39701-0.27101-0.59601-0.156-0.34401-0.31201-0.68702-0.47901-1.022-0.096-0.195-0.198-0.38501-0.29801-0.57701-0.17-0.32901-0.34001-0.65902-0.51901-0.97902-0.105-0.188-0.216-0.37101-0.32401-0.55601-0.173-0.29601-0.34301-0.59401-0.52301-0.88302l0.008 0.006c2.6171 1.096 3.9121 3.9131 4.7371 4.7361 0.82302 0.82402 2.6611 0.88802 2.6611 0.88802l-1.205-3.868-2.091-2.092c-3.423-5.833-9.756-6.461-9.756-6.461l0.003 0.011c-0.069-0.063-0.142-0.123-0.212-0.186-0.222-0.197-0.44101-0.39901-0.66802-0.59001 1.368-0.56601 2.226-1.24 2.226-2.042 0-0.27401-0.026-0.56101-0.067-0.85302-0.003-0.019-0.002-0.036-0.005-0.055-0.001 0.002-0.003 0.005-0.004 0.007-0.11-0.74302-0.34401-1.54-0.69002-2.3751 0.242-0.68902 0.63401-1.626 1.027-1.783 0.232-0.093 0.036-0.56401-0.36001-1.121l0.154 0.138v-0.143s0.095-0.38101 0.95102-0.38101c0.85402 0 0.99802-9.5562-1.142-14.929 0 0-0.33801-0.65602-1.157-0.70402l0.39701-0.057c0.42801-1.759 1.71-4.2791 3.0901-5.9911 0.81302-1.009 0.85502-1.748 0.55701-2.237 0.233-0.66702 1.439-4.0391 1.439-4.0391 0.523-0.1907 1.332 0.6173 1.332 0.6173-2.188-4.2311-4.659-0.951-4.659-0.951 0.61701-0.095002 1.235-0.47501 1.663 0.095002 0.42801 0.57101-0.76102 3.6141-0.76102 3.6141-0.99802-0.238-2.092 1.236-2.092 1.236-1.319 1.911-1.854 7.3362-1.897 7.7992-0.75702 0.17-1.466 0.60701-1.43 1.709 0.047 1.474-0.42901 2.7111-0.42901 2.7111l3.4231 6.5611s0 2.3301 0.237 2.9951c0.171 0.47701-0.33901 0.73102-0.64401 0.83902-0.60401-0.58701-1.268-1.061-1.717-1.061l-0.63401 0.50701-0.024 0.048c-0.055-0.073-0.113-0.146-0.169-0.22-0.196-0.25701-0.39601-0.51401-0.60301-0.77002-0.092-0.113-0.187-0.225-0.28001-0.33801-0.184-0.22-0.36901-0.44001-0.56101-0.65902-0.109-0.126-0.221-0.25-0.33301-0.37501-0.186-0.206-0.37301-0.41101-0.56401-0.61501-0.12-0.128-0.241-0.256-0.36401-0.38401-0.194-0.202-0.39201-0.40101-0.59201-0.59901-0.124-0.124-0.24701-0.24801-0.37401-0.37001-0.217-0.21-0.43801-0.41601-0.66102-0.62201-0.113-0.105-0.225-0.212-0.34001-0.31601-0.33801-0.30601-0.68202-0.60701-1.03-0.90102-0.37101 0.214-0.76702 0.41801-1.182 0.61301-0.178 0.083-0.37201 0.158-0.55801 0.238-0.24301 0.104-0.48101 0.211-0.73702 0.30901-0.021 0.008-0.046 0.015-0.067 0.023l0.27901-0.27301s-1.062-1.38 0.58601-4.2971c1.252-2.213-2.4601-0.99302-4.3231 0.55501-0.001 0-0.001-0.001-0.002-0.001-0.002 0.001-0.003 0.003-0.005 0.004-0.40001-0.34001-0.80802-0.66602-1.226-0.96202l-0.012-0.009h-0.001c-0.014-0.01-0.028-0.019-0.043-0.029l0.044 0.028c0-0.82602 1.747-0.49001 1.033-1.204-0.131-0.13-0.258-0.25801-0.38301-0.38301 0.57401-1.344 3.0631-1.773 6.1521-3.0091 3.3271-1.331 4.4701-4.4691 4.8491-5.6101 0.38101-1.141-1.901-2.7571-2.092-0.57001-0.189 2.187-1.332 4.1841-3.1381 5.2301-2.7631 1.057-5.7251 2.7321-6.5311 3.2001-0.156-0.156-0.252-0.25201-0.252-0.25201h-0.44401c0.44401 0.44401-0.44401 1.789-0.44401 1.789l0.146 0.094c-1.664-0.99702-3.3271-1.598-4.5941-1.598-1.334 0-3.1091 0.65901-4.8611 1.754l0.005-0.003s-0.61701-1.56-0.61701-2.6061l-1.542 0.46201c-0.96602-0.55501-3.7781-2.122-6.4021-3.1251-1.807-1.046-2.9471-3.0431-3.1381-5.2301-0.19-2.187-2.4721-0.57101-2.092 0.57001 0.38001 1.142 1.521 4.2791 4.8501 5.6101 2.9681 1.188 5.6691 1.696 6.4231 2.9381v0.96002s1.275 0.36201 1.275 1.275l0.115-0.079c-0.112 0.083-0.222 0.167-0.33301 0.25301l-0.003-0.004-0.031 0.03c-0.27101 0.211-0.53501 0.43101-0.79502 0.66002l-0.004-0.004-0.004 0.004c-1.774-1.631-5.8311-3.0411-4.5311-0.74002 1.575 2.7871 0.67702 4.1671 0.59401 4.2851-0.026-0.011-0.053-0.022-0.08-0.033-0.198-0.084-0.40501-0.165-0.59501-0.25301-0.41401-0.194-0.80902-0.39701-1.179-0.61101-0.58001 0.48901-1.145 0.99802-1.694 1.518-0.038 0.037-0.078 0.072-0.116 0.108-0.52301 0.49901-1.026 1.009-1.513 1.527-0.057 0.061-0.115 0.121-0.172 0.182-0.46901 0.50501-0.91602 1.016-1.342 1.531-0.062 0.074-0.124 0.148-0.185 0.222-0.38001 0.46601-0.74002 0.93402-1.08 1.4l-0.119-0.239-0.63401-0.50701c-0.44901 0-1.114 0.47301-1.717 1.061-0.30501-0.108-0.81502-0.36201-0.64501-0.83902 0.238-0.66601 0.238-2.9961 0.238-2.9961l3.4231-6.5621s-0.47601-1.236-0.42701-2.7101c0.035-1.102-0.67402-1.539-1.431-1.709-0.043-0.46201-0.57801-5.8881-1.897-7.8002 0 0-1.094-1.474-2.093-1.236 0 0-1.188-3.0431-0.76102-3.6141 0.42901-0.57001 1.047-0.19 1.665-0.095002 0 0-2.4731-3.2801-4.6601 0.95102 0 0 0.80802-0.80802 1.331-0.61801 0 0 1.207 3.3701 1.44 4.0381-0.29901 0.49001-0.25701 1.228 0.55601 2.238 1.379 1.712 2.6631 4.2321 3.0911 5.9911l0.39701 0.057c-0.82002 0.048-1.158 0.70402-1.158 0.70402-2.139 5.3731-1.997 14.929-1.141 14.929 0.85602 0 0.95102 0.38101 0.95102 0.38101v0.142l0.154-0.137c-0.39601 0.55701-0.59301 1.026-0.36001 1.12 0.47501 0.19 0.94902 1.516 1.157 2.171-0.238 0.64701-0.40701 1.271-0.49401 1.859 0-0.002-0.002-0.003-0.003-0.005-0.002 0.014-0.001 0.027-0.003 0.042-0.042 0.29701-0.07 0.58801-0.07 0.86702 0 0.80302 0.85802 1.476 2.227 2.042l-0.003 0.003s-5.4731 0.75702-6.9952 2.025c-1.521 1.268-4.1831 5.3251-4.1831 5.3251s-2.282 2.156-2.4091 3.1701l0.72802-0.53401-0.78202 0.78102s-4.7961 0.52901-5.3661 1.859c0 0 0.127 0.149 0.34001 0.34601l-0.013-0.007s-5.2721 0.85102-6.3181 3.3231c0 0-0.238-0.80802-0.57101-1.141 0 0-0.45201 1.783-0.80802 2.139-0.35601 0.35601 0.237 2.9011 2.044 2.6631 0 0-0.80802-2.6631 1.854-3.9471 0 0 1.427 0.144 1.427 1.427 0 0 1.284-1.331 1.284-2.188l3.0161-1.226-0.019-0.01c0.24001 0.056 0.49001 0.095 0.75902 0.095l3.4391-1.299c0.63401 0.25201 3.6761-1.395 4.0581-1.648 0.014-0.009 0.042-0.039 0.078-0.077-0.075 0.158-0.145 0.32001-0.218 0.47901-0.093 0.205-0.189 0.40601-0.27901 0.61401-0.149 0.34501-0.29001 0.69702-0.43001 1.049-0.083 0.21-0.17 0.41701-0.25 0.62901-0.136 0.35901-0.26201 0.72602-0.38801 1.093-0.074 0.215-0.151 0.42901-0.221 0.64601-0.121 0.37301-0.232 0.75202-0.34301 1.133-0.064 0.222-0.132 0.44101-0.193 0.66502-0.105 0.38601-0.201 0.77802-0.29701 1.171-0.055 0.229-0.113 0.45401-0.165 0.68502-0.089 0.39801-0.169 0.80402-0.24901 1.21-0.046 0.233-0.094 0.46501-0.136 0.70102-0.073 0.41001-0.136 0.82602-0.199 1.243-0.036 0.241-0.074 0.48101-0.106 0.72502-0.056 0.42001-0.102 0.84602-0.147 1.272-0.026 0.25001-0.054 0.49801-0.077 0.74902-0.038 0.42901-0.067 0.86302-0.094 1.299-0.017 0.25901-0.035 0.51601-0.047 0.77602-0.021 0.43701-0.032 0.87902-0.041 1.322-0.006 0.26801-0.014 0.53401-0.015 0.80502 0 0.022-0.001 0.044-0.001 0.066 0-0.042-0.002-0.086-0.003-0.128 0 0.052 0.003 0.105 0.003 0.157-0.002 0.41201 0.006 0.82902 0.014 1.246 0.003 0.19 0 0.37601 0.005 0.56701 0.001-0.032 0.004-0.063 0.005-0.096 0.008 0.26901 0.007 0.53301 0.018 0.80402 0.156 3.7131 0.69302 7.3542 1.546 10.849l-0.055-0.197s-5.7031 7.3392-4.7511 13.233c0.76702 4.7581 0.028 6.5621-0.28601 7.0832l0.89802-1.259-0.011 0.017-0.222 1.766c-6.0711 2.6611-9.6502 8.8782-9.6502 8.8782-0.57101 0-0.95102-2.029-0.95102-2.029-0.82402 4.8831 3.8041 3.3601 3.8041 3.3601-1.902-0.69601-0.25301-3.1711-0.25301-3.5501 0-0.382 2.4731 0.12601 2.4731 0.12601 0.95102-3.3591 3.6771-1.965 3.6771-1.965 0.69702-3.2331 2.218-2.219 2.218-2.219l0.37601-2.9191 0.59101 1.969 0.44301-1.269s0.82402 1.269 1.395 1.269c0 0-4.6241-15.427 1.301-18.714l-0.062-0.222c3.1431 10.069 8.9882 18.592 16.211 23.486 0.021 0.016 0.039 0.037 0.06 0.052l0.094 0.052c1.42 0.94902 2.8911 1.762 4.4061 2.415l0.051 0.028c0.026 0.011 0.053 0.021 0.079 0.031 0.32201 0.137 0.64702 0.25901 0.97202 0.38101 0.146 0.055 0.29101 0.116 0.43801 0.168 0.34401 0.12201 0.69202 0.22901 1.04 0.33501 0.135 0.041 0.26901 0.089 0.40501 0.127 0.35501 0.102 0.71402 0.18701 1.073 0.27001 0.131 0.031 0.26101 0.069 0.39301 0.098 0.49001 0.105 0.98202 0.19401 1.478 0.26701 0.119 0.018 0.237 0.009 0.35601-0.011-0.005 0.001-0.01 0.003-0.015 0.004 0.012 0.003 0.027 0.005 0.04 0.007 0.96202 0.139 1.934-1.091 2.9161-1.27 1.006 0.126 2.004 1.414 2.9911 1.27 11.453-1.664 21.387-12.278 26.179-26.118l-0.055 0.181c4.5001 6.1681 0.63601 18.368 0.63601 18.368l1.141-1.143 0.69802 1.458-0.19-2.5341c0.088 0 0.61601-0.11 1.22-0.243l0.42901 2.208s1.521-1.015 2.218 2.219c0 0 2.7271-1.395 3.6781 1.965 0 0 2.4731-0.50801 2.4731-0.12601 0 0.37901 1.647 2.8541-0.25501 3.5501 0 0 4.6281 1.522 3.8051-3.3601-0.001 0.004-0.381 2.033-0.95202 2.033zm-78.433-11.649 0.012-0.017 0.061 0.201-0.073-0.184zm31.694 13.125c0.051-0.017 0.102-0.029 0.153-0.05-0.052 0.021-0.103 0.033-0.153 0.05zm0.38301-0.15901c0.045-0.023 0.09-0.045 0.135-0.07-0.045 0.025-0.09 0.046-0.135 0.07zm0.40401-0.231c0.025-0.017 0.051-0.032 0.076-0.049-0.025 0.017-0.05 0.033-0.076 0.049zm0.52601-0.33701c0.033-0.021 0.065-0.041 0.098-0.062-0.034 0.021-0.066 0.042-0.098 0.062zm0.36201-0.21201c0.045-0.024 0.09-0.05 0.136-0.072-0.046 0.022-0.091 0.047-0.136 0.072zm0.39301-0.178c0.042-0.015 0.083-0.034 0.125-0.047-0.041 0.013-0.083 0.032-0.125 0.047z" stroke="#000" stroke-width="2" fill="none"/>
  <path opacity=".15" stroke-linejoin="round" d="m109.93 61.454s0.39 1.68-0.74402 1.267c0 0-6.9292-6.0591-11.96-5.1851l0.40001 1.284s3.0811 2.04 4.4121 1.802c0 0 0.83302 0.52201 0.83302 0.99802s2.8281 1.451 3.7081 0.90402c0 0 1.688 0.28601 1.688 1.759 0 0-1.189 0.71302-1.83 0.33301 0 0 1.272 2.033 3.7791-0.47601 1.248-1.249-0.286-2.6861-0.286-2.6861z" stroke="#000" stroke-width="2" fill="none"/>
  <path opacity=".15" stroke-linejoin="round" d="m27.94 109.05-0.126 0.178s0.013-0.015 0.031-0.037c0.002-0.004 0.002-0.004 0.005-0.007 0.022-0.028 0.052-0.07 0.09-0.134l-0.007 0.011c0.002-0.005 0.004-0.006 0.007-0.011z" stroke="#000" stroke-width="2" fill="none"/>
  <path fill="url(#bg)" d="m109.18 61.721s-6.9292-6.0591-11.96-5.1851l0.40001 1.284s3.0811 2.04 4.4121 1.802c0 0 0.83302 0.52201 0.83302 0.99802s2.8281 1.451 3.7081 0.90402c0 0 1.688 0.28601 1.688 1.759 0 0-1.189 0.71302-1.83 0.33301 0 0 1.272 2.033 3.7791-0.47501 1.248-1.249-0.286-2.6861-0.286-2.6861s0.39 1.678-0.74402 1.266z"/>
  <path fill="url(#bh)" d="m84.719 45.878s6.3331 0.62801 9.7562 6.4611l2.091 2.092 1.205 3.8671s-1.838-0.064-2.6611-0.88802c-0.82502-0.82402-2.12-3.6411-4.7371-4.7361l-4.8631-3.7191-0.79102-3.0771z"/>
  <path fill="url(#bi)" d="m30.919 55.102-0.78202 0.78202s-4.7961 0.52901-5.3661 1.859c0 0 1.188 1.474 2.9961 1.474l3.4391-1.299 1.601-4.5011-1.888 1.685z"/>
  <path fill="url(#bj)" d="m43.778 45.116s-5.4731 0.75702-6.9952 2.025c-1.521 1.268-4.1831 5.3251-4.1831 5.3251s-2.2821 2.156-2.4091 3.1701l1.902-1.395s-1.521 3.4241-0.88802 3.6771c0.63401 0.25201 3.6761-1.395 4.0581-1.648 0.37901-0.25401 8.5152-11.154 8.5152-11.154z"/>
  <path fill="url(#bk)" d="m25.097 58.082s-5.2721 0.85102-6.3181 3.3231c0 0-0.238-0.80802-0.57101-1.141 0 0-0.45201 1.783-0.80802 2.139-0.35601 0.35701 0.237 2.9011 2.044 2.6631 0 0-0.80802-2.6631 1.854-3.9471 0 0 1.427 0.144 1.427 1.427 0 0 1.284-1.331 1.284-2.188l3.0161-1.226-1.928-1.05z"/>
  <path fill="url(#bl)" d="m52.71 30.01s1.063-1.38-0.58501-4.2971c-1.647-2.9161 5.3261 0.127 5.3261 2.029s-0.65801 3.5381-0.65801 3.5381l-2.6391 0.14-1.444-1.41z"/>
  <path fill="url(#bm)" d="m74.491 30.01s-1.062-1.38 0.58601-4.2971c1.649-2.9161-5.3251 0.127-5.3251 2.029s0.65801 3.5381 0.65801 3.5381l2.6391 0.14 1.442-1.41z"/>
  <path fill="url(#bn)" d="m42.236 40.674s-0.63401-2.282-1.268-2.5361c-0.63401-0.25301 1.902-3.2961 3.0431-3.2961l0.63401 0.50701 0.50701 1.014-2.9161 4.3111z"/>
  <path fill="url(#bo)" d="m85.06 40.547s0.63401-2.282 1.268-2.5351c0.63401-0.254-1.902-3.2971-3.0431-3.2971l-0.63401 0.50701-0.50701 1.014 2.9161 4.3111z"/>
  <path fill="url(#bp)" d="m69.18 23.082s3.5181-2.091 6.7511-3.3281c1.806-1.046 2.9481-3.0431 3.1381-5.2301s2.4731-0.57101 2.092 0.57001c-0.37901 1.142-1.521 4.2791-4.8491 5.6101-3.3291 1.332-5.9921 1.712-6.2761 3.3281l-0.85602-0.95002z"/>
  <path fill="url(#db)" d="m52.506 32.893c-1.226 6.3161 3.7181 11.395 11.304 11.395 7.5862 0 12.529-5.0791 11.305-11.395-1.006-5.1901-7.7332-9.9062-11.305-9.9062-3.5721 0-10.297 4.7161-11.304 9.9062z"/>
  <path fill="url(#bq)" d="m31.486 77.078c0.88102 20.923 13.637 39.657 29.182 41.916 1.037 0.15101 2.085-1.293 3.1441-1.293 1.058 0 2.106 1.444 3.1441 1.293 15.544-2.259 28.301-20.992 29.183-41.916 0.99902-23.698-13.448-39.066-32.326-39.066s-33.326 15.368-32.327 39.066z"/>
  <path fill="url(#dc)" d="m96.136 76.223c-0.88202 20.464-13.638 38.786-29.183 40.997-1.037 0.146-2.085-1.265-3.1441-1.265-1.059 0-2.107 1.411-3.1441 1.265-15.544-2.21-28.3-20.533-29.181-40.997-0.027-0.61501-0.041-1.222-0.045-1.823-0.006 0.88102 0.007 1.773 0.045 2.6791 0.88102 20.923 13.637 39.657 29.182 41.916 1.037 0.15101 2.085-1.293 3.1441-1.293 1.058 0 2.106 1.444 3.1441 1.293 15.544-2.259 28.301-20.992 29.183-41.916 0.039-0.90502 0.052-1.798 0.045-2.6791-0.003 0.60101-0.018 1.208-0.045 1.823z"/>
  <path fill="url(#br)" d="m63.811 43.591c17.83 0 31.707 12.768 32.35 32.779 0.683-23.296-13.661-38.358-32.35-38.358-18.688 0-33.032 15.062-32.348 38.358 0.642-20.011 14.517-32.779 32.348-32.779z"/>
  <path fill="url(#bs)" d="m57.491 25.764s1.418 1.915 3.3841 1.598c0 0-2.185 4.9161-6.0841 1.016l2.7001-2.6141z"/>
  <path fill="url(#bt)" d="m68.545 29.454c0.46801 0.214 1.902 0.56401 2.3661-0.052 0.53101-0.70802-0.044-2.6101 0.42901-2.6111-0.58301-0.54201-1.2-1.043-1.83-1.49-0.001 0-1.407 1.935-2.8661 1.935-0.41201 0.031 1.434 2.004 1.901 2.218z"/>
  <path fill="url(#bu)" d="m53.318 30.603 0.83502 0.81602 2.6391-0.14s0.65801-1.635 0.65801-3.5381c0-0.40201-0.31401-0.85502-0.79102-1.292-1.358 1.195-2.5601 2.6201-3.3411 4.1541z"/>
  <path fill="url(#bv)" d="m74.161 30.333c-0.82402-1.509-2.044-2.9051-3.4091-4.0661-0.59301 0.49201-1 1.017-1 1.475 0 1.902 0.65801 3.5381 0.65801 3.5381l2.6391 0.14 1.112-1.087z"/>
  <path fill="url(#bw)" d="m76.756 29.1c-3.0801 1.78-7.7352 2.9141-12.944 2.9141-5.2091 0-9.8642-1.134-12.945-2.9141-5.1881 4.3751-9.3122 10.144-9.3122 13.971 0 4.1071 22.256 4.8681 22.256 4.8681s22.256-0.76102 22.256-4.8681c0-3.8271-4.1221-9.5952-9.3112-13.971z"/>
  <path fill="url(#dd)" d="m63.811 46.228s-20.804-0.64701-22.183-4.0651c-0.046 0.31201-0.074 0.61701-0.074 0.90802 0 4.1071 22.256 4.8681 22.256 4.8681s22.256-0.76102 22.256-4.8681c0-0.29201-0.026-0.59601-0.072-0.90802-1.377 3.4181-22.183 4.0651-22.183 4.0651z"/>
  <path fill="url(#bx)" d="m94.463 88.471s6.7962 9.0062 4.1321 20.036c0 0-3.0121 0.69902-3.2321 0.69902l0.19 2.5341-0.69802-1.458-1.141 1.143s3.8641-12.2-0.63601-18.368l1.385-4.5861z"/>
  <path fill="url(#by)" d="m107.98 117.45s-3.5791-6.2171-9.6512-8.8782l-1.744 0.393 0.42901 2.209s1.521-1.015 2.218 2.219c0 0 2.7271-1.395 3.6781 1.965 0 0 2.4731-0.50801 2.4731-0.126 0 0.37901 1.647 2.8541-0.25501 3.5501 0 0 4.6281 1.522 3.8051-3.3601-0.002-0.001-0.382 2.028-0.95302 2.028z"/>
  <path fill="url(#bz)" d="m18.955 117.45s3.5801-6.2171 9.6502-8.8782l0.222-1.766 0.70602-1.036 0.81702 2.083-0.42801 3.3201s-1.521-1.015-2.218 2.219c0 0-2.7271-1.395-3.6771 1.965 0 0-2.4731-0.50801-2.4731-0.126 0 0.37901-1.648 2.8541 0.253 3.5501 0 0-4.6271 1.522-3.8041-3.3601 0.001 0 0.38101 2.029 0.95202 2.029z"/>
  <path fill="url(#ca)" d="m32.977 87.73s-5.7031 7.3392-4.7511 13.233c0.95002 5.8961-0.41301 7.2602-0.41301 7.2602l1.743-2.4411 1.332 4.4391 0.44301-1.269s0.82402 1.269 1.395 1.269c0 0-4.6241-15.427 1.301-18.714l-1.05-3.7771z"/>
  <path fill="url(#cb)" d="m58.955 24.738s-0.61701-1.56-0.61701-2.6061l-1.902 0.57001v1.617s1.275 0.36201 1.275 1.275l1.244-0.85602z"/>
  <path fill="url(#cg)" d="m68.26 24.491s0.88902-1.345 0.44401-1.789h0.44401l1.395 1.395c0.71402 0.71302-1.033 0.37801-1.033 1.204l-1.25-0.81002z"/>
  <path fill="url(#cc)" d="m57.146 22.797s-3.5191-2.092-6.7521-3.3281c-1.807-1.046-2.9471-3.0431-3.1381-5.2301-0.19-2.187-2.4721-0.57101-2.092 0.57001 0.38001 1.142 1.521 4.2791 4.8501 5.6101 3.3291 1.332 6.3281 1.807 6.6141 3.4241l0.51801-1.046z"/>
  <path fill="url(#cd)" d="m41.174 37.014s-0.095-0.38101-0.95102-0.38101-0.99902-9.5572 1.141-14.929c0 0 0.38001-0.76102 1.332-0.71302 0.95102 0.047 2.235 0.33301 2.188 1.806-0.048 1.474 0.42701 2.7101 0.42701 2.7101l-3.4231 6.5621s0 2.3301-0.238 2.9961c-0.23701 0.66602 0.85602 0.90302 0.85602 0.90302l-1.331 1.188"/>
  <path fill="url(#ce)" d="m41.554 13.287s-1.094-1.474-2.093-1.236c-0.99802 0.238-1.806 1.188-0.42801 2.9001 1.379 1.712 2.6631 4.2321 3.0911 5.9911l1.332 0.19s-0.52401-5.8481-1.902-7.8452z"/>
  <path fill="url(#cf)" d="m40.365 8.3422s-2.4731-3.2801-4.6601 0.95102c0 0 0.80802-0.80802 1.331-0.61801 0 0 1.379 3.8511 1.474 4.1371 0.095 0.28501 0.95002-0.76102 0.95002-0.76102s-1.188-3.0431-0.76102-3.6141c0.43001-0.57001 1.049-0.19 1.666-0.095002z"/>
  <path fill="url(#ch)" d="m86.122 36.887s0.095-0.38101 0.95102-0.38101c0.85402 0 0.99802-9.5562-1.142-14.929 0 0-0.38001-0.76102-1.331-0.71302-0.95102 0.047-2.235 0.33301-2.187 1.806 0.047 1.474-0.42901 2.7111-0.42901 2.7111l3.4231 6.5611s0 2.3301 0.23701 2.9951c0.238 0.66601-0.85502 0.90302-0.85502 0.90302l1.332 1.189"/>
  <path fill="url(#ci)" d="m85.741 13.16s1.094-1.474 2.092-1.236c0.99902 0.238 1.808 1.189 0.42901 2.9001-1.38 1.712-2.6621 4.2321-3.0901 5.9911l-1.332 0.19s0.52201-5.8481 1.901-7.8452z"/>
  <path fill="url(#cj)" d="m86.93 8.2152s2.4721-3.2801 4.6591 0.95102c0 0-0.80902-0.80802-1.332-0.61801 0 0-1.378 3.8521-1.474 4.1371-0.095 0.28501-0.95102-0.76102-0.95102-0.76102s1.188-3.0431 0.76102-3.6141c-0.427-0.57-1.045-0.19-1.663-0.095z"/>
  <path fill="url(#de)" d="m63.811 47.939s-4.9351-0.169-10.157-0.77602c-0.002 0.035-0.007 0.069-0.007 0.105 0 2.4861 4.8141 6.0851 10.048 6.0851 5.2351 0 10.112-3.5361 10.112-6.0221 0-0.051-0.006-0.099-0.009-0.148-5.1581 0.59101-9.9872 0.75602-9.9872 0.75602z"/>
  <path fill="url(#ck)" d="m37.931 57.153c-2.4651 4.2931-2.6071 8.8402-0.31701 10.154 2.289 1.314 6.1441-1.1 8.6092-5.3931 2.4651-4.2921 2.6071-8.8392 0.31801-10.153-2.29-1.315-6.1451 1.1-8.6102 5.3921z"/>
  <path fill="url(#cl)" d="m87.203 57.153c2.4651 4.2931 2.6071 8.8402 0.31801 10.154-2.2901 1.314-6.1451-1.1-8.6092-5.3931-2.4661-4.2921-2.6071-8.8392-0.31701-10.153 2.2891-1.315 6.1431 1.1 8.6082 5.3921z"/>
  <path fill="url(#cm)" d="m42.03 75.003s0.054-0.026 0.153-0.075c0.86702-0.42801 5.1951-2.5681 6.6461-3.2521 1.562-0.73602 2.5921-0.004 4.8511 1.419 0.077 0.05 0.156 0.099 0.23601 0.148h2.188l1.332 2.047s1.664 1.378 1.045 2.5191c0 0 1.332 2.188 0.38001 3.5671 0 0-1.568 6.2741-5.7051 6.2331-0.063 0-0.127-0.002-0.19-0.006-4.2791-0.238-4.4221 0.142-5.1351 0.47701 0 0-1.664-2.4261-2.4251-2.9021-0.76102-0.47401-1.332-0.143-1.332-0.143s-2.4251-1.853-1.045-5.3241l-0.99902-4.7081z"/>
  <path fill="url(#cn)" d="m43.63 65.779-1.395-6.8462c-2.6631-4.5641-6.4671 0.38001-6.4671 0.38001s-1.394 2.4081-2.028 9.3832c-0.63401 6.9732 7.7342 2.026 7.9872 1.141 0.25301-0.88702 1.648-4.0581 1.648-4.0581h0.255z"/>
  <path fill="url(#co)" d="m92.952 69.711s-1.267-9.6372-3.2951-11.54c0 0-6.3031-1.304-6.4671 3.8041-0.127 3.9311 1.9 4.5661 2.5361 5.5781 0.63401 1.015 1.647 4.5651 1.647 5.8331 0.001 0.001 5.1991 1.394 5.5791-3.6751z"/>
  <path fill="url(#cp)" d="m38.051 98.998c-1.268-2.282-0.63401-3.6761-0.76102-4.5641-0.126-0.88702 4.0581-0.254 4.5651-0.75902 0.50701-0.51001 4.6911 0.126 6.9742 5.3231 0 0 1.14 3.5511 1.774 3.9321 0 0 0.50801 5.7051-4.3101 4.1841 0 0-1.395-1.649-2.7901-1.649 0.001-0.001-4.1841-4.1851-5.4521-6.4671z"/>
  <path fill="url(#cq)" d="m78.625 106.73s-3.1691-11.409 7.7352-13.819c0 0 3.5501 0.63501 3.0431 4.1861 0 0-4.1861 5.4511-5.0721 8.1122 0-0.001-2.028 2.6631-5.7061 1.521z"/>
  <path fill="url(#cr)" d="m57.071 105.85s1.395 0.63501 2.4081-0.38201c1.015-1.013-0.25301-2.282-0.25301-2.282s-2.6631-0.63302-2.6631-2.154c0.001-0.001-0.63301 3.0421 0.50801 4.8181z"/>
  <path fill="url(#cs)" d="m68.735 106.1s-2.028-1.521-2.2811-2.282c-0.253-0.76102 3.2961-0.37901 3.8041-1.647 0.50601-1.269 0.76002 3.2941-1.523 3.9291z"/>
  <path fill="url(#ct)" d="m73.174 90.378c-0.88802-0.63501-0.38001-3.2991-2.6621-3.1711-2.2831 0.128 0-0.38001 0-0.38001s-2.156 0.38001-2.156-3.4241c0-3.8031-1.521-5.9591-0.76102-6.4661 0.76102-0.50801 1.141 0.50701 1.521-0.25401 0.38001-0.76102 1.521-5.3251 5.0711-5.3251s2.5371 1.268 4.5651 1.268c2.029 0 3.1701 0.88902 3.8041 3.0431 0.63401 2.157 2.281-0.25301 1.395 6.8482-0.88802 7.1012-4.5651 4.3111-4.5651 4.3111l-1.901 4.5631s-0.63401-4.8161-1.901-3.6771c-1.27 1.141-2.4101 2.6641-2.4101 2.6641z"/>
  <path fill="url(#cu)" d="m44.582 35.835-0.62301 0.91502c-0.001 0-0.001 0.001-0.001 0.001s0.119 2.3051 2.3051 2.3051c0 0 1.359 0.099 1.804-1.804l4.3101-1.44s3.7361-1.626 3.7361-4.6891l-0.004-0.003c-2.022-0.50001-3.8061-1.188-5.2441-2.019-2.4341 2.052-4.6341 4.4121-6.2831 6.7341z"/>
  <path fill="url(#cv)" d="m44.582 36.723c1.649-2.3221 3.4601-4.1391 5.8961-6.1911 1.913 1.105 5.5781 0.88802 5.5781 0.88802 0 0.187-0.015 0.37001-0.041 0.55001 0.063-0.26901 0.099-0.55101 0.099-0.84702l-0.004-0.003c-2.022-0.50001-3.8061-1.188-5.2441-2.019-2.4341 2.053-4.6341 4.4131-6.2841 6.7351l-0.62301 0.91502c-0.001 0-0.001 0.001-0.001 0.001s0.017 0.30001 0.139 0.68302l0.485-0.712z"/>
  <path fill="url(#cw)" d="m76.756 29.1c-1.436 0.83002-3.2201 1.518-5.2381 2.018l-0.004 0.002s1.153 5.2431 8.1902 5.2431c0 0 2.09 5.0981 4.3421 0.99602-1.7-2.7921-4.3191-5.7541-7.2902-8.2592z"/>
  <path fill="url(#cx)" d="m71.906 31.419c2.019-0.50001 3.5081-0.56401 4.9451-1.395 2.9311 2.4721 5.1791 5.1061 6.8702 7.8592 0.107-0.156 0.216-0.32701 0.32401-0.52401-1.699-2.7921-4.3181-5.7541-7.2902-8.2592-1.436 0.83002-3.2201 1.518-5.2381 2.018l-0.004 0.002s0.038 0.165 0.135 0.43301l0.258-0.134z"/>
  <path fill="url(#cy)" d="m44.264 47.141s-12.172 10.651-11.157 26.374c1.014 15.721 2.5361 20.286 5.5791 25.866 3.0431 5.5771 13.519 16.648 17.75 17.242 4.2311 0.59702 4.3111-1.268 5.5791-2.536 1.267-1.268-7.6082-5.5791-14.708-9.1292-7.1012-3.5491-8.8762-8.3672-10.143-14.707-1.268-6.3401-0.50801-12.424-1.775-19.527-1.268-7.0992 6.5921-21.299 9.3822-21.552 2.7901-0.25401-0.50701-2.029-0.50701-2.029z"/>
  <path fill="url(#dg)" d="m69.18 102.94s-4.3761 1.026-11.222-0.34301c-6.8462-1.366 8.9402 17.097 11.222 0.34301z"/>
  <path fill="url(#be)" d="m60.621 47.521s-16.92 62.895-10.383 67.301l4.5521 2.4951c1.899 0.81202 3.8651 1.384 5.8771 1.676 1.037 0.15101 2.085-1.293 3.1441-1.293 0.088 0 0.177 0.014 0.26601 0.031-0.011-0.13601-0.02-0.26801-0.033-0.41201-0.38001-3.9941-0.57001-16.165-0.189-18.067 0.37901-1.901 0.95002-15.975 0.57101-20.921-0.38101-4.9441 0.37901-22.441 0.57001-25.865 0.189-3.4231-4.3751-4.9451-4.3751-4.9451z"/>
  <path fill="url(#cz)" d="m67.258 47.758c-2.068 0.134-3.4461 0.181-3.4461 0.181s-1.433-0.049-3.5711-0.189v2.077s-4.3101 2.9191-4.5641 5.3081c-0.253 2.3881 1.395 4.7771 1.395 4.7771l-0.50701 0.26501 1.521 1.194c1.901 2.6551 5.8321 1.459 5.8321 1.459 3.0431 2.3901 7.8622-1.991 7.8622-1.991 2.4081-3.1851-0.63401-8.8912-0.63401-8.8912-3.6001-2.08-3.9441-3.5701-3.8881-4.1901z"/>
  <circle transform="translate(13.302,4.0031)" cy="59.302" cx="37.619" r="11.792" fill="url(#da)"/>
  <path fill="#fff" d="m63.811 117.7c-0.94202 0-1.877 1.143-2.8031 1.286 0.012 0.003 0.027 0.005 0.04 0.007 0.96702 0.14001 1.943-1.104 2.9301-1.273-0.056-0.008-0.112-0.02-0.167-0.02z"/>
  <path opacity=".3" fill="#fff" d="m61.002 47.521s-0.013 0.046-0.036 0.132c1.058 0.43501 4.1881 1.965 4.0301 4.8121-0.191 3.4231-0.95202 20.92-0.57001 25.865 0.37901 4.9461-0.191 19.02-0.57101 20.921-0.38001 1.902-0.191 14.073 0.189 18.067 0.013 0.137 0.021 0.261 0.031 0.39101 0.04-0.004 0.077-0.01 0.116-0.01 0.089 0 0.177 0.014 0.266 0.031-0.011-0.13601-0.02-0.26801-0.032-0.41201-0.38101-3.9941-0.57101-16.165-0.191-18.067 0.38101-1.901 0.95202-15.975 0.57101-20.921-0.379-4.944 0.381-22.441 0.571-25.865 0.19-3.423-4.374-4.944-4.374-4.944z"/>
  <path opacity=".3" d="m109.93 60.454s0.39 1.679-0.74402 1.267c0 0-6.9292-6.0591-11.96-5.1851l0.40001 1.284s3.0811 2.04 4.4121 1.802c0 0 0.83302 0.52201 0.83302 0.99802s2.8281 1.451 3.7081 0.90402c0 0 1.688 0.28601 1.688 1.759 0 0-1.189 0.71302-1.83 0.33301 0 0 1.272 2.033 3.7791-0.47501 1.248-1.25-0.286-2.6871-0.286-2.6871z"/>
  <path opacity=".3" d="m27.94 108.05-0.126 0.17801c-0.001 0 0.05-0.053 0.126-0.17801z"/>
  <path fill="url(#df)" d="m84.839 47.395s12.553 11.646 10.397 28.656c0 0-2.03 19.778-7.6082 26.627 0 0-8.6212 12.424-16.229 13.185 0 0-4.0581 1.27-5.5791-2.028 0 0-1.267 0.25301 3.8051-1.015 5.0711-1.267 9.8892-3.0411 13.439-8.1132 3.5501-5.0721 6.3401-8.8762 5.5781-11.665-0.76002-2.7901 1.776-14.963 3.8041-20.286 2.029-5.326-4.31-13.949-6.719-14.457s-0.888-10.904-0.888-10.904z"/>
 </g>
 <path fill="url(#bf)" d="m29.06 21.826-8.753-9.164-4.346 4.575 13.099 13.752 17.507-18.324-4.464-4.5841s-9.9572 10.42-13.044 13.745z"/>
</svg>
