<?xml version="1.0" encoding="UTF-8" standalone="no"?>
<!-- Created with Inkscape (http://www.inkscape.org/) -->

<svg
   xmlns:dc="http://purl.org/dc/elements/1.1/"
   xmlns:cc="http://creativecommons.org/ns#"
   xmlns:rdf="http://www.w3.org/1999/02/22-rdf-syntax-ns#"
   xmlns:svg="http://www.w3.org/2000/svg"
   xmlns="http://www.w3.org/2000/svg"
   xmlns:xlink="http://www.w3.org/1999/xlink"
   version="1.1"
   width="26"
   height="26"
   id="svg18970">
  <metadata
     id="metadata18987">
    <rdf:RDF>
      <cc:Work
         rdf:about="">
        <dc:format>image/svg+xml</dc:format>
        <dc:type
           rdf:resource="http://purl.org/dc/dcmitype/StillImage" />
        <dc:title></dc:title>
      </cc:Work>
    </rdf:RDF>
  </metadata>
  <defs
     id="defs18972">
    <mask
       id="w">
      <rect
         width="25.032"
         height="26.091999"
         x="-4.6403999"
         y="-3.7337"
         id="rect3301"
         style="fill:#ffffff;fill-rule:evenodd" />
    </mask>
    <mask
       id="x">
      <rect
         width="25.032"
         height="26.091999"
         x="-4.6403999"
         y="-3.7337"
         id="rect3304"
         style="fill:#ffffff;fill-rule:evenodd" />
    </mask>
    <mask
       id="q">
      <rect
         width="25.032"
         height="26.091999"
         x="-4.6403999"
         y="-3.7337"
         id="rect3307"
         style="fill:#ffffff;fill-rule:evenodd" />
    </mask>
    <mask
       id="v">
      <rect
         width="25.032"
         height="26.091999"
         x="-4.6403999"
         y="-3.7337"
         id="rect3310"
         style="fill:#ffffff;fill-rule:evenodd" />
    </mask>
    <mask
       id="r">
      <rect
         width="25.032"
         height="26.091999"
         x="-4.6403999"
         y="-3.7337"
         id="rect3313"
         style="fill:#ffffff;fill-rule:evenodd" />
    </mask>
    <mask
       id="u">
      <rect
         width="25.032"
         height="26.091999"
         x="-4.6403999"
         y="-3.7337"
         id="rect3316"
         style="fill:#ffffff;fill-rule:evenodd" />
    </mask>
    <mask
       id="s">
      <rect
         width="25.032"
         height="26.091999"
         x="-4.6403999"
         y="-3.7337"
         id="rect3319"
         style="fill:#ffffff;fill-rule:evenodd" />
    </mask>
    <mask
       id="t">
      <rect
         width="25.032"
         height="26.091999"
         x="-4.6403999"
         y="-3.7337"
         id="rect3322"
         style="fill:#ffffff;fill-rule:evenodd" />
    </mask>
  </defs>
  <g
     transform="matrix(0.92021476,-0.39141384,0.39141384,0.92021476,-2.5098229,-9.469619)"
     id="g18103">
    <path
       d="m 14.365778,23.401859 c 0.202438,-4.960549 -1.242615,-6.237163 -5.6595543,-5.884794 4.3461583,1.028691 4.0709493,2.218515 3.7207813,5.66635 l -1.626346,-0.20242 2.198044,3.513613 2.945419,-2.915713 z"
       id="path17320"
       style="fill:#ef2929;fill-opacity:1;stroke:#a40000;stroke-width:1" />
  </g>
  <g
     transform="translate(-1,0)"
     id="g3744">
    <path
       d="M 12,10 A 5,5 0 1 1 2,10 5,5 0 1 1 12,10 z"
       transform="translate(1.5,-1.5)"
       id="path3680"
       style="fill:#fcd40f;fill-opacity:1;stroke:#000000;stroke-opacity:1" />
    <path
       d="m 13.488902,8.4889022 -5.1095923,0 0.1095925,-5 c 0,0 -5.09534,1.1698255 -5,5 3.454097,-0.014719 4.7357278,0 4.7357278,0 L 8.4889022,13.488902 C 12.423077,13.335543 13.708024,9.9574012 13.488902,8.4889022"
       id="path3736"
       style="fill:#000000;stroke:none" />
    <path
       d="m 8.5,1 0,15"
       id="path3676"
       style="fill:none;stroke:#000000;stroke-width:1px;stroke-linecap:butt;stroke-linejoin:miter;stroke-opacity:1" />
    <path
       d="M 16,8.5 1,8.5"
       id="path3678"
       style="fill:none;stroke:#000000;stroke-width:1px;stroke-linecap:butt;stroke-linejoin:miter;stroke-opacity:1" />
    <path
       d="M 7.5,4.625 C 6.0912245,4.9882125 4.9882125,6.0912245 4.625,7.5 l 2.375,0 0.5,0 0,-0.5 0,-2.375 z"
       id="path3733"
       style="font-size:medium;font-style:normal;font-variant:normal;font-weight:normal;font-stretch:normal;text-indent:0;text-align:start;text-decoration:none;line-height:normal;letter-spacing:normal;word-spacing:normal;text-transform:none;direction:ltr;block-progression:tb;writing-mode:lr-tb;text-anchor:start;baseline-shift:baseline;opacity:0.25;color:#000000;fill:none;stroke:#eeeeec;stroke-width:1px;marker:none;visibility:visible;display:inline;overflow:visible;enable-background:accumulate;font-family:Sans;-inkscape-font-specification:Sans" />
    <path
       d="M 12.375,7.5 C 12.011788,6.0912245 10.908776,4.9882125 9.5,4.625 l 0,2.375 0,0.5 0.5,0 2.375,0 z"
       id="path3738"
       style="font-size:medium;font-style:normal;font-variant:normal;font-weight:normal;font-stretch:normal;text-indent:0;text-align:start;text-decoration:none;line-height:normal;letter-spacing:normal;word-spacing:normal;text-transform:none;direction:ltr;block-progression:tb;writing-mode:lr-tb;text-anchor:start;baseline-shift:baseline;opacity:0.25;color:#000000;fill:none;stroke:#eeeeec;stroke-width:1px;marker:none;visibility:visible;display:inline;overflow:visible;enable-background:accumulate;font-family:Sans;-inkscape-font-specification:Sans" />
    <path
       d="m 9.5,12.375 c 1.408776,-0.363212 2.511788,-1.466224 2.875,-2.875 l -2.375,0 -0.5,0 0,0.5 0,2.375 z"
       id="path3740"
       style="font-size:medium;font-style:normal;font-variant:normal;font-weight:normal;font-stretch:normal;text-indent:0;text-align:start;text-decoration:none;line-height:normal;letter-spacing:normal;word-spacing:normal;text-transform:none;direction:ltr;block-progression:tb;writing-mode:lr-tb;text-anchor:start;baseline-shift:baseline;opacity:0.25;color:#000000;fill:none;stroke:#eeeeec;stroke-width:1px;marker:none;visibility:visible;display:inline;overflow:visible;enable-background:accumulate;font-family:Sans;-inkscape-font-specification:Sans" />
    <path
       d="m 4.625,9.5 c 0.363212,1.408776 1.466224,2.511788 2.875,2.875 L 7.5,10 7.5,9.5 7,9.5 4.625,9.5 z"
       id="path3742"
       style="font-size:medium;font-style:normal;font-variant:normal;font-weight:normal;font-stretch:normal;text-indent:0;text-align:start;text-decoration:none;line-height:normal;letter-spacing:normal;word-spacing:normal;text-transform:none;direction:ltr;block-progression:tb;writing-mode:lr-tb;text-anchor:start;baseline-shift:baseline;opacity:0.25;color:#000000;fill:none;stroke:#eeeeec;stroke-width:1px;marker:none;visibility:visible;display:inline;overflow:visible;enable-background:accumulate;font-family:Sans;-inkscape-font-specification:Sans" />
  </g>
  <use
     transform="translate(10,9)"
     id="use3755"
     style="opacity:0.75"
     x="0"
     y="0"
     width="26"
     height="26"
     xlink:href="#g3744" />
</svg>
