<svg id="Слой_1" data-name="Слой 1"
  xmlns:dc="http://purl.org/dc/elements/1.1/"
  xmlns:cc="http://creativecommons.org/ns#"
  xmlns:rdf="http://www.w3.org/1999/02/22-rdf-syntax-ns#"
  xmlns="http://www.w3.org/2000/svg" viewBox="0 0 26 26">
  <metadata id="metadata43">
    <rdf:RDF>
      <cc:Work rdf:about="">
        <cc:license rdf:resource="http://creativecommons.org/licenses/by-sa/4.0/" />
        <dc:format>image/svg+xml</dc:format>
        <dc:type rdf:resource="http://purl.org/dc/dcmitype/StillImage" />
        <dc:title>add_arc</dc:title>
      </cc:Work>
      <cc:License rdf:about="http://creativecommons.org/licenses/by-sa/4.0/">
        <cc:permits rdf:resource="http://creativecommons.org/ns#Reproduction" />
        <cc:permits rdf:resource="http://creativecommons.org/ns#Distribution" />
        <cc:requires rdf:resource="http://creativecommons.org/ns#Notice" />
        <cc:requires rdf:resource="http://creativecommons.org/ns#Attribution" />
        <cc:permits rdf:resource="http://creativecommons.org/ns#DerivativeWorks" />
        <cc:requires rdf:resource="http://creativecommons.org/ns#ShareAlike" />
      </cc:License>
    </rdf:RDF>
  </metadata>
  <defs>
    <style>.cls-1{fill:#b9b9b9;}.cls-2{fill:#1a81c4;}.cls-3{fill:none;stroke:#e61c50;stroke-linecap:round;stroke-linejoin:round;stroke-width:2px;}</style>
  </defs>
  <title>duplicate</title>
  <path class="cls-1" d="M3.6662.9981H14.3327a2.6667,2.6667,0,0,1,2.6667,2.6667V14.3313a2.6668,2.6668,0,0,1-2.6668,2.6668H3.666A2.6666,2.6666,0,0,1,.9994,14.3315V3.6649A2.6668,2.6668,0,0,1,3.6662.9981Z"/>
  <path class="cls-2" d="M11.6667,9.0022H22.3334A2.6667,2.6667,0,0,1,25,11.6689V22.3354a2.6668,2.6668,0,0,1-2.6668,2.6668H11.6669A2.6668,2.6668,0,0,1,9,22.3354V11.6688a2.6666,2.6666,0,0,1,2.6666-2.6666Z"/>
  <polyline class="cls-3" points="10.167 21.546 3.997 21.546 3.997 15.935"/>
  <polyline class="cls-3" points="7.79 19.12 10.216 21.546 7.79 23.973"/>
</svg>