<?xml version="1.0" encoding="UTF-8" standalone="no"?>
<!-- Created with Inkscape (http://www.inkscape.org/) -->

<svg
   xmlns:dc="http://purl.org/dc/elements/1.1/"
   xmlns:cc="http://creativecommons.org/ns#"
   xmlns:rdf="http://www.w3.org/1999/02/22-rdf-syntax-ns#"
   xmlns:svg="http://www.w3.org/2000/svg"
   xmlns="http://www.w3.org/2000/svg"
   xmlns:xlink="http://www.w3.org/1999/xlink"
   xmlns:sodipodi="http://sodipodi.sourceforge.net/DTD/sodipodi-0.dtd"
   xmlns:inkscape="http://www.inkscape.org/namespaces/inkscape"
   version="1.1"
   width="26"
   height="26"
   id="svg8431"
   inkscape:version="0.48.4 r9939"
   sodipodi:docname="duplicate_pad.svg">
  <sodipodi:namedview
     pagecolor="#ffffff"
     bordercolor="#666666"
     borderopacity="1"
     objecttolerance="10"
     gridtolerance="10"
     guidetolerance="10"
     inkscape:pageopacity="0"
     inkscape:pageshadow="2"
     inkscape:window-width="640"
     inkscape:window-height="480"
     id="namedview3013"
     showgrid="false"
     inkscape:zoom="9.0769231"
     inkscape:cx="13"
     inkscape:cy="12.173729"
     inkscape:window-x="0"
     inkscape:window-y="28"
     inkscape:window-maximized="0"
     inkscape:current-layer="svg8431" />
  <metadata
     id="metadata8454">
    <rdf:RDF>
      <cc:Work
         rdf:about="">
        <dc:format>image/svg+xml</dc:format>
        <dc:type
           rdf:resource="http://purl.org/dc/dcmitype/StillImage" />
        <dc:title />
      </cc:Work>
    </rdf:RDF>
  </metadata>
  <defs
     id="defs8433" />
  <path
     d="m 7.0000002,1.4999999 c -3.0387414,0 -5.5000003,2.4612576 -5.5000003,5.4999999 C 1.4999999,10.038741 3.9612588,12.5 7.0000002,12.5 10.038743,12.5 12.5,10.038741 12.5,6.9999998 12.5,3.9612575 10.038743,1.4999999 7.0000002,1.4999999 z m 0,3.0000001 C 8.354733,4.5 9.5,5.6452668 9.5,7 9.5,8.3547332 8.354733,9.5 7.0000002,9.5 5.6452663,9.5 4.5,8.354733 4.5,6.9999998 4.5,5.6452666 5.6452663,4.5 7.0000002,4.5 z"
     id="path3763"
     style="fill:#008000;fill-opacity:0.69803922;stroke:#008000;stroke-width:0.99999994;stroke-linecap:round;stroke-linejoin:round;stroke-miterlimit:4;stroke-opacity:1;stroke-dasharray:none" />
  <use
     transform="translate(12,12)"
     id="use3206"
     style="opacity:0.7"
     x="0"
     y="0"
     width="26"
     height="26"
     xlink:href="#path3763" />
  <path
     d="M 18.334055,9.5305414 C 16.578714,4.886534 14.749271,4.2773887 10.82266,6.330495 c 4.402043,-0.7545299 4.614505,0.4480843 5.641806,3.757893 l -1.575818,0.450305 3.397949,2.372933 1.569168,-3.8359591 z"
     id="path17320"
     style="fill:#ef2929;fill-opacity:1;stroke:#a40000;stroke-width:1" />
</svg>
