<svg xmlns="http://www.w3.org/2000/svg" height="48" width="48" version="1.1" xmlns:xlink="http://www.w3.org/1999/xlink" viewBox="0 0 48 48">
 <defs>
  <linearGradient id="a">
   <stop stop-color="#fff" offset="0"/>
   <stop stop-color="#babaff" offset="1"/>
  </linearGradient>
  <linearGradient id="j" y2="10.441" xlink:href="#a" gradientUnits="userSpaceOnUse" x2="12.136" gradientTransform="matrix(.88741 0 0 1.1269 74.503 29.004)" y1="1.9828" x1="3.4673"/>
  <linearGradient id="b" y2="7.8438" xlink:href="#a" gradientUnits="userSpaceOnUse" x2="12.922" y1="6.0625" x1="11.078"/>
  <linearGradient id="k" y2="14.691" gradientUnits="userSpaceOnUse" x2="30.432" gradientTransform="translate(6.3922,12.185)" y1="12.338" x1="28.079">
   <stop stop-color="#fcaf3e" offset="0"/>
   <stop stop-color="#ce5c00" offset="1"/>
  </linearGradient>
  <linearGradient id="l" y2="22.119" gradientUnits="userSpaceOnUse" x2="22.81" gradientTransform="translate(6.3922,12.185)" y1="21.481" x1="23.448">
   <stop stop-color="#ce5c00" offset="0"/>
   <stop stop-color="#ce5c00" offset="1"/>
  </linearGradient>
  <linearGradient id="m" y2="32.714" gradientUnits="userSpaceOnUse" x2="25.485" y1="34.39" x1="26.379">
   <stop stop-color="#e9b96e" offset="0"/>
   <stop stop-color="#fff" offset="1"/>
  </linearGradient>
  <radialGradient id="p" gradientUnits="userSpaceOnUse" cy="128" cx="-138.84" gradientTransform="matrix(.35473 -.34328 .35696 .34544 130.15 -71.026)" r="9.1267">
   <stop stop-color="#f9a9a9" offset="0"/>
   <stop stop-color="#ab5f5f" offset="1"/>
  </radialGradient>
  <linearGradient id="n" y2="134.25" gradientUnits="userSpaceOnUse" x2="-158.75" gradientTransform="matrix(.20949 -.20274 .20949 .20274 129.28 -31.999)" y1="115.94" x1="-158.75">
   <stop stop-color="#ddd" offset="0"/>
   <stop stop-color="#fff" offset=".34468"/>
   <stop stop-color="#737373" offset=".72695"/>
   <stop stop-color="#bbb" offset="1"/>
  </linearGradient>
  <linearGradient id="o" y2="10.441" xlink:href="#a" gradientUnits="userSpaceOnUse" x2="12.136" gradientTransform="matrix(2.0798,0,0,2.7037,-5.8329,-28.986)" y1="1.9828" x1="3.4673"/>
 </defs>
 <g transform="matrix(2.5619,0,0,2.3244,-189.92,-63.602)">
  <g fill="#9b9b9b" transform="translate(69.497,16.754)">
   <path fill-rule="evenodd" d="m8 13.25v14l10.5-7-10.5-7z"/>
   <rect y="17.25" width="1.9942" x="6.0058" height="1"/>
   <rect y="22.25" width="2" x="6" height="1"/>
   <path d="m14.5 6.5a1.5 1.5 0 1 1 -3 0 1.5 1.5 0 1 1 3 0z" transform="matrix(1.3333 0 0 1.3333 .66664 11.583)"/>
   <rect y="19.75" width="2.4942" x="19.506" height="1"/>
  </g>
  <rect transform="matrix(-1.6632e-7,1,-1,-4.7118e-8,0,0)" height="1" width="1" y="-78.497" x="31.004" fill="#fff"/>
  <path fill-rule="evenodd" d="m76.497 29.004v14l10.5-7-10.5-7z"/>
  <rect y="33.004" width="1" x="75.497" height="1"/>
  <rect y="38.004" width="1" x="75.497" height="1"/>
  <path fill-rule="evenodd" fill="url(#j)" d="m77.503 31.004v10l8-5-8-5z"/>
  <path d="m14.5 6.5a1.5 1.5 0 1 1 -3 0 1.5 1.5 0 1 1 3 0z" transform="matrix(1.3333,0,0,1.3333,69.164,27.337)"/>
  <path fill="url(#b)" d="m13 7a1 1 0 1 1 -2 0 1 1 0 1 1 2 0z" transform="translate(74.497,29.004)"/>
  <rect y="35.504" width="2.4942" x="88.003" height="1"/>
  <path fill-rule="evenodd" fill="#9b9b9b" d="m82.503 28.996v3l1 1h1l1-1v-3h-1v3h-1v-3h-1z"/>
  <path fill-rule="evenodd" d="m79.503 40.996h2.5v1l-1.5 3.0076h-1l1.5-3h-1.5v-1.008z"/>
  <path fill-rule="evenodd" d="m89.003 40.996v1h1.5v0.5l-1.5 1.5v1h2.5v-1h-1.5l1.5-1.5v-1l-0.5-0.50759-2 0.0076z"/>
  <path fill-rule="evenodd" d="m86.003 42.051 0.0076 1.945 0.49241 1h1.5l0.50759-1.055v-2l-0.50759-0.94497h-1.5l-0.5 1.055z"/>
  <path fill-rule="evenodd" fill="#fff" d="m86.503 42.496 0.5-0.5h0.5l0.5 0.5v1l-0.5 0.5h-0.5l-0.5-0.5v-1z"/>
  <path fill-rule="evenodd" d="m82.503 40.996v2.5h2v1.5h1v-4h-1v1.5h-1v-1.5h-1z"/>
  <path fill-rule="evenodd" fill="#9b9b9b" d="m86.503 28.996h2l1 1v1l-1 1h-1v1h-1v-2h2v-1h-2v-1z"/>
 </g>
 <g transform="translate(-28,5)">
  <g transform="matrix(1.1072,0,0,1.0714,74.214,8.4286)">
   <path stroke-linejoin="round" d="m25.892 30.185 19-19c2.175 0.35996 3.0847 1.7322 3.5 3.5l-19 19-4.6161 0.7045 1.1161-4.2045z" fill-rule="evenodd" stroke="url(#l)" fill="url(#k)"/>
   <path opacity=".28235" d="m26.792 30.685 18.498-18.398c1.0897 0.17844 1.5173 0.98794 2 2l-18.398 18.498-3.3 0.9 1.2-3z" stroke="#fff" fill="none"/>
   <path fill-rule="evenodd" fill="url(#m)" d="m24.55 34.633 1.6663-4.1803s1.1995 0.24536 1.9322 0.97509c0.73264 0.72973 0.99839 1.9438 0.99839 1.9438l-4.5969 1.2614z"/>
   <path stroke-linejoin="round" d="m23 21.5-5.5 1.5 2-5" transform="translate(6.3922,12.185)" stroke="#e9b96e" stroke-linecap="round" fill="none"/>
   <path fill-rule="evenodd" d="m23.955 33.685-0.90625 2.25 2.3438-0.65625c0.002-0.03184 0-0.06141 0-0.09375 0-0.80212-0.64531-1.4598-1.4375-1.5z"/>
  </g>
  <path style="enable-background:new" d="m121.62 22.515c2.0307-0.53628 4.3014 1.7694 3.8196 3.6963l2.4306-2.3522c1.1808-2.6427-1.2536-4.7247-3.8692-3.7443l-2.381 2.4002z" stroke="#ef2929" stroke-width="1.0891" fill="url(#p)"/>
  <path style="enable-background:new" d="m119.12 24.769c2.144-0.56623 4.5413 1.8683 4.0326 3.9028l2.5662-2.4836c0.8353-1.7098-2.2637-4.6473-4.085-3.9535l-2.52 2.535z" stroke="#888a85" stroke-width="1.0891" fill="url(#n)"/>
 </g>
 <g transform="matrix(1.08,0,0,1,59.48,4.8)">
  <g fill="#9b9b9b" transform="matrix(2.3437,0,0,2.3993,-17.565,-58.377)">
   <path fill-rule="evenodd" d="m8 13.25v14l10.5-7-10.5-7z"/>
   <rect y="17.25" width="1.9942" x="6.0058" height="1"/>
   <rect y="22.25" width="2" x="6" height="1"/>
   <path d="m14.5 6.5a1.5 1.5 0 1 1 -3 0 1.5 1.5 0 1 1 3 0z" transform="matrix(1.3333 0 0 1.3333 .66664 11.583)"/>
   <rect y="19.75" width="2.4942" x="19.506" height="1"/>
  </g>
  <rect transform="matrix(-1.6246e-7,1,-1,-4.8237e-8,0,0)" height="2.3437" width="2.3993" y="-3.5282" x="-24.187" fill="#fff"/>
  <path fill-rule="evenodd" d="m-1.1592-28.986v33.591l24.608-16.795-24.608-16.796z"/>
  <rect y="-19.388" width="2.3437" x="-3.5029" height="2.3993"/>
  <rect y="-7.3916" width="2.3437" x="-3.5029" height="2.3993"/>
  <path fill-rule="evenodd" fill="url(#o)" d="m1.1981-24.187v23.993l18.75-11.996-18.75-11.997z"/>
  <path d="m14.5 6.5a1.5 1.5 0 1 1 -3 0 1.5 1.5 0 1 1 3 0z" transform="matrix(3.1249,0,0,3.1991,-18.346,-32.984)"/>
  <path fill="url(#b)" d="m13 7a1 1 0 1 1 -2 0 1 1 0 1 1 2 0z" transform="matrix(2.3437,0,0,2.3993,-5.8466,-28.986)"/>
  <rect y="-13.39" width="5.8456" x="25.807" height="2.3993"/>
  <path fill-rule="evenodd" d="m12.917-29.004v7.198l2.3437 2.3993h2.3437l2.3437-2.3993v-7.198h-2.3437v7.198h-2.3437v-7.198h-2.344z"/>
  <path fill-rule="evenodd" fill="#9b9b9b" d="m5.8855-0.21176h5.8592v2.3993l-3.5164 7.2162h-2.3437l3.5155-7.198h-3.5155v-2.4175z"/>
  <path fill-rule="evenodd" fill="#9b9b9b" d="m28.151-0.21176v2.3993h3.5155v1.1997l-3.5155 3.599v2.3993h5.8592v-2.3993h-3.5155l3.5155-3.599v-2.3993l-1.1718-1.2179-4.6874 0.01824z"/>
  <path fill-rule="evenodd" fill="#9b9b9b" d="m21.119 2.3196 0.01779 4.6666 1.1541 2.3993h3.5155l1.1896-2.5314v-4.7987l-1.1896-2.2673h-3.5155l-1.1718 2.5314z"/>
  <path fill-rule="evenodd" fill="#fff" d="m22.291 3.3872 1.1718-1.1997h1.1718l1.1718 1.1997v2.3993l-1.172 1.1997h-1.172l-1.174-1.1997v-2.3993z"/>
  <path fill-rule="evenodd" fill="#9b9b9b" d="m12.917-0.21176v5.9983h4.6874v3.599h2.3437v-9.5973h-2.3437v3.599h-2.3437v-3.599h-2.343z"/>
  <path fill-rule="evenodd" d="m22.291-29.004h4.6874l2.3437 2.3993v2.3993l-2.3437 2.3993h-2.3437v2.3993h-2.343v-4.7987h4.6874v-2.3993h-4.687v-2.3993z"/>
 </g>
</svg>
