<svg id="Слой_1" data-name="Слой 1"
  xmlns:dc="http://purl.org/dc/elements/1.1/"
  xmlns:cc="http://creativecommons.org/ns#"
  xmlns:rdf="http://www.w3.org/1999/02/22-rdf-syntax-ns#"
  xmlns="http://www.w3.org/2000/svg" viewBox="0 0 26 26">
  <metadata id="metadata43">
    <rdf:RDF>
      <cc:Work rdf:about="">
        <cc:license rdf:resource="http://creativecommons.org/licenses/by-sa/4.0/" />
        <dc:format>image/svg+xml</dc:format>
        <dc:type rdf:resource="http://purl.org/dc/dcmitype/StillImage" />
        <dc:title>add_arc</dc:title>
      </cc:Work>
      <cc:License rdf:about="http://creativecommons.org/licenses/by-sa/4.0/">
        <cc:permits rdf:resource="http://creativecommons.org/ns#Reproduction" />
        <cc:permits rdf:resource="http://creativecommons.org/ns#Distribution" />
        <cc:requires rdf:resource="http://creativecommons.org/ns#Notice" />
        <cc:requires rdf:resource="http://creativecommons.org/ns#Attribution" />
        <cc:permits rdf:resource="http://creativecommons.org/ns#DerivativeWorks" />
        <cc:requires rdf:resource="http://creativecommons.org/ns#ShareAlike" />
      </cc:License>
    </rdf:RDF>
  </metadata>
  <defs>
    <style>.cls-1{fill:#b9b9b9;}.cls-2{fill:#545454;}.cls-3{fill:#e61c50;}.cls-4{fill:#fff;}</style>
  </defs>
  <title>edit_cmp_symb_links</title>
  <path class="cls-1" d="M4.4971,1H18.4948a3.5,3.5,0,0,1,3.5,3.5v14a3.5,3.5,0,0,1-3.5,3.5H4.497a3.5,3.5,0,0,1-3.5-3.5V4.5a3.5,3.5,0,0,1,3.5-3.5Z"/>
  <path class="cls-2" d="M19.2834,10.8231H17.8477L6.4745,3.3113A.6928.6928,0,0,0,5.3993,3.89V6.663H4.0125a.6934.6934,0,0,0,0,1.3868H5.3993v6.9335H4.0125a.6934.6934,0,0,0,0,1.3867H5.3993v2.7735a.6928.6928,0,0,0,1.0752.5782L17.8477,12.21h1.4357a.6934.6934,0,1,0,0-1.3868ZM6.786,17.8543V5.1788l9.596,6.3378Z"/>
  <path class="cls-2" d="M8.1477,10.13H9.7605a.6934.6934,0,1,0,0-1.3867H8.1477a.6934.6934,0,1,0,0,1.3867Z"/>
  <path class="cls-2" d="M9.7883,12.6683v-.2289a.6934.6934,0,0,0-1.3867,0v.2289H8.1734a.6934.6934,0,1,0,0,1.3867h.2282v.2281a.6934.6934,0,1,0,1.3867,0V14.055h.2281a.6934.6934,0,1,0,0-1.3867Z"/>
  <path class="cls-3" d="M25.0026,18a7.0065,7.0065,0,1,1-7.0066-7A7.0032,7.0032,0,0,1,25.0026,18Z"/>
  <path class="cls-4" d="M22.2344,14.4566l-.5127-.5127a.8176.8176,0,0,0-1.1561,0l-5.3335,5.3337,1.6688,1.6689,5.3335-5.3338A.8176.8176,0,0,0,22.2344,14.4566Z"/>
  <polygon class="cls-4" points="14.58 19.929 14.174 21.983 16.249 21.598 15.433 20.789 14.58 19.929"/>
</svg>