<?xml version="1.0" encoding="UTF-8" standalone="no"?>
<svg
   xmlns:dc="http://purl.org/dc/elements/1.1/"
   xmlns:cc="http://creativecommons.org/ns#"
   xmlns:rdf="http://www.w3.org/1999/02/22-rdf-syntax-ns#"
   xmlns:svg="http://www.w3.org/2000/svg"
   xmlns="http://www.w3.org/2000/svg"
   xmlns:sodipodi="http://sodipodi.sourceforge.net/DTD/sodipodi-0.dtd"
   xmlns:inkscape="http://www.inkscape.org/namespaces/inkscape"
   id="Слой_1"
   data-name="Слой 1"
   viewBox="0 0 24 24"
   version="1.1"
   sodipodi:docname="edit_comp_ref.svg"
   inkscape:version="1.0.1 (3bc2e813f5, 2020-09-07)">
  <sodipodi:namedview
     pagecolor="#ffffff"
     bordercolor="#666666"
     borderopacity="1"
     objecttolerance="10"
     gridtolerance="10"
     guidetolerance="10"
     inkscape:pageopacity="0"
     inkscape:pageshadow="2"
     inkscape:window-width="1761"
     inkscape:window-height="1028"
     id="namedview26"
     showgrid="true"
     inkscape:zoom="19.771793"
     inkscape:cx="13.687403"
     inkscape:cy="17.015158"
     inkscape:window-x="0"
     inkscape:window-y="37"
     inkscape:window-maximized="0"
     inkscape:current-layer="g893"
     inkscape:document-rotation="0">
    <inkscape:grid
       type="xygrid"
       id="grid851"
       spacingx="0.5"
       spacingy="0.5"
       color="#afafff"
       opacity="0.1254902"
       empspacing="2" />
  </sodipodi:namedview>
  <metadata
     id="metadata43">
    <rdf:RDF>
      <cc:Work
         rdf:about="">
        <cc:license
           rdf:resource="http://creativecommons.org/licenses/by-sa/4.0/" />
        <dc:format>image/svg+xml</dc:format>
        <dc:type
           rdf:resource="http://purl.org/dc/dcmitype/StillImage" />
        <dc:title>add_arc</dc:title>
      </cc:Work>
      <cc:License
         rdf:about="http://creativecommons.org/licenses/by-sa/4.0/">
        <cc:permits
           rdf:resource="http://creativecommons.org/ns#Reproduction" />
        <cc:permits
           rdf:resource="http://creativecommons.org/ns#Distribution" />
        <cc:requires
           rdf:resource="http://creativecommons.org/ns#Notice" />
        <cc:requires
           rdf:resource="http://creativecommons.org/ns#Attribution" />
        <cc:permits
           rdf:resource="http://creativecommons.org/ns#DerivativeWorks" />
        <cc:requires
           rdf:resource="http://creativecommons.org/ns#ShareAlike" />
      </cc:License>
    </rdf:RDF>
  </metadata>
  <defs
     id="defs5">
    <style
       id="style3">.cls-1{fill:#b9b9b9;}.cls-2{fill:#545454;}.cls-3{fill:#1a81c4;}.cls-4{fill:#fff;}</style>
  </defs>
  <title
     id="title7">edit_comp_ref</title>
  <g
     id="g893"
     transform="translate(1.614474,5.118756)">
    <path
       class="cls-2"
       d="m 5.5263319,6.336774 h 1.90223 a 0.8178335,0.8178335 0 1 0 0,-1.6356666 h -1.90223 a 0.8178335,0.8178335 0 0 0 0,1.6356666 z"
       id="path13-3"
       style="fill:#545454;stroke-width:1" />
    <path
       class="cls-2"
       d="M 7.4618579,9.330977 V 9.060925 a 0.81783365,0.81783365 0 1 0 -1.6356671,0 V 9.330977 H 5.5570355 a 0.817734,0.817734 0 0 0 0,1.635468 H 5.8261908 V 11.2356 a 0.81783365,0.81783365 0 1 0 1.6356671,0 v -0.269155 h 0.269155 a 0.817734,0.817734 0 1 0 0,-1.635468 z"
       id="path15-6"
       style="fill:#545454;stroke-width:1" />
    <path
       style="fill:#b9b9b9;fill-opacity:1;stroke:#545454;stroke-width:2;stroke-linecap:butt;stroke-linejoin:round;stroke-miterlimit:4;stroke-dasharray:none;stroke-opacity:1"
       d="M 2.3855261,-3.4330418 V 17.195529 L 17.856956,6.881244 Z"
       id="path2231"
       sodipodi:nodetypes="cccc" />
    <path
       style="fill:none;stroke:#545454;stroke-width:1;stroke-linecap:round;stroke-linejoin:miter;stroke-miterlimit:4;stroke-dasharray:none;stroke-opacity:1"
       d="M 4.385526,2.381244 H 7.3389245"
       id="path2229" />
    <path
       style="fill:none;stroke:#545454;stroke-width:2;stroke-linecap:round;stroke-linejoin:round;stroke-miterlimit:4;stroke-dasharray:none;stroke-opacity:1"
       d="m 18.128384,6.881244 h 3.257142"
       id="path2233"
       sodipodi:nodetypes="cc" />
    <path
       style="fill:none;stroke:#545454;stroke-width:2;stroke-linecap:round;stroke-linejoin:round;stroke-miterlimit:4;stroke-dasharray:none;stroke-opacity:1"
       d="m -0.614474,0.881244 h 2.5"
       id="path2235"
       sodipodi:nodetypes="cc" />
    <path
       style="fill:none;stroke:#545454;stroke-width:2;stroke-linecap:round;stroke-linejoin:round;stroke-miterlimit:4;stroke-dasharray:none;stroke-opacity:1"
       d="m -0.614474,12.381244 h 2.5"
       id="path2237"
       sodipodi:nodetypes="cc" />
    <path
       style="fill:none;stroke:#545454;stroke-width:1;stroke-linecap:round;stroke-linejoin:miter;stroke-miterlimit:4;stroke-dasharray:none;stroke-opacity:1"
       d="M 4.385526,10.381244 H 7.3389245"
       id="path2301" />
    <path
       style="fill:none;stroke:#545454;stroke-width:1;stroke-linecap:round;stroke-linejoin:miter;stroke-miterlimit:4;stroke-dasharray:none;stroke-opacity:1"
       d="M 5.8622249,11.857943 V 8.904545"
       id="path2303" />
  </g>
  <rect
     class="cls-3"
     x="7.2643995"
     y="0.050500035"
     width="16.733801"
     height="9.2299004"
     id="rect17" />
  <path
     class="cls-4"
     d="M 12.1494,6.1006 H 9.9531 L 9.5059,7.4141 H 8.5576 l 2.0615,-5.625 h 0.8868 l 2.039,5.625 H 12.5928 Z M 10.2227,5.3164 h 1.6611 L 11.07,2.9131 h -0.0234 z"
     id="path19" />
  <path
     class="cls-4"
     d="m 13.8008,7.4141 v -5.625 h 1.8652 a 2.4254,2.4254 0 0 1 1.457,0.3838 1.3339,1.3339 0 0 1 0.5245,1.1494 1.13,1.13 0 0 1 -0.22,0.6836 1.2954,1.2954 0 0 1 -0.6093,0.4482 1.258,1.258 0 0 1 0.7714,0.4834 1.4257,1.4257 0 0 1 0.27,0.8613 1.447,1.447 0 0 1 -0.5166,1.2041 2.23,2.23 0 0 1 -1.4258,0.4112 z m 0.9365,-3.2569 h 1.0332 a 1.0538,1.0538 0 0 0 0.6875,-0.207 0.7117,0.7117 0 0 0 0.2529,-0.585 0.7307,0.7307 0 0 0 -0.2656,-0.62 1.2682,1.2682 0 0 0 -0.7793,-0.2031 h -0.9287 z m 0,0.6992 v 1.8047 h 1.18 a 1.13,1.13 0 0 0 0.748,-0.2216 0.7985,0.7985 0 0 0 0.2618,-0.6426 1.0064,1.0064 0 0 0 -0.22,-0.6934 0.8721,0.8721 0 0 0 -0.6865,-0.2471 z"
     id="path21" />
  <path
     class="cls-4"
     d="m 22.5547,5.5479 0.0078,0.0234 A 1.7713,1.7713 0 0 1 22.01,6.96 2.1578,2.1578 0 0 1 20.47,7.4951 2.0784,2.0784 0 0 1 18.873,6.833 2.3936,2.3936 0 0 1 18.2578,5.1387 v -1.07 a 2.4172,2.4172 0 0 1 0.6074,-1.6944 2.0354,2.0354 0 0 1 1.5782,-0.667 2.2305,2.2305 0 0 1 1.5664,0.5244 1.7674,1.7674 0 0 1 0.5566,1.4083 L 22.5586,3.6625 H 21.6533 A 1.2232,1.2232 0 0 0 21.3467,2.7777 1.2008,1.2008 0 0 0 20.4434,2.4613 1.074,1.074 0 0 0 19.5322,2.9164 1.8634,1.8634 0 0 0 19.1943,4.059 v 1.0767 a 1.8533,1.8533 0 0 0 0.3448,1.15 1.1087,1.1087 0 0 0 0.9306,0.4561 1.17,1.17 0 0 0 0.8828,-0.3125 1.22,1.22 0 0 0 0.3008,-0.8818 z"
     id="path23" />
</svg>
