<?xml version="1.0" encoding="UTF-8" standalone="no"?>
<svg
   xmlns:dc="http://purl.org/dc/elements/1.1/"
   xmlns:cc="http://creativecommons.org/ns#"
   xmlns:rdf="http://www.w3.org/1999/02/22-rdf-syntax-ns#"
   xmlns:svg="http://www.w3.org/2000/svg"
   xmlns="http://www.w3.org/2000/svg"
   xmlns:xlink="http://www.w3.org/1999/xlink"
   xmlns:sodipodi="http://sodipodi.sourceforge.net/DTD/sodipodi-0.dtd"
   xmlns:inkscape="http://www.inkscape.org/namespaces/inkscape"
   height="48"
   width="48"
   version="1.1"
   viewBox="0 0 48 48"
   id="svg2"
   inkscape:version="0.48.2 r9819"
   sodipodi:docname="edit_module.svg">
  <metadata
     id="metadata146">
    <rdf:RDF>
      <cc:Work
         rdf:about="">
        <dc:format>image/svg+xml</dc:format>
        <dc:type
           rdf:resource="http://purl.org/dc/dcmitype/StillImage" />
      </cc:Work>
    </rdf:RDF>
  </metadata>
  <sodipodi:namedview
     pagecolor="#ffffff"
     bordercolor="#666666"
     borderopacity="1"
     objecttolerance="10"
     gridtolerance="10"
     guidetolerance="10"
     inkscape:pageopacity="0"
     inkscape:pageshadow="2"
     inkscape:window-width="1280"
     inkscape:window-height="977"
     id="namedview144"
     showgrid="false"
     inkscape:zoom="15.4375"
     inkscape:cx="26.426936"
     inkscape:cy="24.509046"
     inkscape:window-x="-4"
     inkscape:window-y="-4"
     inkscape:window-maximized="1"
     inkscape:current-layer="g80" />
  <defs
     id="defs4">
    <linearGradient
       id="i"
       y2="14.691"
       gradientUnits="userSpaceOnUse"
       x2="30.432"
       gradientTransform="translate(6.3922,12.185)"
       y1="12.338"
       x1="28.079">
      <stop
         stop-color="#fcaf3e"
         offset="0"
         id="stop7" />
      <stop
         stop-color="#ce5c00"
         offset="1"
         id="stop9" />
    </linearGradient>
    <linearGradient
       id="j"
       y2="22.119"
       gradientUnits="userSpaceOnUse"
       x2="22.81"
       gradientTransform="translate(6.3922,12.185)"
       y1="21.481"
       x1="23.448">
      <stop
         stop-color="#ce5c00"
         offset="0"
         id="stop12" />
      <stop
         stop-color="#ce5c00"
         offset="1"
         id="stop14" />
    </linearGradient>
    <linearGradient
       id="k"
       y2="32.714"
       gradientUnits="userSpaceOnUse"
       x2="25.485"
       y1="34.39"
       x1="26.379">
      <stop
         stop-color="#e9b96e"
         offset="0"
         id="stop17" />
      <stop
         stop-color="#fff"
         offset="1"
         id="stop19" />
    </linearGradient>
    <radialGradient
       id="n"
       gradientUnits="userSpaceOnUse"
       cy="128"
       cx="-138.84"
       gradientTransform="matrix(.35473 -.34328 .35696 .34544 130.15 -71.026)"
       r="9.1267">
      <stop
         stop-color="#f9a9a9"
         offset="0"
         id="stop22" />
      <stop
         stop-color="#ab5f5f"
         offset="1"
         id="stop24" />
    </radialGradient>
    <linearGradient
       id="l"
       y2="134.25"
       gradientUnits="userSpaceOnUse"
       x2="-158.75"
       gradientTransform="matrix(.20949 -.20274 .20949 .20274 129.28 -31.999)"
       y1="115.94"
       x1="-158.75">
      <stop
         stop-color="#ddd"
         offset="0"
         id="stop27" />
      <stop
         stop-color="#fff"
         offset=".34468"
         id="stop29" />
      <stop
         stop-color="#737373"
         offset=".72695"
         id="stop31" />
      <stop
         stop-color="#bbb"
         offset="1"
         id="stop33" />
    </linearGradient>
    <linearGradient
       id="o"
       y2="9.2485"
       xlink:href="#m"
       gradientUnits="userSpaceOnUse"
       x2="9.3617"
       gradientTransform="matrix(.88741 0 0 1.1269 1.1058 6.5)"
       y1="2.8702"
       x1="3.4673" />
    <linearGradient
       id="m">
      <stop
         stop-color="#fff"
         offset="0"
         id="stop37" />
      <stop
         stop-color="#ff6900"
         offset="1"
         id="stop39" />
    </linearGradient>
    <linearGradient
       id="p"
       y2="7.8438"
       xlink:href="#m"
       gradientUnits="userSpaceOnUse"
       x2="12.922"
       y1="6.0625"
       x1="11.078" />
    <linearGradient
       inkscape:collect="always"
       xlink:href="#i"
       id="linearGradient3929"
       gradientUnits="userSpaceOnUse"
       gradientTransform="translate(6.3922,12.185)"
       x1="28.079"
       y1="12.338"
       x2="30.432"
       y2="14.691" />
    <linearGradient
       inkscape:collect="always"
       xlink:href="#j"
       id="linearGradient3931"
       gradientUnits="userSpaceOnUse"
       gradientTransform="translate(6.3922,12.185)"
       x1="23.448"
       y1="21.481"
       x2="22.81"
       y2="22.119" />
    <linearGradient
       inkscape:collect="always"
       xlink:href="#k"
       id="linearGradient3933"
       gradientUnits="userSpaceOnUse"
       x1="26.379"
       y1="34.39"
       x2="25.485"
       y2="32.714" />
    <radialGradient
       inkscape:collect="always"
       xlink:href="#n"
       id="radialGradient3935"
       gradientUnits="userSpaceOnUse"
       gradientTransform="matrix(0.35473,-0.34328,0.35696,0.34544,130.15,-71.026)"
       cx="-138.84"
       cy="128"
       r="9.1267" />
    <linearGradient
       inkscape:collect="always"
       xlink:href="#l"
       id="linearGradient3937"
       gradientUnits="userSpaceOnUse"
       gradientTransform="matrix(0.20949,-0.20274,0.20949,0.20274,129.28,-31.999)"
       x1="-158.75"
       y1="115.94"
       x2="-158.75"
       y2="134.25" />
  </defs>
  <g
     style="fill:#bfbfbf;fill-opacity:1;stroke:#000000;stroke-width:0.82698089;stroke-linejoin:round;stroke-miterlimit:4;stroke-opacity:1;stroke-dasharray:none"
     id="g44"
     transform="matrix(-2.8218273,0,0,-2.5891415,-8.3966102,36.67884)">
    <rect
       style="fill:#bfbfbf;fill-opacity:1;stroke:#000000;stroke-width:0.82698089;stroke-miterlimit:4;stroke-opacity:1;stroke-dasharray:none"
       id="rect46"
       x="1.904"
       y="3.4905"
       width="9.7086"
       height="14.619"
       transform="matrix(0,1,-1,0,0,0)" />
    <path
       style="fill:#bfbfbf;fill-opacity:1;stroke:#000000;stroke-width:11.56907845;stroke-miterlimit:4;stroke-opacity:1;stroke-dasharray:none"
       inkscape:connector-curvature="0"
       id="path48"
       transform="matrix(0,0.071482,-0.071482,0,41.168,-41.24)"
       d="m 693.26,625.06 a 18.91409,18.91409 0 0 1 -37.828,0.11702" />
  </g>
  <rect
     transform="matrix(0,-1,1,0,0,0)"
     height="7.085608"
     width="12.214534"
     y="29.329809"
     x="-37.894676"
     id="rect52"
     style="fill:#ff0300;stroke:#030303;stroke-width:0.81089454999999999;stroke-linejoin:round;fill-opacity:1" />
  <rect
     transform="matrix(0,-1,1,0,0,0)"
     height="7.085608"
     width="12.214534"
     y="6.8443608"
     x="-37.894676"
     id="rect54"
     style="fill:#ff0000;stroke:#030303;stroke-width:0.81089454999999999;stroke-linejoin:round;fill-opacity:1" />
  <rect
     transform="matrix(0,-1,1,0,0,0)"
     height="7.085608"
     width="12.214534"
     y="18.087086"
     x="-37.894676"
     id="rect58"
     style="fill:#ff0000;stroke:#030303;stroke-width:0.81089454999999999;stroke-linejoin:round;fill-opacity:1" />
  <rect
     transform="matrix(0,-1,1,0,0,0)"
     height="7.085608"
     width="12.214534"
     y="29.329809"
     x="-12.582969"
     id="rect66"
     style="fill:#ff0000;stroke:#030303;stroke-width:0.81089454999999999;stroke-linejoin:round;fill-opacity:1" />
  <rect
     transform="matrix(0,-1,1,0,0,0)"
     height="7.085608"
     width="12.214534"
     y="6.8443608"
     x="-12.582969"
     id="rect68"
     style="fill:#ff0000;stroke:#030303;stroke-width:0.81089454999999999;stroke-linejoin:round;fill-opacity:1" />
  <rect
     transform="matrix(0,-1,1,0,0,0)"
     height="7.085608"
     width="12.214534"
     y="18.087086"
     x="-12.582969"
     id="rect72"
     style="fill:#ff0000;stroke:#030303;stroke-width:0.81089454999999999;stroke-linejoin:round;fill-opacity:1" />
  <g
     transform="matrix(1.2021485,-0.37081007,0.35952768,1.1298079,-102.84788,37.930834)"
     id="g80">
    <g
       transform="matrix(1.1072,0,0,1.0714,65.738791,-0.88918594)"
       id="g82">
      <path
         d="m 25.892,30.185 19,-19 c 2.175,0.35996 3.0847,1.7322 3.5,3.5 l -19,19 -4.6161,0.7045 1.1161,-4.2045 z"
         id="path84"
         style="fill:url(#linearGradient3929);fill-rule:evenodd;stroke:url(#linearGradient3931);stroke-linejoin:round"
         inkscape:connector-curvature="0" />
      <path
         d="M 26.792,30.685 45.29,12.287 c 1.0897,0.17844 1.5173,0.98794 2,2 l -18.398,18.498 -3.3,0.9 1.2,-3 z"
         id="path86"
         inkscape:connector-curvature="0"
         style="opacity:0.28235001;fill:none;stroke:#ffffff" />
      <path
         d="m 24.55,34.633 1.6663,-4.1803 c 0,0 1.1995,0.24536 1.9322,0.97509 0.73264,0.72973 0.99839,1.9438 0.99839,1.9438 l -4.5969,1.2614 z"
         id="path88"
         style="fill:url(#linearGradient3933);fill-rule:evenodd"
         inkscape:connector-curvature="0" />
      <path
         d="m 23,21.5 -5.5,1.5 2,-5"
         transform="translate(6.3922,12.185)"
         id="path90"
         inkscape:connector-curvature="0"
         style="fill:none;stroke:#e9b96e;stroke-linecap:round;stroke-linejoin:round" />
      <path
         d="m 23.955,33.685 -0.90625,2.25 2.3438,-0.65625 c 0.002,-0.03184 0,-0.06141 0,-0.09375 0,-0.80212 -0.64531,-1.4598 -1.4375,-1.5 z"
         id="path92"
         inkscape:connector-curvature="0"
         style="fill-rule:evenodd" />
    </g>
    <path
       style="fill:url(#radialGradient3935);stroke:#ef2929;stroke-width:1.0891;enable-background:new"
       d="m 121.62,22.515 c 2.0307,-0.53628 4.3014,1.7694 3.8196,3.6963 l 2.4306,-2.3522 c 1.1808,-2.6427 -1.2536,-4.7247 -3.8692,-3.7443 l -2.381,2.4002 z"
       id="path94"
       inkscape:connector-curvature="0" />
    <path
       style="fill:url(#linearGradient3937);stroke:#888a85;stroke-width:1.0891;enable-background:new"
       d="m 119.12,24.769 c 2.144,-0.56623 4.5413,1.8683 4.0326,3.9028 l 2.5662,-2.4836 c 0.8353,-1.7098 -2.2637,-4.6473 -4.085,-3.9535 l -2.52,2.535 z"
       id="path96"
       inkscape:connector-curvature="0" />
  </g>
  <g
     transform="matrix(2.0824,0,0,1.88,62.041,17.835)"
     id="g98">
    <g
       fill="#9b9b9b"
       transform="translate(-3.9,-4.75)"
       id="g100">
      <path
         fill-rule="evenodd"
         d="m8 13.25v14l10.5-7-10.5-7z"
         id="path102" />
      <rect
         y="17.25"
         width="1.9942"
         x="6.0058"
         height="1"
         id="rect104" />
      <rect
         y="22.25"
         width="2"
         x="6"
         height="1"
         id="rect106" />
      <path
         d="m14.5 6.5a1.5 1.5 0 1 1 -3 0 1.5 1.5 0 1 1 3 0z"
         transform="matrix(1.3333 0 0 1.3333 .66664 11.583)"
         id="path108" />
      <rect
         y="19.75"
         width="2.4942"
         x="19.506"
         height="1"
         id="rect110" />
    </g>
    <path
       fill-rule="evenodd"
       d="m3.1058 7.5v14l10.5-7-10.5-7z"
       id="path112" />
    <rect
       y="11.5"
       width="1.9942"
       x="1.1058"
       height="1"
       id="rect114" />
    <rect
       y="16.5"
       width="2"
       x="1.1"
       height="1"
       id="rect116" />
    <path
       fill-rule="evenodd"
       fill="url(#o)"
       d="m4.1058 9.5v10l8.0002-5-8.0002-5z"
       id="path118" />
    <path
       d="m14.5 6.5a1.5 1.5 0 1 1 -3 0 1.5 1.5 0 1 1 3 0z"
       transform="matrix(1.3333,0,0,1.3333,-4.2334,5.8333)"
       id="path120" />
    <path
       fill="url(#p)"
       d="m13 7a1 1 0 1 1 -2 0 1 1 0 1 1 2 0z"
       transform="translate(1.1,7.5)"
       id="path122" />
    <rect
       y="14"
       width="2.4942"
       x="14.606"
       height="1"
       id="rect124" />
  </g>
  <g
     transform="matrix(1.1517 -.36083 .34444 1.0994 -49.31 58.054)"
     id="g126">
    <g
       transform="matrix(1.1072,0,0,1.0714,74.214,8.4286)"
       id="g128">
      <path
         stroke-linejoin="round"
         d="m25.892 30.185 19-19c2.175 0.35996 3.0847 1.7322 3.5 3.5l-19 19-4.6161 0.7045 1.1161-4.2045z"
         fill-rule="evenodd"
         stroke="url(#j)"
         fill="url(#i)"
         id="path130" />
      <path
         opacity=".28235"
         d="m26.792 30.685 18.498-18.398c1.0897 0.17844 1.5173 0.98794 2 2l-18.398 18.498-3.3 0.9 1.2-3z"
         stroke="#fff"
         fill="none"
         id="path132" />
      <path
         fill-rule="evenodd"
         fill="url(#k)"
         d="m24.55 34.633 1.6663-4.1803s1.1995 0.24536 1.9322 0.97509c0.73264 0.72973 0.99839 1.9438 0.99839 1.9438l-4.5969 1.2614z"
         id="path134" />
      <path
         stroke-linejoin="round"
         d="m23 21.5-5.5 1.5 2-5"
         transform="translate(6.3922,12.185)"
         stroke="#e9b96e"
         stroke-linecap="round"
         fill="none"
         id="path136" />
      <path
         fill-rule="evenodd"
         d="m23.955 33.685-0.90625 2.25 2.3438-0.65625c0.002-0.03184 0-0.06141 0-0.09375 0-0.80212-0.64531-1.4598-1.4375-1.5z"
         id="path138" />
    </g>
    <path
       style="enable-background:new"
       d="m121.62 22.515c2.0307-0.53628 4.3014 1.7694 3.8196 3.6963l2.4306-2.3522c1.1808-2.6427-1.2536-4.7247-3.8692-3.7443l-2.381 2.4002z"
       stroke="#ef2929"
       stroke-width="1.0891"
       fill="url(#n)"
       id="path140" />
    <path
       style="enable-background:new"
       d="m119.12 24.769c2.144-0.56623 4.5413 1.8683 4.0326 3.9028l2.5662-2.4836c0.8353-1.7098-2.2637-4.6473-4.085-3.9535l-2.52 2.535z"
       stroke="#888a85"
       stroke-width="1.0891"
       fill="url(#l)"
       id="path142" />
  </g>
  <text
     xml:space="preserve"
     style="font-size:12px;font-style:normal;font-weight:bold;line-height:125%;letter-spacing:0px;word-spacing:0px;fill:#000000;fill-opacity:1;stroke:none;font-family:Sans;-inkscape-font-specification:Sans Bold"
     x="7.060729"
     y="22.866398"
     id="text3858"
     sodipodi:linespacing="125%"><tspan
       sodipodi:role="line"
       id="tspan3860"
       x="7.060729"
       y="22.866398">U1</tspan></text>
</svg>
