<?xml version="1.0" encoding="UTF-8" standalone="no"?>
<svg
   xmlns:dc="http://purl.org/dc/elements/1.1/"
   xmlns:cc="http://creativecommons.org/ns#"
   xmlns:rdf="http://www.w3.org/1999/02/22-rdf-syntax-ns#"
   xmlns:svg="http://www.w3.org/2000/svg"
   xmlns="http://www.w3.org/2000/svg"
   xmlns:xlink="http://www.w3.org/1999/xlink"
   xmlns:sodipodi="http://sodipodi.sourceforge.net/DTD/sodipodi-0.dtd"
   xmlns:inkscape="http://www.inkscape.org/namespaces/inkscape"
   height="26"
   width="26"
   version="1.1"
   viewBox="0 0 26 26"
   id="svg3223"
   inkscape:version="0.48.3.1 r9886"
   sodipodi:docname="edit_comp_footprint.svg">
  <metadata
     id="metadata3327">
    <rdf:RDF>
      <cc:Work
         rdf:about="">
        <dc:format>image/svg+xml</dc:format>
        <dc:type
           rdf:resource="http://purl.org/dc/dcmitype/StillImage" />
        <dc:title />
      </cc:Work>
    </rdf:RDF>
  </metadata>
  <sodipodi:namedview
     pagecolor="#ffffff"
     bordercolor="#666666"
     borderopacity="1"
     objecttolerance="10"
     gridtolerance="10"
     guidetolerance="10"
     inkscape:pageopacity="0"
     inkscape:pageshadow="2"
     inkscape:window-width="1600"
     inkscape:window-height="849"
     id="namedview3325"
     showgrid="true"
     inkscape:zoom="2.7289902"
     inkscape:cx="-88.787301"
     inkscape:cy="-14.406475"
     inkscape:window-x="0"
     inkscape:window-y="29"
     inkscape:window-maximized="1"
     inkscape:current-layer="svg3223">
    <inkscape:grid
       type="xygrid"
       id="grid3050"
       empspacing="1"
       visible="true"
       enabled="true"
       snapvisiblegridlinesonly="true" />
  </sodipodi:namedview>
  <defs
     id="defs3225">
    <linearGradient
       id="a">
      <stop
         stop-color="#fff"
         offset="0"
         id="stop3228" />
      <stop
         stop-color="#babaff"
         offset="1"
         id="stop3230" />
    </linearGradient>
    <linearGradient
       id="k"
       y2="14.691"
       gradientUnits="userSpaceOnUse"
       x2="30.431999"
       gradientTransform="translate(6.3922,12.185)"
       y1="12.338"
       x1="28.079">
      <stop
         stop-color="#fcaf3e"
         offset="0"
         id="stop3235" />
      <stop
         stop-color="#ce5c00"
         offset="1"
         id="stop3237" />
    </linearGradient>
    <linearGradient
       id="l"
       y2="22.118999"
       gradientUnits="userSpaceOnUse"
       x2="22.809999"
       gradientTransform="translate(6.3922,12.185)"
       y1="21.481001"
       x1="23.448">
      <stop
         stop-color="#ce5c00"
         offset="0"
         id="stop3240" />
      <stop
         stop-color="#ce5c00"
         offset="1"
         id="stop3242" />
    </linearGradient>
    <linearGradient
       id="m"
       y2="32.714001"
       gradientUnits="userSpaceOnUse"
       x2="25.485001"
       y1="34.389999"
       x1="26.379">
      <stop
         stop-color="#e9b96e"
         offset="0"
         id="stop3245" />
      <stop
         stop-color="#fff"
         offset="1"
         id="stop3247" />
    </linearGradient>
    <radialGradient
       id="o"
       gradientUnits="userSpaceOnUse"
       cy="128"
       cx="-138.84"
       gradientTransform="matrix(0.35473,-0.34328,0.35696,0.34544,130.15,-71.026)"
       r="9.1267004">
      <stop
         stop-color="#f9a9a9"
         offset="0"
         id="stop3250" />
      <stop
         stop-color="#ab5f5f"
         offset="1"
         id="stop3252" />
    </radialGradient>
    <linearGradient
       id="n"
       y2="134.25"
       gradientUnits="userSpaceOnUse"
       x2="-158.75"
       gradientTransform="matrix(0.20949,-0.20274,0.20949,0.20274,129.28,-31.999)"
       y1="115.94"
       x1="-158.75">
      <stop
         stop-color="#ddd"
         offset="0"
         id="stop3255" />
      <stop
         stop-color="#fff"
         offset=".34468"
         id="stop3257" />
      <stop
         stop-color="#737373"
         offset=".72695"
         id="stop3259" />
      <stop
         stop-color="#bbb"
         offset="1"
         id="stop3261" />
    </linearGradient>
    <linearGradient
       inkscape:collect="always"
       xlink:href="#a"
       id="linearGradient3056"
       gradientUnits="userSpaceOnUse"
       gradientTransform="matrix(1.4116646,0,0,1.3833569,-1.2349889,0.23328149)"
       x1="11.078"
       y1="6.0625"
       x2="12.922"
       y2="7.8438001" />
    <linearGradient
       inkscape:collect="always"
       xlink:href="#a"
       id="linearGradient3060"
       gradientUnits="userSpaceOnUse"
       gradientTransform="matrix(1.2527253,0,0,1.5589049,-1.2265189,0.23328149)"
       x1="3.4672999"
       y1="1.9828"
       x2="12.136"
       y2="10.441" />
  </defs>
  <g
     id="g3076">
    <g
       transform="matrix(1.4116646,0,0,1.3833569,-8.2933121,-16.712841)"
       id="g3265"
       style="fill:#9b9b9b">
      <path
         d="m 8,13.25 v 14 l 10.5,-7 -10.5,-7 z"
         id="path3267"
         inkscape:connector-curvature="0"
         style="fill-rule:evenodd" />
      <rect
         y="17.25"
         width="1.9942"
         x="6.0057998"
         height="1"
         id="rect3269" />
      <rect
         y="22.25"
         width="2"
         x="6"
         height="1"
         id="rect3271" />
      <path
         d="m 14.5,6.5 a 1.5,1.5 0 1 1 -3,0 1.5,1.5 0 1 1 3,0 z"
         transform="matrix(1.3333,0,0,1.3333,0.66664,11.583)"
         id="path3273"
         inkscape:connector-curvature="0" />
      <rect
         y="19.75"
         width="2.4942"
         x="19.506001"
         height="1"
         id="rect3275" />
    </g>
    <rect
       transform="matrix(-1.6972342e-7,1,-1,-4.6173156e-8,0,0)"
       height="1.4116645"
       width="1.3833569"
       y="-4.411665"
       x="2.9999998"
       id="rect3277"
       style="fill:#ffffff" />
    <path
       d="M 1.5883403,0.23328149 V 19.600279 L 16.410818,9.9167802 1.5883403,0.23328149 z"
       id="path3279"
       inkscape:connector-curvature="0"
       style="fill-rule:evenodd" />
    <rect
       y="5.7667112"
       width="1.4116645"
       x="0.176678"
       height="1.3833569"
       id="rect3281" />
    <rect
       y="12.683496"
       width="1.4116645"
       x="0.176678"
       height="1.3833569"
       id="rect3283" />
    <path
       d="M 3.0084749,2.9999953 V 16.833565 L 14.301792,9.9167802 3.0084749,2.9999953 z"
       id="path3285"
       style="fill:url(#linearGradient3060);fill-rule:evenodd"
       inkscape:connector-curvature="0" />
    <path
       d="m 18.528104,9.916019 a 2.8232587,2.7666447 0 0 1 -5.646517,0 2.8232587,2.7666447 0 1 1 5.646517,0 z"
       id="path3287"
       inkscape:connector-curvature="0" />
    <path
       d="m 17.116651,9.9167802 a 1.4116646,1.3833569 0 0 1 -2.82333,0 1.4116646,1.3833569 0 1 1 2.82333,0 z"
       id="path3289"
       style="fill:url(#linearGradient3056)"
       inkscape:connector-curvature="0" />
    <rect
       y="9.2251034"
       width="3.5209739"
       x="17.830952"
       height="1.3833569"
       id="rect3291" />
  </g>
  <g
     id="g3072"
     transform="translate(-5.066798,19.777785)">
    <path
       d="M 10.066798,0.22221463 V 4.3722854 l 1.411665,1.3833569 h 1.411664 L 14.301792,4.3722854 V 0.22221463 H 12.890127 V 4.3722854 H 11.478463 V 0.22221463 h -1.411665 z"
       id="path3293"
       inkscape:connector-curvature="0"
       style="fill:#9b9b9b;fill-rule:evenodd" />
    <path
       d="m 15.713456,0.22221463 h 2.82333 L 19.94845,1.6055716 V 2.9889285 L 18.536786,4.3722854 H 17.125121 V 5.7556423 H 15.713456 V 2.9889285 h 2.82333 V 1.6055716 h -2.82333 V 0.22221463 z"
       id="path3305"
       inkscape:connector-curvature="0"
       style="fill:#9b9b9b;fill-rule:evenodd" />
  </g>
  <g
     transform="matrix(0.42892262,0,0,0.64066459,-29.822936,-10.369007)"
     id="g3307">
    <g
       transform="matrix(1.1072,0,0,1.0714,74.214,8.4286)"
       id="g3309">
      <path
         d="m 25.892,30.185 19,-19 c 2.175,0.35996 3.0847,1.7322 3.5,3.5 l -19,19 -4.6161,0.7045 1.1161,-4.2045 z"
         id="path3311"
         style="fill:url(#k);fill-rule:evenodd;stroke:url(#l);stroke-linejoin:round"
         inkscape:connector-curvature="0" />
      <path
         d="M 26.792,30.685 45.29,12.287 c 1.0897,0.17844 1.5173,0.98794 2,2 l -18.398,18.498 -3.3,0.9 1.2,-3 z"
         id="path3313"
         inkscape:connector-curvature="0"
         style="opacity:0.28235001;fill:none;stroke:#ffffff" />
      <path
         d="m 24.55,34.633 1.6663,-4.1803 c 0,0 1.1995,0.24536 1.9322,0.97509 0.73264,0.72973 0.99839,1.9438 0.99839,1.9438 l -4.5969,1.2614 z"
         id="path3315"
         style="fill:url(#m);fill-rule:evenodd"
         inkscape:connector-curvature="0" />
      <path
         d="m 23,21.5 -5.5,1.5 2,-5"
         transform="translate(6.3922,12.185)"
         id="path3317"
         inkscape:connector-curvature="0"
         style="fill:none;stroke:#e9b96e;stroke-linecap:round;stroke-linejoin:round" />
      <path
         d="m 23.955,33.685 -0.90625,2.25 2.3438,-0.65625 c 0.002,-0.03184 0,-0.06141 0,-0.09375 0,-0.80212 -0.64531,-1.4598 -1.4375,-1.5 z"
         id="path3319"
         inkscape:connector-curvature="0"
         style="fill-rule:evenodd" />
    </g>
    <path
       style="fill:url(#o);stroke:#ef2929;stroke-width:1.0891;enable-background:new"
       d="m 121.62,22.515 c 2.0307,-0.53628 4.3014,1.7694 3.8196,3.6963 l 2.4306,-2.3522 c 1.1808,-2.6427 -1.2536,-4.7247 -3.8692,-3.7443 l -2.381,2.4002 z"
       id="path3321"
       inkscape:connector-curvature="0" />
    <path
       style="fill:url(#n);stroke:#888a85;stroke-width:1.0891;enable-background:new"
       d="m 119.12,24.769 c 2.144,-0.56623 4.5413,1.8683 4.0326,3.9028 l 2.5662,-2.4836 c 0.8353,-1.7098 -2.2637,-4.6473 -4.085,-3.9535 l -2.52,2.535 z"
       id="path3323"
       inkscape:connector-curvature="0" />
  </g>
</svg>
