<svg xmlns="http://www.w3.org/2000/svg" height="48" width="48" version="1.1" xmlns:xlink="http://www.w3.org/1999/xlink">
 <defs>
  <linearGradient id="aa" y2="134.25" gradientUnits="userSpaceOnUse" x2="-158.75" gradientTransform="matrix(.18921 -.18923 .18921 .18923 49.739 -37.732)" y1="115.94" x1="-158.75">
   <stop stop-color="#ddd" offset="0"/>
   <stop stop-color="#fff" offset=".34468"/>
   <stop stop-color="#737373" offset=".72695"/>
   <stop stop-color="#bbb" offset="1"/>
  </linearGradient>
  <radialGradient id="af" gradientUnits="userSpaceOnUse" cy="128" cx="-138.84" gradientTransform="matrix(.32039 -.32039 .32241 .32241 50.518 -74.158)" r="9.1267">
   <stop stop-color="#f9a9a9" offset="0"/>
   <stop stop-color="#ab5f5f" offset="1"/>
  </radialGradient>
  <linearGradient id="z" y2="32.714" gradientUnits="userSpaceOnUse" x2="25.485" y1="34.39" x1="26.379">
   <stop stop-color="#e9b96e" offset="0"/>
   <stop stop-color="#fff" offset="1"/>
  </linearGradient>
  <linearGradient id="y" y2="22.119" gradientUnits="userSpaceOnUse" x2="22.81" gradientTransform="translate(6.3922,12.185)" y1="21.481" x1="23.448">
   <stop stop-color="#ce5c00" offset="0"/>
   <stop stop-color="#ce5c00" offset="1"/>
  </linearGradient>
  <linearGradient id="x" y2="14.691" gradientUnits="userSpaceOnUse" x2="30.432" gradientTransform="translate(6.3922,12.185)" y1="12.338" x1="28.079">
   <stop stop-color="#fcaf3e" offset="0"/>
   <stop stop-color="#ce5c00" offset="1"/>
  </linearGradient>
  <linearGradient id="w" y2="18.392" gradientUnits="userSpaceOnUse" x2="32.938" gradientTransform="matrix(1 0 0 .41501 6.5485 26.767)" y1="18.538" x1="18.188">
   <stop offset="0"/>
   <stop stop-opacity="0" offset="1"/>
  </linearGradient>
  <radialGradient id="ab" gradientUnits="userSpaceOnUse" cy="33.188" cx="37.375" gradientTransform="matrix(1 0 0 .2265 0 25.671)" r="14.625">
   <stop offset="0"/>
   <stop stop-opacity="0" offset="1"/>
  </radialGradient>
  <linearGradient id="ag" y2="9.6875" gradientUnits="userSpaceOnUse" x2="-24.75" y1="11.566" x1="-26.754">
   <stop stop-color="#fff" offset="0"/>
   <stop stop-color="#fff" stop-opacity="0" offset="1"/>
  </linearGradient>
  <linearGradient id="ah" y2="14.07" gradientUnits="userSpaceOnUse" x2="-28.789" gradientTransform="matrix(.92231 0 0 .91858 -92.447 61.326)" y1="11.053" x1="-18.589">
   <stop stop-opacity=".41296" offset="0"/>
   <stop stop-opacity="0" offset="1"/>
  </linearGradient>
  <radialGradient id="ad" gradientUnits="userSpaceOnUse" cy="10.108" cx="-26.305" gradientTransform="matrix(.40734 -.27983 .75103 1.0932 -115.18 51.562)" r="7.0421">
   <stop stop-color="#fff" offset="0"/>
   <stop stop-color="#fff" offset=".47534"/>
   <stop stop-color="#fff" stop-opacity="0" offset="1"/>
  </radialGradient>
  <linearGradient id="aj" y2="67.799" gradientUnits="userSpaceOnUse" x2="61.181" gradientTransform="translate(-180)" y1="70.752" x1="58.282">
   <stop offset="0"/>
   <stop stop-opacity="0" offset="1"/>
  </linearGradient>
  <radialGradient id="ac" gradientUnits="userSpaceOnUse" cy="5.3" cx="4" gradientTransform="matrix(1.886,0,0,1.1765,-3.5441,-4.2353)" r="17">
   <stop stop-color="#fff" offset="0"/>
   <stop stop-color="#fff" stop-opacity="0" offset="1"/>
  </radialGradient>
  <linearGradient id="ai" y2="-22.502" gradientUnits="userSpaceOnUse" x2="-62.75" gradientTransform="translate(-90,60)" y1="49.021" x1="-47.5">
   <stop stop-color="#888a85" offset="0"/>
   <stop stop-color="#babdb6" offset="1"/>
  </linearGradient>
  <radialGradient id="ae" gradientUnits="userSpaceOnUse" cy="35.357" cx="-30.25" gradientTransform="matrix(3.9957 0 0 1.935 .62141 28.833)" r="18">
   <stop stop-color="#f6f6f5" offset="0"/>
   <stop stop-color="#d3d7cf" offset="1"/>
  </radialGradient>
  <linearGradient id="t" y2="39.999" gradientUnits="userSpaceOnUse" x2="25.058" y1="47.028" x1="25.058">
   <stop stop-opacity="0" offset="0"/>
   <stop offset=".5"/>
   <stop stop-opacity="0" offset="1"/>
  </linearGradient>
  <radialGradient id="v" xlink:href="#s" gradientUnits="userSpaceOnUse" cy="43.5" cx="4.993" gradientTransform="matrix(2.0038,0,0,1.4,-20.012,-104.4)" r="2.5"/>
  <radialGradient id="u" xlink:href="#s" gradientUnits="userSpaceOnUse" cy="43.5" cx="4.993" gradientTransform="matrix(2.0038,0,0,1.4,27.988,-17.4)" r="2.5"/>
  <linearGradient id="s">
   <stop offset="0"/>
   <stop stop-opacity="0" offset="1"/>
  </linearGradient>
 </defs>
 <g transform="matrix(1.1071,0,0,1.0714,161.79,-67)">
  <rect opacity="0" height="48" width="48" y="60" x="-150"/>
  <g opacity=".65587" transform="matrix(1.0464 0 0 .88889 -151.19 65.722)">
   <g opacity=".4" transform="matrix(1.0526,0,0,1.2857,-1.2632,-13.429)">
    <rect height="7" width="5" y="40" x="38" fill="url(#u)"/>
    <rect transform="scale(-1)" height="7" width="5" y="-47" x="-10" fill="url(#v)"/>
    <rect height="7" width="28" y="40" x="10" fill="url(#t)"/>
   </g>
  </g>
  <g transform="matrix(.95485 0 0 .55556 -148.99 79.889)">
   <g opacity=".4" transform="matrix(1.0526,0,0,1.2857,-1.2632,-13.429)">
    <rect height="7" width="5" y="40" x="38" fill="url(#u)"/>
    <rect transform="scale(-1)" height="7" width="5" y="-47" x="-10" fill="url(#v)"/>
    <rect height="7" width="28" y="40" x="10" fill="url(#t)"/>
   </g>
  </g>
  <path fill="url(#ae)" d="m-141.48 63.5h18.976c3.877 0.07294 6.5 2.5 9 5s4.6077 5.2526 5 9v24.976c0 1.1212-0.90264 2.0239-2.0238 2.0239h-30.952c-1.1212 0-2.0239-0.90264-2.0239-2.0239v-36.96c0-1.1212 0.90264-2.0239 2.0239-2.0239z" stroke="url(#ai)"/>
  <path opacity=".68016" d="m8.5312 4c-0.8581 0-1.5312 0.6731-1.5312 1.5312v36.938c0 0.858 0.6731 1.531 1.5312 1.531h30.938c0.858 0 1.531-0.673 1.531-1.531v-24.969c0-1.392-0.48698-4.2995-2.3438-6.1562l-5-5c-1.857-1.857-4.764-2.344-6.156-2.344h-18.969z" transform="translate(-150,60)" fill="url(#ac)"/>
  <path opacity=".15" d="m-138.59 69.125c-0.21868 0-0.40625 0.18756-0.40625 0.40625 0 0.21868 0.18757 0.40625 0.40625 0.40625h21.188c0.21868 0 0.40625-0.18757 0.40625-0.40625s-0.18757-0.40625-0.40625-0.40625h-21.188zm0.0625 1.9375c-0.25969 0-0.46875 0.20906-0.46875 0.46875s0.20906 0.46875 0.46875 0.46875h22.062c0.25969 0 0.46875-0.20906 0.46875-0.46875s-0.20906-0.46875-0.46875-0.46875h-22.062zm0 2c-0.25969 0-0.46875 0.20906-0.46875 0.46875s0.20906 0.46875 0.46875 0.46875h25.188c0.25969 0 0.46875-0.20906 0.46875-0.46875s-0.20906-0.46875-0.46875-0.46875h-25.188zm0 2c-0.25969 0-0.46875 0.20906-0.46875 0.46875s0.20906 0.46875 0.46875 0.46875h25.188c0.25969 0 0.46875-0.20906 0.46875-0.46875s-0.20906-0.46875-0.46875-0.46875h-25.188zm0 2c-0.25969 0-0.46875 0.20906-0.46875 0.46875s0.20906 0.46875 0.46875 0.46875h25.188c0.25969 0 0.46875-0.20906 0.46875-0.46875s-0.20906-0.46875-0.46875-0.46875h-25.188z" fill-rule="evenodd" fill="url(#aj)"/>
  <path fill="url(#ad)" d="m-122.5 64c-1.3889 0-0.0421 0.49709 1.3438 1.125 1.3858 0.62791 4.9729 3.2151 4.1562 6.875 4.3233-0.43058 6.6791 3.1224 7 4.2812 0.32087 1.1589 1 2.6076 1 1.2188 0.0283-3.8056-2.8454-6.4317-4.8438-8.6562-2-2.225-5.01-4.367-8.66-4.844z"/>
  <path opacity=".87854" fill="url(#ah)" d="m-121.4 65.014c0.9223 0 3.0084 6.1957 2.0861 10.329 4.295-0.42776 8.8534 0.08818 9.313 0.93765-0.32087-1.1589-2.6767-4.7118-7-4.2812 0.86466-3.8752-3.1866-6.6173-4.3991-6.9856z"/>
  <path d="m-51.469 4.5c-0.583 0-1.031 0.4481-1.031 1.0312v36.938c0 0.58316 0.44809 1.0312 1.0312 1.0312h30.938c0.58316 0 1.0312-0.44809 1.0312-1.0312v-24.969c0-1.279-0.48047-4.1055-2.1875-5.8125l-5-5c-1.707-1.7075-4.533-2.188-5.812-2.188h-18.969z" transform="translate(-90,60)" stroke="url(#ag)" fill="none"/>
  <g opacity=".15" fill-rule="evenodd" transform="matrix(.92889 0 0 1 -148.29 60)">
   <rect rx=".50464" ry=".46875" height=".9375" width="28.125" y="19.062" x="10"/>
   <rect rx=".50464" ry=".46875" height=".9375" width="28.125" y="21.062" x="10"/>
   <rect rx=".50464" ry=".46875" height=".9375" width="28.125" y="23.062" x="10"/>
   <rect rx=".50464" ry=".46875" height=".9375" width="28.125" y="25.062" x="10"/>
   <rect rx=".50464" ry=".46875" height=".9375" width="28.125" y="27.062" x="10"/>
   <rect rx=".50464" ry=".46875" height=".9375" width="28.125" y="29.062" x="10"/>
   <rect rx=".50464" ry=".46875" height=".9375" width="28.125" y="31.062" x="10"/>
   <rect rx=".50464" ry=".46875" height=".9375" width="28.125" y="33.062" x="10"/>
   <rect rx=".50464" ry=".46875" height=".9375" width="28.125" y="35.062" x="10"/>
   <rect rx="1.0052" ry=".46875" height=".9375" width="12.919" y="37.062" x="10"/>
  </g>
 </g>
 <g style="enable-background:new" transform="matrix(1.1072 0 0 1.0714 -6.5003 -.57143)">
  <path opacity="0.07" d="m52 33.188a14.625 3.3125 0 1 1 -29.25 0 14.625 3.3125 0 1 1 29.25 0z" transform="matrix(.89744 0 0 .98113 1.3333 1.6887)" fill="url(#ab)"/>
  <path opacity=".4" d="m41.08 28.466-15 4.4729-0.125 0.06484-0.09375 0.07781-2.75 2.8532 7.4375-0.84298 0.28125-0.02594 0.1875-0.07781 10.062-2.6832v-3.8388 0.000007z" fill-rule="evenodd" fill="url(#w)"/>
  <path stroke-linejoin="round" d="m25.892 30.185 19-19c2.175 0.35996 3.0847 1.7322 3.5 3.5l-19 19-4.6161 0.7045 1.1161-4.2045z" fill-rule="evenodd" stroke="url(#y)" fill="url(#x)"/>
  <path opacity=".28235" d="m26.792 30.685 18.498-18.398c1.0897 0.17844 1.5173 0.98794 2 2l-18.398 18.498-3.3 0.9 1.2-3z" stroke="#fff" fill="none"/>
  <path fill-rule="evenodd" fill="url(#z)" d="m24.55 34.633 1.6663-4.1803s1.1995 0.24536 1.9322 0.97509c0.73264 0.72973 0.99839 1.9438 0.99839 1.9438l-4.5969 1.2614z"/>
  <path stroke-linejoin="round" d="m23 21.5-5.5 1.5 2-5" transform="translate(6.3922,12.185)" stroke="#e9b96e" stroke-linecap="round" fill="none"/>
  <path fill-rule="evenodd" d="m23.955 33.685-0.90625 2.25 2.3438-0.65625c0.002-0.03184 0-0.06141 0-0.09375 0-0.80212-0.64531-1.4598-1.4375-1.5z"/>
  <path style="enable-background:new" fill="url(#af)" d="m42.822 13.147c1.8342-0.50053 3.8851 1.6515 3.4499 3.4499l2.195-2.195c1.0665-2.4666-1.1323-4.4097-3.4947-3.4947l-2.1506 2.2402z" stroke="#ef2929"/>
  <path style="enable-background:new" fill="url(#aa)" d="m40.562 15.251c1.9364-0.52848 4.1017 1.7437 3.6423 3.6426l2.3178-2.318c0.75446-1.5958-2.0446-4.3375-3.6896-3.6899l-2.27 2.365z" stroke="#888a85"/>
 </g>
</svg>
