<?xml version="1.0" encoding="UTF-8" standalone="no"?>
<!-- Created with Inkscape (http://www.inkscape.org/) -->

<svg
   xmlns:dc="http://purl.org/dc/elements/1.1/"
   xmlns:cc="http://creativecommons.org/ns#"
   xmlns:rdf="http://www.w3.org/1999/02/22-rdf-syntax-ns#"
   xmlns:svg="http://www.w3.org/2000/svg"
   xmlns="http://www.w3.org/2000/svg"
   xmlns:xlink="http://www.w3.org/1999/xlink"
   xmlns:sodipodi="http://sodipodi.sourceforge.net/DTD/sodipodi-0.dtd"
   xmlns:inkscape="http://www.inkscape.org/namespaces/inkscape"
   width="26"
   height="26"
   id="svg2"
   version="1.1"
   inkscape:version="0.48.4 r9939"
   sodipodi:docname="editor.svg">
  <defs
     id="defs4">
    <linearGradient
       id="linearGradient3775">
      <stop
         style="stop-color:#ffffff;stop-opacity:1;"
         offset="0"
         id="stop3777" />
      <stop
         style="stop-color:#e1e1e1;stop-opacity:1;"
         offset="1"
         id="stop3779" />
    </linearGradient>
    <linearGradient
       id="linearGradient3767">
      <stop
         style="stop-color:#ffffff;stop-opacity:1;"
         offset="0"
         id="stop3769" />
      <stop
         style="stop-color:#dcdcdc;stop-opacity:1;"
         offset="1"
         id="stop3771" />
    </linearGradient>
    <linearGradient
       inkscape:collect="always"
       xlink:href="#linearGradient3775"
       id="linearGradient3781"
       x1="20"
       y1="21"
       x2="1"
       y2="1"
       gradientUnits="userSpaceOnUse" />
    <filter
       inkscape:collect="always"
       id="filter3899">
      <feGaussianBlur
         inkscape:collect="always"
         stdDeviation="0.375"
         id="feGaussianBlur3901" />
    </filter>
    <filter
       inkscape:collect="always"
       id="filter3952"
       x="-0.12"
       width="1.24"
       y="-0.12"
       height="1.24">
      <feGaussianBlur
         inkscape:collect="always"
         stdDeviation="0.35"
         id="feGaussianBlur3954" />
    </filter>
    <radialGradient
       inkscape:collect="always"
       xlink:href="#linearGradient3767"
       id="radialGradient3975"
       cx="17.249992"
       cy="6.4166613"
       fx="17.249992"
       fy="6.4166613"
       r="3.5"
       gradientUnits="userSpaceOnUse"
       gradientTransform="matrix(0.85714311,-0.85714265,1.4285709,1.4285716,-4.9523675,12.619044)" />
    <linearGradient
       gradientTransform="translate(7.5,1.5)"
       y2="16"
       x2="21"
       y1="25"
       x1="1.5"
       gradientUnits="userSpaceOnUse"
       id="linearGradient4055"
       xlink:href="#linearGradient3987"
       inkscape:collect="always" />
    <linearGradient
       inkscape:collect="always"
       id="linearGradient3987">
      <stop
         style="stop-color:#000000;stop-opacity:0.502"
         offset="0"
         id="stop3989" />
      <stop
         style="stop-color:#000000;stop-opacity:0"
         offset="1"
         id="stop3991" />
    </linearGradient>
    <filter
       color-interpolation-filters="sRGB"
       inkscape:collect="always"
       id="filter4003">
      <feGaussianBlur
         inkscape:collect="always"
         stdDeviation="0.36875"
         id="feGaussianBlur4005" />
    </filter>
    <linearGradient
       id="linearGradient4007">
      <stop
         style="stop-color:#d63535;stop-opacity:1;"
         offset="0"
         id="stop4009" />
      <stop
         id="stop4015"
         offset="0.5"
         style="stop-color:#df6060;stop-opacity:1" />
      <stop
         style="stop-color:#d63535;stop-opacity:1"
         offset="1"
         id="stop4011" />
    </linearGradient>
    <linearGradient
       id="linearGradient3951">
      <stop
         style="stop-color:#616161;stop-opacity:1;"
         offset="0"
         id="stop3953" />
      <stop
         id="stop3963"
         offset="0.19027933"
         style="stop-color:#919191;stop-opacity:1;" />
      <stop
         id="stop3959"
         offset="0.61020994"
         style="stop-color:#a6a6a6;stop-opacity:1;" />
      <stop
         style="stop-color:#8d8d8d;stop-opacity:1;"
         offset="0.86132389"
         id="stop3961" />
      <stop
         style="stop-color:#5c5c5c;stop-opacity:1;"
         offset="1"
         id="stop3955" />
    </linearGradient>
    <linearGradient
       inkscape:collect="always"
       xlink:href="#linearGradient3987"
       id="linearGradient3311"
       gradientUnits="userSpaceOnUse"
       gradientTransform="translate(19.5,1035.3622)"
       x1="1.5"
       y1="25"
       x2="21"
       y2="16" />
    <linearGradient
       inkscape:collect="always"
       xlink:href="#linearGradient3951"
       id="linearGradient3313"
       gradientUnits="userSpaceOnUse"
       gradientTransform="matrix(0.9195783,-0.20802373,0.20802373,0.9195783,15.064262,1037.7486)"
       x1="17.17345"
       y1="3.7947705"
       x2="20.406361"
       y2="6.2337084" />
    <linearGradient
       inkscape:collect="always"
       xlink:href="#linearGradient4007"
       id="linearGradient3315"
       gradientUnits="userSpaceOnUse"
       gradientTransform="matrix(0.9195783,-0.20802373,0.20802373,0.9195783,15.064262,1037.7486)"
       x1="18.78027"
       y1="2.0976183"
       x2="21.837505"
       y2="4.5488091" />
  </defs>
  <sodipodi:namedview
     id="base"
     pagecolor="#ffffff"
     bordercolor="#666666"
     borderopacity="1.0"
     inkscape:pageopacity="0"
     inkscape:pageshadow="2"
     inkscape:zoom="15.365974"
     inkscape:cx="6.1093924"
     inkscape:cy="12.361451"
     inkscape:document-units="px"
     inkscape:current-layer="layer1"
     showgrid="true"
     inkscape:showpageshadow="false"
     inkscape:window-width="1366"
     inkscape:window-height="744"
     inkscape:window-x="0"
     inkscape:window-y="24"
     inkscape:window-maximized="1">
    <inkscape:grid
       type="xygrid"
       id="grid2985"
       empspacing="2"
       visible="true"
       enabled="true"
       snapvisiblegridlinesonly="true"
       spacingx="0.5px"
       spacingy="0.5px" />
  </sodipodi:namedview>
  <metadata
     id="metadata7">
    <rdf:RDF>
      <cc:Work
         rdf:about="">
        <dc:format>image/svg+xml</dc:format>
        <dc:type
           rdf:resource="http://purl.org/dc/dcmitype/StillImage" />
        <dc:title />
      </cc:Work>
    </rdf:RDF>
  </metadata>
  <g
     inkscape:label="Layer 1"
     inkscape:groupmode="layer"
     id="layer1"
     transform="translate(0,-1026.3622)">
    <path
       sodipodi:nodetypes="cccccc"
       inkscape:connector-curvature="0"
       id="path3889"
       d="m 0.5,0.5 17,0 c 3,1 7,5 8,8 l 0,17 -25,0 z"
       style="opacity:0.5;fill:#000000;fill-opacity:1;stroke:none;filter:url(#filter3899)"
       transform="translate(0,1026.3622)" />
    <path
       style="fill:url(#linearGradient3781);fill-opacity:1;stroke:none"
       d="m 1,1 16,0 c 3,1 7,5 8,8 l 0,16 -24,0 z"
       id="rect3761"
       inkscape:connector-curvature="0"
       sodipodi:nodetypes="cccccc"
       transform="translate(0,1026.3622)" />
    <path
       sodipodi:nodetypes="cccc"
       transform="translate(0,1026.3622)"
       inkscape:connector-curvature="0"
       id="path3783"
       d="m 17,1 c 1,0.5 7.5,7 8,8 C 23,8 20,8 18,8 18,6 18,3 17,1 z"
       style="opacity:0.5;fill:#373737;fill-opacity:1;stroke:none;filter:url(#filter3952)" />
    <path
       style="fill:url(#radialGradient3975);fill-opacity:1;stroke:none"
       d="m 17,1 c 3,1 7,5 8,8 C 23.5,8 22,7 19,7 19,4 18,2.5 17,1 z"
       id="path3765"
       inkscape:connector-curvature="0"
       transform="translate(0,1026.3622)"
       sodipodi:nodetypes="cccc" />
    <path
       sodipodi:type="arc"
       style="opacity:0.3;fill:#000000;fill-opacity:1;stroke:none"
       id="path3903"
       sodipodi:cx="2.5"
       sodipodi:cy="3.5"
       sodipodi:rx="1"
       sodipodi:ry="1"
       d="m 3.5,3.5 c 0,0.5522847 -0.4477153,1 -1,1 -0.5522847,0 -1,-0.4477153 -1,-1 0,-0.5522847 0.4477153,-1 1,-1 0.5522847,0 1,0.4477153 1,1 z"
       transform="matrix(0.75,0,0,0.75,0.625,1026.2372)" />
    <path
       transform="matrix(0.75,0,0,0.75,0.625,1029.2372)"
       d="m 3.5,3.5 c 0,0.5522847 -0.4477153,1 -1,1 -0.5522847,0 -1,-0.4477153 -1,-1 0,-0.5522847 0.4477153,-1 1,-1 0.5522847,0 1,0.4477153 1,1 z"
       sodipodi:ry="1"
       sodipodi:rx="1"
       sodipodi:cy="3.5"
       sodipodi:cx="2.5"
       id="path3906"
       style="opacity:0.3;fill:#000000;fill-opacity:1;stroke:none"
       sodipodi:type="arc" />
    <path
       transform="matrix(0.75,0,0,0.75,0.625,1032.2372)"
       d="m 3.5,3.5 c 0,0.5522847 -0.4477153,1 -1,1 -0.5522847,0 -1,-0.4477153 -1,-1 0,-0.5522847 0.4477153,-1 1,-1 0.5522847,0 1,0.4477153 1,1 z"
       sodipodi:ry="1"
       sodipodi:rx="1"
       sodipodi:cy="3.5"
       sodipodi:cx="2.5"
       id="path3908"
       style="opacity:0.3;fill:#000000;fill-opacity:1;stroke:none"
       sodipodi:type="arc" />
    <path
       sodipodi:type="arc"
       style="opacity:0.3;fill:#000000;fill-opacity:1;stroke:none"
       id="path3910"
       sodipodi:cx="2.5"
       sodipodi:cy="3.5"
       sodipodi:rx="1"
       sodipodi:ry="1"
       d="m 3.5,3.5 c 0,0.5522847 -0.4477153,1 -1,1 -0.5522847,0 -1,-0.4477153 -1,-1 0,-0.5522847 0.4477153,-1 1,-1 0.5522847,0 1,0.4477153 1,1 z"
       transform="matrix(0.75,0,0,0.75,0.625,1035.2372)" />
    <path
       transform="matrix(0.75,0,0,0.75,0.625,1038.2372)"
       d="m 3.5,3.5 c 0,0.5522847 -0.4477153,1 -1,1 -0.5522847,0 -1,-0.4477153 -1,-1 0,-0.5522847 0.4477153,-1 1,-1 0.5522847,0 1,0.4477153 1,1 z"
       sodipodi:ry="1"
       sodipodi:rx="1"
       sodipodi:cy="3.5"
       sodipodi:cx="2.5"
       id="path3912"
       style="opacity:0.3;fill:#000000;fill-opacity:1;stroke:none"
       sodipodi:type="arc" />
    <path
       sodipodi:type="arc"
       style="opacity:0.3;fill:#000000;fill-opacity:1;stroke:none"
       id="path3914"
       sodipodi:cx="2.5"
       sodipodi:cy="3.5"
       sodipodi:rx="1"
       sodipodi:ry="1"
       d="m 3.5,3.5 c 0,0.5522847 -0.4477153,1 -1,1 -0.5522847,0 -1,-0.4477153 -1,-1 0,-0.5522847 0.4477153,-1 1,-1 0.5522847,0 1,0.4477153 1,1 z"
       transform="matrix(0.75,0,0,0.75,0.625,1041.2372)" />
    <path
       sodipodi:type="arc"
       style="opacity:0.3;fill:#000000;fill-opacity:1;stroke:none"
       id="path3916"
       sodipodi:cx="2.5"
       sodipodi:cy="3.5"
       sodipodi:rx="1"
       sodipodi:ry="1"
       d="m 3.5,3.5 c 0,0.5522847 -0.4477153,1 -1,1 -0.5522847,0 -1,-0.4477153 -1,-1 0,-0.5522847 0.4477153,-1 1,-1 0.5522847,0 1,0.4477153 1,1 z"
       transform="matrix(0.75,0,0,0.75,0.625,1044.2372)" />
    <path
       transform="matrix(0.75,0,0,0.75,0.625,1047.2372)"
       d="m 3.5,3.5 c 0,0.5522847 -0.4477153,1 -1,1 -0.5522847,0 -1,-0.4477153 -1,-1 0,-0.5522847 0.4477153,-1 1,-1 0.5522847,0 1,0.4477153 1,1 z"
       sodipodi:ry="1"
       sodipodi:rx="1"
       sodipodi:cy="3.5"
       sodipodi:cx="2.5"
       id="path3918"
       style="opacity:0.3;fill:#000000;fill-opacity:1;stroke:none"
       sodipodi:type="arc" />
    <path
       style="fill:none;stroke:#000000;stroke-width:1px;stroke-linecap:butt;stroke-linejoin:miter;stroke-opacity:1;opacity:0.2"
       d="m 5,3.5 11,0"
       id="path3283"
       inkscape:connector-curvature="0"
       transform="translate(0,1026.3622)" />
    <path
       inkscape:connector-curvature="0"
       id="path3285"
       d="m 5,1032.8622 11,0"
       style="opacity:0.2;fill:none;stroke:#000000;stroke-width:1px;stroke-linecap:butt;stroke-linejoin:miter;stroke-opacity:1" />
    <path
       style="opacity:0.2;fill:none;stroke:#000000;stroke-width:1px;stroke-linecap:butt;stroke-linejoin:miter;stroke-opacity:1"
       d="m 5,1035.8622 18,0"
       id="path3287"
       inkscape:connector-curvature="0"
       sodipodi:nodetypes="cc" />
    <path
       sodipodi:nodetypes="cc"
       inkscape:connector-curvature="0"
       id="path3289"
       d="m 5,1038.8622 18,0"
       style="opacity:0.2;fill:none;stroke:#000000;stroke-width:1px;stroke-linecap:butt;stroke-linejoin:miter;stroke-opacity:1" />
    <path
       style="opacity:0.2;fill:none;stroke:#000000;stroke-width:1px;stroke-linecap:butt;stroke-linejoin:miter;stroke-opacity:1"
       d="m 5,1041.8622 18,0"
       id="path3291"
       inkscape:connector-curvature="0"
       sodipodi:nodetypes="cc" />
    <path
       sodipodi:nodetypes="cc"
       inkscape:connector-curvature="0"
       id="path3293"
       d="m 5,1044.8622 18,0"
       style="opacity:0.2;fill:none;stroke:#000000;stroke-width:1px;stroke-linecap:butt;stroke-linejoin:miter;stroke-opacity:1" />
    <g
       id="g3070"
       transform="translate(-11,-7.5)">
      <path
         sodipodi:nodetypes="cccccc"
         inkscape:connector-curvature="0"
         id="path3985"
         d="m 21.5,1059.8622 6.5,-1.5 14,-5.5 -4,-2 -12,6 z"
         style="opacity:0.5;fill:url(#linearGradient3311);fill-opacity:1;stroke:none;filter:url(#filter4003)" />
      <path
         sodipodi:nodetypes="ccccc"
         inkscape:connector-curvature="0"
         id="path3933"
         d="m 22.695026,1054.3885 8.122607,-15.3704 1.839157,-0.4161 -8.122607,15.3704 z"
         style="fill:#cf7600;fill-opacity:1;stroke:none" />
      <path
         sodipodi:nodetypes="ccccc"
         style="fill:#ff960a;fill-opacity:1;stroke:none"
         d="m 26.225586,1055.0397 8.122607,-15.3703 -1.691403,-1.0674 -8.122607,15.3704 z"
         id="path3935"
         inkscape:connector-curvature="0" />
      <path
         inkscape:connector-curvature="0"
         id="path3937"
         d="m 26.225586,1055.0397 8.122607,-15.3703 -0.147754,1.4833 -8.122607,15.3704 z"
         style="fill:#c97300;fill-opacity:1;stroke:none"
         sodipodi:nodetypes="ccccc" />
      <path
         sodipodi:nodetypes="cccccc"
         inkscape:connector-curvature="0"
         id="path3939"
         d="m 22.695026,1054.3885 1.839157,-0.4161 1.691403,1.0673 -0.147754,1.4834 L 22,1059.8622 z"
         style="fill:#debf54;fill-opacity:1;stroke:none" />
      <path
         style="fill:#d8b333;fill-opacity:1;stroke:none"
         d="m 22.695026,1054.3885 1.839157,-0.4161 L 22,1059.8622 z"
         id="path3941"
         inkscape:connector-curvature="0"
         sodipodi:nodetypes="cccc" />
      <path
         style="fill:#dab73f;fill-opacity:1;stroke:none"
         d="m 26.225586,1055.0397 -0.147754,1.4834 L 22,1059.8622 z"
         id="path3943"
         inkscape:connector-curvature="0"
         sodipodi:nodetypes="cccc" />
      <path
         style="fill:#000000;fill-opacity:1;stroke:none"
         d="m 22.318912,1057.2674 c 0.837281,-0.049 1.265409,0.034 1.62065,1.0003 L 22,1059.8622 z"
         id="path3945"
         inkscape:connector-curvature="0"
         sodipodi:nodetypes="cccc" />
      <path
         sodipodi:nodetypes="czzcczcc"
         inkscape:connector-curvature="0"
         id="path3947"
         d="m 30.817633,1039.0181 c 0,0 1.490464,-0.1798 1.705787,-0.2191 0.215332,-0.039 1.620865,0.8697 1.701983,1.0649 0.08112,0.1953 -0.02497,1.2888 -0.02497,1.2888 l 1.162937,-2.3238 c 0,0 0.210106,-0.6584 -0.765601,-1.4709 -0.9757,-0.8125 -2.659283,-0.2599 -2.659283,-0.2599 z"
         style="fill:url(#linearGradient3313);fill-opacity:1;stroke:none" />
      <path
         style="fill:url(#linearGradient3315);fill-opacity:1;stroke:none"
         d="m 35.363377,1038.8289 c 0,0 0.210106,-0.6584 -0.765601,-1.4709 -0.975707,-0.8125 -2.65929,-0.2599 -2.65929,-0.2599 l 1.141875,-1.9567 c 0.19228,-0.267 1.536869,-0.4891 2.505016,0.1916 0.968147,0.6808 0.860277,1.2675 0.779121,1.5883 z"
         id="path3965"
         inkscape:connector-curvature="0"
         sodipodi:nodetypes="czcczcc" />
    </g>
    <path
       style="opacity:0.2;fill:none;stroke:#000000;stroke-width:1px;stroke-linecap:butt;stroke-linejoin:miter;stroke-opacity:1"
       d="m 5,1047.8622 3,0"
       id="path3317"
       inkscape:connector-curvature="0"
       sodipodi:nodetypes="cc" />
  </g>
</svg>
