<?xml version="1.0" encoding="UTF-8" standalone="no"?>
<svg
   xmlns:dc="http://purl.org/dc/elements/1.1/"
   xmlns:cc="http://creativecommons.org/ns#"
   xmlns:rdf="http://www.w3.org/1999/02/22-rdf-syntax-ns#"
   xmlns:svg="http://www.w3.org/2000/svg"
   xmlns="http://www.w3.org/2000/svg"
   xmlns:sodipodi="http://sodipodi.sourceforge.net/DTD/sodipodi-0.dtd"
   xmlns:inkscape="http://www.inkscape.org/namespaces/inkscape"
   id="Слой_1"
   data-name="Слой 1"
   viewBox="0 0 26 26"
   version="1.1"
   sodipodi:docname="edit_comp_value.svg"
   inkscape:version="1.0.1 (3bc2e813f5, 2020-09-07)">
  <sodipodi:namedview
     pagecolor="#ffffff"
     bordercolor="#666666"
     borderopacity="1"
     objecttolerance="10"
     gridtolerance="10"
     guidetolerance="10"
     inkscape:pageopacity="0"
     inkscape:pageshadow="2"
     inkscape:window-width="1845"
     inkscape:window-height="856"
     id="namedview26"
     showgrid="true"
     inkscape:zoom="9.8858967"
     inkscape:cx="2.5017746"
     inkscape:cy="9.8254813"
     inkscape:window-x="0"
     inkscape:window-y="37"
     inkscape:window-maximized="0"
     inkscape:current-layer="Слой_1">
    <inkscape:grid
       type="xygrid"
       id="grid851"
       spacingx="0.5"
       spacingy="0.5"
       color="#9595ff"
       opacity="0.1254902"
       empspacing="2" />
  </sodipodi:namedview>
  <metadata
     id="metadata43">
    <rdf:RDF>
      <cc:Work
         rdf:about="">
        <cc:license
           rdf:resource="http://creativecommons.org/licenses/by-sa/4.0/" />
        <dc:format>image/svg+xml</dc:format>
        <dc:type
           rdf:resource="http://purl.org/dc/dcmitype/StillImage" />
        <dc:title>add_arc</dc:title>
      </cc:Work>
      <cc:License
         rdf:about="http://creativecommons.org/licenses/by-sa/4.0/">
        <cc:permits
           rdf:resource="http://creativecommons.org/ns#Reproduction" />
        <cc:permits
           rdf:resource="http://creativecommons.org/ns#Distribution" />
        <cc:requires
           rdf:resource="http://creativecommons.org/ns#Notice" />
        <cc:requires
           rdf:resource="http://creativecommons.org/ns#Attribution" />
        <cc:permits
           rdf:resource="http://creativecommons.org/ns#DerivativeWorks" />
        <cc:requires
           rdf:resource="http://creativecommons.org/ns#ShareAlike" />
      </cc:License>
    </rdf:RDF>
  </metadata>
  <defs
     id="defs5">
    <style
       id="style3">.cls-1{fill:#b9b9b9;}.cls-2{fill:#545454;}.cls-3{fill:#1a81c4;}.cls-4{fill:#fff;}</style>
  </defs>
  <title
     id="title7">edit_comp_value</title>
  <g
     id="g893"
     transform="translate(2.614474,6.118756)">
    <path
       class="cls-2"
       d="m 5.5263319,6.336774 h 1.90223 a 0.8178335,0.8178335 0 1 0 0,-1.6356666 h -1.90223 a 0.8178335,0.8178335 0 0 0 0,1.6356666 z"
       id="path13-3"
       style="fill:#545454;stroke-width:1" />
    <path
       class="cls-2"
       d="M 7.4618579,9.330977 V 9.060925 a 0.81783365,0.81783365 0 1 0 -1.6356671,0 V 9.330977 H 5.5570355 a 0.817734,0.817734 0 0 0 0,1.635468 H 5.8261908 V 11.2356 a 0.81783365,0.81783365 0 1 0 1.6356671,0 v -0.269155 h 0.269155 a 0.817734,0.817734 0 1 0 0,-1.635468 z"
       id="path15-6"
       style="fill:#545454;stroke-width:1" />
    <path
       style="fill:#b9b9b9;fill-opacity:1;stroke:#545454;stroke-width:2;stroke-linecap:butt;stroke-linejoin:round;stroke-miterlimit:4;stroke-dasharray:none;stroke-opacity:1"
       d="M 2.3855261,-3.4330418 V 17.195529 L 17.856956,6.881244 Z"
       id="path2231"
       sodipodi:nodetypes="cccc" />
    <path
       style="fill:none;stroke:#545454;stroke-width:1;stroke-linecap:round;stroke-linejoin:miter;stroke-miterlimit:4;stroke-dasharray:none;stroke-opacity:1"
       d="M 4.0140976,1.9955298 H 6.9674961"
       id="path2229" />
    <path
       style="fill:none;stroke:#545454;stroke-width:2;stroke-linecap:round;stroke-linejoin:round;stroke-miterlimit:4;stroke-dasharray:none;stroke-opacity:1"
       d="m 18.128384,6.881244 h 3.257142"
       id="path2233"
       sodipodi:nodetypes="cc" />
    <path
       style="fill:none;stroke:#545454;stroke-width:2;stroke-linecap:round;stroke-linejoin:round;stroke-miterlimit:4;stroke-dasharray:none;stroke-opacity:1"
       d="m -1.6859021,0.90981176 4.0714282,3.7e-6"
       id="path2235"
       sodipodi:nodetypes="cc" />
    <path
       style="fill:none;stroke:#545454;stroke-width:2;stroke-linecap:round;stroke-linejoin:round;stroke-miterlimit:4;stroke-dasharray:none;stroke-opacity:1"
       d="M -1.6859021,12.309816 H 2.3855261"
       id="path2237"
       sodipodi:nodetypes="cc" />
    <path
       style="fill:none;stroke:#545454;stroke-width:1;stroke-linecap:round;stroke-linejoin:miter;stroke-miterlimit:4;stroke-dasharray:none;stroke-opacity:1"
       d="M 4.0140976,11.224101 H 6.9674961"
       id="path2301" />
    <path
       style="fill:none;stroke:#545454;stroke-width:1;stroke-linecap:round;stroke-linejoin:miter;stroke-miterlimit:4;stroke-dasharray:none;stroke-opacity:1"
       d="M 5.4907965,12.7008 V 9.747402"
       id="path2303" />
  </g>
  <rect
     class="cls-3"
     x="8.2644"
     y="15.7686"
     width="16.7338"
     height="9.2299"
     id="rect17" />
  <path
     class="cls-4"
     d="M13.0605,23.1328H12.124V18.3994H10.9834V17.708l2.0771-.2Z"
     id="path19" />
  <path
     class="cls-4"
     d="M18.5312,23.1328H14.8047v-.6484L16.6318,20.49a4.4518,4.4518,0,0,0,.6162-.8056,1.2921,1.2921,0,0,0,.17-.6162.9357.9357,0,0,0-.22-.6338.7437.7437,0,0,0-.5937-.2549.9128.9128,0,0,0-.7324.2783,1.1362,1.1362,0,0,0-.2383.7647h-.9063l-.0078-.0235a1.6553,1.6553,0,0,1,.4893-1.2607,1.879,1.879,0,0,1,1.3955-.5127,1.7767,1.7767,0,0,1,1.2793.4482,1.5449,1.5449,0,0,1,.4707,1.1709,1.73,1.73,0,0,1-.2725.9239,7.8114,7.8114,0,0,1-.8418,1.07l-1.248,1.3173.0107.0235h2.5283Z"
     id="path21" />
  <path
     class="cls-4"
     d="M19.98,19.8955h.6514a.8383.8383,0,0,0,.6552-.2266.93.93,0,0,0,.2-.64.8656.8656,0,0,0-.2158-.6279.8483.8483,0,0,0-.6357-.2217.8887.8887,0,0,0-.6221.2178.7377.7377,0,0,0-.2412.5742H18.87l-.0078-.0235a1.3159,1.3159,0,0,1,.4795-1.0839,1.8806,1.8806,0,0,1,1.2812-.4385,1.9523,1.9523,0,0,1,1.3106.418,1.472,1.472,0,0,1,.4893,1.1855,1.2512,1.2512,0,0,1-.22.6953,1.4434,1.4434,0,0,1-.624.5225,1.3323,1.3323,0,0,1,.7031.5175,1.4229,1.4229,0,0,1,.2256.792,1.4975,1.4975,0,0,1-.53,1.2149,2.2825,2.2825,0,0,1-2.663.0273,1.3261,1.3261,0,0,1-.5069-1.1494l.0078-.0234h.9024a.78.78,0,0,0,.25.6035.9444.9444,0,0,0,.667.2314.9642.9642,0,0,0,.6855-.2353.871.871,0,0,0,.251-.667.9434.9434,0,0,0-.23-.7.98.98,0,0,0-.7109-.2256H19.98Z"
     id="path23" />
</svg>
