<svg id="Слой_1" data-name="Слой 1"
  xmlns:dc="http://purl.org/dc/elements/1.1/"
  xmlns:cc="http://creativecommons.org/ns#"
  xmlns:rdf="http://www.w3.org/1999/02/22-rdf-syntax-ns#"
  xmlns="http://www.w3.org/2000/svg" viewBox="0 0 26 26">
  <metadata id="metadata43">
    <rdf:RDF>
      <cc:Work rdf:about="">
        <cc:license rdf:resource="http://creativecommons.org/licenses/by-sa/4.0/" />
        <dc:format>image/svg+xml</dc:format>
        <dc:type rdf:resource="http://purl.org/dc/dcmitype/StillImage" />
        <dc:title>add_arc</dc:title>
      </cc:Work>
      <cc:License rdf:about="http://creativecommons.org/licenses/by-sa/4.0/">
        <cc:permits rdf:resource="http://creativecommons.org/ns#Reproduction" />
        <cc:permits rdf:resource="http://creativecommons.org/ns#Distribution" />
        <cc:requires rdf:resource="http://creativecommons.org/ns#Notice" />
        <cc:requires rdf:resource="http://creativecommons.org/ns#Attribution" />
        <cc:permits rdf:resource="http://creativecommons.org/ns#DerivativeWorks" />
        <cc:requires rdf:resource="http://creativecommons.org/ns#ShareAlike" />
      </cc:License>
    </rdf:RDF>
  </metadata>
  <defs>
    <style>.cls-1{fill:#b9b9b9;}.cls-2{fill:#545454;}.cls-3{fill:none;stroke:#545454;stroke-linecap:round;stroke-miterlimit:10;}</style>
  </defs>
  <title>editor</title>
  <path class="cls-1" d="M4.4951,4.02h14a3.5,3.5,0,0,1,3.5,3.5v14a3.5,3.5,0,0,1-3.5,3.5h-14a3.5,3.5,0,0,1-3.5-3.5v-14A3.5,3.5,0,0,1,4.4951,4.02Z"/>
  <path class="cls-2" d="M24.4132,2.8482l-1.2566-1.26a2,2,0,0,0-2.8337,0L7.25,14.6955l4.09,4.1012L24.4132,5.6893A2.0129,2.0129,0,0,0,24.4132,2.8482Z"/>
  <polygon class="cls-2" points="5.653 16.297 4.657 21.343 9.743 20.398 7.742 18.409 5.653 16.297"/>
  <line class="cls-3" x1="10.7126" y1="21.4604" x2="19.3443" y2="21.4604"/>
</svg>