<?xml version="1.0" encoding="UTF-8" standalone="no"?>
<svg
   xmlns:dc="http://purl.org/dc/elements/1.1/"
   xmlns:cc="http://creativecommons.org/ns#"
   xmlns:rdf="http://www.w3.org/1999/02/22-rdf-syntax-ns#"
   xmlns:svg="http://www.w3.org/2000/svg"
   xmlns="http://www.w3.org/2000/svg"
   xmlns:sodipodi="http://sodipodi.sourceforge.net/DTD/sodipodi-0.dtd"
   xmlns:inkscape="http://www.inkscape.org/namespaces/inkscape"
   id="Слой_1"
   data-name="Слой 1"
   viewBox="0 0 24 24"
   version="1.1"
   sodipodi:docname="edit_comp_value.svg"
   inkscape:version="1.0.1 (3bc2e813f5, 2020-09-07)">
  <sodipodi:namedview
     pagecolor="#ffffff"
     bordercolor="#666666"
     borderopacity="1"
     objecttolerance="10"
     gridtolerance="10"
     guidetolerance="10"
     inkscape:pageopacity="0"
     inkscape:pageshadow="2"
     inkscape:window-width="1845"
     inkscape:window-height="856"
     id="namedview26"
     showgrid="true"
     inkscape:zoom="19.771793"
     inkscape:cx="1.5301354"
     inkscape:cy="13.987813"
     inkscape:window-x="0"
     inkscape:window-y="37"
     inkscape:window-maximized="0"
     inkscape:current-layer="g893"
     inkscape:document-rotation="0">
    <inkscape:grid
       type="xygrid"
       id="grid851"
       spacingx="0.5"
       spacingy="0.5"
       color="#9595ff"
       opacity="0.1254902"
       empspacing="2" />
  </sodipodi:namedview>
  <metadata
     id="metadata43">
    <rdf:RDF>
      <cc:Work
         rdf:about="">
        <cc:license
           rdf:resource="http://creativecommons.org/licenses/by-sa/4.0/" />
        <dc:format>image/svg+xml</dc:format>
        <dc:type
           rdf:resource="http://purl.org/dc/dcmitype/StillImage" />
        <dc:title>add_arc</dc:title>
      </cc:Work>
      <cc:License
         rdf:about="http://creativecommons.org/licenses/by-sa/4.0/">
        <cc:permits
           rdf:resource="http://creativecommons.org/ns#Reproduction" />
        <cc:permits
           rdf:resource="http://creativecommons.org/ns#Distribution" />
        <cc:requires
           rdf:resource="http://creativecommons.org/ns#Notice" />
        <cc:requires
           rdf:resource="http://creativecommons.org/ns#Attribution" />
        <cc:permits
           rdf:resource="http://creativecommons.org/ns#DerivativeWorks" />
        <cc:requires
           rdf:resource="http://creativecommons.org/ns#ShareAlike" />
      </cc:License>
    </rdf:RDF>
  </metadata>
  <defs
     id="defs5">
    <style
       id="style3">.cls-1{fill:#b9b9b9;}.cls-2{fill:#545454;}.cls-3{fill:#1a81c4;}.cls-4{fill:#fff;}</style>
  </defs>
  <title
     id="title7">edit_comp_value</title>
  <g
     id="g893"
     transform="translate(1.614474,5.118756)">
    <path
       class="cls-2"
       d="m 5.5263319,6.336774 h 1.90223 a 0.8178335,0.8178335 0 1 0 0,-1.6356666 h -1.90223 a 0.8178335,0.8178335 0 0 0 0,1.6356666 z"
       id="path13-3"
       style="fill:#545454;stroke-width:1" />
    <path
       class="cls-2"
       d="M 7.4618579,9.330977 V 9.060925 a 0.81783365,0.81783365 0 1 0 -1.6356671,0 V 9.330977 H 5.5570355 a 0.817734,0.817734 0 0 0 0,1.635468 H 5.8261908 V 11.2356 a 0.81783365,0.81783365 0 1 0 1.6356671,0 v -0.269155 h 0.269155 a 0.817734,0.817734 0 1 0 0,-1.635468 z"
       id="path15-6"
       style="fill:#545454;stroke-width:1" />
    <path
       style="fill:#b9b9b9;fill-opacity:1;stroke:#545454;stroke-width:2;stroke-linecap:butt;stroke-linejoin:round;stroke-miterlimit:4;stroke-dasharray:none;stroke-opacity:1"
       d="M 2.3855261,-3.4330418 V 17.195529 L 17.856956,6.881244 Z"
       id="path2231"
       sodipodi:nodetypes="cccc" />
    <path
       style="fill:none;stroke:#545454;stroke-width:0.999995;stroke-linecap:round;stroke-linejoin:miter;stroke-miterlimit:4;stroke-dasharray:none;stroke-opacity:1"
       d="m 3.8855235,2.3812415 2.0000025,0"
       id="path2229"
       sodipodi:nodetypes="cc" />
    <path
       style="fill:none;stroke:#545454;stroke-width:2;stroke-linecap:round;stroke-linejoin:round;stroke-miterlimit:4;stroke-dasharray:none;stroke-opacity:1"
       d="m 18.128384,6.881244 h 3.257142"
       id="path2233"
       sodipodi:nodetypes="cc" />
    <path
       style="fill:none;stroke:#545454;stroke-width:2;stroke-linecap:round;stroke-linejoin:round;stroke-miterlimit:4;stroke-dasharray:none;stroke-opacity:1"
       d="m -0.614474,0.881244 3,3.7e-6"
       id="path2235"
       sodipodi:nodetypes="cc" />
    <path
       style="fill:none;stroke:#545454;stroke-width:2;stroke-linecap:round;stroke-linejoin:round;stroke-miterlimit:4;stroke-dasharray:none;stroke-opacity:1"
       d="M -0.614474,11.881244 H 2.385733"
       id="path2237"
       sodipodi:nodetypes="cc" />
    <path
       style="fill:none;stroke:#545454;stroke-width:1;stroke-linecap:round;stroke-linejoin:miter;stroke-miterlimit:4;stroke-dasharray:none;stroke-opacity:1"
       d="M 3.885526,10.381244 H 6.8389245"
       id="path2301" />
    <path
       style="fill:none;stroke:#545454;stroke-width:1;stroke-linecap:round;stroke-linejoin:miter;stroke-miterlimit:4;stroke-dasharray:none;stroke-opacity:1"
       d="m 4.885526,11.381244 v -2"
       id="path2303"
       sodipodi:nodetypes="cc" />
  </g>
  <rect
     class="cls-3"
     x="7.2643995"
     y="14.7686"
     width="16.733801"
     height="9.2299004"
     id="rect17" />
  <path
     class="cls-4"
     d="M 12.0605,22.1328 H 11.124 V 17.3994 H 9.9834 V 16.708 l 2.0771,-0.2 z"
     id="path19" />
  <path
     class="cls-4"
     d="M 17.5312,22.1328 H 13.8047 V 21.4844 L 15.6318,19.49 a 4.4518,4.4518 0 0 0 0.6162,-0.8056 1.2921,1.2921 0 0 0 0.17,-0.6162 0.9357,0.9357 0 0 0 -0.22,-0.6338 0.7437,0.7437 0 0 0 -0.5937,-0.2549 0.9128,0.9128 0 0 0 -0.7324,0.2783 1.1362,1.1362 0 0 0 -0.2383,0.7647 H 13.7273 L 13.7195,18.199 a 1.6553,1.6553 0 0 1 0.4893,-1.2607 1.879,1.879 0 0 1 1.3955,-0.5127 1.7767,1.7767 0 0 1 1.2793,0.4482 1.5449,1.5449 0 0 1 0.4707,1.1709 1.73,1.73 0 0 1 -0.2725,0.9239 7.8114,7.8114 0 0 1 -0.8418,1.07 l -1.248,1.3173 0.0107,0.0235 h 2.5283 z"
     id="path21" />
  <path
     class="cls-4"
     d="m 18.98,18.8955 h 0.6514 a 0.8383,0.8383 0 0 0 0.6552,-0.2266 0.93,0.93 0 0 0 0.2,-0.64 0.8656,0.8656 0 0 0 -0.2158,-0.6279 0.8483,0.8483 0 0 0 -0.6357,-0.2217 0.8887,0.8887 0 0 0 -0.6221,0.2178 0.7377,0.7377 0 0 0 -0.2412,0.5742 H 17.87 l -0.0078,-0.0235 a 1.3159,1.3159 0 0 1 0.4795,-1.0839 1.8806,1.8806 0 0 1 1.2812,-0.4385 1.9523,1.9523 0 0 1 1.3106,0.418 1.472,1.472 0 0 1 0.4893,1.1855 1.2512,1.2512 0 0 1 -0.22,0.6953 1.4434,1.4434 0 0 1 -0.624,0.5225 1.3323,1.3323 0 0 1 0.7031,0.5175 1.4229,1.4229 0 0 1 0.2256,0.792 1.4975,1.4975 0 0 1 -0.53,1.2149 2.2825,2.2825 0 0 1 -2.663,0.0273 1.3261,1.3261 0 0 1 -0.5069,-1.1494 l 0.0078,-0.0234 h 0.9024 a 0.78,0.78 0 0 0 0.25,0.6035 0.9444,0.9444 0 0 0 0.667,0.2314 0.9642,0.9642 0 0 0 0.6855,-0.2353 0.871,0.871 0 0 0 0.251,-0.667 0.9434,0.9434 0 0 0 -0.23,-0.7 0.98,0.98 0 0 0 -0.7109,-0.2256 H 18.98 Z"
     id="path23" />
</svg>
