<svg id="Слой_1" data-name="Слой 1"
  xmlns:cc="http://creativecommons.org/ns#"
  xmlns:rdf="http://www.w3.org/1999/02/22-rdf-syntax-ns#"
  xmlns="http://www.w3.org/2000/svg" viewBox="0 0 26 26">
  <metadata id="metadata43">
    <rdf:RDF>
      <cc:Work rdf:about="">
        <cc:license rdf:resource="http://creativecommons.org/licenses/by/4.0/" />
      </cc:Work>
      <cc:License rdf:about="http://creativecommons.org/licenses/by/4.0/">
        <cc:permits rdf:resource="http://creativecommons.org/ns#Reproduction" />
        <cc:permits rdf:resource="http://creativecommons.org/ns#Distribution" />
        <cc:requires rdf:resource="http://creativecommons.org/ns#Notice" />
        <cc:requires rdf:resource="http://creativecommons.org/ns#Attribution" />
        <cc:permits rdf:resource="http://creativecommons.org/ns#DerivativeWorks" />
      </cc:License>
    </rdf:RDF>
  </metadata>
  <defs>
    <style>.cls-1{fill:#b9b9b9;}.cls-2{fill:#fff;}.cls-2,.cls-3{stroke:#545454;}.cls-2,.cls-3,.cls-4,.cls-6{stroke-linecap:round;stroke-linejoin:round;}.cls-3,.cls-4,.cls-6{fill:none;}.cls-4{stroke:#1a81c4;}.cls-5{fill:#e61c50;}.cls-6{stroke:#f5f5f5;stroke-width:2px;}</style>
  </defs>
  <title>erc</title>
  <path class="cls-1" d="M18.4787.9868h-14a3.5,3.5,0,0,0-3.5,3.5v14a3.5,3.5,0,0,0,3.5,3.5h14a3.5,3.5,0,0,0,3.5-3.5v-14A3.5,3.5,0,0,0,18.4787.9868Z"/>
  <rect class="cls-2" x="3.9919" y="3.5251" width="3.6904" height="3.6904"/>
  <rect class="cls-2" x="3.9919" y="9.72" width="3.6904" height="3.6905"/>
  <rect class="cls-2" x="3.9919" y="15.9149" width="3.6904" height="3.6906"/>
  <line class="cls-3" x1="9.7175" y1="5.1826" x2="18.0302" y2="5.1826"/>
  <line class="cls-3" x1="9.7175" y1="11.4245" x2="18.0302" y2="11.4245"/>
  <line class="cls-3" x1="9.7175" y1="17.854" x2="18.0302" y2="17.854"/>
  <polyline class="cls-4" points="3.591 4.203 5.577 6.189 9.124 2.642"/>
  <polyline class="cls-4" points="3.591 10.421 5.577 12.407 9.124 8.86"/>
  <polyline class="cls-4" points="3.591 16.598 5.577 18.584 9.124 15.037"/>
  <path class="cls-5" d="M25.0065,18A7.0065,7.0065,0,1,1,18,11,7.0032,7.0032,0,0,1,25.0065,18Z"/>
  <polyline class="cls-6" points="21.746 16.275 17.173 20.846 14.418 18.093"/>
</svg>