<svg id="Слой_1" data-name="Слой 1"
  xmlns:cc="http://creativecommons.org/ns#"
  xmlns:rdf="http://www.w3.org/1999/02/22-rdf-syntax-ns#"
  xmlns="http://www.w3.org/2000/svg" viewBox="0 0 26 26">
  <metadata id="metadata43">
    <rdf:RDF>
      <cc:Work rdf:about="">
        <cc:license rdf:resource="http://creativecommons.org/licenses/by/4.0/" />
      </cc:Work>
      <cc:License rdf:about="http://creativecommons.org/licenses/by/4.0/">
        <cc:permits rdf:resource="http://creativecommons.org/ns#Reproduction" />
        <cc:permits rdf:resource="http://creativecommons.org/ns#Distribution" />
        <cc:requires rdf:resource="http://creativecommons.org/ns#Notice" />
        <cc:requires rdf:resource="http://creativecommons.org/ns#Attribution" />
        <cc:permits rdf:resource="http://creativecommons.org/ns#DerivativeWorks" />
      </cc:License>
    </rdf:RDF>
  </metadata>
  <defs>
    <style>.cls-1{fill:#f29100;}.cls-2{fill:#fff;}</style>
  </defs>
  <title>ercwarn</title>
  <path class="cls-1" d="M24.7285,20.7433,14.9738,3.1548a2.2829,2.2829,0,0,0-3.97.0018L1.2705,20.7452A2.2071,2.2071,0,0,0,3.2562,24H22.7438A2.2072,2.2072,0,0,0,24.7285,20.7433Z"/>
  <path class="cls-2" d="M11.7587,17.7994a4.0575,4.0575,0,0,1,.2778-1.7264,5.0045,5.0045,0,0,1,1.1952-1.3042,7.6172,7.6172,0,0,0,1.044-1.2283,2.3029,2.3029,0,0,0,.3876-1.2958,1.7422,1.7422,0,0,0-.4418-1.2705,1.6827,1.6827,0,0,0-1.2592-.4516,1.8626,1.8626,0,0,0-1.1875.3841,1.3583,1.3583,0,0,0-.4882,1.1354h-1.97l-.0246-.0506a2.7865,2.7865,0,0,1,1.0059-2.3427,4.0848,4.0848,0,0,1,2.6648-.84,3.94,3.94,0,0,1,2.7576.9033,3.2227,3.2227,0,0,1,.9892,2.5072,3.4829,3.4829,0,0,1-.6184,1.988,7.6808,7.6808,0,0,1-1.5625,1.6757,1.9305,1.9305,0,0,0-.6014.802,3.8483,3.8483,0,0,0-.1225,1.1143Zm2.0794,3.478H11.75V19.31h2.0879Z"/>
</svg>