<svg id="Слой_1" data-name="Слой 1"
  xmlns:cc="http://creativecommons.org/ns#"
  xmlns:rdf="http://www.w3.org/1999/02/22-rdf-syntax-ns#"
  xmlns="http://www.w3.org/2000/svg"
  xmlns:xlink="http://www.w3.org/1999/xlink" viewBox="0 0 26 26">
  <metadata id="metadata43">
    <rdf:RDF>
      <cc:Work rdf:about="">
        <cc:license rdf:resource="http://creativecommons.org/licenses/by/4.0/" />
      </cc:Work>
      <cc:License rdf:about="http://creativecommons.org/licenses/by/4.0/">
        <cc:permits rdf:resource="http://creativecommons.org/ns#Reproduction" />
        <cc:permits rdf:resource="http://creativecommons.org/ns#Distribution" />
        <cc:requires rdf:resource="http://creativecommons.org/ns#Notice" />
        <cc:requires rdf:resource="http://creativecommons.org/ns#Attribution" />
        <cc:permits rdf:resource="http://creativecommons.org/ns#DerivativeWorks" />
      </cc:License>
    </rdf:RDF>
  </metadata>
  <defs>
    <style>.cls-1{fill:none;stroke:#545454;stroke-linecap:round;stroke-linejoin:round;}.cls-2{fill:#1a81c4;}.cls-3{fill:#e61c50;}.cls-4{fill:url(#Безымянный_градиент_19);}.cls-5{fill:url(#Безымянный_градиент_19-2);}.cls-6{fill:#fff;}</style>
    <linearGradient id="Безымянный_градиент_19" x1="12.2163" y1="18" x2="21.2782" y2="18" gradientUnits="userSpaceOnUse">
      <stop offset="0" stop-color="#ececec"/>
      <stop offset="1" stop-color="#c6c6c5"/>
    </linearGradient>
    <linearGradient id="Безымянный_градиент_19-2" x1="11.9269" y1="15.8216" x2="24.2653" y2="15.8216" xlink:href="#Безымянный_градиент_19"/>
  </defs>
  <title>exchange</title>
  <polygon class="cls-1" points="3.239 12.318 1.491 13.892 1.491 18.914 21.472 18.914 21.487 4.058 1.491 4.058 1.491 8.573 3.239 10.147 3.239 12.318"/>
  <rect class="cls-2" x="15.0323" y="15.8554" width="4.3692" height="6.117"/>
  <rect class="cls-2" x="3.6837" y="15.8554" width="4.3693" height="6.117"/>
  <rect class="cls-2" x="9.3559" y="15.8554" width="4.3692" height="6.117"/>
  <rect class="cls-2" x="15.0323" y="1" width="4.3692" height="6.1169"/>
  <rect class="cls-2" x="3.6837" y="1" width="4.3693" height="6.1169"/>
  <rect class="cls-2" x="9.3559" y="1" width="4.3692" height="6.1169"/>
  <ellipse class="cls-3" cx="18" cy="18" rx="7.0066" ry="7"/>
  <path class="cls-4" d="M14.1834,20.66H12.698a.4817.4817,0,1,1,0-.9633h1.4854a.9569.9569,0,0,0,.6812-.2823l3.51-3.51a1.9138,1.9138,0,0,1,1.3622-.5644h1.0593a.4817.4817,0,1,1,0,.9633H19.7372a.9565.9565,0,0,0-.6811.2823l-3.51,3.51A1.9138,1.9138,0,0,1,14.1834,20.66Z"/>
  <polygon class="cls-5" points="20.128 16.801 23.784 15.822 20.128 14.842 20.128 16.801"/>
  <path class="cls-6" d="M20.7965,20.66H19.7372a1.9138,1.9138,0,0,1-1.3622-.5644l-3.51-3.51a.9569.9569,0,0,0-.6812-.2823H12.698a.4817.4817,0,1,1,0-.9633h1.4854a1.9138,1.9138,0,0,1,1.3623.5644l3.51,3.51a.9565.9565,0,0,0,.6811.2823h1.0593a.4817.4817,0,1,1,0,.9633Z"/>
  <polygon class="cls-6" points="20.128 21.158 23.784 20.178 20.128 19.199 20.128 21.158"/>
</svg>