<?xml version="1.0" encoding="UTF-8" standalone="no"?>
<svg xmlns:dc="http://purl.org/dc/elements/1.1/"
   xmlns:cc="http://creativecommons.org/ns#"
   xmlns:rdf="http://www.w3.org/1999/02/22-rdf-syntax-ns#"
   xmlns:svg="http://www.w3.org/2000/svg"
   xmlns="http://www.w3.org/2000/svg"
   xmlns:xlink="http://www.w3.org/1999/xlink"
   xmlns:sodipodi="http://sodipodi.sourceforge.net/DTD/sodipodi-0.dtd"
   xmlns:inkscape="http://www.inkscape.org/namespaces/inkscape" id="Слой_1" data-name="Слой 1" viewBox="0 0 24 24" version="1.1" sodipodi:docname="exchange.svg" inkscape:version="1.0.1 (3bc2e813f5, 2020-09-07)">
   <sodipodi:namedview pagecolor="#ffffff" bordercolor="#666666" borderopacity="1" objecttolerance="10" gridtolerance="10" guidetolerance="10" inkscape:pageopacity="0" inkscape:pageshadow="2" inkscape:window-width="1713" inkscape:window-height="1232" id="namedview116980" showgrid="true" inkscape:zoom="30.291667" inkscape:cx="11.108817" inkscape:cy="12.07263" inkscape:window-x="0" inkscape:window-y="37" inkscape:window-maximized="0" inkscape:current-layer="Слой_1">
      <inkscape:grid type="xygrid" id="grid240653" spacingx="0.5" spacingy="0.5" color="#b5b5ff" opacity="0.1254902" empspacing="2" />
   </sodipodi:namedview>
   <metadata id="metadata43">
      <rdf:RDF>
         <cc:Work rdf:about="">
            <cc:license rdf:resource="http://creativecommons.org/licenses/by-sa/4.0/" />
            <dc:format>image/svg+xml</dc:format>
            <dc:type rdf:resource="http://purl.org/dc/dcmitype/StillImage" />
            <dc:title>add_arc</dc:title>
         </cc:Work>
         <cc:License rdf:about="http://creativecommons.org/licenses/by-sa/4.0/">
            <cc:permits rdf:resource="http://creativecommons.org/ns#Reproduction" />
            <cc:permits rdf:resource="http://creativecommons.org/ns#Distribution" />
            <cc:requires rdf:resource="http://creativecommons.org/ns#Notice" />
            <cc:requires rdf:resource="http://creativecommons.org/ns#Attribution" />
            <cc:permits rdf:resource="http://creativecommons.org/ns#DerivativeWorks" />
            <cc:requires rdf:resource="http://creativecommons.org/ns#ShareAlike" />
         </cc:License>
      </rdf:RDF>
   </metadata>
   <defs id="defs116951">
      <style id="style116943">.cls-1{fill:none;stroke:#545454;stroke-linecap:round;stroke-linejoin:round;}.cls-2{fill:#1a81c4;}.cls-3{fill:#bf2641;}.cls-4{fill:url(#Безымянный_градиент_19);}.cls-5{fill:url(#Безымянный_градиент_19-2);}.cls-6{fill:#fff;}</style>
      <linearGradient id="Безымянный_градиент_19" x1="12.2163" y1="18" x2="21.2782" y2="18" gradientUnits="userSpaceOnUse">
         <stop offset="0" stop-color="#ececec" id="stop116945" />
         <stop offset="1" stop-color="#c6c6c5" id="stop116947" />
      </linearGradient>
      <linearGradient id="Безымянный_градиент_19-2" x1="11.9269" y1="15.8216" x2="24.2653" y2="15.8216" xlink:href="#Безымянный_градиент_19" />
   </defs>
   <title id="title116953">exchange</title>
   <polygon class="cls-1" points="1.491,13.892 1.491,18.914 21.472,18.914 21.487,4.058 1.491,4.058 1.491,8.573 3.239,10.147 3.239,12.318 " id="polygon116955" transform="translate(-1,-1)" />
   <rect class="cls-2" x="14.0323" y="14.8554" width="4.3692002" height="6.1170001" id="rect116957" />
   <rect class="cls-2" x="2.6837001" y="14.8554" width="4.3692999" height="6.1170001" id="rect116959" />
   <rect class="cls-2" x="8.3558998" y="14.8554" width="4.3692002" height="6.1170001" id="rect116961" />
   <rect class="cls-2" x="14.0323" y="0" width="4.3692002" height="6.1169" id="rect116963" />
   <rect class="cls-2" x="2.6837001" y="0" width="4.3692999" height="6.1169" id="rect116965" />
   <rect class="cls-2" x="8.3558998" y="0" width="4.3692002" height="6.1169" id="rect116967" />
   <ellipse class="cls-3" cx="17" cy="17" rx="7.0065999" ry="7" id="ellipse116969" />
   <path class="cls-4" d="M 13.1834,19.66 H 11.698 a 0.4817,0.4817 0 1 1 0,-0.9633 h 1.4854 a 0.9569,0.9569 0 0 0 0.6812,-0.2823 l 3.51,-3.51 A 1.9138,1.9138 0 0 1 18.7368,14.34 h 1.0593 a 0.4817,0.4817 0 1 1 0,0.9633 h -1.0589 a 0.9565,0.9565 0 0 0 -0.6811,0.2823 l -3.51,3.51 A 1.9138,1.9138 0 0 1 13.1834,19.66 Z" id="path116971" style="fill:#ffffff;fill-opacity:1;stroke:none" />
   <polygon class="cls-5" points="23.784,15.822 20.128,14.842 20.128,16.801 " id="polygon116973" style="fill:#ffffff;fill-opacity:1" transform="translate(-1,-1)" />
   <path class="cls-6" d="M 19.7965,19.66 H 18.7372 A 1.9138,1.9138 0 0 1 17.375,19.0956 l -3.51,-3.51 A 0.9569,0.9569 0 0 0 13.1838,15.3033 H 11.698 a 0.4817,0.4817 0 1 1 0,-0.9633 h 1.4854 a 1.9138,1.9138 0 0 1 1.3623,0.5644 l 3.51,3.51 a 0.9565,0.9565 0 0 0 0.6811,0.2823 h 1.0593 a 0.4817,0.4817 0 1 1 0,0.9633 z" id="path116975" />
   <polygon class="cls-6" points="23.784,20.178 20.128,19.199 20.128,21.158 " id="polygon116977" transform="translate(-1,-1)" />
</svg>
