<svg xmlns="http://www.w3.org/2000/svg" height="48" width="48" version="1.0" xmlns:xlink="http://www.w3.org/1999/xlink">
 <defs>
  <radialGradient id="s" xlink:href="#a" gradientUnits="userSpaceOnUse" cy="486.65" cx="605.71" gradientTransform="matrix(-2.7744,0,0,1.9697,444.17,-872.88)" r="117.14"/>
  <linearGradient id="a">
   <stop offset="0"/>
   <stop stop-opacity="0" offset="1"/>
  </linearGradient>
  <radialGradient id="r" xlink:href="#a" gradientUnits="userSpaceOnUse" cy="486.65" cx="605.71" gradientTransform="matrix(2.7182,0,0,1.9697,-1790.1,-872.88)" r="117.14"/>
  <linearGradient id="l" y2="609.51" gradientUnits="userSpaceOnUse" x2="302.86" gradientTransform="matrix(2.2427,0,0,1.9697,-1504,-872.89)" y1="366.65" x1="302.86">
   <stop stop-opacity="0" offset="0"/>
   <stop offset=".5"/>
   <stop stop-opacity="0" offset="1"/>
  </linearGradient>
  <linearGradient id="k" y2="6.8892" gradientUnits="userSpaceOnUse" x2="36" gradientTransform="matrix(1.8012,0,0,1.8095,-36.033,-5.4524)" y1="24" x1="36">
   <stop stop-color="#4f7633" offset="0"/>
   <stop offset="1"/>
  </linearGradient>
  <linearGradient id="m" y2="28" gradientUnits="userSpaceOnUse" x2="-5" gradientTransform="matrix(1.8217,0,0,1.8541,19.808,-28.322)" y1="30.486" x1="-5">
   <stop stop-color="#d80000" offset="0"/>
   <stop stop-color="#ff1919" offset="1"/>
  </linearGradient>
  <linearGradient id="n" y2="8" gradientUnits="userSpaceOnUse" x2="12.734" gradientTransform="matrix(2.125,0,0,1.8421,-12.063,-6.4737)" y1="8" x1="20.737">
   <stop stop-color="#555753" offset="0"/>
   <stop stop-color="#d3d7cf" offset="1"/>
  </linearGradient>
  <linearGradient id="o" y2="10" gradientUnits="userSpaceOnUse" x2="20" gradientTransform="matrix(1.8889,0,0,1.8421,-9.1111,-6.4737)" y1="10" x1="15">
   <stop stop-color="#eeeeec" offset="0"/>
   <stop stop-color="#b6b9b2" offset="1"/>
  </linearGradient>
  <linearGradient id="p" y2="10" gradientUnits="userSpaceOnUse" x2="19" gradientTransform="matrix(2.4864,0,0,1.5,-25.269,-4)" y1="3" x1="19">
   <stop offset="0"/>
   <stop stop-opacity="0" offset="1"/>
  </linearGradient>
  <linearGradient id="q" y2="12.805" gradientUnits="userSpaceOnUse" x2="10" gradientTransform="matrix(.91304 0 0 .91304 1.7174 2.2609)" y1="44.016" x1="10">
   <stop stop-color="#fff" offset="0"/>
   <stop stop-color="#fff" stop-opacity="0" offset="1"/>
  </linearGradient>
 </defs>
 <g transform="matrix(.020804 0 0 .017667 41.567 40.263)">
  <rect opacity=".39196" style="color:#000000" height="478.36" width="1082.9" y="-150.7" x="-1234.8" fill="url(#l)"/>
  <path opacity=".40206" style="color:#000000" fill="url(#r)" d="m-151.94-150.68v478.33c139.98 0.90045 338.41-107.17 338.41-239.2s-156.21-239.13-338.41-239.13z"/>
  <path opacity=".40206" style="color:#000000" fill="url(#s)" d="m-1227.8-150.68v478.33c-142.87 0.90045-345.4-107.17-345.4-239.2s159.44-239.13 345.4-239.13z"/>
 </g>
 <rect style="color:#000000" height="38" width="27.018" stroke="#2e3436" y="4.5" x="13.5" stroke-width="1px" fill="url(#k)"/>
 <path d="m15.574 41.53h23.937v-35.807" stroke-opacity=".36486" stroke="#73d216" stroke-width="1px" fill="none"/>
 <path style="color:#000000" d="m14.5 5.5h17v27.632l-17 7.3684v-35z" stroke="url(#n)" stroke-width="1px" fill="url(#o)"/>
 <path style="color:#000000" d="m13.482 14.5v5.9669h-10.98v11.108h10.98v5.9254l13.018-11.125-13.018-11.875z" stroke="#a60f11" stroke-width="1px" fill="url(#m)"/>
 <path style="color:#000000" d="m14.504 16.777v4.7376h-10.984v9.0376h10.984v4.7073l10.363-8.941-10.363-9.542z" stroke-opacity=".23874" stroke="#fff" stroke-width="1px" fill="none"/>
 <path d="m30.546 7.3868-0.018 24.986-15.028 6.597" stroke-opacity=".61261" stroke="#fff" stroke-width="1px" fill="none"/>
 <path fill-rule="evenodd" fill="url(#p)" d="m17 5 12.432 6h7.4592v-6h-19.891z"/>
 <rect style="color:#000000" height="1" width="1" y="19" x="28" fill="#555753"/>
 <rect style="color:#000000" height="1" width="1" y="20" x="29"/>
 <rect style="color:#000000" height="1" width="1" y="21" x="29"/>
 <rect style="color:#000000" height="1" width="1" y="21" x="28"/>
 <rect style="color:#000000" height="1" width="1" y="22" x="27"/>
 <rect style="color:#000000" height="1" width="1" y="20" x="28" fill="#555753"/>
 <rect style="color:#000000" height="1" width="1" y="22" x="28" fill="#555753"/>
 <path opacity=".52402" style="color:#000000" fill="url(#q)" d="m14.015 15.5v5.4497h-10.015v2.482c2.308 1.547 6.144 2.568 10.5 2.568 3.5582 0 6.7837-0.67858 9.1019-1.769l-9.587-8.731z"/>
</svg>
