<svg id="Слой_1" data-name="Слой 1"
  xmlns:dc="http://purl.org/dc/elements/1.1/"
  xmlns:cc="http://creativecommons.org/ns#"
  xmlns:rdf="http://www.w3.org/1999/02/22-rdf-syntax-ns#"
  xmlns="http://www.w3.org/2000/svg" viewBox="0 0 26 26">
  <metadata id="metadata43">
    <rdf:RDF>
      <cc:Work rdf:about="">
        <cc:license rdf:resource="http://creativecommons.org/licenses/by-sa/4.0/" />
        <dc:format>image/svg+xml</dc:format>
        <dc:type rdf:resource="http://purl.org/dc/dcmitype/StillImage" />
        <dc:title>add_arc</dc:title>
      </cc:Work>
      <cc:License rdf:about="http://creativecommons.org/licenses/by-sa/4.0/">
        <cc:permits rdf:resource="http://creativecommons.org/ns#Reproduction" />
        <cc:permits rdf:resource="http://creativecommons.org/ns#Distribution" />
        <cc:requires rdf:resource="http://creativecommons.org/ns#Notice" />
        <cc:requires rdf:resource="http://creativecommons.org/ns#Attribution" />
        <cc:permits rdf:resource="http://creativecommons.org/ns#DerivativeWorks" />
        <cc:requires rdf:resource="http://creativecommons.org/ns#ShareAlike" />
      </cc:License>
    </rdf:RDF>
  </metadata>
  <defs>
    <style>.cls-1{fill:#b9b9b9;}.cls-2{fill:#e61c50;}.cls-3{fill:none;stroke:#f5f5f5;stroke-linecap:round;stroke-linejoin:round;stroke-width:2px;}</style>
  </defs>
  <title>export</title>
  <path class="cls-1" d="M4.4976.998h14a3.5,3.5,0,0,1,3.5,3.5v14a3.5,3.5,0,0,1-3.5,3.5h-14a3.5,3.5,0,0,1-3.5-3.5v-14A3.5,3.5,0,0,1,4.4976.998Z"/>
  <path class="cls-2" d="M24.9824,18.0028A6.9925,6.9925,0,1,1,17.99,10.9989,6.9982,6.9982,0,0,1,24.9824,18.0028Z"/>
  <line class="cls-3" x1="18.0935" y1="14.6321" x2="18.0935" y2="21.636"/>
  <polyline class="cls-3" points="15.344 17.166 18.093 14.413 20.843 17.166"/>
</svg>