<svg id="Слой_1" data-name="Слой 1"
  xmlns:cc="http://creativecommons.org/ns#"
  xmlns:rdf="http://www.w3.org/1999/02/22-rdf-syntax-ns#"
  xmlns="http://www.w3.org/2000/svg" viewBox="0 0 26 26">
  <metadata id="metadata43">
    <rdf:RDF>
      <cc:Work rdf:about="">
        <cc:license rdf:resource="http://creativecommons.org/licenses/by/4.0/" />
      </cc:Work>
      <cc:License rdf:about="http://creativecommons.org/licenses/by/4.0/">
        <cc:permits rdf:resource="http://creativecommons.org/ns#Reproduction" />
        <cc:permits rdf:resource="http://creativecommons.org/ns#Distribution" />
        <cc:requires rdf:resource="http://creativecommons.org/ns#Notice" />
        <cc:requires rdf:resource="http://creativecommons.org/ns#Attribution" />
        <cc:permits rdf:resource="http://creativecommons.org/ns#DerivativeWorks" />
      </cc:License>
    </rdf:RDF>
  </metadata>
  <defs>
    <style>.cls-1{fill:#b9b9b9;}.cls-2{fill:#1a81c4;}.cls-3{fill:#fff;}.cls-4{fill:#e61c50;}.cls-5{fill:none;stroke:#f5f5f5;stroke-linecap:round;stroke-linejoin:round;stroke-width:2px;}</style>
  </defs>
  <title>export_dsn</title>
  <path class="cls-1" d="M7.0248,1.0067h11.95A2.9933,2.9933,0,0,1,21.9686,4V15.9966A2.9934,2.9934,0,0,1,18.9752,18.99H7.0248a2.9934,2.9934,0,0,1-2.9934-2.9934V4A2.9934,2.9934,0,0,1,7.0248,1.0067Z"/>
  <rect class="cls-2" x="1.0002" y="4.0003" width="18.7099" height="9.2299"/>
  <path class="cls-3" d="M3.0693,11.6H1.9961V10.5635H3.0693Z"/>
  <path class="cls-3" d="M4.2217,9.2607a3.1756,3.1756,0,0,1,.4922-1.8554A1.5908,1.5908,0,0,1,6.0977,6.7a1.5091,1.5091,0,0,1,.6982.1582A1.5652,1.5652,0,0,1,7.33,7.31V4.6641H8.4072V11.6H7.5029l-.1064-.5957a1.5892,1.5892,0,0,1-.5537.5137,1.5573,1.5573,0,0,1-.7539.1758,1.6292,1.6292,0,0,1-1.375-.6455,2.7159,2.7159,0,0,1-.4922-1.6934Zm1.0771.0938a1.9422,1.9422,0,0,0,.2549,1.0625.893.893,0,0,0,.81.3955,1.0826,1.0826,0,0,0,.5791-.1465,1.1149,1.1149,0,0,0,.3877-.418V8.1494a1.1277,1.1277,0,0,0-.3906-.415,1.0487,1.0487,0,0,0-.5674-.1494.87.87,0,0,0-.8116.4648,2.46,2.46,0,0,0-.2617,1.2109Z"/>
  <path class="cls-3" d="M12.2617,10.293a.5043.5043,0,0,0-.2129-.4141,2.1217,2.1217,0,0,0-.7939-.2891,3.2812,3.2812,0,0,1-1.3008-.5175,1.0851,1.0851,0,0,1-.4414-.9141,1.3027,1.3027,0,0,1,.51-1.0312A2.0261,2.0261,0,0,1,11.3662,6.7a2.1009,2.1009,0,0,1,1.3945.4336,1.2835,1.2835,0,0,1,.4942,1.0732l-.0088.0274H12.2129a.68.68,0,0,0-.2256-.5117.8734.8734,0,0,0-.6211-.2129.893.893,0,0,0-.5947.1748.5476.5476,0,0,0-.2041.43.4816.4816,0,0,0,.1933.4023,2.0662,2.0662,0,0,0,.7823.2646,3.2894,3.2894,0,0,1,1.3418.5264,1.1123,1.1123,0,0,1,.4365.9268,1.26,1.26,0,0,1-.5342,1.0537,2.2678,2.2678,0,0,1-1.4082.4053,2.1469,2.1469,0,0,1-1.4766-.4805A1.3554,1.3554,0,0,1,9.3887,10.11l.0088-.0264h1.0019a.7189.7189,0,0,0,.3018.6084,1.2043,1.2043,0,0,0,.6914.1914,1.1061,1.1061,0,0,0,.6435-.16A.5012.5012,0,0,0,12.2617,10.293Z"/>
  <path class="cls-3" d="M15.2637,6.7891l.0625.6933a1.7072,1.7072,0,0,1,.5918-.5752,1.577,1.577,0,0,1,.8047-.207,1.5089,1.5089,0,0,1,1.1689.456,2.0477,2.0477,0,0,1,.4189,1.42V11.6H17.2324V8.585a1.0794,1.0794,0,0,0-.2236-.7705.91.91,0,0,0-.6807-.2295,1.1347,1.1347,0,0,0-.5635.14,1.1724,1.1724,0,0,0-.4072.3848V11.6H14.2793v-4.81Z"/>
  <path class="cls-4" d="M24.9824,18.0028A6.9925,6.9925,0,1,1,17.99,10.9989,6.9982,6.9982,0,0,1,24.9824,18.0028Z"/>
  <line class="cls-5" x1="18.0935" y1="14.6321" x2="18.0935" y2="21.636"/>
  <polyline class="cls-5" points="15.344 17.166 18.093 14.413 20.843 17.166"/>
</svg>