<svg id="Слой_1" data-name="Слой 1"
  xmlns:dc="http://purl.org/dc/elements/1.1/"
  xmlns:cc="http://creativecommons.org/ns#"
  xmlns:rdf="http://www.w3.org/1999/02/22-rdf-syntax-ns#"
  xmlns="http://www.w3.org/2000/svg" viewBox="0 0 26 26">
  <metadata id="metadata43">
    <rdf:RDF>
      <cc:Work rdf:about="">
        <cc:license rdf:resource="http://creativecommons.org/licenses/by-sa/4.0/" />
        <dc:format>image/svg+xml</dc:format>
        <dc:type rdf:resource="http://purl.org/dc/dcmitype/StillImage" />
        <dc:title>add_arc</dc:title>
      </cc:Work>
      <cc:License rdf:about="http://creativecommons.org/licenses/by-sa/4.0/">
        <cc:permits rdf:resource="http://creativecommons.org/ns#Reproduction" />
        <cc:permits rdf:resource="http://creativecommons.org/ns#Distribution" />
        <cc:requires rdf:resource="http://creativecommons.org/ns#Notice" />
        <cc:requires rdf:resource="http://creativecommons.org/ns#Attribution" />
        <cc:permits rdf:resource="http://creativecommons.org/ns#DerivativeWorks" />
        <cc:requires rdf:resource="http://creativecommons.org/ns#ShareAlike" />
      </cc:License>
    </rdf:RDF>
  </metadata>
  <defs>
    <style>.cls-1{fill:#b9b9b9;}.cls-2{fill:#1a81c4;}.cls-3{fill:#fff;}.cls-4{fill:#e61c50;}.cls-5{fill:none;stroke:#f5f5f5;stroke-linecap:round;stroke-linejoin:round;stroke-width:2px;}</style>
  </defs>
  <title>export_idf</title>
  <rect class="cls-1" x="4.049" y="1" width="17.9372" height="17.9833" rx="2.9934"/>
  <rect class="cls-2" x="1.0056" y="4.0004" width="18.71" height="9.2299"/>
  <path class="cls-3" d="M3.0742,11.792H2.001V10.7559H3.0742Z"/>
  <path class="cls-3" d="M5.5742,5.8037H4.4971V4.8564H5.5742Zm0,5.9883H4.4971V6.9814H5.5742Z"/>
  <path class="cls-3" d="M6.582,9.4531a3.1762,3.1762,0,0,1,.4922-1.8554A1.591,1.591,0,0,1,8.458,6.8926a1.5085,1.5085,0,0,1,.6982.1582A1.5652,1.5652,0,0,1,9.69,7.502V4.8564h1.0772V11.792H9.8633l-.1065-.5957a1.5884,1.5884,0,0,1-.5537.5137,1.5582,1.5582,0,0,1-.7539.1757,1.6291,1.6291,0,0,1-1.375-.6455A2.7163,2.7163,0,0,1,6.582,9.5469Zm1.0772.0938a1.9413,1.9413,0,0,0,.2549,1.0625.8932.8932,0,0,0,.8095.3955,1.0824,1.0824,0,0,0,.5791-.1465A1.1156,1.1156,0,0,0,9.69,10.44V8.3418A1.1269,1.1269,0,0,0,9.3,7.9268a1.0476,1.0476,0,0,0-.5674-.1495.87.87,0,0,0-.8115.4649,2.46,2.46,0,0,0-.2617,1.2109Z"/>
  <path class="cls-3" d="M12.2754,11.792v-4.01h-.7315V6.9814h.7315V6.4219a1.6576,1.6576,0,0,1,.4326-1.2276,1.6436,1.6436,0,0,1,1.2129-.4316,2.1675,2.1675,0,0,1,.3145.0244c.1064.0166.2265.04.3593.0693l-.1113.836c-.0586-.0117-.125-.0225-.1973-.0313a1.9182,1.9182,0,0,0-.2324-.0136.6622.6622,0,0,0-.5254.2.8447.8447,0,0,0-.1758.5742v.5595h.9756v.8008h-.9756v4.01Z"/>
  <path class="cls-4" d="M25,17.9961a6.9925,6.9925,0,1,1-6.9925-7.0039A6.9981,6.9981,0,0,1,25,17.9961Z"/>
  <line class="cls-5" x1="18.1112" y1="14.6254" x2="18.1112" y2="21.6293"/>
  <polyline class="cls-5" points="15.362 17.16 18.111 14.406 20.861 17.16"/>
</svg>