<svg xmlns="http://www.w3.org/2000/svg" height="48" width="48" version="1.1" viewBox="0 0 48 48">
 <defs>
  <linearGradient id="g" y2="56.231" gradientUnits="userSpaceOnUse" x2="2.7471" gradientTransform="translate(-110.15,-27.013)" y1="56.231" x1="64.13">
   <stop stop-color="#646464" offset="0"/>
   <stop stop-color="#7e7e7e" offset="0"/>
   <stop stop-color="#999" stop-opacity=".58763" offset="0.9"/>
   <stop stop-color="#ccc" stop-opacity=".61856" offset="0.95"/>
   <stop stop-color="#fff" stop-opacity="0" offset="1"/>
  </linearGradient>
  <linearGradient id="h" y2="47.404" gradientUnits="userSpaceOnUse" x2="4" gradientTransform="translate(-110.15,-27.031)" y1="47.404" x1="72">
   <stop stop-color="#fff" offset="0"/>
   <stop stop-color="#fff" offset=".5"/>
   <stop stop-color="#fff" stop-opacity="0" offset="1"/>
  </linearGradient>
  <filter id="f" height="1.2769" width="1.2769" color-interpolation-filters="sRGB" y="-.13847" x="-.13847">
   <feGaussianBlur stdDeviation="0.11539203"/>
  </filter>
  <radialGradient id="j" gradientUnits="userSpaceOnUse" cy="39.161" cx="25.456" gradientTransform="matrix(1 0 0 .31532 0 26.813)" r="19.622">
   <stop offset="0"/>
   <stop stop-opacity="0" offset="1"/>
  </radialGradient>
  <linearGradient id="i" y2="39.685" gradientUnits="userSpaceOnUse" x2="34.534" gradientTransform="matrix(1.2419,0,0,1.2419,-93.184,-24.053)" y1="12.285" x1="14.463">
   <stop stop-color="#c9c9c9" offset="0"/>
   <stop stop-color="#f8f8f8" offset=".25"/>
   <stop stop-color="#e2e2e2" offset=".5"/>
   <stop stop-color="#b0b0b0" offset=".75"/>
   <stop stop-color="#c9c9c9" offset="1"/>
  </linearGradient>
 </defs>
 <g transform="matrix(0,-2.1261,1.54,0,1.4337,44.254)">
  <rect fill-opacity="0" height="16" width="16" y="0" x="0"/>
 </g>
 <g transform="matrix(.2836 0 0 .32307 55.098 7.9178)">
  <path fill="url(#g)" d="m-70.492 60.987c-0.94393-0.07733-1.8298-0.48705-2.5-1.1562l-8-8c-1.4466-1.4472-1.568-3.7527-0.28125-5.3438l10.812-13.5h-35.687c-2.209-0.000221-3.9998-1.791-4-4v-12c0.00022-2.209 1.791-3.9998 4-4h35.687l-10.812-13.5c-1.2867-1.591-1.1654-3.8966 0.28125-5.3438l8-8c0.76629-0.7668 1.8223-1.2052 2.9062-1.1875 1.0839 0.01768 2.1029 0.48988 2.8438 1.2812l32 34c1.4602 1.5426 1.4602 3.9574 0 5.5l-32 34c-0.83566 0.89103-2.0326 1.3514-3.25 1.25zm0.34375-4 32-34-32-34-8 8 16 20h-44v12h44l-16 20 8 8z"/>
  <path fill="url(#h)" d="m-78.148 48.969 8 8 32-34-32-34-8 8 16 20h-44v12h44l-16 20z"/>
 </g>
 <g transform="matrix(.65101 0 0 .63344 42.965 -.76184)">
  <g transform="matrix(1.1267,0,0,1.1392,-17.102,-12.146)">
   <g opacity=".71875" filter="url(#f)" transform="matrix(11.8,0,0,11.536,-260.89,-12.073)">
    <path fill-rule="evenodd" d="m-15.125 8.9375a0.90625 0.9375 0 1 1 -1.8125 0 0.90625 0.9375 0 1 1 1.8125 0z" transform="matrix(1.1034,0,-2.1667e-7,1.0667,37.69,-5.5333)"/>
   </g>
   <path d="m-15.125 8.9375a0.90625 0.9375 0 1 1 -1.8125 0 0.90625 0.9375 0 1 1 1.8125 0z" transform="matrix(9.1879,0,-1.8041e-6,8.7704,119.31,-46.412)" stroke="#16bf11" stroke-width=".79393" fill="none"/>
   <g fill="#fff" transform="matrix(4.6582,0,0,4.6768,-121.15,13.266)">
    <path d="m-15.125 8.9375a0.90625 0.9375 0 1 1 -1.8125 0 0.90625 0.9375 0 1 1 1.8125 0z" fill-rule="evenodd" transform="matrix(1.1034,0,-2.1667e-7,1.0667,37.69,-5.5333)" fill="#fff"/>
   </g>
  </g>
  <g transform="matrix(2.9379,0,0,2.1996,-63.292,7.1811)">
   <rect fill-opacity="0" height="16" width="16" y="0" x="0"/>
  </g>
 </g>
 <g transform="matrix(.59227 0 0 .54182 66.819 32.162)">
  <path opacity=".40909" style="color:#000000" d="m45.078 39.161a19.622 6.1872 0 1 1 -39.244 0 19.622 6.1872 0 1 1 39.244 0z" transform="translate(-89.04,-14.369)" fill="url(#j)"/>
  <path style="color:#000000" fill="url(#i)" d="m-64.906-16.376c-0.46544 0.03185-0.91783 0.10394-1.375 0.15625h-0.03125l-1.0938 5.9688c-1.7827 0.40599-3.4599 1.095-4.9688 2.0312l-4.9062-3.5312c-1.3263 1.0297-2.5332 2.2306-3.5938 3.5312l3.4062 4.9687c-1.0342 1.5805-1.812 3.3852-2.25 5.2812-0.000075 0.009-0.000061 0.02969 0 0.03125l-5.9375 0.9375c-0.10855 0.88663-0.15625 1.8029-0.15625 2.7188 0 0.7493 0.02069 1.4886 0.09375 2.2188l5.9375 1.0625c0.42228 2.0619 1.2245 3.9875 2.3438 5.6875l-3.5312 4.8438c1.0113 1.2555 2.1789 2.3986 3.4375 3.4062l5-3.4375c1.7474 1.1147 3.6981 1.8964 5.8125 2.2812l0.9375 5.9062c0.66618 0.06064 1.3493 0.0625 2.0312 0.0625 0.96268-0.000001 1.8822-0.03648 2.8125-0.15625l1.125-6.0312c2.0076-0.4996 3.8935-1.3663 5.5312-2.5312l4.8125 3.5c1.248-1.0618 2.3893-2.2823 3.375-3.5938l-3.5-5.0625c0.94785-1.637 1.6046-3.4431 1.9375-5.375l5.9062-0.9375c0.05179-0.61635 0.0625-1.2141 0.0625-1.8438 0-1.0942-0.12718-2.1671-0.28125-3.2188l-6-1.0938c-0.47019-1.7362-1.2417-3.3561-2.2188-4.8125l3.5312-4.8437c-1.0946-1.3386-2.3432-2.5752-3.7188-3.625l-5.0938 3.5c-1.464-0.86584-3.0395-1.5302-4.75-1.9062l-0.9375-5.9375c-0.8533-0.10038-1.7136-0.15625-2.5938-0.15625-0.23787 0.000001-0.48268-0.0075-0.71875 0-0.11508 0.0036-0.22897-0.0067-0.34375 0-0.03109 0.0018-0.06272-0.0021-0.09375 0zm0.8125 15.188c0.11417-0.0058 0.22815 0 0.34375 0 3.6991 0 6.7188 3.0196 6.7188 6.7188 0.000001 3.6991-3.0196 6.6875-6.7188 6.6875-3.6991 0.000001-6.6875-2.9884-6.6875-6.6875 0.000001-3.5835 2.8046-6.5392 6.3438-6.7188z" stroke="#808080"/>
  <path opacity=".64773" style="color:#000000" d="m36.239 23.782a12.728 12.728 0 1 1 -25.456 0 12.728 12.728 0 1 1 25.456 0z" transform="matrix(.60652 0 0 .60652 -78.006 -8.9075)" stroke="#fff" stroke-width="1.6488" fill="none"/>
  <path opacity=".34659" style="color:#000000" d="m-65.598-15.194-0.87819 5.779c-1.671 0.38055-4.7447 1.5444-6.159 2.422l-4.672-3.4872c-1.2432 0.96516-1.3284 1.0306-2.3225 2.2498l3.3781 5.01c-0.96942 1.4815-2.1338 4.1215-2.5519 6.0081 0 0-5.9194 0.99784-5.9194 0.99784-0.10175 0.83107-0.05285 2.6098 0.01563 3.2942l5.6542 1.0186c0.39581 1.9327 1.877 5.0436 2.9262 6.637l-3.5756 4.724c0.94794 1.1768 1.1377 1.2845 2.3174 2.229l4.7812-3.5028c1.6379 1.0449 4.889 2.3159 6.8709 2.6766l0.78469 5.7063c0.62443 0.05684 2.3495 0.21628 3.2214 0.10402l0.87819-5.9402c1.8817-0.46829 5.1332-1.803 6.6683-2.8949l4.7761 3.4508c1.1698-0.99525 1.1803-1.1452 2.1042-2.3745l-3.5392-5.0307c0.88845-1.5344 2.0372-4.5352 2.3492-6.346l5.7946-0.96146c0.04855-0.57772 0.05091-2.1888-0.0935-3.1745l-5.9038-1.0186c-0.44073-1.6274-1.9532-4.56-2.869-5.9251l3.7524-4.724c-1.026-1.2547-1.4074-1.4269-2.6968-2.4109l-4.9423 3.5392c-1.3722-0.81157-4.1086-2.0487-5.7119-2.4012l-0.87308-5.6542c-0.79982-0.09408-3.1074-0.05231-3.5645 0z" stroke="#fff" fill="none"/>
 </g>
</svg>
