<svg id="Слой_1" data-name="Слой 1"
  xmlns:cc="http://creativecommons.org/ns#"
  xmlns:rdf="http://www.w3.org/1999/02/22-rdf-syntax-ns#"
  xmlns="http://www.w3.org/2000/svg" viewBox="0 0 26 26">
  <metadata id="metadata43">
    <rdf:RDF>
      <cc:Work rdf:about="">
        <cc:license rdf:resource="http://creativecommons.org/licenses/by/4.0/" />
      </cc:Work>
      <cc:License rdf:about="http://creativecommons.org/licenses/by/4.0/">
        <cc:permits rdf:resource="http://creativecommons.org/ns#Reproduction" />
        <cc:permits rdf:resource="http://creativecommons.org/ns#Distribution" />
        <cc:requires rdf:resource="http://creativecommons.org/ns#Notice" />
        <cc:requires rdf:resource="http://creativecommons.org/ns#Attribution" />
        <cc:permits rdf:resource="http://creativecommons.org/ns#DerivativeWorks" />
      </cc:License>
    </rdf:RDF>
  </metadata>
  <defs>
    <style>.cls-1{fill:#b9b9b9;}.cls-2{fill:#1a81c4;}.cls-3{fill:#fff;}.cls-4{fill:#e61c50;}.cls-5{fill:none;stroke:#f5f5f5;stroke-linecap:round;stroke-linejoin:round;stroke-width:2px;}</style>
  </defs>
  <title>export_step</title>
  <path class="cls-1" d="M7.0248,1.0067h11.95A2.9933,2.9933,0,0,1,21.9686,4V15.9966A2.9934,2.9934,0,0,1,18.9752,18.99H7.0248a2.9934,2.9934,0,0,1-2.9934-2.9934V4A2.9934,2.9934,0,0,1,7.0248,1.0067Z"/>
  <rect class="cls-2" x="1.0002" y="4.0003" width="18.7099" height="9.2299"/>
  <path class="cls-3" d="M3.0693,10.67H1.9961V9.6338H3.0693Z"/>
  <path class="cls-3" d="M7.1172,9.3633a.5043.5043,0,0,0-.2129-.4141A2.1209,2.1209,0,0,0,6.11,8.66,3.2826,3.2826,0,0,1,4.81,8.1426a1.0847,1.0847,0,0,1-.4414-.9141,1.3029,1.3029,0,0,1,.51-1.0312,2.0266,2.0266,0,0,1,1.3438-.4268,2.1011,2.1011,0,0,1,1.3945.4336A1.2838,1.2838,0,0,1,8.11,7.2773l-.0088.0274H7.0684a.68.68,0,0,0-.2256-.5117A.8734.8734,0,0,0,6.2217,6.58a.8929.8929,0,0,0-.5947.1748.5476.5476,0,0,0-.2041.43.4816.4816,0,0,0,.1933.4023,2.0677,2.0677,0,0,0,.7822.2647A3.2874,3.2874,0,0,1,7.74,8.3779a1.1123,1.1123,0,0,1,.4366.9268,1.26,1.26,0,0,1-.5342,1.0537,2.268,2.268,0,0,1-1.4082.4053,2.1466,2.1466,0,0,1-1.4766-.48,1.3558,1.3558,0,0,1-.5137-1.1025l.0088-.0264h1.002a.7191.7191,0,0,0,.3017.6084,1.2047,1.2047,0,0,0,.6914.1914,1.1065,1.1065,0,0,0,.6436-.16A.5012.5012,0,0,0,7.1172,9.3633Z"/>
  <path class="cls-3" d="M10.4834,4.69v1.169h.86V6.66h-.86V9.3184a.582.582,0,0,0,.1279.4248.47.47,0,0,0,.3418.1269,1.0134,1.0134,0,0,0,.1729-.0156.9933.9933,0,0,0,.1592-.043l.1162.792a1.2639,1.2639,0,0,1-.3282.1172,1.8184,1.8184,0,0,1-.3955.043,1.2309,1.2309,0,0,1-.9306-.35A1.53,1.53,0,0,1,9.41,9.3184V6.66H8.6777V5.8594H9.41V4.69Z"/>
  <path class="cls-3" d="M16.5049,8.4248a2.7166,2.7166,0,0,1-.4922,1.6934,1.6251,1.6251,0,0,1-1.37.6455,1.68,1.68,0,0,1-.7227-.1475,1.4832,1.4832,0,0,1-.541-.4307V12.52H12.3008v-6.66H13.21l.1064.6045a1.6068,1.6068,0,0,1,.5566-.5157,1.5586,1.5586,0,0,1,.7559-.1777,1.5934,1.5934,0,0,1,1.3818.7051,3.1693,3.1693,0,0,1,.4942,1.8555Zm-1.0733-.0957a2.344,2.344,0,0,0-.2773-1.2051.9.9,0,0,0-.8272-.4687,1.0648,1.0648,0,0,0-.5712.1445,1.0516,1.0516,0,0,0-.377.4014V9.3721a.9955.9955,0,0,0,.377.3886,1.1372,1.1372,0,0,0,.58.1358.9252.9252,0,0,0,.8233-.4063,1.8858,1.8858,0,0,0,.2724-1.0683Z"/>
  <path class="cls-4" d="M24.9824,18.0028A6.9925,6.9925,0,1,1,17.99,10.9989,6.9982,6.9982,0,0,1,24.9824,18.0028Z"/>
  <line class="cls-5" x1="18.0935" y1="14.6321" x2="18.0935" y2="21.636"/>
  <polyline class="cls-5" points="15.344 17.166 18.093 14.413 20.843 17.166"/>
</svg>