<svg xmlns="http://www.w3.org/2000/svg" height="64" width="64" version="1.1">
 <defs>
  <linearGradient id="d" y2="-151.35" gradientUnits="userSpaceOnUse" x2="682.52" gradientTransform="matrix(-1,0,0,1,921.6,341.5)" y1="-167.43" x1="747">
   <stop stop-color="#fcaf3e" offset="0"/>
   <stop stop-color="#fcaf3e" stop-opacity="0.65" offset="1"/>
  </linearGradient>
  <linearGradient id="e" y2="-2857.7" gradientUnits="userSpaceOnUse" x2="-1416.8" gradientTransform="matrix(.2344 0 0 .2344 550.77 853.66)" y1="-2902.3" x1="-1597">
   <stop stop-color="#fcaf3e" offset="0"/>
   <stop stop-color="#f2983d" stop-opacity=".75660" offset=".49680"/>
   <stop stop-color="#e77c3c" stop-opacity="0.51" offset="1"/>
  </linearGradient>
  <radialGradient id="f" gradientUnits="userSpaceOnUse" cy="-969.15" cx="-1035.3" gradientTransform="matrix(.4465 -.2703 -.2019 -.3361 447.65 -605.27)" r="76.859">
   <stop stop-color="#fffbd7" offset="0"/>
   <stop stop-color="#e77c3c" offset="1"/>
  </radialGradient>
 </defs>
 <g transform="matrix(0,-3.0136,2.515,0,2.0803,68.209)">
  <rect fill-opacity="0" height="16" width="16" y="0" x="0"/>
 </g>
 <g transform="matrix(0,-2.483,2.4106,0,5.753,12.954)">
  <g stroke-linejoin="round">
   <rect transform="rotate(90)" height="14.619" width="9.7086" stroke="#000" y="3.4905" x="1.904" stroke-width="0.4" fill="#fff"/>
   <path d="m693.26 625.06a18.914 18.914 0 0 1 -37.828 0.11702" transform="matrix(0 .071482 -.071482 0 41.168 -41.24)" stroke="#030303" stroke-width="5.5958" fill="none"/>
  </g>
  <g stroke-linejoin="round" transform="translate(-.0375 -.15)" stroke="#030303">
   <rect transform="rotate(90)" height="2.511" width="4.7176" y="13.332" x="-.31959" stroke-width="0.3" fill="#ff7800"/>
   <rect transform="rotate(90)" height="2.511" width="4.7176" y="5.3636" x="-.31959" stroke-width="0.3" fill="#ff7800"/>
   <path d="m654.65 737.28a9.5805 9.5805 0 1 1 -19.161 0 9.5805 9.5805 0 1 1 19.161 0z" transform="matrix(0 .071482 -.071482 0 46.083 -44.072)" stroke-width="4.1969" fill="#ffede0"/>
   <rect transform="rotate(90)" height="2.511" width="4.7176" y="9.3478" x="-.31959" stroke-width="0.3" fill="#ff7800"/>
   <path d="m654.65 737.28a9.5805 9.5805 0 1 1 -19.161 0 9.5805 9.5805 0 1 1 19.161 0z" transform="matrix(0 .071482 -.071482 0 42.08 -44.072)" stroke-width="4.1969" fill="#ffede0"/>
   <path d="m654.65 737.28a9.5805 9.5805 0 1 1 -19.161 0 9.5805 9.5805 0 1 1 19.161 0z" transform="matrix(0 .071482 -.071482 0 38.077 -44.072)" stroke-width="4.1969" fill="#ffede0"/>
  </g>
  <g transform="translate(-.0375 9.6261)">
   <rect stroke-linejoin="round" transform="rotate(90)" height="2.511" width="4.7176" stroke="#030303" y="13.332" x="-.31959" stroke-width="0.3" fill="#ff7800"/>
   <rect stroke-linejoin="round" transform="rotate(90)" height="2.511" width="4.7176" stroke="#030303" y="5.3636" x="-.31959" stroke-width="0.3" fill="#ff7800"/>
   <path stroke-linejoin="round" d="m654.65 737.28a9.5805 9.5805 0 1 1 -19.161 0 9.5805 9.5805 0 1 1 19.161 0z" transform="matrix(0 .071482 -.071482 0 46.083 -44.072)" stroke="#030303" stroke-width="4.1969" fill="#ffede0"/>
   <rect stroke-linejoin="round" transform="rotate(90)" height="2.511" width="4.7176" stroke="#030303" y="9.3478" x="-.31959" stroke-width="0.3" fill="#ff7800"/>
   <path stroke-linejoin="round" d="m654.65 737.28a9.5805 9.5805 0 1 1 -19.161 0 9.5805 9.5805 0 1 1 19.161 0z" transform="matrix(0 .071482 -.071482 0 42.08 -44.072)" stroke="#030303" stroke-width="4.1969" fill="#ffede0"/>
   <g stroke-width="0.3">
    <path stroke-linejoin="round" d="m654.65 737.28a9.5805 9.5805 0 1 1 -19.161 0 9.5805 9.5805 0 1 1 19.161 0z" transform="matrix(0 .071482 -.071482 0 38.077 -44.072)" stroke="#030303" stroke-width="4.1969" fill="#ffede0"/>
   </g>
  </g>
 </g>
 <path opacity=".58594" fill="#bc2b25" d="m11.503 56.54h21.074l-0.000035-33.819h-7.0245l-1.7561 3.0744h-3.5123l-1.7561-3.0744h-7.0245v33.819z"/>
 <g transform="matrix(.73946 .41414 -.39433 .66524 -32.515 -82.578)">
  <g transform="matrix(-.56704 .44745 .40205 .46203 185.28 -103.78)">
   <path fill="none" d="m168.24 132.25h63.709v63.708h-63.71v-63.71z"/>
   <path opacity=".2" d="m199.09 132.53c0.77 0.38 1.247 1.148 1.247 2.008v7.581c3.479 0.669 9.808 2.597 15.847 8.141 9.58 8.798 14.438 22.806 14.438 41.633 0 1.148-0.861 2.104-2.001 2.228-1.141 0.122-2.184-0.633-2.426-1.754-2.696-12.449-7.87-21.021-15.379-25.474-4.047-2.399-7.848-3.052-10.478-3.154v7.201c0 0.857-0.478 1.627-1.247 2.008s-1.67 0.293-2.353-0.229l-23.823-18.201c-0.552-0.421-0.88-1.084-0.88-1.779 0-0.692 0.328-1.358 0.88-1.779l23.824-18.2c0.681-0.523 1.582-0.611 2.351-0.23z"/>
   <path fill="url(#d)" d="m196.94 134.29c0.769 0.38 1.247 1.147 1.247 2.008v7.58c3.479 0.669 9.808 2.597 15.846 8.142 9.581 8.795 14.438 22.804 14.438 41.633 0 1.148-0.86 2.104-2.001 2.228-1.141 0.121-2.184-0.633-2.427-1.755-2.695-12.449-7.869-21.02-15.379-25.472-4.047-2.4-7.847-3.052-10.477-3.154v7.201c0 0.856-0.479 1.626-1.247 2.008-0.77 0.38-1.67 0.292-2.354-0.229l-23.824-18.199c-0.551-0.424-0.88-1.088-0.88-1.781 0-0.691 0.329-1.357 0.88-1.779l23.824-18.201c0.684-0.524 1.585-0.611 2.354-0.23z"/>
   <path d="m196.49 135.01c0.424 0.211 0.693 0.643 0.693 1.116v8.412c3.083 0.491 9.801 2.196 16.167 8.043 9.368 8.601 14.117 22.36 14.117 40.9 0 0.635-0.479 1.169-1.112 1.235-0.632 0.069-1.214-0.352-1.35-0.974-2.756-12.73-8.087-21.52-15.843-26.118-4.977-2.951-9.641-3.347-11.979-3.32v8.224c0 0.474-0.27 0.906-0.693 1.115-0.424 0.211-0.931 0.16-1.307-0.127l-23.82-18.2c-0.309-0.234-0.489-0.601-0.489-0.987 0-0.388 0.182-0.755 0.489-0.989l23.823-18.201c0.376-0.288 0.883-0.337 1.307-0.128z" stroke="#a66e4b" stroke-miterlimit="10" fill="none"/>
   <path fill="url(#e)" d="m226.23 193.48c-6.72-31.037-26.985-30.646-30.285-30.369v9.414l-23.824-18.199 23.824-18.201v9.501c3.809 0.39 30.285 4.647 30.285 47.854z"/>
   <path fill="#fef39e" d="m172.3 154.35 23.823-18.199v2.133l-23.1 16.62-0.72-0.55z"/>
   <g transform="matrix(.99571 0 0 -.9918 8.8182 167.26)">
    <path fill="url(#f)" d="m186.18 15.654c-10.237 1.25-14.215-0.656-19.607-4.083-0.132-0.1-0.245-0.187-0.333-0.256 2.111-1.611 17.373-13.271 20.53-15.683v8.109l-0.127-0.063c5.505 0.981 8.872-0.175 15.625-2.917-3.299 7.286-10.145 14.168-16.088 14.893z"/>
   </g>
   <path fill="#fef39e" d="m225.58 180.92c0.205 1.348-6.825-31.207-29.488-33.5-0.058-0.005-0.065-0.021-0.065 0.054v-1.77c-0.002-0.001 24.488 1.95 29.553 35.217z"/>
  </g>
 </g>
</svg>
