<?xml version="1.0" encoding="UTF-8" standalone="no"?>
<svg xmlns:dc="http://purl.org/dc/elements/1.1/"
   xmlns:cc="http://creativecommons.org/ns#"
   xmlns:rdf="http://www.w3.org/1999/02/22-rdf-syntax-ns#"
   xmlns:svg="http://www.w3.org/2000/svg"
   xmlns="http://www.w3.org/2000/svg"
   xmlns:sodipodi="http://sodipodi.sourceforge.net/DTD/sodipodi-0.dtd"
   xmlns:inkscape="http://www.inkscape.org/namespaces/inkscape" id="Слой_1" data-name="Слой 1" viewBox="0 0 24 24" version="1.1" sodipodi:docname="export_dsn.svg" inkscape:version="1.0.1 (3bc2e813f5, 2020-09-07)">
   <sodipodi:namedview pagecolor="#ffffff" bordercolor="#666666" borderopacity="1" objecttolerance="10" gridtolerance="10" guidetolerance="10" inkscape:pageopacity="0" inkscape:pageshadow="2" inkscape:window-width="1609" inkscape:window-height="1286" id="namedview30" showgrid="true" inkscape:zoom="27.961538" inkscape:cx="3.3259971" inkscape:cy="13" inkscape:window-x="0" inkscape:window-y="37" inkscape:window-maximized="0" inkscape:document-rotation="0" inkscape:current-layer="Слой_1">
      <inkscape:grid type="xygrid" id="grid_kicad" spacingx="0.5" spacingy="0.5" color="#9999ff" opacity="0.13" empspacing="2" />
   </sodipodi:namedview>
   <metadata id="metadata43">
      <rdf:RDF>
         <cc:Work rdf:about="">
            <cc:license rdf:resource="http://creativecommons.org/licenses/by-sa/4.0/" />
            <dc:format>image/svg+xml</dc:format>
            <dc:type rdf:resource="http://purl.org/dc/dcmitype/StillImage" />
            <dc:title>add_arc</dc:title>
         </cc:Work>
         <cc:License rdf:about="http://creativecommons.org/licenses/by-sa/4.0/">
            <cc:permits rdf:resource="http://creativecommons.org/ns#Reproduction" />
            <cc:permits rdf:resource="http://creativecommons.org/ns#Distribution" />
            <cc:requires rdf:resource="http://creativecommons.org/ns#Notice" />
            <cc:requires rdf:resource="http://creativecommons.org/ns#Attribution" />
            <cc:permits rdf:resource="http://creativecommons.org/ns#DerivativeWorks" />
            <cc:requires rdf:resource="http://creativecommons.org/ns#ShareAlike" />
         </cc:License>
      </rdf:RDF>
   </metadata>
   <defs id="defs24695">
      <style id="style24693">.cls-1{fill:#b9b9b9;}.cls-2{fill:#1a81c4;}.cls-3{fill:#fff;}.cls-4{fill:#bf2641;}.cls-5{fill:none;stroke:#f5f5f5;stroke-linecap:round;stroke-linejoin:round;stroke-width:2px;}</style>
   </defs>
   <title id="title24697">export_dsn</title>
   <path class="cls-1" d="m 6.0248,0.0067 h 11.95 A 2.9933,2.9933 0 0 1 20.9686,3 V 14.9966 A 2.9934,2.9934 0 0 1 17.9752,17.99 H 6.0248 A 2.9934,2.9934 0 0 1 3.0314,14.9966 V 3 A 2.9934,2.9934 0 0 1 6.0248,0.0067 Z" id="path24699" />
   <rect class="cls-2" x="0.00020003319" y="3.0002999" width="18.7099" height="9.2299004" id="rect24701" />
   <path class="cls-3" d="M 2.0693,10.6 H 0.9961 V 9.5635 h 1.0732 z" id="path24703" />
   <path class="cls-3" d="M 3.2217,8.2607 A 3.1756,3.1756 0 0 1 3.7139,6.4053 1.5908,1.5908 0 0 1 5.0977,5.7 1.5091,1.5091 0 0 1 5.7959,5.8582 1.5652,1.5652 0 0 1 6.33,6.31 V 3.6641 H 7.4072 V 10.6 H 6.5029 L 6.3965,10.0043 A 1.5892,1.5892 0 0 1 5.8428,10.518 1.5573,1.5573 0 0 1 5.0889,10.6938 1.6292,1.6292 0 0 1 3.7139,10.0483 2.7159,2.7159 0 0 1 3.2217,8.3549 Z M 4.2988,8.3545 A 1.9422,1.9422 0 0 0 4.5537,9.417 0.893,0.893 0 0 0 5.3637,9.8125 1.0826,1.0826 0 0 0 5.9428,9.666 1.1149,1.1149 0 0 0 6.3305,9.248 V 7.1494 A 1.1277,1.1277 0 0 0 5.9399,6.7344 1.0487,1.0487 0 0 0 5.3725,6.585 0.87,0.87 0 0 0 4.5609,7.0498 2.46,2.46 0 0 0 4.2992,8.2607 Z" id="path24705" />
   <path class="cls-3" d="M 11.2617,9.293 A 0.5043,0.5043 0 0 0 11.0488,8.8789 2.1217,2.1217 0 0 0 10.2549,8.5898 3.2812,3.2812 0 0 1 8.9541,8.0723 1.0851,1.0851 0 0 1 8.5127,7.1582 1.3027,1.3027 0 0 1 9.0227,6.127 2.0261,2.0261 0 0 1 10.3662,5.7 2.1009,2.1009 0 0 1 11.7607,6.1336 1.2835,1.2835 0 0 1 12.2549,7.2068 L 12.2461,7.2342 H 11.2129 A 0.68,0.68 0 0 0 10.9873,6.7225 0.8734,0.8734 0 0 0 10.3662,6.5096 0.893,0.893 0 0 0 9.7715,6.6844 a 0.5476,0.5476 0 0 0 -0.2041,0.43 0.4816,0.4816 0 0 0 0.1933,0.4023 2.0662,2.0662 0 0 0 0.7823,0.2646 3.2894,3.2894 0 0 1 1.3418,0.5264 1.1123,1.1123 0 0 1 0.4365,0.9268 1.26,1.26 0 0 1 -0.5342,1.0537 2.2678,2.2678 0 0 1 -1.4082,0.4053 A 2.1469,2.1469 0 0 1 8.9023,10.213 1.3554,1.3554 0 0 1 8.3887,9.11 L 8.3975,9.0836 h 1.0019 a 0.7189,0.7189 0 0 0 0.3018,0.6084 1.2043,1.2043 0 0 0 0.6914,0.1914 1.1061,1.1061 0 0 0 0.6435,-0.16 0.5012,0.5012 0 0 0 0.2256,-0.4304 z" id="path24707" />
   <path class="cls-3" d="m 14.2637,5.7891 0.0625,0.6933 a 1.7072,1.7072 0 0 1 0.5918,-0.5752 1.577,1.577 0 0 1 0.8047,-0.207 1.5089,1.5089 0 0 1 1.1689,0.456 2.0477,2.0477 0 0 1 0.4189,1.42 V 10.6 H 16.2324 V 7.585 A 1.0794,1.0794 0 0 0 16.0088,6.8145 0.91,0.91 0 0 0 15.3281,6.585 1.1347,1.1347 0 0 0 14.7646,6.725 1.1724,1.1724 0 0 0 14.3574,7.1098 V 10.6 H 13.2793 V 5.79 Z" id="path24709" />
   <path class="cls-4" d="M 23.9824,17.0028 A 6.9925,6.9925 0 1 1 16.99,9.9989 a 6.9982,6.9982 0 0 1 6.9924,7.0039 z" id="path24711" />
   <line class="cls-5" x1="17.0935" y1="13.6321" x2="17.0935" y2="20.636" id="line24713" />
   <polyline class="cls-5" points="15.344 17.166 18.093 14.413 20.843 17.166" id="polyline24715" transform="translate(-1,-1)" />
</svg>
