<?xml version="1.0" encoding="UTF-8" standalone="no"?>
<svg
   xmlns:dc="http://purl.org/dc/elements/1.1/"
   xmlns:cc="http://creativecommons.org/ns#"
   xmlns:rdf="http://www.w3.org/1999/02/22-rdf-syntax-ns#"
   xmlns:svg="http://www.w3.org/2000/svg"
   xmlns="http://www.w3.org/2000/svg"
   xmlns:sodipodi="http://sodipodi.sourceforge.net/DTD/sodipodi-0.dtd"
   xmlns:inkscape="http://www.inkscape.org/namespaces/inkscape"
   height="48"
   width="48"
   version="1.1"
   viewBox="0 0 48 48"
   id="svg2"
   inkscape:version="0.47 r22583"
   sodipodi:docname="export.svg">
  <metadata
     id="metadata133">
    <rdf:RDF>
      <cc:Work
         rdf:about="">
        <dc:format>image/svg+xml</dc:format>
        <dc:type
           rdf:resource="http://purl.org/dc/dcmitype/StillImage" />
        <dc:title></dc:title>
      </cc:Work>
    </rdf:RDF>
  </metadata>
  <sodipodi:namedview
     pagecolor="#ffffff"
     bordercolor="#666666"
     borderopacity="1"
     objecttolerance="10"
     gridtolerance="10"
     guidetolerance="10"
     inkscape:pageopacity="0"
     inkscape:pageshadow="2"
     inkscape:window-width="1280"
     inkscape:window-height="949"
     id="namedview131"
     showgrid="false"
     inkscape:zoom="4.9166667"
     inkscape:cx="24"
     inkscape:cy="23.59322"
     inkscape:window-x="0"
     inkscape:window-y="25"
     inkscape:window-maximized="1"
     inkscape:current-layer="svg2" />
  <defs
     id="defs4">
    <radialGradient
       id="r"
       gradientUnits="userSpaceOnUse"
       cy="115.71"
       cx="63.912"
       gradientTransform="matrix(.3713 0 0 .02994 -.0012855 42.648)"
       r="63.912">
      <stop
         offset="0"
         id="stop7" />
      <stop
         stop-opacity="0"
         offset="1"
         id="stop9" />
    </radialGradient>
    <radialGradient
       id="p"
       gradientUnits="userSpaceOnUse"
       cy="112.3"
       cx="102"
       gradientTransform="translate(0,4)"
       r="139.56">
      <stop
         stop-color="#00537d"
         offset="0"
         id="stop12" />
      <stop
         stop-color="#186389"
         offset=".0151"
         id="stop14" />
      <stop
         stop-color="#558ca8"
         offset=".0558"
         id="stop16" />
      <stop
         stop-color="#89afc3"
         offset=".0964"
         id="stop18" />
      <stop
         stop-color="#b3ccd8"
         offset=".1357"
         id="stop20" />
      <stop
         stop-color="#d4e2e9"
         offset=".1737"
         id="stop22" />
      <stop
         stop-color="#ecf2f5"
         offset=".20990"
         id="stop24" />
      <stop
         stop-color="#fafcfd"
         offset=".24350"
         id="stop26" />
      <stop
         stop-color="#fff"
         offset=".27220"
         id="stop28" />
    </radialGradient>
    <radialGradient
       id="q"
       gradientUnits="userSpaceOnUse"
       cy="112.3"
       cx="102"
       gradientTransform="translate(0,4)"
       r="139.56">
      <stop
         stop-color="#535557"
         offset="0"
         id="stop31" />
      <stop
         stop-color="#898a8c"
         offset=".11366"
         id="stop33" />
      <stop
         stop-color="#ececec"
         offset=".20297"
         id="stop35" />
      <stop
         stop-color="#fafafa"
         offset=".23630"
         id="stop37" />
      <stop
         stop-color="#fff"
         offset=".27220"
         id="stop39" />
      <stop
         stop-color="#fafafa"
         offset=".53130"
         id="stop41" />
      <stop
         stop-color="#ebecec"
         offset=".84490"
         id="stop43" />
      <stop
         stop-color="#e1e2e3"
         offset="1"
         id="stop45" />
    </radialGradient>
    <linearGradient
       id="l"
       y2="94.537"
       gradientUnits="userSpaceOnUse"
       x2="86.536"
       y1="102.34"
       x1="94.344">
      <stop
         stop-color="#fff"
         offset="0"
         id="stop48" />
      <stop
         stop-color="#555753"
         offset="1"
         id="stop50" />
    </linearGradient>
    <linearGradient
       id="m"
       y2="94.587"
       gradientUnits="userSpaceOnUse"
       x2="86.587"
       y1="103"
       x1="95">
      <stop
         stop-color="#fff"
         offset="0"
         id="stop53" />
      <stop
         stop-color="#555753"
         offset="1"
         id="stop55" />
    </linearGradient>
    <linearGradient
       id="n"
       y2="95.293"
       gradientUnits="userSpaceOnUse"
       x2="87.293"
       y1="103"
       x1="95">
      <stop
         stop-color="#fff"
         offset="0"
         id="stop58" />
      <stop
         stop-color="#393b38"
         offset="1"
         id="stop60" />
    </linearGradient>
    <linearGradient
       id="o"
       y2="96"
       gradientUnits="userSpaceOnUse"
       x2="88"
       y1="104"
       x1="96">
      <stop
         stop-color="#888a85"
         offset="0"
         id="stop63" />
      <stop
         stop-color="#8c8e89"
         offset=".0072"
         id="stop65" />
      <stop
         stop-color="#abaca9"
         offset=".0673"
         id="stop67" />
      <stop
         stop-color="#c5c6c4"
         offset=".1347"
         id="stop69" />
      <stop
         stop-color="#dbdbda"
         offset=".2115"
         id="stop71" />
      <stop
         stop-color="#ebebeb"
         offset=".3012"
         id="stop73" />
      <stop
         stop-color="#f7f7f6"
         offset=".4122"
         id="stop75" />
      <stop
         stop-color="#fdfdfd"
         offset=".5679"
         id="stop77" />
      <stop
         stop-color="#fff"
         offset="1"
         id="stop79" />
    </linearGradient>
    <linearGradient
       id="j"
       y2="47.404"
       gradientUnits="userSpaceOnUse"
       x2="4"
       gradientTransform="matrix(.37078 0 0 .36885 19.279 .81356)"
       y1="47.404"
       x1="72">
      <stop
         stop-color="#fff"
         offset="0"
         id="stop82" />
      <stop
         stop-color="#fff"
         offset=".5"
         id="stop84" />
      <stop
         stop-color="#fff"
         stop-opacity="0"
         offset="1"
         id="stop86" />
    </linearGradient>
    <linearGradient
       id="k"
       y2="56.231"
       gradientUnits="userSpaceOnUse"
       x2="2.7471"
       gradientTransform="matrix(.37078 0 0 .36885 19.279 .82018)"
       y1="56.231"
       x1="64.13">
      <stop
         stop-color="#646464"
         offset="0"
         id="stop89" />
      <stop
         stop-color="#7e7e7e"
         offset="0"
         id="stop91" />
      <stop
         stop-color="#999"
         stop-opacity=".58763"
         offset="0.9"
         id="stop93" />
      <stop
         stop-color="#ccc"
         stop-opacity=".61856"
         offset="0.95"
         id="stop95" />
      <stop
         stop-color="#fff"
         stop-opacity="0"
         offset="1"
         id="stop97" />
    </linearGradient>
  </defs>
  <g
     transform="matrix(-0.37078,0,0,0.36885,43.007386,-2.1372)"
     id="g99">
    <g
       transform="translate(0,4)"
       id="g101">
      <path
         d="m 16,4 c -2.206,0 -4,1.794 -4,4 v 110 c 0,3.309 2.691,6 6,6 h 59.172 c 1.299,0 2.545,-0.487 3.641,-1.354 0.128,-0.053 0.257,-0.107 0.257,-0.107 0.098,-0.073 12.134,-10.086 17.759,-15.711 5.374,-5.371 14.61,-16.425 15.646,-17.667 0.91,-0.882 1.52,-2.439 1.52,-3.989 V 8 c 0,-2.206 -1.794,-4 -4,-4 h -96 z"
         id="path103"
         style="opacity:0.1" />
      <path
         d="m 16,5 c -1.654,0 -3,1.346 -3,3 v 110 c 0,2.757 2.243,5 5,5 h 59.172 c 1.189,0 2.282,-0.47 3.182,-1.229 0.042,-0.021 0.09,-0.014 0.129,-0.042 0.079,-0.06 12.017,-9.986 17.639,-15.608 5.312,-5.31 14.55,-16.358 15.585,-17.601 0.785,-0.764 1.294,-2.043 1.294,-3.349 V 8 c 0,-1.654 -1.346,-3 -3,-3 h -96 z"
         id="path105"
         style="opacity:0.15" />
      <path
         d="m 16,6 c -1.103,0 -2,0.897 -2,2 v 110 c 0,2.206 1.794,4 4,4 h 59.172 c 1.068,0 2.072,-0.416 2.828,-1.172 -0.035,0.036 -0.074,0.068 -0.114,0.099 0.076,-0.057 11.96,-9.944 17.528,-15.513 5.265,-5.264 14.49,-16.294 15.524,-17.534 0.65,-0.644 1.06,-1.65 1.06,-2.708 V 8 c 0,-1.103 -0.897,-2 -2,-2 h -96 z"
         id="path107"
         style="opacity:0.2" />
      <path
         d="m 16,7 c -0.552,0 -1,0.448 -1,1 v 110 c 0,1.654 1.346,3 3,3 h 59.172 c 0.801,0 1.555,-0.312 2.121,-0.879 0.052,-0.038 11.945,-9.945 17.414,-15.414 5.469,-5.469 15.376,-17.362 15.476,-17.481 0.51,-0.499 0.82,-1.253 0.82,-2.054 V 8 c 0,-0.552 -0.447,-1 -1,-1 h -96 z"
         id="path109"
         style="opacity:0.25" />
    </g>
    <path
       d="m 16,12 v 110 c 0,1.104 0.896,2 2,2 h 59.172 c 0.53,0 1.039,-0.211 1.414,-0.586 L 111.41,90.602 C 111.79,90.227 112,89.718 112,89.188 V 12.016 H 16 z"
       id="path111"
       style="fill:url(#p)" />
    <path
       d="m 18,13 c -0.551,0 -1,0.449 -1,1 v 108 c 0,0.552 0.449,1 1,1 h 59.172 c 0.263,0 0.521,-0.106 0.707,-0.293 L 110.71,89.867 C 110.89,89.68 111,89.423 111,89.16 V 13.988 c 0,-0.551 -0.448,-1 -1,-1 H 18 z"
       id="path113"
       style="fill:url(#q)" />
    <g
       transform="translate(0,4)"
       id="g115">
      <path
         d="M 111.41,86.586 C 111.66,86.336 93.035,93 88,93 c -1.654,0 -3,1.346 -3,3 0,5.035 -6.664,23.664 -6.414,23.414 l 32.828,-32.828 z"
         id="path117"
         style="opacity:0.1;fill:url(#l)" />
      <path
         d="M 111.41,86.586 C 111.79,86.211 97.444,94 88,94 c -1.103,0 -2,0.897 -2,2 0,9.444 -7.789,23.789 -7.414,23.414 l 32.828,-32.828 z"
         id="path119"
         style="opacity:0.1;fill:url(#m)" />
      <path
         d="M 111.41,86.586 C 111.65,86.347 97.807,95 88,95 c -0.553,0 -1,0.447 -1,1 0,9.807 -8.653,23.653 -8.414,23.414 l 32.828,-32.828 z"
         id="path121"
         style="opacity:0.1;fill:url(#n)" />
      <path
         d="m 78.586,119.41 c 0,0 11.914,-9.914 17.414,-15.414 5.5,-5.5 15.414,-17.414 15.414,-17.414 0,0 -13.164,9.414 -23.414,9.414 0,10.25 -9.414,23.414 -9.414,23.414 z"
         id="path123"
         style="fill:url(#o)" />
    </g>
  </g>
  <path
     opacity=".38140"
     fill="url(#r)"
     d="m47.458 46.112a23.73 1.9136 0 1 1 -47.459 0 23.73 1.9136 0 1 1 47.459 0z"
     id="path125" />
  <path
     fill="url(#k)"
     d="m33.982 33.279c-0.34999-0.02852-0.67845-0.17965-0.92694-0.42646l-2.966-2.951c-0.53652-0.53372-0.58138-1.3843-0.10419-1.9711l4.0088-4.9794h-13.232c-0.81905-0.000082-1.483-0.6606-1.4831-1.4754v-4.4262c0.000081-0.81478 0.66406-1.4753 1.4831-1.4754h13.232l-4.0088-4.9794c-0.477-0.589-0.432-1.4397 0.104-1.9735l2.966-2.9507c0.28412-0.28283 0.67567-0.44453 1.0776-0.43801 0.40189 0.00652 0.77971 0.18069 1.0544 0.47257l11.865 12.541c0.54141 0.56898 0.54141 1.4597 0 2.0287l-11.865 12.541c-0.30984 0.32865-0.75364 0.49846-1.205 0.46106zm0.128-1.476 11.865-12.54-11.865-12.541l-2.9662 2.9508 5.9324 7.3769h-16.314v4.4262h16.314l-5.9324 7.3769 2.9662 2.9508z"
     id="path127" />
  <path
     fill="url(#j)"
     d="m31.144 28.846 2.966 2.951 11.865-12.541-11.865-12.541l-2.966 2.9509 5.9324 7.3769h-16.314v4.4262h16.314l-5.9324 7.3769z"
     id="path129" />
</svg>
