<svg id="Слой_1" data-name="Слой 1"
  xmlns:cc="http://creativecommons.org/ns#"
  xmlns:rdf="http://www.w3.org/1999/02/22-rdf-syntax-ns#"
  xmlns="http://www.w3.org/2000/svg" viewBox="0 0 26 26">
  <metadata id="metadata43">
    <rdf:RDF>
      <cc:Work rdf:about="">
        <cc:license rdf:resource="http://creativecommons.org/licenses/by/4.0/" />
      </cc:Work>
      <cc:License rdf:about="http://creativecommons.org/licenses/by/4.0/">
        <cc:permits rdf:resource="http://creativecommons.org/ns#Reproduction" />
        <cc:permits rdf:resource="http://creativecommons.org/ns#Distribution" />
        <cc:requires rdf:resource="http://creativecommons.org/ns#Notice" />
        <cc:requires rdf:resource="http://creativecommons.org/ns#Attribution" />
        <cc:permits rdf:resource="http://creativecommons.org/ns#DerivativeWorks" />
      </cc:License>
    </rdf:RDF>
  </metadata>
  <defs>
    <style>.cls-1{fill:#b9b9b9;}.cls-2{fill:#545454;}.cls-3{fill:#e61c50;}.cls-4{fill:none;stroke:#f5f5f5;stroke-linecap:round;stroke-linejoin:round;stroke-width:2px;}</style>
  </defs>
  <title>export_part</title>
  <path class="cls-1" d="M4.4989.9878H18.5066A3.5022,3.5022,0,0,1,22.0088,4.49V18.5a3.5022,3.5022,0,0,1-3.5022,3.5022H4.4988A3.5021,3.5021,0,0,1,.9967,18.5V4.49A3.5022,3.5022,0,0,1,4.4989.9878Z"/>
  <path class="cls-2" d="M19.9748,10.7858H18.3953L5.8838,2.5221a.7623.7623,0,0,0-1.1829.6361v3.051H3.1753a.7628.7628,0,0,0,0,1.5256H4.7009v7.6277H3.1753a.7628.7628,0,0,0,0,1.5255H4.7009v3.051a.7622.7622,0,0,0,1.1829.6362l12.5115-8.2638h1.5795a.7628.7628,0,1,0,0-1.5256ZM6.2264,18.5207V4.5765l10.5565,6.9722Z"/>
  <path class="cls-2" d="M7.7244,10.0231H9.4986a.7628.7628,0,1,0,0-1.5255H7.7244a.7628.7628,0,1,0,0,1.5255Z"/>
  <path class="cls-2" d="M9.5293,12.8157v-.2518a.7628.7628,0,1,0-1.5256,0v.2518h-.251a.7627.7627,0,1,0,0,1.5254h.251v.2511a.7628.7628,0,1,0,1.5256,0v-.2511H9.78a.7627.7627,0,1,0,0-1.5254Z"/>
  <ellipse class="cls-3" cx="17.9967" cy="18.0122" rx="7.0065" ry="7"/>
  <line class="cls-4" x1="18.1006" y1="14.6434" x2="18.1006" y2="21.6434"/>
  <polyline class="cls-4" points="15.345 17.176 18.101 14.424 20.856 17.176"/>
</svg>