<svg id="Слой_1" data-name="Слой 1"
  xmlns:cc="http://creativecommons.org/ns#"
  xmlns:rdf="http://www.w3.org/1999/02/22-rdf-syntax-ns#"
  xmlns="http://www.w3.org/2000/svg" viewBox="0 0 26 26">
  <metadata id="metadata43">
    <rdf:RDF>
      <cc:Work rdf:about="">
        <cc:license rdf:resource="http://creativecommons.org/licenses/by/4.0/" />
      </cc:Work>
      <cc:License rdf:about="http://creativecommons.org/licenses/by/4.0/">
        <cc:permits rdf:resource="http://creativecommons.org/ns#Reproduction" />
        <cc:permits rdf:resource="http://creativecommons.org/ns#Distribution" />
        <cc:requires rdf:resource="http://creativecommons.org/ns#Notice" />
        <cc:requires rdf:resource="http://creativecommons.org/ns#Attribution" />
        <cc:permits rdf:resource="http://creativecommons.org/ns#DerivativeWorks" />
      </cc:License>
    </rdf:RDF>
  </metadata>
  <defs>
    <style>.cls-1{fill:#b9b9b9;}.cls-2,.cls-4{fill:none;stroke-linecap:round;stroke-width:2px;}.cls-2{stroke:#545454;stroke-miterlimit:10;}.cls-3{fill:#e61c50;}.cls-4{stroke:#f5f5f5;stroke-linejoin:round;}</style>
  </defs>
  <title>export_footprint_names</title>
  <path class="cls-1" d="M4.4939,1H18.4755a3.4978,3.4978,0,0,1,3.4978,3.4978V18.4991a3.4978,3.4978,0,0,1-3.4978,3.4978H4.4938A3.4978,3.4978,0,0,1,.996,18.4991V4.4979A3.4979,3.4979,0,0,1,4.4939,1Z"/>
  <line class="cls-2" x1="5.6875" y1="5.5" x2="17.6538" y2="5.5"/>
  <line class="cls-2" x1="5.6875" y1="9.653" x2="17.6538" y2="9.653"/>
  <line class="cls-2" x1="5.6875" y1="13.806" x2="17.6538" y2="13.806"/>
  <line class="cls-2" x1="5.6875" y1="17.959" x2="17.6538" y2="17.959"/>
  <path class="cls-3" d="M25.004,18a7.0066,7.0066,0,1,1-7.0066-7A7.0033,7.0033,0,0,1,25.004,18Z"/>
  <line class="cls-4" x1="18.1013" y1="14.6312" x2="18.1013" y2="21.6312"/>
  <polyline class="cls-4" points="15.346 17.164 18.101 14.412 20.856 17.164"/>
</svg>