<svg xmlns="http://www.w3.org/2000/svg" height="48" width="48" version="1.1" viewBox="0 0 48 48">
 <defs>
  <radialGradient id="r" gradientUnits="userSpaceOnUse" cy="115.71" cx="63.912" gradientTransform="matrix(.3713 0 0 .02994 -.0012855 42.648)" r="63.912">
   <stop offset="0"/>
   <stop stop-opacity="0" offset="1"/>
  </radialGradient>
  <radialGradient id="p" gradientUnits="userSpaceOnUse" cy="112.3" cx="102" gradientTransform="translate(0,4)" r="139.56">
   <stop stop-color="#00537d" offset="0"/>
   <stop stop-color="#186389" offset=".0151"/>
   <stop stop-color="#558ca8" offset=".0558"/>
   <stop stop-color="#89afc3" offset=".0964"/>
   <stop stop-color="#b3ccd8" offset=".1357"/>
   <stop stop-color="#d4e2e9" offset=".1737"/>
   <stop stop-color="#ecf2f5" offset=".20990"/>
   <stop stop-color="#fafcfd" offset=".24350"/>
   <stop stop-color="#fff" offset=".27220"/>
  </radialGradient>
  <radialGradient id="q" gradientUnits="userSpaceOnUse" cy="112.3" cx="102" gradientTransform="translate(0,4)" r="139.56">
   <stop stop-color="#535557" offset="0"/>
   <stop stop-color="#898a8c" offset=".11366"/>
   <stop stop-color="#ececec" offset=".20297"/>
   <stop stop-color="#fafafa" offset=".23630"/>
   <stop stop-color="#fff" offset=".27220"/>
   <stop stop-color="#fafafa" offset=".53130"/>
   <stop stop-color="#ebecec" offset=".84490"/>
   <stop stop-color="#e1e2e3" offset="1"/>
  </radialGradient>
  <linearGradient id="l" y2="94.537" gradientUnits="userSpaceOnUse" x2="86.536" y1="102.34" x1="94.344">
   <stop stop-color="#fff" offset="0"/>
   <stop stop-color="#555753" offset="1"/>
  </linearGradient>
  <linearGradient id="m" y2="94.587" gradientUnits="userSpaceOnUse" x2="86.587" y1="103" x1="95">
   <stop stop-color="#fff" offset="0"/>
   <stop stop-color="#555753" offset="1"/>
  </linearGradient>
  <linearGradient id="n" y2="95.293" gradientUnits="userSpaceOnUse" x2="87.293" y1="103" x1="95">
   <stop stop-color="#fff" offset="0"/>
   <stop stop-color="#393b38" offset="1"/>
  </linearGradient>
  <linearGradient id="o" y2="96" gradientUnits="userSpaceOnUse" x2="88" y1="104" x1="96">
   <stop stop-color="#888a85" offset="0"/>
   <stop stop-color="#8c8e89" offset=".0072"/>
   <stop stop-color="#abaca9" offset=".0673"/>
   <stop stop-color="#c5c6c4" offset=".1347"/>
   <stop stop-color="#dbdbda" offset=".2115"/>
   <stop stop-color="#ebebeb" offset=".3012"/>
   <stop stop-color="#f7f7f6" offset=".4122"/>
   <stop stop-color="#fdfdfd" offset=".5679"/>
   <stop stop-color="#fff" offset="1"/>
  </linearGradient>
  <linearGradient id="j" y2="47.404" gradientUnits="userSpaceOnUse" x2="4" gradientTransform="matrix(.37078 0 0 .36885 19.279 .81356)" y1="47.404" x1="72">
   <stop stop-color="#fff" offset="0"/>
   <stop stop-color="#fff" offset=".5"/>
   <stop stop-color="#fff" stop-opacity="0" offset="1"/>
  </linearGradient>
  <linearGradient id="k" y2="56.231" gradientUnits="userSpaceOnUse" x2="2.7471" gradientTransform="matrix(.37078 0 0 .36885 19.279 .82018)" y1="56.231" x1="64.13">
   <stop stop-color="#646464" offset="0"/>
   <stop stop-color="#7e7e7e" offset="0"/>
   <stop stop-color="#999" stop-opacity=".58763" offset="0.9"/>
   <stop stop-color="#ccc" stop-opacity=".61856" offset="0.95"/>
   <stop stop-color="#fff" stop-opacity="0" offset="1"/>
  </linearGradient>
 </defs>
 <g transform="matrix(.37078 0 0 .36885 -4.4506 -2.1372)">
  <g transform="translate(0,4)">
   <path opacity=".1" d="m16 4c-2.206 0-4 1.794-4 4v110c0 3.309 2.691 6 6 6h59.172c1.299 0 2.545-0.487 3.641-1.354 0.128-0.053 0.257-0.107 0.257-0.107 0.098-0.073 12.134-10.086 17.759-15.711 5.374-5.371 14.61-16.425 15.646-17.667 0.91-0.882 1.52-2.439 1.52-3.989v-77.172c0-2.206-1.794-4-4-4h-96z"/>
   <path opacity=".15" d="m16 5c-1.654 0-3 1.346-3 3v110c0 2.757 2.243 5 5 5h59.172c1.189 0 2.282-0.47 3.182-1.229 0.042-0.021 0.09-0.014 0.129-0.042 0.079-0.06 12.017-9.986 17.639-15.608 5.312-5.31 14.55-16.358 15.585-17.601 0.785-0.764 1.294-2.043 1.294-3.349v-77.171c0-1.654-1.346-3-3-3h-96z"/>
   <path opacity=".2" d="m16 6c-1.103 0-2 0.897-2 2v110c0 2.206 1.794 4 4 4h59.172c1.068 0 2.072-0.416 2.828-1.172-0.035 0.036-0.074 0.068-0.114 0.099 0.076-0.057 11.96-9.944 17.528-15.513 5.265-5.264 14.49-16.294 15.524-17.534 0.65-0.644 1.06-1.65 1.06-2.708v-77.172c0-1.103-0.897-2-2-2h-96z"/>
   <path opacity=".25" d="m16 7c-0.552 0-1 0.448-1 1v110c0 1.654 1.346 3 3 3h59.172c0.801 0 1.555-0.312 2.121-0.879 0.052-0.038 11.945-9.945 17.414-15.414s15.376-17.362 15.476-17.481c0.51-0.499 0.82-1.253 0.82-2.054v-77.172c0-0.552-0.447-1-1-1h-96z"/>
  </g>
  <path fill="url(#p)" d="m16 12v110c0 1.104 0.896 2 2 2h59.172c0.53 0 1.039-0.211 1.414-0.586l32.824-32.812c0.38-0.375 0.59-0.884 0.59-1.414v-77.172h-96z"/>
  <path fill="url(#q)" d="m18 13c-0.551 0-1 0.449-1 1v108c0 0.552 0.449 1 1 1h59.172c0.263 0 0.521-0.106 0.707-0.293l32.831-32.84c0.18-0.187 0.29-0.444 0.29-0.707v-75.172c0-0.551-0.448-1-1-1h-92z"/>
  <g transform="translate(0,4)">
   <path opacity=".1" fill="url(#l)" d="m111.41 86.586c0.25-0.25-18.375 6.414-23.41 6.414-1.654 0-3 1.346-3 3 0 5.035-6.664 23.664-6.414 23.414l32.828-32.828z"/>
   <path opacity=".1" fill="url(#m)" d="m111.41 86.586c0.38-0.375-13.966 7.414-23.41 7.414-1.103 0-2 0.897-2 2 0 9.444-7.789 23.789-7.414 23.414l32.828-32.828z"/>
   <path opacity=".1" fill="url(#n)" d="m111.41 86.586c0.24-0.239-13.603 8.414-23.41 8.414-0.553 0-1 0.447-1 1 0 9.807-8.653 23.653-8.414 23.414l32.828-32.828z"/>
   <path fill="url(#o)" d="m78.586 119.41s11.914-9.914 17.414-15.414 15.414-17.414 15.414-17.414-13.164 9.414-23.414 9.414c0 10.25-9.414 23.414-9.414 23.414z"/>
  </g>
 </g>
 <path opacity=".38140" fill="url(#r)" d="m47.458 46.112a23.73 1.9136 0 1 1 -47.459 0 23.73 1.9136 0 1 1 47.459 0z"/>
 <path fill="url(#k)" d="m33.982 33.279c-0.34999-0.02852-0.67845-0.17965-0.92694-0.42646l-2.966-2.951c-0.53652-0.53372-0.58138-1.3843-0.10419-1.9711l4.0088-4.9794h-13.232c-0.81905-0.000082-1.483-0.6606-1.4831-1.4754v-4.4262c0.000081-0.81478 0.66406-1.4753 1.4831-1.4754h13.232l-4.0088-4.9794c-0.477-0.589-0.432-1.4397 0.104-1.9735l2.966-2.9507c0.28412-0.28283 0.67567-0.44453 1.0776-0.43801 0.40189 0.00652 0.77971 0.18069 1.0544 0.47257l11.865 12.541c0.54141 0.56898 0.54141 1.4597 0 2.0287l-11.865 12.541c-0.30984 0.32865-0.75364 0.49846-1.205 0.46106zm0.128-1.476 11.865-12.54-11.865-12.541l-2.9662 2.9508 5.9324 7.3769h-16.314v4.4262h16.314l-5.9324 7.3769 2.9662 2.9508z"/>
 <path fill="url(#j)" d="m31.144 28.846 2.966 2.951 11.865-12.541-11.865-12.541l-2.966 2.9509 5.9324 7.3769h-16.314v4.4262h16.314l-5.9324 7.3769z"/>
</svg>
