<svg id="Слой_1" data-name="Слой 1"
  xmlns:dc="http://purl.org/dc/elements/1.1/"
  xmlns:cc="http://creativecommons.org/ns#"
  xmlns:rdf="http://www.w3.org/1999/02/22-rdf-syntax-ns#"
  xmlns="http://www.w3.org/2000/svg"
  xmlns:sodipodi="http://sodipodi.sourceforge.net/DTD/sodipodi-0.dtd"
  xmlns:inkscape="http://www.inkscape.org/namespaces/inkscape" viewBox="0 0 26 26">
  <sodipodi:namedview pagecolor="#ffffff" bordercolor="#666666" borderopacity="1" objecttolerance="10" gridtolerance="10" guidetolerance="10" inkscape:pageopacity="0" inkscape:pageshadow="2" inkscape:window-width="1609" inkscape:window-height="1286" id="namedview30" showgrid="true" inkscape:zoom="27.961538" inkscape:cx="13" inkscape:cy="13" inkscape:window-x="0" inkscape:window-y="37" inkscape:window-maximized="0">
    <inkscape:grid type="xygrid" id="grid_kicad" spacingx="0.5" spacingy="0.5" color="#9999ff" opacity="0.13" empspacing="2" />
  </sodipodi:namedview>
  <metadata id="metadata43">
    <rdf:RDF>
      <cc:Work rdf:about="">
        <cc:license rdf:resource="http://creativecommons.org/licenses/by-sa/4.0/" />
        <dc:format>image/svg+xml</dc:format>
        <dc:type rdf:resource="http://purl.org/dc/dcmitype/StillImage" />
        <dc:title>add_arc</dc:title>
      </cc:Work>
      <cc:License rdf:about="http://creativecommons.org/licenses/by-sa/4.0/">
        <cc:permits rdf:resource="http://creativecommons.org/ns#Reproduction" />
        <cc:permits rdf:resource="http://creativecommons.org/ns#Distribution" />
        <cc:requires rdf:resource="http://creativecommons.org/ns#Notice" />
        <cc:requires rdf:resource="http://creativecommons.org/ns#Attribution" />
        <cc:permits rdf:resource="http://creativecommons.org/ns#DerivativeWorks" />
        <cc:requires rdf:resource="http://creativecommons.org/ns#ShareAlike" />
      </cc:License>
    </rdf:RDF>
  </metadata>
  <defs>
    <style>.cls-1{fill:#b9b9b9;}.cls-2,.cls-3,.cls-5{fill:none;}.cls-2{stroke:#545454;stroke-miterlimit:10;}.cls-3{stroke:#1a81c4;stroke-width:0.9549px;}.cls-3,.cls-5{stroke-linecap:round;stroke-linejoin:round;}.cls-4{fill:#e61c50;}.cls-5{stroke:#f5f5f5;stroke-width:2px;}</style>
  </defs>
  <title>export_module копия</title>
  <rect class="cls-1" x="1" y="1" width="20.9958" height="20.9958" rx="3.4993"/>
  <path class="cls-2" d="M5.6642,5.91h8.2239a2.1,2.1,0,0,1,2.1,2.1v.2816a2.1,2.1,0,0,1-2.1,2.1H8.0457a2.1,2.1,0,0,0-2.1,2.1h0a2.1,2.1,0,0,0,2.1,2.1h1.138"/>
  <path class="cls-3" d="M5.3357,6.66a1.2747,1.2747,0,1,1,0-1.8027A1.2747,1.2747,0,0,1,5.3357,6.66Z"/>
  <circle class="cls-3" cx="10.3835" cy="14.5158" r="1.2747"/>
  <path class="cls-4" d="M24.88,17.9978a7.0066,7.0066,0,1,1-7.0066-7A7.0033,7.0033,0,0,1,24.88,17.9978Z"/>
  <line class="cls-5" x1="17.9773" y1="14.629" x2="17.9773" y2="21.629"/>
  <polyline class="cls-5" points="15.222 17.162 17.977 14.41 20.732 17.162"/>
</svg>