<?xml version="1.0" encoding="UTF-8" standalone="no"?>
<svg
   xmlns:dc="http://purl.org/dc/elements/1.1/"
   xmlns:cc="http://creativecommons.org/ns#"
   xmlns:rdf="http://www.w3.org/1999/02/22-rdf-syntax-ns#"
   xmlns:svg="http://www.w3.org/2000/svg"
   xmlns="http://www.w3.org/2000/svg"
   xmlns:sodipodi="http://sodipodi.sourceforge.net/DTD/sodipodi-0.dtd"
   xmlns:inkscape="http://www.inkscape.org/namespaces/inkscape"
   height="26"
   width="26"
   version="1.1"
   id="svg2"
   inkscape:version="0.91 r13725"
   sodipodi:docname="fabrication.svg">
  <metadata
     id="metadata40">
    <rdf:RDF>
      <cc:Work
         rdf:about="">
        <dc:format>image/svg+xml</dc:format>
        <dc:type
           rdf:resource="http://purl.org/dc/dcmitype/StillImage" />
        <dc:title />
      </cc:Work>
    </rdf:RDF>
  </metadata>
  <sodipodi:namedview
     pagecolor="#ffffff"
     bordercolor="#666666"
     borderopacity="1"
     objecttolerance="10"
     gridtolerance="10"
     guidetolerance="10"
     inkscape:pageopacity="0"
     inkscape:pageshadow="2"
     inkscape:window-width="1920"
     inkscape:window-height="1054"
     id="namedview38"
     showgrid="true"
     inkscape:snap-to-guides="false"
     inkscape:snap-grids="true"
     inkscape:zoom="21.730769"
     inkscape:cx="24.916417"
     inkscape:cy="10.856171"
     inkscape:window-x="0"
     inkscape:window-y="0"
     inkscape:window-maximized="1"
     inkscape:current-layer="svg2"
     inkscape:snap-nodes="true">
    <inkscape:grid
       type="xygrid"
       id="grid3017"
       empspacing="2"
       visible="true"
       enabled="true"
       snapvisiblegridlinesonly="true"
       spacingx="0.5px"
       spacingy="0.5px" />
  </sodipodi:namedview>
  <defs
     id="defs4" />
  <g
     id="g4259">
    <path
       sodipodi:nodetypes="ccccc"
       inkscape:connector-curvature="0"
       id="rect3922"
       d="M 0.999996,13 25,13 l 4e-6,12.000008 -24.000004,0 z"
       style="fill:#4d4d4d;fill-opacity:1;stroke:none" />
    <path
       d="m 19,20 3,0 0,3 -3,0 z m 0,-5 3,0 0,3 -3,0 z m -5,5 3,0 0,3 -3,0 z m 0,-5 3,0 0,3 -3,0 z m -5,5 3,0 0,3 -3,0 z m 0,-5 3,0 0,3 -3,0 z m -5,5 3,0 0,3 -3,0 z m 0,-5 3,0 0,3 -3,0 z"
       style="fill:#5599ff;fill-opacity:1;stroke:none"
       id="path3945" />
    <path
       sodipodi:nodetypes="ccccc"
       inkscape:connector-curvature="0"
       id="path3951"
       d="M 3,13 4,2 6,2 7,13 z"
       style="fill:#666666;fill-opacity:1;stroke:none" />
    <path
       sodipodi:nodetypes="ccccc"
       inkscape:connector-curvature="0"
       id="path3955"
       d="m 11,13 1,-8 2,0 1,8 z"
       style="fill:#666666;fill-opacity:1;stroke:none" />
    <path
       sodipodi:nodetypes="ssssssssss"
       inkscape:connector-curvature="0"
       id="path3957"
       d="m 13.150812,3.315136 c -0.749775,-0.2887168 -1.383144,-0.8843809 -1.07618,-1.6349551 0.434113,-1.06147224 1.556056,-1.08997006 2.69045,-1.08997006 1.134394,0 3.170326,0.54498506 4.30472,0.54498506 1.134394,0 2.662583,-0.80895492 3.76663,-0.54498506 0.98749,0.23610179 2.276331,1.16000596 2.15236,2.17994006 -0.127786,1.0513241 -1.176864,1.7979743 -2.15236,2.1799401 -0.853046,0.3340194 -2.877979,0.7639736 -3.76663,0.544985 -1.115928,-0.2749962 -2.092461,-2.0094295 -3.22854,-2.17994 -0.955466,-0.143403 -1.787602,0.3476609 -2.69045,0 z"
       style="fill:#999999;fill-opacity:1;stroke:none" />
  </g>
</svg>
