<svg id="Слой_1" data-name="Слой 1"
  xmlns:dc="http://purl.org/dc/elements/1.1/"
  xmlns:cc="http://creativecommons.org/ns#"
  xmlns:rdf="http://www.w3.org/1999/02/22-rdf-syntax-ns#"
  xmlns="http://www.w3.org/2000/svg"
  xmlns:xlink="http://www.w3.org/1999/xlink" viewBox="0 0 26 26">
  <metadata id="metadata43">
    <rdf:RDF>
      <cc:Work rdf:about="">
        <cc:license rdf:resource="http://creativecommons.org/licenses/by-sa/4.0/" />
        <dc:format>image/svg+xml</dc:format>
        <dc:type rdf:resource="http://purl.org/dc/dcmitype/StillImage" />
        <dc:title>add_arc</dc:title>
      </cc:Work>
      <cc:License rdf:about="http://creativecommons.org/licenses/by-sa/4.0/">
        <cc:permits rdf:resource="http://creativecommons.org/ns#Reproduction" />
        <cc:permits rdf:resource="http://creativecommons.org/ns#Distribution" />
        <cc:requires rdf:resource="http://creativecommons.org/ns#Notice" />
        <cc:requires rdf:resource="http://creativecommons.org/ns#Attribution" />
        <cc:permits rdf:resource="http://creativecommons.org/ns#DerivativeWorks" />
        <cc:requires rdf:resource="http://creativecommons.org/ns#ShareAlike" />
      </cc:License>
    </rdf:RDF>
  </metadata>
  <defs>
    <style>.cls-1,.cls-2,.cls-4,.cls-7,.cls-8{fill:none;}.cls-2{stroke:#545454;}.cls-2,.cls-4,.cls-7{stroke-linecap:round;stroke-linejoin:round;}.cls-3{fill:#1a81c4;}.cls-4,.cls-7,.cls-8{stroke:#b9b9b9;}.cls-5{clip-path:url(#clip-path);}.cls-6{fill:#545454;}.cls-7,.cls-8{stroke-width:0.25px;}.cls-8{stroke-miterlimit:10;}</style>
    <clipPath id="clip-path">
      <rect class="cls-1" x="-29" y="1" width="24" height="24" rx="4"/>
    </clipPath>
  </defs>
  <title>file_footprint</title>
  <polygon class="cls-2" points="6.828 13.61 5.527 14.782 5.527 18.521 20.492 18.521 20.504 7.46 5.527 7.46 5.527 10.821 6.828 11.993 6.828 13.61"/>
  <rect class="cls-3" x="15.6096" y="16.244" width="3.2533" height="4.5546"/>
  <rect class="cls-3" x="7.1595" y="16.244" width="3.2533" height="4.5546"/>
  <rect class="cls-3" x="11.3829" y="16.244" width="3.2534" height="4.5546"/>
  <rect class="cls-3" x="15.6096" y="5.1826" width="3.2533" height="4.5547"/>
  <rect class="cls-3" x="7.1595" y="5.1826" width="3.2533" height="4.5547"/>
  <rect class="cls-3" x="11.3829" y="5.1826" width="3.2534" height="4.5547"/>
  <polyline class="cls-4" points="24.5 5.556 24.5 24.5 1.5 24.5 1.5 1.5 20.432 1.5"/>
  <polygon class="cls-4" points="24.497 5.48 20.52 5.48 20.52 1.503 24.497 5.48"/>
  <g class="cls-5">
    <path class="cls-6" d="M7.41,6.0683a1.351,1.351,0,0,1-1.351-1.351V2.8984H-8.015V16.9092h1.8823A1.351,1.351,0,0,1-4.7817,18.26v2.0725H9.3558V6.0683Zm-11.508.0837a.9351.9351,0,0,1-.9351-.9351.935.935,0,0,1,.9351-.9351.9351.9351,0,0,1,.9351.9351A.9352.9352,0,0,1-4.0978,6.152ZM5.98,18.8111a.9351.9351,0,1,1,.9352-.9351A.9351.9351,0,0,1,5.98,18.8111Z"/>
    <rect class="cls-3" x="6.3012" y="8.5103" width="1.9539" height="1.2809"/>
    <rect class="cls-3" x="6.3012" y="10.3591" width="1.9539" height="1.2808"/>
    <rect class="cls-7" x="-4.6709" y="7.3065" width="9.4135" height="8.5456"/>
    <polyline class="cls-8" points="-1.584 10.642 -1.253 10.642 0.791 8.599 4.677 8.599"/>
    <polyline class="cls-8" points="-1.614 8.809 -1.163 8.809 0.31 7.336"/>
    <polyline class="cls-8" points="-1.644 12.524 0.528 12.524 0.528 15.842"/>
    <line class="cls-8" x1="3.4353" y1="10.6875" x2="4.6675" y2="10.6875"/>
    <line class="cls-8" x1="3.4353" y1="12.5331" x2="4.6675" y2="12.5331"/>
    <line class="cls-8" x1="3.4353" y1="14.3448" x2="4.6675" y2="14.3448"/>
    <path class="cls-3" d="M-.3439,18.507a.64.64,0,0,1-.64-.64.64.64,0,0,1,.64-.64.64.64,0,0,1,.6405.64A.64.64,0,0,1-.3439,18.507Z"/>
    <path class="cls-3" d="M3.169,4.6976h0a.3909.3909,0,0,1-.5526,0l-.3529-.353a.3908.3908,0,0,1,0-.5525h0a.3907.3907,0,0,1,.5526,0l.3529.3529A.3909.3909,0,0,1,3.169,4.6976Z"/>
    <path class="cls-3" d="M3.169,5.2049h0a.3907.3907,0,0,0-.5526,0l-.3529.3529a.3908.3908,0,0,0,0,.5525h0a.3906.3906,0,0,0,.5525,0l.353-.3529A.3908.3908,0,0,0,3.169,5.2049Z"/>
    <path class="cls-3" d="M3.6867,4.6976h0a.3908.3908,0,0,0,.5525,0l.3529-.353a.3906.3906,0,0,0,0-.5525h0a.3906.3906,0,0,0-.5525,0l-.3529.3529A.3907.3907,0,0,0,3.6867,4.6976Z"/>
    <path class="cls-3" d="M3.6867,5.2049h0a.3906.3906,0,0,1,.5525,0l.3529.3529a.3906.3906,0,0,1,0,.5525h0a.3906.3906,0,0,1-.5525,0l-.3529-.3529A.3906.3906,0,0,1,3.6867,5.2049Z"/>
    <rect class="cls-3" x="1.4928" y="10.0468" width="1.9538" height="1.2809"/>
    <rect class="cls-3" x="1.4928" y="11.8955" width="1.9538" height="1.2809"/>
    <rect class="cls-3" x="1.4928" y="13.743" width="1.9538" height="1.2809"/>
    <path class="cls-6" d="M7.41,24.8561a1.351,1.351,0,0,1-1.351-1.351V21.6862H-8.015V35.697h1.8823a1.351,1.351,0,0,1,1.351,1.3509V39.12H9.3558V24.8561Zm-11.508.0837a.9351.9351,0,0,1-.9351-.9351.935.935,0,0,1,.9351-.9351.9351.9351,0,0,1,.9351.9351A.9352.9352,0,0,1-4.0978,24.94ZM5.98,37.5989a.9351.9351,0,1,1,.9352-.9351A.9351.9351,0,0,1,5.98,37.5989Z"/>
    <rect class="cls-7" x="-4.6709" y="26.0943" width="9.4135" height="8.5456"/>
    <path class="cls-3" d="M3.169,23.4854h0a.3909.3909,0,0,1-.5526,0l-.3529-.3529a.3909.3909,0,0,1,0-.5526h0a.3909.3909,0,0,1,.5526,0l.3529.3529A.3909.3909,0,0,1,3.169,23.4854Z"/>
    <path class="cls-3" d="M3.169,23.9927h0a.3907.3907,0,0,0-.5526,0l-.3529.3529a.3908.3908,0,0,0,0,.5525h0a.3908.3908,0,0,0,.5525,0l.353-.353A.3908.3908,0,0,0,3.169,23.9927Z"/>
    <path class="cls-3" d="M3.6867,23.4854h0a.3908.3908,0,0,0,.5525,0l.3529-.3529a.3907.3907,0,0,0,0-.5526h0a.3908.3908,0,0,0-.5525,0l-.3529.3529A.3907.3907,0,0,0,3.6867,23.4854Z"/>
    <path class="cls-3" d="M3.6867,23.9927h0a.3906.3906,0,0,1,.5525,0l.3529.3529a.3906.3906,0,0,1,0,.5525h0a.3908.3908,0,0,1-.5525,0l-.3529-.353A.3906.3906,0,0,1,3.6867,23.9927Z"/>
  </g>
</svg>