<svg id="Слой_1" data-name="Слой 1"
  xmlns:dc="http://purl.org/dc/elements/1.1/"
  xmlns:cc="http://creativecommons.org/ns#"
  xmlns:rdf="http://www.w3.org/1999/02/22-rdf-syntax-ns#"
  xmlns="http://www.w3.org/2000/svg"
  xmlns:xlink="http://www.w3.org/1999/xlink" viewBox="0 0 26 26">
  <metadata id="metadata43">
    <rdf:RDF>
      <cc:Work rdf:about="">
        <cc:license rdf:resource="http://creativecommons.org/licenses/by-sa/4.0/" />
        <dc:format>image/svg+xml</dc:format>
        <dc:type rdf:resource="http://purl.org/dc/dcmitype/StillImage" />
        <dc:title>add_arc</dc:title>
      </cc:Work>
      <cc:License rdf:about="http://creativecommons.org/licenses/by-sa/4.0/">
        <cc:permits rdf:resource="http://creativecommons.org/ns#Reproduction" />
        <cc:permits rdf:resource="http://creativecommons.org/ns#Distribution" />
        <cc:requires rdf:resource="http://creativecommons.org/ns#Notice" />
        <cc:requires rdf:resource="http://creativecommons.org/ns#Attribution" />
        <cc:permits rdf:resource="http://creativecommons.org/ns#DerivativeWorks" />
        <cc:requires rdf:resource="http://creativecommons.org/ns#ShareAlike" />
      </cc:License>
    </rdf:RDF>
  </metadata>
  <defs>
    <style>.cls-1{fill:#595959;}.cls-2{fill:#666;}.cls-3{fill:url(#Безымянный_градиент_19);}.cls-4{fill:url(#Безымянный_градиент_19-2);}.cls-5{fill:#f29100;}.cls-6,.cls-9{fill:#b9b9b9;}.cls-7{fill:#545454;}.cls-8{fill:#1a81c4;opacity:0.8;}.cls-10,.cls-9{stroke:#545454;stroke-linecap:round;stroke-linejoin:round;stroke-width:0.75px;}.cls-10{fill:none;}.cls-11{fill:#e61c50;}</style>
    <linearGradient id="Безымянный_градиент_19" x1="14.5755" y1="20.0557" x2="14.5755" y2="18.0694" gradientUnits="userSpaceOnUse">
      <stop offset="0" stop-color="#ececec"/>
      <stop offset="1" stop-color="#c6c6c5"/>
    </linearGradient>
    <linearGradient id="Безымянный_градиент_19-2" x1="15.5084" y1="20.0557" x2="15.5084" y2="18.0694" xlink:href="#Безымянный_градиент_19"/>
  </defs>
  <title>fill_zone</title>
  <path class="cls-1" d="M15.0273,17.428a.6662.6662,0,0,1-.6666-.6667V14.1038a.6649.6649,0,0,1,.2-.4765l1.0325-1.0092a.6677.6677,0,0,1,.4662-.19h2.1114a.6667.6667,0,0,1,0,1.3334h-1.84l-.6374.623v2.3769A.6662.6662,0,0,1,15.0273,17.428Z"/>
  <path class="cls-2" d="M21.558,22.2158a.6646.6646,0,0,1-.4714-.1953l-.9466-.9459a.6662.6662,0,0,1-.1953-.4714V15.5348a.6667.6667,0,1,1,1.3333,0v4.7924l.7514.7506a.6667.6667,0,0,1-.4714,1.138Z"/>
  <rect class="cls-3" x="14.2422" y="18.0694" width="0.6667" height="1.9863"/>
  <rect class="cls-4" x="15.1751" y="18.0694" width="0.6667" height="1.9863"/>
  <circle class="cls-5" cx="20.6116" cy="13.0948" r="2.4402"/>
  <path class="cls-6" d="M21.6962,13.0948A1.0846,1.0846,0,1,1,20.6116,12.01,1.0846,1.0846,0,0,1,21.6962,13.0948Z"/>
  <path class="cls-7" d="M14.1782,15.4365H15.85a.4975.4975,0,0,1,.4975.4975v1.6718a.4974.4974,0,0,1-.4974.4974H14.1781a.4974.4974,0,0,1-.4974-.4974V15.934A.4975.4975,0,0,1,14.1782,15.4365Z"/>
  <path class="cls-8" d="M22.3333,9H11.6666A2.6667,2.6667,0,0,0,9,11.6666V22.3333A2.6667,2.6667,0,0,0,11.6666,25H22.3333A2.6667,2.6667,0,0,0,25,22.3333V11.6666A2.6667,2.6667,0,0,0,22.3333,9Zm-8.231,14.1385A2.241,2.241,0,0,1,13.006,22.07h1.0963Zm1.8555-.0173-.0076.0132V22.07h1.07A2.2444,2.2444,0,0,1,15.9578,23.1211Zm4.6538-6.693a3.322,3.322,0,0,1-3.1637-2.3334h-.98l-.44.43v.6146a.82.82,0,0,1,.6537.7949v1.6719a.82.82,0,0,1-.6537.7949v.7372a2.247,2.247,0,0,1,1.0256,1.0843H12.9757a2.2448,2.2448,0,0,1,1.0516-1.0987V18.406a.82.82,0,0,1-.68-.8V15.9339a.82.82,0,0,1,.68-.8v-1.03a1.0053,1.0053,0,0,1,.3015-.7155L15.3607,12.38a.9953.9953,0,0,1,.6992-.2851h1.388a3.3266,3.3266,0,1,1,3.1637,4.3334Z"/>
  <path class="cls-7" d="M14.1781,19.9153H15.85a.4974.4974,0,0,1,.4974.4974v1.6718a.4975.4975,0,0,1-.4975.4975H14.1782a.4975.4975,0,0,1-.4975-.4975V20.4127A.4974.4974,0,0,1,14.1781,19.9153Z"/>
  <path class="cls-9" d="M3.4239,4.1163h9.7425a0,0,0,0,1,0,0v10.073a1.3569,1.3569,0,0,1-1.3569,1.3569H4.7808a1.3569,1.3569,0,0,1-1.3569-1.3569V4.1163a0,0,0,0,1,0,0Z" transform="translate(9.3815 -2.986) rotate(45.0005)"/>
  <path class="cls-10" d="M10.7153,9.5274a1.4964,1.4964,0,1,1,0-2.1162A1.4963,1.4963,0,0,1,10.7153,9.5274Z"/>
  <line class="cls-10" x1="8.5991" y1="7.4112" x2="2.5657" y2="1.3778"/>
  <path class="cls-11" d="M13.843,12.9963c0-1.1507,2.0834-4.1454,2.0834-4.1454S18.01,11.8456,18.01,12.9963a2.0834,2.0834,0,0,1-4.1668,0Z"/>
  <path class="cls-11" d="M11.9806,4.9071a5.2234,5.2234,0,0,1,4.21,4.2267l.07.3114L15.9176,8.86Z"/>
</svg>