<?xml version="1.0" encoding="UTF-8" standalone="no"?>
<svg
   xmlns:dc="http://purl.org/dc/elements/1.1/"
   xmlns:cc="http://creativecommons.org/ns#"
   xmlns:rdf="http://www.w3.org/1999/02/22-rdf-syntax-ns#"
   xmlns:svg="http://www.w3.org/2000/svg"
   xmlns="http://www.w3.org/2000/svg"
   xmlns:xlink="http://www.w3.org/1999/xlink"
   xmlns:sodipodi="http://sodipodi.sourceforge.net/DTD/sodipodi-0.dtd"
   xmlns:inkscape="http://www.inkscape.org/namespaces/inkscape"
   id="Слой_1"
   data-name="Слой 1"
   viewBox="0 0 24 24"
   version="1.1"
   sodipodi:docname="fill_zone.svg"
   inkscape:version="1.0.1 (3bc2e813f5, 2020-09-07)">
  <sodipodi:namedview
     pagecolor="#ffffff"
     bordercolor="#666666"
     borderopacity="1"
     objecttolerance="10"
     gridtolerance="10"
     guidetolerance="10"
     inkscape:pageopacity="0"
     inkscape:pageshadow="2"
     inkscape:window-width="2505"
     inkscape:window-height="1386"
     id="namedview117310"
     showgrid="true"
     inkscape:zoom="32"
     inkscape:cx="13.093347"
     inkscape:cy="9.499622"
     inkscape:window-x="0"
     inkscape:window-y="37"
     inkscape:window-maximized="0"
     inkscape:current-layer="Слой_1"
     inkscape:document-rotation="0">
    <inkscape:grid
       type="xygrid"
       id="grid240612"
       spacingx="0.5"
       spacingy="0.5"
       color="#ababff"
       opacity="0.1254902"
       empspacing="2" />
  </sodipodi:namedview>
  <metadata
     id="metadata43">
    <rdf:RDF>
      <cc:Work
         rdf:about="">
        <cc:license
           rdf:resource="http://creativecommons.org/licenses/by-sa/4.0/" />
        <dc:format>image/svg+xml</dc:format>
        <dc:type
           rdf:resource="http://purl.org/dc/dcmitype/StillImage" />
        <dc:title>add_arc</dc:title>
      </cc:Work>
      <cc:License
         rdf:about="http://creativecommons.org/licenses/by-sa/4.0/">
        <cc:permits
           rdf:resource="http://creativecommons.org/ns#Reproduction" />
        <cc:permits
           rdf:resource="http://creativecommons.org/ns#Distribution" />
        <cc:requires
           rdf:resource="http://creativecommons.org/ns#Notice" />
        <cc:requires
           rdf:resource="http://creativecommons.org/ns#Attribution" />
        <cc:permits
           rdf:resource="http://creativecommons.org/ns#DerivativeWorks" />
        <cc:requires
           rdf:resource="http://creativecommons.org/ns#ShareAlike" />
      </cc:License>
    </rdf:RDF>
  </metadata>
  <defs
     id="defs117277">
    <style
       id="style117269">.cls-1{fill:#595959;}.cls-2{fill:#666;}.cls-3{fill:url(#Безымянный_градиент_19);}.cls-4{fill:url(#Безымянный_градиент_19-2);}.cls-5{fill:#f29100;}.cls-6,.cls-9{fill:#b9b9b9;}.cls-7{fill:#545454;}.cls-8{fill:#1a81c4;opacity:0.8;}.cls-10,.cls-9{stroke:#545454;stroke-linecap:round;stroke-linejoin:round;stroke-width:0.75px;}.cls-10{fill:none;}.cls-11{fill:#bf2641;}</style>
    <linearGradient
       id="Безымянный_градиент_19"
       x1="14.5755"
       y1="20.0557"
       x2="14.5755"
       y2="18.0694"
       gradientUnits="userSpaceOnUse">
      <stop
         offset="0"
         stop-color="#ececec"
         id="stop117271" />
      <stop
         offset="1"
         stop-color="#c6c6c5"
         id="stop117273" />
    </linearGradient>
    <linearGradient
       id="Безымянный_градиент_19-2"
       x1="15.5084"
       y1="20.0557"
       x2="15.5084"
       y2="18.0694"
       xlink:href="#Безымянный_градиент_19"
       gradientTransform="translate(-1,-1)" />
  </defs>
  <title
     id="title117279">fill_zone</title>
  <path
     id="polygon838"
     style="fill:#1a81c4;stroke:#1a81c4;stroke-width:0.999998"
     d="M 8.5000001,16.868421 V 23.5 H 22.5 v -14 h -9.578947 v 7.368421 z"
     class="st0"
     sodipodi:nodetypes="ccccccc" />
  <path
     style="fill:#ffffff;fill-opacity:1;stroke:#1a81c4;stroke-width:1px;stroke-linecap:butt;stroke-linejoin:miter;stroke-opacity:1"
     d="m 12.909818,16 c 0,0 1.090182,-1 2.326256,-0.834288 1.388413,0.186136 0.959823,-1.731766 1.799494,-2.1308 C 17.627086,12.753808 18.360286,13.14028 19,13 19.789616,12.826849 20.412252,12.048029 21.220287,12.024504 21.67516,12.011261 22.5,12.5 22.5,12.5 v -3 h -9.578947 z"
     id="path868"
     sodipodi:nodetypes="csaaacccc" />
  <path
     class="cls-9"
     d="M 7.8918527,1.3457223 14.78078,8.2347702 7.6580317,15.357395 a 1.3569,1.3569 0 0 1 -1.9189464,-1.7e-5 L 0.76908723,10.387293 a 1.3569,1.3569 0 0 1 1.674e-5,-1.9189463 z"
     id="path117299" />
  <path
     class="cls-10"
     d="m 9.7153,8.5274 a 1.4964,1.4964 0 1 1 0,-2.1162 1.4963,1.4963 0 0 1 0,2.1162 z"
     id="path117301" />
  <line
     class="cls-10"
     x1="7.5991001"
     y1="6.4112"
     x2="1.5657001"
     y2="0.37779999"
     id="line117303" />
  <path
     class="cls-11"
     d="m 12.843,11.9963 c 0,-1.1507 2.0834,-4.1454 2.0834,-4.1454 0,0 2.0836,2.9947 2.0836,4.1454 a 2.0834,2.0834 0 0 1 -4.1668,0 z"
     id="path117305" />
  <path
     class="cls-11"
     d="m 10.9806,3.9071 a 5.2234,5.2234 0 0 1 4.21,4.2267 l 0.07,0.3114 -0.343,-0.5852 z"
     id="path117307" />
  <path
     id="circle858"
     style="fill:#ffffff;fill-opacity:1;stroke:none;stroke-width:1.5;stroke-linecap:round;stroke-linejoin:round;stroke-miterlimit:4;stroke-dasharray:none;stroke-opacity:1"
     sodipodi:type="inkscape:offset"
     inkscape:radius="0.75390625"
     inkscape:original="M 19 13.753906 A 1.7466631 1.7466631 0 0 0 17.253906 15.5 A 1.7466631 1.7466631 0 0 0 19 17.246094 A 1.7466631 1.7466631 0 0 0 20.671875 16 L 23 16 L 23 15 L 20.673828 15 A 1.7466631 1.7466631 0 0 0 19 13.753906 z "
     d="m 19,13 c -0.654376,2.13e-4 -1.304864,0.269708 -1.767578,0.732422 C 16.769708,14.195136 16.500213,14.845624 16.5,15.5 c 2.13e-4,0.654376 0.269708,1.304864 0.732422,1.767578 C 17.695136,17.730292 18.345624,17.999787 19,18 c 0.841413,-7.34e-4 1.553865,-0.544118 2.009766,-1.246094 H 23 A 0.75398164,0.75398164 0 0 0 23.753906,16 V 15 A 0.75398164,0.75398164 0 0 0 23,14.246094 H 21.011719 C 20.555305,13.543328 19.842377,12.999793 19,13 Z" />
  <circle
     style="fill:#545454;stroke-width:1.5;stroke-linecap:round;stroke-linejoin:round;fill-opacity:1;stroke:none;stroke-opacity:1;stroke-miterlimit:4;stroke-dasharray:none"
     id="path856"
     cx="19"
     cy="15.5"
     r="1.7466631" />
  <path
     id="path2776"
     style="fill:#545454;fill-opacity:1;stroke:none;stroke-width:2.2;stroke-miterlimit:0;stroke-dasharray:none;stroke-opacity:1;paint-order:stroke fill markers"
     d="M 20.5,16 H 23 v -1 h -2.5 z"
     sodipodi:nodetypes="ccccc" />
</svg>
