<svg xmlns="http://www.w3.org/2000/svg" height="48" width="48" version="1.0" xmlns:xlink="http://www.w3.org/1999/xlink">
 <defs>
  <linearGradient id="a">
   <stop offset="0"/>
   <stop stop-opacity="0" offset="1"/>
  </linearGradient>
  <linearGradient id="w">
   <stop stop-color="#393a38" offset="0"/>
   <stop stop-color="#393a38" stop-opacity="0" offset="1"/>
  </linearGradient>
  <linearGradient id="v">
   <stop offset="0"/>
   <stop stop-opacity=".68235" offset=".40659"/>
   <stop stop-opacity=".48736" offset=".4533"/>
   <stop stop-opacity=".36101" offset=".5"/>
   <stop stop-opacity=".15162" offset=".70604"/>
   <stop stop-opacity="0" offset="1"/>
  </linearGradient>
  <radialGradient id="aj" fx="95.481" gradientUnits="userSpaceOnUse" cy="121.47" cx="63.847" gradientTransform="matrix(1 0 0 .10227 0 109.05)" r="63.847">
   <stop offset="0"/>
   <stop stop-opacity="0" offset="1"/>
  </radialGradient>
  <linearGradient id="an" y2="73.415" xlink:href="#v" gradientUnits="userSpaceOnUse" x2="-123.67" y1="74.96" x1="-146.75"/>
  <linearGradient id="z" y2="63.447" xlink:href="#v" gradientUnits="userSpaceOnUse" x2="-118.91" y1="64.065" x1="-82.51"/>
  <linearGradient id="aa" y2="33.764" xlink:href="#a" gradientUnits="userSpaceOnUse" x2="-118.3" y1="78.294" x1="-113.64"/>
  <radialGradient id="x" gradientUnits="userSpaceOnUse" cy="131.47" cx="29.962" gradientTransform="matrix(.27518 -.0064611 .0014253 .063649 3.1395 118.25)" r="27.02">
   <stop stop-color="#fff" offset="0"/>
   <stop stop-color="#fff" stop-opacity="0" offset="1"/>
  </radialGradient>
  <radialGradient id="y" xlink:href="#a" gradientUnits="userSpaceOnUse" cy="130.94" cx="27.566" gradientTransform="matrix(.38772 0 0 .1113 .048639 111.4)" r="27.02"/>
  <linearGradient id="ab" y2="122.54" gradientUnits="userSpaceOnUse" x2="24.946" gradientTransform="matrix(.38772 0 0 .39701 .048639 77.543)" y1="111.04" x1="24.651">
   <stop stop-color="#fff" offset="0"/>
   <stop stop-color="#fff" stop-opacity="0" offset="1"/>
  </linearGradient>
  <linearGradient id="b" y2="135.74" xlink:href="#a" gradientUnits="userSpaceOnUse" x2="22.669" gradientTransform="matrix(.38772 0 0 .39701 .048639 77.543)" y1="104.75" x1="23.023"/>
  <linearGradient id="ac" y2="59.811" gradientUnits="userSpaceOnUse" x2="41.438" gradientTransform="matrix(.38772 0 0 .39701 .048639 77.543)" y1="22.051" x1="78.569">
   <stop offset="0"/>
   <stop stop-opacity="0" offset="1"/>
  </linearGradient>
  <radialGradient id="ak" gradientUnits="userSpaceOnUse" cy="73.864" cx="-16.603" gradientTransform="matrix(.37328 .041247 .040871 2.7707 12.855 -94.521)" r="4.3906">
   <stop stop-color="#fff" offset="0"/>
   <stop stop-color="#fff" stop-opacity="0" offset="1"/>
  </radialGradient>
  <linearGradient id="ad" y2="85.424" gradientUnits="userSpaceOnUse" x2="74.325" gradientTransform="matrix(.38772 0 0 .39701 .048639 79.661)" y1="112.1" x1="98.67">
   <stop stop-opacity=".44765" offset="0"/>
   <stop stop-opacity=".13357" offset=".5"/>
   <stop stop-opacity="0" offset="1"/>
  </linearGradient>
  <linearGradient id="ae" y2="88.409" xlink:href="#w" gradientUnits="userSpaceOnUse" x2="76.362" gradientTransform="matrix(.37328 .041247 .0060014 .40685 .50668 76.511)" y1="117.21" x1="95.847"/>
  <linearGradient id="af" y2="58.653" xlink:href="#w" gradientUnits="userSpaceOnUse" x2="105.06" gradientTransform="matrix(.37328 .041247 .0060014 .40685 .50668 76.511)" y1="146.89" x1="87.068"/>
  <radialGradient id="al" fx="115.73" fy="56.281" gradientUnits="userSpaceOnUse" cy="65.848" cx="104.66" gradientTransform="matrix(.17585 -.10373 .40016 .71126 -7.7874 67.902)" r="29.999">
   <stop stop-color="#fff" offset="0"/>
   <stop stop-color="#fff" stop-opacity="0" offset="1"/>
  </radialGradient>
  <linearGradient id="ag" y2="69.992" spreadMethod="reflect" gradientUnits="userSpaceOnUse" x2="79.544" gradientTransform="matrix(.37277 -.017336 -.0021394 .44507 3.1564 76.357)" y1="52.469" x1="106.27">
   <stop stop-color="#9a7600" offset="0"/>
   <stop stop-color="#e3ad00" offset=".09292"/>
   <stop stop-color="#ffcd2c" offset=".50432"/>
   <stop stop-color="#e3ad00" offset=".91571"/>
   <stop stop-color="#b98d00" offset="1"/>
  </linearGradient>
  <linearGradient id="ah" y2="93.568" xlink:href="#a" gradientUnits="userSpaceOnUse" x2="-84.777" gradientTransform="matrix(.43793 .033657 .020585 .47905 58.22 73.393)" y1="116.56" x1="-116.79"/>
  <radialGradient id="am" fx="70.964" fy="76.702" gradientUnits="userSpaceOnUse" cy="53.38" cx="70.624" gradientTransform="matrix(.43671 -.22947 .27399 .5313 -21.732 82.986)" r="53.565">
   <stop stop-color="#fff" stop-opacity="0" offset="0"/>
   <stop stop-color="#7f7f7f" stop-opacity="0" offset=".5"/>
   <stop offset="1"/>
  </radialGradient>
  <linearGradient id="ai" y2="66.671" gradientUnits="userSpaceOnUse" x2="-27.89" gradientTransform="matrix(.43793 .033657 .020585 .47905 58.22 73.393)" y1="95.781" x1="-70.057">
   <stop stop-color="#fff" offset="0"/>
   <stop stop-color="#fff" offset=".42597"/>
   <stop stop-color="#f1f1f1" offset=".58928"/>
   <stop stop-color="#eaeaea" offset=".80220"/>
   <stop stop-color="#dfdfdf" offset="1"/>
  </linearGradient>
 </defs>
 <g transform="translate(0,-80)">
  <rect opacity=".57787" height="0" width="1" y="77" x="116" fill="#fff"/>
  <rect opacity=".57787" height="0" width="1" y="33.538" x="-141.37" fill="#fff"/>
  <path opacity=".37705" d="m6.0093 127.44c2.655 0.022 4.8939-0.27986 5.4405-0.26605 3.616 0.0913 12.279-1.6267 8.8147-3.7388-3.7851-2.3074-14.189-2.2454-18.24-0.0206-4.4207 2.428 1.3297 4.0034 3.9843 4.0254z" fill-rule="evenodd" stroke="url(#y)" stroke-width=".84431" fill="url(#x)"/>
  <path opacity=".36475" d="m127.69 121.47a63.847 6.5298 0 1 1 -127.69 0 63.847 6.5298 0 1 1 127.69 0z" transform="matrix(.38772 0 0 .39701 .048639 77.543)" fill="url(#aj)"/>
  <path opacity=".25" stroke-linejoin="round" d="m33.424 83.207 13.734 25.039c1.8994 3.4628-2.2661 9.5271-9.3001 13.538-7.034 4.0106-14.282 4.4542-16.182 0.99147-1.899-3.47-11.834-21.58-13.734-25.044-1.8989-3.463 2.267-9.527 9.301-13.537 7.034-4.0106 14.282-4.4543 16.182-0.99147z" stroke-opacity=".33333" stroke-dashoffset="4" stroke="#000" stroke-linecap="round" stroke-width="1.1682" fill="none"/>
  <path opacity=".3" stroke-linejoin="round" d="m33.424 83.207 13.734 25.039c1.8994 3.4628-2.2661 9.5271-9.3001 13.538-7.034 4.0106-14.282 4.4542-16.182 0.99147-1.899-3.47-11.834-21.58-13.734-25.044-1.8989-3.463 2.267-9.527 9.301-13.537 7.034-4.0106 14.282-4.4543 16.182-0.99147z" stroke-opacity=".33333" stroke-dashoffset="4" stroke="#000" stroke-linecap="round" stroke-width=".77878" fill="none"/>
  <path fill="url(#ai)" d="m33.423 83.085 13.734 25.039c1.8994 3.4628-2.2661 9.5271-9.3001 13.538-7.034 4.0106-14.282 4.4542-16.182 0.99146-1.9-3.46-11.835-21.57-13.734-25.036-1.8994-3.4628 2.2661-9.5271 9.3001-13.538 7.034-4.0106 14.282-4.4542 16.182-0.99147z"/>
  <path opacity=".40574" fill="url(#am)" d="m33.423 83.085 13.734 25.039c1.8994 3.4628-2.2661 9.5271-9.3001 13.538-7.034 4.0106-14.282 4.4542-16.182 0.99146-1.9-3.46-11.835-21.57-13.734-25.036-1.8994-3.4628 2.2661-9.5271 9.3001-13.538 7.034-4.0106 14.282-4.4542 16.182-0.99147z"/>
  <path fill="url(#ah)" d="m33.423 83.085 13.734 25.039c1.8994 3.4628-2.2661 9.5271-9.3001 13.538-7.034 4.0106-14.282 4.4542-16.182 0.99146-1.9-3.46-11.835-21.57-13.734-25.036-1.8994-3.4628 2.2661-9.5271 9.3001-13.538 7.034-4.0106 14.282-4.4542 16.182-0.99147z"/>
  <path opacity=".4" d="m-84.361 47.981a33.496 23.882 0 1 1 -66.993 0 33.496 23.882 0 1 1 66.993 0z" transform="matrix(.38042 -.21691 .14408 .26268 59.09 52.157)" fill="url(#an)"/>
  <path opacity=".4" d="m-84.361 47.981a33.496 23.882 0 1 1 -66.993 0 33.496 23.882 0 1 1 66.993 0z" transform="matrix(.38042 -.21691 .14408 .26268 58.717 52.116)" fill="url(#z)"/>
  <path opacity=".4" d="m-84.361 47.981a33.496 23.882 0 1 1 -66.993 0 33.496 23.882 0 1 1 66.993 0z" transform="matrix(.38042 -.21691 .14408 .26268 58.717 52.116)" fill="url(#aa)"/>
  <path fill="#cacaca" d="m33.46 83.158c0.11622 0.21188 0.53583 0.96658 0.6211 1.122 1.8994 3.4628-2.2599 9.5246-9.2939 13.535-7.034 4.0106-14.276 4.4577-16.175 0.99497-0.10266-0.18716-0.59317-1.0869-0.74024-1.355 0.048724 0.54912 0.19007 1.0571 0.44752 1.5265 0.9842 1.7943 3.3607 2.5663 6.3496 2.383s6.6184-1.3189 10.182-3.3506c3.5633-2.0317 6.4077-4.5743 8.1257-7.0747 1.7179-2.5004 2.3032-4.968 1.319-6.7623-0.21456-0.39116-0.49658-0.72505-0.83492-1.0191z"/>
  <path opacity=".4" fill="#babdb6" d="m29.794 81.293c-3.206-0.363-7.69 0.753-12.087 3.259-7.034 4.011-11.202 10.082-9.3031 13.544 0.1425 0.26 0.3224 0.489 0.5228 0.705-0.1043-0.137-0.2024-0.272-0.2861-0.425-1.8993-3.462 2.2691-9.533 9.3031-13.544 6.504-3.708 13.189-4.367 15.662-1.709-0.781-1.03-2.116-1.638-3.812-1.83z"/>
  <path fill="url(#ag)" d="m23.108 104.54 9.6297 16.635c5.7579-2.6489 12.533-8.8374 13.632-12.946l-9.38-16.925c-1.1577 6.0247-8.2031 10.457-13.883 13.239z"/>
  <path stroke-linejoin="round" d="m-84.361 47.981a33.496 23.882 0 1 1 -66.993 0 33.496 23.882 0 1 1 66.993 0z" stroke-dashoffset="4" transform="matrix(.37989 -.21697 .14389 .26266 58.645 52.107)" stroke="#fff" stroke-linecap="round" stroke-width="1.6127" fill="none"/>
  <path fill="#b70000" d="m7.6345 95.042c-0.10733 0.92298 0.00976 1.7805 0.39891 2.5124 1.8376 3.456 8.6542 2.6038 15.641-1.0594 1.8682-0.97955 3.4115-2.1613 3.8182-2.5091-2.9119-1.8717-18.781-3.5503-19.858 1.0561z"/>
  <path fill-opacity=".39431" d="m29.484 80.825c-0.62002-0.06894-1.2913-0.07484-2.0036-0.03099-2.8491 0.17541-6.3402 1.2615-9.7932 3.2336-3.453 1.9722-6.1928 4.4399-7.8303 6.827-0.35762 0.52132-0.65935 1.0438-0.90883 1.5497 0.2277-0.43679 0.50037-0.87218 0.8074-1.3198 1.6375-2.3871 4.3771-4.8676 7.8301-6.8397 3.453-1.9722 6.9442-3.0582 9.7932-3.2336 2.8491-0.17541 5.0442 0.5423 5.9486 2.1932 0.62176 1.135 0.56323 2.5799-0.06699 4.1434 0.71575-1.6489 0.8196-3.1722 0.1686-4.3606-0.67829-1.2382-2.0849-1.9554-3.945-2.1622zm4.0663 7.2276c-0.24118 0.46547-0.52931 0.93211-0.85275 1.4036-1.725 2.5146-4.5694 5.0704-8.1405 7.11-3.5712 2.0396-7.1976 3.1817-10.199 3.3665-3.0013 0.18478-5.3902-0.59455-6.3826-2.4062-0.6823-1.2455-0.61017-2.8146 0.061924-4.4866-0.76023 1.7588-0.87715 3.4012-0.16353 4.7039 0.99243 1.8116 3.3813 2.591 6.3826 2.4062 3.0013-0.18478 6.6277-1.3269 10.199-3.3665 3.5712-2.0396 6.4157-4.5827 8.1407-7.0973 0.37395-0.54512 0.69082-1.0974 0.95417-1.6336z"/>
  <path fill-opacity=".39431" d="m29.69 80.732c-0.62002-0.06894-1.2915-0.08756-2.0038-0.04371-2.8491 0.17541-6.3402 1.2615-9.7932 3.2336-2.2089 1.2616-4.1189 2.7318-5.6439 4.2506 1.4707-1.4082 3.2758-2.7538 5.3342-3.9294 3.453-1.9722 6.9442-3.0582 9.7932-3.2336 2.8491-0.17541 5.088 0.55309 5.9375 2.2337 0.80802 1.5986 0.18108 3.884-1.4564 6.271-0.56859 0.82887-1.2068 1.5976-2.0239 2.4221 0.95625-0.92626 1.6916-1.8074 2.3336-2.7433 1.6375-2.3871 2.335-4.5686 1.4306-6.2195-0.678-1.237-2.047-2.034-3.908-2.241zm-18.094 7.3811c-0.94214 0.92708-1.7572 1.8759-2.4041 2.8189-1.725 2.5146-2.3245 4.9972-1.332 6.8088 0.99243 1.8116 3.3813 2.591 6.3826 2.4062 3.0013-0.18478 6.6394-1.3256 10.211-3.3652 2.3864-1.363 4.4379-2.9547 6.0578-4.6111-1.5681 1.5407-3.5161 3.0151-5.7481 4.2899-3.5712 2.0396-7.1974 3.1944-10.199 3.3792-3.002 0.19-5.3908-0.607-6.3832-2.419-0.9924-1.811-0.3929-4.294 1.332-6.808 0.5732-0.835 1.2762-1.674 2.0832-2.499z"/>
  <path fill="url(#al)" d="m23.108 104.54 9.6297 16.635c5.7579-2.6489 12.533-8.8374 13.632-12.946l-9.38-16.93c-1.1577 6.0247-8.2031 10.457-13.883 13.239z"/>
  <path opacity=".78279" fill="url(#af)" d="m46.585 107.4c0.11481 0.20932 0.52934 0.95488 0.61359 1.1085 1.8764 3.4209-2.2326 9.4093-9.1814 13.371-6.9489 3.9621-14.103 4.4038-15.98 0.98293-0.10142-0.18489-0.58599-1.0737-0.73128-1.3386 0.04813 0.54247 0.18777 1.0444 0.4421 1.508 0.97229 1.7726 3.32 2.5352 6.2728 2.3541 2.9527-0.18108 6.5383-1.3029 10.058-3.31 3.5202-2.0071 6.3302-4.5189 8.0273-6.9891s2.2753-4.9078 1.303-6.6804c-0.21196-0.38643-0.49057-0.71628-0.82482-1.0068z"/>
  <path opacity=".78279" fill="url(#ae)" d="m46.412 107.2c0.11481 0.20932 0.52934 0.95488 0.61358 1.1085 1.8764 3.4209-2.2326 9.4093-9.1814 13.371-6.9489 3.9621-14.103 4.4038-15.98 0.98292-0.10142-0.18489-0.58599-1.0737-0.73128-1.3386 0.04813 0.54247 0.18777 1.0444 0.4421 1.508 0.97229 1.7726 3.32 2.5352 6.2728 2.3541 2.9527-0.18107 6.5383-1.3029 10.058-3.31 3.5202-2.0071 6.3302-4.5189 8.0273-6.9891s2.2753-4.9078 1.303-6.6804c-0.21196-0.38643-0.49057-0.71627-0.82481-1.0068z"/>
  <path d="m6.0093 127.44c2.655 0.022 4.8939-0.27986 5.4405-0.26605 3.616 0.0913 12.279-1.6267 8.8147-3.7388-3.7851-2.3074-14.189-2.2454-18.24-0.0206-4.4207 2.428 1.3297 4.0034 3.9843 4.0254z" fill-rule="evenodd" stroke="#ae0000" stroke-width=".29507px" fill="#b90000"/>
  <path opacity=".88525" d="m5.9894 127.59c2.655 0.0219 4.904-0.29498 5.4505-0.27623 3.6491 0.12518 12.595-1.6495 8.9242-3.973-3.7471-2.3715-14.288-2.3472-18.478-0.00019-4.401 2.4652 1.4491 4.2274 4.1036 4.2494z" stroke="url(#b)" stroke-width=".03021" fill="none"/>
  <path opacity=".43852" fill="url(#ad)" d="m32.737 121.18c5.7579-2.6489 12.533-8.8374 13.632-12.946-6.7694-12.005-19.554 2.4904-13.632 12.946z"/>
  <path d="m14 99.675c-2.2234-0.05445-3.0412 1.7745-3.184 3.5536-0.42678 5.3178 0.4632 9.0456 0.16561 13.3-0.06036 0.86297-1.5603 1.7306-1.7366-0.19189-0.40911-4.4614 0.28624-7.592-0.20289-13.754-0.162-2.03-0.7721-3.988-1.3073-6.315" fill-rule="evenodd" stroke="#000" stroke-width=".039234" fill="#b70000"/>
  <path fill-rule="evenodd" fill="url(#ak)" d="m8.3586 98.041c0.42645 1.7177 0.83004 3.2679 0.95688 4.8658 0.48913 6.1622-0.20618 9.2954 0.20293 13.757 0.023488 0.25612 0.073383 0.46077 0.13732 0.62446 0.17107-0.17904 0.28884-0.40778 0.30502-0.63905 0.29759-4.2548-0.6222-7.9303-0.19542-13.248 0.11169-1.3917 0.58734-3.2122 1.8918-3.599-1.1037-0.58622-2.2392-1.1509-3.2985-1.7608z"/>
  <path fill="url(#ac)" d="m7.6345 95.042c-0.10733 0.92298 0.00976 1.7805 0.39891 2.5124 1.8376 3.456 8.6542 2.6038 15.641-1.0594 1.8682-0.97955 3.4115-2.1613 3.8182-2.5091-2.9119-1.8717-18.781-3.5503-19.858 1.0561z"/>
  <path opacity=".62705" d="m5.9894 127.59c2.655 0.0219 4.904-0.29498 5.4505-0.27623 3.6491 0.12518 12.566-1.6189 8.8943-3.9424-3.7471-2.3715-14.238-2.3421-18.429 0.005-4.401 2.4652 1.4292 4.1918 4.0837 4.2138z" stroke="url(#b)" stroke-width=".10868" fill="none"/>
  <path opacity=".24590" d="m5.9894 127.59c2.655 0.0219 4.904-0.29498 5.4505-0.27623 3.6491 0.12518 12.498-1.5125 8.817-3.82-3.7355-2.3418-14.104-2.3114-18.309-0.002-4.4209 2.4278 1.387 4.0766 4.0416 4.0985z" stroke="url(#b)" stroke-width=".38331" fill="none"/>
  <path opacity=".81967" fill="url(#ab)" d="m12.599 121.65c-3.0669-0.11835-6.3077 0.19446-8.6791 0.91147-1.2154 1.1351 3.318 2.24 6.6542 2.3243 3.7933 0.0958 8.0875-1.0156 7.3338-2.4969-1.5294-0.41634-3.3782-0.6644-5.309-0.73889z"/>
  <path opacity=".70082" d="m6.0093 127.44c2.655 0.022 4.8939-0.27986 5.4405-0.26605 3.616 0.0913 12.279-1.6267 8.8147-3.7388-3.7851-2.3074-14.189-2.2454-18.24-0.0206-4.4207 2.428 1.3297 4.0034 3.9843 4.0254z" fill-rule="evenodd" stroke="url(#y)" stroke-width=".29507px" fill="url(#x)"/>
 </g>
</svg>
