<?xml version="1.0" encoding="UTF-8" standalone="no"?>
<svg
   xmlns:dc="http://purl.org/dc/elements/1.1/"
   xmlns:cc="http://creativecommons.org/ns#"
   xmlns:rdf="http://www.w3.org/1999/02/22-rdf-syntax-ns#"
   xmlns:svg="http://www.w3.org/2000/svg"
   xmlns="http://www.w3.org/2000/svg"
   xmlns:sodipodi="http://sodipodi.sourceforge.net/DTD/sodipodi-0.dtd"
   xmlns:inkscape="http://www.inkscape.org/namespaces/inkscape"
   height="26"
   width="26"
   version="1.1"
   id="svg2"
   inkscape:version="0.48.4 r9939"
   sodipodi:docname="fill_zone.svg">
  <metadata
     id="metadata40">
    <rdf:RDF>
      <cc:Work
         rdf:about="">
        <dc:format>image/svg+xml</dc:format>
        <dc:type
           rdf:resource="http://purl.org/dc/dcmitype/StillImage" />
        <dc:title></dc:title>
      </cc:Work>
    </rdf:RDF>
  </metadata>
  <sodipodi:namedview
     pagecolor="#ffffff"
     bordercolor="#666666"
     borderopacity="1"
     objecttolerance="10"
     gridtolerance="10"
     guidetolerance="10"
     inkscape:pageopacity="0"
     inkscape:pageshadow="2"
     inkscape:window-width="1366"
     inkscape:window-height="744"
     id="namedview38"
     showgrid="true"
     inkscape:snap-to-guides="false"
     inkscape:snap-grids="false"
     inkscape:zoom="14.026081"
     inkscape:cx="9.2631421"
     inkscape:cy="10.152534"
     inkscape:window-x="0"
     inkscape:window-y="24"
     inkscape:window-maximized="1"
     inkscape:current-layer="svg2"
     showguides="true"
     inkscape:guide-bbox="true">
    <inkscape:grid
       type="xygrid"
       id="grid3017"
       empspacing="2"
       visible="true"
       enabled="true"
       snapvisiblegridlinesonly="true"
       spacingx="0.5px"
       spacingy="0.5px" />
  </sodipodi:namedview>
  <defs
     id="defs4">
    <filter
       id="c"
       height="1.3651"
       width="1.2097"
       color-interpolation-filters="sRGB"
       y="-0.18257"
       x="-0.10484">
      <feGaussianBlur
         stdDeviation="1.5978799"
         id="feGaussianBlur7" />
    </filter>
    <filter
       id="d"
       height="1.4696"
       width="1.4809999"
       color-interpolation-filters="sRGB"
       y="-0.23481999"
       x="-0.24049">
      <feGaussianBlur
         stdDeviation="1.5978799"
         id="feGaussianBlur10" />
    </filter>
  </defs>
  <g
     transform="matrix(1.6382539,0,0,1.5572263,1.2572207,0.36314149)"
     id="g16">
    <rect
       height="16"
       width="16"
       y="0"
       x="0"
       id="rect18"
       style="fill-opacity:0" />
  </g>
  <path
     style="fill:none;stroke:#808080;stroke-width:3;stroke-linecap:round;stroke-linejoin:miter;stroke-miterlimit:4;stroke-opacity:1;stroke-dasharray:none"
     d="m 13,10.5 4.5,0 6,13"
     id="path3765"
     inkscape:connector-curvature="0"
     sodipodi:nodetypes="ccc" />
  <path
     sodipodi:type="arc"
     style="fill:none;stroke:#808080;stroke-width:3;stroke-miterlimit:4;stroke-dasharray:none"
     id="path3815"
     sodipodi:cx="9"
     sodipodi:cy="10"
     sodipodi:rx="3.5"
     sodipodi:ry="3.5"
     d="m 12.5,10 a 3.5,3.5 0 1 1 -7,0 3.5,3.5 0 1 1 7,0 z"
     transform="translate(0,0.5)" />
  <path
     sodipodi:nodetypes="cccccsssccccc"
     inkscape:connector-curvature="0"
     id="path2991"
     d="M 0,0 0,26 20.5,26 15,14 15.0625,14 C 13.8522,16.092433 11.591084,17.5 9,17.5 c -3.8659934,0 -7,-3.134007 -7,-7 0,-3.8659934 3.1340066,-7 7,-7 2.591084,0 4.8522,1.4075669 6.0625,3.5 L 20,7 26,20 26,0 z"
     style="fill:#cccccc;fill-opacity:1;stroke:#008000;stroke-width:1.29999994999999990;stroke-linecap:butt;stroke-linejoin:round;stroke-miterlimit:4;stroke-opacity:1;stroke-dasharray:none" />
  <path
     style="fill:#49a749;fill-opacity:1;stroke:#008000;stroke-width:1.29999995;stroke-linecap:square;stroke-linejoin:round;stroke-miterlimit:4;stroke-opacity:1;stroke-dasharray:none"
     d="m 0,20 0,6 20.5,0 -2.756725,-6"
     id="rect3811"
     inkscape:connector-curvature="0"
     sodipodi:nodetypes="cccc" />
  <path
     style="fill:#8cabda;stroke:#162d50;stroke-width:1px;stroke-linecap:butt;stroke-linejoin:round;stroke-opacity:1;fill-opacity:1;opacity:1"
     d="m 18.5,22 -8,-7 9.5,-8 5.5,9 z"
     id="path3766"
     inkscape:connector-curvature="0"
     sodipodi:nodetypes="ccccc" />
  <path
     sodipodi:type="arc"
     style="fill:#87aade;fill-opacity:1;stroke:#162d50;stroke-width:1;stroke-linecap:square;stroke-linejoin:round;stroke-miterlimit:4;stroke-opacity:1;stroke-dasharray:none;stroke-dashoffset:0"
     id="path3768"
     sodipodi:cx="17"
     sodipodi:cy="11"
     sodipodi:rx="1.5"
     sodipodi:ry="1.5"
     d="m 18.5,11 a 1.5,1.5 0 1 1 -3,0 1.5,1.5 0 1 1 3,0 z"
     transform="translate(1,2.5)" />
  <path
     style="fill:none;stroke:#162d50;stroke-width:1px;stroke-linecap:round;stroke-linejoin:miter;stroke-opacity:1"
     d="M 18,13.5 24.5,8"
     id="path3770"
     inkscape:connector-curvature="0" />
  <path
     style="fill:#38b838;fill-opacity:1;stroke:#004000;stroke-width:0.50000000000000000;stroke-linecap:butt;stroke-linejoin:round;stroke-miterlimit:4;stroke-opacity:1;stroke-dasharray:none"
     d="M 15.579758,9.7520686 9.9537234,14.550414 C 9.2746023,15.332679 10.596967,16.086351 11.134309,17.90331 11.968395,22.608486 10,24 10,24 10,24 8.8600467,20.596911 6.5082742,17.865307 5.240134,16.392352 4.0542798,12.949492 8.5,11 10.536421,10.107009 15.579758,9.7520686 15.579758,9.7520686 z"
     id="path3772"
     inkscape:connector-curvature="0"
     sodipodi:nodetypes="ccccssc" />
</svg>
