<?xml version="1.0" encoding="UTF-8" standalone="no"?>
<svg xmlns:dc="http://purl.org/dc/elements/1.1/"
   xmlns:cc="http://creativecommons.org/ns#"
   xmlns:rdf="http://www.w3.org/1999/02/22-rdf-syntax-ns#"
   xmlns:svg="http://www.w3.org/2000/svg"
   xmlns="http://www.w3.org/2000/svg"
   xmlns:sodipodi="http://sodipodi.sourceforge.net/DTD/sodipodi-0.dtd"
   xmlns:inkscape="http://www.inkscape.org/namespaces/inkscape" id="Слой_1" data-name="Слой 1" viewBox="0 0 24 24" version="1.1" sodipodi:docname="find.svg" inkscape:version="1.0.1 (3bc2e813f5, 2020-09-07)">
   <sodipodi:namedview pagecolor="#ffffff" bordercolor="#666666" borderopacity="1" objecttolerance="10" gridtolerance="10" guidetolerance="10" inkscape:pageopacity="0" inkscape:pageshadow="2" inkscape:window-width="1609" inkscape:window-height="1286" id="namedview30" showgrid="true" inkscape:zoom="27.961538" inkscape:cx="3.3259971" inkscape:cy="13" inkscape:window-x="0" inkscape:window-y="37" inkscape:window-maximized="0" inkscape:document-rotation="0" inkscape:current-layer="Слой_1">
      <inkscape:grid type="xygrid" id="grid_kicad" spacingx="0.5" spacingy="0.5" color="#9999ff" opacity="0.13" empspacing="2" />
   </sodipodi:namedview>
   <metadata id="metadata43">
      <rdf:RDF>
         <cc:Work rdf:about="">
            <cc:license rdf:resource="http://creativecommons.org/licenses/by-sa/4.0/" />
            <dc:format>image/svg+xml</dc:format>
            <dc:type rdf:resource="http://purl.org/dc/dcmitype/StillImage" />
            <dc:title>add_arc</dc:title>
         </cc:Work>
         <cc:License rdf:about="http://creativecommons.org/licenses/by-sa/4.0/">
            <cc:permits rdf:resource="http://creativecommons.org/ns#Reproduction" />
            <cc:permits rdf:resource="http://creativecommons.org/ns#Distribution" />
            <cc:requires rdf:resource="http://creativecommons.org/ns#Notice" />
            <cc:requires rdf:resource="http://creativecommons.org/ns#Attribution" />
            <cc:permits rdf:resource="http://creativecommons.org/ns#DerivativeWorks" />
            <cc:requires rdf:resource="http://creativecommons.org/ns#ShareAlike" />
         </cc:License>
      </rdf:RDF>
   </metadata>
   <defs id="defs117317">
      <style id="style117315">.cls-1{fill:#b9b9b9;}.cls-2{fill:#1a81c4;}.cls-3{fill:#bf2641;}.cls-4{fill:#bf2641;}.cls-5{fill:#fff;}</style>
   </defs>
   <title id="title117319">find</title>
   <polygon class="cls-1" points="16.776,1.008 1,1.008 1,21.999 21.991,21.999 21.991,6.253 16.776,6.253 " id="polygon117321" transform="translate(-1,-1)" />
   <polygon class="cls-2" points="21.991,6.253 16.776,1.008 16.776,6.253 " id="polygon117323" transform="translate(-1,-1)" />
   <rect class="cls-3" x="-0.99991894" y="25.728683" width="2" height="3" transform="rotate(-45)" id="rect117325" />
   <path class="cls-4" d="m 23.4157,23.4155 v 0 a 2,2 0 0 1 -2.8285,0 l -2.8284,-2.8284 2.8284,-2.8285 2.8285,2.8285 a 2,2 0 0 1 0,2.8284 z" id="path117327" />
   <path class="cls-4" d="M 18.3721,8.4632 A 7.0065,7.0065 0 1 1 8.4679,8.4679 7.0032,7.0032 0 0 1 18.3721,8.4632 Z" id="path117329" />
   <path class="cls-5" d="m 16.9533,9.882 a 5,5 0 1 1 -7.0711,0 5,5 0 0 1 7.0711,0 z" id="path117331" />
</svg>
