<?xml version="1.0" encoding="UTF-8" standalone="no"?>
<!-- Created with Inkscape (http://www.inkscape.org/) -->

<svg
   xmlns:dc="http://purl.org/dc/elements/1.1/"
   xmlns:cc="http://creativecommons.org/ns#"
   xmlns:rdf="http://www.w3.org/1999/02/22-rdf-syntax-ns#"
   xmlns:svg="http://www.w3.org/2000/svg"
   xmlns="http://www.w3.org/2000/svg"
   xmlns:xlink="http://www.w3.org/1999/xlink"
   xmlns:sodipodi="http://sodipodi.sourceforge.net/DTD/sodipodi-0.dtd"
   xmlns:inkscape="http://www.inkscape.org/namespaces/inkscape"
   width="26"
   height="26"
   id="svg2"
   version="1.1"
   inkscape:version="0.91 r"
   sodipodi:docname="find.svg">
  <defs
     id="defs4">
    <linearGradient
       id="linearGradient3775">
      <stop
         style="stop-color:#ffffff;stop-opacity:1;"
         offset="0"
         id="stop3777" />
      <stop
         style="stop-color:#e1e1e1;stop-opacity:1;"
         offset="1"
         id="stop3779" />
    </linearGradient>
    <linearGradient
       id="linearGradient3767">
      <stop
         style="stop-color:#ffffff;stop-opacity:1;"
         offset="0"
         id="stop3769" />
      <stop
         style="stop-color:#dcdcdc;stop-opacity:1;"
         offset="1"
         id="stop3771" />
    </linearGradient>
    <linearGradient
       inkscape:collect="always"
       xlink:href="#linearGradient3775"
       id="linearGradient3781"
       x1="20"
       y1="21"
       x2="1"
       y2="1"
       gradientUnits="userSpaceOnUse" />
    <filter
       inkscape:collect="always"
       id="filter3899">
      <feGaussianBlur
         inkscape:collect="always"
         stdDeviation="0.375"
         id="feGaussianBlur3901" />
    </filter>
    <filter
       inkscape:collect="always"
       id="filter3952"
       x="-0.12"
       width="1.24"
       y="-0.12"
       height="1.24">
      <feGaussianBlur
         inkscape:collect="always"
         stdDeviation="0.35"
         id="feGaussianBlur3954" />
    </filter>
    <radialGradient
       inkscape:collect="always"
       xlink:href="#linearGradient3767"
       id="radialGradient3975"
       cx="17.249992"
       cy="6.4166613"
       fx="17.249992"
       fy="6.4166613"
       r="3.5"
       gradientUnits="userSpaceOnUse"
       gradientTransform="matrix(0.85714311,-0.85714265,1.4285709,1.4285716,-4.9523675,12.619044)" />
    <linearGradient
       gradientTransform="translate(7.5,1.5)"
       y2="16"
       x2="21"
       y1="25"
       x1="1.5"
       gradientUnits="userSpaceOnUse"
       id="linearGradient4055"
       xlink:href="#linearGradient3987"
       inkscape:collect="always" />
    <linearGradient
       inkscape:collect="always"
       id="linearGradient3987">
      <stop
         style="stop-color:#000000;stop-opacity:0.502"
         offset="0"
         id="stop3989" />
      <stop
         style="stop-color:#000000;stop-opacity:0"
         offset="1"
         id="stop3991" />
    </linearGradient>
    <linearGradient
       id="linearGradient4007">
      <stop
         style="stop-color:#d63535;stop-opacity:1;"
         offset="0"
         id="stop4009" />
      <stop
         id="stop4015"
         offset="0.5"
         style="stop-color:#df6060;stop-opacity:1" />
      <stop
         style="stop-color:#d63535;stop-opacity:1"
         offset="1"
         id="stop4011" />
    </linearGradient>
    <linearGradient
       id="linearGradient3951">
      <stop
         style="stop-color:#616161;stop-opacity:1;"
         offset="0"
         id="stop3953" />
      <stop
         id="stop3963"
         offset="0.19027933"
         style="stop-color:#919191;stop-opacity:1;" />
      <stop
         id="stop3959"
         offset="0.61020994"
         style="stop-color:#a6a6a6;stop-opacity:1;" />
      <stop
         style="stop-color:#8d8d8d;stop-opacity:1;"
         offset="0.86132389"
         id="stop3961" />
      <stop
         style="stop-color:#5c5c5c;stop-opacity:1;"
         offset="1"
         id="stop3955" />
    </linearGradient>
    <linearGradient
       gradientUnits="userSpaceOnUse"
       y2="19.285688"
       x2="10.558969"
       y1="3.0148761"
       x1="10.558969"
       gradientTransform="scale(1.0003344,0.9996657)"
       id="StandardGradient">
      <stop
         style="stop-color:#000000;stop-opacity:0.86274511;"
         offset="0"
         id="stop3309" />
      <stop
         id="stop3311"
         offset="1"
         style="stop-color:#000000;stop-opacity:0.47058824;" />
    </linearGradient>
    <linearGradient
       y2="19.285688"
       x2="10.558969"
       y1="3.0148761"
       x1="10.558969"
       gradientTransform="matrix(1.2478294,0,0,1.18389,0.28239592,-4.4878088)"
       gradientUnits="userSpaceOnUse"
       id="linearGradient3031"
       xlink:href="#StandardGradient"
       inkscape:collect="always" />
    <linearGradient
       y2="19.285688"
       x2="10.558969"
       y1="3.0148761"
       x1="10.558969"
       gradientTransform="matrix(1.2548423,0,0,1.2400195,0.14050495,-5.6670931)"
       gradientUnits="userSpaceOnUse"
       id="linearGradient2999"
       xlink:href="#StandardGradient"
       inkscape:collect="always" />
    <linearGradient
       inkscape:collect="always"
       xlink:href="#linearGradient4295"
       id="linearGradient4301"
       x1="15.0202"
       y1="3.0202"
       x2="4.0201998"
       y2="15.0202"
       gradientUnits="userSpaceOnUse"
       gradientTransform="matrix(0.90625003,0,0,0.90625003,3.4374971,1031.7988)" />
    <linearGradient
       inkscape:collect="always"
       id="linearGradient4295">
      <stop
         style="stop-color:#ffffff;stop-opacity:1"
         offset="0"
         id="stop4297" />
      <stop
         style="stop-color:#a7c1f2;stop-opacity:1"
         offset="1"
         id="stop4299" />
    </linearGradient>
    <linearGradient
       inkscape:collect="always"
       xlink:href="#linearGradient4817"
       id="linearGradient4823"
       x1="-7"
       y1="1033.3622"
       x2="-12.5"
       y2="1040.8622"
       gradientUnits="userSpaceOnUse"
       gradientTransform="matrix(0.90625003,0,0,0.90625003,23.393313,98.0515)" />
    <linearGradient
       inkscape:collect="always"
       id="linearGradient4817">
      <stop
         style="stop-color:#a3acb8;stop-opacity:1"
         offset="0"
         id="stop4819" />
      <stop
         style="stop-color:#535d6c;stop-opacity:1"
         offset="1"
         id="stop4821" />
    </linearGradient>
  </defs>
  <sodipodi:namedview
     id="base"
     pagecolor="#ffffff"
     bordercolor="#666666"
     borderopacity="1.0"
     inkscape:pageopacity="0"
     inkscape:pageshadow="2"
     inkscape:zoom="15.365973"
     inkscape:cx="8.8476326"
     inkscape:cy="9.9952454"
     inkscape:document-units="px"
     inkscape:current-layer="layer1"
     showgrid="true"
     inkscape:showpageshadow="false"
     inkscape:window-width="1920"
     inkscape:window-height="1053"
     inkscape:window-x="0"
     inkscape:window-y="0"
     inkscape:window-maximized="1"
     inkscape:snap-bbox="true"
     inkscape:object-nodes="true"
     inkscape:snap-nodes="false">
    <inkscape:grid
       type="xygrid"
       id="grid2985"
       empspacing="2"
       visible="true"
       enabled="true"
       snapvisiblegridlinesonly="true"
       spacingx="0.5px"
       spacingy="0.5px" />
  </sodipodi:namedview>
  <metadata
     id="metadata7">
    <rdf:RDF>
      <cc:Work
         rdf:about="">
        <dc:format>image/svg+xml</dc:format>
        <dc:type
           rdf:resource="http://purl.org/dc/dcmitype/StillImage" />
        <dc:title />
      </cc:Work>
    </rdf:RDF>
  </metadata>
  <g
     inkscape:label="Layer 1"
     inkscape:groupmode="layer"
     id="layer1"
     transform="translate(0,-1026.3622)">
    <path
       sodipodi:nodetypes="cccccc"
       inkscape:connector-curvature="0"
       id="path3889"
       d="m 0.5,0.5 17,0 c 3,1 7,5 8,8 l 0,17 -25,0 z"
       style="opacity:0.5;fill:#000000;fill-opacity:1;stroke:none;filter:url(#filter3899)"
       transform="translate(0,1026.3622)" />
    <path
       style="fill:url(#linearGradient3781);fill-opacity:1;stroke:none"
       d="m 1,1 16,0 c 3,1 7,5 8,8 l 0,16 -24,0 z"
       id="rect3761"
       inkscape:connector-curvature="0"
       sodipodi:nodetypes="cccccc"
       transform="translate(0,1026.3622)" />
    <path
       sodipodi:nodetypes="cccc"
       transform="translate(0,1026.3622)"
       inkscape:connector-curvature="0"
       id="path3783"
       d="m 17,1 c 1,0.5 7.5,7 8,8 C 23,8 20,8 18,8 18,6 18,3 17,1 z"
       style="opacity:0.5;fill:#373737;fill-opacity:1;stroke:none;filter:url(#filter3952)" />
    <path
       style="fill:url(#radialGradient3975);fill-opacity:1;stroke:none"
       d="m 17,1 c 3,1 7,5 8,8 C 23.5,8 22,7 19,7 19,4 18,2.5 17,1 z"
       id="path3765"
       inkscape:connector-curvature="0"
       transform="translate(0,1026.3622)"
       sodipodi:nodetypes="cccc" />
    <path
       sodipodi:type="arc"
       style="opacity:0.3;fill:#000000;fill-opacity:1;stroke:none"
       id="path3903"
       sodipodi:cx="2.5"
       sodipodi:cy="3.5"
       sodipodi:rx="1"
       sodipodi:ry="1"
       d="m 3.5,3.5 a 1,1 0 0 1 -1,1 1,1 0 0 1 -1,-1 1,1 0 0 1 1,-1 1,1 0 0 1 1,1 z"
       transform="matrix(0.75,0,0,0.75,0.625,1026.2372)" />
    <path
       transform="matrix(0.75,0,0,0.75,0.625,1029.2372)"
       d="m 3.5,3.5 a 1,1 0 0 1 -1,1 1,1 0 0 1 -1,-1 1,1 0 0 1 1,-1 1,1 0 0 1 1,1 z"
       sodipodi:ry="1"
       sodipodi:rx="1"
       sodipodi:cy="3.5"
       sodipodi:cx="2.5"
       id="path3906"
       style="opacity:0.3;fill:#000000;fill-opacity:1;stroke:none"
       sodipodi:type="arc" />
    <path
       transform="matrix(0.75,0,0,0.75,0.625,1032.2372)"
       d="m 3.5,3.5 a 1,1 0 0 1 -1,1 1,1 0 0 1 -1,-1 1,1 0 0 1 1,-1 1,1 0 0 1 1,1 z"
       sodipodi:ry="1"
       sodipodi:rx="1"
       sodipodi:cy="3.5"
       sodipodi:cx="2.5"
       id="path3908"
       style="opacity:0.3;fill:#000000;fill-opacity:1;stroke:none"
       sodipodi:type="arc" />
    <path
       sodipodi:type="arc"
       style="opacity:0.3;fill:#000000;fill-opacity:1;stroke:none"
       id="path3910"
       sodipodi:cx="2.5"
       sodipodi:cy="3.5"
       sodipodi:rx="1"
       sodipodi:ry="1"
       d="m 3.5,3.5 a 1,1 0 0 1 -1,1 1,1 0 0 1 -1,-1 1,1 0 0 1 1,-1 1,1 0 0 1 1,1 z"
       transform="matrix(0.75,0,0,0.75,0.625,1035.2372)" />
    <path
       transform="matrix(0.75,0,0,0.75,0.625,1038.2372)"
       d="m 3.5,3.5 a 1,1 0 0 1 -1,1 1,1 0 0 1 -1,-1 1,1 0 0 1 1,-1 1,1 0 0 1 1,1 z"
       sodipodi:ry="1"
       sodipodi:rx="1"
       sodipodi:cy="3.5"
       sodipodi:cx="2.5"
       id="path3912"
       style="opacity:0.3;fill:#000000;fill-opacity:1;stroke:none"
       sodipodi:type="arc" />
    <path
       sodipodi:type="arc"
       style="opacity:0.3;fill:#000000;fill-opacity:1;stroke:none"
       id="path3914"
       sodipodi:cx="2.5"
       sodipodi:cy="3.5"
       sodipodi:rx="1"
       sodipodi:ry="1"
       d="m 3.5,3.5 a 1,1 0 0 1 -1,1 1,1 0 0 1 -1,-1 1,1 0 0 1 1,-1 1,1 0 0 1 1,1 z"
       transform="matrix(0.75,0,0,0.75,0.625,1041.2372)" />
    <path
       sodipodi:type="arc"
       style="opacity:0.3;fill:#000000;fill-opacity:1;stroke:none"
       id="path3916"
       sodipodi:cx="2.5"
       sodipodi:cy="3.5"
       sodipodi:rx="1"
       sodipodi:ry="1"
       d="m 3.5,3.5 a 1,1 0 0 1 -1,1 1,1 0 0 1 -1,-1 1,1 0 0 1 1,-1 1,1 0 0 1 1,1 z"
       transform="matrix(0.75,0,0,0.75,0.625,1044.2372)" />
    <path
       transform="matrix(0.75,0,0,0.75,0.625,1047.2372)"
       d="m 3.5,3.5 a 1,1 0 0 1 -1,1 1,1 0 0 1 -1,-1 1,1 0 0 1 1,-1 1,1 0 0 1 1,1 z"
       sodipodi:ry="1"
       sodipodi:rx="1"
       sodipodi:cy="3.5"
       sodipodi:cx="2.5"
       id="path3918"
       style="opacity:0.3;fill:#000000;fill-opacity:1;stroke:none"
       sodipodi:type="arc" />
    <path
       style="fill:none;stroke:#000000;stroke-width:1px;stroke-linecap:butt;stroke-linejoin:miter;stroke-opacity:1;opacity:0.2"
       d="m 5,3.5 11,0"
       id="path3283"
       inkscape:connector-curvature="0"
       transform="translate(0,1026.3622)" />
    <path
       inkscape:connector-curvature="0"
       id="path3285"
       d="m 5,1032.8622 11,0"
       style="opacity:0.2;fill:none;stroke:#000000;stroke-width:1px;stroke-linecap:butt;stroke-linejoin:miter;stroke-opacity:1" />
    <path
       style="opacity:0.2;fill:none;stroke:#000000;stroke-width:1px;stroke-linecap:butt;stroke-linejoin:miter;stroke-opacity:1"
       d="m 5,1035.8622 18,0"
       id="path3287"
       inkscape:connector-curvature="0"
       sodipodi:nodetypes="cc" />
    <path
       sodipodi:nodetypes="cc"
       inkscape:connector-curvature="0"
       id="path3289"
       d="m 5,1038.8622 18,0"
       style="opacity:0.2;fill:none;stroke:#000000;stroke-width:1px;stroke-linecap:butt;stroke-linejoin:miter;stroke-opacity:1" />
    <path
       style="opacity:0.2;fill:none;stroke:#000000;stroke-width:1px;stroke-linecap:butt;stroke-linejoin:miter;stroke-opacity:1"
       d="m 5,1041.8622 18,0"
       id="path3291"
       inkscape:connector-curvature="0"
       sodipodi:nodetypes="cc" />
    <path
       sodipodi:nodetypes="cc"
       inkscape:connector-curvature="0"
       id="path3293"
       d="m 5,1044.8622 18,0"
       style="opacity:0.2;fill:none;stroke:#000000;stroke-width:1px;stroke-linecap:butt;stroke-linejoin:miter;stroke-opacity:1" />
    <path
       style="opacity:0.2;fill:none;stroke:#000000;stroke-width:1px;stroke-linecap:butt;stroke-linejoin:miter;stroke-opacity:1"
       d="m 5,1047.8622 16,0"
       id="path3317"
       inkscape:connector-curvature="0"
       sodipodi:nodetypes="cc" />
    <g
       id="g5113"
       transform="matrix(-0.91051311,0,0,0.91051311,-0.71019747,91.327528)">
      <circle
         transform="scale(-1,1)"
         r="7.25"
         cy="1040.8622"
         cx="12.5"
         style="fill:url(#linearGradient4301);fill-opacity:1;stroke:none;stroke-width:1.5;stroke-miterlimit:4;stroke-dasharray:none;stroke-opacity:1"
         id="circle4285" />
      <path
         sodipodi:nodetypes="cc"
         style="fill:none;fill-rule:evenodd;stroke:#999999;stroke-width:2;stroke-linecap:butt;stroke-linejoin:miter;stroke-miterlimit:4;stroke-dasharray:none;stroke-opacity:1"
         d="m -17,1044.3622 11,0"
         id="path4307"
         inkscape:connector-curvature="0" />
      <path
         inkscape:connector-curvature="0"
         id="path4305"
         d="m -17,1040.3622 12,0"
         style="fill:none;fill-rule:evenodd;stroke:#999999;stroke-width:2;stroke-linecap:butt;stroke-linejoin:miter;stroke-miterlimit:4;stroke-dasharray:none;stroke-opacity:1"
         sodipodi:nodetypes="cc" />
      <path
         style="fill:none;fill-rule:evenodd;stroke:#999999;stroke-width:2;stroke-linecap:butt;stroke-linejoin:miter;stroke-miterlimit:4;stroke-dasharray:none;stroke-opacity:1"
         d="m -15,1036.3622 8,0"
         id="path4303"
         inkscape:connector-curvature="0"
         sodipodi:nodetypes="cc" />
      <circle
         transform="scale(-1,1)"
         id="path3766"
         style="fill:none;stroke:url(#linearGradient4823);stroke-width:1.5;stroke-miterlimit:4;stroke-dasharray:none;stroke-opacity:1"
         cx="12.5"
         cy="1040.8622"
         r="7.25" />
      <path
         sodipodi:nodetypes="cc"
         inkscape:connector-curvature="0"
         id="path3782"
         d="m -17.9798,1046.342 -2.5202,2.5202"
         style="fill:none;stroke:#535d6c;stroke-width:2;stroke-linecap:round;stroke-linejoin:miter;stroke-miterlimit:4;stroke-dasharray:none;stroke-opacity:1" />
      <path
         sodipodi:nodetypes="cc"
         style="fill:none;stroke:#4d4d4d;stroke-width:4;stroke-linecap:round;stroke-linejoin:miter;stroke-miterlimit:4;stroke-dasharray:none;stroke-opacity:1"
         d="m -24.9798,1053.342 4.4798,-4.4798"
         id="path3784"
         inkscape:connector-curvature="0" />
      <circle
         r="6"
         cy="1040.8622"
         cx="12.5"
         style="fill:none;stroke:#ffffff;stroke-width:0.99999994;stroke-miterlimit:4;stroke-dasharray:none;stroke-opacity:0.49411765"
         id="circle4825"
         transform="scale(-1,1)" />
    </g>
  </g>
</svg>
