<svg id="Слой_1" data-name="Слой 1"
  xmlns:cc="http://creativecommons.org/ns#"
  xmlns:rdf="http://www.w3.org/1999/02/22-rdf-syntax-ns#"
  xmlns="http://www.w3.org/2000/svg" viewBox="0 0 26 26">
  <metadata id="metadata43">
    <rdf:RDF>
      <cc:Work rdf:about="">
        <cc:license rdf:resource="http://creativecommons.org/licenses/by/4.0/" />
      </cc:Work>
      <cc:License rdf:about="http://creativecommons.org/licenses/by/4.0/">
        <cc:permits rdf:resource="http://creativecommons.org/ns#Reproduction" />
        <cc:permits rdf:resource="http://creativecommons.org/ns#Distribution" />
        <cc:requires rdf:resource="http://creativecommons.org/ns#Notice" />
        <cc:requires rdf:resource="http://creativecommons.org/ns#Attribution" />
        <cc:permits rdf:resource="http://creativecommons.org/ns#DerivativeWorks" />
      </cc:License>
    </rdf:RDF>
  </metadata>
  <defs>
    <style>.cls-1{fill:#545454;}</style>
  </defs>
  <title>find_replace</title>
  <path class="cls-1" d="M4.4849,12.3318l1.8682-1.9447A.8786.8786,0,1,0,5.0859,9.17l-.23.2389A7.4691,7.4691,0,0,1,18.9792,8.3317a.8791.8791,0,1,0,1.6192-.6851A9.226,9.226,0,0,0,2.9707,9.8955l-.5524-.4407A.88.88,0,0,0,1.321,10.83l1.9817,1.5806a.8792.8792,0,0,0,1.1822-.079Z"/>
  <path class="cls-1" d="M24.7018,22.2924,19.3394,16.93a9.2031,9.2031,0,0,0,1.84-4.1133l.489.5092a.8792.8792,0,1,0,1.2689-1.2174L21.07,10.1639a.8789.8789,0,0,0-1.1822-.0789l-1.9817,1.58A.8793.8793,0,0,0,19.0015,13.04l.4177-.3331A7.4739,7.4739,0,0,1,5.1382,13.982a.8788.8788,0,1,0-1.6347.6456,9.2132,9.2132,0,0,0,14.441,3.7357l5.3432,5.3432a1,1,0,0,0,1.4141-1.4141Z"/>
</svg>