<svg id="Слой_1" data-name="Слой 1"
  xmlns:dc="http://purl.org/dc/elements/1.1/"
  xmlns:cc="http://creativecommons.org/ns#"
  xmlns:rdf="http://www.w3.org/1999/02/22-rdf-syntax-ns#"
  xmlns="http://www.w3.org/2000/svg" viewBox="0 0 26 26">
  <metadata id="metadata43">
    <rdf:RDF>
      <cc:Work rdf:about="">
        <cc:license rdf:resource="http://creativecommons.org/licenses/by-sa/4.0/" />
        <dc:format>image/svg+xml</dc:format>
        <dc:type rdf:resource="http://purl.org/dc/dcmitype/StillImage" />
        <dc:title>add_arc</dc:title>
      </cc:Work>
      <cc:License rdf:about="http://creativecommons.org/licenses/by-sa/4.0/">
        <cc:permits rdf:resource="http://creativecommons.org/ns#Reproduction" />
        <cc:permits rdf:resource="http://creativecommons.org/ns#Distribution" />
        <cc:requires rdf:resource="http://creativecommons.org/ns#Notice" />
        <cc:requires rdf:resource="http://creativecommons.org/ns#Attribution" />
        <cc:permits rdf:resource="http://creativecommons.org/ns#DerivativeWorks" />
        <cc:requires rdf:resource="http://creativecommons.org/ns#ShareAlike" />
      </cc:License>
    </rdf:RDF>
  </metadata>
  <defs>
    <style>.cls-1{fill:#545454;}.cls-2{fill:#1a81c4;}.cls-3{fill:#e61c50;}.cls-4{fill:none;stroke:#f5f5f5;stroke-linecap:round;stroke-linejoin:round;stroke-width:2px;}</style>
  </defs>
  <title>flag_remove</title>
  <path class="cls-1" d="M3.5,23.9976a.5.5,0,0,0,.5-.5L3.9973,2.5024a.5.5,0,0,0-1,0L3,23.4976A.5.5,0,0,0,3.5,23.9976Z"/>
  <polygon class="cls-2" points="4 3.012 21.037 3.012 19.053 7.703 21.037 12.002 4 12.002 4 3.012"/>
  <path class="cls-3" d="M21.7737,11.88a7,7,0,1,1-9.8933.3457A7,7,0,0,1,21.7737,11.88Z"/>
  <line class="cls-4" x1="14.4361" y1="14.6174" x2="19.5557" y2="19.3913"/>
  <line class="cls-4" x1="19.3828" y1="14.4445" x2="14.609" y2="19.5642"/>
</svg>