<?xml version="1.0" encoding="UTF-8" standalone="no"?>
<svg
   xmlns:dc="http://purl.org/dc/elements/1.1/"
   xmlns:cc="http://creativecommons.org/ns#"
   xmlns:rdf="http://www.w3.org/1999/02/22-rdf-syntax-ns#"
   xmlns:svg="http://www.w3.org/2000/svg"
   xmlns="http://www.w3.org/2000/svg"
   xmlns:sodipodi="http://sodipodi.sourceforge.net/DTD/sodipodi-0.dtd"
   xmlns:inkscape="http://www.inkscape.org/namespaces/inkscape"
   id="Слой_1"
   data-name="Слой 1"
   viewBox="0 0 24 24"
   version="1.1"
   sodipodi:docname="flip_board_1.svg"
   inkscape:version="1.0.1 (3bc2e813f5, 2020-09-07)">
  <sodipodi:namedview
     pagecolor="#ffffff"
     bordercolor="#666666"
     borderopacity="1"
     objecttolerance="10"
     gridtolerance="10"
     guidetolerance="10"
     inkscape:pageopacity="0"
     inkscape:pageshadow="2"
     inkscape:window-width="1609"
     inkscape:window-height="1286"
     id="namedview30"
     showgrid="true"
     inkscape:zoom="27.961538"
     inkscape:cx="3.3259971"
     inkscape:cy="13"
     inkscape:window-x="0"
     inkscape:window-y="37"
     inkscape:window-maximized="0"
     inkscape:document-rotation="0"
     inkscape:current-layer="Слой_1">
    <inkscape:grid
       type="xygrid"
       id="grid_kicad"
       spacingx="0.5"
       spacingy="0.5"
       color="#9999ff"
       opacity="0.13"
       empspacing="2" />
  </sodipodi:namedview>
  <metadata
     id="metadata43">
    <rdf:RDF>
      <cc:Work
         rdf:about="">
        <cc:license
           rdf:resource="http://creativecommons.org/licenses/by-sa/4.0/" />
        <dc:format>image/svg+xml</dc:format>
        <dc:type
           rdf:resource="http://purl.org/dc/dcmitype/StillImage" />
        <dc:title>add_arc</dc:title>
      </cc:Work>
      <cc:License
         rdf:about="http://creativecommons.org/licenses/by-sa/4.0/">
        <cc:permits
           rdf:resource="http://creativecommons.org/ns#Reproduction" />
        <cc:permits
           rdf:resource="http://creativecommons.org/ns#Distribution" />
        <cc:requires
           rdf:resource="http://creativecommons.org/ns#Notice" />
        <cc:requires
           rdf:resource="http://creativecommons.org/ns#Attribution" />
        <cc:permits
           rdf:resource="http://creativecommons.org/ns#DerivativeWorks" />
        <cc:requires
           rdf:resource="http://creativecommons.org/ns#ShareAlike" />
      </cc:License>
    </rdf:RDF>
  </metadata>
  <defs
     id="defs24899">
    <style
       id="style24897">.cls-1{fill:none;stroke:#545454;stroke-linecap:round;stroke-linejoin:round;}.cls-2{fill:#1a81c4;}</style>
  </defs>
  <title
     id="title24901">flip_board_1</title>
  <polygon
     class="cls-1"
     points="24.491,24.5 24.509,1.5 1.491,1.5 1.491,24.5 "
     id="polygon24903"
     transform="translate(-1,-1)" />
  <path
     class="cls-2"
     d="M 9.6764,14.7656 H 5.6122 L 4.7861,17.19 H 3.032 L 6.8462,6.81 h 1.6391 l 3.7712,10.38 H 10.4954 Z M 6.1112,13.3186 H 9.1844 L 7.68,8.8853 H 7.637 Z"
     id="path24905" />
  <path
     class="cls-2"
     d="M 13.4606,17.19 V 6.81 h 3.45 a 4.4953,4.4953 0 0 1 2.6951,0.7091 2.4591,2.4591 0 0 1 0.969,2.1211 2.0839,2.0839 0 0 1 -0.406,1.262 2.3994,2.3994 0 0 1 -1.126,0.8271 2.3168,2.3168 0 0 1 1.426,0.891 2.63,2.63 0 0 1 0.4993,1.5897 2.667,2.667 0 0 1 -0.9561,2.2211 4.1333,4.1333 0 0 1 -2.6371,0.7591 z m 1.7331,-6.0093 h 1.91 a 1.9472,1.9472 0 0 0 1.272,-0.3821 1.3121,1.3121 0 0 0 0.4671,-1.079 1.3475,1.3475 0 0 0 -0.4921,-1.1451 2.3518,2.3518 0 0 0 -1.44,-0.374 h -1.717 z m 0,1.29 V 15.8 h 2.1811 a 2.0844,2.0844 0 0 0 1.383,-0.409 1.4624,1.4624 0 0 0 0.4841,-1.1841 1.86,1.86 0 0 0 -0.406,-1.2811 1.62,1.62 0 0 0 -1.2691,-0.455 z"
     id="path24907" />
</svg>
