<?xml version="1.0" encoding="UTF-8" standalone="no"?>
<svg
   xmlns:dc="http://purl.org/dc/elements/1.1/"
   xmlns:cc="http://creativecommons.org/ns#"
   xmlns:rdf="http://www.w3.org/1999/02/22-rdf-syntax-ns#"
   xmlns:svg="http://www.w3.org/2000/svg"
   xmlns="http://www.w3.org/2000/svg"
   xmlns:sodipodi="http://sodipodi.sourceforge.net/DTD/sodipodi-0.dtd"
   xmlns:inkscape="http://www.inkscape.org/namespaces/inkscape"
   id="Слой_1"
   data-name="Слой 1"
   viewBox="0 0 16 16"
   version="1.1"
   sodipodi:docname="folder.svg"
   inkscape:version="1.0.1 (1.0.1+r74)"
   width="16"
   height="16">
  <sodipodi:namedview
     pagecolor="#ffffff"
     bordercolor="#666666"
     borderopacity="1"
     objecttolerance="10"
     gridtolerance="10"
     guidetolerance="10"
     inkscape:pageopacity="0"
     inkscape:pageshadow="2"
     inkscape:window-width="2560"
     inkscape:window-height="1371"
     id="namedview9483"
     showgrid="true"
     inkscape:zoom="39.543587"
     inkscape:cx="7.682271"
     inkscape:cy="10.76419"
     inkscape:window-x="0"
     inkscape:window-y="0"
     inkscape:window-maximized="1"
     inkscape:current-layer="Слой_1"
     inkscape:document-rotation="0">
    <inkscape:grid
       type="xygrid"
       id="grid10046" />
  </sodipodi:namedview>
  <metadata
     id="metadata43">
    <rdf:RDF>
      <cc:Work
         rdf:about="">
        <cc:license
           rdf:resource="http://creativecommons.org/licenses/by-sa/4.0/" />
        <dc:format>image/svg+xml</dc:format>
        <dc:type
           rdf:resource="http://purl.org/dc/dcmitype/StillImage" />
        <dc:title>folder</dc:title>
      </cc:Work>
      <cc:License
         rdf:about="http://creativecommons.org/licenses/by-sa/4.0/">
        <cc:permits
           rdf:resource="http://creativecommons.org/ns#Reproduction" />
        <cc:permits
           rdf:resource="http://creativecommons.org/ns#Distribution" />
        <cc:requires
           rdf:resource="http://creativecommons.org/ns#Notice" />
        <cc:requires
           rdf:resource="http://creativecommons.org/ns#Attribution" />
        <cc:permits
           rdf:resource="http://creativecommons.org/ns#DerivativeWorks" />
        <cc:requires
           rdf:resource="http://creativecommons.org/ns#ShareAlike" />
      </cc:License>
    </rdf:RDF>
  </metadata>
  <defs
     id="defs9472">
    <style
       id="style9470">.cls-1{fill:#545454;}.cls-2{fill:#1a81c4;}.cls-3{fill:#b9b9b9;}</style>
  </defs>
  <title
     id="title9474">folder</title>
  <path
     class="cls-1"
     d="M 12.7094,16 H 3.1030667 c -1.3456,0 -2.4364,-1.0908 -2.4364,-1.769733 V 2 C 0.6666667,0.5969333 1.2636,0 2,0 H 5.1840667 C 5.7462432,8.0477183e-6 6.3021047,0.11851762 6.8154,0.3478 L 9,1.4795414 C 9.3421899,1.6323932 10.070889,1.9999915 10.445666,2 H 14 c 0.735305,-1.469e-4 1.331329,0.5958947 1.331466,1.3312 l 0.0019,10.044867 C 15.333602,14.825225 14.158558,16 12.7094,16 Z"
     id="path9476"
     style="stroke-width:0.999996"
     sodipodi:nodetypes="ssssscccccsss" />
  <path
     class="cls-2"
     d="M 2.3800272,3 H 13.586227 c 0.589104,-6e-7 1.08664,1.1596141 1.08664,2.9304774 v 0.02005 H 1.3333333 v -0.02005 C 1.3333333,4.1596144 1.7909235,3 2.3800272,3 Z"
     id="path9478"
     style="stroke-width:0.999996;fill:#ffffff;fill-opacity:1"
     sodipodi:nodetypes="scsccss" />
  <path
     class="cls-3"
     d="M 1.3333333,5 H 14.666667 C 15.403047,5.0000002 16,5.5969538 16,6.3333333 V 13.333333 C 16,14.806093 14.806093,16 13.333333,16 H 2.6666667 C 1.1939072,16 0,14.806092 0,13.333333 V 6.3333333 C 0,5.5969537 0.59695365,5 1.3333333,5 Z"
     id="path9480"
     style="stroke-width:0.999996;fill:#545454;fill-opacity:1"
     sodipodi:nodetypes="scsssssss" />
</svg>
