<svg id="Слой_1" data-name="Слой 1"
  xmlns:cc="http://creativecommons.org/ns#"
  xmlns:rdf="http://www.w3.org/1999/02/22-rdf-syntax-ns#"
  xmlns="http://www.w3.org/2000/svg" viewBox="0 0 26 26">
  <metadata id="metadata43">
    <rdf:RDF>
      <cc:Work rdf:about="">
        <cc:license rdf:resource="http://creativecommons.org/licenses/by/4.0/" />
      </cc:Work>
      <cc:License rdf:about="http://creativecommons.org/licenses/by/4.0/">
        <cc:permits rdf:resource="http://creativecommons.org/ns#Reproduction" />
        <cc:permits rdf:resource="http://creativecommons.org/ns#Distribution" />
        <cc:requires rdf:resource="http://creativecommons.org/ns#Notice" />
        <cc:requires rdf:resource="http://creativecommons.org/ns#Attribution" />
        <cc:permits rdf:resource="http://creativecommons.org/ns#DerivativeWorks" />
      </cc:License>
    </rdf:RDF>
  </metadata>
  <defs>
    <style>.cls-1{fill:#545454;}.cls-2{fill:#1a81c4;}.cls-3{fill:#b9b9b9;}</style>
  </defs>
  <title>folder</title>
  <path class="cls-1" d="M20.0641,25H5.6546C3.6362,25,2,23.3638,2,22.3454V4c0-2.1046.8954-3,2-3H8.7761a6,6,0,0,1,2.447.5217L15.04,3.2267a4,4,0,0,0,1.6313.3478h5.3315A1.9968,1.9968,0,0,1,24,5.5713V21.0641A3.9359,3.9359,0,0,1,20.0641,25Z"/>
  <path class="cls-2" d="M4.6,5.3623H21.4093a1.6,1.6,0,0,1,1.6,1.6v.01a0,0,0,0,1,0,0H3a0,0,0,0,1,0,0v-.01a1.6,1.6,0,0,1,1.6-1.6Z"/>
  <path class="cls-3" d="M3,6.972H23a2,2,0,0,1,2,2V21a4,4,0,0,1-4,4H5a4,4,0,0,1-4-4V8.972A2,2,0,0,1,3,6.972Z"/>
</svg>