<svg xmlns="http://www.w3.org/2000/svg" height="64" width="64" version="1.0" xmlns:xlink="http://www.w3.org/1999/xlink">
 <defs>
  <linearGradient id="a">
   <stop stop-color="#fff" offset="0"/>
   <stop stop-color="#fff" stop-opacity="0" offset="1"/>
  </linearGradient>
  <filter id="u" color-interpolation-filters="sRGB">
   <feGaussianBlur stdDeviation="0.13617728"/>
  </filter>
  <filter id="w" height="1.3175" width="1.2447" color-interpolation-filters="sRGB" y="-.15877" x="-.12233">
   <feGaussianBlur stdDeviation="0.27482165"/>
  </filter>
  <filter id="v" height="1.3175" width="1.2714" color-interpolation-filters="sRGB" y="-.15877" x="-.13568">
   <feGaussianBlur stdDeviation="0.27482165"/>
  </filter>
  <filter id="b" height="1.2603" width="1.0974" color-interpolation-filters="sRGB" y="-.13015" x="-.048689">
   <feGaussianBlur stdDeviation="0.17624262"/>
  </filter>
  <radialGradient id="r" xlink:href="#a" gradientUnits="userSpaceOnUse" cy="14.017" cx="51.768" gradientTransform="matrix(1.7289 1.937e-8 0 .081759 -35.735 6.888)" r="46"/>
  <radialGradient id="s" xlink:href="#a" gradientUnits="userSpaceOnUse" cy="106.02" cx="50" gradientTransform="matrix(.80435 2.1461e-7 -6.1186e-8 .22932 11.783 87.688)" r="46"/>
  <radialGradient id="t" gradientUnits="userSpaceOnUse" cy="98.398" cx="52" gradientTransform="matrix(1,0,0,1.146,2,-8.7628)" r="41.838">
   <stop stop-color="#5e5e5e" offset="0"/>
   <stop stop-opacity="0" offset="1"/>
  </radialGradient>
  <linearGradient id="x" y2="28" xlink:href="#a" gradientUnits="userSpaceOnUse" x2="60" gradientTransform="translate(2)" y1="140" x1="60"/>
  <linearGradient id="y" y2="4.3005" xlink:href="#a" gradientUnits="userSpaceOnUse" x2="94.487" gradientTransform="translate(2)" y1="14.023" x1="89.095"/>
  <linearGradient id="z" y2="-1.4447" xlink:href="#a" gradientUnits="userSpaceOnUse" x2="10.518" gradientTransform="translate(2)" y1="12.211" x1="10.518"/>
  <linearGradient id="aa" y2="64" xlink:href="#a" gradientUnits="userSpaceOnUse" x2="56" gradientTransform="translate(2)" y1="-104" x1="40"/>
  <linearGradient id="ab" y2="-32" xlink:href="#a" gradientUnits="userSpaceOnUse" x2="44.25" gradientTransform="translate(1.975 -.025)" y1="64" x1="76.25"/>
  <linearGradient id="ac" y2="64" xlink:href="#a" gradientUnits="userSpaceOnUse" x2="56" gradientTransform="translate(1.725 -.025)" y1=".025" x1="52.275"/>
  <linearGradient id="ad" y2="101.12" xlink:href="#a" gradientUnits="userSpaceOnUse" x2="74.812" gradientTransform="translate(2)" y1="106.19" x1="78.125"/>
  <linearGradient id="q" y2="101.12" xlink:href="#a" gradientUnits="userSpaceOnUse" x2="74.812" y1="106.19" x1="78.125"/>
 </defs>
 <g transform="matrix(.39523 0 0 .37238 11.848 9.0193)">
  <path d="m7.6184 8.034-1.6184 31.966h7.6886l0.33673-1.6165c1.6202-8.8657 4.9119-13.323 7.5673-15.497 1.5416-1.2602 2.507-1.8206 4.3213-2.2515 1.814-0.432 4.527-0.636 9.036-0.636h7.015l0.035 68c-0.31304 4.4239 0.54758 9.577-2.123 13.4-2.6369 2.9354-8.0736 2.8292-12.081 3.2683l-1.7959 0.1732v7.1588h52v-7.1588l-1.7959-0.1732c-6.4429-0.48116-9.939-1.1542-11.735-2.6474-2.4534-2.04-2.4693-7.7744-2.4693-14.021v-68h7.2958c4.7082 0 7.5528 0.20003 9.3723 0.63505s2.6817 1.0033 4.0407 2.2515c2.3871 2.1952 5.3835 6.7177 7.2659 15.555l0.336 1.556 7.689 0.1-1.373-32.066h-89.008z"/>
  <path opacity="0.74" fill="url(#r)" d="m7.6184 8.034-1.6184 31.966h7.6886l0.33673-1.6165c1.6202-8.8657 4.9119-13.323 7.5673-15.497 1.5416-1.2602 2.507-1.8206 4.3213-2.2515 1.814-0.432 4.527-0.636 9.036-0.636h34.346c4.7082 0 7.5528 0.20003 9.3723 0.63505s2.6817 1.0033 4.0407 2.2515c2.3871 2.1952 5.3835 6.7177 7.2659 15.555l0.336 1.558 7.689 0.1-1.373-32.066h-89.008z"/>
  <path opacity="0.632" fill="url(#s)" d="m42 88c-0.31304 4.4239 0.54758 9.577-2.123 13.4-2.6369 2.9354-8.0736 2.8292-12.081 3.2683l-1.7959 0.1732v7.1588h52v-7.1588l-1.7959-0.1732c-6.4429-0.48116-9.939-1.1542-11.735-2.6474-2.4534-2.04-2.4693-7.7744-2.4693-14.021h-20z"/>
  <path fill="url(#t)" d="m11.366 12.077h81.488l1.0102 23.901h-0.61733c-2.0312-8.2539-4.963-13.394-7.9131-16.107-1.5336-1.4086-3.4909-2.6278-5.7805-3.1753-2.4427-0.58402-5.4534-0.75051-10.27-0.75052h-11.224v72.049c0.000002 3.1267-0.02548 6.2425 0.33673 9.1216s0.96333 5.8969 3.5918 8.0825c1.9501 1.6215 4.3885 2.311 7.2397 2.7711h-34.178c2.5722-0.46432 5.4933-1.3041 7.7447-3.8103l0.16836-0.17319 0.11224-0.23093c3.885-5.5613 2.7227-11.799 2.9817-15.459v-0.293l-0.057-72.012h-12c-4.6245 0-6.6086 0.12875-8.9966 0.69598-2.2458 0.53345-4.113 1.5931-5.8366 3.0021-3.2362 2.6491-6.7074 7.7708-8.5866 16.223h-0.39285l1.1785-23.843z"/>
  <path opacity="0.56" d="m11.366 12.077h81.488l1.0102 23.901h-0.61733c-2.0312-8.2539-4.963-13.394-7.9131-16.107-1.5336-1.4086-3.4909-2.6278-5.7805-3.1753-2.4427-0.58402-5.4534-0.75051-10.27-0.75052h-11.224v72.049c0.000002 3.1267-0.02548 6.2425 0.33673 9.1216s0.96333 5.8969 3.5918 8.0825c1.9501 1.6215 4.3885 2.311 7.2397 2.7711h-34.178c2.5722-0.46432 5.4933-1.3041 7.7447-3.8103l0.16836-0.17319 0.11224-0.23093c3.885-5.5613 2.7227-11.799 2.9817-15.459v-0.293l-0.057-72.012h-12c-4.6245 0-6.6086 0.12875-8.9966 0.69598-2.2458 0.53345-4.113 1.5931-5.8366 3.0021-3.2362 2.6491-6.7074 7.7708-8.5866 16.223h-0.39285l1.1785-23.843z" filter="url(#u)" stroke="url(#x)" fill="none"/>
  <path d="m96.487 8.057-3.5355 4.1543-1.8562-0.26516 5.3917-3.8891z" fill-rule="evenodd" filter="url(#w)" fill="url(#y)"/>
  <path d="m11.281 12.123-3.6241-4.1544 4.8611 3.9774-1.237 0.177z" fill-rule="evenodd" filter="url(#v)" fill="url(#z)"/>
  <path opacity="0.908" fill="url(#aa)" d="m11.375 12.062-1.1875 23.844h0.40625c1.8792-8.4518 5.3263-13.57 8.5625-16.219 1.7236-1.409 3.598-2.4665 5.8438-3 2.388-0.567 4.375-0.687 9-0.687h12l0.0063 34.594c4.2234-0.60696 8.1891-1.411 12.056-2.375v-32.281h11.219c4.8168 0.000004 7.8386 0.16598 10.281 0.75 2.2896 0.54742 4.2477 1.7789 5.7812 3.1875 2.2647 2.0826 4.4998 5.6209 6.3438 10.875 0.67553-0.75016 1.3014-1.5049 1.875-2.2812l-0.718-16.406h-81.469z"/>
  <path opacity="0.908" fill="url(#ab)" d="m92.538 12.038 0.6875 15.406c-0.5736 0.77636-1.1995 1.5311-1.875 2.2812-0.82979-2.3643-1.7323-4.1546-2.6875-5.625 1.0724 1.8017 2.078 3.998 3 6.625 0.67553-0.75016 1.3014-1.5049 1.875-2.2812l-0.719-16.406h-0.281zm-34.813 35.156c-3.7708 0.94002-7.5332 2.0111-11.644 2.6125v0.7625c4.2234-0.60696 8.0891-1.411 11.956-2.375v-32.279l-0.313 31.281zm-28.906-31.125c-1.6078 0.1166-2.9622 0.31013-4.1562 0.59375-2.2458 0.53345-4.1201 1.591-5.8438 3-3.2362 2.6491-6.6834 6.7669-8.5625 15.219h-0.03125l-0.0625 1h0.405c1.8792-8.4518 5.3263-13.57 8.5625-16.219 1.7236-1.409 3.598-2.4665 5.8438-3 1.194-0.28362 2.5172-0.47716 4.125-0.59375-0.08756 0.0058-0.19531-0.0062-0.28125 0z"/>
  <path opacity="0.908" fill="url(#ac)" d="m11.1 12.038-1.1875 23.844h0.0625l1.125-23.644c26.952 0.40931 54.047 0.6302 81.469 0.1l0.6875 16.169c0.01342-0.01807 0.01788-0.04441 0.03125-0.0625l-0.718-16.406h-81.469z"/>
  <path d="m69.313 107.81 2.375-3.75 6.3125 0.8125-8.6875 2.9375z" fill-rule="evenodd" filter="url(#b)" fill="url(#ad)"/>
  <path d="m67.313 107.81 2.375-3.75 6.3125 0.8125-8.6875 2.9375z" fill-rule="evenodd" transform="matrix(-1 0 0 1 102.06 .2)" filter="url(#b)" fill="url(#q)"/>
 </g>
</svg>
