<svg xmlns="http://www.w3.org/2000/svg" height="48" width="48" version="1.1">
 <defs>
  <linearGradient id="a" y2="33.681" gradientUnits="userSpaceOnUse" x2="30.936" gradientTransform="matrix(.80389 0 0 .74943 3.4693 3.2307)" y1="12.998" x1="18.562">
   <stop stop-color="#729fcf" offset="0"/>
   <stop stop-color="#3465a4" offset="1"/>
  </linearGradient>
 </defs>
 <path fill="url(#a)" d="m35.625 33.214c-2.135-0.174-2.36-0.173-2.847-2.722l-3.521-19.767h-0.67255l-11.165 17.462c-2.9595 4.6449-3.6607 4.748-5.1591 5.0274v0.83982h7.3319v-0.84c-1.9105-0.17462-2.2102-0.06821-2.2102-0.9413 0-0.66355 0.11239-0.97787 0.74924-2.1653l2.1353-3.5248h8.2416l0.74924 4.1535c0.03746 0.31432 0.07492 0.62863 0.07492 0.90802 0 1.3271-0.19789 1.3604-2.5954 1.5699v0.83982h8.889v-0.83982m-14.573-8.3102 5.6193-9.0802 1.6483 9.0802h-7.2676"/>
 <path fill="#888a85" d="m10.55 10.45a0.5 0.5 0 1 0 -1 0 0.5 0.5 0 1 0 1 0z"/>
 <path fill="#888a85" d="m10.55 12.45a0.5 0.5 0 1 0 -1 0 0.5 0.5 0 1 0 1 0z"/>
 <path fill="#888a85" d="m10.55 14.45a0.5 0.5 0 1 0 -1 0 0.5 0.5 0 1 0 1 0z"/>
 <path fill="#888a85" d="m10.55 16.45a0.5 0.5 0 1 0 -1 0 0.5 0.5 0 1 0 1 0z"/>
 <path fill="#888a85" d="m10.55 18.45a0.5 0.5 0 1 0 -1 0 0.5 0.5 0 1 0 1 0z"/>
 <path fill="#888a85" d="m10.55 20.45a0.5 0.5 0 1 0 -1 0 0.5 0.5 0 1 0 1 0z"/>
 <path fill="#888a85" d="m10.55 22.45a0.5 0.5 0 1 0 -1 0 0.5 0.5 0 1 0 1 0z"/>
 <path fill="#888a85" d="m10.55 24.45a0.5 0.5 0 1 0 -1 0 0.5 0.5 0 1 0 1 0z"/>
 <path fill="#888a85" d="m10.55 26.45a0.5 0.5 0 1 0 -1 0 0.5 0.5 0 1 0 1 0z"/>
 <path fill="#888a85" d="m10.55 28.45a0.5 0.5 0 1 0 -1 0 0.5 0.5 0 1 0 1 0z"/>
 <path fill="#888a85" d="m10.55 30.45a0.5 0.5 0 1 0 -1 0 0.5 0.5 0 1 0 1 0z"/>
 <path fill="#888a85" d="m10.55 32.45a0.5 0.5 0 1 0 -1 0 0.5 0.5 0 1 0 1 0z"/>
 <path fill="#888a85" d="m10.55 34.45a0.5 0.5 0 1 0 -1 0 0.5 0.5 0 1 0 1 0z"/>
 <path fill="#888a85" d="m10.55 36.45a0.5 0.5 0 1 0 -1 0 0.5 0.5 0 1 0 1 0z"/>
 <g fill="#888a85" transform="translate(2.55,29.954)">
  <path d="m8 8.5a0.5 0.5 0 1 0 -1 0 0.5 0.5 0 1 0 1 0z"/>
  <path d="m5 6.5a0.5 0.5 0 1 0 1 0 0.5 0.5 0 1 0 -1 0z"/>
  <path d="m11 6.5a0.5 0.5 0 1 0 1 0 0.5 0.5 0 1 0 -1 0z"/>
  <path d="m13 6.5a0.5 0.5 0 1 0 1 0 0.5 0.5 0 1 0 -1 0z"/>
  <path d="m15 6.5a0.5 0.5 0 1 0 1 0 0.5 0.5 0 1 0 -1 0z"/>
  <path d="m17 6.5a0.5 0.5 0 1 0 1 0 0.5 0.5 0 1 0 -1 0z"/>
  <path d="m19 6.5a0.5 0.5 0 1 0 1 0 0.5 0.5 0 1 0 -1 0z"/>
  <path d="m21 6.5a0.5 0.5 0 1 0 1 0 0.5 0.5 0 1 0 -1 0z"/>
  <path d="m23 6.5a0.5 0.5 0 1 0 1 0 0.5 0.5 0 1 0 -1 0z"/>
  <path d="m25 6.5a0.5 0.5 0 1 0 1 0 0.5 0.5 0 1 0 -1 0z"/>
  <path d="m27 6.5a0.5 0.5 0 1 0 1 0 0.5 0.5 0 1 0 -1 0z"/>
  <path d="m29 6.5a0.5 0.5 0 1 0 1 0 0.5 0.5 0 1 0 -1 0z"/>
  <path d="m31 6.5a0.5 0.5 0 1 0 1 0 0.5 0.5 0 1 0 -1 0z"/>
  <path d="m33 6.5a0.5 0.5 0 1 0 1 0 0.5 0.5 0 1 0 -1 0z"/>
  <path d="m9 6.5a0.5 0.5 0 1 0 1 0 0.5 0.5 0 1 0 -1 0z"/>
  <path d="m35 6.5a0.5 0.5 0 1 0 1 0 0.5 0.5 0 1 0 -1 0z"/>
  <path d="m37 6.5a0.5 0.5 0 1 0 1 0 0.5 0.5 0 1 0 -1 0z"/>
  <path d="m39 6.5a0.5 0.5 0 1 0 1 0 0.5 0.5 0 1 0 -1 0z"/>
  <path d="m7 4.5a0.5 0.5 0 1 0 1 0 0.5 0.5 0 1 0 -1 0z"/>
 </g>
</svg>
