<svg id="Слой_1" data-name="Слой 1"
  xmlns:dc="http://purl.org/dc/elements/1.1/"
  xmlns:cc="http://creativecommons.org/ns#"
  xmlns:rdf="http://www.w3.org/1999/02/22-rdf-syntax-ns#"
  xmlns="http://www.w3.org/2000/svg"
  xmlns:xlink="http://www.w3.org/1999/xlink" viewBox="0 0 26 26">
  <metadata id="metadata43">
    <rdf:RDF>
      <cc:Work rdf:about="">
        <cc:license rdf:resource="http://creativecommons.org/licenses/by-sa/4.0/" />
        <dc:format>image/svg+xml</dc:format>
        <dc:type rdf:resource="http://purl.org/dc/dcmitype/StillImage" />
        <dc:title>add_arc</dc:title>
      </cc:Work>
      <cc:License rdf:about="http://creativecommons.org/licenses/by-sa/4.0/">
        <cc:permits rdf:resource="http://creativecommons.org/ns#Reproduction" />
        <cc:permits rdf:resource="http://creativecommons.org/ns#Distribution" />
        <cc:requires rdf:resource="http://creativecommons.org/ns#Notice" />
        <cc:requires rdf:resource="http://creativecommons.org/ns#Attribution" />
        <cc:permits rdf:resource="http://creativecommons.org/ns#DerivativeWorks" />
        <cc:requires rdf:resource="http://creativecommons.org/ns#ShareAlike" />
      </cc:License>
    </rdf:RDF>
  </metadata>
  <defs>
    <style>.cls-1,.cls-2,.cls-3,.cls-4,.cls-5,.cls-6,.cls-8{fill:none;stroke-linejoin:round;}.cls-1{stroke:#1a81c4;}.cls-1,.cls-3,.cls-4,.cls-5,.cls-6,.cls-8{stroke-linecap:round;}.cls-1,.cls-2,.cls-3,.cls-4,.cls-8{stroke-width:2px;}.cls-2{stroke:url(#Безымянный_градиент_4);}.cls-3{stroke:url(#Безымянный_градиент_19);}.cls-4{stroke:url(#Безымянный_градиент_19-2);}.cls-5,.cls-6{stroke:#b9b9b9;}.cls-6{stroke-dasharray:5.6216 5.6216;}.cls-7{fill:#e61c50;}.cls-8{stroke:#f5f5f5;}.cls-9{fill:#f29100;}</style>
    <linearGradient id="Безымянный_градиент_4" x1="13.2608" y1="5.7452" x2="5.9197" y2="5.7452" gradientUnits="userSpaceOnUse">
      <stop offset="0" stop-color="#ececec"/>
      <stop offset="1" stop-color="#c6c6c5"/>
    </linearGradient>
    <linearGradient id="Безымянный_градиент_19" x1="-19.0468" y1="5.3787" x2="-19.0468" y2="-2.0451" gradientTransform="translate(3.0406 -0.1548) rotate(-90)" xlink:href="#Безымянный_градиент_4"/>
    <linearGradient id="Безымянный_градиент_19-2" x1="-20.0376" y1="9.2308" x2="-20.0376" y2="2.7883" gradientTransform="translate(3.0406 -0.1548) rotate(-90)" xlink:href="#Безымянный_градиент_4"/>
  </defs>
  <title>general_deletions</title>
  <polyline class="cls-1" points="1.978 8.328 4.031 10.381 7.058 10.381"/>
  <polyline class="cls-2" points="5.92 4 8.77 4 12.554 7.783"/>
  <polyline class="cls-3" points="1.995 24.014 1.995 18.979 7.419 13.77"/>
  <polyline class="cls-4" points="6.829 24.014 6.829 19.979 11.271 15.751"/>
  <line class="cls-1" x1="24.0131" y1="23.988" x2="17.5458" y2="17.3736"/>
  <line class="cls-5" x1="13" y1="24.4325" x2="13" y2="21.4325"/>
  <line class="cls-6" x1="13" y1="15.8108" x2="13" y2="7.3784"/>
  <line class="cls-5" x1="13" y1="4.5675" x2="13" y2="1.5675"/>
  <path class="cls-7" d="M17.952,17.9519a7.0032,7.0032,0,1,1,0-9.9038A7.0033,7.0033,0,0,1,17.952,17.9519Z"/>
  <line class="cls-8" x1="15.4715" y1="10.5198" x2="10.5195" y2="15.4716"/>
  <line class="cls-8" x1="15.4715" y1="15.4716" x2="10.5195" y2="10.5198"/>
  <path class="cls-9" d="M4,1A3,3,0,1,0,7,4,3.0034,3.0034,0,0,0,4,1ZM4,6.75A2.75,2.75,0,1,1,6.75,4,2.7529,2.7529,0,0,1,4,6.75Z"/>
  <path class="cls-9" d="M4,1.6811A2.3189,2.3189,0,1,0,6.3189,4,2.3215,2.3215,0,0,0,4,1.6811ZM4,5.319A1.319,1.319,0,1,1,5.319,4,1.3206,1.3206,0,0,1,4,5.319Z"/>
</svg>