<svg xmlns="http://www.w3.org/2000/svg" height="48" width="48" version="1.1">
 <defs>
  <linearGradient id="a" y2="4.6406" gradientUnits="userSpaceOnUse" x2="6.0964" y1="8.6836" x1="8.9893">
   <stop stop-color="#ff7800" offset="0"/>
   <stop stop-color="#fff" offset="1"/>
  </linearGradient>
 </defs>
 <rect opacity=".24609" fill-rule="evenodd" rx="6.6058" ry="5.2418" height="40.133" width="39.881" y="4.3477" x="4.4548" fill="#649295"/>
 <path fill="#fff" d="m30.47 14.788 2.535 3.932-19.116 21.014-2.534-3.932 19.115-21.014z"/>
 <path fill="#fff" d="m32.999 15.142-1.507 3.983-19.219-4.238 0.176-4.9035 20.55 5.1585z"/>
 <g transform="matrix(2.2482,0,0,2.38,39.727,-37.617)">
  <path d="m10.5 6.75a2.25 2.25 0 1 1 -4.5 0 2.25 2.25 0 1 1 4.5 0z" transform="matrix(.88889 0 0 .88889 -18.826 25)"/>
  <path fill="url(#a)" d="m10.5 6.75a2.25 2.25 0 1 1 -4.5 0 2.25 2.25 0 1 1 4.5 0z" transform="matrix(.55556 0 0 .55556 -16.076 27.25)"/>
 </g>
 <path fill="#fff" d="m42.919 13.609-0.29748 4.7047-11.971 1.537 0.29749-4.7047 11.971-1.537z"/>
 <path fill="#fff" d="m32.99 32.58-3.363 2.394-18.12-19.701 2.752-3.948 18.731 21.255z"/>
 <g transform="matrix(2.2482,0,0,2.38,37.479,-61.418)">
  <path d="m10.5 6.75a2.25 2.25 0 1 1 -4.5 0 2.25 2.25 0 1 1 4.5 0z" transform="matrix(.88889 0 0 .88889 -18.826 25)"/>
  <path fill="url(#a)" d="m10.5 6.75a2.25 2.25 0 1 1 -4.5 0 2.25 2.25 0 1 1 4.5 0z" transform="matrix(.55556 0 0 .55556 -16.076 27.25)"/>
 </g>
 <g transform="matrix(2.2482,0,0,2.38,57.713,-56.658)">
  <path d="m10.5 6.75a2.25 2.25 0 1 1 -4.5 0 2.25 2.25 0 1 1 4.5 0z" transform="matrix(.88889 0 0 .88889 -18.826 25)"/>
  <path fill="url(#a)" d="m10.5 6.75a2.25 2.25 0 1 1 -4.5 0 2.25 2.25 0 1 1 4.5 0z" transform="matrix(.55556 0 0 .55556 -16.076 27.25)"/>
 </g>
 <g transform="matrix(2.2482,0,0,2.38,57.713,-39.998)">
  <path d="m10.5 6.75a2.25 2.25 0 1 1 -4.5 0 2.25 2.25 0 1 1 4.5 0z" transform="matrix(.88889 0 0 .88889 -18.826 25)"/>
  <path fill="url(#a)" d="m10.5 6.75a2.25 2.25 0 1 1 -4.5 0 2.25 2.25 0 1 1 4.5 0z" transform="matrix(.55556 0 0 .55556 -16.076 27.25)"/>
 </g>
</svg>
