<svg id="Слой_1" data-name="Слой 1"
  xmlns:dc="http://purl.org/dc/elements/1.1/"
  xmlns:cc="http://creativecommons.org/ns#"
  xmlns:rdf="http://www.w3.org/1999/02/22-rdf-syntax-ns#"
  xmlns="http://www.w3.org/2000/svg" viewBox="0 0 26 26">
  <metadata id="metadata43">
    <rdf:RDF>
      <cc:Work rdf:about="">
        <cc:license rdf:resource="http://creativecommons.org/licenses/by-sa/4.0/" />
        <dc:format>image/svg+xml</dc:format>
        <dc:type rdf:resource="http://purl.org/dc/dcmitype/StillImage" />
        <dc:title>add_arc</dc:title>
      </cc:Work>
      <cc:License rdf:about="http://creativecommons.org/licenses/by-sa/4.0/">
        <cc:permits rdf:resource="http://creativecommons.org/ns#Reproduction" />
        <cc:permits rdf:resource="http://creativecommons.org/ns#Distribution" />
        <cc:requires rdf:resource="http://creativecommons.org/ns#Notice" />
        <cc:requires rdf:resource="http://creativecommons.org/ns#Attribution" />
        <cc:permits rdf:resource="http://creativecommons.org/ns#DerivativeWorks" />
        <cc:requires rdf:resource="http://creativecommons.org/ns#ShareAlike" />
      </cc:License>
    </rdf:RDF>
  </metadata>
  <defs>
    <style>.cls-1{fill:#b9b9b9;}.cls-2{fill:#545454;}.cls-3{fill:#1a81c4;}</style>
  </defs>
  <title>general_deletions_1</title>
  <rect class="cls-1" x="1.0012" y="1" width="24" height="24" rx="4"/>
  <path class="cls-2" d="M5.7156,7.2551a.5.5,0,0,1,.3533-.9138L25,9.5251l.0018,1.0119a.4835.4835,0,0,1-.0582-.0063L5.9023,7.3274A.4993.4993,0,0,1,5.7156,7.2551Z"/>
  <path class="cls-2" d="M18.3877,8.3205l-.0028.0018L6.4944,19.7405a.5055.5055,0,0,0-.0233.7067.5.5,0,0,0,.7069.0234l11.77-11.3054Z"/>
  <path class="cls-2" d="M19.88,18.38,6.01,6.698,5.6842,7.7212l13.5254,11.4a.4935.4935,0,0,0,.1838.1056A.5.5,0,0,0,19.88,18.38Z"/>
  <path class="cls-3" d="M8.379,6.8873A2.8088,2.8088,0,1,1,5.57,4.0785,2.8087,2.8087,0,0,1,8.379,6.8873Z"/>
  <circle class="cls-1" cx="5.5702" cy="6.8873" r="2"/>
  <path class="cls-3" d="M21.366,8.4359a2.8088,2.8088,0,1,1-2.8089-2.8088A2.8088,2.8088,0,0,1,21.366,8.4359Z"/>
  <circle class="cls-1" cx="18.5571" cy="8.4359" r="2"/>
  <path class="cls-3" d="M22.5626,18.8184A2.8088,2.8088,0,1,1,19.7538,16.01,2.8087,2.8087,0,0,1,22.5626,18.8184Z"/>
  <circle class="cls-1" cx="19.7538" cy="18.8184" r="2"/>
  <path class="cls-3" d="M9.6108,20.2966A2.8088,2.8088,0,1,1,6.802,17.4878,2.8087,2.8087,0,0,1,9.6108,20.2966Z"/>
  <circle class="cls-1" cx="6.802" cy="20.2966" r="2"/>
</svg>