<?xml version="1.0" encoding="UTF-8" standalone="no"?>
<svg
   xmlns:dc="http://purl.org/dc/elements/1.1/"
   xmlns:cc="http://creativecommons.org/ns#"
   xmlns:rdf="http://www.w3.org/1999/02/22-rdf-syntax-ns#"
   xmlns:svg="http://www.w3.org/2000/svg"
   xmlns="http://www.w3.org/2000/svg"
   xmlns:sodipodi="http://sodipodi.sourceforge.net/DTD/sodipodi-0.dtd"
   xmlns:inkscape="http://www.inkscape.org/namespaces/inkscape"
   height="26"
   width="26"
   version="1.1"
   viewBox="0 0 26 26"
   id="svg2"
   inkscape:version="0.48.3.1 r9886"
   sodipodi:docname="gerber_open_dcode_file.svg">
  <metadata
     id="metadata41">
    <rdf:RDF>
      <cc:Work
         rdf:about="">
        <dc:format>image/svg+xml</dc:format>
        <dc:type
           rdf:resource="http://purl.org/dc/dcmitype/StillImage" />
      </cc:Work>
    </rdf:RDF>
  </metadata>
  <sodipodi:namedview
     pagecolor="#ffffff"
     bordercolor="#666666"
     borderopacity="1"
     objecttolerance="10"
     gridtolerance="10"
     guidetolerance="10"
     inkscape:pageopacity="0"
     inkscape:pageshadow="2"
     inkscape:window-width="1600"
     inkscape:window-height="849"
     id="namedview39"
     showgrid="true"
     inkscape:snap-grids="false"
     inkscape:snap-to-guides="false"
     inkscape:zoom="23.730769"
     inkscape:cx="11.025982"
     inkscape:cy="9.6288493"
     inkscape:window-x="0"
     inkscape:window-y="29"
     inkscape:window-maximized="1"
     inkscape:current-layer="svg2">
    <inkscape:grid
       type="xygrid"
       id="grid2998"
       empspacing="1"
       visible="true"
       enabled="true"
       snapvisiblegridlinesonly="true" />
  </sodipodi:namedview>
  <defs
     id="defs4">
    <radialGradient
       id="a"
       gradientUnits="userSpaceOnUse"
       cy="9.3410997"
       cx="38.659"
       r="8.3416996">
      <stop
         stop-color="#fff"
         offset="0"
         id="stop7" />
      <stop
         stop-color="#fefede"
         stop-opacity=".91837"
         offset=".25"
         id="stop9" />
      <stop
         stop-color="#f5f328"
         offset=".5"
         id="stop11" />
      <stop
         stop-color="#f5f32d"
         stop-opacity=".12234"
         offset="1"
         id="stop13" />
    </radialGradient>
  </defs>
  <g
     transform="matrix(0.5260448,0,0,0.50312091,-0.15999664,-0.35963976)"
     id="g15"
     style="stroke:#000000;stroke-width:0.75">
    <polygon
       points="49.423,27.934 25.213,42.458 1.018,26.902 25.224,12.379 "
       id="polygon17"
       style="fill:#bcbec0" />
    <polygon
       points="49.241,24.649 25.036,39.169 0.837,23.615 25.042,9.094 "
       id="polygon19"
       style="fill:#808284" />
    <polygon
       points="49.423,20.714 25.213,35.238 1.018,19.684 25.224,5.16 "
       id="polygon21"
       style="fill:#0071bc" />
    <polygon
       points="25.217,30.787 1.018,15.232 25.224,0.711 49.423,16.266 "
       id="polygon23"
       style="fill:#008fd4"
       transform="matrix(1.0001441,0,0,0.98075002,-0.00363311,0.59636678)" />
  </g>
  <g
     transform="matrix(0.52181772,0,0,0.61984761,3.0209882,-16.160143)"
     id="g31">
    <rect
       height="15.76275"
       width="44.454456"
       y="52.359386"
       x="-5.4629998"
       id="rect33"
       style="fill:#ffffff;fill-rule:evenodd" />
    <g
       transform="scale(0.87703798,1.1402015)"
       style="font-size:61.8630867px;line-height:125%;letter-spacing:0px;word-spacing:0px;fill:#4d4d4d;font-family:Sans"
       id="text35">
      <path
         d="m 5.9902763,58.527214 c -0.8031356,0.390408 -1.6369333,0.683213 -2.5013955,0.878417 -0.8644828,0.195203 -1.7568416,0.292805 -2.67707886,0.292805 -2.08031894,0 -3.72839394,-0.580033 -4.94423004,-1.740101 -1.2158414,-1.165642 -1.8237608,-2.744002 -1.8237599,-4.735083 -9e-7,-2.013379 0.619073,-3.597315 1.8572234,-4.751815 1.2381451,-1.154478 2.9336266,-1.731723 5.08644984,-1.731736 0.83100126,1.3e-5 1.62575826,0.07809 2.38427336,0.234245 0.764072,0.156175 1.4835362,0.387631 2.1583948,0.694367 l 0,2.585054 C 4.8329858,49.857392 4.1386192,49.561798 3.4470514,49.366585 2.7610404,49.171392 2.072251,49.07379 1.3806812,49.073779 c -1.28277386,1.1e-5 -2.27273432,0.359743 -2.9698843,1.079198 -0.6915833,0.713896 -1.0373723,1.73732 -1.0373681,3.070275 -4.2e-6,1.321812 0.3346303,2.342448 1.0039046,3.061909 0.66926382,0.719467 1.62018358,1.079199 2.8527621,1.079197 0.3346265,2e-6 0.6441634,-0.01952 0.9286117,-0.05856 0.2900076,-0.04462 0.5493494,-0.111543 0.7780261,-0.200781 l 0,-2.426103 -1.96597981,0 0,-2.158395 5.01952281,0 0,6.006696"
         style="font-size:17.1333046px;font-weight:bold;letter-spacing:0.05271786px;fill:#4d4d4d"
         id="path3001"
         inkscape:connector-curvature="0" />
      <path
         d="m 8.8706587,46.96558 8.6921403,0 0,2.434468 -5.47128,0 0,2.325713 5.145011,0 0,2.434468 -5.145011,0 0,2.861128 5.655329,0 0,2.434469 -8.8761893,0 0,-12.490246"
         style="font-size:17.1333046px;font-weight:bold;letter-spacing:0.05271786px;fill:#4d4d4d"
         id="path3003"
         inkscape:connector-curvature="0" />
      <path
         d="m 25.211729,52.503787 c 0.67484,7e-6 1.157271,-0.125481 1.447295,-0.376465 0.295587,-0.250968 0.443384,-0.663684 0.443392,-1.238148 -8e-6,-0.568871 -0.147805,-0.976009 -0.443392,-1.221418 C 26.369,49.422367 25.886569,49.299668 25.211729,49.299658 l -1.355271,0 0,3.204129 1.355271,0 m -1.355271,2.225321 0,4.726718 -3.220861,0 0,-12.490246 4.919132,0 c 1.64528,1.2e-5 2.849965,0.276086 3.614057,0.828221 0.769649,0.552159 1.154479,1.424997 1.15449,2.618518 -1.1e-5,0.825441 -0.200792,1.503076 -0.602343,2.032907 -0.395994,0.529845 -0.995548,0.920252 -1.798662,1.171222 0.440593,0.100396 0.833789,0.329063 1.179588,0.686001 0.351356,0.351371 0.705511,0.886787 1.062466,1.606247 l 1.748467,3.54713 -3.430008,0 -1.522588,-3.103738 C 26.65344,55.72744 26.341114,55.300781 26.023218,55.072109 25.710886,54.843447 25.292593,54.729113 24.768338,54.729108 l -0.91188,0"
         style="font-size:17.1333046px;font-weight:bold;letter-spacing:0.05271786px;fill:#4d4d4d"
         id="path3005"
         inkscape:connector-curvature="0" />
      <path
         d="m 38.875718,51.801053 c 0.507522,8e-6 0.892352,-0.111537 1.15449,-0.334634 0.262123,-0.223082 0.393188,-0.552139 0.393196,-0.987173 -8e-6,-0.429439 -0.131073,-0.755708 -0.393196,-0.978807 -0.262138,-0.228657 -0.646968,-0.342991 -1.15449,-0.343001 l -1.781931,0 0,2.643615 1.781931,0 m 0.108756,5.462915 c 0.646953,2e-6 1.132173,-0.136641 1.455662,-0.409928 0.329049,-0.273282 0.493577,-0.685998 0.493586,-1.238149 -9e-6,-0.540989 -0.161749,-0.945339 -0.485221,-1.213052 -0.323488,-0.273279 -0.811496,-0.409922 -1.464027,-0.409927 l -1.890687,0 0,3.271056 1.890687,0 m 2.994982,-4.492473 c 0.691568,0.200787 1.226984,0.571674 1.606247,1.11266 0.379241,0.540999 0.568868,1.20469 0.56888,1.991078 -1.2e-5,1.204688 -0.407151,2.102624 -1.221418,2.69381 -0.814288,0.591189 -2.052435,0.886783 -3.714447,0.886783 l -5.345791,0 0,-12.490246 4.835473,0 c 1.734516,1.2e-5 2.989396,0.262143 3.764642,0.786392 0.780804,0.524272 1.171211,1.363647 1.171222,2.518127 -1.1e-5,0.607929 -0.142231,1.126612 -0.426659,1.556052 -0.28445,0.423878 -0.697166,0.738992 -1.238149,0.945344"
         style="font-size:17.1333046px;font-weight:bold;letter-spacing:0.05271786px;fill:#4d4d4d"
         id="path3007"
         inkscape:connector-curvature="0" />
      <path
         d="m 47.152087,56.218234 3.011714,0 0,3.237592 -3.011714,0 0,-3.237592"
         style="font-size:17.1333046px;font-weight:bold;letter-spacing:0.05271786px;fill:#4d4d4d"
         id="path3009"
         inkscape:connector-curvature="0" />
    </g>
  </g>
</svg>
