<svg id="Слой_1" data-name="Слой 1"
  xmlns:dc="http://purl.org/dc/elements/1.1/"
  xmlns:cc="http://creativecommons.org/ns#"
  xmlns:rdf="http://www.w3.org/1999/02/22-rdf-syntax-ns#"
  xmlns="http://www.w3.org/2000/svg"
  xmlns:sodipodi="http://sodipodi.sourceforge.net/DTD/sodipodi-0.dtd"
  xmlns:inkscape="http://www.inkscape.org/namespaces/inkscape" viewBox="0 0 26 26">
  <sodipodi:namedview pagecolor="#ffffff" bordercolor="#666666" borderopacity="1" objecttolerance="10" gridtolerance="10" guidetolerance="10" inkscape:pageopacity="0" inkscape:pageshadow="2" inkscape:window-width="1609" inkscape:window-height="1286" id="namedview30" showgrid="true" inkscape:zoom="27.961538" inkscape:cx="13" inkscape:cy="13" inkscape:window-x="0" inkscape:window-y="37" inkscape:window-maximized="0">
    <inkscape:grid type="xygrid" id="grid_kicad" spacingx="0.5" spacingy="0.5" color="#9999ff" opacity="0.13" empspacing="2" />
  </sodipodi:namedview>
  <metadata id="metadata43">
    <rdf:RDF>
      <cc:Work rdf:about="">
        <cc:license rdf:resource="http://creativecommons.org/licenses/by-sa/4.0/" />
        <dc:format>image/svg+xml</dc:format>
        <dc:type rdf:resource="http://purl.org/dc/dcmitype/StillImage" />
        <dc:title>add_arc</dc:title>
      </cc:Work>
      <cc:License rdf:about="http://creativecommons.org/licenses/by-sa/4.0/">
        <cc:permits rdf:resource="http://creativecommons.org/ns#Reproduction" />
        <cc:permits rdf:resource="http://creativecommons.org/ns#Distribution" />
        <cc:requires rdf:resource="http://creativecommons.org/ns#Notice" />
        <cc:requires rdf:resource="http://creativecommons.org/ns#Attribution" />
        <cc:permits rdf:resource="http://creativecommons.org/ns#DerivativeWorks" />
        <cc:requires rdf:resource="http://creativecommons.org/ns#ShareAlike" />
      </cc:License>
    </rdf:RDF>
  </metadata>
  <defs>
    <style>.cls-1{fill:#545454;}.cls-2{fill:#b9b9b9;}.cls-3{fill:#1a81c4;}.cls-4{fill:#fff;}.cls-5{fill:#e61c50;}</style>
  </defs>
  <title>gerber_job_file</title>
  <path class="cls-1" d="M4.5008.996H18.5017a3.5,3.5,0,0,1,3.5,3.5V18.494a3.5,3.5,0,0,1-3.5,3.5H4.5008a3.5,3.5,0,0,1-3.5-3.5V4.4959A3.5,3.5,0,0,1,4.5008.996Z"/>
  <path class="cls-2" d="M8.8509,9.1288H5.0062l-4.0008-4,0-.559s.002-.3345.0148-.4451c.0135-.1164.092-.46.092-.46L5.4662,8.0182H8.8509Z"/>
  <rect class="cls-2" x="8.3541" y="7.4615" width="3.5836" height="2.1493"/>
  <rect class="cls-2" x="8.3541" y="12.1197" width="3.5836" height="2.1493"/>
  <rect class="cls-2" x="8.3541" y="16.7778" width="3.5836" height="2.1494"/>
  <rect class="cls-2" x="16.7103" y="17.9305" width="3.5836" height="2.1493"/>
  <rect class="cls-2" x="16.7103" y="12.5617" width="3.5836" height="2.1493"/>
  <rect class="cls-2" x="16.7103" y="7.1929" width="3.5836" height="2.1493"/>
  <rect class="cls-2" x="16.7103" y="2.7079" width="3.5836" height="2.1493"/>
  <path class="cls-2" d="M8.8509,4.447H5.0062L2.3185,1.76s.3332-.2447.453-.313A3.715,3.715,0,0,1,3.329,1.2L5.4662,3.3365H8.8509Z"/>
  <rect class="cls-2" x="8.3541" y="2.8034" width="3.5836" height="2.1494"/>
  <polygon class="cls-2" points="16.77 19.582 15.298 19.582 14.089 18.373 14.089 11.54 15.2 11.54 15.2 17.913 15.758 18.472 16.77 18.472 16.77 19.582"/>
  <rect class="cls-2" x="14.0887" y="0.9948" width="1.1109" height="8.288"/>
  <rect class="cls-2" x="20.1867" y="13.1338" width="1.8156" height="1.1105"/>
  <polygon class="cls-2" points="4.63 21.996 4.143 21.996 3.519 21.844 3.519 19.581 5.828 17.272 8.402 17.272 8.402 18.383 6.288 18.383 4.63 20.041 4.63 21.996"/>
  <rect class="cls-2" x="4.9898" y="12.6198" width="3.3762" height="1.1105"/>
  <path class="cls-3" d="M16.3878,10.4114a1.75,1.75,0,1,1-1.75-1.75A1.75,1.75,0,0,1,16.3878,10.4114Z"/>
  <path class="cls-2" d="M15.8839,10.4114a1.2461,1.2461,0,1,1-1.246-1.246A1.2459,1.2459,0,0,1,15.8839,10.4114Z"/>
  <circle class="cls-3" cx="3.8614" cy="13.1747" r="1.7499"/>
  <path class="cls-2" d="M5.1074,13.1747a1.2461,1.2461,0,1,1-1.246-1.246A1.2459,1.2459,0,0,1,5.1074,13.1747Z"/>
  <path class="cls-4" d="M21.5744,18.2043a3.062,3.062,0,1,1-3.0619-3.0619A3.0619,3.0619,0,0,1,21.5744,18.2043Z"/>
  <path class="cls-5" d="M24.7541,19.5583l-1.2674-.907-.015.0269a5.1976,5.1976,0,0,0,.0693-.6877,5.203,5.203,0,0,0-.0738-.7314l.0074.0127,1.2576-.92a.67.67,0,0,0,.1848-.8745l-1.1327-1.9683a.67.67,0,0,0-.8489-.2795l-1.4277.6248.0124.0215a5.2207,5.2207,0,0,0-1.2774-.757L20.0733,11.58a.67.67,0,0,0-.6656-.5964h-2.271a.67.67,0,0,0-.6658.5964l-.17,1.5453A5.2192,5.2192,0,0,0,14.98,13.93l.018-.0322-1.4342-.61a.67.67,0,0,0-.846.2886l-1.1118,1.98a.67.67,0,0,0,.1943.8725l1.2674.907.0276-.0492a5.2141,5.2141,0,0,0-.0709.7037,5.21,5.21,0,0,0,.0767.7616l-.021-.0367-1.2576.9205a.67.67,0,0,0-.1851.8744L12.77,22.4787a.67.67,0,0,0,.8489.2795l1.4279-.6249-.0293-.0507a5.22,5.22,0,0,0,1.2933.7762l.17,1.5487a.67.67,0,0,0,.6656.5964h2.271a.67.67,0,0,0,.6656-.5964l.17-1.5484a5.2191,5.2191,0,0,0,1.318-.7963l-.0154.0271,1.4344.61a.67.67,0,0,0,.8459-.2885l1.1117-1.98A.67.67,0,0,0,24.7541,19.5583Zm-6.4714.9334a2.5012,2.5012,0,1,1,2.5012-2.5012A2.5013,2.5013,0,0,1,18.2827,20.4917Z"/>
</svg>