<?xml version="1.0" encoding="UTF-8" standalone="no"?>
<!-- Created with Inkscape (http://www.inkscape.org/) -->

<svg
   xmlns:dc="http://purl.org/dc/elements/1.1/"
   xmlns:cc="http://creativecommons.org/ns#"
   xmlns:rdf="http://www.w3.org/1999/02/22-rdf-syntax-ns#"
   xmlns:svg="http://www.w3.org/2000/svg"
   xmlns="http://www.w3.org/2000/svg"
   xmlns:sodipodi="http://sodipodi.sourceforge.net/DTD/sodipodi-0.dtd"
   xmlns:inkscape="http://www.inkscape.org/namespaces/inkscape"
   width="24"
   height="24"
   id="svg2"
   version="1.1"
   inkscape:version="0.48.2 r9819"
   sodipodi:docname="gerbview_show_negative_objects.svg">
  <defs
     id="defs4">
    <inkscape:perspective
       sodipodi:type="inkscape:persp3d"
       inkscape:vp_x="0 : 526.18109 : 1"
       inkscape:vp_y="0 : 1000 : 0"
       inkscape:vp_z="744.09448 : 526.18109 : 1"
       inkscape:persp3d-origin="372.04724 : 350.78739 : 1"
       id="perspective10" />
  </defs>
  <sodipodi:namedview
     id="base"
     pagecolor="#ffffff"
     bordercolor="#666666"
     borderopacity="1.0"
     inkscape:pageopacity="0.0"
     inkscape:pageshadow="2"
     inkscape:zoom="9.9489113"
     inkscape:cx="39.279561"
     inkscape:cy="21.32972"
     inkscape:document-units="px"
     inkscape:current-layer="layer1"
     showgrid="false"
     inkscape:window-width="1280"
     inkscape:window-height="977"
     inkscape:window-x="-4"
     inkscape:window-y="-4"
     inkscape:window-maximized="1" />
  <metadata
     id="metadata7">
    <rdf:RDF>
      <cc:Work
         rdf:about="">
        <dc:format>image/svg+xml</dc:format>
        <dc:type
           rdf:resource="http://purl.org/dc/dcmitype/StillImage" />
        <dc:title />
      </cc:Work>
    </rdf:RDF>
  </metadata>
  <g
     inkscape:label="Calque 1"
     inkscape:groupmode="layer"
     id="layer1"
     transform="translate(338.49143,-752.36376)">
    <g
       transform="matrix(0.46868594,0,0,0.54814228,-341.49773,739.64688)"
       id="g16">
      <path
         style="fill-rule:evenodd"
         inkscape:connector-curvature="0"
         d="m 5.8694,32.598 c 0,0 15.515,-20.825 31.114,0.08214 -15.599,19.414 -31.114,-0.082 -31.114,-0.082 z"
         id="path18" />
      <path
         style="fill:#ffffff;fill-rule:evenodd"
         inkscape:connector-curvature="0"
         d="m 10.452,32.553 c 0,0 10.86,-13.986 21.78,0.05516 -10.92,13.038 -21.78,-0.05516 -21.78,-0.05516 z"
         id="path20" />
      <path
         style="fill:#a39aff"
         inkscape:connector-curvature="0"
         d="m -6.5,3.5 a 1.75,1.5 0 1 1 -3.5,0 1.75,1.5 0 1 1 3.5,0 z"
         transform="matrix(3.5559,0,0,3.9824,50.678,18.388)"
         id="path22" />
      <path
         inkscape:connector-curvature="0"
         d="m -6.5,3.5 a 1.75,1.5 0 1 1 -3.5,0 1.75,1.5 0 1 1 3.5,0 z"
         transform="matrix(1.778,0,0,1.9912,36.01,25.358)"
         id="path24" />
    </g>
    <g
       id="g3014"
       transform="matrix(0.03268139,0,0,0.04977052,-335.12558,739.13334)">
      <path
         inkscape:connector-curvature="0"
         id="path2854"
         d="m 220.59504,737.82357 c -17.24644,-1.70899 -33.51501,-5.32264 -46.71219,-10.3759 l -2.07053,-0.79282 4.28417,-3.54174 c 20.13549,-16.64607 28.10063,-35.74061 34.49108,-82.68412 1.78923,-13.14345 3.37395,-28.55495 6.34987,-61.75289 4.47449,-49.91527 13.54441,-94.69081 29.38352,-145.058 13.3416,-42.42525 23.51093,-66.20546 36.57623,-85.53066 24.51119,-36.25512 52.72099,-55.40415 98.25838,-66.69853 15.41698,-3.82379 25.26952,-5.2207 36.82203,-5.2207 25.68751,0 56.71815,9.208 78.22841,23.21342 17.19023,11.19264 37.69285,35.9994 49.62792,60.04638 14.77016,29.75899 28.16691,79.20011 33.73153,124.48657 4.05537,33.00315 8.6037,63.51434 12.60515,84.55643 2.8431,14.95084 7.1935,31.03069 14.07937,52.03915 7.06613,21.55868 9.21918,29.84947 11.00001,42.3579 1.86917,13.12976 1.80088,22.8922 -0.20413,29.18765 -1.80935,5.68105 -5.91275,12.42032 -10.66077,17.50888 -8.23635,8.82709 -11.46095,9.11105 -33.21336,2.92476 -14.78277,-4.20415 -21.0046,-5.08785 -31.52757,-4.47785 -15.24652,0.8838 -24.38942,3.11534 -48.77187,11.90393 -22.13071,7.97696 -29.97915,9.86803 -40.95228,9.86742 -13.33597,-7.3e-4 -22.71719,-2.77235 -45.01059,-13.29795 -11.22398,-5.29929 -20.7705,-8.96256 -26.8849,-10.31652 -7.02966,-1.55664 -18.76521,-2.11458 -28.42779,-1.35152 -17.97724,1.41963 -33.01034,5.53648 -53.20644,14.5707 -16.92137,7.56934 -26.67523,11.20065 -37.96938,14.13577 -15.95239,4.14572 -28.12325,5.45988 -39.82587,4.30024 z"
         style="fill:#ffffff;fill-opacity:1;stroke:none" />
      <path
         inkscape:connector-curvature="0"
         id="path2852"
         d="m 531.156,711.43694 -2.48492,-2.49595 -2.116,-27.86505 c -1.1638,-15.32577 -2.08324,-27.8978 -2.0432,-27.93784 0.0932,-0.0932 20.72534,-4.6047 20.78217,-4.54434 0.10176,0.10809 20.0404,63.30352 20.0404,63.51797 0,0.42931 -1.31468,0.59245 -6.69226,0.83046 -2.91681,0.1291 -6.49654,0.35389 -7.95495,0.49954 -1.45841,0.14564 -5.89045,0.31574 -9.84899,0.37798 l -7.19733,0.11318 -2.48492,-2.49595 0,0 z"
         style="fill:#cccccc;fill-opacity:1;stroke:none" />
      <path
         inkscape:connector-curvature="0"
         id="path2848"
         d="m 391.41359,715.40013 c -0.34724,-0.0563 -0.85863,-0.19835 -1.13642,-0.31564 -1.02814,-0.43408 -2.58843,-0.757 -4.9245,-1.01917 -1.31951,-0.14808 -2.96732,-0.38755 -3.6618,-0.53216 -0.69448,-0.14461 -3.08097,-0.36221 -5.3033,-0.48356 -2.22234,-0.12135 -4.61321,-0.29064 -5.31305,-0.3762 l -1.27245,-0.15557 -0.306,-2.57701 c -0.4908,-4.13333 -0.40429,-8.65152 0.19924,-10.4057 0.43239,-1.25677 0.50507,-2.12573 0.50507,-6.03839 l 0,-4.57036 6.8212,-1.74299 c 3.75165,-0.95864 6.8768,-1.68737 6.94477,-1.6194 0.23941,0.23941 11.99292,28.56991 11.99292,28.90758 0,0.18817 -0.15747,0.34212 -0.34994,0.34212 -0.19246,0 -0.67544,0.16976 -1.07328,0.37725 -0.69068,0.36021 -1.75253,0.43135 -3.12246,0.2092 z"
         style="fill:#cccccc;fill-opacity:1;stroke:none" />
      <path
         inkscape:connector-curvature="0"
         d="m 363.42071,710.21373 c 0.0527,-0.21983 0.11305,-0.43766 0.17455,-0.65516 0.0641,-0.22788 0.13857,-0.45263 0.20381,-0.68017 0.0408,-0.14375 0.0782,-0.28836 0.10831,-0.43471 0.0404,-0.18304 0.067,-0.36864 0.0951,-0.55386 0.0268,-0.20711 0.049,-0.41465 0.0665,-0.62273 0.0235,-0.31065 0.0498,-0.62121 0.0659,-0.93235 0.0178,-0.33988 0.0308,-0.67993 0.0381,-1.02018 0.008,-0.41926 0.0141,-0.83856 0.0207,-1.25785 0.007,-0.47381 0.0134,-0.94764 0.0195,-1.42147 0.009,-0.48317 0.0102,-0.96635 0.009,-1.44958 -0.002,-0.54396 -0.005,-1.0879 -0.008,-1.63185 -0.002,-0.57111 -0.003,-1.14217 -0.0124,-1.71321 -0.0116,-0.60255 -0.0187,-1.20521 -0.0344,-1.80767 -0.0133,-0.59444 -0.0392,-1.1884 -0.0705,-1.78212 -0.0321,-0.6462 -0.0761,-1.2917 -0.11787,-1.93733 -0.0465,-0.65544 -0.0966,-1.31059 -0.15195,-1.96535 -0.0365,-0.45132 -0.0779,-0.9022 -0.12022,-1.35301 0,0 10.59645,-0.99871 10.59645,-0.99871 l 0,0 c 0.0457,0.48393 0.09,0.96799 0.13013,1.45244 0.0614,0.72209 0.11739,1.44464 0.16868,2.16753 0.0459,0.68919 0.0933,1.37831 0.1283,2.06816 0.0371,0.6914 0.0686,1.38308 0.0848,2.07533 0.0161,0.63569 0.0265,1.2715 0.039,1.90728 0.0102,0.6083 0.014,1.21665 0.0179,1.82503 0.004,0.54945 0.008,1.09889 0.0111,1.64833 0.003,0.53984 0.002,1.07964 -0.006,1.61944 -0.005,0.47963 -0.0102,0.95925 -0.0156,1.43887 -0.005,0.44614 -0.0105,0.89229 -0.0181,1.33839 -0.009,0.45945 -0.0256,0.9187 -0.0479,1.37771 -0.023,0.41328 -0.0513,0.82626 -0.0834,1.23893 -0.0365,0.43977 -0.0816,0.87885 -0.14402,1.31577 -0.0598,0.40281 -0.12397,0.80508 -0.20973,1.20331 -0.0813,0.37898 -0.17184,0.75589 -0.27729,1.12895 -0.0585,0.20659 -0.12017,0.41226 -0.18069,0.61824 -0.0466,0.16887 -0.0699,0.25396 -0.1203,0.43425 0,0 -10.35947,-2.64065 -10.35947,-2.64065 z"
         id="path2838"
         style="fill:#000000;fill-opacity:1;stroke:none" />
      <path
         inkscape:connector-curvature="0"
         sodipodi:nodetypes="cssssssssssssssssssssssssssssssscssscssscscsscsscssccccssssscssssssscsssssscsccccsssccssscssscsssssscsscscsccssscsssssssscsssscssssssscssssssccscscccccsccccccccscsccccscccscsscscccccscscssccsccsscccccccscccscsscsccscsssscccsssscsccscsscscccscccccccssccsccsscscscccccscsscsccccccccscsssccscccsccccsscsccsssssscssssssscsssscsssssssscsssccssscsscssssssssssssssccsssccscscsssssscssssssscsssssccccssccsccscscssccscscssssssssssssssssssssssssssssssscc"
         d="m 155.01922,728.7934 c 0.0483,-0.0194 3.84046,-11.85056 3.94037,-11.88706 0.41031,-0.15228 0.8219,-0.30111 1.23041,-0.45819 0.47357,-0.18352 0.93421,-0.39766 1.3937,-0.61341 0.69883,-0.33268 1.38943,-0.6822 2.08307,-1.02549 0.73596,-0.36585 1.47401,-0.72777 2.20395,-1.10557 0.71656,-0.37323 1.42126,-0.76876 2.12008,-1.17408 0.73226,-0.42396 1.43803,-0.89002 2.13461,-1.36962 0.8311,-0.57515 1.63073,-1.19357 2.42217,-1.82162 0.87097,-0.69396 1.70117,-1.43619 2.52518,-2.1846 0.91628,-0.83505 1.81448,-1.68942 2.70179,-2.5551 0.87045,-0.84641 1.71184,-1.72141 2.53701,-2.61177 0.81436,-0.87948 1.57901,-1.80289 2.32378,-2.74147 0.79488,-1.00896 1.54375,-2.05274 2.26842,-3.11289 0.74131,-1.08131 1.42995,-2.1968 2.08845,-3.33003 0.68029,-1.17286 1.2901,-2.38402 1.88518,-3.60166 0.62968,-1.29574 1.20858,-2.61491 1.76859,-3.94194 0.5858,-1.38789 1.12174,-2.79585 1.63729,-4.21109 0.53555,-1.46991 1.01464,-2.95947 1.48338,-4.45175 0.51029,-1.63381 0.97593,-3.28097 1.42885,-4.93143 0.49275,-1.79958 0.9454,-3.60964 1.36682,-5.42714 0.45636,-1.97736 0.86048,-3.96612 1.25596,-5.95637 0.42045,-2.10591 0.79,-4.22153 1.14679,-6.33901 0.37029,-2.22227 0.71949,-4.44797 1.06162,-6.67473 0.35836,-2.33602 0.69509,-4.67526 1.02376,-7.01562 0.34775,-2.47989 0.67133,-4.96305 0.9881,-7.44705 0.33565,-2.63618 0.64808,-5.27522 0.95388,-7.915 0.32241,-2.79267 0.62434,-5.58763 0.9201,-8.38323 0.30962,-2.9305 0.60128,-5.86284 0.88702,-8.79575 0.2969,-3.05498 0.5783,-6.11142 0.85441,-9.16834 0.28288,-3.13673 0.55388,-6.27451 0.82177,-9.41255 0.27245,-3.19974 0.53009,-6.40071 0.80498,-9.60024 0.2783,-3.25947 0.58099,-6.5168 0.89674,-9.77284 0.32756,-3.31798 0.67863,-6.63358 1.04321,-9.94768 0.3749,-3.39779 0.78751,-6.79123 1.21476,-10.18278 0.43835,-3.45827 0.90769,-6.9125 1.4008,-10.36335 0.50392,-3.53382 1.07689,-7.05722 1.65895,-10.57886 0.58964,-3.54328 1.2081,-7.08171 1.84193,-10.61733 0.63746,-3.54178 1.31492,-7.07615 2.00634,-10.60773 0.69097,-3.52241 1.41867,-7.03744 2.15898,-10.54977 0.74337,-3.53221 1.52878,-7.05534 2.33465,-10.57376 0.81408,-3.53814 1.66353,-7.06794 2.53128,-10.59326 0.87338,-3.54662 1.78739,-7.083 2.71407,-10.61601 0.93706,-3.5506 1.90366,-7.09327 2.8894,-10.63064 0.99012,-3.56265 2.01756,-7.11481 3.06454,-10.66112 1.06044,-3.58408 2.15378,-7.15829 3.2633,-10.72744 1.11736,-3.58076 2.26118,-7.15318 3.41462,-10.72246 1.15116,-3.56038 2.32627,-7.11293 3.51726,-10.66016 1.17521,-3.49287 2.38885,-6.97262 3.60804,-10.45033 1.20522,-3.42444 2.45825,-6.83165 3.73581,-10.22967 1.25201,-3.33493 2.57046,-6.64423 3.91934,-9.94099 1.31637,-3.21454 2.70891,-6.39696 4.13396,-9.56457 1.39146,-3.1079 2.89203,-6.16459 4.44549,-9.19417 1.53537,-2.95065 3.19645,-5.83282 4.8806,-8.70026 1.63159,-2.78779 3.36262,-5.51481 5.13679,-8.21344 1.7241,-2.59702 3.5109,-5.15152 5.32518,-7.68609 1.76447,-2.46497 3.60554,-4.87323 5.47402,-7.25982 1.8179,-2.32504 3.70966,-4.59049 5.63162,-6.82976 1.86053,-2.16621 3.79736,-4.26462 5.75951,-6.33858 1.92679,-2.03607 3.93306,-3.99419 5.97164,-5.91754 1.98255,-1.87077 4.04052,-3.65821 6.14016,-5.39566 2.02503,-1.66284 4.13021,-3.22325 6.25838,-4.75046 2.0221,-1.44702 4.10474,-2.80565 6.19905,-4.14493 1.99887,-1.2747 4.02252,-2.50984 6.05996,-3.72172 1.99021,-1.1799 4.00444,-2.31856 6.02672,-3.44238 2.04994,-1.14368 4.13934,-2.21346 6.24664,-3.24679 2.09709,-1.02403 4.22337,-1.98598 6.36087,-2.92208 2.14978,-0.93995 4.32716,-1.81433 6.51326,-2.66567 2.19543,-0.85358 4.40878,-1.65937 6.6332,-2.43387 2.24002,-0.76897 4.4975,-1.48557 6.75729,-2.19386 2.22265,-0.69855 4.45665,-1.35988 6.6988,-1.99278 2.21641,-0.62664 4.44676,-1.20199 6.68028,-1.76396 2.20481,-0.55321 4.42072,-1.06063 6.63904,-1.55637 2.19033,-0.49061 4.38867,-0.94392 6.59215,-1.37122 2.19736,-0.42984 4.40518,-0.80241 6.61539,-1.15914 2.24417,-0.36626 4.49852,-0.66118 6.75796,-0.9142 2.29504,-0.24444 4.59939,-0.38336 6.90366,-0.50442 2.2855,-0.12181 4.57326,-0.17882 6.86178,-0.18682 2.35101,10e-4 4.69923,0.12483 7.04436,0.27968 2.27457,0.14573 4.54397,0.35605 6.8091,0.60719 2.24713,0.25728 4.48399,0.5924 6.71688,0.95073 2.15206,0.35669 4.29716,0.75316 6.43944,1.16403 2.17237,0.4146 4.32639,0.91654 6.47399,1.44272 2.10596,0.51502 4.19675,1.08793 6.28078,1.68473 2.03403,0.58386 4.05404,1.21477 6.07131,1.85367 1.99907,0.62331 3.97964,1.30324 5.95632,1.99362 1.97437,0.69662 3.93367,1.43451 5.88556,2.19152 1.97193,0.76157 3.92273,1.57577 5.8589,2.42369 1.98412,0.87131 3.93153,1.82299 5.86677,2.79712 1.93812,0.9763 3.8465,2.0096 5.73831,3.07239 1.92641,1.08824 3.81672,2.23828 5.69171,3.41236 1.90734,1.19028 3.77514,2.44166 5.6222,3.72297 1.9097,1.32922 3.75348,2.7482 5.56878,4.20259 1.83646,1.47336 3.59924,3.0347 5.33582,4.62354 1.74136,1.59955 3.42157,3.26326 5.07542,4.95255 1.67202,1.70901 3.27665,3.48158 4.86025,5.27223 1.58381,1.79698 3.11504,3.63903 4.6278,5.49589 1.53706,1.88533 3.0106,3.8208 4.46406,5.77088 1.4369,1.93242 2.841,3.88885 4.2277,5.85747 1.3886,1.97254 2.7387,3.97172 4.0729,5.98132 1.3299,2.00695 2.633,4.03137 3.9125,6.07075 1.2964,2.07959 2.5532,4.18347 3.7752,6.30759 1.2638,2.19787 2.4349,4.4469 3.5841,6.70618 1.1695,2.29158 2.2558,4.62395 3.3118,6.96956 1.0474,2.34683 2.0321,4.72077 3.0061,7.09876 0.9579,2.34564 1.8911,4.70124 2.8139,7.06083 0.9385,2.38644 1.8284,4.79146 2.6966,7.2042 0.8693,2.41633 1.6917,4.84897 2.497,7.28722 0.7954,2.43518 1.5598,4.88027 2.3059,7.33095 0.737,2.4354 1.4388,4.88114 2.1318,7.32935 0.6818,2.41051 1.3467,4.82574 2.002,7.24358 0.6555,2.41916 1.2961,4.84226 1.9223,7.26917 0.6234,2.4252 1.2251,4.85587 1.8207,7.288 0.592,2.44225 1.165,4.88905 1.7242,7.339 0.5555,2.44213 1.0759,4.89207 1.5956,7.34201 0.5144,2.42273 1.0171,4.84787 1.5059,7.27586 0.4873,2.43305 0.9348,4.87376 1.3808,7.31464 0.4438,2.42948 0.8606,4.86377 1.2664,7.29984 0.4061,2.41495 0.7852,4.83421 1.1508,7.25557 0.3672,2.42746 0.7023,4.8596 1.0207,7.29389 0.3157,2.42105 0.6024,4.84572 0.8875,7.27051 0.2818,2.39705 0.5542,4.79518 0.8249,7.1935 0.2638,2.38242 0.5344,4.76405 0.813,7.14479 0.2751,2.38746 0.5689,4.77265 0.8693,7.15703 0.3087,2.42453 0.6359,4.84665 0.9711,7.26763 0.3369,2.44924 0.6968,4.8952 1.0545,7.34144 0.357,2.43462 0.7347,4.86613 1.1071,7.29841 0.3787,2.41694 0.7503,4.83499 1.1284,7.25201 0.3754,2.40735 0.7565,4.81381 1.1386,7.22011 0.3848,2.40412 0.77,4.80818 1.1648,7.21069 0.3941,2.41056 0.8012,4.81897 1.2208,7.22522 0.4126,2.381 0.8471,4.75807 1.2892,7.13374 0.4339,2.33436 0.8902,4.66428 1.3752,6.98855 0.4815,2.31956 0.9946,4.63233 1.5271,6.94067 0.5236,2.27071 1.0877,4.53155 1.6637,6.78944 0.5778,2.23704 1.1799,4.46779 1.7971,6.69429 0.6207,2.22484 1.277,4.43946 1.9391,6.65226 0.6576,2.19024 1.3432,4.37193 2.0406,6.54981 0.7091,2.21204 1.4307,4.42006 2.1603,6.62541 0.7461,2.24251 1.4825,4.48824 2.2118,6.73628 0.7247,2.22404 1.4515,4.44738 2.1757,6.67155 0.753,2.30951 1.4854,4.62556 2.187,6.95122 0.7381,2.40937 1.3934,4.84217 2.0063,7.28601 0.6074,2.46575 1.1285,4.95135 1.6217,7.44207 0.4931,2.4949 0.8994,5.00572 1.2821,7.51956 0.3677,2.46681 0.6988,4.93886 1.009,7.41349 0.3105,2.45286 0.5623,4.91234 0.7899,7.37409 0.2326,2.46915 0.3906,4.94386 0.4635,7.4227 0.069,2.54121 -0.103,5.07862 -0.3604,7.60492 -0.2608,2.46449 -0.7809,4.88725 -1.3962,7.28427 -0.5992,2.29277 -1.4219,4.51583 -2.3236,6.70428 -0.8652,2.06245 -1.8938,4.04926 -2.9682,6.00884 -1.0311,1.87479 -2.181,3.67909 -3.3786,5.45082 -1.1665,1.71251 -2.4344,3.35116 -3.7494,4.95125 -1.2818,1.54257 -2.652,3.0081 -4.0595,4.43579 -1.4287,1.46056 -3.006,2.75862 -4.6364,3.98507 -1.6068,1.21636 -3.3478,2.22344 -5.1541,3.10854 -1.755,0.83959 -3.6101,1.42191 -5.4962,1.87906 -1.7785,0.41381 -3.6018,0.52949 -5.421,0.57647 -1.5362,0.0322 -3.0716,-0.028 -4.6035,-0.13824 -1.6646,-0.12677 -3.3079,-0.42577 -4.9453,-0.73959 -1.5934,-0.30732 -3.179,-0.65209 -4.7591,-1.02105 -1.7472,-0.41571 -3.4807,-0.88602 -5.212,-1.36268 -1.8432,-0.50288 -3.6608,-1.09232 -5.476,-1.68654 -1.7244,-0.57021 -3.4531,-1.12688 -5.1892,-1.66059 -1.7726,-0.55807 -3.5763,-1.00435 -5.391,-1.4004 -1.9473,-0.43371 -3.9207,-0.72108 -5.9062,-0.90139 -2.3415,-0.1611 -4.691,-0.13125 -7.0361,-0.0967 -2.4164,0.0324 -4.82664,0.20403 -7.22944,0.45245 -2.371,0.26743 -4.72549,0.65717 -7.07291,1.08038 -2.28878,0.40457 -4.54878,0.94616 -6.79706,1.53116 -2.29381,0.6066 -4.56572,1.29162 -6.83068,1.99724 -2.30914,0.71866 -4.59482,1.50945 -6.8732,2.31952 -2.39563,0.86088 -4.78269,1.74541 -7.16748,2.6358 -2.48666,0.93073 -4.96842,1.87442 -7.45825,2.79669 -2.6873,0.99438 -5.39668,1.92683 -8.1175,2.82483 -2.777,0.91038 -5.57416,1.75685 -8.38152,2.5681 -2.91957,0.84364 -5.88218,1.52249 -8.85788,2.13378 -3.00673,0.62569 -6.05228,1.01717 -9.10925,1.28719 -2.94291,0.24235 -5.89623,0.26331 -8.84588,0.17874 -2.89106,-0.0973 -5.76176,-0.46237 -8.61675,-0.90844 -2.74008,-0.43814 -5.44385,-1.06573 -8.1273,-1.76579 -2.59168,-0.69417 -5.14666,-1.51491 -7.68792,-2.37309 -2.51797,-0.85024 -4.99863,-1.804 -7.46629,-2.78921 -2.47665,-0.99394 -4.91602,-2.07659 -7.34044,-3.19086 -2.41952,-1.11579 -4.80085,-2.3111 -7.17772,-3.51424 -2.30524,-1.17377 -4.61241,-2.34381 -6.94577,-3.46083 -2.30978,-1.10496 -4.68437,-2.06429 -7.07273,-2.98378 -2.4414,-0.93744 -4.93268,-1.73308 -7.45319,-2.42683 -2.46076,-0.68386 -4.99191,-1.03286 -7.52263,-1.33161 -2.72886,-0.30981 -5.47107,-0.46376 -8.21483,-0.55524 -2.67889,-0.0907 -5.3579,0.008 -8.03205,0.16468 -2.61709,0.15864 -5.22113,0.46554 -7.81633,0.83123 -2.59037,0.37302 -5.15822,0.88062 -7.71835,1.41947 -2.56765,0.54013 -5.11439,1.17048 -7.65004,1.8434 -2.48826,0.66306 -4.95122,1.41424 -7.39747,2.21728 -2.38916,0.79161 -4.73554,1.70303 -7.06584,2.6519 -2.3865,0.98414 -4.73173,2.06406 -7.07223,3.15191 -2.46299,1.14994 -4.9207,2.31099 -7.38976,3.44789 -2.65074,1.21087 -5.32902,2.3601 -8.01109,3.49943 -2.73481,1.16641 -5.4989,2.26059 -8.27926,3.31304 -2.81032,1.05951 -5.65034,2.03665 -8.505,2.96912 -2.86679,0.92192 -5.76233,1.74981 -8.66396,2.55389 -2.86205,0.7953 -5.74795,1.49851 -8.6461,2.14835 -2.84685,0.62392 -5.71461,1.14478 -8.58707,1.63474 -2.83763,0.49239 -5.69503,0.85008 -8.56143,1.12189 -2.78748,0.25777 -5.58596,0.33392 -8.38379,0.34938 -2.65329,0.0131 -5.30391,-0.10885 -7.95103,-0.27705 -2.49756,-0.16476 -4.9887,-0.41061 -7.47731,-0.67551 -2.3855,-0.25566 -4.76452,-0.56611 -7.14038,-0.89849 -2.30287,-0.32364 -4.59753,-0.70131 -6.8883,-1.10074 -2.254,-0.39831 -4.49296,-0.87525 -6.7273,-1.37062 -2.15954,-0.47953 -4.3063,-1.01315 -6.44508,-1.57742 -2.05919,-0.54955 -4.10692,-1.14054 -6.14831,-1.75253 -1.96994,-0.5956 -3.92549,-1.23737 -5.87495,-1.89653 -1.89645,-0.64114 -3.77208,-1.34084 -5.63777,-2.06596 -1.75185,-0.68874 -3.48423,-1.42553 -5.21184,-2.17258 -1.61493,-0.69368 -3.20581,-1.44088 -4.79048,-2.20055 -1.48071,-0.71227 -2.93837,-1.47093 -4.3861,-2.24764 -1.37838,-0.73303 -2.71365,-1.54216 -4.03619,-2.37052 -0.57932,-0.36694 -1.15324,-0.74228 -1.7287,-1.11521 0,0 8.18569,-12.59785 8.18569,-12.59785 l 0,0 c 0.51311,0.33427 1.02472,0.67087 1.54094,1.00035 1.03255,0.65311 2.07257,1.29558 3.15048,1.87206 1.24546,0.67324 2.49948,1.33116 3.77332,1.94939 1.40615,0.67916 2.8172,1.34864 4.25046,1.96916 1.55437,0.67629 3.1128,1.34401 4.68865,1.96901 1.65493,0.64744 3.31906,1.27144 5.0017,1.84365 1.7842,0.60594 3.57367,1.19687 5.37644,1.74551 1.88172,0.56669 3.76909,1.11488 5.66728,1.62407 1.94662,0.51623 3.90075,1.00365 5.86636,1.44278 2.0125,0.44884 4.02897,0.88219 6.05917,1.24437 2.12552,0.37344 4.25469,0.72664 6.39151,1.02981 2.21327,0.3126 4.4295,0.60473 6.65183,0.84594 2.27884,0.24568 4.55994,0.47492 6.84704,0.62976 2.30574,0.1508 4.61458,0.26238 6.92601,0.25531 2.35803,-0.008 4.7168,-0.0635 7.06673,-0.27417 2.49534,-0.22857 4.982,-0.54007 7.45209,-0.96506 2.62004,-0.44381 5.23623,-0.91333 7.83311,-1.47915 2.65758,-0.59342 5.30388,-1.23593 7.9287,-1.96189 2.68489,-0.7422 5.3641,-1.50669 8.01673,-2.35824 2.63728,-0.86024 5.25992,-1.76481 7.85617,-2.74267 2.59463,-0.98154 5.17383,-2.00269 7.72547,-3.09177 2.54166,-1.08082 5.08022,-2.17001 7.58926,-3.32506 2.45627,-1.13742 4.90324,-2.29463 7.35688,-3.43768 2.55904,-1.18806 5.12298,-2.36795 7.7325,-3.44205 2.65171,-1.07807 5.32298,-2.11009 8.04215,-3.00728 2.71909,-0.8891 5.45566,-1.72429 8.22118,-2.45816 2.78536,-0.73625 5.58268,-1.42626 8.40284,-2.01758 2.8904,-0.60544 5.78968,-1.17484 8.71417,-1.59214 2.99592,-0.41638 6.00193,-0.76493 9.02271,-0.94173 3.12678,-0.17688 6.25914,-0.28334 9.39087,-0.17394 3.15976,0.10927 6.31739,0.2923 9.45974,0.65222 3.27634,0.39018 6.54877,0.86763 9.73305,1.75739 2.98464,0.82791 5.93891,1.7622 8.83152,2.87339 2.75419,1.05848 5.49173,2.1645 8.15552,3.43666 2.4329,1.16253 4.84141,2.37446 7.24421,3.59787 2.21325,1.11785 4.42952,2.23069 6.68122,3.26974 2.1935,1.00915 4.40145,1.98753 6.64182,2.88875 2.21843,0.88589 4.4479,1.74515 6.71179,2.50916 2.21303,0.74837 4.43736,1.46616 6.69344,2.07508 2.20191,0.57964 4.42093,1.09897 6.6695,1.46523 2.23667,0.35588 4.48544,0.65329 6.75095,0.74062 2.37167,0.0772 4.74654,0.0636 7.1138,-0.11953 2.48576,-0.20832 4.96168,-0.52342 7.40614,-1.02952 2.59134,-0.5288 5.17119,-1.11735 7.71337,-1.85044 2.62827,-0.75961 5.24635,-1.55433 7.84632,-2.40624 2.54882,-0.84208 5.0861,-1.71869 7.60176,-2.65576 2.47807,-0.92177 4.94711,-1.86743 7.42332,-2.79415 2.45633,-0.91895 4.91555,-1.83038 7.383,-2.7191 2.4659,-0.87972 4.93957,-1.73922 7.44013,-2.51616 2.49205,-0.77573 4.99241,-1.52643 7.51657,-2.19173 2.61649,-0.67813 5.24752,-1.30185 7.91074,-1.77053 2.71905,-0.48596 5.44668,-0.93074 8.19339,-1.23098 2.83428,-0.28587 5.67669,-0.48811 8.52629,-0.52407 2.8642,-0.0403 5.7335,-0.0712 8.5927,0.13393 2.5988,0.23428 5.1841,0.58998 7.7337,1.15516 2.219,0.48017 4.4264,1.01516 6.596,1.68817 1.8289,0.55662 3.6496,1.13889 5.465,1.73821 1.5875,0.51804 3.1766,1.03389 4.7887,1.4712 1.5389,0.42079 3.079,0.83877 4.6325,1.20277 1.3908,0.31932 2.7867,0.61482 4.1885,0.88152 1.07,0.20309 2.1417,0.41169 3.2283,0.50282 1.051,0.079 2.105,0.11516 3.159,0.0995 0.7825,-0.0146 1.5708,-0.0318 2.3417,-0.17919 0.8257,-0.17588 1.6319,-0.43176 2.4052,-0.77203 0.9537,-0.44382 1.8591,-0.9747 2.7029,-1.6056 1.0415,-0.76851 2.0497,-1.58278 2.9589,-2.50696 1.094,-1.10054 2.1566,-2.23334 3.1537,-3.42305 1.0226,-1.23623 2.0068,-2.50367 2.9159,-3.82645 0.9421,-1.38491 1.8475,-2.79507 2.6584,-4.26175 0.8154,-1.47754 1.5993,-2.97424 2.2618,-4.52783 0.6449,-1.54241 1.2351,-3.10948 1.6687,-4.72611 0.4392,-1.67411 0.8171,-3.36534 1.0088,-5.0881 0.2024,-1.8737 0.339,-3.75665 0.2976,-5.64276 -0.054,-2.16059 -0.2013,-4.31679 -0.3979,-6.46904 -0.2097,-2.29914 -0.4435,-4.59599 -0.7317,-6.88679 -0.2927,-2.34386 -0.6057,-4.68521 -0.9531,-7.02165 -0.3493,-2.2952 -0.7183,-4.58792 -1.1686,-6.86582 -0.4454,-2.24743 -0.9148,-4.49051 -1.4609,-6.71595 -0.554,-2.21451 -1.1494,-4.41816 -1.819,-6.60087 -0.6705,-2.22091 -1.3727,-4.43195 -2.0924,-6.63742 -0.7276,-2.23069 -1.4578,-4.46055 -2.1834,-6.69191 -0.7196,-2.2199 -1.4462,-4.43752 -2.183,-6.65178 -0.745,-2.2507 -1.4827,-4.50386 -2.2059,-6.76165 -0.7272,-2.27004 -1.4436,-4.54364 -2.1265,-6.82746 -0.6891,-2.30744 -1.3703,-4.61728 -2.0184,-6.93663 -0.6464,-2.32714 -1.2751,-4.65927 -1.8774,-6.99823 -0.6038,-2.36991 -1.1933,-4.74338 -1.7413,-7.12692 -0.5541,-2.40928 -1.0907,-4.82258 -1.5925,-7.24336 -0.5066,-2.43 -0.984,-4.86574 -1.4363,-7.30645 -0.4522,-2.43253 -0.897,-4.86645 -1.3182,-7.30458 -0.4258,-2.4521 -0.8408,-4.90606 -1.2439,-7.36199 -0.3997,-2.4299 -0.7907,-4.86122 -1.1803,-7.29277 -0.3833,-2.41747 -0.7657,-4.83507 -1.1424,-7.25359 -0.3803,-2.43325 -0.7545,-4.86744 -1.1344,-7.30075 -0.3767,-2.46495 -0.7577,-4.92927 -1.1192,-7.3965 -0.3629,-2.48307 -0.7283,-4.96581 -1.0704,-7.45185 -0.3439,-2.47997 -0.6807,-4.96095 -0.9991,-7.44433 -0.3079,-2.42972 -0.6086,-4.86034 -0.889,-7.29339 -0.2809,-2.40109 -0.5555,-4.80288 -0.8212,-7.20571 -0.2678,-2.3756 -0.5383,-4.75091 -0.8168,-7.12529 -0.277,-2.36031 -0.5549,-4.72059 -0.8632,-7.07707 -0.3054,-2.33714 -0.6271,-4.67219 -0.98,-7.00269 -0.3537,-2.34666 -0.7205,-4.69133 -1.1132,-7.03183 -0.3924,-2.35951 -0.7949,-4.7174 -1.2256,-7.07028 -0.4293,-2.35323 -0.8601,-4.70631 -1.3293,-7.05202 -0.4779,-2.37751 -0.9695,-4.7522 -1.4726,-7.12451 -0.5034,-2.37572 -1.0075,-4.75143 -1.5458,-7.11955 -0.5407,-2.37279 -1.0968,-4.74209 -1.6685,-7.1076 -0.5814,-2.37355 -1.1696,-4.74547 -1.7779,-7.11229 -0.6098,-2.36704 -1.2338,-4.73038 -1.8733,-7.08959 -0.642,-2.36562 -1.2924,-4.72895 -1.9585,-7.0879 -0.6652,-2.35312 -1.3383,-4.70406 -2.046,-7.04481 -0.7128,-2.33977 -1.442,-4.67454 -2.2012,-6.99972 -0.7639,-2.31407 -1.5441,-4.62277 -2.3693,-6.91579 -0.8211,-2.28394 -1.6646,-4.55985 -2.5524,-6.81881 -0.8943,-2.28551 -1.7971,-4.56775 -2.7255,-6.83962 -0.9101,-2.2201 -1.8283,-4.43714 -2.8061,-6.62848 -0.9597,-2.12986 -1.9459,-4.24827 -3.0095,-6.3286 -1.0339,-2.03071 -2.0863,-4.05282 -3.2229,-6.02839 -1.1287,-1.96031 -2.29118,-3.90103 -3.48699,-5.82121 -1.21003,-1.93026 -2.44399,-3.84538 -3.7015,-5.74508 -1.25859,-1.89533 -2.53172,-3.7811 -3.84131,-5.64168 -1.30971,-1.85915 -2.63519,-3.7072 -3.99191,-5.53243 -1.32605,-1.77823 -2.67056,-3.54296 -4.07269,-5.26224 -1.38554,-1.70061 -2.78769,-3.38793 -4.23835,-5.03366 -1.41676,-1.60175 -2.85211,-3.18751 -4.34796,-4.71624 -1.46259,-1.49385 -2.94854,-2.96504 -4.4881,-4.37997 -1.49623,-1.36918 -3.01452,-2.71525 -4.59667,-3.98511 -1.54708,-1.24038 -3.11851,-2.45045 -4.74583,-3.58453 -1.65323,-1.148 -3.32623,-2.26738 -5.03432,-3.33253 -1.67472,-1.04873 -3.36446,-2.07376 -5.0849,-3.04612 -1.69362,-0.9523 -3.40309,-1.87643 -5.13834,-2.751 -1.69719,-0.85499 -3.40569,-1.68915 -5.14555,-2.4544 -1.74036,-0.76346 -3.49585,-1.49193 -5.26814,-2.17831 -1.79378,-0.69695 -3.5947,-1.3755 -5.40918,-2.01693 -1.83872,-0.64355 -3.68128,-1.27673 -5.54113,-1.85707 -1.88398,-0.59829 -3.77033,-1.18989 -5.67029,-1.73578 -1.89945,-0.54491 -3.8045,-1.07008 -5.72441,-1.53881 -1.90072,-0.46726 -3.80724,-0.91262 -5.72988,-1.28147 -1.99486,-0.38342 -3.99213,-0.75447 -5.99583,-1.08923 -1.99393,-0.32192 -3.99139,-0.62335 -5.99805,-0.85564 -2.04306,-0.22923 -4.09042,-0.41807 -6.1422,-0.55066 -1.99973,-0.13323 -4.00203,-0.24139 -6.00686,-0.2453 -2.04364,0.006 -4.08663,0.0575 -6.12762,0.1654 -2.01145,0.10571 -4.02302,0.22619 -6.02686,0.43483 -2.01957,0.22562 -4.03468,0.48784 -6.04056,0.81522 -2.05616,0.33126 -4.10998,0.67797 -6.15427,1.07683 -2.06647,0.39941 -4.12781,0.82469 -6.18201,1.28332 -2.08704,0.46403 -4.17127,0.94128 -6.24561,1.45953 -2.09645,0.52741 -4.1906,1.06479 -6.27112,1.65249 -2.10655,0.59351 -4.20536,1.21393 -6.29374,1.86871 -2.10933,0.65889 -4.21593,1.32747 -6.30618,2.04502 -2.05419,0.71543 -4.09758,1.46136 -6.12502,2.24972 -1.9935,0.77608 -3.9791,1.57299 -5.93937,2.43018 -1.94218,0.85099 -3.87507,1.72348 -5.78053,2.65435 -1.87771,0.91965 -3.73914,1.8725 -5.5659,2.89027 -1.89678,1.05375 -3.78772,2.11839 -5.65488,3.22402 -1.89996,1.12719 -3.78629,2.27735 -5.6506,3.46274 -1.87304,1.19539 -3.738,2.40451 -5.54799,3.69431 -1.85487,1.32602 -3.69178,2.67829 -5.45805,4.12139 -1.85336,1.52429 -3.66592,3.09752 -5.41541,4.74061 -1.83525,1.72543 -3.63925,3.48442 -5.37427,5.31121 -1.80065,1.90004 -3.58001,3.82069 -5.28904,5.8041 -1.77915,2.06453 -3.52806,4.15527 -5.20979,6.30032 -1.73989,2.21779 -3.45488,4.45527 -5.09902,6.74539 -1.70303,2.37283 -3.38068,4.76413 -4.99965,7.19534 -1.63988,2.48725 -3.23842,5.00175 -4.74595,7.57194 -1.54423,2.62262 -3.07002,5.25726 -4.48046,7.95498 -1.44257,2.80251 -2.83439,5.631 -4.12631,8.50659 -1.35907,3.01008 -2.68588,6.03489 -3.9419,9.08963 -1.29804,3.16401 -2.56678,6.34012 -3.77171,9.54093 -1.24133,3.29347 -2.45831,6.59609 -3.62969,9.91517 -1.20015,3.41435 -2.39371,6.83111 -3.55078,10.26034 -1.17474,3.49277 -2.33324,6.99097 -3.46633,10.4975 -1.13675,3.5155 -2.26282,7.03447 -3.36341,10.56148 -1.08715,3.50148 -2.15806,7.00801 -3.19738,10.52402 -1.02362,3.47538 -2.02999,6.95591 -2.99986,10.44672 -0.96439,3.46502 -1.91001,6.93523 -2.82791,10.41288 -0.90637,3.46133 -1.8035,6.92516 -2.65722,10.39993 -0.84766,3.44801 -1.67713,6.90046 -2.47376,10.36066 -0.78588,3.43596 -1.55156,6.87656 -2.27731,10.32578 -0.72608,3.44233 -1.43837,6.88761 -2.11665,10.33972 -0.67619,3.45427 -1.33964,6.91108 -1.96339,10.37526 -0.62159,3.46899 -1.2284,6.94068 -1.80532,10.4174 -0.56315,3.41542 -1.11662,6.8327 -1.60257,10.26012 -0.48008,3.36901 -0.9353,6.74153 -1.36148,10.11781 -0.41515,3.31487 -0.81747,6.63139 -1.18067,9.95241 -0.35556,3.25177 -0.69587,6.50522 -1.01597,9.76069 -0.30945,3.20218 -0.60596,6.40563 -0.87853,9.61117 -0.27347,3.19591 -0.52965,6.39325 -0.80012,9.58941 -0.26755,3.16246 -0.54001,6.3245 -0.82234,9.48567 -0.27674,3.09046 -0.5567,6.18065 -0.85312,9.2693 -0.28578,2.97383 -0.57654,5.9472 -0.8864,8.91863 -0.29672,2.84347 -0.59882,5.6864 -0.92176,8.52702 -0.30701,2.69799 -0.62207,5.39509 -0.95903,8.08952 -0.32042,2.54674 -0.64736,5.0927 -0.99862,7.63541 -0.33334,2.40488 -0.67455,4.8087 -1.03974,7.20899 -0.34956,2.30086 -0.70825,4.60036 -1.08908,6.89627 -0.37874,2.25787 -0.77079,4.51378 -1.21502,6.75982 -0.42192,2.14647 -0.85461,4.29101 -1.34267,6.4236 -0.46248,2.01089 -0.95513,4.01474 -1.49535,6.00629 -0.49669,1.82759 -1.0078,3.65145 -1.56804,5.46075 -0.53404,1.71449 -1.08606,3.42383 -1.69977,5.11174 -0.60055,1.64766 -1.22273,3.28758 -1.90395,4.90387 -0.66664,1.58268 -1.3574,3.15535 -2.10881,4.69995 -0.75455,1.54534 -1.53223,3.08007 -2.39553,4.56821 -0.84407,1.44744 -1.72279,2.87463 -2.67107,4.25667 -0.92504,1.35001 -1.87849,2.6808 -2.89141,3.96672 -0.98367,1.23999 -1.99347,2.46003 -3.06947,3.62164 -0.99687,1.07511 -2.01205,2.13297 -3.06378,3.15482 -1.0126,0.98721 -2.03698,1.96222 -3.08149,2.91571 -1.06811,0.97246 -2.14758,1.93317 -3.27693,2.83466 -1.05374,0.83942 -2.1196,1.66448 -3.22573,2.43429 -1.01716,0.70462 -2.05018,1.3863 -3.11952,2.00985 -0.91209,0.53105 -1.83059,1.05161 -2.76706,1.53871 -0.80637,0.41672 -1.61812,0.82285 -2.43118,1.22635 -0.77099,0.38278 -1.53883,0.77198 -2.31456,1.14513 -0.7723,0.36913 -1.54843,0.73129 -2.34381,1.04855 -0.48369,0.19161 -0.97012,0.37599 -1.45634,0.56102 -0.58187,0.22037 -1.17126,0.42028 -1.77568,0.57003 0,0 -7.44895,-2.84162 -7.44895,-2.84162 z"
         id="path2816"
         style="fill:#000000;fill-opacity:1;stroke:none" />
      <path
         transform="matrix(0.99368672,-0.11219044,0.11219044,0.99368672,-21.049762,42.973359)"
         d="m 432.3453,417.48129 c 0,19.24727 -12.43717,34.85026 -27.7792,34.85026 -15.34203,0 -27.77919,-15.60299 -27.77919,-34.85026 0,-19.24727 12.43716,-34.85026 27.77919,-34.85026 15.34203,0 27.7792,15.60299 27.7792,34.85026 z"
         sodipodi:ry="34.850262"
         sodipodi:rx="27.779196"
         sodipodi:cy="417.48129"
         sodipodi:cx="404.5661"
         id="path2818"
         style="fill:#000000;fill-opacity:1;stroke:none"
         sodipodi:type="arc" />
      <path
         transform="translate(6.0609157,-22.223356)"
         d="m 521.23873,428.59299 c 0,10.87889 -9.04522,19.69797 -20.20305,19.69797 -11.15784,0 -20.20306,-8.81908 -20.20306,-19.69797 0,-10.87889 9.04522,-19.69798 20.20306,-19.69798 11.15783,0 20.20305,8.81909 20.20305,19.69798 z"
         sodipodi:ry="19.697975"
         sodipodi:rx="20.203051"
         sodipodi:cy="428.59299"
         sodipodi:cx="501.03568"
         id="path2820"
         style="fill:#000000;fill-opacity:1;stroke:none"
         sodipodi:type="arc" />
      <path
         inkscape:connector-curvature="0"
         d="m 521.08262,710.822 c 0.002,-0.27166 0.006,-0.54336 0.004,-0.81504 -0.006,-0.40355 -0.0117,-0.80712 -0.0169,-1.21068 -0.008,-0.54667 -0.0141,-1.09335 -0.0205,-1.64004 -0.007,-0.64063 -0.0135,-1.28128 -0.0206,-1.92192 -0.008,-0.69753 -0.0149,-1.39507 -0.021,-2.09262 -0.006,-0.77295 -0.0129,-1.5459 -0.0192,-2.31885 -0.007,-0.82439 -0.0132,-1.64879 -0.0197,-2.47319 -0.003,-0.83115 -0.0172,-1.66213 -0.0371,-2.49303 -0.023,-0.92498 -0.0458,-1.84997 -0.0672,-2.77499 -0.024,-1.00878 -0.0457,-2.0176 -0.0664,-3.02645 -0.0228,-1.06202 -0.0411,-2.12414 -0.0678,-3.18607 -0.0295,-1.0632 -0.0558,-2.1265 -0.0901,-3.18956 -0.033,-1.0602 -0.0753,-2.12003 -0.11974,-3.1798 -0.0462,-1.0601 -0.10405,-2.11961 -0.16331,-3.17904 -0.0609,-1.07537 -0.13671,-2.14976 -0.21605,-3.22389 -0.0851,-1.11207 -0.18133,-2.22325 -0.28258,-3.33396 -0.10194,-1.13465 -0.21466,-2.26826 -0.33279,-3.40133 -0.11892,-1.15096 -0.24316,-2.30137 -0.37292,-3.45115 -0.12999,-1.15201 -0.26388,-2.30357 -0.41158,-3.45345 -0.15255,-1.16576 -0.31857,-2.32968 -0.48443,-3.4936 -0.13991,-0.98948 -0.28602,-1.97807 -0.42972,-2.967 0,0 10.4829,-1.52447 10.4829,-1.52447 l 0,0 c 0.14536,0.99877 0.29322,1.99719 0.43469,2.99653 0.17297,1.2131 0.34517,2.42631 0.50533,3.64119 0.15392,1.20251 0.29667,2.40639 0.43212,3.61113 0.13345,1.17985 0.26151,2.36031 0.38374,3.54138 0.12296,1.17824 0.24097,2.35698 0.34739,3.53684 0.10695,1.16922 0.20897,2.33891 0.29988,3.5095 0.0857,1.1387 0.16706,2.27775 0.23221,3.41784 0.0625,1.10908 0.1233,2.21825 0.1719,3.32805 0.0461,1.09532 0.0894,2.19075 0.12382,3.28652 0.0345,1.08829 0.0629,2.17677 0.0928,3.26521 0.0263,1.0715 0.0459,2.14315 0.0716,3.21466 0.0237,0.99925 0.0478,1.99849 0.0737,2.99768 0.0246,0.92436 0.0497,1.8487 0.0755,2.77302 0.0231,0.88894 0.0396,1.778 0.0436,2.66726 0.008,0.82141 0.0159,1.64281 0.0242,2.46421 0.008,0.76808 0.0161,1.53617 0.0265,2.30422 0.009,0.69271 0.0172,1.38542 0.0264,2.07812 0.008,0.63259 0.0176,1.26516 0.0286,1.89771 0.009,0.5334 0.0189,1.06679 0.0305,1.60014 0.01,0.42085 0.0222,0.84164 0.0317,1.2625 0.005,0.31879 0.005,0.63761 0.008,0.95642 0,0 -10.69191,0 -10.69191,0 z"
         id="path2836"
         style="fill:#000000;fill-opacity:1;stroke:none" />
      <path
         inkscape:connector-curvature="0"
         d="m 313.6352,544.32414 c 0.0197,-0.12636 -0.042,-0.52784 0.01,-0.22461 0.0558,0.32292 0.10973,0.6463 0.17366,0.96774 0.0779,0.40261 0.16607,0.80309 0.2615,1.20187 0.12416,0.48741 0.24828,0.9748 0.37672,1.4611 0.14103,0.54812 0.29617,1.09247 0.45329,1.63614 0.19259,0.65623 0.38668,1.31203 0.58955,1.96515 0.24307,0.77782 0.48695,1.55536 0.73046,2.33303 0.27381,0.86114 0.55185,1.7209 0.83256,2.5798 0.30433,0.93578 0.605,1.87284 0.91986,2.80515 0.28076,0.84027 0.59534,1.66832 0.93088,2.48806 0.38926,0.94772 0.79409,1.88896 1.20757,2.82633 0.4399,0.97326 0.88837,1.94267 1.34213,2.90953 0.50203,1.07093 1.00396,2.14186 1.49698,3.21698 0.51347,1.11456 1.01305,2.23542 1.5243,3.35099 0.54283,1.18533 1.07823,2.37401 1.61308,3.56294 0.53465,1.20526 1.07679,2.40722 1.63071,3.60374 0.52335,1.12955 1.07884,2.24357 1.6512,3.34894 0.45453,0.89814 0.95969,1.7678 1.53576,2.59313 0.38054,0.5525 0.84002,1.03976 1.31467,1.51078 0.53975,0.52355 1.11694,1.00665 1.69735,1.48407 0.42899,0.32855 0.83676,0.70289 1.31848,0.95535 0.32713,0.18247 0.67007,0.33058 1.02243,0.45615 0.10276,0.0694 0.37481,0.0897 0.41869,0.0877 -0.0267,-0.0496 2.5e-4,4.1e-4 -0.0307,-0.05 -0.057,0.0119 -0.11628,-0.009 -0.17388,-0.0175 0.10824,-0.0742 0.0444,-0.0451 0.10095,-0.11809 0.23645,-0.23136 0.45095,-0.48324 0.65801,-0.7408 0.25429,-0.32702 0.47065,-0.6805 0.68287,-1.03552 0.29541,-0.50337 0.55142,-1.02805 0.8018,-1.55478 0.28341,-0.58963 0.53285,-1.19406 0.75988,-1.80733 0.256,-0.69583 0.47207,-1.40529 0.67252,-2.11881 0.22632,-0.81623 0.39904,-1.6455 0.56981,-2.47467 0.20708,-1.01616 0.40206,-2.03472 0.59238,-3.05413 0.18904,-1.05042 0.36187,-2.10366 0.53312,-3.1571 0.1814,-1.1169 0.35398,-2.23518 0.52214,-3.35414 0.17645,-1.17906 0.34169,-2.35976 0.50475,-3.54074 0.1694,-1.23009 0.32976,-2.46139 0.488,-3.69295 0.16231,-1.26557 0.31803,-2.53197 0.47119,-3.79868 0.1566,-1.2588 0.28136,-2.52115 0.40241,-3.78376 0.11803,-1.28006 0.21992,-2.56149 0.30559,-3.84411 0.0888,-1.32864 0.15861,-2.65846 0.21746,-3.98873 0.0614,-1.36221 0.10661,-2.72501 0.14734,-4.08796 0.0429,-1.375 0.0665,-2.75049 0.0829,-4.12602 0.0199,-1.39803 0.0201,-2.7962 0.0215,-4.19434 -0.004,-1.39208 -0.0164,-2.7841 -0.0367,-4.17604 -0.004,-0.23768 -0.007,-0.47537 -0.0112,-0.71306 0,0 15.00582,-0.23866 15.00582,-0.23866 l 0,0 c 0.004,0.24296 0.008,0.48592 0.0118,0.72888 0.0221,1.47024 0.0359,2.94059 0.0393,4.411 -8.8e-4,1.45396 -0.002,2.90795 -0.0218,4.36181 -0.0175,1.46384 -0.0428,2.92763 -0.0872,4.39094 -0.0422,1.43781 -0.0894,2.87546 -0.154,4.31248 -0.0648,1.44186 -0.1386,2.88336 -0.23359,4.32359 -0.0957,1.42421 -0.20557,2.84741 -0.33748,4.26877 -0.13179,1.38354 -0.26831,2.76671 -0.43853,4.14616 -0.15583,1.30623 -0.31631,2.61191 -0.48248,3.91686 -0.16328,1.27818 -0.32904,2.55604 -0.50245,3.83288 -0.16976,1.23722 -0.3416,2.47418 -0.52393,3.70962 -0.17506,1.18183 -0.35568,2.36284 -0.54644,3.54225 -0.18878,1.16794 -0.37954,2.33565 -0.58933,3.50004 -0.20574,1.11124 -0.41651,2.22155 -0.64128,3.32912 -0.24204,1.18355 -0.49425,2.36564 -0.81826,3.53003 -0.31307,1.11068 -0.64894,2.21531 -1.04934,3.29812 -0.38347,1.02579 -0.79657,2.0401 -1.27017,3.02809 -0.46169,0.96808 -0.94313,1.92764 -1.49333,2.84914 -0.59103,0.97843 -1.21473,1.9388 -1.93895,2.82538 -0.72526,0.87759 -1.48495,1.72845 -2.33727,2.48611 -1.02291,0.88573 -2.10979,1.69554 -3.32769,2.29745 -1.29802,0.63368 -2.64587,1.16558 -4.07894,1.40249 -1.41676,0.21875 -2.84872,0.32132 -4.2783,0.14676 -1.3629,-0.18372 -2.70684,-0.47458 -3.99057,-0.98008 -1.19666,-0.46644 -2.36894,-0.99565 -3.46906,-1.66299 -1.07936,-0.67117 -2.1166,-1.40444 -3.087,-2.2272 -0.96334,-0.80063 -1.91509,-1.6176 -2.79936,-2.50608 -1.10792,-1.13112 -2.15514,-2.3219 -3.04163,-3.63772 -0.89555,-1.33397 -1.7231,-2.71071 -2.44737,-4.14608 -0.67149,-1.30031 -1.32441,-2.61017 -1.93952,-3.93825 -0.57467,-1.24178 -1.1391,-2.48828 -1.69621,-3.73804 -0.523,-1.15757 -1.04693,-2.31471 -1.5777,-3.46874 -0.51103,-1.11222 -1.01168,-2.22918 -1.52597,-3.33992 -0.47831,-1.03784 -0.96494,-2.07176 -1.45082,-3.10607 -0.5029,-1.07134 -1.00247,-2.14435 -1.48833,-3.22354 -0.47005,-1.06363 -0.93051,-2.13158 -1.37396,-3.2066 -0.45407,-1.11092 -0.88353,-2.23168 -1.26473,-3.36996 -0.32806,-0.97228 -0.64487,-1.94829 -0.96394,-2.92355 -0.30081,-0.91248 -0.60073,-1.82524 -0.89546,-2.7397 -0.2516,-0.79094 -0.50302,-1.58194 -0.75323,-2.37332 -0.23345,-0.74421 -0.45887,-1.49088 -0.68227,-2.23816 -0.19376,-0.66026 -0.38756,-1.32067 -0.56035,-1.98681 -0.16037,-0.60188 -0.31603,-1.20499 -0.46977,-1.8086 -0.1383,-0.57541 -0.26932,-1.15257 -0.3876,-1.73246 -0.0928,-0.45633 -0.17871,-0.91403 -0.2606,-1.37243 -0.12239,-0.69926 -0.22348,-1.40444 -0.22621,-2.11597 0,0 15.11164,-0.24774 15.11164,-0.24774 z"
         id="path2822"
         style="fill:#000000;fill-opacity:1;stroke:none" />
      <g
         transform="matrix(0.61268752,0,0,0.61268752,253.61983,307.1775)"
         id="g2979">
        <path
           inkscape:connector-curvature="0"
           id="path2961"
           d="m -515.80617,668.12304 c -17.24644,-1.70899 -33.51501,-5.32264 -46.71219,-10.3759 l -2.07053,-0.79282 4.28417,-3.54174 c 20.13549,-16.64607 28.10063,-35.74061 34.49108,-82.68412 1.78923,-13.14345 3.37395,-28.55495 6.34987,-61.75289 4.47449,-49.91527 13.54441,-94.69081 29.38352,-145.058 13.3416,-42.42525 23.51093,-66.20546 36.57623,-85.53066 24.51119,-36.25512 52.72099,-55.40415 98.25838,-66.69853 15.41698,-3.82379 25.26952,-5.2207 36.82203,-5.2207 25.68751,0 56.71815,9.208 78.22841,23.21342 17.19023,11.19264 37.69285,35.9994 49.62792,60.04638 14.77016,29.75899 28.16691,79.20011 33.73153,124.48657 4.05537,33.00315 8.6037,63.51434 12.60515,84.55643 2.8431,14.95084 7.1935,31.03069 14.07937,52.03915 7.06613,21.55868 9.21918,29.84947 11.00001,42.3579 1.86917,13.12976 1.80088,22.8922 -0.20413,29.18765 -1.80935,5.68105 -5.91275,12.42032 -10.66077,17.50888 -8.23635,8.82709 -11.46095,9.11105 -33.21336,2.92476 -14.78277,-4.20415 -21.0046,-5.08785 -31.52757,-4.47785 -15.24652,0.8838 -24.38942,3.11534 -48.77187,11.90393 -22.13071,7.97696 -29.97915,9.86803 -40.95228,9.86742 -13.33597,-7.3e-4 -22.71719,-2.77235 -45.01059,-13.29795 -11.22398,-5.29929 -20.7705,-8.96256 -26.8849,-10.31652 -7.02966,-1.55664 -18.76521,-2.11458 -28.42779,-1.35152 -17.97724,1.41963 -33.01034,5.53648 -53.20644,14.5707 -16.92137,7.56934 -26.67523,11.20065 -37.96938,14.13577 -15.95239,4.14572 -28.12325,5.45988 -39.82587,4.30024 z"
           style="fill:#ff2a2a;fill-opacity:1;stroke:none" />
        <path
           inkscape:connector-curvature="0"
           id="path2963"
           d="m -205.24521,641.73641 -2.48492,-2.49595 -2.116,-27.86505 c -1.1638,-15.32577 -2.08324,-27.8978 -2.0432,-27.93784 0.0932,-0.0932 20.72534,-4.6047 20.78217,-4.54434 0.10176,0.10809 20.0404,63.30352 20.0404,63.51797 0,0.42931 -1.31468,0.59245 -6.69226,0.83046 -2.91681,0.1291 -6.49654,0.35389 -7.95495,0.49954 -1.45841,0.14564 -5.89045,0.31574 -9.84899,0.37798 l -7.19733,0.11318 -2.48492,-2.49595 0,0 z"
           style="fill:#ff5555;fill-opacity:1;stroke:none" />
        <path
           inkscape:connector-curvature="0"
           id="path2965"
           d="m -344.98762,645.6996 c -0.34724,-0.0563 -0.85863,-0.19835 -1.13642,-0.31564 -1.02814,-0.43408 -2.58843,-0.757 -4.9245,-1.01917 -1.31951,-0.14808 -2.96732,-0.38755 -3.6618,-0.53216 -0.69448,-0.14461 -3.08097,-0.36221 -5.3033,-0.48356 -2.22234,-0.12135 -4.61321,-0.29064 -5.31305,-0.3762 l -1.27245,-0.15557 -0.306,-2.57701 c -0.4908,-4.13333 -0.40429,-8.65152 0.19924,-10.4057 0.43239,-1.25677 0.50507,-2.12573 0.50507,-6.03839 l 0,-4.57036 6.8212,-1.74299 c 3.75165,-0.95864 6.8768,-1.68737 6.94477,-1.6194 0.23941,0.23941 11.99292,28.56991 11.99292,28.90758 0,0.18817 -0.15747,0.34212 -0.34994,0.34212 -0.19246,0 -0.67544,0.16976 -1.07328,0.37725 -0.69068,0.36021 -1.75253,0.43135 -3.12246,0.2092 z"
           style="fill:#ff5555;fill-opacity:1;stroke:none" />
        <path
           inkscape:connector-curvature="0"
           d="m -372.9805,640.5132 c 0.0527,-0.21983 0.11305,-0.43766 0.17455,-0.65516 0.0641,-0.22788 0.13857,-0.45263 0.20381,-0.68017 0.0408,-0.14375 0.0782,-0.28836 0.10831,-0.43471 0.0404,-0.18304 0.067,-0.36864 0.0951,-0.55386 0.0268,-0.20711 0.049,-0.41465 0.0665,-0.62273 0.0235,-0.31065 0.0498,-0.62121 0.0659,-0.93235 0.0178,-0.33988 0.0308,-0.67993 0.0381,-1.02018 0.008,-0.41926 0.0141,-0.83856 0.0207,-1.25785 0.007,-0.47381 0.0134,-0.94764 0.0195,-1.42147 0.009,-0.48317 0.0102,-0.96635 0.009,-1.44958 -0.002,-0.54396 -0.005,-1.0879 -0.008,-1.63185 -0.002,-0.57111 -0.003,-1.14217 -0.0124,-1.71321 -0.0116,-0.60255 -0.0187,-1.20521 -0.0344,-1.80767 -0.0133,-0.59444 -0.0392,-1.1884 -0.0705,-1.78212 -0.0321,-0.6462 -0.0761,-1.2917 -0.11787,-1.93733 -0.0465,-0.65544 -0.0966,-1.31059 -0.15195,-1.96535 -0.0365,-0.45132 -0.0779,-0.9022 -0.12022,-1.35301 0,0 10.59645,-0.99871 10.59645,-0.99871 l 0,0 c 0.0457,0.48393 0.09,0.96799 0.13013,1.45244 0.0614,0.72209 0.11739,1.44464 0.16868,2.16753 0.0459,0.68919 0.0933,1.37831 0.1283,2.06816 0.0371,0.6914 0.0686,1.38308 0.0848,2.07533 0.0161,0.63569 0.0265,1.2715 0.039,1.90728 0.0102,0.6083 0.014,1.21665 0.0179,1.82503 0.004,0.54945 0.008,1.09889 0.0111,1.64833 0.003,0.53984 0.002,1.07964 -0.006,1.61944 -0.005,0.47963 -0.0102,0.95925 -0.0156,1.43887 -0.005,0.44614 -0.0105,0.89229 -0.0181,1.33839 -0.009,0.45945 -0.0256,0.9187 -0.0479,1.37771 -0.023,0.41328 -0.0513,0.82626 -0.0834,1.23893 -0.0365,0.43977 -0.0816,0.87885 -0.14402,1.31577 -0.0598,0.40281 -0.12397,0.80508 -0.20973,1.20331 -0.0813,0.37898 -0.17184,0.75589 -0.27729,1.12895 -0.0585,0.20659 -0.12017,0.41226 -0.18069,0.61824 -0.0466,0.16887 -0.0699,0.25396 -0.1203,0.43425 0,0 -10.35947,-2.64065 -10.35947,-2.64065 z"
           id="path2967"
           style="fill:#000000;fill-opacity:1;stroke:none" />
        <path
           inkscape:connector-curvature="0"
           sodipodi:nodetypes="cssssssssssssssssssssssssssssssscssscssscscsscsscssccccssssscssssssscsssssscsccccsssccssscssscsssssscsscscsccssscsssssssscsssscssssssscssssssccscscccccsccccccccscsccccscccscsscscccccscscssccsccsscccccccscccscsscsccscsssscccsssscsccscsscscccscccccccssccsccsscscscccccscsscsccccccccscsssccscccsccccsscsccsssssscssssssscsssscsssssssscsssccssscsscssssssssssssssccsssccscscsssssscssssssscsssssccccssccsccscscssccscscssssssssssssssssssssssssssssssscc"
           d="m -581.38199,659.09287 c 0.0483,-0.0194 3.84046,-11.85056 3.94037,-11.88706 0.41031,-0.15228 0.8219,-0.30111 1.23041,-0.45819 0.47357,-0.18352 0.93421,-0.39766 1.3937,-0.61341 0.69883,-0.33268 1.38943,-0.6822 2.08307,-1.02549 0.73596,-0.36585 1.47401,-0.72777 2.20395,-1.10557 0.71656,-0.37323 1.42126,-0.76876 2.12008,-1.17408 0.73226,-0.42396 1.43803,-0.89002 2.13461,-1.36962 0.8311,-0.57515 1.63073,-1.19357 2.42217,-1.82162 0.87097,-0.69396 1.70117,-1.43619 2.52518,-2.1846 0.91628,-0.83505 1.81448,-1.68942 2.70179,-2.5551 0.87045,-0.84641 1.71184,-1.72141 2.53701,-2.61177 0.81436,-0.87948 1.57901,-1.80289 2.32378,-2.74147 0.79488,-1.00896 1.54375,-2.05274 2.26842,-3.11289 0.74131,-1.08131 1.42995,-2.1968 2.08845,-3.33003 0.68029,-1.17286 1.2901,-2.38402 1.88518,-3.60166 0.62968,-1.29574 1.20858,-2.61491 1.76859,-3.94194 0.5858,-1.38789 1.12174,-2.79585 1.63729,-4.21109 0.53555,-1.46991 1.01464,-2.95947 1.48338,-4.45175 0.51029,-1.63381 0.97593,-3.28097 1.42885,-4.93143 0.49275,-1.79958 0.9454,-3.60964 1.36682,-5.42714 0.45636,-1.97736 0.86048,-3.96612 1.25596,-5.95637 0.42045,-2.10591 0.79,-4.22153 1.14679,-6.33901 0.37029,-2.22227 0.71949,-4.44797 1.06162,-6.67473 0.35836,-2.33602 0.69509,-4.67526 1.02376,-7.01562 0.34775,-2.47989 0.67133,-4.96305 0.9881,-7.44705 0.33565,-2.63618 0.64808,-5.27522 0.95388,-7.915 0.32241,-2.79267 0.62434,-5.58763 0.9201,-8.38323 0.30962,-2.9305 0.60128,-5.86284 0.88702,-8.79575 0.2969,-3.05498 0.5783,-6.11142 0.85441,-9.16834 0.28288,-3.13673 0.55388,-6.27451 0.82177,-9.41255 0.27245,-3.19974 0.53009,-6.40071 0.80498,-9.60024 0.2783,-3.25947 0.58099,-6.5168 0.89674,-9.77284 0.32756,-3.31798 0.67863,-6.63358 1.04321,-9.94768 0.3749,-3.39779 0.78751,-6.79123 1.21476,-10.18278 0.43835,-3.45827 0.90769,-6.9125 1.4008,-10.36335 0.50392,-3.53382 1.07689,-7.05722 1.65895,-10.57886 0.58964,-3.54328 1.2081,-7.08171 1.84193,-10.61733 0.63746,-3.54178 1.31492,-7.07615 2.00634,-10.60773 0.69097,-3.52241 1.41867,-7.03744 2.15898,-10.54977 0.74337,-3.53221 1.52878,-7.05534 2.33465,-10.57376 0.81408,-3.53814 1.66353,-7.06794 2.53128,-10.59326 0.87338,-3.54662 1.78739,-7.083 2.71407,-10.61601 0.93706,-3.5506 1.90366,-7.09327 2.8894,-10.63064 0.99012,-3.56265 2.01756,-7.11481 3.06454,-10.66112 1.06044,-3.58408 2.15378,-7.15829 3.2633,-10.72744 1.11736,-3.58076 2.26118,-7.15318 3.41462,-10.72246 1.15116,-3.56038 2.32627,-7.11293 3.51726,-10.66016 1.17521,-3.49287 2.38885,-6.97262 3.60804,-10.45033 1.20522,-3.42444 2.45825,-6.83165 3.73581,-10.22967 1.25201,-3.33493 2.57046,-6.64423 3.91934,-9.94099 1.31637,-3.21454 2.70891,-6.39696 4.13396,-9.56457 1.39146,-3.1079 2.89203,-6.16459 4.44549,-9.19417 1.53537,-2.95065 3.19645,-5.83282 4.8806,-8.70026 1.63159,-2.78779 3.36262,-5.51481 5.13679,-8.21344 1.7241,-2.59702 3.5109,-5.15152 5.32518,-7.68609 1.76447,-2.46497 3.60554,-4.87323 5.47402,-7.25982 1.8179,-2.32504 3.70966,-4.59049 5.63162,-6.82976 1.86053,-2.16621 3.79736,-4.26462 5.75951,-6.33858 1.92679,-2.03607 3.93306,-3.99419 5.97164,-5.91754 1.98255,-1.87077 4.04052,-3.65821 6.14016,-5.39566 2.02503,-1.66284 4.13021,-3.22325 6.25838,-4.75046 2.0221,-1.44702 4.10474,-2.80565 6.19905,-4.14493 1.99887,-1.2747 4.02252,-2.50984 6.05996,-3.72172 1.99021,-1.1799 4.00444,-2.31856 6.02672,-3.44238 2.04994,-1.14368 4.13934,-2.21346 6.24664,-3.24679 2.09709,-1.02403 4.22337,-1.98598 6.36087,-2.92208 2.14978,-0.93995 4.32716,-1.81433 6.51326,-2.66567 2.19543,-0.85358 4.40878,-1.65937 6.6332,-2.43387 2.24002,-0.76897 4.4975,-1.48557 6.75729,-2.19386 2.22265,-0.69855 4.45665,-1.35988 6.6988,-1.99278 2.21641,-0.62664 4.44676,-1.20199 6.68028,-1.76396 2.20481,-0.55321 4.42072,-1.06063 6.63904,-1.55637 2.19033,-0.49061 4.38867,-0.94392 6.59215,-1.37122 2.19736,-0.42984 4.40518,-0.80241 6.61539,-1.15914 2.24417,-0.36626 4.49852,-0.66118 6.75796,-0.9142 2.29504,-0.24444 4.59939,-0.38336 6.90366,-0.50442 2.2855,-0.12181 4.57326,-0.17882 6.86178,-0.18682 2.35101,10e-4 4.69923,0.12483 7.04436,0.27968 2.27457,0.14573 4.54397,0.35605 6.8091,0.60719 2.24713,0.25728 4.48399,0.5924 6.71688,0.95073 2.15206,0.35669 4.29716,0.75316 6.43944,1.16403 2.17237,0.4146 4.32639,0.91654 6.47399,1.44272 2.10596,0.51502 4.19675,1.08793 6.28078,1.68473 2.03403,0.58386 4.05404,1.21477 6.07131,1.85367 1.99907,0.62331 3.97964,1.30324 5.95632,1.99362 1.97437,0.69662 3.93367,1.43451 5.88556,2.19152 1.97193,0.76157 3.92273,1.57577 5.8589,2.42369 1.98412,0.87131 3.93153,1.82299 5.86677,2.79712 1.93812,0.9763 3.8465,2.0096 5.73831,3.07239 1.92641,1.08824 3.81672,2.23828 5.69171,3.41236 1.90734,1.19028 3.77514,2.44166 5.6222,3.72297 1.9097,1.32922 3.75348,2.7482 5.56878,4.20259 1.83646,1.47336 3.59924,3.0347 5.33582,4.62354 1.74136,1.59955 3.42157,3.26326 5.07542,4.95255 1.67202,1.70901 3.27665,3.48158 4.86025,5.27223 1.58381,1.79698 3.11504,3.63903 4.6278,5.49589 1.53706,1.88533 3.0106,3.8208 4.46406,5.77088 1.4369,1.93242 2.841,3.88885 4.2277,5.85747 1.3886,1.97254 2.7387,3.97172 4.0729,5.98132 1.3299,2.00695 2.633,4.03137 3.9125,6.07075 1.2964,2.07959 2.5532,4.18347 3.7752,6.30759 1.2638,2.19787 2.4349,4.4469 3.5841,6.70618 1.1695,2.29158 2.2558,4.62395 3.3118,6.96956 1.0474,2.34683 2.0321,4.72077 3.0061,7.09876 0.9579,2.34564 1.8911,4.70124 2.8139,7.06083 0.9385,2.38644 1.8284,4.79146 2.6966,7.2042 0.8693,2.41633 1.6917,4.84897 2.497,7.28722 0.7954,2.43518 1.5598,4.88027 2.3059,7.33095 0.737,2.4354 1.4388,4.88114 2.1318,7.32935 0.6818,2.41051 1.3467,4.82574 2.002,7.24358 0.6555,2.41916 1.2961,4.84226 1.9223,7.26917 0.6234,2.4252 1.2251,4.85587 1.8207,7.288 0.592,2.44225 1.165,4.88905 1.7242,7.339 0.5555,2.44213 1.0759,4.89207 1.5956,7.34201 0.5144,2.42273 1.0171,4.84787 1.5059,7.27586 0.4873,2.43305 0.9348,4.87376 1.3808,7.31464 0.4438,2.42948 0.8606,4.86377 1.2664,7.29984 0.4061,2.41495 0.7852,4.83421 1.1508,7.25557 0.3672,2.42746 0.7023,4.8596 1.0207,7.29389 0.3157,2.42105 0.6024,4.84572 0.8875,7.27051 0.2818,2.39705 0.5542,4.79518 0.8249,7.1935 0.2638,2.38242 0.5344,4.76405 0.813,7.14479 0.2751,2.38746 0.5689,4.77265 0.8693,7.15703 0.3087,2.42453 0.6359,4.84665 0.9711,7.26763 0.3369,2.44924 0.6968,4.8952 1.0545,7.34144 0.357,2.43462 0.7347,4.86613 1.1071,7.29841 0.3787,2.41694 0.7503,4.83499 1.1284,7.25201 0.3754,2.40735 0.7565,4.81381 1.1386,7.22011 0.3848,2.40412 0.77,4.80818 1.1648,7.21069 0.3941,2.41056 0.8012,4.81897 1.2208,7.22522 0.4126,2.381 0.8471,4.75807 1.2892,7.13374 0.4339,2.33436 0.8902,4.66428 1.3752,6.98855 0.4815,2.31956 0.9946,4.63233 1.5271,6.94067 0.5236,2.27071 1.0877,4.53155 1.6637,6.78944 0.5778,2.23704 1.1799,4.46779 1.7971,6.69429 0.6207,2.22484 1.277,4.43946 1.9391,6.65226 0.6576,2.19024 1.3432,4.37193 2.0406,6.54981 0.7091,2.21204 1.4307,4.42006 2.1603,6.62541 0.7461,2.24251 1.4825,4.48824 2.2118,6.73628 0.7247,2.22404 1.4515,4.44738 2.1757,6.67155 0.753,2.30951 1.4854,4.62556 2.187,6.95122 0.7381,2.40937 1.3934,4.84217 2.0063,7.28601 0.6074,2.46575 1.1285,4.95135 1.6217,7.44207 0.4931,2.4949 0.8994,5.00572 1.2821,7.51956 0.3677,2.46681 0.6988,4.93886 1.009,7.41349 0.3105,2.45286 0.5623,4.91234 0.7899,7.37409 0.2326,2.46915 0.3906,4.94386 0.4635,7.4227 0.069,2.54121 -0.103,5.07862 -0.3604,7.60492 -0.2608,2.46449 -0.7809,4.88725 -1.3962,7.28427 -0.5992,2.29277 -1.4219,4.51583 -2.3236,6.70428 -0.8652,2.06245 -1.8938,4.04926 -2.9682,6.00884 -1.0311,1.87479 -2.181,3.67909 -3.3786,5.45082 -1.1665,1.71251 -2.4344,3.35116 -3.7494,4.95125 -1.2818,1.54257 -2.652,3.0081 -4.0595,4.43579 -1.4287,1.46056 -3.006,2.75862 -4.6364,3.98507 -1.6068,1.21636 -3.3478,2.22344 -5.1541,3.10854 -1.755,0.83959 -3.6101,1.42191 -5.4962,1.87906 -1.7785,0.41381 -3.6018,0.52949 -5.421,0.57647 -1.5362,0.0322 -3.0716,-0.028 -4.6035,-0.13824 -1.6646,-0.12677 -3.3079,-0.42577 -4.9453,-0.73959 -1.5934,-0.30732 -3.179,-0.65209 -4.7591,-1.02105 -1.7472,-0.41571 -3.4807,-0.88602 -5.212,-1.36268 -1.8432,-0.50288 -3.6608,-1.09232 -5.476,-1.68654 -1.7244,-0.57021 -3.4531,-1.12688 -5.1892,-1.66059 -1.7726,-0.55807 -3.5763,-1.00435 -5.391,-1.4004 -1.9473,-0.43371 -3.9207,-0.72108 -5.9062,-0.90139 -2.3415,-0.1611 -4.691,-0.13125 -7.0361,-0.0967 -2.4164,0.0324 -4.82664,0.20403 -7.22944,0.45245 -2.371,0.26743 -4.72549,0.65717 -7.07291,1.08038 -2.28878,0.40457 -4.54878,0.94616 -6.79706,1.53116 -2.29381,0.6066 -4.56572,1.29162 -6.83068,1.99724 -2.30914,0.71866 -4.59482,1.50945 -6.8732,2.31952 -2.39563,0.86088 -4.78269,1.74541 -7.16748,2.6358 -2.48666,0.93073 -4.96842,1.87442 -7.45825,2.79669 -2.6873,0.99438 -5.39668,1.92683 -8.1175,2.82483 -2.777,0.91038 -5.57416,1.75685 -8.38152,2.5681 -2.91957,0.84364 -5.88218,1.52249 -8.85788,2.13378 -3.00673,0.62569 -6.05228,1.01717 -9.10925,1.28719 -2.94291,0.24235 -5.89623,0.26331 -8.84588,0.17874 -2.89106,-0.0973 -5.76176,-0.46237 -8.61675,-0.90844 -2.74008,-0.43814 -5.44385,-1.06573 -8.1273,-1.76579 -2.59168,-0.69417 -5.14666,-1.51491 -7.68792,-2.37309 -2.51797,-0.85024 -4.99863,-1.804 -7.46629,-2.78921 -2.47665,-0.99394 -4.91602,-2.07659 -7.34044,-3.19086 -2.41952,-1.11579 -4.80085,-2.3111 -7.17772,-3.51424 -2.30524,-1.17377 -4.61241,-2.34381 -6.94577,-3.46083 -2.30978,-1.10496 -4.68437,-2.06429 -7.07273,-2.98378 -2.4414,-0.93744 -4.93268,-1.73308 -7.45319,-2.42683 -2.46076,-0.68386 -4.99191,-1.03286 -7.52263,-1.33161 -2.72886,-0.30981 -5.47107,-0.46376 -8.21483,-0.55524 -2.67889,-0.0907 -5.3579,0.008 -8.03205,0.16468 -2.61709,0.15864 -5.22113,0.46554 -7.81633,0.83123 -2.59037,0.37302 -5.15822,0.88062 -7.71835,1.41947 -2.56765,0.54013 -5.11439,1.17048 -7.65004,1.8434 -2.48826,0.66306 -4.95122,1.41424 -7.39747,2.21728 -2.38916,0.79161 -4.73554,1.70303 -7.06584,2.6519 -2.3865,0.98414 -4.73173,2.06406 -7.07223,3.15191 -2.46299,1.14994 -4.9207,2.31099 -7.38976,3.44789 -2.65074,1.21087 -5.32902,2.3601 -8.01109,3.49943 -2.73481,1.16641 -5.4989,2.26059 -8.27926,3.31304 -2.81032,1.05951 -5.65034,2.03665 -8.505,2.96912 -2.86679,0.92192 -5.76233,1.74981 -8.66396,2.55389 -2.86205,0.7953 -5.74795,1.49851 -8.6461,2.14835 -2.84685,0.62392 -5.71461,1.14478 -8.58707,1.63474 -2.83763,0.49239 -5.69503,0.85008 -8.56143,1.12189 -2.78748,0.25777 -5.58596,0.33392 -8.38379,0.34938 -2.65329,0.0131 -5.30391,-0.10885 -7.95103,-0.27705 -2.49756,-0.16476 -4.9887,-0.41061 -7.47731,-0.67551 -2.3855,-0.25566 -4.76452,-0.56611 -7.14038,-0.89849 -2.30287,-0.32364 -4.59753,-0.70131 -6.8883,-1.10074 -2.254,-0.39831 -4.49296,-0.87525 -6.7273,-1.37062 -2.15954,-0.47953 -4.3063,-1.01315 -6.44508,-1.57742 -2.05919,-0.54955 -4.10692,-1.14054 -6.14831,-1.75253 -1.96994,-0.5956 -3.92549,-1.23737 -5.87495,-1.89653 -1.89645,-0.64114 -3.77208,-1.34084 -5.63777,-2.06596 -1.75185,-0.68874 -3.48423,-1.42553 -5.21184,-2.17258 -1.61493,-0.69368 -3.20581,-1.44088 -4.79048,-2.20055 -1.48071,-0.71227 -2.93837,-1.47093 -4.3861,-2.24764 -1.37838,-0.73303 -2.71365,-1.54216 -4.03619,-2.37052 -0.57932,-0.36694 -1.15324,-0.74228 -1.7287,-1.11521 0,0 8.18569,-12.59785 8.18569,-12.59785 l 0,0 c 0.51311,0.33427 1.02472,0.67087 1.54094,1.00035 1.03255,0.65311 2.07257,1.29558 3.15048,1.87206 1.24546,0.67324 2.49948,1.33116 3.77332,1.94939 1.40615,0.67916 2.8172,1.34864 4.25046,1.96916 1.55437,0.67629 3.1128,1.34401 4.68865,1.96901 1.65493,0.64744 3.31906,1.27144 5.0017,1.84365 1.7842,0.60594 3.57367,1.19687 5.37644,1.74551 1.88172,0.56669 3.76909,1.11488 5.66728,1.62407 1.94662,0.51623 3.90075,1.00365 5.86636,1.44278 2.0125,0.44884 4.02897,0.88219 6.05917,1.24437 2.12552,0.37344 4.25469,0.72664 6.39151,1.02981 2.21327,0.3126 4.4295,0.60473 6.65183,0.84594 2.27884,0.24568 4.55994,0.47492 6.84704,0.62976 2.30574,0.1508 4.61458,0.26238 6.92601,0.25531 2.35803,-0.008 4.7168,-0.0635 7.06673,-0.27417 2.49534,-0.22857 4.982,-0.54007 7.45209,-0.96506 2.62004,-0.44381 5.23623,-0.91333 7.83311,-1.47915 2.65758,-0.59342 5.30388,-1.23593 7.9287,-1.96189 2.68489,-0.7422 5.3641,-1.50669 8.01673,-2.35824 2.63728,-0.86024 5.25992,-1.76481 7.85617,-2.74267 2.59463,-0.98154 5.17383,-2.00269 7.72547,-3.09177 2.54166,-1.08082 5.08022,-2.17001 7.58926,-3.32506 2.45627,-1.13742 4.90324,-2.29463 7.35688,-3.43768 2.55904,-1.18806 5.12298,-2.36795 7.7325,-3.44205 2.65171,-1.07807 5.32298,-2.11009 8.04215,-3.00728 2.71909,-0.8891 5.45566,-1.72429 8.22118,-2.45816 2.78536,-0.73625 5.58268,-1.42626 8.40284,-2.01758 2.8904,-0.60544 5.78968,-1.17484 8.71417,-1.59214 2.99592,-0.41638 6.00193,-0.76493 9.02271,-0.94173 3.12678,-0.17688 6.25914,-0.28334 9.39087,-0.17394 3.15976,0.10927 6.31739,0.2923 9.45974,0.65222 3.27634,0.39018 6.54877,0.86763 9.73305,1.75739 2.98464,0.82791 5.93891,1.7622 8.83152,2.87339 2.75419,1.05848 5.49173,2.1645 8.15552,3.43666 2.4329,1.16253 4.84141,2.37446 7.24421,3.59787 2.21325,1.11785 4.42952,2.23069 6.68122,3.26974 2.1935,1.00915 4.40145,1.98753 6.64182,2.88875 2.21843,0.88589 4.4479,1.74515 6.71179,2.50916 2.21303,0.74837 4.43736,1.46616 6.69344,2.07508 2.20191,0.57964 4.42093,1.09897 6.6695,1.46523 2.23667,0.35588 4.48544,0.65329 6.75095,0.74062 2.37167,0.0772 4.74654,0.0636 7.1138,-0.11953 2.48576,-0.20832 4.96168,-0.52342 7.40614,-1.02952 2.59134,-0.5288 5.17119,-1.11735 7.71337,-1.85044 2.62827,-0.75961 5.24635,-1.55433 7.84632,-2.40624 2.54882,-0.84208 5.0861,-1.71869 7.60176,-2.65576 2.47807,-0.92177 4.94711,-1.86743 7.42332,-2.79415 2.45633,-0.91895 4.91555,-1.83038 7.383,-2.7191 2.4659,-0.87972 4.93957,-1.73922 7.44013,-2.51616 2.49205,-0.77573 4.99241,-1.52643 7.51657,-2.19173 2.61649,-0.67813 5.24752,-1.30185 7.91074,-1.77053 2.71905,-0.48596 5.44668,-0.93074 8.19339,-1.23098 2.83428,-0.28587 5.67669,-0.48811 8.52629,-0.52407 2.8642,-0.0403 5.7335,-0.0712 8.5927,0.13393 2.5988,0.23428 5.1841,0.58998 7.7337,1.15516 2.219,0.48017 4.4264,1.01516 6.596,1.68817 1.8289,0.55662 3.6496,1.13889 5.465,1.73821 1.5875,0.51804 3.1766,1.03389 4.7887,1.4712 1.5389,0.42079 3.079,0.83877 4.6325,1.20277 1.3908,0.31932 2.7867,0.61482 4.1885,0.88152 1.07,0.20309 2.1417,0.41169 3.2283,0.50282 1.051,0.079 2.105,0.11516 3.159,0.0995 0.7825,-0.0146 1.5708,-0.0318 2.3417,-0.17919 0.8257,-0.17588 1.6319,-0.43176 2.4052,-0.77203 0.9537,-0.44382 1.8591,-0.9747 2.7029,-1.6056 1.0415,-0.76851 2.0497,-1.58278 2.9589,-2.50696 1.094,-1.10054 2.1566,-2.23334 3.1537,-3.42305 1.0226,-1.23623 2.0068,-2.50367 2.9159,-3.82645 0.9421,-1.38491 1.8475,-2.79507 2.6584,-4.26175 0.8154,-1.47754 1.5993,-2.97424 2.2618,-4.52783 0.6449,-1.54241 1.2351,-3.10948 1.6687,-4.72611 0.4392,-1.67411 0.8171,-3.36534 1.0088,-5.0881 0.2024,-1.8737 0.339,-3.75665 0.2976,-5.64276 -0.054,-2.16059 -0.2013,-4.31679 -0.3979,-6.46904 -0.2097,-2.29914 -0.4435,-4.59599 -0.7317,-6.88679 -0.2927,-2.34386 -0.6057,-4.68521 -0.9531,-7.02165 -0.3493,-2.2952 -0.7183,-4.58792 -1.1686,-6.86582 -0.4454,-2.24743 -0.9148,-4.49051 -1.4609,-6.71595 -0.554,-2.21451 -1.1494,-4.41816 -1.819,-6.60087 -0.6705,-2.22091 -1.3727,-4.43195 -2.0924,-6.63742 -0.7276,-2.23069 -1.4578,-4.46055 -2.1834,-6.69191 -0.7196,-2.2199 -1.4462,-4.43752 -2.183,-6.65178 -0.745,-2.2507 -1.4827,-4.50386 -2.2059,-6.76165 -0.7272,-2.27004 -1.4436,-4.54364 -2.1265,-6.82746 -0.6891,-2.30744 -1.3703,-4.61728 -2.0184,-6.93663 -0.6464,-2.32714 -1.2751,-4.65927 -1.8774,-6.99823 -0.6038,-2.36991 -1.1933,-4.74338 -1.7413,-7.12692 -0.5541,-2.40928 -1.0907,-4.82258 -1.5925,-7.24336 -0.5066,-2.43 -0.984,-4.86574 -1.4363,-7.30645 -0.4522,-2.43253 -0.897,-4.86645 -1.3182,-7.30458 -0.4258,-2.4521 -0.8408,-4.90606 -1.2439,-7.36199 -0.3997,-2.4299 -0.7907,-4.86122 -1.1803,-7.29277 -0.3833,-2.41747 -0.7657,-4.83507 -1.1424,-7.25359 -0.3803,-2.43325 -0.7545,-4.86744 -1.1344,-7.30075 -0.3767,-2.46495 -0.7577,-4.92927 -1.1192,-7.3965 -0.3629,-2.48307 -0.7283,-4.96581 -1.0704,-7.45185 -0.3439,-2.47997 -0.6807,-4.96095 -0.9991,-7.44433 -0.3079,-2.42972 -0.6086,-4.86034 -0.889,-7.29339 -0.2809,-2.40109 -0.5555,-4.80288 -0.8212,-7.20571 -0.2678,-2.3756 -0.5383,-4.75091 -0.8168,-7.12529 -0.277,-2.36031 -0.5549,-4.72059 -0.8632,-7.07707 -0.3054,-2.33714 -0.6271,-4.67219 -0.98,-7.00269 -0.3537,-2.34666 -0.7205,-4.69133 -1.1132,-7.03183 -0.3924,-2.35951 -0.7949,-4.7174 -1.2256,-7.07028 -0.4293,-2.35323 -0.8601,-4.70631 -1.3293,-7.05202 -0.4779,-2.37751 -0.9695,-4.7522 -1.4726,-7.12451 -0.5034,-2.37572 -1.0075,-4.75143 -1.5458,-7.11955 -0.5407,-2.37279 -1.0968,-4.74209 -1.6685,-7.1076 -0.5814,-2.37355 -1.1696,-4.74547 -1.7779,-7.11229 -0.6098,-2.36704 -1.2338,-4.73038 -1.8733,-7.08959 -0.642,-2.36562 -1.2924,-4.72895 -1.9585,-7.0879 -0.6652,-2.35312 -1.3383,-4.70406 -2.046,-7.04481 -0.7128,-2.33977 -1.442,-4.67454 -2.2012,-6.99972 -0.7639,-2.31407 -1.5441,-4.62277 -2.3693,-6.91579 -0.8211,-2.28394 -1.6646,-4.55985 -2.5524,-6.81881 -0.8943,-2.28551 -1.7971,-4.56775 -2.7255,-6.83962 -0.9101,-2.2201 -1.8283,-4.43714 -2.8061,-6.62848 -0.9597,-2.12986 -1.9459,-4.24827 -3.0095,-6.3286 -1.0339,-2.03071 -2.0863,-4.05282 -3.2229,-6.02839 -1.1287,-1.96031 -2.29118,-3.90103 -3.48699,-5.82121 -1.21003,-1.93026 -2.44399,-3.84538 -3.7015,-5.74508 -1.25859,-1.89533 -2.53172,-3.7811 -3.84131,-5.64168 -1.30971,-1.85915 -2.63519,-3.7072 -3.99191,-5.53243 -1.32605,-1.77823 -2.67056,-3.54296 -4.07269,-5.26224 -1.38554,-1.70061 -2.78769,-3.38793 -4.23835,-5.03366 -1.41676,-1.60175 -2.85211,-3.18751 -4.34796,-4.71624 -1.46259,-1.49385 -2.94854,-2.96504 -4.4881,-4.37997 -1.49623,-1.36918 -3.01452,-2.71525 -4.59667,-3.98511 -1.54708,-1.24038 -3.11851,-2.45045 -4.74583,-3.58453 -1.65323,-1.148 -3.32623,-2.26738 -5.03432,-3.33253 -1.67472,-1.04873 -3.36446,-2.07376 -5.0849,-3.04612 -1.69362,-0.9523 -3.40309,-1.87643 -5.13834,-2.751 -1.69719,-0.85499 -3.40569,-1.68915 -5.14555,-2.4544 -1.74036,-0.76346 -3.49585,-1.49193 -5.26814,-2.17831 -1.79378,-0.69695 -3.5947,-1.3755 -5.40918,-2.01693 -1.83872,-0.64355 -3.68128,-1.27673 -5.54113,-1.85707 -1.88398,-0.59829 -3.77033,-1.18989 -5.67029,-1.73578 -1.89945,-0.54491 -3.8045,-1.07008 -5.72441,-1.53881 -1.90072,-0.46726 -3.80724,-0.91262 -5.72988,-1.28147 -1.99486,-0.38342 -3.99213,-0.75447 -5.99583,-1.08923 -1.99393,-0.32192 -3.99139,-0.62335 -5.99805,-0.85564 -2.04306,-0.22923 -4.09042,-0.41807 -6.1422,-0.55066 -1.99973,-0.13323 -4.00203,-0.24139 -6.00686,-0.2453 -2.04364,0.006 -4.08663,0.0575 -6.12762,0.1654 -2.01145,0.10571 -4.02302,0.22619 -6.02686,0.43483 -2.01957,0.22562 -4.03468,0.48784 -6.04056,0.81522 -2.05616,0.33126 -4.10998,0.67797 -6.15427,1.07683 -2.06647,0.39941 -4.12781,0.82469 -6.18201,1.28332 -2.08704,0.46403 -4.17127,0.94128 -6.24561,1.45953 -2.09645,0.52741 -4.1906,1.06479 -6.27112,1.65249 -2.10655,0.59351 -4.20536,1.21393 -6.29374,1.86871 -2.10933,0.65889 -4.21593,1.32747 -6.30618,2.04502 -2.05419,0.71543 -4.09758,1.46136 -6.12502,2.24972 -1.9935,0.77608 -3.9791,1.57299 -5.93937,2.43018 -1.94218,0.85099 -3.87507,1.72348 -5.78053,2.65435 -1.87771,0.91965 -3.73914,1.8725 -5.5659,2.89027 -1.89678,1.05375 -3.78772,2.11839 -5.65488,3.22402 -1.89996,1.12719 -3.78629,2.27735 -5.6506,3.46274 -1.87304,1.19539 -3.738,2.40451 -5.54799,3.69431 -1.85487,1.32602 -3.69178,2.67829 -5.45805,4.12139 -1.85336,1.52429 -3.66592,3.09752 -5.41541,4.74061 -1.83525,1.72543 -3.63925,3.48442 -5.37427,5.31121 -1.80065,1.90004 -3.58001,3.82069 -5.28904,5.8041 -1.77915,2.06453 -3.52806,4.15527 -5.20979,6.30032 -1.73989,2.21779 -3.45488,4.45527 -5.09902,6.74539 -1.70303,2.37283 -3.38068,4.76413 -4.99965,7.19534 -1.63988,2.48725 -3.23842,5.00175 -4.74595,7.57194 -1.54423,2.62262 -3.07002,5.25726 -4.48046,7.95498 -1.44257,2.80251 -2.83439,5.631 -4.12631,8.50659 -1.35907,3.01008 -2.68588,6.03489 -3.9419,9.08963 -1.29804,3.16401 -2.56678,6.34012 -3.77171,9.54093 -1.24133,3.29347 -2.45831,6.59609 -3.62969,9.91517 -1.20015,3.41435 -2.39371,6.83111 -3.55078,10.26034 -1.17474,3.49277 -2.33324,6.99097 -3.46633,10.4975 -1.13675,3.5155 -2.26282,7.03447 -3.36341,10.56148 -1.08715,3.50148 -2.15806,7.00801 -3.19738,10.52402 -1.02362,3.47538 -2.02999,6.95591 -2.99986,10.44672 -0.96439,3.46502 -1.91001,6.93523 -2.82791,10.41288 -0.90637,3.46133 -1.8035,6.92516 -2.65722,10.39993 -0.84766,3.44801 -1.67713,6.90046 -2.47376,10.36066 -0.78588,3.43596 -1.55156,6.87656 -2.27731,10.32578 -0.72608,3.44233 -1.43837,6.88761 -2.11665,10.33972 -0.67619,3.45427 -1.33964,6.91108 -1.96339,10.37526 -0.62159,3.46899 -1.2284,6.94068 -1.80532,10.4174 -0.56315,3.41542 -1.11662,6.8327 -1.60257,10.26012 -0.48008,3.36901 -0.9353,6.74153 -1.36148,10.11781 -0.41515,3.31487 -0.81747,6.63139 -1.18067,9.95241 -0.35556,3.25177 -0.69587,6.50522 -1.01597,9.76069 -0.30945,3.20218 -0.60596,6.40563 -0.87853,9.61117 -0.27347,3.19591 -0.52965,6.39325 -0.80012,9.58941 -0.26755,3.16246 -0.54001,6.3245 -0.82234,9.48567 -0.27674,3.09046 -0.5567,6.18065 -0.85312,9.2693 -0.28578,2.97383 -0.57654,5.9472 -0.8864,8.91863 -0.29672,2.84347 -0.59882,5.6864 -0.92176,8.52702 -0.30701,2.69799 -0.62207,5.39509 -0.95903,8.08952 -0.32042,2.54674 -0.64736,5.0927 -0.99862,7.63541 -0.33334,2.40488 -0.67455,4.8087 -1.03974,7.20899 -0.34956,2.30086 -0.70825,4.60036 -1.08908,6.89627 -0.37874,2.25787 -0.77079,4.51378 -1.21502,6.75982 -0.42192,2.14647 -0.85461,4.29101 -1.34267,6.4236 -0.46248,2.01089 -0.95513,4.01474 -1.49535,6.00629 -0.49669,1.82759 -1.0078,3.65145 -1.56804,5.46075 -0.53404,1.71449 -1.08606,3.42383 -1.69977,5.11174 -0.60055,1.64766 -1.22273,3.28758 -1.90395,4.90387 -0.66664,1.58268 -1.3574,3.15535 -2.10881,4.69995 -0.75455,1.54534 -1.53223,3.08007 -2.39553,4.56821 -0.84407,1.44744 -1.72279,2.87463 -2.67107,4.25667 -0.92504,1.35001 -1.87849,2.6808 -2.89141,3.96672 -0.98367,1.23999 -1.99347,2.46003 -3.06947,3.62164 -0.99687,1.07511 -2.01205,2.13297 -3.06378,3.15482 -1.0126,0.98721 -2.03698,1.96222 -3.08149,2.91571 -1.06811,0.97246 -2.14758,1.93317 -3.27693,2.83466 -1.05374,0.83942 -2.1196,1.66448 -3.22573,2.43429 -1.01716,0.70462 -2.05018,1.3863 -3.11952,2.00985 -0.91209,0.53105 -1.83059,1.05161 -2.76706,1.53871 -0.80637,0.41672 -1.61812,0.82285 -2.43118,1.22635 -0.77099,0.38278 -1.53883,0.77198 -2.31456,1.14513 -0.7723,0.36913 -1.54843,0.73129 -2.34381,1.04855 -0.48369,0.19161 -0.97012,0.37599 -1.45634,0.56102 -0.58187,0.22037 -1.17126,0.42028 -1.77568,0.57003 0,0 -7.44895,-2.84162 -7.44895,-2.84162 z"
           id="path2969"
           style="fill:#000000;fill-opacity:1;stroke:none" />
        <path
           transform="matrix(0.99368672,-0.11219044,0.11219044,0.99368672,-757.45097,-26.727167)"
           d="m 432.3453,417.48129 c 0,19.24727 -12.43717,34.85026 -27.7792,34.85026 -15.34203,0 -27.77919,-15.60299 -27.77919,-34.85026 0,-19.24727 12.43716,-34.85026 27.77919,-34.85026 15.34203,0 27.7792,15.60299 27.7792,34.85026 z"
           sodipodi:ry="34.850262"
           sodipodi:rx="27.779196"
           sodipodi:cy="417.48129"
           sodipodi:cx="404.5661"
           id="path2971"
           style="fill:#000000;fill-opacity:1;stroke:none"
           sodipodi:type="arc" />
        <path
           transform="translate(-730.34029,-91.923882)"
           d="m 521.23873,428.59299 c 0,10.87889 -9.04522,19.69797 -20.20305,19.69797 -11.15784,0 -20.20306,-8.81908 -20.20306,-19.69797 0,-10.87889 9.04522,-19.69798 20.20306,-19.69798 11.15783,0 20.20305,8.81909 20.20305,19.69798 z"
           sodipodi:ry="19.697975"
           sodipodi:rx="20.203051"
           sodipodi:cy="428.59299"
           sodipodi:cx="501.03568"
           id="path2973"
           style="fill:#000000;fill-opacity:1;stroke:none"
           sodipodi:type="arc" />
        <path
           inkscape:connector-curvature="0"
           d="m -215.31859,641.12147 c 0.002,-0.27166 0.006,-0.54336 0.004,-0.81504 -0.006,-0.40355 -0.0117,-0.80712 -0.0169,-1.21068 -0.008,-0.54667 -0.0141,-1.09335 -0.0205,-1.64004 -0.007,-0.64063 -0.0135,-1.28128 -0.0206,-1.92192 -0.008,-0.69753 -0.0149,-1.39507 -0.021,-2.09262 -0.006,-0.77295 -0.0129,-1.5459 -0.0192,-2.31885 -0.007,-0.82439 -0.0132,-1.64879 -0.0197,-2.47319 -0.003,-0.83115 -0.0172,-1.66213 -0.0371,-2.49303 -0.023,-0.92498 -0.0458,-1.84997 -0.0672,-2.77499 -0.024,-1.00878 -0.0457,-2.0176 -0.0664,-3.02645 -0.0228,-1.06202 -0.0411,-2.12414 -0.0678,-3.18607 -0.0295,-1.0632 -0.0558,-2.1265 -0.0901,-3.18956 -0.033,-1.0602 -0.0753,-2.12003 -0.11974,-3.1798 -0.0462,-1.0601 -0.10405,-2.11961 -0.16331,-3.17904 -0.0609,-1.07537 -0.13671,-2.14976 -0.21605,-3.22389 -0.0851,-1.11207 -0.18133,-2.22325 -0.28258,-3.33396 -0.10194,-1.13465 -0.21466,-2.26826 -0.33279,-3.40133 -0.11892,-1.15096 -0.24316,-2.30137 -0.37292,-3.45115 -0.12999,-1.15201 -0.26388,-2.30357 -0.41158,-3.45345 -0.15255,-1.16576 -0.31857,-2.32968 -0.48443,-3.4936 -0.13991,-0.98948 -0.28602,-1.97807 -0.42972,-2.967 0,0 10.4829,-1.52447 10.4829,-1.52447 l 0,0 c 0.14536,0.99877 0.29322,1.99719 0.43469,2.99653 0.17297,1.2131 0.34517,2.42631 0.50533,3.64119 0.15392,1.20251 0.29667,2.40639 0.43212,3.61113 0.13345,1.17985 0.26151,2.36031 0.38374,3.54138 0.12296,1.17824 0.24097,2.35698 0.34739,3.53684 0.10695,1.16922 0.20897,2.33891 0.29988,3.5095 0.0857,1.1387 0.16706,2.27775 0.23221,3.41784 0.0625,1.10908 0.1233,2.21825 0.1719,3.32805 0.0461,1.09532 0.0894,2.19075 0.12382,3.28652 0.0345,1.08829 0.0629,2.17677 0.0928,3.26521 0.0263,1.0715 0.0459,2.14315 0.0716,3.21466 0.0237,0.99925 0.0478,1.99849 0.0737,2.99768 0.0246,0.92436 0.0497,1.8487 0.0755,2.77302 0.0231,0.88894 0.0396,1.778 0.0436,2.66726 0.008,0.82141 0.0159,1.64281 0.0242,2.46421 0.008,0.76808 0.0161,1.53617 0.0265,2.30422 0.009,0.69271 0.0172,1.38542 0.0264,2.07812 0.008,0.63259 0.0176,1.26516 0.0286,1.89771 0.009,0.5334 0.0189,1.06679 0.0305,1.60014 0.01,0.42085 0.0222,0.84164 0.0317,1.2625 0.005,0.31879 0.005,0.63761 0.008,0.95642 0,0 -10.69191,0 -10.69191,0 z"
           id="path2975"
           style="fill:#000000;fill-opacity:1;stroke:none" />
        <path
           inkscape:connector-curvature="0"
           d="m -422.76601,474.62361 c 0.0197,-0.12636 -0.042,-0.52784 0.01,-0.22461 0.0558,0.32292 0.10973,0.6463 0.17366,0.96774 0.0779,0.40261 0.16607,0.80309 0.2615,1.20187 0.12416,0.48741 0.24828,0.9748 0.37672,1.4611 0.14103,0.54812 0.29617,1.09247 0.45329,1.63614 0.19259,0.65623 0.38668,1.31203 0.58955,1.96515 0.24307,0.77782 0.48695,1.55536 0.73046,2.33303 0.27381,0.86114 0.55185,1.7209 0.83256,2.5798 0.30433,0.93578 0.605,1.87284 0.91986,2.80515 0.28076,0.84027 0.59534,1.66832 0.93088,2.48806 0.38926,0.94772 0.79409,1.88896 1.20757,2.82633 0.4399,0.97326 0.88837,1.94267 1.34213,2.90953 0.50203,1.07093 1.00396,2.14186 1.49698,3.21698 0.51347,1.11456 1.01305,2.23542 1.5243,3.35099 0.54283,1.18533 1.07823,2.37401 1.61308,3.56294 0.53465,1.20526 1.07679,2.40722 1.63071,3.60374 0.52335,1.12955 1.07884,2.24357 1.6512,3.34894 0.45453,0.89814 0.95969,1.7678 1.53576,2.59313 0.38054,0.5525 0.84002,1.03976 1.31467,1.51078 0.53975,0.52355 1.11694,1.00665 1.69735,1.48407 0.42899,0.32855 0.83676,0.70289 1.31848,0.95535 0.32713,0.18247 0.67007,0.33058 1.02243,0.45615 0.10276,0.0694 0.37481,0.0897 0.41869,0.0877 -0.0267,-0.0496 2.5e-4,4.1e-4 -0.0307,-0.05 -0.057,0.0119 -0.11628,-0.009 -0.17388,-0.0175 0.10824,-0.0742 0.0444,-0.0451 0.10095,-0.11809 0.23645,-0.23136 0.45095,-0.48324 0.65801,-0.7408 0.25429,-0.32702 0.47065,-0.6805 0.68287,-1.03552 0.29541,-0.50337 0.55142,-1.02805 0.8018,-1.55478 0.28341,-0.58963 0.53285,-1.19406 0.75988,-1.80733 0.256,-0.69583 0.47207,-1.40529 0.67252,-2.11881 0.22632,-0.81623 0.39904,-1.6455 0.56981,-2.47467 0.20708,-1.01616 0.40206,-2.03472 0.59238,-3.05413 0.18904,-1.05042 0.36187,-2.10366 0.53312,-3.1571 0.1814,-1.1169 0.35398,-2.23518 0.52214,-3.35414 0.17645,-1.17906 0.34169,-2.35976 0.50475,-3.54074 0.1694,-1.23009 0.32976,-2.46139 0.488,-3.69295 0.16231,-1.26557 0.31803,-2.53197 0.47119,-3.79868 0.1566,-1.2588 0.28136,-2.52115 0.40241,-3.78376 0.11803,-1.28006 0.21992,-2.56149 0.30559,-3.84411 0.0888,-1.32864 0.15861,-2.65846 0.21746,-3.98873 0.0614,-1.36221 0.10661,-2.72501 0.14734,-4.08796 0.0429,-1.375 0.0665,-2.75049 0.0829,-4.12602 0.0199,-1.39803 0.0201,-2.7962 0.0215,-4.19434 -0.004,-1.39208 -0.0164,-2.7841 -0.0367,-4.17604 -0.004,-0.23768 -0.007,-0.47537 -0.0112,-0.71306 0,0 15.00582,-0.23866 15.00582,-0.23866 l 0,0 c 0.004,0.24296 0.008,0.48592 0.0118,0.72888 0.0221,1.47024 0.0359,2.94059 0.0393,4.411 -8.8e-4,1.45396 -0.002,2.90795 -0.0218,4.36181 -0.0175,1.46384 -0.0428,2.92763 -0.0872,4.39094 -0.0422,1.43781 -0.0894,2.87546 -0.154,4.31248 -0.0648,1.44186 -0.1386,2.88336 -0.23359,4.32359 -0.0957,1.42421 -0.20557,2.84741 -0.33748,4.26877 -0.13179,1.38354 -0.26831,2.76671 -0.43853,4.14616 -0.15583,1.30623 -0.31631,2.61191 -0.48248,3.91686 -0.16328,1.27818 -0.32904,2.55604 -0.50245,3.83288 -0.16976,1.23722 -0.3416,2.47418 -0.52393,3.70962 -0.17506,1.18183 -0.35568,2.36284 -0.54644,3.54225 -0.18878,1.16794 -0.37954,2.33565 -0.58933,3.50004 -0.20574,1.11124 -0.41651,2.22155 -0.64128,3.32912 -0.24204,1.18355 -0.49425,2.36564 -0.81826,3.53003 -0.31307,1.11068 -0.64894,2.21531 -1.04934,3.29812 -0.38347,1.02579 -0.79657,2.0401 -1.27017,3.02809 -0.46169,0.96808 -0.94313,1.92764 -1.49333,2.84914 -0.59103,0.97843 -1.21473,1.9388 -1.93895,2.82538 -0.72526,0.87759 -1.48495,1.72845 -2.33727,2.48611 -1.02291,0.88573 -2.10979,1.69554 -3.32769,2.29745 -1.29802,0.63368 -2.64587,1.16558 -4.07894,1.40249 -1.41676,0.21875 -2.84872,0.32132 -4.2783,0.14676 -1.3629,-0.18372 -2.70684,-0.47458 -3.99057,-0.98008 -1.19666,-0.46644 -2.36894,-0.99565 -3.46906,-1.66299 -1.07936,-0.67117 -2.1166,-1.40444 -3.087,-2.2272 -0.96334,-0.80063 -1.91509,-1.6176 -2.79936,-2.50608 -1.10792,-1.13112 -2.15514,-2.3219 -3.04163,-3.63772 -0.89555,-1.33397 -1.7231,-2.71071 -2.44737,-4.14608 -0.67149,-1.30031 -1.32441,-2.61017 -1.93952,-3.93825 -0.57467,-1.24178 -1.1391,-2.48828 -1.69621,-3.73804 -0.523,-1.15757 -1.04693,-2.31471 -1.5777,-3.46874 -0.51103,-1.11222 -1.01168,-2.22918 -1.52597,-3.33992 -0.47831,-1.03784 -0.96494,-2.07176 -1.45082,-3.10607 -0.5029,-1.07134 -1.00247,-2.14435 -1.48833,-3.22354 -0.47005,-1.06363 -0.93051,-2.13158 -1.37396,-3.2066 -0.45407,-1.11092 -0.88353,-2.23168 -1.26473,-3.36996 -0.32806,-0.97228 -0.64487,-1.94829 -0.96394,-2.92355 -0.30081,-0.91248 -0.60073,-1.82524 -0.89546,-2.7397 -0.2516,-0.79094 -0.50302,-1.58194 -0.75323,-2.37332 -0.23345,-0.74421 -0.45887,-1.49088 -0.68227,-2.23816 -0.19376,-0.66026 -0.38756,-1.32067 -0.56035,-1.98681 -0.16037,-0.60188 -0.31603,-1.20499 -0.46977,-1.8086 -0.1383,-0.57541 -0.26932,-1.15257 -0.3876,-1.73246 -0.0928,-0.45633 -0.17871,-0.91403 -0.2606,-1.37243 -0.12239,-0.69926 -0.22348,-1.40444 -0.22621,-2.11597 0,0 15.11164,-0.24774 15.11164,-0.24774 z"
           id="path2977"
           style="fill:#000000;fill-opacity:1;stroke:none" />
      </g>
    </g>
  </g>
</svg>
