<?xml version="1.0" encoding="UTF-8" standalone="no"?>
<svg
   xmlns:dc="http://purl.org/dc/elements/1.1/"
   xmlns:cc="http://creativecommons.org/ns#"
   xmlns:rdf="http://www.w3.org/1999/02/22-rdf-syntax-ns#"
   xmlns:svg="http://www.w3.org/2000/svg"
   xmlns="http://www.w3.org/2000/svg"
   xmlns:xlink="http://www.w3.org/1999/xlink"
   xmlns:sodipodi="http://sodipodi.sourceforge.net/DTD/sodipodi-0.dtd"
   xmlns:inkscape="http://www.inkscape.org/namespaces/inkscape"
   height="26"
   width="26"
   version="1.1"
   id="svg2"
   inkscape:version="0.91 r13725"
   sodipodi:docname="gerber_job_file.svg">
  <metadata
     id="metadata172">
    <rdf:RDF>
      <cc:Work
         rdf:about="">
        <dc:format>image/svg+xml</dc:format>
        <dc:type
           rdf:resource="http://purl.org/dc/dcmitype/StillImage" />
        <dc:title />
      </cc:Work>
    </rdf:RDF>
  </metadata>
  <sodipodi:namedview
     pagecolor="#ffffff"
     bordercolor="#666666"
     borderopacity="1"
     objecttolerance="10"
     gridtolerance="10"
     guidetolerance="10"
     inkscape:pageopacity="0"
     inkscape:pageshadow="2"
     inkscape:window-width="1855"
     inkscape:window-height="1056"
     id="namedview170"
     showgrid="true"
     inkscape:zoom="18.724522"
     inkscape:cx="8.8085541"
     inkscape:cy="10.517251"
     inkscape:window-x="65"
     inkscape:window-y="24"
     inkscape:window-maximized="1"
     inkscape:current-layer="svg2"
     showguides="false">
    <inkscape:grid
       type="xygrid"
       id="grid3100"
       empspacing="5"
       visible="true"
       enabled="true"
       snapvisiblegridlinesonly="true"
       originx="0"
       originy="0"
       spacingx="1.0666667"
       spacingy="1.0666667" />
  </sodipodi:namedview>
  <defs
     id="defs4">
    <linearGradient
       id="ab"
       y2="4.2192998"
       gradientUnits="userSpaceOnUse"
       x2="7.5955"
       gradientTransform="matrix(0.88924,0,0,0.78227,0.62292,7.6472)"
       y1="43.993999"
       x1="40.751999">
      <stop
         stop-color="#333"
         offset="0"
         id="stop7" />
      <stop
         stop-color="#474747"
         offset="1"
         id="stop9" />
    </linearGradient>
    <linearGradient
       id="a"
       y2="19500"
       gradientUnits="userSpaceOnUse"
       x2="15000"
       y1="14100"
       x1="10100">
      <stop
         stop-color="#f5fffa"
         offset="0"
         id="stop12" />
      <stop
         stop-color="#6f6d7f"
         offset="1.2"
         id="stop14" />
    </linearGradient>
    <linearGradient
       id="b"
       y2="19500"
       gradientUnits="userSpaceOnUse"
       x2="15000"
       y1="14100"
       x1="10100">
      <stop
         stop-color="#fff"
         stop-opacity="0.698"
         offset="0"
         id="stop17" />
      <stop
         stop-color="#5db7ff"
         stop-opacity="0.698"
         offset="1.2"
         id="stop19" />
    </linearGradient>
    <linearGradient
       id="x"
       y2="19500"
       gradientUnits="userSpaceOnUse"
       x2="15000"
       y1="14100"
       x1="10100">
      <stop
         stop-color="#f5ffff"
         offset="0"
         id="stop22" />
      <stop
         stop-color="#fff"
         stop-opacity="0"
         offset="1.2"
         id="stop24" />
    </linearGradient>
    <radialGradient
       id="ac"
       xlink:href="#b"
       gradientUnits="userSpaceOnUse"
       cy="17526"
       cx="18632"
       gradientTransform="matrix(0.00205653,0,0,0.00205653,35.864533,-12.1536)"
       r="40170" />
    <radialGradient
       id="ad"
       xlink:href="#b"
       gradientUnits="userSpaceOnUse"
       cy="17831"
       cx="18969"
       r="23166"
       gradientTransform="matrix(0.00191701,0,0,0.00191701,38.437333,-10.359467)" />
    <radialGradient
       id="ae"
       xlink:href="#a"
       gradientUnits="userSpaceOnUse"
       cy="27370"
       cx="25538"
       gradientTransform="matrix(0.00194549,0,0,0.00194549,24.0288,-25.181866)"
       r="3682.2" />
    <radialGradient
       id="af"
       xlink:href="#x"
       gradientUnits="userSpaceOnUse"
       cy="17398"
       cx="18401"
       gradientTransform="matrix(0.00191701,0,0,0.00191701,38.242133,-10.359467)"
       r="11888" />
    <radialGradient
       id="ag"
       xlink:href="#a"
       gradientUnits="userSpaceOnUse"
       cy="15674"
       cx="16467"
       gradientTransform="matrix(0.00204277,0,0,0.00207051,35.864533,-12.1536)"
       r="3055.2" />
    <radialGradient
       id="ah"
       xlink:href="#b"
       gradientUnits="userSpaceOnUse"
       cy="17753"
       cx="18300"
       gradientTransform="matrix(0.00205653,0,0,0.00205653,35.864533,-12.1536)"
       r="28430" />
    <radialGradient
       id="ai"
       xlink:href="#a"
       gradientUnits="userSpaceOnUse"
       cy="33086"
       cx="-2182.7"
       gradientTransform="matrix(0.00349152,0,0,0.00121131,33.954133,16.765867)"
       r="11540" />
    <radialGradient
       id="aj"
       xlink:href="#a"
       gradientUnits="userSpaceOnUse"
       cy="18596"
       cx="17070"
       gradientTransform="matrix(0.00208203,0,0,0.00203136,35.864533,-12.1536)"
       r="3734.6001" />
    <linearGradient
       id="ao"
       y2="39368"
       xlink:href="#x"
       gradientUnits="userSpaceOnUse"
       x2="2312.5"
       gradientTransform="matrix(0.00349152,0,0,0.00121131,33.954133,16.765867)"
       y1="39560"
       x1="-1083.8" />
    <radialGradient
       id="ak"
       xlink:href="#b"
       gradientUnits="userSpaceOnUse"
       cy="11246"
       cx="13190"
       gradientTransform="matrix(0.00173621,0,0,0.00173621,34.7392,-13.975467)"
       r="16248" />
    <linearGradient
       id="ap"
       y2="18951"
       xlink:href="#a"
       gradientUnits="userSpaceOnUse"
       x2="12508"
       gradientTransform="matrix(0.00205653,0,0,0.00205653,35.864533,-12.1536)"
       y1="-85.142998"
       x1="-1308.3" />
    <radialGradient
       id="al"
       xlink:href="#a"
       gradientUnits="userSpaceOnUse"
       cy="29167"
       cx="26631"
       gradientTransform="matrix(0.00178912,0,0,0.00178912,42.586666,-6.9703469)"
       r="4284.2002" />
    <linearGradient
       id="y"
       y2="20482"
       gradientUnits="userSpaceOnUse"
       x2="6753.3999"
       gradientTransform="matrix(0.00141995,0,0,0.00297856,33.954133,16.765867)"
       y1="27356"
       x1="850.32001">
      <stop
         stop-color="#a66500"
         offset="0"
         id="stop39" />
      <stop
         stop-color="#da8f00"
         offset="1"
         id="stop41" />
    </linearGradient>
    <linearGradient
       id="z"
       y2="21261"
       gradientUnits="userSpaceOnUse"
       x2="3741.1001"
       gradientTransform="matrix(0.001344,0,0,0.00314709,33.954133,16.765867)"
       y1="21261"
       x1="-3478.8999">
      <stop
         stop-color="#eda700"
         offset="0"
         id="stop44" />
      <stop
         stop-color="#fff"
         offset=".38824"
         id="stop46" />
      <stop
         stop-color="#ffcb50"
         offset="0.7"
         id="stop48" />
      <stop
         stop-color="#ed8700"
         offset="1"
         id="stop50" />
    </linearGradient>
    <linearGradient
       id="aa"
       y2="29618"
       xlink:href="#a"
       gradientUnits="userSpaceOnUse"
       x2="24590"
       gradientTransform="matrix(0.00205653,0,0,0.00205653,35.864533,-12.1536)"
       y1="405.03"
       x1="389.39999" />
    <radialGradient
       id="am"
       gradientUnits="userSpaceOnUse"
       cy="10444"
       cx="11715"
       gradientTransform="matrix(0.00205653,0,0,0.00205653,35.864533,-12.1536)"
       r="15132">
      <stop
         stop-color="#f5ffff"
         stop-opacity=".49020"
         offset="0"
         id="stop54" />
      <stop
         stop-color="#fff"
         stop-opacity="0"
         offset="1.2"
         id="stop56" />
    </radialGradient>
    <linearGradient
       id="a-6"
       y2="39.685001"
       gradientUnits="userSpaceOnUse"
       x2="34.534"
       gradientTransform="matrix(0.92673,0,0,0.84499,4.7271,52.187)"
       y1="12.285"
       x1="14.463">
      <stop
         stop-color="#c9c9c9"
         offset="0"
         id="stop1040" />
      <stop
         stop-color="#f8f8f8"
         offset=".25"
         id="stop1042" />
      <stop
         stop-color="#e2e2e2"
         offset=".5"
         id="stop1044" />
      <stop
         stop-color="#b0b0b0"
         offset=".75"
         id="stop1046" />
      <stop
         stop-color="#c9c9c9"
         offset="1"
         id="stop1048" />
    </linearGradient>
    <clipPath
       clipPathUnits="userSpaceOnUse"
       id="clipPath4529">
      <rect
         style="color:#000000;display:block;fill:#ffffff;fill-opacity:0.63253;stroke:url(#linearGradient4533)"
         ry="0.89886999"
         height="32.011002"
         width="31.011999"
         display="block"
         y="10.5"
         x="6.4949999"
         id="rect4531" />
    </clipPath>
    <inkscape:path-effect
       effect="spiro"
       id="path-effect4420"
       is_visible="true" />
    <inkscape:path-effect
       effect="spiro"
       id="path-effect4384"
       is_visible="true" />
    <inkscape:path-effect
       effect="spiro"
       id="path-effect4388"
       is_visible="true" />
    <inkscape:path-effect
       effect="spiro"
       id="path-effect4392"
       is_visible="true" />
    <inkscape:path-effect
       effect="spiro"
       id="path-effect4441-3"
       is_visible="true" />
    <radialGradient
       inkscape:collect="always"
       xlink:href="#linearGradient3846"
       id="radialGradient4649"
       gradientUnits="userSpaceOnUse"
       gradientTransform="matrix(0.875,0,0,0.875,12.585545,1097.5149)"
       cx="13"
       cy="13"
       fx="13"
       fy="13"
       r="12" />
    <linearGradient
       id="linearGradient3846">
      <stop
         style="stop-color:#d2d2d2;stop-opacity:1"
         offset="0"
         id="stop3848" />
      <stop
         id="stop3793"
         offset="0.61904764"
         style="stop-color:#c3c3c3;stop-opacity:1" />
      <stop
         style="stop-color:#d2d2d2;stop-opacity:1"
         offset="1"
         id="stop3850" />
    </linearGradient>
    <radialGradient
       inkscape:collect="always"
       xlink:href="#linearGradient3846"
       id="radialGradient3852"
       cx="13"
       cy="13"
       fx="13"
       fy="13"
       r="12"
       gradientUnits="userSpaceOnUse"
       gradientTransform="matrix(0.875,0,0,0.875,12.585545,1097.5149)" />
    <radialGradient
       inkscape:collect="always"
       xlink:href="#linearGradient3846"
       id="radialGradient4223"
       gradientUnits="userSpaceOnUse"
       gradientTransform="matrix(0.875,0,0,0.875,12.585545,1097.5149)"
       cx="13"
       cy="13"
       fx="13"
       fy="13"
       r="12" />
  </defs>
  <g
     transform="matrix(1.0928118,0,0,1.0928118,17.715609,10.211952)"
     id="g4268">
    <rect
       transform="matrix(0,-0.7192727,0.69024805,0,15.065515,18.814657)"
       id="rect4338"
       x="6.5140519"
       y="-44.69315"
       display="block"
       width="32.193676"
       height="33.230747"
       ry="0.93312043"
       style="color:#000000;display:block;fill:#ffffff;fill-opacity:1;stroke:#000000;stroke-width:1.03810394;stroke-linecap:round;stroke-linejoin:round" />
    <g
       style="stroke-linecap:round;stroke-linejoin:round"
       transform="matrix(0,-0.74667979,0.71654919,0,-23.307611,18.978962)"
       id="g4510"
       clip-path="url(#clipPath4529)">
      <path
         inkscape:connector-curvature="0"
         inkscape:original-d="m 23.74582,37.013967 0,9.865057"
         inkscape:path-effect="#path-effect4420"
         id="path4418"
         d="m 23.74582,37.013967 0,9.865057"
         style="color:#000000;clip-rule:nonzero;display:inline;overflow:visible;visibility:visible;opacity:1;isolation:auto;mix-blend-mode:normal;color-interpolation:sRGB;color-interpolation-filters:linearRGB;solid-color:#000000;solid-opacity:1;fill:none;fill-opacity:1;fill-rule:evenodd;stroke:#000000;stroke-width:2.55054903;stroke-linecap:round;stroke-linejoin:round;stroke-miterlimit:4;stroke-dasharray:none;stroke-dashoffset:0;stroke-opacity:1;color-rendering:auto;image-rendering:auto;shape-rendering:auto;text-rendering:auto;enable-background:accumulate" />
      <path
         sodipodi:nodetypes="cccc"
         inkscape:connector-curvature="0"
         style="color:#000000;display:block;fill:none;stroke:#000000;stroke-width:2.55054903;stroke-linecap:round;stroke-linejoin:round;stroke-miterlimit:4;stroke-dasharray:none"
         d="M 4.1587316,13.468 15.5,13.5 l 3,3 0,9.444795"
         display="block"
         id="path4342" />
      <path
         inkscape:connector-curvature="0"
         style="color:#000000;display:block;stroke:#000000;stroke-width:1.1862855"
         display="block"
         d="m 7.0217021,16.394935 4.8718329,0 2.435916,2.310873 0,26.834056 -1.217958,1.155437 -6.0897909,0 z"
         id="path4374"
         sodipodi:nodetypes="ccccccc" />
      <path
         inkscape:connector-curvature="0"
         inkscape:original-d="m 34.460579,26.095361 0,-7.279071 3.692906,-3.639536 9.135084,0"
         inkscape:path-effect="#path-effect4384"
         id="path4382"
         d="m 34.460579,26.095361 0,-7.279071 3.692906,-3.639536 9.135084,0"
         style="fill:none;fill-rule:evenodd;stroke:#000000;stroke-width:2.55054903;stroke-linecap:round;stroke-linejoin:round;stroke-miterlimit:4;stroke-dasharray:none;stroke-opacity:1" />
      <path
         inkscape:connector-curvature="0"
         inkscape:original-d="m 28.905104,25.680326 0,-8.71573 9.523811,-9.3861707"
         inkscape:path-effect="#path-effect4388"
         id="path4386"
         d="m 28.905104,25.680326 0,-8.71573 9.523811,-9.3861707"
         style="fill:none;fill-rule:evenodd;stroke:#000000;stroke-width:2.55054903;stroke-linecap:round;stroke-linejoin:round;stroke-miterlimit:4;stroke-dasharray:none;stroke-opacity:1" />
      <path
         inkscape:connector-curvature="0"
         inkscape:original-d="m 23.686031,25.744178 0,-12.099859"
         inkscape:path-effect="#path-effect4392"
         id="path4390"
         d="m 23.686031,25.744178 0,-12.099859"
         style="fill:none;fill-rule:evenodd;stroke:#000000;stroke-width:2.55054903;stroke-linecap:round;stroke-linejoin:round;stroke-miterlimit:4;stroke-dasharray:none;stroke-opacity:1" />
      <ellipse
         ry="1.9258462"
         rx="1.9540875"
         cy="15.033946"
         cx="23.686031"
         id="path4394"
         style="color:#000000;clip-rule:nonzero;display:inline;overflow:visible;visibility:visible;opacity:1;isolation:auto;mix-blend-mode:normal;color-interpolation:sRGB;color-interpolation-filters:linearRGB;solid-color:#000000;solid-opacity:1;fill:#ffffff;fill-opacity:1;fill-rule:evenodd;stroke:#000000;stroke-width:1.37479639;stroke-linecap:round;stroke-linejoin:round;stroke-miterlimit:4;stroke-dasharray:none;stroke-dashoffset:0;stroke-opacity:1;color-rendering:auto;image-rendering:auto;shape-rendering:auto;text-rendering:auto;enable-background:accumulate" />
      <rect
         rx="0"
         ry="0"
         y="23.576155"
         x="17.270033"
         height="4.1537843"
         width="2.4738433"
         id="rect4396"
         style="color:#000000;clip-rule:nonzero;display:inline;overflow:visible;visibility:visible;opacity:1;isolation:auto;mix-blend-mode:normal;color-interpolation:sRGB;color-interpolation-filters:linearRGB;solid-color:#000000;solid-opacity:1;fill:#000000;fill-opacity:1;fill-rule:evenodd;stroke:#000000;stroke-width:1.83306193;stroke-linecap:round;stroke-linejoin:round;stroke-miterlimit:4;stroke-dasharray:none;stroke-dashoffset:0;stroke-opacity:1;color-rendering:auto;image-rendering:auto;shape-rendering:auto;text-rendering:auto;enable-background:accumulate" />
      <rect
         style="color:#000000;clip-rule:nonzero;display:inline;overflow:visible;visibility:visible;opacity:1;isolation:auto;mix-blend-mode:normal;color-interpolation:sRGB;color-interpolation-filters:linearRGB;solid-color:#000000;solid-opacity:1;fill:#000000;fill-opacity:1;fill-rule:evenodd;stroke:#000000;stroke-width:1.83306193;stroke-linecap:round;stroke-linejoin:round;stroke-miterlimit:4;stroke-dasharray:none;stroke-dashoffset:0;stroke-opacity:1;color-rendering:auto;image-rendering:auto;shape-rendering:auto;text-rendering:auto;enable-background:accumulate"
         id="rect4398"
         width="2.4738433"
         height="4.1537843"
         x="22.49259"
         y="23.576155"
         ry="0"
         rx="0" />
      <rect
         rx="0"
         ry="0"
         y="23.576155"
         x="27.715151"
         height="4.1537843"
         width="2.4738433"
         id="rect4400"
         style="color:#000000;clip-rule:nonzero;display:inline;overflow:visible;visibility:visible;opacity:1;isolation:auto;mix-blend-mode:normal;color-interpolation:sRGB;color-interpolation-filters:linearRGB;solid-color:#000000;solid-opacity:1;fill:#000000;fill-opacity:1;fill-rule:evenodd;stroke:#000000;stroke-width:1.83306193;stroke-linecap:round;stroke-linejoin:round;stroke-miterlimit:4;stroke-dasharray:none;stroke-dashoffset:0;stroke-opacity:1;color-rendering:auto;image-rendering:auto;shape-rendering:auto;text-rendering:auto;enable-background:accumulate" />
      <rect
         style="color:#000000;clip-rule:nonzero;display:inline;overflow:visible;visibility:visible;opacity:1;isolation:auto;mix-blend-mode:normal;color-interpolation:sRGB;color-interpolation-filters:linearRGB;solid-color:#000000;solid-opacity:1;fill:#000000;fill-opacity:1;fill-rule:evenodd;stroke:#000000;stroke-width:1.83306193;stroke-linecap:round;stroke-linejoin:round;stroke-miterlimit:4;stroke-dasharray:none;stroke-dashoffset:0;stroke-opacity:1;color-rendering:auto;image-rendering:auto;shape-rendering:auto;text-rendering:auto;enable-background:accumulate"
         id="rect4402"
         width="2.4738433"
         height="4.1537843"
         x="32.937706"
         y="23.576155"
         ry="0"
         rx="0" />
      <rect
         style="color:#000000;clip-rule:nonzero;display:inline;overflow:visible;visibility:visible;opacity:1;isolation:auto;mix-blend-mode:normal;color-interpolation:sRGB;color-interpolation-filters:linearRGB;solid-color:#000000;solid-opacity:1;fill:#000000;fill-opacity:1;fill-rule:evenodd;stroke:#000000;stroke-width:1.83306193;stroke-linecap:round;stroke-linejoin:round;stroke-miterlimit:4;stroke-dasharray:none;stroke-dashoffset:0;stroke-opacity:1;color-rendering:auto;image-rendering:auto;shape-rendering:auto;text-rendering:auto;enable-background:accumulate"
         id="rect4410"
         width="2.4738433"
         height="4.1537843"
         x="17.270033"
         y="35.4314"
         ry="0"
         rx="0" />
      <rect
         rx="0"
         ry="0"
         y="35.4314"
         x="22.49259"
         height="4.1537843"
         width="2.4738433"
         id="rect4412"
         style="color:#000000;clip-rule:nonzero;display:inline;overflow:visible;visibility:visible;opacity:1;isolation:auto;mix-blend-mode:normal;color-interpolation:sRGB;color-interpolation-filters:linearRGB;solid-color:#000000;solid-opacity:1;fill:#000000;fill-opacity:1;fill-rule:evenodd;stroke:#000000;stroke-width:1.83306193;stroke-linecap:round;stroke-linejoin:round;stroke-miterlimit:4;stroke-dasharray:none;stroke-dashoffset:0;stroke-opacity:1;color-rendering:auto;image-rendering:auto;shape-rendering:auto;text-rendering:auto;enable-background:accumulate" />
      <rect
         style="color:#000000;clip-rule:nonzero;display:inline;overflow:visible;visibility:visible;opacity:1;isolation:auto;mix-blend-mode:normal;color-interpolation:sRGB;color-interpolation-filters:linearRGB;solid-color:#000000;solid-opacity:1;fill:#000000;fill-opacity:1;fill-rule:evenodd;stroke:#000000;stroke-width:1.83306193;stroke-linecap:round;stroke-linejoin:round;stroke-miterlimit:4;stroke-dasharray:none;stroke-dashoffset:0;stroke-opacity:1;color-rendering:auto;image-rendering:auto;shape-rendering:auto;text-rendering:auto;enable-background:accumulate"
         id="rect4414"
         width="2.4738433"
         height="4.1537843"
         x="27.715151"
         y="35.4314"
         ry="0"
         rx="0" />
      <rect
         rx="0"
         ry="0"
         y="35.4314"
         x="32.937706"
         height="4.1537843"
         width="2.4738433"
         id="rect4416"
         style="color:#000000;clip-rule:nonzero;display:inline;overflow:visible;visibility:visible;opacity:1;isolation:auto;mix-blend-mode:normal;color-interpolation:sRGB;color-interpolation-filters:linearRGB;solid-color:#000000;solid-opacity:1;fill:#000000;fill-opacity:1;fill-rule:evenodd;stroke:#000000;stroke-width:1.83306193;stroke-linecap:round;stroke-linejoin:round;stroke-miterlimit:4;stroke-dasharray:none;stroke-dashoffset:0;stroke-opacity:1;color-rendering:auto;image-rendering:auto;shape-rendering:auto;text-rendering:auto;enable-background:accumulate" />
      <path
         sodipodi:nodetypes="cccc"
         inkscape:connector-curvature="0"
         inkscape:original-d="m 18.572956,35.947205 0,-3.070189 1.248188,-1.218278 22.755703,0"
         inkscape:path-effect="#path-effect4441-3"
         id="path4439"
         d="m 18.572956,35.947205 0,-3.070189 1.248188,-1.218278 22.755703,0"
         style="color:#000000;clip-rule:nonzero;display:inline;overflow:visible;visibility:visible;opacity:1;isolation:auto;mix-blend-mode:normal;color-interpolation:sRGB;color-interpolation-filters:linearRGB;solid-color:#000000;solid-opacity:1;fill:none;fill-opacity:1;fill-rule:evenodd;stroke:#000000;stroke-width:2.55054903;stroke-linecap:round;stroke-linejoin:round;stroke-miterlimit:4;stroke-dasharray:none;stroke-dashoffset:0;stroke-opacity:1;color-rendering:auto;image-rendering:auto;shape-rendering:auto;text-rendering:auto;enable-background:accumulate" />
      <ellipse
         style="color:#000000;clip-rule:nonzero;display:inline;overflow:visible;visibility:visible;opacity:1;isolation:auto;mix-blend-mode:normal;color-interpolation:sRGB;color-interpolation-filters:linearRGB;solid-color:#000000;solid-opacity:1;fill:#ffffff;fill-opacity:1;fill-rule:evenodd;stroke:#000000;stroke-width:1.37479639;stroke-linecap:round;stroke-linejoin:round;stroke-miterlimit:4;stroke-dasharray:none;stroke-dashoffset:0;stroke-opacity:1;color-rendering:auto;image-rendering:auto;shape-rendering:auto;text-rendering:auto;enable-background:accumulate"
         id="ellipse4720"
         cx="26.343679"
         cy="31.669531"
         rx="1.9540875"
         ry="1.9258462" />
    </g>
  </g>
  <g
     id="g4645"
     transform="matrix(1.0494524,0,0,1.0494524,-1.6705463,-1116.549)">
    <g
       id="g4401"
       transform="matrix(0.63999132,0,0,0.63999132,9.7479892,390.999)">
      <g
         style="stroke:#ffffff;stroke-width:4;stroke-miterlimit:4;stroke-dasharray:none"
         transform="translate(-10.141767,-31.167382)"
         id="g5128">
        <path
           id="path5130"
           d="m 23.960545,1097.3899 c -0.313616,0 -0.630223,0.038 -0.9375,0.062 l -0.75,3.5937 c -0.95747,0.2036 -1.827822,0.6124 -2.625,1.125 l -3.125,-2.0312 c -0.471052,0.401 -0.911514,0.8414 -1.3125,1.3125 l 2.03125,3.125 c -0.512591,0.7972 -0.921386,1.6675 -1.125,2.625 l -3.59375,0.75 c -0.02463,0.3073 -0.0625,0.6239 -0.0625,0.9375 0,0.3136 0.03787,0.6302 0.0625,0.9375 l 3.59375,0.75 c 0.203614,0.9574 0.612409,1.8278 1.125,2.625 l -2.03125,3.125 c 0.400986,0.471 0.841448,0.9115 1.3125,1.3125 l 3.125,-2.0313 c 0.797178,0.5126 1.66753,0.9214 2.625,1.125 l 0.75,3.5938 c 0.307277,0.025 0.623884,0.062 0.9375,0.062 0.313616,0 0.630223,-0.038 0.9375,-0.062 l 0.75,-3.5938 c 0.95747,-0.2036 1.827822,-0.6124 2.625,-1.125 l 3.125,2.0313 c 0.471052,-0.401 0.911514,-0.8415 1.3125,-1.3125 l -2.03125,-3.125 c 0.51259,-0.7972 0.921386,-1.6676 1.125,-2.625 l 3.59375,-0.75 c 0.02463,-0.3073 0.0625,-0.6239 0.0625,-0.9375 0,-0.3136 -0.03787,-0.6302 -0.0625,-0.9375 l -3.59375,-0.75 c -0.203614,-0.9575 -0.61241,-1.8278 -1.125,-2.625 l 2.03125,-3.125 c -0.400986,-0.4711 -0.841448,-0.9115 -1.3125,-1.3125 l -3.125,2.0312 c -0.797178,-0.5126 -1.66753,-0.9214 -2.625,-1.125 l -0.75,-3.5937 c -0.307277,-0.025 -0.623884,-0.062 -0.9375,-0.062 z m 0,8 c 1.932997,0 3.5,1.567 3.5,3.5 0,1.933 -1.567003,3.5 -3.5,3.5 -1.932997,0 -3.5,-1.567 -3.5,-3.5 0,-1.933 1.567003,-3.5 3.5,-3.5 z"
           style="fill:url(#radialGradient4649);fill-opacity:1;stroke:#ffffff;stroke-width:4;stroke-linecap:round;stroke-linejoin:round;stroke-miterlimit:4;stroke-dasharray:none;stroke-dashoffset:0;stroke-opacity:1"
           inkscape:connector-curvature="0" />
        <path
           inkscape:connector-curvature="0"
           style="fill:url(#radialGradient3852);fill-opacity:1;stroke:#ffffff;stroke-width:4;stroke-linecap:round;stroke-linejoin:round;stroke-miterlimit:4;stroke-dasharray:none;stroke-dashoffset:0;stroke-opacity:1"
           d="m 23.960545,1097.3899 c -0.313616,0 -0.630223,0.038 -0.9375,0.062 l -0.75,3.5937 c -0.95747,0.2036 -1.827822,0.6124 -2.625,1.125 l -3.125,-2.0312 c -0.471052,0.401 -0.911514,0.8414 -1.3125,1.3125 l 2.03125,3.125 c -0.512591,0.7972 -0.921386,1.6675 -1.125,2.625 l -3.59375,0.75 c -0.02463,0.3073 -0.0625,0.6239 -0.0625,0.9375 0,0.3136 0.03787,0.6302 0.0625,0.9375 l 3.59375,0.75 c 0.203614,0.9574 0.612409,1.8278 1.125,2.625 l -2.03125,3.125 c 0.400986,0.471 0.841448,0.9115 1.3125,1.3125 l 3.125,-2.0313 c 0.797178,0.5126 1.66753,0.9214 2.625,1.125 l 0.75,3.5938 c 0.307277,0.025 0.623884,0.062 0.9375,0.062 0.313616,0 0.630223,-0.038 0.9375,-0.062 l 0.75,-3.5938 c 0.95747,-0.2036 1.827822,-0.6124 2.625,-1.125 l 3.125,2.0313 c 0.471052,-0.401 0.911514,-0.8415 1.3125,-1.3125 l -2.03125,-3.125 c 0.51259,-0.7972 0.921386,-1.6676 1.125,-2.625 l 3.59375,-0.75 c 0.02463,-0.3073 0.0625,-0.6239 0.0625,-0.9375 0,-0.3136 -0.03787,-0.6302 -0.0625,-0.9375 l -3.59375,-0.75 c -0.203614,-0.9575 -0.61241,-1.8278 -1.125,-2.625 l 2.03125,-3.125 c -0.400986,-0.4711 -0.841448,-0.9115 -1.3125,-1.3125 l -3.125,2.0312 c -0.797178,-0.5126 -1.66753,-0.9214 -2.625,-1.125 l -0.75,-3.5937 c -0.307277,-0.025 -0.623884,-0.062 -0.9375,-0.062 z m 0,8 c 1.932997,0 3.5,1.567 3.5,3.5 0,1.933 -1.567003,3.5 -3.5,3.5 -1.932997,0 -3.5,-1.567 -3.5,-3.5 0,-1.933 1.567003,-3.5 3.5,-3.5 z"
           id="path5132" />
      </g>
      <g
         id="g4219"
         transform="translate(-10.141767,-31.167382)"
         style="stroke:#000000">
        <path
           inkscape:connector-curvature="0"
           style="fill:url(#radialGradient4223);fill-opacity:1;stroke:#000000;stroke-width:1;stroke-linecap:round;stroke-linejoin:round;stroke-miterlimit:4;stroke-dasharray:none;stroke-dashoffset:0;stroke-opacity:1"
           d="m 23.960545,1097.3899 c -0.313616,0 -0.630223,0.038 -0.9375,0.062 l -0.75,3.5937 c -0.95747,0.2036 -1.827822,0.6124 -2.625,1.125 l -3.125,-2.0312 c -0.471052,0.401 -0.911514,0.8414 -1.3125,1.3125 l 2.03125,3.125 c -0.512591,0.7972 -0.921386,1.6675 -1.125,2.625 l -3.59375,0.75 c -0.02463,0.3073 -0.0625,0.6239 -0.0625,0.9375 0,0.3136 0.03787,0.6302 0.0625,0.9375 l 3.59375,0.75 c 0.203614,0.9574 0.612409,1.8278 1.125,2.625 l -2.03125,3.125 c 0.400986,0.471 0.841448,0.9115 1.3125,1.3125 l 3.125,-2.0313 c 0.797178,0.5126 1.66753,0.9214 2.625,1.125 l 0.75,3.5938 c 0.307277,0.025 0.623884,0.062 0.9375,0.062 0.313616,0 0.630223,-0.038 0.9375,-0.062 l 0.75,-3.5938 c 0.95747,-0.2036 1.827822,-0.6124 2.625,-1.125 l 3.125,2.0313 c 0.471052,-0.401 0.911514,-0.8415 1.3125,-1.3125 l -2.03125,-3.125 c 0.51259,-0.7972 0.921386,-1.6676 1.125,-2.625 l 3.59375,-0.75 c 0.02463,-0.3073 0.0625,-0.6239 0.0625,-0.9375 0,-0.3136 -0.03787,-0.6302 -0.0625,-0.9375 l -3.59375,-0.75 c -0.203614,-0.9575 -0.61241,-1.8278 -1.125,-2.625 l 2.03125,-3.125 c -0.400986,-0.4711 -0.841448,-0.9115 -1.3125,-1.3125 l -3.125,2.0312 c -0.797178,-0.5126 -1.66753,-0.9214 -2.625,-1.125 l -0.75,-3.5937 c -0.307277,-0.025 -0.623884,-0.062 -0.9375,-0.062 z m 0,8 c 1.932997,0 3.5,1.567 3.5,3.5 0,1.933 -1.567003,3.5 -3.5,3.5 -1.932997,0 -3.5,-1.567 -3.5,-3.5 0,-1.933 1.567003,-3.5 3.5,-3.5 z"
           id="path4215" />
      </g>
    </g>
  </g>
</svg>
