<?xml version="1.0" encoding="UTF-8" standalone="no"?>
<svg
   xmlns:dc="http://purl.org/dc/elements/1.1/"
   xmlns:cc="http://creativecommons.org/ns#"
   xmlns:rdf="http://www.w3.org/1999/02/22-rdf-syntax-ns#"
   xmlns:svg="http://www.w3.org/2000/svg"
   xmlns="http://www.w3.org/2000/svg"
   xmlns:sodipodi="http://sodipodi.sourceforge.net/DTD/sodipodi-0.dtd"
   xmlns:inkscape="http://www.inkscape.org/namespaces/inkscape"
   id="Слой_1"
   data-name="Слой 1"
   viewBox="0 0 24 24"
   version="1.1"
   sodipodi:docname="gerber_job_file.svg"
   inkscape:version="1.0.1 (3bc2e813f5, 2020-09-07)">
  <sodipodi:namedview
     pagecolor="#ffffff"
     bordercolor="#666666"
     borderopacity="1"
     objecttolerance="10"
     gridtolerance="10"
     guidetolerance="10"
     inkscape:pageopacity="0"
     inkscape:pageshadow="2"
     inkscape:window-width="1609"
     inkscape:window-height="1286"
     id="namedview30"
     showgrid="true"
     inkscape:zoom="27.961538"
     inkscape:cx="3.3259971"
     inkscape:cy="13"
     inkscape:window-x="0"
     inkscape:window-y="37"
     inkscape:window-maximized="0"
     inkscape:document-rotation="0"
     inkscape:current-layer="Слой_1">
    <inkscape:grid
       type="xygrid"
       id="grid_kicad"
       spacingx="0.5"
       spacingy="0.5"
       color="#9999ff"
       opacity="0.13"
       empspacing="2" />
  </sodipodi:namedview>
  <metadata
     id="metadata43">
    <rdf:RDF>
      <cc:Work
         rdf:about="">
        <cc:license
           rdf:resource="http://creativecommons.org/licenses/by-sa/4.0/" />
        <dc:format>image/svg+xml</dc:format>
        <dc:type
           rdf:resource="http://purl.org/dc/dcmitype/StillImage" />
        <dc:title>add_arc</dc:title>
      </cc:Work>
      <cc:License
         rdf:about="http://creativecommons.org/licenses/by-sa/4.0/">
        <cc:permits
           rdf:resource="http://creativecommons.org/ns#Reproduction" />
        <cc:permits
           rdf:resource="http://creativecommons.org/ns#Distribution" />
        <cc:requires
           rdf:resource="http://creativecommons.org/ns#Notice" />
        <cc:requires
           rdf:resource="http://creativecommons.org/ns#Attribution" />
        <cc:permits
           rdf:resource="http://creativecommons.org/ns#DerivativeWorks" />
        <cc:requires
           rdf:resource="http://creativecommons.org/ns#ShareAlike" />
      </cc:License>
    </rdf:RDF>
  </metadata>
  <defs
     id="defs25009">
    <style
       id="style25007">.cls-1{fill:#545454;}.cls-2{fill:#b9b9b9;}.cls-3{fill:#1a81c4;}.cls-4{fill:#fff;}.cls-5{fill:#e61c50;}</style>
  </defs>
  <title
     id="title25011">gerber_job_file</title>
  <path
     class="cls-1"
     d="m 3.5008,-0.004 h 14.0009 a 3.5,3.5 0 0 1 3.5,3.5 v 13.998 a 3.5,3.5 0 0 1 -3.5,3.5 H 3.5008 a 3.5,3.5 0 0 1 -3.5,-3.5 V 3.4959 a 3.5,3.5 0 0 1 3.5,-3.4999 z"
     id="path25013" />
  <path
     class="cls-2"
     d="M 7.8509,8.1288 H 4.0062 l -4.0008,-4 v -0.559 c 0,0 0.002,-0.3345 0.0148,-0.4451 0.0135,-0.1164 0.092,-0.46 0.092,-0.46 l 4.354,4.3535 h 3.3847 z"
     id="path25015" />
  <rect
     class="cls-2"
     x="7.3541002"
     y="6.4615002"
     width="3.5836"
     height="2.1493001"
     id="rect25017" />
  <rect
     class="cls-2"
     x="7.3541002"
     y="11.1197"
     width="3.5836"
     height="2.1493001"
     id="rect25019" />
  <rect
     class="cls-2"
     x="7.3541002"
     y="15.7778"
     width="3.5836"
     height="2.1494"
     id="rect25021" />
  <rect
     class="cls-2"
     x="15.7103"
     y="16.9305"
     width="3.5836"
     height="2.1493001"
     id="rect25023" />
  <rect
     class="cls-2"
     x="15.7103"
     y="11.5617"
     width="3.5836"
     height="2.1493001"
     id="rect25025" />
  <rect
     class="cls-2"
     x="15.7103"
     y="6.1929002"
     width="3.5836"
     height="2.1493001"
     id="rect25027" />
  <rect
     class="cls-2"
     x="15.7103"
     y="1.7079"
     width="3.5836"
     height="2.1493001"
     id="rect25029" />
  <path
     class="cls-2"
     d="M 7.8509,3.447 H 4.0062 L 1.3185,0.76 c 0,0 0.3332,-0.2447 0.453,-0.313 A 3.715,3.715 0 0 1 2.329,0.2 l 2.1372,2.1365 h 3.3847 z"
     id="path25031" />
  <rect
     class="cls-2"
     x="7.3541002"
     y="1.8034"
     width="3.5836"
     height="2.1494"
     id="rect25033" />
  <polygon
     class="cls-2"
     points="15.298,19.582 14.089,18.373 14.089,11.54 15.2,11.54 15.2,17.913 15.758,18.472 16.77,18.472 16.77,19.582 "
     id="polygon25035"
     transform="translate(-1,-1)" />
  <rect
     class="cls-2"
     x="13.0887"
     y="-0.0052000284"
     width="1.1109"
     height="8.2880001"
     id="rect25037" />
  <rect
     class="cls-2"
     x="19.186701"
     y="12.1338"
     width="1.8156"
     height="1.1105"
     id="rect25039" />
  <polygon
     class="cls-2"
     points="4.143,21.996 3.519,21.844 3.519,19.581 5.828,17.272 8.402,17.272 8.402,18.383 6.288,18.383 4.63,20.041 4.63,21.996 "
     id="polygon25041"
     transform="translate(-1,-1)" />
  <rect
     class="cls-2"
     x="3.9898"
     y="11.6198"
     width="3.3762"
     height="1.1105"
     id="rect25043" />
  <path
     class="cls-3"
     d="m 15.3878,9.4114 a 1.75,1.75 0 1 1 -1.75,-1.75 1.75,1.75 0 0 1 1.75,1.75 z"
     id="path25045" />
  <path
     class="cls-2"
     d="m 14.8839,9.4114 a 1.2461,1.2461 0 1 1 -1.246,-1.246 1.2459,1.2459 0 0 1 1.246,1.246 z"
     id="path25047" />
  <circle
     class="cls-3"
     cx="2.8613999"
     cy="12.1747"
     r="1.7499"
     id="circle25049" />
  <path
     class="cls-2"
     d="m 4.1074,12.1747 a 1.2461,1.2461 0 1 1 -1.246,-1.246 1.2459,1.2459 0 0 1 1.246,1.246 z"
     id="path25051" />
  <path
     class="cls-4"
     d="m 20.5744,17.2043 a 3.062,3.062 0 1 1 -3.0619,-3.0619 3.0619,3.0619 0 0 1 3.0619,3.0619 z"
     id="path25053" />
  <path
     class="cls-5"
     d="m 23.7541,18.5583 -1.2674,-0.907 -0.015,0.0269 a 5.1976,5.1976 0 0 0 0.0693,-0.6877 5.203,5.203 0 0 0 -0.0738,-0.7314 l 0.0074,0.0127 1.2576,-0.92 A 0.67,0.67 0 0 0 23.917,14.4773 L 22.7843,12.509 a 0.67,0.67 0 0 0 -0.8489,-0.2795 l -1.4277,0.6248 0.0124,0.0215 a 5.2207,5.2207 0 0 0 -1.2774,-0.757 L 19.0733,10.58 A 0.67,0.67 0 0 0 18.4077,9.9836 h -2.271 A 0.67,0.67 0 0 0 15.4709,10.58 l -0.17,1.5453 A 5.2192,5.2192 0 0 0 13.98,12.93 l 0.018,-0.0322 -1.4342,-0.61 a 0.67,0.67 0 0 0 -0.846,0.2886 l -1.1118,1.98 a 0.67,0.67 0 0 0 0.1943,0.8725 l 1.2674,0.907 0.0276,-0.0492 a 5.2141,5.2141 0 0 0 -0.0709,0.7037 5.21,5.21 0 0 0 0.0767,0.7616 l -0.021,-0.0367 -1.2576,0.9205 a 0.67,0.67 0 0 0 -0.1851,0.8744 l 1.1326,1.9685 a 0.67,0.67 0 0 0 0.8489,0.2795 l 1.4279,-0.6249 -0.0293,-0.0507 a 5.22,5.22 0 0 0 1.2933,0.7762 l 0.17,1.5487 a 0.67,0.67 0 0 0 0.6656,0.5964 h 2.271 a 0.67,0.67 0 0 0 0.6656,-0.5964 l 0.17,-1.5484 a 5.2191,5.2191 0 0 0 1.318,-0.7963 l -0.0154,0.0271 1.4344,0.61 a 0.67,0.67 0 0 0 0.8459,-0.2885 l 1.1117,-1.98 a 0.67,0.67 0 0 0 -0.1935,-0.8731 z m -6.4714,0.9334 a 2.5012,2.5012 0 1 1 2.5012,-2.5012 2.5013,2.5013 0 0 1 -2.5012,2.5012 z"
     id="path25055" />
</svg>
