<svg xmlns="http://www.w3.org/2000/svg" height="48" width="48" version="1.0">
 <defs>
  <radialGradient id="p" gradientUnits="userSpaceOnUse" cy="27.875" cx="16" gradientTransform="matrix(1 0 0 .28866 0 19.829)" r="12.125">
   <stop offset="0"/>
   <stop stop-opacity="0" offset="1"/>
  </radialGradient>
  <radialGradient id="q" gradientUnits="userSpaceOnUse" cy="15.491" cx="10.783" gradientTransform="matrix(.40447 0 0 .42758 4.3012 2.4766)" r="17.709">
   <stop stop-color="#fff" offset="0"/>
   <stop stop-color="#c1c7bc" offset="1"/>
  </radialGradient>
  <radialGradient id="r" gradientUnits="userSpaceOnUse" cy="10.499" cx="10.5" gradientTransform="matrix(2.1471,4.6915e-7,-4.6925e-7,2.1471,1.4265,-49.569)" r="10.496">
   <stop stop-color="#f57900" offset="0"/>
   <stop stop-color="#fcaf3e" offset="1"/>
  </radialGradient>
  <linearGradient id="j" y2="51.027" gradientUnits="userSpaceOnUse" x2="26.14" y1="20.927" x1="25.594">
   <stop stop-color="#fff" offset="0"/>
   <stop stop-color="#fff" stop-opacity="0" offset="1"/>
  </linearGradient>
  <linearGradient id="k" y2="-49.625" gradientUnits="userSpaceOnUse" x2="23.732" y1="-40.465" x1="25.866">
   <stop stop-color="#fff" offset="0"/>
   <stop stop-color="#fff" stop-opacity="0" offset="1"/>
  </linearGradient>
  <linearGradient id="l" y2="14.781" gradientUnits="userSpaceOnUse" x2="83.625" y1="15.75" x1="79.25">
   <stop offset="0"/>
   <stop stop-opacity="0" offset="1"/>
  </linearGradient>
  <linearGradient id="m" y2="13.875" gradientUnits="userSpaceOnUse" x2="83.219" gradientTransform="translate(1)" y1="14.062" x1="80.625">
   <stop stop-color="#eeeeec" offset="0"/>
   <stop stop-color="#eeeeec" stop-opacity="0" offset="1"/>
  </linearGradient>
  <linearGradient id="n" y2="12.093" gradientUnits="userSpaceOnUse" x2="83.203" gradientTransform="translate(1)" y1="12.312" x1="78.312">
   <stop stop-color="#555753" offset="0"/>
   <stop stop-color="#888a85" stop-opacity="0" offset="1"/>
  </linearGradient>
  <linearGradient id="o" y2="16.438" gradientUnits="userSpaceOnUse" x2="83.031" gradientTransform="translate(1)" y1="16.406" x1="78.5">
   <stop stop-color="#fff" offset="0"/>
   <stop stop-color="#fff" stop-opacity="0" offset="1"/>
  </linearGradient>
 </defs>
 <g transform="matrix(.83844 0 0 .82825 10.704 39.853)">
  <path opacity=".4" style="color:#000000" d="m28.125 27.875a12.125 3.5 0 1 1 -24.25 0 12.125 3.5 0 1 1 24.25 0z" transform="matrix(1.732,0,0,2,-3.7113,-65.75)" fill="url(#p)"/>
  <path stroke-linejoin="round" d="m15.092 10.078a6.43 7.0998 0 1 1 -12.86 0 6.43 7.0998 0 1 1 12.86 0z" transform="matrix(2.7108 0 0 2.4649 .44798 -51.842)" stroke="#babdb6" stroke-linecap="round" stroke-width=".38686" fill="url(#q)"/>
  <path opacity=".11856" d="m23.969-44.661c-9.5044 0-17.219 7.6827-17.219 17.188 0 0.38564 0.037527 0.77693 0.0625 1.1562 0.60042-8.9602 8.0444-16.031 17.156-16.031 9.1119 0 16.556 7.0711 17.156 16.031 0.02497-0.37932 0.0625-0.77061 0.0625-1.1562 0-9.5048-7.7144-17.188-17.219-17.188z"/>
  <path stroke-linejoin="round" d="m23.166-48.493c-11.463 0.436-20.666 9.901-20.666 21.468 0 11.846 9.6239 21.468 21.471 21.468s21.471-9.6229 21.471-21.468c0-11.846-9.6239-21.468-21.471-21.468-0.27766 0-0.53004-0.01047-0.80516 0zm-0.0671 4.2937c0.29278-0.01484 0.57581 0 0.87225 0 9.4863 0 17.177 7.698 17.177 17.175 0 9.4768-7.6904 17.175-17.177 17.175-9.4863 0-17.177-7.698-17.177-17.175 0-9.1807 7.2284-16.715 16.304-17.175z" stroke="#ce5c00" stroke-linecap="round" fill="url(#r)"/>
  <path opacity=".51031" stroke-linejoin="round" style="color:#000000" d="m43.375 24.75a19.875 19.875 0 1 1 -39.75 0 19.875 19.875 0 1 1 39.75 0z" transform="matrix(1.0299 0 0 1.0299 -.23329 -52.458)" stroke="url(#j)" stroke-linecap="round" stroke-width=".97099" fill="none"/>
  <path stroke-linejoin="round" d="m23.205-23.188 12.357-1.375-11.2-1.6748-1.1568 3.0498z" fill-rule="evenodd" stroke="#2e3436" stroke-linecap="round" fill="#555753"/>
  <path stroke-linejoin="round" d="m23.569-40.703-1.6232 16.549 3.0751-1.0879-1.4519-15.461z" fill-rule="evenodd" stroke="#2e3436" stroke-linecap="round" fill="#555753"/>
  <path stroke-linejoin="round" style="color:#000000" d="m26.25 25.062a2.6875 2.6875 0 1 1 -5.375 0 2.6875 2.6875 0 1 1 5.375 0z" fill-rule="evenodd" transform="translate(0,-50)" stroke="#2e3436" stroke-linecap="round" fill="#555753"/>
  <path opacity=".47423" style="color:#000000" d="m23.5 23.656a1.25 1.25 0 1 1 -2.5 0 1.25 1.25 0 1 1 2.5 0z" fill-rule="evenodd" transform="matrix(-.6 0 0 -.6 36.498 -11.335)" fill="#fff"/>
  <path opacity=".5" stroke-linejoin="round" d="m40.835-46.712a17.103 7.1153 0 1 1 -34.206 0 17.103 7.1153 0 1 1 34.206 0z" transform="matrix(1.0598,0,0,2.5476,-1.1523,92)" stroke-dashoffset=".7" stroke="url(#k)" stroke-linecap="round" stroke-width=".60858" fill="none"/>
  <g transform="translate(-62,-52)">
   <path opacity=".1" d="m85 9.9688c-4.3134 0-8.1444 1.9886-10.719 5.0625l-2.406-2.406a0.5313 0.5313 0 0 0 -0.90625 0.28125l-2 10.5a0.5313 0.5313 0 0 0 0.625 0.625l10.5-2a0.5313 0.5313 0 0 0 0.281 -0.906l-2.5-2.5c1.635-2.1625 4.2032-3.5938 7.125-3.5938 0.06101 0 0.66768-0.0067 1.25 0s1.2312 0.0319 1.2188 0.03125a0.5313 0.5313 0 0 0 0.5625 -0.53125v-4a0.5313 0.5313 0 0 0 -0.501 -0.531c-0.283-0.0105-2.309-0.0312-2.531-0.0312z" fill-rule="evenodd" transform="translate(1,1)" fill="url(#l)"/>
   <path d="m86 10.5c-4.3611 0-8.252 2.0648-10.719 5.2812l-2.781-2.781-2 10.5 10.5-2-2.844-2.844c1.708-2.505 4.584-5.156 7.844-5.156 0.16914 0 2.333 0.02251 2.5 0.03125v-3c-0.168-0.006-2.331-0.031-2.5-0.031z" fill-rule="evenodd" stroke-dashoffset=".7" stroke="url(#n)" stroke-linecap="round" stroke-miterlimit="10" fill="url(#m)"/>
   <path d="m86 11.5c-4.0454 0-7.654 1.8975-9.9375 4.875-0.17123 0.23202-0.43428 0.37884-0.72164 0.40279-0.288 0.024-0.571-0.078-0.779-0.278l-1.437-1.438-1.375 7.188 7.1875-1.375-1.5-1.5c-0.338-0.348-0.378-0.888-0.094-1.281 1.886-2.768 5.058-5.594 8.656-5.594 0.12892 0 1.6658-0.0067 2.25 0 0.11122 0.0013 0.14936-0.000915 0.25 0v-0.96875c-0.703-0.009-2.457-0.031-2.5-0.031z" stroke-dashoffset=".7" stroke="url(#o)" stroke-linecap="round" stroke-miterlimit="10" fill="none"/>
  </g>
 </g>
 <g stroke-width=".75" transform="matrix(.89371 0 0 .67993 -41.472 -13.116)" stroke="#000">
  <polygon points="25.213 42.458 1.018 26.902 25.224 12.379 49.423 27.934" fill="#bcbec0" transform="translate(46.87,47.416)"/>
  <polygon points="25.036 39.169 0.837 23.615 25.042 9.094 49.241 24.649" fill="#808284" transform="translate(46.87,47.416)"/>
  <polygon points="25.213 35.238 1.018 19.684 25.224 5.16 49.423 20.714" fill="#0071bc" transform="translate(46.87,47.416)"/>
  <polygon points="25.217 30.787 1.018 15.232 25.224 0.711 49.423 16.266" fill="#008fd4" transform="translate(46.87,47.416)"/>
 </g>
</svg>
