<?xml version="1.0" encoding="UTF-8" standalone="no"?>
<svg
   xmlns:dc="http://purl.org/dc/elements/1.1/"
   xmlns:cc="http://creativecommons.org/ns#"
   xmlns:rdf="http://www.w3.org/1999/02/22-rdf-syntax-ns#"
   xmlns:svg="http://www.w3.org/2000/svg"
   xmlns="http://www.w3.org/2000/svg"
   xmlns:sodipodi="http://sodipodi.sourceforge.net/DTD/sodipodi-0.dtd"
   xmlns:inkscape="http://www.inkscape.org/namespaces/inkscape"
   id="Слой_1"
   data-name="Слой 1"
   viewBox="0 0 24 24"
   version="1.1"
   sodipodi:docname="gerbview_drill_file.svg"
   inkscape:version="1.0.1 (3bc2e813f5, 2020-09-07)">
  <sodipodi:namedview
     pagecolor="#ffffff"
     bordercolor="#666666"
     borderopacity="1"
     objecttolerance="10"
     gridtolerance="10"
     guidetolerance="10"
     inkscape:pageopacity="0"
     inkscape:pageshadow="2"
     inkscape:window-width="1609"
     inkscape:window-height="1286"
     id="namedview30"
     showgrid="true"
     inkscape:zoom="27.961538"
     inkscape:cx="3.3259971"
     inkscape:cy="13"
     inkscape:window-x="0"
     inkscape:window-y="37"
     inkscape:window-maximized="0"
     inkscape:document-rotation="0"
     inkscape:current-layer="Слой_1">
    <inkscape:grid
       type="xygrid"
       id="grid_kicad"
       spacingx="0.5"
       spacingy="0.5"
       color="#9999ff"
       opacity="0.13"
       empspacing="2" />
  </sodipodi:namedview>
  <metadata
     id="metadata43">
    <rdf:RDF>
      <cc:Work
         rdf:about="">
        <cc:license
           rdf:resource="http://creativecommons.org/licenses/by-sa/4.0/" />
        <dc:format>image/svg+xml</dc:format>
        <dc:type
           rdf:resource="http://purl.org/dc/dcmitype/StillImage" />
        <dc:title>add_arc</dc:title>
      </cc:Work>
      <cc:License
         rdf:about="http://creativecommons.org/licenses/by-sa/4.0/">
        <cc:permits
           rdf:resource="http://creativecommons.org/ns#Reproduction" />
        <cc:permits
           rdf:resource="http://creativecommons.org/ns#Distribution" />
        <cc:requires
           rdf:resource="http://creativecommons.org/ns#Notice" />
        <cc:requires
           rdf:resource="http://creativecommons.org/ns#Attribution" />
        <cc:permits
           rdf:resource="http://creativecommons.org/ns#DerivativeWorks" />
        <cc:requires
           rdf:resource="http://creativecommons.org/ns#ShareAlike" />
      </cc:License>
    </rdf:RDF>
  </metadata>
  <defs
     id="defs25063">
    <style
       id="style25061">.cls-1{fill:#b9b9b9;}.cls-2{fill:#1a81c4;}.cls-3{fill:#fff;}</style>
  </defs>
  <title
     id="title25065">gerbview_drill_file</title>
  <rect
     class="cls-1"
     x="2.0637"
     y="1.0043001"
     width="21.935101"
     height="21.9914"
     rx="3.6605"
     id="rect25067" />
  <rect
     class="cls-2"
     x="0.0011999607"
     y="5.5005999"
     width="18.7099"
     height="9.2299004"
     id="rect25069" />
  <path
     class="cls-3"
     d="M 3.1963,13.4375 H 2.123 v -1.0361 h 1.0733 z"
     id="path25071" />
  <path
     class="cls-3"
     d="M 4.3486,11.0986 A 3.1764,3.1764 0 0 1 4.8408,9.2432 1.591,1.591 0 0 1 6.2246,8.5381 1.5093,1.5093 0 0 1 6.9229,8.6963 1.5658,1.5658 0 0 1 7.457,9.1475 V 6.502 h 1.0772 v 6.9355 H 7.63 L 7.5235,12.8418 A 1.5884,1.5884 0 0 1 6.9698,13.3555 1.557,1.557 0 0 1 6.2159,13.5312 1.6291,1.6291 0 0 1 4.8409,12.8857 2.7161,2.7161 0 0 1 4.3487,11.1924 Z m 1.0772,0.0938 A 1.9413,1.9413 0 0 0 5.6807,12.2549 0.8929,0.8929 0 0 0 6.49,12.65 1.0824,1.0824 0 0 0 7.0691,12.5035 1.1156,1.1156 0 0 0 7.4568,12.0855 V 9.9873 A 1.1269,1.1269 0 0 0 7.0662,9.5723 1.0485,1.0485 0 0 0 6.4988,9.4229 0.87,0.87 0 0 0 5.6873,9.8877 2.46,2.46 0 0 0 5.4256,11.0986 Z"
     id="path25073" />
  <path
     class="cls-3"
     d="M 12.083,9.6006 11.6221,9.583 a 0.96,0.96 0 0 0 -0.5264,0.1338 0.8794,0.8794 0 0 0 -0.3252,0.377 v 3.3437 H 9.6924 V 8.627 h 0.9844 l 0.0712,0.6982 a 1.5456,1.5456 0 0 1 0.4678,-0.5781 1.0838,1.0838 0 0 1 0.6582,-0.209 0.9815,0.9815 0 0 1 0.1826,0.0156 1.4216,1.4216 0 0 1 0.1543,0.0381 z"
     id="path25075" />
  <path
     class="cls-3"
     d="M 13.9844,13.4375 H 12.9072 V 6.502 h 1.0772 z"
     id="path25077" />
</svg>
