<svg xmlns="http://www.w3.org/2000/svg" height="48" width="48" version="1.1" viewBox="0 0 48 48">
 <defs>
  <filter id="a" color-interpolation-filters="sRGB">
   <feGaussianBlur stdDeviation="0.56527242"/>
  </filter>
 </defs>
 <path opacity=".45703" d="m12.092 7.6156-4.45 12.346h3.3375l1.1125-4.1154h4.45l1.1125 4.1154h3.3375l-4.45-12.346h-4.45zm2.225 2.0577 1.1125 4.1154h-2.225l1.112-4.1157z" fill-rule="evenodd" transform="matrix(1.3239,0,0,1.285,3.8128,-4.5683)" filter="url(#a)"/>
 <path opacity=".45703" d="m19.879 28.193 0.08706-5.9593 8.8129 9.0458-8.9 9.2597v-6.1731c-7.7875 0-12.15-4.1154-12.15-12.346h6.5879c0 4.1154 2.225 6.1731 5.5625 6.1731z" fill-rule="evenodd" transform="matrix(1.0832,0,0,1.0385,9.1922,3.3883)" filter="url(#a)"/>
 <path opacity=".45703" d="m20.992 29.222v-3.0866l5.5625 5.1443-5.5625 6.1731v-4.1154c-4.45 0-11.125-1.0289-11.125-9.2597h3.3375c0 4.1154 4.45 5.1443 7.7875 5.1443z" fill-rule="evenodd" transform="matrix(1.0832,0,0,1.0385,9.1922,3.3883)" filter="url(#a)"/>
 <path fill-rule="evenodd" fill="#695f00" d="m16.191 2.502-5.891 15.865h4.4186l1.4729-5.2885h5.8915l1.4729 5.2885h4.4186l-5.896-15.862h-5.892zm2.9457 2.6442 1.4729 5.2885h-2.9457l1.4729-5.2885z"/>
 <path fill-rule="evenodd" d="m27.756 30.471 0.09431-6.1885 9.5463 9.3938-9.6406 9.6159v-6.4106c-8.4355 0-13.162-4.2737-13.162-12.821h7.1362c0 4.2737 2.4102 6.4106 6.0254 6.4106z"/>
 <path fill-rule="evenodd" fill="#00bd00" d="m28.961 31.539v-3.2053l6.0254 5.3422-6.0254 6.4106v-4.2737c-4.8203 0-12.051-1.0684-12.051-9.6159h3.6152c0 4.2737 4.8203 5.3422 8.4355 5.3422z"/>
</svg>
