<?xml version="1.0" encoding="UTF-8" standalone="no"?>
<svg
   xmlns:dc="http://purl.org/dc/elements/1.1/"
   xmlns:cc="http://creativecommons.org/ns#"
   xmlns:rdf="http://www.w3.org/1999/02/22-rdf-syntax-ns#"
   xmlns:svg="http://www.w3.org/2000/svg"
   xmlns="http://www.w3.org/2000/svg"
   xmlns:sodipodi="http://sodipodi.sourceforge.net/DTD/sodipodi-0.dtd"
   xmlns:inkscape="http://www.inkscape.org/namespaces/inkscape"
   height="48"
   width="48"
   version="1.1"
   viewBox="0 0 48 48"
   id="svg2"
   inkscape:version="0.48.4 r9939"
   sodipodi:docname="gl_change.svg">
  <metadata
     id="metadata23">
    <rdf:RDF>
      <cc:Work
         rdf:about="">
        <dc:format>image/svg+xml</dc:format>
        <dc:type
           rdf:resource="http://purl.org/dc/dcmitype/StillImage" />
      </cc:Work>
    </rdf:RDF>
  </metadata>
  <sodipodi:namedview
     pagecolor="#ffffff"
     bordercolor="#666666"
     borderopacity="1"
     objecttolerance="10"
     gridtolerance="10"
     guidetolerance="10"
     inkscape:pageopacity="0"
     inkscape:pageshadow="2"
     inkscape:window-width="762"
     inkscape:window-height="621"
     id="namedview21"
     showgrid="false"
     inkscape:zoom="9.116047"
     inkscape:cx="27.806067"
     inkscape:cy="11.725721"
     inkscape:window-x="243"
     inkscape:window-y="42"
     inkscape:window-maximized="0"
     inkscape:current-layer="svg2" />
  <defs
     id="defs4">
    <filter
       id="a"
       color-interpolation-filters="sRGB">
      <feGaussianBlur
         stdDeviation="0.56527242"
         id="feGaussianBlur7" />
    </filter>
    <filter
       inkscape:collect="always"
       id="filter3774"
       x="-0.070598749"
       width="1.1411975"
       y="-0.36210326"
       height="1.7242065">
      <feGaussianBlur
         inkscape:collect="always"
         stdDeviation="0.73080736"
         id="feGaussianBlur3776" />
    </filter>
  </defs>
  <g
     id="g3005"
     transform="translate(-5.112097,-0.13937584)">
    <path
       id="path9"
       transform="matrix(1.3239,0,0,1.285,3.8128,-4.5683)"
       d="m 12.092,7.6156 -4.45,12.346 h 3.3375 l 1.1125,-4.1154 h 4.45 l 1.1125,4.1154 h 3.3375 l -4.45,-12.346 h -4.45 z m 2.225,2.0577 1.1125,4.1154 h -2.225 l 1.112,-4.1157 z"
       inkscape:connector-curvature="0"
       style="opacity:0.45702999;fill-rule:evenodd;filter:url(#a)" />
    <path
       id="path15"
       d="M 16.191,2.502 10.3,18.367 h 4.4186 l 1.4729,-5.2885 h 5.8915 l 1.4729,5.2885 h 4.4186 L 22.0785,2.505 h -5.892 z m 2.9457,2.6442 1.4729,5.2885 h -2.9457 l 1.4729,-5.2885 z"
       inkscape:connector-curvature="0"
       style="fill:#695f00;fill-rule:evenodd" />
  </g>
  <text
     xml:space="preserve"
     style="font-size:40px;font-style:normal;font-variant:normal;font-weight:normal;font-stretch:normal;line-height:125%;letter-spacing:0px;word-spacing:0px;fill:#555555;fill-opacity:1;stroke:none;font-family:Comic Sans MS;-inkscape-font-specification:Comic Sans MS;filter:url(#filter3774)"
     x="20.436575"
     y="44.546696"
     id="text3038-1"
     sodipodi:linespacing="125%"
     transform="matrix(1,0,0,0.98603477,-0.54848331,-0.53478697)"
     inkscape:transform-center-x="6.0333168"
     inkscape:transform-center-y="6.3624068"><tspan
       sodipodi:role="line"
       id="tspan3040-7"
       x="20.436575"
       y="44.546696"
       style="font-size:40px;fill:#555555;fill-opacity:1">...</tspan></text>
  <text
     xml:space="preserve"
     style="font-size:39.71971512px;font-style:normal;font-variant:normal;font-weight:normal;font-stretch:normal;line-height:125%;letter-spacing:0px;word-spacing:0px;fill:#000000;fill-opacity:1;stroke:none;font-family:Comic Sans MS;-inkscape-font-specification:Comic Sans MS"
     x="18.517761"
     y="42.993546"
     id="text3038"
     sodipodi:linespacing="125%"
     transform="scale(1.0070566,0.99299284)"><tspan
       sodipodi:role="line"
       id="tspan3040"
       x="18.517761"
       y="42.993546"
       style="font-size:39.71971512px">...</tspan></text>
  <g
     id="g3009"
     transform="translate(-13.222666,-3.8370555)">
    <path
       id="path11"
       transform="matrix(1.0832,0,0,1.0385,9.1922,3.3883)"
       d="m 19.879,28.193 0.08706,-5.9593 8.8129,9.0458 -8.9,9.2597 v -6.1731 c -7.7875,0 -12.15,-4.1154 -12.15,-12.346 h 6.5879 c 0,4.1154 2.225,6.1731 5.5625,6.1731 z"
       inkscape:connector-curvature="0"
       style="opacity:0.45702999;fill-rule:evenodd;filter:url(#a)" />
    <g
       id="g3000">
      <path
         d="m 20.992,29.222 v -3.0866 l 5.5625,5.1443 -5.5625,6.1731 v -4.1154 c -4.45,0 -11.125,-1.0289 -11.125,-9.2597 h 3.3375 c 0,4.1154 4.45,5.1443 7.7875,5.1443 z"
         transform="matrix(1.0832,0,0,1.0385,9.1922,3.3883)"
         id="path13"
         inkscape:connector-curvature="0"
         style="opacity:0.45702999;fill-rule:evenodd;filter:url(#a)" />
      <path
         d="m 27.756,30.471 0.09431,-6.1885 9.5463,9.3938 -9.6406,9.6159 v -6.4106 c -8.4355,0 -13.162,-4.2737 -13.162,-12.821 h 7.1362 c 0,4.2737 2.4102,6.4106 6.0254,6.4106 z"
         id="path17"
         inkscape:connector-curvature="0"
         style="fill-rule:evenodd" />
      <path
         d="m 28.961,31.539 v -3.2053 l 6.0254,5.3422 -6.0254,6.4106 v -4.2737 c -4.8203,0 -12.051,-1.0684 -12.051,-9.6159 h 3.6152 c 0,4.2737 4.8203,5.3422 8.4355,5.3422 z"
         id="path19"
         inkscape:connector-curvature="0"
         style="fill:#00bd00;fill-rule:evenodd" />
    </g>
  </g>
</svg>
