<svg xmlns="http://www.w3.org/2000/svg" height="48" width="48" version="1.1" viewBox="0 0 48 48">
 <defs>
  <filter id="a" color-interpolation-filters="sRGB">
   <feGaussianBlur stdDeviation="0.70985293"/>
  </filter>
 </defs>
 <g opacity=".35156" filter="url(#a)" fill-rule="evenodd">
  <path d="m22.375 29.952 0.08706-5.9593 8.8129 9.0458-8.9 9.2597v-6.1731c-7.7875 0-12.15-4.1154-12.15-12.346h6.5879c0 4.1154 2.225 6.1731 5.5625 6.1731z"/>
  <path d="m14.675 8.5597-4.45 12.346h3.3375l1.1125-4.1154h4.45l1.1125 4.1154h3.3375l-4.45-12.346h-4.45zm2.225 2.0577 1.1125 4.1154h-2.225l1.113-4.115z"/>
  <path d="m34.7 27.079-4.45 12.346h3.3375l1.112-4.115h4.45l1.1125 4.1154h3.338l-4.45-12.346h-4.45zm2.225 2.0577 1.1125 4.1154h-2.225l1.1125-4.1154z"/>
 </g>
 <path fill-rule="evenodd" d="m32.475 25.021-4.45 12.346h3.3375l1.1125-4.1154h4.45l1.1125 4.1154h3.3375l-4.45-12.346h-4.45zm2.225 2.0577 1.1125 4.1154h-2.225l1.113-4.115z"/>
 <path fill-rule="evenodd" fill="#695f00" d="m12.45 6.502-4.45 12.346h3.3375l1.112-4.115h4.45l1.1125 4.1154h3.338l-4.45-12.346h-4.45zm2.225 2.0577 1.1125 4.1154h-2.225l1.112-4.1153z"/>
 <path fill-rule="evenodd" d="m20.238 27.079 0.08706-5.9593 8.8129 9.0458-8.9 9.2597v-6.1731c-7.7875 0-12.15-4.1154-12.15-12.346h6.5879c0 4.1154 2.225 6.1731 5.5625 6.1731z"/>
 <path fill-rule="evenodd" fill="#00bd00" d="m21.35 28.108v-3.0866l5.5625 5.1443-5.5625 6.1731v-4.1154c-4.45 0-11.125-1.0289-11.125-9.2597h3.3375c0 4.1154 4.45 5.1443 7.7875 5.1443z"/>
</svg>
