<svg xmlns="http://www.w3.org/2000/svg" height="48" width="48" version="1.1" viewBox="0 0 48 48">
 <defs>
  <filter id="a" color-interpolation-filters="sRGB">
   <feGaussianBlur stdDeviation="0.56527242"/>
  </filter>
 </defs>
 <g opacity=".45703" fill-rule="evenodd" transform="translate(-23,-20.6)" filter="url(#a)">
  <path d="m35.092 28.216-4.45 12.346h3.3375l1.1125-4.1154h4.45l1.1125 4.1154h3.3375l-4.45-12.346h-4.45zm2.225 2.0577 1.1125 4.1154h-2.225l1.1125-4.1154z"/>
  <path d="m42.879 48.793 0.08706-5.9593 8.8129 9.0458-8.9 9.2597v-6.1731c-7.7875 0-12.15-4.1154-12.15-12.346h6.5879c0 4.1154 2.225 6.1731 5.5625 6.1731z"/>
  <path d="m43.992 49.822v-3.0866l5.5625 5.1443-5.5625 6.1731v-4.1154c-4.45 0-11.125-1.0289-11.125-9.2597h3.3375c0 4.1154 4.45 5.1443 7.7875 5.1443z"/>
  <path d="m53.688 44.216h17.071v4.6317h-1.2193l-1.829-2.3158h-3.0484v12.158l2.4387 1.7369v1.1579h-9.7548v-1.1579l2.4387-1.7369v-12.158h-3.0484l-1.829 2.3158h-1.221v-4.632z"/>
 </g>
 <path fill-rule="evenodd" fill="#695f00" d="m9.35 5.502-4.45 12.346h3.3375l1.1125-4.115h4.45l1.1125 4.1154h3.338l-4.45-12.346h-4.45zm2.225 2.0577 1.1125 4.1154h-2.225l1.112-4.1153z"/>
 <path fill-rule="evenodd" d="m17.138 26.079 0.08706-5.9593 8.8129 9.0458-8.9 9.2597v-6.1731c-7.7875 0-12.15-4.1154-12.15-12.346h6.5879c0 4.1154 2.225 6.1731 5.5625 6.1731z"/>
 <path fill-rule="evenodd" fill="#00bd00" d="m18.25 27.108v-3.0866l5.5625 5.1443-5.5625 6.1731v-4.1154c-4.45 0-11.125-1.0289-11.125-9.2597h3.3375c0 4.1154 4.45 5.1443 7.7875 5.1443z"/>
 <path fill-rule="evenodd" fill="#00009b" d="m27.946 21.502h17.071v4.6317h-1.2193l-1.829-2.3158h-3.0484v12.158l2.4387 1.7369v1.1579h-9.7548v-1.1579l2.4387-1.7369v-12.158h-3.0484l-1.829 2.3158h-1.221v-4.632z"/>
</svg>
