<svg xmlns="http://www.w3.org/2000/svg" height="48" width="48" version="1.1" viewBox="0 0 48 48">
 <defs>
  <filter id="f" height="1.2769" width="1.2769" color-interpolation-filters="sRGB" y="-.13847" x="-.13847">
   <feGaussianBlur stdDeviation="0.11539203"/>
  </filter>
  <radialGradient id="j" gradientUnits="userSpaceOnUse" cy="39.161" cx="25.456" gradientTransform="matrix(1 0 0 .31532 0 26.813)" r="19.622">
   <stop offset="0"/>
   <stop stop-opacity="0" offset="1"/>
  </radialGradient>
  <linearGradient id="i" y2="39.685" gradientUnits="userSpaceOnUse" x2="34.534" gradientTransform="matrix(1.2419,0,0,1.2419,-93.184,-24.053)" y1="12.285" x1="14.463">
   <stop stop-color="#c9c9c9" offset="0"/>
   <stop stop-color="#f8f8f8" offset=".25"/>
   <stop stop-color="#e2e2e2" offset=".5"/>
   <stop stop-color="#b0b0b0" offset=".75"/>
   <stop stop-color="#c9c9c9" offset="1"/>
  </linearGradient>
  <linearGradient id="g" y2="6.7758" gradientUnits="userSpaceOnUse" x2="20.631" gradientTransform="matrix(.98748 0 0 1.0024 2.1114 14.453)" y1="42.254" x1="19.648">
   <stop stop-color="#b6b6b6" offset="0"/>
   <stop stop-color="#f2f2f2" offset=".5"/>
   <stop stop-color="#fafafa" offset=".67613"/>
   <stop stop-color="#d8d8d8" offset=".84052"/>
   <stop stop-color="#f2f2f2" offset=".875"/>
   <stop stop-color="#dbdbdb" offset="1"/>
  </linearGradient>
  <linearGradient id="h" y2="-4.3003" gradientUnits="userSpaceOnUse" x2="25.291" gradientTransform="matrix(.99518 0 0 .9948 11.761 8.4873)" y1="-3.6324" x1="50.153">
   <stop stop-color="#fff" offset="0"/>
   <stop offset="1"/>
  </linearGradient>
 </defs>
 <g transform="matrix(0,-2.1261,1.54,0,1.4337,44.254)">
  <rect fill-opacity="0" height="16" width="16" y="0" x="0"/>
 </g>
 <g transform="matrix(.89466 0 0 .82285 38.16 -14.253)">
  <g opacity=".71875" filter="url(#f)" transform="matrix(11.8,0,0,11.536,-260.89,-12.073)">
   <path fill-rule="evenodd" d="m-15.125 8.9375a0.90625 0.9375 0 1 1 -1.8125 0 0.90625 0.9375 0 1 1 1.8125 0z" transform="matrix(1.1034,0,-2.1667e-7,1.0667,37.69,-5.5333)"/>
  </g>
  <path d="m-15.125 8.9375a0.90625 0.9375 0 1 1 -1.8125 0 0.90625 0.9375 0 1 1 1.8125 0z" transform="matrix(9.1879,0,-1.8041e-6,8.7704,119.31,-46.412)" stroke="#16bf11" stroke-width=".79393" fill="none"/>
  <g fill="#fff" transform="matrix(4.6582,0,0,4.6768,-121.15,13.266)">
   <path d="m-15.125 8.9375a0.90625 0.9375 0 1 1 -1.8125 0 0.90625 0.9375 0 1 1 1.8125 0z" fill-rule="evenodd" transform="matrix(1.1034,0,-2.1667e-7,1.0667,37.69,-5.5333)" fill="#fff"/>
  </g>
 </g>
 <g transform="matrix(2.3328 0 0 1.5888 1.4831 -.29289)">
  <rect fill-opacity="0" height="16" width="16" y="0" x="0"/>
 </g>
 <g transform="matrix(.60168 0 0 .58022 -5.3199 33.103)">
  <path opacity=".40909" style="color:#000000" d="m45.078 39.161a19.622 6.1872 0 1 1 -39.244 0 19.622 6.1872 0 1 1 39.244 0z" transform="translate(-89.04,-14.369)" fill="url(#j)"/>
  <path style="color:#000000" fill="url(#i)" d="m-64.906-16.376c-0.46544 0.03185-0.91783 0.10394-1.375 0.15625h-0.03125l-1.0938 5.9688c-1.7827 0.40599-3.4599 1.095-4.9688 2.0312l-4.9062-3.5312c-1.3263 1.0297-2.5332 2.2306-3.5938 3.5312l3.4062 4.9687c-1.0342 1.5805-1.812 3.3852-2.25 5.2812-0.000075 0.009-0.000061 0.02969 0 0.03125l-5.9375 0.9375c-0.10855 0.88663-0.15625 1.8029-0.15625 2.7188 0 0.7493 0.02069 1.4886 0.09375 2.2188l5.9375 1.0625c0.42228 2.0619 1.2245 3.9875 2.3438 5.6875l-3.5312 4.8438c1.0113 1.2555 2.1789 2.3986 3.4375 3.4062l5-3.4375c1.7474 1.1147 3.6981 1.8964 5.8125 2.2812l0.9375 5.9062c0.66618 0.06064 1.3493 0.0625 2.0312 0.0625 0.96268-0.000001 1.8822-0.03648 2.8125-0.15625l1.125-6.0312c2.0076-0.4996 3.8935-1.3663 5.5312-2.5312l4.8125 3.5c1.248-1.0618 2.3893-2.2823 3.375-3.5938l-3.5-5.0625c0.94785-1.637 1.6046-3.4431 1.9375-5.375l5.9062-0.9375c0.05179-0.61635 0.0625-1.2141 0.0625-1.8438 0-1.0942-0.12718-2.1671-0.28125-3.2188l-6-1.0938c-0.47019-1.7362-1.2417-3.3561-2.2188-4.8125l3.5312-4.8437c-1.0946-1.3386-2.3432-2.5752-3.7188-3.625l-5.0938 3.5c-1.464-0.86584-3.0395-1.5302-4.75-1.9062l-0.9375-5.9375c-0.8533-0.10038-1.7136-0.15625-2.5938-0.15625-0.23787 0.000001-0.48268-0.0075-0.71875 0-0.11508 0.0036-0.22897-0.0067-0.34375 0-0.03109 0.0018-0.06272-0.0021-0.09375 0zm0.8125 15.188c0.11417-0.0058 0.22815 0 0.34375 0 3.6991 0 6.7188 3.0196 6.7188 6.7188 0.000001 3.6991-3.0196 6.6875-6.7188 6.6875-3.6991 0.000001-6.6875-2.9884-6.6875-6.6875 0.000001-3.5835 2.8046-6.5392 6.3438-6.7188z" stroke="#808080"/>
  <path opacity=".64773" style="color:#000000" d="m36.239 23.782a12.728 12.728 0 1 1 -25.456 0 12.728 12.728 0 1 1 25.456 0z" transform="matrix(.60652 0 0 .60652 -78.006 -8.9075)" stroke="#fff" stroke-width="1.6488" fill="none"/>
  <path opacity=".34659" style="color:#000000" d="m-65.598-15.194-0.87819 5.779c-1.671 0.38055-4.7447 1.5444-6.159 2.422l-4.672-3.4872c-1.2432 0.96516-1.3284 1.0306-2.3225 2.2498l3.3781 5.01c-0.96942 1.4815-2.1338 4.1215-2.5519 6.0081 0 0-5.9194 0.99784-5.9194 0.99784-0.10175 0.83107-0.05285 2.6098 0.01563 3.2942l5.6542 1.0186c0.39581 1.9327 1.877 5.0436 2.9262 6.637l-3.5756 4.724c0.94794 1.1768 1.1377 1.2845 2.3174 2.229l4.7812-3.5028c1.6379 1.0449 4.889 2.3159 6.8709 2.6766l0.78469 5.7063c0.62443 0.05684 2.3495 0.21628 3.2214 0.10402l0.87819-5.9402c1.8817-0.46829 5.1332-1.803 6.6683-2.8949l4.7761 3.4508c1.1698-0.99525 1.1803-1.1452 2.1042-2.3745l-3.5392-5.0307c0.88845-1.5344 2.0372-4.5352 2.3492-6.346l5.7946-0.96146c0.04855-0.57772 0.05091-2.1888-0.0935-3.1745l-5.9038-1.0186c-0.44073-1.6274-1.9532-4.56-2.869-5.9251l3.7524-4.724c-1.026-1.2547-1.4074-1.4269-2.6968-2.4109l-4.9423 3.5392c-1.3722-0.81157-4.1086-2.0487-5.7119-2.4012l-0.87308-5.6542c-0.79982-0.09408-3.1074-0.05231-3.5645 0z" stroke="#fff" fill="none"/>
 </g>
 <g transform="matrix(-1.2391,0,0,1.2707,53.932,-3.0907)">
  <path style="color:#000000" d="m19.392 32.998 21.354 22.179c0.86405 1.0024 3.6019 1.7772 5.4312 0 1.7665-1.7162 1.3578-4.1351-0.37031-5.8893l-20.49-22.304c2.53-7.134-2.59-13.126-9.196-11.842l-1.4195 1.3157 4.4437 4.2604 0.24687 3.7591-3.3178 3.0744-3.9649-0.44302-4.0734-3.8844s-1.4281 1.4323-1.4281 1.4323c-0.66423 6.4389 5.9678 12.194 12.784 8.3414z" stroke="#7c7e79" stroke-width="1.833" fill="url(#g)"/>
  <path opacity=".42614" style="color:#000000" d="m19.629 31.542 21.591 22.859c0.66889 0.77601 2.7883 1.3758 4.2044 0 1.3675-1.3286 1.0511-3.2011-0.28666-4.5591l-20.791-22.395c1.686-7.419-2.09-11.419-7.712-11.276l-0.30372 0.31203 4.051 3.6938 0.14635 4.773-4.0633 3.7648-4.7698-0.52299-3.5716-3.4144-0.39649 0.49086c-0.35136 6.8126 7.299 9.9126 11.902 6.2745z" stroke="#fff" stroke-width="1.1328" fill="none"/>
  <rect opacity=".17045" style="color:#000000" transform="matrix(.69254 .72138 -.71089 .7033 0 0)" rx="1.0015" ry="1.0012" height="2.3282" width="26.366" stroke="url(#h)" y="3.6523" x="37.661" stroke-width="1.1329" fill="none"/>
  <path style="color:#000000" d="m43.25 37.5a1.375 1.375 0 1 1 -2.75 0 1.375 1.375 0 1 1 2.75 0z" transform="matrix(.98748 0 0 1.0024 1.9879 14.579)" stroke="#a1a1a1" stroke-width="1.1386" fill="#fff"/>
 </g>
</svg>
