<svg xmlns="http://www.w3.org/2000/svg" xml:space="preserve" height="48" width="48" version="1.0" xmlns:xlink="http://www.w3.org/1999/xlink"><defs><radialGradient id="o" xlink:href="#a" gradientUnits="userSpaceOnUse" cy="486.65" cx="605.71" gradientTransform="matrix(-2.7744,0,0,1.9697,112.76,-872.89)" r="117.14"/><linearGradient id="a"><stop offset="0"/><stop stop-opacity="0" offset="1"/></linearGradient><radialGradient id="aa" xlink:href="#a" gradientUnits="userSpaceOnUse" cy="486.65" cx="605.71" gradientTransform="matrix(2.7744,0,0,1.9697,-1891.6,-872.89)" r="117.14"/><linearGradient id="t" y2="609.51" gradientUnits="userSpaceOnUse" x2="302.86" gradientTransform="matrix(2.7744,0,0,1.9697,-1892.2,-872.89)" y1="366.65" x1="302.86"><stop stop-opacity="0" offset="0"/><stop offset=".5"/><stop stop-opacity="0" offset="1"/></linearGradient><linearGradient id="q" y2="-42.219" gradientUnits="userSpaceOnUse" x2="14.049" gradientTransform="matrix(.33692 0 0 .16689 17.983 15.462)" y1="166.13" x1="52.006"><stop stop-color="#ccc" offset="0"/><stop stop-color="#fff" offset=".9831"/></linearGradient><linearGradient id="p" y2="35.569" gradientUnits="userSpaceOnUse" x2="64.388" gradientTransform="matrix(.3541 0 0 .3541 1.6387 -.083649)" y1="65.124" x1="64.388">
						<stop stop-color="#fff" offset="0"/>
						<stop stop-color="#ff6200" offset=".85390"/>
						<stop stop-color="#f25d00" offset="1"/>
						<midPointStop stop-color="#FFFFFF" offset="0"/>
						<midPointStop stop-color="#FFFFFF" offset="0.5"/>
						<midPointStop stop-color="#FF6200" offset="0.8539"/>
						<midPointStop stop-color="#FF6200" offset="0.5"/>
						<midPointStop stop-color="#F25D00" offset="1"/>
					</linearGradient><radialGradient id="u" gradientUnits="userSpaceOnUse" cy="24.203" cx="7.5327" gradientTransform="matrix(4.1001,0,0,4.2013,-25.415,-78.54)" r="8.2452"><stop stop-color="#fff" offset="0"/><stop stop-color="#fff" stop-opacity="0" offset="1"/></radialGradient><radialGradient id="v" gradientUnits="userSpaceOnUse" cy="36.778" cx="19.986" gradientTransform="matrix(1.1253 0 0 .98274 -3.4287 .56579)" r="1.0821"><stop stop-color="#edd400" offset="0"/><stop stop-color="#980" offset="1"/></radialGradient><radialGradient id="w" gradientUnits="userSpaceOnUse" cy="37.426" cx="20.444" gradientTransform="matrix(1.1253 0 0 .98274 -3.4287 .73111)" r="1.0821"><stop offset="0"/><stop stop-opacity="0" offset="1"/></radialGradient><linearGradient id="r" y2="32.654" gradientUnits="userSpaceOnUse" x2="17.683" gradientTransform="matrix(.89879 0 0 1.0719 .47802 -2.0808)" y1="26.057" x1="17.603"><stop stop-opacity=".18557" offset="0"/><stop stop-color="#fff" offset="1"/></linearGradient><radialGradient id="x" gradientUnits="userSpaceOnUse" cy="19.554" cx="11.681" gradientTransform="matrix(4.1001,0,0,-4.2013,-5.1981,105.35)" r="8.2452"><stop offset="0"/><stop stop-opacity="0" offset="1"/></radialGradient><radialGradient id="y" gradientUnits="userSpaceOnUse" cy="30.443" cx="29.913" gradientTransform="matrix(3.7515,0,0,3.1478,-82.009,-65.707)" r="4.0019"><stop stop-color="#fff" offset="0"/><stop stop-color="#fff" stop-opacity="0" offset="1"/></radialGradient><radialGradient id="z" gradientUnits="userSpaceOnUse" cy="10.578" cx="24.195" gradientTransform="matrix(1.1253,-3.5854e-8,4.2698e-8,1.3401,-3.0067,1.3554)" r="15.243"><stop stop-color="#575757" offset="0"/><stop stop-color="#575757" stop-opacity="0" offset="1"/></radialGradient><linearGradient id="s" y2="41.032" gradientUnits="userSpaceOnUse" x2="19.04" gradientTransform="matrix(.88878 0 0 1.0893 2.411 -1.5243)" y1="28.939" x1="17.85"><stop stop-color="#7c7e79" offset="0"/><stop stop-color="#848681" offset=".17241"/><stop stop-color="#898c86" offset="1"/></linearGradient></defs>
	<g transform="matrix(.021582 0 0 .018595 43.123 41.638)"><rect opacity=".40206" style="color:#000000" height="478.36" width="1339.6" y="-150.7" x="-1559.3" fill="url(#t)"/><path opacity=".40206" style="color:#000000" fill="url(#aa)" d="m-219.62-150.68v478.33c142.87 0.90045 345.4-107.17 345.4-239.2s-159.44-239.13-345.4-239.13z"/><path opacity=".40206" style="color:#000000" fill="url(#o)" d="m-1559.3-150.68v478.33c-142.87 0.90045-345.4-107.17-345.4-239.2s159.44-239.13 345.4-239.13z"/></g><path style="color:#000000" fill="url(#q)" d="m21.62 8.1834h5.9575c0.83973 0 13.886 15.435 13.886 16.341l-0.44352 18.497c0 0.90533-0.67603 1.6342-1.5158 1.6342h-31.457c-0.83973 0-1.5158-0.72884-1.5158-1.6342l0.056478-18.497c0-0.90533 14.192-16.341 15.032-16.341z" stroke="#757575"/><path fill="none" d="m46.964 45.736h-45.325v-45.325h45.325v45.325z"/><path fill-rule="evenodd" fill="url(#r)" d="m23 29-0.04574 15.091h-11.843l-0.111-15.091h12z"/><path opacity=".3125" style="color:#000000" d="m21.78 9.4056h5.5591c0.78358 0 13.001 14.4 13.001 15.244l-0.34716 18.212c0 0.45926-0.14374 0.65346-0.51238 0.65346l-31.387 0.01428c-0.36864 0-0.58396-0.07992-0.58396-0.45355l0.2151-18.425c0-0.84458 13.272-15.244 14.055-15.244z" stroke="#fff" fill="none"/><path opacity=".2" d="m7.2075 27.943-0.0542 2.595 18.368-13.179 15.287 11.154 0.071-0.311-16.37-15.904-17.302 15.645z" fill-rule="evenodd" fill="url(#z)"/><path fill-rule="evenodd" fill="url(#s)" d="m22 30v14.091h-9.811l-0.189-14.091h10z"/><path opacity=".40909" d="m19.577 36.448c0.67279 0 1.2166 0.4746 1.2166 1.0585 0 0.58981-0.54383 1.0684-1.2166 1.0684-0.67227 0-1.2187-0.47854-1.2187-1.0684 0.000515-0.5839 0.54641-1.0585 1.2187-1.0585z" fill-rule="evenodd" fill="url(#w)"/><path fill-rule="evenodd" fill="url(#v)" d="m19.462 35.932c0.67279 0 1.2166 0.4746 1.2166 1.0585 0 0.58981-0.54383 1.0684-1.2166 1.0684-0.67227 0-1.2187-0.47854-1.2187-1.0684 0.000515-0.5839 0.54641-1.0585 1.2187-1.0585z"/><path fill="url(#p)" d="m24.448 11.559 18.927 17.17 0.49468 0.39199 0.40368-0.17138-0.37287-0.76167-0.278-0.223-19.175-15.573-19.39 15.744-0.2374 0.144-0.2167 0.707 0.4334 0.129 0.3846-0.309 19.026-17.248z"/><path fill="#ef2929" d="m24.33 2.2713-21.882 18.102-0.6243 7.166 1.9999 2.064s20.407-17.157 20.624-17.328l19.632 17.543 1.899-2.324-1.616-7.111-19.915-18.216-0.118 0.1043z" stroke="#a40000"/>
<path opacity=".40909" style="color:#000000" fill="url(#u)" d="m2.8413 20.613-0.2915 6.623 21.819-18.256-0.07-5.8933-21.458 17.526z"/><path opacity=".13636" style="color:#000000" fill="url(#x)" d="m24.484 8.751 0.099-5.8411 19.329 17.652 1.492 6.501-20.92-18.312z"/><path opacity=".31818" style="color:#000000" d="m27.102 27.72h9.04c0.7706 0 1.391 0.62037 1.391 1.391l-0.008 9.0792c0 0.7706-0.59632 1.266-1.3669 1.266h-9.056c-0.7706 0-1.391-0.62037-1.391-1.391v-8.954c0-0.7706 0.62037-1.391 1.391-1.391z" stroke="#fff" fill="none"/><rect style="color:#000000" rx=".38128" ry=".38128" height="9.9625" width="10.001" stroke="#757575" y="28.514" x="26.508" fill="#3465a4"/><path opacity=".39773" style="color:#000000" fill="url(#y)" d="m27.107 34.408c3.618 0.33118 5.5277-1.4457 8.8682-1.5527l0.025-3.849-8.912-0.006 0.01873 5.4083z"/></svg>
