<?xml version="1.0" encoding="UTF-8" standalone="no"?>
<svg
   xmlns:dc="http://purl.org/dc/elements/1.1/"
   xmlns:cc="http://creativecommons.org/ns#"
   xmlns:rdf="http://www.w3.org/1999/02/22-rdf-syntax-ns#"
   xmlns:svg="http://www.w3.org/2000/svg"
   xmlns="http://www.w3.org/2000/svg"
   xmlns:xlink="http://www.w3.org/1999/xlink"
   xmlns:sodipodi="http://sodipodi.sourceforge.net/DTD/sodipodi-0.dtd"
   xmlns:inkscape="http://www.inkscape.org/namespaces/inkscape"
   xml:space="preserve"
   height="26"
   width="26"
   version="1.0"
   id="svg2"
   inkscape:version="0.91 r"
   sodipodi:docname="go_home.svg"><metadata
     id="metadata114"><rdf:RDF><cc:Work
         rdf:about=""><dc:format>image/svg+xml</dc:format><dc:type
           rdf:resource="http://purl.org/dc/dcmitype/StillImage" /><dc:title></dc:title></cc:Work></rdf:RDF></metadata><sodipodi:namedview
     pagecolor="#ffffff"
     bordercolor="#666666"
     borderopacity="1"
     objecttolerance="10"
     gridtolerance="10"
     guidetolerance="10"
     inkscape:pageopacity="0"
     inkscape:pageshadow="2"
     inkscape:window-width="1474"
     inkscape:window-height="949"
     id="namedview112"
     showgrid="true"
     inkscape:zoom="13.906433"
     inkscape:cx="7.1420246"
     inkscape:cy="15.822335"
     inkscape:window-x="0"
     inkscape:window-y="0"
     inkscape:window-maximized="0"
     inkscape:current-layer="svg2"><inkscape:grid
       type="xygrid"
       id="grid4242" /></sodipodi:namedview><defs
     id="defs4"><radialGradient
       id="o"
       xlink:href="#a"
       gradientUnits="userSpaceOnUse"
       cy="486.64999"
       cx="605.71002"
       gradientTransform="matrix(-2.7744,0,0,1.9697,112.76,-872.89)"
       r="117.14" /><linearGradient
       id="a"><stop
         offset="0"
         id="stop8" /><stop
         stop-opacity="0"
         offset="1"
         id="stop10" /></linearGradient><radialGradient
       id="aa"
       xlink:href="#a"
       gradientUnits="userSpaceOnUse"
       cy="486.64999"
       cx="605.71002"
       gradientTransform="matrix(2.7744,0,0,1.9697,-1891.6,-872.89)"
       r="117.14" /><linearGradient
       id="t"
       y2="609.51001"
       gradientUnits="userSpaceOnUse"
       x2="302.85999"
       gradientTransform="matrix(2.7744,0,0,1.9697,-1892.2,-872.89)"
       y1="366.64999"
       x1="302.85999"><stop
         stop-opacity="0"
         offset="0"
         id="stop14" /><stop
         offset=".5"
         id="stop16" /><stop
         stop-opacity="0"
         offset="1"
         id="stop18" /></linearGradient><linearGradient
       id="q"
       y2="-42.219002"
       gradientUnits="userSpaceOnUse"
       x2="14.049"
       gradientTransform="matrix(0.1782052,0,0,0.08763802,9.8725289,8.378905)"
       y1="166.13"
       x1="52.006001"><stop
         stop-color="#ccc"
         offset="0"
         id="stop21" /><stop
         stop-color="#fff"
         offset=".9831"
         id="stop23" /></linearGradient><linearGradient
       id="p"
       y2="35.569"
       gradientUnits="userSpaceOnUse"
       x2="64.388"
       gradientTransform="matrix(0.18729213,0,0,0.18594654,1.2276303,0.21550466)"
       y1="65.124001"
       x1="64.388"><stop
         stop-color="#fff"
         offset="0"
         id="stop26" /><stop
         stop-color="#ff6200"
         offset=".85390"
         id="stop28" /><stop
         stop-color="#f25d00"
         offset="1"
         id="stop30" /><midPointStop
         stop-color="#FFFFFF"
         offset="0" /><midPointStop
         stop-color="#FFFFFF"
         offset="0.5" /><midPointStop
         stop-color="#FF6200"
         offset="0.8539" /><midPointStop
         stop-color="#FF6200"
         offset="0.5" /><midPointStop
         stop-color="#F25D00"
         offset="1" /></linearGradient><radialGradient
       id="u"
       gradientUnits="userSpaceOnUse"
       cy="24.202999"
       cx="7.5327001"
       gradientTransform="matrix(2.168643,0,0,2.2062052,-13.081732,-40.983839)"
       r="8.2452002"><stop
         stop-color="#fff"
         offset="0"
         id="stop33" /><stop
         stop-color="#fff"
         stop-opacity="0"
         offset="1"
         id="stop35" /></radialGradient><radialGradient
       id="v"
       gradientUnits="userSpaceOnUse"
       cy="36.778"
       cx="19.986"
       gradientTransform="matrix(0.59519864,0,0,0.51606074,-1.4526414,0.55654093)"
       r="1.0821"><stop
         stop-color="#edd400"
         offset="0"
         id="stop38" /><stop
         stop-color="#980"
         offset="1"
         id="stop40" /></radialGradient><radialGradient
       id="w"
       gradientUnits="userSpaceOnUse"
       cy="37.425999"
       cx="20.444"
       gradientTransform="matrix(0.59519864,0,0,0.51606074,-1.4526414,0.64335457)"
       r="1.0821"><stop
         offset="0"
         id="stop43" /><stop
         stop-opacity="0"
         offset="1"
         id="stop45" /></radialGradient><linearGradient
       id="r"
       y2="32.653999"
       gradientUnits="userSpaceOnUse"
       x2="17.683001"
       gradientTransform="matrix(0.47539198,0,0,0.56288083,0.61371825,-0.83324804)"
       y1="26.056999"
       x1="17.603001"><stop
         stop-opacity=".18557"
         offset="0"
         id="stop48" /><stop
         stop-color="#fff"
         offset="1"
         id="stop50" /></linearGradient><radialGradient
       id="x"
       gradientUnits="userSpaceOnUse"
       cy="19.554001"
       cx="11.681"
       gradientTransform="matrix(2.168643,0,0,-2.2062052,-2.3885203,55.581286)"
       r="8.2452002"><stop
         offset="0"
         id="stop53" /><stop
         stop-opacity="0"
         offset="1"
         id="stop55" /></radialGradient><radialGradient
       id="y"
       gradientUnits="userSpaceOnUse"
       cy="30.443001"
       cx="29.913"
       gradientTransform="matrix(1.98426,0,0,1.6529866,-43.015681,-34.244917)"
       r="4.0019002"><stop
         stop-color="#fff"
         offset="0"
         id="stop58" /><stop
         stop-color="#fff"
         stop-opacity="0"
         offset="1"
         id="stop60" /></radialGradient><radialGradient
       id="z"
       gradientUnits="userSpaceOnUse"
       cy="10.578"
       cx="24.195"
       gradientTransform="matrix(0.59519864,-1.8827809e-8,2.2584015e-8,0.7037192,-1.2294352,0.97118439)"
       r="15.243"><stop
         stop-color="#575757"
         offset="0"
         id="stop63" /><stop
         stop-color="#575757"
         stop-opacity="0"
         offset="1"
         id="stop65" /></radialGradient><linearGradient
       id="s"
       y2="41.032001"
       gradientUnits="userSpaceOnUse"
       x2="19.040001"
       gradientTransform="matrix(0.47009744,0,0,0.57201799,1.6361185,-0.54101631)"
       y1="28.938999"
       x1="17.85"><stop
         stop-color="#7c7e79"
         offset="0"
         id="stop68" /><stop
         stop-color="#848681"
         offset=".17241"
         id="stop70" /><stop
         stop-color="#898c86"
         offset="1"
         id="stop72" /></linearGradient></defs><g
     transform="matrix(0.01141524,0,0,0.00976469,23.16969,22.12456)"
     id="g74"><rect
       style="color:#000000;opacity:0.40206;fill:url(#t)"
       height="478.35999"
       width="1339.6"
       y="-150.7"
       x="-1559.3"
       id="rect76" /><path
       style="color:#000000;opacity:0.40206;fill:url(#aa)"
       d="m -219.62,-150.68 0,478.33 c 142.87,0.90045 345.4,-107.17 345.4,-239.2 0,-132.03 -159.44,-239.13 -345.4,-239.13 z"
       id="path78"
       inkscape:connector-curvature="0" /><path
       style="color:#000000;opacity:0.40206;fill:url(#o)"
       d="m -1559.3,-150.68 0,478.33 c -142.87,0.90045 -345.4,-107.17 -345.4,-239.2 0,-132.03 159.44,-239.13 345.4,-239.13 z"
       id="path80"
       inkscape:connector-curvature="0" /></g><path
     style="color:#000000;fill:url(#q);stroke:#757575;stroke-width:0.52702093"
     d="m 11.796228,4.5567337 3.151068,0 c 0.444153,0 7.344644,8.1052943 7.344644,8.5810583 l -0.234589,9.713226 c 0,0.47541 -0.357569,0.858157 -0.801743,0.858157 l -16.6383762,0 c -0.4441537,0 -0.8017437,-0.382732 -0.8017437,-0.858157 l 0.029873,-9.713226 c 0,-0.475411 7.5064949,-8.5810583 7.9507919,-8.5810583 z"
     id="path82"
     inkscape:connector-curvature="0" /><path
     d="m 25.201288,24.27652 -23.9734991,0 0,-23.80126308 23.9734991,0 0,23.80126308 z"
     id="path84"
     inkscape:connector-curvature="0"
     style="fill:none" /><path
     d="m 12.526144,15.488038 -0.02419,7.924652 -6.2640525,0 -0.058711,-7.924652 6.3470935,0 z"
     id="path86"
     inkscape:connector-curvature="0"
     style="fill:url(#r);fill-rule:evenodd" /><path
     style="color:#000000;opacity:0.3125;fill:none;stroke:#ffffff;stroke-width:0.52702093"
     d="m 11.880856,5.1985408 2.940344,0 c 0.414454,0 6.876546,7.5617922 6.876546,8.0049962 l -0.183622,9.563566 c 0,0.241168 -0.07603,0.343148 -0.27101,0.343148 l -16.6013507,0.0074 c -0.1949827,0 -0.3088707,-0.04196 -0.3088707,-0.23817 l 0.1137717,-9.675379 c 0,-0.44351 7.0198857,-8.0049971 7.4340327,-8.0049971 z"
     id="path88"
     inkscape:connector-curvature="0" /><path
     d="M 4.1731045,14.932982 4.1444375,16.29568 13.859721,9.3750651 21.945388,15.232302 21.982948,15.068989 13.324455,6.7174105 4.1730045,14.932982 Z"
     id="path90"
     inkscape:connector-curvature="0"
     style="opacity:0.2;fill:url(#z);fill-rule:evenodd" /><path
     d="m 11.997219,16.013163 0,7.399527 -5.1892775,0 -0.099966,-7.399527 5.2892435,0 z"
     id="path92"
     inkscape:connector-curvature="0"
     style="fill:url(#s);fill-rule:evenodd" /><path
     d="m 10.715636,19.399164 c 0.355854,0 0.643489,0.249224 0.643489,0.555845 0,0.309723 -0.287645,0.561042 -0.643489,0.561042 -0.355581,0 -0.6446,-0.251291 -0.6446,-0.561042 2.71e-4,-0.306621 0.289009,-0.555845 0.6446,-0.555845 z"
     id="path94"
     inkscape:connector-curvature="0"
     style="opacity:0.40909005;fill:url(#w);fill-rule:evenodd" /><path
     d="m 10.654809,19.128201 c 0.355855,0 0.64349,0.249224 0.64349,0.555844 0,0.309724 -0.287645,0.561043 -0.64349,0.561043 -0.35558,0 -0.644601,-0.251294 -0.644601,-0.561043 2.73e-4,-0.30662 0.28901,-0.555844 0.644601,-0.555844 z"
     id="path96"
     inkscape:connector-curvature="0"
     style="fill:url(#v);fill-rule:evenodd" /><path
     d="m 13.292026,6.3293436 10.010953,9.0163854 0.261648,0.205844 0.213516,-0.09 L 23.580923,15.0616 23.433882,14.944498 13.291757,6.7667357 3.0359117,15.034294 2.9103451,15.109905 2.7957272,15.481169 3.024963,15.548908 3.2283874,15.386645 13.291704,6.3292991 Z"
     id="path98"
     inkscape:connector-curvature="0"
     style="fill:url(#p)" /><path
     d="M 13.229613,1.4521458 1.6556887,10.957948 1.3254813,14.720989 2.3832772,15.804846 c 0,0 10.7937608,-9.0095595 10.9085378,-9.0993558 l 10.383844,9.2122568 1.004427,-1.220389 -0.854742,-3.734159 -10.533529,-9.5656661 -0.06241,0.054771 z"
     id="path100"
     inkscape:connector-curvature="0"
     style="fill:#ef2929;stroke:#a40000;stroke-width:0.52702093" /><path
     style="color:#000000;opacity:0.40909005;fill:url(#u)"
     d="M 1.8637147,11.08382 1.7095333,14.561719 13.250135,4.9750478 13.21311,1.8803322 1.8634503,11.083663 Z"
     id="path102"
     inkscape:connector-curvature="0" /><path
     style="color:#000000;opacity:0.13636002;fill:url(#x)"
     d="M 13.311068,4.8547944 13.363428,1.7874903 23.587009,11.056986 24.376163,14.47082 13.311065,4.8547418 Z"
     id="path104"
     inkscape:connector-curvature="0" /><path
     style="color:#000000;opacity:0.3181801;fill:none;stroke:#ffffff;stroke-width:0.52702093"
     d="m 14.695792,14.815879 4.781476,0 c 0.40759,0 0.735735,0.325771 0.735735,0.730449 l -0.0042,4.767708 c 0,0.404661 -0.315408,0.664808 -0.722987,0.664808 l -4.78994,0 c -0.407589,0 -0.735733,-0.325771 -0.735733,-0.730448 l 0,-4.701965 c 0,-0.40466 0.328129,-0.730447 0.735733,-0.730447 z"
     id="path106"
     inkscape:connector-curvature="0" /><rect
     style="color:#000000;fill:#3465a4;stroke:#757575;stroke-width:0.52702093"
     rx="0.20166829"
     ry="0.20021942"
     height="5.2315516"
     width="5.289773"
     y="15.232828"
     x="14.38161"
     id="rect108" /><path
     style="color:#000000;opacity:0.39773003;fill:url(#y)"
     d="m 14.698437,18.327911 c 1.913648,0.173911 2.923735,-0.759172 4.690607,-0.815361 l 0.01322,-2.021203 -4.713774,-0.0031 0.0099,2.84003 z"
     id="path110"
     inkscape:connector-curvature="0" /></svg>