<svg xmlns="http://www.w3.org/2000/svg" height="48" width="48" version="1.1">
 <defs>
  <radialGradient id="e" gradientUnits="userSpaceOnUse" cy="5.786" cx="25.076" gradientTransform="matrix(-2.0467,0,0,1.5576,67.594,3.2753)" r="17.171">
   <stop stop-color="#fff" offset="0"/>
   <stop stop-color="#fff" stop-opacity="0" offset="1"/>
  </radialGradient>
  <radialGradient id="f" gradientUnits="userSpaceOnUse" cy="36.421" cx="24.837" gradientTransform="matrix(1 0 0 .53672 0 16.873)" r="15.645">
   <stop offset="0"/>
   <stop stop-opacity="0" offset="1"/>
  </radialGradient>
  <radialGradient id="d" gradientUnits="userSpaceOnUse" cy="32.798" cx="22.292" gradientTransform="matrix(-.84302 0 0 1.0202 43.576 1.2052)" r="16.956">
   <stop stop-color="#73d216" offset="0"/>
   <stop stop-color="#4e9a06" offset="1"/>
  </radialGradient>
 </defs>
 <path opacity=".29947" style="color:#000000" d="m40.482 36.421a15.645 8.3969 0 1 1 -31.289 0 15.645 8.3969 0 1 1 31.289 0z" fill-rule="evenodd" transform="matrix(-1.2712,0,0,1.2712,56.195,-15.279)" fill="url(#f)"/>
 <path stroke-linejoin="round" style="color:#000000" d="m39.49 15.497v16.994h-12.953v8.4825l-19.959-17 19.954-17.244v8.7725l12.959-0.0053z" fill-rule="evenodd" stroke="#3a7304" stroke-linecap="round" stroke-miterlimit="10" fill="url(#d)"/>
 <path opacity=".50802" style="color:#000000" d="m25.988 7.978v8.0565h12.942v8.885c-16.75-6.25-16.134 5.295-31.384-0.955l18.442-15.984z" fill-rule="evenodd" fill="url(#e)"/>
 <path opacity=".48128" style="color:#000000" d="m38.476 16.541v14.922h-12.985v7.3014l-17.323-14.795 17.338-14.905v7.4826l12.969-0.0049z" stroke="#fff" stroke-miterlimit="10" fill="none"/>
</svg>
