<?xml version="1.0" encoding="UTF-8" standalone="no"?>
<svg
   xmlns:dc="http://purl.org/dc/elements/1.1/"
   xmlns:cc="http://creativecommons.org/ns#"
   xmlns:rdf="http://www.w3.org/1999/02/22-rdf-syntax-ns#"
   xmlns:svg="http://www.w3.org/2000/svg"
   xmlns="http://www.w3.org/2000/svg"
   xmlns:xlink="http://www.w3.org/1999/xlink"
   xmlns:sodipodi="http://sodipodi.sourceforge.net/DTD/sodipodi-0.dtd"
   xmlns:inkscape="http://www.inkscape.org/namespaces/inkscape"
   height="26"
   width="26"
   version="1.0"
   id="svg2"
   inkscape:version="0.91 r13725"
   sodipodi:docname="graphic_mode_option.svg">
  <metadata
     id="metadata135">
    <rdf:RDF>
      <cc:Work
         rdf:about="">
        <dc:format>image/svg+xml</dc:format>
        <dc:type
           rdf:resource="http://purl.org/dc/dcmitype/StillImage" />
        <dc:title></dc:title>
      </cc:Work>
    </rdf:RDF>
  </metadata>
  <sodipodi:namedview
     pagecolor="#ffffff"
     bordercolor="#666666"
     borderopacity="1"
     objecttolerance="10"
     gridtolerance="10"
     guidetolerance="10"
     inkscape:pageopacity="0"
     inkscape:pageshadow="2"
     inkscape:window-width="1057"
     inkscape:window-height="846"
     id="namedview133"
     showgrid="false"
     inkscape:zoom="7.0765965"
     inkscape:cx="28.523024"
     inkscape:cy="3.1403205"
     inkscape:window-x="303"
     inkscape:window-y="40"
     inkscape:window-maximized="0"
     inkscape:current-layer="svg2" />
  <defs
     id="defs4">
    <linearGradient
       id="b">
      <stop
         stop-color="#fff"
         offset="0"
         id="stop7" />
      <stop
         stop-color="#fff"
         stop-opacity="0"
         offset="1"
         id="stop9" />
    </linearGradient>
    <linearGradient
       id="w"
       y2="7.0165"
       gradientUnits="userSpaceOnUse"
       x2="45.448002"
       gradientTransform="scale(1.0059,0.99417)"
       y1="92.540001"
       x1="45.448002">
      <stop
         offset="0"
         id="stop12" />
      <stop
         stop-opacity=".58824"
         offset="1"
         id="stop14" />
    </linearGradient>
    <filter
       id="x"
       style="color-interpolation-filters:sRGB">
      <feGaussianBlur
         stdDeviation="1.71"
         id="feGaussianBlur17" />
    </filter>
    <filter
       id="y"
       height="1.0908"
       width="1.3035001"
       y="-0.045378"
       x="-0.15174"
       style="color-interpolation-filters:sRGB">
      <feGaussianBlur
         stdDeviation="1.1526305"
         id="feGaussianBlur20" />
    </filter>
    <filter
       id="z"
       height="1.3025"
       width="1.0888"
       y="-0.15126"
       x="-0.044411998"
       style="color-interpolation-filters:sRGB">
      <feGaussianBlur
         stdDeviation="1.1526305"
         id="feGaussianBlur23" />
    </filter>
    <linearGradient
       id="c"
       y2="7.0165"
       gradientUnits="userSpaceOnUse"
       x2="45.448002"
       gradientTransform="matrix(1.0059,0,0,0.99417,100,0)"
       y1="92.540001"
       x1="45.448002">
      <stop
         offset="0"
         id="stop26" />
      <stop
         stop-opacity=".58824"
         offset="1"
         id="stop28" />
    </linearGradient>
    <linearGradient
       id="a"
       y2="90.238998"
       xlink:href="#c"
       gradientUnits="userSpaceOnUse"
       x2="32.250999"
       gradientTransform="matrix(1.0238,0,0,1.0119,-1.1429,-98.071)"
       y1="6.1317"
       x1="32.250999" />
    <linearGradient
       id="ad"
       y2="90.238998"
       xlink:href="#c"
       gradientUnits="userSpaceOnUse"
       x2="32.250999"
       gradientTransform="translate(0,-97)"
       y1="6.1317"
       x1="32.250999" />
    <linearGradient
       id="r"
       y2="5.9877"
       gradientUnits="userSpaceOnUse"
       x2="48"
       y1="90"
       x1="48">
      <stop
         stop-color="#b4b4b4"
         offset="0"
         id="stop33" />
      <stop
         stop-color="#e6e6e6"
         offset="1"
         id="stop35" />
    </linearGradient>
    <linearGradient
       id="s"
       y2="63.893002"
       gradientUnits="userSpaceOnUse"
       x2="36.356998"
       y1="6"
       x1="36.356998">
      <stop
         stop-color="#fff"
         offset="0"
         id="stop38" />
      <stop
         stop-color="#fff"
         stop-opacity="0"
         offset="1"
         id="stop40" />
    </linearGradient>
    <linearGradient
       id="t"
       y2="83.294998"
       gradientUnits="userSpaceOnUse"
       x2="43.179001"
       gradientTransform="matrix(1.0294,0,0,1.0294,-1.4118,-1.4118)"
       y1="13"
       x1="43.179001">
      <stop
         stop-color="#919191"
         offset="0"
         id="stop43" />
      <stop
         stop-color="#fdfdfd"
         offset="1"
         id="stop45" />
    </linearGradient>
    <radialGradient
       id="v"
       gradientUnits="userSpaceOnUse"
       cy="90.171997"
       cx="48"
       gradientTransform="matrix(1.1573,0,0,0.99591,-7.551,0.19713)"
       r="42">
      <stop
         stop-color="#fff"
         offset="0"
         id="stop48" />
      <stop
         stop-color="#fff"
         stop-opacity="0"
         offset="1"
         id="stop50" />
    </radialGradient>
    <radialGradient
       id="u"
       gradientUnits="userSpaceOnUse"
       cy="78.287003"
       cx="47.098"
       gradientTransform="matrix(0.39110775,0,0,0.37596276,-5.6697565,-8.0600521)"
       r="38.957001">
      <stop
         stop-color="#42394b"
         offset="0"
         id="stop53" />
      <stop
         offset="1"
         id="stop55" />
    </radialGradient>
    <linearGradient
       id="aa"
       y2="52.101002"
       gradientUnits="userSpaceOnUse"
       x2="19.941999"
       gradientTransform="matrix(0.32537,0,0,0.32046,2.4094,13.076)"
       y1="52.101002"
       x1="80.710999">
      <stop
         stop-color="#fff"
         offset="0"
         id="stop58" />
      <stop
         stop-color="#fff"
         stop-opacity="0"
         offset="1"
         id="stop60" />
    </linearGradient>
    <linearGradient
       id="ab"
       y2="52.101002"
       xlink:href="#b"
       gradientUnits="userSpaceOnUse"
       x2="19.941999"
       gradientTransform="matrix(0.32147,0,0,0.32434,2.2605,12.667)"
       y1="52.101002"
       x1="80.710999" />
    <linearGradient
       id="ac"
       y2="52.101002"
       xlink:href="#b"
       gradientUnits="userSpaceOnUse"
       x2="19.941999"
       gradientTransform="matrix(0,-0.32537,0.32046,0,-3.9466,46.434)"
       y1="52.101002"
       x1="80.710999" />
    <linearGradient
       id="ae"
       y2="52.101002"
       xlink:href="#b"
       gradientUnits="userSpaceOnUse"
       x2="19.941999"
       gradientTransform="matrix(0,-0.32537,0.32046,0,-4.1176,46.434)"
       y1="52.101002"
       x1="80.710999" />
    <linearGradient
       inkscape:collect="always"
       xlink:href="#c"
       id="linearGradient4263"
       gradientUnits="userSpaceOnUse"
       gradientTransform="matrix(1.0238,0,0,1.0119,-1.1429,-98.071)"
       x1="32.250999"
       y1="6.1317"
       x2="32.250999"
       y2="90.238998" />
    <linearGradient
       inkscape:collect="always"
       xlink:href="#c"
       id="linearGradient4265"
       gradientUnits="userSpaceOnUse"
       gradientTransform="matrix(1.0238,0,0,1.0119,-1.1429,-98.071)"
       x1="32.250999"
       y1="6.1317"
       x2="32.250999"
       y2="90.238998" />
    <linearGradient
       inkscape:collect="always"
       xlink:href="#c"
       id="linearGradient4267"
       gradientUnits="userSpaceOnUse"
       gradientTransform="matrix(1.0238,0,0,1.0119,-1.1429,-98.071)"
       x1="32.250999"
       y1="6.1317"
       x2="32.250999"
       y2="90.238998" />
    <radialGradient
       id="a-7"
       gradientUnits="userSpaceOnUse"
       cy="39.125"
       cx="24.812"
       gradientTransform="matrix(1,0,0,0.37456,0,24.47)"
       r="17.688">
      <stop
         offset="0"
         id="stop7-0" />
      <stop
         stop-opacity="0"
         offset="1"
         id="stop9-5" />
    </radialGradient>
    <radialGradient
       id="radialGradient3492"
       gradientUnits="userSpaceOnUse"
       cy="39.125"
       cx="24.812"
       gradientTransform="matrix(1,0,0,0.37456,0,24.47)"
       r="17.688">
      <stop
         offset="0"
         id="stop3494" />
      <stop
         stop-opacity="0"
         offset="1"
         id="stop3496" />
    </radialGradient>
    <linearGradient
       id="i"
       y2="6.7758002"
       gradientUnits="userSpaceOnUse"
       x2="20.631001"
       gradientTransform="matrix(0.87827,0,0,0.87827,56.157,5.6701)"
       y1="42.254002"
       x1="19.648001">
      <stop
         stop-color="#b6b6b6"
         offset="0"
         id="stop12-6" />
      <stop
         stop-color="#f2f2f2"
         offset=".5"
         id="stop14-0" />
      <stop
         stop-color="#fafafa"
         offset=".67613"
         id="stop16" />
      <stop
         stop-color="#d8d8d8"
         offset=".84052"
         id="stop18" />
      <stop
         stop-color="#f2f2f2"
         offset=".875"
         id="stop20" />
      <stop
         stop-color="#dbdbdb"
         offset="1"
         id="stop22" />
    </linearGradient>
    <linearGradient
       id="j"
       y2="-4.3003001"
       gradientUnits="userSpaceOnUse"
       x2="25.291"
       gradientTransform="matrix(0.87827,0,0,0.87827,43.255,-36.26)"
       y1="-3.6324"
       x1="50.153">
      <stop
         stop-color="#fff"
         offset="0"
         id="stop25" />
      <stop
         offset="1"
         id="stop27" />
    </linearGradient>
    <linearGradient
       id="k"
       y2="6.6286001"
       gradientUnits="userSpaceOnUse"
       x2="37.535"
       gradientTransform="matrix(0.87827,0,0,0.87827,56.467,6.2911)"
       y1="13.603"
       x1="38.228001">
      <stop
         stop-color="#98a0a9"
         offset="0"
         id="stop30" />
      <stop
         stop-color="#c3d0dd"
         offset="1"
         id="stop32" />
    </linearGradient>
    <linearGradient
       id="l"
       y2="9.6569004"
       gradientUnits="userSpaceOnUse"
       x2="40.859001"
       gradientTransform="translate(53.62,0.70241)"
       y1="19.822001"
       x1="31.177">
      <stop
         stop-color="#fff"
         offset="0"
         id="stop35-4" />
      <stop
         stop-color="#fff"
         stop-opacity="0"
         offset="1"
         id="stop37" />
    </linearGradient>
    <linearGradient
       id="m"
       y2="39.443001"
       gradientUnits="userSpaceOnUse"
       x2="16.915001"
       gradientTransform="matrix(0.87827,0,0,0.87827,56.157,5.6701)"
       y1="32.284"
       x1="9.7503004">
      <stop
         stop-color="#3465a4"
         offset="0"
         id="stop40-2" />
      <stop
         stop-color="#9fbce1"
         offset="0"
         id="stop42" />
      <stop
         stop-color="#6b95ca"
         offset="0"
         id="stop44" />
      <stop
         stop-color="#3d6aa5"
         offset=".75"
         id="stop46" />
      <stop
         stop-color="#386eb4"
         offset="1"
         id="stop48-3" />
    </linearGradient>
    <linearGradient
       id="n"
       y2="33.195"
       gradientUnits="userSpaceOnUse"
       x2="10.651"
       gradientTransform="matrix(1.0073,-0.026365,0.026365,1.0073,55.213,0.7816)"
       y1="35.688"
       x1="12.005">
      <stop
         stop-color="#fff"
         offset="0"
         id="stop51" />
      <stop
         stop-color="#fff"
         stop-opacity="0"
         offset="1"
         id="stop53-0" />
    </linearGradient>
    <linearGradient
       id="o"
       y2="38.268002"
       gradientUnits="userSpaceOnUse"
       x2="15.416"
       gradientTransform="matrix(0.8781,-0.017324,0.017324,0.8781,55.783,4.7703)"
       y1="36.943001"
       x1="14.018">
      <stop
         offset="0"
         id="stop56" />
      <stop
         stop-opacity="0"
         offset="1"
         id="stop58-1" />
    </linearGradient>
    <radialGradient
       r="17.688"
       cy="39.125"
       cx="24.812"
       gradientTransform="matrix(1,0,0,0.37456,0,24.47)"
       gradientUnits="userSpaceOnUse"
       id="radialGradient3540"
       xlink:href="#a-7"
       inkscape:collect="always" />
    <radialGradient
       r="17.688"
       cy="39.125"
       cx="24.812"
       gradientTransform="matrix(1,0,0,0.37456,0,24.47)"
       gradientUnits="userSpaceOnUse"
       id="radialGradient3542"
       xlink:href="#a-7"
       inkscape:collect="always" />
  </defs>
  <g
     display="none"
     transform="translate(0,-70)"
     id="g65"
     style="display:none">
    <rect
       rx="6"
       ry="6"
       height="85"
       width="86"
       y="7"
       x="5"
       id="rect67"
       style="opacity:0.9;fill:url(#w);filter:url(#x)" />
  </g>
  <g
     transform="matrix(0.65823,0,0,0.65823,-84.127,-54.332)"
     id="g69"
     style="fill:#ffffff;fill-rule:evenodd">
    <path
       d="m 26.531,58.281 0,6 74.938,0 0,-6 -74.94,0 z"
       id="path71"
       inkscape:connector-curvature="0" />
    <path
       d="M 38.09,68.534 18.423,61.303 38.09,54.071 c -3.1419,4.2697 -3.1238,10.111 -1e-6,14.464 z"
       id="path73"
       inkscape:connector-curvature="0"
       style="stroke-width:0.625;stroke-linejoin:round" />
    <path
       d="m 89.91,54.013 19.667,7.2319 -19.667,7.2319 c 3.1419,-4.2697 3.1238,-10.111 10e-7,-14.464 z"
       id="path75"
       inkscape:connector-curvature="0"
       style="stroke-width:0.625;stroke-linejoin:round" />
  </g>
  <g
     id="g4269">
    <g
       id="g77"
       transform="matrix(0.28279386,0,0,0.28646935,-0.56845967,-1.122322)">
      <path
         style="opacity:0.07999998;fill:url(#linearGradient4263)"
         inkscape:connector-curvature="0"
         id="path79"
         transform="scale(1,-1)"
         d="m 12,-95.031 c -5.5111,0 -10.031,4.5202 -10.031,10.031 l 0,71 c 0,5.5111 4.5202,10.031 10.031,10.031 l 72,0 c 5.5111,0 10.031,-4.5202 10.031,-10.031 l 0,-71 c 0,-5.5111 -4.5202,-10.031 -10.031,-10.031 l -72,0 z" />
      <path
         style="opacity:0.1;fill:url(#linearGradient4265)"
         inkscape:connector-curvature="0"
         id="path81"
         transform="scale(1,-1)"
         d="m 12,-94.031 c -4.9716,0 -9.0312,4.0596 -9.0312,9.0312 l 0,71 c 0,4.9716 4.0596,9.0312 9.0312,9.0312 l 72,0 c 4.9716,0 9.0312,-4.0596 9.0312,-9.0312 l 0,-71 c 0,-4.9716 -4.0596,-9.0312 -9.0312,-9.0312 l -72,0 z" />
      <path
         style="opacity:0.2;fill:url(#linearGradient4267)"
         inkscape:connector-curvature="0"
         id="path83"
         transform="scale(1,-1)"
         d="m 12,-93 c -4.4091,0 -8,3.5909 -8,8 l 0,71 c 0,4.4091 3.5909,8 8,8 l 72,0 c 4.4091,0 8,-3.5909 8,-8 l 0,-71 c 0,-4.4091 -3.5909,-8 -8,-8 l -72,0 z" />
      <rect
         style="opacity:0.3;fill:url(#a)"
         id="rect85"
         x="5"
         y="-92"
         width="86"
         height="85"
         ry="7"
         rx="7"
         transform="scale(1,-1)" />
      <rect
         style="opacity:0.45;fill:url(#ad)"
         id="rect87"
         x="6"
         y="-91"
         width="84"
         height="84"
         ry="6"
         rx="6"
         transform="scale(1,-1)" />
    </g>
    <rect
       style="fill:url(#u)"
       id="rect89"
       x="1.7337576"
       y="1.2423486"
       width="22.033939"
       height="22.492743"
       ry="1.7684832"
       rx="1.6551076" />
    <path
       style="opacity:0.12000002;fill:#d9c6ed"
       inkscape:connector-curvature="0"
       id="path91"
       d="m 3.3906601,1.2410739 c -0.9169564,0 -1.6525598,0.7928182 -1.6525598,1.7725399 l 0,14.0551372 C 7.0613235,13.098285 14.693382,10.252138 23.769143,10.828784 l 0,-7.8157498 c 0,-0.9794319 -0.744636,-1.7722501 -1.661824,-1.7722501 l -18.7172379,0 z" />
    <path
       inkscape:connector-curvature="0"
       id="path115"
       d="m 4.8048321,2.6017887 c -0.9302163,0 -1.69674,0.7765331 -1.69674,1.7188161 l 0,16.6155702 c 0,0.94234 0.7665237,1.718816 1.69674,1.718816 l 16.4022639,0 c 0.930216,0 1.69674,-0.776534 1.69674,-1.718816 l 0,-16.6155702 c 0,-0.942341 -0.766524,-1.7188161 -1.69674,-1.7188161 l -16.4022639,0 z m 0,1.1458774 16.4022639,0 c 0.323118,0 0.565588,0.245623 0.565588,0.5729444 l 0,16.6155705 c 0,0.327321 -0.24247,0.572944 -0.565588,0.572944 l -16.4022639,0 c -0.3231177,0 -0.5655877,-0.245623 -0.5655877,-0.572944 l 0,-16.6155705 c 0,-0.3273214 0.24247,-0.5729444 0.5655877,-0.5729444 z"
       style="color:#000000;text-indent:0;text-transform:none;block-progression:tb;opacity:0.15" />
    <path
       inkscape:connector-curvature="0"
       id="path117"
       d="m 4.2390591,2.888258 c -0.4700067,0 -0.848399,0.3832998 -0.848399,0.8594081 l 0,17.7613309 c 0,0.476114 0.3783807,0.859408 0.848399,0.859408 l 17.5331149,0 c 0.470008,0 0.848399,-0.383299 0.848399,-0.859408 l 0,-17.7613309 c 0,-0.476114 -0.378381,-0.8594081 -0.848399,-0.8594081 l -17.5331149,0 z m 0,0.5550366 17.5331149,0 c 0.174817,0 0.300472,0.1272914 0.300472,0.3043773 l 0,17.7613311 c 0,0.177086 -0.125655,0.304378 -0.300472,0.304378 l -17.5331149,0 c -0.1748158,0 -0.3004717,-0.127292 -0.3004717,-0.304378 l 0,-17.7613311 c 0,-0.1770859 0.1256559,-0.3043773 0.3004717,-0.3043773 z"
       style="color:#000000;opacity:0.3" />
    <path
       inkscape:connector-curvature="0"
       id="path119"
       d="m 4.2390591,2.888258 c -0.4700067,0 -0.848399,0.3832998 -0.848399,0.8594081 l 0,17.7613309 c 0,0.476114 0.3783807,0.859408 0.848399,0.859408 l 17.5331149,0 c 0.470008,0 0.848399,-0.383299 0.848399,-0.859408 l 0,-17.7613309 c 0,-0.476114 -0.378381,-0.8594081 -0.848399,-0.8594081 l -17.5331149,0 z m 0,0.2775212 17.5331149,0 c 0.322412,0 0.574424,0.2552956 0.574424,0.5819216 l 0,17.7613312 c 0,0.326602 -0.252018,0.581922 -0.574424,0.581922 l -17.5331149,0 c -0.3224113,0 -0.5744238,-0.255296 -0.5744238,-0.581922 l 0,-17.7613312 c 0,-0.3266028 0.2520183,-0.5819216 0.5744238,-0.5819216 z"
       style="color:#000000;opacity:0.6" />
    <g
       id="g121"
       transform="matrix(0.28279386,0,0,0.28646935,-0.56845967,-1.122322)">
      <path
         style="fill:url(#r)"
         inkscape:connector-curvature="0"
         id="path123"
         d="M 12,6 C 8.676,6 6,8.676 6,12 l 0,72 c 0,3.324 2.676,6 6,6 l 72,0 c 3.324,0 6,-2.676 6,-6 L 90,12 C 90,8.676 87.324,6 84,6 L 12,6 Z m 5,7 62,0 c 2.216,0 4,1.784 4,4 l 0,62 c 10e-7,2.216 -1.784,4 -4,4 l -62,0 c -2.216,10e-7 -4,-1.784 -4,-4 l 0,-62 c 0,-2.216 1.784,-4 4,-4 z" />
      <path
         style="opacity:0.5;fill:url(#s)"
         inkscape:connector-curvature="0"
         id="path125"
         d="M 12,6 C 8.676,6 6,8.676 6,12 l 0,72 c 0,0.33472 0.04135,0.6507 0.09375,0.96875 0.0487,0.2956 0.09704,0.59692 0.1875,0.875 0.00988,0.03038 0.020892,0.0636 0.03125,0.09375 0.098865,0.28777 0.23488,0.54745 0.375,0.8125 0.14459,0.27351 0.31562,0.53562 0.5,0.78125 0.18438,0.24564 0.37378,0.47347 0.59375,0.6875 0.43995,0.42806 0.94291,0.81453 1.5,1.0938 0.27854,0.13961 0.57347,0.24695 0.875,0.34375 -0.2562,-0.10022 -0.48671,-0.23627 -0.71875,-0.375 -0.00741,-0.0044 -0.023866,0.0045 -0.03125,0 -0.0319,-0.019 -0.0622,-0.042 -0.0937,-0.062 -0.1204,-0.077 -0.231,-0.164 -0.3437,-0.25 -0.1062,-0.081 -0.2133,-0.161 -0.3126,-0.25 -0.1778,-0.162 -0.3473,-0.346 -0.4999,-0.531 -0.1075,-0.131 -0.2183,-0.266 -0.3124,-0.407 -0.0251,-0.038 -0.0385,-0.086 -0.0626,-0.125 -0.0647,-0.103 -0.1302,-0.204 -0.1874,-0.312 -0.1011,-0.195 -0.2057,-0.416 -0.2813,-0.625 -0.008,-0.022 -0.0236,-0.041 -0.0313,-0.063 -0.0318,-0.092 -0.0358,-0.187 -0.0624,-0.281 -0.0304,-0.107 -0.0704,-0.203 -0.0938,-0.313 -0.0729,-0.341 -0.125,-0.698 -0.125,-1.062 l 0,-72 c 0,-2.782 2.2182,-5 5,-5 l 72,0 c 2.7818,0 5,2.2182 5,5 l 0,72 c 0,0.3643 -0.05212,0.72099 -0.125,1.0625 -0.04415,0.20689 -0.08838,0.39766 -0.15625,0.59375 -0.0077,0.02195 -0.0233,0.04069 -0.03125,0.0625 -0.06274,0.17374 -0.13838,0.36745 -0.21875,0.53125 -0.04158,0.0828 -0.07904,0.16995 -0.125,0.25 -0.0546,0.09721 -0.12677,0.18835 -0.1875,0.28125 -0.09411,0.14096 -0.20492,0.276 -0.3125,0.40625 -0.14317,0.17445 -0.30314,0.347 -0.46875,0.5 -0.01117,0.0102 -0.01998,0.02115 -0.03125,0.03125 -0.13839,0.12556 -0.28509,0.23444 -0.4375,0.34375 -0.10257,0.07315 -0.20432,0.15336 -0.3125,0.21875 -0.0074,0.0045 -0.02384,-0.0044 -0.03125,0 -0.23204,0.13873 -0.46255,0.27478 -0.71875,0.375 0.30153,-0.0968 0.59646,-0.20414 0.875,-0.34375 0.55709,-0.27922 1.0601,-0.66569 1.5,-1.0938 0.21997,-0.21403 0.40937,-0.44186 0.59375,-0.6875 0.18438,-0.24564 0.35541,-0.50774 0.5,-0.78125 0.14012,-0.26505 0.27614,-0.52473 0.375,-0.8125 0.01041,-0.03078 0.02133,-0.06274 0.03125,-0.09375 0.09046,-0.27808 0.1388,-0.5794 0.1875,-0.875 0.053,-0.318 0.094,-0.634 0.094,-0.969 l 0,-72 c 0,-3.324 -2.676,-6 -6,-6 l -72,0 z" />
      <path
         style="fill:url(#t)"
         inkscape:connector-curvature="0"
         id="path127"
         d="m 17,12 c -2.7527,0 -5,2.2473 -5,5 l 0,62 c 0,2.7527 2.2473,5 5,5 l 62,0 c 2.7527,0 5,-2.2473 5,-5 l 0,-62 c 0,-2.7527 -2.2473,-5 -5,-5 l -62,0 z m 0,2 62,0 c 1.6793,0 3,1.3207 3,3 l 0,62 c 10e-7,1.6793 -1.3207,3 -3,3 l -62,0 c -1.6793,0 -3,-1.3207 -3,-3 l 0,-62 c 0,-1.6793 1.3207,-3 3,-3 z" />
      <path
         style="opacity:0.4;fill:url(#v)"
         inkscape:connector-curvature="0"
         id="path129"
         d="M 12,90 C 8.676,90 6,87.324 6,84 L 6,12 c 0,-0.33472 0.04135,-0.6507 0.09375,-0.96875 0.0487,-0.2956 0.09704,-0.59692 0.1875,-0.875 0.0099,-0.03 0.0209,-0.063 0.0313,-0.094 0.0989,-0.2873 0.2349,-0.547 0.375,-0.812 0.1446,-0.2735 0.3156,-0.5356 0.5,-0.7812 0.1844,-0.2457 0.3738,-0.4735 0.5937,-0.6876 0.44,-0.428 0.943,-0.8145 1.5,-1.0937 0.2786,-0.1396 0.5735,-0.2469 0.8748,-0.3437 -0.256,0.1002 -0.4865,0.2362 -0.7185,0.375 -0.00741,0.0044 -0.023866,-0.0045 -0.03125,0 -0.031933,0.0193 -0.062293,0.04251 -0.09375,0.0625 -0.1204,0.0767 -0.23102,0.16351 -0.34375,0.25 -0.10617,0.0808 -0.21328,0.16111 -0.3125,0.25 -0.1779,0.1614 -0.3474,0.3453 -0.5,0.5312 -0.1075,0.1303 -0.2183,0.2653 -0.3124,0.4063 -0.0251,0.0383 -0.0385,0.0858 -0.0626,0.125 -0.0647,0.103 -0.1302,0.2045 -0.1874,0.3124 -0.1011,0.1948 -0.2057,0.4158 -0.2813,0.625 -0.008,0.0219 -0.0236,0.0406 -0.0313,0.0626 -0.0318,0.0919 -0.0358,0.1868 -0.0624,0.2812 -0.0304,0.1066 -0.0704,0.203 -0.0938,0.3125 -0.0729,0.3415 -0.125,0.6985 -0.125,1.0625 l 0,72 c 0,2.7818 2.2182,5 5,5 l 72,0 c 2.7818,0 5,-2.2182 5,-5 l 0,-72 c 0,-0.364 -0.052,-0.721 -0.125,-1.0625 -0.044,-0.2069 -0.088,-0.3977 -0.156,-0.5937 -0.008,-0.022 -0.024,-0.0407 -0.031,-0.0626 -0.063,-0.1737 -0.139,-0.3674 -0.219,-0.5312 -0.042,-0.0828 -0.079,-0.17 -0.125,-0.25 -0.055,-0.0972 -0.127,-0.1884 -0.188,-0.2812 -0.094,-0.141 -0.205,-0.276 -0.312,-0.4063 -0.143,-0.1745 -0.303,-0.347 -0.469,-0.5 -0.011,-0.0102 -0.02,-0.0211 -0.031,-0.0313 -0.139,-0.1255 -0.285,-0.2344 -0.438,-0.3437 -0.102,-0.0731 -0.204,-0.1534 -0.312,-0.2187 -0.0074,-0.0045 -0.02384,0.0044 -0.03125,0 -0.23204,-0.13873 -0.46255,-0.27478 -0.71875,-0.375 0.30153,0.0968 0.59646,0.20414 0.875,0.34375 0.55709,0.27922 1.0601,0.66569 1.5,1.0938 0.21997,0.21403 0.40937,0.44186 0.59375,0.6875 0.18438,0.24564 0.35541,0.50774 0.5,0.78125 0.14012,0.26505 0.27614,0.52473 0.375,0.8125 0.01041,0.03078 0.02133,0.06274 0.03125,0.09375 0.09046,0.27808 0.1388,0.5794 0.1875,0.875 0.053,0.318 0.094,0.634 0.094,0.969 l 0,72 c 0,3.324 -2.676,6 -6,6 l -72,0 z" />
    </g>
  </g>
  <g
     transform="matrix(0.42052069,0,0,0.45741556,-16.383267,4.3112368)"
     id="g60">
    <path
       inkscape:connector-curvature="0"
       style="color:#000000;opacity:0.19886002;fill:url(#radialGradient3540)"
       d="m 42.5,39.125 a 17.688,6.625 0 1 1 -35.375,0 17.688,6.625 0 1 1 35.375,0 z"
       transform="matrix(0.75112,0,0,0.5787,70.66,20.066)"
       id="path62" />
    <path
       inkscape:connector-curvature="0"
       style="color:#000000;opacity:0.3125;fill:url(#radialGradient3542)"
       d="m 42.5,39.125 a 17.688,6.625 0 1 1 -35.375,0 17.688,6.625 0 1 1 35.375,0 z"
       transform="matrix(0.83607,0,0,0.68544,45.66,16.42)"
       id="path64" />
    <path
       inkscape:connector-curvature="0"
       style="color:#000000;fill:url(#i);stroke:#888a85"
       d="M 71.526,21.918 90.519,41.35 c 0.76849,0.87827 3.2035,1.5571 4.8305,0 1.5711,-1.5036 1.2076,-3.6229 -0.32935,-5.1598 l -18.224,-19.542 c 2.25,-6.25 -2.3039,-11.5 -8.1789,-10.375 l -1.2625,1.1527 3.9522,3.7326 0.21957,3.2935 -2.9508,2.6936 -3.5264,-0.38814 -3.6229,-3.4033 -1.2701,1.2549 c -0.59076,5.6413 5.3077,10.683 11.37,7.3082 z"
       id="path66" />
    <path
       inkscape:connector-curvature="0"
       style="color:#000000;opacity:0.42613998;fill:none;stroke:#ffffff"
       d="M 71.737,20.643 90.94,40.671 c 0.59491,0.67989 2.4799,1.2054 3.7394,0 1.2163,-1.164 0.93485,-2.8046 -0.25496,-3.9944 l -18.491,-19.622 c 1.5,-6.5 -1.8588,-10.005 -6.8588,-9.8796 l -0.27013,0.27338 3.6029,3.2363 0.13017,4.1818 -3.6139,3.2985 -4.2423,-0.45821 -3.1766,-2.9915 -0.35264,0.43006 c -0.3125,5.9688 6.4917,8.6848 10.585,5.4973 z"
       id="path68" />
    <rect
       style="color:#000000;opacity:0.17045001;fill:none;stroke:url(#j)"
       transform="matrix(0.69794047,0.71615578,-0.71615578,0.69794047,0,0)"
       rx="0.88388002"
       ry="0.88388002"
       height="2.0555"
       width="23.268"
       y="-40.528"
       x="66.112"
       id="rect70" />
    <path
       inkscape:connector-curvature="0"
       style="color:#000000;fill:url(#k);stroke:#878f9d"
       d="M 76.118,30.828 C 76.952,30.113 89.402,17.379 89.402,17.379 l 3.0739,-0.21957 4.8305,-6.6968 -4.0243,-3.5852 -6.2577,5.3794 0,3.0739 -12.735,13.229 c -0.60381,0.60381 1.0602,2.9265 1.8287,2.2678 z"
       id="path72" />
    <path
       inkscape:connector-curvature="0"
       style="color:#000000;opacity:0.53977003;fill:none;stroke:url(#l)"
       d="m 76.022,29.788 c 0.646,-0.555 13.024,-13.23 13.024,-13.23 l 2.9286,-0.248 4.2139,-5.6621 -2.8897,-2.549 -5.4766,4.7175 0.15526,2.851 -12.676,13.292 c -0.46852,0.46852 0.12396,1.3392 0.72026,0.82811 z"
       id="path74" />
    <path
       inkscape:connector-curvature="0"
       style="color:#000000;fill:url(#m);stroke:#204a87"
       d="m 62.085,44.314 c 1.3166,1.4652 4.9737,2.1282 6.5954,-0.70991 0.70711,-1.2374 2.0939,-4.7028 8.2811,-10.271 1.0391,-0.93417 2.1399,-3.0711 1.2067,-4.2239 l -2.4152,-2.4152 c -0.98805,-1.0978 -3.7344,-0.58575 -4.8612,0.95088 -3.3588,4.5962 -8.8461,8.2549 -10.084,8.6968 -2.3679,0.84568 -2.1014,4.3361 -0.53482,5.9965 l 1.8114,1.9761 z"
       id="path76" />
    <path
       inkscape:connector-curvature="0"
       style="color:#000000;fill:#ffffff;stroke:#a1a1a1;stroke-width:1.13859999"
       d="m 43.25,37.5 a 1.375,1.375 0 1 1 -2.75,0 1.375,1.375 0 1 1 2.75,0 z"
       transform="matrix(0.87827,0,0,0.87827,56.047,5.7799)"
       id="path78" />
    <path
       inkscape:connector-curvature="0"
       style="color:#000000;opacity:0.60227003;fill:#ffffff"
       d="m 20.771,28.201 a 1.7678,1.7678 0 1 1 -3.5355,0 1.7678,1.7678 0 1 1 3.5355,0 z"
       transform="matrix(0.57088,0,0,0.57088,62.774,11.954)"
       id="path80" />
    <path
       inkscape:connector-curvature="0"
       style="color:#000000;fill:none;stroke:url(#n);stroke-width:2.29450011;stroke-linecap:round;stroke-linejoin:round"
       d="m 72.299,30.327 c 0,0 -7.1699,7.2996 -10.529,8.537"
       id="path82" />
    <path
       inkscape:connector-curvature="0"
       style="color:#000000;opacity:0.19886002;fill:none;stroke:#ffffff"
       d="m 62.426,43.189 c 1.4413,1.7456 4.5995,2.1612 5.5912,-0.37059 0.68131,-1.7395 3.3336,-5.6658 8.1976,-10.043 0.81691,-0.73438 1.6823,-2.4143 0.94867,-3.3205 l -1.8987,-1.8987 c -0.77674,-0.86305 -2.9358,-0.46048 -3.8215,0.74752 -2.6404,3.6132 -8.4833,8.3396 -9.8957,8.8056 -2.1868,0.72161 -1.777,3.2213 -0.54544,4.5265 l 1.424,1.5535 z"
       id="path84" />
    <path
       inkscape:connector-curvature="0"
       style="color:#000000;opacity:0.27841001;fill:none;stroke:url(#o);stroke-width:2.29450011;stroke-linecap:round;stroke-linejoin:round"
       d="m 74.444,31.963 c 0,0 -7.3228,6.6174 -8.9138,10.86"
       id="path86" />
  </g>
</svg>
