<svg id="Слой_1" data-name="Слой 1"
  xmlns:cc="http://creativecommons.org/ns#"
  xmlns:rdf="http://www.w3.org/1999/02/22-rdf-syntax-ns#"
  xmlns="http://www.w3.org/2000/svg" viewBox="0 0 26 26">
  <metadata id="metadata43">
    <rdf:RDF>
      <cc:Work rdf:about="">
        <cc:license rdf:resource="http://creativecommons.org/licenses/by/4.0/" />
      </cc:Work>
      <cc:License rdf:about="http://creativecommons.org/licenses/by/4.0/">
        <cc:permits rdf:resource="http://creativecommons.org/ns#Reproduction" />
        <cc:permits rdf:resource="http://creativecommons.org/ns#Distribution" />
        <cc:requires rdf:resource="http://creativecommons.org/ns#Notice" />
        <cc:requires rdf:resource="http://creativecommons.org/ns#Attribution" />
        <cc:permits rdf:resource="http://creativecommons.org/ns#DerivativeWorks" />
      </cc:License>
    </rdf:RDF>
  </metadata>
  <defs>
    <style>.cls-1{fill:#545454;}</style>
  </defs>
  <title>grid</title>
  <rect class="cls-1" x="1.5861" y="1.5881" width="2.8297" height="2.8297" transform="translate(3.0024 -1.2424) rotate(45.0014)"/>
  <rect class="cls-1" x="8.2522" y="1.5881" width="2.8297" height="2.8297" transform="translate(4.955 -5.9562) rotate(45.0012)"/>
  <rect class="cls-1" x="14.9183" y="1.5881" width="2.8297" height="2.8297" transform="translate(6.9076 -10.67) rotate(45.0014)"/>
  <rect class="cls-1" x="21.5843" y="1.5881" width="2.8297" height="2.8297" transform="translate(8.8597 -15.3833) rotate(45)"/>
  <rect class="cls-1" x="1.5861" y="8.2595" width="2.8297" height="2.8297" transform="translate(7.7199 0.7117) rotate(45.0014)"/>
  <rect class="cls-1" x="8.2522" y="8.2595" width="2.8297" height="2.8297" transform="translate(9.6724 -4.0021) rotate(45.0012)"/>
  <rect class="cls-1" x="14.9183" y="8.2595" width="2.8297" height="2.8297" transform="translate(11.6251 -8.7158) rotate(45.0014)"/>
  <rect class="cls-1" x="21.5843" y="8.2595" width="2.8297" height="2.8297" transform="translate(13.5771 -13.4293) rotate(45)"/>
  <rect class="cls-1" x="1.5861" y="14.9309" width="2.8297" height="2.8297" transform="translate(12.4374 2.6658) rotate(45.0014)"/>
  <rect class="cls-1" x="8.2522" y="14.9309" width="2.8297" height="2.8297" transform="translate(14.3899 -2.048) rotate(45.0012)"/>
  <rect class="cls-1" x="14.9183" y="14.9309" width="2.8297" height="2.8297" transform="translate(16.3426 -6.7617) rotate(45.0014)"/>
  <rect class="cls-1" x="21.5843" y="14.9309" width="2.8297" height="2.8297" transform="translate(18.2945 -11.4753) rotate(45)"/>
  <rect class="cls-1" x="1.5861" y="21.6023" width="2.8297" height="2.8297" transform="translate(17.155 4.6199) rotate(45.0014)"/>
  <rect class="cls-1" x="8.2522" y="21.6023" width="2.8297" height="2.8297" transform="translate(19.1074 -0.0939) rotate(45.0012)"/>
  <rect class="cls-1" x="14.9183" y="21.6023" width="2.8297" height="2.8297" transform="translate(21.0601 -4.8076) rotate(45.0014)"/>
  <rect class="cls-1" x="21.5843" y="21.6023" width="2.8297" height="2.8297" transform="translate(23.0119 -9.5213) rotate(45)"/>
</svg>