<svg xmlns="http://www.w3.org/2000/svg" height="48" width="48" version="1.1">
 <g transform="translate(0,24)">
  <g fill-rule="evenodd" transform="matrix(2.3889,0,0,2.2907,128.83,-53.01)">
   <g transform="translate(-56,11)">
    <path d="m-15.125 8.9375a0.90625 0.9375 0 1 1 -1.8125 0 0.90625 0.9375 0 1 1 1.8125 0z" transform="matrix(1.1034,0,-2.1667e-7,1.0667,21.69,-5.5333)"/>
    <path d="m-15.125 8.9375a0.90625 0.9375 0 1 1 -1.8125 0 0.90625 0.9375 0 1 1 1.8125 0z" transform="matrix(1.1034,0,-2.1667e-7,1.0667,25.69,-5.5333)"/>
    <path d="m-15.125 8.9375a0.90625 0.9375 0 1 1 -1.8125 0 0.90625 0.9375 0 1 1 1.8125 0z" transform="matrix(1.1034,0,-2.1667e-7,1.0667,29.69,-5.5333)"/>
    <path d="m-15.125 8.9375a0.90625 0.9375 0 1 1 -1.8125 0 0.90625 0.9375 0 1 1 1.8125 0z" transform="matrix(1.1034,0,-2.1667e-7,1.0667,33.69,-5.5333)"/>
    <path d="m-15.125 8.9375a0.90625 0.9375 0 1 1 -1.8125 0 0.90625 0.9375 0 1 1 1.8125 0z" transform="matrix(1.1034,0,-2.1667e-7,1.0667,37.69,-5.5333)"/>
   </g>
   <g transform="translate(-56,15)">
    <path d="m-15.125 8.9375a0.90625 0.9375 0 1 1 -1.8125 0 0.90625 0.9375 0 1 1 1.8125 0z" transform="matrix(1.1034,0,-2.1667e-7,1.0667,21.69,-5.5333)"/>
    <path d="m-15.125 8.9375a0.90625 0.9375 0 1 1 -1.8125 0 0.90625 0.9375 0 1 1 1.8125 0z" transform="matrix(1.1034,0,-2.1667e-7,1.0667,25.69,-5.5333)"/>
    <path d="m-15.125 8.9375a0.90625 0.9375 0 1 1 -1.8125 0 0.90625 0.9375 0 1 1 1.8125 0z" transform="matrix(1.1034,0,-2.1667e-7,1.0667,29.69,-5.5333)"/>
    <path d="m-15.125 8.9375a0.90625 0.9375 0 1 1 -1.8125 0 0.90625 0.9375 0 1 1 1.8125 0z" transform="matrix(1.1034,0,-2.1667e-7,1.0667,33.69,-5.5333)"/>
    <path d="m-15.125 8.9375a0.90625 0.9375 0 1 1 -1.8125 0 0.90625 0.9375 0 1 1 1.8125 0z" transform="matrix(1.1034,0,-2.1667e-7,1.0667,37.69,-5.5333)"/>
   </g>
   <g transform="translate(-56,19)">
    <path d="m-15.125 8.9375a0.90625 0.9375 0 1 1 -1.8125 0 0.90625 0.9375 0 1 1 1.8125 0z" transform="matrix(1.1034,0,-2.1667e-7,1.0667,21.69,-5.5333)"/>
    <path d="m-15.125 8.9375a0.90625 0.9375 0 1 1 -1.8125 0 0.90625 0.9375 0 1 1 1.8125 0z" transform="matrix(1.1034,0,-2.1667e-7,1.0667,25.69,-5.5333)"/>
    <path d="m-15.125 8.9375a0.90625 0.9375 0 1 1 -1.8125 0 0.90625 0.9375 0 1 1 1.8125 0z" transform="matrix(1.1034,0,-2.1667e-7,1.0667,29.69,-5.5333)"/>
    <path d="m-15.125 8.9375a0.90625 0.9375 0 1 1 -1.8125 0 0.90625 0.9375 0 1 1 1.8125 0z" transform="matrix(1.1034,0,-2.1667e-7,1.0667,33.69,-5.5333)"/>
    <path d="m-15.125 8.9375a0.90625 0.9375 0 1 1 -1.8125 0 0.90625 0.9375 0 1 1 1.8125 0z" transform="matrix(1.1034,0,-2.1667e-7,1.0667,37.69,-5.5333)"/>
   </g>
   <g transform="translate(-56,23)">
    <path d="m-15.125 8.9375a0.90625 0.9375 0 1 1 -1.8125 0 0.90625 0.9375 0 1 1 1.8125 0z" transform="matrix(1.1034,0,-2.1667e-7,1.0667,21.69,-5.5333)"/>
    <path d="m-15.125 8.9375a0.90625 0.9375 0 1 1 -1.8125 0 0.90625 0.9375 0 1 1 1.8125 0z" transform="matrix(1.1034,0,-2.1667e-7,1.0667,25.69,-5.5333)"/>
    <path d="m-15.125 8.9375a0.90625 0.9375 0 1 1 -1.8125 0 0.90625 0.9375 0 1 1 1.8125 0z" transform="matrix(1.1034,0,-2.1667e-7,1.0667,29.69,-5.5333)"/>
    <path d="m-15.125 8.9375a0.90625 0.9375 0 1 1 -1.8125 0 0.90625 0.9375 0 1 1 1.8125 0z" transform="matrix(1.1034,0,-2.1667e-7,1.0667,33.69,-5.5333)"/>
    <path d="m-15.125 8.9375a0.90625 0.9375 0 1 1 -1.8125 0 0.90625 0.9375 0 1 1 1.8125 0z" transform="matrix(1.1034,0,-2.1667e-7,1.0667,37.69,-5.5333)"/>
   </g>
   <g transform="translate(-56,27)">
    <path d="m-15.125 8.9375a0.90625 0.9375 0 1 1 -1.8125 0 0.90625 0.9375 0 1 1 1.8125 0z" transform="matrix(1.1034,0,-2.1667e-7,1.0667,21.69,-5.5333)"/>
    <path d="m-15.125 8.9375a0.90625 0.9375 0 1 1 -1.8125 0 0.90625 0.9375 0 1 1 1.8125 0z" transform="matrix(1.1034,0,-2.1667e-7,1.0667,25.69,-5.5333)"/>
    <path d="m-15.125 8.9375a0.90625 0.9375 0 1 1 -1.8125 0 0.90625 0.9375 0 1 1 1.8125 0z" transform="matrix(1.1034,0,-2.1667e-7,1.0667,29.69,-5.5333)"/>
    <path d="m-15.125 8.9375a0.90625 0.9375 0 1 1 -1.8125 0 0.90625 0.9375 0 1 1 1.8125 0z" transform="matrix(1.1034,0,-2.1667e-7,1.0667,33.69,-5.5333)"/>
    <path d="m-15.125 8.9375a0.90625 0.9375 0 1 1 -1.8125 0 0.90625 0.9375 0 1 1 1.8125 0z" transform="matrix(1.1034,0,-2.1667e-7,1.0667,37.69,-5.5333)"/>
   </g>
  </g>
 </g>
</svg>
