<svg id="Слой_1" data-name="Слой 1"
  xmlns:dc="http://purl.org/dc/elements/1.1/"
  xmlns:cc="http://creativecommons.org/ns#"
  xmlns:rdf="http://www.w3.org/1999/02/22-rdf-syntax-ns#"
  xmlns="http://www.w3.org/2000/svg" viewBox="0 0 26 26">
  <metadata id="metadata43">
    <rdf:RDF>
      <cc:Work rdf:about="">
        <cc:license rdf:resource="http://creativecommons.org/licenses/by-sa/4.0/" />
        <dc:format>image/svg+xml</dc:format>
        <dc:type rdf:resource="http://purl.org/dc/dcmitype/StillImage" />
        <dc:title>add_arc</dc:title>
      </cc:Work>
      <cc:License rdf:about="http://creativecommons.org/licenses/by-sa/4.0/">
        <cc:permits rdf:resource="http://creativecommons.org/ns#Reproduction" />
        <cc:permits rdf:resource="http://creativecommons.org/ns#Distribution" />
        <cc:requires rdf:resource="http://creativecommons.org/ns#Notice" />
        <cc:requires rdf:resource="http://creativecommons.org/ns#Attribution" />
        <cc:permits rdf:resource="http://creativecommons.org/ns#DerivativeWorks" />
        <cc:requires rdf:resource="http://creativecommons.org/ns#ShareAlike" />
      </cc:License>
    </rdf:RDF>
  </metadata>
  <defs>
    <style>.cls-1{fill:#1a81c4;}</style>
  </defs>
  <title>hammer</title>
  <path class="cls-1" d="M22.6065,13.01H20.2078V9.0075a3.203,3.203,0,0,0-3.203-3.203H13.0025V3.4037a2.4038,2.4038,0,0,0-4.8075,0V5.8045H4.1927A3.203,3.203,0,0,0,.99,9.0075v4.005H3.3841a2.4037,2.4037,0,1,1,0,4.8073H.99v4a3.203,3.203,0,0,0,3.203,3.203H8.195V22.625a2.4038,2.4038,0,0,1,4.8075,0v2.3976h4.0022A3.2031,3.2031,0,0,0,20.2078,21.82V17.8172h2.3987a2.4037,2.4037,0,1,0,0-4.8073Z"/>
</svg>