<svg xmlns="http://www.w3.org/2000/svg" height="48" width="48" version="1.0" xmlns:xlink="http://www.w3.org/1999/xlink">
 <defs>
  <filter id="bd" height="1.2188" width="1.1711" color-interpolation-filters="sRGB" y="-.10939" x="-.085532">
   <feGaussianBlur stdDeviation="0.5212367"/>
  </filter>
  <clipPath id="ba">
   <path fill-rule="evenodd" fill="#e20071" d="m125.17 12.1c-2.97-2.8451-13.89-9.1076-15.33-6.9121-1.7366 2.6473 8.0971 9.683 11.902 11.399 1.3031 0.58771 4.4198-3.5325 3.4226-4.4875z"/>
  </clipPath>
  <linearGradient id="ap" y2="54.61" gradientUnits="userSpaceOnUse" x2="5.8861" gradientTransform="matrix(-.82057 .14917 .14917 .82057 119.95 -30.558)" y1="35.893" x1="29.344">
   <stop stop-color="#fff" offset="0"/>
   <stop stop-color="#fff" stop-opacity="0" offset="1"/>
  </linearGradient>
  <radialGradient id="ar" fx="47.818" gradientUnits="userSpaceOnUse" cy="43.681" cx="47.794" gradientTransform="matrix(1,0,0,140,0,-6071.6)" r=".046903">
   <stop stop-color="#fff" offset="0"/>
   <stop stop-color="#fff" stop-opacity="0" offset="1"/>
  </radialGradient>
  <radialGradient id="as" spreadMethod="reflect" gradientUnits="userSpaceOnUse" cy="-16.595" cx="59.888" gradientTransform="matrix(-2.2908 -1.2913 -.48773 .86138 257 93.121)" r="15.015">
   <stop stop-color="#fff" offset="0"/>
   <stop stop-color="#fff" stop-opacity="0" offset=".31868"/>
   <stop stop-color="#fff" stop-opacity="0" offset="1"/>
  </radialGradient>
  <radialGradient id="at" fx="60.05" fy="51.986" gradientUnits="userSpaceOnUse" cy="51.897" cx="58.079" gradientTransform="matrix(-2.9413 -1.1616 -.28462 .71367 292.26 68.534)" r="15.015">
   <stop offset="0"/>
   <stop stop-opacity="0" offset="1"/>
  </radialGradient>
  <linearGradient id="bf" y2="41.512" gradientUnits="userSpaceOnUse" x2="75.465" gradientTransform="matrix(-.9676 -.66924 -.67402 .97265 196.66 26.204)" y1="41.759" x1="45.277">
   <stop offset="0"/>
   <stop stop-opacity="0" offset=".14835"/>
   <stop stop-opacity=".39608" offset=".42444"/>
   <stop stop-opacity=".79061" offset=".57418"/>
   <stop stop-opacity=".093863" offset=".78709"/>
   <stop stop-opacity="0" offset="1"/>
  </linearGradient>
  <filter id="be" height="1.234" width="1.1628" color-interpolation-filters="sRGB" y="-.11702" x="-.081384">
   <feGaussianBlur stdDeviation="1.5574454"/>
  </filter>
  <clipPath id="bb">
   <path fill-rule="evenodd" fill="#34176e" d="m82.925-3.4354-1.6085-1.1919c0.52285-11.067 9.1717-20.603 22.622-22.256 3.3472 0.42435 5.5593 6.1692 6.8869 9.9448l10.547 3.5781 5.8736 4.3571c-2.5683 5.1112-5.6422 9.8785-9.5723 14.063l-6.4593-3.7121-7.4877-9.8626c-6.191-1.9842-14.02-1.2796-20.795 5.0794z"/>
  </clipPath>
  <linearGradient id="bg" y2="40.551" gradientUnits="userSpaceOnUse" x2="61.87" gradientTransform="matrix(-.9676 -.66924 -.67402 .97265 196.66 26.204)" y1="33.319" x1="61.87">
   <stop offset="0"/>
   <stop stop-opacity="0" offset="1"/>
  </linearGradient>
  <linearGradient id="bh" y2="55.575" gradientUnits="userSpaceOnUse" x2="108.79" gradientTransform="matrix(-.9676 -.66924 -.67402 .97265 196.66 26.204)" y1="59.273" x1="106.03">
   <stop stop-color="#fff" offset="0"/>
   <stop stop-color="#fff" stop-opacity="0" offset="1"/>
  </linearGradient>
  <radialGradient id="au" xlink:href="#ai" gradientUnits="userSpaceOnUse" cy="42.71" cx="94.436" gradientTransform="matrix(-2.2134 -1.558 -.91956 1.2856 320.8 101.44)" r="16.633"/>
  <radialGradient id="av" xlink:href="#ai" gradientUnits="userSpaceOnUse" cy="43.032" cx="94.932" gradientTransform="matrix(-1.776 -.89862 -1.0601 2.0826 285.12 4.6754)" r="16.633"/>
  <radialGradient id="aw" xlink:href="#ai" gradientUnits="userSpaceOnUse" cy="43.103" cx="93.748" gradientTransform="matrix(-1.776 -.89862 -1.0601 2.0826 285.12 4.6754)" r="16.633"/>
  <radialGradient id="ax" xlink:href="#ai" gradientUnits="userSpaceOnUse" cy="42.85" cx="92.99" gradientTransform="matrix(-1.776 -.89862 -1.0601 2.0826 285.12 4.6754)" r="16.633"/>
  <linearGradient id="ai">
   <stop stop-color="#111" offset="0"/>
   <stop stop-color="#6e6e70" offset=".14286"/>
   <stop stop-color="#101010" offset=".57143"/>
   <stop stop-color="#0d0d0d" offset="1"/>
  </linearGradient>
  <radialGradient id="ay" xlink:href="#ai" gradientUnits="userSpaceOnUse" cy="43.249" cx="92.496" gradientTransform="matrix(-1.776 -.89862 -1.0601 2.0826 285.12 4.6754)" r="16.633"/>
  <filter id="bc" height="1.5085" width="1.1183" color-interpolation-filters="sRGB" y="-.25424" x="-.059171">
   <feGaussianBlur stdDeviation="1.5280665"/>
  </filter>
  <clipPath id="az">
   <path fill-rule="evenodd" fill="#00583f" d="m103.98-1.5744c1.3663-0.21778 5.0008-1.3402 2.187-4.1177-29.998-21.599-54.176-12.632-63.235-6.4673 10.163-5.7316 35.836-9.7657 61.048 10.585z"/>
  </clipPath>
  <linearGradient id="bi" y2="62.35" gradientUnits="userSpaceOnUse" x2="118.03" gradientTransform="matrix(-.9676 -.66924 -.67402 .97265 196.66 26.204)" y1="46.47" x1="62.988">
   <stop stop-color="#e2dcdc" offset="0"/>
   <stop stop-color="#fff" offset=".39074"/>
   <stop stop-color="#dfd9df" offset=".82692"/>
   <stop stop-color="#c3c3c3" offset="1"/>
  </linearGradient>
  <radialGradient id="a" fx="-67.047" fy="83.803" gradientUnits="userSpaceOnUse" cy="84.213" cx="-67.615" gradientTransform="matrix(1 0 0 .63636 0 30.623)" r="1.4498">
   <stop offset="0"/>
   <stop stop-color="#2a2a2a" stop-opacity=".29537" offset="1"/>
  </radialGradient>
  <linearGradient id="bj" y2="77.233" xlink:href="#ah" gradientUnits="userSpaceOnUse" x2="-66.906" gradientTransform="matrix(1.1765,0,0,1.1834,-4.7978,-75.355)" y1="78.001" x1="-66.906"/>
  <linearGradient id="bl" y2="65.269" xlink:href="#ah" gradientUnits="userSpaceOnUse" x2="-58.207" gradientTransform="matrix(1.1765,0,0,1.1834,-4.7978,-79.666)" y1="49.462" x1="-74.013"/>
  <linearGradient id="bm" y2="75.48" xlink:href="#ah" gradientUnits="userSpaceOnUse" x2="38.452" gradientTransform="matrix(.98336 .66633 -.65826 .96974 55.44 -32.927)" y1="75.416" x1="36.909"/>
  <linearGradient id="ah">
   <stop offset="0"/>
   <stop stop-opacity="0" offset="1"/>
  </linearGradient>
  <linearGradient id="ak" y2="75.48" xlink:href="#ah" gradientUnits="userSpaceOnUse" x2="38.615" gradientTransform="matrix(-.9676 -.66924 -.67402 .97265 144.45 27.449)" y1="75.416" x1="37.235"/>
  <linearGradient id="al" y2="125.9" xlink:href="#aj" gradientUnits="userSpaceOnUse" x2="45.616" gradientTransform="matrix(-.9676 -.66924 -.67402 .97265 144.55 27.43)" y1="128" x1="45.616"/>
  <linearGradient id="aj">
   <stop stop-color="#020202" offset="0"/>
   <stop stop-color="#020202" stop-opacity="0" offset="1"/>
  </linearGradient>
  <linearGradient id="am" y2="62.415" xlink:href="#aj" gradientUnits="userSpaceOnUse" x2="45.241" gradientTransform="matrix(-.9676 -.66924 -.67402 .97265 144.37 27.464)" y1="61.083" x1="45.241"/>
  <linearGradient id="an" y2="94.734" gradientUnits="userSpaceOnUse" x2="55.089" gradientTransform="matrix(-.9676 -.66924 -.67402 .97265 144.55 27.43)" y1="94.734" x1="34.913">
   <stop stop-color="#9a7600" offset="0"/>
   <stop stop-color="#e3ad00" offset=".32522"/>
   <stop stop-color="#ffcd2c" offset=".66703"/>
   <stop stop-color="#e3ad00" offset=".91571"/>
   <stop stop-color="#b98d00" offset="1"/>
  </linearGradient>
  <linearGradient id="bk" y2="75.717" xlink:href="#ah" gradientUnits="userSpaceOnUse" x2="-66.906" gradientTransform="matrix(1.1765,0,0,1.1834,-4.7827,-79.65)" y1="77.1" x1="-66.906"/>
  <linearGradient id="ao" y2="67.754" gradientUnits="userSpaceOnUse" x2="-59.581" gradientTransform="matrix(1.1765,0,0,1.1834,-4.7978,-79.666)" y1="67.754" x1="-70.589">
   <stop stop-color="#8d8d8d" offset="0"/>
   <stop stop-color="#e2dcdc" offset=".27679"/>
   <stop stop-color="#fff" offset=".71461"/>
   <stop stop-color="#dfd9df" offset=".80711"/>
   <stop stop-color="#888" offset="1"/>
  </linearGradient>
  <linearGradient id="aq" y2="117.28" gradientUnits="userSpaceOnUse" x2="128.16" gradientTransform="matrix(.78527 -.073677 .039463 .44928 22.778 70.711)" y1="117.28" x1=".16121">
   <stop offset="0"/>
   <stop stop-opacity="0" offset="1"/>
  </linearGradient>
 </defs>
 <g transform="matrix(.40351 0 0 .375 -2.4211 -3.0133e-7)">
  <path opacity=".32093" fill="url(#aq)" d="m128.05 113.96c0.23353 2.6587-60.636 10.545-88.378 13.148-27.742 2.6029-11.903-1.0588-12.136-3.7175-0.23353-2.6587-16.452-3.3126 11.29-5.9155s88.99-6.1739 89.224-3.5152z"/>
  <path fill-rule="evenodd" fill="#bfbfc0" d="m81.865 36.104-1.5901-1.1979c4.93-8.9829 9.0668-20.707 22.363-22.368 3.3089 0.42649 5.4957 6.2003 6.8081 9.9949l10.426 3.5961 5.8064 4.3791c-2.539 5.137-5.5777 9.9283-9.4628 14.134l-6.39-3.731-7.4-9.912c-6.129-1.995-13.868-1.286-20.565 5.105z"/>
  <rect transform="matrix(-.82245 -.56884 -.56958 .82194 0 0)" ry="0" width="12.941" y="-16.947" x="-87.845" height="29.584" fill="url(#ao)"/>
  <rect opacity=".36066" transform="matrix(-.82245 -.56884 -.56958 .82194 0 0)" ry="0" width="13.039" y="9.1017" x="-87.83" height="2.5542" fill="url(#bk)"/>
  <path fill="url(#an)" d="m66.429 63.173c-0.794 1.647-11.506 20.023-16.7 28.172-10.388 16.295-23.49 34.515-23.49 34.515-1.5715 2.2678-4.6485 2.81-6.9045 1.2496l-11.187-7.74c-2.256-1.5604-2.8312-4.6285-1.2596-6.8963 0 0 12.49-18.643 23.974-34.182 5.742-7.7697 18.95-24.409 20.145-25.789 1.2064-1.3925 2.4107-1.775 3.6876-0.89181 3.7419 2.5881 7.4838 5.1761 11.226 7.7642 1.0759 0.74414 1.4495 1.8444 0.50964 3.7948z"/>
  <path opacity=".091575" fill="url(#am)" d="m66.248 63.206c-0.794 1.648-16.619-9.287-15.423-10.667 1.2064-1.3925 2.4107-1.775 3.6876-0.89181 3.7419 2.5881 7.4838 5.1761 11.226 7.7642 1.0759 0.74413 1.4495 1.8444 0.50964 3.7948z"/>
  <path opacity=".36996" fill="url(#al)" d="m26.239 125.86c-1.5715 2.2678-4.6485 2.81-6.9045 1.2496l-11.187-7.74c-2.256-1.5604-2.8312-4.6285-1.2596-6.8963l19.352 13.385z"/>
  <path opacity=".36996" fill="url(#ak)" d="m66.331 63.191c-0.794 1.647-11.507 20.023-16.701 28.172-10.387 16.297-23.489 34.517-23.489 34.517-1.5715 2.2678 35.938-69.072 39.68-66.484 1.0759 0.74413 1.4495 1.8444 0.50964 3.7948z"/>
  <path opacity=".2381" fill="url(#bm)" d="m51.021 52.412c-1.244 1.318-14.429 17.756-20.112 25.458-11.365 15.405-23.519 34.01-23.519 34.01-1.535 2.26 51.165-57.75 47.362-60.327-1.093-0.741-2.259-0.702-3.732 0.859z"/>
  <rect opacity=".25" transform="matrix(-.82245 -.56884 -.56958 .82194 0 0)" ry="0" width="12.941" y="-16.947" x="-87.845" height="22.484" fill="url(#bl)"/>
  <rect opacity=".29098" transform="matrix(-.82245 -.56884 .56958 -.82194 0 0)" ry="0" width="12.941" y="12.823" x="-87.845" height="4.1249" fill="url(#bj)"/>
  <path opacity=".21245" d="m-66.165 84.213c0 0.50955-0.64911 0.92262-1.4498 0.92262-0.80072 0-1.4498-0.41307-1.4498-0.92262s0.64911-0.92262 1.4498-0.92262c0.80072 0 1.4498 0.41307 1.4498 0.92262z" transform="matrix(-1.0011 -.69239 -1.0958 1.5813 82.34 -119.63)" fill="url(#a)"/>
  <path opacity=".21245" d="m-66.165 84.213c0 0.50955-0.64911 0.92262-1.4498 0.92262-0.80072 0-1.4498-0.41307-1.4498-0.92262s0.64911-0.92262 1.4498-0.92262c0.80072 0 1.4498 0.41307 1.4498 0.92262z" transform="matrix(-1.0011 -.69239 -1.0958 1.5813 78.296 -113.79)" fill="url(#a)"/>
  <path opacity=".21245" d="m-66.165 84.213c0 0.50955-0.64911 0.92262-1.4498 0.92262-0.80072 0-1.4498-0.41307-1.4498-0.92262s0.64911-0.92262 1.4498-0.92262c0.80072 0 1.4498 0.41307 1.4498 0.92262z" transform="matrix(-1.0011 -.69239 -1.0958 1.5813 74.252 -107.95)" fill="url(#a)"/>
  <path opacity=".21245" d="m-66.165 84.213c0 0.50955-0.64911 0.92262-1.4498 0.92262-0.80072 0-1.4498-0.41307-1.4498-0.92262s0.64911-0.92262 1.4498-0.92262c0.80072 0 1.4498 0.41307 1.4498 0.92262z" transform="matrix(-1.0011 -.69239 -1.0958 1.5813 70.207 -102.12)" fill="url(#a)"/>
  <path opacity=".21245" d="m-66.165 84.213c0 0.50955-0.64911 0.92262-1.4498 0.92262-0.80072 0-1.4498-0.41307-1.4498-0.92262s0.64911-0.92262 1.4498-0.92262c0.80072 0 1.4498 0.41307 1.4498 0.92262z" transform="matrix(-1.0011 -.69239 -1.0958 1.5813 66.163 -96.282)" fill="url(#a)"/>
  <path opacity=".21245" d="m-66.165 84.213c0 0.50955-0.64911 0.92262-1.4498 0.92262-0.80072 0-1.4498-0.41307-1.4498-0.92262s0.64911-0.92262 1.4498-0.92262c0.80072 0 1.4498 0.41307 1.4498 0.92262z" transform="matrix(-1.0011 -.69239 -1.0958 1.5813 62.119 -90.446)" fill="url(#a)"/>
  <path opacity=".21245" d="m-66.165 84.213c0 0.50955-0.64911 0.92262-1.4498 0.92262-0.80072 0-1.4498-0.41307-1.4498-0.92262s0.64911-0.92262 1.4498-0.92262c0.80072 0 1.4498 0.41307 1.4498 0.92262z" transform="matrix(-1.0011 -.69239 -1.0958 1.5813 57.401 -83.638)" fill="url(#a)"/>
  <path opacity=".21245" d="m-66.165 84.213c0 0.50955-0.64911 0.92262-1.4498 0.92262-0.80072 0-1.4498-0.41307-1.4498-0.92262s0.64911-0.92262 1.4498-0.92262c0.80072 0 1.4498 0.41307 1.4498 0.92262z" transform="matrix(-1.0011 -.69239 -1.0958 1.5813 53.357 -77.802)" fill="url(#a)"/>
  <path opacity=".21245" d="m-66.165 84.213c0 0.50955-0.64911 0.92262-1.4498 0.92262-0.80072 0-1.4498-0.41307-1.4498-0.92262s0.64911-0.92262 1.4498-0.92262c0.80072 0 1.4498 0.41307 1.4498 0.92262z" transform="matrix(-1.0011 -.69239 -1.0958 1.5813 49.313 -71.966)" fill="url(#a)"/>
  <path opacity=".21245" d="m-66.165 84.213c0 0.50955-0.64911 0.92262-1.4498 0.92262-0.80072 0-1.4498-0.41307-1.4498-0.92262s0.64911-0.92262 1.4498-0.92262c0.80072 0 1.4498 0.41307 1.4498 0.92262z" transform="matrix(-1.0011 -.69239 -1.0958 1.5813 45.269 -66.13)" fill="url(#a)"/>
  <path opacity=".21245" d="m-66.165 84.213c0 0.50955-0.64911 0.92262-1.4498 0.92262-0.80072 0-1.4498-0.41307-1.4498-0.92262s0.64911-0.92262 1.4498-0.92262c0.80072 0 1.4498 0.41307 1.4498 0.92262z" transform="matrix(-1.0011 -.69239 -1.0958 1.5813 45.269 -66.13)" fill="url(#a)"/>
  <path opacity=".21245" d="m-66.165 84.213c0 0.50955-0.64911 0.92262-1.4498 0.92262-0.80072 0-1.4498-0.41307-1.4498-0.92262s0.64911-0.92262 1.4498-0.92262c0.80072 0 1.4498 0.41307 1.4498 0.92262z" transform="matrix(-1.0011 -.69239 -1.0958 1.5813 74.512 -120.72)" fill="url(#a)"/>
  <path opacity=".21245" d="m-66.165 84.213c0 0.50955-0.64911 0.92262-1.4498 0.92262-0.80072 0-1.4498-0.41307-1.4498-0.92262s0.64911-0.92262 1.4498-0.92262c0.80072 0 1.4498 0.41307 1.4498 0.92262z" transform="matrix(-1.0011 -.69239 -1.0958 1.5813 70.468 -114.89)" fill="url(#a)"/>
  <path opacity=".21245" d="m-66.165 84.213c0 0.50955-0.64911 0.92262-1.4498 0.92262-0.80072 0-1.4498-0.41307-1.4498-0.92262s0.64911-0.92262 1.4498-0.92262c0.80072 0 1.4498 0.41307 1.4498 0.92262z" transform="matrix(-1.0011 -.69239 -1.0958 1.5813 66.424 -109.05)" fill="url(#a)"/>
  <path opacity=".21245" d="m-66.165 84.213c0 0.50955-0.64911 0.92262-1.4498 0.92262-0.80072 0-1.4498-0.41307-1.4498-0.92262s0.64911-0.92262 1.4498-0.92262c0.80072 0 1.4498 0.41307 1.4498 0.92262z" transform="matrix(-1.0011 -.69239 -1.0958 1.5813 62.38 -103.22)" fill="url(#a)"/>
  <path opacity=".21245" d="m-66.165 84.213c0 0.50955-0.64911 0.92262-1.4498 0.92262-0.80072 0-1.4498-0.41307-1.4498-0.92262s0.64911-0.92262 1.4498-0.92262c0.80072 0 1.4498 0.41307 1.4498 0.92262z" transform="matrix(-1.0011 -.69239 -1.0958 1.5813 58.336 -97.38)" fill="url(#a)"/>
  <path opacity=".21245" d="m-66.165 84.213c0 0.50955-0.64911 0.92262-1.4498 0.92262-0.80072 0-1.4498-0.41307-1.4498-0.92262s0.64911-0.92262 1.4498-0.92262c0.80072 0 1.4498 0.41307 1.4498 0.92262z" transform="matrix(-1.0011 -.69239 -1.0958 1.5813 54.292 -91.544)" fill="url(#a)"/>
  <path opacity=".21245" d="m-66.165 84.213c0 0.50955-0.64911 0.92262-1.4498 0.92262-0.80072 0-1.4498-0.41307-1.4498-0.92262s0.64911-0.92262 1.4498-0.92262c0.80072 0 1.4498 0.41307 1.4498 0.92262z" transform="matrix(-1.0011 -.69239 -1.0958 1.5813 49.574 -84.735)" fill="url(#a)"/>
  <path opacity=".21245" d="m-66.165 84.213c0 0.50955-0.64911 0.92262-1.4498 0.92262-0.80072 0-1.4498-0.41307-1.4498-0.92262s0.64911-0.92262 1.4498-0.92262c0.80072 0 1.4498 0.41307 1.4498 0.92262z" transform="matrix(-1.0011 -.69239 -1.0958 1.5813 45.529 -78.899)" fill="url(#a)"/>
  <path opacity=".21245" d="m-66.165 84.213c0 0.50955-0.64911 0.92262-1.4498 0.92262-0.80072 0-1.4498-0.41307-1.4498-0.92262s0.64911-0.92262 1.4498-0.92262c0.80072 0 1.4498 0.41307 1.4498 0.92262z" transform="matrix(-1.0011 -.69239 -1.0958 1.5813 41.485 -73.063)" fill="url(#a)"/>
  <path opacity=".21245" d="m-66.165 84.213c0 0.50955-0.64911 0.92262-1.4498 0.92262-0.80072 0-1.4498-0.41307-1.4498-0.92262s0.64911-0.92262 1.4498-0.92262c0.80072 0 1.4498 0.41307 1.4498 0.92262z" transform="matrix(-1.0011 -.69239 -1.0958 1.5813 37.441 -67.228)" fill="url(#a)"/>
  <path opacity=".21245" d="m-66.165 84.213c0 0.50955-0.64911 0.92262-1.4498 0.92262-0.80072 0-1.4498-0.41307-1.4498-0.92262s0.64911-0.92262 1.4498-0.92262c0.80072 0 1.4498 0.41307 1.4498 0.92262z" transform="matrix(-1.0011 -.69239 -1.0958 1.5813 37.441 -67.228)" fill="url(#a)"/>
  <path opacity=".21245" d="m-66.165 84.213c0 0.50955-0.64911 0.92262-1.4498 0.92262-0.80072 0-1.4498-0.41307-1.4498-0.92262s0.64911-0.92262 1.4498-0.92262c0.80072 0 1.4498 0.41307 1.4498 0.92262z" transform="matrix(-1.0011 -.69239 -1.0958 1.5813 86.123 -112.69)" fill="url(#a)"/>
  <path opacity=".21245" d="m-66.165 84.213c0 0.50955-0.64911 0.92262-1.4498 0.92262-0.80072 0-1.4498-0.41307-1.4498-0.92262s0.64911-0.92262 1.4498-0.92262c0.80072 0 1.4498 0.41307 1.4498 0.92262z" transform="matrix(-1.0011 -.69239 -1.0958 1.5813 82.079 -106.86)" fill="url(#a)"/>
  <path opacity=".21245" d="m-66.165 84.213c0 0.50955-0.64911 0.92262-1.4498 0.92262-0.80072 0-1.4498-0.41307-1.4498-0.92262s0.64911-0.92262 1.4498-0.92262c0.80072 0 1.4498 0.41307 1.4498 0.92262z" transform="matrix(-1.0011 -.69239 -1.0958 1.5813 78.035 -101.02)" fill="url(#a)"/>
  <path opacity=".21245" d="m-66.165 84.213c0 0.50955-0.64911 0.92262-1.4498 0.92262-0.80072 0-1.4498-0.41307-1.4498-0.92262s0.64911-0.92262 1.4498-0.92262c0.80072 0 1.4498 0.41307 1.4498 0.92262z" transform="matrix(-1.0011 -.69239 -1.0958 1.5813 73.991 -95.185)" fill="url(#a)"/>
  <path opacity=".21245" d="m-66.165 84.213c0 0.50955-0.64911 0.92262-1.4498 0.92262-0.80072 0-1.4498-0.41307-1.4498-0.92262s0.64911-0.92262 1.4498-0.92262c0.80072 0 1.4498 0.41307 1.4498 0.92262z" transform="matrix(-1.0011 -.69239 -1.0958 1.5813 69.947 -89.349)" fill="url(#a)"/>
  <path opacity=".21245" d="m-66.165 84.213c0 0.50955-0.64911 0.92262-1.4498 0.92262-0.80072 0-1.4498-0.41307-1.4498-0.92262s0.64911-0.92262 1.4498-0.92262c0.80072 0 1.4498 0.41307 1.4498 0.92262z" transform="matrix(-1.0011 -.69239 -1.0958 1.5813 65.903 -83.513)" fill="url(#a)"/>
  <path opacity=".21245" d="m-66.165 84.213c0 0.50955-0.64911 0.92262-1.4498 0.92262-0.80072 0-1.4498-0.41307-1.4498-0.92262s0.64911-0.92262 1.4498-0.92262c0.80072 0 1.4498 0.41307 1.4498 0.92262z" transform="matrix(-1.0011 -.69239 -1.0958 1.5813 61.185 -76.704)" fill="url(#a)"/>
  <path opacity=".21245" d="m-66.165 84.213c0 0.50955-0.64911 0.92262-1.4498 0.92262-0.80072 0-1.4498-0.41307-1.4498-0.92262s0.64911-0.92262 1.4498-0.92262c0.80072 0 1.4498 0.41307 1.4498 0.92262z" transform="matrix(-1.0011 -.69239 -1.0958 1.5813 57.141 -70.868)" fill="url(#a)"/>
  <path opacity=".21245" d="m-66.165 84.213c0 0.50955-0.64911 0.92262-1.4498 0.92262-0.80072 0-1.4498-0.41307-1.4498-0.92262s0.64911-0.92262 1.4498-0.92262c0.80072 0 1.4498 0.41307 1.4498 0.92262z" transform="matrix(-1.0011 -.69239 -1.0958 1.5813 53.097 -65.033)" fill="url(#a)"/>
  <path opacity=".21245" d="m-66.165 84.213c0 0.50955-0.64911 0.92262-1.4498 0.92262-0.80072 0-1.4498-0.41307-1.4498-0.92262s0.64911-0.92262 1.4498-0.92262c0.80072 0 1.4498 0.41307 1.4498 0.92262z" transform="matrix(-1.0011 -.69239 -1.0958 1.5813 49.053 -59.197)" fill="url(#a)"/>
  <path opacity=".21245" d="m-66.165 84.213c0 0.50955-0.64911 0.92262-1.4498 0.92262-0.80072 0-1.4498-0.41307-1.4498-0.92262s0.64911-0.92262 1.4498-0.92262c0.80072 0 1.4498 0.41307 1.4498 0.92262z" transform="matrix(-1.0011 -.69239 -1.0958 1.5813 49.053 -59.197)" fill="url(#a)"/>
  <path fill-rule="evenodd" fill="url(#bi)" d="m101.39 11.479c1.25 0.91907 2.4608 1.902 3.6506 2.9296-1.0255 2.1684-4.5534 6.3373-6.0315 8.0584-0.99225 1.1553-5.7252 0.89446-7.0088 1.8519-4.0543 3.0243-7.1829 7.5456-11.076 10.819l-8.2668-5.6277c0.0121-0.02052 0.03-0.04023 0.04213-0.06078-0.02407 0.02589-0.06947 0.04494-0.09343 0.07026l-1.174-0.809c-0.000009-0.00001 5.1071-8.8666 0.46527-12.628-10.476-8.4886-29.793-3.379-31.53-2.028l1.7162-6.7946s0.25425-0.13029 0.29733-0.14506c17.15-10.963 42.022-8.1239 59.007 4.3647z"/>
  <path d="m103.83-5.0596c0.56435 0.5044 1.5764-0.62778 0.79533-1.1631-29.998-21.599-52.635-11.459-61.694-5.2943 9.4231-6.7836 33.673-14.713 60.898 6.4577z" clip-path="url(#az)" fill-rule="evenodd" transform="matrix(.98856 0 0 1.005 -.11187 19.455)" filter="url(#bc)"/>
  <path opacity=".23361" d="m72.233 29.695-1.0975-0.89653s5.5247-8.8719 0.88288-12.633c-11.129-9.0163-30.89-2.762-31.436-1.992l1.5245-6.8967s19.993-8.2367 31.843 0.14017c8.2132 5.8051 2.2925 18.04-1.7181 22.278z" fill-rule="evenodd" fill="url(#ay)"/>
  <path opacity=".23361" d="m72.523 29.896-1.3878-1.0973s5.5247-8.8719 0.88288-12.633c-11.128-9.0173-30.995-2.461-31.435-1.993l1.5245-6.8967s20.128-8.4312 31.978-0.054363c8.2132 5.8051 2.4479 18.435-1.5626 22.674z" fill-rule="evenodd" fill="url(#ax)"/>
  <path opacity=".073770" d="m73.104 30.297-1.9683-1.4988s5.5247-8.8719 0.88288-12.633c-11.129-9.0163-31.127-2.54-31.443-1.997l1.7461-6.7227s20.318-9.184 32.168-0.80718c8.2132 5.8051 2.6241 19.42-1.3864 23.659z" fill-rule="evenodd" fill="url(#aw)"/>
  <path opacity=".23361" d="m72.233 29.695-1.0975-0.89653s5.5247-8.8719 0.88288-12.633c-11.129-9.0163-31.035-2.539-31.453-1.983l1.7677-6.739s19.632-8.2092 31.482 0.16767c8.2132 5.8051 2.4273 17.845-1.5833 22.084z" fill-rule="evenodd" fill="url(#av)"/>
  <path opacity="0.37" d="m72.136 29.628-1.0007-0.82961s5.5247-8.8719 0.88288-12.633c-11.128-9.0163-31.096-2.5-31.447-1.981l1.7513-6.7386s19.442-7.9196 31.292 0.45726c8.2132 5.8051 2.5327 17.487-1.4778 21.725z" fill-rule="evenodd" fill="url(#au)"/>
  <path opacity="0.31" d="m61.411 8.3781c-7.301-1.7228-18.447 1.1193-20.509 3.6229l0.09917-1.3702c2.7859-2.9456 12.798-5.0008 19.911-3.7693 1.1624 0.20128 1.0902 1.6558 0.49826 1.5162z" fill-rule="evenodd" fill="url(#bh)"/>
  <path opacity="0.11" d="m42.085 7.2558-1.738 6.7822 0.233 0.161 1.746-6.7333-0.241-0.2099z" fill-rule="evenodd" fill="#b7b7b7"/>
  <path opacity=".52869" d="m81.865 36.104-1.2433-1.262c9.8286-9.2663 9.1718-11.325 15.329-11.858 2.245-0.1945 7.2706-3.132 6.5742-5.6375-1.2353-4.4447 1.987-4.5668 4.2359-0.99443 1.0752 1.7081 1.9197 4.2644 2.6854 6.1812l10.426 3.5961 5.8064 4.3791c-2.539 5.137-4.2296 7.983-8.1148 12.189l-6.3854-3.7308-7.4021-9.9124c-6.127-1.9942-15.214 0.65923-21.911 7.0503z" fill-rule="evenodd" fill="url(#bg)"/>
  <path opacity=".3" d="m82.925-3.4354-1.6085-1.1919c15.13-23.661 23.84-7.9027 22.622-22.256 1.7993 1.0138 5.5593 6.1692 6.8869 9.9448l10.547 3.5781 5.8736 4.3571c-2.5683 5.1112-5.6422 9.8785-9.5723 14.063l-6.4593-3.7121-7.4877-9.8626c-6.191-1.9842-14.02-1.2796-20.795 5.0794z" clip-path="url(#bb)" fill-rule="evenodd" transform="matrix(.98856 0 0 1.005 -.11187 39.556)" filter="url(#be)" fill="#4b4b4c"/>
  <path opacity=".11066" d="m81.865 36.104-1.2433-1.262c9.8286-9.2663 9.3148-10.896 15.472-11.43 2.245-0.1945 2.9648-0.35798 6.5319-5.596 2.3464-3.4455 2.8796-4.1515 4.1352-1.4649 0.9611 2.0565 2.0292 4.2839 2.6854 6.1812l10.426 3.5961 5.8064 4.3791c-2.539 5.137-5.5777 9.9283-9.4628 14.134l-6.39-3.73-7.4-9.912c-6.129-1.995-13.868-1.286-20.565 5.105z" fill-rule="evenodd" fill="#4b4b4c"/>
  <path opacity=".78279" d="m81.865 36.104-1.2433-1.262c9.8286-9.2663 9.5572-11.025 15.714-11.559 2.2451-0.1945 3.1248-1.0258 6.326-5.7266 2.3464-3.4455 2.8431-3.8917 4.0986-1.2052 0.9611 2.0565 2.0292 4.2839 2.6854 6.1812l10.426 3.5961 5.8064 4.3791c-2.539 5.137-5.5777 9.9283-9.4628 14.134l-6.39-3.73-7.4-9.912c-6.129-1.995-13.868-1.286-20.565 5.105z" fill-rule="evenodd" fill="url(#bf)"/>
  <path opacity=".55" d="m82.186 36.426-1.2433-1.262c9.8286-9.2663 9.2135-11.054 15.364-11.663 2.7619-0.27316 5.1551-3.3756 6.7319-5.6836 2.3522-3.4414 2.7876-3.8308 4.0432-1.1444 0.9611 2.0565 2.0292 4.2839 2.6854 6.1812l10.42 3.597 5.81 4.379c-2.539 5.137-5.5777 9.9283-9.4628 14.134l-6.3854-3.7308-7.4021-9.9124c-6.127-1.994-13.866-1.286-20.564 5.105z" fill-rule="evenodd" fill="url(#at)"/>
  <path opacity="0.76" d="m82.053 35.677-1.2433-1.262c9.8286-9.2663 9.5071-11.069 15.654-11.708 2.7349-0.28503 3.0001-1.3243 6.3392-5.6531 2.5432-3.298 2.8898-3.816 4.1454-1.1295 0.9611 2.0565 2.0292 4.2839 2.6854 6.1812l10.426 3.5961 5.8064 4.3791c-2.539 5.137-5.5777 9.9283-9.4628 14.134l-6.38-3.731-7.4-9.912c-6.131-1.994-13.87-1.286-20.567 5.105z" fill-rule="evenodd" fill="url(#as)"/>
  <path fill="url(#ar)" d="m47.841 43.681c0.000066 2.3521-0.0089 4.5295-0.0234 5.7083-0.01454 1.1787-0.03247 1.1787-0.04701 0s-0.02346-3.3562-0.0234-5.7083c-0.000066-2.3521 0.0089-4.5295 0.0234-5.7083 0.01454-1.1787 0.03247-1.1787 0.04701 0s0.02346 3.3562 0.0234 5.7083z" transform="matrix(-10.644 -7.3616 -.67402 .97265 659.11 347.52)"/>
  <path d="m125.17 12.1c-3.5446-2.414-12.729-8.5831-14.169-6.3876-1.7366 2.6473 7.0346 8.3261 10.746 10.875 1.1784 0.80923 4.5638-3.7104 3.4226-4.4875z" clip-path="url(#ba)" fill-rule="evenodd" transform="matrix(.98856 0 0 1.005 -.11187 19.455)" filter="url(#bd)" fill="url(#ap)"/>
 </g>
</svg>
