<svg xmlns="http://www.w3.org/2000/svg" height="48" width="48" version="1.1" xmlns:xlink="http://www.w3.org/1999/xlink">
 <defs>
  <linearGradient id="a">
   <stop offset="0"/>
   <stop stop-opacity="0" offset="1"/>
  </linearGradient>
  <radialGradient id="x" xlink:href="#a" gradientUnits="userSpaceOnUse" cy="43.5" cx="4.993" gradientTransform="matrix(2.0038,0,0,1.4,27.988,-17.4)" r="2.5"/>
  <radialGradient id="y" xlink:href="#a" gradientUnits="userSpaceOnUse" cy="43.5" cx="4.993" gradientTransform="matrix(2.0038,0,0,1.4,-20.012,-104.4)" r="2.5"/>
  <linearGradient id="s" y2="39.999" gradientUnits="userSpaceOnUse" x2="25.058" y1="47.028" x1="25.058">
   <stop stop-opacity="0" offset="0"/>
   <stop offset=".5"/>
   <stop stop-opacity="0" offset="1"/>
  </linearGradient>
  <radialGradient id="z" gradientUnits="userSpaceOnUse" cy="35.479" cx="7.9358" gradientTransform="matrix(-.96108 0 0 1.283 41.268 -9.7042)" r="86.708">
   <stop stop-color="#fafafa" offset="0"/>
   <stop stop-color="#bbb" offset="1"/>
  </radialGradient>
  <radialGradient id="aa" gradientUnits="userSpaceOnUse" cy="3.7561" cx="8.8244" gradientTransform="matrix(.96887 0 0 -1.0361 3.3516 47.494)" r="37.752">
   <stop stop-color="#a3a3a3" offset="0"/>
   <stop stop-color="#8a8a8a" offset="1"/>
  </radialGradient>
  <radialGradient id="ab" gradientUnits="userSpaceOnUse" cy="7.2679" cx="8.1436" gradientTransform="matrix(1.8075,0,0,1.9279,-3.4808,-5.8593)" r="38.159">
   <stop stop-color="#fff" offset="0"/>
   <stop stop-color="#f8f8f8" offset="1"/>
  </radialGradient>
  <radialGradient id="ac" gradientUnits="userSpaceOnUse" cy="17" cx="8" gradientTransform="matrix(1 0 0 .625 0 6.375)" r="8">
   <stop offset="0"/>
   <stop stop-opacity="0" offset="1"/>
  </radialGradient>
  <radialGradient id="p" gradientUnits="userSpaceOnUse" cy="22.137" cx="24" gradientTransform="matrix(.60452 0 0 .62607 1.4828 .98306)" r="19.5">
   <stop stop-color="#eeeeec" offset="0"/>
   <stop stop-color="#eeeeec" offset=".5"/>
   <stop stop-color="#fff" offset=".78313"/>
   <stop stop-color="#d3d7cf" offset="1"/>
  </radialGradient>
  <linearGradient id="t" y2="4.7397" gradientUnits="userSpaceOnUse" x2="4.4832" gradientTransform="matrix(1.209,0,0,1.2533,2.6919,1.7189)" y1="6.3117" x1="6.0552">
   <stop stop-color="#ef2929" offset="0"/>
   <stop stop-color="#ef2929" stop-opacity="0" offset="1"/>
  </linearGradient>
  <linearGradient id="u" y2="14.275" gradientUnits="userSpaceOnUse" x2="8.1224" gradientTransform="matrix(1.209,0,0,1.2533,2.6919,1.7189)" y1="15.967" x1="6.4303">
   <stop stop-color="#ef2929" offset="0"/>
   <stop stop-color="#ef2929" stop-opacity="0" offset="1"/>
  </linearGradient>
  <linearGradient id="v" y2="4.3182" gradientUnits="userSpaceOnUse" x2="17.417" gradientTransform="matrix(1.209,0,0,1.2533,2.6919,1.7189)" y1="6.4437" x1="15.291">
   <stop stop-color="#ef2929" offset="0"/>
   <stop stop-color="#ef2929" stop-opacity="0" offset="1"/>
  </linearGradient>
  <linearGradient id="w" y2="14.54" gradientUnits="userSpaceOnUse" x2="14.372" gradientTransform="matrix(1.209,0,0,1.2533,2.6919,1.7189)" y1="15.99" x1="15.822">
   <stop stop-color="#ef2929" offset="0"/>
   <stop stop-color="#ef2929" stop-opacity="0" offset="1"/>
  </linearGradient>
  <radialGradient id="q" gradientUnits="userSpaceOnUse" cy="3.1549" cx="7.5927" gradientTransform="matrix(2.724,0,0,2.6334,-13.56,-4.8312)" r="8.4622">
   <stop stop-color="#fff" offset="0"/>
   <stop stop-color="#fff" stop-opacity=".33929" offset="1"/>
  </radialGradient>
  <radialGradient id="r" gradientUnits="userSpaceOnUse" cy="16.149" cx="10.864" gradientTransform="matrix(2.2102,0,0,2.1389,-12.102,-18.821)" r="8.7144">
   <stop stop-color="#fff" offset="0"/>
   <stop stop-color="#fff" stop-opacity="0" offset="1"/>
  </radialGradient>
 </defs>
 <g transform="matrix(1.221,0,0,1.0924,-5.1265,-3.1937)">
  <g opacity=".4" transform="matrix(1.0526,0,0,1.2857,-1.2632,-13.429)">
   <rect height="7" width="5" y="40" x="38" fill="url(#x)"/>
   <rect transform="scale(-1)" height="7" width="5" y="-47" x="-10" fill="url(#y)"/>
   <rect height="7" width="28" y="40" x="10" fill="url(#s)"/>
  </g>
  <path stroke-linejoin="round" style="color:#000000" d="m29.812 3.5-22.062 0.0092c-0.63696 0-1.2446 0.50849-1.2446 1.1471l0.088388 38.75c0 0.63861 0.51929 1.1562 1.1562 1.1562h32.594c0.63696 0 1.1563-0.51764 1.1562-1.1562v-38.78c0-0.6376-0.519-1.124-1.156-1.124h-10.531z" display="block" stroke="url(#aa)" stroke-linecap="round" fill="url(#z)"/>
  <path stroke-linejoin="round" style="color:#000000" d="m7.6494 4.5066h32.595c0.11176-0.00511 0.28919 0.065544 0.27536 0.19239l-0.077 38.682c0 0.08257-0.06648 0.14905-0.14905 0.14905h-32.478c-0.082573 0-0.14905-0.06648-0.14905-0.14905l-0.1657-38.725c0-0.082573 0.066476-0.14905 0.14905-0.14905z" display="block" stroke="url(#ab)" stroke-linecap="round" fill="none"/>
  <g transform="translate(8.4869,13.001)">
   <path d="m11.76 7.3586c0 2.0754-2.8448 5.6028-3.6271 3.7598-1.505-3.5443-3.7482-0.353-4.809-2.4534-1.048-2.0752 3.89-2.19 4.3734-4.1329 0.69621-2.7985 4.0625 0.75156 4.0625 2.827z" stroke-dashoffset="1.2" stroke="#edd400" stroke-linecap="round" stroke-width="3" fill="none"/>
   <path d="m27.718 8.1993c2.5543 1.4523-1.8651 2.9192-3.8673 2.9192s-3.6271-1.6844-3.6271-3.7598 2.898-3.8906 4.768-2.619c1.8423 1.2528 0.14168 1.99 2.7265 3.4596z" stroke-dashoffset="1.2" stroke="#edd400" stroke-linecap="round" stroke-width="3" fill="none"/>
   <path opacity=".5" d="m16 17a8 5 0 1 1 -16 0 8 5 0 1 1 16 0z" transform="matrix(1.8152 0 0 .78957 1.4697 11.356)" fill="url(#ac)"/>
   <path d="m11.76 23.651c-2.1759 0.691-2.4391 5.334-4.1555 4.05-1.8152-1.358 0.3301-3.785-2.5097-3.4-2.8268 0.383-0.9254-3.527 3.0378-4.41 1.9543-0.43545 3.6271 1.6844 3.6271 3.7598z" stroke-dashoffset="1.2" stroke="#edd400" stroke-linecap="round" stroke-width="3" fill="none"/>
   <path d="m27.315 23.986c-3.0782 0.86436-0.80134 3.4355-2.9879 3.7273-2.1001 0.28027-2.9682-2.1897-3.2493-4.0621-0.27948-1.8615 1.2528-5.0637 2.7722-3.7598 1.3076 1.1221 6.565 3.2241 3.465 4.0946z" stroke-dashoffset="1.2" stroke="#edd400" stroke-linecap="round" stroke-width="3" fill="none"/>
   <path d="m11.76 7.3586c0 2.0754-2.8448 5.6028-3.6271 3.7598-1.505-3.5443-3.7482-0.353-4.809-2.4534-1.048-2.0752 3.89-2.19 4.3734-4.1329 0.69621-2.7985 4.0625 0.75156 4.0625 2.827z" stroke-dashoffset="1.2" stroke="#fff" stroke-linecap="round" fill="none"/>
   <path d="m27.718 8.1993c2.5543 1.4523-1.8651 2.9192-3.8673 2.9192s-3.6271-1.6844-3.6271-3.7598 2.898-3.8906 4.768-2.619c1.8423 1.2528 0.14168 1.99 2.7265 3.4596z" stroke-dashoffset="1.2" stroke="#fff" stroke-linecap="round" fill="none"/>
   <path d="m11.76 23.651c-2.1759 0.691-2.4391 5.334-4.1555 4.05-1.8152-1.358 0.3301-3.785-2.5097-3.4-2.8268 0.383-0.9254-3.527 3.0378-4.41 1.9543-0.43545 3.6271 1.6844 3.6271 3.7598z" stroke-dashoffset="1.2" stroke="#fff" stroke-linecap="round" fill="none"/>
   <path d="m27.315 23.986c-3.0782 0.86436-0.80134 3.4355-2.9879 3.7273-2.1001 0.28027-2.9682-2.1897-3.2493-4.0621-0.27948-1.8615 1.2528-5.0637 2.7722-3.7598 1.3076 1.1221 6.565 3.2241 3.465 4.0946z" stroke-dashoffset="1.2" stroke="#fff" stroke-linecap="round" fill="none"/>
   <path stroke-linejoin="round" d="m15.991 3.5988c-6.3402 0-11.486 5.3339-11.486 11.906 0 6.5722 5.1457 11.906 11.486 11.906 6.3402 0 11.486-5.3339 11.486-11.906 0-6.5722-5.1457-11.906-11.486-11.906zm0 6.2664c3.0033-6e-7 5.4407 2.5266 5.4407 5.6397s-2.4374 5.6397-5.4407 5.6397-5.4407-2.5266-5.4407-5.6397 2.4374-5.6397 5.4407-5.6397z" stroke-dashoffset="1.2" stroke="#888a85" stroke-linecap="round" fill="url(#p)"/>
   <path fill-rule="evenodd" fill="url(#t)" d="m11.382 4.6171c-2.6258 1.199-4.7374 3.3879-5.8942 6.1099 2.4148-0.029 3.9837 1.212 5.5162 2.507 0.548-1.285 1.557-2.331 2.796-2.899-0.436-2.1699-1.195-4.1095-2.418-5.7176z"/>
   <path fill="url(#u)" d="m11.004 17.776c-1.8388 0.46973-3.6775 0.59401-5.5163 2.5065 1.1567 2.7218 3.2684 4.9107 5.8941 6.1097 0.32789-2.2248 0.95587-4.2495 2.4181-5.7181-1.2394-0.56767-2.2483-1.6135-2.7959-2.8982z"/>
   <path fill-rule="evenodd" fill="url(#v)" d="m20.601 4.6171c-1.1781 1.534-2.1813 3.2428-2.4181 5.7181 1.2394 0.56767 2.2483 1.6135 2.7959 2.8982 1.9221-1.5853 3.7837-2.6265 5.5163-2.5065-1.157-2.722-3.268-4.9109-5.894-6.1099z"/>
   <path fill-rule="evenodd" fill="url(#w)" d="m20.979 17.776c-0.54764 1.2847-1.5566 2.3305-2.7959 2.8982 1.222 1.49 1.9548 3.4693 2.4181 5.7181 2.6257-1.199 4.7374-3.3879 5.8941-6.1097-1.3079-1.4725-3.261-2.1709-5.5163-2.5065z"/>
   <path d="m11.004 13.233c0.54764-1.2847 1.5566-2.3305 2.7959-2.8982m-2.418-5.7183c-2.626 1.199-4.7376 3.3879-5.8944 6.1103" stroke="#a40000" stroke-linecap="round" stroke-width="1px" fill="none"/>
   <path d="m26.495 10.727c-1.157-2.722-3.268-4.9109-5.894-6.1099m-2.4181 5.7181c1.2394 0.56767 2.2483 1.6135 2.7959 2.8982" stroke="#a40000" stroke-linecap="round" stroke-width="1px" fill="none"/>
   <path d="m20.979 17.776c-0.54764 1.2847-1.5566 2.3305-2.7959 2.8982m2.4181 5.7181c2.6257-1.199 4.7374-3.3879 5.8941-6.1097" stroke="#a40000" stroke-linecap="round" stroke-width="1px" fill="none"/>
   <path d="m13.8 20.675c-1.2394-0.56767-2.2483-1.6135-2.7959-2.8982m-5.5163 2.5065c1.1567 2.7218 3.2684 4.9107 5.8941 6.1097" stroke-dashoffset="1.2" stroke="#a40000" stroke-linecap="round" fill="none"/>
   <path opacity=".4" d="m18 10.281a8 7.7188 0 1 1 -16 0 8 7.7188 0 1 1 16 0z" stroke-dashoffset="1.2" transform="matrix(1.3129 0 0 1.4156 2.862 .95069)" stroke="url(#q)" stroke-linecap="round" stroke-width=".73351" fill="none"/>
   <path opacity=".8" d="m18 10.281a8 7.7188 0 1 1 -16 0 8 7.7188 0 1 1 16 0z" stroke-dashoffset="1.2" transform="matrix(.78886 0 0 .84754 8.1028 6.7911)" stroke="url(#r)" stroke-linecap="round" stroke-width="1.223" fill="none"/>
  </g>
  <path d="m12.5 9.5h23" stroke="#babdb6" stroke-linecap="round" stroke-width="1px" fill="none"/>
  <path d="m12.5 12.5h23" stroke="#babdb6" stroke-linecap="round" stroke-width="1px" fill="none"/>
 </g>
</svg>
