<svg id="Слой_1" data-name="Слой 1"
  xmlns:dc="http://purl.org/dc/elements/1.1/"
  xmlns:cc="http://creativecommons.org/ns#"
  xmlns:rdf="http://www.w3.org/1999/02/22-rdf-syntax-ns#"
  xmlns="http://www.w3.org/2000/svg" viewBox="0 0 26 26">
  <metadata id="metadata43">
    <rdf:RDF>
      <cc:Work rdf:about="">
        <cc:license rdf:resource="http://creativecommons.org/licenses/by-sa/4.0/" />
        <dc:format>image/svg+xml</dc:format>
        <dc:type rdf:resource="http://purl.org/dc/dcmitype/StillImage" />
        <dc:title>add_arc</dc:title>
      </cc:Work>
      <cc:License rdf:about="http://creativecommons.org/licenses/by-sa/4.0/">
        <cc:permits rdf:resource="http://creativecommons.org/ns#Reproduction" />
        <cc:permits rdf:resource="http://creativecommons.org/ns#Distribution" />
        <cc:requires rdf:resource="http://creativecommons.org/ns#Notice" />
        <cc:requires rdf:resource="http://creativecommons.org/ns#Attribution" />
        <cc:permits rdf:resource="http://creativecommons.org/ns#DerivativeWorks" />
        <cc:requires rdf:resource="http://creativecommons.org/ns#ShareAlike" />
      </cc:License>
    </rdf:RDF>
  </metadata>
  <defs>
    <style>.cls-1{fill:#b9b9b9;}.cls-2{fill:#1a81c4;}.cls-3{fill:#e61c50;}.cls-4{fill:#fff;}.cls-5{fill:#545454;}</style>
  </defs>
  <title>help</title>
  <path class="cls-1" d="M4.4939,1.0041H18.4755a3.4978,3.4978,0,0,1,3.4978,3.4978V18.5032a3.4978,3.4978,0,0,1-3.4978,3.4978H4.4938A3.4978,3.4978,0,0,1,.996,18.5032V4.502A3.4979,3.4979,0,0,1,4.4939,1.0041Z"/>
  <path class="cls-2" d="M4.4938,1.0041h.4795a0,0,0,0,1,0,0V22.001a0,0,0,0,1,0,0H4.4938A3.4978,3.4978,0,0,1,.996,18.5032V4.5019A3.4978,3.4978,0,0,1,4.4938,1.0041Z"/>
  <path class="cls-3" d="M25.0065,18A7.0065,7.0065,0,1,1,18,11,7.0032,7.0032,0,0,1,25.0065,18Z"/>
  <path class="cls-4" d="M16.9332,20.1182a3.4488,3.4488,0,0,1,.2364-1.4659,4.2208,4.2208,0,0,1,1.0156-1.1084,6.5544,6.5544,0,0,0,.8867-1.0429A1.96,1.96,0,0,0,19.401,15.4a1.4789,1.4789,0,0,0-.376-1.0791,1.427,1.427,0,0,0-1.0693-.3838,1.5777,1.5777,0,0,0-1.0078.3262,1.1511,1.1511,0,0,0-.415.9648H14.859l-.0215-.043a2.37,2.37,0,0,1,.8545-1.99,3.4705,3.4705,0,0,1,2.2637-.7129,3.346,3.346,0,0,1,2.3428.7666,2.7414,2.7414,0,0,1,.84,2.13,2.9558,2.9558,0,0,1-.5254,1.6885A6.51,6.51,0,0,1,19.2858,18.49a1.6386,1.6386,0,0,0-.5108.6817,3.2688,3.2688,0,0,0-.1035.9463ZM18.7,23.0723H16.9264V21.4014H18.7Z"/>
  <polygon class="cls-5" points="17.027 6.091 15.482 5.091 14.001 6.091 14.001 1 17.027 1 17.027 6.091"/>
</svg>