<svg id="Слой_1" data-name="Слой 1"
  xmlns:cc="http://creativecommons.org/ns#"
  xmlns:rdf="http://www.w3.org/1999/02/22-rdf-syntax-ns#"
  xmlns="http://www.w3.org/2000/svg" viewBox="0 0 26 26">
  <metadata id="metadata43">
    <rdf:RDF>
      <cc:Work rdf:about="">
        <cc:license rdf:resource="http://creativecommons.org/licenses/by/4.0/" />
      </cc:Work>
      <cc:License rdf:about="http://creativecommons.org/licenses/by/4.0/">
        <cc:permits rdf:resource="http://creativecommons.org/ns#Reproduction" />
        <cc:permits rdf:resource="http://creativecommons.org/ns#Distribution" />
        <cc:requires rdf:resource="http://creativecommons.org/ns#Notice" />
        <cc:requires rdf:resource="http://creativecommons.org/ns#Attribution" />
        <cc:permits rdf:resource="http://creativecommons.org/ns#DerivativeWorks" />
      </cc:License>
    </rdf:RDF>
  </metadata>
  <defs>
    <style>.cls-1{fill:#b9b9b9;}.cls-2{fill:none;stroke:#e61c50;stroke-miterlimit:10;}.cls-3{fill:#545454;}.cls-4{fill:#e61c50;}.cls-5{fill:#f5f5f5;}</style>
  </defs>
  <title>hidden_pin</title>
  <path class="cls-1" d="M4.5.9756H18.5073a3.5022,3.5022,0,0,1,3.5022,3.5022v14.01A3.5022,3.5022,0,0,1,18.5073,21.99H4.4995A3.5021,3.5021,0,0,1,.9974,18.4877V4.4778A3.5022,3.5022,0,0,1,4.5.9756Z"/>
  <line class="cls-2" x1="9.2577" y1="7.7973" x2="9.2577" y2="5.1399"/>
  <path class="cls-2" d="M10.369,4.046A1.1146,1.1146,0,1,1,9.2545,2.9315,1.1145,1.1145,0,0,1,10.369,4.046Z"/>
  <line class="cls-2" x1="9.2512" y1="14.8772" x2="9.2512" y2="18.0916"/>
  <path class="cls-2" d="M8.14,18.9715A1.1146,1.1146,0,1,1,9.2545,20.086,1.1145,1.1145,0,0,1,8.14,18.9715Z"/>
  <path class="cls-3" d="M16.2275,10.983H14.985l-9.8414-6.5a.6.6,0,0,0-.93.5v2.4h-1.2a.6.6,0,0,0,0,1.2h1.2v6h-1.2a.6.6,0,0,0,0,1.2h1.2v2.4a.5995.5995,0,0,0,.93.5l9.8414-6.5h1.2425a.6.6,0,0,0,0-1.2ZM5.4132,17.0672V6.0988l8.3036,5.4842Z"/>
  <path class="cls-3" d="M6.5914,10.383H7.9871a.6.6,0,1,0,0-1.2H6.5914a.6.6,0,0,0,0,1.2Z"/>
  <path class="cls-3" d="M8.0111,12.58v-.198a.6.6,0,1,0-1.2,0v.198H6.6137a.6.6,0,0,0,0,1.2h.1974v.1975a.6.6,0,0,0,1.2,0V13.78h.1975a.6.6,0,0,0,0-1.2Z"/>
  <path class="cls-4" d="M25.004,18a7.0066,7.0066,0,1,1-7.0066-7A7.0033,7.0033,0,0,1,25.004,18Z"/>
  <path class="cls-5" d="M23.6757,18.0087S21.1346,21.091,18,21.091s-5.6757-3.0823-5.6757-3.0823S14.8654,14.9263,18,14.9263,23.6757,18.0087,23.6757,18.0087Z"/>
  <circle class="cls-4" cx="18" cy="18.0087" r="2.1"/>
  <path class="cls-5" d="M18.97,18.0087a.97.97,0,1,1-.97-.97A.97.97,0,0,1,18.97,18.0087Z"/>
</svg>