<svg id="Слой_1" data-name="Слой 1"
  xmlns:dc="http://purl.org/dc/elements/1.1/"
  xmlns:cc="http://creativecommons.org/ns#"
  xmlns:rdf="http://www.w3.org/1999/02/22-rdf-syntax-ns#"
  xmlns="http://www.w3.org/2000/svg"
  xmlns:sodipodi="http://sodipodi.sourceforge.net/DTD/sodipodi-0.dtd"
  xmlns:inkscape="http://www.inkscape.org/namespaces/inkscape" viewBox="0 0 26 26">
  <sodipodi:namedview pagecolor="#ffffff" bordercolor="#666666" borderopacity="1" objecttolerance="10" gridtolerance="10" guidetolerance="10" inkscape:pageopacity="0" inkscape:pageshadow="2" inkscape:window-width="1609" inkscape:window-height="1286" id="namedview30" showgrid="true" inkscape:zoom="27.961538" inkscape:cx="13" inkscape:cy="13" inkscape:window-x="0" inkscape:window-y="37" inkscape:window-maximized="0">
    <inkscape:grid type="xygrid" id="grid_kicad" spacingx="0.5" spacingy="0.5" color="#9999ff" opacity="0.13" empspacing="2" />
  </sodipodi:namedview>
  <metadata id="metadata43">
    <rdf:RDF>
      <cc:Work rdf:about="">
        <cc:license rdf:resource="http://creativecommons.org/licenses/by-sa/4.0/" />
        <dc:format>image/svg+xml</dc:format>
        <dc:type rdf:resource="http://purl.org/dc/dcmitype/StillImage" />
        <dc:title>add_arc</dc:title>
      </cc:Work>
      <cc:License rdf:about="http://creativecommons.org/licenses/by-sa/4.0/">
        <cc:permits rdf:resource="http://creativecommons.org/ns#Reproduction" />
        <cc:permits rdf:resource="http://creativecommons.org/ns#Distribution" />
        <cc:requires rdf:resource="http://creativecommons.org/ns#Notice" />
        <cc:requires rdf:resource="http://creativecommons.org/ns#Attribution" />
        <cc:permits rdf:resource="http://creativecommons.org/ns#DerivativeWorks" />
        <cc:requires rdf:resource="http://creativecommons.org/ns#ShareAlike" />
      </cc:License>
    </rdf:RDF>
  </metadata>
  <defs>
    <style>.cls-1{fill:#b9b9b9;}.cls-2,.cls-3,.cls-5{fill:none;stroke-width:2px;}.cls-2{stroke:#545454;}.cls-2,.cls-3{stroke-miterlimit:10;}.cls-3{stroke:#1a81c4;}.cls-4{fill:#e61c50;}.cls-5{stroke:#f5f5f5;stroke-linecap:round;stroke-linejoin:round;}</style>
  </defs>
  <title>highlight_remove</title>
  <path class="cls-1" d="M4.4989.9878H18.5066A3.5022,3.5022,0,0,1,22.0088,4.49V18.5a3.5022,3.5022,0,0,1-3.5022,3.5022H4.4988A3.5021,3.5021,0,0,1,.9967,18.5V4.49A3.5022,3.5022,0,0,1,4.4989.9878Z"/>
  <polyline class="cls-2" points="0.998 5.601 4.527 5.601 4.527 13.521 17.06 13.521"/>
  <polyline class="cls-3" points="1.007 17.584 8.916 17.584 8.916 7.329 22 7.329"/>
  <line class="cls-2" x1="15.8472" y1="13.1733" x2="15.8472" y2="0.9723"/>
  <ellipse class="cls-4" cx="17.9967" cy="18.0122" rx="7.0065" ry="7"/>
  <path class="cls-5" d="M20.89,17.8127s.2608,3.5078-2.1125,4.7205l-5.3986-3.234s3.3383-1.1736,4.0164-3.1557L20.89,17.8127"/>
  <line class="cls-5" x1="19.2466" y1="16.8738" x2="20.7592" y2="13.9006"/>
</svg>