<svg id="Слой_1" data-name="Слой 1"
  xmlns:dc="http://purl.org/dc/elements/1.1/"
  xmlns:cc="http://creativecommons.org/ns#"
  xmlns:rdf="http://www.w3.org/1999/02/22-rdf-syntax-ns#"
  xmlns="http://www.w3.org/2000/svg"
  xmlns:sodipodi="http://sodipodi.sourceforge.net/DTD/sodipodi-0.dtd"
  xmlns:inkscape="http://www.inkscape.org/namespaces/inkscape" viewBox="0 0 26 26">
  <sodipodi:namedview pagecolor="#ffffff" bordercolor="#666666" borderopacity="1" objecttolerance="10" gridtolerance="10" guidetolerance="10" inkscape:pageopacity="0" inkscape:pageshadow="2" inkscape:window-width="1609" inkscape:window-height="1286" id="namedview30" showgrid="true" inkscape:zoom="27.961538" inkscape:cx="13" inkscape:cy="13" inkscape:window-x="0" inkscape:window-y="37" inkscape:window-maximized="0">
    <inkscape:grid type="xygrid" id="grid_kicad" spacingx="0.5" spacingy="0.5" color="#9999ff" opacity="0.13" empspacing="2" />
  </sodipodi:namedview>
  <metadata id="metadata43">
    <rdf:RDF>
      <cc:Work rdf:about="">
        <cc:license rdf:resource="http://creativecommons.org/licenses/by-sa/4.0/" />
        <dc:format>image/svg+xml</dc:format>
        <dc:type rdf:resource="http://purl.org/dc/dcmitype/StillImage" />
        <dc:title>add_arc</dc:title>
      </cc:Work>
      <cc:License rdf:about="http://creativecommons.org/licenses/by-sa/4.0/">
        <cc:permits rdf:resource="http://creativecommons.org/ns#Reproduction" />
        <cc:permits rdf:resource="http://creativecommons.org/ns#Distribution" />
        <cc:requires rdf:resource="http://creativecommons.org/ns#Notice" />
        <cc:requires rdf:resource="http://creativecommons.org/ns#Attribution" />
        <cc:permits rdf:resource="http://creativecommons.org/ns#DerivativeWorks" />
        <cc:requires rdf:resource="http://creativecommons.org/ns#ShareAlike" />
      </cc:License>
    </rdf:RDF>
  </metadata>
  <defs>
    <style>.cls-1{fill:#1a81c4;}.cls-2{fill:#f29100;}.cls-3{fill:none;stroke:#545454;stroke-linecap:round;stroke-linejoin:round;}.cls-4{fill:#545454;}</style>
  </defs>
  <title>hole_to_copper_clearance</title>
  <path class="cls-1" d="M24.0059,10.958H20.6143a1,1,0,0,1-.6221-.2168L10.2393,3H4.0049a1,1,0,0,1,0-2h6.583a1,1,0,0,1,.6221.2168L20.9629,8.958h3.043a1,1,0,0,1,0,2Z"/>
  <path class="cls-2" d="M1.0083,21.9985a3,3,0,1,1,3,3A3,3,0,0,1,1.0083,21.9985Z"/>
  <line class="cls-3" x1="13.3193" y1="11.1033" x2="8.8479" y2="16.3377"/>
  <polygon class="cls-4" points="11.571 10.913 16.196 7.735 13.78 12.8 11.571 10.913"/>
  <polygon class="cls-4" points="8.387 14.641 5.971 19.706 10.596 16.528 8.387 14.641"/>
</svg>