<?xml version="1.0" encoding="UTF-8" standalone="no"?>
<svg
   xmlns:dc="http://purl.org/dc/elements/1.1/"
   xmlns:cc="http://creativecommons.org/ns#"
   xmlns:rdf="http://www.w3.org/1999/02/22-rdf-syntax-ns#"
   xmlns:svg="http://www.w3.org/2000/svg"
   xmlns="http://www.w3.org/2000/svg"
   xmlns:xlink="http://www.w3.org/1999/xlink"
   xmlns:sodipodi="http://sodipodi.sourceforge.net/DTD/sodipodi-0.dtd"
   xmlns:inkscape="http://www.inkscape.org/namespaces/inkscape"
   height="26"
   width="26"
   version="1.1"
   id="svg2"
   inkscape:version="0.91 r"
   sodipodi:docname="hotkeys.svg">
  <metadata
     id="metadata111">
    <rdf:RDF>
      <cc:Work
         rdf:about="">
        <dc:format>image/svg+xml</dc:format>
        <dc:type
           rdf:resource="http://purl.org/dc/dcmitype/StillImage" />
        <dc:title></dc:title>
      </cc:Work>
    </rdf:RDF>
  </metadata>
  <sodipodi:namedview
     pagecolor="#ffffff"
     bordercolor="#666666"
     borderopacity="1"
     objecttolerance="10"
     gridtolerance="10"
     guidetolerance="10"
     inkscape:pageopacity="0"
     inkscape:pageshadow="2"
     inkscape:window-width="1920"
     inkscape:window-height="1053"
     id="namedview109"
     showgrid="true"
     inkscape:zoom="27.812867"
     inkscape:cx="5.7343835"
     inkscape:cy="8.0420905"
     inkscape:window-x="0"
     inkscape:window-y="0"
     inkscape:window-maximized="1"
     inkscape:current-layer="svg2">
    <inkscape:grid
       type="xygrid"
       id="grid4253" />
  </sodipodi:namedview>
  <defs
     id="defs4">
    <linearGradient
       id="a">
      <stop
         stop-color="#fff"
         stop-opacity="0"
         offset="0"
         id="stop7" />
      <stop
         stop-color="#fff"
         offset=".5"
         id="stop9" />
      <stop
         stop-color="#fff"
         stop-opacity="0"
         offset="1"
         id="stop11" />
    </linearGradient>
    <linearGradient
       id="r">
      <stop
         stop-color="#eeeeec"
         offset="0"
         id="stop14" />
      <stop
         stop-color="#fff"
         offset="1"
         id="stop16" />
    </linearGradient>
    <linearGradient
       id="q">
      <stop
         stop-color="#f2f4f1"
         offset="0"
         id="stop19" />
      <stop
         stop-color="#d3d7cf"
         offset="1"
         id="stop21" />
    </linearGradient>
    <radialGradient
       id="b"
       gradientUnits="userSpaceOnUse"
       cy="39.812"
       cx="24.25"
       gradientTransform="matrix(1,0,0,0.39928,0,23.916)"
       r="17.375">
      <stop
         offset="0"
         id="stop24" />
      <stop
         stop-opacity="0"
         offset="1"
         id="stop26" />
    </radialGradient>
    <radialGradient
       id="w"
       gradientUnits="userSpaceOnUse"
       cy="6.2493"
       cx="15.49"
       gradientTransform="matrix(2.2033,0,0,0.98135,-18.638,-0.28028)"
       r="10.495">
      <stop
         stop-color="#f8f8f7"
         offset="0"
         id="stop29" />
      <stop
         stop-color="#babdb6"
         offset="1"
         id="stop31" />
    </radialGradient>
    <radialGradient
       id="s"
       xlink:href="#q"
       gradientUnits="userSpaceOnUse"
       cy="29.5"
       cx="24.5"
       gradientTransform="matrix(1.0452,0,0,0.98974,-41.108,-11.647)"
       r="15.095" />
    <linearGradient
       id="n"
       y2="34.095001"
       xlink:href="#r"
       gradientUnits="userSpaceOnUse"
       x2="24.094999"
       gradientTransform="matrix(0.48215,0,0,0.45656,-27.118,4.2668)"
       y1="12.595"
       x1="24.094999" />
    <linearGradient
       id="o"
       y2="8.1619997"
       xlink:href="#a"
       gradientUnits="userSpaceOnUse"
       x2="39.438"
       gradientTransform="matrix(0.52416,0,0,0.52416,2.4096,3.2809)"
       y1="6.7174001"
       x1="38.292999" />
    <linearGradient
       id="p"
       y2="6.7844"
       xlink:href="#a"
       gradientUnits="userSpaceOnUse"
       x2="9.0675001"
       gradientTransform="matrix(0.52416,0,0,0.52416,3.5291,3.2482)"
       y1="7.9334002"
       x1="8.1169004" />
    <radialGradient
       id="x"
       xlink:href="#q"
       gradientUnits="userSpaceOnUse"
       cy="31.886999"
       cx="32.124001"
       gradientTransform="matrix(0.95075,0,0,0.98974,-7.702,-11.432)"
       r="15.095" />
    <linearGradient
       id="t"
       y2="34.095001"
       xlink:href="#r"
       gradientUnits="userSpaceOnUse"
       x2="24.094999"
       gradientTransform="matrix(0.43857,0,0,0.45656,5.0237,4.4817)"
       y1="12.595"
       x1="24.094999" />
    <linearGradient
       id="u"
       y2="8.1619997"
       xlink:href="#a"
       gradientUnits="userSpaceOnUse"
       x2="39.438"
       gradientTransform="matrix(0.52416,0,0,0.52416,16.239,3.1678)"
       y1="6.7174001"
       x1="38.292999" />
    <linearGradient
       id="v"
       y2="6.7844"
       xlink:href="#a"
       gradientUnits="userSpaceOnUse"
       x2="9.0675001"
       gradientTransform="matrix(0.52416,0,0,0.52416,4.6103,3.1975)"
       y1="7.9334002"
       x1="8.1169004" />
    <radialGradient
       inkscape:collect="always"
       xlink:href="#b"
       id="radialGradient4239"
       gradientUnits="userSpaceOnUse"
       gradientTransform="matrix(1,0,0,0.39928,0,23.916)"
       cx="24.25"
       cy="39.812"
       r="17.375" />
    <radialGradient
       inkscape:collect="always"
       xlink:href="#q"
       id="radialGradient4241"
       gradientUnits="userSpaceOnUse"
       gradientTransform="matrix(1.0452,0,0,0.98974,-41.108,-11.647)"
       cx="24.5"
       cy="29.5"
       r="15.095" />
    <linearGradient
       inkscape:collect="always"
       xlink:href="#r"
       id="linearGradient4243"
       gradientUnits="userSpaceOnUse"
       gradientTransform="matrix(0.48215,0,0,0.45656,-27.118,4.2668)"
       x1="24.094999"
       y1="12.595"
       x2="24.094999"
       y2="34.095001" />
    <linearGradient
       inkscape:collect="always"
       xlink:href="#a"
       id="linearGradient4245"
       gradientUnits="userSpaceOnUse"
       gradientTransform="matrix(0.52416,0,0,0.52416,2.4096,3.2809)"
       x1="38.292999"
       y1="6.7174001"
       x2="39.438"
       y2="8.1619997" />
    <linearGradient
       inkscape:collect="always"
       xlink:href="#a"
       id="linearGradient4247"
       gradientUnits="userSpaceOnUse"
       gradientTransform="matrix(0.52416,0,0,0.52416,3.5291,3.2482)"
       x1="8.1169004"
       y1="7.9334002"
       x2="9.0675001"
       y2="6.7844" />
    <radialGradient
       inkscape:collect="always"
       xlink:href="#b"
       id="radialGradient4249"
       gradientUnits="userSpaceOnUse"
       gradientTransform="matrix(1,0,0,0.39928,0,23.916)"
       cx="24.25"
       cy="39.812"
       r="17.375" />
    <radialGradient
       inkscape:collect="always"
       xlink:href="#b"
       id="radialGradient4251"
       gradientUnits="userSpaceOnUse"
       gradientTransform="matrix(1,0,0,0.39928,0,23.916)"
       cx="24.25"
       cy="39.812"
       r="17.375" />
  </defs>
  <g
     transform="matrix(0.53493728,0,0,0.51447212,-0.13513551,0.99297181)"
     id="g41">
    <g
       transform="translate(-3,-2.9938)"
       id="g43">
      <path
         style="color:#000000;display:block;opacity:0.38888999;fill:url(#radialGradient4239)"
         d="m 41.625,39.812 a 17.375,6.9375 0 1 1 -34.75,0 17.375,6.9375 0 1 1 34.75,0 z"
         transform="matrix(0.52416,0,0,0.27388,2.4483,12.696)"
         display="block"
         id="path45"
         inkscape:connector-curvature="0" />
      <rect
         style="color:#000000;display:block;fill:url(#w);stroke:#888a85"
         display="block"
         rx="2.4493001"
         ry="2.5662999"
         height="20.944"
         width="19.989"
         y="4.5056"
         x="5.4949999"
         id="rect47" />
      <rect
         style="color:#000000;display:block;fill:url(#radialGradient4241);stroke:url(#linearGradient4243)"
         transform="scale(-1,1)"
         display="block"
         rx="1.7244999"
         ry="1.633"
         height="13.327"
         width="14.074"
         y="7.2343998"
         x="-22.537001"
         id="rect49" />
      <rect
         style="color:#000000;display:block;opacity:0.48888999;fill:none;stroke:#ffffff"
         display="block"
         rx="1.5568"
         ry="1.5568"
         height="18.997"
         width="18.021"
         y="5.5001001"
         x="6.4896998"
         id="rect51" />
      <path
         style="color:#000000;display:block;opacity:0.48888999;fill:#ffffff"
         d="m 6.9758,22.772 c -0.055629,0.83274 0.48908,1.3187 1.4079,1.2501 l 0.8815,-3.17 -0.6461,-0.382 -1.6433,2.302 z"
         display="block"
         id="path53"
         inkscape:connector-curvature="0" />
      <path
         style="color:#000000;display:block;opacity:0.48888999;fill:#ffffff"
         d="m 24.054,22.999 c -0.18744,0.94323 -0.88683,1.0536 -1.7173,1.0513 l -0.81514,-3.0817 0.66818,-0.40455 1.8642,2.435 z"
         display="block"
         id="path55"
         inkscape:connector-curvature="0" />
      <path
         style="color:#000000;display:block;fill:url(#linearGradient4245)"
         display="block"
         d="M 24.03,7.0818 C 23.977,6.4997 23.65,6.0533 23.016,6 l -0.861,1.1443 0.602,0.6346 1.273,-0.697 z"
         id="path57"
         inkscape:connector-curvature="0" />
      <path
         style="color:#000000;display:block;fill:url(#linearGradient4247)"
         display="block"
         d="M 6.9034,6.9828 C 7.0443,6.467 7.4489,6.0312 8.0172,6 L 8.779,7.1877 8.2198,7.8223 6.9034,6.9828 Z"
         id="path59"
         inkscape:connector-curvature="0" />
    </g>
    <path
       style="color:#000000;display:block;fill:none;stroke:#204a87;stroke-width:5.20529985"
       d="m 44.725,19.539 a 13.612,13.612 0 1 1 -27.224,0 13.612,13.612 0 1 1 27.224,0 z"
       transform="matrix(0.38423,0,0,0.38423,25.257,17.865)"
       display="block"
       id="path61"
       inkscape:connector-curvature="0" />
    <g
       transform="translate(20.005,-2.9431)"
       id="g63">
      <path
         style="color:#000000;display:block;opacity:0.38888999;fill:url(#radialGradient4249)"
         d="m 41.625,39.812 a 17.375,6.9375 0 1 1 -34.75,0 17.375,6.9375 0 1 1 34.75,0 z"
         transform="matrix(0.52416,0,0,0.27388,2.4483,12.696)"
         display="block"
         id="path65"
         inkscape:connector-curvature="0" />
      <rect
         style="color:#000000;display:block;fill:#babdb6;stroke:#888a85"
         display="block"
         rx="2.4493001"
         ry="2.5662999"
         height="20.944"
         width="19.989"
         y="4.5056"
         x="5.4949999"
         id="rect67" />
      <rect
         style="color:#000000;display:block;fill:url(#s);stroke:url(#n)"
         transform="scale(-1,1)"
         display="block"
         rx="1.7244999"
         ry="1.633"
         height="13.327"
         width="14.074"
         y="7.2343998"
         x="-22.537001"
         id="rect69" />
      <rect
         style="color:#000000;display:block;opacity:0.48888999;fill:none;stroke:#ffffff"
         display="block"
         rx="1.5568"
         ry="1.5568"
         height="18.997"
         width="18.021"
         y="5.5001001"
         x="6.4896998"
         id="rect71" />
      <path
         style="color:#000000;display:block;opacity:0.48888999;fill:#ffffff"
         d="m 6.9758,22.772 c -0.055629,0.83274 0.48908,1.3187 1.4079,1.2501 l 0.8815,-3.17 -0.6461,-0.382 -1.6433,2.302 z"
         display="block"
         id="path73"
         inkscape:connector-curvature="0" />
      <path
         style="color:#000000;display:block;opacity:0.48888999;fill:#ffffff"
         d="m 24.054,22.999 c -0.18744,0.94323 -0.88683,1.0536 -1.7173,1.0513 l -0.81514,-3.0817 0.66818,-0.40455 1.8642,2.435 z"
         display="block"
         id="path75"
         inkscape:connector-curvature="0" />
      <path
         style="color:#000000;display:block;fill:url(#o)"
         display="block"
         d="M 24.03,7.0818 C 23.977,6.4997 23.65,6.0533 23.016,6 l -0.861,1.1443 0.602,0.6346 1.273,-0.697 z"
         id="path77"
         inkscape:connector-curvature="0" />
      <path
         style="color:#000000;display:block;fill:url(#p)"
         display="block"
         d="M 6.9034,6.9828 C 7.0443,6.467 7.4489,6.0312 8.0172,6 L 8.779,7.1877 8.2198,7.8223 6.9034,6.9828 Z"
         id="path79"
         inkscape:connector-curvature="0" />
    </g>
    <g
       transform="matrix(1,0,0,1.0054,-2.9845,19.973)"
       id="g81">
      <path
         style="color:#000000;display:block;opacity:0.38888999;fill:url(#radialGradient4251)"
         d="m 41.625,39.812 a 17.375,6.9375 0 1 1 -34.75,0 17.375,6.9375 0 1 1 34.75,0 z"
         transform="matrix(0.52416,0,0,0.27388,2.4483,12.696)"
         display="block"
         id="path83"
         inkscape:connector-curvature="0" />
      <rect
         style="color:#000000;display:block;fill:#babdb6;stroke:#888a85;stroke-width:0.99730003"
         display="block"
         rx="2.5662999"
         ry="2.5525"
         height="20.944"
         width="33.16"
         y="4.5056"
         x="6.3650999"
         id="rect85" />
      <rect
         style="color:#000000;display:block;fill:url(#x);stroke:url(#t);stroke-width:0.99730003"
         display="block"
         rx="1.3205"
         ry="1.3134"
         height="13.051"
         width="27.299999"
         y="7.4493999"
         x="9.1901999"
         id="rect87" />
      <rect
         style="color:#000000;display:block;opacity:0.48888999;fill:none;stroke:#ffffff;stroke-width:0.99730003"
         display="block"
         rx="1.5568"
         ry="1.5484"
         height="18.997"
         width="31.215"
         y="5.4376001"
         x="7.3617001"
         id="rect89" />
      <path
         style="color:#000000;display:block;opacity:0.48888999;fill:#ffffff"
         d="m 7.9602,22.928 c -0.040004,0.6765 0.77033,1.0531 1.1267,1.0158 l 1.0381,-3.061 -0.7715,-0.585 -1.3933,2.63 z"
         display="block"
         id="path91"
         inkscape:connector-curvature="0" />
      <path
         style="color:#000000;display:block;opacity:0.48888999;fill:#ffffff"
         d="m 38.517,22.836 c -0.18744,0.94323 -0.88683,1.0536 -1.7173,1.0513 l -0.81514,-3.0817 0.66818,-0.40455 1.8642,2.435 z"
         display="block"
         id="path93"
         inkscape:connector-curvature="0" />
      <path
         style="color:#000000;display:block;fill:url(#u)"
         display="block"
         d="M 37.859,6.9687 C 37.807,6.3866 37.48,5.9402 36.845,5.8869 l -0.861,1.1443 0.602,0.6346 1.273,-0.697 z"
         id="path95"
         inkscape:connector-curvature="0" />
      <path
         style="color:#000000;display:block;fill:url(#v)"
         display="block"
         d="M 7.9845,6.9322 C 8.1254,6.4164 8.53,5.9806 9.0983,5.9494 L 9.8602,7.1371 9.3009,7.7717 7.9845,6.9322 Z"
         id="path97"
         inkscape:connector-curvature="0" />
    </g>
    <path
       d="m 17.619,8.9375 -2.2412,5.6982 c -0.2181,0.55013 -0.48828,0.96191 -0.81055,1.2354 -0.32227,0.27669 -0.69499,0.41504 -1.1182,0.41504 -0.15625,-3e-6 -0.32064,-0.01953 -0.49316,-0.05859 l 0,-0.89844 c 0.19206,0.05859 0.36621,0.08789 0.52246,0.08789 0.1888,-10e-7 0.36133,-0.05697 0.51758,-0.1709 0.1595,-0.11068 0.28808,-0.27995 0.38574,-0.50781 l 0.34668,-0.80078 -1.9824,-5 1.0498,0 1.2939,3.75 c 0.02278,0.0586 0.05208,0.1888 0.08789,0.39062 l 0.0293,0 c 0.04883,-0.20508 0.08301,-0.33528 0.10254,-0.39062 l 1.3281,-3.75 0.98145,0"
       id="path99"
       inkscape:connector-curvature="0" />
    <path
       d="m 39.715,8.9375 -1.6797,2.5195 1.6699,2.4805 -1.0986,0 -1.1523,-1.9482 -1.1914,1.9482 -1.0791,0 1.7236,-2.4609 -1.6211,-2.5391 1.0986,0 1.1084,2.041 1.1914,-2.041 1.0303,0"
       id="path101"
       inkscape:connector-curvature="0" />
    <path
       d="m 14.386,38.053 c -0.53386,0.29622 -1.1963,0.44434 -1.9873,0.44434 -0.99284,0 -1.7887,-0.32064 -2.3877,-0.96191 -0.5957,-0.64127 -0.89355,-1.4844 -0.89355,-2.5293 -4e-7,-1.11 0.3418,-2.0117 1.0254,-2.7051 0.68685,-0.69661 1.5381,-1.0449 2.5537,-1.0449 0.68684,7e-6 1.25,0.09929 1.6895,0.29785 l 0,1.0303 c -0.518,-0.306 -1.084,-0.459 -1.699,-0.459 -0.76172,6e-6 -1.3818,0.25717 -1.8604,0.77148 -0.47852,0.51107 -0.71778,1.1979 -0.71777,2.0605 -10e-7,0.81706 0.22135,1.4681 0.66406,1.9531 0.44271,0.48177 1.0303,0.72266 1.7627,0.72266 0.70963,10e-7 1.3265,-0.16927 1.8506,-0.50781 l 0,0.92773 m 3.7451,0.25391 c -0.20508,0.10417 -0.46875,0.15625 -0.79102,0.15625 -0.4655,0 -0.8138,-0.12533 -1.0449,-0.37598 -0.23112,-0.25391 -0.34668,-0.63476 -0.34668,-1.1426 l 0,-2.8174 -0.839,0 0,-0.75195 0.83984,0 0,-1.1914 0.94238,-0.29785 0,1.4893 1.2402,0 0,0.75195 -1.2402,0 0,2.6367 c -2e-6,0.32552 0.05534,0.55827 0.16602,0.69824 0.11067,0.13672 0.30436,0.20508 0.58105,0.20508 0.17903,1e-6 0.34342,-0.05371 0.49316,-0.16113 l 0,0.80078 m 3.8809,-3.9697 c -0.16927,-0.11393 -0.38575,-0.17089 -0.64941,-0.1709 -0.3125,4e-6 -0.85742,0.14323 -1.0723,0.42969 -0.21485,0.28646 -0.32227,0.66569 -0.32227,1.1377 l 0,2.6416 -0.9375,0 0,-5 0.9375,0 0,0.99121 c 0.12044,-0.35156 0.29622,-0.61848 0.52734,-0.80078 0.23112,-0.18554 0.76465,-0.27832 1.0381,-0.27832 0.20508,5e-6 0.36458,0.02279 0.47852,0.06836 l 0,0.98144 m 1.9941,4.0381 -0.94726,0 0,-7.4023 0.94726,0 0,7.4023"
       id="path103"
       inkscape:connector-curvature="0" />
    <rect
       style="color:#000000;display:block;fill:none;stroke:#204a87;stroke-width:2"
       display="block"
       rx="2.9000001"
       ry="2.9000001"
       height="22.143"
       width="33.699001"
       y="23.929001"
       x="3.1503"
       id="rect105" />
    <rect
       style="color:#000000;display:block;fill:none;stroke:#204a87;stroke-width:2"
       display="block"
       rx="2.7232001"
       ry="2.7232001"
       height="21.781"
       width="20.877001"
       y="1.1244"
       x="25.063"
       id="rect107" />
  </g>
</svg>
