<svg id="Слой_1" data-name="Слой 1"
  xmlns:cc="http://creativecommons.org/ns#"
  xmlns:rdf="http://www.w3.org/1999/02/22-rdf-syntax-ns#"
  xmlns="http://www.w3.org/2000/svg" viewBox="0 0 26 26">
  <metadata id="metadata43">
    <rdf:RDF>
      <cc:Work rdf:about="">
        <cc:license rdf:resource="http://creativecommons.org/licenses/by/4.0/" />
      </cc:Work>
      <cc:License rdf:about="http://creativecommons.org/licenses/by/4.0/">
        <cc:permits rdf:resource="http://creativecommons.org/ns#Reproduction" />
        <cc:permits rdf:resource="http://creativecommons.org/ns#Distribution" />
        <cc:requires rdf:resource="http://creativecommons.org/ns#Notice" />
        <cc:requires rdf:resource="http://creativecommons.org/ns#Attribution" />
        <cc:permits rdf:resource="http://creativecommons.org/ns#DerivativeWorks" />
      </cc:License>
    </rdf:RDF>
  </metadata>
  <defs>
    <style>.cls-1{fill:#d8d8d8;}.cls-2{fill:#545454;}.cls-3{fill:#b9b9b9;}.cls-4{fill:#1a81c4;}</style>
  </defs>
  <title>icon_cvpcb</title>
  <path class="cls-1" d="M3.6662.9995H14.3328a2.6667,2.6667,0,0,1,2.6667,2.6667V14.3328a2.6667,2.6667,0,0,1-2.6667,2.6667H3.6661A2.6666,2.6666,0,0,1,.9995,14.3329V3.6662A2.6667,2.6667,0,0,1,3.6662.9995Z"/>
  <path class="cls-2" d="M15.4828,8.4247H14.28L4.7529,2.1328a.58.58,0,0,0-.9007.4843V4.94H2.6905a.5808.5808,0,1,0,0,1.1615H3.8522v5.8077H2.6905a.5808.5808,0,1,0,0,1.1615H3.8522v2.323a.58.58,0,0,0,.9007.4844L14.28,9.5863h1.2028a.5808.5808,0,1,0,0-1.1616ZM5.0138,14.314V3.697l8.0385,5.3086Z"/>
  <path class="cls-2" d="M6.1545,7.844h1.351a.5808.5808,0,1,0,0-1.1615H6.1545a.5808.5808,0,1,0,0,1.1615Z"/>
  <path class="cls-2" d="M7.5288,9.97V9.7785a.5808.5808,0,0,0-1.1616,0V9.97H6.1761a.5808.5808,0,1,0,0,1.1615h.1911v.1912a.5808.5808,0,0,0,1.1616,0v-.1912H7.72a.5808.5808,0,1,0,0-1.1615Z"/>
  <path class="cls-3" d="M11.6511,8.9948H22.3179a2.6666,2.6666,0,0,1,2.6666,2.6666V22.3281a2.6667,2.6667,0,0,1-2.6667,2.6667H11.6511a2.6666,2.6666,0,0,1-2.6666-2.6666V11.6614a2.6666,2.6666,0,0,1,2.6666-2.6666Z"/>
  <path class="cls-2" d="M23.0675,21.9009H11.3187a.29.29,0,0,1-.29-.29V18.7a.2911.2911,0,0,1,.0957-.2151l.9175-.8264V16.6577l-.9175-.8264a.2911.2911,0,0,1-.0957-.2151V12.9994a.29.29,0,0,1,.29-.29H23.0766a.29.29,0,0,1,.29.29l-.0091,8.6118A.29.29,0,0,1,23.0675,21.9009Zm-11.4589-.58h11.17l.008-8.0321H11.6086v2.1979l.9176.8264a.2909.2909,0,0,1,.0955.2151v1.2589a.2906.2906,0,0,1-.0955.2151l-.9176.8265Zm.7234-3.5338h0Z"/>
  <rect class="cls-4" x="19.169" y="19.8382" width="2.533" height="3.5462"/>
  <rect class="cls-4" x="12.5897" y="19.8382" width="2.5332" height="3.5462"/>
  <rect class="cls-4" x="15.8782" y="19.8382" width="2.5329" height="3.5462"/>
  <rect class="cls-4" x="19.169" y="11.226" width="2.533" height="3.5462"/>
  <rect class="cls-4" x="12.5897" y="11.226" width="2.5332" height="3.5462"/>
  <rect class="cls-4" x="15.8782" y="11.226" width="2.5329" height="3.5462"/>
</svg>