<svg id="Слой_1" data-name="Слой 1"
  xmlns:dc="http://purl.org/dc/elements/1.1/"
  xmlns:cc="http://creativecommons.org/ns#"
  xmlns:rdf="http://www.w3.org/1999/02/22-rdf-syntax-ns#"
  xmlns="http://www.w3.org/2000/svg" viewBox="0 0 26 26">
  <metadata id="metadata43">
    <rdf:RDF>
      <cc:Work rdf:about="">
        <cc:license rdf:resource="http://creativecommons.org/licenses/by-sa/4.0/" />
        <dc:format>image/svg+xml</dc:format>
        <dc:type rdf:resource="http://purl.org/dc/dcmitype/StillImage" />
        <dc:title>add_arc</dc:title>
      </cc:Work>
      <cc:License rdf:about="http://creativecommons.org/licenses/by-sa/4.0/">
        <cc:permits rdf:resource="http://creativecommons.org/ns#Reproduction" />
        <cc:permits rdf:resource="http://creativecommons.org/ns#Distribution" />
        <cc:requires rdf:resource="http://creativecommons.org/ns#Notice" />
        <cc:requires rdf:resource="http://creativecommons.org/ns#Attribution" />
        <cc:permits rdf:resource="http://creativecommons.org/ns#DerivativeWorks" />
        <cc:requires rdf:resource="http://creativecommons.org/ns#ShareAlike" />
      </cc:License>
    </rdf:RDF>
  </metadata>
  <defs>
    <style>.cls-1{fill:#b9b9b9;}.cls-2{fill:#1a81c4;}.cls-3{fill:none;stroke:#1a81c4;stroke-linejoin:round;}</style>
  </defs>
  <title>icon_pagelayout_editor</title>
  <rect class="cls-1" x="1.501" y="1.5" width="23" height="22.999" rx="3.5"/>
  <path class="cls-2" d="M21.0006,2a3.0035,3.0035,0,0,1,3,3v16a3.0033,3.0033,0,0,1-3,3h-16a3.0033,3.0033,0,0,1-3-3V5a3.0035,3.0035,0,0,1,3-3h16m0-1h-16a4,4,0,0,0-4,4v16a4,4,0,0,0,4,4h16a4,4,0,0,0,4-4V5a4,4,0,0,0-4-4Z"/>
  <polyline class="cls-3" points="14.487 24.44 14.487 18.542 24.154 18.542"/>
  <line class="cls-3" x1="24.3421" y1="21.4984" x2="14.6077" y2="21.4984"/>
  <line class="cls-3" x1="18.1065" y1="24.4754" x2="18.1065" y2="18.8442"/>
  <line class="cls-3" x1="21.4937" y1="24.4754" x2="21.4937" y2="18.8442"/>
</svg>