<?xml version="1.0" encoding="UTF-8" standalone="no"?>
<!-- Created with Inkscape (http://www.inkscape.org/) -->

<svg
   xmlns:dc="http://purl.org/dc/elements/1.1/"
   xmlns:cc="http://creativecommons.org/ns#"
   xmlns:rdf="http://www.w3.org/1999/02/22-rdf-syntax-ns#"
   xmlns:svg="http://www.w3.org/2000/svg"
   xmlns="http://www.w3.org/2000/svg"
   xmlns:sodipodi="http://sodipodi.sourceforge.net/DTD/sodipodi-0.dtd"
   xmlns:inkscape="http://www.inkscape.org/namespaces/inkscape"
   width="26"
   height="26"
   viewBox="0 0 26 26"
   id="svg2"
   version="1.1"
   inkscape:version="0.91 r13725"
   sodipodi:docname="icon.svg">
  <defs
     id="defs4">
    <filter
       inkscape:collect="always"
       style="color-interpolation-filters:sRGB"
       id="filter4610"
       x="-0.69938212"
       width="2.3987642"
       y="-0.6226692"
       height="2.2453384">
      <feGaussianBlur
         inkscape:collect="always"
         stdDeviation="0.29893446"
         id="feGaussianBlur4612" />
    </filter>
  </defs>
  <sodipodi:namedview
     id="base"
     pagecolor="#ffffff"
     bordercolor="#666666"
     borderopacity="1.0"
     inkscape:pageopacity="0.0"
     inkscape:pageshadow="2"
     inkscape:zoom="31.678384"
     inkscape:cx="9.4429437"
     inkscape:cy="17.309237"
     inkscape:document-units="px"
     inkscape:current-layer="layer1"
     showgrid="true"
     units="px"
     inkscape:snap-nodes="false"
     inkscape:window-width="1920"
     inkscape:window-height="1054"
     inkscape:window-x="0"
     inkscape:window-y="0"
     inkscape:window-maximized="1">
    <inkscape:grid
       type="xygrid"
       id="grid4147" />
  </sodipodi:namedview>
  <metadata
     id="metadata7">
    <rdf:RDF>
      <cc:Work
         rdf:about="">
        <dc:format>image/svg+xml</dc:format>
        <dc:type
           rdf:resource="http://purl.org/dc/dcmitype/StillImage" />
        <dc:title />
      </cc:Work>
    </rdf:RDF>
  </metadata>
  <g
     inkscape:label="Layer 1"
     inkscape:groupmode="layer"
     id="layer1"
     transform="translate(0,-1026.3622)">
    <path
       style="fill:#333333;fill-rule:evenodd;stroke:#333333;stroke-width:0.9554587px;stroke-linecap:butt;stroke-linejoin:miter;stroke-opacity:1"
       d="m 6.5542977,1028.7585 -3.6574766,0.028 c 0,0 1.2079741,1.5994 1.375748,2.1146 0.1677742,0.5152 0.06711,1.7353 0.06711,1.7353 0,0 0,0.3522 0.8053159,0.7861 0.8053159,0.4337 1.3757482,0.4337 1.3757482,0.4337 z"
       id="path4188-7"
       inkscape:connector-curvature="0" />
    <path
       style="fill:#333333;fill-rule:evenodd;stroke:#333333;stroke-width:0.95562983px;stroke-linecap:butt;stroke-linejoin:miter;stroke-opacity:1"
       d="m 6.5351956,1036.7808 -3.658509,0.028 c 0,0 1.208315,1.5997 1.3761363,2.1149 0.1678216,0.5152 0.067127,1.7354 0.067127,1.7354 0,0 0,0.3522 0.8055433,0.7862 0.8055432,0.4337 1.3761363,0.4337 1.3761363,0.4337 z"
       id="path4188-7-3"
       inkscape:connector-curvature="0" />
    <path
       style="fill:#333333;fill-rule:evenodd;stroke:#333333;stroke-width:0.9405753px;stroke-linecap:butt;stroke-linejoin:miter;stroke-opacity:1"
       d="m 6.5464113,1044.7912 -3.6098821,0.027 c 0,0 1.1922547,1.5705 1.3578458,2.0764 0.1655908,0.5057 0.066237,1.7036 0.066237,1.7036 0,0 0,0.3461 0.7948366,0.7718 0.7948363,0.4259 1.3578455,0.4259 1.3578455,0.4259 z"
       id="path4188-7-3-5"
       inkscape:connector-curvature="0" />
    <rect
       style="opacity:0.9;fill:#333333;fill-opacity:1;fill-rule:nonzero;stroke:#999999;stroke-width:0.92637771;stroke-linecap:round;stroke-linejoin:round;stroke-miterlimit:4;stroke-dasharray:none;stroke-opacity:1"
       id="rect4149"
       width="11.099459"
       height="23.09642"
       x="7.4557996"
       y="1027.839" />
    <path
       style="opacity:0.9;fill:#ff0000;fill-opacity:1;fill-rule:nonzero;stroke:#ffffff;stroke-width:0.67322171;stroke-linecap:round;stroke-linejoin:round;stroke-miterlimit:4;stroke-dasharray:none;stroke-opacity:1"
       id="path4163"
       sodipodi:type="arc"
       sodipodi:cx="12.999738"
       sodipodi:cy="1032.2856"
       sodipodi:rx="3.0048423"
       sodipodi:ry="2.9262216"
       sodipodi:start="3.1699519"
       sodipodi:end="3.1206424"
       d="m 9.9961037,1032.2027 a 3.0048423,2.9262216 0 0 1 3.0518053,-2.8429 3.0048423,2.9262216 0 0 1 2.95665,2.9367 3.0048423,2.9262216 0 0 1 -2.978911,2.9153 3.0048423,2.9262216 0 0 1 -3.0300931,-2.8649"
       sodipodi:open="true" />
    <path
       style="fill:#333333;fill-rule:evenodd;stroke:#333333;stroke-width:0.9554587px;stroke-linecap:butt;stroke-linejoin:miter;stroke-opacity:1"
       d="m 19.445864,1028.8567 3.657477,0.028 c 0,0 -1.207974,1.5994 -1.375748,2.1146 -0.167774,0.5152 -0.06711,1.7353 -0.06711,1.7353 0,0 0,0.3522 -0.805316,0.7861 -0.805316,0.4337 -1.375748,0.4337 -1.375748,0.4337 z"
       id="path4188-7-6"
       inkscape:connector-curvature="0" />
    <path
       style="fill:#333333;fill-rule:evenodd;stroke:#333333;stroke-width:0.95411336px;stroke-linecap:butt;stroke-linejoin:miter;stroke-opacity:1"
       d="m 19.480195,1036.878 3.645517,0.028 c 0,0 -1.204024,1.6003 -1.371249,2.1157 -0.167226,0.5154 -0.06689,1.7361 -0.06689,1.7361 0,0 0,0.3523 -0.802682,0.7865 -0.802683,0.4339 -1.37125,0.4339 -1.37125,0.4339 z"
       id="path4188-7-3-2"
       inkscape:connector-curvature="0" />
    <path
       style="fill:#333333;fill-rule:evenodd;stroke:#333333;stroke-width:0.9405753px;stroke-linecap:butt;stroke-linejoin:miter;stroke-opacity:1"
       d="m 19.453751,1044.8894 3.609882,0.027 c 0,0 -1.192255,1.5705 -1.357846,2.0764 -0.165591,0.5057 -0.06624,1.7036 -0.06624,1.7036 0,0 0,0.3461 -0.794837,0.7718 -0.794836,0.4259 -1.357845,0.4259 -1.357845,0.4259 z"
       id="path4188-7-3-5-9"
       inkscape:connector-curvature="0" />
    <path
       style="opacity:0.9;fill:#ffff00;fill-opacity:1;fill-rule:nonzero;stroke:#ffffff;stroke-width:0.67322171;stroke-linecap:round;stroke-linejoin:round;stroke-miterlimit:4;stroke-dasharray:none;stroke-opacity:1"
       id="path4163-1"
       sodipodi:type="arc"
       sodipodi:cx="12.999738"
       sodipodi:cy="1039.4597"
       sodipodi:rx="3.0048423"
       sodipodi:ry="2.9262216"
       sodipodi:start="3.1699519"
       sodipodi:end="3.1206424"
       d="m 9.9961037,1039.3767 a 3.0048423,2.9262216 0 0 1 3.0518053,-2.8428 3.0048423,2.9262216 0 0 1 2.95665,2.9367 3.0048423,2.9262216 0 0 1 -2.978911,2.9152 3.0048423,2.9262216 0 0 1 -3.0300931,-2.8648"
       sodipodi:open="true" />
    <path
       style="opacity:0.9;fill:#00ff00;fill-opacity:1;fill-rule:nonzero;stroke:#ffffff;stroke-width:0.67322171;stroke-linecap:round;stroke-linejoin:round;stroke-miterlimit:4;stroke-dasharray:none;stroke-opacity:1"
       id="path4163-2"
       sodipodi:type="arc"
       sodipodi:cx="12.999738"
       sodipodi:cy="1046.6339"
       sodipodi:rx="3.0048423"
       sodipodi:ry="2.9262216"
       sodipodi:start="3.1699519"
       sodipodi:end="3.1206424"
       d="m 9.9961037,1046.5509 a 3.0048423,2.9262216 0 0 1 3.0518053,-2.8428 3.0048423,2.9262216 0 0 1 2.95665,2.9367 3.0048423,2.9262216 0 0 1 -2.978911,2.9152 3.0048423,2.9262216 0 0 1 -3.0300931,-2.8648"
       sodipodi:open="true" />
    <path
       style="opacity:1;fill:#ffffff;fill-opacity:1;fill-rule:nonzero;stroke:#ffffff;stroke-width:0.5;stroke-linecap:round;stroke-linejoin:round;stroke-miterlimit:4;stroke-dasharray:none;stroke-opacity:1;filter:url(#filter4610)"
       id="path4144"
       sodipodi:type="arc"
       sodipodi:cx="14.749805"
       sodipodi:cy="1037.5336"
       sodipodi:rx="0.51296806"
       sodipodi:ry="0.57610261"
       sodipodi:start="3.1699543"
       sodipodi:end="3.1206487"
       sodipodi:open="true"
       d="m 14.237044,1037.5172 a 0.51296806,0.57610261 0 0 1 0.520987,-0.5597 0.51296806,0.57610261 0 0 1 0.504739,0.5782 0.51296806,0.57610261 0 0 1 -0.508544,0.574 0.51296806,0.57610261 0 0 1 -0.517276,-0.5641"
       transform="matrix(2.076613,0,0,2.076613,-16.427422,-1115.9805)" />
  </g>
</svg>
