<svg xmlns="http://www.w3.org/2000/svg" height="48" width="48" version="1.1" xmlns:xlink="http://www.w3.org/1999/xlink">
 <defs>
  <filter id="bb" color-interpolation-filters="sRGB">
   <feGaussianBlur stdDeviation="2.0786429"/>
  </filter>
  <clipPath id="ba">
   <path fill-rule="evenodd" d="m72 88-32 32h-8v-40h40v8z"/>
  </clipPath>
  <filter id="bc" height="1.384" width="1.384" color-interpolation-filters="sRGB" y="-.192" x="-.192">
   <feGaussianBlur stdDeviation="1.9447689"/>
  </filter>
  <linearGradient id="bn" y2="172.44" gradientUnits="userSpaceOnUse" x2="153" gradientTransform="translate(-143,-64)" y1="175.56" x1="153">
   <stop stop-color="#fff" offset="0"/>
   <stop stop-color="#ddd" offset="1"/>
  </linearGradient>
  <linearGradient id="bo" y2="172.9" gradientUnits="userSpaceOnUse" x2="151.9" gradientTransform="translate(-143,-64)" y1="175.1" x1="154.1">
   <stop stop-color="#bbb" offset="0"/>
   <stop stop-color="#616161" offset="1"/>
  </linearGradient>
  <linearGradient id="bp" y2="164.44" gradientUnits="userSpaceOnUse" x2="153" gradientTransform="translate(-143,-64)" y1="167.56" x1="153">
   <stop stop-color="#fff" offset="0"/>
   <stop stop-color="#ddd" offset="1"/>
  </linearGradient>
  <linearGradient id="bq" y2="164.9" gradientUnits="userSpaceOnUse" x2="151.9" gradientTransform="translate(-143,-64)" y1="167.1" x1="154.1">
   <stop stop-color="#bbb" offset="0"/>
   <stop stop-color="#616161" offset="1"/>
  </linearGradient>
  <linearGradient id="br" y2="156.44" gradientUnits="userSpaceOnUse" x2="153" gradientTransform="translate(-143,-64)" y1="159.56" x1="153">
   <stop stop-color="#fff" offset="0"/>
   <stop stop-color="#ddd" offset="1"/>
  </linearGradient>
  <linearGradient id="bs" y2="156.9" gradientUnits="userSpaceOnUse" x2="151.9" gradientTransform="translate(-143,-64)" y1="159.1" x1="154.1">
   <stop stop-color="#bbb" offset="0"/>
   <stop stop-color="#616161" offset="1"/>
  </linearGradient>
  <linearGradient id="bt" y2="148.44" gradientUnits="userSpaceOnUse" x2="153" gradientTransform="translate(-143,-64)" y1="151.56" x1="153">
   <stop stop-color="#fff" offset="0"/>
   <stop stop-color="#ddd" offset="1"/>
  </linearGradient>
  <linearGradient id="bu" y2="148.9" gradientUnits="userSpaceOnUse" x2="151.9" gradientTransform="translate(-143,-64)" y1="151.1" x1="154.1">
   <stop stop-color="#bbb" offset="0"/>
   <stop stop-color="#616161" offset="1"/>
  </linearGradient>
  <linearGradient id="bv" y2="140.44" gradientUnits="userSpaceOnUse" x2="153" gradientTransform="translate(-143,-64)" y1="143.56" x1="153">
   <stop stop-color="#fff" offset="0"/>
   <stop stop-color="#ddd" offset="1"/>
  </linearGradient>
  <linearGradient id="bw" y2="140.9" gradientUnits="userSpaceOnUse" x2="151.9" gradientTransform="translate(-143,-64)" y1="143.1" x1="154.1">
   <stop stop-color="#bbb" offset="0"/>
   <stop stop-color="#616161" offset="1"/>
  </linearGradient>
  <linearGradient id="bx" y2="132.44" gradientUnits="userSpaceOnUse" x2="153" gradientTransform="translate(-143,-64)" y1="135.56" x1="153">
   <stop stop-color="#fff" offset="0"/>
   <stop stop-color="#ddd" offset="1"/>
  </linearGradient>
  <linearGradient id="by" y2="132.9" gradientUnits="userSpaceOnUse" x2="151.9" gradientTransform="translate(-143,-64)" y1="135.1" x1="154.1">
   <stop stop-color="#bbb" offset="0"/>
   <stop stop-color="#616161" offset="1"/>
  </linearGradient>
  <linearGradient id="bz" y2="124.44" gradientUnits="userSpaceOnUse" x2="153" gradientTransform="translate(-143,-64)" y1="127.56" x1="153">
   <stop stop-color="#fff" offset="0"/>
   <stop stop-color="#ddd" offset="1"/>
  </linearGradient>
  <linearGradient id="ca" y2="124.9" gradientUnits="userSpaceOnUse" x2="151.9" gradientTransform="translate(-143,-64)" y1="127.1" x1="154.1">
   <stop stop-color="#bbb" offset="0"/>
   <stop stop-color="#616161" offset="1"/>
  </linearGradient>
  <linearGradient id="cb" y2="116.44" gradientUnits="userSpaceOnUse" x2="153" gradientTransform="translate(-143,-64)" y1="119.56" x1="153">
   <stop stop-color="#fff" offset="0"/>
   <stop stop-color="#ddd" offset="1"/>
  </linearGradient>
  <linearGradient id="cc" y2="116.9" gradientUnits="userSpaceOnUse" x2="151.9" gradientTransform="translate(-143,-64)" y1="119.1" x1="154.1">
   <stop stop-color="#bbb" offset="0"/>
   <stop stop-color="#616161" offset="1"/>
  </linearGradient>
  <linearGradient id="cd" y2="108.44" gradientUnits="userSpaceOnUse" x2="153" gradientTransform="translate(-143,-64)" y1="111.56" x1="153">
   <stop stop-color="#fff" offset="0"/>
   <stop stop-color="#ddd" offset="1"/>
  </linearGradient>
  <linearGradient id="ce" y2="108.9" gradientUnits="userSpaceOnUse" x2="151.9" gradientTransform="translate(-143,-64)" y1="111.1" x1="154.1">
   <stop stop-color="#bbb" offset="0"/>
   <stop stop-color="#616161" offset="1"/>
  </linearGradient>
  <linearGradient id="cf" y2="100.44" gradientUnits="userSpaceOnUse" x2="153" gradientTransform="translate(-143,-64)" y1="103.56" x1="153">
   <stop stop-color="#fff" offset="0"/>
   <stop stop-color="#ddd" offset="1"/>
  </linearGradient>
  <linearGradient id="cg" y2="100.9" gradientUnits="userSpaceOnUse" x2="151.9" gradientTransform="translate(-143,-64)" y1="103.1" x1="154.1">
   <stop stop-color="#bbb" offset="0"/>
   <stop stop-color="#616161" offset="1"/>
  </linearGradient>
  <linearGradient id="ch" y2="92.444" gradientUnits="userSpaceOnUse" x2="153" gradientTransform="translate(-143,-64)" y1="95.557" x1="153">
   <stop stop-color="#fff" offset="0"/>
   <stop stop-color="#ddd" offset="1"/>
  </linearGradient>
  <linearGradient id="at" y2="92.9" gradientUnits="userSpaceOnUse" x2="151.9" gradientTransform="translate(-143,-64)" y1="95.101" x1="154.1">
   <stop stop-color="#bbb" offset="0"/>
   <stop stop-color="#616161" offset="1"/>
  </linearGradient>
  <linearGradient id="au" y2="84.444" gradientUnits="userSpaceOnUse" x2="153" gradientTransform="translate(-143,-64)" y1="87.557" x1="153">
   <stop stop-color="#fff" offset="0"/>
   <stop stop-color="#ddd" offset="1"/>
  </linearGradient>
  <linearGradient id="av" y2="84.9" gradientUnits="userSpaceOnUse" x2="151.9" gradientTransform="translate(-143,-64)" y1="87.101" x1="154.1">
   <stop stop-color="#bbb" offset="0"/>
   <stop stop-color="#616161" offset="1"/>
  </linearGradient>
  <linearGradient id="aw" y2="76.444" gradientUnits="userSpaceOnUse" x2="153" gradientTransform="translate(-143,-64)" y1="79.557" x1="153">
   <stop stop-color="#fff" offset="0"/>
   <stop stop-color="#ddd" offset="1"/>
  </linearGradient>
  <linearGradient id="ax" y2="76.9" gradientUnits="userSpaceOnUse" x2="151.9" gradientTransform="translate(-143,-64)" y1="79.101" x1="154.1">
   <stop stop-color="#bbb" offset="0"/>
   <stop stop-color="#616161" offset="1"/>
  </linearGradient>
  <linearGradient id="be" y2="31.211" gradientUnits="userSpaceOnUse" x2="23.576" gradientTransform="matrix(.64407 -.64045 .66092 .65072 61.423 86.661)" y1="25.357" x1="23.576">
   <stop offset="0"/>
   <stop stop-color="#c3c3c3" offset=".13483"/>
   <stop stop-color="#8c8c8c" offset=".20224"/>
   <stop stop-color="#fff" offset=".26966"/>
   <stop stop-color="#757575" offset=".4465"/>
   <stop stop-color="#7d7d7d" offset=".57114"/>
   <stop stop-color="#b6b6b6" offset=".72038"/>
   <stop offset="1"/>
  </linearGradient>
  <linearGradient id="bf" y2="30" xlink:href="#as" gradientUnits="userSpaceOnUse" x2="30.038" gradientTransform="matrix(.62586 -.62234 .77349 .76155 59.298 83.616)" y1="24.99" x1="30.038"/>
  <linearGradient id="as">
   <stop stop-color="#3e3e3e" offset="0"/>
   <stop stop-color="#828282" offset=".5"/>
   <stop stop-color="#3c3c3c" offset="1"/>
  </linearGradient>
  <linearGradient id="bg" y2="30" xlink:href="#ar" gradientUnits="userSpaceOnUse" x2="30.038" gradientTransform="matrix(.62586 -.62234 .77349 .76155 59.119 83.794)" y1="24.99" x1="30.038"/>
  <linearGradient id="ar">
   <stop stop-color="#999" offset="0"/>
   <stop stop-color="#fff" offset=".5"/>
   <stop stop-color="#777" offset="1"/>
  </linearGradient>
  <linearGradient id="bh" y2="30" xlink:href="#as" gradientUnits="userSpaceOnUse" x2="30.038" gradientTransform="matrix(.62586 -.62234 .77349 .76155 59.921 82.996)" y1="24.99" x1="30.038"/>
  <linearGradient id="bi" y2="30" xlink:href="#ar" gradientUnits="userSpaceOnUse" x2="30.038" gradientTransform="matrix(.62586 -.62234 .77349 .76155 59.742 83.175)" y1="24.99" x1="30.038"/>
  <linearGradient id="bj" y2="30" xlink:href="#as" gradientUnits="userSpaceOnUse" x2="30.038" gradientTransform="matrix(.62586 -.62234 .77349 .76155 60.547 82.374)" y1="24.99" x1="30.038"/>
  <linearGradient id="bk" y2="30" xlink:href="#ar" gradientUnits="userSpaceOnUse" x2="30.038" gradientTransform="matrix(.62586 -.62234 .77349 .76155 60.367 82.552)" y1="24.99" x1="30.038"/>
  <linearGradient id="bl" y2="26.03" gradientUnits="userSpaceOnUse" x2="9" gradientTransform="matrix(.62586 -.62234 .77349 .76155 59.06 83.852)" y1="29.057" x1="9">
   <stop stop-color="#e4db7b" offset="0"/>
   <stop stop-color="#f4f0c8" offset="1"/>
  </linearGradient>
  <linearGradient id="bm" y2="41.392" gradientUnits="userSpaceOnUse" x2="9.5221" gradientTransform="matrix(.52586 0 0 .51993 81.027 79.545)" y1="37.372" x1="5.5179">
   <stop stop-color="#cbbd27" offset="0"/>
   <stop stop-color="#9b901d" offset="1"/>
  </linearGradient>
  <linearGradient id="bd" y2="99.255" gradientUnits="userSpaceOnUse" x2="91.229" gradientTransform="matrix(.42182 0 0 .39308 -3.5065 -1.161)" y1="106.41" x1="98.617">
   <stop stop-color="#a2a2a2" offset="0"/>
   <stop stop-color="#fff" offset="1"/>
  </linearGradient>
  <radialGradient id="ay" fx="27.036" gradientUnits="userSpaceOnUse" cy="115.71" cx="63.912" gradientTransform="matrix(.20435 0 0 .027955 21.621 38.284)" r="63.912">
   <stop offset="0"/>
   <stop stop-opacity="0" offset="1"/>
  </radialGradient>
  <radialGradient id="az" gradientUnits="userSpaceOnUse" cy="112.3" cx="102" gradientTransform="matrix(.42182 0 0 .39294 -3.5065 -1.1599)" r="139.56">
   <stop stop-color="#b7b8b9" offset="0"/>
   <stop stop-color="#ececec" offset=".18851"/>
   <stop stop-color="#fafafa" offset=".25718"/>
   <stop stop-color="#fff" offset=".30111"/>
   <stop stop-color="#fafafa" offset=".53130"/>
   <stop stop-color="#ebecec" offset=".84490"/>
   <stop stop-color="#e1e2e3" offset="1"/>
  </radialGradient>
 </defs>
 <path opacity=".5" d="m16 8v112h63.187c0.000003 0 11.906-9.9062 17.406-15.406 5.497-5.488 15.407-17.394 15.407-17.394v-79.188h-96z" transform="matrix(.43939 0 0 .40361 -4.6313 -1.6383)" filter="url(#bb)"/>
 <path fill="#fff" d="m3.2426 1.9836v44.025h26.636l13.858-12.914v-31.111h-40.494z"/>
 <path fill="url(#az)" d="m4.0862 2.3766c-0.23242 0-0.42182 0.17643-0.42182 0.39294v42.438c0 0.2169 0.1894 0.39294 0.42182 0.39294h24.96c0.11094 0 1.1653 0.04643 1.2438-0.02704l12.901-12.107c0.07888-0.07348 0.12359-1.0553 0.12359-1.1587v-29.538c0-0.21651-0.18897-0.39294-0.42182-0.39294h-38.807z"/>
 <path opacity=".4" d="m41.88 115.98 24.31-24.31s-9.3531 2.9131-19.603 2.9131c0 10.25-4.7065 21.396-4.7065 21.396z" clip-path="url(#ba)" transform="matrix(.42182 0 0 .39308 13.366 -1.161)" filter="url(#bc)"/>
 <g transform="matrix(.42182 0 0 .39308 -47.376 12.99)">
  <g transform="translate(116,-32)">
   <circle cy="110" cx="10" r="2" fill="url(#bn)"/>
   <circle cy="110" cx="10" r="1.556" fill="url(#bo)"/>
  </g>
  <g transform="translate(116,-32)">
   <circle cy="102" cx="10" r="2" fill="url(#bp)"/>
   <circle cy="102" cx="10" r="1.556" fill="url(#bq)"/>
  </g>
  <g transform="translate(116,-32)">
   <circle cy="94" cx="10" r="2" fill="url(#br)"/>
   <circle cy="94" cx="10" r="1.556" fill="url(#bs)"/>
  </g>
  <g transform="translate(116,-32)">
   <circle cy="86" cx="10" r="2" fill="url(#bt)"/>
   <circle cy="86" cx="10" r="1.556" fill="url(#bu)"/>
  </g>
  <g transform="translate(116,-32)">
   <circle cy="78" cx="10" r="2" fill="url(#bv)"/>
   <circle cy="78" cx="10" r="1.556" fill="url(#bw)"/>
  </g>
  <g transform="translate(116,-32)">
   <circle cy="70" cx="10" r="2" fill="url(#bx)"/>
   <circle cy="70" cx="10" r="1.556" fill="url(#by)"/>
  </g>
  <g transform="translate(116,-32)">
   <circle cy="62" cx="10" r="2" fill="url(#bz)"/>
   <circle cy="62" cx="10" r="1.556" fill="url(#ca)"/>
  </g>
  <g transform="translate(116,-32)">
   <circle cy="54" cx="10" r="2" fill="url(#cb)"/>
   <circle cy="54" cx="10" r="1.556" fill="url(#cc)"/>
  </g>
  <g transform="translate(116,-32)">
   <circle cy="46" cx="10" r="2" fill="url(#cd)"/>
   <circle cy="46" cx="10" r="1.556" fill="url(#ce)"/>
  </g>
  <g transform="translate(116,-32)">
   <circle cy="38" cx="10" r="2" fill="url(#cf)"/>
   <circle cy="38" cx="10" r="1.556" fill="url(#cg)"/>
  </g>
  <g transform="translate(116,-32)">
   <circle cy="30" cx="10" r="2" fill="url(#ch)"/>
   <circle cy="30" cx="10" r="1.556" fill="url(#at)"/>
  </g>
  <g transform="translate(116,-32)">
   <circle cy="22" cx="10" r="2" fill="url(#au)"/>
   <circle cy="22" cx="10" r="1.556" fill="url(#av)"/>
  </g>
  <g transform="translate(116,-32)">
   <circle cy="14" cx="10" r="2" fill="url(#aw)"/>
   <circle cy="14" cx="10" r="1.556" fill="url(#ax)"/>
  </g>
 </g>
 <g opacity=".38462" stroke-linejoin="round" transform="matrix(-1.1843,0,0,-1.2005,52.995,52.457)" stroke="#000" stroke-linecap="round">
  <path style="color:#000000" display="block" fill="none" d="m16.728 8.2961 3.772 4.2039v10"/>
  <path style="color:#000000" display="block" fill="none" d="m24.5 22.5v-12l-3-3"/>
  <path style="color:#000000" display="block" fill="none" d="m28.5 22.5v-14l-1-1"/>
  <path style="color:#000000" display="block" fill="none" d="m32.5 22.5v-15"/>
  <path style="color:#000000" d="m20.5 22.5v2" stroke-width="2" display="block" fill="none"/>
  <path style="color:#000000" d="m24.5 22.5v2" stroke-width="2" display="block" fill="none"/>
  <path style="color:#000000" d="m28.5 22.5v2" stroke-width="2" display="block" fill="none"/>
  <path style="color:#000000" d="m32.5 22.5v2" stroke-width="2" display="block" fill="none"/>
  <path style="color:#000000" d="m32.5 31.5v2" stroke-width="2" display="block" fill="none"/>
  <path style="color:#000000" d="m28.5 31.5v2" stroke-width="2" display="block" fill="none"/>
  <path style="color:#000000" d="m24.5 31.5v2" stroke-width="2" display="block" fill="none"/>
  <path style="color:#000000" d="m20.5 31.5v2" stroke-width="2" display="block" fill="none"/>
  <path style="color:#000000" display="block" fill="none" d="m20.5 33.5v4l-3 3h-7"/>
  <path style="color:#000000" display="block" fill="none" d="m24.5 33.5v7"/>
  <path style="color:#000000" display="block" fill="none" d="m28.5 33.5v4l3 3h6"/>
  <path style="color:#000000" display="block" fill="none" d="m32.5 33.5 2 2h3"/>
  <path style="color:#000000" display="block" d="m10.888 13.663c1.6249-1.4406 3.4028-3.3721 3.4028-3.3721 0.01885 0.01796 1.7133 1.7863 3.2087 3.2089v22l-2 2h-5z"/>
  <path style="color:#000000" display="block" d="m37.5 32.5h-1v-12l-1-1v-12h2v25z"/>
 </g>
 <path opacity=".38140" fill="url(#ay)" d="m47.742 41.518a13.061 1.7866 0 0 1 -26.122 0 13.061 1.7866 0 1 1 26.122 0z"/>
 <path fill="url(#bd)" d="m29.89 46.008s5.0255-3.897 7.3455-6.0589 6.5019-6.845 6.5019-6.845-5.8 3.4701-10.124 3.4701c0 4.029-3.7238 9.4338-3.7238 9.4338z"/>
 <g transform="matrix(1.1923 -.15242 .16247 1.1185 -91.701 -62.339)">
  <path stroke-linejoin="round" d="m85.365 96.011c0.43282-0.32935 1.5837 0.20459 2.6183 1.2232 1.0321 1.0162 1.5508 2.1286 1.225 2.5608-0.0012 0.0017 0.02544 0.02217 0.02417 0.0238l15.708-15.618c0.39874-0.3965-0.14267-1.5725-1.2101-2.6235-1.0674-1.0509-2.2586-1.5808-2.6574-1.1843l-15.705 15.618z" stroke="#000" stroke-width=".55533" fill="url(#be)"/>
  <path opacity=".8" stroke-linejoin="round" d="m99.153 82.3c0.43282-0.32935 1.5837 0.20459 2.6183 1.2232 1.0321 1.0162 1.5508 2.1285 1.225 2.5608-0.001 0.0017 0.0254 0.02217 0.0242 0.0238l1.9167-1.9059 0.0391-0.0389c0.001-0.0017-0.0254-0.02215-0.0242-0.0238 0.32575-0.43223-0.19292-1.5446-1.225-2.5608-1.0346-1.0186-2.1854-1.5525-2.6183-1.2232l-0.04 0.039-1.917 1.906z" stroke="#dd78c5" stroke-width=".55533" fill="#ff9de8"/>
  <path opacity=".6" d="m85.365 96.011c0.43282-0.32935 1.5837 0.20459 2.6183 1.2232 1.0321 1.0162 1.5508 2.1286 1.225 2.5608-0.0012 0.0017 0.02544 0.02217 0.02417 0.0238l10.816-10.755 0.0391-0.0389c0.001-0.0017-0.0254-0.02216-0.0242-0.0238 0.32575-0.43223-0.19293-1.5446-1.225-2.5608-1.0346-1.0186-2.1854-1.5525-2.6183-1.2232l-0.03911 0.0389-10.816 10.755z"/>
  <path fill="url(#bf)" d="m97.005 84.436c0.43282-0.32935 1.5837 0.20459 2.6183 1.2232 1.0321 1.0162 1.5508 2.1286 1.225 2.5608-0.001 0.0017 0.0254 0.02217 0.0242 0.0238l0.19558-0.19448c0.001-0.0017-0.0254-0.02215-0.0242-0.0238 0.32575-0.43222-0.19292-1.5446-1.225-2.5608-1.0346-1.0186-2.1854-1.5525-2.6183-1.2232l-0.197 0.194z"/>
  <path fill="url(#bg)" d="m96.826 84.614c0.43282-0.32935 1.5837 0.20459 2.6183 1.2232 1.0321 1.0162 1.5508 2.1285 1.225 2.5608-0.001 0.0017 0.0254 0.02217 0.0242 0.0238l0.19558-0.19448c0.001-0.0017-0.0254-0.02215-0.0242-0.0238 0.32575-0.43222-0.19292-1.5446-1.225-2.5608-1.0346-1.0186-2.1854-1.5525-2.6183-1.2232l-0.196 0.194z"/>
  <path fill="url(#bh)" d="m97.628 83.817c0.43282-0.32935 1.5837 0.20459 2.6183 1.2232 1.0321 1.0162 1.5508 2.1286 1.225 2.5608-0.001 0.0017 0.0254 0.02217 0.0242 0.0238l0.19558-0.19448c0.001-0.0017-0.0254-0.02215-0.0242-0.0238 0.32575-0.43222-0.19292-1.5446-1.225-2.5608-1.0346-1.0186-2.1854-1.5525-2.6183-1.2232l-0.204 0.194z"/>
  <path fill="url(#bi)" d="m97.448 83.995c0.43282-0.32935 1.5837 0.20459 2.6183 1.2232 1.0321 1.0162 1.5508 2.1286 1.225 2.5608-0.001 0.0017 0.0254 0.02217 0.0242 0.0238l0.19558-0.19448c0.001-0.0017-0.0254-0.02215-0.0242-0.0238 0.32575-0.43222-0.19292-1.5446-1.225-2.5608-1.0346-1.0186-2.1854-1.5525-2.6183-1.2232l-0.204 0.194z"/>
  <path fill="url(#bj)" d="m98.254 83.194c0.43282-0.32935 1.5837 0.20459 2.6183 1.2232 1.0321 1.0162 1.5508 2.1286 1.225 2.5608-0.001 0.0017 0.0254 0.02217 0.0242 0.0238l0.19558-0.19448c0.001-0.0017-0.0254-0.02216-0.0242-0.0238 0.32575-0.43223-0.19292-1.5446-1.225-2.5608-1.0346-1.0186-2.1854-1.5525-2.6183-1.2232l-0.198 0.194z"/>
  <path fill="url(#bk)" d="m98.074 83.372c0.43282-0.32935 1.5837 0.20459 2.6183 1.2232 1.0321 1.0162 1.5508 2.1286 1.225 2.5608-0.001 0.0017 0.0254 0.02217 0.0242 0.0238l0.19558-0.19448c0.001-0.0017-0.0254-0.02216-0.0242-0.0238 0.32575-0.43223-0.19292-1.5446-1.225-2.5608-1.0346-1.0186-2.1854-1.5525-2.6183-1.2232l-0.198 0.194z"/>
  <path d="m82.185 102.91 7.0294-3.0074c0.32575-0.43222-0.20033-1.6548-1.2324-2.671-1.0346-1.0186-2.2398-1.5494-2.6726-1.22l-3.124 6.898z" fill-rule="evenodd" stroke="url(#bm)" stroke-width=".55533" fill="url(#bl)"/>
  <path d="m83.046 101.04-0.86146 1.8612 1.9008-0.83782c-0.14196-0.17111-0.2723-0.3455-0.44432-0.51486-0.19804-0.19498-0.39436-0.35167-0.59506-0.50847z" fill-rule="evenodd" stroke="#000" stroke-width=".55533"/>
 </g>
</svg>
