<svg id="Слой_1" data-name="Слой 1"
  xmlns:cc="http://creativecommons.org/ns#"
  xmlns:rdf="http://www.w3.org/1999/02/22-rdf-syntax-ns#"
  xmlns="http://www.w3.org/2000/svg" viewBox="0 0 26 26">
  <metadata id="metadata43">
    <rdf:RDF>
      <cc:Work rdf:about="">
        <cc:license rdf:resource="http://creativecommons.org/licenses/by/4.0/" />
      </cc:Work>
      <cc:License rdf:about="http://creativecommons.org/licenses/by/4.0/">
        <cc:permits rdf:resource="http://creativecommons.org/ns#Reproduction" />
        <cc:permits rdf:resource="http://creativecommons.org/ns#Distribution" />
        <cc:requires rdf:resource="http://creativecommons.org/ns#Notice" />
        <cc:requires rdf:resource="http://creativecommons.org/ns#Attribution" />
        <cc:permits rdf:resource="http://creativecommons.org/ns#DerivativeWorks" />
      </cc:License>
    </rdf:RDF>
  </metadata>
  <defs>
    <style>.cls-1,.cls-2,.cls-3,.cls-5{fill:none;stroke-linecap:round;stroke-linejoin:round;}.cls-1{stroke:#b9b9b9;}.cls-1,.cls-3,.cls-5{stroke-width:0.75px;}.cls-2{stroke:#545454;}.cls-3{stroke:#1a81c4;}.cls-4{fill:#1a81c4;}.cls-5{stroke:#e61c50;}.cls-6{fill:#e61c50;}.cls-7{fill:#fff;}.cls-8{fill:#545454;}</style>
  </defs>
  <title>icon_3d</title>
  <line class="cls-1" x1="13.0005" y1="8.5414" x2="12.9998" y2="9.5414"/>
  <polyline class="cls-1" points="12.998 12.289 12.997 13.289 13.911 13.693"/>
  <line class="cls-1" x1="16.1567" y1="14.686" x2="17.0713" y2="15.0905"/>
  <line class="cls-1" x1="8.9287" y1="15.0905" x2="9.8431" y2="14.6855"/>
  <line class="cls-1" x1="12.0825" y1="13.6938" x2="12.9968" y2="13.2889"/>
  <polyline class="cls-2" points="17.071 10.923 17.071 15.09 13 17.459 12.999 17.459 8.929 15.09 8.929 10.923"/>
  <polyline class="cls-2" points="17.071 10.921 13 13.289 12.999 13.289 8.929 10.921"/>
  <polyline class="cls-2" points="8.929 10.91 12.999 8.541 13 8.541 17.071 10.91"/>
  <line class="cls-2" x1="12.9995" y1="13.2889" x2="12.9995" y2="17.4586"/>
  <path class="cls-3" d="M8.4388,7.5308A21.31,21.31,0,0,1,13,7.0516c6.395,0,11.5792,2.6632,11.5792,5.9484S19.395,18.9484,13,18.9484,1.4208,16.2852,1.4208,13c0-1.5251,1.1172-2.9161,2.9541-3.9689l.2922-.1332"/>
  <polygon class="cls-4" points="4.864 10.45 6.644 8.047 3.672 7.706 4.864 10.45"/>
  <path class="cls-5" d="M18.5379,8.7644A21.4853,21.4853,0,0,1,18.9484,13c0,6.395-2.6632,11.5792-5.9484,11.5792S7.0516,19.395,7.0516,13,9.7148,1.4208,13,1.4208c1.5251,0,2.9161,1.1172,3.9689,2.9541l.1332.2922"/>
  <polygon class="cls-6" points="15.55 4.864 17.953 6.644 18.294 3.672 15.55 4.864"/>
  <polygon class="cls-7" points="25.037 10.362 17.435 10.362 16.608 9.746 16.608 6.772 25.037 6.772 25.037 10.362"/>
  <path class="cls-8" d="M17.667,8.2677h.3291a.4218.4218,0,0,0,.331-.1143.4715.4715,0,0,0,.1016-.3232.435.435,0,0,0-.1094-.3174.4259.4259,0,0,0-.3213-.1123.4507.4507,0,0,0-.3144.11.3726.3726,0,0,0-.1221.29h-.4561l-.0039-.0117a.6659.6659,0,0,1,.2432-.5479.9491.9491,0,0,1,.6475-.2217.9864.9864,0,0,1,.6621.211.7453.7453,0,0,1,.248.6.6329.6329,0,0,1-.1113.3515.7269.7269,0,0,1-.3154.2637.6764.6764,0,0,1,.3554.2617.719.719,0,0,1,.1143.4.7574.7574,0,0,1-.2686.6143,1.1528,1.1528,0,0,1-1.3457.0136.6674.6674,0,0,1-.2558-.581l.0039-.0117h.4551a.3981.3981,0,0,0,.1269.3056.48.48,0,0,0,.3369.1162.4868.4868,0,0,0,.3467-.1191.4373.4373,0,0,0,.127-.3369.4768.4768,0,0,0-.1163-.3535.4942.4942,0,0,0-.3593-.1143H17.667Z"/>
  <path class="cls-8" d="M20.5,7.02a1.3047,1.3047,0,0,1,.292.0323,1.1667,1.1667,0,0,1,.2509.0839l-.09.3643a1.4245,1.4245,0,0,0-.2119-.0732.9729.9729,0,0,0-.2393-.0264.5512.5512,0,0,0-.457.2207.9437.9437,0,0,0-.1728.5957v.0137a.847.847,0,0,1,.2714-.1661.9587.9587,0,0,1,.3409-.0585.7389.7389,0,0,1,.6005.2666,1.1449,1.1449,0,0,1-.0322,1.3935.8536.8536,0,0,1-.664.2793.9173.9173,0,0,1-.71-.3047A1.2166,1.2166,0,0,1,19.4,8.7892v-.543a1.2521,1.2521,0,0,1,.3134-.8906A1.028,1.028,0,0,1,20.5,7.02Zm-.1328,1.3555a.6651.6651,0,0,0-.3037.0635.4575.4575,0,0,0-.1914.1728v.2022a.9157.9157,0,0,0,.1455.5556.4447.4447,0,0,0,.3711.1953.3719.3719,0,0,0,.3251-.1777A.7673.7673,0,0,0,20.833,8.95a.6562.6562,0,0,0-.125-.415A.41.41,0,0,0,20.3672,8.3751Z"/>
  <path class="cls-8" d="M23.5058,8.8087a1.2664,1.2664,0,0,1-.25.8457.9392.9392,0,0,1-1.3593,0,1.2565,1.2565,0,0,1-.252-.8457v-.65a1.2722,1.2722,0,0,1,.25-.8457.9349.9349,0,0,1,1.3594,0,1.2617,1.2617,0,0,1,.2519.8457Zm-.4736-.7236a.91.91,0,0,0-.1172-.5166.4287.4287,0,0,0-.6806,0,.918.918,0,0,0-.1163.5166v.791a.9119.9119,0,0,0,.1182.52.3909.3909,0,0,0,.3418.1689.3828.3828,0,0,0,.3389-.1679.928.928,0,0,0,.1152-.5205Z"/>
  <path class="cls-8" d="M23.957,7.545a.5126.5126,0,0,1,.1514-.37.4884.4884,0,0,1,.3633-.1553.4789.4789,0,0,1,.3574.1553.5148.5148,0,0,1,.1494.37.499.499,0,0,1-.1494.3653.4852.4852,0,0,1-.3574.15.515.515,0,0,1-.5147-.5156Zm.2715,0a.2318.2318,0,0,0,.07.1729.2413.2413,0,0,0,.1729.0693.2313.2313,0,0,0,.1689-.0684.2347.2347,0,0,0,.0684-.1738.2468.2468,0,0,0-.0684-.1777.2273.2273,0,0,0-.1689-.0723.2361.2361,0,0,0-.1729.0723A.2443.2443,0,0,0,24.2285,7.545Z"/>
</svg>