<?xml version="1.0" encoding="UTF-8" standalone="no"?>
<svg
   xmlns:dc="http://purl.org/dc/elements/1.1/"
   xmlns:cc="http://creativecommons.org/ns#"
   xmlns:rdf="http://www.w3.org/1999/02/22-rdf-syntax-ns#"
   xmlns:svg="http://www.w3.org/2000/svg"
   xmlns="http://www.w3.org/2000/svg"
   xmlns:sodipodi="http://sodipodi.sourceforge.net/DTD/sodipodi-0.dtd"
   xmlns:inkscape="http://www.inkscape.org/namespaces/inkscape"
   id="Слой_1"
   data-name="Слой 1"
   viewBox="0 0 24 24"
   version="1.1"
   sodipodi:docname="icon_cvpcb.svg"
   inkscape:version="1.0.1 (3bc2e813f5, 2020-09-07)">
  <sodipodi:namedview
     pagecolor="#ffffff"
     bordercolor="#666666"
     borderopacity="1"
     objecttolerance="10"
     gridtolerance="10"
     guidetolerance="10"
     inkscape:pageopacity="0"
     inkscape:pageshadow="2"
     inkscape:window-width="1609"
     inkscape:window-height="1286"
     id="namedview30"
     showgrid="true"
     inkscape:zoom="27.961538"
     inkscape:cx="11.942869"
     inkscape:cy="13.603795"
     inkscape:window-x="0"
     inkscape:window-y="37"
     inkscape:window-maximized="0"
     inkscape:document-rotation="0"
     inkscape:current-layer="Слой_1">
    <inkscape:grid
       type="xygrid"
       id="grid_kicad"
       spacingx="0.5"
       spacingy="0.5"
       color="#9999ff"
       opacity="0.13"
       empspacing="2" />
  </sodipodi:namedview>
  <metadata
     id="metadata43">
    <rdf:RDF>
      <cc:Work
         rdf:about="">
        <cc:license
           rdf:resource="http://creativecommons.org/licenses/by-sa/4.0/" />
        <dc:format>image/svg+xml</dc:format>
        <dc:type
           rdf:resource="http://purl.org/dc/dcmitype/StillImage" />
        <dc:title>add_arc</dc:title>
      </cc:Work>
      <cc:License
         rdf:about="http://creativecommons.org/licenses/by-sa/4.0/">
        <cc:permits
           rdf:resource="http://creativecommons.org/ns#Reproduction" />
        <cc:permits
           rdf:resource="http://creativecommons.org/ns#Distribution" />
        <cc:requires
           rdf:resource="http://creativecommons.org/ns#Notice" />
        <cc:requires
           rdf:resource="http://creativecommons.org/ns#Attribution" />
        <cc:permits
           rdf:resource="http://creativecommons.org/ns#DerivativeWorks" />
        <cc:requires
           rdf:resource="http://creativecommons.org/ns#ShareAlike" />
      </cc:License>
    </rdf:RDF>
  </metadata>
  <defs
     id="defs25287">
    <style
       id="style25285">.cls-1{fill:#d8d8d8;}.cls-2{fill:#545454;}.cls-3{fill:#b9b9b9;}.cls-4{fill:#1a81c4;}</style>
  </defs>
  <title
     id="title25289">icon_cvpcb</title>
  <path
     class="cls-1"
     d="m 2.6662,-5e-4 h 10.6666 a 2.6667,2.6667 0 0 1 2.6667,2.6667 v 10.6666 a 2.6667,2.6667 0 0 1 -2.6667,2.6667 H 2.6661 A 2.6666,2.6666 0 0 1 -5e-4,13.3329 V 2.6662 A 2.6667,2.6667 0 0 1 2.6662,-5e-4 Z"
     id="path25291" />
  <path
     class="cls-2"
     d="M 14.4828,7.4247 H 13.28 L 3.7529,1.1328 A 0.58,0.58 0 0 0 2.8522,1.6171 V 3.94 H 1.6905 a 0.5808,0.5808 0 1 0 0,1.1615 h 1.1617 v 5.8077 H 1.6905 a 0.5808,0.5808 0 1 0 0,1.1615 h 1.1617 v 2.323 a 0.58,0.58 0 0 0 0.9007,0.4844 L 13.28,8.5863 h 1.2028 a 0.5808,0.5808 0 1 0 0,-1.1616 z M 4.0138,13.314 V 2.697 l 8.0385,5.3086 z"
     id="path25293" />
  <path
     class="cls-2"
     d="m 5.1545,6.844 h 1.351 a 0.5808,0.5808 0 1 0 0,-1.1615 h -1.351 a 0.5808,0.5808 0 1 0 0,1.1615 z"
     id="path25295" />
  <path
     class="cls-2"
     d="M 6.5288,8.97 V 8.7785 a 0.5808,0.5808 0 0 0 -1.1616,0 V 8.97 H 5.1761 a 0.5808,0.5808 0 1 0 0,1.1615 h 0.1911 v 0.1912 a 0.5808,0.5808 0 0 0 1.1616,0 V 10.1315 H 6.72 a 0.5808,0.5808 0 1 0 0,-1.1615 z"
     id="path25297" />
  <path
     class="cls-3"
     d="m 10.6511,7.9948 h 10.6668 a 2.6666,2.6666 0 0 1 2.6666,2.6666 v 10.6667 a 2.6667,2.6667 0 0 1 -2.6667,2.6667 H 10.6511 A 2.6666,2.6666 0 0 1 7.9845,21.3282 V 10.6614 a 2.6666,2.6666 0 0 1 2.6666,-2.6666 z"
     id="path25299" />
  <path
     class="cls-2"
     d="M 22.0675,20.9009 H 10.3187 a 0.29,0.29 0 0 1 -0.29,-0.29 V 17.7 a 0.2911,0.2911 0 0 1 0.0957,-0.2151 l 0.9175,-0.8264 v -1.0008 l -0.9175,-0.8264 a 0.2911,0.2911 0 0 1 -0.0957,-0.2151 v -2.6168 a 0.29,0.29 0 0 1 0.29,-0.29 h 11.7579 a 0.29,0.29 0 0 1 0.29,0.29 l -0.0091,8.6118 a 0.29,0.29 0 0 1 -0.29,0.2897 z m -11.4589,-0.58 h 11.17 l 0.008,-8.0321 h -11.178 v 2.1979 l 0.9176,0.8264 a 0.2909,0.2909 0 0 1 0.0955,0.2151 v 1.2589 a 0.2906,0.2906 0 0 1 -0.0955,0.2151 l -0.9176,0.8265 z m 0.7234,-3.5338 z"
     id="path25301" />
  <rect
     class="cls-4"
     x="18.169001"
     y="18.8382"
     width="2.533"
     height="3.5462"
     id="rect25303" />
  <rect
     class="cls-4"
     x="11.5897"
     y="18.8382"
     width="2.5332"
     height="3.5462"
     id="rect25305" />
  <rect
     class="cls-4"
     x="14.8782"
     y="18.8382"
     width="2.5329001"
     height="3.5462"
     id="rect25307" />
  <rect
     class="cls-4"
     x="18.169001"
     y="10.226"
     width="2.533"
     height="3.5462"
     id="rect25309" />
  <rect
     class="cls-4"
     x="11.5897"
     y="10.226"
     width="2.5332"
     height="3.5462"
     id="rect25311" />
  <rect
     class="cls-4"
     x="14.8782"
     y="10.226"
     width="2.5329001"
     height="3.5462"
     id="rect25313" />
</svg>
