<?xml version="1.0" encoding="UTF-8" standalone="no"?>
<svg
   xmlns:dc="http://purl.org/dc/elements/1.1/"
   xmlns:cc="http://creativecommons.org/ns#"
   xmlns:rdf="http://www.w3.org/1999/02/22-rdf-syntax-ns#"
   xmlns:svg="http://www.w3.org/2000/svg"
   xmlns="http://www.w3.org/2000/svg"
   xmlns:sodipodi="http://sodipodi.sourceforge.net/DTD/sodipodi-0.dtd"
   xmlns:inkscape="http://www.inkscape.org/namespaces/inkscape"
   height="48"
   width="48"
   version="1.1"
   id="svg2"
   inkscape:version="0.48.3.1 r9886"
   sodipodi:docname="icon_bitmap2component.svg"
   inkscape:export-filename="E:\kicad-launchpad\kicad-bzr\bitmaps_png\icon_bitmap2component.png"
   inkscape:export-xdpi="90"
   inkscape:export-ydpi="90">
  <metadata
     id="metadata347">
    <rdf:RDF>
      <cc:Work
         rdf:about="">
        <dc:format>image/svg+xml</dc:format>
        <dc:type
           rdf:resource="http://purl.org/dc/dcmitype/StillImage" />
        <dc:title></dc:title>
      </cc:Work>
    </rdf:RDF>
  </metadata>
  <sodipodi:namedview
     pagecolor="#ffffff"
     bordercolor="#666666"
     borderopacity="1"
     objecttolerance="10"
     gridtolerance="10"
     guidetolerance="10"
     inkscape:pageopacity="0"
     inkscape:pageshadow="2"
     inkscape:window-width="1600"
     inkscape:window-height="849"
     id="namedview345"
     showgrid="true"
     inkscape:zoom="18.178537"
     inkscape:cx="11.963811"
     inkscape:cy="27.182846"
     inkscape:window-x="0"
     inkscape:window-y="29"
     inkscape:window-maximized="1"
     inkscape:current-layer="svg2"
     inkscape:snap-to-guides="false"
     inkscape:snap-grids="false">
    <inkscape:grid
       type="xygrid"
       id="grid3331"
       empspacing="1"
       visible="true"
       enabled="true"
       snapvisiblegridlinesonly="true" />
  </sodipodi:namedview>
  <defs
     id="defs4">
    <marker
       inkscape:stockid="Arrow2Mend"
       orient="auto"
       refY="0.0"
       refX="0.0"
       id="Arrow2Mend"
       style="overflow:visible;">
      <path
         id="path4630"
         style="fill-rule:evenodd;stroke-width:0.62500000;stroke-linejoin:round;"
         d="M 8.7185878,4.0337352 L -2.2072895,0.016013256 L 8.7185884,-4.0017078 C 6.9730900,-1.6296469 6.9831476,1.6157441 8.7185878,4.0337352 z "
         transform="scale(0.6) rotate(180) translate(0,0)" />
    </marker>
    <marker
       inkscape:stockid="Arrow2Mstart"
       orient="auto"
       refY="0.0"
       refX="0.0"
       id="Arrow2Mstart"
       style="overflow:visible">
      <path
         id="path4627"
         style="fill-rule:evenodd;stroke-width:0.62500000;stroke-linejoin:round"
         d="M 8.7185878,4.0337352 L -2.2072895,0.016013256 L 8.7185884,-4.0017078 C 6.9730900,-1.6296469 6.9831476,1.6157441 8.7185878,4.0337352 z "
         transform="scale(0.6) translate(0,0)" />
    </marker>
    <marker
       inkscape:stockid="Arrow2Mstart"
       orient="auto"
       refY="0"
       refX="0"
       id="Arrow2Mstart-1"
       style="overflow:visible">
      <path
         inkscape:connector-curvature="0"
         id="path4627-3"
         style="fill-rule:evenodd;stroke-width:0.625;stroke-linejoin:round"
         d="M 8.7185878,4.0337352 -2.2072895,0.01601326 8.7185884,-4.0017078 c -1.7454984,2.3720609 -1.7354408,5.6174519 -6e-7,8.035443 z"
         transform="scale(0.6,0.6)" />
    </marker>
    <marker
       inkscape:stockid="Arrow2Mend"
       orient="auto"
       refY="0"
       refX="0"
       id="Arrow2Mend-2"
       style="overflow:visible">
      <path
         inkscape:connector-curvature="0"
         id="path4630-7"
         style="fill-rule:evenodd;stroke-width:0.625;stroke-linejoin:round"
         d="M 8.7185878,4.0337352 -2.2072895,0.01601326 8.7185884,-4.0017078 c -1.7454984,2.3720609 -1.7354408,5.6174519 -6e-7,8.035443 z"
         transform="scale(-0.6,-0.6)" />
    </marker>
  </defs>
  <rect
     style="fill:#ffffff;fill-opacity:1;stroke:none"
     id="rect3302"
     width="38.947025"
     height="38.947029"
     x="-2.5209514e-08"
     y="9.0529709"
     ry="2.8881564"
     rx="2.9705353" />
  <g
     transform="scale(0.97123869,1.029613)"
     style="font-size:61.97896957px;font-style:normal;font-weight:normal;line-height:125%;letter-spacing:0px;word-spacing:0px;fill:#00a300;fill-opacity:1;stroke:none;font-family:Sans"
     id="text3327">
    <path
       d="m 20.91299,29.527713 c -2.703528,1.5e-5 -4.751333,0.423699 -6.143423,1.271053 -1.371944,0.827206 -2.057908,2.057907 -2.057896,3.692106 -1.2e-5,1.230712 0.403496,2.199132 1.210527,2.905265 0.827179,0.706147 1.957003,1.059217 3.389475,1.05921 2.21928,7e-6 4.075419,-0.665782 5.568423,-1.997369 1.492959,-1.351745 2.491642,-3.248235 2.996053,-5.689475 l 0.242106,-1.24079 -5.205265,0 m 16.917111,-4.085528 -3.782896,19.338165 -10.834214,0 0.907895,-5.023686 c -1.775461,2.017547 -3.651776,3.510529 -5.62895,4.478949 -1.977209,0.948245 -4.125892,1.422368 -6.446055,1.422369 -3.2079039,-10e-7 -5.7600952,-0.827194 -7.6565814,-2.48158 -1.8763184,-1.674559 -2.8144757,-3.924119 -2.8144747,-6.748687 -1e-6,-4.317533 1.6644716,-7.616215 4.9934229,-9.896056 3.3491146,-2.29998 8.1710412,-3.44998 14.4657942,-3.450001 l 6.385529,0 0.121053,-0.847369 c 0.0605,-0.282433 0.09076,-0.484188 0.09079,-0.605263 0.02015,-0.12103 0.03024,-0.231995 0.03026,-0.332895 -2.7e-5,-1.331555 -0.635553,-2.330238 -1.906579,-2.996054 -1.250902,-0.685938 -3.117129,-1.02892 -5.598686,-1.028948 -2.239492,2.8e-5 -4.408351,0.232045 -6.506582,0.696053 -2.098257,0.464062 -4.1258874,1.160114 -6.0828967,2.088159 l 1.6342112,-8.261845 c 2.2596385,-0.564879 4.5697255,-0.988563 6.9302655,-1.271053 2.380685,-0.302597 4.842087,-0.453913 7.384213,-0.453948 5.023658,3.5e-5 8.756112,0.867578 11.197373,2.602633 2.441192,1.714943 3.661805,4.337748 3.661843,7.868424 -3.8e-5,0.685988 -0.05048,1.442567 -0.151316,2.269737 -0.08074,0.807039 -0.211879,1.68467 -0.393421,2.632896"
       style="font-style:italic;font-variant:normal;font-weight:bold;font-stretch:normal;text-align:start;line-height:125%;writing-mode:lr-tb;text-anchor:start;fill:#00a300;font-family:Sans;-inkscape-font-specification:Sans Bold Italic"
       id="path3302" />
  </g>
  <g
     id="g4585"
     transform="matrix(1.011705,0,0,1,-0.00570879,0)"
     style="stroke:#cccccc">
    <path
       inkscape:connector-curvature="0"
       id="path3333-6"
       d="m 0.98772317,30.533269 36.59759283,0 0,0"
       style="fill:none;stroke:#cccccc;stroke-width:1;stroke-linecap:butt;stroke-linejoin:miter;stroke-miterlimit:4;stroke-opacity:1;stroke-dasharray:none" />
    <path
       inkscape:connector-curvature="0"
       id="path3333-33"
       d="m 0.98772317,34.538333 36.59759283,0 0,0"
       style="fill:none;stroke:#cccccc;stroke-width:1;stroke-linecap:butt;stroke-linejoin:miter;stroke-miterlimit:4;stroke-opacity:1;stroke-dasharray:none" />
    <path
       inkscape:connector-curvature="0"
       id="path3333-7"
       d="m 0.98772317,38.543396 36.59759283,0 0,0"
       style="fill:none;stroke:#cccccc;stroke-width:1;stroke-linecap:butt;stroke-linejoin:miter;stroke-miterlimit:4;stroke-opacity:1;stroke-dasharray:none" />
    <path
       inkscape:connector-curvature="0"
       id="path3333-79"
       d="m 0.98772317,42.548457 36.59759383,0 0,0"
       style="fill:none;stroke:#cccccc;stroke-width:1;stroke-linecap:butt;stroke-linejoin:miter;stroke-miterlimit:4;stroke-opacity:1;stroke-dasharray:none" />
    <path
       inkscape:connector-curvature="0"
       id="path3333-31-7"
       d="m 0.98772317,10.507956 36.59759283,0 0,0"
       style="fill:none;stroke:#cccccc;stroke-width:1;stroke-linecap:butt;stroke-linejoin:miter;stroke-miterlimit:4;stroke-opacity:1;stroke-dasharray:none" />
    <path
       inkscape:connector-curvature="0"
       id="path3333-8-1"
       d="m 0.98772317,14.513019 36.59759283,0 0,0"
       style="fill:none;stroke:#cccccc;stroke-width:1;stroke-linecap:butt;stroke-linejoin:miter;stroke-miterlimit:4;stroke-opacity:1;stroke-dasharray:none" />
    <path
       inkscape:connector-curvature="0"
       id="path3333-33-0"
       d="m 0.98772317,18.518083 36.59759283,0 0,0"
       style="fill:none;stroke:#cccccc;stroke-width:1;stroke-linecap:butt;stroke-linejoin:miter;stroke-miterlimit:4;stroke-opacity:1;stroke-dasharray:none" />
    <path
       inkscape:connector-curvature="0"
       id="path3333-32-1"
       d="m 0.98772317,22.523144 36.59759383,0 0,0"
       style="fill:none;stroke:#cccccc;stroke-width:1;stroke-linecap:butt;stroke-linejoin:miter;stroke-miterlimit:4;stroke-opacity:1;stroke-dasharray:none" />
    <path
       inkscape:connector-curvature="0"
       id="path3333-4-6"
       d="m 0.98772317,26.528205 36.59759283,0 0,0"
       style="fill:none;stroke:#cccccc;stroke-width:1;stroke-linecap:butt;stroke-linejoin:miter;stroke-miterlimit:4;stroke-opacity:1;stroke-dasharray:none" />
    <path
       inkscape:connector-curvature="0"
       id="path3333-79-6"
       d="m 0.98772317,46.553519 36.59759283,0 0,0"
       style="fill:none;stroke:#cccccc;stroke-width:1;stroke-linecap:butt;stroke-linejoin:miter;stroke-miterlimit:4;stroke-opacity:1;stroke-dasharray:none" />
  </g>
  <g
     id="g4563"
     transform="matrix(1,0,0,0.99268819,-0.08251488,0.07386002)"
     style="stroke:#cccccc">
    <path
       inkscape:connector-curvature="0"
       id="path3333-79-6-7"
       d="m 9.5832994,10.601471 0,36.617177 0,0"
       style="fill:none;stroke:#cccccc;stroke-width:1;stroke-linecap:butt;stroke-linejoin:miter;stroke-miterlimit:4;stroke-opacity:1;stroke-dasharray:none" />
    <path
       inkscape:connector-curvature="0"
       id="path3333-79-6-7-4"
       d="m 5.5802244,10.601471 0,36.617177 0,0"
       style="fill:none;stroke:#cccccc;stroke-width:1;stroke-linecap:butt;stroke-linejoin:miter;stroke-miterlimit:4;stroke-opacity:1;stroke-dasharray:none" />
    <path
       inkscape:connector-curvature="0"
       id="path3333-79-6-7-7"
       d="m 1.5771496,10.601471 0,36.617177 0,0"
       style="fill:none;stroke:#cccccc;stroke-width:1;stroke-linecap:butt;stroke-linejoin:miter;stroke-miterlimit:4;stroke-opacity:1;stroke-dasharray:none" />
    <path
       inkscape:connector-curvature="0"
       id="path3333-79-6-7-6"
       d="m 17.589451,10.601471 0,36.617177 0,0"
       style="fill:none;stroke:#cccccc;stroke-width:1;stroke-linecap:butt;stroke-linejoin:miter;stroke-miterlimit:4;stroke-opacity:1;stroke-dasharray:none" />
    <path
       inkscape:connector-curvature="0"
       id="path3333-79-6-7-46"
       d="m 21.592522,10.601471 0,36.617177 0,0"
       style="fill:none;stroke:#cccccc;stroke-width:1;stroke-linecap:butt;stroke-linejoin:miter;stroke-miterlimit:4;stroke-opacity:1;stroke-dasharray:none" />
    <path
       inkscape:connector-curvature="0"
       id="path3333-79-6-7-9"
       d="m 25.595599,10.601471 0,36.617177 0,0"
       style="fill:none;stroke:#cccccc;stroke-width:1;stroke-linecap:butt;stroke-linejoin:miter;stroke-miterlimit:4;stroke-opacity:1;stroke-dasharray:none" />
    <path
       inkscape:connector-curvature="0"
       id="path3333-79-6-7-5"
       d="m 29.598674,10.60147 0,36.617178 0,0"
       style="fill:none;stroke:#cccccc;stroke-width:1;stroke-linecap:butt;stroke-linejoin:miter;stroke-miterlimit:4;stroke-opacity:1;stroke-dasharray:none" />
    <path
       inkscape:connector-curvature="0"
       id="path3333-79-6-7-8"
       d="m 33.60175,10.601471 0,36.617177 0,0"
       style="fill:none;stroke:#cccccc;stroke-width:1;stroke-linecap:butt;stroke-linejoin:miter;stroke-miterlimit:4;stroke-opacity:1;stroke-dasharray:none" />
    <path
       inkscape:connector-curvature="0"
       id="path3333-79-6-7-66"
       d="m 37.604823,10.60147 0,36.617178 0,0"
       style="fill:none;stroke:#cccccc;stroke-width:1;stroke-linecap:butt;stroke-linejoin:miter;stroke-miterlimit:4;stroke-opacity:1;stroke-dasharray:none" />
    <path
       inkscape:connector-curvature="0"
       id="path3333-79-6-7-56"
       d="m 13.586375,10.601471 0,36.617177 0,0"
       style="fill:none;stroke:#cccccc;stroke-width:1;stroke-linecap:butt;stroke-linejoin:miter;stroke-miterlimit:4;stroke-opacity:1;stroke-dasharray:none" />
  </g>
  <path
     style="fill:#b8b8b8;stroke:#333333;stroke-width:0;stroke-linecap:butt;stroke-linejoin:miter;stroke-opacity:1;fill-opacity:1;marker-start:url(#Arrow2Mstart);marker-mid:none;marker-end:url(#Arrow2Mend);stroke-miterlimit:4;stroke-dasharray:none"
     d="M 1.2102184,4.9822364 37.736811,5.0922563"
     id="path4597"
     inkscape:connector-curvature="0" />
  <path
     style="fill:none;stroke:#000000;stroke-width:1.3;stroke-linecap:butt;stroke-linejoin:bevel;stroke-opacity:1;marker-start:url(#Arrow2Mstart-1);marker-end:url(#Arrow2Mend-2);opacity:0.52282158000000001;stroke-miterlimit:10.10000038;stroke-dasharray:none;marker-mid:none;fill-opacity:1"
     d="m 2.2361273,3.4969686 34.4747737,0"
     id="path5825"
     inkscape:connector-curvature="0" />
  <path
     style="fill:none;stroke:#000000;stroke-width:1.3;stroke-linecap:butt;stroke-linejoin:miter;stroke-opacity:1;marker-start:url(#Arrow2Mstart-1);marker-end:url(#Arrow2Mend-2);opacity:0.52282158000000001;stroke-miterlimit:4;stroke-dasharray:none"
     d="m 43.515145,11.302266 0,34.474774"
     id="path5825-1"
     inkscape:connector-curvature="0" />
</svg>
