<svg id="Слой_1" data-name="Слой 1"
  xmlns:dc="http://purl.org/dc/elements/1.1/"
  xmlns:cc="http://creativecommons.org/ns#"
  xmlns:rdf="http://www.w3.org/1999/02/22-rdf-syntax-ns#"
  xmlns="http://www.w3.org/2000/svg" viewBox="0 0 26 26">
  <metadata id="metadata43">
    <rdf:RDF>
      <cc:Work rdf:about="">
        <cc:license rdf:resource="http://creativecommons.org/licenses/by-sa/4.0/" />
        <dc:format>image/svg+xml</dc:format>
        <dc:type rdf:resource="http://purl.org/dc/dcmitype/StillImage" />
        <dc:title>add_arc</dc:title>
      </cc:Work>
      <cc:License rdf:about="http://creativecommons.org/licenses/by-sa/4.0/">
        <cc:permits rdf:resource="http://creativecommons.org/ns#Reproduction" />
        <cc:permits rdf:resource="http://creativecommons.org/ns#Distribution" />
        <cc:requires rdf:resource="http://creativecommons.org/ns#Notice" />
        <cc:requires rdf:resource="http://creativecommons.org/ns#Attribution" />
        <cc:permits rdf:resource="http://creativecommons.org/ns#DerivativeWorks" />
        <cc:requires rdf:resource="http://creativecommons.org/ns#ShareAlike" />
      </cc:License>
    </rdf:RDF>
  </metadata>
  <defs>
    <style>.cls-1{fill:#545454;}.cls-2{fill:#b9b9b9;}.cls-3{fill:#1a81c4;}</style>
  </defs>
  <title>icon_gerbview</title>
  <rect class="cls-1" x="1.001" y="0.9962" width="24.0111" height="24.0078" rx="4.0015"/>
  <path class="cls-2" d="M9.9763,10.2948H5.58L1.006,5.722l0-.6391s.0023-.3825.0169-.5089c.0154-.1331.1052-.5257.1052-.5257L6.1064,9.0251h3.87Z"/>
  <rect class="cls-2" x="9.4083" y="8.3886" width="4.0972" height="2.4574"/>
  <rect class="cls-2" x="9.4083" y="13.7145" width="4.0972" height="2.4574"/>
  <rect class="cls-2" x="9.4083" y="19.0403" width="4.0972" height="2.4576"/>
  <rect class="cls-2" x="18.9624" y="20.3583" width="4.0972" height="2.4574"/>
  <rect class="cls-2" x="18.9624" y="14.2199" width="4.0972" height="2.4574"/>
  <rect class="cls-2" x="18.9624" y="8.0814" width="4.0972" height="2.4574"/>
  <rect class="cls-2" x="18.9624" y="2.9534" width="4.0972" height="2.4574"/>
  <path class="cls-2" d="M9.9763,4.9419H5.58L2.5074,1.87s.381-.28.5179-.3578A4.2493,4.2493,0,0,1,3.6628,1.23L6.1064,3.6722h3.87Z"/>
  <rect class="cls-2" x="9.4083" y="3.0626" width="4.0972" height="2.4576"/>
  <polygon class="cls-2" points="19.031 22.247 17.348 22.247 15.965 20.864 15.965 13.051 17.235 13.051 17.235 20.338 17.874 20.977 19.031 20.977 19.031 22.247"/>
  <rect class="cls-2" x="15.9649" y="0.9948" width="1.2702" height="9.4761"/>
  <rect class="cls-2" x="22.9371" y="14.874" width="2.0759" height="1.2697"/>
  <polygon class="cls-2" points="5.15 25.007 4.593 25.007 3.88 24.832 3.88 22.246 6.521 19.606 9.463 19.606 9.463 20.875 7.046 20.875 5.15 22.771 5.15 25.007"/>
  <rect class="cls-2" x="5.5617" y="14.2863" width="3.8602" height="1.2697"/>
  <path class="cls-3" d="M18.5937,11.7613a2.0009,2.0009,0,1,1-2.0008-2.0007A2.0007,2.0007,0,0,1,18.5937,11.7613Z"/>
  <path class="cls-2" d="M18.0175,11.7613a1.4248,1.4248,0,1,1-1.4246-1.4246A1.4245,1.4245,0,0,1,18.0175,11.7613Z"/>
  <path class="cls-3" d="M6.2724,14.9207A2.0009,2.0009,0,1,1,4.2715,12.92,2.0009,2.0009,0,0,1,6.2724,14.9207Z"/>
  <path class="cls-2" d="M5.6961,14.9207a1.4248,1.4248,0,1,1-1.4246-1.4246A1.4245,1.4245,0,0,1,5.6961,14.9207Z"/>
</svg>