<svg id="Слой_1" data-name="Слой 1"
  xmlns:dc="http://purl.org/dc/elements/1.1/"
  xmlns:cc="http://creativecommons.org/ns#"
  xmlns:rdf="http://www.w3.org/1999/02/22-rdf-syntax-ns#"
  xmlns="http://www.w3.org/2000/svg" viewBox="0 0 26 26">
  <metadata id="metadata43">
    <rdf:RDF>
      <cc:Work rdf:about="">
        <cc:license rdf:resource="http://creativecommons.org/licenses/by-sa/4.0/" />
        <dc:format>image/svg+xml</dc:format>
        <dc:type rdf:resource="http://purl.org/dc/dcmitype/StillImage" />
        <dc:title>add_arc</dc:title>
      </cc:Work>
      <cc:License rdf:about="http://creativecommons.org/licenses/by-sa/4.0/">
        <cc:permits rdf:resource="http://creativecommons.org/ns#Reproduction" />
        <cc:permits rdf:resource="http://creativecommons.org/ns#Distribution" />
        <cc:requires rdf:resource="http://creativecommons.org/ns#Notice" />
        <cc:requires rdf:resource="http://creativecommons.org/ns#Attribution" />
        <cc:permits rdf:resource="http://creativecommons.org/ns#DerivativeWorks" />
        <cc:requires rdf:resource="http://creativecommons.org/ns#ShareAlike" />
      </cc:License>
    </rdf:RDF>
  </metadata>
  <defs>
    <style>.cls-1{fill:none;stroke:#545454;stroke-linecap:round;stroke-linejoin:round;}.cls-2{fill:#1a81c4;}.cls-3{fill:#e61c50;}.cls-4{fill:#f5f5f5;}</style>
  </defs>
  <title>icon</title>
  <polygon class="cls-1" points="3.239 12.318 1.491 13.892 1.491 18.914 21.472 18.914 21.487 4.058 1.491 4.058 1.491 8.573 3.239 10.147 3.239 12.318"/>
  <rect class="cls-2" x="15.0323" y="15.8554" width="4.3692" height="6.117"/>
  <rect class="cls-2" x="3.6837" y="15.8554" width="4.3693" height="6.117"/>
  <rect class="cls-2" x="9.3559" y="15.8554" width="4.3692" height="6.117"/>
  <rect class="cls-2" x="15.0323" y="1" width="4.3692" height="6.1169"/>
  <rect class="cls-2" x="3.6837" y="1" width="4.3693" height="6.1169"/>
  <rect class="cls-2" x="9.3559" y="1" width="4.3692" height="6.1169"/>
  <ellipse class="cls-3" cx="18" cy="18.0087" rx="7.0066" ry="7"/>
  <path class="cls-4" d="M23.6757,18.0087S21.1346,21.091,18,21.091s-5.6757-3.0823-5.6757-3.0823S14.8654,14.9263,18,14.9263,23.6757,18.0087,23.6757,18.0087Z"/>
  <circle class="cls-3" cx="18" cy="18.0087" r="2.1"/>
  <path class="cls-4" d="M18.97,18.0087a.97.97,0,1,1-.97-.97A.97.97,0,0,1,18.97,18.0087Z"/>
</svg>