<svg id="Слой_1" data-name="Слой 1"
  xmlns:cc="http://creativecommons.org/ns#"
  xmlns:rdf="http://www.w3.org/1999/02/22-rdf-syntax-ns#"
  xmlns="http://www.w3.org/2000/svg" viewBox="0 0 26 26">
  <metadata id="metadata43">
    <rdf:RDF>
      <cc:Work rdf:about="">
        <cc:license rdf:resource="http://creativecommons.org/licenses/by/4.0/" />
      </cc:Work>
      <cc:License rdf:about="http://creativecommons.org/licenses/by/4.0/">
        <cc:permits rdf:resource="http://creativecommons.org/ns#Reproduction" />
        <cc:permits rdf:resource="http://creativecommons.org/ns#Distribution" />
        <cc:requires rdf:resource="http://creativecommons.org/ns#Notice" />
        <cc:requires rdf:resource="http://creativecommons.org/ns#Attribution" />
        <cc:permits rdf:resource="http://creativecommons.org/ns#DerivativeWorks" />
      </cc:License>
    </rdf:RDF>
  </metadata>
  <defs>
    <style>.cls-1{fill:#b9b9b9;}.cls-2{fill:#545454;}</style>
  </defs>
  <title>icon_libedit</title>
  <path class="cls-1" d="M5.0009,1h16a4,4,0,0,1,4,4v16a4,4,0,0,1-4,4H5.001a4,4,0,0,1-4-4v-16A4,4,0,0,1,5.0009,1Z"/>
  <path class="cls-2" d="M22.0343,12.18H20.3355L6.8787,3.2916a.82.82,0,0,0-1.2722.6842V7.2573H3.9656a.82.82,0,0,0,0,1.6408H5.6065v8.204H3.9656a.82.82,0,0,0,0,1.6407H5.6065v3.2815a.82.82,0,0,0,1.2722.6843l13.4568-8.8881h1.6988a.82.82,0,0,0,0-1.6409ZM7.2472,20.4989V5.5012L18.6012,13Z"/>
  <path class="cls-2" d="M8.8584,11.3593h1.9082a.82.82,0,1,0,0-1.6408H8.8584a.82.82,0,0,0,0,1.6408Z"/>
  <path class="cls-2" d="M10.8,14.3629V14.092a.82.82,0,1,0-1.6408,0v.2709h-.27a.82.82,0,0,0,0,1.6406h.27v.27a.82.82,0,1,0,1.6408,0v-.27h.27a.82.82,0,1,0,0-1.6406Z"/>
</svg>