<svg id="Слой_1" data-name="Слой 1"
  xmlns:dc="http://purl.org/dc/elements/1.1/"
  xmlns:cc="http://creativecommons.org/ns#"
  xmlns:rdf="http://www.w3.org/1999/02/22-rdf-syntax-ns#"
  xmlns="http://www.w3.org/2000/svg" viewBox="0 0 26 26">
  <metadata id="metadata43">
    <rdf:RDF>
      <cc:Work rdf:about="">
        <cc:license rdf:resource="http://creativecommons.org/licenses/by-sa/4.0/" />
        <dc:format>image/svg+xml</dc:format>
        <dc:type rdf:resource="http://purl.org/dc/dcmitype/StillImage" />
        <dc:title>add_arc</dc:title>
      </cc:Work>
      <cc:License rdf:about="http://creativecommons.org/licenses/by-sa/4.0/">
        <cc:permits rdf:resource="http://creativecommons.org/ns#Reproduction" />
        <cc:permits rdf:resource="http://creativecommons.org/ns#Distribution" />
        <cc:requires rdf:resource="http://creativecommons.org/ns#Notice" />
        <cc:requires rdf:resource="http://creativecommons.org/ns#Attribution" />
        <cc:permits rdf:resource="http://creativecommons.org/ns#DerivativeWorks" />
        <cc:requires rdf:resource="http://creativecommons.org/ns#ShareAlike" />
      </cc:License>
    </rdf:RDF>
  </metadata>
  <defs>
    <style>.cls-1{fill:#b9b9b9;}.cls-2{fill:#545454;}.cls-3{fill:#1a81c4;}</style>
  </defs>
  <title>icon_modedit</title>
  <path class="cls-1" d="M5.0009,1h16a4,4,0,0,1,4,4v16a4,4,0,0,1-4,4H5.001a4,4,0,0,1-4-4v-16A4,4,0,0,1,5.0009,1Z"/>
  <path class="cls-2" d="M21.1463,19.3781H4.841a.402.402,0,0,1-.4022-.4022v-4.04a.4037.4037,0,0,1,.1328-.2985L5.845,13.49V12.1014L4.5716,10.9545a.4039.4039,0,0,1-.1328-.2986V7.0243a.402.402,0,0,1,.4022-.4022H21.1589a.4024.4024,0,0,1,.4023.4029l-.0127,11.9518A.4017.4017,0,0,1,21.1463,19.3781ZM5.2432,18.5737H20.7449L20.756,7.4265H5.2432v3.05l1.2736,1.1469a.4037.4037,0,0,1,.1326.2986v1.7471a.4033.4033,0,0,1-.1326.2985L5.2432,15.115Zm1.0041-4.9043h0Z"/>
  <rect class="cls-3" x="15.7359" y="16.5154" width="3.5154" height="4.9215"/>
  <rect class="cls-3" x="6.605" y="16.5154" width="3.5155" height="4.9215"/>
  <rect class="cls-3" x="11.1689" y="16.5154" width="3.5152" height="4.9215"/>
  <rect class="cls-3" x="15.7359" y="4.5631" width="3.5154" height="4.9215"/>
  <rect class="cls-3" x="6.605" y="4.5631" width="3.5155" height="4.9215"/>
  <rect class="cls-3" x="11.1689" y="4.5631" width="3.5152" height="4.9215"/>
</svg>