<?xml version="1.0" encoding="UTF-8" standalone="no"?>
<svg
   xmlns:dc="http://purl.org/dc/elements/1.1/"
   xmlns:cc="http://creativecommons.org/ns#"
   xmlns:rdf="http://www.w3.org/1999/02/22-rdf-syntax-ns#"
   xmlns:svg="http://www.w3.org/2000/svg"
   xmlns="http://www.w3.org/2000/svg"
   xmlns:sodipodi="http://sodipodi.sourceforge.net/DTD/sodipodi-0.dtd"
   xmlns:inkscape="http://www.inkscape.org/namespaces/inkscape"
   id="Слой_1"
   data-name="Слой 1"
   viewBox="0 0 48 48"
   version="1.1"
   sodipodi:docname="icon_gerbview.svg"
   width="48"
   height="48"
   inkscape:version="1.0.1 (3bc2e813f5, 2020-09-07)">
  <sodipodi:namedview
     pagecolor="#ffffff"
     bordercolor="#666666"
     borderopacity="1"
     objecttolerance="10"
     gridtolerance="10"
     guidetolerance="10"
     inkscape:pageopacity="0"
     inkscape:pageshadow="2"
     inkscape:window-width="3840"
     inkscape:window-height="2099"
     id="namedview1713"
     showgrid="true"
     inkscape:zoom="32"
     inkscape:cx="-7.7160341"
     inkscape:cy="24.685697"
     inkscape:window-x="0"
     inkscape:window-y="37"
     inkscape:window-maximized="1"
     inkscape:current-layer="g953"
     inkscape:document-rotation="0">
    <inkscape:grid
       type="xygrid"
       id="grid2276"
       spacingx="0.5"
       spacingy="0.5"
       empspacing="2"
       color="#9090ff"
       opacity="0.1254902" />
  </sodipodi:namedview>
  <metadata
     id="metadata43">
    <rdf:RDF>
      <cc:Work
         rdf:about="">
        <cc:license
           rdf:resource="http://creativecommons.org/licenses/by-sa/4.0/" />
        <dc:format>image/svg+xml</dc:format>
        <dc:type
           rdf:resource="http://purl.org/dc/dcmitype/StillImage" />
        <dc:title>add_arc</dc:title>
      </cc:Work>
      <cc:License
         rdf:about="http://creativecommons.org/licenses/by-sa/4.0/">
        <cc:permits
           rdf:resource="http://creativecommons.org/ns#Reproduction" />
        <cc:permits
           rdf:resource="http://creativecommons.org/ns#Distribution" />
        <cc:requires
           rdf:resource="http://creativecommons.org/ns#Notice" />
        <cc:requires
           rdf:resource="http://creativecommons.org/ns#Attribution" />
        <cc:permits
           rdf:resource="http://creativecommons.org/ns#DerivativeWorks" />
        <cc:requires
           rdf:resource="http://creativecommons.org/ns#ShareAlike" />
      </cc:License>
    </rdf:RDF>
  </metadata>
  <defs
     id="defs1668">
    <style
       id="style1666">.cls-1{fill:#545454;}.cls-2{fill:#b9b9b9;}.cls-3{fill:#1a81c4;}</style>
    <clipPath
       clipPathUnits="userSpaceOnUse"
       id="clipPath955">
      <rect
         class="cls-1"
         x="0"
         y="0"
         width="48"
         height="47.997318"
         rx="7.999301"
         id="rect957"
         style="stroke-width:1" />
    </clipPath>
  </defs>
  <title
     id="title1670">icon_gerbview</title>
  <g
     id="g953"
     clip-path="url(#clipPath955)">
    <rect
       class="cls-1"
       x="0"
       y="0"
       width="48"
       height="47.997318"
       rx="7.999301"
       id="rect2402"
       style="stroke-width:1" />
    <rect
       class="cls-2"
       x="9"
       y="11"
       width="8"
       height="5"
       id="rect1676"
       style="stroke-width:1"
       ry="0.5704487"
       clip-path="none" />
    <path
       class="cls-2"
       d="M 26.5,8.999579 A 2.9999999,3 0 1 1 23.500421,6 2.9993683,2.9993683 0 0 1 26.5,8.999579 Z"
       id="path1706"
       style="stroke-width:1"
       clip-path="none" />
    <rect
       class="cls-2"
       x="9"
       y="1"
       width="8"
       height="5"
       id="rect2278"
       style="stroke-width:1"
       ry="0.5704487"
       clip-path="none" />
    <rect
       class="cls-2"
       x="9"
       y="21"
       width="8"
       height="5"
       id="rect2282"
       style="stroke-width:1"
       ry="0.5704487"
       clip-path="none" />
    <rect
       class="cls-2"
       x="29"
       y="11"
       width="8"
       height="5"
       id="rect2284"
       style="stroke-width:1"
       ry="0.5704487"
       clip-path="none" />
    <rect
       class="cls-2"
       x="29"
       y="1"
       width="8"
       height="5"
       id="rect2286"
       style="stroke-width:1"
       ry="0.5704487"
       clip-path="none" />
    <rect
       class="cls-2"
       x="29"
       y="21"
       width="8"
       height="5"
       id="rect2290"
       style="stroke-width:1"
       ry="0.5704487"
       clip-path="none" />
    <path
       style="fill:none;stroke:#b9b9b9;stroke-width:3;stroke-linecap:butt;stroke-linejoin:miter;stroke-miterlimit:4;stroke-dasharray:none;stroke-opacity:1"
       d="M 23.5,-3 V 18.917205 L 28.082795,23.5 H 32.5"
       id="path2292"
       clip-path="none"
       sodipodi:nodetypes="cccc" />
    <path
       style="fill:none;stroke:#b9b9b9;stroke-width:3;stroke-linecap:butt;stroke-linejoin:miter;stroke-miterlimit:4;stroke-dasharray:none;stroke-opacity:1"
       d="M 13,23.5 H 3"
       id="path2294"
       clip-path="none" />
    <path
       style="fill:none;stroke:#b9b9b9;stroke-width:3;stroke-linecap:butt;stroke-linejoin:miter;stroke-miterlimit:4;stroke-dasharray:none;stroke-opacity:1"
       d="M 13,13.5 H -1 L -8.5,6"
       id="path2296"
       clip-path="none" />
    <path
       style="fill:none;stroke:#b9b9b9;stroke-width:3;stroke-linecap:butt;stroke-linejoin:miter;stroke-miterlimit:4;stroke-dasharray:none;stroke-opacity:1"
       d="m 13.5,3.5 v -9"
       id="path2298"
       clip-path="none" />
    <path
       style="fill:none;stroke:#b9b9b9;stroke-width:3;stroke-linecap:butt;stroke-linejoin:miter;stroke-miterlimit:4;stroke-dasharray:none;stroke-opacity:1"
       d="m 33,3.5 16.249097,0"
       id="path2300"
       clip-path="none"
       sodipodi:nodetypes="cc" />
    <path
       style="fill:none;stroke:#b9b9b9;stroke-width:3;stroke-linecap:butt;stroke-linejoin:miter;stroke-miterlimit:4;stroke-dasharray:none;stroke-opacity:1"
       d="m 33,13.5 16.249097,0"
       id="path2302"
       clip-path="none"
       sodipodi:nodetypes="cc" />
    <path
       style="fill:none;stroke:#b9b9b9;stroke-width:3;stroke-linecap:butt;stroke-linejoin:miter;stroke-miterlimit:4;stroke-dasharray:none;stroke-opacity:1"
       d="m 32,23.5 17.5,0"
       id="path2304"
       clip-path="none"
       sodipodi:nodetypes="cc" />
    <path
       class="cls-2"
       d="M 6.5,23.49979 A 2.9999999,3.0000001 0 1 1 3.5004208,20.500212 2.9993683,2.9993684 0 0 1 6.5,23.49979 Z"
       id="path1710"
       style="stroke-width:1"
       clip-path="url(#clipPath2388)" />
    <path
       style="fill:#b9b9b9;fill-opacity:1;stroke:none;stroke-width:1px;stroke-linecap:butt;stroke-linejoin:miter;stroke-opacity:1"
       d="M 5,29.051284 H -1 V 48.500002 H 19 V 31.153848 L 17,29.051284 H 10 L 9,28.000001 H 6"
       id="path2312"
       clip-path="none"
       sodipodi:nodetypes="ccccccccc" />
    <path
       style="fill:none;stroke:#b9b9b9;stroke-width:3;stroke-linecap:butt;stroke-linejoin:miter;stroke-miterlimit:4;stroke-dasharray:none;stroke-opacity:1"
       d="m 15.5,23.5 h 4 L 23,27 v 22"
       id="path3158"
       clip-path="url(#clipPath3201)" />
    <rect
       class="cls-3"
       x="-1.93146"
       y="50.91169"
       width="3.3456738"
       height="5.0185108"
       transform="rotate(-45)"
       id="rect117325"
       style="fill:#bf2641;stroke-width:0.999997" />
    <path
       class="cls-4"
       d="m 44.55388,44.919487 v 0 a 3.3456739,3.3456739 0 0 1 -4.731619,0 l -4.731452,-4.731452 4.731452,-4.73162 4.731619,4.73162 a 3.3456739,3.3456739 0 0 1 0,4.731452 z"
       id="path117327"
       style="fill:#bf2641;stroke-width:0.999997" />
    <g
       aria-label="Ki"
       id="text3156"
       style="font-size:18.9582px;line-height:1.25;font-family:'Noto Sans';-inkscape-font-specification:'Noto Sans';letter-spacing:0px;word-spacing:0px;stroke-width:1">
      <path
         d="m 5.0087587,36.490376 2.65674,-3.360267 c 0.5430735,-0.685013 0.8146102,-1.19723 0.8146102,-1.536651 0,-0.123426 -0.015428,-0.222167 -0.046285,-0.296222 h 4.6377241 c -0.351763,0.197481 -0.79301,0.614043 -1.323742,1.249686 -0.141939,0.166625 -0.391876,0.472104 -0.749811,0.916437 l -3.4806072,4.332245 4.1563632,5.720785 c 0.253023,0.345592 0.57393,0.734383 0.962721,1.166373 0.104912,0.111083 0.256109,0.243766 0.45359,0.398049 H 8.3319979 c 0.037028,-0.14194 0.055542,-0.268452 0.055542,-0.379535 0,-0.339421 -0.2345089,-0.830038 -0.7035269,-1.471852 L 5.0087587,39.582192 v 3.693516 c 0,0.857809 0.1727961,1.45951 0.5183883,1.805103 H 1.4530468 c 0.2406803,-0.240681 0.3949625,-0.515303 0.4628467,-0.823868 0.037028,-0.172796 0.055542,-0.496789 0.055542,-0.971978 V 33.093081 c 0,-0.475189 -0.018514,-0.799182 -0.055542,-0.971978 C 1.8480093,31.812539 1.6937271,31.537917 1.4530468,31.297236 H 5.527147 c -0.3455922,0.345592 -0.5156186,0.944212 -0.5183883,1.795845 z"
         style="font-style:normal;font-variant:normal;font-weight:bold;font-stretch:normal;font-family:'Tiresias LPfont';-inkscape-font-specification:'Tiresias LPfont Bold';fill:#545454;fill-opacity:1;stroke-width:1"
         id="path930"
         sodipodi:nodetypes="ccscccccccccsccscccsscccsc" />
      <path
         d="m 16.989441,34.953725 v 8.497865 c 0,0.444333 0.01234,0.734383 0.03703,0.870152 0.04937,0.277708 0.17897,0.530731 0.388791,0.759069 h -3.835076 c 0.209824,-0.228338 0.339421,-0.481361 0.388792,-0.759069 0.02469,-0.135769 0.03703,-0.425819 0.03703,-0.870152 v -6.887159 c 0,-0.444333 -0.01234,-0.731297 -0.03703,-0.860894 -0.04937,-0.271537 -0.175885,-0.521474 -0.379535,-0.749812 z m -1.256972,-4.841376 c 0.512217,0 0.947293,0.182053 1.305228,0.546159 0.364106,0.357935 0.546159,0.79301 0.546159,1.305227 0,0.52456 -0.178968,0.965807 -0.536903,1.323742 -0.351763,0.351763 -0.789925,0.527645 -1.314484,0.527645 -0.512217,0 -0.950379,-0.178967 -1.314485,-0.536902 -0.357935,-0.364106 -0.536902,-0.802268 -0.536902,-1.314485 0,-0.524559 0.175882,-0.962721 0.527645,-1.314484 0.357935,-0.357935 0.799182,-0.536902 1.323742,-0.536902 z"
         style="font-style:normal;font-variant:normal;font-weight:bold;font-stretch:normal;font-family:'Tiresias LPfont';-inkscape-font-specification:'Tiresias LPfont Bold';fill:#545454;fill-opacity:1;stroke-width:1"
         id="path932"
         sodipodi:nodetypes="csccccsscccscssscsss" />
    </g>
    <path
       class="cls-4"
       d="m 34.5587,18.348667 a 11.720732,11.720732 0 1 1 -16.568111,0.0079 11.715212,11.715212 0 0 1 16.568111,-0.0079 z"
       id="path117329"
       style="fill:#ffffff;fill-opacity:0.380454;stroke:#bf2641;stroke-width:4;stroke-miterlimit:4;stroke-dasharray:none;stroke-opacity:1"
       mask="none" />
  </g>
</svg>
