<svg id="Слой_1" data-name="Слой 1"
  xmlns:dc="http://purl.org/dc/elements/1.1/"
  xmlns:cc="http://creativecommons.org/ns#"
  xmlns:rdf="http://www.w3.org/1999/02/22-rdf-syntax-ns#"
  xmlns="http://www.w3.org/2000/svg" viewBox="0 0 26 26">
  <metadata id="metadata43">
    <rdf:RDF>
      <cc:Work rdf:about="">
        <cc:license rdf:resource="http://creativecommons.org/licenses/by-sa/4.0/" />
        <dc:format>image/svg+xml</dc:format>
        <dc:type rdf:resource="http://purl.org/dc/dcmitype/StillImage" />
        <dc:title>add_arc</dc:title>
      </cc:Work>
      <cc:License rdf:about="http://creativecommons.org/licenses/by-sa/4.0/">
        <cc:permits rdf:resource="http://creativecommons.org/ns#Reproduction" />
        <cc:permits rdf:resource="http://creativecommons.org/ns#Distribution" />
        <cc:requires rdf:resource="http://creativecommons.org/ns#Notice" />
        <cc:requires rdf:resource="http://creativecommons.org/ns#Attribution" />
        <cc:permits rdf:resource="http://creativecommons.org/ns#DerivativeWorks" />
        <cc:requires rdf:resource="http://creativecommons.org/ns#ShareAlike" />
      </cc:License>
    </rdf:RDF>
  </metadata>
  <defs>
    <style>.cls-1{fill:#f29100;}.cls-2{fill:#b9b9b9;}.cls-3{fill:none;stroke:#fff;stroke-miterlimit:10;}.cls-4{fill:#545454;}</style>
  </defs>
  <title>icon_pcbcalculator</title>
  <path class="cls-1" d="M21,1H5A4,4,0,0,0,1,5V21a4,4,0,0,0,4,4H21a4,4,0,0,0,4-4V5A4,4,0,0,0,21,1Z"/>
  <path class="cls-2" d="M15.6173,12.9951H13.0129V13L13,25h8a4,4,0,0,0,4-4V12.9951Z"/>
  <line class="cls-3" x1="13" y1="1" x2="13" y2="24.9987"/>
  <line class="cls-3" x1="24.9993" y1="12.9993" x2="1.0007" y2="12.9993"/>
  <path class="cls-4" d="M7.5225,6.9883H8.9512v.8369H7.5225V9.457H6.6357V7.8252H5.1992V6.9883H6.6357V5.4619h.8868Z"/>
  <path class="cls-4" d="M7.7246,18.9161l1.01,1.01-.5918.5918-1.01-1.01L5.979,20.6618l-.627-.627,1.1538-1.1539L5.49,17.8651l.5918-.5918,1.0157,1.0158L8.1769,17.21l.627.627Z"/>
  <path class="cls-4" d="M20.7041,18.3623H17.4629v-.7617h3.2412Zm0,1.5977H17.4629v-.7579h3.2412Z"/>
  <path class="cls-4" d="M20.7558,8.04H17.5371V7.3047h3.2187Z"/>
</svg>