<svg id="Слой_1" data-name="Слой 1"
  xmlns:cc="http://creativecommons.org/ns#"
  xmlns:rdf="http://www.w3.org/1999/02/22-rdf-syntax-ns#"
  xmlns="http://www.w3.org/2000/svg" viewBox="0 0 26 26">
  <metadata id="metadata43">
    <rdf:RDF>
      <cc:Work rdf:about="">
        <cc:license rdf:resource="http://creativecommons.org/licenses/by/4.0/" />
      </cc:Work>
      <cc:License rdf:about="http://creativecommons.org/licenses/by/4.0/">
        <cc:permits rdf:resource="http://creativecommons.org/ns#Reproduction" />
        <cc:permits rdf:resource="http://creativecommons.org/ns#Distribution" />
        <cc:requires rdf:resource="http://creativecommons.org/ns#Notice" />
        <cc:requires rdf:resource="http://creativecommons.org/ns#Attribution" />
        <cc:permits rdf:resource="http://creativecommons.org/ns#DerivativeWorks" />
      </cc:License>
    </rdf:RDF>
  </metadata>
  <defs>
    <style>.cls-1{fill:#b9b9b9;}.cls-2,.cls-3,.cls-4,.cls-5{fill:none;stroke-linejoin:round;}.cls-2,.cls-5{stroke:#333;}.cls-2,.cls-3{stroke-linecap:round;}.cls-2,.cls-4,.cls-5{stroke-width:1.9097px;}.cls-3,.cls-4{stroke:#545454;}.cls-3{stroke-width:0.9549px;}.cls-5{stroke-linecap:square;}.cls-6{fill:#333;}.cls-7{fill:#1a81c4;}</style>
  </defs>
  <title>icon_eeschema</title>
  <path class="cls-1" d="M4.9964,1.0041h16a4,4,0,0,1,4,4v16a4,4,0,0,1-4,4h-16a4,4,0,0,1-4-4v-16A4,4,0,0,1,4.9964,1.0041Z"/>
  <line class="cls-2" x1="12.5271" y1="5.6131" x2="12.5271" y2="14.5172"/>
  <line class="cls-3" x1="9.512" y1="8.7453" x2="4.3737" y2="8.7453"/>
  <line class="cls-3" x1="9.512" y1="7.0561" x2="6.3093" y2="7.0561"/>
  <line class="cls-3" x1="19.7007" y1="18.5822" x2="14.5623" y2="18.5822"/>
  <line class="cls-3" x1="17.765" y1="16.8929" x2="14.5623" y2="16.8929"/>
  <line class="cls-4" x1="0.9949" y1="18.544" x2="6.5909" y2="18.544"/>
  <line class="cls-2" x1="8.1601" y1="15.1625" x2="8.1601" y2="21.9227"/>
  <line class="cls-5" x1="12.5271" y1="10.47" x2="23.8875" y2="10.47"/>
  <line class="cls-4" x1="12.4244" y1="25.0052" x2="12.4244" y2="22.3145"/>
  <path class="cls-6" d="M14.3805,10.47a1.8536,1.8536,0,1,1-1.8534-1.8535A1.8536,1.8536,0,0,1,14.3805,10.47Z"/>
  <rect class="cls-7" x="10.527" y="1.0036" width="3.9999" height="4.6095"/>
  <rect class="cls-7" x="17.8136" y="6.5901" width="3.9999" height="7.8477" transform="translate(30.3275 -9.2996) rotate(90)"/>
  <line class="cls-2" x1="12.5271" y1="14.5172" x2="8.3037" y2="17.1803"/>
  <line class="cls-2" x1="12.0378" y1="22.0957" x2="8.1864" y2="19.8786"/>
  <path class="cls-7" d="M10.3777,22.4449l1.4212-2.019a.7379.7379,0,0,1,1.32.2508l.3829,1.58a.9015.9015,0,0,1-.7489,1.105L11.085,23.6A.7377.7377,0,0,1,10.3777,22.4449Z"/>
  <line class="cls-2" x1="5.5909" y1="18.544" x2="8.1601" y2="18.544"/>
</svg>