<?xml version="1.0" encoding="UTF-8" standalone="no"?>
<!-- Created with Inkscape (http://www.inkscape.org/) -->

<svg
   xmlns:dc="http://purl.org/dc/elements/1.1/"
   xmlns:cc="http://creativecommons.org/ns#"
   xmlns:rdf="http://www.w3.org/1999/02/22-rdf-syntax-ns#"
   xmlns:svg="http://www.w3.org/2000/svg"
   xmlns="http://www.w3.org/2000/svg"
   xmlns:sodipodi="http://sodipodi.sourceforge.net/DTD/sodipodi-0.dtd"
   xmlns:inkscape="http://www.inkscape.org/namespaces/inkscape"
   space="preserve"
   height="26"
   width="26"
   version="1.0"
   y="0"
   x="0"
   viewBox="0 0 110.93333 110.93333"
   id="svg2"
   inkscape:version="0.48.4 r9939"
   sodipodi:docname="Gnome-dev-camera.svg">
  <metadata
     id="metadata262">
    <rdf:RDF>
      <cc:Work
         rdf:about="">
        <dc:format>image/svg+xml</dc:format>
        <dc:type
           rdf:resource="http://purl.org/dc/dcmitype/StillImage" />
        <dc:title></dc:title>
      </cc:Work>
    </rdf:RDF>
  </metadata>
  <defs
     id="defs260" />
  <sodipodi:namedview
     pagecolor="#ffffff"
     bordercolor="#666666"
     borderopacity="1"
     objecttolerance="10"
     gridtolerance="10"
     guidetolerance="10"
     inkscape:pageopacity="0"
     inkscape:pageshadow="2"
     inkscape:window-width="1023"
     inkscape:window-height="672"
     id="namedview258"
     showgrid="false"
     inkscape:zoom="3.9333333"
     inkscape:cx="30"
     inkscape:cy="30"
     inkscape:window-x="0"
     inkscape:window-y="0"
     inkscape:window-maximized="0"
     inkscape:current-layer="svg2" />
  <linearGradient
     id="XMLID_13_"
     y2="57.610001"
     gradientUnits="userSpaceOnUse"
     y1="57.610001"
     x2="90.150002"
     x1="44.450001"
     gradientTransform="translate(0,-145.06667)">
    <stop
       stop-color="#669"
       offset="0"
       id="stop5" />
    <stop
       stop-color="#336"
       offset="1"
       id="stop7" />
    <midPointStop
       stop-color="#666699"
       offset="0"
       id="midPointStop9" />
    <midPointStop
       stop-color="#666699"
       offset="0.5"
       id="midPointStop11" />
    <midPointStop
       stop-color="#333366"
       offset="1"
       id="midPointStop13" />
  </linearGradient>
  <linearGradient
     id="XMLID_14_"
     y2="54.25"
     gradientUnits="userSpaceOnUse"
     y1="50.119999"
     x2="67.300003"
     x1="67.300003"
     gradientTransform="translate(0,-145.06667)">
    <stop
       stop-color="#ccc"
       offset="0"
       id="stop18" />
    <stop
       stop-color="#666"
       offset="1"
       id="stop20" />
    <midPointStop
       stop-color="#CCCCCC"
       offset="0"
       id="midPointStop22" />
    <midPointStop
       stop-color="#CCCCCC"
       offset="0.5"
       id="midPointStop24" />
    <midPointStop
       stop-color="#666666"
       offset="1"
       id="midPointStop26" />
  </linearGradient>
  <linearGradient
     id="XMLID_15_"
     y2="27.200001"
     gradientUnits="userSpaceOnUse"
     y1="255.60001"
     x2="23.24"
     x1="251.60001"
     gradientTransform="translate(0,-145.06667)">
    <stop
       stop-color="#669"
       offset="0"
       id="stop31" />
    <stop
       stop-color="#336"
       offset="1"
       id="stop33" />
    <midPointStop
       stop-color="#666699"
       offset="0"
       id="midPointStop35" />
    <midPointStop
       stop-color="#666699"
       offset="0.5"
       id="midPointStop37" />
    <midPointStop
       stop-color="#333366"
       offset="1"
       id="midPointStop39" />
  </linearGradient>
  <linearGradient
     id="XMLID_16_"
     y2="132"
     gradientUnits="userSpaceOnUse"
     y1="132"
     x2="237.8"
     x1="18.23"
     gradientTransform="translate(0,-145.06667)">
    <stop
       stop-color="#dfdfdf"
       offset="0"
       id="stop44" />
    <stop
       stop-color="#ebebeb"
       offset=".1067"
       id="stop46" />
    <stop
       stop-color="#e9e9e9"
       offset=".1096"
       id="stop48" />
    <stop
       stop-color="#cacad6"
       offset=".1519"
       id="stop50" />
    <stop
       stop-color="#b8b8c9"
       offset=".188"
       id="stop52" />
    <stop
       stop-color="#b1b1c5"
       offset=".2135"
       id="stop54" />
    <stop
       stop-color="#e1e1ff"
       offset=".8708"
       id="stop56" />
    <stop
       stop-color="#99c"
       offset="1"
       id="stop58" />
    <midPointStop
       stop-color="#DFDFDF"
       offset="0"
       id="midPointStop60" />
    <midPointStop
       stop-color="#DFDFDF"
       offset="0.5"
       id="midPointStop62" />
    <midPointStop
       stop-color="#EBEBEB"
       offset="0.1067"
       id="midPointStop64" />
    <midPointStop
       stop-color="#EBEBEB"
       offset="0.3684"
       id="midPointStop66" />
    <midPointStop
       stop-color="#B1B1C5"
       offset="0.2135"
       id="midPointStop68" />
    <midPointStop
       stop-color="#B1B1C5"
       offset="0.5"
       id="midPointStop70" />
    <midPointStop
       stop-color="#E1E1FF"
       offset="0.8708"
       id="midPointStop72" />
    <midPointStop
       stop-color="#E1E1FF"
       offset="0.5"
       id="midPointStop74" />
    <midPointStop
       stop-color="#9999CC"
       offset="1"
       id="midPointStop76" />
  </linearGradient>
  <linearGradient
     id="XMLID_17_"
     y2="135.3"
     gradientUnits="userSpaceOnUse"
     y1="135.3"
     x2="221.60001"
     x1="86.980003"
     gradientTransform="translate(0,-145.06667)">
    <stop
       stop-color="#bdbdcf"
       offset=".0056"
       id="stop89" />
    <stop
       stop-color="#d8d8e3"
       offset=".1263"
       id="stop91" />
    <stop
       stop-color="#ededf2"
       offset=".2572"
       id="stop93" />
    <stop
       stop-color="#fbfbfc"
       offset=".3838"
       id="stop95" />
    <stop
       stop-color="#fff"
       offset=".5"
       id="stop97" />
    <stop
       stop-color="#f0f0f4"
       offset=".6848"
       id="stop99" />
    <stop
       stop-color="#cecedb"
       offset="1"
       id="stop101" />
    <midPointStop
       stop-color="#BDBDCF"
       offset="0.0056"
       id="midPointStop103" />
    <midPointStop
       stop-color="#BDBDCF"
       offset="0.3103"
       id="midPointStop105" />
    <midPointStop
       stop-color="#FFFFFF"
       offset="0.5"
       id="midPointStop107" />
    <midPointStop
       stop-color="#FFFFFF"
       offset="0.5618"
       id="midPointStop109" />
    <midPointStop
       stop-color="#CECEDB"
       offset="1"
       id="midPointStop111" />
  </linearGradient>
  <linearGradient
     id="XMLID_18_"
     y2="135.3"
     gradientUnits="userSpaceOnUse"
     y1="135.3"
     x2="185.89999"
     x1="122.7"
     gradientTransform="translate(0,-145.06667)">
    <stop
       stop-color="#d9d9d9"
       offset="0"
       id="stop122" />
    <stop
       stop-color="#bfbfbf"
       offset="1"
       id="stop124" />
    <midPointStop
       stop-color="#D9D9D9"
       offset="0"
       id="midPointStop126" />
    <midPointStop
       stop-color="#D9D9D9"
       offset="0.5"
       id="midPointStop128" />
    <midPointStop
       stop-color="#BFBFBF"
       offset="1"
       id="midPointStop130" />
  </linearGradient>
  <linearGradient
     id="XMLID_19_"
     y2="160.2"
     gradientUnits="userSpaceOnUse"
     y1="108"
     x2="154.3"
     x1="154.3"
     gradientTransform="translate(0,-145.06667)">
    <stop
       stop-color="#b1b1c5"
       offset=".0056"
       id="stop139" />
    <stop
       stop-color="#edeff6"
       offset=".5"
       id="stop141" />
    <stop
       stop-color="#d0d2d8"
       offset="1"
       id="stop143" />
    <midPointStop
       stop-color="#B1B1C5"
       offset="0.0056"
       id="midPointStop145" />
    <midPointStop
       stop-color="#B1B1C5"
       offset="0.5"
       id="midPointStop147" />
    <midPointStop
       stop-color="#EDEFF6"
       offset="0.5"
       id="midPointStop149" />
    <midPointStop
       stop-color="#EDEFF6"
       offset="0.4944"
       id="midPointStop151" />
    <midPointStop
       stop-color="#D0D2D8"
       offset="1"
       id="midPointStop153" />
  </linearGradient>
  <linearGradient
     id="XMLID_20_"
     y2="68.949997"
     gradientUnits="userSpaceOnUse"
     y1="80.129997"
     x2="203.3"
     x1="203.3"
     gradientTransform="translate(0,-145.06667)">
    <stop
       stop-color="#b0d9ff"
       offset="0"
       id="stop174" />
    <stop
       stop-color="#57adff"
       offset="1"
       id="stop176" />
    <midPointStop
       stop-color="#B0D9FF"
       offset="0"
       id="midPointStop178" />
    <midPointStop
       stop-color="#B0D9FF"
       offset="0.5"
       id="midPointStop180" />
    <midPointStop
       stop-color="#57ADFF"
       offset="1"
       id="midPointStop182" />
  </linearGradient>
  <linearGradient
     id="XMLID_21_"
     y2="75.699997"
     gradientUnits="userSpaceOnUse"
     y1="68.089996"
     x2="203.3"
     x1="203.3"
     gradientTransform="translate(0,-145.06667)">
    <stop
       stop-color="#fff"
       offset="0"
       id="stop187" />
    <stop
       stop-color="#d2dde9"
       offset="1"
       id="stop189" />
    <midPointStop
       stop-color="#FFFFFF"
       offset="0"
       id="midPointStop191" />
    <midPointStop
       stop-color="#FFFFFF"
       offset="0.5"
       id="midPointStop193" />
    <midPointStop
       stop-color="#D2DDE9"
       offset="1"
       id="midPointStop195" />
  </linearGradient>
  <linearGradient
     id="XMLID_22_"
     y2="76.739998"
     gradientUnits="userSpaceOnUse"
     y1="96.220001"
     x2="123.9"
     x1="122.5"
     gradientTransform="translate(0,-145.06667)">
    <stop
       stop-color="#94caff"
       offset="0"
       id="stop206" />
    <stop
       stop-color="#006dff"
       offset="1"
       id="stop208" />
    <midPointStop
       stop-color="#94CAFF"
       offset="0"
       id="midPointStop210" />
    <midPointStop
       stop-color="#94CAFF"
       offset="0.5"
       id="midPointStop212" />
    <midPointStop
       stop-color="#006DFF"
       offset="1"
       id="midPointStop214" />
  </linearGradient>
  <linearGradient
     id="XMLID_23_"
     y2="74.620003"
     gradientUnits="userSpaceOnUse"
     y1="69.040001"
     x2="123.9"
     x1="123.9"
     gradientTransform="translate(0,-145.06667)">
    <stop
       stop-color="#fff"
       offset="0"
       id="stop219" />
    <stop
       stop-color="#f8fbff"
       offset=".0897"
       id="stop221" />
    <stop
       stop-color="#e6f1ff"
       offset=".2165"
       id="stop223" />
    <stop
       stop-color="#c7dfff"
       offset=".3656"
       id="stop225" />
    <stop
       stop-color="#9dc7ff"
       offset=".5315"
       id="stop227" />
    <stop
       stop-color="#67a8ff"
       offset=".7114"
       id="stop229" />
    <stop
       stop-color="#2683ff"
       offset=".9001"
       id="stop231" />
    <stop
       stop-color="#006dff"
       offset="1"
       id="stop233" />
    <midPointStop
       stop-color="#FFFFFF"
       offset="0"
       id="midPointStop235" />
    <midPointStop
       stop-color="#FFFFFF"
       offset="0.6328"
       id="midPointStop237" />
    <midPointStop
       stop-color="#006DFF"
       offset="1"
       id="midPointStop239" />
  </linearGradient>
  <linearGradient
     id="XMLID_24_"
     y2="77.769997"
     gradientUnits="userSpaceOnUse"
     y1="69.730003"
     x2="152.39999"
     x1="152.39999"
     gradientTransform="translate(0,-145.06667)">
    <stop
       stop-color="#fff"
       offset="0"
       id="stop244" />
    <stop
       offset="1"
       id="stop246" />
    <midPointStop
       stop-color="#FFFFFF"
       offset="0"
       id="midPointStop248" />
    <midPointStop
       stop-color="#FFFFFF"
       offset="0.5"
       id="midPointStop250" />
    <midPointStop
       stop-color="#000000"
       offset="1"
       id="midPointStop252" />
  </linearGradient>
  <g
     id="g3239"
     transform="matrix(0.493198,0,0,0.5064487,-7.2700036,65.334498)">
    <path
       style="fill:url(#XMLID_13_)"
       inkscape:connector-curvature="0"
       id="path15"
       d="m 44.45,-87.456667 c 0,6.24 9.82,10.95 22.85,10.95 13.02,0 22.84,-4.71 22.84,-10.95 0,-6.24 -9.82,-10.94 -22.84,-10.94 -13.03,0 -22.85,4.7 -22.85,10.94 z" />
    <path
       style="fill:url(#XMLID_14_)"
       inkscape:connector-curvature="0"
       id="path28"
       d="m 48.89,-89.006667 c 0,1.53 6.33,5.95 18.41,5.95 12.08,0 18.41,-4.42 18.41,-5.95 0,-1.52 -6.33,-5.94 -18.41,-5.94 -12.08,0 -18.41,4.42 -18.41,5.94 z" />
    <path
       style="fill:url(#XMLID_15_)"
       inkscape:connector-curvature="0"
       id="path41"
       d="m 26.8,-90.476667 c -7.35,0 -13.32,5.97 -13.32,13.32 v 128.1 c 0,7.4 5.97,13.3 13.32,13.3 h 202.4 c 7.3,0 13.3,-5.9 13.3,-13.3 v -128.1 c 0,-7.35 -6,-13.32 -13.3,-13.32 H 26.8 z" />
    <path
       style="fill:url(#XMLID_16_)"
       inkscape:connector-curvature="0"
       id="path78"
       d="m 237.8,50.933333 c 0,4.7 -3.9,8.6 -8.6,8.6 H 26.8 c -4.73,0 -8.57,-3.9 -8.57,-8.6 v -128.1 c 0,-4.73 3.84,-8.57 8.57,-8.57 h 202.4 c 4.7,0 8.6,3.84 8.6,8.57 v 128.1 z" />
    <path
       style="fill:#bfbfbf"
       inkscape:connector-curvature="0"
       id="path80"
       d="m 21.09,50.933333 v -128.1 c 0,-4.73 3.83,-8.57 8.57,-8.57 H 26.8 c -4.73,0 -8.57,3.84 -8.57,8.57 v 128.1 c 0,4.7 3.84,8.6 8.57,8.6 h 2.86 c -4.74,0 -8.57,-3.9 -8.57,-8.6 z" />
    <path
       style="opacity:0.7;fill:#ffffff"
       inkscape:connector-curvature="0"
       id="path82"
       d="M 229.2,-85.726667 H 26.8 c -4.73,0 -8.57,3.84 -8.57,8.57 v 5 c 0,-4.56 3.84,-8.26 8.57,-8.26 h 202.4 c 4.7,0 8.6,3.7 8.6,8.26 v -5 c 0,-4.73 -3.9,-8.57 -8.6,-8.57 z" />
    <path
       style="fill:#616161"
       inkscape:connector-curvature="0"
       id="path84"
       d="m 83.65,-9.7666667 c 0,38.9999997 31.65,70.6999997 70.65,70.6999997 39,0 70.7,-31.7 70.7,-70.6999997 0,-38.9200003 -31.7,-70.6200003 -70.7,-70.6200003 -39,0 -70.65,31.7 -70.65,70.6200003 z" />
    <circle
       transform="translate(0,-145.06667)"
       style="fill:#999999"
       sodipodi:ry="68.760002"
       sodipodi:rx="68.760002"
       sodipodi:cy="135.3"
       sodipodi:cx="154.3"
       id="circle86"
       r="68.760002"
       cx="154.3"
       cy="135.3"
       d="m 223.06001,135.3 c 0,37.9751 -30.78491,68.76001 -68.76001,68.76001 -37.9751,0 -68.759999,-30.78491 -68.759999,-68.76001 0,-37.975098 30.784899,-68.759999 68.759999,-68.759999 37.9751,0 68.76001,30.784901 68.76001,68.759999 z" />
    <path
       style="fill:url(#XMLID_17_)"
       inkscape:connector-curvature="0"
       id="path113"
       d="m 86.98,-9.7666667 c 0,37.1999997 30.22,67.3999997 67.32,67.3999997 37.1,0 67.3,-30.2 67.3,-67.3999997 0,-37.0900003 -30.2,-67.2900003 -67.3,-67.2900003 -37.1,0 -67.32,30.2 -67.32,67.2900003 z" />
    <path
       style="fill:#f7f7f7"
       inkscape:connector-curvature="0"
       id="path115"
       d="m 118.4,-9.7666667 c 0,19.7999997 16.1,35.8999997 35.9,35.8999997 19.8,0 35.9,-16.1 35.9,-35.8999997 0,-19.8000003 -16.1,-35.8700003 -35.9,-35.8700003 -19.8,0 -35.9,16.07 -35.9,35.8700003 z" />
    <path
       style="fill:#666666"
       inkscape:connector-curvature="0"
       id="path117"
       d="m 121.3,-9.7666667 c 0,18.3 14.8,33.0999997 33,33.0999997 18.2,0 33.1,-14.7999997 33.1,-33.0999997 0,-18.2000003 -14.9,-33.0000003 -33.1,-33.0000003 -18.2,0 -33,14.8 -33,33.0000003 z" />
    <path
       style="fill:#666666"
       inkscape:connector-curvature="0"
       id="path119"
       d="m 123.7,-8.5666667 c 0,17.6 14.3,31.8999997 31.8,31.8999997 17.6,0 31.9,-14.2999997 31.9,-31.8999997 0,-17.5000003 -14.3,-31.8000003 -31.9,-31.8000003 -17.5,0 -31.8,14.3 -31.8,31.8000003 z" />
    <path
       style="fill:url(#XMLID_18_)"
       inkscape:connector-curvature="0"
       id="path132"
       d="m 122.7,-9.7666667 c 0,17.5 14.2,31.6999997 31.6,31.6999997 17.4,0 31.6,-14.1999997 31.6,-31.6999997 0,-17.4000003 -14.2,-31.6000003 -31.6,-31.6000003 -17.4,0 -31.6,14.2 -31.6,31.6000003 z" />
    <path
       style="fill:#ffffff"
       inkscape:connector-curvature="0"
       id="path134"
       d="m 123.6,-9.2666667 c 0,-17.2000003 14,-31.1000003 31.2,-31.1000003 17.1,0 31,13.8 31.1,30.9000003 v -0.3 c 0,-17.4000003 -14.2,-31.6000003 -31.6,-31.6000003 -17.4,0 -31.6,14.2 -31.6,31.6000003 0,17.5 14.2,31.6999997 31.6,31.6999997 h 0.2 c -17,-0.2 -30.9,-14.0999997 -30.9,-31.1999997 z" />
    <path
       style="fill:#999999"
       inkscape:connector-curvature="0"
       id="path136"
       d="m 127,-9.7666667 c 0,15.1 12.2,27.3999997 27.3,27.3999997 15.1,0 27.3,-12.2999997 27.3,-27.3999997 0,-15.0000003 -12.2,-27.3000003 -27.3,-27.3000003 -15.1,0 -27.3,12.3 -27.3,27.3000003 z" />
    <path
       style="fill:url(#XMLID_19_)"
       inkscape:connector-curvature="0"
       id="path155"
       d="m 128.4,-9.7666667 c 0,14.3 11.6,25.8999997 25.9,25.8999997 14.3,0 25.9,-11.5999997 25.9,-25.8999997 0,-14.2000003 -11.6,-25.9000003 -25.9,-25.9000003 -14.3,0 -25.9,11.7 -25.9,25.9000003 z" />
    <path
       style="fill:#ffffff"
       inkscape:connector-curvature="0"
       id="path157"
       d="m 138.4,-9.7666667 c 0,8.80000003 7.1,15.9 15.9,15.9 8.8,0 15.9,-7.09999997 15.9,-15.9 0,-8.7000003 -7.1,-15.9000003 -15.9,-15.9000003 -8.8,0 -15.9,7.2 -15.9,15.9000003 z" />
    <path
       inkscape:connector-curvature="0"
       id="path159"
       d="m 138.4,-9.7666667 c 0,8.80000003 7.1,15.9 15.9,15.9 8.8,0 15.9,-7.09999997 15.9,-15.9 0,-8.7000003 -7.1,-15.9000003 -15.9,-15.9000003 -8.8,0 -15.9,7.2 -15.9,15.9000003 z" />
    <path
       style="opacity:0.6;fill:#ffffff"
       inkscape:connector-curvature="0"
       id="path161"
       d="m 154.3,-77.056667 c -0.2,0 -0.3,0.01 -0.5,0.01 36.4,0.27 65.9,30.36 65.9,67.2800003 0,36.9999997 -29.5,67.0999997 -65.9,67.3999997 h 0.5 c 37.1,0 67.3,-30.2 67.3,-67.3999997 0,-37.0900003 -30.2,-67.2900003 -67.3,-67.2900003 z" />
    <path
       style="opacity:0.8;fill:#ffffff"
       inkscape:connector-curvature="0"
       id="path163"
       d="m 88.42,-9.7666667 c 0,-36.9700003 29.68,-67.0800003 66.28,-67.2800003 -0.2,0 -0.3,-0.01 -0.4,-0.01 -37.1,0 -67.32,30.2 -67.32,67.2900003 0,37.1999997 30.22,67.3999997 67.32,67.3999997 h 0.4 c -36.6,-0.2 -66.28,-30.4 -66.28,-67.3999997 z" />
    <path
       style="fill:#999999"
       inkscape:connector-curvature="0"
       id="path165"
       d="m 179.4,-73.746667 v 9.78 c 0,1.68 1.4,3.05 3,3.05 h 17.8 c -6.1,-5.44 -13.1,-9.8 -20.8,-12.83 z" />
    <path
       style="fill:#ffffff"
       inkscape:connector-curvature="0"
       id="path167"
       d="m 179.4,-72.196667 v 8.23 c 0,1.68 1.4,3.05 3,3.05 H 198 c -5.5,-4.7 -11.8,-8.53 -18.6,-11.28 z" />
    <path
       style="fill:#4d4d4d"
       inkscape:connector-curvature="0"
       id="path169"
       d="m 182.3,-64.936667 c 0,1.58 1.3,2.86 2.8,2.86 h 36.3 c 1.6,0 2.9,-1.28 2.9,-2.86 v -11.18 c 0,-1.57 -1.3,-2.85 -2.9,-2.85 h -36.3 c -1.5,0 -2.8,1.28 -2.8,2.85 v 11.18 z" />
    <path
       style="fill:#9db3d0"
       inkscape:connector-curvature="0"
       id="path171"
       d="m 185.1,-77.536667 c -0.8,0 -1.4,0.64 -1.4,1.42 v 11.18 c 0,0.79 0.6,1.43 1.4,1.43 h 36.3 c 0.8,0 1.4,-0.64 1.4,-1.43 v -11.18 c 0,-0.78 -0.6,-1.42 -1.4,-1.42 h -36.3 z" />
    <rect
       style="fill:url(#XMLID_20_)"
       id="rect184"
       x="185.10001"
       y="-76.116669"
       width="36.259998"
       height="11.18" />
    <path
       style="fill:url(#XMLID_21_)"
       inkscape:connector-curvature="0"
       id="path197"
       d="m 185.1,-77.536667 v 9.77 c 12.5,-2.16 23.8,-7.14 36.3,-6.93 v -2.85 c 0,0.01 -36.3,0.01 -36.3,0.01 z" />
    <circle
       transform="translate(0,-145.06667)"
       sodipodi:ry="12.06"
       sodipodi:rx="12.06"
       sodipodi:cy="76.709999"
       sodipodi:cx="123.9"
       id="circle199"
       r="12.06"
       cx="123.9"
       cy="76.709999"
       d="m 135.96,76.709999 c 0,6.660554 -5.39944,12.060001 -12.06,12.060001 -6.66055,0 -12.06,-5.399447 -12.06,-12.060001 0,-6.660554 5.39945,-12.06 12.06,-12.06 6.66056,0 12.06,5.399446 12.06,12.06 z" />
    <path
       style="fill:#ffffff"
       inkscape:connector-curvature="0"
       id="path201"
       d="m 148.5,-75.356667 c -3.1,1.63 -5.2,4.88 -5.2,8.61 0,5.37 4.3,9.74 9.7,9.74 5.4,0 9.7,-4.37 9.7,-9.74 0,-3.9 -2.3,-7.25 -5.6,-8.81 -0.9,-0.04 -1.8,-0.07 -2.8,-0.07 -2,0 -3.9,0.1 -5.8,0.27 z" />
    <path
       inkscape:connector-curvature="0"
       id="path203"
       d="m 144.2,-66.926667 c 0,4.57 3.7,8.29 8.3,8.29 4.5,0 8.2,-3.72 8.2,-8.29 0,-4.57 -3.7,-8.28 -8.2,-8.28 -4.6,0 -8.3,3.71 -8.3,8.28 z" />
    <path
       style="fill:url(#XMLID_22_)"
       inkscape:connector-curvature="0"
       id="path216"
       d="m 116.1,-68.356667 c 0,4.29 3.5,7.78 7.8,7.78 4.3,0 7.8,-3.49 7.8,-7.78 0,-4.29 -3.5,-7.77 -7.8,-7.77 -4.3,0 -7.8,3.48 -7.8,7.77 z" />
    <path
       style="fill:url(#XMLID_23_)"
       inkscape:connector-curvature="0"
       id="path241"
       d="m 123.9,-76.026667 c -2.5,0 -4.7,1.3 -5.7,3.18 0.3,2.54 2.7,4.52 5.7,4.52 3,0 5.4,-1.95 5.7,-4.47 -1,-1.9 -3.2,-3.23 -5.7,-3.23 z" />
    <path
       style="fill:url(#XMLID_24_)"
       inkscape:connector-curvature="0"
       id="path254"
       d="m 147.1,-68.946667 c 1,1.92 2.9,3.26 5.2,3.26 2.4,0 4.5,-1.48 5.4,-3.58 -0.9,-1.98 -2.9,-3.37 -5.2,-3.37 -2.5,0 -4.5,1.54 -5.4,3.69 z" />
  </g>
  <polyline
     knockout="Off"
     points="0 256 0 0 256 0 256 256"
     id="polyline256"
     style="fill:none"
     transform="translate(0,-145.06667)" />
</svg>
