<?xml version="1.0" encoding="UTF-8" standalone="no"?>
<!-- Created with Inkscape (http://www.inkscape.org/) -->

<svg
   xmlns:dc="http://purl.org/dc/elements/1.1/"
   xmlns:cc="http://creativecommons.org/ns#"
   xmlns:rdf="http://www.w3.org/1999/02/22-rdf-syntax-ns#"
   xmlns:svg="http://www.w3.org/2000/svg"
   xmlns="http://www.w3.org/2000/svg"
   xmlns:sodipodi="http://sodipodi.sourceforge.net/DTD/sodipodi-0.dtd"
   xmlns:inkscape="http://www.inkscape.org/namespaces/inkscape"
   space="preserve"
   height="26"
   width="26"
   version="1.0"
   y="0"
   x="0"
   viewBox="0 0 110.93333 110.93333"
   id="svg2"
   inkscape:version="0.91 r13725"
   sodipodi:docname="image.svg">
  <metadata
     id="metadata262">
    <rdf:RDF>
      <cc:Work
         rdf:about="">
        <dc:format>image/svg+xml</dc:format>
        <dc:type
           rdf:resource="http://purl.org/dc/dcmitype/StillImage" />
        <dc:title></dc:title>
      </cc:Work>
    </rdf:RDF>
  </metadata>
  <defs
     id="defs260">
    <filter
       inkscape:collect="always"
       style="color-interpolation-filters:sRGB"
       id="filter4812"
       x="-0.1576226"
       width="1.3152452"
       y="-0.2341129"
       height="1.4682258">
      <feGaussianBlur
         inkscape:collect="always"
         stdDeviation="0.34334793"
         id="feGaussianBlur4814" />
    </filter>
    <filter
       inkscape:collect="always"
       style="color-interpolation-filters:sRGB"
       id="filter5020"
       x="-0.55481863"
       width="2.1096373"
       y="-0.79992817"
       height="2.5998563">
      <feGaussianBlur
         inkscape:collect="always"
         stdDeviation="1.2997683"
         id="feGaussianBlur5022" />
    </filter>
  </defs>
  <sodipodi:namedview
     pagecolor="#ffffff"
     bordercolor="#666666"
     borderopacity="1"
     objecttolerance="10"
     gridtolerance="10"
     guidetolerance="10"
     inkscape:pageopacity="0"
     inkscape:pageshadow="2"
     inkscape:window-width="1571"
     inkscape:window-height="821"
     id="namedview258"
     showgrid="false"
     inkscape:zoom="30.14733"
     inkscape:cx="13.090878"
     inkscape:cy="18.021478"
     inkscape:window-x="0"
     inkscape:window-y="0"
     inkscape:window-maximized="0"
     inkscape:current-layer="svg2" />
  <path
     d="m 14.652648,19.555469 c 0,4.007463 4.843204,7.032327 11.269574,7.032327 6.421438,0 11.264642,-3.024864 11.264642,-7.032327 0,-4.007464 -4.843204,-7.025906 -11.264642,-7.025906 -6.42637,0 -11.269574,3.018442 -11.269574,7.025906 z"
     id="path15"
     inkscape:connector-curvature="0"
     style="fill:url(#XMLID_13_)" />
  <path
     d="m 12.642842,19.407441 c 0,1.517057 4.200947,5.899665 12.217928,5.899665 8.016979,0 12.217928,-4.382608 12.217928,-5.899665 0,-1.507141 -4.200949,-5.88975 -12.217928,-5.88975 -8.016981,0 -12.217928,4.382609 -12.217928,5.88975 z"
     id="path28"
     inkscape:connector-curvature="0"
     style="fill:#a6a6a9;fill-opacity:1;stroke:#000000;stroke-width:3.07491207;stroke-miterlimit:4;stroke-dasharray:none;stroke-opacity:1" />
  <path
     d="m 5.9477028,19.512708 c -3.6250053,0 -6.56939736,3.023498 -6.56939736,6.745896 l 0,64.876079 c 0,3.74772 2.94439206,6.735767 6.56939736,6.735767 l 99.8232772,0 c 3.60034,0 6.55953,-2.988047 6.55953,-6.735767 l 0,-64.876079 c 0,-3.722398 -2.95919,-6.745896 -6.55953,-6.745896 l -99.8232772,0 z"
     id="path41"
     inkscape:connector-curvature="0"
     style="fill:#64648a;fill-opacity:1" />
  <path
     d="m 110.01248,91.129618 c 0,2.380309 -1.92347,4.355459 -4.2415,4.355459 l -99.8232772,0 c -2.3328265,0 -4.2267069,-1.97515 -4.2267069,-4.355459 l 0,-64.876078 c 0,-2.395503 1.8938804,-4.340266 4.2267069,-4.340266 l 99.8232772,0 c 2.31803,0 4.2415,1.944763 4.2415,4.340266 l 0,64.876078 z"
     id="path78"
     inkscape:connector-curvature="0"
     style="fill:#bfc2cd;fill-opacity:1;opacity:1" />
  <path
     d="m 3.1315422,91.129618 0,-64.876078 c 0,-2.395503 1.8889484,-4.340266 4.2267069,-4.340266 l -1.4105463,0 c -2.3328265,0 -4.2267069,1.944763 -4.2267069,4.340266 l 0,64.876078 c 0,2.380309 1.8938804,4.355459 4.2267069,4.355459 l 1.4105463,0 c -2.3377585,0 -4.2267069,-1.97515 -4.2267069,-4.355459 z"
     id="path80"
     inkscape:connector-curvature="0"
     style="fill:#bfbfbf" />
  <path
     d="m 105.77098,21.918339 -99.8232772,0 c -2.3328265,0 -4.2267069,1.944763 -4.2267069,4.340265 l 0,2.532244 c 0,-2.309406 1.8938804,-4.183266 4.2267069,-4.183266 l 99.8232772,0 c 2.31803,0 4.2415,1.87386 4.2415,4.183266 l 0,-2.532244 c 0,-2.395502 -1.92347,-4.340265 -4.2415,-4.340265 z"
     id="path82"
     inkscape:connector-curvature="0"
     style="opacity:0.7;fill:#ffffff" />
  <path
     d="m 33.986009,60.388182 c 0,19.751499 15.609717,35.805923 34.844439,35.805923 19.234722,0 34.869102,-16.054424 34.869102,-35.805923 0,-19.710983 -15.63438,-35.765407 -34.869102,-35.765407 -19.234722,0 -34.844439,16.054424 -34.844439,35.765407 z"
     id="path84"
     inkscape:connector-curvature="0"
     style="fill:#616161" />
  <ellipse
     cy="60.388184"
     cx="68.830452"
     id="circle86"
     style="fill:#999999"
     rx="33.912296"
     ry="34.823414" />
  <path
     d="m 35.628358,60.388182 c 0,18.839892 14.904444,34.134643 33.20209,34.134643 18.297646,0 33.192222,-15.294751 33.192222,-34.134643 0,-18.784182 -14.894576,-34.078933 -33.192222,-34.078933 -18.297646,0 -33.20209,15.294751 -33.20209,34.078933 z"
     id="path113"
     inkscape:connector-curvature="0"
     style="fill:#efeff1;fill-opacity:1" />
  <path
     d="m 51.12464,60.388182 c 0,10.027684 7.940487,18.181509 17.705808,18.181509 9.76532,0 17.705808,-8.153825 17.705808,-18.181509 0,-10.027684 -7.940488,-18.166315 -17.705808,-18.166315 -9.765321,0 -17.705808,8.138631 -17.705808,18.166315 z"
     id="path115"
     inkscape:connector-curvature="0"
     style="fill:#f7f7f7" />
  <path
     d="m 52.554914,60.388182 c 0,9.268012 7.29933,16.763452 16.275534,16.763452 8.976203,0 16.324854,-7.49544 16.324854,-16.763452 0,-9.217366 -7.348651,-16.712807 -16.324854,-16.712807 -8.976204,0 -16.275534,7.495441 -16.275534,16.712807 z"
     id="path117"
     inkscape:connector-curvature="0"
     style="fill:#666666" />
  <path
     d="m 53.738589,60.995921 c 0,8.913497 7.052731,16.155713 15.683696,16.155713 8.680285,0 15.733017,-7.242216 15.733017,-16.155713 0,-8.862853 -7.052732,-16.105069 -15.733017,-16.105069 -8.630965,0 -15.683696,7.242216 -15.683696,16.105069 z"
     id="path119"
     inkscape:connector-curvature="0"
     style="fill:#666666" />
  <path
     d="m 53.245391,60.388182 c 0,8.862853 7.003412,16.054424 15.585057,16.054424 8.581645,0 15.585057,-7.191571 15.585057,-16.054424 0,-8.812207 -7.003412,-16.003779 -15.585057,-16.003779 -8.581645,0 -15.585057,7.191572 -15.585057,16.003779 z"
     id="path132"
     inkscape:connector-curvature="0"
     style="fill:url(#XMLID_18_)" />
  <path
     d="m 53.689269,60.641407 c 0,-8.710918 6.904772,-15.750555 15.387778,-15.750555 8.433686,0 15.289138,6.988992 15.338458,15.649265 l 0,-0.151935 c 0,-8.812207 -7.003412,-16.003779 -15.585057,-16.003779 -8.581645,0 -15.585057,7.191572 -15.585057,16.003779 0,8.862853 7.003412,16.054424 15.585057,16.054424 l 0.09864,0 C 60.544721,76.341316 53.689269,69.301679 53.689269,60.641407 Z"
     id="path134"
     inkscape:connector-curvature="0"
     style="fill:#ffffff" />
  <path
     d="m 55.366142,60.388182 c 0,7.647376 6.017016,13.876695 13.464306,13.876695 7.44729,0 13.464305,-6.229319 13.464305,-13.876695 0,-7.59673 -6.017015,-13.826049 -13.464305,-13.826049 -7.44729,0 -13.464306,6.229319 -13.464306,13.826049 z"
     id="path136"
     inkscape:connector-curvature="0"
     style="fill:#999999" />
  <path
     d="m 56.05662,60.388182 c 0,7.242217 5.721096,13.117022 12.773828,13.117022 7.052731,0 12.773828,-5.874805 12.773828,-13.117022 0,-7.191571 -5.721097,-13.117021 -12.773828,-13.117021 -7.052732,0 -12.773828,5.92545 -12.773828,13.117021 z"
     id="path155"
     inkscape:connector-curvature="0"
     style="fill:#b4b4be;fill-opacity:1" />
  <path
     d="m 60.9886,60.388182 c 0,4.456749 3.501705,8.052535 7.841848,8.052535 4.340142,0 7.841848,-3.595786 7.841848,-8.052535 0,-4.406103 -3.501706,-8.052534 -7.841848,-8.052534 -4.340143,0 -7.841848,3.646431 -7.841848,8.052534 z"
     id="path157"
     inkscape:connector-curvature="0"
     style="fill:#ffffff" />
  <path
     d="m 60.9886,60.388182 c 0,4.456749 3.501705,8.052535 7.841848,8.052535 4.340142,0 7.841848,-3.595786 7.841848,-8.052535 0,-4.406103 -3.501706,-8.052534 -7.841848,-8.052534 -4.340143,0 -7.841848,3.646431 -7.841848,8.052534 z"
     id="path159"
     inkscape:connector-curvature="0" />
  <path
     d="m 68.830448,26.309249 c -0.09864,0 -0.14796,0.0051 -0.246599,0.0051 17.952407,0.136741 32.501751,15.375782 32.501751,34.073868 0,18.738602 -14.549344,33.982708 -32.501751,34.134643 l 0.246599,0 c 18.297646,0 33.192222,-15.294751 33.192222,-34.134643 0,-18.784182 -14.894576,-34.078933 -33.192222,-34.078933 z"
     id="path161"
     inkscape:connector-curvature="0"
     style="opacity:0.6;fill:#ffffff" />
  <path
     d="m 36.338564,60.388182 c 0,-18.723408 14.638116,-33.972579 32.689163,-34.073868 -0.09864,0 -0.147959,-0.0051 -0.197279,-0.0051 -18.297646,0 -33.20209,15.294751 -33.20209,34.078933 0,18.839892 14.904444,34.134643 33.20209,34.134643 l 0.197279,0 C 50.97668,94.421535 36.338564,79.126784 36.338564,60.388182 Z"
     id="path163"
     inkscape:connector-curvature="0"
     style="opacity:0.8;fill:#ffffff" />
  <path
     d="m 81.209718,27.985594 0,4.953069 c 0,0.850833 0.690477,1.544668 1.479594,1.544668 l 8.778924,0 C 88.459728,31.72825 85.007342,29.520134 81.209718,27.985594 Z"
     id="path165"
     inkscape:connector-curvature="0"
     style="fill:#999999" />
  <path
     d="m 81.209718,28.77059 0,4.168073 c 0,0.850833 0.690477,1.544668 1.479594,1.544668 l 7.693888,0 C 87.670611,32.103022 84.563464,30.163324 81.209718,28.77059 Z"
     id="path167"
     inkscape:connector-curvature="0"
     style="fill:#ffffff" />
  <path
     d="m 82.639992,32.447407 c 0,0.800189 0.641157,1.448444 1.380954,1.448444 l 17.903084,0 c 0.78912,0 1.43028,-0.648255 1.43028,-1.448444 l 0,-5.662096 c 0,-0.795125 -0.64116,-1.443379 -1.43028,-1.443379 l -17.903084,0 c -0.739797,0 -1.380954,0.648254 -1.380954,1.443379 l 0,5.662096 z"
     id="path169"
     inkscape:connector-curvature="0"
     style="fill:#4d4d4d" />
  <path
     d="m 84.020946,26.066154 c -0.394558,0 -0.690477,0.324127 -0.690477,0.719157 l 0,5.662096 c 0,0.400095 0.295919,0.724222 0.690477,0.724222 l 17.903084,0 c 0.39456,0 0.69048,-0.324127 0.69048,-0.724222 l 0,-5.662096 c 0,-0.39503 -0.29592,-0.719157 -0.69048,-0.719157 l -17.903084,0 z"
     id="path171"
     inkscape:connector-curvature="0"
     style="fill:#9db3d0" />
  <rect
     height="5.6620965"
     width="17.883358"
     y="26.785311"
     x="84.02095"
     id="rect184"
     style="fill:#7087ec;fill-opacity:1" />
  <path
     d="m 84.020946,26.066154 0,4.948004 c 6.164975,-1.09393 11.738113,-3.616044 17.903084,-3.50969 l 0,-1.443379 c 0,0.0051 -17.903084,0.0051 -17.903084,0.0051 z"
     id="path197"
     inkscape:connector-curvature="0"
     style="fill:#ced4ec;fill-opacity:1" />
  <ellipse
     cy="30.715351"
     cx="53.837231"
     id="circle199"
     rx="5.947968"
     ry="6.1077714" />
  <path
     d="m 65.969899,27.170212 c -1.528913,0.825511 -2.564629,2.47147 -2.564629,4.360523 0,2.71963 2.120751,4.932811 4.78402,4.932811 2.66327,0 4.784021,-2.213181 4.784021,-4.932811 0,-1.97515 -1.134355,-3.671753 -2.761909,-4.461813 -0.443878,-0.02026 -0.887756,-0.03545 -1.380954,-0.03545 -0.986396,0 -1.923472,0.05065 -2.860549,0.136741 z"
     id="path201"
     inkscape:connector-curvature="0"
     style="fill:#ffffff" />
  <path
     d="m 63.849148,31.439575 c 0,2.31447 1.824833,4.198459 4.093543,4.198459 2.219391,0 4.044224,-1.883989 4.044224,-4.198459 0,-2.314471 -1.824833,-4.193396 -4.044224,-4.193396 -2.26871,0 -4.093543,1.878925 -4.093543,4.193396 z"
     id="path203"
     inkscape:connector-curvature="0"
     style="opacity:1" />
  <path
     d="m 49.990284,30.715353 c 0,2.172665 1.726193,3.940171 3.846945,3.940171 2.120751,0 3.846944,-1.767506 3.846944,-3.940171 0,-2.172665 -1.726193,-3.935107 -3.846944,-3.935107 -2.120752,0 -3.846945,1.762442 -3.846945,3.935107 z"
     id="path216"
     inkscape:connector-curvature="0"
     style="fill:#384de6;fill-opacity:1" />
  <path
     d="m 53.837229,26.830891 c -1.232995,0 -2.318031,0.658384 -2.811229,1.610507 0.147959,1.28638 1.331635,2.289148 2.811229,2.289148 1.479594,0 2.663269,-0.987575 2.811228,-2.263825 -0.493198,-0.962253 -1.578233,-1.63583 -2.811228,-1.63583 z"
     id="path241"
     inkscape:connector-curvature="0"
     style="fill:#efeff1;filter:url(#filter5020);fill-opacity:1" />
  <path
     d="m 65.279422,30.416548 c 0.493198,0.972382 1.430274,1.651023 2.56463,1.651023 1.183675,0 2.219391,-0.749544 2.663269,-1.813086 -0.443878,-1.002769 -1.430274,-1.706733 -2.56463,-1.706733 -1.232995,0 -2.219391,0.779931 -2.663269,1.868796 z"
     id="path254"
     inkscape:connector-curvature="0"
     style="fill:#818183;fill-opacity:1;filter:url(#filter4812)" />
  <polyline
     knockout="Off"
     points="0 256 0 0 256 0 256 256"
     id="polyline256"
     style="fill:none"
     transform="translate(0,-145.06667)" />
</svg>
