<?xml version="1.0" encoding="UTF-8" standalone="no"?>
<!-- Created with Inkscape (http://www.inkscape.org/) -->

<svg
   xmlns:dc="http://purl.org/dc/elements/1.1/"
   xmlns:cc="http://creativecommons.org/ns#"
   xmlns:rdf="http://www.w3.org/1999/02/22-rdf-syntax-ns#"
   xmlns:svg="http://www.w3.org/2000/svg"
   xmlns="http://www.w3.org/2000/svg"
   xmlns:sodipodi="http://sodipodi.sourceforge.net/DTD/sodipodi-0.dtd"
   xmlns:inkscape="http://www.inkscape.org/namespaces/inkscape"
   space="preserve"
   height="26"
   width="26"
   version="1.0"
   y="0"
   x="0"
   viewBox="0 0 110.93333 110.93333"
   id="svg2"
   inkscape:version="0.91 r13725"
   sodipodi:docname="image.svg">
  <metadata
     id="metadata262">
    <rdf:RDF>
      <cc:Work
         rdf:about="">
        <dc:format>image/svg+xml</dc:format>
        <dc:type
           rdf:resource="http://purl.org/dc/dcmitype/StillImage" />
        <dc:title />
      </cc:Work>
    </rdf:RDF>
  </metadata>
  <defs
     id="defs260" />
  <sodipodi:namedview
     pagecolor="#ffffff"
     bordercolor="#666666"
     borderopacity="1"
     objecttolerance="10"
     gridtolerance="10"
     guidetolerance="10"
     inkscape:pageopacity="0"
     inkscape:pageshadow="2"
     inkscape:window-width="1571"
     inkscape:window-height="821"
     id="namedview258"
     showgrid="true"
     inkscape:zoom="21.317381"
     inkscape:cx="-10.054429"
     inkscape:cy="12.354631"
     inkscape:window-x="88"
     inkscape:window-y="123"
     inkscape:window-maximized="0"
     inkscape:current-layer="svg2"
     inkscape:snap-nodes="false">
    <inkscape:grid
       type="xygrid"
       id="grid4169" />
  </sodipodi:namedview>
  <path
     style="color:#000000;font-style:normal;font-variant:normal;font-weight:normal;font-stretch:normal;font-size:medium;line-height:125%;font-family:Ubuntu;-inkscape-font-specification:Ubuntu;text-align:start;letter-spacing:0px;word-spacing:0px;writing-mode:lr-tb;text-anchor:start;display:inline;overflow:visible;visibility:visible;fill:#4d4d4d;fill-opacity:1;fill-rule:nonzero;stroke:none;stroke-width:20;marker:none;enable-background:accumulate"
     id="path3812"
     d="m 58.780284,17.040519 c -11.897672,0 -14.776298,3.16635 -14.776298,3.16635 l -3.067401,7.599238 -0.844359,0.84436 -4.531838,0 c 0,-1.165816 -2.835246,-2.1109 -6.332699,-2.1109 -3.497452,0 -6.332699,0.945084 -6.332699,2.1109 -6.100812,0.04995 -10.32281,2.129868 -12.236621,5.165108 -1.9138104,3.035239 -4.6505754,13.295912 -4.6505754,25.442936 0,14.572722 2.8352463,26.386245 6.3326984,26.386245 l 29.915406,0 C 35.020046,80.475438 30.296332,72.002519 30.296332,62.424861 c 0,-15.750668 12.781516,-28.510338 28.483952,-28.510338 15.702437,0 28.477354,12.75967 28.477354,28.510338 0,9.577658 -4.71907,18.050577 -11.952969,23.219895 l 26.749061,0 c 3.49745,0 6.33269,-11.813523 6.33269,-26.386245 0,-12.147024 -2.73035,-22.390597 -4.65057,-25.442936 -1.92022,-3.05234 -6.25244,-5.165108 -12.447713,-5.165108 l -13.819795,0 -0.84436,-0.84436 -3.067401,-7.599238 c 0,0 -2.878626,-3.16635 -14.776297,-3.16635 z m 27.863874,16.887197 11.609948,0 1.05545,1.05545 0,4.221799 -1.05545,1.05545 -11.609948,0 -1.05545,-1.05545 0,-4.221799 z m -27.863874,2.1109 c -4.326277,0 -8.40933,1.043835 -12.012338,2.889293 -0.007,0.0036 -0.01281,0.0096 -0.01978,0.01319 -0.182531,0.0937 -0.367482,0.185852 -0.547514,0.283652 -0.0069,0.0037 -0.01288,0.0094 -0.01978,0.01319 -0.740367,0.403059 -1.455153,0.836366 -2.150479,1.306119 -0.0091,0.0061 -0.01733,0.0137 -0.02639,0.01978 -0.166292,0.112646 -0.337781,0.226711 -0.501338,0.343021 -0.0065,0.0046 -0.01332,0.0086 -0.01978,0.01319 -0.272224,0.193353 -0.540378,0.397018 -0.804781,0.600288 -0.06319,0.04874 -0.128564,0.09582 -0.1913,0.145124 -0.0073,0.0057 -0.01252,0.0141 -0.01978,0.01978 -0.158649,0.124948 -0.312675,0.247524 -0.468356,0.376004 -0.0774,0.06365 -0.154229,0.126797 -0.23088,0.1913 -0.08538,0.07209 -0.172819,0.144536 -0.257266,0.217687 -0.007,0.0061 -0.01277,0.01372 -0.01978,0.01978 -0.152424,0.132313 -0.305835,0.266668 -0.455162,0.40239 -0.0058,0.0053 -0.01395,0.0079 -0.01978,0.01319 -0.150302,0.13685 -0.294871,0.281936 -0.441969,0.42218 -0.0057,0.0054 -0.01414,0.0078 -0.01978,0.01319 -0.451566,0.430157 -0.886006,0.878168 -1.306119,1.339102 -0.0063,0.007 -0.01355,0.01284 -0.01978,0.01978 -4.258832,4.682461 -6.853827,10.899683 -6.853827,17.72496 0,6.606586 2.433462,12.642643 6.451437,17.269798 0.138235,0.159584 0.280216,0.318767 0.42218,0.474952 0.52543,0.576614 1.074855,1.127609 1.64914,1.655737 0.08556,0.07888 0.170667,0.15969 0.257266,0.237476 0.0522,0.04674 0.105744,0.09219 0.158318,0.138528 0.140738,0.124395 0.285387,0.247989 0.428776,0.369407 0.05321,0.04492 0.104749,0.09401 0.158318,0.138528 0.03227,0.02689 0.06654,0.05241 0.09895,0.07916 0.03875,0.03187 0.0798,0.06067 0.118738,0.09235 0.135376,0.110421 0.2648,0.222045 0.402391,0.329828 0.143779,0.1123 0.289218,0.220441 0.435373,0.329828 0.03274,0.02457 0.06609,0.04814 0.09895,0.07256 0.08357,0.06193 0.166337,0.123741 0.250669,0.184704 0.22646,0.164249 0.460835,0.324392 0.692639,0.481549 0.01153,0.0078 0.02144,0.01858 0.03298,0.02639 0.230943,0.156017 0.463165,0.306344 0.699236,0.455163 0.247771,0.156206 0.498765,0.307062 0.752008,0.455163 0.253117,0.148016 0.506801,0.289034 0.765201,0.428776 3.728378,2.016226 7.997303,3.166349 12.533466,3.166349 4.536163,0 8.805088,-1.150123 12.533466,-3.166349 0.2584,-0.139742 0.512084,-0.28076 0.765201,-0.428776 0.253243,-0.148101 0.504237,-0.298957 0.752008,-0.455163 0.236071,-0.148819 0.468293,-0.299146 0.699236,-0.455163 0.01161,-0.0078 0.02138,-0.01858 0.03298,-0.02639 0.231804,-0.157157 0.466179,-0.3173 0.692639,-0.481549 0.08437,-0.06119 0.167061,-0.122538 0.250669,-0.184704 0.03294,-0.02442 0.06612,-0.04799 0.09895,-0.07256 0.145232,-0.109028 0.292485,-0.217908 0.435373,-0.329828 0.136837,-0.106938 0.267747,-0.220294 0.402391,-0.329828 0.125786,-0.102611 0.252159,-0.205169 0.376004,-0.310039 0.143095,-0.120849 0.288323,-0.245582 0.428776,-0.369407 0.05236,-0.04627 0.106328,-0.09186 0.158318,-0.138528 0.08736,-0.07825 0.17097,-0.158085 0.257266,-0.237476 0.263807,-0.242711 0.518111,-0.492272 0.771797,-0.745411 0.148608,-0.148293 0.296928,-0.296793 0.44197,-0.448567 0.146137,-0.152915 0.292923,-0.305362 0.435373,-0.461759 0.141964,-0.156185 0.283945,-0.315368 0.42218,-0.474952 0.276747,-0.318854 0.5434,-0.644291 0.80478,-0.976291 0.261256,-0.331834 0.513251,-0.671458 0.758605,-1.015871 0.9834,-1.380425 1.833734,-2.859509 2.539676,-4.419696 0.08783,-0.194118 0.174035,-0.390527 0.257266,-0.587094 1.33709,-3.15818 2.084513,-6.625364 2.084513,-10.270846 0,-6.825277 -2.589936,-13.042499 -6.84723,-17.72496 -0.0062,-0.007 -0.01357,-0.01283 -0.01978,-0.01978 -0.283158,-0.310788 -0.579754,-0.613404 -0.877342,-0.910325 -0.391697,-0.391697 -0.791583,-0.774648 -1.207171,-1.141205 -0.211263,-0.185846 -0.429264,-0.368397 -0.646463,-0.547515 -0.0071,-0.0059 -0.01266,-0.01391 -0.01978,-0.01978 -0.276851,-0.227819 -0.558192,-0.449658 -0.84436,-0.666253 -0.04367,-0.03314 -0.08805,-0.06607 -0.131931,-0.09895 -0.0064,-0.0048 -0.01342,-0.0084 -0.01978,-0.01319 -0.173185,-0.129517 -0.344693,-0.257277 -0.521129,-0.382601 -0.852123,-0.605273 -1.742072,-1.15988 -2.66501,-1.662333 -0.193943,-0.10522 -0.390238,-0.20957 -0.587094,-0.310039 -3.60324,-1.845416 -7.686178,-2.889272 -12.012454,-2.889272 z m 0,9.499048 c 9.326541,0 16.887196,7.560651 16.887196,16.887197 0,9.326545 -7.560655,16.887196 -16.887196,16.887196 -9.326542,0 -16.887197,-7.560651 -16.887197,-16.887196 0,-9.326546 7.560655,-16.887197 16.887197,-16.887197 z"
     inkscape:connector-curvature="0" />
  <rect
     style="opacity:1;fill:#008000;fill-opacity:0.94117647;fill-rule:nonzero;stroke:none;stroke-width:8.53333282;stroke-linecap:butt;stroke-linejoin:miter;stroke-miterlimit:4;stroke-dasharray:none;stroke-dashoffset:1;stroke-opacity:0.94117647"
     id="rect4254"
     width="102.46819"
     height="7.5034008"
     x="4.7010508"
     y="87.091011" />
  <path
     style="opacity:1;fill:#ff0000;fill-opacity:0.94117647;fill-rule:nonzero;stroke:none;stroke-width:2;stroke-linecap:butt;stroke-linejoin:miter;stroke-miterlimit:4;stroke-dasharray:none;stroke-dashoffset:1;stroke-opacity:0.94117647"
     id="path4262"
     sodipodi:type="arc"
     sodipodi:cx="58.451263"
     sodipodi:cy="62.247604"
     sodipodi:rx="11.038747"
     sodipodi:ry="11.038747"
     sodipodi:start="3.1699543"
     sodipodi:end="3.1206487"
     sodipodi:open="true"
     d="M 47.416956,61.934569 A 11.038747,11.038747 0 0 1 58.628265,51.210277 11.038747,11.038747 0 0 1 69.489934,62.288545 11.038747,11.038747 0 0 1 58.546389,73.285941 11.038747,11.038747 0 0 1 47.414938,62.478782" />
  <rect
     style="opacity:1;fill:#ffff00;fill-opacity:0.94117647;fill-rule:nonzero;stroke:none;stroke-width:8.53333282;stroke-linecap:butt;stroke-linejoin:miter;stroke-miterlimit:4;stroke-dasharray:none;stroke-dashoffset:1;stroke-opacity:0.94117647"
     id="rect4260"
     width="14.410774"
     height="10.007483"
     x="85.263748"
     y="33.875713" />
</svg>
