<svg xmlns="http://www.w3.org/2000/svg" height="48" width="48" version="1.1">
 <g transform="matrix(2.4566,0,0,2.2316,-37.589,-39.022)">
  <rect fill-opacity="0" height="16" width="16" y="0" x="0"/>
 </g>
 <g transform="matrix(2.9379,0,0,2.1996,2.1067,22.422)">
  <rect fill-opacity="0" height="16" width="16" y="0" x="0"/>
 </g>
 <rect fill-opacity="0" height="38.871" width="43.287" y="-47.036" x="-74.787"/>
 <g transform="matrix(2.9804,0,0,2.6654,-59.032,-7.5565)">
  <rect fill-opacity="0" height="16" width="16" y="0" x="0"/>
 </g>
 <g transform="matrix(2.9202 0 0 2.99 .60178 7.9092)">
  <rect fill-opacity="0" height="16" width="16" y="0" x="0"/>
 </g>
 <g transform="matrix(0,-2.0442,1.9782,0,19.59,5.037)">
  <g stroke-linejoin="round">
   <rect transform="rotate(90)" height="14.619" width="9.7086" stroke="#000" y="3.4905" x="1.904" stroke-width="0.4" fill="#fff"/>
   <path d="m693.26 625.06a18.914 18.914 0 0 1 -37.828 0.11702" transform="matrix(0 .071482 -.071482 0 41.168 -41.24)" stroke="#030303" stroke-width="5.5958" fill="none"/>
  </g>
  <g stroke-linejoin="round" transform="translate(-.0375 -.15)" stroke="#030303">
   <rect transform="rotate(90)" height="2.511" width="4.7176" y="13.332" x="-.31959" stroke-width="0.3" fill="#ff7800"/>
   <rect transform="rotate(90)" height="2.511" width="4.7176" y="5.3636" x="-.31959" stroke-width="0.3" fill="#ff7800"/>
   <path d="m654.65 737.28a9.5805 9.5805 0 1 1 -19.161 0 9.5805 9.5805 0 1 1 19.161 0z" transform="matrix(0 .071482 -.071482 0 46.083 -44.072)" stroke-width="4.1969" fill="#ffede0"/>
   <rect transform="rotate(90)" height="2.511" width="4.7176" y="9.3478" x="-.31959" stroke-width="0.3" fill="#ff7800"/>
   <path d="m654.65 737.28a9.5805 9.5805 0 1 1 -19.161 0 9.5805 9.5805 0 1 1 19.161 0z" transform="matrix(0 .071482 -.071482 0 42.08 -44.072)" stroke-width="4.1969" fill="#ffede0"/>
   <path d="m654.65 737.28a9.5805 9.5805 0 1 1 -19.161 0 9.5805 9.5805 0 1 1 19.161 0z" transform="matrix(0 .071482 -.071482 0 38.077 -44.072)" stroke-width="4.1969" fill="#ffede0"/>
  </g>
  <g transform="translate(-.0375 9.6261)">
   <rect stroke-linejoin="round" transform="rotate(90)" height="2.511" width="4.7176" stroke="#030303" y="13.332" x="-.31959" stroke-width="0.3" fill="#ff7800"/>
   <rect stroke-linejoin="round" transform="rotate(90)" height="2.511" width="4.7176" stroke="#030303" y="5.3636" x="-.31959" stroke-width="0.3" fill="#ff7800"/>
   <path stroke-linejoin="round" d="m654.65 737.28a9.5805 9.5805 0 1 1 -19.161 0 9.5805 9.5805 0 1 1 19.161 0z" transform="matrix(0 .071482 -.071482 0 46.083 -44.072)" stroke="#030303" stroke-width="4.1969" fill="#ffede0"/>
   <rect stroke-linejoin="round" transform="rotate(90)" height="2.511" width="4.7176" stroke="#030303" y="9.3478" x="-.31959" stroke-width="0.3" fill="#ff7800"/>
   <path stroke-linejoin="round" d="m654.65 737.28a9.5805 9.5805 0 1 1 -19.161 0 9.5805 9.5805 0 1 1 19.161 0z" transform="matrix(0 .071482 -.071482 0 42.08 -44.072)" stroke="#030303" stroke-width="4.1969" fill="#ffede0"/>
   <g stroke-width="0.3">
    <path stroke-linejoin="round" d="m654.65 737.28a9.5805 9.5805 0 1 1 -19.161 0 9.5805 9.5805 0 1 1 19.161 0z" transform="matrix(0 .071482 -.071482 0 38.077 -44.072)" stroke="#030303" stroke-width="4.1969" fill="#ffede0"/>
   </g>
  </g>
 </g>
 <g fill-rule="evenodd" transform="matrix(2.4236,0,0,3.1223,-13.499,48.548)">
  <path d="m12-8.441 0.03913-2.8961 3.9609 4.3961-4 4.5v-3c-3.5 0-5.4609-2-5.4609-6h2.9609c0 2 1 3 2.5 3z"/>
  <path fill="#00bd00" d="m12.5-7.941v-1.5l2.5 2.5-2.5 3v-2c-2 0-5-0.5-5-4.5h1.5c0 2 2 2.5 3.5 2.5z"/>
 </g>
</svg>
