<svg xmlns="http://www.w3.org/2000/svg" height="48" width="48" version="1.1">
 <defs>
  <radialGradient id="o" gradientUnits="userSpaceOnUse" cy="112.3" cx="102" gradientTransform="translate(0,4)" r="139.56">
   <stop stop-color="#00537d" offset="0"/>
   <stop stop-color="#186389" offset=".0151"/>
   <stop stop-color="#558ca8" offset=".0558"/>
   <stop stop-color="#89afc3" offset=".0964"/>
   <stop stop-color="#b3ccd8" offset=".1357"/>
   <stop stop-color="#d4e2e9" offset=".1737"/>
   <stop stop-color="#ecf2f5" offset=".20990"/>
   <stop stop-color="#fafcfd" offset=".24350"/>
   <stop stop-color="#fff" offset=".27220"/>
  </radialGradient>
  <radialGradient id="p" gradientUnits="userSpaceOnUse" cy="112.3" cx="102" gradientTransform="translate(0,4)" r="139.56">
   <stop stop-color="#535557" offset="0"/>
   <stop stop-color="#898a8c" offset=".11366"/>
   <stop stop-color="#ececec" offset=".20297"/>
   <stop stop-color="#fafafa" offset=".23630"/>
   <stop stop-color="#fff" offset=".27220"/>
   <stop stop-color="#fafafa" offset=".53130"/>
   <stop stop-color="#ebecec" offset=".84490"/>
   <stop stop-color="#e1e2e3" offset="1"/>
  </radialGradient>
  <linearGradient id="i" y2="94.537" gradientUnits="userSpaceOnUse" x2="86.536" y1="102.34" x1="94.344">
   <stop stop-color="#fff" offset="0"/>
   <stop stop-color="#555753" offset="1"/>
  </linearGradient>
  <linearGradient id="j" y2="94.587" gradientUnits="userSpaceOnUse" x2="86.587" y1="103" x1="95">
   <stop stop-color="#fff" offset="0"/>
   <stop stop-color="#555753" offset="1"/>
  </linearGradient>
  <linearGradient id="k" y2="95.293" gradientUnits="userSpaceOnUse" x2="87.293" y1="103" x1="95">
   <stop stop-color="#fff" offset="0"/>
   <stop stop-color="#393b38" offset="1"/>
  </linearGradient>
  <linearGradient id="l" y2="96" gradientUnits="userSpaceOnUse" x2="88" y1="104" x1="96">
   <stop stop-color="#888a85" offset="0"/>
   <stop stop-color="#8c8e89" offset=".0072"/>
   <stop stop-color="#abaca9" offset=".0673"/>
   <stop stop-color="#c5c6c4" offset=".1347"/>
   <stop stop-color="#dbdbda" offset=".2115"/>
   <stop stop-color="#ebebeb" offset=".3012"/>
   <stop stop-color="#f7f7f6" offset=".4122"/>
   <stop stop-color="#fdfdfd" offset=".5679"/>
   <stop stop-color="#fff" offset="1"/>
  </linearGradient>
  <linearGradient id="m" y2="56.231" gradientUnits="userSpaceOnUse" x2="2.7471" gradientTransform="matrix(-.37672 0 0 -.40275 28.619 48.2)" y1="56.231" x1="64.13">
   <stop stop-color="#646464" offset="0"/>
   <stop stop-color="#7e7e7e" offset="0"/>
   <stop stop-color="#999" stop-opacity=".58763" offset="0.9"/>
   <stop stop-color="#ccc" stop-opacity=".61856" offset="0.95"/>
   <stop stop-color="#fff" stop-opacity="0" offset="1"/>
  </linearGradient>
  <linearGradient id="n" y2="47.404" gradientUnits="userSpaceOnUse" x2="4" gradientTransform="matrix(-.37672 0 0 -.40275 28.619 48.207)" y1="47.404" x1="72">
   <stop stop-color="#fff" offset="0"/>
   <stop stop-color="#fff" offset=".5"/>
   <stop stop-color="#fff" stop-opacity="0" offset="1"/>
  </linearGradient>
 </defs>
 <g transform="matrix(.37864 0 0 -.40192 4.0855 51.522)">
  <g transform="translate(0,4)">
   <path opacity=".1" d="m16 4c-2.206 0-4 1.794-4 4v110c0 3.309 2.691 6 6 6h59.172c1.299 0 2.545-0.487 3.641-1.354 0.128-0.053 0.257-0.107 0.257-0.107 0.098-0.073 12.134-10.086 17.759-15.711 5.374-5.371 14.61-16.425 15.646-17.667 0.91-0.882 1.52-2.439 1.52-3.989v-77.172c0-2.206-1.794-4-4-4h-96z"/>
   <path opacity=".15" d="m16 5c-1.654 0-3 1.346-3 3v110c0 2.757 2.243 5 5 5h59.172c1.189 0 2.282-0.47 3.182-1.229 0.042-0.021 0.09-0.014 0.129-0.042 0.079-0.06 12.017-9.986 17.639-15.608 5.312-5.31 14.55-16.358 15.585-17.601 0.785-0.764 1.294-2.043 1.294-3.349v-77.171c0-1.654-1.346-3-3-3h-96z"/>
   <path opacity=".2" d="m16 6c-1.103 0-2 0.897-2 2v110c0 2.206 1.794 4 4 4h59.172c1.068 0 2.072-0.416 2.828-1.172-0.035 0.036-0.074 0.068-0.114 0.099 0.076-0.057 11.96-9.944 17.528-15.513 5.265-5.264 14.49-16.294 15.524-17.534 0.65-0.644 1.06-1.65 1.06-2.708v-77.172c0-1.103-0.897-2-2-2h-96z"/>
   <path opacity=".25" d="m16 7c-0.552 0-1 0.448-1 1v110c0 1.654 1.346 3 3 3h59.172c0.801 0 1.555-0.312 2.121-0.879 0.052-0.038 11.945-9.945 17.414-15.414s15.376-17.362 15.476-17.481c0.51-0.499 0.82-1.253 0.82-2.054v-77.172c0-0.552-0.447-1-1-1h-96z"/>
  </g>
  <path fill="url(#o)" d="m16 12v110c0 1.104 0.896 2 2 2h59.172c0.53 0 1.039-0.211 1.414-0.586l32.824-32.812c0.38-0.375 0.59-0.884 0.59-1.414v-77.172h-96z"/>
  <path fill="url(#p)" d="m18 13c-0.551 0-1 0.449-1 1v108c0 0.552 0.449 1 1 1h59.172c0.263 0 0.521-0.106 0.707-0.293l32.831-32.84c0.18-0.187 0.29-0.444 0.29-0.707v-75.172c0-0.551-0.448-1-1-1h-92z"/>
  <g transform="translate(0,4)">
   <path opacity=".1" fill="url(#i)" d="m111.41 86.586c0.25-0.25-18.375 6.414-23.41 6.414-1.654 0-3 1.346-3 3 0 5.035-6.664 23.664-6.414 23.414l32.828-32.828z"/>
   <path opacity=".1" fill="url(#j)" d="m111.41 86.586c0.38-0.375-13.966 7.414-23.41 7.414-1.103 0-2 0.897-2 2 0 9.444-7.789 23.789-7.414 23.414l32.828-32.828z"/>
   <path opacity=".1" fill="url(#k)" d="m111.41 86.586c0.24-0.239-13.603 8.414-23.41 8.414-0.553 0-1 0.447-1 1 0 9.807-8.653 23.653-8.414 23.414l32.828-32.828z"/>
   <path fill="url(#l)" d="m78.586 119.41s11.914-9.914 17.414-15.414 15.414-17.414 15.414-17.414-13.164 9.414-23.414 9.414c0 10.25-9.414 23.414-9.414 23.414z"/>
  </g>
 </g>
 <g transform="translate(.2 -10.8)">
  <path fill="url(#m)" d="m13.68 12.758c0.35559 0.03113 0.68932 0.19616 0.94179 0.46568l3.0137 3.222c0.54497 0.58285 0.59068 1.5114 0.10595 2.1522l-4.0732 5.4371h13.444c0.83218 0.000088 1.5068 0.72131 1.5069 1.611v4.833c-0.000084 0.8897-0.67468 1.6109-1.5069 1.611h-13.444l4.0732 5.4371c0.48473 0.64079 0.43902 1.5694-0.10595 2.1522l-3.0137 3.222c-0.28867 0.30883-0.6865 0.48539-1.0948 0.47827-0.40833-0.0071-0.79218-0.1973-1.0713-0.51602l-12.055-13.693c-0.55006-0.62128-0.55006-1.5938 0-2.2151l12.054-13.694c0.3148-0.35886 0.76573-0.54428 1.2243-0.50344zm-0.1295 1.611-12.055 13.694 12.055 13.694 3.0137-3.222-6.0275-8.055h16.575v-4.833h-16.575l6.0275-8.055-3.0137-3.222z"/>
  <path fill="url(#n)" d="m16.564 17.598-3.014-3.222-12.055 13.694 12.055 13.693 3.014-3.222-6.028-8.055h16.575v-4.833h-16.575l6.0275-8.055z"/>
 </g>
 <text style="word-spacing:0px;letter-spacing:0px" xml:space="preserve" transform="scale(.97453 1.0261)" line-height="125%" font-size="38.981px" y="44.584892" x="0.50913376" font-family="Sans" fill="#505050"><tspan style="word-spacing:0px;letter-spacing:-.74064px" font-weight="bold" font-size="16px" y="44.584892" x="0.50913376" font-family="Garuda" fill="#505050">BACK</tspan></text>
</svg>
