<?xml version="1.0" encoding="UTF-8" standalone="no"?>
<svg
   xmlns:dc="http://purl.org/dc/elements/1.1/"
   xmlns:cc="http://creativecommons.org/ns#"
   xmlns:rdf="http://www.w3.org/1999/02/22-rdf-syntax-ns#"
   xmlns:svg="http://www.w3.org/2000/svg"
   xmlns="http://www.w3.org/2000/svg"
   xmlns:sodipodi="http://sodipodi.sourceforge.net/DTD/sodipodi-0.dtd"
   xmlns:inkscape="http://www.inkscape.org/namespaces/inkscape"
   height="48"
   width="48"
   version="1.1"
   id="svg2"
   inkscape:version="0.47 r22583"
   sodipodi:docname="import_cmp_from_lib.svg">
  <metadata
     id="metadata70">
    <rdf:RDF>
      <cc:Work
         rdf:about="">
        <dc:format>image/svg+xml</dc:format>
        <dc:type
           rdf:resource="http://purl.org/dc/dcmitype/StillImage" />
      </cc:Work>
    </rdf:RDF>
  </metadata>
  <defs
     id="defs68">
    <inkscape:perspective
       sodipodi:type="inkscape:persp3d"
       inkscape:vp_x="0 : 24 : 1"
       inkscape:vp_y="0 : 1000 : 0"
       inkscape:vp_z="48 : 24 : 1"
       inkscape:persp3d-origin="24 : 16 : 1"
       id="perspective72" />
  </defs>
  <sodipodi:namedview
     pagecolor="#ffffff"
     bordercolor="#666666"
     borderopacity="1"
     objecttolerance="10"
     gridtolerance="10"
     guidetolerance="10"
     inkscape:pageopacity="0"
     inkscape:pageshadow="2"
     inkscape:window-width="1280"
     inkscape:window-height="949"
     id="namedview66"
     showgrid="false"
     inkscape:zoom="4.9166667"
     inkscape:cx="24"
     inkscape:cy="39.864407"
     inkscape:window-x="0"
     inkscape:window-y="25"
     inkscape:window-maximized="1"
     inkscape:current-layer="svg2" />
  <g
     transform="matrix(2.9379,0,0,2.1996,1.4965306,19.98132)"
     id="g8">
    <rect
       height="16"
       width="16"
       y="0"
       x="0"
       id="rect10"
       style="fill-opacity:0" />
  </g>
  <g
     transform="matrix(2.9202,0,0,2.99,-0.00838949,5.4685224)"
     id="g18">
    <rect
       height="16"
       width="16"
       y="0"
       x="0"
       id="rect20"
       style="fill-opacity:0" />
  </g>
  <g
     transform="matrix(0,-2.0442,1.9782,0,18.97983,2.5963224)"
     id="g22">
    <g
       id="g24"
       style="stroke-linejoin:round">
      <rect
         transform="matrix(0,1,-1,0,0,0)"
         height="14.619"
         width="9.7086"
         y="3.4905"
         x="1.904"
         id="rect26"
         style="fill:#ffffff;stroke:#000000;stroke-width:0.40000001" />
      <path
         d="m 693.26,625.06 a 18.91409,18.91409 0 0 1 -37.828,0.11702"
         transform="matrix(0,0.071482,-0.071482,0,41.168,-41.24)"
         id="path28"
         style="fill:none;stroke:#030303;stroke-width:5.59579992" />
    </g>
    <g
       transform="translate(-0.0375,-0.15)"
       id="g30"
       style="stroke:#030303;stroke-linejoin:round">
      <rect
         transform="matrix(0,1,-1,0,0,0)"
         height="2.5109999"
         width="4.7175999"
         y="13.332"
         x="-0.31959"
         id="rect32"
         style="fill:#ff7800;stroke-width:0.30000001" />
      <rect
         transform="matrix(0,1,-1,0,0,0)"
         height="2.5109999"
         width="4.7175999"
         y="5.3635998"
         x="-0.31959"
         id="rect34"
         style="fill:#ff7800;stroke-width:0.30000001" />
      <path
         d="m 654.65,737.28 a 9.5805,9.5805 0 1 1 -19.161,0 9.5805,9.5805 0 1 1 19.161,0 z"
         transform="matrix(0,0.071482,-0.071482,0,46.083,-44.072)"
         id="path36"
         style="fill:#ffede0;stroke-width:4.19689989" />
      <rect
         transform="matrix(0,1,-1,0,0,0)"
         height="2.5109999"
         width="4.7175999"
         y="9.3478003"
         x="-0.31959"
         id="rect38"
         style="fill:#ff7800;stroke-width:0.30000001" />
      <path
         d="m 654.65,737.28 a 9.5805,9.5805 0 1 1 -19.161,0 9.5805,9.5805 0 1 1 19.161,0 z"
         transform="matrix(0,0.071482,-0.071482,0,42.08,-44.072)"
         id="path40"
         style="fill:#ffede0;stroke-width:4.19689989" />
      <path
         d="m 654.65,737.28 a 9.5805,9.5805 0 1 1 -19.161,0 9.5805,9.5805 0 1 1 19.161,0 z"
         transform="matrix(0,0.071482,-0.071482,0,38.077,-44.072)"
         id="path42"
         style="fill:#ffede0;stroke-width:4.19689989" />
    </g>
    <g
       transform="translate(-0.0375,9.6261)"
       id="g44">
      <rect
         transform="matrix(0,1,-1,0,0,0)"
         height="2.5109999"
         width="4.7175999"
         y="13.332"
         x="-0.31959"
         id="rect46"
         style="fill:#ff7800;stroke:#030303;stroke-width:0.30000001;stroke-linejoin:round" />
      <rect
         transform="matrix(0,1,-1,0,0,0)"
         height="2.5109999"
         width="4.7175999"
         y="5.3635998"
         x="-0.31959"
         id="rect48"
         style="fill:#ff7800;stroke:#030303;stroke-width:0.30000001;stroke-linejoin:round" />
      <path
         d="m 654.65,737.28 a 9.5805,9.5805 0 1 1 -19.161,0 9.5805,9.5805 0 1 1 19.161,0 z"
         transform="matrix(0,0.071482,-0.071482,0,46.083,-44.072)"
         id="path50"
         style="fill:#ffede0;stroke:#030303;stroke-width:4.19689989;stroke-linejoin:round" />
      <rect
         transform="matrix(0,1,-1,0,0,0)"
         height="2.5109999"
         width="4.7175999"
         y="9.3478003"
         x="-0.31959"
         id="rect52"
         style="fill:#ff7800;stroke:#030303;stroke-width:0.30000001;stroke-linejoin:round" />
      <path
         d="m 654.65,737.28 a 9.5805,9.5805 0 1 1 -19.161,0 9.5805,9.5805 0 1 1 19.161,0 z"
         transform="matrix(0,0.071482,-0.071482,0,42.08,-44.072)"
         id="path54"
         style="fill:#ffede0;stroke:#030303;stroke-width:4.19689989;stroke-linejoin:round" />
      <g
         id="g56"
         style="stroke-width:0.30000001">
        <path
           d="m 654.65,737.28 a 9.5805,9.5805 0 1 1 -19.161,0 9.5805,9.5805 0 1 1 19.161,0 z"
           transform="matrix(0,0.071482,-0.071482,0,38.077,-44.072)"
           id="path58"
           style="fill:#ffede0;stroke:#030303;stroke-width:4.19689989;stroke-linejoin:round" />
      </g>
    </g>
  </g>
  <g
     transform="matrix(2.4236,0,0,3.1223,-14.10917,46.10732)"
     id="g60"
     style="fill-rule:evenodd">
    <path
       d="m 12,-8.441 0.03913,-2.8961 3.9609,4.3961 -4,4.5 v -3 c -3.5,0 -5.4609,-2 -5.4609,-6 h 2.9609 c 0,2 1,3 2.5,3 z"
       id="path62" />
    <path
       d="m 12.5,-7.941 v -1.5 l 2.5,2.5 -2.5,3 v -2 c -2,0 -5,-0.5 -5,-4.5 H 9 c 0,2 2,2.5 3.5,2.5 z"
       id="path64"
       style="fill:#00bd00" />
  </g>
</svg>
