<svg id="Слой_1" data-name="Слой 1"
  xmlns:cc="http://creativecommons.org/ns#"
  xmlns:rdf="http://www.w3.org/1999/02/22-rdf-syntax-ns#"
  xmlns="http://www.w3.org/2000/svg" viewBox="0 0 26 26">
  <metadata id="metadata43">
    <rdf:RDF>
      <cc:Work rdf:about="">
        <cc:license rdf:resource="http://creativecommons.org/licenses/by/4.0/" />
      </cc:Work>
      <cc:License rdf:about="http://creativecommons.org/licenses/by/4.0/">
        <cc:permits rdf:resource="http://creativecommons.org/ns#Reproduction" />
        <cc:permits rdf:resource="http://creativecommons.org/ns#Distribution" />
        <cc:requires rdf:resource="http://creativecommons.org/ns#Notice" />
        <cc:requires rdf:resource="http://creativecommons.org/ns#Attribution" />
        <cc:permits rdf:resource="http://creativecommons.org/ns#DerivativeWorks" />
      </cc:License>
    </rdf:RDF>
  </metadata>
  <defs>
    <style>.cls-1{fill:#b9b9b9;}.cls-2{fill:#1a81c4;}.cls-3,.cls-4,.cls-7{fill:none;stroke-linejoin:round;}.cls-3{stroke:#1a81c4;}.cls-4{stroke:#545454;}.cls-4,.cls-7{stroke-linecap:round;}.cls-5{fill:#545454;}.cls-6{fill:#e61c50;}.cls-7{stroke:#f5f5f5;stroke-width:2px;}</style>
  </defs>
  <title>import_hierarchical_label</title>
  <path class="cls-1" d="M3.4923,1h9.9969A2.4992,2.4992,0,0,1,15.9884,3.5v9.9968a2.4993,2.4993,0,0,1-2.4993,2.4993H3.4924A2.4993,2.4993,0,0,1,.9931,13.4964V3.5A2.4992,2.4992,0,0,1,3.4923,1Z"/>
  <path class="cls-2" d="M4.4778,1.9859h9.9969a2.4992,2.4992,0,0,1,2.4992,2.4992v9.9968a2.4993,2.4993,0,0,1-2.4993,2.4993H4.4779a2.4993,2.4993,0,0,1-2.4993-2.4993V4.4851A2.4992,2.4992,0,0,1,4.4778,1.9859Z"/>
  <path class="cls-1" d="M5.4794,2.9919h9.9969a2.4992,2.4992,0,0,1,2.4992,2.4992v9.9968a2.4993,2.4993,0,0,1-2.4993,2.4993H5.4795A2.4993,2.4993,0,0,1,2.98,15.4879V5.4911A2.4992,2.4992,0,0,1,5.4794,2.9919Z"/>
  <line class="cls-3" x1="16.3316" y1="10.2071" x2="18.0122" y2="10.2071"/>
  <polygon class="cls-4" points="10.373 13.14 13.758 13.14 16.332 10.207 13.758 7.236 10.373 7.236 10.373 13.14"/>
  <path class="cls-5" d="M7.8459,11.766H5.1108l-.6186,1.6813H3.5911L6.1156,6.9191h.7572l2.484,6.5282H8.4557Zm-2.4615-.74H7.5817L6.5054,8.0537H6.4783Z"/>
  <ellipse class="cls-6" cx="17.9975" cy="18" rx="7.0065" ry="7"/>
  <line class="cls-7" x1="17.8936" y1="21.3688" x2="17.8936" y2="14.3688"/>
  <polyline class="cls-7" points="20.649 18.836 17.894 21.588 15.139 18.836"/>
</svg>