<svg id="Слой_1" data-name="Слой 1"
  xmlns:dc="http://purl.org/dc/elements/1.1/"
  xmlns:cc="http://creativecommons.org/ns#"
  xmlns:rdf="http://www.w3.org/1999/02/22-rdf-syntax-ns#"
  xmlns="http://www.w3.org/2000/svg"
  xmlns:sodipodi="http://sodipodi.sourceforge.net/DTD/sodipodi-0.dtd"
  xmlns:inkscape="http://www.inkscape.org/namespaces/inkscape" viewBox="0 0 26 26">
  <sodipodi:namedview pagecolor="#ffffff" bordercolor="#666666" borderopacity="1" objecttolerance="10" gridtolerance="10" guidetolerance="10" inkscape:pageopacity="0" inkscape:pageshadow="2" inkscape:window-width="1609" inkscape:window-height="1286" id="namedview30" showgrid="true" inkscape:zoom="27.961538" inkscape:cx="13" inkscape:cy="13" inkscape:window-x="0" inkscape:window-y="37" inkscape:window-maximized="0">
    <inkscape:grid type="xygrid" id="grid_kicad" spacingx="0.5" spacingy="0.5" color="#9999ff" opacity="0.13" empspacing="2" />
  </sodipodi:namedview>
  <metadata id="metadata43">
    <rdf:RDF>
      <cc:Work rdf:about="">
        <cc:license rdf:resource="http://creativecommons.org/licenses/by-sa/4.0/" />
        <dc:format>image/svg+xml</dc:format>
        <dc:type rdf:resource="http://purl.org/dc/dcmitype/StillImage" />
        <dc:title>add_arc</dc:title>
      </cc:Work>
      <cc:License rdf:about="http://creativecommons.org/licenses/by-sa/4.0/">
        <cc:permits rdf:resource="http://creativecommons.org/ns#Reproduction" />
        <cc:permits rdf:resource="http://creativecommons.org/ns#Distribution" />
        <cc:requires rdf:resource="http://creativecommons.org/ns#Notice" />
        <cc:requires rdf:resource="http://creativecommons.org/ns#Attribution" />
        <cc:permits rdf:resource="http://creativecommons.org/ns#DerivativeWorks" />
        <cc:requires rdf:resource="http://creativecommons.org/ns#ShareAlike" />
      </cc:License>
    </rdf:RDF>
  </metadata>
  <defs>
    <style>.cls-1{fill:#ededed;}.cls-2{fill:#d8d8d8;}.cls-3{fill:#b9b9b9;}.cls-4{fill:#1a81c4;}.cls-5,.cls-7{fill:none;stroke-linecap:round;stroke-linejoin:round;}.cls-5{stroke:#545454;}.cls-6{fill:#e61c50;}.cls-7{stroke:#f5f5f5;stroke-width:2px;}</style>
  </defs>
  <title>import_project</title>
  <rect class="cls-1" x="5.0342" y="2.9897" width="16.9934" height="18.9634"/>
  <rect class="cls-2" x="4.0311" y="2.057" width="16.9934" height="19.9383"/>
  <rect class="cls-3" x="3.0105" y="1.0047" width="16.9934" height="20.9906"/>
  <path class="cls-4" d="M4.1005,4.9805H1.9892a1,1,0,0,1,0-2H4.1005a1,1,0,0,1,0,2Z"/>
  <path class="cls-4" d="M4.1005,10.001H1.9892a1,1,0,0,1,0-2H4.1005a1,1,0,0,1,0,2Z"/>
  <path class="cls-4" d="M4.1005,15.0225H1.9892a1,1,0,0,1,0-2H4.1005a1,1,0,0,1,0,2Z"/>
  <path class="cls-4" d="M4.1005,20.0439H1.9892a1,1,0,0,1,0-2H4.1005a1,1,0,0,1,0,2Z"/>
  <line class="cls-5" x1="7.9489" y1="7.2651" x2="12.3131" y2="7.2651"/>
  <line class="cls-5" x1="7.9489" y1="9.6114" x2="17.0996" y2="9.6114"/>
  <line class="cls-5" x1="7.9489" y1="11.9578" x2="17.0996" y2="11.9578"/>
  <path class="cls-6" d="M25.0108,17.9961a7.0065,7.0065,0,1,1-7.0066-7A7.0032,7.0032,0,0,1,25.0108,17.9961Z"/>
  <line class="cls-7" x1="18.1081" y1="21.4079" x2="18.1081" y2="14.4079"/>
  <polyline class="cls-7" points="20.863 18.875 18.108 21.627 15.353 18.875"/>
</svg>