<svg id="Слой_1" data-name="Слой 1"
  xmlns:dc="http://purl.org/dc/elements/1.1/"
  xmlns:cc="http://creativecommons.org/ns#"
  xmlns:rdf="http://www.w3.org/1999/02/22-rdf-syntax-ns#"
  xmlns="http://www.w3.org/2000/svg" viewBox="0 0 26 26">
  <metadata id="metadata43">
    <rdf:RDF>
      <cc:Work rdf:about="">
        <cc:license rdf:resource="http://creativecommons.org/licenses/by-sa/4.0/" />
        <dc:format>image/svg+xml</dc:format>
        <dc:type rdf:resource="http://purl.org/dc/dcmitype/StillImage" />
        <dc:title>add_arc</dc:title>
      </cc:Work>
      <cc:License rdf:about="http://creativecommons.org/licenses/by-sa/4.0/">
        <cc:permits rdf:resource="http://creativecommons.org/ns#Reproduction" />
        <cc:permits rdf:resource="http://creativecommons.org/ns#Distribution" />
        <cc:requires rdf:resource="http://creativecommons.org/ns#Notice" />
        <cc:requires rdf:resource="http://creativecommons.org/ns#Attribution" />
        <cc:permits rdf:resource="http://creativecommons.org/ns#DerivativeWorks" />
        <cc:requires rdf:resource="http://creativecommons.org/ns#ShareAlike" />
      </cc:License>
    </rdf:RDF>
  </metadata>
  <defs>
    <style>.cls-1,.cls-7{fill:none;stroke-linecap:round;stroke-linejoin:round;}.cls-1{stroke:#b9b9b9;}.cls-2{fill:#333;}.cls-3{fill:#545454;}.cls-4{fill:#686868;}.cls-5{fill:#1a81c4;}.cls-6{fill:#e61c50;}.cls-7{stroke:#f5f5f5;stroke-width:2px;}</style>
  </defs>
  <title>import3d</title>
  <line class="cls-1" x1="6.1466" y1="17.8413" x2="6.1466" y2="24.3456"/>
  <line class="cls-1" x1="12.614" y1="17.8413" x2="12.614" y2="24.3456"/>
  <rect class="cls-2" x="2.0075" y="2.6542" width="14.0805" height="10.0092"/>
  <polygon class="cls-3" points="16.088 2.654 2.007 2.654 3.058 0.98 15.038 0.98 16.088 2.654"/>
  <polygon class="cls-4" points="2.007 12.663 16.088 12.663 15.038 14.337 3.058 14.337 2.007 12.663"/>
  <polygon class="cls-3" points="16.088 15.997 2.007 15.997 3.058 14.324 15.038 14.324 16.088 15.997"/>
  <rect class="cls-2" x="2.0075" y="15.9974" width="14.0805" height="2.0009"/>
  <rect class="cls-5" x="0.9938" y="19.011" width="22.3253" height="1.9814"/>
  <path class="cls-6" d="M25.0057,17.9993a7.0065,7.0065,0,1,1-7.0066-7A7.0032,7.0032,0,0,1,25.0057,17.9993Z"/>
  <line class="cls-7" x1="18.1031" y1="21.4111" x2="18.1031" y2="14.4111"/>
  <polyline class="cls-7" points="20.858 18.878 18.103 21.63 15.348 18.878"/>
</svg>