<svg id="Слой_1" data-name="Слой 1"
  xmlns:dc="http://purl.org/dc/elements/1.1/"
  xmlns:cc="http://creativecommons.org/ns#"
  xmlns:rdf="http://www.w3.org/1999/02/22-rdf-syntax-ns#"
  xmlns="http://www.w3.org/2000/svg" viewBox="0 0 26 26">
  <metadata id="metadata43">
    <rdf:RDF>
      <cc:Work rdf:about="">
        <cc:license rdf:resource="http://creativecommons.org/licenses/by-sa/4.0/" />
        <dc:format>image/svg+xml</dc:format>
        <dc:type rdf:resource="http://purl.org/dc/dcmitype/StillImage" />
        <dc:title>add_arc</dc:title>
      </cc:Work>
      <cc:License rdf:about="http://creativecommons.org/licenses/by-sa/4.0/">
        <cc:permits rdf:resource="http://creativecommons.org/ns#Reproduction" />
        <cc:permits rdf:resource="http://creativecommons.org/ns#Distribution" />
        <cc:requires rdf:resource="http://creativecommons.org/ns#Notice" />
        <cc:requires rdf:resource="http://creativecommons.org/ns#Attribution" />
        <cc:permits rdf:resource="http://creativecommons.org/ns#DerivativeWorks" />
        <cc:requires rdf:resource="http://creativecommons.org/ns#ShareAlike" />
      </cc:License>
    </rdf:RDF>
  </metadata>
  <defs>
    <style>.cls-1,.cls-4{fill:none;stroke-linecap:round;stroke-linejoin:round;}.cls-1{stroke:#545454;}.cls-2{fill:#1a81c4;}.cls-3{fill:#e61c50;}.cls-4{stroke:#f5f5f5;stroke-width:2px;}</style>
  </defs>
  <title>import_module</title>
  <polygon class="cls-1" points="2.996 12.335 1.247 13.911 1.247 18.938 21.508 18.938 21.524 4.066 1.247 4.066 1.247 8.586 2.996 10.161 2.996 12.335"/>
  <rect class="cls-2" x="14.8028" y="15.8764" width="4.3741" height="6.1237"/>
  <rect class="cls-2" x="3.4415" y="15.8764" width="4.3742" height="6.1237"/>
  <rect class="cls-2" x="9.12" y="15.8764" width="4.3741" height="6.1237"/>
  <rect class="cls-2" x="14.8028" y="1.0043" width="4.3741" height="6.1238"/>
  <rect class="cls-2" x="3.4415" y="1.0043" width="4.3742" height="6.1238"/>
  <rect class="cls-2" x="9.12" y="1.0043" width="4.3741" height="6.1238"/>
  <path class="cls-3" d="M25.0065,18A7.0065,7.0065,0,1,1,18,11,7.0032,7.0032,0,0,1,25.0065,18Z"/>
  <line class="cls-4" x1="18.1038" y1="21.4118" x2="18.1038" y2="14.4118"/>
  <polyline class="cls-4" points="20.859 18.879 18.104 21.631 15.349 18.879"/>
</svg>