<?xml version="1.0" encoding="UTF-8" standalone="no"?>
<svg
   xmlns:dc="http://purl.org/dc/elements/1.1/"
   xmlns:cc="http://creativecommons.org/ns#"
   xmlns:rdf="http://www.w3.org/1999/02/22-rdf-syntax-ns#"
   xmlns:svg="http://www.w3.org/2000/svg"
   xmlns="http://www.w3.org/2000/svg"
   xmlns:xlink="http://www.w3.org/1999/xlink"
   xmlns:sodipodi="http://sodipodi.sourceforge.net/DTD/sodipodi-0.dtd"
   xmlns:inkscape="http://www.inkscape.org/namespaces/inkscape"
   height="26"
   width="26"
   version="1.0"
   id="svg2"
   inkscape:version="0.91 r"
   sodipodi:docname="import_setup.svg">
  <metadata
     id="metadata65">
    <rdf:RDF>
      <cc:Work
         rdf:about="">
        <dc:format>image/svg+xml</dc:format>
        <dc:type
           rdf:resource="http://purl.org/dc/dcmitype/StillImage" />
        <dc:title></dc:title>
      </cc:Work>
    </rdf:RDF>
  </metadata>
  <sodipodi:namedview
     pagecolor="#ffffff"
     bordercolor="#666666"
     borderopacity="1"
     objecttolerance="10"
     gridtolerance="10"
     guidetolerance="10"
     inkscape:pageopacity="0"
     inkscape:pageshadow="2"
     inkscape:window-width="1920"
     inkscape:window-height="1053"
     id="namedview63"
     showgrid="true"
     inkscape:zoom="27.812867"
     inkscape:cx="-6.6584773"
     inkscape:cy="5.1474925"
     inkscape:window-x="0"
     inkscape:window-y="0"
     inkscape:window-maximized="1"
     inkscape:current-layer="svg2">
    <inkscape:grid
       type="xygrid"
       id="grid4182" />
  </sodipodi:namedview>
  <defs
     id="defs4">
    <radialGradient
       id="f"
       gradientUnits="userSpaceOnUse"
       cy="39.160999"
       cx="25.455999"
       gradientTransform="matrix(1,0,0,0.31532,0,26.813)"
       r="19.622">
      <stop
         offset="0"
         id="stop7" />
      <stop
         stop-opacity="0"
         offset="1"
         id="stop9" />
    </radialGradient>
    <linearGradient
       id="e"
       y2="39.685001"
       gradientUnits="userSpaceOnUse"
       x2="34.534"
       gradientTransform="matrix(1.2419,0,0,1.2419,63.716,-13.703)"
       y1="12.285"
       x1="14.463">
      <stop
         stop-color="#c9c9c9"
         offset="0"
         id="stop12" />
      <stop
         stop-color="#f8f8f8"
         offset=".25"
         id="stop14" />
      <stop
         stop-color="#e2e2e2"
         offset=".5"
         id="stop16" />
      <stop
         stop-color="#b0b0b0"
         offset=".75"
         id="stop18" />
      <stop
         stop-color="#c9c9c9"
         offset="1"
         id="stop20" />
    </linearGradient>
    <linearGradient
       id="d"
       y2="39.685001"
       gradientUnits="userSpaceOnUse"
       x2="34.534"
       gradientTransform="matrix(0.92673,0,0,0.84499,4.7271,52.187)"
       y1="12.285"
       x1="14.463">
      <stop
         stop-color="#c9c9c9"
         offset="0"
         id="stop23" />
      <stop
         stop-color="#f8f8f8"
         offset=".25"
         id="stop25" />
      <stop
         stop-color="#e2e2e2"
         offset=".5"
         id="stop27" />
      <stop
         stop-color="#b0b0b0"
         offset=".75"
         id="stop29" />
      <stop
         stop-color="#c9c9c9"
         offset="1"
         id="stop31" />
    </linearGradient>
    <radialGradient
       id="e-8"
       gradientUnits="userSpaceOnUse"
       cy="20.493999"
       cx="35.292999"
       gradientTransform="matrix(0,-0.84302,1.0202,0,-4.8963249,41.059418)"
       r="16.955999">
      <stop
         stop-color="#73d216"
         offset="0"
         id="stop12-7" />
      <stop
         stop-color="#4e9a06"
         offset="1"
         id="stop14-2" />
    </radialGradient>
    <radialGradient
       inkscape:collect="always"
       xlink:href="#linearGradient3846"
       id="radialGradient3852"
       cx="13"
       cy="13"
       fx="13"
       fy="13"
       r="12"
       gradientUnits="userSpaceOnUse"
       gradientTransform="matrix(0.875,0,0,0.875,1.6249998,1.6249992)" />
    <linearGradient
       id="linearGradient3846">
      <stop
         style="stop-color:#d2d2d2;stop-opacity:1"
         offset="0"
         id="stop3848" />
      <stop
         id="stop3793"
         offset="0.61904764"
         style="stop-color:#c3c3c3;stop-opacity:1" />
      <stop
         style="stop-color:#d2d2d2;stop-opacity:1"
         offset="1"
         id="stop3850" />
    </linearGradient>
    <linearGradient
       inkscape:collect="always"
       xlink:href="#linearGradient3836"
       id="linearGradient3842"
       x1="25.5"
       y1="25.5"
       x2="25.5"
       y2="1"
       gradientUnits="userSpaceOnUse" />
    <linearGradient
       inkscape:collect="always"
       id="linearGradient3836">
      <stop
         style="stop-color:#323232;stop-opacity:1"
         offset="0"
         id="stop3838" />
      <stop
         style="stop-color:#787878;stop-opacity:1"
         offset="1"
         id="stop3840" />
    </linearGradient>
    <radialGradient
       inkscape:collect="always"
       xlink:href="#e-3"
       id="radialGradient3886"
       gradientUnits="userSpaceOnUse"
       gradientTransform="matrix(0,0.40730059,-0.50386077,0,31.702092,7.984451)"
       cx="35.292999"
       cy="20.493999"
       r="16.955999" />
    <radialGradient
       id="e-3"
       gradientUnits="userSpaceOnUse"
       cy="20.493999"
       cx="35.292999"
       gradientTransform="matrix(0,-0.84302,1.0202,0,-4.8963249,41.059418)"
       r="16.955999">
      <stop
         stop-color="#73d216"
         offset="0"
         id="stop12-7-6" />
      <stop
         stop-color="#4e9a06"
         offset="1"
         id="stop14-2-7" />
    </radialGradient>
  </defs>
  <path
     inkscape:connector-curvature="0"
     style="fill:url(#radialGradient3852);fill-opacity:1;stroke:url(#linearGradient3842);stroke-width:1;stroke-linecap:round;stroke-linejoin:round;stroke-miterlimit:4;stroke-dasharray:none;stroke-dashoffset:0;stroke-opacity:1"
     d="m 13,1.4999992 c -0.313616,0 -0.630223,0.03787 -0.9375,0.0625 l -0.75,3.593751 c -0.95747,0.203613 -1.8278221,0.612409 -2.6250001,1.125 l -3.1250001,-2.03125 c -0.471052,0.400986 -0.911514,0.841448 -1.3125,1.3125 l 2.03125,3.125 c -0.512591,0.7971781 -0.921387,1.6675308 -1.125,2.6250008 l -3.59375,0.75 c -0.02463,0.307277 -0.0625,0.623884 -0.0625,0.9375 0,0.313616 0.03787,0.630223 0.0625,0.9375 l 3.59375,0.75 c 0.203613,0.95747 0.612409,1.827822 1.125,2.625 l -2.03125,3.125 c 0.400986,0.471052 0.841448,0.911514 1.3125,1.3125 l 3.1250001,-2.03125 c 0.797178,0.51259 1.6675301,0.921386 2.6250001,1.125 l 0.75,3.59375 c 0.307277,0.02463 0.623884,0.0625 0.9375,0.0625 0.313616,0 0.630223,-0.03787 0.9375,-0.0625 l 0.75,-3.59375 c 0.95747,-0.203614 1.827822,-0.61241 2.625,-1.125 l 3.125,2.03125 c 0.471052,-0.400986 0.911514,-0.841448 1.3125,-1.3125 l -2.03125,-3.125 c 0.51259,-0.797178 0.921386,-1.66753 1.125,-2.625 l 3.59375,-0.75 c 0.02463,-0.307277 0.0625,-0.623884 0.0625,-0.9375 0,-0.313616 -0.03787,-0.630223 -0.0625,-0.9375 l -3.59375,-0.75 c -0.203614,-0.95747 -0.61241,-1.8278227 -1.125,-2.6250008 l 2.03125,-3.125 c -0.400986,-0.471052 -0.841448,-0.911514 -1.3125,-1.3125 l -3.125,2.03125 c -0.797178,-0.512591 -1.66753,-0.921387 -2.625,-1.125 l -0.75,-3.593751 c -0.307277,-0.02463 -0.623884,-0.0625 -0.9375,-0.0625 z m 0,8.0000011 c 1.932997,0 3.5,1.5670037 3.5,3.5000007 0,1.932997 -1.567003,3.5 -3.5,3.5 -1.932997,0 -3.5000001,-1.567003 -3.5000001,-3.5 0,-1.932997 1.5670031,-3.5000007 3.5000001,-3.5000007 z"
     id="path3825" />
  <g
     id="g3882"
     transform="matrix(0,-1,1,0,-9.4669544,34.790688)">
    <path
       id="path25-2"
       stroke-miterlimit="10"
       d="m 22.950354,7.5776052 -11.258502,0.0024 0,7.9359748 -4.9995159,0.0047 10.7201229,12.214875 10.533782,-12.215485 -4.999264,-0.0025 0.003,-7.9402492 z"
       style="color:#000000;fill:#f8f8f8;fill-opacity:1;fill-rule:evenodd;stroke:none;stroke-miterlimit:10"
       inkscape:connector-curvature="0" />
    <path
       id="path25"
       stroke-miterlimit="10"
       d="m 21.784032,9.7185262 -8.892386,0.0019 0,6.2770148 -3.9488053,0.0037 8.4671553,9.661444 8.319975,-9.661927 -3.948606,-0.002 0.0024,-6.2803968 z"
       style="color:#000000;fill:url(#radialGradient3886);fill-rule:evenodd;stroke:#3a7304;stroke-width:0.48848495;stroke-linecap:round;stroke-linejoin:round;stroke-miterlimit:10"
       inkscape:connector-curvature="0" />
  </g>
</svg>
