<svg xmlns="http://www.w3.org/2000/svg" height="48" width="48" version="1.1" viewBox="0 0 48 48">
 <defs>
  <radialGradient id="r" gradientUnits="userSpaceOnUse" cy="115.71" cx="63.912" gradientTransform="matrix(.36069 0 0 .029425 1.0834 42.741)" r="63.912">
   <stop offset="0"/>
   <stop stop-opacity="0" offset="1"/>
  </radialGradient>
  <radialGradient id="p" gradientUnits="userSpaceOnUse" cy="112.3" cx="102" gradientTransform="translate(0,4)" r="139.56">
   <stop stop-color="#00537d" offset="0"/>
   <stop stop-color="#186389" offset=".0151"/>
   <stop stop-color="#558ca8" offset=".0558"/>
   <stop stop-color="#89afc3" offset=".0964"/>
   <stop stop-color="#b3ccd8" offset=".1357"/>
   <stop stop-color="#d4e2e9" offset=".1737"/>
   <stop stop-color="#ecf2f5" offset=".20990"/>
   <stop stop-color="#fafcfd" offset=".24350"/>
   <stop stop-color="#fff" offset=".27220"/>
  </radialGradient>
  <radialGradient id="q" gradientUnits="userSpaceOnUse" cy="112.3" cx="102" gradientTransform="translate(0,4)" r="139.56">
   <stop stop-color="#535557" offset="0"/>
   <stop stop-color="#898a8c" offset=".11366"/>
   <stop stop-color="#ececec" offset=".20297"/>
   <stop stop-color="#fafafa" offset=".23630"/>
   <stop stop-color="#fff" offset=".27220"/>
   <stop stop-color="#fafafa" offset=".53130"/>
   <stop stop-color="#ebecec" offset=".84490"/>
   <stop stop-color="#e1e2e3" offset="1"/>
  </radialGradient>
  <linearGradient id="j" y2="94.537" gradientUnits="userSpaceOnUse" x2="86.536" y1="102.34" x1="94.344">
   <stop stop-color="#fff" offset="0"/>
   <stop stop-color="#555753" offset="1"/>
  </linearGradient>
  <linearGradient id="k" y2="94.587" gradientUnits="userSpaceOnUse" x2="86.587" y1="103" x1="95">
   <stop stop-color="#fff" offset="0"/>
   <stop stop-color="#555753" offset="1"/>
  </linearGradient>
  <linearGradient id="l" y2="95.293" gradientUnits="userSpaceOnUse" x2="87.293" y1="103" x1="95">
   <stop stop-color="#fff" offset="0"/>
   <stop stop-color="#393b38" offset="1"/>
  </linearGradient>
  <linearGradient id="m" y2="96" gradientUnits="userSpaceOnUse" x2="88" y1="104" x1="96">
   <stop stop-color="#888a85" offset="0"/>
   <stop stop-color="#8c8e89" offset=".0072"/>
   <stop stop-color="#abaca9" offset=".0673"/>
   <stop stop-color="#c5c6c4" offset=".1347"/>
   <stop stop-color="#dbdbda" offset=".2115"/>
   <stop stop-color="#ebebeb" offset=".3012"/>
   <stop stop-color="#f7f7f6" offset=".4122"/>
   <stop stop-color="#fdfdfd" offset=".5679"/>
   <stop stop-color="#fff" offset="1"/>
  </linearGradient>
  <linearGradient id="n" y2="50" gradientUnits="userSpaceOnUse" x2="67.692" gradientTransform="matrix(1,0,0,-1,0,100)" y1="50" x1="16.097">
   <stop stop-color="#646464" offset="0"/>
   <stop stop-color="#7e7e7e" offset="0"/>
   <stop stop-color="#999" stop-opacity=".58763" offset="0.86"/>
   <stop stop-color="#fff" stop-opacity="0" offset="1"/>
  </linearGradient>
  <linearGradient id="o" y2="50" gradientUnits="userSpaceOnUse" x2="72" y1="50" x1="4">
   <stop stop-color="#fff" offset="0"/>
   <stop stop-color="#fff" offset=".5"/>
   <stop stop-color="#fff" stop-opacity="0" offset="1"/>
  </linearGradient>
 </defs>
 <g transform="matrix(.36018 0 0 .36249 5.4057 -1.2728)">
  <g transform="translate(0,4)">
   <path opacity=".1" d="m16 4c-2.206 0-4 1.794-4 4v110c0 3.309 2.691 6 6 6h59.172c1.299 0 2.545-0.487 3.641-1.354 0.128-0.053 0.257-0.107 0.257-0.107 0.098-0.073 12.134-10.086 17.759-15.711 5.374-5.371 14.61-16.425 15.646-17.667 0.91-0.882 1.52-2.439 1.52-3.989v-77.172c0-2.206-1.794-4-4-4h-96z"/>
   <path opacity=".15" d="m16 5c-1.654 0-3 1.346-3 3v110c0 2.757 2.243 5 5 5h59.172c1.189 0 2.282-0.47 3.182-1.229 0.042-0.021 0.09-0.014 0.129-0.042 0.079-0.06 12.017-9.986 17.639-15.608 5.312-5.31 14.55-16.358 15.585-17.601 0.785-0.764 1.294-2.043 1.294-3.349v-77.171c0-1.654-1.346-3-3-3h-96z"/>
   <path opacity=".2" d="m16 6c-1.103 0-2 0.897-2 2v110c0 2.206 1.794 4 4 4h59.172c1.068 0 2.072-0.416 2.828-1.172-0.035 0.036-0.074 0.068-0.114 0.099 0.076-0.057 11.96-9.944 17.528-15.513 5.265-5.264 14.49-16.294 15.524-17.534 0.65-0.644 1.06-1.65 1.06-2.708v-77.172c0-1.103-0.897-2-2-2h-96z"/>
   <path opacity=".25" d="m16 7c-0.552 0-1 0.448-1 1v110c0 1.654 1.346 3 3 3h59.172c0.801 0 1.555-0.312 2.121-0.879 0.052-0.038 11.945-9.945 17.414-15.414s15.376-17.362 15.476-17.481c0.51-0.499 0.82-1.253 0.82-2.054v-77.172c0-0.552-0.447-1-1-1h-96z"/>
  </g>
  <path fill="url(#p)" d="m16 12v110c0 1.104 0.896 2 2 2h59.172c0.53 0 1.039-0.211 1.414-0.586l32.824-32.812c0.38-0.375 0.59-0.884 0.59-1.414v-77.172h-96z"/>
  <path fill="url(#q)" d="m18 13c-0.551 0-1 0.449-1 1v108c0 0.552 0.449 1 1 1h59.172c0.263 0 0.521-0.106 0.707-0.293l32.831-32.84c0.18-0.187 0.29-0.444 0.29-0.707v-75.172c0-0.551-0.448-1-1-1h-92z"/>
  <g transform="translate(0,4)">
   <path opacity=".1" fill="url(#j)" d="m111.41 86.586c0.25-0.25-18.375 6.414-23.41 6.414-1.654 0-3 1.346-3 3 0 5.035-6.664 23.664-6.414 23.414l32.828-32.828z"/>
   <path opacity=".1" fill="url(#k)" d="m111.41 86.586c0.38-0.375-13.966 7.414-23.41 7.414-1.103 0-2 0.897-2 2 0 9.444-7.789 23.789-7.414 23.414l32.828-32.828z"/>
   <path opacity=".1" fill="url(#l)" d="m111.41 86.586c0.24-0.239-13.603 8.414-23.41 8.414-0.553 0-1 0.447-1 1 0 9.807-8.653 23.653-8.414 23.414l32.828-32.828z"/>
   <path fill="url(#m)" d="m78.586 119.41s11.914-9.914 17.414-15.414 15.414-17.414 15.414-17.414-13.164 9.414-23.414 9.414c0 10.25-9.414 23.414-9.414 23.414z"/>
  </g>
 </g>
 <path opacity=".38140" fill="url(#r)" d="m47.187 46.146a23.052 1.8806 0 1 1 -46.103 0 23.052 1.8806 0 1 1 46.103 0z"/>
 <g transform="matrix(.36018 0 0 .36228 1.0834 1.6347)">
  <path fill="url(#n)" d="m39.656 12c-0.94393 0.07733-1.8298 0.48705-2.5 1.1562l-8 8c-1.446 1.447-1.568 3.753-0.281 5.344l10.813 13.5h-35.688c-2.209 0.000221-3.9998 1.791-4 4v12c0.00022087 2.209 1.791 3.9998 4 4h35.688l-10.813 13.5c-1.2867 1.591-1.1654 3.8966 0.28125 5.3438l8 8c0.76629 0.7668 1.8223 1.2052 2.9062 1.1875 1.0839-0.01768 2.1029-0.48988 2.8438-1.2812l32-34c1.4601-1.5426 1.4601-3.9574 0-5.5l-32-34c-0.835-0.891-2.032-1.351-3.25-1.25zm0.344 4 32 34-32 34-8-8 16-20h-44v-12h44l-16-20 8-8z"/>
  <path fill="url(#o)" d="m32 76 8 8 32-34-32-34-8 8 16 20h-44v12h44l-16 20z"/>
 </g>
</svg>
