<?xml version="1.0" encoding="UTF-8" standalone="no"?>
<svg xmlns:dc="http://purl.org/dc/elements/1.1/"
   xmlns:cc="http://creativecommons.org/ns#"
   xmlns:rdf="http://www.w3.org/1999/02/22-rdf-syntax-ns#"
   xmlns:svg="http://www.w3.org/2000/svg"
   xmlns="http://www.w3.org/2000/svg"
   xmlns:sodipodi="http://sodipodi.sourceforge.net/DTD/sodipodi-0.dtd"
   xmlns:inkscape="http://www.inkscape.org/namespaces/inkscape" id="Слой_1" data-name="Слой 1" viewBox="0 0 24 24" version="1.1" sodipodi:docname="import_brd_file.svg" inkscape:version="1.0.1 (3bc2e813f5, 2020-09-07)">
   <sodipodi:namedview pagecolor="#ffffff" bordercolor="#666666" borderopacity="1" objecttolerance="10" gridtolerance="10" guidetolerance="10" inkscape:pageopacity="0" inkscape:pageshadow="2" inkscape:window-width="1609" inkscape:window-height="1286" id="namedview30" showgrid="true" inkscape:zoom="27.961538" inkscape:cx="3.3259971" inkscape:cy="13" inkscape:window-x="0" inkscape:window-y="37" inkscape:window-maximized="0" inkscape:document-rotation="0" inkscape:current-layer="Слой_1">
      <inkscape:grid type="xygrid" id="grid_kicad" spacingx="0.5" spacingy="0.5" color="#9999ff" opacity="0.13" empspacing="2" />
   </sodipodi:namedview>
   <metadata id="metadata43">
      <rdf:RDF>
         <cc:Work rdf:about="">
            <cc:license rdf:resource="http://creativecommons.org/licenses/by-sa/4.0/" />
            <dc:format>image/svg+xml</dc:format>
            <dc:type rdf:resource="http://purl.org/dc/dcmitype/StillImage" />
            <dc:title>add_arc</dc:title>
         </cc:Work>
         <cc:License rdf:about="http://creativecommons.org/licenses/by-sa/4.0/">
            <cc:permits rdf:resource="http://creativecommons.org/ns#Reproduction" />
            <cc:permits rdf:resource="http://creativecommons.org/ns#Distribution" />
            <cc:requires rdf:resource="http://creativecommons.org/ns#Notice" />
            <cc:requires rdf:resource="http://creativecommons.org/ns#Attribution" />
            <cc:permits rdf:resource="http://creativecommons.org/ns#DerivativeWorks" />
            <cc:requires rdf:resource="http://creativecommons.org/ns#ShareAlike" />
         </cc:License>
      </rdf:RDF>
   </metadata>
   <defs id="defs25341">
      <style id="style25339">.cls-1{fill:#b9b9b9;}.cls-2{fill:#545454;}.cls-3,.cls-6{fill:none;}.cls-3{stroke:#b9b9b9;stroke-miterlimit:10;stroke-width:0.9551px;}.cls-4{fill:#1a81c4;}.cls-5{fill:#bf2641;}.cls-6{stroke:#f5f5f5;stroke-linecap:round;stroke-linejoin:round;stroke-width:2px;}</style>
   </defs>
   <title id="title25343">import_brd_file</title>
   <rect class="cls-1" x="0.0010999441" y="0" width="21.000099" height="21.000099" rx="3.5" id="rect25345" />
   <path class="cls-2" d="M 13.4486,20.9994 V 9.91 h 2.5457 l 0.7391,0.7391 h 4.27 V 4.49 h -4.27 L 15.9943,5.2292 H 14.68 L 13.4486,3.9971 V 0.0013 h -9.95 a 3.5,3.5 0 0 0 -3.5,3.5 v 13.9981 a 3.5,3.5 0 0 0 3.5,3.5 z" id="path25347" />
   <polyline class="cls-3" points="12.137 1.001 12.137 5.983 14.662 8.508 18.235 8.508" id="polyline25349" transform="translate(-1,-1)" />
   <polyline class="cls-3" points="8.611 1.001 8.611 7.953 11.721 11.064 11.721 22.001" id="polyline25351" transform="translate(-1,-1)" />
   <polyline class="cls-3" points="5.069 1.001 5.069 7.953 8.18 11.064 8.18 22.001" id="polyline25353" transform="translate(-1,-1)" />
   <line class="cls-3" x1="3.9380999" y1="21.000999" x2="3.9380999" y2="14.6524" id="line25355" />
   <path class="cls-4" d="m 5.6726,12.969 a 1.75,1.75 0 1 1 -1.75,-1.75 1.75,1.75 0 0 1 1.75,1.75 z" id="path25357" />
   <path class="cls-1" d="M 5.1687,12.969 A 1.2461,1.2461 0 1 1 3.9226,11.7228 1.2461,1.2461 0 0 1 5.1687,12.969 Z" id="path25359" />
   <circle class="cls-4" cx="18.4203" cy="7.5797005" r="1.75" id="circle25361" />
   <path class="cls-1" d="M 19.6664,7.58 A 1.2461,1.2461 0 1 1 18.42,6.3335 1.2461,1.2461 0 0 1 19.6664,7.58 Z" id="path25363" />
   <path class="cls-5" d="M 24.0065,17 A 7.0065,7.0065 0 1 1 17,10 a 7.0032,7.0032 0 0 1 7.0065,7 z" id="path25365" />
   <line class="cls-6" x1="17.103901" y1="20.4118" x2="17.103901" y2="13.4118" id="line25367" />
   <polyline class="cls-6" points="20.859 18.879 18.104 21.631 15.349 18.879" id="polyline25369" transform="translate(-1,-1)" />
</svg>
