<svg id="Слой_1" data-name="Слой 1"
  xmlns:dc="http://purl.org/dc/elements/1.1/"
  xmlns:cc="http://creativecommons.org/ns#"
  xmlns:rdf="http://www.w3.org/1999/02/22-rdf-syntax-ns#"
  xmlns="http://www.w3.org/2000/svg" viewBox="0 0 26 26">
  <metadata id="metadata43">
    <rdf:RDF>
      <cc:Work rdf:about="">
        <cc:license rdf:resource="http://creativecommons.org/licenses/by-sa/4.0/" />
        <dc:format>image/svg+xml</dc:format>
        <dc:type rdf:resource="http://purl.org/dc/dcmitype/StillImage" />
        <dc:title>add_arc</dc:title>
      </cc:Work>
      <cc:License rdf:about="http://creativecommons.org/licenses/by-sa/4.0/">
        <cc:permits rdf:resource="http://creativecommons.org/ns#Reproduction" />
        <cc:permits rdf:resource="http://creativecommons.org/ns#Distribution" />
        <cc:requires rdf:resource="http://creativecommons.org/ns#Notice" />
        <cc:requires rdf:resource="http://creativecommons.org/ns#Attribution" />
        <cc:permits rdf:resource="http://creativecommons.org/ns#DerivativeWorks" />
        <cc:requires rdf:resource="http://creativecommons.org/ns#ShareAlike" />
      </cc:License>
    </rdf:RDF>
  </metadata>
  <defs>
    <style>.cls-1{fill:#b9b9b9;}.cls-2,.cls-5{fill:none;}.cls-2{stroke:#545454;stroke-miterlimit:10;stroke-width:0.9537px;}.cls-3{fill:#1a81c4;}.cls-4{fill:#e61c50;}.cls-5{stroke:#f5f5f5;stroke-linecap:round;stroke-linejoin:round;stroke-width:2px;}</style>
  </defs>
  <title>insert_module_board</title>
  <path class="cls-1" d="M4.4958.9963H18.481A3.4987,3.4987,0,0,1,21.98,4.495V18.5a3.4987,3.4987,0,0,1-3.4987,3.4987H4.4957A3.4988,3.4988,0,0,1,.9969,18.5V4.4952A3.4989,3.4989,0,0,1,4.4958.9963Z"/>
  <polyline class="cls-2" points="5.327 0.99 5.327 5.189 17.695 5.189 17.695 1.002"/>
  <polyline class="cls-2" points="14.774 18.523 4.082 18.523 4.082 13.871 21.976 13.871"/>
  <line class="cls-2" x1="0.9927" y1="11.0213" x2="21.9785" y2="11.0213"/>
  <line class="cls-2" x1="0.9927" y1="8.1444" x2="21.9785" y2="8.1444"/>
  <rect class="cls-3" x="8.4516" y="3.5906" width="6.4984" height="12.2278"/>
  <path class="cls-4" d="M25.0073,18.01a7.0065,7.0065,0,1,1-7.0066-7A7.0033,7.0033,0,0,1,25.0073,18.01Z"/>
  <line class="cls-5" x1="18.1038" y1="14.6312" x2="18.1038" y2="21.6312"/>
  <polyline class="cls-5" points="15.349 17.164 18.104 14.412 20.859 17.164"/>
</svg>