<svg xmlns="http://www.w3.org/2000/svg" height="48" width="48" version="1.1">
 <g transform="matrix(1.2441 .91394 -.95798 1.1869 2.3942 -13.044)">
  <path fill-rule="evenodd" d="m24.464 11.219c-7.444 0-13.478 5.8672-13.478 13.105 0 7.2389 6.0344 13.105 13.478 13.105 7.4451 0 13.479-5.8661 13.479-13.105 0-6.8031-5.6081-13.093-13.625-13.093l-0.008-4.7662c0.64204 0.010213 0.75035 0.00795 0.85429 0.00795 0 0 0.71386-0.083176 1.1404-0.33384 2.4064-1.4259 4.5596-2.0093 5.5771-1.4072 0 0-1.0038 0.68982-1.4029 1.7564-0.26802 0.71083 0.26452 1.0603 0.92261 1.2931 0 0 0.70043 0.16096 1.1883 0.065577 2.7646-0.53909 4.992-0.3716 5.7368 0.53 0 0-1.1871 0.31709-1.9366 1.1875-0.50189 0.57911-0.12438 1.0836 0.41284 1.5226 0 0 0.59999 0.38125 1.0949 0.45449 2.7851 0.41361 4.8209 1.3141 5.202 2.4087 0 0-1.2263-0.09765-2.2376 0.46896-0.67415 0.37813-0.49751 0.97796-0.14715 1.5679 0 0 0.42977 0.56009 0.86772 0.79287 2.4727 1.3152 4.0706 2.8368 4.0431 3.9933 0 0-1.1176-0.50133-2.2686-0.30403-0.76524 0.13314-0.81196 0.75426-0.69108 1.4262 0 0 0.20876 0.66853 0.53838 1.0336 1.8613 2.057 2.8251 4.0163 2.3938 5.0953 0 0-0.87473-0.84056-2.0242-1.039-0.76641-0.13087-1.0277 0.43689-1.1486 1.1077 0 0-0.04117 0.69976 0.14014 1.1511 1.0254 2.5538 1.2409 4.7149 0.45634 5.5822 0 0-0.52466-1.079-1.5363-1.6456-0.67386-0.37926-1.12 0.0687-1.47 0.6586 0 0-0.28292 0.64327-0.2727 1.1267 0.06744 2.74-0.49138 4.8447-1.5349 5.4005 0 0-0.11532-1.1923-0.86334-2.0604-0.50072-0.58224-1.0768-0.30631-1.6152 0.13058 0 0-0.49138 0.50899-0.65109 0.96831-0.90218 2.5981-2.1658 4.389-3.3416 4.5631 0 0 0.31124-1.1554-0.08672-2.2211-0.26686-0.71197-0.90451-0.64753-1.5626-0.41475 0 0-0.64203 0.3151-0.95327 0.69408-1.7623 2.1382-3.5789 3.4034-4.7456 3.176 0 0 0.70014-0.9825 0.70014-2.1169 0-0.75625-0.62393-0.90813-1.3229-0.90813 0 0-0.71386 0.0809-1.1404 0.33356-2.4067 1.4251-4.5599 2.0096-5.5783 1.4075 0 0 1.0047-0.6921 1.4041-1.7578 0.26686-0.7097-0.26481-1.0589-0.92378-1.2931 0 0-0.69926-0.15954-1.1886-0.06302-2.7635 0.53767-4.9917 0.37131-5.7342-0.53227 0 0 1.1848-0.31624 1.9354-1.1877 0.49955-0.57883 0.12292-1.0824-0.41401-1.5193 0 0-0.59999-0.38579-1.0928-0.4579-2.7871-0.41248-4.823-1.3107-5.204-2.4076 0 0 1.2271 0.09651 2.2376-0.46897 0.67298-0.37699 0.49605-0.97683 0.14715-1.5679 0 0-0.42977-0.56123-0.86772-0.79287-2.4726-1.314-4.0682-2.834-4.0419-3.993 0 0 1.1188 0.50019 2.2683 0.30403 0.76554-0.13087 0.81108-0.75426 0.68787-1.4251 0 0-0.20642-0.66967-0.53488-1.0325-1.8625-2.0581-2.8271-4.0186-2.3938-5.0965 0 0 0.87473 0.8417 2.023 1.0379 0.76524 0.132 1.0277-0.43802 1.1486-1.1077 0 0 0.041167-0.69862-0.14044-1.1489-1.0263-2.5549-1.2429-4.7161-0.45722-5.5864 0 0 0.52583 1.0821 1.5363 1.6499 0.67386 0.37813 1.1211-0.0687 1.4712-0.66087 0 0 0.28379-0.64327 0.27153-1.1267-0.066278-2.74 0.49021-4.8446 1.5349-5.4001 0 0 0.11416 1.1909 0.86334 2.0604 0.49956 0.57872 1.0779 0.30716 1.6128-0.132 0 0 0.49372-0.50786 0.65225-0.96604 0.90218-2.5992 2.1658-4.3902 3.3427-4.5653 0 0-0.31357 1.1577 0.08671 2.2222 0.26569 0.71083 0.90451 0.64668 1.5626 0.41276 0 0 0.64554-0.3151 0.95677-0.69209 1.7608-2.1402 3.5789-3.4031 4.7456-3.1769 0 0-0.69897 0.98335-0.69897 2.118 0 0.48345 0.2543 0.71963 0.61926 0.82609l0.0019 4.8281"/>
  <path fill-rule="evenodd" d="m25.261 24.314c0 0.2821-0.24292 0.51221-0.54189 0.51221-0.29985 0-0.54276-0.23011-0.54276-0.51221 0-0.28514 0.24292-0.51414 0.54276-0.51414 0.29897 0 0.54189 0.229 0.54189 0.51414"/>
  <path d="m25.261 24.314c0 0.2821-0.24292 0.51221-0.54189 0.51221-0.29985 0-0.54276-0.23011-0.54276-0.51221 0-0.28514 0.24292-0.51414 0.54276-0.51414 0.29897 0 0.54189 0.229 0.54189 0.51414z" stroke="#000" stroke-width=".78145" fill="none"/>
 </g>
 <path opacity=".42188" d="m108.5 43.459a25.214 23.421 0 1 1 -50.427 0 25.214 23.421 0 1 1 50.427 0z" fill-rule="evenodd" transform="translate(-74.565,-3.5849)"/>
</svg>
