<svg xmlns="http://www.w3.org/2000/svg" height="48" width="48" version="1.1">
 <defs>
  <filter id="a" color-interpolation-filters="sRGB">
   <feGaussianBlur stdDeviation="1.3636963"/>
  </filter>
 </defs>
 <g transform="matrix(2.4566,0,0,2.2316,-37.589,-39.022)">
  <rect fill-opacity="0" height="16" width="16" y="0" x="0"/>
 </g>
 <g transform="matrix(2.9379,0,0,2.1996,2.1067,22.422)">
  <rect fill-opacity="0" height="16" width="16" y="0" x="0"/>
 </g>
 <rect fill-opacity="0" height="38.871" width="43.287" y="-47.036" x="-74.787"/>
 <g transform="matrix(2.9804,0,0,2.6654,-59.032,-7.5565)">
  <rect fill-opacity="0" height="16" width="16" y="0" x="0"/>
 </g>
 <g transform="matrix(.93678 0 0 .96077 .038046 .086889)">
  <g opacity=".5625" fill-rule="evenodd" transform="translate(3.2784,2.786)" filter="url(#a)">
   <path d="m8.7368 2.702-5.2912 15.234h3.9684l1.3228-5.078h5.2912l1.3228 5.078h3.9684l-5.291-15.234h-5.291zm2.6456 2.539 1.3228 5.078h-2.6456l1.3228-5.078z"/>
   <g transform="matrix(2.6456,0,0,2.539,-13.751,49.524)">
    <path d="m12-8.441 0.03913-2.8961 3.9609 4.3961-4 4.5v-3c-3.5 0-5.4609-2-5.4609-6h2.9609c0 2 1 3 2.5 3z"/>
    <path d="m12.5-7.941v-1.5l2.5 2.5-2.5 3v-2c-2 0-5-0.5-5-4.5h1.5c0 2 2 2.5 3.5 2.5z"/>
   </g>
   <path d="m27.98 23.25h18.267v4.7321h-1.3048l-1.9572-2.366h-3.262v12.422l2.6096 1.7745v1.183h-10.439v-1.183l2.6096-1.7745v-12.422h-3.262l-1.9572 2.366h-1.306v-4.732z"/>
  </g>
  <g transform="matrix(2.9202 0 0 2.99 .60178 7.9092)">
   <rect fill-opacity="0" height="16" width="16" y="0" x="0"/>
  </g>
  <g fill-rule="evenodd">
   <path d="m8.7368 2.702-5.2912 15.234h3.9684l1.3228-5.078h5.2912l1.3228 5.078h3.9684l-5.291-15.234h-5.291zm2.6456 2.539 1.3228 5.078h-2.6456l1.3228-5.078z"/>
   <g transform="matrix(2.6456,0,0,2.539,-13.751,49.524)">
    <path d="m12-8.441 0.03913-2.8961 3.9609 4.3961-4 4.5v-3c-3.5 0-5.4609-2-5.4609-6h2.9609c0 2 1 3 2.5 3z"/>
    <path fill="#00bd00" d="m12.5-7.941v-1.5l2.5 2.5-2.5 3v-2c-2 0-5-0.5-5-4.5h1.5c0 2 2 2.5 3.5 2.5z"/>
   </g>
   <path fill="#00009b" d="m27.98 23.25h18.267v4.7321h-1.3048l-1.9572-2.366h-3.262v12.422l2.6096 1.7745v1.183h-10.439v-1.183l2.6096-1.7745v-12.422h-3.262l-1.9572 2.366h-1.306v-4.732z"/>
  </g>
 </g>
</svg>
