<?xml version="1.0" encoding="UTF-8" standalone="no"?>
<svg
   xmlns:dc="http://purl.org/dc/elements/1.1/"
   xmlns:cc="http://creativecommons.org/ns#"
   xmlns:rdf="http://www.w3.org/1999/02/22-rdf-syntax-ns#"
   xmlns:svg="http://www.w3.org/2000/svg"
   xmlns="http://www.w3.org/2000/svg"
   xmlns:xlink="http://www.w3.org/1999/xlink"
   xmlns:sodipodi="http://sodipodi.sourceforge.net/DTD/sodipodi-0.dtd"
   xmlns:inkscape="http://www.inkscape.org/namespaces/inkscape"
   height="26"
   width="26"
   version="1.1"
   id="svg2"
   inkscape:version="0.48.4 r9939"
   sodipodi:docname="lang_chinese.svg">
  <metadata
     id="metadata21">
    <rdf:RDF>
      <cc:Work
         rdf:about="">
        <dc:format>image/svg+xml</dc:format>
        <dc:type
           rdf:resource="http://purl.org/dc/dcmitype/StillImage" />
      </cc:Work>
    </rdf:RDF>
  </metadata>
  <defs
     id="defs19" />
  <sodipodi:namedview
     pagecolor="#ffffff"
     bordercolor="#666666"
     borderopacity="1"
     objecttolerance="10"
     gridtolerance="10"
     guidetolerance="10"
     inkscape:pageopacity="0"
     inkscape:pageshadow="2"
     inkscape:window-width="1366"
     inkscape:window-height="744"
     id="namedview17"
     showgrid="false"
     inkscape:zoom="1.84375"
     inkscape:cx="-19.254237"
     inkscape:cy="64"
     inkscape:window-x="0"
     inkscape:window-y="24"
     inkscape:window-maximized="1"
     inkscape:current-layer="svg2" />
  <g
     transform="matrix(0.00866667,0,0,0.00909243,-5e-6,20.928599)"
     id="g4">
    <rect
       height="2000"
       width="3000"
       y="-1872"
       x="0"
       id="rect6"
       style="fill:#de2910" />
    <path
       id="a"
       d="m 324.49,-1130.1 66.492,-206.78 -174.74,-128.19 216.41,-0.4029 67.426,-206.48 67.256,206.53 216.41,0.583 -174.84,128.05 66.322,206.84 -175.31,-127.4 -175.42,127.25 z"
       inkscape:connector-curvature="0"
       style="fill:#ffde00" />
    <use
       xlink:href="#a"
       transform="matrix(0.31284,0.1151,-0.1151,0.31284,686.2,-600.12)"
       height="2000"
       width="3000"
       y="0"
       x="0"
       id="use9" />
    <use
       xlink:href="#a"
       transform="matrix(0.33309,-0.012796,0.012796,0.33309,1051.4,-708.61)"
       height="2000"
       width="3000"
       y="0"
       x="0"
       id="use11" />
    <use
       xlink:href="#a"
       transform="matrix(0.29883,-0.14769,0.14769,0.29883,1252.8,-988.22)"
       height="2000"
       width="3000"
       y="0"
       x="0"
       id="use13" />
    <use
       xlink:href="#a"
       transform="matrix(0.30707,0.12971,-0.12971,0.30707,667.96,-1315.7)"
       height="2000"
       width="3000"
       y="0"
       x="0"
       id="use15" />
  </g>
</svg>
