<svg xmlns="http://www.w3.org/2000/svg" height="256" width="256" version="1.1" xmlns:xlink="http://www.w3.org/1999/xlink" viewBox="-2100 -1470 1493.3333 1493.3333">
 <title>Flag of Brazil</title>
 <defs>
  <path id="y" fill-rule="evenodd" d="m0 0a31.5 35 0 0 0 0 -70 31.5 35 0 0 0 0 70m0-13a18.5 22 0 0 0 0 -44 18.5 22 0 0 0 0 44"/>
  <g id="aa">
   <use xlink:href="#ac" height="2940" width="4200" y="0" x="0"/>
   <path d="m28 0c0-10 0-32-15-32h-19c22 0 22 22 22 32"/>
  </g>
  <path id="af" fill-rule="evenodd" d="m-31.5 0h33a30 30 0 0 0 30 -30v-10a30 30 0 0 0 -30 -30h-33zm13-13h19a19 19 0 0 0 19 -19v-6a19 19 0 0 0 -19 -19h-19z"/>
  <path id="ab" d="m0 0h63v-13h-51v-18h40v-12h-40v-14h48v-13h-60z" transform="translate(-31.5)"/>
  <path id="ai" d="m-31.5 0h12v-48l14 48h11l14-48v48h12v-70h-17.5l-14 48-14-48h-17.5z"/>
  <path id="ag" d="m-26.25 0h52.5v-12h-40.5v-16h33v-12h-33v-11h39.25v-12h-51.25z"/>
  <path id="ac" fill-rule="evenodd" d="m-31.5 0h13v-26h28a22 22 0 0 0 0 -44h-40zm13-39h27a9 9 0 0 0 0 -18h-27z"/>
  <g id="ah">
   <clipPath id="al">
    <path d="m-31.5 0v-70h63v70zm31.5-47v12h31.5v-12z"/>
   </clipPath>
   <use clip-path="url(#al)" xlink:href="#y" height="2940" width="4200" y="0" x="0"/>
   <rect y="-35" width="26.5" x="5" height="10"/>
   <rect y="-35" width="10" x="21.5" height="35"/>
  </g>
  <path id="ad" d="m-15.75-22c0 7 6.75 10.5 16.75 10.5s14.74-3.25 14.75-7.75c0-14.25-46.75-5.25-46.5-30.25 0.25-21.5 24.75-20.5 33.75-20.5s26 4 25.75 21.25h-15.25c0-7.5-7-10.25-15-10.25-7.75 0-13.25 1.25-13.25 8.5-0.25 11.75 46.25 4 46.25 28.75 0 18.25-18 21.75-31.5 21.75-11.5 0-31.55-4.5-31.5-22z"/>
  <g id="x">
   <g id="z">
    <polygon id="an" points="0 0 0 1 0.5 1" transform="matrix(.95106 .30902 -.30902 .95106 0 -1)"/>
    <use xlink:href="#an" transform="scale(-1,1)" height="2940" width="4200" y="0" x="0"/>
   </g>
   <use xlink:href="#z" transform="rotate(72.001)" height="2940" width="4200" y="0" x="0"/>
   <use xlink:href="#z" transform="rotate(-72.001)" height="2940" width="4200" y="0" x="0"/>
   <use xlink:href="#z" transform="rotate(144)" height="2940" width="4200" y="0" x="0"/>
   <use xlink:href="#z" transform="rotate(216)" height="2940" width="4200" y="0" x="0"/>
  </g>
  <use id="w" xlink:href="#x" transform="scale(31.5)" height="2940" width="4200" y="0" x="0"/>
  <use id="u" xlink:href="#x" transform="scale(26.25)" height="2940" width="4200" y="0" x="0"/>
  <use id="v" xlink:href="#x" transform="scale(21)" height="2940" width="4200" y="0" x="0"/>
  <use id="ae" xlink:href="#x" transform="scale(15)" height="2940" width="4200" y="0" x="0"/>
  <use id="am" xlink:href="#x" transform="scale(10.5)" height="2940" width="4200" y="0" x="0"/>
 </defs>
 <clipPath id="ak">
  <use xlink:href="#aj" transform="translate(0,1446.7)" height="2940" width="4200" y="0" x="0"/>
 </clipPath>
 <g transform="matrix(.33875 0 0 .3373 -1341.4 -217.87)">
  <rect height="2940" width="4200" y="-2916.7" x="-2100" fill="#00923f"/>
  <path fill="#f8c300" d="m-1743-1446.7 1743 1113 1743-1113-1743-1113z"/>
  <circle id="aj" transform="translate(0,-1446.7)" cy="0" cx="0" r="735" fill="#28166f"/>
  <path d="m-2205 1470a1785 1785 0 0 1 3570 0h-105a1680 1680 0 1 0 -3360 0z" clip-path="url(#ak)" transform="translate(0,-1446.7)" fill="#fff"/>
  <g fill="#00923f" transform="translate(-420,23.333)">
   <g transform="rotate(-7)">
    <use xlink:href="#y" transform="translate(0,-1697.5)" height="2940" width="4200" y="0" x="0"/>
    <use xlink:href="#aa" transform="matrix(.99863 .052336 -.052336 .99863 88.84 -1695.2)" height="2940" width="4200" y="0" x="0"/>
    <use xlink:href="#af" transform="matrix(.99452 .10453 -.10453 .99452 177.44 -1688.2)" height="2940" width="4200" y="0" x="0"/>
    <use xlink:href="#ab" transform="matrix(.98769 .15643 -.15643 .98769 265.55 -1676.6)" height="2940" width="4200" y="0" x="0"/>
    <use xlink:href="#ai" transform="matrix(.97815 .20791 -.20791 .97815 352.93 -1660.4)" height="2940" width="4200" y="0" x="0"/>
   </g>
   <use xlink:href="#ag" transform="matrix(.98556 .16935 -.16935 .98556 287.47 -1673)" height="2940" width="4200" y="0" x="0"/>
   <g transform="rotate(14.5)">
    <use xlink:href="#ac" transform="translate(0,-1697.5)" height="2940" width="4200" y="0" x="0"/>
    <use xlink:href="#aa" transform="matrix(.99863 .052336 -.052336 .99863 88.84 -1695.2)" height="2940" width="4200" y="0" x="0"/>
    <use xlink:href="#y" transform="matrix(.99452 .10453 -.10453 .99452 177.44 -1688.2)" height="2940" width="4200" y="0" x="0"/>
    <use xlink:href="#ah" transform="matrix(.98769 .15643 -.15643 .98769 265.55 -1676.6)" height="2940" width="4200" y="0" x="0"/>
    <use xlink:href="#aa" transform="matrix(.97815 .20791 -.20791 .97815 352.93 -1660.4)" height="2940" width="4200" y="0" x="0"/>
    <use xlink:href="#ab" transform="matrix(.96593 .25882 -.25882 .96593 439.35 -1639.7)" height="2940" width="4200" y="0" x="0"/>
    <use xlink:href="#ad" transform="matrix(.95106 .30902 -.30902 .95106 524.56 -1614.4)" height="2940" width="4200" y="0" x="0"/>
    <use xlink:href="#ad" transform="matrix(.93358 .35837 -.35837 .93358 608.33 -1584.8)" height="2940" width="4200" y="0" x="0"/>
    <use xlink:href="#y" transform="matrix(.91355 .40674 -.40674 .91355 690.44 -1550.7)" height="2940" width="4200" y="0" x="0"/>
   </g>
  </g>
  <g fill="#fff" transform="translate(0,-1446.7)">
   <use xlink:href="#w" transform="translate(-600,-132)" height="2940" width="4200" y="0" x="0"/>
   <use xlink:href="#w" transform="translate(-535,177)" height="2940" width="4200" y="0" x="0"/>
   <use xlink:href="#v" transform="translate(-625,243)" height="2940" width="4200" y="0" x="0"/>
   <use xlink:href="#ae" transform="translate(-463,132)" height="2940" width="4200" y="0" x="0"/>
   <use xlink:href="#u" transform="translate(-382,250)" height="2940" width="4200" y="0" x="0"/>
   <use xlink:href="#u" transform="translate(-404,323)" height="2940" width="4200" y="0" x="0"/>
   <use xlink:href="#w" transform="translate(228,-228)" height="2940" width="4200" y="0" x="0"/>
   <use xlink:href="#w" transform="translate(515,258)" height="2940" width="4200" y="0" x="0"/>
   <use xlink:href="#v" transform="translate(617,265)" height="2940" width="4200" y="0" x="0"/>
   <use xlink:href="#u" transform="translate(545,323)" height="2940" width="4200" y="0" x="0"/>
   <use xlink:href="#u" transform="translate(368,477)" height="2940" width="4200" y="0" x="0"/>
   <use xlink:href="#v" transform="translate(367,551)" height="2940" width="4200" y="0" x="0"/>
   <use xlink:href="#v" transform="translate(441,419)" height="2940" width="4200" y="0" x="0"/>
   <use xlink:href="#u" transform="translate(500,382)" height="2940" width="4200" y="0" x="0"/>
   <use xlink:href="#v" transform="translate(365,405)" height="2940" width="4200" y="0" x="0"/>
   <use xlink:href="#u" transform="translate(-280,30)" height="2940" width="4200" y="0" x="0"/>
   <use xlink:href="#v" transform="translate(200,-37)" height="2940" width="4200" y="0" x="0"/>
   <use xlink:href="#w" transform="translate(0,330)" height="2940" width="4200" y="0" x="0"/>
   <use xlink:href="#u" transform="translate(85,184)" height="2940" width="4200" y="0" x="0"/>
   <use xlink:href="#u" transform="translate(0,118)" height="2940" width="4200" y="0" x="0"/>
   <use xlink:href="#v" transform="translate(-74,184)" height="2940" width="4200" y="0" x="0"/>
   <use xlink:href="#ae" transform="translate(-37,235)" height="2940" width="4200" y="0" x="0"/>
   <use xlink:href="#u" transform="translate(220,495)" height="2940" width="4200" y="0" x="0"/>
   <use xlink:href="#v" transform="translate(283,430)" height="2940" width="4200" y="0" x="0"/>
   <use xlink:href="#v" transform="translate(162,412)" height="2940" width="4200" y="0" x="0"/>
   <use xlink:href="#w" transform="translate(-295,390)" height="2940" width="4200" y="0" x="0"/>
   <use xlink:href="#am" transform="translate(0,575)" height="2940" width="4200" y="0" x="0"/>
  </g>
 </g>
</svg>
