<svg xmlns="http://www.w3.org/2000/svg" height="256" width="256" version="1.1" viewBox="-2100 -1470 1493.3333 1493.3333">
 <title>Flag of Brazil</title>
 <defs>
  <clipPath id="a">
   <path d="m171.82 258.25c-26.762-12.893-65.044-38.479-65.044-89.094 0-50.614 2.42-73.633 2.42-73.633h125.25s2.422 23.019 2.422 73.633c-0.001 50.616-38.286 76.201-65.05 89.094z"/>
  </clipPath>
 </defs>
 <clipPath>
  <circle cy="0" cx="0" r="735" fill="#28166f"/>
 </clipPath>
 <rect fill-rule="evenodd" height="1516.7" width="1516.7" y="-1493.3" x="-2100" fill="#e6e6e6"/>
 <g transform="matrix(1.1905,0,0,1.2308,-1926.1,-225.26)">
  <rect height="252.78" width="1225" y="-540.56" x="-116.67" fill="#0f218b"/>
  <rect height="252.78" width="1225" y="-793.33" x="-116.67" fill="#fff"/>
  <rect height="252.78" width="1225" y="-287.78" x="-116.67" fill="#f00"/>
  <path fill-rule="evenodd" fill="#fff" d="m121.41-423.58c0-111.98 7.1462-174.77 7.1462-174.77h321.57s7.1486 62.786 7.1486 174.77c0 119.2-97.529 178.65-161.74 207.37l-6.1942 2.7706-6.1871-2.7706c-64.207-28.717-161.74-88.167-161.74-207.37z"/>
  <path fill="#f00" d="m289.34-228.14c-63.222-28.283-153.66-84.409-153.66-195.44s5.717-161.52 5.717-161.52h295.89s5.7217 50.495 5.7217 161.52c-0.002 111.03-90.446 167.16-153.67 195.44z"/>
  <path fill="#fff" d="m302.86-452.69c17.118 0.25665 50.522 0.87964 80.262-8.3622 0 0-0.78666 9.8824-0.78666 21.395 0 11.514 0.78666 21.397 0.78666 21.397-27.281-8.4762-60.971-8.6539-80.262-8.4258v61.325h-27.04v-61.325c-19.294-0.22801-52.979-0.0506-80.262 8.4258 0 0 0.78666-9.8824 0.78666-21.397 0-11.512-0.78666-21.395-0.78666-21.395 29.74 9.2418 63.142 8.6188 80.262 8.3622v-38.514c-15.604-0.12944-38.089 0.56377-63.51 8.4631 0 0 0.7867-9.8824 0.7867-21.397 0-11.512-0.7867-21.395-0.7867-21.395 25.386 7.8862 47.841 8.5903 63.439 8.4631-0.80085-24.389-8.4526-55.126-8.4526-55.126s15.748 1.1429 22.041 1.1429c6.3028 0 22.046-1.1429 22.046-1.1429s-7.6495 30.74-8.4526 55.126c15.601 0.1251 38.056-0.57694 63.442-8.4631 0 0-0.7867 9.8823-0.7867 21.395 0 11.514 0.7867 21.397 0.7867 21.397-25.424-7.8993-47.909-8.5925-63.513-8.4631v38.514z"/>
  <g transform="matrix(2.3624,0,0,2.1936,-116.57,-794.65)" clip-path="url(#a)">
   <path fill-rule="evenodd" fill="#0f218b" d="m170.64 274.85-55.454-49.43s7.089-22.927 20.927-22.927c10.996 0 15.009 8.865 15.009 8.865s7.22-18.689 20.696-18.689c13.479 0 20.699 18.689 20.699 18.689s4.013-8.865 15.01-8.865c13.838 0 20.927 22.927 20.927 22.927l-57.814 49.43z"/>
  </g>
 </g>
</svg>
