<?xml version="1.0" encoding="UTF-8" standalone="no"?>
<svg
   xmlns:dc="http://purl.org/dc/elements/1.1/"
   xmlns:cc="http://creativecommons.org/ns#"
   xmlns:rdf="http://www.w3.org/1999/02/22-rdf-syntax-ns#"
   xmlns:svg="http://www.w3.org/2000/svg"
   xmlns="http://www.w3.org/2000/svg"
   xmlns:sodipodi="http://sodipodi.sourceforge.net/DTD/sodipodi-0.dtd"
   xmlns:inkscape="http://www.inkscape.org/namespaces/inkscape"
   height="26"
   width="26"
   version="1.1"
   viewBox="-2100 -1470 151.66666 151.66666"
   id="svg2"
   inkscape:version="0.48.4 r9939"
   sodipodi:docname="lang_sl.svg">
  <metadata
     id="metadata37">
    <rdf:RDF>
      <cc:Work
         rdf:about="">
        <dc:format>image/svg+xml</dc:format>
        <dc:type
           rdf:resource="http://purl.org/dc/dcmitype/StillImage" />
      </cc:Work>
    </rdf:RDF>
  </metadata>
  <sodipodi:namedview
     pagecolor="#ffffff"
     bordercolor="#666666"
     borderopacity="1"
     objecttolerance="10"
     gridtolerance="10"
     guidetolerance="10"
     inkscape:pageopacity="0"
     inkscape:pageshadow="2"
     inkscape:window-width="1366"
     inkscape:window-height="744"
     id="namedview35"
     showgrid="false"
     inkscape:zoom="0.921875"
     inkscape:cx="-38.508475"
     inkscape:cy="128"
     inkscape:window-x="0"
     inkscape:window-y="24"
     inkscape:window-maximized="1"
     inkscape:current-layer="svg2" />
  <title
     id="title4">Flag of Brazil</title>
  <defs
     id="defs6">
    <clipPath
       id="a">
      <path
         d="m 171.82,258.25 c -26.762,-12.893 -65.044,-38.479 -65.044,-89.094 0,-50.614 2.42,-73.633 2.42,-73.633 h 125.25 c 0,0 2.422,23.019 2.422,73.633 -0.001,50.616 -38.286,76.201 -65.05,89.094 z"
         id="path9"
         inkscape:connector-curvature="0" />
    </clipPath>
  </defs>
  <clipPath
     id="clipPath11">
    <circle
       cy="0"
       cx="0"
       r="735"
       id="circle13"
       sodipodi:cx="0"
       sodipodi:cy="0"
       sodipodi:rx="735"
       sodipodi:ry="735"
       style="fill:#28166f" />
  </clipPath>
  <rect
     height="151.66666"
     width="151.66666"
     y="-1470"
     x="-2100"
     id="rect15"
     style="fill:#e6e6e6;fill-rule:evenodd" />
  <g
     transform="matrix(0.11904738,0,0,0.12307729,-2082.6104,-1343.1988)"
     id="g17">
    <rect
       height="252.78"
       width="1225"
       y="-540.56"
       x="-116.67"
       id="rect19"
       style="fill:#0f218b" />
    <rect
       height="252.78"
       width="1225"
       y="-793.33002"
       x="-116.67"
       id="rect21"
       style="fill:#ffffff" />
    <rect
       height="252.78"
       width="1225"
       y="-287.78"
       x="-116.67"
       id="rect23"
       style="fill:#ff0000" />
    <path
       d="m 121.41,-423.58 c 0,-111.98 7.1462,-174.77 7.1462,-174.77 h 321.57 c 0,0 7.1486,62.786 7.1486,174.77 0,119.2 -97.529,178.65 -161.74,207.37 l -6.1942,2.7706 -6.1871,-2.7706 c -64.207,-28.717 -161.74,-88.167 -161.74,-207.37 z"
       id="path25"
       inkscape:connector-curvature="0"
       style="fill:#ffffff;fill-rule:evenodd" />
    <path
       d="m 289.34,-228.14 c -63.222,-28.283 -153.66,-84.409 -153.66,-195.44 0,-111.031 5.717,-161.52 5.717,-161.52 h 295.89 c 0,0 5.7217,50.495 5.7217,161.52 -0.002,111.03 -90.446,167.16 -153.67,195.44 z"
       id="path27"
       inkscape:connector-curvature="0"
       style="fill:#ff0000" />
    <path
       d="m 302.86,-452.69 c 17.118,0.25665 50.522,0.87964 80.262,-8.3622 0,0 -0.78666,9.8824 -0.78666,21.395 0,11.514 0.78666,21.397 0.78666,21.397 -27.281,-8.4762 -60.971,-8.6539 -80.262,-8.4258 v 61.325 h -27.04 v -61.325 c -19.294,-0.22801 -52.979,-0.0506 -80.262,8.4258 0,0 0.78666,-9.8824 0.78666,-21.397 0,-11.512 -0.78666,-21.395 -0.78666,-21.395 29.74,9.2418 63.142,8.6188 80.262,8.3622 v -38.514 c -15.604,-0.12944 -38.089,0.56377 -63.51,8.4631 0,0 0.7867,-9.8824 0.7867,-21.397 0,-11.512 -0.7867,-21.395 -0.7867,-21.395 25.386,7.8862 47.841,8.5903 63.439,8.4631 -0.80085,-24.389 -8.4526,-55.126 -8.4526,-55.126 0,0 15.748,1.1429 22.041,1.1429 6.3028,0 22.046,-1.1429 22.046,-1.1429 0,0 -7.6495,30.74 -8.4526,55.126 15.601,0.1251 38.056,-0.57694 63.442,-8.4631 0,0 -0.7867,9.8823 -0.7867,21.395 0,11.514 0.7867,21.397 0.7867,21.397 -25.424,-7.8993 -47.909,-8.5925 -63.513,-8.4631 v 38.514 z"
       id="path29"
       inkscape:connector-curvature="0"
       style="fill:#ffffff" />
    <g
       transform="matrix(2.3624,0,0,2.1936,-116.57,-794.65)"
       clip-path="url(#a)"
       id="g31">
      <path
         d="m 170.64,274.85 -55.454,-49.43 c 0,0 7.089,-22.927 20.927,-22.927 10.996,0 15.009,8.865 15.009,8.865 0,0 7.22,-18.689 20.696,-18.689 13.479,0 20.699,18.689 20.699,18.689 0,0 4.013,-8.865 15.01,-8.865 13.838,0 20.927,22.927 20.927,22.927 l -57.814,49.43 z"
         id="path33"
         inkscape:connector-curvature="0"
         style="fill:#0f218b;fill-rule:evenodd" />
    </g>
  </g>
</svg>
