<?xml version="1.0" encoding="UTF-8" standalone="no"?>
<!-- Created with Inkscape (http://www.inkscape.org/) -->

<svg
   xmlns:dc="http://purl.org/dc/elements/1.1/"
   xmlns:cc="http://creativecommons.org/ns#"
   xmlns:rdf="http://www.w3.org/1999/02/22-rdf-syntax-ns#"
   xmlns:svg="http://www.w3.org/2000/svg"
   xmlns="http://www.w3.org/2000/svg"
   xmlns:sodipodi="http://sodipodi.sourceforge.net/DTD/sodipodi-0.dtd"
   xmlns:inkscape="http://www.inkscape.org/namespaces/inkscape"
   version="1.0"
   width="26"
   height="26"
   viewBox="0 0 6.5520289 12.549593"
   id="Layer_1"
   xml:space="preserve"
   sodipodi:version="0.32"
   inkscape:version="0.48.4 r9939"
   sodipodi:docname="lang_sl.svg"
   inkscape:output_extension="org.inkscape.output.svg.inkscape"><metadata
     id="metadata2274"><rdf:RDF><cc:Work
         rdf:about=""><dc:format>image/svg+xml</dc:format><dc:type
           rdf:resource="http://purl.org/dc/dcmitype/StillImage" /></cc:Work></rdf:RDF></metadata><sodipodi:namedview
     inkscape:window-height="736"
     inkscape:window-width="1280"
     inkscape:pageshadow="2"
     inkscape:pageopacity="0.0"
     guidetolerance="10.0"
     gridtolerance="10.0"
     objecttolerance="10.0"
     borderopacity="1.0"
     bordercolor="#666666"
     pagecolor="#ffffff"
     id="base"
     inkscape:zoom="21.500006"
     inkscape:cx="11.153739"
     inkscape:cy="12.000002"
     inkscape:window-x="0"
     inkscape:window-y="26"
     inkscape:current-layer="Layer_1"
     showgrid="false"
     inkscape:window-maximized="0" /><defs
     id="defs3" /><g
     id="g3012"
     transform="matrix(0.02883723,0,0,0.02875969,0.01271393,9.7865102)"><rect
       id="rect3212"
       style="fill:#ffffff;fill-opacity:1;fill-rule:evenodd;stroke:none"
       y="-277.0564"
       x="-103.804"
       height="289.60599"
       width="434.409" /><rect
       id="rect6123"
       style="fill:#ed1c24;fill-opacity:1;fill-rule:evenodd;stroke:none"
       y="-83.985741"
       x="-103.804"
       height="96.535332"
       width="434.409" /><rect
       id="rect4183"
       style="fill:#005da4;fill-opacity:1;fill-rule:evenodd;stroke:none"
       y="-180.52107"
       x="-103.804"
       height="96.535332"
       width="434.409" /><path
       inkscape:connector-curvature="0"
       id="path13"
       style="fill:#ed1c24;fill-opacity:1"
       d="m -18.170084,-221.38606 c -0.892,0.39333 -1.777333,0.80166 -2.656,1.22466 l 2.768,43.79933 c 0.754,11.94066 5.831999,23.241 14.341998,31.75066 5.819333,5.819 12.943332,10.034 20.684998,12.358 l 6.67e-4,0 c 7.741666,-2.32433 14.865998,-6.539 20.684998,-12.358 8.509666,-8.50966 13.587999,-19.81 14.341665,-31.75066 l 2.768333,-43.79933 c -0.879,-0.423 -1.763666,-0.83133 -2.656333,-1.22466 l 6.67e-4,3.3e-4 -2.833333,44.83632 c -0.709,11.28567 -5.507,21.96667 -13.549332,30.009 -5.3,5.30067 -11.746666,9.19133 -18.756332,11.43167 l -0.001,0 c -7.009999,-2.24034 -13.455998,-6.131 -18.755998,-11.43167 -8.042666,-8.04233 -12.840665,-18.72333 -13.549332,-30.009 l -2.833666,-44.83665 6.66e-4,0" /><path
       inkscape:connector-curvature="0"
       id="path15"
       style="fill:#005da4;fill-opacity:1"
       d="m 52.108909,-221.38573 c -10.967666,-4.83567 -22.921331,-7.403 -35.139663,-7.403 -12.218666,0 -24.172331,2.56733 -35.139997,7.403 l 2.834,44.83632 c 0.708666,11.28567 5.506666,21.96667 13.549332,30.009 5.300333,5.30067 11.746332,9.19133 18.755998,11.43167 l 0.001,0 c 7.009666,-2.24034 13.456332,-6.131 18.755665,-11.43167 8.042999,-8.04233 12.840998,-18.72333 13.549332,-30.009" /><polyline
       transform="matrix(0.3333333,0,0,0.3333333,-20.826084,-228.78873)"
       points="119.764,62.917 124.434,56.539 116.574,57.394 113.386,50.161 110.197,57.394 102.338,56.539    107.008,62.917 102.338,69.295 110.197,68.44 113.386,75.673 116.574,68.44 124.434,69.295  "
       id="polyline17"
       style="fill:#ffdd00;fill-opacity:1" /><polyline
       transform="matrix(0.3333333,0,0,0.3333333,-20.826084,-228.78873)"
       points="90,23.232 94.669,16.854 86.811,17.709 83.622,10.476 80.433,17.709 72.575,16.854 77.244,23.232    72.575,29.61 80.433,28.755 83.622,35.988 86.811,28.755 94.669,29.61  "
       id="polyline19"
       style="fill:#ffdd00;fill-opacity:1" /><polyline
       transform="matrix(0.3333333,0,0,0.3333333,-20.826084,-228.78873)"
       points="149.527,23.232 154.195,16.854 146.338,17.709 143.148,10.476 139.959,17.709 132.102,16.854    136.771,23.232 132.102,29.61 139.959,28.755 143.148,35.988 146.338,28.755 154.195,29.61  "
       id="polyline21"
       style="fill:#ffdd00;fill-opacity:1" /><path
       inkscape:connector-curvature="0"
       id="path23"
       style="fill:#ffffff"
       d="m 45.315909,-170.02074 -14.173665,-18.89799 -5.669333,7.55933 -8.503999,-17.008 -8.503999,17.008 -5.669333,-7.55933 -14.173332,18.89799 c 0,2.506 0.995667,4.909 2.767667,6.681 1.772,1.77133 4.174999,2.76767 6.681332,2.76767 1.673334,0 3.301,-0.444 4.725,-1.26634 0.00933,-0.006 -0.011333,0.007 -0.00233,0.001 0.709666,-0.41 1.475333,-0.72934 2.280333,-0.94467 2.420666,-0.64833 4.999666,-0.30933 7.169999,0.94333 1.449,0.83667 3.080666,1.26634 4.725333,1.26634 0.007,0 -0.0087,0 -0.0017,0 1.645,0 3.276333,-0.42967 4.725666,-1.26634 2.17,-1.25266 4.749333,-1.59233 7.17,-0.94333 0.804666,0.21533 1.570333,0.53467 2.279999,0.94467 0.0097,0.005 -0.011,-0.007 -0.002,-0.001 1.424334,0.82234 3.051333,1.26634 4.724667,1.26634 2.506666,0 4.909666,-0.996 6.681666,-2.76767 1.771999,-1.772 2.767666,-4.175 2.767666,-6.681" /><path
       inkscape:connector-curvature="0"
       id="path25"
       style="fill:#ffffff"
       d="m -8.020085,-159.76041 c 0.650333,1.29234 1.365333,2.55334 2.142333,3.778 0,0 -3.33e-4,6.7e-4 0,10e-4 1.994666,0.91733 4.256333,1.11533 6.394666,0.54233 0.805333,-0.21533 1.570666,-0.535 2.280333,-0.94467 0.00933,-0.005 -0.011333,0.007 -0.002,0.001 1.424,-0.823 3.051666,-1.26634 4.724999,-1.26634 0.00333,0 -0.00433,0 -0.001,0 1.644667,-6.6e-4 3.276334,0.429 4.725333,1.26634 2.170333,1.25266 4.749333,1.59166 7.170333,0.94333 0.804667,-0.21533 1.570333,-0.535 2.28,-0.94467 0.0097,-0.005 -0.011,0.007 -0.002,10e-4 1.423666,-0.823 3.051333,-1.26634 4.725333,-1.26634 0.0033,0 -0.0047,0 -0.0013,0 1.644667,-6.6e-4 3.276667,0.429 4.725333,1.26634 2.170667,1.25266 4.749333,1.59166 7.169999,0.94333 0.519667,-0.13867 1.022,-0.32167 1.504,-0.543 l 0,0 c 0.777333,-1.22533 1.492334,-2.48633 2.142667,-3.778 0,-6.7e-4 0,0 0,0 -0.472,0.17967 -0.929667,0.397 -1.368334,0.65033 -0.009,0.005 0.01167,-0.007 0.0027,-0.001 -0.709666,0.40967 -1.475333,0.72867 -2.280666,0.94467 -2.420667,0.64833 -4.999333,0.30933 -7.17,-0.944 -1.448666,-0.83667 -3.080666,-1.26567 -4.725332,-1.26567 -0.0033,0 0.0047,0 0.0013,0 -1.673667,0 -3.301333,0.444 -4.725333,1.26633 -0.009,0.005 0.01167,-0.007 0.002,-0.001 -0.709667,0.41 -1.475333,0.72933 -2.28,0.94467 -2.420999,0.649 -4.999999,0.31 -7.170332,-0.94334 -1.449,-0.83666 -3.080667,-1.26633 -4.725333,-1.26633 -0.00367,0 0.00433,0 0.001,0 -1.673333,0 -3.301,0.444 -4.725,1.267 -0.00933,0.005 0.011334,-0.007 0.002,-10e-4 -0.709666,0.40966 -1.475,0.72866 -2.280333,0.94466 -2.420666,0.64834 -4.999666,0.30934 -7.169999,-0.944 -0.440333,-0.254 -0.897667,-0.47066 -1.367,-0.649 -3.33e-4,0 0,-6.6e-4 0,0" /><path
       inkscape:connector-curvature="0"
       id="path27"
       style="fill:#ffffff"
       d="m 37.368577,-152.50907 c -1.101,1.41066 -2.293,2.76099 -3.572333,4.03966 -4.78,4.78 -10.549332,8.34233 -16.827332,10.48833 l -3.33e-4,0 c -6.277999,-2.146 -12.047666,-5.70766 -16.827665,-10.48833 -1.279,-1.27867 -2.471,-2.629 -3.572,-4.03966 0,0 -3.33e-4,0 0,0 1.303,0.20966 2.648333,0.146 3.947667,-0.20167 0.805333,-0.216 1.570666,-0.535 2.280333,-0.94467 0.00933,-0.005 -0.011334,0.007 -0.002,10e-4 1.423999,-0.823 3.051666,-1.26634 4.724999,-1.26634 0.00333,0 -0.00433,0 -10e-4,0 1.644667,-6.6e-4 3.276333,0.429 4.725333,1.26567 2.170333,1.25333 4.749333,1.59233 7.169999,0.944 0.805334,-0.216 1.571,-0.535 2.280667,-0.94467 0.009,-0.005 -0.01167,0.007 -0.002,0.001 1.423666,-0.823 3.051333,-1.26634 4.724666,-1.26634 0.0033,0 -0.004,0 -6.67e-4,0 1.644667,-6.6e-4 3.276,0.429 4.725333,1.26567 1.89,1.09167 4.091,1.48967 6.226666,1.14533 6.67e-4,0 0,0 -6.66e-4,6.7e-4" /></g></svg>