<?xml version="1.0" encoding="UTF-8" standalone="no"?>
<svg
   xmlns:dc="http://purl.org/dc/elements/1.1/"
   xmlns:cc="http://creativecommons.org/ns#"
   xmlns:rdf="http://www.w3.org/1999/02/22-rdf-syntax-ns#"
   xmlns:svg="http://www.w3.org/2000/svg"
   xmlns="http://www.w3.org/2000/svg"
   xmlns:xlink="http://www.w3.org/1999/xlink"
   xmlns:sodipodi="http://sodipodi.sourceforge.net/DTD/sodipodi-0.dtd"
   xmlns:inkscape="http://www.inkscape.org/namespaces/inkscape"
   height="26"
   width="26"
   version="1.0"
   id="svg2"
   inkscape:version="0.48.3.1 r9886"
   sodipodi:docname="lib_previous.svg">
  <metadata
     id="metadata26">
    <rdf:RDF>
      <cc:Work
         rdf:about="">
        <dc:format>image/svg+xml</dc:format>
        <dc:type
           rdf:resource="http://purl.org/dc/dcmitype/StillImage" />
        <dc:title />
      </cc:Work>
    </rdf:RDF>
  </metadata>
  <sodipodi:namedview
     pagecolor="#ffffff"
     bordercolor="#666666"
     borderopacity="1"
     objecttolerance="10"
     gridtolerance="10"
     guidetolerance="10"
     inkscape:pageopacity="0"
     inkscape:pageshadow="2"
     inkscape:window-width="1301"
     inkscape:window-height="744"
     id="namedview24"
     showgrid="true"
     inkscape:zoom="22.961538"
     inkscape:cx="13"
     inkscape:cy="13"
     inkscape:window-x="65"
     inkscape:window-y="24"
     inkscape:window-maximized="1"
     inkscape:current-layer="g3918"
     inkscape:snap-grids="false"
     inkscape:snap-to-guides="false">
    <inkscape:grid
       type="xygrid"
       id="grid4170"
       empspacing="2"
       visible="true"
       enabled="true"
       snapvisiblegridlinesonly="true"
       originy="0px"
       spacingx="0.5px"
       spacingy="0.5px" />
  </sodipodi:namedview>
  <defs
     id="defs4">
    <linearGradient
       id="c"
       y2="34.730999"
       gradientUnits="userSpaceOnUse"
       x2="7.9313998"
       gradientTransform="matrix(-0.44083091,0,0,0.43821992,23.853521,2.3433518)"
       y1="15.195"
       x1="43.130001">
      <stop
         stop-color="#fff"
         offset="0"
         id="stop12" />
      <stop
         stop-color="#fff"
         stop-opacity="0"
         offset="1"
         id="stop14" />
    </linearGradient>
    <linearGradient
       id="m">
      <stop
         id="stop13"
         offset="0" />
      <stop
         id="stop15"
         stop-opacity="0"
         offset="1" />
    </linearGradient>
    <linearGradient
       id="n"
       y2="39.999001"
       gradientUnits="userSpaceOnUse"
       y1="47.028"
       x2="25.058001"
       x1="25.058001">
      <stop
         id="stop19"
         stop-opacity="0"
         offset="0" />
      <stop
         id="stop21"
         offset="0.5" />
      <stop
         id="stop23"
         stop-opacity="0"
         offset="1" />
    </linearGradient>
    <radialGradient
       id="x"
       gradientUnits="userSpaceOnUse"
       cy="35.356998"
       cx="-30.25"
       gradientTransform="matrix(3.9957,0,0,1.935,0.62141,28.833)"
       r="18">
      <stop
         id="stop26"
         stop-color="#f6f6f5"
         offset="0" />
      <stop
         id="stop28"
         stop-color="#d3d7cf"
         offset="1"
         style="stop-color:#e1e4de;stop-opacity:1;" />
    </radialGradient>
    <linearGradient
       id="t"
       x1="-47.5"
       gradientUnits="userSpaceOnUse"
       y1="49.021"
       gradientTransform="translate(-90,60)"
       x2="-62.75"
       y2="-22.502001">
      <stop
         id="stop31"
         stop-color="#888a85"
         offset="0"
         style="stop-color:#6e6f6d;stop-opacity:1;" />
      <stop
         id="stop33"
         stop-color="#babdb6"
         offset="1"
         style="stop-color:#a1a59b;stop-opacity:1;" />
    </linearGradient>
    <radialGradient
       id="v"
       gradientUnits="userSpaceOnUse"
       cy="5.3000002"
       cx="4"
       gradientTransform="matrix(1.886,0,0,1.1765,-3.5441,-4.2353)"
       r="17">
      <stop
         id="stop36"
         stop-color="#fff"
         offset="0" />
      <stop
         id="stop38"
         stop-color="#fff"
         stop-opacity="0"
         offset="1" />
    </radialGradient>
    <radialGradient
       id="w"
       gradientUnits="userSpaceOnUse"
       cy="10.108"
       cx="-26.305"
       gradientTransform="matrix(0.40734,-0.27983,0.75103,1.0932,-115.18,51.562)"
       r="7.0421">
      <stop
         id="stop46"
         stop-color="#fff"
         offset="0" />
      <stop
         id="stop48"
         stop-color="#fff"
         offset="0.47534" />
      <stop
         id="stop50"
         stop-color="#fff"
         stop-opacity="0"
         offset="1" />
    </radialGradient>
    <linearGradient
       id="s"
       x1="-18.589001"
       gradientUnits="userSpaceOnUse"
       y1="11.053"
       gradientTransform="matrix(0.92231,0,0,0.91858,-92.447,61.326)"
       x2="-28.789"
       y2="14.07">
      <stop
         id="stop53"
         stop-opacity=".41296"
         offset="0"
         style="stop-color:#000000;stop-opacity:0.68627453;" />
      <stop
         id="stop55"
         stop-opacity="0"
         offset="1"
         style="stop-color:#000000;stop-opacity:0.03921569;" />
    </linearGradient>
    <linearGradient
       id="r"
       y2="9.6875"
       gradientUnits="userSpaceOnUse"
       y1="11.566"
       x2="-24.75"
       x1="-26.754">
      <stop
         id="stop58"
         stop-color="#fff"
         offset="0" />
      <stop
         id="stop60"
         stop-color="#fff"
         stop-opacity="0"
         offset="1" />
    </linearGradient>
    <linearGradient
       inkscape:collect="always"
       xlink:href="#c"
       id="linearGradient3892"
       gradientUnits="userSpaceOnUse"
       gradientTransform="matrix(0.44083091,0,0,0.43821992,1.847812,2.8360761)"
       x1="43.130001"
       y1="15.195"
       x2="7.9313998"
       y2="34.730999" />
    <radialGradient
       inkscape:collect="always"
       xlink:href="#m"
       id="radialGradient4154"
       gradientUnits="userSpaceOnUse"
       gradientTransform="matrix(2.0038,0,0,1.4,27.988,-17.4)"
       cx="4.993"
       cy="43.5"
       r="2.5" />
    <radialGradient
       inkscape:collect="always"
       xlink:href="#m"
       id="radialGradient4156"
       gradientUnits="userSpaceOnUse"
       gradientTransform="matrix(2.0038,0,0,1.4,-20.012,-104.4)"
       cx="4.993"
       cy="43.5"
       r="2.5" />
    <linearGradient
       inkscape:collect="always"
       xlink:href="#n"
       id="linearGradient4158"
       gradientUnits="userSpaceOnUse"
       x1="25.058001"
       y1="47.028"
       x2="25.058001"
       y2="39.999001" />
    <radialGradient
       inkscape:collect="always"
       xlink:href="#x"
       id="radialGradient4160"
       gradientUnits="userSpaceOnUse"
       gradientTransform="matrix(3.9957,0,0,1.935,0.62141,28.833)"
       cx="-30.25"
       cy="35.356998"
       r="18" />
    <linearGradient
       inkscape:collect="always"
       xlink:href="#t"
       id="linearGradient4162"
       gradientUnits="userSpaceOnUse"
       gradientTransform="translate(-90,60)"
       x1="-47.5"
       y1="49.021"
       x2="-62.75"
       y2="-22.502001" />
    <radialGradient
       inkscape:collect="always"
       xlink:href="#v"
       id="radialGradient4164"
       gradientUnits="userSpaceOnUse"
       gradientTransform="matrix(1.886,0,0,1.1765,-153.5441,55.7647)"
       cx="4"
       cy="5.3000002"
       r="17" />
    <radialGradient
       inkscape:collect="always"
       xlink:href="#w"
       id="radialGradient4166"
       gradientUnits="userSpaceOnUse"
       gradientTransform="matrix(0.40734,-0.27983,0.75103,1.0932,-115.18,51.562)"
       cx="-26.305"
       cy="10.108"
       r="7.0421" />
    <linearGradient
       inkscape:collect="always"
       xlink:href="#s"
       id="linearGradient4168"
       gradientUnits="userSpaceOnUse"
       gradientTransform="matrix(0.92231,0,0,0.91858,-92.447,61.326)"
       x1="-18.589001"
       y1="11.053"
       x2="-28.789"
       y2="14.07" />
    <linearGradient
       inkscape:collect="always"
       xlink:href="#r"
       id="linearGradient4170"
       gradientUnits="userSpaceOnUse"
       gradientTransform="translate(-90,60)"
       x1="-26.754"
       y1="11.566"
       x2="-24.75"
       y2="9.6875" />
  </defs>
  <g
     id="g3918"
     transform="matrix(-1,0,0,1,26,-0.52261308)">
    <g
       transform="matrix(0.55022839,0,0,0.52450448,82.328777,-31.058376)"
       id="g62">
      <g
         id="g3856"
         transform="matrix(-1,0,0,1,-252,0)">
        <g
           id="g4141"
           transform="matrix(-1,0,0,1,-252,0)">
          <rect
             style="opacity:0"
             x="-150"
             y="60"
             width="48"
             height="48"
             id="rect64" />
          <g
             style="opacity:0.4"
             transform="matrix(1.0939743,0,0,3.5897213,-152.27578,-55.225368)"
             id="g66">
            <g
               style="opacity:0.4"
               transform="matrix(1.0526,0,0,1.2857,-1.2632,-13.429)"
               id="g68">
              <rect
                 style="fill:url(#radialGradient4154)"
                 x="38"
                 y="40"
                 width="5"
                 height="7"
                 id="rect70" />
              <rect
                 style="fill:url(#radialGradient4156)"
                 x="-10"
                 y="-47"
                 width="5"
                 height="7"
                 transform="scale(-1,-1)"
                 id="rect72" />
              <rect
                 style="fill:url(#linearGradient4158)"
                 x="10"
                 y="40"
                 width="28"
                 height="7"
                 id="rect74" />
            </g>
          </g>
          <path
             inkscape:connector-curvature="0"
             style="fill:url(#radialGradient4160);stroke:url(#linearGradient4162);stroke-width:1.8614608;stroke-miterlimit:4;stroke-dasharray:none"
             d="m -141.44813,63.070937 18.17427,0 c 4.26878,0.04358 7.44795,2.825272 9.94795,5.325272 2.5,2.5 4.19917,5.226539 4.59147,8.973939 l 0,24.785302 c 0,1.90656 -0.90872,2.85984 -2.72614,2.85984 l -29.07884,0 c -1.81742,0 -2.72614,-0.95328 -2.72614,-2.85984 l 0,-37.177951 c 0,-1.1212 0.69617,-1.906562 1.81743,-1.906562 z"
             id="path86"
             sodipodi:nodetypes="ccscsssssc" />
          <path
             inkscape:connector-curvature="0"
             style="opacity:0.68015998;fill:url(#radialGradient4164)"
             d="m -141.4688,64 c -0.8581,0 -1.28823,0.673119 -1.29375,1.5312 L -143,102.4692 c -0.006,0.85798 0.6731,1.531 1.5312,1.531 l 30.938,0 c 0.858,0 1.531,-0.673 1.531,-1.531 l 0,-24.969 c 0,-1.392 -0.48698,-4.2995 -2.3438,-6.1562 l -5,-5 c -1.857,-1.857 -4.764,-2.344 -6.156,-2.344 l -18.969,0 z"
             id="path88"
             sodipodi:nodetypes="ssssssscsscs" />
          <path
             inkscape:connector-curvature="0"
             style="fill:url(#radialGradient4166)"
             d="m -122.5,64 c -1.3889,0 -0.0421,0.49709 1.3438,1.125 1.3858,0.62791 4.9729,3.2151 4.1562,6.875 4.3233,-0.43058 6.6791,3.1224 7,4.2812 0.32087,1.1589 1,2.6076 1,1.2188 0.0283,-3.8056 -2.8454,-6.4317 -4.8438,-8.6562 -2,-2.225 -5.01,-4.367 -8.66,-4.844 z"
             id="path92" />
          <path
             inkscape:connector-curvature="0"
             style="opacity:0.87853998;fill:url(#linearGradient4168)"
             d="m -121.4,65.014 c 0.9223,0 3.0084,6.1957 2.0861,10.329 4.295,-0.42776 8.8534,0.08818 9.313,0.93765 -0.32087,-1.1589 -2.6767,-4.7118 -7,-4.2812 0.86466,-3.8752 -3.1866,-6.6173 -4.3991,-6.9856 z"
             id="path94" />
          <path
             inkscape:connector-curvature="0"
             style="fill:none;stroke:url(#linearGradient4170)"
             d="m -141.48879,64.105594 c -0.70172,0.08303 -0.79354,0.406584 -0.79354,1.363331 l -1e-5,37.000275 c 0,0.87377 0.66502,1.48875 1.30823,1.48788 l 29.86946,-0.0404 c 0.80098,-0.001 1.3193,-0.53329 1.32802,-1.32295 l 0.27703,-25.09353 c 0.0141,-1.278914 -0.48047,-4.1055 -2.1875,-5.8125 l -5,-5 c -1.707,-1.7075 -4.533,-2.603164 -5.812,-2.603164 -6.26849,-0.0253 -12.72654,0.159716 -18.98969,0.02106 z"
             id="path96"
             sodipodi:nodetypes="csssssssccc" />
        </g>
      </g>
    </g>
    <g
       id="g3887">
      <path
         style="color:#000000;fill:#646464;fill-opacity:1;stroke:#b4b4b4;stroke-width:0.43851605;stroke-opacity:1"
         d="m 12.186858,7.0019115 8.339193,7.2332575 -8.339193,7.196885 V 17.983702 H 5.606415 v -7.473841 h 6.580443 V 7.0023932 z"
         id="path18"
         inkscape:connector-curvature="0" />
      <path
         style="opacity:0.35393001;color:#000000;fill:#c8c8c8;fill-opacity:1"
         d="m 5.765912,10.714308 v 3.484856 L 20.145368,14.188603 12.41562,7.464557 v 3.250014 H 5.765912 z"
         id="path20"
         inkscape:connector-curvature="0" />
      <path
         style="opacity:0.35400002;color:#000000;fill:none;stroke:url(#linearGradient3892);stroke-width:0.43851605"
         d="m 12.647391,7.9341646 7.247812,6.3042324 -7.247812,6.222283 V 17.507955 H 6.035758 v -6.563658 h 6.611633 V 7.9342086 z"
         id="path22"
         inkscape:connector-curvature="0" />
    </g>
  </g>
</svg>
