<?xml version="1.0" encoding="UTF-8" standalone="no"?>
<!-- Created with Inkscape (http://www.inkscape.org/) -->

<svg
   xmlns:dc="http://purl.org/dc/elements/1.1/"
   xmlns:cc="http://creativecommons.org/ns#"
   xmlns:rdf="http://www.w3.org/1999/02/22-rdf-syntax-ns#"
   xmlns:svg="http://www.w3.org/2000/svg"
   xmlns="http://www.w3.org/2000/svg"
   xmlns:xlink="http://www.w3.org/1999/xlink"
   xmlns:sodipodi="http://sodipodi.sourceforge.net/DTD/sodipodi-0.dtd"
   xmlns:inkscape="http://www.inkscape.org/namespaces/inkscape"
   version="1.0"
   width="48"
   height="48"
   id="svg2"
   inkscape:version="0.47 r22583"
   sodipodi:docname="libedit.svg">
  <metadata
     id="metadata166">
    <rdf:RDF>
      <cc:Work
         rdf:about="">
        <dc:format>image/svg+xml</dc:format>
        <dc:type
           rdf:resource="http://purl.org/dc/dcmitype/StillImage" />
        <dc:title />
      </cc:Work>
    </rdf:RDF>
  </metadata>
  <sodipodi:namedview
     pagecolor="#ffffff"
     bordercolor="#666666"
     borderopacity="1"
     objecttolerance="10"
     gridtolerance="10"
     guidetolerance="10"
     inkscape:pageopacity="0"
     inkscape:pageshadow="2"
     inkscape:window-width="1280"
     inkscape:window-height="949"
     id="namedview164"
     showgrid="false"
     inkscape:zoom="3.4766083"
     inkscape:cx="51.385034"
     inkscape:cy="6.1906766"
     inkscape:window-x="0"
     inkscape:window-y="25"
     inkscape:window-maximized="1"
     inkscape:current-layer="svg2" />
  <defs
     id="defs4">
    <linearGradient
       id="linearGradient6881-1">
      <stop
         id="stop6883-0"
         style="stop-color:#ffffff;stop-opacity:1"
         offset="0" />
      <stop
         id="stop6885-3"
         style="stop-color:#ffffff;stop-opacity:0"
         offset="1" />
    </linearGradient>
    <linearGradient
       x1="14.462892"
       y1="12.284524"
       x2="34.534348"
       y2="39.684914"
       id="linearGradient4064"
       xlink:href="#linearGradient3264-3"
       gradientUnits="userSpaceOnUse"
       gradientTransform="matrix(0.92673346,0,0,0.8449938,4.7270711,52.187103)" />
    <linearGradient
       id="linearGradient3264-3">
      <stop
         id="stop3266-9"
         style="stop-color:#c9c9c9;stop-opacity:1"
         offset="0" />
      <stop
         id="stop3276-4"
         style="stop-color:#f8f8f8;stop-opacity:1"
         offset="0.25" />
      <stop
         id="stop3272-8"
         style="stop-color:#e2e2e2;stop-opacity:1"
         offset="0.5" />
      <stop
         id="stop3274-1"
         style="stop-color:#b0b0b0;stop-opacity:1"
         offset="0.75" />
      <stop
         id="stop3268-2"
         style="stop-color:#c9c9c9;stop-opacity:1"
         offset="1" />
    </linearGradient>
    <linearGradient
       inkscape:collect="always"
       xlink:href="#linearGradient6881-1"
       id="linearGradient3138"
       gradientUnits="userSpaceOnUse"
       gradientTransform="matrix(1.1133613,0,0,1.0128506,-3.5243074,-0.1684564)"
       x1="17.353554"
       y1="7.9356604"
       x2="28.035534"
       y2="81.759773" />
  </defs>
  <path
     style="opacity:0.46120689;fill:none;stroke:url(#linearGradient3138);stroke-width:1.06191742;stroke-linecap:round;stroke-linejoin:miter;stroke-miterlimit:0;stroke-opacity:1;stroke-dashoffset:0"
     id="path6132-3"
     d="m 8.6878726,7.4595734 c -0.92249,0 -1.60045,0.61676 -1.60045,1.45597 l 0,34.5002296 c 0,0.83921 0.67796,1.45597 1.60045,1.45597 l 30.1303394,0 c 0.9225,0 1.60046,-0.61676 1.60046,-1.45597 l 0,-34.5002296 c 0,-0.83921 -0.67796,-1.45597 -1.60046,-1.45597 l -30.1303394,0 z" />
  <g
     id="g4038"
     transform="translate(4.1024494,-40.2928)">
    <path
       style="color:#000000;fill:url(#linearGradient4064);fill-opacity:1;fill-rule:nonzero;stroke:#000000;stroke-width:1.30211842;stroke-linecap:butt;stroke-linejoin:miter;stroke-miterlimit:4;stroke-opacity:1;stroke-dasharray:none;stroke-dashoffset:0;marker:none;visibility:visible;display:inline;overflow:visible"
       id="path3243-9"
       d="m 25.827783,57.41092 c -0.34731,0.02167 -0.684888,0.07071 -1.026026,0.10631 l -0.02332,0 -0.816158,4.061047 c -1.330271,0.276229 -2.581788,0.745015 -3.707687,1.382032 L 16.593543,60.5577 c -0.989679,0.700585 -1.890277,1.517663 -2.681661,2.402609 l 2.541748,3.380661 c -0.771743,1.075359 -1.352094,2.303256 -1.678953,3.593283 -5.2e-5,0.0061 -4.5e-5,0.0202 0,0.02126 l -4.430576,0.637861 c -0.081,0.603252 -0.11659,1.226692 -0.11659,1.849796 0,0.509813 0.0154,1.012814 0.0699,1.509604 l 4.430571,0.722909 c 0.315106,1.40288 0.913694,2.713043 1.74891,3.869689 l -2.635024,3.295614 c 0.754657,0.854236 1.625891,1.631983 2.565068,2.317561 l 3.731005,-2.338823 c 1.303938,0.758437 2.759515,1.290265 4.337296,1.552128 l 0.699564,4.018524 c 0.497106,0.04126 1.006885,0.04252 1.51572,0.04252 0.718358,-10e-7 1.404528,-0.02482 2.098692,-0.10631 l 0.839476,-4.103572 C 31.126734,82.883093 32.534,82.293411 33.756115,81.50079 l 3.591094,2.381347 c 0.93128,-0.722431 1.782881,-1.552812 2.518429,-2.445133 l -2.611705,-3.444449 c 0.707289,-1.113783 1.197377,-2.342661 1.445765,-3.657068 l 4.407289,-0.637861 c 0.03865,-0.419353 0.04663,-0.826047 0.04663,-1.25446 0,-0.744486 -0.09491,-1.474451 -0.209869,-2.189989 L 38.46654,69.509007 C 38.115681,68.327706 37.54,67.225565 36.810906,66.234654 l 2.635023,-3.295613 C 38.629157,62.028272 37.697447,61.186926 36.670993,60.472646 L 32.87003,62.853993 C 31.777595,62.264889 30.601979,61.812879 29.325574,61.557009 L 28.62601,57.517224 c -0.636732,-0.06829 -1.278705,-0.10631 -1.935459,-0.10631 -0.1775,0 -0.360179,-0.0051 -0.536332,0 -0.08587,0.0024 -0.170855,-0.0046 -0.256507,0 -0.0232,0.0012 -0.0468,-0.0014 -0.06996,0 z m 0.606289,10.333344 c 0.08519,-0.0039 0.170248,0 0.256507,0 2.760293,0 5.013539,2.054507 5.013539,4.571336 10e-7,2.51683 -2.253246,4.550074 -5.013539,4.550074 -2.760292,10e-7 -4.990221,-2.033244 -4.990221,-4.550074 0,-2.438177 2.092796,-4.449144 4.733714,-4.571336 z" />
    <path
       style="opacity:0.34659089;color:#000000;fill:none;stroke:#000000;stroke-width:1.40031743;stroke-linecap:butt;stroke-linejoin:miter;stroke-miterlimit:4;stroke-opacity:1;stroke-dasharray:none;stroke-dashoffset:0;marker:none;visibility:visible;display:inline;overflow:visible"
       id="path3285-8"
       d="m 25.311254,58.214701 -0.655305,3.931951 c -1.246901,0.258917 -3.54052,1.050794 -4.595857,1.647888 l -3.486279,-2.37263 c -0.927655,0.656679 -0.991269,0.701212 -1.73306,1.530697 l 2.520711,3.408696 c -0.72338,1.007964 -1.59225,2.804203 -1.904214,4.087812 0,0 -4.417071,0.678916 -4.417071,0.678916 -0.07593,0.565445 -0.03948,1.775667 0.01164,2.241323 l 4.219201,0.693032 c 0.295355,1.314958 1.400643,3.431581 2.183515,4.515737 l -2.668098,3.214168 c 0.707355,0.800699 0.848924,0.873969 1.72924,1.516582 l 3.567714,-2.383266 c 1.222217,0.710903 3.648203,1.575694 5.127101,1.821146 l 0.585534,3.882449 c 0.465951,0.03867 1.753185,0.147154 2.403844,0.07077 l 0.655306,-4.041591 c 1.404158,-0.318616 3.83037,-1.226706 4.975892,-1.969653 l 3.563898,2.347878 c 0.872915,-0.677154 0.880736,-0.779188 1.570186,-1.615585 l -2.640955,-3.422813 c 0.662962,-1.043981 1.520183,-3.085697 1.753005,-4.317728 l 4.323968,-0.654165 c 0.03623,-0.393071 0.03799,-1.489219 -0.06977,-2.159912 l -4.405408,-0.693032 c -0.328871,-1.107266 -1.457489,-3.102543 -2.140888,-4.031352 l 2.80001,-3.214167 c -0.765581,-0.853688 -1.050237,-0.970821 -2.012361,-1.640336 l -3.68796,2.408016 C 31.860822,63.14335 29.81894,62.301594 28.622531,62.06176 l -0.65149,-3.847062 c -0.596827,-0.06401 -2.318742,-0.03559 -2.659818,0 z" />
    <path
       style="opacity:0.64772728;color:#000000;fill:none;stroke:#000000;stroke-width:0.71253353;stroke-linecap:butt;stroke-linejoin:miter;stroke-miterlimit:4;stroke-opacity:1;stroke-dasharray:none;stroke-dashoffset:0;marker:none;visibility:visible;display:inline;overflow:visible"
       id="path3283-0"
       d="m 32.454015,72.305939 a 5.7604605,5.2523769 0 0 1 -11.520921,0 5.7604605,5.2523769 0 1 1 11.520921,0 z" />
  </g>
  <g
     id="g3324"
     transform="matrix(1.353089,0,0,1.4458471,-103.71376,4.1444321)">
    <path
       style="opacity:0.62891002;fill:#ffffff;fill-rule:evenodd;stroke:#000000;stroke-width:1.14577985;stroke-linejoin:round"
       d="M 91.833158,5.9599918 C 90.36789,3.4650508 81.632804,0.18636824 77.608639,-0.4748568 c 0.212367,7.7695243 0.216449,12.0237868 -0.0029,19.2059598 5.248608,0.701362 10.322859,2.865742 14.342476,5.00575 0,1.044902 -0.114839,-17.149972 -0.114839,-17.7768612 z"
       id="path37" />
    <path
       style="opacity:0.62891002;fill:#ffffff;fill-rule:evenodd;stroke:#000000;stroke-width:1.14577985;stroke-linejoin:round"
       d="M 91.833158,5.910569 C 95.595333,2.3320981 100.68202,0.87568624 106.54376,-0.72145056 106.10171,7.5899037 106.38472,11.893329 106.4318,18.583095 c -5.30622,0.06103 -10.808937,2.619409 -14.483781,5.153498 0,-0.03876 -0.114839,-17.1991348 -0.114839,-17.826024 z"
       id="path39" />
    <path
       style="opacity:0.62891002;fill:#ffffff;fill-opacity:0.27935001;fill-rule:evenodd"
       d="m 103.37834,26.404383 -22.959972,0 c -3.531113,0 -5.260131,-1.483178 -5.260131,-4.512301 0,0 8.375213,-17.3018822 33.479623,-19.9402793 l 0,19.9402793 c 0,3.029097 -1.72899,4.512301 -5.26013,4.512301 z"
       id="path35" />
    <path
       style="opacity:0.62891002;fill:none;stroke:#000000;stroke-width:0.22915597"
       d="m 104.19099,2.3851626 c 0,0 -5.922988,1.4842967 -10.631543,4.970373"
       id="path49" />
    <path
       style="opacity:0.62891002;fill:none;stroke:#000000;stroke-width:0.35106131"
       d="m 103.83925,5.095613 c 0,0 -5.450259,0.8688008 -10.277681,4.2050999"
       id="path51" />
    <path
       style="opacity:0.62891002;fill:none;stroke:#000000;stroke-width:0.35106131"
       d="m 103.65124,7.4970408 c 0,0 -5.08213,0.8559509 -10.090277,3.9249512"
       id="path53" />
    <path
       style="opacity:0.62891002;fill:none;stroke:#000000;stroke-width:0.35106131"
       d="m 103.65428,9.9413885 c 0,0 -4.924762,0.4508915 -10.093014,3.7142535"
       id="path55" />
    <path
       style="opacity:0.62891002;fill:none;stroke:#000000;stroke-width:0.35106131"
       d="m 103.58757,11.980469 c -0.0574,0.01248 -4.465672,0.854885 -10.026304,3.834169"
       id="path57" />
    <path
       style="opacity:0.62891002;fill:none;stroke:#000000;stroke-width:0.35106131"
       d="m 103.83621,13.969607 c -0.0574,0.01248 -4.787087,0.92405 -10.275247,4.033941"
       id="path59" />
    <path
       style="opacity:0.62891002;fill:none;stroke:#000000;stroke-width:0.35106131"
       d="m 103.91202,16.095177 c 0,0 -5.176134,1.042509 -10.351664,4.089607"
       id="path61" />
    <path
       style="opacity:0.62891002;fill:#ffffff;fill-rule:evenodd;stroke:#000000;stroke-width:1.07559562;stroke-linejoin:round"
       d="m 91.873791,5.895482 c 3.315214,-3.9488817 7.798166,-5.90550436 12.963689,-8.0795873 -0.38956,8.3547943 -0.14014,12.6303863 -0.0987,19.3154703 -4.67611,0.583189 -9.525363,3.683039 -12.763859,6.578695 0,-0.03875 -0.1012,-17.1876888 -0.1012,-17.8148381 z"
       id="path63" />
    <path
       style="opacity:0.62891002;fill:none;stroke:#000000;stroke-width:0.35106131"
       d="m 102.76581,1.1537545 c 0,0 -5.219798,2.0671476 -9.368895,6.0165756"
       id="path65" />
    <path
       style="opacity:0.62891002;fill:none;stroke:#000000;stroke-width:0.35106131"
       d="m 102.28974,6.3189574 c 0,0 -4.478402,1.3560315 -8.891915,4.9178286"
       id="path67" />
    <path
       style="opacity:0.62891002;fill:none;stroke:#000000;stroke-width:0.35106131"
       d="m 102.23213,10.808889 c -0.0506,0.01813 -3.935321,1.294331 -8.835518,4.820804"
       id="path69" />
    <path
       style="opacity:0.62891002;fill:none;stroke:#000000;stroke-width:0.35106131"
       d="m 102.5202,14.891472 c 0,0 -4.561492,1.55185 -9.122375,5.108237"
       id="path71" />
    <path
       style="opacity:0.62891002;fill:none;stroke:#000000;stroke-width:0.35106131"
       d="m 81.120346,2.3357398 c 0,0 5.224956,1.4842967 9.378297,4.970373"
       id="path73" />
    <path
       style="opacity:0.62891002;fill:none;stroke:#000000;stroke-width:0.35106131"
       d="m 81.432369,5.0464503 c 0,0 4.807712,0.8688008 9.065971,4.2050999"
       id="path75" />
    <path
       style="opacity:0.62891002;fill:none;stroke:#000000;stroke-width:0.35106131"
       d="m 81.597933,7.4478782 c 0,0 4.482952,0.8559508 8.90071,3.9249508"
       id="path77" />
    <path
       style="opacity:0.62891002;fill:none;stroke:#000000;stroke-width:0.35106131"
       d="m 81.595204,9.8922258 c 0,0 4.344073,0.4508922 8.903136,3.7142532"
       id="path79" />
    <path
       style="opacity:0.62891002;fill:none;stroke:#000000;stroke-width:0.35106131"
       d="m 81.654334,11.931306 c 0.05065,0.01248 3.939261,0.854885 8.844309,3.834169"
       id="path81" />
    <path
       style="opacity:0.62891002;fill:none;stroke:#000000;stroke-width:0.35106131"
       d="m 81.434492,13.920184 c 0.05065,0.01248 4.222781,0.92405 9.064151,4.033941"
       id="path83" />
    <path
       style="opacity:0.62891002;fill:none;stroke:#000000;stroke-width:0.35106131"
       d="m 81.367175,16.045937 c 0,0 4.565734,1.042509 9.131468,4.089606"
       id="path85" />
    <path
       style="opacity:0.62891002;fill:#ffffff;fill-rule:evenodd;stroke:#000000;stroke-width:1.01021397;stroke-linejoin:round"
       d="m 91.986593,5.8463193 c -2.92435,-3.9488817 -6.878773,-5.90550434 -11.43541,-8.0795873 0.34362,8.3547943 0.123624,12.630387 0.08703,19.315471 4.124838,0.583163 8.402503,3.683039 11.259233,6.578695 0,-0.03876 0.08927,-17.1876895 0.08927,-17.8148388 z"
       id="path87" />
    <path
       style="opacity:0.62891002;fill:none;stroke:#000000;stroke-width:0.35106131"
       d="m 82.379053,1.1045918 c 0,0 4.604245,2.0671477 8.264534,6.0165756"
       id="path89" />
    <path
       style="opacity:0.62891002;fill:none;stroke:#000000;stroke-width:0.35106131"
       d="m 82.799633,6.2697947 c 0,0 3.950481,1.3560316 7.843651,4.9178283"
       id="path91" />
    <path
       style="opacity:0.62891002;fill:none;stroke:#000000;stroke-width:0.35106131"
       d="m 82.849666,10.759726 c 0.04463,0.01813 3.471377,1.294331 7.793921,4.820804"
       id="path93" />
    <path
       style="opacity:0.62891002;fill:none;stroke:#000000;stroke-width:0.35106131"
       d="m 82.596469,14.842309 c 0,0 4.023559,1.55185 8.047118,5.108237"
       id="path95" />
  </g>
  <path
     id="path35-0"
     d="m -10.906842,50.37217 -31.973522,0 c -4.917346,0 -7.325136,-2.159974 -7.325136,-6.57133 0,0 11.663126,-25.196981 46.6229426,-29.039317 l 0,29.039317 c 0,4.411318 -2.4077512,6.57133 -7.3251346,6.57133 z"
     style="opacity:0.62891002;fill:#ffffff;fill-opacity:0.27935001;fill-rule:evenodd" />
</svg>
