<?xml version="1.0" encoding="UTF-8" standalone="no"?>
<!-- Created with Inkscape (http://www.inkscape.org/) -->

<svg
   xmlns:dc="http://purl.org/dc/elements/1.1/"
   xmlns:cc="http://creativecommons.org/ns#"
   xmlns:rdf="http://www.w3.org/1999/02/22-rdf-syntax-ns#"
   xmlns:svg="http://www.w3.org/2000/svg"
   xmlns="http://www.w3.org/2000/svg"
   xmlns:xlink="http://www.w3.org/1999/xlink"
   xmlns:sodipodi="http://sodipodi.sourceforge.net/DTD/sodipodi-0.dtd"
   xmlns:inkscape="http://www.inkscape.org/namespaces/inkscape"
   version="1.0"
   width="26"
   height="26"
   id="svg2"
   inkscape:version="0.48.3.1 r9886"
   sodipodi:docname="libedit.svg">
  <metadata
     id="metadata166">
    <rdf:RDF>
      <cc:Work
         rdf:about="">
        <dc:format>image/svg+xml</dc:format>
        <dc:type
           rdf:resource="http://purl.org/dc/dcmitype/StillImage" />
        <dc:title></dc:title>
      </cc:Work>
    </rdf:RDF>
  </metadata>
  <sodipodi:namedview
     pagecolor="#ffffff"
     bordercolor="#666666"
     borderopacity="1"
     objecttolerance="10"
     gridtolerance="10"
     guidetolerance="10"
     inkscape:pageopacity="0"
     inkscape:pageshadow="2"
     inkscape:window-width="1600"
     inkscape:window-height="849"
     id="namedview164"
     showgrid="true"
     inkscape:zoom="13.906433"
     inkscape:cx="7.995973"
     inkscape:cy="18.405854"
     inkscape:window-x="0"
     inkscape:window-y="29"
     inkscape:window-maximized="1"
     inkscape:current-layer="svg2"
     inkscape:snap-to-guides="false"
     inkscape:snap-grids="false">
    <inkscape:grid
       type="xygrid"
       id="grid3041"
       empspacing="1"
       visible="true"
       enabled="true"
       snapvisiblegridlinesonly="true" />
  </sodipodi:namedview>
  <defs
     id="defs4">
    <clipPath
       id="ba">
      <path
         style="fill:#ffffff"
         d="m 0,96 v 60 H 96 V 96 H 0 z m 68,20 c 9.9411,0 18,8.0589 18,18 0,9.9411 -8.0589,18 -18,18 -9.9411,0 -18,-8.0589 -18,-18 0,-9.9411 8.0589,-18 18,-18 z"
         id="path125"
         inkscape:connector-curvature="0" />
    </clipPath>
    <linearGradient
       id="bl"
       y2="5.9782"
       gradientUnits="userSpaceOnUse"
       x2="69"
       gradientTransform="matrix(-0.2255,-0.071329,0.05452,-0.20327,7.6326,90.834)"
       y1="122"
       x1="69">
      <stop
         stop-color="#1e71ac"
         offset="0"
         id="stop128" />
      <stop
         stop-color="#81c1e9"
         offset="1"
         id="stop130" />
    </linearGradient>
    <linearGradient
       id="bm"
       y2="67.706001"
       xlink:href="#a"
       gradientUnits="userSpaceOnUse"
       x2="118.33"
       gradientTransform="matrix(0.39018,0.62586,-0.63862,0.30043,3.5817,-20.909)"
       y1="87.488998"
       x1="120.65" />
    <linearGradient
       id="a">
      <stop
         offset="0"
         id="stop15" />
      <stop
         stop-opacity="0"
         offset="1"
         id="stop17" />
    </linearGradient>
    <linearGradient
       id="bn"
       y2="5.9782"
       gradientUnits="userSpaceOnUse"
       x2="69"
       gradientTransform="matrix(-0.2255,-0.071329,0.05452,-0.20327,7.6018,90.825)"
       y1="122"
       x1="69">
      <stop
         stop-color="#cd2323"
         offset="0"
         id="stop134" />
      <stop
         stop-color="#ef7474"
         offset="1"
         id="stop136" />
    </linearGradient>
    <linearGradient
       id="ao"
       y2="67.706001"
       xlink:href="#a"
       gradientUnits="userSpaceOnUse"
       x2="118.33"
       y1="87.488998"
       x1="120.65" />
    <clipPath
       id="aq">
      <path
         style="fill:url(#linearGradient4033)"
         d="m 118,56 c -9.9411,0 -18,8.0589 -18,18 0,9.9411 8.0589,18 18,18 9.7305,0 17.637,-7.7253 17.969,-17.375 v -1.25 C 135.639,63.725 127.729,56 117.999,56 z m -6,10.75 c 5.9493,0.05747 10.832,4.9413 11.031,10.875 l 3.75,0.03125 -6,8.7188 -6.1562,-8.8125 3.9688,0.03125 c -0.25101,-4.9057 -4.4893,-9.9506 -11.719,-9.625 1.5223,-0.80073 3.2718,-1.2367 5.125,-1.2188 z"
         id="path122"
         inkscape:connector-curvature="0" />
    </clipPath>
    <linearGradient
       id="bo"
       y2="5.1837001"
       xlink:href="#an"
       gradientUnits="userSpaceOnUse"
       x2="84.360001"
       gradientTransform="matrix(0.21868,0.069171,-0.053262,0.19858,-13.124,56.327)"
       y1="79.417"
       x1="84.360001" />
    <linearGradient
       id="an">
      <stop
         stop-color="#fff"
         offset="0"
         id="stop65" />
      <stop
         stop-color="#fff"
         stop-opacity=".49804"
         offset=".43290"
         id="stop67" />
      <stop
         stop-color="#fff"
         stop-opacity="0"
         offset="1"
         id="stop69" />
    </linearGradient>
    <linearGradient
       id="bp"
       y2="67.706001"
       xlink:href="#a"
       gradientUnits="userSpaceOnUse"
       x2="118.33"
       gradientTransform="matrix(-0.39018,-0.62586,0.63862,-0.30043,-9.9736,166.82)"
       y1="87.488998"
       x1="120.65" />
    <linearGradient
       y2="67.706001"
       x2="118.33"
       y1="87.488998"
       x1="120.65"
       gradientUnits="userSpaceOnUse"
       id="linearGradient3263"
       xlink:href="#a"
       inkscape:collect="always" />
    <linearGradient
       y2="31.210939"
       x2="23.575972"
       y1="25.356892"
       x1="23.575972"
       spreadMethod="pad"
       gradientTransform="matrix(0.415777,-0.4174938,0.518983,0.5146192,-15.747227,2.6503673)"
       gradientUnits="userSpaceOnUse"
       id="linearGradient8639-3"
       xlink:href="#linearGradient3155-40-8"
       inkscape:collect="always" />
    <linearGradient
       id="linearGradient3155-40-8">
      <stop
         style="stop-color:#181818;stop-opacity:1;"
         offset="0"
         id="stop2541-6" />
      <stop
         id="stop2543-0"
         offset="0.13482948"
         style="stop-color:#dbdbdb;stop-opacity:1;" />
      <stop
         style="stop-color:#a4a4a4;stop-opacity:1;"
         offset="0.20224422"
         id="stop2545-4" />
      <stop
         id="stop2547-8"
         offset="0.26965895"
         style="stop-color:#ffffff;stop-opacity:1;" />
      <stop
         style="stop-color:#8d8d8d;stop-opacity:1;"
         offset="0.44650277"
         id="stop2549-8" />
      <stop
         id="stop2551-8"
         offset="0.57114136"
         style="stop-color:#959595;stop-opacity:1;" />
      <stop
         style="stop-color:#cecece;stop-opacity:1;"
         offset="0.72038066"
         id="stop2553-9" />
      <stop
         style="stop-color:#181818;stop-opacity:1;"
         offset="1"
         id="stop2555-7" />
    </linearGradient>
    <linearGradient
       y2="30.000141"
       x2="30.037716"
       y1="24.989594"
       x1="30.037716"
       gradientTransform="matrix(0.4040235,-0.4056919,0.6073752,0.6022679,-17.867764,0.6930272)"
       gradientUnits="userSpaceOnUse"
       id="linearGradient8641-7"
       xlink:href="#linearGradient3240-279-6"
       inkscape:collect="always" />
    <linearGradient
       id="linearGradient3240-279-6">
      <stop
         id="stop2559-4"
         offset="0"
         style="stop-color:#565656;stop-opacity:1;" />
      <stop
         style="stop-color:#9a9a9a;stop-opacity:1;"
         offset="0.5"
         id="stop2561-3" />
      <stop
         id="stop2563-0"
         offset="1"
         style="stop-color:#545454;stop-opacity:1;" />
    </linearGradient>
    <linearGradient
       y2="30.000141"
       x2="30.037716"
       y1="24.989594"
       x1="30.037716"
       gradientTransform="matrix(0.4040235,-0.4056919,0.6073752,0.6022679,-17.983472,0.8092126)"
       gradientUnits="userSpaceOnUse"
       id="linearGradient8643-3"
       xlink:href="#linearGradient3223-789-0"
       inkscape:collect="always" />
    <linearGradient
       id="linearGradient3223-789-0">
      <stop
         style="stop-color:#b1b1b1;stop-opacity:1;"
         offset="0"
         id="stop2567-9" />
      <stop
         id="stop2569-2"
         offset="0.5"
         style="stop-color:#ffffff;stop-opacity:1;" />
      <stop
         style="stop-color:#8f8f8f;stop-opacity:1;"
         offset="1"
         id="stop2571-5" />
    </linearGradient>
    <linearGradient
       y2="30.000141"
       x2="30.037716"
       y1="24.989594"
       x1="30.037716"
       gradientTransform="matrix(0.4040235,-0.4056919,0.6073752,0.6022679,-17.465684,0.2892868)"
       gradientUnits="userSpaceOnUse"
       id="linearGradient8645-4"
       xlink:href="#linearGradient3240-686-0"
       inkscape:collect="always" />
    <linearGradient
       id="linearGradient3240-686-0">
      <stop
         id="stop2575-5"
         offset="0"
         style="stop-color:#565656;stop-opacity:1;" />
      <stop
         style="stop-color:#9a9a9a;stop-opacity:1;"
         offset="0.5"
         id="stop2577-9" />
      <stop
         id="stop2579-4"
         offset="1"
         style="stop-color:#545454;stop-opacity:1;" />
    </linearGradient>
    <linearGradient
       y2="30.000141"
       x2="30.037716"
       y1="24.989594"
       x1="30.037716"
       gradientTransform="matrix(0.4040235,-0.4056919,0.6073752,0.6022679,-17.581392,0.4054707)"
       gradientUnits="userSpaceOnUse"
       id="linearGradient8647-6"
       xlink:href="#linearGradient3223-768-9"
       inkscape:collect="always" />
    <linearGradient
       id="linearGradient3223-768-9">
      <stop
         style="stop-color:#b1b1b1;stop-opacity:1;"
         offset="0"
         id="stop2583-2" />
      <stop
         id="stop2585-2"
         offset="0.5"
         style="stop-color:#ffffff;stop-opacity:1;" />
      <stop
         style="stop-color:#8f8f8f;stop-opacity:1;"
         offset="1"
         id="stop2587-4" />
    </linearGradient>
    <linearGradient
       y2="30.000141"
       x2="30.037716"
       y1="24.989594"
       x1="30.037716"
       gradientTransform="matrix(0.4040235,-0.4056919,0.6073752,0.6022679,-17.061661,-0.1164056)"
       gradientUnits="userSpaceOnUse"
       id="linearGradient8649-7"
       xlink:href="#linearGradient3240-907-7"
       inkscape:collect="always" />
    <linearGradient
       id="linearGradient3240-907-7">
      <stop
         id="stop2591-5"
         offset="0"
         style="stop-color:#565656;stop-opacity:1;" />
      <stop
         style="stop-color:#9a9a9a;stop-opacity:1;"
         offset="0.5"
         id="stop2593-4" />
      <stop
         id="stop2595-8"
         offset="1"
         style="stop-color:#545454;stop-opacity:1;" />
    </linearGradient>
    <linearGradient
       y2="30.000141"
       x2="30.037716"
       y1="24.989594"
       x1="30.037716"
       gradientTransform="matrix(0.4040235,-0.4056919,0.6073752,0.6022679,-17.177369,-2.1969969e-4)"
       gradientUnits="userSpaceOnUse"
       id="linearGradient8651-1"
       xlink:href="#linearGradient3223-699-2"
       inkscape:collect="always" />
    <linearGradient
       id="linearGradient3223-699-2">
      <stop
         style="stop-color:#b1b1b1;stop-opacity:1;"
         offset="0"
         id="stop2599-8" />
      <stop
         id="stop2601-9"
         offset="0.5"
         style="stop-color:#ffffff;stop-opacity:1;" />
      <stop
         style="stop-color:#8f8f8f;stop-opacity:1;"
         offset="1"
         id="stop2603-3" />
    </linearGradient>
    <linearGradient
       y2="26.02973"
       x2="9"
       y1="29.056757"
       x1="9"
       gradientTransform="matrix(0.4040235,-0.4056919,0.6073752,0.602268,-17.636692,0.462492)"
       gradientUnits="userSpaceOnUse"
       id="linearGradient8653-6"
       xlink:href="#linearGradient3290-678-8"
       inkscape:collect="always" />
    <linearGradient
       id="linearGradient3290-678-8">
      <stop
         style="stop-color:#ece5a5;stop-opacity:1;"
         offset="0"
         id="stop2607-0" />
      <stop
         style="stop-color:#fcfbf2;stop-opacity:1;"
         offset="1"
         id="stop2609-2" />
    </linearGradient>
    <linearGradient
       y2="41.391716"
       x2="9.5220556"
       y1="37.371799"
       x1="5.5178981"
       gradientTransform="matrix(0.3763801,0.03615261,0.03669995,0.374874,-2.2182805,-1.1331002)"
       gradientUnits="userSpaceOnUse"
       id="linearGradient8655-1"
       xlink:href="#linearGradient3191-577-0"
       inkscape:collect="always" />
    <linearGradient
       id="linearGradient3191-577-0">
      <stop
         style="stop-color:#dbce48;stop-opacity:1;"
         offset="0"
         id="stop2613-5" />
      <stop
         style="stop-color:#c5b625;stop-opacity:1;"
         offset="1"
         id="stop2615-1" />
    </linearGradient>
  </defs>
  <g
     id="g2983"
     transform="matrix(0.67065061,0,0,0.63959329,-0.72214704,-0.25711042)">
    <path
       style="opacity:0.62891002;fill:#ffffff;fill-rule:evenodd;stroke:#000000;stroke-width:1.49013674;stroke-linejoin:round"
       d="M 20.333126,12.035343 C 18.444903,8.7606248 7.1884028,4.4572113 2.002648,3.5893247 2.2763155,13.787163 2.2815758,19.371068 1.9989109,28.797982 8.7625485,29.718551 15.3015,32.559393 20.481394,35.368247 c 0,1.371479 -0.147987,-22.510084 -0.147987,-23.332904 z"
       id="path37"
       inkscape:connector-curvature="0" />
    <path
       style="opacity:0.62891002;fill:#ffffff;fill-rule:evenodd;stroke:#000000;stroke-width:1.49013674;stroke-linejoin:round"
       d="M 20.333126,11.970474 C 25.181266,7.2735751 31.736244,5.3619712 39.289996,3.2656597 38.720347,14.174674 39.085048,19.823107 39.145718,28.603715 c -6.837879,0.0801 -13.928975,3.438089 -18.664576,6.764191 0,-0.05087 -0.147988,-22.574613 -0.147988,-23.397432 z"
       id="path39"
       inkscape:connector-curvature="0" />
    <path
       style="opacity:0.62891002;fill:none;stroke:#000000;stroke-width:0.29802737"
       d="m 36.25809,7.3432246 c 0,0 -7.632679,1.948204 -13.700376,6.5238304"
       id="path49"
       inkscape:connector-curvature="0" />
    <path
       style="opacity:0.62891002;fill:none;stroke:#000000;stroke-width:0.45657057"
       d="m 35.804819,10.900809 c 0,0 -7.023496,1.140338 -13.24437,5.519376"
       id="path51"
       inkscape:connector-curvature="0" />
    <path
       style="opacity:0.62891002;fill:none;stroke:#000000;stroke-width:0.45657057"
       d="m 35.56254,14.052787 c 0,0 -6.549106,1.123473 -13.002872,5.151669"
       id="path53"
       inkscape:connector-curvature="0" />
    <path
       style="opacity:0.62891002;fill:none;stroke:#000000;stroke-width:0.45657057"
       d="m 35.566457,17.2611 c 0,0 -6.346312,0.591814 -13.006399,4.875119"
       id="path55"
       inkscape:connector-curvature="0" />
    <path
       style="opacity:0.62891002;fill:none;stroke:#000000;stroke-width:0.45657057"
       d="m 35.480491,19.937482 c -0.07397,0.01638 -5.754704,1.122073 -12.920433,5.032513"
       id="path57"
       inkscape:connector-curvature="0" />
    <path
       style="opacity:0.62891002;fill:none;stroke:#000000;stroke-width:0.45657057"
       d="m 35.800902,22.548312 c -0.07397,0.01638 -6.168897,1.212856 -13.241234,5.294723"
       id="path59"
       inkscape:connector-curvature="0" />
    <path
       style="opacity:0.62891002;fill:none;stroke:#000000;stroke-width:0.45657057"
       d="m 35.898595,25.338215 c 0,0 -6.670244,1.368338 -13.339709,5.367787"
       id="path61"
       inkscape:connector-curvature="0" />
    <path
       style="opacity:0.62891002;fill:#ffffff;fill-rule:evenodd;stroke:#000000;stroke-width:1.39885914;stroke-linejoin:round"
       d="M 20.385488,11.950671 C 24.65765,6.7675925 30.434622,4.1994401 37.091192,1.3458617 36.589184,12.311893 36.9106,17.923793 36.964002,26.698257 c -6.025886,0.765461 -12.274893,4.834149 -16.448193,8.634823 0,-0.05086 -0.130412,-22.559589 -0.130412,-23.38275 z"
       id="path63"
       inkscape:connector-curvature="0" />
    <path
       style="opacity:0.62891002;fill:none;stroke:#000000;stroke-width:0.45657057"
       d="m 34.421527,5.7269479 c 0,0 -6.726511,2.7132211 -12.07326,7.8970171"
       id="path65"
       inkscape:connector-curvature="0" />
    <path
       style="opacity:0.62891002;fill:none;stroke:#000000;stroke-width:0.45657057"
       d="m 33.808038,12.506501 c 0,0 -5.771109,1.779851 -11.458599,6.454864"
       id="path67"
       inkscape:connector-curvature="0" />
    <path
       style="opacity:0.62891002;fill:none;stroke:#000000;stroke-width:0.45657057"
       d="m 33.733798,18.399732 c -0.06521,0.0238 -5.071265,1.698866 -11.385922,6.327515"
       id="path69"
       inkscape:connector-curvature="0" />
    <path
       style="opacity:0.62891002;fill:none;stroke:#000000;stroke-width:0.45657057"
       d="m 34.105021,23.7583 c 0,0 -5.878183,2.03687 -11.755582,6.704783"
       id="path71"
       inkscape:connector-curvature="0" />
    <path
       style="opacity:0.62891002;fill:none;stroke:#000000;stroke-width:0.45657057"
       d="m 6.5280219,7.278355 c 0,0 6.7331581,1.948204 12.0853761,6.523831"
       id="path73"
       inkscape:connector-curvature="0" />
    <path
       style="opacity:0.62891002;fill:none;stroke:#000000;stroke-width:0.45657057"
       d="m 6.9301115,10.83628 c 0,0 6.1954755,1.140339 11.6828965,5.519377"
       id="path75"
       inkscape:connector-curvature="0" />
    <path
       style="opacity:0.62891002;fill:none;stroke:#000000;stroke-width:0.45657057"
       d="m 7.1434661,13.988259 c 0,0 5.7769719,1.123473 11.4699319,5.151669"
       id="path77"
       inkscape:connector-curvature="0" />
    <path
       style="opacity:0.62891002;fill:none;stroke:#000000;stroke-width:0.45657057"
       d="m 7.1399494,17.196572 c 0,0 5.5980056,0.591815 11.4730586,4.875118"
       id="path79"
       inkscape:connector-curvature="0" />
    <path
       style="opacity:0.62891002;fill:none;stroke:#000000;stroke-width:0.45657057"
       d="m 7.2161475,19.872953 c 0.06527,0.01638 5.0763425,1.122074 11.3972505,5.032514"
       id="path81"
       inkscape:connector-curvature="0" />
    <path
       style="opacity:0.62891002;fill:none;stroke:#000000;stroke-width:0.45657057"
       d="m 6.9328473,22.483442 c 0.06527,0.01638 5.4417017,1.212856 11.6805507,5.294723"
       id="path83"
       inkscape:connector-curvature="0" />
    <path
       style="opacity:0.62891002;fill:none;stroke:#000000;stroke-width:0.45657057"
       d="m 6.846099,25.273585 c 0,0 5.88365,1.368339 11.767299,5.367786"
       id="path85"
       inkscape:connector-curvature="0" />
    <path
       style="opacity:0.62891002;fill:#ffffff;fill-rule:evenodd;stroke:#000000;stroke-width:1.3138274;stroke-linejoin:round"
       d="M 20.53085,11.886143 C 16.762376,6.7030643 11.666495,4.134912 5.794568,1.2813335 6.2373751,12.247364 5.9538765,17.859266 5.9067195,26.633729 c 5.3154875,0.765427 10.8279155,4.834149 14.5092515,8.634824 0,-0.05087 0.115038,-22.55959 0.115038,-23.382751 z"
       id="path87"
       inkscape:connector-curvature="0" />
    <path
       style="opacity:0.62891002;fill:none;stroke:#000000;stroke-width:0.45657057"
       d="m 8.1500592,5.6624197 c 0,0 5.9332768,2.7132213 10.6501218,7.8970173"
       id="path89"
       inkscape:connector-curvature="0" />
    <path
       style="opacity:0.62891002;fill:none;stroke:#000000;stroke-width:0.45657057"
       d="m 8.6920411,12.441973 c 0,0 5.0908019,1.779851 10.1077489,6.454864"
       id="path91"
       inkscape:connector-curvature="0" />
    <path
       style="opacity:0.62891002;fill:none;stroke:#000000;stroke-width:0.45657057"
       d="m 8.7565163,18.335203 c 0.057513,0.0238 4.4734027,1.698866 10.0436647,6.327515"
       id="path93"
       inkscape:connector-curvature="0" />
    <path
       style="opacity:0.62891002;fill:none;stroke:#000000;stroke-width:0.45657057"
       d="m 8.4302331,23.693771 c 0,0 5.1849739,2.036871 10.3699479,6.704783"
       id="path95"
       inkscape:connector-curvature="0" />
  </g>
  <g
     inkscape:label="Layer 1"
     id="g2712"
     transform="matrix(1.0788801,0,0,1.0926768,1.9755615,7.0080319)">
    <path
       inkscape:connector-curvature="0"
       inkscape:transform-center-y="-1.7158265"
       inkscape:transform-center-x="-8.4393233"
       style="opacity:0.15;fill:#0c0c0c;fill-opacity:1;fill-rule:evenodd;stroke:none"
       d="m 13.219868,12.085402 c -0.135595,-0.02111 -0.239457,-0.01225 -0.307686,0.003 l -9.0874927,2.017202 -1.6724992,0.372194 -0.051633,0.008 -1.9387153,1.432663 4.9498341,-0.07402 0.040722,-0.0095 1.6834123,-0.370698 9.0845618,-2.03263 c 0.272911,-0.06092 -0.177299,-0.409927 -1.009983,-0.78431 -0.624515,-0.280788 -1.283742,-0.498541 -1.690521,-0.561884 z"
       id="path2422" />
    <g
       transform="matrix(1.030012,0,0,1.0325071,-0.016773,-0.5215254)"
       id="g8626">
      <path
         inkscape:connector-curvature="0"
         style="fill:url(#linearGradient8639-3);fill-opacity:1;stroke:#0c0c0c;stroke-width:0.48484433;stroke-linecap:butt;stroke-linejoin:round;stroke-miterlimit:4;stroke-opacity:1;stroke-dasharray:none;stroke-dashoffset:0"
         d="m 2.0488085,11.037368 c 0.2865424,-0.207707 1.1479509,0.256388 1.9603385,1.061945 0.8104458,0.803629 1.2601996,1.641331 1.0575577,1.930575 -7.708e-4,0.0011 0.01977,0.01774 0.01898,0.01882 L 15.224149,3.8683779 C 15.481557,3.6099071 15.011041,2.7247557 14.172862,1.893626 13.334685,1.0624962 12.444681,0.59856571 12.187272,0.85703737 L 2.0488085,11.037368 z"
         id="rect2383"
         inkscape:transform-center-x="-9.3983079"
         inkscape:transform-center-y="-8.5737916" />
      <path
         inkscape:connector-curvature="0"
         style="opacity:0.8;fill:#ffb6ed;fill-opacity:1;stroke:#e28ccd;stroke-width:0.48484433;stroke-linecap:butt;stroke-linejoin:round;stroke-miterlimit:4;stroke-opacity:1;stroke-dasharray:none;stroke-dashoffset:0"
         d="m 10.565423,2.4840909 c 0.286542,-0.2077065 1.147951,0.2563879 1.960338,1.0619443 0.810445,0.8036291 1.260199,1.6413295 1.057557,1.9305744 -7.69e-4,0.0011 0.01977,0.017738 0.01898,0.018821 L 15.154234,3.9383089 C 15.562715,3.5297289 15.124956,2.8454879 14.172862,1.893626 13.360476,1.0880699 12.499066,0.6239749 12.212525,0.83168148 l -0.02525,0.0253559 -1.621849,1.62705352 z"
         id="rect3175"
         sodipodi:nodetypes="csscccccc"
         inkscape:transform-center-x="-14.039749"
         inkscape:transform-center-y="-12.827689" />
      <path
         inkscape:connector-curvature="0"
         style="opacity:0.6;fill:#0c0c0c;fill-opacity:1;stroke:none"
         d="m 2.0488079,11.037368 c 0.286543,-0.207708 1.1479512,0.256388 1.960339,1.061943 0.8104449,0.80363 1.2601992,1.641332 1.0575579,1.930577 -7.714e-4,0.0011 0.01977,0.01774 0.01898,0.01882 l 6.9820302,-7.0108637 0.02525,-0.025356 c 7.9e-4,-0.00108 -0.01975,-0.01772 -0.01898,-0.01882 C 12.276628,6.7044221 11.826873,5.8667226 11.01643,5.0630931 10.204041,4.2575368 9.3426319,3.7934425 9.0560897,4.0011493 l -0.025251,0.025355 -6.9820304,7.0108637 z"
         id="path3208"
         inkscape:transform-center-x="-7.6735182"
         inkscape:transform-center-y="-6.9998429" />
      <path
         inkscape:connector-curvature="0"
         style="fill:url(#linearGradient8641-7);fill-opacity:1;stroke:none"
         d="m 9.1785348,3.8767048 c 0.2865413,-0.2077068 1.1479522,0.2563879 1.9603392,1.0619443 0.810445,0.8036291 1.2602,1.6413294 1.057556,1.9305753 -7.71e-4,0.0011 0.01977,0.017736 0.01898,0.01882 l 0.126256,-0.1267795 c 7.9e-4,-0.00108 -0.01975,-0.01772 -0.01898,-0.01882 C 12.525331,6.4531992 12.075576,5.6154986 11.26513,4.8118704 10.452743,4.0063135 9.5913335,3.542219 9.3047918,3.7499256 l -0.126257,0.1267792 z"
         id="path3233"
         inkscape:transform-center-x="-11.687278"
         inkscape:transform-center-y="-10.684694" />
      <path
         inkscape:connector-curvature="0"
         style="fill:url(#linearGradient8643-3);fill-opacity:1;stroke:none"
         d="m 9.0628273,3.9928895 c 0.2865436,-0.2077068 1.1479527,0.2563878 1.9603397,1.061944 0.810444,0.8036294 1.2602,1.6413292 1.057556,1.9305742 -7.71e-4,0.0011 0.01977,0.017738 0.01898,0.018822 L 12.22596,6.8774498 c 7.9e-4,-0.00108 -0.01975,-0.017721 -0.01898,-0.018821 C 12.409623,6.569384 11.95987,5.7316836 11.149423,4.9280545 10.337036,4.1224982 9.4756273,3.6584033 9.1890844,3.8661101 L 9.0628273,3.9928895 z"
         id="path3216"
         inkscape:transform-center-x="-11.561394"
         inkscape:transform-center-y="-10.569171" />
      <path
         inkscape:connector-curvature="0"
         style="fill:url(#linearGradient8645-4);fill-opacity:1;stroke:none"
         d="m 9.5806143,3.4729643 c 0.2865426,-0.2077069 1.1479517,0.2563872 1.9603387,1.0619442 0.810446,0.803629 1.2602,1.6413292 1.057558,1.9305747 -7.73e-4,0.0011 0.01977,0.017737 0.01898,0.01882 l 0.126258,-0.1267784 c 7.91e-4,-0.00108 -0.01975,-0.017721 -0.01898,-0.01882 C 12.927411,6.0494594 12.477656,5.2117588 11.66721,4.4081298 10.854824,3.6025731 9.9934151,3.1384786 9.7068717,3.3461854 L 9.5806143,3.4729643 z"
         id="path3248"
         inkscape:transform-center-x="-12.124723"
         inkscape:transform-center-y="-11.086128" />
      <path
         inkscape:connector-curvature="0"
         style="fill:url(#linearGradient8647-6);fill-opacity:1;stroke:none"
         d="m 9.4649071,3.5891488 c 0.2865435,-0.207707 1.1479529,0.2563877 1.9603379,1.061944 0.810447,0.8036298 1.260201,1.6413294 1.057558,1.9305748 -7.69e-4,0.0011 0.01977,0.017737 0.01898,0.018821 l 0.126257,-0.12678 c 7.9e-4,-0.00108 -0.01975,-0.01772 -0.01898,-0.01882 C 12.811705,6.1656438 12.361949,5.3279425 11.551504,4.5243147 10.739118,3.718758 9.877708,3.254663 9.5911645,3.46237 L 9.4649071,3.5891488 z"
         id="path3250"
         inkscape:transform-center-x="-11.998839"
         inkscape:transform-center-y="-10.970607" />
      <path
         inkscape:connector-curvature="0"
         style="fill:url(#linearGradient8649-7);fill-opacity:1;stroke:none"
         d="M 9.9846388,3.0672723 C 10.27118,2.8595657 11.13259,3.3236601 11.944976,4.1292168 c 0.810446,0.8036288 1.260201,1.641329 1.057558,1.9305741 -7.7e-4,0.0011 0.01977,0.017738 0.01898,0.018821 L 13.14777,5.9518328 c 7.92e-4,-0.00108 -0.01975,-0.017721 -0.01898,-0.018821 C 13.331434,5.6437674 12.881679,4.8060668 12.071233,4.0024374 11.258848,3.1968815 10.397438,2.7327869 10.110895,2.9404937 L 9.9846388,3.0672723 z"
         id="path3256"
         inkscape:transform-center-x="-12.564281"
         inkscape:transform-center-y="-11.489504" />
      <path
         inkscape:connector-curvature="0"
         style="fill:url(#linearGradient8651-1);fill-opacity:1;stroke:none"
         d="m 9.8689318,3.1834569 c 0.2865412,-0.2077072 1.1479512,0.2563879 1.9603392,1.0619447 0.810444,0.8036283 1.260198,1.6413291 1.057556,1.9305739 -7.71e-4,0.0011 0.01977,0.017737 0.01898,0.018821 l 0.126258,-0.1267782 c 7.89e-4,-0.00108 -0.01975,-0.017722 -0.01898,-0.018821 C 13.215727,5.7599515 12.765972,4.9222512 11.955527,4.1186224 11.143141,3.313066 10.281731,2.848971 9.9951884,3.0566783 L 9.8689318,3.1834569 z"
         id="path3258"
         inkscape:transform-center-x="-12.438397"
         inkscape:transform-center-y="-11.373981" />
      <path
         inkscape:connector-curvature="0"
         sodipodi:nodetypes="cccscc"
         id="path3270"
         d="m 0.25980529,15.79419 4.77185621,-1.725488 0.039308,-0.03926 C 5.2736124,13.740202 4.8185731,12.902156 4.0081274,12.098526 3.1957395,11.29297 2.335449,10.831246 2.0489062,11.038953 L 0.25980529,15.79419 z"
         style="fill:url(#linearGradient8653-6);fill-opacity:1;fill-rule:evenodd;stroke:url(#linearGradient8655-1);stroke-width:0.48484433;stroke-linecap:butt;stroke-linejoin:miter;stroke-miterlimit:4;stroke-opacity:1;stroke-dasharray:none"
         inkscape:transform-center-x="-2.8267936"
         inkscape:transform-center-y="-2.7057213" />
      <path
         inkscape:connector-curvature="0"
         style="fill:#0c0c0c;fill-opacity:1;fill-rule:evenodd;stroke:#0c0c0c;stroke-width:0.48484433;stroke-linecap:butt;stroke-linejoin:miter;stroke-miterlimit:4;stroke-opacity:1;stroke-dasharray:none"
         d="M 0.7444326,14.506276 0.25922075,15.788967 1.560593,15.315574 C 1.446907,15.182439 1.3413094,15.047739 1.2062351,14.913801 1.0507282,14.759602 0.89915498,14.633134 0.7444326,14.506276 z"
         id="path3281"
         inkscape:transform-center-x="-0.93674026"
         inkscape:transform-center-y="-0.91293426" />
    </g>
  </g>
</svg>
