<svg xmlns="http://www.w3.org/2000/svg" height="48" width="48" version="1.0">
 <defs>
  <linearGradient id="a" y2="444.77" gradientUnits="userSpaceOnUse" x2="323.15" gradientTransform="matrix(.11848 0 0 .10538 .82299 -6.4236)" y1="233.29" x1="178.38">
   <stop offset="0"/>
   <stop stop-opacity="0" offset="1"/>
  </linearGradient>
 </defs>
 <path fill-rule="evenodd" fill="url(#a)" d="m20.635 40.727c2.0395 0.84804 3.4963 2.7137 9.1777 0.84802s21.997-11.703 15.733-17.3c-6.2641-5.597-19.812-9.3284-27.824-9.3284-1.3111 4.4098-3.9333 22.727 2.9135 25.78z"/>
 <path fill-rule="evenodd" fill="#7f00fe" d="m41.613 24.281c1.1654 0.16961 3.2049 1.123 2.6222 3.2241-0.58272 2.1011-19.666 14.727-22.143 13.772-2.4765-0.95503-4.953-4.1808-4.953-4.1808l24.474-12.815z"/>
 <path d="m42.195 17.313c0.29135 3.2472 0.58272 6.7313 0.14569 9.1914-10.052 6.701-17.773 11.567-23.308 13.027-1.894-2.101-2.331-12.033-2.331-12.033l25.493-10.185z" fill-rule="evenodd" stroke="#7f7f7f" stroke-width="1.3967" fill="#b6f99a"/>
 <path stroke-linejoin="round" d="m22.966 29.026c4.516-2.491 18.647-10.527 20.978-11.884-4.225-2.544-20.541-12.037-24.474-13.16-1.457 0.5734-14.568 7.407-14.568 7.407 2.1852 2.714 16.462 17.064 18.064 17.637z" fill-rule="evenodd" stroke="#7d7cff" stroke-width="1.3967" fill="#ffaa61"/>
 <path d="m22.675 29.153s-2.7679 2.6741-2.9135 6.1123c-0.14568 3.4382 2.4765 4.1198 2.1852 5.3499-5.682 0.212-16.317-16.555-18.793-19.76-1.0928-1.941-1.5662-3.497-1.0928-5.688 0.4735-2.191 1.6025-3.492 2.9864-3.396 2.7679 3.244 14.422 14.368 17.627 17.382z" fill-rule="evenodd" stroke="#7f00ff" stroke-width="1.3967" fill="#eb6f00"/>
 <g stroke-opacity=".61261" transform="matrix(-.32847 -.24046 .52735 -.30896 -86.874 62.543)" stroke="#000" stroke-width="2.9276">
  <g stroke-linejoin="round" stroke-opacity=".61261" transform="translate(-91.973,163.38)" stroke="#000" stroke-linecap="round" stroke-width="2.9276" fill="none">
   <path d="m29.29 19.982 10.71 0.018"/>
   <path d="m40 8v24"/>
   <path d="m40 8 20 12"/>
   <path d="m40 32 20-12"/>
   <path d="m60 8v24"/>
   <path d="m60 20h12.401"/>
   <path d="m60 8h5"/>
   <path d="m55 32h5"/>
  </g>
 </g>
</svg>
