<svg id="Слой_1" data-name="Слой 1"
  xmlns:cc="http://creativecommons.org/ns#"
  xmlns:rdf="http://www.w3.org/1999/02/22-rdf-syntax-ns#"
  xmlns="http://www.w3.org/2000/svg" viewBox="0 0 26 26">
  <metadata id="metadata43">
    <rdf:RDF>
      <cc:Work rdf:about="">
        <cc:license rdf:resource="http://creativecommons.org/licenses/by/4.0/" />
      </cc:Work>
      <cc:License rdf:about="http://creativecommons.org/licenses/by/4.0/">
        <cc:permits rdf:resource="http://creativecommons.org/ns#Reproduction" />
        <cc:permits rdf:resource="http://creativecommons.org/ns#Distribution" />
        <cc:requires rdf:resource="http://creativecommons.org/ns#Notice" />
        <cc:requires rdf:resource="http://creativecommons.org/ns#Attribution" />
        <cc:permits rdf:resource="http://creativecommons.org/ns#DerivativeWorks" />
      </cc:License>
    </rdf:RDF>
  </metadata>
  <defs>
    <style>.cls-1{fill:#b9b9b9;}.cls-2{fill:#545454;}.cls-3,.cls-6,.cls-8{fill:none;stroke-linecap:round;stroke-linejoin:round;}.cls-3{stroke:#b9b9b9;stroke-width:0.75px;}.cls-4{fill:#1a81c4;}.cls-5{fill:#e61c50;}.cls-6{stroke:#fff;}.cls-7{fill:#fff;}.cls-8{stroke:#e61c50;}</style>
  </defs>
  <title>library_table</title>
  <path class="cls-1" d="M18.4986,21.9979H4.5014a3.4993,3.4993,0,0,1-3.4993-3.4993V4.5014A3.4993,3.4993,0,0,1,4.5014,1.0021H18.4986a3.4994,3.4994,0,0,1,3.4993,3.4993V18.4986c0,.5575-.43.982-.6623,1.45A3.1685,3.1685,0,0,1,18.4986,21.9979Z"/>
  <rect class="cls-2" x="2.8437" y="4.394" width="4.6301" height="13.8903"/>
  <line class="cls-3" x1="3.9909" y1="9.1333" x2="6.3334" y2="9.1333"/>
  <line class="cls-3" x1="3.9909" y1="16.4392" x2="6.3334" y2="16.4392"/>
  <line class="cls-3" x1="3.9909" y1="7.6396" x2="6.3334" y2="7.6396"/>
  <line class="cls-3" x1="3.9909" y1="6.1458" x2="6.3334" y2="6.1458"/>
  <rect class="cls-2" x="8.3647" y="4.394" width="4.6301" height="13.8903"/>
  <line class="cls-3" x1="9.5119" y1="9.1333" x2="11.8544" y2="9.1333"/>
  <line class="cls-3" x1="9.5119" y1="16.4392" x2="11.8544" y2="16.4392"/>
  <line class="cls-3" x1="9.5119" y1="7.6396" x2="11.8544" y2="7.6396"/>
  <line class="cls-3" x1="9.5119" y1="6.1458" x2="11.8544" y2="6.1458"/>
  <rect class="cls-4" x="15.5485" y="4.6387" width="4.6301" height="13.8903" transform="matrix(0.9606, -0.2779, 0.2779, 0.9606, -2.5152, 5.4196)"/>
  <line class="cls-3" x1="16.1287" y1="9.7893" x2="18.379" y2="9.1384"/>
  <line class="cls-3" x1="18.1588" y1="16.8075" x2="20.4091" y2="16.1566"/>
  <line class="cls-3" x1="15.7137" y1="8.3544" x2="17.9639" y2="7.7035"/>
  <line class="cls-3" x1="15.2986" y1="6.9195" x2="17.5488" y2="6.2686"/>
  <ellipse class="cls-5" cx="18" cy="18.0087" rx="7.0066" ry="7"/>
  <rect class="cls-6" x="14.1602" y="14.3797" width="7.6021" height="7.6021"/>
  <line class="cls-6" x1="14.43" y1="19.3018" x2="21.5218" y2="19.3018"/>
  <polygon class="cls-7" points="21.522 17.173 14.43 17.173 14.43 14.621 21.416 14.621 21.522 17.173"/>
  <line class="cls-6" x1="18.0551" y1="17.1549" x2="18.0551" y2="21.783"/>
  <line class="cls-8" x1="15.1105" y1="15.5828" x2="19.7093" y2="15.5828"/>
</svg>