<?xml version="1.0" encoding="UTF-8" standalone="no"?>
<!-- Created with Inkscape (http://www.inkscape.org/) -->

<svg
   xmlns:dc="http://purl.org/dc/elements/1.1/"
   xmlns:cc="http://creativecommons.org/ns#"
   xmlns:rdf="http://www.w3.org/1999/02/22-rdf-syntax-ns#"
   xmlns:svg="http://www.w3.org/2000/svg"
   xmlns="http://www.w3.org/2000/svg"
   xmlns:xlink="http://www.w3.org/1999/xlink"
   xmlns:sodipodi="http://sodipodi.sourceforge.net/DTD/sodipodi-0.dtd"
   xmlns:inkscape="http://www.inkscape.org/namespaces/inkscape"
   version="1.0"
   width="26"
   height="26"
   id="svg2"
   inkscape:version="0.91 r13725"
   sodipodi:docname="library_table.svg">
  <metadata
     id="metadata166">
    <rdf:RDF>
      <cc:Work
         rdf:about="">
        <dc:format>image/svg+xml</dc:format>
        <dc:type
           rdf:resource="http://purl.org/dc/dcmitype/StillImage" />
        <dc:title />
      </cc:Work>
    </rdf:RDF>
  </metadata>
  <sodipodi:namedview
     pagecolor="#ffffff"
     bordercolor="#666666"
     borderopacity="1"
     objecttolerance="10"
     gridtolerance="10"
     guidetolerance="10"
     inkscape:pageopacity="0"
     inkscape:pageshadow="2"
     inkscape:window-width="1920"
     inkscape:window-height="1054"
     id="namedview164"
     showgrid="true"
     inkscape:zoom="27.812866"
     inkscape:cx="3.9337036"
     inkscape:cy="10.296903"
     inkscape:window-x="0"
     inkscape:window-y="0"
     inkscape:window-maximized="1"
     inkscape:current-layer="svg2"
     inkscape:snap-to-guides="false"
     inkscape:snap-grids="false">
    <inkscape:grid
       type="xygrid"
       id="grid3041"
       empspacing="1"
       visible="true"
       enabled="true"
       snapvisiblegridlinesonly="true" />
  </sodipodi:namedview>
  <defs
     id="defs4">
    <clipPath
       id="ba">
      <path
         style="fill:#ffffff"
         d="m 0,96 v 60 H 96 V 96 H 0 z m 68,20 c 9.9411,0 18,8.0589 18,18 0,9.9411 -8.0589,18 -18,18 -9.9411,0 -18,-8.0589 -18,-18 0,-9.9411 8.0589,-18 18,-18 z"
         id="path125"
         inkscape:connector-curvature="0" />
    </clipPath>
    <linearGradient
       id="bl"
       y2="5.9782"
       gradientUnits="userSpaceOnUse"
       x2="69"
       gradientTransform="matrix(-0.2255,-0.071329,0.05452,-0.20327,7.6326,90.834)"
       y1="122"
       x1="69">
      <stop
         stop-color="#1e71ac"
         offset="0"
         id="stop128" />
      <stop
         stop-color="#81c1e9"
         offset="1"
         id="stop130" />
    </linearGradient>
    <linearGradient
       id="bm"
       y2="67.706001"
       xlink:href="#a"
       gradientUnits="userSpaceOnUse"
       x2="118.33"
       gradientTransform="matrix(0.39018,0.62586,-0.63862,0.30043,3.5817,-20.909)"
       y1="87.488998"
       x1="120.65" />
    <linearGradient
       id="a">
      <stop
         offset="0"
         id="stop15" />
      <stop
         stop-opacity="0"
         offset="1"
         id="stop17" />
    </linearGradient>
    <linearGradient
       id="bn"
       y2="5.9782"
       gradientUnits="userSpaceOnUse"
       x2="69"
       gradientTransform="matrix(-0.2255,-0.071329,0.05452,-0.20327,7.6018,90.825)"
       y1="122"
       x1="69">
      <stop
         stop-color="#cd2323"
         offset="0"
         id="stop134" />
      <stop
         stop-color="#ef7474"
         offset="1"
         id="stop136" />
    </linearGradient>
    <linearGradient
       id="ao"
       y2="67.706001"
       xlink:href="#a"
       gradientUnits="userSpaceOnUse"
       x2="118.33"
       y1="87.488998"
       x1="120.65" />
    <clipPath
       id="aq">
      <path
         style="fill:url(#linearGradient4033)"
         d="m 118,56 c -9.9411,0 -18,8.0589 -18,18 0,9.9411 8.0589,18 18,18 9.7305,0 17.637,-7.7253 17.969,-17.375 v -1.25 C 135.639,63.725 127.729,56 117.999,56 z m -6,10.75 c 5.9493,0.05747 10.832,4.9413 11.031,10.875 l 3.75,0.03125 -6,8.7188 -6.1562,-8.8125 3.9688,0.03125 c -0.25101,-4.9057 -4.4893,-9.9506 -11.719,-9.625 1.5223,-0.80073 3.2718,-1.2367 5.125,-1.2188 z"
         id="path122"
         inkscape:connector-curvature="0" />
    </clipPath>
    <linearGradient
       id="bo"
       y2="5.1837001"
       xlink:href="#an"
       gradientUnits="userSpaceOnUse"
       x2="84.360001"
       gradientTransform="matrix(0.21868,0.069171,-0.053262,0.19858,-13.124,56.327)"
       y1="79.417"
       x1="84.360001" />
    <linearGradient
       id="an">
      <stop
         stop-color="#fff"
         offset="0"
         id="stop65" />
      <stop
         stop-color="#fff"
         stop-opacity=".49804"
         offset=".43290"
         id="stop67" />
      <stop
         stop-color="#fff"
         stop-opacity="0"
         offset="1"
         id="stop69" />
    </linearGradient>
    <linearGradient
       id="bp"
       y2="67.706001"
       xlink:href="#a"
       gradientUnits="userSpaceOnUse"
       x2="118.33"
       gradientTransform="matrix(-0.39018,-0.62586,0.63862,-0.30043,-9.9736,166.82)"
       y1="87.488998"
       x1="120.65" />
    <linearGradient
       y2="67.706001"
       x2="118.33"
       y1="87.488998"
       x1="120.65"
       gradientUnits="userSpaceOnUse"
       id="linearGradient3263"
       xlink:href="#a"
       inkscape:collect="always" />
    <linearGradient
       y2="5.1837001"
       x2="84.360001"
       y1="79.417"
       x1="84.360001"
       gradientTransform="matrix(-0.21868,-0.069171,0.053262,-0.19858,6.7324,89.587)"
       gradientUnits="userSpaceOnUse"
       id="linearGradient3265"
       xlink:href="#an"
       inkscape:collect="always" />
    <linearGradient
       id="i"
       y2="6.7758002"
       gradientUnits="userSpaceOnUse"
       x2="20.631001"
       gradientTransform="matrix(0.87827,0,0,0.87827,56.157,5.6701)"
       y1="42.254002"
       x1="19.648001">
      <stop
         stop-color="#b6b6b6"
         offset="0"
         id="stop3120" />
      <stop
         stop-color="#f2f2f2"
         offset=".5"
         id="stop3122" />
      <stop
         stop-color="#fafafa"
         offset=".67613"
         id="stop3124" />
      <stop
         stop-color="#d8d8d8"
         offset=".84052"
         id="stop3126" />
      <stop
         stop-color="#f2f2f2"
         offset=".875"
         id="stop3128" />
      <stop
         stop-color="#dbdbdb"
         offset="1"
         id="stop3130" />
    </linearGradient>
    <linearGradient
       id="j"
       y2="-4.3003001"
       gradientUnits="userSpaceOnUse"
       x2="25.291"
       gradientTransform="matrix(0.87827,0,0,0.87827,43.255,-36.26)"
       y1="-3.6324"
       x1="50.153">
      <stop
         stop-color="#fff"
         offset="0"
         id="stop3133"
         style="stop-color:#4754ba;stop-opacity:1;" />
      <stop
         offset="1"
         id="stop3135" />
    </linearGradient>
    <linearGradient
       id="k"
       y2="6.6286001"
       gradientUnits="userSpaceOnUse"
       x2="37.535"
       gradientTransform="matrix(0.87827,0,0,0.87827,56.467,6.2911)"
       y1="13.603"
       x1="38.228001">
      <stop
         stop-color="#98a0a9"
         offset="0"
         id="stop3138" />
      <stop
         stop-color="#c3d0dd"
         offset="1"
         id="stop3140" />
    </linearGradient>
    <linearGradient
       id="l"
       y2="9.6569004"
       gradientUnits="userSpaceOnUse"
       x2="40.859001"
       gradientTransform="translate(53.62,0.70241)"
       y1="19.822001"
       x1="31.177">
      <stop
         stop-color="#fff"
         offset="0"
         id="stop3143" />
      <stop
         stop-color="#fff"
         stop-opacity="0"
         offset="1"
         id="stop3145" />
    </linearGradient>
    <linearGradient
       id="m"
       y2="39.443001"
       gradientUnits="userSpaceOnUse"
       x2="16.915001"
       gradientTransform="matrix(0.87827,0,0,0.87827,56.157,5.6701)"
       y1="32.284"
       x1="9.7503004">
      <stop
         stop-color="#3465a4"
         offset="0"
         id="stop3148" />
      <stop
         stop-color="#9fbce1"
         offset="0"
         id="stop3150" />
      <stop
         stop-color="#6b95ca"
         offset="0"
         id="stop3152" />
      <stop
         stop-color="#3d6aa5"
         offset=".75"
         id="stop3154" />
      <stop
         stop-color="#386eb4"
         offset="1"
         id="stop3156" />
    </linearGradient>
    <linearGradient
       id="n"
       y2="33.195"
       gradientUnits="userSpaceOnUse"
       x2="10.651"
       gradientTransform="matrix(1.0073,-0.026365,0.026365,1.0073,55.213,0.7816)"
       y1="35.688"
       x1="12.005">
      <stop
         stop-color="#fff"
         offset="0"
         id="stop3159" />
      <stop
         stop-color="#fff"
         stop-opacity="0"
         offset="1"
         id="stop3161" />
    </linearGradient>
    <linearGradient
       inkscape:collect="always"
       xlink:href="#o"
       id="linearGradient4456"
       gradientUnits="userSpaceOnUse"
       gradientTransform="matrix(0.77155263,-0.0151812,0.01522193,0.76948813,58.140667,26.736849)"
       x1="14.018"
       y1="36.943001"
       x2="15.416"
       y2="38.268002" />
    <linearGradient
       id="o"
       y2="38.268002"
       gradientUnits="userSpaceOnUse"
       x2="15.416"
       gradientTransform="matrix(0.8781,-0.017324,0.017324,0.8781,55.783,4.7703)"
       y1="36.943001"
       x1="14.018">
      <stop
         offset="0"
         id="stop3164" />
      <stop
         stop-opacity="0"
         offset="1"
         id="stop3166" />
    </linearGradient>
    <linearGradient
       id="linearGradient4067"
       y2="39.685001"
       gradientUnits="userSpaceOnUse"
       x2="34.534"
       gradientTransform="matrix(1.2419,0,0,1.2419,36.866,-2.4533)"
       y1="12.285"
       x1="14.463">
      <stop
         stop-color="#c9c9c9"
         offset="0"
         id="stop4069" />
      <stop
         stop-color="#f8f8f8"
         offset="0.44999999"
         id="stop4071" />
      <stop
         stop-color="#e2e2e2"
         offset="0.66666645"
         id="stop4073" />
      <stop
         stop-color="#b0b0b0"
         offset="0.95000005"
         id="stop4075" />
      <stop
         stop-color="#c9c9c9"
         offset="1"
         id="stop4077" />
    </linearGradient>
    <linearGradient
       inkscape:collect="always"
       xlink:href="#linearGradient4067"
       id="linearGradient4065-6"
       gradientUnits="userSpaceOnUse"
       gradientTransform="matrix(0.41988577,0,0,0.39843198,7.8117183,8.6700884)"
       x1="8.6861582"
       y1="9.6206512"
       x2="37.265358"
       y2="35.973965" />
    <linearGradient
       y2="35.973965"
       x2="37.265358"
       y1="9.6206512"
       x1="8.6861582"
       gradientTransform="matrix(0.44317725,0,0,0.4205334,7.1871633,8.053144)"
       gradientUnits="userSpaceOnUse"
       id="linearGradient3178"
       xlink:href="#linearGradient4067"
       inkscape:collect="always" />
  </defs>
  <g
     id="g4230"
     transform="translate(53.428512,-32.754624)">
    <rect
       y="32.814301"
       x="-53.446091"
       height="26.067072"
       width="26.067072"
       id="rect4338"
       style="opacity:1;fill:#ffffff;fill-opacity:1;fill-rule:nonzero;stroke:none;stroke-width:1;stroke-linecap:square;stroke-linejoin:miter;stroke-miterlimit:4;stroke-dasharray:none;stroke-opacity:1" />
    <rect
       y="33.330383"
       x="-33.881828"
       height="24.979227"
       width="6.0397334"
       id="rect4298"
       style="opacity:1;fill:#ffd42a;fill-opacity:1;fill-rule:nonzero;stroke:#d4aa00;stroke-width:1.03579581;stroke-linecap:square;stroke-linejoin:miter;stroke-miterlimit:4;stroke-dasharray:none;stroke-opacity:1" />
    <rect
       y="36.040668"
       x="-31.324297"
       height="10.755731"
       width="0.93513572"
       id="rect4300"
       style="opacity:1;fill:#ffffff;fill-opacity:1;fill-rule:nonzero;stroke:none;stroke-width:1;stroke-linecap:square;stroke-linejoin:miter;stroke-miterlimit:4;stroke-dasharray:none;stroke-opacity:1" />
    <rect
       y="37.289314"
       x="-41.846592"
       height="21.007425"
       width="5.9002724"
       id="rect4298-3"
       style="opacity:1;fill:#5599ff;fill-opacity:1;fill-rule:nonzero;stroke:#0044aa;stroke-width:1.04181492;stroke-linecap:square;stroke-linejoin:miter;stroke-miterlimit:4;stroke-dasharray:none;stroke-opacity:1" />
    <rect
       y="41.184177"
       x="-39.351315"
       height="8.2753372"
       width="0.920017"
       id="rect4300-56"
       style="opacity:1;fill:#ffffff;fill-opacity:1;fill-rule:nonzero;stroke:none;stroke-width:1;stroke-linecap:square;stroke-linejoin:miter;stroke-miterlimit:4;stroke-dasharray:none;stroke-opacity:1" />
    <circle
       r="1.4022287"
       cy="54.534088"
       cx="-30.8696"
       id="path4208"
       style="opacity:1;fill:#ffffff;fill-opacity:1;fill-rule:nonzero;stroke:none;stroke-width:2.0999999;stroke-linecap:square;stroke-linejoin:miter;stroke-miterlimit:4;stroke-dasharray:none;stroke-opacity:1" />
    <rect
       transform="matrix(0.98219163,0.18788188,-0.18445897,0.98284022,0,0)"
       y="42.082329"
       x="-41.526112"
       height="23.63736"
       width="6.138113"
       id="rect4298-7"
       style="opacity:1;fill:#24b024;fill-opacity:1;fill-rule:nonzero;stroke:#447821;stroke-width:1.01576376;stroke-linecap:square;stroke-linejoin:miter;stroke-miterlimit:4;stroke-dasharray:none;stroke-opacity:1" />
    <rect
       transform="matrix(0.98219163,0.18788188,-0.18445897,0.98284022,0,0)"
       y="44.646824"
       x="-38.926895"
       height="10.178031"
       width="0.95037615"
       id="rect4300-5"
       style="opacity:1;fill:#ffffff;fill-opacity:1;fill-rule:nonzero;stroke:none;stroke-width:1;stroke-linecap:square;stroke-linejoin:miter;stroke-miterlimit:4;stroke-dasharray:none;stroke-opacity:1" />
    <ellipse
       ry="1.4720935"
       rx="1.455725"
       transform="matrix(0.99865271,-0.05189193,0.0500435,0.99874704,0,0)"
       cy="50.81329"
       cx="-51.873932"
       id="path4208-3"
       style="opacity:1;fill:#ffffff;fill-opacity:1;fill-rule:nonzero;stroke:none;stroke-width:2.0999999;stroke-linecap:square;stroke-linejoin:miter;stroke-miterlimit:4;stroke-dasharray:none;stroke-opacity:1" />
    <circle
       r="1.4022287"
       cy="54.641949"
       cx="-38.887466"
       id="path4208-6"
       style="opacity:1;fill:#ffffff;fill-opacity:1;fill-rule:nonzero;stroke:none;stroke-width:2.0999999;stroke-linecap:square;stroke-linejoin:miter;stroke-miterlimit:4;stroke-dasharray:none;stroke-opacity:1" />
  </g>
  <g
     id="g4323"
     transform="translate(0.61016952,0.5084746)">
    <path
       sodipodi:nodetypes="ccccccccccccsccccccccsccccccccsccccccccscccccsssscc"
       inkscape:connector-curvature="0"
       id="path4079"
       d="m 16.163478,9.0773048 c -0.180194,0.01172 -0.355335,0.03818 -0.532326,0.0574 l -0.01216,0 -0.423461,2.1927272 c -0.690163,0.149147 -1.339483,0.402267 -1.923649,0.746194 l -1.224661,-0.836317 -0.67462,-0.460698 c -0.513744,0.378239 -0.980642,0.819445 -1.3914017,1.297386 l 1.3186927,1.825329 c -0.400388,0.580621 -0.701509,1.243603 -0.871079,1.940128 -2.9e-5,0.0032 -2.4e-5,0.01099 0,0.01145 l -2.2986767,0.344407 c -0.04202,0.325716 -0.06048,0.662322 -0.06048,0.998792 0,0.275265 0.008,0.546859 0.0363,0.815109 l 2.2986747,0.390322 c 0.163484,0.757472 0.474059,1.464871 0.907393,2.089392 l -1.3670887,1.779443 c 0.3915197,0.461226 0.8435517,0.881161 1.3308137,1.251319 l 1.93573,-1.262818 c 0.6765,0.409502 1.431706,0.69667 2.250287,0.838034 l 0.36295,2.169733 c 0.257909,0.02228 0.522376,0.02296 0.786371,0.02296 0.372697,0 0.728689,-0.01334 1.088849,-0.0574 l 0.435542,-2.215654 c 0.777233,-0.183536 1.507352,-0.501932 2.141381,-0.929875 l 1.86314,1.285778 c 0.48316,-0.390069 0.92501,-0.838438 1.30662,-1.320238 l -1.355012,-1.859785 c 0.366957,-0.601377 0.621214,-1.264876 0.750096,-1.974588 l 2.286485,-0.344221 c 0.02004,-0.226359 0.02419,-0.445952 0.02419,-0.677282 0,-0.401971 -0.04924,-0.796118 -0.108873,-1.182475 l -2.322872,-0.401828 c -0.182034,-0.637822 -0.480721,-1.232917 -0.859001,-1.767948 l 1.367091,-1.779409 C 22.805172,11.571476 22.322014,11.117045 21.7893,10.731458 l -1.972045,1.285778 c -0.566781,-0.318081 -1.17673,-0.562144 -1.838944,-0.700273 L 17.61555,9.1358088 c -0.330624,-0.03688 -0.663573,-0.05742 -1.00426,-0.05742 -0.0921,0 -0.186869,-0.0029 -0.278262,0 -0.04455,0.0014 -0.08864,-0.0025 -0.133085,0 -0.01201,6.52e-4 -0.02429,-7.46e-4 -0.0363,0 z m 0.314556,5.5791742 c 0.0442,-0.0021 0.08833,0 0.133086,0 1.432093,0 2.601158,1.109295 2.601158,2.468253 0,1.358919 -1.169026,2.456755 -2.601158,2.456755 -1.432092,0 -2.589041,-1.097836 -2.589041,-2.456755 2e-6,-1.316452 1.085791,-2.402274 2.455978,-2.468253 z"
       style="color:#000000;fill:url(#linearGradient3178);fill-opacity:1;stroke:#f2f2f2;stroke-width:1.89984787;stroke-miterlimit:4;stroke-dasharray:none;stroke-opacity:1" />
    <path
       style="color:#000000;fill:url(#linearGradient4065-6);fill-opacity:1;stroke:#333333;stroke-width:1;stroke-miterlimit:4;stroke-dasharray:none;stroke-opacity:1"
       d="m 16.31628,9.6404238 c -0.170724,0.0111 -0.33666,0.03617 -0.504349,0.05438 l -0.01152,0 -0.401204,2.0774902 c -0.653893,0.141308 -1.269088,0.381125 -1.822552,0.706976 l -1.799463,-1.228849 c -0.486744,0.35836 -0.929104,0.776379 -1.318278,1.229201 l 1.24939,1.729398 c -0.379345,0.550106 -0.664641,1.178245 -0.825299,1.838164 -2.7e-5,0.003 -2.3e-5,0.01041 0,0.01085 L 8.7051333,16.38434 c -0.03981,0.308598 -0.0573,0.627513 -0.0573,0.9463 0,0.260798 0.0076,0.518118 0.03439,0.772269 l 2.1778697,0.36981 c 0.154892,0.717662 0.449145,1.387883 0.859704,1.979582 l -1.295242,1.685923 c 0.370945,0.436986 0.79922,0.834851 1.260874,1.185555 l 1.833996,-1.196449 c 0.640946,0.38798 1.356462,0.660056 2.132022,0.79399 l 0.343875,2.055701 c 0.244354,0.02111 0.494922,0.02175 0.745042,0.02175 0.35311,0 0.690393,-0.01264 1.031624,-0.05438 l 0.412652,-2.099208 c 0.736385,-0.17389 1.428132,-0.475553 2.028839,-0.881005 l 1.765222,1.218203 c 0.457767,-0.369569 0.876395,-0.794373 1.237949,-1.250852 l -1.283798,-1.762043 c 0.347671,-0.569771 0.588566,-1.198399 0.710674,-1.870812 l 2.166317,-0.32613 c 0.01899,-0.214464 0.02292,-0.422516 0.02292,-0.641688 0,-0.380845 -0.04665,-0.754277 -0.103151,-1.120329 l -2.200793,-0.380708 c -0.172467,-0.604301 -0.455456,-1.16812 -0.813856,-1.675032 l 1.295243,-1.685891 C 22.608915,12.003515 22.15115,11.572967 21.646433,11.207645 l -1.868403,1.218203 c -0.536993,-0.301364 -1.114886,-0.5326 -1.742297,-0.66347 L 17.692037,9.6958528 c -0.313248,-0.03494 -0.628698,-0.0544 -0.95148,-0.0544 -0.08726,0 -0.177048,-0.0027 -0.263638,0 -0.04221,0.0013 -0.08398,-0.0024 -0.126091,0 -0.01138,6.18e-4 -0.02301,-7.06e-4 -0.03439,0 z m 0.298024,5.2859602 c 0.04188,-0.002 0.08369,0 0.126092,0 1.356828,0 2.464452,1.050995 2.464452,2.338532 0,1.2875 -1.107587,2.327638 -2.464452,2.327638 -1.356828,0 -2.452972,-1.040138 -2.452972,-2.327638 1e-6,-1.247265 1.028726,-2.276021 2.326902,-2.338532 z"
       id="path215"
       inkscape:connector-curvature="0" />
  </g>
</svg>
