<?xml version="1.0" encoding="UTF-8" standalone="no"?>
<!-- Created with Inkscape (http://www.inkscape.org/) -->

<svg
   xmlns:dc="http://purl.org/dc/elements/1.1/"
   xmlns:cc="http://creativecommons.org/ns#"
   xmlns:rdf="http://www.w3.org/1999/02/22-rdf-syntax-ns#"
   xmlns:svg="http://www.w3.org/2000/svg"
   xmlns="http://www.w3.org/2000/svg"
   xmlns:xlink="http://www.w3.org/1999/xlink"
   xmlns:sodipodi="http://sodipodi.sourceforge.net/DTD/sodipodi-0.dtd"
   xmlns:inkscape="http://www.inkscape.org/namespaces/inkscape"
   version="1.0"
   width="26"
   height="26"
   id="svg2"
   inkscape:version="0.48.1 r9760"
   sodipodi:docname="library_browse.svg">
  <metadata
     id="metadata166">
    <rdf:RDF>
      <cc:Work
         rdf:about="">
        <dc:format>image/svg+xml</dc:format>
        <dc:type
           rdf:resource="http://purl.org/dc/dcmitype/StillImage" />
        <dc:title />
      </cc:Work>
    </rdf:RDF>
  </metadata>
  <sodipodi:namedview
     pagecolor="#ffffff"
     bordercolor="#666666"
     borderopacity="1"
     objecttolerance="10"
     gridtolerance="10"
     guidetolerance="10"
     inkscape:pageopacity="0"
     inkscape:pageshadow="2"
     inkscape:window-width="1600"
     inkscape:window-height="876"
     id="namedview164"
     showgrid="true"
     inkscape:zoom="13.906433"
     inkscape:cx="27.481006"
     inkscape:cy="2.3004166"
     inkscape:window-x="0"
     inkscape:window-y="24"
     inkscape:window-maximized="1"
     inkscape:current-layer="svg2"
     inkscape:snap-grids="false"
     inkscape:snap-to-guides="false">
    <inkscape:grid
       type="xygrid"
       id="grid3297"
       empspacing="5"
       visible="true"
       enabled="true"
       snapvisiblegridlinesonly="true" />
  </sodipodi:namedview>
  <defs
     id="defs4">
    <linearGradient
       id="linearGradient6881-1">
      <stop
         id="stop6883-0"
         style="stop-color:#ffffff;stop-opacity:1"
         offset="0" />
      <stop
         id="stop6885-3"
         style="stop-color:#ffffff;stop-opacity:0"
         offset="1" />
    </linearGradient>
    <linearGradient
       id="linearGradient11114-516">
      <stop
         id="stop3372"
         offset="0"
         style="stop-color:#242424;stop-opacity:0.99215686;" />
      <stop
         id="stop3374"
         offset="1"
         style="stop-color:#656565;stop-opacity:1;" />
    </linearGradient>
    <linearGradient
       id="linearGradient3277-442">
      <stop
         id="stop3378"
         offset="0"
         style="stop-color:#575757;stop-opacity:1;" />
      <stop
         id="stop3380"
         offset="1"
         style="stop-color:#333333;stop-opacity:1;" />
    </linearGradient>
    <linearGradient
       id="linearGradient3294">
      <stop
         style="stop-color:#ffffff;stop-opacity:0.19520548;"
         offset="0"
         id="stop3296" />
      <stop
         style="stop-color:#ffffff;stop-opacity:0;"
         offset="1"
         id="stop3298" />
    </linearGradient>
    <linearGradient
       id="linearGradient4454-600">
      <stop
         style="stop-color:#ffffff;stop-opacity:0.64726025;"
         offset="0"
         id="stop3408" />
      <stop
         style="stop-color:#ffffff;stop-opacity:0.19520548;"
         offset="1"
         id="stop3410" />
    </linearGradient>
    <linearGradient
       id="linearGradient4467-402">
      <stop
         style="stop-color:#ffffff;stop-opacity:1;"
         offset="0"
         id="stop3390" />
      <stop
         style="stop-color:#ffffff;stop-opacity:0.24761905;"
         offset="1.0000000"
         id="stop3392" />
    </linearGradient>
    <linearGradient
       id="linearGradient2300-465">
      <stop
         id="stop3396"
         offset="0"
         style="stop-color:#343434;stop-opacity:0.97647059" />
      <stop
         id="stop3398"
         offset="1"
         style="stop-color:#929292;stop-opacity:1" />
    </linearGradient>
    <linearGradient
       id="linearGradient11104-770">
      <stop
         id="stop3402"
         offset="0"
         style="stop-color:#333333;stop-opacity:1;" />
      <stop
         id="stop3404"
         offset="1"
         style="stop-color:#333333;stop-opacity:0.6122449;" />
    </linearGradient>
    <linearGradient
       id="linearGradient6209-717">
      <stop
         style="stop-color:#979797;stop-opacity:1"
         offset="0"
         id="stop3366" />
      <stop
         style="stop-color:#000000;stop-opacity:0.34117648"
         offset="1"
         id="stop3368" />
    </linearGradient>
    <linearGradient
       y2="31.210939"
       x2="23.575972"
       y1="25.356892"
       x1="23.575972"
       spreadMethod="pad"
       gradientTransform="matrix(0.415777,-0.4174938,0.518983,0.5146192,-15.747227,2.6503673)"
       gradientUnits="userSpaceOnUse"
       id="linearGradient8639"
       xlink:href="#linearGradient3155-40"
       inkscape:collect="always" />
    <linearGradient
       id="linearGradient3155-40">
      <stop
         style="stop-color:#181818;stop-opacity:1;"
         offset="0"
         id="stop2541" />
      <stop
         id="stop2543"
         offset="0.13482948"
         style="stop-color:#dbdbdb;stop-opacity:1;" />
      <stop
         style="stop-color:#a4a4a4;stop-opacity:1;"
         offset="0.20224422"
         id="stop2545" />
      <stop
         id="stop2547"
         offset="0.26965895"
         style="stop-color:#ffffff;stop-opacity:1;" />
      <stop
         style="stop-color:#8d8d8d;stop-opacity:1;"
         offset="0.44650277"
         id="stop2549" />
      <stop
         id="stop2551"
         offset="0.57114136"
         style="stop-color:#959595;stop-opacity:1;" />
      <stop
         style="stop-color:#cecece;stop-opacity:1;"
         offset="0.72038066"
         id="stop2553" />
      <stop
         style="stop-color:#181818;stop-opacity:1;"
         offset="1"
         id="stop2555" />
    </linearGradient>
    <linearGradient
       y2="30.000141"
       x2="30.037716"
       y1="24.989594"
       x1="30.037716"
       gradientTransform="matrix(0.4040235,-0.4056919,0.6073752,0.6022679,-17.867764,0.6930272)"
       gradientUnits="userSpaceOnUse"
       id="linearGradient8641"
       xlink:href="#linearGradient3240-279"
       inkscape:collect="always" />
    <linearGradient
       id="linearGradient3240-279">
      <stop
         id="stop2559"
         offset="0"
         style="stop-color:#565656;stop-opacity:1;" />
      <stop
         style="stop-color:#9a9a9a;stop-opacity:1;"
         offset="0.5"
         id="stop2561" />
      <stop
         id="stop2563"
         offset="1"
         style="stop-color:#545454;stop-opacity:1;" />
    </linearGradient>
    <linearGradient
       y2="30.000141"
       x2="30.037716"
       y1="24.989594"
       x1="30.037716"
       gradientTransform="matrix(0.4040235,-0.4056919,0.6073752,0.6022679,-17.983472,0.8092126)"
       gradientUnits="userSpaceOnUse"
       id="linearGradient8643"
       xlink:href="#linearGradient3223-789"
       inkscape:collect="always" />
    <linearGradient
       id="linearGradient3223-789">
      <stop
         style="stop-color:#b1b1b1;stop-opacity:1;"
         offset="0"
         id="stop2567" />
      <stop
         id="stop2569"
         offset="0.5"
         style="stop-color:#ffffff;stop-opacity:1;" />
      <stop
         style="stop-color:#8f8f8f;stop-opacity:1;"
         offset="1"
         id="stop2571" />
    </linearGradient>
    <linearGradient
       y2="30.000141"
       x2="30.037716"
       y1="24.989594"
       x1="30.037716"
       gradientTransform="matrix(0.4040235,-0.4056919,0.6073752,0.6022679,-17.465684,0.2892868)"
       gradientUnits="userSpaceOnUse"
       id="linearGradient8645"
       xlink:href="#linearGradient3240-686"
       inkscape:collect="always" />
    <linearGradient
       id="linearGradient3240-686">
      <stop
         id="stop2575"
         offset="0"
         style="stop-color:#565656;stop-opacity:1;" />
      <stop
         style="stop-color:#9a9a9a;stop-opacity:1;"
         offset="0.5"
         id="stop2577" />
      <stop
         id="stop2579"
         offset="1"
         style="stop-color:#545454;stop-opacity:1;" />
    </linearGradient>
    <linearGradient
       y2="30.000141"
       x2="30.037716"
       y1="24.989594"
       x1="30.037716"
       gradientTransform="matrix(0.4040235,-0.4056919,0.6073752,0.6022679,-17.581392,0.4054707)"
       gradientUnits="userSpaceOnUse"
       id="linearGradient8647"
       xlink:href="#linearGradient3223-768"
       inkscape:collect="always" />
    <linearGradient
       id="linearGradient3223-768">
      <stop
         style="stop-color:#b1b1b1;stop-opacity:1;"
         offset="0"
         id="stop2583" />
      <stop
         id="stop2585"
         offset="0.5"
         style="stop-color:#ffffff;stop-opacity:1;" />
      <stop
         style="stop-color:#8f8f8f;stop-opacity:1;"
         offset="1"
         id="stop2587" />
    </linearGradient>
    <linearGradient
       y2="30.000141"
       x2="30.037716"
       y1="24.989594"
       x1="30.037716"
       gradientTransform="matrix(0.4040235,-0.4056919,0.6073752,0.6022679,-17.061661,-0.1164056)"
       gradientUnits="userSpaceOnUse"
       id="linearGradient8649"
       xlink:href="#linearGradient3240-907"
       inkscape:collect="always" />
    <linearGradient
       id="linearGradient3240-907">
      <stop
         id="stop2591"
         offset="0"
         style="stop-color:#565656;stop-opacity:1;" />
      <stop
         style="stop-color:#9a9a9a;stop-opacity:1;"
         offset="0.5"
         id="stop2593" />
      <stop
         id="stop2595"
         offset="1"
         style="stop-color:#545454;stop-opacity:1;" />
    </linearGradient>
    <linearGradient
       y2="30.000141"
       x2="30.037716"
       y1="24.989594"
       x1="30.037716"
       gradientTransform="matrix(0.4040235,-0.4056919,0.6073752,0.6022679,-17.177369,-2.1969969e-4)"
       gradientUnits="userSpaceOnUse"
       id="linearGradient8651"
       xlink:href="#linearGradient3223-699"
       inkscape:collect="always" />
    <linearGradient
       id="linearGradient3223-699">
      <stop
         style="stop-color:#b1b1b1;stop-opacity:1;"
         offset="0"
         id="stop2599" />
      <stop
         id="stop2601"
         offset="0.5"
         style="stop-color:#ffffff;stop-opacity:1;" />
      <stop
         style="stop-color:#8f8f8f;stop-opacity:1;"
         offset="1"
         id="stop2603" />
    </linearGradient>
    <linearGradient
       y2="26.02973"
       x2="9"
       y1="29.056757"
       x1="9"
       gradientTransform="matrix(0.4040235,-0.4056919,0.6073752,0.602268,-17.636692,0.462492)"
       gradientUnits="userSpaceOnUse"
       id="linearGradient8653"
       xlink:href="#linearGradient3290-678"
       inkscape:collect="always" />
    <linearGradient
       id="linearGradient3290-678">
      <stop
         style="stop-color:#ece5a5;stop-opacity:1;"
         offset="0"
         id="stop2607" />
      <stop
         style="stop-color:#fcfbf2;stop-opacity:1;"
         offset="1"
         id="stop2609" />
    </linearGradient>
    <linearGradient
       y2="41.391716"
       x2="9.5220556"
       y1="37.371799"
       x1="5.5178981"
       gradientTransform="matrix(0.3763801,0.03615261,0.03669995,0.374874,-2.2182805,-1.1331002)"
       gradientUnits="userSpaceOnUse"
       id="linearGradient8655"
       xlink:href="#linearGradient3191-577"
       inkscape:collect="always" />
    <linearGradient
       id="linearGradient3191-577">
      <stop
         style="stop-color:#dbce48;stop-opacity:1;"
         offset="0"
         id="stop2613" />
      <stop
         style="stop-color:#c5b625;stop-opacity:1;"
         offset="1"
         id="stop2615" />
    </linearGradient>
    <linearGradient
       inkscape:collect="always"
       xlink:href="#linearGradient6881-1"
       id="linearGradient3295"
       gradientUnits="userSpaceOnUse"
       gradientTransform="matrix(1.1133613,0,0,1.0128506,-3.5243074,-0.1684564)"
       x1="17.353554"
       y1="7.9356604"
       x2="28.035534"
       y2="81.759773" />
    <linearGradient
       inkscape:collect="always"
       xlink:href="#linearGradient11114-516"
       id="linearGradient3308"
       gradientUnits="userSpaceOnUse"
       gradientTransform="matrix(0.1953514,0,0,0.1799097,78.32249,29.608732)"
       x1="-172.65306"
       y1="99.667191"
       x2="-164.71831"
       y2="91.972626" />
    <linearGradient
       inkscape:collect="always"
       xlink:href="#linearGradient3277-442"
       id="linearGradient3310"
       gradientUnits="userSpaceOnUse"
       gradientTransform="matrix(0.5018785,0,0,0.462207,27.940548,32.403038)"
       x1="32.892574"
       y1="27.988184"
       x2="31.364458"
       y2="29.484051" />
    <linearGradient
       inkscape:collect="always"
       xlink:href="#linearGradient3294"
       id="linearGradient3312"
       gradientUnits="userSpaceOnUse"
       gradientTransform="matrix(0.1953514,0,0,0.1799097,3.097778,31.347388)"
       x1="212.04402"
       y1="123.74026"
       x2="210.58083"
       y2="74.261711" />
    <radialGradient
       inkscape:collect="always"
       xlink:href="#linearGradient4454-600"
       id="radialGradient3314"
       gradientUnits="userSpaceOnUse"
       cx="18.240929"
       cy="21.817987"
       fx="18.240929"
       fy="21.817987"
       r="8.3085051" />
    <radialGradient
       inkscape:collect="always"
       xlink:href="#linearGradient4467-402"
       id="radialGradient3316"
       gradientUnits="userSpaceOnUse"
       gradientTransform="matrix(1.4500546,0,0,1.1280465,13.040758,20.593653)"
       cx="15.414371"
       cy="13.078408"
       fx="15.414371"
       fy="13.078408"
       r="6.65625" />
    <linearGradient
       inkscape:collect="always"
       xlink:href="#linearGradient2300-465"
       id="linearGradient3318"
       gradientUnits="userSpaceOnUse"
       gradientTransform="matrix(0.1906508,0,0,0.1908549,4.152958,30.625268)"
       x1="173.09576"
       y1="75.31868"
       x2="173.09576"
       y2="11.949074" />
    <linearGradient
       inkscape:collect="always"
       xlink:href="#linearGradient11104-770"
       id="linearGradient3320"
       gradientUnits="userSpaceOnUse"
       gradientTransform="matrix(0.1906508,0,0,0.1908549,28.882494,32.061624)"
       x1="41.541653"
       y1="68.291702"
       x2="41.485142"
       y2="4.5362983" />
    <linearGradient
       inkscape:collect="always"
       xlink:href="#linearGradient6209-717"
       id="linearGradient3322"
       gradientUnits="userSpaceOnUse"
       gradientTransform="matrix(0.1815664,0,0,0.1817607,5.775675,30.907522)"
       x1="173.09576"
       y1="75.31868"
       x2="173.09576"
       y2="11.949074" />
    <linearGradient
       inkscape:collect="always"
       xlink:href="#linearGradient6881-1"
       id="linearGradient3924"
       gradientUnits="userSpaceOnUse"
       gradientTransform="matrix(0.66043475,0,0,0.53939511,-1.4227602,1.7507175)"
       x1="17.353554"
       y1="7.9356604"
       x2="28.035534"
       y2="81.759773" />
  </defs>
  <path
     inkscape:connector-curvature="0"
     style="opacity:0.46120689;fill:none;stroke:url(#linearGradient3924);stroke-width:0.59685445;stroke-linecap:round;stroke-linejoin:miter;stroke-miterlimit:0;stroke-opacity:1;stroke-dashoffset:0"
     id="path6132-3"
     d="m 5.8213824,5.8130362 c -0.5472118,0 -0.9493709,0.3284565 -0.9493709,0.775379 l 0,18.3731488 c 0,0.446923 0.4021591,0.775379 0.9493709,0.775379 l 17.8730146,0 c 0.547218,0 0.949377,-0.328456 0.949377,-0.775379 l 0,-18.3731488 c 0,-0.4469225 -0.402159,-0.775379 -0.949377,-0.775379 l -17.8730146,0 z" />
  <path
     id="path37"
     d="M 12.854719,8.6366751 C 11.678638,6.7156004 4.6675187,4.191054 1.4375677,3.6819186 1.6080216,9.6643594 1.611298,12.940091 1.43524,18.470278 c 4.2127365,0.54004 8.2855273,2.206587 11.511828,3.854368 0,0.804562 -0.09217,-13.2052737 -0.09217,-13.6879709 z"
     style="opacity:0.62891002;fill:#ffffff;fill-rule:evenodd;stroke:#000000;stroke-width:0.9007479;stroke-linejoin:round"
     inkscape:connector-curvature="0" />
  <path
     id="path39"
     d="m 12.854719,8.5986201 c 3.019667,-2.7553798 7.10244,-3.8767995 11.8073,-5.1065757 -0.354807,6.3996434 -0.127652,9.7132296 -0.08986,14.8642696 -4.258978,0.04699 -8.675672,2.016913 -11.625244,3.968131 0,-0.02984 -0.09217,-13.2431277 -0.09217,-13.7258249 z"
     style="opacity:0.62891002;fill:#ffffff;fill-rule:evenodd;stroke:#000000;stroke-width:0.9007479;stroke-linejoin:round"
     inkscape:connector-curvature="0" />
  <path
     id="path49"
     d="m 22.773594,5.8840994 c 0,0 -4.75402,1.1428907 -8.533289,3.8271277"
     style="opacity:0.62891002;fill:none;stroke:#000000;stroke-width:0.18014959"
     inkscape:connector-curvature="0" />
  <path
     id="path51"
     d="m 22.491274,7.9711138 c 0,0 -4.374589,0.6689662 -8.249266,3.2378762"
     style="opacity:0.62891002;fill:none;stroke:#000000;stroke-width:0.27598473"
     inkscape:connector-curvature="0" />
  <path
     id="path53"
     d="m 22.34037,9.8201845 c 0,0 -4.079115,0.6590715 -8.098848,3.0221655"
     style="opacity:0.62891002;fill:none;stroke:#000000;stroke-width:0.27598473"
     inkscape:connector-curvature="0" />
  <path
     id="path55"
     d="m 22.34281,11.702303 c 0,0 -3.952805,0.347181 -8.101045,2.859931"
     style="opacity:0.62891002;fill:none;stroke:#000000;stroke-width:0.27598473"
     inkscape:connector-curvature="0" />
  <path
     id="path57"
     d="m 22.289266,13.272371 c -0.04607,0.0096 -3.584322,0.658251 -8.047501,2.952264"
     style="opacity:0.62891002;fill:none;stroke:#000000;stroke-width:0.27598473"
     inkscape:connector-curvature="0" />
  <path
     id="path59"
     d="m 22.488834,14.803983 c -0.04607,0.0096 -3.842302,0.711507 -8.247312,3.106086"
     style="opacity:0.62891002;fill:none;stroke:#000000;stroke-width:0.27598473"
     inkscape:connector-curvature="0" />
  <path
     id="path61"
     d="m 22.549682,16.440646 c 0,0 -4.154566,0.80272 -8.308647,3.148949"
     style="opacity:0.62891002;fill:none;stroke:#000000;stroke-width:0.27598473"
     inkscape:connector-curvature="0" />
  <path
     id="path63"
     d="m 12.887332,8.5870033 c 2.66092,-3.0405917 6.259111,-4.5471677 10.40516,-6.2211856 -0.312676,6.4330917 -0.112482,9.7252463 -0.07922,14.8726813 -3.753228,0.449048 -7.645426,2.835896 -10.244769,5.065516 0,-0.02984 -0.08123,-13.2343145 -0.08123,-13.7172119 z"
     style="opacity:0.62891002;fill:#ffffff;fill-rule:evenodd;stroke:#000000;stroke-width:0.84557295;stroke-linejoin:round"
     inkscape:connector-curvature="0" />
  <path
     id="path65"
     d="m 21.629689,4.9359299 c 0,0 -4.189612,1.5916789 -7.519838,4.6326912"
     style="opacity:0.62891002;fill:none;stroke:#000000;stroke-width:0.27598473"
     inkscape:connector-curvature="0" />
  <path
     id="path67"
     d="m 21.247577,8.9130743 c 0,0 -3.594539,1.0441281 -7.136996,3.7866697"
     style="opacity:0.62891002;fill:none;stroke:#000000;stroke-width:0.27598473"
     inkscape:connector-curvature="0" />
  <path
     id="path69"
     d="m 21.201337,12.370268 c -0.04061,0.01396 -3.158641,0.996619 -7.091729,3.711961"
     style="opacity:0.62891002;fill:none;stroke:#000000;stroke-width:0.27598473"
     inkscape:connector-curvature="0" />
  <path
     id="path71"
     d="m 21.432553,15.513808 c 0,0 -3.66123,1.194906 -7.321972,3.933281"
     style="opacity:0.62891002;fill:none;stroke:#000000;stroke-width:0.27598473"
     inkscape:connector-curvature="0" />
  <path
     id="path73"
     d="m 4.2562,5.8460444 c 0,0 4.1937524,1.1428907 7.527385,3.8271278"
     style="opacity:0.62891002;fill:none;stroke:#000000;stroke-width:0.27598473"
     inkscape:connector-curvature="0" />
  <path
     id="path75"
     d="m 4.5066417,7.9332591 c 0,0 3.8588563,0.6689662 7.2767003,3.2378769"
     style="opacity:0.62891002;fill:none;stroke:#000000;stroke-width:0.27598473"
     inkscape:connector-curvature="0" />
  <path
     id="path77"
     d="m 4.6395298,9.7823298 c 0,0 3.5981913,0.6590722 7.1440552,3.0221652"
     style="opacity:0.62891002;fill:none;stroke:#000000;stroke-width:0.27598473"
     inkscape:connector-curvature="0" />
  <path
     id="path79"
     d="m 4.6373394,11.664448 c 0,0 3.4867216,0.347182 7.1460026,2.859931"
     style="opacity:0.62891002;fill:none;stroke:#000000;stroke-width:0.27598473"
     inkscape:connector-curvature="0" />
  <path
     id="path81"
     d="m 4.6847995,13.234516 c 0.040654,0.0096 3.1618037,0.658251 7.0987855,2.952264"
     style="opacity:0.62891002;fill:none;stroke:#000000;stroke-width:0.27598473"
     inkscape:connector-curvature="0" />
  <path
     id="path83"
     d="m 4.5083458,14.765928 c 0.040654,0.0096 3.3893679,0.711507 7.2752392,3.106086"
     style="opacity:0.62891002;fill:none;stroke:#000000;stroke-width:0.27598473"
     inkscape:connector-curvature="0" />
  <path
     id="path85"
     d="m 4.4543145,16.402732 c 0,0 3.6646353,0.80272 7.3292705,3.148948"
     style="opacity:0.62891002;fill:none;stroke:#000000;stroke-width:0.27598473"
     inkscape:connector-curvature="0" />
  <path
     id="path87"
     d="M 12.977872,8.5491486 C 10.630675,5.508557 7.4567014,4.0019809 3.7993677,2.327963 c 0.2758027,6.4330917 0.099225,9.725247 0.069854,14.872682 3.3107551,0.449028 6.7441743,2.835896 9.0370973,5.065516 0,-0.02985 0.07165,-13.2343152 0.07165,-13.7172126 z"
     style="opacity:0.62891002;fill:#ffffff;fill-rule:evenodd;stroke:#000000;stroke-width:0.7941736;stroke-linejoin:round"
     inkscape:connector-curvature="0" />
  <path
     id="path89"
     d="m 5.2664871,4.8980752 c 0,0 3.6955457,1.591679 6.6334359,4.6326912"
     style="opacity:0.62891002;fill:none;stroke:#000000;stroke-width:0.27598473"
     inkscape:connector-curvature="0" />
  <path
     id="path91"
     d="m 5.6040609,8.8752196 c 0,0 3.1708094,1.0441281 6.2956191,3.7866694"
     style="opacity:0.62891002;fill:none;stroke:#000000;stroke-width:0.27598473"
     inkscape:connector-curvature="0" />
  <path
     id="path93"
     d="m 5.6442193,12.332413 c 0.035822,0.01396 2.7862619,0.996619 6.2557037,3.711961"
     style="opacity:0.62891002;fill:none;stroke:#000000;stroke-width:0.27598473"
     inkscape:connector-curvature="0" />
  <path
     id="path95"
     d="m 5.4409936,15.475953 c 0,0 3.2294646,1.194906 6.4589294,3.933282"
     style="opacity:0.62891002;fill:none;stroke:#000000;stroke-width:0.27598473"
     inkscape:connector-curvature="0" />
  <g
     inkscape:label="Layer 1"
     id="g2712"
     transform="matrix(0.69009217,0,0,0.68674452,36.937459,8.015444)">
    <path
       inkscape:connector-curvature="0"
       inkscape:transform-center-y="-1.7158265"
       inkscape:transform-center-x="-8.4393233"
       style="opacity:0.15;fill:#0c0c0c;fill-opacity:1;fill-rule:evenodd;stroke:none"
       d="m 13.219868,12.085402 c -0.135595,-0.02111 -0.239457,-0.01225 -0.307686,0.003 l -9.0874927,2.017202 -1.6724992,0.372194 -0.051633,0.008 -1.9387153,1.432663 4.9498341,-0.07402 0.040722,-0.0095 1.6834123,-0.370698 9.0845618,-2.03263 c 0.272911,-0.06092 -0.177299,-0.409927 -1.009983,-0.78431 -0.624515,-0.280788 -1.283742,-0.498541 -1.690521,-0.561884 z"
       id="path2422" />
    <g
       transform="matrix(1.030012,0,0,1.0325071,-0.016773,-0.5215254)"
       id="g8626">
      <path
         inkscape:connector-curvature="0"
         style="fill:url(#linearGradient8639);fill-opacity:1;stroke:#0c0c0c;stroke-width:0.48484433;stroke-linecap:butt;stroke-linejoin:round;stroke-miterlimit:4;stroke-opacity:1;stroke-dasharray:none;stroke-dashoffset:0"
         d="m 2.0488085,11.037368 c 0.2865424,-0.207707 1.1479509,0.256388 1.9603385,1.061945 0.8104458,0.803629 1.2601996,1.641331 1.0575577,1.930575 -7.708e-4,0.0011 0.01977,0.01774 0.01898,0.01882 L 15.224149,3.8683779 C 15.481557,3.6099071 15.011041,2.7247557 14.172862,1.893626 13.334685,1.0624962 12.444681,0.59856571 12.187272,0.85703737 L 2.0488085,11.037368 z"
         id="rect2383"
         inkscape:transform-center-x="-9.3983079"
         inkscape:transform-center-y="-8.5737916" />
      <path
         inkscape:connector-curvature="0"
         style="opacity:0.8;fill:#ffb6ed;fill-opacity:1;stroke:#e28ccd;stroke-width:0.48484433;stroke-linecap:butt;stroke-linejoin:round;stroke-miterlimit:4;stroke-opacity:1;stroke-dasharray:none;stroke-dashoffset:0"
         d="m 10.565423,2.4840909 c 0.286542,-0.2077065 1.147951,0.2563879 1.960338,1.0619443 0.810445,0.8036291 1.260199,1.6413295 1.057557,1.9305744 -7.69e-4,0.0011 0.01977,0.017738 0.01898,0.018821 L 15.154234,3.9383089 C 15.562715,3.5297289 15.124956,2.8454879 14.172862,1.893626 13.360476,1.0880699 12.499066,0.6239749 12.212525,0.83168148 l -0.02525,0.0253559 -1.621849,1.62705352 z"
         id="rect3175"
         sodipodi:nodetypes="csscccccc"
         inkscape:transform-center-x="-14.039749"
         inkscape:transform-center-y="-12.827689" />
      <path
         inkscape:connector-curvature="0"
         style="opacity:0.6;fill:#0c0c0c;fill-opacity:1;stroke:none"
         d="m 2.0488079,11.037368 c 0.286543,-0.207708 1.1479512,0.256388 1.960339,1.061943 0.8104449,0.80363 1.2601992,1.641332 1.0575579,1.930577 -7.714e-4,0.0011 0.01977,0.01774 0.01898,0.01882 l 6.9820302,-7.0108637 0.02525,-0.025356 c 7.9e-4,-0.00108 -0.01975,-0.01772 -0.01898,-0.01882 C 12.276628,6.7044221 11.826873,5.8667226 11.01643,5.0630931 10.204041,4.2575368 9.3426319,3.7934425 9.0560897,4.0011493 l -0.025251,0.025355 -6.9820304,7.0108637 z"
         id="path3208"
         inkscape:transform-center-x="-7.6735182"
         inkscape:transform-center-y="-6.9998429" />
      <path
         inkscape:connector-curvature="0"
         style="fill:url(#linearGradient8641);fill-opacity:1;stroke:none"
         d="m 9.1785348,3.8767048 c 0.2865413,-0.2077068 1.1479522,0.2563879 1.9603392,1.0619443 0.810445,0.8036291 1.2602,1.6413294 1.057556,1.9305753 -7.71e-4,0.0011 0.01977,0.017736 0.01898,0.01882 l 0.126256,-0.1267795 c 7.9e-4,-0.00108 -0.01975,-0.01772 -0.01898,-0.01882 C 12.525331,6.4531992 12.075576,5.6154986 11.26513,4.8118704 10.452743,4.0063135 9.5913335,3.542219 9.3047918,3.7499256 l -0.126257,0.1267792 z"
         id="path3233"
         inkscape:transform-center-x="-11.687278"
         inkscape:transform-center-y="-10.684694" />
      <path
         inkscape:connector-curvature="0"
         style="fill:url(#linearGradient8643);fill-opacity:1;stroke:none"
         d="m 9.0628273,3.9928895 c 0.2865436,-0.2077068 1.1479527,0.2563878 1.9603397,1.061944 0.810444,0.8036294 1.2602,1.6413292 1.057556,1.9305742 -7.71e-4,0.0011 0.01977,0.017738 0.01898,0.018822 L 12.22596,6.8774498 c 7.9e-4,-0.00108 -0.01975,-0.017721 -0.01898,-0.018821 C 12.409623,6.569384 11.95987,5.7316836 11.149423,4.9280545 10.337036,4.1224982 9.4756273,3.6584033 9.1890844,3.8661101 L 9.0628273,3.9928895 z"
         id="path3216"
         inkscape:transform-center-x="-11.561394"
         inkscape:transform-center-y="-10.569171" />
      <path
         inkscape:connector-curvature="0"
         style="fill:url(#linearGradient8645);fill-opacity:1;stroke:none"
         d="m 9.5806143,3.4729643 c 0.2865426,-0.2077069 1.1479517,0.2563872 1.9603387,1.0619442 0.810446,0.803629 1.2602,1.6413292 1.057558,1.9305747 -7.73e-4,0.0011 0.01977,0.017737 0.01898,0.01882 l 0.126258,-0.1267784 c 7.91e-4,-0.00108 -0.01975,-0.017721 -0.01898,-0.01882 C 12.927411,6.0494594 12.477656,5.2117588 11.66721,4.4081298 10.854824,3.6025731 9.9934151,3.1384786 9.7068717,3.3461854 L 9.5806143,3.4729643 z"
         id="path3248"
         inkscape:transform-center-x="-12.124723"
         inkscape:transform-center-y="-11.086128" />
      <path
         inkscape:connector-curvature="0"
         style="fill:url(#linearGradient8647);fill-opacity:1;stroke:none"
         d="m 9.4649071,3.5891488 c 0.2865435,-0.207707 1.1479529,0.2563877 1.9603379,1.061944 0.810447,0.8036298 1.260201,1.6413294 1.057558,1.9305748 -7.69e-4,0.0011 0.01977,0.017737 0.01898,0.018821 l 0.126257,-0.12678 c 7.9e-4,-0.00108 -0.01975,-0.01772 -0.01898,-0.01882 C 12.811705,6.1656438 12.361949,5.3279425 11.551504,4.5243147 10.739118,3.718758 9.877708,3.254663 9.5911645,3.46237 L 9.4649071,3.5891488 z"
         id="path3250"
         inkscape:transform-center-x="-11.998839"
         inkscape:transform-center-y="-10.970607" />
      <path
         inkscape:connector-curvature="0"
         style="fill:url(#linearGradient8649);fill-opacity:1;stroke:none"
         d="M 9.9846388,3.0672723 C 10.27118,2.8595657 11.13259,3.3236601 11.944976,4.1292168 c 0.810446,0.8036288 1.260201,1.641329 1.057558,1.9305741 -7.7e-4,0.0011 0.01977,0.017738 0.01898,0.018821 L 13.14777,5.9518328 c 7.92e-4,-0.00108 -0.01975,-0.017721 -0.01898,-0.018821 C 13.331434,5.6437674 12.881679,4.8060668 12.071233,4.0024374 11.258848,3.1968815 10.397438,2.7327869 10.110895,2.9404937 L 9.9846388,3.0672723 z"
         id="path3256"
         inkscape:transform-center-x="-12.564281"
         inkscape:transform-center-y="-11.489504" />
      <path
         inkscape:connector-curvature="0"
         style="fill:url(#linearGradient8651);fill-opacity:1;stroke:none"
         d="m 9.8689318,3.1834569 c 0.2865412,-0.2077072 1.1479512,0.2563879 1.9603392,1.0619447 0.810444,0.8036283 1.260198,1.6413291 1.057556,1.9305739 -7.71e-4,0.0011 0.01977,0.017737 0.01898,0.018821 l 0.126258,-0.1267782 c 7.89e-4,-0.00108 -0.01975,-0.017722 -0.01898,-0.018821 C 13.215727,5.7599515 12.765972,4.9222512 11.955527,4.1186224 11.143141,3.313066 10.281731,2.848971 9.9951884,3.0566783 L 9.8689318,3.1834569 z"
         id="path3258"
         inkscape:transform-center-x="-12.438397"
         inkscape:transform-center-y="-11.373981" />
      <path
         inkscape:connector-curvature="0"
         sodipodi:nodetypes="cccscc"
         id="path3270"
         d="m 0.25980529,15.79419 4.77185621,-1.725488 0.039308,-0.03926 C 5.2736124,13.740202 4.8185731,12.902156 4.0081274,12.098526 3.1957395,11.29297 2.335449,10.831246 2.0489062,11.038953 L 0.25980529,15.79419 z"
         style="fill:url(#linearGradient8653);fill-opacity:1;fill-rule:evenodd;stroke:url(#linearGradient8655);stroke-width:0.48484433;stroke-linecap:butt;stroke-linejoin:miter;stroke-miterlimit:4;stroke-opacity:1;stroke-dasharray:none"
         inkscape:transform-center-x="-2.8267936"
         inkscape:transform-center-y="-2.7057213" />
      <path
         inkscape:connector-curvature="0"
         style="fill:#0c0c0c;fill-opacity:1;fill-rule:evenodd;stroke:#0c0c0c;stroke-width:0.48484433;stroke-linecap:butt;stroke-linejoin:miter;stroke-miterlimit:4;stroke-opacity:1;stroke-dasharray:none"
         d="M 0.7444326,14.506276 0.25922075,15.788967 1.560593,15.315574 C 1.446907,15.182439 1.3413094,15.047739 1.2062351,14.913801 1.0507282,14.759602 0.89915498,14.633134 0.7444326,14.506276 z"
         id="path3281"
         inkscape:transform-center-x="-0.93674026"
         inkscape:transform-center-y="-0.91293426" />
    </g>
  </g>
  <g
     id="g3955"
     transform="translate(-14.309924,-15.676198)">
    <path
       d="m 25.482614,32.673801 c -0.05639,0.02335 -0.109558,0.05568 -0.157461,0.09573 l -0.951732,0.668188 c -0.144792,0.09479 -0.24634,0.248497 -0.276467,0.418462 -0.03013,0.169965 0.01437,0.338109 0.121149,0.457778 l 5.759061,6.261986 c 0.09921,0.114445 0.244719,0.175256 0.40022,0.167249 0.155502,-0.008 0.306309,-0.08407 0.414771,-0.209212 l 0.986567,-1.136964 c 0.20184,-0.237679 0.200896,-0.581548 -0.0022,-0.7805 L 25.982679,32.823312 C 25.860335,32.68418 25.670986,32.627568 25.482608,32.673797 z"
       id="path3220"
       style="fill:#6c4462;fill-opacity:1;fill-rule:evenodd;stroke:none;display:inline"
       inkscape:connector-curvature="0" />
    <path
       d="m 26.235799,29.928934 c 0,2.422825 -1.897101,4.386913 -4.237296,4.386913 -2.340193,0 -4.237296,-1.964088 -4.237296,-4.386913 0,-2.422826 1.897103,-4.386915 4.237296,-4.386915 2.340195,0 4.237296,1.964089 4.237296,4.386915 l 0,0 z"
       id="path2447"
       style="fill:none;stroke:#6c4462;stroke-width:2.00603461;stroke-linecap:butt;stroke-linejoin:miter;stroke-miterlimit:4;stroke-opacity:1;stroke-dasharray:none"
       inkscape:connector-curvature="0" />
  </g>
</svg>
