<?xml version="1.0" encoding="UTF-8" standalone="no"?>
<!-- Created with Inkscape (http://www.inkscape.org/) -->

<svg
   xmlns:dc="http://purl.org/dc/elements/1.1/"
   xmlns:cc="http://creativecommons.org/ns#"
   xmlns:rdf="http://www.w3.org/1999/02/22-rdf-syntax-ns#"
   xmlns:svg="http://www.w3.org/2000/svg"
   xmlns="http://www.w3.org/2000/svg"
   xmlns:xlink="http://www.w3.org/1999/xlink"
   xmlns:sodipodi="http://sodipodi.sourceforge.net/DTD/sodipodi-0.dtd"
   xmlns:inkscape="http://www.inkscape.org/namespaces/inkscape"
   version="1.0"
   width="26"
   height="26"
   id="svg2"
   inkscape:version="0.48.3.1 r9886"
   sodipodi:docname="library_table.svg">
  <metadata
     id="metadata166">
    <rdf:RDF>
      <cc:Work
         rdf:about="">
        <dc:format>image/svg+xml</dc:format>
        <dc:type
           rdf:resource="http://purl.org/dc/dcmitype/StillImage" />
        <dc:title></dc:title>
      </cc:Work>
    </rdf:RDF>
  </metadata>
  <sodipodi:namedview
     pagecolor="#ffffff"
     bordercolor="#666666"
     borderopacity="1"
     objecttolerance="10"
     gridtolerance="10"
     guidetolerance="10"
     inkscape:pageopacity="0"
     inkscape:pageshadow="2"
     inkscape:window-width="1600"
     inkscape:window-height="849"
     id="namedview164"
     showgrid="true"
     inkscape:zoom="13.906433"
     inkscape:cx="6.9892447"
     inkscape:cy="18.405854"
     inkscape:window-x="0"
     inkscape:window-y="29"
     inkscape:window-maximized="1"
     inkscape:current-layer="svg2"
     inkscape:snap-to-guides="false"
     inkscape:snap-grids="false">
    <inkscape:grid
       type="xygrid"
       id="grid3041"
       empspacing="1"
       visible="true"
       enabled="true"
       snapvisiblegridlinesonly="true" />
  </sodipodi:namedview>
  <defs
     id="defs4">
    <clipPath
       id="ba">
      <path
         style="fill:#ffffff"
         d="m 0,96 v 60 H 96 V 96 H 0 z m 68,20 c 9.9411,0 18,8.0589 18,18 0,9.9411 -8.0589,18 -18,18 -9.9411,0 -18,-8.0589 -18,-18 0,-9.9411 8.0589,-18 18,-18 z"
         id="path125"
         inkscape:connector-curvature="0" />
    </clipPath>
    <linearGradient
       id="bl"
       y2="5.9782"
       gradientUnits="userSpaceOnUse"
       x2="69"
       gradientTransform="matrix(-0.2255,-0.071329,0.05452,-0.20327,7.6326,90.834)"
       y1="122"
       x1="69">
      <stop
         stop-color="#1e71ac"
         offset="0"
         id="stop128" />
      <stop
         stop-color="#81c1e9"
         offset="1"
         id="stop130" />
    </linearGradient>
    <linearGradient
       id="bm"
       y2="67.706001"
       xlink:href="#a"
       gradientUnits="userSpaceOnUse"
       x2="118.33"
       gradientTransform="matrix(0.39018,0.62586,-0.63862,0.30043,3.5817,-20.909)"
       y1="87.488998"
       x1="120.65" />
    <linearGradient
       id="a">
      <stop
         offset="0"
         id="stop15" />
      <stop
         stop-opacity="0"
         offset="1"
         id="stop17" />
    </linearGradient>
    <linearGradient
       id="bn"
       y2="5.9782"
       gradientUnits="userSpaceOnUse"
       x2="69"
       gradientTransform="matrix(-0.2255,-0.071329,0.05452,-0.20327,7.6018,90.825)"
       y1="122"
       x1="69">
      <stop
         stop-color="#cd2323"
         offset="0"
         id="stop134" />
      <stop
         stop-color="#ef7474"
         offset="1"
         id="stop136" />
    </linearGradient>
    <linearGradient
       id="ao"
       y2="67.706001"
       xlink:href="#a"
       gradientUnits="userSpaceOnUse"
       x2="118.33"
       y1="87.488998"
       x1="120.65" />
    <clipPath
       id="aq">
      <path
         style="fill:url(#linearGradient4033)"
         d="m 118,56 c -9.9411,0 -18,8.0589 -18,18 0,9.9411 8.0589,18 18,18 9.7305,0 17.637,-7.7253 17.969,-17.375 v -1.25 C 135.639,63.725 127.729,56 117.999,56 z m -6,10.75 c 5.9493,0.05747 10.832,4.9413 11.031,10.875 l 3.75,0.03125 -6,8.7188 -6.1562,-8.8125 3.9688,0.03125 c -0.25101,-4.9057 -4.4893,-9.9506 -11.719,-9.625 1.5223,-0.80073 3.2718,-1.2367 5.125,-1.2188 z"
         id="path122"
         inkscape:connector-curvature="0" />
    </clipPath>
    <linearGradient
       id="bo"
       y2="5.1837001"
       xlink:href="#an"
       gradientUnits="userSpaceOnUse"
       x2="84.360001"
       gradientTransform="matrix(0.21868,0.069171,-0.053262,0.19858,-13.124,56.327)"
       y1="79.417"
       x1="84.360001" />
    <linearGradient
       id="an">
      <stop
         stop-color="#fff"
         offset="0"
         id="stop65" />
      <stop
         stop-color="#fff"
         stop-opacity=".49804"
         offset=".43290"
         id="stop67" />
      <stop
         stop-color="#fff"
         stop-opacity="0"
         offset="1"
         id="stop69" />
    </linearGradient>
    <linearGradient
       id="bp"
       y2="67.706001"
       xlink:href="#a"
       gradientUnits="userSpaceOnUse"
       x2="118.33"
       gradientTransform="matrix(-0.39018,-0.62586,0.63862,-0.30043,-9.9736,166.82)"
       y1="87.488998"
       x1="120.65" />
    <linearGradient
       y2="67.706001"
       x2="118.33"
       y1="87.488998"
       x1="120.65"
       gradientUnits="userSpaceOnUse"
       id="linearGradient3263"
       xlink:href="#a"
       inkscape:collect="always" />
    <linearGradient
       y2="5.1837001"
       x2="84.360001"
       y1="79.417"
       x1="84.360001"
       gradientTransform="matrix(-0.21868,-0.069171,0.053262,-0.19858,6.7324,89.587)"
       gradientUnits="userSpaceOnUse"
       id="linearGradient3265"
       xlink:href="#an"
       inkscape:collect="always" />
    <linearGradient
       inkscape:collect="always"
       xlink:href="#i"
       id="linearGradient4444"
       gradientUnits="userSpaceOnUse"
       gradientTransform="matrix(0.771702,0,0,0.7696371,58.469287,27.525353)"
       x1="19.648001"
       y1="42.254002"
       x2="20.631001"
       y2="6.7758002" />
    <linearGradient
       id="i"
       y2="6.7758002"
       gradientUnits="userSpaceOnUse"
       x2="20.631001"
       gradientTransform="matrix(0.87827,0,0,0.87827,56.157,5.6701)"
       y1="42.254002"
       x1="19.648001">
      <stop
         stop-color="#b6b6b6"
         offset="0"
         id="stop3120" />
      <stop
         stop-color="#f2f2f2"
         offset=".5"
         id="stop3122" />
      <stop
         stop-color="#fafafa"
         offset=".67613"
         id="stop3124" />
      <stop
         stop-color="#d8d8d8"
         offset=".84052"
         id="stop3126" />
      <stop
         stop-color="#f2f2f2"
         offset=".875"
         id="stop3128" />
      <stop
         stop-color="#dbdbdb"
         offset="1"
         id="stop3130" />
    </linearGradient>
    <linearGradient
       inkscape:collect="always"
       xlink:href="#j"
       id="linearGradient4446"
       gradientUnits="userSpaceOnUse"
       gradientTransform="matrix(0.77064365,0,0,0.77069683,60.490409,-22.581269)"
       x1="50.153"
       y1="-3.6324"
       x2="25.291"
       y2="-4.3003001" />
    <linearGradient
       id="j"
       y2="-4.3003001"
       gradientUnits="userSpaceOnUse"
       x2="25.291"
       gradientTransform="matrix(0.87827,0,0,0.87827,43.255,-36.26)"
       y1="-3.6324"
       x1="50.153">
      <stop
         stop-color="#fff"
         offset="0"
         id="stop3133"
         style="stop-color:#4754ba;stop-opacity:1;" />
      <stop
         offset="1"
         id="stop3135" />
    </linearGradient>
    <linearGradient
       inkscape:collect="always"
       xlink:href="#k"
       id="linearGradient4448"
       gradientUnits="userSpaceOnUse"
       gradientTransform="matrix(0.771702,0,0,0.7696371,58.741672,28.069542)"
       x1="38.228001"
       y1="13.603"
       x2="37.535"
       y2="6.6286001" />
    <linearGradient
       id="k"
       y2="6.6286001"
       gradientUnits="userSpaceOnUse"
       x2="37.535"
       gradientTransform="matrix(0.87827,0,0,0.87827,56.467,6.2911)"
       y1="13.603"
       x1="38.228001">
      <stop
         stop-color="#98a0a9"
         offset="0"
         id="stop3138" />
      <stop
         stop-color="#c3d0dd"
         offset="1"
         id="stop3140" />
    </linearGradient>
    <linearGradient
       inkscape:collect="always"
       xlink:href="#l"
       id="linearGradient4450"
       gradientUnits="userSpaceOnUse"
       gradientTransform="matrix(0.87866146,0,0,0.87631036,56.240123,23.172115)"
       x1="31.177"
       y1="19.822001"
       x2="40.859001"
       y2="9.6569004" />
    <linearGradient
       id="l"
       y2="9.6569004"
       gradientUnits="userSpaceOnUse"
       x2="40.859001"
       gradientTransform="translate(53.62,0.70241)"
       y1="19.822001"
       x1="31.177">
      <stop
         stop-color="#fff"
         offset="0"
         id="stop3143" />
      <stop
         stop-color="#fff"
         stop-opacity="0"
         offset="1"
         id="stop3145" />
    </linearGradient>
    <linearGradient
       inkscape:collect="always"
       xlink:href="#m"
       id="linearGradient4452"
       gradientUnits="userSpaceOnUse"
       gradientTransform="matrix(0.771702,0,0,0.7696371,58.469287,27.525353)"
       x1="9.7503004"
       y1="32.284"
       x2="16.915001"
       y2="39.443001" />
    <linearGradient
       id="m"
       y2="39.443001"
       gradientUnits="userSpaceOnUse"
       x2="16.915001"
       gradientTransform="matrix(0.87827,0,0,0.87827,56.157,5.6701)"
       y1="32.284"
       x1="9.7503004">
      <stop
         stop-color="#3465a4"
         offset="0"
         id="stop3148" />
      <stop
         stop-color="#9fbce1"
         offset="0"
         id="stop3150" />
      <stop
         stop-color="#6b95ca"
         offset="0"
         id="stop3152" />
      <stop
         stop-color="#3d6aa5"
         offset=".75"
         id="stop3154" />
      <stop
         stop-color="#386eb4"
         offset="1"
         id="stop3156" />
    </linearGradient>
    <linearGradient
       inkscape:collect="always"
       xlink:href="#n"
       id="linearGradient4454"
       gradientUnits="userSpaceOnUse"
       gradientTransform="matrix(0.88507569,-0.02310392,0.02316591,0.88270743,57.63983,23.24151)"
       x1="12.005"
       y1="35.688"
       x2="10.651"
       y2="33.195" />
    <linearGradient
       id="n"
       y2="33.195"
       gradientUnits="userSpaceOnUse"
       x2="10.651"
       gradientTransform="matrix(1.0073,-0.026365,0.026365,1.0073,55.213,0.7816)"
       y1="35.688"
       x1="12.005">
      <stop
         stop-color="#fff"
         offset="0"
         id="stop3159" />
      <stop
         stop-color="#fff"
         stop-opacity="0"
         offset="1"
         id="stop3161" />
    </linearGradient>
    <linearGradient
       inkscape:collect="always"
       xlink:href="#o"
       id="linearGradient4456"
       gradientUnits="userSpaceOnUse"
       gradientTransform="matrix(0.77155263,-0.0151812,0.01522193,0.76948813,58.140667,26.736849)"
       x1="14.018"
       y1="36.943001"
       x2="15.416"
       y2="38.268002" />
    <linearGradient
       id="o"
       y2="38.268002"
       gradientUnits="userSpaceOnUse"
       x2="15.416"
       gradientTransform="matrix(0.8781,-0.017324,0.017324,0.8781,55.783,4.7703)"
       y1="36.943001"
       x1="14.018">
      <stop
         offset="0"
         id="stop3164" />
      <stop
         stop-opacity="0"
         offset="1"
         id="stop3166" />
    </linearGradient>
    <linearGradient
       y2="38.268002"
       x2="15.416"
       y1="36.943001"
       x1="14.018"
       gradientTransform="matrix(0.77155263,-0.0151812,0.01522193,0.76948813,58.140667,26.736849)"
       gradientUnits="userSpaceOnUse"
       id="linearGradient3113"
       xlink:href="#o"
       inkscape:collect="always" />
    <radialGradient
       inkscape:collect="always"
       xlink:href="#linearGradient4477"
       id="radialGradient3982"
       gradientUnits="userSpaceOnUse"
       gradientTransform="matrix(1,0,0,0.237968,0,28.93278)"
       cx="24.130018"
       cy="37.967922"
       fx="24.130018"
       fy="37.967922"
       r="16.528622" />
    <linearGradient
       id="linearGradient4477"
       inkscape:collect="always">
      <stop
         id="stop4479"
         offset="0"
         style="stop-color:#000000;stop-opacity:1;" />
      <stop
         id="stop4481"
         offset="1"
         style="stop-color:#000000;stop-opacity:0;" />
    </linearGradient>
    <linearGradient
       inkscape:collect="always"
       xlink:href="#linearGradient2846"
       id="linearGradient3984"
       gradientUnits="userSpaceOnUse"
       x1="27.366341"
       y1="26.580296"
       x2="31.335964"
       y2="30.557772" />
    <linearGradient
       id="linearGradient2846">
      <stop
         style="stop-color:#8a8a8a;stop-opacity:1.0000000;"
         offset="0.0000000"
         id="stop2848" />
      <stop
         style="stop-color:#484848;stop-opacity:1.0000000;"
         offset="1.0000000"
         id="stop2850" />
    </linearGradient>
    <linearGradient
       inkscape:collect="always"
       xlink:href="#linearGradient4440"
       id="linearGradient3986"
       gradientUnits="userSpaceOnUse"
       gradientTransform="matrix(1.334593,0,0,1.291292,-6.973842,-7.460658)"
       x1="30.65625"
       y1="34"
       x2="33.21875"
       y2="31.0625" />
    <linearGradient
       id="linearGradient4440">
      <stop
         id="stop4442"
         offset="0"
         style="stop-color:#7d7d7d;stop-opacity:1;" />
      <stop
         style="stop-color:#b1b1b1;stop-opacity:1.0000000;"
         offset="0.50000000"
         id="stop4448" />
      <stop
         id="stop4444"
         offset="1.0000000"
         style="stop-color:#686868;stop-opacity:1.0000000;" />
    </linearGradient>
    <linearGradient
       inkscape:collect="always"
       xlink:href="#linearGradient2366"
       id="linearGradient3988"
       gradientUnits="userSpaceOnUse"
       x1="18.292673"
       y1="13.602121"
       x2="17.500893"
       y2="25.743469" />
    <linearGradient
       id="linearGradient2366">
      <stop
         style="stop-color:#ffffff;stop-opacity:1;"
         offset="0"
         id="stop2368" />
      <stop
         id="stop2374"
         offset="0.50000000"
         style="stop-color:#ffffff;stop-opacity:0.21904762;" />
      <stop
         style="stop-color:#ffffff;stop-opacity:1.0000000;"
         offset="1.0000000"
         id="stop2370" />
    </linearGradient>
    <radialGradient
       inkscape:collect="always"
       xlink:href="#linearGradient4454-7"
       id="radialGradient3990"
       gradientUnits="userSpaceOnUse"
       cx="18.240929"
       cy="21.817987"
       fx="18.240929"
       fy="21.817987"
       r="8.3085051" />
    <linearGradient
       id="linearGradient4454-7">
      <stop
         id="stop4456"
         offset="0.0000000"
         style="stop-color:#729fcf;stop-opacity:0.20784314;" />
      <stop
         id="stop4458"
         offset="1.0000000"
         style="stop-color:#729fcf;stop-opacity:0.67619050;" />
    </linearGradient>
    <radialGradient
       inkscape:collect="always"
       xlink:href="#linearGradient4467"
       id="radialGradient3992"
       gradientUnits="userSpaceOnUse"
       gradientTransform="matrix(2.592963,0,0,2.252104,-25.05975,-18.941)"
       cx="15.414371"
       cy="13.078408"
       fx="15.414371"
       fy="13.078408"
       r="6.65625" />
    <linearGradient
       id="linearGradient4467">
      <stop
         id="stop4469"
         offset="0"
         style="stop-color:#ffffff;stop-opacity:1;" />
      <stop
         id="stop4471"
         offset="1.0000000"
         style="stop-color:#ffffff;stop-opacity:0.24761905;" />
    </linearGradient>
    <radialGradient
       r="6.65625"
       fy="13.078408"
       fx="15.414371"
       cy="13.078408"
       cx="15.414371"
       gradientTransform="matrix(2.592963,0,0,2.252104,-25.05975,-18.941)"
       gradientUnits="userSpaceOnUse"
       id="radialGradient3150"
       xlink:href="#linearGradient4467"
       inkscape:collect="always" />
  </defs>
  <g
     id="g2983"
     transform="matrix(0.67065061,0,0,0.63959329,-0.72214704,-0.25711042)">
    <path
       style="opacity:0.62891002;fill:#ffffff;fill-rule:evenodd;stroke:#000000;stroke-width:1.49013674;stroke-linejoin:round"
       d="M 20.333126,12.035343 C 18.444903,8.7606248 7.1884028,4.4572113 2.002648,3.5893247 2.2763155,13.787163 2.2815758,19.371068 1.9989109,28.797982 8.7625485,29.718551 15.3015,32.559393 20.481394,35.368247 c 0,1.371479 -0.147987,-22.510084 -0.147987,-23.332904 z"
       id="path37"
       inkscape:connector-curvature="0" />
    <path
       style="opacity:0.62891002;fill:#ffffff;fill-rule:evenodd;stroke:#000000;stroke-width:1.49013674;stroke-linejoin:round"
       d="M 20.333126,11.970474 C 25.181266,7.2735751 31.736244,5.3619712 39.289996,3.2656597 38.720347,14.174674 39.085048,19.823107 39.145718,28.603715 c -6.837879,0.0801 -13.928975,3.438089 -18.664576,6.764191 0,-0.05087 -0.147988,-22.574613 -0.147988,-23.397432 z"
       id="path39"
       inkscape:connector-curvature="0" />
    <path
       style="opacity:0.62891002;fill:none;stroke:#000000;stroke-width:0.29802737"
       d="m 36.25809,7.3432246 c 0,0 -7.632679,1.948204 -13.700376,6.5238304"
       id="path49"
       inkscape:connector-curvature="0" />
    <path
       style="opacity:0.62891002;fill:none;stroke:#000000;stroke-width:0.45657057"
       d="m 35.804819,10.900809 c 0,0 -7.023496,1.140338 -13.24437,5.519376"
       id="path51"
       inkscape:connector-curvature="0" />
    <path
       style="opacity:0.62891002;fill:none;stroke:#000000;stroke-width:0.45657057"
       d="m 35.56254,14.052787 c 0,0 -6.549106,1.123473 -13.002872,5.151669"
       id="path53"
       inkscape:connector-curvature="0" />
    <path
       style="opacity:0.62891002;fill:none;stroke:#000000;stroke-width:0.45657057"
       d="m 35.566457,17.2611 c 0,0 -6.346312,0.591814 -13.006399,4.875119"
       id="path55"
       inkscape:connector-curvature="0" />
    <path
       style="opacity:0.62891002;fill:none;stroke:#000000;stroke-width:0.45657057"
       d="m 35.480491,19.937482 c -0.07397,0.01638 -5.754704,1.122073 -12.920433,5.032513"
       id="path57"
       inkscape:connector-curvature="0" />
    <path
       style="opacity:0.62891002;fill:none;stroke:#000000;stroke-width:0.45657057"
       d="m 35.800902,22.548312 c -0.07397,0.01638 -6.168897,1.212856 -13.241234,5.294723"
       id="path59"
       inkscape:connector-curvature="0" />
    <path
       style="opacity:0.62891002;fill:none;stroke:#000000;stroke-width:0.45657057"
       d="m 35.898595,25.338215 c 0,0 -6.670244,1.368338 -13.339709,5.367787"
       id="path61"
       inkscape:connector-curvature="0" />
    <path
       style="opacity:0.62891002;fill:#ffffff;fill-rule:evenodd;stroke:#000000;stroke-width:1.39885914;stroke-linejoin:round"
       d="M 20.385488,11.950671 C 24.65765,6.7675925 30.434622,4.1994401 37.091192,1.3458617 36.589184,12.311893 36.9106,17.923793 36.964002,26.698257 c -6.025886,0.765461 -12.274893,4.834149 -16.448193,8.634823 0,-0.05086 -0.130412,-22.559589 -0.130412,-23.38275 z"
       id="path63"
       inkscape:connector-curvature="0" />
    <path
       style="opacity:0.62891002;fill:none;stroke:#000000;stroke-width:0.45657057"
       d="m 34.421527,5.7269479 c 0,0 -6.726511,2.7132211 -12.07326,7.8970171"
       id="path65"
       inkscape:connector-curvature="0" />
    <path
       style="opacity:0.62891002;fill:none;stroke:#000000;stroke-width:0.45657057"
       d="m 33.808038,12.506501 c 0,0 -5.771109,1.779851 -11.458599,6.454864"
       id="path67"
       inkscape:connector-curvature="0" />
    <path
       style="opacity:0.62891002;fill:none;stroke:#000000;stroke-width:0.45657057"
       d="m 33.733798,18.399732 c -0.06521,0.0238 -5.071265,1.698866 -11.385922,6.327515"
       id="path69"
       inkscape:connector-curvature="0" />
    <path
       style="opacity:0.62891002;fill:none;stroke:#000000;stroke-width:0.45657057"
       d="m 34.105021,23.7583 c 0,0 -5.878183,2.03687 -11.755582,6.704783"
       id="path71"
       inkscape:connector-curvature="0" />
    <path
       style="opacity:0.62891002;fill:none;stroke:#000000;stroke-width:0.45657057"
       d="m 6.5280219,7.278355 c 0,0 6.7331581,1.948204 12.0853761,6.523831"
       id="path73"
       inkscape:connector-curvature="0" />
    <path
       style="opacity:0.62891002;fill:none;stroke:#000000;stroke-width:0.45657057"
       d="m 6.9301115,10.83628 c 0,0 6.1954755,1.140339 11.6828965,5.519377"
       id="path75"
       inkscape:connector-curvature="0" />
    <path
       style="opacity:0.62891002;fill:none;stroke:#000000;stroke-width:0.45657057"
       d="m 7.1434661,13.988259 c 0,0 5.7769719,1.123473 11.4699319,5.151669"
       id="path77"
       inkscape:connector-curvature="0" />
    <path
       style="opacity:0.62891002;fill:none;stroke:#000000;stroke-width:0.45657057"
       d="m 7.1399494,17.196572 c 0,0 5.5980056,0.591815 11.4730586,4.875118"
       id="path79"
       inkscape:connector-curvature="0" />
    <path
       style="opacity:0.62891002;fill:none;stroke:#000000;stroke-width:0.45657057"
       d="m 7.2161475,19.872953 c 0.06527,0.01638 5.0763425,1.122074 11.3972505,5.032514"
       id="path81"
       inkscape:connector-curvature="0" />
    <path
       style="opacity:0.62891002;fill:none;stroke:#000000;stroke-width:0.45657057"
       d="m 6.9328473,22.483442 c 0.06527,0.01638 5.4417017,1.212856 11.6805507,5.294723"
       id="path83"
       inkscape:connector-curvature="0" />
    <path
       style="opacity:0.62891002;fill:none;stroke:#000000;stroke-width:0.45657057"
       d="m 6.846099,25.273585 c 0,0 5.88365,1.368339 11.767299,5.367786"
       id="path85"
       inkscape:connector-curvature="0" />
    <path
       style="opacity:0.62891002;fill:#ffffff;fill-rule:evenodd;stroke:#000000;stroke-width:1.3138274;stroke-linejoin:round"
       d="M 20.53085,11.886143 C 16.762376,6.7030643 11.666495,4.134912 5.794568,1.2813335 6.2373751,12.247364 5.9538765,17.859266 5.9067195,26.633729 c 5.3154875,0.765427 10.8279155,4.834149 14.5092515,8.634824 0,-0.05087 0.115038,-22.55959 0.115038,-23.382751 z"
       id="path87"
       inkscape:connector-curvature="0" />
    <path
       style="opacity:0.62891002;fill:none;stroke:#000000;stroke-width:0.45657057"
       d="m 8.1500592,5.6624197 c 0,0 5.9332768,2.7132213 10.6501218,7.8970173"
       id="path89"
       inkscape:connector-curvature="0" />
    <path
       style="opacity:0.62891002;fill:none;stroke:#000000;stroke-width:0.45657057"
       d="m 8.6920411,12.441973 c 0,0 5.0908019,1.779851 10.1077489,6.454864"
       id="path91"
       inkscape:connector-curvature="0" />
    <path
       style="opacity:0.62891002;fill:none;stroke:#000000;stroke-width:0.45657057"
       d="m 8.7565163,18.335203 c 0.057513,0.0238 4.4734027,1.698866 10.0436647,6.327515"
       id="path93"
       inkscape:connector-curvature="0" />
    <path
       style="opacity:0.62891002;fill:none;stroke:#000000;stroke-width:0.45657057"
       d="m 8.4302331,23.693771 c 0,0 5.1849739,2.036871 10.3699479,6.704783"
       id="path95"
       inkscape:connector-curvature="0" />
  </g>
  <rect
     style="fill:#ffffff;fill-opacity:1;stroke:none"
     id="rect3143"
     width="16.179562"
     height="16.323381"
     x="-23.226662"
     y="-1.469301" />
  <g
     style="display:inline"
     id="g1772"
     transform="matrix(0.47421262,0,0,0.43984019,1.381022,6.0656175)">
    <path
       sodipodi:type="arc"
       style="opacity:0.17112301;color:#000000;fill:url(#radialGradient3982);fill-opacity:1;fill-rule:evenodd;stroke:none;stroke-width:1;marker:none;visibility:visible;display:inline;overflow:visible"
       id="path4475"
       sodipodi:cx="24.130018"
       sodipodi:cy="37.967922"
       sodipodi:rx="16.528622"
       sodipodi:ry="3.9332814"
       d="m 40.65864,37.967922 c 0,2.172292 -7.400116,3.933282 -16.528622,3.933282 -9.128505,0 -16.5286214,-1.76099 -16.5286214,-3.933282 0,-2.172291 7.4001164,-3.933281 16.5286214,-3.933281 9.128506,0 16.528622,1.76099 16.528622,3.933281 z"
       transform="matrix(1.446431,0,0,1.51999,-10.97453,-17.75168)" />
    <path
       inkscape:connector-curvature="0"
       sodipodi:nodetypes="csscccscccscczzzz"
       id="path2844"
       d="m 18.627569,3.1435548 c -8.13913,0 -14.7448008,6.6056711 -14.7448008,14.7448012 0,8.13913 6.6056708,14.744802 14.7448008,14.744802 3.479555,0 6.551001,-1.384393 9.073723,-3.402647 -0.205377,1.006881 -0.07803,2.035368 0.756144,2.759925 l 10.964084,9.52741 c 1.233416,1.071329 3.087462,0.93096 4.15879,-0.302457 1.071328,-1.233418 0.930959,-3.087462 -0.302457,-4.15879 L 32.313769,27.529188 c -0.671527,-0.583279 -1.492878,-0.755969 -2.306238,-0.642722 1.9867,-2.512422 3.364839,-5.548803 3.364839,-8.99811 0,-8.1391301 -6.605671,-14.7448012 -14.744801,-14.7448012 z m -0.07562,1.2261833 c 7.639459,0 13.291775,4.7889505 13.291775,13.2917749 0,8.675113 -5.81669,13.291775 -13.291775,13.291775 -7.302949,0 -13.2917734,-5.478092 -13.2917734,-13.291775 0,-7.9841069 5.8246384,-13.291775 13.2917734,-13.2917749 z"
       style="color:#000000;fill:#dcdcdc;fill-opacity:1;fill-rule:evenodd;stroke:url(#linearGradient3984);stroke-width:2.79820228;stroke-linecap:round;stroke-linejoin:miter;stroke-miterlimit:10;stroke-opacity:1;stroke-dasharray:none;stroke-dashoffset:0;marker:none;visibility:visible;display:inline;overflow:visible" />
    <path
       inkscape:connector-curvature="0"
       style="color:#000000;fill:#dcdcdc;fill-opacity:1;fill-rule:evenodd;stroke:none;stroke-width:1.00000036;marker:none;visibility:visible;display:inline;overflow:visible"
       d="m 18.602905,3.0803551 c -8.16544,0 -14.7924642,6.627024 -14.7924642,14.7924639 0,8.16544 6.6270242,14.792464 14.7924642,14.792464 3.490803,0 6.572177,-1.388867 9.103055,-3.413645 -0.206041,1.010136 -0.07829,2.041947 0.758587,2.768846 l 10.999526,9.558207 c 1.237403,1.074792 3.097442,0.93397 4.172233,-0.303435 1.074791,-1.237404 0.933968,-3.097442 -0.303435,-4.172233 L 32.333346,27.544815 c -0.673698,-0.585164 -1.497704,-0.758413 -2.313693,-0.644799 1.993122,-2.520544 3.375716,-5.56674 3.375716,-9.027197 0,-8.1654399 -6.627024,-14.7924639 -14.792464,-14.7924639 z m -0.07586,3.1860692 c 6.281108,2e-7 11.378818,5.0977107 11.378818,11.3788187 0,6.281108 -5.09771,11.378818 -11.378818,11.378818 -6.281108,0 -11.3788184,-5.09771 -11.3788184,-11.378818 2e-7,-6.281108 5.0977104,-11.3788187 11.3788184,-11.3788187 z"
       id="path4430" />
    <path
       inkscape:connector-curvature="0"
       style="color:#000000;fill:url(#linearGradient3986);fill-opacity:1;fill-rule:evenodd;stroke:none;stroke-width:1;marker:none;visibility:visible;display:inline;overflow:visible"
       d="m 39.507004,41.57769 c -0.478672,-2.273187 1.39733,-4.811422 3.584053,-4.788375 0,0 -10.760367,-9.258111 -10.760367,-9.258111 -2.944791,-0.05671 -4.269502,2.272616 -3.776814,4.599922 l 10.953128,9.446564 z"
       id="path4438"
       sodipodi:nodetypes="ccccc" />
    <path
       sodipodi:type="arc"
       style="color:#000000;fill:none;stroke:url(#linearGradient3988);stroke-width:1.12310493;stroke-linecap:round;stroke-linejoin:miter;stroke-miterlimit:10;stroke-opacity:1;stroke-dasharray:none;stroke-dashoffset:0;marker:none;visibility:visible;display:inline;overflow:visible"
       id="path4450"
       sodipodi:cx="17.500893"
       sodipodi:cy="18.920233"
       sodipodi:rx="11.048544"
       sodipodi:ry="11.048544"
       d="m 28.549437,18.920233 c 0,6.101942 -4.946602,11.048544 -11.048544,11.048544 -6.101943,0 -11.0485443,-4.946602 -11.0485443,-11.048544 0,-6.101943 4.9466013,-11.0485442 11.0485443,-11.0485442 6.101942,0 11.048544,4.9466012 11.048544,11.0485442 z"
       transform="matrix(1.245743,0,0,1.245743,-3.425346,-6.177033)" />
    <rect
       style="opacity:0.43315507;color:#000000;fill:none;stroke:#ffffff;stroke-width:1.39914393;stroke-linecap:round;stroke-linejoin:miter;stroke-miterlimit:10;stroke-opacity:1;stroke-dasharray:none;stroke-dashoffset:0;marker:none;visibility:visible;display:inline;overflow:visible"
       id="rect4495"
       width="19.048439"
       height="4.4404783"
       x="40.373337"
       y="0.14086054"
       rx="3.2112026"
       ry="2.837393"
       transform="matrix(0.752986,0.658037,-0.648902,0.760872,0,0)" />
    <path
       sodipodi:type="arc"
       style="color:#000000;fill:url(#radialGradient3990);fill-opacity:1;fill-rule:evenodd;stroke:#3063a3;stroke-width:1.00034833;stroke-linecap:round;stroke-linejoin:miter;stroke-miterlimit:10;stroke-opacity:1;stroke-dashoffset:0;marker:none;visibility:visible"
       id="path4452"
       sodipodi:cx="17.589281"
       sodipodi:cy="18.478292"
       sodipodi:rx="8.3085051"
       sodipodi:ry="8.3085051"
       d="m 25.897786,18.478292 c 0,4.588661 -3.719844,8.308506 -8.308505,8.308506 -4.588661,0 -8.308505,-3.719845 -8.308505,-8.308506 0,-4.58866 3.719844,-8.308505 8.308505,-8.308505 4.588661,0 8.308505,3.719845 8.308505,8.308505 z"
       transform="matrix(1.398614,0,0,1.398614,-6.224338,-8.298958)" />
    <path
       inkscape:connector-curvature="0"
       style="opacity:0.83422457;color:#000000;fill:url(#radialGradient3150);fill-opacity:1;fill-rule:evenodd;stroke:none;stroke-width:1;marker:none;visibility:visible;display:inline;overflow:visible"
       d="m 18.156915,7.3966938 c -5.20759,0 -9.4245469,4.2169572 -9.4245469,9.4245472 0,1.503975 0.4203072,2.887773 1.0471719,4.149903 1.25238,0.461613 2.582757,0.775683 3.994767,0.775683 6.170955,0 11.099282,-4.861637 11.480106,-10.937129 C 23.523449,8.7641668 21.044374,7.3966938 18.156915,7.3966938 z"
       id="path4462" />
  </g>
</svg>
