<?xml version="1.0" encoding="UTF-8" standalone="no"?>
<!-- Created with Inkscape (http://www.inkscape.org/) -->

<svg
   xmlns:dc="http://purl.org/dc/elements/1.1/"
   xmlns:cc="http://creativecommons.org/ns#"
   xmlns:rdf="http://www.w3.org/1999/02/22-rdf-syntax-ns#"
   xmlns:svg="http://www.w3.org/2000/svg"
   xmlns="http://www.w3.org/2000/svg"
   xmlns:xlink="http://www.w3.org/1999/xlink"
   xmlns:sodipodi="http://sodipodi.sourceforge.net/DTD/sodipodi-0.dtd"
   xmlns:inkscape="http://www.inkscape.org/namespaces/inkscape"
   version="1.0"
   width="26"
   height="26"
   id="svg2"
   inkscape:version="0.91 r13725"
   sodipodi:docname="library_table.svg">
  <metadata
     id="metadata166">
    <rdf:RDF>
      <cc:Work
         rdf:about="">
        <dc:format>image/svg+xml</dc:format>
        <dc:type
           rdf:resource="http://purl.org/dc/dcmitype/StillImage" />
        <dc:title />
      </cc:Work>
    </rdf:RDF>
  </metadata>
  <sodipodi:namedview
     pagecolor="#ffffff"
     bordercolor="#666666"
     borderopacity="1"
     objecttolerance="10"
     gridtolerance="10"
     guidetolerance="10"
     inkscape:pageopacity="0"
     inkscape:pageshadow="2"
     inkscape:window-width="1366"
     inkscape:window-height="717"
     id="namedview164"
     showgrid="true"
     inkscape:zoom="9.8333331"
     inkscape:cx="-6.2708642"
     inkscape:cy="5.0026912"
     inkscape:window-x="0"
     inkscape:window-y="1080"
     inkscape:window-maximized="1"
     inkscape:current-layer="svg2"
     inkscape:snap-to-guides="false"
     inkscape:snap-grids="false">
    <inkscape:grid
       type="xygrid"
       id="grid3041"
       empspacing="1"
       visible="true"
       enabled="true"
       snapvisiblegridlinesonly="true" />
  </sodipodi:namedview>
  <defs
     id="defs4">
    <linearGradient
       id="linearGradient4067"
       y2="39.685001"
       gradientUnits="userSpaceOnUse"
       x2="34.534"
       gradientTransform="matrix(1.2419,0,0,1.2419,36.866,-2.4533)"
       y1="12.285"
       x1="14.463">
      <stop
         stop-color="#c9c9c9"
         offset="0"
         id="stop4069" />
      <stop
         stop-color="#f8f8f8"
         offset="0.44999999"
         id="stop4071" />
      <stop
         stop-color="#e2e2e2"
         offset="0.66666645"
         id="stop4073" />
      <stop
         stop-color="#b0b0b0"
         offset="0.95000005"
         id="stop4075" />
      <stop
         stop-color="#c9c9c9"
         offset="1"
         id="stop4077" />
    </linearGradient>
    <linearGradient
       inkscape:collect="always"
       xlink:href="#linearGradient4067"
       id="linearGradient4065-6"
       gradientUnits="userSpaceOnUse"
       gradientTransform="matrix(0.41988577,0,0,0.39843198,7.8117183,8.6700884)"
       x1="8.6861582"
       y1="9.6206512"
       x2="37.265358"
       y2="35.973965" />
    <linearGradient
       y2="35.973965"
       x2="37.265358"
       y1="9.6206512"
       x1="8.6861582"
       gradientTransform="matrix(0.44317725,0,0,0.4205334,7.1871633,8.053144)"
       gradientUnits="userSpaceOnUse"
       id="linearGradient3178"
       xlink:href="#linearGradient4067"
       inkscape:collect="always" />
  </defs>
  <rect
     style="opacity:1;fill:#ffd42a;fill-opacity:1;fill-rule:nonzero;stroke:#d4aa00;stroke-width:1.03579581;stroke-linecap:square;stroke-linejoin:miter;stroke-miterlimit:4;stroke-dasharray:none;stroke-opacity:1"
     id="rect4298"
     width="6.0397334"
     height="24.979227"
     x="19.546684"
     y="0.57575929" />
  <rect
     style="opacity:1;fill:#ffffff;fill-opacity:1;fill-rule:nonzero;stroke:none;stroke-width:1;stroke-linecap:square;stroke-linejoin:miter;stroke-miterlimit:4;stroke-dasharray:none;stroke-opacity:1"
     id="rect4300"
     width="0.93513572"
     height="10.755731"
     x="22.104216"
     y="3.2860446" />
  <rect
     style="opacity:1;fill:#5599ff;fill-opacity:1;fill-rule:nonzero;stroke:#0044aa;stroke-width:1.04181492;stroke-linecap:square;stroke-linejoin:miter;stroke-miterlimit:4;stroke-dasharray:none;stroke-opacity:1"
     id="rect4298-3"
     width="5.9002724"
     height="21.007425"
     x="11.58192"
     y="4.5346904" />
  <rect
     style="opacity:1;fill:#ffffff;fill-opacity:1;fill-rule:nonzero;stroke:none;stroke-width:1;stroke-linecap:square;stroke-linejoin:miter;stroke-miterlimit:4;stroke-dasharray:none;stroke-opacity:1"
     id="rect4300-56"
     width="0.920017"
     height="8.2753372"
     x="14.077197"
     y="8.429553" />
  <circle
     style="opacity:1;fill:#ffffff;fill-opacity:1;fill-rule:nonzero;stroke:none;stroke-width:2.0999999;stroke-linecap:square;stroke-linejoin:miter;stroke-miterlimit:4;stroke-dasharray:none;stroke-opacity:1"
     id="path4208"
     cx="22.558912"
     cy="21.779465"
     r="1.4022287" />
  <rect
     style="opacity:1;fill:#24b024;fill-opacity:1;fill-rule:nonzero;stroke:#447821;stroke-width:1.01576376;stroke-linecap:square;stroke-linejoin:miter;stroke-miterlimit:4;stroke-dasharray:none;stroke-opacity:1"
     id="rect4298-7"
     width="6.138113"
     height="23.63736"
     x="4.9439764"
     y="-0.12749399"
     transform="matrix(0.98219163,0.18788188,-0.18445897,0.98284022,0,0)" />
  <rect
     style="opacity:1;fill:#ffffff;fill-opacity:1;fill-rule:nonzero;stroke:none;stroke-width:1;stroke-linecap:square;stroke-linejoin:miter;stroke-miterlimit:4;stroke-dasharray:none;stroke-opacity:1"
     id="rect4300-5"
     width="0.95037615"
     height="10.178031"
     x="7.5431929"
     y="2.437001"
     transform="matrix(0.98219163,0.18788188,-0.18445897,0.98284022,0,0)" />
  <ellipse
     style="opacity:1;fill:#ffffff;fill-opacity:1;fill-rule:nonzero;stroke:none;stroke-width:2.0999999;stroke-linecap:square;stroke-linejoin:miter;stroke-miterlimit:4;stroke-dasharray:none;stroke-opacity:1"
     id="path4208-3"
     cx="3.1268864"
     cy="20.875254"
     transform="matrix(0.99865271,-0.05189193,0.0500435,0.99874704,0,0)"
     rx="1.455725"
     ry="1.4720935" />
  <circle
     style="opacity:1;fill:#ffffff;fill-opacity:1;fill-rule:nonzero;stroke:none;stroke-width:2.0999999;stroke-linecap:square;stroke-linejoin:miter;stroke-miterlimit:4;stroke-dasharray:none;stroke-opacity:1"
     id="path4208-6"
     cx="14.541045"
     cy="21.887325"
     r="1.4022287" />
  <g
     id="g4323"
     transform="translate(0.61016952,0.5084746)">
    <path
       sodipodi:nodetypes="ccccccccccccsccccccccsccccccccsccccccccscccccsssscc"
       inkscape:connector-curvature="0"
       id="path4079"
       d="m 16.163478,9.0773048 c -0.180194,0.01172 -0.355335,0.03818 -0.532326,0.0574 l -0.01216,0 -0.423461,2.1927272 c -0.690163,0.149147 -1.339483,0.402267 -1.923649,0.746194 l -1.224661,-0.836317 -0.67462,-0.460698 c -0.513744,0.378239 -0.980642,0.819445 -1.3914017,1.297386 l 1.3186927,1.825329 c -0.400388,0.580621 -0.701509,1.243603 -0.871079,1.940128 -2.9e-5,0.0032 -2.4e-5,0.01099 0,0.01145 l -2.2986767,0.344407 c -0.04202,0.325716 -0.06048,0.662322 -0.06048,0.998792 0,0.275265 0.008,0.546859 0.0363,0.815109 l 2.2986747,0.390322 c 0.163484,0.757472 0.474059,1.464871 0.907393,2.089392 l -1.3670887,1.779443 c 0.3915197,0.461226 0.8435517,0.881161 1.3308137,1.251319 l 1.93573,-1.262818 c 0.6765,0.409502 1.431706,0.69667 2.250287,0.838034 l 0.36295,2.169733 c 0.257909,0.02228 0.522376,0.02296 0.786371,0.02296 0.372697,0 0.728689,-0.01334 1.088849,-0.0574 l 0.435542,-2.215654 c 0.777233,-0.183536 1.507352,-0.501932 2.141381,-0.929875 l 1.86314,1.285778 c 0.48316,-0.390069 0.92501,-0.838438 1.30662,-1.320238 l -1.355012,-1.859785 c 0.366957,-0.601377 0.621214,-1.264876 0.750096,-1.974588 l 2.286485,-0.344221 c 0.02004,-0.226359 0.02419,-0.445952 0.02419,-0.677282 0,-0.401971 -0.04924,-0.796118 -0.108873,-1.182475 l -2.322872,-0.401828 c -0.182034,-0.637822 -0.480721,-1.232917 -0.859001,-1.767948 l 1.367091,-1.779409 C 22.805172,11.571476 22.322014,11.117045 21.7893,10.731458 l -1.972045,1.285778 c -0.566781,-0.318081 -1.17673,-0.562144 -1.838944,-0.700273 L 17.61555,9.1358088 c -0.330624,-0.03688 -0.663573,-0.05742 -1.00426,-0.05742 -0.0921,0 -0.186869,-0.0029 -0.278262,0 -0.04455,0.0014 -0.08864,-0.0025 -0.133085,0 -0.01201,6.52e-4 -0.02429,-7.46e-4 -0.0363,0 z m 0.314556,5.5791742 c 0.0442,-0.0021 0.08833,0 0.133086,0 1.432093,0 2.601158,1.109295 2.601158,2.468253 0,1.358919 -1.169026,2.456755 -2.601158,2.456755 -1.432092,0 -2.589041,-1.097836 -2.589041,-2.456755 2e-6,-1.316452 1.085791,-2.402274 2.455978,-2.468253 z"
       style="color:#000000;fill:url(#linearGradient3178);fill-opacity:1;stroke:#f2f2f2;stroke-width:1.89984787;stroke-miterlimit:4;stroke-dasharray:none;stroke-opacity:1" />
    <path
       style="color:#000000;fill:url(#linearGradient4065-6);fill-opacity:1;stroke:#333333;stroke-width:1;stroke-miterlimit:4;stroke-dasharray:none;stroke-opacity:1"
       d="m 16.31628,9.6404238 c -0.170724,0.0111 -0.33666,0.03617 -0.504349,0.05438 l -0.01152,0 -0.401204,2.0774902 c -0.653893,0.141308 -1.269088,0.381125 -1.822552,0.706976 l -1.799463,-1.228849 c -0.486744,0.35836 -0.929104,0.776379 -1.318278,1.229201 l 1.24939,1.729398 c -0.379345,0.550106 -0.664641,1.178245 -0.825299,1.838164 -2.7e-5,0.003 -2.3e-5,0.01041 0,0.01085 L 8.7051333,16.38434 c -0.03981,0.308598 -0.0573,0.627513 -0.0573,0.9463 0,0.260798 0.0076,0.518118 0.03439,0.772269 l 2.1778697,0.36981 c 0.154892,0.717662 0.449145,1.387883 0.859704,1.979582 l -1.295242,1.685923 c 0.370945,0.436986 0.79922,0.834851 1.260874,1.185555 l 1.833996,-1.196449 c 0.640946,0.38798 1.356462,0.660056 2.132022,0.79399 l 0.343875,2.055701 c 0.244354,0.02111 0.494922,0.02175 0.745042,0.02175 0.35311,0 0.690393,-0.01264 1.031624,-0.05438 l 0.412652,-2.099208 c 0.736385,-0.17389 1.428132,-0.475553 2.028839,-0.881005 l 1.765222,1.218203 c 0.457767,-0.369569 0.876395,-0.794373 1.237949,-1.250852 l -1.283798,-1.762043 c 0.347671,-0.569771 0.588566,-1.198399 0.710674,-1.870812 l 2.166317,-0.32613 c 0.01899,-0.214464 0.02292,-0.422516 0.02292,-0.641688 0,-0.380845 -0.04665,-0.754277 -0.103151,-1.120329 l -2.200793,-0.380708 c -0.172467,-0.604301 -0.455456,-1.16812 -0.813856,-1.675032 l 1.295243,-1.685891 C 22.608915,12.003515 22.15115,11.572967 21.646433,11.207645 l -1.868403,1.218203 c -0.536993,-0.301364 -1.114886,-0.5326 -1.742297,-0.66347 L 17.692037,9.6958528 c -0.313248,-0.03494 -0.628698,-0.0544 -0.95148,-0.0544 -0.08726,0 -0.177048,-0.0027 -0.263638,0 -0.04221,0.0013 -0.08398,-0.0024 -0.126091,0 -0.01138,6.18e-4 -0.02301,-7.06e-4 -0.03439,0 z m 0.298024,5.2859602 c 0.04188,-0.002 0.08369,0 0.126092,0 1.356828,0 2.464452,1.050995 2.464452,2.338532 0,1.2875 -1.107587,2.327638 -2.464452,2.327638 -1.356828,0 -2.452972,-1.040138 -2.452972,-2.327638 1e-6,-1.247265 1.028726,-2.276021 2.326902,-2.338532 z"
       id="path215"
       inkscape:connector-curvature="0" />
  </g>
</svg>
