<svg id="Слой_1" data-name="Слой 1"
  xmlns:cc="http://creativecommons.org/ns#"
  xmlns:rdf="http://www.w3.org/1999/02/22-rdf-syntax-ns#"
  xmlns="http://www.w3.org/2000/svg" viewBox="0 0 26 26">
  <metadata id="metadata43">
    <rdf:RDF>
      <cc:Work rdf:about="">
        <cc:license rdf:resource="http://creativecommons.org/licenses/by/4.0/" />
      </cc:Work>
      <cc:License rdf:about="http://creativecommons.org/licenses/by/4.0/">
        <cc:permits rdf:resource="http://creativecommons.org/ns#Reproduction" />
        <cc:permits rdf:resource="http://creativecommons.org/ns#Distribution" />
        <cc:requires rdf:resource="http://creativecommons.org/ns#Notice" />
        <cc:requires rdf:resource="http://creativecommons.org/ns#Attribution" />
        <cc:permits rdf:resource="http://creativecommons.org/ns#DerivativeWorks" />
      </cc:License>
    </rdf:RDF>
  </metadata>
  <defs>
    <style>.cls-1{fill:#b9b9b9;}.cls-2{fill:#545454;}.cls-3{fill:none;stroke:#b9b9b9;stroke-linecap:round;stroke-linejoin:round;stroke-width:0.75px;}.cls-4{fill:#1a81c4;}</style>
  </defs>
  <title>library</title>
  <path class="cls-1" d="M5.0009,1h16a4,4,0,0,1,4,4v16a4,4,0,0,1-4,4H5.001a4,4,0,0,1-4-4v-16A4,4,0,0,1,5.0009,1Z"/>
  <rect class="cls-2" x="2.7319" y="4.8795" width="5.2929" height="15.8787"/>
  <line class="cls-3" x1="4.0433" y1="10.2972" x2="6.7211" y2="10.2972"/>
  <line class="cls-3" x1="4.0433" y1="18.649" x2="6.7211" y2="18.649"/>
  <line class="cls-3" x1="4.0433" y1="8.5897" x2="6.7211" y2="8.5897"/>
  <line class="cls-3" x1="4.0433" y1="6.8821" x2="6.7211" y2="6.8821"/>
  <rect class="cls-2" x="8.7147" y="4.8795" width="5.2929" height="15.8787"/>
  <line class="cls-3" x1="10.0261" y1="10.2972" x2="12.704" y2="10.2972"/>
  <line class="cls-3" x1="10.0261" y1="18.649" x2="12.704" y2="18.649"/>
  <line class="cls-3" x1="10.0261" y1="8.5897" x2="12.704" y2="8.5897"/>
  <line class="cls-3" x1="10.0261" y1="6.8821" x2="12.704" y2="6.8821"/>
  <rect class="cls-4" x="16.4576" y="4.3615" width="5.2929" height="15.8786" transform="translate(-2.6656 5.7927) rotate(-16.1326)"/>
  <line class="cls-3" x1="17.1208" y1="10.2494" x2="19.6933" y2="9.5053"/>
  <line class="cls-3" x1="19.4415" y1="18.2722" x2="22.014" y2="17.5281"/>
  <line class="cls-3" x1="16.6464" y1="8.6091" x2="19.2187" y2="7.865"/>
  <line class="cls-3" x1="16.1719" y1="6.9688" x2="18.7442" y2="6.2247"/>
</svg>