<svg id="Слой_1" data-name="Слой 1"
  xmlns:dc="http://purl.org/dc/elements/1.1/"
  xmlns:cc="http://creativecommons.org/ns#"
  xmlns:rdf="http://www.w3.org/1999/02/22-rdf-syntax-ns#"
  xmlns="http://www.w3.org/2000/svg"
  xmlns:sodipodi="http://sodipodi.sourceforge.net/DTD/sodipodi-0.dtd"
  xmlns:inkscape="http://www.inkscape.org/namespaces/inkscape" viewBox="0 0 26 26">
  <sodipodi:namedview pagecolor="#ffffff" bordercolor="#666666" borderopacity="1" objecttolerance="10" gridtolerance="10" guidetolerance="10" inkscape:pageopacity="0" inkscape:pageshadow="2" inkscape:window-width="1609" inkscape:window-height="1286" id="namedview30" showgrid="true" inkscape:zoom="27.961538" inkscape:cx="13" inkscape:cy="13" inkscape:window-x="0" inkscape:window-y="37" inkscape:window-maximized="0">
    <inkscape:grid type="xygrid" id="grid_kicad" spacingx="0.5" spacingy="0.5" color="#9999ff" opacity="0.13" empspacing="2" />
  </sodipodi:namedview>
  <metadata id="metadata43">
    <rdf:RDF>
      <cc:Work rdf:about="">
        <cc:license rdf:resource="http://creativecommons.org/licenses/by-sa/4.0/" />
        <dc:format>image/svg+xml</dc:format>
        <dc:type rdf:resource="http://purl.org/dc/dcmitype/StillImage" />
        <dc:title>add_arc</dc:title>
      </cc:Work>
      <cc:License rdf:about="http://creativecommons.org/licenses/by-sa/4.0/">
        <cc:permits rdf:resource="http://creativecommons.org/ns#Reproduction" />
        <cc:permits rdf:resource="http://creativecommons.org/ns#Distribution" />
        <cc:requires rdf:resource="http://creativecommons.org/ns#Notice" />
        <cc:requires rdf:resource="http://creativecommons.org/ns#Attribution" />
        <cc:permits rdf:resource="http://creativecommons.org/ns#DerivativeWorks" />
        <cc:requires rdf:resource="http://creativecommons.org/ns#ShareAlike" />
      </cc:License>
    </rdf:RDF>
  </metadata>
  <defs>
    <style>.cls-1{fill:#b9b9b9;}.cls-2{fill:none;stroke:#545454;stroke-linecap:round;stroke-miterlimit:10;stroke-width:2px;}.cls-3{fill:#e61c50;}.cls-4{fill:#fff;}</style>
  </defs>
  <title>list_nets</title>
  <path class="cls-1" d="M4.4939,1H18.4755a3.4978,3.4978,0,0,1,3.4978,3.4978V18.4991a3.4978,3.4978,0,0,1-3.4978,3.4978H4.4938A3.4978,3.4978,0,0,1,.996,18.4991V4.4979A3.4979,3.4979,0,0,1,4.4939,1Z"/>
  <line class="cls-2" x1="8.4452" y1="5.5" x2="17.6538" y2="5.5"/>
  <line class="cls-2" x1="8.4452" y1="9.653" x2="17.6538" y2="9.653"/>
  <line class="cls-2" x1="8.4452" y1="13.806" x2="17.6538" y2="13.806"/>
  <line class="cls-2" x1="8.4452" y1="17.959" x2="17.6538" y2="17.959"/>
  <line class="cls-2" x1="5.6875" y1="5.5" x2="5.7352" y2="5.5"/>
  <line class="cls-2" x1="5.6875" y1="9.653" x2="5.7352" y2="9.653"/>
  <line class="cls-2" x1="5.6875" y1="13.806" x2="5.7352" y2="13.806"/>
  <line class="cls-2" x1="5.6875" y1="17.959" x2="5.7352" y2="17.959"/>
  <path class="cls-3" d="M25.0065,18A7.0065,7.0065,0,1,1,18,11,7.0032,7.0032,0,0,1,25.0065,18Z"/>
  <path class="cls-4" d="M19.1812,22.12c-.495-.0342-.6439-.2322-.62-.7329a1.8728,1.8728,0,0,1,.059-.3966c.2283-.8479.4846-1.6887.6905-2.5418.4377-1.8138-.7687-2.3591-1.9426-2.0709-.3443.0845-.6851.1771-1.0309.2829-.37.1129-.6326.2629-.594.73a.9721.9721,0,0,0,.134-.0158c1.2077-.3226,1.55-.0031,1.2495,1.1973-.21.8372-.4823,1.6591-.6782,2.4992a1.4729,1.4729,0,0,0,1.6874,1.965,7.1579,7.1579,0,0,0,1.5124-.3626.523.523,0,0,0,.4356-.6244A5.9829,5.9829,0,0,1,19.1812,22.12Z"/>
  <path class="cls-4" d="M18.9864,15.2819a1.2053,1.2053,0,0,0,1.2742-1.1561,1.2256,1.2256,0,0,0-1.271-1.17,1.2448,1.2448,0,0,0-1.3062,1.1876A1.2358,1.2358,0,0,0,18.9864,15.2819Z"/>
</svg>