<?xml version="1.0" encoding="UTF-8" standalone="no"?>
<svg
   xmlns:dc="http://purl.org/dc/elements/1.1/"
   xmlns:cc="http://creativecommons.org/ns#"
   xmlns:rdf="http://www.w3.org/1999/02/22-rdf-syntax-ns#"
   xmlns:svg="http://www.w3.org/2000/svg"
   xmlns="http://www.w3.org/2000/svg"
   xmlns:xlink="http://www.w3.org/1999/xlink"
   xmlns:sodipodi="http://sodipodi.sourceforge.net/DTD/sodipodi-0.dtd"
   xmlns:inkscape="http://www.inkscape.org/namespaces/inkscape"
   height="48"
   width="48"
   version="1.1"
   id="svg2"
   inkscape:version="0.48.2 r9819"
   sodipodi:docname="load_module_board.svg">
  <metadata
     id="metadata1051">
    <rdf:RDF>
      <cc:Work
         rdf:about="">
        <dc:format>image/svg+xml</dc:format>
        <dc:type
           rdf:resource="http://purl.org/dc/dcmitype/StillImage" />
      </cc:Work>
    </rdf:RDF>
  </metadata>
  <sodipodi:namedview
     pagecolor="#ffffff"
     bordercolor="#666666"
     borderopacity="1"
     objecttolerance="10"
     gridtolerance="10"
     guidetolerance="10"
     inkscape:pageopacity="0"
     inkscape:pageshadow="2"
     inkscape:window-width="1070"
     inkscape:window-height="797"
     id="namedview1049"
     showgrid="false"
     showguides="true"
     inkscape:guide-bbox="true"
     inkscape:zoom="8.75"
     inkscape:cx="43.434545"
     inkscape:cy="24"
     inkscape:window-x="0"
     inkscape:window-y="0"
     inkscape:window-maximized="0"
     inkscape:current-layer="svg2" />
  <defs
     id="defs4">
    <linearGradient
       id="a"
       y2="309.64"
       gradientUnits="userSpaceOnUse"
       x2="48.17"
       gradientTransform="matrix(1.0667,0,0,1.0667,-3.73,-24.546)"
       y1="334.04"
       x1="72.828">
      <stop
         stop-color="#bfbfff"
         offset="0"
         id="stop7" />
      <stop
         stop-color="#fff"
         offset="1"
         id="stop9" />
    </linearGradient>
    <linearGradient
       inkscape:collect="always"
       xlink:href="#a"
       id="linearGradient4544"
       gradientUnits="userSpaceOnUse"
       gradientTransform="matrix(1.0667,0,0,1.0667,-3.73,-24.546)"
       x1="72.828"
       y1="334.04"
       x2="48.17"
       y2="309.64" />
    <linearGradient
       inkscape:collect="always"
       xlink:href="#a"
       id="linearGradient5546"
       gradientUnits="userSpaceOnUse"
       gradientTransform="matrix(1.0667,0,0,1.0667,-3.73,-24.546)"
       x1="72.828"
       y1="334.04"
       x2="48.17"
       y2="309.64" />
    <linearGradient
       inkscape:collect="always"
       xlink:href="#a"
       id="linearGradient5808"
       gradientUnits="userSpaceOnUse"
       gradientTransform="matrix(1.0667,0,0,1.0667,-3.73,-24.546)"
       x1="72.828"
       y1="334.04"
       x2="48.17"
       y2="309.64" />
    <linearGradient
       inkscape:collect="always"
       xlink:href="#a"
       id="linearGradient6064"
       gradientUnits="userSpaceOnUse"
       gradientTransform="matrix(1.0667,0,0,1.0667,-3.73,-24.546)"
       x1="72.828"
       y1="334.04"
       x2="48.17"
       y2="309.64" />
    <linearGradient
       inkscape:collect="always"
       xlink:href="#a"
       id="linearGradient6317"
       gradientUnits="userSpaceOnUse"
       gradientTransform="matrix(1.0667,0,0,1.0667,-3.73,-24.546)"
       x1="72.828"
       y1="334.04"
       x2="48.17"
       y2="309.64" />
    <linearGradient
       inkscape:collect="always"
       xlink:href="#a"
       id="linearGradient6542"
       gradientUnits="userSpaceOnUse"
       gradientTransform="matrix(1.0667,0,0,1.0667,-3.73,-24.546)"
       x1="72.828"
       y1="334.04"
       x2="48.17"
       y2="309.64" />
    <linearGradient
       inkscape:collect="always"
       xlink:href="#a"
       id="linearGradient6886"
       gradientUnits="userSpaceOnUse"
       gradientTransform="matrix(1.0667,0,0,1.0667,-3.73,-24.546)"
       x1="72.828"
       y1="334.04"
       x2="48.17"
       y2="309.64" />
    <linearGradient
       inkscape:collect="always"
       xlink:href="#a"
       id="linearGradient7031"
       gradientUnits="userSpaceOnUse"
       gradientTransform="matrix(1.0667,0,0,1.0667,-3.73,-24.546)"
       x1="72.828"
       y1="334.04"
       x2="48.17"
       y2="309.64" />
    <linearGradient
       inkscape:collect="always"
       xlink:href="#a"
       id="linearGradient7048"
       gradientUnits="userSpaceOnUse"
       gradientTransform="matrix(1.0438726,0,0,1.1326221,-47.012411,-347.10798)"
       x1="72.828"
       y1="334.04"
       x2="48.17"
       y2="309.64" />
    <linearGradient
       inkscape:collect="always"
       xlink:href="#a"
       id="linearGradient7077"
       gradientUnits="userSpaceOnUse"
       gradientTransform="matrix(1.0438726,0,0,1.1326221,-47.012411,-347.10798)"
       x1="72.828"
       y1="334.04"
       x2="48.17"
       y2="309.64" />
    <filter
       id="c"
       height="1.2013"
       width="1.1869"
       color-interpolation-filters="sRGB"
       y="-0.10066"
       x="-0.093451999">
      <feGaussianBlur
         stdDeviation="0.83498843"
         id="feGaussianBlur7" />
    </filter>
  </defs>
  <g
     id="g7058"
     transform="matrix(1.3260593,0,0,1.3209331,-2.0529984,2.0427026)">
    <path
       style="fill:#030100;fill-opacity:0.39215997"
       inkscape:connector-curvature="0"
       id="path709"
       d="m 2.857045,3.961322 0.9786,-1.0617894 h 27.4008 l 0.9786,1.0618 2e-6,29.7304004 -0.9786,1.0618 h -27.4008 l -0.9786,-1.0618 -2e-6,-29.7304004 z" />
    <path
       style="fill:#030100"
       inkscape:connector-curvature="0"
       id="path711"
       d="m 1.878445,2.899522 0.9786,-1.0617894 h 27.4008 l 0.9786,1.0618 2e-6,29.7304004 -0.9786,1.0618 h -27.4008 l -0.9786,-1.0618 -2e-6,-29.7304004 z" />
    <rect
       style="fill:url(#linearGradient7077)"
       id="rect713"
       x="2.8570445"
       y="2.899518"
       width="27.400801"
       height="29.7304" />
    <path
       style="fill:#ffffff"
       inkscape:connector-curvature="0"
       id="path715"
       d="m 2.857045,2.899522 h 27.4008 v 1.0618 h -26.4222 v 28.6686 h -0.9786 v -29.7304 z" />
    <path
       style="fill-opacity:0.39215997"
       inkscape:connector-curvature="0"
       id="path717"
       d="m 30.257845,32.629922 h -26.4222 v -1.0618 h 25.4436 v -27.6068 h 0.9786 v 28.6686 z" />
    <g
       transform="matrix(0.9786,0,0,1.0618,-43.362233,-321.04504)"
       style="fill:#ff7800"
       id="g719">
      <path
         inkscape:connector-curvature="0"
         id="path721"
         transform="translate(45.23,303.09)"
         d="m 7,4 c -1.656,2e-7 -3,1.344 -3,3 0,1.656 1.344,3 3,3 1.656,-3e-7 3,-1.344 3,-3 C 10,5.344 8.656,4 7,4 z m 0,2 c 0.552,2e-7 1,0.448 1,1 C 8,7.552 7.552,8 7,8 6.448,8 6,7.552 6,7 6,6.448 6.448,6 7,6 z" />
      <rect
         id="rect723"
         height="1.9268"
         x="54.477001"
         width="18.753"
         y="309.17001" />
    </g>
    <g
       style="fill:#ff7800"
       id="g725"
       transform="matrix(-0.9786,0,0,1.0618,76.477123,-314.67424)">
      <path
         inkscape:connector-curvature="0"
         id="path727"
         transform="translate(45.23,303.09)"
         d="m 7,4 c -1.656,2e-7 -3,1.344 -3,3 0,1.656 1.344,3 3,3 1.656,-3e-7 3,-1.344 3,-3 C 10,5.344 8.656,4 7,4 z m 0,2 c 0.552,2e-7 1,0.448 1,1 C 8,7.552 7.552,8 7,8 6.448,8 6,7.552 6,7 6,6.448 6.448,6 7,6 z" />
      <rect
         id="rect729"
         height="1.9268"
         x="54.477001"
         width="18.753"
         y="309.17001" />
    </g>
    <g
       style="fill:#ff7800"
       id="g731"
       transform="matrix(0.9786,0,0,1.0618,-43.362233,-308.30344)">
      <path
         inkscape:connector-curvature="0"
         id="path733"
         transform="translate(45.23,303.09)"
         d="m 7,4 c -1.656,2e-7 -3,1.344 -3,3 0,1.656 1.344,3 3,3 1.656,-3e-7 3,-1.344 3,-3 C 10,5.344 8.656,4 7,4 z m 0,2 c 0.552,2e-7 1,0.448 1,1 C 8,7.552 7.552,8 7,8 6.448,8 6,7.552 6,7 6,6.448 6.448,6 7,6 z" />
      <rect
         id="rect735"
         height="1.9268"
         x="54.477001"
         width="18.753"
         y="309.17001" />
    </g>
    <g
       style="fill:#ff7800"
       id="g737"
       transform="matrix(-0.9786,0,0,1.0618,76.477123,-301.93264)">
      <path
         inkscape:connector-curvature="0"
         id="path739"
         transform="translate(45.23,303.09)"
         d="m 7,4 c -1.656,2e-7 -3,1.344 -3,3 0,1.656 1.344,3 3,3 1.656,-3e-7 3,-1.344 3,-3 C 10,5.344 8.656,4 7,4 z m 0,2 c 0.552,2e-7 1,0.448 1,1 C 8,7.552 7.552,8 7,8 6.448,8 6,7.552 6,7 6,6.448 6.448,6 7,6 z" />
      <rect
         id="rect741"
         height="1.9268"
         x="54.477001"
         width="18.753"
         y="309.17001" />
    </g>
  </g>
  <g
     id="g3129"
     transform="matrix(-1.1069017,0,0,-1,-6.6920202,42.326685)">
    <path
       transform="matrix(1.8771272,0,0,1.9092491,-379.78619,-120.786)"
       d="m 184.24,72.874 -0.0887,-6.4061 -8.9776,9.7241 9.0663,9.954 V 79.51 c 7.933,0 12.378,-4.424 12.378,-13.272 h -6.7111 c 0,4.424 -2.2666,6.636 -5.6664,6.636 z"
       id="path52"
       inkscape:connector-curvature="0"
       style="opacity:0.3125;fill-rule:evenodd;filter:url(#c)" />
    <g
       id="g3123">
      <path
         style="fill:#ffffff"
         inkscape:connector-curvature="0"
         id="path22"
         d="m -53.77277,5.8801954 h 40.374882 V 7.2818546 H -52.33081 V 45.126653 h -1.44196 V 5.8801954 z" />
      <g
         id="g3119">
        <path
           inkscape:connector-curvature="0"
           id="path56"
           d="M -29.850641,12.451919 -30.017127,0.22093852 -46.869554,18.786807 -29.850769,37.791473 V 25.121696 c 14.891438,0 23.2344725,-8.446518 23.2344725,-25.33955409 H -19.214027 c 0,8.44651799 -4.254697,12.66977709 -10.636742,12.66977709 z"
           style="fill-rule:evenodd" />
        <path
           style="fill:#00bd00;fill-rule:evenodd"
           inkscape:connector-curvature="0"
           id="path58"
           d="M -31.977989,14.563548 V 8.2286599 L -42.61473,18.786807 -31.977989,31.456584 v -8.446518 c 8.509393,0 21.273482,-2.111629 21.273482,-19.0046651 h -6.382044 c 0,8.4465181 -8.509393,10.5581471 -14.891438,10.5581471 z" />
      </g>
    </g>
  </g>
</svg>
