<svg id="Слой_1" data-name="Слой 1"
  xmlns:dc="http://purl.org/dc/elements/1.1/"
  xmlns:cc="http://creativecommons.org/ns#"
  xmlns:rdf="http://www.w3.org/1999/02/22-rdf-syntax-ns#"
  xmlns="http://www.w3.org/2000/svg" viewBox="0 0 26 26">
  <metadata id="metadata43">
    <rdf:RDF>
      <cc:Work rdf:about="">
        <cc:license rdf:resource="http://creativecommons.org/licenses/by-sa/4.0/" />
        <dc:format>image/svg+xml</dc:format>
        <dc:type rdf:resource="http://purl.org/dc/dcmitype/StillImage" />
        <dc:title>add_arc</dc:title>
      </cc:Work>
      <cc:License rdf:about="http://creativecommons.org/licenses/by-sa/4.0/">
        <cc:permits rdf:resource="http://creativecommons.org/ns#Reproduction" />
        <cc:permits rdf:resource="http://creativecommons.org/ns#Distribution" />
        <cc:requires rdf:resource="http://creativecommons.org/ns#Notice" />
        <cc:requires rdf:resource="http://creativecommons.org/ns#Attribution" />
        <cc:permits rdf:resource="http://creativecommons.org/ns#DerivativeWorks" />
        <cc:requires rdf:resource="http://creativecommons.org/ns#ShareAlike" />
      </cc:License>
    </rdf:RDF>
  </metadata>
  <defs>
    <style>.cls-1{fill:#b9b9b9;}.cls-2,.cls-5{fill:none;}.cls-2{stroke:#545454;stroke-miterlimit:10;stroke-width:0.9537px;}.cls-3{fill:#1a81c4;}.cls-4{fill:#e61c50;}.cls-5{stroke:#f5f5f5;stroke-linecap:round;stroke-linejoin:round;stroke-width:2px;}</style>
  </defs>
  <title>load_module_board</title>
  <path class="cls-1" d="M4.4949.9866H18.48a3.4987,3.4987,0,0,1,3.4987,3.4987V18.49A3.4987,3.4987,0,0,1,18.48,21.989H4.4949A3.4988,3.4988,0,0,1,.9961,18.49V4.4854A3.4988,3.4988,0,0,1,4.4949.9866Z"/>
  <polyline class="cls-2" points="5.326 0.981 5.326 5.179 17.694 5.179 17.694 0.992"/>
  <polyline class="cls-2" points="14.773 18.513 4.081 18.513 4.081 13.861 21.976 13.861"/>
  <line class="cls-2" x1="0.9919" y1="11.0117" x2="21.9777" y2="11.0117"/>
  <line class="cls-2" x1="0.9919" y1="8.1348" x2="21.9777" y2="8.1348"/>
  <rect class="cls-3" x="8.4508" y="3.5809" width="6.4984" height="12.2278"/>
  <path class="cls-4" d="M24.9809,18a7.0065,7.0065,0,1,1-7.0066-7A7.0033,7.0033,0,0,1,24.9809,18Z"/>
  <line class="cls-5" x1="18.0782" y1="21.4118" x2="18.0782" y2="14.4118"/>
  <polyline class="cls-5" points="20.833 18.879 18.078 21.631 15.323 18.879"/>
</svg>