<svg xmlns="http://www.w3.org/2000/svg" height="48" width="48" version="1.1">
 <defs>
  <linearGradient id="a" y2="309.64" gradientUnits="userSpaceOnUse" x2="48.17" gradientTransform="matrix(1.0667,0,0,1.0667,-3.73,-24.546)" y1="334.04" x1="72.828">
   <stop stop-color="#bfbfff" offset="0"/>
   <stop stop-color="#fff" offset="1"/>
  </linearGradient>
 </defs>
 <g transform="translate(0,16)">
  <g transform="translate(17,9.441)">
   <g transform="translate(-22.5,11.455)">
    <g transform="translate(17,9.441)">
     <g transform="translate(229.54,-65.9)">
      <g transform="translate(17,9.441)">
       <g transform="translate(-22.5,11.455)">
        <g transform="translate(17,9.441)">
         <rect fill-opacity="0" height="16" width="16" y="0" x="0"/>
        </g>
        <g transform="translate(17.5,32.796)">
         <g transform="translate(-6.4217,-3)">
          <g transform="translate(23.343,12.25)">
           <g transform="translate(-6.4217,-3)">
            <g transform="translate(28.672,1.5)">
             <rect fill-opacity="0" height="16" width="16" y="0" x="0"/>
            </g>
           </g>
           <g transform="translate(-6.4217,-3)">
            <rect fill-opacity="0" height="16" width="16" y="0" x="0"/>
           </g>
           <g transform="translate(28,-66.442)">
            <g transform="translate(-6.4217,-3)">
             <g transform="translate(37.646,10.439)">
              <g transform="translate(-.95462 3)">
               <g transform="translate(-7.6918,14.561)">
                <rect fill-opacity="0" height="16" width="16" y="0" x="0"/>
               </g>
              </g>
              <g transform="translate(-.95462 3)">
               <rect fill-opacity="0" height="16" width="16" y="0" x="0"/>
              </g>
             </g>
             <g transform="translate(37.646,10.439)">
              <rect fill-opacity="0" height="16" width="16" y="0" x="0"/>
             </g>
            </g>
            <g transform="translate(-6.4217,-3)">
             <rect fill-opacity="0" height="16" width="16" y="0" x="0"/>
            </g>
           </g>
           <g transform="translate(28,-66.442)">
            <rect fill-opacity="0" height="16" width="16" y="0" x="0"/>
           </g>
           <g transform="translate(-7.4217,-85.442)">
            <rect fill-opacity="0" height="16" width="16" y="0" x="0"/>
           </g>
           <g transform="translate(-29.715,-79.978)">
            <g transform="translate(16.536 .035544)">
             <g transform="translate(-42.641,19.607)">
              <rect fill-opacity="0" height="16" width="16" y="0" x="0"/>
             </g>
             <g transform="translate(-34.692,-27.467)">
              <g transform="translate(-27.551,62.248)">
               <g transform="translate(-17.422 -.83738)">
                <rect fill-opacity="0" height="16" width="16" y="0" x="0"/>
               </g>
               <g transform="translate(-4.7402,-3.1927)">
                <g transform="translate(50.678,115.75)">
                 <g transform="translate(17,9.441)">
                  <g transform="translate(-22.5,11.455)">
                   <g transform="translate(17,9.441)">
                    <rect fill-opacity="0" height="16" width="16" y="0" x="0"/>
                   </g>
                   <g transform="translate(17.5,32.796)">
                    <g transform="translate(-6.4217,-3)">
                     <g transform="translate(23.343,12.25)">
                      <g transform="translate(-6.4217,-3)">
                       <g transform="translate(28.672,1.5)">
                        <rect fill-opacity="0" height="16" width="16" y="0" x="0"/>
                       </g>
                      </g>
                      <g transform="translate(-6.4217,-3)">
                       <rect fill-opacity="0" height="16" width="16" y="0" x="0"/>
                      </g>
                      <g transform="translate(28,-66.442)">
                       <g transform="translate(-6.4217,-3)">
                        <g transform="translate(37.646,10.439)">
                         <g transform="translate(-.95462 3)">
                          <g transform="translate(-7.6918,14.561)">
                           <rect fill-opacity="0" height="16" width="16" y="0" x="0"/>
                          </g>
                         </g>
                         <g transform="translate(-.95462 3)">
                          <rect fill-opacity="0" height="16" width="16" y="0" x="0"/>
                         </g>
                        </g>
                        <g transform="translate(37.646,10.439)">
                         <rect fill-opacity="0" height="16" width="16" y="0" x="0"/>
                        </g>
                       </g>
                       <g transform="translate(-6.4217,-3)">
                        <rect fill-opacity="0" height="16" width="16" y="0" x="0"/>
                       </g>
                      </g>
                      <g transform="translate(28,-66.442)">
                       <rect fill-opacity="0" height="16" width="16" y="0" x="0"/>
                      </g>
                      <g transform="translate(-7.4217,-85.442)">
                       <rect fill-opacity="0" height="16" width="16" y="0" x="0"/>
                      </g>
                      <g transform="translate(-29.715,-79.978)">
                       <g transform="translate(16.536 .035544)">
                        <g transform="translate(-42.641,19.607)">
                         <rect fill-opacity="0" height="16" width="16" y="0" x="0"/>
                        </g>
                        <g transform="translate(-34.692,-27.467)">
                         <rect fill-opacity="0" height="16" width="16" y="0" x="0"/>
                        </g>
                       </g>
                       <g transform="translate(16.536 .035544)">
                        <rect fill-opacity="0" height="16" width="16" y="0" x="0"/>
                       </g>
                      </g>
                      <g transform="translate(-29.715,-79.978)">
                       <rect fill-opacity="0" height="16" width="16" y="0" x="0"/>
                      </g>
                     </g>
                     <g transform="translate(23.343,12.25)">
                      <rect fill-opacity="0" height="16" width="16" y="0" x="0"/>
                     </g>
                    </g>
                    <g transform="translate(-6.4217,-3)">
                     <rect fill-opacity="0" height="16" width="16" y="0" x="0"/>
                    </g>
                   </g>
                   <g transform="translate(17.5,32.796)">
                    <rect fill-opacity="0" height="16" width="16" y="0" x="0"/>
                   </g>
                  </g>
                  <g transform="translate(-22.5,11.455)">
                   <rect fill-opacity="0" height="16" width="16" y="0" x="0"/>
                  </g>
                  <g transform="translate(36,8.059)">
                   <rect fill-opacity="0" height="16" width="16" y="0" x="0"/>
                  </g>
                 </g>
                 <g transform="translate(17,9.441)">
                  <rect fill-opacity="0" height="16" width="16" y="0" x="0"/>
                 </g>
                </g>
                <g transform="translate(50.678,115.75)">
                 <rect fill-opacity="0" height="16" width="16" y="0" x="0"/>
                </g>
               </g>
               <g transform="translate(-4.7402,-3.1927)">
                <rect fill-opacity="0" height="16" width="16" y="0" x="0"/>
               </g>
              </g>
              <g transform="translate(-27.551,62.248)">
               <rect fill-opacity="0" height="16" width="16" y="0" x="0"/>
              </g>
              <g transform="translate(195.68,38.329)">
               <g transform="translate(17,9.441)">
                <g transform="translate(-22.5,11.455)">
                 <g transform="translate(17,9.441)">
                  <rect fill-opacity="0" height="16" width="16" y="0" x="0"/>
                 </g>
                 <g transform="translate(17.5,32.796)">
                  <g transform="translate(-6.4217,-3)">
                   <g transform="translate(23.343,12.25)">
                    <g transform="translate(-6.4217,-3)">
                     <g transform="translate(28.672,1.5)">
                      <rect fill-opacity="0" height="16" width="16" y="0" x="0"/>
                     </g>
                    </g>
                    <g transform="translate(-6.4217,-3)">
                     <rect fill-opacity="0" height="16" width="16" y="0" x="0"/>
                    </g>
                    <g transform="translate(28,-66.442)">
                     <g transform="translate(-6.4217,-3)">
                      <g transform="translate(37.646,10.439)">
                       <g transform="translate(-.95462 3)">
                        <g transform="translate(-7.6918,14.561)">
                         <path fill-rule="evenodd" fill="#fff" d="m22 2.5-1.5 3h1v4.5h1v-4.5h1l-1.5-3z"/>
                        </g>
                        <g transform="translate(-7.6918,14.561)">
                         <rect fill-opacity="0" height="16" width="16" y="0" x="0"/>
                        </g>
                       </g>
                       <g transform="translate(-.95462 3)">
                        <rect fill-opacity="0" height="16" width="16" y="0" x="0"/>
                       </g>
                      </g>
                      <g transform="translate(37.646,10.439)">
                       <rect fill-opacity="0" height="16" width="16" y="0" x="0"/>
                      </g>
                     </g>
                     <g transform="translate(-6.4217,-3)">
                      <rect fill-opacity="0" height="16" width="16" y="0" x="0"/>
                     </g>
                    </g>
                    <g transform="translate(28,-66.442)">
                     <rect fill-opacity="0" height="16" width="16" y="0" x="0"/>
                    </g>
                    <g transform="translate(-7.4217,-85.442)">
                     <rect fill-opacity="0" height="16" width="16" y="0" x="0"/>
                    </g>
                    <g transform="translate(-29.715,-79.978)">
                     <g transform="translate(16.536 .035544)">
                      <g transform="translate(-42.641,19.607)">
                       <rect fill-opacity="0" height="16" width="16" y="0" x="0"/>
                      </g>
                      <g transform="translate(-34.692,-27.467)">
                       <g transform="translate(-27.551,62.248)">
                        <g transform="translate(-17.422 -.83738)">
                         <rect fill-opacity="0" height="16" width="16" y="0" x="0"/>
                        </g>
                        <g transform="translate(-4.7402,-3.1927)">
                         <rect fill-opacity="0" height="16" width="16" y="0" x="0"/>
                        </g>
                       </g>
                       <g transform="translate(-27.551,62.248)">
                        <rect fill-opacity="0" height="16" width="16" y="0" x="0"/>
                       </g>
                      </g>
                      <g transform="translate(-34.692,-27.467)">
                       <rect fill-opacity="0" height="16" width="16" y="0" x="0"/>
                      </g>
                     </g>
                     <g transform="translate(16.536 .035544)">
                      <rect fill-opacity="0" height="16" width="16" y="0" x="0"/>
                     </g>
                    </g>
                    <g transform="translate(-29.715,-79.978)">
                     <rect fill-opacity="0" height="16" width="16" y="0" x="0"/>
                    </g>
                   </g>
                   <g transform="translate(23.343,12.25)">
                    <rect fill-opacity="0" height="16" width="16" y="0" x="0"/>
                   </g>
                  </g>
                  <g transform="translate(-6.4217,-3)">
                   <rect fill-opacity="0" height="16" width="16" y="0" x="0"/>
                  </g>
                 </g>
                 <g transform="translate(17.5,32.796)">
                  <rect fill-opacity="0" height="16" width="16" y="0" x="0"/>
                 </g>
                </g>
                <g transform="translate(-22.5,11.455)">
                 <rect fill-opacity="0" height="16" width="16" y="0" x="0"/>
                </g>
                <g transform="translate(36,8.059)">
                 <rect fill-opacity="0" height="16" width="16" y="0" x="0"/>
                </g>
               </g>
               <g transform="translate(17,9.441)">
                <rect fill-opacity="0" height="16" width="16" y="0" x="0"/>
               </g>
              </g>
              <g transform="translate(195.68,38.329)">
               <rect fill-opacity="0" height="16" width="16" y="0" x="0"/>
              </g>
             </g>
             <g transform="translate(-34.692,-27.467)">
              <rect fill-opacity="0" height="16" width="16" y="0" x="0"/>
             </g>
            </g>
            <g transform="translate(16.536 .035544)">
             <rect fill-opacity="0" height="16" width="16" y="0" x="0"/>
            </g>
           </g>
           <g transform="translate(-29.715,-79.978)">
            <rect fill-opacity="0" height="16" width="16" y="0" x="0"/>
           </g>
          </g>
          <g transform="translate(23.343,12.25)">
           <rect fill-opacity="0" height="16" width="16" y="0" x="0"/>
          </g>
         </g>
         <g transform="translate(-6.4217,-3)">
          <rect fill-opacity="0" height="16" width="16" y="0" x="0"/>
         </g>
        </g>
        <g transform="translate(17.5,32.796)">
         <rect fill-opacity="0" height="16" width="16" y="0" x="0"/>
        </g>
       </g>
       <g transform="translate(-22.5,11.455)">
        <rect fill-opacity="0" height="16" width="16" y="0" x="0"/>
       </g>
       <g transform="translate(36,8.059)">
        <rect fill-opacity="0" height="16" width="16" y="0" x="0"/>
       </g>
      </g>
      <g transform="translate(17,9.441)">
       <rect fill-opacity="0" height="16" width="16" y="0" x="0"/>
      </g>
     </g>
     <g transform="translate(229.54,-65.9)">
      <rect fill-opacity="0" height="16" width="16" y="0" x="0"/>
     </g>
    </g>
    <g transform="translate(17,9.441)">
     <rect fill-opacity="0" height="16" width="16" y="0" x="0"/>
    </g>
    <g transform="translate(17.5,32.796)">
     <g transform="translate(-6.4217,-3)">
      <g transform="translate(23.343,12.25)">
       <g transform="translate(-6.4217,-3)">
        <g transform="translate(28.672,1.5)">
         <rect fill-opacity="0" height="16" width="16" y="0" x="0"/>
        </g>
       </g>
       <g transform="translate(-6.4217,-3)">
        <rect fill-opacity="0" height="16" width="16" y="0" x="0"/>
       </g>
       <g transform="translate(28,-66.442)">
        <g transform="translate(-6.4217,-3)">
         <g transform="translate(37.646,10.439)">
          <g transform="translate(-.95462 3)">
           <g transform="translate(-7.6918,14.561)">
            <rect fill-opacity="0" height="16" width="16" y="0" x="0"/>
           </g>
          </g>
          <g transform="translate(-.95462 3)">
           <rect fill-opacity="0" height="16" width="16" y="0" x="0"/>
          </g>
         </g>
         <g transform="translate(37.646,10.439)">
          <rect fill-opacity="0" height="16" width="16" y="0" x="0"/>
         </g>
        </g>
        <g transform="translate(-6.4217,-3)">
         <rect fill-opacity="0" height="16" width="16" y="0" x="0"/>
        </g>
       </g>
       <g transform="translate(28,-66.442)">
        <rect fill-opacity="0" height="16" width="16" y="0" x="0"/>
       </g>
       <g transform="translate(-7.4217,-85.442)">
        <rect fill-opacity="0" height="16" width="16" y="0" x="0"/>
       </g>
       <g transform="translate(-29.715,-79.978)">
        <g transform="translate(16.536 .035544)">
         <g transform="translate(-42.641,19.607)">
          <rect fill-opacity="0" height="16" width="16" y="0" x="0"/>
         </g>
         <g transform="translate(-64.002,-26.807)">
          <g transform="translate(-17.422 -.83738)">
           <rect fill-opacity="0" height="16" width="16" y="0" x="0"/>
          </g>
          <g transform="translate(-4.7402,-3.1927)">
           <rect fill-opacity="0" height="16" width="16" y="0" x="0"/>
          </g>
         </g>
         <g transform="translate(-64.002,-26.807)">
          <rect fill-opacity="0" height="16" width="16" y="0" x="0"/>
         </g>
         <g transform="translate(-34.692,-27.467)">
          <g transform="translate(-27.551,62.248)">
           <g transform="translate(-17.422 -.83738)">
            <rect fill-opacity="0" height="16" width="16" y="0" x="0"/>
           </g>
           <g transform="translate(-4.7402,-3.1927)">
            <g transform="translate(238.29,4.0561)">
             <g transform="translate(17,9.441)">
              <g transform="translate(-22.5,11.455)">
               <g transform="translate(17,9.441)">
                <rect fill-opacity="0" height="16" width="16" y="0" x="0"/>
               </g>
               <g transform="translate(17.5,32.796)">
                <g transform="translate(-6.4217,-3)">
                 <g transform="translate(23.343,12.25)">
                  <g transform="translate(-6.4217,-3)">
                   <g transform="translate(28.672,1.5)">
                    <rect fill-opacity="0" height="16" width="16" y="0" x="0"/>
                   </g>
                  </g>
                  <g transform="translate(-6.4217,-3)">
                   <rect fill-opacity="0" height="16" width="16" y="0" x="0"/>
                  </g>
                  <g transform="translate(28,-66.442)">
                   <g transform="translate(-6.4217,-3)">
                    <g transform="translate(37.646,10.439)">
                     <g transform="translate(-.95462 3)">
                      <g transform="translate(-7.6918,14.561)">
                       <rect fill-opacity="0" height="16" width="16" y="0" x="0"/>
                      </g>
                     </g>
                     <g transform="translate(-.95462 3)">
                      <rect fill-opacity="0" height="16" width="16" y="0" x="0"/>
                     </g>
                    </g>
                    <g transform="translate(37.646,10.439)">
                     <rect fill-opacity="0" height="16" width="16" y="0" x="0"/>
                    </g>
                   </g>
                   <g transform="translate(-6.4217,-3)">
                    <rect fill-opacity="0" height="16" width="16" y="0" x="0"/>
                   </g>
                  </g>
                  <g transform="translate(28,-66.442)">
                   <rect fill-opacity="0" height="16" width="16" y="0" x="0"/>
                  </g>
                  <g transform="translate(-7.4217,-85.442)">
                   <rect fill-opacity="0" height="16" width="16" y="0" x="0"/>
                  </g>
                  <g transform="translate(-29.715,-79.978)">
                   <g transform="translate(16.536 .035544)">
                    <g transform="translate(-42.641,19.607)">
                     <rect fill-opacity="0" height="16" width="16" y="0" x="0"/>
                    </g>
                    <g transform="translate(-34.692,-27.467)">
                     <rect fill-opacity="0" height="16" width="16" y="0" x="0"/>
                    </g>
                   </g>
                   <g transform="translate(16.536 .035544)">
                    <rect fill-opacity="0" height="16" width="16" y="0" x="0"/>
                   </g>
                  </g>
                  <g transform="translate(-29.715,-79.978)">
                   <rect fill-opacity="0" height="16" width="16" y="0" x="0"/>
                  </g>
                 </g>
                 <g transform="translate(23.343,12.25)">
                  <rect fill-opacity="0" height="16" width="16" y="0" x="0"/>
                 </g>
                </g>
                <g transform="translate(-6.4217,-3)">
                 <rect fill-opacity="0" height="16" width="16" y="0" x="0"/>
                </g>
               </g>
               <g transform="translate(17.5,32.796)">
                <rect fill-opacity="0" height="16" width="16" y="0" x="0"/>
               </g>
              </g>
              <g transform="translate(-22.5,11.455)">
               <rect fill-opacity="0" height="16" width="16" y="0" x="0"/>
              </g>
              <g transform="translate(36,8.059)">
               <rect fill-opacity="0" height="16" width="16" y="0" x="0"/>
              </g>
             </g>
             <g transform="translate(17,9.441)">
              <rect fill-opacity="0" height="16" width="16" y="0" x="0"/>
             </g>
            </g>
            <g transform="translate(238.29,4.0561)">
             <rect fill-opacity="0" height="16" width="16" y="0" x="0"/>
            </g>
           </g>
           <g transform="translate(-4.7402,-3.1927)">
            <rect fill-opacity="0" height="16" width="16" y="0" x="0"/>
           </g>
          </g>
          <g transform="translate(-27.551,62.248)">
           <rect fill-opacity="0" height="16" width="16" y="0" x="0"/>
          </g>
          <g transform="translate(207.51,69.724)">
           <g transform="translate(17,9.441)">
            <g transform="translate(-22.5,11.455)">
             <g transform="translate(17,9.441)">
              <rect fill-opacity="0" height="16" width="16" y="0" x="0"/>
             </g>
             <g transform="translate(17.5,32.796)">
              <g transform="translate(-6.4217,-3)">
               <g transform="translate(23.343,12.25)">
                <g transform="translate(-6.4217,-3)">
                 <g transform="translate(28.672,1.5)">
                  <rect fill-opacity="0" height="16" width="16" y="0" x="0"/>
                 </g>
                </g>
                <g transform="translate(-6.4217,-3)">
                 <rect fill-opacity="0" height="16" width="16" y="0" x="0"/>
                </g>
                <g transform="translate(28,-66.442)">
                 <g transform="translate(-6.4217,-3)">
                  <g transform="translate(37.646,10.439)">
                   <g transform="translate(-.95462 3)">
                    <g transform="translate(-7.6918,14.561)">
                     <rect fill-opacity="0" height="16" width="16" y="0" x="0"/>
                    </g>
                   </g>
                   <g transform="translate(-.95462 3)">
                    <rect fill-opacity="0" height="16" width="16" y="0" x="0"/>
                   </g>
                  </g>
                  <g transform="translate(37.646,10.439)">
                   <rect fill-opacity="0" height="16" width="16" y="0" x="0"/>
                  </g>
                 </g>
                 <g transform="translate(-6.4217,-3)">
                  <rect fill-opacity="0" height="16" width="16" y="0" x="0"/>
                 </g>
                </g>
                <g transform="translate(28,-66.442)">
                 <rect fill-opacity="0" height="16" width="16" y="0" x="0"/>
                </g>
                <g transform="translate(-7.4217,-85.442)">
                 <rect fill-opacity="0" height="16" width="16" y="0" x="0"/>
                </g>
                <g transform="translate(-29.715,-79.978)">
                 <g transform="translate(16.536 .035544)">
                  <g transform="translate(-42.641,19.607)">
                   <rect fill-opacity="0" height="16" width="16" y="0" x="0"/>
                  </g>
                  <g transform="translate(-34.692,-27.467)">
                   <g transform="translate(-27.551,62.248)">
                    <g transform="translate(-17.422 -.83738)">
                     <rect fill-opacity="0" height="16" width="16" y="0" x="0"/>
                    </g>
                    <g transform="translate(-4.7402,-3.1927)">
                     <rect fill-opacity="0" height="16" width="16" y="0" x="0"/>
                    </g>
                   </g>
                   <g transform="translate(-27.551,62.248)">
                    <rect fill-opacity="0" height="16" width="16" y="0" x="0"/>
                   </g>
                  </g>
                  <g transform="translate(-34.692,-27.467)">
                   <rect fill-opacity="0" height="16" width="16" y="0" x="0"/>
                  </g>
                 </g>
                 <g transform="translate(16.536 .035544)">
                  <rect fill-opacity="0" height="16" width="16" y="0" x="0"/>
                 </g>
                </g>
                <g transform="translate(-29.715,-79.978)">
                 <rect fill-opacity="0" height="16" width="16" y="0" x="0"/>
                </g>
               </g>
               <g transform="translate(23.343,12.25)">
                <rect fill-opacity="0" height="16" width="16" y="0" x="0"/>
               </g>
              </g>
              <g transform="translate(-6.4217,-3)">
               <rect fill-opacity="0" height="16" width="16" y="0" x="0"/>
              </g>
             </g>
             <g transform="translate(17.5,32.796)">
              <rect fill-opacity="0" height="16" width="16" y="0" x="0"/>
             </g>
            </g>
            <g transform="translate(-22.5,11.455)">
             <rect fill-opacity="0" height="16" width="16" y="0" x="0"/>
            </g>
            <g transform="translate(36,8.059)">
             <rect fill-opacity="0" height="16" width="16" y="0" x="0"/>
            </g>
           </g>
           <g transform="translate(17,9.441)">
            <rect fill-opacity="0" height="16" width="16" y="0" x="0"/>
           </g>
          </g>
          <g transform="translate(207.51,69.724)">
           <rect fill-opacity="0" height="16" width="16" y="0" x="0"/>
          </g>
         </g>
         <g transform="translate(-34.692,-27.467)">
          <rect fill-opacity="0" height="16" width="16" y="0" x="0"/>
         </g>
         <g transform="translate(-60.973,-286.09)">
          <g fill="none" transform="translate(92.272,9.1618)">
           <rect y="372.47" width="99.95" x="105.61" height="100"/>
           <rect y="348.35" width="100" x="113.04" height="100"/>
          </g>
          <g transform="matrix(.9786 0 0 1.0618 5.0107 -26.099)">
           <path fill-opacity=".39216" fill="#030100" d="m47.23 306.09 1-0.99999h28l1 1 0.000002 28-1 1h-28l-1-1-0.000002-28z"/>
           <path fill="#030100" d="m46.23 305.09 1-0.99999h28l1 1 0.000002 28-1 1h-28l-1-1-0.000002-28z"/>
           <rect height="28" width="28" y="305.09" x="47.23" fill="url(#a)"/>
           <path fill="#fff" d="m47.23 305.09h28v1h-27v27h-1v-28z"/>
           <path fill-opacity=".39216" d="m75.23 333.09h-27v-1h26v-26h1v27z"/>
           <g fill="#ff7800">
            <path d="m7 4c-1.656 2e-7 -3 1.344-3 3s1.344 3 3 3c1.656-3e-7 3-1.344 3-3s-1.344-3-3-3zm0 2c0.552 2e-7 1 0.448 1 1s-0.448 1-1 1-1-0.448-1-1 0.448-1 1-1z" transform="translate(45.23,303.09)"/>
            <rect y="309.17" width="18.753" x="54.477" height="1.9268"/>
           </g>
           <g fill="#ff7800" transform="matrix(-1,0,0,1,122.46,6)">
            <path d="m7 4c-1.656 2e-7 -3 1.344-3 3s1.344 3 3 3c1.656-3e-7 3-1.344 3-3s-1.344-3-3-3zm0 2c0.552 2e-7 1 0.448 1 1s-0.448 1-1 1-1-0.448-1-1 0.448-1 1-1z" transform="translate(45.23,303.09)"/>
            <rect y="309.17" width="18.753" x="54.477" height="1.9268"/>
           </g>
           <g fill="#ff7800" transform="translate(0,12)">
            <path d="m7 4c-1.656 2e-7 -3 1.344-3 3s1.344 3 3 3c1.656-3e-7 3-1.344 3-3s-1.344-3-3-3zm0 2c0.552 2e-7 1 0.448 1 1s-0.448 1-1 1-1-0.448-1-1 0.448-1 1-1z" transform="translate(45.23,303.09)"/>
            <rect y="309.17" width="18.753" x="54.477" height="1.9268"/>
           </g>
           <g fill="#ff7800" transform="matrix(-1,0,0,1,122.46,18)">
            <path d="m7 4c-1.656 2e-7 -3 1.344-3 3s1.344 3 3 3c1.656-3e-7 3-1.344 3-3s-1.344-3-3-3zm0 2c0.552 2e-7 1 0.448 1 1s-0.448 1-1 1-1-0.448-1-1 0.448-1 1-1z" transform="translate(45.23,303.09)"/>
            <rect y="309.17" width="18.753" x="54.477" height="1.9268"/>
           </g>
          </g>
          <g transform="translate(275.2,265.49)">
           <g transform="translate(17,9.441)">
            <g transform="translate(-22.5,11.455)">
             <g transform="translate(17,9.441)">
              <rect fill-opacity="0" height="16" width="16" y="0" x="0"/>
             </g>
             <g transform="translate(17.5,32.796)">
              <g transform="translate(-6.4217,-3)">
               <g transform="translate(23.343,12.25)">
                <g transform="translate(-6.4217,-3)">
                 <g transform="translate(28.672,1.5)">
                  <rect fill-opacity="0" height="16" width="16" y="0" x="0"/>
                 </g>
                </g>
                <g transform="translate(-6.4217,-3)">
                 <rect fill-opacity="0" height="16" width="16" y="0" x="0"/>
                </g>
                <g transform="translate(28,-66.442)">
                 <g transform="translate(-6.4217,-3)">
                  <g transform="translate(37.646,10.439)">
                   <g transform="translate(-.95462 3)">
                    <g transform="translate(-7.6918,14.561)">
                     <rect fill-opacity="0" height="16" width="16" y="0" x="0"/>
                    </g>
                   </g>
                   <g transform="translate(-.95462 3)">
                    <rect fill-opacity="0" height="16" width="16" y="0" x="0"/>
                   </g>
                  </g>
                  <g transform="translate(37.646,10.439)">
                   <rect fill-opacity="0" height="16" width="16" y="0" x="0"/>
                  </g>
                 </g>
                 <g transform="translate(-6.4217,-3)">
                  <rect fill-opacity="0" height="16" width="16" y="0" x="0"/>
                 </g>
                </g>
                <g transform="translate(28,-66.442)">
                 <rect fill-opacity="0" height="16" width="16" y="0" x="0"/>
                </g>
                <g transform="translate(-7.4217,-85.442)">
                 <rect fill-opacity="0" height="16" width="16" y="0" x="0"/>
                </g>
                <g transform="translate(-29.715,-79.978)">
                 <g transform="translate(16.536 .035544)">
                  <g transform="translate(-42.641,19.607)">
                   <rect fill-opacity="0" height="16" width="16" y="0" x="0"/>
                  </g>
                  <g transform="translate(-34.692,-27.467)">
                   <g transform="translate(-27.551,62.248)">
                    <g transform="translate(-17.422 -.83738)">
                     <rect fill-opacity="0" height="16" width="16" y="0" x="0"/>
                    </g>
                    <g transform="translate(-4.7402,-3.1927)">
                     <rect fill-opacity="0" height="16" width="16" y="0" x="0"/>
                    </g>
                   </g>
                   <g transform="translate(-27.551,62.248)">
                    <rect fill-opacity="0" height="16" width="16" y="0" x="0"/>
                   </g>
                  </g>
                  <g transform="translate(-34.692,-27.467)">
                   <rect fill-opacity="0" height="16" width="16" y="0" x="0"/>
                  </g>
                 </g>
                 <g transform="translate(16.536 .035544)">
                  <rect fill-opacity="0" height="16" width="16" y="0" x="0"/>
                 </g>
                </g>
                <g transform="translate(-29.715,-79.978)">
                 <rect fill-opacity="0" height="16" width="16" y="0" x="0"/>
                </g>
               </g>
               <g transform="translate(23.343,12.25)">
                <rect fill-opacity="0" height="16" width="16" y="0" x="0"/>
               </g>
              </g>
              <g transform="translate(-6.4217,-3)">
               <rect fill-opacity="0" height="16" width="16" y="0" x="0"/>
              </g>
             </g>
             <g transform="translate(17.5,32.796)">
              <rect fill-opacity="0" height="16" width="16" y="0" x="0"/>
             </g>
            </g>
            <g transform="translate(-22.5,11.455)">
             <rect fill-opacity="0" height="16" width="16" y="0" x="0"/>
            </g>
            <g transform="translate(36,8.059)">
             <rect fill-opacity="0" height="16" width="16" y="0" x="0"/>
            </g>
           </g>
           <g transform="translate(17,9.441)">
            <rect fill-opacity="0" height="16" width="16" y="0" x="0"/>
           </g>
          </g>
          <g transform="translate(275.2,265.49)">
           <rect fill-opacity="0" height="16" width="16" y="0" x="0"/>
          </g>
          <g fill-rule="evenodd" transform="matrix(2.5394,0,0,2.7095,-386.82,-454.23)">
           <path d="m183.06 280.44 0.0391 2.8961 3.9609-4.3961-4-4.5v3c-3.5 0-6.9609 2.5-6.9609 6.5h4c0-2 1.4609-3.5 2.9609-3.5z"/>
           <path fill="#00bd00" d="m183.56 279.94v1.5l2.5-2.5-2.5-3v2c-2 0-6.4609 1-6.4609 5h2c0-2 2.9609-3 4.4609-3z"/>
          </g>
         </g>
        </g>
        <g transform="translate(16.536 .035544)">
         <rect fill-opacity="0" height="16" width="16" y="0" x="0"/>
        </g>
       </g>
       <g transform="translate(-29.715,-79.978)">
        <rect fill-opacity="0" height="16" width="16" y="0" x="0"/>
       </g>
       <g transform="translate(38.078,-72.942)">
        <rect fill-opacity="0" height="16" width="16" y="0" x="0"/>
       </g>
       <g transform="translate(113.8,-57.577)">
        <rect fill-opacity="0" height="16" width="16" y="0" x="0"/>
       </g>
      </g>
      <g transform="translate(23.343,12.25)">
       <rect fill-opacity="0" height="16" width="16" y="0" x="0"/>
      </g>
     </g>
     <g transform="translate(-6.4217,-3)">
      <rect fill-opacity="0" height="16" width="16" y="0" x="0"/>
     </g>
    </g>
    <g transform="translate(17.5,32.796)">
     <rect fill-opacity="0" height="16" width="16" y="0" x="0"/>
    </g>
   </g>
   <g transform="translate(-22.5,11.455)">
    <rect fill-opacity="0" height="16" width="16" y="0" x="0"/>
   </g>
   <g transform="translate(36,8.059)">
    <g transform="translate(99.826,-19.821)">
     <g transform="translate(17,9.441)">
      <g transform="translate(-22.5,11.455)">
       <g transform="translate(17,9.441)">
        <rect fill-opacity="0" height="16" width="16" y="0" x="0"/>
       </g>
       <g transform="translate(17.5,32.796)">
        <g transform="translate(-6.4217,-3)">
         <g transform="translate(23.343,12.25)">
          <g transform="translate(-6.4217,-3)">
           <g transform="translate(28.672,1.5)">
            <rect fill-opacity="0" height="16" width="16" y="0" x="0"/>
           </g>
          </g>
          <g transform="translate(-6.4217,-3)">
           <rect fill-opacity="0" height="16" width="16" y="0" x="0"/>
          </g>
          <g transform="translate(28,-66.442)">
           <g transform="translate(-6.4217,-3)">
            <g transform="translate(37.646,10.439)">
             <g transform="translate(-.95462 3)">
              <g transform="translate(-7.6918,14.561)">
               <rect fill-opacity="0" height="16" width="16" y="0" x="0"/>
              </g>
             </g>
             <g transform="translate(-.95462 3)">
              <rect fill-opacity="0" height="16" width="16" y="0" x="0"/>
             </g>
            </g>
            <g transform="translate(37.646,10.439)">
             <rect fill-opacity="0" height="16" width="16" y="0" x="0"/>
            </g>
           </g>
           <g transform="translate(-6.4217,-3)">
            <rect fill-opacity="0" height="16" width="16" y="0" x="0"/>
           </g>
          </g>
          <g transform="translate(28,-66.442)">
           <rect fill-opacity="0" height="16" width="16" y="0" x="0"/>
          </g>
          <g transform="translate(-7.4217,-85.442)">
           <rect fill-opacity="0" height="16" width="16" y="0" x="0"/>
          </g>
          <g transform="translate(-29.715,-79.978)">
           <g transform="translate(16.536 .035544)">
            <g transform="translate(-42.641,19.607)">
             <rect fill-opacity="0" height="16" width="16" y="0" x="0"/>
            </g>
            <g transform="translate(-34.692,-27.467)">
             <g transform="translate(-27.551,62.248)">
              <g transform="translate(-17.422 -.83738)">
               <rect fill-opacity="0" height="16" width="16" y="0" x="0"/>
              </g>
              <g transform="translate(-4.7402,-3.1927)">
               <rect fill-opacity="0" height="16" width="16" y="0" x="0"/>
              </g>
             </g>
             <g transform="translate(-27.551,62.248)">
              <rect fill-opacity="0" height="16" width="16" y="0" x="0"/>
             </g>
            </g>
            <g transform="translate(-34.692,-27.467)">
             <rect fill-opacity="0" height="16" width="16" y="0" x="0"/>
            </g>
           </g>
           <g transform="translate(16.536 .035544)">
            <rect fill-opacity="0" height="16" width="16" y="0" x="0"/>
           </g>
          </g>
          <g transform="translate(-29.715,-79.978)">
           <rect fill-opacity="0" height="16" width="16" y="0" x="0"/>
          </g>
         </g>
         <g transform="translate(23.343,12.25)">
          <rect fill-opacity="0" height="16" width="16" y="0" x="0"/>
         </g>
        </g>
        <g transform="translate(-6.4217,-3)">
         <rect fill-opacity="0" height="16" width="16" y="0" x="0"/>
        </g>
       </g>
       <g transform="translate(17.5,32.796)">
        <rect fill-opacity="0" height="16" width="16" y="0" x="0"/>
       </g>
      </g>
      <g transform="translate(-22.5,11.455)">
       <rect fill-opacity="0" height="16" width="16" y="0" x="0"/>
      </g>
      <g transform="translate(36,8.059)">
       <rect fill-opacity="0" height="16" width="16" y="0" x="0"/>
      </g>
     </g>
     <g transform="translate(17,9.441)">
      <rect fill-opacity="0" height="16" width="16" y="0" x="0"/>
     </g>
    </g>
    <g transform="translate(99.826,-19.821)">
     <rect fill-opacity="0" height="16" width="16" y="0" x="0"/>
    </g>
   </g>
   <g transform="translate(36,8.059)">
    <rect fill-opacity="0" height="16" width="16" y="0" x="0"/>
   </g>
   <g transform="translate(56.088,32.079)">
    <g transform="translate(17,9.441)">
     <rect fill-opacity="0" height="16" width="16" y="0" x="0"/>
    </g>
   </g>
   <g transform="translate(56.088,32.079)">
    <rect fill-opacity="0" height="16" width="16" y="0" x="0"/>
   </g>
  </g>
  <g transform="translate(17,9.441)">
   <rect fill-opacity="0" height="16" width="16" y="0" x="0"/>
  </g>
 </g>
 <g transform="translate(0,16)">
  <rect fill-opacity="0" height="16" width="16" y="0" x="0"/>
 </g>
</svg>
