<svg id="Слой_1" data-name="Слой 1"
  xmlns:cc="http://creativecommons.org/ns#"
  xmlns:rdf="http://www.w3.org/1999/02/22-rdf-syntax-ns#"
  xmlns="http://www.w3.org/2000/svg" viewBox="0 0 26 26">
  <metadata id="metadata43">
    <rdf:RDF>
      <cc:Work rdf:about="">
        <cc:license rdf:resource="http://creativecommons.org/licenses/by/4.0/" />
      </cc:Work>
      <cc:License rdf:about="http://creativecommons.org/licenses/by/4.0/">
        <cc:permits rdf:resource="http://creativecommons.org/ns#Reproduction" />
        <cc:permits rdf:resource="http://creativecommons.org/ns#Distribution" />
        <cc:requires rdf:resource="http://creativecommons.org/ns#Notice" />
        <cc:requires rdf:resource="http://creativecommons.org/ns#Attribution" />
        <cc:permits rdf:resource="http://creativecommons.org/ns#DerivativeWorks" />
      </cc:License>
    </rdf:RDF>
  </metadata>
  <defs>
    <style>.cls-1{fill:#545454;}.cls-2{fill:#b9b9b9;}.cls-3{fill:#1a81c4;}.cls-4{fill:#e61c50;}.cls-5{fill:#fff;}</style>
  </defs>
  <title>load_gerber</title>
  <path class="cls-1" d="M4.5008.996H18.5017a3.5,3.5,0,0,1,3.5,3.5V18.494a3.5,3.5,0,0,1-3.5,3.5H4.5008a3.5,3.5,0,0,1-3.5-3.5V4.4959A3.5,3.5,0,0,1,4.5008.996Z"/>
  <path class="cls-2" d="M8.8509,9.1288H5.0062l-4.0008-4,0-.559s.002-.3345.0148-.4451c.0135-.1164.092-.46.092-.46L5.4662,8.0182H8.8509Z"/>
  <rect class="cls-2" x="8.3541" y="7.4615" width="3.5836" height="2.1493"/>
  <rect class="cls-2" x="8.3541" y="12.1197" width="3.5836" height="2.1493"/>
  <rect class="cls-2" x="8.3541" y="16.7778" width="3.5836" height="2.1494"/>
  <rect class="cls-2" x="16.7103" y="17.9305" width="3.5836" height="2.1493"/>
  <rect class="cls-2" x="16.7103" y="12.5617" width="3.5836" height="2.1493"/>
  <rect class="cls-2" x="16.7103" y="7.1929" width="3.5836" height="2.1493"/>
  <rect class="cls-2" x="16.7103" y="2.7079" width="3.5836" height="2.1493"/>
  <path class="cls-2" d="M8.8509,4.447H5.0062L2.3185,1.76s.3332-.2447.453-.313A3.715,3.715,0,0,1,3.329,1.2L5.4662,3.3365H8.8509Z"/>
  <rect class="cls-2" x="8.3541" y="2.8034" width="3.5836" height="2.1494"/>
  <polygon class="cls-2" points="16.77 19.582 15.298 19.582 14.089 18.373 14.089 11.54 15.2 11.54 15.2 17.913 15.758 18.472 16.77 18.472 16.77 19.582"/>
  <rect class="cls-2" x="14.0887" y="0.9948" width="1.1109" height="8.288"/>
  <rect class="cls-2" x="20.1867" y="13.1338" width="1.8156" height="1.1105"/>
  <polygon class="cls-2" points="4.63 21.996 4.143 21.996 3.519 21.844 3.519 19.581 5.828 17.272 8.402 17.272 8.402 18.383 6.289 18.383 4.63 20.041 4.63 21.996"/>
  <rect class="cls-2" x="4.9898" y="12.6198" width="3.3762" height="1.1105"/>
  <path class="cls-3" d="M16.3878,10.4114a1.75,1.75,0,1,1-1.75-1.75A1.75,1.75,0,0,1,16.3878,10.4114Z"/>
  <path class="cls-2" d="M15.8839,10.4114a1.2461,1.2461,0,1,1-1.246-1.246A1.2459,1.2459,0,0,1,15.8839,10.4114Z"/>
  <circle class="cls-3" cx="3.8614" cy="13.1747" r="1.7499"/>
  <path class="cls-2" d="M5.1074,13.1747a1.2461,1.2461,0,1,1-1.246-1.246A1.2459,1.2459,0,0,1,5.1074,13.1747Z"/>
  <path class="cls-4" d="M24.9809,18a7.0065,7.0065,0,1,1-7.0066-7A7.0033,7.0033,0,0,1,24.9809,18Z"/>
  <path class="cls-5" d="M21.1641,21.8672H15.6729A1.6254,1.6254,0,0,1,14.05,20.2441v-4.707a1.6254,1.6254,0,0,1,1.6231-1.623h5.4912a1.6254,1.6254,0,0,1,1.623,1.623v4.707A1.6254,1.6254,0,0,1,21.1641,21.8672Zm-5.4912-7.4531a1.1245,1.1245,0,0,0-1.1231,1.123v4.707a1.1245,1.1245,0,0,0,1.1231,1.1231h5.4912a1.1245,1.1245,0,0,0,1.123-1.1231v-4.707a1.1244,1.1244,0,0,0-1.123-1.123Z"/>
  <path class="cls-5" d="M21.271,22.55H15.2644a1.5017,1.5017,0,0,1-1.5017-1.5017V15.0414A1.5016,1.5016,0,0,1,15.2644,13.54h1.3747a1.5006,1.5006,0,0,1,.9327.3251l1.403,1.1135a1.2866,1.2866,0,0,0,.8.2787h1.4979a1.5,1.5,0,0,1,1.5,1.5v4.29A1.5017,1.5017,0,0,1,21.271,22.55Z"/>
</svg>