<svg xmlns="http://www.w3.org/2000/svg" height="48" width="48" version="1.1">
 <defs>
  <linearGradient id="a" y2="444.77" gradientUnits="userSpaceOnUse" x2="323.15" gradientTransform="matrix(.11848 0 0 .10538 103.97 251.81)" y1="233.29" x1="178.38">
   <stop offset="0"/>
   <stop stop-opacity="0" offset="1"/>
  </linearGradient>
 </defs>
 <g transform="translate(0,16)">
  <g transform="translate(17,9.441)">
   <g transform="translate(-22.5,11.455)">
    <g transform="translate(17,9.441)">
     <g transform="translate(229.54,-65.9)">
      <g transform="translate(17,9.441)">
       <g transform="translate(-22.5,11.455)">
        <g transform="translate(17,9.441)">
         <rect fill-opacity="0" height="16" width="16" y="0" x="0"/>
        </g>
        <g transform="translate(17.5,32.796)">
         <g transform="translate(-6.4217,-3)">
          <g transform="translate(23.343,12.25)">
           <g transform="translate(-6.4217,-3)">
            <g transform="translate(28.672,1.5)">
             <rect fill-opacity="0" height="16" width="16" y="0" x="0"/>
            </g>
           </g>
           <g transform="translate(-6.4217,-3)">
            <rect fill-opacity="0" height="16" width="16" y="0" x="0"/>
           </g>
           <g transform="translate(28,-66.442)">
            <g transform="translate(-6.4217,-3)">
             <g transform="translate(37.646,10.439)">
              <g transform="translate(-.95462 3)">
               <g transform="translate(-7.6918,14.561)">
                <rect fill-opacity="0" height="16" width="16" y="0" x="0"/>
               </g>
              </g>
              <g transform="translate(-.95462 3)">
               <rect fill-opacity="0" height="16" width="16" y="0" x="0"/>
              </g>
             </g>
             <g transform="translate(37.646,10.439)">
              <rect fill-opacity="0" height="16" width="16" y="0" x="0"/>
             </g>
            </g>
            <g transform="translate(-6.4217,-3)">
             <rect fill-opacity="0" height="16" width="16" y="0" x="0"/>
            </g>
           </g>
           <g transform="translate(28,-66.442)">
            <rect fill-opacity="0" height="16" width="16" y="0" x="0"/>
           </g>
           <g transform="translate(-7.4217,-85.442)">
            <rect fill-opacity="0" height="16" width="16" y="0" x="0"/>
           </g>
           <g transform="translate(-29.715,-79.978)">
            <g transform="translate(16.536 .035544)">
             <g transform="translate(-42.641,19.607)">
              <rect fill-opacity="0" height="16" width="16" y="0" x="0"/>
             </g>
             <g transform="translate(-34.692,-27.467)">
              <g transform="translate(-27.551,62.248)">
               <g transform="translate(-17.422 -.83738)">
                <rect fill-opacity="0" height="16" width="16" y="0" x="0"/>
               </g>
               <g transform="translate(-4.7402,-3.1927)">
                <g transform="translate(50.678,115.75)">
                 <g transform="translate(17,9.441)">
                  <g transform="translate(-22.5,11.455)">
                   <g transform="translate(17,9.441)">
                    <rect fill-opacity="0" height="16" width="16" y="0" x="0"/>
                   </g>
                   <g transform="translate(17.5,32.796)">
                    <g transform="translate(-6.4217,-3)">
                     <g transform="translate(23.343,12.25)">
                      <g transform="translate(-6.4217,-3)">
                       <g transform="translate(28.672,1.5)">
                        <rect fill-opacity="0" height="16" width="16" y="0" x="0"/>
                       </g>
                      </g>
                      <g transform="translate(-6.4217,-3)">
                       <rect fill-opacity="0" height="16" width="16" y="0" x="0"/>
                      </g>
                      <g transform="translate(28,-66.442)">
                       <g transform="translate(-6.4217,-3)">
                        <g transform="translate(37.646,10.439)">
                         <g transform="translate(-.95462 3)">
                          <g transform="translate(-7.6918,14.561)">
                           <rect fill-opacity="0" height="16" width="16" y="0" x="0"/>
                          </g>
                         </g>
                         <g transform="translate(-.95462 3)">
                          <rect fill-opacity="0" height="16" width="16" y="0" x="0"/>
                         </g>
                        </g>
                        <g transform="translate(37.646,10.439)">
                         <rect fill-opacity="0" height="16" width="16" y="0" x="0"/>
                        </g>
                       </g>
                       <g transform="translate(-6.4217,-3)">
                        <rect fill-opacity="0" height="16" width="16" y="0" x="0"/>
                       </g>
                      </g>
                      <g transform="translate(28,-66.442)">
                       <rect fill-opacity="0" height="16" width="16" y="0" x="0"/>
                      </g>
                      <g transform="translate(-7.4217,-85.442)">
                       <rect fill-opacity="0" height="16" width="16" y="0" x="0"/>
                      </g>
                      <g transform="translate(-29.715,-79.978)">
                       <g transform="translate(16.536 .035544)">
                        <g transform="translate(-42.641,19.607)">
                         <rect fill-opacity="0" height="16" width="16" y="0" x="0"/>
                        </g>
                        <g transform="translate(-34.692,-27.467)">
                         <rect fill-opacity="0" height="16" width="16" y="0" x="0"/>
                        </g>
                       </g>
                       <g transform="translate(16.536 .035544)">
                        <rect fill-opacity="0" height="16" width="16" y="0" x="0"/>
                       </g>
                      </g>
                      <g transform="translate(-29.715,-79.978)">
                       <rect fill-opacity="0" height="16" width="16" y="0" x="0"/>
                      </g>
                     </g>
                     <g transform="translate(23.343,12.25)">
                      <rect fill-opacity="0" height="16" width="16" y="0" x="0"/>
                     </g>
                    </g>
                    <g transform="translate(-6.4217,-3)">
                     <rect fill-opacity="0" height="16" width="16" y="0" x="0"/>
                    </g>
                   </g>
                   <g transform="translate(17.5,32.796)">
                    <rect fill-opacity="0" height="16" width="16" y="0" x="0"/>
                   </g>
                  </g>
                  <g transform="translate(-22.5,11.455)">
                   <rect fill-opacity="0" height="16" width="16" y="0" x="0"/>
                  </g>
                  <g transform="translate(36,8.059)">
                   <rect fill-opacity="0" height="16" width="16" y="0" x="0"/>
                  </g>
                 </g>
                 <g transform="translate(17,9.441)">
                  <rect fill-opacity="0" height="16" width="16" y="0" x="0"/>
                 </g>
                </g>
                <g transform="translate(50.678,115.75)">
                 <rect fill-opacity="0" height="16" width="16" y="0" x="0"/>
                </g>
               </g>
               <g transform="translate(-4.7402,-3.1927)">
                <rect fill-opacity="0" height="16" width="16" y="0" x="0"/>
               </g>
              </g>
              <g transform="translate(-27.551,62.248)">
               <rect fill-opacity="0" height="16" width="16" y="0" x="0"/>
              </g>
              <g transform="translate(195.68,38.329)">
               <g transform="translate(17,9.441)">
                <g transform="translate(-22.5,11.455)">
                 <g transform="translate(17,9.441)">
                  <rect fill-opacity="0" height="16" width="16" y="0" x="0"/>
                 </g>
                 <g transform="translate(17.5,32.796)">
                  <g transform="translate(-6.4217,-3)">
                   <g transform="translate(23.343,12.25)">
                    <g transform="translate(-6.4217,-3)">
                     <g transform="translate(28.672,1.5)">
                      <rect fill-opacity="0" height="16" width="16" y="0" x="0"/>
                     </g>
                    </g>
                    <g transform="translate(-6.4217,-3)">
                     <rect fill-opacity="0" height="16" width="16" y="0" x="0"/>
                    </g>
                    <g transform="translate(28,-66.442)">
                     <g transform="translate(-6.4217,-3)">
                      <g transform="translate(37.646,10.439)">
                       <g transform="translate(-.95462 3)">
                        <g transform="translate(-7.6918,14.561)">
                         <path fill-rule="evenodd" fill="#fff" d="m22 2.5-1.5 3h1v4.5h1v-4.5h1l-1.5-3z"/>
                        </g>
                        <g transform="translate(-7.6918,14.561)">
                         <rect fill-opacity="0" height="16" width="16" y="0" x="0"/>
                        </g>
                       </g>
                       <g transform="translate(-.95462 3)">
                        <rect fill-opacity="0" height="16" width="16" y="0" x="0"/>
                       </g>
                      </g>
                      <g transform="translate(37.646,10.439)">
                       <rect fill-opacity="0" height="16" width="16" y="0" x="0"/>
                      </g>
                     </g>
                     <g transform="translate(-6.4217,-3)">
                      <rect fill-opacity="0" height="16" width="16" y="0" x="0"/>
                     </g>
                    </g>
                    <g transform="translate(28,-66.442)">
                     <rect fill-opacity="0" height="16" width="16" y="0" x="0"/>
                    </g>
                    <g transform="translate(-7.4217,-85.442)">
                     <rect fill-opacity="0" height="16" width="16" y="0" x="0"/>
                    </g>
                    <g transform="translate(-29.715,-79.978)">
                     <g transform="translate(16.536 .035544)">
                      <g transform="translate(-42.641,19.607)">
                       <rect fill-opacity="0" height="16" width="16" y="0" x="0"/>
                      </g>
                      <g transform="translate(-34.692,-27.467)">
                       <g transform="translate(-27.551,62.248)">
                        <g transform="translate(-17.422 -.83738)">
                         <rect fill-opacity="0" height="16" width="16" y="0" x="0"/>
                        </g>
                        <g transform="translate(-4.7402,-3.1927)">
                         <rect fill-opacity="0" height="16" width="16" y="0" x="0"/>
                        </g>
                       </g>
                       <g transform="translate(-27.551,62.248)">
                        <rect fill-opacity="0" height="16" width="16" y="0" x="0"/>
                       </g>
                      </g>
                      <g transform="translate(-34.692,-27.467)">
                       <rect fill-opacity="0" height="16" width="16" y="0" x="0"/>
                      </g>
                     </g>
                     <g transform="translate(16.536 .035544)">
                      <rect fill-opacity="0" height="16" width="16" y="0" x="0"/>
                     </g>
                    </g>
                    <g transform="translate(-29.715,-79.978)">
                     <rect fill-opacity="0" height="16" width="16" y="0" x="0"/>
                    </g>
                   </g>
                   <g transform="translate(23.343,12.25)">
                    <rect fill-opacity="0" height="16" width="16" y="0" x="0"/>
                   </g>
                  </g>
                  <g transform="translate(-6.4217,-3)">
                   <rect fill-opacity="0" height="16" width="16" y="0" x="0"/>
                  </g>
                 </g>
                 <g transform="translate(17.5,32.796)">
                  <rect fill-opacity="0" height="16" width="16" y="0" x="0"/>
                 </g>
                </g>
                <g transform="translate(-22.5,11.455)">
                 <rect fill-opacity="0" height="16" width="16" y="0" x="0"/>
                </g>
                <g transform="translate(36,8.059)">
                 <rect fill-opacity="0" height="16" width="16" y="0" x="0"/>
                </g>
               </g>
               <g transform="translate(17,9.441)">
                <rect fill-opacity="0" height="16" width="16" y="0" x="0"/>
               </g>
              </g>
              <g transform="translate(195.68,38.329)">
               <rect fill-opacity="0" height="16" width="16" y="0" x="0"/>
              </g>
             </g>
             <g transform="translate(-34.692,-27.467)">
              <rect fill-opacity="0" height="16" width="16" y="0" x="0"/>
             </g>
            </g>
            <g transform="translate(16.536 .035544)">
             <rect fill-opacity="0" height="16" width="16" y="0" x="0"/>
            </g>
           </g>
           <g transform="translate(-29.715,-79.978)">
            <rect fill-opacity="0" height="16" width="16" y="0" x="0"/>
           </g>
          </g>
          <g transform="translate(23.343,12.25)">
           <rect fill-opacity="0" height="16" width="16" y="0" x="0"/>
          </g>
         </g>
         <g transform="translate(-6.4217,-3)">
          <rect fill-opacity="0" height="16" width="16" y="0" x="0"/>
         </g>
        </g>
        <g transform="translate(17.5,32.796)">
         <rect fill-opacity="0" height="16" width="16" y="0" x="0"/>
        </g>
       </g>
       <g transform="translate(-22.5,11.455)">
        <rect fill-opacity="0" height="16" width="16" y="0" x="0"/>
       </g>
       <g transform="translate(36,8.059)">
        <rect fill-opacity="0" height="16" width="16" y="0" x="0"/>
       </g>
      </g>
      <g transform="translate(17,9.441)">
       <rect fill-opacity="0" height="16" width="16" y="0" x="0"/>
      </g>
     </g>
     <g transform="translate(229.54,-65.9)">
      <rect fill-opacity="0" height="16" width="16" y="0" x="0"/>
     </g>
    </g>
    <g transform="translate(17,9.441)">
     <rect fill-opacity="0" height="16" width="16" y="0" x="0"/>
    </g>
    <g transform="translate(17.5,32.796)">
     <g transform="translate(-6.4217,-3)">
      <g transform="translate(23.343,12.25)">
       <g transform="translate(-6.4217,-3)">
        <g transform="translate(28.672,1.5)">
         <rect fill-opacity="0" height="16" width="16" y="0" x="0"/>
        </g>
       </g>
       <g transform="translate(-6.4217,-3)">
        <rect fill-opacity="0" height="16" width="16" y="0" x="0"/>
       </g>
       <g transform="translate(28,-66.442)">
        <g transform="translate(-6.4217,-3)">
         <g transform="translate(37.646,10.439)">
          <g transform="translate(-.95462 3)">
           <g transform="translate(-7.6918,14.561)">
            <rect fill-opacity="0" height="16" width="16" y="0" x="0"/>
           </g>
          </g>
          <g transform="translate(-.95462 3)">
           <rect fill-opacity="0" height="16" width="16" y="0" x="0"/>
          </g>
         </g>
         <g transform="translate(37.646,10.439)">
          <rect fill-opacity="0" height="16" width="16" y="0" x="0"/>
         </g>
        </g>
        <g transform="translate(-6.4217,-3)">
         <rect fill-opacity="0" height="16" width="16" y="0" x="0"/>
        </g>
       </g>
       <g transform="translate(28,-66.442)">
        <rect fill-opacity="0" height="16" width="16" y="0" x="0"/>
       </g>
       <g transform="translate(-7.4217,-85.442)">
        <rect fill-opacity="0" height="16" width="16" y="0" x="0"/>
       </g>
       <g transform="translate(-29.715,-79.978)">
        <g transform="translate(16.536 .035544)">
         <g transform="translate(-42.641,19.607)">
          <rect fill-opacity="0" height="16" width="16" y="0" x="0"/>
         </g>
         <g transform="translate(-64.002,-26.807)">
          <g transform="translate(-17.422 -.83738)">
           <rect fill-opacity="0" height="16" width="16" y="0" x="0"/>
          </g>
          <g transform="translate(-4.7402,-3.1927)">
           <rect fill-opacity="0" height="16" width="16" y="0" x="0"/>
          </g>
         </g>
         <g transform="translate(-64.002,-26.807)">
          <rect fill-opacity="0" height="16" width="16" y="0" x="0"/>
         </g>
         <g transform="translate(-34.692,-27.467)">
          <g transform="translate(-27.551,62.248)">
           <g transform="translate(-17.422 -.83738)">
            <rect fill-opacity="0" height="16" width="16" y="0" x="0"/>
           </g>
           <g transform="translate(-4.7402,-3.1927)">
            <g transform="translate(238.29,4.0561)">
             <g transform="translate(17,9.441)">
              <g transform="translate(-22.5,11.455)">
               <g transform="translate(17,9.441)">
                <rect fill-opacity="0" height="16" width="16" y="0" x="0"/>
               </g>
               <g transform="translate(17.5,32.796)">
                <g transform="translate(-6.4217,-3)">
                 <g transform="translate(23.343,12.25)">
                  <g transform="translate(-6.4217,-3)">
                   <g transform="translate(28.672,1.5)">
                    <rect fill-opacity="0" height="16" width="16" y="0" x="0"/>
                   </g>
                  </g>
                  <g transform="translate(-6.4217,-3)">
                   <rect fill-opacity="0" height="16" width="16" y="0" x="0"/>
                  </g>
                  <g transform="translate(28,-66.442)">
                   <g transform="translate(-6.4217,-3)">
                    <g transform="translate(37.646,10.439)">
                     <g transform="translate(-.95462 3)">
                      <g transform="translate(-7.6918,14.561)">
                       <rect fill-opacity="0" height="16" width="16" y="0" x="0"/>
                      </g>
                     </g>
                     <g transform="translate(-.95462 3)">
                      <rect fill-opacity="0" height="16" width="16" y="0" x="0"/>
                     </g>
                    </g>
                    <g transform="translate(37.646,10.439)">
                     <rect fill-opacity="0" height="16" width="16" y="0" x="0"/>
                    </g>
                   </g>
                   <g transform="translate(-6.4217,-3)">
                    <rect fill-opacity="0" height="16" width="16" y="0" x="0"/>
                   </g>
                  </g>
                  <g transform="translate(28,-66.442)">
                   <rect fill-opacity="0" height="16" width="16" y="0" x="0"/>
                  </g>
                  <g transform="translate(-7.4217,-85.442)">
                   <rect fill-opacity="0" height="16" width="16" y="0" x="0"/>
                  </g>
                  <g transform="translate(-29.715,-79.978)">
                   <g transform="translate(16.536 .035544)">
                    <g transform="translate(-42.641,19.607)">
                     <rect fill-opacity="0" height="16" width="16" y="0" x="0"/>
                    </g>
                    <g transform="translate(-34.692,-27.467)">
                     <rect fill-opacity="0" height="16" width="16" y="0" x="0"/>
                    </g>
                   </g>
                   <g transform="translate(16.536 .035544)">
                    <rect fill-opacity="0" height="16" width="16" y="0" x="0"/>
                   </g>
                  </g>
                  <g transform="translate(-29.715,-79.978)">
                   <rect fill-opacity="0" height="16" width="16" y="0" x="0"/>
                  </g>
                 </g>
                 <g transform="translate(23.343,12.25)">
                  <rect fill-opacity="0" height="16" width="16" y="0" x="0"/>
                 </g>
                </g>
                <g transform="translate(-6.4217,-3)">
                 <rect fill-opacity="0" height="16" width="16" y="0" x="0"/>
                </g>
               </g>
               <g transform="translate(17.5,32.796)">
                <rect fill-opacity="0" height="16" width="16" y="0" x="0"/>
               </g>
              </g>
              <g transform="translate(-22.5,11.455)">
               <rect fill-opacity="0" height="16" width="16" y="0" x="0"/>
              </g>
              <g transform="translate(36,8.059)">
               <rect fill-opacity="0" height="16" width="16" y="0" x="0"/>
              </g>
             </g>
             <g transform="translate(17,9.441)">
              <rect fill-opacity="0" height="16" width="16" y="0" x="0"/>
             </g>
            </g>
            <g transform="translate(238.29,4.0561)">
             <rect fill-opacity="0" height="16" width="16" y="0" x="0"/>
            </g>
           </g>
           <g transform="translate(-4.7402,-3.1927)">
            <rect fill-opacity="0" height="16" width="16" y="0" x="0"/>
           </g>
          </g>
          <g transform="translate(-27.551,62.248)">
           <rect fill-opacity="0" height="16" width="16" y="0" x="0"/>
          </g>
          <g transform="translate(207.51,69.724)">
           <g transform="translate(17,9.441)">
            <g transform="translate(-22.5,11.455)">
             <g transform="translate(17,9.441)">
              <rect fill-opacity="0" height="16" width="16" y="0" x="0"/>
             </g>
             <g transform="translate(17.5,32.796)">
              <g transform="translate(-6.4217,-3)">
               <g transform="translate(23.343,12.25)">
                <g transform="translate(-6.4217,-3)">
                 <g transform="translate(28.672,1.5)">
                  <rect fill-opacity="0" height="16" width="16" y="0" x="0"/>
                 </g>
                </g>
                <g transform="translate(-6.4217,-3)">
                 <rect fill-opacity="0" height="16" width="16" y="0" x="0"/>
                </g>
                <g transform="translate(28,-66.442)">
                 <g transform="translate(-6.4217,-3)">
                  <g transform="translate(37.646,10.439)">
                   <g transform="translate(-.95462 3)">
                    <g transform="translate(-7.6918,14.561)">
                     <rect fill-opacity="0" height="16" width="16" y="0" x="0"/>
                    </g>
                   </g>
                   <g transform="translate(-.95462 3)">
                    <rect fill-opacity="0" height="16" width="16" y="0" x="0"/>
                   </g>
                  </g>
                  <g transform="translate(37.646,10.439)">
                   <rect fill-opacity="0" height="16" width="16" y="0" x="0"/>
                  </g>
                 </g>
                 <g transform="translate(-6.4217,-3)">
                  <rect fill-opacity="0" height="16" width="16" y="0" x="0"/>
                 </g>
                </g>
                <g transform="translate(28,-66.442)">
                 <rect fill-opacity="0" height="16" width="16" y="0" x="0"/>
                </g>
                <g transform="translate(-7.4217,-85.442)">
                 <rect fill-opacity="0" height="16" width="16" y="0" x="0"/>
                </g>
                <g transform="translate(-29.715,-79.978)">
                 <g transform="translate(16.536 .035544)">
                  <g transform="translate(-42.641,19.607)">
                   <rect fill-opacity="0" height="16" width="16" y="0" x="0"/>
                  </g>
                  <g transform="translate(-34.692,-27.467)">
                   <g transform="translate(-27.551,62.248)">
                    <g transform="translate(-17.422 -.83738)">
                     <rect fill-opacity="0" height="16" width="16" y="0" x="0"/>
                    </g>
                    <g transform="translate(-4.7402,-3.1927)">
                     <rect fill-opacity="0" height="16" width="16" y="0" x="0"/>
                    </g>
                   </g>
                   <g transform="translate(-27.551,62.248)">
                    <rect fill-opacity="0" height="16" width="16" y="0" x="0"/>
                   </g>
                  </g>
                  <g transform="translate(-34.692,-27.467)">
                   <rect fill-opacity="0" height="16" width="16" y="0" x="0"/>
                  </g>
                 </g>
                 <g transform="translate(16.536 .035544)">
                  <rect fill-opacity="0" height="16" width="16" y="0" x="0"/>
                 </g>
                </g>
                <g transform="translate(-29.715,-79.978)">
                 <rect fill-opacity="0" height="16" width="16" y="0" x="0"/>
                </g>
               </g>
               <g transform="translate(23.343,12.25)">
                <rect fill-opacity="0" height="16" width="16" y="0" x="0"/>
               </g>
              </g>
              <g transform="translate(-6.4217,-3)">
               <rect fill-opacity="0" height="16" width="16" y="0" x="0"/>
              </g>
             </g>
             <g transform="translate(17.5,32.796)">
              <rect fill-opacity="0" height="16" width="16" y="0" x="0"/>
             </g>
            </g>
            <g transform="translate(-22.5,11.455)">
             <rect fill-opacity="0" height="16" width="16" y="0" x="0"/>
            </g>
            <g transform="translate(36,8.059)">
             <rect fill-opacity="0" height="16" width="16" y="0" x="0"/>
            </g>
           </g>
           <g transform="translate(17,9.441)">
            <rect fill-opacity="0" height="16" width="16" y="0" x="0"/>
           </g>
          </g>
          <g transform="translate(207.51,69.724)">
           <rect fill-opacity="0" height="16" width="16" y="0" x="0"/>
          </g>
         </g>
         <g transform="translate(-34.692,-27.467)">
          <rect fill-opacity="0" height="16" width="16" y="0" x="0"/>
         </g>
         <g transform="translate(-60.973,-286.09)">
          <g transform="matrix(.98374 0 0 .91396 -55.431 64.016)">
           <path fill-rule="evenodd" fill="url(#a)" d="m123.78 298.96c2.0395 0.84804 3.4963 2.7137 9.1777 0.84803s21.997-11.703 15.733-17.3c-6.2642-5.597-19.812-9.3284-27.824-9.3284-1.3111 4.4098-3.9333 22.727 2.9136 25.78z"/>
           <path fill-rule="evenodd" fill="#7f00fe" d="m144.76 282.51c1.1654 0.16961 3.2049 1.123 2.6222 3.2241-0.58272 2.1011-19.666 14.727-22.143 13.772-2.4765-0.95502-4.953-4.1808-4.953-4.1808l24.474-12.816z"/>
           <path d="m145.34 275.55c0.29136 3.2472 0.58272 6.7313 0.14569 9.1914-10.052 6.7003-17.773 11.566-23.308 13.027-1.8938-2.1011-2.3308-12.034-2.3308-12.034l25.494-10.184z" fill-rule="evenodd" stroke="#7f7f7f" stroke-width="1.3967" fill="#b6f99a"/>
           <path stroke-linejoin="round" d="m126.11 287.26c4.516-2.4912 18.647-10.527 20.978-11.884-4.2246-2.5441-20.541-12.037-24.474-13.16-1.4568 0.57303-14.568 7.4066-14.568 7.4066 2.1852 2.7137 16.462 17.064 18.064 17.637z" fill-rule="evenodd" stroke="#7d7cff" stroke-width="1.3967" fill="#ffaa61"/>
           <path d="m125.82 287.39s-2.7679 2.6741-2.9135 6.1123c-0.14569 3.4382 2.4765 4.1198 2.1852 5.3498-5.6814 0.21242-16.316-16.555-18.792-19.76-1.0926-1.9414-1.566-3.497-1.0926-5.6882 0.47345-2.1913 1.6024-3.4917 2.9864-3.3962 2.7679 3.2439 14.422 14.368 17.627 17.382z" fill-rule="evenodd" stroke="#7f00ff" stroke-width="1.3967" fill="#eb6f00"/>
           <g stroke-opacity=".61261" transform="matrix(-.32847 -.24046 .52735 -.30896 16.27 320.78)" stroke="#000" stroke-width="2.9276">
            <g stroke-linejoin="round" stroke-opacity=".61261" transform="translate(-91.973,163.38)" stroke="#000" stroke-linecap="round" stroke-width="2.9276" fill="none">
             <path d="m29.29 19.982 10.71 0.018"/>
             <path d="m40 8v24"/>
             <path d="m40 8 20 12"/>
             <path d="m40 32 20-12"/>
             <path d="m60 8v24"/>
             <path d="m60 20h12.401"/>
             <path d="m60 8h5"/>
             <path d="m55 32h5"/>
            </g>
           </g>
          </g>
          <g fill="none" transform="translate(92.272,9.1618)">
           <rect y="372.47" width="99.95" x="105.61" height="100"/>
           <rect y="348.35" width="100" x="113.04" height="100"/>
          </g>
          <g transform="translate(275.2,265.49)">
           <g transform="translate(17,9.441)">
            <g transform="translate(-22.5,11.455)">
             <g transform="translate(17,9.441)">
              <rect fill-opacity="0" height="16" width="16" y="0" x="0"/>
             </g>
             <g transform="translate(17.5,32.796)">
              <g transform="translate(-6.4217,-3)">
               <g transform="translate(23.343,12.25)">
                <g transform="translate(-6.4217,-3)">
                 <g transform="translate(28.672,1.5)">
                  <rect fill-opacity="0" height="16" width="16" y="0" x="0"/>
                 </g>
                </g>
                <g transform="translate(-6.4217,-3)">
                 <rect fill-opacity="0" height="16" width="16" y="0" x="0"/>
                </g>
                <g transform="translate(28,-66.442)">
                 <g transform="translate(-6.4217,-3)">
                  <g transform="translate(37.646,10.439)">
                   <g transform="translate(-.95462 3)">
                    <g transform="translate(-7.6918,14.561)">
                     <rect fill-opacity="0" height="16" width="16" y="0" x="0"/>
                    </g>
                   </g>
                   <g transform="translate(-.95462 3)">
                    <rect fill-opacity="0" height="16" width="16" y="0" x="0"/>
                   </g>
                  </g>
                  <g transform="translate(37.646,10.439)">
                   <rect fill-opacity="0" height="16" width="16" y="0" x="0"/>
                  </g>
                 </g>
                 <g transform="translate(-6.4217,-3)">
                  <rect fill-opacity="0" height="16" width="16" y="0" x="0"/>
                 </g>
                </g>
                <g transform="translate(28,-66.442)">
                 <rect fill-opacity="0" height="16" width="16" y="0" x="0"/>
                </g>
                <g transform="translate(-7.4217,-85.442)">
                 <rect fill-opacity="0" height="16" width="16" y="0" x="0"/>
                </g>
                <g transform="translate(-29.715,-79.978)">
                 <g transform="translate(16.536 .035544)">
                  <g transform="translate(-42.641,19.607)">
                   <rect fill-opacity="0" height="16" width="16" y="0" x="0"/>
                  </g>
                  <g transform="translate(-34.692,-27.467)">
                   <g transform="translate(-27.551,62.248)">
                    <g transform="translate(-17.422 -.83738)">
                     <rect fill-opacity="0" height="16" width="16" y="0" x="0"/>
                    </g>
                    <g transform="translate(-4.7402,-3.1927)">
                     <rect fill-opacity="0" height="16" width="16" y="0" x="0"/>
                    </g>
                   </g>
                   <g transform="translate(-27.551,62.248)">
                    <rect fill-opacity="0" height="16" width="16" y="0" x="0"/>
                   </g>
                  </g>
                  <g transform="translate(-34.692,-27.467)">
                   <rect fill-opacity="0" height="16" width="16" y="0" x="0"/>
                  </g>
                 </g>
                 <g transform="translate(16.536 .035544)">
                  <rect fill-opacity="0" height="16" width="16" y="0" x="0"/>
                 </g>
                </g>
                <g transform="translate(-29.715,-79.978)">
                 <rect fill-opacity="0" height="16" width="16" y="0" x="0"/>
                </g>
               </g>
               <g transform="translate(23.343,12.25)">
                <rect fill-opacity="0" height="16" width="16" y="0" x="0"/>
               </g>
              </g>
              <g transform="translate(-6.4217,-3)">
               <rect fill-opacity="0" height="16" width="16" y="0" x="0"/>
              </g>
             </g>
             <g transform="translate(17.5,32.796)">
              <rect fill-opacity="0" height="16" width="16" y="0" x="0"/>
             </g>
            </g>
            <g transform="translate(-22.5,11.455)">
             <rect fill-opacity="0" height="16" width="16" y="0" x="0"/>
            </g>
            <g transform="translate(36,8.059)">
             <rect fill-opacity="0" height="16" width="16" y="0" x="0"/>
            </g>
           </g>
           <g transform="translate(17,9.441)">
            <rect fill-opacity="0" height="16" width="16" y="0" x="0"/>
           </g>
          </g>
          <g transform="translate(275.2,265.49)">
           <rect fill-opacity="0" height="16" width="16" y="0" x="0"/>
          </g>
          <g fill-rule="evenodd" transform="matrix(2.1351,0,0,2.1676,-307.88,-307.53)">
           <path d="m183.06 280.44 0.0391 2.8961 3.9609-4.3961-4-4.5v3c-3.5 0-6.9609 2.5-6.9609 6.5h4c0-2 1.4609-3.5 2.9609-3.5z"/>
           <path fill="#00bd00" d="m183.56 279.94v1.5l2.5-2.5-2.5-3v2c-2 0-6.4609 1-6.4609 5h2c0-2 2.9609-3 4.4609-3z"/>
          </g>
         </g>
        </g>
        <g transform="translate(16.536 .035544)">
         <rect fill-opacity="0" height="16" width="16" y="0" x="0"/>
        </g>
       </g>
       <g transform="translate(-29.715,-79.978)">
        <rect fill-opacity="0" height="16" width="16" y="0" x="0"/>
       </g>
       <g transform="translate(38.078,-72.942)">
        <rect fill-opacity="0" height="16" width="16" y="0" x="0"/>
       </g>
       <g transform="translate(113.8,-57.577)">
        <rect fill-opacity="0" height="16" width="16" y="0" x="0"/>
       </g>
      </g>
      <g transform="translate(23.343,12.25)">
       <rect fill-opacity="0" height="16" width="16" y="0" x="0"/>
      </g>
     </g>
     <g transform="translate(-6.4217,-3)">
      <rect fill-opacity="0" height="16" width="16" y="0" x="0"/>
     </g>
    </g>
    <g transform="translate(17.5,32.796)">
     <rect fill-opacity="0" height="16" width="16" y="0" x="0"/>
    </g>
   </g>
   <g transform="translate(-22.5,11.455)">
    <rect fill-opacity="0" height="16" width="16" y="0" x="0"/>
   </g>
   <g transform="translate(36,8.059)">
    <g transform="translate(99.826,-19.821)">
     <g transform="translate(17,9.441)">
      <g transform="translate(-22.5,11.455)">
       <g transform="translate(17,9.441)">
        <rect fill-opacity="0" height="16" width="16" y="0" x="0"/>
       </g>
       <g transform="translate(17.5,32.796)">
        <g transform="translate(-6.4217,-3)">
         <g transform="translate(23.343,12.25)">
          <g transform="translate(-6.4217,-3)">
           <g transform="translate(28.672,1.5)">
            <rect fill-opacity="0" height="16" width="16" y="0" x="0"/>
           </g>
          </g>
          <g transform="translate(-6.4217,-3)">
           <rect fill-opacity="0" height="16" width="16" y="0" x="0"/>
          </g>
          <g transform="translate(28,-66.442)">
           <g transform="translate(-6.4217,-3)">
            <g transform="translate(37.646,10.439)">
             <g transform="translate(-.95462 3)">
              <g transform="translate(-7.6918,14.561)">
               <rect fill-opacity="0" height="16" width="16" y="0" x="0"/>
              </g>
             </g>
             <g transform="translate(-.95462 3)">
              <rect fill-opacity="0" height="16" width="16" y="0" x="0"/>
             </g>
            </g>
            <g transform="translate(37.646,10.439)">
             <rect fill-opacity="0" height="16" width="16" y="0" x="0"/>
            </g>
           </g>
           <g transform="translate(-6.4217,-3)">
            <rect fill-opacity="0" height="16" width="16" y="0" x="0"/>
           </g>
          </g>
          <g transform="translate(28,-66.442)">
           <rect fill-opacity="0" height="16" width="16" y="0" x="0"/>
          </g>
          <g transform="translate(-7.4217,-85.442)">
           <rect fill-opacity="0" height="16" width="16" y="0" x="0"/>
          </g>
          <g transform="translate(-29.715,-79.978)">
           <g transform="translate(16.536 .035544)">
            <g transform="translate(-42.641,19.607)">
             <rect fill-opacity="0" height="16" width="16" y="0" x="0"/>
            </g>
            <g transform="translate(-34.692,-27.467)">
             <g transform="translate(-27.551,62.248)">
              <g transform="translate(-17.422 -.83738)">
               <rect fill-opacity="0" height="16" width="16" y="0" x="0"/>
              </g>
              <g transform="translate(-4.7402,-3.1927)">
               <rect fill-opacity="0" height="16" width="16" y="0" x="0"/>
              </g>
             </g>
             <g transform="translate(-27.551,62.248)">
              <rect fill-opacity="0" height="16" width="16" y="0" x="0"/>
             </g>
            </g>
            <g transform="translate(-34.692,-27.467)">
             <rect fill-opacity="0" height="16" width="16" y="0" x="0"/>
            </g>
           </g>
           <g transform="translate(16.536 .035544)">
            <rect fill-opacity="0" height="16" width="16" y="0" x="0"/>
           </g>
          </g>
          <g transform="translate(-29.715,-79.978)">
           <rect fill-opacity="0" height="16" width="16" y="0" x="0"/>
          </g>
         </g>
         <g transform="translate(23.343,12.25)">
          <rect fill-opacity="0" height="16" width="16" y="0" x="0"/>
         </g>
        </g>
        <g transform="translate(-6.4217,-3)">
         <rect fill-opacity="0" height="16" width="16" y="0" x="0"/>
        </g>
       </g>
       <g transform="translate(17.5,32.796)">
        <rect fill-opacity="0" height="16" width="16" y="0" x="0"/>
       </g>
      </g>
      <g transform="translate(-22.5,11.455)">
       <rect fill-opacity="0" height="16" width="16" y="0" x="0"/>
      </g>
      <g transform="translate(36,8.059)">
       <rect fill-opacity="0" height="16" width="16" y="0" x="0"/>
      </g>
     </g>
     <g transform="translate(17,9.441)">
      <rect fill-opacity="0" height="16" width="16" y="0" x="0"/>
     </g>
    </g>
    <g transform="translate(99.826,-19.821)">
     <rect fill-opacity="0" height="16" width="16" y="0" x="0"/>
    </g>
   </g>
   <g transform="translate(36,8.059)">
    <rect fill-opacity="0" height="16" width="16" y="0" x="0"/>
   </g>
   <g transform="translate(56.088,32.079)">
    <g transform="translate(17,9.441)">
     <rect fill-opacity="0" height="16" width="16" y="0" x="0"/>
    </g>
   </g>
   <g transform="translate(56.088,32.079)">
    <rect fill-opacity="0" height="16" width="16" y="0" x="0"/>
   </g>
  </g>
  <g transform="translate(17,9.441)">
   <rect fill-opacity="0" height="16" width="16" y="0" x="0"/>
  </g>
 </g>
 <g transform="translate(0,16)">
  <rect fill-opacity="0" height="16" width="16" y="0" x="0"/>
 </g>
</svg>
