<svg id="Слой_1" data-name="Слой 1"
  xmlns:cc="http://creativecommons.org/ns#"
  xmlns:rdf="http://www.w3.org/1999/02/22-rdf-syntax-ns#"
  xmlns="http://www.w3.org/2000/svg" viewBox="0 0 26 26">
  <metadata id="metadata43">
    <rdf:RDF>
      <cc:Work rdf:about="">
        <cc:license rdf:resource="http://creativecommons.org/licenses/by/4.0/" />
      </cc:Work>
      <cc:License rdf:about="http://creativecommons.org/licenses/by/4.0/">
        <cc:permits rdf:resource="http://creativecommons.org/ns#Reproduction" />
        <cc:permits rdf:resource="http://creativecommons.org/ns#Distribution" />
        <cc:requires rdf:resource="http://creativecommons.org/ns#Notice" />
        <cc:requires rdf:resource="http://creativecommons.org/ns#Attribution" />
        <cc:permits rdf:resource="http://creativecommons.org/ns#DerivativeWorks" />
      </cc:License>
    </rdf:RDF>
  </metadata>
  <defs>
    <style>.cls-1{fill:#545454;}</style>
  </defs>
  <title>locked</title>
  <path class="cls-1" d="M19,11.4053H17V6.958a4,4,0,0,0-8,0v4.13H7V6.958a6,6,0,0,1,12,0Z"/>
  <path class="cls-1" d="M20,11.0645H6a2,2,0,0,0-2,2v10a2,2,0,0,0,2,2H20a2,2,0,0,0,2-2v-10A2,2,0,0,0,20,11.0645Zm-6,8.5473v1.736a1,1,0,0,1-2,0v-1.736a2,2,0,1,1,2,0Z"/>
</svg>