<svg xmlns="http://www.w3.org/2000/svg" height="48" width="48" version="1.0" xmlns:xlink="http://www.w3.org/1999/xlink">
 <defs>
  <linearGradient id="an" y2="13.849" gradientUnits="userSpaceOnUse" x2="28.979" gradientTransform="translate(-116.91,-44.22)" y1="28.622" x1="16.226">
   <stop stop-color="#8b8b8b" offset="0"/>
   <stop stop-color="#8b8b8b" stop-opacity="0" offset="1"/>
  </linearGradient>
  <linearGradient id="ao" y2="11.708" xlink:href="#aa" gradientUnits="userSpaceOnUse" x2="129.27" gradientTransform="matrix(.52628 0 0 .78596 -155.15 -37.182)" y1="22.589" x1="153.36"/>
  <linearGradient id="aa">
   <stop stop-color="#fff" offset="0"/>
   <stop stop-color="#fff" stop-opacity="0" offset="1"/>
  </linearGradient>
  <linearGradient id="ap" y2="33.214" gradientUnits="userSpaceOnUse" x2="135.71" gradientTransform="matrix(.76019 0 0 .76019 -191.41 -37.143)" y1="110" x1="203.57">
   <stop stop-color="#4f3a1e" offset="0"/>
   <stop stop-color="#4f3a1e" stop-opacity="0" offset="1"/>
  </linearGradient>
  <linearGradient id="aq" y2="41.539" xlink:href="#aa" gradientUnits="userSpaceOnUse" x2="127.36" gradientTransform="matrix(.69024 0 0 .6591 -179.72 -32.689)" y1="13.741" x1="115.62"/>
  <linearGradient id="at" y2="62.02" gradientUnits="userSpaceOnUse" x2="-28.537" gradientTransform="translate(-116.91,-44.22)" y1="24.645" x1="54.296">
   <stop stop-color="#965d01" stop-opacity="0" offset="0"/>
   <stop stop-color="#ab6200" offset="1"/>
  </linearGradient>
  <linearGradient id="ar" y2="11.685" gradientUnits="userSpaceOnUse" x2="98.292" gradientTransform="matrix(.76019 0 0 .76019 -189.24 -36.6)" y1="70.179" x1="156.79">
   <stop stop-color="#fb9c02" offset="0"/>
   <stop stop-color="#fff" offset="1"/>
  </linearGradient>
  <linearGradient id="as" y2="18.836" xlink:href="#aa" gradientUnits="userSpaceOnUse" x2="142.18" gradientTransform="matrix(.76019 0 0 .76019 -191.41 -37.143)" y1="16.563" x1="116.42"/>
  <radialGradient id="ay" gradientUnits="userSpaceOnUse" cy="4.2801" cx="123.57" gradientTransform="matrix(1.2373 1.1904 -.87346 .90788 -246.63 -189.76)" r="18.304">
   <stop stop-color="#fff" offset="0"/>
   <stop stop-color="#b3b0a7" offset="1"/>
  </radialGradient>
  <filter id="ag" height="1.9436" width="1.15" color-interpolation-filters="sRGB" y="-.47181" x="-.074990">
   <feGaussianBlur stdDeviation="1.4154412"/>
  </filter>
  <linearGradient id="av" y2="32.162" gradientUnits="userSpaceOnUse" x2="40.938" gradientTransform="matrix(.63853 0 0 .69647 -37.821 -3.0264)" y1="32.162" x1="6.7268">
   <stop stop-color="#ead200" offset="0"/>
   <stop stop-color="#fff16a" offset="0.21"/>
   <stop stop-color="#b5a300" offset="0.84"/>
   <stop stop-color="#e8d000" offset="1"/>
  </linearGradient>
  <linearGradient id="al" y2="36.127" gradientUnits="userSpaceOnUse" x2="30.875" gradientTransform="matrix(.63683 0 0 .68893 -37.771 -1.8896)" y1="25.002" x1="10.907">
   <stop stop-color="#fff" offset="0"/>
   <stop stop-color="#fff" stop-opacity=".49485" offset="1"/>
  </linearGradient>
  <linearGradient id="am" y2="17" gradientUnits="userSpaceOnUse" x2="24.75" gradientTransform="matrix(.63798 0 0 .92464 -37.808 -3.9886)" y1="21" x1="24.875">
   <stop stop-color="#fffac7" offset="0"/>
   <stop stop-color="#fff8b2" offset="1"/>
  </linearGradient>
  <radialGradient id="ad" xlink:href="#ab" gradientUnits="userSpaceOnUse" cy="20.312" cx="15.938" gradientTransform="matrix(1 0 0 .58491 0 8.4316)" r="3.3125"/>
  <linearGradient id="ab">
   <stop offset="0"/>
   <stop stop-opacity="0" offset="1"/>
  </linearGradient>
  <linearGradient id="au" y2="20.094" gradientUnits="userSpaceOnUse" x2="34" gradientTransform="translate(-38.777,11.701)" y1="20.094" x1="17.188">
   <stop offset="0"/>
   <stop stop-opacity=".17172" offset=".5"/>
   <stop offset="1"/>
  </linearGradient>
  <filter id="ah" height="4.0438" width="1.2829" color-interpolation-filters="sRGB" y="-1.5219" x="-.14144">
   <feGaussianBlur stdDeviation="1.1889706"/>
  </filter>
  <linearGradient id="ak" y2="17.47" gradientUnits="userSpaceOnUse" x2="27.192" gradientTransform="translate(0,-1.9263)" y1="2.9137" x1="10.651">
   <stop stop-color="#cad0c6" offset="0"/>
   <stop stop-color="#eaece9" offset=".5"/>
   <stop stop-color="#c5cbc0" offset="1"/>
  </linearGradient>
  <linearGradient id="aw" y2="14.85" xlink:href="#ab" gradientUnits="userSpaceOnUse" x2="33.004" gradientTransform="translate(1.6824,1.125)" y1="14.85" x1="35.005"/>
  <filter id="ac" height="1.0952" width="1.4849" color-interpolation-filters="sRGB" y="-.047579" x="-.24243">
   <feGaussianBlur stdDeviation="0.24444548"/>
  </filter>
  <linearGradient id="ax" y2="13.789" xlink:href="#ab" gradientUnits="userSpaceOnUse" x2="35.021" gradientTransform="translate(-19.533,1.7437)" y1="13.789" x1="32.128"/>
  <filter id="ae" color-interpolation-filters="sRGB">
   <feGaussianBlur stdDeviation="0.8362597"/>
  </filter>
  <linearGradient id="aj" y2="18.038" gradientUnits="userSpaceOnUse" x2="21.942" gradientTransform="matrix(.6374 0 0 .58679 -37.794 3.1212)" y1="21.551" x1="21.942">
   <stop stop-color="#fff" offset="0"/>
   <stop stop-color="#fff" stop-opacity="0" offset="1"/>
  </linearGradient>
  <filter id="af" height="1.1647" width="1.9882" color-interpolation-filters="sRGB" y="-.082353" x="-.49412">
   <feGaussianBlur stdDeviation="0.69878785"/>
  </filter>
  <radialGradient id="az" gradientUnits="userSpaceOnUse" cy="6.2807" cx="18.031" r="3.182">
   <stop stop-color="#fff" offset="0"/>
   <stop stop-color="#fff" stop-opacity="0" offset="1"/>
  </radialGradient>
  <filter id="ai" height="1.8271" width="1.1702" color-interpolation-filters="sRGB" y="-.41357" x="-.085116">
   <feGaussianBlur stdDeviation="0.42546784"/>
  </filter>
 </defs>
 <g transform="matrix(.8143 0 0 .79468 147.74 36.924)">
  <path opacity=".2" stroke-linejoin="round" style="color:#000000" d="m-83.791-36.711c-7.6664 0-13.826 6.1841-13.826 13.85v6.1528c-2.5599 0.56208-4.5136 2.7303-4.5136 5.4638v15.465c0 3.1586 2.5428 5.7014 5.7014 5.7014h25.252c3.1586 0 5.7014-2.5428 5.7014-5.7014v-15.465c0-2.7217-1.923-4.8895-4.4661-5.4638v-6.1528c0-7.6664-6.1832-13.85-13.85-13.85zm0 5.3451c4.7414 0.000001 8.5758 3.8345 8.5758 8.5759v5.8439h-17.128v-5.844c0-4.7427 3.8107-8.5759 8.5521-8.5759z" fill-rule="evenodd" stroke="#000" stroke-width=".95023"/>
  <path stroke-linejoin="round" style="color:#000000" d="m-85.791-38.721c-7.6664 0-13.826 6.1841-13.826 13.85v13.042c0 7.6656 6.1603 13.826 13.826 13.826 7.6656 0 13.85-6.1594 13.85-13.826v-13.042c0-7.6664-6.1832-13.85-13.85-13.85zm0 5.3451c4.7414 0 8.5758 3.8345 8.5758 8.5759v10.785c0 4.7414-3.8332 8.5521-8.5758 8.5521-4.7427 0-8.5521-3.8094-8.5521-8.5521v-10.785c0-4.7427 3.8107-8.5759 8.5521-8.5759z" fill-rule="evenodd" stroke="#656565" stroke-width=".95023" fill="url(#ay)"/>
  <path stroke-linejoin="round" style="color:#000000" d="m-85.791-38.721c-7.6664 0-13.826 6.1841-13.826 13.85v13.042c0 7.6656 6.1603 13.826 13.826 13.826 7.6656 0 13.85-6.1594 13.85-13.826v-13.042c0-7.6664-6.1832-13.85-13.85-13.85zm0 5.3451c4.7414 0 8.5758 3.8345 8.5758 8.5759v10.785c0 4.7414-3.8332 8.5521-8.5758 8.5521-4.7427 0-8.5521-3.8094-8.5521-8.5521v-10.785c0-4.7427 3.8107-8.5759 8.5521-8.5759z" fill-rule="evenodd" stroke="#8b8b8b" stroke-width=".95023" fill="url(#as)"/>
  <rect stroke-linejoin="round" style="color:#000000" ry="5.7014" height="26.887" width="36.655" stroke="#4f3a1e" y="-18.958" x="-104.13" stroke-width=".95023" fill="url(#ar)"/>
  <path style="color:#000000" fill="url(#at)" d="m-99.063 3.0925h26.865c0.74448 0 1.3438 0.59935 1.3438 1.3438 0 0.74448-0.59935 1.3438-1.3438 1.3438h-26.865c-0.74448 0-1.3438-0.59935-1.3438-1.3438 0-0.74448 0.59935-1.3438 1.3438-1.3438zm0-4.9914h26.865c0.74448 0 1.3438 0.59935 1.3438 1.3438 0 0.74448-0.59935 1.3438-1.3438 1.3438h-26.865c-0.74448 0-1.3438-0.59935-1.3438-1.3438 0-0.74449 0.59935-1.3438 1.3438-1.3438zm0-4.9914h26.865c0.74448 0 1.3438 0.59935 1.3438 1.3438 0 0.74448-0.59935 1.3438-1.3438 1.3438h-26.865c-0.74448 0-1.3438-0.59935-1.3438-1.3438 0-0.74448 0.59935-1.3438 1.3438-1.3438zm0-4.9914h26.865c0.74448 0 1.3438 0.59935 1.3438 1.3438 0 0.74448-0.59935 1.3438-1.3438 1.3438h-26.865c-0.74448 0-1.3438-0.59935-1.3438-1.3438 0-0.74448 0.59935-1.3438 1.3438-1.3438zm0-4.9914h26.865c0.74448 0 1.3438 0.59935 1.3438 1.3438 0 0.74448-0.59935 1.3438-1.3438 1.3438h-26.865c-0.74448 0-1.3438-0.59935-1.3438-1.3438 0-0.74448 0.59935-1.3438 1.3438-1.3438z"/>
  <path style="color:#000000" fill="url(#aq)" d="m-97.262-17.392h22.929c2.868 0 5.1768 2.2047 5.1768 4.9433 0 0-5.7103 7.1939-12.819 3.7743-12.605-6.0638-20.464 12.39-20.464 9.6512v-13.426c0-2.7386 2.3089-4.9433 5.1768-4.9433z"/>
  <path style="color:#000000" fill="url(#ap)" d="m-74.249 5.8802c3.3215 0.0278 4.278-2.3129 4.4042-5.7465 0.21582-5.8745-0.30658-18.005-0.30658-18.005 3.031 0 2.4847 1.8971 2.4847 4.9281l0.54299 15.402c0 3.031-2.1686 5.1996-5.1996 5.1996l-26.133 0.2715c-1.402-0.54299-3.8421-1.0826-3.8421-2.4847 0 0 10.421 0.28793 28.049 0.43542z"/>
  <path style="color:#000000" fill-rule="evenodd" fill="url(#ao)" d="m-82.811-36.533c7.0589 1.9005 8.367 8.8045 8.367 10.317v6.7874h-1.5796v-6.7874c0-3.6241-2.9864-8.5068-6.7874-10.317z"/>
  <path style="color:#000000" fill-rule="evenodd" fill="url(#an)" d="m-87.071-33.755c-8.0176 1.5918-9.5034 4.7269-9.5034 9.6514v4.6749h1.7941v-5.685c0-3.0355 3.3921-7.1252 7.7093-8.6412z"/>
 </g>
 <g transform="matrix(1.3435,0,0,1.3225,54.723,2.1876)">
  <rect opacity=".45882" transform="matrix(.67466 0 0 .61643 -39.366 .63463)" fill-rule="evenodd" rx="3.1709" ry="1.9748" height="6" filter="url(#ag)" width="37.75" y="39.75" x="6.25"/>
  <path stroke-linejoin="round" d="m-32.244 11.422c6.4375-0.88975 12.943-0.75162 19.49 0 0.79061 0 1.4271 0.64328 1.4271 1.4423v14.375c0 0.79906-0.67756 1.3268-1.4271 1.4423-6.7876 0.74502-12.607 0.73913-19.49 0-0.91384-0.26969-1.4271-0.64328-1.4271-1.4423v-14.375c0-0.79906 0.63648-1.4423 1.4271-1.4423z" fill-rule="evenodd" stroke="#7d6400" stroke-linecap="round" stroke-width=".63651" fill="url(#av)"/>
  <g fill-rule="evenodd" transform="matrix(.65725 0 0 .61643 -39.257 .63463)">
   <path opacity=".14118" d="m41.94 24.445c-0.39821 1.3303-4.5342 1.6704-5.3021 1.7734 0 0-16.309 0.48047-16.309 0.48047l16.263 0.15913c0.82591-0.09712 5.2187 0.10339 5.4361-1.7059l-0.08839-0.70711z"/>
   <path opacity=".14118" d="m41.94 26.445c-0.39821 1.3303-4.5342 1.6704-5.3021 1.7734 0 0-19.059 0.48047-19.059 0.48047l19.013 0.15913c0.82591-0.09712 5.2187 0.10339 5.4361-1.7059l-0.08839-0.70711z"/>
   <path opacity=".14118" d="m41.94 28.445c-0.39821 1.3303-4.5342 1.6704-5.3021 1.7734 0 0-16.309 0.48047-16.309 0.48047l16.263 0.15913c0.82591-0.09712 5.2187 0.10339 5.4361-1.7059l-0.08839-0.70711z"/>
   <path opacity=".14118" d="m41.94 30.445c-0.39821 1.3303-4.5342 1.6704-5.3021 1.7734l-11.059 0.48047 11.013 0.15913c0.82591-0.09712 5.2187 0.10339 5.4361-1.7059l-0.08839-0.70711z"/>
   <path opacity=".14118" d="m41.94 32.445c-0.39821 1.3303-4.5342 1.6704-5.3021 1.7734 0 0-16.309 0.48047-16.309 0.48047l16.263 0.15913c0.82591-0.09712 5.2187 0.10339 5.4361-1.7059l-0.08839-0.70711z"/>
   <path opacity=".14118" d="m41.94 34.445c-0.39821 1.3303-4.5342 1.6704-5.3021 1.7734 0 0-18.746 0.48047-18.746 0.48047l18.701 0.15913c0.82591-0.09712 5.2187 0.10339 5.4361-1.7059l-0.08839-0.70711z"/>
   <path opacity=".14118" d="m41.94 36.445c-0.39821 1.3303-4.5342 1.6704-5.3021 1.7734l-13.996 0.48047 13.951 0.15913c0.82591-0.09712 5.2187 0.10339 5.4361-1.7059l-0.08839-0.70711z"/>
   <path opacity=".14118" d="m41.94 38.445c-0.39821 1.3303-4.5342 1.6704-5.3021 1.7734l-8.4339 0.48047 8.3882 0.15913c0.82591-0.09712 5.2187 0.10339 5.4361-1.7059l-0.08839-0.70711z"/>
   <path opacity=".14118" d="m41.94 40.445c-0.39821 1.3303-4.5342 1.6704-5.3021 1.7734 0 0-16.309 0.48047-16.309 0.48047l16.263 0.15913c0.82591-0.09712 5.2187 0.10339 5.4361-1.7059l-0.08839-0.70711z"/>
  </g>
  <path stroke-linejoin="round" d="m-32.192 12.344h19.392c0.455 0 0.82129 0.3613 0.82129 0.81008v14.102c0 0.44878-0.32522 0.65598-0.82129 0.81008-6.3408 0.74194-12.599 0.74022-19.392 0-0.455-0.15411-0.82129-0.3613-0.82129-0.81008v-14.102c0-0.44878 0.3663-0.81008 0.82129-0.81008z" stroke-opacity=".60109" stroke="url(#al)" stroke-linecap="round" stroke-width=".63651" fill="none"/>
  <path fill-rule="evenodd" fill="url(#am)" d="m-32.285 11.73c6.526-0.90044 13.052-0.74006 19.578 0 0.5854 0 1.0567 0.44201 1.0567 0.99104v1.7165c0 0.54904-0.47128 0.99104-1.0567 0.99104-6.8103 0.4254-13.076 0.27358-19.578 0-0.5854 0-1.0567-0.44201-1.0567-0.99104v-1.7165c0-0.54904 0.47128-0.99104 1.0567-0.99104z"/>
  <path opacity=".36471" d="m19.25 20.312a3.3125 1.9375 0 1 1 -6.625 0 3.3125 1.9375 0 1 1 6.625 0z" fill-rule="evenodd" transform="matrix(.91167 0 0 .85504 -43.312 -4.2123)" fill="url(#ad)"/>
  <path opacity=".34706" d="m19.25 20.312a3.3125 1.9375 0 1 1 -6.625 0 3.3125 1.9375 0 1 1 6.625 0z" fill-rule="evenodd" transform="matrix(.91167 0 0 .85504 -30.742 -4.2123)" fill="url(#ad)"/>
  <rect opacity=".48235" transform="matrix(.65725 0 0 .61643 -13.771 -6.8866)" fill-rule="evenodd" rx=".78125" ry=".78125" height="1.5625" filter="url(#ah)" width="16.812" y="31.014" x="-21.59" fill="url(#au)"/>
  <g fill-rule="evenodd" transform="matrix(.58599 0 0 .61643 -36.6 .33133)">
   <path d="m10.64 20.235v-5.7348c0-7.8701 5.258-11.609 13.38-11.511 8.167 0.0986 13.48 3.5483 13.48 11.511v5.9848c0 1.9542-5.4907 2.203-5.4907 0v-3.9848c0-2 0.56845-8.4719-7.9321-8.4719-8.4304 0-7.8162 6.5117-7.7835 8.4639v3.7765c0 2.3546-5.6536 2.3446-5.6536-0.03368z" stroke="#888a85" stroke-width="1.0591" fill="url(#ak)"/>
   <path opacity=".18235" d="m34.687 10.837 1.2639 0.125c0.92724 2.8227 0.73605 9.5104 0.73605 9.5104-0.0625 1.125-2.0312 0.53125-2 0v-9.635z" filter="url(#ac)" fill="url(#aw)"/>
   <path opacity=".14118" d="m12.927 11.544 0.37172 0.1692c1.7203 1.055 2.1735 9.3778 2.1735 9.3778-0.0625 1.125-2.0312 0.53125-2 0 0 0 0.37822-6.8706-0.54525-9.547z" transform="matrix(-1 0 0 1 29.059 -.61872)" filter="url(#ac)" fill="url(#ax)"/>
  </g>
  <path opacity=".62353" d="m-23.402 31.826 0.125-7.5c0-9.8764 18.687-10.676 18.687 0.875v6.875" transform="matrix(.65725 0 0 .61643 -13.771 -6.8866)" filter="url(#ae)" stroke="#fff" stroke-linecap="round" stroke-width="2" fill="none"/>
  <path stroke-linejoin="round" d="m-32.248 13.39h19.504c0.42381 0 0.765 0.30155 0.765 0.67613v0.40812c0 0.37457-0.34119 0.67613-0.765 0.67613-6.4407 0.73976-12.954 0.78503-19.504 0-0.42381 0-0.765-0.30155-0.765-0.67613v-0.40812c0-0.37457 0.34119-0.67613 0.765-0.67613z" stroke="url(#aj)" stroke-linecap="round" stroke-width=".63651" fill="none"/>
  <rect opacity=".29412" transform="matrix(1.2963 0 0 .75718 -49.487 -2.6345)" fill-rule="evenodd" rx="1.6077" ry="1.6077" height="16.971" filter="url(#af)" width="2.8284" y="23.226" x="14.594" fill="#fff"/>
  <g fill-rule="evenodd" transform="matrix(.65725 0 0 .61643 -38.676 .30773)">
   <path fill="url(#az)" d="m21.213 6.2807a3.182 3.182 0 1 1 -6.364 0 3.182 3.182 0 1 1 6.364 0z"/>
   <path fill="#fff" d="m21.213 6.2807a3.182 3.182 0 1 1 -6.364 0 3.182 3.182 0 1 1 6.364 0z" transform="matrix(.43433 0 0 .43433 10.2 3.5528)"/>
  </g>
  <path d="m-17.061 16.157c2.4527-0.59029 5.0531-0.62823 7.6129 0 1.6877 0.41421 1.2334 1.8891 0 1.5435-2.5326-0.70972-5.0965-0.51995-7.6129 0-1.7792 0.36762-1.6395-1.1489 0-1.5435z" fill-rule="evenodd" transform="matrix(.65725 0 0 .61643 -13.771 -6.8866)" filter="url(#ai)" fill="#fff"/>
 </g>
</svg>
