<svg xmlns="http://www.w3.org/2000/svg" height="48" width="48" version="1.1" xmlns:xlink="http://www.w3.org/1999/xlink">
 <defs>
  <linearGradient id="be" y2="860.01" xlink:href="#a" gradientUnits="userSpaceOnUse" x2="1044.9" gradientTransform="matrix(.16935 0 0 .1386 -345.89 -112.81)" y1="818.26" x1="1117.7"/>
  <linearGradient id="a">
   <stop stop-color="#fff" offset="0"/>
   <stop stop-color="#babaff" offset=".5"/>
   <stop stop-color="#fff" offset="1"/>
  </linearGradient>
  <linearGradient id="bd" y2="794.02" xlink:href="#a" gradientUnits="userSpaceOnUse" x2="1174.7" gradientTransform="matrix(.16985 0 0 .13819 -345.89 -112.81)" y1="829.59" x1="1117.1"/>
  <linearGradient id="aq" y2="860.01" xlink:href="#a" gradientUnits="userSpaceOnUse" x2="1044.9" gradientTransform="matrix(1.1054 0 0 .90468 -490.62 153.09)" y1="818.26" x1="1117.7"/>
  <linearGradient id="ar" y2="794.02" xlink:href="#a" gradientUnits="userSpaceOnUse" x2="1174.7" gradientTransform="matrix(1.1087 0 0 .90199 -490.62 153.09)" y1="829.59" x1="1117.1"/>
  <linearGradient id="az" y2="279.94" xlink:href="#ad" gradientUnits="userSpaceOnUse" x2="57.181" gradientTransform="matrix(.90972 0 0 1.0992 -83.773 94)" y1="302.2" x1="79.581"/>
  <linearGradient id="ad">
   <stop stop-color="#bfbfff" offset="0"/>
   <stop stop-color="#fff" offset="1"/>
  </linearGradient>
  <linearGradient id="ba" y2="10.279" xlink:href="#ae" gradientUnits="userSpaceOnUse" x2="27.021" gradientTransform="matrix(1.0137 0 0 .98652 -35.472 397.09)" y1="3.1043" x1="21.411"/>
  <linearGradient id="ae">
   <stop stop-color="#fff" offset="0"/>
   <stop stop-color="#2a2a2a" offset="1"/>
  </linearGradient>
  <linearGradient id="ag" y2="309.64" xlink:href="#ad" gradientUnits="userSpaceOnUse" x2="48.17" gradientTransform="matrix(1.0667,0,0,1.0667,-3.73,-24.546)" y1="334.04" x1="72.828"/>
  <linearGradient id="bb" y2="279.94" xlink:href="#ad" gradientUnits="userSpaceOnUse" x2="57.181" gradientTransform="matrix(.90972 0 0 1.0992 -.06309 -.00061)" y1="302.2" x1="79.581"/>
  <linearGradient id="bc" y2="10.279" xlink:href="#ae" gradientUnits="userSpaceOnUse" x2="27.021" gradientTransform="matrix(1.0137 0 0 .98652 48.239 303.09)" y1="3.1043" x1="21.411"/>
  <linearGradient id="ay" y2="367.15" xlink:href="#ah" gradientUnits="userSpaceOnUse" x2="46.317" gradientTransform="matrix(1.1481 0 0 .87099 -49.778 126.41)" y1="367.15" x1="66.672"/>
  <linearGradient id="ah">
   <stop offset="0"/>
   <stop stop-opacity="0" offset="1"/>
  </linearGradient>
  <linearGradient id="ax" y2="370.21" xlink:href="#af" gradientUnits="userSpaceOnUse" x2="49.716" gradientTransform="matrix(1.1619 0 0 .86066 -49.778 126.41)" y1="369.84" x1="64.673"/>
  <linearGradient id="af">
   <stop stop-color="#ff7800" offset="0"/>
   <stop stop-color="#fff" offset="1"/>
  </linearGradient>
  <linearGradient id="aw" y2="299.97" xlink:href="#ah" gradientUnits="userSpaceOnUse" x2="64.928" gradientTransform="matrix(.93859 0 0 1.0654 -49.778 126.41)" y1="300.27" x1="54.208"/>
  <linearGradient id="av" y2="296.57" xlink:href="#af" gradientUnits="userSpaceOnUse" x2="63.559" gradientTransform="matrix(.92796 0 0 1.0776 -49.778 126.41)" y1="296.57" x1="55.207"/>
  <linearGradient id="ai" y2="321.87" xlink:href="#a" gradientUnits="userSpaceOnUse" x2="64.625" gradientTransform="scale(1.026 .97468)" y1="317.07" x1="52.584"/>
  <linearGradient id="aj" y2="339.91" xlink:href="#a" gradientUnits="userSpaceOnUse" x2="67.543" gradientTransform="scale(1.0667 .93751)" y1="336.47" x1="56.376"/>
  <linearGradient id="as" y2="335.8" xlink:href="#ad" gradientUnits="userSpaceOnUse" x2="69.796" gradientTransform="scale(1.0492 .95311)" y1="335.8" x1="55.023"/>
  <linearGradient id="ak" y2="279.94" xlink:href="#ad" gradientUnits="userSpaceOnUse" x2="57.181" gradientTransform="matrix(0.7937,0,0,1.0992,11.348,-1e-5)" y1="302.2" x1="79.581"/>
  <linearGradient id="al" y2="144.19" xlink:href="#ad" gradientUnits="userSpaceOnUse" x2="100.92" gradientTransform="scale(.45486 2.1985)" y1="144.09" x1="117.74"/>
  <linearGradient id="am" y2="454.07" xlink:href="#ae" gradientUnits="userSpaceOnUse" x2="38.496" gradientTransform="matrix(1.6374 0 0 .32747 -5.8033 157.9)" y1="454.07" x1="35.443"/>
  <linearGradient id="an" y2="454.07" xlink:href="#ae" gradientUnits="userSpaceOnUse" x2="38.496" gradientTransform="matrix(1.6374 0 0 .32747 -5.8033 165.9)" y1="454.07" x1="35.443"/>
  <linearGradient id="ao" y2="454.07" xlink:href="#ae" gradientUnits="userSpaceOnUse" x2="38.496" gradientTransform="matrix(1.6374 0 0 .32747 -5.8033 173.9)" y1="454.07" x1="35.443"/>
  <linearGradient id="ap" y2="454.07" xlink:href="#ae" gradientUnits="userSpaceOnUse" x2="38.496" gradientTransform="matrix(1.6374 0 0 .32747 -5.8033 181.9)" y1="454.07" x1="35.443"/>
  <linearGradient id="at" y2="360.02" xlink:href="#a" gradientUnits="userSpaceOnUse" x2="67.794" gradientTransform="scale(1.1097 .90116)" y1="364.34" x1="64.572"/>
  <linearGradient id="au" y2="232.86" gradientUnits="userSpaceOnUse" x2="87.564" gradientTransform="matrix(0.70711,0,0,1.4142,7.7517e-6,1)" y1="219.93" x1="74.748">
   <stop stop-color="#fff" offset="0"/>
   <stop stop-color="#afadff" offset="1"/>
  </linearGradient>
 </defs>
 <path fill="#a0a0a0" d="m-71.248-52.71h14v23h-14v-23z"/>
 <path fill="#fff" d="m-70.248-51.711h12v21h-12v-21z"/>
 <path fill-rule="evenodd" d="m-68.247-49.711v8l7-4-7-4z"/>
 <path fill-rule="evenodd" fill="#ff7800" d="m-67.246-48.21v5l4-2.5-4-2.5z"/>
 <path d="m946.66 445.25a7.6215 7.6215 0 1 1 -15.243 0 7.6215 7.6215 0 1 1 15.243 0z" transform="matrix(.26241 0 0 .26241 -307.66 -162.55)"/>
 <path fill="#ff7800" d="m946.66 445.25a7.6215 7.6215 0 1 1 -15.243 0 7.6215 7.6215 0 1 1 15.243 0z" transform="matrix(.13124 0 0 .13124 -184.49 -104.15)"/>
 <rect y="-47.71" width="4.0005" x="-72.247" height="1"/>
 <rect y="-44.71" width="4.0005" x="-72.247" height="1"/>
 <rect height="1" width="2.999" y="-46.21" x="-59.246" fill="#030100"/>
 <path fill-rule="evenodd" d="m-68.248-40.71v8l7-4-7-4z"/>
 <path fill-rule="evenodd" fill="#ff7800" d="m-67.248-39.21v5l4-2.5-4-2.5z"/>
 <path d="m946.66 445.25a7.6215 7.6215 0 1 1 -15.243 0 7.6215 7.6215 0 1 1 15.243 0z" transform="matrix(.26241 0 0 .26241 -307.66 -153.55)"/>
 <path fill="#ff7800" d="m946.66 445.25a7.6215 7.6215 0 1 1 -15.243 0 7.6215 7.6215 0 1 1 15.243 0z" transform="matrix(.13124 0 0 .13124 -184.49 -95.145)"/>
 <rect y="-38.71" width="4.0005" x="-72.248" height="1"/>
 <rect y="-35.71" width="4.0005" x="-72.248" height="1"/>
 <rect height="1" width="2.999" y="-37.21" x="-59.247" fill="#030100"/>
 <rect height="33.235" width="33.235" y="-11.661" x="-181.44" fill="none"/>
 <path d="m-164.75 14.235c0.55953-1.4449 8.1094-7.0252 12.782-4.5079l-7.5663-10.722c-4.8789-2.3359-11.28 1.6173-11.941 4.8022l6.7244 10.428z" fill-rule="evenodd" stroke="#000" stroke-width=".16807px" fill="url(#be)"/>
 <path d="m-140.57 5.1293c-2.319-1.5704-10.859-0.78146-11.343 4.483l-7.8187-10.841c0.38758-4.7138 8.6294-5.3222 11.776-4.2846l7.3854 10.642z" fill-rule="evenodd" stroke="#000" stroke-width=".16807px" fill="url(#bd)"/>
 <path d="m-164.76 14.231c1.3783-1.6916 8.0048-7.2031 12.829-4.4201-0.053-4.7475 6.4145-6.1117 11.292-4.8021l-0.58314 1.8553s-8.3759-1.146-8.694 4.0381l-2.9315 1.6191c-0.42551-1.1166-4.4448-2.0602-9.6636 2.9941l-2.2483-1.2845z" fill-rule="evenodd" stroke="#000" stroke-width=".16807px" fill="#5b5a71"/>
 <g transform="matrix(.096912 -.042917 .058897 .065596 -315.64 -12.388)" stroke="#000">
  <path stroke-linejoin="round" d="m1168.9 934.13a35.928 35.928 0 1 1 -71.856 0 35.928 35.928 0 1 1 71.856 0z" stroke-width="3.75" fill="#fff"/>
  <path stroke-width="3.5444" fill="none" d="m1158.6 883.69v27.05l-30.729 21.824 30.729 25.138v22.62"/>
  <path stroke-width="3.5444" fill="none" d="m1121.8 931.05h-38.183"/>
  <rect stroke-linejoin="round" height="48.529" width="10.616" y="909.82" x="1117.2" stroke-width="3.0246" fill="#ff7800"/>
  <path d="m1151.5 938.58-12.093 12.093 17.773 5.3943-5.68-17.487z" fill-rule="evenodd" stroke-width="3.0246" fill="#ff7800"/>
 </g>
 <g transform="matrix(.2907 0 0 .2907 -374.78 -72.13)">
  <rect height="114.88" width="114.88" y="154.08" x="855.38" fill="none"/>
  <g transform="matrix(.52955 0 0 .52955 516.69 -278.93)">
   <path d="m781.08 850.26c-23.913-0.29796-54.665 7.7054-56.562 30.781l-0.035 0.0891c-31.798-14.869-72.263 12.047-76.559 32.755l43.875 68 14.656 8.4375c34.064-32.99 60.285-26.85 63.062-19.562l19.125-10.562c2.0761-33.837 56.75-26.344 56.75-26.344l3.6562-11.625 0.125-0.375-47.781-68.781c-5.1343-1.6931-12.342-2.7132-20.312-2.8125z" fill-rule="evenodd" stroke="#000" stroke-width="6" fill="#fff"/>
   <path d="m691.74 982.31c3.6521-9.4311 52.931-45.855 83.433-29.424l-49.39-69.99c-31.846-15.247-73.625 10.556-77.938 31.345l43.891 68.064z" fill-rule="evenodd" stroke="#000" stroke-width="1.097px" fill="url(#aq)"/>
   <path d="m849.52 922.87c-15.136-10.25-70.881-5.1007-74.035 29.262l-51.034-70.76c2.5298-30.768 56.325-34.739 76.862-27.967l48.206 69.465z" fill-rule="evenodd" stroke="#000" stroke-width="1.097px" fill="url(#ar)"/>
   <path d="m691.69 982.28c8.9964-11.042 52.249-47.016 83.736-28.851-0.346-30.988 41.868-39.892 73.702-31.344l-3.8062 12.11s-54.671-7.4798-56.747 26.357l-19.134 10.568c-2.7774-7.2879-29.012-13.447-63.076 19.543l-14.675-8.3842z" fill-rule="evenodd" stroke="#000" stroke-width="1.097px" fill="#5b5a71"/>
   <g stroke-linejoin="round" transform="matrix(.35362 .43423 -.52958 .19913 898.06 303.03)">
    <rect transform="rotate(-90)" height="122.32" width="81.237" stroke="#000" y="901.26" x="-1050.4" stroke-width="4" fill="#fff"/>
    <rect transform="rotate(-90)" height="21.011" width="39.475" stroke="#030303" y="916.93" x="-1069" stroke-width="4" fill="#ff7800"/>
    <path d="m654.65 737.28a9.5805 9.5805 0 1 1 -19.161 0 9.5805 9.5805 0 1 1 19.161 0z" transform="matrix(0 -.59813 .59813 0 486.45 1435.1)" stroke="#030303" stroke-width="6.6875" fill="#ffede0"/>
    <rect transform="rotate(-90)" height="21.011" width="39.475" stroke="#030303" y="950.42" x="-1069" stroke-width="4" fill="#ff7800"/>
    <path d="m654.65 737.28a9.5805 9.5805 0 1 1 -19.161 0 9.5805 9.5805 0 1 1 19.161 0z" transform="matrix(0 -.59813 .59813 0 519.94 1435.1)" stroke="#030303" stroke-width="6.6875" fill="#ffede0"/>
    <rect transform="rotate(-90)" height="21.011" width="39.475" stroke="#030303" y="983.92" x="-1069" stroke-width="4" fill="#ff7800"/>
    <path d="m654.65 737.28a9.5805 9.5805 0 1 1 -19.161 0 9.5805 9.5805 0 1 1 19.161 0z" transform="matrix(0 -.59813 .59813 0 553.44 1435.1)" stroke="#030303" stroke-width="6.6875" fill="#ffede0"/>
    <rect transform="rotate(-90)" height="21.011" width="39.475" stroke="#030303" y="916.93" x="-987.62" stroke-width="4" fill="#ff7800"/>
    <path d="m654.65 737.28a9.5805 9.5805 0 1 1 -19.161 0 9.5805 9.5805 0 1 1 19.161 0z" transform="matrix(0 -.59813 .59813 0 486.45 1353.7)" stroke="#030303" stroke-width="6.6875" fill="#ffede0"/>
    <rect transform="rotate(-90)" height="21.011" width="39.475" stroke="#030303" y="950.42" x="-987.62" stroke-width="4" fill="#ff7800"/>
    <path d="m654.65 737.28a9.5805 9.5805 0 1 1 -19.161 0 9.5805 9.5805 0 1 1 19.161 0z" transform="matrix(0 -.59813 .59813 0 519.94 1353.7)" stroke="#030303" stroke-width="6.6875" fill="#ffede0"/>
    <rect transform="rotate(-90)" height="21.011" width="39.475" stroke="#030303" y="983.92" x="-987.62" stroke-width="4" fill="#ff7800"/>
    <path d="m654.65 737.28a9.5805 9.5805 0 1 1 -19.161 0 9.5805 9.5805 0 1 1 19.161 0z" transform="matrix(0 -.59813 .59813 0 553.44 1353.7)" stroke="#030303" stroke-width="6.6875" fill="#ffede0"/>
    <path d="m693.26 625.06a18.914 18.914 0 0 1 -37.828 0.11702" transform="matrix(0 -.59813 .59813 0 527.57 1411.4)" stroke="#030303" stroke-width="6.6875" fill="none"/>
   </g>
   <g stroke-linejoin="round" transform="translate(221.85,5.8897)">
    <path d="m519.26 923.49a24.259 24.259 0 1 1 -48.518 0h24.259z" transform="matrix(.8375 1.0541 -1.3977 .59701 1447.3 -195.25)" stroke="#000" stroke-width="1.559" fill="#fff"/>
    <g transform="translate(76.567,-68.959)" stroke="#030303">
     <rect transform="matrix(.93602 -.35195 .63147 .7754 0 0)" height="11.766" width="22.334" y="1093.2" x="-242.96" stroke-width="2.2492" fill="#ff7800"/>
     <path d="m654.65 737.28a9.5805 9.5805 0 1 1 -19.161 0 9.5805 9.5805 0 1 1 19.161 0z" transform="matrix(.31676 -.11911 .21151 .25972 116.82 819.18)" stroke-width="6.6875" fill="#ffede0"/>
    </g>
    <g transform="translate(70.186,-65.033)" stroke="#030303">
     <rect transform="matrix(.93602 -.35195 .63147 .7754 0 0)" height="11.766" width="22.334" y="1111.8" x="-260.8" stroke-width="2.2515" fill="#ff7800"/>
     <path d="m654.65 737.28a9.5805 9.5805 0 1 1 -19.161 0 9.5805 9.5805 0 1 1 19.161 0z" transform="matrix(.31676 -.11911 .21151 .25972 111.86 839.88)" stroke-width="6.6875" fill="#ffede0"/>
    </g>
    <g transform="translate(75.83,-67.487)" stroke="#030303">
     <rect transform="matrix(.93602 -.35195 .63147 .7754 0 0)" height="11.766" width="22.334" y="1130.7" x="-242.96" stroke-width="2.2515" fill="#ff7800"/>
     <path d="m654.65 737.28a9.5805 9.5805 0 1 1 -19.161 0 9.5805 9.5805 0 1 1 19.161 0z" transform="matrix(.31676 -.11911 .21151 .25972 140.5 848.27)" stroke-width="6.6875" fill="#ffede0"/>
    </g>
   </g>
  </g>
 </g>
 <g transform="translate(-150.78,-361.4)">
  <path fill-opacity=".39216" d="m-34.472 399.09 1-1h19l6 7v23l-1 1h-24l-1-1v-29z"/>
  <path d="m-35.472 398.09 1-1h19l6 7v23l-1 1h-24l-1-1v-29z"/>
  <path fill="url(#az)" d="m-34.472 399.09 1-1h16v7h7v21l-1 1h-22l-1-1v-27z"/>
  <path fill="#fff" d="m-34.472 399.09 1-1h16v1h-16v28l-1-1v-27z"/>
  <path fill="#b6b6b6" d="m-11.472 426.09v-20h-6v-1h7v21l-1 1h-22l-1-1h23z"/>
  <path fill-rule="evenodd" fill="url(#ba)" d="m-15.972 398.09h-0.5v6h5.5l-5-6z"/>
  <path fill="#030100" d="m-18.48 407.09h3.2104c4.892 0 5.0449 7 0 7h-3.21v-7z"/>
  <g transform="translate(-79.702,92.001)">
   <path fill-rule="evenodd" d="m48.23 309.09v8l7-4-7-4z"/>
   <path fill-rule="evenodd" fill="#ff7800" d="m49.23 310.59v5l4-2.5-4-2.5z"/>
   <path d="m946.66 445.25a7.6215 7.6215 0 1 1 -15.243 0 7.6215 7.6215 0 1 1 15.243 0z" transform="matrix(.26241 0 0 .26241 -191.19 196.25)"/>
   <path fill="#ff7800" d="m946.66 445.25a7.6215 7.6215 0 1 1 -15.243 0 7.6215 7.6215 0 1 1 15.243 0z" transform="matrix(.13124 0 0 .13124 -68.011 254.66)"/>
   <rect y="311.09" width="2.9995" x="45.23" height="1"/>
   <rect y="314.09" width="2" x="46.23" height="1"/>
  </g>
  <g transform="translate(-79.702,103)">
   <path fill-rule="evenodd" d="m48.23 309.09v8l7-4-7-4z"/>
   <path fill-rule="evenodd" fill="#ff7800" d="m49.23 310.59v5l4-2.5-4-2.5z"/>
   <path d="m946.66 445.25a7.6215 7.6215 0 1 1 -15.243 0 7.6215 7.6215 0 1 1 15.243 0z" transform="matrix(.26241 0 0 .26241 -191.19 196.25)"/>
   <path fill="#ff7800" d="m946.66 445.25a7.6215 7.6215 0 1 1 -15.243 0 7.6215 7.6215 0 1 1 15.243 0z" transform="matrix(.13124 0 0 .13124 -68.011 254.66)"/>
   <rect transform="translate(45.23,303.09)" height="1" width="2" y="8" x="1"/>
   <rect y="314.09" width="3" x="45.23" height="1"/>
  </g>
  <path fill="#ff7800" d="m-17.544 408.09h2.5c3.3763-0.00001 3.4818 5 0 5h-2.5v-5z"/>
  <rect height="1" width="2" y="404.59" x="-22.472" fill="#030100"/>
  <rect height="1" width="2" y="415.59" x="-22.472" fill="#030100"/>
  <rect height="1" width="3" y="408.09" x="-21.472" fill="#030100"/>
  <rect height="1" width="3" y="412.09" x="-21.472" fill="#030100"/>
  <rect transform="rotate(90)" height="1" width="7.5" y="21.544" x="419.59" fill="#030100"/>
  <rect transform="rotate(90)" height="1" width="3.5" y="20.472" x="412.59" fill="#030100"/>
  <rect height="1" width="2" y="410.09" x="-11.972" fill="#030100"/>
  <rect transform="rotate(90)" height="1" width="8.5" y="32.472" x="406.09" fill="#030100"/>
  <rect height="1" width="3" y="410.09" x="-35.472" fill="#030100"/>
  <rect transform="scale(-1)" height="1" width="12.5" y="-420.09" x="10.044" fill="#030100"/>
  <rect transform="rotate(90)" height="1" width="3.5" y="20.544" x="405.09" fill="#030100"/>
  <rect transform="scale(-1)" height="1" width="12.5" y="-424.09" x="10.044" fill="#030100"/>
 </g>
 <g transform="translate(-190.73,-270.6)">
  <path fill-opacity=".39216" fill="#030100" d="m47.23 306.09 1-0.99999h28l1 1 0.000002 28-1 1h-28l-1-1-0.000002-28z"/>
  <path fill="#030100" d="m46.23 305.09 1-0.99999h28l1 1 0.000002 28-1 1h-28l-1-1-0.000002-28z"/>
  <rect height="28" width="28" y="305.09" x="47.23" fill="url(#ag)"/>
  <path fill="#fff" d="m47.23 305.09h28v1h-27v27h-1v-28z"/>
  <path fill-opacity=".39216" d="m75.23 333.09h-27v-1h26v-26h1v27z"/>
  <g fill="#ff7800">
   <path d="m7 4c-1.656 2e-7 -3 1.344-3 3s1.344 3 3 3c1.656-3e-7 3-1.344 3-3s-1.344-3-3-3zm0 2c0.552 2e-7 1 0.448 1 1s-0.448 1-1 1-1-0.448-1-1 0.448-1 1-1z" transform="translate(45.23,303.09)"/>
   <rect y="309.17" width="18.753" x="54.477" height="1.9268"/>
  </g>
  <g fill="#ff7800" transform="matrix(-1,0,0,1,122.46,6)">
   <path d="m7 4c-1.656 2e-7 -3 1.344-3 3s1.344 3 3 3c1.656-3e-7 3-1.344 3-3s-1.344-3-3-3zm0 2c0.552 2e-7 1 0.448 1 1s-0.448 1-1 1-1-0.448-1-1 0.448-1 1-1z" transform="translate(45.23,303.09)"/>
   <rect y="309.17" width="18.753" x="54.477" height="1.9268"/>
  </g>
  <g fill="#ff7800" transform="translate(0,12)">
   <path d="m7 4c-1.656 2e-7 -3 1.344-3 3s1.344 3 3 3c1.656-3e-7 3-1.344 3-3s-1.344-3-3-3zm0 2c0.552 2e-7 1 0.448 1 1s-0.448 1-1 1-1-0.448-1-1 0.448-1 1-1z" transform="translate(45.23,303.09)"/>
   <rect y="309.17" width="18.753" x="54.477" height="1.9268"/>
  </g>
  <g fill="#ff7800" transform="matrix(-1,0,0,1,122.46,18)">
   <path d="m7 4c-1.656 2e-7 -3 1.344-3 3s1.344 3 3 3c1.656-3e-7 3-1.344 3-3s-1.344-3-3-3zm0 2c0.552 2e-7 1 0.448 1 1s-0.448 1-1 1-1-0.448-1-1 0.448-1 1-1z" transform="translate(45.23,303.09)"/>
   <rect y="309.17" width="18.753" x="54.477" height="1.9268"/>
  </g>
 </g>
 <g transform="translate(-237.69,-228.6)">
  <path fill-opacity=".39216" d="m49.239 305.09 1-1h19l6 7v23l-1 1h-24l-1-1v-29z"/>
  <path d="m48.239 304.09 1-1h19l6 7v23l-1 1h-24l-1-1v-29z"/>
  <path fill="url(#bb)" d="m49.239 305.09 1-1h16v7h7v21l-1 1h-22l-1-1v-27z"/>
  <path fill="#fff" d="m49.239 305.09 1-1h16v1h-16v28l-1-1v-27z"/>
  <path fill="#b6b6b6" d="m72.239 332.09v-20h-6v-1h7v21l-1 1h-22l-1-1h23z"/>
  <path fill-rule="evenodd" fill="url(#bc)" d="m67.739 304.09h-0.5v6h5.5l-5-6z"/>
  <path fill-rule="evenodd" fill="#ff7800" d="m52.238 307.09v8l7-4-7-4z"/>
  <path fill="#ff7800" d="m946.66 445.25a7.6215 7.6215 0 1 1 -15.243 0 7.6215 7.6215 0 1 1 15.243 0z" transform="matrix(.26241 0 0 .26241 -187.18 194.25)"/>
  <rect y="309.09" width="2.9995" x="49.239" height="1"/>
  <rect y="312.09" width="2" x="50.238" height="1"/>
  <path fill-rule="evenodd" fill="#ff7800" d="m52.238 318.09v8l7-4-7-4z"/>
  <path fill="#ff7800" d="m946.66 445.25a7.6215 7.6215 0 1 1 -15.243 0 7.6215 7.6215 0 1 1 15.243 0z" transform="matrix(.26241 0 0 .26241 -187.18 205.25)"/>
  <rect y="320.09" width="2" x="50.239" height="1"/>
  <rect y="323.09" width="3" x="49.239" height="1"/>
  <rect height="1" width="2" y="310.59" x="61.239" fill="#030100"/>
  <rect height="1" width="2" y="321.59" x="61.239" fill="#030100"/>
  <rect height="1" width="3" y="314.09" x="62.239" fill="#030100"/>
  <rect height="1" width="3" y="318.09" x="62.239" fill="#030100"/>
  <rect transform="rotate(90)" height="1" width="7.5" y="-62.167" x="325.59" fill="#030100"/>
  <rect transform="rotate(90)" height="1" width="3.5" y="-63.239" x="318.59" fill="#030100"/>
  <rect height="1" width="2" y="316.09" x="71.739" fill="#030100"/>
  <rect transform="rotate(90)" height="1" width="8.5" y="-51.239" x="312.09" fill="#030100"/>
  <rect height="1" width="3" y="316.09" x="48.239" fill="#030100"/>
  <rect transform="scale(-1)" height="1" width="12.5" y="-326.09" x="-73.667" fill="#030100"/>
  <rect transform="rotate(90)" height="1" width="3.5" y="-63.167" x="311.09" fill="#030100"/>
  <rect transform="scale(-1)" height="1" width="12.5" y="-330.09" x="-73.667" fill="#030100"/>
  <path fill="#ff7800" d="m65.23 313.09h3.2104c4.892 0 5.0449 7 0 7h-3.21v-7z"/>
 </g>
 <g transform="translate(-59.078,-343.2)">
  <path fill-opacity=".52036" fill="#ff7800" d="m13.452 461.5v-7h5v7h-5zm1.5-2h2v-2h-2v2z"/>
  <path fill-opacity=".28959" fill="#ff7800" d="m6.4518 461.5v-7h5v7h-5zm1.5-2h2v-2h-2v2z"/>
  <path fill-opacity=".081448" fill="#ff7800" d="m-0.54818 461.5v-7h5v7h-5zm1.5-2h2v-2h-2v2z"/>
  <path fill="#ff7800" d="m20.452 461.5v-7h5v7h-5zm1.5-2h2v-2h-2v2z"/>
  <path fill-opacity=".52036" fill="#ff7800" d="m13.452 429.5v7h5v-7h-5zm1.5 2h2v2h-2v-2z"/>
  <path fill-opacity=".28959" fill="#ff7800" d="m6.4518 429.5v7h5v-7h-5zm1.5 2h2v2h-2v-2z"/>
  <path fill-opacity=".081448" fill="#ff7800" d="m-0.54818 429.5v7h5v-7h-5zm1.5 2h2v2h-2v-2z"/>
  <path fill="#ff7800" d="m20.452 429.5v7h5v-7h-5zm1.5 2h2v2h-2v-2z"/>
  <path fill="url(#ay)" d="m-1.5482 434.5h29v8c-2 0-3 1.1667-3 3s1 3 3 3v8h-29v-22z"/>
  <path fill="url(#ax)" d="m-0.54818 435.5h27v6c-2 0-3.5 2-3.5 4s1.5 4 3.5 4v6h-27v-20z"/>
  <rect fill-opacity=".13122" height="1.088" width="5.484" y="445.5" x="16.468"/>
  <rect y="439.5" width="5.484" x="-4.5482" height="1.088"/>
  <path fill-rule="evenodd" fill="url(#aw)" d="m0.45182 435.5v21l18.5-10.54-18.5-10.46z"/>
  <path fill-rule="evenodd" fill="url(#av)" d="m1.4518 437v18l15.5-9-15.5-9z"/>
  <rect y="451.5" width="5.484" x="-4.5482" height="1.088"/>
  <rect fill-opacity=".39216" height="1.088" width="4" y="440.5" x="-3.5482"/>
  <rect fill-opacity=".39216" height="1.088" width="4" y="452.5" x="-3.5482"/>
 </g>
 <g transform="translate(-129.28,-259.98)">
  <path fill-opacity=".39216" fill-rule="evenodd" d="m49.73 333.59 4 1.5c2.5-2 16.5-2.5 19.5 0l5-18.5v-2l-0.5-2.5c-8.5-3.5-13.5-2-15-0.5 3-5-7-7.5-8.5-7.5l-8 21c2 0.49999 6.5 2.5 3.5 8.5z"/>
  <path fill-rule="evenodd" d="m48.73 332.59 4 1.5c2.5-2 16.5-2.5 19.5 0l5-18.5v-2l-0.5-2.5c-8.5-3.5-13.5-2-15-0.5 3-5-7-7.5-8.5-7.5l-8 21c2 0.49999 6.5 2.5 3.5 8.5z"/>
  <path fill-rule="evenodd" fill="url(#ai)" d="m52.23 332.59 8.5-21c2.5-5.5-5-7-7-7l-7.5 19c6 1 6.5 6.5 6 9z"/>
  <path fill-rule="evenodd" fill="url(#aj)" d="m53.73 330.09 0.5 0.5c2.5-2 14.5-1.5 17.5 0.5l4.5-19.5c-7-2-10.5-2-15 0l-7.5 18.5z"/>
  <path fill-rule="evenodd" fill="#aa3434" d="m50.23 332.09 2.5 1c2.5-2 16-2.5 19-0.5l0.5-2.5c-4.5-2.5-16.5-1.5-19.5 0.50001 3-6-4-9.5-5.5-9.5l-1 2.5c2 0.49999 6.5 3 4 8.5z"/>
  <path fill-rule="evenodd" fill="#aa3434" d="m76.73 314.09-0.5-2-5 17.5 0.5 3 5-18.5z"/>
  <path stroke-linejoin="round" d="m163.65 313.49 10.705-1.0731 0.54384 15.776-12.165 1.2194 0.916-15.922z" transform="matrix(.99548 .094978 -.31957 .94756 0 0)" stroke="#4c4c4c" stroke-width="1.3175" fill="#fff"/>
  <path d="m62.13 321.61-4.8998-0.023" stroke="#4c4c4c" stroke-width="1.0982" fill="none"/>
  <path d="m65.23 315.09-4 10 9-4.5-5-5.5z" fill-rule="evenodd" stroke="#4c4c4c" stroke-width="1.25" fill="#ff7800"/>
  <path d="m64.23 318.59-5.9509-0.023" stroke="#4c4c4c" stroke-width="1.0982" fill="none"/>
  <path d="m73.23 320.66-4-0.0721" stroke="#4c4c4c" stroke-width="1.0982" fill="none"/>
 </g>
 <g transform="matrix(2.2511,0,0,2.1077,-220.4,-242.06)">
  <rect transform="matrix(1.6545e-7,-1,1,4.7368e-8,0,0)" height="1.9895" width="2" y="34.699" x="-96.967" fill="#d72e2e"/>
  <rect transform="matrix(2.4948e-7,-1,1,3.1412e-8,0,0)" height="3" width="2" y="24.699" x="-96.967" fill="#d72e2e"/>
  <rect transform="matrix(2.486e-7,-1,1,3.1523e-8,0,0)" height="2.9894" width="2" y="33.699" x="-99.967" fill="#d72e2e"/>
  <rect transform="matrix(2.4948e-7,-1,1,3.1412e-8,0,0)" height="3" width="2" y="24.699" x="-99.967" fill="#d72e2e"/>
  <rect transform="matrix(2.486e-7,-1,1,3.1523e-8,0,0)" height="2.9894" width="2" y="33.699" x="-102.97" fill="#d72e2e"/>
  <rect transform="matrix(2.4948e-7,-1,1,3.1412e-8,0,0)" height="3" width="2" y="24.699" x="-102.97" fill="#d72e2e"/>
  <path fill-opacity=".58824" d="m26.699 92.967v13h8v-13h-2.6562l-0.6875 1.1875h-1.313l-0.688-1.191h-2.6562zm1 1h0.75l0.75 1.2188h3l0.75-1.2188h0.75v11h-6v-11z"/>
 </g>
 <g transform="matrix(1.3136,0,0,1.291,-55.556,-389.89)">
  <path fill-opacity=".39216" fill-rule="evenodd" d="m49.73 333.59 4 1.5c2.5-2 16.5-2.5 19.5 0l5-18.5v-2l-0.5-2.5c-8.5-3.5-13.5-2-15-0.5 3-5-7-7.5-8.5-7.5l-8 21c2 0.49999 6.5 2.5 3.5 8.5z"/>
  <path fill-rule="evenodd" d="m48.73 332.59 4 1.5c2.5-2 16.5-2.5 19.5 0l5-18.5v-2l-0.5-2.5c-8.5-3.5-13.5-2-15-0.5 3-5-7-7.5-8.5-7.5l-8 21c2 0.49999 6.5 2.5 3.5 8.5z"/>
  <path fill-rule="evenodd" fill="url(#ai)" d="m52.23 332.59 8.5-21c2.5-5.5-5-7-7-7l-7.5 19c6 1 6.5 6.5 6 9z"/>
  <path fill-rule="evenodd" fill="url(#aj)" d="m53.73 330.09 0.5 0.5c2.5-2 14.5-1.5 17.5 0.5l4.5-19.5c-7-2-10.5-2-15 0l-7.5 18.5z"/>
  <path fill-rule="evenodd" fill="#aa3434" d="m50.23 332.09 2.5 1c2.5-2 16-2.5 19-0.5l0.5-2.5c-4.5-2.5-16.5-1.5-19.5 0.50001 3-6-4-9.5-5.5-9.5l-1 2.5c2 0.49999 6.5 3 4 8.5z"/>
  <path fill-rule="evenodd" fill="#aa3434" d="m76.73 314.09-0.5-2-5 17.5 0.5 3 5-18.5z"/>
  <path d="m56.23 328.09h13l5.5-16h-4c0.0049 0.18779-2 1.5-3 1.5-1.0664-0.28574-1.4687-1.2594-1.3706-1.4195l-4.129-0.08-6 16z"/>
  <rect transform="rotate(15)" height="1" width="1" y="310.08" x="144.49" fill="#fff"/>
  <path fill="url(#as)" d="m57.73 327.09h10.5l5-14-3-0.0805c0.0049 0.18779-2 1.5-3 1.5-1.0664-0.28574-1.4687-1.2594-1.3706-1.4195h-3.129l-5 14z"/>
  <path fill="#ff7800" d="m138.9 297.27 3.8637-1.0353-0.18946 3.1566-3.8637 1.0353 0.18947-3.1566z" transform="rotate(15)"/>
  <path fill="#ff7800" d="m59.23 318.09h4l-0.99999 3h-4l1-3z"/>
  <path fill="#ff7800" d="m61.23 313.09h4l-0.99999 3h-4l1-3z"/>
  <path fill="#ff7800" d="m67.23 323.09h4l-0.99999 3h-4l1-3z"/>
  <path fill="#ff7800" d="m69.23 318.09h4l-0.99999 3h-4l1-3z"/>
  <path fill="#ff7800" d="m71.23 313.09h4l-0.99999 3h-4l1-3z"/>
  <path fill="#fff" d="m62.23 314.09h1.5l-0.5 1h-1.5l0.5-1z"/>
  <path fill="#fff" d="m60.23 319.09h1.5l-0.5 1h-1.5l0.5-1z"/>
  <path fill="#fff" d="m58.23 324.09h1.5l-0.5 1h-1.5l0.5-1z"/>
  <path fill="#fff" d="m68.23 324.09h1.5l-0.5 1h-1.5l0.5-1z"/>
  <path fill="#fff" d="m70.23 319.09h1.5l-0.5 1h-1.5l0.5-1z"/>
  <path fill="#fff" d="m72.23 314.09h1.5l-0.5 1h-1.5l0.5-1z"/>
 </g>
 <g transform="translate(-190.45,-225.1)">
  <path fill-opacity=".39216" d="m46.23 305.09 1-1h29l1 1 0.07194 29.001-1 1-29.072-0.00056-1-1v-29z"/>
  <path d="m54.23 303.09h21.1l0.90661 1 0.06522 29.001-0.90661 1-21.165-0.00056v-31z"/>
  <path fill="url(#ak)" d="m55.23 305.09 0.87247-1 13.092 0.00056 6.0447-0.00056 0.06258 7.0006v21l-0.87247 1-18.327-0.00056-0.87247-1v-27z"/>
  <path fill="#fff" d="m55.23 304.09h20v1h-20v-1z"/>
  <path fill="#b6b6b6" d="m74.23 332.09v-27l1.0118 0.00056 0.06017 27-0.83633 1-19.296-0.00056 0.06017-0.99944 19-0.00056z"/>
  <path d="m45.73 303.09h9.5v31h-9.5v-31z"/>
  <path fill="url(#al)" d="m45.23 304.09h9v29h-9v-29z"/>
  <path fill="#a0a0a0" d="m58.229 307.09h14v23h-14v-23z"/>
  <path fill="#fff" d="m59.229 308.09h12v21h-12v-21z"/>
  <path fill-rule="evenodd" d="m61.23 310.09v8l7-4-7-4z"/>
  <path fill-rule="evenodd" fill="#ff7800" d="m62.231 311.59v5l4-2.5-4-2.5z"/>
  <path d="m946.66 445.25a7.6215 7.6215 0 1 1 -15.243 0 7.6215 7.6215 0 1 1 15.243 0z" transform="matrix(.26241 0 0 .26241 -178.19 197.25)"/>
  <path fill="#ff7800" d="m946.66 445.25a7.6215 7.6215 0 1 1 -15.243 0 7.6215 7.6215 0 1 1 15.243 0z" transform="matrix(.13124 0 0 .13124 -55.01 255.66)"/>
  <rect y="312.09" width="4.0005" x="57.231" height="1"/>
  <rect y="315.09" width="4.0005" x="57.231" height="1"/>
  <rect height="1" width="2.999" y="313.59" x="70.232" fill="#030100"/>
  <path fill-rule="evenodd" d="m61.229 319.09v8l7-4-7-4z"/>
  <path fill-rule="evenodd" fill="#ff7800" d="m62.229 320.59v5l4-2.5-4-2.5z"/>
  <path d="m946.66 445.25a7.6215 7.6215 0 1 1 -15.243 0 7.6215 7.6215 0 1 1 15.243 0z" transform="matrix(.26241 0 0 .26241 -178.19 206.25)"/>
  <path fill="#ff7800" d="m946.66 445.25a7.6215 7.6215 0 1 1 -15.243 0 7.6215 7.6215 0 1 1 15.243 0z" transform="matrix(.13124 0 0 .13124 -55.012 264.66)"/>
  <rect y="321.09" width="4.0005" x="57.229" height="1"/>
  <rect y="324.09" width="4.0005" x="57.229" height="1"/>
  <rect height="1" width="2.999" y="322.59" x="70.23" fill="#030100"/>
  <rect height=".99997" width="5" y="306.09" x="52.23" fill="url(#am)"/>
  <rect height=".99997" width="5" y="314.09" x="52.23" fill="url(#an)"/>
  <rect height=".99997" width="5" y="322.09" x="52.23" fill="url(#ao)"/>
  <rect height=".99997" width="5" y="330.09" x="52.23" fill="url(#ap)"/>
 </g>
 <g transform="translate(-114.85,-324.3)">
  <path fill-opacity=".39216" d="m46.23 305.09 1-1h29l1 1 0.07194 29.001-1 1-29.072-0.00056-1-1v-29z"/>
  <path d="m54.23 303.09h21.1l0.90661 1 0.06522 29.001-0.90661 1-21.165-0.00056v-31z"/>
  <path fill="url(#ak)" d="m55.23 305.09 0.87247-1 13.092 0.00056 6.0447-0.00056 0.06258 7.0006v21l-0.87247 1-18.327-0.00056-0.87247-1v-27z"/>
  <path fill="#fff" d="m55.23 304.09h20v1h-20v-1z"/>
  <path fill="#b6b6b6" d="m74.23 332.09v-27l1.0118 0.00056 0.06017 27-0.83633 1-19.296-0.00056 0.06017-0.99944 19-0.00056z"/>
  <path d="m45.73 303.09h9.5v31h-9.5v-31z"/>
  <path fill="url(#al)" d="m45.23 304.09h9v29h-9v-29z"/>
  <rect height=".99997" width="5" y="306.09" x="52.23" fill="url(#am)"/>
  <rect height=".99997" width="5" y="314.09" x="52.23" fill="url(#an)"/>
  <rect height=".99997" width="5" y="322.09" x="52.23" fill="url(#ao)"/>
  <rect height=".99997" width="5" y="330.09" x="52.23" fill="url(#ap)"/>
  <g transform="matrix(0,-1,1,0,72.818,378.33)">
   <path d="m51.24-12.589v12h16v-4c-0.18012 0.053328-0.30266 0-0.5 0-1.104 0-2-0.896-2-2s0.896-2 2-2c0.19734 0 0.31988-0.053328 0.5 0v-4h-16z"/>
   <path fill="#fff" d="m52.24-11.589v10h14v-2.2188c-1.3813-0.2684-2.5-1.3218-2.5-2.7812s1.1187-2.5128 2.5-2.7813v-2.2187h-14z"/>
   <rect transform="matrix(-9.9792e-8,1,-1,-7.8531e-8,0,0)" height="3" width="5" y="-55.24" x="-14.589" fill="#ff7800"/>
   <rect transform="matrix(-9.9792e-8,1,-1,-7.8531e-8,0,0)" height="3" width="5" y="-65.24" x="-14.589" fill="#ff7800"/>
   <rect transform="matrix(-9.9792e-8,1,-1,-7.8531e-8,0,0)" height="3" width="5" y="-60.24" x="-14.589" fill="#ff7800"/>
   <rect transform="matrix(-9.9792e-8,1,-1,-7.8531e-8,0,0)" height="3" width="5" y="-55.24" x="-3.5886" fill="#ff7800"/>
   <rect transform="matrix(-9.9792e-8,1,-1,-7.8531e-8,0,0)" height="3" width="5" y="-65.24" x="-3.5886" fill="#ff7800"/>
   <rect transform="matrix(-9.9792e-8,1,-1,-7.8531e-8,0,0)" height="3" width="5" y="-60.24" x="-3.5886" fill="#ff7800"/>
   <rect transform="matrix(-1.6632e-7,1,-1,-4.7118e-8,0,0)" height="1" width="1" y="-54.24" x="-12.589" fill="#fff"/>
   <rect transform="matrix(-1.6632e-7,1,-1,-4.7118e-8,0,0)" height="1" width="1" y="-59.24" x="-12.589" fill="#fff"/>
   <rect transform="matrix(-1.6632e-7,1,-1,-4.7118e-8,0,0)" height="1" width="1" y="-64.24" x="-12.589" fill="#fff"/>
   <rect transform="matrix(-1.6632e-7,1,-1,-4.7118e-8,0,0)" height="1" width="1" y="-64.24" x="-1.5886" fill="#fff"/>
   <rect transform="matrix(-1.6632e-7,1,-1,-4.7118e-8,0,0)" height="1" width="1" y="-59.24" x="-1.5886" fill="#fff"/>
   <rect transform="matrix(-1.6632e-7,1,-1,-4.7118e-8,0,0)" height="1" width="1" y="-54.24" x="-1.5886" fill="#fff"/>
  </g>
 </g>
 <g transform="translate(-236.65,-189.28)">
  <g transform="translate(-1 -.99999)">
   <path fill-opacity=".39216" fill="#030100" d="m47.23 306.09 1-0.99999h28l1 1 0.000002 28-1 1h-28l-1-1-0.000002-28z"/>
   <path fill="#030100" d="m46.23 305.09 1-0.99999h28l1 1 0.000002 28-1 1h-28l-1-1-0.000002-28z"/>
   <rect height="28" width="28" y="305.09" x="47.23" fill="url(#ag)"/>
   <path fill="#fff" d="m47.23 305.09h28v1h-27v27h-1v-28z"/>
   <path fill-opacity=".39216" d="m75.23 333.09h-27v-1h26v-26h1v27z"/>
   <g fill="#ff7800">
    <path d="m7 4c-1.656 2e-7 -3 1.344-3 3s1.344 3 3 3c1.656-3e-7 3-1.344 3-3s-1.344-3-3-3zm0 2c0.552 2e-7 1 0.448 1 1s-0.448 1-1 1-1-0.448-1-1 0.448-1 1-1z" transform="translate(45.23,303.09)"/>
    <rect y="309.17" width="18.753" x="54.477" height="1.9268"/>
   </g>
   <g fill="#ff7800" transform="matrix(-1,0,0,1,122.46,6)">
    <path d="m7 4c-1.656 2e-7 -3 1.344-3 3s1.344 3 3 3c1.656-3e-7 3-1.344 3-3s-1.344-3-3-3zm0 2c0.552 2e-7 1 0.448 1 1s-0.448 1-1 1-1-0.448-1-1 0.448-1 1-1z" transform="translate(45.23,303.09)"/>
    <rect y="309.17" width="18.753" x="54.477" height="1.9268"/>
   </g>
   <g fill="#ff7800" transform="translate(0,12)">
    <path d="m7 4c-1.656 2e-7 -3 1.344-3 3s1.344 3 3 3c1.656-3e-7 3-1.344 3-3s-1.344-3-3-3zm0 2c0.552 2e-7 1 0.448 1 1s-0.448 1-1 1-1-0.448-1-1 0.448-1 1-1z" transform="translate(45.23,303.09)"/>
    <rect y="309.17" width="18.753" x="54.477" height="1.9268"/>
   </g>
   <g fill="#ff7800" transform="matrix(-1,0,0,1,122.46,18)">
    <path d="m7 4c-1.656 2e-7 -3 1.344-3 3s1.344 3 3 3c1.656-3e-7 3-1.344 3-3s-1.344-3-3-3zm0 2c0.552 2e-7 1 0.448 1 1s-0.448 1-1 1-1-0.448-1-1 0.448-1 1-1z" transform="translate(45.23,303.09)"/>
    <rect y="309.17" width="18.753" x="54.477" height="1.9268"/>
   </g>
  </g>
  <path fill-opacity=".39216" d="m24 14a10.5 10.5 0 1 1 -21 0 10.5 10.5 0 1 1 21 0z" transform="translate(44.73,301.59)"/>
  <path d="m24 14a10.5 10.5 0 1 1 -21 0 10.5 10.5 0 1 1 21 0z" transform="translate(43.73,300.59)"/>
  <path fill="#d1d1d1" d="m24 14a10.5 10.5 0 1 1 -21 0 10.5 10.5 0 1 1 21 0z" transform="matrix(.90476 0 0 .90476 45.016 301.93)"/>
  <path fill="#ff7800" d="m55.977 318.17 10.253-0.0732-2 3h-8.253v-2.93z"/>
  <path fill="#020202" d="m67.304 317.44 13.926 8.6528-3.074 5.1528-13.926-8.6528 3.074-5.1528z"/>
  <path fill="#ff7800" d="m61.983 309.17-12.753-0.0732-1.2078 3h13.961v-2.93z"/>
  <path fill="#ff7800" d="m54.23 315.09c-2.484 0-4.5 2.016-4.5 4.5 0 0.27742 0.10812 0.51766 0.15625 0.78125 1.4393 1.8259 3.481 3.0164 5.875 3.4062 1.7217-0.63176 2.9688-2.2476 2.9688-4.1875 0-2.484-2.016-4.5-4.5-4.5zm0 3c0.828 0 1.5 0.67201 1.5 1.5 0 0.828-0.672 1.5-1.5 1.5s-1.5-0.672-1.5-1.5c0-0.82799 0.672-1.5 1.5-1.5z"/>
  <path fill="#ff7800" d="m16.656 3.4062c-1.559 0.7072-2.656 2.2711-2.656 4.0938 0 2.484 2.016 4.5 4.5 4.5 1.1054 0 2.0914-0.43174 2.875-1.0938-0.21266-3.2477-2.0525-5.9551-4.7188-7.5zm1.844 2.5938c0.828-2e-7 1.5 0.67201 1.5 1.5 0 0.828-0.672 1.5-1.5 1.5s-1.5-0.672-1.5-1.5 0.672-1.5 1.5-1.5z" transform="translate(45.23,303.09)"/>
  <path fill="url(#at)" d="m67.23 318.59 13 8-2 3.5-13-8 2-3.5z"/>
 </g>
 <g transform="translate(-98.76,-271.3)">
  <path d="m51.23 332.09h12l-0.000002-22h-4c0.05333 0.18012 0 0.30266 0 0.5 0 1.104-0.896 2-2 2s-2-0.896-2-2c0-0.19734-0.05333-0.31988 0-0.5h-4l0.000002 22z"/>
  <path fill="url(#au)" d="m52.23 331.09h10l-0.000002-20h-2.2188c-0.2684 1.3813-1.3218 2.5-2.7812 2.5s-2.5128-1.1187-2.7812-2.5h-2.2188l0.000002 20z"/>
  <rect height="3" width="5" y="322.09" x="49.23" fill="#ff7800"/>
  <rect height="3" width="5" y="312.09" x="49.23" fill="#ff7800"/>
  <rect height="3" width="5" y="317.09" x="49.23" fill="#ff7800"/>
  <rect height="3" width="5" y="322.09" x="60.23" fill="#ff7800"/>
  <rect height="3" width="5" y="312.09" x="60.23" fill="#ff7800"/>
  <rect height="3" width="5" y="317.09" x="60.23" fill="#ff7800"/>
  <rect height="1" width="1" y="323.09" x="51.23" fill="#fff"/>
  <rect height="1" width="1" y="318.09" x="51.23" fill="#fff"/>
  <rect height="1" width="1" y="313.09" x="51.23" fill="#fff"/>
  <rect height="1" width="1" y="313.09" x="62.23" fill="#fff"/>
  <rect height="1" width="1" y="318.09" x="62.23" fill="#fff"/>
  <rect height="1" width="1" y="323.09" x="62.23" fill="#fff"/>
  <rect height="3" width="5" y="327.09" x="49.23" fill="#ff7800"/>
  <rect height="3" width="5" y="327.09" x="60.23" fill="#ff7800"/>
  <rect height="1" width="1" y="328.09" x="51.23" fill="#fff"/>
  <rect height="1" width="1" y="328.09" x="62.23" fill="#fff"/>
 </g>
 <g transform="matrix(.43563 0 0 .49831 -344.63 -14.579)">
  <rect height="114.88" width="114.88" y="154.08" x="855.38" fill="none"/>
  <g transform="matrix(.52955 0 0 .52955 516.69 -278.93)">
   <path d="m781.08 850.26c-23.913-0.29796-54.665 7.7054-56.562 30.781l-0.035 0.0891c-31.798-14.869-72.263 12.047-76.559 32.755l43.875 68 14.656 8.4375c34.064-32.99 60.285-26.85 63.062-19.562l19.125-10.562c2.0761-33.837 56.75-26.344 56.75-26.344l3.6562-11.625 0.125-0.375-47.781-68.781c-5.1343-1.6931-12.342-2.7132-20.312-2.8125z" fill-rule="evenodd" stroke="#000" stroke-width="6" fill="#fff"/>
   <path d="m691.74 982.31c3.6521-9.4311 52.931-45.855 83.433-29.424l-49.39-69.99c-31.846-15.247-73.625 10.556-77.938 31.345l43.891 68.064z" fill-rule="evenodd" stroke="#000" stroke-width="1.097px" fill="url(#aq)"/>
   <path d="m849.52 922.87c-15.136-10.25-70.881-5.1007-74.035 29.262l-51.034-70.76c2.5298-30.768 56.325-34.739 76.862-27.967l48.206 69.465z" fill-rule="evenodd" stroke="#000" stroke-width="1.097px" fill="url(#ar)"/>
   <path d="m691.69 982.28c8.9964-11.042 52.249-47.016 83.736-28.851-0.346-30.988 41.868-39.892 73.702-31.344l-3.8062 12.11s-54.671-7.4798-56.747 26.357l-19.134 10.568c-2.7774-7.2879-29.012-13.447-63.076 19.543l-14.675-8.3842z" fill-rule="evenodd" stroke="#000" stroke-width="1.097px" fill="#5b5a71"/>
   <g stroke-linejoin="round" transform="matrix(.35362 .43423 -.52958 .19913 898.06 303.03)">
    <rect transform="rotate(-90)" height="122.32" width="81.237" stroke="#000" y="901.26" x="-1050.4" stroke-width="4" fill="#fff"/>
    <rect transform="rotate(-90)" height="21.011" width="39.475" stroke="#030303" y="916.93" x="-1069" stroke-width="4" fill="#ff7800"/>
    <path d="m654.65 737.28a9.5805 9.5805 0 1 1 -19.161 0 9.5805 9.5805 0 1 1 19.161 0z" transform="matrix(0 -.59813 .59813 0 486.45 1435.1)" stroke="#030303" stroke-width="6.6875" fill="#ffede0"/>
    <rect transform="rotate(-90)" height="21.011" width="39.475" stroke="#030303" y="950.42" x="-1069" stroke-width="4" fill="#ff7800"/>
    <path d="m654.65 737.28a9.5805 9.5805 0 1 1 -19.161 0 9.5805 9.5805 0 1 1 19.161 0z" transform="matrix(0 -.59813 .59813 0 519.94 1435.1)" stroke="#030303" stroke-width="6.6875" fill="#ffede0"/>
    <rect transform="rotate(-90)" height="21.011" width="39.475" stroke="#030303" y="983.92" x="-1069" stroke-width="4" fill="#ff7800"/>
    <path d="m654.65 737.28a9.5805 9.5805 0 1 1 -19.161 0 9.5805 9.5805 0 1 1 19.161 0z" transform="matrix(0 -.59813 .59813 0 553.44 1435.1)" stroke="#030303" stroke-width="6.6875" fill="#ffede0"/>
    <rect transform="rotate(-90)" height="21.011" width="39.475" stroke="#030303" y="916.93" x="-987.62" stroke-width="4" fill="#ff7800"/>
    <path d="m654.65 737.28a9.5805 9.5805 0 1 1 -19.161 0 9.5805 9.5805 0 1 1 19.161 0z" transform="matrix(0 -.59813 .59813 0 486.45 1353.7)" stroke="#030303" stroke-width="6.6875" fill="#ffede0"/>
    <rect transform="rotate(-90)" height="21.011" width="39.475" stroke="#030303" y="950.42" x="-987.62" stroke-width="4" fill="#ff7800"/>
    <path d="m654.65 737.28a9.5805 9.5805 0 1 1 -19.161 0 9.5805 9.5805 0 1 1 19.161 0z" transform="matrix(0 -.59813 .59813 0 519.94 1353.7)" stroke="#030303" stroke-width="6.6875" fill="#ffede0"/>
    <rect transform="rotate(-90)" height="21.011" width="39.475" stroke="#030303" y="983.92" x="-987.62" stroke-width="4" fill="#ff7800"/>
    <path d="m654.65 737.28a9.5805 9.5805 0 1 1 -19.161 0 9.5805 9.5805 0 1 1 19.161 0z" transform="matrix(0 -.59813 .59813 0 553.44 1353.7)" stroke="#030303" stroke-width="6.6875" fill="#ffede0"/>
    <path d="m693.26 625.06a18.914 18.914 0 0 1 -37.828 0.11702" transform="matrix(0 -.59813 .59813 0 527.57 1411.4)" stroke="#030303" stroke-width="6.6875" fill="none"/>
   </g>
   <g stroke-linejoin="round" transform="translate(221.85,5.8897)">
    <path d="m519.26 923.49a24.259 24.259 0 1 1 -48.518 0h24.259z" transform="matrix(.8375 1.0541 -1.3977 .59701 1447.3 -195.25)" stroke="#000" stroke-width="1.559" fill="#fff"/>
    <g transform="translate(76.567,-68.959)" stroke="#030303">
     <rect transform="matrix(.93602 -.35195 .63147 .7754 0 0)" height="11.766" width="22.334" y="1093.2" x="-242.96" stroke-width="2.2492" fill="#ff7800"/>
     <path d="m654.65 737.28a9.5805 9.5805 0 1 1 -19.161 0 9.5805 9.5805 0 1 1 19.161 0z" transform="matrix(.31676 -.11911 .21151 .25972 116.82 819.18)" stroke-width="6.6875" fill="#ffede0"/>
    </g>
    <g transform="translate(70.186,-65.033)" stroke="#030303">
     <rect transform="matrix(.93602 -.35195 .63147 .7754 0 0)" height="11.766" width="22.334" y="1111.8" x="-260.8" stroke-width="2.2515" fill="#ff7800"/>
     <path d="m654.65 737.28a9.5805 9.5805 0 1 1 -19.161 0 9.5805 9.5805 0 1 1 19.161 0z" transform="matrix(.31676 -.11911 .21151 .25972 111.86 839.88)" stroke-width="6.6875" fill="#ffede0"/>
    </g>
    <g transform="translate(75.83,-67.487)" stroke="#030303">
     <rect transform="matrix(.93602 -.35195 .63147 .7754 0 0)" height="11.766" width="22.334" y="1130.7" x="-242.96" stroke-width="2.2515" fill="#ff7800"/>
     <path d="m654.65 737.28a9.5805 9.5805 0 1 1 -19.161 0 9.5805 9.5805 0 1 1 19.161 0z" transform="matrix(.31676 -.11911 .21151 .25972 140.5 848.27)" stroke-width="6.6875" fill="#ffede0"/>
    </g>
   </g>
  </g>
 </g>
</svg>
