<svg id="Слой_1" data-name="Слой 1"
  xmlns:cc="http://creativecommons.org/ns#"
  xmlns:rdf="http://www.w3.org/1999/02/22-rdf-syntax-ns#"
  xmlns="http://www.w3.org/2000/svg" viewBox="0 0 26 26">
  <metadata id="metadata43">
    <rdf:RDF>
      <cc:Work rdf:about="">
        <cc:license rdf:resource="http://creativecommons.org/licenses/by/4.0/" />
      </cc:Work>
      <cc:License rdf:about="http://creativecommons.org/licenses/by/4.0/">
        <cc:permits rdf:resource="http://creativecommons.org/ns#Reproduction" />
        <cc:permits rdf:resource="http://creativecommons.org/ns#Distribution" />
        <cc:requires rdf:resource="http://creativecommons.org/ns#Notice" />
        <cc:requires rdf:resource="http://creativecommons.org/ns#Attribution" />
        <cc:permits rdf:resource="http://creativecommons.org/ns#DerivativeWorks" />
      </cc:License>
    </rdf:RDF>
  </metadata>
  <defs>
    <style>.cls-1{fill:#545454;}.cls-2{fill:#1a81c4;}.cls-3{fill:#b9b9b9;}</style>
  </defs>
  <title>mirror_v</title>
  <path class="cls-1" d="M23.4854,13.4814h-.9708a.5.5,0,0,1,0-1h.9708a.5.5,0,0,1,0,1Zm-2.9708,0h-2a.5.5,0,0,1,0-1h2a.5.5,0,0,1,0,1Zm-4,0h-2a.5.5,0,0,1,0-1h2a.5.5,0,0,1,0,1Zm-4,0h-2a.5.5,0,0,1,0-1h2a.5.5,0,1,1,0,1Zm-4,0h-2a.5.5,0,0,1,0-1h2a.5.5,0,1,1,0,1Zm-4,0h-2a.5.5,0,1,1,0-1h2a.5.5,0,1,1,0,1Z"/>
  <polygon class="cls-2" points="13 14.016 21.989 22.995 4.011 22.995 13 14.016"/>
  <polygon class="cls-3" points="12.989 11.995 21.982 3.005 4.018 3.005 12.989 11.995"/>
</svg>