<svg id="Слой_1" data-name="Слой 1"
  xmlns:cc="http://creativecommons.org/ns#"
  xmlns:rdf="http://www.w3.org/1999/02/22-rdf-syntax-ns#"
  xmlns="http://www.w3.org/2000/svg" viewBox="0 0 26 26">
  <metadata id="metadata43">
    <rdf:RDF>
      <cc:Work rdf:about="">
        <cc:license rdf:resource="http://creativecommons.org/licenses/by/4.0/" />
      </cc:Work>
      <cc:License rdf:about="http://creativecommons.org/licenses/by/4.0/">
        <cc:permits rdf:resource="http://creativecommons.org/ns#Reproduction" />
        <cc:permits rdf:resource="http://creativecommons.org/ns#Distribution" />
        <cc:requires rdf:resource="http://creativecommons.org/ns#Notice" />
        <cc:requires rdf:resource="http://creativecommons.org/ns#Attribution" />
        <cc:permits rdf:resource="http://creativecommons.org/ns#DerivativeWorks" />
      </cc:License>
    </rdf:RDF>
  </metadata>
  <defs>
    <style>.cls-1{fill:#545454;}.cls-2{fill:#1a81c4;}.cls-3{fill:#b9b9b9;}</style>
  </defs>
  <title>mirror_h</title>
  <path class="cls-1" d="M13.4814,2.5146v.9708a.5.5,0,0,1-1,0V2.5146a.5.5,0,1,1,1,0Zm0,2.9708v2a.5.5,0,0,1-1,0v-2a.5.5,0,1,1,1,0Zm0,4v2a.5.5,0,0,1-1,0v-2a.5.5,0,1,1,1,0Zm0,4v2a.5.5,0,0,1-1,0v-2a.5.5,0,1,1,1,0Zm0,4v2a.5.5,0,0,1-1,0v-2a.5.5,0,0,1,1,0Zm0,4v2a.5.5,0,0,1-1,0v-2a.5.5,0,0,1,1,0Z"/>
  <polygon class="cls-2" points="14.016 13 22.995 4.011 22.995 21.989 14.016 13"/>
  <polygon class="cls-3" points="11.995 13.011 3.005 4.018 3.005 21.982 11.995 13.011"/>
</svg>