<svg id="Слой_1" data-name="Слой 1"
  xmlns:dc="http://purl.org/dc/elements/1.1/"
  xmlns:cc="http://creativecommons.org/ns#"
  xmlns:rdf="http://www.w3.org/1999/02/22-rdf-syntax-ns#"
  xmlns="http://www.w3.org/2000/svg" viewBox="0 0 26 26">
  <metadata id="metadata43">
    <rdf:RDF>
      <cc:Work rdf:about="">
        <cc:license rdf:resource="http://creativecommons.org/licenses/by-sa/4.0/" />
        <dc:format>image/svg+xml</dc:format>
        <dc:type rdf:resource="http://purl.org/dc/dcmitype/StillImage" />
        <dc:title>add_arc</dc:title>
      </cc:Work>
      <cc:License rdf:about="http://creativecommons.org/licenses/by-sa/4.0/">
        <cc:permits rdf:resource="http://creativecommons.org/ns#Reproduction" />
        <cc:permits rdf:resource="http://creativecommons.org/ns#Distribution" />
        <cc:requires rdf:resource="http://creativecommons.org/ns#Notice" />
        <cc:requires rdf:resource="http://creativecommons.org/ns#Attribution" />
        <cc:permits rdf:resource="http://creativecommons.org/ns#DerivativeWorks" />
        <cc:requires rdf:resource="http://creativecommons.org/ns#ShareAlike" />
      </cc:License>
    </rdf:RDF>
  </metadata>
  <defs>
    <style>.cls-1{fill:#b9b9b9;}.cls-2{fill:#545454;}.cls-3{fill:#1a81c4;}.cls-4{fill:#e61c50;}.cls-5{fill:#fff;}</style>
  </defs>
  <title>module_library_list</title>
  <path class="cls-1" d="M4.501,1h14a3.5,3.5,0,0,1,3.5,3.5v14a3.5,3.5,0,0,1-3.5,3.5h-14a3.5,3.5,0,0,1-3.5-3.5V4.5A3.5,3.5,0,0,1,4.501,1Z"/>
  <path class="cls-2" d="M18.6286,17.0812H4.3611a.3517.3517,0,0,1-.3519-.352V13.194a.3534.3534,0,0,1,.1162-.2612L5.24,11.9292V10.7139L4.1254,9.71a.3535.3535,0,0,1-.1162-.2613V6.2713a.3517.3517,0,0,1,.3519-.3519H18.64a.352.352,0,0,1,.352.3526l-.011,10.458A.3516.3516,0,0,1,18.6286,17.0812ZM4.7131,16.3773H18.2773l.01-9.754H4.7131V9.2924l1.1143,1.0035a.3534.3534,0,0,1,.1161.2613v1.5287a.3532.3532,0,0,1-.1161.2613L4.7131,13.3509Zm.8786-4.2914h0Z"/>
  <rect class="cls-3" x="13.8944" y="14.5763" width="3.076" height="4.3064"/>
  <rect class="cls-3" x="5.9046" y="14.5763" width="3.0762" height="4.3064"/>
  <rect class="cls-3" x="9.8981" y="14.5763" width="3.0759" height="4.3064"/>
  <rect class="cls-3" x="13.8944" y="4.1177" width="3.076" height="4.3065"/>
  <rect class="cls-3" x="5.9046" y="4.1177" width="3.0762" height="4.3065"/>
  <rect class="cls-3" x="9.8981" y="4.1177" width="3.0759" height="4.3065"/>
  <path class="cls-4" d="M24.969,18a7.0065,7.0065,0,1,1-7.0066-7A7.0033,7.0033,0,0,1,24.969,18Z"/>
  <path class="cls-5" d="M17.4082,20.5391h3.6377v1.0625h-4.959V13.665h1.3213Z"/>
</svg>