<svg id="Слой_1" data-name="Слой 1"
  xmlns:dc="http://purl.org/dc/elements/1.1/"
  xmlns:cc="http://creativecommons.org/ns#"
  xmlns:rdf="http://www.w3.org/1999/02/22-rdf-syntax-ns#"
  xmlns="http://www.w3.org/2000/svg" viewBox="0 0 26 26">
  <metadata id="metadata43">
    <rdf:RDF>
      <cc:Work rdf:about="">
        <cc:license rdf:resource="http://creativecommons.org/licenses/by-sa/4.0/" />
        <dc:format>image/svg+xml</dc:format>
        <dc:type rdf:resource="http://purl.org/dc/dcmitype/StillImage" />
        <dc:title>add_arc</dc:title>
      </cc:Work>
      <cc:License rdf:about="http://creativecommons.org/licenses/by-sa/4.0/">
        <cc:permits rdf:resource="http://creativecommons.org/ns#Reproduction" />
        <cc:permits rdf:resource="http://creativecommons.org/ns#Distribution" />
        <cc:requires rdf:resource="http://creativecommons.org/ns#Notice" />
        <cc:requires rdf:resource="http://creativecommons.org/ns#Attribution" />
        <cc:permits rdf:resource="http://creativecommons.org/ns#DerivativeWorks" />
        <cc:requires rdf:resource="http://creativecommons.org/ns#ShareAlike" />
      </cc:License>
    </rdf:RDF>
  </metadata>
  <defs>
    <style>.cls-1,.cls-4{fill:none;stroke-linecap:round;stroke-linejoin:round;}.cls-1{stroke:#545454;}.cls-2{fill:#1a81c4;}.cls-3{fill:#e61c50;}.cls-4{stroke:#f5f5f5;stroke-width:2px;}</style>
  </defs>
  <title>module_check</title>
  <polygon class="cls-1" points="2.998 12.344 1.247 13.921 1.247 18.952 21.489 18.952 21.504 4.069 1.247 4.069 1.247 8.592 2.998 10.168 2.998 12.344"/>
  <rect class="cls-2" x="14.8134" y="15.888" width="4.3776" height="6.1286"/>
  <rect class="cls-2" x="3.4432" y="15.888" width="4.3776" height="6.1286"/>
  <rect class="cls-2" x="9.1262" y="15.888" width="4.3775" height="6.1286"/>
  <rect class="cls-2" x="14.8134" y="1.0043" width="4.3776" height="6.1286"/>
  <rect class="cls-2" x="3.4432" y="1.0043" width="4.3776" height="6.1286"/>
  <rect class="cls-2" x="9.1262" y="1.0043" width="4.3775" height="6.1286"/>
  <path class="cls-3" d="M25.0065,18A7.0065,7.0065,0,1,1,18,11,7.0032,7.0032,0,0,1,25.0065,18Z"/>
  <polyline class="cls-4" points="21.746 16.275 17.173 20.846 14.418 18.093"/>
</svg>