<svg id="Слой_1" data-name="Слой 1"
  xmlns:dc="http://purl.org/dc/elements/1.1/"
  xmlns:cc="http://creativecommons.org/ns#"
  xmlns:rdf="http://www.w3.org/1999/02/22-rdf-syntax-ns#"
  xmlns="http://www.w3.org/2000/svg" viewBox="0 0 26 26">
  <metadata id="metadata43">
    <rdf:RDF>
      <cc:Work rdf:about="">
        <cc:license rdf:resource="http://creativecommons.org/licenses/by-sa/4.0/" />
        <dc:format>image/svg+xml</dc:format>
        <dc:type rdf:resource="http://purl.org/dc/dcmitype/StillImage" />
        <dc:title>add_arc</dc:title>
      </cc:Work>
      <cc:License rdf:about="http://creativecommons.org/licenses/by-sa/4.0/">
        <cc:permits rdf:resource="http://creativecommons.org/ns#Reproduction" />
        <cc:permits rdf:resource="http://creativecommons.org/ns#Distribution" />
        <cc:requires rdf:resource="http://creativecommons.org/ns#Notice" />
        <cc:requires rdf:resource="http://creativecommons.org/ns#Attribution" />
        <cc:permits rdf:resource="http://creativecommons.org/ns#DerivativeWorks" />
        <cc:requires rdf:resource="http://creativecommons.org/ns#ShareAlike" />
      </cc:License>
    </rdf:RDF>
  </metadata>
  <defs>
    <style>.cls-1{fill:#545454;}.cls-2{fill:#1a81c4;}.cls-3{fill:#e61c50;}</style>
  </defs>
  <title>module_wizard</title>
  <path class="cls-1" d="M16.0037,19.42H1.4968a.5.5,0,0,1-.5-.5V13.9075a.5016.5016,0,0,1,.165-.3711l1.58-1.4228V10.3909l-1.58-1.4228a.5015.5015,0,0,1-.165-.3711V4.09a.5.5,0,0,1,.5-.5H21.5a.5.5,0,0,1,.5.5l-.0118,14.4825a.5.5,0,0,1-.5.5h.1309c-.2764,0-.6309-.2246-.6309-.5L21,4.59H1.9968V8.3743l1.58,1.4229a.5015.5015,0,0,1,.165.3711v2.1679a.5015.5015,0,0,1-.165.3711L1.9968,14.13v4.29H16.0037a.5.5,0,1,1,0,1Z"/>
  <rect class="cls-2" x="3.5295" y="15.8673" width="4.3619" height="6.1066"/>
  <rect class="cls-2" x="9.1922" y="15.8673" width="4.3619" height="6.1066"/>
  <rect class="cls-2" x="14.8591" y="1.0366" width="4.3619" height="6.1067"/>
  <rect class="cls-2" x="3.5295" y="1.0366" width="4.3619" height="6.1067"/>
  <rect class="cls-2" x="9.1922" y="1.0366" width="4.3619" height="6.1067"/>
  <polygon class="cls-3" points="17.667 11.002 19.935 15.598 25.007 16.335 21.337 19.912 22.203 24.963 17.667 22.578 13.13 24.963 13.997 19.912 10.327 16.335 15.399 15.598 17.667 11.002"/>
</svg>