<?xml version="1.0" encoding="UTF-8" standalone="no"?>
<svg
   xmlns:dc="http://purl.org/dc/elements/1.1/"
   xmlns:cc="http://creativecommons.org/ns#"
   xmlns:rdf="http://www.w3.org/1999/02/22-rdf-syntax-ns#"
   xmlns:svg="http://www.w3.org/2000/svg"
   xmlns="http://www.w3.org/2000/svg"
   xmlns:xlink="http://www.w3.org/1999/xlink"
   xmlns:sodipodi="http://sodipodi.sourceforge.net/DTD/sodipodi-0.dtd"
   xmlns:inkscape="http://www.inkscape.org/namespaces/inkscape"
   height="26"
   width="26"
   version="1.1"
   viewBox="0 0 26 26"
   id="svg2"
   inkscape:version="0.48.3.1 r9886"
   sodipodi:docname="module_options.svg">
  <metadata
     id="metadata100">
    <rdf:RDF>
      <cc:Work
         rdf:about="">
        <dc:format>image/svg+xml</dc:format>
        <dc:type
           rdf:resource="http://purl.org/dc/dcmitype/StillImage" />
        <dc:title />
      </cc:Work>
    </rdf:RDF>
  </metadata>
  <sodipodi:namedview
     pagecolor="#ffffff"
     bordercolor="#666666"
     borderopacity="1"
     objecttolerance="10"
     gridtolerance="10"
     guidetolerance="10"
     inkscape:pageopacity="0"
     inkscape:pageshadow="2"
     inkscape:window-width="1600"
     inkscape:window-height="849"
     id="namedview98"
     showgrid="true"
     inkscape:zoom="16.780188"
     inkscape:cx="18.474572"
     inkscape:cy="10.42216"
     inkscape:window-x="0"
     inkscape:window-y="29"
     inkscape:window-maximized="1"
     inkscape:current-layer="svg2"
     inkscape:snap-to-guides="false"
     inkscape:snap-grids="false">
    <inkscape:grid
       type="xygrid"
       id="grid3048"
       empspacing="1"
       visible="true"
       enabled="true"
       snapvisiblegridlinesonly="true" />
  </sodipodi:namedview>
  <defs
     id="defs4">
    <linearGradient
       inkscape:collect="always"
       xlink:href="#linearGradient4067"
       id="linearGradient4065"
       gradientUnits="userSpaceOnUse"
       gradientTransform="matrix(-0.97986422,0,0,-0.90274951,36.439043,17.512776)"
       x1="8.6861582"
       y1="9.6206512"
       x2="37.265358"
       y2="35.973965" />
    <linearGradient
       id="linearGradient4067"
       y2="39.685001"
       gradientUnits="userSpaceOnUse"
       x2="34.534"
       gradientTransform="matrix(1.2419,0,0,1.2419,36.866,-2.4533)"
       y1="12.285"
       x1="14.463">
      <stop
         stop-color="#c9c9c9"
         offset="0"
         id="stop4069" />
      <stop
         stop-color="#f8f8f8"
         offset="0.44999999"
         id="stop4071" />
      <stop
         stop-color="#e2e2e2"
         offset="0.66666645"
         id="stop4073" />
      <stop
         stop-color="#b0b0b0"
         offset="0.95000005"
         id="stop4075" />
      <stop
         stop-color="#c9c9c9"
         offset="1"
         id="stop4077" />
    </linearGradient>
  </defs>
  <rect
     style="fill:#ffffff;stroke:#545454;stroke-width:0.97711289000000001;stroke-linejoin:round;stroke-miterlimit:4;stroke-dasharray:none;stroke-opacity:1"
     transform="matrix(0,-1,1,0,0,0)"
     height="22.924355"
     width="14.08869"
     y="1.4947493"
     x="-20.593565"
     id="rect51" />
  <rect
     style="opacity:0.92000002000000003;fill:#ffffff;fill-opacity:1;stroke:none;stroke-width:1;stroke-miterlimit:4;stroke-opacity:1;stroke-dasharray:none"
     id="rect5680"
     width="7.2108846"
     height="4.0523982"
     x="18.176197"
     y="18.193174" />
  <path
     style="fill:none;stroke:#545454;stroke-width:1;stroke-linejoin:round;stroke-miterlimit:4;stroke-dasharray:none;stroke-opacity:1"
     inkscape:connector-curvature="0"
     d="m 0.98623924,11.082126 a 2.2240581,1.9589449 0 1 1 0.0137601,3.917871"
     id="path53" />
  <g
     id="g3983">
    <rect
       id="rect73"
       x="-8.5317764"
       y="4.5123401"
       width="6.0590835"
       height="4.0659709"
       transform="matrix(0,-1,1,0,0,0)"
       style="fill:#00c921;stroke:#545454;stroke-width:0.93241322000000004;stroke-linejoin:round;stroke-miterlimit:4;stroke-dasharray:none;fill-opacity:1;stroke-opacity:1" />
    <rect
       id="rect73-5"
       x="-8.5076618"
       y="11.451617"
       width="6.0590835"
       height="4.0659709"
       transform="matrix(0,-1,1,0,0,0)"
       style="fill:#00c921;fill-opacity:1;stroke:#545454;stroke-width:0.93241322;stroke-linejoin:round;stroke-miterlimit:4;stroke-opacity:1;stroke-dasharray:none" />
    <rect
       id="rect73-56"
       x="-8.5498009"
       y="18.488895"
       width="6.0590835"
       height="4.0659709"
       transform="matrix(0,-1,1,0,0,0)"
       style="fill:#00c921;fill-opacity:1;stroke:#545454;stroke-width:0.93241322;stroke-linejoin:round;stroke-miterlimit:4;stroke-opacity:1;stroke-dasharray:none" />
  </g>
  <rect
     style="fill:#00c921;fill-opacity:1;stroke:#545454;stroke-width:0.93241322;stroke-linejoin:round;stroke-miterlimit:4;stroke-opacity:1;stroke-dasharray:none"
     transform="matrix(0,-1,1,0,0,0)"
     height="4.0659709"
     width="6.0590835"
     y="4.5661888"
     x="-24.622625"
     id="rect73-0" />
  <g
     transform="matrix(-0.42851424,0,0,-0.44135386,25.329873,17.783648)"
     id="g23"
     style="stroke:#4d4d4d">
    <g
       id="g3874"
       transform="translate(2.8296804,1.8656591)"
       style="stroke:#4d4d4d">
      <path
         inkscape:connector-curvature="0"
         id="path215"
         d="m 16.592418,15.314234 c 0.398408,-0.02515 0.785645,-0.08195 1.176971,-0.123224 h 0.02688 l 0.93627,-4.707081 c 1.525955,-0.32017 2.961602,-0.8635364 4.253189,-1.6018368 l 4.199309,2.7842848 C 28.320923,10.85442 29.353234,9.9072916 30.261429,8.8813057 L 27.345797,4.9629135 c 0.885255,-1.2464039 1.551034,-2.669615 1.925954,-4.16483005 6.3e-5,-0.00683 5.4e-5,-0.023596 0,-0.024584 l 5.082379,-0.7393282 c 0.09291,-0.69920801 0.133727,-1.42179205 0.133727,-2.14408425 0,-0.590906 -0.01772,-1.1739303 -0.08026,-1.7497759 l -5.082376,-0.8378996 c -0.361463,-1.6260469 -1.048144,-3.1446032 -2.006243,-4.4852491 l 3.022635,-3.8198884 c -0.865655,-0.990104 -1.865096,-1.891569 -2.942433,-2.686178 l -4.279894,2.710862 c -1.495741,-0.879068 -3.165501,-1.495527 -4.975383,-1.798988 l -0.802482,-4.657716 c -0.570234,-0.04783 -1.154972,-0.04929 -1.738664,-0.04929 -0.824033,0 -1.611128,0.02864 -2.407441,0.123224 l -0.962982,4.756292 c -1.718461,0.393993 -3.3327526,1.077486 -4.7345912,1.996142 l -4.1194005,-2.76015 c -1.0682645,0.837352 -2.0451936,1.799854 -2.88893331,2.834124 l 2.99593021,3.9923591 c -0.8113418,1.2909624 -1.3735059,2.715279 -1.658461,4.238803 l -5.0554141,0.7389336 c -0.044307,0.4859216 -0.053496,0.9573165 -0.053496,1.4539069 0,0.862901 0.1088651,1.7090069 0.2407178,2.53839255 L 2.0945606,1.2905798 c 0.4024764,1.369199 1.0628725,2.646674 1.8992503,3.7952126 L 0.97117539,8.9056082 C 1.9076458,9.9600496 2.975905,10.935566 4.1537353,11.763297 L 8.5139241,9.0031449 c 1.2531523,0.6828177 2.6017489,1.2067421 4.0659029,1.5032611 l 0.802065,4.68224 c 0.73101,0.07917 1.467154,0.123248 2.220414,0.123248 0.203628,0 0.413167,0.0062 0.615236,0 0.09851,-0.0029 0.195981,0.0054 0.294253,0 0.02656,-0.0014 0.0537,0.0016 0.08026,0 z M 15.896935,3.3375436 c -0.09773,0.00445 -0.195299,0 -0.294254,0 -3.166353,0 -5.7511526,-2.38129895 -5.7511526,-5.2985435 0,-2.9171625 2.5847146,-5.2738606 5.7511526,-5.2738606 3.166354,0 5.724365,2.3566981 5.724365,5.2738606 -2e-6,2.82599805 -2.400681,5.1569084 -5.430162,5.2985435 z"
         style="color:#000000;fill:url(#linearGradient4065);fill-opacity:1;stroke:#4d4d4d;stroke-width:2.29944968;stroke-miterlimit:4;stroke-opacity:1;stroke-dasharray:none" />
    </g>
  </g>
</svg>
