<?xml version="1.0" encoding="UTF-8" standalone="no"?>
<svg
   xmlns:dc="http://purl.org/dc/elements/1.1/"
   xmlns:cc="http://creativecommons.org/ns#"
   xmlns:rdf="http://www.w3.org/1999/02/22-rdf-syntax-ns#"
   xmlns:svg="http://www.w3.org/2000/svg"
   xmlns="http://www.w3.org/2000/svg"
   xmlns:sodipodi="http://sodipodi.sourceforge.net/DTD/sodipodi-0.dtd"
   xmlns:inkscape="http://www.inkscape.org/namespaces/inkscape"
   height="48"
   width="48"
   version="1.1"
   viewBox="0 0 48 48"
   id="svg2"
   inkscape:version="0.47 r22583"
   sodipodi:docname="module.svg">
  <metadata
     id="metadata100">
    <rdf:RDF>
      <cc:Work
         rdf:about="">
        <dc:format>image/svg+xml</dc:format>
        <dc:type
           rdf:resource="http://purl.org/dc/dcmitype/StillImage" />
      </cc:Work>
    </rdf:RDF>
  </metadata>
  <sodipodi:namedview
     pagecolor="#ffffff"
     bordercolor="#666666"
     borderopacity="1"
     objecttolerance="10"
     gridtolerance="10"
     guidetolerance="10"
     inkscape:pageopacity="0"
     inkscape:pageshadow="2"
     inkscape:window-width="1280"
     inkscape:window-height="949"
     id="namedview98"
     showgrid="false"
     inkscape:zoom="4.9166667"
     inkscape:cx="27.050847"
     inkscape:cy="23.59322"
     inkscape:window-x="0"
     inkscape:window-y="25"
     inkscape:window-maximized="1"
     inkscape:current-layer="svg2" />
  <defs
     id="defs4">
    <inkscape:perspective
       sodipodi:type="inkscape:persp3d"
       inkscape:vp_x="0 : 24 : 1"
       inkscape:vp_y="0 : 1000 : 0"
       inkscape:vp_z="48 : 24 : 1"
       inkscape:persp3d-origin="24 : 16 : 1"
       id="perspective102" />
    <linearGradient
       id="h"
       y2="14.691"
       gradientUnits="userSpaceOnUse"
       x2="30.432"
       gradientTransform="translate(6.3922,12.185)"
       y1="12.338"
       x1="28.079">
      <stop
         stop-color="#fcaf3e"
         offset="0"
         id="stop7" />
      <stop
         stop-color="#ce5c00"
         offset="1"
         id="stop9" />
    </linearGradient>
    <linearGradient
       id="i"
       y2="22.119"
       gradientUnits="userSpaceOnUse"
       x2="22.81"
       gradientTransform="translate(6.3922,12.185)"
       y1="21.481"
       x1="23.448">
      <stop
         stop-color="#ce5c00"
         offset="0"
         id="stop12" />
      <stop
         stop-color="#ce5c00"
         offset="1"
         id="stop14" />
    </linearGradient>
    <linearGradient
       id="j"
       y2="32.714"
       gradientUnits="userSpaceOnUse"
       x2="25.485"
       y1="34.39"
       x1="26.379">
      <stop
         stop-color="#e9b96e"
         offset="0"
         id="stop17" />
      <stop
         stop-color="#fff"
         offset="1"
         id="stop19" />
    </linearGradient>
    <radialGradient
       id="l"
       gradientUnits="userSpaceOnUse"
       cy="128"
       cx="-138.84"
       gradientTransform="matrix(.35473 -.34328 .35696 .34544 130.15 -71.026)"
       r="9.1267">
      <stop
         stop-color="#f9a9a9"
         offset="0"
         id="stop22" />
      <stop
         stop-color="#ab5f5f"
         offset="1"
         id="stop24" />
    </radialGradient>
    <linearGradient
       id="k"
       y2="134.25"
       gradientUnits="userSpaceOnUse"
       x2="-158.75"
       gradientTransform="matrix(.20949 -.20274 .20949 .20274 129.28 -31.999)"
       y1="115.94"
       x1="-158.75">
      <stop
         stop-color="#ddd"
         offset="0"
         id="stop27" />
      <stop
         stop-color="#fff"
         offset=".34468"
         id="stop29" />
      <stop
         stop-color="#737373"
         offset=".72695"
         id="stop31" />
      <stop
         stop-color="#bbb"
         offset="1"
         id="stop33" />
    </linearGradient>
    <linearGradient
       id="g"
       y2="-20.465"
       gradientUnits="userSpaceOnUse"
       x2="253.65"
       gradientTransform="matrix(.076209 0 0 .0837 -38.77 12.013)"
       y1="-3.7385"
       x1="-15.36">
      <stop
         stop-color="#faff00"
         offset="0"
         id="stop36" />
      <stop
         stop-color="#0bae09"
         offset="1"
         id="stop38" />
    </linearGradient>
  </defs>
  <g
     transform="matrix(-2.8288,0,0,-2.4916,-6.2525102,40.786)"
     id="g40">
    <g
       id="g42"
       style="stroke-linejoin:round">
      <rect
         transform="matrix(0,1,-1,0,0,0)"
         height="14.619"
         width="9.7086"
         y="3.4905"
         x="1.904"
         id="rect44"
         style="fill:#ffffff;stroke:#000000;stroke-width:0.40000001" />
      <path
         d="m 693.26,625.06 a 18.91409,18.91409 0 0 1 -37.828,0.11702"
         transform="matrix(0,0.071482,-0.071482,0,41.168,-41.24)"
         id="path46"
         style="fill:none;stroke:#030303;stroke-width:5.59579992" />
    </g>
    <g
       transform="translate(-0.0375,-0.15)"
       id="g48"
       style="stroke:#030303;stroke-linejoin:round">
      <rect
         transform="matrix(0,1,-1,0,0,0)"
         height="2.5109999"
         width="4.7175999"
         y="13.332"
         x="-0.31959"
         id="rect50"
         style="fill:#ff7800;stroke-width:0.30000001" />
      <rect
         transform="matrix(0,1,-1,0,0,0)"
         height="2.5109999"
         width="4.7175999"
         y="5.3635998"
         x="-0.31959"
         id="rect52"
         style="fill:#ff7800;stroke-width:0.30000001" />
      <path
         d="m 654.65,737.28 a 9.5805,9.5805 0 1 1 -19.161,0 9.5805,9.5805 0 1 1 19.161,0 z"
         transform="matrix(0,0.071482,-0.071482,0,46.083,-44.072)"
         id="path54"
         style="fill:#ffede0;stroke-width:4.19689989" />
      <rect
         transform="matrix(0,1,-1,0,0,0)"
         height="2.5109999"
         width="4.7175999"
         y="9.3478003"
         x="-0.31959"
         id="rect56"
         style="fill:#ff7800;stroke-width:0.30000001" />
      <path
         d="m 654.65,737.28 a 9.5805,9.5805 0 1 1 -19.161,0 9.5805,9.5805 0 1 1 19.161,0 z"
         transform="matrix(0,0.071482,-0.071482,0,42.08,-44.072)"
         id="path58"
         style="fill:#ffede0;stroke-width:4.19689989" />
      <path
         d="m 654.65,737.28 a 9.5805,9.5805 0 1 1 -19.161,0 9.5805,9.5805 0 1 1 19.161,0 z"
         transform="matrix(0,0.071482,-0.071482,0,38.077,-44.072)"
         id="path60"
         style="fill:#ffede0;stroke-width:4.19689989" />
    </g>
    <g
       transform="translate(-0.0375,9.6261)"
       id="g62">
      <rect
         transform="matrix(0,1,-1,0,0,0)"
         height="2.5109999"
         width="4.7175999"
         y="13.332"
         x="-0.31959"
         id="rect64"
         style="fill:#ff7800;stroke:#030303;stroke-width:0.30000001;stroke-linejoin:round" />
      <rect
         transform="matrix(0,1,-1,0,0,0)"
         height="2.5109999"
         width="4.7175999"
         y="5.3635998"
         x="-0.31959"
         id="rect66"
         style="fill:#ff7800;stroke:#030303;stroke-width:0.30000001;stroke-linejoin:round" />
      <path
         d="m 654.65,737.28 a 9.5805,9.5805 0 1 1 -19.161,0 9.5805,9.5805 0 1 1 19.161,0 z"
         transform="matrix(0,0.071482,-0.071482,0,46.083,-44.072)"
         id="path68"
         style="fill:#ffede0;stroke:#030303;stroke-width:4.19689989;stroke-linejoin:round" />
      <rect
         transform="matrix(0,1,-1,0,0,0)"
         height="2.5109999"
         width="4.7175999"
         y="9.3478003"
         x="-0.31959"
         id="rect70"
         style="fill:#ff7800;stroke:#030303;stroke-width:0.30000001;stroke-linejoin:round" />
      <path
         d="m 654.65,737.28 a 9.5805,9.5805 0 1 1 -19.161,0 9.5805,9.5805 0 1 1 19.161,0 z"
         transform="matrix(0,0.071482,-0.071482,0,42.08,-44.072)"
         id="path72"
         style="fill:#ffede0;stroke:#030303;stroke-width:4.19689989;stroke-linejoin:round" />
      <g
         id="g74"
         style="stroke-width:0.30000001">
        <path
           d="m 654.65,737.28 a 9.5805,9.5805 0 1 1 -19.161,0 9.5805,9.5805 0 1 1 19.161,0 z"
           transform="matrix(0,0.071482,-0.071482,0,38.077,-44.072)"
           id="path76"
           style="fill:#ffede0;stroke:#030303;stroke-width:4.19689989;stroke-linejoin:round" />
      </g>
    </g>
  </g>
</svg>
