<?xml version="1.0" encoding="UTF-8" standalone="no"?>
<svg
   xmlns:dc="http://purl.org/dc/elements/1.1/"
   xmlns:cc="http://creativecommons.org/ns#"
   xmlns:rdf="http://www.w3.org/1999/02/22-rdf-syntax-ns#"
   xmlns:svg="http://www.w3.org/2000/svg"
   xmlns="http://www.w3.org/2000/svg"
   xmlns:sodipodi="http://sodipodi.sourceforge.net/DTD/sodipodi-0.dtd"
   xmlns:inkscape="http://www.inkscape.org/namespaces/inkscape"
   height="48"
   width="48"
   version="1.1"
   viewBox="0 0 48 48"
   id="svg2"
   inkscape:version="0.48.1 "
   sodipodi:docname="module.svg">
  <metadata
     id="metadata100">
    <rdf:RDF>
      <cc:Work
         rdf:about="">
        <dc:format>image/svg+xml</dc:format>
        <dc:type
           rdf:resource="http://purl.org/dc/dcmitype/StillImage" />
      </cc:Work>
    </rdf:RDF>
  </metadata>
  <sodipodi:namedview
     pagecolor="#ffffff"
     bordercolor="#666666"
     borderopacity="1"
     objecttolerance="10"
     gridtolerance="10"
     guidetolerance="10"
     inkscape:pageopacity="0"
     inkscape:pageshadow="2"
     inkscape:window-width="1280"
     inkscape:window-height="968"
     id="namedview98"
     showgrid="false"
     inkscape:zoom="6.8885454"
     inkscape:cx="3.8238824"
     inkscape:cy="23.59322"
     inkscape:window-x="-4"
     inkscape:window-y="-4"
     inkscape:window-maximized="1"
     inkscape:current-layer="svg2" />
  <defs
     id="defs4">
    <inkscape:perspective
       sodipodi:type="inkscape:persp3d"
       inkscape:vp_x="0 : 24 : 1"
       inkscape:vp_y="0 : 1000 : 0"
       inkscape:vp_z="48 : 24 : 1"
       inkscape:persp3d-origin="24 : 16 : 1"
       id="perspective102" />
    <linearGradient
       id="h"
       y2="14.691"
       gradientUnits="userSpaceOnUse"
       x2="30.432"
       gradientTransform="translate(6.3922,12.185)"
       y1="12.338"
       x1="28.079">
      <stop
         stop-color="#fcaf3e"
         offset="0"
         id="stop7" />
      <stop
         stop-color="#ce5c00"
         offset="1"
         id="stop9" />
    </linearGradient>
    <linearGradient
       id="i"
       y2="22.119"
       gradientUnits="userSpaceOnUse"
       x2="22.81"
       gradientTransform="translate(6.3922,12.185)"
       y1="21.481"
       x1="23.448">
      <stop
         stop-color="#ce5c00"
         offset="0"
         id="stop12" />
      <stop
         stop-color="#ce5c00"
         offset="1"
         id="stop14" />
    </linearGradient>
    <linearGradient
       id="j"
       y2="32.714"
       gradientUnits="userSpaceOnUse"
       x2="25.485"
       y1="34.39"
       x1="26.379">
      <stop
         stop-color="#e9b96e"
         offset="0"
         id="stop17" />
      <stop
         stop-color="#fff"
         offset="1"
         id="stop19" />
    </linearGradient>
    <radialGradient
       id="l"
       gradientUnits="userSpaceOnUse"
       cy="128"
       cx="-138.84"
       gradientTransform="matrix(.35473 -.34328 .35696 .34544 130.15 -71.026)"
       r="9.1267">
      <stop
         stop-color="#f9a9a9"
         offset="0"
         id="stop22" />
      <stop
         stop-color="#ab5f5f"
         offset="1"
         id="stop24" />
    </radialGradient>
    <linearGradient
       id="k"
       y2="134.25"
       gradientUnits="userSpaceOnUse"
       x2="-158.75"
       gradientTransform="matrix(.20949 -.20274 .20949 .20274 129.28 -31.999)"
       y1="115.94"
       x1="-158.75">
      <stop
         stop-color="#ddd"
         offset="0"
         id="stop27" />
      <stop
         stop-color="#fff"
         offset=".34468"
         id="stop29" />
      <stop
         stop-color="#737373"
         offset=".72695"
         id="stop31" />
      <stop
         stop-color="#bbb"
         offset="1"
         id="stop33" />
    </linearGradient>
    <linearGradient
       id="g"
       y2="-20.465"
       gradientUnits="userSpaceOnUse"
       x2="253.65"
       gradientTransform="matrix(.076209 0 0 .0837 -38.77 12.013)"
       y1="-3.7385"
       x1="-15.36">
      <stop
         stop-color="#faff00"
         offset="0"
         id="stop36" />
      <stop
         stop-color="#0bae09"
         offset="1"
         id="stop38" />
    </linearGradient>
  </defs>
  <g
     style="fill:#c8c8c8;fill-opacity:1;stroke:#000000;stroke-width:0.63823414000000001;stroke-linejoin:round;stroke-miterlimit:4;stroke-opacity:1;stroke-dasharray:none"
     id="g42"
     transform="matrix(-3.089888,0,0,-3.1303427,-9.1448447,44.897143)">
    <rect
       style="fill:#c8c8c8;fill-opacity:1;stroke:#000000;stroke-width:0.63823414000000001;stroke-miterlimit:4;stroke-opacity:1;stroke-dasharray:none"
       id="rect44"
       x="1.904"
       y="3.4905"
       width="9.7086"
       height="14.619"
       transform="matrix(0,1,-1,0,0,0)" />
    <path
       inkscape:connector-curvature="0"
       style="fill:#c8c8c8;fill-opacity:1;stroke:#000000;stroke-width:8.92859935999999980;stroke-miterlimit:4;stroke-opacity:1;stroke-dasharray:none"
       id="path46"
       transform="matrix(0,0.071482,-0.071482,0,41.168,-41.24)"
       d="m 693.26,625.06 a 18.91409,18.91409 0 0 1 -37.828,0.11702" />
  </g>
  <g
     style="stroke:#030303;stroke-linejoin:round"
     id="g48"
     transform="matrix(-3.1385085,0,0,-3.1287915,-9.9151729,45.355978)">
    <rect
       style="fill:#ff7800;stroke-width:0.30000001"
       id="rect50"
       x="-0.31959"
       y="13.332"
       width="4.7175999"
       height="2.5109999"
       transform="matrix(0,1,-1,0,0,0)" />
    <rect
       style="fill:#ff7800;stroke-width:0.30000001"
       id="rect52"
       x="-0.31959"
       y="5.3635998"
       width="4.7175999"
       height="2.5109999"
       transform="matrix(0,1,-1,0,0,0)" />
    <path
       inkscape:connector-curvature="0"
       style="fill:#ffede0;stroke-width:4.19689989"
       id="path54"
       transform="matrix(0,0.071482,-0.071482,0,46.083,-44.072)"
       d="m 654.65,737.28 a 9.5805,9.5805 0 1 1 -19.161,0 9.5805,9.5805 0 1 1 19.161,0 z" />
    <rect
       style="fill:#ff7800;stroke-width:0.30000001"
       id="rect56"
       x="-0.31959"
       y="9.3478003"
       width="4.7175999"
       height="2.5109999"
       transform="matrix(0,1,-1,0,0,0)" />
    <path
       inkscape:connector-curvature="0"
       style="fill:#ffede0;stroke-width:4.19689989"
       id="path58"
       transform="matrix(0,0.071482,-0.071482,0,42.08,-44.072)"
       d="m 654.65,737.28 a 9.5805,9.5805 0 1 1 -19.161,0 9.5805,9.5805 0 1 1 19.161,0 z" />
    <path
       inkscape:connector-curvature="0"
       style="fill:#ffede0;stroke-width:4.19689989"
       id="path60"
       transform="matrix(0,0.071482,-0.071482,0,38.077,-44.072)"
       d="m 654.65,737.28 a 9.5805,9.5805 0 1 1 -19.161,0 9.5805,9.5805 0 1 1 19.161,0 z" />
  </g>
  <g
     id="g62"
     transform="matrix(-3.1385085,0,0,-3.1287915,-9.9151729,14.768599)">
    <rect
       style="fill:#ff7800;stroke:#030303;stroke-width:0.30000001;stroke-linejoin:round"
       id="rect64"
       x="-0.31959"
       y="13.332"
       width="4.7175999"
       height="2.5109999"
       transform="matrix(0,1,-1,0,0,0)" />
    <rect
       style="fill:#ff7800;stroke:#030303;stroke-width:0.30000001;stroke-linejoin:round"
       id="rect66"
       x="-0.31959"
       y="5.3635998"
       width="4.7175999"
       height="2.5109999"
       transform="matrix(0,1,-1,0,0,0)" />
    <path
       inkscape:connector-curvature="0"
       style="fill:#ffede0;stroke:#030303;stroke-width:4.19689989;stroke-linejoin:round"
       id="path68"
       transform="matrix(0,0.071482,-0.071482,0,46.083,-44.072)"
       d="m 654.65,737.28 a 9.5805,9.5805 0 1 1 -19.161,0 9.5805,9.5805 0 1 1 19.161,0 z" />
    <rect
       style="fill:#ff7800;stroke:#030303;stroke-width:0.30000001;stroke-linejoin:round"
       id="rect70"
       x="-0.31959"
       y="9.3478003"
       width="4.7175999"
       height="2.5109999"
       transform="matrix(0,1,-1,0,0,0)" />
    <path
       inkscape:connector-curvature="0"
       style="fill:#ffede0;stroke:#030303;stroke-width:4.19689989;stroke-linejoin:round"
       id="path72"
       transform="matrix(0,0.071482,-0.071482,0,42.08,-44.072)"
       d="m 654.65,737.28 a 9.5805,9.5805 0 1 1 -19.161,0 9.5805,9.5805 0 1 1 19.161,0 z" />
    <g
       style="stroke-width:0.30000001"
       id="g74">
      <path
         inkscape:connector-curvature="0"
         style="fill:#ffede0;stroke:#030303;stroke-width:4.19689989;stroke-linejoin:round"
         id="path76"
         transform="matrix(0,0.071482,-0.071482,0,38.077,-44.072)"
         d="m 654.65,737.28 a 9.5805,9.5805 0 1 1 -19.161,0 9.5805,9.5805 0 1 1 19.161,0 z" />
    </g>
  </g>
</svg>
