<svg id="Слой_1" data-name="Слой 1"
  xmlns:cc="http://creativecommons.org/ns#"
  xmlns:rdf="http://www.w3.org/1999/02/22-rdf-syntax-ns#"
  xmlns="http://www.w3.org/2000/svg" viewBox="0 0 26 26">
  <metadata id="metadata43">
    <rdf:RDF>
      <cc:Work rdf:about="">
        <cc:license rdf:resource="http://creativecommons.org/licenses/by/4.0/" />
      </cc:Work>
      <cc:License rdf:about="http://creativecommons.org/licenses/by/4.0/">
        <cc:permits rdf:resource="http://creativecommons.org/ns#Reproduction" />
        <cc:permits rdf:resource="http://creativecommons.org/ns#Distribution" />
        <cc:requires rdf:resource="http://creativecommons.org/ns#Notice" />
        <cc:requires rdf:resource="http://creativecommons.org/ns#Attribution" />
        <cc:permits rdf:resource="http://creativecommons.org/ns#DerivativeWorks" />
      </cc:License>
    </rdf:RDF>
  </metadata>
  <defs>
    <style>.cls-1{fill:none;stroke:#545454;stroke-linecap:round;stroke-linejoin:round;}</style>
  </defs>
  <title>morgan2</title>
  <path class="cls-1" d="M6.8014,19.5H15.156s3.571-.907,4.3795-6.5C18.727,7.407,15.156,6.5,15.156,6.5H6.8014a7.5647,7.5647,0,0,1,3.84,6.5A7.5647,7.5647,0,0,1,6.8014,19.5Z"/>
  <line class="cls-1" x1="19.5355" y1="13" x2="22.5" y2="13"/>
  <ellipse class="cls-1" cx="8.0984" cy="10.0498" rx="1.6339" ry="1.7612"/>
  <line class="cls-1" x1="6.4645" y1="10.0498" x2="3.5" y2="10.0498"/>
  <path class="cls-1" d="M9.7323,15.9869a1.7011,1.7011,0,0,1-1.6339,1.7612,1.7661,1.7661,0,0,1,0-3.5223A1.7011,1.7011,0,0,1,9.7323,15.9869Z"/>
  <line class="cls-1" x1="6.4645" y1="15.9869" x2="3.5" y2="15.9869"/>
</svg>