<svg xmlns="http://www.w3.org/2000/svg" height="48" width="48" version="1.1">
 <g fill-rule="evenodd" fill="#11b50f" transform="matrix(3.25,0,0,3.175,80.571,154.1)">
  <path d="m-36.422-52.442-1.5 1.5h1v3.5h1v-3.5h1l-1.5-1.5z"/>
  <path d="m-36.422-44.442-1.5-1.5h1v-2h1v2h1l-1.5 1.5z"/>
  <path d="m-40.422-48.442 1.5 1.5v-1h2.5v-1h-2.5v-1l-1.5 1.5z"/>
  <path d="m-32.422-48.442-1.5 1.5v-1h-2v-1h2v-1l1.5 1.5z"/>
 </g>
 <path d="m32.612 19.273-6.506 5.3467h4.1453v6.1131h-1.3957v0.031h-5.9939v-3.69l-5.9423 5.8562 5.9423 5.8539v-3.73h7.3897v0.93246h0.03447v5.3932h-4.101l6.5084 5.3467 6.506-5.3467h-4.1453v-6.3257h0.44308v-0.03101h5.9915v3.69l5.9423-5.8562-5.9423-5.8539v3.7299h-6.4346v-0.721h-0.033v-5.391h4.101l-6.5084-5.3467z" fill-rule="evenodd" stroke="#44a118" stroke-width="1.2599" fill="#59d421"/>
 <path fill="#1bbc1b" d="m3.1295 11.355 17.118-8.0344 39.369 6.3063c1.47 2.5188 2.1077 10.007 5.9538 17.203l-45.555-16.247-16.267 7.039c-1.6782-2.831 1.0406-3.777-0.6195-6.267z"/>
</svg>
