<svg xmlns="http://www.w3.org/2000/svg" height="48" width="48" version="1.1">
 <defs>
  <filter id="a" color-interpolation-filters="sRGB">
   <feGaussianBlur stdDeviation="1.1026007"/>
  </filter>
 </defs>
 <g fill-rule="evenodd" transform="matrix(1.3529,0,0,1.368,-28.258,-28.021)">
  <path opacity=".57422" d="m-77.169 14.171h42.073v10.622h-3.0052l-4.5079-5.3112h-7.5131v27.884l6.0105 3.9834v2.6556h-24.042v-2.6556l6.0105-3.9834v-27.884h-7.5131l-4.5079 5.3112h-3.0052v-10.622z" transform="matrix(.47197 0 0 .5148 61.766 17.137)" filter="url(#a)"/>
  <path fill="#00009b" d="m23.926 23.066h19.858v5.4684h-1.418l-2.128-2.734h-3.546v14.355l2.8368 2.0506v1.3671h-11.347v-1.367l2.8368-2.0506v-14.355h-3.546l-2.128 2.734h-1.418v-5.468z"/>
 </g>
 <path d="m32.612 19.273-6.506 5.3467h4.1453v6.1131h-1.3957v0.031h-5.9939v-3.69l-5.9423 5.8562 5.9423 5.8539v-3.73h7.3897v0.93246h0.03447v5.3932h-4.101l6.5084 5.3467 6.506-5.3467h-4.1453v-6.3257h0.44308v-0.03101h5.9915v3.69l5.9423-5.8562-5.9423-5.8539v3.7299h-6.4346v-0.721h-0.033v-5.391h4.101l-6.5084-5.3467z" fill-rule="evenodd" stroke="#44a118" stroke-width="1.2599" fill="#59d421"/>
</svg>
