<?xml version="1.0" encoding="UTF-8" standalone="no"?>
<svg
   xmlns:dc="http://purl.org/dc/elements/1.1/"
   xmlns:cc="http://creativecommons.org/ns#"
   xmlns:rdf="http://www.w3.org/1999/02/22-rdf-syntax-ns#"
   xmlns:svg="http://www.w3.org/2000/svg"
   xmlns="http://www.w3.org/2000/svg"
   xmlns:xlink="http://www.w3.org/1999/xlink"
   xmlns:sodipodi="http://sodipodi.sourceforge.net/DTD/sodipodi-0.dtd"
   xmlns:inkscape="http://www.inkscape.org/namespaces/inkscape"
   height="48"
   width="48"
   version="1.1"
   id="svg151"
   inkscape:version="0.91 r13725"
   sodipodi:docname="move_rectangle.svg">
  <metadata
     id="metadata195">
    <rdf:RDF>
      <cc:Work
         rdf:about="">
        <dc:format>image/svg+xml</dc:format>
        <dc:type
           rdf:resource="http://purl.org/dc/dcmitype/StillImage" />
      </cc:Work>
    </rdf:RDF>
  </metadata>
  <sodipodi:namedview
     pagecolor="#ffffff"
     bordercolor="#666666"
     borderopacity="1"
     objecttolerance="10"
     gridtolerance="10"
     guidetolerance="10"
     inkscape:pageopacity="0"
     inkscape:pageshadow="2"
     inkscape:window-width="1855"
     inkscape:window-height="1056"
     id="namedview193"
     showgrid="false"
     inkscape:zoom="15.01888"
     inkscape:cx="24"
     inkscape:cy="24"
     inkscape:window-x="65"
     inkscape:window-y="24"
     inkscape:window-maximized="1"
     inkscape:current-layer="svg151" />
  <defs
     id="defs153">
    <filter
       id="b"
       color-interpolation-filters="sRGB">
      <feGaussianBlur
         stdDeviation="1.7161664"
         id="feGaussianBlur156" />
    </filter>
    <linearGradient
       id="a"
       y2="4.6406"
       gradientUnits="userSpaceOnUse"
       x2="6.0964"
       y1="8.6836"
       x1="8.9893">
      <stop
         stop-color="#ff7800"
         offset="0"
         id="stop159" />
      <stop
         stop-color="#fff"
         offset="1"
         id="stop161" />
    </linearGradient>
    <linearGradient
       inkscape:collect="always"
       xlink:href="#a"
       id="linearGradient7762"
       gradientUnits="userSpaceOnUse"
       x1="8.9893"
       y1="8.6836"
       x2="6.0964"
       y2="4.6406" />
    <linearGradient
       inkscape:collect="always"
       xlink:href="#a"
       id="linearGradient7764"
       gradientUnits="userSpaceOnUse"
       x1="8.9893"
       y1="8.6836"
       x2="6.0964"
       y2="4.6406" />
    <radialGradient
       id="e-7-0"
       gradientUnits="userSpaceOnUse"
       cy="20.493999"
       cx="35.292999"
       gradientTransform="matrix(0,-0.84302,1.0202,0,-4.8963249,41.059418)"
       r="16.955999">
      <stop
         stop-color="#73d216"
         offset="0"
         id="stop12-7-6-0"
         style="stop-color:#77d917;stop-opacity:1;" />
      <stop
         stop-color="#4e9a06"
         offset="1"
         id="stop14-2-0-2"
         style="stop-color:#5db608;stop-opacity:1;" />
    </radialGradient>
    <radialGradient
       inkscape:collect="always"
       xlink:href="#radialGradient5361"
       id="radialGradient4573"
       gradientUnits="userSpaceOnUse"
       gradientTransform="matrix(0,0.73721307,-0.86620124,0,11.464419,1396.0518)"
       cx="-1872.6962"
       cy="-25.046564"
       fx="-1872.6962"
       fy="-25.046564"
       r="16.955999" />
    <radialGradient
       id="radialGradient5361"
       gradientUnits="userSpaceOnUse"
       cy="20.493999"
       cx="35.292999"
       gradientTransform="matrix(0,-0.84302,1.0202,0,-4.8963249,41.059418)"
       r="16.955999">
      <stop
         stop-color="#73d216"
         offset="0"
         id="stop5363"
         style="stop-color:#09caca;stop-opacity:1" />
      <stop
         stop-color="#4e9a06"
         offset="1"
         id="stop5365"
         style="stop-color:#0ff1f4;stop-opacity:1" />
    </radialGradient>
  </defs>
  <g
     transform="matrix(0.71921,0,0,-0.70173,-60.182,76.29368)"
     id="g163"
     style="opacity:0.60938003;filter:url(#b)">
    <path
       d="m 96.125,43.619 -3.25,3.0125 0,33.138 3.25,3.0125 35.75,0 3.25,-3.0125 0,-33.138 -3.25,-3.0125 -35.75,0 z m 3.25,6.025 29.25,0 0,27.113 -29.235,0 0,-27.113 z"
       id="path165"
       inkscape:connector-curvature="0" />
    <path
       d="m 10.5,6.75 a 2.25,2.25 0 1 1 -4.5,0 2.25,2.25 0 1 1 4.5,0 z"
       transform="matrix(2.8889,0,0,2.6778,72.292,28.556)"
       id="path167"
       inkscape:connector-curvature="0" />
    <path
       d="m 10.5,6.75 a 2.25,2.25 0 1 1 -4.5,0 2.25,2.25 0 1 1 4.5,0 z"
       transform="matrix(1.8056,0,0,1.6736,81.229,35.334)"
       id="path169"
       inkscape:connector-curvature="0" />
    <path
       d="m 10.5,6.75 a 2.25,2.25 0 1 1 -4.5,0 2.25,2.25 0 1 1 4.5,0 z"
       transform="matrix(2.8889,0,0,2.6778,108.04,61.694)"
       id="path171"
       inkscape:connector-curvature="0" />
    <path
       d="m 10.5,6.75 a 2.25,2.25 0 1 1 -4.5,0 2.25,2.25 0 1 1 4.5,0 z"
       transform="matrix(1.8056,0,0,1.6736,116.98,68.472)"
       id="path173"
       inkscape:connector-curvature="0" />
  </g>
  <g
     transform="matrix(0.71921,0,0,-0.70173,76.385,29.50668)"
     id="g175">
    <path
       d="m -96.5,-17.588 -3.25,3.0125 0,33.138 3.25,3.0125 35.75,0 3.25,-3.0125 0,-33.138 -3.25,-3.0125 -35.75,0 z m 3.25,6.025 29.25,0 0,27.113 -29.25,0 0,-27.113 z"
       id="path177"
       inkscape:connector-curvature="0"
       style="fill:#00009b" />
    <path
       d="m 10.5,6.75 a 2.25,2.25 0 1 1 -4.5,0 2.25,2.25 0 1 1 4.5,0 z"
       transform="matrix(2.8889,0,0,2.6778,-120.33,-32.65)"
       id="path179"
       inkscape:connector-curvature="0" />
    <path
       d="m 10.5,6.75 a 2.25,2.25 0 1 1 -4.5,0 2.25,2.25 0 1 1 4.5,0 z"
       transform="matrix(1.8056,0,0,1.6736,-111.4,-25.872)"
       id="path181"
       style="fill:url(#linearGradient7762)"
       inkscape:connector-curvature="0" />
    <path
       d="m 10.5,6.75 a 2.25,2.25 0 1 1 -4.5,0 2.25,2.25 0 1 1 4.5,0 z"
       transform="matrix(2.8889,0,0,2.6778,-84.583,0.48749)"
       id="path183"
       inkscape:connector-curvature="0" />
    <path
       d="m 10.5,6.75 a 2.25,2.25 0 1 1 -4.5,0 2.25,2.25 0 1 1 4.5,0 z"
       transform="matrix(1.8056,0,0,1.6736,-75.646,7.2656)"
       id="path185"
       style="fill:url(#linearGradient7764)"
       inkscape:connector-curvature="0" />
  </g>
  <g
     transform="matrix(2.5347,0,0,-1.9535,2.3988,39.94568)"
     id="g187">
    <rect
       height="16"
       width="16"
       y="0"
       x="0"
       id="rect189"
       style="fill-opacity:0" />
  </g>
  <path
     inkscape:connector-curvature="0"
     style="color:#000000;clip-rule:nonzero;display:inline;overflow:visible;visibility:visible;opacity:1;isolation:auto;mix-blend-mode:normal;color-interpolation:sRGB;color-interpolation-filters:linearRGB;solid-color:#000000;solid-opacity:1;fill:url(#radialGradient4573);fill-opacity:1;fill-rule:evenodd;stroke:#000000;stroke-width:1.58730602;stroke-linecap:round;stroke-linejoin:round;stroke-miterlimit:10;stroke-dasharray:none;stroke-dashoffset:0;stroke-opacity:1;color-rendering:auto;image-rendering:auto;shape-rendering:auto;text-rendering:auto;enable-background:accumulate"
     d="m 33.025099,0.88295899 -3.154787,3.75803301 -3.153098,3.7580329 3.749584,0 0,4.0841631 -4.085847,0 0,-3.7478932 -3.756343,3.1530962 -3.758033,3.153097 3.758033,3.154784 3.756343,3.153096 0,-3.74958 4.085847,0 0,4.084155 -3.749584,0 3.153098,3.758032 3.154787,3.758033 3.153098,-3.758033 3.153097,-3.758032 -3.749584,0 0,-4.084155 4.085847,0 0,3.74958 3.758033,-3.153096 3.758033,-3.154784 -3.758033,-3.153097 -3.758033,-3.1530962 0,3.7478932 -4.085847,0 0,-4.0841631 3.749584,0 L 36.178197,4.640992 33.025099,0.88295899 Z"
     id="path5230" />
</svg>
