<svg xmlns="http://www.w3.org/2000/svg" height="48" width="48" version="1.1">
 <defs>
  <filter id="c" height="1.2585" width="1.2406" color-interpolation-filters="sRGB" y="-.12927" x="-.12029">
   <feGaussianBlur stdDeviation="1.6250782"/>
  </filter>
  <linearGradient id="d" y2="36.848" gradientUnits="userSpaceOnUse" x2="41.355" gradientTransform="matrix(1.4411,0,0,2.9984,-102.04,-72.032)" y1="32.207" x1="39.182">
   <stop stop-color="#fff" offset="0"/>
   <stop stop-color="#afadff" offset="1"/>
  </linearGradient>
 </defs>
 <g transform="matrix(2.9379 0 0 2.1996 1.856 -.48018)">
  <rect fill-opacity="0" height="16" width="16" y="0" x="0"/>
 </g>
 <g transform="matrix(.9332 0 0 .92924 57.194 -17.002)">
  <g opacity=".71484" filter="url(#c)" transform="translate(.28284 .70711)">
   <path d="m-50.268 52.835 19.455-0.000008-0.000036-29.984-6.4848 0.000008-1.0808 1.9989-4.3233-0.000008-1.0808-1.9989-6.4849 0.000008 0.000021 29.984z"/>
   <g transform="matrix(2.1616,0,0,1.9989,-99.876,-68.034)">
    <path d="m19.949 45.436v3.0312h3v-3.031h-3zm1 1.0312h1v1h-1v-1z"/>
    <path d="m19.949 49.467v3.0312h3v-3.031h-3zm1 1.0312h1v1h-1v-1z"/>
    <path d="m19.949 53.436v3.0312h3v-3.031h-3zm1 1.0312h1v1h-1v-1z"/>
    <path d="m19.949 57.467v3.0312h3v-3.031h-3zm1 1.0312h1v1h-1v-1z"/>
    <path d="m31.949 45.467v3.0312h3v-3.031h-3zm1 1.0312h1v1h-1v-1z"/>
    <path d="m31.949 49.498v3.0312h3v-3.031h-3zm1 1.0312h1v1h-1v-1z"/>
    <path d="m31.949 53.467v3.0312h3v-3.031h-3zm1 1.0312h1v1h-1v-1z"/>
    <path d="m31.949 57.498v3.0312h3v-3.031h-3zm1 1.0312h1v1h-1v-1z"/>
   </g>
  </g>
  <path d="m-52.43 50.836 19.455-0.000008-0.000037-29.984-6.4848 0.000008-1.0808 1.9989-4.3233-0.000008-1.0808-1.9989-6.4849 0.000008 0.000022 29.984z"/>
  <path fill="url(#d)" d="m-50.268 48.837h15.131v-25.986h-3.2424l-1.0808 1.9989h-6.4849l-1.0808-1.9989h-3.2424v25.986z"/>
  <path fill="#ff7800" d="m-58.915 20.789v6.0592h6.4849v-6.059h-6.4849zm2.1616 2.0614h2.1616v1.9989h-2.1616v-1.9989z"/>
  <path fill="#ff7800" d="m-58.915 28.848v6.0592h6.4849v-6.059h-6.4849zm2.1616 2.0614h2.1616v1.9989h-2.1616v-1.9989z"/>
  <path fill="#ff7800" d="m-58.915 36.781v6.0592h6.4849v-6.059h-6.4849zm2.1616 2.0614h2.1616v1.9989h-2.1616v-1.9989z"/>
  <path fill="#ff7800" d="m-58.915 44.839v6.0592h6.4849v-6.059h-6.4849zm2.1616 2.0614h2.1616v1.9989h-2.1616v-1.9989z"/>
  <path fill="#ff7800" d="m-32.975 20.852v6.0592h6.4849v-6.059h-6.4849zm2.1616 2.0614h2.1616v1.9989h-2.1616v-1.9989z"/>
  <path fill="#ff7800" d="m-32.975 28.91v6.0592h6.4849v-6.059h-6.4849zm2.1616 2.0614h2.1616v1.9989h-2.1616v-1.9989z"/>
  <path fill="#ff7800" d="m-32.975 36.843v6.0592h6.4849v-6.059h-6.4849zm2.1616 2.0614h2.1616v1.9989h-2.1616v-1.9989z"/>
  <path fill="#ff7800" d="m-32.975 44.901v6.0592h6.4849v-6.059h-6.4849zm2.1616 2.0614h2.1616v1.9989h-2.1616v-1.9989z"/>
 </g>
 <path d="m32.612 19.273-6.506 5.3467h4.1453v6.1131h-1.3957v0.031h-5.9939v-3.69l-5.9423 5.8562 5.9423 5.8539v-3.73h7.3897v0.93246h0.03447v5.3932h-4.101l6.5084 5.3467 6.506-5.3467h-4.1453v-6.3257h0.44308v-0.03101h5.9915v3.69l5.9423-5.8562-5.9423-5.8539v3.7299h-6.4346v-0.721h-0.033v-5.391h4.101l-6.5084-5.3467z" fill-rule="evenodd" stroke="#44a118" stroke-width="1.2599" fill="#59d421"/>
</svg>
