<?xml version="1.0" encoding="UTF-8" standalone="no"?>
<!-- Created with Inkscape (http://www.inkscape.org/) -->

<svg
   xmlns:dc="http://purl.org/dc/elements/1.1/"
   xmlns:cc="http://creativecommons.org/ns#"
   xmlns:rdf="http://www.w3.org/1999/02/22-rdf-syntax-ns#"
   xmlns:svg="http://www.w3.org/2000/svg"
   xmlns="http://www.w3.org/2000/svg"
   version="1.1"
   width="48"
   height="48"
   id="svg2">
  <metadata
     id="metadata66">
    <rdf:RDF>
      <cc:Work
         rdf:about="">
        <dc:format>image/svg+xml</dc:format>
        <dc:type
           rdf:resource="http://purl.org/dc/dcmitype/StillImage" />
        <dc:title></dc:title>
      </cc:Work>
    </rdf:RDF>
  </metadata>
  <defs
     id="defs4">
    <filter
       x="-0.12029"
       y="-0.12927"
       width="1.2406"
       height="1.2585"
       color-interpolation-filters="sRGB"
       id="c">
      <feGaussianBlur
         id="feGaussianBlur7"
         stdDeviation="1.6250782" />
    </filter>
    <linearGradient
       x1="39.181999"
       y1="32.207001"
       x2="41.355"
       y2="36.848"
       id="d"
       gradientUnits="userSpaceOnUse"
       gradientTransform="matrix(1.4411,0,0,2.9984,-102.04,-72.032)">
      <stop
         id="stop10"
         style="stop-color:#ffffff;stop-opacity:1"
         offset="0" />
      <stop
         id="stop12"
         style="stop-color:#afadff;stop-opacity:1"
         offset="1" />
    </linearGradient>
    <mask
       id="t">
      <rect
         width="25.032"
         height="26.091999"
         x="-4.6403999"
         y="-3.7337"
         id="rect3322"
         style="fill:#ffffff;fill-rule:evenodd" />
    </mask>
    <mask
       id="s">
      <rect
         width="25.032"
         height="26.091999"
         x="-4.6403999"
         y="-3.7337"
         id="rect3319"
         style="fill:#ffffff;fill-rule:evenodd" />
    </mask>
    <mask
       id="u">
      <rect
         width="25.032"
         height="26.091999"
         x="-4.6403999"
         y="-3.7337"
         id="rect3316"
         style="fill:#ffffff;fill-rule:evenodd" />
    </mask>
    <mask
       id="r">
      <rect
         width="25.032"
         height="26.091999"
         x="-4.6403999"
         y="-3.7337"
         id="rect3313"
         style="fill:#ffffff;fill-rule:evenodd" />
    </mask>
    <mask
       id="v">
      <rect
         width="25.032"
         height="26.091999"
         x="-4.6403999"
         y="-3.7337"
         id="rect3310"
         style="fill:#ffffff;fill-rule:evenodd" />
    </mask>
    <mask
       id="q">
      <rect
         width="25.032"
         height="26.091999"
         x="-4.6403999"
         y="-3.7337"
         id="rect3307"
         style="fill:#ffffff;fill-rule:evenodd" />
    </mask>
    <mask
       id="x">
      <rect
         width="25.032"
         height="26.091999"
         x="-4.6403999"
         y="-3.7337"
         id="rect3304"
         style="fill:#ffffff;fill-rule:evenodd" />
    </mask>
    <mask
       id="w">
      <rect
         width="25.032"
         height="26.091999"
         x="-4.6403999"
         y="-3.7337"
         id="rect3301"
         style="fill:#ffffff;fill-rule:evenodd" />
    </mask>
  </defs>
  <g
     transform="translate(3.5,3.5)"
     id="g3063">
    <path
       d="m 0,0 0,26 20.5,0 -5.5,-11.5 0.0625,0 C 13.8522,16.592433 11.591084,18 9,18 5.1340066,18 2,14.865993 2,11 2,7.1340066 5.1340066,4 9,4 c 2.591084,0 4.8522,1.4075669 6.0625,3.5 L 20,7.5 26,20 26,0 z"
       id="rect3811"
       style="fill:#008000;fill-opacity:0.62745098;stroke:#008000;stroke-width:1;stroke-linecap:butt;stroke-linejoin:round;stroke-miterlimit:4;stroke-opacity:1;stroke-dasharray:none" />
    <g
       transform="matrix(1.6382539,0,0,1.5572263,1.2572207,0.36314149)"
       id="g16">
      <rect
         width="16"
         height="16"
         x="0"
         y="0"
         id="rect18"
         style="fill-opacity:0" />
    </g>
    <path
       d="m 13,11 4.5,0 6,13"
       id="path3765"
       style="fill:none;stroke:#808080;stroke-width:3;stroke-linecap:round;stroke-linejoin:miter;stroke-miterlimit:4;stroke-opacity:1;stroke-dasharray:none" />
    <path
       d="m 12.5,10 a 3.5,3.5 0 1 1 -7,0 3.5,3.5 0 1 1 7,0 z"
       transform="translate(0,1)"
       id="path3815"
       style="fill:none;stroke:#808080;stroke-width:3;stroke-miterlimit:4;stroke-dasharray:none" />
  </g>
  <path
     d="m 33.5,21.5 -5,5 3,0 0,5 -5,0 0,-3 -5,5 5,5 0,-3 5,0 0,5 -3,0 5,5 5,-5 -3,0 0,-5 5,0 0,3 5,-5 -5,-5 0,3 -5,0 0,-5 3,0 z"
     id="path3045"
     style="fill:#59d421;fill-opacity:1;stroke:#44a118;stroke-width:1px;stroke-linecap:butt;stroke-linejoin:miter;stroke-opacity:1" />
</svg>
