<?xml version="1.0" encoding="UTF-8" standalone="no"?>
<svg
   xmlns:dc="http://purl.org/dc/elements/1.1/"
   xmlns:cc="http://creativecommons.org/ns#"
   xmlns:rdf="http://www.w3.org/1999/02/22-rdf-syntax-ns#"
   xmlns:svg="http://www.w3.org/2000/svg"
   xmlns="http://www.w3.org/2000/svg"
   xmlns:xlink="http://www.w3.org/1999/xlink"
   xmlns:sodipodi="http://sodipodi.sourceforge.net/DTD/sodipodi-0.dtd"
   xmlns:inkscape="http://www.inkscape.org/namespaces/inkscape"
   height="48"
   width="48"
   version="1.1"
   id="svg52"
   inkscape:version="0.91 r13725"
   sodipodi:docname="move_pad.svg">
  <metadata
     id="metadata75">
    <rdf:RDF>
      <cc:Work
         rdf:about="">
        <dc:format>image/svg+xml</dc:format>
        <dc:type
           rdf:resource="http://purl.org/dc/dcmitype/StillImage" />
      </cc:Work>
    </rdf:RDF>
  </metadata>
  <sodipodi:namedview
     pagecolor="#ffffff"
     bordercolor="#666666"
     borderopacity="1"
     objecttolerance="10"
     gridtolerance="10"
     guidetolerance="10"
     inkscape:pageopacity="0"
     inkscape:pageshadow="2"
     inkscape:window-width="928"
     inkscape:window-height="1028"
     id="namedview73"
     showgrid="false"
     inkscape:zoom="5.309976"
     inkscape:cx="12.158047"
     inkscape:cy="51.886127"
     inkscape:window-x="992"
     inkscape:window-y="24"
     inkscape:window-maximized="0"
     inkscape:current-layer="svg52" />
  <defs
     id="defs54">
    <filter
       id="a"
       height="1.2769"
       width="1.2769"
       color-interpolation-filters="sRGB"
       y="-.13847"
       x="-.13847">
      <feGaussianBlur
         stdDeviation="0.11539203"
         id="feGaussianBlur57" />
    </filter>
    <radialGradient
       id="e-7-0"
       gradientUnits="userSpaceOnUse"
       cy="20.493999"
       cx="35.292999"
       gradientTransform="matrix(0,-0.84302,1.0202,0,-4.8963249,41.059418)"
       r="16.955999">
      <stop
         stop-color="#73d216"
         offset="0"
         id="stop12-7-6-0"
         style="stop-color:#77d917;stop-opacity:1;" />
      <stop
         stop-color="#4e9a06"
         offset="1"
         id="stop14-2-0-2"
         style="stop-color:#5db608;stop-opacity:1;" />
    </radialGradient>
    <radialGradient
       inkscape:collect="always"
       xlink:href="#radialGradient5361"
       id="radialGradient4573"
       gradientUnits="userSpaceOnUse"
       gradientTransform="matrix(0,0.74997455,-0.88119556,0,10.457955,1420.3361)"
       cx="-1872.6962"
       cy="-25.046564"
       fx="-1872.6962"
       fy="-25.046564"
       r="16.955999" />
    <radialGradient
       id="radialGradient5361"
       gradientUnits="userSpaceOnUse"
       cy="20.493999"
       cx="35.292999"
       gradientTransform="matrix(0,-0.84302,1.0202,0,-4.8963249,41.059418)"
       r="16.955999">
      <stop
         stop-color="#73d216"
         offset="0"
         id="stop5363"
         style="stop-color:#09caca;stop-opacity:1" />
      <stop
         stop-color="#4e9a06"
         offset="1"
         id="stop5365"
         style="stop-color:#0ff1f4;stop-opacity:1" />
    </radialGradient>
  </defs>
  <g
     transform="matrix(1.1044789,0,0,1.0158278,46.442807,-1.8627112)"
     id="g61">
    <g
       transform="matrix(11.8,0,0,11.536,-260.89,-12.073)"
       id="g63"
       style="opacity:0.71875;filter:url(#a)">
      <path
         d="m -15.125,8.9375 a 0.90625,0.9375 0 1 1 -1.8125,0 0.90625,0.9375 0 1 1 1.8125,0 z"
         transform="matrix(1.1034,0,-2.1667e-7,1.0667,37.69,-5.5333)"
         id="path65"
         inkscape:connector-curvature="0"
         style="fill-rule:evenodd" />
    </g>
    <path
       d="m -15.125,8.9375 a 0.90625,0.9375 0 1 1 -1.8125,0 0.90625,0.9375 0 1 1 1.8125,0 z"
       transform="matrix(9.1879,0,-1.8041e-6,8.7704,119.31,-46.412)"
       id="path67"
       inkscape:connector-curvature="0"
       style="fill:none;stroke:#16bf11;stroke-width:0.79392999" />
    <g
       transform="matrix(4.6582,0,0,4.6768,-121.15,13.266)"
       id="g69"
       style="fill:#ffffff">
      <path
         d="m -15.125,8.9375 a 0.90625,0.9375 0 1 1 -1.8125,0 0.90625,0.9375 0 1 1 1.8125,0 z"
         transform="matrix(1.1034,0,-2.1667e-7,1.0667,37.69,-5.5333)"
         id="path71"
         inkscape:connector-curvature="0"
         style="fill:#ffffff;fill-rule:evenodd" />
    </g>
  </g>
  <path
     inkscape:connector-curvature="0"
     style="color:#000000;clip-rule:nonzero;display:inline;overflow:visible;visibility:visible;opacity:1;isolation:auto;mix-blend-mode:normal;color-interpolation:sRGB;color-interpolation-filters:linearRGB;solid-color:#000000;solid-opacity:1;fill:url(#radialGradient4573);fill-opacity:1;fill-rule:evenodd;stroke:#000000;stroke-width:1.61478293;stroke-linecap:round;stroke-linejoin:round;stroke-miterlimit:10;stroke-dasharray:none;stroke-dashoffset:0;stroke-opacity:1;color-rendering:auto;image-rendering:auto;shape-rendering:auto;text-rendering:auto;enable-background:accumulate"
     d="m 32.39186,1.0162003 -3.209398,3.823086 -3.20768,3.8230859 3.814492,0 0,4.1548618 -4.156576,0 0,-3.8127712 -3.821366,3.2076792 -3.823086,3.207677 3.823086,3.209394 3.821366,3.207678 0,-3.814487 4.156576,0 0,4.154853 -3.814492,0 3.20768,3.823086 3.209398,3.823086 3.207679,-3.823086 3.207679,-3.823086 -3.81449,0 0,-4.154853 4.156574,0 0,3.814487 3.823086,-3.207678 3.823086,-3.209394 -3.823086,-3.207677 -3.823086,-3.2076792 0,3.8127712 -4.156574,0 0,-4.1548618 3.81449,0 -3.207679,-3.8230859 -3.207679,-3.823086 z"
     id="path5230" />
</svg>
