<svg id="Слой_1" data-name="Слой 1"
  xmlns:cc="http://creativecommons.org/ns#"
  xmlns:rdf="http://www.w3.org/1999/02/22-rdf-syntax-ns#"
  xmlns="http://www.w3.org/2000/svg" viewBox="0 0 26 26">
  <metadata id="metadata43">
    <rdf:RDF>
      <cc:Work rdf:about="">
        <cc:license rdf:resource="http://creativecommons.org/licenses/by/4.0/" />
      </cc:Work>
      <cc:License rdf:about="http://creativecommons.org/licenses/by/4.0/">
        <cc:permits rdf:resource="http://creativecommons.org/ns#Reproduction" />
        <cc:permits rdf:resource="http://creativecommons.org/ns#Distribution" />
        <cc:requires rdf:resource="http://creativecommons.org/ns#Notice" />
        <cc:requires rdf:resource="http://creativecommons.org/ns#Attribution" />
        <cc:permits rdf:resource="http://creativecommons.org/ns#DerivativeWorks" />
      </cc:License>
    </rdf:RDF>
  </metadata>
  <defs>
    <style>.cls-1{fill:#545454;}</style>
  </defs>
  <title>move</title>
  <polygon class="cls-1" points="10 10.663 5.797 10.663 5.797 8.208 1.005 13 5.797 17.792 5.797 15.337 10 15.337 10 10.663"/>
  <polygon class="cls-1" points="10.663 10 15.337 10 15.337 5.797 17.792 5.797 13 1.005 8.208 5.797 10.663 5.797 10.663 10"/>
  <polygon class="cls-1" points="15.337 16 10.663 16 10.663 20.203 8.208 20.203 13 24.995 17.792 20.203 15.337 20.203 15.337 16"/>
  <polygon class="cls-1" points="24.995 13 20.203 8.208 20.203 10.663 16 10.663 16 15.337 20.203 15.337 20.203 17.792 24.995 13"/>
</svg>