<svg xmlns="http://www.w3.org/2000/svg" height="48" width="48" version="1.1">
 <defs>
  <filter id="b" height="1.2217" width="1.2406" color-interpolation-filters="sRGB" y="-.11086" x="-.12029">
   <feGaussianBlur stdDeviation="1.5551616"/>
  </filter>
  <linearGradient id="a" y2="4.6406" gradientUnits="userSpaceOnUse" x2="6.0964" y1="8.6836" x1="8.9893">
   <stop stop-color="#ff7800" offset="0"/>
   <stop stop-color="#fff" offset="1"/>
  </linearGradient>
 </defs>
 <g transform="translate(40.424,-20.264)">
  <g opacity=".59375" filter="url(#b)" transform="translate(3.0173,2.9042)">
   <path fill-rule="evenodd" d="m-35.689 25.302h17.73l8.8649 9.9497v15.92l-21.833 3.677-1.4142-3.5556 18.815-4.1012v-9.9497l-6.6487-7.9598h-15.514z"/>
   <path d="m10.5 6.75a2.25 2.25 0 1 1 -4.5 0 2.25 2.25 0 1 1 4.5 0z" transform="matrix(1.97,0,0,1.7688,-49.725,15.352)"/>
   <path d="m10.5 6.75a2.25 2.25 0 1 1 -4.5 0 2.25 2.25 0 1 1 4.5 0z" transform="matrix(1.2312,0,0,1.1055,-43.631,19.83)"/>
   <path d="m10.5 6.75a2.25 2.25 0 1 1 -4.5 0 2.25 2.25 0 1 1 4.5 0z" transform="matrix(1.97,0,0,1.7688,-48.075,41.06)"/>
   <path d="m10.5 6.75a2.25 2.25 0 1 1 -4.5 0 2.25 2.25 0 1 1 4.5 0z" transform="matrix(1.2312,0,0,1.1055,-41.98,45.538)"/>
   <path d="m10.5 6.75a2.25 2.25 0 1 1 -4.5 0 2.25 2.25 0 1 1 4.5 0z" transform="matrix(1.97,0,0,1.7688,-35.874,15.352)"/>
   <path d="m10.5 6.75a2.25 2.25 0 1 1 -4.5 0 2.25 2.25 0 1 1 4.5 0z" transform="matrix(1.2312,0,0,1.1055,-29.779,19.83)"/>
   <path d="m10.5 6.75a2.25 2.25 0 1 1 -4.5 0 2.25 2.25 0 1 1 4.5 0z" transform="matrix(1.97,0,0,1.7688,-27.563,24.307)"/>
   <path d="m10.5 6.75a2.25 2.25 0 1 1 -4.5 0 2.25 2.25 0 1 1 4.5 0z" transform="matrix(1.2312,0,0,1.1055,-21.469,28.785)"/>
   <path d="m10.5 6.75a2.25 2.25 0 1 1 -4.5 0 2.25 2.25 0 1 1 4.5 0z" transform="matrix(1.97,0,0,1.7688,-27.563,37.242)"/>
   <path d="m10.5 6.75a2.25 2.25 0 1 1 -4.5 0 2.25 2.25 0 1 1 4.5 0z" transform="matrix(1.2312,0,0,1.1055,-21.469,41.719)"/>
  </g>
  <path fill-rule="evenodd" fill="#00009b" d="m-35.689 25.302h17.73l8.8649 9.9497v15.92l-21.833 3.677-1.4142-3.5556 18.815-4.1012v-9.9497l-6.6487-7.9598h-15.514z"/>
  <path d="m10.5 6.75a2.25 2.25 0 1 1 -4.5 0 2.25 2.25 0 1 1 4.5 0z" transform="matrix(1.97,0,0,1.7688,-49.725,15.352)"/>
  <path fill="url(#a)" d="m10.5 6.75a2.25 2.25 0 1 1 -4.5 0 2.25 2.25 0 1 1 4.5 0z" transform="matrix(1.2312,0,0,1.1055,-43.631,19.83)"/>
  <path d="m10.5 6.75a2.25 2.25 0 1 1 -4.5 0 2.25 2.25 0 1 1 4.5 0z" transform="matrix(1.97,0,0,1.7688,-48.075,41.06)"/>
  <path fill="url(#a)" d="m10.5 6.75a2.25 2.25 0 1 1 -4.5 0 2.25 2.25 0 1 1 4.5 0z" transform="matrix(1.2312,0,0,1.1055,-41.98,45.538)"/>
  <path d="m10.5 6.75a2.25 2.25 0 1 1 -4.5 0 2.25 2.25 0 1 1 4.5 0z" transform="matrix(1.97,0,0,1.7688,-35.874,15.352)"/>
  <path fill="url(#a)" d="m10.5 6.75a2.25 2.25 0 1 1 -4.5 0 2.25 2.25 0 1 1 4.5 0z" transform="matrix(1.2312,0,0,1.1055,-29.779,19.83)"/>
  <path d="m10.5 6.75a2.25 2.25 0 1 1 -4.5 0 2.25 2.25 0 1 1 4.5 0z" transform="matrix(1.97,0,0,1.7688,-27.563,24.307)"/>
  <path fill="url(#a)" d="m10.5 6.75a2.25 2.25 0 1 1 -4.5 0 2.25 2.25 0 1 1 4.5 0z" transform="matrix(1.2312,0,0,1.1055,-21.469,28.785)"/>
  <path d="m10.5 6.75a2.25 2.25 0 1 1 -4.5 0 2.25 2.25 0 1 1 4.5 0z" transform="matrix(1.97,0,0,1.7688,-27.563,37.242)"/>
  <path fill="url(#a)" d="m10.5 6.75a2.25 2.25 0 1 1 -4.5 0 2.25 2.25 0 1 1 4.5 0z" transform="matrix(1.2312,0,0,1.1055,-21.469,41.719)"/>
 </g>
 <g transform="matrix(2.5347,0,0,-1.9535,2.3988,30.158)">
  <rect fill-opacity="0" height="16" width="16" y="0" x="0"/>
 </g>
 <path d="m32.612 19.273-6.506 5.3467h4.1453v6.1131h-1.3957v0.031h-5.9939v-3.69l-5.9423 5.8562 5.9423 5.8539v-3.73h7.3897v0.93246h0.03447v5.3932h-4.101l6.5084 5.3467 6.506-5.3467h-4.1453v-6.3257h0.44308v-0.03101h5.9915v3.69l5.9423-5.8562-5.9423-5.8539v3.7299h-6.4346v-0.721h-0.033v-5.391h4.101l-6.5084-5.3467z" fill-rule="evenodd" stroke="#44a118" stroke-width="1.2599" fill="#59d421"/>
 <g transform="matrix(2.9379,0,0,2.1996,-54.142,1.9592)">
  <rect fill-opacity="0" height="16" width="16" y="0" x="0"/>
 </g>
</svg>
