<?xml version="1.0" encoding="UTF-8" standalone="no"?>
<svg
   xmlns:dc="http://purl.org/dc/elements/1.1/"
   xmlns:cc="http://creativecommons.org/ns#"
   xmlns:rdf="http://www.w3.org/1999/02/22-rdf-syntax-ns#"
   xmlns:svg="http://www.w3.org/2000/svg"
   xmlns="http://www.w3.org/2000/svg"
   xmlns:xlink="http://www.w3.org/1999/xlink"
   xmlns:sodipodi="http://sodipodi.sourceforge.net/DTD/sodipodi-0.dtd"
   xmlns:inkscape="http://www.inkscape.org/namespaces/inkscape"
   height="48"
   width="48"
   version="1.1"
   id="svg77"
   inkscape:version="0.91 r13725"
   sodipodi:docname="move_polygon.svg">
  <metadata
     id="metadata149">
    <rdf:RDF>
      <cc:Work
         rdf:about="">
        <dc:format>image/svg+xml</dc:format>
        <dc:type
           rdf:resource="http://purl.org/dc/dcmitype/StillImage" />
      </cc:Work>
    </rdf:RDF>
  </metadata>
  <sodipodi:namedview
     pagecolor="#ffffff"
     bordercolor="#666666"
     borderopacity="1"
     objecttolerance="10"
     gridtolerance="10"
     guidetolerance="10"
     inkscape:pageopacity="0"
     inkscape:pageshadow="2"
     inkscape:window-width="928"
     inkscape:window-height="1028"
     id="namedview147"
     showgrid="false"
     inkscape:zoom="7.50944"
     inkscape:cx="29.863448"
     inkscape:cy="15.783244"
     inkscape:window-x="992"
     inkscape:window-y="24"
     inkscape:window-maximized="0"
     inkscape:current-layer="svg77" />
  <defs
     id="defs79">
    <filter
       id="b"
       height="1.2217"
       width="1.2406"
       color-interpolation-filters="sRGB"
       y="-.11086"
       x="-.12029">
      <feGaussianBlur
         stdDeviation="1.5551616"
         id="feGaussianBlur82" />
    </filter>
    <linearGradient
       id="a"
       y2="4.6406"
       gradientUnits="userSpaceOnUse"
       x2="6.0964"
       y1="8.6836"
       x1="8.9893">
      <stop
         stop-color="#ff7800"
         offset="0"
         id="stop85" />
      <stop
         stop-color="#fff"
         offset="1"
         id="stop87" />
    </linearGradient>
    <linearGradient
       inkscape:collect="always"
       xlink:href="#a"
       id="linearGradient7738"
       gradientUnits="userSpaceOnUse"
       x1="8.9893"
       y1="8.6836"
       x2="6.0964"
       y2="4.6406" />
    <linearGradient
       inkscape:collect="always"
       xlink:href="#a"
       id="linearGradient7740"
       gradientUnits="userSpaceOnUse"
       x1="8.9893"
       y1="8.6836"
       x2="6.0964"
       y2="4.6406" />
    <linearGradient
       inkscape:collect="always"
       xlink:href="#a"
       id="linearGradient7742"
       gradientUnits="userSpaceOnUse"
       x1="8.9893"
       y1="8.6836"
       x2="6.0964"
       y2="4.6406" />
    <linearGradient
       inkscape:collect="always"
       xlink:href="#a"
       id="linearGradient7744"
       gradientUnits="userSpaceOnUse"
       x1="8.9893"
       y1="8.6836"
       x2="6.0964"
       y2="4.6406" />
    <linearGradient
       inkscape:collect="always"
       xlink:href="#a"
       id="linearGradient7746"
       gradientUnits="userSpaceOnUse"
       x1="8.9893"
       y1="8.6836"
       x2="6.0964"
       y2="4.6406" />
    <radialGradient
       id="e-7-0"
       gradientUnits="userSpaceOnUse"
       cy="20.493999"
       cx="35.292999"
       gradientTransform="matrix(0,-0.84302,1.0202,0,-4.8963249,41.059418)"
       r="16.955999">
      <stop
         stop-color="#73d216"
         offset="0"
         id="stop12-7-6-0"
         style="stop-color:#77d917;stop-opacity:1;" />
      <stop
         stop-color="#4e9a06"
         offset="1"
         id="stop14-2-0-2"
         style="stop-color:#5db608;stop-opacity:1;" />
    </radialGradient>
    <radialGradient
       inkscape:collect="always"
       xlink:href="#radialGradient5361"
       id="radialGradient4573"
       gradientUnits="userSpaceOnUse"
       gradientTransform="matrix(0,0.73885451,-0.86812988,0,11.316539,1399.2265)"
       cx="-1872.6962"
       cy="-25.046564"
       fx="-1872.6962"
       fy="-25.046564"
       r="16.955999" />
    <radialGradient
       id="radialGradient5361"
       gradientUnits="userSpaceOnUse"
       cy="20.493999"
       cx="35.292999"
       gradientTransform="matrix(0,-0.84302,1.0202,0,-4.8963249,41.059418)"
       r="16.955999">
      <stop
         stop-color="#73d216"
         offset="0"
         id="stop5363"
         style="stop-color:#09caca;stop-opacity:1" />
      <stop
         stop-color="#4e9a06"
         offset="1"
         id="stop5365"
         style="stop-color:#0ff1f4;stop-opacity:1" />
    </radialGradient>
  </defs>
  <g
     transform="translate(39.225509,-9.8104908)"
     id="g89">
    <g
       transform="translate(3.0173,2.9042)"
       id="g91"
       style="opacity:0.59375;filter:url(#b)">
      <path
         d="m -35.689,25.302 17.73,0 8.8649,9.9497 0,15.92 -21.833,3.677 -1.4142,-3.5556 18.815,-4.1012 0,-9.9497 -6.6487,-7.9598 -15.514,0 z"
         id="path93"
         inkscape:connector-curvature="0"
         style="fill-rule:evenodd" />
      <path
         d="m 10.5,6.75 a 2.25,2.25 0 1 1 -4.5,0 2.25,2.25 0 1 1 4.5,0 z"
         transform="matrix(1.97,0,0,1.7688,-49.725,15.352)"
         id="path95"
         inkscape:connector-curvature="0" />
      <path
         d="m 10.5,6.75 a 2.25,2.25 0 1 1 -4.5,0 2.25,2.25 0 1 1 4.5,0 z"
         transform="matrix(1.2312,0,0,1.1055,-43.631,19.83)"
         id="path97"
         inkscape:connector-curvature="0" />
      <path
         d="m 10.5,6.75 a 2.25,2.25 0 1 1 -4.5,0 2.25,2.25 0 1 1 4.5,0 z"
         transform="matrix(1.97,0,0,1.7688,-48.075,41.06)"
         id="path99"
         inkscape:connector-curvature="0" />
      <path
         d="m 10.5,6.75 a 2.25,2.25 0 1 1 -4.5,0 2.25,2.25 0 1 1 4.5,0 z"
         transform="matrix(1.2312,0,0,1.1055,-41.98,45.538)"
         id="path101"
         inkscape:connector-curvature="0" />
      <path
         d="m 10.5,6.75 a 2.25,2.25 0 1 1 -4.5,0 2.25,2.25 0 1 1 4.5,0 z"
         transform="matrix(1.97,0,0,1.7688,-35.874,15.352)"
         id="path103"
         inkscape:connector-curvature="0" />
      <path
         d="m 10.5,6.75 a 2.25,2.25 0 1 1 -4.5,0 2.25,2.25 0 1 1 4.5,0 z"
         transform="matrix(1.2312,0,0,1.1055,-29.779,19.83)"
         id="path105"
         inkscape:connector-curvature="0" />
      <path
         d="m 10.5,6.75 a 2.25,2.25 0 1 1 -4.5,0 2.25,2.25 0 1 1 4.5,0 z"
         transform="matrix(1.97,0,0,1.7688,-27.563,24.307)"
         id="path107"
         inkscape:connector-curvature="0" />
      <path
         d="m 10.5,6.75 a 2.25,2.25 0 1 1 -4.5,0 2.25,2.25 0 1 1 4.5,0 z"
         transform="matrix(1.2312,0,0,1.1055,-21.469,28.785)"
         id="path109"
         inkscape:connector-curvature="0" />
      <path
         d="m 10.5,6.75 a 2.25,2.25 0 1 1 -4.5,0 2.25,2.25 0 1 1 4.5,0 z"
         transform="matrix(1.97,0,0,1.7688,-27.563,37.242)"
         id="path111"
         inkscape:connector-curvature="0" />
      <path
         d="m 10.5,6.75 a 2.25,2.25 0 1 1 -4.5,0 2.25,2.25 0 1 1 4.5,0 z"
         transform="matrix(1.2312,0,0,1.1055,-21.469,41.719)"
         id="path113"
         inkscape:connector-curvature="0" />
    </g>
    <path
       d="m -35.689,25.302 17.73,0 8.8649,9.9497 0,15.92 -21.833,3.677 -1.4142,-3.5556 18.815,-4.1012 0,-9.9497 -6.6487,-7.9598 -15.514,0 z"
       id="path115"
       inkscape:connector-curvature="0"
       style="fill:#00009b;fill-rule:evenodd" />
    <path
       d="m 10.5,6.75 a 2.25,2.25 0 1 1 -4.5,0 2.25,2.25 0 1 1 4.5,0 z"
       transform="matrix(1.97,0,0,1.7688,-49.725,15.352)"
       id="path117"
       inkscape:connector-curvature="0" />
    <path
       d="m 10.5,6.75 a 2.25,2.25 0 1 1 -4.5,0 2.25,2.25 0 1 1 4.5,0 z"
       transform="matrix(1.2312,0,0,1.1055,-43.631,19.83)"
       id="path119"
       style="fill:url(#linearGradient7738)"
       inkscape:connector-curvature="0" />
    <path
       d="m 10.5,6.75 a 2.25,2.25 0 1 1 -4.5,0 2.25,2.25 0 1 1 4.5,0 z"
       transform="matrix(1.97,0,0,1.7688,-48.075,41.06)"
       id="path121"
       inkscape:connector-curvature="0" />
    <path
       d="m 10.5,6.75 a 2.25,2.25 0 1 1 -4.5,0 2.25,2.25 0 1 1 4.5,0 z"
       transform="matrix(1.2312,0,0,1.1055,-41.98,45.538)"
       id="path123"
       style="fill:url(#linearGradient7740)"
       inkscape:connector-curvature="0" />
    <path
       d="m 10.5,6.75 a 2.25,2.25 0 1 1 -4.5,0 2.25,2.25 0 1 1 4.5,0 z"
       transform="matrix(1.97,0,0,1.7688,-35.874,15.352)"
       id="path125"
       inkscape:connector-curvature="0" />
    <path
       d="m 10.5,6.75 a 2.25,2.25 0 1 1 -4.5,0 2.25,2.25 0 1 1 4.5,0 z"
       transform="matrix(1.2312,0,0,1.1055,-29.779,19.83)"
       id="path127"
       style="fill:url(#linearGradient7742)"
       inkscape:connector-curvature="0" />
    <path
       d="m 10.5,6.75 a 2.25,2.25 0 1 1 -4.5,0 2.25,2.25 0 1 1 4.5,0 z"
       transform="matrix(1.97,0,0,1.7688,-27.563,24.307)"
       id="path129"
       inkscape:connector-curvature="0" />
    <path
       d="m 10.5,6.75 a 2.25,2.25 0 1 1 -4.5,0 2.25,2.25 0 1 1 4.5,0 z"
       transform="matrix(1.2312,0,0,1.1055,-21.469,28.785)"
       id="path131"
       style="fill:url(#linearGradient7744)"
       inkscape:connector-curvature="0" />
    <path
       d="m 10.5,6.75 a 2.25,2.25 0 1 1 -4.5,0 2.25,2.25 0 1 1 4.5,0 z"
       transform="matrix(1.97,0,0,1.7688,-27.563,37.242)"
       id="path133"
       inkscape:connector-curvature="0" />
    <path
       d="m 10.5,6.75 a 2.25,2.25 0 1 1 -4.5,0 2.25,2.25 0 1 1 4.5,0 z"
       transform="matrix(1.2312,0,0,1.1055,-21.469,41.719)"
       id="path135"
       style="fill:url(#linearGradient7746)"
       inkscape:connector-curvature="0" />
  </g>
  <g
     transform="matrix(2.5347,0,0,-1.9535,1.2003085,40.611509)"
     id="g137">
    <rect
       height="16"
       width="16"
       y="0"
       x="0"
       id="rect139"
       style="fill-opacity:0" />
  </g>
  <g
     transform="matrix(2.9379,0,0,2.1996,-55.340491,12.412709)"
     id="g143">
    <rect
       height="16"
       width="16"
       y="0"
       x="0"
       id="rect145"
       style="fill-opacity:0" />
  </g>
  <path
     inkscape:connector-curvature="0"
     style="color:#000000;clip-rule:nonzero;display:inline;overflow:visible;visibility:visible;opacity:1;isolation:auto;mix-blend-mode:normal;color-interpolation:sRGB;color-interpolation-filters:linearRGB;solid-color:#000000;solid-opacity:1;fill:url(#radialGradient4573);fill-opacity:1;fill-rule:evenodd;stroke:#000000;stroke-width:1.59084022;stroke-linecap:round;stroke-linejoin:round;stroke-miterlimit:10;stroke-dasharray:none;stroke-dashoffset:0;stroke-opacity:1;color-rendering:auto;image-rendering:auto;shape-rendering:auto;text-rendering:auto;enable-background:accumulate"
     d="m 32.925225,0.9513089 -3.161812,3.7664002 -3.160119,3.7664003 3.757933,0 0,4.0932566 -4.094944,0 0,-3.7562377 -3.764706,3.1601167 -3.766401,3.160118 3.766401,3.161808 3.764706,3.160117 0,-3.757929 4.094944,0 0,4.093248 -3.757933,0 3.160119,3.7664 3.161812,3.7664 3.160118,-3.7664 3.160118,-3.7664 -3.757933,0 0,-4.093248 4.094944,0 0,3.757929 3.766401,-3.160117 3.7664,-3.161808 -3.7664,-3.160118 -3.766401,-3.1601167 0,3.7562377 -4.094944,0 0,-4.0932566 3.757933,0 -3.160118,-3.7664003 -3.160118,-3.7664002 z"
     id="path5230" />
</svg>
