<svg id="Слой_1" data-name="Слой 1"
  xmlns:dc="http://purl.org/dc/elements/1.1/"
  xmlns:cc="http://creativecommons.org/ns#"
  xmlns:rdf="http://www.w3.org/1999/02/22-rdf-syntax-ns#"
  xmlns="http://www.w3.org/2000/svg" viewBox="0 0 26 26">
  <metadata id="metadata43">
    <rdf:RDF>
      <cc:Work rdf:about="">
        <cc:license rdf:resource="http://creativecommons.org/licenses/by-sa/4.0/" />
        <dc:format>image/svg+xml</dc:format>
        <dc:type rdf:resource="http://purl.org/dc/dcmitype/StillImage" />
        <dc:title>add_arc</dc:title>
      </cc:Work>
      <cc:License rdf:about="http://creativecommons.org/licenses/by-sa/4.0/">
        <cc:permits rdf:resource="http://creativecommons.org/ns#Reproduction" />
        <cc:permits rdf:resource="http://creativecommons.org/ns#Distribution" />
        <cc:requires rdf:resource="http://creativecommons.org/ns#Notice" />
        <cc:requires rdf:resource="http://creativecommons.org/ns#Attribution" />
        <cc:permits rdf:resource="http://creativecommons.org/ns#DerivativeWorks" />
        <cc:requires rdf:resource="http://creativecommons.org/ns#ShareAlike" />
      </cc:License>
    </rdf:RDF>
  </metadata>
  <defs>
    <style>.cls-1{fill:#1a81c4;}.cls-2{fill:#545454;}.cls-3{fill:none;stroke:#545454;stroke-linecap:round;stroke-linejoin:round;}</style>
  </defs>
  <title>mw_add_stub</title>
  <rect class="cls-1" x="4.9989" y="1" width="8" height="24"/>
  <path class="cls-2" d="M13.5647,1.1689a.5612.5612,0,0,0,.3968.9582l6.4743.0009a.5613.5613,0,1,0,0-1.1225l-6.4743-.001A.56.56,0,0,0,13.5647,1.1689Z"/>
  <path class="cls-2" d="M13.489,24.03a.5612.5612,0,0,0,.3968.9582l6.5541.001a.5613.5613,0,0,0,0-1.1226l-6.554-.001A.56.56,0,0,0,13.489,24.03Z"/>
  <line class="cls-3" x1="18.622" y1="19.4293" x2="18.6219" y2="6.5393"/>
  <polygon class="cls-2" points="20.075 18.439 18.622 23.859 17.169 18.439 20.075 18.439"/>
  <polygon class="cls-2" points="20.075 7.53 18.622 2.11 17.169 7.53 20.075 7.53"/>
</svg>