<svg id="Слой_1" data-name="Слой 1"
  xmlns:dc="http://purl.org/dc/elements/1.1/"
  xmlns:cc="http://creativecommons.org/ns#"
  xmlns:rdf="http://www.w3.org/1999/02/22-rdf-syntax-ns#"
  xmlns="http://www.w3.org/2000/svg" viewBox="0 0 26 26">
  <metadata id="metadata43">
    <rdf:RDF>
      <cc:Work rdf:about="">
        <cc:license rdf:resource="http://creativecommons.org/licenses/by-sa/4.0/" />
        <dc:format>image/svg+xml</dc:format>
        <dc:type rdf:resource="http://purl.org/dc/dcmitype/StillImage" />
        <dc:title>add_arc</dc:title>
      </cc:Work>
      <cc:License rdf:about="http://creativecommons.org/licenses/by-sa/4.0/">
        <cc:permits rdf:resource="http://creativecommons.org/ns#Reproduction" />
        <cc:permits rdf:resource="http://creativecommons.org/ns#Distribution" />
        <cc:requires rdf:resource="http://creativecommons.org/ns#Notice" />
        <cc:requires rdf:resource="http://creativecommons.org/ns#Attribution" />
        <cc:permits rdf:resource="http://creativecommons.org/ns#DerivativeWorks" />
        <cc:requires rdf:resource="http://creativecommons.org/ns#ShareAlike" />
      </cc:License>
    </rdf:RDF>
  </metadata>
  <defs>
    <style>.cls-1{fill:#545454;}.cls-2{fill:none;stroke:#545454;stroke-linecap:round;stroke-linejoin:round;}.cls-3{fill:#1a81c4;}</style>
  </defs>
  <title>mw_add_gap</title>
  <path class="cls-1" d="M4.7781,15.6052a.5612.5612,0,0,0,.397-.9581l-3.2088-3.21a.5613.5613,0,1,0-.7938.7938l3.2088,3.21A.56.56,0,0,0,4.7781,15.6052Z"/>
  <path class="cls-1" d="M15.1074,5.3831a.5612.5612,0,0,0,.3969-.9581L12.2391,1.1584a.5613.5613,0,0,0-.7938.7938l3.2652,3.2666A.56.56,0,0,0,15.1074,5.3831Z"/>
  <line class="cls-2" x1="8.8791" y1="5.6751" x2="5.661" y2="8.8932"/>
  <polygon class="cls-1" points="7.151 5.349 12.011 2.543 9.206 7.403 7.151 5.349"/>
  <polygon class="cls-1" points="5.334 7.165 2.529 12.025 7.389 9.22 5.334 7.165"/>
  <polygon class="cls-3" points="24.992 7.417 20.983 11.478 15.27 5.822 19.279 1.76 24.992 7.417"/>
  <polygon class="cls-3" points="11.464 20.945 7.456 25.006 1.743 19.349 5.752 15.287 11.464 20.945"/>
</svg>