<svg xmlns="http://www.w3.org/2000/svg" height="48" width="48" version="1.1">
 <defs>
  <filter id="h" height="1.364" width="1.3668" color-interpolation-filters="sRGB" y="-.18202" x="-.18340">
   <feGaussianBlur stdDeviation="0.57003634"/>
  </filter>
  <filter id="i" height="1.3641" width="1.3668" color-interpolation-filters="sRGB" y="-.18203" x="-.18340">
   <feGaussianBlur stdDeviation="0.57003634"/>
  </filter>
  <filter id="j" height="1.364" width="1.3668" color-interpolation-filters="sRGB" y="-.18202" x="-.18340">
   <feGaussianBlur stdDeviation="0.57003634"/>
  </filter>
  <filter id="k" height="2.0297" width="1.1153" color-interpolation-filters="sRGB" y="-.51485" x="-.057637">
   <feGaussianBlur stdDeviation="0.57002831"/>
  </filter>
  <filter id="l" height="1.364" width="1.3668" color-interpolation-filters="sRGB" y="-.18202" x="-.18340">
   <feGaussianBlur stdDeviation="0.57003634"/>
  </filter>
  <filter id="m" height="1.2059" width="1.2594" color-interpolation-filters="sRGB" y="-.10297" x="-.12968">
   <feGaussianBlur stdDeviation="0.57002831"/>
  </filter>
  <filter id="n" height="1.2059" width="1.2594" color-interpolation-filters="sRGB" y="-.10297" x="-.12968">
   <feGaussianBlur stdDeviation="0.57002831"/>
  </filter>
 </defs>
 <g transform="translate(0,32)">
  <rect opacity=".35547" height="2.6572" filter="url(#k)" width="23.736" y="2.6572" x="12.901"/>
  <rect opacity=".35547" transform="matrix(.70445 -.70976 .70445 .70976 0 0)" height="2.6473" filter="url(#i)" width="7.9419" y="11.256" x="7.058"/>
  <rect opacity=".35547" transform="matrix(.70445 .70976 .70445 -.70976 0 0)" height="2.6473" filter="url(#j)" width="7.9419" y="5.6403" x="12.674"/>
  <rect opacity=".35547" transform="matrix(-.70445 -.70976 -.70445 .70976 0 0)" height="2.6473" filter="url(#h)" width="7.9419" y="-23.905" x="-28.103"/>
  <rect opacity=".35547" transform="matrix(-.70445 .70976 -.70445 -.70976 0 0)" height="2.6473" filter="url(#l)" width="7.9419" y="-29.521" x="-22.488"/>
  <rect opacity=".35547" height="13.286" filter="url(#n)" width="10.549" y="-23.915" x="4.9893"/>
  <rect opacity=".35547" height="13.286" filter="url(#m)" width="10.549" y="-23.915" x="34"/>
  <rect y="-3.1086e-15" width="23.736" x="10.264" height="2.6572"/>
  <rect transform="matrix(.70445 -.70976 .70445 .70976 0 0)" height="2.6473" width="7.9419" y="7.5123" x="7.058"/>
  <rect transform="matrix(.70445 .70976 .70445 -.70976 0 0)" height="2.6473" width="7.9419" y="5.6403" x="8.93"/>
  <rect transform="matrix(-.70445 -.70976 -.70445 .70976 0 0)" height="2.6473" width="7.9419" y="-23.905" x="-24.359"/>
  <rect transform="matrix(-.70445 .70976 -.70445 -.70976 0 0)" height="2.6473" width="7.9419" y="-25.777" x="-22.488"/>
  <rect height="13.286" width="10.549" y="-26.572" x="2.352" fill="#d72e2e"/>
  <rect height="13.286" width="10.549" y="-26.572" x="31.363" fill="#d72e2e"/>
  <rect height="7.9716" width="2.6373" y="-23.915" x="20.813" fill="#3737ff"/>
  <rect transform="rotate(-90)" height="7.912" width="2.6572" y="18.176" x="18.6" fill="#3737ff"/>
 </g>
 <g transform="translate(0,32)">
  <rect fill-opacity="0" height="16" width="16" y="0" x="0"/>
 </g>
</svg>
