<?xml version="1.0" encoding="UTF-8" standalone="no"?>
<svg
   xmlns:dc="http://purl.org/dc/elements/1.1/"
   xmlns:cc="http://creativecommons.org/ns#"
   xmlns:rdf="http://www.w3.org/1999/02/22-rdf-syntax-ns#"
   xmlns:svg="http://www.w3.org/2000/svg"
   xmlns="http://www.w3.org/2000/svg"
   xmlns:sodipodi="http://sodipodi.sourceforge.net/DTD/sodipodi-0.dtd"
   xmlns:inkscape="http://www.inkscape.org/namespaces/inkscape"
   height="26"
   width="26"
   version="1.1"
   viewBox="0 0 26 26"
   id="svg2"
   inkscape:version="0.48.3.1 r9886"
   sodipodi:docname="mw_add_shape.svg">
  <metadata
     id="metadata100">
    <rdf:RDF>
      <cc:Work
         rdf:about="">
        <dc:format>image/svg+xml</dc:format>
        <dc:type
           rdf:resource="http://purl.org/dc/dcmitype/StillImage" />
        <dc:title />
      </cc:Work>
    </rdf:RDF>
  </metadata>
  <sodipodi:namedview
     pagecolor="#ffffff"
     bordercolor="#666666"
     borderopacity="1"
     objecttolerance="10"
     gridtolerance="10"
     guidetolerance="10"
     inkscape:pageopacity="0"
     inkscape:pageshadow="2"
     inkscape:window-width="1301"
     inkscape:window-height="744"
     id="namedview98"
     showgrid="true"
     inkscape:zoom="22.961538"
     inkscape:cx="13.576918"
     inkscape:cy="13.827654"
     inkscape:window-x="65"
     inkscape:window-y="24"
     inkscape:window-maximized="1"
     inkscape:current-layer="svg2"
     showguides="true"
     inkscape:guide-bbox="true">
    <inkscape:grid
       type="xygrid"
       id="grid3020"
       empspacing="2"
       visible="true"
       enabled="true"
       snapvisiblegridlinesonly="true"
       spacingx="0.5px"
       spacingy="0.5px" />
  </sodipodi:namedview>
  <defs
     id="defs4" />
  <path
     style="fill:#c92727;fill-opacity:1;stroke:none"
     d="M 1,9.5 C 1,9.5 2.8750654,9.6234924 4,9 5.1249346,8.3765076 5,6.5 6.5,6.5 8,6.5 8.5,8 10,8 11.5,8 11.5,4 13,4 14.5,4 15,6.5 16.5,6.5 18,6.5 18,2 19.5,2 21,2 20.80743,4.4037152 22,5 23.19257,5.5962848 25,4 25,4 l 0,9 -24,0 z"
     id="rect5278"
     inkscape:connector-curvature="0"
     sodipodi:nodetypes="czzzzzzzcccc" />
  <path
     sodipodi:nodetypes="czzzzzzzcccc"
     inkscape:connector-curvature="0"
     id="path3134"
     d="m 1,16.5 c 0,0 1.8750654,-0.123492 3,0.5 1.1249346,0.623492 1,2.5 2.5,2.5 1.5,0 2,-1.5 3.5,-1.5 1.5,0 1.5,4 3,4 1.5,0 2,-2.5 3.5,-2.5 1.5,0 1.5,4.5 3,4.5 1.5,0 1.30743,-2.403715 2.5,-3 1.19257,-0.596285 3,1 3,1 l 0,-9 -24,0 z"
     style="fill:#c92727;fill-opacity:1;stroke:none" />
</svg>
