<svg id="Слой_1" data-name="Слой 1"
  xmlns:dc="http://purl.org/dc/elements/1.1/"
  xmlns:cc="http://creativecommons.org/ns#"
  xmlns:rdf="http://www.w3.org/1999/02/22-rdf-syntax-ns#"
  xmlns="http://www.w3.org/2000/svg" viewBox="0 0 26 26">
  <metadata id="metadata43">
    <rdf:RDF>
      <cc:Work rdf:about="">
        <cc:license rdf:resource="http://creativecommons.org/licenses/by-sa/4.0/" />
        <dc:format>image/svg+xml</dc:format>
        <dc:type rdf:resource="http://purl.org/dc/dcmitype/StillImage" />
        <dc:title>add_arc</dc:title>
      </cc:Work>
      <cc:License rdf:about="http://creativecommons.org/licenses/by-sa/4.0/">
        <cc:permits rdf:resource="http://creativecommons.org/ns#Reproduction" />
        <cc:permits rdf:resource="http://creativecommons.org/ns#Distribution" />
        <cc:requires rdf:resource="http://creativecommons.org/ns#Notice" />
        <cc:requires rdf:resource="http://creativecommons.org/ns#Attribution" />
        <cc:permits rdf:resource="http://creativecommons.org/ns#DerivativeWorks" />
        <cc:requires rdf:resource="http://creativecommons.org/ns#ShareAlike" />
      </cc:License>
    </rdf:RDF>
  </metadata>
  <defs>
    <style>.cls-1{fill:none;stroke:#545454;stroke-linecap:round;stroke-linejoin:round;}.cls-2{fill:#1a81c4;}</style>
  </defs>
  <title>mw_add_line</title>
  <path class="cls-1" d="M1.5,12.3537H4.0852a2,2,0,0,1,2,2v4.81a1.8083,1.8083,0,0,0,1.8083,1.8083h0a1.8083,1.8083,0,0,0,1.8082-1.8083V6.8366A1.8082,1.8082,0,0,1,11.51,5.0283h0a1.8083,1.8083,0,0,1,1.8082,1.8083V19.14a1.8082,1.8082,0,0,0,1.8082,1.8082h0A1.8082,1.8082,0,0,0,16.9346,19.14V6.8128a1.7846,1.7846,0,0,1,1.8082-1.7845h0A1.8083,1.8083,0,0,1,20.551,6.8366v3.6966a2,2,0,0,0,2,2H24.5"/>
  <polygon class="cls-2" points="4.477 14.241 1.686 14.259 1.667 10.327 4.458 10.309 4.477 14.241"/>
  <polygon class="cls-2" points="7.661 11.366 7.643 8.575 11.575 8.556 11.593 11.347 7.661 11.366"/>
  <polygon class="cls-2" points="11.251 18.194 11.233 15.403 15.165 15.384 15.183 18.175 11.251 18.194"/>
  <polygon class="cls-2" points="14.946 12.985 14.928 10.194 18.86 10.175 18.879 12.966 14.946 12.985"/>
  <polygon class="cls-2" points="21.693 10.468 24.484 10.449 24.503 14.382 21.712 14.4 21.693 10.468"/>
</svg>