<?xml version="1.0" encoding="UTF-8" standalone="no"?>
<svg
   xmlns:dc="http://purl.org/dc/elements/1.1/"
   xmlns:cc="http://creativecommons.org/ns#"
   xmlns:rdf="http://www.w3.org/1999/02/22-rdf-syntax-ns#"
   xmlns:svg="http://www.w3.org/2000/svg"
   xmlns="http://www.w3.org/2000/svg"
   xmlns:sodipodi="http://sodipodi.sourceforge.net/DTD/sodipodi-0.dtd"
   xmlns:inkscape="http://www.inkscape.org/namespaces/inkscape"
   id="Слой_1"
   data-name="Слой 1"
   viewBox="0 0 24 24"
   version="1.1"
   sodipodi:docname="mw_add_line.svg"
   inkscape:version="1.0.1 (3bc2e813f5, 2020-09-07)">
  <sodipodi:namedview
     pagecolor="#ffffff"
     bordercolor="#666666"
     borderopacity="1"
     objecttolerance="10"
     gridtolerance="10"
     guidetolerance="10"
     inkscape:pageopacity="0"
     inkscape:pageshadow="2"
     inkscape:window-width="1584"
     inkscape:window-height="1199"
     id="namedview22"
     showgrid="false"
     inkscape:zoom="27.961538"
     inkscape:cx="3.3259971"
     inkscape:cy="13"
     inkscape:window-x="0"
     inkscape:window-y="37"
     inkscape:window-maximized="0"
     inkscape:current-layer="Слой_1"
     inkscape:document-rotation="0" />
  <metadata
     id="metadata43">
    <rdf:RDF>
      <cc:Work
         rdf:about="">
        <cc:license
           rdf:resource="http://creativecommons.org/licenses/by-sa/4.0/" />
        <dc:format>image/svg+xml</dc:format>
        <dc:type
           rdf:resource="http://purl.org/dc/dcmitype/StillImage" />
        <dc:title>add_arc</dc:title>
      </cc:Work>
      <cc:License
         rdf:about="http://creativecommons.org/licenses/by-sa/4.0/">
        <cc:permits
           rdf:resource="http://creativecommons.org/ns#Reproduction" />
        <cc:permits
           rdf:resource="http://creativecommons.org/ns#Distribution" />
        <cc:requires
           rdf:resource="http://creativecommons.org/ns#Notice" />
        <cc:requires
           rdf:resource="http://creativecommons.org/ns#Attribution" />
        <cc:permits
           rdf:resource="http://creativecommons.org/ns#DerivativeWorks" />
        <cc:requires
           rdf:resource="http://creativecommons.org/ns#ShareAlike" />
      </cc:License>
    </rdf:RDF>
  </metadata>
  <defs
     id="defs5">
    <style
       id="style3">.cls-1{fill:none;stroke:#545454;stroke-linecap:round;stroke-linejoin:round;}.cls-2{fill:#1a81c4;}</style>
  </defs>
  <title
     id="title7">mw_add_line</title>
  <path
     class="cls-1"
     d="m 0.5,11.3537 h 2.5852 a 2,2 0 0 1 2,2 v 4.81 a 1.8083,1.8083 0 0 0 1.8083,1.8083 v 0 A 1.8083,1.8083 0 0 0 8.7017,18.1637 V 5.8366 A 1.8082,1.8082 0 0 1 10.51,4.0283 v 0 a 1.8083,1.8083 0 0 1 1.8082,1.8083 V 18.14 a 1.8082,1.8082 0 0 0 1.8082,1.8082 v 0 A 1.8082,1.8082 0 0 0 15.9346,18.14 V 5.8128 a 1.7846,1.7846 0 0 1 1.8082,-1.7845 v 0 a 1.8083,1.8083 0 0 1 1.8082,1.8083 v 3.6966 a 2,2 0 0 0 2,2 H 23.5"
     id="path9" />
  <polygon
     class="cls-2"
     points="1.686,14.259 1.667,10.327 4.458,10.309 4.477,14.241 "
     id="polygon11"
     transform="translate(-1,-1)" />
  <polygon
     class="cls-2"
     points="24.484,10.449 24.503,14.382 21.712,14.4 21.693,10.468 "
     id="polygon19"
     transform="translate(-1,-1)" />
</svg>
