<svg xmlns="http://www.w3.org/2000/svg" height="48" width="48" version="1.1">
 <defs>
  <filter id="a" color-interpolation-filters="sRGB">
   <feGaussianBlur stdDeviation="1.4028781"/>
  </filter>
 </defs>
 <g transform="translate(0,32)">
  <g opacity=".42578" filter="url(#a)" transform="matrix(.85717 0 0 .89003 32.649 -38.07)">
   <path d="m-30.762 31.086c2.3422-0.52649 4.6845-10.285 7.0267-10.812 2.3422-0.52649 4.6845 8.1794 7.0267 7.6529 2.3422-0.52649 4.6845-10.285 7.0267-10.812 2.3422-0.52649 4.6845 8.1794 7.0267 7.6529 2.3422-0.52649 4.6845-10.285 7.0267-10.812 2.3422-0.52649 4.0989 8.311 7.0267 7.6529v9.2324c-2.9288 0.658-4.6855 10.285-7.0277 10.812-2.3423 0.526-4.6845-8.179-7.0267-7.653-2.3422 0.52649-4.6845 10.285-7.0267 10.812-2.3422 0.52649-4.8309-8.1465-7.0267-7.6529-2.1958 0.49359-4.6845 10.285-7.0267 10.812-2.3422 0.52649-4.6845-8.1794-7.0267-7.6529v-9.2324z"/>
   <path d="m-30.738 40.338c2.3422 0.52649 4.6845 10.285 7.0267 10.812 2.3422 0.52649 4.6845-8.1794 7.0267-7.6529 2.3422 0.52649 4.6845 10.285 7.0267 10.812 2.3422 0.52649 4.6845-8.1794 7.0267-7.6529 2.3422 0.52649 4.6845 10.285 7.0267 10.812 2.3422 0.52649 4.0989-8.311 7.0267-7.6529v-9.2324c-2.9284-0.659-4.6851-10.286-7.0273-10.813-2.3422-0.52649-4.6845 8.1794-7.0267 7.6529-2.3422-0.52649-4.6845-10.285-7.0267-10.812-2.3422-0.52649-4.8309 8.1465-7.0267 7.6529-2.1958-0.49359-4.6845-10.285-7.0267-10.812-2.3422-0.52649-4.6845 8.1794-7.0267 7.6529v9.2324z"/>
   <path d="m-30.844 31.118c2.3422 0 4.6845-9.2324 7.0267-9.2324s4.6845 9.2324 7.0267 9.2324 4.6845-9.2324 7.0267-9.2324 4.6845 9.2324 7.0267 9.2324 4.6845-9.2324 7.0267-9.2324 4.0989 9.2324 7.0267 9.2324v9.2324c-2.9278 0-4.6845 9.2324-7.0267 9.2324s-4.6845-9.2324-7.0267-9.2324-4.6845 9.2324-7.0267 9.2324-4.8309-9.2324-7.0267-9.2324-4.6845 9.2324-7.0267 9.2324-4.6845-9.2324-7.0267-9.2324v-9.232z"/>
  </g>
  <g fill="#d72e2e" transform="matrix(.85717 0 0 .89003 31.022 -41.696)">
   <path d="m-30.762 31.086c2.3422-0.52649 4.6845-10.285 7.0267-10.812 2.3422-0.52649 4.6845 8.1794 7.0267 7.6529 2.3422-0.52649 4.6845-10.285 7.0267-10.812 2.3422-0.52649 4.6845 8.1794 7.0267 7.6529 2.3422-0.52649 4.6845-10.285 7.0267-10.812 2.3422-0.52649 4.0989 8.311 7.0267 7.6529v9.2324c-2.9288 0.658-4.6855 10.285-7.0277 10.812-2.3423 0.526-4.6845-8.179-7.0267-7.653-2.3422 0.52649-4.6845 10.285-7.0267 10.812-2.3422 0.52649-4.8309-8.1465-7.0267-7.6529-2.1958 0.49359-4.6845 10.285-7.0267 10.812-2.3422 0.52649-4.6845-8.1794-7.0267-7.6529v-9.2324z"/>
   <path d="m-30.738 40.338c2.3422 0.52649 4.6845 10.285 7.0267 10.812 2.3422 0.52649 4.6845-8.1794 7.0267-7.6529 2.3422 0.52649 4.6845 10.285 7.0267 10.812 2.3422 0.52649 4.6845-8.1794 7.0267-7.6529 2.3422 0.52649 4.6845 10.285 7.0267 10.812 2.3422 0.52649 4.0989-8.311 7.0267-7.6529v-9.2324c-2.9284-0.659-4.6851-10.286-7.0273-10.813-2.3422-0.52649-4.6845 8.1794-7.0267 7.6529-2.3422-0.52649-4.6845-10.285-7.0267-10.812-2.3422-0.52649-4.8309 8.1465-7.0267 7.6529-2.1958-0.49359-4.6845-10.285-7.0267-10.812-2.3422-0.52649-4.6845 8.1794-7.0267 7.6529v9.2324z"/>
   <path d="m-30.844 31.118c2.3422 0 4.6845-9.2324 7.0267-9.2324s4.6845 9.2324 7.0267 9.2324 4.6845-9.2324 7.0267-9.2324 4.6845 9.2324 7.0267 9.2324 4.6845-9.2324 7.0267-9.2324 4.0989 9.2324 7.0267 9.2324v9.2324c-2.9278 0-4.6845 9.2324-7.0267 9.2324s-4.6845-9.2324-7.0267-9.2324-4.6845 9.2324-7.0267 9.2324-4.8309-9.2324-7.0267-9.2324-4.6845 9.2324-7.0267 9.2324-4.6845-9.2324-7.0267-9.2324v-9.232z"/>
  </g>
 </g>
 <g transform="translate(0,32)">
  <rect fill-opacity="0" height="16" width="16" y="0" x="0"/>
 </g>
</svg>
