<svg id="Слой_1" data-name="Слой 1"
  xmlns:dc="http://purl.org/dc/elements/1.1/"
  xmlns:cc="http://creativecommons.org/ns#"
  xmlns:rdf="http://www.w3.org/1999/02/22-rdf-syntax-ns#"
  xmlns="http://www.w3.org/2000/svg" viewBox="0 0 26 26">
  <metadata id="metadata43">
    <rdf:RDF>
      <cc:Work rdf:about="">
        <cc:license rdf:resource="http://creativecommons.org/licenses/by-sa/4.0/" />
        <dc:format>image/svg+xml</dc:format>
        <dc:type rdf:resource="http://purl.org/dc/dcmitype/StillImage" />
        <dc:title>add_arc</dc:title>
      </cc:Work>
      <cc:License rdf:about="http://creativecommons.org/licenses/by-sa/4.0/">
        <cc:permits rdf:resource="http://creativecommons.org/ns#Reproduction" />
        <cc:permits rdf:resource="http://creativecommons.org/ns#Distribution" />
        <cc:requires rdf:resource="http://creativecommons.org/ns#Notice" />
        <cc:requires rdf:resource="http://creativecommons.org/ns#Attribution" />
        <cc:permits rdf:resource="http://creativecommons.org/ns#DerivativeWorks" />
        <cc:requires rdf:resource="http://creativecommons.org/ns#ShareAlike" />
      </cc:License>
    </rdf:RDF>
  </metadata>
  <defs>
    <style>.cls-1{fill:#b9b9b9;}.cls-2{fill:#545454;}.cls-3{fill:none;stroke:#545454;stroke-linecap:round;stroke-linejoin:round;}.cls-4{fill:#1a81c4;}</style>
  </defs>
  <title>mw_add_stub_arc</title>
  <rect class="cls-1" x="7.0072" y="21.9999" width="8.9864" height="3"/>
  <path class="cls-2" d="M20.5744,6.1573a.5612.5612,0,0,0,.3968.9582l3.4743.0009a.5613.5613,0,1,0,0-1.1225l-3.4743-.001A.56.56,0,0,0,20.5744,6.1573Z"/>
  <path class="cls-2" d="M16.4986,21.03a.5612.5612,0,0,0,.3968.9582l7.5541.001a.5613.5613,0,1,0,0-1.1226l-7.5541-.001A.56.56,0,0,0,16.4986,21.03Z"/>
  <line class="cls-3" x1="23.5026" y1="16.4843" x2="23.5026" y2="11.6059"/>
  <polygon class="cls-2" points="24.955 15.494 23.503 20.914 22.05 15.494 24.955 15.494"/>
  <polygon class="cls-2" points="24.955 12.597 23.503 7.176 22.05 12.597 24.955 12.597"/>
  <path class="cls-4" d="M3.0946,7.4673l8.3611,14.5575,8.3717-14.551A16.7084,16.7084,0,0,0,3.0946,7.4673Z"/>
  <path class="cls-2" d="M21.9328,4.4646,17.5143,1.0051l-.3939.9254a21.5019,21.5019,0,0,0-11.317-.0046L5.41,1,.9892,4.4565,6.5461,3.674l-.3488-.8208a20.5213,20.5213,0,0,1,10.5285.0043l-.3493.8207Z"/>
</svg>