<?xml version="1.0" encoding="UTF-8" standalone="no"?>
<svg
   xmlns:dc="http://purl.org/dc/elements/1.1/"
   xmlns:cc="http://creativecommons.org/ns#"
   xmlns:rdf="http://www.w3.org/1999/02/22-rdf-syntax-ns#"
   xmlns:svg="http://www.w3.org/2000/svg"
   xmlns="http://www.w3.org/2000/svg"
   xmlns:sodipodi="http://sodipodi.sourceforge.net/DTD/sodipodi-0.dtd"
   xmlns:inkscape="http://www.inkscape.org/namespaces/inkscape"
   height="26"
   width="26"
   version="1.1"
   viewBox="0 0 26 26"
   id="svg2"
   inkscape:version="0.91 r"
   sodipodi:docname="mw_toolbar.svg">
  <metadata
     id="metadata100">
    <rdf:RDF>
      <cc:Work
         rdf:about="">
        <dc:format>image/svg+xml</dc:format>
        <dc:type
           rdf:resource="http://purl.org/dc/dcmitype/StillImage" />
        <dc:title></dc:title>
      </cc:Work>
    </rdf:RDF>
  </metadata>
  <sodipodi:namedview
     pagecolor="#ffffff"
     bordercolor="#666666"
     borderopacity="1"
     objecttolerance="10"
     gridtolerance="10"
     guidetolerance="10"
     inkscape:pageopacity="0"
     inkscape:pageshadow="2"
     inkscape:window-width="1920"
     inkscape:window-height="1053"
     id="namedview98"
     showgrid="true"
     inkscape:zoom="22.961538"
     inkscape:cx="6.3246205"
     inkscape:cy="10.256464"
     inkscape:window-x="0"
     inkscape:window-y="0"
     inkscape:window-maximized="1"
     inkscape:current-layer="svg2"
     showguides="true"
     inkscape:guide-bbox="true">
    <inkscape:grid
       type="xygrid"
       id="grid3020"
       empspacing="2"
       visible="true"
       enabled="true"
       snapvisiblegridlinesonly="true"
       spacingx="0.5px"
       spacingy="0.5px" />
  </sodipodi:namedview>
  <defs
     id="defs4" />
  <path
     style="fill:none;stroke:#c92727;stroke-width:2;stroke-linecap:butt;stroke-linejoin:miter;stroke-miterlimit:4;stroke-opacity:1;stroke-dasharray:none"
     d="M 0,9 C 0,9 0,9 3,9 5.5,9 5,12.5 5,15.5 5,17 6,18 7,18 8,18 9,17 9,15.5 9,13.323674 9,11.902478 9,9 9,6.5 9,6.003952 9,3.5 9,2 10.125,1 11,1 c 1,0 2,1 2,2.5 0,2.1572982 0,3.5 0,5.5 0,2.857624 0,4.414048 0,6.5 0,1.5 1,2.5 2,2.5 1,0 2,-1 2,-2.5 C 17,13.530692 17.0625,11.625 17,9 16.9375,6.375 17,5.4792009 17,3.5 17,2 18,1 19,1 c 1,0 2,1 2,2.5 0,3 -0.5,5.5 2,5.5 2.236068,0 3,0 3,0"
     id="path4206"
     inkscape:connector-curvature="0"
     sodipodi:nodetypes="ccczssssssssssssssc" />
  <path
     style="fill:#333333;stroke:#333333;stroke-width:1px;stroke-linecap:round;stroke-linejoin:miter;stroke-opacity:1;opacity:1"
     d="m 1.5,23.5 23,0"
     id="path5185"
     inkscape:connector-curvature="0" />
  <path
     sodipodi:nodetypes="ccc"
     style="fill:#333333;stroke:#333333;stroke-width:1px;stroke-linecap:round;stroke-linejoin:round;stroke-opacity:1"
     d="m 19.5,25 5,-1.5 -5,-1.5"
     id="path5191"
     inkscape:connector-curvature="0" />
  <path
     sodipodi:nodetypes="ccc"
     style="fill:#333333;stroke:#333333;stroke-width:1px;stroke-linecap:round;stroke-linejoin:round;stroke-opacity:1"
     d="m 6.5,22 -5,1.5 5,1.5"
     id="path5195"
     inkscape:connector-curvature="0" />
  <path
     sodipodi:nodetypes="cc"
     style="fill:#333333;stroke:#333333;stroke-width:1px;stroke-linecap:round;stroke-linejoin:miter;stroke-opacity:1;opacity:1"
     d="m 0.5,13.5 0,12"
     id="path5197"
     inkscape:connector-curvature="0" />
  <path
     inkscape:connector-curvature="0"
     id="path5199"
     d="m 25.5,13.5 0,12"
     style="fill:#333333;stroke:#333333;stroke-width:1px;stroke-linecap:round;stroke-linejoin:miter;stroke-opacity:1;opacity:1"
     sodipodi:nodetypes="cc" />
</svg>
