<?xml version="1.0" encoding="UTF-8" standalone="no"?>
<svg
   xmlns:dc="http://purl.org/dc/elements/1.1/"
   xmlns:cc="http://creativecommons.org/ns#"
   xmlns:rdf="http://www.w3.org/1999/02/22-rdf-syntax-ns#"
   xmlns:svg="http://www.w3.org/2000/svg"
   xmlns="http://www.w3.org/2000/svg"
   xmlns:xlink="http://www.w3.org/1999/xlink"
   xmlns:sodipodi="http://sodipodi.sourceforge.net/DTD/sodipodi-0.dtd"
   xmlns:inkscape="http://www.inkscape.org/namespaces/inkscape"
   height="26"
   width="26"
   version="1.0"
   id="svg2"
   inkscape:version="0.48.3.1 r9886"
   sodipodi:docname="net_locked.svg">
  <metadata
     id="metadata74">
    <rdf:RDF>
      <cc:Work
         rdf:about="">
        <dc:format>image/svg+xml</dc:format>
        <dc:type
           rdf:resource="http://purl.org/dc/dcmitype/StillImage" />
      </cc:Work>
    </rdf:RDF>
  </metadata>
  <sodipodi:namedview
     pagecolor="#ffffff"
     bordercolor="#666666"
     borderopacity="1"
     objecttolerance="10"
     gridtolerance="10"
     guidetolerance="10"
     inkscape:pageopacity="0"
     inkscape:pageshadow="2"
     inkscape:window-width="1600"
     inkscape:window-height="849"
     id="namedview72"
     showgrid="true"
     inkscape:snap-grids="false"
     inkscape:snap-to-guides="false"
     inkscape:zoom="19.666667"
     inkscape:cx="12.637259"
     inkscape:cy="14.078608"
     inkscape:window-x="0"
     inkscape:window-y="29"
     inkscape:window-maximized="1"
     inkscape:current-layer="svg2">
    <inkscape:grid
       type="xygrid"
       id="grid3019"
       empspacing="1"
       visible="true"
       enabled="true"
       snapvisiblegridlinesonly="true" />
  </sodipodi:namedview>
  <defs
     id="defs4">
    <filter
       id="k"
       color-interpolation-filters="sRGB">
      <feGaussianBlur
         stdDeviation="0.37718285"
         id="feGaussianBlur7" />
    </filter>
    <radialGradient
       id="s"
       gradientUnits="userSpaceOnUse"
       cy="4.2800999"
       cx="123.57"
       gradientTransform="matrix(1.2373,1.1904,-0.87346,0.90788,-246.63,-189.76)"
       r="18.304001">
      <stop
         stop-color="#fff"
         offset="0"
         id="stop10" />
      <stop
         stop-color="#b3b0a7"
         offset="1"
         id="stop12" />
    </radialGradient>
    <linearGradient
       id="p"
       y2="18.836"
       xlink:href="#a"
       gradientUnits="userSpaceOnUse"
       x2="142.17999"
       gradientTransform="matrix(0.76019,0,0,0.76019,-191.41,-37.143)"
       y1="16.563"
       x1="116.42" />
    <linearGradient
       id="a">
      <stop
         stop-color="#fff"
         offset="0"
         id="stop16" />
      <stop
         stop-color="#fff"
         stop-opacity="0"
         offset="1"
         id="stop18" />
    </linearGradient>
    <linearGradient
       id="o"
       y2="11.685"
       gradientUnits="userSpaceOnUse"
       x2="98.292"
       gradientTransform="matrix(0.76019,0,0,0.76019,-189.24,-36.6)"
       y1="70.179001"
       x1="156.78999">
      <stop
         stop-color="#fb9c02"
         offset="0"
         id="stop21" />
      <stop
         stop-color="#fff"
         offset="1"
         id="stop23" />
    </linearGradient>
    <linearGradient
       id="q"
       y2="62.02"
       gradientUnits="userSpaceOnUse"
       x2="-28.537001"
       gradientTransform="translate(-116.91,-44.22)"
       y1="24.645"
       x1="54.296001">
      <stop
         stop-color="#965d01"
         stop-opacity="0"
         offset="0"
         id="stop26" />
      <stop
         stop-color="#ab6200"
         offset="1"
         id="stop28" />
    </linearGradient>
    <linearGradient
       id="n"
       y2="41.539001"
       xlink:href="#a"
       gradientUnits="userSpaceOnUse"
       x2="127.36"
       gradientTransform="matrix(0.69024,0,0,0.6591,-179.72,-32.689)"
       y1="13.741"
       x1="115.62" />
    <linearGradient
       id="m"
       y2="33.214001"
       gradientUnits="userSpaceOnUse"
       x2="135.71001"
       gradientTransform="matrix(0.76019,0,0,0.76019,-191.41,-37.143)"
       y1="110"
       x1="203.57001">
      <stop
         stop-color="#4f3a1e"
         offset="0"
         id="stop32" />
      <stop
         stop-color="#4f3a1e"
         stop-opacity="0"
         offset="1"
         id="stop34" />
    </linearGradient>
    <linearGradient
       id="l"
       y2="11.708"
       xlink:href="#a"
       gradientUnits="userSpaceOnUse"
       x2="129.27"
       gradientTransform="matrix(0.52628,0,0,0.78596,-155.15,-37.182)"
       y1="22.589001"
       x1="153.36" />
    <linearGradient
       id="r"
       y2="13.849"
       gradientUnits="userSpaceOnUse"
       x2="28.979"
       gradientTransform="translate(-116.91,-44.22)"
       y1="28.622"
       x1="16.226">
      <stop
         stop-color="#8b8b8b"
         offset="0"
         id="stop38" />
      <stop
         stop-color="#8b8b8b"
         stop-opacity="0"
         offset="1"
         id="stop40" />
    </linearGradient>
  </defs>
  <rect
     height="29.750463"
     width="28.549801"
     y="-4"
     x="-3.5497999"
     id="rect46"
     style="opacity:0" />
  <g
     id="g3021"
     transform="matrix(0.8008999,0,0,0.84005662,0.56977324,1.6509141)">
    <text
       sodipodi:linespacing="125%"
       id="text42"
       x="1.7963849"
       y="21.86256"
       font-size="47.734px"
       line-height="125%"
       transform="matrix(0.53528818,0,0,0.60466596,-1.6033075,-2.3982023)"
       xml:space="preserve"
       style="font-size:47.73400116px;line-height:125%;letter-spacing:0px;word-spacing:0px;opacity:0.21483998;fill:#000000;filter:url(#k);font-family:Sans"><tspan
         id="tspan44"
         x="1.7963849"
         y="21.86256"
         dx="3.9453084e-08"
         font-size="26.254px"
         font-weight="bold"
         style="font-size:26.25399971px;font-weight:bold;letter-spacing:-0.90693998px;word-spacing:0px;fill:#000000;font-family:Garuda">.net</tspan></text>
    <text
       sodipodi:linespacing="125%"
       id="text48"
       x="-0.95650047"
       y="8.5337667"
       font-size="47.734px"
       line-height="125%"
       transform="scale(0.94088398,1.0628303)"
       xml:space="preserve"
       style="font-size:27.15685272px;line-height:125%;letter-spacing:0px;word-spacing:0px;fill:#505050;font-family:Sans"><tspan
         id="tspan50"
         x="-0.95650047"
         y="8.5337667"
         dx="2.2445668e-08"
         font-size="26.254px"
         font-weight="bold"
         style="font-size:14.93643856px;font-weight:bold;letter-spacing:-0.51597679px;word-spacing:0px;fill:#505050;font-family:Garuda">.net</tspan></text>
  </g>
  <g
     transform="matrix(0.36552253,0,0,0.32606748,47.153692,23.265788)"
     id="g52">
    <path
       style="opacity:0.2;color:#000000;fill-rule:evenodd;stroke:#000000;stroke-width:0.95023;stroke-linejoin:round"
       d="m -83.791,-36.711 c -7.6664,0 -13.826,6.1841 -13.826,13.85 v 6.1528 c -2.5599,0.56208 -4.5136,2.7303 -4.5136,5.4638 v 15.465 c 0,3.1586 2.5428,5.7014 5.7014,5.7014 h 25.252 c 3.1586,0 5.7014,-2.5428 5.7014,-5.7014 v -15.465 c 0,-2.7217 -1.923,-4.8895 -4.4661,-5.4638 v -6.1528 c 0,-7.6664 -6.1832,-13.85 -13.85,-13.85 z m 0,5.3451 c 4.7414,1e-6 8.5758,3.8345 8.5758,8.5759 v 5.8439 h -17.128 v -5.844 c 0,-4.7427 3.8107,-8.5759 8.5521,-8.5759 z"
       id="path54"
       inkscape:connector-curvature="0" />
    <path
       style="color:#000000;fill:url(#s);fill-rule:evenodd;stroke:#656565;stroke-width:0.95023;stroke-linejoin:round"
       d="m -85.791,-38.721 c -7.6664,0 -13.826,6.1841 -13.826,13.85 v 13.042 c 0,7.6656 6.1603,13.826 13.826,13.826 7.6656,0 13.85,-6.1594 13.85,-13.826 v -13.042 c 0,-7.6664 -6.1832,-13.85 -13.85,-13.85 z m 0,5.3451 c 4.7414,0 8.5758,3.8345 8.5758,8.5759 v 10.785 c 0,4.7414 -3.8332,8.5521 -8.5758,8.5521 -4.7427,0 -8.5521,-3.8094 -8.5521,-8.5521 V -24.8 c 0,-4.7427 3.8107,-8.5759 8.5521,-8.5759 z"
       id="path56"
       inkscape:connector-curvature="0" />
    <path
       style="color:#000000;fill:url(#p);fill-rule:evenodd;stroke:#8b8b8b;stroke-width:0.95023;stroke-linejoin:round"
       d="m -85.791,-38.721 c -7.6664,0 -13.826,6.1841 -13.826,13.85 v 13.042 c 0,7.6656 6.1603,13.826 13.826,13.826 7.6656,0 13.85,-6.1594 13.85,-13.826 v -13.042 c 0,-7.6664 -6.1832,-13.85 -13.85,-13.85 z m 0,5.3451 c 4.7414,0 8.5758,3.8345 8.5758,8.5759 v 10.785 c 0,4.7414 -3.8332,8.5521 -8.5758,8.5521 -4.7427,0 -8.5521,-3.8094 -8.5521,-8.5521 V -24.8 c 0,-4.7427 3.8107,-8.5759 8.5521,-8.5759 z"
       id="path58"
       inkscape:connector-curvature="0" />
    <rect
       style="color:#000000;fill:url(#o);stroke:#4f3a1e;stroke-width:0.95023;stroke-linejoin:round"
       ry="5.7013998"
       height="26.886999"
       width="36.654999"
       y="-18.958"
       x="-104.13"
       id="rect60" />
    <path
       style="color:#000000;fill:url(#q)"
       d="m -99.063,3.0925 h 26.865 c 0.74448,0 1.3438,0.59935 1.3438,1.3438 0,0.74448 -0.59935,1.3438 -1.3438,1.3438 h -26.865 c -0.74448,0 -1.3438,-0.59935 -1.3438,-1.3438 0,-0.74448 0.59935,-1.3438 1.3438,-1.3438 z m 0,-4.9914 h 26.865 c 0.74448,0 1.3438,0.59935 1.3438,1.3438 0,0.74448 -0.59935,1.3438 -1.3438,1.3438 h -26.865 c -0.74448,0 -1.3438,-0.59935 -1.3438,-1.3438 0,-0.74449 0.59935,-1.3438 1.3438,-1.3438 z m 0,-4.9914 h 26.865 c 0.74448,0 1.3438,0.59935 1.3438,1.3438 0,0.74448 -0.59935,1.3438 -1.3438,1.3438 h -26.865 c -0.74448,0 -1.3438,-0.59935 -1.3438,-1.3438 0,-0.74448 0.59935,-1.3438 1.3438,-1.3438 z m 0,-4.9914 h 26.865 c 0.74448,0 1.3438,0.59935 1.3438,1.3438 0,0.74448 -0.59935,1.3438 -1.3438,1.3438 h -26.865 c -0.74448,0 -1.3438,-0.59935 -1.3438,-1.3438 0,-0.74448 0.59935,-1.3438 1.3438,-1.3438 z m 0,-4.9914 h 26.865 c 0.74448,0 1.3438,0.59935 1.3438,1.3438 0,0.74448 -0.59935,1.3438 -1.3438,1.3438 h -26.865 c -0.74448,0 -1.3438,-0.59935 -1.3438,-1.3438 0,-0.74448 0.59935,-1.3438 1.3438,-1.3438 z"
       id="path62"
       inkscape:connector-curvature="0" />
    <path
       style="color:#000000;fill:url(#n)"
       d="m -97.262,-17.392 h 22.929 c 2.868,0 5.1768,2.2047 5.1768,4.9433 0,0 -5.7103,7.1939 -12.819,3.7743 -12.605,-6.0638 -20.464,12.39 -20.464,9.6512 v -13.426 c 0,-2.7386 2.3089,-4.9433 5.1768,-4.9433 z"
       id="path64"
       inkscape:connector-curvature="0" />
    <path
       style="color:#000000;fill:url(#m)"
       d="m -74.249,5.8802 c 3.3215,0.0278 4.278,-2.3129 4.4042,-5.7465 0.21582,-5.8745 -0.30658,-18.005 -0.30658,-18.005 3.031,0 2.4847,1.8971 2.4847,4.9281 l 0.54299,15.402 c 0,3.031 -2.1686,5.1996 -5.1996,5.1996 l -26.133,0.2715 c -1.402,-0.54299 -3.8421,-1.0826 -3.8421,-2.4847 0,0 10.421,0.28793 28.049,0.43542 z"
       id="path66"
       inkscape:connector-curvature="0" />
    <path
       style="color:#000000;fill:url(#l);fill-rule:evenodd"
       d="m -82.811,-36.533 c 7.0589,1.9005 8.367,8.8045 8.367,10.317 v 6.7874 h -1.5796 v -6.7874 c 0,-3.6241 -2.9864,-8.5068 -6.7874,-10.317 z"
       id="path68"
       inkscape:connector-curvature="0" />
    <path
       style="color:#000000;fill:url(#r);fill-rule:evenodd"
       d="m -87.071,-33.755 c -8.0176,1.5918 -9.5034,4.7269 -9.5034,9.6514 v 4.6749 h 1.7941 v -5.685 c 0,-3.0355 3.3921,-7.1252 7.7093,-8.6412 z"
       id="path70"
       inkscape:connector-curvature="0" />
  </g>
</svg>
