<?xml version="1.0" encoding="UTF-8" standalone="no"?>
<svg
   xmlns:dc="http://purl.org/dc/elements/1.1/"
   xmlns:cc="http://creativecommons.org/ns#"
   xmlns:rdf="http://www.w3.org/1999/02/22-rdf-syntax-ns#"
   xmlns:svg="http://www.w3.org/2000/svg"
   xmlns="http://www.w3.org/2000/svg"
   xmlns:xlink="http://www.w3.org/1999/xlink"
   xmlns:sodipodi="http://sodipodi.sourceforge.net/DTD/sodipodi-0.dtd"
   xmlns:inkscape="http://www.inkscape.org/namespaces/inkscape"
   height="26"
   width="26"
   version="1.0"
   id="svg2"
   inkscape:version="0.48.3.1 r9886"
   sodipodi:docname="net_unlocked.svg">
  <metadata
     id="metadata74">
    <rdf:RDF>
      <cc:Work
         rdf:about="">
        <dc:format>image/svg+xml</dc:format>
        <dc:type
           rdf:resource="http://purl.org/dc/dcmitype/StillImage" />
        <dc:title />
      </cc:Work>
    </rdf:RDF>
  </metadata>
  <sodipodi:namedview
     pagecolor="#ffffff"
     bordercolor="#666666"
     borderopacity="1"
     objecttolerance="10"
     gridtolerance="10"
     guidetolerance="10"
     inkscape:pageopacity="0"
     inkscape:pageshadow="2"
     inkscape:window-width="1600"
     inkscape:window-height="849"
     id="namedview72"
     showgrid="true"
     inkscape:snap-grids="false"
     inkscape:snap-to-guides="false"
     inkscape:zoom="19.666667"
     inkscape:cx="4.5270896"
     inkscape:cy="14.078608"
     inkscape:window-x="0"
     inkscape:window-y="29"
     inkscape:window-maximized="1"
     inkscape:current-layer="svg2">
    <inkscape:grid
       type="xygrid"
       id="grid3019"
       empspacing="1"
       visible="true"
       enabled="true"
       snapvisiblegridlinesonly="true" />
  </sodipodi:namedview>
  <defs
     id="defs4">
    <filter
       id="k"
       color-interpolation-filters="sRGB">
      <feGaussianBlur
         stdDeviation="0.37718285"
         id="feGaussianBlur7" />
    </filter>
    <radialGradient
       id="s"
       gradientUnits="userSpaceOnUse"
       cy="4.2800999"
       cx="123.57"
       gradientTransform="matrix(1.2373,1.1904,-0.87346,0.90788,-246.63,-189.76)"
       r="18.304001">
      <stop
         stop-color="#fff"
         offset="0"
         id="stop10" />
      <stop
         stop-color="#b3b0a7"
         offset="1"
         id="stop12" />
    </radialGradient>
    <linearGradient
       id="p"
       y2="18.836"
       xlink:href="#a"
       gradientUnits="userSpaceOnUse"
       x2="142.17999"
       gradientTransform="matrix(0.76019,0,0,0.76019,-191.41,-37.143)"
       y1="16.563"
       x1="116.42" />
    <linearGradient
       id="a">
      <stop
         stop-color="#fff"
         offset="0"
         id="stop16" />
      <stop
         stop-color="#fff"
         stop-opacity="0"
         offset="1"
         id="stop18" />
    </linearGradient>
    <linearGradient
       id="o"
       y2="11.685"
       gradientUnits="userSpaceOnUse"
       x2="98.292"
       gradientTransform="matrix(0.76019,0,0,0.76019,-189.24,-36.6)"
       y1="70.179001"
       x1="156.78999">
      <stop
         stop-color="#fb9c02"
         offset="0"
         id="stop21" />
      <stop
         stop-color="#fff"
         offset="1"
         id="stop23" />
    </linearGradient>
    <linearGradient
       id="q"
       y2="62.02"
       gradientUnits="userSpaceOnUse"
       x2="-28.537001"
       gradientTransform="translate(-116.91,-44.22)"
       y1="24.645"
       x1="54.296001">
      <stop
         stop-color="#965d01"
         stop-opacity="0"
         offset="0"
         id="stop26" />
      <stop
         stop-color="#ab6200"
         offset="1"
         id="stop28" />
    </linearGradient>
    <linearGradient
       id="n"
       y2="41.539001"
       xlink:href="#a"
       gradientUnits="userSpaceOnUse"
       x2="127.36"
       gradientTransform="matrix(0.69024,0,0,0.6591,-179.72,-32.689)"
       y1="13.741"
       x1="115.62" />
    <linearGradient
       id="m"
       y2="33.214001"
       gradientUnits="userSpaceOnUse"
       x2="135.71001"
       gradientTransform="matrix(0.76019,0,0,0.76019,-191.41,-37.143)"
       y1="110"
       x1="203.57001">
      <stop
         stop-color="#4f3a1e"
         offset="0"
         id="stop32" />
      <stop
         stop-color="#4f3a1e"
         stop-opacity="0"
         offset="1"
         id="stop34" />
    </linearGradient>
    <linearGradient
       id="l"
       y2="11.708"
       xlink:href="#a"
       gradientUnits="userSpaceOnUse"
       x2="129.27"
       gradientTransform="matrix(0.52628,0,0,0.78596,-155.15,-37.182)"
       y1="22.589001"
       x1="153.36" />
    <linearGradient
       id="r"
       y2="13.849"
       gradientUnits="userSpaceOnUse"
       x2="28.979"
       gradientTransform="translate(-116.91,-44.22)"
       y1="28.622"
       x1="16.226">
      <stop
         stop-color="#8b8b8b"
         offset="0"
         id="stop38" />
      <stop
         stop-color="#8b8b8b"
         stop-opacity="0"
         offset="1"
         id="stop40" />
    </linearGradient>
    <mask
       id="w">
      <path
         style="fill:#fefefe;stroke:#ffffff;stroke-width:1px"
         inkscape:connector-curvature="0"
         d="M -3.6,45.75 13.725,45.825 13.95,29.962 2.475,30.112 0.75,21.675 -4.3125,19.5 l -4.575,-0.188 -5.5875,3.863 -0.525,5.963 5.8125,-0.113 4.6875,1.837 -1.0125,0.525 -0.8625,0.7875 -0.375,0.8625 -0.1875,0.75 0.0375,8.775 0.4875,1.275 0.825,0.825 1.3125,0.5625 z"
         id="path10" />
    </mask>
    <radialGradient
       id="x"
       gradientUnits="userSpaceOnUse"
       cy="4.2800999"
       cx="123.57"
       gradientTransform="matrix(0.6415,0.61139,-0.45285,0.46629,-90.127,-57.513)"
       r="18.304001">
      <stop
         stop-color="#fff"
         offset="0"
         id="stop13" />
      <stop
         stop-color="#b3b0a7"
         offset="1"
         id="stop15" />
    </radialGradient>
    <mask
       id="v">
      <path
         style="fill:#fefefe;stroke:#ffffff;stroke-width:1px"
         inkscape:connector-curvature="0"
         d="M -3.6,45.75 13.725,45.825 13.95,29.962 2.475,30.112 0.75,21.675 -4.3125,19.5 l -4.575,-0.188 -5.5875,3.863 -0.525,5.963 5.8125,-0.113 4.6875,1.837 -1.0125,0.525 -0.8625,0.7875 -0.375,0.8625 -0.1875,0.75 0.0375,8.775 0.4875,1.275 0.825,0.825 1.3125,0.5625 z"
         id="path18" />
    </mask>
    <linearGradient
       id="z"
       y2="18.836"
       xlink:href="#a-8"
       gradientUnits="userSpaceOnUse"
       x2="142.17999"
       gradientTransform="matrix(0.39413,0,0,0.39043,-61.497,20.869)"
       y1="16.563"
       x1="116.42" />
    <linearGradient
       id="a-8">
      <stop
         stop-color="#fff"
         offset="0"
         id="stop22" />
      <stop
         stop-color="#fff"
         stop-opacity="0"
         offset="1"
         id="stop24" />
    </linearGradient>
    <mask
       id="u">
      <path
         style="fill:#fefefe;stroke:#ffffff;stroke-width:1px"
         inkscape:connector-curvature="0"
         d="M -3.6,45.75 13.725,45.825 13.95,29.962 2.475,30.112 0.75,21.675 -4.3125,19.5 l -4.575,-0.188 -5.5875,3.863 -0.525,5.963 5.8125,-0.113 4.6875,1.837 -1.0125,0.525 -0.8625,0.7875 -0.375,0.8625 -0.1875,0.75 0.0375,8.775 0.4875,1.275 0.825,0.825 1.3125,0.5625 z"
         id="path27" />
    </mask>
    <linearGradient
       id="aa"
       y2="11.685"
       gradientUnits="userSpaceOnUse"
       x2="98.292"
       gradientTransform="matrix(0.39413,0,0,0.39043,-50.771,22.048)"
       y1="70.179001"
       x1="156.78999">
      <stop
         stop-color="#fb9c02"
         offset="0"
         id="stop30" />
      <stop
         stop-color="#fff"
         offset="1"
         id="stop32-7" />
    </linearGradient>
    <mask
       id="t">
      <path
         style="fill:#fefefe;stroke:#ffffff;stroke-width:1px"
         inkscape:connector-curvature="0"
         d="M -3.6,45.75 13.725,45.825 13.95,29.962 2.475,30.112 0.75,21.675 -4.3125,19.5 l -4.575,-0.188 -5.5875,3.863 -0.525,5.963 5.8125,-0.113 4.6875,1.837 -1.0125,0.525 -0.8625,0.7875 -0.375,0.8625 -0.1875,0.75 0.0375,8.775 0.4875,1.275 0.825,0.825 1.3125,0.5625 z"
         id="path35" />
    </mask>
    <linearGradient
       id="ab"
       y2="62.02"
       gradientUnits="userSpaceOnUse"
       x2="-28.537001"
       gradientTransform="matrix(0.51846,0,0,0.5136,-13.271,18.135)"
       y1="24.645"
       x1="54.296001">
      <stop
         stop-color="#965d01"
         stop-opacity="0"
         offset="0"
         id="stop38-2" />
      <stop
         stop-color="#ab6200"
         offset="1"
         id="stop40-5" />
    </linearGradient>
    <mask
       id="s-6">
      <path
         style="fill:#fefefe;stroke:#ffffff;stroke-width:1px"
         inkscape:connector-curvature="0"
         d="M -3.6,45.75 13.725,45.825 13.95,29.962 2.475,30.112 0.75,21.675 -4.3125,19.5 l -4.575,-0.188 -5.5875,3.863 -0.525,5.963 5.8125,-0.113 4.6875,1.837 -1.0125,0.525 -0.8625,0.7875 -0.375,0.8625 -0.1875,0.75 0.0375,8.775 0.4875,1.275 0.825,0.825 1.3125,0.5625 z"
         id="path43" />
    </mask>
    <linearGradient
       id="ac"
       y2="33.214001"
       gradientUnits="userSpaceOnUse"
       x2="135.71001"
       gradientTransform="matrix(0.39413,0,0,0.39043,-51.897,21.769)"
       y1="110"
       x1="203.57001">
      <stop
         stop-color="#4f3a1e"
         offset="0"
         id="stop46" />
      <stop
         stop-color="#4f3a1e"
         stop-opacity="0"
         offset="1"
         id="stop48" />
    </linearGradient>
    <mask
       id="r-8">
      <path
         style="fill:#fefefe;stroke:#ffffff;stroke-width:1px"
         inkscape:connector-curvature="0"
         d="M -3.6,45.75 13.725,45.825 13.95,29.962 2.475,30.112 0.75,21.675 -4.3125,19.5 l -4.575,-0.188 -5.5875,3.863 -0.525,5.963 5.8125,-0.113 4.6875,1.837 -1.0125,0.525 -0.8625,0.7875 -0.375,0.8625 -0.1875,0.75 0.0375,8.775 0.4875,1.275 0.825,0.825 1.3125,0.5625 z"
         id="path51" />
    </mask>
    <linearGradient
       id="ad"
       y2="11.708"
       xlink:href="#a-8"
       gradientUnits="userSpaceOnUse"
       x2="129.27"
       gradientTransform="matrix(0.27286,0,0,0.40366,-42.701,20.849)"
       y1="22.589001"
       x1="153.36" />
    <linearGradient
       id="linearGradient3072">
      <stop
         stop-color="#fff"
         offset="0"
         id="stop3074" />
      <stop
         stop-color="#fff"
         stop-opacity="0"
         offset="1"
         id="stop3076" />
    </linearGradient>
    <mask
       id="ag">
      <path
         style="fill:#fefefe;stroke:#ffffff;stroke-width:1px"
         inkscape:connector-curvature="0"
         d="M -3.6,45.75 13.725,45.825 13.95,29.962 2.475,30.112 0.75,21.675 -4.3125,19.5 l -4.575,-0.188 -5.5875,3.863 -0.525,5.963 5.8125,-0.113 4.6875,1.837 -1.0125,0.525 -0.8625,0.7875 -0.375,0.8625 -0.1875,0.75 0.0375,8.775 0.4875,1.275 0.825,0.825 1.3125,0.5625 z"
         id="path55" />
    </mask>
    <linearGradient
       id="ae"
       y2="13.849"
       gradientUnits="userSpaceOnUse"
       x2="28.979"
       gradientTransform="matrix(0.51846,0,0,0.5136,-22.871,17.235)"
       y1="28.622"
       x1="16.226">
      <stop
         stop-color="#8b8b8b"
         offset="0"
         id="stop58" />
      <stop
         stop-color="#8b8b8b"
         stop-opacity="0"
         offset="1"
         id="stop60" />
    </linearGradient>
    <mask
       id="af">
      <path
         style="fill:#fefefe;stroke:#ffffff;stroke-width:1px"
         inkscape:connector-curvature="0"
         d="M -3.6,45.75 13.725,45.825 13.95,29.962 2.475,30.112 0.75,21.675 -4.3125,19.5 l -4.575,-0.188 -5.5875,3.863 -0.525,5.963 5.8125,-0.113 4.6875,1.837 -1.0125,0.525 -0.8625,0.7875 -0.375,0.8625 -0.1875,0.75 0.0375,8.775 0.4875,1.275 0.825,0.825 1.3125,0.5625 z"
         id="path63" />
    </mask>
    <linearGradient
       y2="13.849"
       x2="28.979"
       y1="28.622"
       x1="16.226"
       gradientTransform="matrix(0.51846,0,0,0.5136,-22.871,17.235)"
       gradientUnits="userSpaceOnUse"
       id="linearGradient3094"
       xlink:href="#ae"
       inkscape:collect="always" />
    <filter
       id="k-6"
       color-interpolation-filters="sRGB">
      <feGaussianBlur
         stdDeviation="0.37718285"
         id="feGaussianBlur7-5" />
    </filter>
  </defs>
  <rect
     height="29.750463"
     width="28.549801"
     y="-4"
     x="-3.5497999"
     id="rect46"
     style="opacity:0" />
  <g
     transform="matrix(0.69612463,0,0,0.63582667,13.907336,-2.7047597)"
     id="g75">
    <path
       inkscape:connector-curvature="0"
       style="opacity:0.2;color:#000000;fill-rule:evenodd;stroke:#000000;stroke-width:0.49033999;stroke-linejoin:round"
       d="m -5.7017,21.091 c -3.9747,0 -7.1682,3.1761 -7.1682,7.1132 v 3.16 c -1.3272,0.28868 -2.3401,1.4023 -2.3401,2.8062 v 7.9428 c 0,1.6222 1.3184,2.9282 2.9559,2.9282 h 13.092 c 1.6376,0 2.9559,-1.306 2.9559,-2.9282 v -7.9428 c 0,-1.3979 -0.99697,-2.5112 -2.3155,-2.8062 v -3.16 c 0,-3.9375 -3.2057,-7.1132 -7.1805,-7.1132 z m 0,2.7452 c 2.4582,10e-7 4.4462,1.9694 4.4462,4.4045 v 3.0014 h -8.8801 v -3.0014 c 0,-2.4358 1.9757,-4.4045 4.4339,-4.4045 z"
       mask="url(#w)"
       id="path77" />
    <path
       inkscape:connector-curvature="0"
       style="color:#000000;fill:url(#x);fill-rule:evenodd;stroke:#656565;stroke-width:0.49033999;stroke-linejoin:round"
       d="m -6.7386,20.059 c -3.9747,0 -7.1682,3.1761 -7.1682,7.1132 v 6.6983 c 0,3.937 3.1939,7.101 7.1682,7.101 3.9743,0 7.1805,-3.1635 7.1805,-7.101 v -6.6983 c 0,-3.9375 -3.2057,-7.1132 -7.1805,-7.1132 z m 0,2.7452 c 2.4582,0 4.4462,1.9694 4.4462,4.4045 v 5.5392 c 0,2.4352 -1.9873,4.3923 -4.4462,4.3923 -2.4589,0 -4.4339,-1.9565 -4.4339,-4.3923 v -5.538 c 0,-2.4358 1.9757,-4.4045 4.4339,-4.4045 z"
       mask="url(#v)"
       id="path79" />
    <path
       inkscape:connector-curvature="0"
       style="color:#000000;fill:url(#z);fill-rule:evenodd;stroke:#8b8b8b;stroke-width:0.49033999;stroke-linejoin:round"
       d="m -6.7386,20.059 c -3.9747,0 -7.1682,3.1761 -7.1682,7.1132 v 6.6983 c 0,3.937 3.1939,7.101 7.1682,7.101 3.9743,0 7.1805,-3.1635 7.1805,-7.101 v -6.6983 c 0,-3.9375 -3.2057,-7.1132 -7.1805,-7.1132 z m 0,2.7452 c 2.4582,0 4.4462,1.9694 4.4462,4.4045 v 5.5392 c 0,2.4352 -1.9873,4.3923 -4.4462,4.3923 -2.4589,0 -4.4339,-1.9565 -4.4339,-4.3923 v -5.538 c 0,-2.4358 1.9757,-4.4045 4.4339,-4.4045 z"
       mask="url(#u)"
       id="path81" />
    <rect
       style="color:#000000;fill:url(#aa);stroke:#4f3a1e;stroke-width:0.49033999;stroke-linejoin:round"
       mask="url(#t)"
       ry="2.9282"
       height="13.809"
       width="19.004"
       y="31.108999"
       x="-6.6443"
       id="rect83" />
    <path
       inkscape:connector-curvature="0"
       style="color:#000000;fill:url(#ab)"
       mask="url(#s-6)"
       d="m -4.0196,42.434 h 13.928 c 0.38598,0 0.69672,0.30782 0.69672,0.69019 0,0.38236 -0.31074,0.69019 -0.69672,0.69019 h -13.928 c -0.38598,0 -0.69672,-0.30782 -0.69672,-0.69019 0,-0.38236 0.31074,-0.69019 0.69672,-0.69019 z m 0,-2.5636 h 13.928 c 0.38598,0 0.69672,0.30782 0.69672,0.69019 0,0.38236 -0.31074,0.69019 -0.69672,0.69019 h -13.928 c -0.38598,0 -0.69672,-0.30782 -0.69672,-0.69019 0,-0.38237 0.31074,-0.69019 0.69672,-0.69019 z m 0,-2.5636 h 13.928 c 0.38598,0 0.69672,0.30782 0.69672,0.69019 0,0.38236 -0.31074,0.69019 -0.69672,0.69019 h -13.928 c -0.38598,0 -0.69672,-0.30782 -0.69672,-0.69019 0,-0.38236 0.31074,-0.69019 0.69672,-0.69019 z m 0,-2.5636 h 13.928 c 0.38598,0 0.69672,0.30782 0.69672,0.69019 0,0.38236 -0.31074,0.69019 -0.69672,0.69019 h -13.928 c -0.38598,0 -0.69672,-0.30782 -0.69672,-0.69019 0,-0.38236 0.31074,-0.69019 0.69672,-0.69019 z m 0,-2.5636 h 13.928 c 0.38598,0 0.69672,0.30782 0.69672,0.69019 0,0.38236 -0.31074,0.69019 -0.69672,0.69019 h -13.928 c -0.38598,0 -0.69672,-0.30782 -0.69672,-0.69019 0,-0.38236 0.31074,-0.69019 0.69672,-0.69019 z"
       id="path85" />
    <path
       inkscape:connector-curvature="0"
       style="color:#000000;fill:url(#ac)"
       mask="url(#r-8)"
       d="m 8.8451,43.866 c 1.7221,0.01428 2.218,-1.1879 2.2834,-2.9514 0.11189,-3.0171 -0.15895,-9.2476 -0.15895,-9.2476 1.5714,0 1.2882,0.97436 1.2882,2.5311 l 0.28152,7.9105 c 0,1.5567 -1.1243,2.6705 -2.6958,2.6705 l -13.549,0.13944 c -0.72689,-0.27888 -1.992,-0.55605 -1.992,-1.2761 0,0 5.4028,0.14788 14.542,0.22363 z"
       id="path87" />
    <path
       inkscape:connector-curvature="0"
       style="color:#000000;fill:url(#ad);fill-rule:evenodd"
       d="m -5.1938,21.183 c 3.6597,0.97608 4.3379,4.522 4.3379,5.2987 v 3.486 h -0.81894 v -3.486 c 0,-1.8613 -1.5484,-4.3691 -3.519,-5.2987 z"
       mask="url(#ag)"
       id="path89" />
    <path
       inkscape:connector-curvature="0"
       style="color:#000000;fill:url(#linearGradient3094);fill-rule:evenodd"
       d="m -7.4024,22.61 c -4.1568,0.81755 -4.9271,2.4277 -4.9271,4.9569 v 2.401 h 0.93017 v -2.9198 c 0,-1.559 1.7587,-3.6595 3.9969,-4.4381 z"
       mask="url(#af)"
       id="path91" />
  </g>
  <g
     transform="matrix(0.47196265,0,0,0.59065292,-1.768173,-0.26198984)"
     style="font-size:47.73400116px;line-height:125%;letter-spacing:0px;word-spacing:0px;opacity:0.21483998;fill:#000000;filter:url(#k-6);font-family:Sans"
     id="text42">
    <path
       d="m 4.4756262,16.901477 4.6149608,0 0,4.961083 -4.6149608,0 0,-4.961083"
       style="font-size:26.25399971px;font-weight:bold;letter-spacing:-0.90693998px;fill:#000000;font-family:Garuda"
       id="path3015"
       inkscape:connector-curvature="0" />
    <path
       d="m 27.528025,13.119773 0,8.742787 -4.614961,0 0,-1.422946 0,-5.268747 c -1.2e-5,-1.239195 -0.02992,-2.093816 -0.08973,-2.563867 -0.05129,-0.470033 -0.145298,-0.816154 -0.282026,-1.038366 -0.179482,-0.299108 -0.423049,-0.529855 -0.730702,-0.692245 -0.307675,-0.170913 -0.658069,-0.256375 -1.051185,-0.256386 -0.957186,1.1e-5 -1.709253,0.371771 -2.256204,1.115282 -0.546965,0.734985 -0.820444,1.756257 -0.820437,3.063821 l 0,7.063454 -4.589322,0 0,-14.3576558 4.589322,0 0,2.1023711 c 0.692237,-0.8375169 1.427211,-1.4528444 2.204926,-1.8459844 0.777696,-0.401658 1.636591,-0.6024941 2.576686,-0.6025088 1.657954,1.47e-5 2.914248,0.5085145 3.768885,1.525501 0.863152,1.0170128 1.294736,2.4955079 1.294753,4.4354899"
       style="font-size:26.25399971px;font-weight:bold;letter-spacing:-0.90693998px;fill:#000000;font-family:Garuda"
       id="path3017"
       inkscape:connector-curvature="0" />
    <path
       d="m 45.23476,14.645274 0,1.307572 -10.729784,0 c 0.111095,1.07683 0.499948,1.884447 1.16656,2.422855 0.666597,0.538415 1.598135,0.807621 2.794615,0.807618 0.965712,3e-6 1.9528,-0.14101 2.961266,-0.423038 1.016987,-0.290568 2.059626,-0.726425 3.127918,-1.307572 l 0,3.538136 c -1.085385,0.41022 -2.170754,0.717883 -3.256111,0.922993 -1.085382,0.213655 -2.170751,0.320483 -3.256111,0.320483 -2.598059,0 -4.619239,-0.658059 -6.063546,-1.974178 -1.435768,-1.324661 -2.15365,-3.17919 -2.153648,-5.563591 -2e-6,-2.341656 0.705061,-4.183366 2.11519,-5.5251342 1.418668,-1.3417431 3.367206,-2.012621 5.845617,-2.0126357 2.256192,1.47e-5 4.059443,0.6794388 5.40976,2.0382744 1.358833,1.3588605 2.038258,3.1749315 2.038274,5.4482175 m -4.717515,-1.525501 c -1.2e-5,-0.871705 -0.256399,-1.572495 -0.769161,-2.102371 -0.504237,-0.538401 -1.166569,-0.807606 -1.986997,-0.807618 -0.888815,1.2e-5 -1.61097,0.252125 -2.166467,0.756341 -0.555511,0.495691 -0.901633,1.213573 -1.038367,2.153648 l 5.960992,0"
       style="font-size:26.25399971px;font-weight:bold;letter-spacing:-0.90693998px;fill:#000000;font-family:Garuda"
       id="path3019"
       inkscape:connector-curvature="0" />
    <path
       d="m 52.801402,3.4283554 0,4.0765488 4.730335,0 0,3.2817498 -4.730335,0 0,6.089185 c -7e-6,0.666609 0.132459,1.119559 0.3974,1.358849 0.264925,0.230752 0.790517,0.346126 1.576778,0.346122 l 2.358758,0 0,3.28175 -3.935536,0 c -1.811806,0 -3.098011,-0.376033 -3.858621,-1.128101 -0.75207,-0.760612 -1.128104,-2.046818 -1.128101,-3.85862 l 0,-6.089185 -2.281842,0 0,-3.2817498 2.281842,0 0,-4.0765488 4.589322,0"
       style="font-size:26.25399971px;font-weight:bold;letter-spacing:-0.90693998px;fill:#000000;font-family:Garuda"
       id="path3021"
       inkscape:connector-curvature="0" />
  </g>
  <path
     d="m 0.11647299,8.0101077 2.17808901,0 0,2.9302783 -2.17808901,0 0,-2.9302783"
     style="font-size:14.93643856px;font-weight:bold;line-height:125%;letter-spacing:-0.51597679px;word-spacing:0px;fill:#505050;font-family:Garuda"
     id="path3024"
     inkscape:connector-curvature="0" />
  <path
     d="m 10.996344,5.7764332 0,5.1639528 -2.178089,0 0,-0.840468 0,-3.1120003 C 8.818249,6.2559838 8.804125,5.7511991 8.775905,5.473562 8.751695,5.195936 8.707335,4.9914982 8.642797,4.8602481 8.558087,4.6835795 8.443134,4.5472876 8.297934,4.4513721 8.152722,4.3504216 7.987349,4.2999431 7.801813,4.2999365 7.350057,4.2999431 6.995109,4.5195244 6.736969,4.9586812 6.478822,5.392802 6.34975,5.9960197 6.349753,6.7683362 l 0,4.1720498 -2.165988,0 0,-8.4803915 2.165988,0 0,1.2417715 C 6.676463,3.2070843 7.023344,2.8436393 7.390396,2.6114301 7.75744,2.3741896 8.162806,2.2555652 8.606495,2.2555565 c 0.782493,8.7e-6 1.375417,0.3003556 1.778773,0.9010415 0.407377,0.6007016 0.611068,1.4739791 0.611076,2.6198352"
     style="font-size:14.93643856px;font-weight:bold;line-height:125%;letter-spacing:-0.51597679px;word-spacing:0px;fill:#505050;font-family:Garuda"
     id="path3026"
     inkscape:connector-curvature="0" />
  <path
     d="m 19.353262,6.6774748 0,0.7723213 -5.064057,0 c 0.05243,0.6360322 0.235956,1.1130537 0.550572,1.431066 0.314609,0.3180165 0.75426,0.4770235 1.318954,0.477022 0.45578,1.5e-6 0.921649,0.1683946 1.397607,0.00181 0.47998,-0.171625 0.900157,-0.2492923 1.404351,-0.5925485 l 0.07191,1.6583564 c -0.51226,0.242297 -1.024514,0.424019 -1.536761,0.545168 -0.512261,0.126196 -1.024514,0.189294 -1.536764,0.189295 -1.226187,-10e-7 -2.180108,-0.388686 -2.861767,-1.1660551 -0.677628,-0.7824152 -1.016443,-1.877798 -1.016441,-3.2861515 -2e-6,-1.3831059 0.332762,-2.4709168 0.99829,-3.2634362 0.669559,-0.7925045 1.589195,-1.1887605 2.758913,-1.1887692 1.064838,8.7e-6 1.915906,0.4013125 2.553205,1.2039127 0.641319,0.8026151 0.961981,1.8752825 0.96199,3.2180056 M 17.126771,5.7764332 C 17.126765,5.2615579 17.00576,4.8476345 16.763755,4.5346616 16.525774,4.2166537 16.213178,4.0576465 15.825967,4.0576396 15.40648,4.0576465 15.06565,4.206558 14.803475,4.5043746 14.541296,4.7971561 14.198166,5.4369027 14.133632,5.9921607 l 3.101002,-0.035955"
     style="font-size:14.93643856px;font-weight:bold;line-height:125%;letter-spacing:-0.51597679px;word-spacing:0px;fill:#505050;font-family:Garuda"
     id="path3028"
     inkscape:connector-curvature="0"
     sodipodi:nodetypes="ccccsccccscscccccccccc" />
  <path
     d="m 22.924434,0.05216906 0,2.40782544 2.232541,0 0,1.9383751 -2.232541,0 0,3.5965945 c -3e-6,0.393735 0.06252,0.6612709 0.187557,0.8026084 0.125035,0.136294 0.373095,0.20444 0.744181,0.2044381 l 1.113246,0 0,1.9383754 -1.857427,0 c -0.855104,0 -1.462145,-0.222106 -1.821124,-0.666317 -0.35495,-0.4492574 -0.532423,-1.2089584 -0.532423,-2.2791049 l 0,-3.5965945 -1.076943,0 0,-1.9383751 1.076943,0 0,-2.40782544 2.16599,0"
     style="font-size:14.93643856px;font-weight:bold;line-height:125%;letter-spacing:-0.51597679px;word-spacing:0px;fill:#505050;font-family:Garuda"
     id="path3030"
     inkscape:connector-curvature="0" />
</svg>
