<svg id="Слой_1" data-name="Слой 1"
  xmlns:dc="http://purl.org/dc/elements/1.1/"
  xmlns:cc="http://creativecommons.org/ns#"
  xmlns:rdf="http://www.w3.org/1999/02/22-rdf-syntax-ns#"
  xmlns="http://www.w3.org/2000/svg"
  xmlns:sodipodi="http://sodipodi.sourceforge.net/DTD/sodipodi-0.dtd"
  xmlns:inkscape="http://www.inkscape.org/namespaces/inkscape" viewBox="0 0 26 26">
  <sodipodi:namedview pagecolor="#ffffff" bordercolor="#666666" borderopacity="1" objecttolerance="10" gridtolerance="10" guidetolerance="10" inkscape:pageopacity="0" inkscape:pageshadow="2" inkscape:window-width="1609" inkscape:window-height="1286" id="namedview30" showgrid="true" inkscape:zoom="27.961538" inkscape:cx="13" inkscape:cy="13" inkscape:window-x="0" inkscape:window-y="37" inkscape:window-maximized="0">
    <inkscape:grid type="xygrid" id="grid_kicad" spacingx="0.5" spacingy="0.5" color="#9999ff" opacity="0.13" empspacing="2" />
  </sodipodi:namedview>
  <metadata id="metadata43">
    <rdf:RDF>
      <cc:Work rdf:about="">
        <cc:license rdf:resource="http://creativecommons.org/licenses/by-sa/4.0/" />
        <dc:format>image/svg+xml</dc:format>
        <dc:type rdf:resource="http://purl.org/dc/dcmitype/StillImage" />
        <dc:title>add_arc</dc:title>
      </cc:Work>
      <cc:License rdf:about="http://creativecommons.org/licenses/by-sa/4.0/">
        <cc:permits rdf:resource="http://creativecommons.org/ns#Reproduction" />
        <cc:permits rdf:resource="http://creativecommons.org/ns#Distribution" />
        <cc:requires rdf:resource="http://creativecommons.org/ns#Notice" />
        <cc:requires rdf:resource="http://creativecommons.org/ns#Attribution" />
        <cc:permits rdf:resource="http://creativecommons.org/ns#DerivativeWorks" />
        <cc:requires rdf:resource="http://creativecommons.org/ns#ShareAlike" />
      </cc:License>
    </rdf:RDF>
  </metadata>
  <defs>
    <style>.cls-1{fill:#b9b9b9;}.cls-2{fill:none;stroke:#545454;stroke-linecap:round;stroke-miterlimit:10;stroke-width:2px;}.cls-3{fill:#1a81c4;}.cls-4{fill:#fff;}</style>
  </defs>
  <title>netlist</title>
  <path class="cls-1" d="M6.7023,1.0436H21.3128a3.6595,3.6595,0,0,1,3.6595,3.6595V21.37a3.66,3.66,0,0,1-3.66,3.66H6.7023a3.66,3.66,0,0,1-3.66-3.66V4.7033A3.66,3.66,0,0,1,6.7023,1.0436Z"/>
  <line class="cls-2" x1="10.2339" y1="14.5341" x2="21.4055" y2="14.5341"/>
  <line class="cls-2" x1="10.2339" y1="17.9598" x2="21.4055" y2="17.9598"/>
  <line class="cls-2" x1="10.2339" y1="21.3854" x2="21.4055" y2="21.3854"/>
  <line class="cls-2" x1="7.4762" y1="7.7425" x2="7.5239" y2="7.7425"/>
  <line class="cls-2" x1="7.4762" y1="14.5341" x2="7.5239" y2="14.5341"/>
  <line class="cls-2" x1="7.4762" y1="17.9598" x2="7.5239" y2="17.9598"/>
  <line class="cls-2" x1="7.4762" y1="21.3854" x2="7.5239" y2="21.3854"/>
  <rect class="cls-3" x="1.0532" y="3.0372" width="18.7099" height="9.2299"/>
  <path class="cls-4" d="M7.5869,10.8564H6.5137L3.6494,6.1309,3.6221,6.14v4.7168H2.5449V4.3838H3.6221L6.4873,9.1045l.0264-.0088V4.3838H7.5869Z"/>
  <path class="cls-4" d="M12.9043,7.9443H10.0791v2.045h3.2773v.8671H9.002V4.3838h4.3232V5.25H10.0791V7.0771h2.8252Z"/>
  <path class="cls-4" d="M18.7656,5.25H16.8145v5.6064H15.7373V5.25H13.7861V4.3838h4.98Z"/>
</svg>