<svg xmlns="http://www.w3.org/2000/svg" height="48" width="48" version="1.0" xmlns:xlink="http://www.w3.org/1999/xlink">
 <defs>
  <radialGradient id="t" gradientUnits="userSpaceOnUse" cy="9.3411" cx="38.659" r="8.3417">
   <stop stop-color="#fff" offset="0"/>
   <stop stop-color="#fefede" stop-opacity=".91837" offset=".25"/>
   <stop stop-color="#f5f328" offset=".5"/>
   <stop stop-color="#f5f32d" stop-opacity=".12234" offset="1"/>
  </radialGradient>
  <radialGradient id="r" gradientUnits="userSpaceOnUse" cy="5.3" cx="4" gradientTransform="matrix(1.886,0,0,1.1765,-3.5441,-4.2353)" r="17">
   <stop stop-color="#fff" offset="0"/>
   <stop stop-color="#fff" stop-opacity="0" offset="1"/>
  </radialGradient>
  <linearGradient id="m" y2="9.6875" gradientUnits="userSpaceOnUse" x2="-24.75" y1="11.566" x1="-26.754">
   <stop stop-color="#fff" offset="0"/>
   <stop stop-color="#fff" stop-opacity="0" offset="1"/>
  </linearGradient>
  <radialGradient id="s" gradientUnits="userSpaceOnUse" cy="10.108" cx="-26.305" gradientTransform="matrix(.40734 -.27983 .75103 1.0932 57.815 -68.688)" r="7.0421">
   <stop stop-color="#fff" offset="0"/>
   <stop stop-color="#fff" offset=".47534"/>
   <stop stop-color="#fff" stop-opacity="0" offset="1"/>
  </radialGradient>
  <linearGradient id="p" y2="54.449" gradientUnits="userSpaceOnUse" x2="7.9216" y1="32.963" x1="6.7929">
   <stop stop-color="#fff" offset="0"/>
   <stop stop-color="#fff" stop-opacity="0" offset="1"/>
  </linearGradient>
  <linearGradient id="q" y2="47.897" gradientUnits="userSpaceOnUse" x2="94.364" gradientTransform="matrix(1,0,0,1.4897,-1.3438,-22.802)" y1="40.665" x1="11.95">
   <stop stop-color="#3f7b04" offset="0"/>
   <stop stop-color="#d3d7cf" stop-opacity="0" offset="1"/>
  </linearGradient>
  <radialGradient id="w" gradientUnits="userSpaceOnUse" cy="33.188" cx="37.375" gradientTransform="matrix(1 0 0 .2265 0 25.671)" r="14.625">
   <stop offset="0"/>
   <stop stop-opacity="0" offset="1"/>
  </radialGradient>
  <radialGradient id="u" xlink:href="#a" gradientUnits="userSpaceOnUse" cy="39.5" cx="6" gradientTransform="matrix(1,0,0,2.1667,0,-46.083)" r="3"/>
  <linearGradient id="a">
   <stop offset="0"/>
   <stop stop-opacity="0" offset="1"/>
  </linearGradient>
  <radialGradient id="v" xlink:href="#a" gradientUnits="userSpaceOnUse" cy="39.5" cx="6" gradientTransform="matrix(1,0,0,2.1667,-45,-125.08)" r="3"/>
  <linearGradient id="o" y2="32.999" gradientUnits="userSpaceOnUse" x2="18" y1="46" x1="18">
   <stop stop-opacity="0" offset="0"/>
   <stop offset=".5"/>
   <stop stop-opacity="0" offset="1"/>
  </linearGradient>
  <linearGradient id="n" y2="16.003" gradientUnits="userSpaceOnUse" x2="4" gradientTransform="translate(.65625 -.24996)" y1="53.321" x1="5.6569">
   <stop stop-color="#32362e" offset="0"/>
   <stop stop-color="#376c04" offset="1"/>
  </linearGradient>
 </defs>
 <rect opacity="0" height="48" width="48" y="-62.5" x="23.25"/>
 <path opacity=".68016" d="m8.5312 4c-0.8581 0-1.5312 0.6731-1.5312 1.5312v36.938c0 0.858 0.6731 1.531 1.5312 1.531h30.938c0.858 0 1.531-0.673 1.531-1.531v-24.969c0-1.392-0.48698-4.2995-2.3438-6.1562l-5-5c-1.857-1.857-4.764-2.344-6.156-2.344h-18.969z" transform="translate(-150)" fill="url(#r)"/>
 <path fill="url(#s)" d="m50.5-56.25c-1.3889 0-0.0421 0.49709 1.3438 1.125 1.3858 0.62791 4.9729 3.2151 4.1562 6.875 4.3233-0.43058 6.6791 3.1224 7 4.2812 0.32087 1.1589 1 2.6076 1 1.2188 0.0283-3.8056-2.8454-6.4317-4.8438-8.6562-1.998-2.225-5.002-4.367-8.656-4.844z"/>
 <path d="m-51.469 4.5c-0.583 0-1.031 0.4481-1.031 1.0312v36.938c0 0.58316 0.44809 1.0312 1.0312 1.0312h30.938c0.58316 0 1.0312-0.44809 1.0312-1.0312v-24.969c0-1.279-0.48047-4.1055-2.1875-5.8125l-5-5c-1.707-1.7075-4.533-2.188-5.812-2.188h-18.969z" transform="translate(-90)" stroke="url(#m)" fill="none"/>
 <g transform="matrix(1.1473,0,0,1.2044,-4.169,-9.7423)">
  <path stroke-linejoin="round" d="m8.924 10.273h28.464c0.97934 0 1.6968 0.75268 1.7678 1.7678l1.9375 27.709 0.06252 3.5h-36v-3.5l2-27.709c0.0699-0.971 0.7882-1.768 1.7676-1.768z" stroke="url(#n)" stroke-linecap="round" fill="#4e9a06"/>
  <g stroke-linejoin="round" fill-rule="evenodd" transform="translate(7.3437,-46.289)" stroke="#316400" stroke-linecap="round" stroke-width="1px" fill="#fff">
   <path d="m10 73"/>
   <path d="m13 73"/>
   <path d="m16 73"/>
   <path d="m19 73"/>
   <path d="m10 70"/>
   <path d="m13 70"/>
   <path d="m16 70"/>
   <path d="m19 70"/>
   <path d="m10 67"/>
   <path d="m13 67"/>
   <path d="m16 67"/>
   <path d="m19 67"/>
   <path d="m10 64"/>
   <path d="m13 64"/>
   <path d="m16 64"/>
   <path d="m19 64"/>
   <path d="m22 73"/>
   <path d="m25 73"/>
   <path d="m28 73"/>
   <path d="m31 73"/>
   <path d="m22 70"/>
   <path d="m25 70"/>
   <path d="m28 70"/>
   <path d="m31 70"/>
   <path d="m22 67"/>
   <path d="m25 67"/>
   <path d="m28 67"/>
   <path d="m31 67"/>
   <path d="m22 64"/>
   <path d="m25 64"/>
   <path d="m28 64"/>
   <path d="m31 64"/>
   <path d="m10 61"/>
   <path d="m13 61"/>
   <path d="m16 61"/>
   <path d="m19 61"/>
   <path d="m10 58"/>
   <path d="m13 58"/>
   <path d="m16 58"/>
   <path d="m19 58"/>
   <path d="m22 61"/>
   <path d="m25 61"/>
   <path d="m28 61"/>
   <path d="m31 61"/>
   <path d="m22 58"/>
   <path d="m25 58"/>
   <path d="m28 58"/>
   <path d="m10 85"/>
   <path d="m13 85"/>
   <path d="m16 85"/>
   <path d="m19 85"/>
   <path d="m10 82"/>
   <path d="m13 82"/>
   <path d="m16 82"/>
   <path d="m19 82"/>
   <path d="m10 79"/>
   <path d="m13 79"/>
   <path d="m16 79"/>
   <path d="m19 79"/>
   <path d="m10 76"/>
   <path d="m13 76"/>
   <path d="m16 76"/>
   <path d="m19 76"/>
   <path d="m22 85"/>
   <path d="m25 85"/>
   <path d="m28 85"/>
   <path d="m31 85"/>
   <path d="m22 82"/>
   <path d="m25 82"/>
   <path d="m28 82"/>
   <path d="m31 82"/>
   <path d="m22 79"/>
   <path d="m25 79"/>
   <path d="m28 79"/>
   <path d="m31 79"/>
   <path d="m22 76"/>
   <path d="m25 76"/>
   <path d="m28 76"/>
   <path d="m31 76"/>
   <path d="m4 73"/>
   <path d="m7 73"/>
   <path d="m4 70"/>
   <path d="m7 70"/>
   <path d="m4 67"/>
   <path d="m7 67"/>
   <path d="m4 64"/>
   <path d="m7 64"/>
   <path d="m4 61"/>
   <path d="m7 61"/>
   <path d="m4 58"/>
   <path d="m7 58"/>
   <path d="m4 85"/>
   <path d="m7 85"/>
   <path d="m4 82"/>
   <path d="m7 82"/>
   <path d="m4 79"/>
   <path d="m7 79"/>
   <path d="m4 76"/>
   <path d="m7 76"/>
   <path d="m1 73"/>
   <path d="m1 70"/>
   <path d="m1 67"/>
   <path d="m1 64"/>
   <path d="m1 61"/>
   <path d="m1 85"/>
   <path d="m1 82"/>
   <path d="m1 79"/>
   <path d="m1 76"/>
  </g>
  <g stroke-linejoin="round" stroke-linecap="round" transform="translate(19.441,85.57)">
   <path style="color:#000000" d="m-7.9117-72.099 3.648-0.04473 3.2779 3.6454-0.74024 7.3802" stroke="#5fc500" display="block" fill="none"/>
   <path style="color:#000000" d="m1.1924-61.154 0.88828-8.8563-1.9667-2.1872" stroke="#5fc500" display="block" fill="none"/>
   <path style="color:#000000" d="m4.1108-61.19 1.0363-10.332-0.6556-0.729" stroke="#5fc500" display="block" fill="#4e9a06"/>
   <path style="color:#000000" d="m7.0292-61.226 1.1104-11.07" stroke="#5fc500" display="block" fill="#4e9a06"/>
   <path style="color:#000000" d="m-2.5403-53-0.29609 2.9521-2.4109 2.2409-5.1072 0.06263" stroke="#5fc500" display="block" fill="none"/>
   <path style="color:#000000" d="m0.37811-53.036-0.51817 5.166" stroke="#5fc500" display="block" fill="#4e9a06"/>
   <path style="color:#000000" d="m3.2965-53.072-0.2961 2.9521 1.9667 2.1872 4.3776-0.05368" stroke="#5fc500" display="block" fill="none"/>
   <path style="color:#000000" d="m6.2149-53.108 1.3112 1.4582 2.1888-0.02684" stroke="#5fc500" display="block" fill="#4e9a06"/>
   <path style="color:#000000" d="m-8.1338-69.885 2.9184-0.03579 1.9667 2.1872-1.6285 16.236-1.6073 1.4939-3.648 0.04473 1.9986-19.927z" stroke="#5fc500" display="block" fill="#5fc500"/>
   <rect style="color:#000000" stroke-width="1.0032" display="block" transform="matrix(.99992 -.012261 -.099799 .99501 0 0)" ry="1.9668" width="13.134" stroke="#eeeeec" y="-63.747" x="-10.055" height="12.609" fill="none"/>
   <path style="color:#000000" d="m-1.726-61.119-0.14805 1.476" stroke="#babdb6" display="block" fill="none"/>
   <path style="color:#000000" d="m1.1924-61.154-0.14805 1.476" stroke="#babdb6" display="block" fill="none"/>
   <path style="color:#000000" d="m4.1108-61.19-0.14805 1.476" stroke="#babdb6" display="block" fill="none"/>
   <path style="color:#000000" d="m7.0292-61.226-0.148 1.476" stroke="#babdb6" display="block" fill="none"/>
   <path style="color:#000000" d="m6.363-54.584-0.14805 1.476" stroke="#babdb6" display="block" fill="none"/>
   <path style="color:#000000" d="m3.4446-54.548-0.14805 1.476" stroke="#babdb6" display="block" fill="none"/>
   <path style="color:#000000" d="m0.52616-54.512-0.14805 1.476" stroke="#babdb6" display="block" fill="none"/>
   <path style="color:#000000" d="m-2.3923-54.476-0.1481 1.476" stroke="#babdb6" display="block" fill="none"/>
  </g>
  <g opacity=".4" transform="matrix(1.0417 0 0 .45793 -.28125 24.162)">
   <rect height="13" width="3" y="33" x="3" fill="url(#u)"/>
   <rect transform="scale(-1)" height="13" width="3" y="-46" x="-42" fill="url(#v)"/>
   <rect height="13" width="33" y="33" x="6" fill="url(#o)"/>
  </g>
  <path opacity="0.07" d="m52 33.188a14.625 3.3125 0 1 1 -29.25 0 14.625 3.3125 0 1 1 29.25 0z" transform="matrix(.89744 0 0 .98113 1.9896 1.4387)" fill="url(#w)"/>
  <rect height="3.0104" width="35" y="39.75" x="5.6562" fill="url(#q)"/>
  <path d="m8.2812 11.5c-0.46366 0-0.77473 0.32045-0.8125 0.84375l-2 27.656v2.5313h34.031l-0.03125-2.4688v-0.031l-1.9375-27.688c-0.041-0.584-0.319-0.843-0.812-0.843h-28.438z" transform="matrix(1.0285 0 0 1.0313 -.48471 -1.5945)" stroke="url(#p)" stroke-linecap="round" fill="none"/>
  <path d="m5.1562 43.25h36" stroke="#c17d11" stroke-linecap="square" stroke-width="1px" fill="none"/>
 </g>
 <g fill-rule="evenodd" transform="matrix(1.4561,0,0,1.391,-17.436,-4.1412)">
  <path fill="url(#t)" d="m47.001 9.3411a8.3417 8.3417 0 1 1 -16.683 0 8.3417 8.3417 0 1 1 16.683 0z" transform="matrix(1.1498 0 0 1.1498 -7.5953 .4909)"/>
  <path style="color:#000000" fill="#fff" d="m44.52 15.503c-0.50717 0.87845-4.5947-0.16082-5.5214 0.25175-0.92665 0.41257-2.8894 4.1456-3.8816 3.9347-0.99218-0.21089-1.2669-4.4195-1.9456-5.1733-0.67873-0.7538-4.8356-1.4669-4.9416-2.4757-0.10603-1.0088 3.8117-2.5706 4.3189-3.449 0.50717-0.87845-0.09914-5.0522 0.82751-5.4648 0.92665-0.41257 3.6227 2.8308 4.6148 3.0417 0.99218 0.21089 4.7743-1.6555 5.453-0.90171 0.67873 0.7538-1.5728 4.3201-1.4668 5.3289 0.10603 1.0088 3.0498 4.0291 2.5427 4.9075z" transform="matrix(.67412 .29958 -.29958 .67412 15.464 -7.1925)"/>
 </g>
</svg>
