<?xml version="1.0" encoding="UTF-8" standalone="no"?>
<!-- Created with Inkscape (http://www.inkscape.org/) -->

<svg
   xmlns:dc="http://purl.org/dc/elements/1.1/"
   xmlns:cc="http://creativecommons.org/ns#"
   xmlns:rdf="http://www.w3.org/1999/02/22-rdf-syntax-ns#"
   xmlns:svg="http://www.w3.org/2000/svg"
   xmlns="http://www.w3.org/2000/svg"
   xmlns:xlink="http://www.w3.org/1999/xlink"
   xmlns:sodipodi="http://sodipodi.sourceforge.net/DTD/sodipodi-0.dtd"
   xmlns:inkscape="http://www.inkscape.org/namespaces/inkscape"
   width="26"
   height="26"
   id="svg2"
   version="1.1"
   inkscape:version="0.48.3.1 r9886"
   inkscape:export-filename="/home/baranovskiykonstantin/Рабочий стол/11.png"
   inkscape:export-xdpi="90"
   inkscape:export-ydpi="90"
   sodipodi:docname="new_project_with_template.svg">
  <defs
     id="defs4">
    <linearGradient
       id="linearGradient3813">
      <stop
         style="stop-color:#ffffff;stop-opacity:0.01960784;"
         offset="0"
         id="stop3815" />
      <stop
         style="stop-color:#ffffff;stop-opacity:0.29411766;"
         offset="1"
         id="stop3817" />
    </linearGradient>
    <linearGradient
       id="linearGradient3791">
      <stop
         style="stop-color:#bebebe;stop-opacity:1;"
         offset="0"
         id="stop3793" />
      <stop
         style="stop-color:#ffffff;stop-opacity:1;"
         offset="1"
         id="stop3795" />
    </linearGradient>
    <linearGradient
       id="linearGradient3757">
      <stop
         style="stop-color:#6882b0;stop-opacity:1;"
         offset="0"
         id="stop3759" />
      <stop
         style="stop-color:#8d9ab3;stop-opacity:1;"
         offset="1"
         id="stop3761" />
    </linearGradient>
    <linearGradient
       inkscape:collect="always"
       xlink:href="#linearGradient3757"
       id="linearGradient3763"
       x1="14"
       y1="24.5"
       x2="14"
       y2="1.5"
       gradientUnits="userSpaceOnUse"
       gradientTransform="translate(-1,1028.3622)" />
    <linearGradient
       inkscape:collect="always"
       xlink:href="#linearGradient3791"
       id="linearGradient3797"
       x1="5.5"
       y1="1032.3622"
       x2="5.5"
       y2="1030.3622"
       gradientUnits="userSpaceOnUse"
       gradientTransform="translate(-1,2.0000174)" />
    <linearGradient
       inkscape:collect="always"
       xlink:href="#linearGradient3813"
       id="linearGradient3819"
       x1="6"
       y1="13"
       x2="21.900002"
       y2="13"
       gradientUnits="userSpaceOnUse"
       gradientTransform="translate(-1,1028.3622)" />
    <linearGradient
       inkscape:collect="always"
       xlink:href="#linearGradient3757"
       id="linearGradient3839"
       gradientUnits="userSpaceOnUse"
       gradientTransform="translate(1,1026.3622)"
       x1="14"
       y1="24.5"
       x2="14"
       y2="1.5" />
    <linearGradient
       inkscape:collect="always"
       xlink:href="#linearGradient3791"
       id="linearGradient4406"
       gradientUnits="userSpaceOnUse"
       gradientTransform="translate(-1,6.0000174)"
       x1="5.5"
       y1="1032.3622"
       x2="5.5"
       y2="1030.3622" />
    <linearGradient
       inkscape:collect="always"
       xlink:href="#linearGradient3791"
       id="linearGradient4412"
       gradientUnits="userSpaceOnUse"
       gradientTransform="translate(-1,10.000017)"
       x1="5.5"
       y1="1032.3622"
       x2="5.5"
       y2="1030.3622" />
    <linearGradient
       inkscape:collect="always"
       xlink:href="#linearGradient3791"
       id="linearGradient4418"
       gradientUnits="userSpaceOnUse"
       gradientTransform="translate(-1,14.000017)"
       x1="5.5"
       y1="1032.3622"
       x2="5.5"
       y2="1030.3622" />
    <linearGradient
       inkscape:collect="always"
       xlink:href="#linearGradient3791"
       id="linearGradient4424"
       gradientUnits="userSpaceOnUse"
       gradientTransform="translate(-1,18.000017)"
       x1="5.5"
       y1="1032.3622"
       x2="5.5"
       y2="1030.3622" />
    <filter
       inkscape:collect="always"
       id="filter3867"
       x="-0.19463078"
       width="1.3892616"
       y="-0.67486102"
       height="2.349722">
      <feGaussianBlur
         inkscape:collect="always"
         stdDeviation="2.3517886"
         id="feGaussianBlur3869" />
    </filter>
  </defs>
  <sodipodi:namedview
     id="base"
     pagecolor="#ffffff"
     bordercolor="#666666"
     borderopacity="1.0"
     inkscape:pageopacity="0.0"
     inkscape:pageshadow="2"
     inkscape:zoom="22.961538"
     inkscape:cx="11.214406"
     inkscape:cy="13"
     inkscape:document-units="px"
     inkscape:current-layer="layer1"
     showgrid="true"
     inkscape:window-width="1301"
     inkscape:window-height="744"
     inkscape:window-x="65"
     inkscape:window-y="24"
     inkscape:window-maximized="1"
     showguides="true"
     inkscape:guide-bbox="true">
    <inkscape:grid
       type="xygrid"
       id="grid2985"
       empspacing="2"
       visible="true"
       enabled="true"
       snapvisiblegridlinesonly="true"
       spacingx="0.5px"
       spacingy="0.5px" />
  </sodipodi:namedview>
  <metadata
     id="metadata7">
    <rdf:RDF>
      <cc:Work
         rdf:about="">
        <dc:format>image/svg+xml</dc:format>
        <dc:type
           rdf:resource="http://purl.org/dc/dcmitype/StillImage" />
        <dc:title />
      </cc:Work>
    </rdf:RDF>
  </metadata>
  <g
     inkscape:label="Layer 1"
     inkscape:groupmode="layer"
     id="layer1"
     transform="translate(0,-1026.3622)">
    <path
       transform="matrix(1,0,0,2.75,1,975.23722)"
       style="opacity:0.4;fill:#000000;fill-opacity:1;stroke:none;filter:url(#filter3867)"
       d="m 1,19.681818 29,8.363629 -29,0 z"
       id="rect3848"
       inkscape:connector-curvature="0"
       sodipodi:nodetypes="cccc" />
    <rect
       y="1027.8622"
       x="6.5"
       height="21"
       width="18"
       id="rect3837"
       style="fill:#7a8aff;fill-opacity:1;stroke:url(#linearGradient3839);stroke-width:1.39999998;stroke-linecap:round;stroke-linejoin:miter;stroke-miterlimit:4;stroke-opacity:1;stroke-dasharray:none" />
    <path
       sodipodi:nodetypes="cczccsc"
       inkscape:connector-curvature="0"
       id="path3769"
       d="m 6,1031.3622 0,-2 c 0,0 -1,0 -2,0 -1,0 -1.5,1 -1.5,1 l 0,2 c 0,0 0.5,-1 1.5,-1 1,0 2,0 2,0 z"
       style="fill:#ffffff;fill-opacity:1;stroke:#808080;stroke-width:0.2;stroke-linecap:butt;stroke-linejoin:bevel;stroke-miterlimit:4;stroke-opacity:1;stroke-dasharray:none" />
    <path
       style="fill:#f0f0f0;fill-opacity:1;stroke:none"
       d="m 7,1028.3622 16.999996,0 0,22 -18.499996,0 -0.5,-21 z"
       id="rect3845"
       inkscape:connector-curvature="0"
       sodipodi:nodetypes="cccccc" />
    <path
       style="fill:#ffffff;fill-opacity:1;stroke:#808080;stroke-width:0.2;stroke-linecap:butt;stroke-linejoin:bevel;stroke-miterlimit:4;stroke-opacity:1;stroke-dasharray:none"
       d="m 6,1035.3622 0,-2 c 0,0 -1,0 -2,0 -1,0 -1.5,1 -1.5,1 l 0,2 c 0,0 0.5,-1 1.5,-1 1,0 2,0 2,0 z"
       id="path4402"
       inkscape:connector-curvature="0"
       sodipodi:nodetypes="cczccsc" />
    <path
       sodipodi:nodetypes="cczccsc"
       inkscape:connector-curvature="0"
       id="path4408"
       d="m 6,1039.3622 0,-2 c 0,0 -1,0 -2,0 -1,0 -1.5,1 -1.5,1 l 0,2 c 0,0 0.5,-1 1.5,-1 1,0 2,0 2,0 z"
       style="fill:#ffffff;fill-opacity:1;stroke:#808080;stroke-width:0.2;stroke-linecap:butt;stroke-linejoin:bevel;stroke-miterlimit:4;stroke-opacity:1;stroke-dasharray:none" />
    <path
       style="fill:#ffffff;fill-opacity:1;stroke:#808080;stroke-width:0.2;stroke-linecap:butt;stroke-linejoin:bevel;stroke-miterlimit:4;stroke-opacity:1;stroke-dasharray:none"
       d="m 6,1043.3622 0,-2 c 0,0 -1,0 -2,0 -1,0 -1.5,1 -1.5,1 l 0,2 c 0,0 0.5,-1 1.5,-1 1,0 2,0 2,0 z"
       id="path4414"
       inkscape:connector-curvature="0"
       sodipodi:nodetypes="cczccsc" />
    <path
       sodipodi:nodetypes="cczccsc"
       inkscape:connector-curvature="0"
       id="path4420"
       d="m 6,1047.3622 0,-2 c 0,0 -1,0 -2,0 -1,0 -1.5,1 -1.5,1 l 0,2 c 0,0 0.5,-1 1.5,-1 1,0 2,0 2,0 z"
       style="fill:#ffffff;fill-opacity:1;stroke:#808080;stroke-width:0.2;stroke-linecap:butt;stroke-linejoin:bevel;stroke-miterlimit:4;stroke-opacity:1;stroke-dasharray:none" />
    <rect
       style="fill:#99b4e5;fill-opacity:1;stroke:url(#linearGradient3763);stroke-width:1.39999998000000003;stroke-linecap:round;stroke-linejoin:miter;stroke-miterlimit:4;stroke-opacity:1;stroke-dasharray:none"
       id="rect2987"
       width="18"
       height="21"
       x="4.5"
       y="1029.8622" />
    <rect
       style="fill:#f2f2f2;fill-opacity:1;stroke:#5f6ab9;stroke-width:0.2;stroke-linecap:round;stroke-linejoin:bevel;stroke-miterlimit:4;stroke-opacity:1;stroke-dasharray:none"
       id="rect3783"
       width="1"
       height="3"
       x="5.5"
       y="1030.8622" />
    <path
       style="fill:url(#linearGradient3797);fill-opacity:1;stroke:#808080;stroke-width:0.2;stroke-linecap:butt;stroke-linejoin:bevel;stroke-miterlimit:4;stroke-opacity:1;stroke-dasharray:none"
       d="m 6,1031.3622 0,2 c 0,0 -1,0 -2,0 -1,0 -1.5,-1 -1.5,-1 l 0,-2 c 0,0 0.5,1 1.5,1 1,0 2,0 2,0 z"
       id="path3767"
       inkscape:connector-curvature="0"
       sodipodi:nodetypes="cczccsc" />
    <rect
       y="1034.8622"
       x="5.5"
       height="3"
       width="1"
       id="rect3785"
       style="fill:#f2f2f2;fill-opacity:1;stroke:#5f6ab9;stroke-width:0.2;stroke-linecap:round;stroke-linejoin:bevel;stroke-miterlimit:4;stroke-opacity:1;stroke-dasharray:none" />
    <rect
       style="fill:#f2f2f2;fill-opacity:1;stroke:#5f6ab9;stroke-width:0.2;stroke-linecap:round;stroke-linejoin:bevel;stroke-miterlimit:4;stroke-opacity:1;stroke-dasharray:none"
       id="rect3787"
       width="1"
       height="3"
       x="5.5"
       y="1038.8622" />
    <rect
       style="fill:none;stroke:url(#linearGradient3819);stroke-width:0.80000001;stroke-linecap:round;stroke-linejoin:miter;stroke-miterlimit:4;stroke-opacity:1;stroke-dasharray:none"
       id="rect3811"
       width="16"
       height="19"
       x="5.5"
       y="1030.8622" />
    <rect
       y="1042.8622"
       x="5.5"
       height="3"
       width="1"
       id="rect3823"
       style="fill:#f2f2f2;fill-opacity:1;stroke:#5f6ab9;stroke-width:0.2;stroke-linecap:round;stroke-linejoin:bevel;stroke-miterlimit:4;stroke-opacity:1;stroke-dasharray:none" />
    <rect
       style="fill:#f2f2f2;fill-opacity:1;stroke:#5f6ab9;stroke-width:0.2;stroke-linecap:round;stroke-linejoin:bevel;stroke-miterlimit:4;stroke-opacity:1;stroke-dasharray:none"
       id="rect3831"
       width="1"
       height="3"
       x="5.5"
       y="1046.8622" />
    <path
       sodipodi:nodetypes="cczccsc"
       inkscape:connector-curvature="0"
       id="path4404"
       d="m 6,1035.3622 0,2 c 0,0 -1,0 -2,0 -1,0 -1.5,-1 -1.5,-1 l 0,-2 c 0,0 0.5,1 1.5,1 1,0 2,0 2,0 z"
       style="fill:url(#linearGradient4406);fill-opacity:1;stroke:#808080;stroke-width:0.2;stroke-linecap:butt;stroke-linejoin:bevel;stroke-miterlimit:4;stroke-opacity:1;stroke-dasharray:none" />
    <path
       style="fill:url(#linearGradient4412);fill-opacity:1;stroke:#808080;stroke-width:0.2;stroke-linecap:butt;stroke-linejoin:bevel;stroke-miterlimit:4;stroke-opacity:1;stroke-dasharray:none"
       d="m 6,1039.3622 0,2 c 0,0 -1,0 -2,0 -1,0 -1.5,-1 -1.5,-1 l 0,-2 c 0,0 0.5,1 1.5,1 1,0 2,0 2,0 z"
       id="path4410"
       inkscape:connector-curvature="0"
       sodipodi:nodetypes="cczccsc" />
    <path
       sodipodi:nodetypes="cczccsc"
       inkscape:connector-curvature="0"
       id="path4416"
       d="m 6,1043.3622 0,2 c 0,0 -1,0 -2,0 -1,0 -1.5,-1 -1.5,-1 l 0,-2 c 0,0 0.5,1 1.5,1 1,0 2,0 2,0 z"
       style="fill:url(#linearGradient4418);fill-opacity:1;stroke:#808080;stroke-width:0.2;stroke-linecap:butt;stroke-linejoin:bevel;stroke-miterlimit:4;stroke-opacity:1;stroke-dasharray:none" />
    <path
       style="fill:url(#linearGradient4424);fill-opacity:1;stroke:#808080;stroke-width:0.2;stroke-linecap:butt;stroke-linejoin:bevel;stroke-miterlimit:4;stroke-opacity:1;stroke-dasharray:none"
       d="m 6,1047.3622 0,2 c 0,0 -1,0 -2,0 -1,0 -1.5,-1 -1.5,-1 l 0,-2 c 0,0 0.5,1 1.5,1 1,0 2,0 2,0 z"
       id="path4422"
       inkscape:connector-curvature="0"
       sodipodi:nodetypes="cczccsc" />
    <path
       style="fill:#f9f9f9;stroke:#808080;stroke-width:1;stroke-linecap:round;stroke-linejoin:round;stroke-miterlimit:10;stroke-opacity:1;opacity:0.9"
       d="m 14.500001,1036.8622 10.999999,0 0,15 -14.999999,0 0,-10.5 c 0.678374,-1.5771 1.391286,-3.15 4,-4.5 z"
       id="rect3938"
       inkscape:connector-curvature="0"
       sodipodi:nodetypes="cccccc" />
    <path
       style="fill:none;stroke:#333333;stroke-width:1.50000000000000000;stroke-linecap:round;stroke-linejoin:miter;stroke-miterlimit:4;stroke-opacity:1;stroke-dasharray:none;opacity:0.9"
       d="m 17.5,1039.8622 5.5,0"
       id="path3943"
       inkscape:connector-curvature="0"
       sodipodi:nodetypes="cc" />
    <path
       style="fill:none;stroke:#808080;stroke-width:1px;stroke-linecap:butt;stroke-linejoin:miter;stroke-opacity:1;opacity:0.9"
       d="m 10.5,1041.8622 4,-1 0.5,-4"
       id="path3941"
       inkscape:connector-curvature="0"
       sodipodi:nodetypes="ccc" />
    <path
       sodipodi:nodetypes="cc"
       inkscape:connector-curvature="0"
       id="path3945"
       d="m 16.000001,1042.8622 7,0"
       style="fill:none;stroke:#333333;stroke-width:1.50000000000000000;stroke-linecap:round;stroke-linejoin:miter;stroke-miterlimit:4;stroke-opacity:1;stroke-dasharray:none;opacity:0.9" />
    <path
       style="fill:none;stroke:#333333;stroke-width:1.50000000000000000;stroke-linecap:round;stroke-linejoin:miter;stroke-miterlimit:4;stroke-opacity:1;stroke-dasharray:none;opacity:0.9"
       d="m 13.000001,1045.8622 10,0"
       id="path3947"
       inkscape:connector-curvature="0"
       sodipodi:nodetypes="cc" />
    <path
       sodipodi:nodetypes="cc"
       inkscape:connector-curvature="0"
       id="path3949"
       d="m 13.000001,1048.8622 10,0"
       style="fill:none;stroke:#333333;stroke-width:1.50000000000000000;stroke-linecap:round;stroke-linejoin:miter;stroke-miterlimit:4;stroke-opacity:1;stroke-dasharray:none;opacity:0.9" />
  </g>
</svg>
