<?xml version="1.0" encoding="UTF-8" standalone="no"?>
<svg
   xmlns:dc="http://purl.org/dc/elements/1.1/"
   xmlns:cc="http://creativecommons.org/ns#"
   xmlns:rdf="http://www.w3.org/1999/02/22-rdf-syntax-ns#"
   xmlns:svg="http://www.w3.org/2000/svg"
   xmlns="http://www.w3.org/2000/svg"
   xmlns:xlink="http://www.w3.org/1999/xlink"
   xmlns:sodipodi="http://sodipodi.sourceforge.net/DTD/sodipodi-0.dtd"
   xmlns:inkscape="http://www.inkscape.org/namespaces/inkscape"
   height="48"
   width="48"
   version="1.0"
   id="svg2"
   inkscape:version="0.47 r22583"
   sodipodi:docname="new_sch.svg">
  <metadata
     id="metadata182">
    <rdf:RDF>
      <cc:Work
         rdf:about="">
        <dc:format>image/svg+xml</dc:format>
        <dc:type
           rdf:resource="http://purl.org/dc/dcmitype/StillImage" />
      </cc:Work>
    </rdf:RDF>
  </metadata>
  <sodipodi:namedview
     pagecolor="#ffffff"
     bordercolor="#666666"
     borderopacity="1"
     objecttolerance="10"
     gridtolerance="10"
     guidetolerance="10"
     inkscape:pageopacity="0"
     inkscape:pageshadow="2"
     inkscape:window-width="1280"
     inkscape:window-height="949"
     id="namedview180"
     showgrid="false"
     inkscape:zoom="4.9166667"
     inkscape:cx="0.51304558"
     inkscape:cy="44.231815"
     inkscape:window-x="0"
     inkscape:window-y="25"
     inkscape:window-maximized="1"
     inkscape:current-layer="svg2" />
  <defs
     id="defs4">
    <linearGradient
       id="s">
      <stop
         stop-color="#fafafa"
         offset="0"
         id="stop38" />
      <stop
         stop-color="#bbb"
         offset="1"
         id="stop40" />
    </linearGradient>
    <linearGradient
       id="t">
      <stop
         stop-color="#a3a3a3"
         offset="0"
         id="stop43" />
      <stop
         stop-color="#8a8a8a"
         offset="1"
         id="stop45" />
    </linearGradient>
    <linearGradient
       id="u">
      <stop
         offset="0"
         id="stop48" />
      <stop
         stop-opacity="0"
         offset="1"
         id="stop50" />
    </linearGradient>
    <linearGradient
       id="ag"
       y2="38.07"
       gradientUnits="userSpaceOnUse"
       x2="34.17"
       gradientTransform="matrix(-0.02684,-0.91918,0.81837,-0.030146,87.769,37.99)"
       y1="36.921"
       x1="33.396">
      <stop
         stop-color="#fff"
         offset="0"
         id="stop53" />
      <stop
         stop-color="#fff"
         stop-opacity="0"
         offset="1"
         id="stop55" />
    </linearGradient>
    <radialGradient
       id="y"
       gradientUnits="userSpaceOnUse"
       cy="12.989"
       cx="37.03"
       gradientTransform="matrix(1.4285,0,0,1.3118,66.306,-7.7881)"
       r="4.2929">
      <stop
         offset="0"
         id="stop60" />
      <stop
         stop-opacity="0"
         offset="1"
         id="stop62" />
    </radialGradient>
    <radialGradient
       id="z"
       gradientUnits="userSpaceOnUse"
       cy="7.2679"
       cx="8.1436"
       gradientTransform="matrix(1.2134,0,0,1.0535,74.493,-3.2576)"
       r="38.159">
      <stop
         stop-color="#fff"
         offset="0"
         id="stop65" />
      <stop
         stop-color="#f8f8f8"
         offset="1"
         id="stop67" />
    </radialGradient>
    <linearGradient
       id="ah"
       y2="39.999"
       gradientUnits="userSpaceOnUse"
       x2="25.058"
       y1="47.028"
       x1="25.058">
      <stop
         stop-opacity="0"
         offset="0"
         id="stop74" />
      <stop
         offset=".5"
         id="stop76" />
      <stop
         stop-opacity="0"
         offset="1"
         id="stop78" />
    </linearGradient>
    <radialGradient
       inkscape:collect="always"
       xlink:href="#u"
       id="radialGradient3103"
       gradientUnits="userSpaceOnUse"
       gradientTransform="matrix(2.0038,0,0,1.4,27.988,-17.4)"
       cx="4.993"
       cy="43.5"
       r="2.5" />
    <radialGradient
       inkscape:collect="always"
       xlink:href="#u"
       id="radialGradient3105"
       gradientUnits="userSpaceOnUse"
       gradientTransform="matrix(2.0038,0,0,1.4,-20.012,-104.4)"
       cx="4.993"
       cy="43.5"
       r="2.5" />
    <linearGradient
       inkscape:collect="always"
       xlink:href="#ah"
       id="linearGradient3107"
       gradientUnits="userSpaceOnUse"
       x1="25.058"
       y1="47.028"
       x2="25.058"
       y2="39.999" />
    <linearGradient
       inkscape:collect="always"
       xlink:href="#ag"
       id="linearGradient3124"
       gradientUnits="userSpaceOnUse"
       gradientTransform="matrix(0.02819788,0.98656482,-0.85977274,0.03235599,37.224879,5.4657377)"
       x1="33.396"
       y1="36.921"
       x2="34.17"
       y2="38.07" />
    <radialGradient
       inkscape:collect="always"
       xlink:href="#s"
       id="radialGradient3127"
       gradientUnits="userSpaceOnUse"
       gradientTransform="matrix(-0.12762588,-0.0110669,0.00950082,-0.17806208,15.297979,36.777616)"
       cx="30.654"
       cy="14.937"
       r="86.708" />
    <radialGradient
       inkscape:collect="always"
       xlink:href="#t"
       id="radialGradient3129"
       gradientUnits="userSpaceOnUse"
       gradientTransform="matrix(-0.28537222,0,0,-0.38803366,19.563381,40.325012)"
       cx="31.863"
       cy="2.3667"
       r="37.752" />
    <radialGradient
       inkscape:collect="always"
       xlink:href="#y"
       id="radialGradient3133"
       gradientUnits="userSpaceOnUse"
       gradientTransform="matrix(-1.5007703,0,0,-1.4079677,59.773728,54.599817)"
       cx="37.03"
       cy="12.989"
       r="4.2929" />
    <radialGradient
       inkscape:collect="always"
       xlink:href="#z"
       id="radialGradient3136"
       gradientUnits="userSpaceOnUse"
       gradientTransform="matrix(-1.274788,0,0,-1.1307317,51.172535,49.737187)"
       cx="8.1436"
       cy="7.2679"
       r="38.159" />
    <radialGradient
       inkscape:collect="always"
       xlink:href="#s"
       id="radialGradient3139"
       gradientUnits="userSpaceOnUse"
       gradientTransform="matrix(-1.2487334,0,0,-1.1567059,55.162682,50.881658)"
       cx="33.967"
       cy="35.737"
       r="86.708" />
    <radialGradient
       inkscape:collect="always"
       xlink:href="#t"
       id="radialGradient3141"
       gradientUnits="userSpaceOnUse"
       gradientTransform="matrix(-1.258819,0,0,-1.1474755,50.802726,50.163398)"
       cx="8.8244"
       cy="3.7561"
       r="37.752" />
  </defs>
  <path
     id="path102"
     display="block"
     d="m 45.083305,46.830278 -35.080308,0.01736 c 0,0 -8.7671883,-10.603441 -8.7671883,-11.310537 l 0,-32.8937234 c 0,-0.7072568 0.6662752,-1.2765948 1.4938371,-1.2765948 l 42.3535542,0 c 0.827614,0 1.493837,0.569381 1.493837,1.2765948 l 0,42.9109224 c 0,0.707258 -0.666276,1.276595 -1.493837,1.276595 z"
     style="color:#000000;fill:url(#radialGradient3139);stroke:url(#radialGradient3141);stroke-width:1.25409198;stroke-linecap:round;stroke-linejoin:round;display:block" />
  <path
     id="path104"
     display="block"
     d="M 45.298676,45.426335 9.8569642,45.363527 c 0,0 -7.514672,-8.719138 -7.514672,-8.809511 l 0,-33.6031808 c 0,-0.090401 0.087513,-0.163186 0.1962297,-0.163186 l 42.7601331,0 c 0.108716,0 0.19623,0.072779 0.19623,0.163186 l 0,42.3130888 c 0,0.09041 -0.08753,0.163176 -0.19623,0.163176 z"
     style="color:#000000;fill:none;stroke:url(#radialGradient3136);stroke-width:1.25409198;stroke-linecap:round;stroke-linejoin:round;display:block" />
  <path
     id="path106"
     d="m 1.6507928,35.584096 c 0.6265731,1.476767 5.2500172,4.091027 7.6566071,4.967921 -0.1458216,-1.725023 0.1056166,-6.928644 0.1056166,-6.928644 -1.7742398,1.507893 -7.0906544,2.13857 -7.7621924,1.96083 z"
     style="opacity:0.35713998;color:#000000;fill:url(#radialGradient3133);fill-rule:evenodd" />
  <path
     style="fill:none;stroke:#a4a4a4;stroke-width:1.25409198px"
     id="path108"
     d="M 43.119749,42.590018 7.7074544,42.577085 4.5201691,37.005105 4.5079766,5.5871825 l 38.7405694,0 -0.128477,37.0034255 z" />
  <path
     id="path110"
     display="block"
     d="m 1.2410616,35.766343 c -0.011346,1.551899 5.4647582,11.193547 8.8046944,11.08085 -0.8370483,-0.255512 -1.5057075,-6.764212 -0.3102395,-9.848476 -2.3656171,0 -7.6652223,0.805959 -8.4944549,-1.231837 z"
     style="color:#000000;fill:url(#radialGradient3127);stroke:url(#radialGradient3129);stroke-width:1.25409198;stroke-linejoin:round;display:block" />
  <path
     id="path112"
     d="m 2.9640327,38.51026 c 0.626562,1.329294 3.5773697,5.004092 5.2312107,6.225196 -0.2055483,-1.40743 -0.4619974,-3.634871 0.067552,-6.164231 0,0 -4.6272258,0.09905 -5.2988696,-0.06098 z"
     style="color:#000000;fill:none;stroke:url(#linearGradient3124);stroke-width:1.25409198" />
  <g
     style="fill:none;stroke:#888a85"
     id="g114"
     transform="matrix(1.0978301,0,0,1.3818105,-12.233017,-8.0605197)">
    <path
       id="path116"
       d="m 23.5,25.504 v 3.9928"
       style="color:#000000;stroke-linecap:square" />
    <path
       id="path118"
       d="m 25.5,25.5 -2,2"
       style="color:#000000;stroke-linecap:round" />
    <path
       id="path120"
       d="m 25.5,29.5 -2,-2"
       style="color:#000000;stroke-linecap:round" />
    <path
       id="path122"
       d="M 23.337,27.5 H 19.492"
       style="color:#000000;stroke-linecap:square" />
    <path
       id="path124"
       d="m 25.5,29.522 v 2.6654"
       style="color:#000000;stroke-linecap:round" />
    <path
       id="path126"
       d="M 26.5,32.472 H 24.522"
       style="color:#000000;stroke-linecap:square" />
    <path
       id="path128"
       d="M 25.507,25.461 V 21.476"
       style="color:#000000;stroke-linecap:round" />
    <path
       id="path130"
       d="m 26.492,21.472 h -2 v -4 h 2 v 4"
       style="color:#000000;stroke-linecap:square" />
    <path
       id="path132"
       d="m 25.839,24.5 h 5.5003"
       style="color:#000000;stroke-linecap:square" />
    <path
       id="path134"
       d="m 25.484,13.472 v 3.8653"
       style="color:#000000;stroke-linecap:square" />
    <path
       id="path136"
       d="m 19.484,20.472 h 2.0397"
       style="color:#000000;stroke-linecap:square" />
    <path
       id="path138"
       d="m 19.484,18.472 h 2.0397"
       style="color:#000000;stroke-linecap:square" />
    <path
       id="path140"
       d="m 33.538,22.494 v 3.9928"
       style="color:#000000;stroke-linecap:square" />
    <path
       id="path142"
       d="m 35.538,22.49 -2,2"
       style="color:#000000;stroke-linecap:round" />
    <path
       id="path144"
       d="m 35.538,26.49 -2,-2"
       style="color:#000000;stroke-linecap:round" />
    <path
       id="path146"
       d="M 33.545,24.49 H 29.7"
       style="color:#000000;stroke-linecap:square" />
    <path
       id="path148"
       d="m 35.545,26.487 v 3.0033"
       style="color:#000000;stroke-linecap:round" />
    <path
       id="path150"
       d="m 35.559,31.796 v -2.26"
       style="color:#000000;stroke-linecap:square" />
    <path
       id="path152"
       d="M 36.492,32.472 H 34.514"
       style="color:#000000;stroke-linecap:square" />
    <path
       id="path154"
       d="M 35.545,22.522 V 19.484"
       style="color:#000000;stroke-linecap:round" />
    <path
       id="path156"
       d="M 42.468,19.472 H 35.546"
       style="color:#000000;stroke-linecap:square" />
    <path
       id="path158"
       d="m 38.452,24.472 h 2.0397"
       style="color:#000000;stroke-linecap:square" />
    <path
       id="path160"
       d="m 38.452,22.472 h 2.0397"
       style="color:#000000;stroke-linecap:square" />
    <path
       style="stroke-width:1px"
       id="path162"
       d="m 42.492,18.504 3.9539,-0.02344 1.0461,1.0234 -1.0362,0.96875 -3.9638,-0.03125 v -1.9375 z" />
  </g>
  <g
     id="g3083"
     transform="matrix(0.99975898,0,0,1.0179629,0.00576186,0.18808988)">
    <path
       d="m 30.029497,41.234797 0,-8.314318 13.451974,0"
       id="path164"
       style="fill:none;stroke:#a4a4a4;stroke-width:1.22094429px" />
    <path
       d="m 31.739405,35.635743 3.294285,0"
       id="path166"
       style="fill:none;stroke:#555753;stroke-width:1.22094429px" />
    <path
       d="m 36.6189,35.635743 5.010031,0"
       id="path168"
       style="fill:none;stroke:#555753;stroke-width:1.22094429px" />
    <path
       d="m 31.676848,38.351213 4.392379,0"
       id="path170"
       style="fill:none;stroke:#555753;stroke-width:1.22094429px" />
    <path
       d="m 37.713658,38.351213 2.19619,0"
       id="path172"
       style="fill:none;stroke:#555753;stroke-width:1.22094429px" />
  </g>
  <g
     transform="matrix(3.7204236,0,0,3.6696673,-7.1211004,23.294222)"
     id="g78">
    <path
       style="fill:#afaf00"
       d="M 12,5.5 9.4826,4.1505 6.9438,5.4592 7.4494,2.648 5.4202,0.6379 8.25,0.25 9.5347,-2.301 10.778,0.2704 13.601,0.70392 11.54,2.68102 z"
       transform="matrix(0.86499,0,0,0.86499,3.3638,-4.5167)"
       id="path80" />
    <path
       style="fill:#ebeb00"
       d="M 12,5.5 9.4826,4.1505 6.9438,5.4592 7.4494,2.648 5.4202,0.6379 8.25,0.25 9.5347,-2.301 10.778,0.2704 13.601,0.70392 11.54,2.68102 z"
       transform="matrix(0.61624,0,0,0.61624,5.7296,-4.1188)"
       id="path82" />
    <path
       style="fill:#ffff00"
       d="M 12,5.5 9.4826,4.1505 6.9438,5.4592 7.4494,2.648 5.4202,0.6379 8.25,0.25 9.5347,-2.301 10.778,0.2704 13.601,0.70392 11.54,2.68102 z"
       transform="matrix(0.3815,0,0,0.3815,7.9622,-3.7434)"
       id="path84" />
  </g>
</svg>
