<?xml version="1.0" encoding="UTF-8" standalone="no"?>
<svg
   xmlns:dc="http://purl.org/dc/elements/1.1/"
   xmlns:cc="http://creativecommons.org/ns#"
   xmlns:rdf="http://www.w3.org/1999/02/22-rdf-syntax-ns#"
   xmlns:svg="http://www.w3.org/2000/svg"
   xmlns="http://www.w3.org/2000/svg"
   xmlns:sodipodi="http://sodipodi.sourceforge.net/DTD/sodipodi-0.dtd"
   xmlns:inkscape="http://www.inkscape.org/namespaces/inkscape"
   height="48"
   width="48"
   version="1.1"
   viewBox="0 0 48 48"
   id="svg2"
   inkscape:version="0.47 r22583"
   sodipodi:docname="new_module.svg">
  <metadata
     id="metadata69">
    <rdf:RDF>
      <cc:Work
         rdf:about="">
        <dc:format>image/svg+xml</dc:format>
        <dc:type
           rdf:resource="http://purl.org/dc/dcmitype/StillImage" />
      </cc:Work>
    </rdf:RDF>
  </metadata>
  <sodipodi:namedview
     pagecolor="#ffffff"
     bordercolor="#666666"
     borderopacity="1"
     objecttolerance="10"
     gridtolerance="10"
     guidetolerance="10"
     inkscape:pageopacity="0"
     inkscape:pageshadow="2"
     inkscape:window-width="640"
     inkscape:window-height="495"
     id="namedview67"
     showgrid="false"
     inkscape:zoom="4.9166667"
     inkscape:cx="24"
     inkscape:cy="23.59322"
     inkscape:window-x="0"
     inkscape:window-y="25"
     inkscape:window-maximized="0"
     inkscape:current-layer="svg2" />
  <defs
     id="defs4">
    <radialGradient
       id="a"
       gradientUnits="userSpaceOnUse"
       cy="115.71"
       cx="63.912"
       gradientTransform="matrix(1.0014 0 0 .081174 28.49 150.31)"
       r="63.912">
      <stop
         offset="0"
         id="stop7" />
      <stop
         stop-opacity="0"
         offset="1"
         id="stop9" />
    </radialGradient>
  </defs>
  <g
     transform="matrix(0,-2.848,2.44,0,1.8736,51.304)"
     id="g11">
    <rect
       fill-opacity="0"
       height="16"
       width="16"
       y="0"
       x="0"
       id="rect13" />
  </g>
  <g
     transform="translate(-2.4,1.35)"
     id="g15">
    <g
       transform="matrix(0 -2.3465 2.3387 0 5.4368 -.91471)"
       id="g17">
      <g
         stroke-linejoin="round"
         id="g19">
        <rect
           transform="rotate(90)"
           height="14.619"
           width="9.7086"
           stroke="#000"
           y="3.4905"
           x="1.904"
           stroke-width="0.4"
           fill="#fff"
           id="rect21" />
        <path
           d="m693.26 625.06a18.914 18.914 0 0 1 -37.828 0.11702"
           transform="matrix(0 .071482 -.071482 0 41.168 -41.24)"
           stroke="#030303"
           stroke-width="5.5958"
           fill="none"
           id="path23" />
      </g>
      <g
         stroke-linejoin="round"
         transform="translate(-.0375 -.15)"
         stroke="#030303"
         id="g25">
        <rect
           transform="rotate(90)"
           height="2.511"
           width="4.7176"
           y="13.332"
           x="-.31959"
           stroke-width="0.3"
           fill="#ff7800"
           id="rect27" />
        <rect
           transform="rotate(90)"
           height="2.511"
           width="4.7176"
           y="5.3636"
           x="-.31959"
           stroke-width="0.3"
           fill="#ff7800"
           id="rect29" />
        <path
           d="m654.65 737.28a9.5805 9.5805 0 1 1 -19.161 0 9.5805 9.5805 0 1 1 19.161 0z"
           transform="matrix(0 .071482 -.071482 0 46.083 -44.072)"
           stroke-width="4.1969"
           fill="#ffede0"
           id="path31" />
        <rect
           transform="rotate(90)"
           height="2.511"
           width="4.7176"
           y="9.3478"
           x="-.31959"
           stroke-width="0.3"
           fill="#ff7800"
           id="rect33" />
        <path
           d="m654.65 737.28a9.5805 9.5805 0 1 1 -19.161 0 9.5805 9.5805 0 1 1 19.161 0z"
           transform="matrix(0 .071482 -.071482 0 42.08 -44.072)"
           stroke-width="4.1969"
           fill="#ffede0"
           id="path35" />
        <path
           d="m654.65 737.28a9.5805 9.5805 0 1 1 -19.161 0 9.5805 9.5805 0 1 1 19.161 0z"
           transform="matrix(0 .071482 -.071482 0 38.077 -44.072)"
           stroke-width="4.1969"
           fill="#ffede0"
           id="path37" />
      </g>
      <g
         transform="translate(-.0375 9.6261)"
         id="g39">
        <rect
           stroke-linejoin="round"
           transform="rotate(90)"
           height="2.511"
           width="4.7176"
           stroke="#030303"
           y="13.332"
           x="-.31959"
           stroke-width="0.3"
           fill="#ff7800"
           id="rect41" />
        <rect
           stroke-linejoin="round"
           transform="rotate(90)"
           height="2.511"
           width="4.7176"
           stroke="#030303"
           y="5.3636"
           x="-.31959"
           stroke-width="0.3"
           fill="#ff7800"
           id="rect43" />
        <path
           stroke-linejoin="round"
           d="m654.65 737.28a9.5805 9.5805 0 1 1 -19.161 0 9.5805 9.5805 0 1 1 19.161 0z"
           transform="matrix(0 .071482 -.071482 0 46.083 -44.072)"
           stroke="#030303"
           stroke-width="4.1969"
           fill="#ffede0"
           id="path45" />
        <rect
           stroke-linejoin="round"
           transform="rotate(90)"
           height="2.511"
           width="4.7176"
           stroke="#030303"
           y="9.3478"
           x="-.31959"
           stroke-width="0.3"
           fill="#ff7800"
           id="rect47" />
        <path
           stroke-linejoin="round"
           d="m654.65 737.28a9.5805 9.5805 0 1 1 -19.161 0 9.5805 9.5805 0 1 1 19.161 0z"
           transform="matrix(0 .071482 -.071482 0 42.08 -44.072)"
           stroke="#030303"
           stroke-width="4.1969"
           fill="#ffede0"
           id="path49" />
        <g
           stroke-width="0.3"
           id="g51">
          <path
             stroke-linejoin="round"
             d="m654.65 737.28a9.5805 9.5805 0 1 1 -19.161 0 9.5805 9.5805 0 1 1 19.161 0z"
             transform="matrix(0 .071482 -.071482 0 38.077 -44.072)"
             stroke="#030303"
             stroke-width="4.1969"
             fill="#ffede0"
             id="path53" />
        </g>
      </g>
    </g>
    <path
       opacity=".58594"
       fill="#bc2b25"
       d="m11.015 40.277h20.445l-0.000034-31.96h-6.815l-1.7038 2.9055h-3.4075l-1.7038-2.9055h-6.815v31.96z"
       id="path55" />
  </g>
  <path
     opacity=".38140"
     fill="url(#a)"
     d="m156.49 159.7a64 5.188 0 0 1 -128 0 64 5.188 0 1 1 128 0z"
     id="path57" />
  <g
     transform="matrix(4.1044353,0,0,3.5011085,-12.334932,22.137836)"
     id="g59">
    <path
       d="M 12,5.5 9.4826,4.1505 6.9438,5.4592 7.4494,2.648 5.4202,0.6379 8.25,0.25 9.5347,-2.301 10.778,0.2704 13.601,0.70392 11.54,2.68102 z"
       transform="matrix(0.86499,0,0,0.86499,3.3638,-4.5167)"
       id="path61"
       style="fill:#afaf00" />
    <path
       d="M 12,5.5 9.4826,4.1505 6.9438,5.4592 7.4494,2.648 5.4202,0.6379 8.25,0.25 9.5347,-2.301 10.778,0.2704 13.601,0.70392 11.54,2.68102 z"
       transform="matrix(0.61624,0,0,0.61624,5.7296,-4.1188)"
       id="path63"
       style="fill:#ebeb00" />
    <path
       d="M 12,5.5 9.4826,4.1505 6.9438,5.4592 7.4494,2.648 5.4202,0.6379 8.25,0.25 9.5347,-2.301 10.778,0.2704 13.601,0.70392 11.54,2.68102 z"
       transform="matrix(0.3815,0,0,0.3815,7.9622,-3.7434)"
       id="path65"
       style="fill:#ffff00" />
  </g>
</svg>
