<?xml version="1.0" encoding="UTF-8" standalone="no"?>
<svg
   xmlns:dc="http://purl.org/dc/elements/1.1/"
   xmlns:cc="http://creativecommons.org/ns#"
   xmlns:rdf="http://www.w3.org/1999/02/22-rdf-syntax-ns#"
   xmlns:svg="http://www.w3.org/2000/svg"
   xmlns="http://www.w3.org/2000/svg"
   xmlns:sodipodi="http://sodipodi.sourceforge.net/DTD/sodipodi-0.dtd"
   xmlns:inkscape="http://www.inkscape.org/namespaces/inkscape"
   height="48"
   width="48"
   version="1.0"
   id="svg2"
   inkscape:version="0.47 r22583"
   sodipodi:docname="new_footprint.svg">
  <metadata
     id="metadata28">
    <rdf:RDF>
      <cc:Work
         rdf:about="">
        <dc:format>image/svg+xml</dc:format>
        <dc:type
           rdf:resource="http://purl.org/dc/dcmitype/StillImage" />
      </cc:Work>
    </rdf:RDF>
  </metadata>
  <sodipodi:namedview
     pagecolor="#ffffff"
     bordercolor="#666666"
     borderopacity="1"
     objecttolerance="10"
     gridtolerance="10"
     guidetolerance="10"
     inkscape:pageopacity="0"
     inkscape:pageshadow="2"
     inkscape:window-width="1280"
     inkscape:window-height="949"
     id="namedview26"
     showgrid="false"
     inkscape:zoom="4.9166667"
     inkscape:cx="24"
     inkscape:cy="39.864407"
     inkscape:window-x="0"
     inkscape:window-y="25"
     inkscape:window-maximized="1"
     inkscape:current-layer="svg2" />
  <defs
     id="defs4">
    <inkscape:perspective
       sodipodi:type="inkscape:persp3d"
       inkscape:vp_x="0 : 24 : 1"
       inkscape:vp_y="0 : 1000 : 0"
       inkscape:vp_z="48 : 24 : 1"
       inkscape:persp3d-origin="24 : 16 : 1"
       id="perspective30" />
    <radialGradient
       id="d"
       gradientUnits="userSpaceOnUse"
       cy="9.3411"
       cx="38.659"
       r="8.3417">
      <stop
         stop-color="#fff"
         offset="0"
         id="stop7" />
      <stop
         stop-color="#fefede"
         stop-opacity=".91837"
         offset=".25"
         id="stop9" />
      <stop
         stop-color="#f5f328"
         offset=".5"
         id="stop11" />
      <stop
         stop-color="#f5f32d"
         stop-opacity=".12234"
         offset="1"
         id="stop13" />
    </radialGradient>
    <mask
       id="c">
      <path
         d="m-39.987 49.061-3.7123-2.2274-8.061-0.74246 0.21213-36.699 37.866 0.42426 3.7123 2.4395-1.0607 33.305-8.1671 1.4849-2.5456 2.1213z"
         stroke="#000"
         stroke-width="1px"
         fill="#fff"
         id="path16" />
    </mask>
    <inkscape:perspective
       id="perspective2916"
       inkscape:persp3d-origin="0.5 : 0.33333333 : 1"
       inkscape:vp_z="1 : 0.5 : 1"
       inkscape:vp_y="0 : 1000 : 0"
       inkscape:vp_x="0 : 0.5 : 1"
       sodipodi:type="inkscape:persp3d" />
    <linearGradient
       id="h"
       y2="14.691"
       gradientUnits="userSpaceOnUse"
       x2="30.431999"
       gradientTransform="translate(6.3922,12.185)"
       y1="12.338"
       x1="28.079">
      <stop
         stop-color="#fcaf3e"
         offset="0"
         id="stop7-3" />
      <stop
         stop-color="#ce5c00"
         offset="1"
         id="stop9-9" />
    </linearGradient>
    <linearGradient
       id="i"
       y2="22.118999"
       gradientUnits="userSpaceOnUse"
       x2="22.809999"
       gradientTransform="translate(6.3922,12.185)"
       y1="21.481001"
       x1="23.448">
      <stop
         stop-color="#ce5c00"
         offset="0"
         id="stop12" />
      <stop
         stop-color="#ce5c00"
         offset="1"
         id="stop14" />
    </linearGradient>
    <linearGradient
       id="j"
       y2="32.714001"
       gradientUnits="userSpaceOnUse"
       x2="25.485001"
       y1="34.389999"
       x1="26.379">
      <stop
         stop-color="#e9b96e"
         offset="0"
         id="stop17" />
      <stop
         stop-color="#fff"
         offset="1"
         id="stop19" />
    </linearGradient>
    <radialGradient
       id="l"
       gradientUnits="userSpaceOnUse"
       cy="128"
       cx="-138.84"
       gradientTransform="matrix(0.35473,-0.34328,0.35696,0.34544,130.15,-71.026)"
       r="9.1267004">
      <stop
         stop-color="#f9a9a9"
         offset="0"
         id="stop22" />
      <stop
         stop-color="#ab5f5f"
         offset="1"
         id="stop24" />
    </radialGradient>
    <linearGradient
       id="k"
       y2="134.25"
       gradientUnits="userSpaceOnUse"
       x2="-158.75"
       gradientTransform="matrix(0.20949,-0.20274,0.20949,0.20274,129.28,-31.999)"
       y1="115.94"
       x1="-158.75">
      <stop
         stop-color="#ddd"
         offset="0"
         id="stop27" />
      <stop
         stop-color="#fff"
         offset=".34468"
         id="stop29" />
      <stop
         stop-color="#737373"
         offset=".72695"
         id="stop31" />
      <stop
         stop-color="#bbb"
         offset="1"
         id="stop33" />
    </linearGradient>
    <linearGradient
       id="g"
       y2="-20.465"
       gradientUnits="userSpaceOnUse"
       x2="253.64999"
       gradientTransform="matrix(0.076209,0,0,0.0837,-39.668472,-30.421641)"
       y1="-3.7385001"
       x1="-15.36">
      <stop
         stop-color="#faff00"
         offset="0"
         id="stop36" />
      <stop
         stop-color="#0bae09"
         offset="1"
         id="stop38" />
    </linearGradient>
  </defs>
  <g
     transform="matrix(-2.8288,0,0,-2.4916,-6.7442013,42.554748)"
     id="g40">
    <g
       style="stroke-linejoin:round"
       id="g42">
      <rect
         style="fill:#ffffff;stroke:#000000;stroke-width:0.40000001"
         transform="matrix(0,1,-1,0,0,0)"
         height="14.619"
         width="9.7086"
         y="3.4905"
         x="1.904"
         id="rect44" />
      <path
         style="fill:none;stroke:#030303;stroke-width:5.59579992"
         d="m 693.26,625.06 a 18.91409,18.91409 0 0 1 -37.828,0.11702"
         transform="matrix(0,0.071482,-0.071482,0,41.168,-41.24)"
         id="path46" />
    </g>
    <g
       style="stroke:#030303;stroke-linejoin:round"
       transform="translate(-0.0375,-0.15)"
       id="g48">
      <rect
         style="fill:#ff7800;stroke-width:0.30000001"
         transform="matrix(0,1,-1,0,0,0)"
         height="2.5109999"
         width="4.7175999"
         y="13.332"
         x="-0.31959"
         id="rect50" />
      <rect
         style="fill:#ff7800;stroke-width:0.30000001"
         transform="matrix(0,1,-1,0,0,0)"
         height="2.5109999"
         width="4.7175999"
         y="5.3635998"
         x="-0.31959"
         id="rect52" />
      <path
         style="fill:#ffede0;stroke-width:4.19689989"
         d="m 654.65,737.28 a 9.5805,9.5805 0 1 1 -19.161,0 9.5805,9.5805 0 1 1 19.161,0 z"
         transform="matrix(0,0.071482,-0.071482,0,46.083,-44.072)"
         id="path54" />
      <rect
         style="fill:#ff7800;stroke-width:0.30000001"
         transform="matrix(0,1,-1,0,0,0)"
         height="2.5109999"
         width="4.7175999"
         y="9.3478003"
         x="-0.31959"
         id="rect56" />
      <path
         style="fill:#ffede0;stroke-width:4.19689989"
         d="m 654.65,737.28 a 9.5805,9.5805 0 1 1 -19.161,0 9.5805,9.5805 0 1 1 19.161,0 z"
         transform="matrix(0,0.071482,-0.071482,0,42.08,-44.072)"
         id="path58" />
      <path
         style="fill:#ffede0;stroke-width:4.19689989"
         d="m 654.65,737.28 a 9.5805,9.5805 0 1 1 -19.161,0 9.5805,9.5805 0 1 1 19.161,0 z"
         transform="matrix(0,0.071482,-0.071482,0,38.077,-44.072)"
         id="path60" />
    </g>
    <g
       transform="translate(-0.0375,9.6261)"
       id="g62">
      <rect
         style="fill:#ff7800;stroke:#030303;stroke-width:0.30000001;stroke-linejoin:round"
         transform="matrix(0,1,-1,0,0,0)"
         height="2.5109999"
         width="4.7175999"
         y="13.332"
         x="-0.31959"
         id="rect64" />
      <rect
         style="fill:#ff7800;stroke:#030303;stroke-width:0.30000001;stroke-linejoin:round"
         transform="matrix(0,1,-1,0,0,0)"
         height="2.5109999"
         width="4.7175999"
         y="5.3635998"
         x="-0.31959"
         id="rect66" />
      <path
         style="fill:#ffede0;stroke:#030303;stroke-width:4.19689989;stroke-linejoin:round"
         d="m 654.65,737.28 a 9.5805,9.5805 0 1 1 -19.161,0 9.5805,9.5805 0 1 1 19.161,0 z"
         transform="matrix(0,0.071482,-0.071482,0,46.083,-44.072)"
         id="path68" />
      <rect
         style="fill:#ff7800;stroke:#030303;stroke-width:0.30000001;stroke-linejoin:round"
         transform="matrix(0,1,-1,0,0,0)"
         height="2.5109999"
         width="4.7175999"
         y="9.3478003"
         x="-0.31959"
         id="rect70" />
      <path
         style="fill:#ffede0;stroke:#030303;stroke-width:4.19689989;stroke-linejoin:round"
         d="m 654.65,737.28 a 9.5805,9.5805 0 1 1 -19.161,0 9.5805,9.5805 0 1 1 19.161,0 z"
         transform="matrix(0,0.071482,-0.071482,0,42.08,-44.072)"
         id="path72" />
      <g
         style="stroke-width:0.30000001"
         id="g74">
        <path
           style="fill:#ffede0;stroke:#030303;stroke-width:4.19689989;stroke-linejoin:round"
           d="m 654.65,737.28 a 9.5805,9.5805 0 1 1 -19.161,0 9.5805,9.5805 0 1 1 19.161,0 z"
           transform="matrix(0,0.071482,-0.071482,0,38.077,-44.072)"
           id="path76" />
      </g>
    </g>
  </g>
  <g
     transform="matrix(1.4431,0,0,1.417,-16.547101,-3.921288)"
     id="g20"
     style="fill-rule:evenodd">
    <path
       d="m 47.001,9.3411 a 8.3417,8.3417 0 1 1 -16.683,0 8.3417,8.3417 0 1 1 16.683,0 z"
       transform="matrix(1.1498,0,0,1.1498,-7.5953,0.4909)"
       id="path22"
       style="fill:url(#d)" />
    <path
       style="color:#000000;fill:#ffffff"
       d="m 44.52,15.503 c -0.50717,0.87845 -4.5947,-0.16082 -5.5214,0.25175 -0.92665,0.41257 -2.8894,4.1456 -3.8816,3.9347 -0.99218,-0.21089 -1.2669,-4.4195 -1.9456,-5.1733 -0.67873,-0.7538 -4.8356,-1.4669 -4.9416,-2.4757 -0.10603,-1.0088 3.8117,-2.5706 4.3189,-3.449 0.50717,-0.87845 -0.09914,-5.0522 0.82751,-5.4648 0.92665,-0.41257 3.6227,2.8308 4.6148,3.0417 0.99218,0.21089 4.7743,-1.6555 5.453,-0.90171 0.67873,0.7538 -1.5728,4.3201 -1.4668,5.3289 0.10603,1.0088 3.0498,4.0291 2.5427,4.9075 z"
       transform="matrix(0.67412,0.29958,-0.29958,0.67412,15.464,-7.1925)"
       id="path24" />
  </g>
</svg>
