<?xml version="1.0" encoding="UTF-8" standalone="no"?>
<svg
   xmlns:dc="http://purl.org/dc/elements/1.1/"
   xmlns:cc="http://creativecommons.org/ns#"
   xmlns:rdf="http://www.w3.org/1999/02/22-rdf-syntax-ns#"
   xmlns:svg="http://www.w3.org/2000/svg"
   xmlns="http://www.w3.org/2000/svg"
   xmlns:sodipodi="http://sodipodi.sourceforge.net/DTD/sodipodi-0.dtd"
   xmlns:inkscape="http://www.inkscape.org/namespaces/inkscape"
   id="Слой_1"
   data-name="Слой 1"
   viewBox="0 0 24 24"
   version="1.1"
   sodipodi:docname="new_project_with_template.svg"
   inkscape:version="1.0.1 (3bc2e813f5, 2020-09-07)">
  <sodipodi:namedview
     pagecolor="#ffffff"
     bordercolor="#666666"
     borderopacity="1"
     objecttolerance="10"
     gridtolerance="10"
     guidetolerance="10"
     inkscape:pageopacity="0"
     inkscape:pageshadow="2"
     inkscape:window-width="2085"
     inkscape:window-height="1526"
     id="namedview30"
     showgrid="true"
     inkscape:zoom="39.543586"
     inkscape:cx="16.622225"
     inkscape:cy="10.721344"
     inkscape:window-x="0"
     inkscape:window-y="37"
     inkscape:window-maximized="0"
     inkscape:document-rotation="0"
     inkscape:current-layer="Слой_1">
    <inkscape:grid
       type="xygrid"
       id="grid_kicad"
       spacingx="0.5"
       spacingy="0.5"
       color="#9999ff"
       opacity="0.13"
       empspacing="2" />
  </sodipodi:namedview>
  <metadata
     id="metadata43">
    <rdf:RDF>
      <cc:Work
         rdf:about="">
        <cc:license
           rdf:resource="http://creativecommons.org/licenses/by-sa/4.0/" />
        <dc:format>image/svg+xml</dc:format>
        <dc:type
           rdf:resource="http://purl.org/dc/dcmitype/StillImage" />
        <dc:title>add_arc</dc:title>
      </cc:Work>
      <cc:License
         rdf:about="http://creativecommons.org/licenses/by-sa/4.0/">
        <cc:permits
           rdf:resource="http://creativecommons.org/ns#Reproduction" />
        <cc:permits
           rdf:resource="http://creativecommons.org/ns#Distribution" />
        <cc:requires
           rdf:resource="http://creativecommons.org/ns#Notice" />
        <cc:requires
           rdf:resource="http://creativecommons.org/ns#Attribution" />
        <cc:permits
           rdf:resource="http://creativecommons.org/ns#DerivativeWorks" />
        <cc:requires
           rdf:resource="http://creativecommons.org/ns#ShareAlike" />
      </cc:License>
    </rdf:RDF>
  </metadata>
  <defs
     id="defs25945">
    <style
       id="style25943">.cls-1{fill:#d8d8d8;}.cls-2{fill:#545454;}.cls-3{fill:#1a81c4;}.cls-4{fill:#ededed;}.cls-5{fill:#b9b9b9;}.cls-6{fill:none;stroke:#e61c50;stroke-linecap:round;stroke-linejoin:round;stroke-width:2px;}</style>
  </defs>
  <title
     id="title25947">new_project_with_template</title>
  <polygon
     class="cls-1"
     points="13.049,1.017 1.017,1.017 1.017,17.026 17.027,17.026 17.027,5.017 13.049,5.017 "
     id="polygon25949"
     transform="translate(-1,-1)" />
  <path
     class="cls-2"
     d="m 8.838,1.7147 h 4.6689 a 0.429,0.429 0 0 1 0.4289,0.4288 v 12.0738 a 0.429,0.429 0 0 1 -0.4289,0.4288 H 8.838 A 0.429,0.429 0 0 1 8.4092,14.2173 V 2.1435 A 0.429,0.429 0 0 1 8.838,1.7147 Z m 4.24,0.8576 H 9.2668 v 11.2162 h 3.8113 z"
     id="path25951" />
  <path
     class="cls-2"
     d="m 2.331,6.4629 h 6.507 a 0.4289,0.4289 0 0 1 0.4288,0.4288 v 7.3256 A 0.4289,0.4289 0 0 1 8.838,14.6461 H 2.331 A 0.429,0.429 0 0 1 1.9022,14.2173 V 6.8917 A 0.429,0.429 0 0 1 2.331,6.4629 Z M 8.4092,7.3205 H 2.76 v 6.468 h 5.6492 z"
     id="path25953" />
  <path
     class="cls-2"
     d="M 2.331,1.7125 H 8.838 A 0.4288,0.4288 0 0 1 9.2668,2.1413 V 6.8582 A 0.4288,0.4288 0 0 1 8.838,7.287 H 2.331 A 0.4289,0.4289 0 0 1 1.9022,6.8582 V 2.1413 A 0.4289,0.4289 0 0 1 2.331,1.7125 Z M 8.4092,2.57 H 2.76 v 3.8594 h 5.6492 z"
     id="path25955" />
  <polygon
     class="cls-3"
     points="17.027,5.017 13.049,1.017 13.049,5.017 "
     id="polygon25957"
     transform="translate(-1,-1)" />
  <rect
     class="cls-4"
     x="11"
     y="9"
     width="13.066299"
     height="15.007999"
     id="rect25959" />
  <rect
     class="cls-1"
     x="10"
     y="8"
     width="13"
     height="16"
     id="rect25961"
     ry="0.023177056" />
  <rect
     class="cls-5"
     x="8"
     y="7"
     width="14"
     height="17"
     id="rect25963" />
  <path
     class="cls-3"
     d="M 9.143887,9.9999395 H 7.356113 a 0.84678076,1 0 1 1 0,-1.9998786 h 1.787774 a 0.84678076,1 0 1 1 0,1.9998786 z"
     id="path25965"
     style="stroke-width:1" />
  <path
     class="cls-2"
     d="m 16.0689,12.3269 h -3.593 a 0.4117,0.4117 0 0 1 0,-0.8233 h 3.593 a 0.4117,0.4117 0 0 1 0,0.8233 z"
     id="path25973" />
  <path
     class="cls-2"
     d="m 20.0092,14.2589 h -7.5333 a 0.4117,0.4117 0 0 1 0,-0.8233 h 7.5333 a 0.4117,0.4117 0 1 1 0,0.8233 z"
     id="path25975" />
  <path
     class="cls-2"
     d="m 20.0092,16.1908 h -7.5333 a 0.4116,0.4116 0 0 1 0,-0.8232 h 7.5333 a 0.4116,0.4116 0 1 1 0,0.8232 z"
     id="path25977" />
  <path
     class="cls-3"
     d="M 9,14 H 7.212226 a 0.84678076,1 0 1 1 0,-1.999879 H 9 A 0.84678076,1 0 1 1 9,14 Z"
     id="path849"
     style="stroke-width:1" />
  <path
     class="cls-3"
     d="M 9,18 H 7.212226 a 0.84678076,1 0 1 1 0,-1.999879 H 9 A 0.84678076,1 0 1 1 9,18 Z"
     id="path851"
     style="stroke-width:1" />
  <path
     class="cls-3"
     d="M 8.856113,22.00006 H 7.068339 a 0.84678076,1 0 1 1 0,-1.999879 h 1.787774 a 0.84678076,1 0 1 1 0,1.999879 z"
     id="path853"
     style="stroke-width:1" />
  <g
     id="g2044"
     transform="matrix(1.3253403,0,0,0.99999998,-2.1475037,-1.1011537)"
     style="display:inline;stroke-width:0.868633">
    <path
       style="color:#000000;font-style:normal;font-variant:normal;font-weight:normal;font-stretch:normal;font-size:medium;line-height:normal;font-family:sans-serif;font-variant-ligatures:normal;font-variant-position:normal;font-variant-caps:normal;font-variant-numeric:normal;font-variant-alternates:normal;font-variant-east-asian:normal;font-feature-settings:normal;font-variation-settings:normal;text-indent:0;text-align:start;text-decoration:none;text-decoration-line:none;text-decoration-style:solid;text-decoration-color:#000000;letter-spacing:normal;word-spacing:normal;text-transform:none;writing-mode:lr-tb;direction:ltr;text-orientation:mixed;dominant-baseline:auto;baseline-shift:baseline;text-anchor:start;white-space:normal;shape-padding:0;shape-margin:0;inline-size:0;clip-rule:nonzero;display:inline;overflow:visible;visibility:visible;opacity:1;isolation:auto;mix-blend-mode:normal;color-interpolation:sRGB;color-interpolation-filters:linearRGB;solid-color:#000000;solid-opacity:1;vector-effect:none;fill:#e61c50;fill-opacity:1;fill-rule:nonzero;stroke:none;stroke-width:1.73727px;stroke-linecap:round;stroke-linejoin:round;stroke-miterlimit:4;stroke-dasharray:none;stroke-dashoffset:0;stroke-opacity:1;color-rendering:auto;image-rendering:auto;shape-rendering:auto;text-rendering:auto;enable-background:accumulate;stop-color:#000000;stop-opacity:1"
       d="m 4.0058594,13.4375 c -0.5522847,0 -0.7895589,0.578174 -1,1 -0.6590225,1.321 -0.8054951,3.169119 -0.6184761,4.38539 0.3256833,2.118067 1.5908746,2.631602 2.9404947,2.984886 C 7,22.245481 10.175781,21.04883 10.175781,21.04883 c 0.549555,-0.05484 1,-0.447715 1,-1 0,-0.552285 -0.447715,-1 -1,-1 0,0 -3.0894053,-0.122415 -4.3079676,-1.340978 C 4.780913,16.62095 5,15.5 5.0058594,14.4375 c 0.0026,-0.471397 -0.4477153,-1 -1,-1 z"
       id="path2020"
       sodipodi:nodetypes="sassssssss" />
    <path
       id="polyline1446"
       style="fill:none;stroke:#e61c50;stroke-width:1.73726;stroke-linecap:round;stroke-linejoin:round;stroke-miterlimit:4;stroke-dasharray:none;stroke-opacity:1"
       d="m 8.0337885,17.101154 2.4259995,2.999382 -2.4259995,3.000618"
       sodipodi:nodetypes="ccc" />
  </g>
</svg>
