<?xml version="1.0" encoding="UTF-8" standalone="no"?>
<svg
   xmlns:dc="http://purl.org/dc/elements/1.1/"
   xmlns:cc="http://creativecommons.org/ns#"
   xmlns:rdf="http://www.w3.org/1999/02/22-rdf-syntax-ns#"
   xmlns:svg="http://www.w3.org/2000/svg"
   xmlns="http://www.w3.org/2000/svg"
   xmlns:xlink="http://www.w3.org/1999/xlink"
   xmlns:sodipodi="http://sodipodi.sourceforge.net/DTD/sodipodi-0.dtd"
   xmlns:inkscape="http://www.inkscape.org/namespaces/inkscape"
   height="48"
   width="48"
   version="1.1"
   viewBox="0 0 48 48"
   id="svg2"
   inkscape:version="0.47 r22583"
   sodipodi:docname="new_project.svg">
  <metadata
     id="metadata153">
    <rdf:RDF>
      <cc:Work
         rdf:about="">
        <dc:format>image/svg+xml</dc:format>
        <dc:type
           rdf:resource="http://purl.org/dc/dcmitype/StillImage" />
      </cc:Work>
    </rdf:RDF>
  </metadata>
  <sodipodi:namedview
     pagecolor="#ffffff"
     bordercolor="#666666"
     borderopacity="1"
     objecttolerance="10"
     gridtolerance="10"
     guidetolerance="10"
     inkscape:pageopacity="0"
     inkscape:pageshadow="2"
     inkscape:window-width="1280"
     inkscape:window-height="949"
     id="namedview151"
     showgrid="false"
     inkscape:zoom="4.9166667"
     inkscape:cx="24"
     inkscape:cy="23.59322"
     inkscape:window-x="0"
     inkscape:window-y="25"
     inkscape:window-maximized="1"
     inkscape:current-layer="svg2" />
  <defs
     id="defs4">
    <filter
       id="q"
       color-interpolation-filters="sRGB">
      <feGaussianBlur
         stdDeviation="1.2065414"
         id="feGaussianBlur7" />
    </filter>
    <filter
       id="p"
       color-interpolation-filters="sRGB">
      <feGaussianBlur
         stdDeviation="0.89955545"
         id="feGaussianBlur10" />
    </filter>
    <filter
       id="z"
       color-interpolation-filters="sRGB">
      <feGaussianBlur
         stdDeviation="2.1604423"
         id="feGaussianBlur13" />
    </filter>
    <linearGradient
       id="v"
       y2="-373.12"
       gradientUnits="userSpaceOnUse"
       x2="-56.358"
       gradientTransform="matrix(0,1,-1,0,-39.998,140)"
       y1="-381.1"
       x1="-86.12">
      <stop
         stop-color="#008c00"
         offset="0"
         id="stop16" />
      <stop
         stop-color="#00bf00"
         offset="1"
         id="stop18" />
    </linearGradient>
    <radialGradient
       id="x"
       gradientUnits="userSpaceOnUse"
       cy="92"
       cx="344"
       gradientTransform="matrix(0,1,-1,0,-39.998,140)"
       r="36">
      <stop
         stop-color="#e5ff00"
         offset="0"
         id="stop21" />
      <stop
         stop-color="#bff500"
         stop-opacity="0"
         offset="1"
         id="stop23" />
    </radialGradient>
    <linearGradient
       id="ad"
       y2="87.759"
       gradientUnits="userSpaceOnUse"
       x2="336.98"
       y1="120.81"
       x1="328.12">
      <stop
         stop-color="#0f0"
         offset="0"
         id="stop26" />
      <stop
         stop-color="#006500"
         offset="1"
         id="stop28" />
    </linearGradient>
    <clipPath
       id="y">
      <circle
         cy="92"
         cx="344"
         r="36"
         fill="url(#linearGradient5167)"
         id="circle31" />
    </clipPath>
    <filter
       id="ab"
       color-interpolation-filters="sRGB">
      <feGaussianBlur
         stdDeviation="2.8805897"
         id="feGaussianBlur34" />
    </filter>
    <linearGradient
       id="w"
       y2="-131.93"
       gradientUnits="userSpaceOnUse"
       x2="-45.097"
       gradientTransform="matrix(0,0.73882,-0.73882,0,-1.5227,63.256)"
       y1="-131.93"
       x1="-80.003">
      <stop
         stop-color="#fff"
         offset="0"
         id="stop37" />
      <stop
         stop-color="#fff"
         stop-opacity="0"
         offset="1"
         id="stop39" />
    </linearGradient>
    <linearGradient
       id="u"
       y2="65.933"
       gradientUnits="userSpaceOnUse"
       x2="102"
       gradientTransform="translate(20,-56)"
       y1="118"
       x1="102">
      <stop
         stop-color="#004d00"
         stop-opacity="0"
         offset="0"
         id="stop42" />
      <stop
         stop-color="#004d00"
         offset=".5"
         id="stop44" />
      <stop
         stop-color="#004d00"
         stop-opacity="0"
         offset="1"
         id="stop46" />
    </linearGradient>
    <filter
       id="aa"
       color-interpolation-filters="sRGB">
      <feGaussianBlur
         stdDeviation="1.04"
         id="feGaussianBlur49" />
    </filter>
    <radialGradient
       id="s"
       gradientUnits="userSpaceOnUse"
       cy="112.3"
       cx="102"
       gradientTransform="matrix(.875 0 0 .85714 10 17.143)"
       r="139.56">
      <stop
         stop-color="#00537d"
         offset="0"
         id="stop52" />
      <stop
         stop-color="#186389"
         offset=".0151"
         id="stop54" />
      <stop
         stop-color="#558ca8"
         offset=".0558"
         id="stop56" />
      <stop
         stop-color="#89afc3"
         offset=".0964"
         id="stop58" />
      <stop
         stop-color="#b3ccd8"
         offset=".1357"
         id="stop60" />
      <stop
         stop-color="#d4e2e9"
         offset=".1737"
         id="stop62" />
      <stop
         stop-color="#ecf2f5"
         offset=".20990"
         id="stop64" />
      <stop
         stop-color="#fafcfd"
         offset=".24350"
         id="stop66" />
      <stop
         stop-color="#fff"
         offset=".27220"
         id="stop68" />
    </radialGradient>
    <radialGradient
       id="t"
       gradientUnits="userSpaceOnUse"
       cy="109.33"
       cx="99.081"
       gradientTransform="matrix(.85638 0 0 .84156 11.191 18.14)"
       r="139.56">
      <stop
         stop-color="#7a7d80"
         offset="0"
         id="stop71" />
      <stop
         stop-color="#c2c2c2"
         offset=".12618"
         id="stop73" />
      <stop
         stop-color="#fafafa"
         offset=".23251"
         id="stop75" />
      <stop
         stop-color="#fff"
         offset=".27220"
         id="stop77" />
      <stop
         stop-color="#fafafa"
         offset=".53130"
         id="stop79" />
      <stop
         stop-color="#ebecec"
         offset=".84490"
         id="stop81" />
      <stop
         stop-color="#e1e2e3"
         offset="1"
         id="stop83" />
    </radialGradient>
    <linearGradient
       id="r"
       y2="94.104"
       gradientUnits="userSpaceOnUse"
       x2="86.572"
       gradientTransform="matrix(.875 0 0 .85714 10 17.143)"
       y1="104"
       x1="96">
      <stop
         stop-color="#888a85"
         offset="0"
         id="stop86" />
      <stop
         stop-color="#8c8e89"
         offset=".0072"
         id="stop88" />
      <stop
         stop-color="#abaca9"
         offset=".0673"
         id="stop90" />
      <stop
         stop-color="#c5c6c4"
         offset=".1347"
         id="stop92" />
      <stop
         stop-color="#dbdbda"
         offset=".2115"
         id="stop94" />
      <stop
         stop-color="#ebebeb"
         offset=".3012"
         id="stop96" />
      <stop
         stop-color="#f7f7f6"
         offset=".4122"
         id="stop98" />
      <stop
         stop-color="#fdfdfd"
         offset=".5679"
         id="stop100" />
      <stop
         stop-color="#fff"
         offset="1"
         id="stop102" />
    </linearGradient>
    <radialGradient
       inkscape:collect="always"
       xlink:href="#s"
       id="radialGradient2979"
       gradientUnits="userSpaceOnUse"
       gradientTransform="matrix(0.875,0,0,0.85714,10,17.143)"
       cx="102"
       cy="112.3"
       r="139.56" />
    <radialGradient
       inkscape:collect="always"
       xlink:href="#t"
       id="radialGradient2981"
       gradientUnits="userSpaceOnUse"
       gradientTransform="matrix(0.85638,0,0,0.84156,11.191,18.14)"
       cx="99.081"
       cy="109.33"
       r="139.56" />
    <linearGradient
       inkscape:collect="always"
       xlink:href="#r"
       id="linearGradient2983"
       gradientUnits="userSpaceOnUse"
       gradientTransform="matrix(0.875,0,0,0.85714,10,17.143)"
       x1="96"
       y1="104"
       x2="86.572"
       y2="94.104" />
    <radialGradient
       inkscape:collect="always"
       xlink:href="#s"
       id="radialGradient2985"
       gradientUnits="userSpaceOnUse"
       gradientTransform="matrix(0.875,0,0,0.85714,10,17.143)"
       cx="102"
       cy="112.3"
       r="139.56" />
    <radialGradient
       inkscape:collect="always"
       xlink:href="#t"
       id="radialGradient2987"
       gradientUnits="userSpaceOnUse"
       gradientTransform="matrix(0.85638,0,0,0.84156,11.191,18.14)"
       cx="99.081"
       cy="109.33"
       r="139.56" />
    <linearGradient
       inkscape:collect="always"
       xlink:href="#r"
       id="linearGradient2989"
       gradientUnits="userSpaceOnUse"
       gradientTransform="matrix(0.875,0,0,0.85714,10,17.143)"
       x1="96"
       y1="104"
       x2="86.572"
       y2="94.104" />
    <linearGradient
       inkscape:collect="always"
       xlink:href="#v"
       id="linearGradient3014"
       gradientUnits="userSpaceOnUse"
       gradientTransform="matrix(0,1,-1,0,-39.998,140)"
       x1="-86.12"
       y1="-381.1"
       x2="-56.358"
       y2="-373.12" />
    <radialGradient
       inkscape:collect="always"
       xlink:href="#x"
       id="radialGradient3016"
       gradientUnits="userSpaceOnUse"
       gradientTransform="matrix(0,1,-1,0,-39.998,140)"
       cx="344"
       cy="92"
       r="36" />
    <linearGradient
       inkscape:collect="always"
       xlink:href="#ad"
       id="linearGradient3018"
       gradientUnits="userSpaceOnUse"
       x1="328.12"
       y1="120.81"
       x2="336.98"
       y2="87.759" />
    <linearGradient
       inkscape:collect="always"
       xlink:href="#w"
       id="linearGradient3020"
       gradientUnits="userSpaceOnUse"
       gradientTransform="matrix(0,0.73882,-0.73882,0,-1.5227,63.256)"
       x1="-80.003"
       y1="-131.93"
       x2="-45.097"
       y2="-131.93" />
    <linearGradient
       inkscape:collect="always"
       xlink:href="#u"
       id="linearGradient3022"
       gradientUnits="userSpaceOnUse"
       gradientTransform="translate(20,-56)"
       x1="102"
       y1="118"
       x2="102"
       y2="65.933" />
  </defs>
  <g
     id="g106"
     transform="matrix(0.41145,0,0,0.37764,-1.4857,0.041)">
    <use
       id="use108"
       x="0"
       y="0"
       width="128"
       height="128"
       transform="translate(-12,-12)"
       xlink:href="#ac" />
    <g
       transform="translate(-4,-8)"
       id="ac">
      <path
         style="opacity:0.6;filter:url(#p)"
         id="path111"
         transform="matrix(1.0476,0,0,1.0417,-2.0952,-4.0417)"
         d="m 23,25 v 96 H 76.525 C 76.989,121 107,91.602 107,91.147 V 25 H 23 z" />
      <path
         style="fill:url(#radialGradient2985)"
         id="path113"
         d="m 24,24 v 96 H 77.525 C 77.989,120 108,90.602 108,90.147 V 24 H 24 z" />
      <path
         style="fill:url(#radialGradient2987)"
         id="path115"
         d="m 26.606,25.714 c -0.47187,0 -0.85638,0.37786 -0.85638,0.84156 v 90.888 c 0,0.46455 0.38452,0.84157 0.85638,0.84157 H 77.28 c 0.22523,0 0.44618,-0.0892 0.60546,-0.24658 l 28.115,-27.618 c 0.16013,-0.15737 0.25092,-0.37365 0.25092,-0.59498 v -63.262 c 0,-0.4637 -0.38366,-0.84156 -0.85639,-0.84156 h -78.787 z" />
      <path
         style="opacity:0.5;filter:url(#q)"
         id="path117"
         d="m 76.526,120 c 0,0 11.662,-9 16.474,-13.714 4.812,-4.72 14,-16.143 14,-16.143 0,0 -8,5.853 -24,5.853 0,16 -6.4745,24 -6.4745,24 z" />
      <path
         style="fill:url(#linearGradient2989)"
         id="path119"
         d="m 77.526,120 c 0,0 11.662,-9 16.474,-13.714 4.812,-4.72 14,-16.143 14,-16.143 0,0 -8,5.853 -24,5.853 0,16 -6.4745,24 -6.4745,24 z" />
    </g>
    <g
       id="g121"
       transform="translate(8,4)">
      <path
         style="opacity:0.6;filter:url(#p)"
         id="path123"
         transform="matrix(1.0476,0,0,1.0417,-2.0952,-4.0417)"
         d="m 23,25 v 96 H 76.525 C 76.989,121 107,91.602 107,91.147 V 25 H 23 z" />
      <path
         style="fill:url(#radialGradient2979)"
         id="path125"
         d="m 24,24 v 96 H 77.525 C 77.989,120 108,90.602 108,90.147 V 24 H 24 z" />
      <path
         style="fill:url(#radialGradient2981)"
         id="path127"
         d="m 26.606,25.714 c -0.47187,0 -0.85638,0.37786 -0.85638,0.84156 v 90.888 c 0,0.46455 0.38452,0.84157 0.85638,0.84157 H 77.28 c 0.22523,0 0.44618,-0.0892 0.60546,-0.24658 l 28.115,-27.618 c 0.16013,-0.15737 0.25092,-0.37365 0.25092,-0.59498 v -63.262 c 0,-0.4637 -0.38366,-0.84156 -0.85639,-0.84156 h -78.787 z" />
      <path
         style="opacity:0.5;filter:url(#q)"
         id="path129"
         d="m 76.526,120 c 0,0 11.662,-9 16.474,-13.714 4.812,-4.72 14,-16.143 14,-16.143 0,0 -8,5.853 -24,5.853 0,16 -6.4745,24 -6.4745,24 z" />
      <path
         style="fill:url(#linearGradient2983)"
         id="path131"
         d="m 77.526,120 c 0,0 11.662,-9 16.474,-13.714 4.812,-4.72 14,-16.143 14,-16.143 0,0 -8,5.853 -24,5.853 0,16 -6.4745,24 -6.4745,24 z" />
    </g>
  </g>
  <g
     id="g133"
     transform="matrix(0.36686,0,0,0.37005,40.311347,3.3522881)">
    <circle
       style="opacity:0.5;filter:url(#z)"
       sodipodi:ry="36"
       sodipodi:rx="36"
       sodipodi:cy="92"
       sodipodi:cx="344"
       d="m 380,92 c 0,19.88225 -16.11775,36 -36,36 -19.88225,0 -36,-16.11775 -36,-36 0,-19.882251 16.11775,-36 36,-36 19.88225,0 36,16.117749 36,36 z"
       id="circle135"
       r="36"
       cx="344"
       cy="92"
       transform="matrix(-0.85842,0.23001,-0.23001,-0.85842,412.46,35.85)" />
    <circle
       sodipodi:ry="36"
       sodipodi:rx="36"
       sodipodi:cy="92"
       sodipodi:cx="344"
       style="fill:url(#linearGradient3014)"
       d="m 380,92 c 0,19.88225 -16.11775,36 -36,36 -19.88225,0 -36,-16.11775 -36,-36 0,-19.882251 16.11775,-36 36,-36 19.88225,0 36,16.117749 36,36 z"
       id="circle137"
       r="36"
       cx="344"
       cy="92"
       transform="matrix(-0.85842,0.23001,-0.23001,-0.85842,412.46,31.85)" />
    <circle
       sodipodi:ry="36"
       sodipodi:rx="36"
       sodipodi:cy="92"
       sodipodi:cx="344"
       style="fill:url(#radialGradient3016)"
       d="m 380,92 c 0,19.88225 -16.11775,36 -36,36 -19.88225,0 -36,-16.11775 -36,-36 0,-19.882251 16.11775,-36 36,-36 19.88225,0 36,16.117749 36,36 z"
       id="circle139"
       r="36"
       cx="344"
       cy="92"
       transform="matrix(-0.64382,0.17251,-0.17251,-0.64382,333.34,31.888)" />
    <circle
       sodipodi:ry="36"
       sodipodi:rx="36"
       sodipodi:cy="92"
       sodipodi:cx="344"
       style="opacity:0.8;fill:none;stroke:url(#linearGradient3018);stroke-width:6.75139999;filter:url(#ab)"
       d="m 380,92 c 0,19.88225 -16.11775,36 -36,36 -19.88225,0 -36,-16.11775 -36,-36 0,-19.882251 16.11775,-36 36,-36 19.88225,0 36,16.117749 36,36 z"
       id="circle141"
       r="36"
       cx="344"
       cy="92"
       transform="matrix(-0.85842,-0.23001,-0.23001,0.85842,412.46,32.15)"
       clip-path="url(#y)" />
    <path
       style="opacity:0.8;fill:url(#linearGradient3020)"
       id="path143"
       d="m 96,4.1482 c -11.346,0 -20.826,8.0116 -23.111,18.678 4.5547,4.2459 13.197,7.1111 23.111,7.1111 9.9142,0 18.556,-2.8652 23.111,-7.1111 -2.28,-10.666 -11.76,-18.678 -23.11,-18.678 z" />
    <g
       id="g145"
       transform="translate(-26,-4)">
      <path
         style="fill:none;stroke:url(#linearGradient3022);stroke-width:4;stroke-linecap:round;stroke-linejoin:round;filter:url(#aa)"
         id="path147"
         d="m 118,16 v 16 h -16 v 8 h 16 v 16 h 8 V 40 h 16 V 32 H 126 V 16 h -8 z" />
      <path
         style="fill:#ffffff;fill-rule:evenodd"
         id="path149"
         d="m 118,16 v 16 h -16 v 8 h 16 v 16 h 8 V 40 h 16 V 32 H 126 V 16 h -8 z" />
    </g>
  </g>
  <g
     transform="matrix(4.1228166,0,0,4.0916513,-12.598545,25.226531)"
     id="g78">
    <path
       style="fill:#afaf00"
       d="M 12,5.5 9.4826,4.1505 6.9438,5.4592 7.4494,2.648 5.4202,0.6379 8.25,0.25 9.5347,-2.301 10.778,0.2704 13.601,0.70392 11.54,2.68102 z"
       transform="matrix(0.86499,0,0,0.86499,3.3638,-4.5167)"
       id="path80" />
    <path
       style="fill:#ebeb00"
       d="M 12,5.5 9.4826,4.1505 6.9438,5.4592 7.4494,2.648 5.4202,0.6379 8.25,0.25 9.5347,-2.301 10.778,0.2704 13.601,0.70392 11.54,2.68102 z"
       transform="matrix(0.61624,0,0,0.61624,5.7296,-4.1188)"
       id="path82" />
    <path
       style="fill:#ffff00"
       d="M 12,5.5 9.4826,4.1505 6.9438,5.4592 7.4494,2.648 5.4202,0.6379 8.25,0.25 9.5347,-2.301 10.778,0.2704 13.601,0.70392 11.54,2.68102 z"
       transform="matrix(0.3815,0,0,0.3815,7.9622,-3.7434)"
       id="path84" />
  </g>
</svg>
