<svg xmlns="http://www.w3.org/2000/svg" height="48" width="48" version="1.0" xmlns:xlink="http://www.w3.org/1999/xlink">
 <defs>
  <linearGradient id="ab" y2="122.72" gradientUnits="userSpaceOnUse" x2="69.666" gradientTransform="matrix(.35342 0 0 .32233 -45.419 2.1542)" y1="2.2454" x1="36.572">
   <stop stop-color="#bbb" offset="0"/>
   <stop stop-color="#888" offset="1"/>
  </linearGradient>
  <linearGradient id="z" y2="105.11" gradientUnits="userSpaceOnUse" x2="98.098" gradientTransform="translate(-36,-20)" y1="77.513" x1="97.623">
   <stop stop-color="#fff" offset="0"/>
   <stop stop-color="#fff" stop-opacity="0" offset="1"/>
  </linearGradient>
  <linearGradient id="y" y2="72" xlink:href="#c" gradientUnits="userSpaceOnUse" x2="14.698" gradientTransform="matrix(.99697 0 0 .99697 -63.641 -170.75)" y1="96" x1="26.698"/>
  <linearGradient id="x" y2="96.001" xlink:href="#c" gradientUnits="userSpaceOnUse" x2="11.681" gradientTransform="matrix(.99697 0 0 .99697 -63.641 -170.75)" y1="52" x1="6.6976"/>
  <linearGradient id="w" y2="108.01" gradientUnits="userSpaceOnUse" x2="11.681" gradientTransform="matrix(.99697 0 0 .99697 -63.631 -170.75)" y1="60.539" x1="11.681">
   <stop stop-color="#cbff9c" offset="0"/>
   <stop stop-color="#65c171" stop-opacity="0" offset="1"/>
  </linearGradient>
  <radialGradient id="r" fx="-40" fy="96" xlink:href="#d" gradientUnits="userSpaceOnUse" cy="84" cx="-44" gradientTransform="matrix(.99697 0 0 .99697 -1.1332 -170.75)" r="20"/>
  <linearGradient id="b" y2="19.282" xlink:href="#c" spreadMethod="reflect" gradientUnits="userSpaceOnUse" x2="80" y1="15.337" x1="73.743"/>
  <radialGradient id="q" fx="-60" fy="100" gradientUnits="userSpaceOnUse" cy="84" cx="-44" gradientTransform="matrix(.99697 0 0 .99697 -1.1332 -170.75)" r="24">
   <stop stop-opacity=".77903" offset="0"/>
   <stop stop-opacity="0" offset="1"/>
  </radialGradient>
  <linearGradient id="v" y2="18.504" gradientUnits="userSpaceOnUse" x2="76.284" gradientTransform="scale(1.0394 .96211)" y1="18.504" x1="64.342">
   <stop stop-color="#fff" offset="0"/>
   <stop stop-color="#252525" stop-opacity="0" offset="1"/>
  </linearGradient>
  <linearGradient id="u" y2="19.282" spreadMethod="reflect" gradientUnits="userSpaceOnUse" x2="80" y1="15.337" x1="73.743">
   <stop stop-color="#fff14d" offset="0"/>
   <stop stop-color="#f8ffa0" stop-opacity="0" offset="1"/>
  </linearGradient>
  <linearGradient id="t" y2="104.81" xlink:href="#d" gradientUnits="userSpaceOnUse" x2="-62.425" gradientTransform="matrix(.99697 0 0 .99697 -1.1332 -170.75)" y1="76.708" x1="-13.757"/>
  <filter id="s" color-interpolation-filters="sRGB">
   <feGaussianBlur stdDeviation="0.2025"/>
  </filter>
  <linearGradient id="c">
   <stop stop-color="#fff" offset="0"/>
   <stop stop-color="#fff" stop-opacity="0" offset="1"/>
  </linearGradient>
  <radialGradient id="d" gradientUnits="userSpaceOnUse" cy="-.2148" cx="48" gradientTransform="matrix(.9792 0 0 .9725 133 20.876)" r="55.148">
   <stop stop-color="#72d13d" offset="0"/>
   <stop stop-color="#35ac1c" offset=".35530"/>
   <stop stop-color="#0f9508" offset=".61940"/>
   <stop stop-color="#008c00" offset=".75740"/>
   <stop stop-color="#007a00" offset="1"/>
  </radialGradient>
  <filter id="a" height="1.2499" width="1.2041" color-interpolation-filters="sRGB" y="-.12496" x="-.10207">
   <feGaussianBlur stdDeviation="0.44655691"/>
  </filter>
  <linearGradient id="aa" y2="92" gradientUnits="userSpaceOnUse" x2="-36.027" gradientTransform="matrix(.35342 0 0 .35456 -2.302 3.7658)" y1="-22.624" x1="-36.027">
   <stop stop-color="#dcebff" offset="0"/>
   <stop stop-color="#fff" offset="1"/>
  </linearGradient>
 </defs>
 <rect height="4.2547" width="4.241" y="34.967" x="41.885" fill="#2c72c7"/>
 <rect transform="scale(-1)" height="1.4182" width="1.4137" y="-37.804" x="-44.712" fill="#bfd9ff"/>
 <rect transform="scale(-1,1)" height="28.365" width="36.756" stroke="url(#ab)" stroke-linecap="round" y="7.3114" x="-42.592" stroke-width="1.416" fill="url(#aa)"/>
 <rect height="4.2547" width="4.241" y="3.7658" x="22.094" fill="#2c72c7"/>
 <rect height="4.2547" width="4.241" y="34.967" x="22.094" fill="#2c72c7"/>
 <rect height="4.2547" width="4.241" y="3.7658" x="2.302" fill="#2c72c7"/>
 <rect height="4.2547" width="4.241" y="34.967" x="2.302" fill="#2c72c7"/>
 <rect height="4.2547" width="4.241" y="3.7658" x="41.885" fill="#2c72c7"/>
 <rect height="2.8365" width="2.8274" y="34.967" x="41.885" fill="#2c72c7"/>
 <rect height="4.2547" width="4.241" y="19.366" x="2.302" fill="#2c72c7"/>
 <rect height="4.2547" width="4.241" y="19.366" x="41.885" fill="#2c72c7"/>
 <path fill-opacity=".75688" fill="#fff" d="m48.533 27.189v-0.495 0.495z"/>
 <g transform="matrix(.35342 0 0 .35456 24.947 26.484)">
  <g transform="translate(77,119)">
   <path stroke-linejoin="round" d="m-46.932-110.93c-3.3075 0-6.0441 2.7367-6.0441 6.0441v9.9074h-9.9074c-3.3075 0-6.0441 1.2501-6.0441 4.5576 0-0.94341 0.000001 3.3809 0.000001 5.3498 0 3.3075 2.7367 6.0441 6.0441 6.0441h9.9074v9.9074c0 3.3075 2.7367 6.0441 6.0441 6.0441h3.8633c3.3075 0 6.0441-2.7367 6.0441-6.0441v-9.9074h9.9074c3.3075 0 6.0441-2.7367 6.0441-6.0441v-3.8633c0-3.3075-2.7367-6.0441-6.0441-6.0441h-9.9074v-9.9074c0-3.3075-2.7367-6.0441-6.0441-6.0441h-3.8633z" stroke-dashoffset="1.0878" stroke="#fff" stroke-linecap="round" stroke-width="8" fill="none"/>
   <path fill="url(#t)" d="m-46.932-110.93c-3.3075 0-6.0441 2.7367-6.0441 6.0441v9.9074h-9.9074c-3.3075 0-6.0441 2.7367-6.0441 6.0441v3.8633c0 3.3075 2.7367 6.0441 6.0441 6.0441h9.9074v9.9074c0 3.3075 2.7367 6.0441 6.0441 6.0441h3.8633c3.3075 0 6.0441-2.7367 6.0441-6.0441v-9.9074h9.9074c3.3075 0 6.0441-2.7367 6.0441-6.0441v-3.8633c0-3.3075-2.7367-6.0441-6.0441-6.0441h-9.9074v-9.9074c0-3.3075-2.7367-6.0441-6.0441-6.0441h-3.8633z"/>
   <path d="m69.876 12.058c-1.0771 0.06528-2.5282 0.21916-3 0.9375l1.59 11.137 10.534-0.759v-0.469c1.741-2.57-4.78-10.906-9.124-10.847z" fill-rule="evenodd" transform="matrix(-.49849 0 0 .49849 -13.097 -116.55)" filter="url(#a)" fill="url(#b)"/>
   <path d="m69.876 12.058c-1.0771 0.06528-2.5282 0.21916-3 0.9375l1.297 8.794 10.827 1.584v-0.469c1.741-2.57-4.78-10.906-9.124-10.847z" fill-rule="evenodd" transform="matrix(.49849 0 0 .49849 -76.549 -116.55)" filter="url(#a)" fill="url(#b)"/>
   <path opacity=".68165" d="m69.876 12.058c-1.0771 0.06528-2.5282 0.21916-3 0.9375l2.176 10.747 9.948-0.369v-0.469c1.741-2.57-4.78-10.906-9.124-10.847z" fill-rule="evenodd" transform="matrix(-.49849 0 0 -.49849 -13.097 -57.062)" filter="url(#a)" fill="url(#u)"/>
   <path opacity=".70787" d="m69.876 12.058c-1.0771 0.06528-2.5282 0.21916-3 0.9375l0.906 10.552 11.218-0.174v-0.469c1.741-2.57-4.78-10.906-9.124-10.847z" fill-rule="evenodd" transform="matrix(.49849 0 0 -.49849 -76.549 -57.062)" filter="url(#a)" fill="url(#v)"/>
   <path opacity=".55056" d="m69.876 12.058c-1.0771 0.06528-2.5282 0.21916-3 0.9375l1.59 11.137 10.534-0.759v-0.469c1.741-2.57-4.78-10.906-9.124-10.847z" fill-rule="evenodd" transform="matrix(.49849 0 0 .49849 -60.597 -100.99)" filter="url(#a)" fill="url(#b)"/>
   <path opacity=".58052" fill="url(#q)" d="m-46.932-110.93c-3.3075 0-6.0441 2.7367-6.0441 6.0441v9.9074h-9.9074c-3.3075 0-6.0441 1.2501-6.0441 4.5576 0-0.94341 0.000001 3.3809 0.000001 5.3498 0 3.3075 2.7367 6.0441 6.0441 6.0441h9.9074v9.9074c0 3.3075 2.7367 6.0441 6.0441 6.0441h3.8633c3.3075 0 6.0441-2.7367 6.0441-6.0441v-9.9074h9.9074c3.3075 0 6.0441-2.7367 6.0441-6.0441v-3.8633c0-3.3075-2.7367-6.0441-6.0441-6.0441h-9.9074v-9.9074c0-3.3075-2.7367-6.0441-6.0441-6.0441h-3.8633z"/>
   <path opacity=".55056" d="m69.876 12.058c-1.0771 0.06528-2.5282 0.21916-3 0.9375l1.59 11.137 10.534-0.759v-0.469c1.741-2.57-4.78-10.906-9.124-10.847z" fill-rule="evenodd" transform="matrix(-.49849 0 0 .49849 -29.403 -100.99)" filter="url(#a)" fill="url(#b)"/>
   <path fill="url(#r)" d="m-46.932-106.94c-1.1305 0-2.0563 0.92572-2.0563 2.0562v13.895h-13.895c-1.1305 0-2.0563 0.92572-2.0563 2.0563v3.8633c0 1.1305 0.92572 2.0563 2.0563 2.0563h13.895v13.895c0 1.1305 0.92572 2.0563 2.0563 2.0563h3.8633c1.1305 0 2.0563-0.92572 2.0563-2.0563v-13.895h13.895c1.1305 0 2.0563-0.92572 2.0563-2.0563v-3.8633c0-1.1305-0.92572-2.0563-2.0563-2.0563h-13.895v-13.895c0-1.1305-0.92572-2.0562-2.0563-2.0562h-3.8633z"/>
   <path fill="url(#w)" d="m-46.932-106.94c-1.1305 0-2.0563 0.92572-2.0563 2.0562v13.895h-13.895c-1.1305 0-2.0563 0.92572-2.0563 2.0563v3.8633c0 0.10947 0.04561 0.20659 0.06231 0.31155 3.2478 0.46815 6.6711 0.74773 10.219 0.74773 11.467 0 21.74-2.6219 28.507-6.7296-0.28836-0.15468-0.61747-0.24924-0.96581-0.24924h-13.895v-13.895c0-1.1305-0.92572-2.0562-2.0563-2.0562h-3.8633z"/>
   <path fill="url(#x)" d="m-46.932-106.94c-1.1305 0-2.0563 0.92572-2.0563 2.0562v0.99698c0-1.1305 1.3245-2.6544 2.455-2.6544h3.8633c0.28263 0 0.56427 0.0513 0.81004 0.15578 0.10993 0.24876 0.48602 1.1212 0.48602 1.4082l0.3614 13.989 0.03116-13.895c0-0.57388-0.24033-1.0903-0.62311-1.4643-0.08751-0.0875-0.17849-0.17848-0.2804-0.24924-0.0077-0.005-0.02342 0.005-0.03115 0-0.10177-0.0689-0.19807-0.13686-0.31155-0.18693-0.0086-0.004-0.02246 0.004-0.03116 0-0.11425-0.0486-0.25035-0.0973-0.37386-0.12463-0.01021-0.002-0.0209 0.002-0.03116 0-0.12329-0.0254-0.24381-0.0291-0.37386-0.0311h-3.8944zm-15.952 15.952c-1.1305 0-2.0563 0.92572-2.0563 2.0563v0.99697c0-1.1305 0.92572-2.6544 2.0563-2.6544l13.895-0.39879h-13.895zm21.871 0 13.718 0.51017c-6.7387 3.6161-17.769 6.3752-28.423 6.3752-1.7739 0-3.5288-0.08968-5.2341-0.21809 2.0542 0.18635 4.1668 0.31155 6.3245 0.31155 10.737 0 20.422-2.3167 27.168-5.9818 0.0079-0.0043 0.02323 0.0043 0.03115 0 0.44122-0.2405 0.86201-0.4956 1.2774-0.74773-0.13589-0.0729-0.28443-0.14434-0.43617-0.18693-0.01-0.0026-0.02113 0.0025-0.03115 0-0.15192-0.04033-0.30445-0.0596-0.46733-0.06231h-13.926z"/>
   <path fill="url(#y)" d="m-46.932-106.94c-1.1305 0-2.0563 0.92572-2.0563 2.0562v0.99698c0-1.1305 1.3245-2.6544 2.455-2.6544h3.8633c0.28263 0 0.56427 0.0513 0.81004 0.15578 0.10993 0.24876 0.48602 1.1212 0.48602 1.4082l0.3614 13.989 0.03116-13.895c0-0.57388-0.24033-1.0903-0.62311-1.4643-0.08751-0.0875-0.17849-0.17848-0.2804-0.24924-0.0077-0.005-0.02342 0.005-0.03115 0-0.10177-0.0689-0.19807-0.13686-0.31155-0.18693-0.0086-0.004-0.02246 0.004-0.03116 0-0.11425-0.0486-0.25035-0.0973-0.37386-0.12463-0.01021-0.002-0.0209 0.002-0.03116 0-0.12329-0.0254-0.24381-0.0291-0.37386-0.0311h-3.8944zm-15.952 15.952c-1.1305 0-2.0563 0.92572-2.0563 2.0563v0.99697c0-1.1305 0.92572-2.6544 2.0563-2.6544l13.895-0.39879h-13.895zm21.871 0 13.815 0.51017c-6.7387 3.6161-17.866 6.3752-28.521 6.3752-1.7739 0-3.5288-0.08968-5.2341-0.21809 2.0542 0.18635 4.1668 0.31155 6.3245 0.31155 10.737 0 20.422-2.3167 27.168-5.9818 0.0079-0.0043 0.02323 0.0043 0.03115 0 0.44122-0.2405 0.86201-0.4956 1.2774-0.74773-0.13589-0.0729-0.28443-0.14434-0.43617-0.18693-0.01-0.0026-0.02113 0.0025-0.03115 0-0.15192-0.04033-0.30445-0.0596-0.46733-0.06231h-13.926z"/>
   <path stroke-linejoin="round" d="m62.062 44c-1.134 0-2.0625 0.92853-2.0625 2.0625v13.938h-13.938c-1.134 0-2.0625 0.92853-2.0625 2.0625v3.875c0 1.134 0.92853 2.0625 2.0625 2.0625h13.938v13.938c0 1.134 0.92853 2.0625 2.0625 2.0625h3.875c1.134 0.003 2.063-0.926 2.063-2.059v-13.938h13.938c1.134 0 2.0625-0.92853 2.0625-2.0625v-3.875c0-1.134-0.92853-2.0625-2.0625-2.0625h-13.938v-13.936c0-1.134-0.92853-2.0625-2.0625-2.0625h-3.875z" stroke-dashoffset="1.0878" transform="matrix(.99697 0 0 .99697 -108.81 -150.81)" filter="url(#s)" stroke="url(#z)" stroke-linecap="round" stroke-width="1.2538" fill="none"/>
  </g>
 </g>
 <path d="m21.387 29.294v-1.4182h2.1205l-0.02862-12.764h-4.2124v2.1274h-1.4137v-3.5456h12.723v3.5456h-1.4137v-2.1274h-4.241v12.764h2.1205v1.4182"/>
 <rect height="1.4182" width="1.4137" y="20.785" x="43.299" fill="#bfd9ff"/>
 <rect height="1.4182" width="1.4137" y="5.1841" x="43.299" fill="#bfd9ff"/>
 <rect height="1.4182" width="1.4137" y="5.1841" x="23.507" fill="#bfd9ff"/>
 <rect height="1.4182" width="1.4137" y="5.1841" x="3.7157" fill="#bfd9ff"/>
 <rect transform="scale(-1)" height="1.4182" width="1.4137" y="-22.203" x="-5.1294" fill="#bfd9ff"/>
 <rect transform="scale(-1)" height="1.4182" width="1.4137" y="-37.804" x="-5.1294" fill="#bfd9ff"/>
 <rect transform="scale(-1)" height="1.4182" width="1.4137" y="-37.804" x="-24.921" fill="#bfd9ff"/>
</svg>
