<?xml version="1.0" encoding="UTF-8" standalone="no"?>
<svg xmlns:dc="http://purl.org/dc/elements/1.1/"
   xmlns:cc="http://creativecommons.org/ns#"
   xmlns:rdf="http://www.w3.org/1999/02/22-rdf-syntax-ns#"
   xmlns:svg="http://www.w3.org/2000/svg"
   xmlns="http://www.w3.org/2000/svg"
   xmlns:sodipodi="http://sodipodi.sourceforge.net/DTD/sodipodi-0.dtd"
   xmlns:inkscape="http://www.inkscape.org/namespaces/inkscape" id="Слой_1" data-name="Слой 1" viewBox="0 0 24 24" version="1.1" sodipodi:docname="new_component.svg" inkscape:version="1.0.1 (3bc2e813f5, 2020-09-07)">
   <sodipodi:namedview pagecolor="#ffffff" bordercolor="#666666" borderopacity="1" objecttolerance="10" gridtolerance="10" guidetolerance="10" inkscape:pageopacity="0" inkscape:pageshadow="2" inkscape:window-width="1609" inkscape:window-height="1286" id="namedview30" showgrid="true" inkscape:zoom="27.961538" inkscape:cx="3.3259971" inkscape:cy="13" inkscape:window-x="0" inkscape:window-y="37" inkscape:window-maximized="0" inkscape:document-rotation="0" inkscape:current-layer="Слой_1">
      <inkscape:grid type="xygrid" id="grid_kicad" spacingx="0.5" spacingy="0.5" color="#9999ff" opacity="0.13" empspacing="2" />
   </sodipodi:namedview>
   <metadata id="metadata43">
      <rdf:RDF>
         <cc:Work rdf:about="">
            <cc:license rdf:resource="http://creativecommons.org/licenses/by-sa/4.0/" />
            <dc:format>image/svg+xml</dc:format>
            <dc:type rdf:resource="http://purl.org/dc/dcmitype/StillImage" />
            <dc:title>add_arc</dc:title>
         </cc:Work>
         <cc:License rdf:about="http://creativecommons.org/licenses/by-sa/4.0/">
            <cc:permits rdf:resource="http://creativecommons.org/ns#Reproduction" />
            <cc:permits rdf:resource="http://creativecommons.org/ns#Distribution" />
            <cc:requires rdf:resource="http://creativecommons.org/ns#Notice" />
            <cc:requires rdf:resource="http://creativecommons.org/ns#Attribution" />
            <cc:permits rdf:resource="http://creativecommons.org/ns#DerivativeWorks" />
            <cc:requires rdf:resource="http://creativecommons.org/ns#ShareAlike" />
         </cc:License>
      </rdf:RDF>
   </metadata>
   <defs id="defs158462">
      <style id="style158460">.cls-1{fill:#b9b9b9;}.cls-2{fill:#545454;}.cls-3{fill:#bf2641;}.cls-4{fill:none;stroke:#f5f5f5;stroke-linecap:round;stroke-linejoin:round;stroke-width:2px;}</style>
   </defs>
   <title id="title158464">new_component</title>
   <path class="cls-2" d="M 18.9748,9.7858 H 17.3953 L 4.8838,1.5221 A 0.7623,0.7623 0 0 0 3.7009,2.1582 v 3.051 H 2.1753 a 0.7628,0.7628 0 0 0 0,1.5256 h 1.5256 v 7.6277 H 2.1753 a 0.7628,0.7628 0 0 0 0,1.5255 h 1.5256 v 3.051 a 0.7622,0.7622 0 0 0 1.1829,0.6362 l 12.5115,-8.2638 h 1.5795 a 0.7628,0.7628 0 1 0 0,-1.5256 z M 5.2264,17.5207 V 3.5765 l 10.5565,6.9722 z" id="path158468" />
   <path class="cls-2" d="m 6.7244,9.0231 h 1.7742 a 0.7628,0.7628 0 1 0 0,-1.5255 H 6.7244 a 0.7628,0.7628 0 1 0 0,1.5255 z" id="path158470" />
   <path class="cls-2" d="m 8.5293,11.8157 v -0.2518 a 0.7628,0.7628 0 1 0 -1.5256,0 v 0.2518 h -0.251 a 0.7627,0.7627 0 1 0 0,1.5254 h 0.251 v 0.2511 a 0.7628,0.7628 0 1 0 1.5256,0 V 13.3411 H 8.78 a 0.7627,0.7627 0 1 0 0,-1.5254 z" id="path158472" />
   <ellipse class="cls-3" cx="16.9967" cy="17.012199" rx="7.0064998" ry="7" id="ellipse158474" />
   <line class="cls-4" x1="20.496401" y1="16.991699" x2="13.4933" y2="16.991699" id="line158476" />
   <line class="cls-4" x1="16.994801" y1="20.493299" x2="16.994801" y2="13.4902" id="line158478" />
</svg>
