<svg xmlns="http://www.w3.org/2000/svg" height="48" width="48" version="1.1" viewBox="0 0 48 48">
 <defs>
  <radialGradient id="a" gradientUnits="userSpaceOnUse" cy="115.71" cx="63.912" gradientTransform="matrix(1.0014 0 0 .081174 28.49 150.31)" r="63.912">
   <stop offset="0"/>
   <stop stop-opacity="0" offset="1"/>
  </radialGradient>
 </defs>
 <g transform="matrix(0,-2.848,2.44,0,1.8736,51.304)">
  <rect fill-opacity="0" height="16" width="16" y="0" x="0"/>
 </g>
 <g transform="translate(-2.4,1.35)">
  <g transform="matrix(0 -2.3465 2.3387 0 5.4368 -.91471)">
   <g stroke-linejoin="round">
    <rect transform="rotate(90)" height="14.619" width="9.7086" stroke="#000" y="3.4905" x="1.904" stroke-width="0.4" fill="#fff"/>
    <path d="m693.26 625.06a18.914 18.914 0 0 1 -37.828 0.11702" transform="matrix(0 .071482 -.071482 0 41.168 -41.24)" stroke="#030303" stroke-width="5.5958" fill="none"/>
   </g>
   <g stroke-linejoin="round" transform="translate(-.0375 -.15)" stroke="#030303">
    <rect transform="rotate(90)" height="2.511" width="4.7176" y="13.332" x="-.31959" stroke-width="0.3" fill="#ff7800"/>
    <rect transform="rotate(90)" height="2.511" width="4.7176" y="5.3636" x="-.31959" stroke-width="0.3" fill="#ff7800"/>
    <path d="m654.65 737.28a9.5805 9.5805 0 1 1 -19.161 0 9.5805 9.5805 0 1 1 19.161 0z" transform="matrix(0 .071482 -.071482 0 46.083 -44.072)" stroke-width="4.1969" fill="#ffede0"/>
    <rect transform="rotate(90)" height="2.511" width="4.7176" y="9.3478" x="-.31959" stroke-width="0.3" fill="#ff7800"/>
    <path d="m654.65 737.28a9.5805 9.5805 0 1 1 -19.161 0 9.5805 9.5805 0 1 1 19.161 0z" transform="matrix(0 .071482 -.071482 0 42.08 -44.072)" stroke-width="4.1969" fill="#ffede0"/>
    <path d="m654.65 737.28a9.5805 9.5805 0 1 1 -19.161 0 9.5805 9.5805 0 1 1 19.161 0z" transform="matrix(0 .071482 -.071482 0 38.077 -44.072)" stroke-width="4.1969" fill="#ffede0"/>
   </g>
   <g transform="translate(-.0375 9.6261)">
    <rect stroke-linejoin="round" transform="rotate(90)" height="2.511" width="4.7176" stroke="#030303" y="13.332" x="-.31959" stroke-width="0.3" fill="#ff7800"/>
    <rect stroke-linejoin="round" transform="rotate(90)" height="2.511" width="4.7176" stroke="#030303" y="5.3636" x="-.31959" stroke-width="0.3" fill="#ff7800"/>
    <path stroke-linejoin="round" d="m654.65 737.28a9.5805 9.5805 0 1 1 -19.161 0 9.5805 9.5805 0 1 1 19.161 0z" transform="matrix(0 .071482 -.071482 0 46.083 -44.072)" stroke="#030303" stroke-width="4.1969" fill="#ffede0"/>
    <rect stroke-linejoin="round" transform="rotate(90)" height="2.511" width="4.7176" stroke="#030303" y="9.3478" x="-.31959" stroke-width="0.3" fill="#ff7800"/>
    <path stroke-linejoin="round" d="m654.65 737.28a9.5805 9.5805 0 1 1 -19.161 0 9.5805 9.5805 0 1 1 19.161 0z" transform="matrix(0 .071482 -.071482 0 42.08 -44.072)" stroke="#030303" stroke-width="4.1969" fill="#ffede0"/>
    <g stroke-width="0.3">
     <path stroke-linejoin="round" d="m654.65 737.28a9.5805 9.5805 0 1 1 -19.161 0 9.5805 9.5805 0 1 1 19.161 0z" transform="matrix(0 .071482 -.071482 0 38.077 -44.072)" stroke="#030303" stroke-width="4.1969" fill="#ffede0"/>
    </g>
   </g>
  </g>
  <path opacity=".58594" fill="#bc2b25" d="m11.015 40.277h20.445l-0.000034-31.96h-6.815l-1.7038 2.9055h-3.4075l-1.7038-2.9055h-6.815v31.96z"/>
 </g>
 <path opacity=".38140" fill="url(#a)" d="m156.49 159.7a64 5.188 0 0 1 -128 0 64 5.188 0 1 1 128 0z"/>
 <g transform="matrix(3.6733,0,0,3.3504,-3.5752,20.547)">
  <path fill="#afaf00" d="m12 5.5-2.5174-1.3495-2.5388 1.3087 0.5056-2.8112-2.0292-2.0101 2.8298-0.3879 1.2847-2.551 1.2433 2.5714 2.823 0.43352-2.061 1.9771z" transform="matrix(.86499 0 0 .86499 3.3638 -4.5167)"/>
  <path fill="#ebeb00" d="m12 5.5-2.5174-1.3495-2.5388 1.3087 0.5056-2.8112-2.0292-2.0101 2.8298-0.3879 1.2847-2.551 1.2433 2.5714 2.823 0.43352-2.061 1.9771z" transform="matrix(.61624 0 0 .61624 5.7296 -4.1188)"/>
  <path fill="#ff0" d="m12 5.5-2.5174-1.3495-2.5388 1.3087 0.5056-2.8112-2.0292-2.0101 2.8298-0.3879 1.2847-2.551 1.2433 2.5714 2.823 0.43352-2.061 1.9771z" transform="matrix(.3815 0 0 .3815 7.9622 -3.7434)"/>
 </g>
</svg>
