<svg id="Слой_1" data-name="Слой 1"
  xmlns:cc="http://creativecommons.org/ns#"
  xmlns:rdf="http://www.w3.org/1999/02/22-rdf-syntax-ns#"
  xmlns="http://www.w3.org/2000/svg" viewBox="0 0 26 26">
  <metadata id="metadata43">
    <rdf:RDF>
      <cc:Work rdf:about="">
        <cc:license rdf:resource="http://creativecommons.org/licenses/by/4.0/" />
      </cc:Work>
      <cc:License rdf:about="http://creativecommons.org/licenses/by/4.0/">
        <cc:permits rdf:resource="http://creativecommons.org/ns#Reproduction" />
        <cc:permits rdf:resource="http://creativecommons.org/ns#Distribution" />
        <cc:requires rdf:resource="http://creativecommons.org/ns#Notice" />
        <cc:requires rdf:resource="http://creativecommons.org/ns#Attribution" />
        <cc:permits rdf:resource="http://creativecommons.org/ns#DerivativeWorks" />
      </cc:License>
    </rdf:RDF>
  </metadata>
  <defs>
    <style>.cls-1{fill:#545454;}.cls-2{fill:#e61c50;}.cls-3{fill:#b9b9b9;}</style>
  </defs>
  <title>normal</title>
  <path class="cls-1" d="M19.763,14.8466a1.3211,1.3211,0,0,1,1.01-.92l4.2294-.928-4.23-.9271a1.3214,1.3214,0,0,1-1.01-.92,7.0494,7.0494,0,0,0-.84-1.93,1.3461,1.3461,0,0,1,.03-1.4325L20.359,5.5841,18.1234,7.0315a1.2384,1.2384,0,0,1-1.3436.0192,6.9565,6.9565,0,0,0-7.5608.0007,1.239,1.239,0,0,1-1.3444-.0189L5.639,5.586,7.0452,7.7906a1.3461,1.3461,0,0,1,.031,1.4325,7.0514,7.0514,0,0,0-.8392,1.93,1.3214,1.3214,0,0,1-1.01.92l-4.23.9281,4.23.927a1.3216,1.3216,0,0,1,1.01.92,7.05,7.05,0,0,0,.84,1.93,1.3461,1.3461,0,0,1-.03,1.4325L5.641,20.4159l2.2356-1.4475A1.2384,1.2384,0,0,1,9.22,18.9492a6.956,6.956,0,0,0,7.5608-.0007,1.2392,1.2392,0,0,1,1.3444.019L20.361,20.414l-1.4065-2.2047a1.3461,1.3461,0,0,1-.0307-1.4325A7.0535,7.0535,0,0,0,19.763,14.8466ZM13,17.8557A4.8558,4.8558,0,1,1,17.82,13,4.8378,4.8378,0,0,1,13,17.8557Z"/>
  <polygon class="cls-2" points="15.811 13.003 12.998 1 10.189 13.003 15.811 13.003"/>
  <polygon class="cls-3" points="10.189 12.997 13.002 25 15.811 12.997 10.189 12.997"/>
</svg>