<?xml version="1.0" encoding="UTF-8" standalone="no"?>
<!-- Created with Inkscape (http://www.inkscape.org/) -->

<svg
   xmlns:dc="http://purl.org/dc/elements/1.1/"
   xmlns:cc="http://creativecommons.org/ns#"
   xmlns:rdf="http://www.w3.org/1999/02/22-rdf-syntax-ns#"
   xmlns:svg="http://www.w3.org/2000/svg"
   xmlns="http://www.w3.org/2000/svg"
   xmlns:xlink="http://www.w3.org/1999/xlink"
   xmlns:sodipodi="http://sodipodi.sourceforge.net/DTD/sodipodi-0.dtd"
   xmlns:inkscape="http://www.inkscape.org/namespaces/inkscape"
   width="26"
   height="26"
   id="svg2"
   version="1.1"
   inkscape:version="0.91 r13725"
   inkscape:export-filename="/home/baranovskiykonstantin/Рабочий стол/11.png"
   inkscape:export-xdpi="90"
   inkscape:export-ydpi="90"
   sodipodi:docname="online_help.svg">
  <defs
     id="defs4">
    <linearGradient
       id="linearGradient3813">
      <stop
         style="stop-color:#ffffff;stop-opacity:0.01960784;"
         offset="0"
         id="stop3815" />
      <stop
         style="stop-color:#ffffff;stop-opacity:0.29411766;"
         offset="1"
         id="stop3817" />
    </linearGradient>
    <linearGradient
       id="linearGradient3757">
      <stop
         style="stop-color:#6882b0;stop-opacity:1;"
         offset="0"
         id="stop3759" />
      <stop
         style="stop-color:#8d9ab3;stop-opacity:1;"
         offset="1"
         id="stop3761" />
    </linearGradient>
    <linearGradient
       inkscape:collect="always"
       xlink:href="#linearGradient3757"
       id="linearGradient3763"
       x1="14"
       y1="24.5"
       x2="14"
       y2="1.5"
       gradientUnits="userSpaceOnUse"
       gradientTransform="translate(-1,1028.3622)" />
    <linearGradient
       inkscape:collect="always"
       xlink:href="#linearGradient3813"
       id="linearGradient3819"
       x1="6"
       y1="13"
       x2="21.900002"
       y2="13"
       gradientUnits="userSpaceOnUse"
       gradientTransform="translate(-1,1028.3622)" />
    <linearGradient
       inkscape:collect="always"
       xlink:href="#linearGradient3757"
       id="linearGradient3839"
       gradientUnits="userSpaceOnUse"
       gradientTransform="translate(1,1026.3622)"
       x1="14"
       y1="24.5"
       x2="14"
       y2="1.5" />
  </defs>
  <sodipodi:namedview
     id="base"
     pagecolor="#ffffff"
     bordercolor="#666666"
     borderopacity="1.0"
     inkscape:pageopacity="0.0"
     inkscape:pageshadow="2"
     inkscape:zoom="32"
     inkscape:cx="15.024822"
     inkscape:cy="12.057591"
     inkscape:document-units="px"
     inkscape:current-layer="layer1"
     showgrid="true"
     inkscape:window-width="1920"
     inkscape:window-height="1054"
     inkscape:window-x="0"
     inkscape:window-y="0"
     inkscape:window-maximized="1"
     showguides="true"
     inkscape:guide-bbox="true"
     inkscape:snap-grids="true"
     inkscape:snap-bbox="false"
     inkscape:bbox-paths="true"
     inkscape:snap-page="false"
     inkscape:snap-nodes="false">
    <inkscape:grid
       type="xygrid"
       id="grid4210" />
  </sodipodi:namedview>
  <metadata
     id="metadata7">
    <rdf:RDF>
      <cc:Work
         rdf:about="">
        <dc:format>image/svg+xml</dc:format>
        <dc:type
           rdf:resource="http://purl.org/dc/dcmitype/StillImage" />
        <dc:title></dc:title>
      </cc:Work>
    </rdf:RDF>
  </metadata>
  <g
     inkscape:label="Layer 1"
     inkscape:groupmode="layer"
     id="layer1"
     transform="translate(0,-1026.3622)">
    <path
       style="fill:#7a8aff;fill-opacity:1;stroke:url(#linearGradient3839);stroke-width:1.39999998;stroke-linecap:round;stroke-linejoin:miter;stroke-miterlimit:4;stroke-opacity:1"
       d="m 4.5,1027.8622 20,0 0,21 -20,0 z"
       id="rect3837"
       inkscape:connector-curvature="0"
       sodipodi:nodetypes="ccccc" />
    <path
       style="fill:#ffffff;fill-opacity:1;stroke:none"
       d="m 3.5,1028.3622 20.499996,0 0,22 -21.499996,0 -0.5,-21 z"
       id="rect3845"
       inkscape:connector-curvature="0"
       sodipodi:nodetypes="cccccc" />
    <path
       style="fill:#99b4e5;fill-opacity:1;stroke:url(#linearGradient3763);stroke-width:1.39999998;stroke-linecap:round;stroke-linejoin:miter;stroke-miterlimit:4;stroke-opacity:1;stroke-dasharray:none"
       d="m 5,1029.8622 17.5,0 0,21 -17.5,0 z"
       id="rect2987"
       inkscape:connector-curvature="0"
       sodipodi:nodetypes="ccccc" />
    <path
       style="fill:none;stroke:url(#linearGradient3819);stroke-width:0.80000001;stroke-linecap:round;stroke-linejoin:miter;stroke-miterlimit:4;stroke-opacity:1"
       d="m 2.5,1030.8622 19,0 0,19 -19,0 z"
       id="rect3811"
       inkscape:connector-curvature="0"
       sodipodi:nodetypes="ccccc" />
    <path
       style="fill:#666666;fill-opacity:1;stroke:none"
       d="M 0.796875,2.8085938 3.5023638,0.796875 6.501618,0.79721997 6.5,2 4,2 2.886699,2.8121748 z"
       id="path3852"
       inkscape:connector-curvature="0"
       sodipodi:nodetypes="ccccccc"
       transform="translate(0,1026.3622)" />
    <path
       sodipodi:nodetypes="ccccc"
       inkscape:connector-curvature="0"
       id="path3876"
       d="m 1.5,1029.8622 2.5,0 0,21 -2.5,0 z"
       style="fill:#4d4d4d;fill-opacity:1;stroke:#4d4d4d;stroke-width:1.39999998000000003;stroke-linecap:round;stroke-linejoin:miter;stroke-miterlimit:4;stroke-opacity:1;stroke-dasharray:none" />
    <path
       id="path3094"
       d="m 13.402155,1032.3687 c 1.987453,0 3.309839,0.5074 4.451588,1.3507 0.761129,0.5719 1.141693,1.2578 1.141747,2.0581 -1.3e-5,0.9863 -0.697711,2.0939 -2.093187,3.323 -0.253728,0.2144 -0.643905,0.5685 -1.214778,1.0401 -0.749692,0.6034 -1.316258,1.5376 -1.633404,2.6809 -0.02115,0.1 -0.04229,0.4543 -0.06343,0.5544 l -0.981107,0 c 0.04228,-1.1005 0.138454,-2.1928 0.73047,-3.1217 l 1.108991,-1.3612 c 0.782553,-1.215 1.173564,-2.1863 1.173564,-3.2012 0,-0.9285 -0.423648,-1.5555 -1.459555,-2.07 -0.550093,-0.2716 -1.259503,-0.2589 -1.957428,-0.2589 -1.099113,0 -1.690084,0.132 -2.105516,0.394 -0.323103,0.2213 -0.39491,0.3895 -0.45741,0.6118 0.02154,0.2944 -0.1591028,0.5061 0.262891,0.8082 0.359429,0.3287 0.539165,0.6075 0.539165,0.836 -5e-6,0.4432 -0.29601,0.7219 -0.8880196,0.8362 -0.1268661,0.029 -0.2642915,0.043 -0.4122921,0.043 -1.0148571,-2e-4 -1.5223123,-0.4433 -1.5223123,-1.3293 -2e-6,-1.0863 0.6871585,-1.9296 2.061424,-2.5298 0.888019,-0.3859 1.913428,-0.6647 3.076333,-0.6648"
       inkscape:connector-curvature="0"
       style="fill:#ffffff"
       sodipodi:nodetypes="ccccccccccscsccccccscc" />
    <circle
       style="opacity:0.8;fill:#ffffff;fill-opacity:1;fill-rule:nonzero;stroke:none;stroke-width:1;stroke-linecap:square;stroke-linejoin:miter;stroke-miterlimit:4;stroke-dasharray:none;stroke-opacity:1"
       id="path4212"
       cx="13.484375"
       cy="1046.8622"
       r="1.5" />
  </g>
</svg>
