<?xml version="1.0" encoding="UTF-8" standalone="no"?>
<svg xmlns:dc="http://purl.org/dc/elements/1.1/"
   xmlns:cc="http://creativecommons.org/ns#"
   xmlns:rdf="http://www.w3.org/1999/02/22-rdf-syntax-ns#"
   xmlns:svg="http://www.w3.org/2000/svg"
   xmlns="http://www.w3.org/2000/svg"
   xmlns:sodipodi="http://sodipodi.sourceforge.net/DTD/sodipodi-0.dtd"
   xmlns:inkscape="http://www.inkscape.org/namespaces/inkscape" id="Слой_1" data-name="Слой 1" viewBox="0 0 24 24" version="1.1" sodipodi:docname="online_help.svg" inkscape:version="1.0.1 (3bc2e813f5, 2020-09-07)">
   <sodipodi:namedview pagecolor="#ffffff" bordercolor="#666666" borderopacity="1" objecttolerance="10" gridtolerance="10" guidetolerance="10" inkscape:pageopacity="0" inkscape:pageshadow="2" inkscape:window-width="1609" inkscape:window-height="1286" id="namedview30" showgrid="true" inkscape:zoom="27.961538" inkscape:cx="10.844545" inkscape:cy="13.68463" inkscape:window-x="0" inkscape:window-y="37" inkscape:window-maximized="0" inkscape:document-rotation="0" inkscape:current-layer="Слой_1">
      <inkscape:grid type="xygrid" id="grid_kicad" spacingx="0.5" spacingy="0.5" color="#9999ff" opacity="0.13" empspacing="2" />
   </sodipodi:namedview>
   <metadata id="metadata43">
      <rdf:RDF>
         <cc:Work rdf:about="">
            <cc:license rdf:resource="http://creativecommons.org/licenses/by-sa/4.0/" />
            <dc:format>image/svg+xml</dc:format>
            <dc:type rdf:resource="http://purl.org/dc/dcmitype/StillImage" />
            <dc:title>add_arc</dc:title>
         </cc:Work>
         <cc:License rdf:about="http://creativecommons.org/licenses/by-sa/4.0/">
            <cc:permits rdf:resource="http://creativecommons.org/ns#Reproduction" />
            <cc:permits rdf:resource="http://creativecommons.org/ns#Distribution" />
            <cc:requires rdf:resource="http://creativecommons.org/ns#Notice" />
            <cc:requires rdf:resource="http://creativecommons.org/ns#Attribution" />
            <cc:permits rdf:resource="http://creativecommons.org/ns#DerivativeWorks" />
            <cc:requires rdf:resource="http://creativecommons.org/ns#ShareAlike" />
         </cc:License>
      </rdf:RDF>
   </metadata>
   <defs id="defs25989">
      <style id="style25987">.cls-1{fill:#b9b9b9;}.cls-2{fill:#545454;}.cls-3{fill:#1a81c4;}.cls-4{fill:#bf2641;}.cls-5{fill:#fff;}</style>
   </defs>
   <title id="title25991">online_help</title>
   <path class="cls-1" d="m 3.4939,0.0041 h 13.9816 a 3.4978,3.4978 0 0 1 3.4978,3.4978 V 17.5032 A 3.4978,3.4978 0 0 1 17.4755,21.001 H 3.4938 A 3.4978,3.4978 0 0 1 -0.004,17.5032 V 3.502 A 3.4979,3.4979 0 0 1 3.4939,0.0041 Z" id="path25993" />
   <path class="cls-2" d="M 12.3849,4.7342 V 4.72 H 11.82 v 0.0143 a 6.2044,6.2044 0 1 0 0.5654,0 z m 0,4.4154 q 0.873,-0.009 1.8419,-0.0689 a 12.2043,12.2043 0 0 1 0.1276,1.5763 h -1.9695 z m 0,-0.5618 V 5.5 c 0.705,0.2384 1.3953,1.3452 1.7426,3.0252 -0.6095,0.0372 -1.1914,0.0567 -1.7426,0.0626 z M 11.82,5.5 V 8.5876 C 11.1893,8.5838 10.6049,8.5642 10.0756,8.5331 10.4218,6.8483 11.1134,5.7382 11.82,5.5 Z m 0,3.655 v 1.502 H 9.85 A 12.2211,12.2211 0 0 1 9.9754,9.0941 C 10.533,9.128 11.1506,9.1505 11.82,9.1545 Z M 9.2847,10.657 H 6.4768 A 5.6042,5.6042 0 0 1 6.9029,8.7431 24.9423,24.9423 0 0 0 9.4111,9.0554 12.7276,12.7276 0 0 0 9.2847,10.657 Z m 0.0014,0.5654 a 12.5962,12.5962 0 0 0 0.1414,1.6421 c -1.2112,0.0908 -2.084,0.2221 -2.5,0.2944 A 5.5983,5.5983 0 0 1 6.4786,11.2224 Z m 0.5651,0 H 11.82 v 1.5492 c -0.6607,0.0033 -1.2737,0.0233 -1.8279,0.0553 A 12.091,12.091 0 0 1 9.8512,11.2224 Z m 1.9688,2.1143 v 2.9864 C 11.1278,16.089 10.45,15.0168 10.0968,13.3872 10.6212,13.358 11.1981,13.34 11.82,13.3367 Z m 0.5654,2.9864 v -2.9864 c 0.5448,0.0062 1.12,0.0264 1.72,0.0628 -0.3539,1.6227 -1.03,2.6905 -1.7205,2.9236 z m 0,-3.5517 v -1.549 h 1.9683 a 12.0766,12.0766 0 0 1 -0.1423,1.6162 c -0.6387,-0.04 -1.2487,-0.0608 -1.8265,-0.0672 z m 2.5334,-1.549 h 2.8072 a 5.5942,5.5942 0 0 1 -0.454,1.947 c -0.8659,-0.1322 -1.7,-0.2251 -2.4979,-0.2878 a 12.5724,12.5724 0 0 0 0.1442,-1.6592 z M 14.9202,10.657 A 12.7189,12.7189 0 0 0 14.7916,9.0418 c 0.8,-0.064 1.64,-0.16 2.5119,-0.2946 a 5.603,5.603 0 0 1 0.4246,1.91 z M 17.045,8.2147 C 16.229,8.3364 15.4438,8.4234 14.6937,8.4821 A 5.9093,5.9093 0 0 0 13.2728,5.4093 5.6569,5.6569 0 0 1 17.045,8.2147 Z M 10.9316,5.4093 A 5.9208,5.9208 0 0 0 9.5079,8.4947 C 8.3968,8.4091 7.586,8.2885 7.1597,8.2147 A 5.6569,5.6569 0 0 1 10.9316,5.4093 Z M 7.1921,13.6876 C 7.647,13.6132 8.4538,13.502 9.5292,13.4235 a 5.7636,5.7636 0 0 0 1.4367,3.0246 5.6551,5.6551 0 0 1 -3.7738,-2.7605 z m 6.0464,2.7605 a 5.7474,5.7474 0 0 0 1.4329,-3.0075 c 0.7453,0.0573 1.5246,0.1425 2.3324,0.2609 a 5.6542,5.6542 0 0 1 -3.7653,2.7466 z" id="path25995" />
   <path class="cls-3" d="m 3.4938,0.0041 h 0.48 V 21.001 h -0.48 A 3.4978,3.4978 0 0 1 -0.004,17.5032 V 3.5019 A 3.4978,3.4978 0 0 1 3.4938,0.0041 Z" id="path25997" />
   <path class="cls-4" d="M 24.0065,17 A 7.0065,7.0065 0 1 1 17,10 a 7.0032,7.0032 0 0 1 7.0065,7 z" id="path25999" />
   <path class="cls-5" d="m 15.9332,19.1182 a 3.4488,3.4488 0 0 1 0.2364,-1.4659 4.2208,4.2208 0 0 1 1.0156,-1.1084 6.5544,6.5544 0 0 0 0.8867,-1.0429 1.96,1.96 0 0 0 0.3291,-1.101 1.4789,1.4789 0 0 0 -0.376,-1.0791 1.427,1.427 0 0 0 -1.0693,-0.3838 1.5777,1.5777 0 0 0 -1.0078,0.3262 1.1511,1.1511 0 0 0 -0.415,0.9648 H 13.859 l -0.0215,-0.043 a 2.37,2.37 0 0 1 0.8545,-1.99 3.4705,3.4705 0 0 1 2.2637,-0.7129 3.346,3.346 0 0 1 2.3428,0.7666 2.7414,2.7414 0 0 1 0.84,2.13 2.9558,2.9558 0 0 1 -0.5254,1.6885 6.51,6.51 0 0 1 -1.3273,1.4227 1.6386,1.6386 0 0 0 -0.5108,0.6817 3.2688,3.2688 0 0 0 -0.1035,0.9463 z M 17.7,22.0723 H 15.9264 V 20.4014 H 17.7 Z" id="path26001" />
   <polygon class="cls-2" points="15.482,4.091 14.001,5.091 14.001,1 17.028,1 17.028,5.091 " id="polygon26003" transform="translate(-1,-1)" />
</svg>
