<svg id="Слой_1" data-name="Слой 1"
  xmlns:dc="http://purl.org/dc/elements/1.1/"
  xmlns:cc="http://creativecommons.org/ns#"
  xmlns:rdf="http://www.w3.org/1999/02/22-rdf-syntax-ns#"
  xmlns="http://www.w3.org/2000/svg" viewBox="0 0 26 26">
  <metadata id="metadata43">
    <rdf:RDF>
      <cc:Work rdf:about="">
        <cc:license rdf:resource="http://creativecommons.org/licenses/by-sa/4.0/" />
        <dc:format>image/svg+xml</dc:format>
        <dc:type rdf:resource="http://purl.org/dc/dcmitype/StillImage" />
        <dc:title>add_arc</dc:title>
      </cc:Work>
      <cc:License rdf:about="http://creativecommons.org/licenses/by-sa/4.0/">
        <cc:permits rdf:resource="http://creativecommons.org/ns#Reproduction" />
        <cc:permits rdf:resource="http://creativecommons.org/ns#Distribution" />
        <cc:requires rdf:resource="http://creativecommons.org/ns#Notice" />
        <cc:requires rdf:resource="http://creativecommons.org/ns#Attribution" />
        <cc:permits rdf:resource="http://creativecommons.org/ns#DerivativeWorks" />
        <cc:requires rdf:resource="http://creativecommons.org/ns#ShareAlike" />
      </cc:License>
    </rdf:RDF>
  </metadata>
  <defs>
    <style>.cls-1{fill:#b9b9b9;}.cls-2{fill:#545454;}.cls-3{fill:#1a81c4;}.cls-4{fill:#e61c50;}.cls-5{fill:#fff;}</style>
  </defs>
  <title>online_help</title>
  <path class="cls-1" d="M4.4939,1.0041H18.4755a3.4978,3.4978,0,0,1,3.4978,3.4978V18.5032a3.4978,3.4978,0,0,1-3.4978,3.4978H4.4938A3.4978,3.4978,0,0,1,.996,18.5032V4.502A3.4979,3.4979,0,0,1,4.4939,1.0041Z"/>
  <path class="cls-2" d="M13.3849,5.7342V5.72H12.82v.0143a6.2044,6.2044,0,1,0,.5654,0Zm0,4.4154q.873-.009,1.8419-.0689a12.2043,12.2043,0,0,1,.1276,1.5763H13.3849Zm0-.5618V6.5c.705.2384,1.3953,1.3452,1.7426,3.0252C14.518,9.5624,13.9361,9.5819,13.3849,9.5878ZM12.82,6.5V9.5876c-.6307-.0038-1.2151-.0234-1.7444-.0545C11.4218,7.8483,12.1134,6.7382,12.82,6.5Zm0,3.655V11.657H10.85a12.2211,12.2211,0,0,1,.1254-1.5629C11.533,10.128,12.1506,10.1505,12.82,10.1545ZM10.2847,11.657H7.4768a5.6042,5.6042,0,0,1,.4261-1.9139,24.9423,24.9423,0,0,0,2.5082.3123A12.7276,12.7276,0,0,0,10.2847,11.657Zm.0014.5654a12.5962,12.5962,0,0,0,.1414,1.6421c-1.2112.0908-2.084.2221-2.5.2944a5.5983,5.5983,0,0,1-.4489-1.9365Zm.5651,0H12.82v1.5492c-.6607.0033-1.2737.0233-1.8279.0553A12.091,12.091,0,0,1,10.8512,12.2224ZM12.82,14.3367v2.9864c-.6922-.2341-1.37-1.3063-1.7232-2.9359C11.6212,14.358,12.1981,14.34,12.82,14.3367Zm.5654,2.9864V14.3367c.5448.0062,1.12.0264,1.72.0628C14.7515,16.0222,14.0754,17.09,13.3849,17.3231Zm0-3.5517v-1.549h1.9683a12.0766,12.0766,0,0,1-.1423,1.6162C14.5727,13.7986,13.9627,13.7778,13.3849,13.7714Zm2.5334-1.549H18.726a5.5942,5.5942,0,0,1-.454,1.947c-.8659-.1322-1.7-.2251-2.4979-.2878A12.5724,12.5724,0,0,0,15.9183,12.2224Zm.0014-.5654a12.7189,12.7189,0,0,0-.1286-1.6152c.8-.064,1.64-.16,2.5119-.2946a5.603,5.603,0,0,1,.4246,1.91ZM18.045,9.2147c-.816.1217-1.6012.2087-2.3513.2674a5.9093,5.9093,0,0,0-1.4209-3.0728A5.6569,5.6569,0,0,1,18.045,9.2147ZM11.9316,6.4093a5.9208,5.9208,0,0,0-1.4237,3.0854c-1.1111-.0856-1.9219-.2062-2.3482-.28A5.6569,5.6569,0,0,1,11.9316,6.4093ZM8.1921,14.6876c.4549-.0744,1.2617-.1856,2.3371-.2641a5.7636,5.7636,0,0,0,1.4367,3.0246A5.6551,5.6551,0,0,1,8.1921,14.6876Zm6.0464,2.7605a5.7474,5.7474,0,0,0,1.4329-3.0075c.7453.0573,1.5246.1425,2.3324.2609A5.6542,5.6542,0,0,1,14.2385,17.4481Z"/>
  <path class="cls-3" d="M4.4938,1.0041h.48a0,0,0,0,1,0,0V22.001a0,0,0,0,1,0,0H4.4938A3.4978,3.4978,0,0,1,.996,18.5032V4.5019A3.4978,3.4978,0,0,1,4.4938,1.0041Z"/>
  <path class="cls-4" d="M25.0065,18A7.0065,7.0065,0,1,1,18,11,7.0032,7.0032,0,0,1,25.0065,18Z"/>
  <path class="cls-5" d="M16.9332,20.1182a3.4488,3.4488,0,0,1,.2364-1.4659,4.2208,4.2208,0,0,1,1.0156-1.1084,6.5544,6.5544,0,0,0,.8867-1.0429A1.96,1.96,0,0,0,19.401,15.4a1.4789,1.4789,0,0,0-.376-1.0791,1.427,1.427,0,0,0-1.0693-.3838,1.5777,1.5777,0,0,0-1.0078.3262,1.1511,1.1511,0,0,0-.415.9648H14.859l-.0215-.043a2.37,2.37,0,0,1,.8545-1.99,3.4705,3.4705,0,0,1,2.2637-.7129,3.346,3.346,0,0,1,2.3428.7666,2.7414,2.7414,0,0,1,.84,2.13,2.9558,2.9558,0,0,1-.5254,1.6885A6.51,6.51,0,0,1,19.2858,18.49a1.6386,1.6386,0,0,0-.5108.6817,3.2688,3.2688,0,0,0-.1035.9463ZM18.7,23.0723H16.9264V21.4014H18.7Z"/>
  <polygon class="cls-2" points="17.028 5.091 15.482 4.091 14.001 5.091 14.001 1 17.028 1 17.028 5.091"/>
</svg>