<?xml version="1.0" encoding="UTF-8" standalone="no"?>
<!-- Created with Inkscape (http://www.inkscape.org/) -->

<svg
   xmlns:dc="http://purl.org/dc/elements/1.1/"
   xmlns:cc="http://creativecommons.org/ns#"
   xmlns:rdf="http://www.w3.org/1999/02/22-rdf-syntax-ns#"
   xmlns:svg="http://www.w3.org/2000/svg"
   xmlns="http://www.w3.org/2000/svg"
   xmlns:xlink="http://www.w3.org/1999/xlink"
   xmlns:sodipodi="http://sodipodi.sourceforge.net/DTD/sodipodi-0.dtd"
   xmlns:inkscape="http://www.inkscape.org/namespaces/inkscape"
   version="1.0"
   width="48"
   height="48"
   id="svg2"
   inkscape:version="0.47 r22583"
   sodipodi:docname="library.svg">
  <metadata
     id="metadata166">
    <rdf:RDF>
      <cc:Work
         rdf:about="">
        <dc:format>image/svg+xml</dc:format>
        <dc:type
           rdf:resource="http://purl.org/dc/dcmitype/StillImage" />
        <dc:title />
      </cc:Work>
    </rdf:RDF>
  </metadata>
  <sodipodi:namedview
     pagecolor="#ffffff"
     bordercolor="#666666"
     borderopacity="1"
     objecttolerance="10"
     gridtolerance="10"
     guidetolerance="10"
     inkscape:pageopacity="0"
     inkscape:pageshadow="2"
     inkscape:window-width="1280"
     inkscape:window-height="949"
     id="namedview164"
     showgrid="false"
     inkscape:zoom="6.9532166"
     inkscape:cx="42.968253"
     inkscape:cy="0.72269904"
     inkscape:window-x="0"
     inkscape:window-y="25"
     inkscape:window-maximized="1"
     inkscape:current-layer="svg2" />
  <defs
     id="defs4">
    <inkscape:perspective
       sodipodi:type="inkscape:persp3d"
       inkscape:vp_x="0 : 24 : 1"
       inkscape:vp_y="0 : 1000 : 0"
       inkscape:vp_z="48 : 24 : 1"
       inkscape:persp3d-origin="24 : 16 : 1"
       id="perspective51" />
    <linearGradient
       id="linearGradient6881-1">
      <stop
         id="stop6883-0"
         style="stop-color:#ffffff;stop-opacity:1"
         offset="0" />
      <stop
         id="stop6885-3"
         style="stop-color:#ffffff;stop-opacity:0"
         offset="1" />
    </linearGradient>
    <linearGradient
       x1="14.462892"
       y1="12.284524"
       x2="34.534348"
       y2="39.684914"
       id="linearGradient4064"
       xlink:href="#linearGradient3264-3"
       gradientUnits="userSpaceOnUse"
       gradientTransform="matrix(0.92673346,0,0,0.8449938,4.7270711,52.187103)" />
    <linearGradient
       id="linearGradient3264-3">
      <stop
         id="stop3266-9"
         style="stop-color:#c9c9c9;stop-opacity:1"
         offset="0" />
      <stop
         id="stop3276-4"
         style="stop-color:#f8f8f8;stop-opacity:1"
         offset="0.25" />
      <stop
         id="stop3272-8"
         style="stop-color:#e2e2e2;stop-opacity:1"
         offset="0.5" />
      <stop
         id="stop3274-1"
         style="stop-color:#b0b0b0;stop-opacity:1"
         offset="0.75" />
      <stop
         id="stop3268-2"
         style="stop-color:#c9c9c9;stop-opacity:1"
         offset="1" />
    </linearGradient>
  </defs>
  <g
     id="g3324"
     transform="matrix(1.4518901,0,0,1.534722,-109.55748,7.2628442)">
    <path
       style="opacity:0.62891002;fill:#ffffff;fill-rule:evenodd;stroke:#000000;stroke-width:1.14577985;stroke-linejoin:round"
       d="M 91.833158,5.9599918 C 90.36789,3.4650508 81.632804,0.18636824 77.608639,-0.4748568 c 0.212367,7.7695243 0.216449,12.0237868 -0.0029,19.2059598 5.248608,0.701362 10.322859,2.865742 14.342476,5.00575 0,1.044902 -0.114839,-17.149972 -0.114839,-17.7768612 z"
       id="path37" />
    <path
       style="opacity:0.62891002;fill:#ffffff;fill-rule:evenodd;stroke:#000000;stroke-width:1.14577985;stroke-linejoin:round"
       d="M 91.833158,5.910569 C 95.595333,2.3320981 100.68202,0.87568624 106.54376,-0.72145056 106.10171,7.5899037 106.38472,11.893329 106.4318,18.583095 c -5.30622,0.06103 -10.808937,2.619409 -14.483781,5.153498 0,-0.03876 -0.114839,-17.1991348 -0.114839,-17.826024 z"
       id="path39" />
    <path
       style="opacity:0.62891002;fill:#ffffff;fill-opacity:0.27935001;fill-rule:evenodd"
       d="m 103.37834,26.404383 -22.959972,0 c -3.531113,0 -5.260131,-1.483178 -5.260131,-4.512301 0,0 8.375213,-17.3018822 33.479623,-19.9402793 l 0,19.9402793 c 0,3.029097 -1.72899,4.512301 -5.26013,4.512301 z"
       id="path35" />
    <path
       style="opacity:0.62891002;fill:none;stroke:#000000;stroke-width:0.22915597"
       d="m 104.19099,2.3851626 c 0,0 -5.922988,1.4842967 -10.631543,4.970373"
       id="path49" />
    <path
       style="opacity:0.62891002;fill:none;stroke:#000000;stroke-width:0.35106131"
       d="m 103.83925,5.095613 c 0,0 -5.450259,0.8688008 -10.277681,4.2050999"
       id="path51" />
    <path
       style="opacity:0.62891002;fill:none;stroke:#000000;stroke-width:0.35106131"
       d="m 103.65124,7.4970408 c 0,0 -5.08213,0.8559509 -10.090277,3.9249512"
       id="path53" />
    <path
       style="opacity:0.62891002;fill:none;stroke:#000000;stroke-width:0.35106131"
       d="m 103.65428,9.9413885 c 0,0 -4.924762,0.4508915 -10.093014,3.7142535"
       id="path55" />
    <path
       style="opacity:0.62891002;fill:none;stroke:#000000;stroke-width:0.35106131"
       d="m 103.58757,11.980469 c -0.0574,0.01248 -4.465672,0.854885 -10.026304,3.834169"
       id="path57" />
    <path
       style="opacity:0.62891002;fill:none;stroke:#000000;stroke-width:0.35106131"
       d="m 103.83621,13.969607 c -0.0574,0.01248 -4.787087,0.92405 -10.275247,4.033941"
       id="path59" />
    <path
       style="opacity:0.62891002;fill:none;stroke:#000000;stroke-width:0.35106131"
       d="m 103.91202,16.095177 c 0,0 -5.176134,1.042509 -10.351664,4.089607"
       id="path61" />
    <path
       style="opacity:0.62891002;fill:#ffffff;fill-rule:evenodd;stroke:#000000;stroke-width:1.07559562;stroke-linejoin:round"
       d="m 91.873791,5.895482 c 3.315214,-3.9488817 7.798166,-5.90550436 12.963689,-8.0795873 -0.38956,8.3547943 -0.14014,12.6303863 -0.0987,19.3154703 -4.67611,0.583189 -9.525363,3.683039 -12.763859,6.578695 0,-0.03875 -0.1012,-17.1876888 -0.1012,-17.8148381 z"
       id="path63" />
    <path
       style="opacity:0.62891002;fill:none;stroke:#000000;stroke-width:0.35106131"
       d="m 102.76581,1.1537545 c 0,0 -5.219798,2.0671476 -9.368895,6.0165756"
       id="path65" />
    <path
       style="opacity:0.62891002;fill:none;stroke:#000000;stroke-width:0.35106131"
       d="m 102.28974,6.3189574 c 0,0 -4.478402,1.3560315 -8.891915,4.9178286"
       id="path67" />
    <path
       style="opacity:0.62891002;fill:none;stroke:#000000;stroke-width:0.35106131"
       d="m 102.23213,10.808889 c -0.0506,0.01813 -3.935321,1.294331 -8.835518,4.820804"
       id="path69" />
    <path
       style="opacity:0.62891002;fill:none;stroke:#000000;stroke-width:0.35106131"
       d="m 102.5202,14.891472 c 0,0 -4.561492,1.55185 -9.122375,5.108237"
       id="path71" />
    <path
       style="opacity:0.62891002;fill:none;stroke:#000000;stroke-width:0.35106131"
       d="m 81.120346,2.3357398 c 0,0 5.224956,1.4842967 9.378297,4.970373"
       id="path73" />
    <path
       style="opacity:0.62891002;fill:none;stroke:#000000;stroke-width:0.35106131"
       d="m 81.432369,5.0464503 c 0,0 4.807712,0.8688008 9.065971,4.2050999"
       id="path75" />
    <path
       style="opacity:0.62891002;fill:none;stroke:#000000;stroke-width:0.35106131"
       d="m 81.597933,7.4478782 c 0,0 4.482952,0.8559508 8.90071,3.9249508"
       id="path77" />
    <path
       style="opacity:0.62891002;fill:none;stroke:#000000;stroke-width:0.35106131"
       d="m 81.595204,9.8922258 c 0,0 4.344073,0.4508922 8.903136,3.7142532"
       id="path79" />
    <path
       style="opacity:0.62891002;fill:none;stroke:#000000;stroke-width:0.35106131"
       d="m 81.654334,11.931306 c 0.05065,0.01248 3.939261,0.854885 8.844309,3.834169"
       id="path81" />
    <path
       style="opacity:0.62891002;fill:none;stroke:#000000;stroke-width:0.35106131"
       d="m 81.434492,13.920184 c 0.05065,0.01248 4.222781,0.92405 9.064151,4.033941"
       id="path83" />
    <path
       style="opacity:0.62891002;fill:none;stroke:#000000;stroke-width:0.35106131"
       d="m 81.367175,16.045937 c 0,0 4.565734,1.042509 9.131468,4.089606"
       id="path85" />
    <path
       style="opacity:0.62891002;fill:#ffffff;fill-rule:evenodd;stroke:#000000;stroke-width:1.01021397;stroke-linejoin:round"
       d="m 91.986593,5.8463193 c -2.92435,-3.9488817 -6.878773,-5.90550434 -11.43541,-8.0795873 0.34362,8.3547943 0.123624,12.630387 0.08703,19.315471 4.124838,0.583163 8.402503,3.683039 11.259233,6.578695 0,-0.03876 0.08927,-17.1876895 0.08927,-17.8148388 z"
       id="path87" />
    <path
       style="opacity:0.62891002;fill:none;stroke:#000000;stroke-width:0.35106131"
       d="m 82.379053,1.1045918 c 0,0 4.604245,2.0671477 8.264534,6.0165756"
       id="path89" />
    <path
       style="opacity:0.62891002;fill:none;stroke:#000000;stroke-width:0.35106131"
       d="m 82.799633,6.2697947 c 0,0 3.950481,1.3560316 7.843651,4.9178283"
       id="path91" />
    <path
       style="opacity:0.62891002;fill:none;stroke:#000000;stroke-width:0.35106131"
       d="m 82.849666,10.759726 c 0.04463,0.01813 3.471377,1.294331 7.793921,4.820804"
       id="path93" />
    <path
       style="opacity:0.62891002;fill:none;stroke:#000000;stroke-width:0.35106131"
       d="m 82.596469,14.842309 c 0,0 4.023559,1.55185 8.047118,5.108237"
       id="path95" />
  </g>
</svg>
