<svg id="Слой_1" data-name="Слой 1"
  xmlns:cc="http://creativecommons.org/ns#"
  xmlns:rdf="http://www.w3.org/1999/02/22-rdf-syntax-ns#"
  xmlns="http://www.w3.org/2000/svg" viewBox="0 0 26 26">
  <metadata id="metadata43">
    <rdf:RDF>
      <cc:Work rdf:about="">
        <cc:license rdf:resource="http://creativecommons.org/licenses/by/4.0/" />
      </cc:Work>
      <cc:License rdf:about="http://creativecommons.org/licenses/by/4.0/">
        <cc:permits rdf:resource="http://creativecommons.org/ns#Reproduction" />
        <cc:permits rdf:resource="http://creativecommons.org/ns#Distribution" />
        <cc:requires rdf:resource="http://creativecommons.org/ns#Notice" />
        <cc:requires rdf:resource="http://creativecommons.org/ns#Attribution" />
        <cc:permits rdf:resource="http://creativecommons.org/ns#DerivativeWorks" />
      </cc:License>
    </rdf:RDF>
  </metadata>
  <defs>
    <style>.cls-1{fill:#ededed;}.cls-2{fill:#d8d8d8;}.cls-3{fill:#b9b9b9;}.cls-4{fill:#1a81c4;}.cls-5{fill:none;stroke:#545454;stroke-linecap:round;stroke-linejoin:round;}.cls-6{fill:#e61c50;}.cls-7{fill:#fff;}</style>
  </defs>
  <title>open_project</title>
  <rect class="cls-1" x="5.0342" y="2.9897" width="16.9934" height="18.9634"/>
  <rect class="cls-2" x="4.0311" y="2.057" width="16.9934" height="19.9383"/>
  <rect class="cls-3" x="3.0105" y="1.0047" width="16.9934" height="20.9906"/>
  <path class="cls-4" d="M4.1005,4.9805H1.9892a1,1,0,0,1,0-2H4.1005a1,1,0,0,1,0,2Z"/>
  <path class="cls-4" d="M4.1005,10.001H1.9892a1,1,0,0,1,0-2H4.1005a1,1,0,0,1,0,2Z"/>
  <path class="cls-4" d="M4.1005,15.0225H1.9892a1,1,0,0,1,0-2H4.1005a1,1,0,0,1,0,2Z"/>
  <path class="cls-4" d="M4.1005,20.0439H1.9892a1,1,0,0,1,0-2H4.1005a1,1,0,0,1,0,2Z"/>
  <line class="cls-5" x1="7.9489" y1="7.2651" x2="12.3131" y2="7.2651"/>
  <line class="cls-5" x1="7.9489" y1="9.6114" x2="17.0996" y2="9.6114"/>
  <line class="cls-5" x1="7.9489" y1="11.9578" x2="17.0996" y2="11.9578"/>
  <path class="cls-6" d="M25.0065,18A7.0065,7.0065,0,1,1,18,11,7.0032,7.0032,0,0,1,25.0065,18Z"/>
  <path class="cls-7" d="M21.1641,21.8672H15.6729A1.6254,1.6254,0,0,1,14.05,20.2441v-4.707a1.6254,1.6254,0,0,1,1.6231-1.623h5.4912a1.6254,1.6254,0,0,1,1.623,1.623v4.707A1.6254,1.6254,0,0,1,21.1641,21.8672Zm-5.4912-7.4531a1.1245,1.1245,0,0,0-1.1231,1.123v4.707a1.1245,1.1245,0,0,0,1.1231,1.1231h5.4912a1.1245,1.1245,0,0,0,1.123-1.1231v-4.707a1.1244,1.1244,0,0,0-1.123-1.123Z"/>
  <path class="cls-7" d="M21.271,22.55H15.2644a1.5017,1.5017,0,0,1-1.5017-1.5017V15.0414A1.5016,1.5016,0,0,1,15.2644,13.54h1.3747a1.5006,1.5006,0,0,1,.9327.3251l1.403,1.1135a1.2866,1.2866,0,0,0,.8.2787h1.4979a1.5,1.5,0,0,1,1.5,1.5v4.29A1.5017,1.5017,0,0,1,21.271,22.55Z"/>
</svg>