<?xml version="1.0" encoding="UTF-8" standalone="no"?>
<svg
   xmlns:dc="http://purl.org/dc/elements/1.1/"
   xmlns:cc="http://creativecommons.org/ns#"
   xmlns:rdf="http://www.w3.org/1999/02/22-rdf-syntax-ns#"
   xmlns:svg="http://www.w3.org/2000/svg"
   xmlns="http://www.w3.org/2000/svg"
   xmlns:sodipodi="http://sodipodi.sourceforge.net/DTD/sodipodi-0.dtd"
   xmlns:inkscape="http://www.inkscape.org/namespaces/inkscape"
   id="Слой_1"
   data-name="Слой 1"
   viewBox="0 0 24 24"
   version="1.1"
   sodipodi:docname="options_board.svg"
   inkscape:version="0.92.2 5c3e80d, 2017-08-06"
   inkscape:export-filename="/Users/jeff/kicad_dev/kicad/bitmaps_png/png_26/options_board.png"
   inkscape:export-xdpi="96"
   inkscape:export-ydpi="96">
  <sodipodi:namedview
     pagecolor="#ffffff"
     bordercolor="#666666"
     borderopacity="1"
     objecttolerance="10"
     gridtolerance="10"
     guidetolerance="10"
     inkscape:pageopacity="0"
     inkscape:pageshadow="2"
     inkscape:window-width="1433"
     inkscape:window-height="800"
     id="namedview30"
     showgrid="true"
     inkscape:zoom="27.961538"
     inkscape:cx="6.1455083"
     inkscape:cy="11.138637"
     inkscape:window-x="0"
     inkscape:window-y="0"
     inkscape:window-maximized="0"
     inkscape:document-rotation="0"
     inkscape:current-layer="g952">
    <inkscape:grid
       type="xygrid"
       id="grid_kicad"
       spacingx="0.5"
       spacingy="0.5"
       color="#9999ff"
       opacity="0.13"
       empspacing="2" />
  </sodipodi:namedview>
  <metadata
     id="metadata43">
    <rdf:RDF>
      <cc:Work
         rdf:about="">
        <cc:license
           rdf:resource="http://creativecommons.org/licenses/by-sa/4.0/" />
        <dc:format>image/svg+xml</dc:format>
        <dc:type
           rdf:resource="http://purl.org/dc/dcmitype/StillImage" />
        <dc:title>add_arc</dc:title>
      </cc:Work>
      <cc:License
         rdf:about="http://creativecommons.org/licenses/by-sa/4.0/">
        <cc:permits
           rdf:resource="http://creativecommons.org/ns#Reproduction" />
        <cc:permits
           rdf:resource="http://creativecommons.org/ns#Distribution" />
        <cc:requires
           rdf:resource="http://creativecommons.org/ns#Notice" />
        <cc:requires
           rdf:resource="http://creativecommons.org/ns#Attribution" />
        <cc:permits
           rdf:resource="http://creativecommons.org/ns#DerivativeWorks" />
        <cc:requires
           rdf:resource="http://creativecommons.org/ns#ShareAlike" />
      </cc:License>
    </rdf:RDF>
  </metadata>
  <defs
     id="defs158547">
    <style
       id="style158545">.cls-1{fill:#b9b9b9;}.cls-2{fill:#545454;}.cls-3{fill:none;stroke:#b9b9b9;stroke-miterlimit:10;stroke-width:0.9553px;}.cls-4{fill:#1a81c4;}.cls-5{fill:#fff;}.cls-6{fill:#bf2641;}</style>
    <clipPath
       clipPathUnits="userSpaceOnUse"
       id="clipPath954">
      <rect
         style="fill:#f29100;fill-opacity:1;stroke:none;stroke-width:2;stroke-linecap:round;stroke-linejoin:round;stroke-miterlimit:4;stroke-dasharray:none"
         id="rect956"
         width="21"
         height="21"
         x="-33"
         y="-2"
         ry="3.4854646" />
    </clipPath>
  </defs>
  <title
     id="title158549">options_board</title>
  <g
     id="g952"
     clip-path="url(#clipPath954)"
     transform="translate(33,2)">
    <rect
       class="cls-1"
       x="1.4020385e-07"
       y="0"
       width="24"
       height="24"
       rx="0"
       id="rect9"
       style="fill:#489648;fill-opacity:1;stroke:none;stroke-width:0.57142699;stroke-opacity:1"
       clip-path="none"
       transform="matrix(0.875,0,0,0.875,-33,-2)" />
    <path
       class="cls-2"
       d="m 9.7142857,24 v -1.714286 l 4.0000003,-4 V 12.571429 L 14.285714,12 h 4 l 2.285715,1.714286 H 24 V 4.5714286 H 20.571429 L 18.285714,6.2857143 H 16.571429 L 14.5,4 V 0 C 9.9949374,-0.001605 2.029505,0.001245 -0.0020687,0.001285 0,3.25 0,24 0,24 c 1.5,-0.02777 4.0236148,0 9.7142857,0 z"
       id="path11"
       sodipodi:nodetypes="ccccccccccccccccc"
       style="fill:#006400;fill-opacity:1;stroke-width:0.57142699"
       clip-path="none"
       transform="matrix(0.875,0,0,0.875,-33,-2)"
       inkscape:connector-curvature="0" />
    <path
       style="fill:none;stroke:#489648;stroke-width:2.2857101;stroke-linecap:butt;stroke-linejoin:miter;stroke-miterlimit:4;stroke-dasharray:none;stroke-opacity:1"
       d="M 20.571429,9.1428571 H 14.857143 L 11.428571,5.7142857 v -6.8571428"
       id="path2253"
       sodipodi:nodetypes="cccc"
       clip-path="none"
       transform="matrix(0.875,0,0,0.875,-33,-2)"
       inkscape:connector-curvature="0" />
    <path
       style="fill:none;stroke:#489648;stroke-width:3.23249006;stroke-linecap:butt;stroke-linejoin:miter;stroke-miterlimit:4;stroke-dasharray:none;stroke-opacity:1"
       d="M 0,14.5 H 2"
       id="path892"
       sodipodi:nodetypes="cc"
       clip-path="none"
       transform="matrix(2.1875,0,0,0.875,-33,-2.0750619)"
       inkscape:connector-curvature="0" />
    <path
       style="fill:none;stroke:#489648;stroke-width:2.85714006;stroke-linecap:butt;stroke-linejoin:miter;stroke-miterlimit:4;stroke-dasharray:none;stroke-opacity:1"
       d="M 5.2135977,25.142857 V 21.714286 L 9.7850263,17.142857 V 11.428571 L 5.2135977,6.8571429 v -7.42857147"
       id="path2265"
       sodipodi:nodetypes="cccccc"
       clip-path="none"
       transform="matrix(0.875,0,0,0.875,-32.561898,-2)"
       inkscape:connector-curvature="0" />
    <rect
       style="fill:#f29100;fill-opacity:1;stroke:none;stroke-width:1.53330004;stroke-linecap:round;stroke-linejoin:round"
       id="rect884"
       width="4"
       height="3"
       x="18"
       y="21"
       rx="0"
       ry="0.96360058"
       clip-path="none"
       transform="matrix(0.875,0,0,0.875,-33,-1.25)" />
    <path
       style="fill:none;stroke:#2cb22c;stroke-width:1.14285004;stroke-linecap:butt;stroke-linejoin:miter;stroke-miterlimit:4;stroke-dasharray:none;stroke-opacity:1"
       d="M 18,16.5 H 16"
       id="path886"
       sodipodi:nodetypes="cc"
       clip-path="none"
       transform="matrix(0.875,0,0,0.875,-33,-1.25)"
       inkscape:connector-curvature="0" />
    <path
       style="fill:none;stroke:#2cb22c;stroke-width:1.14285004;stroke-linecap:butt;stroke-linejoin:miter;stroke-miterlimit:4;stroke-dasharray:none;stroke-opacity:1"
       d="M 24,16.5 H 22"
       id="path888"
       sodipodi:nodetypes="cc"
       clip-path="none"
       transform="matrix(0.875,0,0,0.875,-33,-1.25)"
       inkscape:connector-curvature="0" />
    <path
       style="fill:none;stroke:#2cb22c;stroke-width:2.2857101;stroke-linecap:butt;stroke-linejoin:miter;stroke-miterlimit:4;stroke-dasharray:none;stroke-opacity:1"
       d="m 20,14 v 1"
       id="path890"
       sodipodi:nodetypes="cc"
       clip-path="none"
       transform="matrix(0.875,0,0,0.875,-33,-1.25)"
       inkscape:connector-curvature="0" />
    <circle
       style="fill:#ffffff;fill-opacity:1;stroke:#ce8a24;stroke-width:1;stroke-linecap:round;stroke-linejoin:round;stroke-miterlimit:4;stroke-dasharray:none;stroke-opacity:1"
       id="path936"
       cx="-29.296165"
       cy="10.615973"
       r="1.6027977"
       clip-path="none" />
    <circle
       style="fill:#ffffff;fill-opacity:1;stroke:#ce8a24;stroke-width:1;stroke-linecap:round;stroke-linejoin:round;stroke-miterlimit:4;stroke-dasharray:none;stroke-opacity:1"
       id="circle938"
       cx="-14.137123"
       cy="5.9967451"
       r="1.6027977"
       clip-path="none" />
  </g>
  <path
     class="cls-9"
     d="m 23.734,18.683 -1.2674,-0.907 -0.015,0.0269 a 5.1976,5.1976 0 0 0 0.0693,-0.6877 5.203,5.203 0 0 0 -0.0738,-0.7314 l 0.0074,0.0127 1.2576,-0.92 a 0.67,0.67 0 0 0 0.1848,-0.8745 l -1.1327,-1.9683 a 0.67,0.67 0 0 0 -0.8489,-0.28 L 20.4876,12.9785 20.5,13 A 5.2207,5.2207 0 0 0 19.2226,12.243 L 19.0532,10.7044 A 0.67,0.67 0 0 0 18.3876,10.108 h -2.271 a 0.67,0.67 0 0 0 -0.6658,0.5964 l -0.17,1.5453 a 5.2192,5.2192 0 0 0 -1.3211,0.8044 l 0.018,-0.0322 -1.4342,-0.61 a 0.67,0.67 0 0 0 -0.846,0.2886 l -1.1118,1.98 A 0.67,0.67 0 0 0 10.78,15.553 l 1.2674,0.907 0.0276,-0.0492 a 5.2141,5.2141 0 0 0 -0.0709,0.7037 5.21,5.21 0 0 0 0.0767,0.7616 l -0.021,-0.0367 -1.2576,0.9205 a 0.67,0.67 0 0 0 -0.1851,0.8744 l 1.1327,1.9684 a 0.67,0.67 0 0 0 0.8489,0.2795 l 1.4279,-0.6249 -0.0293,-0.0507 a 5.22,5.22 0 0 0 1.2933,0.7762 l 0.17,1.5487 a 0.67,0.67 0 0 0 0.6656,0.5964 h 2.271 a 0.67,0.67 0 0 0 0.6656,-0.5964 l 0.1705,-1.5484 a 5.2191,5.2191 0 0 0 1.318,-0.7963 l -0.0154,0.0271 1.4344,0.61 a 0.67,0.67 0 0 0 0.8459,-0.2885 l 1.1117,-1.98 A 0.67,0.67 0 0 0 23.734,18.683 Z m -6.4714,0.9334 a 2.5012,2.5012 0 1 1 2.5012,-2.5012 2.5013,2.5013 0 0 1 -2.5012,2.5012 z"
     id="path158639"
     style="fill:#bf2641;stroke:#ffffff;stroke-width:1;stroke-miterlimit:2.29999995;stroke-dasharray:none;stroke-opacity:1;stroke-linecap:round;stroke-linejoin:round" />
</svg>
