<?xml version="1.0" encoding="UTF-8" standalone="no"?>
<svg
   xmlns:dc="http://purl.org/dc/elements/1.1/"
   xmlns:cc="http://creativecommons.org/ns#"
   xmlns:rdf="http://www.w3.org/1999/02/22-rdf-syntax-ns#"
   xmlns:svg="http://www.w3.org/2000/svg"
   xmlns="http://www.w3.org/2000/svg"
   xmlns:xlink="http://www.w3.org/1999/xlink"
   xmlns:sodipodi="http://sodipodi.sourceforge.net/DTD/sodipodi-0.dtd"
   xmlns:inkscape="http://www.inkscape.org/namespaces/inkscape"
   height="26"
   width="26"
   version="1.1"
   id="svg2"
   inkscape:version="0.48.4 r9939"
   sodipodi:docname="options_all_tracks_and_vias.svg">
  <metadata
     id="metadata40">
    <rdf:RDF>
      <cc:Work
         rdf:about="">
        <dc:format>image/svg+xml</dc:format>
        <dc:type
           rdf:resource="http://purl.org/dc/dcmitype/StillImage" />
        <dc:title></dc:title>
      </cc:Work>
    </rdf:RDF>
  </metadata>
  <sodipodi:namedview
     pagecolor="#ffffff"
     bordercolor="#666666"
     borderopacity="1"
     objecttolerance="10"
     gridtolerance="10"
     guidetolerance="10"
     inkscape:pageopacity="0"
     inkscape:pageshadow="2"
     inkscape:window-width="1366"
     inkscape:window-height="744"
     id="namedview38"
     showgrid="true"
     inkscape:snap-to-guides="false"
     inkscape:snap-grids="true"
     inkscape:zoom="22.961538"
     inkscape:cx="14.589615"
     inkscape:cy="11.562814"
     inkscape:window-x="0"
     inkscape:window-y="24"
     inkscape:window-maximized="1"
     inkscape:current-layer="svg2">
    <inkscape:grid
       type="xygrid"
       id="grid3017"
       empspacing="2"
       visible="true"
       enabled="true"
       snapvisiblegridlinesonly="true"
       spacingx="0.5px"
       spacingy="0.5px" />
  </sodipodi:namedview>
  <defs
     id="defs4">
    <filter
       id="c"
       height="1.3651"
       width="1.2097"
       color-interpolation-filters="sRGB"
       y="-0.18257"
       x="-0.10484">
      <feGaussianBlur
         stdDeviation="1.5978799"
         id="feGaussianBlur7" />
    </filter>
    <filter
       id="d"
       height="1.4696"
       width="1.4809999"
       color-interpolation-filters="sRGB"
       y="-0.23481999"
       x="-0.24049">
      <feGaussianBlur
         stdDeviation="1.5978799"
         id="feGaussianBlur10" />
    </filter>
    <linearGradient
       inkscape:collect="always"
       xlink:href="#linearGradient4067"
       id="linearGradient4065"
       gradientUnits="userSpaceOnUse"
       gradientTransform="matrix(0.41988577,0,0,0.39843198,8.0203101,8.7170766)"
       x1="8.6861582"
       y1="9.6206512"
       x2="37.265358"
       y2="35.973965" />
    <linearGradient
       id="linearGradient4067"
       y2="39.685001"
       gradientUnits="userSpaceOnUse"
       x2="34.534"
       gradientTransform="matrix(1.2419,0,0,1.2419,36.866,-2.4533)"
       y1="12.285"
       x1="14.463">
      <stop
         stop-color="#c9c9c9"
         offset="0"
         id="stop4069" />
      <stop
         stop-color="#f8f8f8"
         offset="0.44999999"
         id="stop4071" />
      <stop
         stop-color="#e2e2e2"
         offset="0.66666645"
         id="stop4073" />
      <stop
         stop-color="#b0b0b0"
         offset="0.95000005"
         id="stop4075" />
      <stop
         stop-color="#c9c9c9"
         offset="1"
         id="stop4077" />
    </linearGradient>
    <linearGradient
       inkscape:collect="always"
       xlink:href="#linearGradient4067"
       id="linearGradient4083"
       gradientUnits="userSpaceOnUse"
       gradientTransform="matrix(-0.97986422,0,0,-0.90274951,37.705175,18.229565)"
       x1="8.6861582"
       y1="9.6206512"
       x2="37.265358"
       y2="35.973965" />
    <linearGradient
       id="linearGradient3062"
       y2="39.685001"
       gradientUnits="userSpaceOnUse"
       x2="34.534"
       gradientTransform="matrix(1.2419,0,0,1.2419,36.866,-2.4533)"
       y1="12.285"
       x1="14.463">
      <stop
         stop-color="#c9c9c9"
         offset="0"
         id="stop3064" />
      <stop
         stop-color="#f8f8f8"
         offset="0.44999999"
         id="stop3066" />
      <stop
         stop-color="#e2e2e2"
         offset="0.66666645"
         id="stop3068" />
      <stop
         stop-color="#b0b0b0"
         offset="0.95000005"
         id="stop3070" />
      <stop
         stop-color="#c9c9c9"
         offset="1"
         id="stop3072" />
    </linearGradient>
    <linearGradient
       y2="35.973965"
       x2="37.265358"
       y1="9.6206512"
       x1="8.6861582"
       gradientTransform="matrix(0.41988577,0,0,0.39843198,8.0203101,8.7170766)"
       gradientUnits="userSpaceOnUse"
       id="linearGradient3076"
       xlink:href="#linearGradient4067"
       inkscape:collect="always" />
  </defs>
  <path
     sodipodi:nodetypes="cc"
     inkscape:connector-curvature="0"
     id="path3764"
     d="m 18.5,2.5 0,21"
     style="fill:#999999;stroke:#e60000;stroke-width:3;stroke-linecap:round;stroke-linejoin:miter;stroke-miterlimit:4;stroke-opacity:1;stroke-dasharray:none" />
  <g
     transform="matrix(1.6382539,0,0,1.5572263,1.2572207,0.36314149)"
     id="g16">
    <rect
       height="16"
       width="16"
       y="0"
       x="0"
       id="rect18"
       style="fill-opacity:0" />
  </g>
  <path
     style="fill:none;stroke:#e60000;stroke-width:3;stroke-linecap:round;stroke-linejoin:miter;stroke-miterlimit:4;stroke-opacity:1;stroke-dasharray:none"
     d="m 7.5,2.5 0,21"
     id="path3765"
     inkscape:connector-curvature="0"
     sodipodi:nodetypes="cc" />
  <path
     style="fill:none;stroke:#00a000;stroke-width:3;stroke-linecap:round;stroke-linejoin:miter;stroke-miterlimit:4;stroke-opacity:1;stroke-dasharray:none"
     d="m 23.5,18.5 -21,0"
     id="path3762"
     inkscape:connector-curvature="0"
     sodipodi:nodetypes="cc" />
  <path
     sodipodi:nodetypes="cc"
     inkscape:connector-curvature="0"
     id="path2990"
     d="m 23.5,7.5 -21,0"
     style="fill:none;stroke:#00a000;stroke-width:3;stroke-linecap:round;stroke-linejoin:miter;stroke-miterlimit:4;stroke-opacity:1;stroke-dasharray:none" />
  <path
     sodipodi:type="arc"
     style="fill:#e6e6e6;fill-opacity:1;stroke:#1a1a1a;stroke-width:0.73333333;stroke-linecap:square;stroke-linejoin:round;stroke-miterlimit:4;stroke-opacity:1;stroke-dasharray:none"
     id="path2992"
     sodipodi:cx="14"
     sodipodi:cy="13"
     sodipodi:rx="2.5"
     sodipodi:ry="2.5"
     d="m 16.5,13 a 2.5,2.5 0 1 1 -5,0 2.5,2.5 0 1 1 5,0 z"
     transform="matrix(1.0909091,0,0,1.0909091,-7.7727274,-6.6818183)" />
  <path
     style="color:#000000;fill:url(#linearGradient3076);fill-opacity:1;stroke:#f2f2f2;stroke-width:1.80000007;stroke-miterlimit:4;stroke-opacity:1;stroke-dasharray:none"
     d="m 16.524872,9.6874116 c -0.170724,0.0111 -0.33666,0.036169 -0.504349,0.054385 l -0.01152,0 -0.401206,2.0774884 c -0.653891,0.141309 -1.269086,0.381126 -1.82255,0.706977 l -1.160298,-0.792368 -0.639165,-0.436486 c -0.486744,0.35836 -0.929104,0.776379 -1.318278,1.229201 l 1.24939,1.729398 c -0.379345,0.550106 -0.664641,1.178245 -0.825299,1.838164 -2.7e-5,0.003 -2.3e-5,0.01041 0,0.01085 l -2.1778719,0.326306 c -0.03981,0.308598 -0.0573,0.627513 -0.0573,0.9463 0,0.260798 0.0076,0.518118 0.03439,0.77227 l 2.1778699,0.36981 c 0.154892,0.717662 0.449145,1.387883 0.859704,1.979582 l -1.295242,1.685923 c 0.370945,0.436986 0.79922,0.834851 1.260874,1.185555 l 1.833996,-1.196449 c 0.640946,0.38798 1.356462,0.660056 2.132022,0.79399 l 0.343875,2.055701 c 0.244354,0.02111 0.494922,0.02175 0.745042,0.02175 0.35311,0 0.690392,-0.01264 1.031623,-0.05438 l 0.412652,-2.099208 c 0.736385,-0.17389 1.428132,-0.475553 2.028839,-0.881005 l 1.765222,1.218203 c 0.457767,-0.369569 0.876395,-0.794373 1.237949,-1.250852 l -1.283798,-1.762043 c 0.347671,-0.569771 0.588566,-1.198399 0.710674,-1.870812 l 2.166317,-0.326131 c 0.01899,-0.214464 0.02292,-0.422516 0.02292,-0.641688 0,-0.380845 -0.04665,-0.754277 -0.103151,-1.120329 L 22.73741,15.876806 c -0.172467,-0.604301 -0.455456,-1.16812 -0.813856,-1.675032 l 1.295243,-1.685891 c -0.401291,-0.465381 -0.859056,-0.895929 -1.363773,-1.261251 l -1.868403,1.218203 c -0.536993,-0.301364 -1.114886,-0.5326 -1.742297,-0.66347 L 17.900628,9.7428403 c -0.313248,-0.034942 -0.628697,-0.054396 -0.951479,-0.054396 -0.08726,0 -0.177048,-0.00274 -0.263638,0 -0.04221,0.00128 -0.08398,-0.00238 -0.126091,0 -0.01138,6.179e-4 -0.02301,-7.061e-4 -0.03439,0 z m 0.298024,5.2859594 c 0.04188,-0.002 0.08369,0 0.126092,0 1.356827,0 2.464451,1.050995 2.464451,2.338532 0,1.287501 -1.107587,2.327639 -2.464451,2.327639 -1.356828,0 -2.452972,-1.040138 -2.452972,-2.327639 1e-6,-1.247265 1.028726,-2.276021 2.326902,-2.338532 z"
     id="path4079"
     inkscape:connector-curvature="0"
     sodipodi:nodetypes="ccccccccccccsccccccccsccccccccsccccccccscccccsssscc" />
  <path
     inkscape:connector-curvature="0"
     id="path215"
     d="m 16.524872,9.6874116 c -0.170724,0.0111 -0.33666,0.036169 -0.504349,0.054385 h -0.01152 l -0.401204,2.0774894 c -0.653893,0.141308 -1.269088,0.381125 -1.822552,0.706976 l -1.799463,-1.228854 c -0.486744,0.35836 -0.929104,0.776379 -1.318278,1.229201 l 1.24939,1.729398 c -0.379345,0.550106 -0.664641,1.178245 -0.825299,1.838164 -2.7e-5,0.003 -2.3e-5,0.01041 0,0.01085 l -2.1778719,0.326306 c -0.03981,0.308598 -0.0573,0.627513 -0.0573,0.9463 0,0.260798 0.0076,0.518118 0.03439,0.77227 l 2.1778699,0.36981 c 0.154892,0.717662 0.449145,1.387883 0.859704,1.979582 l -1.295242,1.685923 c 0.370945,0.436986 0.79922,0.834851 1.260874,1.185555 l 1.833996,-1.196449 c 0.640946,0.38798 1.356462,0.660056 2.132022,0.79399 l 0.343875,2.055701 c 0.244354,0.02111 0.494922,0.02175 0.745042,0.02175 0.35311,0 0.690392,-0.01264 1.031623,-0.05438 l 0.412652,-2.099208 c 0.736385,-0.17389 1.428132,-0.475553 2.028839,-0.881005 l 1.765222,1.218203 c 0.457767,-0.369569 0.876395,-0.794373 1.237949,-1.250852 l -1.283798,-1.762043 c 0.347671,-0.569771 0.588566,-1.198399 0.710674,-1.870812 l 2.166317,-0.326131 c 0.01899,-0.214464 0.02292,-0.422516 0.02292,-0.641688 0,-0.380845 -0.04665,-0.754277 -0.103151,-1.120329 L 22.73741,15.876806 c -0.172467,-0.604301 -0.455456,-1.16812 -0.813856,-1.675032 l 1.295243,-1.685891 c -0.401291,-0.465381 -0.859056,-0.895929 -1.363773,-1.261251 l -1.868403,1.218203 c -0.536993,-0.301364 -1.114886,-0.5326 -1.742297,-0.66347 L 17.900628,9.7428403 c -0.313248,-0.034942 -0.628697,-0.054396 -0.951479,-0.054396 -0.08726,0 -0.177048,-0.00274 -0.263638,0 -0.04221,0.00128 -0.08398,-0.00238 -0.126091,0 -0.01138,6.179e-4 -0.02301,-7.061e-4 -0.03439,0 z m 0.298024,5.2859594 c 0.04188,-0.002 0.08369,0 0.126092,0 1.356827,0 2.464451,1.050995 2.464451,2.338532 0,1.287501 -1.107587,2.327639 -2.464451,2.327639 -1.356828,0 -2.452972,-1.040138 -2.452972,-2.327639 1e-6,-1.247265 1.028726,-2.276021 2.326902,-2.338532 z"
     style="color:#000000;fill:url(#linearGradient4065);fill-opacity:1;stroke:#333333;stroke-width:1;stroke-miterlimit:4;stroke-opacity:1;stroke-dasharray:none" />
</svg>
