<?xml version="1.0" encoding="UTF-8" standalone="no"?>
<svg
   xmlns:dc="http://purl.org/dc/elements/1.1/"
   xmlns:cc="http://creativecommons.org/ns#"
   xmlns:rdf="http://www.w3.org/1999/02/22-rdf-syntax-ns#"
   xmlns:svg="http://www.w3.org/2000/svg"
   xmlns="http://www.w3.org/2000/svg"
   xmlns:xlink="http://www.w3.org/1999/xlink"
   xmlns:sodipodi="http://sodipodi.sourceforge.net/DTD/sodipodi-0.dtd"
   xmlns:inkscape="http://www.inkscape.org/namespaces/inkscape"
   height="26"
   width="26"
   version="1.1"
   id="svg2"
   inkscape:version="0.91 r"
   sodipodi:docname="options_pad.svg">
  <metadata
     id="metadata40">
    <rdf:RDF>
      <cc:Work
         rdf:about="">
        <dc:format>image/svg+xml</dc:format>
        <dc:type
           rdf:resource="http://purl.org/dc/dcmitype/StillImage" />
        <dc:title></dc:title>
      </cc:Work>
    </rdf:RDF>
  </metadata>
  <sodipodi:namedview
     pagecolor="#ffffff"
     bordercolor="#666666"
     borderopacity="1"
     objecttolerance="10"
     gridtolerance="10"
     guidetolerance="10"
     inkscape:pageopacity="0"
     inkscape:pageshadow="2"
     inkscape:window-width="1920"
     inkscape:window-height="1053"
     id="namedview38"
     showgrid="true"
     inkscape:snap-to-guides="false"
     inkscape:snap-grids="true"
     inkscape:zoom="32.472518"
     inkscape:cx="9.0277162"
     inkscape:cy="14.551254"
     inkscape:window-x="0"
     inkscape:window-y="0"
     inkscape:window-maximized="1"
     inkscape:current-layer="svg2"
     inkscape:snap-nodes="true">
    <inkscape:grid
       type="xygrid"
       id="grid4194" />
  </sodipodi:namedview>
  <defs
     id="defs4">
    <linearGradient
       inkscape:collect="always"
       xlink:href="#linearGradient4067-2"
       id="linearGradient4065-6"
       gradientUnits="userSpaceOnUse"
       gradientTransform="matrix(0.41988577,0,0,0.39843198,8.02031,8.717076)"
       x1="8.6861582"
       y1="9.6206512"
       x2="37.265358"
       y2="35.973965" />
    <linearGradient
       id="linearGradient4067-2"
       y2="39.685001"
       gradientUnits="userSpaceOnUse"
       x2="34.534"
       gradientTransform="matrix(1.2419,0,0,1.2419,36.866,-2.4533)"
       y1="12.285"
       x1="14.463">
      <stop
         stop-color="#c9c9c9"
         offset="0"
         id="stop4069-4" />
      <stop
         stop-color="#f8f8f8"
         offset="0.44999999"
         id="stop4071-6" />
      <stop
         stop-color="#e2e2e2"
         offset="0.66666645"
         id="stop4073-9" />
      <stop
         stop-color="#b0b0b0"
         offset="0.95000005"
         id="stop4075-9" />
      <stop
         stop-color="#c9c9c9"
         offset="1"
         id="stop4077-2" />
    </linearGradient>
    <linearGradient
       y2="35.973965"
       x2="37.265358"
       y1="9.6206512"
       x1="8.6861582"
       gradientTransform="matrix(0.44317725,0,0,0.4205334,7.395755,8.1001316)"
       gradientUnits="userSpaceOnUse"
       id="linearGradient3178"
       xlink:href="#linearGradient4067-2"
       inkscape:collect="always" />
  </defs>
  <g
     transform="matrix(1.6382539,0,0,1.5572263,1.2572207,0.36314149)"
     id="g16">
    <rect
       height="16"
       width="16"
       y="0"
       x="0"
       id="rect18"
       style="fill-opacity:0" />
  </g>
  <path
     style="fill:#49a749;fill-opacity:1;stroke:#008000;stroke-width:1.5;stroke-linecap:round;stroke-linejoin:round;stroke-miterlimit:4;stroke-opacity:1;stroke-dasharray:none"
     d="M 13,2 C 8.30558,2 4.5,5.8055796 4.5,10.5 4.5,15.19442 8.30558,19 13,19 17.69442,19 21.5,15.19442 21.5,10.5 21.5,5.8055796 17.69442,2 13,2 z m 0,5 c 1.932997,0 3.5,1.567003 3.5,3.5 C 16.5,12.432997 14.932997,14 13,14 11.067003,14 9.5,12.432997 9.5,10.5 9.5,8.567003 11.067003,7 13,7 z"
     id="path3763"
     inkscape:connector-curvature="0" />
  <path
     style="color:#000000;fill:url(#linearGradient3178);fill-opacity:1;stroke:#f2f2f2;stroke-width:1.89984787;stroke-miterlimit:4;stroke-dasharray:none;stroke-opacity:1"
     d="m 16.37207,9.1242922 c -0.180194,0.011716 -0.355335,0.038176 -0.532326,0.057396 l -0.01216,0 -0.423461,2.1927268 c -0.690163,0.149147 -1.339483,0.402267 -1.923649,0.746194 l -1.224661,-0.836317 -0.67462,-0.460698 c -0.513744,0.378239 -0.980642,0.819445 -1.391402,1.297386 l 1.318693,1.825329 c -0.400388,0.580621 -0.701509,1.243603 -0.871079,1.940128 -2.9e-5,0.0032 -2.4e-5,0.01099 0,0.01145 l -2.2986773,0.344407 c -0.042018,0.325716 -0.060478,0.662322 -0.060478,0.998792 0,0.275265 0.00802,0.546859 0.036298,0.815109 l 2.2986753,0.390323 c 0.163484,0.757472 0.474059,1.464871 0.907393,2.089392 l -1.367089,1.779443 c 0.39152,0.461226 0.843552,0.881161 1.330814,1.251319 l 1.93573,-1.262818 c 0.6765,0.409502 1.431706,0.69667 2.250287,0.838034 l 0.36295,2.169733 c 0.257909,0.02228 0.522376,0.02296 0.786371,0.02296 0.372697,0 0.728688,-0.01334 1.088848,-0.0574 l 0.435542,-2.215654 c 0.777233,-0.183536 1.507352,-0.501932 2.141381,-0.929875 l 1.86314,1.285778 c 0.48316,-0.390069 0.92501,-0.838438 1.30662,-1.320238 l -1.355012,-1.859785 c 0.366957,-0.601377 0.621214,-1.264876 0.750096,-1.974588 l 2.286485,-0.344222 c 0.02004,-0.226359 0.02419,-0.445952 0.02419,-0.677282 0,-0.401971 -0.04924,-0.796118 -0.108873,-1.182475 L 22.929224,15.657016 C 22.74719,15.019194 22.448503,14.424099 22.070223,13.889068 l 1.367091,-1.779409 c -0.423551,-0.491196 -0.906709,-0.945627 -1.439423,-1.331214 l -1.972045,1.285778 C 19.459065,11.746142 18.849116,11.502079 18.186902,11.36395 L 17.824141,9.1827959 c -0.330624,-0.036878 -0.663572,-0.057418 -1.004259,-0.057418 -0.0921,0 -0.186869,-0.00285 -0.278262,0 -0.04455,0.00137 -0.08864,-0.00253 -0.133085,0 -0.01201,6.523e-4 -0.02429,-7.452e-4 -0.0363,0 z m 0.314556,5.5791738 c 0.0442,-0.0021 0.08833,0 0.133086,0 1.432092,0 2.601157,1.109295 2.601157,2.468253 0,1.35892 -1.169026,2.456756 -2.601157,2.456756 -1.432092,0 -2.589041,-1.097836 -2.589041,-2.456756 2e-6,-1.316452 1.085791,-2.402274 2.455978,-2.468253 z"
     id="path4079"
     inkscape:connector-curvature="0"
     sodipodi:nodetypes="ccccccccccccsccccccccsccccccccsccccccccscccccsssscc" />
  <path
     inkscape:connector-curvature="0"
     id="path215"
     d="m 16.524872,9.687411 c -0.170724,0.0111 -0.33666,0.03617 -0.504349,0.05438 h -0.01152 l -0.401204,2.07749 c -0.653893,0.141308 -1.269088,0.381125 -1.822552,0.706976 l -1.799463,-1.228849 c -0.486744,0.35836 -0.929104,0.776379 -1.318278,1.229201 l 1.24939,1.729398 c -0.379345,0.550106 -0.664641,1.178245 -0.825299,1.838164 -2.7e-5,0.003 -2.3e-5,0.01041 0,0.01085 l -2.177872,0.326306 c -0.03981,0.308598 -0.0573,0.627513 -0.0573,0.9463 0,0.260798 0.0076,0.518118 0.03439,0.77227 l 2.17787,0.36981 c 0.154892,0.717662 0.449145,1.387883 0.859704,1.979582 l -1.295242,1.685923 c 0.370945,0.436986 0.79922,0.834851 1.260874,1.185555 l 1.833996,-1.196449 c 0.640946,0.38798 1.356462,0.660056 2.132022,0.79399 l 0.343875,2.055701 c 0.244354,0.02111 0.494922,0.02175 0.745042,0.02175 0.35311,0 0.690392,-0.01264 1.031623,-0.05438 l 0.412652,-2.099208 c 0.736385,-0.17389 1.428132,-0.475553 2.028839,-0.881005 l 1.765222,1.218203 c 0.457767,-0.369569 0.876395,-0.794373 1.237949,-1.250852 l -1.283798,-1.762043 c 0.347671,-0.569771 0.588566,-1.198399 0.710674,-1.870812 l 2.166317,-0.326131 c 0.01899,-0.214464 0.02292,-0.422516 0.02292,-0.641688 0,-0.380845 -0.04665,-0.754277 -0.103151,-1.120329 L 22.73741,15.876806 c -0.172467,-0.604301 -0.455456,-1.16812 -0.813856,-1.675032 l 1.295243,-1.685891 c -0.401291,-0.465381 -0.859056,-0.895929 -1.363773,-1.261251 l -1.868403,1.218203 c -0.536993,-0.301364 -1.114886,-0.5326 -1.742297,-0.66347 L 17.900628,9.74284 C 17.58738,9.7079 17.271931,9.68844 16.949149,9.68844 c -0.08726,0 -0.177048,-0.0027 -0.263638,0 -0.04221,0.0013 -0.08398,-0.0024 -0.126091,0 -0.01138,6.18e-4 -0.02301,-7.06e-4 -0.03439,0 z m 0.298024,5.28596 c 0.04188,-0.002 0.08369,0 0.126092,0 1.356827,0 2.464451,1.050995 2.464451,2.338532 0,1.287501 -1.107587,2.327639 -2.464451,2.327639 -1.356828,0 -2.452972,-1.040138 -2.452972,-2.327639 1e-6,-1.247265 1.028726,-2.276021 2.326902,-2.338532 z"
     style="color:#000000;fill:url(#linearGradient4065-6);fill-opacity:1;stroke:#333333;stroke-width:1;stroke-miterlimit:4;stroke-opacity:1;stroke-dasharray:none" />
</svg>
