<svg id="Слой_1" data-name="Слой 1"
  xmlns:dc="http://purl.org/dc/elements/1.1/"
  xmlns:cc="http://creativecommons.org/ns#"
  xmlns:rdf="http://www.w3.org/1999/02/22-rdf-syntax-ns#"
  xmlns="http://www.w3.org/2000/svg" viewBox="0 0 26 26">
  <metadata id="metadata43">
    <rdf:RDF>
      <cc:Work rdf:about="">
        <cc:license rdf:resource="http://creativecommons.org/licenses/by-sa/4.0/" />
        <dc:format>image/svg+xml</dc:format>
        <dc:type rdf:resource="http://purl.org/dc/dcmitype/StillImage" />
        <dc:title>add_arc</dc:title>
      </cc:Work>
      <cc:License rdf:about="http://creativecommons.org/licenses/by-sa/4.0/">
        <cc:permits rdf:resource="http://creativecommons.org/ns#Reproduction" />
        <cc:permits rdf:resource="http://creativecommons.org/ns#Distribution" />
        <cc:requires rdf:resource="http://creativecommons.org/ns#Notice" />
        <cc:requires rdf:resource="http://creativecommons.org/ns#Attribution" />
        <cc:permits rdf:resource="http://creativecommons.org/ns#DerivativeWorks" />
        <cc:requires rdf:resource="http://creativecommons.org/ns#ShareAlike" />
      </cc:License>
    </rdf:RDF>
  </metadata>
  <defs>
    <style>.cls-1{fill:#b9b9b9;}.cls-2,.cls-3,.cls-4,.cls-5{fill:none;stroke-linejoin:round;}.cls-2,.cls-5{stroke:#333;}.cls-2,.cls-3{stroke-linecap:round;}.cls-2,.cls-4,.cls-5{stroke-width:1.9097px;}.cls-3,.cls-4{stroke:#545454;}.cls-3{stroke-width:0.9549px;}.cls-5{stroke-linecap:square;}.cls-6{fill:#333;}.cls-7{fill:#1a81c4;}.cls-8{fill:#fff;}.cls-9{fill:#e61c50;}</style>
  </defs>
  <title>options_schematic</title>
  <path class="cls-1" d="M4.4961,1.004H18.4952a3.5,3.5,0,0,1,3.5,3.5V18.5029a3.5,3.5,0,0,1-3.5,3.5H4.4961a3.5,3.5,0,0,1-3.5-3.5V4.5038A3.5,3.5,0,0,1,4.4961,1.004Z"/>
  <line class="cls-2" x1="11.0851" y1="5.0367" x2="11.0851" y2="12.8275"/>
  <line class="cls-3" x1="8.447" y1="7.7773" x2="3.9512" y2="7.7773"/>
  <line class="cls-3" x1="8.447" y1="6.2993" x2="5.6448" y2="6.2993"/>
  <line class="cls-3" x1="17.3618" y1="16.3842" x2="12.8659" y2="16.3842"/>
  <line class="cls-3" x1="15.6681" y1="14.9061" x2="12.8659" y2="14.9061"/>
  <line class="cls-4" x1="0.9949" y1="16.3508" x2="5.8912" y2="16.3508"/>
  <line class="cls-2" x1="7.2642" y1="13.3921" x2="7.2642" y2="19.307"/>
  <line class="cls-5" x1="11.0851" y1="9.2863" x2="21.0251" y2="9.2863"/>
  <line class="cls-4" x1="10.9953" y1="22.0041" x2="10.9953" y2="19.6498"/>
  <path class="cls-6" d="M12.7068,9.2863a1.6218,1.6218,0,1,1-1.6217-1.6217A1.6218,1.6218,0,0,1,12.7068,9.2863Z"/>
  <rect class="cls-7" x="9.3351" y="1.0036" width="3.4998" height="4.0331"/>
  <rect class="cls-7" x="15.7106" y="5.8916" width="3.4998" height="6.8664" transform="translate(26.7853 -8.1357) rotate(90)"/>
  <line class="cls-2" x1="11.0851" y1="12.8275" x2="7.3898" y2="15.1576"/>
  <line class="cls-2" x1="10.657" y1="19.4584" x2="7.2872" y2="17.5185"/>
  <path class="cls-7" d="M9.2045,19.7639l1.2435-1.7665a.6456.6456,0,0,1,1.1553.2194l.335,1.3825a.7888.7888,0,0,1-.6552.9669l-1.46.2083A.6455.6455,0,0,1,9.2045,19.7639Z"/>
  <line class="cls-2" x1="5.0162" y1="16.3508" x2="7.2642" y2="16.3508"/>
  <circle class="cls-8" cx="17.8974" cy="18.1164" r="3.4667"/>
  <path class="cls-9" d="M24.7087,19.5535l-1.2674-.907-.015.0269a5.1976,5.1976,0,0,0,.0693-.6877,5.203,5.203,0,0,0-.0738-.7314l.0074.0127,1.2576-.92a.67.67,0,0,0,.1848-.8745l-1.1327-1.9683a.67.67,0,0,0-.8489-.28l-1.4277.6248.0124.0215a5.2207,5.2207,0,0,0-1.2774-.757l-.1694-1.5386a.67.67,0,0,0-.6656-.5964h-2.271a.67.67,0,0,0-.6658.5964l-.17,1.5453a5.2192,5.2192,0,0,0-1.3211.8044l.018-.0322-1.4342-.61a.67.67,0,0,0-.846.2886l-1.1118,1.98a.67.67,0,0,0,.1943.8725l1.2674.907.0276-.0492a5.2141,5.2141,0,0,0-.0709.7037,5.21,5.21,0,0,0,.0767.7616l-.021-.0367-1.2576.9205a.67.67,0,0,0-.1851.8744l1.1327,1.9684a.67.67,0,0,0,.8489.2795l1.4279-.6249-.0293-.0507a5.22,5.22,0,0,0,1.2933.7762l.17,1.5487a.67.67,0,0,0,.6656.5964h2.271a.67.67,0,0,0,.6656-.5964l.1705-1.5484a5.2191,5.2191,0,0,0,1.318-.7963l-.0154.0271,1.4344.61a.67.67,0,0,0,.8459-.2885l1.1117-1.98A.67.67,0,0,0,24.7087,19.5535Zm-6.4714.9334a2.5012,2.5012,0,1,1,2.5012-2.5012A2.5013,2.5013,0,0,1,18.2373,20.4869Z"/>
</svg>