<?xml version="1.0" encoding="UTF-8" standalone="no"?>
<svg xmlns:dc="http://purl.org/dc/elements/1.1/"
   xmlns:cc="http://creativecommons.org/ns#"
   xmlns:rdf="http://www.w3.org/1999/02/22-rdf-syntax-ns#"
   xmlns:svg="http://www.w3.org/2000/svg"
   xmlns="http://www.w3.org/2000/svg"
   xmlns:sodipodi="http://sodipodi.sourceforge.net/DTD/sodipodi-0.dtd"
   xmlns:inkscape="http://www.inkscape.org/namespaces/inkscape" id="Слой_1" data-name="Слой 1" viewBox="0 0 24 24" version="1.1" sodipodi:docname="options_board.svg" inkscape:version="1.0.1 (3bc2e813f5, 2020-09-07)">
   <sodipodi:namedview pagecolor="#ffffff" bordercolor="#666666" borderopacity="1" objecttolerance="10" gridtolerance="10" guidetolerance="10" inkscape:pageopacity="0" inkscape:pageshadow="2" inkscape:window-width="1609" inkscape:window-height="1286" id="namedview30" showgrid="true" inkscape:zoom="27.961538" inkscape:cx="3.3259971" inkscape:cy="13" inkscape:window-x="0" inkscape:window-y="37" inkscape:window-maximized="0" inkscape:document-rotation="0" inkscape:current-layer="Слой_1">
      <inkscape:grid type="xygrid" id="grid_kicad" spacingx="0.5" spacingy="0.5" color="#9999ff" opacity="0.13" empspacing="2" />
   </sodipodi:namedview>
   <metadata id="metadata43">
      <rdf:RDF>
         <cc:Work rdf:about="">
            <cc:license rdf:resource="http://creativecommons.org/licenses/by-sa/4.0/" />
            <dc:format>image/svg+xml</dc:format>
            <dc:type rdf:resource="http://purl.org/dc/dcmitype/StillImage" />
            <dc:title>add_arc</dc:title>
         </cc:Work>
         <cc:License rdf:about="http://creativecommons.org/licenses/by-sa/4.0/">
            <cc:permits rdf:resource="http://creativecommons.org/ns#Reproduction" />
            <cc:permits rdf:resource="http://creativecommons.org/ns#Distribution" />
            <cc:requires rdf:resource="http://creativecommons.org/ns#Notice" />
            <cc:requires rdf:resource="http://creativecommons.org/ns#Attribution" />
            <cc:permits rdf:resource="http://creativecommons.org/ns#DerivativeWorks" />
            <cc:requires rdf:resource="http://creativecommons.org/ns#ShareAlike" />
         </cc:License>
      </rdf:RDF>
   </metadata>
   <defs id="defs158547">
      <style id="style158545">.cls-1{fill:#b9b9b9;}.cls-2{fill:#545454;}.cls-3{fill:none;stroke:#b9b9b9;stroke-miterlimit:10;stroke-width:0.9553px;}.cls-4{fill:#1a81c4;}.cls-5{fill:#fff;}.cls-6{fill:#bf2641;}</style>
   </defs>
   <title id="title158549">options_board</title>
   <path class="cls-1" d="m 3.5022,0.003 h 14.0023 a 3.5,3.5 0 0 1 3.5,3.5 v 14.0026 a 3.5006,3.5006 0 0 1 -3.5006,3.5006 H 3.5023 A 3.5005,3.5005 0 0 1 0.0018,17.5057 V 3.5034 a 3.5,3.5 0 0 1 3.5,-3.5 z" id="path158551" />
   <path class="cls-2" d="M 13.4512,21.0056 V 9.9143 h 2.5462 l 0.7391,0.7392 h 4.2711 v -6.16 h -4.2711 l -0.7391,0.7392 h -1.3142 l -1.232,-1.232 V 0.0043 H 3.5 A 3.5006,3.5006 0 0 0 0,3.5049 v 14 a 3.5006,3.5006 0 0 0 3.5,3.5006 z" id="path158553" />
   <polyline class="cls-3" points="12.139 1.004 12.139 5.986 14.665 8.512 18.238 8.512" id="polyline158555" transform="translate(-1,-1)" />
   <polyline class="cls-3" points="8.613 1.004 8.613 7.958 11.724 11.068 11.724 22.007" id="polyline158557" transform="translate(-1,-1)" />
   <polyline class="cls-3" points="5.071 1.004 5.071 7.958 8.182 11.068 8.182 22.007" id="polyline158559" transform="translate(-1,-1)" />
   <line class="cls-3" x1="3.9393001" y1="21.0072" x2="3.9393001" y2="14.6577" id="line158561" />
   <circle class="cls-4" cx="3.9239001" cy="12.9739" r="1.7502" id="circle158563" />
   <path class="cls-1" d="M 5.17,12.9739 A 1.2463,1.2463 0 1 1 3.9238,11.7275 1.2462,1.2462 0 0 1 5.17,12.9739 Z" id="path158565" />
   <path class="cls-4" d="m 20.174,7.5838 a 1.75,1.75 0 1 1 -1.75,-1.75 1.75,1.75 0 0 1 1.75,1.75 z" id="path158567" />
   <path class="cls-1" d="M 19.67,7.5838 A 1.2463,1.2463 0 1 1 18.4238,6.3376 1.2463,1.2463 0 0 1 19.67,7.5838 Z" id="path158569" />
   <circle class="cls-5" cx="17.3995" cy="17.485901" r="3.5195" id="circle158571" />
   <path class="cls-6" d="m 23.7541,18.5583 -1.2674,-0.907 -0.015,0.0269 a 5.1976,5.1976 0 0 0 0.0693,-0.6877 5.203,5.203 0 0 0 -0.0738,-0.7314 l 0.0074,0.0127 1.2576,-0.92 A 0.67,0.67 0 0 0 23.917,14.4773 L 22.7843,12.509 a 0.67,0.67 0 0 0 -0.8489,-0.2795 l -1.4277,0.6248 0.0124,0.0215 a 5.2207,5.2207 0 0 0 -1.2774,-0.757 L 19.0733,10.58 A 0.67,0.67 0 0 0 18.4077,9.9836 h -2.271 A 0.67,0.67 0 0 0 15.4709,10.58 l -0.17,1.5453 A 5.2192,5.2192 0 0 0 13.98,12.93 l 0.018,-0.0322 -1.4342,-0.61 a 0.67,0.67 0 0 0 -0.846,0.2886 l -1.1118,1.98 a 0.67,0.67 0 0 0 0.1943,0.8725 l 1.2674,0.907 0.0276,-0.0492 a 5.2141,5.2141 0 0 0 -0.0709,0.7037 5.21,5.21 0 0 0 0.0767,0.7616 l -0.021,-0.0367 -1.2576,0.9205 a 0.67,0.67 0 0 0 -0.1851,0.8744 l 1.1326,1.9685 a 0.67,0.67 0 0 0 0.8489,0.2795 l 1.4279,-0.6249 -0.0293,-0.0507 a 5.22,5.22 0 0 0 1.2933,0.7762 l 0.17,1.5487 a 0.67,0.67 0 0 0 0.6656,0.5964 h 2.271 a 0.67,0.67 0 0 0 0.6656,-0.5964 l 0.17,-1.5484 a 5.2191,5.2191 0 0 0 1.318,-0.7963 l -0.0154,0.0271 1.4344,0.61 a 0.67,0.67 0 0 0 0.8459,-0.2885 l 1.1117,-1.98 a 0.67,0.67 0 0 0 -0.1935,-0.8731 z m -6.4714,0.9334 a 2.5012,2.5012 0 1 1 2.5012,-2.5012 2.5013,2.5013 0 0 1 -2.5012,2.5012 z" id="path158573" />
</svg>
