<?xml version="1.0" encoding="UTF-8" standalone="no"?>
<svg
   xmlns:dc="http://purl.org/dc/elements/1.1/"
   xmlns:cc="http://creativecommons.org/ns#"
   xmlns:rdf="http://www.w3.org/1999/02/22-rdf-syntax-ns#"
   xmlns:svg="http://www.w3.org/2000/svg"
   xmlns="http://www.w3.org/2000/svg"
   xmlns:sodipodi="http://sodipodi.sourceforge.net/DTD/sodipodi-0.dtd"
   xmlns:inkscape="http://www.inkscape.org/namespaces/inkscape"
   id="Слой_1"
   data-name="Слой 1"
   viewBox="0 0 24 24"
   version="1.1"
   sodipodi:docname="options_3drender.svg"
   inkscape:version="1.0.1 (3bc2e813f5, 2020-09-07)">
  <sodipodi:namedview
     pagecolor="#ffffff"
     bordercolor="#666666"
     borderopacity="1"
     objecttolerance="10"
     gridtolerance="10"
     guidetolerance="10"
     inkscape:pageopacity="0"
     inkscape:pageshadow="2"
     inkscape:window-width="1609"
     inkscape:window-height="1286"
     id="namedview30"
     showgrid="true"
     inkscape:zoom="27.961538"
     inkscape:cx="3.3259971"
     inkscape:cy="13"
     inkscape:window-x="0"
     inkscape:window-y="37"
     inkscape:window-maximized="0"
     inkscape:document-rotation="0"
     inkscape:current-layer="Слой_1">
    <inkscape:grid
       type="xygrid"
       id="grid_kicad"
       spacingx="0.5"
       spacingy="0.5"
       color="#9999ff"
       opacity="0.13"
       empspacing="2" />
  </sodipodi:namedview>
  <metadata
     id="metadata43">
    <rdf:RDF>
      <cc:Work
         rdf:about="">
        <cc:license
           rdf:resource="http://creativecommons.org/licenses/by-sa/4.0/" />
        <dc:format>image/svg+xml</dc:format>
        <dc:type
           rdf:resource="http://purl.org/dc/dcmitype/StillImage" />
        <dc:title>add_arc</dc:title>
      </cc:Work>
      <cc:License
         rdf:about="http://creativecommons.org/licenses/by-sa/4.0/">
        <cc:permits
           rdf:resource="http://creativecommons.org/ns#Reproduction" />
        <cc:permits
           rdf:resource="http://creativecommons.org/ns#Distribution" />
        <cc:requires
           rdf:resource="http://creativecommons.org/ns#Notice" />
        <cc:requires
           rdf:resource="http://creativecommons.org/ns#Attribution" />
        <cc:permits
           rdf:resource="http://creativecommons.org/ns#DerivativeWorks" />
        <cc:requires
           rdf:resource="http://creativecommons.org/ns#ShareAlike" />
      </cc:License>
    </rdf:RDF>
  </metadata>
  <defs
     id="defs26047">
    <style
       id="style26045">.cls-1{fill:#b9b9b9;}.cls-2{fill:#545454;}.cls-3{fill:#1a81c4;}.cls-4{fill:#fff;}.cls-5{fill:#e61c50;}</style>
  </defs>
  <title
     id="title26049">options_3drender</title>
  <path
     class="cls-1"
     d="m 10.6068,8.1567 v 0 a 0.2831,0.2831 0 0 1 -0.283,-0.283 l 7e-4,-0.7548 a 0.2831,0.2831 0 0 1 0.283,-0.283 v 0 a 0.2831,0.2831 0 0 1 0.2831,0.283 l -8e-4,0.7548 a 0.2831,0.2831 0 0 1 -0.283,0.283 z"
     id="path26053" />
  <path
     class="cls-1"
     d="M 11.2952,11.2907 A 0.2729,0.2729 0 0 1 11.181,11.2664 l -0.6906,-0.3052 a 0.2825,0.2825 0 0 1 -0.1688,-0.2587 l 7e-4,-0.7547 a 0.2831,0.2831 0 0 1 0.283,-0.2831 v 0 a 0.2832,0.2832 0 0 1 0.2831,0.2831 l -8e-4,0.57 0.5219,0.2307 a 0.283,0.283 0 0 1 -0.1143,0.5417 z"
     id="path26055" />
  <path
     class="cls-1"
     d="m 13.68,12.3454 a 0.2908,0.2908 0 0 1 -0.115,-0.0243 l -0.69,-0.3059 a 0.28310897,0.28310897 0 1 1 0.23,-0.5174 l 0.69,0.3059 a 0.283,0.283 0 0 1 -0.115,0.5417 z"
     id="path26057" />
  <path
     class="cls-1"
     d="M 7.5347,12.3454 A 0.283,0.283 0 0 1 7.4198,11.8037 l 0.69,-0.3059 a 0.28310897,0.28310897 0 0 1 0.23,0.5174 l -0.69,0.3059 a 0.29,0.29 0 0 1 -0.1151,0.0243 z"
     id="path26059" />
  <path
     class="cls-1"
     d="M 9.9147,11.2907 A 0.2829,0.2829 0 0 1 9.8005,10.749 l 0.69,-0.3052 a 0.2828,0.2828 0 1 1 0.2284,0.5174 l -0.69,0.3052 a 0.2737,0.2737 0 0 1 -0.1142,0.0243 z"
     id="path26061" />
  <path
     class="cls-2"
     d="M 10.6075,14.2271 A 0.3768,0.3768 0 0 1 10.4181,14.1763 L 7.3453,12.3889 A 0.3782,0.3782 0 0 1 7.1574,12.0624 V 8.9166 a 0.3774,0.3774 0 0 1 0.7547,0 v 2.9291 l 2.6947,1.5677 2.6962,-1.5684 V 8.9166 a 0.3774,0.3774 0 0 1 0.7547,0 v 3.1458 a 0.3782,0.3782 0 0 1 -0.1879,0.3265 l -3.0728,1.7874 a 0.3769,0.3769 0 0 1 -0.1895,0.0508 z"
     id="path26063" />
  <path
     class="cls-2"
     d="M 10.6075,11.08 A 0.3769,0.3769 0 0 1 10.4181,11.0291 L 7.3453,9.2417 7.7242,8.5886 l 2.8826,1.6776 2.8841,-1.6776 a 0.37752643,0.37752643 0 1 1 0.3789,0.6531 L 10.797,11.029 a 0.377,0.377 0 0 1 -0.1895,0.051 z"
     id="path26065" />
  <path
     class="cls-2"
     d="M 7.5347,9.2837 A 0.3774,0.3774 0 0 1 7.3453,8.58 l 3.0721,-1.7874 a 0.3782,0.3782 0 0 1 0.3788,0 L 13.87,8.58 13.4911,9.233 10.6075,7.5553 7.7242,9.2328 A 0.3746,0.3746 0 0 1 7.5347,9.2837 Z"
     id="path26067" />
  <path
     class="cls-2"
     d="m 10.6068,14.2271 a 0.3771,0.3771 0 0 1 -0.3774,-0.3773 v -3.1473 a 0.3774,0.3774 0 0 1 0.7548,0 V 13.85 a 0.3771,0.3771 0 0 1 -0.3774,0.3771 z"
     id="path26069" />
  <path
     class="cls-3"
     d="M 7.2259,6.6332 A 15.7335,15.7335 0 0 1 10.6075,6.278 16.29,16.29 0 0 1 13.3302,6.5058 V 5.9251 A 17.0758,17.0758 0 0 0 10.6075,5.7119 16.2986,16.2986 0 0 0 7.1036,6.08 0.2831,0.2831 0 1 0 7.2259,6.6328 Z"
     id="path26071" />
  <path
     class="cls-3"
     d="m 18.0539,8.4935 a 2.7417,2.7417 0 0 1 1.01,1.9909 c 0,2.3195 -3.7936,4.2064 -8.4563,4.2064 -4.6627,0 -8.457,-1.8869 -8.457,-4.2064 A 3.3844,3.3844 0 0 1 4.1352,7.7971 L 4.4665,8.5601 5.81,6.7458 3.567,6.4889 3.908,7.2743 c -1.4975,0.8726 -2.3237,2.01 -2.3237,3.21 0,2.6762 3.9631,4.7724 9.023,4.7724 5.0599,0 9.0227,-2.0961 9.0227,-4.7723 A 3.0678,3.0678 0 0 0 18.8275,8.4935 Z"
     id="path26073" />
  <path
     class="cls-2"
     d="m 14.13,6.9126 h 0.2484 A 0.3186,0.3186 0 0 0 14.6284,6.8264 0.3563,0.3563 0 0 0 14.705,6.5824 0.3285,0.3285 0 0 0 14.6225,6.3429 0.3215,0.3215 0 0 0 14.38,6.2581 0.34,0.34 0 0 0 14.1426,6.3414 0.2815,0.2815 0 0 0 14.05,6.56 H 13.7058 L 13.7029,6.5512 a 0.5021,0.5021 0 0 1 0.1835,-0.4135 0.7163,0.7163 0 0 1 0.4887,-0.1673 0.7445,0.7445 0 0 1 0.5,0.1592 0.5625,0.5625 0 0 1 0.1872,0.4525 0.4781,0.4781 0 0 1 -0.084,0.2654 0.5488,0.5488 0 0 1 -0.2381,0.199 0.5113,0.5113 0 0 1 0.2683,0.1975 0.5427,0.5427 0 0 1 0.0862,0.3022 0.5716,0.5716 0 0 1 -0.2027,0.4636 0.7769,0.7769 0 0 1 -0.5166,0.1688 0.7847,0.7847 0 0 1 -0.499,-0.1585 0.5037,0.5037 0 0 1 -0.1931,-0.4385 l 0.0029,-0.0089 h 0.3435 a 0.3005,0.3005 0 0 0 0.0958,0.2307 0.3624,0.3624 0 0 0 0.2543,0.0878 0.3674,0.3674 0 0 0 0.2616,-0.09 A 0.33,0.33 0 0 0 14.7372,7.5469 0.36,0.36 0 0 0 14.6495,7.2801 0.373,0.373 0 0 0 14.3783,7.1939 H 14.13 Z"
     id="path26075" />
  <path
     class="cls-2"
     d="m 16.2678,5.9707 a 0.9867,0.9867 0 0 1 0.22,0.0243 0.875,0.875 0 0 1 0.1894,0.0634 l -0.0678,0.2749 a 1.0868,1.0868 0 0 0 -0.16,-0.0553 0.74,0.74 0 0 0 -0.1806,-0.02 0.4158,0.4158 0 0 0 -0.3449,0.1666 0.712,0.712 0 0 0 -0.13,0.45 v 0.01 A 0.64,0.64 0 0 1 15.9988,6.7593 0.7215,0.7215 0 0 1 16.256,6.7151 0.5581,0.5581 0 0 1 16.7093,6.9163 0.8641,0.8641 0 0 1 16.685,7.9681 0.6442,0.6442 0 0 1 16.1838,8.1789 0.6922,0.6922 0 0 1 15.648,7.9489 0.9183,0.9183 0 0 1 15.438,7.3062 v -0.41 A 0.9451,0.9451 0 0 1 15.6746,6.224 0.7756,0.7756 0 0 1 16.2678,5.9707 Z m -0.1,1.023 a 0.5016,0.5016 0 0 0 -0.2292,0.0479 0.3457,0.3457 0 0 0 -0.1445,0.13 v 0.1526 a 0.691,0.691 0 0 0 0.11,0.4193 0.3358,0.3358 0 0 0 0.28,0.1475 0.2808,0.2808 0 0 0 0.2454,-0.1342 0.5793,0.5793 0 0 0 0.09,-0.33 0.495,0.495 0 0 0 -0.0944,-0.3132 0.3092,0.3092 0 0 0 -0.2575,-0.1199 z"
     id="path26077" />
  <path
     class="cls-2"
     d="m 18.5365,7.321 a 0.9564,0.9564 0 0 1 -0.1887,0.6383 0.709,0.709 0 0 1 -1.026,0 0.9485,0.9485 0 0 1 -0.19,-0.6383 V 6.83 a 0.96,0.96 0 0 1 0.1886,-0.6383 0.7057,0.7057 0 0 1 1.026,0 0.9523,0.9523 0 0 1 0.19,0.6383 z M 18.179,6.7748 a 0.6873,0.6873 0 0 0 -0.0884,-0.39 0.3236,0.3236 0 0 0 -0.5138,0 0.6936,0.6936 0 0 0 -0.0877,0.39 v 0.597 a 0.6881,0.6881 0 0 0 0.0892,0.3921 0.2951,0.2951 0 0 0 0.258,0.1276 0.2888,0.2888 0 0 0 0.2557,-0.1268 0.6994,0.6994 0 0 0 0.087,-0.3929 z"
     id="path26079" />
  <path
     class="cls-2"
     d="m 18.877,6.3672 a 0.3866,0.3866 0 0 1 0.1143,-0.2793 0.3682,0.3682 0 0 1 0.2741,-0.1172 0.3611,0.3611 0 0 1 0.27,0.1172 0.3884,0.3884 0 0 1 0.1128,0.2793 0.3765,0.3765 0 0 1 -0.1128,0.2757 0.3661,0.3661 0 0 1 -0.27,0.1135 0.3889,0.3889 0 0 1 -0.3884,-0.3892 z m 0.2049,0 a 0.1752,0.1752 0 0 0 0.0531,0.13 0.1821,0.1821 0 0 0 0.13,0.0523 A 0.1749,0.1749 0 0 0 19.3926,6.4979 0.1772,0.1772 0 0 0 19.4442,6.3667 0.1864,0.1864 0 0 0 19.3926,6.2326 0.1715,0.1715 0 0 0 19.265,6.178 0.1778,0.1778 0 0 0 19.135,6.2326 0.1843,0.1843 0 0 0 19.0819,6.3672 Z"
     id="path26081" />
  <path
     class="cls-2"
     d="m 14.68,8.4935 a 16.3117,16.3117 0 0 1 0.134,1.9909 c 0,4.6626 -1.8869,8.4562 -4.2065,8.4562 C 8.2879,18.9406 6.4,15.147 6.4,10.4844 6.4,5.8218 8.288,2.0281 10.6075,2.0281 a 3.3849,3.3849 0 0 1 2.6874,1.9841 l -0.7633,0.3314 1.8142,1.3438 0.2569,-2.243 -0.785,0.3408 C 12.9451,2.2883 11.8071,1.462 10.6077,1.462 c -2.6762,0 -4.7732,3.9632 -4.7732,9.0224 0,5.0592 2.097,9.0223 4.7732,9.0223 2.6762,0 4.7723,-3.9632 4.7723,-9.0223 A 16.8849,16.8849 0 0 0 15.2514,8.4935 Z"
     id="path26083" />
  <circle
     class="cls-4"
     cx="16.8974"
     cy="17.1164"
     r="3.4667001"
     id="circle26085" />
  <path
     class="cls-5"
     d="m 23.7087,18.5535 -1.2674,-0.907 -0.015,0.0269 a 5.1976,5.1976 0 0 0 0.0693,-0.6877 5.203,5.203 0 0 0 -0.0738,-0.7314 l 0.0074,0.0127 1.2576,-0.92 a 0.67,0.67 0 0 0 0.1848,-0.8745 l -1.1327,-1.9683 a 0.67,0.67 0 0 0 -0.8489,-0.28 l -1.4277,0.6248 0.0124,0.0215 a 5.2207,5.2207 0 0 0 -1.2774,-0.757 L 19.0279,10.5749 A 0.67,0.67 0 0 0 18.3623,9.9785 h -2.271 a 0.67,0.67 0 0 0 -0.6658,0.5964 l -0.17,1.5453 a 5.2192,5.2192 0 0 0 -1.3211,0.8044 l 0.018,-0.0322 -1.4342,-0.61 a 0.67,0.67 0 0 0 -0.846,0.2886 l -1.1118,1.98 a 0.67,0.67 0 0 0 0.1943,0.8725 l 1.2674,0.907 0.0276,-0.0492 a 5.2141,5.2141 0 0 0 -0.0709,0.7037 5.21,5.21 0 0 0 0.0767,0.7616 l -0.021,-0.0367 -1.2576,0.9205 a 0.67,0.67 0 0 0 -0.1851,0.8744 l 1.1327,1.9684 a 0.67,0.67 0 0 0 0.8489,0.2795 l 1.4279,-0.6249 -0.0293,-0.0507 a 5.22,5.22 0 0 0 1.2933,0.7762 l 0.17,1.5487 a 0.67,0.67 0 0 0 0.6656,0.5964 h 2.271 a 0.67,0.67 0 0 0 0.6656,-0.5964 l 0.1705,-1.5484 a 5.2191,5.2191 0 0 0 1.318,-0.7963 l -0.0154,0.0271 1.4344,0.61 a 0.67,0.67 0 0 0 0.8459,-0.2885 l 1.1117,-1.98 a 0.67,0.67 0 0 0 -0.1939,-0.8724 z m -6.4714,0.9334 a 2.5012,2.5012 0 1 1 2.5012,-2.5012 2.5013,2.5013 0 0 1 -2.5012,2.5012 z"
     id="path26087" />
</svg>
