<?xml version="1.0" encoding="UTF-8" standalone="no"?>
<svg
   xmlns:dc="http://purl.org/dc/elements/1.1/"
   xmlns:cc="http://creativecommons.org/ns#"
   xmlns:rdf="http://www.w3.org/1999/02/22-rdf-syntax-ns#"
   xmlns:svg="http://www.w3.org/2000/svg"
   xmlns="http://www.w3.org/2000/svg"
   xmlns:xlink="http://www.w3.org/1999/xlink"
   xmlns:sodipodi="http://sodipodi.sourceforge.net/DTD/sodipodi-0.dtd"
   xmlns:inkscape="http://www.inkscape.org/namespaces/inkscape"
   height="26"
   width="26"
   version="1.1"
   id="svg2"
   inkscape:version="0.48.3.1 r9886"
   sodipodi:docname="options_pad.svg">
  <metadata
     id="metadata40">
    <rdf:RDF>
      <cc:Work
         rdf:about="">
        <dc:format>image/svg+xml</dc:format>
        <dc:type
           rdf:resource="http://purl.org/dc/dcmitype/StillImage" />
        <dc:title />
      </cc:Work>
    </rdf:RDF>
  </metadata>
  <sodipodi:namedview
     pagecolor="#ffffff"
     bordercolor="#666666"
     borderopacity="1"
     objecttolerance="10"
     gridtolerance="10"
     guidetolerance="10"
     inkscape:pageopacity="0"
     inkscape:pageshadow="2"
     inkscape:window-width="1301"
     inkscape:window-height="744"
     id="namedview38"
     showgrid="true"
     inkscape:snap-to-guides="false"
     inkscape:snap-grids="true"
     inkscape:zoom="22.961538"
     inkscape:cx="12.956449"
     inkscape:cy="13"
     inkscape:window-x="65"
     inkscape:window-y="24"
     inkscape:window-maximized="1"
     inkscape:current-layer="svg2"
     inkscape:snap-nodes="true">
    <inkscape:grid
       type="xygrid"
       id="grid3017"
       empspacing="2"
       visible="true"
       enabled="true"
       snapvisiblegridlinesonly="true"
       spacingx="0.5px"
       spacingy="0.5px" />
  </sodipodi:namedview>
  <defs
     id="defs4">
    <linearGradient
       inkscape:collect="always"
       xlink:href="#linearGradient4067"
       id="linearGradient4065"
       gradientUnits="userSpaceOnUse"
       gradientTransform="matrix(0.41988577,0,0,0.39843198,7.524294,7.9051743)"
       x1="8.6861582"
       y1="9.6206512"
       x2="37.265358"
       y2="35.973965" />
    <linearGradient
       id="linearGradient4067"
       y2="39.685001"
       gradientUnits="userSpaceOnUse"
       x2="34.534"
       gradientTransform="matrix(1.2419,0,0,1.2419,36.866,-2.4533)"
       y1="12.285"
       x1="14.463">
      <stop
         stop-color="#c9c9c9"
         offset="0"
         id="stop4069" />
      <stop
         stop-color="#f8f8f8"
         offset="0.44999999"
         id="stop4071" />
      <stop
         stop-color="#e2e2e2"
         offset="0.66666645"
         id="stop4073" />
      <stop
         stop-color="#b0b0b0"
         offset="0.95000005"
         id="stop4075" />
      <stop
         stop-color="#c9c9c9"
         offset="1"
         id="stop4077" />
    </linearGradient>
  </defs>
  <g
     transform="matrix(1.6382539,0,0,1.5572263,1.2572207,0.36314149)"
     id="g16">
    <rect
       height="16"
       width="16"
       y="0"
       x="0"
       id="rect18"
       style="fill-opacity:0" />
  </g>
  <path
     style="fill:#008000;fill-opacity:0.69803922;stroke:#008000;stroke-width:1.5;stroke-linecap:round;stroke-linejoin:round;stroke-miterlimit:4;stroke-opacity:1;stroke-dasharray:none"
     d="m 11,2.5 c -4.69442,0 -8.5,3.8055796 -8.5,8.5 0,4.69442 3.80558,8.5 8.5,8.5 4.69442,0 8.5,-3.80558 8.5,-8.5 0,-4.6944204 -3.80558,-8.5 -8.5,-8.5 z m 0,5 c 1.932997,0 3.5,1.567003 3.5,3.5 0,1.932997 -1.567003,3.5 -3.5,3.5 C 9.067003,14.5 7.5,12.932997 7.5,11 7.5,9.067003 9.067003,7.5 11,7.5 z"
     id="path3763"
     inkscape:connector-curvature="0" />
  <path
     inkscape:connector-curvature="0"
     id="path215"
     d="m 16.028856,8.8755093 c -0.170724,0.0111 -0.33666,0.036169 -0.504349,0.054385 h -0.01152 l -0.401205,2.0774887 c -0.653893,0.141308 -1.269088,0.381125 -1.822552,0.706977 l -1.799463,-1.228855 c -0.486744,0.35836 -0.929104,0.776379 -1.318278,1.229202 l 1.24939,1.729397 c -0.379345,0.550106 -0.664641,1.178245 -0.825299,1.838164 -2.7e-5,0.003 -2.3e-5,0.01041 0,0.01085 l -2.177872,0.326306 c -0.03981,0.308598 -0.0573,0.627513 -0.0573,0.9463 0,0.260798 0.0076,0.518118 0.03439,0.77227 l 2.17787,0.36981 c 0.154892,0.717662 0.449145,1.387883 0.859704,1.979582 l -1.295242,1.685923 c 0.370945,0.436986 0.79922,0.834851 1.260874,1.185555 L 13.232,21.362415 c 0.640946,0.38798 1.356462,0.660056 2.132022,0.79399 l 0.343875,2.055701 c 0.244354,0.02111 0.494922,0.02175 0.745042,0.02175 0.35311,0 0.690392,-0.01264 1.031623,-0.05438 l 0.412653,-2.099208 c 0.736385,-0.17389 1.428132,-0.475553 2.028839,-0.881005 l 1.765222,1.218203 c 0.457767,-0.369569 0.876395,-0.794373 1.237949,-1.250852 l -1.283798,-1.762043 c 0.347671,-0.569771 0.588566,-1.198399 0.710674,-1.870812 l 2.166317,-0.326131 c 0.01899,-0.214464 0.02292,-0.422516 0.02292,-0.641688 0,-0.380845 -0.04665,-0.754277 -0.103151,-1.120329 l -2.200793,-0.380708 c -0.172467,-0.604301 -0.455456,-1.16812 -0.813856,-1.675032 l 1.295243,-1.68589 c -0.401291,-0.465382 -0.859056,-0.89593 -1.363773,-1.261252 l -1.868403,1.218204 c -0.536993,-0.301365 -1.114886,-0.5326 -1.742297,-0.66347 L 17.404612,8.930938 C 17.091364,8.895996 16.775915,8.876542 16.453133,8.876542 c -0.08726,0 -0.177048,-0.00274 -0.263638,0 -0.04221,0.00128 -0.08398,-0.00238 -0.126091,0 -0.01138,6.179e-4 -0.02301,-7.061e-4 -0.03439,0 z m 0.298024,5.2859587 c 0.04188,-0.002 0.08369,0 0.126092,0 1.356827,0 2.464451,1.050995 2.464451,2.338532 0,1.287501 -1.107587,2.327639 -2.464451,2.327639 C 15.096144,18.827639 14,17.787501 14,16.5 c 10e-7,-1.247265 1.028726,-2.276021 2.326902,-2.338532 z"
     style="color:#000000;fill:url(#linearGradient4065);fill-opacity:1;stroke:#4d4d4d;stroke-width:1;stroke-miterlimit:4;stroke-opacity:1;stroke-dasharray:none" />
</svg>
