<?xml version="1.0" encoding="UTF-8" standalone="no"?>
<svg
   xmlns:dc="http://purl.org/dc/elements/1.1/"
   xmlns:cc="http://creativecommons.org/ns#"
   xmlns:rdf="http://www.w3.org/1999/02/22-rdf-syntax-ns#"
   xmlns:svg="http://www.w3.org/2000/svg"
   xmlns="http://www.w3.org/2000/svg"
   xmlns:xlink="http://www.w3.org/1999/xlink"
   xmlns:sodipodi="http://sodipodi.sourceforge.net/DTD/sodipodi-0.dtd"
   xmlns:inkscape="http://www.inkscape.org/namespaces/inkscape"
   height="48"
   width="48"
   version="1.1"
   id="svg2"
   inkscape:version="0.91 r13725"
   sodipodi:docname="options_vias.svg">
  <metadata
     id="metadata40">
    <rdf:RDF>
      <cc:Work
         rdf:about="">
        <dc:format>image/svg+xml</dc:format>
        <dc:type
           rdf:resource="http://purl.org/dc/dcmitype/StillImage" />
      </cc:Work>
    </rdf:RDF>
  </metadata>
  <sodipodi:namedview
     pagecolor="#ffffff"
     bordercolor="#666666"
     borderopacity="1"
     objecttolerance="10"
     gridtolerance="10"
     guidetolerance="10"
     inkscape:pageopacity="0"
     inkscape:pageshadow="2"
     inkscape:window-width="1855"
     inkscape:window-height="1056"
     id="namedview38"
     showgrid="false"
     inkscape:zoom="4.9166667"
     inkscape:cx="24"
     inkscape:cy="24"
     inkscape:window-x="65"
     inkscape:window-y="24"
     inkscape:window-maximized="1"
     inkscape:current-layer="svg2" />
  <defs
     id="defs4">
    <linearGradient
       id="d"
       y2="39.685"
       gradientUnits="userSpaceOnUse"
       x2="34.534"
       gradientTransform="matrix(.92673 0 0 .84499 4.7271 52.187)"
       y1="12.285"
       x1="14.463">
      <stop
         stop-color="#c9c9c9"
         offset="0"
         id="stop7" />
      <stop
         stop-color="#f8f8f8"
         offset=".25"
         id="stop9" />
      <stop
         stop-color="#e2e2e2"
         offset=".5"
         id="stop11" />
      <stop
         stop-color="#b0b0b0"
         offset=".75"
         id="stop13" />
      <stop
         stop-color="#c9c9c9"
         offset="1"
         id="stop15" />
    </linearGradient>
    <filter
       id="c"
       color-interpolation-filters="sRGB">
      <feGaussianBlur
         stdDeviation="0.95925407"
         id="feGaussianBlur18" />
    </filter>
    <radialGradient
       inkscape:collect="always"
       xlink:href="#linearGradient3846"
       id="radialGradient4649"
       gradientUnits="userSpaceOnUse"
       gradientTransform="matrix(0.875,0,0,0.875,12.585545,1097.5149)"
       cx="13"
       cy="13"
       fx="13"
       fy="13"
       r="12" />
    <linearGradient
       id="linearGradient3846">
      <stop
         style="stop-color:#d2d2d2;stop-opacity:1"
         offset="0"
         id="stop3848" />
      <stop
         id="stop3793"
         offset="0.61904764"
         style="stop-color:#c3c3c3;stop-opacity:1" />
      <stop
         style="stop-color:#d2d2d2;stop-opacity:1"
         offset="1"
         id="stop3850" />
    </linearGradient>
    <radialGradient
       inkscape:collect="always"
       xlink:href="#linearGradient3846"
       id="radialGradient3852"
       cx="13"
       cy="13"
       fx="13"
       fy="13"
       r="12"
       gradientUnits="userSpaceOnUse"
       gradientTransform="matrix(0.875,0,0,0.875,12.585545,1097.5149)" />
    <radialGradient
       inkscape:collect="always"
       xlink:href="#linearGradient3846"
       id="radialGradient4223"
       gradientUnits="userSpaceOnUse"
       gradientTransform="matrix(0.875,0,0,0.875,12.585545,1097.5149)"
       cx="13"
       cy="13"
       fx="13"
       fy="13"
       r="12" />
  </defs>
  <g
     opacity=".30078"
     stroke-linejoin="round"
     transform="matrix(.82383 0 0 .78332 47.756 -3.9322)"
     filter="url(#c)"
     stroke="#000100"
     fill="none"
     id="g20">
    <path
       stroke-width="16.233"
       d="m36.9 19.125a16.125 15.675 0 1 1 -32.25 0 16.125 15.675 0 1 1 32.25 0z"
       transform="matrix(.59546 0 0 .61652 -45.071 15.059)"
       id="path22" />
    <path
       stroke-width="3.0598"
       d="m36.9 19.125a16.125 15.675 0 1 1 -32.25 0 16.125 15.675 0 1 1 32.25 0z"
       transform="matrix(.96709 0 0 .99403 -52.791 7.8391)"
       id="path24" />
  </g>
  <path
     stroke-linejoin="round"
     d="m36.9 19.125a16.125 15.675 0 1 1 -32.25 0 16.125 15.675 0 1 1 32.25 0z"
     transform="matrix(.49056 0 0 .48293 7.0187 6.454)"
     stroke="#f60e1e"
     stroke-width="16.233"
     fill="none"
     id="path26" />
  <path
     opacity=".54688"
     stroke-linejoin="round"
     d="m36.9 19.125a16.125 15.675 0 1 1 -32.25 0 16.125 15.675 0 1 1 32.25 0z"
     transform="matrix(.79672 0 0 .77865 .65825 .79841)"
     stroke="#000100"
     stroke-width="3.0598"
     fill="none"
     id="path28" />
  <g
     id="g4645"
     transform="matrix(1.1054653,0,0,1.1054653,17.800039,-1158.3075)">
    <g
       id="g5128"
       transform="translate(-10.141767,-31.167382)"
       style="stroke:#ffffff;stroke-width:4;stroke-miterlimit:4;stroke-dasharray:none">
      <path
         inkscape:connector-curvature="0"
         style="fill:url(#radialGradient4649);fill-opacity:1;stroke:#ffffff;stroke-width:4;stroke-linecap:round;stroke-linejoin:round;stroke-miterlimit:4;stroke-dasharray:none;stroke-dashoffset:0;stroke-opacity:1"
         d="m 23.960545,1097.3899 c -0.313616,0 -0.630223,0.038 -0.9375,0.062 l -0.75,3.5937 c -0.95747,0.2036 -1.827822,0.6124 -2.625,1.125 l -3.125,-2.0312 c -0.471052,0.401 -0.911514,0.8414 -1.3125,1.3125 l 2.03125,3.125 c -0.512591,0.7972 -0.921386,1.6675 -1.125,2.625 l -3.59375,0.75 c -0.02463,0.3073 -0.0625,0.6239 -0.0625,0.9375 0,0.3136 0.03787,0.6302 0.0625,0.9375 l 3.59375,0.75 c 0.203614,0.9574 0.612409,1.8278 1.125,2.625 l -2.03125,3.125 c 0.400986,0.471 0.841448,0.9115 1.3125,1.3125 l 3.125,-2.0313 c 0.797178,0.5126 1.66753,0.9214 2.625,1.125 l 0.75,3.5938 c 0.307277,0.025 0.623884,0.062 0.9375,0.062 0.313616,0 0.630223,-0.038 0.9375,-0.062 l 0.75,-3.5938 c 0.95747,-0.2036 1.827822,-0.6124 2.625,-1.125 l 3.125,2.0313 c 0.471052,-0.401 0.911514,-0.8415 1.3125,-1.3125 l -2.03125,-3.125 c 0.51259,-0.7972 0.921386,-1.6676 1.125,-2.625 l 3.59375,-0.75 c 0.02463,-0.3073 0.0625,-0.6239 0.0625,-0.9375 0,-0.3136 -0.03787,-0.6302 -0.0625,-0.9375 l -3.59375,-0.75 c -0.203614,-0.9575 -0.61241,-1.8278 -1.125,-2.625 l 2.03125,-3.125 c -0.400986,-0.4711 -0.841448,-0.9115 -1.3125,-1.3125 l -3.125,2.0312 c -0.797178,-0.5126 -1.66753,-0.9214 -2.625,-1.125 l -0.75,-3.5937 c -0.307277,-0.025 -0.623884,-0.062 -0.9375,-0.062 z m 0,8 c 1.932997,0 3.5,1.567 3.5,3.5 0,1.933 -1.567003,3.5 -3.5,3.5 -1.932997,0 -3.5,-1.567 -3.5,-3.5 0,-1.933 1.567003,-3.5 3.5,-3.5 z"
         id="path5130" />
      <path
         id="path5132"
         d="m 23.960545,1097.3899 c -0.313616,0 -0.630223,0.038 -0.9375,0.062 l -0.75,3.5937 c -0.95747,0.2036 -1.827822,0.6124 -2.625,1.125 l -3.125,-2.0312 c -0.471052,0.401 -0.911514,0.8414 -1.3125,1.3125 l 2.03125,3.125 c -0.512591,0.7972 -0.921386,1.6675 -1.125,2.625 l -3.59375,0.75 c -0.02463,0.3073 -0.0625,0.6239 -0.0625,0.9375 0,0.3136 0.03787,0.6302 0.0625,0.9375 l 3.59375,0.75 c 0.203614,0.9574 0.612409,1.8278 1.125,2.625 l -2.03125,3.125 c 0.400986,0.471 0.841448,0.9115 1.3125,1.3125 l 3.125,-2.0313 c 0.797178,0.5126 1.66753,0.9214 2.625,1.125 l 0.75,3.5938 c 0.307277,0.025 0.623884,0.062 0.9375,0.062 0.313616,0 0.630223,-0.038 0.9375,-0.062 l 0.75,-3.5938 c 0.95747,-0.2036 1.827822,-0.6124 2.625,-1.125 l 3.125,2.0313 c 0.471052,-0.401 0.911514,-0.8415 1.3125,-1.3125 l -2.03125,-3.125 c 0.51259,-0.7972 0.921386,-1.6676 1.125,-2.625 l 3.59375,-0.75 c 0.02463,-0.3073 0.0625,-0.6239 0.0625,-0.9375 0,-0.3136 -0.03787,-0.6302 -0.0625,-0.9375 l -3.59375,-0.75 c -0.203614,-0.9575 -0.61241,-1.8278 -1.125,-2.625 l 2.03125,-3.125 c -0.400986,-0.4711 -0.841448,-0.9115 -1.3125,-1.3125 l -3.125,2.0312 c -0.797178,-0.5126 -1.66753,-0.9214 -2.625,-1.125 l -0.75,-3.5937 c -0.307277,-0.025 -0.623884,-0.062 -0.9375,-0.062 z m 0,8 c 1.932997,0 3.5,1.567 3.5,3.5 0,1.933 -1.567003,3.5 -3.5,3.5 -1.932997,0 -3.5,-1.567 -3.5,-3.5 0,-1.933 1.567003,-3.5 3.5,-3.5 z"
         style="fill:url(#radialGradient3852);fill-opacity:1;stroke:#ffffff;stroke-width:4;stroke-linecap:round;stroke-linejoin:round;stroke-miterlimit:4;stroke-dasharray:none;stroke-dashoffset:0;stroke-opacity:1"
         inkscape:connector-curvature="0" />
    </g>
    <g
       style="stroke:#000000"
       transform="translate(-10.141767,-31.167382)"
       id="g4219">
      <path
         id="path4215"
         d="m 23.960545,1097.3899 c -0.313616,0 -0.630223,0.038 -0.9375,0.062 l -0.75,3.5937 c -0.95747,0.2036 -1.827822,0.6124 -2.625,1.125 l -3.125,-2.0312 c -0.471052,0.401 -0.911514,0.8414 -1.3125,1.3125 l 2.03125,3.125 c -0.512591,0.7972 -0.921386,1.6675 -1.125,2.625 l -3.59375,0.75 c -0.02463,0.3073 -0.0625,0.6239 -0.0625,0.9375 0,0.3136 0.03787,0.6302 0.0625,0.9375 l 3.59375,0.75 c 0.203614,0.9574 0.612409,1.8278 1.125,2.625 l -2.03125,3.125 c 0.400986,0.471 0.841448,0.9115 1.3125,1.3125 l 3.125,-2.0313 c 0.797178,0.5126 1.66753,0.9214 2.625,1.125 l 0.75,3.5938 c 0.307277,0.025 0.623884,0.062 0.9375,0.062 0.313616,0 0.630223,-0.038 0.9375,-0.062 l 0.75,-3.5938 c 0.95747,-0.2036 1.827822,-0.6124 2.625,-1.125 l 3.125,2.0313 c 0.471052,-0.401 0.911514,-0.8415 1.3125,-1.3125 l -2.03125,-3.125 c 0.51259,-0.7972 0.921386,-1.6676 1.125,-2.625 l 3.59375,-0.75 c 0.02463,-0.3073 0.0625,-0.6239 0.0625,-0.9375 0,-0.3136 -0.03787,-0.6302 -0.0625,-0.9375 l -3.59375,-0.75 c -0.203614,-0.9575 -0.61241,-1.8278 -1.125,-2.625 l 2.03125,-3.125 c -0.400986,-0.4711 -0.841448,-0.9115 -1.3125,-1.3125 l -3.125,2.0312 c -0.797178,-0.5126 -1.66753,-0.9214 -2.625,-1.125 l -0.75,-3.5937 c -0.307277,-0.025 -0.623884,-0.062 -0.9375,-0.062 z m 0,8 c 1.932997,0 3.5,1.567 3.5,3.5 0,1.933 -1.567003,3.5 -3.5,3.5 -1.932997,0 -3.5,-1.567 -3.5,-3.5 0,-1.933 1.567003,-3.5 3.5,-3.5 z"
         style="fill:url(#radialGradient4223);fill-opacity:1;stroke:#000000;stroke-width:1;stroke-linecap:round;stroke-linejoin:round;stroke-miterlimit:4;stroke-dasharray:none;stroke-dashoffset:0;stroke-opacity:1"
         inkscape:connector-curvature="0" />
    </g>
  </g>
</svg>
