<svg xmlns="http://www.w3.org/2000/svg" height="48" width="48" version="1.1">
 <defs>
  <linearGradient id="c" y2="39.685" gradientUnits="userSpaceOnUse" x2="34.534" gradientTransform="matrix(.92673 0 0 .84499 4.7271 52.187)" y1="12.285" x1="14.463">
   <stop stop-color="#c9c9c9" offset="0"/>
   <stop stop-color="#f8f8f8" offset=".25"/>
   <stop stop-color="#e2e2e2" offset=".5"/>
   <stop stop-color="#b0b0b0" offset=".75"/>
   <stop stop-color="#c9c9c9" offset="1"/>
  </linearGradient>
  <radialGradient id="d" gradientUnits="userSpaceOnUse" cy="10.108" cx="-26.305" gradientTransform="matrix(.24203 .3187 -.94557 .58761 47.031 26.237)" r="7.0421">
   <stop stop-color="#fff" offset="0"/>
   <stop stop-color="#fff" offset=".47534"/>
   <stop stop-color="#fff" stop-opacity="0" offset="1"/>
  </radialGradient>
 </defs>
 <rect opacity="0" transform="rotate(90)" height="41.516" width="37.556" y="-39.733" x="-1.0029"/>
 <path fill="url(#d)" d="m36.273 20.513c0-1.0867-0.42994-0.03294-0.97303 1.0514s-2.7808 3.8908-5.9463 3.2519c0.37242 3.3826-2.7006 5.2258-3.7029 5.4769-1.0023 0.25105-2.2554 0.78241-1.0541 0.78241 3.2915 0.02214 5.5629-2.2263 7.4869-3.7898 1.9241-1.5635 3.7771-3.914 4.1894-6.7728z"/>
 <g transform="translate(-17.422,31.163)">
  <rect fill-opacity="0" height="16" width="16" y="0" x="0"/>
 </g>
 <g transform="matrix(.89291 0 0 .92342 7.5176 -34.55)" stroke="#000">
  <path style="color:#000000" stroke-width="1.3021" fill="url(#c)" d="m25.828 57.411c-0.34731 0.02167-0.68489 0.07071-1.026 0.10631h-0.02332l-0.81616 4.061c-1.3303 0.27623-2.5818 0.74502-3.7077 1.382l-3.661-2.402c-0.98968 0.70058-1.8903 1.5177-2.6817 2.4026l2.5417 3.3807c-0.77174 1.0754-1.3521 2.3033-1.679 3.5933-0.000052 0.0061-0.000045 0.0202 0 0.02126l-4.4306 0.63786c-0.081 0.60325-0.11659 1.2267-0.11659 1.8498 0 0.50981 0.0154 1.0128 0.0699 1.5096l4.4306 0.72291c0.31511 1.4029 0.91369 2.713 1.7489 3.8697l-2.635 3.2956c0.75466 0.85424 1.6259 1.632 2.5651 2.3176l3.731-2.3388c1.3039 0.75844 2.7595 1.2903 4.3373 1.5521l0.69956 4.0185c0.49711 0.04126 1.0069 0.04252 1.5157 0.04252 0.71836-0.000001 1.4045-0.02482 2.0987-0.10631l0.83948-4.1036c1.499-0.341 2.906-0.931 4.128-1.723l3.5911 2.3813c0.93128-0.72243 1.7829-1.5528 2.5184-2.4451l-2.6117-3.4444c0.70729-1.1138 1.1974-2.3427 1.4458-3.6571l4.4073-0.63786c0.03865-0.41935 0.04663-0.82605 0.04663-1.2545 0-0.74449-0.09491-1.4745-0.20987-2.19l-4.476-0.745c-0.351-1.181-0.927-2.283-1.656-3.274l2.635-3.2956c-0.817-0.911-1.749-1.752-2.775-2.466l-3.801 2.381c-1.092-0.589-2.268-1.041-3.544-1.297l-0.7-4.04c-0.63673-0.06829-1.2787-0.10631-1.9355-0.10631-0.1775 0-0.36018-0.0051-0.53633 0-0.08587 0.0024-0.17086-0.0046-0.25651 0-0.0232 0.0012-0.0468-0.0014-0.06996 0zm0.60629 10.333c0.08519-0.0039 0.17025 0 0.25651 0 2.7603 0 5.0135 2.0545 5.0135 4.5713 0.000001 2.5168-2.2532 4.5501-5.0135 4.5501-2.7603 0.000001-4.9902-2.0332-4.9902-4.5501 0-2.4382 2.0928-4.4491 4.7337-4.5713z"/>
  <path opacity=".34659" style="color:#000000" d="m25.311 58.215-0.6553 3.932c-1.2469 0.25892-3.5405 1.0508-4.5959 1.6479l-3.4863-2.3726c-0.92766 0.65668-0.99127 0.70121-1.7331 1.5307l2.5207 3.4087c-0.72338 1.008-1.5922 2.8042-1.9042 4.0878 0 0-4.4171 0.67892-4.4171 0.67892-0.07593 0.56544-0.03948 1.7757 0.01164 2.2413l4.2192 0.69303c0.29536 1.315 1.4006 3.4316 2.1835 4.5157l-2.6681 3.2142c0.70736 0.8007 0.84892 0.87397 1.7292 1.5166l3.5677-2.3833c1.2222 0.7109 3.6482 1.5757 5.1271 1.8211l0.58553 3.8824c0.46595 0.03867 1.7532 0.14715 2.4038 0.07077l0.65531-4.0416c1.4042-0.31862 3.8304-1.2267 4.9759-1.9697l3.5639 2.3479c0.87292-0.67715 0.88074-0.77919 1.5702-1.6156l-2.641-3.4228c0.66296-1.044 1.5202-3.0857 1.753-4.3177l4.324-0.65416c0.03623-0.39307 0.03799-1.4892-0.06977-2.1599l-4.4054-0.69303c-0.32887-1.1073-1.4575-3.1025-2.1409-4.0314l2.8-3.2142c-0.76558-0.85369-1.0502-0.97082-2.0124-1.6403l-3.688 2.408c-1.024-0.553-3.066-1.394-4.262-1.634l-0.65149-3.8471c-0.59683-0.06401-2.3187-0.03559-2.6598 0z" stroke-width="1.4003" fill="none"/>
  <path opacity=".64773" style="color:#000000" d="m32.454 72.306a5.7605 5.2524 0 0 1 -11.521 0 5.7605 5.2524 0 1 1 11.521 0z" stroke-width=".71253" fill="none"/>
 </g>
 <g transform="matrix(2.9379,0,0,2.1996,-74.919,24.016)">
  <rect fill-opacity="0" height="16" width="16" y="0" x="0"/>
 </g>
 <path d="m9.225 30.49a5.2691 5.0646 0 1 1 0 -10.129 5.2691 5.0646 0 0 1 0 10.129z" stroke="#030000" stroke-width="2.5033" fill="#f00"/>
 <path d="m44.702 17.215a5.2691 5.0646 0 1 1 0 -10.129 5.2691 5.0646 0 0 1 0 10.129z" stroke="#030000" stroke-width="2.5033" fill="#f00"/>
 <path d="m6.9331 12.264a5.2691 5.0646 0 1 1 0 -10.129 5.2691 5.0646 0 0 1 0 10.129z" stroke="#030000" stroke-width="2.5033" fill="#f00"/>
 <path d="m25.683 15.264a5.2691 5.0646 0 1 1 0 -10.129 5.2691 5.0646 0 0 1 0 10.129z" stroke="#030000" stroke-width="2.5033" fill="#f00"/>
</svg>
