<?xml version="1.0" encoding="UTF-8" standalone="no"?>
<svg
   xmlns:dc="http://purl.org/dc/elements/1.1/"
   xmlns:cc="http://creativecommons.org/ns#"
   xmlns:rdf="http://www.w3.org/1999/02/22-rdf-syntax-ns#"
   xmlns:svg="http://www.w3.org/2000/svg"
   xmlns="http://www.w3.org/2000/svg"
   xmlns:xlink="http://www.w3.org/1999/xlink"
   xmlns:sodipodi="http://sodipodi.sourceforge.net/DTD/sodipodi-0.dtd"
   xmlns:inkscape="http://www.inkscape.org/namespaces/inkscape"
   height="26"
   width="26"
   version="1.1"
   id="svg2"
   inkscape:version="0.91 r"
   sodipodi:docname="options_3drender.svg">
  <metadata
     id="metadata223">
    <rdf:RDF>
      <cc:Work
         rdf:about="">
        <dc:format>image/svg+xml</dc:format>
        <dc:type
           rdf:resource="http://purl.org/dc/dcmitype/StillImage" />
        <dc:title></dc:title>
      </cc:Work>
    </rdf:RDF>
  </metadata>
  <sodipodi:namedview
     pagecolor="#ffffff"
     bordercolor="#666666"
     borderopacity="1"
     objecttolerance="10"
     gridtolerance="10"
     guidetolerance="10"
     inkscape:pageopacity="0"
     inkscape:pageshadow="2"
     inkscape:window-width="1920"
     inkscape:window-height="1053"
     id="namedview221"
     showgrid="true"
     inkscape:zoom="21.730769"
     inkscape:cx="0.46017687"
     inkscape:cy="12.033629"
     inkscape:window-x="0"
     inkscape:window-y="0"
     inkscape:window-maximized="1"
     inkscape:current-layer="svg2"
     showguides="true"
     inkscape:guide-bbox="true">
    <inkscape:grid
       type="xygrid"
       id="grid3013"
       empspacing="2"
       visible="true"
       enabled="true"
       snapvisiblegridlinesonly="true"
       spacingx="0.5px"
       spacingy="0.5px" />
  </sodipodi:namedview>
  <defs
     id="defs4">
    <linearGradient
       id="linearGradient3846">
      <stop
         style="stop-color:#d2d2d2;stop-opacity:1"
         offset="0"
         id="stop3848" />
      <stop
         id="stop3793"
         offset="0.61904764"
         style="stop-color:#c3c3c3;stop-opacity:1" />
      <stop
         style="stop-color:#d2d2d2;stop-opacity:1"
         offset="1"
         id="stop3850" />
    </linearGradient>
    <linearGradient
       inkscape:collect="always"
       id="linearGradient3836">
      <stop
         style="stop-color:#323232;stop-opacity:1"
         offset="0"
         id="stop3838" />
      <stop
         style="stop-color:#787878;stop-opacity:1"
         offset="1"
         id="stop3840" />
    </linearGradient>
    <linearGradient
       id="linearGradient3806">
      <stop
         style="stop-color:#a5a5a5;stop-opacity:1"
         offset="0"
         id="stop3808" />
      <stop
         style="stop-color:#e6e6e6;stop-opacity:1"
         offset="1"
         id="stop3810" />
    </linearGradient>
    <linearGradient
       id="linearGradient3798">
      <stop
         style="stop-color:#969696;stop-opacity:1"
         offset="0"
         id="stop3800" />
      <stop
         style="stop-color:#aaaaaa;stop-opacity:1"
         offset="1"
         id="stop3802" />
    </linearGradient>
    <linearGradient
       id="b">
      <stop
         stop-color="#fff"
         offset="0"
         id="stop7" />
      <stop
         stop-color="#fff"
         stop-opacity="0"
         offset="1"
         id="stop9" />
    </linearGradient>
    <linearGradient
       id="a">
      <stop
         offset="0"
         id="stop12" />
      <stop
         stop-opacity="0"
         offset="1"
         id="stop14" />
    </linearGradient>
    <radialGradient
       id="ak"
       gradientUnits="userSpaceOnUse"
       cy="39.160999"
       cx="25.455999"
       gradientTransform="matrix(1,0,0,0.31532,0,26.813)"
       r="19.622">
      <stop
         offset="0"
         id="stop29" />
      <stop
         stop-opacity="0"
         offset="1"
         id="stop31" />
    </radialGradient>
    <linearGradient
       id="ad"
       y2="39.685001"
       gradientUnits="userSpaceOnUse"
       x2="34.534"
       gradientTransform="matrix(1.2419,0,0,1.2419,36.866,-2.4533)"
       y1="12.285"
       x1="14.463">
      <stop
         stop-color="#c9c9c9"
         offset="0"
         id="stop34" />
      <stop
         stop-color="#f8f8f8"
         offset=".25"
         id="stop36" />
      <stop
         stop-color="#e2e2e2"
         offset=".5"
         id="stop38" />
      <stop
         stop-color="#b0b0b0"
         offset=".75"
         id="stop40" />
      <stop
         stop-color="#c9c9c9"
         offset="1"
         id="stop42" />
    </linearGradient>
    <linearGradient
       id="av"
       y2="45.016998"
       gradientUnits="userSpaceOnUse"
       x2="20.759001"
       gradientTransform="matrix(0.83721,0,0,0.83721,107.91,38.744)"
       y1="1"
       x1="20.759001">
      <stop
         stop-color="#f0f0f0"
         offset="0"
         id="stop81" />
      <stop
         stop-color="#aaa"
         offset="1"
         id="stop83" />
    </linearGradient>
    <linearGradient
       id="ac"
       y2="66.233002"
       xlink:href="#a"
       gradientUnits="userSpaceOnUse"
       x2="126.14"
       y1="48.047001"
       x1="48.234001" />
    <linearGradient
       id="z"
       y2="62.839001"
       xlink:href="#a"
       gradientUnits="userSpaceOnUse"
       x2="126.67"
       y1="48.032001"
       x1="48.055" />
    <linearGradient
       id="aa"
       y2="60.290001"
       xlink:href="#a"
       gradientUnits="userSpaceOnUse"
       x2="127.05"
       y1="48.028999"
       x1="47.997002" />
    <linearGradient
       id="ab"
       y2="57.665001"
       xlink:href="#a"
       gradientUnits="userSpaceOnUse"
       x2="127.42"
       y1="48.028999"
       x1="47.998001" />
    <linearGradient
       id="af"
       y2="66.233002"
       xlink:href="#b"
       gradientUnits="userSpaceOnUse"
       x2="126.14"
       y1="48.047001"
       x1="48.234001" />
    <linearGradient
       id="ag"
       y2="62.839001"
       xlink:href="#b"
       gradientUnits="userSpaceOnUse"
       x2="126.67"
       y1="48.032001"
       x1="48.055" />
    <linearGradient
       id="ah"
       y2="60.290001"
       xlink:href="#b"
       gradientUnits="userSpaceOnUse"
       x2="127.05"
       y1="48.028999"
       x1="47.997002" />
    <linearGradient
       id="ai"
       y2="57.665001"
       xlink:href="#b"
       gradientUnits="userSpaceOnUse"
       x2="127.42"
       y1="48.028999"
       x1="47.998001" />
    <linearGradient
       inkscape:collect="always"
       xlink:href="#linearGradient3836"
       id="linearGradient3842"
       x1="25.5"
       y1="25.5"
       x2="25.5"
       y2="1"
       gradientUnits="userSpaceOnUse" />
    <radialGradient
       inkscape:collect="always"
       xlink:href="#linearGradient3846"
       id="radialGradient3852"
       cx="13"
       cy="13"
       fx="13"
       fy="13"
       r="12"
       gradientUnits="userSpaceOnUse"
       gradientTransform="matrix(0.875,0,0,0.875,1.625,1.625)" />
  </defs>
  <path
     style="fill:url(#radialGradient3852);fill-opacity:1;stroke:url(#linearGradient3842);stroke-width:1;stroke-linecap:round;stroke-linejoin:round;stroke-miterlimit:4;stroke-opacity:1;stroke-dasharray:none;stroke-dashoffset:0"
     d="M 13 1.5 C 12.686384 1.5 12.369777 1.5378675 12.0625 1.5625 L 11.3125 5.15625 C 10.35503 5.3598638 9.4846784 5.7686596 8.6875 6.28125 L 5.5625 4.25 C 5.0914484 4.6509862 4.6509862 5.0914484 4.25 5.5625 L 6.28125 8.6875 C 5.7686596 9.4846784 5.3598638 10.35503 5.15625 11.3125 L 1.5625 12.0625 C 1.5378675 12.369777 1.5 12.686384 1.5 13 C 1.5 13.313616 1.5378675 13.630223 1.5625 13.9375 L 5.15625 14.6875 C 5.3598638 15.64497 5.7686596 16.515322 6.28125 17.3125 L 4.25 20.4375 C 4.6509862 20.908552 5.0914484 21.349014 5.5625 21.75 L 8.6875 19.71875 C 9.4846784 20.23134 10.35503 20.640136 11.3125 20.84375 L 12.0625 24.4375 C 12.369777 24.462132 12.686384 24.5 13 24.5 C 13.313616 24.5 13.630223 24.462132 13.9375 24.4375 L 14.6875 20.84375 C 15.64497 20.640136 16.515322 20.23134 17.3125 19.71875 L 20.4375 21.75 C 20.908552 21.349014 21.349014 20.908552 21.75 20.4375 L 19.71875 17.3125 C 20.23134 16.515322 20.640136 15.64497 20.84375 14.6875 L 24.4375 13.9375 C 24.462132 13.630223 24.5 13.313616 24.5 13 C 24.5 12.686384 24.462132 12.369777 24.4375 12.0625 L 20.84375 11.3125 C 20.640136 10.35503 20.23134 9.4846784 19.71875 8.6875 L 21.75 5.5625 C 21.349014 5.0914484 20.908552 4.6509862 20.4375 4.25 L 17.3125 6.28125 C 16.515322 5.7686596 15.64497 5.3598638 14.6875 5.15625 L 13.9375 1.5625 C 13.630223 1.5378675 13.313616 1.5 13 1.5 z M 13 9.5 C 14.932997 9.5 16.5 11.067003 16.5 13 C 16.5 14.932997 14.932997 16.5 13 16.5 C 11.067003 16.5 9.5 14.932997 9.5 13 C 9.5 11.067003 11.067003 9.5 13 9.5 z "
     id="path3825" />
</svg>
