<svg id="Слой_1" data-name="Слой 1"
  xmlns:dc="http://purl.org/dc/elements/1.1/"
  xmlns:cc="http://creativecommons.org/ns#"
  xmlns:rdf="http://www.w3.org/1999/02/22-rdf-syntax-ns#"
  xmlns="http://www.w3.org/2000/svg" viewBox="0 0 26 26">
  <metadata id="metadata43">
    <rdf:RDF>
      <cc:Work rdf:about="">
        <cc:license rdf:resource="http://creativecommons.org/licenses/by-sa/4.0/" />
        <dc:format>image/svg+xml</dc:format>
        <dc:type rdf:resource="http://purl.org/dc/dcmitype/StillImage" />
        <dc:title>add_arc</dc:title>
      </cc:Work>
      <cc:License rdf:about="http://creativecommons.org/licenses/by-sa/4.0/">
        <cc:permits rdf:resource="http://creativecommons.org/ns#Reproduction" />
        <cc:permits rdf:resource="http://creativecommons.org/ns#Distribution" />
        <cc:requires rdf:resource="http://creativecommons.org/ns#Notice" />
        <cc:requires rdf:resource="http://creativecommons.org/ns#Attribution" />
        <cc:permits rdf:resource="http://creativecommons.org/ns#DerivativeWorks" />
        <cc:requires rdf:resource="http://creativecommons.org/ns#ShareAlike" />
      </cc:License>
    </rdf:RDF>
  </metadata>
  <defs>
    <style>.cls-1{fill:#f29100;}.cls-2{fill:#fff;}.cls-3{fill:#e61c50;}</style>
  </defs>
  <title>options_pad</title>
  <path class="cls-1" d="M11.5018.9928a10.509,10.509,0,1,0,10.5089,10.509A10.5211,10.5211,0,0,0,11.5018.9928Zm0,20.1423a9.6333,9.6333,0,1,1,9.6333-9.6333A9.6437,9.6437,0,0,1,11.5018,21.1351Z"/>
  <path class="cls-1" d="M11.5018,3.3786a8.1231,8.1231,0,1,0,8.123,8.1232A8.1322,8.1322,0,0,0,11.5018,3.3786Zm0,12.7435a4.62,4.62,0,1,1,4.62-4.62A4.6259,4.6259,0,0,1,11.5018,16.1221Z"/>
  <path class="cls-2" d="M21.5744,18.2043a3.062,3.062,0,1,1-3.0619-3.0619A3.0619,3.0619,0,0,1,21.5744,18.2043Z"/>
  <path class="cls-3" d="M24.7541,19.5583l-1.2674-.907-.015.0269a5.1976,5.1976,0,0,0,.0693-.6877,5.203,5.203,0,0,0-.0738-.7314l.0074.0127,1.2576-.92a.67.67,0,0,0,.1848-.8745l-1.1327-1.9683a.67.67,0,0,0-.8489-.2795l-1.4277.6248.0124.0215a5.2207,5.2207,0,0,0-1.2774-.757L20.0733,11.58a.67.67,0,0,0-.6656-.5964h-2.271a.67.67,0,0,0-.6658.5964l-.17,1.5453A5.2192,5.2192,0,0,0,14.98,13.93l.018-.0322-1.4342-.61a.67.67,0,0,0-.846.2886l-1.1118,1.98a.67.67,0,0,0,.1943.8725l1.2674.907.0276-.0492a5.2141,5.2141,0,0,0-.0709.7037,5.21,5.21,0,0,0,.0767.7616l-.021-.0367-1.2576.9205a.67.67,0,0,0-.1851.8744L12.77,22.4787a.67.67,0,0,0,.8489.2795l1.4279-.6249-.0293-.0507a5.22,5.22,0,0,0,1.2933.7762l.17,1.5487a.67.67,0,0,0,.6656.5964h2.271a.67.67,0,0,0,.6656-.5964l.17-1.5484a5.2191,5.2191,0,0,0,1.318-.7963l-.0154.0271,1.4344.61a.67.67,0,0,0,.8459-.2885l1.1117-1.98A.67.67,0,0,0,24.7541,19.5583Zm-6.4714.9334a2.5012,2.5012,0,1,1,2.5012-2.5012A2.5013,2.5013,0,0,1,18.2827,20.4917Z"/>
</svg>