<?xml version="1.0" encoding="UTF-8" standalone="no"?>
<svg
   xmlns:dc="http://purl.org/dc/elements/1.1/"
   xmlns:cc="http://creativecommons.org/ns#"
   xmlns:rdf="http://www.w3.org/1999/02/22-rdf-syntax-ns#"
   xmlns:svg="http://www.w3.org/2000/svg"
   xmlns="http://www.w3.org/2000/svg"
   xmlns:sodipodi="http://sodipodi.sourceforge.net/DTD/sodipodi-0.dtd"
   xmlns:inkscape="http://www.inkscape.org/namespaces/inkscape"
   height="48"
   width="48"
   version="1.0"
   id="svg2"
   inkscape:version="0.48.4 r9939"
   sodipodi:docname="orient.svg">
  <metadata
     id="metadata181">
    <rdf:RDF>
      <cc:Work
         rdf:about="">
        <dc:format>image/svg+xml</dc:format>
        <dc:type
           rdf:resource="http://purl.org/dc/dcmitype/StillImage" />
      </cc:Work>
    </rdf:RDF>
  </metadata>
  <sodipodi:namedview
     pagecolor="#ffffff"
     bordercolor="#666666"
     borderopacity="1"
     objecttolerance="10"
     gridtolerance="10"
     guidetolerance="10"
     inkscape:pageopacity="0"
     inkscape:pageshadow="2"
     inkscape:window-width="640"
     inkscape:window-height="480"
     id="namedview179"
     showgrid="false"
     inkscape:zoom="4.9166667"
     inkscape:cx="24"
     inkscape:cy="24"
     inkscape:window-x="0"
     inkscape:window-y="0"
     inkscape:window-maximized="0"
     inkscape:current-layer="svg2" />
  <defs
     id="defs4">
    <linearGradient
       id="t"
       y2="7.0165"
       gradientUnits="userSpaceOnUse"
       x2="45.448"
       gradientTransform="scale(1.0059 .99417)"
       y1="92.54"
       x1="45.448">
      <stop
         offset="0"
         id="stop7" />
      <stop
         stop-opacity=".58824"
         offset="1"
         id="stop9" />
    </linearGradient>
    <filter
       id="v"
       color-interpolation-filters="sRGB">
      <feGaussianBlur
         stdDeviation="1.71"
         id="feGaussianBlur12" />
    </filter>
    <clipPath
       id="u">
      <rect
         rx="6"
         ry="6"
         height="84"
         width="84"
         y="6"
         x="6"
         fill="#fff"
         id="rect15" />
    </clipPath>
    <linearGradient
       id="x"
       y2="138.66"
       gradientUnits="userSpaceOnUse"
       x2="48"
       y1="20.221"
       x1="48">
      <stop
         stop-color="#fff"
         offset="0"
         id="stop18" />
      <stop
         stop-color="#fff"
         stop-opacity="0"
         offset="1"
         id="stop20" />
    </linearGradient>
    <filter
       id="w"
       height="1.288"
       width="1.288"
       color-interpolation-filters="sRGB"
       y="-0.144"
       x="-0.144">
      <feGaussianBlur
         stdDeviation="3.96"
         id="feGaussianBlur23" />
    </filter>
    <linearGradient
       id="p"
       y2="40"
       gradientUnits="userSpaceOnUse"
       x2="69"
       y1="40"
       x1="59">
      <stop
         stop-color="#ff7c53"
         offset="0"
         id="stop26" />
      <stop
         stop-color="#f21919"
         offset=".5"
         id="stop28" />
      <stop
         stop-color="#db1414"
         offset=".5"
         id="stop30" />
      <stop
         stop-color="#9b1818"
         offset="1"
         id="stop32" />
    </linearGradient>
    <linearGradient
       id="q"
       y2="88"
       gradientUnits="userSpaceOnUse"
       x2="69"
       y1="88"
       x1="59">
      <stop
         stop-color="#f0f0f0"
         offset="0"
         id="stop35" />
      <stop
         stop-color="#e6e6e6"
         offset=".5"
         id="stop37" />
      <stop
         stop-color="#d2d2d2"
         offset=".5"
         id="stop39" />
      <stop
         stop-color="#bebebe"
         offset="1"
         id="stop41" />
    </linearGradient>
    <radialGradient
       id="s"
       gradientUnits="userSpaceOnUse"
       cy="63.28"
       cx="63.335"
       gradientTransform="matrix(0.644,-1.4509e-6,1.4509e-6,0.644,22.699,22.756)"
       r="1.7404">
      <stop
         stop-color="#c1c1c1"
         offset="0"
         id="stop44" />
      <stop
         stop-color="#3f3f3f"
         offset="1"
         id="stop46" />
    </radialGradient>
    <linearGradient
       id="y"
       y2="-18.667"
       gradientUnits="userSpaceOnUse"
       x2="49.428"
       y1="83.553"
       x1="49.428">
      <stop
         offset="0"
         id="stop49" />
      <stop
         stop-opacity="0"
         offset="1"
         id="stop51" />
    </linearGradient>
    <radialGradient
       id="z"
       gradientUnits="userSpaceOnUse"
       cy="64"
       cx="64"
       gradientTransform="matrix(.72973 0 0 .72973 1.2973 1.2973)"
       r="37">
      <stop
         stop-color="#fff"
         offset="0"
         id="stop54" />
      <stop
         stop-color="#fff"
         stop-opacity=".62745"
         offset="1"
         id="stop56" />
    </radialGradient>
    <linearGradient
       id="n"
       y2="40"
       gradientUnits="userSpaceOnUse"
       x2="69"
       gradientTransform="matrix(.41573 .42054 -.3236 .32735 18.291 -24.237)"
       y1="40"
       x1="59">
      <stop
         stop-color="#ff7c53"
         offset="0"
         id="stop59" />
      <stop
         stop-color="#f21919"
         offset=".5"
         id="stop61" />
      <stop
         stop-color="#db1414"
         offset=".5"
         id="stop63" />
      <stop
         stop-color="#9b1818"
         offset="1"
         id="stop65" />
    </linearGradient>
    <linearGradient
       id="o"
       y2="88"
       gradientUnits="userSpaceOnUse"
       x2="69"
       gradientTransform="matrix(.41573 .42054 -.3236 .32735 18.291 -24.237)"
       y1="88"
       x1="59">
      <stop
         stop-color="#f0f0f0"
         offset="0"
         id="stop68" />
      <stop
         stop-color="#e6e6e6"
         offset=".5"
         id="stop70" />
      <stop
         stop-color="#d2d2d2"
         offset=".5"
         id="stop72" />
      <stop
         stop-color="#bebebe"
         offset="1"
         id="stop74" />
    </linearGradient>
    <radialGradient
       id="r"
       gradientUnits="userSpaceOnUse"
       cy="63.28"
       cx="63.335"
       gradientTransform="matrix(.23949 .24226 -.23948 .24226 24.225 -7.3042)"
       r="1.7404">
      <stop
         stop-color="#c1c1c1"
         offset="0"
         id="stop77" />
      <stop
         stop-color="#3f3f3f"
         offset="1"
         id="stop79" />
    </radialGradient>
  </defs>
  <g
     display="none"
     transform="translate(0,-48)"
     id="g81">
    <rect
       opacity=".9"
       rx="6"
       ry="6"
       height="85"
       filter="url(#v)"
       width="86"
       y="7"
       x="5"
       fill="url(#t)"
       id="rect83" />
  </g>
  <g
     display="none"
     transform="translate(0,-48)"
     id="g85">
    <rect
       opacity=".15"
       clip-path="url(#u)"
       rx="12"
       ry="12"
       height="66"
       filter="url(#w)"
       width="66"
       stroke="#fff"
       stroke-linecap="round"
       y="15"
       x="15"
       stroke-width=".5"
       fill="url(#x)"
       id="rect87" />
  </g>
  <g
     display="none"
     transform="translate(0,-48)"
     id="g89">
    <path
       opacity=".2"
       d="m48 12.045-4.846 23.198c-0.5951 0.2287-1.1749 0.48065-1.7263 0.78741l-10.539-5.2696 5.2696 10.539c-0.31514 0.5624-0.58399 1.1484-0.8177 1.7565l-23.198 4.8456 23.198 4.8456c0.23062 0.6001 0.50774 1.1706 0.8177 1.7263l-5.2696 10.539 10.539-5.2696c0.55561 0.30997 1.1262 0.58708 1.7263 0.8177l4.846 23.2 4.846-23.198c0.6001-0.23062 1.1707-0.50773 1.7263-0.8177l10.539 5.2696-5.2696-10.539c0.30996-0.5556 0.58708-1.1262 0.8177-1.7263l23.199-4.847-23.199-4.845c-0.23371-0.60814-0.50255-1.1941-0.8177-1.7565l5.27-10.539-10.539 5.27c-0.552-0.307-1.131-0.559-1.726-0.788l-4.846-23.198zm0 27.045c4.8655-0.000002 8.813 3.9474 8.813 8.813 0 4.8655-3.9474 8.813-8.813 8.813-4.8655-0.000002-8.813-3.9474-8.813-8.813 0-4.8655 3.9474-8.813 8.813-8.813z"
       display="inline"
       fill="url(#y)"
       id="path91" />
    <path
       opacity=".05"
       display="inline"
       d="m48 12.031-4.844 23.219c-0.5951 0.2287-1.1674 0.47449-1.7188 0.78125l-10.562-5.281 5.281 10.562c-0.31514 0.5624-0.57879 1.1419-0.8125 1.75l-23.188 4.8438 23.188 4.8438c0.23062 0.6001 0.50254 1.1631 0.8125 1.7188l-5.281 10.531 10.563-5.25c0.55561 0.30997 1.1187 0.58188 1.7188 0.8125l4.843 23.188 4.844-23.188c0.6-0.23 1.163-0.502 1.718-0.812l10.563 5.25-5.281-10.531c0.30996-0.5556 0.58188-1.1187 0.8125-1.7188l23.188-4.8438-23.188-4.8438c-0.23371-0.60814-0.49735-1.1876-0.8125-1.75l5.281-10.562-10.563 5.281c-0.551-0.307-1.123-0.552-1.718-0.781l-4.844-23.216zm0 2.0312 4.4375 21.281a0.4185 0.4185 0 0 0 0.25 0.28125c0.58524 0.22491 1.1294 0.48813 1.6562 0.78125a0.4185 0.4185 0 0 0 0.40625 0l9.4375-4.7188-4.7188 9.4375a0.4185 0.4185 0 0 0 0 0.40625c0.30388 0.54228 0.58466 1.0946 0.8125 1.6875a0.4185 0.4185 0 0 0 0.28125 0.25l21.25 4.4375-21.25 4.4375a0.4185 0.4185 0 0 0 -0.28125 0.25c-0.22255 0.5791-0.51041 1.1148-0.8125 1.6562a0.4185 0.4185 0 0 0 0 0.40625l4.718 9.407-9.438-4.687a0.4185 0.4185 0 0 0 -0.40625 0c-0.54148 0.30209-1.0771 0.58995-1.6562 0.8125a0.4185 0.4185 0 0 0 -0.25 0.28125l-4.4375 21.25-4.4375-21.25a0.4185 0.4185 0 0 0 -0.25 -0.28125c-0.58-0.223-1.115-0.511-1.657-0.813a0.4185 0.4185 0 0 0 -0.40625 0l-9.4375 4.6875 4.7188-9.4062a0.4185 0.4185 0 0 0 0 -0.40625c-0.30209-0.5415-0.58995-1.0772-0.8125-1.6562a0.4185 0.4185 0 0 0 -0.28125 -0.25l-21.25-4.4375 21.25-4.4375a0.4185 0.4185 0 0 0 0.28125 -0.25c0.22784-0.59286 0.50863-1.1452 0.8125-1.6875a0.4185 0.4185 0 0 0 0 -0.40625l-4.718-9.438 9.438 4.718a0.4185 0.4185 0 0 0 0.40625 0c0.52687-0.29312 1.071-0.55634 1.6562-0.78125a0.4185 0.4185 0 0 0 0.25 -0.28125l4.438-21.282zm0 24.625c-5.0918 0-9.2188 4.1269-9.2188 9.2188 0 5.0918 4.1269 9.2187 9.2188 9.2188 5.0918 0 9.2188-4.1269 9.2188-9.2188 0-5.0918-4.1269-9.2188-9.2188-9.2188zm0 0.40625c4.8655-0.000002 8.8125 3.947 8.8125 8.8125s-3.947 8.8125-8.8125 8.8125c-4.8655-0.000002-8.8125-3.947-8.8125-8.8125s3.947-8.8125 8.8125-8.8125z"
       id="path93" />
    <path
       opacity=".1"
       display="inline"
       d="m48 12.031-4.844 23.219c-0.5951 0.2287-1.1674 0.47449-1.7188 0.78125l-10.562-5.281 5.281 10.562c-0.31514 0.5624-0.57879 1.1419-0.8125 1.75l-23.188 4.8438 23.188 4.8438c0.23062 0.6001 0.50254 1.1631 0.8125 1.7188l-5.281 10.531 10.563-5.25c0.55561 0.30997 1.1187 0.58188 1.7188 0.8125l4.843 23.188 4.844-23.188c0.6-0.23 1.163-0.502 1.718-0.812l10.563 5.25-5.281-10.531c0.30996-0.5556 0.58188-1.1187 0.8125-1.7188l23.188-4.8438-23.188-4.8438c-0.23371-0.60814-0.49735-1.1876-0.8125-1.75l5.281-10.562-10.563 5.281c-0.551-0.307-1.123-0.552-1.718-0.781l-4.844-23.216zm0 0.9375 4.6562 22.312a0.19858 0.19858 0 0 0 0 0.03125 0.19858 0.19858 0 0 0 0.03125 0.0625 0.19858 0.19858 0 0 0 0.03125 0.03125 0.19858 0.19858 0 0 0 0.03125 0.03125 0.19858 0.19858 0 0 0 0.03125 0c0.59042 0.2269 1.1477 0.48096 1.6875 0.78125a0.19858 0.19858 0 0 0 0.03125 0 0.19858 0.19858 0 0 0 0.03125 0 0.19858 0.19858 0 0 0 0.03125 0 0.19858 0.19858 0 0 0 0.03125 0 0.19858 0.19858 0 0 0 0.03125 0 0.19858 0.19858 0 0 0 0.03125 0l10-5-5 10a0.19858 0.19858 0 0 0 0 0.03125 0.19858 0.19858 0 0 0 0 0.03125 0.19858 0.19858 0 0 0 0 0.03125 0.19858 0.19858 0 0 0 0 0.03125 0.19858 0.19858 0 0 0 0 0.03125 0.19858 0.19858 0 0 0 0 0.03125c0.3098 0.55286 0.58158 1.1179 0.8125 1.7188a0.19858 0.19858 0 0 0 0.03125 0.0625 0.19858 0.19858 0 0 0 0.03125 0.03125 0.19858 0.19858 0 0 0 0.03125 0.03125 0.19858 0.19858 0 0 0 0.03125 0 0.19858 0.19858 0 0 0 0.03125 0l22.282 4.658-22.281 4.656a0.19858 0.19858 0 0 0 -0.03125 0 0.19858 0.19858 0 0 0 -0.0625 0.03125 0.19858 0.19858 0 0 0 -0.031 0.032 0.19858 0.19858 0 0 0 -0.03125 0.03125 0.19858 0.19858 0 0 0 0 0.03125c-0.22679 0.59013-0.50628 1.1386-0.8125 1.6875a0.19858 0.19858 0 0 0 0 0.03125 0.19858 0.19858 0 0 0 0 0.03125 0.19858 0.19858 0 0 0 0 0.03125 0.19858 0.19858 0 0 0 0 0.03125 0.19858 0.19858 0 0 0 0 0.03125 0.19858 0.19858 0 0 0 0 0.03125l5 9.9688-10-4.9688a0.19858 0.19858 0 0 0 -0.03125 0 0.19858 0.19858 0 0 0 -0.03125 0 0.19858 0.19858 0 0 0 -0.03125 0 0.19858 0.19858 0 0 0 -0.03125 0 0.19858 0.19858 0 0 0 -0.03125 0 0.19858 0.19858 0 0 0 -0.03125 0c-0.5489 0.30623-1.0974 0.58571-1.6875 0.8125a0.19858 0.19858 0 0 0 -0.0625 0.03125 0.19858 0.19858 0 0 0 -0.03125 0.03125 0.19858 0.19858 0 0 0 -0.03125 0.03125 0.19858 0.19858 0 0 0 0 0.03125 0.19858 0.19858 0 0 0 0 0.03125l-4.655 22.28-4.656-22.281a0.19858 0.19858 0 0 0 0 -0.03125 0.19858 0.19858 0 0 0 -0.032 -0.062 0.19858 0.19858 0 0 0 -0.031 -0.032 0.19858 0.19858 0 0 0 -0.031 -0.031 0.19858 0.19858 0 0 0 -0.03125 0c-0.59013-0.22679-1.1386-0.50627-1.6875-0.8125a0.19858 0.19858 0 0 0 -0.03125 0 0.19858 0.19858 0 0 0 -0.03125 0 0.19858 0.19858 0 0 0 -0.03125 0 0.19858 0.19858 0 0 0 -0.03125 0 0.19858 0.19858 0 0 0 -0.03125 0 0.19858 0.19858 0 0 0 -0.03125 0l-10 4.9688 5-9.9688a0.19858 0.19858 0 0 0 0 -0.03125 0.19858 0.19858 0 0 0 0 -0.03125 0.19858 0.19858 0 0 0 0 -0.03125 0.19858 0.19858 0 0 0 0 -0.03125 0.19858 0.19858 0 0 0 0 -0.03125 0.19858 0.19858 0 0 0 0 -0.03125c-0.30622-0.54891-0.58571-1.0974-0.8125-1.6875a0.19858 0.19858 0 0 0 -0.032 -0.061 0.19858 0.19858 0 0 0 -0.031 -0.031 0.19858 0.19858 0 0 0 -0.031 -0.032 0.19858 0.19858 0 0 0 -0.03125 0 0.19858 0.19858 0 0 0 -0.03125 0l-22.282-4.656 22.281-4.656a0.19858 0.19858 0 0 0 0.03125 0 0.19858 0.19858 0 0 0 0.0625 -0.03125 0.19858 0.19858 0 0 0 0.03125 -0.03125 0.19858 0.19858 0 0 0 0.03125 -0.03125 0.19858 0.19858 0 0 0 0 -0.03125c0.23092-0.60089 0.50271-1.1659 0.8125-1.7188a0.19858 0.19858 0 0 0 0 -0.03125 0.19858 0.19858 0 0 0 0 -0.03125 0.19858 0.19858 0 0 0 0 -0.03125 0.19858 0.19858 0 0 0 0 -0.03125 0.19858 0.19858 0 0 0 0 -0.03125 0.19858 0.19858 0 0 0 0 -0.03125l-5-10 10 5a0.19858 0.19858 0 0 0 0.03125 0 0.19858 0.19858 0 0 0 0.03125 0 0.19858 0.19858 0 0 0 0.03125 0 0.19858 0.19858 0 0 0 0.03125 0 0.19858 0.19858 0 0 0 0.03125 0 0.19858 0.19858 0 0 0 0.03125 0c0.53975-0.30029 1.0971-0.55435 1.6875-0.78125a0.19858 0.19858 0 0 0 0.0625 -0.03125 0.19858 0.19858 0 0 0 0.03125 -0.03125 0.19858 0.19858 0 0 0 0.03125 -0.03125 0.19858 0.19858 0 0 0 0 -0.03125 0.19858 0.19858 0 0 0 0 -0.03125l4.655-22.312zm0 25.938c-4.9729 0-9 4.0271-9 9s4.0271 9 9 9 9-4.0271 9-9-4.0271-9-9-9zm0 0.1875c4.8655-0.000002 8.8125 3.947 8.8125 8.8125s-3.947 8.8125-8.8125 8.8125c-4.8655-0.000002-8.8125-3.947-8.8125-8.8125s3.947-8.8125 8.8125-8.8125z"
       id="path95" />
    <path
       display="inline"
       d="m153.02 10.767c-0.51471 0-1.0474 0.34494-1.6352 1.0345-0.27321 0.31875-0.46156 0.63714-0.65076 1.168-0.1892 0.53089-0.37766 1.2824-0.65075 2.4862-0.11127 0.52293-0.22801 1.0511-0.35041 1.5852-0.005 0.02589-0.0651 0.21593-0.10012 0.35041-0.43816-0.9082-0.65409-1.6171-1.7354-5.6566-0.005-0.0062-0.0105-0.01179-0.0167-0.01669-0.004-0.01205-0.009-0.02336-0.0167-0.03337-0.01-0.0076-0.0213-0.01322-0.0334-0.01669-0.006-0.000454-0.0111-0.000454-0.0166 0-0.011-0.0019-0.0224-0.0019-0.0334 0-0.006-0.000454-0.0111-0.000454-0.0167 0-0.006 0.0049-0.0118 0.0105-0.0166 0.01669-0.006 0.0049-0.0118 0.0105-0.0167 0.01669l-0.33372 0.31704c-0.23103-0.01896-0.39584-0.03337-0.58402-0.03337-0.6807 0-1.1184 0.12641-1.5351 0.45052-0.73237 0.57216-1.2348 1.3854-1.2348 2.0524 0 0.29473 0.062 0.61324 0.26698 1.0345 0.008 0.01357 0.0198 0.025 0.0334 0.03337 0.01 0.0076 0.0213 0.01321 0.0334 0.01669 0.006 0.000454 0.0111 0.000454 0.0167 0 0.011 0.0019 0.0224 0.0019 0.0334 0 0.006 0.000454 0.0111 0.000454 0.0167 0 0.006-0.0049 0.0118-0.0105 0.0167-0.01669l0.78425-0.51727c0.0136-0.0084 0.025-0.0198 0.0334-0.03337 0.006-0.0049 0.0118-0.0105 0.0167-0.01669 0.00046-0.0056 0.00046-0.01113 0-0.01669 0.002-0.01105 0.002-0.02232 0-0.03337 0.00046-0.0056 0.00046-0.01113 0-0.01669 0.00046-0.0056 0.00046-0.01113 0-0.01669-0.27695-0.58714-0.36709-0.82788-0.36709-1.0846 0-0.29559 0.16844-0.56638 0.45052-0.7175 0.24902-0.13489 0.48857-0.16686 0.98448-0.16686 0.1993 0 0.42923 0.0045 0.73419 0.01669-0.50777 2.1532-0.92214 3.5362-1.2681 4.1548-0.11155 0.19654-0.22511 0.31279-0.3671 0.38378-0.14198 0.07099-0.32928 0.10012-0.61738 0.10012-0.20625 0-0.37279-0.0167-0.68413-0.05006-0.011-0.0019-0.0224-0.0019-0.0334 0-0.006-0.000454-0.0111-0.000454-0.0167 0-0.006 0.0049-0.0118 0.0105-0.0167 0.01669-0.012 0.0035-0.0233 0.0091-0.0334 0.01669l-0.53396 0.76756c-0.008 0.01001-0.0132 0.02132-0.0167 0.03337-0.00044 0.0056-0.00044 0.01113 0 0.01669-0.002 0.01105-0.002 0.02232 0 0.03337-0.00044 0.0056-0.00044 0.01113 0 0.01669 0.005 0.0062 0.0105 0.01179 0.0167 0.01669 0.008 0.01357 0.0198 0.025 0.0334 0.03337 0.005 0.0062 0.0105 0.01179 0.0167 0.01669 0.011 0.0019 0.0223 0.0019 0.0334 0 0.3009 0.02229 0.45661 0.03337 0.61739 0.03337 0.48681 0 0.80964-0.06055 1.118-0.25029 0.58361-0.34541 1.1562-1.1683 1.5184-2.1191 0.15976-0.42934 0.26739-0.84649 0.61739-2.2526l0.31703 1.3182c0.3238 1.3845 0.60125 2.2203 0.98448 2.9868 0.69073 1.4041 1.7045 2.1024 3.0536 2.1024 0.57933 0.000001 1.0052-0.10392 1.5184-0.40047 0.006 0.000455 0.0111 0.000455 0.0166 0 0.006-0.0049 0.0118-0.0105 0.0167-0.01669 0.01-0.01494 0.0156-0.0322 0.0167-0.05006 0.00045-0.0056 0.00045-0.01113 0-0.01669 0.002-0.01105 0.002-0.02232 0-0.03337l-0.26698-1.0012c-0.005-0.0062-0.0105-0.01179-0.0167-0.01669-0.004-0.01205-0.009-0.02336-0.0166-0.03337-0.01-0.0076-0.0213-0.01321-0.0334-0.01669-0.006-0.000454-0.0111-0.000454-0.0167 0-0.011-0.0019-0.0223-0.0019-0.0334 0-0.006-0.000454-0.0112-0.000454-0.0167 0-0.006 0.0049-0.0118 0.0105-0.0167 0.01669-0.0136 0.0084-0.025 0.0198-0.0334 0.03337-0.006 0.0049-0.0118 0.0105-0.0166 0.01669-0.15516 0.36572-0.23163 0.51113-0.3671 0.66744-0.18374 0.22457-0.423 0.35041-0.66744 0.35041-0.64202 0-1.2642-0.49539-1.8188-1.5351 0.18467-0.9327 0.29241-1.3816 0.56733-2.5363 0.47849-1.9362 0.7327-2.7116 1.0846-3.4373 0.11224-0.22449 0.2262-0.37612 0.36709-0.46721s0.30666-0.13349 0.55064-0.13349c0.0829 0 0.13414-0.0047 0.28367 0.01669 0.006 0.000455 0.0111 0.000455 0.0166 0 0.011 0.0019 0.0224 0.0019 0.0334 0 0.0196-0.0058 0.0371-0.01748 0.05-0.03337 0.00045-0.0056 0.00045-0.01113 0-0.01669l0.40047-0.73419c0.006-0.0049 0.0118-0.0105 0.0167-0.01669 0.00045-0.0056 0.00045-0.01113 0-0.01669 0.002-0.01105 0.002-0.02232 0-0.03337 0.00045-0.0056 0.00045-0.01113 0-0.01669-0.005-0.0062-0.0105-0.01179-0.0167-0.01669-0.008-0.01357-0.0198-0.025-0.0334-0.03337-0.005-0.0062-0.0105-0.01179-0.0166-0.01669-0.006-0.000454-0.0111-0.000454-0.0167 0-0.12709-0.01059-0.24428-0.03337-0.35041-0.03337z"
       id="path97" />
    <path
       display="inline"
       d="m110.24 46.636c0 1.0573 0.50675 2.3685 1.2517 3.2397 0.88544 1.0119 2.291 1.5646 3.8656 1.5646 0.80347 0.000003 1.4439-0.17911 1.8776-0.55223 0.43367-0.37312 0.64427-0.93323 0.64427-1.6383 0-1.1539-0.5503-2.4086-1.4542-3.3502-0.88473-0.91001-2.1828-1.399-3.6815-1.399-0.79132 0.000002-1.4088 0.1874-1.8408 0.55223-0.4319 0.36483-0.66267 0.90154-0.66267 1.5831zm0.69949 0.69949c0-0.51725 0.20461-0.90214 0.57063-1.1781 0.36602-0.27594 0.90566-0.44178 1.6015-0.44178 0.91206 0.000004 1.9549 0.26397 2.6323 0.64427 0.90605 0.51264 1.4174 1.3075 1.4174 2.1721 0 0.53583-0.2062 0.94367-0.58904 1.2333-0.38284 0.28964-0.95465 0.46019-1.6935 0.46019-1.1145 0.000001-2.1105-0.32219-2.8164-0.84675-0.70585-0.52456-1.1229-1.2478-1.1229-2.0432z"
       id="path99" />
    <path
       display="inline"
       d="m185.76 48.667-0.25679-0.82541v-0.03668c-0.0176-1.168-0.26703-1.934-0.82541-2.6413-0.50179-0.62724-1.0354-0.93547-1.7059-0.93547-0.32979 0-0.59183 0.04597-1.0272 0.22011-0.007 0.0054-0.013 0.01154-0.0184 0.01834-0.0149 0.0092-0.0275 0.02177-0.0367 0.03668-0.007 0.0054-0.013 0.01154-0.0184 0.01835-0.0005 0.0061-0.0005 0.01224 0 0.01834-0.002 0.01214-0.002 0.02454 0 0.03668-0.0005 0.0061-0.0005 0.01224 0 0.01835 0.006 0.0068 0.0115 0.01296 0.0184 0.01834l0.58696 0.89878c0.009 0.01492 0.0218 0.02748 0.0367 0.03668 0.006 0.0068 0.0115 0.01296 0.0184 0.01835 0.006 0.000499 0.0122 0.000499 0.0184 0 0.0122 0.002 0.0246 0.002 0.0367 0 0.006 0.000499 0.0122 0.000499 0.0184 0 0.38534-0.10838 0.69787-0.16508 0.99049-0.16508 0.45068 0 0.73004 0.14629 0.93547 0.49525 0.19099 0.32442 0.29612 0.86246 0.33017 1.5958l-2.5863-0.64199h-0.0184c-0.17301-0.16993-0.25483-0.2698-0.47691-0.45856-0.006-0.0005-0.0122-0.0005-0.0184 0-0.006-0.0068-0.0115-0.01296-0.0184-0.01834-0.006-0.0005-0.0122-0.0005-0.0184 0-0.0122-0.002-0.0246-0.002-0.0367 0-0.006-0.0005-0.0122-0.0005-0.0184 0-0.007 0.0054-0.013 0.01154-0.0184 0.01834-0.0149 0.0092-0.0275 0.02176-0.0367 0.03668-0.007 0.0054-0.013 0.01154-0.0184 0.01835-0.002 0.01214-0.002 0.02454 0 0.03668v0.18343c-0.12235-0.02938-0.25254-0.05972-0.34851-0.09171-0.006-0.000499-0.0122-0.000499-0.0184 0-0.94131-0.23227-1.4542-0.39055-1.7425-0.58696-0.28836-0.19642-0.37422-0.42092-0.49525-0.91713-0.001-0.01963-0.008-0.0386-0.0184-0.05503l-0.40354-0.47691c-0.011-0.0083-0.0234-0.01453-0.0367-0.01834-0.006-0.0068-0.0115-0.01295-0.0184-0.01834-0.0122-0.002-0.0246-0.002-0.0367 0-0.006-0.0005-0.0122-0.0005-0.0184 0-0.0196 0.0012-0.0386 0.0075-0.055 0.01834-0.007 0.0054-0.0129 0.01154-0.0184 0.01834-0.0108 0.01642-0.0171 0.0354-0.0184 0.05503-0.0005 0.0061-0.0005 0.01224 0 0.01835-0.0122 0.34357-0.0184 0.60598-0.0184 0.69702l-0.0184 1.1006c0 0.36605-0.006 0.69267-0.0184 0.97215-0.049 1.4811-0.055 1.4904-0.055 2.0177 0 0.32333 0.0172 0.54083 0.11006 0.75204 0.0929 0.21121 0.24252 0.40129 0.49524 0.67867 0.2538 0.28475 0.45736 0.49294 0.64199 0.62364 0.18463 0.13071 0.36355 0.18343 0.53193 0.18343 0.0611 0 0.1746 0.0045 0.31183-0.03668 0.007-0.0054 0.013-0.01154 0.0184-0.01834 0.0149-0.0092 0.0275-0.02176 0.0367-0.03668 0.007-0.0054 0.0129-0.01154 0.0184-0.01834 0.002-0.01214 0.002-0.02454 0-0.03668 0.0005-0.0061 0.0005-0.01224 0-0.01834 0.0005-0.0061 0.0005-0.01224 0-0.01834l-0.34851-0.93547c-0.006-0.02161-0.0192-0.04078-0.0367-0.05503-0.011-0.0083-0.0234-0.01453-0.0367-0.01834-0.006-0.0005-0.0122-0.0005-0.0184 0-0.0122-0.002-0.0246-0.002-0.0367 0-0.25859 0.03695-0.34248 0.05503-0.44022 0.05503-0.10971 0-0.19217-0.01492-0.23845-0.03668-0.0463-0.02176-0.0617-0.05315-0.0917-0.1284-0.0599-0.15048-0.0917-0.47832-0.0917-1.0639v-2.9165c0.86732 0.93525 1.0966 1.0793 2.568 1.4674 0.0297 0.48406 0.0512 0.65127 0.0734 0.91713 0.0122 0.26889 0.0184 0.42802 0.0184 0.49525-0.0005 0.0061-0.0005 0.01224 0 0.01834-0.00071-0.0033-0.001 0.05241 0 0.11006 0.001 0.05764 0.0119 0.14227 0.0184 0.22011-0.0005 0.0061-0.0005 0.01224 0 0.01834 0.006 0.0068 0.0115 0.01296 0.0184 0.01835-0.0005 0.0061-0.0005 0.01224 0 0.01834 0.1605 0.22222 0.19651 0.2579 0.36685 0.4769 0.006 0.0068 0.0115 0.01296 0.0184 0.01834 0.011 0.0083 0.0234 0.01453 0.0367 0.01834 0.006 0.0005 0.0122 0.0005 0.0184 0 0.0122 0.002 0.0246 0.002 0.0367 0 0.006 0.0005 0.0122 0.0005 0.0184 0 0.007-0.0054 0.013-0.01154 0.0184-0.01834 0.0149-0.0092 0.0275-0.02176 0.0367-0.03668 0.007-0.0054 0.013-0.01154 0.0184-0.01835 0.002-0.01214 0.002-0.02454 0-0.03668v-2.0544l2.5496 0.64199v0.29348c0.0244 0.51332 0.0367 0.91115 0.0367 0.97215 0 0.23161-0.012 0.32378-0.11007 0.42188-0.0981 0.0981-0.3133 0.20238-0.71535 0.36685-0.007 0.0054-0.0129 0.01154-0.0184 0.01834-0.0149 0.0092-0.0275 0.02177-0.0367 0.03668-0.007 0.0054-0.0129 0.01154-0.0184 0.01835-0.0005 0.0061-0.0005 0.01224 0 0.01834-0.002 0.01214-0.002 0.02454 0 0.03668-0.0005 0.0061-0.0005 0.01224 0 0.01835 0.004 0.01325 0.01 0.02568 0.0184 0.03668 0.006 0.000499 0.0122 0.000499 0.0184 0l0.82541 0.80707c0.006 0.0068 0.0115 0.01295 0.0184 0.01834 0.006 0.0068 0.0115 0.01296 0.0184 0.01835 0.0121 0.002 0.0246 0.002 0.0367 0 0.006 0.0005 0.0122 0.0005 0.0184 0 0.14624-0.01994 0.27031-0.05695 0.36685-0.1284 0.0965-0.07144 0.15984-0.17468 0.20177-0.29348 0.0005-0.0061 0.0005-0.01224 0-0.01835 0.0005-0.0061 0.0005-0.01224 0-0.01834l-0.055-2.4762 0.11006 0.03668c0.0122 0.002 0.0246 0.002 0.0367 0 0.006 0.0005 0.0122 0.0005 0.0184 0 0.0196-0.0012 0.0386-0.0075 0.055-0.01835 0.0174-0.01425 0.0303-0.03342 0.0367-0.05503 0.002-0.01214 0.002-0.02454 0-0.03668 0.002-0.01214 0.002-0.02454 0-0.03668z"
       id="path101" />
    <path
       display="inline"
       d="m146.59 85.233c0.60791 0 1.2438-0.33016 1.7259-0.79655 0.48208-0.46639 0.81315-1.071 0.81315-1.6595 0-0.26536-0.0665-0.49964-0.21574-0.73017-0.14925-0.23053-0.37107-0.46072-0.69698-0.71358-0.37336-0.29649-0.59841-0.51528-0.73017-0.71358-0.13177-0.1983-0.18255-0.37208-0.18255-0.614 0-0.79891 0.78269-1.5267 1.6927-1.5267 0.44798 0 0.90233 0.19128 1.1782 0.49784 0.22059 0.2416 0.31089 0.44864 0.39828 0.92931-0.00045 0.0057-0.00045 0.0111 0 0.01659 0.005 0.0064 0.0105 0.01175 0.0166 0.01659 0.008 0.01353 0.0197 0.02484 0.0332 0.03317 0.005 0.0064 0.0105 0.01175 0.0166 0.01659 0.006 0.000455 0.011 0.000455 0.0166 0 0.011 0.0021 0.0222 0.0021 0.0332 0 0.006 0.000455 0.0111 0.000455 0.0166 0 0.012-0.0036 0.0232-0.009 0.0332-0.01659l0.16595-0.11616c0.008-0.01 0.0132-0.02121 0.0166-0.03317 0.006-0.005 0.0117-0.01046 0.0166-0.01659l0.49784-1.1616c0.00046-0.0057 0.00046-0.01111 0-0.01659 0.002-0.01096 0.002-0.02221 0-0.03317 0.00046-0.0057 0.00046-0.01111 0-0.01659-0.005-0.0064-0.0105-0.01174-0.0166-0.01659 0.00045-0.0057 0.00045-0.01111 0-0.01659-0.4046-0.54332-0.96642-0.79655-1.7093-0.79655-0.87534 0-1.7421 0.35649-2.3896 0.89612-0.64755 0.53963-1.0787 1.2642-1.0787 2.008 0 0.24022 0.058 0.4373 0.21573 0.6472 0.1578 0.20989 0.40143 0.44066 0.81315 0.76336 0.40266 0.31441 0.64021 0.51199 0.76337 0.68039 0.12315 0.1684 0.14935 0.30267 0.14935 0.53104 0 0.66897-0.50655 1.2446-1.0953 1.2446-0.21774 0-0.32277-0.03595-0.41487-0.14936-0.0921-0.11344-0.17238-0.33165-0.23232-0.68039 0.00044-0.0057 0.00044-0.01111 0-0.01659-0.005-0.0064-0.0105-0.01175-0.0166-0.01659-0.008-0.01353-0.0197-0.02484-0.0332-0.03317-0.005-0.0064-0.0105-0.01175-0.0166-0.01659-0.006-0.000448-0.0111-0.000448-0.0166 0-0.011-0.0021-0.0222-0.0021-0.0332 0-0.006-0.000448-0.0111-0.000448-0.0166 0-0.006 0.005-0.0117 0.01046-0.0166 0.01659-0.006-0.000456-0.011-0.000456-0.0166 0l-0.73017 0.51444c-0.0158 0.01288-0.0273 0.03025-0.0332 0.04976-0.002 0.01096-0.002 0.02221 0 0.03317-0.00046 0.0057-0.00046 0.01111 0 0.01659 0.0349 0.32061 0.14653 0.57398 0.3319 0.74678 0.18535 0.17279 0.43569 0.24892 0.74676 0.24892z"
       id="path103" />
    <path
       opacity=".2"
       d="m30.875 31.75 5.0312 10.062c0.08495-0.16942 0.15733-0.33462 0.25-0.5l-4.625-9.218-0.656-0.344zm34.25 0-0.65625 0.34375-4.625 9.2188c0.09267 0.16538 0.16505 0.33058 0.25 0.5l5.031-10.063zm-17.125 7.344c-4.8655 0-8.8125 3.947-8.8125 8.8125 0 0.16794 0.02197 0.33437 0.03125 0.5 0.25961-4.6329 4.0837-8.3125 8.7812-8.3125 4.6976-0.000002 8.5216 3.6796 8.7812 8.3125 0.0093-0.16563 0.03125-0.33206 0.03125-0.5 0-4.8655-3.947-8.8125-8.8125-8.8125zm-33.438 9.3125-2.4062 0.5 23.188 4.8438c0.16281 0.42364 0.35815 0.81943 0.5625 1.2188l0.25-0.5c-0.31-0.556-0.582-1.119-0.812-1.719l-20.782-4.344zm66.875 0-20.781 4.344c-0.23062 0.6001-0.50254 1.1631-0.8125 1.7188l0.25 0.5c0.20435-0.39932 0.39969-0.79511 0.5625-1.2188l23.188-4.8438-2.4062-0.5zm-39.999 11.344-9.907 4.906-0.656 1.344 10.563-5.25c0.55561 0.30997 1.1187 0.58188 1.7188 0.8125l4.843 23.188 4.844-23.188c0.6-0.23 1.163-0.502 1.718-0.812l10.563 5.25-0.656-1.344-9.907-4.906c-0.5556 0.30997-1.1187 0.58188-1.7188 0.8125l-4.843 23.194-4.844-23.188c-0.6-0.23-1.163-0.502-1.718-0.812z"
       display="inline"
       fill="#fff"
       id="path105" />
    <path
       opacity=".2"
       display="inline"
       d="m48 12.031-4.844 23.219c-0.5951 0.2287-1.1674 0.47449-1.7188 0.78125l-10.562-5.281 0.65625 1.3438 9.9062 4.9375c0.552-0.307 1.124-0.552 1.719-0.781l4.844-23.219 4.844 23.219c0.5951 0.2287 1.1674 0.47449 1.7188 0.78125l9.906-4.937 0.656-1.344-10.563 5.281c-0.551-0.307-1.123-0.552-1.718-0.781l-4.844-23.219zm-12.094 29.781c-0.20393 0.40673-0.39751 0.82069-0.5625 1.25l-23.188 4.8438 2.4062 0.5 20.781-4.3438c0.23371-0.60814 0.49736-1.1876 0.8125-1.75l-0.25-0.5zm24.188 0-0.25 0.5c0.31515 0.5624 0.57879 1.1419 0.8125 1.75l20.781 4.3438 2.4062-0.5-23.188-4.8438c-0.16499-0.42931-0.35856-0.84327-0.5625-1.25zm-20.875 6.5938c-0.0093 0.16563-0.03125 0.33206-0.03125 0.5 0 4.8655 3.947 8.8125 8.8125 8.8125s8.8125-3.947 8.8125-8.8125c0-0.16794-0.02197-0.33437-0.03125-0.5-0.25961 4.6329-4.0837 8.3125-8.7812 8.3125-4.6976-0.000002-8.5216-3.6796-8.7812-8.3125zm-3.3125 6.5625-5.031 10.032 0.65625-0.34375 4.625-9.1875c-0.09114-0.16338-0.16488-0.33367-0.25-0.5zm24.188 0c-0.08512 0.16633-0.15886 0.33662-0.25 0.5l4.625 9.1875 0.656 0.344-5.031-10.031z"
       id="path107" />
    <g
       fill-rule="evenodd"
       id="g109">
      <path
         opacity=".05"
         d="m68.344 11.656a0.80733 0.80733 0 0 0 -0.094 0.032c-0.84331 0.36132-1.3786 1.0483-1.7812 1.6562-0.40265 0.60798-0.71865 1.1678-1.0625 1.5312a0.80733 0.80733 0 0 0 -0.0625 0.09375c-7.4189 10.272-14.948 20.506-22.312 30.812a0.80733 0.80733 0 0 0 -0.09375 0.125c-5.556 12.477-11.163 24.994-16.688 37.469a0.80733 0.80733 0 0 0 -0.03125 0.0625c-0.33362 1.0756 0.3584 2.082 1.1875 2.4688 0.41455 0.19339 0.86107 0.28683 1.3438 0.1875 0.46917-0.09655 0.94963-0.38905 1.25-0.84375 0.0035-0.0053-0.0035-0.02589 0-0.03125h0.03125c8.008-11.094 16.11-22.154 24.063-33.281a0.80733 0.80733 0 0 0 0.09375 -0.125c5.568-12.501 11.169-25.021 16.718-37.532a0.80733 0.80733 0 0 0 0.0625 -0.1875c0.2153-1.4496-1.1068-2.6871-2.5312-2.4375a0.80733 0.80733 0 0 0 -0.09375 0z"
         id="path111" />
      <path
         opacity="0.08"
         d="m68.562 12.438c-1.2325 0.52808-1.6769 2.0539-2.5725 3.0006-7.422 10.275-14.943 20.511-22.302 30.811-5.556 12.478-11.164 24.966-16.688 37.438-0.41935 1.352 1.5938 2.2908 2.3438 1.0938 8.0188-11.109 16.137-22.179 24.094-33.312 5.5687-12.501 11.171-24.991 16.719-37.5 0.1381-0.92987-0.67669-1.6919-1.5938-1.5312z"
         id="path113" />
      <path
         opacity="0.12"
         d="m68.781 13.125a0.61863 0.61863 0 0 0 -0.4375 0.25l-23.938 33a0.61863 0.61863 0 0 0 -0.064 0.125l-16.624 37.25a0.61863 0.61863 0 0 0 1.062 0.625l23.938-33.031a0.61863 0.61863 0 0 0 0.063 -0.125l16.623-37.219a0.61863 0.61863 0 0 0 -0.625 -0.875z"
         id="path115" />
      <path
         opacity=".3"
         d="m68.844 13.75-23.938 33-16.625 37.25 23.938-33.031 16.625-37.219z"
         id="path117" />
      <g
         display="inline"
         transform="matrix(.73161 .4224 -.4224 .73161 28.777 -25.989)"
         id="g119">
        <path
           fill="url(#p)"
           d="m69 64h-10l5-48 5 48z"
           id="path121" />
        <path
           fill="url(#q)"
           d="m69 64h-10l5 48 5-48z"
           id="path123" />
        <path
           fill="url(#s)"
           d="m65.503 63.921a1.7404 1.7404 0 1 1 -3.4808 0 1.7404 1.7404 0 1 1 3.4808 0z"
           transform="matrix(1.1491,0,0,1.1491,-9.2727,-9.4546)"
           id="path125" />
      </g>
    </g>
  </g>
  <g
     display="none"
     transform="translate(0,-48)"
     id="g127">
    <path
       display="inline"
       fill="url(#z)"
       d="m48 21-3.649 17.468c-0.4481 0.1722-0.88465 0.36192-1.2998 0.5929l-7.9358-3.9679 3.9679 7.9358c-0.237 0.423-0.439 0.864-0.615 1.322l-17.468 3.649 17.468 3.649c0.17365 0.45186 0.38232 0.88147 0.61571 1.2998l-3.9679 7.9358 7.9358-3.9679c0.41835 0.2334 0.84797 0.44206 1.2998 0.61571l3.648 17.467 3.649-17.468c0.45186-0.17365 0.88148-0.38231 1.2998-0.61571l7.9358 3.9679-3.9679-7.9358c0.23339-0.41836 0.44206-0.84797 0.61571-1.2998l17.467-3.648-17.468-3.649c-0.176-0.458-0.378-0.899-0.616-1.322l3.9679-7.9358-7.9358 3.9679c-0.415-0.231-0.851-0.421-1.299-0.593l-3.649-17.468zm0 20.364c3.6636 0 6.636 2.9723 6.636 6.636 0 3.6636-2.9723 6.636-6.636 6.636-3.6636-0.000001-6.636-2.9723-6.636-6.636 0-3.6636 2.9723-6.636 6.636-6.636z"
       id="path129" />
    <path
       display="inline"
       fill="#fff"
       d="m52.539 10.836c-0.51471 0-1.0474 0.34477-1.6352 1.034-0.27321 0.31859-0.46156 0.63682-0.65076 1.1674-0.1892 0.53062-0.37766 1.2818-0.65075 2.485-0.11127 0.52267-0.22801 1.0506-0.35041 1.5844-0.005 0.02588-0.0651 0.21582-0.10012 0.35023-0.43816-0.90775-0.65409-1.6163-1.7354-5.6538-0.005-0.0062-0.0105-0.01178-0.0167-0.01668-0.004-0.01204-0.009-0.02335-0.0167-0.03335-0.01-0.0076-0.0213-0.01321-0.0334-0.01668-0.006-0.000454-0.0111-0.000454-0.0166 0-0.011-0.0019-0.0224-0.0019-0.0334 0-0.006-0.000454-0.0111-0.000454-0.0167 0-0.006 0.0049-0.0118 0.0105-0.0166 0.01668-0.006 0.0049-0.0118 0.01049-0.0167 0.01668l-0.33372 0.31688c-0.231-0.019-0.396-0.034-0.584-0.034-0.6807 0-1.1184 0.12634-1.5351 0.4503-0.73237 0.57188-1.2348 1.3847-1.2348 2.0514 0 0.29458 0.062 0.61294 0.26698 1.034 0.008 0.01356 0.0198 0.02499 0.0334 0.03335 0.01 0.0076 0.0213 0.0132 0.0334 0.01668 0.006 0.000455 0.0111 0.000455 0.0167 0 0.011 0.0019 0.0224 0.0019 0.0334 0 0.006 0.000455 0.0111 0.000455 0.0167 0 0.006-0.0049 0.0118-0.01049 0.0167-0.01668l0.78425-0.51701c0.0136-0.0084 0.025-0.01979 0.0334-0.03335 0.006-0.0049 0.0118-0.0105 0.0167-0.01668 0.00046-0.0056 0.00046-0.01112 0-0.01668 0.002-0.01104 0.002-0.02231 0-0.03335 0.00046-0.0056 0.00046-0.01112 0-0.01668 0.00046-0.0056 0.00046-0.01112 0-0.01668-0.27695-0.58685-0.36709-0.82747-0.36709-1.0841 0-0.29544 0.16844-0.5661 0.45052-0.71715 0.24902-0.13482 0.48857-0.16678 0.98448-0.16678 0.1993 0 0.42923 0.0045 0.73419 0.01668-0.50777 2.1522-0.92214 3.5345-1.2681 4.1528-0.11155 0.19644-0.22511 0.31263-0.3671 0.38359-0.14198 0.07095-0.32928 0.10007-0.61738 0.10007-0.20625 0-0.37279-0.01669-0.68413-0.05004-0.011-0.0019-0.0224-0.0019-0.0334 0-0.006-0.000454-0.0111-0.000454-0.0167 0-0.006 0.0049-0.0118 0.0105-0.0167 0.01668-0.012 0.0035-0.0234 0.0091-0.0334 0.01668l-0.53396 0.76718c-0.008 0.01-0.0132 0.02131-0.0167 0.03335-0.00044 0.0056-0.00044 0.01112 0 0.01668-0.002 0.01104-0.002 0.02232 0 0.03335-0.00044 0.0056-0.00044 0.01112 0 0.01668 0.005 0.0062 0.0105 0.01178 0.0167 0.01668 0.008 0.01356 0.0198 0.02499 0.0334 0.03335 0.005 0.0062 0.0105 0.01178 0.0167 0.01668 0.011 0.0019 0.0223 0.0019 0.0334 0 0.3009 0.02228 0.45661 0.03335 0.61739 0.03335 0.48681 0 0.80964-0.06052 1.118-0.25017 0.58361-0.34523 1.1562-1.1677 1.5184-2.1181 0.15976-0.42912 0.26739-0.84607 0.61739-2.2515l0.31703 1.3175c0.3238 1.3838 0.60125 2.2192 0.98448 2.9853 0.69073 1.4034 1.7045 2.1014 3.0536 2.1014 0.57933 0 1.0052-0.10388 1.5184-0.40027 0.006 0.000454 0.0111 0.000454 0.0166 0 0.006-0.0049 0.0118-0.0105 0.0167-0.01668 0.01-0.01493 0.0156-0.03218 0.0167-0.05003 0.00045-0.0056 0.00045-0.01112 0-0.01668 0.002-0.01104 0.002-0.02231 0-0.03335l-0.26698-1.0007c-0.005-0.0062-0.0105-0.01178-0.0167-0.01668-0.004-0.01204-0.009-0.02335-0.0166-0.03335-0.01-0.0076-0.0213-0.0132-0.0334-0.01668-0.006-0.000455-0.0111-0.000455-0.0167 0-0.011-0.0019-0.0223-0.0019-0.0334 0-0.006-0.000455-0.0112-0.000455-0.0167 0-0.006 0.0049-0.0118 0.0105-0.0167 0.01668-0.0136 0.0084-0.025 0.01979-0.0334 0.03335-0.006 0.0049-0.0118 0.01049-0.0166 0.01668-0.15516 0.36554-0.23163 0.51088-0.3671 0.66711-0.18374 0.22446-0.423 0.35023-0.66744 0.35023-0.64202 0-1.2642-0.49515-1.8188-1.5344 0.18467-0.93223 0.29241-1.381 0.56733-2.535 0.47849-1.9353 0.7327-2.7102 1.0846-3.4356 0.11224-0.22438 0.2262-0.37593 0.36709-0.46698 0.14089-0.09106 0.30666-0.13342 0.55064-0.13342 0.0829 0 0.13414-0.0047 0.28367 0.01668 0.006 0.000454 0.0111 0.000454 0.0166 0 0.011 0.0019 0.0224 0.0019 0.0334 0 0.0196-0.0058 0.0371-0.01747 0.05-0.03335 0.00045-0.0056 0.00045-0.01112 0-0.01668l0.40047-0.73382c0.006-0.0049 0.0118-0.01049 0.0167-0.01668 0.00045-0.0056 0.00045-0.01113 0-0.01668 0.002-0.01104 0.002-0.02231 0-0.03335 0.00045-0.0056 0.00045-0.01112 0-0.01668-0.005-0.0062-0.0105-0.01178-0.0167-0.01668-0.008-0.01356-0.0198-0.02499-0.0334-0.03335-0.005-0.0062-0.0105-0.01179-0.0166-0.01668-0.006-0.000454-0.0111-0.000454-0.0167 0-0.12709-0.01058-0.24428-0.03335-0.35041-0.03335z"
       id="path131" />
    <path
       display="inline"
       fill="#fff"
       d="m9.7581 46.687c0 1.0568 0.50675 2.3673 1.2517 3.2381 0.88544 1.0114 2.291 1.5639 3.8656 1.5639 0.80348 0.000004 1.4439-0.17902 1.8776-0.55195 0.43367-0.37293 0.64426-0.93277 0.64426-1.6375 0-1.1534-0.55029-2.4074-1.4542-3.3485-0.88473-0.90956-2.1828-1.3983-3.6815-1.3983-0.79132 0.000001-1.4088 0.1873-1.8408 0.55195-0.43191 0.36465-0.66267 0.90109-0.66267 1.5823zm0.69949 0.69914c0-0.51699 0.20461-0.90169 0.57063-1.1775s0.90565-0.44156 1.6015-0.44156c0.91206 0.000003 1.9549 0.26384 2.6323 0.64394 0.90605 0.51238 1.4174 1.3068 1.4174 2.171 0 0.53556-0.20621 0.9432-0.58904 1.2327-0.38284 0.2895-0.95465 0.45996-1.6935 0.45996-1.1145 0.000002-2.1105-0.32203-2.8164-0.84633-0.70585-0.5243-1.1229-1.2471-1.1229-2.0422z"
       id="path133" />
    <path
       display="inline"
       fill="#fff"
       d="m85.286 48.717-0.25679-0.825v-0.03666c-0.0176-1.1675-0.26703-1.9331-0.82541-2.64-0.50179-0.62692-1.0354-0.935-1.7059-0.935-0.32979 0-0.59183 0.04595-1.0272 0.22-0.007 0.0054-0.013 0.01153-0.0184 0.01833-0.0149 0.0092-0.0275 0.02176-0.0367 0.03666-0.007 0.0054-0.013 0.01153-0.0184 0.01833-0.0005 0.0061-0.0005 0.01223 0 0.01833-0.002 0.01213-0.002 0.02453 0 0.03666-0.0005 0.0061-0.0005 0.01223 0 0.01833 0.006 0.0068 0.0115 0.01295 0.0184 0.01834l0.58696 0.89834c0.009 0.01491 0.0218 0.02747 0.0367 0.03666 0.006 0.0068 0.0115 0.01295 0.0184 0.01833 0.006 0.0005 0.0122 0.0005 0.0184 0 0.0122 0.002 0.0246 0.002 0.0367 0 0.006 0.0005 0.0122 0.0005 0.0184 0 0.38534-0.10832 0.69787-0.165 0.99049-0.165 0.45068 0 0.73004 0.14622 0.93547 0.495 0.19099 0.32426 0.29612 0.86204 0.33017 1.595l-2.5863-0.64167h-0.0184c-0.17301-0.16984-0.25483-0.26966-0.47691-0.45834-0.006-0.0005-0.0122-0.0005-0.0184 0-0.006-0.0068-0.0115-0.01295-0.0184-0.01833-0.006-0.000498-0.0122-0.000498-0.0184 0-0.0122-0.002-0.0246-0.002-0.0367 0-0.006-0.000498-0.0122-0.000498-0.0184 0-0.007 0.0054-0.013 0.01154-0.0184 0.01833-0.0149 0.0092-0.0275 0.02175-0.0367 0.03666-0.007 0.0054-0.013 0.01153-0.0184 0.01833-0.002 0.01213-0.002 0.02453 0 0.03666v0.18333c-0.12235-0.02937-0.25254-0.05969-0.34851-0.09166-0.006-0.000499-0.0122-0.000499-0.0184 0-0.94131-0.23216-1.4542-0.39035-1.7425-0.58667-0.28836-0.19632-0.37422-0.42071-0.49525-0.91667-0.001-0.01962-0.008-0.03859-0.0184-0.055l-0.40354-0.47667c-0.011-0.0083-0.0234-0.01452-0.0367-0.01833-0.006-0.0068-0.0115-0.01295-0.0184-0.01834-0.0122-0.002-0.0246-0.002-0.0367 0-0.006-0.0005-0.0122-0.0005-0.0184 0-0.0196 0.0012-0.0386 0.0075-0.055 0.01834-0.007 0.0054-0.0129 0.01153-0.0184 0.01833-0.0108 0.01641-0.0171 0.03538-0.0184 0.055-0.0005 0.0061-0.0005 0.01223 0 0.01833-0.0122 0.3434-0.0184 0.60568-0.0184 0.69667l-0.0184 1.1c0 0.36587-0.006 0.69233-0.0184 0.97167-0.049 1.4804-0.055 1.4896-0.055 2.0167 0 0.32317 0.0172 0.54056 0.11006 0.75167 0.0929 0.21111 0.24252 0.40109 0.49524 0.67834 0.2538 0.28461 0.45736 0.49269 0.64199 0.62334 0.18463 0.13064 0.36355 0.18333 0.53193 0.18333 0.0611 0.000001 0.1746 0.0045 0.31183-0.03666 0.007-0.0054 0.013-0.01153 0.0184-0.01834 0.0149-0.0092 0.0275-0.02175 0.0367-0.03666 0.007-0.0054 0.0129-0.01154 0.0184-0.01833 0.002-0.01213 0.002-0.02453 0-0.03666 0.0005-0.0061 0.0005-0.01223 0-0.01834 0.0005-0.0061 0.0005-0.01223 0-0.01833l-0.348-0.934c-0.006-0.0216-0.0192-0.04076-0.0367-0.055-0.011-0.0083-0.0234-0.01452-0.0367-0.01833-0.006-0.000499-0.0122-0.000499-0.0184 0-0.0122-0.002-0.0246-0.002-0.0367 0-0.25859 0.03693-0.34248 0.055-0.44022 0.055-0.10971 0-0.19217-0.01491-0.23845-0.03666-0.0463-0.02175-0.0617-0.05312-0.0917-0.12833-0.0599-0.15041-0.0917-0.47808-0.0917-1.0633v-2.915c0.86732 0.93479 1.0966 1.0788 2.568 1.4667 0.0297 0.48382 0.0512 0.65095 0.0734 0.91667 0.0122 0.26876 0.0184 0.4278 0.0184 0.495-0.0005 0.0061-0.0005 0.01223 0 0.01834-0.00071-0.0033-0.001 0.05238 0 0.11 0.001 0.05761 0.0119 0.1422 0.0184 0.22-0.0005 0.0061-0.0005 0.01223 0 0.01834 0.006 0.0068 0.0115 0.01295 0.0184 0.01833-0.0005 0.0061-0.0005 0.01223 0 0.01834 0.1605 0.22211 0.19651 0.25777 0.36685 0.47667 0.006 0.0068 0.0115 0.01295 0.0184 0.01834 0.011 0.0083 0.0234 0.01452 0.0367 0.01833 0.006 0.000499 0.0122 0.000499 0.0184 0 0.0122 0.002 0.0246 0.002 0.0367 0 0.006 0.000499 0.0122 0.000499 0.0184 0 0.007-0.0054 0.013-0.01153 0.0184-0.01833 0.0149-0.0092 0.0275-0.02175 0.0367-0.03666 0.007-0.0054 0.013-0.01153 0.0184-0.01834 0.002-0.01213 0.002-0.02453 0-0.03666v-2.0533l2.5496 0.64167v0.29334c0.0244 0.51307 0.0367 0.9107 0.0367 0.97167 0 0.2315-0.012 0.32362-0.11007 0.42167-0.0981 0.09805-0.3133 0.20228-0.71535 0.36667-0.007 0.0054-0.0129 0.01153-0.0184 0.01833-0.0149 0.0092-0.0275 0.02176-0.0367 0.03666-0.007 0.0054-0.0129 0.01153-0.0184 0.01833-0.0005 0.0061-0.0005 0.01223 0 0.01834-0.002 0.01213-0.002 0.02453 0 0.03666-0.0005 0.0061-0.0005 0.01223 0 0.01833 0.004 0.01324 0.01 0.02567 0.0184 0.03666 0.006 0.000498 0.0122 0.000498 0.0184 0l0.82541 0.80667c0.006 0.0068 0.0115 0.01295 0.0184 0.01834 0.006 0.0068 0.0115 0.01295 0.0184 0.01833 0.0121 0.002 0.0246 0.002 0.0367 0 0.006 0.000499 0.0122 0.000499 0.0184 0 0.14624-0.01993 0.27031-0.05692 0.36685-0.12833 0.0965-0.07141 0.15984-0.1746 0.20177-0.29333 0.0005-0.0061 0.0005-0.01223 0-0.01833 0.0005-0.0061 0.0005-0.01223 0-0.01833l-0.055-2.475 0.11006 0.03666c0.0122 0.002 0.0246 0.002 0.0367 0 0.006 0.000499 0.0122 0.000499 0.0184 0 0.0196-0.0012 0.0386-0.0075 0.055-0.01834 0.0174-0.01424 0.0303-0.0334 0.0367-0.055 0.002-0.01214 0.002-0.02453 0-0.03666 0.002-0.01213 0.002-0.02453 0-0.03666z"
       id="path135" />
    <path
       display="inline"
       fill="#fff"
       d="m46.116 85.265c0.60791 0 1.2438-0.33 1.7259-0.79615 0.48208-0.46616 0.81315-1.0705 0.81315-1.6587 0-0.26522-0.0665-0.49939-0.21574-0.72981-0.14925-0.23042-0.37107-0.46049-0.69698-0.71322-0.37336-0.29634-0.59841-0.51502-0.73017-0.71323-0.13177-0.1982-0.18255-0.37189-0.18255-0.6137 0-0.79851 0.78269-1.526 1.6927-1.526 0.44798 0 0.90233 0.19119 1.1782 0.49759 0.22059 0.24148 0.31089 0.44842 0.39828 0.92885-0.00045 0.0057-0.00045 0.01109 0 0.01658 0.005 0.0064 0.0105 0.01174 0.0166 0.01658 0.008 0.01352 0.0197 0.02483 0.0332 0.03315 0.005 0.0064 0.0105 0.01174 0.0166 0.01658 0.006 0.000454 0.011 0.000454 0.0166 0 0.011 0.0021 0.0222 0.0021 0.0332 0 0.006 0.000454 0.0111 0.000454 0.0166 0 0.012-0.0036 0.0232-0.009 0.0332-0.01658l0.16595-0.1161c0.008-0.01 0.0132-0.0212 0.0166-0.03315 0.006-0.005 0.0117-0.01045 0.0166-0.01658l0.49784-1.1611c0.00046-0.0057 0.00046-0.0111 0-0.01658 0.002-0.01095 0.002-0.0222 0-0.03315 0.00046-0.0057 0.00046-0.0111 0-0.01658-0.005-0.0064-0.0105-0.01173-0.0166-0.01658 0.00045-0.0057 0.00045-0.01111 0-0.01658-0.4046-0.54305-0.96642-0.79615-1.7093-0.79615-0.87534 0-1.7421 0.35632-2.3896 0.89567-0.64755 0.53936-1.0787 1.2636-1.0787 2.007 0 0.2401 0.058 0.43708 0.21573 0.64688 0.1578 0.20979 0.40143 0.44045 0.81315 0.76298 0.40266 0.31425 0.64021 0.51174 0.76337 0.68006 0.12315 0.16831 0.14935 0.30252 0.14935 0.53077 0 0.66864-0.50655 1.244-1.0953 1.244-0.21774 0-0.32277-0.03593-0.41487-0.14928-0.0921-0.11338-0.17238-0.33148-0.23232-0.68005 0.00044-0.0057 0.00044-0.0111 0-0.01658-0.005-0.0064-0.0105-0.01174-0.0166-0.01658-0.008-0.01352-0.0197-0.02483-0.0332-0.03315-0.005-0.0064-0.0105-0.01174-0.0166-0.01658-0.006-0.000447-0.0111-0.000447-0.0166 0-0.011-0.0021-0.0222-0.0021-0.0332 0-0.006-0.000447-0.0111-0.000447-0.0166 0-0.006 0.005-0.0117 0.01045-0.0166 0.01658-0.006-0.000456-0.011-0.000456-0.0166 0l-0.73017 0.51418c-0.0158 0.01287-0.0273 0.03024-0.0332 0.04974-0.002 0.01095-0.002 0.0222 0 0.03315-0.00046 0.0057-0.00046 0.01111 0 0.01658 0.0349 0.32045 0.14653 0.57369 0.3319 0.7464 0.18535 0.1727 0.43569 0.24879 0.74676 0.24879z"
       id="path137" />
    <g
       fill-rule="evenodd"
       display="inline"
       transform="matrix(.91204 0 0 .91204 3.7045 4.3714)"
       id="g139">
      <path
         opacity=".05"
         d="m68.344 11.656a0.80733 0.80733 0 0 0 -0.094 0.032c-0.84331 0.36132-1.3786 1.0483-1.7812 1.6562-0.40265 0.60798-0.71865 1.1678-1.0625 1.5312a0.80733 0.80733 0 0 0 -0.0625 0.09375c-7.4189 10.272-14.948 20.506-22.312 30.812a0.80733 0.80733 0 0 0 -0.09375 0.125c-5.556 12.477-11.163 24.994-16.688 37.469a0.80733 0.80733 0 0 0 -0.03125 0.0625c-0.33362 1.0756 0.3584 2.082 1.1875 2.4688 0.41455 0.19339 0.86107 0.28683 1.3438 0.1875 0.46917-0.09655 0.94963-0.38905 1.25-0.84375 0.0035-0.0053-0.0035-0.02589 0-0.03125h0.03125c8.008-11.094 16.11-22.154 24.063-33.281a0.80733 0.80733 0 0 0 0.09375 -0.125c5.568-12.501 11.169-25.021 16.718-37.532a0.80733 0.80733 0 0 0 0.0625 -0.1875c0.2153-1.4496-1.1068-2.6871-2.5312-2.4375a0.80733 0.80733 0 0 0 -0.09375 0z"
         id="path141" />
      <path
         opacity="0.08"
         d="m68.562 12.438c-1.2325 0.52808-1.6769 2.0539-2.5725 3.0006-7.422 10.275-14.943 20.511-22.302 30.811-5.556 12.478-11.164 24.966-16.688 37.438-0.41935 1.352 1.5938 2.2908 2.3438 1.0938 8.0188-11.109 16.137-22.179 24.094-33.312 5.5687-12.501 11.171-24.991 16.719-37.5 0.1381-0.92987-0.67669-1.6919-1.5938-1.5312z"
         id="path143" />
      <path
         opacity="0.12"
         d="m68.781 13.125a0.61863 0.61863 0 0 0 -0.4375 0.25l-23.938 33a0.61863 0.61863 0 0 0 -0.064 0.125l-16.624 37.25a0.61863 0.61863 0 0 0 1.062 0.625l23.938-33.031a0.61863 0.61863 0 0 0 0.063 -0.125l16.623-37.219a0.61863 0.61863 0 0 0 -0.625 -0.875z"
         id="path145" />
      <path
         opacity=".3"
         d="m68.844 13.75-23.938 33-16.625 37.25 23.938-33.031 16.625-37.219z"
         id="path147" />
      <g
         display="inline"
         transform="matrix(.73161 .4224 -.4224 .73161 28.777 -25.989)"
         id="g149">
        <path
           fill="url(#p)"
           d="m69 64h-10l5-48 5 48z"
           id="path151" />
        <path
           fill="url(#q)"
           d="m69 64h-10l5 48 5-48z"
           id="path153" />
        <path
           fill="url(#s)"
           d="m65.503 63.921a1.7404 1.7404 0 1 1 -3.4808 0 1.7404 1.7404 0 1 1 3.4808 0z"
           transform="matrix(1.1491,0,0,1.1491,-9.2727,-9.4546)"
           id="path155" />
      </g>
    </g>
  </g>
  <path
     style="color:#000000"
     d="m24.228-1.5544-3.7368 13.404c-1.414 0.42483-2.7246 1.0848-3.8883 1.9328l-6.0849-3.2632 3.2823 6.0495c-0.85302 1.1569-1.5168 2.4599-1.9442 3.8656l-13.483 3.715 13.483 3.715c0.42732 1.4058 1.0911 2.7087 1.9442 3.8656l-3.2823 6.0495 6.0849-3.2632c1.1637 0.84806 2.4743 1.508 3.8883 1.9328l3.7368 13.404 3.7368-13.404c1.414-0.42484 2.7246-1.0848 3.8883-1.9328l6.0849 3.2632-3.2823-6.0495c0.85303-1.1569 1.5168-2.4599 1.9442-3.8656l13.482-3.715-13.482-3.715c-0.42733-1.4058-1.0911-2.7087-1.9442-3.8656l3.2823-6.0495-6.0849 3.2632c-1.164-0.848-2.474-1.508-3.888-1.933l-3.737-13.404zm0 16.065c5.3547 0 9.6955 4.3155 9.6955 9.639s-4.3408 9.639-9.6955 9.639-9.6955-4.3155-9.6955-9.639 4.3408-9.639 9.6955-9.639z"
     id="path157" />
  <g
     fill-rule="evenodd"
     transform="matrix(1.4998 .3644 .44595 1.4029 -22.946 -18.687)"
     id="g169">
    <path
       opacity=".3"
       d="m39.723 8.5147-17.615 13.613-13.457 17.818 17.615-13.613 13.457-17.818z"
       id="path171" />
    <path
       fill="url(#n)"
       d="m26.265 25.731-4.157-4.206 17.612-13.61-13.455 17.816z"
       id="path173" />
    <path
       fill="url(#o)"
       d="m26.265 25.731-4.157-4.206-13.454 17.816 17.611-13.61z"
       id="path175" />
    <path
       fill="url(#r)"
       d="m24.834 24.283a0.91535 0.92595 0 0 1 -1.294 -1.31 0.91535 0.92595 0 1 1 1.294 1.31z"
       id="path177" />
  </g>
</svg>
