<svg xmlns="http://www.w3.org/2000/svg" height="48" width="48" version="1.1">
 <defs>
  <filter id="a" height="1.2769" width="1.2769" color-interpolation-filters="sRGB" y="-.13847" x="-.13847">
   <feGaussianBlur stdDeviation="0.11539203"/>
  </filter>
 </defs>
 <g transform="matrix(1.286,0,0,1.2826,58.476,-17.986)">
  <g opacity=".71875" filter="url(#a)" transform="matrix(11.8,0,0,11.536,-260.89,-12.073)">
   <path fill-rule="evenodd" d="m-15.125 8.9375a0.90625 0.9375 0 1 1 -1.8125 0 0.90625 0.9375 0 1 1 1.8125 0z" transform="matrix(1.1034,0,-2.1667e-7,1.0667,37.69,-5.5333)"/>
  </g>
  <path d="m-15.125 8.9375a0.90625 0.9375 0 1 1 -1.8125 0 0.90625 0.9375 0 1 1 1.8125 0z" transform="matrix(9.1879,0,-1.8041e-6,8.7704,119.31,-46.412)" stroke="#16bf11" stroke-width=".79393" fill="none"/>
  <g fill="#fff" transform="matrix(4.6582,0,0,4.6768,-121.15,13.266)">
   <path d="m-15.125 8.9375a0.90625 0.9375 0 1 1 -1.8125 0 0.90625 0.9375 0 1 1 1.8125 0z" fill-rule="evenodd" transform="matrix(1.1034,0,-2.1667e-7,1.0667,37.69,-5.5333)" fill="#fff"/>
  </g>
 </g>
 <g transform="matrix(3.3534,0,0,2.4765,-1.116,10.887)">
  <rect fill-opacity="0" height="16" width="16" y="0" x="0"/>
 </g>
 <path stroke-linejoin="round" d="m24.3 30.3a7.95 8.7 0 1 1 -15.9 0 7.95 8.7 0 1 1 15.9 0z" transform="matrix(1.0953 0 0 .99518 4.4862 -7.089)" stroke="#ff0c0c" stroke-width="6.617" fill="none"/>
</svg>
