<svg id="Слой_1" data-name="Слой 1"
  xmlns:dc="http://purl.org/dc/elements/1.1/"
  xmlns:cc="http://creativecommons.org/ns#"
  xmlns:rdf="http://www.w3.org/1999/02/22-rdf-syntax-ns#"
  xmlns="http://www.w3.org/2000/svg"
  xmlns:xlink="http://www.w3.org/1999/xlink" viewBox="0 0 26 26">
  <metadata id="metadata43">
    <rdf:RDF>
      <cc:Work rdf:about="">
        <cc:license rdf:resource="http://creativecommons.org/licenses/by-sa/4.0/" />
        <dc:format>image/svg+xml</dc:format>
        <dc:type rdf:resource="http://purl.org/dc/dcmitype/StillImage" />
        <dc:title>add_arc</dc:title>
      </cc:Work>
      <cc:License rdf:about="http://creativecommons.org/licenses/by-sa/4.0/">
        <cc:permits rdf:resource="http://creativecommons.org/ns#Reproduction" />
        <cc:permits rdf:resource="http://creativecommons.org/ns#Distribution" />
        <cc:requires rdf:resource="http://creativecommons.org/ns#Notice" />
        <cc:requires rdf:resource="http://creativecommons.org/ns#Attribution" />
        <cc:permits rdf:resource="http://creativecommons.org/ns#DerivativeWorks" />
        <cc:requires rdf:resource="http://creativecommons.org/ns#ShareAlike" />
      </cc:License>
    </rdf:RDF>
  </metadata>
  <defs>
    <style>.cls-1,.cls-5,.cls-6{fill:none;}.cls-2{clip-path:url(#clip-path);}.cls-3{fill:#545454;}.cls-4{fill:#1a81c4;}.cls-5,.cls-6{stroke:#b9b9b9;stroke-width:0.25px;}.cls-5{stroke-linecap:round;stroke-linejoin:round;}.cls-6{stroke-miterlimit:10;}.cls-7{fill:#f29100;}</style>
    <clipPath id="clip-path">
      <rect class="cls-1" x="1" y="-29" width="24" height="24" rx="4"/>
    </clipPath>
  </defs>
  <title>pad</title>
  <g class="cls-2">
    <path class="cls-3" d="M18.3579-5.1439a1.351,1.351,0,0,1-1.3509-1.351V-8.3138H2.9328V5.697H4.8151A1.3509,1.3509,0,0,1,6.166,7.0479V9.12H20.3036V-5.1439ZM6.85-5.06a.9351.9351,0,0,1-.935-.9351A.935.935,0,0,1,6.85-6.93a.9351.9351,0,0,1,.9352.9351A.9352.9352,0,0,1,6.85-5.06ZM16.9277,7.5989a.9351.9351,0,1,1,.9352-.9351A.9351.9351,0,0,1,16.9277,7.5989Z"/>
    <rect class="cls-4" x="17.249" y="-0.8531" width="1.9539" height="1.2809"/>
    <rect class="cls-5" x="6.2769" y="-3.9057" width="9.4135" height="8.5456"/>
    <polyline class="cls-6" points="9.304 1.312 11.475 1.312 11.475 4.629"/>
    <polyline class="cls-6" points="9.368 3.161 10.157 3.161 10.157 4.445"/>
    <line class="cls-6" x1="14.3831" y1="1.3209" x2="15.6153" y2="1.3209"/>
    <line class="cls-6" x1="14.3831" y1="3.1326" x2="15.6153" y2="3.1326"/>
    <path class="cls-4" d="M10.6039,7.2949a.64.64,0,1,1,.6405-.6405A.64.64,0,0,1,10.6039,7.2949Z"/>
    <path class="cls-4" d="M8.6655,7.2949a.64.64,0,1,1,.64-.6405A.64.64,0,0,1,8.6655,7.2949Z"/>
    <path class="cls-4" d="M5.1135,1.9887a.64.64,0,1,1-.64-.64A.64.64,0,0,1,5.1135,1.9887Z"/>
    <rect class="cls-4" x="7.4222" y="-1.1654" width="1.9526" height="1.2809"/>
    <rect class="cls-4" x="7.4222" y="0.6834" width="1.9526" height="1.2808"/>
    <rect class="cls-4" x="7.4222" y="2.5308" width="1.9526" height="1.2809"/>
    <rect class="cls-4" x="12.4406" y="-1.1654" width="1.9538" height="1.2809"/>
    <rect class="cls-4" x="12.4406" y="0.6834" width="1.9538" height="1.2808"/>
    <rect class="cls-4" x="12.4406" y="2.5308" width="1.9538" height="1.2809"/>
    <path class="cls-3" d="M37.41-5.1439a1.351,1.351,0,0,1-1.351-1.351V-8.3138H21.985V5.697h1.8823a1.351,1.351,0,0,1,1.351,1.3509V9.12H39.3558V-5.1439ZM25.9022-5.06a.9351.9351,0,0,1-.9351-.9351.935.935,0,0,1,.9351-.9351.9351.9351,0,0,1,.9351.9351A.9352.9352,0,0,1,25.9022-5.06ZM35.98,7.5989a.9351.9351,0,1,1,.9352-.9351A.9351.9351,0,0,1,35.98,7.5989Z"/>
    <rect class="cls-5" x="25.3291" y="-3.9057" width="9.4135" height="8.5456"/>
    <path class="cls-4" d="M24.1657,1.9887a.64.64,0,1,1-.64-.64A.64.64,0,0,1,24.1657,1.9887Z"/>
  </g>
  <path class="cls-7" d="M13,1A12,12,0,1,0,25,13,12.0139,12.0139,0,0,0,13,1Zm0,23A11,11,0,1,1,24,13,11.0121,11.0121,0,0,1,13,24Z"/>
  <path class="cls-7" d="M13,3.7244A9.2756,9.2756,0,1,0,22.2757,13,9.2859,9.2859,0,0,0,13,3.7244ZM13,18.276A5.276,5.276,0,1,1,18.276,13,5.2824,5.2824,0,0,1,13,18.276Z"/>
</svg>