<?xml version="1.0" encoding="UTF-8" standalone="no"?>
<svg
   xmlns:dc="http://purl.org/dc/elements/1.1/"
   xmlns:cc="http://creativecommons.org/ns#"
   xmlns:rdf="http://www.w3.org/1999/02/22-rdf-syntax-ns#"
   xmlns:svg="http://www.w3.org/2000/svg"
   xmlns="http://www.w3.org/2000/svg"
   xmlns:sodipodi="http://sodipodi.sourceforge.net/DTD/sodipodi-0.dtd"
   xmlns:inkscape="http://www.inkscape.org/namespaces/inkscape"
   id="Слой_1"
   data-name="Слой 1"
   viewBox="0 0 24 24"
   version="1.1"
   sodipodi:docname="pad_number.svg"
   inkscape:version="0.92.2 5c3e80d, 2017-08-06"
   inkscape:export-filename="/Users/jeff/kicad_dev/kicad/bitmaps_png/png_26/pad_number.png"
   inkscape:export-xdpi="96"
   inkscape:export-ydpi="96">
  <sodipodi:namedview
     pagecolor="#ffffff"
     bordercolor="#666666"
     borderopacity="1"
     objecttolerance="10"
     gridtolerance="10"
     guidetolerance="10"
     inkscape:pageopacity="0"
     inkscape:pageshadow="2"
     inkscape:window-width="1609"
     inkscape:window-height="1286"
     id="namedview30"
     showgrid="true"
     inkscape:zoom="27.961538"
     inkscape:cx="13.515963"
     inkscape:cy="11.644836"
     inkscape:window-x="0"
     inkscape:window-y="37"
     inkscape:window-maximized="0"
     inkscape:document-rotation="0"
     inkscape:current-layer="Слой_1">
    <inkscape:grid
       type="xygrid"
       id="grid_kicad"
       spacingx="0.5"
       spacingy="0.5"
       color="#9999ff"
       opacity="0.13"
       empspacing="2" />
  </sodipodi:namedview>
  <metadata
     id="metadata43">
    <rdf:RDF>
      <cc:Work
         rdf:about="">
        <cc:license
           rdf:resource="http://creativecommons.org/licenses/by-sa/4.0/" />
        <dc:format>image/svg+xml</dc:format>
        <dc:type
           rdf:resource="http://purl.org/dc/dcmitype/StillImage" />
        <dc:title>add_arc</dc:title>
      </cc:Work>
      <cc:License
         rdf:about="http://creativecommons.org/licenses/by-sa/4.0/">
        <cc:permits
           rdf:resource="http://creativecommons.org/ns#Reproduction" />
        <cc:permits
           rdf:resource="http://creativecommons.org/ns#Distribution" />
        <cc:requires
           rdf:resource="http://creativecommons.org/ns#Notice" />
        <cc:requires
           rdf:resource="http://creativecommons.org/ns#Attribution" />
        <cc:permits
           rdf:resource="http://creativecommons.org/ns#DerivativeWorks" />
        <cc:requires
           rdf:resource="http://creativecommons.org/ns#ShareAlike" />
      </cc:License>
    </rdf:RDF>
  </metadata>
  <defs
     id="defs26109">
    <style
       id="style26107">.cls-1{fill:#f29100;}.cls-2{fill:#545454;}.cls-3{fill:#fff;}.cls-4{fill:#bf2641;}.cls-5{fill:#f5f5f5;}</style>
  </defs>
  <title
     id="title26111">pad_number</title>
  <path
     class="cls-1"
     d="M 10.5,-0.0039 A 10.5045,10.5045 0 1 0 21.0039,10.5006 10.5167,10.5167 0 0 0 10.5,-0.0039 Z m 0,20.1337 A 9.6292,9.6292 0 1 1 20.1292,10.5006 9.64,9.64 0 0 1 10.5,20.13 Z"
     id="path26113" />
  <path
     class="cls-1"
     d="m 10.5,2.3809 a 8.12,8.12 0 1 0 8.12,8.12 8.1287,8.1287 0 0 0 -8.12,-8.12 z m 0,12.7381 A 4.6185,4.6185 0 1 1 15.1184,10.5006 4.624,4.624 0 0 1 10.5,15.119 Z"
     id="path26115" />
  <polygon
     class="cls-2"
     points="10.399,7.126 7.615,7.126 7.615,4.967 13.184,4.429 13.184,18.642 10.399,18.642 "
     id="polygon26117"
     transform="translate(-1,-1)" />
  <path
     class="cls-3"
     d="M 11.9332,3.7043 V 17.392 H 9.6492 V 5.8756 H 6.8657 V 4.1934 l 5.0675,-0.4891 m 0.5,-0.5506 -0.548,0.0529 L 6.8176,3.6957 6.3657,3.7393 V 6.3756 H 9.1492 V 17.892 h 3.284 z"
     id="path26119" />
</svg>
