<svg id="Слой_1" data-name="Слой 1"
  xmlns:cc="http://creativecommons.org/ns#"
  xmlns:rdf="http://www.w3.org/1999/02/22-rdf-syntax-ns#"
  xmlns="http://www.w3.org/2000/svg" viewBox="0 0 26 26">
  <metadata id="metadata43">
    <rdf:RDF>
      <cc:Work rdf:about="">
        <cc:license rdf:resource="http://creativecommons.org/licenses/by/4.0/" />
      </cc:Work>
      <cc:License rdf:about="http://creativecommons.org/licenses/by/4.0/">
        <cc:permits rdf:resource="http://creativecommons.org/ns#Reproduction" />
        <cc:permits rdf:resource="http://creativecommons.org/ns#Distribution" />
        <cc:requires rdf:resource="http://creativecommons.org/ns#Notice" />
        <cc:requires rdf:resource="http://creativecommons.org/ns#Attribution" />
        <cc:permits rdf:resource="http://creativecommons.org/ns#DerivativeWorks" />
      </cc:License>
    </rdf:RDF>
  </metadata>
  <defs>
    <style>.cls-1{fill:#b9b9b9;}.cls-2{fill:#f29100;}.cls-3{fill:#545454;}</style>
  </defs>
  <title>pad_sketch</title>
  <path class="cls-1" d="M12.9844,25.019a11.9552,11.9552,0,0,1-8.5108-3.52l.7071-.707A11.0361,11.0361,0,0,0,20.7881,5.1841l.707-.707A12.0312,12.0312,0,0,1,12.9844,25.019Z"/>
  <path class="cls-1" d="M12.9844,22.2983a9.2885,9.2885,0,0,1-6.5869-2.7236l.707-.707a8.3154,8.3154,0,0,0,11.76-11.76l.707-.707a9.3105,9.3105,0,0,1-6.5869,15.8974Zm0-3.042A6.2513,6.2513,0,0,1,8.55,17.4224l.707-.7071A5.2715,5.2715,0,0,0,16.7119,9.26l.707-.7071a6.2685,6.2685,0,0,1-4.4345,10.7031Z"/>
  <path class="cls-2" d="M12.9844.9878a11.9942,11.9942,0,0,0-8.67,20.2879c.0374.0391.113.1166.113.1166L21.4657,4.5066s-.1065-.1055-.16-.1575A11.9591,11.9591,0,0,0,12.9844.9878ZM5.21,20.7626s-.0971-.098-.1449-.1477A10.995,10.995,0,0,1,20.43,4.8973c.0451.0416.1345.1259.1345.1259Z"/>
  <path class="cls-2" d="M12.9844,3.7122A9.2712,9.2712,0,0,0,6.2323,19.3415c.0682.0724.2078.2138.2078.2138L19.5871,6.4791s-.1768-.1758-.2678-.261A9.2415,9.2415,0,0,0,12.9844,3.7122ZM9.2671,16.7282s-.1383-.1414-.2045-.2149a5.2733,5.2733,0,0,1,7.4431-7.451c.0627.0562.1838.1731.1838.1731Z"/>
  <path class="cls-3" d="M1.4844,24.9878a.5.5,0,0,1-.3535-.8535L24.1377,1.1274a.5.5,0,0,1,.707.7071L1.8379,24.8413A.4983.4983,0,0,1,1.4844,24.9878Z"/>
</svg>