<?xml version="1.0" encoding="UTF-8" standalone="no"?>
<svg
   xmlns:dc="http://purl.org/dc/elements/1.1/"
   xmlns:cc="http://creativecommons.org/ns#"
   xmlns:rdf="http://www.w3.org/1999/02/22-rdf-syntax-ns#"
   xmlns:svg="http://www.w3.org/2000/svg"
   xmlns="http://www.w3.org/2000/svg"
   xmlns:sodipodi="http://sodipodi.sourceforge.net/DTD/sodipodi-0.dtd"
   xmlns:inkscape="http://www.inkscape.org/namespaces/inkscape"
   height="26"
   width="26"
   version="1.1"
   id="svg2"
   inkscape:version="0.48.3.1 r9886"
   sodipodi:docname="pad_sketch.svg">
  <metadata
     id="metadata40">
    <rdf:RDF>
      <cc:Work
         rdf:about="">
        <dc:format>image/svg+xml</dc:format>
        <dc:type
           rdf:resource="http://purl.org/dc/dcmitype/StillImage" />
        <dc:title />
      </cc:Work>
    </rdf:RDF>
  </metadata>
  <sodipodi:namedview
     pagecolor="#ffffff"
     bordercolor="#666666"
     borderopacity="1"
     objecttolerance="10"
     gridtolerance="10"
     guidetolerance="10"
     inkscape:pageopacity="0"
     inkscape:pageshadow="2"
     inkscape:window-width="1301"
     inkscape:window-height="744"
     id="namedview38"
     showgrid="true"
     inkscape:snap-to-guides="false"
     inkscape:snap-grids="true"
     inkscape:zoom="22.961538"
     inkscape:cx="13"
     inkscape:cy="13"
     inkscape:window-x="65"
     inkscape:window-y="24"
     inkscape:window-maximized="1"
     inkscape:current-layer="svg2"
     inkscape:snap-nodes="true">
    <inkscape:grid
       type="xygrid"
       id="grid3017"
       empspacing="2"
       visible="true"
       enabled="true"
       snapvisiblegridlinesonly="true"
       spacingx="0.5px"
       spacingy="0.5px" />
  </sodipodi:namedview>
  <defs
     id="defs4" />
  <g
     transform="matrix(1.6382539,0,0,1.5572263,1.2572207,0.36314149)"
     id="g16">
    <rect
       height="16"
       width="16"
       y="0"
       x="0"
       id="rect18"
       style="fill-opacity:0" />
  </g>
  <path
     style="fill:none;stroke:#008000;stroke-width:1.5;stroke-miterlimit:4;stroke-opacity:1;stroke-linecap:round;stroke-linejoin:round;stroke-dasharray:none"
     d="M 6.9895926,19.010408 C 8.52779,20.548605 10.65279,21.499999 13,21.499999 c 4.694421,0 8.499999,-3.805578 8.499999,-8.499999 l 0,0 c 0,-2.34721 -0.951394,-4.4722099 -2.489591,-6.0104073 l -3.535531,3.5355363 c 0.633376,0.633376 1.025126,1.508376 1.025126,2.474874 0,1.932997 -1.567003,3.5 -3.5,3.5 -0.966498,0 -1.841498,-0.391751 -2.474873,-1.025126 z"
     id="path3947"
     inkscape:connector-curvature="0"
     sodipodi:nodetypes="csccccsscc" />
  <path
     style="fill:#008000;stroke:#008000;stroke-width:1.5;stroke-miterlimit:4;stroke-opacity:1;stroke-linejoin:round;fill-opacity:0.69803923000000001;stroke-dasharray:none"
     d="M 10.52513,15.474877 C 9.8917541,14.841502 9.5000033,13.966502 9.5000033,13.000003 c 0,-1.932996 1.5670037,-3.4999998 3.4999997,-3.4999998 0.966499,0 1.841499,0.3917508 2.474874,1.0251258 L 19.010408,6.9895927 C 17.47221,5.4513954 15.347211,4.5000005 13,4.5000005 8.3055798,4.5000005 4.5000003,8.3055799 4.5000003,13 c 0,2.347211 0.9513949,4.47221 2.4895923,6.010408 z"
     id="path3854"
     inkscape:connector-curvature="0"
     sodipodi:nodetypes="cssccsscc" />
  <path
     style="fill:none;stroke:#b3b3b3;stroke-width:1.5;stroke-linecap:round;stroke-linejoin:miter;stroke-opacity:1;stroke-miterlimit:4;stroke-dasharray:none"
     d="m 24.5,1.5 -23,23"
     id="path3856"
     inkscape:connector-curvature="0"
     sodipodi:nodetypes="cc" />
</svg>
