<svg id="Слой_1" data-name="Слой 1"
  xmlns:dc="http://purl.org/dc/elements/1.1/"
  xmlns:cc="http://creativecommons.org/ns#"
  xmlns:rdf="http://www.w3.org/1999/02/22-rdf-syntax-ns#"
  xmlns="http://www.w3.org/2000/svg"
  xmlns:sodipodi="http://sodipodi.sourceforge.net/DTD/sodipodi-0.dtd"
  xmlns:inkscape="http://www.inkscape.org/namespaces/inkscape" viewBox="0 0 26 26">
  <sodipodi:namedview pagecolor="#ffffff" bordercolor="#666666" borderopacity="1" objecttolerance="10" gridtolerance="10" guidetolerance="10" inkscape:pageopacity="0" inkscape:pageshadow="2" inkscape:window-width="1609" inkscape:window-height="1286" id="namedview30" showgrid="true" inkscape:zoom="27.961538" inkscape:cx="13" inkscape:cy="13" inkscape:window-x="0" inkscape:window-y="37" inkscape:window-maximized="0">
    <inkscape:grid type="xygrid" id="grid_kicad" spacingx="0.5" spacingy="0.5" color="#9999ff" opacity="0.13" empspacing="2" />
  </sodipodi:namedview>
  <metadata id="metadata43">
    <rdf:RDF>
      <cc:Work rdf:about="">
        <cc:license rdf:resource="http://creativecommons.org/licenses/by-sa/4.0/" />
        <dc:format>image/svg+xml</dc:format>
        <dc:type rdf:resource="http://purl.org/dc/dcmitype/StillImage" />
        <dc:title>add_arc</dc:title>
      </cc:Work>
      <cc:License rdf:about="http://creativecommons.org/licenses/by-sa/4.0/">
        <cc:permits rdf:resource="http://creativecommons.org/ns#Reproduction" />
        <cc:permits rdf:resource="http://creativecommons.org/ns#Distribution" />
        <cc:requires rdf:resource="http://creativecommons.org/ns#Notice" />
        <cc:requires rdf:resource="http://creativecommons.org/ns#Attribution" />
        <cc:permits rdf:resource="http://creativecommons.org/ns#DerivativeWorks" />
        <cc:requires rdf:resource="http://creativecommons.org/ns#ShareAlike" />
      </cc:License>
    </rdf:RDF>
  </metadata>
  <defs>
    <style>.cls-1{fill:#f29100;}.cls-2{fill:#545454;}.cls-3{fill:#fff;}.cls-4{fill:#e61c50;}.cls-5{fill:#f5f5f5;}</style>
  </defs>
  <title>pad_number</title>
  <path class="cls-1" d="M11.5.9961A10.5045,10.5045,0,1,0,22.0039,11.5006,10.5167,10.5167,0,0,0,11.5.9961Zm0,20.1337a9.6292,9.6292,0,1,1,9.6292-9.6292A9.64,9.64,0,0,1,11.5,21.13Z"/>
  <path class="cls-1" d="M11.5,3.3809a8.12,8.12,0,1,0,8.12,8.12A8.1287,8.1287,0,0,0,11.5,3.3809Zm0,12.7381a4.6185,4.6185,0,1,1,4.6184-4.6184A4.624,4.624,0,0,1,11.5,16.119Z"/>
  <polygon class="cls-2" points="10.399 18.642 10.399 7.126 7.615 7.126 7.615 4.967 13.184 4.429 13.184 18.642 10.399 18.642"/>
  <path class="cls-3" d="M12.9332,4.7043V18.392h-2.284V6.8756H7.8657V5.1934l5.0675-.4891m.5-.5506-.548.0529-5.0676.4891-.4519.0436V7.3756h2.7835V18.892h3.284V4.1537Z"/>
  <ellipse class="cls-4" cx="18" cy="18.0087" rx="7.0066" ry="7"/>
  <path class="cls-5" d="M23.6757,18.0087S21.1346,21.091,18,21.091s-5.6757-3.0823-5.6757-3.0823S14.8654,14.9263,18,14.9263,23.6757,18.0087,23.6757,18.0087Z"/>
  <circle class="cls-4" cx="18" cy="18.0087" r="2.1"/>
  <path class="cls-5" d="M18.97,18.0087a.97.97,0,1,1-.97-.97A.97.97,0,0,1,18.97,18.0087Z"/>
</svg>