<svg id="Слой_1" data-name="Слой 1"
  xmlns:dc="http://purl.org/dc/elements/1.1/"
  xmlns:cc="http://creativecommons.org/ns#"
  xmlns:rdf="http://www.w3.org/1999/02/22-rdf-syntax-ns#"
  xmlns="http://www.w3.org/2000/svg" viewBox="0 0 26 26">
  <metadata id="metadata43">
    <rdf:RDF>
      <cc:Work rdf:about="">
        <cc:license rdf:resource="http://creativecommons.org/licenses/by-sa/4.0/" />
        <dc:format>image/svg+xml</dc:format>
        <dc:type rdf:resource="http://purl.org/dc/dcmitype/StillImage" />
        <dc:title>add_arc</dc:title>
      </cc:Work>
      <cc:License rdf:about="http://creativecommons.org/licenses/by-sa/4.0/">
        <cc:permits rdf:resource="http://creativecommons.org/ns#Reproduction" />
        <cc:permits rdf:resource="http://creativecommons.org/ns#Distribution" />
        <cc:requires rdf:resource="http://creativecommons.org/ns#Notice" />
        <cc:requires rdf:resource="http://creativecommons.org/ns#Attribution" />
        <cc:permits rdf:resource="http://creativecommons.org/ns#DerivativeWorks" />
        <cc:requires rdf:resource="http://creativecommons.org/ns#ShareAlike" />
      </cc:License>
    </rdf:RDF>
  </metadata>
  <defs>
    <style>.cls-1{fill:#b9b9b9;}.cls-2{fill:#1a81c4;}.cls-3{fill:none;stroke:#1a81c4;stroke-linejoin:round;}.cls-4{fill:#545454;}</style>
  </defs>
  <title>pagelayout_normal_view_mode</title>
  <polygon class="cls-1" points="1.5 24.5 1.5 1.5 18.538 1.5 18.538 7.496 24.5 7.496 24.5 24.5 1.5 24.5"/>
  <path class="cls-2" d="M18.0377,2V7.9964H24V24H2V2H18.0377m1-1H1V25H25V6.9964H19.0377V1Z"/>
  <polygon class="cls-2" points="19.038 6.996 25 6.996 19.038 1 19.038 6.996"/>
  <polyline class="cls-3" points="14.802 24.827 14.802 18.929 24.468 18.929"/>
  <line class="cls-3" x1="24.6561" y1="21.8855" x2="14.9217" y2="21.8855"/>
  <line class="cls-3" x1="17.9806" y1="24.8626" x2="17.9806" y2="19.2314"/>
  <line class="cls-3" x1="21.0158" y1="24.8626" x2="21.0158" y2="19.2314"/>
  <path class="cls-4" d="M15.3827,6.5893H11.0335V19.0538H8.6315V6.5893H4.2822V4.662H15.3827Z"/>
</svg>