<?xml version="1.0" encoding="UTF-8" standalone="no"?>
<svg
   xmlns:dc="http://purl.org/dc/elements/1.1/"
   xmlns:cc="http://creativecommons.org/ns#"
   xmlns:rdf="http://www.w3.org/1999/02/22-rdf-syntax-ns#"
   xmlns:svg="http://www.w3.org/2000/svg"
   xmlns="http://www.w3.org/2000/svg"
   xmlns:sodipodi="http://sodipodi.sourceforge.net/DTD/sodipodi-0.dtd"
   xmlns:inkscape="http://www.inkscape.org/namespaces/inkscape"
   height="26"
   width="26"
   version="1.0"
   id="svg2"
   inkscape:version="0.48.2 r9819"
   sodipodi:docname="pagelayout_load.svg">
  <metadata
     id="metadata133">
    <rdf:RDF>
      <cc:Work
         rdf:about="">
        <dc:format>image/svg+xml</dc:format>
        <dc:type
           rdf:resource="http://purl.org/dc/dcmitype/StillImage" />
        <dc:title></dc:title>
      </cc:Work>
    </rdf:RDF>
  </metadata>
  <sodipodi:namedview
     pagecolor="#ffffff"
     bordercolor="#666666"
     borderopacity="1"
     objecttolerance="10"
     gridtolerance="10"
     guidetolerance="10"
     inkscape:pageopacity="0"
     inkscape:pageshadow="2"
     inkscape:window-width="1280"
     inkscape:window-height="977"
     id="namedview131"
     showgrid="true"
     inkscape:snap-to-guides="false"
     inkscape:snap-grids="false"
     inkscape:zoom="13.333333"
     inkscape:cx="7.6914467"
     inkscape:cy="6.5192721"
     inkscape:window-x="-4"
     inkscape:window-y="-4"
     inkscape:window-maximized="1"
     inkscape:current-layer="svg2">
    <inkscape:grid
       type="xygrid"
       id="grid3110"
       empspacing="5"
       visible="true"
       enabled="true"
       snapvisiblegridlinesonly="true" />
  </sodipodi:namedview>
  <defs
     id="defs4">
    <filter
       id="n"
       color-interpolation-filters="sRGB">
      <feGaussianBlur
         stdDeviation="1.0394514"
         id="feGaussianBlur7" />
    </filter>
    <marker
       id="l"
       refY="0"
       refX="0"
       overflow="visible"
       orient="auto"
       style="overflow:visible">
      <path
         d="M 5.77,0 -2.88,5 V -5 l 8.65,5 z"
         transform="scale(-0.4,-0.4)"
         id="path10"
         inkscape:connector-curvature="0"
         style="fill-rule:evenodd;stroke:#000000;stroke-width:1pt" />
    </marker>
    <marker
       id="m"
       refY="0"
       refX="0"
       overflow="visible"
       orient="auto"
       style="overflow:visible">
      <path
         d="M 5.77,0 -2.88,5 V -5 l 8.65,5 z"
         transform="scale(0.4,0.4)"
         id="path13"
         inkscape:connector-curvature="0"
         style="fill-rule:evenodd;stroke:#000000;stroke-width:1pt" />
    </marker>
    <linearGradient
       id="o"
       y2="94.537003"
       gradientUnits="userSpaceOnUse"
       x2="86.536003"
       y1="102.34"
       x1="94.344002">
      <stop
         stop-color="#fff"
         offset="0"
         id="stop16" />
      <stop
         stop-color="#555753"
         offset="1"
         id="stop18" />
    </linearGradient>
    <linearGradient
       id="p"
       y2="94.586998"
       gradientUnits="userSpaceOnUse"
       x2="86.586998"
       y1="103"
       x1="95">
      <stop
         stop-color="#fff"
         offset="0"
         id="stop21" />
      <stop
         stop-color="#555753"
         offset="1"
         id="stop23" />
    </linearGradient>
    <linearGradient
       id="q"
       y2="95.292999"
       gradientUnits="userSpaceOnUse"
       x2="87.292999"
       y1="103"
       x1="95">
      <stop
         stop-color="#fff"
         offset="0"
         id="stop26" />
      <stop
         stop-color="#393b38"
         offset="1"
         id="stop28" />
    </linearGradient>
    <linearGradient
       id="r"
       y2="96"
       gradientUnits="userSpaceOnUse"
       x2="88"
       y1="104"
       x1="96">
      <stop
         stop-color="#888a85"
         offset="0"
         id="stop31" />
      <stop
         stop-color="#8c8e89"
         offset=".0072"
         id="stop33" />
      <stop
         stop-color="#abaca9"
         offset=".0673"
         id="stop35" />
      <stop
         stop-color="#c5c6c4"
         offset=".1347"
         id="stop37" />
      <stop
         stop-color="#dbdbda"
         offset=".2115"
         id="stop39" />
      <stop
         stop-color="#ebebeb"
         offset=".3012"
         id="stop41" />
      <stop
         stop-color="#f7f7f6"
         offset=".4122"
         id="stop43" />
      <stop
         stop-color="#fdfdfd"
         offset=".5679"
         id="stop45" />
      <stop
         stop-color="#fff"
         offset="1"
         id="stop47" />
    </linearGradient>
    <radialGradient
       id="t"
       gradientUnits="userSpaceOnUse"
       cy="112.3"
       cx="102"
       gradientTransform="matrix(0,-0.25288808,0.20993589,0,-0.32737717,29.222083)"
       r="139.56">
      <stop
         stop-color="#535557"
         offset="0"
         id="stop50" />
      <stop
         stop-color="#898a8c"
         offset=".11366"
         id="stop52" />
      <stop
         stop-color="#ececec"
         offset=".20297"
         id="stop54" />
      <stop
         stop-color="#fafafa"
         offset=".23630"
         id="stop56" />
      <stop
         stop-color="#fff"
         offset=".27220"
         id="stop58" />
      <stop
         stop-color="#fafafa"
         offset=".53130"
         id="stop60" />
      <stop
         stop-color="#ebecec"
         offset=".84490"
         id="stop62" />
      <stop
         stop-color="#e1e2e3"
         offset="1"
         id="stop64" />
    </radialGradient>
    <radialGradient
       id="u"
       gradientUnits="userSpaceOnUse"
       cy="112.3"
       cx="102"
       gradientTransform="matrix(0,-0.22456181,0.20619923,0,-0.06831569,26.261372)"
       r="139.56">
      <stop
         stop-color="#00537d"
         offset="0"
         id="stop67" />
      <stop
         stop-color="#186389"
         offset=".0151"
         id="stop69" />
      <stop
         stop-color="#558ca8"
         offset=".0558"
         id="stop71" />
      <stop
         stop-color="#89afc3"
         offset=".0964"
         id="stop73" />
      <stop
         stop-color="#b3ccd8"
         offset=".1357"
         id="stop75" />
      <stop
         stop-color="#d4e2e9"
         offset=".1737"
         id="stop77" />
      <stop
         stop-color="#ecf2f5"
         offset=".20990"
         id="stop79" />
      <stop
         stop-color="#fafcfd"
         offset=".24350"
         id="stop81" />
      <stop
         stop-color="#fff"
         offset=".27220"
         id="stop83" />
    </radialGradient>
    <linearGradient
       id="s"
       y2="9.6875"
       gradientUnits="userSpaceOnUse"
       x2="-24.75"
       gradientTransform="matrix(0,-0.25415316,0.20725536,0,4.9020693,-3.6748783)"
       y1="11.566"
       x1="-26.754">
      <stop
         stop-color="#fff"
         offset="0"
         id="stop86" />
      <stop
         stop-color="#fff"
         stop-opacity="0"
         offset="1"
         id="stop88" />
    </linearGradient>
    <radialGradient
       id="v"
       gradientUnits="userSpaceOnUse"
       cy="5.3000002"
       cx="4"
       gradientTransform="matrix(0,-0.47934299,0.24383045,0,4.0242988,12.475354)"
       r="17">
      <stop
         stop-color="#fff"
         offset="0"
         id="stop91" />
      <stop
         stop-color="#fff"
         stop-opacity="0"
         offset="1"
         id="stop93" />
    </radialGradient>
    <radialGradient
       id="p-1"
       gradientUnits="userSpaceOnUse"
       cy="27.875"
       cx="16"
       gradientTransform="matrix(1,0,0,0.28866,0,19.829)"
       r="12.125">
      <stop
         offset="0"
         id="stop3375" />
      <stop
         stop-opacity="0"
         offset="1"
         id="stop3377" />
    </radialGradient>
    <radialGradient
       id="q-7"
       gradientUnits="userSpaceOnUse"
       cy="15.491"
       cx="10.783"
       gradientTransform="matrix(0.40447,0,0,0.42758,4.3012,2.4766)"
       r="17.709">
      <stop
         stop-color="#fff"
         offset="0"
         id="stop3380" />
      <stop
         stop-color="#c1c7bc"
         offset="1"
         id="stop3382" />
    </radialGradient>
    <radialGradient
       id="r-4"
       gradientUnits="userSpaceOnUse"
       cy="10.499"
       cx="10.5"
       gradientTransform="matrix(2.1471,4.6915e-7,-4.6925e-7,2.1471,1.4265,-49.569)"
       r="10.496">
      <stop
         stop-color="#f57900"
         offset="0"
         id="stop3385" />
      <stop
         stop-color="#fcaf3e"
         offset="1"
         id="stop3387" />
    </radialGradient>
    <linearGradient
       id="j"
       y2="51.027"
       gradientUnits="userSpaceOnUse"
       x2="26.139999"
       y1="20.927"
       x1="25.594">
      <stop
         stop-color="#fff"
         offset="0"
         id="stop3390" />
      <stop
         stop-color="#fff"
         stop-opacity="0"
         offset="1"
         id="stop3392" />
    </linearGradient>
    <linearGradient
       id="k"
       y2="-49.625"
       gradientUnits="userSpaceOnUse"
       x2="23.732"
       y1="-40.465"
       x1="25.865999">
      <stop
         stop-color="#fff"
         offset="0"
         id="stop3395" />
      <stop
         stop-color="#fff"
         stop-opacity="0"
         offset="1"
         id="stop3397" />
    </linearGradient>
    <linearGradient
       id="l-0"
       y2="14.781"
       gradientUnits="userSpaceOnUse"
       x2="83.625"
       y1="15.75"
       x1="79.25">
      <stop
         offset="0"
         id="stop3400" />
      <stop
         stop-opacity="0"
         offset="1"
         id="stop3402" />
    </linearGradient>
    <linearGradient
       id="m-9"
       y2="13.875"
       gradientUnits="userSpaceOnUse"
       x2="83.219002"
       gradientTransform="translate(1,0)"
       y1="14.062"
       x1="80.625">
      <stop
         stop-color="#eeeeec"
         offset="0"
         id="stop3405" />
      <stop
         stop-color="#eeeeec"
         stop-opacity="0"
         offset="1"
         id="stop3407" />
    </linearGradient>
    <linearGradient
       id="n-4"
       y2="12.093"
       gradientUnits="userSpaceOnUse"
       x2="83.203003"
       gradientTransform="translate(1,0)"
       y1="12.312"
       x1="78.311996">
      <stop
         stop-color="#555753"
         offset="0"
         id="stop3410" />
      <stop
         stop-color="#888a85"
         stop-opacity="0"
         offset="1"
         id="stop3412" />
    </linearGradient>
    <linearGradient
       id="o-8"
       y2="16.438"
       gradientUnits="userSpaceOnUse"
       x2="83.030998"
       gradientTransform="translate(1,0)"
       y1="16.406"
       x1="78.5">
      <stop
         stop-color="#fff"
         offset="0"
         id="stop3415" />
      <stop
         stop-color="#fff"
         stop-opacity="0"
         offset="1"
         id="stop3417" />
    </linearGradient>
  </defs>
  <rect
     height="48"
     width="48"
     y="-64.449997"
     x="-50.849998"
     id="rect95"
     style="opacity:0" />
  <path
     d="m 5.7311015,9.4059783 c 0,0.2181084 0.1394995,0.3891786 0.3173568,0.3891786 h 7.6555727 c 0.177857,0 0.317358,-0.1710702 0.317358,-0.3891786 V 1.5427882 c 0,-0.2181091 -0.139501,-0.3891784 -0.317358,-0.3891784 H 8.5292163 c -0.2884891,0 -0.8910636,0.1237663 -1.2759287,0.5956945 L 6.2161606,3.0205356 C 5.8315529,3.4924694 5.7306224,4.2314196 5.7306224,4.5851785 v 4.8210291 z"
     id="path97"
     inkscape:connector-curvature="0"
     style="opacity:0.68015998;fill:url(#v)" />
  <path
     d="m 5.8347112,9.4059783 c 0,0.1482164 0.092868,0.2620982 0.2137317,0.2620982 h 7.6555741 c 0.120865,0 0.213731,-0.1138818 0.213731,-0.2620982 V 1.5427882 c 0,-0.1482173 -0.09286,-0.262099 -0.213731,-0.262099 H 8.529201 c -0.2650831,0 -0.8508769,0.1221125 -1.2046748,0.5559925 L 6.2879146,3.1079128 C 5.9339621,3.5417326 5.8343712,4.260093 5.8343712,4.5851566 v 4.8210292 z"
     id="path99"
     inkscape:connector-curvature="0"
     style="fill:none;stroke:url(#s);stroke-width:0.2295121" />
  <path
     d="m 23,9 0.04082,112 h 61.131 c 0.53,0 1.039,-0.211 1.414,-0.586 l 32.824,-32.824 c 0.38,-0.375 0.59,-0.884 0.59,-1.414 V 9.016 h -96 z"
     transform="matrix(0,-0.2662987,0.22165967,0,-1.6902875,31.992085)"
     id="path101"
     inkscape:connector-curvature="0"
     style="opacity:0.7;fill:#000000;fill-opacity:1;filter:url(#n)" />
  <path
     d="M 1.5812474,22.668265 H 24.675438 V 8.9311466 c 0,-0.1190174 -0.04352,-0.2333188 -0.120832,-0.3175342 L 17.785867,1.2416023 C 17.70847,1.1576052 17.603382,1.1102357 17.494203,1.1102357 H 1.5813858 V 22.668381 z"
     id="path103"
     inkscape:connector-curvature="0"
     style="fill:url(#u)" />
  <path
     d="m 1.5620727,24.670276 c 0,0.139336 0.094258,0.252887 0.2099358,0.252887 H 24.4453 c 0.11589,0 0.209935,-0.113551 0.209935,-0.252887 V 9.7065431 c 0,-0.066509 -0.02224,-0.1317571 -0.06151,-0.1787888 l -6.89155,-8.3019261 c -0.03934,-0.047436 -0.09356,-0.074212 -0.148834,-0.074212 H 1.7721307 c -0.1156762,0 -0.2099358,0.1132939 -0.2099358,0.2528881 V 24.670163 z"
     id="path105"
     inkscape:connector-curvature="0"
     style="fill:url(#t)" />
  <path
     d="m 8.8893243,24.768584 v -7.00828 H 24.643157"
     id="path107"
     inkscape:connector-curvature="0"
     style="fill:none;stroke:#723137;stroke-width:1.21292329;stroke-opacity:1" />
  <path
     d="M 23.303472,20.907878 H 20.154997"
     id="path109"
     inkscape:connector-curvature="0"
     style="fill:none;stroke:#6e2716;stroke-width:1.45951974px;stroke-opacity:1" />
  <path
     d="M 17.114466,20.966273 H 11.274947"
     id="path111"
     inkscape:connector-curvature="0"
     style="fill:none;stroke:#632716;stroke-width:1.61190331px;stroke-opacity:1" />
  <path
     d="M 24.683227,23.990214 H 20.235589"
     id="path113"
     inkscape:connector-curvature="0"
     style="fill:none;stroke:#822716;stroke-width:1.47296751px;stroke-opacity:1" />
  <path
     d="M 18.660247,24.039958 H 11.218576"
     id="path115"
     inkscape:connector-curvature="0"
     style="fill:none;stroke:#685b00;stroke-width:1.41399999999999990;stroke-opacity:1;stroke-miterlimit:4;stroke-dasharray:none" />
  <g
     transform="matrix(0,-0.25415314,0.20725537,0,-0.1950509,29.653459)"
     id="g117">
    <path
       d="M 111.41,86.586 C 111.66,86.336 93.035,93 88,93 c -1.654,0 -3,1.346 -3,3 0,5.035 -6.664,23.664 -6.414,23.414 l 32.828,-32.828 z"
       id="path119"
       inkscape:connector-curvature="0"
       style="opacity:0.1;fill:url(#o)" />
    <path
       d="M 111.41,86.586 C 111.79,86.211 97.444,94 88,94 c -1.103,0 -2,0.897 -2,2 0,9.444 -7.789,23.789 -7.414,23.414 l 32.828,-32.828 z"
       id="path121"
       inkscape:connector-curvature="0"
       style="opacity:0.1;fill:url(#p)" />
    <path
       d="M 111.41,86.586 C 111.65,86.347 97.807,95 88,95 c -0.553,0 -1,0.447 -1,1 0,9.807 -8.653,23.653 -8.414,23.414 l 32.828,-32.828 z"
       id="path123"
       inkscape:connector-curvature="0"
       style="opacity:0.1;fill:url(#q)" />
    <path
       d="m 78.586,119.41 c 0,0 11.914,-9.914 17.414,-15.414 5.5,-5.5 15.414,-17.414 15.414,-17.414 0,0 -13.164,9.414 -23.414,9.414 0,10.25 -9.414,23.414 -9.414,23.414 z"
       id="path125"
       inkscape:connector-curvature="0"
       style="fill:url(#r)" />
  </g>
  <g
     transform="matrix(0.31955523,0,0,0.31627519,1.4149419,16.898872)"
     id="g3419">
    <path
       inkscape:connector-curvature="0"
       style="opacity:0.4;color:#000000;fill:url(#p-1)"
       d="m 28.125,27.875 a 12.125,3.5 0 1 1 -24.25,0 12.125,3.5 0 1 1 24.25,0 z"
       transform="matrix(1.732,0,0,2,-3.7113,-65.75)"
       id="path3421" />
    <path
       style="fill:url(#q-7);stroke:#babdb6;stroke-width:0.38686001;stroke-linecap:round;stroke-linejoin:round"
       inkscape:connector-curvature="0"
       d="m 15.092,10.078 a 6.43,7.0998 0 1 1 -12.86,0 6.43,7.0998 0 1 1 12.86,0 z"
       transform="matrix(2.7108,0,0,2.4649,0.44798,-51.842)"
       id="path3423" />
    <path
       style="opacity:0.11856001"
       inkscape:connector-curvature="0"
       d="m 23.969,-44.661 c -9.5044,0 -17.219,7.6827 -17.219,17.188 0,0.38564 0.037527,0.77693 0.0625,1.1562 0.60042,-8.9602 8.0444,-16.031 17.156,-16.031 9.1119,0 16.556,7.0711 17.156,16.031 0.02497,-0.37932 0.0625,-0.77061 0.0625,-1.1562 0,-9.5048 -7.7144,-17.188 -17.219,-17.188 z"
       id="path3425" />
    <path
       style="fill:url(#r-4);stroke:#ce5c00;stroke-linecap:round;stroke-linejoin:round"
       inkscape:connector-curvature="0"
       d="M 23.166,-48.493 C 11.703,-48.057 2.5,-38.592 2.5,-27.025 c 0,11.846 9.6239,21.468 21.471,21.468 11.8471,0 21.471,-9.6229 21.471,-21.468 0,-11.846 -9.6239,-21.468 -21.471,-21.468 -0.27766,0 -0.53004,-0.01047 -0.80516,0 z m -0.0671,4.2937 c 0.29278,-0.01484 0.57581,0 0.87225,0 9.4863,0 17.177,7.698 17.177,17.175 0,9.4768 -7.6904,17.175 -17.177,17.175 -9.4863,0 -17.177,-7.698 -17.177,-17.175 0,-9.1807 7.2284,-16.715 16.304,-17.175 z"
       id="path3427" />
    <path
       inkscape:connector-curvature="0"
       style="opacity:0.51030997;color:#000000;fill:none;stroke:url(#j);stroke-width:0.97099;stroke-linecap:round;stroke-linejoin:round"
       d="m 43.375,24.75 a 19.875,19.875 0 1 1 -39.75,0 19.875,19.875 0 1 1 39.75,0 z"
       transform="matrix(1.0299,0,0,1.0299,-0.23329,-52.458)"
       id="path3429" />
    <path
       style="fill:#555753;fill-rule:evenodd;stroke:#2e3436;stroke-linecap:round;stroke-linejoin:round"
       inkscape:connector-curvature="0"
       d="m 23.205,-23.188 12.357,-1.375 -11.2,-1.6748 -1.1568,3.0498 z"
       id="path3431" />
    <path
       style="fill:#555753;fill-rule:evenodd;stroke:#2e3436;stroke-linecap:round;stroke-linejoin:round"
       inkscape:connector-curvature="0"
       d="m 23.569,-40.703 -1.6232,16.549 3.0751,-1.0879 -1.4519,-15.461 z"
       id="path3433" />
    <path
       inkscape:connector-curvature="0"
       style="color:#000000;fill:#555753;fill-rule:evenodd;stroke:#2e3436;stroke-linecap:round;stroke-linejoin:round"
       d="m 26.25,25.062 a 2.6875,2.6875 0 1 1 -5.375,0 2.6875,2.6875 0 1 1 5.375,0 z"
       transform="translate(0,-50)"
       id="path3435" />
    <path
       inkscape:connector-curvature="0"
       style="opacity:0.47423;color:#000000;fill:#ffffff;fill-rule:evenodd"
       d="m 23.5,23.656 a 1.25,1.25 0 1 1 -2.5,0 1.25,1.25 0 1 1 2.5,0 z"
       transform="matrix(-0.6,0,0,-0.6,36.498,-11.335)"
       id="path3437" />
    <path
       style="opacity:0.5;fill:none;stroke:url(#k);stroke-width:0.60857999;stroke-linecap:round;stroke-linejoin:round;stroke-dashoffset:0.7"
       inkscape:connector-curvature="0"
       d="m 40.835,-46.712 a 17.103,7.1153 0 1 1 -34.206,0 17.103,7.1153 0 1 1 34.206,0 z"
       transform="matrix(1.0598,0,0,2.5476,-1.1523,92)"
       id="path3439" />
    <g
       transform="translate(-62,-52)"
       id="g3441">
      <path
         style="opacity:0.1;fill:url(#l-0);fill-rule:evenodd"
         inkscape:connector-curvature="0"
         d="m 85,9.9688 c -4.3134,0 -8.1444,1.9886 -10.719,5.0625 l -2.406,-2.406 a 0.5313,0.5313 0 0 0 -0.90625,0.28125 l -2,10.5 a 0.5313,0.5313 0 0 0 0.625,0.625 l 10.5,-2 a 0.5313,0.5313 0 0 0 0.281,-0.906 l -2.5,-2.5 c 1.635,-2.1625 4.2032,-3.5938 7.125,-3.5938 0.06101,0 0.66768,-0.0067 1.25,0 0.58232,0.0067 1.2312,0.0319 1.2188,0.03125 a 0.5313,0.5313 0 0 0 0.5625,-0.53125 v -4 a 0.5313,0.5313 0 0 0 -0.501,-0.531 c -0.283,-0.0105 -2.309,-0.0312 -2.531,-0.0312 z"
         transform="translate(1,1)"
         id="path3443" />
      <path
         style="fill:url(#m-9);fill-rule:evenodd;stroke:url(#n-4);stroke-linecap:round;stroke-miterlimit:10;stroke-dashoffset:0.7"
         inkscape:connector-curvature="0"
         d="m 86,10.5 c -4.3611,0 -8.252,2.0648 -10.719,5.2812 l -2.781,-2.781 -2,10.5 10.5,-2 -2.844,-2.844 c 1.708,-2.505 4.584,-5.156 7.844,-5.156 0.16914,0 2.333,0.02251 2.5,0.03125 v -3 c -0.168,-0.006 -2.331,-0.031 -2.5,-0.031 z"
         stroke-miterlimit="10"
         id="path3445" />
      <path
         style="fill:none;stroke:url(#o-8);stroke-linecap:round;stroke-miterlimit:10;stroke-dashoffset:0.7"
         inkscape:connector-curvature="0"
         d="m 86,11.5 c -4.0454,0 -7.654,1.8975 -9.9375,4.875 -0.17123,0.23202 -0.43428,0.37884 -0.72164,0.40279 -0.288,0.024 -0.571,-0.078 -0.779,-0.278 l -1.437,-1.438 -1.375,7.188 7.1875,-1.375 -1.5,-1.5 c -0.338,-0.348 -0.378,-0.888 -0.094,-1.281 1.886,-2.768 5.058,-5.594 8.656,-5.594 0.12892,0 1.6658,-0.0067 2.25,0 0.11122,0.0013 0.14936,-9.15e-4 0.25,0 v -0.96875 c -0.703,-0.009 -2.457,-0.031 -2.5,-0.031 z"
         stroke-miterlimit="10"
         id="path3447" />
    </g>
  </g>
</svg>
