<?xml version="1.0" encoding="UTF-8" standalone="no"?>
<svg
   xmlns:dc="http://purl.org/dc/elements/1.1/"
   xmlns:cc="http://creativecommons.org/ns#"
   xmlns:rdf="http://www.w3.org/1999/02/22-rdf-syntax-ns#"
   xmlns:svg="http://www.w3.org/2000/svg"
   xmlns="http://www.w3.org/2000/svg"
   xmlns:xlink="http://www.w3.org/1999/xlink"
   xmlns:sodipodi="http://sodipodi.sourceforge.net/DTD/sodipodi-0.dtd"
   xmlns:inkscape="http://www.inkscape.org/namespaces/inkscape"
   height="26"
   width="26"
   version="1.0"
   id="svg2"
   inkscape:version="0.48.3.1 r9886"
   sodipodi:docname="pagelayout_special_view_mode.svg"
   inkscape:export-filename="/home/baranovskiykonstantin/src/kicad.bzr/bitmaps_png/png_48/icon_eeschema0.png"
   inkscape:export-xdpi="166.15384"
   inkscape:export-ydpi="166.15384">
  <metadata
     id="metadata358">
    <rdf:RDF>
      <cc:Work
         rdf:about="">
        <dc:format>image/svg+xml</dc:format>
        <dc:type
           rdf:resource="http://purl.org/dc/dcmitype/StillImage" />
        <dc:title />
      </cc:Work>
    </rdf:RDF>
  </metadata>
  <sodipodi:namedview
     pagecolor="#ffffff"
     bordercolor="#666666"
     borderopacity="1"
     objecttolerance="10"
     gridtolerance="10"
     guidetolerance="10"
     inkscape:pageopacity="0"
     inkscape:pageshadow="2"
     inkscape:window-width="1600"
     inkscape:window-height="849"
     id="namedview356"
     showgrid="true"
     inkscape:zoom="16.236259"
     inkscape:cx="21.087677"
     inkscape:cy="15.356598"
     inkscape:window-x="0"
     inkscape:window-y="29"
     inkscape:window-maximized="1"
     inkscape:current-layer="svg2"
     inkscape:snap-grids="true"
     inkscape:snap-to-guides="false">
    <inkscape:grid
       type="xygrid"
       id="grid2871"
       empspacing="2"
       visible="true"
       enabled="true"
       snapvisiblegridlinesonly="true"
       spacingx="0.5px"
       spacingy="0.5px" />
  </sodipodi:namedview>
  <defs
     id="defs4">
    <filter
       id="bb"
       color-interpolation-filters="sRGB">
      <feGaussianBlur
         stdDeviation="2.0786429"
         id="feGaussianBlur7" />
    </filter>
    <radialGradient
       id="az"
       gradientUnits="userSpaceOnUse"
       cy="112.3"
       cx="102"
       gradientTransform="matrix(0.21025443,0,0,0.20683793,-0.54460205,-0.44781288)"
       r="139.56">
      <stop
         stop-color="#b7b8b9"
         offset="0"
         id="stop203" />
      <stop
         stop-color="#ececec"
         offset="0.22777213"
         id="stop205" />
      <stop
         stop-color="#fafafa"
         offset="0.34510908"
         id="stop207" />
      <stop
         stop-color="#fff"
         offset="0.4456836"
         id="stop209" />
      <stop
         stop-color="#fafafa"
         offset="0.57978296"
         id="stop211" />
      <stop
         stop-color="#ebecec"
         offset=".84490"
         id="stop213" />
      <stop
         stop-color="#e1e2e3"
         offset="1"
         id="stop215" />
    </radialGradient>
    <clipPath
       id="ba">
      <path
         d="M 72,88 40,120 H 32 V 80 h 40 v 8 z"
         id="path10"
         inkscape:connector-curvature="0"
         style="fill-rule:evenodd" />
    </clipPath>
    <filter
       id="bc"
       height="1.3839999"
       width="1.3839999"
       color-interpolation-filters="sRGB"
       y="-0.192"
       x="-0.192">
      <feGaussianBlur
         stdDeviation="1.9447689"
         id="feGaussianBlur13" />
    </filter>
    <linearGradient
       id="bd"
       y2="99.254997"
       gradientUnits="userSpaceOnUse"
       x2="91.228996"
       gradientTransform="matrix(0.21025443,0,0,0.20691162,-0.54460205,-0.4483919)"
       y1="106.41"
       x1="98.616997">
      <stop
         stop-color="#a2a2a2"
         offset="0"
         id="stop193" />
      <stop
         stop-color="#fff"
         offset="1"
         id="stop195" />
    </linearGradient>
    <linearGradient
       inkscape:collect="always"
       xlink:href="#bd"
       id="linearGradient3327"
       gradientUnits="userSpaceOnUse"
       gradientTransform="matrix(0.24753763,0,0,0.21380952,-2.8422203,-0.790758)"
       x1="98.616997"
       y1="106.41"
       x2="91.228996"
       y2="99.254997" />
    <radialGradient
       inkscape:collect="always"
       xlink:href="#az"
       id="radialGradient3371"
       gradientUnits="userSpaceOnUse"
       gradientTransform="matrix(0.24753763,0,0,0.21373337,-2.8344078,-0.70812775)"
       cx="102"
       cy="112.3"
       r="139.56" />
  </defs>
  <path
     d="m 15.521878,7.062026 0,113.875944 63.991121,0 c 3e-6,0 10.012999,-8.16531 15.512999,-13.66511 5.497002,-5.488 17.452122,-18.220151 17.452122,-18.220151 l 0,-81.990683 -96.956242,0 z"
     transform="matrix(0.25784827,0,0,0.21953714,-3.5022893,-1.050377)"
     id="path217"
     inkscape:connector-curvature="0"
     style="opacity:0.5;filter:url(#bb)"
     sodipodi:nodetypes="cccccccc" />
  <path
     d="M 1,1 1,25 16.5,25 25,17.5 25,1 z"
     id="path219"
     inkscape:connector-curvature="0"
     style="fill:#ffffff"
     sodipodi:nodetypes="cccccc" />
  <path
     d="m 1.4470301,1.2154944 c -0.136392,0 -0.247538,0.095966 -0.247538,0.2137333 l 0,23.0834653 c 0,0.117979 0.111146,0.213734 0.247538,0.213734 l 14.8215389,0 c 0.06511,0 0.683835,0.02525 0.729902,-0.01471 l 7.527173,-6.672507 c 0.04629,-0.03997 0.246724,-0.486911 0.246724,-0.543154 l 0,-16.0667225 c 0,-0.1177671 -0.11089,-0.2137337 -0.247537,-0.2137337 l -23.0780569,0 z"
     id="path221"
     inkscape:connector-curvature="0"
     style="fill:url(#radialGradient3371)"
     sodipodi:nodetypes="cssssccssscc" />
  <path
     sodipodi:nodetypes="cc"
     inkscape:connector-curvature="0"
     id="path4075"
     d="m 8,21.5 11.5,0"
     style="fill:none;stroke:#800000;stroke-width:0.60000002;stroke-linecap:round;stroke-linejoin:miter;stroke-miterlimit:4;stroke-opacity:1;stroke-dasharray:none" />
  <path
     style="fill:none;stroke:#800000;stroke-width:0.60000002;stroke-linecap:round;stroke-linejoin:round;stroke-miterlimit:4;stroke-opacity:1;stroke-dasharray:none"
     d="m 8,23.5 0,-4 13.5,0"
     id="path4071"
     inkscape:connector-curvature="0"
     sodipodi:nodetypes="ccc" />
  <path
     style="fill:none;stroke:#800000;stroke-width:0.59999999999999998;stroke-linecap:round;stroke-linejoin:round;stroke-opacity:1;stroke-miterlimit:4;stroke-dasharray:none"
     d="m 23.5,18.5 0,-16 -21,0 0,21 15.5,0"
     id="path3301"
     inkscape:connector-curvature="0" />
  <path
     d="M 41.88,115.98 66.19,91.67 c 0,0 -9.721301,0.892567 -19.971201,0.892567 0,10.250003 -4.338299,23.416533 -4.338299,23.416533 z"
     clip-path="url(#ba)"
     transform="matrix(0.24753763,0,0,0.21380952,7.059108,-0.790758)"
     id="path223"
     inkscape:connector-curvature="0"
     style="opacity:0.4;filter:url(#bc)"
     sodipodi:nodetypes="ccccc" />
  <path
     d="M 21.066503,21.570418 C 22.427954,20.394487 23.5,19.5 25,17.5 c 0,0 -3.521599,2.234695 -6.059062,2.234695 C 18.940938,21.926206 16.5,25 16.5,25 c 1.975298,-0.664697 3.293464,-2.322889 4.566503,-3.429582 z"
     id="path345"
     inkscape:connector-curvature="0"
     style="fill:url(#linearGradient3327)"
     sodipodi:nodetypes="ccccc" />
  <g
     id="g3342"
     transform="matrix(0.54167,0,0,0.54167,-4.3807978,1.7611607)" />
  <path
     style="fill:none;stroke:#800000;stroke-width:0.60000002;stroke-linecap:round;stroke-linejoin:miter;stroke-miterlimit:4;stroke-opacity:1;stroke-dasharray:none"
     d="m 12.5,19.5 0,4"
     id="path4077"
     inkscape:connector-curvature="0"
     sodipodi:nodetypes="cc" />
  <g
     style="font-size:16px;font-style:normal;font-variant:normal;font-weight:normal;font-stretch:normal;text-align:center;line-height:125%;letter-spacing:0px;word-spacing:0px;text-anchor:middle;fill:#1a1a1a;fill-opacity:1;stroke:none;font-family:FreeSans;-inkscape-font-specification:FreeSans"
     id="text4136"
     transform="matrix(1.0783064,0,0,1.0562414,-0.49760784,-0.97410151)">
    <path
       d="m 9.074625,6.04 c 0.767996,1.1e-5 1.413329,0.2666774 1.936,0.8 0.533328,0.533343 0.799994,1.1893423 0.8,1.968 -6e-6,0.7360075 -0.266672,1.370673 -0.8,1.904 -0.533338,0.533339 -1.1733373,0.800005 -1.92,0.8 -0.7466691,5e-6 -1.3920018,-0.266661 -1.936,-0.8 -0.5333341,-0.543993 -0.8000005,-1.1893259 -0.8,-1.936 -5e-7,-0.7466577 0.2666659,-1.3866571 0.8,-1.92 0.5333315,-0.5439893 1.1733309,-0.815989 1.92,-0.816 m 0,1.12 c -0.4373361,9.8e-6 -0.8160024,0.1600097 -1.136,0.48 -0.3200017,0.3093424 -0.4800016,0.6880087 -0.48,1.136 -1.6e-6,0.4373411 0.1599983,0.8160074 0.48,1.136 0.3199976,0.320007 0.7039972,0.480007 1.152,0.48 0.4373297,7e-6 0.815996,-0.15466 1.136,-0.464 0.319995,-0.3199926 0.479995,-0.6986589 0.48,-1.136 -5e-6,-0.458658 -0.160005,-0.8426576 -0.48,-1.152 C 9.9172876,7.3200097 9.533288,7.1600098 9.074625,7.16 m 6.56,-1.504 1.056,0 -6.32,11.664 -1.056,0 6.32,-11.664 m 1.264,6.192 c 0.767988,5e-6 1.413321,0.266672 1.936,0.8 0.53332,0.533337 0.799986,1.184003 0.8,1.952 -1.4e-5,0.736002 -0.272013,1.370668 -0.816,1.904 -0.533346,0.533333 -1.168012,0.8 -1.904,0.8 -0.757344,0 -1.402676,-0.266667 -1.936,-0.8 -0.533342,-0.543999 -0.800008,-1.189332 -0.8,-1.936 -8e-6,-0.746663 0.266658,-1.386663 0.8,-1.92 0.533324,-0.533328 1.173323,-0.799995 1.92,-0.8 m 0,1.12 c -0.437344,4e-6 -0.81601,0.160004 -1.136,0.48 -0.32001,0.309337 -0.480009,0.68267 -0.48,1.12 -9e-6,0.448002 0.15999,0.832002 0.48,1.152 0.31999,0.309334 0.703989,0.464001 1.152,0.464 0.437322,10e-7 0.815988,-0.154666 1.136,-0.464 0.319988,-0.319998 0.479987,-0.693331 0.48,-1.12 -1.3e-5,-0.458664 -0.160012,-0.842663 -0.48,-1.152 -0.309345,-0.319996 -0.693345,-0.479996 -1.152,-0.48"
       style="fill:#1a1a1a;font-family:FreeSans;-inkscape-font-specification:FreeSans"
       id="path3014"
       inkscape:connector-curvature="0" />
  </g>
</svg>
