<svg xmlns="http://www.w3.org/2000/svg" height="48" width="48" version="1.0">
 <g transform="translate(-35.643,-211.58)">
  <path opacity=".45703" d="m56.449 216.89c-5.0416 0-19.508 0.83386-19.483 12.086 0.001 0.63241 1.3029 2.8338 2.3897 3.0676 8.0459 1.7306 8.4825 7.6906 7.9988 12.393-0.03696 0.35608 0.62582 2.8379 1.1948 3.4664 4.6144 5.0965 6.1842 7.3315 12.413 7.3315 12.458 0 19.449-5.8231 19.449-17.485s-11.505-20.86-23.963-20.86zm-12.612 8.0371c1.0477 0.0569 2.2727 0.45585 3.4186 1.1657 2.2917 1.4196 3.426 3.6008 2.5225 4.8468-0.90355 1.2459-3.5166 1.0822-5.8083-0.33745-2.2917-1.4197-3.3928-3.5702-2.4893-4.8161 0.45177-0.62298 1.3088-0.9159 2.3565-0.85893z" stroke="#000" stroke-width="2.1129" fill="#f4f4c4"/>
  <path fill="#ff7a00" d="m420.94 149.64a3.6875 3.8438 0 1 1 -7.375 0 3.6875 3.8438 0 1 1 7.375 0z" transform="matrix(1.1677,0,0,1.0691,-430.73,63.662)"/>
  <path fill="#95d300" d="m420.94 149.64a3.6875 3.8438 0 1 1 -7.375 0 3.6875 3.8438 0 1 1 7.375 0z" transform="matrix(1.1429,0,0,1.1048,-409.89,62.629)"/>
  <path fill="#00a6e4" d="m420.94 149.64a3.6875 3.8438 0 1 1 -7.375 0 3.6875 3.8438 0 1 1 7.375 0z" transform="matrix(1.1801,0,0,1.0691,-420.09,77.78)"/>
  <path fill="#f9de00" d="m420.94 149.64a3.6875 3.8438 0 1 1 -7.375 0 3.6875 3.8438 0 1 1 7.375 0z" transform="matrix(1.1925,0,0,1.1048,-431.5,81.53)"/>
  <path fill="#e600ad" d="m420.94 149.64a3.6875 3.8438 0 1 1 -7.375 0 3.6875 3.8438 0 1 1 7.375 0z" transform="matrix(1.1553,0,0,1.1167,-427.31,76.5)"/>
 </g>
</svg>
