<svg id="Слой_1" data-name="Слой 1"
  xmlns:dc="http://purl.org/dc/elements/1.1/"
  xmlns:cc="http://creativecommons.org/ns#"
  xmlns:rdf="http://www.w3.org/1999/02/22-rdf-syntax-ns#"
  xmlns="http://www.w3.org/2000/svg"
  xmlns:sodipodi="http://sodipodi.sourceforge.net/DTD/sodipodi-0.dtd"
  xmlns:inkscape="http://www.inkscape.org/namespaces/inkscape" viewBox="0 0 26 26">
  <sodipodi:namedview pagecolor="#ffffff" bordercolor="#666666" borderopacity="1" objecttolerance="10" gridtolerance="10" guidetolerance="10" inkscape:pageopacity="0" inkscape:pageshadow="2" inkscape:window-width="1609" inkscape:window-height="1286" id="namedview30" showgrid="true" inkscape:zoom="27.961538" inkscape:cx="13" inkscape:cy="13" inkscape:window-x="0" inkscape:window-y="37" inkscape:window-maximized="0">
    <inkscape:grid type="xygrid" id="grid_kicad" spacingx="0.5" spacingy="0.5" color="#9999ff" opacity="0.13" empspacing="2" />
  </sodipodi:namedview>
  <metadata id="metadata43">
    <rdf:RDF>
      <cc:Work rdf:about="">
        <cc:license rdf:resource="http://creativecommons.org/licenses/by-sa/4.0/" />
        <dc:format>image/svg+xml</dc:format>
        <dc:type rdf:resource="http://purl.org/dc/dcmitype/StillImage" />
        <dc:title>add_arc</dc:title>
      </cc:Work>
      <cc:License rdf:about="http://creativecommons.org/licenses/by-sa/4.0/">
        <cc:permits rdf:resource="http://creativecommons.org/ns#Reproduction" />
        <cc:permits rdf:resource="http://creativecommons.org/ns#Distribution" />
        <cc:requires rdf:resource="http://creativecommons.org/ns#Notice" />
        <cc:requires rdf:resource="http://creativecommons.org/ns#Attribution" />
        <cc:permits rdf:resource="http://creativecommons.org/ns#DerivativeWorks" />
        <cc:requires rdf:resource="http://creativecommons.org/ns#ShareAlike" />
      </cc:License>
    </rdf:RDF>
  </metadata>
  <defs>
    <style>.cls-1{fill:#686868;}.cls-2{fill:#b9b9b9;}.cls-3{fill:#e61c50;}.cls-4{fill:#fff;}.cls-5{fill:#545454;}</style>
  </defs>
  <title>paste</title>
  <path class="cls-1" d="M8.4837,3.1366V1.5017a.5.5,0,0,1,.5-.5h2a.5.5,0,0,1,.5.5V3.1483Z"/>
  <path class="cls-2" d="M4.493,2.9983H15.4746a3.4978,3.4978,0,0,1,3.4978,3.4978V18.4974a3.4978,3.4978,0,0,1-3.4978,3.4978H4.4929A3.4978,3.4978,0,0,1,.9951,18.4974V6.4962A3.4979,3.4979,0,0,1,4.493,2.9983Z"/>
  <ellipse class="cls-3" cx="17.9983" cy="17.9983" rx="7.0065" ry="7"/>
  <path class="cls-4" d="M20.9059,13.7822h-5.815a1.4548,1.4548,0,0,0-1.4546,1.4548V21.06a1.4548,1.4548,0,0,0,1.4546,1.4547h5.8147A1.4547,1.4547,0,0,0,22.36,21.06V15.237A1.4548,1.4548,0,0,0,20.9059,13.7822Zm-2.3418,7.4689H15.5875a.4159.4159,0,0,1,0-.8318h2.9766a.4159.4159,0,0,1,0,.8318Zm2-1.7273H15.5875a.4159.4159,0,0,1,0-.8318h4.9766a.4159.4159,0,0,1,0,.8318Zm0-1.7269H15.5875a.4159.4159,0,0,1,0-.8318h4.9766a.4159.4159,0,0,1,0,.8318Zm0-1.7273H15.5875a.4159.4159,0,0,1,0-.8318h4.9766a.4159.4159,0,0,1,0,.8318Z"/>
  <path class="cls-5" d="M7.2357,1.9983h5.4961a1.2641,1.2641,0,0,1,1.2641,1.2641v1a1.2641,1.2641,0,0,1-1.2641,1.2641H7.2356A1.2641,1.2641,0,0,1,5.9715,4.2625v-1A1.2642,1.2642,0,0,1,7.2357,1.9983Z"/>
</svg>