<?xml version="1.0" encoding="UTF-8" standalone="no"?>
<svg
   xmlns:dc="http://purl.org/dc/elements/1.1/"
   xmlns:cc="http://creativecommons.org/ns#"
   xmlns:rdf="http://www.w3.org/1999/02/22-rdf-syntax-ns#"
   xmlns:svg="http://www.w3.org/2000/svg"
   xmlns="http://www.w3.org/2000/svg"
   xmlns:sodipodi="http://sodipodi.sourceforge.net/DTD/sodipodi-0.dtd"
   xmlns:inkscape="http://www.inkscape.org/namespaces/inkscape"
   id="Слой_1"
   data-name="Слой 1"
   viewBox="0 0 24 24"
   version="1.1"
   sodipodi:docname="pcbnew.svg"
   inkscape:version="1.0.1 (3bc2e813f5, 2020-09-07)">
  <sodipodi:namedview
     pagecolor="#ffffff"
     bordercolor="#666666"
     borderopacity="1"
     objecttolerance="10"
     gridtolerance="10"
     guidetolerance="10"
     inkscape:pageopacity="0"
     inkscape:pageshadow="2"
     inkscape:window-width="1609"
     inkscape:window-height="1286"
     id="namedview30"
     showgrid="true"
     inkscape:zoom="27.961538"
     inkscape:cx="3.3259971"
     inkscape:cy="13"
     inkscape:window-x="0"
     inkscape:window-y="37"
     inkscape:window-maximized="0"
     inkscape:document-rotation="0"
     inkscape:current-layer="Слой_1">
    <inkscape:grid
       type="xygrid"
       id="grid_kicad"
       spacingx="0.5"
       spacingy="0.5"
       color="#9999ff"
       opacity="0.13"
       empspacing="2" />
  </sodipodi:namedview>
  <metadata
     id="metadata43">
    <rdf:RDF>
      <cc:Work
         rdf:about="">
        <cc:license
           rdf:resource="http://creativecommons.org/licenses/by-sa/4.0/" />
        <dc:format>image/svg+xml</dc:format>
        <dc:type
           rdf:resource="http://purl.org/dc/dcmitype/StillImage" />
        <dc:title>add_arc</dc:title>
      </cc:Work>
      <cc:License
         rdf:about="http://creativecommons.org/licenses/by-sa/4.0/">
        <cc:permits
           rdf:resource="http://creativecommons.org/ns#Reproduction" />
        <cc:permits
           rdf:resource="http://creativecommons.org/ns#Distribution" />
        <cc:requires
           rdf:resource="http://creativecommons.org/ns#Notice" />
        <cc:requires
           rdf:resource="http://creativecommons.org/ns#Attribution" />
        <cc:permits
           rdf:resource="http://creativecommons.org/ns#DerivativeWorks" />
        <cc:requires
           rdf:resource="http://creativecommons.org/ns#ShareAlike" />
      </cc:License>
    </rdf:RDF>
  </metadata>
  <defs
     id="defs158935">
    <style
       id="style158933">.cls-1{fill:#b9b9b9;}.cls-2{fill:#545454;}.cls-3{fill:#1a81c4;}</style>
  </defs>
  <title
     id="title158937">pcbnew</title>
  <rect
     class="cls-1"
     x="0.0041999817"
     y="0.010699987"
     width="23.991501"
     height="23.995701"
     rx="3.9988999"
     id="rect158939" />
  <path
     class="cls-2"
     d="M 15.3671,24.0056 V 11.3342 h 2.9085 l 0.8443,0.8445 h 4.8787 V 5.1409 H 19.12 L 18.2757,5.9855 H 16.7744 L 15.3671,4.578 V 0.0122 H 4 A 3.9989,3.9989 0 0 0 0.0014,4.0115 V 20.0064 A 3.9989,3.9989 0 0 0 4,24.0056 Z"
     id="path158941" />
  <polygon
     class="cls-1"
     points="16.375,10.16 13.156,6.94 13.156,1.013 14.298,1.013 14.298,6.467 16.848,9.018 20.693,9.018 20.693,10.16 "
     id="polygon158943"
     transform="translate(-1,-1)" />
  <polygon
     class="cls-1"
     points="12.68,25.008 12.68,12.746 9.127,9.193 9.127,1.013 10.27,1.013 10.27,8.72 13.823,12.273 13.823,25.008 "
     id="polygon158945"
     transform="translate(-1,-1)" />
  <polygon
     class="cls-1"
     points="8.634,25.008 8.634,12.746 5.082,9.193 5.082,1.013 6.224,1.013 6.224,8.72 9.777,12.273 9.777,25.008 "
     id="polygon158947"
     transform="translate(-1,-1)" />
  <rect
     class="cls-1"
     x="3.9309001"
     y="16.7537"
     width="1.1423"
     height="7.2543001"
     id="rect158949" />
  <path
     class="cls-3"
     d="m 6.4836,14.83 a 1.9993,1.9993 0 1 1 -1.9993,-2 1.9995,1.9995 0 0 1 1.9993,2 z"
     id="path158951" />
  <path
     class="cls-1"
     d="M 5.9078,14.83 A 1.4236,1.4236 0 1 1 4.4843,13.406 1.4235,1.4235 0 0 1 5.9078,14.83 Z"
     id="path158953" />
  <path
     class="cls-3"
     d="m 23.0464,8.6716 a 1.9993,1.9993 0 1 1 -1.9992,-2 1.9995,1.9995 0 0 1 1.9992,2 z"
     id="path158955" />
  <path
     class="cls-1"
     d="M 22.4707,8.6716 A 1.4236,1.4236 0 1 1 21.0472,7.2477 1.4237,1.4237 0 0 1 22.4707,8.6716 Z"
     id="path158957" />
</svg>
