<?xml version="1.0" encoding="UTF-8" standalone="no"?>
<!-- Created with Inkscape (http://www.inkscape.org/) -->

<svg
   xmlns:dc="http://purl.org/dc/elements/1.1/"
   xmlns:cc="http://creativecommons.org/ns#"
   xmlns:rdf="http://www.w3.org/1999/02/22-rdf-syntax-ns#"
   xmlns:svg="http://www.w3.org/2000/svg"
   xmlns="http://www.w3.org/2000/svg"
   xmlns:xlink="http://www.w3.org/1999/xlink"
   xmlns:sodipodi="http://sodipodi.sourceforge.net/DTD/sodipodi-0.dtd"
   xmlns:inkscape="http://www.inkscape.org/namespaces/inkscape"
   width="26"
   height="26"
   id="svg2"
   version="1.1"
   inkscape:version="0.91 r"
   sodipodi:docname="pcbnew.svg">
  <defs
     id="defs4">
    <linearGradient
       id="linearGradient3775">
      <stop
         style="stop-color:#ffffff;stop-opacity:1;"
         offset="0"
         id="stop3777" />
      <stop
         style="stop-color:#e1e1e1;stop-opacity:1;"
         offset="1"
         id="stop3779" />
    </linearGradient>
    <linearGradient
       id="linearGradient3767">
      <stop
         style="stop-color:#ffffff;stop-opacity:1;"
         offset="0"
         id="stop3769" />
      <stop
         style="stop-color:#dcdcdc;stop-opacity:1;"
         offset="1"
         id="stop3771" />
    </linearGradient>
    <linearGradient
       inkscape:collect="always"
       xlink:href="#linearGradient3775"
       id="linearGradient3781"
       x1="20"
       y1="21"
       x2="1"
       y2="1"
       gradientUnits="userSpaceOnUse" />
    <filter
       inkscape:collect="always"
       id="filter3899">
      <feGaussianBlur
         inkscape:collect="always"
         stdDeviation="0.375"
         id="feGaussianBlur3901" />
    </filter>
    <filter
       inkscape:collect="always"
       id="filter3952"
       x="-0.12"
       width="1.24"
       y="-0.12"
       height="1.24">
      <feGaussianBlur
         inkscape:collect="always"
         stdDeviation="0.35"
         id="feGaussianBlur3954" />
    </filter>
    <radialGradient
       inkscape:collect="always"
       xlink:href="#linearGradient3767"
       id="radialGradient3975"
       cx="17.249992"
       cy="6.4166613"
       fx="17.249992"
       fy="6.4166613"
       r="3.5"
       gradientUnits="userSpaceOnUse"
       gradientTransform="matrix(0.85714311,-0.85714265,1.4285709,1.4285716,-4.9523675,12.619044)" />
  </defs>
  <sodipodi:namedview
     id="base"
     pagecolor="#ffffff"
     bordercolor="#666666"
     borderopacity="1.0"
     inkscape:pageopacity="0"
     inkscape:pageshadow="2"
     inkscape:zoom="10.865385"
     inkscape:cx="-12.482995"
     inkscape:cy="5.9779414"
     inkscape:document-units="px"
     inkscape:current-layer="layer1"
     showgrid="true"
     inkscape:showpageshadow="false"
     inkscape:window-width="1364"
     inkscape:window-height="733"
     inkscape:window-x="0"
     inkscape:window-y="16"
     inkscape:window-maximized="0">
    <inkscape:grid
       type="xygrid"
       id="grid2985"
       empspacing="2"
       visible="true"
       enabled="true"
       snapvisiblegridlinesonly="true"
       spacingx="0.5px"
       spacingy="0.5px" />
  </sodipodi:namedview>
  <metadata
     id="metadata7">
    <rdf:RDF>
      <cc:Work
         rdf:about="">
        <dc:format>image/svg+xml</dc:format>
        <dc:type
           rdf:resource="http://purl.org/dc/dcmitype/StillImage" />
        <dc:title />
      </cc:Work>
    </rdf:RDF>
  </metadata>
  <g
     inkscape:label="Layer 1"
     inkscape:groupmode="layer"
     id="layer1"
     transform="translate(0,-1026.3622)">
    <path
       sodipodi:nodetypes="cccccc"
       inkscape:connector-curvature="0"
       id="path3889"
       d="m 0.5,0.5 17,0 c 3,1 7,5 8,8 l 0,17 -25,0 z"
       style="opacity:0.5;fill:#000000;fill-opacity:1;stroke:none;filter:url(#filter3899)"
       transform="translate(0,1026.3622)" />
    <path
       style="fill:url(#linearGradient3781);fill-opacity:1;stroke:none"
       d="m 1,1 16,0 c 3,1 7,5 8,8 l 0,16 -24,0 z"
       id="rect3761"
       inkscape:connector-curvature="0"
       sodipodi:nodetypes="cccccc"
       transform="translate(0,1026.3622)" />
    <path
       sodipodi:type="arc"
       style="opacity:0.3;fill:#000000;fill-opacity:1;stroke:none"
       id="path3903"
       sodipodi:cx="2.5"
       sodipodi:cy="3.5"
       sodipodi:rx="1"
       sodipodi:ry="1"
       d="m 3.5,3.5 a 1,1 0 0 1 -1,1 1,1 0 0 1 -1,-1 1,1 0 0 1 1,-1 1,1 0 0 1 1,1 z"
       transform="matrix(0.75,0,0,0.75,0.625,1026.2372)" />
    <path
       transform="matrix(0.75,0,0,0.75,0.625,1029.2372)"
       d="m 3.5,3.5 a 1,1 0 0 1 -1,1 1,1 0 0 1 -1,-1 1,1 0 0 1 1,-1 1,1 0 0 1 1,1 z"
       sodipodi:ry="1"
       sodipodi:rx="1"
       sodipodi:cy="3.5"
       sodipodi:cx="2.5"
       id="path3906"
       style="opacity:0.3;fill:#000000;fill-opacity:1;stroke:none"
       sodipodi:type="arc" />
    <path
       transform="matrix(0.75,0,0,0.75,0.625,1032.2372)"
       d="m 3.5,3.5 a 1,1 0 0 1 -1,1 1,1 0 0 1 -1,-1 1,1 0 0 1 1,-1 1,1 0 0 1 1,1 z"
       sodipodi:ry="1"
       sodipodi:rx="1"
       sodipodi:cy="3.5"
       sodipodi:cx="2.5"
       id="path3908"
       style="opacity:0.3;fill:#000000;fill-opacity:1;stroke:none"
       sodipodi:type="arc" />
    <path
       sodipodi:type="arc"
       style="opacity:0.3;fill:#000000;fill-opacity:1;stroke:none"
       id="path3910"
       sodipodi:cx="2.5"
       sodipodi:cy="3.5"
       sodipodi:rx="1"
       sodipodi:ry="1"
       d="m 3.5,3.5 a 1,1 0 0 1 -1,1 1,1 0 0 1 -1,-1 1,1 0 0 1 1,-1 1,1 0 0 1 1,1 z"
       transform="matrix(0.75,0,0,0.75,0.625,1035.2372)" />
    <path
       transform="matrix(0.75,0,0,0.75,0.625,1038.2372)"
       d="m 3.5,3.5 a 1,1 0 0 1 -1,1 1,1 0 0 1 -1,-1 1,1 0 0 1 1,-1 1,1 0 0 1 1,1 z"
       sodipodi:ry="1"
       sodipodi:rx="1"
       sodipodi:cy="3.5"
       sodipodi:cx="2.5"
       id="path3912"
       style="opacity:0.3;fill:#000000;fill-opacity:1;stroke:none"
       sodipodi:type="arc" />
    <path
       sodipodi:type="arc"
       style="opacity:0.3;fill:#000000;fill-opacity:1;stroke:none"
       id="path3914"
       sodipodi:cx="2.5"
       sodipodi:cy="3.5"
       sodipodi:rx="1"
       sodipodi:ry="1"
       d="m 3.5,3.5 a 1,1 0 0 1 -1,1 1,1 0 0 1 -1,-1 1,1 0 0 1 1,-1 1,1 0 0 1 1,1 z"
       transform="matrix(0.75,0,0,0.75,0.625,1041.2372)" />
    <path
       sodipodi:type="arc"
       style="opacity:0.3;fill:#000000;fill-opacity:1;stroke:none"
       id="path3916"
       sodipodi:cx="2.5"
       sodipodi:cy="3.5"
       sodipodi:rx="1"
       sodipodi:ry="1"
       d="m 3.5,3.5 a 1,1 0 0 1 -1,1 1,1 0 0 1 -1,-1 1,1 0 0 1 1,-1 1,1 0 0 1 1,1 z"
       transform="matrix(0.75,0,0,0.75,0.625,1044.2372)" />
    <path
       transform="matrix(0.75,0,0,0.75,0.625,1047.2372)"
       d="m 3.5,3.5 a 1,1 0 0 1 -1,1 1,1 0 0 1 -1,-1 1,1 0 0 1 1,-1 1,1 0 0 1 1,1 z"
       sodipodi:ry="1"
       sodipodi:rx="1"
       sodipodi:cy="3.5"
       sodipodi:cx="2.5"
       id="path3918"
       style="opacity:0.3;fill:#000000;fill-opacity:1;stroke:none"
       sodipodi:type="arc" />
    <path
       inkscape:connector-curvature="0"
       id="path307-5"
       d="m 6.5,1028.8622 3,3 0,5"
       display="block"
       style="color:#000000;fill:none;stroke:#999999;stroke-width:0.80000001;stroke-linecap:round;stroke-linejoin:round;stroke-miterlimit:4;stroke-dasharray:none;display:block"
       sodipodi:nodetypes="ccc" />
    <path
       inkscape:connector-curvature="0"
       id="path309-3"
       d="m 12.5,1036.8622 0,-6.5 -1.5,-1.5"
       display="block"
       style="color:#000000;fill:none;stroke:#999999;stroke-width:0.80000001;stroke-linecap:round;stroke-linejoin:round;stroke-miterlimit:4;stroke-dasharray:none;display:block"
       sodipodi:nodetypes="ccc" />
    <path
       inkscape:connector-curvature="0"
       id="path311-3"
       d="m 15.5,1036.8622 0,-8"
       display="block"
       style="color:#000000;fill:none;stroke:#999999;stroke-width:0.80000001;stroke-linecap:round;stroke-linejoin:round;stroke-miterlimit:4;stroke-dasharray:none;display:block"
       sodipodi:nodetypes="cc" />
    <path
       inkscape:connector-curvature="0"
       id="path313-8"
       d="m 18.5,1036.8622 0,-6.5 1,-1"
       display="block"
       style="color:#000000;fill:none;stroke:#999999;stroke-width:0.80000001;stroke-linecap:round;stroke-linejoin:round;stroke-miterlimit:4;stroke-dasharray:none;display:block"
       sodipodi:nodetypes="ccc" />
    <path
       inkscape:connector-curvature="0"
       id="path331-1"
       d="m 9.5,1045.3622 0,2.5 -2,2 -3,0"
       display="block"
       style="color:#000000;fill:none;stroke:#999999;stroke-width:0.80000001;stroke-linecap:round;stroke-linejoin:round;stroke-miterlimit:4;stroke-dasharray:none;display:block"
       sodipodi:nodetypes="cccc" />
    <path
       inkscape:connector-curvature="0"
       id="path333-9"
       d="m 12.5,1045.3622 0,4.5"
       display="block"
       style="color:#000000;fill:none;stroke:#999999;stroke-width:0.80000001;stroke-linecap:round;stroke-linejoin:round;stroke-miterlimit:4;stroke-dasharray:none;display:block"
       sodipodi:nodetypes="cc" />
    <path
       sodipodi:nodetypes="ccc"
       inkscape:connector-curvature="0"
       id="path335-0"
       d="m 15.5,1045.3622 0,3 1.5,1.5"
       display="block"
       style="color:#000000;fill:none;stroke:#999999;stroke-width:0.80000001;stroke-linecap:round;stroke-linejoin:round;stroke-miterlimit:4;stroke-dasharray:none;display:block" />
    <path
       inkscape:connector-curvature="0"
       id="path337-9"
       d="m 18.5,1045.3622 0,2.5 2,2"
       display="block"
       style="color:#000000;fill:none;stroke:#999999;stroke-width:0.80000001;stroke-linecap:round;stroke-linejoin:round;stroke-miterlimit:4;stroke-dasharray:none;display:block"
       sodipodi:nodetypes="ccc" />
    <path
       inkscape:connector-curvature="0"
       id="path339-8"
       d="m 4.5,1030.8622 2,2 0,13.5 -1,1 -1,0 z"
       display="block"
       style="color:#000000;fill:#999999;stroke:#999999;stroke-width:0.80000001;stroke-linecap:round;stroke-linejoin:round;stroke-miterlimit:4;stroke-dasharray:none;display:block"
       sodipodi:nodetypes="cccccc" />
    <path
       inkscape:connector-curvature="0"
       id="path341-8"
       d="m 23.5,1049.3622 -2,-2 0,-14.5 2,1 z"
       display="block"
       style="color:#000000;fill:#999999;stroke:#999999;stroke-width:0.80000001;stroke-linecap:round;stroke-linejoin:round;stroke-miterlimit:4;stroke-dasharray:none;display:block"
       sodipodi:nodetypes="ccccc" />
    <path
       inkscape:connector-curvature="0"
       id="path315-3"
       display="block"
       d="m 9.5,1037.0562 0,1.306"
       style="color:#000000;fill:none;stroke:#999999;stroke-width:1.60000002;stroke-linecap:round;stroke-linejoin:round;stroke-miterlimit:4;stroke-opacity:1;stroke-dasharray:none;display:block"
       sodipodi:nodetypes="cc" />
    <path
       inkscape:connector-curvature="0"
       id="path317-7"
       display="block"
       d="m 12.5,1037.0562 0,1.306"
       style="color:#000000;fill:none;stroke:#999999;stroke-width:1.60000002;stroke-linecap:round;stroke-linejoin:round;stroke-miterlimit:4;stroke-dasharray:none;display:block"
       sodipodi:nodetypes="cc" />
    <path
       inkscape:connector-curvature="0"
       id="path319-9"
       display="block"
       d="m 15.5,1037.0562 0,1.306"
       style="color:#000000;fill:none;stroke:#999999;stroke-width:1.60000002;stroke-linecap:round;stroke-linejoin:round;stroke-miterlimit:4;stroke-dasharray:none;display:block"
       sodipodi:nodetypes="cc" />
    <path
       inkscape:connector-curvature="0"
       id="path321-3"
       display="block"
       d="m 18.5,1037.0562 0,1.306"
       style="color:#000000;fill:none;stroke:#999999;stroke-width:1.60000002;stroke-linecap:round;stroke-linejoin:round;stroke-miterlimit:4;stroke-dasharray:none;display:block"
       sodipodi:nodetypes="cc" />
    <path
       inkscape:connector-curvature="0"
       id="path323-7"
       display="block"
       d="m 18.5,1043.3622 0,1.306"
       style="color:#000000;fill:none;stroke:#999999;stroke-width:1.60000002;stroke-linecap:round;stroke-linejoin:round;stroke-miterlimit:4;stroke-dasharray:none;display:block"
       sodipodi:nodetypes="cc" />
    <path
       inkscape:connector-curvature="0"
       id="path325-8"
       display="block"
       d="m 15.5,1043.3622 0,1.306"
       style="color:#000000;fill:none;stroke:#999999;stroke-width:1.60000002;stroke-linecap:round;stroke-linejoin:round;stroke-miterlimit:4;stroke-dasharray:none;display:block"
       sodipodi:nodetypes="cc" />
    <path
       inkscape:connector-curvature="0"
       id="path327-7"
       display="block"
       d="m 12.5,1043.3622 0,1.306"
       style="color:#000000;fill:none;stroke:#999999;stroke-width:1.60000002;stroke-linecap:round;stroke-linejoin:round;stroke-miterlimit:4;stroke-dasharray:none;display:block"
       sodipodi:nodetypes="cc" />
    <path
       inkscape:connector-curvature="0"
       id="path329-4"
       display="block"
       d="m 9.5,1043.3622 0,1.306"
       style="color:#000000;fill:none;stroke:#999999;stroke-width:1.60000002;stroke-linecap:round;stroke-linejoin:round;stroke-miterlimit:4;stroke-dasharray:none;display:block"
       sodipodi:nodetypes="cc" />
    <path
       sodipodi:nodetypes="cccc"
       transform="translate(0,1026.3622)"
       inkscape:connector-curvature="0"
       id="path3783"
       d="m 17,1 c 1,0.5 7.5,7 8,8 C 23,8 20,8 18,8 18,6 18,3 17,1 z"
       style="opacity:0.5;fill:#373737;fill-opacity:1;stroke:none;filter:url(#filter3952)" />
    <path
       style="fill:url(#radialGradient3975);fill-opacity:1;stroke:none"
       d="m 17,1 c 3,1 7,5 8,8 C 23.5,8 22,7 19,7 19,4 18,2.5 17,1 z"
       id="path3765"
       inkscape:connector-curvature="0"
       transform="translate(0,1026.3622)"
       sodipodi:nodetypes="cccc" />
  </g>
</svg>
