<svg id="Слой_1" data-name="Слой 1"
  xmlns:cc="http://creativecommons.org/ns#"
  xmlns:rdf="http://www.w3.org/1999/02/22-rdf-syntax-ns#"
  xmlns="http://www.w3.org/2000/svg" viewBox="0 0 26 26">
  <metadata id="metadata43">
    <rdf:RDF>
      <cc:Work rdf:about="">
        <cc:license rdf:resource="http://creativecommons.org/licenses/by/4.0/" />
      </cc:Work>
      <cc:License rdf:about="http://creativecommons.org/licenses/by/4.0/">
        <cc:permits rdf:resource="http://creativecommons.org/ns#Reproduction" />
        <cc:permits rdf:resource="http://creativecommons.org/ns#Distribution" />
        <cc:requires rdf:resource="http://creativecommons.org/ns#Notice" />
        <cc:requires rdf:resource="http://creativecommons.org/ns#Attribution" />
        <cc:permits rdf:resource="http://creativecommons.org/ns#DerivativeWorks" />
      </cc:License>
    </rdf:RDF>
  </metadata>
  <defs>
    <style>.cls-1{fill:#b9b9b9;}.cls-2{fill:#545454;}.cls-3{fill:#1a81c4;}</style>
  </defs>
  <title>pcbnew</title>
  <rect class="cls-1" x="1.0042" y="1.0107" width="23.9915" height="23.9957" rx="3.9989"/>
  <path class="cls-2" d="M16.3671,25.0056V12.3342h2.9085l.8443.8445h4.8787V6.1409H20.12l-.8443.8446H17.7744L16.3671,5.578V1.0122H5A3.9989,3.9989,0,0,0,1.0014,5.0115V21.0064A3.9989,3.9989,0,0,0,5,25.0056Z"/>
  <polygon class="cls-1" points="20.693 10.16 16.375 10.16 13.156 6.94 13.156 1.013 14.298 1.013 14.298 6.467 16.848 9.018 20.693 9.018 20.693 10.16"/>
  <polygon class="cls-1" points="13.823 25.008 12.68 25.008 12.68 12.746 9.127 9.193 9.127 1.013 10.27 1.013 10.27 8.72 13.823 12.273 13.823 25.008"/>
  <polygon class="cls-1" points="9.777 25.008 8.634 25.008 8.634 12.746 5.082 9.193 5.082 1.013 6.224 1.013 6.224 8.72 9.777 12.273 9.777 25.008"/>
  <rect class="cls-1" x="4.9309" y="17.7537" width="1.1423" height="7.2543"/>
  <path class="cls-3" d="M7.4836,15.83a1.9993,1.9993,0,1,1-1.9993-2A1.9995,1.9995,0,0,1,7.4836,15.83Z"/>
  <path class="cls-1" d="M6.9078,15.83a1.4236,1.4236,0,1,1-1.4235-1.424A1.4235,1.4235,0,0,1,6.9078,15.83Z"/>
  <path class="cls-3" d="M24.0464,9.6716a1.9993,1.9993,0,1,1-1.9992-2A1.9995,1.9995,0,0,1,24.0464,9.6716Z"/>
  <path class="cls-1" d="M23.4707,9.6716a1.4236,1.4236,0,1,1-1.4235-1.4239A1.4237,1.4237,0,0,1,23.4707,9.6716Z"/>
</svg>