<svg id="Слой_1" data-name="Слой 1"
  xmlns:dc="http://purl.org/dc/elements/1.1/"
  xmlns:cc="http://creativecommons.org/ns#"
  xmlns:rdf="http://www.w3.org/1999/02/22-rdf-syntax-ns#"
  xmlns="http://www.w3.org/2000/svg"
  xmlns:sodipodi="http://sodipodi.sourceforge.net/DTD/sodipodi-0.dtd"
  xmlns:inkscape="http://www.inkscape.org/namespaces/inkscape" viewBox="0 0 26 26">
  <sodipodi:namedview pagecolor="#ffffff" bordercolor="#666666" borderopacity="1" objecttolerance="10" gridtolerance="10" guidetolerance="10" inkscape:pageopacity="0" inkscape:pageshadow="2" inkscape:window-width="1609" inkscape:window-height="1286" id="namedview30" showgrid="true" inkscape:zoom="27.961538" inkscape:cx="13" inkscape:cy="13" inkscape:window-x="0" inkscape:window-y="37" inkscape:window-maximized="0">
    <inkscape:grid type="xygrid" id="grid_kicad" spacingx="0.5" spacingy="0.5" color="#9999ff" opacity="0.13" empspacing="2" />
  </sodipodi:namedview>
  <metadata id="metadata43">
    <rdf:RDF>
      <cc:Work rdf:about="">
        <cc:license rdf:resource="http://creativecommons.org/licenses/by-sa/4.0/" />
        <dc:format>image/svg+xml</dc:format>
        <dc:type rdf:resource="http://purl.org/dc/dcmitype/StillImage" />
        <dc:title>add_arc</dc:title>
      </cc:Work>
      <cc:License rdf:about="http://creativecommons.org/licenses/by-sa/4.0/">
        <cc:permits rdf:resource="http://creativecommons.org/ns#Reproduction" />
        <cc:permits rdf:resource="http://creativecommons.org/ns#Distribution" />
        <cc:requires rdf:resource="http://creativecommons.org/ns#Notice" />
        <cc:requires rdf:resource="http://creativecommons.org/ns#Attribution" />
        <cc:permits rdf:resource="http://creativecommons.org/ns#DerivativeWorks" />
        <cc:requires rdf:resource="http://creativecommons.org/ns#ShareAlike" />
      </cc:License>
    </rdf:RDF>
  </metadata>
  <defs>
    <style>.cls-1{fill:#b9b9b9;}.cls-2{fill:#545454;}.cls-3{fill:#e61c50;}.cls-4{fill:none;stroke:#fff;stroke-linecap:round;stroke-linejoin:round;stroke-width:2px;}</style>
  </defs>
  <title>pin2pin</title>
  <path class="cls-1" d="M4.4971,1.0011H18.4947a3.5,3.5,0,0,1,3.5,3.5v14a3.5,3.5,0,0,1-3.5,3.5H4.497a3.5,3.5,0,0,1-3.5-3.5v-14a3.5,3.5,0,0,1,3.5-3.5Z"/>
  <path class="cls-2" d="M19.1094,9.501H11.2051a4.0332,4.0332,0,1,0,0,2h7.9043a1,1,0,0,0,0-2ZM7.3125,12.5342A2.0332,2.0332,0,1,1,9.3457,10.501,2.0355,2.0355,0,0,1,7.3125,12.5342Z"/>
  <path class="cls-3" d="M25.0065,18A7.0065,7.0065,0,1,1,18,11,7.0032,7.0032,0,0,1,25.0065,18Z"/>
  <path class="cls-4" d="M18.2893,17.7107h0a1.6461,1.6461,0,0,1,0-2.3279l.8383-.8382a1.6458,1.6458,0,0,1,2.3278,0h0a1.6458,1.6458,0,0,1,0,2.3278l-.8382.8383A1.6461,1.6461,0,0,1,18.2893,17.7107Z"/>
  <path class="cls-4" d="M14.5446,21.4554h0a1.6458,1.6458,0,0,1,0-2.3278l.8382-.8383a1.6461,1.6461,0,0,1,2.3279,0h0a1.6461,1.6461,0,0,1,0,2.3279l-.8383.8382A1.6458,1.6458,0,0,1,14.5446,21.4554Z"/>
  <line class="cls-4" x1="18.83" y1="17.17" x2="17.1297" y2="18.8703"/>
</svg>