<?xml version="1.0" encoding="UTF-8" standalone="no"?>
<svg
   xmlns:dc="http://purl.org/dc/elements/1.1/"
   xmlns:cc="http://creativecommons.org/ns#"
   xmlns:rdf="http://www.w3.org/1999/02/22-rdf-syntax-ns#"
   xmlns:svg="http://www.w3.org/2000/svg"
   xmlns="http://www.w3.org/2000/svg"
   xmlns:sodipodi="http://sodipodi.sourceforge.net/DTD/sodipodi-0.dtd"
   xmlns:inkscape="http://www.inkscape.org/namespaces/inkscape"
   id="Слой_1"
   data-name="Слой 1"
   viewBox="0 0 24 24"
   version="1.1"
   sodipodi:docname="pin2pin.svg"
   inkscape:version="1.0.1 (3bc2e813f5, 2020-09-07)">
  <sodipodi:namedview
     pagecolor="#ffffff"
     bordercolor="#666666"
     borderopacity="1"
     objecttolerance="10"
     gridtolerance="10"
     guidetolerance="10"
     inkscape:pageopacity="0"
     inkscape:pageshadow="2"
     inkscape:window-width="1609"
     inkscape:window-height="1286"
     id="namedview30"
     showgrid="true"
     inkscape:zoom="27.961538"
     inkscape:cx="9.8911895"
     inkscape:cy="12.804934"
     inkscape:window-x="0"
     inkscape:window-y="37"
     inkscape:window-maximized="0"
     inkscape:document-rotation="0"
     inkscape:current-layer="Слой_1">
    <inkscape:grid
       type="xygrid"
       id="grid_kicad"
       spacingx="0.5"
       spacingy="0.5"
       color="#9999ff"
       opacity="0.13"
       empspacing="2" />
  </sodipodi:namedview>
  <metadata
     id="metadata43">
    <rdf:RDF>
      <cc:Work
         rdf:about="">
        <cc:license
           rdf:resource="http://creativecommons.org/licenses/by-sa/4.0/" />
        <dc:format>image/svg+xml</dc:format>
        <dc:type
           rdf:resource="http://purl.org/dc/dcmitype/StillImage" />
        <dc:title>add_arc</dc:title>
      </cc:Work>
      <cc:License
         rdf:about="http://creativecommons.org/licenses/by-sa/4.0/">
        <cc:permits
           rdf:resource="http://creativecommons.org/ns#Reproduction" />
        <cc:permits
           rdf:resource="http://creativecommons.org/ns#Distribution" />
        <cc:requires
           rdf:resource="http://creativecommons.org/ns#Notice" />
        <cc:requires
           rdf:resource="http://creativecommons.org/ns#Attribution" />
        <cc:permits
           rdf:resource="http://creativecommons.org/ns#DerivativeWorks" />
        <cc:requires
           rdf:resource="http://creativecommons.org/ns#ShareAlike" />
      </cc:License>
    </rdf:RDF>
  </metadata>
  <defs
     id="defs26229">
    <style
       id="style26227">.cls-1{fill:#b9b9b9;}.cls-2{fill:#545454;}.cls-3{fill:#e61c50;}.cls-4{fill:none;stroke:#fff;stroke-linecap:round;stroke-linejoin:round;stroke-width:2px;}</style>
  </defs>
  <title
     id="title26231">pin2pin</title>
  <path
     class="cls-2"
     d="m 18.1094,8.501 h -7.9043 a 4.0332,4.0332 0 1 0 0,2 h 7.9043 a 1,1 0 0 0 0,-2 z M 6.3125,11.5342 A 2.0332,2.0332 0 1 1 8.3457,9.501 2.0355,2.0355 0 0 1 6.3125,11.5342 Z"
     id="path26235" />
  <path
     class="cls-3"
     d="M 24.0065,17 A 7.0065,7.0065 0 1 1 17,10 a 7.0032,7.0032 0 0 1 7.0065,7 z"
     id="path26237" />
  <path
     class="cls-4"
     d="m 17.2893,16.7107 v 0 a 1.6461,1.6461 0 0 1 0,-2.3279 l 0.8383,-0.8382 a 1.6458,1.6458 0 0 1 2.3278,0 v 0 a 1.6458,1.6458 0 0 1 0,2.3278 l -0.8382,0.8383 a 1.6461,1.6461 0 0 1 -2.3279,0 z"
     id="path26239" />
  <path
     class="cls-4"
     d="m 13.5446,20.4554 v 0 a 1.6458,1.6458 0 0 1 0,-2.3278 l 0.8382,-0.8383 a 1.6461,1.6461 0 0 1 2.3279,0 v 0 a 1.6461,1.6461 0 0 1 0,2.3279 l -0.8383,0.8382 a 1.6458,1.6458 0 0 1 -2.3278,0 z"
     id="path26241" />
  <line
     class="cls-4"
     x1="17.83"
     y1="16.17"
     x2="16.1297"
     y2="17.8703"
     id="line26243" />
</svg>
