<svg xmlns="http://www.w3.org/2000/svg" height="48" width="48" version="1.1" xmlns:xlink="http://www.w3.org/1999/xlink">
 <defs>
  <linearGradient id="a">
   <stop stop-color="#afafff" offset="0"/>
   <stop stop-color="#fff" offset="1"/>
  </linearGradient>
  <filter id="g" color-interpolation-filters="sRGB">
   <feGaussianBlur stdDeviation="0.18703997"/>
  </filter>
  <filter id="h" color-interpolation-filters="sRGB">
   <feGaussianBlur stdDeviation="0.17147912"/>
  </filter>
  <filter id="i" color-interpolation-filters="sRGB">
   <feGaussianBlur stdDeviation="0.19291411"/>
  </filter>
  <linearGradient id="j" y2="5.5" xlink:href="#a" gradientUnits="userSpaceOnUse" x2="1.0312" gradientTransform="matrix(.79725 0 0 .775 .83597 30.037)" y1="9.4062" x1="4.9688"/>
  <linearGradient id="k" y2="5.5" xlink:href="#a" gradientUnits="userSpaceOnUse" x2="1.0312" gradientTransform="matrix(.79725 0 0 .775 .83597 37.754)" y1="9.4062" x1="4.9688"/>
 </defs>
 <g transform="matrix(2.9519 0 0 3.0444 .59401 -98.265)">
  <g filter="url(#i)" transform="translate(0,32)">
   <g filter="url(#h)">
    <rect transform="rotate(-90)" height="10.099" width="2.0373" y="5.8852" x="-5.4" fill="#9b9b9b"/>
    <path fill="#9b9b9b" d="m3.7592 1.7833c-1.7603 0-3.189 1.3888-3.189 3.1s1.4287 3.1 3.189 3.1 3.189-1.3888 3.189-3.1-1.4287-3.1-3.189-3.1z"/>
    <rect fill-opacity=".39216" transform="matrix(.71704 -.69703 .71704 .69703 0 0)" height="8.3862" width="1.2949" y="7.026" x="4.1465"/>
   </g>
   <rect fill-opacity=".39216" transform="matrix(-.71704 -.69703 -.71704 .69703 0 0)" height="8.3862" width="1.2949" y="-8.987" x="-11.867"/>
  </g>
  <path d="m5.3537 36.367v-1.55l9.567 0.02941c0.22514 0.52251 0.18395 1.0641 0 1.55z"/>
  <path d="m3.2277 32.75c-1.7603 0-3.189 1.3888-3.189 3.1s1.4287 3.1 3.189 3.1 3.189-1.3888 3.189-3.1-1.4287-3.1-3.189-3.1z"/>
  <path fill="url(#j)" d="m3.2277 34.3c0.88016 0 1.5945 0.6944 1.5945 1.55s-0.71434 1.55-1.5945 1.55-1.5945-0.6944-1.5945-1.55 0.71434-1.55 1.5945-1.55z"/>
  <g opacity=".86328" transform="translate(0,30.9)" filter="url(#g)" fill="#9b9b9b">
   <rect transform="rotate(-90)" height="10.099" width="2.0373" y="5.8852" x="-14.217"/>
   <path d="m3.7592 10.6c-1.7603 0-3.189 1.3888-3.189 3.1s1.4287 3.1 3.189 3.1 3.189-1.3888 3.189-3.1-1.4287-3.1-3.189-3.1z"/>
  </g>
  <path fill="#d72e2e" d="m5.3537 44.083v-1.55l9.567 0.02941s0.2375 0.36852 0.24062 0.76305c-0.0055 0.41406-0.24062 0.78695-0.24062 0.78695z"/>
  <path fill="#d72e2e" d="m3.2277 40.467c-1.7603 0-3.189 1.3888-3.189 3.1s1.4287 3.1 3.189 3.1 3.189-1.3888 3.189-3.1-1.4287-3.1-3.189-3.1z"/>
  <path fill="url(#k)" d="m3.2277 42.017c0.88016 0 1.5945 0.6944 1.5945 1.55s-0.71434 1.55-1.5945 1.55-1.5945-0.6944-1.5945-1.55 0.71434-1.55 1.5945-1.55z"/>
  <rect transform="matrix(.71704 -.69703 .71704 .69703 0 0)" rx=".64744" ry=".49117" height="8.3862" width="1.2949" y="28.708" x="-18.831" fill="#00009b"/>
  <rect transform="matrix(-.71704 -.69703 -.71704 .69703 0 0)" ry=".64744" width="1.2949" y="13.99" x="-33.549" height="8.3862" fill="#00009b"/>
  <g transform="translate(-4.2232e-7,32.8)">
   <rect fill-opacity="0" height="16" width="16" y="0" x="0"/>
  </g>
 </g>
</svg>
