<?xml version="1.0" encoding="UTF-8" standalone="no"?>
<svg
   xmlns:dc="http://purl.org/dc/elements/1.1/"
   xmlns:cc="http://creativecommons.org/ns#"
   xmlns:rdf="http://www.w3.org/1999/02/22-rdf-syntax-ns#"
   xmlns:svg="http://www.w3.org/2000/svg"
   xmlns="http://www.w3.org/2000/svg"
   xmlns:sodipodi="http://sodipodi.sourceforge.net/DTD/sodipodi-0.dtd"
   xmlns:inkscape="http://www.inkscape.org/namespaces/inkscape"
   id="Слой_1"
   data-name="Слой 1"
   viewBox="0 0 24 24"
   version="1.1"
   sodipodi:docname="pin_table.svg"
   inkscape:version="1.0.1 (3bc2e813f5, 2020-09-07)">
  <sodipodi:namedview
     pagecolor="#ffffff"
     bordercolor="#666666"
     borderopacity="1"
     objecttolerance="10"
     gridtolerance="10"
     guidetolerance="10"
     inkscape:pageopacity="0"
     inkscape:pageshadow="2"
     inkscape:window-width="1609"
     inkscape:window-height="1286"
     id="namedview30"
     showgrid="true"
     inkscape:zoom="27.961538"
     inkscape:cx="3.3259971"
     inkscape:cy="13"
     inkscape:window-x="0"
     inkscape:window-y="37"
     inkscape:window-maximized="0"
     inkscape:document-rotation="0"
     inkscape:current-layer="Слой_1">
    <inkscape:grid
       type="xygrid"
       id="grid_kicad"
       spacingx="0.5"
       spacingy="0.5"
       color="#9999ff"
       opacity="0.13"
       empspacing="2" />
  </sodipodi:namedview>
  <metadata
     id="metadata43">
    <rdf:RDF>
      <cc:Work
         rdf:about="">
        <cc:license
           rdf:resource="http://creativecommons.org/licenses/by-sa/4.0/" />
        <dc:format>image/svg+xml</dc:format>
        <dc:type
           rdf:resource="http://purl.org/dc/dcmitype/StillImage" />
        <dc:title>add_arc</dc:title>
      </cc:Work>
      <cc:License
         rdf:about="http://creativecommons.org/licenses/by-sa/4.0/">
        <cc:permits
           rdf:resource="http://creativecommons.org/ns#Reproduction" />
        <cc:permits
           rdf:resource="http://creativecommons.org/ns#Distribution" />
        <cc:requires
           rdf:resource="http://creativecommons.org/ns#Notice" />
        <cc:requires
           rdf:resource="http://creativecommons.org/ns#Attribution" />
        <cc:permits
           rdf:resource="http://creativecommons.org/ns#DerivativeWorks" />
        <cc:requires
           rdf:resource="http://creativecommons.org/ns#ShareAlike" />
      </cc:License>
    </rdf:RDF>
  </metadata>
  <defs
     id="defs159127">
    <style
       id="style159125">.cls-1{fill:#e8e8e8;}.cls-2{fill:#b9b9b9;}.cls-3{fill:none;stroke:#b9b9b9;stroke-miterlimit:10;}.cls-4{fill:#1a81c4;}</style>
  </defs>
  <title
     id="title159129">pin_table</title>
  <path
     class="cls-1"
     d="M 23.9961,19.9992 H 6.79 l -2.5573,-2.9925 -4.23,2.9925 V 3.9986 A 3.9994,3.9994 0 0 1 4.0021,-8e-4 h 15.9947 a 3.9994,3.9994 0 0 1 3.9994,3.9994 v 16 z"
     id="path159131" />
  <path
     class="cls-2"
     d="M 23.9944,5.3924 H 0.0027 V 3.9986 A 3.9994,3.9994 0 0 1 4.0021,-8e-4 h 15.9947 a 3.9994,3.9994 0 0 1 3.9994,3.9994 z"
     id="path159133" />
  <line
     class="cls-3"
     x1="0"
     y1="5.2157998"
     x2="24"
     y2="5.2157998"
     id="line159135" />
  <line
     class="cls-3"
     x1="0"
     y1="8.8760996"
     x2="24"
     y2="8.8760996"
     id="line159137" />
  <line
     class="cls-3"
     x1="0"
     y1="12.5364"
     x2="24"
     y2="12.5364"
     id="line159139" />
  <line
     class="cls-3"
     x1="0"
     y1="16.1966"
     x2="24"
     y2="16.1966"
     id="line159141" />
  <line
     class="cls-3"
     x1="4.7730999"
     y1="5.6034999"
     x2="4.7730999"
     y2="17.429001"
     id="line159143" />
  <line
     class="cls-3"
     x1="12"
     y1="5.6034999"
     x2="12"
     y2="19.7519"
     id="line159145" />
  <line
     class="cls-3"
     x1="19.2269"
     y1="5.6034999"
     x2="19.2269"
     y2="19.7519"
     id="line159147" />
  <path
     class="cls-4"
     d="M 22.9962,20.9858 H 7.2784 a 1,1 0 0 1 0,-2 h 15.7178 a 1,1 0 0 1 0,2 z"
     id="path159149" />
  <path
     class="cls-4"
     d="m 3.9991,23.9936 a 4.0078,4.0078 0 1 1 4.0078,-4.0078 4.0121,4.0121 0 0 1 -4.0078,4.0078 z m 0,-6.0156 A 2.0078,2.0078 0 1 0 6.0069,19.9858 2.01,2.01 0 0 0 3.9991,17.978 Z"
     id="path159151" />
</svg>
