<?xml version="1.0" encoding="UTF-8" standalone="no"?>
<svg
   xmlns:dc="http://purl.org/dc/elements/1.1/"
   xmlns:cc="http://creativecommons.org/ns#"
   xmlns:rdf="http://www.w3.org/1999/02/22-rdf-syntax-ns#"
   xmlns:svg="http://www.w3.org/2000/svg"
   xmlns="http://www.w3.org/2000/svg"
   xmlns:sodipodi="http://sodipodi.sourceforge.net/DTD/sodipodi-0.dtd"
   xmlns:inkscape="http://www.inkscape.org/namespaces/inkscape"
   id="Слой_1"
   data-name="Слой 1"
   viewBox="0 0 24 24"
   version="1.1"
   sodipodi:docname="pin_show_etype.svg"
   inkscape:version="1.0.1 (3bc2e813f5, 2020-09-07)">
  <sodipodi:namedview
     pagecolor="#ffffff"
     bordercolor="#666666"
     borderopacity="1"
     objecttolerance="10"
     gridtolerance="10"
     guidetolerance="10"
     inkscape:pageopacity="0"
     inkscape:pageshadow="2"
     inkscape:window-width="1609"
     inkscape:window-height="1286"
     id="namedview30"
     showgrid="true"
     inkscape:zoom="27.961538"
     inkscape:cx="3.3259971"
     inkscape:cy="13"
     inkscape:window-x="0"
     inkscape:window-y="37"
     inkscape:window-maximized="0"
     inkscape:document-rotation="0"
     inkscape:current-layer="Слой_1">
    <inkscape:grid
       type="xygrid"
       id="grid_kicad"
       spacingx="0.5"
       spacingy="0.5"
       color="#9999ff"
       opacity="0.13"
       empspacing="2" />
  </sodipodi:namedview>
  <metadata
     id="metadata43">
    <rdf:RDF>
      <cc:Work
         rdf:about="">
        <cc:license
           rdf:resource="http://creativecommons.org/licenses/by-sa/4.0/" />
        <dc:format>image/svg+xml</dc:format>
        <dc:type
           rdf:resource="http://purl.org/dc/dcmitype/StillImage" />
        <dc:title>add_arc</dc:title>
      </cc:Work>
      <cc:License
         rdf:about="http://creativecommons.org/licenses/by-sa/4.0/">
        <cc:permits
           rdf:resource="http://creativecommons.org/ns#Reproduction" />
        <cc:permits
           rdf:resource="http://creativecommons.org/ns#Distribution" />
        <cc:requires
           rdf:resource="http://creativecommons.org/ns#Notice" />
        <cc:requires
           rdf:resource="http://creativecommons.org/ns#Attribution" />
        <cc:permits
           rdf:resource="http://creativecommons.org/ns#DerivativeWorks" />
        <cc:requires
           rdf:resource="http://creativecommons.org/ns#ShareAlike" />
      </cc:License>
    </rdf:RDF>
  </metadata>
  <defs
     id="defs159073">
    <style
       id="style159071">.cls-1{fill:#b9b9b9;}.cls-2{fill:#545454;}.cls-3{fill:#e61c50;}.cls-4{fill:#fff;}</style>
  </defs>
  <title
     id="title159075">pin_show_etype</title>
  <path
     class="cls-2"
     d="M 7.3241,11.1359 H 3.23 a 0.6119,0.6119 0 0 1 0,-1.2237 h 4.0941 a 0.6119,0.6119 0 0 1 0,1.2237 z"
     id="path159079" />
  <path
     class="cls-2"
     d="m 10.3266,13.8892 a 3.3652,3.3652 0 1 1 3.3652,-3.3652 3.3694,3.3694 0 0 1 -3.3652,3.3652 z m 0,-5.5067 a 2.1415,2.1415 0 1 0 2.1415,2.1415 2.1441,2.1441 0 0 0 -2.1415,-2.1415 z"
     id="path159081" />
  <path
     class="cls-2"
     d="M 2.0037,17.233 V 3.772 a 0.6119,0.6119 0 0 1 1.2237,0 v 13.461 a 0.6119,0.6119 0 0 1 -1.2237,0 z"
     id="path159083" />
  <path
     class="cls-3"
     d="M 24.0065,17 A 7.0065,7.0065 0 1 1 17,10 a 7.0032,7.0032 0 0 1 7.0065,7 z"
     id="path159085" />
  <path
     class="cls-4"
     d="m 15.9332,19.1182 a 3.4488,3.4488 0 0 1 0.2364,-1.4659 4.2208,4.2208 0 0 1 1.0156,-1.1084 6.5544,6.5544 0 0 0 0.8867,-1.0429 1.96,1.96 0 0 0 0.3291,-1.101 1.4789,1.4789 0 0 0 -0.376,-1.0791 1.427,1.427 0 0 0 -1.0693,-0.3838 1.5777,1.5777 0 0 0 -1.0078,0.3262 1.1511,1.1511 0 0 0 -0.415,0.9648 H 13.859 l -0.0215,-0.043 a 2.37,2.37 0 0 1 0.8545,-1.99 3.4705,3.4705 0 0 1 2.2637,-0.7129 3.346,3.346 0 0 1 2.3428,0.7666 2.7414,2.7414 0 0 1 0.84,2.13 2.9558,2.9558 0 0 1 -0.5254,1.6885 6.51,6.51 0 0 1 -1.3273,1.4227 1.6386,1.6386 0 0 0 -0.5108,0.6817 3.2688,3.2688 0 0 0 -0.1035,0.9463 z M 17.7,22.0723 H 15.9264 V 20.4014 H 17.7 Z"
     id="path159087" />
</svg>
