<svg id="Слой_1" data-name="Слой 1"
  xmlns:cc="http://creativecommons.org/ns#"
  xmlns:rdf="http://www.w3.org/1999/02/22-rdf-syntax-ns#"
  xmlns="http://www.w3.org/2000/svg" viewBox="0 0 26 26">
  <metadata id="metadata43">
    <rdf:RDF>
      <cc:Work rdf:about="">
        <cc:license rdf:resource="http://creativecommons.org/licenses/by/4.0/" />
      </cc:Work>
      <cc:License rdf:about="http://creativecommons.org/licenses/by/4.0/">
        <cc:permits rdf:resource="http://creativecommons.org/ns#Reproduction" />
        <cc:permits rdf:resource="http://creativecommons.org/ns#Distribution" />
        <cc:requires rdf:resource="http://creativecommons.org/ns#Notice" />
        <cc:requires rdf:resource="http://creativecommons.org/ns#Attribution" />
        <cc:permits rdf:resource="http://creativecommons.org/ns#DerivativeWorks" />
      </cc:License>
    </rdf:RDF>
  </metadata>
  <defs>
    <style>.cls-1{fill:#e8e8e8;}.cls-2{fill:#b9b9b9;}.cls-3{fill:none;stroke:#b9b9b9;stroke-miterlimit:10;}.cls-4{fill:#1a81c4;}</style>
  </defs>
  <title>pin_table</title>
  <path class="cls-1" d="M24.9961,20.9992H7.79L5.2327,18.0067l-4.23,2.9925V4.9986A3.9994,3.9994,0,0,1,5.0021.9992H20.9968a3.9994,3.9994,0,0,1,3.9994,3.9994v16Z"/>
  <path class="cls-2" d="M24.9944,6.3924H1.0027V4.9986A3.9994,3.9994,0,0,1,5.0021.9992H20.9968a3.9994,3.9994,0,0,1,3.9994,3.9994Z"/>
  <line class="cls-3" x1="1" y1="6.2158" x2="25" y2="6.2158"/>
  <line class="cls-3" x1="1" y1="9.8761" x2="25" y2="9.8761"/>
  <line class="cls-3" x1="1" y1="13.5364" x2="25" y2="13.5364"/>
  <line class="cls-3" x1="1" y1="17.1966" x2="25" y2="17.1966"/>
  <line class="cls-3" x1="5.7731" y1="6.6035" x2="5.7731" y2="18.429"/>
  <line class="cls-3" x1="13" y1="6.6035" x2="13" y2="20.7519"/>
  <line class="cls-3" x1="20.2269" y1="6.6035" x2="20.2269" y2="20.7519"/>
  <path class="cls-4" d="M23.9962,21.9858H8.2784a1,1,0,0,1,0-2H23.9962a1,1,0,0,1,0,2Z"/>
  <path class="cls-4" d="M4.9991,24.9936a4.0078,4.0078,0,1,1,4.0078-4.0078A4.0121,4.0121,0,0,1,4.9991,24.9936Zm0-6.0156a2.0078,2.0078,0,1,0,2.0078,2.0078A2.01,2.01,0,0,0,4.9991,18.978Z"/>
</svg>