<svg xmlns="http://www.w3.org/2000/svg" height="48" width="48" version="1.1">
 <g transform="matrix(2.4566,0,0,2.2316,-37.589,-39.022)">
  <rect fill-opacity="0" height="16" width="16" y="0" x="0"/>
 </g>
 <g transform="matrix(0,-2.6586,2.1996,0,14.427,46.064)">
  <rect fill-opacity="0" height="16" width="16" y="0" x="0"/>
 </g>
 <g transform="matrix(.88743 0 0 .88119 3.8904 -6.057)" stroke="#f00" stroke-width="3.75" fill="none">
  <path d="m40.68 22.245h-25.216"/>
  <path stroke-linejoin="round" d="m27.75 10.65a5.7 5.4 0 1 1 -11.4 0 5.7 5.4 0 1 1 11.4 0z" transform="matrix(0 -1 1 0 -.79506 44.295)"/>
 </g>
 <g transform="matrix(1.1624,0,0,1.2042,-4.5579,-13.29)">
  <g fill-rule="evenodd" transform="matrix(1.9499,0,0,1.8369,5.9774,53.875)">
   <path fill-opacity=".39216" d="m13.961-9.5 0.039-2.896 3.9609 4.3961-4 4.5v-3c-3.5 0-5.4609-2-5.4609-6h2.9609c0 2 1 3 2.5 3z"/>
   <g transform="translate(1,-2.4551)">
    <path d="m12-8.441 0.03913-2.8961 3.9609 4.3961-4 4.5v-3c-3.5 0-5.4609-2-5.4609-6h2.9609c0 2 1 3 2.5 3z"/>
    <path fill="#00bd00" d="m12.5-7.941v-1.5l2.5 2.5-2.5 3v-2c-2 0-5-0.5-5-4.5h1.5c0 2 2 2.5 3.5 2.5z"/>
   </g>
  </g>
 </g>
</svg>
