<svg id="Слой_1" data-name="Слой 1"
  xmlns:dc="http://purl.org/dc/elements/1.1/"
  xmlns:cc="http://creativecommons.org/ns#"
  xmlns:rdf="http://www.w3.org/1999/02/22-rdf-syntax-ns#"
  xmlns="http://www.w3.org/2000/svg" viewBox="0 0 26 26">
  <metadata id="metadata43">
    <rdf:RDF>
      <cc:Work rdf:about="">
        <cc:license rdf:resource="http://creativecommons.org/licenses/by-sa/4.0/" />
        <dc:format>image/svg+xml</dc:format>
        <dc:type rdf:resource="http://purl.org/dc/dcmitype/StillImage" />
        <dc:title>add_arc</dc:title>
      </cc:Work>
      <cc:License rdf:about="http://creativecommons.org/licenses/by-sa/4.0/">
        <cc:permits rdf:resource="http://creativecommons.org/ns#Reproduction" />
        <cc:permits rdf:resource="http://creativecommons.org/ns#Distribution" />
        <cc:requires rdf:resource="http://creativecommons.org/ns#Notice" />
        <cc:requires rdf:resource="http://creativecommons.org/ns#Attribution" />
        <cc:permits rdf:resource="http://creativecommons.org/ns#DerivativeWorks" />
        <cc:requires rdf:resource="http://creativecommons.org/ns#ShareAlike" />
      </cc:License>
    </rdf:RDF>
  </metadata>
  <defs>
    <style>.cls-1{fill:#545454;}.cls-2{fill:#e61c50;}</style>
  </defs>
  <title>pinshape_nonlogic</title>
  <path class="cls-1" d="M8.0012,24.0132v-22a1,1,0,1,1,2,0v22a1,1,0,0,1-2,0Z"/>
  <path class="cls-1" d="M11.0011,12H20.993a1,1,0,0,1,0,2H11.0011a1,1,0,0,1,0-2Z"/>
  <path class="cls-2" d="M12.9953,17.9941a.9967.9967,0,0,1-.707-.2929L4.3,9.7129A1,1,0,1,1,5.7141,8.2988l7.9882,7.9883a1,1,0,0,1-.707,1.707Z"/>
  <path class="cls-2" d="M5.007,17.9941a1,1,0,0,1-.707-1.707l7.9883-7.9883a1,1,0,1,1,1.414,1.4141L5.7141,17.7012A.997.997,0,0,1,5.007,17.9941Z"/>
</svg>