<svg id="Слой_1" data-name="Слой 1"
  xmlns:cc="http://creativecommons.org/ns#"
  xmlns:rdf="http://www.w3.org/1999/02/22-rdf-syntax-ns#"
  xmlns="http://www.w3.org/2000/svg" viewBox="0 0 26 26">
  <metadata id="metadata43">
    <rdf:RDF>
      <cc:Work rdf:about="">
        <cc:license rdf:resource="http://creativecommons.org/licenses/by/4.0/" />
      </cc:Work>
      <cc:License rdf:about="http://creativecommons.org/licenses/by/4.0/">
        <cc:permits rdf:resource="http://creativecommons.org/ns#Reproduction" />
        <cc:permits rdf:resource="http://creativecommons.org/ns#Distribution" />
        <cc:requires rdf:resource="http://creativecommons.org/ns#Notice" />
        <cc:requires rdf:resource="http://creativecommons.org/ns#Attribution" />
        <cc:permits rdf:resource="http://creativecommons.org/ns#DerivativeWorks" />
      </cc:License>
    </rdf:RDF>
  </metadata>
  <defs>
    <style>.cls-1{fill:#545454;}</style>
  </defs>
  <title>pinshape_clock_invert</title>
  <path class="cls-1" d="M6.8936,19.5742a.9972.9972,0,0,1-.751-.34L1.2432,13.66a1.0007,1.0007,0,0,1-.0176-1.3008L6.1279,6.4766A1.0005,1.0005,0,1,1,7.665,7.7578L3.3105,12.9824l4.334,4.9317a1,1,0,0,1-.7509,1.66Z"/>
  <path class="cls-1" d="M6.005,24.0132v-22a1,1,0,1,1,2,0v22a1,1,0,0,1-2,0Z"/>
  <path class="cls-1" d="M18.4091,12h5.5938a1,1,0,0,1,0,2H18.4091a1,1,0,0,1,0-2Z"/>
  <path class="cls-1" d="M13.5019,7.5a5.5,5.5,0,1,1-5.5,5.5A5.5069,5.5069,0,0,1,13.5019,7.5Zm0,9a3.5,3.5,0,1,0-3.5-3.5A3.5042,3.5042,0,0,0,13.5019,16.5Z"/>
</svg>