<svg id="Слой_1" data-name="Слой 1"
  xmlns:cc="http://creativecommons.org/ns#"
  xmlns:rdf="http://www.w3.org/1999/02/22-rdf-syntax-ns#"
  xmlns="http://www.w3.org/2000/svg" viewBox="0 0 26 26">
  <metadata id="metadata43">
    <rdf:RDF>
      <cc:Work rdf:about="">
        <cc:license rdf:resource="http://creativecommons.org/licenses/by/4.0/" />
      </cc:Work>
      <cc:License rdf:about="http://creativecommons.org/licenses/by/4.0/">
        <cc:permits rdf:resource="http://creativecommons.org/ns#Reproduction" />
        <cc:permits rdf:resource="http://creativecommons.org/ns#Distribution" />
        <cc:requires rdf:resource="http://creativecommons.org/ns#Notice" />
        <cc:requires rdf:resource="http://creativecommons.org/ns#Attribution" />
        <cc:permits rdf:resource="http://creativecommons.org/ns#DerivativeWorks" />
      </cc:License>
    </rdf:RDF>
  </metadata>
  <defs>
    <style>.cls-1{fill:#545454;}</style>
  </defs>
  <title>pinshape_invert</title>
  <path class="cls-1" d="M13.4091,12.0351H24.0029a1,1,0,0,1,0,2H13.4091a1,1,0,0,1,0-2Z"/>
  <path class="cls-1" d="M8.5019,7.5351a5.5,5.5,0,1,1-5.5,5.5A5.5069,5.5069,0,0,1,8.5019,7.5351Zm0,9a3.5,3.5,0,1,0-3.5-3.5A3.5042,3.5042,0,0,0,8.5019,16.5351Z"/>
  <path class="cls-1" d="M.9971,24V2a1,1,0,0,1,2,0V24a1,1,0,0,1-2,0Z"/>
</svg>