<svg id="Слой_1" data-name="Слой 1"
  xmlns:cc="http://creativecommons.org/ns#"
  xmlns:rdf="http://www.w3.org/1999/02/22-rdf-syntax-ns#"
  xmlns="http://www.w3.org/2000/svg" viewBox="0 0 26 26">
  <metadata id="metadata43">
    <rdf:RDF>
      <cc:Work rdf:about="">
        <cc:license rdf:resource="http://creativecommons.org/licenses/by/4.0/" />
      </cc:Work>
      <cc:License rdf:about="http://creativecommons.org/licenses/by/4.0/">
        <cc:permits rdf:resource="http://creativecommons.org/ns#Reproduction" />
        <cc:permits rdf:resource="http://creativecommons.org/ns#Distribution" />
        <cc:requires rdf:resource="http://creativecommons.org/ns#Notice" />
        <cc:requires rdf:resource="http://creativecommons.org/ns#Attribution" />
        <cc:permits rdf:resource="http://creativecommons.org/ns#DerivativeWorks" />
      </cc:License>
    </rdf:RDF>
  </metadata>
  <defs>
    <style>.cls-1{fill:#545454;}</style>
  </defs>
  <title>pinshape_clock_normal</title>
  <path class="cls-1" d="M6.8936,19.5742a.9972.9972,0,0,1-.751-.34L1.2432,13.66a1.0007,1.0007,0,0,1-.0176-1.3008L6.1279,6.4766A1.0005,1.0005,0,1,1,7.665,7.7578L3.3105,12.9824l4.334,4.9317a1,1,0,0,1-.7509,1.66Z"/>
  <path class="cls-1" d="M6.005,24.0132v-22a1,1,0,1,1,2,0v22a1,1,0,0,1-2,0Z"/>
  <path class="cls-1" d="M9.0043,12H24.0029a1,1,0,0,1,0,2H9.0043a1,1,0,0,1,0-2Z"/>
</svg>