<?xml version="1.0" encoding="UTF-8" standalone="no"?>
<svg
   xmlns:dc="http://purl.org/dc/elements/1.1/"
   xmlns:cc="http://creativecommons.org/ns#"
   xmlns:rdf="http://www.w3.org/1999/02/22-rdf-syntax-ns#"
   xmlns:svg="http://www.w3.org/2000/svg"
   xmlns="http://www.w3.org/2000/svg"
   xmlns:xlink="http://www.w3.org/1999/xlink"
   xmlns:sodipodi="http://sodipodi.sourceforge.net/DTD/sodipodi-0.dtd"
   xmlns:inkscape="http://www.inkscape.org/namespaces/inkscape"
   height="48"
   width="48"
   version="1.1"
   id="svg2"
   inkscape:version="0.48.3.1 r9886"
   sodipodi:docname="plot_pdf.svg">
  <metadata
     id="metadata173">
    <rdf:RDF>
      <cc:Work
         rdf:about="">
        <dc:format>image/svg+xml</dc:format>
        <dc:type
           rdf:resource="http://purl.org/dc/dcmitype/StillImage" />
        <dc:title></dc:title>
      </cc:Work>
    </rdf:RDF>
  </metadata>
  <sodipodi:namedview
     pagecolor="#ffffff"
     bordercolor="#666666"
     borderopacity="1"
     objecttolerance="10"
     gridtolerance="10"
     guidetolerance="10"
     inkscape:pageopacity="0"
     inkscape:pageshadow="2"
     inkscape:window-width="1600"
     inkscape:window-height="849"
     id="namedview171"
     showgrid="false"
     inkscape:zoom="15.132588"
     inkscape:cx="24.145549"
     inkscape:cy="25.459095"
     inkscape:window-x="0"
     inkscape:window-y="29"
     inkscape:window-maximized="1"
     inkscape:current-layer="svg2" />
  <defs
     id="defs4">
    <linearGradient
       id="aa"
       y2="20"
       gradientUnits="userSpaceOnUse"
       x2="20.125"
       gradientTransform="matrix(1 0 0 .66667 1.9997 -2.3333)"
       y1="24.438"
       x1="20.125">
      <stop
         offset="0"
         id="stop7" />
      <stop
         stop-opacity="0"
         offset="1"
         id="stop9" />
    </linearGradient>
    <linearGradient
       id="z"
       y2="33.469"
       gradientUnits="userSpaceOnUse"
       x2="41.82"
       gradientTransform="translate(2.4997,-9)"
       y1="33.109"
       x1="41.82">
      <stop
         stop-color="#fff"
         offset="0"
         id="stop12" />
      <stop
         stop-color="#fff"
         stop-opacity="0"
         offset="1"
         id="stop14" />
    </linearGradient>
    <linearGradient
       id="at"
       y2="31.168"
       gradientUnits="userSpaceOnUse"
       x2="38.743"
       gradientTransform="matrix(.88533 0 0 1.4995 7.488 -20.734)"
       y1="29.744"
       x1="38.743">
      <stop
         stop-color="#babdb6"
         offset="0"
         id="stop17" />
      <stop
         stop-color="#fff"
         offset="1"
         id="stop19" />
    </linearGradient>
    <linearGradient
       id="as"
       y2="29.085"
       gradientUnits="userSpaceOnUse"
       x2="40.791"
       gradientTransform="matrix(.66667 0 0 1 17 -5)"
       y1="30.003"
       x1="40.791">
      <stop
         stop-color="#789e2d"
         offset="0"
         id="stop22" />
      <stop
         stop-color="#a7cc5c"
         offset="1"
         id="stop24" />
    </linearGradient>
    <linearGradient
       id="ae"
       y2="20.14"
       gradientUnits="userSpaceOnUse"
       x2="17.5"
       gradientTransform="matrix(1.0039 0 0 .98413 2.9558 -8.7031)"
       y1="30.755"
       x1="17.5">
      <stop
         stop-color="#2e3436"
         offset="0"
         id="stop27" />
      <stop
         stop-color="#babdb6"
         offset="1"
         id="stop29" />
    </linearGradient>
    <linearGradient
       id="ad"
       y2="42.336"
       gradientUnits="userSpaceOnUse"
       x2="3.6239"
       gradientTransform="translate(2.9997,-8)"
       y1="38.1"
       x1="3.6239">
      <stop
         stop-color="#fff"
         offset="0"
         id="stop32" />
      <stop
         stop-color="#fff"
         stop-opacity="0"
         offset="1"
         id="stop34" />
    </linearGradient>
    <linearGradient
       id="y"
       y2="69.14"
       gradientUnits="userSpaceOnUse"
       x2="5.1265"
       gradientTransform="translate(1.9997,-10)"
       y1="25.373"
       x1="5.1265">
      <stop
         stop-color="#fff"
         offset="0"
         id="stop37" />
      <stop
         stop-color="#fff"
         stop-opacity="0"
         offset="1"
         id="stop39" />
    </linearGradient>
    <linearGradient
       id="ac"
       y2="41.012"
       gradientUnits="userSpaceOnUse"
       x2="3.2641"
       gradientTransform="translate(2.9997,-8)"
       y1="35.073"
       x1="3.2641">
      <stop
         stop-color="#555753"
         offset="0"
         id="stop42" />
      <stop
         stop-color="#2e3436"
         offset="1"
         id="stop44" />
    </linearGradient>
    <linearGradient
       id="ab"
       y2="37.148"
       gradientUnits="userSpaceOnUse"
       x2="5.057"
       gradientTransform="translate(2.9997,-8)"
       y1="40.415"
       x1="5.057">
      <stop
         stop-color="#2e3436"
         offset="0"
         id="stop47" />
      <stop
         stop-color="#555753"
         offset="1"
         id="stop49" />
    </linearGradient>
    <linearGradient
       id="x"
       y2="24.368"
       gradientUnits="userSpaceOnUse"
       x2=".75"
       gradientTransform="translate(1.9997,-10)"
       y1="67.989"
       x1=".75">
      <stop
         stop-color="#555753"
         offset="0"
         id="stop52" />
      <stop
         stop-color="#888a85"
         offset="1"
         id="stop54" />
    </linearGradient>
    <linearGradient
       id="ar"
       y2="24.249"
       gradientUnits="userSpaceOnUse"
       x2="35.5"
       gradientTransform="matrix(1 0 0 .92157 1.9997 -3.7219)"
       y1="31.19"
       x1="35.5">
      <stop
         stop-color="#d3d7cf"
         offset="0"
         id="stop57" />
      <stop
         stop-color="#eeeeec"
         offset="1"
         id="stop59" />
    </linearGradient>
    <radialGradient
       id="aq"
       gradientUnits="userSpaceOnUse"
       cy="38.763"
       cx="25.323"
       gradientTransform="matrix(1 0 0 .1944 0 31.228)"
       r="25.235">
      <stop
         offset="0"
         id="stop62" />
      <stop
         stop-opacity="0"
         offset="1"
         id="stop64" />
    </radialGradient>
    <linearGradient
       id="af"
       y2="43"
       gradientUnits="userSpaceOnUse"
       x2="15.186"
       gradientTransform="matrix(1.129,0,0,1,-2.0968,-9)"
       y1="36"
       x1="15.177">
      <stop
         stop-color="#888a85"
         offset="0"
         id="stop67" />
      <stop
         stop-color="#555753"
         offset="1"
         id="stop69" />
    </linearGradient>
    <linearGradient
       id="ag"
       y2="45.969"
       gradientUnits="userSpaceOnUse"
       x2="10"
       gradientTransform="matrix(1.1212 0 0 1 -.90909 -8)"
       y1="40.969"
       x1="9.9688">
      <stop
         stop-color="#eeeeec"
         offset="0"
         id="stop72" />
      <stop
         stop-color="#babdb6"
         offset=".27381"
         id="stop74" />
      <stop
         stop-color="#fff"
         offset=".55910"
         id="stop76" />
      <stop
         stop-color="#eeeeec"
         offset="1"
         id="stop78" />
    </linearGradient>
    <linearGradient
       id="ah"
       y2="40"
       gradientUnits="userSpaceOnUse"
       x2="40.375"
       gradientTransform="matrix(1.1212 0 0 1 -.90909 -8)"
       y1="45.625"
       x1="40.375">
      <stop
         stop-color="#555753"
         offset="0"
         id="stop81" />
      <stop
         stop-color="#a1a59b"
         offset="1"
         id="stop83" />
    </linearGradient>
    <linearGradient
       id="ai"
       y2="32.515"
       gradientUnits="userSpaceOnUse"
       x2="34.482"
       gradientTransform="matrix(1.1454,0,0,1,-1.4536,-5)"
       y1="42.002"
       x1="34.482">
      <stop
         stop-color="#eeeeec"
         offset="0"
         id="stop86" />
      <stop
         stop-color="#fff"
         offset=".10714"
         id="stop88" />
      <stop
         stop-color="#d3d7cf"
         offset="1"
         id="stop90" />
    </linearGradient>
    <linearGradient
       id="aj"
       y2="35.789"
       gradientUnits="userSpaceOnUse"
       x2="41.498"
       gradientTransform="matrix(1.1454,0,0,1,-1.4536,-5)"
       y1="40.9"
       x1="41.498">
      <stop
         stop-color="#babdb6"
         offset="0"
         id="stop93" />
      <stop
         stop-color="#888a85"
         offset="1"
         id="stop95" />
    </linearGradient>
    <linearGradient
       id="ak"
       y2="40.048"
       gradientUnits="userSpaceOnUse"
       x2="15.312"
       gradientTransform="matrix(1.1333,0,0,1,-2.2,-8)"
       y1="31.45"
       x1="15.312">
      <stop
         offset="0"
         id="stop98" />
      <stop
         stop-opacity="0"
         offset="1"
         id="stop100" />
    </linearGradient>
    <linearGradient
       id="al"
       y2="42.403"
       gradientUnits="userSpaceOnUse"
       x2="27.907"
       gradientTransform="matrix(1.08 0 0 1.0039 .080008 -7.022)"
       y1="6.0832"
       x1="12.171">
      <stop
         stop-color="#fff"
         offset="0"
         id="stop103" />
      <stop
         stop-color="#babdb6"
         offset="1"
         id="stop105" />
    </linearGradient>
    <linearGradient
       id="am"
       y2="13.749"
       gradientUnits="userSpaceOnUse"
       x2="36.523"
       gradientTransform="matrix(1.08 0 0 1.0039 .080008 -11.038)"
       y1="24.545"
       x1="36.523">
      <stop
         stop-color="#888a85"
         offset="0"
         id="stop108" />
      <stop
         stop-color="#888a85"
         offset="1"
         id="stop110" />
    </linearGradient>
    <linearGradient
       id="an"
       y2="-11.027"
       gradientUnits="userSpaceOnUse"
       x2="15.438"
       gradientTransform="translate(2,-5.4972)"
       y1="20.773"
       x1="27.568">
      <stop
         stop-color="#888a85"
         offset="0"
         id="stop113" />
      <stop
         stop-color="#888a85"
         stop-opacity="0"
         offset="1"
         id="stop115" />
    </linearGradient>
    <linearGradient
       id="ao"
       y2="2.5"
       gradientUnits="userSpaceOnUse"
       x2="17.625"
       gradientTransform="translate(2,-5.4972)"
       y1="17.471"
       x1="21.875">
      <stop
         stop-color="#2e3436"
         offset="0"
         id="stop118" />
      <stop
         stop-color="#888a85"
         offset="1"
         id="stop120" />
    </linearGradient>
    <linearGradient
       id="ap"
       y2="28.82"
       gradientUnits="userSpaceOnUse"
       x2="34.825"
       gradientTransform="translate(2,-5.4972)"
       y1="6.1923"
       x1="21.567">
      <stop
         stop-color="#fff"
         offset="0"
         id="stop123" />
      <stop
         stop-color="#fff"
         stop-opacity="0"
         offset="1"
         id="stop125" />
    </linearGradient>
    <linearGradient
       inkscape:collect="always"
       xlink:href="#an"
       id="linearGradient5411"
       gradientUnits="userSpaceOnUse"
       gradientTransform="translate(2,-5.4972)"
       x1="27.568"
       y1="20.773"
       x2="15.438"
       y2="-11.027" />
    <linearGradient
       inkscape:collect="always"
       xlink:href="#ao"
       id="linearGradient5413"
       gradientUnits="userSpaceOnUse"
       gradientTransform="translate(2,-5.4972)"
       x1="21.875"
       y1="17.471"
       x2="17.625"
       y2="2.5" />
    <linearGradient
       inkscape:collect="always"
       xlink:href="#ap"
       id="linearGradient5415"
       gradientUnits="userSpaceOnUse"
       gradientTransform="translate(2,-5.4972)"
       x1="21.567"
       y1="6.1923"
       x2="34.825"
       y2="28.82" />
    <linearGradient
       inkscape:collect="always"
       xlink:href="#ar"
       id="linearGradient5417"
       gradientUnits="userSpaceOnUse"
       gradientTransform="matrix(1,0,0,0.92157,1.9997,-3.7219)"
       x1="35.5"
       y1="31.19"
       x2="35.5"
       y2="24.249" />
    <linearGradient
       inkscape:collect="always"
       xlink:href="#x"
       id="linearGradient5419"
       gradientUnits="userSpaceOnUse"
       gradientTransform="translate(1.9997,-10)"
       x1=".75"
       y1="67.989"
       x2=".75"
       y2="24.368" />
    <linearGradient
       inkscape:collect="always"
       xlink:href="#ab"
       id="linearGradient5421"
       gradientUnits="userSpaceOnUse"
       gradientTransform="translate(2.9997,-8)"
       x1="5.057"
       y1="40.415"
       x2="5.057"
       y2="37.148" />
    <linearGradient
       inkscape:collect="always"
       xlink:href="#ac"
       id="linearGradient5423"
       gradientUnits="userSpaceOnUse"
       gradientTransform="translate(2.9997,-8)"
       x1="3.2641"
       y1="35.073"
       x2="3.2641"
       y2="41.012" />
    <linearGradient
       inkscape:collect="always"
       xlink:href="#y"
       id="linearGradient5425"
       gradientUnits="userSpaceOnUse"
       gradientTransform="translate(1.9997,-10)"
       x1="5.1265"
       y1="25.373"
       x2="5.1265"
       y2="69.14" />
    <linearGradient
       inkscape:collect="always"
       xlink:href="#ad"
       id="linearGradient5427"
       gradientUnits="userSpaceOnUse"
       gradientTransform="translate(2.9997,-8)"
       x1="3.6239"
       y1="38.1"
       x2="3.6239"
       y2="42.336" />
    <linearGradient
       inkscape:collect="always"
       xlink:href="#ae"
       id="linearGradient5429"
       gradientUnits="userSpaceOnUse"
       gradientTransform="matrix(1.0039,0,0,0.98413,2.9558,-8.7031)"
       x1="17.5"
       y1="30.755"
       x2="17.5"
       y2="20.14" />
    <linearGradient
       inkscape:collect="always"
       xlink:href="#al"
       id="linearGradient5431"
       gradientUnits="userSpaceOnUse"
       gradientTransform="matrix(1.08,0,0,1.0039,0.080008,-7.022)"
       x1="12.171"
       y1="6.0832"
       x2="27.907"
       y2="42.403" />
    <linearGradient
       inkscape:collect="always"
       xlink:href="#am"
       id="linearGradient5433"
       gradientUnits="userSpaceOnUse"
       gradientTransform="matrix(1.08,0,0,1.0039,0.080008,-11.038)"
       x1="36.523"
       y1="24.545"
       x2="36.523"
       y2="13.749" />
    <linearGradient
       inkscape:collect="always"
       xlink:href="#as"
       id="linearGradient5435"
       gradientUnits="userSpaceOnUse"
       gradientTransform="matrix(0.66667,0,0,1,17,-5)"
       x1="40.791"
       y1="30.003"
       x2="40.791"
       y2="29.085" />
    <linearGradient
       inkscape:collect="always"
       xlink:href="#at"
       id="linearGradient5437"
       gradientUnits="userSpaceOnUse"
       gradientTransform="matrix(0.88533,0,0,1.4995,7.488,-20.734)"
       x1="38.743"
       y1="29.744"
       x2="38.743"
       y2="31.168" />
    <linearGradient
       inkscape:collect="always"
       xlink:href="#z"
       id="linearGradient5439"
       gradientUnits="userSpaceOnUse"
       gradientTransform="translate(2.4997,-9)"
       x1="41.82"
       y1="33.109"
       x2="41.82"
       y2="33.469" />
    <linearGradient
       inkscape:collect="always"
       xlink:href="#aa"
       id="linearGradient5441"
       gradientUnits="userSpaceOnUse"
       gradientTransform="matrix(1,0,0,0.66667,1.9997,-2.3333)"
       x1="20.125"
       y1="24.438"
       x2="20.125"
       y2="20" />
    <linearGradient
       inkscape:collect="always"
       xlink:href="#af"
       id="linearGradient5443"
       gradientUnits="userSpaceOnUse"
       gradientTransform="matrix(1.129,0,0,1,-2.0968,-9)"
       x1="15.177"
       y1="36"
       x2="15.186"
       y2="43" />
    <linearGradient
       inkscape:collect="always"
       xlink:href="#ak"
       id="linearGradient5445"
       gradientUnits="userSpaceOnUse"
       gradientTransform="matrix(1.1333,0,0,1,-2.2,-8)"
       x1="15.312"
       y1="31.45"
       x2="15.312"
       y2="40.048" />
  </defs>
  <path
     stroke-linejoin="round"
     d="m10.303 32.5h31.394c1.6468 0 1.1212 2 1.1212 2l1.682 2.5c0 1.385-1.2502 1.5-2.803 1.5h-31.394c-1.5524 0-2.8026-0.115-2.8026-1.5l1.6818-2.5s-0.56061-2 1.1212-2z"
     stroke="url(#ah)"
     stroke-linecap="round"
     fill="url(#ag)"
     id="path157" />
  <path
     stroke-linejoin="round"
     d="m40.352 28c0 5 1.718 8.5 1.718 8.5h-32.07s1.718-3.5 1.718-8.5"
     stroke="url(#aj)"
     fill="url(#ai)"
     id="path159" />
  <path
     fill="none"
     d="m39.34 28c-0.03625 4 1.16 7.5 1.16 7.5h-29s1.16-3.5 1.16-7.5"
     stroke="#fff"
     id="path161" />
  <g
     id="g5394"
     transform="matrix(1,0,0,0.91126979,-2.3128892,3.0385445)">
    <path
       id="path127"
       d="m 26,-2.5 c -2.7062,0 -5.5,2 -5.5,2 -0.56888,0 -1,3.984 -1,5 v 12 h 13 v -12 c 0,-1.016 -0.43112,-5 -1,-5 0,0 -2.7938,-2 -5.5,-2 z m 0,6 c 0.828,0 1.5,-0.536 1.5,2.5 0,3.036 -0.6395,7.5028 -1.4675,7.5028 -0.828,0 -1.532,-4.467 -1.532,-7.503 0,-3.036 0.672,-2.5 1.5,-2.5 z"
       style="opacity:0.8;fill:url(#linearGradient5411);fill-rule:evenodd;stroke:url(#linearGradient5413);stroke-linecap:square"
       inkscape:connector-curvature="0" />
    <path
       id="path129"
       d="m 26,-1.5 c -2.2158,0 -4.7813,1.8153 -4.7813,1.8153 -0.0014,0.00322 -0.02974,-0.00349 -0.03125,0 -0.01757,0.040692 -0.0085,0.055839 -0.03125,0.125 -0.095,0.28845 -0.192,0.7665 -0.281,1.2812 -0.177,1.0295 -0.375,2.4215 -0.375,2.7785 l 0.09374,11.159 h 10.875 L 31.49994,4.5 c 0,-0.35697 -0.13519,-1.749 -0.31251,-2.7785 -0.088,-0.5147 -0.186,-0.99275 -0.281,-1.2812 -0.023,-0.06916 -0.014,-0.08431 -0.031,-0.125 -0.006,-0.01279 -0.027,-0.0222 -0.031,-0.03125 0,0 -2.628,-1.784 -4.844,-1.784 z"
       style="opacity:0.7;fill:none;stroke:url(#linearGradient5415);stroke-linecap:square;stroke-linejoin:round"
       inkscape:connector-curvature="0" />
    <path
       id="path133"
       d="m 8.9997,11.5 -2.25,2.7488 c -2.1506,2.6273 -3.25,5.0686 -3.25,8.7549 v 5.496 h 45 v -5.4963 c 0,-3.6863 -1.0994,-6.1276 -3.25,-8.7549 l -2.25,-2.749 h -34 z"
       style="fill:url(#linearGradient5417);stroke:url(#linearGradient5419);stroke-linecap:square;stroke-linejoin:round"
       inkscape:connector-curvature="0" />
    <path
       id="path135"
       d="m 4.4997,28.5 v 2.9062 c 0,1.1517 0.942,2.0938 2.0937,2.0938 h 38.812 c 1.1517,0 2.0938,-0.942 2.0938,-2.0938 v -2.906 h -43 z"
       style="fill:url(#linearGradient5421);stroke:url(#linearGradient5423);stroke-linecap:round;stroke-linejoin:round;enable-background:new"
       inkscape:connector-curvature="0" />
    <path
       id="path137"
       d="M 9.5116,12.562 7.5994,14.851 C 5.564,17.288 4.4997,19.337 4.4997,22.708 V 27.5 h 43 v -4.792 c 0,-3.3701 -1.0721,-5.4135 -3.0997,-7.8562 l -1.9,-2.29 H 9.512 z"
       style="fill:none;stroke:url(#linearGradient5425);stroke-linecap:square"
       inkscape:connector-curvature="0" />
    <path
       id="path139"
       d="m 46.5,29.5 v 2 c 0,0.51882 -0.48118,1 -1,1 h -39 c -0.51882,0 -1,-0.48118 -1,-1 v -2 h 41 z"
       style="opacity:0.07999998;fill:none;stroke:url(#linearGradient5427);stroke-linecap:round;enable-background:new"
       inkscape:connector-curvature="0" />
    <rect
       id="rect141"
       x="11.5"
       y="12.5"
       width="29"
       height="10"
       ry="0.5"
       rx="0.50781"
       style="fill:url(#linearGradient5429);stroke:#2e3436;stroke-width:0.99978;stroke-linecap:round;stroke-linejoin:round;enable-background:new" />
    <path
       id="path143"
       d="m 14.12,6.4995 h 23.76 c 0.89748,0 1.62,0.67161 1.62,1.5059 v 6.5566 l -27,-1.004 V 8.0053 c 0,-0.83425 0.72252,-1.5059 1.62,-1.5059 z"
       style="fill:url(#linearGradient5431);stroke:url(#linearGradient5433);stroke-linecap:square;stroke-linejoin:round"
       inkscape:connector-curvature="0" />
    <rect
       id="rect145"
       x="13.5"
       y="7.4994998"
       width="24.999001"
       height="5.9983001"
       ry="0.53125"
       rx="0.62364"
       style="fill:none;stroke:#ffffff;stroke-linecap:square;stroke-linejoin:round" />
    <rect
       id="rect147"
       x="43"
       y="23.5"
       width="3"
       height="2"
       ry="1"
       rx="1"
       style="fill:url(#linearGradient5435);stroke:url(#linearGradient5437);stroke-linecap:square" />
    <rect
       id="rect149"
       x="43.734001"
       y="24.108999"
       width="1.5469"
       height="0.35936999"
       ry="0.17969"
       rx="0.51561999"
       style="fill:url(#linearGradient5439)" />
    <rect
       id="rect151"
       x="12"
       y="11"
       width="28"
       height="2"
       ry="0"
       rx="0"
       style="opacity:0.15;fill:url(#linearGradient5441);fill-rule:evenodd" />
    <path
       id="path153"
       d="m 12.5,13.5 h 27"
       style="fill:#888a85;fill-opacity:0.75;fill-rule:evenodd;stroke:#2e3436;stroke-width:0.99993998;stroke-linecap:square;enable-background:new"
       inkscape:connector-curvature="0" />
    <path
       id="path155"
       d="m 11.194,27.5 h 29.612 c 0.96368,0 1.6935,0.63554 1.6935,1.2996 v 4.7 l -33,9e-6 v -4.7004 c 0,-0.74044 0.77366,-1.2996 1.6935,-1.2996 z"
       style="fill:#6a6f64;stroke:url(#linearGradient5443);stroke-linecap:square"
       inkscape:connector-curvature="0" />
    <path
       id="path163"
       d="M 11.133,28 H 40.866 C 41.801,28 42,28.447 42,29 v 4 H 10 v -4 c 0,-0.61703 0.24178,-1 1.1333,-1 z"
       style="opacity:0.50588002;fill:url(#linearGradient5445)"
       inkscape:connector-curvature="0" />
  </g>
  <rect
     height="14.941915"
     width="37.532864"
     y="31.208086"
     x="6.0751619"
     id="rect165"
     style="fill:#ffffff;fill-rule:evenodd" />
  <g
     transform="scale(1.0055304,0.99449999)"
     style="font-size:20.34799194px;font-style:normal;font-variant:normal;font-weight:bold;font-stretch:normal;line-height:125%;letter-spacing:0px;word-spacing:0px;fill:#552200;font-family:Comic Sans MS;-inkscape-font-specification:Comic Sans MS Bold"
     id="text167">
    <path
       d="m 3.8228903,32.46079 6.3488117,0 c 1.887743,1.5e-5 3.335019,0.420619 4.341832,1.261814 1.013412,0.834598 1.520124,2.026862 1.520139,3.576795 -1.5e-5,1.556577 -0.506727,2.755465 -1.520139,3.596667 -1.006813,0.834591 -2.454089,1.251884 -4.341832,1.251878 l -2.5236277,0 0,5.146612 -3.825184,0 0,-14.833766 m 3.825184,2.772017 0,4.143121 2.1162707,0 c 0.741845,8e-6 1.314794,-0.178832 1.718849,-0.536519 0.404035,-0.364295 0.606058,-0.877631 0.606068,-1.54001 -10e-6,-0.662358 -0.202033,-1.172382 -0.606068,-1.530073 -0.404055,-0.357668 -0.977004,-0.536507 -1.718849,-0.536519 l -2.1162707,0"
       style="text-align:center;text-anchor:middle;fill:#552200;font-family:Comic Sans MS;-inkscape-font-specification:Comic Sans MS Bold"
       id="path3502" />
    <path
       d="m 22.551389,35.352033 0,9.05128 1.371105,0 c 1.563183,3e-6 2.755447,-0.387483 3.576795,-1.162459 0.827951,-0.774967 1.241931,-1.900994 1.241943,-3.378084 -1.2e-5,-1.470452 -0.41068,-2.589855 -1.232007,-3.358214 -0.821348,-0.768337 -2.016924,-1.152511 -3.586731,-1.152523 l -1.371105,0 m -3.825184,-2.891243 4.03383,0 c 2.252049,1.5e-5 3.927842,0.162295 5.027385,0.486842 1.106145,0.317951 2.053333,0.861094 2.841565,1.629429 0.695474,0.669005 1.212122,1.440665 1.549945,2.314981 0.337793,0.874338 0.506697,1.864579 0.506713,2.970728 -1.6e-5,1.11941 -0.16892,2.119587 -0.506713,3.000534 -0.337823,0.874331 -0.854471,1.645991 -1.549945,2.314981 -0.794856,0.76835 -1.748667,1.314804 -2.861436,1.639365 -1.112791,0.317937 -2.78196,0.476906 -5.007514,0.476906 l -4.03383,0 0,-14.833766"
       style="text-align:center;text-anchor:middle;fill:#552200;font-family:Comic Sans MS;-inkscape-font-specification:Comic Sans MS Bold"
       id="path3504" />
    <path
       d="m 35.616628,32.46079 10.323029,0 0,2.891243 -6.497845,0 0,2.762081 6.110359,0 0,2.891243 -6.110359,0 0,6.289199 -3.825184,0 0,-14.833766"
       style="text-align:center;text-anchor:middle;fill:#552200;font-family:Comic Sans MS;-inkscape-font-specification:Comic Sans MS Bold"
       id="path3506" />
  </g>
</svg>
