<svg id="Слой_1" data-name="Слой 1"
  xmlns:cc="http://creativecommons.org/ns#"
  xmlns:rdf="http://www.w3.org/1999/02/22-rdf-syntax-ns#"
  xmlns="http://www.w3.org/2000/svg" viewBox="0 0 26 26">
  <metadata id="metadata43">
    <rdf:RDF>
      <cc:Work rdf:about="">
        <cc:license rdf:resource="http://creativecommons.org/licenses/by/4.0/" />
      </cc:Work>
      <cc:License rdf:about="http://creativecommons.org/licenses/by/4.0/">
        <cc:permits rdf:resource="http://creativecommons.org/ns#Reproduction" />
        <cc:permits rdf:resource="http://creativecommons.org/ns#Distribution" />
        <cc:requires rdf:resource="http://creativecommons.org/ns#Notice" />
        <cc:requires rdf:resource="http://creativecommons.org/ns#Attribution" />
        <cc:permits rdf:resource="http://creativecommons.org/ns#DerivativeWorks" />
      </cc:License>
    </rdf:RDF>
  </metadata>
  <defs>
    <style>.cls-1{fill:#b9b9b9;}.cls-2{fill:#1a81c4;}.cls-3{fill:#545454;}.cls-4{fill:#fff;}.cls-5{fill:#e61c50;}</style>
  </defs>
  <title>plot_svg</title>
  <polygon class="cls-1" points="17 13.008 7 13.008 7 1.008 19 1.008 19 11.008 17 13.008"/>
  <polygon class="cls-2" points="17 11.008 19 11.008 17 13.008 17 11.008"/>
  <path class="cls-3" d="M2.0766,3.0042H23.9235A1.0765,1.0765,0,0,1,25,4.0807v5.847a1.0765,1.0765,0,0,1-1.0765,1.0765H2.0765A1.0765,1.0765,0,0,1,1,9.9277V4.0808A1.0766,1.0766,0,0,1,2.0766,3.0042Z"/>
  <polygon class="cls-1" points="17 19 7 19 7 7 19 7 19 17 17 19"/>
  <polygon class="cls-2" points="17 17 19 17 17 19 17 17"/>
  <rect class="cls-4" x="6" y="5.9908" width="14" height="1"/>
  <circle class="cls-5" cx="20.9033" cy="4.7663" r="0.5"/>
  <circle class="cls-2" cx="22.8304" cy="4.7663" r="0.5"/>
  <rect class="cls-3" x="3.0103" y="10.9831" width="1" height="13.0257"/>
  <rect class="cls-3" x="0.9908" y="23.991" width="5" height="1"/>
  <rect class="cls-3" x="22.0103" y="10.9831" width="1" height="13.0257"/>
  <rect class="cls-3" x="19.9908" y="23.991" width="5" height="1"/>
  <rect class="cls-2" x="2.8303" y="8.8142" width="12.7824" height="7.2027"/>
  <path class="cls-4" d="M4.76,13.7988H4.0527v-.6826H4.76Z"/>
  <path class="cls-4" d="M7.4277,12.9375a.3325.3325,0,0,0-.14-.2725,1.4055,1.4055,0,0,0-.5235-.19,2.15,2.15,0,0,1-.8574-.3418.7129.7129,0,0,1-.291-.6016.8584.8584,0,0,1,.3359-.68,1.3364,1.3364,0,0,1,.8858-.2813,1.3881,1.3881,0,0,1,.9189.2852.85.85,0,0,1,.3262.708l-.0059.0176H7.3955a.4458.4458,0,0,0-.1484-.337.5739.5739,0,0,0-.4092-.1406.589.589,0,0,0-.3916.1153.3612.3612,0,0,0-.1348.2832.32.32,0,0,0,.127.2656,1.3671,1.3671,0,0,0,.5166.1738,2.1575,2.1575,0,0,1,.8838.3477.7318.7318,0,0,1,.2881.61.833.833,0,0,1-.3526.6944,1.4969,1.4969,0,0,1-.9277.2666,1.4159,1.4159,0,0,1-.9737-.3165.8954.8954,0,0,1-.3388-.7265L5.54,12.8h.6612a.4742.4742,0,0,0,.1982.4014.7974.7974,0,0,0,.4561.1259.7287.7287,0,0,0,.4238-.1054A.3321.3321,0,0,0,7.4277,12.9375Z"/>
  <path class="cls-4" d="M9.8613,12.7266l.0528.2578h.0175l.0557-.2578.6279-2.0977h.7334l-1.122,3.17H9.61l-1.128-3.17h.7334Z"/>
  <path class="cls-4" d="M11.627,12.2578a2.0714,2.0714,0,0,1,.33-1.2217,1.0635,1.0635,0,0,1,.918-.4658,1,1,0,0,1,.498.1211,1.0635,1.0635,0,0,1,.3643.3506l.07-.4131h.59v3.17a1.1988,1.1988,0,0,1-.377.9463,1.5588,1.5588,0,0,1-1.0693.334,2.1346,2.1346,0,0,1-.4981-.0654,2.3741,2.3741,0,0,1-.4843-.1748l.1523-.56a1.7732,1.7732,0,0,0,.3877.1426,1.8933,1.8933,0,0,0,.4365.0508.8077.8077,0,0,0,.5635-.1661.66.66,0,0,0,.1787-.5078v-.3252a.9818.9818,0,0,1-.3525.2881,1.0549,1.0549,0,0,1-.4659.0987,1.0919,1.0919,0,0,1-.9121-.4249,1.7707,1.7707,0,0,1-.33-1.1162Zm.71.0615a1.24,1.24,0,0,0,.1748.6983.598.598,0,0,0,.5391.2627.7263.7263,0,0,0,.3838-.0948.7025.7025,0,0,0,.2529-.2744V11.5225a.7571.7571,0,0,0-.2559-.2705.6919.6919,0,0,0-.375-.0987.5825.5825,0,0,0-.542.3076,1.5846,1.5846,0,0,0-.1777.7969Z"/>
</svg>