<?xml version="1.0" encoding="UTF-8" standalone="no"?>
<svg xmlns:dc="http://purl.org/dc/elements/1.1/"
   xmlns:cc="http://creativecommons.org/ns#"
   xmlns:rdf="http://www.w3.org/1999/02/22-rdf-syntax-ns#"
   xmlns:svg="http://www.w3.org/2000/svg"
   xmlns="http://www.w3.org/2000/svg"
   xmlns:sodipodi="http://sodipodi.sourceforge.net/DTD/sodipodi-0.dtd"
   xmlns:inkscape="http://www.inkscape.org/namespaces/inkscape" id="Слой_1" data-name="Слой 1" viewBox="0 0 24 24" version="1.1" sodipodi:docname="plot_svg.svg" inkscape:version="1.0.1 (3bc2e813f5, 2020-09-07)">
   <sodipodi:namedview pagecolor="#ffffff" bordercolor="#666666" borderopacity="1" objecttolerance="10" gridtolerance="10" guidetolerance="10" inkscape:pageopacity="0" inkscape:pageshadow="2" inkscape:window-width="1609" inkscape:window-height="1286" id="namedview30" showgrid="true" inkscape:zoom="27.961538" inkscape:cx="3.3259971" inkscape:cy="13" inkscape:window-x="0" inkscape:window-y="37" inkscape:window-maximized="0" inkscape:document-rotation="0" inkscape:current-layer="Слой_1">
      <inkscape:grid type="xygrid" id="grid_kicad" spacingx="0.5" spacingy="0.5" color="#9999ff" opacity="0.13" empspacing="2" />
   </sodipodi:namedview>
   <metadata id="metadata43">
      <rdf:RDF>
         <cc:Work rdf:about="">
            <cc:license rdf:resource="http://creativecommons.org/licenses/by-sa/4.0/" />
            <dc:format>image/svg+xml</dc:format>
            <dc:type rdf:resource="http://purl.org/dc/dcmitype/StillImage" />
            <dc:title>add_arc</dc:title>
         </cc:Work>
         <cc:License rdf:about="http://creativecommons.org/licenses/by-sa/4.0/">
            <cc:permits rdf:resource="http://creativecommons.org/ns#Reproduction" />
            <cc:permits rdf:resource="http://creativecommons.org/ns#Distribution" />
            <cc:requires rdf:resource="http://creativecommons.org/ns#Notice" />
            <cc:requires rdf:resource="http://creativecommons.org/ns#Attribution" />
            <cc:permits rdf:resource="http://creativecommons.org/ns#DerivativeWorks" />
            <cc:requires rdf:resource="http://creativecommons.org/ns#ShareAlike" />
         </cc:License>
      </rdf:RDF>
   </metadata>
   <defs id="defs159247">
      <style id="style159245">.cls-1{fill:#b9b9b9;}.cls-2{fill:#1a81c4;}.cls-3{fill:#545454;}.cls-4{fill:#fff;}.cls-5{fill:#bf2641;}</style>
   </defs>
   <title id="title159249">plot_svg</title>
   <polygon class="cls-1" points="7,13.008 7,1.008 19,1.008 19,11.008 17,13.008 " id="polygon159251" transform="translate(-1,-1)" />
   <polygon class="cls-2" points="19,11.008 17,13.008 17,11.008 " id="polygon159253" transform="translate(-1,-1)" />
   <path class="cls-3" d="M 1.0766,2.0042 H 22.9235 A 1.0765,1.0765 0 0 1 24,3.0807 v 5.847 a 1.0765,1.0765 0 0 1 -1.0765,1.0765 H 1.0765 A 1.0765,1.0765 0 0 1 0,8.9277 V 3.0808 A 1.0766,1.0766 0 0 1 1.0766,2.0042 Z" id="path159255" />
   <polygon class="cls-1" points="7,19 7,7 19,7 19,17 17,19 " id="polygon159257" transform="translate(-1,-1)" />
   <polygon class="cls-2" points="19,17 17,19 17,17 " id="polygon159259" transform="translate(-1,-1)" />
   <rect class="cls-4" x="5" y="4.9907999" width="14" height="1" id="rect159261" />
   <circle class="cls-5" cx="19.903299" cy="3.7663002" r="0.5" id="circle159263" />
   <circle class="cls-2" cx="21.8304" cy="3.7663002" r="0.5" id="circle159265" />
   <rect class="cls-3" x="2.0102999" y="9.9830999" width="1" height="13.0257" id="rect159267" />
   <rect class="cls-3" x="-0.0091999769" y="22.990999" width="5" height="1" id="rect159269" />
   <rect class="cls-3" x="21.0103" y="9.9830999" width="1" height="13.0257" id="rect159271" />
   <rect class="cls-3" x="18.990801" y="22.990999" width="5" height="1" id="rect159273" />
   <rect class="cls-2" x="1.8303001" y="7.8142004" width="12.7824" height="7.2027001" id="rect159275" />
   <path class="cls-4" d="M 3.76,12.7988 H 3.0527 V 12.1162 H 3.76 Z" id="path159277" />
   <path class="cls-4" d="m 6.4277,11.9375 a 0.3325,0.3325 0 0 0 -0.14,-0.2725 1.4055,1.4055 0 0 0 -0.5235,-0.19 2.15,2.15 0 0 1 -0.8574,-0.3418 0.7129,0.7129 0 0 1 -0.291,-0.6016 0.8584,0.8584 0 0 1 0.3359,-0.68 1.3364,1.3364 0 0 1 0.8858,-0.2813 1.3881,1.3881 0 0 1 0.9189,0.2852 0.85,0.85 0 0 1 0.3262,0.708 L 7.0767,10.5811 H 6.3955 a 0.4458,0.4458 0 0 0 -0.1484,-0.337 0.5739,0.5739 0 0 0 -0.4092,-0.1406 0.589,0.589 0 0 0 -0.3916,0.1153 0.3612,0.3612 0 0 0 -0.1348,0.2832 0.32,0.32 0 0 0 0.127,0.2656 1.3671,1.3671 0 0 0 0.5166,0.1738 2.1575,2.1575 0 0 1 0.8838,0.3477 0.7318,0.7318 0 0 1 0.2881,0.61 A 0.833,0.833 0 0 1 6.7744,12.5935 1.4969,1.4969 0 0 1 5.8467,12.8601 1.4159,1.4159 0 0 1 4.873,12.5436 0.8954,0.8954 0 0 1 4.5342,11.8171 L 4.54,11.8 h 0.6612 a 0.4742,0.4742 0 0 0 0.1982,0.4014 0.7974,0.7974 0 0 0 0.4561,0.1259 0.7287,0.7287 0 0 0 0.4238,-0.1054 0.3321,0.3321 0 0 0 0.1484,-0.2844 z" id="path159279" />
   <path class="cls-4" d="m 8.8613,11.7266 0.0528,0.2578 H 8.9316 L 8.9873,11.7266 9.6152,9.6289 h 0.7334 l -1.122,3.17 H 8.61 l -1.128,-3.17 h 0.7334 z" id="path159281" />
   <path class="cls-4" d="m 10.627,11.2578 a 2.0714,2.0714 0 0 1 0.33,-1.2217 1.0635,1.0635 0 0 1 0.918,-0.4658 1,1 0 0 1 0.498,0.1211 1.0635,1.0635 0 0 1 0.3643,0.3506 l 0.07,-0.4131 h 0.59 v 3.17 a 1.1988,1.1988 0 0 1 -0.377,0.9463 1.5588,1.5588 0 0 1 -1.0693,0.334 2.1346,2.1346 0 0 1 -0.4981,-0.0654 2.3741,2.3741 0 0 1 -0.4843,-0.1748 l 0.1523,-0.56 a 1.7732,1.7732 0 0 0 0.3877,0.1426 1.8933,1.8933 0 0 0 0.4365,0.0508 0.8077,0.8077 0 0 0 0.5635,-0.1661 0.66,0.66 0 0 0 0.1787,-0.5078 v -0.3252 a 0.9818,0.9818 0 0 1 -0.3525,0.2881 1.0549,1.0549 0 0 1 -0.4659,0.0987 1.0919,1.0919 0 0 1 -0.9121,-0.4249 1.7707,1.7707 0 0 1 -0.33,-1.1162 z m 0.71,0.0615 a 1.24,1.24 0 0 0 0.1748,0.6983 0.598,0.598 0 0 0 0.5391,0.2627 0.7263,0.7263 0 0 0 0.3838,-0.0948 0.7025,0.7025 0 0 0 0.2529,-0.2744 v -1.3886 a 0.7571,0.7571 0 0 0 -0.2559,-0.2705 0.6919,0.6919 0 0 0 -0.375,-0.0987 0.5825,0.5825 0 0 0 -0.542,0.3076 1.5846,1.5846 0 0 0 -0.1777,0.7969 z" id="path159283" />
</svg>
