<?xml version="1.0" encoding="UTF-8" standalone="no"?>
<svg
   xmlns:dc="http://purl.org/dc/elements/1.1/"
   xmlns:cc="http://creativecommons.org/ns#"
   xmlns:rdf="http://www.w3.org/1999/02/22-rdf-syntax-ns#"
   xmlns:svg="http://www.w3.org/2000/svg"
   xmlns="http://www.w3.org/2000/svg"
   xmlns:xlink="http://www.w3.org/1999/xlink"
   xmlns:sodipodi="http://sodipodi.sourceforge.net/DTD/sodipodi-0.dtd"
   xmlns:inkscape="http://www.inkscape.org/namespaces/inkscape"
   height="48"
   width="48"
   version="1.1"
   id="svg4394"
   inkscape:version="0.48.3.1 r9886"
   sodipodi:docname="plot_ps.svg">
  <metadata
     id="metadata4565">
    <rdf:RDF>
      <cc:Work
         rdf:about="">
        <dc:format>image/svg+xml</dc:format>
        <dc:type
           rdf:resource="http://purl.org/dc/dcmitype/StillImage" />
        <dc:title></dc:title>
      </cc:Work>
    </rdf:RDF>
  </metadata>
  <sodipodi:namedview
     pagecolor="#ffffff"
     bordercolor="#666666"
     borderopacity="1"
     objecttolerance="10"
     gridtolerance="10"
     guidetolerance="10"
     inkscape:pageopacity="0"
     inkscape:pageshadow="2"
     inkscape:window-width="1600"
     inkscape:window-height="849"
     id="namedview4563"
     showgrid="false"
     inkscape:zoom="16.113227"
     inkscape:cx="24.137506"
     inkscape:cy="11.445525"
     inkscape:window-x="0"
     inkscape:window-y="29"
     inkscape:window-maximized="1"
     inkscape:current-layer="text4559" />
  <defs
     id="defs4396">
    <linearGradient
       id="aa"
       y2="20"
       gradientUnits="userSpaceOnUse"
       x2="20.125"
       gradientTransform="matrix(1 0 0 .66667 1.9997 -2.3333)"
       y1="24.438"
       x1="20.125">
      <stop
         offset="0"
         id="stop4399" />
      <stop
         stop-opacity="0"
         offset="1"
         id="stop4401" />
    </linearGradient>
    <linearGradient
       id="z"
       y2="33.469"
       gradientUnits="userSpaceOnUse"
       x2="41.82"
       gradientTransform="translate(2.4997,-9)"
       y1="33.109"
       x1="41.82">
      <stop
         stop-color="#fff"
         offset="0"
         id="stop4404" />
      <stop
         stop-color="#fff"
         stop-opacity="0"
         offset="1"
         id="stop4406" />
    </linearGradient>
    <linearGradient
       id="at"
       y2="31.168"
       gradientUnits="userSpaceOnUse"
       x2="38.743"
       gradientTransform="matrix(.88533 0 0 1.4995 7.488 -20.734)"
       y1="29.744"
       x1="38.743">
      <stop
         stop-color="#babdb6"
         offset="0"
         id="stop4409" />
      <stop
         stop-color="#fff"
         offset="1"
         id="stop4411" />
    </linearGradient>
    <linearGradient
       id="as"
       y2="29.085"
       gradientUnits="userSpaceOnUse"
       x2="40.791"
       gradientTransform="matrix(.66667 0 0 1 17 -5)"
       y1="30.003"
       x1="40.791">
      <stop
         stop-color="#789e2d"
         offset="0"
         id="stop4414" />
      <stop
         stop-color="#a7cc5c"
         offset="1"
         id="stop4416" />
    </linearGradient>
    <linearGradient
       id="ae"
       y2="20.14"
       gradientUnits="userSpaceOnUse"
       x2="17.5"
       gradientTransform="matrix(1.0039 0 0 .98413 2.9558 -8.7031)"
       y1="30.755"
       x1="17.5">
      <stop
         stop-color="#2e3436"
         offset="0"
         id="stop4419" />
      <stop
         stop-color="#babdb6"
         offset="1"
         id="stop4421" />
    </linearGradient>
    <linearGradient
       id="ad"
       y2="42.336"
       gradientUnits="userSpaceOnUse"
       x2="3.6239"
       gradientTransform="translate(2.9997,-8)"
       y1="38.1"
       x1="3.6239">
      <stop
         stop-color="#fff"
         offset="0"
         id="stop4424" />
      <stop
         stop-color="#fff"
         stop-opacity="0"
         offset="1"
         id="stop4426" />
    </linearGradient>
    <linearGradient
       id="y"
       y2="69.14"
       gradientUnits="userSpaceOnUse"
       x2="5.1265"
       gradientTransform="translate(1.9997,-10)"
       y1="25.373"
       x1="5.1265">
      <stop
         stop-color="#fff"
         offset="0"
         id="stop4429" />
      <stop
         stop-color="#fff"
         stop-opacity="0"
         offset="1"
         id="stop4431" />
    </linearGradient>
    <linearGradient
       id="ac"
       y2="41.012"
       gradientUnits="userSpaceOnUse"
       x2="3.2641"
       gradientTransform="translate(2.9997,-8)"
       y1="35.073"
       x1="3.2641">
      <stop
         stop-color="#555753"
         offset="0"
         id="stop4434" />
      <stop
         stop-color="#2e3436"
         offset="1"
         id="stop4436" />
    </linearGradient>
    <linearGradient
       id="ab"
       y2="37.148"
       gradientUnits="userSpaceOnUse"
       x2="5.057"
       gradientTransform="translate(2.9997,-8)"
       y1="40.415"
       x1="5.057">
      <stop
         stop-color="#2e3436"
         offset="0"
         id="stop4439" />
      <stop
         stop-color="#555753"
         offset="1"
         id="stop4441" />
    </linearGradient>
    <linearGradient
       id="x"
       y2="24.368"
       gradientUnits="userSpaceOnUse"
       x2=".75"
       gradientTransform="translate(1.9997,-10)"
       y1="67.989"
       x1=".75">
      <stop
         stop-color="#555753"
         offset="0"
         id="stop4444" />
      <stop
         stop-color="#888a85"
         offset="1"
         id="stop4446" />
    </linearGradient>
    <linearGradient
       id="ar"
       y2="24.249"
       gradientUnits="userSpaceOnUse"
       x2="35.5"
       gradientTransform="matrix(1 0 0 .92157 1.9997 -3.7219)"
       y1="31.19"
       x1="35.5">
      <stop
         stop-color="#d3d7cf"
         offset="0"
         id="stop4449" />
      <stop
         stop-color="#eeeeec"
         offset="1"
         id="stop4451" />
    </linearGradient>
    <radialGradient
       id="aq"
       gradientUnits="userSpaceOnUse"
       cy="38.763"
       cx="25.323"
       gradientTransform="matrix(1 0 0 .1944 0 31.228)"
       r="25.235">
      <stop
         offset="0"
         id="stop4454" />
      <stop
         stop-opacity="0"
         offset="1"
         id="stop4456" />
    </radialGradient>
    <linearGradient
       id="af"
       y2="43"
       gradientUnits="userSpaceOnUse"
       x2="15.186"
       gradientTransform="matrix(1.129,0,0,1,-2.0968,-9)"
       y1="36"
       x1="15.177">
      <stop
         stop-color="#888a85"
         offset="0"
         id="stop4459" />
      <stop
         stop-color="#555753"
         offset="1"
         id="stop4461" />
    </linearGradient>
    <linearGradient
       id="ag"
       y2="45.969"
       gradientUnits="userSpaceOnUse"
       x2="10"
       gradientTransform="matrix(1.1212 0 0 1 -.90909 -8)"
       y1="40.969"
       x1="9.9688">
      <stop
         stop-color="#eeeeec"
         offset="0"
         id="stop4464" />
      <stop
         stop-color="#babdb6"
         offset=".27381"
         id="stop4466" />
      <stop
         stop-color="#fff"
         offset=".55910"
         id="stop4468" />
      <stop
         stop-color="#eeeeec"
         offset="1"
         id="stop4470" />
    </linearGradient>
    <linearGradient
       id="ah"
       y2="40"
       gradientUnits="userSpaceOnUse"
       x2="40.375"
       gradientTransform="matrix(1.1212 0 0 1 -.90909 -8)"
       y1="45.625"
       x1="40.375">
      <stop
         stop-color="#555753"
         offset="0"
         id="stop4473" />
      <stop
         stop-color="#a1a59b"
         offset="1"
         id="stop4475" />
    </linearGradient>
    <linearGradient
       id="ai"
       y2="32.515"
       gradientUnits="userSpaceOnUse"
       x2="34.482"
       gradientTransform="matrix(1.1454,0,0,1,-1.4536,-5)"
       y1="42.002"
       x1="34.482">
      <stop
         stop-color="#eeeeec"
         offset="0"
         id="stop4478" />
      <stop
         stop-color="#fff"
         offset=".10714"
         id="stop4480" />
      <stop
         stop-color="#d3d7cf"
         offset="1"
         id="stop4482" />
    </linearGradient>
    <linearGradient
       id="aj"
       y2="35.789"
       gradientUnits="userSpaceOnUse"
       x2="41.498"
       gradientTransform="matrix(1.1454,0,0,1,-1.4536,-5)"
       y1="40.9"
       x1="41.498">
      <stop
         stop-color="#babdb6"
         offset="0"
         id="stop4485" />
      <stop
         stop-color="#888a85"
         offset="1"
         id="stop4487" />
    </linearGradient>
    <linearGradient
       id="ak"
       y2="40.048"
       gradientUnits="userSpaceOnUse"
       x2="15.312"
       gradientTransform="matrix(1.1333,0,0,1,-2.2,-8)"
       y1="31.45"
       x1="15.312">
      <stop
         offset="0"
         id="stop4490" />
      <stop
         stop-opacity="0"
         offset="1"
         id="stop4492" />
    </linearGradient>
    <linearGradient
       id="al"
       y2="42.403"
       gradientUnits="userSpaceOnUse"
       x2="27.907"
       gradientTransform="matrix(1.08 0 0 1.0039 .080008 -7.022)"
       y1="6.0832"
       x1="12.171">
      <stop
         stop-color="#fff"
         offset="0"
         id="stop4495" />
      <stop
         stop-color="#babdb6"
         offset="1"
         id="stop4497" />
    </linearGradient>
    <linearGradient
       id="am"
       y2="13.749"
       gradientUnits="userSpaceOnUse"
       x2="36.523"
       gradientTransform="matrix(1.08 0 0 1.0039 .080008 -11.038)"
       y1="24.545"
       x1="36.523">
      <stop
         stop-color="#888a85"
         offset="0"
         id="stop4500" />
      <stop
         stop-color="#888a85"
         offset="1"
         id="stop4502" />
    </linearGradient>
    <linearGradient
       id="an"
       y2="-11.027"
       gradientUnits="userSpaceOnUse"
       x2="15.438"
       gradientTransform="translate(2,-5.4972)"
       y1="20.773"
       x1="27.568">
      <stop
         stop-color="#888a85"
         offset="0"
         id="stop4505" />
      <stop
         stop-color="#888a85"
         stop-opacity="0"
         offset="1"
         id="stop4507" />
    </linearGradient>
    <linearGradient
       id="ao"
       y2="2.5"
       gradientUnits="userSpaceOnUse"
       x2="17.625"
       gradientTransform="translate(2,-5.4972)"
       y1="17.471"
       x1="21.875">
      <stop
         stop-color="#2e3436"
         offset="0"
         id="stop4510" />
      <stop
         stop-color="#888a85"
         offset="1"
         id="stop4512" />
    </linearGradient>
    <linearGradient
       id="ap"
       y2="28.82"
       gradientUnits="userSpaceOnUse"
       x2="34.825"
       gradientTransform="translate(2,-5.4972)"
       y1="6.1923"
       x1="21.567">
      <stop
         stop-color="#fff"
         offset="0"
         id="stop4515" />
      <stop
         stop-color="#fff"
         stop-opacity="0"
         offset="1"
         id="stop4517" />
    </linearGradient>
    <linearGradient
       inkscape:collect="always"
       xlink:href="#an"
       id="linearGradient4587"
       gradientUnits="userSpaceOnUse"
       gradientTransform="translate(2,-5.4972)"
       x1="27.568"
       y1="20.773"
       x2="15.438"
       y2="-11.027" />
    <linearGradient
       inkscape:collect="always"
       xlink:href="#ao"
       id="linearGradient4589"
       gradientUnits="userSpaceOnUse"
       gradientTransform="translate(2,-5.4972)"
       x1="21.875"
       y1="17.471"
       x2="17.625"
       y2="2.5" />
    <linearGradient
       inkscape:collect="always"
       xlink:href="#ap"
       id="linearGradient4591"
       gradientUnits="userSpaceOnUse"
       gradientTransform="translate(2,-5.4972)"
       x1="21.567"
       y1="6.1923"
       x2="34.825"
       y2="28.82" />
    <linearGradient
       inkscape:collect="always"
       xlink:href="#ar"
       id="linearGradient4593"
       gradientUnits="userSpaceOnUse"
       gradientTransform="matrix(1,0,0,0.92157,1.9997,-3.7219)"
       x1="35.5"
       y1="31.19"
       x2="35.5"
       y2="24.249" />
    <linearGradient
       inkscape:collect="always"
       xlink:href="#x"
       id="linearGradient4595"
       gradientUnits="userSpaceOnUse"
       gradientTransform="translate(1.9997,-10)"
       x1=".75"
       y1="67.989"
       x2=".75"
       y2="24.368" />
    <linearGradient
       inkscape:collect="always"
       xlink:href="#ab"
       id="linearGradient4597"
       gradientUnits="userSpaceOnUse"
       gradientTransform="translate(2.9997,-8)"
       x1="5.057"
       y1="40.415"
       x2="5.057"
       y2="37.148" />
    <linearGradient
       inkscape:collect="always"
       xlink:href="#ac"
       id="linearGradient4599"
       gradientUnits="userSpaceOnUse"
       gradientTransform="translate(2.9997,-8)"
       x1="3.2641"
       y1="35.073"
       x2="3.2641"
       y2="41.012" />
    <linearGradient
       inkscape:collect="always"
       xlink:href="#y"
       id="linearGradient4601"
       gradientUnits="userSpaceOnUse"
       gradientTransform="translate(1.9997,-10)"
       x1="5.1265"
       y1="25.373"
       x2="5.1265"
       y2="69.14" />
    <linearGradient
       inkscape:collect="always"
       xlink:href="#ad"
       id="linearGradient4603"
       gradientUnits="userSpaceOnUse"
       gradientTransform="translate(2.9997,-8)"
       x1="3.6239"
       y1="38.1"
       x2="3.6239"
       y2="42.336" />
    <linearGradient
       inkscape:collect="always"
       xlink:href="#ae"
       id="linearGradient4605"
       gradientUnits="userSpaceOnUse"
       gradientTransform="matrix(1.0039,0,0,0.98413,2.9558,-8.7031)"
       x1="17.5"
       y1="30.755"
       x2="17.5"
       y2="20.14" />
    <linearGradient
       inkscape:collect="always"
       xlink:href="#al"
       id="linearGradient4607"
       gradientUnits="userSpaceOnUse"
       gradientTransform="matrix(1.08,0,0,1.0039,0.080008,-7.022)"
       x1="12.171"
       y1="6.0832"
       x2="27.907"
       y2="42.403" />
    <linearGradient
       inkscape:collect="always"
       xlink:href="#am"
       id="linearGradient4609"
       gradientUnits="userSpaceOnUse"
       gradientTransform="matrix(1.08,0,0,1.0039,0.080008,-11.038)"
       x1="36.523"
       y1="24.545"
       x2="36.523"
       y2="13.749" />
    <linearGradient
       inkscape:collect="always"
       xlink:href="#as"
       id="linearGradient4611"
       gradientUnits="userSpaceOnUse"
       gradientTransform="matrix(0.66667,0,0,1,17,-5)"
       x1="40.791"
       y1="30.003"
       x2="40.791"
       y2="29.085" />
    <linearGradient
       inkscape:collect="always"
       xlink:href="#at"
       id="linearGradient4613"
       gradientUnits="userSpaceOnUse"
       gradientTransform="matrix(0.88533,0,0,1.4995,7.488,-20.734)"
       x1="38.743"
       y1="29.744"
       x2="38.743"
       y2="31.168" />
    <linearGradient
       inkscape:collect="always"
       xlink:href="#z"
       id="linearGradient4615"
       gradientUnits="userSpaceOnUse"
       gradientTransform="translate(2.4997,-9)"
       x1="41.82"
       y1="33.109"
       x2="41.82"
       y2="33.469" />
    <linearGradient
       inkscape:collect="always"
       xlink:href="#aa"
       id="linearGradient4617"
       gradientUnits="userSpaceOnUse"
       gradientTransform="matrix(1,0,0,0.66667,1.9997,-2.3333)"
       x1="20.125"
       y1="24.438"
       x2="20.125"
       y2="20" />
    <linearGradient
       inkscape:collect="always"
       xlink:href="#af"
       id="linearGradient4619"
       gradientUnits="userSpaceOnUse"
       gradientTransform="matrix(1.129,0,0,1,-2.0968,-9)"
       x1="15.177"
       y1="36"
       x2="15.186"
       y2="43" />
    <linearGradient
       inkscape:collect="always"
       xlink:href="#ag"
       id="linearGradient4621"
       gradientUnits="userSpaceOnUse"
       gradientTransform="matrix(1.1212,0,0,1,-0.90909,-8)"
       x1="9.9688"
       y1="40.969"
       x2="10"
       y2="45.969" />
    <linearGradient
       inkscape:collect="always"
       xlink:href="#ah"
       id="linearGradient4623"
       gradientUnits="userSpaceOnUse"
       gradientTransform="matrix(1.1212,0,0,1,-0.90909,-8)"
       x1="40.375"
       y1="45.625"
       x2="40.375"
       y2="40" />
    <linearGradient
       inkscape:collect="always"
       xlink:href="#ai"
       id="linearGradient4625"
       gradientUnits="userSpaceOnUse"
       gradientTransform="matrix(1.1454,0,0,1,-1.4536,-5)"
       x1="34.482"
       y1="42.002"
       x2="34.482"
       y2="32.515" />
    <linearGradient
       inkscape:collect="always"
       xlink:href="#aj"
       id="linearGradient4627"
       gradientUnits="userSpaceOnUse"
       gradientTransform="matrix(1.1454,0,0,1,-1.4536,-5)"
       x1="41.498"
       y1="40.9"
       x2="41.498"
       y2="35.789" />
    <linearGradient
       inkscape:collect="always"
       xlink:href="#ak"
       id="linearGradient4629"
       gradientUnits="userSpaceOnUse"
       gradientTransform="matrix(1.1333,0,0,1,-2.2,-8)"
       x1="15.312"
       y1="31.45"
       x2="15.312"
       y2="40.048" />
  </defs>
  <g
     id="g4567"
     transform="matrix(1,0,0,0.92350482,-1.6194332,2.9450643)">
    <path
       id="path4519"
       d="m 26,-2.5 c -2.7062,0 -5.5,2 -5.5,2 -0.56888,0 -1,3.984 -1,5 v 12 h 13 v -12 c 0,-1.016 -0.43112,-5 -1,-5 0,0 -2.7938,-2 -5.5,-2 z m 0,6 c 0.828,0 1.5,-0.536 1.5,2.5 0,3.036 -0.6395,7.5028 -1.4675,7.5028 -0.828,0 -1.532,-4.467 -1.532,-7.503 0,-3.036 0.672,-2.5 1.5,-2.5 z"
       style="opacity:0.8;fill:url(#linearGradient4587);fill-rule:evenodd;stroke:url(#linearGradient4589);stroke-linecap:square"
       inkscape:connector-curvature="0" />
    <path
       id="path4521"
       d="m 26,-1.5 c -2.2158,0 -4.7813,1.8153 -4.7813,1.8153 -0.0014,0.00322 -0.02974,-0.00349 -0.03125,0 -0.01757,0.040692 -0.0085,0.055839 -0.03125,0.125 -0.095,0.28845 -0.192,0.7665 -0.281,1.2812 -0.177,1.0295 -0.375,2.4215 -0.375,2.7785 l 0.09374,11.159 h 10.875 L 31.49994,4.5 c 0,-0.35697 -0.13519,-1.749 -0.31251,-2.7785 -0.088,-0.5147 -0.186,-0.99275 -0.281,-1.2812 -0.023,-0.06916 -0.014,-0.08431 -0.031,-0.125 -0.006,-0.01279 -0.027,-0.0222 -0.031,-0.03125 0,0 -2.628,-1.784 -4.844,-1.784 z"
       style="opacity:0.7;fill:none;stroke:url(#linearGradient4591);stroke-linecap:square;stroke-linejoin:round"
       inkscape:connector-curvature="0" />
    <path
       id="path4525"
       d="m 8.9997,11.5 -2.25,2.7488 c -2.1506,2.6273 -3.25,5.0686 -3.25,8.7549 v 5.496 h 45 v -5.4963 c 0,-3.6863 -1.0994,-6.1276 -3.25,-8.7549 l -2.25,-2.749 h -34 z"
       style="fill:url(#linearGradient4593);stroke:url(#linearGradient4595);stroke-linecap:square;stroke-linejoin:round"
       inkscape:connector-curvature="0" />
    <path
       id="path4527"
       d="m 4.4997,28.5 v 2.9062 c 0,1.1517 0.942,2.0938 2.0937,2.0938 h 38.812 c 1.1517,0 2.0938,-0.942 2.0938,-2.0938 v -2.906 h -43 z"
       style="fill:url(#linearGradient4597);stroke:url(#linearGradient4599);stroke-linecap:round;stroke-linejoin:round;enable-background:new"
       inkscape:connector-curvature="0" />
    <path
       id="path4529"
       d="M 9.5116,12.562 7.5994,14.851 C 5.564,17.288 4.4997,19.337 4.4997,22.708 V 27.5 h 43 v -4.792 c 0,-3.3701 -1.0721,-5.4135 -3.0997,-7.8562 l -1.9,-2.29 H 9.512 z"
       style="fill:none;stroke:url(#linearGradient4601);stroke-linecap:square"
       inkscape:connector-curvature="0" />
    <path
       id="path4531"
       d="m 46.5,29.5 v 2 c 0,0.51882 -0.48118,1 -1,1 h -39 c -0.51882,0 -1,-0.48118 -1,-1 v -2 h 41 z"
       style="opacity:0.07999998;fill:none;stroke:url(#linearGradient4603);stroke-linecap:round;enable-background:new"
       inkscape:connector-curvature="0" />
    <rect
       id="rect4533"
       x="11.5"
       y="12.5"
       width="29"
       height="10"
       ry="0.5"
       rx="0.50781"
       style="fill:url(#linearGradient4605);stroke:#2e3436;stroke-width:0.99978;stroke-linecap:round;stroke-linejoin:round;enable-background:new" />
    <path
       id="path4535"
       d="m 14.12,6.4995 h 23.76 c 0.89748,0 1.62,0.67161 1.62,1.5059 v 6.5566 l -27,-1.004 V 8.0053 c 0,-0.83425 0.72252,-1.5059 1.62,-1.5059 z"
       style="fill:url(#linearGradient4607);stroke:url(#linearGradient4609);stroke-linecap:square;stroke-linejoin:round"
       inkscape:connector-curvature="0" />
    <rect
       id="rect4537"
       x="13.5"
       y="7.4994998"
       width="24.999001"
       height="5.9983001"
       ry="0.53125"
       rx="0.62364"
       style="fill:none;stroke:#ffffff;stroke-linecap:square;stroke-linejoin:round" />
    <rect
       id="rect4539"
       x="43"
       y="23.5"
       width="3"
       height="2"
       ry="1"
       rx="1"
       style="fill:url(#linearGradient4611);stroke:url(#linearGradient4613);stroke-linecap:square" />
    <rect
       id="rect4541"
       x="43.734001"
       y="24.108999"
       width="1.5469"
       height="0.35936999"
       ry="0.17969"
       rx="0.51561999"
       style="fill:url(#linearGradient4615)" />
    <rect
       id="rect4543"
       x="12"
       y="11"
       width="28"
       height="2"
       ry="0"
       rx="0"
       style="opacity:0.15;fill:url(#linearGradient4617);fill-rule:evenodd" />
    <path
       id="path4545"
       d="m 12.5,13.5 h 27"
       style="fill:#888a85;fill-opacity:0.75;fill-rule:evenodd;stroke:#2e3436;stroke-width:0.99993998;stroke-linecap:square;enable-background:new"
       inkscape:connector-curvature="0" />
    <path
       id="path4547"
       d="m 11.194,27.5 h 29.612 c 0.96368,0 1.6935,0.63554 1.6935,1.2996 v 4.7 l -33,9e-6 v -4.7004 c 0,-0.74044 0.77366,-1.2996 1.6935,-1.2996 z"
       style="fill:#6a6f64;stroke:url(#linearGradient4619);stroke-linecap:square"
       inkscape:connector-curvature="0" />
    <path
       id="path4549"
       d="m 10.303,32.5 h 31.394 c 1.6468,0 1.1212,2 1.1212,2 l 1.682,2.5 c 0,1.385 -1.2502,1.5 -2.803,1.5 H 10.3032 C 8.7508,38.5 7.5006,38.385 7.5006,37 l 1.6818,-2.5 c 0,0 -0.56061,-2 1.1212,-2 z"
       style="fill:url(#linearGradient4621);stroke:url(#linearGradient4623);stroke-linecap:round;stroke-linejoin:round"
       inkscape:connector-curvature="0" />
    <path
       id="path4551"
       d="m 40.352,28 c 0,5 1.718,8.5 1.718,8.5 H 10 c 0,0 1.718,-3.5 1.718,-8.5"
       style="fill:url(#linearGradient4625);stroke:url(#linearGradient4627);stroke-linejoin:round"
       inkscape:connector-curvature="0" />
    <path
       id="path4553"
       d="m 39.34,28 c -0.03625,4 1.16,7.5 1.16,7.5 h -29 c 0,0 1.16,-3.5 1.16,-7.5"
       inkscape:connector-curvature="0"
       style="fill:none;stroke:#ffffff" />
    <path
       id="path4555"
       d="M 11.133,28 H 40.866 C 41.801,28 42,28.447 42,29 v 4 H 10 v -4 c 0,-0.61703 0.24178,-1 1.1333,-1 z"
       style="opacity:0.50588002;fill:url(#linearGradient4629)"
       inkscape:connector-curvature="0" />
  </g>
  <rect
     height="14.271458"
     width="32"
     y="31.878544"
     x="9"
     id="rect4557"
     style="fill:#ffffff;fill-rule:evenodd" />
  <g
     transform="scale(1.1440335,0.87410029)"
     style="font-size:48.04919434px;line-height:125%;letter-spacing:0px;word-spacing:0px;fill:#000000;font-family:Sans"
     id="text4559">
    <path
       d="m 6.9381428,37.494441 7.2233052,0 c 2.147764,1.7e-5 3.794389,0.478556 4.939882,1.435618 1.153001,0.949557 1.729508,2.306045 1.729524,4.069468 -1.6e-5,1.770982 -0.576523,3.135006 -1.729524,4.092076 -1.145493,0.949549 -2.792118,1.42432 -4.939882,1.424314 l -2.871235,0 0,5.855512 -4.3520702,0 0,-16.876988 m 4.3520702,3.153838 0,4.713801 2.407768,0 c 0.844028,9e-6 1.495896,-0.203465 1.955606,-0.610421 0.459688,-0.414472 0.689537,-0.998516 0.689548,-1.752132 -1.1e-5,-0.753593 -0.22986,-1.333868 -0.689548,-1.740828 -0.45971,-0.406933 -1.111578,-0.610406 -1.955606,-0.61042 l -2.407768,0"
       style="font-size:23.15075111px;font-style:normal;font-variant:normal;font-weight:bold;font-stretch:normal;text-align:center;text-anchor:middle;fill:#552200;font-family:Comic Sans MS;-inkscape-font-specification:Comic Sans MS Bold"
       id="path3528" />
    <path
       d="m 35.639195,38.025733 0,3.572089 c -0.926947,-0.41447 -1.831272,-0.727216 -2.712978,-0.938239 -0.881729,-0.210995 -1.714462,-0.3165 -2.498202,-0.316514 -1.039982,1.4e-5 -1.808659,0.143199 -2.306031,0.429555 -0.497386,0.286383 -0.746075,0.73101 -0.74607,1.333881 -5e-6,0.452175 0.165788,0.806369 0.49738,1.062583 0.339116,0.248701 0.949535,0.463478 1.83126,0.644333 l 1.853869,0.373034 c 1.876465,0.376813 3.210345,0.949552 4.001644,1.71822 0.791271,0.768685 1.186913,1.861412 1.186928,3.278183 -1.5e-5,1.861408 -0.553914,3.24804 -1.6617,4.1599 -1.100275,0.904327 -2.784581,1.356489 -5.052922,1.35649 -1.070127,-10e-7 -2.144013,-0.101737 -3.221662,-0.30521 -1.07766,-0.203474 -2.155314,-0.504915 -3.232967,-0.904327 l 0,-3.673825 c 1.077653,0.572744 2.117627,1.006067 3.119926,1.299969 1.009825,0.286373 1.981975,0.429558 2.916452,0.429555 0.949534,3e-6 1.676762,-0.158254 2.181687,-0.474771 0.504905,-0.316511 0.757362,-0.768673 0.757373,-1.35649 -1.1e-5,-0.527518 -0.17334,-0.934464 -0.519988,-1.22084 -0.339132,-0.286364 -1.021144,-0.542589 -2.046038,-0.768677 l -1.684307,-0.373035 c -1.688081,-0.361723 -2.923992,-0.93823 -3.707738,-1.729524 -0.776215,-0.791276 -1.164321,-1.857626 -1.16432,-3.199054 -1e-6,-1.680526 0.542594,-2.972957 1.627788,-3.877298 1.085187,-0.90431 2.645148,-1.356472 4.679888,-1.35649 0.926925,1.8e-5 1.880235,0.07161 2.859931,0.214778 0.979675,0.135666 1.993273,0.342907 3.040797,0.621724"
       style="font-size:23.15075111px;font-style:normal;font-variant:normal;font-weight:bold;font-stretch:normal;text-align:center;text-anchor:middle;fill:#552200;font-family:Comic Sans MS;-inkscape-font-specification:Comic Sans MS Bold"
       id="path3530" />
  </g>
</svg>
