<?xml version="1.0" encoding="UTF-8" standalone="no"?>
<svg
   xmlns:dc="http://purl.org/dc/elements/1.1/"
   xmlns:cc="http://creativecommons.org/ns#"
   xmlns:rdf="http://www.w3.org/1999/02/22-rdf-syntax-ns#"
   xmlns:svg="http://www.w3.org/2000/svg"
   xmlns="http://www.w3.org/2000/svg"
   xmlns:sodipodi="http://sodipodi.sourceforge.net/DTD/sodipodi-0.dtd"
   xmlns:inkscape="http://www.inkscape.org/namespaces/inkscape"
   version="1.1"
   id="Слой_1"
   inkscape:export-filename="/Users/jeff/kicad_dev/kicad/bitmaps_png/png_26/plot.png"
   inkscape:export-xdpi="96"
   inkscape:export-ydpi="96"
   inkscape:version="1.0.1 (c497b03c, 2020-09-10)"
   sodipodi:docname="plot_svg.svg"
   x="0px"
   y="0px"
   viewBox="0 0 24 24"
   style="enable-background:new 0 0 24 24;"
   xml:space="preserve"><metadata
   id="metadata851"><rdf:RDF><cc:Work
       rdf:about=""><dc:format>image/svg+xml</dc:format><dc:type
         rdf:resource="http://purl.org/dc/dcmitype/StillImage" /><dc:title>plot</dc:title><cc:license
         rdf:resource="http://creativecommons.org/licenses/by-sa/4.0/" /></cc:Work><cc:License
       rdf:about="http://creativecommons.org/licenses/by-sa/4.0/"><cc:permits
         rdf:resource="http://creativecommons.org/ns#Reproduction" /><cc:permits
         rdf:resource="http://creativecommons.org/ns#Distribution" /><cc:requires
         rdf:resource="http://creativecommons.org/ns#Notice" /><cc:requires
         rdf:resource="http://creativecommons.org/ns#Attribution" /><cc:permits
         rdf:resource="http://creativecommons.org/ns#DerivativeWorks" /><cc:requires
         rdf:resource="http://creativecommons.org/ns#ShareAlike" /></cc:License></rdf:RDF></metadata><defs
   id="defs849" />
<style
   type="text/css"
   id="style833">
	.st0{fill:#F3F3F3;stroke:#545454;}
	.st1{fill:#1A81C4;}
	.st2{fill:#727272;}
	.st3{fill:#545454;}
</style>
<sodipodi:namedview
   bordercolor="#666666"
   borderopacity="1"
   gridtolerance="10"
   guidetolerance="10"
   id="namedview30"
   inkscape:current-layer="Слой_1"
   inkscape:cx="6.3986701"
   inkscape:cy="12.150375"
   inkscape:document-rotation="0"
   inkscape:pageopacity="0"
   inkscape:pageshadow="2"
   inkscape:window-height="995"
   inkscape:window-maximized="1"
   inkscape:window-width="1920"
   inkscape:window-x="1280"
   inkscape:window-y="23"
   inkscape:zoom="29.856345"
   objecttolerance="10"
   pagecolor="#ffffff"
   showgrid="true">
	<inkscape:grid
   color="#9999ff"
   empspacing="2"
   id="grid_kicad"
   opacity="0.13"
   spacingx="0.5"
   spacingy="0.5"
   type="xygrid">
		</inkscape:grid>
</sodipodi:namedview>
<title
   id="title26467">plot</title>
<path
   id="polygon26469"
   sodipodi:nodetypes="cccccc"
   class="st0"
   d="M6.5,1.5h11V12L16,14l-9.5,0V1.5z" />
<polygon
   id="polygon26471"
   class="st1"
   points="18,10 16,12 16,10 " />
<path
   id="path26473"
   inkscape:connector-curvature="0"
   class="st2"
   d="M1.1,4h21.8C23.5,4,24,4.5,24,5.1v5.8c0,0.6-0.5,1.1-1.1,1.1  h0H1.1C0.5,12,0,11.5,0,10.9V5.1C0,4.5,0.5,4,1.1,4L1.1,4z"
   style="fill:#545454;fill-opacity:1" />
<path
   id="polygon26475"
   sodipodi:nodetypes="cccccc"
   class="st0"
   d="M6.5,8.5c4,0,0.3,0,11,0v8l-2,2h-9V8.5z" />
<polygon
   id="polygon26477"
   class="st3"
   points="15,18.6 15,16 17.5,16 "
   style="fill:#545454;fill-opacity:1"
   transform="matrix(1,0,0,0.96153846,0,0.61538462)" />
<rect
   id="rect26479"
   x="2"
   y="8"
   class="st3"
   width="20"
   height="1"
   style="fill:#727272;fill-opacity:1" />
<rect
   id="rect26485"
   x="2"
   y="12"
   class="st3"
   width="1"
   height="10"
   style="fill:#545454;fill-opacity:1" />
<rect
   id="rect26487"
   x="0"
   y="22"
   class="st3"
   width="5"
   height="1"
   style="fill:#545454;fill-opacity:1" />
<rect
   id="rect26489"
   x="21"
   y="12"
   class="st3"
   width="1"
   height="10"
   style="fill:#545454;fill-opacity:1" />
<rect
   id="rect26491"
   x="19"
   y="22"
   class="st3"
   width="5"
   height="1"
   style="fill:#545454;fill-opacity:1" />
<rect
   class="cls-2"
   x="2"
   y="8"
   width="13"
   height="7"
   id="rect159275"
   style="fill:#1a81c4;fill-opacity:1" /><path
   class="cls-4"
   d="M 3.76,12.7988 H 3.0527 V 12.1162 H 3.76 Z"
   id="path159277"
   style="fill:#ffffff;fill-opacity:1" /><path
   class="cls-4"
   d="m 6.4277,11.9375 a 0.3325,0.3325 0 0 0 -0.14,-0.2725 1.4055,1.4055 0 0 0 -0.5235,-0.19 2.15,2.15 0 0 1 -0.8574,-0.3418 0.7129,0.7129 0 0 1 -0.291,-0.6016 0.8584,0.8584 0 0 1 0.3359,-0.68 1.3364,1.3364 0 0 1 0.8858,-0.2813 1.3881,1.3881 0 0 1 0.9189,0.2852 0.85,0.85 0 0 1 0.3262,0.708 L 7.0767,10.5811 H 6.3955 a 0.4458,0.4458 0 0 0 -0.1484,-0.337 0.5739,0.5739 0 0 0 -0.4092,-0.1406 0.589,0.589 0 0 0 -0.3916,0.1153 0.3612,0.3612 0 0 0 -0.1348,0.2832 0.32,0.32 0 0 0 0.127,0.2656 1.3671,1.3671 0 0 0 0.5166,0.1738 2.1575,2.1575 0 0 1 0.8838,0.3477 0.7318,0.7318 0 0 1 0.2881,0.61 A 0.833,0.833 0 0 1 6.7744,12.5935 1.4969,1.4969 0 0 1 5.8467,12.8601 1.4159,1.4159 0 0 1 4.873,12.5436 0.8954,0.8954 0 0 1 4.5342,11.8171 L 4.54,11.8 h 0.6612 a 0.4742,0.4742 0 0 0 0.1982,0.4014 0.7974,0.7974 0 0 0 0.4561,0.1259 0.7287,0.7287 0 0 0 0.4238,-0.1054 0.3321,0.3321 0 0 0 0.1484,-0.2844 z"
   id="path159279"
   style="fill:#ffffff;fill-opacity:1" /><path
   class="cls-4"
   d="m 8.8613,11.7266 0.0528,0.2578 H 8.9316 L 8.9873,11.7266 9.6152,9.6289 h 0.7334 l -1.122,3.17 H 8.61 l -1.128,-3.17 h 0.7334 z"
   id="path159281"
   style="fill:#ffffff;fill-opacity:1" /><path
   class="cls-4"
   d="m 10.627,11.2578 a 2.0714,2.0714 0 0 1 0.33,-1.2217 1.0635,1.0635 0 0 1 0.918,-0.4658 1,1 0 0 1 0.498,0.1211 1.0635,1.0635 0 0 1 0.3643,0.3506 l 0.07,-0.4131 h 0.59 v 3.17 a 1.1988,1.1988 0 0 1 -0.377,0.9463 1.5588,1.5588 0 0 1 -1.0693,0.334 2.1346,2.1346 0 0 1 -0.4981,-0.0654 2.3741,2.3741 0 0 1 -0.4843,-0.1748 l 0.1523,-0.56 a 1.7732,1.7732 0 0 0 0.3877,0.1426 1.8933,1.8933 0 0 0 0.4365,0.0508 0.8077,0.8077 0 0 0 0.5635,-0.1661 0.66,0.66 0 0 0 0.1787,-0.5078 v -0.3252 a 0.9818,0.9818 0 0 1 -0.3525,0.2881 1.0549,1.0549 0 0 1 -0.4659,0.0987 1.0919,1.0919 0 0 1 -0.9121,-0.4249 1.7707,1.7707 0 0 1 -0.33,-1.1162 z m 0.71,0.0615 a 1.24,1.24 0 0 0 0.1748,0.6983 0.598,0.598 0 0 0 0.5391,0.2627 0.7263,0.7263 0 0 0 0.3838,-0.0948 0.7025,0.7025 0 0 0 0.2529,-0.2744 v -1.3886 a 0.7571,0.7571 0 0 0 -0.2559,-0.2705 0.6919,0.6919 0 0 0 -0.375,-0.0987 0.5825,0.5825 0 0 0 -0.542,0.3076 1.5846,1.5846 0 0 0 -0.1777,0.7969 z"
   id="path159283"
   style="fill:#ffffff;fill-opacity:1" /></svg>
