<?xml version="1.0" encoding="UTF-8" standalone="no"?>
<svg
   xmlns:dc="http://purl.org/dc/elements/1.1/"
   xmlns:cc="http://creativecommons.org/ns#"
   xmlns:rdf="http://www.w3.org/1999/02/22-rdf-syntax-ns#"
   xmlns:svg="http://www.w3.org/2000/svg"
   xmlns="http://www.w3.org/2000/svg"
   xmlns:sodipodi="http://sodipodi.sourceforge.net/DTD/sodipodi-0.dtd"
   xmlns:inkscape="http://www.inkscape.org/namespaces/inkscape"
   height="48"
   width="48"
   version="1.1"
   id="svg2"
   inkscape:version="0.48.1 "
   sodipodi:docname="plot_ps.svg">
  <metadata
     id="metadata173">
    <rdf:RDF>
      <cc:Work
         rdf:about="">
        <dc:format>image/svg+xml</dc:format>
        <dc:type
           rdf:resource="http://purl.org/dc/dcmitype/StillImage" />
        <dc:title></dc:title>
      </cc:Work>
    </rdf:RDF>
  </metadata>
  <sodipodi:namedview
     pagecolor="#ffffff"
     bordercolor="#666666"
     borderopacity="1"
     objecttolerance="10"
     gridtolerance="10"
     guidetolerance="10"
     inkscape:pageopacity="0"
     inkscape:pageshadow="2"
     inkscape:window-width="1280"
     inkscape:window-height="968"
     id="namedview171"
     showgrid="false"
     inkscape:zoom="15.4375"
     inkscape:cx="24"
     inkscape:cy="24"
     inkscape:window-x="-4"
     inkscape:window-y="-4"
     inkscape:window-maximized="1"
     inkscape:current-layer="svg2" />
  <defs
     id="defs4">
    <linearGradient
       id="aa"
       y2="20"
       gradientUnits="userSpaceOnUse"
       x2="20.125"
       gradientTransform="matrix(1 0 0 .66667 1.9997 -2.3333)"
       y1="24.438"
       x1="20.125">
      <stop
         offset="0"
         id="stop7" />
      <stop
         stop-opacity="0"
         offset="1"
         id="stop9" />
    </linearGradient>
    <linearGradient
       id="z"
       y2="33.469"
       gradientUnits="userSpaceOnUse"
       x2="41.82"
       gradientTransform="translate(2.4997,-9)"
       y1="33.109"
       x1="41.82">
      <stop
         stop-color="#fff"
         offset="0"
         id="stop12" />
      <stop
         stop-color="#fff"
         stop-opacity="0"
         offset="1"
         id="stop14" />
    </linearGradient>
    <linearGradient
       id="at"
       y2="31.168"
       gradientUnits="userSpaceOnUse"
       x2="38.743"
       gradientTransform="matrix(.88533 0 0 1.4995 7.488 -20.734)"
       y1="29.744"
       x1="38.743">
      <stop
         stop-color="#babdb6"
         offset="0"
         id="stop17" />
      <stop
         stop-color="#fff"
         offset="1"
         id="stop19" />
    </linearGradient>
    <linearGradient
       id="as"
       y2="29.085"
       gradientUnits="userSpaceOnUse"
       x2="40.791"
       gradientTransform="matrix(.66667 0 0 1 17 -5)"
       y1="30.003"
       x1="40.791">
      <stop
         stop-color="#789e2d"
         offset="0"
         id="stop22" />
      <stop
         stop-color="#a7cc5c"
         offset="1"
         id="stop24" />
    </linearGradient>
    <linearGradient
       id="ae"
       y2="20.14"
       gradientUnits="userSpaceOnUse"
       x2="17.5"
       gradientTransform="matrix(1.0039 0 0 .98413 2.9558 -8.7031)"
       y1="30.755"
       x1="17.5">
      <stop
         stop-color="#2e3436"
         offset="0"
         id="stop27" />
      <stop
         stop-color="#babdb6"
         offset="1"
         id="stop29" />
    </linearGradient>
    <linearGradient
       id="ad"
       y2="42.336"
       gradientUnits="userSpaceOnUse"
       x2="3.6239"
       gradientTransform="translate(2.9997,-8)"
       y1="38.1"
       x1="3.6239">
      <stop
         stop-color="#fff"
         offset="0"
         id="stop32" />
      <stop
         stop-color="#fff"
         stop-opacity="0"
         offset="1"
         id="stop34" />
    </linearGradient>
    <linearGradient
       id="y"
       y2="69.14"
       gradientUnits="userSpaceOnUse"
       x2="5.1265"
       gradientTransform="translate(1.9997,-10)"
       y1="25.373"
       x1="5.1265">
      <stop
         stop-color="#fff"
         offset="0"
         id="stop37" />
      <stop
         stop-color="#fff"
         stop-opacity="0"
         offset="1"
         id="stop39" />
    </linearGradient>
    <linearGradient
       id="ac"
       y2="41.012"
       gradientUnits="userSpaceOnUse"
       x2="3.2641"
       gradientTransform="translate(2.9997,-8)"
       y1="35.073"
       x1="3.2641">
      <stop
         stop-color="#555753"
         offset="0"
         id="stop42" />
      <stop
         stop-color="#2e3436"
         offset="1"
         id="stop44" />
    </linearGradient>
    <linearGradient
       id="ab"
       y2="37.148"
       gradientUnits="userSpaceOnUse"
       x2="5.057"
       gradientTransform="translate(2.9997,-8)"
       y1="40.415"
       x1="5.057">
      <stop
         stop-color="#2e3436"
         offset="0"
         id="stop47" />
      <stop
         stop-color="#555753"
         offset="1"
         id="stop49" />
    </linearGradient>
    <linearGradient
       id="x"
       y2="24.368"
       gradientUnits="userSpaceOnUse"
       x2=".75"
       gradientTransform="translate(1.9997,-10)"
       y1="67.989"
       x1=".75">
      <stop
         stop-color="#555753"
         offset="0"
         id="stop52" />
      <stop
         stop-color="#888a85"
         offset="1"
         id="stop54" />
    </linearGradient>
    <linearGradient
       id="ar"
       y2="24.249"
       gradientUnits="userSpaceOnUse"
       x2="35.5"
       gradientTransform="matrix(1 0 0 .92157 1.9997 -3.7219)"
       y1="31.19"
       x1="35.5">
      <stop
         stop-color="#d3d7cf"
         offset="0"
         id="stop57" />
      <stop
         stop-color="#eeeeec"
         offset="1"
         id="stop59" />
    </linearGradient>
    <radialGradient
       id="aq"
       gradientUnits="userSpaceOnUse"
       cy="38.763"
       cx="25.323"
       gradientTransform="matrix(1 0 0 .1944 0 31.228)"
       r="25.235">
      <stop
         offset="0"
         id="stop62" />
      <stop
         stop-opacity="0"
         offset="1"
         id="stop64" />
    </radialGradient>
    <linearGradient
       id="af"
       y2="43"
       gradientUnits="userSpaceOnUse"
       x2="15.186"
       gradientTransform="matrix(1.129,0,0,1,-2.0968,-9)"
       y1="36"
       x1="15.177">
      <stop
         stop-color="#888a85"
         offset="0"
         id="stop67" />
      <stop
         stop-color="#555753"
         offset="1"
         id="stop69" />
    </linearGradient>
    <linearGradient
       id="ag"
       y2="45.969"
       gradientUnits="userSpaceOnUse"
       x2="10"
       gradientTransform="matrix(1.1212 0 0 1 -.90909 -8)"
       y1="40.969"
       x1="9.9688">
      <stop
         stop-color="#eeeeec"
         offset="0"
         id="stop72" />
      <stop
         stop-color="#babdb6"
         offset=".27381"
         id="stop74" />
      <stop
         stop-color="#fff"
         offset=".55910"
         id="stop76" />
      <stop
         stop-color="#eeeeec"
         offset="1"
         id="stop78" />
    </linearGradient>
    <linearGradient
       id="ah"
       y2="40"
       gradientUnits="userSpaceOnUse"
       x2="40.375"
       gradientTransform="matrix(1.1212 0 0 1 -.90909 -8)"
       y1="45.625"
       x1="40.375">
      <stop
         stop-color="#555753"
         offset="0"
         id="stop81" />
      <stop
         stop-color="#a1a59b"
         offset="1"
         id="stop83" />
    </linearGradient>
    <linearGradient
       id="ai"
       y2="32.515"
       gradientUnits="userSpaceOnUse"
       x2="34.482"
       gradientTransform="matrix(1.1454,0,0,1,-1.4536,-5)"
       y1="42.002"
       x1="34.482">
      <stop
         stop-color="#eeeeec"
         offset="0"
         id="stop86" />
      <stop
         stop-color="#fff"
         offset=".10714"
         id="stop88" />
      <stop
         stop-color="#d3d7cf"
         offset="1"
         id="stop90" />
    </linearGradient>
    <linearGradient
       id="aj"
       y2="35.789"
       gradientUnits="userSpaceOnUse"
       x2="41.498"
       gradientTransform="matrix(1.1454,0,0,1,-1.4536,-5)"
       y1="40.9"
       x1="41.498">
      <stop
         stop-color="#babdb6"
         offset="0"
         id="stop93" />
      <stop
         stop-color="#888a85"
         offset="1"
         id="stop95" />
    </linearGradient>
    <linearGradient
       id="ak"
       y2="40.048"
       gradientUnits="userSpaceOnUse"
       x2="15.312"
       gradientTransform="matrix(1.1333,0,0,1,-2.2,-8)"
       y1="31.45"
       x1="15.312">
      <stop
         offset="0"
         id="stop98" />
      <stop
         stop-opacity="0"
         offset="1"
         id="stop100" />
    </linearGradient>
    <linearGradient
       id="al"
       y2="42.403"
       gradientUnits="userSpaceOnUse"
       x2="27.907"
       gradientTransform="matrix(1.08 0 0 1.0039 .080008 -7.022)"
       y1="6.0832"
       x1="12.171">
      <stop
         stop-color="#fff"
         offset="0"
         id="stop103" />
      <stop
         stop-color="#babdb6"
         offset="1"
         id="stop105" />
    </linearGradient>
    <linearGradient
       id="am"
       y2="13.749"
       gradientUnits="userSpaceOnUse"
       x2="36.523"
       gradientTransform="matrix(1.08 0 0 1.0039 .080008 -11.038)"
       y1="24.545"
       x1="36.523">
      <stop
         stop-color="#888a85"
         offset="0"
         id="stop108" />
      <stop
         stop-color="#888a85"
         offset="1"
         id="stop110" />
    </linearGradient>
    <linearGradient
       id="an"
       y2="-11.027"
       gradientUnits="userSpaceOnUse"
       x2="15.438"
       gradientTransform="translate(2,-5.4972)"
       y1="20.773"
       x1="27.568">
      <stop
         stop-color="#888a85"
         offset="0"
         id="stop113" />
      <stop
         stop-color="#888a85"
         stop-opacity="0"
         offset="1"
         id="stop115" />
    </linearGradient>
    <linearGradient
       id="ao"
       y2="2.5"
       gradientUnits="userSpaceOnUse"
       x2="17.625"
       gradientTransform="translate(2,-5.4972)"
       y1="17.471"
       x1="21.875">
      <stop
         stop-color="#2e3436"
         offset="0"
         id="stop118" />
      <stop
         stop-color="#888a85"
         offset="1"
         id="stop120" />
    </linearGradient>
    <linearGradient
       id="ap"
       y2="28.82"
       gradientUnits="userSpaceOnUse"
       x2="34.825"
       gradientTransform="translate(2,-5.4972)"
       y1="6.1923"
       x1="21.567">
      <stop
         stop-color="#fff"
         offset="0"
         id="stop123" />
      <stop
         stop-color="#fff"
         stop-opacity="0"
         offset="1"
         id="stop125" />
    </linearGradient>
  </defs>
  <path
     opacity=".8"
     d="m26-2.5c-2.7062 0-5.5 2-5.5 2-0.56888 0-1 3.984-1 5v12h13v-12c0-1.016-0.43112-5-1-5 0 0-2.7938-2-5.5-2zm0 6c0.828 0 1.5-0.536 1.5 2.5s-0.6395 7.5028-1.4675 7.5028-1.532-4.467-1.532-7.503 0.672-2.5 1.5-2.5z"
     fill-rule="evenodd"
     stroke="url(#ao)"
     stroke-linecap="square"
     fill="url(#an)"
     id="path127" />
  <path
     opacity=".7"
     stroke-linejoin="round"
     d="m26-1.5c-2.2158 0-4.7813 1.8153-4.7813 1.8153-0.0014 0.00322-0.02974-0.00349-0.03125 0-0.01757 0.040692-0.0085 0.055839-0.03125 0.125-0.095 0.28845-0.192 0.7665-0.281 1.2812-0.177 1.0295-0.375 2.4215-0.375 2.7785l0.09374 11.159h10.875l0.031-11.159c0-0.35697-0.13519-1.749-0.31251-2.7785-0.088-0.5147-0.186-0.99275-0.281-1.2812-0.023-0.06916-0.014-0.08431-0.031-0.125-0.006-0.01279-0.027-0.0222-0.031-0.03125 0 0-2.628-1.784-4.844-1.784z"
     stroke="url(#ap)"
     stroke-linecap="square"
     fill="none"
     id="path129" />
  <path
     opacity=".3"
     d="m50.558 38.763a25.235 4.9056 0 1 1 -50.47 0 25.235 4.9056 0 1 1 50.47 0z"
     transform="matrix(1.0693 0 0 .56059 -3.0645 20.52)"
     fill="url(#aq)"
     id="path131" />
  <path
     stroke-linejoin="round"
     d="m8.9997 11.5-2.25 2.7488c-2.1506 2.6273-3.25 5.0686-3.25 8.7549v5.496h45v-5.4963c0-3.6863-1.0994-6.1276-3.25-8.7549l-2.25-2.749h-34z"
     stroke="url(#x)"
     stroke-linecap="square"
     fill="url(#ar)"
     id="path133" />
  <path
     stroke-linejoin="round"
     style="enable-background:new"
     d="m4.4997 28.5v2.9062c0 1.1517 0.942 2.0938 2.0937 2.0938h38.812c1.1517 0 2.0938-0.942 2.0938-2.0938v-2.906h-43z"
     stroke="url(#ac)"
     stroke-linecap="round"
     fill="url(#ab)"
     id="path135" />
  <path
     d="m9.5116 12.562-1.9122 2.289c-2.0354 2.437-3.0997 4.486-3.0997 7.857v4.792h43v-4.792c0-3.3701-1.0721-5.4135-3.0997-7.8562l-1.9-2.29h-32.988z"
     stroke="url(#y)"
     stroke-linecap="square"
     fill="none"
     id="path137" />
  <path
     opacity="0.08"
     style="enable-background:new"
     d="m46.5 29.5v2c0 0.51882-0.48118 1-1 1h-39c-0.51882 0-1-0.48118-1-1v-2h41z"
     stroke="url(#ad)"
     stroke-linecap="round"
     fill="none"
     id="path139" />
  <rect
     stroke-linejoin="round"
     style="enable-background:new"
     rx=".50781"
     ry=".5"
     height="10"
     width="29"
     stroke="#2e3436"
     stroke-linecap="round"
     y="12.5"
     x="11.5"
     stroke-width=".99978"
     fill="url(#ae)"
     id="rect141" />
  <path
     stroke-linejoin="round"
     d="m14.12 6.4995h23.76c0.89748 0 1.62 0.67161 1.62 1.5059v6.5566l-27-1.004v-5.5527c0-0.83425 0.72252-1.5059 1.62-1.5059z"
     stroke="url(#am)"
     stroke-linecap="square"
     fill="url(#al)"
     id="path143" />
  <rect
     stroke-linejoin="round"
     rx=".62364"
     ry=".53125"
     height="5.9983"
     width="24.999"
     stroke="#fff"
     stroke-linecap="square"
     y="7.4995"
     x="13.5"
     fill="none"
     id="rect145" />
  <rect
     rx="1"
     ry="1"
     height="2"
     width="3"
     stroke="url(#at)"
     stroke-linecap="square"
     y="23.5"
     x="43"
     fill="url(#as)"
     id="rect147" />
  <rect
     rx=".51562"
     ry=".17969"
     height=".35937"
     width="1.5469"
     y="24.109"
     x="43.734"
     fill="url(#z)"
     id="rect149" />
  <rect
     opacity=".15"
     fill-rule="evenodd"
     rx="0"
     ry="0"
     height="2"
     width="28"
     y="11"
     x="12"
     fill="url(#aa)"
     id="rect151" />
  <path
     style="enable-background:new"
     d="m12.5 13.5h27"
     fill-opacity=".75"
     fill-rule="evenodd"
     stroke="#2e3436"
     stroke-linecap="square"
     stroke-width=".99994"
     fill="#888a85"
     id="path153" />
  <path
     d="m11.194 27.5h29.612c0.96368 0 1.6935 0.63554 1.6935 1.2996v4.7l-33 0.000009v-4.7004c0-0.74044 0.77366-1.2996 1.6935-1.2996z"
     stroke="url(#af)"
     stroke-linecap="square"
     fill="#6a6f64"
     id="path155" />
  <path
     stroke-linejoin="round"
     d="m10.303 32.5h31.394c1.6468 0 1.1212 2 1.1212 2l1.682 2.5c0 1.385-1.2502 1.5-2.803 1.5h-31.394c-1.5524 0-2.8026-0.115-2.8026-1.5l1.6818-2.5s-0.56061-2 1.1212-2z"
     stroke="url(#ah)"
     stroke-linecap="round"
     fill="url(#ag)"
     id="path157" />
  <path
     stroke-linejoin="round"
     d="m40.352 28c0 5 1.718 8.5 1.718 8.5h-32.07s1.718-3.5 1.718-8.5"
     stroke="url(#aj)"
     fill="url(#ai)"
     id="path159" />
  <path
     fill="none"
     d="m39.34 28c-0.03625 4 1.16 7.5 1.16 7.5h-29s1.16-3.5 1.16-7.5"
     stroke="#fff"
     id="path161" />
  <path
     opacity=".50588"
     fill="url(#ak)"
     d="m11.133 28h29.733c0.935 0 1.134 0.447 1.134 1v4h-32v-4c0-0.61703 0.24178-1 1.1333-1z"
     id="path163" />
  <rect
     fill-rule="evenodd"
     height="16.15"
     width="32"
     y="30"
     x="9"
     fill="#fff"
     id="rect165" />
  <text
     style="font-size:41.50999832px;line-height:125%;letter-spacing:0px;word-spacing:0px;fill:#000000;font-family:Sans"
     xml:space="preserve"
     transform="scale(0.98833,1.0118)"
     line-height="125%"
     font-size="41.51px"
     y="44.47496"
     x="24.283327"
     id="text167"
     sodipodi:linespacing="125%"><tspan
       style="font-size:18px;font-weight:bold;text-align:center;text-anchor:middle;font-family:Saab"
       font-size="18px"
       y="44.47496"
       x="24.283327"
       font-weight="bold"
       id="tspan169">PDF</tspan></text>
</svg>
