<?xml version="1.0" encoding="UTF-8" standalone="no"?>
<svg
   xmlns:dc="http://purl.org/dc/elements/1.1/"
   xmlns:cc="http://creativecommons.org/ns#"
   xmlns:rdf="http://www.w3.org/1999/02/22-rdf-syntax-ns#"
   xmlns:svg="http://www.w3.org/2000/svg"
   xmlns="http://www.w3.org/2000/svg"
   xmlns:xlink="http://www.w3.org/1999/xlink"
   xmlns:sodipodi="http://sodipodi.sourceforge.net/DTD/sodipodi-0.dtd"
   xmlns:inkscape="http://www.inkscape.org/namespaces/inkscape"
   height="48"
   width="48"
   version="1.1"
   id="svg3763"
   inkscape:version="0.48.3.1 r9886"
   sodipodi:docname="plot_hpg.svg">
  <metadata
     id="metadata3934">
    <rdf:RDF>
      <cc:Work
         rdf:about="">
        <dc:format>image/svg+xml</dc:format>
        <dc:type
           rdf:resource="http://purl.org/dc/dcmitype/StillImage" />
        <dc:title></dc:title>
      </cc:Work>
    </rdf:RDF>
  </metadata>
  <sodipodi:namedview
     pagecolor="#ffffff"
     bordercolor="#666666"
     borderopacity="1"
     objecttolerance="10"
     gridtolerance="10"
     guidetolerance="10"
     inkscape:pageopacity="0"
     inkscape:pageshadow="2"
     inkscape:window-width="1600"
     inkscape:window-height="849"
     id="namedview3932"
     showgrid="false"
     inkscape:zoom="16.042452"
     inkscape:cx="24.138053"
     inkscape:cy="23.754239"
     inkscape:window-x="0"
     inkscape:window-y="29"
     inkscape:window-maximized="1"
     inkscape:current-layer="svg3763" />
  <defs
     id="defs3765">
    <linearGradient
       id="aa"
       y2="20"
       gradientUnits="userSpaceOnUse"
       x2="20.125"
       gradientTransform="matrix(1 0 0 .66667 1.9997 -2.3333)"
       y1="24.438"
       x1="20.125">
      <stop
         offset="0"
         id="stop3768" />
      <stop
         stop-opacity="0"
         offset="1"
         id="stop3770" />
    </linearGradient>
    <linearGradient
       id="z"
       y2="33.469"
       gradientUnits="userSpaceOnUse"
       x2="41.82"
       gradientTransform="translate(2.4997,-9)"
       y1="33.109"
       x1="41.82">
      <stop
         stop-color="#fff"
         offset="0"
         id="stop3773" />
      <stop
         stop-color="#fff"
         stop-opacity="0"
         offset="1"
         id="stop3775" />
    </linearGradient>
    <linearGradient
       id="at"
       y2="31.168"
       gradientUnits="userSpaceOnUse"
       x2="38.743"
       gradientTransform="matrix(.88533 0 0 1.4995 7.488 -20.734)"
       y1="29.744"
       x1="38.743">
      <stop
         stop-color="#babdb6"
         offset="0"
         id="stop3778" />
      <stop
         stop-color="#fff"
         offset="1"
         id="stop3780" />
    </linearGradient>
    <linearGradient
       id="as"
       y2="29.085"
       gradientUnits="userSpaceOnUse"
       x2="40.791"
       gradientTransform="matrix(.66667 0 0 1 17 -5)"
       y1="30.003"
       x1="40.791">
      <stop
         stop-color="#789e2d"
         offset="0"
         id="stop3783" />
      <stop
         stop-color="#a7cc5c"
         offset="1"
         id="stop3785" />
    </linearGradient>
    <linearGradient
       id="ae"
       y2="20.14"
       gradientUnits="userSpaceOnUse"
       x2="17.5"
       gradientTransform="matrix(1.0039 0 0 .98413 2.9558 -8.7031)"
       y1="30.755"
       x1="17.5">
      <stop
         stop-color="#2e3436"
         offset="0"
         id="stop3788" />
      <stop
         stop-color="#babdb6"
         offset="1"
         id="stop3790" />
    </linearGradient>
    <linearGradient
       id="ad"
       y2="42.336"
       gradientUnits="userSpaceOnUse"
       x2="3.6239"
       gradientTransform="translate(2.9997,-8)"
       y1="38.1"
       x1="3.6239">
      <stop
         stop-color="#fff"
         offset="0"
         id="stop3793" />
      <stop
         stop-color="#fff"
         stop-opacity="0"
         offset="1"
         id="stop3795" />
    </linearGradient>
    <linearGradient
       id="y"
       y2="69.14"
       gradientUnits="userSpaceOnUse"
       x2="5.1265"
       gradientTransform="translate(1.9997,-10)"
       y1="25.373"
       x1="5.1265">
      <stop
         stop-color="#fff"
         offset="0"
         id="stop3798" />
      <stop
         stop-color="#fff"
         stop-opacity="0"
         offset="1"
         id="stop3800" />
    </linearGradient>
    <linearGradient
       id="ac"
       y2="41.012"
       gradientUnits="userSpaceOnUse"
       x2="3.2641"
       gradientTransform="translate(2.9997,-8)"
       y1="35.073"
       x1="3.2641">
      <stop
         stop-color="#555753"
         offset="0"
         id="stop3803" />
      <stop
         stop-color="#2e3436"
         offset="1"
         id="stop3805" />
    </linearGradient>
    <linearGradient
       id="ab"
       y2="37.148"
       gradientUnits="userSpaceOnUse"
       x2="5.057"
       gradientTransform="translate(2.9997,-8)"
       y1="40.415"
       x1="5.057">
      <stop
         stop-color="#2e3436"
         offset="0"
         id="stop3808" />
      <stop
         stop-color="#555753"
         offset="1"
         id="stop3810" />
    </linearGradient>
    <linearGradient
       id="x"
       y2="24.368"
       gradientUnits="userSpaceOnUse"
       x2=".75"
       gradientTransform="translate(1.9997,-10)"
       y1="67.989"
       x1=".75">
      <stop
         stop-color="#555753"
         offset="0"
         id="stop3813" />
      <stop
         stop-color="#888a85"
         offset="1"
         id="stop3815" />
    </linearGradient>
    <linearGradient
       id="ar"
       y2="24.249"
       gradientUnits="userSpaceOnUse"
       x2="35.5"
       gradientTransform="matrix(1 0 0 .92157 1.9997 -3.7219)"
       y1="31.19"
       x1="35.5">
      <stop
         stop-color="#d3d7cf"
         offset="0"
         id="stop3818" />
      <stop
         stop-color="#eeeeec"
         offset="1"
         id="stop3820" />
    </linearGradient>
    <radialGradient
       id="aq"
       gradientUnits="userSpaceOnUse"
       cy="38.763"
       cx="25.323"
       gradientTransform="matrix(1 0 0 .1944 0 31.228)"
       r="25.235">
      <stop
         offset="0"
         id="stop3823" />
      <stop
         stop-opacity="0"
         offset="1"
         id="stop3825" />
    </radialGradient>
    <linearGradient
       id="af"
       y2="43"
       gradientUnits="userSpaceOnUse"
       x2="15.186"
       gradientTransform="matrix(1.129,0,0,1,-2.0968,-9)"
       y1="36"
       x1="15.177">
      <stop
         stop-color="#888a85"
         offset="0"
         id="stop3828" />
      <stop
         stop-color="#555753"
         offset="1"
         id="stop3830" />
    </linearGradient>
    <linearGradient
       id="ag"
       y2="45.969"
       gradientUnits="userSpaceOnUse"
       x2="10"
       gradientTransform="matrix(1.1212 0 0 1 -.90909 -8)"
       y1="40.969"
       x1="9.9688">
      <stop
         stop-color="#eeeeec"
         offset="0"
         id="stop3833" />
      <stop
         stop-color="#babdb6"
         offset=".27381"
         id="stop3835" />
      <stop
         stop-color="#fff"
         offset=".55910"
         id="stop3837" />
      <stop
         stop-color="#eeeeec"
         offset="1"
         id="stop3839" />
    </linearGradient>
    <linearGradient
       id="ah"
       y2="40"
       gradientUnits="userSpaceOnUse"
       x2="40.375"
       gradientTransform="matrix(1.1212 0 0 1 -.90909 -8)"
       y1="45.625"
       x1="40.375">
      <stop
         stop-color="#555753"
         offset="0"
         id="stop3842" />
      <stop
         stop-color="#a1a59b"
         offset="1"
         id="stop3844" />
    </linearGradient>
    <linearGradient
       id="ai"
       y2="32.515"
       gradientUnits="userSpaceOnUse"
       x2="34.482"
       gradientTransform="matrix(1.1454,0,0,1,-1.4536,-5)"
       y1="42.002"
       x1="34.482">
      <stop
         stop-color="#eeeeec"
         offset="0"
         id="stop3847" />
      <stop
         stop-color="#fff"
         offset=".10714"
         id="stop3849" />
      <stop
         stop-color="#d3d7cf"
         offset="1"
         id="stop3851" />
    </linearGradient>
    <linearGradient
       id="aj"
       y2="35.789"
       gradientUnits="userSpaceOnUse"
       x2="41.498"
       gradientTransform="matrix(1.1454,0,0,1,-1.4536,-5)"
       y1="40.9"
       x1="41.498">
      <stop
         stop-color="#babdb6"
         offset="0"
         id="stop3854" />
      <stop
         stop-color="#888a85"
         offset="1"
         id="stop3856" />
    </linearGradient>
    <linearGradient
       id="ak"
       y2="40.048"
       gradientUnits="userSpaceOnUse"
       x2="15.312"
       gradientTransform="matrix(1.1333,0,0,1,-2.2,-8)"
       y1="31.45"
       x1="15.312">
      <stop
         offset="0"
         id="stop3859" />
      <stop
         stop-opacity="0"
         offset="1"
         id="stop3861" />
    </linearGradient>
    <linearGradient
       id="al"
       y2="42.403"
       gradientUnits="userSpaceOnUse"
       x2="27.907"
       gradientTransform="matrix(1.08 0 0 1.0039 .080008 -7.022)"
       y1="6.0832"
       x1="12.171">
      <stop
         stop-color="#fff"
         offset="0"
         id="stop3864" />
      <stop
         stop-color="#babdb6"
         offset="1"
         id="stop3866" />
    </linearGradient>
    <linearGradient
       id="am"
       y2="13.749"
       gradientUnits="userSpaceOnUse"
       x2="36.523"
       gradientTransform="matrix(1.08 0 0 1.0039 .080008 -11.038)"
       y1="24.545"
       x1="36.523">
      <stop
         stop-color="#888a85"
         offset="0"
         id="stop3869" />
      <stop
         stop-color="#888a85"
         offset="1"
         id="stop3871" />
    </linearGradient>
    <linearGradient
       id="an"
       y2="-11.027"
       gradientUnits="userSpaceOnUse"
       x2="15.438"
       gradientTransform="translate(2,-5.4972)"
       y1="20.773"
       x1="27.568">
      <stop
         stop-color="#888a85"
         offset="0"
         id="stop3874" />
      <stop
         stop-color="#888a85"
         stop-opacity="0"
         offset="1"
         id="stop3876" />
    </linearGradient>
    <linearGradient
       id="ao"
       y2="2.5"
       gradientUnits="userSpaceOnUse"
       x2="17.625"
       gradientTransform="translate(2,-5.4972)"
       y1="17.471"
       x1="21.875">
      <stop
         stop-color="#2e3436"
         offset="0"
         id="stop3879" />
      <stop
         stop-color="#888a85"
         offset="1"
         id="stop3881" />
    </linearGradient>
    <linearGradient
       id="ap"
       y2="28.82"
       gradientUnits="userSpaceOnUse"
       x2="34.825"
       gradientTransform="translate(2,-5.4972)"
       y1="6.1923"
       x1="21.567">
      <stop
         stop-color="#fff"
         offset="0"
         id="stop3884" />
      <stop
         stop-color="#fff"
         stop-opacity="0"
         offset="1"
         id="stop3886" />
    </linearGradient>
    <linearGradient
       inkscape:collect="always"
       xlink:href="#an"
       id="linearGradient3953"
       gradientUnits="userSpaceOnUse"
       gradientTransform="translate(2,-5.4972)"
       x1="27.568"
       y1="20.773"
       x2="15.438"
       y2="-11.027" />
    <linearGradient
       inkscape:collect="always"
       xlink:href="#ao"
       id="linearGradient3955"
       gradientUnits="userSpaceOnUse"
       gradientTransform="translate(2,-5.4972)"
       x1="21.875"
       y1="17.471"
       x2="17.625"
       y2="2.5" />
    <linearGradient
       inkscape:collect="always"
       xlink:href="#ap"
       id="linearGradient3957"
       gradientUnits="userSpaceOnUse"
       gradientTransform="translate(2,-5.4972)"
       x1="21.567"
       y1="6.1923"
       x2="34.825"
       y2="28.82" />
    <linearGradient
       inkscape:collect="always"
       xlink:href="#ar"
       id="linearGradient3959"
       gradientUnits="userSpaceOnUse"
       gradientTransform="matrix(1,0,0,0.92157,1.9997,-3.7219)"
       x1="35.5"
       y1="31.19"
       x2="35.5"
       y2="24.249" />
    <linearGradient
       inkscape:collect="always"
       xlink:href="#x"
       id="linearGradient3961"
       gradientUnits="userSpaceOnUse"
       gradientTransform="translate(1.9997,-10)"
       x1=".75"
       y1="67.989"
       x2=".75"
       y2="24.368" />
    <linearGradient
       inkscape:collect="always"
       xlink:href="#ab"
       id="linearGradient3963"
       gradientUnits="userSpaceOnUse"
       gradientTransform="translate(2.9997,-8)"
       x1="5.057"
       y1="40.415"
       x2="5.057"
       y2="37.148" />
    <linearGradient
       inkscape:collect="always"
       xlink:href="#ac"
       id="linearGradient3965"
       gradientUnits="userSpaceOnUse"
       gradientTransform="translate(2.9997,-8)"
       x1="3.2641"
       y1="35.073"
       x2="3.2641"
       y2="41.012" />
    <linearGradient
       inkscape:collect="always"
       xlink:href="#y"
       id="linearGradient3967"
       gradientUnits="userSpaceOnUse"
       gradientTransform="translate(1.9997,-10)"
       x1="5.1265"
       y1="25.373"
       x2="5.1265"
       y2="69.14" />
    <linearGradient
       inkscape:collect="always"
       xlink:href="#ad"
       id="linearGradient3969"
       gradientUnits="userSpaceOnUse"
       gradientTransform="translate(2.9997,-8)"
       x1="3.6239"
       y1="38.1"
       x2="3.6239"
       y2="42.336" />
    <linearGradient
       inkscape:collect="always"
       xlink:href="#ae"
       id="linearGradient3971"
       gradientUnits="userSpaceOnUse"
       gradientTransform="matrix(1.0039,0,0,0.98413,2.9558,-8.7031)"
       x1="17.5"
       y1="30.755"
       x2="17.5"
       y2="20.14" />
    <linearGradient
       inkscape:collect="always"
       xlink:href="#al"
       id="linearGradient3973"
       gradientUnits="userSpaceOnUse"
       gradientTransform="matrix(1.08,0,0,1.0039,0.080008,-7.022)"
       x1="12.171"
       y1="6.0832"
       x2="27.907"
       y2="42.403" />
    <linearGradient
       inkscape:collect="always"
       xlink:href="#am"
       id="linearGradient3975"
       gradientUnits="userSpaceOnUse"
       gradientTransform="matrix(1.08,0,0,1.0039,0.080008,-11.038)"
       x1="36.523"
       y1="24.545"
       x2="36.523"
       y2="13.749" />
    <linearGradient
       inkscape:collect="always"
       xlink:href="#as"
       id="linearGradient3977"
       gradientUnits="userSpaceOnUse"
       gradientTransform="matrix(0.66667,0,0,1,17,-5)"
       x1="40.791"
       y1="30.003"
       x2="40.791"
       y2="29.085" />
    <linearGradient
       inkscape:collect="always"
       xlink:href="#at"
       id="linearGradient3979"
       gradientUnits="userSpaceOnUse"
       gradientTransform="matrix(0.88533,0,0,1.4995,7.488,-20.734)"
       x1="38.743"
       y1="29.744"
       x2="38.743"
       y2="31.168" />
    <linearGradient
       inkscape:collect="always"
       xlink:href="#z"
       id="linearGradient3981"
       gradientUnits="userSpaceOnUse"
       gradientTransform="translate(2.4997,-9)"
       x1="41.82"
       y1="33.109"
       x2="41.82"
       y2="33.469" />
    <linearGradient
       inkscape:collect="always"
       xlink:href="#aa"
       id="linearGradient3983"
       gradientUnits="userSpaceOnUse"
       gradientTransform="matrix(1,0,0,0.66667,1.9997,-2.3333)"
       x1="20.125"
       y1="24.438"
       x2="20.125"
       y2="20" />
    <linearGradient
       inkscape:collect="always"
       xlink:href="#af"
       id="linearGradient3985"
       gradientUnits="userSpaceOnUse"
       gradientTransform="matrix(1.129,0,0,1,-2.0968,-9)"
       x1="15.177"
       y1="36"
       x2="15.186"
       y2="43" />
    <linearGradient
       inkscape:collect="always"
       xlink:href="#ak"
       id="linearGradient3987"
       gradientUnits="userSpaceOnUse"
       gradientTransform="matrix(1.1333,0,0,1,-2.2,-8)"
       x1="15.312"
       y1="31.45"
       x2="15.312"
       y2="40.048" />
  </defs>
  <path
     stroke-linejoin="round"
     d="m10.303 32.5h31.394c1.6468 0 1.1212 2 1.1212 2l1.682 2.5c0 1.385-1.2502 1.5-2.803 1.5h-31.394c-1.5524 0-2.8026-0.115-2.8026-1.5l1.6818-2.5s-0.56061-2 1.1212-2z"
     stroke="url(#ah)"
     stroke-linecap="round"
     fill="url(#ag)"
     id="path3918" />
  <path
     stroke-linejoin="round"
     d="m40.352 28c0 5 1.718 8.5 1.718 8.5h-32.07s1.718-3.5 1.718-8.5"
     stroke="url(#aj)"
     fill="url(#ai)"
     id="path3920" />
  <path
     fill="none"
     d="m39.34 28c-0.03625 4 1.16 7.5 1.16 7.5h-29s1.16-3.5 1.16-7.5"
     stroke="#fff"
     id="path3922" />
  <g
     id="g3936"
     transform="matrix(1,0,0,0.91302233,-1.9947075,2.9760864)">
    <path
       id="path3888"
       d="m 26,-2.5 c -2.7062,0 -5.5,2 -5.5,2 -0.56888,0 -1,3.984 -1,5 v 12 h 13 v -12 c 0,-1.016 -0.43112,-5 -1,-5 0,0 -2.7938,-2 -5.5,-2 z m 0,6 c 0.828,0 1.5,-0.536 1.5,2.5 0,3.036 -0.6395,7.5028 -1.4675,7.5028 -0.828,0 -1.532,-4.467 -1.532,-7.503 0,-3.036 0.672,-2.5 1.5,-2.5 z"
       style="opacity:0.8;fill:url(#linearGradient3953);fill-rule:evenodd;stroke:url(#linearGradient3955);stroke-linecap:square"
       inkscape:connector-curvature="0" />
    <path
       id="path3890"
       d="m 26,-1.5 c -2.2158,0 -4.7813,1.8153 -4.7813,1.8153 -0.0014,0.00322 -0.02974,-0.00349 -0.03125,0 -0.01757,0.040692 -0.0085,0.055839 -0.03125,0.125 -0.095,0.28845 -0.192,0.7665 -0.281,1.2812 -0.177,1.0295 -0.375,2.4215 -0.375,2.7785 l 0.09374,11.159 h 10.875 L 31.49994,4.5 c 0,-0.35697 -0.13519,-1.749 -0.31251,-2.7785 -0.088,-0.5147 -0.186,-0.99275 -0.281,-1.2812 -0.023,-0.06916 -0.014,-0.08431 -0.031,-0.125 -0.006,-0.01279 -0.027,-0.0222 -0.031,-0.03125 0,0 -2.628,-1.784 -4.844,-1.784 z"
       style="opacity:0.7;fill:none;stroke:url(#linearGradient3957);stroke-linecap:square;stroke-linejoin:round"
       inkscape:connector-curvature="0" />
    <path
       id="path3894"
       d="m 8.9997,11.5 -2.25,2.7488 c -2.1506,2.6273 -3.25,5.0686 -3.25,8.7549 v 5.496 h 45 v -5.4963 c 0,-3.6863 -1.0994,-6.1276 -3.25,-8.7549 l -2.25,-2.749 h -34 z"
       style="fill:url(#linearGradient3959);stroke:url(#linearGradient3961);stroke-linecap:square;stroke-linejoin:round"
       inkscape:connector-curvature="0" />
    <path
       id="path3896"
       d="m 4.4997,28.5 v 2.9062 c 0,1.1517 0.942,2.0938 2.0937,2.0938 h 38.812 c 1.1517,0 2.0938,-0.942 2.0938,-2.0938 v -2.906 h -43 z"
       style="fill:url(#linearGradient3963);stroke:url(#linearGradient3965);stroke-linecap:round;stroke-linejoin:round;enable-background:new"
       inkscape:connector-curvature="0" />
    <path
       id="path3898"
       d="M 9.5116,12.562 7.5994,14.851 C 5.564,17.288 4.4997,19.337 4.4997,22.708 V 27.5 h 43 v -4.792 c 0,-3.3701 -1.0721,-5.4135 -3.0997,-7.8562 l -1.9,-2.29 H 9.512 z"
       style="fill:none;stroke:url(#linearGradient3967);stroke-linecap:square"
       inkscape:connector-curvature="0" />
    <path
       id="path3900"
       d="m 46.5,29.5 v 2 c 0,0.51882 -0.48118,1 -1,1 h -39 c -0.51882,0 -1,-0.48118 -1,-1 v -2 h 41 z"
       style="opacity:0.07999998;fill:none;stroke:url(#linearGradient3969);stroke-linecap:round;enable-background:new"
       inkscape:connector-curvature="0" />
    <rect
       id="rect3902"
       x="11.5"
       y="12.5"
       width="29"
       height="10"
       ry="0.5"
       rx="0.50781"
       style="fill:url(#linearGradient3971);stroke:#2e3436;stroke-width:0.99978;stroke-linecap:round;stroke-linejoin:round;enable-background:new" />
    <path
       id="path3904"
       d="m 14.12,6.4995 h 23.76 c 0.89748,0 1.62,0.67161 1.62,1.5059 v 6.5566 l -27,-1.004 V 8.0053 c 0,-0.83425 0.72252,-1.5059 1.62,-1.5059 z"
       style="fill:url(#linearGradient3973);stroke:url(#linearGradient3975);stroke-linecap:square;stroke-linejoin:round"
       inkscape:connector-curvature="0" />
    <rect
       id="rect3906"
       x="13.5"
       y="7.4994998"
       width="24.999001"
       height="5.9983001"
       ry="0.53125"
       rx="0.62364"
       style="fill:none;stroke:#ffffff;stroke-linecap:square;stroke-linejoin:round" />
    <rect
       id="rect3908"
       x="43"
       y="23.5"
       width="3"
       height="2"
       ry="1"
       rx="1"
       style="fill:url(#linearGradient3977);stroke:url(#linearGradient3979);stroke-linecap:square" />
    <rect
       id="rect3910"
       x="43.734001"
       y="24.108999"
       width="1.5469"
       height="0.35936999"
       ry="0.17969"
       rx="0.51561999"
       style="fill:url(#linearGradient3981)" />
    <rect
       id="rect3912"
       x="12"
       y="11"
       width="28"
       height="2"
       ry="0"
       rx="0"
       style="opacity:0.15;fill:url(#linearGradient3983);fill-rule:evenodd" />
    <path
       id="path3914"
       d="m 12.5,13.5 h 27"
       style="fill:#888a85;fill-opacity:0.75;fill-rule:evenodd;stroke:#2e3436;stroke-width:0.99993998;stroke-linecap:square;enable-background:new"
       inkscape:connector-curvature="0" />
    <path
       id="path3916"
       d="m 11.194,27.5 h 29.612 c 0.96368,0 1.6935,0.63554 1.6935,1.2996 v 4.7 l -33,9e-6 v -4.7004 c 0,-0.74044 0.77366,-1.2996 1.6935,-1.2996 z"
       style="fill:#6a6f64;stroke:url(#linearGradient3985);stroke-linecap:square"
       inkscape:connector-curvature="0" />
    <path
       id="path3924"
       d="M 11.133,28 H 40.866 C 41.801,28 42,28.447 42,29 v 4 H 10 v -4 c 0,-0.61703 0.24178,-1 1.1333,-1 z"
       style="opacity:0.50588002;fill:url(#linearGradient3987)"
       inkscape:connector-curvature="0" />
  </g>
  <rect
     height="15.955667"
     width="39.398918"
     y="32.194332"
     x="5.5081468"
     id="rect3926"
     style="fill:#ffffff;fill-rule:evenodd" />
  <g
     transform="scale(0.98833381,1.0118039)"
     style="font-size:41.5098381px;line-height:125%;letter-spacing:0px;word-spacing:0px;fill:#000000;font-family:Sans"
     id="text3928">
    <path
       d="m 3.0076218,32.383541 3.7597656,0 0,5.556641 5.5468746,0 0,-5.556641 3.759766,0 0,14.580078 -3.759766,0 0,-6.18164 -5.5468746,0 0,6.18164 -3.7597656,0 0,-14.580078"
       style="font-size:20px;font-style:normal;font-variant:normal;font-weight:bold;font-stretch:normal;text-align:center;text-anchor:middle;fill:#552200;font-family:Comic Sans MS;-inkscape-font-specification:Comic Sans MS Bold"
       id="path3476" />
    <path
       d="m 19.765434,32.383541 6.240235,0 c 1.855458,1.5e-5 3.277983,0.413426 4.267578,1.240234 0.99608,0.820326 1.494127,1.992199 1.49414,3.515625 -1.3e-5,1.529957 -0.49806,2.708341 -1.49414,3.535157 -0.989595,0.820318 -2.41212,1.230474 -4.267578,1.230468 l -2.480469,0 0,5.058594 -3.759766,0 0,-14.580078 m 3.759766,2.724609 0,4.072266 2.080078,0 c 0.729158,8e-6 1.292309,-0.175773 1.689453,-0.527344 0.397126,-0.358064 0.595693,-0.862621 0.595703,-1.513672 -10e-6,-0.651031 -0.198577,-1.152332 -0.595703,-1.503906 -0.397144,-0.351551 -0.960295,-0.527332 -1.689453,-0.527344 l -2.080078,0"
       style="font-size:20px;font-style:normal;font-variant:normal;font-weight:bold;font-stretch:normal;text-align:center;text-anchor:middle;fill:#552200;font-family:Comic Sans MS;-inkscape-font-specification:Comic Sans MS Bold"
       id="path3478" />
    <path
       d="m 47.519341,45.879635 c -0.937514,0.45573 -1.910821,0.797526 -2.919922,1.02539 -1.009126,0.227865 -2.050792,0.341797 -3.125,0.341797 -2.428392,0 -4.352218,-0.677083 -5.771485,-2.03125 -1.419272,-1.360674 -2.128907,-3.20312 -2.128906,-5.527343 -10e-7,-2.350251 0.722655,-4.199208 2.167969,-5.546875 1.445308,-1.347642 3.424472,-2.02147 5.9375,-2.021485 0.970042,1.5e-5 1.897775,0.09116 2.783203,0.273438 0.891914,0.182306 1.731757,0.452488 2.519531,0.810547 l 0,3.017578 c -0.813816,-0.462229 -1.624362,-0.80728 -2.43164,-1.035157 -0.800793,-0.227852 -1.604829,-0.341784 -2.41211,-0.341796 -1.497404,1.2e-5 -2.653002,0.419933 -3.466797,1.259765 -0.807297,0.833344 -1.210942,2.028004 -1.210937,3.583985 -5e-6,1.542974 0.390619,2.734379 1.171875,3.574218 0.781243,0.839847 1.891268,1.259768 3.330078,1.259766 0.390615,2e-6 0.751943,-0.02278 1.083984,-0.06836 0.338531,-0.05208 0.641265,-0.130206 0.908203,-0.234375 l 0,-2.832032 -2.294921,0 0,-2.519531 5.859375,0 0,7.011719"
       style="font-size:20px;font-style:normal;font-variant:normal;font-weight:bold;font-stretch:normal;text-align:center;text-anchor:middle;fill:#552200;font-family:Comic Sans MS;-inkscape-font-specification:Comic Sans MS Bold"
       id="path3480" />
  </g>
</svg>
