<svg id="Слой_1" data-name="Слой 1"
  xmlns:cc="http://creativecommons.org/ns#"
  xmlns:rdf="http://www.w3.org/1999/02/22-rdf-syntax-ns#"
  xmlns="http://www.w3.org/2000/svg" viewBox="0 0 26 26">
  <metadata id="metadata43">
    <rdf:RDF>
      <cc:Work rdf:about="">
        <cc:license rdf:resource="http://creativecommons.org/licenses/by/4.0/" />
      </cc:Work>
      <cc:License rdf:about="http://creativecommons.org/licenses/by/4.0/">
        <cc:permits rdf:resource="http://creativecommons.org/ns#Reproduction" />
        <cc:permits rdf:resource="http://creativecommons.org/ns#Distribution" />
        <cc:requires rdf:resource="http://creativecommons.org/ns#Notice" />
        <cc:requires rdf:resource="http://creativecommons.org/ns#Attribution" />
        <cc:permits rdf:resource="http://creativecommons.org/ns#DerivativeWorks" />
      </cc:License>
    </rdf:RDF>
  </metadata>
  <defs>
    <style>.cls-1{fill:#b9b9b9;}.cls-2{fill:#1a81c4;}.cls-3{fill:#545454;}.cls-4{fill:#fff;}.cls-5{fill:#e61c50;}</style>
  </defs>
  <title>plot</title>
  <polygon class="cls-1" points="17 13.008 7 13.008 7 1.008 19 1.008 19 11.008 17 13.008"/>
  <polygon class="cls-2" points="17 11.008 19 11.008 17 13.008 17 11.008"/>
  <path class="cls-3" d="M2.0766,3.0042H23.9235A1.0765,1.0765,0,0,1,25,4.0807v5.847a1.0765,1.0765,0,0,1-1.0765,1.0765H2.0765A1.0765,1.0765,0,0,1,1,9.9277V4.0808A1.0766,1.0766,0,0,1,2.0766,3.0042Z"/>
  <polygon class="cls-1" points="17 18 7 18 7 7 19 7 19 16 17 18"/>
  <polygon class="cls-2" points="17 16 19 16 17 18 17 16"/>
  <rect class="cls-4" x="6" y="5.9908" width="14" height="1"/>
  <circle class="cls-5" cx="20.9033" cy="4.7663" r="0.5"/>
  <circle class="cls-2" cx="22.8304" cy="4.7663" r="0.5"/>
  <rect class="cls-3" x="3.0103" y="10.9831" width="1" height="13.0257"/>
  <rect class="cls-3" x="0.9908" y="23.991" width="5" height="1"/>
  <rect class="cls-3" x="22.0103" y="10.9831" width="1" height="13.0257"/>
  <rect class="cls-3" x="19.9908" y="23.991" width="5" height="1"/>
</svg>