<?xml version="1.0" encoding="UTF-8" standalone="no"?>
<svg
   xmlns:dc="http://purl.org/dc/elements/1.1/"
   xmlns:cc="http://creativecommons.org/ns#"
   xmlns:rdf="http://www.w3.org/1999/02/22-rdf-syntax-ns#"
   xmlns:svg="http://www.w3.org/2000/svg"
   xmlns="http://www.w3.org/2000/svg"
   xmlns:sodipodi="http://sodipodi.sourceforge.net/DTD/sodipodi-0.dtd"
   xmlns:inkscape="http://www.inkscape.org/namespaces/inkscape"
   width="26"
   height="26"
   viewBox="0 0 20.8 20.8"
   version="1.1"
   id="svg2"
   inkscape:version="0.91 r"
   sodipodi:docname="plot_svg.svg">
  <metadata
     id="metadata91">
    <rdf:RDF>
      <cc:Work
         rdf:about="">
        <dc:format>image/svg+xml</dc:format>
        <dc:type
           rdf:resource="http://purl.org/dc/dcmitype/StillImage" />
        <dc:title />
      </cc:Work>
    </rdf:RDF>
  </metadata>
  <sodipodi:namedview
     pagecolor="#ffffff"
     bordercolor="#666666"
     borderopacity="1"
     objecttolerance="10"
     gridtolerance="10"
     guidetolerance="10"
     inkscape:pageopacity="0"
     inkscape:pageshadow="2"
     inkscape:window-width="1920"
     inkscape:window-height="1053"
     id="namedview89"
     showgrid="true"
     inkscape:zoom="90.509668"
     inkscape:cx="22.130131"
     inkscape:cy="6.8769242"
     inkscape:window-x="0"
     inkscape:window-y="0"
     inkscape:window-maximized="1"
     inkscape:current-layer="svg2"
     inkscape:snap-grids="true"
     inkscape:snap-nodes="false">
    <inkscape:grid
       type="xygrid"
       id="grid3068"
       empspacing="2"
       visible="true"
       enabled="true"
       snapvisiblegridlinesonly="true"
       spacingx="0.5px"
       spacingy="0.5px" />
  </sodipodi:namedview>
  <defs
     id="defs4">
    <radialGradient
       id="radial0"
       gradientUnits="userSpaceOnUse"
       cx="23.980135"
       cy="54.52903"
       fx="23.980135"
       fy="54.52903"
       r="19.125"
       gradientTransform="matrix(0.484163,0,0,0.124222,-1.610294,11.626295)">
      <stop
         offset="0"
         style="stop-color:rgb(0%,0%,0%);stop-opacity:0.698039;"
         id="stop7" />
      <stop
         offset="1"
         style="stop-color:rgb(0%,0%,0%);stop-opacity:0;"
         id="stop9" />
    </radialGradient>
    <linearGradient
       id="linear0"
       gradientUnits="userSpaceOnUse"
       x1="32.892288"
       y1="8.0590124"
       x2="36.358372"
       y2="5.4565358"
       gradientTransform="matrix(0.28605127,0,0,0.25939243,5.1755115,-0.04492833)">
      <stop
         offset="0"
         style="stop-color:rgb(99.607843%,99.607843%,99.607843%);stop-opacity:1;"
         id="stop12" />
      <stop
         offset="1"
         style="stop-color:rgb(74.509804%,74.509804%,74.509804%);stop-opacity:1;"
         id="stop14" />
    </linearGradient>
    <linearGradient
       id="linear1"
       gradientUnits="userSpaceOnUse"
       x1="17.288921"
       y1="2.184907"
       x2="15.179585"
       y2="5.8214641"
       gradientTransform="matrix(0.52812937,0,0,0.49854712,5.6720625,0.10556133)">
      <stop
         offset="0"
         style="stop-color:rgb(75.294118%,75.294118%,75.294118%);stop-opacity:1;"
         id="stop17" />
      <stop
         offset="1"
         style="stop-color:rgb(58.039216%,58.039216%,57.254902%);stop-opacity:1;"
         id="stop19" />
    </linearGradient>
    <linearGradient
       id="linear2"
       gradientUnits="userSpaceOnUse"
       x1="11.519291"
       y1="20"
       x2="11.50602"
       y2="37"
       gradientTransform="matrix(0.37637704,0,0,0.38587704,0.97656722,1.7620834)">
      <stop
         offset="0"
         style="stop-color:rgb(99.607843%,99.607843%,99.607843%);stop-opacity:1;"
         id="stop22" />
      <stop
         offset="1"
         style="stop-color:rgb(74.509804%,74.509804%,74.509804%);stop-opacity:1;"
         id="stop24" />
    </linearGradient>
    <linearGradient
       id="linear3"
       gradientUnits="userSpaceOnUse"
       x1="20.561552"
       y1="36.999981"
       x2="20.278992"
       y2="19.999981"
       gradientTransform="matrix(0.37637704,0,0,0.38587704,0.97656722,1.7620918)">
      <stop
         offset="0"
         style="stop-color:rgb(50.980392%,50.980392%,50.980392%);stop-opacity:1;"
         id="stop27" />
      <stop
         offset="1"
         style="stop-color:rgb(66.666667%,66.666667%,66.666667%);stop-opacity:1;"
         id="stop29" />
    </linearGradient>
    <radialGradient
       id="radial1"
       gradientUnits="userSpaceOnUse"
       cx="3.759069"
       cy="11.918329"
       fx="3.759069"
       fy="11.918329"
       r="21"
       gradientTransform="matrix(0.35752549,0.00587857,-0.00451524,0.21078699,1.4815412,8.6007185)">
      <stop
         offset="0"
         style="stop-color:rgb(100%,100%,100%);stop-opacity:0.901961;"
         id="stop32" />
      <stop
         offset="1"
         style="stop-color:rgb(100%,100%,100%);stop-opacity:0;"
         id="stop34" />
    </radialGradient>
    <linearGradient
       id="linear4"
       gradientUnits="userSpaceOnUse"
       x1="21.919418"
       y1="21"
       x2="22.007805"
       y2="33"
       gradientTransform="matrix(0.37297934,0,0,0.35311857,1.0581195,2.0808681)">
      <stop
         offset="0"
         style="stop-color:rgb(43.137255%,43.137255%,43.137255%);stop-opacity:1;"
         id="stop37" />
      <stop
         offset="1"
         style="stop-color:rgb(11.764706%,11.764706%,11.764706%);stop-opacity:1;"
         id="stop39" />
    </linearGradient>
    <linearGradient
       id="linear5"
       gradientUnits="userSpaceOnUse"
       x1="15.600636"
       y1="33"
       x2="15.335471"
       y2="21"
       gradientTransform="matrix(0.37297934,0,0,0.35311857,1.0581195,2.0808681)">
      <stop
         offset="0"
         style="stop-color:rgb(18.039216%,20.392157%,21.176471%);stop-opacity:1;"
         id="stop42" />
      <stop
         offset="1"
         style="stop-color:rgb(33.333333%,34.117647%,32.54902%);stop-opacity:1;"
         id="stop44" />
    </linearGradient>
    <radialGradient
       id="radial2"
       gradientUnits="userSpaceOnUse"
       cx="3.3530653"
       cy="15.20085"
       fx="3.3530653"
       fy="15.20085"
       r="13"
       gradientTransform="matrix(0.266137,-0.00191617,0.00112655,0.14042158,2.6905008,8.6718977)">
      <stop
         offset="0"
         style="stop-color:rgb(100%,100%,100%);stop-opacity:0.298039;"
         id="stop47" />
      <stop
         offset="1"
         style="stop-color:rgb(100%,100%,100%);stop-opacity:0;"
         id="stop49" />
    </radialGradient>
    <linearGradient
       id="linear6"
       gradientUnits="userSpaceOnUse"
       x1="14.463"
       y1="12.285"
       x2="34.534"
       y2="39.685001"
       gradientTransform="matrix(0.419886,0,0,0.398432,7.852806,8.666825)">
      <stop
         offset="0"
         style="stop-color:rgb(78.823529%,78.823529%,78.823529%);stop-opacity:1;"
         id="stop52" />
      <stop
         offset="0.25"
         style="stop-color:rgb(97.254902%,97.254902%,97.254902%);stop-opacity:1;"
         id="stop54" />
      <stop
         offset="0.5"
         style="stop-color:rgb(88.627451%,88.627451%,88.627451%);stop-opacity:1;"
         id="stop56" />
      <stop
         offset="0.75"
         style="stop-color:rgb(69.019608%,69.019608%,69.019608%);stop-opacity:1;"
         id="stop58" />
      <stop
         offset="1"
         style="stop-color:rgb(78.823529%,78.823529%,78.823529%);stop-opacity:1;"
         id="stop60" />
    </linearGradient>
  </defs>
  <path
     sodipodi:nodetypes="sssss"
     inkscape:connector-curvature="0"
     id="path63"
     d="m 20,17.6 c 0,1.3125 -4.882812,3.2 -10,3.2 -5.113281,0 -10,-1.8875 -10,-3.2 0,-1.3125 4.886719,-2.4 10,-2.4 5.117188,0 10,1.0875 10,2.4 z"
     style="fill:url(#radial0);fill-rule:nonzero;stroke:none" />
  <path
     sodipodi:nodetypes="sssccss"
     inkscape:connector-curvature="0"
     id="path65"
     d="m 2.4,4.4 15.2,0 c 0.125,0 0.4,0.2554684 0.4,0.4 l 0,5.1999997 -16,0 L 2,4.8 C 2,4.6554684 2.275,4.4 2.4,4.4 Z"
     style="fill:#4f4f4f;fill-opacity:1;fill-rule:nonzero;stroke:#3a3a38;stroke-width:0.75110561;stroke-linecap:round;stroke-linejoin:round;stroke-miterlimit:4;stroke-opacity:1" />
  <path
     sodipodi:nodetypes="ccccc"
     inkscape:connector-curvature="0"
     id="path67"
     d="m 2.8,1.2 14.4,0 0,8.7999999 -14.4,0 z"
     style="fill:#f3f3f3;fill-opacity:1;fill-rule:nonzero;stroke:#b3b5b0;stroke-width:0.74747825;stroke-linecap:butt;stroke-linejoin:round;stroke-miterlimit:4;stroke-opacity:1" />
  <path
     sodipodi:nodetypes="ccccccccc"
     inkscape:connector-curvature="0"
     id="path71"
     d="m 1.2,17.2 c 0.03125,0.378907 0,0.8 0.4,1.2 0.4,0.4 0.8,0.4 1.2,0.4 0,0.4 0,0.8 0.4,0.8 l 13.6,0 c 0.386718,0.01172 0.4,-0.4 0.4,-0.8 0.4,0 0.8,0 1.2,-0.4 0.4,-0.4 0.4,-0.957813 0.4,-1.2 -4.882814,0 -12.7171863,0 -17.6,0 z"
     style="fill:#4f4f4f;fill-opacity:1;fill-rule:nonzero;stroke:#3a3a38;stroke-width:0.75082409;stroke-linecap:square;stroke-linejoin:miter;stroke-miterlimit:4;stroke-opacity:1" />
  <path
     sodipodi:nodetypes="sscccss"
     inkscape:connector-curvature="0"
     id="path73"
     d="m 1.2,9.9999997 17.6,0 c 0.4,0 0.8,0.4000003 0.8,0.8000003 l 0,5.6 -19.2,0 0,-5.6 c 0,-0.4 0.39991678,-0.8000003 0.8,-0.8000003 z"
     style="fill:url(#linear2);fill-rule:nonzero;stroke:url(#linear3);stroke-width:0.7711587;stroke-linecap:round;stroke-linejoin:round;stroke-miterlimit:4" />
  <path
     sodipodi:nodetypes="sssccss"
     inkscape:connector-curvature="0"
     id="path75"
     d="m 1.6,10.8 16.8,0 c 0.4,0 0.4,0 0.4,0.4 l 0,4.4 -17.6,0 0,-4.4 c 0,-0.4 0,-0.4 0.4,-0.4 z"
     style="fill:none;stroke:url(#radial1);stroke-width:0.75097173;stroke-linecap:round;stroke-linejoin:miter;stroke-miterlimit:4" />
  <path
     sodipodi:nodetypes="ccccc"
     inkscape:connector-curvature="0"
     id="path77"
     d="m 2.8,9.9999997 14.4,0 0,3.2000003 -14.4,0 z"
     style="fill:url(#linear4);fill-rule:nonzero;stroke:url(#linear5);stroke-width:0.72582638;stroke-linecap:round;stroke-linejoin:miter;stroke-miterlimit:4" />
  <path
     sodipodi:nodetypes="ccccc"
     inkscape:connector-curvature="0"
     id="path79"
     d="m 3.6,10.8 12.8,0 0,1.6 -12.8,0 z"
     style="fill:none;stroke:url(#radial2);stroke-width:0.75090712;stroke-linecap:round;stroke-linejoin:miter;stroke-miterlimit:4" />
  <path
     sodipodi:nodetypes="csssscc"
     inkscape:connector-curvature="0"
     id="path83"
     d="m 17.6,16.8 0,1.389843 c 0,0.101563 -0.07422,0.183594 -0.167968,0.183594 l -14.864063,0 c -0.09375,0 -0.1734417,-0.08218 -0.167969,-0.183594 L 2.4,16.8 Z"
     style="fill:#e6e6e6;fill-opacity:1;fill-rule:nonzero;stroke:none" />
  <path
     sodipodi:nodetypes="ccccc"
     inkscape:connector-curvature="0"
     id="path85"
     d="m 4,16.8 12.8,0 0,0.8 -12.8,0 z"
     style="fill:#303030;fill-opacity:1;fill-rule:nonzero;stroke:none" />
  <path
     style="fill:none;stroke:#4d4d4d;stroke-width:0.80000001px;stroke-linecap:butt;stroke-linejoin:miter;stroke-opacity:1"
     d="m 15.6,5.6 c 0,2 -0.481978,2 -1.2,2 -0.718022,0 -1.2,0 -1.2,-2 0,-2 0.481978,-2 1.2,-2 0.718022,0 0.975,0.375 1.2,0.8"
     id="path3031"
     inkscape:connector-curvature="0"
     sodipodi:nodetypes="czzzc" />
  <path
     sodipodi:nodetypes="ccccc"
     inkscape:connector-curvature="0"
     id="path3948"
     d="M 11.6,3.2 11.6,6 10.4,8 9.2,6 9.2,3.2"
     style="fill:#ffffff;fill-opacity:0;stroke:#4d4d4d;stroke-width:0.80000001px;stroke-linecap:butt;stroke-linejoin:bevel;stroke-opacity:1" />
  <path
     style="fill:none;stroke:#4d4d4d;stroke-width:0.80000001px;stroke-linecap:butt;stroke-linejoin:miter;stroke-opacity:1"
     d="m 14.4,6 1.2,0"
     id="path3950"
     inkscape:connector-curvature="0"
     sodipodi:nodetypes="cc" />
  <path
     style="fill:none;stroke:#4d4d4d;stroke-width:0.80000001px;stroke-linecap:butt;stroke-linejoin:round;stroke-opacity:1"
     d="M 7.6,3.6176777 6.125,3.625 c -0.6,0 -1.1874997,0.3375004 -1.1981155,0.9741117 -2.599e-4,0.6405333 0.9999999,0.8497397 1.275,0.9624999 C 6.510571,5.6758883 7.575,5.7875 7.5625,6.525 7.575,7.3875 6.4,7.6 5.8,7.6 5.2,7.6 4.8,7.2 4.8,7.2"
     id="path4224"
     inkscape:connector-curvature="0"
     sodipodi:nodetypes="ccccczc" />
  <ellipse
     style="opacity:1;fill:#ffffff;fill-opacity:1;fill-rule:nonzero;stroke:none;stroke-width:1.16799998;stroke-linecap:square;stroke-linejoin:miter;stroke-miterlimit:4;stroke-dasharray:none;stroke-opacity:1"
     id="path4201"
     cx="18.203789"
     cy="14.33545"
     rx="0.70754409"
     ry="0.65682644" />
  <path
     sodipodi:nodetypes="sssss"
     inkscape:connector-curvature="0"
     id="path81-3"
     d="m 18.567798,14.786483 c 0,0.317383 -0.295412,0.625 -0.625,0.625 -0.335695,0 -0.625,-0.307617 -0.625,-0.625 0,-0.317383 0.289305,-0.625 0.625,-0.625 0.329588,0 0.625,0.307617 0.625,0.625 z"
     style="fill:#4acf05;fill-opacity:1;fill-rule:nonzero;stroke:none" />
</svg>
