<svg id="Слой_1" data-name="Слой 1"
  xmlns:dc="http://purl.org/dc/elements/1.1/"
  xmlns:cc="http://creativecommons.org/ns#"
  xmlns:rdf="http://www.w3.org/1999/02/22-rdf-syntax-ns#"
  xmlns="http://www.w3.org/2000/svg" viewBox="0 0 26 26">
  <metadata id="metadata43">
    <rdf:RDF>
      <cc:Work rdf:about="">
        <cc:license rdf:resource="http://creativecommons.org/licenses/by-sa/4.0/" />
        <dc:format>image/svg+xml</dc:format>
        <dc:type rdf:resource="http://purl.org/dc/dcmitype/StillImage" />
        <dc:title>add_arc</dc:title>
      </cc:Work>
      <cc:License rdf:about="http://creativecommons.org/licenses/by-sa/4.0/">
        <cc:permits rdf:resource="http://creativecommons.org/ns#Reproduction" />
        <cc:permits rdf:resource="http://creativecommons.org/ns#Distribution" />
        <cc:requires rdf:resource="http://creativecommons.org/ns#Notice" />
        <cc:requires rdf:resource="http://creativecommons.org/ns#Attribution" />
        <cc:permits rdf:resource="http://creativecommons.org/ns#DerivativeWorks" />
        <cc:requires rdf:resource="http://creativecommons.org/ns#ShareAlike" />
      </cc:License>
    </rdf:RDF>
  </metadata>
  <defs>
    <style>.cls-1,.cls-2,.cls-3{fill:none;}.cls-1{stroke:#b9b9b9;stroke-width:0.75px;}.cls-1,.cls-2{stroke-miterlimit:10;}.cls-2{stroke:#545454;}.cls-3{stroke:#333;stroke-linecap:round;stroke-linejoin:round;}.cls-4{fill:#333;}.cls-5{fill:#e61c50;}.cls-6{fill:#545454;}</style>
  </defs>
  <title>polar_coord</title>
  <path class="cls-1" d="M7.0816,18.8985a6.37,6.37,0,0,1,1.8978,4.5442"/>
  <line class="cls-2" x1="2.5216" y1="23.5" x2="20.9502" y2="5.0714"/>
  <polyline class="cls-3" points="21 23.5 2.522 23.5 2.538 5.582"/>
  <polygon class="cls-4" points="3.989 6.574 2.542 1.153 1.084 6.572 3.989 6.574"/>
  <line class="cls-3" x1="3.9768" y1="23.5" x2="20.5471" y2="23.5"/>
  <polygon class="cls-4" points="19.556 24.953 24.977 23.5 19.556 22.047 19.556 24.953"/>
  <circle class="cls-5" cx="22.0026" cy="4.0009" r="2"/>
  <path class="cls-6" d="M10.4189,7.13l-.6084-.0235a1.2718,1.2718,0,0,0-.6923.1758,1.1614,1.1614,0,0,0-.43.4981v4.4062h-1.42v-6.34H8.5664l.0928.92a2.03,2.03,0,0,1,.6172-.7617,1.43,1.43,0,0,1,.8672-.2754,1.3241,1.3241,0,0,1,.24.0205,1.7491,1.7491,0,0,1,.2041.05Z"/>
  <path class="cls-6" d="M20.8467,17.2051a4.853,4.853,0,0,1-1.2041,2.5928,2.8734,2.8734,0,0,1-2.0742.8173,1.8865,1.8865,0,0,1-1.6983-.8877,3.395,3.395,0,0,1-.2422-2.5224l.3916-1.9512a4.8378,4.8378,0,0,1,1.2012-2.5928,2.8794,2.8794,0,0,1,2.083-.8232,1.8693,1.8693,0,0,1,1.6924.8935,3.4391,3.4391,0,0,1,.2422,2.5225Zm-1.3145-.4278H17.1064l-.123.6319a2.8352,2.8352,0,0,0-.0117,1.5928.8213.8213,0,0,0,.8242.4707,1.25,1.25,0,0,0,.98-.5118,3.5405,3.5405,0,0,0,.6338-1.5517Zm-2.2041-1.1132h2.4258l.1289-.627a2.8842,2.8842,0,0,0,.0117-1.585.8089.8089,0,0,0-.8183-.4716,1.2624,1.2624,0,0,0-.9854.5156,3.4663,3.4663,0,0,0-.6338,1.541Z"/>
</svg>