<?xml version="1.0" encoding="UTF-8" standalone="no"?>
<svg
   xmlns:dc="http://purl.org/dc/elements/1.1/"
   xmlns:cc="http://creativecommons.org/ns#"
   xmlns:rdf="http://www.w3.org/1999/02/22-rdf-syntax-ns#"
   xmlns:svg="http://www.w3.org/2000/svg"
   xmlns="http://www.w3.org/2000/svg"
   xmlns:sodipodi="http://sodipodi.sourceforge.net/DTD/sodipodi-0.dtd"
   xmlns:inkscape="http://www.inkscape.org/namespaces/inkscape"
   height="26"
   width="26"
   version="1.1"
   id="svg2"
   inkscape:version="0.48.3.1 r9886"
   sodipodi:docname="polar_coord.svg">
  <metadata
     id="metadata39">
    <rdf:RDF>
      <cc:Work
         rdf:about="">
        <dc:format>image/svg+xml</dc:format>
        <dc:type
           rdf:resource="http://purl.org/dc/dcmitype/StillImage" />
        <dc:title></dc:title>
      </cc:Work>
    </rdf:RDF>
  </metadata>
  <sodipodi:namedview
     pagecolor="#ffffff"
     bordercolor="#666666"
     borderopacity="1"
     objecttolerance="10"
     gridtolerance="10"
     guidetolerance="10"
     inkscape:pageopacity="0"
     inkscape:pageshadow="2"
     inkscape:window-width="1600"
     inkscape:window-height="849"
     id="namedview37"
     showgrid="true"
     inkscape:zoom="26.666667"
     inkscape:cx="11.220709"
     inkscape:cy="12.00265"
     inkscape:window-x="0"
     inkscape:window-y="29"
     inkscape:window-maximized="1"
     inkscape:current-layer="svg2"
     inkscape:snap-grids="false"
     inkscape:snap-to-guides="false">
    <inkscape:grid
       empspacing="1"
       visible="true"
       enabled="true"
       snapvisiblegridlinesonly="true"
       type="xygrid"
       id="grid2997" />
  </sodipodi:namedview>
  <defs
     id="defs4">
    <marker
       inkscape:stockid="Arrow2Mstart"
       orient="auto"
       refY="0.0"
       refX="0.0"
       id="Arrow2Mstart"
       style="overflow:visible">
      <path
         id="path3817"
         style="fill-rule:evenodd;stroke-width:0.62500000;stroke-linejoin:round"
         d="M 8.7185878,4.0337352 L -2.2072895,0.016013256 L 8.7185884,-4.0017078 C 6.9730900,-1.6296469 6.9831476,1.6157441 8.7185878,4.0337352 z "
         transform="scale(0.6) translate(0,0)" />
    </marker>
    <marker
       inkscape:stockid="Arrow2Lstart"
       orient="auto"
       refY="0.0"
       refX="0.0"
       id="Arrow2Lstart"
       style="overflow:visible">
      <path
         id="path3811"
         style="fill-rule:evenodd;stroke-width:0.62500000;stroke-linejoin:round"
         d="M 8.7185878,4.0337352 L -2.2072895,0.016013256 L 8.7185884,-4.0017078 C 6.9730900,-1.6296469 6.9831476,1.6157441 8.7185878,4.0337352 z "
         transform="scale(1.1) translate(1,0)" />
    </marker>
    <marker
       inkscape:stockid="Arrow1Mstart"
       orient="auto"
       refY="0.0"
       refX="0.0"
       id="Arrow1Mstart"
       style="overflow:visible">
      <path
         id="path3799"
         d="M 0.0,0.0 L 5.0,-5.0 L -12.5,0.0 L 5.0,5.0 L 0.0,0.0 z "
         style="fill-rule:evenodd;stroke:#000000;stroke-width:1.0pt"
         transform="scale(0.4) translate(10,0)" />
    </marker>
    <marker
       inkscape:stockid="Arrow1Lstart"
       orient="auto"
       refY="0.0"
       refX="0.0"
       id="Arrow1Lstart"
       style="overflow:visible">
      <path
         id="path3793"
         d="M 0.0,0.0 L 5.0,-5.0 L -12.5,0.0 L 5.0,5.0 L 0.0,0.0 z "
         style="fill-rule:evenodd;stroke:#000000;stroke-width:1.0pt"
         transform="scale(0.8) translate(12.5,0)" />
    </marker>
    <marker
       id="d"
       refY="0"
       refX="0"
       overflow="visible"
       orient="auto"
       style="overflow:visible">
      <path
         d="M 8.7186,4.0337 -2.2074,0.016 8.7186,-4.0017 c -1.7455,2.3721 -1.7354,5.6175 -6e-7,8.0354 z"
         transform="matrix(-1.1,0,0,-1.1,-1.1,0)"
         id="path7"
         inkscape:connector-curvature="0"
         style="fill-rule:evenodd;stroke-width:0.625;stroke-linejoin:round" />
    </marker>
    <marker
       id="e"
       refY="0"
       refX="0"
       overflow="visible"
       orient="auto"
       style="overflow:visible">
      <path
         d="M 8.7186,4.0337 -2.2074,0.016 8.7186,-4.0017 c -1.7455,2.3721 -1.7354,5.6175 -6e-7,8.0354 z"
         transform="matrix(1.1,0,0,1.1,1.1,0)"
         id="path10"
         inkscape:connector-curvature="0"
         style="fill-rule:evenodd;stroke-width:0.625;stroke-linejoin:round" />
    </marker>
    <filter
       id="a"
       color-interpolation-filters="sRGB">
      <feGaussianBlur
         stdDeviation="2.0308453"
         id="feGaussianBlur13" />
    </filter>
    <marker
       inkscape:stockid="Arrow1Mstart"
       orient="auto"
       refY="0"
       refX="0"
       id="Arrow1Mstart-2"
       style="overflow:visible">
      <path
         inkscape:connector-curvature="0"
         id="path3799-0"
         d="M 0,0 5,-5 -12.5,0 5,5 0,0 z"
         style="fill-rule:evenodd;stroke:#000000;stroke-width:1pt"
         transform="matrix(0.4,0,0,0.4,4,0)" />
    </marker>
    <marker
       inkscape:stockid="Arrow2Mstart"
       orient="auto"
       refY="0"
       refX="0"
       id="Arrow2Mstart-6"
       style="overflow:visible">
      <path
         inkscape:connector-curvature="0"
         id="path3817-3"
         style="fill-rule:evenodd;stroke-width:0.625;stroke-linejoin:round"
         d="M 8.7185878,4.0337352 -2.2072895,0.01601326 8.7185884,-4.0017078 c -1.7454984,2.3720609 -1.7354408,5.6174519 -6e-7,8.035443 z"
         transform="scale(0.6,0.6)" />
    </marker>
  </defs>
  <path
     style="opacity:0.42188003;fill:none;stroke:#000000;stroke-width:5.62699986;stroke-linecap:round;stroke-linejoin:round;filter:url(#a)"
     inkscape:connector-curvature="0"
     id="path35"
     d="M 23.13,112.75 103.1,27.199"
     transform="matrix(0.22544776,0,0,0.21564955,-1.3157123,-1.1962146)" />
  <path
     style="opacity:0.42188003;stroke:#ff0000;filter:url(#a)"
     inkscape:connector-curvature="0"
     id="path17"
     transform="matrix(0.11898912,7.5181821e-4,0,0.10576781,-78.725781,-46.915464)"
     d="m 880,472.36 a 20,20 0 1 1 -40,0 20,20 0 1 1 40,0 z" />
  <path
     style="fill:none;stroke:#493d3d;stroke-width:1;stroke-linecap:round;stroke-linejoin:round;stroke-opacity:1;stroke-miterlimit:4;stroke-dasharray:none"
     inkscape:connector-curvature="0"
     id="path19"
     d="M 3.4889441,22.442933 21.656486,4.1948239" />
  <g
     transform="matrix(1.0578651,0,0,0.94530011,-1.65,-0.3)"
     style="font-size:10.34677601px;font-weight:bold;line-height:125%;fill:#493d3d;fill-opacity:1;font-family:Century Schoolbook"
     id="text21">
    <path
       d="M 14.42271,4.703743 C 14.22468,4.611056 14.026656,4.5436439 13.828638,4.5015058 13.634822,4.4551648 13.438905,4.4319918 13.240887,4.4319868 12.65945,4.4319922 12.210737,4.6194827 11.894746,4.9944589 11.58296,5.3652315 11.08788,5.9380908 11.072584,6.6330662 l -0.0709,3.2214041 -1.8371429,0 0,-7.0783001 1.9434889,-0.03967 0,1.1628636 c 0.290712,-0.4634538 0.9426,-0.7608454 1.317585,-0.9715158 0.37919,-0.2148699 0.832116,-0.3223082 1.358781,-0.3223155 0.07583,7.3e-6 0.157992,0.00422 0.246476,0.01264 0.08847,0.00422 0.216978,0.01686 0.385515,0.037919 l 0.0063,2.0476511"
       style="font-size:12.94317722px;fill:#493d3d"
       id="path4866"
       inkscape:connector-curvature="0"
       sodipodi:nodetypes="ccccscccccccccc" />
  </g>
  <path
     style="fill:none;stroke:#493d3d;stroke-width:0.75299621;stroke-linecap:round;stroke-linejoin:bevel;stroke-opacity:1"
     inkscape:connector-curvature="0"
     id="path27"
     d="M 13.674333,23.056675 A 10.567193,7.4519573 0 0 0 8.9357716,16.840142 l -5.8286315,6.216533 z" />
  <g
     transform="scale(1.320342,0.75737952)"
     style="font-size:8.10237503px;line-height:125%;fill:#493d3d;fill-opacity:1;font-family:Bitstream Vera Sans"
     id="text29">
    <path
       d="m 17.091728,15.617771 c -0.249954,7e-6 -0.374928,0.327796 -0.374924,0.983369 l 0,4.652352 c 0.365305,10e-7 0.730614,-0.235103 1.095929,-0.705313 0.32685,-0.420472 0.490278,-1.134827 0.490284,-2.143066 -6e-6,-0.940412 -0.165356,-1.66381 -0.496052,-2.170193 -0.269181,-0.411426 -0.507593,-0.617142 -0.715237,-0.617149 m 0,-1.064751 c 0.538345,8e-6 1.0517,0.298409 1.540068,0.895205 0.526807,0.637501 1.045831,1.623128 1.045838,2.956888 -7e-6,1.225257 -0.519031,2.201844 -1.045838,2.929761 -0.496058,0.687227 -1.134388,1.030842 -1.914992,1.030842 l 0,2.726306 -1.055552,0 0,-2.719524 c -0.76523,0 -1.405482,-0.345875 -1.920758,-1.037624 -0.522971,-0.705311 -0.898062,-1.679637 -0.898061,-2.922978 -10e-7,-1.29307 0.37509,-2.269656 0.898061,-2.929762 0.392225,-0.492808 0.907503,-0.802512 1.545835,-0.929114 l 0,1.105442 c -0.253796,0.10399 -0.492208,0.332317 -0.715237,0.684968 -0.330703,0.519948 -0.524455,1.258949 -0.524454,2.117979 -10e-7,0.913291 0.193751,1.580394 0.524454,2.100334 0.296091,0.465688 0.659476,0.698531 1.09016,0.69853 l 0,-4.659133 c -3e-6,-1.365407 0.476821,-2.048112 1.430476,-2.04812"
       style="font-size:11.60540199px;fill:#493d3d"
       id="path4869"
       inkscape:connector-curvature="0"
       sodipodi:nodetypes="ccccccccccccccccsccccsccsc" />
  </g>
  <path
     style="fill:#ff0000;stroke:#ff0000;stroke-width:0.10395694"
     inkscape:connector-curvature="0"
     id="path33"
     d="M 25,3 C 24.988265,4.0596305 23.981972,5.0091806 22.878741,5.0016464 21.77551,4.9941123 21.031709,4.0683179 21.019966,3.0085271 21.008063,1.93428 21.760445,1.0308767 22.878725,1.0385136 23.997005,1.0461505 25.011895,1.9259154 25,3 z"
     sodipodi:nodetypes="sssss" />
  <path
     style="fill:none;stroke:#000000;stroke-width:1.013;stroke-linecap:butt;stroke-linejoin:miter;stroke-opacity:1;marker-start:url(#Arrow2Mstart);opacity:0.90000000000000002;stroke-miterlimit:4;stroke-dasharray:none"
     d="M 23.595389,23.621501 2.1066405,23.546786"
     id="path3787-8"
     inkscape:connector-curvature="0" />
  <path
     style="opacity:0.9;fill:none;stroke:#000000;stroke-width:1.01300001;stroke-linecap:butt;stroke-linejoin:miter;stroke-miterlimit:4;stroke-opacity:1;stroke-dasharray:none;marker-start:url(#Arrow2Mstart)"
     d="M 2.5031575,2.3981839 2.4284425,23.886933"
     id="path3787-8-1"
     inkscape:connector-curvature="0" />
</svg>
