<svg id="Слой_1" data-name="Слой 1"
  xmlns:dc="http://purl.org/dc/elements/1.1/"
  xmlns:cc="http://creativecommons.org/ns#"
  xmlns:rdf="http://www.w3.org/1999/02/22-rdf-syntax-ns#"
  xmlns="http://www.w3.org/2000/svg"
  xmlns:sodipodi="http://sodipodi.sourceforge.net/DTD/sodipodi-0.dtd"
  xmlns:inkscape="http://www.inkscape.org/namespaces/inkscape" viewBox="0 0 26 26">
  <sodipodi:namedview pagecolor="#ffffff" bordercolor="#666666" borderopacity="1" objecttolerance="10" gridtolerance="10" guidetolerance="10" inkscape:pageopacity="0" inkscape:pageshadow="2" inkscape:window-width="1609" inkscape:window-height="1286" id="namedview30" showgrid="true" inkscape:zoom="27.961538" inkscape:cx="13" inkscape:cy="13" inkscape:window-x="0" inkscape:window-y="37" inkscape:window-maximized="0">
    <inkscape:grid type="xygrid" id="grid_kicad" spacingx="0.5" spacingy="0.5" color="#9999ff" opacity="0.13" empspacing="2" />
  </sodipodi:namedview>
  <metadata id="metadata43">
    <rdf:RDF>
      <cc:Work rdf:about="">
        <cc:license rdf:resource="http://creativecommons.org/licenses/by-sa/4.0/" />
        <dc:format>image/svg+xml</dc:format>
        <dc:type rdf:resource="http://purl.org/dc/dcmitype/StillImage" />
        <dc:title>add_arc</dc:title>
      </cc:Work>
      <cc:License rdf:about="http://creativecommons.org/licenses/by-sa/4.0/">
        <cc:permits rdf:resource="http://creativecommons.org/ns#Reproduction" />
        <cc:permits rdf:resource="http://creativecommons.org/ns#Distribution" />
        <cc:requires rdf:resource="http://creativecommons.org/ns#Notice" />
        <cc:requires rdf:resource="http://creativecommons.org/ns#Attribution" />
        <cc:permits rdf:resource="http://creativecommons.org/ns#DerivativeWorks" />
        <cc:requires rdf:resource="http://creativecommons.org/ns#ShareAlike" />
      </cc:License>
    </rdf:RDF>
  </metadata>
  <defs>
    <style>.cls-1{fill:#b9b9b9;}.cls-2{fill:#1a81c4;}.cls-3{fill:#fff;}.cls-4{fill:#e61c50;}.cls-5{fill:none;stroke:#f5f5f5;stroke-linecap:round;stroke-linejoin:round;stroke-width:2px;}</style>
  </defs>
  <title>post_compo</title>
  <path class="cls-1" d="M7.0248,1.0067h11.95A2.9933,2.9933,0,0,1,21.9686,4V15.9966A2.9934,2.9934,0,0,1,18.9752,18.99H7.0248a2.9934,2.9934,0,0,1-2.9934-2.9934V4A2.9934,2.9934,0,0,1,7.0248,1.0067Z"/>
  <rect class="cls-2" x="1.0002" y="4.0003" width="18.7099" height="9.2299"/>
  <path class="cls-3" d="M3.0693,10.3887H1.9961V9.3525H3.0693Z"/>
  <path class="cls-3" d="M8.625,8.1436a2.7163,2.7163,0,0,1-.4922,1.6933,1.6247,1.6247,0,0,1-1.37.6455A1.68,1.68,0,0,1,6.04,10.335a1.4842,1.4842,0,0,1-.541-.4307v2.334H4.4209v-6.66H5.33l.1064.6045a1.6049,1.6049,0,0,1,.5567-.5156,1.5571,1.5571,0,0,1,.7558-.1777,1.5936,1.5936,0,0,1,1.3819.705A3.17,3.17,0,0,1,8.625,8.05ZM7.5518,8.0479a2.3437,2.3437,0,0,0-.2774-1.2051.9.9,0,0,0-.8271-.4688,1.0652,1.0652,0,0,0-.5713.1446,1.0529,1.0529,0,0,0-.377.4013V9.0908a.9971.9971,0,0,0,.377.3887,1.1383,1.1383,0,0,0,.58.1357.925.925,0,0,0,.8232-.4062,1.8861,1.8861,0,0,0,.2725-1.0684Z"/>
  <path class="cls-3" d="M9.3662,7.94a2.6261,2.6261,0,0,1,.585-1.7608,2.0154,2.0154,0,0,1,1.61-.6894,2.0087,2.0087,0,0,1,1.6182.6894A2.599,2.599,0,0,1,13.77,7.94v.0927a2.6121,2.6121,0,0,1-.59,1.77,2.0134,2.0134,0,0,1-1.6094.6806,2.0259,2.0259,0,0,1-1.6191-.6845,2.6255,2.6255,0,0,1-.585-1.7657Zm1.0772.0908a2.1441,2.1441,0,0,0,.2754,1.1455,1.0354,1.0354,0,0,0,1.6933,0A2.0915,2.0915,0,0,0,12.6963,8.03V7.9365a2.0649,2.0649,0,0,0-.2842-1.1318,1.0236,1.0236,0,0,0-1.6933,0,2.1307,2.1307,0,0,0-.2754,1.1318Z"/>
  <path class="cls-3" d="M17.4053,9.082a.504.504,0,0,0-.2129-.414,2.1206,2.1206,0,0,0-.794-.2891,3.2812,3.2812,0,0,1-1.3007-.5176,1.0846,1.0846,0,0,1-.4415-.914,1.3032,1.3032,0,0,1,.51-1.0313A2.0266,2.0266,0,0,1,16.51,5.4893a2.1011,2.1011,0,0,1,1.3945.4336,1.2832,1.2832,0,0,1,.4941,1.0732l-.0088.0273H17.3564a.68.68,0,0,0-.2255-.5117.8734.8734,0,0,0-.6211-.2129.8933.8933,0,0,0-.5948.1748.5481.5481,0,0,0-.2041.43.4817.4817,0,0,0,.1934.4024,2.0655,2.0655,0,0,0,.7822.2646,3.2865,3.2865,0,0,1,1.3418.5264,1.1119,1.1119,0,0,1,.4365.9267,1.26,1.26,0,0,1-.5341,1.0537,2.2674,2.2674,0,0,1-1.4082.4053,2.1465,2.1465,0,0,1-1.4766-.48,1.3557,1.3557,0,0,1-.5137-1.1026l.0088-.0264h1.002a.7188.7188,0,0,0,.3017.6084,1.2038,1.2038,0,0,0,.6914.1915,1.1072,1.1072,0,0,0,.6436-.16A.5014.5014,0,0,0,17.4053,9.082Z"/>
  <path class="cls-4" d="M24.9824,18.0028A6.9925,6.9925,0,1,1,17.99,10.9989,6.9982,6.9982,0,0,1,24.9824,18.0028Z"/>
  <line class="cls-5" x1="18.0935" y1="14.6321" x2="18.0935" y2="21.636"/>
  <polyline class="cls-5" points="15.344 17.166 18.093 14.413 20.843 17.166"/>
</svg>