<svg xmlns="http://www.w3.org/2000/svg" height="48" width="48" version="1.1" viewBox="0 0 48 48">
 <defs>
  <filter id="o" color-interpolation-filters="sRGB">
   <feGaussianBlur stdDeviation="1.2065414"/>
  </filter>
  <filter id="n" color-interpolation-filters="sRGB">
   <feGaussianBlur stdDeviation="0.89955545"/>
  </filter>
  <mask id="w">
   <rect fill-rule="evenodd" height="26.092" width="25.032" y="-3.7337" x="-4.6404" fill="#fff"/>
  </mask>
  <mask id="x">
   <rect fill-rule="evenodd" height="26.092" width="25.032" y="-3.7337" x="-4.6404" fill="#fff"/>
  </mask>
  <mask id="q">
   <rect fill-rule="evenodd" height="26.092" width="25.032" y="-3.7337" x="-4.6404" fill="#fff"/>
  </mask>
  <mask id="v">
   <rect fill-rule="evenodd" height="26.092" width="25.032" y="-3.7337" x="-4.6404" fill="#fff"/>
  </mask>
  <mask id="r">
   <rect fill-rule="evenodd" height="26.092" width="25.032" y="-3.7337" x="-4.6404" fill="#fff"/>
  </mask>
  <mask id="u">
   <rect fill-rule="evenodd" height="26.092" width="25.032" y="-3.7337" x="-4.6404" fill="#fff"/>
  </mask>
  <mask id="s">
   <rect fill-rule="evenodd" height="26.092" width="25.032" y="-3.7337" x="-4.6404" fill="#fff"/>
  </mask>
  <mask id="t">
   <rect fill-rule="evenodd" height="26.092" width="25.032" y="-3.7337" x="-4.6404" fill="#fff"/>
  </mask>
  <radialGradient id="y" gradientUnits="userSpaceOnUse" cy="112.3" cx="102" gradientTransform="matrix(.875 0 0 .85714 10 17.143)" r="139.56">
   <stop stop-color="#00537d" offset="0"/>
   <stop stop-color="#186389" offset=".0151"/>
   <stop stop-color="#558ca8" offset=".0558"/>
   <stop stop-color="#89afc3" offset=".0964"/>
   <stop stop-color="#b3ccd8" offset=".1357"/>
   <stop stop-color="#d4e2e9" offset=".1737"/>
   <stop stop-color="#ecf2f5" offset=".20990"/>
   <stop stop-color="#fafcfd" offset=".24350"/>
   <stop stop-color="#fff" offset=".27220"/>
  </radialGradient>
  <radialGradient id="z" gradientUnits="userSpaceOnUse" cy="109.33" cx="99.081" gradientTransform="matrix(.85638 0 0 .84156 11.191 18.14)" r="139.56">
   <stop stop-color="#7a7d80" offset="0"/>
   <stop stop-color="#c2c2c2" offset=".12618"/>
   <stop stop-color="#fafafa" offset=".23251"/>
   <stop stop-color="#fff" offset=".27220"/>
   <stop stop-color="#fafafa" offset=".53130"/>
   <stop stop-color="#ebecec" offset=".84490"/>
   <stop stop-color="#e1e2e3" offset="1"/>
  </radialGradient>
  <linearGradient id="p" y2="94.104" gradientUnits="userSpaceOnUse" x2="86.572" gradientTransform="matrix(.875 0 0 .85714 10 17.143)" y1="104" x1="96">
   <stop stop-color="#888a85" offset="0"/>
   <stop stop-color="#8c8e89" offset=".0072"/>
   <stop stop-color="#abaca9" offset=".0673"/>
   <stop stop-color="#c5c6c4" offset=".1347"/>
   <stop stop-color="#dbdbda" offset=".2115"/>
   <stop stop-color="#ebebeb" offset=".3012"/>
   <stop stop-color="#f7f7f6" offset=".4122"/>
   <stop stop-color="#fdfdfd" offset=".5679"/>
   <stop stop-color="#fff" offset="1"/>
  </linearGradient>
 </defs>
 <g transform="matrix(.47468 0 0 .42788 -6.467 -7.0045)">
  <path opacity=".6" d="m23 25v96h53.525c0.464 0 30.475-29.398 30.475-29.853v-66.147h-84z" transform="matrix(1.0476,0,0,1.0417,-2.0952,-4.0417)" filter="url(#n)"/>
  <path fill="url(#y)" d="m24 24v96h53.525c0.464 0 30.475-29.398 30.475-29.853v-66.147h-84z"/>
  <path fill="url(#z)" d="m26.606 25.714c-0.47187 0-0.85638 0.37786-0.85638 0.84156v90.888c0 0.46455 0.38452 0.84157 0.85638 0.84157h50.674c0.22523 0 0.44618-0.0892 0.60546-0.24658l28.115-27.618c0.16013-0.15737 0.25092-0.37365 0.25092-0.59498v-63.262c0-0.4637-0.38366-0.84156-0.85639-0.84156h-78.787z"/>
  <path opacity=".5" filter="url(#o)" d="m76.526 120s11.662-9 16.474-13.714c4.812-4.72 14-16.143 14-16.143s-8 5.853-24 5.853c0 16-6.4745 24-6.4745 24z"/>
  <path fill="url(#p)" d="m77.526 120s11.662-9 16.474-13.714c4.812-4.72 14-16.143 14-16.143s-8 5.853-24 5.853c0 16-6.4745 24-6.4745 24z"/>
 </g>
 <g transform="matrix(-.63561 0 0 .61084 41.848 10.591)">
  <a fill="#e5e500" mask="url(#w)" transform="matrix(-1.0533,0,0,-1.0414,46.87,47.939)">
   <path d="m40.093 23.074a14.001 13.576 0 1 1 -28.001 0 14.001 13.576 0 1 1 28.001 0z" fill-rule="evenodd" transform="matrix(.86364 0 0 .875 -1.0028 3.2555)" fill="#e5e500"/>
  </a>
  <a opacity=".83203" mask="url(#x)" transform="matrix(0 -1.0414 1.0533 0 -.64254 45.87)">
   <path fill-rule="evenodd" d="m40.093 23.074a14.001 13.576 0 1 1 -28.001 0 14.001 13.576 0 1 1 28.001 0z" transform="matrix(.86364 0 0 .875 -1.0028 3.2555)"/>
  </a>
  <a fill="#eded00" mask="url(#q)" transform="matrix(1.0533 0 0 1.0414 1.4155 -.94445)">
   <path d="m40.093 23.074a14.001 13.576 0 1 1 -28.001 0 14.001 13.576 0 1 1 28.001 0z" fill-rule="evenodd" transform="matrix(.86364 0 0 .875 -1.0028 3.2555)" fill="#eded00"/>
  </a>
  <path opacity=".9" d="m39.075 22.875a13.875 14.25 0 1 1 -0.0016 -0.21848l-13.873 0.218z" transform="matrix(.99191 0 0 .94943 -.85146 1.8348)" stroke="#000" stroke-width="1.5405" fill="none"/>
  <a opacity="0.83" mask="url(#v)" transform="matrix(0,1.0414,-1.0533,0,48.922,1.1043)">
   <path fill-rule="evenodd" d="m40.093 23.074a14.001 13.576 0 1 1 -28.001 0 14.001 13.576 0 1 1 28.001 0z" transform="matrix(.86364 0 0 .875 -1.0028 3.2555)"/>
  </a>
  <path opacity=".9" d="m4.5373 23.491h38.818" stroke="#000" stroke-width="2.016px" fill="none"/>
  <path opacity=".9" d="m24.134 4.5338v38.704" stroke="#000" stroke-width="2.1559px" fill="none"/>
  <a fill="#c1c100" mask="url(#r)" transform="matrix(.67174 0 0 .76458 7.6512 3.9816)">
   <path d="m40.093 23.074a14.001 13.576 0 1 1 -28.001 0 14.001 13.576 0 1 1 28.001 0z" fill-rule="evenodd" transform="matrix(.86364 0 0 .875 -1.0028 3.2555)" fill="#c1c100"/>
  </a>
  <a fill="#c1c100" mask="url(#u)" transform="matrix(-.67174 0 0 -.76458 40.662 43.016)">
   <path d="m40.093 23.074a14.001 13.576 0 1 1 -28.001 0 14.001 13.576 0 1 1 28.001 0z" fill-rule="evenodd" transform="matrix(.86364 0 0 .875 -1.0028 3.2555)" fill="#c1c100"/>
  </a>
  <a mask="url(#s)" transform="matrix(0 .67174 -.76458 0 43.801 7.3614)">
   <path fill-rule="evenodd" d="m40.093 23.074a14.001 13.576 0 1 1 -28.001 0 14.001 13.576 0 1 1 28.001 0z" transform="matrix(.86364 0 0 .875 -1.0028 3.2555)"/>
  </a>
  <a mask="url(#t)" transform="matrix(0 -.67174 .76458 0 4.4238 39.589)">
   <path fill-rule="evenodd" d="m40.093 23.074a14.001 13.576 0 1 1 -28.001 0 14.001 13.576 0 1 1 28.001 0z" transform="matrix(.86364 0 0 .875 -1.0028 3.2555)"/>
  </a>
 </g>
 <path opacity=".9" d="m40.358 10.051h-33.33" stroke="#000" stroke-width="1.46px" fill="none"/>
 <path opacity=".9" d="m12.409 36.054v-30.255" stroke="#000" stroke-width="1.4003px" fill="none"/>
 <path stroke-width="1.0342px" d="m41.484 9.9775-4.835-4.1493v8.5681z" stroke="#000"/>
 <path stroke-width="1.0342px" d="m12.507 38.483 4.2047-4.7718h-8.683z" stroke="#000"/>
</svg>
