<svg id="Слой_1" data-name="Слой 1"
  xmlns:dc="http://purl.org/dc/elements/1.1/"
  xmlns:cc="http://creativecommons.org/ns#"
  xmlns:rdf="http://www.w3.org/1999/02/22-rdf-syntax-ns#"
  xmlns="http://www.w3.org/2000/svg" viewBox="0 0 26 26">
  <metadata id="metadata43">
    <rdf:RDF>
      <cc:Work rdf:about="">
        <cc:license rdf:resource="http://creativecommons.org/licenses/by-sa/4.0/" />
        <dc:format>image/svg+xml</dc:format>
        <dc:type rdf:resource="http://purl.org/dc/dcmitype/StillImage" />
        <dc:title>add_arc</dc:title>
      </cc:Work>
      <cc:License rdf:about="http://creativecommons.org/licenses/by-sa/4.0/">
        <cc:permits rdf:resource="http://creativecommons.org/ns#Reproduction" />
        <cc:permits rdf:resource="http://creativecommons.org/ns#Distribution" />
        <cc:requires rdf:resource="http://creativecommons.org/ns#Notice" />
        <cc:requires rdf:resource="http://creativecommons.org/ns#Attribution" />
        <cc:permits rdf:resource="http://creativecommons.org/ns#DerivativeWorks" />
        <cc:requires rdf:resource="http://creativecommons.org/ns#ShareAlike" />
      </cc:License>
    </rdf:RDF>
  </metadata>
  <defs>
    <style>.cls-1{fill:#b9b9b9;}.cls-2{fill:#1a81c4;}.cls-3{fill:#fff;}.cls-4{fill:#e61c50;}.cls-5{fill:none;stroke:#f5f5f5;stroke-linecap:round;stroke-linejoin:round;stroke-width:2px;}</style>
  </defs>
  <title>post_gencad</title>
  <rect class="cls-1" x="4.049" y="1" width="17.9372" height="17.9833" rx="2.9934"/>
  <rect class="cls-2" x="1.0034" y="4.0014" width="18.71" height="9.2299"/>
  <path class="cls-3" d="M3.0723,10.9385H1.999V9.9023H3.0723Z"/>
  <path class="cls-3" d="M4.2285,8.6a3.1315,3.1315,0,0,1,.502-1.8535,1.61,1.61,0,0,1,1.3916-.707,1.5117,1.5117,0,0,1,.7568.1845,1.5977,1.5977,0,0,1,.5518.5313l.1064-.627h.8955v4.8106A1.8158,1.8158,0,0,1,7.86,12.374a2.3664,2.3664,0,0,1-1.6231.5069,3.1784,3.1784,0,0,1-.7559-.1,3.5011,3.5011,0,0,1-.7334-.2646l.2305-.8486a2.5832,2.5832,0,0,0,.5879.2148,2.8033,2.8033,0,0,0,.6621.0781A1.233,1.233,0,0,0,7.085,11.71a1.0085,1.0085,0,0,0,.2705-.7715v-.4932a1.5212,1.5212,0,0,1-.5342.4375,1.6055,1.6055,0,0,1-.708.1494,1.6524,1.6524,0,0,1-1.3828-.6455,2.6766,2.6766,0,0,1-.502-1.6933Zm1.0781.0938a1.8947,1.8947,0,0,0,.2637,1.06.9131.9131,0,0,0,.8184.3975,1.0985,1.0985,0,0,0,.583-.1446,1.0612,1.0612,0,0,0,.3838-.415V7.4844a1.1509,1.1509,0,0,0-.3887-.4112,1.0461,1.0461,0,0,0-.5693-.1494.884.884,0,0,0-.8223.4668A2.4017,2.4017,0,0,0,5.3066,8.6Z"/>
  <path class="cls-3" d="M11.5508,10.165a.9842.9842,0,0,0,.665-.2324.7326.7326,0,0,0,.2705-.581h.9756l.0088.0263a1.4239,1.4239,0,0,1-.5478,1.1651,2.0354,2.0354,0,0,1-1.3721.4892,1.9878,1.9878,0,0,1-1.625-.6845A2.6351,2.6351,0,0,1,9.36,8.6133V8.458a2.6366,2.6366,0,0,1,.5654-1.7324,1.9861,1.9861,0,0,1,1.625-.6865,1.9686,1.9686,0,0,1,1.4033.5048,1.6253,1.6253,0,0,1,.5215,1.2823l-.0088.0273h-.98a.94.94,0,0,0-.26-.6719.8848.8848,0,0,0-.6758-.2754.9106.9106,0,0,0-.86.4415,2.2137,2.2137,0,0,0-.2529,1.1084v.1552A2.2143,2.2143,0,0,0,10.69,9.7275.9116.9116,0,0,0,11.5508,10.165Z"/>
  <path class="cls-3" d="M14.1357,8.6a3.1767,3.1767,0,0,1,.4922-1.8555,1.5912,1.5912,0,0,1,1.3838-.705,1.5093,1.5093,0,0,1,.6983.1582,1.5645,1.5645,0,0,1,.5341.4511V4.0029h1.0772v6.9356H17.417l-.1065-.5957a1.5871,1.5871,0,0,1-.5537.5136,1.5571,1.5571,0,0,1-.7539.1758,1.6292,1.6292,0,0,1-1.375-.6455,2.7163,2.7163,0,0,1-.4922-1.6933Zm1.0772.0938a1.9422,1.9422,0,0,0,.2549,1.0625.8932.8932,0,0,0,.8095.3955,1.0833,1.0833,0,0,0,.5791-.1465,1.1149,1.1149,0,0,0,.3877-.418V7.4883a1.1264,1.1264,0,0,0-.3906-.4151,1.0485,1.0485,0,0,0-.5674-.1494.87.87,0,0,0-.8115.4649A2.46,2.46,0,0,0,15.2129,8.6Z"/>
  <ellipse class="cls-4" cx="18.0075" cy="17.9961" rx="6.9924" ry="7.0039"/>
  <line class="cls-5" x1="18.1112" y1="14.6254" x2="18.1112" y2="21.6293"/>
  <polyline class="cls-5" points="15.362 17.16 18.111 14.406 20.861 17.16"/>
</svg>