<svg id="Слой_1" data-name="Слой 1"
  xmlns:cc="http://creativecommons.org/ns#"
  xmlns:rdf="http://www.w3.org/1999/02/22-rdf-syntax-ns#"
  xmlns="http://www.w3.org/2000/svg" viewBox="0 0 26 26">
  <metadata id="metadata43">
    <rdf:RDF>
      <cc:Work rdf:about="">
        <cc:license rdf:resource="http://creativecommons.org/licenses/by/4.0/" />
      </cc:Work>
      <cc:License rdf:about="http://creativecommons.org/licenses/by/4.0/">
        <cc:permits rdf:resource="http://creativecommons.org/ns#Reproduction" />
        <cc:permits rdf:resource="http://creativecommons.org/ns#Distribution" />
        <cc:requires rdf:resource="http://creativecommons.org/ns#Notice" />
        <cc:requires rdf:resource="http://creativecommons.org/ns#Attribution" />
        <cc:permits rdf:resource="http://creativecommons.org/ns#DerivativeWorks" />
      </cc:License>
    </rdf:RDF>
  </metadata>
  <defs>
    <style>.cls-1{fill:#b9b9b9;}.cls-2{fill:#1a81c4;}.cls-3{fill:#fff;}.cls-4{fill:#e61c50;}.cls-5{fill:none;stroke:#f5f5f5;stroke-linecap:round;stroke-linejoin:round;stroke-width:2px;}</style>
  </defs>
  <title>post_bom</title>
  <rect class="cls-1" x="4.049" y="1" width="17.9372" height="17.9833" rx="2.9934"/>
  <rect class="cls-2" x="1.0004" y="4.0023" width="19.2667" height="9.2298"/>
  <path class="cls-3" d="M2.5615,10.94h-.958v-.9249h.958Z"/>
  <path class="cls-3" d="M7.5273,8.9355A2.4272,2.4272,0,0,1,7.09,10.4492a1.4574,1.4574,0,0,1-1.2324.5733,1.414,1.414,0,0,1-.6943-.1621,1.3569,1.3569,0,0,1-.4922-.4766l-.0957.5557H3.7686V4.75H4.73V7.1348a1.3812,1.3812,0,0,1,.4756-.4209A1.3576,1.3576,0,0,1,5.85,6.5674a1.4227,1.4227,0,0,1,1.24.6269,2.84,2.84,0,0,1,.4375,1.6582Zm-.9609-.083A2.2162,2.2162,0,0,0,6.3359,7.77a.7714.7714,0,0,0-.7275-.4121A.9453.9453,0,0,0,5.0723,7.5a1.0023,1.0023,0,0,0-.3428.3965V9.6973a.9408.9408,0,0,0,.3408.3994.9862.9862,0,0,0,.5459.1406.7975.7975,0,0,0,.7246-.3516,1.74,1.74,0,0,0,.2256-.95Z"/>
  <path class="cls-3" d="M8.18,8.7539a2.3461,2.3461,0,0,1,.5224-1.5713,1.7987,1.7987,0,0,1,1.4366-.6152,1.7916,1.7916,0,0,1,1.4443.6152,2.3224,2.3224,0,0,1,.5264,1.5713v.083a2.3346,2.3346,0,0,1-.5264,1.5791,1.7952,1.7952,0,0,1-1.4365.6065,1.8055,1.8055,0,0,1-1.4444-.61A2.3424,2.3424,0,0,1,8.18,8.8369Zm.9619.0811a1.9231,1.9231,0,0,0,.2451,1.0224.9252.9252,0,0,0,1.5117,0,1.87,1.87,0,0,0,.253-1.0224V8.752a1.8445,1.8445,0,0,0-.253-1.0108.9136.9136,0,0,0-1.5117,0A1.9083,1.9083,0,0,0,9.1416,8.752Z"/>
  <path class="cls-3" d="M13.8271,6.6465l.0518.56a1.457,1.457,0,0,1,.5264-.4717,1.5441,1.5441,0,0,1,.7314-.167,1.3182,1.3182,0,0,1,.7207.19,1.1543,1.1543,0,0,1,.4512.5713,1.4962,1.4962,0,0,1,.5225-.56,1.4066,1.4066,0,0,1,.76-.2021,1.2631,1.2631,0,0,1,1.0186.4424,2.0439,2.0439,0,0,1,.374,1.3427V10.94h-.9619V8.3486a1.209,1.209,0,0,0-.1875-.7695.6957.6957,0,0,0-.5635-.2217.8222.8222,0,0,0-.5225.166.9252.9252,0,0,0-.3085.4483c0,.04.0009.0742.0039.1035s.0039.0566.0039.083V10.94h-.9619V8.3486a1.1951,1.1951,0,0,0-.1915-.76.6928.6928,0,0,0-.5644-.2315,1.01,1.01,0,0,0-.4961.1123.839.839,0,0,0-.3232.3194v3.15h-.961V6.6465Z"/>
  <ellipse class="cls-4" cx="18.0075" cy="17.9961" rx="6.9924" ry="7.0039"/>
  <line class="cls-5" x1="18.1112" y1="14.6254" x2="18.1112" y2="21.6293"/>
  <polyline class="cls-5" points="15.362 17.16 18.111 14.406 20.861 17.16"/>
</svg>