<svg id="Слой_1" data-name="Слой 1"
  xmlns:dc="http://purl.org/dc/elements/1.1/"
  xmlns:cc="http://creativecommons.org/ns#"
  xmlns:rdf="http://www.w3.org/1999/02/22-rdf-syntax-ns#"
  xmlns="http://www.w3.org/2000/svg"
  xmlns:sodipodi="http://sodipodi.sourceforge.net/DTD/sodipodi-0.dtd"
  xmlns:inkscape="http://www.inkscape.org/namespaces/inkscape" viewBox="0 0 26 26">
  <sodipodi:namedview pagecolor="#ffffff" bordercolor="#666666" borderopacity="1" objecttolerance="10" gridtolerance="10" guidetolerance="10" inkscape:pageopacity="0" inkscape:pageshadow="2" inkscape:window-width="1609" inkscape:window-height="1286" id="namedview30" showgrid="true" inkscape:zoom="27.961538" inkscape:cx="13" inkscape:cy="13" inkscape:window-x="0" inkscape:window-y="37" inkscape:window-maximized="0">
    <inkscape:grid type="xygrid" id="grid_kicad" spacingx="0.5" spacingy="0.5" color="#9999ff" opacity="0.13" empspacing="2" />
  </sodipodi:namedview>
  <metadata id="metadata43">
    <rdf:RDF>
      <cc:Work rdf:about="">
        <cc:license rdf:resource="http://creativecommons.org/licenses/by-sa/4.0/" />
        <dc:format>image/svg+xml</dc:format>
        <dc:type rdf:resource="http://purl.org/dc/dcmitype/StillImage" />
        <dc:title>add_arc</dc:title>
      </cc:Work>
      <cc:License rdf:about="http://creativecommons.org/licenses/by-sa/4.0/">
        <cc:permits rdf:resource="http://creativecommons.org/ns#Reproduction" />
        <cc:permits rdf:resource="http://creativecommons.org/ns#Distribution" />
        <cc:requires rdf:resource="http://creativecommons.org/ns#Notice" />
        <cc:requires rdf:resource="http://creativecommons.org/ns#Attribution" />
        <cc:permits rdf:resource="http://creativecommons.org/ns#DerivativeWorks" />
        <cc:requires rdf:resource="http://creativecommons.org/ns#ShareAlike" />
      </cc:License>
    </rdf:RDF>
  </metadata>
  <defs>
    <style>.cls-1{fill:#b9b9b9;}.cls-2{fill:#1a81c4;}.cls-3{fill:#fff;}.cls-4{fill:#e61c50;}.cls-5{fill:none;stroke:#f5f5f5;stroke-linecap:round;stroke-linejoin:round;stroke-width:2px;}</style>
  </defs>
  <title>post_gerber</title>
  <rect class="cls-1" x="4.049" y="1" width="17.9372" height="17.9833" rx="2.9934"/>
  <rect class="cls-2" x="0.9996" y="4.0006" width="18.71" height="9.2299"/>
  <path class="cls-3" d="M3.0688,10.9375H1.9955V9.9014H3.0688Z"/>
  <path class="cls-3" d="M4.225,8.5986a3.1315,3.1315,0,0,1,.502-1.8535,1.61,1.61,0,0,1,1.3916-.707,1.5107,1.5107,0,0,1,.7568.1846,1.5974,1.5974,0,0,1,.5518.5312l.1064-.6269h.8955v4.8105a1.8154,1.8154,0,0,1-.5723,1.4355,2.366,2.366,0,0,1-1.623.5069,3.1825,3.1825,0,0,1-.7559-.1,3.5012,3.5012,0,0,1-.7334-.2647l.23-.8486a2.5832,2.5832,0,0,0,.5879.2148,2.8033,2.8033,0,0,0,.6621.0782,1.2329,1.2329,0,0,0,.8565-.251,1.0085,1.0085,0,0,0,.2705-.7715v-.4932a1.5212,1.5212,0,0,1-.5342.4375,1.6055,1.6055,0,0,1-.708.1494,1.6522,1.6522,0,0,1-1.3828-.6455,2.6764,2.6764,0,0,1-.502-1.6933Zm1.0781.0938a1.8947,1.8947,0,0,0,.2637,1.0605.913.913,0,0,0,.8184.3975,1.0994,1.0994,0,0,0,.583-.1445,1.0615,1.0615,0,0,0,.3838-.4151V7.4834a1.15,1.15,0,0,0-.3887-.4111,1.0461,1.0461,0,0,0-.5693-.1494.8839.8839,0,0,0-.8223.4667,2.402,2.402,0,0,0-.2686,1.209Z"/>
  <path class="cls-3" d="M13.7777,8.6924a2.7228,2.7228,0,0,1-.49,1.6963,1.6369,1.6369,0,0,1-1.3808.6425,1.5894,1.5894,0,0,1-.7784-.1826,1.5139,1.5139,0,0,1-.5517-.5332l-.1065.6221H9.5649V4.002H10.643V6.6738a1.544,1.544,0,0,1,.5322-.4707,1.51,1.51,0,0,1,.7227-.165,1.5953,1.5953,0,0,1,1.39.7021,3.1845,3.1845,0,0,1,.49,1.8584Zm-1.0771-.0938a2.479,2.479,0,0,0-.2578-1.2129.8657.8657,0,0,0-.8154-.4628,1.0705,1.0705,0,0,0-.6016.16,1.1169,1.1169,0,0,0-.3828.4443V9.5459a1.06,1.06,0,0,0,.3808.4473,1.114,1.114,0,0,0,.6123.1572.8931.8931,0,0,0,.8116-.3936,1.9557,1.9557,0,0,0,.2529-1.0644Z"/>
  <path class="cls-3" d="M17.099,7.1006l-.4609-.0176a.9606.9606,0,0,0-.5264.1338.8794.8794,0,0,0-.3252.377v3.3437H14.7084V6.127h.9844l.0713.6982a1.5454,1.5454,0,0,1,.4677-.5781,1.084,1.084,0,0,1,.6582-.209.9834.9834,0,0,1,.1827.0156,1.4333,1.4333,0,0,1,.1543.0381Z"/>
  <path class="cls-4" d="M25,17.9961a6.9925,6.9925,0,1,1-6.9926-7.0039A6.9981,6.9981,0,0,1,25,17.9961Z"/>
  <line class="cls-5" x1="18.1111" y1="14.6254" x2="18.1111" y2="21.6293"/>
  <polyline class="cls-5" points="15.362 17.16 18.111 14.406 20.861 17.16"/>
</svg>