<svg id="Слой_1" data-name="Слой 1"
  xmlns:dc="http://purl.org/dc/elements/1.1/"
  xmlns:cc="http://creativecommons.org/ns#"
  xmlns:rdf="http://www.w3.org/1999/02/22-rdf-syntax-ns#"
  xmlns="http://www.w3.org/2000/svg" viewBox="0 0 26 26">
  <metadata id="metadata43">
    <rdf:RDF>
      <cc:Work rdf:about="">
        <cc:license rdf:resource="http://creativecommons.org/licenses/by-sa/4.0/" />
        <dc:format>image/svg+xml</dc:format>
        <dc:type rdf:resource="http://purl.org/dc/dcmitype/StillImage" />
        <dc:title>add_arc</dc:title>
      </cc:Work>
      <cc:License rdf:about="http://creativecommons.org/licenses/by-sa/4.0/">
        <cc:permits rdf:resource="http://creativecommons.org/ns#Reproduction" />
        <cc:permits rdf:resource="http://creativecommons.org/ns#Distribution" />
        <cc:requires rdf:resource="http://creativecommons.org/ns#Notice" />
        <cc:requires rdf:resource="http://creativecommons.org/ns#Attribution" />
        <cc:permits rdf:resource="http://creativecommons.org/ns#DerivativeWorks" />
        <cc:requires rdf:resource="http://creativecommons.org/ns#ShareAlike" />
      </cc:License>
    </rdf:RDF>
  </metadata>
  <defs>
    <style>.cls-1{fill:#b9b9b9;}.cls-2{fill:#1a81c4;}.cls-3{fill:#fff;}.cls-4{fill:#e61c50;}.cls-5{fill:none;stroke:#f5f5f5;stroke-linecap:round;stroke-linejoin:round;stroke-width:2px;}</style>
  </defs>
  <title>post_drill</title>
  <rect class="cls-1" x="4.049" y="1" width="17.9372" height="17.9833" rx="2.9934"/>
  <rect class="cls-2" x="0.9998" y="4.0009" width="18.71" height="9.2298"/>
  <path class="cls-3" d="M3.0684,11.876H1.9951V10.84H3.0684Z"/>
  <path class="cls-3" d="M4.2207,9.5371a3.1767,3.1767,0,0,1,.4922-1.8555,1.5911,1.5911,0,0,1,1.3838-.705,1.5088,1.5088,0,0,1,.6982.1582,1.5649,1.5649,0,0,1,.5342.4511V4.94H8.4062V11.876H7.502L7.3955,11.28a1.588,1.588,0,0,1-.5537.5136,1.5573,1.5573,0,0,1-.7539.1758,1.629,1.629,0,0,1-1.375-.6455,2.7163,2.7163,0,0,1-.4922-1.6933Zm1.0772.0938a1.9422,1.9422,0,0,0,.2548,1.0625.8934.8934,0,0,0,.81.3955,1.0835,1.0835,0,0,0,.5791-.1465,1.1156,1.1156,0,0,0,.3877-.418V8.4258a1.128,1.128,0,0,0-.3906-.4151,1.0487,1.0487,0,0,0-.5674-.1494.87.87,0,0,0-.8115.4649,2.459,2.459,0,0,0-.2617,1.2109Z"/>
  <path class="cls-3" d="M11.9551,8.0391l-.461-.0176a.9594.9594,0,0,0-.5263.1338.8784.8784,0,0,0-.3252.3769V11.876H9.5645V7.0654h.9843l.0713.6983a1.5467,1.5467,0,0,1,.4678-.5782,1.0841,1.0841,0,0,1,.6582-.2089.9738.9738,0,0,1,.1826.0156,1.4043,1.4043,0,0,1,.1543.0381Z"/>
  <path class="cls-3" d="M13.8564,11.876H12.7793V4.94h1.0771Z"/>
  <ellipse class="cls-4" cx="18.0075" cy="17.9961" rx="6.9924" ry="7.0039"/>
  <line class="cls-5" x1="18.1112" y1="14.6254" x2="18.1112" y2="21.6293"/>
  <polyline class="cls-5" points="15.362 17.16 18.111 14.406 20.861 17.16"/>
</svg>