<svg xmlns="http://www.w3.org/2000/svg" height="48" width="48" version="1.1" xmlns:xlink="http://www.w3.org/1999/xlink" viewBox="0 0 48 48">
 <defs>
  <filter id="l" color-interpolation-filters="sRGB">
   <feGaussianBlur stdDeviation="1.2065414"/>
  </filter>
  <filter id="j" color-interpolation-filters="sRGB">
   <feGaussianBlur stdDeviation="0.89955545"/>
  </filter>
  <radialGradient id="p" gradientUnits="userSpaceOnUse" cy="112.3" cx="102" gradientTransform="matrix(.875 0 0 .85714 10 17.143)" r="139.56">
   <stop stop-color="#00537d" offset="0"/>
   <stop stop-color="#186389" offset=".0151"/>
   <stop stop-color="#558ca8" offset=".0558"/>
   <stop stop-color="#89afc3" offset=".0964"/>
   <stop stop-color="#b3ccd8" offset=".1357"/>
   <stop stop-color="#d4e2e9" offset=".1737"/>
   <stop stop-color="#ecf2f5" offset=".20990"/>
   <stop stop-color="#fafcfd" offset=".24350"/>
   <stop stop-color="#fff" offset=".27220"/>
  </radialGradient>
  <radialGradient id="q" gradientUnits="userSpaceOnUse" cy="109.33" cx="99.081" gradientTransform="matrix(.85638 0 0 .84156 11.191 18.14)" r="139.56">
   <stop stop-color="#7a7d80" offset="0"/>
   <stop stop-color="#c2c2c2" offset=".12618"/>
   <stop stop-color="#fafafa" offset=".23251"/>
   <stop stop-color="#fff" offset=".27220"/>
   <stop stop-color="#fafafa" offset=".53130"/>
   <stop stop-color="#ebecec" offset=".84490"/>
   <stop stop-color="#e1e2e3" offset="1"/>
  </radialGradient>
  <linearGradient id="m" y2="94.104" gradientUnits="userSpaceOnUse" x2="86.572" gradientTransform="matrix(.875 0 0 .85714 10 17.143)" y1="104" x1="96">
   <stop stop-color="#888a85" offset="0"/>
   <stop stop-color="#8c8e89" offset=".0072"/>
   <stop stop-color="#abaca9" offset=".0673"/>
   <stop stop-color="#c5c6c4" offset=".1347"/>
   <stop stop-color="#dbdbda" offset=".2115"/>
   <stop stop-color="#ebebeb" offset=".3012"/>
   <stop stop-color="#f7f7f6" offset=".4122"/>
   <stop stop-color="#fdfdfd" offset=".5679"/>
   <stop stop-color="#fff" offset="1"/>
  </linearGradient>
  <linearGradient id="o" y2="7.8438" xlink:href="#a" gradientUnits="userSpaceOnUse" x2="12.922" y1="6.0625" x1="11.078"/>
  <linearGradient id="a">
   <stop stop-color="#fff" offset="0"/>
   <stop stop-color="#babaff" offset="1"/>
  </linearGradient>
  <linearGradient id="n" y2="10.441" xlink:href="#a" gradientUnits="userSpaceOnUse" x2="12.136" gradientTransform="matrix(1.6113,0,0,2.0018,5.897,10.72)" y1="1.9828" x1="3.4673"/>
  <filter id="k" color-interpolation-filters="sRGB">
   <feGaussianBlur stdDeviation="0.26143807"/>
  </filter>
 </defs>
 <g transform="matrix(.47468 0 0 .42788 -6.467 -7.0045)">
  <path opacity=".6" d="m23 25v96h53.525c0.464 0 30.475-29.398 30.475-29.853v-66.147h-84z" transform="matrix(1.0476,0,0,1.0417,-2.0952,-4.0417)" filter="url(#j)"/>
  <path fill="url(#p)" d="m24 24v96h53.525c0.464 0 30.475-29.398 30.475-29.853v-66.147h-84z"/>
  <path fill="url(#q)" d="m26.606 25.714c-0.47187 0-0.85638 0.37786-0.85638 0.84156v90.888c0 0.46455 0.38452 0.84157 0.85638 0.84157h50.674c0.22523 0 0.44618-0.0892 0.60546-0.24658l28.115-27.618c0.16013-0.15737 0.25092-0.37365 0.25092-0.59498v-63.262c0-0.4637-0.38366-0.84156-0.85639-0.84156h-78.787z"/>
  <path opacity=".5" filter="url(#l)" d="m76.526 120s11.662-9 16.474-13.714c4.812-4.72 14-16.143 14-16.143s-8 5.853-24 5.853c0 16-6.4745 24-6.4745 24z"/>
  <path fill="url(#m)" d="m77.526 120s11.662-9 16.474-13.714c4.812-4.72 14-16.143 14-16.143s-8 5.853-24 5.853c0 16-6.4745 24-6.4745 24z"/>
 </g>
 <g transform="matrix(.74661 0 0 .79847 16.665 .51902)">
  <rect fill-opacity="0" height="16" width="16" y="0" x="0"/>
 </g>
 <g opacity=".30078" filter="url(#k)" transform="matrix(1.8157,0,0,1.7764,-3.1921,-11.041)">
  <path fill-rule="evenodd" d="m8 13.25v14l10.5-7-10.5-7z"/>
  <rect y="17.25" width="1.9942" x="6.0058" height="1"/>
  <rect y="22.25" width="2" x="6" height="1"/>
  <path d="m14.5 6.5a1.5 1.5 0 1 1 -3 0 1.5 1.5 0 1 1 3 0z" transform="matrix(1.3333 0 0 1.3333 .66664 11.583)"/>
  <rect y="19.75" width="2.4942" x="19.506" height="1"/>
 </g>
 <rect transform="matrix(-1.7e-7,1,-1,-4.6099e-8,0,0)" height="1.8157" width="1.7764" y="-13.149" x="14.273" fill="#fff"/>
 <path fill-rule="evenodd" d="m9.5178 10.72v24.87l19.065-12.435-19.065-12.435z"/>
 <rect y="17.826" width="1.8157" x="7.7021" height="1.7764"/>
 <rect y="26.708" width="1.8157" x="7.7021" height="1.7764"/>
 <path fill-rule="evenodd" fill="url(#n)" d="m11.344 14.273v17.764l14.526-8.882-14.526-8.882z"/>
 <path d="m14.5 6.5a1.5 1.5 0 1 1 -3 0 1.5 1.5 0 1 1 3 0z" transform="matrix(2.4209,0,0,2.3686,-3.7974,7.7594)"/>
 <path fill="url(#o)" d="m13 7a1 1 0 1 1 -2 0 1 1 0 1 1 2 0z" transform="matrix(1.8157,0,0,1.7764,5.8864,10.72)"/>
 <rect y="22.267" width="4.5287" x="30.409" height="1.7764"/>
 <g fill-rule="evenodd" transform="matrix(.80699 0 0 .90684 -22.065 7.996)">
  <path fill="#9b9b9b" d="m52.807 0.10325h5.6249v1.9589l-3.375 5.8916h-2.25l3.375-5.8768h-3.375v-1.9738z"/>
  <path fill="#9b9b9b" d="m74.181 0.10325v1.9589h3.375v0.97946l-3.375 2.9384v1.9589h5.6249v-1.9589h-3.375l3.375-2.9384v-1.959l-1.125-0.99432-4.5 0.01489z"/>
  <path fill="#9b9b9b" d="m67.431 2.17 0.01708 3.81 1.1079 1.9589h3.375l1.1421-2.0667v-3.9178l-1.1421-1.8511h-3.375l-1.125 2.0667z"/>
  <path fill="#fff" d="m68.556 3.0416 1.125-0.97946h1.125l1.125 0.9795v1.9589l-1.125 0.9795h-1.125l-1.125-0.9795v-1.9589z"/>
  <path fill="#9b9b9b" d="m59.557 0.10325v4.8973h4.5v2.9384h2.25v-7.8357h-2.25v2.9384h-2.25v-2.9384h-2.25z"/>
 </g>
</svg>
