<svg id="Слой_1" data-name="Слой 1"
  xmlns:cc="http://creativecommons.org/ns#"
  xmlns:rdf="http://www.w3.org/1999/02/22-rdf-syntax-ns#"
  xmlns="http://www.w3.org/2000/svg" viewBox="0 0 26 26">
  <metadata id="metadata43">
    <rdf:RDF>
      <cc:Work rdf:about="">
        <cc:license rdf:resource="http://creativecommons.org/licenses/by/4.0/" />
      </cc:Work>
      <cc:License rdf:about="http://creativecommons.org/licenses/by/4.0/">
        <cc:permits rdf:resource="http://creativecommons.org/ns#Reproduction" />
        <cc:permits rdf:resource="http://creativecommons.org/ns#Distribution" />
        <cc:requires rdf:resource="http://creativecommons.org/ns#Notice" />
        <cc:requires rdf:resource="http://creativecommons.org/ns#Attribution" />
        <cc:permits rdf:resource="http://creativecommons.org/ns#DerivativeWorks" />
      </cc:License>
    </rdf:RDF>
  </metadata>
  <defs>
    <style>.cls-1{fill:#fff;}.cls-2{fill:#e61c50;}</style>
  </defs>
  <title>preference</title>
  <circle class="cls-1" cx="13" cy="13" r="5.9339"/>
  <path class="cls-2" d="M24.0866,15.6782l-2.1694-1.5525-.0257.046a8.8869,8.8869,0,0,0,.1186-1.1771,8.8934,8.8934,0,0,0-.1263-1.2519l.0127.0217,2.1526-1.5754a1.1464,1.1464,0,0,0,.3163-1.4969L22.4266,5.323a1.1463,1.1463,0,0,0-1.4531-.4784L18.53,5.914l.0212.0368a8.936,8.936,0,0,0-2.1865-1.2957l-.29-2.6336a1.1463,1.1463,0,0,0-1.1393-1.0209H11.048a1.1466,1.1466,0,0,0-1.14,1.0209L9.6174,4.6666A8.9321,8.9321,0,0,0,7.3561,6.0434l.0308-.0551L4.932,4.9449a1.1463,1.1463,0,0,0-1.4481.494l-1.9031,3.39a1.1467,1.1467,0,0,0,.3326,1.4934l2.1694,1.5525L4.13,11.79a8.9368,8.9368,0,0,0-.1213,1.2045A8.9055,8.9055,0,0,0,4.14,14.2982l-.036-.0628L1.9514,15.811a1.146,1.146,0,0,0-.3168,1.4967L3.5734,20.677a1.1464,1.1464,0,0,0,1.453.4784l2.4442-1.07-.05-.0868a8.9382,8.9382,0,0,0,2.2137,1.3286l.2917,2.6509a1.146,1.146,0,0,0,1.1393,1.0209h3.8872a1.1462,1.1462,0,0,0,1.1393-1.0209l.2919-2.65a8.933,8.933,0,0,0,2.256-1.363l-.0264.0464,2.4553,1.0434a1.1462,1.1462,0,0,0,1.4479-.4938l1.9029-3.39A1.1465,1.1465,0,0,0,24.0866,15.6782ZM13.01,17.2759a4.2813,4.2813,0,1,1,4.2813-4.2813A4.2816,4.2816,0,0,1,13.01,17.2759Z"/>
</svg>