<svg xmlns="http://www.w3.org/2000/svg" height="48" width="48" version="1.1" xmlns:xlink="http://www.w3.org/1999/xlink">
 <defs>
  <linearGradient id="b">
   <stop stop-color="#fff" offset="0"/>
   <stop stop-color="#fff" stop-opacity="0" offset="1"/>
  </linearGradient>
  <linearGradient id="a">
   <stop offset="0"/>
   <stop stop-opacity="0" offset="1"/>
  </linearGradient>
  <clipPath id="an">
   <path display="block" fill="url(#linearGradient3774)" d="m30.916 135.97c-0.93726 0.54113-1.2283 1.7475-0.67792 2.7008l1.9375 3.3558c-1.4181 1.4141-2.6223 3.012-3.5955 4.71l-3.7836-0.99094c-0.53163-0.14245-1.0379-0.11751-1.4762 0.13061-0.43816 0.24835-0.79654 0.66758-0.9366 1.1903l-1.9788 7.3851c-0.2801 1.0454 0.36595 2.0654 1.4291 2.3503l3.7722 1.0336c-0.0062 1.9571 0.23771 3.943 0.75875 5.8767l-3.3558 1.9375c-0.95328 0.55038-1.3044 1.7407-0.7633 2.6779l3.8125 6.6034c0.54113 0.93726 1.7475 1.2283 2.7008 0.67792l3.3558-1.9375c1.4141 1.4181 3.012 2.6223 4.71 3.5954l-0.99094 3.7836c-0.2849 1.0632 0.27544 2.1327 1.3209 2.4128l7.3851 1.9788c1.0454 0.28012 2.0654-0.36588 2.3503-1.4291l1.0336-3.7722c1.9571 0.006 3.943-0.2377 5.8767-0.75875l1.9375 3.3558c0.55038 0.95327 1.7407 1.3044 2.6779 0.7633l6.6034-3.8125c0.93726-0.54113 1.2283-1.7475 0.67792-2.7008l-1.9375-3.3558c1.4181-1.4141 2.6223-3.012 3.5955-4.71l3.7836 0.99095c1.0632 0.28489 2.1327-0.2755 2.4128-1.3209l1.9788-7.3851c0.2801-1.0454-0.36595-2.0654-1.4291-2.3503l-3.7722-1.0336c0.0062-1.9571-0.2377-3.943-0.75876-5.8767l3.3558-1.9375c0.95327-0.55037 1.3044-1.7407 0.7633-2.6779l-3.8125-6.6034c-0.54113-0.93727-1.7475-1.2283-2.7008-0.67793l-3.3558 1.9375c-1.4141-1.4181-3.012-2.6223-4.71-3.5954l0.99094-3.7836c0.2849-1.0632-0.27542-2.1328-1.3209-2.4128l-7.3851-1.9788c-1.0454-0.28011-2.0654 0.36588-2.3503 1.4291l-1.0336 3.7722c-1.9571-0.006-3.943 0.23771-5.8767 0.75876l-1.9375-3.3558c-0.55038-0.95329-1.7407-1.3044-2.6779-0.7633l-6.6034 3.8125zm13.052 14.981c3.8263-2.2091 8.7191-0.89814 10.928 2.9282 2.2091 3.8263 0.89814 8.7191-2.9282 10.928-3.8263 2.2091-8.7191 0.89814-10.928-2.9282-2.2091-3.8264-0.89814-8.7191 2.9282-10.928z"/>
  </clipPath>
  <radialGradient id="al" xlink:href="#a" gradientUnits="userSpaceOnUse" cy="41.5" cx="5" gradientTransform="matrix(.99002 0 0 1.1 32.115 -5.15)" r="5"/>
  <radialGradient id="am" xlink:href="#a" gradientUnits="userSpaceOnUse" cy="41.5" cx="5" gradientTransform="matrix(.99001 0 0 1.1 -14.885 -86.15)" r="5"/>
  <linearGradient id="aj" y2="35" gradientUnits="userSpaceOnUse" x2="17.554" gradientTransform="matrix(1.1795,0,0,1,-4.2194,0)" y1="46" x1="17.554">
   <stop stop-opacity="0" offset="0"/>
   <stop offset=".5"/>
   <stop stop-opacity="0" offset="1"/>
  </linearGradient>
  <radialGradient id="ak" gradientUnits="userSpaceOnUse" cy="39.161" cx="25.456" gradientTransform="matrix(1 0 0 .31532 0 26.813)" r="19.622">
   <stop offset="0"/>
   <stop stop-opacity="0" offset="1"/>
  </radialGradient>
  <linearGradient id="ad" y2="39.685" gradientUnits="userSpaceOnUse" x2="34.534" gradientTransform="matrix(1.2419,0,0,1.2419,36.866,-2.4533)" y1="12.285" x1="14.463">
   <stop stop-color="#c9c9c9" offset="0"/>
   <stop stop-color="#f8f8f8" offset=".25"/>
   <stop stop-color="#e2e2e2" offset=".5"/>
   <stop stop-color="#b0b0b0" offset=".75"/>
   <stop stop-color="#c9c9c9" offset="1"/>
  </linearGradient>
  <linearGradient id="ao" y2="36.049" gradientUnits="userSpaceOnUse" x2="18.938" gradientTransform="matrix(1.2963 0 0 1.1069 67.324 .35705)" y1="33.95" x1="18.938">
   <stop offset="0"/>
   <stop stop-opacity="0" offset="1"/>
  </linearGradient>
  <linearGradient id="ae" y2="48.125" xlink:href="#b" gradientUnits="userSpaceOnUse" x2="50.5" gradientTransform="matrix(1.2963 0 0 1.1069 15.473 .35705)" y1="33.75" x1="48.25"/>
  <linearGradient id="ap" y2="40.006" gradientUnits="userSpaceOnUse" x2="71.562" gradientTransform="matrix(1.2963 0 0 1.1069 15.473 .35705)" y1="18.675" x1="66.84">
   <stop stop-color="#eeeeec" offset="0"/>
   <stop stop-color="#e9b96e" offset="1"/>
  </linearGradient>
  <linearGradient id="aq" y2="21.5" gradientUnits="userSpaceOnUse" x2="12.11" gradientTransform="matrix(1.2963,0,0,-1.1069,67.324,53.489)" y1="21.5" x1="10.749">
   <stop stop-color="#8f5902" offset="0"/>
   <stop stop-color="#8f5902" stop-opacity="0" offset="1"/>
  </linearGradient>
  <linearGradient id="ar" y2="21.562" gradientUnits="userSpaceOnUse" x2="13.168" gradientTransform="matrix(-1.2963,0,0,-1.1069,128.15,53.489)" y1="21.562" x1="11.124">
   <stop stop-color="#e9b96e" offset="0"/>
   <stop stop-color="#e9b96e" stop-opacity="0" offset="1"/>
  </linearGradient>
  <linearGradient id="as" y2="37.447" gradientUnits="userSpaceOnUse" x2="17.38" gradientTransform="matrix(1.2987,0,0,-1.4846,67.306,63.438)" y1="20.096" x1="17.38">
   <stop stop-color="#eaba6f" offset="0"/>
   <stop stop-color="#b97a1b" offset="1"/>
  </linearGradient>
  <linearGradient id="at" y2="23.531" gradientUnits="userSpaceOnUse" x2="20.812" gradientTransform="matrix(1.2929 0 0 1.087 67.324 .34217)" y1="24.594" x1="20.781">
   <stop offset="0"/>
   <stop stop-opacity="0" offset="1"/>
  </linearGradient>
  <linearGradient id="au" y2="24.08" gradientUnits="userSpaceOnUse" x2="22.188" gradientTransform="matrix(1.2963 0 0 1.1069 67.324 .35705)" y1="20" x1="22.188">
   <stop stop-color="#e9b96e" offset="0"/>
   <stop stop-color="#e9b96e" stop-opacity="0" offset="1"/>
  </linearGradient>
  <linearGradient id="av" y2="45.017" gradientUnits="userSpaceOnUse" x2="20.759" gradientTransform="matrix(.83721 0 0 .83721 107.91 38.744)" y1="1" x1="20.759">
   <stop stop-color="#f0f0f0" offset="0"/>
   <stop stop-color="#aaa" offset="1"/>
  </linearGradient>
  <linearGradient id="ac" y2="66.233" xlink:href="#a" gradientUnits="userSpaceOnUse" x2="126.14" y1="48.047" x1="48.234"/>
  <linearGradient id="z" y2="62.839" xlink:href="#a" gradientUnits="userSpaceOnUse" x2="126.67" y1="48.032" x1="48.055"/>
  <linearGradient id="aa" y2="60.29" xlink:href="#a" gradientUnits="userSpaceOnUse" x2="127.05" y1="48.029" x1="47.997"/>
  <linearGradient id="ab" y2="57.665" xlink:href="#a" gradientUnits="userSpaceOnUse" x2="127.42" y1="48.029" x1="47.998"/>
  <linearGradient id="af" y2="66.233" xlink:href="#b" gradientUnits="userSpaceOnUse" x2="126.14" y1="48.047" x1="48.234"/>
  <linearGradient id="ag" y2="62.839" xlink:href="#b" gradientUnits="userSpaceOnUse" x2="126.67" y1="48.032" x1="48.055"/>
  <linearGradient id="ah" y2="60.29" xlink:href="#b" gradientUnits="userSpaceOnUse" x2="127.05" y1="48.029" x1="47.997"/>
  <linearGradient id="ai" y2="57.665" xlink:href="#b" gradientUnits="userSpaceOnUse" x2="127.42" y1="48.029" x1="47.998"/>
 </defs>
 <path opacity=".6" style="color:#000000" d="m82.596 21.388c-0.53698 0-0.70899 0.07794-0.85068 0.17296s-0.32553 0.29557-0.4861 0.69182l-2.1064 5.7767h37.187l-2.147-5.5691c-0.27047-0.57414-0.46403-0.7592-0.64813-0.86477-0.1841-0.10558-0.46514-0.20755-1.0937-0.20755h-29.855z" display="block" fill="url(#au)"/>
 <g opacity=".17241" transform="matrix(1.2963,0,0,1.2075,67.324,-3.1649)">
  <rect height="11" width="4.9352" y="35" x="37.065" fill="url(#al)"/>
  <rect transform="scale(-1)" height="11" width="4.9352" y="-46" x="-9.9352" fill="url(#am)"/>
  <rect height="11" width="27.13" y="35" x="9.9352" fill="url(#aj)"/>
 </g>
 <g opacity=".29714" transform="matrix(1.3253 0 0 .75471 66.642 15.127)">
  <rect height="11" width="4.9352" y="35" x="37.065" fill="url(#al)"/>
  <rect transform="scale(-1)" height="11" width="4.9352" y="-46" x="-9.9352" fill="url(#am)"/>
  <rect height="11" width="27.13" y="35" x="9.9352" fill="url(#aj)"/>
 </g>
 <path opacity=".15" style="color:#000000" d="m82.556 21.538c-0.23116 0-0.36064 0.02349-0.40403 0.03397-0.04338 0.01044-0.0022 0.0087-0.0404 0.03397-0.0074 0.0049-0.15048 0.0861-0.28282 0.40762l-1.8181 4.9594h35.312l-1.8585-4.7216v-0.03397c-0.22488-0.45836-0.33943-0.54099-0.40403-0.57746-0.0908-0.05125-0.18217-0.10191-0.72724-0.10191h-29.777z" display="block" stroke="url(#at)" stroke-width="1.1855" fill="none"/>
 <path style="color:#000000" d="m82.596 19.728c-1.7441 0-2.6727 0.76991-3.1597 1.9717l-2.4305 6.6415-1.2558 9.0974h1.2558v7.2987c0 1.4809 1.4156 2.6635 3.1597 2.6635h35.202c1.7441 0 3.1596-1.1826 3.1596-2.6635v-7.2987h1.2963l-1.2963-9.0974-2.5115-6.5031c-0.61174-1.5824-1.8207-2.11-3.5647-2.11h-29.855z" stroke="#a0670c" stroke-width="1.1979" display="block" fill="url(#as)"/>
 <path opacity=".69349" style="color:#000000" d="m117.23 28.479-2.4305-6.2956c-0.23963-0.61984-0.53098-0.89567-0.85068-1.0723-0.31969-0.17665-0.77987-0.27673-1.4988-0.27673h-29.855c-0.64867 0-0.99096 0.13374-1.2558 0.31132-0.2648 0.17758-0.50043 0.4349-0.68864 0.89936l-2.39 6.5723v0.06919" display="block" stroke="url(#ae)" stroke-width="1.1979" fill="none"/>
 <path opacity=".67050" style="color:#000000" d="m112.88 21.388c0.53698 0 0.70899 0.07794 0.85068 0.17296s0.32553 0.29557 0.4861 0.69182l2.1064 5.7767h-6.3193v-6.6415h2.8761z" display="block" fill="url(#ar)"/>
 <path opacity=".6" style="color:#000000" d="m82.596 21.388c-0.53698 0-0.70899 0.07794-0.85068 0.17296s-0.32553 0.29557-0.4861 0.69182l-2.1064 5.7767h6.3193v-6.6415h-2.8761z" display="block" fill="url(#aq)"/>
 <g transform="matrix(.90016 0 0 .87207 -91.511 -47.243)">
  <g transform="translate(-60,16)">
   <path opacity=".05" d="m126 38.469c-1.8584 0-3.2812 1.5681-3.2812 3.3438v1.1875c-0.36268 0.13513-0.71008 0.30878-1.0625 0.46875l-0.875-0.875c-0.5657-0.56571-1.3669-0.99198-2.3125-1-0.82395-0.007-1.699 0.29275-2.375 0.96875l-3.5312 3.5312c-1.3106 1.3106-1.2411 3.415 0.0313 4.6875l0.875 0.875c-0.15997 0.35242-0.33362 0.69982-0.46875 1.0625h-1.1875c-1.7756 0-3.3438 1.4228-3.3438 3.2812v5c0 1.8584 1.5681 3.2812 3.3438 3.2812h1.1875c0.13513 0.36268 0.30878 0.71008 0.46875 1.0625l-0.875 0.875c-1.2725 1.2725-1.3419 3.377-0.0313 4.6875l3.5312 3.5312c1.3105 1.3105 3.415 1.2413 4.6875-0.03125l0.875-0.875c0.35242 0.15997 0.69982 0.33362 1.0625 0.46875v1.1875c0 1.7756 1.4228 3.3438 3.2812 3.3438h5c1.8584 0 3.2812-1.5681 3.2812-3.3438v-1.1875c0.36268-0.13513 0.71008-0.30878 1.0625-0.46875l0.875 0.875c1.2726 1.2725 3.377 1.3418 4.6875 0.03125l3.5312-3.5312c1.3106-1.3106 1.2411-3.415-0.0313-4.6875l-0.875-0.875c0.15997-0.35242 0.33362-0.69982 0.46875-1.0625h1.1875c1.7756 0 3.3438-1.4228 3.3438-3.2812v-5c0-1.8584-1.5681-3.2812-3.3438-3.2812h-1.1875c-0.13513-0.36268-0.30878-0.71008-0.46875-1.0625l0.875-0.875c1.2725-1.2725 1.342-3.3769 0.0313-4.6875l-3.5312-3.5312c-1.3105-1.3105-3.415-1.2413-4.6875 0.03125l-0.875 0.875c-0.35-0.16-0.7-0.334-1.06-0.469v-1.1875c0-1.7756-1.4228-3.3438-3.2812-3.3438h-5zm2.5 16.812c1.7874 0 3.2188 1.4313 3.2188 3.2188 0 1.7874-1.4313 3.2188-3.2188 3.2188-1.7874 0-3.2188-1.4313-3.2188-3.2188 0-1.7874 1.4313-3.2188 3.2188-3.2188z" transform="translate(-.5 .5)" display="block"/>
   <path opacity=".15" d="m126 39.5c-1.2683 0-2.25 1.0884-2.25 2.3125v1.875c-0.81272 0.26478-1.5968 0.58312-2.3438 0.96875l-1.35-1.344c-0.38667-0.38668-0.96689-0.68219-1.5938-0.6875-0.5946-0.005-1.1882 0.18823-1.6562 0.65625l-3.5312 3.5312c-0.89095 0.89096-0.84049 2.3782 0.0313 3.25l1.3438 1.3438c-0.38563 0.74697-0.70397 1.531-0.96875 2.3438h-1.875c-1.2241 0-2.3125 0.98174-2.3125 2.25v5c0 1.2683 1.0884 2.25 2.3125 2.25h1.875c0.26478 0.81272 0.58312 1.5968 0.96875 2.3438l-1.3438 1.3438c-0.87182 0.87182-0.92228 2.3591-0.0313 3.25l3.5312 3.5312c0.89093 0.89094 2.3782 0.8406 3.25-0.03125l1.3438-1.3438c0.74697 0.38563 1.531 0.70397 2.3438 0.96875v1.875c0 1.2241 0.98174 2.3125 2.25 2.3125h5c1.2683 0 2.25-1.0884 2.25-2.3125v-1.875c0.81272-0.26478 1.5968-0.58312 2.3438-0.96875l1.3438 1.3438c0.87184 0.87184 2.3591 0.92218 3.25 0.03125l3.5312-3.5312c0.89095-0.89096 0.84047-2.3782-0.0313-3.25l-1.3438-1.3438c0.38563-0.74696 0.70397-1.531 0.96875-2.3438h1.875c1.2241 0 2.3125-0.98172 2.3125-2.25v-5c0-1.2683-1.0884-2.25-2.3125-2.25h-1.875c-0.26478-0.81272-0.58312-1.5968-0.96875-2.3438l1.3438-1.3438c0.87182-0.87181 0.9223-2.3591 0.0313-3.25l-3.5312-3.5312c-0.89093-0.89094-2.3782-0.84059-3.25 0.03125l-1.3438 1.3438c-0.73-0.385-1.52-0.704-2.33-0.968v-1.875c0-1.225-0.98-2.313-2.25-2.313h-5zm2.5 14.75c2.3457 0 4.25 1.9043 4.25 4.25s-1.9043 4.25-4.25 4.25-4.25-1.9043-4.25-4.25 1.9043-4.25 4.25-4.25z" transform="translate(-.5 .5)" display="block"/>
   <path opacity=".3" display="block" d="m125.5 41c-0.70838 0-1.2682 0.5886-1.2682 1.3091v2.5364c-1.2666 0.33748-2.4722 0.84915-3.5795 1.4932l-1.8205-1.8c-0.25473-0.25473-0.54989-0.4063-0.87954-0.40909-0.32965-0.0028-0.67001 0.11773-0.92046 0.36818l-3.5386 3.5386c-0.5009 0.5009-0.46851 1.2905 0.0409 1.8l1.8 1.8205c-0.64403 1.1074-1.1557 2.3129-1.4932 3.5795h-2.5364c-0.72049 0-1.3091 0.5598-1.3091 1.2682v4.9909c0 0.70838 0.5886 1.2682 1.3091 1.2682h2.5364c0.33749 1.2666 0.84916 2.4722 1.4932 3.5795l-1.8 1.8205c-0.50947 0.50946-0.54186 1.2991-0.0409 1.8l3.5386 3.5386c0.5009 0.5009 1.2905 0.46856 1.8-0.04091l1.8205-1.8c1.1074 0.64403 2.3129 1.1557 3.5795 1.4932v2.5364c0 0.72049 0.5598 1.3091 1.2682 1.3091h4.9909c0.70838 0 1.2682-0.5886 1.2682-1.3091v-2.5364c1.2666-0.33748 2.4722-0.84915 3.5796-1.4932l1.8204 1.8c0.50947 0.50947 1.2991 0.54181 1.8 0.04091l3.5386-3.5386c0.5009-0.5009 0.4685-1.2905-0.0409-1.8l-1.8-1.8205c0.64403-1.1074 1.1557-2.3129 1.4932-3.5795h2.5364c0.72048 0 1.3091-0.5598 1.3091-1.2682v-4.9909c0-0.70838-0.58861-1.2682-1.3091-1.2682h-2.54c-0.33748-1.2666-0.84915-2.4722-1.4932-3.5795l1.8-1.8205c0.50947-0.50947 0.54187-1.2991 0.0409-1.8l-3.5386-3.5386c-0.5009-0.5009-1.2905-0.46856-1.8 0.04091l-1.8204 1.8c-1.1074-0.64403-2.3129-1.1557-3.5796-1.4932v-2.536c0-0.72-0.56-1.309-1.27-1.309h-4.99zm2.5 12.764c2.892 0 5.2364 2.3444 5.2364 5.2364s-2.3444 5.2364-5.2364 5.2364-5.2364-2.3444-5.2364-5.2364 2.3444-5.2364 5.2364-5.2364z"/>
   <path display="block" fill="url(#av)" d="m125.5 40c-0.70838 0-1.2682 0.5886-1.2682 1.3091v2.5364c-1.2666 0.33748-2.4722 0.84915-3.5795 1.4932l-1.8205-1.8c-0.25473-0.25473-0.54989-0.4063-0.87954-0.40909-0.32965-0.0028-0.67001 0.11773-0.92046 0.36818l-3.5386 3.5386c-0.5009 0.5009-0.46851 1.2905 0.0409 1.8l1.8 1.8205c-0.64403 1.1074-1.1557 2.3129-1.4932 3.5795h-2.5364c-0.72049 0-1.3091 0.5598-1.3091 1.2682v4.9909c0 0.70838 0.5886 1.2682 1.3091 1.2682h2.5364c0.33749 1.2666 0.84916 2.4722 1.4932 3.5795l-1.8 1.8205c-0.50947 0.50946-0.54186 1.2991-0.0409 1.8l3.5386 3.5386c0.5009 0.5009 1.2905 0.46856 1.8-0.04091l1.8205-1.8c1.1074 0.64403 2.3129 1.1557 3.5795 1.4932v2.5364c0 0.72049 0.5598 1.3091 1.2682 1.3091h4.9909c0.70838 0 1.2682-0.5886 1.2682-1.3091v-2.5364c1.2666-0.33748 2.4722-0.84915 3.5796-1.4932l1.8204 1.8c0.50947 0.50947 1.2991 0.54181 1.8 0.04091l3.5386-3.5386c0.5009-0.5009 0.4685-1.2905-0.0409-1.8l-1.8-1.8205c0.64403-1.1074 1.1557-2.3129 1.4932-3.5795h2.5364c0.72048 0 1.3091-0.5598 1.3091-1.2682v-4.9909c0-0.70838-0.58861-1.2682-1.3091-1.2682h-2.54c-0.33748-1.2666-0.84915-2.4722-1.4932-3.5795l1.8-1.8205c0.50947-0.50947 0.54187-1.2991 0.0409-1.8l-3.5386-3.5386c-0.5009-0.5009-1.2905-0.46856-1.8 0.04091l-1.8204 1.8c-1.1074-0.64403-2.3129-1.1557-3.5796-1.4932v-2.536c0-0.72-0.56-1.309-1.27-1.309h-4.99zm2.5 12.764c2.892 0 5.2364 2.3444 5.2364 5.2364s-2.3444 5.2364-5.2364 5.2364-5.2364-2.3444-5.2364-5.2364 2.3444-5.2364 5.2364-5.2364z"/>
   <g transform="matrix(.56685 .32727 -.32727 .56685 152.48 -47.194)" clip-path="url(#an)">
    <g opacity=".9" transform="matrix(.14137 .99272 -1.1652 .12045 96.937 104.81)">
     <path opacity=".05" style="color:#000000" d="m108.9 48a60.896 60.896 0 0 1 -6.5462 27.467l-54.338-27.467z" transform="matrix(.99411 -.10837 .10837 .99411 -5.1582 5.4919)" fill="url(#ac)"/>
     <path opacity="0.07" style="color:#000000" d="m108.9 48a60.896 60.896 0 0 1 -4.4572 22.869l-56.431-22.869z" transform="matrix(.99786 -.065374 .065374 .99786 -3.094 3.2416)" fill="url(#z)"/>
     <path opacity=".1" style="color:#000000" d="m108.9 48a60.896 60.896 0 0 1 -3.1299 19.272l-57.77-19.272z" transform="matrix(.99945 -.033121 .033121 .99945 -1.5635 1.6161)" fill="url(#aa)"/>
     <path opacity=".05" style="color:#000000" fill="url(#ab)" d="m108.9 48a60.896 60.896 0 0 1 -2.075 15.761l-58.805-15.761z"/>
    </g>
    <g opacity=".9" transform="matrix(1.0628 -.13088 -.7401 3.2275 32.525 9.3323)">
     <path opacity=".2" style="color:#000000" d="m108.9 48a60.896 60.896 0 0 1 -6.5462 27.467l-54.338-27.467z" transform="matrix(.99411 -.10837 .10837 .99411 -5.1582 5.4919)" fill="url(#af)"/>
     <path opacity=".4" style="color:#000000" d="m108.9 48a60.896 60.896 0 0 1 -4.4572 22.869l-56.431-22.869z" transform="matrix(.99786 -.065374 .065374 .99786 -3.094 3.2416)" fill="url(#ag)"/>
     <path opacity=".6" style="color:#000000" d="m108.9 48a60.896 60.896 0 0 1 -3.1299 19.272l-57.77-19.272z" transform="matrix(.99945 -.033121 .033121 .99945 -1.5635 1.6161)" fill="url(#ah)"/>
     <path opacity=".8" style="color:#000000" fill="url(#ai)" d="m108.9 48a60.896 60.896 0 0 1 -2.075 15.761l-58.805-15.761z"/>
    </g>
    <g opacity=".5" transform="matrix(-.61679 .78713 -.78713 -.61679 115 150.01)">
     <path opacity=".05" style="color:#000000" d="m108.9 48a60.896 60.896 0 0 1 -6.5462 27.467l-54.338-27.467z" transform="matrix(.99411 -.10837 .10837 .99411 -5.1582 5.4919)" fill="url(#ac)"/>
     <path opacity="0.07" style="color:#000000" d="m108.9 48a60.896 60.896 0 0 1 -4.4572 22.869l-56.431-22.869z" transform="matrix(.99786 -.065374 .065374 .99786 -3.094 3.2416)" fill="url(#z)"/>
     <path opacity=".1" style="color:#000000" d="m108.9 48a60.896 60.896 0 0 1 -3.1299 19.272l-57.77-19.272z" transform="matrix(.99945 -.033121 .033121 .99945 -1.5635 1.6161)" fill="url(#aa)"/>
     <path opacity=".1" style="color:#000000" fill="url(#ab)" d="m108.9 48a60.896 60.896 0 0 1 -2.075 15.761l-58.805-15.761z"/>
    </g>
    <g opacity=".8" transform="matrix(-.068172 -1.046 2.7107 .60163 -79.095 179.08)">
     <path opacity=".05" style="color:#000000" d="m108.9 48a60.896 60.896 0 0 1 -6.5462 27.467l-54.338-27.467z" transform="matrix(.99411 -.10837 .10837 .99411 -5.1582 5.4919)" fill="url(#ac)"/>
     <path opacity="0.07" style="color:#000000" d="m108.9 48a60.896 60.896 0 0 1 -4.4572 22.869l-56.431-22.869z" transform="matrix(.99786 -.065374 .065374 .99786 -3.094 3.2416)" fill="url(#z)"/>
     <path opacity=".1" style="color:#000000" d="m108.9 48a60.896 60.896 0 0 1 -3.1299 19.272l-57.77-19.272z" transform="matrix(.99945 -.033121 .033121 .99945 -1.5635 1.6161)" fill="url(#aa)"/>
     <path opacity=".1" style="color:#000000" fill="url(#ab)" d="m108.9 48a60.896 60.896 0 0 1 -2.075 15.761l-58.805-15.761z"/>
    </g>
    <g opacity=".9" transform="matrix(-1.0628 .13088 .7401 -3.2275 62.997 306.67)">
     <path opacity=".2" style="color:#000000" d="m108.9 48a60.896 60.896 0 0 1 -6.5462 27.467l-54.338-27.467z" transform="matrix(.99411 -.10837 .10837 .99411 -5.1582 5.4919)" fill="url(#af)"/>
     <path opacity=".4" style="color:#000000" d="m108.9 48a60.896 60.896 0 0 1 -4.4572 22.869l-56.431-22.869z" transform="matrix(.99786 -.065374 .065374 .99786 -3.094 3.2416)" fill="url(#ag)"/>
     <path opacity=".6" style="color:#000000" d="m108.9 48a60.896 60.896 0 0 1 -3.1299 19.272l-57.77-19.272z" transform="matrix(.99945 -.033121 .033121 .99945 -1.5635 1.6161)" fill="url(#ah)"/>
     <path opacity=".8" style="color:#000000" fill="url(#ai)" d="m108.9 48a60.896 60.896 0 0 1 -2.075 15.761l-58.805-15.761z"/>
    </g>
   </g>
   <path display="block" fill="url(#linearGradient4407)" d="m125.5 40c-0.70838-0.000001-1.2682 0.5886-1.2682 1.3091v2.5364c-1.2666 0.33748-2.4722 0.84915-3.5795 1.4932l-1.8205-1.8c-0.25473-0.25474-0.54989-0.4063-0.87954-0.40909-0.32965-0.0026-0.67 0.11773-0.92046 0.36818l-3.5386 3.5386c-0.5009 0.50091-0.4685 1.2905 0.0409 1.8l1.8 1.8205c-0.64403 1.1074-1.1557 2.3129-1.4932 3.5796h-2.5364c-0.72049-0.000004-1.3091 0.55979-1.3091 1.2682v4.9909c0 0.70839 0.5886 1.2682 1.3091 1.2682h2.5364c0.33749 1.2666 0.84916 2.4722 1.4932 3.5795l-1.8 1.8205c-0.50947 0.50947-0.54186 1.2991-0.0409 1.8l3.5386 3.5386c0.5009 0.5009 1.2905 0.46856 1.8-0.04091l1.8205-1.8c1.1074 0.64391 2.3129 1.1557 3.5795 1.4932v2.5364c0 0.72049 0.5598 1.3091 1.2682 1.3091l4.9909 0.000001c0.70839-0.000003 1.2682-0.5886 1.2682-1.3091v-2.5364c1.2666-0.33749 2.4722-0.84915 3.5796-1.4932l1.8204 1.8c0.50947 0.50947 1.2991 0.54182 1.8 0.04091l3.5386-3.5386c0.5009-0.5009 0.4685-1.2905-0.0409-1.8l-1.8-1.8205c0.64403-1.1074 1.1557-2.3129 1.4932-3.5795h2.5364c0.72048 0.000001 1.3091-0.55979 1.3091-1.2682v-4.9909c0-0.70838-0.5886-1.2682-1.3091-1.2682h-2.54c-0.33747-1.2666-0.84915-2.4722-1.4932-3.5796l1.8-1.8205c0.50947-0.50946 0.54187-1.2991 0.0409-1.8l-3.5386-3.5386c-0.5009-0.50091-1.2905-0.46856-1.8 0.0409l-1.8204 1.8c-1.1074-0.64391-2.3129-1.1557-3.5796-1.4932v-2.5364c0-0.72049-0.5598-1.3091-1.2682-1.3091h-4.99zm2.5 8.836c5.0609-0.000004 9.1636 4.1027 9.1636 9.1636s-4.1027 9.1636-9.1636 9.1636c-5.0609-0.000001-9.1636-4.1027-9.1636-9.1636s4.1027-9.1636 9.1636-9.1636z"/>
   <path opacity=".7" d="m125.5 40c-0.70838 0-1.25 0.59201-1.25 1.3125v0.71875c0.12-0.595 0.63-1.031 1.25-1.031h5c0.61983 0 1.1332 0.43591 1.25 1.0312v-0.718c0-0.72-0.54-1.312-1.25-1.312h-5zm-7.5312 3.125c-0.32965-0.0028-0.68705 0.12455-0.9375 0.375l-3.53 3.531c-0.37568 0.37568-0.45054 0.91451-0.25 1.375 0.059-0.12899 0.14211-0.26711 0.25-0.375l3.53-3.531c0.25045-0.25045 0.60785-0.3778 0.9375-0.375s0.62027 0.15152 0.875 0.40625l1.8125 1.8125c1.1074-0.64403 2.3271-1.1625 3.5938-1.5v-1c-1.2666 0.33748-2.4864 0.85597-3.5938 1.5l-1.8125-1.8125c-0.25473-0.25473-0.54535-0.40346-0.875-0.40625zm20.094 0c-0.3237 0.0092-0.65151 0.15152-0.90625 0.40625l-1.8125 1.8125c-1.1074-0.64403-2.3271-1.1625-3.5938-1.5v1c1.2666 0.33748 2.4864 0.85597 3.5938 1.5l1.8125-1.8125c0.50947-0.50947 1.3116-0.53215 1.8125-0.03125l3.54 3.53c0.1079 0.10789 0.19102 0.24601 0.25 0.375 0.20056-0.46049 0.12573-0.99932-0.25-1.375l-3.53-3.531c-0.25-0.25-0.58-0.384-0.91-0.375zm-23.06 8.187c-0.47821 0.92428-0.8835 1.9138-1.1562 2.9375h-2.5312c-0.72 0-1.31 0.542-1.31 1.25v1c0-0.70839 0.59201-1.25 1.3125-1.25h2.5312c0.33749-1.2666 0.85597-2.4864 1.5-3.5938l-0.34-0.344zm26 0-0.34375 0.34375c0.64403 1.1074 1.1625 2.3271 1.5 3.5938h2.5312c0.72048 0 1.3125 0.54162 1.3125 1.25v-1c0-0.70838-0.59202-1.25-1.3125-1.25h-2.5312c-0.28-1.024-0.68-2.013-1.16-2.938zm-18.219 7.2188c-0.014 0.15592-0.0313 0.30919-0.0313 0.46875 0 2.892 2.358 5.25 5.25 5.25s5.25-2.358 5.25-5.25c0-0.15956-0.0173-0.31283-0.0313-0.46875-0.27 2.641-2.51 4.719-5.22 4.719-2.7112 0-4.9506-2.0783-5.2188-4.7188zm-7.78 7.157-1.4688 1.4688c-0.39974 0.39973-0.49609 0.9676-0.28125 1.4375 0.0669-0.1535 0.15388-0.31013 0.28125-0.4375l1.8125-1.8125c-0.12-0.213-0.23-0.437-0.34-0.656zm26 0c-0.1135 0.21938-0.22021 0.44383-0.34375 0.65625l1.8125 1.8125c0.12735 0.12737 0.2144 0.284 0.28125 0.4375 0.21481-0.4699 0.11843-1.0378-0.28125-1.4375l-1.47-1.468z" display="block" fill="#fff"/>
  </g>
 </g>
 <path opacity=".69349" style="color:#000000" d="m78.261 28.618v0.06919l-1.0532 7.6792c0.62077 0.0838 1.0817 0.53575 1.0937 1.0723v7.2987c0 0.8785 0.80555 1.5566 1.8634 1.5566h35.202c1.0578 0 1.8634-0.6781 1.8634-1.5566v-7.2987c-0.005-0.56112 0.48227-1.0367 1.1342-1.1069l-1.1342-7.8521" display="block" stroke="url(#ae)" stroke-width="1.1979" fill="none"/>
 <g transform="matrix(.75086 0 0 .67396 48.393 .49257)">
  <path opacity=".40909" style="color:#000000" d="m45.078 39.161a19.622 6.1872 0 1 1 -39.244 0 19.622 6.1872 0 1 1 39.244 0z" transform="translate(41.01,7.2306)" fill="url(#ak)"/>
  <path style="color:#000000" fill="url(#ad)" d="m65.144 5.2244c-0.46544 0.031846-0.91783 0.10393-1.375 0.15625h-0.03125l-1.0938 5.9688c-1.7827 0.40599-3.4599 1.095-4.9688 2.0312l-4.906-3.5306c-1.327 1.0296-2.533 2.2306-3.594 3.5316l3.4062 4.9687c-1.0342 1.5805-1.812 3.3852-2.25 5.2812-0.000075 0.009-0.000061 0.02969 0 0.03125l-5.9375 0.9375c-0.10855 0.88663-0.15625 1.8029-0.15625 2.7188 0 0.7493 0.02069 1.4886 0.09375 2.2188l5.9375 1.0625c0.42228 2.0619 1.2245 3.9875 2.3438 5.6875l-3.5312 4.8438c1.0113 1.2555 2.1789 2.3986 3.4375 3.4062l5-3.4375c1.7474 1.1147 3.6981 1.8964 5.8125 2.2812l0.9375 5.9062c0.66618 0.06064 1.3493 0.0625 2.0312 0.0625 0.96268-0.000001 1.8822-0.03648 2.8125-0.15625l1.125-6.0312c2.0076-0.4996 3.8935-1.3663 5.5312-2.5312l4.8125 3.5c1.248-1.0618 2.3893-2.2823 3.375-3.5938l-3.5-5.0625c0.94785-1.637 1.6046-3.4431 1.9375-5.375l5.906-0.937c0.05179-0.61635 0.0625-1.2141 0.0625-1.8438 0-1.0942-0.12718-2.1671-0.28125-3.2188l-6-1.0938c-0.47019-1.7362-1.2417-3.3561-2.2188-4.8125l3.5312-4.8437c-1.094-1.337-2.342-2.574-3.718-3.6236l-5.0938 3.5c-1.464-0.86584-3.0395-1.5302-4.75-1.9062l-0.937-5.9373c-0.854-0.1004-1.714-0.1563-2.594-0.1563-0.23787 0-0.48268-0.00748-0.71875 0-0.11508 0.00365-0.22897-0.00669-0.34375 0-0.03109 0.00181-0.06272-0.00212-0.09375 0zm0.8125 15.187c0.11417-0.0058 0.22815 0 0.34375 0 3.6991 0 6.7188 3.0196 6.7188 6.7188 0.000001 3.6991-3.0196 6.6875-6.7188 6.6875-3.6991 0.000001-6.6875-2.9884-6.6875-6.6875 0.000001-3.5835 2.8046-6.5392 6.3438-6.7188z" stroke="#808080"/>
  <path opacity=".64773" style="color:#000000" d="m36.239 23.782a12.728 12.728 0 1 1 -25.456 0 12.728 12.728 0 1 1 25.456 0z" transform="matrix(.60652 0 0 .60652 52.044 12.693)" stroke="#fff" stroke-width="1.6488" fill="none"/>
  <path opacity=".34659" style="color:#000000" d="m64.452 6.4058-0.87819 5.779c-1.671 0.38054-4.7447 1.5444-6.159 2.422l-4.672-3.4872c-1.2432 0.96516-1.3284 1.0306-2.3225 2.2498l3.3781 5.01c-0.96942 1.4815-2.1338 4.1215-2.5519 6.0081 0 0-5.9194 0.99784-5.9194 0.99784-0.10175 0.83107-0.05285 2.6098 0.01563 3.2942l5.6542 1.0186c0.39581 1.9327 1.877 5.0436 2.9262 6.637l-3.5756 4.724c0.94794 1.1768 1.1377 1.2845 2.3174 2.229l4.7812-3.5028c1.6379 1.0449 4.889 2.3159 6.8709 2.6766l0.78469 5.7063c0.62443 0.05684 2.3495 0.21628 3.2214 0.10402l0.88-5.941c1.8817-0.46829 5.1332-1.803 6.6683-2.8949l4.7761 3.4508c1.1698-0.99525 1.1803-1.1452 2.1042-2.3745l-3.5392-5.0307c0.88845-1.5344 2.0372-4.5352 2.3492-6.346l5.7946-0.96146c0.051-0.579 0.053-2.19-0.091-3.176l-5.9038-1.0186c-0.44073-1.6274-1.9532-4.56-2.869-5.9251l3.7524-4.724c-1.026-1.2547-1.4074-1.4269-2.6968-2.4109l-4.9423 3.5392c-1.371-0.812-4.108-2.049-5.711-2.402l-0.873-5.6542c-0.79982-0.094085-3.1074-0.052306-3.5645 0z" stroke="#fff" fill="none"/>
 </g>
 <rect opacity=".69349" style="color:#000000" rx=".64813" ry=".55346" height="1.1069" width="42.777" y="35.778" x="76.398" fill="#fff"/>
 <rect style="color:#000000" height="1.1069" width="42.858" y="36.885" x="76.398" fill="#a0670c"/>
 <path opacity=".35" style="color:#000000" d="m77.654 36.885v7.8521c0 1.1797 1.1106 2.11 2.5115 2.11h35.202c1.401 0 2.5115-0.93037 2.5115-2.11v-7.852h-40.228z" display="block" fill="url(#ao)"/>
 <rect style="color:#000000" rx=".64813" ry=".60237" height="1.2047" width="40.184" y="28.03" x="77.694" fill="#fcf3e6"/>
 <path style="color:#000000" display="block" fill="url(#ap)" d="m77.532 28.586-1.0937 8.2987h42.696l-1.1342-8.2987h-40.468z"/>
 <g transform="matrix(.86722 0 0 .82291 -33.183 .42016)">
  <path opacity=".40909" style="color:#000000" d="m45.078 39.161a19.622 6.1872 0 1 1 -39.244 0 19.622 6.1872 0 1 1 39.244 0z" transform="translate(41.01,7.2306)" fill="url(#ak)"/>
  <path style="color:#000000" fill="url(#ad)" d="m65.144 5.2244c-0.46544 0.031846-0.91783 0.10393-1.375 0.15625h-0.03125l-1.0938 5.9688c-1.7827 0.40599-3.4599 1.095-4.9688 2.0312l-4.906-3.5306c-1.327 1.0296-2.533 2.2306-3.594 3.5316l3.4062 4.9687c-1.0342 1.5805-1.812 3.3852-2.25 5.2812-0.000075 0.009-0.000061 0.02969 0 0.03125l-5.9375 0.9375c-0.10855 0.88663-0.15625 1.8029-0.15625 2.7188 0 0.7493 0.02069 1.4886 0.09375 2.2188l5.9375 1.0625c0.42228 2.0619 1.2245 3.9875 2.3438 5.6875l-3.5312 4.8438c1.0113 1.2555 2.1789 2.3986 3.4375 3.4062l5-3.4375c1.7474 1.1147 3.6981 1.8964 5.8125 2.2812l0.9375 5.9062c0.66618 0.06064 1.3493 0.0625 2.0312 0.0625 0.96268-0.000001 1.8822-0.03648 2.8125-0.15625l1.125-6.0312c2.0076-0.4996 3.8935-1.3663 5.5312-2.5312l4.8125 3.5c1.248-1.0618 2.3893-2.2823 3.375-3.5938l-3.5-5.0625c0.94785-1.637 1.6046-3.4431 1.9375-5.375l5.906-0.937c0.05179-0.61635 0.0625-1.2141 0.0625-1.8438 0-1.0942-0.12718-2.1671-0.28125-3.2188l-6-1.0938c-0.47019-1.7362-1.2417-3.3561-2.2188-4.8125l3.5312-4.8437c-1.094-1.337-2.342-2.574-3.718-3.6236l-5.0938 3.5c-1.464-0.86584-3.0395-1.5302-4.75-1.9062l-0.937-5.9373c-0.854-0.1004-1.714-0.1563-2.594-0.1563-0.23787 0-0.48268-0.00748-0.71875 0-0.11508 0.00365-0.22897-0.00669-0.34375 0-0.03109 0.00181-0.06272-0.00212-0.09375 0zm0.8125 15.187c0.11417-0.0058 0.22815 0 0.34375 0 3.6991 0 6.7188 3.0196 6.7188 6.7188 0.000001 3.6991-3.0196 6.6875-6.7188 6.6875-3.6991 0.000001-6.6875-2.9884-6.6875-6.6875 0.000001-3.5835 2.8046-6.5392 6.3438-6.7188z" stroke="#808080"/>
  <path opacity=".64773" style="color:#000000" d="m36.239 23.782a12.728 12.728 0 1 1 -25.456 0 12.728 12.728 0 1 1 25.456 0z" transform="matrix(.60652 0 0 .60652 52.044 12.693)" stroke="#fff" stroke-width="1.6488" fill="none"/>
  <path opacity=".34659" style="color:#000000" d="m64.452 6.4058-0.87819 5.779c-1.671 0.38054-4.7447 1.5444-6.159 2.422l-4.672-3.4872c-1.2432 0.96516-1.3284 1.0306-2.3225 2.2498l3.3781 5.01c-0.96942 1.4815-2.1338 4.1215-2.5519 6.0081 0 0-5.9194 0.99784-5.9194 0.99784-0.10175 0.83107-0.05285 2.6098 0.01563 3.2942l5.6542 1.0186c0.39581 1.9327 1.877 5.0436 2.9262 6.637l-3.5756 4.724c0.94794 1.1768 1.1377 1.2845 2.3174 2.229l4.7812-3.5028c1.6379 1.0449 4.889 2.3159 6.8709 2.6766l0.78469 5.7063c0.62443 0.05684 2.3495 0.21628 3.2214 0.10402l0.88-5.941c1.8817-0.46829 5.1332-1.803 6.6683-2.8949l4.7761 3.4508c1.1698-0.99525 1.1803-1.1452 2.1042-2.3745l-3.5392-5.0307c0.88845-1.5344 2.0372-4.5352 2.3492-6.346l5.7946-0.96146c0.051-0.579 0.053-2.19-0.091-3.176l-5.9038-1.0186c-0.44073-1.6274-1.9532-4.56-2.869-5.9251l3.7524-4.724c-1.026-1.2547-1.4074-1.4269-2.6968-2.4109l-4.9423 3.5392c-1.371-0.812-4.108-2.049-5.711-2.402l-0.873-5.6542c-0.79982-0.094085-3.1074-0.052306-3.5645 0z" stroke="#fff" fill="none"/>
 </g>
</svg>
