<svg id="Слой_1" data-name="Слой 1"
  xmlns:dc="http://purl.org/dc/elements/1.1/"
  xmlns:cc="http://creativecommons.org/ns#"
  xmlns:rdf="http://www.w3.org/1999/02/22-rdf-syntax-ns#"
  xmlns="http://www.w3.org/2000/svg" viewBox="0 0 26 26">
  <metadata id="metadata43">
    <rdf:RDF>
      <cc:Work rdf:about="">
        <cc:license rdf:resource="http://creativecommons.org/licenses/by-sa/4.0/" />
        <dc:format>image/svg+xml</dc:format>
        <dc:type rdf:resource="http://purl.org/dc/dcmitype/StillImage" />
        <dc:title>add_arc</dc:title>
      </cc:Work>
      <cc:License rdf:about="http://creativecommons.org/licenses/by-sa/4.0/">
        <cc:permits rdf:resource="http://creativecommons.org/ns#Reproduction" />
        <cc:permits rdf:resource="http://creativecommons.org/ns#Distribution" />
        <cc:requires rdf:resource="http://creativecommons.org/ns#Notice" />
        <cc:requires rdf:resource="http://creativecommons.org/ns#Attribution" />
        <cc:permits rdf:resource="http://creativecommons.org/ns#DerivativeWorks" />
        <cc:requires rdf:resource="http://creativecommons.org/ns#ShareAlike" />
      </cc:License>
    </rdf:RDF>
  </metadata>
  <defs>
    <style>.cls-1{fill:#b9b9b9;}.cls-2{fill:#1a81c4;}.cls-3{fill:#545454;}.cls-4{fill:#444;}.cls-5{fill:#e61c50;}</style>
  </defs>
  <title>print_button</title>
  <polygon class="cls-1" points="18.333 17.132 5 17.132 5 2 21 2 21 14.381 18.333 17.132"/>
  <polygon class="cls-2" points="18.333 14.381 21 14.381 18.333 17.132 18.333 14.381"/>
  <path class="cls-3" d="M3.7087,6.0046H22.2913A2.7087,2.7087,0,0,1,25,8.7133V17.01a0,0,0,0,1,0,0H1a0,0,0,0,1,0,0V8.7133A2.7087,2.7087,0,0,1,3.7087,6.0046Z"/>
  <polygon class="cls-1" points="18.333 24 5 24 5 11.619 21 11.619 21 21.249 18.333 24"/>
  <polygon class="cls-2" points="18.333 21.249 21 21.249 18.333 24 18.333 21.249"/>
  <rect class="cls-4" x="3.6667" y="11.6062" width="18.6666" height="1.3757"/>
  <path class="cls-5" d="M20.871,8.5459a.667.667,0,1,1-.6666-.6878A.6775.6775,0,0,1,20.871,8.5459Z"/>
  <path class="cls-2" d="M23.4405,8.5459a.667.667,0,1,1-.6667-.6878A.6776.6776,0,0,1,23.4405,8.5459Z"/>
</svg>