<?xml version="1.0" encoding="UTF-8" standalone="no"?>
<svg
   xmlns:dc="http://purl.org/dc/elements/1.1/"
   xmlns:cc="http://creativecommons.org/ns#"
   xmlns:rdf="http://www.w3.org/1999/02/22-rdf-syntax-ns#"
   xmlns:svg="http://www.w3.org/2000/svg"
   xmlns="http://www.w3.org/2000/svg"
   xmlns:sodipodi="http://sodipodi.sourceforge.net/DTD/sodipodi-0.dtd"
   xmlns:inkscape="http://www.inkscape.org/namespaces/inkscape"
   id="Слой_1"
   data-name="Слой 1"
   viewBox="0 0 24 24"
   version="1.1"
   sodipodi:docname="ps_diff_pair_tune_length.svg"
   inkscape:version="1.0.1 (3bc2e813f5, 2020-09-07)">
  <sodipodi:namedview
     pagecolor="#ffffff"
     bordercolor="#666666"
     borderopacity="1"
     objecttolerance="10"
     gridtolerance="10"
     guidetolerance="10"
     inkscape:pageopacity="0"
     inkscape:pageshadow="2"
     inkscape:window-width="1609"
     inkscape:window-height="1286"
     id="namedview30"
     showgrid="true"
     inkscape:zoom="27.961538"
     inkscape:cx="3.3259971"
     inkscape:cy="13"
     inkscape:window-x="0"
     inkscape:window-y="37"
     inkscape:window-maximized="0"
     inkscape:document-rotation="0"
     inkscape:current-layer="Слой_1">
    <inkscape:grid
       type="xygrid"
       id="grid_kicad"
       spacingx="0.5"
       spacingy="0.5"
       color="#9999ff"
       opacity="0.13"
       empspacing="2" />
  </sodipodi:namedview>
  <metadata
     id="metadata43">
    <rdf:RDF>
      <cc:Work
         rdf:about="">
        <cc:license
           rdf:resource="http://creativecommons.org/licenses/by-sa/4.0/" />
        <dc:format>image/svg+xml</dc:format>
        <dc:type
           rdf:resource="http://purl.org/dc/dcmitype/StillImage" />
        <dc:title>add_arc</dc:title>
      </cc:Work>
      <cc:License
         rdf:about="http://creativecommons.org/licenses/by-sa/4.0/">
        <cc:permits
           rdf:resource="http://creativecommons.org/ns#Reproduction" />
        <cc:permits
           rdf:resource="http://creativecommons.org/ns#Distribution" />
        <cc:requires
           rdf:resource="http://creativecommons.org/ns#Notice" />
        <cc:requires
           rdf:resource="http://creativecommons.org/ns#Attribution" />
        <cc:permits
           rdf:resource="http://creativecommons.org/ns#DerivativeWorks" />
        <cc:requires
           rdf:resource="http://creativecommons.org/ns#ShareAlike" />
      </cc:License>
    </rdf:RDF>
  </metadata>
  <defs
     id="defs26721">
    <style
       id="style26719">.cls-1{fill:#1a81c4;stroke:#1a81c4;stroke-miterlimit:10;stroke-width:0.5px;}</style>
  </defs>
  <title
     id="title26723">ps_diff_pair_tune_length</title>
  <path
     class="cls-1"
     d="M 2.6862,12.3611 2.6911,10.728 a 2.7375,2.7375 0 0 1 2.73,-2.726 h 1.5581 a 2.7367,2.7367 0 0 1 2.7314,2.7358 l 0.0078,1.5782 a 2.128,2.128 0 0 0 4.2559,0 l 0.0156,-1.5577 a 2.74,2.74 0 0 1 2.74,-2.727 L 18.2982,8.002 a 2.7359,2.7359 0 0 1 2.73,2.7358 l 0.0039,1.5782 a 2.12,2.12 0 0 0 2.1152,2.1194 h 0.3542 a 0.501,0.501 0 0 0 0,-1.0019 H 23.1473 A 1.1172,1.1172 0 0 1 22.0321,12.316 L 22.0282,10.7378 A 3.7407,3.7407 0 0 0 18.29,7 l -1.57,0.0294 a 3.7412,3.7412 0 0 0 -3.7305,3.725 l -0.0156,1.5616 a 1.128,1.128 0 0 1 -2.2559,0 L 10.7102,10.7378 A 3.739,3.739 0 0 0 6.9792,7 H 5.4216 a 3.7409,3.7409 0 0 0 -3.73,3.7241 l -0.0049,1.637 a 1.073,1.073 0 0 1 -1.07,1.0724 h -0.119 a 0.501,0.501 0 0 0 0,1.0019 h 0.1182 a 2.0746,2.0746 0 0 0 2.0703,-2.0743 z"
     id="path26725" />
  <path
     class="cls-1"
     d="m 18.5554,11.684 0.0029,1.5792 A 3.7379,3.7379 0 0 0 22.2888,17 h 1.2135 a 0.501,0.501 0 0 0 0,-1.002 h -1.2135 a 2.7357,2.7357 0 0 1 -2.73,-2.7348 L 19.5559,11.684 a 2.128,2.128 0 0 0 -4.2559,0 l -0.0117,1.588 a 2.7375,2.7375 0 0 1 -2.7305,2.726 h -1.58 a 2.7359,2.7359 0 0 1 -2.73,-2.7358 L 8.2448,11.684 a 2.1279,2.1279 0 0 0 -4.2558,0 L 3.9831,13.272 A 2.7373,2.7373 0 0 1 1.2536,15.998 H 0.4977 a 0.501,0.501 0 0 0 0,1.002 h 0.7549 a 3.74,3.74 0 0 0 3.73,-3.7241 L 4.988,11.684 a 1.1279,1.1279 0 0 1 2.2558,0 l 0.003,1.5782 A 3.7388,3.7388 0 0 0 10.9772,17 h 1.58 a 3.741,3.741 0 0 0 3.7305,-3.7241 L 16.3,11.684 a 1.128,1.128 0 0 1 2.2559,0 z"
     id="path26727" />
</svg>
