<svg id="Слой_1" data-name="Слой 1"
  xmlns:dc="http://purl.org/dc/elements/1.1/"
  xmlns:cc="http://creativecommons.org/ns#"
  xmlns:rdf="http://www.w3.org/1999/02/22-rdf-syntax-ns#"
  xmlns="http://www.w3.org/2000/svg" viewBox="0 0 26 26">
  <metadata id="metadata43">
    <rdf:RDF>
      <cc:Work rdf:about="">
        <cc:license rdf:resource="http://creativecommons.org/licenses/by-sa/4.0/" />
        <dc:format>image/svg+xml</dc:format>
        <dc:type rdf:resource="http://purl.org/dc/dcmitype/StillImage" />
        <dc:title>add_arc</dc:title>
      </cc:Work>
      <cc:License rdf:about="http://creativecommons.org/licenses/by-sa/4.0/">
        <cc:permits rdf:resource="http://creativecommons.org/ns#Reproduction" />
        <cc:permits rdf:resource="http://creativecommons.org/ns#Distribution" />
        <cc:requires rdf:resource="http://creativecommons.org/ns#Notice" />
        <cc:requires rdf:resource="http://creativecommons.org/ns#Attribution" />
        <cc:permits rdf:resource="http://creativecommons.org/ns#DerivativeWorks" />
        <cc:requires rdf:resource="http://creativecommons.org/ns#ShareAlike" />
      </cc:License>
    </rdf:RDF>
  </metadata>
  <defs>
    <style>.cls-1{fill:#1a81c4;stroke:#1a81c4;stroke-miterlimit:10;stroke-width:0.5px;}</style>
  </defs>
  <title>ps_diff_pair_tune_length</title>
  <path class="cls-1" d="M3.6862,13.3611l.0049-1.6331a2.7375,2.7375,0,0,1,2.73-2.726H7.9792a2.7367,2.7367,0,0,1,2.7314,2.7358l.0078,1.5782a2.128,2.128,0,0,0,4.2559,0l.0156-1.5577a2.74,2.74,0,0,1,2.74-2.727l1.5683-.0293a2.7359,2.7359,0,0,1,2.73,2.7358l.0039,1.5782a2.12,2.12,0,0,0,2.1152,2.1194h.3542a.501.501,0,0,0,0-1.0019h-.3542a1.1172,1.1172,0,0,1-1.1152-1.1175l-.0039-1.5782A3.7407,3.7407,0,0,0,19.29,8L17.72,8.0294a3.7412,3.7412,0,0,0-3.7305,3.725l-.0156,1.5616a1.128,1.128,0,0,1-2.2559,0l-.0078-1.5782A3.739,3.739,0,0,0,7.9792,8H6.4216a3.7409,3.7409,0,0,0-3.73,3.7241l-.0049,1.637a1.073,1.073,0,0,1-1.07,1.0724H1.4977a.501.501,0,0,0,0,1.0019h.1182A2.0746,2.0746,0,0,0,3.6862,13.3611Z"/>
  <path class="cls-1" d="M19.5554,12.684l.0029,1.5792A3.7379,3.7379,0,0,0,23.2888,18h1.2135a.501.501,0,0,0,0-1.002H23.2888a2.7357,2.7357,0,0,1-2.73-2.7348l-.0029-1.5792a2.128,2.128,0,0,0-4.2559,0l-.0117,1.588a2.7375,2.7375,0,0,1-2.7305,2.726h-1.58a2.7359,2.7359,0,0,1-2.73-2.7358l-.003-1.5782a2.1279,2.1279,0,0,0-4.2558,0l-.0059,1.588a2.7373,2.7373,0,0,1-2.7295,2.726H1.4977a.501.501,0,0,0,0,1.002h.7549a3.74,3.74,0,0,0,3.73-3.7241L5.988,12.684a1.1279,1.1279,0,0,1,2.2558,0l.003,1.5782A3.7388,3.7388,0,0,0,11.9772,18h1.58a3.741,3.741,0,0,0,3.7305-3.7241L17.3,12.684a1.128,1.128,0,0,1,2.2559,0Z"/>
</svg>