<?xml version="1.0" encoding="UTF-8" standalone="no"?>
<!-- Created with Inkscape (http://www.inkscape.org/) -->

<svg
   xmlns:dc="http://purl.org/dc/elements/1.1/"
   xmlns:cc="http://creativecommons.org/ns#"
   xmlns:rdf="http://www.w3.org/1999/02/22-rdf-syntax-ns#"
   xmlns:svg="http://www.w3.org/2000/svg"
   xmlns="http://www.w3.org/2000/svg"
   version="1.1"
   width="26"
   height="26"
   id="svg2">
  <metadata
     id="metadata50">
    <rdf:RDF>
      <cc:Work
         rdf:about="">
        <dc:format>image/svg+xml</dc:format>
        <dc:type
           rdf:resource="http://purl.org/dc/dcmitype/StillImage" />
        <dc:title></dc:title>
      </cc:Work>
    </rdf:RDF>
  </metadata>
  <defs
     id="defs4">
    <marker
       refX="0"
       refY="0"
       orient="auto"
       id="Arrow1Send"
       style="overflow:visible">
      <path
         d="M 0,0 5,-5 -12.5,0 5,5 0,0 z"
         transform="matrix(-0.2,0,0,-0.2,-1.2,0)"
         id="path3806"
         style="fill-rule:evenodd;stroke:#000000;stroke-width:1pt" />
    </marker>
    <marker
       refX="0"
       refY="0"
       orient="auto"
       id="Arrow1Sstart"
       style="overflow:visible">
      <path
         d="M 0,0 5,-5 -12.5,0 5,5 0,0 z"
         transform="matrix(0.2,0,0,0.2,1.2,0)"
         id="path3803"
         style="fill-rule:evenodd;stroke:#000000;stroke-width:1pt" />
    </marker>
    <marker
       refX="0"
       refY="0"
       orient="auto"
       id="h"
       style="overflow:visible">
      <path
         d="M 8.7186,4.0337 -2.2074,0.016 8.7186,-4.0017 c -1.7455,2.3721 -1.7354,5.6175 -6e-7,8.0354 z"
         transform="scale(0.6,0.6)"
         id="path10"
         style="fill-rule:evenodd;stroke-width:0.625;stroke-linejoin:round" />
    </marker>
    <marker
       refX="0"
       refY="0"
       orient="auto"
       id="g"
       style="overflow:visible">
      <path
         d="M 8.7186,4.0337 -2.2074,0.016 8.7186,-4.0017 c -1.7455,2.3721 -1.7354,5.6175 -6e-7,8.0354 z"
         transform="scale(-0.6,-0.6)"
         id="path13"
         style="fill-rule:evenodd;stroke-width:0.625;stroke-linejoin:round" />
    </marker>
    <filter
       x="-0.10484"
       y="-0.18257"
       width="1.2097"
       height="1.3651"
       color-interpolation-filters="sRGB"
       id="d">
      <feGaussianBlur
         id="feGaussianBlur7"
         stdDeviation="1.5978799" />
    </filter>
  </defs>
  <g
     id="g4044">
    <path
       d="m 2,9 5,0 2,3 0,2"
       id="path3002"
       style="fill:none;stroke:#008000;stroke-width:2;stroke-linecap:butt;stroke-linejoin:miter;stroke-miterlimit:4;stroke-opacity:1;stroke-dasharray:none" />
    <path
       d="m 2,5 7,0 3.5,5 1.5,0.5"
       id="path3798"
       style="fill:none;stroke:#008000;stroke-width:2;stroke-linecap:butt;stroke-linejoin:miter;stroke-miterlimit:4;stroke-opacity:1;stroke-dasharray:none" />
  </g>
  <g
     transform="matrix(-1,0,0,-1,25,27)"
     id="g4048"
     style="stroke:#cc0000">
    <path
       d="m 2,9 5,0 2,3 0,2"
       id="path4050"
       style="fill:none;stroke:#cc0000;stroke-width:2;stroke-linecap:butt;stroke-linejoin:miter;stroke-miterlimit:4;stroke-opacity:1;stroke-dasharray:none" />
    <path
       d="m 2,5 7,0 3.5,5 1.5,0.5"
       id="path4052"
       style="fill:none;stroke:#cc0000;stroke-width:2;stroke-linecap:butt;stroke-linejoin:miter;stroke-miterlimit:4;stroke-opacity:1;stroke-dasharray:none" />
  </g>
  <path
     d="m 23,7 a 2,2 0 1 1 -4,0 2,2 0 1 1 4,0 z"
     transform="translate(-5,4)"
     id="path4040"
     style="fill:none;stroke:#75507b;stroke-width:2.00000024;stroke-linecap:butt;stroke-linejoin:miter;stroke-opacity:1" />
  <path
     d="m 23,7 a 2,2 0 1 1 -4,0 2,2 0 1 1 4,0 z"
     transform="translate(-12,8.5)"
     id="path4042"
     style="fill:none;stroke:#75507b;stroke-width:2.00000024;stroke-linecap:butt;stroke-linejoin:miter;stroke-opacity:1" />
  <g
     transform="matrix(0.83482846,-0.55051017,0.55051017,0.83482846,-23.54562,4.3639443)"
     id="g4078" />
  <path
     d="M 13.5,23.5 10,18.5"
     id="path4052-7"
     style="fill:none;stroke:#2e3436;stroke-width:2;stroke-linecap:butt;stroke-linejoin:miter;stroke-miterlimit:4;stroke-opacity:1;stroke-dasharray:none" />
  <path
     d="m 21.9375,18 -3.5,-5"
     id="path4101"
     style="fill:none;stroke:#2e3436;stroke-width:2;stroke-linecap:butt;stroke-linejoin:miter;stroke-miterlimit:4;stroke-opacity:1;stroke-dasharray:none" />
  <path
     d="m 6.0405948,21.616319 6.3852472,-1.21599 -3.6326964,5.390133"
     id="path5195-1"
     style="fill:#333333;stroke:none" />
  <path
     d="m 25.728997,14.787327 -6.385247,1.21599 3.632696,-5.390133"
     id="path4121"
     style="fill:#333333;stroke:none" />
</svg>
