<svg id="Слой_1" data-name="Слой 1"
  xmlns:dc="http://purl.org/dc/elements/1.1/"
  xmlns:cc="http://creativecommons.org/ns#"
  xmlns:rdf="http://www.w3.org/1999/02/22-rdf-syntax-ns#"
  xmlns="http://www.w3.org/2000/svg" viewBox="0 0 26 26">
  <metadata id="metadata43">
    <rdf:RDF>
      <cc:Work rdf:about="">
        <cc:license rdf:resource="http://creativecommons.org/licenses/by-sa/4.0/" />
        <dc:format>image/svg+xml</dc:format>
        <dc:type rdf:resource="http://purl.org/dc/dcmitype/StillImage" />
        <dc:title>add_arc</dc:title>
      </cc:Work>
      <cc:License rdf:about="http://creativecommons.org/licenses/by-sa/4.0/">
        <cc:permits rdf:resource="http://creativecommons.org/ns#Reproduction" />
        <cc:permits rdf:resource="http://creativecommons.org/ns#Distribution" />
        <cc:requires rdf:resource="http://creativecommons.org/ns#Notice" />
        <cc:requires rdf:resource="http://creativecommons.org/ns#Attribution" />
        <cc:permits rdf:resource="http://creativecommons.org/ns#DerivativeWorks" />
        <cc:requires rdf:resource="http://creativecommons.org/ns#ShareAlike" />
      </cc:License>
    </rdf:RDF>
  </metadata>
  <defs>
    <style>.cls-1{fill:none;stroke:#1a81c4;stroke-linecap:round;stroke-linejoin:round;stroke-width:2px;}</style>
  </defs>
  <title>ps_tune_length</title>
  <path class="cls-1" d="M2.0058,14.0061h.9986a1,1,0,0,1,1,.9956L4.0156,17.52a1.49,1.49,0,0,0,1.49,1.49h.0176a1.49,1.49,0,0,0,1.49-1.49L7.0025,8.9925A1.99,1.99,0,0,1,8.9925,7h.0162a1.99,1.99,0,0,1,1.99,1.99V15a1,1,0,0,0,1,1H14a1,1,0,0,0,1-1V8.98a1.99,1.99,0,0,1,1.99-1.99h.02A1.99,1.99,0,0,1,19,8.98V15a1,1,0,0,0,1,1h1a1,1,0,0,0,1-1V14a1,1,0,0,1,1-1h.9942"/>
</svg>