<svg id="Слой_1" data-name="Слой 1"
  xmlns:cc="http://creativecommons.org/ns#"
  xmlns:rdf="http://www.w3.org/1999/02/22-rdf-syntax-ns#"
  xmlns="http://www.w3.org/2000/svg" viewBox="0 0 26 26">
  <metadata id="metadata43">
    <rdf:RDF>
      <cc:Work rdf:about="">
        <cc:license rdf:resource="http://creativecommons.org/licenses/by/4.0/" />
      </cc:Work>
      <cc:License rdf:about="http://creativecommons.org/licenses/by/4.0/">
        <cc:permits rdf:resource="http://creativecommons.org/ns#Reproduction" />
        <cc:permits rdf:resource="http://creativecommons.org/ns#Distribution" />
        <cc:requires rdf:resource="http://creativecommons.org/ns#Notice" />
        <cc:requires rdf:resource="http://creativecommons.org/ns#Attribution" />
        <cc:permits rdf:resource="http://creativecommons.org/ns#DerivativeWorks" />
      </cc:License>
    </rdf:RDF>
  </metadata>
  <defs>
    <style>.cls-1{fill:#b9b9b9;}.cls-2{fill:#f29100;}.cls-3{fill:#e61c50;}.cls-4{fill:#fff;}</style>
  </defs>
  <title>push_pad_settings</title>
  <path class="cls-1" d="M4.5034,1H18.5111a3.5022,3.5022,0,0,1,3.5022,3.5022v14.01a3.5022,3.5022,0,0,1-3.5022,3.5022H4.5033a3.5021,3.5021,0,0,1-3.5021-3.5021V4.5024A3.5022,3.5022,0,0,1,4.5034,1Z"/>
  <path class="cls-2" d="M11.5073,3.5073a8,8,0,1,0,8,8A8.0092,8.0092,0,0,0,11.5073,3.5073Zm0,15.3334a7.3334,7.3334,0,1,1,7.3334-7.3334A7.3413,7.3413,0,0,1,11.5073,18.8407Z"/>
  <path class="cls-2" d="M11.5073,5.3235a6.1838,6.1838,0,1,0,6.1838,6.1838A6.1906,6.1906,0,0,0,11.5073,5.3235Zm0,9.7011a3.5174,3.5174,0,1,1,3.5173-3.5173A3.5216,3.5216,0,0,1,11.5073,15.0246Z"/>
  <path class="cls-3" d="M25.0065,18A7.0065,7.0065,0,1,1,18,11,7.0032,7.0032,0,0,1,25.0065,18Z"/>
  <path class="cls-4" d="M22.1,18.9286a4.0851,4.0851,0,0,0-.0472-2.8154c-.936-2.3073-3.1743-3.1978-5.5344-2.9145L19.1226,15.83l-.5332,2.349-2.4241.6134-2.7144-2.5185a4.93,4.93,0,0,0,3.0782,5.4243,4.0474,4.0474,0,0,0,2.54.0607l2.3523,2.3468A7.025,7.025,0,0,0,24.2749,21.1Z"/>
</svg>