<svg id="Слой_1" data-name="Слой 1"
    xmlns:dc="http://purl.org/dc/elements/1.1/"
    xmlns:cc="http://creativecommons.org/ns#"
    xmlns:rdf="http://www.w3.org/1999/02/22-rdf-syntax-ns#"
    xmlns="http://www.w3.org/2000/svg" viewBox="0 0 26 26">
    <metadata id="metadata43">
        <rdf:RDF>
            <cc:Work rdf:about="">
                <cc:license rdf:resource="http://creativecommons.org/licenses/by/4.0/" />
            </cc:Work>
            <cc:License rdf:about="http://creativecommons.org/licenses/by/4.0/">
                <cc:permits rdf:resource="http://creativecommons.org/ns#Reproduction" />
                <cc:permits rdf:resource="http://creativecommons.org/ns#Distribution" />
                <cc:requires rdf:resource="http://creativecommons.org/ns#Notice" />
                <cc:requires rdf:resource="http://creativecommons.org/ns#Attribution" />
                <cc:permits rdf:resource="http://creativecommons.org/ns#DerivativeWorks" />
            </cc:License>
        </rdf:RDF>
    </metadata>
    <defs>
        <style>.cls-1{fill:#b9b9b9;}.cls-2{fill:none;}.cls-2,.cls-3{stroke:#545454;stroke-miterlimit:10;}.cls-3{fill:#545454;stroke-width:0.75px;}.cls-4{fill:#1a81c4;}</style>
    </defs>
    <title>py_script</title>
    <rect class="cls-1" x="1" y="1" width="24" height="24" rx="4"/>
    <line class="cls-2" x1="1" y1="6.2158" x2="25" y2="6.2158"/>
    <path class="cls-3" d="M4.1538,15.2224v-.6572l4.92-2.5967v.6807L4.7886,14.8826l4.2851,2.2217v.7148Z"/>
    <path class="cls-3" d="M11.7866,18.5105h-.623L14.1909,10.2h.6455Z"/>
    <path class="cls-3" d="M21.8462,14.5652v.6572l-4.92,2.5967v-.6914l4.2968-2.2226-4.2968-2.2217v-.7149Z"/>
    <path class="cls-4" d="M5.8416,3.6355a.9535.9535,0,1,1-.9535-.9536A.9535.9535,0,0,1,5.8416,3.6355Z"/>
    <path class="cls-4" d="M8.7628,3.6355a.9536.9536,0,1,1-.9535-.9536A.9535.9535,0,0,1,8.7628,3.6355Z"/>
    <path class="cls-4" d="M11.684,3.6355a.9536.9536,0,1,1-.9536-.9536A.9536.9536,0,0,1,11.684,3.6355Z"/>
</svg>