<?xml version="1.0" encoding="UTF-8" standalone="no"?>
<!DOCTYPE svg PUBLIC "-//W3C//DTD SVG 1.1//EN" "http://www.w3.org/Graphics/SVG/1.1/DTD/svg11.dtd">
<svg width="100%" height="100%" viewBox="0 0 16 16" version="1.1"
    xmlns="http://www.w3.org/2000/svg"
    xmlns:xlink="http://www.w3.org/1999/xlink" xml:space="preserve"
    xmlns:rdf="http://www.w3.org/1999/02/22-rdf-syntax-ns#"
    xmlns:cc="http://creativecommons.org/ns#"
    xmlns:dc="http://purl.org/dc/elements/1.1/"
    xmlns:serif="http://www.serif.com/" style="fill-rule:evenodd;clip-rule:evenodd;stroke-linejoin:round;stroke-miterlimit:2;">
    <metadata
     id="metadata43">
        <rdf:RDF>
            <cc:Work
         rdf:about="">
                <dc:format>image/svg+xml</dc:format>
                <dc:type
           rdf:resource="http://purl.org/dc/dcmitype/StillImage" />
                <dc:title></dc:title>
                <cc:license
           rdf:resource="http://creativecommons.org/licenses/by/4.0/" />
            </cc:Work>
            <cc:License
         rdf:about="http://creativecommons.org/licenses/by/4.0/">
                <cc:permits
           rdf:resource="http://creativecommons.org/ns#Reproduction" />
                <cc:permits
           rdf:resource="http://creativecommons.org/ns#Distribution" />
                <cc:requires
           rdf:resource="http://creativecommons.org/ns#Notice" />
                <cc:requires
           rdf:resource="http://creativecommons.org/ns#Attribution" />
                <cc:permits
           rdf:resource="http://creativecommons.org/ns#DerivativeWorks" />
            </cc:License>
        </rdf:RDF>
    </metadata>
    <path id="path3094" d="M7.846,4.15c0.878,0 1.569,0.222 2.073,0.664c0.337,0.301 0.505,0.661 0.505,1.081c0,0.518 -0.308,1.1 -0.925,1.745c-0.112,0.113 -0.294,0.293 -0.546,0.54c-0.449,0.451 -0.743,0.976 -0.883,1.576c-0.009,0.053 -0.019,0.105 -0.028,0.158l-0.238,0c0.019,-0.578 0.159,-1.111 0.42,-1.599l0.392,-0.72c0.346,-0.638 0.519,-1.224 0.519,-1.757c0,-0.487 -0.229,-0.866 -0.687,-1.136c-0.243,-0.143 -0.518,-0.214 -0.826,-0.214c-0.486,0 -0.869,0.12 -1.149,0.36c-0.121,0.112 -0.182,0.225 -0.182,0.338c0,0.067 0.098,0.199 0.294,0.394c0.159,0.172 0.238,0.319 0.238,0.439c0,0.232 -0.131,0.379 -0.392,0.439c-0.056,0.015 -0.117,0.022 -0.182,0.022c-0.449,0 -0.673,-0.232 -0.673,-0.698c0,-0.57 0.304,-1.013 0.911,-1.328c0.392,-0.203 0.845,-0.304 1.359,-0.304m0.098,6.495c0.308,0 0.532,0.117 0.672,0.349c0.056,0.083 0.084,0.173 0.084,0.271c0,0.27 -0.158,0.45 -0.476,0.54c-0.093,0.03 -0.191,0.045 -0.294,0.045c-0.346,0 -0.574,-0.12 -0.687,-0.36c-0.028,-0.068 -0.042,-0.139 -0.042,-0.214c0,-0.285 0.15,-0.48 0.449,-0.585c0.093,-0.031 0.191,-0.045 0.294,-0.045" style="fill-rule:nonzero;"/>
</svg>