<?xml version="1.0" encoding="UTF-8" standalone="no"?>
<svg
   xmlns:dc="http://purl.org/dc/elements/1.1/"
   xmlns:cc="http://creativecommons.org/ns#"
   xmlns:rdf="http://www.w3.org/1999/02/22-rdf-syntax-ns#"
   xmlns:svg="http://www.w3.org/2000/svg"
   xmlns="http://www.w3.org/2000/svg"
   xmlns:sodipodi="http://sodipodi.sourceforge.net/DTD/sodipodi-0.dtd"
   xmlns:inkscape="http://www.inkscape.org/namespaces/inkscape"
   id="Слой_1"
   data-name="Слой 1"
   viewBox="0 0 24 24"
   version="1.1"
   sodipodi:docname="read_setup.svg"
   inkscape:version="1.0.1 (3bc2e813f5, 2020-09-07)">
  <sodipodi:namedview
     pagecolor="#ffffff"
     bordercolor="#666666"
     borderopacity="1"
     objecttolerance="10"
     gridtolerance="10"
     guidetolerance="10"
     inkscape:pageopacity="0"
     inkscape:pageshadow="2"
     inkscape:window-width="1609"
     inkscape:window-height="1286"
     id="namedview30"
     showgrid="true"
     inkscape:zoom="27.961538"
     inkscape:cx="8.5971647"
     inkscape:cy="12.296135"
     inkscape:window-x="0"
     inkscape:window-y="37"
     inkscape:window-maximized="0"
     inkscape:document-rotation="0"
     inkscape:current-layer="Слой_1">
    <inkscape:grid
       type="xygrid"
       id="grid_kicad"
       spacingx="0.5"
       spacingy="0.5"
       color="#9999ff"
       opacity="0.13"
       empspacing="2" />
  </sodipodi:namedview>
  <metadata
     id="metadata43">
    <rdf:RDF>
      <cc:Work
         rdf:about="">
        <cc:license
           rdf:resource="http://creativecommons.org/licenses/by-sa/4.0/" />
        <dc:format>image/svg+xml</dc:format>
        <dc:type
           rdf:resource="http://purl.org/dc/dcmitype/StillImage" />
        <dc:title>add_arc</dc:title>
      </cc:Work>
      <cc:License
         rdf:about="http://creativecommons.org/licenses/by-sa/4.0/">
        <cc:permits
           rdf:resource="http://creativecommons.org/ns#Reproduction" />
        <cc:permits
           rdf:resource="http://creativecommons.org/ns#Distribution" />
        <cc:requires
           rdf:resource="http://creativecommons.org/ns#Notice" />
        <cc:requires
           rdf:resource="http://creativecommons.org/ns#Attribution" />
        <cc:permits
           rdf:resource="http://creativecommons.org/ns#DerivativeWorks" />
        <cc:requires
           rdf:resource="http://creativecommons.org/ns#ShareAlike" />
      </cc:License>
    </rdf:RDF>
  </metadata>
  <defs
     id="defs26767">
    <style
       id="style26765">.cls-1{fill:#b9b9b9;}.cls-2{fill:#545454;}.cls-3{fill:#e61c50;}.cls-4{fill:none;stroke:#f5f5f5;stroke-linecap:round;stroke-linejoin:round;stroke-width:2px;}</style>
  </defs>
  <title
     id="title26769">read_setup</title>
  <path
     class="cls-2"
     d="m 17.9719,12.0436 -1.44,-1.0306 -0.0171,0.0306 a 5.9055,5.9055 0 0 0 0.0788,-0.7815 5.9135,5.9135 0 0 0 -0.0839,-0.831 L 16.5181,9.4455 17.947,8.4 a 0.7609,0.7609 0 0 0 0.21,-0.9936 L 16.87,5.1694 A 0.761,0.761 0 0 0 15.9054,4.8518 l -1.6223,0.71 0.0141,0.0244 a 5.93,5.93 0 0 0 -1.4515,-0.86 L 12.6533,2.9779 A 0.761,0.761 0 0 0 11.8968,2.3 H 9.3163 A 0.7611,0.7611 0 0 0 8.5598,2.9776 L 8.3666,4.7336 A 5.932,5.932 0 0 0 6.8655,5.6477 l 0.02,-0.0366 -1.63,-0.6927 A 0.761,0.761 0 0 0 4.2942,5.2463 l -1.2634,2.25 a 0.7613,0.7613 0 0 0 0.2208,0.9914 l 1.44,1.0306 0.0314,-0.0559 a 5.9205,5.9205 0 0 0 -0.0806,0.8 5.9186,5.9186 0 0 0 0.0872,0.8654 l -0.0239,-0.0417 -1.429,1.046 a 0.7609,0.7609 0 0 0 -0.21,0.9936 l 1.2877,2.2363 a 0.7609,0.7609 0 0 0 0.9646,0.3176 l 1.6225,-0.71 -0.0333,-0.0577 a 5.9259,5.9259 0 0 0 1.47,0.882 l 0.1936,1.76 a 0.7606,0.7606 0 0 0 0.7563,0.6777 h 2.5805 a 0.7609,0.7609 0 0 0 0.7563,-0.6777 l 0.1938,-1.7594 a 5.9311,5.9311 0 0 0 1.4976,-0.9049 l -0.0175,0.0308 1.63,0.6927 A 0.761,0.761 0 0 0 16.93,15.2853 l 1.2632,-2.25 a 0.7612,0.7612 0 0 0 -0.2213,-0.9917 z m -7.3534,1.0606 a 2.8421,2.8421 0 1 1 2.8421,-2.8421 2.8422,2.8422 0 0 1 -2.8421,2.8421 z"
     id="path26773" />
  <path
     class="cls-3"
     d="M 24.0065,17 A 7.0065,7.0065 0 1 1 17,10 a 7.0032,7.0032 0 0 1 7.0065,7 z"
     id="path26775" />
  <line
     class="cls-4"
     x1="17.103901"
     y1="20.4118"
     x2="17.103901"
     y2="13.4118"
     id="line26777" />
  <polyline
     class="cls-4"
     points="20.859 18.879 18.104 21.631 15.349 18.879"
     id="polyline26779"
     transform="translate(-1,-1)" />
</svg>
