<svg id="Слой_1" data-name="Слой 1"
  xmlns:cc="http://creativecommons.org/ns#"
  xmlns:rdf="http://www.w3.org/1999/02/22-rdf-syntax-ns#"
  xmlns="http://www.w3.org/2000/svg" viewBox="0 0 26 26">
  <metadata id="metadata43">
    <rdf:RDF>
      <cc:Work rdf:about="">
        <cc:license rdf:resource="http://creativecommons.org/licenses/by/4.0/" />
      </cc:Work>
      <cc:License rdf:about="http://creativecommons.org/licenses/by/4.0/">
        <cc:permits rdf:resource="http://creativecommons.org/ns#Reproduction" />
        <cc:permits rdf:resource="http://creativecommons.org/ns#Distribution" />
        <cc:requires rdf:resource="http://creativecommons.org/ns#Notice" />
        <cc:requires rdf:resource="http://creativecommons.org/ns#Attribution" />
        <cc:permits rdf:resource="http://creativecommons.org/ns#DerivativeWorks" />
      </cc:License>
    </rdf:RDF>
  </metadata>
  <defs>
    <style>.cls-1{fill:#b9b9b9;}.cls-2{fill:#545454;}.cls-3{fill:#e61c50;}.cls-4{fill:none;stroke:#f5f5f5;stroke-linecap:round;stroke-linejoin:round;stroke-width:2px;}</style>
  </defs>
  <title>read_setup</title>
  <path class="cls-1" d="M4.5034,1H18.5111a3.5022,3.5022,0,0,1,3.5022,3.5022v14.01a3.5022,3.5022,0,0,1-3.5022,3.5022H4.5033a3.5021,3.5021,0,0,1-3.5021-3.5021V4.5024A3.5022,3.5022,0,0,1,4.5034,1Z"/>
  <path class="cls-2" d="M18.9719,13.0436l-1.44-1.0306-.0171.0306a5.9055,5.9055,0,0,0,.0788-.7815,5.9135,5.9135,0,0,0-.0839-.831l.0084.0144L18.947,9.4a.7609.7609,0,0,0,.21-.9936L17.87,6.1694a.761.761,0,0,0-.9646-.3176l-1.6223.71.0141.0244a5.93,5.93,0,0,0-1.4515-.86l-.1924-1.7483A.761.761,0,0,0,12.8968,3.3H10.3163a.7611.7611,0,0,0-.7565.6776L9.3666,5.7336a5.932,5.932,0,0,0-1.5011.9141l.02-.0366-1.63-.6927a.761.761,0,0,0-.9613.3279l-1.2634,2.25a.7613.7613,0,0,0,.2208.9914l1.44,1.0306.0314-.0559a5.9205,5.9205,0,0,0-.0806.8,5.9186,5.9186,0,0,0,.0872.8654l-.0239-.0417-1.429,1.046a.7609.7609,0,0,0-.21.9936L5.3544,16.362a.7609.7609,0,0,0,.9646.3176l1.6225-.71-.0333-.0577a5.9259,5.9259,0,0,0,1.47.882l.1936,1.76a.7606.7606,0,0,0,.7563.6777h2.5805a.7609.7609,0,0,0,.7563-.6777l.1938-1.7594a5.9311,5.9311,0,0,0,1.4976-.9049l-.0175.0308,1.63.6927a.761.761,0,0,0,.9612-.3278l1.2632-2.25A.7612.7612,0,0,0,18.9719,13.0436Zm-7.3534,1.0606a2.8421,2.8421,0,1,1,2.8421-2.8421A2.8422,2.8422,0,0,1,11.6185,14.1042Z"/>
  <path class="cls-3" d="M25.0065,18A7.0065,7.0065,0,1,1,18,11,7.0032,7.0032,0,0,1,25.0065,18Z"/>
  <line class="cls-4" x1="18.1039" y1="21.4118" x2="18.1039" y2="14.4118"/>
  <polyline class="cls-4" points="20.859 18.879 18.104 21.631 15.349 18.879"/>
</svg>