<svg id="Слой_1" data-name="Слой 1"
  xmlns:dc="http://purl.org/dc/elements/1.1/"
  xmlns:cc="http://creativecommons.org/ns#"
  xmlns:rdf="http://www.w3.org/1999/02/22-rdf-syntax-ns#"
  xmlns="http://www.w3.org/2000/svg" viewBox="0 0 26 26">
  <metadata id="metadata43">
    <rdf:RDF>
      <cc:Work rdf:about="">
        <cc:license rdf:resource="http://creativecommons.org/licenses/by-sa/4.0/" />
        <dc:format>image/svg+xml</dc:format>
        <dc:type rdf:resource="http://purl.org/dc/dcmitype/StillImage" />
        <dc:title>add_arc</dc:title>
      </cc:Work>
      <cc:License rdf:about="http://creativecommons.org/licenses/by-sa/4.0/">
        <cc:permits rdf:resource="http://creativecommons.org/ns#Reproduction" />
        <cc:permits rdf:resource="http://creativecommons.org/ns#Distribution" />
        <cc:requires rdf:resource="http://creativecommons.org/ns#Notice" />
        <cc:requires rdf:resource="http://creativecommons.org/ns#Attribution" />
        <cc:permits rdf:resource="http://creativecommons.org/ns#DerivativeWorks" />
        <cc:requires rdf:resource="http://creativecommons.org/ns#ShareAlike" />
      </cc:License>
    </rdf:RDF>
  </metadata>
  <defs>
    <style>.cls-1{fill:none;stroke:#e61c50;stroke-linecap:round;stroke-linejoin:round;}.cls-2{fill:#e61c50;}.cls-3{fill:#b9b9b9;}.cls-4{fill:#545454;}</style>
  </defs>
  <title>reannotate_down_left копия</title>
  <line class="cls-1" x1="6.0069" y1="13.8785" x2="6.0069" y2="8.6966"/>
  <polygon class="cls-2" points="7.024 13.185 6.007 16.979 4.99 13.185 7.024 13.185"/>
  <line class="cls-1" x1="20.4955" y1="13.8785" x2="20.4955" y2="8.6966"/>
  <polygon class="cls-2" points="21.512 13.185 20.495 16.979 19.479 13.185 21.512 13.185"/>
  <line class="cls-1" x1="6.0069" y1="17.6278" x2="16.9626" y2="10.8662"/>
  <polygon class="cls-2" points="16.898 12.271 19.978 9.005 15.678 10.294 16.898 12.271"/>
  <rect class="cls-3" x="0.9962" y="1.0023" width="10" height="8"/>
  <path class="cls-4" d="M3.1172,5.2764V7.61H2.1807V1.9854H4.2549A2.2173,2.2173,0,0,1,5.707,2.41,1.4861,1.4861,0,0,1,6.22,3.623a1.2578,1.2578,0,0,1-.2256.752,1.5431,1.5431,0,0,1-.6572.5039,1.1755,1.1755,0,0,1,.6826.4922,1.5927,1.5927,0,0,1,.208.8408V6.68a1.9009,1.9009,0,0,0,.0616.4824.6761.6761,0,0,0,.208.3594V7.61H5.5342A.6294.6294,0,0,1,5.335,7.209a3.4031,3.4031,0,0,1-.044-.5371V6.22a.9509.9509,0,0,0-.2461-.6885.9012.9012,0,0,0-.6787-.2548Zm0-.753H4.2041a1.2693,1.2693,0,0,0,.8213-.2168.812.812,0,0,0,.2578-.66.8787.8787,0,0,0-.2539-.667,1.0889,1.0889,0,0,0-.7744-.2412H3.1172Z"/>
  <path class="cls-4" d="M9.166,7.61H8.23V2.877H7.0889V2.1855l2.0771-.2Z"/>
  <rect class="cls-3" x="15.0038" y="1.0023" width="10" height="8"/>
  <rect class="cls-3" x="0.9962" y="17.0004" width="10" height="8"/>
  <rect class="cls-3" x="15.0038" y="17.0004" width="10" height="8"/>
  <path class="cls-4" d="M16.9019,21.5244v2.334h-.9366v-5.625H18.04a2.2175,2.2175,0,0,1,1.4521.4248,1.4861,1.4861,0,0,1,.5127,1.2129,1.2575,1.2575,0,0,1-.2256.7519,1.5439,1.5439,0,0,1-.6572.504,1.1753,1.1753,0,0,1,.6826.4921,1.593,1.593,0,0,1,.208.8409v.4677a1.9067,1.9067,0,0,0,.0615.4825.6764.6764,0,0,0,.208.3593v.0889h-.9629a.63.63,0,0,1-.1992-.4014,3.4028,3.4028,0,0,1-.0439-.5371v-.4521a.9507.9507,0,0,0-.2461-.6885.9012.9012,0,0,0-.6787-.2549Zm0-.7529h1.0869a1.27,1.27,0,0,0,.8213-.2168.8127.8127,0,0,0,.2578-.66.8789.8789,0,0,0-.2539-.667,1.0892,1.0892,0,0,0-.7744-.2412H16.9019Z"/>
  <path class="cls-4" d="M23.7642,21.8535h.7089v.7529h-.7089v1.252h-.9327v-1.252H20.4233L20.4,22.0342l2.4-3.8008h.9639Zm-2.4395,0h1.5068V19.5693l-.0234-.0068-.0771.166Z"/>
</svg>