<svg id="Слой_1" data-name="Слой 1"
  xmlns:dc="http://purl.org/dc/elements/1.1/"
  xmlns:cc="http://creativecommons.org/ns#"
  xmlns:rdf="http://www.w3.org/1999/02/22-rdf-syntax-ns#"
  xmlns="http://www.w3.org/2000/svg" viewBox="0 0 26 26">
  <metadata id="metadata43">
    <rdf:RDF>
      <cc:Work rdf:about="">
        <cc:license rdf:resource="http://creativecommons.org/licenses/by-sa/4.0/" />
        <dc:format>image/svg+xml</dc:format>
        <dc:type rdf:resource="http://purl.org/dc/dcmitype/StillImage" />
        <dc:title>add_arc</dc:title>
      </cc:Work>
      <cc:License rdf:about="http://creativecommons.org/licenses/by-sa/4.0/">
        <cc:permits rdf:resource="http://creativecommons.org/ns#Reproduction" />
        <cc:permits rdf:resource="http://creativecommons.org/ns#Distribution" />
        <cc:requires rdf:resource="http://creativecommons.org/ns#Notice" />
        <cc:requires rdf:resource="http://creativecommons.org/ns#Attribution" />
        <cc:permits rdf:resource="http://creativecommons.org/ns#DerivativeWorks" />
        <cc:requires rdf:resource="http://creativecommons.org/ns#ShareAlike" />
      </cc:License>
    </rdf:RDF>
  </metadata>
  <defs>
    <style>.cls-1{fill:none;stroke:#e61c50;stroke-linecap:round;stroke-linejoin:round;}.cls-2{fill:#e61c50;}.cls-3{fill:#b9b9b9;}.cls-4{fill:#545454;}</style>
  </defs>
  <title>reannotate_left_down копия</title>
  <line class="cls-1" x1="5.9915" y1="17.3828" x2="17.6479" y2="10.7379"/>
  <polygon class="cls-2" points="17.535 12.14 20.726 8.983 16.384 10.121 17.535 12.14"/>
  <rect class="cls-3" x="1.0002" y="1.0062" width="10" height="8"/>
  <path class="cls-4" d="M2.9336,5.28v2.334H1.9971V1.9893H4.0713a2.2173,2.2173,0,0,1,1.4521.4248A1.4861,1.4861,0,0,1,6.0361,3.627a1.2577,1.2577,0,0,1-.2256.7519,1.5431,1.5431,0,0,1-.6572.5039,1.1755,1.1755,0,0,1,.6826.4922,1.5927,1.5927,0,0,1,.208.8408v.4678a1.9054,1.9054,0,0,0,.0616.4824.6761.6761,0,0,0,.208.3594v.0889H5.3506a.6294.6294,0,0,1-.1992-.4014,3.4031,3.4031,0,0,1-.044-.5371V6.2236a.9506.9506,0,0,0-.2461-.6884A.9009.9009,0,0,0,4.1826,5.28Zm0-.753H4.0205a1.2693,1.2693,0,0,0,.8213-.2168A.812.812,0,0,0,5.1,3.65a.8787.8787,0,0,0-.2539-.667,1.0889,1.0889,0,0,0-.7744-.2412H2.9336Z"/>
  <path class="cls-4" d="M9.7959,5.6094h.709v.7529h-.709v1.252H8.8633V6.3623H6.4551L6.4316,5.79l2.4-3.8007h.9639Zm-2.4395,0H8.8633V3.3252L8.84,3.3184l-.0771.166Z"/>
  <rect class="cls-3" x="15.0078" y="1.0062" width="10" height="8"/>
  <rect class="cls-3" x="1.0002" y="17.0043" width="10" height="8"/>
  <rect class="cls-3" x="15.0078" y="17.0043" width="10" height="8"/>
  <line class="cls-1" x1="15.8125" y1="4.9931" x2="13.2887" y2="4.9931"/>
  <polygon class="cls-2" points="13.982 3.976 10.188 4.993 13.982 6.01 13.982 3.976"/>
  <line class="cls-1" x1="12.9791" y1="21.0185" x2="15.3182" y2="21.0185"/>
  <polygon class="cls-2" points="13.673 22.035 9.878 21.019 13.673 20.002 13.673 22.035"/>
  <path class="cls-4" d="M16.9092,21.5283v2.334h-.9365v-5.625h2.0742a2.2173,2.2173,0,0,1,1.4521.4248,1.4861,1.4861,0,0,1,.5127,1.2129,1.258,1.258,0,0,1-.2256.752,1.5445,1.5445,0,0,1-.6572.5039,1.175,1.175,0,0,1,.6826.4921,1.593,1.593,0,0,1,.208.8409v.4677a1.9023,1.9023,0,0,0,.0616.4825.6758.6758,0,0,0,.208.3593v.0889h-.9629a.6292.6292,0,0,1-.1992-.4014,3.4031,3.4031,0,0,1-.044-.5371v-.4521a.9507.9507,0,0,0-.2461-.6885.9012.9012,0,0,0-.6787-.2549Zm0-.7529h1.0869a1.27,1.27,0,0,0,.8213-.2168.8124.8124,0,0,0,.2578-.66.8789.8789,0,0,0-.2539-.667,1.0889,1.0889,0,0,0-.7744-.2412H16.9092Z"/>
  <path class="cls-4" d="M22.958,23.8623h-.9365V19.1289H20.8809v-.6914l2.0771-.2Z"/>
</svg>