<svg id="Слой_1" data-name="Слой 1"
  xmlns:cc="http://creativecommons.org/ns#"
  xmlns:rdf="http://www.w3.org/1999/02/22-rdf-syntax-ns#"
  xmlns="http://www.w3.org/2000/svg" viewBox="0 0 26 26">
  <metadata id="metadata43">
    <rdf:RDF>
      <cc:Work rdf:about="">
        <cc:license rdf:resource="http://creativecommons.org/licenses/by/4.0/" />
      </cc:Work>
      <cc:License rdf:about="http://creativecommons.org/licenses/by/4.0/">
        <cc:permits rdf:resource="http://creativecommons.org/ns#Reproduction" />
        <cc:permits rdf:resource="http://creativecommons.org/ns#Distribution" />
        <cc:requires rdf:resource="http://creativecommons.org/ns#Notice" />
        <cc:requires rdf:resource="http://creativecommons.org/ns#Attribution" />
        <cc:permits rdf:resource="http://creativecommons.org/ns#DerivativeWorks" />
      </cc:License>
    </rdf:RDF>
  </metadata>
  <defs>
    <style>.cls-1{fill:none;stroke:#e61c50;stroke-linecap:round;stroke-linejoin:round;}.cls-2{fill:#e61c50;}.cls-3{fill:#b9b9b9;}.cls-4{fill:#545454;}</style>
  </defs>
  <title>reannotate_left_down</title>
  <line class="cls-1" x1="17.9034" y1="15.2365" x2="6.0365" y2="8.3167"/>
  <polygon class="cls-2" points="17.804 13.833 20.965 17.022 16.633 15.841 17.804 13.833"/>
  <rect class="cls-3" x="1.0002" y="1.0062" width="10" height="8"/>
  <rect class="cls-3" x="15.0078" y="1.0062" width="10" height="8"/>
  <rect class="cls-3" x="1.0002" y="17.0043" width="10" height="8"/>
  <rect class="cls-3" x="15.0078" y="17.0043" width="10" height="8"/>
  <path class="cls-4" d="M17.3408,5.28v2.334h-.9365V1.9893h2.0742a2.2176,2.2176,0,0,1,1.4522.4248,1.4861,1.4861,0,0,1,.5127,1.2129,1.2577,1.2577,0,0,1-.2256.7519,1.544,1.544,0,0,1-.6573.5039,1.1757,1.1757,0,0,1,.6827.4922,1.5936,1.5936,0,0,1,.208.8408v.4678a1.9053,1.9053,0,0,0,.0615.4824.6761.6761,0,0,0,.208.3594v.0889h-.9629a.63.63,0,0,1-.1992-.4014,3.4031,3.4031,0,0,1-.044-.5371V6.2236a.951.951,0,0,0-.246-.6884A.9012.9012,0,0,0,18.59,5.28Zm0-.753h1.0869a1.2691,1.2691,0,0,0,.8213-.2168.812.812,0,0,0,.2578-.66.8784.8784,0,0,0-.2539-.667,1.0889,1.0889,0,0,0-.7744-.2412H17.3408Z"/>
  <path class="cls-4" d="M23.39,7.6143h-.9365V2.8809H21.3125V2.19l2.0771-.2Z"/>
  <line class="cls-1" x1="15.8125" y1="4.9931" x2="13.2887" y2="4.9931"/>
  <polygon class="cls-2" points="13.982 3.976 10.188 4.993 13.982 6.01 13.982 3.976"/>
  <line class="cls-1" x1="15.1085" y1="21.0185" x2="13.2255" y2="21.0185"/>
  <polygon class="cls-2" points="13.919 20.002 10.125 21.019 13.919 22.035 13.919 20.002"/>
  <path class="cls-4" d="M2.9014,21.5283v2.334H1.9648v-5.625H4.0391a2.2175,2.2175,0,0,1,1.4521.4248,1.4861,1.4861,0,0,1,.5127,1.2129,1.258,1.258,0,0,1-.2256.752,1.5445,1.5445,0,0,1-.6572.5039,1.1753,1.1753,0,0,1,.6826.4921,1.593,1.593,0,0,1,.208.8409v.4677a1.9067,1.9067,0,0,0,.0615.4825.6771.6771,0,0,0,.208.3593v.0889H5.3184a.6292.6292,0,0,1-.1993-.4014,3.4028,3.4028,0,0,1-.0439-.5371v-.4521a.9507.9507,0,0,0-.2461-.6885.9012.9012,0,0,0-.6787-.2549Zm0-.7529H3.9883a1.27,1.27,0,0,0,.8213-.2168.8127.8127,0,0,0,.2578-.66.8789.8789,0,0,0-.2539-.667,1.089,1.089,0,0,0-.7744-.2412H2.9014Z"/>
  <path class="cls-4" d="M9.7637,21.8574h.709v.753h-.709v1.2519H8.8311V22.61H6.4229l-.0235-.5723,2.4-3.8008h.9639Zm-2.4395,0H8.8311V19.5732l-.0235-.0068-.0771.166Z"/>
</svg>