<svg id="Слой_1" data-name="Слой 1"
  xmlns:dc="http://purl.org/dc/elements/1.1/"
  xmlns:cc="http://creativecommons.org/ns#"
  xmlns:rdf="http://www.w3.org/1999/02/22-rdf-syntax-ns#"
  xmlns="http://www.w3.org/2000/svg" viewBox="0 0 26 26">
  <metadata id="metadata43">
    <rdf:RDF>
      <cc:Work rdf:about="">
        <cc:license rdf:resource="http://creativecommons.org/licenses/by-sa/4.0/" />
        <dc:format>image/svg+xml</dc:format>
        <dc:type rdf:resource="http://purl.org/dc/dcmitype/StillImage" />
        <dc:title>add_arc</dc:title>
      </cc:Work>
      <cc:License rdf:about="http://creativecommons.org/licenses/by-sa/4.0/">
        <cc:permits rdf:resource="http://creativecommons.org/ns#Reproduction" />
        <cc:permits rdf:resource="http://creativecommons.org/ns#Distribution" />
        <cc:requires rdf:resource="http://creativecommons.org/ns#Notice" />
        <cc:requires rdf:resource="http://creativecommons.org/ns#Attribution" />
        <cc:permits rdf:resource="http://creativecommons.org/ns#DerivativeWorks" />
        <cc:requires rdf:resource="http://creativecommons.org/ns#ShareAlike" />
      </cc:License>
    </rdf:RDF>
  </metadata>
  <defs>
    <style>.cls-1{fill:none;stroke:#e61c50;stroke-linecap:round;stroke-linejoin:round;}.cls-2{fill:#e61c50;}.cls-3{fill:#b9b9b9;}.cls-4{fill:#545454;}</style>
  </defs>
  <title>reannotate_up_right</title>
  <line class="cls-1" x1="6.0069" y1="16.9792" x2="6.0069" y2="11.7974"/>
  <polygon class="cls-2" points="7.024 12.491 6.007 8.697 4.99 12.491 7.024 12.491"/>
  <line class="cls-1" x1="20.4955" y1="16.9792" x2="20.4955" y2="12.1306"/>
  <polygon class="cls-2" points="21.512 12.824 20.495 9.03 19.479 12.824 21.512 12.824"/>
  <line class="cls-1" x1="9.5246" y1="15.1515" x2="20.2083" y2="8.584"/>
  <polygon class="cls-2" points="10.808 15.726 6.506 17.007 9.591 13.746 10.808 15.726"/>
  <rect class="cls-3" x="0.9962" y="1.0023" width="10" height="8"/>
  <rect class="cls-3" x="15.0038" y="1.0023" width="10" height="8"/>
  <rect class="cls-3" x="0.9962" y="17.0004" width="10" height="8"/>
  <rect class="cls-3" x="15.0038" y="17.0004" width="10" height="8"/>
  <path class="cls-4" d="M3.0186,5.2764V7.61H2.082V1.9854H4.1562A2.2176,2.2176,0,0,1,5.6084,2.41,1.4861,1.4861,0,0,1,6.1211,3.623a1.2578,1.2578,0,0,1-.2256.752,1.5437,1.5437,0,0,1-.6572.5039,1.1758,1.1758,0,0,1,.6826.4922,1.5927,1.5927,0,0,1,.208.8408V6.68a1.9053,1.9053,0,0,0,.0615.4824.6768.6768,0,0,0,.208.3594V7.61H5.4355a.63.63,0,0,1-.1992-.4014,3.4028,3.4028,0,0,1-.0439-.5371V6.22a.9509.9509,0,0,0-.2461-.6885.9013.9013,0,0,0-.6787-.2548Zm0-.753H4.1055a1.2693,1.2693,0,0,0,.8213-.2168.8123.8123,0,0,0,.2578-.66.8787.8787,0,0,0-.2539-.667,1.0893,1.0893,0,0,0-.7745-.2412H3.0186Z"/>
  <path class="cls-4" d="M9.8809,5.6055H10.59v.7529H9.8809V7.61H8.9482V6.3584H6.54l-.0234-.5723,2.4-3.8007h.9639Zm-2.44,0H8.9482V3.3213l-.0234-.0068-.0771.166Z"/>
  <path class="cls-4" d="M17.5889,21.5254v2.334h-.9366v-5.625h2.0743a2.2175,2.2175,0,0,1,1.4521.4248,1.4861,1.4861,0,0,1,.5127,1.2129,1.2575,1.2575,0,0,1-.2256.7519,1.5429,1.5429,0,0,1-.6572.5039,1.1758,1.1758,0,0,1,.6826.4922,1.5927,1.5927,0,0,1,.208.8408v.4678a1.9053,1.9053,0,0,0,.0615.4824.6765.6765,0,0,0,.2081.3594v.0889h-.9629a.63.63,0,0,1-.1993-.4014,3.4028,3.4028,0,0,1-.0439-.5371v-.4521a.9507.9507,0,0,0-.2461-.6885.9012.9012,0,0,0-.6787-.2549Zm0-.7529h1.0869a1.27,1.27,0,0,0,.8213-.2168.8127.8127,0,0,0,.2578-.66.8787.8787,0,0,0-.2539-.667,1.089,1.089,0,0,0-.7744-.2412H17.5889Z"/>
  <path class="cls-4" d="M23.6377,23.8594h-.9365V19.126H21.5605v-.6914l2.0772-.2Z"/>
</svg>