<?xml version="1.0" encoding="UTF-8" standalone="no"?>
<svg
   xmlns:dc="http://purl.org/dc/elements/1.1/"
   xmlns:cc="http://creativecommons.org/ns#"
   xmlns:rdf="http://www.w3.org/1999/02/22-rdf-syntax-ns#"
   xmlns:svg="http://www.w3.org/2000/svg"
   xmlns="http://www.w3.org/2000/svg"
   xmlns:sodipodi="http://sodipodi.sourceforge.net/DTD/sodipodi-0.dtd"
   xmlns:inkscape="http://www.inkscape.org/namespaces/inkscape"
   id="Слой_1"
   data-name="Слой 1"
   viewBox="0 0 24 24"
   version="1.1"
   sodipodi:docname="redo.svg"
   inkscape:version="1.0.1 (3bc2e813f5, 2020-09-07)">
  <sodipodi:namedview
     pagecolor="#ffffff"
     bordercolor="#666666"
     borderopacity="1"
     objecttolerance="10"
     gridtolerance="10"
     guidetolerance="10"
     inkscape:pageopacity="0"
     inkscape:pageshadow="2"
     inkscape:window-width="1609"
     inkscape:window-height="1286"
     id="namedview30"
     showgrid="true"
     inkscape:zoom="27.961538"
     inkscape:cx="8.621334"
     inkscape:cy="13.966277"
     inkscape:window-x="0"
     inkscape:window-y="37"
     inkscape:window-maximized="0"
     inkscape:document-rotation="0"
     inkscape:current-layer="Слой_1">
    <inkscape:grid
       type="xygrid"
       id="grid_kicad"
       spacingx="0.5"
       spacingy="0.5"
       color="#9999ff"
       opacity="0.13"
       empspacing="2" />
  </sodipodi:namedview>
  <metadata
     id="metadata43">
    <rdf:RDF>
      <cc:Work
         rdf:about="">
        <cc:license
           rdf:resource="http://creativecommons.org/licenses/by-sa/4.0/" />
        <dc:format>image/svg+xml</dc:format>
        <dc:type
           rdf:resource="http://purl.org/dc/dcmitype/StillImage" />
        <dc:title>add_arc</dc:title>
      </cc:Work>
      <cc:License
         rdf:about="http://creativecommons.org/licenses/by-sa/4.0/">
        <cc:permits
           rdf:resource="http://creativecommons.org/ns#Reproduction" />
        <cc:permits
           rdf:resource="http://creativecommons.org/ns#Distribution" />
        <cc:requires
           rdf:resource="http://creativecommons.org/ns#Notice" />
        <cc:requires
           rdf:resource="http://creativecommons.org/ns#Attribution" />
        <cc:permits
           rdf:resource="http://creativecommons.org/ns#DerivativeWorks" />
        <cc:requires
           rdf:resource="http://creativecommons.org/ns#ShareAlike" />
      </cc:License>
    </rdf:RDF>
  </metadata>
  <defs
     id="defs26801">
    <style
       id="style26799">.cls-1{fill:#545454;}</style>
  </defs>
  <title
     id="title26803">redo</title>
  <path
     class="cls-1"
     d="m 12.8791,24 c 0.0665,0 0.1321,-0.001 0.2,-0.002 A 10.7977,10.7977 0 0 0 20.7167,20.6641 1.00331,1.00331 0 1 0 19.2745,19.2689 8.8920838,8.8920838 0 0 1 6.4938,6.9024 8.8622,8.8622 0 0 1 19.05,6.6768 1.0035,1.0035 0 0 0 20.4414,5.2305 10.6175,10.6175 0 0 0 12.6892,2.1733 10.9,10.9 0 0 0 2.0018,13.2809 10.8985,10.8985 0 0 0 12.8791,24 Z"
     id="path26805" />
  <path
     class="cls-1"
     d="m 15.3046,9.46 a 0.993,0.993 0 0 0 0.3043,-0.0471 l 5.6935,-1.821 A 1.0049,1.0049 0 0 0 22,6.6346 v -5.63 a 1.0019,1.0019 0 1 0 -2.0038,0 v 4.896 L 15,7.498 a 1.0051,1.0051 0 0 0 0.3043,1.9623 z"
     id="path26807" />
</svg>
