<?xml version="1.0" encoding="UTF-8"?>
<svg xmlns="http://www.w3.org/2000/svg" xmlns:xlink="http://www.w3.org/1999/xlink" viewBox="0 0 24 24" version="1.1" width="16px" height="16px">
<g id="surface1">
<path style=" fill-rule:evenodd;" d="M 15.324219 4.445313 C 13.496094 3.640625 11.433594 3.515625 9.515625 4.121094 C 5.871094 5.269531 3.507813 8.726563 3.753906 12.53125 L 1.265625 12.695313 C 0.945313 7.738281 4.027344 3.238281 8.765625 1.742188 C 11.539063 0.867188 14.546875 1.171875 17.097656 2.550781 L 19.484375 0 L 20.121094 7.074219 L 12.628906 7.324219 Z M 15.230469 22.257813 C 14.179688 22.585938 13.089844 22.753906 12.007813 22.753906 C 10.242188 22.753906 8.488281 22.296875 6.90625 21.445313 L 4.515625 24 L 3.882813 16.925781 L 11.371094 16.675781 L 8.679688 19.554688 C 10.5 20.355469 12.5625 20.484375 14.480469 19.878906 C 18.125 18.726563 20.492188 15.265625 20.246094 11.46875 L 22.730469 11.304688 C 23.058594 16.253906 19.972656 20.757813 15.230469 22.257813 Z "/>
</g>
</svg>

