<svg id="Слой_1" data-name="Слой 1"
  xmlns:dc="http://purl.org/dc/elements/1.1/"
  xmlns:cc="http://creativecommons.org/ns#"
  xmlns:rdf="http://www.w3.org/1999/02/22-rdf-syntax-ns#"
  xmlns="http://www.w3.org/2000/svg" viewBox="0 0 26 26">
  <metadata id="metadata43">
    <rdf:RDF>
      <cc:Work rdf:about="">
        <cc:license rdf:resource="http://creativecommons.org/licenses/by-sa/4.0/" />
        <dc:format>image/svg+xml</dc:format>
        <dc:type rdf:resource="http://purl.org/dc/dcmitype/StillImage" />
        <dc:title>add_arc</dc:title>
      </cc:Work>
      <cc:License rdf:about="http://creativecommons.org/licenses/by-sa/4.0/">
        <cc:permits rdf:resource="http://creativecommons.org/ns#Reproduction" />
        <cc:permits rdf:resource="http://creativecommons.org/ns#Distribution" />
        <cc:requires rdf:resource="http://creativecommons.org/ns#Notice" />
        <cc:requires rdf:resource="http://creativecommons.org/ns#Attribution" />
        <cc:permits rdf:resource="http://creativecommons.org/ns#DerivativeWorks" />
        <cc:requires rdf:resource="http://creativecommons.org/ns#ShareAlike" />
      </cc:License>
    </rdf:RDF>
  </metadata>
  <defs>
    <style>.cls-1{fill:#b9b9b9;}.cls-2{fill:#e61c50;}</style>
  </defs>
  <title>rescue</title>
  <path class="cls-1" d="M13,1A12,12,0,1,0,25,13,12,12,0,0,0,13,1Zm0,16.7715A4.7715,4.7715,0,1,1,17.7715,13,4.7715,4.7715,0,0,1,13,17.7715Z"/>
  <path class="cls-2" d="M17.7715,13H25A12,12,0,0,0,13,1V8.2285A4.7714,4.7714,0,0,1,17.7715,13Z"/>
  <path class="cls-2" d="M8.2285,13H1A12,12,0,0,0,13,25V17.7715A4.7714,4.7714,0,0,1,8.2285,13Z"/>
</svg>