<svg xmlns="http://www.w3.org/2000/svg" height="48" width="48" version="1.1">
 <defs>
  <filter id="d" color-interpolation-filters="sRGB">
   <feGaussianBlur stdDeviation="0.3929088"/>
  </filter>
  <filter id="f" color-interpolation-filters="sRGB">
   <feGaussianBlur stdDeviation="1.1026007"/>
  </filter>
  <filter id="e" color-interpolation-filters="sRGB">
   <feGaussianBlur stdDeviation="1.1026007"/>
  </filter>
 </defs>
 <path opacity=".24609" d="m21.001 27.635 16.652 11.349" stroke="#000" stroke-dasharray="4, 1" fill="none"/>
 <g opacity=".34203" transform="translate(25.668,-21.34)" filter="url(#d)" stroke="#000">
  <path fill-rule="evenodd" d="m35.329 41.25h23.164v6.0332h-1.6545l-2.4818-3.0166h-4.1363v15.837l3.3091 2.2625v1.5083h-13.236v-1.5083l3.3091-2.2625v-15.837h-4.1363l-2.4818 3.0166h-1.654v-6.034z"/>
  <g transform="translate(26.103,31.384)">
   <rect transform="scale(-1)" height="22.55" width="1.5437" y="-32.496" x="-41.693"/>
   <g transform="translate(-1.2151 -.525)">
    <path d="m42.616 10.496-1.0916 0.70711 2.7677 2 1.0916-0.70711-2.7677-2z"/>
    <path d="m42.616 10.496-1.0916 0.70711 2.7677 2 1.0916-0.70711-2.7677-2z"/>
    <path d="m41.657 10.496 1.0916 0.70711-2.7677 2-1.0916-0.70711 2.7677-2z"/>
   </g>
   <g transform="translate(-1.5348,11.025)">
    <path d="m42.936 21.496-1.0916-0.70711 2.7677-2 1.0916 0.70711-2.7677 2z"/>
    <path d="m42.936 21.496-1.0916-0.70711 2.7677-2 1.0916 0.70711-2.7677 2z"/>
    <path d="m41.977 21.496 1.0916-0.70711-2.7677-2-1.0916 0.70711 2.7677 2z"/>
   </g>
  </g>
  <g transform="matrix(0,1,-1.0233,0,68.629,-6.93)">
   <rect transform="scale(-1)" height="22.55" width="1.5437" y="-32.496" x="-41.693"/>
   <g transform="translate(-1.2151 -.525)">
    <path d="m42.616 10.496-1.0916 0.70711 2.7677 2 1.0916-0.70711-2.7677-2z"/>
    <path d="m42.616 10.496-1.0916 0.70711 2.7677 2 1.0916-0.70711-2.7677-2z"/>
    <path d="m41.657 10.496 1.0916 0.70711-2.7677 2-1.0916-0.70711 2.7677-2z"/>
   </g>
   <g transform="translate(-1.5348,11.025)">
    <path d="m42.936 21.496-1.0916-0.70711 2.7677-2 1.0916 0.70711-2.7677 2z"/>
    <path d="m42.936 21.496-1.0916-0.70711 2.7677-2 1.0916 0.70711-2.7677 2z"/>
    <path d="m41.977 21.496 1.0916-0.70711-2.7677-2-1.0916 0.70711 2.7677 2z"/>
   </g>
  </g>
 </g>
 <path fill-rule="evenodd" fill="#00009b" d="m60.094 18.4h23.164v6.0332h-1.6545l-2.4818-3.0166h-4.1363v15.837l3.3091 2.2625v1.5083h-13.236v-1.5083l3.3091-2.2625v-15.837h-4.1363l-2.4818 3.0166h-1.655v-6.034z"/>
 <g transform="translate(50.868,8.5349)">
  <rect transform="scale(-1)" height="22.55" width="1.5437" y="-32.496" x="-41.693"/>
  <g transform="translate(-1.2151 -.525)">
   <path d="m42.616 10.496-1.0916 0.70711 2.7677 2 1.0916-0.70711-2.7677-2z"/>
   <path d="m42.616 10.496-1.0916 0.70711 2.7677 2 1.0916-0.70711-2.7677-2z"/>
   <path d="m41.657 10.496 1.0916 0.70711-2.7677 2-1.0916-0.70711 2.7677-2z"/>
  </g>
  <g transform="translate(-1.5348,11.025)">
   <path d="m42.936 21.496-1.0916-0.70711 2.7677-2 1.0916 0.70711-2.7677 2z"/>
   <path d="m42.936 21.496-1.0916-0.70711 2.7677-2 1.0916 0.70711-2.7677 2z"/>
   <path d="m41.977 21.496 1.0916-0.70711-2.7677-2-1.0916 0.70711 2.7677 2z"/>
  </g>
 </g>
 <g transform="matrix(0,1,-1.0233,0,93.394,-29.779)">
  <rect transform="scale(-1)" height="22.55" width="1.5437" y="-32.496" x="-41.693"/>
  <g transform="translate(-1.2151 -.525)">
   <path d="m42.616 10.496-1.0916 0.70711 2.7677 2 1.0916-0.70711-2.7677-2z"/>
   <path d="m42.616 10.496-1.0916 0.70711 2.7677 2 1.0916-0.70711-2.7677-2z"/>
   <path d="m41.657 10.496 1.0916 0.70711-2.7677 2-1.0916-0.70711 2.7677-2z"/>
  </g>
  <g transform="translate(-1.5348,11.025)">
   <path d="m42.936 21.496-1.0916-0.70711 2.7677-2 1.0916 0.70711-2.7677 2z"/>
   <path d="m42.936 21.496-1.0916-0.70711 2.7677-2 1.0916 0.70711-2.7677 2z"/>
   <path d="m41.977 21.496 1.0916-0.70711-2.7677-2-1.0916 0.70711 2.7677 2z"/>
  </g>
 </g>
 <g fill-rule="evenodd" transform="matrix(.57075 0 0 .58356 15.261 13.629)">
  <path opacity=".57422" d="m-77.169 14.171h42.073v10.622h-3.0052l-4.5079-5.3112h-7.5131v27.884l6.0105 3.9834v2.6556h-24.042v-2.6556l6.0105-3.9834v-27.884h-7.5131l-4.5079 5.3112h-3.0052v-10.622z" transform="matrix(.47197 0 0 .5148 61.766 17.137)" filter="url(#f)"/>
  <path fill="#00009b" d="m23.926 23.066h19.858v5.4684h-1.418l-2.128-2.734h-3.546v14.355l2.8368 2.0506v1.3671h-11.347v-1.367l2.8368-2.0506v-14.355h-3.546l-2.128 2.734h-1.418v-5.468z"/>
 </g>
 <g opacity=".23438" fill-rule="evenodd" transform="matrix(1.1931,0,0,1.2324,-25.984,-25.789)">
  <path opacity=".57422" d="m-77.169 14.171h42.073v10.622h-3.0052l-4.5079-5.3112h-7.5131v27.884l6.0105 3.9834v2.6556h-24.042v-2.6556l6.0105-3.9834v-27.884h-7.5131l-4.5079 5.3112h-3.0052v-10.622z" transform="matrix(.47197 0 0 .5148 61.766 17.137)" filter="url(#e)"/>
  <path fill="#00009b" d="m23.926 23.066h19.858v5.4684h-1.418l-2.128-2.734h-3.546v14.355l2.8368 2.0506v1.3671h-11.347v-1.367l2.8368-2.0506v-14.355h-3.546l-2.128 2.734h-1.418v-5.468z"/>
 </g>
 <path opacity=".24609" d="m26.092 2.7098 14.213 24.289" stroke="#000" stroke-dasharray="4, 1" fill="none"/>
 <path opacity=".24609" d="m2.6517 2.7098 26.41 24.183" stroke="#000" stroke-dasharray="4, 1" fill="none"/>
 <path opacity=".24609" d="m7.4246 27.954 23.864 11.03" stroke="#000" stroke-dasharray="4, 1" fill="none"/>
</svg>
