<svg id="Слой_1" data-name="Слой 1"
  xmlns:cc="http://creativecommons.org/ns#"
  xmlns:rdf="http://www.w3.org/1999/02/22-rdf-syntax-ns#"
  xmlns="http://www.w3.org/2000/svg" viewBox="0 0 26 26">
  <metadata id="metadata43">
    <rdf:RDF>
      <cc:Work rdf:about="">
        <cc:license rdf:resource="http://creativecommons.org/licenses/by/4.0/" />
      </cc:Work>
      <cc:License rdf:about="http://creativecommons.org/licenses/by/4.0/">
        <cc:permits rdf:resource="http://creativecommons.org/ns#Reproduction" />
        <cc:permits rdf:resource="http://creativecommons.org/ns#Distribution" />
        <cc:requires rdf:resource="http://creativecommons.org/ns#Notice" />
        <cc:requires rdf:resource="http://creativecommons.org/ns#Attribution" />
        <cc:permits rdf:resource="http://creativecommons.org/ns#DerivativeWorks" />
      </cc:License>
    </rdf:RDF>
  </metadata>
  <defs>
    <style>.cls-1{fill:#b9b9b9;}.cls-2{fill:#545454;}.cls-3{fill:#e61c50;}.cls-4{fill:none;stroke:#f5f5f5;stroke-linecap:round;stroke-linejoin:round;stroke-width:2px;}</style>
  </defs>
  <title>reset_text</title>
  <path class="cls-1" d="M4.5,1.0037h13.992A3.4979,3.4979,0,0,1,21.99,4.5016V18.4935a3.498,3.498,0,0,1-3.498,3.498H4.5a3.4979,3.4979,0,0,1-3.4979-3.4979V4.5016A3.4979,3.4979,0,0,1,4.5,1.0037Z"/>
  <path class="cls-2" d="M17.1937,6.3867H12.6772V19.3306H10.1829V6.3867H5.6663V4.3852H17.1937Z"/>
  <ellipse class="cls-3" cx="17.9775" cy="18" rx="7.0066" ry="7"/>
  <path class="cls-4" d="M14.11,18.2093h6.3317A1.6684,1.6684,0,0,0,22.11,16.5409h0a1.6683,1.6683,0,0,0-1.6683-1.6683"/>
  <polyline class="cls-4" points="16.643 20.964 13.89 18.209 16.643 15.454"/>
</svg>