<svg id="Слой_1" data-name="Слой 1"
  xmlns:cc="http://creativecommons.org/ns#"
  xmlns:rdf="http://www.w3.org/1999/02/22-rdf-syntax-ns#"
  xmlns="http://www.w3.org/2000/svg" viewBox="0 0 26 26">
  <metadata id="metadata43">
    <rdf:RDF>
      <cc:Work rdf:about="">
        <cc:license rdf:resource="http://creativecommons.org/licenses/by/4.0/" />
      </cc:Work>
      <cc:License rdf:about="http://creativecommons.org/licenses/by/4.0/">
        <cc:permits rdf:resource="http://creativecommons.org/ns#Reproduction" />
        <cc:permits rdf:resource="http://creativecommons.org/ns#Distribution" />
        <cc:requires rdf:resource="http://creativecommons.org/ns#Notice" />
        <cc:requires rdf:resource="http://creativecommons.org/ns#Attribution" />
        <cc:permits rdf:resource="http://creativecommons.org/ns#DerivativeWorks" />
      </cc:License>
    </rdf:RDF>
  </metadata>
  <defs>
    <style>.cls-1{fill:#545454;}.cls-2{fill:#e61c50;}.cls-3{fill:none;stroke:#545454;stroke-linecap:round;stroke-linejoin:round;}</style>
  </defs>
  <title>rotate_pos_y</title>
  <path class="cls-1" d="M23.991,14.8577H13.0118a1.0429,1.0429,0,0,1,0-2.0858H23.991a1.0429,1.0429,0,0,1,0,2.0858Z"/>
  <path class="cls-1" d="M13.0118,14.8577a1.0393,1.0393,0,0,1-1.0352-1.0429V2.0195a1.0352,1.0352,0,1,1,2.07,0V13.8148A1.0393,1.0393,0,0,1,13.0118,14.8577Z"/>
  <path class="cls-1" d="M18.5622,19.0471l.1419.5679h.035l1.3968-3.9768h1.567l-2.64,6.5543A2.8942,2.8942,0,0,1,18.35,23.208a1.862,1.862,0,0,1-1.3026.4211,2.4405,2.4405,0,0,1-.38-.0323c-.1352-.0206-.2664-.0451-.3918-.0735l.1594-.989c.0506.0039.1235.0088.2178.0156s.1652.0108.2119.0108a.8342.8342,0,0,0,.6221-.237,2.004,2.004,0,0,0,.38-.5464l.2352-.5161-2.3154-5.623h1.5611Z"/>
  <path class="cls-2" d="M2.0617,24.9766a1.03,1.03,0,0,1-.7825-.36,1.0507,1.0507,0,0,1,.103-1.4719c.313-.2732,6.7042-6.2693,10.9239-10.2333a1.029,1.029,0,0,1,1.4629.0519,1.0476,1.0476,0,0,1-.0515,1.4738C12.6366,15.4522,3.1407,24.3714,2.7363,24.7229A1.0225,1.0225,0,0,1,2.0617,24.9766Z"/>
  <path class="cls-3" d="M4.917,16.9373C3.562,14.6419,3.12,12.61,3.9661,11.9082c1.1281-.9355,4.12.8487,6.6821,3.9851s3.7244,6.4372,2.5959,7.3727c-.4345.36-1.1457.3171-2.0024-.0516"/>
  <polygon class="cls-1" points="12.951 22.48 7.665 20.597 11.301 24.871 12.951 22.48"/>
</svg>