<svg id="Слой_1" data-name="Слой 1"
  xmlns:cc="http://creativecommons.org/ns#"
  xmlns:rdf="http://www.w3.org/1999/02/22-rdf-syntax-ns#"
  xmlns="http://www.w3.org/2000/svg" viewBox="0 0 26 26">
  <metadata id="metadata43">
    <rdf:RDF>
      <cc:Work rdf:about="">
        <cc:license rdf:resource="http://creativecommons.org/licenses/by/4.0/" />
      </cc:Work>
      <cc:License rdf:about="http://creativecommons.org/licenses/by/4.0/">
        <cc:permits rdf:resource="http://creativecommons.org/ns#Reproduction" />
        <cc:permits rdf:resource="http://creativecommons.org/ns#Distribution" />
        <cc:requires rdf:resource="http://creativecommons.org/ns#Notice" />
        <cc:requires rdf:resource="http://creativecommons.org/ns#Attribution" />
        <cc:permits rdf:resource="http://creativecommons.org/ns#DerivativeWorks" />
      </cc:License>
    </rdf:RDF>
  </metadata>
  <defs>
    <style>.cls-1{fill:#b9b9b9;}.cls-2{fill:#545454;}</style>
  </defs>
  <title>rotate_cw</title>
  <path class="cls-1" d="M13,15H23a1,1,0,0,0,0-2H14V4a1,1,0,0,0-2,0V14A1,1,0,0,0,13,15Z"/>
  <path class="cls-2" d="M13,25A11.0125,11.0125,0,0,0,24,14a1,1,0,0,0-2,0,9,9,0,1,1-9-9,1,1,0,0,0,0-2,11,11,0,0,0,0,22Z"/>
  <polygon class="cls-2" points="17.563 4.519 10.994 1 10.994 7.241 17.563 4.519"/>
  <circle class="cls-2" cx="13" cy="14" r="2.0296"/>
</svg>