<svg xmlns="http://www.w3.org/2000/svg" height="48" width="48" version="1.1">
 <defs>
  <linearGradient id="i" y2="1726.1" gradientUnits="userSpaceOnUse" x2="2067.2" gradientTransform="matrix(.011521 -.065772 -.06326 -.010611 119.15 175.89)" y1="1726.1" x1="1669.7">
   <stop stop-color="#003ddd" offset="0"/>
   <stop stop-color="#639ef0" offset="1"/>
  </linearGradient>
  <filter id="h" height="2.1508" width="1.1114" color-interpolation-filters="sRGB" y="-.57538" x="-.055682">
   <feGaussianBlur stdDeviation="0.35961538"/>
  </filter>
  <filter id="g" height="1.2466" width="1.1726" color-interpolation-filters="sRGB" y="-.1233" x="-.086308">
   <feGaussianBlur stdDeviation="0.35961538"/>
  </filter>
  <filter id="f" color-interpolation-filters="sRGB">
   <feGaussianBlur stdDeviation="0.27692308"/>
  </filter>
  <linearGradient id="j" y2="12.267" gradientUnits="userSpaceOnUse" x2="6.0408" gradientTransform="matrix(1.2247 0 0 .8165 -61.732 9.7935)" y1="17.051" x1="11.431">
   <stop stop-color="#8787ff" offset="0"/>
   <stop stop-color="#fff" offset="1"/>
  </linearGradient>
 </defs>
 <g transform="matrix(.58994 0 0 .5645 -68.484 -32.417)">
  <g transform="matrix(2.9379,0,0,2.1996,119.71,67.332)">
   <rect fill-opacity="0" height="16" width="16" y="0" x="0"/>
  </g>
  <g transform="matrix(2.9804,0,0,2.6654,302.66,32.7)">
   <rect opacity=".71484" transform="matrix(.43925 0 0 1 -61.451 9.7935)" height="1.5" filter="url(#h)" width="15.5" y="12" x=".5" fill="#9b9b9b"/>
   <rect height="1.5332" width="14.35" y="20.56" x="-61.732" fill="#009b00"/>
   <path opacity=".70703" d="m-45.932 18.743h-7l-3 3.5 3 3.5h7v-7z" fill-rule="evenodd" filter="url(#g)" fill="#9b9b9b"/>
   <path opacity=".77734" d="m7 7.5-0.5 1.5h-2l3-8h2l3 8h-2l-0.5-1.5m-0.5-1.5-0.9121-2.9492-1.0879 2.9492" transform="matrix(.89817 0 0 .87673 -61.641 9.6348)" filter="url(#f)" fill="#9b9b9b"/>
   <path d="m-56.403 15.887-0.46562 1.4062h-1.8625l2.7938-7.5h1.8625l2.7938 7.5h-1.8625l-0.46562-1.4062m-0.46562-1.4062-0.8494-2.7649-1.0131 2.7649"/>
   <path fill-rule="evenodd" fill="#6f6500" d="m-46.732 17.793h-7l-3 3.5 3 3.5h7v-7z"/>
   <path fill-rule="evenodd" fill="url(#j)" d="m-47.732 18.793h-5.5l-2 2.5 2 2.5h5.5v-5z"/>
   <g transform="translate(-61.732,9.7935)">
    <rect fill-opacity="0" height="16" width="16" y="0" x="0"/>
   </g>
  </g>
 </g>
 <path d="m24.892 46.088c-6.105-3.066-8.558-10.739-5.475-17.128 3.0828-6.3888 10.54-9.0857 16.645-6.0199 3.2174 1.6157 5.4199 4.5105 6.3329 7.8228l5.5125-1.724-5.8254 13.317-10.237-8.4171 6.1017-1.9796c-0.62054-2.0885-2.0339-3.9058-4.0759-4.9313-3.9756-1.9964-8.8307-0.24048-10.838 3.9199-2.0075 4.1603-0.41138 9.1581 3.5642 11.155 1.1375 0.57122 2.3465 0.83381 3.5408 0.822l0.22661 4.4254c-1.8452 0.02331-3.7141-0.37971-5.4719-1.2624z" fill-rule="evenodd" stroke="#000" stroke-width=".78534" fill="url(#i)"/>
</svg>
