<svg id="Слой_1" data-name="Слой 1"
  xmlns:cc="http://creativecommons.org/ns#"
  xmlns:rdf="http://www.w3.org/1999/02/22-rdf-syntax-ns#"
  xmlns="http://www.w3.org/2000/svg" viewBox="0 0 26 26">
  <metadata id="metadata43">
    <rdf:RDF>
      <cc:Work rdf:about="">
        <cc:license rdf:resource="http://creativecommons.org/licenses/by/4.0/" />
      </cc:Work>
      <cc:License rdf:about="http://creativecommons.org/licenses/by/4.0/">
        <cc:permits rdf:resource="http://creativecommons.org/ns#Reproduction" />
        <cc:permits rdf:resource="http://creativecommons.org/ns#Distribution" />
        <cc:requires rdf:resource="http://creativecommons.org/ns#Notice" />
        <cc:requires rdf:resource="http://creativecommons.org/ns#Attribution" />
        <cc:permits rdf:resource="http://creativecommons.org/ns#DerivativeWorks" />
      </cc:License>
    </rdf:RDF>
  </metadata>
  <defs>
    <style>.cls-1{fill:#545454;}.cls-2{fill:#e61c50;}.cls-3{fill:none;stroke:#545454;stroke-linecap:round;stroke-linejoin:round;}</style>
  </defs>
  <title>rotate_neg_z</title>
  <path class="cls-1" d="M14.8017,22.1384h3.4194v1.0254h-5.2v-.84l3.23-3.8256H13.0866V17.4723h4.98v.8059Z"/>
  <path class="cls-1" d="M24.0335,14.8H13.0112a.97.97,0,0,1,0-1.94H24.0335a.97.97,0,0,1,0,1.94Z"/>
  <path class="cls-1" d="M1.9672,24.97a.97.97,0,0,1-.6344-1.7029c.3077-.2686,6.7581-6.2989,11.02-10.2875A.9682.9682,0,0,1,13.67,14.398C12.5793,15.4188,3.0017,24.3832,2.5979,24.7338A.9612.9612,0,0,1,1.9672,24.97Z"/>
  <path class="cls-2" d="M13.0112,14.8a.9683.9683,0,0,1-.9664-.97V1.94a.9665.9665,0,1,1,1.9329,0V13.83A.9683.9683,0,0,1,13.0112,14.8Z"/>
  <path class="cls-3" d="M15.96,5.87c2.648.4331,4.4954,1.375,4.4778,2.4369-.0229,1.4161-3.3528,2.5093-7.437,2.4419S5.3643,9.4792,5.3643,8.063c0-.7927.8-1.3031,1.7309-1.6288"/>
  <polygon class="cls-1" points="6.378 8.134 11.488 5.815 5.903 5.268 6.378 8.134"/>
</svg>