<?xml version="1.0" encoding="UTF-8" standalone="no"?>
<svg
   xmlns:dc="http://purl.org/dc/elements/1.1/"
   xmlns:cc="http://creativecommons.org/ns#"
   xmlns:rdf="http://www.w3.org/1999/02/22-rdf-syntax-ns#"
   xmlns:svg="http://www.w3.org/2000/svg"
   xmlns="http://www.w3.org/2000/svg"
   xmlns:sodipodi="http://sodipodi.sourceforge.net/DTD/sodipodi-0.dtd"
   xmlns:inkscape="http://www.inkscape.org/namespaces/inkscape"
   height="48"
   width="48"
   version="1.1"
   id="svg2"
   inkscape:version="0.48.3.1 r9886"
   sodipodi:docname="rotate_pin.svg">
  <metadata
     id="metadata84">
    <rdf:RDF>
      <cc:Work
         rdf:about="">
        <dc:format>image/svg+xml</dc:format>
        <dc:type
           rdf:resource="http://purl.org/dc/dcmitype/StillImage" />
      </cc:Work>
    </rdf:RDF>
  </metadata>
  <sodipodi:namedview
     pagecolor="#ffffff"
     bordercolor="#666666"
     borderopacity="1"
     objecttolerance="10"
     gridtolerance="10"
     guidetolerance="10"
     inkscape:pageopacity="0"
     inkscape:pageshadow="2"
     inkscape:window-width="640"
     inkscape:window-height="480"
     id="namedview82" />
  <defs
     id="defs4">
    <linearGradient
       id="g"
       y2="1726.1"
       gradientUnits="userSpaceOnUse"
       x2="2067.2"
       gradientTransform="matrix(.011403 -.067296 -.062613 -.010857 118.87 178.42)"
       y1="1726.1"
       x1="1669.7">
      <stop
         stop-color="#003ddd"
         offset="0"
         id="stop7" />
      <stop
         stop-color="#639ef0"
         offset="1"
         id="stop9" />
    </linearGradient>
    <filter
       id="e"
       height="1.2293"
       width="1.09"
       color-interpolation-filters="sRGB"
       y="-.11464"
       x="-.044985">
      <feGaussianBlur
         stdDeviation="0.68425161"
         id="feGaussianBlur12" />
    </filter>
    <filter
       id="f"
       height="1.1071"
       width="1.2934"
       color-interpolation-filters="sRGB"
       y="-.053551"
       x="-.14671">
      <feGaussianBlur
         stdDeviation="0.77576414"
         id="feGaussianBlur15" />
    </filter>
    <linearGradient
       id="h"
       y2="5.5"
       gradientUnits="userSpaceOnUse"
       x2="1.0312"
       gradientTransform="matrix(1.9385,0,0,1.7906,-101.39,-12.363)"
       y1="9.4062"
       x1="4.9688">
      <stop
         stop-color="#afafff"
         offset="0"
         id="stop18" />
      <stop
         stop-color="#fff"
         offset="1"
         id="stop20" />
    </linearGradient>
  </defs>
  <g
     transform="matrix(.77016 0 0 .75565 -46.632 -2.2268)"
     id="g22">
    <g
       transform="matrix(.9966 0 0 1.0887 98.702 56.637)"
       id="g24">
      <g
         opacity=".69531"
         filter="url(#e)"
         id="g26">
        <g
           transform="matrix(-1,0,0,1,-101.77,-29.616)"
           id="g28">
          <rect
             transform="rotate(-90)"
             height="23.582"
             width="3.5811"
             y="-90.407"
             x="-2.8595"
             id="rect30" />
          <path
             d="m-95.576-6.0964c-4.2802 0-7.754 3.2087-7.754 7.1622s3.4738 7.1622 7.754 7.1622 7.754-3.2087 7.754-7.1622-3.4738-7.1622-7.754-7.1622z"
             id="path32" />
          <path
             d="m-95.576-2.5153c2.1401 0 3.877 1.6043 3.877 3.5811s-1.7369 3.5811-3.877 3.5811-3.877-1.6043-3.877-3.5811 1.7369-3.5811 3.877-3.5811z"
             id="path34" />
        </g>
      </g>
      <g
         opacity=".66016"
         font-family="Arial"
         font-size="18.731px"
         filter="url(#f)"
         font-weight="bold"
         id="g36">
        <text
           style="word-spacing:0px;letter-spacing:0px"
           xml:space="preserve"
           transform="scale(1.0492 .9531)"
           line-height="125%"
           y="-35.033535"
           x="-26.868841"
           id="text38"><tspan
             y="-35.033535"
             x="-26.868841"
             id="tspan40">P</tspan></text>
        <text
           style="word-spacing:0px;letter-spacing:0px"
           xml:space="preserve"
           transform="scale(1.0492 .9531)"
           line-height="125%"
           y="-11.963096"
           x="-28.812323"
           id="text42"><tspan
             y="-11.963096"
             x="-28.812323"
             id="tspan44">1</tspan></text>
      </g>
      <g
         transform="matrix(2.4566,0,0,2.2316,-35.244,-45.716)"
         id="g46">
        <rect
           fill-opacity="0"
           height="16"
           width="16"
           y="0"
           x="0"
           id="rect48" />
      </g>
    </g>
    <g
       transform="matrix(2.6586,0,0,2.1996,62.612,9.0538)"
       id="g50">
      <rect
         fill-opacity="0"
         height="16"
         width="16"
         y="0"
         x="0"
         id="rect52" />
    </g>
    <g
       transform="matrix(.9966 0 0 1.0887 165.08 21.8)"
       id="g54">
      <g
         transform="matrix(-1,0,0,1,-170.15,0)"
         id="g56">
        <rect
           transform="rotate(-90)"
           height="23.582"
           width="3.5811"
           y="-90.407"
           x="-2.8595"
           fill="#d72e2e"
           id="rect58" />
        <path
           fill="#d72e2e"
           d="m-95.576-6.0964c-4.2802 0-7.754 3.2087-7.754 7.1622s3.4738 7.1622 7.754 7.1622 7.754-3.2087 7.754-7.1622-3.4738-7.1622-7.754-7.1622z"
           id="path60" />
        <path
           fill="url(#h)"
           d="m-95.576-2.5153c2.1401 0 3.877 1.6043 3.877 3.5811s-1.7369 3.5811-3.877 3.5811-3.877-1.6043-3.877-3.5811 1.7369-3.5811 3.877-3.5811z"
           id="path62" />
      </g>
      <text
         style="word-spacing:0px;letter-spacing:0px"
         font-weight="bold"
         xml:space="preserve"
         transform="scale(1.0492 .9531)"
         line-height="125%"
         font-size="18.731px"
         y="-3.9598818"
         x="-92.042854"
         font-family="Arial"
         fill="#000000"
         id="text64"><tspan
           y="-3.9598818"
           x="-92.042854"
           id="tspan66">P</tspan></text>
      <text
         style="word-spacing:0px;letter-spacing:0px"
         font-weight="bold"
         xml:space="preserve"
         transform="scale(1.0492 .9531)"
         line-height="125%"
         font-size="18.731px"
         y="19.110556"
         x="-93.986336"
         font-family="Arial"
         fill="#000000"
         id="text68"><tspan
           y="19.110556"
           x="-93.986336"
           id="tspan70">1</tspan></text>
      <g
         transform="matrix(2.4566,0,0,2.2316,-105.97,-9.4053)"
         id="g72">
        <rect
           fill-opacity="0"
           height="16"
           width="16"
           y="0"
           x="0"
           id="rect74" />
      </g>
      <g
         transform="matrix(2.4566,0,0,2.2316,-103.63,-16.1)"
         id="g76">
        <rect
           fill-opacity="0"
           height="16"
           width="16"
           y="0"
           x="0"
           id="rect78" />
      </g>
    </g>
  </g>
  <path
     d="m25.575 45.607c-6.0427-3.1368-8.4704-10.988-5.4191-17.525 3.0513-6.5368 10.432-9.2962 16.474-6.1594 3.1845 1.6531 5.3645 4.6151 6.2681 8.0041l5.4561-1.764-5.7658 13.626-10.132-8.6122 6.0393-2.0255c-0.6142-2.1369-2.0131-3.9963-4.0343-5.0456-3.935-2.0427-8.7404-0.24605-10.727 4.0107-1.987 4.2568-0.40717 9.3704 3.5278 11.413 1.1259 0.58445 2.3225 0.85313 3.5046 0.84105l0.2243 4.5279c-1.8263 0.02385-3.6762-0.38851-5.416-1.2917z"
     fill-rule="evenodd"
     stroke="#000"
     stroke-width=".79031"
     fill="url(#g)"
     id="path80" />
</svg>
