<svg xmlns="http://www.w3.org/2000/svg" height="48" width="48" version="1.1">
 <defs>
  <linearGradient id="c" y2="1726.1" gradientUnits="userSpaceOnUse" x2="2067.2" gradientTransform="matrix(.012364 -.072133 -.067892 -.011637 122.54 186.94)" y1="1726.1" x1="1669.7">
   <stop stop-color="#003ddd" offset="0"/>
   <stop stop-color="#639ef0" offset="1"/>
  </linearGradient>
  <radialGradient id="d" gradientUnits="userSpaceOnUse" cy="30.778" cx="24.843" gradientTransform="matrix(1.1394 0 0 .50701 -8.4725 1.9134)" r="23">
   <stop stop-color="#fff" offset="0"/>
   <stop stop-color="#eeeeec" offset="1"/>
  </radialGradient>
 </defs>
 <path d="m21.374 44.583c-6.552-3.362-9.184-11.778-5.876-18.784 3.3085-7.0067 11.311-9.9644 17.863-6.6021 3.453 1.7719 5.8167 4.9468 6.7965 8.5794l5.9161-1.8908-6.2519 14.605-10.986-9.2312 6.5484-2.1711c-0.66598-2.2905-2.1828-4.2836-4.3743-5.4082-4.2667-2.1895-9.4772-0.26374-11.632 4.299-2.1545 4.5627-0.4415 10.044 3.8252 12.233 1.2208 0.62646 2.5183 0.91445 3.8 0.9015l0.2432 4.8534c-1.9803 0.02556-3.9861-0.41644-5.8725-1.3845z" fill-rule="evenodd" stroke="#000" stroke-width=".85201" fill="url(#c)"/>
 <rect stroke-dashoffset="1.4" rx=".78864" ry=".79512" height="18.505" width="34.413" stroke="#888a85" stroke-linecap="round" y="2.8974" x="2.6277" stroke-width=".76788" fill="url(#d)"/>
 <path fill="#2e3436" d="m12.922 15.328h-4.1818l-0.65993 1.8328h-2.6883l3.8415-10.06h3.1885l3.8415 10.06h-2.6883l-0.654-1.833m-3.515-2.0352h2.8412l-1.4171-3.8339-1.424 3.8339m12.254 2.3115c0.53257 0.000001 0.93778-0.18867 1.2157-0.56602 0.28249-0.37734 0.42373-0.9254 0.42374-1.6442-0.000009-0.71875-0.14126-1.2668-0.42374-1.6442-0.27787-0.37734-0.68308-0.56602-1.2157-0.56602-0.53257 0.000006-1.0983 0.19093-1.3854 0.57276-0.2825 0.37735-0.42375 0.92316-0.42374 1.6374-0.000008 0.71427 0.14124 1.2623 0.42374 1.6442 0.28712 0.37735 0.85286 0.56602 1.3854 0.56602m-1.8092-4.8853c0.34269-0.44023 0.87833-0.76367 1.2951-0.97032 0.41678-0.21113 0.8961-0.31669 1.4379-0.3167 0.95863 0.0000077 1.7459 0.37062 2.3618 1.1118 0.61592 0.73673 0.92388 1.6868 0.92389 2.8503-0.000008 1.1635-0.30797 2.1158-0.92389 2.8571-0.61595 0.73673-1.4032 1.1051-2.3618 1.1051-0.54184 0-1.0212-0.10332-1.4379-0.30996-0.418-0.21-0.953-0.536-1.296-0.976v1.0916h-2.4869v-9.9548h2.4869v3.5129m14.153-0.86925v1.9676c-0.33807-0.22461-0.67845-0.39082-1.0211-0.49864-0.33807-0.10781-0.69003-0.16171-1.0559-0.16172-0.69466 0.000007-1.2365 0.19766-1.6255 0.59298-0.38438 0.39083-0.57657 0.93888-0.57657 1.6442 0 0.70528 0.19219 1.2556 0.57657 1.6509 0.38901 0.39083 0.93084 0.58624 1.6255 0.58624 0.389 0.000002 0.75717-0.05615 1.1045-0.16846 0.35195-0.1123 0.67613-0.27852 0.97252-0.49864v1.9743c-0.38901 0.13926-0.78497 0.24258-1.1879 0.30996-0.39828 0.07187-0.79886 0.10781-1.2018 0.10781-1.4032 0-2.5008-0.34815-3.2927-1.0444-0.7919-0.70079-1.1879-1.6734-1.1879-2.9177s0.39596-2.2147 1.1879-2.911c0.79191-0.70078 1.8895-1.0512 3.2927-1.0512 0.40753 0.0000077 0.80812 0.035945 1.2018 0.10781 0.39826 0.067387 0.79422 0.17071 1.1879 0.30996"/>
 <rect stroke-linejoin="round" stroke-dashoffset="1.4" rx="0" ry="0" height="16.963" width="32.867" stroke="#fff" stroke-linecap="round" y="3.6684" x="3.3924" stroke-width=".76788" fill="none"/>
</svg>
