<svg xmlns="http://www.w3.org/2000/svg" height="48" width="48" version="1.1">
 <defs>
  <linearGradient id="a" y2="1726.1" gradientUnits="userSpaceOnUse" x2="2067.2" gradientTransform="matrix(.012364 -.072133 -.067892 -.011637 122.54 186.94)" y1="1726.1" x1="1669.7">
   <stop stop-color="#003ddd" offset="0"/>
   <stop stop-color="#639ef0" offset="1"/>
  </linearGradient>
 </defs>
 <path d="m21.374 44.583c-6.552-3.362-9.184-11.778-5.876-18.784 3.3085-7.0067 11.311-9.9644 17.863-6.6021 3.453 1.7719 5.8167 4.9468 6.7965 8.5794l5.9161-1.8908-6.2519 14.605-10.986-9.2312 6.5484-2.1711c-0.66598-2.2905-2.1828-4.2836-4.3743-5.4082-4.2667-2.1895-9.4772-0.26374-11.632 4.299-2.1545 4.5627-0.4415 10.044 3.8252 12.233 1.2208 0.62646 2.5183 0.91445 3.8 0.9015l0.2432 4.8534c-1.9803 0.02556-3.9861-0.41644-5.8725-1.3845z" fill-rule="evenodd" stroke="#000" stroke-width=".85201" fill="url(#a)"/>
 <g opacity=".96484" stroke-linejoin="round" transform="matrix(0,-1.8133,1.599,0,4.2242,-3.2447)" stroke="#000">
  <rect transform="rotate(90)" height="14.619" width="9.7086" y="3.4905" x="1.904" stroke-width="0.4" fill="#fff"/>
  <path d="m693.26 625.06a18.914 18.914 0 0 1 -37.828 0.11702" transform="matrix(0 .071482 -.071482 0 41.168 -41.24)" stroke-width="5.5958" fill="none"/>
 </g>
 <g stroke-linejoin="round" transform="matrix(0,-1.8133,1.599,0,3.9844,-3.1767)" stroke="#030303">
  <rect transform="rotate(90)" height="2.511" width="4.7176" y="13.332" x="-.31959" stroke-width="0.3" fill="#ff7800"/>
  <rect transform="rotate(90)" height="2.511" width="4.7176" y="5.3636" x="-.31959" stroke-width="0.3" fill="#ff7800"/>
  <path d="m654.65 737.28a9.5805 9.5805 0 1 1 -19.161 0 9.5805 9.5805 0 1 1 19.161 0z" transform="matrix(0 .071482 -.071482 0 46.083 -44.072)" stroke-width="4.1969" fill="#ffede0"/>
  <rect transform="rotate(90)" height="2.511" width="4.7176" y="9.3478" x="-.31959" stroke-width="0.3" fill="#ff7800"/>
  <path d="m654.65 737.28a9.5805 9.5805 0 1 1 -19.161 0 9.5805 9.5805 0 1 1 19.161 0z" transform="matrix(0 .071482 -.071482 0 42.08 -44.072)" stroke-width="4.1969" fill="#ffede0"/>
  <path d="m654.65 737.28a9.5805 9.5805 0 1 1 -19.161 0 9.5805 9.5805 0 1 1 19.161 0z" transform="matrix(0 .071482 -.071482 0 38.077 -44.072)" stroke-width="4.1969" fill="#ffede0"/>
 </g>
 <g transform="matrix(0,-1.8133,1.599,0,19.617,-3.1767)">
  <rect stroke-linejoin="round" transform="rotate(90)" height="2.511" width="4.7176" stroke="#030303" y="13.332" x="-.31959" stroke-width="0.3" fill="#ff7800"/>
  <rect stroke-linejoin="round" transform="rotate(90)" height="2.511" width="4.7176" stroke="#030303" y="5.3636" x="-.31959" stroke-width="0.3" fill="#ff7800"/>
  <path stroke-linejoin="round" d="m654.65 737.28a9.5805 9.5805 0 1 1 -19.161 0 9.5805 9.5805 0 1 1 19.161 0z" transform="matrix(0 .071482 -.071482 0 46.083 -44.072)" stroke="#030303" stroke-width="4.1969" fill="#ffede0"/>
  <rect stroke-linejoin="round" transform="rotate(90)" height="2.511" width="4.7176" stroke="#030303" y="9.3478" x="-.31959" stroke-width="0.3" fill="#ff7800"/>
  <path stroke-linejoin="round" d="m654.65 737.28a9.5805 9.5805 0 1 1 -19.161 0 9.5805 9.5805 0 1 1 19.161 0z" transform="matrix(0 .071482 -.071482 0 42.08 -44.072)" stroke="#030303" stroke-width="4.1969" fill="#ffede0"/>
  <g stroke-width="0.3">
   <path stroke-linejoin="round" d="m654.65 737.28a9.5805 9.5805 0 1 1 -19.161 0 9.5805 9.5805 0 1 1 19.161 0z" transform="matrix(0 .071482 -.071482 0 38.077 -44.072)" stroke="#030303" stroke-width="4.1969" fill="#ffede0"/>
  </g>
 </g>
</svg>
