<?xml version="1.0" encoding="UTF-8" standalone="no"?>
<svg xmlns:dc="http://purl.org/dc/elements/1.1/"
   xmlns:cc="http://creativecommons.org/ns#"
   xmlns:rdf="http://www.w3.org/1999/02/22-rdf-syntax-ns#"
   xmlns:svg="http://www.w3.org/2000/svg"
   xmlns="http://www.w3.org/2000/svg"
   xmlns:sodipodi="http://sodipodi.sourceforge.net/DTD/sodipodi-0.dtd"
   xmlns:inkscape="http://www.inkscape.org/namespaces/inkscape" id="Слой_1" data-name="Слой 1" viewBox="0 0 24 24" version="1.1" sodipodi:docname="rotate_pos_x.svg" inkscape:version="1.0.1 (3bc2e813f5, 2020-09-07)">
   <sodipodi:namedview pagecolor="#ffffff" bordercolor="#666666" borderopacity="1" objecttolerance="10" gridtolerance="10" guidetolerance="10" inkscape:pageopacity="0" inkscape:pageshadow="2" inkscape:window-width="1609" inkscape:window-height="1286" id="namedview30" showgrid="true" inkscape:zoom="27.961538" inkscape:cx="3.3259971" inkscape:cy="13" inkscape:window-x="0" inkscape:window-y="37" inkscape:window-maximized="0" inkscape:document-rotation="0" inkscape:current-layer="Слой_1">
      <inkscape:grid type="xygrid" id="grid_kicad" spacingx="0.5" spacingy="0.5" color="#9999ff" opacity="0.13" empspacing="2" />
   </sodipodi:namedview>
   <metadata id="metadata43">
      <rdf:RDF>
         <cc:Work rdf:about="">
            <cc:license rdf:resource="http://creativecommons.org/licenses/by-sa/4.0/" />
            <dc:format>image/svg+xml</dc:format>
            <dc:type rdf:resource="http://purl.org/dc/dcmitype/StillImage" />
            <dc:title>add_arc</dc:title>
         </cc:Work>
         <cc:License rdf:about="http://creativecommons.org/licenses/by-sa/4.0/">
            <cc:permits rdf:resource="http://creativecommons.org/ns#Reproduction" />
            <cc:permits rdf:resource="http://creativecommons.org/ns#Distribution" />
            <cc:requires rdf:resource="http://creativecommons.org/ns#Notice" />
            <cc:requires rdf:resource="http://creativecommons.org/ns#Attribution" />
            <cc:permits rdf:resource="http://creativecommons.org/ns#DerivativeWorks" />
            <cc:requires rdf:resource="http://creativecommons.org/ns#ShareAlike" />
         </cc:License>
      </rdf:RDF>
   </metadata>
   <defs id="defs26947">
      <style id="style26945">.cls-1{fill:#545454;}.cls-2{fill:#bf2641;}.cls-3{fill:none;stroke:#545454;stroke-linecap:round;stroke-linejoin:round;}</style>
   </defs>
   <title id="title26949">rotate_pos_x</title>
   <path class="cls-1" d="M 4.6115,5.59 5.7694,3.6934 H 7.3847 L 5.4164,6.4283 7.4427,9.2248 H 5.8447 L 4.6347,7.2827 3.4246,9.2248 H 1.8157 L 3.842,6.4283 1.8728,3.6934 h 1.598 z" id="path26951" />
   <path class="cls-1" d="M 0.9663,24 A 0.9624,0.9624 0 0 1 0.3093,22.331 C 0.7785,21.8482 5.5552,15.956 8.47,12.3377 a 0.9722,0.9722 0 0 1 1.3593,-0.1483 0.9621,0.9621 0 0 1 0.1488,1.3544 C 7.0235,17.21 2.0062,23.4138 1.5988,23.7658 A 0.9679,0.9679 0 0 1 0.9663,24 Z" id="path26953" />
   <path class="cls-1" d="M 9.2241,13.9036 A 0.9649,0.9649 0 0 1 8.2576,12.9407 V 0.9629 a 0.9665,0.9665 0 0 1 1.9329,0 v 11.9778 a 0.9649,0.9649 0 0 1 -0.9664,0.9629 z" id="path26955" />
   <path class="cls-2" d="M 23.0336,13.9036 H 9.2241 a 0.9629,0.9629 0 1 1 0,-1.9258 h 13.81 a 0.9629,0.9629 0 1 1 0,1.9258 z" id="path26957" />
   <path class="cls-3" d="m 20.8762,7.433 c -0.53,-1.4948 -1.2961,-2.4344 -2.1487,-2.4344 -1.5979,0 -2.8933,3.299 -2.8933,7.3687 0,4.0697 1.2958,7.6347 2.8933,7.6347 0.6382,0 1.2286,-0.6021 1.7068,-1.5645" id="path26959" />
   <polygon class="cls-1" points="22.583,15.154 19.658,19.943 22.446,20.764 " id="polygon26961" transform="translate(-1,-1)" />
</svg>
