<?xml version="1.0" encoding="UTF-8" standalone="no"?>
<svg
   xmlns:dc="http://purl.org/dc/elements/1.1/"
   xmlns:cc="http://creativecommons.org/ns#"
   xmlns:rdf="http://www.w3.org/1999/02/22-rdf-syntax-ns#"
   xmlns:svg="http://www.w3.org/2000/svg"
   xmlns="http://www.w3.org/2000/svg"
   xmlns:sodipodi="http://sodipodi.sourceforge.net/DTD/sodipodi-0.dtd"
   xmlns:inkscape="http://www.inkscape.org/namespaces/inkscape"
   width="20pt"
   height="20pt"
   viewBox="0 0 20 20"
   version="1.1"
   id="svg2"
   inkscape:version="0.48.3.1 r9886"
   sodipodi:docname="rotate_neg_y.svg">
  <metadata
     id="metadata27">
    <rdf:RDF>
      <cc:Work
         rdf:about="">
        <dc:format>image/svg+xml</dc:format>
        <dc:type
           rdf:resource="http://purl.org/dc/dcmitype/StillImage" />
      </cc:Work>
    </rdf:RDF>
  </metadata>
  <defs
     id="defs25" />
  <sodipodi:namedview
     pagecolor="#ffffff"
     bordercolor="#666666"
     borderopacity="1"
     objecttolerance="10"
     gridtolerance="10"
     guidetolerance="10"
     inkscape:pageopacity="0"
     inkscape:pageshadow="2"
     inkscape:window-width="640"
     inkscape:window-height="480"
     id="namedview23" />
  <g
     id="surface1">
    <path
       style="fill:none;stroke-width:1.4;stroke-linecap:round;stroke-linejoin:miter;stroke:rgb(60%,60%,60%);stroke-opacity:1;stroke-miterlimit:4;"
       d="M 1.000391 1051.361809 L 12.502344 1039.859856 "
       transform="matrix(0.769231,0,0,0.769231,0,-789.509385)"
       id="path5" />
    <path
       style="fill:none;stroke-width:1.4;stroke-linecap:round;stroke-linejoin:round;stroke:rgb(60%,60%,60%);stroke-opacity:1;stroke-miterlimit:4;"
       d="M 24.999609 1039.859856 L 12.502344 1039.859856 "
       transform="matrix(0.769231,0,0,0.769231,0,-789.509385)"
       id="path7" />
    <path
       style="fill:none;stroke-width:1.4;stroke-linecap:round;stroke-linejoin:miter;stroke:rgb(0%,54.901961%,0%);stroke-opacity:1;stroke-miterlimit:4;"
       d="M 11.999609 1027.362591 L 11.999609 1039.859856 "
       transform="matrix(0.769231,0,0,0.769231,0,-789.509385)"
       id="path9" />
    <path
       style="fill:none;stroke-width:1.5;stroke-linecap:round;stroke-linejoin:round;stroke:rgb(0%,54.901961%,0%);stroke-opacity:1;stroke-miterlimit:4;"
       d="M 17.499219 1042.363372 L 20.500391 1046.862591 "
       transform="matrix(0.769231,0,0,0.769231,0,-789.509385)"
       id="path11" />
    <path
       style="fill:none;stroke-width:1.5;stroke-linecap:round;stroke-linejoin:round;stroke:rgb(0%,54.901961%,0%);stroke-opacity:1;stroke-miterlimit:4;"
       d="M 23.501562 1042.363372 L 20.500391 1046.862591 "
       transform="matrix(0.769231,0,0,0.769231,0,-789.509385)"
       id="path13" />
    <path
       style="fill:none;stroke-width:1.4;stroke-linecap:butt;stroke-linejoin:miter;stroke:rgb(100%,100%,100%);stroke-opacity:0.588235;stroke-miterlimit:4;"
       d="M 11.999609 1039.3622 L 11.999609 1035.360637 "
       transform="matrix(0.769231,0,0,0.769231,0,-789.509385)"
       id="path15" />
    <path
       style="fill:none;stroke-width:1.5;stroke-linecap:butt;stroke-linejoin:round;stroke:rgb(0%,54.901961%,0%);stroke-opacity:1;stroke-miterlimit:4;"
       d="M 8.500781 1028.362981 C 8.500781 1028.362981 3.498828 1029.363372 3.498828 1032.364544 C 3.498828 1035.360637 6.997656 1037.361419 11.999609 1037.361419 C 17.001562 1037.361419 20.500391 1035.360637 20.500391 1032.364544 C 20.500391 1029.363372 15.498437 1028.362981 15.498437 1028.362981 "
       transform="matrix(0.769231,0,0,0.769231,0,-789.509385)"
       id="path17" />
    <path
       style="fill-rule:nonzero;fill:rgb(0%,54.901961%,0%);fill-opacity:1;stroke-width:1.5;stroke-linecap:round;stroke-linejoin:round;stroke:rgb(0%,54.901961%,0%);stroke-opacity:1;stroke-miterlimit:4;"
       d="M 6.997656 1030.861419 C 8.500781 1028.860637 8.998437 1028.362981 9.998828 1027.860247 C 8.500781 1027.860247 5.611328 1027.702825 4.001562 1028.860637 Z "
       transform="matrix(0.769231,0,0,0.769231,0,-789.509385)"
       id="path19" />
    <path
       style="fill:none;stroke-width:1.5;stroke-linecap:round;stroke-linejoin:round;stroke:rgb(0%,54.901961%,0%);stroke-opacity:1;stroke-miterlimit:4;"
       d="M 20.500391 1051.361809 L 20.500391 1046.862591 "
       transform="matrix(0.769231,0,0,0.769231,0,-789.509385)"
       id="path21" />
  </g>
</svg>
