<svg xmlns="http://www.w3.org/2000/svg" height="48" width="48" version="1.1">
 <defs>
  <linearGradient id="h" y2="1726.1" gradientUnits="userSpaceOnUse" x2="2067.2" gradientTransform="matrix(-.023248 -.069395 -.065314 .021881 187.97 123.64)" y1="1726.1" x1="1669.7">
   <stop stop-color="#003ddd" offset="0"/>
   <stop stop-color="#639ef0" offset="1"/>
  </linearGradient>
  <linearGradient id="g" y2="12.267" gradientUnits="userSpaceOnUse" x2="6.0408" gradientTransform="matrix(-3.2239,0,0,-1.5199,56.214,30.188)" y1="17.051" x1="11.431">
   <stop stop-color="#8787ff" offset="0"/>
   <stop stop-color="#fff" offset="1"/>
  </linearGradient>
  <filter id="e" height="1.3385" width="1.2394" color-interpolation-filters="sRGB" y="-.16926" x="-.11969">
   <feGaussianBlur stdDeviation="0.78768313"/>
  </filter>
  <filter id="f" height="1.244" width="1.2277" color-interpolation-filters="sRGB" y="-.122" x="-.11387">
   <feGaussianBlur stdDeviation="0.35583434"/>
  </filter>
 </defs>
 <g opacity=".5" fill-rule="evenodd" transform="matrix(-2.6323,0,0,-1.8615,58.846,32.05)" filter="url(#f)">
  <path d="m14 8h-4.5l-3 3.5 3 3.5h4.5v-7z"/>
  <path d="m13 9h-3l-2 2.5 2 2.5h3v-5z"/>
 </g>
 <path opacity=".5" d="m8.8321 4.1271-5.2647 11.169h3.9485l1.3162-3.723h5.2647l1.3162 3.723h3.9485l-5.266-11.169h-5.2649zm2.6323 1.8615 1.3162 3.723h-2.6323l1.3162-3.723z" fill-rule="evenodd" filter="url(#e)"/>
 <path fill-rule="evenodd" d="m6.1998 2.2656-5.2647 11.169h3.9485l1.3162-3.723h5.2647l1.3162 3.723h3.9485l-5.263-11.169h-5.264zm2.6323 1.8615 1.3162 3.723h-2.632l1.3162-3.723z"/>
 <path fill-rule="evenodd" fill="#f00" d="m19.361 15.296h11.845l7.897-6.5153-7.897-6.5153h-11.845v13.031z"/>
 <path fill-rule="evenodd" fill="url(#g)" d="m21.994 13.435h7.897l5.265-4.6538-5.265-4.6538h-7.897v9.3076z"/>
 <path d="m31.478 46.11c-7.363 0.139-13.665-6.028-14.067-13.766-0.40162-7.7381 5.2481-14.131 12.611-14.27 3.8804-0.07333 7.4653 1.6047 10.048 4.341l4.3167-4.4656 1.4051 15.825-14.047-2.9323 4.741-5.0118c-1.6707-1.7025-3.9502-2.7404-6.413-2.6939-4.7948 0.09062-8.4734 4.2531-8.2118 9.2921 0.26155 5.039 4.3647 9.0567 9.1595 8.9661 1.3719-0.02593 2.6512-0.38631 3.7742-1.0044l2.5113 4.1603c-1.7324 0.95975-3.7085 1.5197-5.8284 1.5598z" fill-rule="evenodd" stroke="#000" stroke-width=".85201" fill="url(#h)"/>
</svg>
