<?xml version="1.0" encoding="UTF-8" standalone="no"?>
<svg
   xmlns:dc="http://purl.org/dc/elements/1.1/"
   xmlns:cc="http://creativecommons.org/ns#"
   xmlns:rdf="http://www.w3.org/1999/02/22-rdf-syntax-ns#"
   xmlns:svg="http://www.w3.org/2000/svg"
   xmlns="http://www.w3.org/2000/svg"
   xmlns:sodipodi="http://sodipodi.sourceforge.net/DTD/sodipodi-0.dtd"
   xmlns:inkscape="http://www.inkscape.org/namespaces/inkscape"
   height="48"
   width="48"
   version="1.1"
   id="svg2"
   inkscape:version="0.48.3.1 r9886"
   sodipodi:docname="rotate_pin.svg">
  <metadata
     id="metadata84">
    <rdf:RDF>
      <cc:Work
         rdf:about="">
        <dc:format>image/svg+xml</dc:format>
        <dc:type
           rdf:resource="http://purl.org/dc/dcmitype/StillImage" />
      </cc:Work>
    </rdf:RDF>
  </metadata>
  <sodipodi:namedview
     pagecolor="#ffffff"
     bordercolor="#666666"
     borderopacity="1"
     objecttolerance="10"
     gridtolerance="10"
     guidetolerance="10"
     inkscape:pageopacity="0"
     inkscape:pageshadow="2"
     inkscape:window-width="1600"
     inkscape:window-height="849"
     id="namedview82"
     showgrid="false"
     inkscape:zoom="13.906433"
     inkscape:cx="8.0257266"
     inkscape:cy="33.922471"
     inkscape:window-x="0"
     inkscape:window-y="29"
     inkscape:window-maximized="1"
     inkscape:current-layer="g22" />
  <defs
     id="defs4">
    <linearGradient
       id="g"
       y2="1726.1"
       gradientUnits="userSpaceOnUse"
       x2="2067.2"
       gradientTransform="matrix(.011403 -.067296 -.062613 -.010857 118.87 178.42)"
       y1="1726.1"
       x1="1669.7">
      <stop
         stop-color="#003ddd"
         offset="0"
         id="stop7" />
      <stop
         stop-color="#639ef0"
         offset="1"
         id="stop9" />
    </linearGradient>
    <filter
       id="e"
       height="1.2293"
       width="1.09"
       color-interpolation-filters="sRGB"
       y="-.11464"
       x="-.044985">
      <feGaussianBlur
         stdDeviation="0.68425161"
         id="feGaussianBlur12" />
    </filter>
    <filter
       id="f"
       height="1.1071"
       width="1.2934"
       color-interpolation-filters="sRGB"
       y="-.053551"
       x="-.14671">
      <feGaussianBlur
         stdDeviation="0.77576414"
         id="feGaussianBlur15" />
    </filter>
    <linearGradient
       id="h"
       y2="5.5"
       gradientUnits="userSpaceOnUse"
       x2="1.0312"
       gradientTransform="matrix(1.9385,0,0,1.7906,-101.39,-12.363)"
       y1="9.4062"
       x1="4.9688">
      <stop
         stop-color="#afafff"
         offset="0"
         id="stop18" />
      <stop
         stop-color="#fff"
         offset="1"
         id="stop20" />
    </linearGradient>
  </defs>
  <g
     transform="matrix(.77016 0 0 .75565 -46.632 -2.2268)"
     id="g22">
    <g
       transform="matrix(.9966 0 0 1.0887 98.702 56.637)"
       id="g24">
      <g
         id="g26"
         filter="url(#e)"
         opacity=".69531">
        <g
           transform="matrix(-1,0,0,1,-101.77,-29.616)"
           id="g28">
          <path
             transform="rotate(-90)"
             style=""
             d="m -2.8594999,-90.406998 3.58109996,0 0,23.582001 -3.58109996,0 z"
             id="rect30" />
          <path
             d="m-95.576-6.0964c-4.2802 0-7.754 3.2087-7.754 7.1622s3.4738 7.1622 7.754 7.1622 7.754-3.2087 7.754-7.1622-3.4738-7.1622-7.754-7.1622z"
             id="path32" />
          <path
             d="m-95.576-2.5153c2.1401 0 3.877 1.6043 3.877 3.5811s-1.7369 3.5811-3.877 3.5811-3.877-1.6043-3.877-3.5811 1.7369-3.5811 3.877-3.5811z"
             id="path34" />
        </g>
      </g>
      <g
         font-size="18.731px"
         font-weight="bold"
         id="g36"
         filter="url(#f)"
         font-family="Arial"
         opacity=".66016">
        <g
           transform="scale(1.0492 .9531)"
           style="line-height:125%;letter-spacing:0px;word-spacing:0px"
           id="text38">
          <path
             d="m -15.01563,-43.84113 c -1.2e-5,0.554866 -0.09452,1.09143 -0.283526,1.609696 -0.182931,0.512182 -0.466456,0.966433 -0.850577,1.362753 -0.384142,0.396332 -0.871928,0.713393 -1.46336,0.951184 -0.591449,0.231703 -1.292642,0.347552 -2.103579,0.347548 l -3.201099,0 0,4.536414 -2.698069,0 0,-12.886709 5.789416,0 c 0.823132,1.3e-5 1.536519,0.100619 2.140163,0.301818 0.603626,0.195127 1.103607,0.472555 1.499944,0.832285 0.396315,0.359754 0.688987,0.789616 0.878015,1.289586 0.195103,0.499991 0.29266,1.051799 0.292672,1.655425 m -2.716361,0.04573 c -9e-6,-0.664599 -0.20122,-1.167629 -0.603635,-1.509089 -0.396335,-0.347537 -0.993873,-0.521311 -1.792616,-0.521322 l -2.789529,0 0,4.179721 2.862697,0 c 0.402417,6e-6 0.746916,-0.05182 1.033498,-0.155482 0.292664,-0.103648 0.533508,-0.249984 0.722534,-0.439008 0.195105,-0.18901 0.338393,-0.414611 0.429861,-0.676804 0.09145,-0.268274 0.137181,-0.560946 0.13719,-0.878016"
             id="path3038"
             style="" />
        </g>
        <g
           transform="scale(1.0492 .9531)"
           style="line-height:125%;letter-spacing:0px;word-spacing:0px"
           id="text42">
          <path
             d="m -27.632489,-11.963096 0,-1.911513 3.191953,0 0,-8.789303 -3.091347,1.929806 0,-2.021266 3.228537,-2.094433 2.432835,0 0,10.975196 2.954157,0 0,1.911513 -8.716135,0"
             style=""
             id="path3041" />
        </g>
      </g>
      <g
         transform="matrix(2.4566,0,0,2.2316,-35.244,-45.716)"
         id="g46">
        <path
           style="fill-opacity:0"
           d="M 0,0 16,0 16,16 0,16 z"
           id="rect48" />
      </g>
    </g>
    <g
       transform="matrix(2.6586,0,0,2.1996,62.612,9.0538)"
       id="g50">
      <rect
         fill-opacity="0"
         height="16"
         width="16"
         y="0"
         x="0"
         id="rect52" />
    </g>
    <g
       id="g56"
       transform="matrix(-0.9966,0,0,1.0887,-4.49149,21.8)">
      <rect
         style="fill:#d72e2e"
         id="rect58"
         x="-2.8594999"
         y="-90.406998"
         width="3.5811"
         height="23.582001"
         transform="matrix(0,-1,1,0,0,0)" />
      <path
         style="fill:#d72e2e"
         inkscape:connector-curvature="0"
         id="path60"
         d="m -95.576,-6.0964 c -4.2802,0 -7.754,3.2087 -7.754,7.1622 0,3.9535 3.4738,7.1622 7.754,7.1622 4.2802,0 7.754,-3.2087 7.754,-7.1622 0,-3.9535 -3.4738,-7.1622 -7.754,-7.1622 z" />
      <path
         inkscape:connector-curvature="0"
         style="fill:url(#h)"
         id="path62"
         d="m -95.576,-2.5153 c 2.1401,0 3.877,1.6043 3.877,3.5811 0,1.9768 -1.7369,3.5811 -3.877,3.5811 -2.1401,0 -3.877,-1.6043 -3.877,-3.5811 0,-1.9768 1.7369,-3.5811 3.877,-3.5811 z" />
    </g>
    <g
       transform="scale(1.003844,0.99617072)"
       style="font-size:19.51074791px;font-weight:bold;line-height:125%;letter-spacing:0px;word-spacing:0px;fill:#000000;font-family:Arial"
       id="text64">
      <path
         d="m 80.920032,8.58483 c -1.2e-5,0.5779637 -0.09846,1.1368647 -0.295328,1.676705 -0.190547,0.533504 -0.485875,1.006664 -0.885987,1.419483 -0.400133,0.412831 -0.908225,0.74309 -1.524277,0.99078 -0.616071,0.241349 -1.346453,0.362021 -2.191148,0.362016 l -3.334356,0 0,4.725259 -2.810387,0 0,-13.4231657 6.030422,0 c 0.857398,1.35e-5 1.600482,0.1048074 2.229255,0.3143822 0.628755,0.2032499 1.149549,0.4922271 1.562385,0.8669327 0.412813,0.37473 0.717668,0.8224859 0.914566,1.3432692 0.203225,0.5208051 0.304843,1.095584 0.304855,1.7243386 m -2.829439,0.047634 C 78.090583,7.9401976 77.880995,7.4162278 77.461828,7.0605528 77.048995,6.698548 76.426582,6.5175403 75.594589,6.5175291 l -2.905653,0 0,4.3537169 2.981867,0 c 0.419168,7e-6 0.778008,-0.05398 1.076521,-0.161955 0.304846,-0.107962 0.555717,-0.26039 0.752611,-0.457283 0.203228,-0.196878 0.35248,-0.4318705 0.447757,-0.7049781 0.09526,-0.2794423 0.142891,-0.5842974 0.142901,-0.9145663"
         style=""
         id="path3034" />
    </g>
    <g
       transform="scale(1.003844,0.99617072)"
       style="font-size:19.51074791px;font-weight:bold;line-height:125%;letter-spacing:0px;word-spacing:0px;fill:#000000;font-family:Arial"
       id="text68">
      <path
         d="m 67.777952,41.789902 0,-1.991087 3.32483,0 0,-9.15519 -3.220036,2.01014 0,-2.105407 3.362937,-2.181622 2.53411,0 0,11.432079 3.077135,0 0,1.991087 -9.078976,0"
         style=""
         id="path3045" />
    </g>
    <g
       id="g72"
       transform="matrix(2.4482476,0,0,2.4295429,59.470298,11.56045)">
      <rect
         style="fill-opacity:0"
         id="rect74"
         x="0"
         y="0"
         width="16"
         height="16" />
    </g>
    <g
       id="g76"
       transform="matrix(2.4482476,0,0,2.4295429,61.802342,4.27193)">
      <rect
         style="fill-opacity:0"
         id="rect78"
         x="0"
         y="0"
         width="16"
         height="16" />
    </g>
  </g>
  <path
     d="m25.575 45.607c-6.0427-3.1368-8.4704-10.988-5.4191-17.525 3.0513-6.5368 10.432-9.2962 16.474-6.1594 3.1845 1.6531 5.3645 4.6151 6.2681 8.0041l5.4561-1.764-5.7658 13.626-10.132-8.6122 6.0393-2.0255c-0.6142-2.1369-2.0131-3.9963-4.0343-5.0456-3.935-2.0427-8.7404-0.24605-10.727 4.0107-1.987 4.2568-0.40717 9.3704 3.5278 11.413 1.1259 0.58445 2.3225 0.85313 3.5046 0.84105l0.2243 4.5279c-1.8263 0.02385-3.6762-0.38851-5.416-1.2917z"
     fill-rule="evenodd"
     stroke="#000"
     stroke-width=".79031"
     fill="url(#g)"
     id="path80" />
</svg>
