<svg id="Слой_1" data-name="Слой 1"
  xmlns:dc="http://purl.org/dc/elements/1.1/"
  xmlns:cc="http://creativecommons.org/ns#"
  xmlns:rdf="http://www.w3.org/1999/02/22-rdf-syntax-ns#"
  xmlns="http://www.w3.org/2000/svg" viewBox="0 0 26 26">
  <metadata id="metadata43">
    <rdf:RDF>
      <cc:Work rdf:about="">
        <cc:license rdf:resource="http://creativecommons.org/licenses/by-sa/4.0/" />
        <dc:format>image/svg+xml</dc:format>
        <dc:type rdf:resource="http://purl.org/dc/dcmitype/StillImage" />
        <dc:title>add_arc</dc:title>
      </cc:Work>
      <cc:License rdf:about="http://creativecommons.org/licenses/by-sa/4.0/">
        <cc:permits rdf:resource="http://creativecommons.org/ns#Reproduction" />
        <cc:permits rdf:resource="http://creativecommons.org/ns#Distribution" />
        <cc:requires rdf:resource="http://creativecommons.org/ns#Notice" />
        <cc:requires rdf:resource="http://creativecommons.org/ns#Attribution" />
        <cc:permits rdf:resource="http://creativecommons.org/ns#DerivativeWorks" />
        <cc:requires rdf:resource="http://creativecommons.org/ns#ShareAlike" />
      </cc:License>
    </rdf:RDF>
  </metadata>
  <defs>
    <style>.cls-1{fill:#545454;}.cls-2{fill:#e61c50;}.cls-3{fill:none;stroke:#545454;stroke-linecap:round;stroke-linejoin:round;}</style>
  </defs>
  <title>rotate_neg_x</title>
  <path class="cls-1" d="M5.6115,6.59,6.7694,4.6934H8.3847L6.4164,7.4283l2.0263,2.7965H6.8447l-1.21-1.9421L4.4246,10.2248H2.8157L4.842,7.4283,2.8728,4.6934h1.598Z"/>
  <path class="cls-1" d="M1.9663,25a.9624.9624,0,0,1-.657-1.669c.4692-.4828,5.2459-6.375,8.1607-9.9933a.9722.9722,0,0,1,1.3593-.1483.9621.9621,0,0,1,.1488,1.3544c-2.9546,3.6662-7.9719,9.87-8.3793,10.222A.9679.9679,0,0,1,1.9663,25Z"/>
  <path class="cls-1" d="M10.2241,14.9036a.9649.9649,0,0,1-.9665-.9629V1.9629a.9665.9665,0,0,1,1.9329,0V13.9407A.9649.9649,0,0,1,10.2241,14.9036Z"/>
  <path class="cls-2" d="M24.0336,14.9036H10.2241a.9629.9629,0,1,1,0-1.9258h13.81a.9629.9629,0,1,1,0,1.9258Z"/>
  <path class="cls-3" d="M22.2649,16.2356c-.3877,2.6447-1.2959,4.5-2.3543,4.5-1.4111,0-2.5551-3.2992-2.5551-7.3688S18.5,5.9986,19.9106,5.9986c.7,0,1.178.7681,1.4974,1.6653"/>
  <polygon class="cls-1" points="19.698 7.009 22.21 12.027 22.543 6.425 19.698 7.009"/>
</svg>