<?xml version="1.0" encoding="UTF-8" standalone="no"?>
<svg
   xmlns:dc="http://purl.org/dc/elements/1.1/"
   xmlns:cc="http://creativecommons.org/ns#"
   xmlns:rdf="http://www.w3.org/1999/02/22-rdf-syntax-ns#"
   xmlns:svg="http://www.w3.org/2000/svg"
   xmlns="http://www.w3.org/2000/svg"
   xmlns:sodipodi="http://sodipodi.sourceforge.net/DTD/sodipodi-0.dtd"
   xmlns:inkscape="http://www.inkscape.org/namespaces/inkscape"
   width="20pt"
   height="20pt"
   viewBox="0 0 20 20"
   version="1.1"
   id="svg2"
   inkscape:version="0.48.3.1 r9886"
   sodipodi:docname="rotate_pos_x.svg">
  <metadata
     id="metadata25">
    <rdf:RDF>
      <cc:Work
         rdf:about="">
        <dc:format>image/svg+xml</dc:format>
        <dc:type
           rdf:resource="http://purl.org/dc/dcmitype/StillImage" />
      </cc:Work>
    </rdf:RDF>
  </metadata>
  <defs
     id="defs23" />
  <sodipodi:namedview
     pagecolor="#ffffff"
     bordercolor="#666666"
     borderopacity="1"
     objecttolerance="10"
     gridtolerance="10"
     guidetolerance="10"
     inkscape:pageopacity="0"
     inkscape:pageshadow="2"
     inkscape:window-width="640"
     inkscape:window-height="480"
     id="namedview21"
     showgrid="false"
     inkscape:zoom="9.44"
     inkscape:cx="12.5"
     inkscape:cy="12.5"
     inkscape:window-x="72"
     inkscape:window-y="24"
     inkscape:window-maximized="0"
     inkscape:current-layer="surface1" />
  <g
     id="surface1">
    <path
       style="fill:none;stroke-width:1.4;stroke-linecap:round;stroke-linejoin:miter;stroke:rgb(60%,60%,60%);stroke-opacity:1;stroke-miterlimit:4;"
       d="M 9.998828 1027.362591 L 9.998828 1042.363372 "
       transform="matrix(0.769231,0,0,0.769231,0,-789.509385)"
       id="path5" />
    <path
       style="fill:none;stroke-width:1.4;stroke-linecap:round;stroke-linejoin:miter;stroke:rgb(60%,60%,60%);stroke-opacity:1;stroke-miterlimit:4;"
       d="M 1.498047 1050.864153 L 9.998828 1042.363372 "
       transform="matrix(0.769231,0,0,0.769231,0,-789.509385)"
       id="path7" />
    <path
       style="fill:none;stroke-width:1.39999999999999991;stroke-linecap:round;stroke-linejoin:round;stroke:#dc0000;stroke-opacity:1;stroke-miterlimit:4"
       d="M 24.999609 1042.363372 L 9.998828 1042.363372 "
       transform="matrix(0.769231,0,0,0.769231,0,-789.509385)"
       id="path9" />
    <path
       style="fill:none;stroke-width:1.50000000000000000;stroke-linecap:round;stroke-linejoin:round;stroke:#dc0000;stroke-opacity:1;stroke-miterlimit:4"
       d="M 1.498047 2.498437 L 7.500391 11.501953 "
       transform="matrix(0.769231,0,0,0.769231,0,0.000000000000035083)"
       id="path11" />
    <path
       style="fill:none;stroke-width:1.50000000000000000;stroke-linecap:round;stroke-linejoin:round;stroke:#dc0000;stroke-opacity:1;stroke-miterlimit:4"
       d="M 7.500391 2.498437 L 1.498047 11.501953 "
       transform="matrix(0.769231,0,0,0.769231,0,0.000000000000035083)"
       id="path13" />
    <path
       style="fill:none;stroke-width:1.4;stroke-linecap:butt;stroke-linejoin:miter;stroke:rgb(100%,100%,100%);stroke-opacity:0.588235;stroke-miterlimit:4;"
       d="M 12.502344 1042.363372 L 16.498828 1042.363372 "
       transform="matrix(0.769231,0,0,0.769231,0,-789.509385)"
       id="path15" />
    <path
       style="fill:none;stroke-width:1.50000000000000000;stroke-linecap:butt;stroke-linejoin:round;stroke:#dc0000;stroke-opacity:1;stroke-miterlimit:4"
       d="M 23.501562 12.502344 C 23.501562 12.502344 22.501172 7.500391 19.5 7.500391 C 16.498828 7.500391 14.498047 10.999219 14.498047 16.001172 C 14.498047 20.998047 16.498828 24.501953 19.5 24.501953 C 22.501172 24.501953 23.501562 19.5 23.501562 19.5 "
       transform="matrix(0.769231,0,0,0.769231,0,0.000000000000035083)"
       id="path17" />
    <path
       style="fill-rule:nonzero;fill:#dc0000;fill-opacity:1;stroke-width:1.50000000000000000;stroke-linecap:round;stroke-linejoin:round;stroke:#dc0000;stroke-opacity:1;stroke-miterlimit:4"
       d="M 20.500391 1048.863372 C 22.501172 1047.360247 22.998828 1045.8622 23.501562 1044.861809 C 23.501562 1046.359856 23.658984 1049.249309 22.501172 1050.864153 Z "
       transform="matrix(0.769231,0,0,0.769231,0,-789.509385)"
       id="path19" />
  </g>
</svg>
