<svg id="Слой_1" data-name="Слой 1"
  xmlns:dc="http://purl.org/dc/elements/1.1/"
  xmlns:cc="http://creativecommons.org/ns#"
  xmlns:rdf="http://www.w3.org/1999/02/22-rdf-syntax-ns#"
  xmlns="http://www.w3.org/2000/svg" viewBox="0 0 26 26">
  <metadata id="metadata43">
    <rdf:RDF>
      <cc:Work rdf:about="">
        <cc:license rdf:resource="http://creativecommons.org/licenses/by-sa/4.0/" />
        <dc:format>image/svg+xml</dc:format>
        <dc:type rdf:resource="http://purl.org/dc/dcmitype/StillImage" />
        <dc:title>add_arc</dc:title>
      </cc:Work>
      <cc:License rdf:about="http://creativecommons.org/licenses/by-sa/4.0/">
        <cc:permits rdf:resource="http://creativecommons.org/ns#Reproduction" />
        <cc:permits rdf:resource="http://creativecommons.org/ns#Distribution" />
        <cc:requires rdf:resource="http://creativecommons.org/ns#Notice" />
        <cc:requires rdf:resource="http://creativecommons.org/ns#Attribution" />
        <cc:permits rdf:resource="http://creativecommons.org/ns#DerivativeWorks" />
        <cc:requires rdf:resource="http://creativecommons.org/ns#ShareAlike" />
      </cc:License>
    </rdf:RDF>
  </metadata>
  <defs>
    <style>.cls-1,.cls-3{fill:none;stroke-linecap:round;stroke-linejoin:round;}.cls-1{stroke:#545454;}.cls-2{fill:#545454;}.cls-3{stroke:#1a81c4;stroke-width:2px;}</style>
  </defs>
  <title>router_len_tuner_dist_incr</title>
  <line class="cls-1" x1="7.1212" y1="16.0866" x2="7.1212" y2="24.5035"/>
  <line class="cls-1" x1="20.3693" y1="13.1011" x2="20.3693" y2="24.5035"/>
  <line class="cls-1" x1="16.91" y1="23.5018" x2="10.703" y2="23.5018"/>
  <polygon class="cls-2" points="16.217 22.485 20.011 23.502 16.217 24.519 16.217 22.485"/>
  <polygon class="cls-2" points="11.397 22.485 7.602 23.502 11.397 24.519 11.397 22.485"/>
  <path class="cls-3" d="M1.9593,14.4279h0A2.1739,2.1739,0,0,0,4.1332,12.254V4.23a2.25,2.25,0,0,1,2.25-2.25h0a2.25,2.25,0,0,1,2.25,2.25V16.8489a3.2726,3.2726,0,0,0,3.2727,3.2726h.0779a3.2727,3.2727,0,0,0,3.2727-3.2726V5.2521A3.2726,3.2726,0,0,1,18.53,1.98h0a3.2726,3.2726,0,0,1,3.2726,3.2726V12.254a2.1739,2.1739,0,0,0,2.1739,2.1739"/>
</svg>