<svg id="Слой_1" data-name="Слой 1"
  xmlns:dc="http://purl.org/dc/elements/1.1/"
  xmlns:cc="http://creativecommons.org/ns#"
  xmlns:rdf="http://www.w3.org/1999/02/22-rdf-syntax-ns#"
  xmlns="http://www.w3.org/2000/svg"
  xmlns:sodipodi="http://sodipodi.sourceforge.net/DTD/sodipodi-0.dtd"
  xmlns:inkscape="http://www.inkscape.org/namespaces/inkscape" viewBox="0 0 26 26">
  <sodipodi:namedview pagecolor="#ffffff" bordercolor="#666666" borderopacity="1" objecttolerance="10" gridtolerance="10" guidetolerance="10" inkscape:pageopacity="0" inkscape:pageshadow="2" inkscape:window-width="1609" inkscape:window-height="1286" id="namedview30" showgrid="true" inkscape:zoom="27.961538" inkscape:cx="13" inkscape:cy="13" inkscape:window-x="0" inkscape:window-y="37" inkscape:window-maximized="0">
    <inkscape:grid type="xygrid" id="grid_kicad" spacingx="0.5" spacingy="0.5" color="#9999ff" opacity="0.13" empspacing="2" />
  </sodipodi:namedview>
  <metadata id="metadata43">
    <rdf:RDF>
      <cc:Work rdf:about="">
        <cc:license rdf:resource="http://creativecommons.org/licenses/by-sa/4.0/" />
        <dc:format>image/svg+xml</dc:format>
        <dc:type rdf:resource="http://purl.org/dc/dcmitype/StillImage" />
        <dc:title>add_arc</dc:title>
      </cc:Work>
      <cc:License rdf:about="http://creativecommons.org/licenses/by-sa/4.0/">
        <cc:permits rdf:resource="http://creativecommons.org/ns#Reproduction" />
        <cc:permits rdf:resource="http://creativecommons.org/ns#Distribution" />
        <cc:requires rdf:resource="http://creativecommons.org/ns#Notice" />
        <cc:requires rdf:resource="http://creativecommons.org/ns#Attribution" />
        <cc:permits rdf:resource="http://creativecommons.org/ns#DerivativeWorks" />
        <cc:requires rdf:resource="http://creativecommons.org/ns#ShareAlike" />
      </cc:License>
    </rdf:RDF>
  </metadata>
  <defs>
    <style>.cls-1,.cls-2{fill:none;stroke-linecap:round;stroke-linejoin:round;}.cls-1{stroke:#1a81c4;stroke-width:2px;}.cls-2{stroke:#545454;}.cls-3{fill:#545454;}</style>
  </defs>
  <title>router_len_tuner_amplitude_decr</title>
  <path class="cls-1" d="M24.0128,19.3305V4.5235a2.3926,2.3926,0,0,0-2.28-2.4912h0a2.3579,2.3579,0,0,0-2.28,2.4585V21.439a2.3925,2.3925,0,0,1-2.28,2.4911h0a2.3925,2.3925,0,0,1-2.28-2.4911V9.48a2.3928,2.3928,0,0,0-2.28-2.4913h0A2.3926,2.3926,0,0,0,10.333,9.48V21.4719a2.3928,2.3928,0,0,1-2.28,2.4913h0a2.3927,2.3927,0,0,1-2.28-2.4913V15.9084A1.0629,1.0629,0,0,0,4.71,14.8455"/>
  <line class="cls-2" x1="4.5031" y1="24.5" x2="1.5" y2="24.5"/>
  <line class="cls-2" x1="7.4947" y1="6.7933" x2="1.5041" y2="6.7933"/>
  <line class="cls-2" x1="2.5059" y1="19.5423" x2="2.5059" y2="7.3292"/>
  <polygon class="cls-3" points="3.959 18.552 2.506 23.972 1.053 18.552 3.959 18.552"/>
</svg>