<?xml version="1.0" encoding="UTF-8" standalone="no"?>
<svg
   xmlns:dc="http://purl.org/dc/elements/1.1/"
   xmlns:cc="http://creativecommons.org/ns#"
   xmlns:rdf="http://www.w3.org/1999/02/22-rdf-syntax-ns#"
   xmlns:svg="http://www.w3.org/2000/svg"
   xmlns="http://www.w3.org/2000/svg"
   xmlns:sodipodi="http://sodipodi.sourceforge.net/DTD/sodipodi-0.dtd"
   xmlns:inkscape="http://www.inkscape.org/namespaces/inkscape"
   height="26"
   width="26"
   version="1.1"
   viewBox="0 0 26 26"
   id="svg2"
   inkscape:version="0.92.0 r15299"
   sodipodi:docname="router_len_tuner_setup.svg">
  <metadata
     id="metadata100">
    <rdf:RDF>
      <cc:Work
         rdf:about="">
        <dc:format>image/svg+xml</dc:format>
        <dc:type
           rdf:resource="http://purl.org/dc/dcmitype/StillImage" />
        <dc:title />
      </cc:Work>
    </rdf:RDF>
  </metadata>
  <sodipodi:namedview
     pagecolor="#ffffff"
     bordercolor="#666666"
     borderopacity="1"
     objecttolerance="10"
     gridtolerance="10"
     guidetolerance="10"
     inkscape:pageopacity="0"
     inkscape:pageshadow="2"
     inkscape:window-width="1920"
     inkscape:window-height="1033"
     id="namedview98"
     showgrid="true"
     inkscape:zoom="30.82455"
     inkscape:cx="13"
     inkscape:cy="12.961588"
     inkscape:window-x="-4"
     inkscape:window-y="-4"
     inkscape:window-maximized="1"
     inkscape:current-layer="svg2"
     showguides="true"
     inkscape:guide-bbox="true">
    <inkscape:grid
       type="xygrid"
       id="grid3020"
       empspacing="2"
       visible="true"
       enabled="true"
       snapvisiblegridlinesonly="true"
       spacingx="0.5"
       spacingy="0.5"
       originx="0"
       originy="0" />
  </sodipodi:namedview>
  <defs
     id="defs4" />
  <path
     style="fill:none;stroke:#c92727;stroke-width:2;stroke-linecap:butt;stroke-linejoin:miter;stroke-miterlimit:4;stroke-opacity:1;stroke-dasharray:none"
     d="M 0,9 C 0,9 0,9 3,9 5.5,9 5,12.5 5,15.5 5,17 6,18 7,18 8,18 9,17 9,15.5 9,13.323674 9,11.902478 9,9 9,6.5 9,6.003952 9,3.5 9,2 10.125,1 11,1 c 1,0 2,1 2,2.5 0,2.1572982 0,3.5 0,5.5 0,2.857624 0,4.414048 0,6.5 0,1.5 1,2.5 2,2.5 1,0 2,-1 2,-2.5 C 17,13.530692 17.0625,11.625 17,9 16.9375,6.375 17,5.4792009 17,3.5 17,2 18,1 19,1 c 1,0 2,1 2,2.5 0,3 -0.5,5.5 2,5.5 2.236068,0 3,0 3,0"
     id="path4206"
     inkscape:connector-curvature="0"
     sodipodi:nodetypes="ccczssssssssssssssc" />
  <path
     sodipodi:nodetypes="cc"
     style="opacity:1;fill:#000000;stroke:#000000;stroke-width:1px;stroke-linecap:round;stroke-linejoin:miter;stroke-opacity:1;fill-opacity:1"
     d="m 11.5,13.5 v 12"
     id="path5197"
     inkscape:connector-curvature="0" />
  <path
     inkscape:connector-curvature="0"
     id="path5199"
     d="m 20.5,6.5 v 19"
     style="opacity:1;fill:#000000;fill-opacity:1;stroke:#060606;stroke-width:1.25830579px;stroke-linecap:round;stroke-linejoin:miter;stroke-opacity:1"
     sodipodi:nodetypes="cc" />
  <g
     id="g4499"
     transform="matrix(1,0,0,1.0048309,-0.5,0.08496122)">
    <path
       inkscape:connector-curvature="0"
       id="path5185-0"
       d="M 8,0.4130434 V 18.413043"
       style="opacity:1;fill:#000000;fill-opacity:1;stroke:#000000;stroke-width:0.88465172px;stroke-linecap:round;stroke-linejoin:miter;stroke-opacity:1" />
    <path
       inkscape:connector-curvature="0"
       id="path5191-5"
       d="M 6.5,14.5 8,18.413043 9.5,14.5"
       style="fill:#000000;fill-opacity:1;stroke:#000000;stroke-width:0.88465172px;stroke-linecap:round;stroke-linejoin:round;stroke-opacity:1"
       sodipodi:nodetypes="ccc" />
    <path
       inkscape:connector-curvature="0"
       id="path5195-1"
       d="M 9.5,4.3260869 8,0.4130434 6.5,4.3260869"
       style="fill:#000000;fill-opacity:1;stroke:#000000;stroke-width:0.88465172px;stroke-linecap:round;stroke-linejoin:round;stroke-opacity:1"
       sodipodi:nodetypes="ccc" />
  </g>
  <path
     style="opacity:1;fill:#020202;fill-opacity:1;stroke:#000000;stroke-width:0.59851736px;stroke-linecap:round;stroke-linejoin:miter;stroke-opacity:1"
     d="M 20,21.5 H 11.76087"
     id="path5185-0-5"
     inkscape:connector-curvature="0" />
  <path
     sodipodi:nodetypes="ccc"
     style="fill:#020202;fill-opacity:1;stroke:#000000;stroke-width:0.77459675px;stroke-linecap:round;stroke-linejoin:round;stroke-opacity:1"
     d="m 8.5,20 3,1.5 -3,1.5"
     id="path5191-5-8"
     inkscape:connector-curvature="0" />
  <path
     sodipodi:nodetypes="ccc"
     style="fill:#020202;fill-opacity:1;stroke:#000000;stroke-width:0.74015254px;stroke-linecap:round;stroke-linejoin:round;stroke-opacity:1"
     d="M 23.5,23 20.76087,21.5 23.5,20"
     id="path5195-1-3"
     inkscape:connector-curvature="0" />
</svg>
