<svg id="Слой_1" data-name="Слой 1"
  xmlns:dc="http://purl.org/dc/elements/1.1/"
  xmlns:cc="http://creativecommons.org/ns#"
  xmlns:rdf="http://www.w3.org/1999/02/22-rdf-syntax-ns#"
  xmlns="http://www.w3.org/2000/svg"
  xmlns:sodipodi="http://sodipodi.sourceforge.net/DTD/sodipodi-0.dtd"
  xmlns:inkscape="http://www.inkscape.org/namespaces/inkscape" viewBox="0 0 26 26">
  <sodipodi:namedview pagecolor="#ffffff" bordercolor="#666666" borderopacity="1" objecttolerance="10" gridtolerance="10" guidetolerance="10" inkscape:pageopacity="0" inkscape:pageshadow="2" inkscape:window-width="1609" inkscape:window-height="1286" id="namedview30" showgrid="true" inkscape:zoom="27.961538" inkscape:cx="13" inkscape:cy="13" inkscape:window-x="0" inkscape:window-y="37" inkscape:window-maximized="0">
    <inkscape:grid type="xygrid" id="grid_kicad" spacingx="0.5" spacingy="0.5" color="#9999ff" opacity="0.13" empspacing="2" />
  </sodipodi:namedview>
  <metadata id="metadata43">
    <rdf:RDF>
      <cc:Work rdf:about="">
        <cc:license rdf:resource="http://creativecommons.org/licenses/by-sa/4.0/" />
        <dc:format>image/svg+xml</dc:format>
        <dc:type rdf:resource="http://purl.org/dc/dcmitype/StillImage" />
        <dc:title>add_arc</dc:title>
      </cc:Work>
      <cc:License rdf:about="http://creativecommons.org/licenses/by-sa/4.0/">
        <cc:permits rdf:resource="http://creativecommons.org/ns#Reproduction" />
        <cc:permits rdf:resource="http://creativecommons.org/ns#Distribution" />
        <cc:requires rdf:resource="http://creativecommons.org/ns#Notice" />
        <cc:requires rdf:resource="http://creativecommons.org/ns#Attribution" />
        <cc:permits rdf:resource="http://creativecommons.org/ns#DerivativeWorks" />
        <cc:requires rdf:resource="http://creativecommons.org/ns#ShareAlike" />
      </cc:License>
    </rdf:RDF>
  </metadata>
  <defs>
    <style>.cls-1,.cls-3,.cls-4{fill:none;stroke-linecap:round;stroke-linejoin:round;}.cls-1,.cls-4{stroke:#545454;}.cls-2{fill:#545454;}.cls-3{stroke:#1a81c4;stroke-width:2px;}.cls-4{stroke-width:0.5px;}</style>
  </defs>
  <title>router_len_tuner_dist_decr</title>
  <line class="cls-1" x1="10.3415" y1="16.0866" x2="10.3415" y2="24.5035"/>
  <line class="cls-1" x1="20.1053" y1="11.5877" x2="20.1053" y2="24.5035"/>
  <line class="cls-1" x1="6.7504" y1="23.5015" x2="3.9266" y2="23.5015"/>
  <polygon class="cls-2" points="6.057 22.485 9.851 23.502 6.057 24.518 6.057 22.485"/>
  <line class="cls-1" x1="24.5979" y1="23.5014" x2="23.6981" y2="23.5014"/>
  <polygon class="cls-2" points="24.392 22.485 20.597 23.501 24.392 24.518 24.392 22.485"/>
  <path class="cls-3" d="M1.968,14.2034h0a2.42,2.42,0,0,0,2.42-2.42V5.6512A3.6427,3.6427,0,0,1,8.03,2.0085h.1735a3.6426,3.6426,0,0,1,3.6426,3.6427V17.01a2.4179,2.4179,0,0,0,2.4179,2.4178h.0867A2.4178,2.4178,0,0,0,16.7689,17.01V4.4264a2.4179,2.4179,0,0,1,2.4179-2.4179h0a2.418,2.418,0,0,1,2.4179,2.4179v7.3574a2.42,2.42,0,0,0,2.42,2.42"/>
  <line class="cls-4" x1="10.5786" y1="23.554" x2="20.0812" y2="23.554"/>
</svg>