<svg id="Слой_1" data-name="Слой 1"
  xmlns:dc="http://purl.org/dc/elements/1.1/"
  xmlns:cc="http://creativecommons.org/ns#"
  xmlns:rdf="http://www.w3.org/1999/02/22-rdf-syntax-ns#"
  xmlns="http://www.w3.org/2000/svg"
  xmlns:sodipodi="http://sodipodi.sourceforge.net/DTD/sodipodi-0.dtd"
  xmlns:inkscape="http://www.inkscape.org/namespaces/inkscape" viewBox="0 0 26 26">
  <sodipodi:namedview pagecolor="#ffffff" bordercolor="#666666" borderopacity="1" objecttolerance="10" gridtolerance="10" guidetolerance="10" inkscape:pageopacity="0" inkscape:pageshadow="2" inkscape:window-width="1609" inkscape:window-height="1286" id="namedview30" showgrid="true" inkscape:zoom="27.961538" inkscape:cx="13" inkscape:cy="13" inkscape:window-x="0" inkscape:window-y="37" inkscape:window-maximized="0">
    <inkscape:grid type="xygrid" id="grid_kicad" spacingx="0.5" spacingy="0.5" color="#9999ff" opacity="0.13" empspacing="2" />
  </sodipodi:namedview>
  <metadata id="metadata43">
    <rdf:RDF>
      <cc:Work rdf:about="">
        <cc:license rdf:resource="http://creativecommons.org/licenses/by-sa/4.0/" />
        <dc:format>image/svg+xml</dc:format>
        <dc:type rdf:resource="http://purl.org/dc/dcmitype/StillImage" />
        <dc:title>add_arc</dc:title>
      </cc:Work>
      <cc:License rdf:about="http://creativecommons.org/licenses/by-sa/4.0/">
        <cc:permits rdf:resource="http://creativecommons.org/ns#Reproduction" />
        <cc:permits rdf:resource="http://creativecommons.org/ns#Distribution" />
        <cc:requires rdf:resource="http://creativecommons.org/ns#Notice" />
        <cc:requires rdf:resource="http://creativecommons.org/ns#Attribution" />
        <cc:permits rdf:resource="http://creativecommons.org/ns#DerivativeWorks" />
        <cc:requires rdf:resource="http://creativecommons.org/ns#ShareAlike" />
      </cc:License>
    </rdf:RDF>
  </metadata>
  <defs>
    <style>.cls-1{fill:#b9b9b9;}.cls-2{fill:none;stroke:#1a81c4;stroke-linecap:round;stroke-linejoin:round;stroke-width:2px;}.cls-3{fill:#fff;}.cls-4{fill:#e61c50;}</style>
  </defs>
  <title>router_len_tuner_setup</title>
  <rect class="cls-1" x="1.0061" y="1.0061" width="20.9878" height="20.9878" rx="3.498"/>
  <path class="cls-2" d="M4.6787,18.692h0a1.72,1.72,0,0,0,1.72-1.72V5.2481a1.72,1.72,0,0,1,1.72-1.72h0a1.72,1.72,0,0,1,1.72,1.72V16.9494a1.72,1.72,0,0,0,1.72,1.72h0"/>
  <circle class="cls-3" cx="17.8974" cy="18.1164" r="3.4667"/>
  <path class="cls-4" d="M24.7087,19.5535l-1.2674-.907-.015.0269a5.1976,5.1976,0,0,0,.0693-.6877,5.203,5.203,0,0,0-.0738-.7314l.0074.0127,1.2576-.92a.67.67,0,0,0,.1848-.8745l-1.1327-1.9683a.67.67,0,0,0-.8489-.28l-1.4277.6248.0124.0215a5.2207,5.2207,0,0,0-1.2774-.757l-.1694-1.5386a.67.67,0,0,0-.6656-.5964h-2.271a.67.67,0,0,0-.6658.5964l-.17,1.5453a5.2192,5.2192,0,0,0-1.3211.8044l.018-.0322-1.4342-.61a.67.67,0,0,0-.846.2886l-1.1118,1.98a.67.67,0,0,0,.1943.8725l1.2674.907.0276-.0492a5.2141,5.2141,0,0,0-.0709.7037,5.21,5.21,0,0,0,.0767.7616l-.021-.0367-1.2576.9205a.67.67,0,0,0-.1851.8744l1.1327,1.9684a.67.67,0,0,0,.8489.2795l1.4279-.6249-.0293-.0507a5.22,5.22,0,0,0,1.2933.7762l.17,1.5487a.67.67,0,0,0,.6656.5964h2.271a.67.67,0,0,0,.6656-.5964l.1705-1.5484a5.2191,5.2191,0,0,0,1.318-.7963l-.0154.0271,1.4344.61a.67.67,0,0,0,.8459-.2885l1.1117-1.98A.67.67,0,0,0,24.7087,19.5535Zm-6.4714.9334a2.5012,2.5012,0,1,1,2.5012-2.5012A2.5013,2.5013,0,0,1,18.2373,20.4869Z"/>
</svg>