<svg id="Слой_1" data-name="Слой 1"
  xmlns:dc="http://purl.org/dc/elements/1.1/"
  xmlns:cc="http://creativecommons.org/ns#"
  xmlns:rdf="http://www.w3.org/1999/02/22-rdf-syntax-ns#"
  xmlns="http://www.w3.org/2000/svg"
  xmlns:sodipodi="http://sodipodi.sourceforge.net/DTD/sodipodi-0.dtd"
  xmlns:inkscape="http://www.inkscape.org/namespaces/inkscape" viewBox="0 0 26 26">
  <sodipodi:namedview pagecolor="#ffffff" bordercolor="#666666" borderopacity="1" objecttolerance="10" gridtolerance="10" guidetolerance="10" inkscape:pageopacity="0" inkscape:pageshadow="2" inkscape:window-width="1609" inkscape:window-height="1286" id="namedview30" showgrid="true" inkscape:zoom="27.961538" inkscape:cx="13" inkscape:cy="13" inkscape:window-x="0" inkscape:window-y="37" inkscape:window-maximized="0">
    <inkscape:grid type="xygrid" id="grid_kicad" spacingx="0.5" spacingy="0.5" color="#9999ff" opacity="0.13" empspacing="2" />
  </sodipodi:namedview>
  <metadata id="metadata43">
    <rdf:RDF>
      <cc:Work rdf:about="">
        <cc:license rdf:resource="http://creativecommons.org/licenses/by-sa/4.0/" />
        <dc:format>image/svg+xml</dc:format>
        <dc:type rdf:resource="http://purl.org/dc/dcmitype/StillImage" />
        <dc:title>add_arc</dc:title>
      </cc:Work>
      <cc:License rdf:about="http://creativecommons.org/licenses/by-sa/4.0/">
        <cc:permits rdf:resource="http://creativecommons.org/ns#Reproduction" />
        <cc:permits rdf:resource="http://creativecommons.org/ns#Distribution" />
        <cc:requires rdf:resource="http://creativecommons.org/ns#Notice" />
        <cc:requires rdf:resource="http://creativecommons.org/ns#Attribution" />
        <cc:permits rdf:resource="http://creativecommons.org/ns#DerivativeWorks" />
        <cc:requires rdf:resource="http://creativecommons.org/ns#ShareAlike" />
      </cc:License>
    </rdf:RDF>
  </metadata>
  <defs>
    <style>.cls-1,.cls-2{fill:none;stroke-linecap:round;stroke-linejoin:round;}.cls-1{stroke:#1a81c4;stroke-width:2px;}.cls-2{stroke:#545454;}.cls-3{fill:#545454;}</style>
  </defs>
  <title>router_len_tuner_amplitude_incr</title>
  <path class="cls-1" d="M24.0459,19.3305V10.489a2.386,2.386,0,0,0-2.2642-2.4913h0a2.3511,2.3511,0,0,0-2.2642,2.4585V21.439A2.3857,2.3857,0,0,1,17.2532,23.93h0A2.3858,2.3858,0,0,1,14.989,21.439V4.5059a2.3859,2.3859,0,0,0-2.2642-2.4913h0a2.3858,2.3858,0,0,0-2.2641,2.4913v16.966a2.386,2.386,0,0,1-2.2642,2.4913h0a2.386,2.386,0,0,1-2.2643-2.4913V16.1634a1.3179,1.3179,0,0,0-1.318-1.3179"/>
  <line class="cls-2" x1="5.416" y1="24.5" x2="1.5" y2="24.5"/>
  <line class="cls-2" x1="9.921" y1="1.5" x2="1.5041" y2="1.5"/>
  <line class="cls-2" x1="2.5059" y1="23.972" x2="2.5059" y2="6.4268"/>
  <polygon class="cls-3" points="3.959 7.417 2.506 1.997 1.053 7.417 3.959 7.417"/>
</svg>