<?xml version="1.0" encoding="UTF-8" standalone="no"?>
<svg
   xmlns:dc="http://purl.org/dc/elements/1.1/"
   xmlns:cc="http://creativecommons.org/ns#"
   xmlns:rdf="http://www.w3.org/1999/02/22-rdf-syntax-ns#"
   xmlns:svg="http://www.w3.org/2000/svg"
   xmlns="http://www.w3.org/2000/svg"
   xmlns:sodipodi="http://sodipodi.sourceforge.net/DTD/sodipodi-0.dtd"
   xmlns:inkscape="http://www.inkscape.org/namespaces/inkscape"
   id="Слой_1"
   data-name="Слой 1"
   viewBox="0 0 24 24"
   version="1.1"
   sodipodi:docname="save_fp_to_board.svg"
   inkscape:version="1.0.1 (3bc2e813f5, 2020-09-07)">
  <metadata
     id="metadata31">
    <rdf:RDF>
      <cc:Work
         rdf:about="">
        <dc:format>image/svg+xml</dc:format>
        <dc:type
           rdf:resource="http://purl.org/dc/dcmitype/StillImage" />
        <dc:title>pcbnew</dc:title>
      </cc:Work>
    </rdf:RDF>
  </metadata>
  <sodipodi:namedview
     pagecolor="#ffffff"
     bordercolor="#666666"
     borderopacity="1"
     objecttolerance="10"
     gridtolerance="10"
     guidetolerance="10"
     inkscape:pageopacity="0"
     inkscape:pageshadow="2"
     inkscape:window-width="1775"
     inkscape:window-height="1355"
     id="namedview29"
     showgrid="true"
     inkscape:zoom="5.6568543"
     inkscape:cx="-0.48747184"
     inkscape:cy="5.256834"
     inkscape:window-x="0"
     inkscape:window-y="37"
     inkscape:window-maximized="0"
     inkscape:current-layer="Слой_1"
     inkscape:document-rotation="0">
    <inkscape:grid
       type="xygrid"
       id="grid240591"
       spacingx="0.5"
       spacingy="0.5"
       color="#aaaaff"
       opacity="0.1254902"
       empspacing="2" />
  </sodipodi:namedview>
  <defs
     id="defs4">
    <style
       id="style2">.cls-1{fill:#b9b9b9;}.cls-2{fill:#545454;}.cls-3{fill:#1a81c4;}</style>
  </defs>
  <title
     id="title6">pcbnew</title>
  <g
     id="g854"
     transform="matrix(0.87510209,0,0,0.87509843,-0.8763272,-0.8751118)"
     style="stroke-width:1.14273">
    <rect
       class="cls-1"
       x="1.0042"
       y="1.0107"
       width="23.991501"
       height="23.995701"
       rx="3.9988999"
       id="rect8"
       style="stroke-width:1.14273" />
    <path
       class="cls-2"
       d="M 16.3671,25.0056 V 12.3342 h 2.9085 l 0.8443,0.8445 h 4.8787 V 6.1409 H 20.12 L 19.2757,6.9855 H 17.7744 L 16.3671,5.578 V 1.0122 H 5 A 3.9989,3.9989 0 0 0 1.0014,5.0115 V 21.0064 A 3.9989,3.9989 0 0 0 5,25.0056 Z"
       id="path10"
       style="stroke-width:1.14273" />
    <polygon
       class="cls-1"
       points="20.693,10.16 16.375,10.16 13.156,6.94 13.156,1.013 14.298,1.013 14.298,6.467 16.848,9.018 20.693,9.018 "
       id="polygon12"
       style="stroke-width:1.14273" />
    <polygon
       class="cls-1"
       points="13.823,25.008 12.68,25.008 12.68,12.746 9.127,9.193 9.127,1.013 10.27,1.013 10.27,8.72 13.823,12.273 "
       id="polygon14"
       style="stroke-width:1.14273" />
    <polygon
       class="cls-1"
       points="9.777,25.008 8.634,25.008 8.634,12.746 5.082,9.193 5.082,1.013 6.224,1.013 6.224,8.72 9.777,12.273 "
       id="polygon16"
       style="stroke-width:1.14273" />
    <rect
       class="cls-1"
       x="4.9309001"
       y="17.7537"
       width="1.1423"
       height="7.2543001"
       id="rect18"
       style="stroke-width:1.14273" />
    <path
       class="cls-3"
       d="m 7.4836,15.83 a 1.9993,1.9993 0 1 1 -1.9993,-2 1.9995,1.9995 0 0 1 1.9993,2 z"
       id="path20"
       style="stroke-width:1.14273" />
    <path
       class="cls-1"
       d="M 6.9078,15.83 A 1.4236,1.4236 0 1 1 5.4843,14.406 1.4235,1.4235 0 0 1 6.9078,15.83 Z"
       id="path22"
       style="stroke-width:1.14273" />
    <path
       class="cls-3"
       d="m 24.0464,9.6716 a 1.9993,1.9993 0 1 1 -1.9992,-2 1.9995,1.9995 0 0 1 1.9992,2 z"
       id="path24"
       style="stroke-width:1.14273" />
    <path
       class="cls-1"
       d="M 23.4707,9.6716 A 1.4236,1.4236 0 1 1 22.0472,8.2477 1.4237,1.4237 0 0 1 23.4707,9.6716 Z"
       id="path26"
       style="stroke-width:1.14273" />
  </g>
  <g
     id="g866"
     transform="translate(3.9924965,3.9925)">
    <path
       class="cls-8"
       d="M 6.0075058,12.9886 A 6.9925,6.9925 0 1 1 13.000006,19.9925 6.9982,6.9982 0 0 1 6.0075058,12.9886 Z"
       id="path42"
       style="fill:#e61c50;stroke-width:0.999998" />
    <path
       class="cls-9"
       d="M 15.217506,8.544 H 8.8643058 v 8.6345 h 8.6344992 v -6.4758 z m -1.251,0.898 v 2.26 h -3.5323 v -2.26 z m 1.9624,6.8838 h -5.4947 v -2.68 h 5.4947 z"
       id="path44"
       style="fill:#ffffff" />
  </g>
</svg>
