<?xml version="1.0" encoding="UTF-8" standalone="no"?>
<svg
   xmlns:dc="http://purl.org/dc/elements/1.1/"
   xmlns:cc="http://creativecommons.org/ns#"
   xmlns:rdf="http://www.w3.org/1999/02/22-rdf-syntax-ns#"
   xmlns:svg="http://www.w3.org/2000/svg"
   xmlns="http://www.w3.org/2000/svg"
   xmlns:sodipodi="http://sodipodi.sourceforge.net/DTD/sodipodi-0.dtd"
   xmlns:inkscape="http://www.inkscape.org/namespaces/inkscape"
   id="Слой_1"
   data-name="Слой 1"
   viewBox="0 0 24 24"
   version="1.1"
   sodipodi:docname="save_fp_to_board.svg"
   inkscape:version="1.0.1 (3bc2e813f5, 2020-09-07)"
   inkscape:export-filename="/Users/jeff/kicad_dev/kicad/bitmaps_png/png_26/save_fp_to_board.png"
   inkscape:export-xdpi="96"
   inkscape:export-ydpi="96">
  <metadata
     id="metadata31">
    <rdf:RDF>
      <cc:Work
         rdf:about="">
        <dc:format>image/svg+xml</dc:format>
        <dc:type
           rdf:resource="http://purl.org/dc/dcmitype/StillImage" />
        <dc:title>pcbnew</dc:title>
      </cc:Work>
    </rdf:RDF>
  </metadata>
  <sodipodi:namedview
     pagecolor="#ffffff"
     bordercolor="#666666"
     borderopacity="1"
     objecttolerance="10"
     gridtolerance="10"
     guidetolerance="10"
     inkscape:pageopacity="0"
     inkscape:pageshadow="2"
     inkscape:window-width="1920"
     inkscape:window-height="1041"
     id="namedview29"
     showgrid="true"
     inkscape:zoom="17.568212"
     inkscape:cx="12.77614"
     inkscape:cy="18.607741"
     inkscape:window-x="0"
     inkscape:window-y="0"
     inkscape:window-maximized="0"
     inkscape:current-layer="Слой_1"
     inkscape:document-rotation="0">
    <inkscape:grid
       type="xygrid"
       id="grid240591"
       spacingx="0.5"
       spacingy="0.5"
       color="#aaaaff"
       opacity="0.1254902"
       empspacing="2" />
  </sodipodi:namedview>
  <defs
     id="defs4">
    <style
       id="style2">.cls-1{fill:#b9b9b9;}.cls-2{fill:#545454;}.cls-3{fill:#1a81c4;}</style>
    <clipPath
       clipPathUnits="userSpaceOnUse"
       id="clipPath902">
      <rect
         style="fill:#f29100;fill-opacity:1;stroke:none;stroke-width:2;stroke-linecap:round;stroke-linejoin:round;stroke-miterlimit:4;stroke-dasharray:none"
         id="rect904"
         width="21"
         height="21"
         x="-33"
         y="-2"
         ry="3.4854646"
         rx="3.4854646" />
    </clipPath>
  </defs>
  <title
     id="title6">pcbnew</title>
  <g
     id="g952"
     clip-path="url(#clipPath902)"
     transform="translate(33.00181,1.9988756)">
    <rect
       class="cls-1"
       x="1.4020385e-07"
       y="0"
       width="24"
       height="24"
       rx="0"
       id="rect9"
       style="fill:#489648;fill-opacity:1;stroke:none;stroke-width:0.571427;stroke-opacity:1"
       clip-path="none"
       transform="matrix(0.875,0,0,0.875,-33,-2)" />
    <path
       class="cls-2"
       d="m 9.7142857,24 v -1.714286 l 4.0000003,-4 V 12.571429 L 14.285714,12 h 4 l 2.285715,1.714286 H 24 V 4.5714286 H 20.571429 L 18.285714,6.2857143 H 16.571429 L 14.5,4 V 0 C 9.9949374,-0.001605 2.029505,0.001245 -0.0020687,0.001285 0,3.25 0,24 0,24 c 1.5,-0.02777 4.0236148,0 9.7142857,0 z"
       id="path11"
       sodipodi:nodetypes="ccccccccccccccccc"
       style="fill:#006400;fill-opacity:1;stroke-width:0.571427"
       clip-path="none"
       transform="matrix(0.875,0,0,0.875,-33,-2)" />
    <path
       style="fill:none;stroke:#489648;stroke-width:2.28571;stroke-linecap:butt;stroke-linejoin:miter;stroke-miterlimit:4;stroke-dasharray:none;stroke-opacity:1"
       d="M 20.571429,9.1428571 H 14.857143 L 11.428571,5.7142857 v -6.8571428"
       id="path2253"
       sodipodi:nodetypes="cccc"
       clip-path="none"
       transform="matrix(0.875,0,0,0.875,-33,-2)" />
    <path
       style="fill:none;stroke:#489648;stroke-width:3.23249;stroke-linecap:butt;stroke-linejoin:miter;stroke-miterlimit:4;stroke-dasharray:none;stroke-opacity:1"
       d="M 0,14.5 H 2"
       id="path892"
       sodipodi:nodetypes="cc"
       clip-path="none"
       transform="matrix(2.1875,0,0,0.875,-33,-2.0750619)" />
    <path
       style="fill:none;stroke:#489648;stroke-width:2.85714;stroke-linecap:butt;stroke-linejoin:miter;stroke-miterlimit:4;stroke-dasharray:none;stroke-opacity:1"
       d="M 5.2135977,25.142857 V 21.714286 L 9.7850263,17.142857 V 11.428571 L 5.2135977,6.8571429 v -7.42857147"
       id="path2265"
       sodipodi:nodetypes="cccccc"
       clip-path="none"
       transform="matrix(0.875,0,0,0.875,-32.561898,-2)" />
    <rect
       style="fill:#006400;fill-opacity:1;stroke:none;stroke-width:2.65576;stroke-linecap:round;stroke-linejoin:round"
       id="rect878"
       width="6"
       height="5"
       x="17"
       y="14"
       rx="0"
       ry="0.80000001"
       clip-path="none"
       transform="matrix(0.875,0,0,0.875,-33,-1.25)" />
    <rect
       style="fill:#f29100;fill-opacity:1;stroke:none;stroke-width:1.5333;stroke-linecap:round;stroke-linejoin:round"
       id="rect880"
       width="4"
       height="3"
       x="18"
       y="15"
       rx="0"
       ry="1"
       clip-path="none"
       transform="matrix(0.875,0,0,0.875,-33,-1.25)" />
    <rect
       style="fill:#006400;fill-opacity:1;stroke:none;stroke-width:2.65576;stroke-linecap:round;stroke-linejoin:round"
       id="rect882"
       width="6"
       height="5"
       x="17"
       y="20"
       rx="0"
       ry="0.80000001"
       clip-path="none"
       transform="matrix(0.875,0,0,0.875,-33,-1.25)" />
    <rect
       style="fill:#f29100;fill-opacity:1;stroke:none;stroke-width:1.5333;stroke-linecap:round;stroke-linejoin:round"
       id="rect884"
       width="4"
       height="3"
       x="18"
       y="21"
       rx="0"
       ry="0.96360058"
       clip-path="none"
       transform="matrix(0.875,0,0,0.875,-33,-1.25)" />
    <path
       style="fill:none;stroke:#2cb22c;stroke-width:1.14285;stroke-linecap:butt;stroke-linejoin:miter;stroke-miterlimit:4;stroke-dasharray:none;stroke-opacity:1"
       d="M 18,16.5 H 16"
       id="path886"
       sodipodi:nodetypes="cc"
       clip-path="none"
       transform="matrix(0.875,0,0,0.875,-33,-1.25)" />
    <path
       style="fill:none;stroke:#2cb22c;stroke-width:1.14285;stroke-linecap:butt;stroke-linejoin:miter;stroke-miterlimit:4;stroke-dasharray:none;stroke-opacity:1"
       d="M 24,16.5 H 22"
       id="path888"
       sodipodi:nodetypes="cc"
       clip-path="none"
       transform="matrix(0.875,0,0,0.875,-33,-1.25)" />
    <path
       style="fill:none;stroke:#2cb22c;stroke-width:2.28571;stroke-linecap:butt;stroke-linejoin:miter;stroke-miterlimit:4;stroke-dasharray:none;stroke-opacity:1"
       d="m 20,14 v 1"
       id="path890"
       sodipodi:nodetypes="cc"
       clip-path="none"
       transform="matrix(0.875,0,0,0.875,-33,-1.25)" />
    <circle
       style="fill:#ffffff;fill-opacity:1;stroke:#dd8d15;stroke-width:1;stroke-linecap:round;stroke-linejoin:round;stroke-miterlimit:4;stroke-dasharray:none;stroke-opacity:1"
       id="path936"
       cx="-29.115578"
       cy="10.6875"
       r="1.6027977"
       clip-path="none" />
    <circle
       style="fill:#ffffff;fill-opacity:1;stroke:#dd8d15;stroke-width:1;stroke-linecap:round;stroke-linejoin:round;stroke-miterlimit:4;stroke-dasharray:none;stroke-opacity:1"
       id="circle938"
       cx="-14.137123"
       cy="5.9967451"
       r="1.6027977"
       clip-path="none" />
    <path
       class="cls-8"
       d="m -24.001807,14.988082 a 8.0000044,8.0000001 0 1 1 8.000004,8.013043 8.0065254,8.0065214 0 0 1 -8.000004,-8.013043 z"
       id="path858"
       style="fill:#ffffff;fill-opacity:1;stroke-width:0.999998"
       inkscape:connector-curvature="0" />
  </g>
  <g
     id="g866"
     transform="translate(3.9924965,3.9925)"
     style="display:inline">
    <path
       class="cls-8"
       d="M 6.0075059,12.996088 A 7.0000037,7.0000002 0 1 1 13.00751,20.0075 7.0057098,7.0057063 0 0 1 6.0075059,12.996088 Z"
       id="path42"
       style="fill:#bf2641;stroke-width:0.999998" />
    <path
       class="cls-9"
       d="M 15.217506,8.544 H 8.8643058 v 8.6345 h 8.6344992 v -6.4758 z m -1.251,0.898 v 2.26 h -3.5323 v -2.26 z m 1.9624,6.8838 h -5.4947 v -2.68 h 5.4947 z"
       id="path44"
       style="fill:#ffffff" />
  </g>
</svg>
