<svg xmlns="http://www.w3.org/2000/svg" height="48" width="48" version="1.0" xmlns:xlink="http://www.w3.org/1999/xlink">
 <defs>
  <filter id="g" color-interpolation-filters="sRGB">
   <feGaussianBlur stdDeviation="0.89955545"/>
  </filter>
  <radialGradient id="j" gradientUnits="userSpaceOnUse" cy="112.3" cx="102" gradientTransform="matrix(.875 0 0 .85714 10 17.143)" r="139.56">
   <stop stop-color="#00537d" offset="0"/>
   <stop stop-color="#186389" offset=".0151"/>
   <stop stop-color="#558ca8" offset=".0558"/>
   <stop stop-color="#89afc3" offset=".0964"/>
   <stop stop-color="#b3ccd8" offset=".1357"/>
   <stop stop-color="#d4e2e9" offset=".1737"/>
   <stop stop-color="#ecf2f5" offset=".20990"/>
   <stop stop-color="#fafcfd" offset=".24350"/>
   <stop stop-color="#fff" offset=".27220"/>
  </radialGradient>
  <radialGradient id="k" gradientUnits="userSpaceOnUse" cy="109.33" cx="99.081" gradientTransform="matrix(.85638 0 0 .84156 11.191 18.14)" r="139.56">
   <stop stop-color="#7a7d80" offset="0"/>
   <stop stop-color="#c2c2c2" offset=".12618"/>
   <stop stop-color="#fafafa" offset=".23251"/>
   <stop stop-color="#fff" offset=".27220"/>
   <stop stop-color="#fafafa" offset=".53130"/>
   <stop stop-color="#ebecec" offset=".84490"/>
   <stop stop-color="#e1e2e3" offset="1"/>
  </radialGradient>
  <filter id="h" color-interpolation-filters="sRGB">
   <feGaussianBlur stdDeviation="1.2065414"/>
  </filter>
  <linearGradient id="i" y2="94.104" gradientUnits="userSpaceOnUse" x2="86.572" gradientTransform="matrix(.875 0 0 .85714 10 17.143)" y1="104" x1="96">
   <stop stop-color="#888a85" offset="0"/>
   <stop stop-color="#8c8e89" offset=".0072"/>
   <stop stop-color="#abaca9" offset=".0673"/>
   <stop stop-color="#c5c6c4" offset=".1347"/>
   <stop stop-color="#dbdbda" offset=".2115"/>
   <stop stop-color="#ebebeb" offset=".3012"/>
   <stop stop-color="#f7f7f6" offset=".4122"/>
   <stop stop-color="#fdfdfd" offset=".5679"/>
   <stop stop-color="#fff" offset="1"/>
  </linearGradient>
 </defs>
 <g transform="matrix(.37937 0 0 .37022 -57.512 -3.9082)">
  <use xlink:href="#l" transform="translate(-12,-12)" height="128" width="128" y="0" x="0"/>
  <g id="l" transform="translate(143.2,4.4)">
   <path opacity=".6" d="m23 25v96h53.525c0.464 0 30.475-29.398 30.475-29.853v-66.147h-84z" transform="matrix(1.0476,0,0,1.0417,-2.0952,-4.0417)" filter="url(#g)"/>
   <path fill="url(#j)" d="m24 24v96h53.525c0.464 0 30.475-29.398 30.475-29.853v-66.147h-84z"/>
   <path fill="url(#k)" d="m26.606 25.714c-0.47187 0-0.85638 0.37786-0.85638 0.84156v90.888c0 0.46455 0.38452 0.84157 0.85638 0.84157h50.674c0.22523 0 0.44618-0.0892 0.60546-0.24658l28.115-27.618c0.16013-0.15737 0.25092-0.37365 0.25092-0.59498v-63.262c0-0.4637-0.38366-0.84156-0.85639-0.84156h-78.787z"/>
   <path opacity=".5" filter="url(#h)" d="m76.526 120s11.662-9 16.474-13.714c4.812-4.72 14-16.143 14-16.143s-8 5.853-24 5.853c0 16-6.4745 24-6.4745 24z"/>
   <path fill="url(#i)" d="m77.526 120s11.662-9 16.474-13.714c4.812-4.72 14-16.143 14-16.143s-8 5.853-24 5.853c0 16-6.4745 24-6.4745 24z"/>
  </g>
  <g transform="translate(155.2,16.4)">
   <path opacity=".6" d="m23 25v96h53.525c0.464 0 30.475-29.398 30.475-29.853v-66.147h-84z" transform="matrix(1.0476,0,0,1.0417,-2.0952,-4.0417)" filter="url(#g)"/>
   <path fill="url(#j)" d="m24 24v96h53.525c0.464 0 30.475-29.398 30.475-29.853v-66.147h-84z"/>
   <path fill="url(#k)" d="m26.606 25.714c-0.47187 0-0.85638 0.37786-0.85638 0.84156v90.888c0 0.46455 0.38452 0.84157 0.85638 0.84157h50.674c0.22523 0 0.44618-0.0892 0.60546-0.24658l28.115-27.618c0.16013-0.15737 0.25092-0.37365 0.25092-0.59498v-63.262c0-0.4637-0.38366-0.84156-0.85639-0.84156h-78.787z"/>
   <path opacity=".5" filter="url(#h)" d="m76.526 120s11.662-9 16.474-13.714c4.812-4.72 14-16.143 14-16.143s-8 5.853-24 5.853c0 16-6.4745 24-6.4745 24z"/>
   <path fill="url(#i)" d="m77.526 120s11.662-9 16.474-13.714c4.812-4.72 14-16.143 14-16.143s-8 5.853-24 5.853c0 16-6.4745 24-6.4745 24z"/>
  </g>
 </g>
 <rect opacity="0" height="38.351" width="34.878" y="9.7705" x="8.8357"/>
 <g transform="matrix(.29786 0 0 .36049 92.935 9.4553)">
  <g fill="none" transform="matrix(3.4208,0,0,4.6204,-337.91,-53.242)" stroke="#888a85">
   <path style="color:#000000" stroke-linecap="square" d="m23.5 25.504v3.9928"/>
   <path style="color:#000000" stroke-linecap="round" d="m25.5 25.5-2 2"/>
   <path style="color:#000000" stroke-linecap="round" d="m25.5 29.5-2-2"/>
   <path style="color:#000000" stroke-linecap="square" d="m23.337 27.5h-3.845"/>
   <path style="color:#000000" stroke-linecap="round" d="m25.5 29.522v2.6654"/>
   <path style="color:#000000" stroke-linecap="square" d="m26.5 32.472h-1.978"/>
   <path style="color:#000000" stroke-linecap="round" d="m25.507 25.461v-3.985"/>
   <path style="color:#000000" stroke-linecap="square" d="m26.492 21.472h-2v-4h2v4"/>
   <path style="color:#000000" stroke-linecap="square" d="m25.839 24.5h5.5003"/>
   <path style="color:#000000" stroke-linecap="square" d="m25.484 13.472v3.8653"/>
   <path style="color:#000000" stroke-linecap="square" d="m19.484 20.472h2.0397"/>
   <path style="color:#000000" stroke-linecap="square" d="m19.484 18.472h2.0397"/>
   <path style="color:#000000" stroke-linecap="square" d="m33.538 22.494v3.9928"/>
   <path style="color:#000000" stroke-linecap="round" d="m35.538 22.49-2 2"/>
   <path style="color:#000000" stroke-linecap="round" d="m35.538 26.49-2-2"/>
   <path style="color:#000000" stroke-linecap="square" d="m33.545 24.49h-3.845"/>
   <path style="color:#000000" stroke-linecap="round" d="m35.545 26.487v3.0033"/>
   <path style="color:#000000" stroke-linecap="square" d="m35.559 31.796v-2.26"/>
   <path style="color:#000000" stroke-linecap="square" d="m36.492 32.472h-1.978"/>
   <path style="color:#000000" stroke-linecap="round" d="m35.545 22.522v-3.038"/>
   <path style="color:#000000" stroke-linecap="square" d="m42.468 19.472h-6.922"/>
   <path style="color:#000000" stroke-linecap="square" d="m38.452 24.472h2.0397"/>
   <path style="color:#000000" stroke-linecap="square" d="m38.452 22.472h2.0397"/>
   <path stroke-width="1px" d="m42.492 18.504 3.9539-0.02344 1.0461 1.0234-1.0362 0.96875-3.9638-0.03125v-1.9375z"/>
  </g>
 </g>
 <path stroke-linejoin="round" d="m25.961 2.2795c-0.50881 0-0.91843 0.40232-0.91843 0.90206v20.226c0 0.49974 0.40962 0.90206 0.91843 0.90206h19.775c0.50881 0 0.91843-0.40232 0.91843-0.90206v-18.154l-3.0423-2.974h-17.651z" fill-rule="evenodd" stroke-linecap="round" stroke-width="1pt" fill="#7f7f7f"/>
 <path d="m29.647 2.3339v5.6378c0 0.57606 0.51531 1.0398 1.1554 1.0398h7.7628c0.64009-4e-7 1.1554-0.46376 1.1554-1.0398v-5.6378h-10.074z" fill-rule="evenodd" stroke="#333" stroke-width="1.3425" fill="#bfbfbf"/>
 <rect fill-rule="evenodd" rx=".60650" height="3.8493" width="2.8554" stroke="#333" y="3.7319" x="31.209" stroke-width=".80550" fill="#7f7f7f"/>
 <path stroke-linejoin="round" d="m25.961 2.2795c-0.50881 0-0.91843 0.40232-0.91843 0.90206v20.226c0 0.49974 0.40962 0.90206 0.91843 0.90206h19.775c0.50881 0 0.91843-0.40232 0.91843-0.90206v-18.154l-3.0423-2.974h-17.651z" stroke="#333" stroke-linecap="round" stroke-width="1.3425" fill="none"/>
 <rect stroke-linejoin="round" fill-rule="evenodd" fill-opacity=".75" rx=".88217" height="12.181" width="18.097" stroke="#333" stroke-linecap="round" y="10.573" x="26.805" stroke-width=".80550" fill="#d9d9d9"/>
</svg>
