<?xml version="1.0" encoding="UTF-8" standalone="no"?>
<svg
   xmlns:dc="http://purl.org/dc/elements/1.1/"
   xmlns:cc="http://creativecommons.org/ns#"
   xmlns:rdf="http://www.w3.org/1999/02/22-rdf-syntax-ns#"
   xmlns:svg="http://www.w3.org/2000/svg"
   xmlns="http://www.w3.org/2000/svg"
   xmlns:sodipodi="http://sodipodi.sourceforge.net/DTD/sodipodi-0.dtd"
   xmlns:inkscape="http://www.inkscape.org/namespaces/inkscape"
   height="26"
   width="26"
   version="1.0"
   id="svg2"
   inkscape:version="0.48.3.1 r9886"
   sodipodi:docname="save_netlist.svg">
  <metadata
     id="metadata90">
    <rdf:RDF>
      <cc:Work
         rdf:about="">
        <dc:format>image/svg+xml</dc:format>
        <dc:type
           rdf:resource="http://purl.org/dc/dcmitype/StillImage" />
      </cc:Work>
    </rdf:RDF>
  </metadata>
  <sodipodi:namedview
     pagecolor="#ffffff"
     bordercolor="#666666"
     borderopacity="1"
     objecttolerance="10"
     gridtolerance="10"
     guidetolerance="10"
     inkscape:pageopacity="0"
     inkscape:pageshadow="2"
     inkscape:window-width="1600"
     inkscape:window-height="849"
     id="namedview88"
     showgrid="true"
     inkscape:snap-to-guides="false"
     inkscape:snap-grids="false"
     inkscape:zoom="27.812866"
     inkscape:cx="5.6508164"
     inkscape:cy="15.023821"
     inkscape:window-x="0"
     inkscape:window-y="29"
     inkscape:window-maximized="1"
     inkscape:current-layer="text48">
    <inkscape:grid
       type="xygrid"
       id="grid3044"
       empspacing="1"
       visible="true"
       enabled="true"
       snapvisiblegridlinesonly="true" />
  </sodipodi:namedview>
  <defs
     id="defs4">
    <linearGradient
       id="g"
       y2="9.6875"
       gradientUnits="userSpaceOnUse"
       x2="-24.75"
       gradientTransform="matrix(1.179,0,0,1.0766,65.637,-24.9397)"
       y1="11.566"
       x1="-26.754">
      <stop
         stop-color="#fff"
         offset="0"
         id="stop7" />
      <stop
         stop-color="#fff"
         stop-opacity="0"
         offset="1"
         id="stop9" />
    </linearGradient>
    <linearGradient
       id="h"
       y2="14.07"
       gradientUnits="userSpaceOnUse"
       x2="-28.789"
       gradientTransform="matrix(1.0874,0,0,0.9889,62.751,-23.5125)"
       y1="11.053"
       x1="-18.589001">
      <stop
         stop-opacity=".41296"
         offset="0"
         id="stop12" />
      <stop
         stop-opacity="0"
         offset="1"
         id="stop14" />
    </linearGradient>
    <radialGradient
       id="k"
       gradientUnits="userSpaceOnUse"
       cy="10.108"
       cx="-26.305"
       gradientTransform="matrix(0.48024,-0.30125,0.88545,1.1769,35.944,-34.024)"
       r="7.0421">
      <stop
         stop-color="#fff"
         offset="0"
         id="stop17" />
      <stop
         stop-color="#fff"
         offset=".47534"
         id="stop19" />
      <stop
         stop-color="#fff"
         stop-opacity="0"
         offset="1"
         id="stop21" />
    </radialGradient>
    <linearGradient
       id="i"
       y2="67.799004"
       gradientUnits="userSpaceOnUse"
       x2="61.181"
       gradientTransform="matrix(1.179,0,0,1.0766,-40.472,-89.533)"
       y1="70.751999"
       x1="58.282001">
      <stop
         offset="0"
         id="stop24" />
      <stop
         stop-opacity="0"
         offset="1"
         id="stop26" />
    </linearGradient>
    <radialGradient
       id="l"
       gradientUnits="userSpaceOnUse"
       cy="35.356998"
       cx="-30.25"
       gradientTransform="matrix(4.7109,0,0,2.0832,172.48,-58.493)"
       r="18">
      <stop
         stop-color="#f6f6f5"
         offset="0"
         id="stop29" />
      <stop
         stop-color="#d3d7cf"
         offset="1"
         id="stop31" />
    </radialGradient>
    <linearGradient
       id="j"
       y2="-22.502001"
       gradientUnits="userSpaceOnUse"
       x2="-62.75"
       gradientTransform="matrix(1.179,0,0,1.0766,65.637,-24.9397)"
       y1="49.021"
       x1="-47.5">
      <stop
         stop-color="#888a85"
         offset="0"
         id="stop34" />
      <stop
         stop-color="#babdb6"
         offset="1"
         id="stop36" />
    </linearGradient>
    <filter
       id="k-6"
       color-interpolation-filters="sRGB">
      <feGaussianBlur
         stdDeviation="0.37718285"
         id="feGaussianBlur7" />
    </filter>
  </defs>
  <g
     transform="matrix(0.59436783,0,0,0.59002949,-3.5290123,11.194187)"
     id="g76">
    <path
       d="m 25.961,2.2795 c -0.50881,0 -0.91843,0.40232 -0.91843,0.90206 v 20.226 c 0,0.49974 0.40962,0.90206 0.91843,0.90206 h 19.775 c 0.50881,0 0.91843,-0.40232 0.91843,-0.90206 v -18.154 l -3.0423,-2.974 h -17.651 z"
       id="path78"
       inkscape:connector-curvature="0"
       style="fill:#7f7f7f;fill-rule:evenodd;stroke-width:1pt;stroke-linecap:round;stroke-linejoin:round" />
    <path
       d="m 29.647,2.3339 v 5.6378 c 0,0.57606 0.51531,1.0398 1.1554,1.0398 h 7.7628 c 0.64009,-4e-7 1.1554,-0.46376 1.1554,-1.0398 V 2.3339 h -10.074 z"
       id="path80"
       inkscape:connector-curvature="0"
       style="fill:#bfbfbf;fill-rule:evenodd;stroke:#333333;stroke-width:1.34249997" />
    <rect
       rx="0.60650003"
       height="3.8492999"
       width="2.8554001"
       y="3.7319"
       x="31.209"
       id="rect82"
       style="fill:#7f7f7f;fill-rule:evenodd;stroke:#333333;stroke-width:0.80549997" />
    <path
       d="m 25.961,2.2795 c -0.50881,0 -0.91843,0.40232 -0.91843,0.90206 v 20.226 c 0,0.49974 0.40962,0.90206 0.91843,0.90206 h 19.775 c 0.50881,0 0.91843,-0.40232 0.91843,-0.90206 v -18.154 l -3.0423,-2.974 h -17.651 z"
       id="path84"
       inkscape:connector-curvature="0"
       style="fill:none;stroke:#333333;stroke-width:1.34249997;stroke-linecap:round;stroke-linejoin:round" />
    <rect
       rx="0.88217002"
       height="12.181"
       width="18.097"
       y="10.573"
       x="26.805"
       id="rect86"
       style="fill:#d9d9d9;fill-opacity:0.75;fill-rule:evenodd;stroke:#333333;stroke-width:0.80549997;stroke-linecap:round;stroke-linejoin:round" />
  </g>
  <g
     id="g3021"
     transform="matrix(0.8008999,0,0,0.84005662,0.72077463,1.8054585)">
    <g
       transform="matrix(0.58929044,0,0,0.70311084,-3.053113,-2.4505636)"
       style="font-size:47.73400116px;line-height:125%;letter-spacing:0px;word-spacing:0px;opacity:0.21483998;fill:#000000;filter:url(#k-6);font-family:Sans"
       id="text42">
      <path
         d="m 4.4756262,16.901477 4.6149608,0 0,4.961083 -4.6149608,0 0,-4.961083"
         style="font-size:26.25399971px;font-weight:bold;letter-spacing:-0.90693998px;fill:#000000;font-family:Garuda"
         id="path3015"
         inkscape:connector-curvature="0" />
      <path
         d="m 27.528025,13.119773 0,8.742787 -4.614961,0 0,-1.422946 0,-5.268747 c -1.2e-5,-1.239195 -0.02992,-2.093816 -0.08973,-2.563867 -0.05129,-0.470033 -0.145298,-0.816154 -0.282026,-1.038366 -0.179482,-0.299108 -0.423049,-0.529855 -0.730702,-0.692245 -0.307675,-0.170913 -0.658069,-0.256375 -1.051185,-0.256386 -0.957186,1.1e-5 -1.709253,0.371771 -2.256204,1.115282 -0.546965,0.734985 -0.820444,1.756257 -0.820437,3.063821 l 0,7.063454 -4.589322,0 0,-14.3576558 4.589322,0 0,2.1023711 c 0.692237,-0.8375169 1.427211,-1.4528444 2.204926,-1.8459844 0.777696,-0.401658 1.636591,-0.6024941 2.576686,-0.6025088 1.657954,1.47e-5 2.914248,0.5085145 3.768885,1.525501 0.863152,1.0170128 1.294736,2.4955079 1.294753,4.4354899"
         style="font-size:26.25399971px;font-weight:bold;letter-spacing:-0.90693998px;fill:#000000;font-family:Garuda"
         id="path3017"
         inkscape:connector-curvature="0" />
      <path
         d="m 45.23476,14.645274 0,1.307572 -10.729784,0 c 0.111095,1.07683 0.499948,1.884447 1.16656,2.422855 0.666597,0.538415 1.598135,0.807621 2.794615,0.807618 0.965712,3e-6 1.9528,-0.14101 2.961266,-0.423038 1.016987,-0.290568 2.059626,-0.726425 3.127918,-1.307572 l 0,3.538136 c -1.085385,0.41022 -2.170754,0.717883 -3.256111,0.922993 -1.085382,0.213655 -2.170751,0.320483 -3.256111,0.320483 -2.598059,0 -4.619239,-0.658059 -6.063546,-1.974178 -1.435768,-1.324661 -2.15365,-3.17919 -2.153648,-5.563591 -2e-6,-2.341656 0.705061,-4.183366 2.11519,-5.5251342 1.418668,-1.3417431 3.367206,-2.012621 5.845617,-2.0126357 2.256192,1.47e-5 4.059443,0.6794388 5.40976,2.0382744 1.358833,1.3588605 2.038258,3.1749315 2.038274,5.4482175 m -4.717515,-1.525501 c -1.2e-5,-0.871705 -0.256399,-1.572495 -0.769161,-2.102371 -0.504237,-0.538401 -1.166569,-0.807606 -1.986997,-0.807618 -0.888815,1.2e-5 -1.61097,0.252125 -2.166467,0.756341 -0.555511,0.495691 -0.901633,1.213573 -1.038367,2.153648 l 5.960992,0"
         style="font-size:26.25399971px;font-weight:bold;letter-spacing:-0.90693998px;fill:#000000;font-family:Garuda"
         id="path3019"
         inkscape:connector-curvature="0" />
      <path
         d="m 52.801402,3.4283554 0,4.0765488 4.730335,0 0,3.2817498 -4.730335,0 0,6.089185 c -7e-6,0.666609 0.132459,1.119559 0.3974,1.358849 0.264925,0.230752 0.790517,0.346126 1.576778,0.346122 l 2.358758,0 0,3.28175 -3.935536,0 c -1.811806,0 -3.098011,-0.376033 -3.858621,-1.128101 -0.75207,-0.760612 -1.128104,-2.046818 -1.128101,-3.85862 l 0,-6.089185 -2.281842,0 0,-3.2817498 2.281842,0 0,-4.0765488 4.589322,0"
         style="font-size:26.25399971px;font-weight:bold;letter-spacing:-0.90693998px;fill:#000000;font-family:Garuda"
         id="path3021"
         inkscape:connector-curvature="0" />
    </g>
    <g
       transform="scale(0.94088398,1.0628303)"
       style="font-size:27.15685272px;line-height:125%;letter-spacing:0px;word-spacing:0px;fill:#505050;font-family:Sans"
       id="text48">
      <path
         d="m -0.74393116,6.9592557 2.89042266,0 0,3.2819833 -2.89042266,0 0,-3.2819833"
         style="font-size:14.93643856px;font-weight:bold;letter-spacing:-0.51597679px;fill:#505050;font-family:Garuda"
         id="path3024"
         inkscape:connector-curvature="0" />
      <path
         d="m 13.694149,4.4574856 0,5.7837534 -2.890423,0 0,-0.9413443 0,-3.4855168 c -7e-6,-0.8197839 -0.01875,-1.3851551 -0.0562,-1.6961154 -0.03213,-0.310948 -0.091,-0.5399233 -0.17664,-0.6869266 C 10.458473,3.2334627 10.305924,3.0808125 10.113237,2.9733847 9.9205348,2.8603177 9.7010769,2.8037806 9.4548617,2.8037732 8.8553615,2.8037806 8.3843301,3.049717 8.0417666,3.5415834 7.6991935,4.0278093 7.5279094,4.7034279 7.5279137,5.5684412 l 0,4.6727978 -2.8743648,0 0,-9.49824591 2.8743648,0 0,1.39081451 C 7.9614723,1.579752 8.4217985,1.1726847 8.9088935,0.91260462 9.3959774,0.64688949 9.933916,0.51402725 10.522712,0.51401752 c 1.038403,9.73e-6 1.82524,0.33640559 2.360512,1.00918858 0.540607,0.6728005 0.810915,1.6508926 0.810925,2.9342795"
         style="font-size:14.93643856px;font-weight:bold;letter-spacing:-0.51597679px;fill:#505050;font-family:Garuda"
         id="path3026"
         inkscape:connector-curvature="0" />
      <path
         d="m 24.784157,5.4666742 0,0.8650188 -6.720233,0 c 0.06958,0.7123716 0.313125,1.2466474 0.730634,1.602829 0.417501,0.3561862 1.000937,0.534278 1.750312,0.5342763 0.60484,1.7e-6 1.22307,0.1886061 1.854687,0.00203 0.636955,-0.1922242 1.194549,-0.2792134 1.863637,-0.6636688 l 0.09543,1.857399 c -0.679793,0.2713787 -1.359577,0.4749124 -2.039352,0.6106014 -0.679793,0.141343 -1.359576,0.212014 -2.039355,0.212015 -1.627205,-10e-7 -2.893102,-0.435337 -3.797693,-1.3060093 -0.899244,-0.8763242 -1.348866,-2.1031798 -1.348864,-3.6805702 -2e-6,-1.5491124 0.44159,-2.7674873 1.324776,-3.6551284 0.888535,-0.88762445 2.108934,-1.33144085 3.661202,-1.33145058 1.413088,9.73e-6 2.542494,0.44947983 3.388218,1.34841168 0.851059,0.8989486 1.276593,2.1003623 1.276604,3.604245 M 21.829502,4.4574856 C 21.829495,3.8808127 21.668916,3.4172083 21.347764,3.066671 21.031952,2.7104944 20.617124,2.5324024 20.103277,2.5323947 19.546599,2.5324024 19.094302,2.699187 18.746384,3.0327488 18.39846,3.3606713 17.943111,4.0772031 17.857472,4.6991057 l 4.11517,-0.04027"
         style="font-size:14.93643856px;font-weight:bold;letter-spacing:-0.51597679px;fill:#505050;font-family:Garuda"
         id="path3028"
         inkscape:connector-curvature="0"
         sodipodi:nodetypes="ccccsccccscscccccccccc" />
      <path
         d="m 29.523263,-1.9538303 0,2.69682339 2.962682,0 0,2.17102751 -2.962682,0 0,4.0282739 c -4e-6,0.4409929 0.08297,0.7406396 0.248897,0.8989411 0.165927,0.1526526 0.495113,0.2289778 0.987561,0.2289756 l 1.477328,0 0,2.1710278 -2.464889,0 c -1.134762,0 -1.940333,-0.2487635 -2.416714,-0.7462909 -0.471035,-0.5031796 -0.70655,-1.3540633 -0.706549,-2.5526536 l 0,-4.0282739 -1.429152,0 0,-2.17102751 1.429152,0 0,-2.69682339 2.874366,0"
         style="font-size:14.93643856px;font-weight:bold;letter-spacing:-0.51597679px;fill:#505050;font-family:Garuda"
         id="path3030"
         inkscape:connector-curvature="0" />
    </g>
  </g>
</svg>
