<?xml version="1.0" encoding="UTF-8" standalone="no"?>
<svg
   xmlns:dc="http://purl.org/dc/elements/1.1/"
   xmlns:cc="http://creativecommons.org/ns#"
   xmlns:rdf="http://www.w3.org/1999/02/22-rdf-syntax-ns#"
   xmlns:svg="http://www.w3.org/2000/svg"
   xmlns="http://www.w3.org/2000/svg"
   xmlns:sodipodi="http://sodipodi.sourceforge.net/DTD/sodipodi-0.dtd"
   xmlns:inkscape="http://www.inkscape.org/namespaces/inkscape"
   height="48"
   width="48"
   version="1.0"
   id="svg2"
   inkscape:version="0.91 r13725"
   sodipodi:docname="save_setup.svg">
  <metadata
     id="metadata65">
    <rdf:RDF>
      <cc:Work
         rdf:about="">
        <dc:format>image/svg+xml</dc:format>
        <dc:type
           rdf:resource="http://purl.org/dc/dcmitype/StillImage" />
      </cc:Work>
    </rdf:RDF>
  </metadata>
  <sodipodi:namedview
     pagecolor="#ffffff"
     bordercolor="#666666"
     borderopacity="1"
     objecttolerance="10"
     gridtolerance="10"
     guidetolerance="10"
     inkscape:pageopacity="0"
     inkscape:pageshadow="2"
     inkscape:window-width="1617"
     inkscape:window-height="816"
     id="namedview63"
     showgrid="false"
     inkscape:zoom="4.9166667"
     inkscape:cx="24"
     inkscape:cy="23.79661"
     inkscape:window-x="0"
     inkscape:window-y="0"
     inkscape:window-maximized="0"
     inkscape:current-layer="svg2" />
  <defs
     id="defs4">
    <radialGradient
       id="f"
       gradientUnits="userSpaceOnUse"
       cy="39.161"
       cx="25.456"
       gradientTransform="matrix(1 0 0 .31532 0 26.813)"
       r="19.622">
      <stop
         offset="0"
         id="stop7" />
      <stop
         stop-opacity="0"
         offset="1"
         id="stop9" />
    </radialGradient>
    <linearGradient
       id="e"
       y2="39.685"
       gradientUnits="userSpaceOnUse"
       x2="34.534"
       gradientTransform="matrix(1.2419,0,0,1.2419,63.716,-13.703)"
       y1="12.285"
       x1="14.463">
      <stop
         stop-color="#c9c9c9"
         offset="0"
         id="stop12" />
      <stop
         stop-color="#f8f8f8"
         offset=".25"
         id="stop14" />
      <stop
         stop-color="#e2e2e2"
         offset=".5"
         id="stop16" />
      <stop
         stop-color="#b0b0b0"
         offset=".75"
         id="stop18" />
      <stop
         stop-color="#c9c9c9"
         offset="1"
         id="stop20" />
    </linearGradient>
    <linearGradient
       id="d"
       y2="39.685"
       gradientUnits="userSpaceOnUse"
       x2="34.534"
       gradientTransform="matrix(.92673 0 0 .84499 4.7271 52.187)"
       y1="12.285"
       x1="14.463">
      <stop
         stop-color="#c9c9c9"
         offset="0"
         id="stop23" />
      <stop
         stop-color="#f8f8f8"
         offset=".25"
         id="stop25" />
      <stop
         stop-color="#e2e2e2"
         offset=".5"
         id="stop27" />
      <stop
         stop-color="#b0b0b0"
         offset=".75"
         id="stop29" />
      <stop
         stop-color="#c9c9c9"
         offset="1"
         id="stop31" />
    </linearGradient>
  </defs>
  <g
     transform="matrix(1.2899,0,0,1.3788,-11.016,-76.672)"
     stroke="#000"
     id="g33">
    <path
       style="color:#000000"
       stroke-width="1.3021"
       fill="url(#d)"
       d="m25.828 57.411c-0.34731 0.02167-0.68489 0.07071-1.026 0.10631h-0.02332l-0.81616 4.061c-1.3303 0.27623-2.5818 0.74502-3.7077 1.382l-3.661-2.402c-0.98968 0.70058-1.8903 1.5177-2.6817 2.4026l2.5417 3.3807c-0.77174 1.0754-1.3521 2.3033-1.679 3.5933-0.000052 0.0061-0.000045 0.0202 0 0.02126l-4.4306 0.63786c-0.081 0.60325-0.11659 1.2267-0.11659 1.8498 0 0.50981 0.0154 1.0128 0.0699 1.5096l4.4306 0.72291c0.31511 1.4029 0.91369 2.713 1.7489 3.8697l-2.635 3.2956c0.75466 0.85424 1.6259 1.632 2.5651 2.3176l3.731-2.3388c1.3039 0.75844 2.7595 1.2903 4.3373 1.5521l0.69956 4.0185c0.49711 0.04126 1.0069 0.04252 1.5157 0.04252 0.71836-0.000001 1.4045-0.02482 2.0987-0.10631l0.83948-4.1036c1.499-0.341 2.906-0.931 4.128-1.723l3.5911 2.3813c0.93128-0.72243 1.7829-1.5528 2.5184-2.4451l-2.6117-3.4444c0.70729-1.1138 1.1974-2.3427 1.4458-3.6571l4.4073-0.63786c0.03865-0.41935 0.04663-0.82605 0.04663-1.2545 0-0.74449-0.09491-1.4745-0.20987-2.19l-4.476-0.745c-0.351-1.181-0.927-2.283-1.656-3.274l2.635-3.2956c-0.817-0.911-1.749-1.752-2.775-2.466l-3.801 2.381c-1.092-0.589-2.268-1.041-3.544-1.297l-0.7-4.04c-0.63673-0.06829-1.2787-0.10631-1.9355-0.10631-0.1775 0-0.36018-0.0051-0.53633 0-0.08587 0.0024-0.17086-0.0046-0.25651 0-0.0232 0.0012-0.0468-0.0014-0.06996 0zm0.60629 10.333c0.08519-0.0039 0.17025 0 0.25651 0 2.7603 0 5.0135 2.0545 5.0135 4.5713 0.000001 2.5168-2.2532 4.5501-5.0135 4.5501-2.7603 0.000001-4.9902-2.0332-4.9902-4.5501 0-2.4382 2.0928-4.4491 4.7337-4.5713z"
       id="path35" />
    <path
       opacity=".34659"
       style="color:#000000"
       d="m25.311 58.215-0.6553 3.932c-1.2469 0.25892-3.5405 1.0508-4.5959 1.6479l-3.4863-2.3726c-0.92766 0.65668-0.99127 0.70121-1.7331 1.5307l2.5207 3.4087c-0.72338 1.008-1.5922 2.8042-1.9042 4.0878 0 0-4.4171 0.67892-4.4171 0.67892-0.07593 0.56544-0.03948 1.7757 0.01164 2.2413l4.2192 0.69303c0.29536 1.315 1.4006 3.4316 2.1835 4.5157l-2.6681 3.2142c0.70736 0.8007 0.84892 0.87397 1.7292 1.5166l3.5677-2.3833c1.2222 0.7109 3.6482 1.5757 5.1271 1.8211l0.58553 3.8824c0.46595 0.03867 1.7532 0.14715 2.4038 0.07077l0.65531-4.0416c1.4042-0.31862 3.8304-1.2267 4.9759-1.9697l3.5639 2.3479c0.87292-0.67715 0.88074-0.77919 1.5702-1.6156l-2.641-3.4228c0.66296-1.044 1.5202-3.0857 1.753-4.3177l4.324-0.65416c0.03623-0.39307 0.03799-1.4892-0.06977-2.1599l-4.4054-0.69303c-0.32887-1.1073-1.4575-3.1025-2.1409-4.0314l2.8-3.2142c-0.76558-0.85369-1.0502-0.97082-2.0124-1.6403l-3.688 2.408c-1.024-0.553-3.066-1.394-4.262-1.634l-0.65149-3.8471c-0.59683-0.06401-2.3187-0.03559-2.6598 0z"
       stroke-width="1.4003"
       fill="none"
       id="path37" />
    <path
       opacity=".64773"
       style="color:#000000"
       d="m32.454 72.306a5.7605 5.2524 0 0 1 -11.521 0 5.7605 5.2524 0 1 1 11.521 0z"
       stroke-width=".71253"
       fill="none"
       id="path39" />
  </g>
  <g
     transform="matrix(1.2353,0,0,1.1732,-11.284,18.227)"
     id="g51">
    <path
       stroke-linejoin="round"
       d="m25.961 2.2795c-0.50881 0-0.91843 0.40232-0.91843 0.90206v20.226c0 0.49974 0.40962 0.90206 0.91843 0.90206h19.775c0.50881 0 0.91843-0.40232 0.91843-0.90206v-18.154l-3.0423-2.974h-17.651z"
       fill-rule="evenodd"
       stroke-linecap="round"
       stroke-width="1pt"
       fill="#7f7f7f"
       id="path53" />
    <path
       d="m29.647 2.3339v5.6378c0 0.57606 0.51531 1.0398 1.1554 1.0398h7.7628c0.64009-4e-7 1.1554-0.46376 1.1554-1.0398v-5.6378h-10.074z"
       fill-rule="evenodd"
       stroke="#333"
       stroke-width="1.3425"
       fill="#bfbfbf"
       id="path55" />
    <rect
       fill-rule="evenodd"
       rx=".60650"
       height="3.8493"
       width="2.8554"
       stroke="#333"
       y="3.7319"
       x="31.209"
       stroke-width=".80550"
       fill="#7f7f7f"
       id="rect57" />
    <path
       stroke-linejoin="round"
       d="m25.961 2.2795c-0.50881 0-0.91843 0.40232-0.91843 0.90206v20.226c0 0.49974 0.40962 0.90206 0.91843 0.90206h19.775c0.50881 0 0.91843-0.40232 0.91843-0.90206v-18.154l-3.0423-2.974h-17.651z"
       stroke="#333"
       stroke-linecap="round"
       stroke-width="1.3425"
       fill="none"
       id="path59" />
    <rect
       stroke-linejoin="round"
       fill-rule="evenodd"
       fill-opacity=".75"
       rx=".88217"
       height="12.181"
       width="18.097"
       stroke="#333"
       stroke-linecap="round"
       y="10.573"
       x="26.805"
       stroke-width=".80550"
       fill="#d9d9d9"
       id="rect61" />
  </g>
</svg>
