<svg id="Слой_1" data-name="Слой 1"
  xmlns:dc="http://purl.org/dc/elements/1.1/"
  xmlns:cc="http://creativecommons.org/ns#"
  xmlns:rdf="http://www.w3.org/1999/02/22-rdf-syntax-ns#"
  xmlns="http://www.w3.org/2000/svg"
  xmlns:sodipodi="http://sodipodi.sourceforge.net/DTD/sodipodi-0.dtd"
  xmlns:inkscape="http://www.inkscape.org/namespaces/inkscape" viewBox="0 0 26 26">
  <sodipodi:namedview pagecolor="#ffffff" bordercolor="#666666" borderopacity="1" objecttolerance="10" gridtolerance="10" guidetolerance="10" inkscape:pageopacity="0" inkscape:pageshadow="2" inkscape:window-width="1609" inkscape:window-height="1286" id="namedview30" showgrid="true" inkscape:zoom="27.961538" inkscape:cx="13" inkscape:cy="13" inkscape:window-x="0" inkscape:window-y="37" inkscape:window-maximized="0">
    <inkscape:grid type="xygrid" id="grid_kicad" spacingx="0.5" spacingy="0.5" color="#9999ff" opacity="0.13" empspacing="2" />
  </sodipodi:namedview>
  <metadata id="metadata43">
    <rdf:RDF>
      <cc:Work rdf:about="">
        <cc:license rdf:resource="http://creativecommons.org/licenses/by-sa/4.0/" />
        <dc:format>image/svg+xml</dc:format>
        <dc:type rdf:resource="http://purl.org/dc/dcmitype/StillImage" />
        <dc:title>add_arc</dc:title>
      </cc:Work>
      <cc:License rdf:about="http://creativecommons.org/licenses/by-sa/4.0/">
        <cc:permits rdf:resource="http://creativecommons.org/ns#Reproduction" />
        <cc:permits rdf:resource="http://creativecommons.org/ns#Distribution" />
        <cc:requires rdf:resource="http://creativecommons.org/ns#Notice" />
        <cc:requires rdf:resource="http://creativecommons.org/ns#Attribution" />
        <cc:permits rdf:resource="http://creativecommons.org/ns#DerivativeWorks" />
        <cc:requires rdf:resource="http://creativecommons.org/ns#ShareAlike" />
      </cc:License>
    </rdf:RDF>
  </metadata>
  <defs>
    <style>.cls-1,.cls-2,.cls-4{fill:none;stroke-linejoin:round;}.cls-1,.cls-2{stroke:#b9b9b9;stroke-linecap:round;}.cls-2{stroke-dasharray:5 5;}.cls-3{fill:#545454;}.cls-4{stroke:#545454;}.cls-5{fill:#1a81c4;}.cls-6{fill:#f29100;}.cls-7{fill:#b9b9b9;}</style>
  </defs>
  <title>select_same_sheet</title>
  <polyline class="cls-1" points="23.5 20.5 23.5 23.5 20.5 23.5"/>
  <line class="cls-2" x1="15.5" y1="23.5" x2="8" y2="23.5"/>
  <polyline class="cls-1" points="5.5 23.5 2.5 23.5 2.5 20.5"/>
  <line class="cls-2" x1="2.5" y1="15.5" x2="2.5" y2="8"/>
  <polyline class="cls-1" points="2.5 5.5 2.5 2.5 5.5 2.5"/>
  <line class="cls-2" x1="10.5" y1="2.5" x2="18" y2="2.5"/>
  <polyline class="cls-1" points="20.5 2.5 23.5 2.5 23.5 5.5"/>
  <line class="cls-2" x1="23.5" y1="10.5" x2="23.5" y2="18"/>
  <rect class="cls-3" x="1.0019" y="21.5708" width="3.4283" height="3.4283"/>
  <rect class="cls-3" x="1.0005" y="1.0009" width="3.4284" height="3.4283"/>
  <rect class="cls-3" x="21.5711" y="21.5708" width="3.4284" height="3.4283"/>
  <rect class="cls-3" x="21.5698" y="1.0009" width="3.4283" height="3.4283"/>
  <line class="cls-4" x1="13" y1="19.0334" x2="13" y2="21.138"/>
  <rect class="cls-5" x="16.1531" y="14.9666" width="4.3915" height="6.1233"/>
  <path class="cls-6" d="M14.97,17.5382a1.9716,1.9716,0,1,1-1.8992-2.0412A1.9716,1.9716,0,0,1,14.97,17.5382Z"/>
  <path class="cls-7" d="M13.8757,17.4988a.8763.8763,0,1,1-.8441-.9072A.8761.8761,0,0,1,13.8757,17.4988Z"/>
  <rect class="cls-5" x="16.1531" y="4.4826" width="4.3915" height="6.1234"/>
  <line class="cls-4" x1="7.4679" y1="10.5179" x2="7.4679" y2="15.0229"/>
  <rect class="cls-5" x="5.3783" y="14.9666" width="4.3915" height="6.1233"/>
  <rect class="cls-5" x="5.346" y="4.4826" width="4.3915" height="6.1234"/>
  <polyline class="cls-4" points="9.685 7.35 12.36 7.35 14.067 9.057 14.067 11.594 15.413 12.941 18.308 12.941 18.308 14.988"/>
</svg>