<?xml version="1.0" encoding="UTF-8" standalone="no"?>
<!-- Created with Inkscape (http://www.inkscape.org/) -->

<svg
   xmlns:dc="http://purl.org/dc/elements/1.1/"
   xmlns:cc="http://creativecommons.org/ns#"
   xmlns:rdf="http://www.w3.org/1999/02/22-rdf-syntax-ns#"
   xmlns:svg="http://www.w3.org/2000/svg"
   xmlns="http://www.w3.org/2000/svg"
   xmlns:xlink="http://www.w3.org/1999/xlink"
   xmlns:sodipodi="http://sodipodi.sourceforge.net/DTD/sodipodi-0.dtd"
   xmlns:inkscape="http://www.inkscape.org/namespaces/inkscape"
   width="26"
   height="26"
   id="svg2"
   version="1.1"
   inkscape:version="0.48.4 r9939"
   sodipodi:docname="setcolor_3d_bg.svg">
  <defs
     id="defs4">
    <linearGradient
       id="linearGradient3757">
      <stop
         style="stop-color:#c8c8c8;stop-opacity:1;"
         offset="0"
         id="stop3759" />
      <stop
         style="stop-color:#e6e6e6;stop-opacity:1;"
         offset="1"
         id="stop3761" />
    </linearGradient>
    <linearGradient
       inkscape:collect="always"
       xlink:href="#linearGradient3757"
       id="linearGradient3763"
       x1="13"
       y1="-7"
       x2="13"
       y2="-9.5"
       gradientUnits="userSpaceOnUse" />
    <filter
       inkscape:collect="always"
       id="filter3765">
      <feGaussianBlur
         inkscape:collect="always"
         stdDeviation="0.37500086"
         id="feGaussianBlur3767" />
    </filter>
  </defs>
  <sodipodi:namedview
     id="base"
     pagecolor="#ffffff"
     bordercolor="#666666"
     borderopacity="1.0"
     inkscape:pageopacity="0.0"
     inkscape:pageshadow="2"
     inkscape:zoom="10.865385"
     inkscape:cx="20.014667"
     inkscape:cy="11.091919"
     inkscape:document-units="px"
     inkscape:current-layer="layer1"
     showgrid="true"
     inkscape:window-width="1366"
     inkscape:window-height="744"
     inkscape:window-x="0"
     inkscape:window-y="24"
     inkscape:window-maximized="1">
    <inkscape:grid
       type="xygrid"
       id="grid2985"
       empspacing="2"
       visible="true"
       enabled="true"
       snapvisiblegridlinesonly="true"
       spacingx="0.5px"
       spacingy="0.5px" />
  </sodipodi:namedview>
  <metadata
     id="metadata7">
    <rdf:RDF>
      <cc:Work
         rdf:about="">
        <dc:format>image/svg+xml</dc:format>
        <dc:type
           rdf:resource="http://purl.org/dc/dcmitype/StillImage" />
        <dc:title></dc:title>
      </cc:Work>
    </rdf:RDF>
  </metadata>
  <g
     inkscape:label="Layer 1"
     inkscape:groupmode="layer"
     id="layer1"
     transform="translate(0,-1026.3622)">
    <rect
       ry="1.53"
       rx="1.53"
       y="1026.8622"
       x="0.5"
       height="25.000116"
       width="24.999998"
       id="rect3777"
       style="opacity:0.59999999999999998;fill:#000000;fill-opacity:1;stroke:none;filter:url(#filter3765)" />
    <rect
       style="fill:url(#linearGradient3763);fill-opacity:1;stroke:none"
       id="rect3755"
       width="24"
       height="24"
       x="1"
       y="-9"
       rx="1.5"
       ry="1.5"
       transform="translate(0,1036.3622)" />
    <rect
       style="fill:#fafafa;fill-opacity:1;stroke:none"
       id="rect3765"
       width="22"
       height="20.000008"
       x="2"
       y="-6"
       transform="translate(0,1036.3622)"
       rx="1"
       ry="1" />
    <path
       sodipodi:type="arc"
       style="fill:#191919;fill-opacity:1;stroke:none"
       id="path3771"
       sodipodi:cx="9.5"
       sodipodi:cy="1.5"
       sodipodi:rx="0.5"
       sodipodi:ry="0.5"
       d="M 10,1.5 C 10,1.7761424 9.7761424,2 9.5,2 9.2238576,2 9,1.7761424 9,1.5 9,1.2238576 9.2238576,1 9.5,1 9.7761424,1 10,1.2238576 10,1.5 z"
       transform="matrix(1.5,0,0,1.5,4.25,1026.6122)" />
    <path
       transform="matrix(1.5,0,0,1.5,6.25,1026.6122)"
       d="M 10,1.5 C 10,1.7761424 9.7761424,2 9.5,2 9.2238576,2 9,1.7761424 9,1.5 9,1.2238576 9.2238576,1 9.5,1 9.7761424,1 10,1.2238576 10,1.5 z"
       sodipodi:ry="0.5"
       sodipodi:rx="0.5"
       sodipodi:cy="1.5"
       sodipodi:cx="9.5"
       id="path3765"
       style="fill:#191919;fill-opacity:1;stroke:none"
       sodipodi:type="arc" />
    <path
       sodipodi:type="arc"
       style="fill:#191919;fill-opacity:1;stroke:none"
       id="path3767"
       sodipodi:cx="9.5"
       sodipodi:cy="1.5"
       sodipodi:rx="0.5"
       sodipodi:ry="0.5"
       d="M 10,1.5 C 10,1.7761424 9.7761424,2 9.5,2 9.2238576,2 9,1.7761424 9,1.5 9,1.2238576 9.2238576,1 9.5,1 9.7761424,1 10,1.2238576 10,1.5 z"
       transform="matrix(1.5,0,0,1.5,8.25,1026.6122)" />
    <path
       sodipodi:type="arc"
       style="fill:#ff0000;fill-opacity:1;stroke:none"
       id="path3772"
       sodipodi:cx="29"
       sodipodi:cy="14.5"
       sodipodi:rx="7.5"
       sodipodi:ry="7.5"
       d="M 25.25,20.995191 A 7.5,7.5 0 0 1 21.5,14.5 l 7.5,0 z"
       transform="translate(-11,1029.8622)"
       sodipodi:start="2.0943951"
       sodipodi:end="3.1415927" />
    <path
       sodipodi:end="4.1887902"
       sodipodi:start="3.1415927"
       transform="translate(-11,1029.8622)"
       d="M 21.5,14.5 A 7.5,7.5 0 0 1 25.25,8.0048095 L 29,14.5 z"
       sodipodi:ry="7.5"
       sodipodi:rx="7.5"
       sodipodi:cy="14.5"
       sodipodi:cx="29"
       id="path3776"
       style="fill:#ff6600;fill-opacity:1;stroke:none"
       sodipodi:type="arc" />
    <path
       sodipodi:type="arc"
       style="fill:#ffff00;fill-opacity:1;stroke:none"
       id="path3778"
       sodipodi:cx="29"
       sodipodi:cy="14.5"
       sodipodi:rx="7.5"
       sodipodi:ry="7.5"
       d="m 25.25,8.0048095 a 7.5,7.5 0 0 1 7.5,10e-8 L 29,14.5 z"
       transform="translate(-11,1029.8622)"
       sodipodi:start="4.1887902"
       sodipodi:end="5.2359878" />
    <path
       sodipodi:end="6.2831853"
       sodipodi:start="5.2359878"
       transform="translate(-11,1029.8622)"
       d="M 32.75,8.0048096 A 7.5,7.5 0 0 1 36.5,14.5 l -7.5,0 z"
       sodipodi:ry="7.5"
       sodipodi:rx="7.5"
       sodipodi:cy="14.5"
       sodipodi:cx="29"
       id="path3780"
       style="fill:#00aa00;fill-opacity:1;stroke:none"
       sodipodi:type="arc" />
    <path
       sodipodi:type="arc"
       style="fill:#0066ff;fill-opacity:1;stroke:none"
       id="path3782"
       sodipodi:cx="29"
       sodipodi:cy="14.5"
       sodipodi:rx="7.5"
       sodipodi:ry="7.5"
       d="m 36.5,14.5 a 7.5,7.5 0 0 1 -3.75,6.495191 L 29,14.5 z"
       transform="translate(-11,1029.8622)"
       sodipodi:start="0"
       sodipodi:end="1.0471976" />
    <path
       sodipodi:end="2.0943951"
       sodipodi:start="1.0471976"
       transform="translate(-11,1029.8622)"
       d="m 32.75,20.995191 a 7.5,7.5 0 0 1 -7.5,0 L 29,14.5 z"
       sodipodi:ry="7.5"
       sodipodi:rx="7.5"
       sodipodi:cy="14.5"
       sodipodi:cx="29"
       id="path3784"
       style="fill:#5500d4;fill-opacity:1;stroke:none"
       sodipodi:type="arc" />
    <path
       sodipodi:type="arc"
       style="fill:none;stroke:#808080;stroke-opacity:1"
       id="path3786"
       sodipodi:cx="33.5"
       sodipodi:cy="18.5"
       sodipodi:rx="7.5"
       sodipodi:ry="7.5"
       d="m 41,18.5 a 7.5,7.5 0 1 1 -15,0 7.5,7.5 0 1 1 15,0 z"
       transform="translate(-15.5,1025.8622)" />
  </g>
</svg>
