<?xml version="1.0" encoding="UTF-8" standalone="no"?>
<svg
   xmlns:dc="http://purl.org/dc/elements/1.1/"
   xmlns:cc="http://creativecommons.org/ns#"
   xmlns:rdf="http://www.w3.org/1999/02/22-rdf-syntax-ns#"
   xmlns:svg="http://www.w3.org/2000/svg"
   xmlns="http://www.w3.org/2000/svg"
   xmlns:sodipodi="http://sodipodi.sourceforge.net/DTD/sodipodi-0.dtd"
   xmlns:inkscape="http://www.inkscape.org/namespaces/inkscape"
   height="26"
   width="26"
   version="1.0"
   id="svg2"
   inkscape:version="0.48.4 r9939"
   sodipodi:docname="setcolor_silkscreen.svg">
  <metadata
     id="metadata22">
    <rdf:RDF>
      <cc:Work
         rdf:about="">
        <dc:format>image/svg+xml</dc:format>
        <dc:type
           rdf:resource="http://purl.org/dc/dcmitype/StillImage" />
        <dc:title />
      </cc:Work>
    </rdf:RDF>
  </metadata>
  <defs
     id="defs20" />
  <sodipodi:namedview
     pagecolor="#ffffff"
     bordercolor="#666666"
     borderopacity="1"
     objecttolerance="10"
     gridtolerance="10"
     guidetolerance="10"
     inkscape:pageopacity="0"
     inkscape:pageshadow="2"
     inkscape:window-width="1239"
     inkscape:window-height="903"
     id="namedview18"
     showgrid="false"
     inkscape:zoom="26.226914"
     inkscape:cx="12.94142"
     inkscape:cy="12.987078"
     inkscape:window-x="459"
     inkscape:window-y="84"
     inkscape:window-maximized="0"
     inkscape:current-layer="svg2" />
  <g
     transform="matrix(0.56248954,0,0,0.64306902,-19.93221,-138.84759)"
     id="g4">
    <path
       d="m 56.449,216.89 c -5.0416,0 -19.508,0.83386 -19.483,12.086 10e-4,0.63241 1.3029,2.8338 2.3897,3.0676 8.0459,1.7306 8.4825,7.6906 7.9988,12.393 -0.03696,0.35608 0.62582,2.8379 1.1948,3.4664 4.6144,5.0965 6.1842,7.3315 12.413,7.3315 12.458,0 19.449,-5.8231 19.449,-17.485 0,-11.6619 -11.505,-20.86 -23.963,-20.86 z m -12.612,8.0371 c 1.0477,0.0569 2.2727,0.45585 3.4186,1.1657 2.2917,1.4196 3.426,3.6008 2.5225,4.8468 -0.90355,1.2459 -3.5166,1.0822 -5.8083,-0.33745 -2.2917,-1.4197 -3.3928,-3.5702 -2.4893,-4.8161 0.45177,-0.62298 1.3088,-0.9159 2.3565,-0.85893 z"
       id="path6"
       inkscape:connector-curvature="0"
       style="opacity:0.45702999;fill:#f4f4c4;stroke:#000000;stroke-width:2.11290002" />
    <path
       d="m 420.94,149.64 a 3.6875,3.8438 0 1 1 -7.375,0 3.6875,3.8438 0 1 1 7.375,0 z"
       transform="matrix(1.1677,0,0,1.0691,-430.73,63.662)"
       id="path8"
       inkscape:connector-curvature="0"
       style="fill:#ff7a00" />
    <path
       d="m 420.94,149.64 a 3.6875,3.8438 0 1 1 -7.375,0 3.6875,3.8438 0 1 1 7.375,0 z"
       transform="matrix(1.1429,0,0,1.1048,-409.89,62.629)"
       id="path10"
       inkscape:connector-curvature="0"
       style="fill:#95d300" />
    <path
       d="m 420.94,149.64 a 3.6875,3.8438 0 1 1 -7.375,0 3.6875,3.8438 0 1 1 7.375,0 z"
       transform="matrix(1.1801,0,0,1.0691,-420.09,77.78)"
       id="path12"
       inkscape:connector-curvature="0"
       style="fill:#00a6e4" />
    <path
       d="m 420.94,149.64 a 3.6875,3.8438 0 1 1 -7.375,0 3.6875,3.8438 0 1 1 7.375,0 z"
       transform="matrix(1.1925,0,0,1.1048,-431.5,81.53)"
       id="path14"
       inkscape:connector-curvature="0"
       style="fill:#f9de00" />
    <path
       d="m 420.94,149.64 a 3.6875,3.8438 0 1 1 -7.375,0 3.6875,3.8438 0 1 1 7.375,0 z"
       transform="matrix(1.1553,0,0,1.1167,-427.31,76.5)"
       id="path16"
       inkscape:connector-curvature="0"
       style="fill:#e600ad" />
  </g>
  <g
     transform="matrix(1.0338519,0,0,0.78612486,-4.1187775,7.6531067)"
     style="font-size:39.34732819px;font-style:normal;font-weight:normal;line-height:125%;letter-spacing:0px;word-spacing:0px;fill:#000000;fill-opacity:1;stroke:none;font-family:Sans"
     id="text3415">
    <path
       d="m 11.312355,5.591232 -1.4755244,0 C 8.2588349,5.591249 7.4237303,5.6333178 6.8857814,6.0995258 6.401623,6.5119715 5.7330264,7.1706083 5.4102568,8.6409948 l -1.4755246,0 0.4918416,-5.591232 16.7226122,0 0.491841,5.591232 -1.475524,-3e-7 C 19.842716,7.1347445 19.192051,6.5119715 18.689978,6.0995258 18.169944,5.6691813 17.316908,5.591249 15.738929,5.591232 l -1.475525,0 0,13.215639 c 0,1.075905 0.115266,2.254563 0.491842,2.541469 0.32276,0.233113 0.909383,0.944861 1.967366,1.016587 l 0,1.016588 -7.8694645,0 0,-1.016588 c 1.1655565,-0.08966 1.6804525,-0.693815 1.9673665,-1.016587 0.268969,-0.304838 0.447457,-1.394753 0.491841,-2.541469"
       style="font-size:27.54312897px;font-variant:normal;font-weight:bold;font-stretch:normal;fill:#282828;fill-opacity:1;font-family:Rachana;-inkscape-font-specification:Rachana Bold"
       id="path3777"
       inkscape:connector-curvature="0"
       sodipodi:nodetypes="ccccccccccccsccccccc" />
  </g>
</svg>
