<?xml version="1.0" encoding="UTF-8" standalone="no"?>
<svg
   xmlns:dc="http://purl.org/dc/elements/1.1/"
   xmlns:cc="http://creativecommons.org/ns#"
   xmlns:rdf="http://www.w3.org/1999/02/22-rdf-syntax-ns#"
   xmlns:svg="http://www.w3.org/2000/svg"
   xmlns="http://www.w3.org/2000/svg"
   xmlns:sodipodi="http://sodipodi.sourceforge.net/DTD/sodipodi-0.dtd"
   xmlns:inkscape="http://www.inkscape.org/namespaces/inkscape"
   height="26"
   width="26"
   version="1.1"
   id="svg2"
   inkscape:version="0.48.4 r9939"
   sodipodi:docname="setcolor_solderpaste.svg">
  <metadata
     id="metadata40">
    <rdf:RDF>
      <cc:Work
         rdf:about="">
        <dc:format>image/svg+xml</dc:format>
        <dc:type
           rdf:resource="http://purl.org/dc/dcmitype/StillImage" />
        <dc:title />
      </cc:Work>
    </rdf:RDF>
  </metadata>
  <sodipodi:namedview
     pagecolor="#ffffff"
     bordercolor="#666666"
     borderopacity="1"
     objecttolerance="10"
     gridtolerance="10"
     guidetolerance="10"
     inkscape:pageopacity="0"
     inkscape:pageshadow="2"
     inkscape:window-width="1366"
     inkscape:window-height="744"
     id="namedview38"
     showgrid="true"
     inkscape:snap-to-guides="false"
     inkscape:snap-grids="true"
     inkscape:zoom="16.236259"
     inkscape:cx="11.581635"
     inkscape:cy="11.858341"
     inkscape:window-x="0"
     inkscape:window-y="24"
     inkscape:window-maximized="1"
     inkscape:current-layer="svg2"
     showguides="true"
     inkscape:guide-bbox="true">
    <inkscape:grid
       type="xygrid"
       id="grid3017"
       empspacing="2"
       visible="true"
       enabled="true"
       snapvisiblegridlinesonly="true"
       spacingx="0.5px"
       spacingy="0.5px" />
  </sodipodi:namedview>
  <defs
     id="defs4">
    <filter
       id="c"
       height="1.3651"
       width="1.2097"
       color-interpolation-filters="sRGB"
       y="-0.18257"
       x="-0.10484">
      <feGaussianBlur
         stdDeviation="1.5978799"
         id="feGaussianBlur7" />
    </filter>
    <filter
       id="d"
       height="1.4696"
       width="1.4809999"
       color-interpolation-filters="sRGB"
       y="-0.23481999"
       x="-0.24049">
      <feGaussianBlur
         stdDeviation="1.5978799"
         id="feGaussianBlur10" />
    </filter>
  </defs>
  <path
     d="m 11.5,8 13,0 m -13,0 C 11.5,9.932997 9.932997,11.5 8,11.5 6.0670034,11.5 4.5,9.932997 4.5,8 4.5,6.0670034 6.0670034,4.5 8,4.5 c 1.932997,0 3.5,1.5670034 3.5,3.5 z"
     style="fill:none;stroke:#b3b3b3;stroke-width:3;stroke-linecap:round;stroke-linejoin:miter;stroke-miterlimit:4;stroke-opacity:1;stroke-dasharray:none;opacity:1"
     id="path3867" />
  <path
     style="fill:#b3b3b3;fill-opacity:1;stroke:#b3b3b3;stroke-width:2.50000000000000000;stroke-linecap:butt;stroke-linejoin:round;stroke-miterlimit:4;stroke-opacity:1;stroke-dasharray:none"
     d="m 0,0 0,26 26,0 0,-14.5 -12,0 0.03125,0 0.03125,0 C 12.8522,13.592433 10.591084,15 8,15 4.1340066,15 1,11.865993 1,8 1,4.1340066 4.1340066,1 8,1 c 2.591084,0 4.8522,1.4075669 6.0625,3.5 3.645833,0 8.291667,0 11.9375,0 L 26,0 z"
     id="rect3811"
     inkscape:connector-curvature="0"
     sodipodi:nodetypes="cccccccssscccc" />
  <g
     transform="matrix(1.6382539,0,0,1.5572263,1.2572207,0.36314149)"
     id="g16">
    <rect
       height="16"
       width="16"
       y="0"
       x="0"
       id="rect18"
       style="fill-opacity:0" />
  </g>
  <path
     sodipodi:type="arc"
     style="fill:#ff0000;fill-opacity:1;stroke:none"
     id="path3772"
     sodipodi:cx="29"
     sodipodi:cy="14.5"
     sodipodi:rx="7.5"
     sodipodi:ry="7.5"
     d="M 25.25,20.995191 A 7.5,7.5 0 0 1 21.5,14.5 l 7.5,0 z"
     transform="translate(-11,3.5)"
     sodipodi:start="2.0943951"
     sodipodi:end="3.1415927" />
  <path
     sodipodi:end="4.1887902"
     sodipodi:start="3.1415927"
     transform="translate(-11,3.5)"
     d="M 21.5,14.5 A 7.5,7.5 0 0 1 25.25,8.0048095 L 29,14.5 z"
     sodipodi:ry="7.5"
     sodipodi:rx="7.5"
     sodipodi:cy="14.5"
     sodipodi:cx="29"
     id="path3776"
     style="fill:#ff6600;fill-opacity:1;stroke:none"
     sodipodi:type="arc" />
  <path
     sodipodi:type="arc"
     style="fill:#ffff00;fill-opacity:1;stroke:none"
     id="path3778"
     sodipodi:cx="29"
     sodipodi:cy="14.5"
     sodipodi:rx="7.5"
     sodipodi:ry="7.5"
     d="m 25.25,8.0048095 a 7.5,7.5 0 0 1 7.5,10e-8 L 29,14.5 z"
     transform="translate(-11,3.5)"
     sodipodi:start="4.1887902"
     sodipodi:end="5.2359878" />
  <path
     sodipodi:end="6.2831853"
     sodipodi:start="5.2359878"
     transform="translate(-11,3.5)"
     d="M 32.75,8.0048096 A 7.5,7.5 0 0 1 36.5,14.5 l -7.5,0 z"
     sodipodi:ry="7.5"
     sodipodi:rx="7.5"
     sodipodi:cy="14.5"
     sodipodi:cx="29"
     id="path3780"
     style="fill:#00aa00;fill-opacity:1;stroke:none"
     sodipodi:type="arc" />
  <path
     sodipodi:type="arc"
     style="fill:#0066ff;fill-opacity:1;stroke:none"
     id="path3782"
     sodipodi:cx="29"
     sodipodi:cy="14.5"
     sodipodi:rx="7.5"
     sodipodi:ry="7.5"
     d="m 36.5,14.5 a 7.5,7.5 0 0 1 -3.75,6.495191 L 29,14.5 z"
     transform="translate(-11,3.5)"
     sodipodi:start="0"
     sodipodi:end="1.0471976" />
  <path
     sodipodi:end="2.0943951"
     sodipodi:start="1.0471976"
     transform="translate(-11,3.5)"
     d="m 32.75,20.995191 a 7.5,7.5 0 0 1 -7.5,0 L 29,14.5 z"
     sodipodi:ry="7.5"
     sodipodi:rx="7.5"
     sodipodi:cy="14.5"
     sodipodi:cx="29"
     id="path3784"
     style="fill:#5500d4;fill-opacity:1;stroke:none"
     sodipodi:type="arc" />
  <path
     sodipodi:type="arc"
     style="fill:none;stroke:#808080;stroke-opacity:1"
     id="path3786"
     sodipodi:cx="33.5"
     sodipodi:cy="18.5"
     sodipodi:rx="7.5"
     sodipodi:ry="7.5"
     d="m 41,18.5 a 7.5,7.5 0 1 1 -15,0 7.5,7.5 0 1 1 15,0 z"
     transform="translate(-15.5,-0.5)" />
  <path
     sodipodi:type="arc"
     style="fill:#1a1a1a;fill-opacity:1;stroke:none"
     id="path3040"
     sodipodi:cx="-14.5"
     sodipodi:cy="6.5"
     sodipodi:rx="6"
     sodipodi:ry="6"
     d="m -8.5,6.5 a 6,6 0 1 1 -12,0 6,6 0 1 1 12,0 z"
     transform="translate(22.5,1.5)" />
  <path
     id="path3002"
     style="fill:none;stroke:#ffffff;stroke-width:3;stroke-linecap:round;stroke-linejoin:miter;stroke-miterlimit:4;stroke-opacity:1;stroke-dasharray:none;opacity:0.20000000000000001"
     d="m 11.5,8 13,0 m -13,0 C 11.5,9.932997 9.932997,11.5 8,11.5 6.0670034,11.5 4.5,9.932997 4.5,8 4.5,6.0670034 6.0670034,4.5 8,4.5 c 1.932997,0 3.5,1.5670034 3.5,3.5 z" />
</svg>
