<?xml version="1.0" encoding="UTF-8" standalone="no"?>
<svg
   xmlns:dc="http://purl.org/dc/elements/1.1/"
   xmlns:cc="http://creativecommons.org/ns#"
   xmlns:rdf="http://www.w3.org/1999/02/22-rdf-syntax-ns#"
   xmlns:svg="http://www.w3.org/2000/svg"
   xmlns="http://www.w3.org/2000/svg"
   xmlns:sodipodi="http://sodipodi.sourceforge.net/DTD/sodipodi-0.dtd"
   xmlns:inkscape="http://www.inkscape.org/namespaces/inkscape"
   height="26"
   width="26"
   version="1.1"
   id="svg2"
   inkscape:version="0.91 r"
   sodipodi:docname="setcolor_copper.svg">
  <metadata
     id="metadata40">
    <rdf:RDF>
      <cc:Work
         rdf:about="">
        <dc:format>image/svg+xml</dc:format>
        <dc:type
           rdf:resource="http://purl.org/dc/dcmitype/StillImage" />
        <dc:title></dc:title>
      </cc:Work>
    </rdf:RDF>
  </metadata>
  <sodipodi:namedview
     pagecolor="#ffffff"
     bordercolor="#666666"
     borderopacity="1"
     objecttolerance="10"
     gridtolerance="10"
     guidetolerance="10"
     inkscape:pageopacity="0"
     inkscape:pageshadow="2"
     inkscape:window-width="1920"
     inkscape:window-height="1053"
     id="namedview38"
     showgrid="true"
     inkscape:snap-to-guides="false"
     inkscape:snap-grids="true"
     inkscape:zoom="45.923075"
     inkscape:cx="14.632097"
     inkscape:cy="15.790635"
     inkscape:window-x="0"
     inkscape:window-y="0"
     inkscape:window-maximized="1"
     inkscape:current-layer="svg2"
     showguides="true"
     inkscape:guide-bbox="true">
    <inkscape:grid
       type="xygrid"
       id="grid4149" />
  </sodipodi:namedview>
  <defs
     id="defs4">
    <filter
       id="c"
       height="1.3651"
       width="1.2097"
       color-interpolation-filters="sRGB"
       y="-0.18257"
       x="-0.10484">
      <feGaussianBlur
         stdDeviation="1.5978799"
         id="feGaussianBlur7" />
    </filter>
    <filter
       id="d"
       height="1.4696"
       width="1.4809999"
       color-interpolation-filters="sRGB"
       y="-0.23481999"
       x="-0.24049">
      <feGaussianBlur
         stdDeviation="1.5978799"
         id="feGaussianBlur10" />
    </filter>
  </defs>
  <path
     style="fill:#b3b3b3;fill-opacity:1;stroke:#b3b3b3;stroke-width:2.13752389;stroke-linecap:butt;stroke-linejoin:round;stroke-miterlimit:4;stroke-dasharray:none;stroke-opacity:1"
     d="M 2.0833088,2.1592027 2.1050838,23.981377 23.9596,23.937827 23.91605,11.948254 l -9.736614,0.02178 0.02666,0 0.02667,0 c -1.032533,1.79301 -2.961539,2.999158 -5.1720465,2.999158 -3.2981607,0 -6.2776835,-2.664063 -6.2331546,-5.9765412 C 2.8911223,4.2644566 5,2.2757365 9.1913703,2.1233076 11.400418,2.0429705 12.677617,3.3076794 13.840804,4.9700371 l 10.053481,-0.043551 0.02178,-2.8108344 z"
     id="rect3811"
     inkscape:connector-curvature="0"
     sodipodi:nodetypes="cccccccssscccc" />
  <g
     transform="matrix(1.6382539,0,0,1.5572263,1.2572207,0.36314149)"
     id="g16">
    <rect
       height="16"
       width="16"
       y="0"
       x="0"
       id="rect18"
       style="fill-opacity:0" />
  </g>
  <ellipse
     style="fill:none;stroke:#333333;stroke-width:2.56502891;stroke-miterlimit:4;stroke-dasharray:none;stroke-opacity:1"
     id="path3815"
     cx="9.2349119"
     cy="8.2958279"
     rx="2.9859242"
     ry="2.9991581" />
  <path
     sodipodi:nodetypes="cc"
     inkscape:connector-curvature="0"
     id="path3002"
     d="m 12.63457,8.3427297 11.090576,0"
     style="fill:none;stroke:#333333;stroke-width:2.56502891;stroke-linecap:round;stroke-linejoin:miter;stroke-miterlimit:4;stroke-dasharray:none;stroke-opacity:1" />
  <g
     id="g4151"
     transform="matrix(0.93612506,0,0,0.91725293,1.1061977,1.5221106)">
    <path
       sodipodi:end="3.1415927"
       sodipodi:start="2.0943951"
       transform="translate(-11,3.5)"
       d="M 25.25,20.995191 A 7.5,7.5 0 0 1 21.5,14.5 l 7.5,0 z"
       sodipodi:ry="7.5"
       sodipodi:rx="7.5"
       sodipodi:cy="14.5"
       sodipodi:cx="29"
       id="path3772"
       style="fill:#ff0000;fill-opacity:1;stroke:none"
       sodipodi:type="arc" />
    <path
       sodipodi:type="arc"
       style="fill:#ff6600;fill-opacity:1;stroke:none"
       id="path3776"
       sodipodi:cx="29"
       sodipodi:cy="14.5"
       sodipodi:rx="7.5"
       sodipodi:ry="7.5"
       d="M 21.5,14.5 A 7.5,7.5 0 0 1 25.25,8.0048095 L 29,14.5 Z"
       transform="translate(-11,3.5)"
       sodipodi:start="3.1415927"
       sodipodi:end="4.1887902" />
    <path
       sodipodi:end="5.2359878"
       sodipodi:start="4.1887902"
       transform="translate(-11,3.5)"
       d="m 25.25,8.0048095 a 7.5,7.5 0 0 1 7.5,10e-8 L 29,14.5 Z"
       sodipodi:ry="7.5"
       sodipodi:rx="7.5"
       sodipodi:cy="14.5"
       sodipodi:cx="29"
       id="path3778"
       style="fill:#ffff00;fill-opacity:1;stroke:none"
       sodipodi:type="arc" />
    <path
       sodipodi:type="arc"
       style="fill:#00aa00;fill-opacity:1;stroke:none"
       id="path3780"
       sodipodi:cx="29"
       sodipodi:cy="14.5"
       sodipodi:rx="7.5"
       sodipodi:ry="7.5"
       d="M 32.75,8.0048096 A 7.5,7.5 0 0 1 36.5,14.5 l -7.5,0 z"
       transform="translate(-11,3.5)"
       sodipodi:start="5.2359878"
       sodipodi:end="6.2831853" />
    <path
       sodipodi:end="1.0471976"
       sodipodi:start="0"
       transform="translate(-11,3.5)"
       d="m 36.5,14.5 a 7.5,7.5 0 0 1 -3.75,6.495191 L 29,14.5 Z"
       sodipodi:ry="7.5"
       sodipodi:rx="7.5"
       sodipodi:cy="14.5"
       sodipodi:cx="29"
       id="path3782"
       style="fill:#0066ff;fill-opacity:1;stroke:none"
       sodipodi:type="arc" />
    <path
       sodipodi:type="arc"
       style="fill:#5500d4;fill-opacity:1;stroke:none"
       id="path3784"
       sodipodi:cx="29"
       sodipodi:cy="14.5"
       sodipodi:rx="7.5"
       sodipodi:ry="7.5"
       d="m 32.75,20.995191 a 7.5,7.5 0 0 1 -7.5,0 L 29,14.5 Z"
       transform="translate(-11,3.5)"
       sodipodi:start="1.0471976"
       sodipodi:end="2.0943951" />
  </g>
  <ellipse
     style="fill:none;stroke:#808080;stroke-width:0.89237261;stroke-opacity:1"
     id="path3786"
     cx="17.771357"
     cy="17.989113"
     rx="6.8025575"
     ry="6.5848026" />
</svg>
