<?xml version="1.0" encoding="UTF-8" standalone="no"?>
<svg
   xmlns:dc="http://purl.org/dc/elements/1.1/"
   xmlns:cc="http://creativecommons.org/ns#"
   xmlns:rdf="http://www.w3.org/1999/02/22-rdf-syntax-ns#"
   xmlns:svg="http://www.w3.org/2000/svg"
   xmlns="http://www.w3.org/2000/svg"
   xmlns:sodipodi="http://sodipodi.sourceforge.net/DTD/sodipodi-0.dtd"
   xmlns:inkscape="http://www.inkscape.org/namespaces/inkscape"
   height="26"
   width="26"
   version="1.0"
   id="svg2"
   inkscape:version="0.48.4 r9939"
   sodipodi:docname="setcolor_soldermask.svg">
  <metadata
     id="metadata22">
    <rdf:RDF>
      <cc:Work
         rdf:about="">
        <dc:format>image/svg+xml</dc:format>
        <dc:type
           rdf:resource="http://purl.org/dc/dcmitype/StillImage" />
        <dc:title />
      </cc:Work>
    </rdf:RDF>
  </metadata>
  <defs
     id="defs20">
    <filter
       id="d"
       height="1.212"
       width="1.059"
       color-interpolation-filters="sRGB"
       y="-0.10598"
       x="-0.029501">
      <feGaussianBlur
         stdDeviation="0.52522041"
         id="feGaussianBlur6253" />
    </filter>
    <filter
       id="c"
       height="1.212"
       width="1.059"
       color-interpolation-filters="sRGB"
       y="-0.10598"
       x="-0.029501">
      <feGaussianBlur
         stdDeviation="0.52522041"
         id="feGaussianBlur6250" />
    </filter>
  </defs>
  <sodipodi:namedview
     pagecolor="#ffffff"
     bordercolor="#666666"
     borderopacity="1"
     objecttolerance="10"
     gridtolerance="10"
     guidetolerance="10"
     inkscape:pageopacity="0"
     inkscape:pageshadow="2"
     inkscape:window-width="1239"
     inkscape:window-height="903"
     id="namedview18"
     showgrid="false"
     inkscape:zoom="18.678403"
     inkscape:cx="7.0226674"
     inkscape:cy="9.6413441"
     inkscape:window-x="268"
     inkscape:window-y="86"
     inkscape:window-maximized="0"
     inkscape:current-layer="svg2"
     showguides="true"
     inkscape:guide-bbox="true" />
  <g
     id="g4875"
     transform="matrix(1.0378074,0,0,1.0842011,23.317423,-0.25659851)">
    <path
       style="opacity:0.7625;fill:#3f684a;fill-opacity:1;stroke:#000000;stroke-width:1.02502263;stroke-miterlimit:4;stroke-dasharray:none"
       inkscape:connector-curvature="0"
       id="path6263"
       d="m -21.368261,15.201231 h 17.2005127 l 5.7336981,8.316166 H -15.634563 l -5.733001,-8.316166 z" />
    <path
       style="opacity:0.75;fill:#3f684a;fill-opacity:1;stroke:#000000;stroke-width:1.02502263;stroke-miterlimit:4;stroke-dasharray:none"
       inkscape:connector-curvature="0"
       id="path6265"
       d="M -21.482133,1.0166311 H -4.2816203 L 1.4520195,9.3327973 H -15.748493 l -5.732943,-8.3161662 z" />
  </g>
  <g
     transform="matrix(0.33914908,0,0,0.38322716,-6.4082385,-78.795929)"
     id="g4">
    <path
       d="m 56.449,216.89 c -5.0416,0 -19.508,0.83386 -19.483,12.086 10e-4,0.63241 1.3029,2.8338 2.3897,3.0676 8.0459,1.7306 8.4825,7.6906 7.9988,12.393 -0.03696,0.35608 0.62582,2.8379 1.1948,3.4664 4.6144,5.0965 6.1842,7.3315 12.413,7.3315 12.458,0 19.449,-5.8231 19.449,-17.485 0,-11.6619 -11.505,-20.86 -23.963,-20.86 z m -12.612,8.0371 c 1.0477,0.0569 2.2727,0.45585 3.4186,1.1657 2.2917,1.4196 3.426,3.6008 2.5225,4.8468 -0.90355,1.2459 -3.5166,1.0822 -5.8083,-0.33745 -2.2917,-1.4197 -3.3928,-3.5702 -2.4893,-4.8161 0.45177,-0.62298 1.3088,-0.9159 2.3565,-0.85893 z"
       id="path6"
       inkscape:connector-curvature="0"
       style="opacity:0.45702999;fill:#f4f4c4;stroke:#000000;stroke-width:2.11290002" />
    <path
       d="m 420.94,149.64 a 3.6875,3.8438 0 1 1 -7.375,0 3.6875,3.8438 0 1 1 7.375,0 z"
       transform="matrix(1.1677,0,0,1.0691,-430.73,63.662)"
       id="path8"
       inkscape:connector-curvature="0"
       style="fill:#ff7a00" />
    <path
       d="m 420.94,149.64 a 3.6875,3.8438 0 1 1 -7.375,0 3.6875,3.8438 0 1 1 7.375,0 z"
       transform="matrix(1.1429,0,0,1.1048,-409.89,62.629)"
       id="path10"
       inkscape:connector-curvature="0"
       style="fill:#95d300" />
    <path
       d="m 420.94,149.64 a 3.6875,3.8438 0 1 1 -7.375,0 3.6875,3.8438 0 1 1 7.375,0 z"
       transform="matrix(1.1801,0,0,1.0691,-420.09,77.78)"
       id="path12"
       inkscape:connector-curvature="0"
       style="fill:#00a6e4" />
    <path
       d="m 420.94,149.64 a 3.6875,3.8438 0 1 1 -7.375,0 3.6875,3.8438 0 1 1 7.375,0 z"
       transform="matrix(1.1925,0,0,1.1048,-431.5,81.53)"
       id="path14"
       inkscape:connector-curvature="0"
       style="fill:#f9de00" />
    <path
       d="m 420.94,149.64 a 3.6875,3.8438 0 1 1 -7.375,0 3.6875,3.8438 0 1 1 7.375,0 z"
       transform="matrix(1.1553,0,0,1.1167,-427.31,76.5)"
       id="path16"
       inkscape:connector-curvature="0"
       style="fill:#e600ad" />
  </g>
</svg>
