<svg id="Слой_1" data-name="Слой 1"
  xmlns:cc="http://creativecommons.org/ns#"
  xmlns:rdf="http://www.w3.org/1999/02/22-rdf-syntax-ns#"
  xmlns="http://www.w3.org/2000/svg" viewBox="0 0 26 26">
  <metadata id="metadata43">
    <rdf:RDF>
      <cc:Work rdf:about="">
        <cc:license rdf:resource="http://creativecommons.org/licenses/by/4.0/" />
      </cc:Work>
      <cc:License rdf:about="http://creativecommons.org/licenses/by/4.0/">
        <cc:permits rdf:resource="http://creativecommons.org/ns#Reproduction" />
        <cc:permits rdf:resource="http://creativecommons.org/ns#Distribution" />
        <cc:requires rdf:resource="http://creativecommons.org/ns#Notice" />
        <cc:requires rdf:resource="http://creativecommons.org/ns#Attribution" />
        <cc:permits rdf:resource="http://creativecommons.org/ns#DerivativeWorks" />
      </cc:License>
    </rdf:RDF>
  </metadata>
  <defs>
    <style>.cls-1{fill:#e61c50;}.cls-2{fill:#1a81c4;}.cls-3{fill:#545454;}</style>
  </defs>
  <title>showtrack</title>
  <path class="cls-1" d="M15,24.9948V3.0036a2,2,0,0,0-4,0V24.9948h1V3.0036a1,1,0,1,1,2,0V24.9948Z"/>
  <path class="cls-2" d="M24.9951,14H3.0049a1,1,0,1,1,0-2h21.99V11H3.0049a2,2,0,1,0,0,4h21.99Z"/>
  <path class="cls-2" d="M11.0919,15H3.0049a2,2,0,1,1,0-4H14.8226Z"/>
  <path class="cls-1" d="M11,15.0933V3.0036a2,2,0,0,1,4,0v7.69Z"/>
  <path class="cls-3" d="M1.5,25a.5.5,0,0,1-.3535-.8535l23-23a.5.5,0,1,1,.707.707l-23,23A.4981.4981,0,0,1,1.5,25Z"/>
</svg>