<svg xmlns="http://www.w3.org/2000/svg" height="48" width="48" version="1.0">
 <path opacity=".45703" fill="#007d00" d="m4.2714 3.6928v39.347l39.817-0.04825-15.409-18.011c-2.1476 3.3861-5.6989 5.7637-9.9438 5.7637-6.6533 0-12.053-5.5086-12.053-12.296s5.3998-12.296 12.053-12.296c4.4029 0 8.0664 2.549 10.17 6.148h4.2939c3.5932 4.705 7.4151 9.2225 10.893 14.022 0.024-0.749-0.045-22.63-0.045-22.63z"/>
 <path opacity=".45703" fill="#007d00" d="m23.556 15.989 8.4371-0.000003 12.081 15.235c0.06887 3.0938-0.07166 5.5043 0 7.7883l-14.492-18.105-6.0265-0.000002v-2.4592z"/>
 <path opacity=".45703" fill="#007d00" d="m18.735 11.07c-3.992 0-7.2318 3.3052-7.2318 7.3776s3.2399 7.3776 7.2318 7.3776c3.992 0 7.2318-3.3051 7.2318-7.3776 0-4.0724-3.2399-7.3776-7.2318-7.3776zm0 4.2158c1.7108 0 3.0994 1.4165 3.0994 3.1618s-1.3885 3.1618-3.0994 3.1618c-1.7108 0-3.0994-1.4165-3.0994-3.1618s1.3885-3.1618 3.0994-3.1618z"/>
 <rect ry="0.825" height="39.375" width="39.525" stroke="#03f" y="3.675" x="4.425" stroke-width="2" fill="none"/>
 <g transform="matrix(.82404 0 0 .79493 -.54219 13.342)">
  <path fill-rule="evenodd" d="m5.8694 32.598s15.515-20.825 31.114 0.08214c-15.599 19.414-31.114-0.082-31.114-0.082z"/>
  <path fill-rule="evenodd" fill="#fff" d="m10.452 32.553s10.86-13.986 21.78 0.05516c-10.92 13.038-21.78-0.05516-21.78-0.05516z"/>
  <path fill="#a39aff" d="m-6.5 3.5a1.75 1.5 0 1 1 -3.5 0 1.75 1.5 0 1 1 3.5 0z" transform="matrix(3.5559,0,0,3.9824,50.678,18.388)"/>
  <path d="m-6.5 3.5a1.75 1.5 0 1 1 -3.5 0 1.75 1.5 0 1 1 3.5 0z" transform="matrix(1.778,0,0,1.9912,36.01,25.358)"/>
 </g>
</svg>
