<svg xmlns="http://www.w3.org/2000/svg" height="48" width="48" version="1.0">
 <g transform="matrix(2.4812,0,0,2.35,136.55,-2.79)">
  <path fill="#007d00" d="m-43.3 19.4-0.000001-16h1.5l0.000001 16h-1.5z"/>
  <path fill="#007d00" d="m-40.3 19.4-0.000001-16h1.5l0.000001 16h-1.5z"/>
  <path fill="#d72e2e" d="m-37.3 13.9h-7.5l-3.5-8h-5v-1.5l6 0.000001 3.5 8h6.5v1.5z"/>
  <path fill="#d72e2e" d="m-37.3 16.9-9.5-0.000001-3.5-8-3 0.000001v-1.5h4l3.5 8 8.5 0.000001v1.5z"/>
 </g>
 <rect opacity="0" height="48" width="48" y="-42.45" x="-50.85"/>
 <g transform="matrix(.82404 0 0 .79493 -.54219 13.342)">
  <path fill-rule="evenodd" d="m5.8694 32.598s15.515-20.825 31.114 0.08214c-15.599 19.414-31.114-0.082-31.114-0.082z"/>
  <path fill-rule="evenodd" fill="#fff" d="m10.452 32.553s10.86-13.986 21.78 0.05516c-10.92 13.038-21.78-0.05516-21.78-0.05516z"/>
  <path fill="#a39aff" d="m-6.5 3.5a1.75 1.5 0 1 1 -3.5 0 1.75 1.5 0 1 1 3.5 0z" transform="matrix(3.5559,0,0,3.9824,50.678,18.388)"/>
  <path d="m-6.5 3.5a1.75 1.5 0 1 1 -3.5 0 1.75 1.5 0 1 1 3.5 0z" transform="matrix(1.778,0,0,1.9912,36.01,25.358)"/>
 </g>
</svg>
