<?xml version="1.0" encoding="UTF-8" standalone="no"?>
<svg
   xmlns:dc="http://purl.org/dc/elements/1.1/"
   xmlns:cc="http://creativecommons.org/ns#"
   xmlns:rdf="http://www.w3.org/1999/02/22-rdf-syntax-ns#"
   xmlns:svg="http://www.w3.org/2000/svg"
   xmlns="http://www.w3.org/2000/svg"
   xmlns:sodipodi="http://sodipodi.sourceforge.net/DTD/sodipodi-0.dtd"
   xmlns:inkscape="http://www.inkscape.org/namespaces/inkscape"
   id="Слой_1"
   data-name="Слой 1"
   viewBox="0 0 24 24"
   version="1.1"
   sodipodi:docname="showtrack.svg"
   inkscape:version="1.0.1 (3bc2e813f5, 2020-09-07)">
  <sodipodi:namedview
     pagecolor="#ffffff"
     bordercolor="#666666"
     borderopacity="1"
     objecttolerance="10"
     gridtolerance="10"
     guidetolerance="10"
     inkscape:pageopacity="0"
     inkscape:pageshadow="2"
     inkscape:window-width="1609"
     inkscape:window-height="1286"
     id="namedview30"
     showgrid="true"
     inkscape:zoom="27.961538"
     inkscape:cx="12.572645"
     inkscape:cy="13.58687"
     inkscape:window-x="0"
     inkscape:window-y="37"
     inkscape:window-maximized="0"
     inkscape:document-rotation="0"
     inkscape:current-layer="Слой_1">
    <inkscape:grid
       type="xygrid"
       id="grid_kicad"
       spacingx="0.5"
       spacingy="0.5"
       color="#9999ff"
       opacity="0.13"
       empspacing="2" />
  </sodipodi:namedview>
  <metadata
     id="metadata43">
    <rdf:RDF>
      <cc:Work
         rdf:about="">
        <cc:license
           rdf:resource="http://creativecommons.org/licenses/by-sa/4.0/" />
        <dc:format>image/svg+xml</dc:format>
        <dc:type
           rdf:resource="http://purl.org/dc/dcmitype/StillImage" />
        <dc:title>add_arc</dc:title>
      </cc:Work>
      <cc:License
         rdf:about="http://creativecommons.org/licenses/by-sa/4.0/">
        <cc:permits
           rdf:resource="http://creativecommons.org/ns#Reproduction" />
        <cc:permits
           rdf:resource="http://creativecommons.org/ns#Distribution" />
        <cc:requires
           rdf:resource="http://creativecommons.org/ns#Notice" />
        <cc:requires
           rdf:resource="http://creativecommons.org/ns#Attribution" />
        <cc:permits
           rdf:resource="http://creativecommons.org/ns#DerivativeWorks" />
        <cc:requires
           rdf:resource="http://creativecommons.org/ns#ShareAlike" />
      </cc:License>
    </rdf:RDF>
  </metadata>
  <defs
     id="defs27237">
    <style
       id="style27235">.cls-1{fill:#e61c50;}.cls-2{fill:#1a81c4;}.cls-3{fill:#545454;}</style>
  </defs>
  <title
     id="title27239">showtrack</title>
  <path
     class="cls-1"
     d="M 14,23.9948 V 2.0036 a 2,2 0 0 0 -4,0 v 21.9912 h 1 V 2.0036 a 1,1 0 1 1 2,0 v 21.9912 z"
     id="path27241" />
  <path
     class="cls-2"
     d="M 23.9951,13 H 2.0049 a 1,1 0 1 1 0,-2 h 21.99 v -1 h -21.99 a 2,2 0 1 0 0,4 h 21.99 z"
     id="path27243" />
  <path
     class="cls-2"
     d="m 10.0919,14 h -8.087 a 2,2 0 1 1 0,-4 h 11.8177 z"
     id="path27245" />
  <path
     class="cls-1"
     d="M 10,14.0933 V 2.0036 a 2,2 0 0 1 4,0 v 7.69 z"
     id="path27247" />
  <path
     class="cls-3"
     d="M 0.5,24 A 0.5,0.5 0 0 1 0.1465,23.1465 l 23,-23 a 0.5,0.5 0 1 1 0.707,0.707 l -23,23 A 0.4981,0.4981 0 0 1 0.5,24 Z"
     id="path27249" />
</svg>
