<?xml version="1.0" encoding="UTF-8" standalone="no"?>
<svg xmlns:dc="http://purl.org/dc/elements/1.1/"
   xmlns:cc="http://creativecommons.org/ns#"
   xmlns:rdf="http://www.w3.org/1999/02/22-rdf-syntax-ns#"
   xmlns:svg="http://www.w3.org/2000/svg"
   xmlns="http://www.w3.org/2000/svg"
   xmlns:sodipodi="http://sodipodi.sourceforge.net/DTD/sodipodi-0.dtd"
   xmlns:inkscape="http://www.inkscape.org/namespaces/inkscape" id="Слой_1" data-name="Слой 1" viewBox="0 0 24 24" version="1.1" sodipodi:docname="sim_tune.svg" inkscape:version="1.0.1 (3bc2e813f5, 2020-09-07)">
   <sodipodi:namedview pagecolor="#ffffff" bordercolor="#666666" borderopacity="1" objecttolerance="10" gridtolerance="10" guidetolerance="10" inkscape:pageopacity="0" inkscape:pageshadow="2" inkscape:window-width="1609" inkscape:window-height="1286" id="namedview30" showgrid="true" inkscape:zoom="27.961538" inkscape:cx="12.650268" inkscape:cy="13.258379" inkscape:window-x="0" inkscape:window-y="37" inkscape:window-maximized="0" inkscape:document-rotation="0" inkscape:current-layer="Слой_1">
      <inkscape:grid type="xygrid" id="grid_kicad" spacingx="0.5" spacingy="0.5" color="#9999ff" opacity="0.13" empspacing="2" />
   </sodipodi:namedview>
   <metadata id="metadata43">
      <rdf:RDF>
         <cc:Work rdf:about="">
            <cc:license rdf:resource="http://creativecommons.org/licenses/by-sa/4.0/" />
            <dc:format>image/svg+xml</dc:format>
            <dc:type rdf:resource="http://purl.org/dc/dcmitype/StillImage" />
            <dc:title>add_arc</dc:title>
         </cc:Work>
         <cc:License rdf:about="http://creativecommons.org/licenses/by-sa/4.0/">
            <cc:permits rdf:resource="http://creativecommons.org/ns#Reproduction" />
            <cc:permits rdf:resource="http://creativecommons.org/ns#Distribution" />
            <cc:requires rdf:resource="http://creativecommons.org/ns#Notice" />
            <cc:requires rdf:resource="http://creativecommons.org/ns#Attribution" />
            <cc:permits rdf:resource="http://creativecommons.org/ns#DerivativeWorks" />
            <cc:requires rdf:resource="http://creativecommons.org/ns#ShareAlike" />
         </cc:License>
      </rdf:RDF>
   </metadata>
   <defs id="defs27283">
      <style id="style27281">.cls-1{fill:#b9b9b9;}.cls-2{fill:#545454;}.cls-3{fill:#1a81c4;}.cls-4{fill:#bf2641;}.cls-5{fill:#fff;}</style>
   </defs>
   <title id="title27285">sim_tune</title>
   <path class="cls-2" d="M 1.8438,19.6045 A 0.5,0.5 0 0 1 1.6357,18.6494 l 0.2989,-0.1367 a 9.1089,9.1089 0 0 0 5.31,-7.8164 l 0.3575,-6.74 a 2.9787,2.9787 0 0 1 5.9492,9e-4 l 0.3535,6.7246 a 9.0873,9.0873 0 0 0 5.4652,7.8905 0.5,0.5 0 1 1 -0.4,0.916 10.0765,10.0765 0 0 1 -6.0634,-8.7539 L 12.5527,4.01 A 1.9793,1.9793 0 0 0 8.6,4.0088 l -0.3574,6.74 A 10.1034,10.1034 0 0 1 2.352,19.4217 l -0.3,0.1377 a 0.5065,0.5065 0 0 1 -0.2082,0.0451 z" id="path27289" />
   <path class="cls-3" d="M 19.1611,19.6045 A 0.4992,0.4992 0 0 1 18.8457,19.4922 7.6012,7.6012 0 0 1 16.19,15.0781 l -0.1738,-0.88 a 1.1991,1.1991 0 0 0 -2.3525,10e-4 l -0.5166,2.6143 A 2.6929,2.6929 0 0 1 7.8658,16.8056 L 7.3502,14.1981 a 1.1992,1.1992 0 0 0 -2.3526,0 l -0.1738,0.88 a 7.6007,7.6007 0 0 1 -2.6553,4.4141 0.5,0.5 0 0 1 -0.6308,-0.7754 6.6053,6.6053 0 0 0 2.3057,-3.832 l 0.1738,-0.88 a 2.1985,2.1985 0 0 1 4.3135,-10e-4 l 0.5156,2.6084 a 1.692,1.692 0 0 0 3.32,0.0068 l 0.5166,-2.6142 a 2.1984,2.1984 0 0 1 4.3135,0 l 0.1738,0.88 a 6.6053,6.6053 0 0 0 2.3057,3.832 0.5,0.5 0 0 1 -0.3155,0.8877 z" id="path27291" />
   <path class="cls-4" d="m 24.0026,17 a 7.0065,7.0065 0 1 1 -7.0066,-7 7.0032,7.0032 0 0 1 7.0066,7 z" id="path27293" />
   <path class="cls-5" d="m 21.2344,13.4566 -0.5127,-0.5127 a 0.8176,0.8176 0 0 0 -1.1561,0 l -5.3335,5.3337 1.6688,1.6689 5.3335,-5.3338 a 0.8176,0.8176 0 0 0 0,-1.1561 z" id="path27295" />
   <polygon class="cls-5" points="14.174,21.983 16.249,21.598 15.433,20.789 14.58,19.929 " id="polygon27297" transform="translate(-1,-1)" />
</svg>
