<svg id="Слой_1" data-name="Слой 1"
  xmlns:dc="http://purl.org/dc/elements/1.1/"
  xmlns:cc="http://creativecommons.org/ns#"
  xmlns:rdf="http://www.w3.org/1999/02/22-rdf-syntax-ns#"
  xmlns="http://www.w3.org/2000/svg" viewBox="0 0 26 26">
  <metadata id="metadata43">
    <rdf:RDF>
      <cc:Work rdf:about="">
        <cc:license rdf:resource="http://creativecommons.org/licenses/by-sa/4.0/" />
        <dc:format>image/svg+xml</dc:format>
        <dc:type rdf:resource="http://purl.org/dc/dcmitype/StillImage" />
        <dc:title>add_arc</dc:title>
      </cc:Work>
      <cc:License rdf:about="http://creativecommons.org/licenses/by-sa/4.0/">
        <cc:permits rdf:resource="http://creativecommons.org/ns#Reproduction" />
        <cc:permits rdf:resource="http://creativecommons.org/ns#Distribution" />
        <cc:requires rdf:resource="http://creativecommons.org/ns#Notice" />
        <cc:requires rdf:resource="http://creativecommons.org/ns#Attribution" />
        <cc:permits rdf:resource="http://creativecommons.org/ns#DerivativeWorks" />
        <cc:requires rdf:resource="http://creativecommons.org/ns#ShareAlike" />
      </cc:License>
    </rdf:RDF>
  </metadata>
  <defs>
    <style>.cls-1{fill:#b9b9b9;}.cls-2{fill:#545454;}.cls-3{fill:#1a81c4;}.cls-4{fill:#e61c50;}.cls-5{fill:#fff;}</style>
  </defs>
  <title>sim_tune</title>
  <path class="cls-1" d="M4.5084,1H18.5061a3.5,3.5,0,0,1,3.5,3.5v14a3.5,3.5,0,0,1-3.5,3.5H4.5083a3.5,3.5,0,0,1-3.5-3.5V4.5A3.5,3.5,0,0,1,4.5084,1Z"/>
  <path class="cls-2" d="M2.8438,20.6045a.5.5,0,0,1-.2081-.9551l.2989-.1367a9.1089,9.1089,0,0,0,5.31-7.8164l.3575-6.74a2.9787,2.9787,0,0,1,5.9492.0009l.3535,6.7246A9.0873,9.0873,0,0,0,20.37,19.5723a.5.5,0,1,1-.4.916,10.0765,10.0765,0,0,1-6.0634-8.7539L13.5527,5.01A1.9793,1.9793,0,0,0,9.6,5.0088l-.3574,6.74a10.1034,10.1034,0,0,1-5.8906,8.6729l-.3.1377A.5065.5065,0,0,1,2.8438,20.6045Z"/>
  <path class="cls-3" d="M20.1611,20.6045a.4992.4992,0,0,1-.3154-.1123A7.6012,7.6012,0,0,1,17.19,16.0781l-.1738-.88a1.1991,1.1991,0,0,0-2.3525.001l-.5166,2.6143a2.6929,2.6929,0,0,1-5.2813-.0078l-.5156-2.6075a1.1992,1.1992,0,0,0-2.3526,0l-.1738.88a7.6007,7.6007,0,0,1-2.6553,4.4141.5.5,0,0,1-.6308-.7754,6.6053,6.6053,0,0,0,2.3057-3.832l.1738-.88a2.1985,2.1985,0,0,1,4.3135-.001l.5156,2.6084a1.692,1.692,0,0,0,3.32.0068l.5166-2.6142a2.1984,2.1984,0,0,1,4.3135,0l.1738.88a6.6053,6.6053,0,0,0,2.3057,3.832.5.5,0,0,1-.3155.8877Z"/>
  <path class="cls-4" d="M25.0026,18a7.0065,7.0065,0,1,1-7.0066-7A7.0032,7.0032,0,0,1,25.0026,18Z"/>
  <path class="cls-5" d="M22.2344,14.4566l-.5127-.5127a.8176.8176,0,0,0-1.1561,0l-5.3335,5.3337,1.6688,1.6689,5.3335-5.3338A.8176.8176,0,0,0,22.2344,14.4566Z"/>
  <polygon class="cls-5" points="14.58 19.929 14.174 21.983 16.249 21.598 15.433 20.789 14.58 19.929"/>
</svg>