<?xml version="1.0" encoding="UTF-8" standalone="no"?>
<svg
   xmlns:dc="http://purl.org/dc/elements/1.1/"
   xmlns:cc="http://creativecommons.org/ns#"
   xmlns:rdf="http://www.w3.org/1999/02/22-rdf-syntax-ns#"
   xmlns:svg="http://www.w3.org/2000/svg"
   xmlns="http://www.w3.org/2000/svg"
   xmlns:sodipodi="http://sodipodi.sourceforge.net/DTD/sodipodi-0.dtd"
   xmlns:inkscape="http://www.inkscape.org/namespaces/inkscape"
   id="Слой_1"
   data-name="Слой 1"
   viewBox="0 0 24 24"
   version="1.1"
   sodipodi:docname="sim_settings.svg"
   inkscape:version="1.0.1 (3bc2e813f5, 2020-09-07)">
  <sodipodi:namedview
     pagecolor="#ffffff"
     bordercolor="#666666"
     borderopacity="1"
     objecttolerance="10"
     gridtolerance="10"
     guidetolerance="10"
     inkscape:pageopacity="0"
     inkscape:pageshadow="2"
     inkscape:window-width="1920"
     inkscape:window-height="1041"
     id="namedview30"
     showgrid="true"
     inkscape:zoom="43.419381"
     inkscape:cx="14.342277"
     inkscape:cy="16.114632"
     inkscape:window-x="0"
     inkscape:window-y="0"
     inkscape:window-maximized="0"
     inkscape:document-rotation="0"
     inkscape:current-layer="Слой_1">
    <inkscape:grid
       type="xygrid"
       id="grid_kicad"
       spacingx="0.5"
       spacingy="0.5"
       color="#9999ff"
       opacity="0.13"
       empspacing="2" />
  </sodipodi:namedview>
  <metadata
     id="metadata43">
    <rdf:RDF>
      <cc:Work
         rdf:about="">
        <cc:license
           rdf:resource="http://creativecommons.org/licenses/by-sa/4.0/" />
        <dc:format>image/svg+xml</dc:format>
        <dc:type
           rdf:resource="http://purl.org/dc/dcmitype/StillImage" />
        <dc:title>simulator</dc:title>
      </cc:Work>
      <cc:License
         rdf:about="http://creativecommons.org/licenses/by-sa/4.0/">
        <cc:permits
           rdf:resource="http://creativecommons.org/ns#Reproduction" />
        <cc:permits
           rdf:resource="http://creativecommons.org/ns#Distribution" />
        <cc:requires
           rdf:resource="http://creativecommons.org/ns#Notice" />
        <cc:requires
           rdf:resource="http://creativecommons.org/ns#Attribution" />
        <cc:permits
           rdf:resource="http://creativecommons.org/ns#DerivativeWorks" />
        <cc:requires
           rdf:resource="http://creativecommons.org/ns#ShareAlike" />
      </cc:License>
    </rdf:RDF>
  </metadata>
  <defs
     id="defs159987">
    <style
       id="style159985">.cls-1{fill:#b9b9b9;}.cls-2,.cls-3{fill:none;stroke-linecap:round;stroke-linejoin:round;stroke-width:1.25px;}.cls-2{stroke:#bf2641;}.cls-3{stroke:#1a81c4;}</style>
  </defs>
  <title
     id="title159989">simulator</title>
  <circle
     style="fill:#ffffff;stroke:#545454;stroke-width:1.5;stroke-linecap:round;stroke-linejoin:round;stroke-miterlimit:4;stroke-dasharray:none;stroke-opacity:1;fill-opacity:1"
     id="path841"
     cx="12"
     cy="12"
     r="11.25" />
  <path
     style="fill:none;stroke:#545454;stroke-width:1;stroke-linecap:round;stroke-linejoin:miter;stroke-miterlimit:4;stroke-dasharray:none;stroke-opacity:1"
     d="m 0.5,12.5 h 19"
     id="path843"
     sodipodi:nodetypes="cc" />
  <path
     style="fill:none;stroke:#545454;stroke-width:1;stroke-linecap:round;stroke-linejoin:miter;stroke-miterlimit:4;stroke-dasharray:none;stroke-opacity:1"
     d="M 5.5,17 V 3"
     id="path845"
     sodipodi:nodetypes="cc" />
  <circle
     style="fill:none;stroke:#545454;stroke-width:1.5;stroke-linecap:round;stroke-linejoin:round;stroke-miterlimit:4;stroke-dasharray:none;stroke-opacity:1;fill-opacity:1"
     id="circle851"
     cx="12"
     cy="12"
     r="11.25" />
  <path
     style="fill:none;stroke:#1a81c4;stroke-width:1.5;stroke-linecap:round;stroke-linejoin:round;stroke-miterlimit:4;stroke-dasharray:none;stroke-opacity:1"
     d="m 3.5,14.5 c 0,0 1.3518787,-7 2.8518787,-7 1.5,0 1.6002744,8.070806 3.0698938,8.060622 C 11.421725,15.546763 10.617219,4.5 12.617219,4.5 c 2,0 1.314653,14.512198 2.814653,14.512198 1.201824,0 1.002258,-3.266618 1.988097,-4.624305 C 17.831854,13.820649 18.5,13 19,13"
     id="path865"
     sodipodi:nodetypes="cssssac" />
  <circle
     class="cls-3"
     cx="-38.5"
     cy="-8.499999"
     id="ellipse22-5"
     style="display:inline;fill:#bf2641;stroke-width:0.999999"
     r="7" />
  <path
     class="cls-4"
     d="m -33.960301,-12.5 -0.645181,-0.645178 c -0.401771,-0.40166 -1.053051,-0.40166 -1.454825,0 l -5.316089,5.3408197 2.100006,2.1001322 5.316089,-5.3409459 c 0.401658,-0.401772 0.401658,-1.053056 0,-1.454828 z"
     id="path25-6"
     style="display:inline;fill:#ffffff;stroke-width:0.999999"
     sodipodi:nodetypes="ccccccc" />
  <path
     id="polygon27"
     style="display:inline;fill:#ffffff;stroke-width:0.999999"
     d="m -42.500002,-4.5000005 h 3 c -0.779315,-0.772295 -2.28388,-2.2755338 -3,-2.9999996 z"
     sodipodi:nodetypes="cccc" />
  <g
     id="g843"
     transform="matrix(0.99997436,0,0,0.99999998,-1.9995898,-1.7976907)"
     style="display:inline;stroke-width:1.00001">
    <path
       class="cls-1"
       d="m 23.284177,18.488232 a 4.0667,4.0667 0 1 1 -4.066601,-4.0661 4.0666,4.0666 0 0 1 4.066601,4.0661 z"
       id="path11"
       style="fill:#ffffff;stroke-width:1.00001" />
    <path
       class="cls-4"
       d="m 25.707301,20.425 -1.2674,-0.907 -0.015,0.0269 a 5.1976,5.1976 0 0 0 0.0693,-0.6877 5.203,5.203 0 0 0 -0.0738,-0.7314 l 0.0074,0.0127 1.2576,-0.92 a 0.67,0.67 0 0 0 0.1848,-0.8745 l -1.1327,-1.9683 a 0.67,0.67 0 0 0 -0.8489,-0.2795 l -1.427701,0.6248 0.0124,0.0215 a 5.2207,5.2207 0 0 0 -1.2774,-0.757 l -0.1694,-1.5388 a 0.67,0.67 0 0 0 -0.6656,-0.5964 h -2.271 a 0.67,0.67 0 0 0 -0.6658,0.5964 l -0.17,1.5453 a 5.2192,5.2192 0 0 0 -1.3209,0.8047 l 0.018,-0.0322 -1.4342,-0.61 a 0.67,0.67 0 0 0 -0.846,0.2886 l -1.1118,1.98 a 0.67,0.67 0 0 0 0.1943,0.8725 l 1.2674,0.907 0.0276,-0.0492 a 5.2141,5.2141 0 0 0 -0.0709,0.7037 5.21,5.21 0 0 0 0.0767,0.7616 l -0.021,-0.0367 -1.2576,0.9205 a 0.67,0.67 0 0 0 -0.1851,0.8744 l 1.1326,1.9685 a 0.67,0.67 0 0 0 0.8489,0.2795 L 16,23 15.9707,22.9493 a 5.22,5.22 0 0 0 1.2933,0.7762 l 0.17,1.5487 a 0.67,0.67 0 0 0 0.6656,0.5964 h 2.271 a 0.67,0.67 0 0 0 0.6656,-0.5964 l 0.17,-1.5484 a 5.2191,5.2191 0 0 0 1.318001,-0.7963 l -0.0154,0.0271 1.4344,0.61 a 0.67,0.67 0 0 0 0.8459,-0.2885 l 1.1117,-1.98 a 0.67,0.67 0 0 0 -0.1935,-0.8731 z M 19.2359,21.3584 a 2.5012,2.5012 0 1 1 2.5012,-2.5012 2.5013,2.5013 0 0 1 -2.5012,2.5012 z"
       id="path25"
       style="fill:#bf2641;stroke-width:1.00001" />
  </g>
</svg>
