<?xml version="1.0" encoding="UTF-8" standalone="no"?>
<svg
   xmlns:dc="http://purl.org/dc/elements/1.1/"
   xmlns:cc="http://creativecommons.org/ns#"
   xmlns:rdf="http://www.w3.org/1999/02/22-rdf-syntax-ns#"
   xmlns:svg="http://www.w3.org/2000/svg"
   xmlns="http://www.w3.org/2000/svg"
   xmlns:sodipodi="http://sodipodi.sourceforge.net/DTD/sodipodi-0.dtd"
   xmlns:inkscape="http://www.inkscape.org/namespaces/inkscape"
   height="26"
   width="26"
   version="1.1"
   id="svg2"
   inkscape:version="0.48.4 r9939"
   sodipodi:docname="sim_settings.svg">
  <metadata
     id="metadata50">
    <rdf:RDF>
      <cc:Work
         rdf:about="">
        <dc:format>image/svg+xml</dc:format>
        <dc:type
           rdf:resource="http://purl.org/dc/dcmitype/StillImage" />
        <dc:title></dc:title>
      </cc:Work>
    </rdf:RDF>
  </metadata>
  <sodipodi:namedview
     pagecolor="#ffffff"
     bordercolor="#666666"
     borderopacity="1"
     objecttolerance="10"
     gridtolerance="10"
     guidetolerance="10"
     inkscape:pageopacity="0"
     inkscape:pageshadow="2"
     inkscape:window-width="1920"
     inkscape:window-height="1000"
     id="namedview48"
     showgrid="true"
     inkscape:zoom="22.961539"
     inkscape:cx="21.978887"
     inkscape:cy="14.372445"
     inkscape:window-x="0"
     inkscape:window-y="25"
     inkscape:window-maximized="1"
     inkscape:current-layer="svg2"
     inkscape:snap-to-guides="false"
     inkscape:snap-grids="true"
     showguides="true"
     inkscape:guide-bbox="true">
    <inkscape:grid
       type="xygrid"
       id="grid3006"
       empspacing="5"
       visible="true"
       enabled="true"
       snapvisiblegridlinesonly="true" />
  </sodipodi:namedview>
  <defs
     id="defs4">
    <style
       id="style3201"
       type="text/css">
    .fil0 {fill:#00923F}
   </style>
  </defs>
  <path
     id="path3281"
     d="M 23.256135,14.998175 V 11.21958 L 20.910799,10.828691 C 20.780503,10.307505 20.51991,9.7863203 20.129021,9.0045413 L 21.562281,7.0500948 18.826057,4.3138704 16.87161,5.7471309 C 16.220128,5.3562417 15.568646,5.0956489 15.047461,4.9653525 L 14.786868,2.6200171 H 11.008272 L 10.617383,4.9653525 C 9.9659012,5.0956489 9.4447152,5.3562417 8.7932342,5.7471309 L 6.8387876,4.3138704 4.1025629,7.0500948 5.405527,9.0045413 C 5.0146378,9.6560233 4.8843414,10.177209 4.6237486,10.828691 l -2.215039,0.260593 v 3.778594 l 2.3453354,0.39089 c 0.1302964,0.651482 0.3908892,1.172667 0.7817784,1.824149 l -1.3029641,1.954446 2.7362247,2.736225 1.9544462,-1.302964 c 0.521185,0.260593 1.1726668,0.521186 1.8241488,0.781778 l 0.390889,2.345336 h 3.908893 l 0.390889,-2.345336 c 0.651482,-0.130296 1.172668,-0.390889 1.82415,-0.781778 l 1.954446,1.43326 2.736224,-2.736224 -1.43326,-1.954446 c 0.390889,-0.651482 0.651482,-1.302964 0.781778,-1.82415 l 1.954447,-0.390889 z m -10.423713,1.954446 c -2.215039,0 -3.9088918,-1.693853 -3.9088918,-3.908892 0,-2.215038 1.6938528,-3.9088917 3.9088918,-3.9088917 2.215039,0 3.908892,1.6938537 3.908892,3.9088917 0,2.215039 -1.693853,3.908892 -3.908892,3.908892 z"
     inkscape:connector-curvature="0" />
</svg>
