<svg id="Слой_1" data-name="Слой 1"
  xmlns:cc="http://creativecommons.org/ns#"
  xmlns:rdf="http://www.w3.org/1999/02/22-rdf-syntax-ns#"
  xmlns="http://www.w3.org/2000/svg" viewBox="0 0 26 26">
  <metadata id="metadata43">
    <rdf:RDF>
      <cc:Work rdf:about="">
        <cc:license rdf:resource="http://creativecommons.org/licenses/by/4.0/" />
      </cc:Work>
      <cc:License rdf:about="http://creativecommons.org/licenses/by/4.0/">
        <cc:permits rdf:resource="http://creativecommons.org/ns#Reproduction" />
        <cc:permits rdf:resource="http://creativecommons.org/ns#Distribution" />
        <cc:requires rdf:resource="http://creativecommons.org/ns#Notice" />
        <cc:requires rdf:resource="http://creativecommons.org/ns#Attribution" />
        <cc:permits rdf:resource="http://creativecommons.org/ns#DerivativeWorks" />
      </cc:License>
    </rdf:RDF>
  </metadata>
  <defs>
    <style>.cls-1{fill:#b9b9b9;}.cls-2,.cls-3{fill:none;stroke-linecap:round;stroke-linejoin:round;stroke-width:1.25px;}.cls-2{stroke:#e61c50;}.cls-3{stroke:#1a81c4;}</style>
  </defs>
  <title>simulator</title>
  <path class="cls-1" d="M5.0046,1.0059H21.0081a4.0012,4.0012,0,0,1,4.0012,4.0012V21.013a4.0012,4.0012,0,0,1-4.0012,4.0012H5.0045a4.0011,4.0011,0,0,1-4.0011-4.0011V5.0071A4.0012,4.0012,0,0,1,5.0046,1.0059Z"/>
  <polyline class="cls-2" points="3.329 9.751 3.329 16.249 9.741 16.249 9.741 9.751"/>
  <polyline class="cls-2" points="16.195 16.249 16.195 9.751 9.784 9.751 9.784 16.249"/>
  <polyline class="cls-2" points="16.239 9.751 16.239 16.249 22.65 16.249 22.65 9.751"/>
  <path class="cls-3" d="M3.3292,9.751l.7247,3.6421A3.5368,3.5368,0,0,0,7.5078,16.24l2.2761.0095.6669-3.5777a4.0914,4.0914,0,0,1,2.1922-2.91h0l3.5957-.0108"/>
  <path class="cls-3" d="M16.2288,9.751l.7247,3.6421a3.5368,3.5368,0,0,0,3.454,2.8464l2.276.0095"/>
</svg>