<?xml version="1.0" encoding="UTF-8" standalone="no"?>
<!DOCTYPE svg PUBLIC "-//W3C//DTD SVG 1.1//EN" "http://www.w3.org/Graphics/SVG/1.1/DTD/svg11.dtd">
<svg width="100%" height="100%" viewBox="0 0 64 16" version="1.1"
     xmlns="http://www.w3.org/2000/svg"
     xmlns:xlink="http://www.w3.org/1999/xlink" xml:space="preserve"
     xmlns:rdf="http://www.w3.org/1999/02/22-rdf-syntax-ns#"
     xmlns:cc="http://creativecommons.org/ns#"
     xmlns:dc="http://purl.org/dc/elements/1.1/"
     xmlns:serif="http://www.serif.com/" style="fill-rule:evenodd;clip-rule:evenodd;stroke-linecap:round;stroke-linejoin:round;stroke-miterlimit:1.5;">
     <metadata id="metadata43">
          <rdf:RDF>
               <cc:Work rdf:about="">
                    <dc:format>image/svg+xml</dc:format>
                    <dc:type rdf:resource="http://purl.org/dc/dcmitype/StillImage" />
                    <dc:title></dc:title>
                    <cc:license rdf:resource="http://creativecommons.org/licenses/by/4.0/" />
               </cc:Work>
               <cc:License rdf:about="http://creativecommons.org/licenses/by/4.0/">
                    <cc:permits rdf:resource="http://creativecommons.org/ns#Reproduction" />
                    <cc:permits rdf:resource="http://creativecommons.org/ns#Distribution" />
                    <cc:requires rdf:resource="http://creativecommons.org/ns#Notice" />
                    <cc:requires rdf:resource="http://creativecommons.org/ns#Attribution" />
                    <cc:permits rdf:resource="http://creativecommons.org/ns#DerivativeWorks" />
               </cc:License>
          </rdf:RDF>
     </metadata>
     <path d="M36.635,8c0,-1.656 -1.344,-3 -3,-3l-3,0c-1.656,0 -3,1.344 -3,3c0,1.656 1.344,3 3,3l3,0c1.656,0 3,-1.344 3,-3Z" style="fill:#001bff;stroke:#000;stroke-width:0.09px;"/>
     <path d="M19,8c0,-1.656 -1.344,-3 -3,-3l-12,0c-1.656,0 -3,1.344 -3,3c0,1.656 1.344,3 3,3l12,0c1.656,0 3,-1.344 3,-3Z" style="fill:#001bff;stroke:#000;stroke-width:0.09px;"/>
     <path d="M63,8c0,-1.656 -1.344,-3 -3,-3l-12,0c-1.656,0 -3,1.344 -3,3c0,1.656 1.344,3 3,3l12,0c1.656,0 3,-1.344 3,-3Z" style="fill:#001bff;stroke:#000;stroke-width:0.09px;"/>
</svg>