<?xml version="1.0" encoding="UTF-8" standalone="no"?><!DOCTYPE svg PUBLIC "-//W3C//DTD SVG 1.1//EN" "http://www.w3.org/Graphics/SVG/1.1/DTD/svg11.dtd"><svg width="100%" height="100%" viewBox="0 0 64 16" version="1.1" xmlns="http://www.w3.org/2000/svg" xmlns:xlink="http://www.w3.org/1999/xlink" xml:space="preserve" xmlns:serif="http://www.serif.com/" style="fill-rule:evenodd;clip-rule:evenodd;stroke-linecap:round;stroke-linejoin:round;stroke-miterlimit:1.5;"><path d="M41,8c0,-1.648 -1.338,-2.987 -2.987,-2.987l-12.026,0c-1.649,0 -2.987,1.339 -2.987,2.987c0,1.648 1.338,2.987 2.987,2.987l12.026,0c1.649,0 2.987,-1.339 2.987,-2.987Z" style="fill:#001bff;stroke:#000;stroke-width:0.09px;"/><path d="M19,8c0,-1.656 -1.344,-3 -3,-3l-12,0c-1.656,0 -3,1.344 -3,3c0,1.656 1.344,3 3,3l12,0c1.656,0 3,-1.344 3,-3Z" style="fill:#001bff;stroke:#000;stroke-width:0.09px;"/><path d="M63,8c0,-1.648 -1.338,-2.987 -2.987,-2.987l-12.026,0c-1.649,0 -2.987,1.339 -2.987,2.987c0,1.648 1.338,2.987 2.987,2.987l12.026,0c1.649,0 2.987,-1.339 2.987,-2.987Z" style="fill:#001bff;stroke:#000;stroke-width:0.09px;"/></svg>