<svg id="Слой_1" data-name="Слой 1"
  xmlns:dc="http://purl.org/dc/elements/1.1/"
  xmlns:cc="http://creativecommons.org/ns#"
  xmlns:rdf="http://www.w3.org/1999/02/22-rdf-syntax-ns#"
  xmlns="http://www.w3.org/2000/svg" viewBox="0 0 26 26">
  <metadata id="metadata43">
    <rdf:RDF>
      <cc:Work rdf:about="">
        <cc:license rdf:resource="http://creativecommons.org/licenses/by-sa/4.0/" />
        <dc:format>image/svg+xml</dc:format>
        <dc:type rdf:resource="http://purl.org/dc/dcmitype/StillImage" />
        <dc:title>add_arc</dc:title>
      </cc:Work>
      <cc:License rdf:about="http://creativecommons.org/licenses/by-sa/4.0/">
        <cc:permits rdf:resource="http://creativecommons.org/ns#Reproduction" />
        <cc:permits rdf:resource="http://creativecommons.org/ns#Distribution" />
        <cc:requires rdf:resource="http://creativecommons.org/ns#Notice" />
        <cc:requires rdf:resource="http://creativecommons.org/ns#Attribution" />
        <cc:permits rdf:resource="http://creativecommons.org/ns#DerivativeWorks" />
        <cc:requires rdf:resource="http://creativecommons.org/ns#ShareAlike" />
      </cc:License>
    </rdf:RDF>
  </metadata>
  <defs>
    <style>.cls-1{fill:#b9b9b9;}.cls-2{fill:#1a81c4;}.cls-3{fill:#fff;}</style>
  </defs>
  <title>svg_file</title>
  <rect class="cls-1" x="3.0637" y="2.0043" width="21.9351" height="21.9914" rx="3.6605"/>
  <rect class="cls-2" x="1.0012" y="6.5006" width="18.7099" height="9.2299"/>
  <path class="cls-3" d="M3.07,12.8887H1.9971V11.8525H3.07Z"/>
  <path class="cls-3" d="M7.1182,11.582a.504.504,0,0,0-.2129-.414,2.1206,2.1206,0,0,0-.794-.2891,3.2824,3.2824,0,0,1-1.3008-.5176,1.0848,1.0848,0,0,1-.4414-.914,1.3032,1.3032,0,0,1,.51-1.0313,2.0266,2.0266,0,0,1,1.3438-.4267,2.1011,2.1011,0,0,1,1.3945.4336,1.2832,1.2832,0,0,1,.4941,1.0732l-.0088.0273H7.0693a.68.68,0,0,0-.2255-.5117.8734.8734,0,0,0-.6211-.2129.8932.8932,0,0,0-.5948.1748.5481.5481,0,0,0-.2041.43.4817.4817,0,0,0,.1934.4024,2.0655,2.0655,0,0,0,.7822.2646,3.2865,3.2865,0,0,1,1.3418.5264,1.1119,1.1119,0,0,1,.4365.9267,1.26,1.26,0,0,1-.5341,1.0537,2.2674,2.2674,0,0,1-1.4082.4053,2.1465,2.1465,0,0,1-1.4766-.48,1.3557,1.3557,0,0,1-.5137-1.1026l.0088-.0264h1.002a.7188.7188,0,0,0,.3017.6084,1.2038,1.2038,0,0,0,.6914.1915,1.1075,1.1075,0,0,0,.6436-.16A.5014.5014,0,0,0,7.1182,11.582Z"/>
  <path class="cls-3" d="M10.8125,11.2617l.0791.3906h.0273l.084-.3906.9532-3.1836h1.1132l-1.7031,4.8106h-.9355L8.7188,8.0781H9.832Z"/>
  <path class="cls-3" d="M13.49,10.55a3.1315,3.1315,0,0,1,.502-1.8535,1.61,1.61,0,0,1,1.3916-.707,1.5114,1.5114,0,0,1,.7568.1845,1.5977,1.5977,0,0,1,.5518.5313l.1064-.627h.8955v4.8106a1.8158,1.8158,0,0,1-.5722,1.4355,2.3664,2.3664,0,0,1-1.6231.5069,3.177,3.177,0,0,1-.7558-.1,3.4991,3.4991,0,0,1-.7334-.2646l.23-.8486a2.5879,2.5879,0,0,0,.5879.2148,2.8033,2.8033,0,0,0,.6621.0781,1.2333,1.2333,0,0,0,.8565-.2509,1.0081,1.0081,0,0,0,.2705-.7715v-.4932a1.5212,1.5212,0,0,1-.5342.4375,1.6052,1.6052,0,0,1-.708.1494,1.6524,1.6524,0,0,1-1.3828-.6455,2.6766,2.6766,0,0,1-.502-1.6933Zm1.0782.0938a1.8947,1.8947,0,0,0,.2636,1.0605.9131.9131,0,0,0,.8184.3975,1.0982,1.0982,0,0,0,.583-.1446,1.0612,1.0612,0,0,0,.3838-.415V9.4346a1.1509,1.1509,0,0,0-.3887-.4112,1.0458,1.0458,0,0,0-.5693-.1494.8841.8841,0,0,0-.8223.4668,2.4018,2.4018,0,0,0-.2685,1.209Z"/>
</svg>