<?xml version="1.0" encoding="UTF-8" standalone="no"?>
<svg
   xmlns:dc="http://purl.org/dc/elements/1.1/"
   xmlns:cc="http://creativecommons.org/ns#"
   xmlns:rdf="http://www.w3.org/1999/02/22-rdf-syntax-ns#"
   xmlns:svg="http://www.w3.org/2000/svg"
   xmlns="http://www.w3.org/2000/svg"
   xmlns:sodipodi="http://sodipodi.sourceforge.net/DTD/sodipodi-0.dtd"
   xmlns:inkscape="http://www.inkscape.org/namespaces/inkscape"
   height="26"
   width="26"
   version="1.0"
   id="svg4669"
   inkscape:version="0.48.1 "
   sodipodi:docname="svg_file.svg">
  <metadata
     id="metadata4832">
    <rdf:RDF>
      <cc:Work
         rdf:about="">
        <dc:format>image/svg+xml</dc:format>
        <dc:type
           rdf:resource="http://purl.org/dc/dcmitype/StillImage" />
        <dc:title />
      </cc:Work>
    </rdf:RDF>
  </metadata>
  <sodipodi:namedview
     pagecolor="#ffffff"
     bordercolor="#666666"
     borderopacity="1"
     objecttolerance="10"
     gridtolerance="10"
     guidetolerance="10"
     inkscape:pageopacity="0"
     inkscape:pageshadow="2"
     inkscape:window-width="1280"
     inkscape:window-height="968"
     id="namedview4830"
     showgrid="false"
     inkscape:zoom="16.258639"
     inkscape:cx="32.139427"
     inkscape:cy="12.79963"
     inkscape:window-x="-4"
     inkscape:window-y="-4"
     inkscape:window-maximized="1"
     inkscape:current-layer="svg4669" />
  <defs
     id="defs4671">
    <radialGradient
       id="p"
       gradientUnits="userSpaceOnUse"
       cy="5.3000002"
       cx="4"
       gradientTransform="matrix(1.886,0,0,1.1765,-153.54,-4.2353)"
       r="17">
      <stop
         stop-color="#fff"
         offset="0"
         id="stop4674" />
      <stop
         stop-color="#fff"
         stop-opacity="0"
         offset="1"
         id="stop4676" />
    </radialGradient>
    <linearGradient
       id="k"
       y2="9.6875"
       gradientUnits="userSpaceOnUse"
       x2="-24.75"
       gradientTransform="translate(-90,0)"
       y1="11.566"
       x1="-26.754">
      <stop
         stop-color="#fff"
         offset="0"
         id="stop4679" />
      <stop
         stop-color="#fff"
         stop-opacity="0"
         offset="1"
         id="stop4681" />
    </linearGradient>
    <filter
       id="j"
       color-interpolation-filters="sRGB">
      <feGaussianBlur
         stdDeviation="1.0394514"
         id="feGaussianBlur4684" />
    </filter>
    <radialGradient
       id="q"
       gradientUnits="userSpaceOnUse"
       cy="112.3"
       cx="102"
       gradientTransform="translate(-221.13,-24.594)"
       r="139.56">
      <stop
         stop-color="#00537d"
         offset="0"
         id="stop4687" />
      <stop
         stop-color="#186389"
         offset=".0151"
         id="stop4689" />
      <stop
         stop-color="#558ca8"
         offset=".0558"
         id="stop4691" />
      <stop
         stop-color="#89afc3"
         offset=".0964"
         id="stop4693" />
      <stop
         stop-color="#b3ccd8"
         offset=".1357"
         id="stop4695" />
      <stop
         stop-color="#d4e2e9"
         offset=".1737"
         id="stop4697" />
      <stop
         stop-color="#ecf2f5"
         offset=".20990"
         id="stop4699" />
      <stop
         stop-color="#fafcfd"
         offset=".24350"
         id="stop4701" />
      <stop
         stop-color="#fff"
         offset=".27220"
         id="stop4703" />
    </radialGradient>
    <radialGradient
       id="r"
       gradientUnits="userSpaceOnUse"
       cy="112.3"
       cx="102"
       gradientTransform="matrix(0.97872,0,0,0.98182,-219.77,-23.43)"
       r="139.56">
      <stop
         stop-color="#535557"
         offset="0"
         id="stop4706" />
      <stop
         stop-color="#898a8c"
         offset=".11366"
         id="stop4708" />
      <stop
         stop-color="#ececec"
         offset=".20297"
         id="stop4710" />
      <stop
         stop-color="#fafafa"
         offset=".23630"
         id="stop4712" />
      <stop
         stop-color="#fff"
         offset=".27220"
         id="stop4714" />
      <stop
         stop-color="#fafafa"
         offset=".53130"
         id="stop4716" />
      <stop
         stop-color="#ebecec"
         offset=".84490"
         id="stop4718" />
      <stop
         stop-color="#e1e2e3"
         offset="1"
         id="stop4720" />
    </radialGradient>
    <linearGradient
       id="l"
       y2="94.537003"
       gradientUnits="userSpaceOnUse"
       x2="86.536003"
       y1="102.34"
       x1="94.344002">
      <stop
         stop-color="#fff"
         offset="0"
         id="stop4723" />
      <stop
         stop-color="#555753"
         offset="1"
         id="stop4725" />
    </linearGradient>
    <linearGradient
       id="m"
       y2="94.586998"
       gradientUnits="userSpaceOnUse"
       x2="86.586998"
       y1="103"
       x1="95">
      <stop
         stop-color="#fff"
         offset="0"
         id="stop4728" />
      <stop
         stop-color="#555753"
         offset="1"
         id="stop4730" />
    </linearGradient>
    <linearGradient
       id="n"
       y2="95.292999"
       gradientUnits="userSpaceOnUse"
       x2="87.292999"
       y1="103"
       x1="95">
      <stop
         stop-color="#fff"
         offset="0"
         id="stop4733" />
      <stop
         stop-color="#393b38"
         offset="1"
         id="stop4735" />
    </linearGradient>
    <linearGradient
       id="o"
       y2="96"
       gradientUnits="userSpaceOnUse"
       x2="88"
       y1="104"
       x1="96">
      <stop
         stop-color="#888a85"
         offset="0"
         id="stop4738" />
      <stop
         stop-color="#8c8e89"
         offset=".0072"
         id="stop4740" />
      <stop
         stop-color="#abaca9"
         offset=".0673"
         id="stop4742" />
      <stop
         stop-color="#c5c6c4"
         offset=".1347"
         id="stop4744" />
      <stop
         stop-color="#dbdbda"
         offset=".2115"
         id="stop4746" />
      <stop
         stop-color="#ebebeb"
         offset=".3012"
         id="stop4748" />
      <stop
         stop-color="#f7f7f6"
         offset=".4122"
         id="stop4750" />
      <stop
         stop-color="#fdfdfd"
         offset=".5679"
         id="stop4752" />
      <stop
         stop-color="#fff"
         offset="1"
         id="stop4754" />
    </linearGradient>
    <filter
       id="filter3100"
       inkscape:menu-tooltip="In and out glow with a possible offset and colorizable flood"
       inkscape:menu="Shadows and Glows"
       inkscape:label="Cutout Glow"
       color-interpolation-filters="sRGB">
      <feOffset
         id="feOffset3102"
         dy="3"
         dx="3" />
      <feGaussianBlur
         id="feGaussianBlur3104"
         result="result8"
         stdDeviation="3" />
      <feFlood
         id="feFlood3106"
         flood-color="rgb(0,0,0)"
         flood-opacity="1"
         in="result8"
         result="result10" />
      <feComposite
         id="feComposite3108"
         in2="SourceGraphic"
         operator="in"
         in="result10"
         result="result9" />
      <feBlend
         id="feBlend3110"
         in2="result9"
         mode="normal"
         in="result8" />
    </filter>
  </defs>
  <g
     transform="matrix(0.24200584,0,0,0.21029174,51.199785,4.9137192)"
     id="g4756">
    <path
       d="m -141.47,4 c -0.86,0 -1.53,0.6731 -1.53,1.5312 v 36.938 c 0,0.85817 0.67308,1.5312 1.5312,1.5312 h 30.938 c 0.86,0 1.53,-0.673 1.53,-1.531 v -24.969 c 0,-1.392 -0.48698,-4.2995 -2.3438,-6.1562 l -5,-5 c -1.86,-1.857 -4.77,-2.344 -6.16,-2.344 h -18.969 z"
       id="path4758"
       inkscape:connector-curvature="0"
       style="opacity:0.68015998;fill:url(#p)" />
    <path
       d="m -141.47,4.5 c -0.58317,0 -1.0312,0.44808 -1.0312,1.0312 v 36.938 c 0,0.58316 0.44809,1.0312 1.0312,1.0312 h 30.938 c 0.58317,0 1.0312,-0.44809 1.0312,-1.0312 v -24.969 c 0,-1.279 -0.48047,-4.1055 -2.1875,-5.8125 l -5,-5 c -1.7,-1.7075 -4.53,-2.188 -5.81,-2.188 h -18.969 z"
       id="path4760"
       inkscape:connector-curvature="0"
       style="fill:none;stroke:url(#k)" />
    <path
       d="m 23,9 0.04082,112 h 61.131 c 0.53,0 1.039,-0.211 1.414,-0.586 l 32.824,-32.824 c 0.38,-0.375 0.59,-0.884 0.59,-1.414 V 9.016 h -96 z"
       transform="matrix(1.0417,0,0,1.0357,-231.09,-27.915)"
       id="path4762"
       inkscape:connector-curvature="0"
       style="opacity:0.5;filter:url(#j)" />
    <path
       d="m -205.13,-16.594 v 112 h 61.172 c 0.53,0 1.039,-0.211 1.414,-0.586 l 32.828,-32.828 c 0.375,-0.375 0.586,-0.884 0.586,-1.414 v -77.172 h -96 z"
       id="path4764"
       inkscape:connector-curvature="0"
       style="fill:url(#q)" />
    <path
       d="m -202.16,-14.594 c -0.53927,0 -0.97872,0.44084 -0.97872,0.98182 v 106.04 c 0,0.54197 0.43945,0.98182 0.97872,0.98182 h 57.913 c 0.2574,0 0.50991,-0.10407 0.69195,-0.28767 l 32.13,-32.231 c 0.18303,-0.1836 0.28677,-0.43593 0.28677,-0.69414 v -73.805 c 0,-0.54098 -0.43847,-0.98182 -0.97872,-0.98182 h -90.043 z"
       id="path4766"
       inkscape:connector-curvature="0"
       style="fill:url(#r)" />
    <g
       transform="translate(-221.13,-24.594)"
       id="g4768">
      <path
         d="M 111.41,86.586 C 111.66,86.336 93.035,93 88,93 c -1.654,0 -3,1.346 -3,3 0,5.035 -6.664,23.664 -6.414,23.414 l 32.828,-32.828 z"
         id="path4770"
         inkscape:connector-curvature="0"
         style="opacity:0.1;fill:url(#l)" />
      <path
         d="M 111.41,86.586 C 111.79,86.211 97.444,94 88,94 c -1.103,0 -2,0.897 -2,2 0,9.444 -7.789,23.789 -7.414,23.414 l 32.828,-32.828 z"
         id="path4772"
         inkscape:connector-curvature="0"
         style="opacity:0.1;fill:url(#m)" />
      <path
         d="M 111.41,86.586 C 111.65,86.347 97.807,95 88,95 c -0.553,0 -1,0.447 -1,1 0,9.807 -8.653,23.653 -8.414,23.414 l 32.828,-32.828 z"
         id="path4774"
         inkscape:connector-curvature="0"
         style="opacity:0.1;fill:url(#n)" />
      <path
         d="m 78.586,119.41 c 0,0 11.914,-9.914 17.414,-15.414 5.5,-5.5 15.414,-17.414 15.414,-17.414 0,0 -13.164,9.414 -23.414,9.414 0,10.25 -9.414,23.414 -9.414,23.414 z"
         id="path4776"
         inkscape:connector-curvature="0"
         style="fill:url(#o)" />
    </g>
  </g>
  <g
     id="g3106"
     transform="matrix(0.54184955,-0.18865651,0.20152401,0.57880694,-0.27753713,16.470177)">
    <text
       sodipodi:linespacing="125%"
       id="text3211-1"
       y="5.4973297"
       x="4.5629101"
       style="font-size:20px;font-style:normal;font-variant:normal;font-weight:bold;font-stretch:normal;line-height:125%;letter-spacing:0px;word-spacing:0px;fill:#808000;fill-opacity:1;stroke:none;filter:url(#filter3100);font-family:DejaVu Sans;-inkscape-font-specification:Sans Bold"
       xml:space="preserve"><tspan
         style="font-style:normal;font-variant:normal;font-weight:bold;font-stretch:normal;fill:#808000;font-family:Comic Sans MS;-inkscape-font-specification:Comic Sans MS Bold"
         y="5.4973297"
         x="4.5629101"
         id="tspan3213-7"
         sodipodi:role="line">SVG</tspan></text>
    <text
       sodipodi:linespacing="125%"
       id="text3211"
       y="4.0100937"
       x="3.428534"
       style="font-size:20px;font-style:normal;font-variant:normal;font-weight:bold;font-stretch:normal;line-height:125%;letter-spacing:0px;word-spacing:0px;fill:#808000;fill-opacity:1;stroke:none;font-family:DejaVu Sans;-inkscape-font-specification:Sans Bold"
       xml:space="preserve"><tspan
         style="font-style:normal;font-variant:normal;font-weight:bold;font-stretch:normal;fill:#808000;font-family:Comic Sans MS;-inkscape-font-specification:Comic Sans MS Bold"
         y="4.0100937"
         x="3.428534"
         id="tspan3213"
         sodipodi:role="line">SVG</tspan></text>
  </g>
</svg>
