<?xml version="1.0" encoding="UTF-8" standalone="no"?>
<svg
   xmlns:dc="http://purl.org/dc/elements/1.1/"
   xmlns:cc="http://creativecommons.org/ns#"
   xmlns:rdf="http://www.w3.org/1999/02/22-rdf-syntax-ns#"
   xmlns:svg="http://www.w3.org/2000/svg"
   xmlns="http://www.w3.org/2000/svg"
   xmlns:sodipodi="http://sodipodi.sourceforge.net/DTD/sodipodi-0.dtd"
   xmlns:inkscape="http://www.inkscape.org/namespaces/inkscape"
   id="Слой_1"
   data-name="Слой 1"
   viewBox="0 0 24 24"
   version="1.1"
   sodipodi:docname="svg_file.svg"
   inkscape:version="1.0.1 (3bc2e813f5, 2020-09-07)">
  <sodipodi:namedview
     pagecolor="#ffffff"
     bordercolor="#666666"
     borderopacity="1"
     objecttolerance="10"
     gridtolerance="10"
     guidetolerance="10"
     inkscape:pageopacity="0"
     inkscape:pageshadow="2"
     inkscape:window-width="1609"
     inkscape:window-height="1286"
     id="namedview30"
     showgrid="true"
     inkscape:zoom="27.961538"
     inkscape:cx="9.5553252"
     inkscape:cy="13.730206"
     inkscape:window-x="0"
     inkscape:window-y="37"
     inkscape:window-maximized="0"
     inkscape:document-rotation="0"
     inkscape:current-layer="Слой_1">
    <inkscape:grid
       type="xygrid"
       id="grid_kicad"
       spacingx="0.5"
       spacingy="0.5"
       color="#9999ff"
       opacity="0.13"
       empspacing="2" />
  </sodipodi:namedview>
  <metadata
     id="metadata43">
    <rdf:RDF>
      <cc:Work
         rdf:about="">
        <cc:license
           rdf:resource="http://creativecommons.org/licenses/by-sa/4.0/" />
        <dc:format>image/svg+xml</dc:format>
        <dc:type
           rdf:resource="http://purl.org/dc/dcmitype/StillImage" />
        <dc:title>add_arc</dc:title>
      </cc:Work>
      <cc:License
         rdf:about="http://creativecommons.org/licenses/by-sa/4.0/">
        <cc:permits
           rdf:resource="http://creativecommons.org/ns#Reproduction" />
        <cc:permits
           rdf:resource="http://creativecommons.org/ns#Distribution" />
        <cc:requires
           rdf:resource="http://creativecommons.org/ns#Notice" />
        <cc:requires
           rdf:resource="http://creativecommons.org/ns#Attribution" />
        <cc:permits
           rdf:resource="http://creativecommons.org/ns#DerivativeWorks" />
        <cc:requires
           rdf:resource="http://creativecommons.org/ns#ShareAlike" />
      </cc:License>
    </rdf:RDF>
  </metadata>
  <defs
     id="defs27305">
    <style
       id="style27303">.cls-1{fill:#b9b9b9;}.cls-2{fill:#1a81c4;}.cls-3{fill:#fff;}</style>
  </defs>
  <title
     id="title27307">svg_file</title>
  <rect
     class="cls-1"
     x="2.0637"
     y="1.0043001"
     width="21.935101"
     height="21.9914"
     rx="3.6605"
     id="rect27309" />
  <rect
     class="cls-2"
     x="0.0011999607"
     y="5.5005999"
     width="18.7099"
     height="9.2299004"
     id="rect27311" />
  <path
     class="cls-3"
     d="M 2.07,11.8887 H 0.9971 V 10.8525 H 2.07 Z"
     id="path27313" />
  <path
     class="cls-3"
     d="M 6.1182,10.582 A 0.504,0.504 0 0 0 5.9053,10.168 2.1206,2.1206 0 0 0 5.1113,9.8789 3.2824,3.2824 0 0 1 3.8105,9.3613 1.0848,1.0848 0 0 1 3.3691,8.4473 1.3032,1.3032 0 0 1 3.8791,7.416 2.0266,2.0266 0 0 1 5.2229,6.9893 2.1011,2.1011 0 0 1 6.6174,7.4229 1.2832,1.2832 0 0 1 7.1115,8.4961 L 7.1027,8.5234 H 6.0693 A 0.68,0.68 0 0 0 5.8438,8.0117 0.8734,0.8734 0 0 0 5.2227,7.7988 0.8932,0.8932 0 0 0 4.6279,7.9736 0.5481,0.5481 0 0 0 4.4238,8.4036 0.4817,0.4817 0 0 0 4.6172,8.806 2.0655,2.0655 0 0 0 5.3994,9.0706 3.2865,3.2865 0 0 1 6.7412,9.597 1.1119,1.1119 0 0 1 7.1777,10.5237 1.26,1.26 0 0 1 6.6436,11.5774 2.2674,2.2674 0 0 1 5.2354,11.9827 2.1465,2.1465 0 0 1 3.7588,11.5027 1.3557,1.3557 0 0 1 3.2451,10.4001 l 0.0088,-0.0264 h 1.002 a 0.7188,0.7188 0 0 0 0.3017,0.6084 1.2038,1.2038 0 0 0 0.6914,0.1915 1.1075,1.1075 0 0 0 0.6436,-0.16 0.5014,0.5014 0 0 0 0.2256,-0.4316 z"
     id="path27315" />
  <path
     class="cls-3"
     d="m 9.8125,10.2617 0.0791,0.3906 h 0.0273 l 0.084,-0.3906 0.9532,-3.1836 h 1.1132 l -1.7031,4.8106 H 9.4307 L 7.7188,7.0781 H 8.832 Z"
     id="path27317" />
  <path
     class="cls-3"
     d="m 12.49,9.55 a 3.1315,3.1315 0 0 1 0.502,-1.8535 1.61,1.61 0 0 1 1.3916,-0.707 1.5114,1.5114 0 0 1 0.7568,0.1845 1.5977,1.5977 0 0 1 0.5518,0.5313 l 0.1064,-0.627 h 0.8955 v 4.8106 a 1.8158,1.8158 0 0 1 -0.5722,1.4355 2.3664,2.3664 0 0 1 -1.6231,0.5069 3.177,3.177 0 0 1 -0.7558,-0.1 3.4991,3.4991 0 0 1 -0.7334,-0.2646 l 0.23,-0.8486 a 2.5879,2.5879 0 0 0 0.5879,0.2148 2.8033,2.8033 0 0 0 0.6621,0.0781 1.2333,1.2333 0 0 0 0.8565,-0.2509 1.0081,1.0081 0 0 0 0.2705,-0.7715 v -0.4932 a 1.5212,1.5212 0 0 1 -0.5342,0.4375 1.6052,1.6052 0 0 1 -0.708,0.1494 1.6524,1.6524 0 0 1 -1.3828,-0.6455 2.6766,2.6766 0 0 1 -0.502,-1.6933 z m 1.0782,0.0938 a 1.8947,1.8947 0 0 0 0.2636,1.0605 0.9131,0.9131 0 0 0 0.8184,0.3975 1.0982,1.0982 0 0 0 0.583,-0.1446 1.0612,1.0612 0 0 0 0.3838,-0.415 V 8.4346 A 1.1509,1.1509 0 0 0 15.2283,8.0234 1.0458,1.0458 0 0 0 14.659,7.874 0.8841,0.8841 0 0 0 13.8367,8.3408 2.4018,2.4018 0 0 0 13.5682,9.5498 Z"
     id="path27319" />
</svg>
