<?xml version="1.0" encoding="UTF-8" standalone="no"?>
<!-- Created with Inkscape (http://www.inkscape.org/) -->

<svg
   xmlns:dc="http://purl.org/dc/elements/1.1/"
   xmlns:cc="http://creativecommons.org/ns#"
   xmlns:rdf="http://www.w3.org/1999/02/22-rdf-syntax-ns#"
   xmlns:svg="http://www.w3.org/2000/svg"
   xmlns="http://www.w3.org/2000/svg"
   xmlns:xlink="http://www.w3.org/1999/xlink"
   xmlns:sodipodi="http://sodipodi.sourceforge.net/DTD/sodipodi-0.dtd"
   xmlns:inkscape="http://www.inkscape.org/namespaces/inkscape"
   width="26"
   height="26"
   id="svg2"
   version="1.1"
   inkscape:version="0.48.4 r9939"
   sodipodi:docname="svg_file.svg">
  <defs
     id="defs4">
    <linearGradient
       id="linearGradient3775">
      <stop
         style="stop-color:#ffffff;stop-opacity:1;"
         offset="0"
         id="stop3777" />
      <stop
         style="stop-color:#e1e1e1;stop-opacity:1;"
         offset="1"
         id="stop3779" />
    </linearGradient>
    <linearGradient
       id="linearGradient3767">
      <stop
         style="stop-color:#ffffff;stop-opacity:1;"
         offset="0"
         id="stop3769" />
      <stop
         style="stop-color:#dcdcdc;stop-opacity:1;"
         offset="1"
         id="stop3771" />
    </linearGradient>
    <linearGradient
       inkscape:collect="always"
       xlink:href="#linearGradient3775"
       id="linearGradient3781"
       x1="20"
       y1="21"
       x2="2.5"
       y2="1.5"
       gradientUnits="userSpaceOnUse" />
    <filter
       inkscape:collect="always"
       id="filter3899">
      <feGaussianBlur
         inkscape:collect="always"
         stdDeviation="0.375"
         id="feGaussianBlur3901" />
    </filter>
    <filter
       inkscape:collect="always"
       id="filter3952"
       x="-0.12"
       width="1.24"
       y="-0.12"
       height="1.24">
      <feGaussianBlur
         inkscape:collect="always"
         stdDeviation="0.35"
         id="feGaussianBlur3954" />
    </filter>
    <radialGradient
       inkscape:collect="always"
       xlink:href="#linearGradient3767"
       id="radialGradient3975"
       cx="16.666658"
       cy="6.0666614"
       fx="16.666658"
       fy="6.0666614"
       r="3.5"
       gradientUnits="userSpaceOnUse"
       gradientTransform="matrix(0.85714311,-0.85714265,1.4285709,1.4285716,-4.9523675,12.619044)" />
  </defs>
  <sodipodi:namedview
     id="base"
     pagecolor="#ffffff"
     bordercolor="#666666"
     borderopacity="1.0"
     inkscape:pageopacity="0"
     inkscape:pageshadow="2"
     inkscape:zoom="30.731948"
     inkscape:cx="14.128792"
     inkscape:cy="16.970051"
     inkscape:document-units="px"
     inkscape:current-layer="layer1"
     showgrid="true"
     inkscape:showpageshadow="false"
     inkscape:window-width="1366"
     inkscape:window-height="744"
     inkscape:window-x="0"
     inkscape:window-y="24"
     inkscape:window-maximized="1">
    <inkscape:grid
       type="xygrid"
       id="grid2985"
       empspacing="2"
       visible="true"
       enabled="true"
       snapvisiblegridlinesonly="true"
       spacingx="0.5px"
       spacingy="0.5px" />
  </sodipodi:namedview>
  <metadata
     id="metadata7">
    <rdf:RDF>
      <cc:Work
         rdf:about="">
        <dc:format>image/svg+xml</dc:format>
        <dc:type
           rdf:resource="http://purl.org/dc/dcmitype/StillImage" />
        <dc:title />
      </cc:Work>
    </rdf:RDF>
  </metadata>
  <g
     inkscape:label="Layer 1"
     inkscape:groupmode="layer"
     id="layer1"
     transform="translate(0,-1026.3622)">
    <path
       sodipodi:nodetypes="cccccc"
       inkscape:connector-curvature="0"
       id="path3889"
       d="m 1.5,0.5 15,0 c 3,1 7,5 8,8 l 0,17 -23,0 z"
       style="opacity:0.5;fill:#000000;fill-opacity:1;stroke:none;filter:url(#filter3899)"
       transform="translate(0,1026.3622)" />
    <path
       style="fill:url(#linearGradient3781);fill-opacity:1;stroke:none"
       d="m 2,1 14,0 c 3,1 7,5 8,8 l 0,16 -22,0 z"
       id="rect3761"
       inkscape:connector-curvature="0"
       sodipodi:nodetypes="cccccc"
       transform="translate(0,1026.3622)" />
    <path
       sodipodi:type="star"
       style="fill:none;stroke:#4d4d4d;stroke-width:1;stroke-linecap:butt;stroke-linejoin:round;stroke-miterlimit:4;stroke-opacity:1;stroke-dasharray:none"
       id="path3847"
       sodipodi:sides="5"
       sodipodi:cx="18"
       sodipodi:cy="10"
       sodipodi:r1="5.4083271"
       sodipodi:r2="2.7041636"
       sodipodi:arg1="0.98279372"
       sodipodi:arg2="1.6111123"
       inkscape:flatsided="false"
       inkscape:rounded="0"
       inkscape:randomized="0"
       d="m 21,14.5 -3.108991,-1.798034 -3.243712,1.54178 0.7493,-3.51245 L 12.927915,8.1227792 16.5,7.7499999 18.217983,4.5960676 19.676352,7.878127 23.206805,8.5374069 20.536042,10.938611 z"
       inkscape:transform-center-x="-0.018109567"
       inkscape:transform-center-y="-0.49920035"
       transform="matrix(0.9995655,-0.02947554,0.02947554,0.9995655,-5.7914932,1025.7207)" />
    <path
       sodipodi:nodetypes="cccc"
       transform="translate(0,1026.3622)"
       inkscape:connector-curvature="0"
       id="path3783"
       d="m 16,1 c 1,0.5 7.5,7 8,8 C 22,8 19,8 17,8 17,6 17,3 16,1 z"
       style="opacity:0.5;fill:#373737;fill-opacity:1;stroke:none;filter:url(#filter3952)" />
    <path
       style="fill:url(#radialGradient3975);fill-opacity:1;stroke:none"
       d="m 16,1 c 3,1 7,5 8,8 C 22.5,8 21,7 18,7 18,4 17,2.5 16,1 z"
       id="path3765"
       inkscape:connector-curvature="0"
       transform="translate(0,1026.3622)"
       sodipodi:nodetypes="cccc" />
    <path
       style="fill:#333333;fill-opacity:0.86274510999999998;stroke:none"
       d="m 3,1041.3622 20,0 0,9 -20,0 z"
       id="rect3219"
       inkscape:connector-curvature="0"
       sodipodi:nodetypes="ccccc" />
    <path
       id="path3797"
       style="fill:none;stroke:#ffffff;stroke-width:0.80000001;stroke-linecap:round;stroke-linejoin:round;stroke-miterlimit:4;stroke-opacity:1;stroke-dasharray:none"
       d="m 20,1046.8622 c 0,0 1,0 1.5,0 0,1 -0.5,2 -1.5,2 -1,0 -2.5,0 -2.5,-3 0,-3 1.5,-3 2.5,-3 1,0 1.5,1 1.5,1"
       inkscape:connector-curvature="0"
       sodipodi:nodetypes="ccczcc" />
    <path
       sodipodi:nodetypes="cc"
       inkscape:connector-curvature="0"
       id="path3804"
       d="m 11.5,1042.8622 2,6"
       style="fill:none;stroke:#ffffff;stroke-width:0.80000001;stroke-linecap:round;stroke-linejoin:miter;stroke-miterlimit:4;stroke-opacity:1;stroke-dasharray:none" />
    <path
       sodipodi:nodetypes="cc"
       inkscape:connector-curvature="0"
       id="path3808"
       d="m 15.5,1042.8622 -2,6"
       style="fill:none;stroke:#ffffff;stroke-width:0.80000001;stroke-linecap:round;stroke-linejoin:miter;stroke-miterlimit:4;stroke-opacity:1;stroke-dasharray:none" />
    <path
       id="path3020"
       style="fill:none;stroke:#ffffff;stroke-width:0.80000001;stroke-linecap:round;stroke-linejoin:miter;stroke-miterlimit:4;stroke-opacity:1;stroke-dasharray:none"
       d="m 7.5,1048.8622 c -1,0 -1.5,0 -2,-1 m 2,1 c 2.5,0 3,-3 0.0625,-3 l -0.5625,0 m -0.125,-3 c -1.875,0 -1.875,3 0.125,3 m 2,-2.5 c -0.5,-0.5 -1,-0.5 -2.125,-0.5"
       inkscape:connector-curvature="0"
       sodipodi:nodetypes="ccccccccc" />
  </g>
</svg>
