<svg id="Слой_1" data-name="Слой 1"
  xmlns:cc="http://creativecommons.org/ns#"
  xmlns:rdf="http://www.w3.org/1999/02/22-rdf-syntax-ns#"
  xmlns="http://www.w3.org/2000/svg" viewBox="0 0 26 26">
  <metadata id="metadata43">
    <rdf:RDF>
      <cc:Work rdf:about="">
        <cc:license rdf:resource="http://creativecommons.org/licenses/by/4.0/" />
      </cc:Work>
      <cc:License rdf:about="http://creativecommons.org/licenses/by/4.0/">
        <cc:permits rdf:resource="http://creativecommons.org/ns#Reproduction" />
        <cc:permits rdf:resource="http://creativecommons.org/ns#Distribution" />
        <cc:requires rdf:resource="http://creativecommons.org/ns#Notice" />
        <cc:requires rdf:resource="http://creativecommons.org/ns#Attribution" />
        <cc:permits rdf:resource="http://creativecommons.org/ns#DerivativeWorks" />
      </cc:License>
    </rdf:RDF>
  </metadata>
  <defs>
    <style>.cls-1{fill:#b9b9b9;}.cls-2{fill:#d8d8d8;}.cls-3{fill:#1a81c4;}.cls-4{fill:#545454;}</style>
  </defs>
  <title>swap_layer</title>
  <polygon class="cls-1" points="13 25 5 18.5 13 12 21 18.5 13 25"/>
  <polygon class="cls-2" points="13 21.333 5 14.833 13 8.333 21 14.833 13 21.333"/>
  <polygon class="cls-3" points="13 17.667 5 11.167 13 4.667 21 11.167 13 17.667"/>
  <polygon class="cls-2" points="13 14 5 7.5 13 1 21 7.5 13 14"/>
  <path class="cls-4" d="M24.98,12.9784c0-2.1608-1.37-4.1629-3.7766-5.6053l.3163-1.0452-5.6056-.273L20.6382,9.24l.2563-.8472c1.9725,1.2356,3.085,2.868,3.085,4.586,0,1.7664-1.2231,3.4855-3.3209,4.7313l-.2456-.863-4.7762,3.0984,5.6094-.1711L20.9491,18.73C23.5158,17.2805,24.98,15.2246,24.98,12.9784Z"/>
  <path class="cls-4" d="M5.2557,8.4258l.25.8591,4.7577-3.13L4.6552,6.363l.304,1.0442c-2.5091,1.4486-3.9387,3.4854-3.9387,5.7a6.3344,6.3344,0,0,0,2.9145,5.039L3.55,19.1705l5.5749.6744L4.6177,16.3288l-.3018.8033a5.2108,5.2108,0,0,1-2.2954-4.0252C2.0205,11.34,3.1859,9.6714,5.2557,8.4258Z"/>
</svg>