<?xml version="1.0" encoding="UTF-8" standalone="no"?>
<!-- Created with Inkscape (http://www.inkscape.org/) -->

<svg
   xmlns:dc="http://purl.org/dc/elements/1.1/"
   xmlns:cc="http://creativecommons.org/ns#"
   xmlns:rdf="http://www.w3.org/1999/02/22-rdf-syntax-ns#"
   xmlns:svg="http://www.w3.org/2000/svg"
   xmlns="http://www.w3.org/2000/svg"
   xmlns:xlink="http://www.w3.org/1999/xlink"
   xmlns:sodipodi="http://sodipodi.sourceforge.net/DTD/sodipodi-0.dtd"
   xmlns:inkscape="http://www.inkscape.org/namespaces/inkscape"
   version="1.1"
   width="26"
   height="26"
   id="svg2"
   inkscape:version="0.92.0 r15299"
   sodipodi:docname="switch_corner_rounding_shape.svg"
   viewBox="0 0 24.375 24.374999">
  <sodipodi:namedview
     pagecolor="#ffffff"
     bordercolor="#666666"
     borderopacity="1"
     objecttolerance="10"
     gridtolerance="10"
     guidetolerance="10"
     inkscape:pageopacity="0"
     inkscape:pageshadow="2"
     inkscape:window-width="1364"
     inkscape:window-height="733"
     id="namedview17"
     showgrid="true"
     inkscape:zoom="20.186132"
     inkscape:cx="12.8"
     inkscape:cy="11.085191"
     inkscape:window-x="0"
     inkscape:window-y="16"
     inkscape:window-maximized="1"
     inkscape:current-layer="svg2">
    <inkscape:grid
       type="xygrid"
       id="grid4169"
       spacingx="0.5"
       spacingy="0.5"
       empspacing="2"
       originx="0"
       originy="0" />
  </sodipodi:namedview>
  <metadata
     id="metadata50">
    <rdf:RDF>
      <cc:Work
         rdf:about="">
        <dc:format>image/svg+xml</dc:format>
        <dc:type
           rdf:resource="http://purl.org/dc/dcmitype/StillImage" />
        <dc:title />
      </cc:Work>
    </rdf:RDF>
  </metadata>
  <defs
     id="defs4">
    <marker
       refX="0"
       refY="0"
       orient="auto"
       id="Arrow1Send"
       style="overflow:visible">
      <path
         d="M 0,0 5,-5 -12.5,0 5,5 Z"
         transform="matrix(-0.2,0,0,-0.2,-1.2,0)"
         id="path3806"
         style="fill-rule:evenodd;stroke:#000000;stroke-width:1.00000003pt"
         inkscape:connector-curvature="0" />
    </marker>
    <marker
       refX="0"
       refY="0"
       orient="auto"
       id="Arrow1Sstart"
       style="overflow:visible">
      <path
         d="M 0,0 5,-5 -12.5,0 5,5 Z"
         transform="matrix(0.2,0,0,0.2,1.2,0)"
         id="path3803"
         style="fill-rule:evenodd;stroke:#000000;stroke-width:1.00000003pt"
         inkscape:connector-curvature="0" />
    </marker>
    <marker
       refX="0"
       refY="0"
       orient="auto"
       id="h"
       style="overflow:visible">
      <path
         d="M 8.7186,4.0337 -2.2074,0.016 8.7186,-4.0017 c -1.7455,2.3721 -1.7354,5.6175 0,8.0354 z"
         transform="scale(0.6)"
         id="path10"
         style="fill-rule:evenodd;stroke-width:0.625;stroke-linejoin:round"
         inkscape:connector-curvature="0" />
    </marker>
    <marker
       refX="0"
       refY="0"
       orient="auto"
       id="g"
       style="overflow:visible">
      <path
         d="M 8.7186,4.0337 -2.2074,0.016 8.7186,-4.0017 c -1.7455,2.3721 -1.7354,5.6175 0,8.0354 z"
         transform="scale(-0.6)"
         id="path13"
         style="fill-rule:evenodd;stroke-width:0.625;stroke-linejoin:round"
         inkscape:connector-curvature="0" />
    </marker>
    <filter
       x="-0.10484"
       y="-0.18257"
       width="1.2097"
       height="1.3651"
       id="d"
       style="color-interpolation-filters:sRGB">
      <feGaussianBlur
         id="feGaussianBlur7"
         stdDeviation="1.5978799" />
    </filter>
    <radialGradient
       inkscape:collect="always"
       xlink:href="#radialGradient4831-3"
       id="radialGradient4569"
       gradientUnits="userSpaceOnUse"
       gradientTransform="matrix(0,0.27158002,0.31909764,0,16.447361,556.24201)"
       cx="34.857384"
       cy="28.374384"
       fx="34.857384"
       fy="28.374384"
       r="16.955999" />
    <radialGradient
       r="16.955999"
       gradientTransform="matrix(0,-0.84302,1.0202,0,-4.8963249,41.059418)"
       cx="35.292999"
       cy="20.493999"
       gradientUnits="userSpaceOnUse"
       id="radialGradient4831-3">
      <stop
         style="stop-color:#1772d9;stop-opacity:1"
         id="stop4833-5"
         offset="0"
         stop-color="#73d216" />
      <stop
         style="stop-color:#085ab6;stop-opacity:1"
         id="stop4835-6"
         offset="1"
         stop-color="#4e9a06" />
    </radialGradient>
    <radialGradient
       inkscape:collect="always"
       xlink:href="#radialGradient4831-3"
       id="radialGradient4567"
       gradientUnits="userSpaceOnUse"
       gradientTransform="matrix(0,-0.27158002,-0.31909764,0,-42.451933,-547.52542)"
       cx="34.857384"
       cy="28.374384"
       fx="34.857384"
       fy="28.374384"
       r="16.955999" />
    <radialGradient
       r="16.955999"
       gradientTransform="matrix(0,-0.84302,1.0202,0,-4.8963249,41.059418)"
       cx="35.292999"
       cy="20.493999"
       gradientUnits="userSpaceOnUse"
       id="radialGradient4605">
      <stop
         style="stop-color:#1772d9;stop-opacity:1"
         id="stop4601"
         offset="0"
         stop-color="#73d216" />
      <stop
         style="stop-color:#085ab6;stop-opacity:1"
         id="stop4603"
         offset="1"
         stop-color="#4e9a06" />
    </radialGradient>
  </defs>
  <g
     transform="matrix(0.99181105,0,0,0.99611359,23.634223,7.0078104)"
     id="g4586">
    <path
       inkscape:connector-curvature="0"
       id="path4559"
       d="m -12.874026,-2.8609817 c -0.907378,-0.032543 -1.82981,0.1064328 -2.718465,0.4298809 -2.368239,0.8619859 -4.072019,2.88155238 -4.577167,5.2804799 h -1.01126 l 0.852367,1.475664 c -7e-6,0 0,0.00711 0,0.00782 h 0.005 l 0.458209,0.7931837 1.314277,2.2775163 1.31427,-2.2775163 1.314277,-2.2762374 h -1.048217 c 0.421472,-1.0895528 1.286572,-1.97993213 2.429002,-2.39575845 1.63077,-0.59356965 3.457945,-0.10381092 4.5734715,1.22562965 l 2.3526354,-1.97329563 C -8.9528963,-1.8873547 -10.877665,-2.7889678 -12.873906,-2.8605767 Z"
       style="color:#000000;clip-rule:nonzero;display:inline;overflow:visible;visibility:visible;opacity:1;isolation:auto;mix-blend-mode:normal;color-interpolation:sRGB;color-interpolation-filters:linearRGB;solid-color:#000000;solid-opacity:1;fill:url(#radialGradient4569);fill-opacity:1;fill-rule:evenodd;stroke:#ffffff;stroke-width:3.15326977;stroke-linecap:round;stroke-linejoin:round;stroke-miterlimit:10;stroke-dasharray:none;stroke-dashoffset:0;stroke-opacity:1;color-rendering:auto;image-rendering:auto;shape-rendering:auto;text-rendering:auto;enable-background:accumulate" />
    <g
       id="g4566">
      <path
         style="color:#000000;clip-rule:nonzero;display:inline;overflow:visible;visibility:visible;opacity:1;isolation:auto;mix-blend-mode:normal;color-interpolation:sRGB;color-interpolation-filters:linearRGB;solid-color:#000000;solid-opacity:1;fill:url(#radialGradient4567);fill-opacity:1;fill-rule:evenodd;stroke:#ffffff;stroke-width:3.15326977;stroke-linecap:round;stroke-linejoin:round;stroke-miterlimit:10;stroke-dasharray:none;stroke-dashoffset:0;stroke-opacity:1;color-rendering:auto;image-rendering:auto;shape-rendering:auto;text-rendering:auto;enable-background:accumulate"
         d="m -7.4321686,1.3503381 -1.3155068,2.2775163 -1.3142706,2.2763084 h 1.0124899 c -0.4268014,1.0726418 -1.2834309,1.9476093 -2.4129889,2.3587318 -1.63077,0.593591 -3.459175,0.103811 -4.574702,-1.2256225 l -2.351406,1.9733312 c 1.94519,2.3181597 5.133114,3.1720947 7.97679,2.1370407 2.3561107,-0.857559 4.0549668,-2.8608039 4.5697758,-5.2434812 h 1.038365 L -5.6757028,4.3927582 c 6.4e-6,0 0,-0.00711 0,-0.00853 h -0.00504 L -6.1180176,3.6279254 -7.432288,1.3504802 Z"
         id="path4557"
         inkscape:connector-curvature="0" />
      <path
         id="path4495"
         d="m -7.4321686,1.3503381 -1.3155068,2.2775163 -1.3142706,2.2763084 h 1.0124899 c -0.4268014,1.0726418 -1.2834309,1.9476093 -2.4129889,2.3587318 -1.63077,0.593591 -3.459175,0.103811 -4.574702,-1.2256225 l -2.351406,1.9733312 c 1.94519,2.3181597 5.133114,3.1720947 7.97679,2.1370407 2.3561107,-0.857559 4.0549668,-2.8608039 4.5697758,-5.2434812 h 1.038365 L -5.6757028,4.3927582 c 6.4e-6,0 0,-0.00711 0,-0.00853 h -0.00504 L -6.1180176,3.6279254 -7.432288,1.3504802 Z"
         style="color:#000000;clip-rule:nonzero;display:inline;overflow:visible;visibility:visible;opacity:1;isolation:auto;mix-blend-mode:normal;color-interpolation:sRGB;color-interpolation-filters:linearRGB;solid-color:#000000;solid-opacity:1;fill:#00c80a;fill-opacity:1;fill-rule:evenodd;stroke:#000000;stroke-width:0.92401415;stroke-linecap:round;stroke-linejoin:round;stroke-miterlimit:10;stroke-dasharray:none;stroke-dashoffset:0;stroke-opacity:1;color-rendering:auto;image-rendering:auto;shape-rendering:auto;text-rendering:auto;enable-background:accumulate"
         inkscape:connector-curvature="0" />
      <path
         id="path4541"
         d="m -12.874026,-2.8609817 c -0.907378,-0.032543 -1.82981,0.1064328 -2.718465,0.4298809 -2.368239,0.8619859 -4.072019,2.88155238 -4.577167,5.2804799 h -1.01126 l 0.852367,1.475664 c -7e-6,0 0,0.00711 0,0.00782 h 0.005 l 0.458209,0.7931837 1.314277,2.2775163 1.31427,-2.2775163 1.314277,-2.2762374 h -1.048217 c 0.421472,-1.0895528 1.286572,-1.97993213 2.429002,-2.39575845 1.63077,-0.59356965 3.457945,-0.10381092 4.5734715,1.22562965 l 2.3526354,-1.97329563 C -8.9528963,-1.8873547 -10.877665,-2.7889678 -12.873906,-2.8605767 Z"
         style="color:#000000;clip-rule:nonzero;display:inline;overflow:visible;visibility:visible;opacity:1;isolation:auto;mix-blend-mode:normal;color-interpolation:sRGB;color-interpolation-filters:linearRGB;solid-color:#000000;solid-opacity:1;fill:#00d2ca;fill-opacity:1;fill-rule:evenodd;stroke:#000000;stroke-width:0.92401415;stroke-linecap:round;stroke-linejoin:round;stroke-miterlimit:10;stroke-dasharray:none;stroke-dashoffset:0;stroke-opacity:1;color-rendering:auto;image-rendering:auto;shape-rendering:auto;text-rendering:auto;enable-background:accumulate"
         inkscape:connector-curvature="0" />
    </g>
  </g>
  <path
     inkscape:connector-curvature="0"
     d="M 24.5,1.4324308 H 18.931818 L 9.4659089,12.374999 H 0"
     id="path3002"
     style="fill:none;stroke:#a2071d;stroke-width:2.96024418;stroke-linecap:butt;stroke-linejoin:miter;stroke-miterlimit:4;stroke-dasharray:none;stroke-opacity:1" />
  <path
     inkscape:connector-curvature="0"
     d="M 24.5,11.474998 H 19.488637 M 8.9090908,20.5 15.034092,13.374999 c 1.769149,-1.530118 3.144004,-1.816492 4.454545,-1.900001 M 0,22.875 l 4.4545456,-1e-6 C 5.6953103,22.765727 6.85712,22.877199 8.9090908,20.5"
     id="path3798"
     style="fill:none;stroke:#a2071d;stroke-width:2.96828938;stroke-linecap:butt;stroke-linejoin:round;stroke-miterlimit:4;stroke-dasharray:none;stroke-opacity:1"
     sodipodi:nodetypes="cccccccc" />
</svg>
