<?xml version="1.0" encoding="UTF-8" standalone="no"?>
<svg
   xmlns:dc="http://purl.org/dc/elements/1.1/"
   xmlns:cc="http://creativecommons.org/ns#"
   xmlns:rdf="http://www.w3.org/1999/02/22-rdf-syntax-ns#"
   xmlns:svg="http://www.w3.org/2000/svg"
   xmlns="http://www.w3.org/2000/svg"
   xmlns:sodipodi="http://sodipodi.sourceforge.net/DTD/sodipodi-0.dtd"
   xmlns:inkscape="http://www.inkscape.org/namespaces/inkscape"
   height="26"
   width="26"
   version="1.0"
   id="svg2"
   inkscape:version="0.48.3.1 r9886"
   sodipodi:docname="add_text.svg">
  <metadata
     id="metadata66">
    <rdf:RDF>
      <cc:Work
         rdf:about="">
        <dc:format>image/svg+xml</dc:format>
        <dc:type
           rdf:resource="http://purl.org/dc/dcmitype/StillImage" />
        <dc:title />
      </cc:Work>
    </rdf:RDF>
  </metadata>
  <sodipodi:namedview
     pagecolor="#ffffff"
     bordercolor="#666666"
     borderopacity="1"
     objecttolerance="10"
     gridtolerance="10"
     guidetolerance="10"
     inkscape:pageopacity="0"
     inkscape:pageshadow="2"
     inkscape:window-width="1301"
     inkscape:window-height="744"
     id="namedview64"
     showgrid="true"
     inkscape:zoom="22.961538"
     inkscape:cx="13"
     inkscape:cy="13"
     inkscape:window-x="65"
     inkscape:window-y="24"
     inkscape:window-maximized="1"
     inkscape:current-layer="svg2">
    <inkscape:grid
       type="xygrid"
       id="grid3043"
       empspacing="2"
       visible="true"
       enabled="true"
       snapvisiblegridlinesonly="true"
       spacingx="0.5px"
       spacingy="0.5px" />
  </sodipodi:namedview>
  <defs
     id="defs4" />
  <g
     transform="scale(1.0165876,0.98368307)"
     style="font-size:39.34732819px;font-style:normal;font-weight:normal;line-height:125%;letter-spacing:0px;word-spacing:0px;fill:#000000;fill-opacity:1;stroke:none;font-family:Sans"
     id="text3415">
    <path
       d="m 11.312355,5.591232 -1.4755244,0 C 8.2588349,5.591249 7.4237303,5.6333178 6.8857814,6.0995258 6.401623,6.5119715 5.7330264,7.1706083 5.4102568,8.6409948 l -1.4755246,0 0.4918416,-5.591232 16.7226122,0 0.491841,5.591232 -1.475524,-3e-7 C 19.842716,7.1347445 19.192051,6.5119715 18.689978,6.0995258 18.169944,5.6691813 17.316908,5.591249 15.738929,5.591232 l -1.475525,0 0,13.215639 c 0,1.075905 0.115266,2.254563 0.491842,2.541469 0.32276,0.233113 0.909383,0.944861 1.967366,1.016587 l 0,1.016588 -7.8694645,0 0,-1.016588 c 1.1655565,-0.08966 1.6804525,-0.693815 1.9673665,-1.016587 0.268969,-0.304838 0.447457,-1.394753 0.491841,-2.541469"
       style="font-size:27.54312897px;font-variant:normal;font-weight:bold;font-stretch:normal;fill:#282828;fill-opacity:1;font-family:Rachana;-inkscape-font-specification:Rachana Bold"
       id="path3777"
       inkscape:connector-curvature="0"
       sodipodi:nodetypes="ccccccccccccsccccccc" />
  </g>
</svg>
