<svg id="Слой_1" data-name="Слой 1"
  xmlns:dc="http://purl.org/dc/elements/1.1/"
  xmlns:cc="http://creativecommons.org/ns#"
  xmlns:rdf="http://www.w3.org/1999/02/22-rdf-syntax-ns#"
  xmlns="http://www.w3.org/2000/svg" viewBox="0 0 26 26">
  <metadata id="metadata43">
    <rdf:RDF>
      <cc:Work rdf:about="">
        <cc:license rdf:resource="http://creativecommons.org/licenses/by-sa/4.0/" />
        <dc:format>image/svg+xml</dc:format>
        <dc:type rdf:resource="http://purl.org/dc/dcmitype/StillImage" />
        <dc:title>add_arc</dc:title>
      </cc:Work>
      <cc:License rdf:about="http://creativecommons.org/licenses/by-sa/4.0/">
        <cc:permits rdf:resource="http://creativecommons.org/ns#Reproduction" />
        <cc:permits rdf:resource="http://creativecommons.org/ns#Distribution" />
        <cc:requires rdf:resource="http://creativecommons.org/ns#Notice" />
        <cc:requires rdf:resource="http://creativecommons.org/ns#Attribution" />
        <cc:permits rdf:resource="http://creativecommons.org/ns#DerivativeWorks" />
        <cc:requires rdf:resource="http://creativecommons.org/ns#ShareAlike" />
      </cc:License>
    </rdf:RDF>
  </metadata>
  <defs>
    <style>.cls-1{fill:#b9b9b9;}.cls-2{fill:#545454;}.cls-3{fill:#1a81c4;}</style>
  </defs>
  <title>tool_ratsnest</title>
  <rect class="cls-1" x="1" y="1" width="24" height="24" rx="4"/>
  <path class="cls-2" d="M9.8809,9.499a.5.5,0,0,1-.1963-.96L24.05,2.4108s.23.297.3271.4435c.074.112.2247.4048.2247.4048a.5014.5014,0,0,1-.0524.0261L10.0771,9.459A.5008.5008,0,0,1,9.8809,9.499Z"/>
  <path class="cls-2" d="M13.09,24.9992v-.0033L10.374,8.916a.5056.5056,0,0,0-.5761-.41.5.5,0,0,0-.41.5761l2.6882,15.9172Z"/>
  <path class="cls-2" d="M10.0879,8.5439.9976,4.9557V6.0294L9.6738,9.4541a.4927.4927,0,0,0,.2071.0449.5.5,0,0,0,.207-.9551Z"/>
  <path class="cls-3" d="M12.742,8.999A2.8088,2.8088,0,1,1,9.9332,6.19,2.8087,2.8087,0,0,1,12.742,8.999Z"/>
  <circle class="cls-1" cx="9.9332" cy="8.999" r="2"/>
</svg>