<svg xmlns="http://www.w3.org/2000/svg" height="48" width="48" version="1.1" xmlns:xlink="http://www.w3.org/1999/xlink">
 <defs>
  <linearGradient id="a">
   <stop stop-color="#fff" offset="0"/>
   <stop stop-color="#fff" stop-opacity="0" offset="1"/>
  </linearGradient>
  <mask id="ab">
   <path d="m-3.6 45.75 17.325 0.075 0.225-15.863-11.475 0.15-1.725-8.437-5.0625-2.175l-4.575-0.188-5.5875 3.863-0.525 5.963 5.8125-0.113 4.6875 1.837-1.0125 0.525-0.8625 0.7875-0.375 0.8625-0.1875 0.75 0.0375 8.775 0.4875 1.275 0.825 0.825 1.3125 0.5625z" stroke="#fff" stroke-width="1px" fill="#fefefe"/>
  </mask>
  <mask id="ac">
   <path d="m-3.6 45.75 17.325 0.075 0.225-15.863-11.475 0.15-1.725-8.437-5.0625-2.175l-4.575-0.188-5.5875 3.863-0.525 5.963 5.8125-0.113 4.6875 1.837-1.0125 0.525-0.8625 0.7875-0.375 0.8625-0.1875 0.75 0.0375 8.775 0.4875 1.275 0.825 0.825 1.3125 0.5625z" stroke="#fff" stroke-width="1px" fill="#fefefe"/>
  </mask>
  <mask id="ad">
   <path d="m-3.6 45.75 17.325 0.075 0.225-15.863-11.475 0.15-1.725-8.437-5.0625-2.175l-4.575-0.188-5.5875 3.863-0.525 5.963 5.8125-0.113 4.6875 1.837-1.0125 0.525-0.8625 0.7875-0.375 0.8625-0.1875 0.75 0.0375 8.775 0.4875 1.275 0.825 0.825 1.3125 0.5625z" stroke="#fff" stroke-width="1px" fill="#fefefe"/>
  </mask>
  <mask id="ae">
   <path d="m-3.6 45.75 17.325 0.075 0.225-15.863-11.475 0.15-1.725-8.437-5.0625-2.175l-4.575-0.188-5.5875 3.863-0.525 5.963 5.8125-0.113 4.6875 1.837-1.0125 0.525-0.8625 0.7875-0.375 0.8625-0.1875 0.75 0.0375 8.775 0.4875 1.275 0.825 0.825 1.3125 0.5625z" stroke="#fff" stroke-width="1px" fill="#fefefe"/>
  </mask>
  <mask id="q">
   <path d="m-3.6 45.75 17.325 0.075 0.225-15.863-11.475 0.15-1.725-8.437-5.0625-2.175l-4.575-0.188-5.5875 3.863-0.525 5.963 5.8125-0.113 4.6875 1.837-1.0125 0.525-0.8625 0.7875-0.375 0.8625-0.1875 0.75 0.0375 8.775 0.4875 1.275 0.825 0.825 1.3125 0.5625z" stroke="#fff" stroke-width="1px" fill="#fefefe"/>
  </mask>
  <mask id="r">
   <path d="m-3.6 45.75 17.325 0.075 0.225-15.863-11.475 0.15-1.725-8.437-5.0625-2.175l-4.575-0.188-5.5875 3.863-0.525 5.963 5.8125-0.113 4.6875 1.837-1.0125 0.525-0.8625 0.7875-0.375 0.8625-0.1875 0.75 0.0375 8.775 0.4875 1.275 0.825 0.825 1.3125 0.5625z" stroke="#fff" stroke-width="1px" fill="#fefefe"/>
  </mask>
  <mask id="s">
   <path d="m-3.6 45.75 17.325 0.075 0.225-15.863-11.475 0.15-1.725-8.437-5.0625-2.175l-4.575-0.188-5.5875 3.863-0.525 5.963 5.8125-0.113 4.6875 1.837-1.0125 0.525-0.8625 0.7875-0.375 0.8625-0.1875 0.75 0.0375 8.775 0.4875 1.275 0.825 0.825 1.3125 0.5625z" stroke="#fff" stroke-width="1px" fill="#fefefe"/>
  </mask>
  <mask id="t">
   <path d="m-3.6 45.75 17.325 0.075 0.225-15.863-11.475 0.15-1.725-8.437-5.0625-2.175l-4.575-0.188-5.5875 3.863-0.525 5.963 5.8125-0.113 4.6875 1.837-1.0125 0.525-0.8625 0.7875-0.375 0.8625-0.1875 0.75 0.0375 8.775 0.4875 1.275 0.825 0.825 1.3125 0.5625z" stroke="#fff" stroke-width="1px" fill="#fefefe"/>
  </mask>
  <radialGradient id="u" gradientUnits="userSpaceOnUse" cy="4.2801" cx="123.57" gradientTransform="matrix(.6415 .61139 -.45285 .46629 -90.127 -57.513)" r="18.304">
   <stop stop-color="#fff" offset="0"/>
   <stop stop-color="#b3b0a7" offset="1"/>
  </radialGradient>
  <linearGradient id="v" y2="18.836" xlink:href="#a" gradientUnits="userSpaceOnUse" x2="142.18" gradientTransform="matrix(.39413 0 0 .39043 -61.497 20.869)" y1="16.563" x1="116.42"/>
  <linearGradient id="w" y2="11.685" gradientUnits="userSpaceOnUse" x2="98.292" gradientTransform="matrix(.39413 0 0 .39043 -50.771 22.048)" y1="70.179" x1="156.79">
   <stop stop-color="#fb9c02" offset="0"/>
   <stop stop-color="#fff" offset="1"/>
  </linearGradient>
  <linearGradient id="x" y2="62.02" gradientUnits="userSpaceOnUse" x2="-28.537" gradientTransform="matrix(.51846 0 0 .5136 -13.271 18.135)" y1="24.645" x1="54.296">
   <stop stop-color="#965d01" stop-opacity="0" offset="0"/>
   <stop stop-color="#ab6200" offset="1"/>
  </linearGradient>
  <linearGradient id="y" y2="33.214" gradientUnits="userSpaceOnUse" x2="135.71" gradientTransform="matrix(.39413 0 0 .39043 -51.897 21.769)" y1="110" x1="203.57">
   <stop stop-color="#4f3a1e" offset="0"/>
   <stop stop-color="#4f3a1e" stop-opacity="0" offset="1"/>
  </linearGradient>
  <linearGradient id="z" y2="11.708" xlink:href="#a" gradientUnits="userSpaceOnUse" x2="129.27" gradientTransform="matrix(.27286 0 0 .40366 -42.701 20.849)" y1="22.589" x1="153.36"/>
  <linearGradient id="aa" y2="13.849" gradientUnits="userSpaceOnUse" x2="28.979" gradientTransform="matrix(.51846 0 0 .5136 -22.871 17.235)" y1="28.622" x1="16.226">
   <stop stop-color="#8b8b8b" offset="0"/>
   <stop stop-color="#8b8b8b" stop-opacity="0" offset="1"/>
  </linearGradient>
 </defs>
 <path d="m4.75 7.4 24.106 0.000002 8.8813 19.1 7.6125-0.000002v3.5813h-10.15l-8.8813-19.1h-21.57v-3.581z" stroke="#f91616" stroke-width="2.7" fill="#ed1212"/>
 <g transform="matrix(1.1283,0,0,1.1413,17.733,-5.8001)">
  <path opacity=".2" stroke-linejoin="round" style="color:#000000" d="m-5.7017 21.091c-3.9747 0-7.1682 3.1761-7.1682 7.1132v3.16c-1.3272 0.28868-2.3401 1.4023-2.3401 2.8062v7.9428c0 1.6222 1.3184 2.9282 2.9559 2.9282h13.092c1.6376 0 2.9559-1.306 2.9559-2.9282v-7.9428c0-1.3979-0.99697-2.5112-2.3155-2.8062v-3.16c0-3.9375-3.2057-7.1132-7.1805-7.1132zm0 2.7452c2.4582 0.000001 4.4462 1.9694 4.4462 4.4045v3.0014h-8.8801v-3.0014c0-2.4358 1.9757-4.4045 4.4339-4.4045z" fill-rule="evenodd" mask="url(#t)" stroke="#000" stroke-width=".49034"/>
  <path stroke-linejoin="round" style="color:#000000" d="m-6.7386 20.059c-3.9747 0-7.1682 3.1761-7.1682 7.1132v6.6983c0 3.937 3.1939 7.101 7.1682 7.101s7.1805-3.1635 7.1805-7.101v-6.6983c0-3.9375-3.2057-7.1132-7.1805-7.1132zm0 2.7452c2.4582 0 4.4462 1.9694 4.4462 4.4045v5.5392c0 2.4352-1.9873 4.3923-4.4462 4.3923s-4.4339-1.9565-4.4339-4.3923v-5.538c0-2.4358 1.9757-4.4045 4.4339-4.4045z" fill-rule="evenodd" mask="url(#s)" stroke="#656565" stroke-width=".49034" fill="url(#u)"/>
  <path stroke-linejoin="round" style="color:#000000" d="m-6.7386 20.059c-3.9747 0-7.1682 3.1761-7.1682 7.1132v6.6983c0 3.937 3.1939 7.101 7.1682 7.101s7.1805-3.1635 7.1805-7.101v-6.6983c0-3.9375-3.2057-7.1132-7.1805-7.1132zm0 2.7452c2.4582 0 4.4462 1.9694 4.4462 4.4045v5.5392c0 2.4352-1.9873 4.3923-4.4462 4.3923s-4.4339-1.9565-4.4339-4.3923v-5.538c0-2.4358 1.9757-4.4045 4.4339-4.4045z" fill-rule="evenodd" mask="url(#r)" stroke="#8b8b8b" stroke-width=".49034" fill="url(#v)"/>
  <rect stroke-linejoin="round" style="color:#000000" mask="url(#q)" ry="2.9282" height="13.809" width="19.004" stroke="#4f3a1e" y="31.109" x="-6.6443" stroke-width=".49034" fill="url(#w)"/>
  <path style="color:#000000" fill="url(#x)" mask="url(#ae)" d="m-4.0196 42.434h13.928c0.38598 0 0.69672 0.30782 0.69672 0.69019 0 0.38236-0.31074 0.69019-0.69672 0.69019h-13.928c-0.38598 0-0.69672-0.30782-0.69672-0.69019 0-0.38236 0.31074-0.69019 0.69672-0.69019zm0-2.5636h13.928c0.38598 0 0.69672 0.30782 0.69672 0.69019 0 0.38236-0.31074 0.69019-0.69672 0.69019h-13.928c-0.38598 0-0.69672-0.30782-0.69672-0.69019s0.31074-0.69019 0.69672-0.69019zm0-2.5636h13.928c0.38598 0 0.69672 0.30782 0.69672 0.69019 0 0.38236-0.31074 0.69019-0.69672 0.69019h-13.928c-0.38598 0-0.69672-0.30782-0.69672-0.69019 0-0.38236 0.31074-0.69019 0.69672-0.69019zm0-2.5636h13.928c0.38598 0 0.69672 0.30782 0.69672 0.69019 0 0.38236-0.31074 0.69019-0.69672 0.69019h-13.928c-0.38598 0-0.69672-0.30782-0.69672-0.69019 0-0.38236 0.31074-0.69019 0.69672-0.69019zm0-2.5636h13.928c0.38598 0 0.69672 0.30782 0.69672 0.69019 0 0.38236-0.31074 0.69019-0.69672 0.69019h-13.928c-0.38598 0-0.69672-0.30782-0.69672-0.69019 0-0.38236 0.31074-0.69019 0.69672-0.69019z"/>
  <path style="color:#000000" fill="url(#y)" mask="url(#ad)" d="m8.8451 43.866c1.7221 0.01428 2.218-1.1879 2.2834-2.9514 0.11189-3.0171-0.15895-9.2476-0.15895-9.2476 1.5714 0 1.2882 0.97436 1.2882 2.5311l0.28152 7.9105c0 1.5567-1.1243 2.6705-2.6958 2.6705l-13.549 0.13944c-0.72689-0.27888-1.992-0.55605-1.992-1.2761 0 0 5.4028 0.14788 14.542 0.22363z"/>
  <path style="color:#000000" d="m-5.1938 21.183c3.6597 0.97608 4.3379 4.522 4.3379 5.2987v3.486h-0.81894v-3.486c0-1.8613-1.5484-4.3691-3.519-5.2987z" fill-rule="evenodd" mask="url(#ac)" fill="url(#z)"/>
  <path style="color:#000000" d="m-7.4024 22.61c-4.1568 0.81755-4.9271 2.4277-4.9271 4.9569v2.401h0.93017v-2.9198c0-1.559 1.7587-3.6595 3.9969-4.4381z" fill-rule="evenodd" mask="url(#ab)" fill="url(#aa)"/>
 </g>
</svg>
