<?xml version="1.0" encoding="UTF-8" standalone="no"?>
<svg
   xmlns:dc="http://purl.org/dc/elements/1.1/"
   xmlns:cc="http://creativecommons.org/ns#"
   xmlns:rdf="http://www.w3.org/1999/02/22-rdf-syntax-ns#"
   xmlns:svg="http://www.w3.org/2000/svg"
   xmlns="http://www.w3.org/2000/svg"
   xmlns:xlink="http://www.w3.org/1999/xlink"
   xmlns:sodipodi="http://sodipodi.sourceforge.net/DTD/sodipodi-0.dtd"
   xmlns:inkscape="http://www.inkscape.org/namespaces/inkscape"
   height="48"
   width="48"
   version="1.0"
   id="svg2"
   inkscape:version="0.48.1 "
   sodipodi:docname="tree_nosel.svg">
  <metadata
     id="metadata305">
    <rdf:RDF>
      <cc:Work
         rdf:about="">
        <dc:format>image/svg+xml</dc:format>
        <dc:type
           rdf:resource="http://purl.org/dc/dcmitype/StillImage" />
      </cc:Work>
    </rdf:RDF>
  </metadata>
  <sodipodi:namedview
     pagecolor="#ffffff"
     bordercolor="#666666"
     borderopacity="1"
     objecttolerance="10"
     gridtolerance="10"
     guidetolerance="10"
     inkscape:pageopacity="0"
     inkscape:pageshadow="2"
     inkscape:window-width="640"
     inkscape:window-height="480"
     id="namedview303"
     showgrid="true"
     inkscape:zoom="6.4360702"
     inkscape:cx="24.828895"
     inkscape:cy="23.289671"
     inkscape:window-x="119"
     inkscape:window-y="105"
     inkscape:window-maximized="0"
     inkscape:current-layer="svg2">
    <inkscape:grid
       type="xygrid"
       id="grid3282"
       empspacing="5"
       visible="true"
       enabled="true"
       snapvisiblegridlinesonly="true"
       empcolor="#a0a0ff"
       empopacity="0.25098039"
       dotted="false"
       color="#5d5dff"
       opacity="0.1254902" />
  </sodipodi:namedview>
  <defs
     id="defs4">
    <linearGradient
       id="ay"
       y2="7.0165"
       gradientUnits="userSpaceOnUse"
       x2="45.448"
       gradientTransform="scale(1.0059 .99417)"
       y1="92.54"
       x1="45.448">
      <stop
         offset="0"
         id="stop7" />
      <stop
         stop-opacity=".58824"
         offset="1"
         id="stop9" />
    </linearGradient>
    <filter
       id="ba"
       color-interpolation-filters="sRGB">
      <feGaussianBlur
         stdDeviation="1.71"
         id="feGaussianBlur12" />
    </filter>
    <linearGradient
       id="a">
      <stop
         stop-color="#9f9e7d"
         offset="0"
         id="stop15" />
      <stop
         stop-color="#9f9e7d"
         stop-opacity="0"
         offset="1"
         id="stop17" />
    </linearGradient>
    <linearGradient
       id="bd"
       y2="38.033"
       gradientUnits="userSpaceOnUse"
       x2="79.007"
       gradientTransform="matrix(1.5526 -.40855 .40858 1.4975 -13.1 -83.236)"
       y1="21.664"
       x1="83.315">
      <stop
         stop-color="#ffe119"
         offset="0"
         id="stop20" />
      <stop
         stop-color="#f7a700"
         offset="1"
         id="stop22" />
    </linearGradient>
    <linearGradient
       id="be"
       y2="42.017"
       gradientUnits="userSpaceOnUse"
       x2="89.412"
       gradientTransform="matrix(1.5526 -.40855 .40858 1.4975 -13.1 -83.236)"
       y1="23.504"
       x1="91.968">
      <stop
         stop-color="#fff1b7"
         offset="0"
         id="stop25" />
      <stop
         stop-color="#ad6100"
         offset="1"
         id="stop27" />
    </linearGradient>
    <linearGradient
       id="bf"
       y2="43.082"
       xlink:href="#a"
       gradientUnits="userSpaceOnUse"
       x2="85.196"
       gradientTransform="matrix(2.1696 -.57092 .57097 2.0927 -72.664 -88.008)"
       y1="24.087"
       x1="90.195" />
    <linearGradient
       id="bg"
       y2="38.724"
       gradientUnits="userSpaceOnUse"
       x2="79.935"
       gradientTransform="matrix(1.5526 -.40855 .40858 1.4975 -13.1 -40.199)"
       y1="21.771"
       x1="84.397">
      <stop
         stop-color="#2bca00"
         offset="0"
         id="stop31" />
      <stop
         stop-color="#1e9000"
         offset="1"
         id="stop33" />
    </linearGradient>
    <linearGradient
       id="bh"
       y2="41.144"
       gradientUnits="userSpaceOnUse"
       x2="85.706"
       gradientTransform="matrix(1.5526 -.40855 .40858 1.4975 -13.1 -40.199)"
       y1="23.092"
       x1="90.457">
      <stop
         stop-color="#57ff0c"
         offset="0"
         id="stop36" />
      <stop
         stop-color="#004617"
         offset="1"
         id="stop38" />
    </linearGradient>
    <linearGradient
       id="bi"
       y2="43.082"
       xlink:href="#a"
       gradientUnits="userSpaceOnUse"
       x2="85.196"
       gradientTransform="matrix(2.1696 -.57092 .57097 2.0927 -72.672 -44.971)"
       y1="24.087"
       x1="90.195" />
    <linearGradient
       id="bj"
       y2="39.307"
       gradientUnits="userSpaceOnUse"
       x2="80.337"
       gradientTransform="matrix(1.5526 -.40855 .40858 1.4975 -13.101 37.246)"
       y1="21.561"
       x1="85.007">
      <stop
         stop-color="#006ada"
         offset="0"
         id="stop42" />
      <stop
         stop-color="#00438a"
         offset="1"
         id="stop44" />
    </linearGradient>
    <linearGradient
       id="bk"
       y2="41.359"
       gradientUnits="userSpaceOnUse"
       x2="86.898"
       gradientTransform="matrix(1.5526 -.40855 .40858 1.4975 -13.101 37.246)"
       y1="23.41"
       x1="91.622">
      <stop
         stop-color="#67b1ff"
         offset="0"
         id="stop47" />
      <stop
         stop-color="#001a35"
         offset="1"
         id="stop49" />
    </linearGradient>
    <linearGradient
       id="bl"
       y2="43.082"
       xlink:href="#a"
       gradientUnits="userSpaceOnUse"
       x2="85.196"
       gradientTransform="matrix(2.1696 -.57092 .57097 2.0927 -72.672 32.474)"
       y1="24.087"
       x1="90.195" />
    <linearGradient
       id="bm"
       y2="114.04"
       xlink:href="#a"
       gradientUnits="userSpaceOnUse"
       x2="78.803"
       y1="101.97"
       x1="78.803" />
    <linearGradient
       id="ar"
       y2="112"
       gradientUnits="userSpaceOnUse"
       x2="78"
       gradientTransform="matrix(0.75,0,0,0.75,-2.0895e-6,-1)"
       y1="104"
       x1="78">
      <stop
         stop-color="#706f6b"
         offset="0"
         id="stop54" />
      <stop
         stop-color="#51504e"
         offset="1"
         id="stop56" />
    </linearGradient>
    <linearGradient
       id="as"
       y2="107.94"
       gradientUnits="userSpaceOnUse"
       x2="79.067"
       gradientTransform="matrix(0.75,0,0,0.75,-2.0895e-6,-1)"
       y1="104.35"
       x1="79.067">
      <stop
         stop-color="#fff"
         offset="0"
         id="stop59" />
      <stop
         stop-color="#fff"
         stop-opacity="0"
         offset="1"
         id="stop61" />
    </linearGradient>
    <linearGradient
       id="at"
       y2="96.645"
       gradientUnits="userSpaceOnUse"
       x2="110.64"
       y1="92.773"
       x1="110.64">
      <stop
         stop-color="#858362"
         offset="0"
         id="stop64" />
      <stop
         stop-color="#fff"
         offset="1"
         id="stop66" />
    </linearGradient>
    <linearGradient
       id="au"
       y2="43.082"
       xlink:href="#a"
       gradientUnits="userSpaceOnUse"
       x2="85.196"
       y1="24.087"
       x1="90.195" />
    <linearGradient
       id="av"
       y2="38.933"
       gradientUnits="userSpaceOnUse"
       x2="79.88"
       y1="21.771"
       x1="84.397">
      <stop
         stop-color="#fd2306"
         offset="0"
         id="stop70" />
      <stop
         stop-color="#b31602"
         offset="1"
         id="stop72" />
    </linearGradient>
    <linearGradient
       id="aw"
       y2="41.015"
       gradientUnits="userSpaceOnUse"
       x2="85.74"
       y1="23.092"
       x1="90.457">
      <stop
         stop-color="#fe774b"
         offset="0"
         id="stop75" />
      <stop
         stop-color="#610601"
         offset="1"
         id="stop77" />
    </linearGradient>
    <linearGradient
       id="ax"
       y2="45.017"
       gradientUnits="userSpaceOnUse"
       x2="20.759"
       gradientTransform="matrix(.83721 0 0 .83721 107.91 38.744)"
       y1="1"
       x1="20.759">
      <stop
         stop-color="#f0f0f0"
         offset="0"
         id="stop80" />
      <stop
         stop-color="#aaa"
         offset="1"
         id="stop82" />
    </linearGradient>
    <clipPath
       id="az">
      <path
         display="block"
         fill="url(#linearGradient3774)"
         d="m30.916 135.97c-0.93726 0.54113-1.2283 1.7475-0.67792 2.7008l1.9375 3.3558c-1.4181 1.4141-2.6223 3.012-3.5955 4.71l-3.7836-0.99094c-0.53163-0.14245-1.0379-0.11751-1.4762 0.13061-0.43816 0.24835-0.79654 0.66758-0.9366 1.1903l-1.9788 7.3851c-0.2801 1.0454 0.36595 2.0654 1.4291 2.3503l3.7722 1.0336c-0.0062 1.9571 0.23771 3.943 0.75875 5.8767l-3.3558 1.9375c-0.95328 0.55038-1.3044 1.7407-0.7633 2.6779l3.8125 6.6034c0.54113 0.93726 1.7475 1.2283 2.7008 0.67792l3.3558-1.9375c1.4141 1.4181 3.012 2.6223 4.71 3.5954l-0.99094 3.7836c-0.2849 1.0632 0.27544 2.1327 1.3209 2.4128l7.3851 1.9788c1.0454 0.28012 2.0654-0.36588 2.3503-1.4291l1.0336-3.7722c1.9571 0.006 3.943-0.2377 5.8767-0.75875l1.9375 3.3558c0.55038 0.95327 1.7407 1.3044 2.6779 0.7633l6.6034-3.8125c0.93726-0.54113 1.2283-1.7475 0.67792-2.7008l-1.9375-3.3558c1.4181-1.4141 2.6223-3.012 3.5955-4.71l3.7836 0.99095c1.0632 0.28489 2.1327-0.2755 2.4128-1.3209l1.9788-7.3851c0.2801-1.0454-0.36595-2.0654-1.4291-2.3503l-3.7722-1.0336c0.0062-1.9571-0.2377-3.943-0.75876-5.8767l3.3558-1.9375c0.95327-0.55037 1.3044-1.7407 0.7633-2.6779l-3.8125-6.6034c-0.54113-0.93727-1.7475-1.2283-2.7008-0.67793l-3.3558 1.9375c-1.4141-1.4181-3.012-2.6223-4.71-3.5954l0.99094-3.7836c0.2849-1.0632-0.27542-2.1328-1.3209-2.4128l-7.3851-1.9788c-1.0454-0.28011-2.0654 0.36588-2.3503 1.4291l-1.0336 3.7722c-1.9571-0.006-3.943 0.23771-5.8767 0.75876l-1.9375-3.3558c-0.55038-0.95329-1.7407-1.3044-2.6779-0.7633l-6.6034 3.8125zm13.052 14.981c3.8263-2.2091 8.7191-0.89814 10.928 2.9282 2.2091 3.8263 0.89814 8.7191-2.9282 10.928-3.8263 2.2091-8.7191 0.89814-10.928-2.9282-2.2091-3.8264-0.89814-8.7191 2.9282-10.928z"
         id="path85" />
    </clipPath>
    <linearGradient
       id="aj"
       y2="66.233"
       xlink:href="#ai"
       gradientUnits="userSpaceOnUse"
       x2="126.14"
       y1="48.047"
       x1="48.234" />
    <linearGradient
       id="ai">
      <stop
         offset="0"
         id="stop89" />
      <stop
         stop-opacity="0"
         offset="1"
         id="stop91" />
    </linearGradient>
    <linearGradient
       id="ak"
       y2="62.839"
       xlink:href="#ai"
       gradientUnits="userSpaceOnUse"
       x2="126.67"
       y1="48.032"
       x1="48.055" />
    <linearGradient
       id="al"
       y2="60.29"
       xlink:href="#ai"
       gradientUnits="userSpaceOnUse"
       x2="127.05"
       y1="48.029"
       x1="47.997" />
    <linearGradient
       id="am"
       y2="57.665"
       xlink:href="#ai"
       gradientUnits="userSpaceOnUse"
       x2="127.42"
       y1="48.029"
       x1="47.998" />
    <linearGradient
       id="an"
       y2="66.233"
       xlink:href="#ah"
       gradientUnits="userSpaceOnUse"
       x2="126.14"
       y1="48.047"
       x1="48.234" />
    <linearGradient
       id="ah">
      <stop
         stop-color="#fff"
         offset="0"
         id="stop98" />
      <stop
         stop-color="#fff"
         stop-opacity="0"
         offset="1"
         id="stop100" />
    </linearGradient>
    <linearGradient
       id="ao"
       y2="62.839"
       xlink:href="#ah"
       gradientUnits="userSpaceOnUse"
       x2="126.67"
       y1="48.032"
       x1="48.055" />
    <linearGradient
       id="ap"
       y2="60.29"
       xlink:href="#ah"
       gradientUnits="userSpaceOnUse"
       x2="127.05"
       y1="48.029"
       x1="47.997" />
    <linearGradient
       id="aq"
       y2="57.665"
       xlink:href="#ah"
       gradientUnits="userSpaceOnUse"
       x2="127.42"
       y1="48.029"
       x1="47.998" />
    <linearGradient
       id="bc"
       y2="39.685"
       gradientUnits="userSpaceOnUse"
       x2="34.534"
       gradientTransform="matrix(.92364 0 0 .82548 8.343 11.456)"
       y1="12.285"
       x1="14.463">
      <stop
         stop-color="#c9c9c9"
         offset="0"
         id="stop106" />
      <stop
         stop-color="#f8f8f8"
         offset=".25"
         id="stop108" />
      <stop
         stop-color="#e2e2e2"
         offset=".5"
         id="stop110" />
      <stop
         stop-color="#b0b0b0"
         offset=".75"
         id="stop112" />
      <stop
         stop-color="#c9c9c9"
         offset="1"
         id="stop114" />
    </linearGradient>
    <linearGradient
       id="bb"
       y2="6.7758"
       gradientUnits="userSpaceOnUse"
       x2="20.631"
       gradientTransform="matrix(.98748 0 0 1.0024 -121.03 -23.389)"
       y1="42.254"
       x1="19.648">
      <stop
         stop-color="#b6b6b6"
         offset="0"
         id="stop117" />
      <stop
         stop-color="#f2f2f2"
         offset=".5"
         id="stop119" />
      <stop
         stop-color="#fafafa"
         offset=".67613"
         id="stop121" />
      <stop
         stop-color="#d8d8d8"
         offset=".84052"
         id="stop123" />
      <stop
         stop-color="#f2f2f2"
         offset=".875"
         id="stop125" />
      <stop
         stop-color="#dbdbdb"
         offset="1"
         id="stop127" />
    </linearGradient>
  </defs>
  <path
     opacity=".64773"
     style="color:#000000"
     d="m36.719 30.555a5.7412 5.1311 0 0 1 -11.482 0 5.7412 5.1311 0 1 1 11.482 0z"
     stroke="#fff"
     stroke-width=".70308"
     fill="none"
     id="path129" />
  <path
     opacity=".34659"
     style="color:#000000"
     d="m29.6 16.789-0.65312 3.8411c-1.2427 0.25294-3.5287 1.0265-4.5805 1.6098l-3.4746-2.3178c-0.92455 0.64151-0.98796 0.68502-1.7273 1.4953l2.5123 3.33c-0.72096 0.98468-1.5869 2.7394-1.8978 3.9934 0 0-4.4023 0.66324-4.4023 0.66324-0.07567 0.55238-0.0393 1.7347 0.01162 2.1896l4.2051 0.67702c0.29437 1.2846 1.396 3.3523 2.1762 4.4114l-2.6592 3.1399c0.70499 0.7822 0.84609 0.85378 1.7235 1.4816l3.5558-2.3282c1.2181 0.69448 3.636 1.5393 5.11 1.7791l0.58358 3.7928c0.4644 0.03778 1.7473 0.14376 2.3958 0.06914l0.65312-3.9482c1.3995-0.31126 3.8176-1.1984 4.9593-1.9242l3.552 2.2936c0.87-0.66151 0.87779-0.76119 1.5649-1.5783l-2.633-3.344c0.66075-1.0199 1.5151-3.0144 1.7471-4.218l4.3095-0.63906c0.03611-0.38399 0.03786-1.4548-0.06954-2.11l-4.389-0.678c-0.32777-1.0817-1.4526-3.0309-2.1337-3.9382l2.7907-3.1399c-0.76302-0.83397-1.0467-0.9484-2.0056-1.6024l-3.6756 2.3524c-1.0206-0.53943-3.0556-1.3617-4.248-1.596l-0.64931-3.7582c-0.59483-0.06254-2.311-0.03477-2.6509 0z"
     stroke="#fff"
     stroke-width=".70308"
     fill="none"
     id="path131" />
  <g
     display="none"
     transform="translate(0,-48)"
     id="g201">
    <rect
       opacity=".9"
       rx="6"
       ry="6"
       height="85"
       filter="url(#ba)"
       width="86"
       y="7"
       x="5"
       fill="url(#ay)"
       id="rect203" />
  </g>
  <g
     transform="matrix(.77259 0 0 .7398 -88.968 7.7524)"
     id="g209">
    <g
       fill-rule="evenodd"
       transform="matrix(2.1805,0,0,2.1409,26.333,-103.83)"
       id="g211">
      <path
         fill="url(#au)"
         d="m96.197 32.053a8.0985 8.2456 0 1 1 -16.197 0 8.0985 8.2456 0 1 1 16.197 0z"
         transform="matrix(.99503 -.26667 .26186 .97748 -45.404 45.726)"
         id="path213" />
      <path
         stroke-linejoin="round"
         d="m96.197 32.053a8.0985 8.2456 0 1 1 -16.197 0 8.0985 8.2456 0 1 1 16.197 0z"
         transform="matrix(.71203 -.19083 .18738 .69948 -18.085 47.955)"
         stroke="url(#aw)"
         stroke-width="1.4278"
         fill="url(#av)"
         id="path215" />
    </g>
  </g>
  <g
     transform="matrix(.071608 .89642 -.93884 .068372 31.654 112.96)"
     id="g295">
    <path
       style="color:#000000"
       d="m-103.75-4.8441 21.354 22.179c0.86405 1.0024 3.6019 1.7772 5.4312 0 1.7665-1.7162 1.3578-4.1351-0.37031-5.8893l-20.486-22.305c2.5298-7.1336-2.5904-13.125-9.196-11.841l-1.4195 1.3157 4.4437 4.2604 0.24687 3.7591-3.3178 3.0744-3.9649-0.44302-4.0734-3.8844s-1.4281 1.4323-1.4281 1.4323c-0.66423 6.4389 5.9678 12.194 12.784 8.3414z"
       stroke="#7c7e79"
       stroke-width="1.833"
       fill="url(#bb)"
       id="path297" />
    <path
       opacity=".42614"
       style="color:#000000"
       d="m-103.51-6.3 21.591 22.859c0.66889 0.77601 2.7883 1.3758 4.2044 0 1.369-1.328 1.053-3.201-0.285-4.559l-20.791-22.395c1.6865-7.419-2.0899-11.419-7.7117-11.276l-0.30373 0.31203 4.051 3.6938 0.14635 4.773-4.0633 3.7648-4.7698-0.52299-3.5716-3.4144-0.39649 0.49086c-0.35136 6.8126 7.299 9.9126 11.902 6.2745z"
       stroke="#fff"
       stroke-width="1.1328"
       fill="none"
       id="path299" />
    <path
       style="color:#000000"
       d="m43.25 37.5a1.375 1.375 0 1 1 -2.75 0 1.375 1.375 0 1 1 2.75 0z"
       transform="matrix(.98748 0 0 1.0024 -121.15 -23.264)"
       stroke="#a1a1a1"
       stroke-width="1.1386"
       fill="#fff"
       id="path301" />
  </g>
</svg>
