<?xml version="1.0" encoding="UTF-8" standalone="no"?>
<svg
   xmlns:dc="http://purl.org/dc/elements/1.1/"
   xmlns:cc="http://creativecommons.org/ns#"
   xmlns:rdf="http://www.w3.org/1999/02/22-rdf-syntax-ns#"
   xmlns:svg="http://www.w3.org/2000/svg"
   xmlns="http://www.w3.org/2000/svg"
   xmlns:sodipodi="http://sodipodi.sourceforge.net/DTD/sodipodi-0.dtd"
   xmlns:inkscape="http://www.inkscape.org/namespaces/inkscape"
   id="Слой_1"
   data-name="Слой 1"
   viewBox="0 0 24 24"
   version="1.1"
   sodipodi:docname="undo.svg"
   inkscape:version="1.0.1 (c497b03c, 2020-09-10)">
  <sodipodi:namedview
     pagecolor="#ffffff"
     bordercolor="#666666"
     borderopacity="1"
     objecttolerance="10"
     gridtolerance="10"
     guidetolerance="10"
     inkscape:pageopacity="0"
     inkscape:pageshadow="2"
     inkscape:window-width="1609"
     inkscape:window-height="1035"
     id="namedview30"
     showgrid="true"
     inkscape:zoom="18.574646"
     inkscape:cx="15.8763"
     inkscape:cy="14.951122"
     inkscape:window-x="0"
     inkscape:window-y="23"
     inkscape:window-maximized="0"
     inkscape:document-rotation="0"
     inkscape:current-layer="Слой_1">
    <inkscape:grid
       type="xygrid"
       id="grid_kicad"
       spacingx="1"
       spacingy="1"
       color="#9999ff"
       opacity="0.13"
       empspacing="2" />
  </sodipodi:namedview>
  <metadata
     id="metadata43">
    <rdf:RDF>
      <cc:Work
         rdf:about="">
        <cc:license
           rdf:resource="http://creativecommons.org/licenses/by-sa/4.0/" />
        <dc:format>image/svg+xml</dc:format>
        <dc:type
           rdf:resource="http://purl.org/dc/dcmitype/StillImage" />
        <dc:title>add_arc</dc:title>
      </cc:Work>
      <cc:License
         rdf:about="http://creativecommons.org/licenses/by-sa/4.0/">
        <cc:permits
           rdf:resource="http://creativecommons.org/ns#Reproduction" />
        <cc:permits
           rdf:resource="http://creativecommons.org/ns#Distribution" />
        <cc:requires
           rdf:resource="http://creativecommons.org/ns#Notice" />
        <cc:requires
           rdf:resource="http://creativecommons.org/ns#Attribution" />
        <cc:permits
           rdf:resource="http://creativecommons.org/ns#DerivativeWorks" />
        <cc:requires
           rdf:resource="http://creativecommons.org/ns#ShareAlike" />
      </cc:License>
    </rdf:RDF>
  </metadata>
  <defs
     id="defs27419">
    <style
       id="style27417">.cls-1{fill:#545454;}</style>
  </defs>
  <title
     id="title27421">undo</title>
  <path
     class="cls-1"
     d="m 10.693522,22.85096 c -0.063,0 -0.125147,-9.47e-4 -0.189473,-0.0019 A 10.229374,10.229374 0 0 1 3.2684462,19.690642 0.95050179,0.95050179 0 1 1 4.6347374,18.368877 8.4239785,8.4239785 0 0 0 16.742075,6.6532752 8.395747,8.395747 0 0 0 4.8474211,6.4395494 0.95068178,0.95068178 0 0 1 3.529256,5.069374 10.058659,10.058659 0 0 1 10.873427,2.1730867 10.326289,10.326289 0 0 1 20.998306,12.696049 10.324868,10.324868 0 0 1 10.693522,22.85096 Z"
     id="path27423"
     style="stroke-width:0.947366" />
  <path
     class="cls-1"
     d="M 8.6954,9.46 A 0.993,0.993 0 0 1 8.3911,9.4129 L 2.6976,7.5922 A 1.0049,1.0049 0 0 1 2,6.6346 v -5.63 a 1.0019,1.0019 0 1 1 2.0038,0 v 4.896 L 9,7.498 A 1.0051,1.0051 0 0 1 8.6954,9.46 Z"
     id="path27425" />
</svg>
