<svg id="Слой_1" data-name="Слой 1"
  xmlns:dc="http://purl.org/dc/elements/1.1/"
  xmlns:cc="http://creativecommons.org/ns#"
  xmlns:rdf="http://www.w3.org/1999/02/22-rdf-syntax-ns#"
  xmlns="http://www.w3.org/2000/svg" viewBox="0 0 26 26">
  <metadata id="metadata43">
    <rdf:RDF>
      <cc:Work rdf:about="">
        <cc:license rdf:resource="http://creativecommons.org/licenses/by-sa/4.0/" />
        <dc:format>image/svg+xml</dc:format>
        <dc:type rdf:resource="http://purl.org/dc/dcmitype/StillImage" />
        <dc:title>add_arc</dc:title>
      </cc:Work>
      <cc:License rdf:about="http://creativecommons.org/licenses/by-sa/4.0/">
        <cc:permits rdf:resource="http://creativecommons.org/ns#Reproduction" />
        <cc:permits rdf:resource="http://creativecommons.org/ns#Distribution" />
        <cc:requires rdf:resource="http://creativecommons.org/ns#Notice" />
        <cc:requires rdf:resource="http://creativecommons.org/ns#Attribution" />
        <cc:permits rdf:resource="http://creativecommons.org/ns#DerivativeWorks" />
        <cc:requires rdf:resource="http://creativecommons.org/ns#ShareAlike" />
      </cc:License>
    </rdf:RDF>
  </metadata>
  <defs>
    <style>.cls-1{fill:#545454;}</style>
  </defs>
  <title>undo</title>
  <path class="cls-1" d="M12.1209,25c-.0665,0-.1321-.001-.2-.002a10.7977,10.7977,0,0,1-7.6376-3.3339,1.0033,1.0033,0,1,1,1.4422-1.3952,8.892,8.892,0,0,0,12.78-12.3665A8.8622,8.8622,0,0,0,5.95,7.6768,1.0035,1.0035,0,0,1,4.5586,6.2305a10.6175,10.6175,0,0,1,7.7522-3.0572A10.9,10.9,0,0,1,22.9982,14.2809,10.8985,10.8985,0,0,1,12.1209,25Z"/>
  <path class="cls-1" d="M9.6954,10.46a.993.993,0,0,1-.3043-.0471L3.6976,8.5922A1.0049,1.0049,0,0,1,3,7.6346v-5.63a1.0019,1.0019,0,1,1,2.0038,0v4.896L10,8.498A1.0051,1.0051,0,0,1,9.6954,10.46Z"/>
</svg>