<svg id="Слой_1" data-name="Слой 1"
  xmlns:dc="http://purl.org/dc/elements/1.1/"
  xmlns:cc="http://creativecommons.org/ns#"
  xmlns:rdf="http://www.w3.org/1999/02/22-rdf-syntax-ns#"
  xmlns="http://www.w3.org/2000/svg" viewBox="0 0 26 26">
  <metadata id="metadata43">
    <rdf:RDF>
      <cc:Work rdf:about="">
        <cc:license rdf:resource="http://creativecommons.org/licenses/by-sa/4.0/" />
        <dc:format>image/svg+xml</dc:format>
        <dc:type rdf:resource="http://purl.org/dc/dcmitype/StillImage" />
        <dc:title>add_arc</dc:title>
      </cc:Work>
      <cc:License rdf:about="http://creativecommons.org/licenses/by-sa/4.0/">
        <cc:permits rdf:resource="http://creativecommons.org/ns#Reproduction" />
        <cc:permits rdf:resource="http://creativecommons.org/ns#Distribution" />
        <cc:requires rdf:resource="http://creativecommons.org/ns#Notice" />
        <cc:requires rdf:resource="http://creativecommons.org/ns#Attribution" />
        <cc:permits rdf:resource="http://creativecommons.org/ns#DerivativeWorks" />
        <cc:requires rdf:resource="http://creativecommons.org/ns#ShareAlike" />
      </cc:License>
    </rdf:RDF>
  </metadata>
  <defs>
    <style>.cls-1{fill:none;stroke:#545454;stroke-linecap:round;stroke-linejoin:round;}.cls-2{fill:#545454;}</style>
  </defs>
  <title>unit_mm</title>
  <line class="cls-1" x1="21.4521" y1="16.8462" x2="4.5479" y2="16.8462"/>
  <polygon class="cls-2" points="20.66 15.684 24.996 16.846 20.66 18.008 20.66 15.684"/>
  <polygon class="cls-2" points="5.341 15.684 1.004 16.846 5.341 18.008 5.341 15.684"/>
  <path class="cls-2" d="M4.3953,8.0982l.0781.7509a2.1385,2.1385,0,0,1,.7988-.6338,2.6046,2.6046,0,0,1,1.1113-.2236,2.2027,2.2027,0,0,1,1.0948.2559,1.5946,1.5946,0,0,1,.6845.7666,2.153,2.153,0,0,1,.794-.751,2.3612,2.3612,0,0,1,1.1543-.2715,2.0422,2.0422,0,0,1,1.5478.5938,2.5228,2.5228,0,0,1,.5684,1.8037v3.4726H10.7664V10.3833A1.4854,1.4854,0,0,0,10.4812,9.35a1.1351,1.1351,0,0,0-.8574-.2978,1.3619,1.3619,0,0,0-.793.2236,1.2475,1.2475,0,0,0-.4687.6016c0,.0537.0019.1.0058.1386s.0059.0762.0059.1114v3.7343H6.9128V10.3833a1.4648,1.4648,0,0,0-.291-1.02,1.1187,1.1187,0,0,0-.8574-.3115,1.6993,1.6993,0,0,0-.7539.1513,1.2164,1.2164,0,0,0-.49.4287v4.23H3.06V8.0982Z"/>
  <path class="cls-2" d="M15.1,8.0982l.0782.7509a2.1464,2.1464,0,0,1,.7988-.6338A2.6061,2.6061,0,0,1,17.09,7.9917a2.205,2.205,0,0,1,1.0947.2559,1.5948,1.5948,0,0,1,.6846.7666,2.1452,2.1452,0,0,1,.7939-.751,2.356,2.356,0,0,1,1.1543-.2715,2.0415,2.0415,0,0,1,1.5469.5938,2.5228,2.5228,0,0,1,.5684,1.8037v3.4726h-1.461V10.3833A1.486,1.486,0,0,0,21.1863,9.35a1.1329,1.1329,0,0,0-.8565-.2978,1.3629,1.3629,0,0,0-.7939.2236,1.2477,1.2477,0,0,0-.4688.6016c0,.0537.002.1.0059.1386s.0059.0762.0059.1114v3.7343h-1.46V10.3833a1.46,1.46,0,0,0-.292-1.02,1.1151,1.1151,0,0,0-.8564-.3115,1.7038,1.7038,0,0,0-.7549.1513,1.2138,1.2138,0,0,0-.4893.4287v4.23h-1.46V8.0982Z"/>
</svg>