<svg id="Слой_1" data-name="Слой 1"
  xmlns:cc="http://creativecommons.org/ns#"
  xmlns:rdf="http://www.w3.org/1999/02/22-rdf-syntax-ns#"
  xmlns="http://www.w3.org/2000/svg" viewBox="0 0 26 26">
  <metadata id="metadata43">
    <rdf:RDF>
      <cc:Work rdf:about="">
        <cc:license rdf:resource="http://creativecommons.org/licenses/by/4.0/" />
      </cc:Work>
      <cc:License rdf:about="http://creativecommons.org/licenses/by/4.0/">
        <cc:permits rdf:resource="http://creativecommons.org/ns#Reproduction" />
        <cc:permits rdf:resource="http://creativecommons.org/ns#Distribution" />
        <cc:requires rdf:resource="http://creativecommons.org/ns#Notice" />
        <cc:requires rdf:resource="http://creativecommons.org/ns#Attribution" />
        <cc:permits rdf:resource="http://creativecommons.org/ns#DerivativeWorks" />
      </cc:License>
    </rdf:RDF>
  </metadata>
  <defs>
    <style>.cls-1{fill:none;stroke:#545454;stroke-linecap:round;stroke-linejoin:round;}.cls-2{fill:#545454;}</style>
  </defs>
  <title>unit_mils</title>
  <line class="cls-1" x1="21.4521" y1="17.8393" x2="4.5479" y2="17.8393"/>
  <polygon class="cls-2" points="20.66 16.677 24.996 17.839 20.66 19.001 20.66 16.677"/>
  <polygon class="cls-2" points="5.341 16.677 1.004 17.839 5.341 19.001 5.341 16.677"/>
  <path class="cls-2" d="M6.3735,9.6378l.081.7786a2.2154,2.2154,0,0,1,.8281-.6571,2.7016,2.7016,0,0,1,1.1531-.2318A2.2828,2.2828,0,0,1,9.57,9.7927a1.6506,1.6506,0,0,1,.7106.7947,2.23,2.23,0,0,1,.8221-.7785,2.4479,2.4479,0,0,1,1.1966-.2814,2.1171,2.1171,0,0,1,1.6046.6155,2.6155,2.6155,0,0,1,.5893,1.87v3.6H12.9782V12.0068a1.54,1.54,0,0,0-.2956-1.0711,1.1742,1.1742,0,0,0-.8878-.3088,1.4127,1.4127,0,0,0-.8231.2319,1.2934,1.2934,0,0,0-.4859.6236c0,.0557.002.1032.006.1437a1.1482,1.1482,0,0,1,.0061.1155v3.8713H8.9844V12.0068A1.5185,1.5185,0,0,0,8.6817,10.95a1.1559,1.1559,0,0,0-.8879-.323,1.7634,1.7634,0,0,0-.7825.1569,1.2508,1.2508,0,0,0-.5072.4445v4.3846H4.99V9.6378Z"/>
  <path class="cls-2" d="M17.702,8.1749H16.1875V6.9986H17.702Zm0,7.438H16.1875V9.6378H17.702Z"/>
  <path class="cls-2" d="M21.01,15.6129H19.4959V6.9986H21.01Z"/>
</svg>