<svg id="Слой_1" data-name="Слой 1"
  xmlns:dc="http://purl.org/dc/elements/1.1/"
  xmlns:cc="http://creativecommons.org/ns#"
  xmlns:rdf="http://www.w3.org/1999/02/22-rdf-syntax-ns#"
  xmlns="http://www.w3.org/2000/svg"
  xmlns:sodipodi="http://sodipodi.sourceforge.net/DTD/sodipodi-0.dtd"
  xmlns:inkscape="http://www.inkscape.org/namespaces/inkscape" viewBox="0 0 26 26">
  <sodipodi:namedview pagecolor="#ffffff" bordercolor="#666666" borderopacity="1" objecttolerance="10" gridtolerance="10" guidetolerance="10" inkscape:pageopacity="0" inkscape:pageshadow="2" inkscape:window-width="1609" inkscape:window-height="1286" id="namedview30" showgrid="true" inkscape:zoom="27.961538" inkscape:cx="13" inkscape:cy="13" inkscape:window-x="0" inkscape:window-y="37" inkscape:window-maximized="0">
    <inkscape:grid type="xygrid" id="grid_kicad" spacingx="0.5" spacingy="0.5" color="#9999ff" opacity="0.13" empspacing="2" />
  </sodipodi:namedview>
  <metadata id="metadata43">
    <rdf:RDF>
      <cc:Work rdf:about="">
        <cc:license rdf:resource="http://creativecommons.org/licenses/by-sa/4.0/" />
        <dc:format>image/svg+xml</dc:format>
        <dc:type rdf:resource="http://purl.org/dc/dcmitype/StillImage" />
        <dc:title>add_arc</dc:title>
      </cc:Work>
      <cc:License rdf:about="http://creativecommons.org/licenses/by-sa/4.0/">
        <cc:permits rdf:resource="http://creativecommons.org/ns#Reproduction" />
        <cc:permits rdf:resource="http://creativecommons.org/ns#Distribution" />
        <cc:requires rdf:resource="http://creativecommons.org/ns#Notice" />
        <cc:requires rdf:resource="http://creativecommons.org/ns#Attribution" />
        <cc:permits rdf:resource="http://creativecommons.org/ns#DerivativeWorks" />
        <cc:requires rdf:resource="http://creativecommons.org/ns#ShareAlike" />
      </cc:License>
    </rdf:RDF>
  </metadata>
  <defs>
    <style>.cls-1{fill:#b9b9b9;}.cls-2{fill:#1a81c4;}.cls-3{fill:#fff;}</style>
  </defs>
  <title>unknown</title>
  <rect class="cls-1" x="3.0637" y="2.0043" width="21.9351" height="21.9914" rx="3.6605"/>
  <rect class="cls-2" x="1.0012" y="6.5006" width="18.7099" height="9.2299"/>
  <path class="cls-3" d="M5.0781,12.4648a2.1457,2.1457,0,0,1,.1465-.9091,2.65,2.65,0,0,1,.63-.6866,4.074,4.074,0,0,0,.55-.6464A1.2158,1.2158,0,0,0,6.6084,9.54a.9142.9142,0,0,0-.2334-.6689.8834.8834,0,0,0-.6631-.2383.9813.9813,0,0,0-.625.2022.713.713,0,0,0-.2568.5986H3.792l-.0137-.0274a1.4677,1.4677,0,0,1,.53-1.2333,2.1514,2.1514,0,0,1,1.4033-.4424,2.0718,2.0718,0,0,1,1.4522.4756,1.6983,1.6983,0,0,1,.5214,1.32,1.8276,1.8276,0,0,1-.3261,1.0468,4.0109,4.0109,0,0,1-.8223.8829,1.02,1.02,0,0,0-.3174.4218,2.0328,2.0328,0,0,0-.0644.5869Zm1.0948,1.8321h-1.1V13.2607h1.1Z"/>
  <path class="cls-3" d="M9.4951,12.4648a2.1442,2.1442,0,0,1,.1465-.9091,2.65,2.65,0,0,1,.63-.6866,4.074,4.074,0,0,0,.55-.6464,1.2158,1.2158,0,0,0,.2041-.6827.9142.9142,0,0,0-.2334-.6689.8834.8834,0,0,0-.6631-.2383.9813.9813,0,0,0-.625.2022.713.713,0,0,0-.2568.5986H8.209l-.0137-.0274a1.4677,1.4677,0,0,1,.53-1.2333,2.1514,2.1514,0,0,1,1.4033-.4424,2.0718,2.0718,0,0,1,1.4522.4756,1.6983,1.6983,0,0,1,.5214,1.32,1.8276,1.8276,0,0,1-.3261,1.0468,4.0109,4.0109,0,0,1-.8223.8829,1.02,1.02,0,0,0-.3174.4218,2.0328,2.0328,0,0,0-.0644.5869ZM10.59,14.2969H9.49V13.2607h1.1Z"/>
  <path class="cls-3" d="M13.9111,12.4648a2.1457,2.1457,0,0,1,.1465-.9091,2.65,2.65,0,0,1,.63-.6866,4.074,4.074,0,0,0,.55-.6464,1.2158,1.2158,0,0,0,.2041-.6827.9142.9142,0,0,0-.2334-.6689.8834.8834,0,0,0-.6631-.2383.9813.9813,0,0,0-.625.2022.713.713,0,0,0-.2568.5986H12.625l-.0137-.0274a1.4677,1.4677,0,0,1,.53-1.2333,2.1514,2.1514,0,0,1,1.4033-.4424,2.0718,2.0718,0,0,1,1.4522.4756,1.6983,1.6983,0,0,1,.5215,1.32,1.8269,1.8269,0,0,1-.3262,1.0468,4.0109,4.0109,0,0,1-.8223.8829,1.02,1.02,0,0,0-.3174.4218,2.0328,2.0328,0,0,0-.0644.5869Zm1.0948,1.8321h-1.1V13.2607h1.1Z"/>
</svg>