<svg id="Слой_1" data-name="Слой 1"
  xmlns:cc="http://creativecommons.org/ns#"
  xmlns:rdf="http://www.w3.org/1999/02/22-rdf-syntax-ns#"
  xmlns="http://www.w3.org/2000/svg" viewBox="0 0 26 26">
  <metadata id="metadata43">
    <rdf:RDF>
      <cc:Work rdf:about="">
        <cc:license rdf:resource="http://creativecommons.org/licenses/by/4.0/" />
      </cc:Work>
      <cc:License rdf:about="http://creativecommons.org/licenses/by/4.0/">
        <cc:permits rdf:resource="http://creativecommons.org/ns#Reproduction" />
        <cc:permits rdf:resource="http://creativecommons.org/ns#Distribution" />
        <cc:requires rdf:resource="http://creativecommons.org/ns#Notice" />
        <cc:requires rdf:resource="http://creativecommons.org/ns#Attribution" />
        <cc:permits rdf:resource="http://creativecommons.org/ns#DerivativeWorks" />
      </cc:License>
    </rdf:RDF>
  </metadata>
  <defs>
    <style>.cls-1{fill:#545454;}</style>
  </defs>
  <title>unlocked</title>
  <path class="cls-1" d="M25.0037,8.6783H23.0853v-1.92a3.8369,3.8369,0,0,0-7.6738,0v4.3478H13.493V6.7585a5.7554,5.7554,0,0,1,11.5107,0Z"/>
  <path class="cls-1" d="M16.3707,11.0125H2.9416a1.9185,1.9185,0,0,0-1.9185,1.9184V23.0762a1.9185,1.9185,0,0,0,1.9185,1.9184H16.3707a1.9185,1.9185,0,0,0,1.9185-1.9184V12.9309A1.9185,1.9185,0,0,0,16.3707,11.0125Zm-5.7553,8.7518V21.43a.9593.9593,0,0,1-1.9185,0V19.7643a1.9185,1.9185,0,1,1,1.9185,0Z"/>
</svg>