<svg id="Слой_1" data-name="Слой 1"
  xmlns:cc="http://creativecommons.org/ns#"
  xmlns:rdf="http://www.w3.org/1999/02/22-rdf-syntax-ns#"
  xmlns="http://www.w3.org/2000/svg" viewBox="0 0 26 26">
  <metadata id="metadata43">
    <rdf:RDF>
      <cc:Work rdf:about="">
        <cc:license rdf:resource="http://creativecommons.org/licenses/by/4.0/" />
      </cc:Work>
      <cc:License rdf:about="http://creativecommons.org/licenses/by/4.0/">
        <cc:permits rdf:resource="http://creativecommons.org/ns#Reproduction" />
        <cc:permits rdf:resource="http://creativecommons.org/ns#Distribution" />
        <cc:requires rdf:resource="http://creativecommons.org/ns#Notice" />
        <cc:requires rdf:resource="http://creativecommons.org/ns#Attribution" />
        <cc:permits rdf:resource="http://creativecommons.org/ns#DerivativeWorks" />
      </cc:License>
    </rdf:RDF>
  </metadata>
  <defs>
    <style>.cls-1{fill:#545454;}.cls-2{fill:#e49435;}.cls-3{fill:#1a81c4;}.cls-4{fill:#b9b9b9;}</style>
  </defs>
  <title>unzip</title>
  <polygon class="cls-1" points="12.992 23 12.992 12.287 21.096 8.992 21.088 19.451 12.992 23"/>
  <polygon class="cls-2" points="12.992 23 12.992 12.082 5.06 8.729 5.06 19.41 12.992 23"/>
  <polygon class="cls-3" points="12.629 5.472 4.578 8.729 13 12.344 20.921 9.065 21.096 8.992 12.629 5.472"/>
  <polygon class="cls-4" points="13 12.344 16.656 15.302 25 11.589 21.096 8.992 13 12.344"/>
  <polygon class="cls-4" points="9.181 15.302 13 12.344 4.578 8.729 1 11.424 9.181 15.302"/>
  <polygon class="cls-4" points="4.578 8.729 12.615 5.467 9.012 3 1.157 6.226 4.578 8.729"/>
  <polygon class="cls-4" points="21.096 8.992 24.33 6.525 15.951 3.02 12.629 5.472 21.096 8.992"/>
</svg>