<svg xmlns="http://www.w3.org/2000/svg" height="48" width="48" version="1.1" xmlns:xlink="http://www.w3.org/1999/xlink">
 <defs>
  <linearGradient id="ae" y2="58.048" gradientUnits="userSpaceOnUse" x2="105.32" gradientTransform="matrix(0,1.0046,1,0,-3.1899,-50.903)" y1="2.0478" x1="58.749">
   <stop stop-color="#fff" offset="0"/>
   <stop stop-color="#fff" stop-opacity="0" offset="1"/>
  </linearGradient>
  <linearGradient id="ac" y2="24.988" gradientUnits="userSpaceOnUse" x2="41" gradientTransform="matrix(0 1 1 0 -.13478 4)" y1="24.988" x1="6">
   <stop stop-color="#fcaf3e" offset="0"/>
   <stop stop-color="#f57900" offset="1"/>
  </linearGradient>
  <radialGradient id="af" gradientUnits="userSpaceOnUse" cy="19.031" cx="11.25" gradientTransform="matrix(1 0 0 .28295 0 13.646)" r="8.0625">
   <stop offset="0"/>
   <stop stop-opacity="0" offset="1"/>
  </radialGradient>
  <linearGradient id="z" y2="8.0667" gradientUnits="userSpaceOnUse" x2="39.044" gradientTransform="translate(-.14645 6.875e-7)" y1="8.0667" x1="6.9462">
   <stop stop-color="#d7b47f" offset="0"/>
   <stop stop-color="#f4dbb3" offset="1"/>
  </linearGradient>
  <linearGradient id="ai" y2="10.654" xlink:href="#a" gradientUnits="userSpaceOnUse" x2="8" gradientTransform="translate(-.14645 6.875e-7)" y1="10.141" x1="6.675"/>
  <linearGradient id="v" y2="23.5" xlink:href="#u" gradientUnits="userSpaceOnUse" x2="1.8266" gradientTransform="matrix(1 0 0 1.3299 -.14645 -16.164)" y1="16.527" x1="8"/>
  <linearGradient id="ad" y2="13.46" gradientUnits="userSpaceOnUse" x2="24.938" y1="19.219" x1="24.938">
   <stop stop-color="#fff" offset="0"/>
   <stop stop-color="#fff" stop-opacity="0" offset="1"/>
  </linearGradient>
  <linearGradient id="ab" y2="10.942" xlink:href="#a" gradientUnits="userSpaceOnUse" x2="25.148" gradientTransform="translate(-.14645 6.875e-7)" y1="14.295" x1="24.883"/>
  <linearGradient id="aa" y2="27.945" xlink:href="#t" gradientUnits="userSpaceOnUse" x2="17.702" gradientTransform="matrix(1 0 0 1.3299 -.14645 -16.164)" y1="24.164" x1="17.327"/>
  <linearGradient id="y" y2="20.731" gradientUnits="userSpaceOnUse" x2="27.375" y1="31.772" x1="28.029">
   <stop stop-color="#fff" offset="0"/>
   <stop stop-color="#fff" stop-opacity="0" offset="1"/>
  </linearGradient>
  <linearGradient id="w" y2="26.188" gradientUnits="userSpaceOnUse" x2="24.5" gradientTransform="translate(-.14645 6.875e-7)" y1="17.812" x1="24.5">
   <stop offset="0"/>
   <stop stop-opacity="0" offset="1"/>
  </linearGradient>
  <linearGradient id="ah" y2="14.383" gradientUnits="userSpaceOnUse" x2="23.452" gradientTransform="matrix(1 0 0 .41997 -5.1464 -2.973)" y1="49.424" x1="24.99">
   <stop stop-color="#120c02" offset="0"/>
   <stop stop-color="#b97a1b" offset="1"/>
  </linearGradient>
  <linearGradient id="a">
   <stop stop-color="#a0670c" offset="0"/>
   <stop stop-color="#e6c99d" offset="1"/>
  </linearGradient>
  <linearGradient id="aj" y2="10.742" xlink:href="#a" gradientUnits="userSpaceOnUse" x2="37.308" gradientTransform="translate(-.14645 6.875e-7)" y1="9.3452" x1="41.448"/>
  <linearGradient id="u">
   <stop stop-color="#f9ead2" offset="0"/>
   <stop stop-color="#e4a546" offset="1"/>
  </linearGradient>
  <linearGradient id="ak" y2="23.422" xlink:href="#u" gradientUnits="userSpaceOnUse" x2="43.588" gradientTransform="matrix(1 0 0 1.3299 -.14645 -16.164)" y1="20.232" x1="37.308"/>
  <linearGradient id="t">
   <stop stop-color="#eaba6f" offset="0"/>
   <stop stop-color="#b97a1b" offset="1"/>
  </linearGradient>
  <linearGradient id="x" y2="14.383" xlink:href="#t" gradientUnits="userSpaceOnUse" x2="23.452" gradientTransform="matrix(1,0,0,1.2132,-5.1464,-10.089)" y1="49.424" x1="24.99"/>
  <filter id="ag" height="2.0143" width="1.2223" color-interpolation-filters="sRGB" y="-.50717" x="-.11116">
   <feGaussianBlur stdDeviation="2.0286765"/>
  </filter>
 </defs>
 <rect opacity=".5" display="block" rx="4" ry="4" height="8" filter="url(#ag)" width="36.5" y="31" x="4.8536"/>
 <rect display="block" rx="1.9142" ry="1.9142" height="26" width="31" stroke="#a0670c" y="11.5" x="7.3536" fill="url(#x)"/>
 <path stroke-linejoin="round" d="m38.354 11.48 6.0581 3.7544-0.94194-6.705-5.2777-3.8575 0.16161 6.8081z" stroke="url(#aj)" display="block" fill="url(#ak)"/>
 <rect display="block" rx=".54419" ry=".54419" height="9" width="31" stroke="#a0670c" y="4.5" x="7.3536" fill="url(#ah)"/>
 <rect opacity=".55294" display="block" height="11.625" width="30.25" y="15.25" x="7.6036" fill="url(#w)"/>
 <path opacity=".47647" d="m9.2812 12.562c-0.49873 0-0.875 0.36578-0.875 0.84375v22.188c0 0.47797 0.37627 0.84375 0.875 0.84375h27.156c0.49873 0 0.84375-0.34502 0.84375-0.84375v-22.188c0-0.49873-0.34502-0.84375-0.84375-0.84375h-27.156z" transform="translate(-.00024958)" display="block" stroke="url(#y)" fill="none"/>
 <path d="m7.4116 11.442-2 9.0581h34.912l-1.903-9.028-31.009-0.03z" stroke="url(#ab)" display="block" fill="url(#aa)"/>
 <path opacity=".25882" d="m8.1875 12.438-1.5313 7.062h32.438l-1.5-7.0312-29.406-0.031z" transform="translate(-.00024958)" display="block" stroke="url(#ad)" fill="none"/>
 <path stroke-linejoin="round" d="m7.4161 4.6831-0.0625 6.8169-5.8536 5 0.8839-7.8536 5.0322-3.9633z" stroke="url(#ai)" display="block" fill="url(#v)"/>
 <path display="block" fill="url(#z)" d="m6.9255 6.1049c-0.1305-0.4871 0.2161-1.1062 0.883-1.1062l30.178-0.042938c0.46609 0.00941 0.87991 0.47423 0.91176 1.0159l-0.01709 5.0783-1.0273-0.01338 0.007-5.0211h-29.919l-0.044194 4.8614-1.0971 0.30078 0.12573-5.0728z"/>
 <path opacity=".16292" d="m19.312 19.031a8.0625 2.2812 0 1 1 -16.125 0 8.0625 2.2812 0 1 1 16.125 0z" transform="matrix(2.5121,0,0,2.411,-4.6618,-3.8726)" fill="url(#af)"/>
 <path fill="url(#ac)" d="m25.391 46.5 13.975-12.035-13.975-11.975v6.0918c-5.486 2.0473-8.9778-2.1567-8.9778-7.0311 0-3.4638 1.905-8.1632 6.6414-9.7507 2.4635-0.82566 1.3843-2.2799-0.75674-2.2237-8.2618 0.21753-14.869 6.3429-14.869 15.487s7.0986 15.937 17.962 15.424v6.0131z" stroke="#ce5c00"/>
 <path opacity="0.354" d="m26.383 44.5 11.542-9.917-11.542-9.857v4.699c-5.5255 2.4778-10.897-1.0987-10.997-7.3066-0.06283-3.8992 1.233-5.947 3.4714-8.6624 1.2266-1.488 3.639-2.2477 4.5131-2.5982 0.02462-0.48056-2.6805-0.19802-4.3629 0.26062-6.1332 1.6719-10.651 6.8466-10.664 14.184-0.0137 7.3373 5.0245 15.301 18.04 14.303v4.8952z" stroke="url(#ae)" fill="none"/>
</svg>
