<?xml version="1.0" encoding="UTF-8" standalone="no"?>
<svg
   xmlns:dc="http://purl.org/dc/elements/1.1/"
   xmlns:cc="http://creativecommons.org/ns#"
   xmlns:rdf="http://www.w3.org/1999/02/22-rdf-syntax-ns#"
   xmlns:svg="http://www.w3.org/2000/svg"
   xmlns="http://www.w3.org/2000/svg"
   xmlns:sodipodi="http://sodipodi.sourceforge.net/DTD/sodipodi-0.dtd"
   xmlns:inkscape="http://www.inkscape.org/namespaces/inkscape"
   height="48"
   width="48"
   version="1.1"
   id="svg2"
   inkscape:version="0.48.2 r9819"
   sodipodi:docname="update_module_board.svg">
  <metadata
     id="metadata62">
    <rdf:RDF>
      <cc:Work
         rdf:about="">
        <dc:format>image/svg+xml</dc:format>
        <dc:type
           rdf:resource="http://purl.org/dc/dcmitype/StillImage" />
      </cc:Work>
    </rdf:RDF>
  </metadata>
  <sodipodi:namedview
     pagecolor="#ffffff"
     bordercolor="#666666"
     borderopacity="1"
     objecttolerance="10"
     gridtolerance="10"
     guidetolerance="10"
     inkscape:pageopacity="0"
     inkscape:pageshadow="2"
     inkscape:window-width="882"
     inkscape:window-height="663"
     id="namedview60"
     showgrid="false"
     inkscape:zoom="6.2723504"
     inkscape:cx="26.39952"
     inkscape:cy="23.98451"
     inkscape:window-x="0"
     inkscape:window-y="0"
     inkscape:window-maximized="0"
     inkscape:current-layer="svg2" />
  <defs
     id="defs4">
    <filter
       id="c"
       height="1.2013"
       width="1.1869"
       color-interpolation-filters="sRGB"
       y="-.10066"
       x="-.093452">
      <feGaussianBlur
         stdDeviation="0.83498843"
         id="feGaussianBlur7" />
    </filter>
    <linearGradient
       id="d"
       y2="309.64"
       gradientUnits="userSpaceOnUse"
       x2="48.17"
       gradientTransform="matrix(1.0667,0,0,1.0667,-3.73,-24.546)"
       y1="334.04"
       x1="72.828">
      <stop
         stop-color="#bfbfff"
         offset="0"
         id="stop10" />
      <stop
         stop-color="#fff"
         offset="1"
         id="stop12" />
    </linearGradient>
  </defs>
  <g
     transform="matrix(1.4419601,0,0,1.4016592,-66.713811,-421.59258)"
     id="g14">
    <path
       d="m 47.23,306.09 1,-0.99999 h 28 l 1,1 2e-6,28 -1,1 h -28 l -1,-1 -2e-6,-28 z"
       id="path16"
       inkscape:connector-curvature="0"
       style="fill:#030100;fill-opacity:0.39215997" />
    <path
       d="m 46.23,305.09 1,-0.99999 h 28 l 1,1 2e-6,28 -1,1 h -28 l -1,-1 -2e-6,-28 z"
       id="path18"
       inkscape:connector-curvature="0"
       style="fill:#030100" />
    <rect
       height="28"
       width="28"
       y="305.09"
       x="47.23"
       id="rect20"
       style="fill:url(#d)" />
    <path
       d="m 47.23,305.09 h 28 v 1 h -27 v 27 h -1 v -28 z"
       id="path22"
       inkscape:connector-curvature="0"
       style="fill:#ffffff" />
    <path
       d="m 75.23,333.09 h -27 v -1 h 26 v -26 h 1 v 27 z"
       id="path24"
       inkscape:connector-curvature="0"
       style="fill-opacity:0.39215997" />
    <g
       id="g26"
       style="fill:#ff7800">
      <path
         d="m 7,4 c -1.656,2e-7 -3,1.344 -3,3 0,1.656 1.344,3 3,3 1.656,-3e-7 3,-1.344 3,-3 C 10,5.344 8.656,4 7,4 z m 0,2 c 0.552,2e-7 1,0.448 1,1 C 8,7.552 7.552,8 7,8 6.448,8 6,7.552 6,7 6,6.448 6.448,6 7,6 z"
         transform="translate(45.23,303.09)"
         id="path28"
         inkscape:connector-curvature="0" />
      <rect
         y="309.17001"
         width="18.753"
         x="54.477001"
         height="1.9268"
         id="rect30" />
    </g>
    <g
       transform="matrix(-1,0,0,1,122.46,6)"
       id="g32"
       style="fill:#ff7800">
      <path
         d="m 7,4 c -1.656,2e-7 -3,1.344 -3,3 0,1.656 1.344,3 3,3 1.656,-3e-7 3,-1.344 3,-3 C 10,5.344 8.656,4 7,4 z m 0,2 c 0.552,2e-7 1,0.448 1,1 C 8,7.552 7.552,8 7,8 6.448,8 6,7.552 6,7 6,6.448 6.448,6 7,6 z"
         transform="translate(45.23,303.09)"
         id="path34"
         inkscape:connector-curvature="0" />
      <rect
         y="309.17001"
         width="18.753"
         x="54.477001"
         height="1.9268"
         id="rect36" />
    </g>
    <g
       transform="translate(0,12)"
       id="g38"
       style="fill:#ff7800">
      <path
         d="m 7,4 c -1.656,2e-7 -3,1.344 -3,3 0,1.656 1.344,3 3,3 1.656,-3e-7 3,-1.344 3,-3 C 10,5.344 8.656,4 7,4 z m 0,2 c 0.552,2e-7 1,0.448 1,1 C 8,7.552 7.552,8 7,8 6.448,8 6,7.552 6,7 6,6.448 6.448,6 7,6 z"
         transform="translate(45.23,303.09)"
         id="path40"
         inkscape:connector-curvature="0" />
      <rect
         y="309.17001"
         width="18.753"
         x="54.477001"
         height="1.9268"
         id="rect42" />
    </g>
    <g
       transform="matrix(-1,0,0,1,122.46,18)"
       id="g44"
       style="fill:#ff7800">
      <path
         d="m 7,4 c -1.656,2e-7 -3,1.344 -3,3 0,1.656 1.344,3 3,3 1.656,-3e-7 3,-1.344 3,-3 C 10,5.344 8.656,4 7,4 z m 0,2 c 0.552,2e-7 1,0.448 1,1 C 8,7.552 7.552,8 7,8 6.448,8 6,7.552 6,7 6,6.448 6.448,6 7,6 z"
         transform="translate(45.23,303.09)"
         id="path46"
         inkscape:connector-curvature="0" />
      <rect
         y="309.17001"
         width="18.753"
         x="54.477001"
         height="1.9268"
         id="rect48" />
    </g>
  </g>
  <g
     transform="matrix(1.8771272,0,0,1.9092491,-324.62346,-120.62657)"
     id="g50"
     style="fill-rule:evenodd">
    <path
       d="m 184.24,72.874 -0.0887,-6.4061 -8.9776,9.7241 9.0663,9.954 V 79.51 c 7.933,0 12.378,-4.424 12.378,-13.272 h -6.7111 c 0,4.424 -2.2666,6.636 -5.6664,6.636 z"
       id="path52"
       inkscape:connector-curvature="0"
       style="opacity:0.3125;filter:url(#c)" />
    <g
       transform="matrix(-2.2666,0,0,2.212,213.62,88.457)"
       id="g54">
      <path
         d="m 12,-8.441 0.03913,-2.8961 3.9609,4.3961 -4,4.5 v -3 c -3.5,0 -5.4609,-2 -5.4609,-6 h 2.9609 c 0,2 1,3 2.5,3 z"
         id="path56"
         inkscape:connector-curvature="0" />
      <path
         d="m 12.5,-7.941 v -1.5 l 2.5,2.5 -2.5,3 v -2 c -2,0 -5,-0.5 -5,-4.5 H 9 c 0,2 2,2.5 3.5,2.5 z"
         id="path58"
         inkscape:connector-curvature="0"
         style="fill:#00bd00" />
    </g>
  </g>
</svg>
