<svg id="Слой_1" data-name="Слой 1"
  xmlns:dc="http://purl.org/dc/elements/1.1/"
  xmlns:cc="http://creativecommons.org/ns#"
  xmlns:rdf="http://www.w3.org/1999/02/22-rdf-syntax-ns#"
  xmlns="http://www.w3.org/2000/svg"
  xmlns:sodipodi="http://sodipodi.sourceforge.net/DTD/sodipodi-0.dtd"
  xmlns:inkscape="http://www.inkscape.org/namespaces/inkscape" viewBox="0 0 26 26">
  <sodipodi:namedview pagecolor="#ffffff" bordercolor="#666666" borderopacity="1" objecttolerance="10" gridtolerance="10" guidetolerance="10" inkscape:pageopacity="0" inkscape:pageshadow="2" inkscape:window-width="1609" inkscape:window-height="1286" id="namedview30" showgrid="true" inkscape:zoom="27.961538" inkscape:cx="13" inkscape:cy="13" inkscape:window-x="0" inkscape:window-y="37" inkscape:window-maximized="0">
    <inkscape:grid type="xygrid" id="grid_kicad" spacingx="0.5" spacingy="0.5" color="#9999ff" opacity="0.13" empspacing="2" />
  </sodipodi:namedview>
  <metadata id="metadata43">
    <rdf:RDF>
      <cc:Work rdf:about="">
        <cc:license rdf:resource="http://creativecommons.org/licenses/by-sa/4.0/" />
        <dc:format>image/svg+xml</dc:format>
        <dc:type rdf:resource="http://purl.org/dc/dcmitype/StillImage" />
        <dc:title>add_arc</dc:title>
      </cc:Work>
      <cc:License rdf:about="http://creativecommons.org/licenses/by-sa/4.0/">
        <cc:permits rdf:resource="http://creativecommons.org/ns#Reproduction" />
        <cc:permits rdf:resource="http://creativecommons.org/ns#Distribution" />
        <cc:requires rdf:resource="http://creativecommons.org/ns#Notice" />
        <cc:requires rdf:resource="http://creativecommons.org/ns#Attribution" />
        <cc:permits rdf:resource="http://creativecommons.org/ns#DerivativeWorks" />
        <cc:requires rdf:resource="http://creativecommons.org/ns#ShareAlike" />
      </cc:License>
    </rdf:RDF>
  </metadata>
  <defs>
    <style>.cls-1{fill:#b9b9b9;}.cls-2{fill:#545454;}.cls-3{fill:#e61c50;}.cls-4{fill:none;stroke:#f5f5f5;stroke-linecap:round;stroke-linejoin:round;stroke-width:1.75px;}</style>
  </defs>
  <title>update_lib_symbols_in_schematic</title>
  <path class="cls-1" d="M4.4971,1H18.4947a3.5,3.5,0,0,1,3.5,3.5v14a3.5,3.5,0,0,1-3.5,3.5H4.497a3.5,3.5,0,0,1-3.5-3.5V4.5A3.5,3.5,0,0,1,4.4971,1Z"/>
  <path class="cls-2" d="M19.32,10.7357H17.7783A2.1718,2.1718,0,0,0,15.76,9.3539h-.3735a5.55,5.55,0,0,0-5.0894-3.3747H5.8745a.7926.7926,0,0,0-.7928.7928V7.8969H3.5194a.7928.7928,0,0,0,0,1.5855H5.0817v4.0922H3.5194a.7928.7928,0,0,0,0,1.5855H5.0817v1.1257a.7925.7925,0,0,0,.7928.7927h4.4228a5.5407,5.5407,0,0,0,5.1057-3.3754H15.76a2.1709,2.1709,0,0,0,2.0175-1.3819H19.32a.7928.7928,0,0,0,0-1.5855ZM10.2973,15.493h-3.63V7.5647h3.63a3.9715,3.9715,0,0,1,3.4532,2.0231,2.1587,2.1587,0,0,0-.0035,3.8794A3.9519,3.9519,0,0,1,10.2973,15.493ZM15.76,12.1176H14.7119a.5891.5891,0,1,1,0-1.1782H15.76a.5891.5891,0,0,1,0,1.1782Z"/>
  <path class="cls-3" d="M25.0026,18a7.0065,7.0065,0,1,1-7.0066-7A7.0032,7.0032,0,0,1,25.0026,18Z"/>
  <path class="cls-4" d="M14.3726,16.2109a4.0454,4.0454,0,0,1,7.4206.3972"/>
  <path class="cls-4" d="M21.6382,19.7567a4.0449,4.0449,0,0,1-7.5552-.7454"/>
  <polyline class="cls-4" points="19.873 19.81 21.665 19.647 22.013 21.529"/>
  <polyline class="cls-4" points="16.182 16.074 14.39 16.237 14.042 14.355"/>
</svg>