<svg id="Слой_1" data-name="Слой 1"
  xmlns:cc="http://creativecommons.org/ns#"
  xmlns:rdf="http://www.w3.org/1999/02/22-rdf-syntax-ns#"
  xmlns="http://www.w3.org/2000/svg"
  xmlns:xlink="http://www.w3.org/1999/xlink" viewBox="0 0 26 26">
  <metadata id="metadata43">
    <rdf:RDF>
      <cc:Work rdf:about="">
        <cc:license rdf:resource="http://creativecommons.org/licenses/by/4.0/" />
      </cc:Work>
      <cc:License rdf:about="http://creativecommons.org/licenses/by/4.0/">
        <cc:permits rdf:resource="http://creativecommons.org/ns#Reproduction" />
        <cc:permits rdf:resource="http://creativecommons.org/ns#Distribution" />
        <cc:requires rdf:resource="http://creativecommons.org/ns#Notice" />
        <cc:requires rdf:resource="http://creativecommons.org/ns#Attribution" />
        <cc:permits rdf:resource="http://creativecommons.org/ns#DerivativeWorks" />
      </cc:License>
    </rdf:RDF>
  </metadata>
  <defs>
    <style>.cls-1{fill:#fff;}.cls-2{fill:#39b4ea;}.cls-3{fill:#595959;}.cls-4{fill:url(#Безымянный_градиент_19);}.cls-5{fill:url(#Безымянный_градиент_19-2);}.cls-6{fill:#545454;}.cls-7{fill:#b9b9b9;}.cls-8{fill:#333;}.cls-9{fill:#1a81c4;}.cls-10{fill:none;stroke:#e61c50;stroke-linecap:round;stroke-linejoin:round;stroke-width:2px;}</style>
    <linearGradient id="Безымянный_градиент_19" x1="6.9244" y1="12.747" x2="6.9244" y2="10.6366" gradientUnits="userSpaceOnUse">
      <stop offset="0" stop-color="#ececec"/>
      <stop offset="1" stop-color="#c6c6c5"/>
    </linearGradient>
    <linearGradient id="Безымянный_градиент_19-2" x1="7.9156" y1="12.747" x2="7.9156" y2="10.6366" xlink:href="#Безымянный_градиент_19"/>
  </defs>
  <title>update_sch_from_pcb</title>
  <polygon class="cls-1" points="17.998 14.485 13.867 17.79 3.439 17.533 3.012 2.234 17.922 3.211 17.998 4.012 17.998 14.485"/>
  <rect class="cls-2" x="6.9743" y="9.8084" width="1.4086" height="8.3778" transform="translate(21.6759 6.3187) rotate(90)"/>
  <path class="cls-3" d="M7.4044,9.9552a.7079.7079,0,0,1-.7083-.7084V6.4232a.7066.7066,0,0,1,.2131-.5063l1.097-1.0722a.7091.7091,0,0,1,.4954-.202H17.12a.7084.7084,0,0,1,0,1.4167H8.79l-.6772.6619V9.2468A.7079.7079,0,0,1,7.4044,9.9552Z"/>
  <rect class="cls-4" x="6.5702" y="10.6366" width="0.7084" height="2.1104"/>
  <rect class="cls-5" x="7.5615" y="10.6366" width="0.7083" height="2.1104"/>
  <path class="cls-6" d="M6.5022,7.8391H8.2785a.5285.5285,0,0,1,.5285.5285v1.7763a.5286.5286,0,0,1-.5286.5286H6.5023a.5286.5286,0,0,1-.5286-.5286V8.3676A.5285.5285,0,0,1,6.5022,7.8391Z"/>
  <rect class="cls-6" x="5.9678" y="12.5979" width="2.8333" height="2.8333" rx="0.5285"/>
  <path class="cls-2" d="M10.0143,7.476a1.9345,1.9345,0,0,1,.2165.8916V10.144a1.9362,1.9362,0,0,1-.3694,1.1393,3.5672,3.5672,0,1,1-4.9272-.0021,1.9192,1.9192,0,0,1-.37-1.1372V8.3676a1.9409,1.9409,0,0,1,.7152-1.5058V6.4232a2.1363,2.1363,0,0,1,.6412-1.5211L7.0163,3.8313A2.117,2.117,0,0,1,8.5014,3.226h9.4225l-.0019-.01A2.8248,2.8248,0,0,0,15.167,1H3.8337A2.8335,2.8335,0,0,0,1,3.8337V15.167A2.8334,2.8334,0,0,0,3.8337,18H15.167A2.8333,2.8333,0,0,0,18,15.167V7.476Z"/>
  <rect class="cls-2" x="6.6802" y="15.4157" width="1.4086" height="2.1814"/>
  <path class="cls-7" d="M13.3375,10.99H22.67a2.3331,2.3331,0,0,1,2.3331,2.3331v9.3325A2.3333,2.3333,0,0,1,22.67,24.9891H13.3375a2.3332,2.3332,0,0,1-2.3332-2.3332V13.3234A2.3332,2.3332,0,0,1,13.3375,10.99Z"/>
  <path class="cls-8" d="M17.7305,19.3721a.5.5,0,0,1-.5-.5V13.6787a.5.5,0,0,1,1,0v5.1934A.5.5,0,0,1,17.7305,19.3721Z"/>
  <path class="cls-6" d="M15.9717,15.7559H12.9746a.25.25,0,1,1,0-.5h2.9971a.25.25,0,0,1,0,.5Z"/>
  <path class="cls-6" d="M15.9717,14.7705H14.1035a.25.25,0,0,1,0-.5h1.8682a.25.25,0,0,1,0,.5Z"/>
  <path class="cls-6" d="M21.9141,21.4932H18.917a.25.25,0,0,1,0-.5h2.9971a.25.25,0,1,1,0,.5Z"/>
  <path class="cls-6" d="M20.7852,20.5078H18.917a.25.25,0,0,1,0-.5h1.8682a.25.25,0,0,1,0,.5Z"/>
  <rect class="cls-6" x="11.0029" y="20.7207" width="3.2647" height="1"/>
  <path class="cls-8" d="M15.1826,23.6924a.5.5,0,0,1-.5-.5V19.249a.5.5,0,0,1,1,0v3.9434A.5.5,0,0,1,15.1826,23.6924Z"/>
  <rect class="cls-8" x="17.2305" y="16.0117" width="7.772" height="1"/>
  <rect class="cls-6" x="17.1699" y="23.4209" width="1" height="1.5693"/>
  <path class="cls-8" d="M18.8112,16.5116A1.0812,1.0812,0,1,1,17.73,15.4305,1.0812,1.0812,0,0,1,18.8112,16.5116Z"/>
  <rect class="cls-9" x="16.5634" y="10.99" width="2.3332" height="2.6886"/>
  <rect class="cls-9" x="20.8137" y="14.2485" width="2.3332" height="4.5776" transform="translate(38.5176 -5.443) rotate(90)"/>
  <path class="cls-8" d="M15.2666,20.9258A.5.5,0,0,1,15,20.0029l2.4639-1.5537a.5.5,0,0,1,.5332.8457l-2.4639,1.5537A.4928.4928,0,0,1,15.2666,20.9258Z"/>
  <path class="cls-8" d="M17.4443,23.793a.4988.4988,0,0,1-.249-.0664l-2.2461-1.293a.5.5,0,1,1,.4981-.8672l2.2461,1.293a.5.5,0,0,1-.2491.9336Z"/>
  <path class="cls-9" d="M16.4764,23.4965l.829-1.1776a.43.43,0,0,1,.77.1463l.2233.9216a.5259.5259,0,0,1-.4368.6446l-.9731.1388A.43.43,0,0,1,16.4764,23.4965Z"/>
  <path class="cls-8" d="M15.1826,21.7207h-1.498a.5.5,0,1,1,0-1h1.498a.5.5,0,0,1,0,1Z"/>
  <polyline class="cls-10" points="13.53 21.566 7.36 21.566 7.36 15.955"/>
  <polyline class="cls-10" points="11.153 19.14 13.579 21.566 11.153 23.992"/>
</svg>