<?xml version="1.0" encoding="UTF-8" standalone="no"?>
<svg
   xmlns:dc="http://purl.org/dc/elements/1.1/"
   xmlns:cc="http://creativecommons.org/ns#"
   xmlns:rdf="http://www.w3.org/1999/02/22-rdf-syntax-ns#"
   xmlns:svg="http://www.w3.org/2000/svg"
   xmlns="http://www.w3.org/2000/svg"
   xmlns:sodipodi="http://sodipodi.sourceforge.net/DTD/sodipodi-0.dtd"
   xmlns:inkscape="http://www.inkscape.org/namespaces/inkscape"
   id="Слой_1"
   data-name="Слой 1"
   viewBox="0 0 24 24"
   version="1.1"
   sodipodi:docname="update_lib_symbols_in_schematic.svg"
   inkscape:version="1.0.1 (3bc2e813f5, 2020-09-07)">
  <sodipodi:namedview
     pagecolor="#ffffff"
     bordercolor="#666666"
     borderopacity="1"
     objecttolerance="10"
     gridtolerance="10"
     guidetolerance="10"
     inkscape:pageopacity="0"
     inkscape:pageshadow="2"
     inkscape:window-width="1609"
     inkscape:window-height="1286"
     id="namedview30"
     showgrid="true"
     inkscape:zoom="27.961538"
     inkscape:cx="3.3259971"
     inkscape:cy="13"
     inkscape:window-x="0"
     inkscape:window-y="37"
     inkscape:window-maximized="0"
     inkscape:document-rotation="0"
     inkscape:current-layer="Слой_1">
    <inkscape:grid
       type="xygrid"
       id="grid_kicad"
       spacingx="0.5"
       spacingy="0.5"
       color="#9999ff"
       opacity="0.13"
       empspacing="2" />
  </sodipodi:namedview>
  <metadata
     id="metadata43">
    <rdf:RDF>
      <cc:Work
         rdf:about="">
        <cc:license
           rdf:resource="http://creativecommons.org/licenses/by-sa/4.0/" />
        <dc:format>image/svg+xml</dc:format>
        <dc:type
           rdf:resource="http://purl.org/dc/dcmitype/StillImage" />
        <dc:title>add_arc</dc:title>
      </cc:Work>
      <cc:License
         rdf:about="http://creativecommons.org/licenses/by-sa/4.0/">
        <cc:permits
           rdf:resource="http://creativecommons.org/ns#Reproduction" />
        <cc:permits
           rdf:resource="http://creativecommons.org/ns#Distribution" />
        <cc:requires
           rdf:resource="http://creativecommons.org/ns#Notice" />
        <cc:requires
           rdf:resource="http://creativecommons.org/ns#Attribution" />
        <cc:permits
           rdf:resource="http://creativecommons.org/ns#DerivativeWorks" />
        <cc:requires
           rdf:resource="http://creativecommons.org/ns#ShareAlike" />
      </cc:License>
    </rdf:RDF>
  </metadata>
  <defs
     id="defs160197">
    <style
       id="style160195">.cls-1{fill:#b9b9b9;}.cls-2{fill:#545454;}.cls-3{fill:#e61c50;}.cls-4{fill:none;stroke:#f5f5f5;stroke-linecap:round;stroke-linejoin:round;stroke-width:1.75px;}</style>
  </defs>
  <title
     id="title160199">update_lib_symbols_in_schematic</title>
  <path
     class="cls-1"
     d="m 3.4971,0 h 13.9976 a 3.5,3.5 0 0 1 3.5,3.5 v 14 a 3.5,3.5 0 0 1 -3.5,3.5 H 3.497 a 3.5,3.5 0 0 1 -3.5,-3.5 V 3.5 A 3.5,3.5 0 0 1 3.4971,0 Z"
     id="path160201" />
  <path
     class="cls-2"
     d="M 18.32,9.7357 H 16.7783 A 2.1718,2.1718 0 0 0 14.76,8.3539 H 14.3865 A 5.55,5.55 0 0 0 9.2971,4.9792 H 4.8745 A 0.7926,0.7926 0 0 0 4.0817,5.772 V 6.8969 H 2.5194 a 0.7928,0.7928 0 0 0 0,1.5855 h 1.5623 v 4.0922 H 2.5194 a 0.7928,0.7928 0 0 0 0,1.5855 h 1.5623 v 1.1257 a 0.7925,0.7925 0 0 0 0.7928,0.7927 h 4.4228 a 5.5407,5.5407 0 0 0 5.1057,-3.3754 h 0.357 a 2.1709,2.1709 0 0 0 2.0175,-1.3819 H 18.32 a 0.7928,0.7928 0 0 0 0,-1.5855 z M 9.2973,14.493 h -3.63 V 6.5647 h 3.63 A 3.9715,3.9715 0 0 1 12.7505,8.5878 2.1587,2.1587 0 0 0 12.747,12.4672 3.9519,3.9519 0 0 1 9.2973,14.493 Z M 14.76,11.1176 h -1.0481 a 0.5891,0.5891 0 1 1 0,-1.1782 H 14.76 a 0.5891,0.5891 0 0 1 0,1.1782 z"
     id="path160203" />
  <path
     class="cls-3"
     d="m 24.0026,17 a 7.0065,7.0065 0 1 1 -7.0066,-7 7.0032,7.0032 0 0 1 7.0066,7 z"
     id="path160205" />
  <path
     class="cls-4"
     d="m 13.3726,15.2109 a 4.0454,4.0454 0 0 1 7.4206,0.3972"
     id="path160207" />
  <path
     class="cls-4"
     d="M 20.6382,18.7567 A 4.0449,4.0449 0 0 1 13.083,18.0113"
     id="path160209" />
  <polyline
     class="cls-4"
     points="19.873 19.81 21.665 19.647 22.013 21.529"
     id="polyline160211"
     transform="translate(-1,-1)" />
  <polyline
     class="cls-4"
     points="16.182 16.074 14.39 16.237 14.042 14.355"
     id="polyline160213"
     transform="translate(-1,-1)" />
</svg>
