<?xml version="1.0" encoding="UTF-8" standalone="no"?>
<svg xmlns:dc="http://purl.org/dc/elements/1.1/"
   xmlns:cc="http://creativecommons.org/ns#"
   xmlns:rdf="http://www.w3.org/1999/02/22-rdf-syntax-ns#"
   xmlns:svg="http://www.w3.org/2000/svg"
   xmlns="http://www.w3.org/2000/svg"
   xmlns:xlink="http://www.w3.org/1999/xlink"
   xmlns:sodipodi="http://sodipodi.sourceforge.net/DTD/sodipodi-0.dtd"
   xmlns:inkscape="http://www.inkscape.org/namespaces/inkscape" id="Слой_1" data-name="Слой 1" viewBox="0 0 24 24" version="1.1" sodipodi:docname="update_sch_from_pcb.svg" inkscape:version="1.0.1 (3bc2e813f5, 2020-09-07)">
   <sodipodi:namedview pagecolor="#ffffff" bordercolor="#666666" borderopacity="1" objecttolerance="10" gridtolerance="10" guidetolerance="10" inkscape:pageopacity="0" inkscape:pageshadow="2" inkscape:window-width="1565" inkscape:window-height="959" id="namedview160354" showgrid="false" inkscape:zoom="30.291667" inkscape:cx="12" inkscape:cy="12" inkscape:window-x="0" inkscape:window-y="37" inkscape:window-maximized="0" inkscape:current-layer="Слой_1" />
   <metadata id="metadata43">
      <rdf:RDF>
         <cc:Work rdf:about="">
            <cc:license rdf:resource="http://creativecommons.org/licenses/by-sa/4.0/" />
            <dc:format>image/svg+xml</dc:format>
            <dc:type rdf:resource="http://purl.org/dc/dcmitype/StillImage" />
            <dc:title>add_arc</dc:title>
         </cc:Work>
         <cc:License rdf:about="http://creativecommons.org/licenses/by-sa/4.0/">
            <cc:permits rdf:resource="http://creativecommons.org/ns#Reproduction" />
            <cc:permits rdf:resource="http://creativecommons.org/ns#Distribution" />
            <cc:requires rdf:resource="http://creativecommons.org/ns#Notice" />
            <cc:requires rdf:resource="http://creativecommons.org/ns#Attribution" />
            <cc:permits rdf:resource="http://creativecommons.org/ns#DerivativeWorks" />
            <cc:requires rdf:resource="http://creativecommons.org/ns#ShareAlike" />
         </cc:License>
      </rdf:RDF>
   </metadata>
   <defs id="defs160293">
      <style id="style160285">.cls-1{fill:#fff;}.cls-2{fill:#39b4ea;}.cls-3{fill:#595959;}.cls-4{fill:url(#Безымянный_градиент_19);}.cls-5{fill:url(#Безымянный_градиент_19-2);}.cls-6{fill:#545454;}.cls-7{fill:#b9b9b9;}.cls-8{fill:#333;}.cls-9{fill:#1a81c4;}.cls-10{fill:none;stroke:#bf2641;stroke-linecap:round;stroke-linejoin:round;stroke-width:2px;}</style>
      <linearGradient id="Безымянный_градиент_19" x1="6.9244" y1="12.747" x2="6.9244" y2="10.6366" gradientUnits="userSpaceOnUse">
         <stop offset="0" stop-color="#ececec" id="stop160287" />
         <stop offset="1" stop-color="#c6c6c5" id="stop160289" />
      </linearGradient>
      <linearGradient id="Безымянный_градиент_19-2" x1="7.9156" y1="12.747" x2="7.9156" y2="10.6366" xlink:href="#Безымянный_градиент_19" gradientTransform="translate(-1,-1)" />
      <linearGradient inkscape:collect="always" xlink:href="#Безымянный_градиент_19" id="linearGradient240577" gradientUnits="userSpaceOnUse" x1="6.9244" y1="12.747" x2="6.9244" y2="10.6366" gradientTransform="translate(-1,-1)" />
   </defs>
   <title id="title160295">update_sch_from_pcb</title>
   <polygon class="cls-1" points="13.867,17.79 3.439,17.533 3.012,2.234 17.922,3.211 17.998,4.012 17.998,14.485 " id="polygon160297" transform="translate(-1,-1)" />
   <rect class="cls-2" x="12.293" y="-10.8675" width="1.4086" height="8.3778" transform="rotate(90)" id="rect160299" />
   <path class="cls-3" d="M 6.4044,8.9552 A 0.7079,0.7079 0 0 1 5.6961,8.2468 V 5.4232 A 0.7066,0.7066 0 0 1 5.9092,4.9169 L 7.0062,3.8447 A 0.7091,0.7091 0 0 1 7.5016,3.6427 H 16.12 a 0.7084,0.7084 0 0 1 0,1.4167 H 7.79 L 7.1128,5.7213 V 8.2468 A 0.7079,0.7079 0 0 1 6.4044,8.9552 Z" id="path160301" />
   <rect class="cls-4" x="5.5702" y="9.6365995" width="0.70840001" height="2.1104" id="rect160303" style="fill:url(#linearGradient240577)" />
   <rect class="cls-5" x="6.5615001" y="9.6365995" width="0.70829999" height="2.1104" id="rect160305" style="fill:url(#%D0%91%D0%B5%D0%B7%D1%8B%D0%BC%D1%8F%D0%BD%D0%BD%D1%8B%D0%B9_%D0%B3%D1%80%D0%B0%D0%B4%D0%B8%D0%B5%D0%BD%D1%82_19-2)" />
   <path class="cls-6" d="M 5.5022,6.8391 H 7.2785 A 0.5285,0.5285 0 0 1 7.807,7.3676 V 9.1439 A 0.5286,0.5286 0 0 1 7.2784,9.6725 H 5.5023 A 0.5286,0.5286 0 0 1 4.9737,9.1439 V 7.3676 A 0.5285,0.5285 0 0 1 5.5022,6.8391 Z" id="path160307" />
   <rect class="cls-6" x="4.9678001" y="11.5979" width="2.8333001" height="2.8333001" rx="0.52850002" id="rect160309" />
   <path class="cls-2" d="M 9.0143,6.476 A 1.9345,1.9345 0 0 1 9.2308,7.3676 V 9.144 A 1.9362,1.9362 0 0 1 8.8614,10.2833 3.5672,3.5672 0 1 1 3.9342,10.2812 1.9192,1.9192 0 0 1 3.5642,9.144 V 7.3676 A 1.9409,1.9409 0 0 1 4.2794,5.8618 V 5.4232 A 2.1363,2.1363 0 0 1 4.9206,3.9021 L 6.0163,2.8313 A 2.117,2.117 0 0 1 7.5014,2.226 h 9.4225 L 16.922,2.216 A 2.8248,2.8248 0 0 0 14.167,0 H 2.8337 A 2.8335,2.8335 0 0 0 0,2.8337 V 14.167 A 2.8334,2.8334 0 0 0 2.8337,17 H 14.167 A 2.8333,2.8333 0 0 0 17,14.167 V 6.476 Z" id="path160311" />
   <rect class="cls-2" x="5.6802001" y="14.4157" width="1.4086" height="2.1814001" id="rect160313" />
   <path class="cls-7" d="M 12.3375,9.99 H 21.67 a 2.3331,2.3331 0 0 1 2.3331,2.3331 v 9.3325 A 2.3333,2.3333 0 0 1 21.67,23.9891 H 12.3375 A 2.3332,2.3332 0 0 1 10.0043,21.6559 V 12.3234 A 2.3332,2.3332 0 0 1 12.3375,9.99 Z" id="path160315" />
   <path class="cls-8" d="m 16.7305,18.3721 a 0.5,0.5 0 0 1 -0.5,-0.5 v -5.1934 a 0.5,0.5 0 0 1 1,0 v 5.1934 a 0.5,0.5 0 0 1 -0.5,0.5 z" id="path160317" />
   <path class="cls-6" d="m 14.9717,14.7559 h -2.9971 a 0.25,0.25 0 1 1 0,-0.5 h 2.9971 a 0.25,0.25 0 0 1 0,0.5 z" id="path160319" />
   <path class="cls-6" d="m 14.9717,13.7705 h -1.8682 a 0.25,0.25 0 0 1 0,-0.5 h 1.8682 a 0.25,0.25 0 0 1 0,0.5 z" id="path160321" />
   <path class="cls-6" d="M 20.9141,20.4932 H 17.917 a 0.25,0.25 0 0 1 0,-0.5 h 2.9971 a 0.25,0.25 0 1 1 0,0.5 z" id="path160323" />
   <path class="cls-6" d="M 19.7852,19.5078 H 17.917 a 0.25,0.25 0 0 1 0,-0.5 h 1.8682 a 0.25,0.25 0 0 1 0,0.5 z" id="path160325" />
   <rect class="cls-6" x="10.0029" y="19.720699" width="3.2646999" height="1" id="rect160327" />
   <path class="cls-8" d="m 14.1826,22.6924 a 0.5,0.5 0 0 1 -0.5,-0.5 V 18.249 a 0.5,0.5 0 0 1 1,0 v 3.9434 a 0.5,0.5 0 0 1 -0.5,0.5 z" id="path160329" />
   <rect class="cls-8" x="16.230499" y="15.0117" width="7.7719998" height="1" id="rect160331" />
   <rect class="cls-6" x="16.169901" y="22.4209" width="1" height="1.5693001" id="rect160333" />
   <path class="cls-8" d="M 17.8112,15.5116 A 1.0812,1.0812 0 1 1 16.73,14.4305 1.0812,1.0812 0 0 1 17.8112,15.5116 Z" id="path160335" />
   <rect class="cls-9" x="15.5634" y="9.9899998" width="2.3332" height="2.6886001" id="rect160337" />
   <rect class="cls-9" x="14.3707" y="-23.2691" width="2.3332" height="4.5776" transform="rotate(90)" id="rect160339" />
   <path class="cls-8" d="M 14.2666,19.9258 A 0.5,0.5 0 0 1 14,19.0029 l 2.4639,-1.5537 a 0.5,0.5 0 0 1 0.5332,0.8457 l -2.4639,1.5537 a 0.4928,0.4928 0 0 1 -0.2666,0.0772 z" id="path160341" />
   <path class="cls-8" d="m 16.4443,22.793 a 0.4988,0.4988 0 0 1 -0.249,-0.0664 l -2.2461,-1.293 a 0.50003486,0.50003486 0 1 1 0.4981,-0.8672 l 2.2461,1.293 a 0.5,0.5 0 0 1 -0.2491,0.9336 z" id="path160343" />
   <path class="cls-9" d="m 15.4764,22.4965 0.829,-1.1776 a 0.43,0.43 0 0 1 0.77,0.1463 l 0.2233,0.9216 a 0.5259,0.5259 0 0 1 -0.4368,0.6446 l -0.9731,0.1388 a 0.43,0.43 0 0 1 -0.4124,-0.6737 z" id="path160345" />
   <path class="cls-8" d="m 14.1826,20.7207 h -1.498 a 0.5,0.5 0 1 1 0,-1 h 1.498 a 0.5,0.5 0 0 1 0,1 z" id="path160347" />
   <polyline class="cls-10" points="13.53 21.566 7.36 21.566 7.36 15.955" id="polyline160349" transform="translate(-1,-1)" />
   <polyline class="cls-10" points="11.153 19.14 13.579 21.566 11.153 23.992" id="polyline160351" transform="translate(-1,-1)" />
</svg>
