<?xml version="1.0" encoding="UTF-8" standalone="no"?>
<!-- Created with Inkscape (http://www.inkscape.org/) -->

<svg
   xmlns:dc="http://purl.org/dc/elements/1.1/"
   xmlns:cc="http://creativecommons.org/ns#"
   xmlns:rdf="http://www.w3.org/1999/02/22-rdf-syntax-ns#"
   xmlns:svg="http://www.w3.org/2000/svg"
   xmlns="http://www.w3.org/2000/svg"
   xmlns:sodipodi="http://sodipodi.sourceforge.net/DTD/sodipodi-0.dtd"
   xmlns:inkscape="http://www.inkscape.org/namespaces/inkscape"
   width="26"
   height="26"
   id="svg2"
   version="1.1"
   inkscape:version="0.48.4 r9939"
   sodipodi:docname="Новый документ 1">
  <defs
     id="defs4" />
  <sodipodi:namedview
     id="base"
     pagecolor="#ffffff"
     bordercolor="#666666"
     borderopacity="1.0"
     inkscape:pageopacity="0.0"
     inkscape:pageshadow="2"
     inkscape:zoom="15.365974"
     inkscape:cx="7.7906124"
     inkscape:cy="9.6975944"
     inkscape:document-units="px"
     inkscape:current-layer="layer1"
     showgrid="true"
     inkscape:showpageshadow="false"
     inkscape:window-width="1366"
     inkscape:window-height="744"
     inkscape:window-x="0"
     inkscape:window-y="24"
     inkscape:window-maximized="1">
    <inkscape:grid
       type="xygrid"
       id="grid2985"
       empspacing="2"
       visible="true"
       enabled="true"
       snapvisiblegridlinesonly="true" />
  </sodipodi:namedview>
  <metadata
     id="metadata7">
    <rdf:RDF>
      <cc:Work
         rdf:about="">
        <dc:format>image/svg+xml</dc:format>
        <dc:type
           rdf:resource="http://purl.org/dc/dcmitype/StillImage" />
        <dc:title></dc:title>
      </cc:Work>
    </rdf:RDF>
  </metadata>
  <g
     inkscape:label="Layer 1"
     inkscape:groupmode="layer"
     id="layer1"
     transform="translate(0,-1026.3622)">
    <path
       style="fill:#49a749;stroke:none;stroke-width:1px;stroke-linecap:butt;stroke-linejoin:miter;stroke-opacity:1;fill-opacity:1"
       d="M 0 0 L 0 26 L 26 26 L 26 0 L 0 0 z M 12.5 14 C 16.642136 14 20 15.790861 20 18 C 20 20.209139 16.642136 22 12.5 22 C 8.3578644 22 5 20.209139 5 18 C 5 15.790861 8.3578644 14 12.5 14 z "
       transform="translate(0,1026.3622)"
       id="path3777" />
    <path
       sodipodi:type="arc"
       style="fill:none;stroke:#004e00;stroke-width:4;stroke-miterlimit:4;stroke-opacity:1;stroke-dasharray:none"
       id="path3815"
       sodipodi:cx="9"
       sodipodi:cy="10"
       sodipodi:rx="7.5"
       sodipodi:ry="5"
       d="m 16.5,10 a 7.5,5 0 1 1 -15,0 7.5,5 0 1 1 15,0 z"
       transform="translate(3.5,1034.3622)" />
    <rect
       style="fill:#004e00;fill-opacity:1;stroke:none"
       id="rect3764"
       width="2.0000002"
       height="2.9994934"
       x="3"
       y="1041.3622"
       rx="0"
       ry="0" />
    <rect
       ry="0"
       rx="0"
       y="1041.3622"
       x="20"
       height="2.9992831"
       width="2.0000036"
       id="rect3766"
       style="fill:#004e00;fill-opacity:1;stroke:none" />
    <path
       style="fill:none;stroke:#004e00;stroke-width:5;stroke-linecap:butt;stroke-linejoin:miter;stroke-miterlimit:4;stroke-opacity:1;stroke-dasharray:none"
       d="m 15.5,1040.3622 6,-6.5 4.5,0"
       id="path3775"
       inkscape:connector-curvature="0"
       sodipodi:nodetypes="ccc" />
    <path
       transform="translate(3.5,1031.3622)"
       d="m 16.5,10 a 7.5,5 0 1 1 -15,0 7.5,5 0 1 1 15,0 z"
       sodipodi:ry="5"
       sodipodi:rx="7.5"
       sodipodi:cy="10"
       sodipodi:cx="9"
       id="path3762"
       style="fill:none;stroke:#008000;stroke-width:4;stroke-miterlimit:4;stroke-opacity:1;stroke-dasharray:none"
       sodipodi:type="arc" />
    <path
       sodipodi:nodetypes="ccc"
       inkscape:connector-curvature="0"
       id="path3002"
       d="m 15,1037.3622 6,-6.5 5,0"
       style="fill:none;stroke:#008000;stroke-width:5;stroke-linecap:butt;stroke-linejoin:miter;stroke-miterlimit:4;stroke-opacity:1;stroke-dasharray:none" />
  </g>
</svg>
