<?xml version="1.0" encoding="UTF-8" standalone="no"?>
<svg
   xmlns:dc="http://purl.org/dc/elements/1.1/"
   xmlns:cc="http://creativecommons.org/ns#"
   xmlns:rdf="http://www.w3.org/1999/02/22-rdf-syntax-ns#"
   xmlns:svg="http://www.w3.org/2000/svg"
   xmlns="http://www.w3.org/2000/svg"
   xmlns:sodipodi="http://sodipodi.sourceforge.net/DTD/sodipodi-0.dtd"
   xmlns:inkscape="http://www.inkscape.org/namespaces/inkscape"
   height="48"
   width="48"
   version="1.1"
   id="svg2"
   inkscape:version="0.48.1 "
   sodipodi:docname="via_sketch.svg">
  <metadata
     id="metadata16">
    <rdf:RDF>
      <cc:Work
         rdf:about="">
        <dc:format>image/svg+xml</dc:format>
        <dc:type
           rdf:resource="http://purl.org/dc/dcmitype/StillImage" />
        <dc:title></dc:title>
      </cc:Work>
    </rdf:RDF>
  </metadata>
  <defs
     id="defs14">
    <filter
       inkscape:collect="always"
       id="filter3808">
      <feGaussianBlur
         inkscape:collect="always"
         stdDeviation="0.79203718"
         id="feGaussianBlur3810" />
    </filter>
  </defs>
  <sodipodi:namedview
     pagecolor="#ffffff"
     bordercolor="#666666"
     borderopacity="1"
     objecttolerance="10"
     gridtolerance="10"
     guidetolerance="10"
     inkscape:pageopacity="0"
     inkscape:pageshadow="2"
     inkscape:window-width="1280"
     inkscape:window-height="968"
     id="namedview12"
     showgrid="false"
     inkscape:snap-grids="false"
     inkscape:snap-to-guides="false"
     inkscape:zoom="10.873341"
     inkscape:cx="10.68511"
     inkscape:cy="22.398101"
     inkscape:window-x="-4"
     inkscape:window-y="-4"
     inkscape:window-maximized="1"
     inkscape:current-layer="svg2" />
  <g
     id="g3798"
     style="opacity:0.38671875;filter:url(#filter3808)"
     transform="translate(-90.843526,3.6539241)">
    <rect
       style="fill:#000000;fill-rule:evenodd;stroke:#000000;stroke-opacity:1"
       id="rect4-4"
       x="93.149178"
       y="11.34338"
       width="29.813433"
       height="8.7306871"
       ry="2.3031542"
       rx="0" />
    <rect
       style="fill:#000000;fill-rule:evenodd;stroke:#000000;stroke-opacity:1"
       id="rect6-8"
       x="11.503523"
       y="-123.2624"
       width="30.819489"
       height="8.5042381"
       ry="2.243417"
       rx="0"
       transform="matrix(0,1,-1,0,0,0)" />
    <path
       style="fill:none;stroke:#000000;stroke-width:2.2720027;stroke-opacity:1"
       inkscape:connector-curvature="0"
       id="path8-1"
       d="m 134.31482,15.979044 a 15.30449,14.862257 0 1 1 -30.60898,0 15.30449,14.862257 0 1 1 30.60898,0 z" />
    <path
       style="fill:#000000;stroke:#000000;stroke-width:3.44060159;stroke-opacity:1"
       inkscape:connector-curvature="0"
       id="path10-0"
       d="m 124.433,15.872462 a 5.7326026,5.8850078 0 0 1 -11.4652,0 5.7326026,5.8850078 0 1 1 11.4652,0 z" />
  </g>
  <rect
     rx="0"
     ry="2.3031542"
     height="8.7306871"
     width="29.813433"
     y="16.90716"
     x="0.41774505"
     id="rect4"
     style="fill:#ff0000;fill-rule:evenodd" />
  <rect
     transform="matrix(0,1,-1,0,0,0)"
     rx="0"
     ry="2.243417"
     height="8.5042381"
     width="30.819489"
     y="-30.530968"
     x="17.067303"
     id="rect6"
     style="fill:#38d948;fill-rule:evenodd" />
  <path
     d="m 41.583387,21.542825 a 15.304489,14.862256 0 1 1 -30.608977,0 15.304489,14.862256 0 1 1 30.608977,0 z"
     id="path8"
     inkscape:connector-curvature="0"
     style="fill:none;stroke:#6c6c6c;stroke-width:4;stroke-opacity:1;stroke-miterlimit:4;stroke-dasharray:none" />
  <path
     d="m 31.701569,21.436243 a 5.7326025,5.8850077 0 1 1 -11.465205,0 5.7326025,5.8850077 0 1 1 11.465205,0 z"
     id="path10"
     inkscape:connector-curvature="0"
     style="fill:none;stroke:#119b1d;stroke-width:3.44060159" />
</svg>
