<svg id="Слой_1" data-name="Слой 1"
  xmlns:cc="http://creativecommons.org/ns#"
  xmlns:rdf="http://www.w3.org/1999/02/22-rdf-syntax-ns#"
  xmlns="http://www.w3.org/2000/svg" viewBox="0 0 26 26">
  <metadata id="metadata43">
    <rdf:RDF>
      <cc:Work rdf:about="">
        <cc:license rdf:resource="http://creativecommons.org/licenses/by/4.0/" />
      </cc:Work>
      <cc:License rdf:about="http://creativecommons.org/licenses/by/4.0/">
        <cc:permits rdf:resource="http://creativecommons.org/ns#Reproduction" />
        <cc:permits rdf:resource="http://creativecommons.org/ns#Distribution" />
        <cc:requires rdf:resource="http://creativecommons.org/ns#Notice" />
        <cc:requires rdf:resource="http://creativecommons.org/ns#Attribution" />
        <cc:permits rdf:resource="http://creativecommons.org/ns#DerivativeWorks" />
      </cc:License>
    </rdf:RDF>
  </metadata>
  <defs>
    <style>.cls-1{fill:#e61c50;}.cls-2{fill:#b9b9b9;}.cls-3{fill:#1a81c4;}.cls-4{fill:#f29100;}.cls-5{fill:none;stroke:#545454;stroke-linecap:round;stroke-linejoin:round;}</style>
  </defs>
  <title>via_sketch</title>
  <path class="cls-1" d="M2,25a1,1,0,0,1-.707-1.707l9.0233-9.0243c.3906-.3907.6715-.0387,1.0621.3519s.7426.6715.352,1.0621L2.707,24.707A.9967.9967,0,0,1,2,25Z"/>
  <path class="cls-2" d="M9.398,8.858l8.0469,7.6648-.3441.8565A6,6,0,0,1,8.538,8.9876l.86-.13m.3352-1.0618L8.05,8.05a7,7,0,1,0,9.9,9.8994l.6763-1.6828-8.8925-8.47Z"/>
  <path class="cls-2" d="M11.2489,11.8188l3.0272,2.8628a2.1118,2.1118,0,0,1-3.0272-2.8628m.08-1.3009L10.8,10.8a3.1111,3.1111,0,1,0,4.4,4.4l.4464-.5989-4.3172-4.0827Z"/>
  <path class="cls-3" d="M17.9492,9.05a1,1,0,0,1-.707-1.707l6.0508-6.05a1,1,0,0,1,1.414,1.414l-6.0507,6.05A.9971.9971,0,0,1,17.9492,9.05Z"/>
  <path class="cls-4" d="M8.05,8.05a7,7,0,0,1,9.9,9.9"/>
  <path class="cls-2" d="M10.8,10.8a3.1111,3.1111,0,0,1,4.4,4.4"/>
  <line class="cls-5" x1="1.4979" y1="1.4979" x2="24.5021" y2="24.5021"/>
</svg>