<svg id="Слой_1" data-name="Слой 1"
  xmlns:dc="http://purl.org/dc/elements/1.1/"
  xmlns:cc="http://creativecommons.org/ns#"
  xmlns:rdf="http://www.w3.org/1999/02/22-rdf-syntax-ns#"
  xmlns="http://www.w3.org/2000/svg" viewBox="0 0 26 26">
  <metadata id="metadata43">
    <rdf:RDF>
      <cc:Work rdf:about="">
        <cc:license rdf:resource="http://creativecommons.org/licenses/by-sa/4.0/" />
        <dc:format>image/svg+xml</dc:format>
        <dc:type rdf:resource="http://purl.org/dc/dcmitype/StillImage" />
        <dc:title>add_arc</dc:title>
      </cc:Work>
      <cc:License rdf:about="http://creativecommons.org/licenses/by-sa/4.0/">
        <cc:permits rdf:resource="http://creativecommons.org/ns#Reproduction" />
        <cc:permits rdf:resource="http://creativecommons.org/ns#Distribution" />
        <cc:requires rdf:resource="http://creativecommons.org/ns#Notice" />
        <cc:requires rdf:resource="http://creativecommons.org/ns#Attribution" />
        <cc:permits rdf:resource="http://creativecommons.org/ns#DerivativeWorks" />
        <cc:requires rdf:resource="http://creativecommons.org/ns#ShareAlike" />
      </cc:License>
    </rdf:RDF>
  </metadata>
  <defs>
    <style>.cls-1{fill:#e61c50;}.cls-2{fill:#1a81c4;}.cls-3{fill:#f29100;}.cls-4{fill:#b9b9b9;}.cls-5{fill:#545454;}</style>
  </defs>
  <title>via_annulus</title>
  <path class="cls-1" d="M2,25a1,1,0,0,1-.707-1.707l6.05-6.05a1,1,0,0,1,1.414,1.414l-6.05,6.05A.9967.9967,0,0,1,2,25Z"/>
  <path class="cls-2" d="M17.95,9.05a1,1,0,0,1-.707-1.707l6.05-6.05a1,1,0,0,1,1.414,1.414l-6.05,6.05A.9967.9967,0,0,1,17.95,9.05Z"/>
  <circle class="cls-3" cx="13" cy="13" r="6.9999"/>
  <circle class="cls-4" cx="13" cy="13" r="3.1111"/>
  <path class="cls-5" d="M1.5176,14.4141a.5.5,0,0,1-.3535-.8536L13.5879,1.1367a.5.5,0,0,1,.707.7071L1.8711,14.2676A.4987.4987,0,0,1,1.5176,14.4141Z"/>
  <path class="cls-5" d="M4.9668,17.8633a.5.5,0,0,1-.3535-.8535L17.0371,4.5859a.5.5,0,1,1,.707.7071L5.32,17.7168A.4981.4981,0,0,1,4.9668,17.8633Z"/>
  <path class="cls-5" d="M17.0205,17.5645a.4986.4986,0,0,1-.3535-.1465l-2.71-2.71a.5.5,0,1,1,.7071-.707l2.71,2.71a.5.5,0,0,1-.3535.8536Z"/>
  <polygon class="cls-5" points="13.984 16.082 11.178 11.222 16.038 14.028 13.984 16.082"/>
  <path class="cls-5" d="M4.4561,5a.4984.4984,0,0,1-.3536-.1465L1.1594,1.91a.5.5,0,0,1,.707-.707L4.81,4.1465A.5.5,0,0,1,4.4561,5Z"/>
  <polygon class="cls-5" points="2.728 4.826 7.588 7.632 4.782 2.772 2.728 4.826"/>
</svg>