<?xml version="1.0" encoding="UTF-8" standalone="no"?>
<svg
   xmlns:dc="http://purl.org/dc/elements/1.1/"
   xmlns:cc="http://creativecommons.org/ns#"
   xmlns:rdf="http://www.w3.org/1999/02/22-rdf-syntax-ns#"
   xmlns:svg="http://www.w3.org/2000/svg"
   xmlns="http://www.w3.org/2000/svg"
   xmlns:sodipodi="http://sodipodi.sourceforge.net/DTD/sodipodi-0.dtd"
   xmlns:inkscape="http://www.inkscape.org/namespaces/inkscape"
   height="48"
   width="48"
   version="1.1"
   id="svg2"
   inkscape:version="0.48.1 "
   sodipodi:docname="via_sketch.svg">
  <metadata
     id="metadata16">
    <rdf:RDF>
      <cc:Work
         rdf:about="">
        <dc:format>image/svg+xml</dc:format>
        <dc:type
           rdf:resource="http://purl.org/dc/dcmitype/StillImage" />
      </cc:Work>
    </rdf:RDF>
  </metadata>
  <defs
     id="defs14">
    <filter
       inkscape:collect="always"
       id="filter3808">
      <feGaussianBlur
         inkscape:collect="always"
         stdDeviation="0.79203718"
         id="feGaussianBlur3810" />
    </filter>
  </defs>
  <sodipodi:namedview
     pagecolor="#ffffff"
     bordercolor="#666666"
     borderopacity="1"
     objecttolerance="10"
     gridtolerance="10"
     guidetolerance="10"
     inkscape:pageopacity="0"
     inkscape:pageshadow="2"
     inkscape:window-width="552"
     inkscape:window-height="544"
     id="namedview12"
     showgrid="false"
     inkscape:snap-grids="false"
     inkscape:snap-to-guides="false"
     inkscape:zoom="5.0595999"
     inkscape:cx="25.399999"
     inkscape:cy="22.398101"
     inkscape:window-x="718"
     inkscape:window-y="192"
     inkscape:window-maximized="0"
     inkscape:current-layer="svg2" />
  <g
     id="g3007"
     transform="translate(0.19764408,-2.5693731)">
    <g
       transform="translate(-88.65,4.2)"
       style="opacity:0.38671875;filter:url(#filter3808)"
       id="g3798">
      <rect
         rx="0"
         ry="2.3031542"
         height="8.7306871"
         width="29.813433"
         y="11.34338"
         x="93.149178"
         id="rect4-4"
         style="fill:#000000;fill-rule:evenodd;stroke:#000000;stroke-opacity:1" />
      <rect
         transform="matrix(0,1,-1,0,0,0)"
         rx="0"
         ry="2.243417"
         height="8.5042381"
         width="30.819489"
         y="-123.2624"
         x="11.503523"
         id="rect6-8"
         style="fill:#000000;fill-rule:evenodd;stroke:#000000;stroke-opacity:1" />
      <path
         d="m 134.31482,15.979044 a 15.30449,14.862257 0 1 1 -30.60898,0 15.30449,14.862257 0 1 1 30.60898,0 z"
         id="path8-1"
         inkscape:connector-curvature="0"
         style="fill:none;stroke:#000000;stroke-width:2.2720027;stroke-opacity:1" />
      <path
         d="m 124.433,15.872462 a 5.7326026,5.8850078 0 0 1 -11.4652,0 5.7326026,5.8850078 0 1 1 11.4652,0 z"
         id="path10-0"
         inkscape:connector-curvature="0"
         style="fill:#000000;stroke:#000000;stroke-width:3.44060159;stroke-opacity:1" />
    </g>
    <rect
       style="fill:#ff0000;fill-rule:evenodd"
       id="rect4"
       x="2.9791427"
       y="14.510259"
       width="29.813433"
       height="8.7306871"
       ry="2.3031542"
       rx="0" />
    <rect
       style="fill:#38d948;fill-rule:evenodd"
       id="rect6"
       x="14.670402"
       y="-33.092365"
       width="30.819489"
       height="8.5042381"
       ry="2.243417"
       rx="0"
       transform="matrix(0,1,-1,0,0,0)" />
    <path
       style="fill:none;stroke:#119b1d;stroke-width:2.2720027"
       inkscape:connector-curvature="0"
       id="path8"
       d="m 44.144785,19.145923 a 15.304489,14.862256 0 1 1 -30.608977,0 15.304489,14.862256 0 1 1 30.608977,0 z" />
    <path
       style="fill:none;stroke:#119b1d;stroke-width:3.44060159"
       inkscape:connector-curvature="0"
       id="path10"
       d="m 34.262967,19.039341 a 5.7326025,5.8850077 0 1 1 -11.465205,0 5.7326025,5.8850077 0 1 1 11.465205,0 z" />
  </g>
  <g
     transform="matrix(0.82404,0,0,0.79493,-4.4140572,14.791779)"
     id="g16">
    <path
       style="fill-rule:evenodd"
       inkscape:connector-curvature="0"
       d="m 5.8694,32.598 c 0,0 15.515,-20.825 31.114,0.08214 -15.599,19.414 -31.114,-0.082 -31.114,-0.082 z"
       id="path18" />
    <path
       style="fill:#ffffff;fill-rule:evenodd"
       inkscape:connector-curvature="0"
       d="m 10.452,32.553 c 0,0 10.86,-13.986 21.78,0.05516 -10.92,13.038 -21.78,-0.05516 -21.78,-0.05516 z"
       id="path20" />
    <path
       style="fill:#a39aff"
       inkscape:connector-curvature="0"
       d="m -6.5,3.5 a 1.75,1.5 0 1 1 -3.5,0 1.75,1.5 0 1 1 3.5,0 z"
       transform="matrix(3.5559,0,0,3.9824,50.678,18.388)"
       id="path22" />
    <path
       inkscape:connector-curvature="0"
       d="m -6.5,3.5 a 1.75,1.5 0 1 1 -3.5,0 1.75,1.5 0 1 1 3.5,0 z"
       transform="matrix(1.778,0,0,1.9912,36.01,25.358)"
       id="path24" />
  </g>
</svg>
