<?xml version="1.0" encoding="UTF-8" standalone="no"?>
<svg
   xmlns:dc="http://purl.org/dc/elements/1.1/"
   xmlns:cc="http://creativecommons.org/ns#"
   xmlns:rdf="http://www.w3.org/1999/02/22-rdf-syntax-ns#"
   xmlns:svg="http://www.w3.org/2000/svg"
   xmlns="http://www.w3.org/2000/svg"
   xmlns:sodipodi="http://sodipodi.sourceforge.net/DTD/sodipodi-0.dtd"
   xmlns:inkscape="http://www.inkscape.org/namespaces/inkscape"
   id="Слой_1"
   data-name="Слой 1"
   viewBox="0 0 26 26"
   version="1.1"
   sodipodi:docname="via_sketch.svg"
   inkscape:version="1.0.1 (3bc2e813f5, 2020-09-07)">
  <sodipodi:namedview
     pagecolor="#ffffff"
     bordercolor="#666666"
     borderopacity="1"
     objecttolerance="10"
     gridtolerance="10"
     guidetolerance="10"
     inkscape:pageopacity="0"
     inkscape:pageshadow="2"
     inkscape:window-width="2006"
     inkscape:window-height="1491"
     id="namedview24"
     showgrid="false"
     inkscape:zoom="27.961538"
     inkscape:cx="13"
     inkscape:cy="13"
     inkscape:window-x="0"
     inkscape:window-y="37"
     inkscape:window-maximized="0"
     inkscape:current-layer="Слой_1" />
  <metadata
     id="metadata43">
    <rdf:RDF>
      <cc:Work
         rdf:about="">
        <cc:license
           rdf:resource="http://creativecommons.org/licenses/by-sa/4.0/" />
        <dc:format>image/svg+xml</dc:format>
        <dc:type
           rdf:resource="http://purl.org/dc/dcmitype/StillImage" />
        <dc:title>add_arc</dc:title>
      </cc:Work>
      <cc:License
         rdf:about="http://creativecommons.org/licenses/by-sa/4.0/">
        <cc:permits
           rdf:resource="http://creativecommons.org/ns#Reproduction" />
        <cc:permits
           rdf:resource="http://creativecommons.org/ns#Distribution" />
        <cc:requires
           rdf:resource="http://creativecommons.org/ns#Notice" />
        <cc:requires
           rdf:resource="http://creativecommons.org/ns#Attribution" />
        <cc:permits
           rdf:resource="http://creativecommons.org/ns#DerivativeWorks" />
        <cc:requires
           rdf:resource="http://creativecommons.org/ns#ShareAlike" />
      </cc:License>
    </rdf:RDF>
  </metadata>
  <defs
     id="defs5">
    <style
       id="style3">.cls-1{fill:#e61c50;}.cls-2{fill:#b9b9b9;}.cls-3{fill:#1a81c4;}.cls-4{fill:#f29100;}.cls-5{fill:none;stroke:#545454;stroke-linecap:round;stroke-linejoin:round;}</style>
  </defs>
  <title
     id="title7">via_sketch</title>
  <path
     class="cls-1"
     d="m 24.0021,25.0021 a 1,1 0 0 0 0.707,-1.707 l -9.0233,-9.0243 c -0.3906,-0.3907 -0.6715,-0.0387 -1.0621,0.3519 -0.3906,0.3906 -0.7426,0.6715 -0.352,1.0621 l 9.0234,9.0243 a 0.9967,0.9967 0 0 0 0.707,0.293 z"
     id="path9" />
  <path
     class="cls-2"
     d="m 16.6041,8.8601 -8.0469,7.6648 0.3441,0.8565 a 6,6 0 0 0 8.5628,-8.3917 l -0.86,-0.13 m -0.3352,-1.0618 1.6832,0.2542 a 7.000145,7.000145 0 1 1 -9.9,9.8994 l -0.6763,-1.6828 8.8925,-8.47 z"
     id="path11" />
  <path
     class="cls-2"
     d="m 14.7532,11.8209 -3.0272,2.8628 a 2.1118,2.1118 0 0 0 3.0272,-2.8628 m -0.08,-1.3009 0.5289,0.2821 a 3.1112698,3.1112698 0 1 1 -4.4,4.4 l -0.4464,-0.5989 4.3172,-4.0827 z"
     id="path13" />
  <path
     class="cls-3"
     d="m 8.0529,9.0521 a 1,1 0 0 0 0.707,-1.707 l -6.0508,-6.05 a 1,1 0 0 0 -1.414,1.414 l 6.0507,6.05 a 0.9971,0.9971 0 0 0 0.7071,0.293 z"
     id="path15" />
  <path
     class="cls-4"
     d="m 17.9521,8.0521 a 7.0003571,7.0003571 0 0 0 -9.9,9.9"
     id="path17" />
  <path
     class="cls-2"
     d="m 15.2021,10.8021 a 3.1112698,3.1112698 0 0 0 -4.4,4.4"
     id="path19" />
  <line
     class="cls-5"
     x1="24.5042"
     y1="1.5"
     x2="1.5"
     y2="24.5042"
     id="line21" />
</svg>
