<svg id="Слой_1" data-name="Слой 1"
  xmlns:dc="http://purl.org/dc/elements/1.1/"
  xmlns:cc="http://creativecommons.org/ns#"
  xmlns:rdf="http://www.w3.org/1999/02/22-rdf-syntax-ns#"
  xmlns="http://www.w3.org/2000/svg" viewBox="0 0 26 26">
  <metadata id="metadata43">
    <rdf:RDF>
      <cc:Work rdf:about="">
        <cc:license rdf:resource="http://creativecommons.org/licenses/by-sa/4.0/" />
        <dc:format>image/svg+xml</dc:format>
        <dc:type rdf:resource="http://purl.org/dc/dcmitype/StillImage" />
        <dc:title>add_arc</dc:title>
      </cc:Work>
      <cc:License rdf:about="http://creativecommons.org/licenses/by-sa/4.0/">
        <cc:permits rdf:resource="http://creativecommons.org/ns#Reproduction" />
        <cc:permits rdf:resource="http://creativecommons.org/ns#Distribution" />
        <cc:requires rdf:resource="http://creativecommons.org/ns#Notice" />
        <cc:requires rdf:resource="http://creativecommons.org/ns#Attribution" />
        <cc:permits rdf:resource="http://creativecommons.org/ns#DerivativeWorks" />
        <cc:requires rdf:resource="http://creativecommons.org/ns#ShareAlike" />
      </cc:License>
    </rdf:RDF>
  </metadata>
  <defs>
    <style>.cls-1{fill:#b9b9b9;}.cls-2{fill:#f5f5f5;}.cls-3{fill:#545454;}</style>
  </defs>
  <title>visibility_off</title>
  <circle class="cls-1" cx="13" cy="13" r="12"/>
  <path class="cls-2" d="M22.7206,13S18.3685,18.2839,13,18.2839,3.2794,13,3.2794,13,7.6315,7.7159,13,7.7159,22.7206,13,22.7206,13Z"/>
  <path class="cls-1" d="M9.8057,14.6562a3.5983,3.5983,0,0,1,5.2052-4.6414C15.9676,10.6618,10.4046,15.8111,9.8057,14.6562Z"/>
  <rect class="cls-1" x="5.012" y="11.4853" width="15.4646" height="3.4266" transform="translate(-5.5999 12.8691) rotate(-44.974)"/>
  <path class="cls-3" d="M6.0934,19.8622a1.0715,1.0715,0,0,1-.7576-1.83l12.6577-12.67A1.072,1.072,0,1,1,19.5088,6.88L6.8511,19.5491A1.0668,1.0668,0,0,1,6.0934,19.8622Z"/>
</svg>