<svg xmlns="http://www.w3.org/2000/svg" height="48" width="48" version="1.1">
 <defs>
  <filter id="d" height="1.3255" width="1.3255" color-interpolation-filters="sRGB" y="-.16275" x="-.16275">
   <feGaussianBlur stdDeviation="0.81375002"/>
  </filter>
  <filter id="e" height="1.3255" width="1.3255" color-interpolation-filters="sRGB" y="-.16275" x="-.16275">
   <feGaussianBlur stdDeviation="0.81375002"/>
  </filter>
  <filter id="f" height="1.3255" width="1.3255" color-interpolation-filters="sRGB" y="-.16275" x="-.16275">
   <feGaussianBlur stdDeviation="0.81375002"/>
  </filter>
 </defs>
 <path opacity=".31641" stroke-linejoin="round" d="m46.35 9.6a6 6 0 1 1 -12 0 6 6 0 1 1 12 0z" transform="translate(-6.125,5.325)" filter="url(#d)" stroke="#000" stroke-width="3.8" fill="none"/>
 <path opacity=".31641" stroke-linejoin="round" d="m46.35 9.6a6 6 0 1 1 -12 0 6 6 0 1 1 12 0z" transform="translate(5.125,20.475)" filter="url(#e)" stroke="#000" stroke-width="3.8" fill="none"/>
 <path opacity=".31641" stroke-linejoin="round" d="m46.35 9.6a6 6 0 1 1 -12 0 6 6 0 1 1 12 0z" transform="translate(-10.325,30.975)" filter="url(#f)" stroke="#000" stroke-width="3.8" fill="none"/>
 <path stroke-linejoin="round" d="m46.35 9.6a6 6 0 1 1 -12 0 6 6 0 1 1 12 0z" transform="translate(-8.3,2.55)" stroke="#f00" stroke-width="3.8" fill="none"/>
 <path stroke-linejoin="round" d="m46.35 9.6a6 6 0 1 1 -12 0 6 6 0 1 1 12 0z" transform="translate(2.95,17.7)" stroke="#00ff10" stroke-width="3.8" fill="none"/>
 <path stroke-linejoin="round" d="m46.35 9.6a6 6 0 1 1 -12 0 6 6 0 1 1 12 0z" transform="translate(-12.5,28.2)" stroke="#0017ff" stroke-width="3.8" fill="none"/>
 <g transform="translate(1.813 -.77515)" stroke="#000">
  <path stroke-width="1.8269" fill="none" d="m9.287 28.771v16.639"/>
  <path stroke-width="2.1706" fill="none" d="m1.4156 19.903h15.743"/>
  <path stroke-width="2.1706" fill="none" d="m1.4156 27.629h15.743"/>
  <path stroke-width="1.8269" fill="none" d="m9.287 2.6395v16.639"/>
  <path stroke-width=".91347px" d="m9.3461 27.947-6.031 8.0969h11.944z"/>
  <path stroke-width=".91347px" d="m9.3461 19.612-6.031-8.0969h11.944z"/>
 </g>
</svg>
