<svg xmlns="http://www.w3.org/2000/svg" height="48" width="48" version="1.0" xmlns:xlink="http://www.w3.org/1999/xlink">
 <defs>
  <linearGradient id="a">
   <stop offset="0"/>
   <stop stop-opacity="0" offset="1"/>
  </linearGradient>
  <filter id="y" color-interpolation-filters="sRGB">
   <feGaussianBlur stdDeviation="1.04"/>
  </filter>
  <clipPath id="v">
   <circle cy="92" cx="344" r="36" fill="url(#linearGradient5167)"/>
  </clipPath>
  <filter id="z" color-interpolation-filters="sRGB">
   <feGaussianBlur stdDeviation="2.8805897"/>
  </filter>
  <filter id="x" color-interpolation-filters="sRGB">
   <feGaussianBlur stdDeviation="0.96794009"/>
  </filter>
  <filter id="w" color-interpolation-filters="sRGB">
   <feGaussianBlur stdDeviation="5.6513927"/>
  </filter>
  <linearGradient id="aa" y2="-373.12" gradientUnits="userSpaceOnUse" x2="-56.358" gradientTransform="matrix(0,1,-1,0,-39.998,140)" y1="-381.1" x1="-86.12">
   <stop stop-color="#8c0000" offset="0"/>
   <stop stop-color="#bf0000" offset="1"/>
  </linearGradient>
  <radialGradient id="s" gradientUnits="userSpaceOnUse" cy="85.25" cx="345.81" gradientTransform="matrix(.66629 -.65601 .98938 1.0049 31.056 226.44)" r="36">
   <stop stop-color="#ffbe00" offset="0"/>
   <stop stop-color="#f5d600" stop-opacity="0" offset="1"/>
  </radialGradient>
  <linearGradient id="ab" y2="87.759" gradientUnits="userSpaceOnUse" x2="336.98" y1="120.81" x1="328.12">
   <stop stop-color="#f00" offset="0"/>
   <stop stop-color="#650000" offset="1"/>
  </linearGradient>
  <linearGradient id="ac" y2="-131.93" gradientUnits="userSpaceOnUse" x2="-45.097" gradientTransform="matrix(0,1.346,-1.346,0,-326.19,62.614)" y1="-131.93" x1="-80.003">
   <stop stop-color="#fff" offset="0"/>
   <stop stop-color="#fff" stop-opacity="0" offset="1"/>
  </linearGradient>
  <linearGradient id="ad" y2="76.634" gradientUnits="userSpaceOnUse" x2="90.538" gradientTransform="translate(20,-56)" y1="103.01" x1="117.82">
   <stop stop-color="#4d0000" stop-opacity="0" offset="0"/>
   <stop stop-color="#4d0000" offset=".5"/>
   <stop stop-color="#4d0000" stop-opacity="0" offset="1"/>
  </linearGradient>
  <linearGradient id="ae" y2="609.51" gradientUnits="userSpaceOnUse" x2="302.86" gradientTransform="matrix(2.7744,0,0,1.9697,-1892.2,-872.89)" y1="366.65" x1="302.86">
   <stop stop-opacity="0" offset="0"/>
   <stop offset=".5"/>
   <stop stop-opacity="0" offset="1"/>
  </linearGradient>
  <radialGradient id="t" xlink:href="#a" gradientUnits="userSpaceOnUse" cy="486.65" cx="605.71" gradientTransform="matrix(2.7744,0,0,1.9697,-1891.6,-872.89)" r="117.14"/>
  <radialGradient id="u" xlink:href="#a" gradientUnits="userSpaceOnUse" cy="486.65" cx="605.71" gradientTransform="matrix(-2.7744,0,0,1.9697,112.76,-872.89)" r="117.14"/>
  <linearGradient id="q" y2="21.768" gradientUnits="userSpaceOnUse" x2="17.881" gradientTransform="matrix(2.7976,0,0,2.5817,-29.889,-214.14)" y1="11.073" x1="17.881">
   <stop stop-color="#fff" offset="0"/>
   <stop stop-color="#e0e0e0" offset="1"/>
  </linearGradient>
  <linearGradient id="r" y2="12.481" gradientUnits="userSpaceOnUse" x2="13.268" gradientTransform="matrix(2.9308,0,0,2.7985,-30.885,-215.23)" y1="7.7191" x1="13.268">
   <stop stop-color="#204a87" offset="0"/>
   <stop stop-color="#204a87" stop-opacity="0" offset="1"/>
  </linearGradient>
 </defs>
 <g transform="matrix(1,0,0,1.0736,15.75,208.79)">
  <g transform="matrix(.025044 0 0 .014857 30.847 -154.73)">
   <rect opacity=".40206" style="color:#000000" height="478.36" width="1339.6" y="-150.7" x="-1559.3" fill="url(#ae)"/>
   <path opacity=".40206" style="color:#000000" fill="url(#t)" d="m-219.62-150.68v478.33c142.87 0.90045 345.4-107.17 345.4-239.2s-159.44-239.13-345.4-239.13z"/>
   <path opacity=".40206" style="color:#000000" fill="url(#u)" d="m-1559.3-150.68v478.33c-142.87 0.90045-345.4-107.17-345.4-239.2s159.44-239.13 345.4-239.13z"/>
  </g>
  <rect style="color:#000000" fill-rule="evenodd" rx="1.1062" ry="1.1062" height="41.007" width="45.004" stroke="#8d8d8d" y="-193.5" x="-14.502" fill="url(#q)"/>
  <rect style="color:#000000" fill-rule="evenodd" rx=".22227" ry=".22227" height="7" width="42" y="-192" x="-13" fill="url(#r)"/>
  <rect style="color:#000000" stroke-opacity=".47879" rx=".40407" ry=".35616" height="38.978" width="42.974" stroke="#fff" y="-192.49" x="-13.491" fill="none"/>
 </g>
 <g transform="matrix(.2194 0 0 .20192 68.441 11.507)">
  <path opacity=".50272" stroke-linejoin="round" d="m115.5 20a100 100 0 1 1 -200 0 100 100 0 1 1 200 0z" transform="matrix(.5662 0 0 .5662 -157.78 -2.0741)" stroke-dashoffset="4.15" filter="url(#w)" stroke="#000" stroke-linecap="round" stroke-width=".1375"/>
  <circle transform="matrix(-1.5639 .41906 -.41906 -1.5639 428.03 5.398)" cy="92" cx="344" r="36" fill="url(#aa)"/>
  <circle transform="matrix(-1.173 .31429 -.31429 -1.173 283.9 5.4662)" filter="url(#x)" cy="92" cx="344" r="36" fill="url(#s)"/>
  <circle opacity=".8" stroke-width="6.7514" clip-path="url(#v)" transform="matrix(-1.5639 -.41906 -.41906 1.5639 428.03 5.943)" stroke="url(#ab)" filter="url(#z)" cy="92" cx="344" r="36" fill="none"/>
  <path opacity=".8" fill="url(#ac)" d="m-148.52-45.072c-20.67 0-37.943 14.596-42.106 34.029 8.298 7.7355 24.043 12.956 42.106 12.956 18.062 0 33.808-5.2201 42.106-12.956-4.163-19.433-21.435-34.029-42.106-34.029z"/>
  <g transform="matrix(1.2883,1.2883,-1.2883,1.2883,-259.31,-197.87)">
   <path stroke-linejoin="round" d="m118 16v16h-16v8h16v16h8v-16h16v-8h-16v-16h-8z" filter="url(#y)" stroke="url(#ad)" stroke-linecap="round" stroke-width="4" fill="none"/>
   <path fill-rule="evenodd" fill="#fff" d="m118 16v16h-16v8h16v16h8v-16h16v-8h-16v-16h-8z"/>
  </g>
 </g>
</svg>
