<svg id="Слой_1" data-name="Слой 1"
  xmlns:dc="http://purl.org/dc/elements/1.1/"
  xmlns:cc="http://creativecommons.org/ns#"
  xmlns:rdf="http://www.w3.org/1999/02/22-rdf-syntax-ns#"
  xmlns="http://www.w3.org/2000/svg" viewBox="0 0 26 26">
  <metadata id="metadata43">
    <rdf:RDF>
      <cc:Work rdf:about="">
        <cc:license rdf:resource="http://creativecommons.org/licenses/by-sa/4.0/" />
        <dc:format>image/svg+xml</dc:format>
        <dc:type rdf:resource="http://purl.org/dc/dcmitype/StillImage" />
        <dc:title>add_arc</dc:title>
      </cc:Work>
      <cc:License rdf:about="http://creativecommons.org/licenses/by-sa/4.0/">
        <cc:permits rdf:resource="http://creativecommons.org/ns#Reproduction" />
        <cc:permits rdf:resource="http://creativecommons.org/ns#Distribution" />
        <cc:requires rdf:resource="http://creativecommons.org/ns#Notice" />
        <cc:requires rdf:resource="http://creativecommons.org/ns#Attribution" />
        <cc:permits rdf:resource="http://creativecommons.org/ns#DerivativeWorks" />
        <cc:requires rdf:resource="http://creativecommons.org/ns#ShareAlike" />
      </cc:License>
    </rdf:RDF>
  </metadata>
  <defs>
    <style>.cls-1{fill:#b9b9b9;}.cls-2{fill:#545454;}.cls-3{fill:none;stroke:#b9b9b9;stroke-linecap:round;stroke-linejoin:round;stroke-width:0.75px;}.cls-4{fill:#1a81c4;}.cls-5{fill:#e61c50;}</style>
  </defs>
  <title>wizard_add_fplib_icon</title>
  <path class="cls-1" d="M18.4986,21.9979H4.5014a3.4993,3.4993,0,0,1-3.4993-3.4993V4.5014A3.4993,3.4993,0,0,1,4.5014,1.0021H18.4986a3.4994,3.4994,0,0,1,3.4993,3.4993V18.4986c0,.5575-.43.982-.6623,1.45A3.1685,3.1685,0,0,1,18.4986,21.9979Z"/>
  <rect class="cls-2" x="2.8437" y="4.394" width="4.6301" height="13.8903"/>
  <line class="cls-3" x1="3.9909" y1="9.1333" x2="6.3334" y2="9.1333"/>
  <line class="cls-3" x1="3.9909" y1="16.4392" x2="6.3334" y2="16.4392"/>
  <line class="cls-3" x1="3.9909" y1="7.6396" x2="6.3334" y2="7.6396"/>
  <line class="cls-3" x1="3.9909" y1="6.1458" x2="6.3334" y2="6.1458"/>
  <rect class="cls-2" x="8.3647" y="4.394" width="4.6301" height="13.8903"/>
  <line class="cls-3" x1="9.5119" y1="9.1333" x2="11.8544" y2="9.1333"/>
  <line class="cls-3" x1="9.5119" y1="16.4392" x2="11.8544" y2="16.4392"/>
  <line class="cls-3" x1="9.5119" y1="7.6396" x2="11.8544" y2="7.6396"/>
  <line class="cls-3" x1="9.5119" y1="6.1458" x2="11.8544" y2="6.1458"/>
  <rect class="cls-4" x="15.5485" y="4.6387" width="4.6301" height="13.8903" transform="matrix(0.9606, -0.2779, 0.2779, 0.9606, -2.5152, 5.4196)"/>
  <line class="cls-3" x1="16.1287" y1="9.7893" x2="18.379" y2="9.1384"/>
  <line class="cls-3" x1="18.1588" y1="16.8075" x2="20.4091" y2="16.1566"/>
  <line class="cls-3" x1="15.7137" y1="8.3544" x2="17.9639" y2="7.7035"/>
  <line class="cls-3" x1="15.2986" y1="6.9195" x2="17.5488" y2="6.2686"/>
  <polygon class="cls-5" points="17.666 11.038 19.934 15.634 25.005 16.371 21.336 19.948 22.202 25 17.666 22.615 13.129 25 13.996 19.948 10.326 16.371 15.397 15.634 17.666 11.038"/>
</svg>