<svg id="Слой_1" data-name="Слой 1"
  xmlns:dc="http://purl.org/dc/elements/1.1/"
  xmlns:cc="http://creativecommons.org/ns#"
  xmlns:rdf="http://www.w3.org/1999/02/22-rdf-syntax-ns#"
  xmlns="http://www.w3.org/2000/svg" viewBox="0 0 26 26">
  <metadata id="metadata43">
    <rdf:RDF>
      <cc:Work rdf:about="">
        <cc:license rdf:resource="http://creativecommons.org/licenses/by-sa/4.0/" />
        <dc:format>image/svg+xml</dc:format>
        <dc:type rdf:resource="http://purl.org/dc/dcmitype/StillImage" />
        <dc:title>add_arc</dc:title>
      </cc:Work>
      <cc:License rdf:about="http://creativecommons.org/licenses/by-sa/4.0/">
        <cc:permits rdf:resource="http://creativecommons.org/ns#Reproduction" />
        <cc:permits rdf:resource="http://creativecommons.org/ns#Distribution" />
        <cc:requires rdf:resource="http://creativecommons.org/ns#Notice" />
        <cc:requires rdf:resource="http://creativecommons.org/ns#Attribution" />
        <cc:permits rdf:resource="http://creativecommons.org/ns#DerivativeWorks" />
        <cc:requires rdf:resource="http://creativecommons.org/ns#ShareAlike" />
      </cc:License>
    </rdf:RDF>
  </metadata>
  <defs>
    <style>.cls-1{fill:#545454;}.cls-2,.cls-3{fill:none;stroke:#545454;stroke-miterlimit:10;}.cls-2{stroke-width:1.4924px;}.cls-3{stroke-width:1.5018px;}</style>
  </defs>
  <title>www</title>
  <path class="cls-1" d="M13,3.3051A9.6949,9.6949,0,1,1,3.3049,13,9.7061,9.7061,0,0,1,13,3.3051m0-1.2776A10.9725,10.9725,0,1,0,23.9727,13,10.9726,10.9726,0,0,0,13,2.0275Z"/>
  <path class="cls-2" d="M3.4532,17.5329a57.2435,57.2435,0,0,1,19.0936,0"/>
  <path class="cls-2" d="M3.5334,8.58a55.5886,55.5886,0,0,0,18.9332.028"/>
  <ellipse class="cls-3" cx="13" cy="12.977" rx="4.4936" ry="10.1665"/>
  <line class="cls-2" x1="2.875" y1="13.0274" x2="23.125" y2="13.0274"/>
  <line class="cls-2" x1="13" y1="2.0274" x2="13" y2="23.4024"/>
</svg>