<svg xmlns="http://www.w3.org/2000/svg" height="44" width="44" version="1.1" viewBox="0 0 44 44">
 <g transform="matrix(1.1737,0,0,1.2034,-4.4746,-4.2881)">
  <rect height="44" width="44" y="0" x="0" fill="none"/>
 </g>
 <g transform="matrix(1.2102,0,0,1.2034,-5.5015,-4.4746)">
  <path fill-opacity=".2" d="m38.395 9.124c0.008-1.655-1.176-2.898-2.596-3.568v-0.036c-0.26-0.042-0.576 0.264-0.841 0.363-0.365 0.137-0.757 0.191-1.146 0.166-0.832-0.055-1.633-0.374-2.237-0.954-0.084-0.028-0.226 0-0.313 0h-12.541c-1.408 0-2.678 0.002-3.617 1.271-0.743 1.003-1.237 3.01-0.782 4.215 0.06 0.276 0.523 0.782 1.065 0.756 0.624-0.069 1.2-0.568 1.819-0.773v-0.008h14.604c0.000999 5.216 0.002 10.431 0.002 15.647h-8.729v-1.176h-4.659v1.176c-0.476 0-1.021-0.079-1.489 0.021-1.316 0.181-1.95 1.567-2.229 2.715h-0.087c-0.087 0.749-0.195 1.5-0.257 2.252 1.357-0.06 2.703-0.09 4.061-0.09v1.146c0 0.66-0.199 0.646-0.585 1.2-0.621 0.891-0.533 1.908-0.533 2.934 0.022 1.841 1.644 3.127 3.448 3.132 1.807-0.005 3.423-1.291 3.446-3.132 0-1.024 0.087-2.043-0.532-2.934-0.386-0.555-0.584-0.541-0.584-1.2v-1.146h7.149c2.587 0 5.756 0.613 7.345-1.959 0.522-0.831 0.818-1.603 0.818-2.555 0-1.779 0-3.558 0.001-5.337 0-4.042-0.001-8.084-0.001-12.126"/>
  <path fill-opacity=".4" d="m15.509 30.102h3.914v3.011c0 0.276 0.037 0.175-0.241 0.377-0.444 0.324-0.775 0.806-0.857 1.355-0.075 0.499-0.021 1.033-0.021 1.536 0 2.795 4.895 2.795 4.895 0 0-0.416 0.032-0.845 0-1.26 0-0.46-0.176-0.902-0.47-1.253-0.183-0.217-0.648-0.384-0.648-0.663v-3.104h11.071c1.085 0 2.116 0.089 2.966-0.727 0.623-0.598 1.045-1.43 1.278-2.255v-17.74c0-1.637-1.129-2.64-2.598-3.152v-0.132h-14.705c-1.088 0-2.649-0.263-3.57 0.303-1.115 0.651-1.402 2.363-1.32 3.548 0.038 0.543 0.379 0.392 0.583 0.033l0.42-0.139v-0.284h16.605v17.647h-10.731v-1.176h-2.658v1.176c-0.768 0-1.582-0.076-2.346 0.011-1.105 0.103-1.407 1.9-1.545 2.728h-0.023"/>
  <linearGradient id="d" y2="1624.5" gradientUnits="userSpaceOnUse" x2="554.76" gradientTransform="translate(-534.01,-1587)" y1="1612" x1="554.76">
   <stop stop-color="#cecece" offset="0"/>
   <stop stop-color="#7f7f7f" offset="1"/>
  </linearGradient>
  <path fill="url(#d)" d="m22.081 32.334v-7.307h-2.658v7.307c-0.672 0.38-1.119 1.037-1.119 1.787v1.26c0 1.176 1.096 2.131 2.448 2.131s2.447-0.955 2.447-2.131v-1.26c0-0.75-0.448-1.408-1.118-1.787z"/>
  <linearGradient id="e" y2="765.1" gradientUnits="userSpaceOnUse" x2="149.4" gradientTransform="translate(-112,-748)" y1="765.1" x1="127.34">
   <stop stop-color="#cecece" offset="0"/>
   <stop stop-color="#7f7f7f" offset="1"/>
  </linearGradient>
  <path fill="url(#e)" d="m15.337 7.43s0.171-2.334 2.334-2.334h16.698s3.027 0.692 3.027 3.028v17.994s-0.779 2.983-2.984 2.983h-18.903s0.346-2.898 1.645-2.898h15.659v-17.647h-16.958l-0.518-1.126"/>
  <path fill-opacity=".3" fill="#fff" d="m32.813 8.556v8.569h4.584v-9.001c0-2.336-3.025-3.028-3.025-3.028h-16.698c-2.163 0-2.337 2.334-2.337 2.334l0.518 1.126h16.958z"/>
  <path fill-opacity=".2" d="m28.928 10.262v0.689h-0.001v-0.687h-9.008l-1.737-2.002h-4.89c-1.561 0-4.057-0.521-5.059 0.992-0.202 0.317-0.353 0.658-0.439 1.01h-0.081v16.187c7.744 0 15.487-0.001 23.23-0.001v-16.188h-2.015"/>
  <path fill-opacity=".4" d="m28.928 10.951h-9.321l-1.738-2.002h-8.074c-0.88 0-1.422 1.265-1.389 2.002h-0.006v14.814h21.858v-14.814h-1.33"/>
  <linearGradient id="f" y2="-1006.1" gradientUnits="userSpaceOnUse" x2="277.33" gradientTransform="matrix(1,0,0,-1,-258,-981)" y1="-989.27" x1="277.33">
   <stop stop-color="#ffe23d" offset="0"/>
   <stop stop-color="#fad337" offset=".22390"/>
   <stop stop-color="#efab26" offset=".65370"/>
   <stop stop-color="#e48717" offset="1"/>
  </linearGradient>
  <path fill="url(#f)" d="m28.928 10.264h-9.321l-1.738-2.002h-8.074c-0.88 0-1.422 1.265-1.389 2.002h-0.006v14.815h21.858v-14.815h-1.33"/>
  <path fill-opacity=".3" fill="#fff" d="m27.938 10.787h-8.558l-1.753-1.982h-7.415c-0.847 0-1.226 1.326-1.226 1.982h-0.006v7.001h20.704v-7.001h-1.746"/>
 </g>
</svg>
