<svg id="Слой_1" data-name="Слой 1"
  xmlns:dc="http://purl.org/dc/elements/1.1/"
  xmlns:cc="http://creativecommons.org/ns#"
  xmlns:rdf="http://www.w3.org/1999/02/22-rdf-syntax-ns#"
  xmlns="http://www.w3.org/2000/svg"
  xmlns:xlink="http://www.w3.org/1999/xlink" viewBox="0 0 26 26">
  <metadata id="metadata43">
    <rdf:RDF>
      <cc:Work rdf:about="">
        <cc:license rdf:resource="http://creativecommons.org/licenses/by-sa/4.0/" />
        <dc:format>image/svg+xml</dc:format>
        <dc:type rdf:resource="http://purl.org/dc/dcmitype/StillImage" />
        <dc:title>add_arc</dc:title>
      </cc:Work>
      <cc:License rdf:about="http://creativecommons.org/licenses/by-sa/4.0/">
        <cc:permits rdf:resource="http://creativecommons.org/ns#Reproduction" />
        <cc:permits rdf:resource="http://creativecommons.org/ns#Distribution" />
        <cc:requires rdf:resource="http://creativecommons.org/ns#Notice" />
        <cc:requires rdf:resource="http://creativecommons.org/ns#Attribution" />
        <cc:permits rdf:resource="http://creativecommons.org/ns#DerivativeWorks" />
        <cc:requires rdf:resource="http://creativecommons.org/ns#ShareAlike" />
      </cc:License>
    </rdf:RDF>
  </metadata>
  <defs>
    <style>.cls-1{fill:#1a81c4;}.cls-2{fill:#595959;}.cls-3{fill:url(#Безымянный_градиент_19);}.cls-4{fill:url(#Безымянный_градиент_19-2);}.cls-5{fill:#545454;}.cls-6{fill:#e61c50;}.cls-7{fill:none;stroke:#f5f5f5;stroke-linecap:round;stroke-linejoin:round;stroke-width:2px;}</style>
    <linearGradient id="Безымянный_градиент_19" x1="8.3372" y1="15.5299" x2="8.3372" y2="12.9228" gradientUnits="userSpaceOnUse">
      <stop offset="0" stop-color="#ececec"/>
      <stop offset="1" stop-color="#c6c6c5"/>
    </linearGradient>
    <linearGradient id="Безымянный_градиент_19-2" x1="9.5617" y1="15.5299" x2="9.5617" y2="12.9228" xlink:href="#Безымянный_градиент_19"/>
  </defs>
  <title>zone_unfill</title>
  <rect class="cls-1" x="8.3989" y="11.8997" width="1.74" height="10.3491" transform="translate(26.3431 7.8054) rotate(90)"/>
  <path class="cls-2" d="M8.93,12.0811a.8745.8745,0,0,1-.875-.875V7.718a.8728.8728,0,0,1,.2632-.6254L9.6736,5.7681a.8759.8759,0,0,1,.6119-.2495H20.9316a.875.875,0,0,1,0,1.75h-10.29l-.8366.8177v3.12A.8744.8744,0,0,1,8.93,12.0811Z"/>
  <rect class="cls-3" x="7.8997" y="12.9228" width="0.875" height="2.6071"/>
  <rect class="cls-4" x="9.1242" y="12.9228" width="0.875" height="2.6071"/>
  <path class="cls-5" d="M7.8157,9.4672H10.01a.6528.6528,0,0,1,.6528.6528v2.1943a.6529.6529,0,0,1-.6529.6529H7.8158a.653.653,0,0,1-.653-.653V10.12A.6529.6529,0,0,1,7.8157,9.4672Z"/>
  <path class="cls-5" d="M7.8083,15.3456h2.1944a.6528.6528,0,0,1,.6528.6528v2.1943a.6529.6529,0,0,1-.6529.6529H7.8084a.6529.6529,0,0,1-.6529-.6529V15.9984A.6528.6528,0,0,1,7.8083,15.3456Z"/>
  <path class="cls-1" d="M12.1541,9.0186a2.3887,2.3887,0,0,1,.2675,1.1014v2.1943a2.3916,2.3916,0,0,1-.4563,1.4074,4.4066,4.4066,0,1,1-6.0866-.0026,2.3709,2.3709,0,0,1-.4571-1.4048V10.12a2.3981,2.3981,0,0,1,.8835-1.86V7.718a2.6387,2.6387,0,0,1,.7921-1.8789L8.4508,4.5162a2.615,2.615,0,0,1,1.8345-.7476h11.64l-.0023-.0118a3.49,3.49,0,0,0-3.4033-2.7376h-14a3.5,3.5,0,0,0-3.5,3.5v14a3.5,3.5,0,0,0,3.5,3.5h14a3.5,3.5,0,0,0,3.5-3.5V9.0186Z"/>
  <rect class="cls-1" x="8.0356" y="18.8264" width="1.7399" height="2.6947"/>
  <path class="cls-6" d="M22.9513,22.948a7.0032,7.0032,0,1,1,0-9.9038A7.0034,7.0034,0,0,1,22.9513,22.948Z"/>
  <line class="cls-7" x1="20.4708" y1="15.5158" x2="15.5189" y2="20.4677"/>
  <line class="cls-7" x1="20.4708" y1="20.4677" x2="15.5189" y2="15.5158"/>
</svg>