<svg id="Слой_1" data-name="Слой 1"
  xmlns:dc="http://purl.org/dc/elements/1.1/"
  xmlns:cc="http://creativecommons.org/ns#"
  xmlns:rdf="http://www.w3.org/1999/02/22-rdf-syntax-ns#"
  xmlns="http://www.w3.org/2000/svg" viewBox="0 0 26 26">
  <metadata id="metadata43">
    <rdf:RDF>
      <cc:Work rdf:about="">
        <cc:license rdf:resource="http://creativecommons.org/licenses/by-sa/4.0/" />
        <dc:format>image/svg+xml</dc:format>
        <dc:type rdf:resource="http://purl.org/dc/dcmitype/StillImage" />
        <dc:title>add_arc</dc:title>
      </cc:Work>
      <cc:License rdf:about="http://creativecommons.org/licenses/by-sa/4.0/">
        <cc:permits rdf:resource="http://creativecommons.org/ns#Reproduction" />
        <cc:permits rdf:resource="http://creativecommons.org/ns#Distribution" />
        <cc:requires rdf:resource="http://creativecommons.org/ns#Notice" />
        <cc:requires rdf:resource="http://creativecommons.org/ns#Attribution" />
        <cc:permits rdf:resource="http://creativecommons.org/ns#DerivativeWorks" />
        <cc:requires rdf:resource="http://creativecommons.org/ns#ShareAlike" />
      </cc:License>
    </rdf:RDF>
  </metadata>
  <defs>
    <style>.cls-1{fill:#b9b9b9;}.cls-2{fill:#545454;}</style>
  </defs>
  <title>zoom_center_on_screen</title>
  <rect class="cls-1" x="0.9955" y="1.0099" width="21.1277" height="21.0976"/>
  <path class="cls-2" d="M11.5617,22.1075A10.5531,10.5531,0,1,1,19.026,4.0938h0a10.55,10.55,0,0,1-7.4643,18.0137Zm0-19.0879a8.5381,8.5381,0,1,0,6.0412,2.4973A8.5161,8.5161,0,0,0,11.5617,3.02Z"/>
  <path class="cls-2" d="M11.56,13.0572a1.5,1.5,0,1,1,1.061-2.5611h0a1.5,1.5,0,0,1-1.061,2.5611Z"/>
  <path class="cls-2" d="M24.0167,25.0123a.9969.9969,0,0,1-.707-.293l-5.7451-5.7451a1.0164,1.0164,0,0,1,1.414-1.4141l5.7452,5.7451a1,1,0,0,1-.7071,1.7071Z"/>
</svg>