<?xml version="1.0" encoding="UTF-8" standalone="no"?>
<!-- Created with Inkscape (http://www.inkscape.org/) -->

<svg
   xmlns:dc="http://purl.org/dc/elements/1.1/"
   xmlns:cc="http://creativecommons.org/ns#"
   xmlns:rdf="http://www.w3.org/1999/02/22-rdf-syntax-ns#"
   xmlns:svg="http://www.w3.org/2000/svg"
   xmlns="http://www.w3.org/2000/svg"
   xmlns:xlink="http://www.w3.org/1999/xlink"
   xmlns:sodipodi="http://sodipodi.sourceforge.net/DTD/sodipodi-0.dtd"
   xmlns:inkscape="http://www.inkscape.org/namespaces/inkscape"
   width="26"
   height="26"
   id="svg2"
   sodipodi:version="0.32"
   inkscape:version="0.48.1 r9760"
   version="1.0"
   sodipodi:docname="zoom_selection.svg"
   inkscape:output_extension="org.inkscape.output.svg.inkscape">
  <defs
     id="defs4">
    <linearGradient
       id="StandardGradient"
       gradientTransform="scale(1.0003344,0.9996657)"
       x1="10.558969"
       y1="3.0148761"
       x2="10.558969"
       y2="19.285688"
       gradientUnits="userSpaceOnUse">
      <stop
         id="stop3309"
         offset="0"
         style="stop-color:#000000;stop-opacity:0.86274511;" />
      <stop
         style="stop-color:#000000;stop-opacity:0.47058824;"
         offset="1"
         id="stop3311" />
    </linearGradient>
    <linearGradient
       inkscape:collect="always"
       xlink:href="#StandardGradient"
       id="linearGradient3031"
       gradientUnits="userSpaceOnUse"
       gradientTransform="matrix(1.2478294,0,0,1.18389,0.28239592,-4.4878088)"
       x1="10.558969"
       y1="3.0148761"
       x2="10.558969"
       y2="19.285688" />
    <linearGradient
       inkscape:collect="always"
       xlink:href="#StandardGradient"
       id="linearGradient2999"
       gradientUnits="userSpaceOnUse"
       gradientTransform="matrix(1.2548423,0,0,1.2400195,0.14050495,-5.6670931)"
       x1="10.558969"
       y1="3.0148761"
       x2="10.558969"
       y2="19.285688" />
  </defs>
  <sodipodi:namedview
     id="base"
     pagecolor="#ffffff"
     bordercolor="#9a9a9a"
     borderopacity="1"
     inkscape:pageopacity="0.0"
     inkscape:pageshadow="2"
     inkscape:zoom="2.9239975"
     inkscape:cx="37.73557"
     inkscape:cy="-36.499792"
     inkscape:document-units="px"
     inkscape:current-layer="layer3"
     showgrid="true"
     inkscape:showpageshadow="false"
     showguides="true"
     inkscape:guide-bbox="true"
     inkscape:window-width="1600"
     inkscape:window-height="876"
     inkscape:window-x="0"
     inkscape:window-y="24"
     inkscape:window-maximized="1"
     inkscape:snap-to-guides="false"
     inkscape:snap-grids="false">
    <sodipodi:guide
       orientation="1,0"
       position="0,112"
       id="guide2383" />
    <sodipodi:guide
       orientation="0,1"
       position="26.278146,128"
       id="guide2385" />
    <sodipodi:guide
       orientation="1,0"
       position="128,54.082119"
       id="guide2387" />
    <sodipodi:guide
       orientation="0,1"
       position="78.156291,0"
       id="guide2389" />
    <inkscape:grid
       type="xygrid"
       id="grid3672"
       visible="true"
       enabled="true"
       empspacing="5"
       snapvisiblegridlinesonly="true" />
  </sodipodi:namedview>
  <metadata
     id="metadata7">
    <rdf:RDF>
      <cc:Work
         rdf:about="">
        <dc:format>image/svg+xml</dc:format>
        <dc:type
           rdf:resource="http://purl.org/dc/dcmitype/StillImage" />
        <dc:title />
      </cc:Work>
    </rdf:RDF>
  </metadata>
  <g
     inkscape:groupmode="layer"
     id="layer3"
     inkscape:label="Cross"
     style="display:inline"
     transform="translate(0,4)">
    <path
       style="opacity:0.15;fill:#ffffff;fill-opacity:1;stroke:none;display:inline"
       d="m 11.430311,-3.2249884 c -2.272799,2e-7 -4.5578053,0.8632038 -6.2721144,2.55839553 -3.4356178,3.39730547 -3.4356183,8.96827317 0,12.36557787 2.7196488,2.689321 6.8218914,3.24191 10.1137844,1.666833 0.03751,-0.01794 0.0748,-0.05652 0.117602,-0.07753 0.03518,-0.01374 0.107341,-0.02278 0.156804,-0.03877 0.160051,-0.05173 0.349162,-0.103526 0.509608,-0.116291 0.105009,-0.0083 0.144253,-0.0017 0.156803,0 -0.0082,-0.01685 -0.02118,-0.04359 0.0784,0.232581 0.120337,0.333705 0.352186,0.929711 0.862416,1.434252 a 1.3070475,1.2924718 0 0 0 0.0392,0 l 3.998473,3.91512 a 1.3070475,1.2924718 0 0 0 0.0392,0.03877 c 0.0045,0.004 0.01627,0.01902 0.0392,0.03876 0.01797,0.01394 0.03946,0.03893 0.0392,0.03876 -9.4e-5,-6.8e-5 0.04647,0.01938 0.0784,0.03877 0.03013,0.02378 0.04121,0.05064 0.0784,0.07753 0.0065,0.004 0.03923,9e-6 0.0392,0 0.16814,0.119615 0.386998,0.279494 0.705612,0.387635 0.664623,0.225578 1.83589,0.122766 2.587248,-0.620217 0.753587,-0.745171 0.848364,-1.895396 0.627227,-2.558397 -0.221138,-0.663002 -0.542269,-0.960939 -0.54881,-0.96909 a 1.3070475,1.2924718 0 0 0 -0.0784,-0.116291 L 20.83848,11.156296 c -0.501428,-0.495837 -1.083421,-0.73316 -1.411225,-0.852799 -0.288243,-0.105198 -0.249911,-0.124223 -0.235205,-0.116291 -0.0095,-0.0425 -0.02681,-0.120768 0,-0.2713454 0.05055,-0.2840013 0.20669,-0.6004507 0.196004,-0.5814533 -6.46e-4,0.00117 0.0018,-0.042783 0,-0.038763 1.572319,-3.2491642 1.024585,-7.2822472 -1.685628,-9.96223757 -1.71431,-1.69519183 -3.999315,-2.55839553 -6.272115,-2.55839553 z m 0,1.2791978 c 1.926588,0 3.862407,0.7570135 5.331297,2.20952333 2.325743,2.29980727 2.80711,5.71665237 1.450427,8.48922117 -0.04417,0.093233 -0.739321,1.6335001 0,2.3645781 0.448448,0.443446 0.999618,0.290727 1.685631,0.969088 l 3.959272,3.915121 c 0.01308,0.0163 0.900222,0.892941 0,1.783124 -0.896758,0.886757 -1.759277,-0.0047 -1.764032,0 l -3.998473,-3.91512 c -0.686012,-0.678363 -0.531569,-1.262149 -0.980018,-1.705598 -0.6046,-0.597858 -1.740094,-0.255275 -2.19524,-0.07753 -0.07283,0.03782 -0.161419,0.081 -0.235204,0.116291 -2.803837,1.341554 -6.2592143,0.865556 -8.5849572,-1.434251 -2.9377802,-2.9050193 -2.93778,-7.599908 0,-10.50492726 C 7.5679039,-1.1887789 9.5037239,-1.9457926 11.430311,-1.9457927 z m 0,1.89941478 c -3.1159859,0 -5.6449027,2.50071542 -5.6449028,5.58195372 0,3.0812379 2.5289167,5.5819541 5.6449028,5.5819541 3.115987,0 5.644903,-2.5007162 5.644903,-5.5819541 0,-3.0812383 -2.528917,-5.58195394 -5.644903,-5.58195372 z m -1.293623,1.86065132 2.587247,0 0,2.5583954 2.548046,0 0,2.5583954 -2.548046,0 0,2.2870501 -2.587247,0 0,-2.2870501 -2.4696456,0 0,-2.5583954 2.4696456,0 0,-2.5583954 z m -1.2936241,0.3876355 0,0.8915621 -0.8624157,0 C 8.2281095,2.7520729 8.5064679,2.4573947 8.8430639,2.201911 z m 5.1744941,0 c 0.336596,0.2554837 0.614954,0.5501619 0.862416,0.8915621 l -0.862416,0 0,-0.8915621 z m -5.880107,6.008353 0.7056129,0 0,0.6589808 C 8.5812669,8.6705342 8.3466877,8.4622929 8.137451,8.210264 z m 5.880107,0 0.705613,0 c -0.209236,0.2520289 -0.443816,0.4602702 -0.705613,0.6589808 l 0,-0.6589808 z"
       id="path4393"
       inkscape:connector-curvature="0" />
    <path
       style="fill:url(#linearGradient2999);fill-opacity:1;stroke:none;display:inline"
       d="m 11.430311,-1.9457906 c -1.9265871,1e-7 -3.8624071,0.7570137 -5.3312972,2.20952333 -2.93778,2.90501937 -2.9377802,7.59990807 0,10.50492727 2.3257429,2.299807 5.7811202,2.775806 8.5849572,1.434251 0.07379,-0.03531 0.162379,-0.07847 0.235204,-0.116291 0.455146,-0.177748 1.59064,-0.520331 2.19524,0.07753 0.448449,0.443448 0.294006,1.027234 0.980018,1.705597 l 3.998473,3.915121 c 0.0048,-0.0047 0.867274,0.886757 1.764032,0 0.900222,-0.890184 0.01308,-1.766824 0,-1.783125 l -3.959272,-3.915125 c -0.686013,-0.678362 -1.237183,-0.525642 -1.685631,-0.969088 -0.739321,-0.731078 -0.04417,-2.2713486 0,-2.3645782 C 19.568718,5.9803851 19.087351,2.56354 16.761608,0.26373273 15.292718,-1.1887771 13.356899,-1.9457906 11.430311,-1.9457906 z m 0,1.89941478 c 3.115986,-2.2e-7 5.644903,2.50071542 5.644903,5.58195372 0,3.0812379 -2.528916,5.5819541 -5.644903,5.5819541 -3.1159861,0 -5.6449028,-2.5007162 -5.6449028,-5.5819541 1e-7,-3.0812383 2.5289169,-5.58195372 5.6449028,-5.58195372 z"
       id="Symbol"
       inkscape:connector-curvature="0"
       sodipodi:nodetypes="sssccsccscsscsssssss" />
    <path
       style="opacity:0.5;fill:#000000;fill-opacity:1;stroke:none;display:inline"
       d="m 11.430311,-1.9457906 c -1.9265871,1e-7 -3.8624071,0.7570137 -5.3312972,2.20952333 C 4.4871895,1.8575828 3.7861316,3.9980578 3.9429745,6.0782679 4.1036342,4.4219058 4.813735,2.7751128 6.0990138,1.5041669 7.5679039,0.05165731 9.5037239,-0.7053565 11.430311,-0.7053565 c 1.926588,0 3.862407,0.7570137 5.331297,2.2095234 1.293265,1.2788424 2.00228,2.9073039 2.15604,4.574101 C 19.077923,3.9951049 18.375523,1.8596493 16.761608,0.26373273 15.292718,-1.1887771 13.356899,-1.9457906 11.430311,-1.9457906 z M 5.8638095,6.1557949 c -0.023521,0.2067874 -0.078402,0.4072492 -0.078402,0.6202171 0,3.0812387 2.5289169,5.581954 5.6449035,5.581954 3.115987,0 5.644903,-2.5007153 5.644903,-5.581954 0,-0.2129679 -0.05488,-0.4134297 -0.0784,-0.6202171 -0.316787,2.785029 -2.665885,4.9617371 -5.566502,4.9617371 -2.9006169,0 -5.2497143,-2.1767081 -5.5665025,-4.9617371 z M 17.976831,10.76866 c -0.12596,0.525781 -0.188389,1.170434 0.235204,1.589306 0.448448,0.443446 0.999618,0.290726 1.685631,0.969089 l 3.959272,3.915121 c 0.0041,0.0052 0.100009,0.156441 0.196003,0.310109 0.539869,-0.799711 -0.184123,-1.535741 -0.196003,-1.550544 L 19.897666,12.08662 C 19.211653,11.408259 18.660483,11.560978 18.212035,11.117532 18.100115,11.00686 18.030239,10.908585 17.976831,10.76866 z"
       id="BevelShadow"
       inkscape:connector-curvature="0"
       sodipodi:nodetypes="sscssscsscssscsccsscccssc" />
    <path
       style="opacity:0.3;fill:#ffffff;fill-opacity:1;stroke:none;display:inline"
       d="m 14.958376,-1.0542286 c 0.341013,0.17949368 0.66436,0.38673795 0.980018,0.62021706 -0.308316,-0.22976633 -0.647179,-0.44214634 -0.980018,-0.62021706 z m -3.528065,1.00785278 c -3.1159859,0 -5.6449027,2.50071542 -5.6449028,5.58195372 0,0.2129679 0.05488,0.4134297 0.078402,0.620217 0.3167875,-2.785029 2.6658851,-4.9617367 5.5665007,-4.9617367 2.900617,-1e-7 5.249714,2.1767081 5.566502,4.9617367 0.02352,-0.2067873 0.0784,-0.4072491 0.0784,-0.620217 0,-3.0812383 -2.528917,-5.58195394 -5.644903,-5.58195372 z M 6.059813,0.26373273 C 5.5001517,0.81715291 5.0892415,1.4250119 4.7661896,2.0856204 5.1104606,1.4386761 5.54818,0.80842379 6.0990138,0.26373273 c -0.00701,0.006892 -0.03221,-0.006913 -0.0392,0 z M 18.956849,5.7293958 c -0.03028,1.0374903 -0.276797,2.067104 -0.744814,3.0235581 -0.03698,0.078048 -0.509316,1.1943772 -0.235204,1.9769421 0.09181,-0.369173 0.217209,-0.69852 0.235204,-0.7365081 0.60228,-1.2308408 0.730177,-2.5834111 0.744814,-3.91512 0.0012,-0.1168279 0.0028,-0.2318067 0,-0.3488721 z M 3.9037737,5.8456864 c -0.00152,0.07749 0,0.1552642 0,0.2325815 1e-7,0.052643 -0.00508,0.1026337 0,0.1550542 0,2.0802402 0.5834157,4.1819219 2.1952401,5.7757709 2.3257429,2.299808 5.7811202,2.775807 8.5849572,1.434252 0.07379,-0.0353 0.162379,-0.07847 0.235204,-0.11629 0.455146,-0.177748 1.59064,-0.52033 2.19524,0.07753 0.448449,0.443448 0.294006,1.027235 0.980018,1.705597 l 3.998473,3.91512 c 0.0048,-0.0047 0.867274,0.886758 1.764032,0 0.437107,-0.432231 0.392008,-1.138027 0.392008,-1.473014 0,-0.159901 0.0044,-0.264831 0,-0.387637 -0.04321,0.207621 -0.166951,0.397671 -0.392008,0.620218 -0.896758,0.886757 -1.759277,-0.0047 -1.764032,0 l -3.998473,-3.91512 c -0.686012,-0.678364 -0.531569,-1.26215 -0.980018,-1.705598 -0.6046,-0.597859 -1.740094,-0.255275 -2.19524,-0.07753 -0.07283,0.03782 -0.161419,0.081 -0.235204,0.116291 C 11.880134,13.544466 8.4247567,13.068467 6.0990138,10.76866 4.7114775,9.3965969 3.9806218,7.6391372 3.9037737,5.8456864 z m 3.7632687,1.0853799 0,1.2404341 2.4696456,0 0,-1.2404341 -2.4696456,0 z m 5.0568926,0 0,1.2404341 2.548046,0 0,-1.2404341 -2.548046,0 z M 6.1382146,7.318702 C 6.2195902,7.5550531 6.3012759,7.7955174 6.4126195,8.0164463 6.3008047,7.7932821 6.2199278,7.5575612 6.1382146,7.318702 z m 3.9984734,1.8994144 0,1.2404356 2.587247,0 0,-1.2404356 -2.587247,0 z"
       id="BevelHighlight"
       inkscape:connector-curvature="0" />
    <path
       inkscape:connector-curvature="0"
       id="path19-3"
       d="M 14.741227,2.3480642 8.9823602,3.5648955 10.267976,5.0554224 7.8792843,7.1867559 8.9329327,8.6962178 11.321624,6.5648843 l 1.205425,1.53524 2.214332,-5.7518501 z"
       style="fill:#000000;fill-opacity:0.81176471;stroke:#696969;stroke-width:0.6798631;stroke-linejoin:bevel;stroke-opacity:0.81176465" />
  </g>
</svg>
