<svg id="Слой_1" data-name="Слой 1"
  xmlns:cc="http://creativecommons.org/ns#"
  xmlns:rdf="http://www.w3.org/1999/02/22-rdf-syntax-ns#"
  xmlns="http://www.w3.org/2000/svg" viewBox="0 0 26 26">
  <metadata id="metadata43">
    <rdf:RDF>
      <cc:Work rdf:about="">
        <cc:license rdf:resource="http://creativecommons.org/licenses/by/4.0/" />
      </cc:Work>
      <cc:License rdf:about="http://creativecommons.org/licenses/by/4.0/">
        <cc:permits rdf:resource="http://creativecommons.org/ns#Reproduction" />
        <cc:permits rdf:resource="http://creativecommons.org/ns#Distribution" />
        <cc:requires rdf:resource="http://creativecommons.org/ns#Notice" />
        <cc:requires rdf:resource="http://creativecommons.org/ns#Attribution" />
        <cc:permits rdf:resource="http://creativecommons.org/ns#DerivativeWorks" />
      </cc:License>
    </rdf:RDF>
  </metadata>
  <defs>
    <style>.cls-1{fill:#545454;}.cls-2{fill:#b9b9b9;}.cls-3{fill:#1a81c4;}</style>
  </defs>
  <title>zoom_auto_fit_in_page</title>
  <path class="cls-1" d="M24.1416,22.0145a.8719.8719,0,0,1-.6187-.2564l-5.0277-5.0276a.8895.8895,0,0,1,1.2375-1.2375L24.76,20.5207a.8751.8751,0,0,1-.6187,1.4938Z"/>
  <rect class="cls-2" x="9.2459" y="6.2602" width="7.8761" height="7.8761"/>
  <path class="cls-3" d="M9.4232,21.6726H4.01L2.7858,25H1.0024L5.9988,12.08H7.4974L12.4133,25H10.63ZM4.5516,20.2078H8.9L6.77,14.3256H6.7166Z"/>
  <path class="cls-1" d="M19.7742,3.7083A9.2394,9.2394,0,0,0,4.7319,13.8372L5.82,11.0994a7.5885,7.5885,0,0,1-.0535-.86,7.4767,7.4767,0,1,1,4.0232,6.63l.8419,2.2278a9.2354,9.2354,0,0,0,9.1429-15.39Z"/>
</svg>