<svg id="Слой_1" data-name="Слой 1"
  xmlns:cc="http://creativecommons.org/ns#"
  xmlns:rdf="http://www.w3.org/1999/02/22-rdf-syntax-ns#"
  xmlns="http://www.w3.org/2000/svg" viewBox="0 0 26 26">
  <metadata id="metadata43">
    <rdf:RDF>
      <cc:Work rdf:about="">
        <cc:license rdf:resource="http://creativecommons.org/licenses/by/4.0/" />
      </cc:Work>
      <cc:License rdf:about="http://creativecommons.org/licenses/by/4.0/">
        <cc:permits rdf:resource="http://creativecommons.org/ns#Reproduction" />
        <cc:permits rdf:resource="http://creativecommons.org/ns#Distribution" />
        <cc:requires rdf:resource="http://creativecommons.org/ns#Notice" />
        <cc:requires rdf:resource="http://creativecommons.org/ns#Attribution" />
        <cc:permits rdf:resource="http://creativecommons.org/ns#DerivativeWorks" />
      </cc:License>
    </rdf:RDF>
  </metadata>
  <defs>
    <style>.cls-1{fill:#545454;}.cls-2{fill:#b9b9b9;}</style>
  </defs>
  <title>zoom_fit_in_page</title>
  <path class="cls-1" d="M11.5617,22.1075A10.5531,10.5531,0,1,1,19.026,4.0938h0a10.55,10.55,0,0,1-7.4643,18.0137Zm0-19.0879a8.5381,8.5381,0,1,0,6.0412,2.4973A8.5161,8.5161,0,0,0,11.5617,3.02Z"/>
  <path class="cls-1" d="M24.0167,25.0123a.9969.9969,0,0,1-.707-.293l-5.7451-5.7451a1.0164,1.0164,0,0,1,1.414-1.4141l5.7452,5.7451a1,1,0,0,1-.7071,1.7071Z"/>
  <rect class="cls-2" x="6.9955" y="7.0099" width="9" height="9"/>
</svg>