<svg id="Слой_1" data-name="Слой 1"
  xmlns:dc="http://purl.org/dc/elements/1.1/"
  xmlns:cc="http://creativecommons.org/ns#"
  xmlns:rdf="http://www.w3.org/1999/02/22-rdf-syntax-ns#"
  xmlns="http://www.w3.org/2000/svg" viewBox="0 0 26 26">
  <metadata id="metadata43">
    <rdf:RDF>
      <cc:Work rdf:about="">
        <cc:license rdf:resource="http://creativecommons.org/licenses/by-sa/4.0/" />
        <dc:format>image/svg+xml</dc:format>
        <dc:type rdf:resource="http://purl.org/dc/dcmitype/StillImage" />
        <dc:title>add_arc</dc:title>
      </cc:Work>
      <cc:License rdf:about="http://creativecommons.org/licenses/by-sa/4.0/">
        <cc:permits rdf:resource="http://creativecommons.org/ns#Reproduction" />
        <cc:permits rdf:resource="http://creativecommons.org/ns#Distribution" />
        <cc:requires rdf:resource="http://creativecommons.org/ns#Notice" />
        <cc:requires rdf:resource="http://creativecommons.org/ns#Attribution" />
        <cc:permits rdf:resource="http://creativecommons.org/ns#DerivativeWorks" />
        <cc:requires rdf:resource="http://creativecommons.org/ns#ShareAlike" />
      </cc:License>
    </rdf:RDF>
  </metadata>
  <defs>
    <style>.cls-1{fill:#1a81c4;}.cls-2{fill:#545454;}</style>
  </defs>
  <title>zoom_selection</title>
  <polygon class="cls-1" points="12.641 12.633 18.89 10.639 7.278 7.27 10.646 18.883 12.641 12.633"/>
  <path class="cls-2" d="M11.5508,22.0943A10.5531,10.5531,0,1,1,19.0151,4.0806h0a10.55,10.55,0,0,1-7.4643,18.0137Zm0-19.0879A8.5381,8.5381,0,1,0,17.592,5.5037,8.5157,8.5157,0,0,0,11.5508,3.0064Z"/>
  <path class="cls-2" d="M24.0059,24.999a.9968.9968,0,0,1-.7071-.2929l-5.7451-5.7452a1.0164,1.0164,0,0,1,1.4141-1.414l5.7451,5.7451a1,1,0,0,1-.707,1.707Z"/>
</svg>