999
dxfrw 0.5.10
0
SECTION
2
HEADER
9
$ACADVER
1
AC1021
9
$HANDSEED
5
20000
9
$DWGCODEPAGE
3
ANSI_1252
9
$INSBASE
10
0
20
0
30
0
9
$EXTMIN
10
8.01510349296
20
22.3703927791
30
0
9
$EXTMAX
10
160.415103493
20
173.677807569
30
0
9
$LIMMIN
10
0
20
0
9
$LIMMAX
10
210
20
297
9
$ORTHOMODE
70
0
9
$LTSCALE
40
1
9
$TEXTSTYLE
7
Standard
9
$DIMASZ
40
1.8
9
$DIMSCALE
40
1
9
$DIMEXO
40
0.0625
9
$DIMEXE
40
0.18
9
$DIMTXT
40
0.25
9
$DIMTSZ
40
0
9
$DIMAUNIT
70
0
9
$DIMADEC
70
0
9
$DIMLUNIT
70
2
9
$DIMSTYLE
2
Standard
9
$DIMGAP
40
0.09
9
$DIMTIH
70
1
9
$LUNITS
70
2
9
$LUPREC
70
4
9
$AUNITS
70
0
9
$AUPREC
70
0
9
$SPLINESEGS
70
8
9
$GRIDMODE
70
0
9
$SNAPSTYLE
70
0
9
$PINSBASE
10
0
20
0
30
0
9
$PLIMMIN
10
0
20
0
9
$PLIMMAX
10
210
20
297
9
$INSUNITS
70
4
9
$PSVPSCALE
40
0
0
ENDSEC
0
SECTION
2
CLASSES
0
ENDSEC
0
SECTION
2
TABLES
0
TABLE
2
VPORT
5
8
330
0
100
AcDbSymbolTable
70
1
0
VPORT
5
31
330
2
100
AcDbSymbolTableRecord
100
AcDbViewportTableRecord
2
*ACTIVE
70
0
10
0
20
0
11
1
21
1
12
103.477837818
22
82.10741479
13
0
23
0
14
10
24
10
15
10
25
10
16
0
26
0
36
1
17
0
27
0
37
0
40
368.920987002
41
0.976829268293
42
50
43
0
44
0
50
0
51
0
71
0
72
100
73
1
74
3
75
0
76
0
77
0
78
0
281
0
65
1
110
0
120
0
130
0
111
1
121
0
131
0
112
0
122
1
132
0
79
0
146
0
348
10020
60
7
61
5
292
1
282
1
141
0
142
0
63
250
421
3358443
0
ENDTAB
0
TABLE
2
LTYPE
5
5
330
0
100
AcDbSymbolTable
70
4
0
LTYPE
5
14
330
5
100
AcDbSymbolTableRecord
100
AcDbLinetypeTableRecord
2
ByBlock
70
0
3

72
65
73
0
40
0
0
LTYPE
5
15
330
5
100
AcDbSymbolTableRecord
100
AcDbLinetypeTableRecord
2
ByLayer
70
0
3

72
65
73
0
40
0
0
LTYPE
5
16
330
5
100
AcDbSymbolTableRecord
100
AcDbLinetypeTableRecord
2
Continuous
70
0
3
Solid line
72
65
73
0
40
0
0
LTYPE
5
32
330
5
100
AcDbSymbolTableRecord
100
AcDbLinetypeTableRecord
2
DOT
70
0
3
Dot . . . . . . . . . . . . . . . . . . . . . .
72
65
73
2
40
6.35
49
0
74
0
49
-6.35
74
0
0
LTYPE
5
33
330
5
100
AcDbSymbolTableRecord
100
AcDbLinetypeTableRecord
2
DOT2
70
0
3
Dot (.5x) .....................................
72
65
73
2
40
3.175
49
0
74
0
49
-3.175
74
0
0
LTYPE
5
34
330
5
100
AcDbSymbolTableRecord
100
AcDbLinetypeTableRecord
2
DOTX2
70
0
3
Dot (2x) .  .  .  .  .  .  .  .  .  .  .  .  .
72
65
73
2
40
12.7
49
0
74
0
49
-12.7
74
0
0
LTYPE
5
35
330
5
100
AcDbSymbolTableRecord
100
AcDbLinetypeTableRecord
2
DASHED
70
0
3
Dot . . . . . . . . . . . . . . . . . . . . . .
72
65
73
2
40
19.05
49
12.7
74
0
49
-6.35
74
0
0
LTYPE
5
36
330
5
100
AcDbSymbolTableRecord
100
AcDbLinetypeTableRecord
2
DASHED2
70
0
3
Dashed (.5x) _ _ _ _ _ _ _ _ _ _ _ _ _ _ _ _ _
72
65
73
2
40
9.525
49
6.35
74
0
49
-3.175
74
0
0
LTYPE
5
37
330
5
100
AcDbSymbolTableRecord
100
AcDbLinetypeTableRecord
2
DASHEDX2
70
0
3
Dashed (2x) ____  ____  ____  ____  ____  ___
72
65
73
2
40
38.1
49
25.4
74
0
49
-12.7
74
0
0
LTYPE
5
38
330
5
100
AcDbSymbolTableRecord
100
AcDbLinetypeTableRecord
2
DASHDOT
70
0
3
Dash dot __ . __ . __ . __ . __ . __ . __ . __
72
65
73
4
40
25.4
49
12.7
74
0
49
-6.35
74
0
49
0
74
0
49
-6.35
74
0
0
LTYPE
5
39
330
5
100
AcDbSymbolTableRecord
100
AcDbLinetypeTableRecord
2
DASHDOT2
70
0
3
Dash dot (.5x) _._._._._._._._._._._._._._._.
72
65
73
4
40
12.7
49
6.35
74
0
49
-3.175
74
0
49
0
74
0
49
-3.175
74
0
0
LTYPE
5
3A
330
5
100
AcDbSymbolTableRecord
100
AcDbLinetypeTableRecord
2
DASHDOTX2
70
0
3
Dash dot (2x) ____  .  ____  .  ____  .  ___
72
65
73
4
40
50.8
49
25.4
74
0
49
-12.7
74
0
49
0
74
0
49
-12.7
74
0
0
LTYPE
5
3B
330
5
100
AcDbSymbolTableRecord
100
AcDbLinetypeTableRecord
2
DIVIDE
70
0
3
Divide ____ . . ____ . . ____ . . ____ . . ____
72
65
73
6
40
31.75
49
12.7
74
0
49
-6.35
74
0
49
0
74
0
49
-6.35
74
0
49
0
74
0
49
-6.35
74
0
0
LTYPE
5
3C
330
5
100
AcDbSymbolTableRecord
100
AcDbLinetypeTableRecord
2
DIVIDE2
70
0
3
Divide (.5x) __..__..__..__..__..__..__..__.._
72
65
73
6
40
15.875
49
6.35
74
0
49
-3.175
74
0
49
0
74
0
49
-3.175
74
0
49
0
74
0
49
-3.175
74
0
0
LTYPE
5
3D
330
5
100
AcDbSymbolTableRecord
100
AcDbLinetypeTableRecord
2
DIVIDEX2
70
0
3
Divide (2x) ________  .  .  ________  .  .  _
72
65
73
6
40
63.5
49
25.4
74
0
49
-12.7
74
0
49
0
74
0
49
-12.7
74
0
49
0
74
0
49
-12.7
74
0
0
LTYPE
5
3E
330
5
100
AcDbSymbolTableRecord
100
AcDbLinetypeTableRecord
2
BORDER
70
0
3
Border __ __ . __ __ . __ __ . __ __ . __ __ .
72
65
73
6
40
44.45
49
12.7
74
0
49
-6.35
74
0
49
12.7
74
0
49
-6.35
74
0
49
0
74
0
49
-6.35
74
0
0
LTYPE
5
3F
330
5
100
AcDbSymbolTableRecord
100
AcDbLinetypeTableRecord
2
BORDER2
70
0
3
Border (.5x) __.__.__.__.__.__.__.__.__.__.__.
72
65
73
6
40
22.225
49
6.35
74
0
49
-3.175
74
0
49
6.35
74
0
49
-3.175
74
0
49
0
74
0
49
-3.175
74
0
0
LTYPE
5
40
330
5
100
AcDbSymbolTableRecord
100
AcDbLinetypeTableRecord
2
BORDERX2
70
0
3
Border (2x) ____  ____  .  ____  ____  .  ___
72
65
73
6
40
88.9
49
25.4
74
0
49
-12.7
74
0
49
25.4
74
0
49
-12.7
74
0
49
0
74
0
49
-12.7
74
0
0
LTYPE
5
41
330
5
100
AcDbSymbolTableRecord
100
AcDbLinetypeTableRecord
2
CENTER
70
0
3
Center ____ _ ____ _ ____ _ ____ _ ____ _ ____
72
65
73
4
40
50.8
49
31.75
74
0
49
-6.35
74
0
49
6.35
74
0
49
-6.35
74
0
0
LTYPE
5
42
330
5
100
AcDbSymbolTableRecord
100
AcDbLinetypeTableRecord
2
CENTER2
70
0
3
Center (.5x) ___ _ ___ _ ___ _ ___ _ ___ _ ___
72
65
73
4
40
28.575
49
19.05
74
0
49
-3.175
74
0
49
3.175
74
0
49
-3.175
74
0
0
LTYPE
5
43
330
5
100
AcDbSymbolTableRecord
100
AcDbLinetypeTableRecord
2
CENTERX2
70
0
3
Center (2x) ________  __  ________  __  _____
72
65
73
4
40
101.6
49
63.5
74
0
49
-12.7
74
0
49
12.7
74
0
49
-12.7
74
0
0
ENDTAB
0
TABLE
2
LAYER
5
2
330
0
100
AcDbSymbolTable
70
1
0
LAYER
5
10
330
2
100
AcDbSymbolTableRecord
100
AcDbLayerTableRecord
2
0
70
0
62
7
6
CONTINUOUS
370
-3
390
F
0
LAYER
5
44
330
2
100
AcDbSymbolTableRecord
100
AcDbLayerTableRecord
2
Visible Edges(PEC)
70
0
62
7
6
CONTINUOUS
370
50
390
F
0
ENDTAB
0
TABLE
2
STYLE
5
3
330
0
100
AcDbSymbolTable
70
3
0
STYLE
5
45
330
2
100
AcDbSymbolTableRecord
100
AcDbTextStyleTableRecord
2
Standard
70
0
40
0
41
1
50
0
71
0
42
1
3
txt
4

0
ENDTAB
0
TABLE
2
VIEW
5
6
330
0
100
AcDbSymbolTable
70
0
0
ENDTAB
0
TABLE
2
UCS
5
7
330
0
100
AcDbSymbolTable
70
0
0
ENDTAB
0
TABLE
2
APPID
5
9
330
0
100
AcDbSymbolTable
70
1
0
APPID
5
12
330
9
100
AcDbSymbolTableRecord
100
AcDbRegAppTableRecord
2
ACAD
70
0
0
ENDTAB
0
TABLE
2
DIMSTYLE
5
A
330
0
100
AcDbSymbolTable
70
1
100
AcDbDimStyleTable
71
1
0
DIMSTYLE
105
46
330
A
100
AcDbSymbolTableRecord
100
AcDbDimStyleTableRecord
2
Standard
70
0
40
1
41
1.8
42
0.0625
43
0.38
44
0.18
45
0
46
0
47
0
48
0
140
0.25
141
0.09
142
0
143
25.4
144
1
145
0
146
1
147
0.09
148
0
71
0
72
0
73
0
74
1
75
0
76
0
77
0
78
0
79
0
170
0
171
2
172
0
173
0
174
0
175
0
176
0
177
0
178
0
179
0
271
4
272
4
273
2
274
2
275
0
276
0
277
2
278
46
279
0
280
0
281
0
282
0
283
1
284
0
285
0
286
0
288
0
289
3
340
Standard
341

371
-2
372
-2
0
ENDTAB
0
TABLE
2
BLOCK_RECORD
5
1
330
0
100
AcDbSymbolTable
70
2
0
BLOCK_RECORD
5
1F
330
1
100
AcDbSymbolTableRecord
100
AcDbBlockTableRecord
2
*Model_Space
70
0
280
1
281
0
0
BLOCK_RECORD
5
1E
330
1
100
AcDbSymbolTableRecord
100
AcDbBlockTableRecord
2
*Paper_Space
70
0
280
1
281
0
0
ENDTAB
0
ENDSEC
0
SECTION
2
BLOCKS
0
BLOCK
5
20
330
1F
100
AcDbEntity
8
0
100
AcDbBlockBegin
2
*Model_Space
70
0
10
0
20
0
30
0
3
*Model_Space
1

0
ENDBLK
5
21
330
1F
100
AcDbEntity
8
0
100
AcDbBlockEnd
0
BLOCK
5
1C
330
1B
100
AcDbEntity
8
0
100
AcDbBlockBegin
2
*Paper_Space
70
0
10
0
20
0
30
0
3
*Paper_Space
1

0
ENDBLK
5
1D
330
1F
100
AcDbEntity
8
0
100
AcDbBlockEnd
0
ENDSEC
0
SECTION
2
ENTITIES
0
LINE
5
47
100
AcDbEntity
8
Visible Edges(PEC)
6
ByLayer
62
256
370
-1
100
AcDbLine
10
54.0015095768
20
145.07427149
11
57.9407405889
21
144.379678779
0
LINE
5
48
100
AcDbEntity
8
Visible Edges(PEC)
6
ByLayer
62
256
370
-1
100
AcDbLine
10
57.9407405889
20
144.379678779
11
55.9264217279
21
132.955908844
0
LINE
5
49
100
AcDbEntity
8
Visible Edges(PEC)
6
ByLayer
62
256
370
-1
100
AcDbLine
10
55.9264217279
20
132.955908844
11
51.9871907159
21
133.650501555
0
CIRCLE
5
4A
100
AcDbEntity
8
Visible Edges(PEC)
6
ByLayer
62
256
370
-1
100
AcDbCircle
10
76.6151034931
20
128.870392779
40
2
0
CIRCLE
5
4B
100
AcDbEntity
8
Visible Edges(PEC)
6
ByLayer
62
256
370
-1
100
AcDbCircle
10
62.3755750957
20
142.867767753
40
1.6
0
CIRCLE
5
4C
100
AcDbEntity
8
Visible Edges(PEC)
6
ByLayer
62
256
370
-1
100
AcDbCircle
10
60.6112785469
20
132.861944812
40
1.6
0
CIRCLE
5
4D
100
AcDbEntity
8
Visible Edges(PEC)
6
ByLayer
62
256
370
-1
100
AcDbCircle
10
76.9279747741
20
141.354399538
40
1.1
0
CIRCLE
5
4E
100
AcDbEntity
8
Visible Edges(PEC)
6
ByLayer
62
256
370
-1
100
AcDbCircle
10
28.165103493
20
25.4703927791
40
0.7
0
CIRCLE
5
4F
100
AcDbEntity
8
Visible Edges(PEC)
6
ByLayer
62
256
370
-1
100
AcDbCircle
10
44.265103493
20
25.4703927791
40
0.7
0
CIRCLE
5
50
100
AcDbEntity
8
Visible Edges(PEC)
6
ByLayer
62
256
370
-1
100
AcDbCircle
10
36.965103493
20
25.4703927791
40
0.7
0
ARC
5
51
100
AcDbEntity
8
Visible Edges(PEC)
6
ByLayer
62
256
370
-1
100
AcDbCircle
10
78.5610437151
20
131.847953136
40
0.4
100
AcDbArc
50
85.34
51
265.34
0
LINE
5
52
100
AcDbEntity
8
Visible Edges(PEC)
6
ByLayer
62
256
370
-1
100
AcDbLine
10
78.5935407971
20
132.246630875
11
79.4905657101
21
132.173512441
0
ARC
5
53
100
AcDbEntity
8
Visible Edges(PEC)
6
ByLayer
62
256
370
-1
100
AcDbCircle
10
79.4580686281
20
131.774834702
40
0.4
100
AcDbArc
50
265.34
51
85.34
0
LINE
5
54
100
AcDbEntity
8
Visible Edges(PEC)
6
ByLayer
62
256
370
-1
100
AcDbLine
10
79.4255715461
20
131.376156963
11
78.5285466331
21
131.449275397
0
LINE
5
55
100
AcDbEntity
8
Visible Edges(PEC)
6
ByLayer
62
256
370
-1
100
AcDbLine
10
79.1866125401
20
139.522499614
11
80.0836374531
21
139.44938118
0
ARC
5
56
100
AcDbEntity
8
Visible Edges(PEC)
6
ByLayer
62
256
370
-1
100
AcDbCircle
10
80.0511403711
20
139.050703441
40
0.4
100
AcDbArc
50
265.34
51
85.34
0
LINE
5
57
100
AcDbEntity
8
Visible Edges(PEC)
6
ByLayer
62
256
370
-1
100
AcDbLine
10
80.0186432901
20
138.652025702
11
79.1216183771
21
138.725144136
0
ARC
5
58
100
AcDbEntity
8
Visible Edges(PEC)
6
ByLayer
62
256
370
-1
100
AcDbCircle
10
79.1541154581
20
139.123821875
40
0.4
100
AcDbArc
50
85.34
51
265.34
0
ARC
5
59
100
AcDbEntity
8
Visible Edges(PEC)
6
ByLayer
62
256
370
-1
100
AcDbCircle
10
73.8716354151
20
139.554408209
40
0.4
100
AcDbArc
50
85.34
51
265.34
0
LINE
5
5A
100
AcDbEntity
8
Visible Edges(PEC)
6
ByLayer
62
256
370
-1
100
AcDbLine
10
73.9041324969
20
139.953085949
11
74.8011574099
21
139.879967514
0
ARC
5
5B
100
AcDbEntity
8
Visible Edges(PEC)
6
ByLayer
62
256
370
-1
100
AcDbCircle
10
74.7686603281
20
139.481289775
40
0.4
100
AcDbArc
50
265.34
51
85.34
0
LINE
5
5C
100
AcDbEntity
8
Visible Edges(PEC)
6
ByLayer
62
256
370
-1
100
AcDbLine
10
74.7361632463
20
139.082612036
11
73.8391383333
21
139.15573047
0
ARC
5
5D
100
AcDbEntity
8
Visible Edges(PEC)
6
ByLayer
62
256
370
-1
100
AcDbCircle
10
73.2785636718
20
132.27853947
40
0.4
100
AcDbArc
50
85.34
51
265.34
0
LINE
5
5E
100
AcDbEntity
8
Visible Edges(PEC)
6
ByLayer
62
256
370
-1
100
AcDbLine
10
73.3110607536
20
132.67721721
11
74.2080856666
21
132.604098775
0
ARC
5
5F
100
AcDbEntity
8
Visible Edges(PEC)
6
ByLayer
62
256
370
-1
100
AcDbCircle
10
74.1755885848
20
132.205421036
40
0.4
100
AcDbArc
50
265.34
51
85.34
0
LINE
5
60
100
AcDbEntity
8
Visible Edges(PEC)
6
ByLayer
62
256
370
-1
100
AcDbLine
10
74.143091503
20
131.806743297
11
73.2460665899
21
131.879861731
0
LINE
5
61
100
AcDbEntity
8
Visible Edges(PEC)
6
ByLayer
62
256
370
-1
100
AcDbLine
10
56.8197279711
20
132.003859741
11
57.9030164994
21
131.812846746
0
ARC
5
62
100
AcDbEntity
8
Visible Edges(PEC)
6
ByLayer
62
256
370
-1
100
AcDbCircle
10
57.8509220461
20
131.51740442
40
0.3
100
AcDbArc
50
260
51
80
0
LINE
5
63
100
AcDbEntity
8
Visible Edges(PEC)
6
ByLayer
62
256
370
-1
100
AcDbLine
10
57.7988275928
20
131.221962094
11
56.7155390645
21
131.412975089
0
ARC
5
64
100
AcDbEntity
8
Visible Edges(PEC)
6
ByLayer
62
256
370
-1
100
AcDbCircle
10
56.7676335178
20
131.708417415
40
0.3
100
AcDbArc
50
80
51
260
0
LINE
5
65
100
AcDbEntity
8
Visible Edges(PEC)
6
ByLayer
62
256
370
-1
100
AcDbLine
10
59.2022229169
20
145.515660013
11
60.2855114452
21
145.324647017
0
ARC
5
66
100
AcDbEntity
8
Visible Edges(PEC)
6
ByLayer
62
256
370
-1
100
AcDbCircle
10
60.2334169919
20
145.029204691
40
0.3
100
AcDbArc
50
260
51
80
0
LINE
5
67
100
AcDbEntity
8
Visible Edges(PEC)
6
ByLayer
62
256
370
-1
100
AcDbLine
10
60.1813225386
20
144.733762365
11
59.0980340103
21
144.924775361
0
ARC
5
68
100
AcDbEntity
8
Visible Edges(PEC)
6
ByLayer
62
256
370
-1
100
AcDbCircle
10
59.1501284636
20
145.220217687
40
0.3
100
AcDbArc
50
80
51
260
0
CIRCLE
5
69
100
AcDbEntity
8
Visible Edges(PEC)
6
ByLayer
62
256
370
-1
100
AcDbCircle
10
17.415103493
20
33.7103927791
40
0.5
0
CIRCLE
5
6A
100
AcDbEntity
8
Visible Edges(PEC)
6
ByLayer
62
256
370
-1
100
AcDbCircle
10
17.415103493
20
36.2503927791
40
0.5
0
CIRCLE
5
6B
100
AcDbEntity
8
Visible Edges(PEC)
6
ByLayer
62
256
370
-1
100
AcDbCircle
10
17.415103493
20
38.7903927791
40
0.5
0
CIRCLE
5
6C
100
AcDbEntity
8
Visible Edges(PEC)
6
ByLayer
62
256
370
-1
100
AcDbCircle
10
17.415103493
20
41.3303927791
40
0.5
0
CIRCLE
5
6D
100
AcDbEntity
8
Visible Edges(PEC)
6
ByLayer
62
256
370
-1
100
AcDbCircle
10
76.1591754285
20
137.461644322
40
0.45
0
CIRCLE
5
6E
100
AcDbEntity
8
Visible Edges(PEC)
6
ByLayer
62
256
370
-1
100
AcDbCircle
10
75.8748259626
20
133.973214105
40
0.45
0
CIRCLE
5
6F
100
AcDbEntity
8
Visible Edges(PEC)
6
ByLayer
62
256
370
-1
100
AcDbCircle
10
68.0851733401
20
138.680315907
40
0.45
0
CIRCLE
5
70
100
AcDbEntity
8
Visible Edges(PEC)
6
ByLayer
62
256
370
-1
100
AcDbCircle
10
67.6440992029
20
136.178860171
40
0.45
0
CIRCLE
5
71
100
AcDbEntity
8
Visible Edges(PEC)
6
ByLayer
62
256
370
-1
100
AcDbCircle
10
70.3686653354
20
137.003365518
40
0.45
0
CIRCLE
5
72
100
AcDbEntity
8
Visible Edges(PEC)
6
ByLayer
62
256
370
-1
100
AcDbCircle
10
69.9275911982
20
134.501909782
40
0.45
0
LINE
5
73
100
AcDbEntity
8
Visible Edges(PEC)
6
ByLayer
62
256
370
-1
100
AcDbLine
10
54.388745013
20
147.270392779
11
54.0015095768
21
145.07427149
0
LINE
5
74
100
AcDbEntity
8
Visible Edges(PEC)
6
ByLayer
62
256
370
-1
100
AcDbLine
10
51.9871907159
20
133.650501555
11
50.7387765123
21
126.570392779
0
LINE
5
75
100
AcDbEntity
8
Visible Edges(PEC)
6
ByLayer
62
256
370
-1
100
AcDbLine
10
26.115103493
20
28.5703927791
11
26.115103493
21
22.3703927791
0
LINE
5
76
100
AcDbEntity
8
Visible Edges(PEC)
6
ByLayer
62
256
370
-1
100
AcDbLine
10
26.115103493
20
22.3703927791
11
46.315103493
21
22.3703927791
0
LINE
5
77
100
AcDbEntity
8
Visible Edges(PEC)
6
ByLayer
62
256
370
-1
100
AcDbLine
10
46.315103493
20
22.3703927791
11
46.315103493
21
28.5703927791
0
LINE
5
78
100
AcDbEntity
8
Visible Edges(PEC)
6
ByLayer
62
256
370
-1
100
AcDbLine
10
80.1469013801
20
126.070392779
11
81.4988185711
21
142.655860116
0
LINE
5
79
100
AcDbEntity
8
Visible Edges(PEC)
6
ByLayer
62
256
370
-1
100
AcDbLine
10
54.388745013
20
147.270392779
11
81.4988185711
21
142.655860116
0
CIRCLE
5
7A
100
AcDbEntity
8
Visible Edges(PEC)
6
ByLayer
62
256
370
-1
100
AcDbCircle
10
38.615103493
20
36.0703927791
40
0.75
0
CIRCLE
5
7B
100
AcDbEntity
8
Visible Edges(PEC)
6
ByLayer
62
256
370
-1
100
AcDbCircle
10
31.115103493
20
33.8203927791
40
0.75
0
CIRCLE
5
7C
100
AcDbEntity
8
Visible Edges(PEC)
6
ByLayer
62
256
370
-1
100
AcDbCircle
10
141.915103493
20
109.820392779
40
0.75
0
CIRCLE
5
7D
100
AcDbEntity
8
Visible Edges(PEC)
6
ByLayer
62
256
370
-1
100
AcDbCircle
10
149.415103493
20
112.070392779
40
0.75
0
CIRCLE
5
7E
100
AcDbEntity
8
Visible Edges(PEC)
6
ByLayer
62
256
370
-1
100
AcDbCircle
10
139.665103493
20
71.8203927791
40
0.75
0
CIRCLE
5
7F
100
AcDbEntity
8
Visible Edges(PEC)
6
ByLayer
62
256
370
-1
100
AcDbCircle
10
147.165103493
20
74.0703927791
40
0.75
0
CIRCLE
5
80
100
AcDbEntity
8
Visible Edges(PEC)
6
ByLayer
62
256
370
-1
100
AcDbCircle
10
135.165103493
20
52.8203927791
40
0.75
0
CIRCLE
5
81
100
AcDbEntity
8
Visible Edges(PEC)
6
ByLayer
62
256
370
-1
100
AcDbCircle
10
142.665103493
20
55.0703927791
40
0.75
0
CIRCLE
5
82
100
AcDbEntity
8
Visible Edges(PEC)
6
ByLayer
62
256
370
-1
100
AcDbCircle
10
137.415103493
20
33.8203927791
40
0.75
0
CIRCLE
5
83
100
AcDbEntity
8
Visible Edges(PEC)
6
ByLayer
62
256
370
-1
100
AcDbCircle
10
144.915103493
20
36.0703927791
40
0.75
0
CIRCLE
5
84
100
AcDbEntity
8
Visible Edges(PEC)
6
ByLayer
62
256
370
-1
100
AcDbCircle
10
114.765103493
20
36.0703927791
40
0.75
0
CIRCLE
5
85
100
AcDbEntity
8
Visible Edges(PEC)
6
ByLayer
62
256
370
-1
100
AcDbCircle
10
107.265103493
20
33.8203927791
40
0.75
0
CIRCLE
5
86
100
AcDbEntity
8
Visible Edges(PEC)
6
ByLayer
62
256
370
-1
100
AcDbCircle
10
91.3651034931
20
36.0703927791
40
0.75
0
CIRCLE
5
87
100
AcDbEntity
8
Visible Edges(PEC)
6
ByLayer
62
256
370
-1
100
AcDbCircle
10
83.8651034931
20
33.8203927791
40
0.75
0
CIRCLE
5
88
100
AcDbEntity
8
Visible Edges(PEC)
6
ByLayer
62
256
370
-1
100
AcDbCircle
10
67.965103493
20
36.0703927791
40
0.75
0
CIRCLE
5
89
100
AcDbEntity
8
Visible Edges(PEC)
6
ByLayer
62
256
370
-1
100
AcDbCircle
10
60.465103493
20
33.8203927791
40
0.75
0
CIRCLE
5
8A
100
AcDbEntity
8
Visible Edges(PEC)
6
ByLayer
62
256
370
-1
100
AcDbCircle
10
104.715103493
20
52.8203927791
40
0.75
0
CIRCLE
5
8B
100
AcDbEntity
8
Visible Edges(PEC)
6
ByLayer
62
256
370
-1
100
AcDbCircle
10
112.215103493
20
55.0703927791
40
0.75
0
CIRCLE
5
8C
100
AcDbEntity
8
Visible Edges(PEC)
6
ByLayer
62
256
370
-1
100
AcDbCircle
10
85.5151034931
20
52.8203927791
40
0.75
0
CIRCLE
5
8D
100
AcDbEntity
8
Visible Edges(PEC)
6
ByLayer
62
256
370
-1
100
AcDbCircle
10
93.0151034931
20
55.0703927791
40
0.75
0
CIRCLE
5
8E
100
AcDbEntity
8
Visible Edges(PEC)
6
ByLayer
62
256
370
-1
100
AcDbCircle
10
66.315103493
20
52.8203927791
40
0.75
0
CIRCLE
5
8F
100
AcDbEntity
8
Visible Edges(PEC)
6
ByLayer
62
256
370
-1
100
AcDbCircle
10
73.815103493
20
55.0703927791
40
0.75
0
CIRCLE
5
90
100
AcDbEntity
8
Visible Edges(PEC)
6
ByLayer
62
256
370
-1
100
AcDbCircle
10
47.115103493
20
52.8203927791
40
0.75
0
CIRCLE
5
91
100
AcDbEntity
8
Visible Edges(PEC)
6
ByLayer
62
256
370
-1
100
AcDbCircle
10
54.615103493
20
55.0703927791
40
0.75
0
CIRCLE
5
92
100
AcDbEntity
8
Visible Edges(PEC)
6
ByLayer
62
256
370
-1
100
AcDbCircle
10
35.415103493
20
55.0703927791
40
0.75
0
CIRCLE
5
93
100
AcDbEntity
8
Visible Edges(PEC)
6
ByLayer
62
256
370
-1
100
AcDbCircle
10
27.915103493
20
52.8203927791
40
0.75
0
CIRCLE
5
94
100
AcDbEntity
8
Visible Edges(PEC)
6
ByLayer
62
256
370
-1
100
AcDbCircle
10
121.325103493
20
74.0703927791
40
0.75
0
CIRCLE
5
95
100
AcDbEntity
8
Visible Edges(PEC)
6
ByLayer
62
256
370
-1
100
AcDbCircle
10
113.825103493
20
71.8203927791
40
0.75
0
CIRCLE
5
96
100
AcDbEntity
8
Visible Edges(PEC)
6
ByLayer
62
256
370
-1
100
AcDbCircle
10
102.235103493
20
74.0703927791
40
0.75
0
CIRCLE
5
97
100
AcDbEntity
8
Visible Edges(PEC)
6
ByLayer
62
256
370
-1
100
AcDbCircle
10
94.7351034931
20
71.8203927791
40
0.75
0
CIRCLE
5
98
100
AcDbEntity
8
Visible Edges(PEC)
6
ByLayer
62
256
370
-1
100
AcDbCircle
10
83.1451034931
20
74.0703927791
40
0.75
0
CIRCLE
5
99
100
AcDbEntity
8
Visible Edges(PEC)
6
ByLayer
62
256
370
-1
100
AcDbCircle
10
75.645103493
20
71.8203927791
40
0.75
0
CIRCLE
5
9A
100
AcDbEntity
8
Visible Edges(PEC)
6
ByLayer
62
256
370
-1
100
AcDbCircle
10
64.055103493
20
74.0703927791
40
0.75
0
CIRCLE
5
9B
100
AcDbEntity
8
Visible Edges(PEC)
6
ByLayer
62
256
370
-1
100
AcDbCircle
10
56.555103493
20
71.8203927791
40
0.75
0
CIRCLE
5
9C
100
AcDbEntity
8
Visible Edges(PEC)
6
ByLayer
62
256
370
-1
100
AcDbCircle
10
44.965103493
20
74.0703927791
40
0.75
0
CIRCLE
5
9D
100
AcDbEntity
8
Visible Edges(PEC)
6
ByLayer
62
256
370
-1
100
AcDbCircle
10
37.465103493
20
71.8203927791
40
0.75
0
CIRCLE
5
9E
100
AcDbEntity
8
Visible Edges(PEC)
6
ByLayer
62
256
370
-1
100
AcDbCircle
10
18.375103493
20
71.8203927791
40
0.75
0
CIRCLE
5
9F
100
AcDbEntity
8
Visible Edges(PEC)
6
ByLayer
62
256
370
-1
100
AcDbCircle
10
25.875103493
20
74.0703927791
40
0.75
0
CIRCLE
5
A0
100
AcDbEntity
8
Visible Edges(PEC)
6
ByLayer
62
256
370
-1
100
AcDbCircle
10
146.415103493
20
90.8203927791
40
0.75
0
CIRCLE
5
A1
100
AcDbEntity
8
Visible Edges(PEC)
6
ByLayer
62
256
370
-1
100
AcDbCircle
10
153.915103493
20
93.0703927791
40
0.75
0
CIRCLE
5
A2
100
AcDbEntity
8
Visible Edges(PEC)
6
ByLayer
62
256
370
-1
100
AcDbCircle
10
127.415103493
20
90.8203927791
40
0.75
0
CIRCLE
5
A3
100
AcDbEntity
8
Visible Edges(PEC)
6
ByLayer
62
256
370
-1
100
AcDbCircle
10
134.915103493
20
93.0703927791
40
0.75
0
CIRCLE
5
A4
100
AcDbEntity
8
Visible Edges(PEC)
6
ByLayer
62
256
370
-1
100
AcDbCircle
10
108.415103493
20
90.8203927791
40
0.75
0
CIRCLE
5
A5
100
AcDbEntity
8
Visible Edges(PEC)
6
ByLayer
62
256
370
-1
100
AcDbCircle
10
115.915103493
20
93.0703927791
40
0.75
0
CIRCLE
5
A6
100
AcDbEntity
8
Visible Edges(PEC)
6
ByLayer
62
256
370
-1
100
AcDbCircle
10
89.4151034931
20
90.8203927791
40
0.75
0
CIRCLE
5
A7
100
AcDbEntity
8
Visible Edges(PEC)
6
ByLayer
62
256
370
-1
100
AcDbCircle
10
96.9151034931
20
93.0703927791
40
0.75
0
CIRCLE
5
A8
100
AcDbEntity
8
Visible Edges(PEC)
6
ByLayer
62
256
370
-1
100
AcDbCircle
10
70.415103493
20
90.8203927791
40
0.75
0
CIRCLE
5
A9
100
AcDbEntity
8
Visible Edges(PEC)
6
ByLayer
62
256
370
-1
100
AcDbCircle
10
77.9151034931
20
93.0703927791
40
0.75
0
CIRCLE
5
AA
100
AcDbEntity
8
Visible Edges(PEC)
6
ByLayer
62
256
370
-1
100
AcDbCircle
10
58.915103493
20
93.0703927791
40
0.75
0
CIRCLE
5
AB
100
AcDbEntity
8
Visible Edges(PEC)
6
ByLayer
62
256
370
-1
100
AcDbCircle
10
32.415103493
20
90.8203927791
40
0.75
0
CIRCLE
5
AC
100
AcDbEntity
8
Visible Edges(PEC)
6
ByLayer
62
256
370
-1
100
AcDbCircle
10
39.915103493
20
93.0703927791
40
0.75
0
CIRCLE
5
AD
100
AcDbEntity
8
Visible Edges(PEC)
6
ByLayer
62
256
370
-1
100
AcDbCircle
10
13.415103493
20
90.8203927791
40
0.75
0
CIRCLE
5
AE
100
AcDbEntity
8
Visible Edges(PEC)
6
ByLayer
62
256
370
-1
100
AcDbCircle
10
20.915103493
20
93.0703927791
40
0.75
0
CIRCLE
5
AF
100
AcDbEntity
8
Visible Edges(PEC)
6
ByLayer
62
256
370
-1
100
AcDbCircle
10
118.415103493
20
109.820392779
40
0.75
0
CIRCLE
5
B0
100
AcDbEntity
8
Visible Edges(PEC)
6
ByLayer
62
256
370
-1
100
AcDbCircle
10
125.915103493
20
112.070392779
40
0.75
0
CIRCLE
5
B1
100
AcDbEntity
8
Visible Edges(PEC)
6
ByLayer
62
256
370
-1
100
AcDbCircle
10
99.4151034931
20
109.820392779
40
0.75
0
CIRCLE
5
B2
100
AcDbEntity
8
Visible Edges(PEC)
6
ByLayer
62
256
370
-1
100
AcDbCircle
10
106.915103493
20
112.070392779
40
0.75
0
CIRCLE
5
B3
100
AcDbEntity
8
Visible Edges(PEC)
6
ByLayer
62
256
370
-1
100
AcDbCircle
10
80.4151034931
20
109.820392779
40
0.75
0
CIRCLE
5
B4
100
AcDbEntity
8
Visible Edges(PEC)
6
ByLayer
62
256
370
-1
100
AcDbCircle
10
87.9151034931
20
112.070392779
40
0.75
0
CIRCLE
5
B5
100
AcDbEntity
8
Visible Edges(PEC)
6
ByLayer
62
256
370
-1
100
AcDbCircle
10
61.415103493
20
109.820392779
40
0.75
0
CIRCLE
5
B6
100
AcDbEntity
8
Visible Edges(PEC)
6
ByLayer
62
256
370
-1
100
AcDbCircle
10
68.915103493
20
112.070392779
40
0.75
0
CIRCLE
5
B7
100
AcDbEntity
8
Visible Edges(PEC)
6
ByLayer
62
256
370
-1
100
AcDbCircle
10
42.415103493
20
109.820392779
40
0.75
0
CIRCLE
5
B8
100
AcDbEntity
8
Visible Edges(PEC)
6
ByLayer
62
256
370
-1
100
AcDbCircle
10
49.915103493
20
112.070392779
40
0.75
0
CIRCLE
5
B9
100
AcDbEntity
8
Visible Edges(PEC)
6
ByLayer
62
256
370
-1
100
AcDbCircle
10
23.415103493
20
109.820392779
40
0.75
0
CIRCLE
5
BA
100
AcDbEntity
8
Visible Edges(PEC)
6
ByLayer
62
256
370
-1
100
AcDbCircle
10
30.915103493
20
112.070392779
40
0.75
0
LINE
5
BB
100
AcDbEntity
8
Visible Edges(PEC)
6
ByLayer
62
256
370
-1
100
AcDbLine
10
19.215103493
20
114.070392779
11
19.215103493
21
110.070392779
0
LINE
5
BC
100
AcDbEntity
8
Visible Edges(PEC)
6
ByLayer
62
256
370
-1
100
AcDbLine
10
19.215103493
20
110.070392779
11
17.915103493
21
110.070392779
0
LINE
5
BD
100
AcDbEntity
8
Visible Edges(PEC)
6
ByLayer
62
256
370
-1
100
AcDbLine
10
17.915103493
20
114.070392779
11
19.215103493
21
114.070392779
0
LINE
5
BE
100
AcDbEntity
8
Visible Edges(PEC)
6
ByLayer
62
256
370
-1
100
AcDbLine
10
19.215103493
20
122.070392779
11
19.215103493
21
118.070392779
0
LINE
5
BF
100
AcDbEntity
8
Visible Edges(PEC)
6
ByLayer
62
256
370
-1
100
AcDbLine
10
19.215103493
20
118.070392779
11
17.915103493
21
118.070392779
0
LINE
5
C0
100
AcDbEntity
8
Visible Edges(PEC)
6
ByLayer
62
256
370
-1
100
AcDbLine
10
17.915103493
20
122.070392779
11
19.215103493
21
122.070392779
0
LINE
5
C1
100
AcDbEntity
8
Visible Edges(PEC)
6
ByLayer
62
256
370
-1
100
AcDbLine
10
23.815103493
20
64.0703927791
11
23.815103493
21
60.0703927791
0
LINE
5
C2
100
AcDbEntity
8
Visible Edges(PEC)
6
ByLayer
62
256
370
-1
100
AcDbLine
10
23.815103493
20
60.0703927791
11
22.515103493
21
60.0703927791
0
LINE
5
C3
100
AcDbEntity
8
Visible Edges(PEC)
6
ByLayer
62
256
370
-1
100
AcDbLine
10
22.515103493
20
64.0703927791
11
23.815103493
21
64.0703927791
0
LINE
5
C4
100
AcDbEntity
8
Visible Edges(PEC)
6
ByLayer
62
256
370
-1
100
AcDbLine
10
23.815103493
20
57.0703927791
11
23.815103493
21
53.0703927791
0
LINE
5
C5
100
AcDbEntity
8
Visible Edges(PEC)
6
ByLayer
62
256
370
-1
100
AcDbLine
10
23.815103493
20
53.0703927791
11
22.515103493
21
53.0703927791
0
LINE
5
C6
100
AcDbEntity
8
Visible Edges(PEC)
6
ByLayer
62
256
370
-1
100
AcDbLine
10
22.515103493
20
57.0703927791
11
23.815103493
21
57.0703927791
0
LINE
5
C7
100
AcDbEntity
8
Visible Edges(PEC)
6
ByLayer
62
256
370
-1
100
AcDbLine
10
14.315103493
20
76.0703927791
11
14.315103493
21
72.0703927791
0
LINE
5
C8
100
AcDbEntity
8
Visible Edges(PEC)
6
ByLayer
62
256
370
-1
100
AcDbLine
10
14.315103493
20
72.0703927791
11
13.015103493
21
72.0703927791
0
LINE
5
C9
100
AcDbEntity
8
Visible Edges(PEC)
6
ByLayer
62
256
370
-1
100
AcDbLine
10
13.015103493
20
76.0703927791
11
14.315103493
21
76.0703927791
0
LINE
5
CA
100
AcDbEntity
8
Visible Edges(PEC)
6
ByLayer
62
256
370
-1
100
AcDbLine
10
14.315103493
20
83.5703927791
11
14.315103493
21
79.5703927791
0
LINE
5
CB
100
AcDbEntity
8
Visible Edges(PEC)
6
ByLayer
62
256
370
-1
100
AcDbLine
10
14.315103493
20
79.5703927791
11
13.015103493
21
79.5703927791
0
LINE
5
CC
100
AcDbEntity
8
Visible Edges(PEC)
6
ByLayer
62
256
370
-1
100
AcDbLine
10
13.015103493
20
83.5703927791
11
14.315103493
21
83.5703927791
0
LINE
5
CD
100
AcDbEntity
8
Visible Edges(PEC)
6
ByLayer
62
256
370
-1
100
AcDbLine
10
9.31510349296
20
95.0703927791
11
9.31510349296
21
91.0703927791
0
LINE
5
CE
100
AcDbEntity
8
Visible Edges(PEC)
6
ByLayer
62
256
370
-1
100
AcDbLine
10
9.31510349296
20
91.0703927791
11
8.01510349296
21
91.0703927791
0
LINE
5
CF
100
AcDbEntity
8
Visible Edges(PEC)
6
ByLayer
62
256
370
-1
100
AcDbLine
10
8.01510349296
20
95.0703927791
11
9.31510349296
21
95.0703927791
0
LINE
5
D0
100
AcDbEntity
8
Visible Edges(PEC)
6
ByLayer
62
256
370
-1
100
AcDbLine
10
9.31510349296
20
102.070392779
11
9.31510349296
21
98.0703927791
0
LINE
5
D1
100
AcDbEntity
8
Visible Edges(PEC)
6
ByLayer
62
256
370
-1
100
AcDbLine
10
9.31510349296
20
98.0703927791
11
8.01510349296
21
98.0703927791
0
LINE
5
D2
100
AcDbEntity
8
Visible Edges(PEC)
6
ByLayer
62
256
370
-1
100
AcDbLine
10
8.01510349296
20
102.070392779
11
9.31510349296
21
102.070392779
0
LINE
5
D3
100
AcDbEntity
8
Visible Edges(PEC)
6
ByLayer
62
256
370
-1
100
AcDbLine
10
15.615103493
20
28.5703927791
11
26.115103493
21
28.5703927791
0
LINE
5
D4
100
AcDbEntity
8
Visible Edges(PEC)
6
ByLayer
62
256
370
-1
100
AcDbLine
10
46.315103493
20
28.5703927791
11
160.415103493
21
28.5703927791
0
LINE
5
D5
100
AcDbEntity
8
Visible Edges(PEC)
6
ByLayer
62
256
370
-1
100
AcDbLine
10
21.115103493
20
126.570392779
11
21.115103493
21
123.270392779
0
LINE
5
D6
100
AcDbEntity
8
Visible Edges(PEC)
6
ByLayer
62
256
370
-1
100
AcDbLine
10
21.115103493
20
123.270392779
11
17.915103493
21
123.270392779
0
LINE
5
D7
100
AcDbEntity
8
Visible Edges(PEC)
6
ByLayer
62
256
370
-1
100
AcDbLine
10
50.7387765123
20
126.570392779
11
21.115103493
21
126.570392779
0
LINE
5
D8
100
AcDbEntity
8
Visible Edges(PEC)
6
ByLayer
62
256
370
-1
100
AcDbLine
10
31.215103493
20
103.570392779
11
8.01510349296
21
103.570392779
0
LINE
5
D9
100
AcDbEntity
8
Visible Edges(PEC)
6
ByLayer
62
256
370
-1
100
AcDbLine
10
17.915103493
20
108.570392779
11
31.215103493
21
108.570392779
0
LINE
5
DA
100
AcDbEntity
8
Visible Edges(PEC)
6
ByLayer
62
256
370
-1
100
AcDbLine
10
31.215103493
20
108.570392779
11
31.215103493
21
103.570392779
0
LINE
5
DB
100
AcDbEntity
8
Visible Edges(PEC)
6
ByLayer
62
256
370
-1
100
AcDbLine
10
160.415103493
20
126.070392779
11
80.1469013801
21
126.070392779
0
LINE
5
DC
100
AcDbEntity
8
Visible Edges(PEC)
6
ByLayer
62
256
370
-1
100
AcDbLine
10
31.215103493
20
84.5703927791
11
13.015103493
21
84.5703927791
0
LINE
5
DD
100
AcDbEntity
8
Visible Edges(PEC)
6
ByLayer
62
256
370
-1
100
AcDbLine
10
31.215103493
20
89.5703927791
11
31.215103493
21
84.5703927791
0
LINE
5
DE
100
AcDbEntity
8
Visible Edges(PEC)
6
ByLayer
62
256
370
-1
100
AcDbLine
10
8.01510349296
20
89.5703927791
11
31.215103493
21
89.5703927791
0
LINE
5
DF
100
AcDbEntity
8
Visible Edges(PEC)
6
ByLayer
62
256
370
-1
100
AcDbLine
10
41.715103493
20
46.5703927791
11
15.615103493
21
46.5703927791
0
LINE
5
E0
100
AcDbEntity
8
Visible Edges(PEC)
6
ByLayer
62
256
370
-1
100
AcDbLine
10
41.715103493
20
51.5703927791
11
41.715103493
21
46.5703927791
0
LINE
5
E1
100
AcDbEntity
8
Visible Edges(PEC)
6
ByLayer
62
256
370
-1
100
AcDbLine
10
22.515103493
20
51.5703927791
11
41.715103493
21
51.5703927791
0
LINE
5
E2
100
AcDbEntity
8
Visible Edges(PEC)
6
ByLayer
62
256
370
-1
100
AcDbLine
10
41.715103493
20
65.5703927791
11
22.515103493
21
65.5703927791
0
LINE
5
E3
100
AcDbEntity
8
Visible Edges(PEC)
6
ByLayer
62
256
370
-1
100
AcDbLine
10
41.715103493
20
70.5703927791
11
41.715103493
21
65.5703927791
0
LINE
5
E4
100
AcDbEntity
8
Visible Edges(PEC)
6
ByLayer
62
256
370
-1
100
AcDbLine
10
13.015103493
20
70.5703927791
11
41.715103493
21
70.5703927791
0
LINE
5
E5
100
AcDbEntity
8
Visible Edges(PEC)
6
ByLayer
62
256
370
-1
100
AcDbLine
10
17.915103493
20
122.070392779
11
17.915103493
21
123.270392779
0
LINE
5
E6
100
AcDbEntity
8
Visible Edges(PEC)
6
ByLayer
62
256
370
-1
100
AcDbLine
10
17.915103493
20
108.570392779
11
17.915103493
21
110.070392779
0
LINE
5
E7
100
AcDbEntity
8
Visible Edges(PEC)
6
ByLayer
62
256
370
-1
100
AcDbLine
10
8.01510349296
20
102.070392779
11
8.01510349296
21
103.570392779
0
LINE
5
E8
100
AcDbEntity
8
Visible Edges(PEC)
6
ByLayer
62
256
370
-1
100
AcDbLine
10
8.01510349296
20
89.5703927791
11
8.01510349296
21
91.0703927791
0
LINE
5
E9
100
AcDbEntity
8
Visible Edges(PEC)
6
ByLayer
62
256
370
-1
100
AcDbLine
10
15.615103493
20
28.5703927791
11
15.615103493
21
46.5703927791
0
LINE
5
EA
100
AcDbEntity
8
Visible Edges(PEC)
6
ByLayer
62
256
370
-1
100
AcDbLine
10
17.915103493
20
114.070392779
11
17.915103493
21
118.070392779
0
LINE
5
EB
100
AcDbEntity
8
Visible Edges(PEC)
6
ByLayer
62
256
370
-1
100
AcDbLine
10
8.01510349296
20
95.0703927791
11
8.01510349296
21
98.0703927791
0
LINE
5
EC
100
AcDbEntity
8
Visible Edges(PEC)
6
ByLayer
62
256
370
-1
100
AcDbLine
10
13.015103493
20
83.5703927791
11
13.015103493
21
84.5703927791
0
LINE
5
ED
100
AcDbEntity
8
Visible Edges(PEC)
6
ByLayer
62
256
370
-1
100
AcDbLine
10
13.015103493
20
76.0703927791
11
13.015103493
21
79.5703927791
0
LINE
5
EE
100
AcDbEntity
8
Visible Edges(PEC)
6
ByLayer
62
256
370
-1
100
AcDbLine
10
13.015103493
20
70.5703927791
11
13.015103493
21
72.0703927791
0
LINE
5
EF
100
AcDbEntity
8
Visible Edges(PEC)
6
ByLayer
62
256
370
-1
100
AcDbLine
10
22.515103493
20
64.0703927791
11
22.515103493
21
65.5703927791
0
LINE
5
F0
100
AcDbEntity
8
Visible Edges(PEC)
6
ByLayer
62
256
370
-1
100
AcDbLine
10
22.515103493
20
57.0703927791
11
22.515103493
21
60.0703927791
0
LINE
5
F1
100
AcDbEntity
8
Visible Edges(PEC)
6
ByLayer
62
256
370
-1
100
AcDbLine
10
22.515103493
20
51.5703927791
11
22.515103493
21
53.0703927791
0
LINE
5
F2
100
AcDbEntity
8
Visible Edges(PEC)
6
ByLayer
62
256
370
-1
100
AcDbLine
10
160.415103493
20
126.070392779
11
160.415103493
21
28.5703927791
0
CIRCLE
5
F3
100
AcDbEntity
8
Visible Edges(PEC)
6
ByLayer
62
256
370
-1
100
AcDbCircle
10
44.915103493
20
105.570392779
40
2.1
0
CIRCLE
5
F4
100
AcDbEntity
8
Visible Edges(PEC)
6
ByLayer
62
256
370
-1
100
AcDbCircle
10
59.715103493
20
67.5703927791
40
2.1
0
CIRCLE
5
F5
100
AcDbEntity
8
Visible Edges(PEC)
6
ByLayer
62
256
370
-1
100
AcDbCircle
10
98.1151034931
20
67.5703927791
40
2.1
0
CIRCLE
5
F6
100
AcDbEntity
8
Visible Edges(PEC)
6
ByLayer
62
256
370
-1
100
AcDbCircle
10
155.415103493
20
77.5703927791
40
2.1
0
CIRCLE
5
F7
100
AcDbEntity
8
Visible Edges(PEC)
6
ByLayer
62
256
370
-1
100
AcDbCircle
10
111.915103493
20
106.570392779
40
2.1
0
CIRCLE
5
F8
100
AcDbEntity
8
Visible Edges(PEC)
6
ByLayer
62
256
370
-1
100
AcDbCircle
10
140.415103493
20
39.5703927791
40
2
0
CIRCLE
5
F9
100
AcDbEntity
8
Visible Edges(PEC)
6
ByLayer
62
256
370
-1
100
AcDbCircle
10
110.265103493
20
39.5703927791
40
2
0
CIRCLE
5
FA
100
AcDbEntity
8
Visible Edges(PEC)
6
ByLayer
62
256
370
-1
100
AcDbCircle
10
107.715103493
20
58.5703927791
40
2
0
CIRCLE
5
FB
100
AcDbEntity
8
Visible Edges(PEC)
6
ByLayer
62
256
370
-1
100
AcDbCircle
10
138.165103493
20
58.5703927791
40
2
0
CIRCLE
5
FC
100
AcDbEntity
8
Visible Edges(PEC)
6
ByLayer
62
256
370
-1
100
AcDbCircle
10
142.665103493
20
77.5703927791
40
2
0
CIRCLE
5
FD
100
AcDbEntity
8
Visible Edges(PEC)
6
ByLayer
62
256
370
-1
100
AcDbCircle
10
116.825103493
20
77.5703927791
40
2
0
CIRCLE
5
FE
100
AcDbEntity
8
Visible Edges(PEC)
6
ByLayer
62
256
370
-1
100
AcDbCircle
10
149.415103493
20
96.5703927791
40
2
0
CIRCLE
5
FF
100
AcDbEntity
8
Visible Edges(PEC)
6
ByLayer
62
256
370
-1
100
AcDbCircle
10
144.915103493
20
115.570392779
40
2
0
CIRCLE
5
100
100
AcDbEntity
8
Visible Edges(PEC)
6
ByLayer
62
256
370
-1
100
AcDbCircle
10
121.415103493
20
115.570392779
40
2
0
CIRCLE
5
101
100
AcDbEntity
8
Visible Edges(PEC)
6
ByLayer
62
256
370
-1
100
AcDbCircle
10
102.415103493
20
115.570392779
40
2
0
CIRCLE
5
102
100
AcDbEntity
8
Visible Edges(PEC)
6
ByLayer
62
256
370
-1
100
AcDbCircle
10
83.4151034931
20
115.570392779
40
2
0
CIRCLE
5
103
100
AcDbEntity
8
Visible Edges(PEC)
6
ByLayer
62
256
370
-1
100
AcDbCircle
10
64.415103493
20
115.570392779
40
2
0
CIRCLE
5
104
100
AcDbEntity
8
Visible Edges(PEC)
6
ByLayer
62
256
370
-1
100
AcDbCircle
10
45.415103493
20
115.570392779
40
2
0
CIRCLE
5
105
100
AcDbEntity
8
Visible Edges(PEC)
6
ByLayer
62
256
370
-1
100
AcDbCircle
10
26.415103493
20
115.570392779
40
2
0
CIRCLE
5
106
100
AcDbEntity
8
Visible Edges(PEC)
6
ByLayer
62
256
370
-1
100
AcDbCircle
10
130.415103493
20
96.5703927791
40
2
0
CIRCLE
5
107
100
AcDbEntity
8
Visible Edges(PEC)
6
ByLayer
62
256
370
-1
100
AcDbCircle
10
111.415103493
20
96.5703927791
40
2
0
CIRCLE
5
108
100
AcDbEntity
8
Visible Edges(PEC)
6
ByLayer
62
256
370
-1
100
AcDbCircle
10
92.4151034931
20
96.5703927791
40
2
0
CIRCLE
5
109
100
AcDbEntity
8
Visible Edges(PEC)
6
ByLayer
62
256
370
-1
100
AcDbCircle
10
73.415103493
20
96.5703927791
40
2
0
CIRCLE
5
10A
100
AcDbEntity
8
Visible Edges(PEC)
6
ByLayer
62
256
370
-1
100
AcDbCircle
10
54.415103493
20
96.5703927791
40
2
0
CIRCLE
5
10B
100
AcDbEntity
8
Visible Edges(PEC)
6
ByLayer
62
256
370
-1
100
AcDbCircle
10
35.415103493
20
96.5703927791
40
2
0
CIRCLE
5
10C
100
AcDbEntity
8
Visible Edges(PEC)
6
ByLayer
62
256
370
-1
100
AcDbCircle
10
16.415103493
20
96.5703927791
40
2
0
CIRCLE
5
10D
100
AcDbEntity
8
Visible Edges(PEC)
6
ByLayer
62
256
370
-1
100
AcDbCircle
10
97.7351034931
20
77.5703927791
40
2
0
CIRCLE
5
10E
100
AcDbEntity
8
Visible Edges(PEC)
6
ByLayer
62
256
370
-1
100
AcDbCircle
10
78.6451034931
20
77.5703927791
40
2
0
CIRCLE
5
10F
100
AcDbEntity
8
Visible Edges(PEC)
6
ByLayer
62
256
370
-1
100
AcDbCircle
10
59.555103493
20
77.5703927791
40
2
0
CIRCLE
5
110
100
AcDbEntity
8
Visible Edges(PEC)
6
ByLayer
62
256
370
-1
100
AcDbCircle
10
40.465103493
20
77.5703927791
40
2
0
CIRCLE
5
111
100
AcDbEntity
8
Visible Edges(PEC)
6
ByLayer
62
256
370
-1
100
AcDbCircle
10
21.375103493
20
77.5703927791
40
2
0
CIRCLE
5
112
100
AcDbEntity
8
Visible Edges(PEC)
6
ByLayer
62
256
370
-1
100
AcDbCircle
10
88.5151034931
20
58.5703927791
40
2
0
CIRCLE
5
113
100
AcDbEntity
8
Visible Edges(PEC)
6
ByLayer
62
256
370
-1
100
AcDbCircle
10
69.315103493
20
58.5703927791
40
2
0
CIRCLE
5
114
100
AcDbEntity
8
Visible Edges(PEC)
6
ByLayer
62
256
370
-1
100
AcDbCircle
10
50.115103493
20
58.5703927791
40
2
0
CIRCLE
5
115
100
AcDbEntity
8
Visible Edges(PEC)
6
ByLayer
62
256
370
-1
100
AcDbCircle
10
30.915103493
20
58.5703927791
40
2
0
CIRCLE
5
116
100
AcDbEntity
8
Visible Edges(PEC)
6
ByLayer
62
256
370
-1
100
AcDbCircle
10
34.115103493
20
39.5703927791
40
2
0
CIRCLE
5
117
100
AcDbEntity
8
Visible Edges(PEC)
6
ByLayer
62
256
370
-1
100
AcDbCircle
10
86.8651034931
20
39.5703927791
40
2
0
CIRCLE
5
118
100
AcDbEntity
8
Visible Edges(PEC)
6
ByLayer
62
256
370
-1
100
AcDbCircle
10
63.465103493
20
39.5703927791
40
2
0
ARC
5
119
100
AcDbEntity
8
Visible Edges(PEC)
6
ByLayer
62
256
370
-1
100
AcDbCircle
10
124.426298668
20
54.6043548311
40
2.37170824513
100
AcDbArc
50
341.565051177
51
198.434948823
0
LINE
5
11A
100
AcDbEntity
8
Visible Edges(PEC)
6
ByLayer
62
256
370
-1
100
AcDbLine
10
122.176298668
20
53.8543548311
11
123.676298668
21
50.8543548311
0
LINE
5
11B
100
AcDbEntity
8
Visible Edges(PEC)
6
ByLayer
62
256
370
-1
100
AcDbLine
10
126.676298668
20
53.8543548311
11
125.176298668
21
50.8543548311
0
ARC
5
11C
100
AcDbEntity
8
Visible Edges(PEC)
6
ByLayer
62
256
370
-1
100
AcDbCircle
10
124.426298668
20
51.2543548311
40
0.85
100
AcDbArc
50
208.072486936
51
331.927513064
0
ARC
5
11D
100
AcDbEntity
8
Visible Edges(PEC)
6
ByLayer
62
256
370
-1
100
AcDbCircle
10
124.380058759
20
41.2642934551
40
2.37170824513
100
AcDbArc
50
161.565051177
51
18.4349488229
0
LINE
5
11E
100
AcDbEntity
8
Visible Edges(PEC)
6
ByLayer
62
256
370
-1
100
AcDbLine
10
126.630058759
20
42.0142934551
11
125.130058759
21
45.0142934551
0
LINE
5
11F
100
AcDbEntity
8
Visible Edges(PEC)
6
ByLayer
62
256
370
-1
100
AcDbLine
10
122.130058759
20
42.0142934551
11
123.630058759
21
45.0142934551
0
ARC
5
120
100
AcDbEntity
8
Visible Edges(PEC)
6
ByLayer
62
256
370
-1
100
AcDbCircle
10
124.380058759
20
44.6142934551
40
0.85
100
AcDbArc
50
28.0724869359
51
151.927513064
0
ARC
5
121
100
AcDbEntity
8
Visible Edges(PEC)
6
ByLayer
62
256
370
-1
100
AcDbCircle
10
117.630058759
20
48.1425852101
40
2.37170824513
100
AcDbArc
50
71.5650511771
51
288.434948823
0
LINE
5
122
100
AcDbEntity
8
Visible Edges(PEC)
6
ByLayer
62
256
370
-1
100
AcDbLine
10
118.380058759
20
45.8925852101
11
121.380058759
21
47.3925852101
0
LINE
5
123
100
AcDbEntity
8
Visible Edges(PEC)
6
ByLayer
62
256
370
-1
100
AcDbLine
10
118.380058759
20
50.3925852101
11
121.380058759
21
48.8925852101
0
ARC
5
124
100
AcDbEntity
8
Visible Edges(PEC)
6
ByLayer
62
256
370
-1
100
AcDbCircle
10
120.980058759
20
48.1425852101
40
0.85
100
AcDbArc
50
298.072486936
51
61.9275130641
0
ARC
5
125
100
AcDbEntity
8
Visible Edges(PEC)
6
ByLayer
62
256
370
-1
100
AcDbCircle
10
131.130058759
20
48.1425852101
40
2.37170824513
100
AcDbArc
50
251.565051177
51
108.434948823
0
LINE
5
126
100
AcDbEntity
8
Visible Edges(PEC)
6
ByLayer
62
256
370
-1
100
AcDbLine
10
130.380058759
20
50.3925852101
11
127.380058759
21
48.8925852101
0
LINE
5
127
100
AcDbEntity
8
Visible Edges(PEC)
6
ByLayer
62
256
370
-1
100
AcDbLine
10
130.380058759
20
45.8925852101
11
127.380058759
21
47.3925852101
0
ARC
5
128
100
AcDbEntity
8
Visible Edges(PEC)
6
ByLayer
62
256
370
-1
100
AcDbCircle
10
127.780058759
20
48.1425852101
40
0.85
100
AcDbArc
50
118.072486936
51
241.927513064
0
ARC
5
129
100
AcDbEntity
8
Visible Edges(PEC)
6
ByLayer
62
256
370
-1
100
AcDbCircle
10
53.1318556378
20
37.0101551811
40
0.85
100
AcDbArc
50
73.0724869359
51
196.927513064
0
ARC
5
12A
100
AcDbEntity
8
Visible Edges(PEC)
6
ByLayer
62
256
370
-1
100
AcDbCircle
10
45.8640058389
20
34.7320634341
40
2.37170824513
100
AcDbArc
50
116.565051177
51
333.434948823
0
LINE
5
12B
100
AcDbEntity
8
Visible Edges(PEC)
6
ByLayer
62
256
370
-1
100
AcDbLine
10
47.9853261825
20
33.6714032621
11
49.0459863543
21
36.8533837771
0
LINE
5
12C
100
AcDbEntity
8
Visible Edges(PEC)
6
ByLayer
62
256
370
-1
100
AcDbLine
10
44.8033456672
20
36.8533837771
11
47.9853261825
21
37.9140439491
0
ARC
5
12D
100
AcDbEntity
8
Visible Edges(PEC)
6
ByLayer
62
256
370
-1
100
AcDbCircle
10
48.2328135559
20
37.1008711511
40
0.85
100
AcDbArc
50
343.072486936
51
106.927513064
0
ARC
5
12E
100
AcDbEntity
8
Visible Edges(PEC)
6
ByLayer
62
256
370
-1
100
AcDbCircle
10
55.4099473849
20
44.2780049801
40
2.37170824513
100
AcDbArc
50
296.565051177
51
153.434948823
0
LINE
5
12F
100
AcDbEntity
8
Visible Edges(PEC)
6
ByLayer
62
256
370
-1
100
AcDbLine
10
53.2886270414
20
45.3386651511
11
52.2279668696
21
42.1566846361
0
LINE
5
130
100
AcDbEntity
8
Visible Edges(PEC)
6
ByLayer
62
256
370
-1
100
AcDbLine
10
56.4706075567
20
42.1566846361
11
53.2886270414
21
41.0960244641
0
ARC
5
131
100
AcDbEntity
8
Visible Edges(PEC)
6
ByLayer
62
256
370
-1
100
AcDbCircle
10
53.041139668
20
41.9091972631
40
0.85
100
AcDbArc
50
163.072486936
51
286.927513064
0
ARC
5
132
100
AcDbEntity
8
Visible Edges(PEC)
6
ByLayer
62
256
370
-1
100
AcDbCircle
10
46.1005120477
20
44.1068918771
40
2.37170824513
100
AcDbArc
50
26.5650511771
51
243.434948823
0
LINE
5
133
100
AcDbEntity
8
Visible Edges(PEC)
6
ByLayer
62
256
370
-1
100
AcDbLine
10
45.0398518759
20
41.9855715331
11
48.2218323913
21
40.9249113611
0
LINE
5
134
100
AcDbEntity
8
Visible Edges(PEC)
6
ByLayer
62
256
370
-1
100
AcDbLine
10
48.2218323913
20
45.1675520491
11
49.282492563
21
41.9855715331
0
ARC
5
135
100
AcDbEntity
8
Visible Edges(PEC)
6
ByLayer
62
256
370
-1
100
AcDbCircle
10
48.4693197647
20
41.7380841601
40
0.85
100
AcDbArc
50
253.072486936
51
16.9275130641
0
ARC
5
136
100
AcDbEntity
8
Visible Edges(PEC)
6
ByLayer
62
256
370
-1
100
AcDbCircle
10
55.5006633548
20
34.6413474641
40
2.37170824513
100
AcDbArc
50
206.565051177
51
63.4349488229
0
LINE
5
137
100
AcDbEntity
8
Visible Edges(PEC)
6
ByLayer
62
256
370
-1
100
AcDbLine
10
56.5613235266
20
36.7626678071
11
53.3793430112
21
37.8233279791
0
LINE
5
138
100
AcDbEntity
8
Visible Edges(PEC)
6
ByLayer
62
256
370
-1
100
AcDbLine
10
53.3793430112
20
33.5806872921
11
52.3186828395
21
36.7626678071
0
CIRCLE
5
139
100
AcDbEntity
8
Visible Edges(PEC)
6
ByLayer
62
256
370
-1
100
AcDbCircle
10
156.82650113
20
63.0606544828
40
0.75
0
ENDSEC
0
SECTION
2
OBJECTS
0
DICTIONARY
5
C
330
0
100
AcDbDictionary
281
1
3
ACAD_GROUP
350
D
0
DICTIONARY
5
D
330
C
100
AcDbDictionary
281
1
0
ENDSEC
0
EOF
