/* XPM */
static char *icon_kicad_64[] = {
/* columns rows colors chars-per-pixel */
"64 64 152 2 ",
"   c #A33E03",
".  c #A44106",
"X  c #A5430A",
"o  c #A94C16",
"O  c #AB511D",
"+  c #876900",
"@  c #8A6B00",
"#  c #8F7000",
"$  c #937300",
"%  c #997700",
"&  c #9D7A00",
"*  c #8D7112",
"=  c #A27E00",
"-  c #AF5C2B",
";  c #B05E2D",
":  c #B15F30",
">  c #957E2D",
",  c #B36335",
"<  c #B3673B",
"1  c #B56A3D",
"2  c #B76D42",
"3  c #B97046",
"4  c #B77249",
"5  c #B9754D",
"6  c #BB7A53",
"7  c #BD7E59",
"8  c #A68100",
"9  c #AB8500",
"0  c #AF8800",
"q  c #B38B00",
"w  c #B88F00",
"e  c #B28C09",
"r  c #BC9200",
"t  c #B9930E",
"y  c #B28E11",
"u  c #BB971C",
"i  c #97802D",
"p  c #9C832E",
"a  c #A0872F",
"s  c #BC9C2E",
"d  c #A48A30",
"f  c #A98E31",
"g  c #AD9232",
"h  c #B29634",
"j  c #B69934",
"k  c #C19600",
"l  c #C59900",
"z  c #C99C00",
"x  c #C09708",
"c  c #C09A13",
"v  c #C8A11A",
"b  c #C29E24",
"n  c #CAA62C",
"m  c #C4A438",
"M  c #988540",
"N  c #9A8849",
"B  c #BE815D",
"V  c #BEA344",
"C  c #BD8C70",
"Z  c #C1825D",
"A  c #CCAE43",
"S  c #C7AC51",
"D  c #CFB65F",
"F  c #C58E6D",
"G  c #C79375",
"H  c #C89376",
"J  c #C69679",
"K  c #C99578",
"L  c #C6997F",
"P  c #CA997C",
"I  c #C2AC60",
"U  c #CAB66E",
"Y  c #C6B67C",
"T  c #D3C07D",
"R  c #BC9680",
"E  c #AEAA9D",
"W  c #B0AC9F",
"Q  c #B2AEA1",
"!  c #B6B2A4",
"~  c #B9B5A7",
"^  c #BBB7A9",
"/  c #BEBAAB",
"(  c #B3B3B3",
")  c #BBBBBB",
"_  c #C79C82",
"`  c #C89C82",
"'  c #CBA48E",
"]  c #CEBF8A",
"[  c #CFA790",
"{  c #CCA995",
"}  c #D0AA94",
"|  c #C9BE96",
" . c #D8B39E",
".. c #C5B5AB",
"X. c #CBB6A9",
"o. c #C1BDAE",
"O. c #D4B7A6",
"+. c #D5BAAA",
"@. c #D9BDAC",
"#. c #C4BFB0",
"$. c #C3BDB9",
"%. c #D6C99A",
"&. c #DACB98",
"*. c #CCC5AA",
"=. c #D1C7A3",
"-. c #DCCEA1",
";. c #DED3AD",
":. c #C6C1B1",
">. c #CAC5B5",
",. c #CEC9B8",
"<. c #D7C1B4",
"1. c #D9C3B7",
"2. c #D3CDB6",
"3. c #D7C5BB",
"4. c #D9C6BA",
"5. c #D2CDBC",
"6. c #DBC9BE",
"7. c #D9D0B1",
"8. c #D6D1BF",
"9. c #E1C6B6",
"0. c #C4C3C3",
"q. c #CBCBCB",
"w. c #DBCCC4",
"e. c #DCCFC8",
"r. c #D6D2C3",
"t. c #DAD5C3",
"y. c #DED9C7",
"u. c #D6D4CF",
"i. c #DDD2CC",
"p. c #D4D4D3",
"a. c #DDD7D3",
"s. c #DED9D4",
"d. c #DBDBDB",
"f. c #E5CFC2",
"g. c #E6D1C4",
"h. c #E8D1C5",
"j. c #E3D4CA",
"k. c #E1DCCB",
"l. c #E8D8CF",
"z. c #E2DAD6",
"x. c #E2DEDC",
"c. c #E3E1DD",
"v. c #ECE2DC",
"b. c #E4E4E4",
"n. c #EAE6E3",
"m. c #E9E8E7",
"M. c #EBEBEB",
"N. c #F1E7E2",
"B. c #F2E8E3",
"V. c #F3F3F3",
"C. c #F9F9F9",
"Z. c None",
/* pixels */
"Z.Z.Z.Z.Z.Z.Z.Z.Z.Z.Z.Z.Z.Z.Z.Z.Z.Z.Z.Z.Z.Z.Z.Z.Z.Z.Z.Z.Z.Z.Z.Z.Z.Z.Z.Z.Z.Z.Z.Z.Z.Z.Z.Z.Z.Z.Z.Z.Z.Z.Z.Z.Z.Z.Z.Z.Z.Z.Z.Z.Z.Z.Z.Z.",
"Z.Z.Z.Z.Z.Z.Z.Z.Z.Z.Z.Z.Z.Z.Z.Z.Z.Z.Z.Z.Z.Z.Z.Z.Z.Z.Z.Z.Z.Z.Z.Z.Z.Z.Z.Z.Z.Z.Z.Z.Z.Z.Z.Z.Z.Z.Z.Z.Z.Z.Z.Z.Z.Z.Z.Z.Z.Z.Z.Z.Z.Z.Z.Z.",
"Z.Z.Z.Z.Z.Z.z z z z z z z z z z z z z z z z z z z z z z z z z z z z Z.Z.Z.Z.Z.Z.Z.Z.Z.Z.Z.Z.z z z z z z z z z z z z z Z.Z.Z.Z.Z.",
"Z.Z.Z.Z.z z z z z z z z z z z z z z z z z z z z z z z z z l z z z z z z z Z.Z.Z.Z.Z.Z.Z.z z z z z z z z z z z z z z z z z Z.Z.Z.",
"Z.Z.Z.l l l l l l l z l l l z l l l l l l l z l z k k z z l z l l z l z z l Z.Z.Z.Z.Z.Z.l l l z z k z l l z l l z l z l z z Z.Z.",
"Z.Z.Z.l l l l l l l l l l l l l l l l l l l l l k z z k l k l l k z k z k z z Z.Z.Z.Z.Z.Z.l l l k z l l l k l l k z k l l l Z.Z.",
"Z.Z.Z.l l l l &.;.;.;.;.;.;.;.;.;.;.;.;.;.;.;.;.;.;.;.;.;.;.;.;.;.;.-.v l l k k l Z.Z.Z.Z.Z.l l k l k l l l k l k l l l l k Z.Z.",
"Z.Z.Z.k l k k k.m.b.b.m.b.b.b.b.m.b.b.m.b.b.b.b.m.b.b.m.b.m.b.b.b.m.b.z.n k k l k l Z.Z.Z.Z.Z.l z k l k k l l k z k k l k l Z.Z.",
"Z.Z.Z.k k k k k.b.b.M.M.m.M.M.M.M.M.M.M.M.M.V.M.m.j.j.B.M.M.M.M.M.M.b.b.d.A r l r l k Z.Z.Z.Z.Z.l k k k k k k k k k k k k k Z.Z.",
"Z.Z.Z.k k k k y.b.b.C.C.C.C.C.C.C.C.C.C.C.C.C.C.g.    B.C.C.C.C.C.C.V.b.b.b.D l l r k k Z.Z.Z.Z.Z.k k k k k k k r k k k k k Z.Z.",
"Z.Z.Z.k k r r k.b.c.C.C.C.C.C.C.C.C.C.C.C.C.C.C.g.    B.C.C.C.C.C.C.C.V.b.c.c.] k k r k l Z.Z.Z.Z.Z.k k k k k k k k k k k k Z.Z.",
"Z.Z.Z.k r k r y.c.b.C.C.C.C.C.C.C.C.C.C.C.C.C.C.g.  . B.C.C.C.C.C.C.C.C.V.b.b.c.%.x k r r r Z.Z.Z.Z.Z.r k r r k r k r k k r Z.Z.",
"Z.Z.Z.r r r r y.b.c.C.C.C.C.C.C.C.C.C.C.C.C.C.C.g.    B.C.C.C.C.C.C.C.C.C.V.b.c.b.7.u r r r r r Z.Z.Z.Z.Z.r r r r k r r r r Z.Z.",
"Z.Z.Z.r r r r y.d.d.C.C.C.C.C.C.C.C.C.C.C.C.C.C.g.    B.C.C.C.C.C.C.C.C.C.C.C.b.d.c.t.b r r r r r Z.Z.Z.Z.Z.r k r r r r r r Z.Z.",
"Z.Z.Z.r r w w t.d.b.C.C.C.C.C.C.C.C.C.C.C.C.C.C.f.    B.C.C.C.C.C.C.C.C.C.C.C.C.M.d.d.a.m r r r r r Z.Z.Z.Z.Z.r r r r r r r Z.Z.",
"Z.Z.Z.r r w w t.d.d.V.C.C.C.C.C.C.C.C.V.C.C.C.C.f.    N.C.C.V.C.C.C.C.C.C.C.V.C.C.M.d.c.d.S r w w w w Z.Z.Z.Z.Z.r r r r r r Z.Z.",
"Z.Z.Z.w w w w t.d.d.V.C.V.C.C.C.C.C.C.C.C.C.C.C.9.X   B.C.C.C.C.C.C.C.C.C.C.C.C.V.C.V.d.d.d.U w w w w w Z.Z.Z.Z.Z.w w r w Z.Z.Z.",
"Z.Z.Z.w w w w 8.d.d.V.C.V.C.V.C.C.V.V.C.V.C.v.j. .    9.h.v.V.C.V.V.C.V.V.C.V.C.C.C.C.M.d.d.d.] r w w w w Z.Z.Z.Z.Z.Z.w Z.Z.Z.Z.",
"Z.Z.Z.w w w w 8.d.d.V.C.C.V.V.C.V.V.C.V.V.C.Z             F C.C.C.V.V.C.V.C.C.V.V.C.V.C.V.d.d.d.=.t w w w w w Z.Z.Z.Z.Z.Z.Z.Z.Z.",
"Z.Z.Z.w w w w 8.d.d.V.V.V.C.C.V.V.C.V.C.V.V.Z             F C.V.V.C.C.V.C.V.V.C.V.V.V.C.C.V.x.d.d.2.u w q w q w Z.Z.Z.Z.Z.Z.Z.Z.",
"Z.Z.Z.q q q q 5.d.p.V.C.V.C.V.V.C.V.V.V.C.V.Z . 1 l.l.;   F V.V.V.V.V.C.V.V.V.V.C.V.C.V.V.V.V.b.d.p.r.s q q q q q Z.Z.Z.Z.Z.Z.Z.",
"Z.Z.Z.q q q w 5.p.d.V.V.V.V.V.V.V.V.C.C.V.V.Z   3 V.C.,   F V.V.V.C.V.V.C.V.C.V.V.V.C.V.V.V.C.V.b.d.p.u.V q q q q q Z.Z.Z.Z.Z.Z.",
"Z.Z.Z.q q q q 5.d.p.V.V.V.V.V.V.V.V.V.V.V.V.Z . 3 V.C.,   F V.V.V.V.V.V.V.V.V.V.V.V.V.V.V.V.V.V.V.M.p.p.d.I q q q q q Z.Z.Z.Z.Z.",
"Z.Z.Z.q 0 0 0 5.p.p.V.V.V.V.V.V.V.V.V.V.V.V.Z   3 V.V.,   F V.V.V.V.V.V.V.V.V.V.V.V.V.V.V.V.V.V.V.V.M.d.p.p.Y e q 0 q q Z.Z.Z.Z.",
"Z.Z.Z.q 0 0 0 5.p.p.V.V.V.V.V.V.V.V.V.V.V.V.7   3 V.V.,   F V.V.V.V.V.V.V.V.V.V.V.V.V.V.V.V.V.V.V.V.V.M.d.p.p.| e 0 0 0 0 Z.Z.Z.",
"Z.Z.Z.0 0 0 0 ,.p.p.M.V.V.V.V.V.V.V.V.V.V.V.Z   3 V.V.,   F V.V.V.V.M.V.V.V.M.V.V.M.V.V.M.V.V.V.V.V.V.V.M.d.p.p.*.y 0 0 0 q Z.Z.",
"Z.Z.Z.0 0 0 0 ,.q.p.V.V.V.M.V.V.V.V.M.V.M.V.Z   2 N.n.,   F M.V.V.V.M.V.M.V.V.V.V.V.V.V.V.V.V.V.M.V.M.V.V.V.p.p.p.j 0 0 0 0 Z.Z.",
"Z.Z.Z.0 9 0 9 ,.p.p.V.M.V.V.M.V.M.M.V.V.V.V.7             F V.V.M.V.V.V.V.V.M.V.V.M.V.M.V.M.V.M.M.V.V.V.V.M.d.q.p.h 0 9 8 0 Z.Z.",
"Z.Z.Z.0 9 9 9 >.q.p.V.M.V.V.V.M.V.V.V.M.V.V.Z             F V.M.M.V.M.V.V.V.V.M.V.M.V.V.V.M.M.V.V.V.M.V.V.V.d.p.p.h 9 0 0 8 Z.Z.",
"Z.Z.Z.9 9 8 9 >.p.q.M.M.M.M.M.V.M.M.M.V.M.M.f.@.P   . +.@.g.V.M.V.M.V.V.M.M.V.` P ` P P P P K K G G G v.M.V.p.p.q.h 9 8 8 0 Z.Z.",
"Z.Z.Z.9 9 9 8 >.q.p.M.V.V.V.M.M.V.V.M.M.V.V.M.M.+.  X V.M.M.V.V.M.M.M.M.V.M.M.X             X         - l.M.d.p.q.j 8 0 9 9 Z.Z.",
"Z.Z.Z.8 8 9 9 >.q.q.M.M.M.M.M.V.M.M.M.V.M.M.M.V.@.  X M.V.M.M.M.M.V.V.M.M.V.M.X       X   X X X X X     O j.p.q.q.h 9 8 8 8 Z.Z.",
"Z.Z.Z.8 = 9 9 #.q.q.M.M.M.M.M.M.M.V.M.M.M.V.M.M.@.    , , , < , , , < , , , , X   L M.M.M.V.M.M.M.V.H     o ..q.q.g 9 8 8 8 Z.Z.",
"Z.Z.Z.9 8 8 = >.q.q.M.M.M.M.M.M.M.M.M.M.M.M.M.M.@.                            X   C M.M.M.M.M.M.M.M.+.      C q.q.g = 9 8 9 Z.Z.",
"Z.Z.Z.8 = 9 = #.q.q.M.M.M.M.M.M.M.M.M.x.} } x.M.+.    G C F C J F F F F F F F X   o - - : : : : , :     X { p.0.q.g = = 8 = Z.Z.",
"Z.Z.Z.= = = = #.q.0.M.M.M.M.M.M.M.M.m.f.    3.M.`     b.M.M.M.b.M.M.M.M.M.M.M.X       .               o +.M.p.q.q.f = = = 8 Z.Z.",
"Z.Z.Z.= = = = #.0.q.b.M.M.m.m.m.M.M.m.w.    1.+.X   o b.M.M.b.M.M.m.m.M.M.M.m.B B 7 7 7 6 6 6 6 5 5 5 w.m.m.p.q.0.g = = = = Z.Z.",
"Z.Z.Z.= = = = #.q.0.b.M.m.M.M.m.m.m.M.4.    H     o 1.M.b.M.M.M.m.m.m.M.b.M.m.m.M.M.b.m.m.m.m.m.m.m.m.M.M.m.p.0.q.g = = = = Z.Z.",
"Z.Z.Z.= = = = #.0.0.b.M.m.m.m.m.m.m.m.4.        O w.M.m.M.M.m.m.m.m.M.b.b.M.m.m.M.b.M.b.b.m.m.m.m.m.m.m.m.m.p.q.0.f = & = = Z.Z.",
"Z.Z.Z.= = & & #.0.0.w.C C F F C C F F 7       - j.m.m.b.b.m.b.m.M.b.m.b.M.m.b.m.b.M.b.M.b.m.b.m.m.m.m.b.b.m.q.0.0.f & = & = Z.Z.",
"Z.Z.Z.& & = & / 0.0.{                       O z.m.m.b.m.m.m.m.m.b.b.M.b.M.b.m.m.m.m.m.b.m.m.m.m.b.M.b.M.m.m.p.0.0.f & & = & Z.Z.",
"Z.Z.Z.& & & & / 0.0.+., : , , < , : : -     o i.b.b.m.b.m.b.b.m.b.M.M.b.b.b.b.m.m.b.m.b.b.m.b.m.m.b.m.b.b.b.q.0.0.f & & & & Z.Z.",
"Z.Z.Z.& & & & / ) 0.b.m.b.b.M.b.m.b.M.3.      O w.b.b.m.b.M.b.m.b.b.b.b.m.m.b.m.b.M.b.m.m.b.m.m.b.m.b.m.m.b.q.0.0.d % & & & Z.Z.",
"Z.Z.Z.& % & % / 0.0.b.b.b.b.b.b.b.b.b.3.        o 3.b.b.b.b.b.b.b.M.b.b.b.b.b.m.b.b.b.b.b.b.b.b.b.b.m.b.b.b.q.0.0.d & % % % Z.Z.",
"Z.Z.Z.% % % % / 0.) b.b.b.b.b.b.m.b.b.4.    ' X   X +.m.b.b.b.b.m.b.b.b.b._ _ ` _ _ _ _ _ _ _ _ _ _ _ _ _ _ ..) ) d % % % % Z.Z.",
"Z.Z.Z.% % % % ^ 0.) b.b.b.m.b.m.b.b.m.4.    <.4.o     b.m.b.m.b.m.b.m.b.d..     . X . .         . .         R 0.0.d % % % & Z.Z.",
"Z.Z.Z.% % % % ^ 0.) b.b.b.b.b.b.b.b.b.w.< < w.b.<.    b.b.b.b.b.b.b.b.b.d.  ' b.b.b.b.b.b.b.b.b.b.b.b.b.b.b.q.0.) a % % % % Z.Z.",
"Z.Z.Z.% $ % $ ~ ) ) b.b.b.b.b.b.b.b.b.b.b.b.b.b.e.    d.b.b.b.b.b.b.b.b.s.  ' i.o o o o X.m.b.; - - : - - 2 0.) ) a $ % $ % Z.Z.",
"Z.Z.Z.% $ $ $ ~ $.) d.b.b.b.b.b.b.b.b.d.b.b.b.b.w.    d.b.b.b.b.b.b.b.b.s.  ' u.o o o o X.b.b.            O q.) ) a % $ $ % Z.Z.",
"Z.Z.Z.$ $ $ $ ! ) ) b.b.b.b.b.b.b.b.b.b.b.b.b.b.w.    a.b.b.b.b.b.b.b.b.s.  ' b.b.b.b.b.b.b.b.d.d.b.x.d.x.x.0.) ) a $ $ $ $ Z.Z.",
"Z.Z.Z.$ $ $ $ ! ) ) x.b.b.b.b.b.b.b.b.b.b.b.b.b.e.    a.b.b.b.b.b.d.b.b.s.  ' b.b.d.b.b.b.b.b.b.b.b.b.b.b.b.0.) ) a $ $ $ $ Z.Z.",
"Z.Z.Z.$ $ $ $ ! ( ) d.b.b.b.b.d.b.d.b.b.b.d.w.{ _     ' { X.b.d.b.b.x.b.s.  ' w.3.3.<.3.i.b.b.b.b.3.{ { { { 0.( ( p # # $ $ Z.Z.",
"Z.Z.Z.$ $ # # Q ( ) d.b.d.d.b.b.b.d.b.b.b.b._             4 b.b.b.b.b.b.s.  ' <         J c.c.b.c.C         $.) ) a $ # # # Z.Z.",
"Z.Z.Z.# # # # Q ) ( b.d.b.b.d.b.b.b.b.d.d.c._ X X X X .   4 b.b.d.b.b.d.s.  ' 4 o o o o _ b.b.d.x.C         $.) ( > # # # # Z.Z.",
"Z.Z.Z.# # # # Q ( ( b.b.b.d.b.b.b.d.b.d.b.b.c.c.d.b.b.b.b.b.d.d.d.b.d.b.d._ 3.b.b.b.b.d.d.b.b.b.x.u.3.w.3.w.) ( ( > # # # # Z.Z.",
"Z.Z.Z.# # # # E ) ( d.d.b.b.b.d.b.d.b.b.b.d.b.d.b.d.c.b.d.b.b.b.b.b.d.b.d.b.c.b.d.d.b.b.b.b.d.d.b.c.b.x.d.b.0.( ( p # @ # # Z.Z.",
"Z.Z.Z.# # @ # E ( ( d.d.d.d.d.d.d.d.d.d.d.d.d.d.d.d.d.d.d.d.d.d.d.d.d.d.d.d.d.d.d.d.d.d.d.d.d.d.d.d.d.d.d.d.0.( ( > @ # @ @ Z.Z.",
"Z.Z.Z.# + # + E ( ( ( ( ( ( ( ( ( ( ( ( ( ( ( ( ( ( ( ( ( ( ( ( ( ( ( ( ( ( ( ( ( ( ( ( ( ( ( ( ( ( ( ( ( ( ( ( ( > @ @ @ # Z.Z.",
"Z.Z.Z.+ + # @ W ( ( ( ( ( ( ( ( ( ( ( ( ( ( ( ( ( ( ( ( ( ( ( ( ( ( ( ( ( ( ( ( ( ( ( ( ( ( ( ( ( ( ( ( ( ( ( ( ( > @ @ @ @ Z.Z.",
"Z.Z.Z.# + + @ M N N N N N N N N N N N N N N N N N N N N N N N N N N N N N N N N N N N N N N N N N N N N N N N N N * @ @ @ @ Z.Z.",
"Z.Z.Z.+ @ + @ + + + + + + + + + + + @ + @ + + + + + + + @ + @ + + + + + + + + + @ + @ + + + + + + + + + @ + @ + @ + @ @ @ Z.Z.Z.",
"Z.Z.Z.Z.+ + + + + + + + + + + + + + + + + + + + + + + + + + + + + + + + + + + + + + + + + + + + + + + + + + + + + + + + @ Z.Z.Z.",
"Z.Z.Z.Z.Z.+ + + + + + + + + + + + + + + + + + + + + + + + + + + + + + + + + + + + + + + + + + + + + + + + + + + + + @ @ Z.Z.Z.Z.",
"Z.Z.Z.Z.Z.Z.Z.Z.Z.Z.Z.Z.Z.Z.Z.Z.Z.Z.Z.Z.Z.Z.Z.Z.Z.Z.Z.Z.Z.Z.Z.Z.Z.Z.Z.Z.Z.Z.Z.Z.Z.Z.Z.Z.Z.Z.Z.Z.Z.Z.Z.Z.Z.Z.Z.Z.Z.Z.Z.Z.Z.Z.Z.Z."
};
