/* XPM */
static char *icon_kicad_64[] = {
/* columns rows colors chars-per-pixel */
"64 64 145 2 ",
"   c #A33E03",
".  c #A44006",
"X  c #A6430B",
"o  c #A84A13",
"O  c #AB4F1A",
"+  c #AB521E",
"@  c #876900",
"#  c #8A6B00",
"$  c #906F00",
"%  c #8F7006",
"&  c #947301",
"*  c #997700",
"=  c #9C7A01",
"-  c #8F7518",
";  c #92771C",
":  c #957A1C",
">  c #9A7E1D",
",  c #A27E00",
"<  c #AC5421",
"1  c #AD5827",
"2  c #AF5C2B",
"3  c #B26335",
"4  c #B46638",
"5  c #B5693D",
"6  c #AD6840",
"7  c #B76E44",
"8  c #B7724A",
"9  c #B9734A",
"0  c #BB7750",
"q  c #BB7C57",
"w  c #BB7D59",
"e  c #9E811D",
"r  c #A68101",
"t  c #AB8500",
"y  c #AF8801",
"u  c #B08700",
"i  c #B38B01",
"p  c #B88F00",
"a  c #B48E0D",
"s  c #B79007",
"d  c #BC9200",
"f  c #BD9508",
"g  c #A3851E",
"h  c #A7891E",
"j  c #AB8C1F",
"k  c #B28E12",
"l  c #B99312",
"z  c #BE9814",
"x  c #B4911B",
"c  c #AF8F20",
"v  c #B29120",
"b  c #BB9923",
"n  c #BEA039",
"m  c #C29600",
"M  c #C69A00",
"N  c #C89B00",
"B  c #C49A0A",
"V  c #C59F1B",
"C  c #C09F2A",
"Z  c #C7A52F",
"A  c #BE825F",
"S  c #BF8361",
"D  c #AF8B76",
"F  c #B08C77",
"G  c #C3A743",
"H  c #CBAF4F",
"J  c #C2AB5B",
"K  c #D1B555",
"L  c #C28562",
"P  c #C28B6B",
"I  c #C38E70",
"U  c #C69172",
"Y  c #C99272",
"T  c #C8977A",
"R  c #C7997E",
"E  c #CB9B7F",
"W  c #C8B266",
"Q  c #CEB970",
"!  c #B99580",
"~  c #B09789",
"^  c #ADA99B",
"/  c #B7ACA6",
"(  c #BBABA2",
")  c #BAB1AB",
"_  c #B4B4B4",
"`  c #BCBCBC",
"'  c #C99D83",
"]  c #CBA28A",
"[  c #C7B780",
"{  c #CCBC85",
"}  c #C1A697",
"|  c #CDA791",
" . c #CCA995",
".. c #CEAE9B",
"X. c #D2AB94",
"o. c #D2AF9B",
"O. c #D1B19E",
"+. c #CFB2A1",
"@. c #D2B3A1",
"#. c #D9B9A7",
"$. c #D6BBAB",
"%. c #DABBA9",
"&. c #D6C382",
"*. c #CBC09A",
"=. c #D3C593",
"-. c #D9CB9B",
";. c #CDC6AF",
":. c #D1C7A6",
">. c #D6CDAD",
",. c #D6C1B5",
"<. c #DAC3B5",
"1. c #D7C7BD",
"2. c #D9C6BB",
"3. c #D4CEBB",
"4. c #DDCABF",
"5. c #DDD5B9",
"6. c #C4C4C4",
"7. c #CBC7C5",
"8. c #CCCCCC",
"9. c #D0CDC1",
"0. c #DBCDC4",
"q. c #DACFC8",
"w. c #D9D5C5",
"e. c #D6D3CA",
"r. c #DDD2CC",
"t. c #DFDBCC",
"y. c #D4D4D4",
"u. c #DED6D2",
"i. c #DDD9D5",
"p. c #DCDCDC",
"a. c #E2CEC3",
"s. c #E4D1C6",
"d. c #E2D4CB",
"f. c #E8D6CC",
"g. c #E6DCD6",
"h. c #E2DEDA",
"j. c #E5E1DE",
"k. c #E8E1DD",
"l. c #E4E4E4",
"z. c #E8E4E2",
"x. c #ECE8E6",
"c. c #EBEBEB",
"v. c #F4F4F4",
"b. c #F9F9F9",
"n. c None",
/* pixels */
"n.n.n.N N N N N N N N N N N N N N N N N N N N N N N N N N N N N N N N N n.n.n.n.n.n.n.n.n.n.N N N N N N N N N N M N N N N N N n.",
"n.M N M N M M N N N N M N N N N N M N N N M M M M M M N M M M N M M M M M M n.n.n.n.n.n.n.M N N N N N N M M N N N N N N N M N N ",
"n.M M M M M M M M M M M M M M M M M N N M M M M M M M M M M M N N M M M M M M n.n.n.n.n.n.M M M M M M M M M M M M M M M M M M N ",
"M M M M M M M M M M M M M M M M M M M M M M M M M M M M M M M M M M M M M M M M n.n.n.n.n.n.M M M M M M M M M M M M M M M M M M ",
"M m M M B l.x.l.l.c.l.c.l.c.l.l.l.l.c.l.c.l.c.l.l.c.l.c.l.l.l.l.c.x.l.K M m M m m m n.n.n.n.n.M M m M m M m m M m M M M M M M d ",
"M m m m B l.l.l.l.l.l.l.l.l.c.l.c.l.l.l.l.l.l.x.l.l.x.l.c.l.c.l.l.l.z.l.&.M m m M m M n.n.n.n.n.M m m m M m M m m m m M d M M M ",
"m m m m B l.l.l.c.c.v.c.c.v.c.c.v.c.c.v.c.c.v.c.$.$.s.c.c.c.v.c.c.c.l.l.l.-.B m m m m m n.n.n.n.n.m m M m m m m m M M f M M d M ",
"m m m m m l.l.l.b.b.b.b.b.b.b.b.b.b.b.b.b.b.b.b.o . Y b.b.b.b.b.b.b.v.l.l.l.5.V M d m m M n.n.n.n.n.m m m m m m m d d M d d M d ",
"m m m d f l.l.l.b.b.b.b.b.b.b.b.b.b.b.b.b.b.b.b.o   Y b.b.b.b.b.b.b.b.b.l.l.l.t.Z f M d f M n.n.n.n.n.n.d m m m m d m m m d m m ",
"d d m m B l.p.l.b.b.b.b.b.b.b.b.b.b.b.b.b.b.b.b.o   Y b.b.b.b.b.b.b.b.b.b.l.p.l.p.H M d f f d d n.n.n.n.n.m d m d m d m d m m d ",
"d d d d f p.l.p.v.b.b.b.b.b.b.b.b.b.b.b.b.b.b.b.o   Y b.b.b.b.b.b.b.b.b.b.b.c.p.l.l.Q d d d d d d n.n.n.n.n.d d d d d d d d d d ",
"d d d d f l.p.l.v.b.b.b.b.b.b.b.b.b.b.b.b.b.b.b.o   Y b.b.b.b.b.b.b.b.b.b.b.b.x.p.p.p.=.f d d d d d n.n.n.n.n.d d m d m d m d d ",
"d d p d f p.j.p.v.b.b.b.b.b.b.b.b.b.b.b.b.b.b.b.o   Y b.b.b.b.b.b.b.b.b.b.b.b.b.v.p.p.l.>.z d d d p d n.n.n.n.n.d d d d d d d d ",
"d d p d f p.p.p.v.b.v.b.b.b.b.b.b.b.b.v.b.v.b.b.o   Y b.v.b.b.b.b.b.b.v.b.b.b.b.b.v.p.p.p.w.b s d d d d n.n.n.n.n.n.p d d d d p ",
"p p p d s p.p.p.v.b.b.b.b.b.b.b.b.v.b.b.b.b.b.b.o   Y b.b.b.v.b.b.b.b.b.v.b.b.b.b.v.v.l.p.p.i.G d p p p d p n.n.n.n.n.d d p p p ",
"d p p p s p.p.y.v.b.v.b.v.b.b.b.b.b.v.v.b.v.v.b.o   P b.v.b.b.b.b.b.v.b.b.v.b.v.b.b.b.v.x.p.p.i.W p p p p p p n.n.n.n.n.d p d n.",
"i p p p a p.p.i.v.v.b.b.b.v.v.b.b.v.b.b.v.' O O .   X O O f.b.v.b.v.b.b.b.v.b.v.v.b.v.b.v.l.p.p.p.{ a p i d i p n.n.n.n.n.n.n.n.",
"i p p p s i.p.y.v.v.v.v.v.b.b.v.b.v.v.v.b.U       . .     s.b.v.v.b.v.v.v.b.v.b.b.v.b.v.b.v.c.i.y.p.:.l i d i p p n.n.n.n.n.n.n.",
"i p i i a y.y.p.v.v.b.v.v.v.b.b.v.v.b.b.b.Y     7 7 5     f.b.b.b.v.b.v.b.v.b.v.v.b.v.b.v.b.v.v.p.p.i.3.b i i s p i n.n.n.n.n.n.",
"i i i i s p.y.y.v.v.v.b.b.v.v.v.v.b.v.v.v.Y   X b.b.%.    s.v.v.v.v.v.v.b.v.v.v.v.v.b.v.v.v.b.v.v.p.p.y.e.n i i i i i n.n.n.n.n.",
"i i i y s y.i.y.c.v.v.v.v.v.v.v.v.v.v.v.v.Y   X v.v.#.    s.v.v.v.b.v.v.v.v.v.v.v.v.v.v.v.v.v.v.v.v.p.p.y.y.J i i i i i p n.n.n.",
"i y i s a y.y.y.v.v.v.v.v.v.v.v.v.v.v.v.v.Y   X v.v.%.    a.v.v.v.v.v.v.v.v.v.v.v.v.v.v.v.v.v.v.v.v.v.l.y.p.y.[ y i i u i y n.n.",
"y i y y a y.y.y.c.v.v.v.v.v.v.v.v.v.v.v.v.U   X v.v.#.    a.v.v.v.v.v.v.v.v.v.v.v.v.v.v.v.v.c.v.v.v.v.v.c.y.y.y.+.s y i u y i n.",
"y y y y y p.y.y.c.v.v.v.v.v.v.v.v.v.v.v.v.U   X v.v.#.    a.v.v.v.v.v.v.v.v.v.v.v.v.v.v.v.v.v.v.v.v.v.v.v.x.p.y.y.;.x i u i u y ",
"y y y y y y.y.y.c.v.v.c.v.c.v.v.v.v.v.v.v.P   X v.v.#.    a.v.v.v.v.v.v.v.v.v.v.v.v.c.v.c.v.v.v.c.v.c.v.c.v.v.i.y.y.9.k y y y y ",
"y y y y a y.y.y.c.v.v.v.v.v.v.c.c.v.v.c.v.Y   X #.#.Y     a.v.c.v.c.c.v.v.c.v.c.v.v.v.v.c.v.v.v.v.v.v.v.v.v.v.c.y.y.y.v y t y t ",
"t y t y k 8.y.8.c.c.c.v.v.c.v.c.c.v.c.v.v.Y               a.v.v.v.v.c.v.c.v.v.c.v.c.c.v.v.v.v.c.v.c.c.v.v.c.v.c.8.y.y.v y t t y ",
"t t t t t y.8.y.c.v.v.c.v.c.v.v.v.v.c.v.c.Y               a.c.c.c.v.v.c.v.v.c.v.v.c.v.v.v.c.c.v.c.v.v.v.c.v.v.c.y.8.8.v t t t t ",
"t t t t t 8.8.y.c.v.c.v.c.v.v.c.c.c.c.v.c.g.a.4.    Y 0.4.x.c.v.c.v.v.c.c.c.v.$.L L L L L L L L L A L L O.c.v.v.y.8.8.v t t t t ",
"t t r t a 8.8.y.l.c.c.v.c.c.c.v.c.v.v.c.v.c.c.c.    X.v.v.c.v.c.v.c.c.c.c.v.v.U                 .     . . R c.c.8.y.8.v t t t r ",
", r t t r y.8.8.c.c.c.c.v.c.v.c.c.c.c.c.c.v.c.v.    X.c.c.c.v.c.c.c.c.v.v.c.c.U     . .     . . . .     .   L c.8.8.8.c r t r t ",
"t r r r r 8.8.8.l.v.v.c.c.c.c.c.c.v.c.v.c.c.c.c.    < 4 4 4 4 4 4 4 4 4 3 4 4 5   . s.k.k.c.c.c.c.c.c.%.X . . 0 8.8.8.j r r r r ",
"r r r r r 8.8.8.l.c.c.c.c.c.c.c.c.c.c.v.c.c.c.c.                . .           2     i.c.c.c.c.c.c.c.c.z.4     X ( 7.8.c = r r r ",
"r r , r r 8.8.7.l.c.c.c.c.c.c.c.c.c.h.$.<.k.c.c.    2 7 7 7 7 7 7 7 7 7 7 7 7 7     5 8 0 0 0 0 0 0 0 2     O <.7.8.6.c r r r r ",
", r , r , 8.8.8.l.c.c.c.c.c.c.c.c.c.@.    $.c.z.    I c.l.c.c.c.c.c.c.c.l.x.c.U                           2 u.l.8.7.8.c r r = r ",
"r , , , g 6.6.8.l.c.c.c.l.c.l.c.c.x.#.    $.h.8     S l.c.c.c.c.c.x.l.c.c.c.c.T o o o o o o o o o       7 j.x.c.7.7.6.c = r = r ",
", , , , > 7.7.8.l.c.l.c.l.c.c.c.c.l.#.    o.3     3 h.x.c.c.l.c.c.c.l.c.c.c.l.c.l.c.c.c.l.c.c.c.x.c.c.c.l.c.c.l.6.6.8.h r = r , ",
", , , , , 6.6.6.l.c.c.l.c.x.l.c.l.c.+.    <     8 j.c.x.l.c.c.l.l.l.c.c.l.c.c.l.c.c.l.c.c.c.l.x.c.l.l.c.c.l.c.c.8.8.6.h = r r = ",
", , = , , 8.8.6.h.q.0.0.a.0.0.0.0.0.'         w l.l.l.l.l.c.c.l.c.l.c.l.c.l.l.c.c.l.l.c.l.c.c.l.c.c.c.c.c.c.c.l.6.6.6.h = , = = ",
"= = , = = 6.6.6.$.                          U l.c.c.l.c.l.c.l.c.c.l.l.c.l.l.c.l.l.c.l.l.c.l.x.l.l.l.l.l.l.l.l.l.7.6.6.g , , = , ",
"= = , = , 6.6.6.$.                        + l.x.c.l.c.c.l.c.c.l. .' ' ' ' ' ' ' ' ' ' ' ' ' ' ' ' ' ' ' ' ' ' ' ! 6.6.g = = = , ",
"= = = = = 6.6.6.y...+.o.........o.o.P       w l.l.l.l.l.l.l.l.l.<                                     .       . 1 6.6.g = = = = ",
"= = = = = 6.` 6.l.l.l.c.l.c.l.c.l.x.+.        6 h.l.l.x.x.c.l.c.<   < 1 2 2 1 1 2 2 1 1 2 1 1 2 1 1 1 1 1 1 1 1 6 6.` e * = = = ",
"* = * * = 6.` 6.l.l.l.l.l.l.l.l.l.l.+.    2     3 d.l.l.l.l.l.l.+   e.l.l.l.l.l.l.l.l.l.l.l.l.l.l.l.l.x.l.l.l.l.6.6.6.e * = * = ",
"* * * * - 6.` 6.p.l.l.l.c.l.l.l.l.l.o.    +.8     < e.l.x.l.l.l.<   q.l.o.R R R R R ,.l.l.l.1.@.O.O.O.+.O.O.O.O.` ` 6.e * * * * ",
"* * * * = ` ` ` l.l.c.l.l.l.l.c.x.l...    #.l.A     L l.l.l.l.l.<   r.z.5           U l.l.c.w   . .   .     . . ( 6.` e * * * * ",
"* & * * = 6.6.` p.l.l.l.l.l.l.l.l.l.0.P P 0.l.l.<   S l.l.l.l.l.+   0.l.5           U l.l.l.w .                 ( ` ` e * * * * ",
"& * * * & ` ` ` l.l.l.l.l.l.l.l.l.l.l.z.l.l.l.l.2   U l.l.l.l.l.<   0.l.O.' ' ' ' ' ,.l.l.l.] w q q q q q q q A ) ` ` e & & * & ",
"& & & * * 6.` ` p.l.l.l.l.l.l.l.l.l.l.l.l.l.l.l.2 . I l.l.l.l.l.+   0.l.l.l.l.l.l.l.l.p.l.p.l.l.l.l.j.l.l.p.l.l.` ` ` > & * & & ",
"* & & & & ` ` ` p.l.p.l.l.l.l.l.l.l.l.p.l.l.p.l.2 . I l.l.l.l.l.+   0.l.l.l.l.l.l.l.l.l.l.l.l.l.l.l.l.l.l.l.l.l.` ` ` > & & & & ",
"& & & & % ` ` ` p.l.l.l.l.l.l.l.l.l.l.l.l.l.l.l.2   F z.l.l.l.l.+   q.l.l.l.l.l.l.l.l.l.l.l.l.l.l.l.p.l.l.l.l.l._ ` ` > & & & & ",
"$ & & # & _ ` _ p.l.l.l.l.l.l.p.l.l.p.l.l.q. . .+   8 X. .e.l.l.<   0.u.u.u.u.y.u.i.i.l.l.l.l.l.l.p.+.+.+.+.+.+./ ` _ : $ % & & ",
"& $ $ & & _ ` ` p.l.l.l.p.p.l.l.l.l.l.l.p. .               .l.p.+   0.w             3 l.l.p.l.l.l.1.            F ` ` > & & # & ",
"& # & $ % ` _ ` p.l.p.l.l.l.p.l.p.l.p.l.l. .               .l.l.+   0.w             4 p.l.l.l.p.p.1.            F _ _ : # & # & ",
"$ & # & % ` _ _ y.l.l.p.l.p.l.l.p.l.l.p.p.p.0.0.1.0.1.0.0.i.p.p.<   0.w             3 l.l.p.l.l.l.1.            D _ _ > # & & # ",
"# $ $ # % _ _ _ y.l.l.p.l.l.l.p.l.l.p.j.l.l.l.l.l.j.p.l.p.l.l.l.<   8.$.........+.} $.l.l.p.l.p.l.w.7 7 8 7 7 7 ~ _ _ : $ # $ $ ",
"# % % # % _ _ _ p.p.p.l.l.p.l.p.p.p.l.l.p.l.p.p.l.p.l.p.l.p.l.p.r.q.p.p.l.l.p.l.p.l.p.l.p.l.p.l.p.l.p.l.p.l.l.p._ _ _ : # $ # $ ",
"% # # % % _ _ _ ` ` ` ` ` ` ` ` ` ` ` ` ` ` ` ` ` ` ` ` ` ` ` ` ` ` ` ` ` ` ` ` ` ` ` ` ` ` ` ` ` ` ` ` ` ` ` ` _ _ _ ; # # # # ",
"# # # # % _ _ _ _ _ _ _ _ _ _ _ _ _ _ _ _ _ _ _ _ _ _ _ _ _ _ _ _ _ _ _ _ _ _ _ _ _ _ _ _ _ _ _ _ _ _ _ _ _ _ _ _ _ _ ; # # # # ",
"# # # @ @ ^ ^ ^ ^ ^ ^ ^ ^ ^ ^ ^ ^ ^ ^ ^ ^ ^ ^ ^ ^ ^ ^ ^ ^ ^ ^ ^ ^ ^ ^ ^ ^ ^ ^ ^ ^ ^ ^ ^ ^ ^ ^ ^ ^ ^ ^ ^ ^ ^ ^ ^ ^ ^ ^ ; # # # # ",
"# # @ # % @ @ @ @ @ @ @ @ @ @ @ @ # @ # @ # @ # @ @ @ @ # @ @ # @ @ @ @ @ @ @ @ @ # @ # # @ @ # # # @ @ # @ @ # @ @ # @ # # @ # ",
"n.@ @ @ @ @ @ @ @ @ @ @ @ @ @ @ @ @ @ @ @ @ @ @ @ @ @ @ @ @ @ @ @ @ @ @ @ @ @ @ @ @ @ @ @ @ @ @ @ @ @ @ @ @ @ @ @ @ @ @ # @ @ n.",
"n.n.@ @ @ @ @ @ @ @ @ @ @ @ @ @ @ @ @ @ @ @ @ @ @ @ @ @ @ @ @ @ @ @ @ @ @ @ @ @ @ @ @ @ @ @ @ @ @ @ @ @ @ @ @ @ @ @ @ @ @ @ # n.",
"n.n.n.@ @ @ @ @ @ @ @ @ @ @ @ @ @ @ @ @ @ @ @ @ @ @ @ @ @ @ @ @ @ @ @ @ @ @ @ @ @ @ @ @ @ @ @ @ @ @ @ @ @ @ @ @ @ @ @ @ # n.n.n."
};
