/* XPM */
#ifndef XPMMAIN
extern char *add_text_xpm[];

#else
char * add_text_xpm[] = {
"16 16 4 1",
" 	c None",
".	c #00009B",
"+	c #000098",
"@	c #00005D",
" .............. ",
" .............. ",
" .+   ....   +. ",
" .@   ....    . ",
"      ....      ",
"      ....      ",
"      ....      ",
"      ....      ",
"      ....      ",
"      ....      ",
"      ....      ",
"      ....      ",
"      ....      ",
"     .....+     ",
"    ........    ",
"                "};
#endif
