/* XPM */
#ifndef XPMMAIN
extern char *add_polygon_xpm[];

#else
char * add_polygon_xpm[] = {
"16 16 54 1",
" 	c None",
".	c #161616",
"+	c #161513",
"@	c #080808",
"#	c #222222",
"$	c #F2D7C0",
"%	c #F2BC8E",
"&	c #120C24",
"*	c #00009B",
"=	c #000047",
"-	c #C5C4C4",
";	c #FEE2CA",
">	c #46372A",
",	c #16120F",
"'	c #F2B279",
")	c #F29647",
"!	c #12091F",
"~	c #C5A68C",
"{	c #FEBB7F",
"]	c #462B17",
"^	c #000033",
"/	c #140C04",
"(	c #130900",
"_	c #000000",
":	c #070402",
"<	c #1F1211",
"[	c #00005E",
"}	c #000091",
"|	c #00008C",
"1	c #00009A",
"2	c #00005F",
"3	c #000040",
"4	c #858484",
"5	c #857D75",
"6	c #26262B",
"7	c #FFE3CB",
"8	c #FFC796",
"9	c #25190E",
"0	c #856243",
"a	c #855327",
"b	c #00006E",
"c	c #12122F",
"d	c #12112D",
"e	c #F2D7C1",
"f	c #F2BD8E",
"g	c #130D07",
"h	c #161210",
"i	c #F29747",
"j	c #12091E",
"k	c #120F2A",
"l	c #130901",
"m	c #140B04",
"n	c #130800",
"o	c #130A04",
" .+    @#       ",
".$%&**=-;>      ",
",')!**=~{]^     ",
" /(__  :<[}     ",
"         |12    ",
"          345_  ",
"          6789  ",
"          _0a_  ",
"           bb_  ",
"           **   ",
"           **   ",
"  .+       cd_  ",
" .ef&*****cefg  ",
" h'ij*****k'il  ",
"  mn__    _on_  ",
"                "};
#endif
