/* XPM */
#ifndef XPMMAIN
extern const char *add_line_xpm[];

#else
const char * add_line_xpm[] = {
"16 16 3 1",
" 	c None",
".	c #006900",
"+	c #9B9B9B",
"                ",
"                ",
"......          ",
" ++++.+         ",
"     .+         ",
"     .+         ",
"     .+         ",
"     .+         ",
"     .+         ",
"     .+         ",
"     .+         ",
"     .......... ",
"      ++++++++++",
"                ",
"                ",
"                "};
#endif
