/* XPM */
#ifndef XPMMAIN
extern char *add_entry_xpm[];

#else
char * add_entry_xpm[] = {
"16 16 10 1",
" 	c None",
".	c #006800",
"+	c #006900",
"@	c #6C8B6C",
"#	c #9B9B9B",
"$	c #6C8C6C",
"%	c #9A9A9A",
"&	c #6B8B6B",
"*	c #9C9C9C",
"=	c #6A8B6A",
"                ",
"                ",
"            .   ",
"           +@   ",
"          +@#   ",
"         +$%    ",
"        +$%     ",
"       +&#      ",
"      .&*       ",
"     .&*        ",
"    .&#         ",
"   +=#          ",
"   =#           ",
"   %            ",
"                ",
"                "};
#endif
