/* XPM */
#ifndef XPMMAIN
extern const char *add_zone_cutout[];

#else
const char * add_zone_cutout[] = {
"16 16 3 1",
" 	c None",
".	c #007D00",
"+	c #900000",
"  ..............",
"....    ........",
"... ++++ .......",
".. +     + .....",
". +        + ...",
". +         + ..",
". +         + ..",
". +          + .",
".. +        + ..",
"... +++++++ ... ",
"....    ....    ",
"............    ",
".............   ",
"..............  ",
"  ............. ",
"   ............ "};
#endif
