/* XPM */ 
#ifndef XPMMAIN
extern char *add_component_xpm[];

#else
char * add_component_xpm[] = {
"16 16 67 1",
" 	c None",
"!	c black",
"#	c #D72E2E",
"$	c #D72F2F",
"%	c #D62E2E",
"&	c #D83434",
"'	c #FEFEFF",
"(	c #FBFBFF",
")	c #F6F6FF",
"*	c #F1F1FF",
"+	c #EBE9FC",
",	c #E3C3D7",
"-	c #DA6C77",
".	c #D13838",
"0	c #FF0000",
"1	c #FAFAFF",
"2	c #F5F5FF",
"3	c #F0F0FF",
"4	c #EBEBFF",
"5	c #E6E6FF",
"6	c #E1E1FF",
"7	c #DBDBFF",
"8	c #D6555F",
"9	c #BD5C5C",
":	c #9B9B9B",
";	c #F4F4FF",
"<	c #EFEFFF",
"=	c #EAEAFF",
">	c #E5E5FF",
"?	c #E0E0FF",
"@	c #D6D6FF",
"A	c #D390AC",
"B	c #CB4444",
"C	c #E4E4FF",
"D	c #DFDFFF",
"E	c #DADAFF",
"F	c #D5D5FF",
"G	c #D0D0FF",
"H	c #CCB8E6",
"I	c #D73334",
"J	c #E9E9FF",
"K	c #D4D4FF",
"L	c #CFCFFF",
"M	c #CACAFF",
"N	c #CB8BAF",
"O	c #CB4141",
"P	c #E3E3FF",
"Q	c #DEDEFF",
"R	c #D9D9FF",
"S	c #C9C9FF",
"T	c #C4C4FF",
"U	c #D05364",
"V	c #B96262",
"W	c #9C9C9C",
"X	c #DDDDFF",
"Y	c #D8D8FF",
"Z	c #D3D3FF",
"[	c #CECEFF",
"]	c #C9C7FC",
"^	c #C7A8D8",
"_	c #CE647C",
"`	c #CD3E3E",
"a	c #9E9595",
"b	c #D62F2F",
"c	c #CC4141",
"d	c #BC5C5C",
"e	c #9D9595",
"                ",
"                ",
"                ",
"   ######$%     ",
"   &'()*+,-.    ",
"0##&123456789   ",
"  :&;<=>?7@AB   ",
"   &<=CDEFGH###0",
"   IJCDEKLMNO:::",
"   IPQRKLSTUVW  ",
"0##IXYZ[]^_`a   ",
"  :#####bcde:   ",
"    ::::::::    ",
"                ",
"                ",
"                "};
#endif
