/* XPM */
#ifndef XPMMAIN
extern char *anchor_xpm[];

#else
char * anchor_xpm[] = {
"16 16 2 1",
" 	c None",
".	c #000000",
"       ..       ",
"      ....      ",
"     ..  ..     ",
"     ..  ..     ",
"      ....      ",
"  ............  ",
"   ...........  ",
"       ..       ",
".      ..      .",
"..     ..     ..",
"..     ..     ..",
"..     ..     ..",
". ..  ....   . .",
"  ............  ",
"   ..........   ",
"     ......     "};
#endif
