/* XPM */
const char *annotate_down_right_xpm[] = {
/* columns rows colors chars-per-pixel */
"16 16 16 1",
"= c #9A524C",
": c #405814",
"O c #932722",
". c #BAA7A6",
"X c #549454",
"+ c #7C210E",
"  c None",
"$ c #8C0505",
"- c #AE7879",
"@ c #097409",
"* c #867258",
"& c #308430",
"# c #783820",
"; c #9E3838",
"% c #403F04",
"o c #7FA57F",
/* pixels */
" .X.        oX  ",
"O+@#O      .@@o ",
"O$%$$      &@@o ",
"*$$$=     &@@@o ",
".$$$.   -#%&&@o ",
" +$#.-;$$$+.X@o ",
" *+*O$$$$$= X@o ",
" o@X-=*:$$. X@o ",
" o@X .@%$= $#@O;",
" o@X &@$$. $$%$O",
" o@X&@&$;  =$$$-",
" o@@@&     -$$$ ",
" X@@@.      $$= ",
" X@@o       :+o ",
" o@o        X@o ",
"            o&. "
};
