/* XPM */
#ifndef  XPMMAIN
extern char *auto_associe_xpm[];

#else
char *auto_associe_xpm[] = {
/* width height num_colors chars_per_pixel */
"16 16 124 2",
"  	c None",
". 	c #160A00",
"+ 	c #FF7800",
"@ 	c #000000",
"# 	c #231000",
"$ 	c #E1DFDE",
"% 	c #44260C",
"& 	c #E86D00",
"* 	c #FFFFFF",
"= 	c #C35B00",
"- 	c #FAF6F3",
"; 	c #A38F7C",
"> 	c #C7B4A5",
", 	c #FDBD85",
"' 	c #FFBF87",
") 	c #FFF3EC",
"! 	c #FEE6D6",
"~ 	c #D8BDA8",
"{ 	c #C7874F",
"] 	c #F9B880",
"^ 	c #FFF5EF",
"/ 	c #FFE8D8",
"( 	c #FFDBC2",
"_ 	c #FFCEAB",
": 	c #F4C8A9",
"< 	c #D6B69C",
"[ 	c #F6EDE6",
"} 	c #F3F3F3",
"| 	c #878787",
"1 	c #FFEADC",
"2 	c #FFDDC5",
"3 	c #FFD0AF",
"4 	c #FFC298",
"5 	c #FFB582",
"6 	c #FDB380",
"7 	c #EAC6A8",
"8 	c #F7EADF",
"9 	c #FDFDFD",
"0 	c #272727",
"a 	c #FFDFC8",
"b 	c #FFD1B2",
"c 	c #FFC49C",
"d 	c #FFB785",
"e 	c #FFAA6F",
"f 	c #FF9D58",
"g 	c #FE9248",
"h 	c #F9C197",
"i 	c #FBEEE4",
"j 	c #FEFEFE",
"k 	c #C7C7C7",
"l 	c #FFD3B5",
"m 	c #FFC69F",
"n 	c #FFB988",
"o 	c #FFAC72",
"p 	c #FF9F5B",
"q 	c #FF9145",
"r 	c #FE8835",
"s 	c #030202",
"t 	c #030303",
"u 	c #FFC8A2",
"v 	c #FFBB8C",
"w 	c #FFAE75",
"x 	c #DD8C52",
"y 	c #0E0804",
"z 	c #BC9A7F",
"A 	c #080707",
"B 	c #DCDBD9",
"C 	c #080808",
"D 	c #CBCBCB",
"E 	c #020202",
"F 	c #FFBD8F",
"G 	c #FFB079",
"H 	c #FFA262",
"I 	c #EDEBEA",
"J 	c #B1B1AF",
"K 	c #0E0D0D",
"L 	c #484641",
"M 	c #9E9C95",
"N 	c #0E0E0E",
"O 	c #878680",
"P 	c #1F1F1F",
"Q 	c #FFB27C",
"R 	c #FFA465",
"S 	c #FE9A55",
"T 	c #0C0906",
"U 	c #9C9B96",
"V 	c #908F89",
"W 	c #8F8C84",
"X 	c #96938C",
"Y 	c #807C73",
"Z 	c #FFA669",
"` 	c #FAA162",
" .	c #A37E60",
"..	c #A09185",
"+.	c #0E0A07",
"@.	c #595854",
"#.	c #605E57",
"$.	c #888681",
"%.	c #76736A",
"&.	c #E1A074",
"*.	c #442102",
"=.	c #010000",
"-.	c #484540",
";.	c #605D56",
">.	c #42413E",
",.	c #272623",
"'.	c #36332F",
").	c #6D6A62",
"!.	c #474540",
"~.	c #ECECEB",
"{.	c #B5B3AD",
"].	c #9E9B94",
"^.	c #595753",
"/.	c #201F1D",
"(.	c #090807",
"_.	c #181715",
":.	c #E5E4E2",
"<.	c #64625B",
"[.	c #5F5D56",
"}.	c #35332F",
"|.	c #151513",
"1.	c #8B8987",
"2.	c #DEDCDA",
"3.	c #65625B",
"  .                   + + +     ",
"  @ #                 + + +     ",
"  @ $ %     & * =     + * + @ @ ",
"  @ * - ; > , ' ' * * + + + * @ ",
"  @ * ) ! ~ { ] ' * * + + + * @ ",
"@ @ ^ / ( _ : < [ * * * * } | @ ",
"  @ 1 2 3 4 5 6 7 8 * * 9 0     ",
"  @ a b c d e f g h i j k @     ",
"  @ l m n o p q r s t t k @     ",
"  @ u v w x y y z A B C D E @   ",
"@ @ F G H y I J K L M L N O P @ ",
"  @ Q R S T U V M M M W X Y L @ ",
"  @ Z `  ...+.M M @.#.$.Y %.N @ ",
"  @ &.*.=.@ -.M ;.>.,.'.M ).!.@ ",
"  @ #   @ ~.{.].^./.(._.:.Y <.[.",
"  .     @ @ -.].$.}.|.1.2.3.!.@ "};
#endif
