/* XPM */
#ifndef XPMMAIN
extern const char * axis3d_xpm[];

#else
const char * axis3d_xpm[] = {
"16 15 3 1",
"   c None",
".	c Blue",
"x	c Red",
"    .           ",
"   ...          ",
"    .           ",
"    .           ",
"    .           ",
"    .           ",
"    .         . ",
"    ............",
"   .          . ",
"   .            ",
"  .             ",
"  .             ",
" ..             ",
" .              ",
"                "
};
#endif
