/* XPM */ 
#ifndef XPMMAIN
extern char *cancel_xpm[];

#else
char * cancel_xpm[] = {
"16 16 103 2",
"  	c None",
"! 	c black",
"# 	c #422019",
"$ 	c #391C17",
"% 	c #0D0D0D",
"& 	c #020202",
"' 	c #050505",
"( 	c #321813",
") 	c #DD8D7D",
"* 	c #D05F49",
"+ 	c #4E1D14",
", 	c #2D1714",
"- 	c #C16E5E",
". 	c #AD4632",
"0 	c #090504",
"1 	c #3E1E18",
"2 	c #D3634E",
"3 	c #C95641",
"4 	c #C64D37",
"5 	c #4C1B13",
"6 	c #301914",
"7 	c #D9705B",
"8 	c #C24129",
"9 	c #962E1C",
": 	c #120502",
"; 	c #0E0B09",
"< 	c #C34C36",
"= 	c #C03B22",
"> 	c #BF3B22",
"? 	c #C44D36",
"@ 	c #5C251B",
"A 	c #1D0F0C",
"B 	c #D66F5B",
"C 	c #B93B24",
"D 	c #922C1B",
"E 	c #4E160D",
"F 	c #2F1510",
"G 	c #BE3B22",
"H 	c #B23821",
"I 	c #3B1711",
"J 	c #CA6D5B",
"K 	c #B83E27",
"L 	c #822617",
"M 	c #2C0B05",
"N 	c #2B130E",
"O 	c #BD3B22",
"P 	c #BA3B22",
"Q 	c #B73922",
"R 	c #B45B4A",
"S 	c #CE523A",
"T 	c #992F1D",
"U 	c #200804",
"V 	c #3C1812",
"W 	c #BA3A22",
"X 	c #C84E37",
"Y 	c #B63922",
"Z 	c #2F0E07",
"[ 	c #49160C",
"] 	c #CE6653",
"^ 	c #BD3C24",
"_ 	c #BB3B22",
"` 	c #B43922",
"a 	c #2C140F",
"b 	c #1B0704",
"c 	c #D17F70",
"d 	c #BE3F27",
"e 	c #B63D26",
"f 	c #BC3B22",
"g 	c #B03720",
"h 	c #381914",
"i 	c #CB7868",
"j 	c #BD3F28",
"k 	c #922F1E",
"l 	c #090909",
"m 	c #B43A23",
"n 	c #25120F",
"o 	c #010101",
"p 	c #572119",
"q 	c #CC7261",
"r 	c #B93A22",
"s 	c #96311E",
"t 	c #200B08",
"u 	c #411710",
"v 	c #A23A26",
"w 	c #080505",
"x 	c #230A06",
"y 	c #CD7261",
"z 	c #BD3D25",
"{ 	c #98311E",
"| 	c #240D09",
"} 	c #C23B22",
"~ 	c #AD3620",
" !	c #26110D",
"!!	c #0F0907",
"#!	c #912F1E",
"$!	c #94301E",
"%!	c #180906",
"&!	c #A13521",
"'!	c #26110E",
"(!	c #2C0E09",
")!	c #1C0905",
"*!	c #341A15",
"+!	c #311712",
"                                ",
"    # $ %               & '     ",
"  ( ) * + %           , - . 0   ",
"  1 2 3 4 5         6 7 8 9 :   ",
"  ; < = > ? @     A B C D E     ",
"    F < G G H I ' J K L M       ",
"      N < O P Q R S T U         ",
"        V < W W X Y Z &         ",
"        & [ ] ^ W _ ` a         ",
"        b c d e Q f O g N       ",
"      h i j k l I < G G m n     ",
"  o p q r s t     u ? > = v w   ",
"  x y z { |         5 4 } ~  !  ",
"  !!#!$!%!          % + X &!'!  ",
"    (!)!              % *!+!    ",
"                                "};
#endif
