/* XPM */
#ifndef XPMMAIN
extern char *delete_arc_xpm[];

#else
char * delete_arc_xpm[] = {
"16 16 138 2",
"  	c None",
". 	c #00009B",
"+ 	c #000099",
"@ 	c #000097",
"# 	c #000096",
"$ 	c #000073",
"% 	c #000039",
"& 	c #000036",
"* 	c #000051",
"= 	c #000086",
"- 	c #00008E",
"; 	c #000093",
"> 	c #000085",
", 	c #000074",
"' 	c #0D0D0D",
") 	c #414141",
"! 	c #494949",
"~ 	c #3D3D3D",
"{ 	c #2B2B2B",
"] 	c #000001",
"^ 	c #010177",
"/ 	c #000082",
"( 	c #000000",
"_ 	c #838170",
": 	c #EEEBD6",
"< 	c #F0EFE7",
"[ 	c #ECEBE2",
"} 	c #C5C4B8",
"| 	c #525146",
"1 	c #01013F",
"2 	c #0F0F0F",
"3 	c #C0BEA3",
"4 	c #BFBDA3",
"5 	c #797866",
"6 	c #47463F",
"7 	c #262624",
"8 	c #35342D",
"9 	c #858371",
"0 	c #9E9C86",
"a 	c #A19F89",
"b 	c #A3A18B",
"c 	c #2A2A2A",
"d 	c #D1CFBA",
"e 	c #DAD8C2",
"f 	c #E0DECD",
"g 	c #B7B5A0",
"h 	c #63615A",
"i 	c #383735",
"j 	c #3B3B32",
"k 	c #605F52",
"l 	c #989681",
"m 	c #B5B39A",
"n 	c #B1B097",
"o 	c #A2A089",
"p 	c #E6E2D1",
"q 	c #F2EFE7",
"r 	c #F0EFE2",
"s 	c #E8E7D8",
"t 	c #E3E0D0",
"u 	c #D3D0BC",
"v 	c #C1BFA5",
"w 	c #ADAB92",
"x 	c #BEBCA2",
"y 	c #C4C2AB",
"z 	c #B6B49B",
"A 	c #787665",
"B 	c #888774",
"C 	c #EFEBD0",
"D 	c #F9F6E7",
"E 	c #F7F3EB",
"F 	c #F6F5EC",
"G 	c #F6F5EA",
"H 	c #F3F1E4",
"I 	c #EAE8D7",
"J 	c #DCDBC9",
"K 	c #9B9988",
"L 	c #626154",
"M 	c #575649",
"N 	c #515045",
"O 	c #727064",
"P 	c #9D9B8F",
"Q 	c #E2DFC6",
"R 	c #E7E3CD",
"S 	c #E0DEC9",
"T 	c #CFCFC9",
"U 	c #8C8B7E",
"V 	c #757463",
"W 	c #676658",
"X 	c #424138",
"Y 	c #282721",
"Z 	c #1E1E1A",
"` 	c #33332F",
" .	c #4A4843",
"..	c #676661",
"+.	c #6F6E65",
"@.	c #6A6A63",
"#.	c #6D6B5C",
"$.	c #57564A",
"%.	c #383830",
"&.	c #161514",
"*.	c #191915",
"=.	c #1E1D18",
"-.	c #292922",
";.	c #9E9E93",
">.	c #4C4C3F",
",.	c #35352F",
"'.	c #292925",
").	c #2E2E29",
"!.	c #0E0E0C",
"~.	c #0A0A08",
"{.	c #0F0F0C",
"].	c #3D3D37",
"^.	c #33332A",
"/.	c #23231E",
"(.	c #2A2A23",
"_.	c #A3A297",
":.	c #B5B4AC",
"<.	c #706F66",
"[.	c #9F9F90",
"}.	c #737262",
"|.	c #3F3F34",
"1.	c #68685A",
"2.	c #38382E",
"3.	c #68685E",
"4.	c #3E3E33",
"5.	c #25251F",
"6.	c #2B2B24",
"7.	c #ABABA1",
"8.	c #D7D7D0",
"9.	c #89897E",
"0.	c #D4D3CC",
"a.	c #86867A",
"b.	c #57564E",
"c.	c #919185",
"d.	c #49493C",
"e.	c #77776A",
"f.	c #4F4F41",
"g.	c #282821",
"      . . . . .                 ",
"  . . . . . . . . + @           ",
"    # $ %   & * = . . -         ",
"                    ; . >       ",
"                      # . ,     ",
"            ' ) ! ~ { ] ^ /     ",
"        ( ( _ : < [ } | ] ] 1   ",
"      2 3 4 5 6 7 8 9 0 a b (   ",
"    c d e f g h i j k l m n o ( ",
"    ( p q r s t u v w x y z A ( ",
"    ( B C D E F G H I J K L M ( ",
"    ( N O P Q R S T U V W X Y ( ",
"      Z `  ...+.@.#.$.%.&.*.=.  ",
"      -.;.>.,.'.).!.~.{.].^./.  ",
"      (._.:.<.[.}.|.1.2.3.4.5.  ",
"      6.7.8.9.0.a.b.c.d.e.f.g.  "};
#endif
