/* XPM */
#ifndef XPMMAIN
extern char *delete_rectangle_xpm[];

#else
char * delete_rectangle_xpm[] = {
"16 16 114 2",
"  	c None",
". 	c #00009B",
"+ 	c #0D0D0D",
"@ 	c #414141",
"# 	c #494949",
"$ 	c #3D3D3D",
"% 	c #2B2B2B",
"& 	c #000001",
"* 	c #010177",
"= 	c #000000",
"- 	c #838170",
"; 	c #EEEBD6",
"> 	c #F0EFE7",
", 	c #ECEBE2",
"' 	c #C5C4B8",
") 	c #525146",
"! 	c #010101",
"~ 	c #0F0F0F",
"{ 	c #C0BEA3",
"] 	c #BFBDA3",
"^ 	c #797866",
"/ 	c #47463F",
"( 	c #262624",
"_ 	c #35342D",
": 	c #858371",
"< 	c #9E9C87",
"[ 	c #A19F89",
"} 	c #A3A18A",
"| 	c #2A2A2A",
"1 	c #D1CFBA",
"2 	c #DAD8C2",
"3 	c #E0DECD",
"4 	c #B7B5A0",
"5 	c #63615A",
"6 	c #383735",
"7 	c #3B3B32",
"8 	c #605F52",
"9 	c #989682",
"0 	c #B5B39A",
"a 	c #B1B096",
"b 	c #A2A089",
"c 	c #E6E2D1",
"d 	c #F2EFE7",
"e 	c #F0EFE2",
"f 	c #E8E7D8",
"g 	c #E3E0D0",
"h 	c #D3D0BC",
"i 	c #C1BFA5",
"j 	c #ADAB92",
"k 	c #BEBCA3",
"l 	c #C4C2AB",
"m 	c #B6B49A",
"n 	c #787665",
"o 	c #888775",
"p 	c #EFEBD1",
"q 	c #F9F6E8",
"r 	c #F7F3EC",
"s 	c #F6F5ED",
"t 	c #F6F5EB",
"u 	c #F3F1E5",
"v 	c #EAE8D8",
"w 	c #DCDBCA",
"x 	c #9B9988",
"y 	c #626153",
"z 	c #575649",
"A 	c #00004D",
"B 	c #515046",
"C 	c #727065",
"D 	c #9D9B90",
"E 	c #E2DFC7",
"F 	c #E7E3CE",
"G 	c #E0DECA",
"H 	c #CFCFCA",
"I 	c #8C8B7F",
"J 	c #757464",
"K 	c #676657",
"L 	c #424137",
"M 	c #282721",
"N 	c #1E1E1A",
"O 	c #33332F",
"P 	c #4A4843",
"Q 	c #676661",
"R 	c #6F6E65",
"S 	c #6A6A63",
"T 	c #6D6B5C",
"U 	c #57564A",
"V 	c #383830",
"W 	c #161514",
"X 	c #191915",
"Y 	c #1E1D18",
"Z 	c #292922",
"` 	c #9E9E93",
" .	c #4C4C3F",
"..	c #35352F",
"+.	c #292925",
"@.	c #2E2E29",
"#.	c #0E0E0C",
"$.	c #0A0A08",
"%.	c #0F0F0C",
"&.	c #3D3D37",
"*.	c #33332A",
"=.	c #23231E",
"-.	c #2A2A23",
";.	c #A3A297",
">.	c #B5B4AC",
",.	c #706F66",
"'.	c #9F9F90",
").	c #737262",
"!.	c #3F3F34",
"~.	c #68685A",
"{.	c #38382E",
"].	c #68685E",
"^.	c #3E3E33",
"/.	c #25251F",
". . . . . . . . . . . . .       ",
". . . . . . . . . . . . .       ",
". .                   . .       ",
". .                   . .       ",
". .                   . .       ",
". .                   . .       ",
". .         + @ # $ % & *       ",
". .     = = - ; > , ' ) & =     ",
". . ! ~ { ] ^ / ( _ : < [ } =   ",
". . | 1 2 3 4 5 6 7 8 9 0 a b = ",
". . = c d e f g h i j k l m n = ",
". . & o p q r s t u v w x y z = ",
". . A B C D E F G H I J K L M = ",
"      N O P Q R S T U V W X Y   ",
"      Z `  ...+.@.#.$.%.&.*.=.  ",
"      -.;.>.,.'.).!.~.{.].^./.  "};
#endif
