/* XPM */
#ifndef XPMMAIN
extern char *delete_xpm[];

#else
char * delete_xpm[] = {
"16 16 152 2",
"  	c None",
". 	c #0E0E0E",
"+ 	c #424242",
"@ 	c #4A4A4A",
"# 	c #3E3E3E",
"$ 	c #2C2C2C",
"% 	c #000000",
"& 	c #858371",
"* 	c #F0EDD8",
"= 	c #F2F1E9",
"- 	c #EEEDE4",
"; 	c #C7C6BA",
"> 	c #535246",
", 	c #101010",
"' 	c #C2C0A5",
") 	c #C1BFA5",
"! 	c #7A7967",
"~ 	c #484740",
"{ 	c #272725",
"] 	c #36352E",
"^ 	c #878572",
"/ 	c #A09E88",
"( 	c #A3A18A",
"_ 	c #A5A38C",
": 	c #2B2B2B",
"< 	c #D3D1BC",
"[ 	c #DCDAC4",
"} 	c #E2E0CF",
"| 	c #B9B7A2",
"1 	c #64625B",
"2 	c #393836",
"3 	c #3C3C33",
"4 	c #616053",
"5 	c #9A9883",
"6 	c #B7B59B",
"7 	c #B3B298",
"8 	c #A4A28B",
"9 	c #E8E4D3",
"0 	c #F4F1E9",
"a 	c #F2F1E4",
"b 	c #EAE9DA",
"c 	c #E5E2D2",
"d 	c #D5D2BE",
"e 	c #C3C1A7",
"f 	c #AFAD94",
"g 	c #C0BEA4",
"h 	c #C6C4AC",
"i 	c #B8B69C",
"j 	c #797766",
"k 	c #8A8975",
"l 	c #F1EDD2",
"m 	c #FBF8E9",
"n 	c #F9F5ED",
"o 	c #F8F7EE",
"p 	c #F8F7EC",
"q 	c #F5F3E6",
"r 	c #ECEAD9",
"s 	c #DEDDCB",
"t 	c #9D9B89",
"u 	c #636254",
"v 	c #58574A",
"w 	c #525146",
"x 	c #737165",
"y 	c #9F9D91",
"z 	c #E4E1C8",
"A 	c #E9E5CF",
"B 	c #E2E0CB",
"C 	c #D1D1CB",
"D 	c #8E8D7F",
"E 	c #767564",
"F 	c #686758",
"G 	c #434238",
"H 	c #292822",
"I 	c #1F1F1B",
"J 	c #343430",
"K 	c #4B4944",
"L 	c #686762",
"M 	c #706F66",
"N 	c #6B6B64",
"O 	c #6E6C5D",
"P 	c #58574B",
"Q 	c #393931",
"R 	c #171615",
"S 	c #1A1A16",
"T 	c #1F1E19",
"U 	c #2A2A23",
"V 	c #A0A095",
"W 	c #4D4D40",
"X 	c #363630",
"Y 	c #2A2A26",
"Z 	c #2F2F2A",
"` 	c #0F0F0D",
" .	c #0B0B09",
"..	c #10100D",
"+.	c #3E3E38",
"@.	c #34342B",
"#.	c #24241F",
"$.	c #2B2B24",
"%.	c #A5A499",
"&.	c #B7B6AE",
"*.	c #717067",
"=.	c #A1A192",
"-.	c #747363",
";.	c #404035",
">.	c #69695B",
",.	c #39392F",
"'.	c #69695F",
").	c #3F3F34",
"!.	c #262620",
"~.	c #2C2C25",
"{.	c #ADADA3",
"].	c #D9D9D2",
"^.	c #8B8B7F",
"/.	c #D6D5CE",
"(.	c #88887B",
"_.	c #58574F",
":.	c #939387",
"<.	c #4A4A3D",
"[.	c #78786B",
"}.	c #505042",
"|.	c #292922",
"1.	c #DADAD3",
"2.	c #8F8E81",
"3.	c #DDDDD4",
"4.	c #ACAB99",
"5.	c #5D5D52",
"6.	c #A0A093",
"7.	c #79796C",
"8.	c #7E7E75",
"9.	c #D8D8D1",
"0.	c #8D8D80",
"a.	c #DDDDD3",
"b.	c #444438",
"c.	c #282822",
"d.	c #272721",
"e.	c #43433D",
"f.	c #8E8E86",
"g.	c #5E5E55",
"h.	c #DADAD0",
"i.	c #949484",
"j.	c #5D5D53",
"k.	c #23231D",
"l.	c #060606",
"m.	c #42413A",
"n.	c #8F8F7B",
"o.	c #7A7A6C",
"p.	c #44443C",
"q.	c #6C6C5E",
"r.	c #35352C",
"s.	c #2E2E29",
"t.	c #0F0F0F",
"u.	c #050505",
"          . + @ # $ %           ",
"      % % & * = - ; > % %       ",
"    , ' ) ! ~ { ] ^ / ( _ %     ",
"  : < [ } | 1 2 3 4 5 6 7 8 %   ",
"  % 9 0 a b c d e f g h i j %   ",
"  % k l m n o p q r s t u v %   ",
"  % w x y z A B C D E F G H %   ",
"    I J K L M N O P Q R S T     ",
"    U V W X Y Z `  ...+.@.#.    ",
"    $.%.&.*.=.-.;.>.,.'.).!.    ",
"    ~.{.].^./.(._.:.<.[.}.|.    ",
"    ~.{.1.2.3.4.5.6.W 7.}.|.    ",
"    $.8.9.0.a.4.5.6.W [.b.c.    ",
"    d.e.f.g.h.4.5.i.W j.c.k.    ",
"      l.l.m.n.o.p.q.r.s.%       ",
"          l.% t.u.% %           "};
#endif
