/* XPM */
#ifndef XPMMAIN
extern char *delete_circle_xpm[];

#else
char * delete_circle_xpm[] = {
"16 16 126 2",
"  	c None",
". 	c #00009B",
"+ 	c #000096",
"@ 	c #00008C",
"# 	c #000053",
"$ 	c #00008A",
"% 	c #00009A",
"& 	c #000073",
"* 	c #00007A",
"= 	c #000092",
"- 	c #00006F",
"; 	c #000083",
"> 	c #0D0D0D",
", 	c #414141",
"' 	c #494949",
") 	c #3D3D3D",
"! 	c #2B2B2B",
"~ 	c #000001",
"{ 	c #010177",
"] 	c #000081",
"^ 	c #000000",
"/ 	c #838170",
"( 	c #EEEBD6",
"_ 	c #F0EFE7",
": 	c #ECEBE2",
"< 	c #C5C4B8",
"[ 	c #525146",
"} 	c #010101",
"| 	c #010140",
"1 	c #0F0F0F",
"2 	c #C0BEA3",
"3 	c #BFBDA3",
"4 	c #797866",
"5 	c #47463F",
"6 	c #262624",
"7 	c #35342D",
"8 	c #858371",
"9 	c #9E9C87",
"0 	c #A19F89",
"a 	c #A3A18B",
"b 	c #2A2A2B",
"c 	c #D1CFBA",
"d 	c #DAD8C2",
"e 	c #E0DECD",
"f 	c #B7B5A0",
"g 	c #63615A",
"h 	c #383735",
"i 	c #3B3B32",
"j 	c #605F53",
"k 	c #989682",
"l 	c #B5B39A",
"m 	c #B1B096",
"n 	c #A2A089",
"o 	c #E6E2D1",
"p 	c #F2EFE7",
"q 	c #F0EFE2",
"r 	c #E8E7D8",
"s 	c #E3E0D0",
"t 	c #D3D0BC",
"u 	c #C1BFA6",
"v 	c #ADAB93",
"w 	c #BEBCA3",
"x 	c #C4C2AB",
"y 	c #B6B49A",
"z 	c #787665",
"A 	c #888775",
"B 	c #EFEBD1",
"C 	c #F9F6E8",
"D 	c #F7F3EC",
"E 	c #F6F5ED",
"F 	c #F6F5EB",
"G 	c #F3F1E5",
"H 	c #EAE8D8",
"I 	c #DCDBCA",
"J 	c #9B9987",
"K 	c #626153",
"L 	c #575649",
"M 	c #00003B",
"N 	c #515046",
"O 	c #727065",
"P 	c #9D9B90",
"Q 	c #E2DFC7",
"R 	c #E7E3CE",
"S 	c #E0DECA",
"T 	c #CFCFCA",
"U 	c #8C8B7F",
"V 	c #757463",
"W 	c #676657",
"X 	c #424137",
"Y 	c #282721",
"Z 	c #1E1E1A",
"` 	c #33332F",
" .	c #4A4844",
"..	c #676662",
"+.	c #6F6E66",
"@.	c #6A6A64",
"#.	c #6D6B5C",
"$.	c #57564A",
"%.	c #383830",
"&.	c #161514",
"*.	c #191915",
"=.	c #1E1D18",
"-.	c #292922",
";.	c #9E9E93",
">.	c #4C4C3F",
",.	c #35352F",
"'.	c #292925",
").	c #2E2E29",
"!.	c #0E0E0C",
"~.	c #0A0A08",
"{.	c #0F0F0C",
"].	c #3D3D37",
"^.	c #33332A",
"/.	c #23231E",
"(.	c #2A2A23",
"_.	c #A3A297",
":.	c #B5B4AC",
"<.	c #706F66",
"[.	c #9F9F90",
"}.	c #737262",
"|.	c #3F3F34",
"1.	c #68685A",
"2.	c #38382E",
"3.	c #68685E",
"4.	c #3E3E33",
"5.	c #25251F",
"          . . . .               ",
"      . . . . . . . +           ",
"    . . @ #     # $ . %         ",
"  . . &             * . =       ",
"  . @                 = . -     ",
". . #                   . ;     ",
". .         > , ' ) ! ~ { ]     ",
". .     ^ ^ / ( _ : < [ ~ ~ }   ",
". . | 1 2 3 4 5 6 7 8 9 0 a ^   ",
"  . b c d e f g h i j k l m n ^ ",
"  + ~ o p q r s t u v w x y z ^ ",
"    ~ A B C D E F G H I J K L ^ ",
"    M N O P Q R S T U V W X Y ^ ",
"      Z `  ...+.@.#.$.%.&.*.=.  ",
"      -.;.>.,.'.).!.~.{.].^./.  ",
"      (._.:.<.[.}.|.1.2.3.4.5.  "};
#endif
