/* XPM */
#ifndef XPMMAIN
extern char *delete_line_xpm[];

#else
char * delete_line_xpm[] = {
"16 16 131 2",
"  	c None",
". 	c #007D00",
"+ 	c #4D8B4D",
"@ 	c #9B9B9B",
"# 	c #060606",
"$ 	c #202020",
"% 	c #242424",
"& 	c #1E1E1E",
"* 	c #151515",
"= 	c #000000",
"- 	c #48473F",
"; 	c #97968B",
"> 	c #9C9C98",
", 	c #94948F",
"' 	c #787872",
") 	c #292822",
"! 	c #080808",
"~ 	c #605F51",
"{ 	c #5F5E51",
"] 	c #7E7D6B",
"^ 	c #9A988A",
"/ 	c #8B8A85",
"( 	c #908F87",
"_ 	c #A5A494",
": 	c #787766",
"< 	c #504F44",
"[ 	c #515045",
"} 	c #161616",
"| 	c #706F65",
"1 	c #CDCBB3",
"2 	c #CFCDB8",
"3 	c #989683",
"4 	c #55534C",
"5 	c #2F2F2D",
"6 	c #383830",
"7 	c #737161",
"8 	c #9B9984",
"9 	c #ABA991",
"0 	c #AAA990",
"a 	c #515044",
"b 	c #DBD8C5",
"c 	c #E6E3D4",
"d 	c #E8E6D7",
"e 	c #CFCEBC",
"f 	c #A3A095",
"g 	c #858379",
"h 	c #7E7D6C",
"i 	c #868572",
"j 	c #ABA992",
"k 	c #BDBBA2",
"l 	c #B4B298",
"m 	c #8D8B77",
"n 	c #B7B5A2",
"o 	c #F0EDDB",
"p 	c #F4F2E4",
"q 	c #EFEDE1",
"r 	c #ECEADE",
"s 	c #E4E2D3",
"t 	c #DAD8C4",
"u 	c #CBC9B5",
"v 	c #CDCBB6",
"w 	c #B0AE99",
"x 	c #8C8A77",
"y 	c #676657",
"z 	c #6D6C5C",
"A 	c #B0AD9A",
"B 	c #CBC8BB",
"C 	c #ECE9D8",
"D 	c #EEECDC",
"E 	c #EBE9D9",
"F 	c #E1E0D6",
"G 	c #BBBAAA",
"H 	c #A8A796",
"I 	c #817F6F",
"J 	c #525145",
"K 	c #3F3F35",
"L 	c #383730",
"M 	c #525149",
"N 	c #747269",
"O 	c #A4A293",
"P 	c #ABA899",
"Q 	c #A5A496",
"R 	c #9E9D92",
"S 	c #727164",
"T 	c #565649",
"U 	c #3F3E36",
"V 	c #2E2D26",
"W 	c #23221D",
"X 	c #24241E",
"Y 	c #696961",
"Z 	c #4B4A41",
"` 	c #4E4D48",
" .	c #4C4B45",
"..	c #4C4C46",
"+.	c #3E3D34",
"@.	c #313029",
"#.	c #2A2926",
"$.	c #262620",
"%.	c #21201B",
"&.	c #2A2A23",
"*.	c #A1A095",
"=.	c #808076",
"-.	c #52524A",
";.	c #64645B",
">.	c #505045",
",.	c #272720",
"'.	c #393931",
").	c #24241D",
"!.	c #39392F",
"~.	c #24241F",
"{.	c #2B2B24",
"].	c #A7A79C",
"^.	c #C6C5BE",
"/.	c #7D7C72",
"(.	c #BAB9AE",
"_.	c #7D7C6E",
":.	c #7D7D70",
"<.	c #404035",
"[.	c #6F6F64",
"}.	c #46463A",
"|.	c #ABABA1",
"1.	c #D7D7D0",
"2.	c #8B8B7F",
"3.	c #D7D7CF",
"4.	c #989888",
"5.	c #59594F",
"6.	c #98988B",
"7.	c #4A4A3E",
"8.	c #77776A",
"9.	c #4F4F41",
"0.	c #282821",
"                                ",
". . . . . . . . . . . . . . .   ",
". + + + + + + + + + + + + + + @ ",
"  @ @ @ @ @ @ @ @ @ @ @ @ @ @ @ ",
"          # $ % & * =           ",
"      = = - ; > , ' ) = =       ",
"    ! ~ { ] ^ / ( _ : < [ =     ",
"  } | 1 2 3 4 5 6 7 8 9 0 a =   ",
"  * b c d e f g h i j k l m =   ",
"  = n o p q r s t u v w x y =   ",
"  = z A B C D E F G H I J K =   ",
"    L M N O P Q R S T U V W     ",
"    X Y Z `  ...+.@.X #.$.%.    ",
"    &.*.=.-.;.>.,.'.).-.!.~.    ",
"    {.].^./.(._.Z :.<.[.}.,.    ",
"    {.|.1.2.3.4.5.6.7.8.9.0.    "};
#endif
