/* XPM */
#ifndef XPMMAIN
extern char *display_options_xpm[];

#else
char * display_options_xpm[] = {
"16 16 90 1",
" 	c None",
".	c #000000",
"+	c #E5E1E1",
"@	c #EDEDE9",
"#	c #EDEDED",
"$	c #F1F1ED",
"%	c #E9E5E5",
"&	c #C9C5BE",
"*	c #BDB9B1",
"=	c #B5B1AD",
"-	c #ADA9A2",
";	c #010101",
">	c #A3A197",
",	c #9D9D9D",
"'	c #A1A1A1",
")	c #A1A5A1",
"!	c #919591",
"~	c #818581",
"{	c #5D615D",
"]	c #3D413D",
"^	c #2D312D",
"/	c #1D211D",
"(	c #A7A299",
"_	c #9DA19D",
":	c #8D918D",
"<	c #717571",
"[	c #515551",
"}	c #424842",
"|	c #353935",
"1	c #ABA79C",
"2	c #E9E9E5",
"3	c #999D99",
"4	c #7D817D",
"5	c #797D79",
"6	c #F0F0F0",
"7	c #DEDEDE",
"8	c #DFDFDF",
"9	c #E0E0E0",
"0	c #BFBFBF",
"a	c #C0C0C0",
"b	c #C1C1C1",
"c	c #D1D1CA",
"d	c #676961",
"e	c #707470",
"f	c #979797",
"g	c #989898",
"h	c #B1ADA6",
"i	c #52554F",
"j	c #616561",
"k	c #E3E3E3",
"l	c #DDDDDD",
"m	c #C8C8C8",
"n	c #656565",
"o	c #848484",
"p	c #878787",
"q	c #A9A59D",
"r	c #313931",
"s	c #353D35",
"t	c #A3A3A3",
"u	c #010100",
"v	c #A19D94",
"w	c #ADA999",
"x	c #B1A9A1",
"y	c #CFCFCF",
"z	c #A4A4A4",
"A	c #989897",
"B	c #ABABAB",
"C	c #EEEEEE",
"D	c #999588",
"E	c #838383",
"F	c #8D8D81",
"G	c #656561",
"H	c #69655D",
"I	c #696559",
"J	c #B5B5B5",
"K	c #757575",
"L	c #6B6B6B",
"M	c #777777",
"N	c #888888",
"O	c #54544C",
"P	c #757169",
"Q	c #79796E",
"R	c #010000",
"S	c #E0E0DF",
"T	c #C1C1C0",
"U	c #A7A7A7",
"V	c #7B7B7B",
"W	c #747474",
"X	c #717171",
"Y	c #7D7D7D",
"............... ",
".+@#@$$$@%+&*=-;",
".@;;;;;;;;;;;;>;",
".$;,')!!~{{]^/(;",
".$;_):~~<[[}|/1;",
".2;3:4........;.",
".2;~5.6788888898",
".+;~5.8000000aba",
".c;de.80f...gaba",
".h;ij.80.klm.nop",
".q;rs.80.lat..u.",
".vw-x;9a;yzA.BC#",
".D;;;.8ag...nEbb",
".FGHI.8aJKLnMN..",
" ;OPQRSTUVVWX.kl",
"  .;;.8aY.....la"};
#endif
