/* XPM */
#ifndef XPMMAIN
extern char *edit_xpm[];

#else
char * edit_xpm[] = {
"16 16 28 1",
" 	c None",
".	c #000000",
"+	c #F9E53A",
"@	c #F0B44C",
"#	c #FAE93C",
"$	c #F5B343",
"%	c #635632",
"&	c #FAE73A",
"*	c #F5B344",
"=	c #6B5E33",
"-	c #F8E239",
";	c #F2B043",
">	c #615739",
",	c #F7DD38",
"'	c #F1AD41",
")	c #615637",
"!	c #F7DA37",
"~	c #EDB24C",
"{	c #655931",
"]	c #F6D636",
"^	c #EEA73E",
"/	c #64582F",
"(	c #F4D035",
"_	c #EBA23D",
":	c #5B512F",
"<	c #D5AC73",
"[	c #60552E",
"}	c #4E4014",
"                ",
"            ... ",
"           .+@. ",
"          .#$%. ",
"         .&*=.  ",
"        .-;>.   ",
"       .,').    ",
"      .!~{.     ",
"     .]^/.      ",
"    .(_:.       ",
"    .<[.        ",
"   .}..         ",
"   ..           ",
"                ",
"                ",
"                "};
#endif
