/* XPM */
#ifndef XPMMAIN
extern char *export_xpm[];

#else
char * export_xpm[] = {
"16 16 43 1",
" 	c None",
".	c #000000",
"+	c #1D1D1D",
"@	c #FFFFFF",
"#	c #757575",
"$	c #EBEBEB",
"%	c #B5B5B5",
"&	c #A1A1A1",
"*	c #C3C3C3",
"=	c #212121",
"-	c #ABABAB",
";	c #545454",
">	c #009B00",
",	c #00BD00",
"'	c #002A00",
")	c #777777",
"!	c #8F8F8F",
"~	c #006100",
"{	c #008E00",
"]	c #0F1B0F",
"^	c #001800",
"/	c #E9E9E9",
"(	c #335133",
"_	c #00B100",
":	c #00A700",
"<	c #006600",
"[	c #003E00",
"}	c #006500",
"|	c #005F00",
"1	c #D7D7D7",
"2	c #1A381A",
"3	c #00A600",
"4	c #E2E2E2",
"5	c #6E756E",
"6	c #034603",
"7	c #008600",
"8	c #00BB00",
"9	c #006E00",
"0	c #B6B6B6",
"a	c #008B00",
"b	c #000400",
"c	c #004200",
"d	c #001000",
" ......+.       ",
".@@@@@@##.      ",
".@$$$$$#$#.     ",
".@$$$$$%%&.     ",
".@$$$$$$$*.     ",
".@$$$=...-.     ",
".@$$$;>,'). .   ",
".@$$$!~,{]. ^.  ",
".@$$$/(_,:<[}|. ",
".@$$$$123,,,,,|.",
".@$$$$$4567:8,9.",
".@$$$$$$$0. |ab ",
".@$$$$$$$*. cd  ",
".*********. .   ",
"...........     ",
"                "};
#endif
