/* XPM */
#ifndef XPMMAIN
extern char *help_xpm[];

#else
char * help_xpm[] = {
"16 16 106 2",
"  	c None",
". 	c #000000",
"+ 	c #0C0C0C",
"@ 	c #272522",
"# 	c #767371",
"$ 	c #D8D5D1",
"% 	c #F2F1ED",
"& 	c #F2F1EB",
"* 	c #E7E4DE",
"= 	c #BAB7B5",
"- 	c #646361",
"; 	c #0B0A0A",
"> 	c #E8A291",
", 	c #F0D2C7",
"' 	c #E8E5E1",
") 	c #E4E3DF",
"! 	c #ECEBE7",
"~ 	c #EDEAE6",
"{ 	c #E38C74",
"] 	c #A83419",
"^ 	c #E8B1A5",
"/ 	c #F0AA97",
"( 	c #D67D69",
"_ 	c #C9BBB4",
": 	c #B4B3AD",
"< 	c #C0BEB7",
"[ 	c #E1E0DA",
"} 	c #E8C9BF",
"| 	c #E4512F",
"1 	c #DF4926",
"2 	c #6F2312",
"3 	c #010000",
"4 	c #1D1D1C",
"5 	c #51504E",
"6 	c #F1A998",
"7 	c #D76348",
"8 	c #943019",
"9 	c #645551",
"0 	c #1F1E1E",
"a 	c #903F2D",
"b 	c #EA7B61",
"c 	c #E86141",
"d 	c #CC4B2D",
"e 	c #644E47",
"f 	c #2E2C2B",
"g 	c #E6E2E1",
"h 	c #DEA191",
"i 	c #BA4429",
"j 	c #3B3938",
"k 	c #C4624B",
"l 	c #ED917C",
"m 	c #E1B3A6",
"n 	c #65615C",
"o 	c #D0CFCB",
"p 	c #A68E85",
"q 	c #F4E9E3",
"r 	c #E2DFDB",
"s 	c #86837D",
"t 	c #F3F0EA",
"u 	c #D4D1CF",
"v 	c #B1AEA8",
"w 	c #F3F2EE",
"x 	c #D8D7D3",
"y 	c #75736E",
"z 	c #E7E2DE",
"A 	c #DDDBD8",
"B 	c #CBCAC6",
"C 	c #F0EDEB",
"D 	c #CAC7C5",
"E 	c #EAE6E3",
"F 	c #E3BAAE",
"G 	c #9B5B4C",
"H 	c #D39382",
"I 	c #D9B9B0",
"J 	c #B6B3AF",
"K 	c #3C3C3B",
"L 	c #E38166",
"M 	c #E97454",
"N 	c #EE977F",
"O 	c #C87561",
"P 	c #D69383",
"Q 	c #D36E56",
"R 	c #CC4829",
"S 	c #935D4E",
"T 	c #454242",
"U 	c #A8351B",
"V 	c #DF5130",
"W 	c #E96C4A",
"X 	c #EEA895",
"Y 	c #F2EEEB",
"Z 	c #F5F2EE",
"` 	c #F4E3DD",
" .	c #D06B53",
"..	c #D44929",
"+.	c #912D16",
"@.	c #CA5535",
"#.	c #DCBCB1",
"$.	c #DDDCD6",
"%.	c #D4D3CF",
"&.	c #C8C7C3",
"*.	c #AD7868",
"=.	c #080605",
"-.	c #84817D",
";.	c #7E7C75",
">.	c #7E7D77",
",.	c #595552",
"    . .   . . . . . . +   . .   ",
"  .   @ . # $ % & * = - ;     . ",
"  .   . > , ' ) ' ! ~ { ] .   . ",
"    . ^ / ( _ : < [ } | 1 2 3   ",
"  4 5 6 7 8 9 0 . 5 a b c d e f ",
"  . g h i j .       . k l m n . ",
"  . % o p j           j q r s . ",
"  . t u v .           . w x y . ",
"  . z A B j           j C D y . ",
"  . = E F G .       . H I J K . ",
"  ; 5 L M N O . . . P Q R S T + ",
"    . U V W X Y Z `  ...+.+.. . ",
"  .   . 2 @.#.$.%.&.*.+.+.. . . ",
"  .   =.. 5 -.;.>.# ,.. . .   . ",
"    . .     . . . . .     . .   ",
"                                "};
#endif
