/* XPM */
#ifndef XPMMAIN
extern char * icon_gerbview_xpm[];

#else
char * icon_gerbview_xpm[] = {
"32 32 318 2",
"  	c None",
". 	c #030100",
"+ 	c #FFFFFF",
"@ 	c #F4F4F4",
"# 	c #B1B1B1",
"$ 	c #7F7F7F",
"% 	c #4C4C4C",
"& 	c #191919",
"* 	c #FEFEFF",
"= 	c #FDFDFF",
"- 	c #FCFCFF",
"; 	c #FAFAFF",
"> 	c #BBBBC0",
", 	c #202021",
"' 	c #373737",
") 	c #666666",
"! 	c #919191",
"~ 	c #BCBCBC",
"{ 	c #1A1A1C",
"] 	c #AEAEBC",
"^ 	c #EAEAFF",
"/ 	c #E9E9FF",
"( 	c #E8E8FF",
"_ 	c #E7E7FF",
": 	c #E6E6FF",
"< 	c #E4E4FF",
"[ 	c #E3E3FF",
"} 	c #E2E2FF",
"| 	c #E1E1FF",
"1 	c #DFDFFF",
"2 	c #86869B",
"3 	c #FCF9FA",
"4 	c #F1C097",
"5 	c #6D3E16",
"6 	c #151515",
"7 	c #949494",
"8 	c #D1D1D1",
"9 	c #BB8A5E",
"0 	c #261C13",
"a 	c #5A5A63",
"b 	c #DEDEF5",
"c 	c #DEDEFF",
"d 	c #FBC89E",
"e 	c #452000",
"f 	c #484848",
"g 	c #C3C3C3",
"h 	c #D1CFCD",
"i 	c #EC9A51",
"j 	c #FF7800",
"k 	c #F88015",
"l 	c #705238",
"m 	c #303035",
"n 	c #E2E2FB",
"o 	c #DDDDFF",
"p 	c #85859B",
"q 	c #96571E",
"r 	c #2C2C2C",
"s 	c #CFCFCF",
"t 	c #E3AE7F",
"u 	c #FC7D0C",
"v 	c #4C3725",
"w 	c #6B3505",
"x 	c #FD7E0F",
"y 	c #DCDCFF",
"z 	c #84849B",
"A 	c #D9D9DF",
"B 	c #412106",
"C 	c #FE7800",
"D 	c #FE7902",
"E 	c #FE7903",
"F 	c #FE7A04",
"G 	c #FD7904",
"H 	c #FD7A06",
"I 	c #FD7B07",
"J 	c #FD7B08",
"K 	c #FD7C09",
"L 	c #EA9F5D",
"M 	c #D5C7BB",
"N 	c #CF9969",
"O 	c #130B06",
"P 	c #BC5800",
"Q 	c #DADAFF",
"R 	c #83839B",
"S 	c #525255",
"T 	c #C7742B",
"U 	c #FF7700",
"V 	c #A97241",
"W 	c #2F2F35",
"X 	c #D3D3F2",
"Y 	c #DBDBFF",
"Z 	c #D9D9FF",
"` 	c #241C16",
" .	c #FC7B08",
"..	c #F58018",
"+.	c #0C0C0E",
"@.	c #A3A3BC",
"#.	c #D8D8FF",
"$.	c #82829B",
"%.	c #E5E5E5",
"&.	c #131313",
"*.	c #E6A66D",
"=.	c #2B1D10",
"-.	c #85695A",
";.	c #F78C34",
">.	c #E7B49E",
",.	c #D8D5FA",
"'.	c #D7D7FF",
").	c #B2B2B2",
"!.	c #3D3D3D",
"~.	c #F38D32",
"{.	c #754E2B",
"].	c #6C3200",
"^.	c #F57300",
"/.	c #E6B39E",
"(.	c #D6D6FF",
"_.	c #80809B",
":.	c #8C8C8C",
"<.	c #5D5D5D",
"[.	c #F58828",
"}.	c #FC7B09",
"|.	c #F58929",
"1.	c #E4AA77",
"2.	c #5E5C5B",
"3.	c #552700",
"4.	c #C8A6A1",
"5.	c #E3BDB7",
"6.	c #F68B34",
"7.	c #D4D4FF",
"8.	c #D9C1AC",
"9.	c #F09340",
"0.	c #FA8014",
"a.	c #BA9B96",
"b.	c #E2BCB7",
"c.	c #D3D3FF",
"d.	c #7F7F9B",
"e.	c #DEB692",
"f.	c #8B4000",
"g.	c #E16900",
"h.	c #E3B09E",
"i.	c #D2D2FF",
"j.	c #151517",
"k.	c #BABABA",
"l.	c #D3CBC3",
"m.	c #FA7F12",
"n.	c #0B0B0C",
"o.	c #56433C",
"p.	c #EB8430",
"q.	c #D2CFFA",
"r.	c #D1D1FF",
"s.	c #7E7E9B",
"t.	c #4F4F55",
"u.	c #6F6F6F",
"v.	c #DEB591",
"w.	c #DABEA6",
"x.	c #FB7E0F",
"y.	c #FD7A05",
"z.	c #FE7801",
"A.	c #CE7525",
"B.	c #212124",
"C.	c #343434",
"D.	c #34343E",
"E.	c #B0B0D5",
"F.	c #D0D0FF",
"G.	c #7D7D9B",
"H.	c #CFCFDF",
"I.	c #0E0C0B",
"J.	c #D39660",
"K.	c #EC9A52",
"L.	c #F1913D",
"M.	c #F87C0E",
"N.	c #191008",
"O.	c #919192",
"P.	c #FDFDFD",
"Q.	c #939393",
"R.	c #141414",
"S.	c #65657B",
"T.	c #C8C8F6",
"U.	c #CECEFF",
"V.	c #7C7C9B",
"W.	c #ECECFF",
"X.	c #8D501D",
"Y.	c #FA8115",
"Z.	c #71441C",
"`.	c #322B2A",
" +	c #F4F4FF",
".+	c #E7E7E7",
"++	c #595959",
"@+	c #231203",
"#+	c #9494B8",
"$+	c #EBEBFF",
"%+	c #FA8F34",
"&+	c #3A1B00",
"*+	c #5C4D3F",
"=+	c #F48522",
"-+	c #F8851F",
";+	c #190C00",
">+	c #8A8AB6",
",+	c #CFCFFF",
"'+	c #F8F8FF",
")+	c #262626",
"!+	c #2B2B36",
"~+	c #020100",
"{+	c #F0BD9E",
"]+	c #4E2400",
"^+	c #211A13",
"/+	c #D4823A",
"(+	c #F98117",
"_+	c #DBBDA2",
":+	c #383842",
"<+	c #23232A",
"[+	c #3E3E4F",
"}+	c #A5A5E1",
"|+	c #C6C6FF",
"1+	c #EFEFFF",
"2+	c #F8F8F8",
"3+	c #808080",
"4+	c #080707",
"5+	c #020101",
"6+	c #E7E4FA",
"7+	c #EFBC9E",
"8+	c #F58B33",
"9+	c #91521E",
"0+	c #120E0C",
"a+	c #3C3835",
"b+	c #976C45",
"c+	c #CE8340",
"d+	c #C0B6AD",
"e+	c #101014",
"f+	c #616174",
"g+	c #81819B",
"h+	c #A1A1C3",
"i+	c #76768F",
"j+	c #141418",
"k+	c #6A6A89",
"l+	c #BABAFB",
"m+	c #CBCBFF",
"n+	c #DADADA",
"o+	c #464646",
"p+	c #020202",
"q+	c #E5E5FF",
"r+	c #C1C1DC",
"s+	c #666674",
"t+	c #42424D",
"u+	c #27272E",
"v+	c #0D0D0F",
"w+	c #41414D",
"x+	c #5A5A6B",
"y+	c #7C7C94",
"z+	c #8C8CA8",
"A+	c #BEBEE6",
"B+	c #BAB7DF",
"C+	c #4A3934",
"D+	c #25252D",
"E+	c #9292C3",
"F+	c #C2C2FF",
"G+	c #F9F9FF",
"H+	c #A7A7A7",
"I+	c #E0E0FF",
"J+	c #DADAFB",
"K+	c #C2C2E0",
"L+	c #B0B0CD",
"M+	c #9E9EB9",
"N+	c #8C8CA5",
"O+	c #8B8BA5",
"P+	c #9B9BB9",
"Q+	c #ACACCD",
"R+	c #BBBBE0",
"S+	c #CFCFFB",
"T+	c #E0AD9E",
"U+	c #B45500",
"V+	c #211001",
"W+	c #4E4E63",
"X+	c #ACACEC",
"Y+	c #C7C7FF",
"Z+	c #F0F0FF",
"`+	c #FC7D0F",
" @	c #D9B3B7",
".@	c #CFABAF",
"+@	c #773801",
"@@	c #141314",
"#@	c #78789D",
"$@	c #BDBDFE",
"%@	c #FC7C0D",
"&@	c #D8B2B7",
"*@	c #D7B1B7",
"=@	c #C8702B",
"-@	c #2E2E3B",
";@	c #31313D",
">@	c #9D9DD3",
",@	c #D5D5FF",
"'@	c #CDCDFF",
")@	c #CCCCFF",
"!@	c #DEAB9E",
"~@	c #DBA89E",
"{@	c #C2C2FE",
"]@	c #47475D",
"^@	c #050404",
"/@	c #5D5D77",
"(@	c #B2B2F4",
"_@	c #CBC8FA",
":@	c #DCA99E",
"<@	c #F38834",
"[@	c #C4C1FA",
"}@	c #75759B",
"|@	c #1A1A1F",
"1@	c #CACAFF",
"2@	c #C8C8FF",
"3@	c #C5C5FF",
"4@	c #C3C3FF",
"5@	c #C1C1FF",
"6@	c #74749B",
"7@	c #7B7B9B",
"8@	c #7A7A9B",
"9@	c #79799B",
"0@	c #78789B",
"a@	c #77779B",
"b@	c #76769B",
"c@	c #030000",
". . . . . . . . . . . . . . . . . . . . . . . . . . . . . .     ",
". + + + + + + @ # $ % & & % $ # @ + + + + + + + + + + + + .     ",
". + * = - ; > , ' ) ! ~ ~ ! ) ' { ] ^ / ( _ : < [ } | 1 2 .     ",
". + = 3 4 5 6 7 8 8 8 8 8 8 8 8 9 0 a b _ : < [ } | 1 c 2 .     ",
". + - d e f g 8 8 8 8 8 8 8 h i j k l m n < [ } | 1 c o p .     ",
". + ; q r s 8 8 8 8 8 8 8 8 t j j j u v w x x x x x x y z .     ",
". + A B j C D E F G H I J K E j j L M N O P j j j j j Q R .     ",
". + S T j j j j j j j j j j U j j M 8 M V W X c o y Y Z R .     ",
". + `  .j j j j j j j j j j U j j L M L ..+.@.o y Y Z #.$..     ",
". %.&.8 8 8 8 8 8 8 8 8 8 8 *.j j j j j j =.-.;.;.>.,.'.$..     ",
". ).!.8 8 8 8 8 8 8 8 8 8 8 h ~.j j j j j {.].^.j j /.(._..     ",
". :.<.8 8 8 8 8 8 8 8 8 8 8 8 h *.[.}.|.1.2.3.4.5.j 6.7._..     ",
". ).!.8 8 8 8.9.0.0.9.8.8 8 8 8 8 8 8 8 8 !.].a.b.j 6.c.d..     ",
". %.&.8 8 e.G j j j j G e.8 8 8 8 8 8 8 8 &.f.g.j j h.i.d..     ",
". + j.k.l.m.j j j j j j m.l.8 8 8 8 8 8 k.n.o.p.6.h.q.r.s..     ",
". + t.u.v.j j 0.w.w.x.j j H J H y.F D z.A.B.C.D.E.i.r.F.G..     ",
". + H.I.J.j j K.8 8 L.j j U j j j j j M.N.O.P.Q.R.S.T.U.V..     ",
". + W.X.v Y.j 0.w.w.x.j j j j j j j j Z.`.n  ++ .+++@+#+V..     ",
". + $+%+&+*+=+j j j j j -+8 8 8 8 g f ;+>+,+o $+'++ k.)+!+~+    ",
". + / {+^.]+^+/+u j j (+_+8 8 8 7 6 :+<+[+}+|+7.} 1+= 2+3+4+5+  ",
". + ( 6+7+8+9+0+a+b+c+d+~ ! ) ' e+f+g+h+i+j+k+l+m+Z :  ++ n+o+p+",
". + _ : q+[ } r+s+t+u+v+v+u+w+x+y+z+A+i.r.B+C+D+E+F+F.o $+G++ H+",
". + : q+[ } | I+J+K+L+M+N+O+P+Q+R+S+i.r.F.T+j U+V+W+X+Y+7.} Z+* ",
". + q+x x x x x x `+`+`+`+`+`+`+`+`+`+`+`+`+j  @.@+@@@#@$@m+Z _ ",
". + [ j j j j j j j j j j j j j j j j j j %@j &@*@j =@-@;@>@F+F.",
". + } | I+c o y Y Q #.'.(.,@c.i.r.F.U.'@)@!@j j j j ~@{@]@^@/@(@",
". + | I+c o y Y Q #.'.(.,@c.i.r.F.U.'@)@m+_@:@<@<@~@[@F+}@~+5+|@",
". + I+c o y Y Q #.'.(.,@c.i.r.F.U.'@)@m+1@2@Y+|+3@4@F+5@6@.     ",
". + 2 2 p p z R $.$.g+_.d.d.s.G.V.V.7@8@9@0@0@a@b@}@}@6@6@.     ",
". . . . . . . . . . . . . . . . . . . . . . . . . . . . . c@    ",
"                                                                ",
"                                                                "};
#endif
