/* XPM */
#ifndef XPMMAIN
extern char * icon_python_small_xpm[];

#else
char *icon_python_small_xpm[] = {
"16 16 98 2",
"  	c None",
". 	c #5490C0",
"+ 	c #3E7EB4",
"@ 	c #3D7CB0",
"# 	c #5488B2",
"$ 	c #4686BB",
"% 	c #8FB8DA",
"& 	c #DCE6F1",
"* 	c #377AB0",
"= 	c #3778AD",
"- 	c #3773A5",
"; 	c #5684AA",
"> 	c #3880BC",
", 	c #4A8AC0",
"' 	c #538DBD",
") 	c #3779AF",
"! 	c #3774A8",
"~ 	c #3772A3",
"{ 	c #366D9C",
"] 	c #366C9A",
"^ 	c #799785",
"/ 	c #FFEA5C",
"( 	c #FCE464",
"_ 	c #3883BF",
": 	c #387EB7",
"< 	c #387AB1",
"[ 	c #366E9E",
"} 	c #376A94",
"| 	c #9BA876",
"1 	c #FFE658",
"2 	c #FFDF50",
"3 	c #4B8EC4",
"4 	c #3882BE",
"5 	c #387AB2",
"6 	c #3778AE",
"7 	c #3775A9",
"8 	c #A1AA77",
"9 	c #FFDE50",
"0 	c #FFD848",
"a 	c #FCD55B",
"b 	c #3B81BB",
"c 	c #3880BB",
"d 	c #387BB4",
"e 	c #3776AA",
"f 	c #376B96",
"g 	c #7E9CB2",
"h 	c #FADE70",
"i 	c #FFD646",
"j 	c #FFCF3E",
"k 	c #FDC93C",
"l 	c #3B80B9",
"m 	c #387CB5",
"n 	c #6393BB",
"o 	c #F3E486",
"p 	c #FFED60",
"q 	c #FFE85B",
"r 	c #FFE253",
"s 	c #FFDA4A",
"t 	c #FFD545",
"u 	c #FFCD3C",
"v 	c #FFC734",
"w 	c #FEC433",
"x 	c #508ABB",
"y 	c #3776AB",
"z 	c #9AAD84",
"A 	c #FFE558",
"B 	c #FFE152",
"C 	c #FFD342",
"D 	c #FFCB3A",
"E 	c #FFC532",
"F 	c #FFC330",
"G 	c #FCC242",
"H 	c #9BB082",
"I 	c #FFEB5E",
"J 	c #FFE659",
"K 	c #FFE052",
"L 	c #FFD241",
"M 	c #FFC02E",
"N 	c #FFBA27",
"O 	c #4379A7",
"P 	c #C0C273",
"Q 	c #FFDE4F",
"R 	c #FFDB4C",
"S 	c #FFD040",
"T 	c #FFCC3B",
"U 	c #FFCE54",
"V 	c #FFC540",
"W 	c #FDBE30",
"X 	c #F9DA70",
"Y 	c #FFD645",
"Z 	c #FFC836",
"` 	c #FFEEC9",
" .	c #FFD37B",
"..	c #F9C95E",
"+.	c #FCCC4D",
"@.	c #FEC232",
"#.	c #FFBC29",
"$.	c #FCBD3D",
"                                ",
"            . + @ #             ",
"        $ % & * = - - ;         ",
"        > , ' ) ! ~ { {         ",
"                  { ] ^ / (     ",
"    _ > : < = - [ ] } | 1 2     ",
"  3 4 : 5 6 7 ~ { } } 8 9 0 a   ",
"  b c d ) e - { f } g h i j k   ",
"  l m * n o p p q r s t u v w   ",
"  x * y z p p A B s C D E F G   ",
"    = ! H I J K 0 L D v M N     ",
"      O P 1 Q R                 ",
"        r 9 s S T U V W         ",
"        X Y S Z E `  ...        ",
"            +.@.#.$.            ",
"                                "
};
#endif
