/* XPM */
#ifndef XPMMAIN
extern char *icon_modedit_xpm[];

#else
char * icon_modedit_xpm[] = {
"32 32 346 2",
"  	c None",
". 	c #2C2C37",
"+ 	c #383846",
"@ 	c #4D4D5E",
"# 	c #686878",
"$ 	c #6C6C77",
"% 	c #535358",
"& 	c #434344",
"* 	c #1F1F1F",
"= 	c #121213",
"- 	c #4C4C5A",
"; 	c #9C9CC3",
"> 	c #BEBEFF",
", 	c #BDBDFD",
"' 	c #8888A5",
") 	c #C5C5EE",
"! 	c #DDDDFF",
"~ 	c #E7E7FF",
"{ 	c #F2F2FF",
"] 	c #8A8A8B",
"^ 	c #3D3D40",
"/ 	c #BFBFD4",
"( 	c #DADAFF",
"_ 	c #D0D0FF",
": 	c #B3B3E6",
"< 	c #848495",
"[ 	c #AB9D93",
"} 	c #805431",
"| 	c #856353",
"1 	c #DEDEFD",
"2 	c #EAEAFF",
"3 	c #F2F2FD",
"4 	c #4E4E4E",
"5 	c #2E2E2E",
"6 	c #D8D8DE",
"7 	c #ECECFF",
"8 	c #E2E2FF",
"9 	c #D8D8FF",
"0 	c #828291",
"a 	c #7C5432",
"b 	c #AF5C11",
"c 	c #6E4725",
"d 	c #B0570A",
"e 	c #928793",
"f 	c #D8D8DF",
"g 	c #2B2B2B",
"h 	c #151517",
"i 	c #30303A",
"j 	c #393942",
"k 	c #303035",
"l 	c #161617",
"m 	c #616161",
"n 	c #FEFEFF",
"o 	c #F4F4FF",
"p 	c #BDBDD7",
"q 	c #CDCDCE",
"r 	c #BEB0A4",
"s 	c #A06736",
"t 	c #A3876D",
"u 	c #B7B4B4",
"v 	c #9D9DBB",
"w 	c #DBDBFF",
"x 	c #E5E5FF",
"y 	c #EFEFFF",
"z 	c #A0A0A4",
"A 	c #1C1C21",
"B 	c #4D4D61",
"C 	c #8484AA",
"D 	c #A9A9E0",
"E 	c #C6C6FE",
"F 	c #CCCCFB",
"G 	c #C3C3DD",
"H 	c #97979C",
"I 	c #FEFEFE",
"J 	c #FCFCFF",
"K 	c #B0B0C1",
"L 	c #EEEEEE",
"M 	c #FFFFFF",
"N 	c #F0F0F0",
"O 	c #B4B4BB",
"P 	c #B4B4D8",
"Q 	c #F1F1FF",
"R 	c #5E5E5F",
"S 	c #3A3A42",
"T 	c #B3B3D6",
"U 	c #CBCBFF",
"V 	c #A9A9DD",
"W 	c #8383A2",
"X 	c #9696A3",
"Y 	c #7E7E8D",
"Z 	c #A198B0",
"` 	c #896A5D",
" .	c #D1CFE8",
"..	c #BEBEC1",
"+.	c #F9F9FF",
"@.	c #C6C6D3",
"#.	c #877362",
"$.	c #906239",
"%.	c #A55E20",
"&.	c #D5CEC7",
"*.	c #9797A2",
"=.	c #AFADCE",
"-.	c #DFDFFE",
";.	c #E0E0EB",
">.	c #333333",
",.	c #73737D",
"'.	c #D2D2EE",
").	c #9898AE",
"!.	c #676770",
"~.	c #757578",
"{.	c #DBDBDB",
"].	c #B5A597",
"^.	c #A36731",
"/.	c #724C2A",
"(.	c #D86906",
"_.	c #7F5A42",
":.	c #C4C4D9",
"<.	c #DCDCDD",
"[.	c #7C6350",
"}.	c #E56C00",
"|.	c #593E25",
"1.	c #A95E1B",
"2.	c #9C8570",
"3.	c #F1F1F1",
"4.	c #B09B88",
"5.	c #8E643D",
"6.	c #B45908",
"7.	c #917975",
"8.	c #B4B4BA",
"9.	c #58585A",
"0.	c #A2A2AB",
"a.	c #A3A3A7",
"b.	c #E8E8E8",
"c.	c #F5F5F5",
"d.	c #E5E5E5",
"e.	c #DFDBD7",
"f.	c #A15D20",
"g.	c #855124",
"h.	c #785846",
"i.	c #A19CB4",
"j.	c #A0949E",
"k.	c #B1B1BC",
"l.	c #F4F4F4",
"m.	c #F3F3F3",
"n.	c #8D6A4F",
"o.	c #6E5A4D",
"p.	c #B5A79A",
"q.	c #D4690A",
"r.	c #8F592B",
"s.	c #955821",
"t.	c #6E4D39",
"u.	c #D6D6FB",
"v.	c #E4E4FF",
"w.	c #EEEEFF",
"x.	c #707072",
"y.	c #242424",
"z.	c #DCDCDC",
"A.	c #B6AEAE",
"B.	c #79563A",
"C.	c #9B734E",
"D.	c #FDFDFD",
"E.	c #E2E1E0",
"F.	c #BCAEA3",
"G.	c #8E623C",
"H.	c #7B4E29",
"I.	c #D76807",
"J.	c #9F8C8B",
"K.	c #B3B3B7",
"L.	c #F1F1FE",
"M.	c #A7A7B5",
"N.	c #9E9EA9",
"O.	c #AFAFB4",
"P.	c #927B68",
"Q.	c #957F6E",
"R.	c #9B9BA3",
"S.	c #777786",
"T.	c #C6C6F1",
"U.	c #E7E7F5",
"V.	c #3E3E3F",
"W.	c #3F3F3F",
"X.	c #D9D7D6",
"Y.	c #98571F",
"Z.	c #AD611D",
"`.	c #895426",
" +	c #936135",
".+	c #D5D1CE",
"++	c #AB9582",
"@+	c #DD6B05",
"#+	c #7D4E27",
"$+	c #915F3F",
"%+	c #A19097",
"&+	c #BEBED3",
"*+	c #FAFAFF",
"=+	c #F0F0FF",
"-+	c #D0D0F3",
";+	c #B8B8E1",
">+	c #A6A6D5",
",+	c #B6B6F6",
"'+	c #C1C1FF",
")+	c #C8C8FC",
"!+	c #ABABCE",
"~+	c #B8B8D0",
"{+	c #D3D3E8",
"]+	c #C4C4CD",
"^+	c #1C1C1C",
"/+	c #7E7E7E",
"(+	c #C1B3A6",
"_+	c #9D7B60",
":+	c #888282",
"<+	c #927C68",
"[+	c #A36E3E",
"}+	c #B6A596",
"|+	c #A9998B",
"1+	c #BBB6AF",
"2+	c #71543F",
"3+	c #88542B",
"4+	c #9A5B28",
"5+	c #A5A2AB",
"6+	c #F7F7FF",
"7+	c #EDEDFF",
"8+	c #E3E3FF",
"9+	c #D9D9FF",
"0+	c #9897BC",
"a+	c #6A6A7F",
"b+	c #656475",
"c+	c #59586A",
"d+	c #555468",
"e+	c #535367",
"f+	c #5E5D6E",
"g+	c #646372",
"h+	c #2C2C32",
"i+	c #202020",
"j+	c #CFCFCF",
"k+	c #BBB3AD",
"l+	c #A15716",
"m+	c #754922",
"n+	c #A35919",
"o+	c #81532A",
"p+	c #ECECEC",
"q+	c #825D3C",
"r+	c #D66909",
"s+	c #764F2D",
"t+	c #9E602F",
"u+	c #9C8C90",
"v+	c #ABABB1",
"w+	c #F5F5FF",
"x+	c #CFCFE2",
"y+	c #727180",
"z+	c #58576D",
"A+	c #5B5A71",
"B+	c #1D1D22",
"C+	c #4A4A4A",
"D+	c #FCFCFC",
"E+	c #95755A",
"F+	c #A5734B",
"G+	c #736358",
"H+	c #B3A89F",
"I+	c #9D7B5C",
"J+	c #E9E7E5",
"K+	c #E5E3E1",
"L+	c #9C7A5C",
"M+	c #A89D94",
"N+	c #9696AE",
"O+	c #DFDFFA",
"P+	c #BCBCBD",
"Q+	c #EAEAED",
"R+	c #5D5C6C",
"S+	c #5A5970",
"T+	c #484757",
"U+	c #282830",
"V+	c #27272E",
"W+	c #26262D",
"X+	c #25242B",
"Y+	c #232329",
"Z+	c #8D8D8D",
"`+	c #AF9F94",
" @	c #9F612C",
".@	c #7A512D",
"+@	c #D56908",
"@@	c #855F3D",
"#@	c #E8E8E9",
"$@	c #9A9AA4",
"%@	c #86869C",
"&@	c #D5D5FF",
"*@	c #DEDEFF",
"=@	c #BFBFD2",
"-@	c #DADADB",
";@	c #85848C",
">@	c #41404F",
",@	c #272727",
"'@	c #E5E1DE",
")@	c #A86327",
"!@	c #8A5426",
"~@	c #806249",
"{@	c #D5D1CD",
"]@	c #B4B4B9",
"^@	c #9090A3",
"/@	c #8D8DB7",
"(@	c #B4B4F2",
"_@	c #80809D",
":@	c #767689",
"<@	c #777687",
"[@	c #7F7F8E",
"}@	c #85858C",
"|@	c #6B6A77",
"1@	c #4D4C5E",
"2@	c #111113",
"3@	c #555555",
"4@	c #E6E5E7",
"5@	c #F1F1FB",
"6@	c #BBBBC9",
"7@	c #9999A0",
"8@	c #9898AA",
"9@	c #C2C2EB",
"0@	c #8686A3",
"a@	c #6C6B7F",
"b@	c #58586A",
"c@	c #58576C",
"d@	c #5B5A6E",
"e@	c #2A2A33",
"f@	c #9D9D9D",
"g@	c #FBFBFF",
"h@	c #B8B8CF",
"i@	c #6C6C7B",
"j@	c #59586E",
"k@	c #3D3C4B",
"l@	c #1A1A1E",
"m@	c #2F2F2F",
"n@	c #F5F5FC",
"o@	c #868690",
"p@	c #5D5D6F",
"q@	c #424150",
"r@	c #1D1D21",
"s@	c #1F1F24",
"t@	c #25252D",
"u@	c #212026",
"v@	c #5F5F5F",
"w@	c #75757C",
"x@	c #403F4E",
"y@	c #17161A",
"z@	c #3E3D44",
"A@	c #59586F",
"B@	c #2B2B35",
"C@	c #24232B",
"D@	c #434250",
"E@	c #1F1F25",
"                                                                ",
"                                                                ",
"                                                                ",
"                                                                ",
"                                                                ",
"                                  . + @ # $ % & *               ",
"                            = - ; > , ' ) ! ~ { ]               ",
"                          ^ / ( _ : < [ } | 1 2 3 4             ",
"                        5 6 7 8 9 0 a b c d e 8 7 f g           ",
"              h i j k l m n o 2 p q r s t u v w x y z           ",
"        A B C D E F 9 G H I J { K L M N M M O P ! ~ Q R         ",
"      S T U V W X Y Z `  ...M +.@.#.$.%.&.M M *.=.-.2 ;.>.      ",
"    ,.'.).!.~.{.].^./.(._.:.<.M [.}.|.1.2.3.4.5.6.7.8 7 8.      ",
"  9.0.a.b.c.d.M e.f.g.h.i.j.k.l.m.n.o.<.M p.q.r.s.t.u.v.w.x.    ",
"y.z.A.B.%.C.D.M M E.F.G.H.I.J.K.M J L.M.N.O.P.Q.R.S.T.! ~ U.V.  ",
"W.X.Y.Z.`. +.+M M M ++@+#+$+%+&+q M *+=+x -+;+>+,+'+)+!+~+{+]+^+",
"  /+(+_+:+<+[+}+M M M |+1+2+3+4+5+b.M 6+7+8+9+0+a+b+c+d+e+f+g+h+",
"  i+j+k+l+m+n+o+p+M M M q+r+s+t+u+v+D.M w+x+y+z+A+A+A+A+A+A+A+B+",
"    C+D+E+F+G+H+I+J+M M K+L+M+N+w O+P+M Q+R+A+A+S+T+U+V+W+X+Y+  ",
"      Z+M `+ @.@+@@@M M M #@$@%@&@*@=@-@;@A+A+>@B+              ",
"      ,@{.'@)@!@~@{@D+]@^@/@(@_@:@<@[@}@|@A+1@2@                ",
"        3@M 4@5@6@7@8@9@0@a@b@A+A+A+A+c@d@A+e@                  ",
"          f@M g@{ 2 h@i@j@A+A+A+A+A+A+A+S+k@l@                  ",
"          m@d.M n@o@p@A+A+z+q@U+r@s@t@>@u@                      ",
"            v@D.w@j@A+A+x@y@                                    ",
"              z@A@A+z+B@                                        ",
"                C@D@E@                                          ",
"                                                                ",
"                                                                ",
"                                                                ",
"                                                                ",
"                                                                "};
#endif
