/* XPM */
#ifndef XPMMAIN
extern const char * icon_python_xpm[];

#else
const char * icon_python_xpm[] = {
"32 32 72 1",
" 	c None",
".	c #7EA5C6",
"+	c #6495BD",
"@	c #4383B6",
"#	c #437FB2",
"$	c #6491B5",
"%	c #7DA1BF",
"&	c #3882BE",
"*	c #387CB5",
"=	c #3779AF",
"-	c #3776AB",
";	c #4988BB",
">	c #CDDFEE",
",	c #F7F7FF",
"'	c #82ADD1",
")	c #3773A5",
"!	c #7096B5",
"~	c #4385BB",
"{	c #FFFFFF",
"]	c #F6F5F5",
"^	c #3C729E",
"/	c #9BBDDA",
"(	c #366D9C",
"_	c #387FBA",
":	c #5A91BF",
"<	c #376A94",
"[	c #FFED60",
"}	c #FFE659",
"|	c #F8E16E",
"1	c #FFEB5E",
"2	c #FFE354",
"3	c #4489C0",
"4	c #3885C3",
"5	c #FFDB4C",
"6	c #FBCE47",
"7	c #FFD544",
"8	c #72A0C5",
"9	c #507CA1",
"0	c #FFE052",
"a	c #FFD040",
"b	c #F5D98D",
"c	c #7F9EB8",
"d	c #F1ECDA",
"e	c #FFCC3B",
"f	c #FBC840",
"g	c #FBD54F",
"h	c #FCC539",
"i	c #4379A7",
"j	c #DCE1E7",
"k	c #FAE262",
"l	c #FFC532",
"m	c #FBC037",
"n	c #80A6C6",
"o	c #FFBC29",
"p	c #F7CD74",
"q	c #427DAE",
"r	c #FABE40",
"s	c #FFB521",
"t	c #497FAC",
"u	c #FFCD57",
"v	c #FFE097",
"w	c #FFD67B",
"x	c #FFD849",
"y	c #FFFBF2",
"z	c #F7DE92",
"A	c #FFCF6A",
"B	c #FFEDC8",
"C	c #FFE4AC",
"D	c #F7D284",
"E	c #FFB531",
"F	c #F7D47B",
"G	c #FDBE2E",
"                                ",
"                                ",
"            .+@###$%            ",
"           &&&**==---           ",
"         ;&>,'*===))))!         ",
"         ~&{{]==--))))^         ",
"         &&'/@===)))(((         ",
"         __**===)))((((         ",
"                  (((((         ",
"     :&&&**====)))(((<<[[}}|    ",
"    &&&&&**===)))(((<<<11}22    ",
"   34&__***---))(((<<<<222556   ",
"   4&&&**====)))((<<<<<225557   ",
"  84&&***==--))(((<<<<900577ab  ",
"  ~&&&**===)))(((<<<<cd5577aef  ",
"  ___**====)))((<<<<9dg577eeeh  ",
"  __***==ijk[[[[[}225557aeelll  ",
"  @_**===j|[[[[[}}00577aeelllm  ",
"  n*==---k[[[[}}225577aellllop  ",
"   **=---}[[[[}225577eelllloo   ",
"   q===))[[[[}225577aeellloor   ",
"    --)))[[}}00577aeelllooos    ",
"     tiii11}005566fffffmmmmp    ",
"         22255                  ",
"         225557aeelllom         ",
"         00557aeeeuvwoo         ",
"         gx77aeelly{{sm         ",
"         z77aellllABCsD         ",
"           6ellloossE           ",
"             FmGoop             ",
"                                ",
"                                "};

#endif
