/* XPM */
#ifndef XPMMAIN
extern char * icon_cvpcb_xpm[];

#else
char * icon_cvpcb_xpm[] = {
"32 32 372 2",
"  	c None",
". 	c #FF7800",
"+ 	c #632E00",
"@ 	c #642F00",
"# 	c #5A2A00",
"$ 	c #502600",
"% 	c #482200",
"& 	c #3F1D00",
"* 	c #000000",
"= 	c #421F00",
"- 	c #371900",
"; 	c #2C1400",
"> 	c #210F00",
", 	c #160A00",
"' 	c #FFFEFE",
") 	c #484747",
"! 	c #D6D5D5",
"~ 	c #FFF9F5",
"{ 	c #FFF1E6",
"] 	c #FFEAD7",
"^ 	c #FFE2C9",
"/ 	c #FFDABA",
"( 	c #FFD2AB",
"_ 	c #FFCB9D",
": 	c #FFC38E",
"< 	c #FFBB7F",
"[ 	c #FFB370",
"} 	c #FFAB62",
"| 	c #FFA453",
"1 	c #FF9C45",
"2 	c #FF9436",
"3 	c #FF8C27",
"4 	c #FF8518",
"5 	c #FF7D0A",
"6 	c #3E2107",
"7 	c #7D7C7C",
"8 	c #F0EFEF",
"9 	c #FFF2E6",
"0 	c #FFEAD8",
"a 	c #FFD3AC",
"b 	c #FFBB80",
"c 	c #FFB471",
"d 	c #FFAC62",
"e 	c #FF9536",
"f 	c #FF8D28",
"g 	c #FF8519",
"h 	c #FE7800",
"i 	c #AC611F",
"j 	c #574C43",
"k 	c #B0AFAF",
"l 	c #FCFBFB",
"m 	c #FFFAF6",
"n 	c #FFF2E7",
"o 	c #FFDBBB",
"p 	c #FFCB9E",
"q 	c #FFC38F",
"r 	c #FFBC80",
"s 	c #FFAC63",
"t 	c #FFA454",
"u 	c #FF9537",
"v 	c #FF7D0B",
"w 	c #FF8920",
"x 	c #F59540",
"y 	c #A27B59",
"z 	c #827F7E",
"A 	c #D7D6D6",
"B 	c #FFEAD9",
"C 	c #FFE3CA",
"D 	c #FFD3AD",
"E 	c #FFC48F",
"F 	c #FFBC81",
"G 	c #FFB472",
"H 	c #FF9D46",
"I 	c #FF8D29",
"J 	c #FF851A",
"K 	c #FF7E0B",
"L 	c #FF9A41",
"M 	c #EAB17F",
"N 	c #A9998C",
"O 	c #B5B4B4",
"P 	c #F1ECE9",
"Q 	c #FFF2E8",
"R 	c #FFEBD9",
"S 	c #FFDBBC",
"T 	c #FFCC9F",
"U 	c #FFC490",
"V 	c #FFAD64",
"W 	c #FFA555",
"X 	c #FF9538",
"Y 	c #FF8E29",
"Z 	c #FF861A",
"` 	c #FF7E0C",
" .	c #8C8B8B",
"..	c #FFBD83",
"+.	c #FECEA3",
"@.	c #E1CBB7",
"#.	c #BFBBB6",
"$.	c #DFD4CA",
"%.	c #FBE7D6",
"&.	c #FEE2CA",
"*.	c #FED3AC",
"=.	c #FDCA9D",
"-.	c #FDC28E",
";.	c #FDBA80",
">.	c #FDB372",
",.	c #FEAC63",
"'.	c #FF9D47",
").	c #FF861B",
"!.	c #F6F5F5",
"~.	c #F5933E",
"{.	c #C7864C",
"].	c #926C4B",
"^.	c #705A48",
"/.	c #483F37",
"(.	c #232120",
"_.	c #0C0C0C",
":.	c #040403",
"<.	c #030202",
"[.	c #594C41",
"}.	c #D0AC8D",
"|.	c #BC9675",
"1.	c #453527",
"2.	c #040202",
"3.	c #1F160D",
"4.	c #4D341E",
"5.	c #7F522A",
"6.	c #AE6B30",
"7.	c #CE792E",
"8.	c #ED8327",
"9.	c #FB841B",
"0.	c #7D3D06",
"a.	c #200F00",
"b.	c #FD871F",
"c.	c #D98337",
"d.	c #BB8352",
"e.	c #CCA888",
"f.	c #D6C3B2",
"g.	c #CEC6C0",
"h.	c #CBC9C8",
"i.	c #DAD9D9",
"j.	c #EFEFEF",
"k.	c #C0BFBF",
"l.	c #444343",
"m.	c #695747",
"n.	c #695441",
"o.	c #343333",
"p.	c #999796",
"q.	c #CEC5BD",
"r.	c #D5BCA7",
"s.	c #E3B892",
"t.	c #F0B077",
"u.	c #F7A358",
"v.	c #FC9336",
"w.	c #67360A",
"x.	c #E57B1C",
"y.	c #C17431",
"z.	c #CA9363",
"A.	c #A78466",
"B.	c #5D4B3B",
"C.	c #37302A",
"D.	c #1A1817",
"E.	c #090808",
"F.	c #787777",
"G.	c #777676",
"H.	c #010000",
"I.	c #666565",
"J.	c #6B6968",
"K.	c #1F160E",
"L.	c #4E351F",
"M.	c #81532C",
"N.	c #AD6B30",
"O.	c #CD782E",
"P.	c #C56D21",
"Q.	c #F38A2E",
"R.	c #E49A5A",
"S.	c #E3AE80",
"T.	c #E7C5A8",
"U.	c #CBBAAA",
"V.	c #66605B",
"W.	c #141212",
"X.	c #363535",
"Y.	c #797878",
"Z.	c #9C9B9B",
"`.	c #BAB9B9",
" +	c #CBCACA",
".+	c #D3D2D2",
"++	c #E7E6E6",
"@+	c #F3F1EF",
"#+	c #CAC0B8",
"$+	c #856B55",
"%+	c #82542C",
"&+	c #B7753C",
"*+	c #DE8A40",
"=+	c #9B5A1F",
"-+	c #E0781C",
";+	c #B66D2E",
">+	c #B68355",
",+	c #937358",
"'+	c #524234",
")+	c #2D2722",
"!+	c #121110",
"~+	c #060505",
"{+	c #676666",
"]+	c #474646",
"^+	c #4C4A49",
"/+	c #20160E",
"(+	c #49311D",
"_+	c #724A27",
":+	c #985E2B",
"<+	c #BF702C",
"[+	c #935319",
"}+	c #F5831E",
"|+	c #CA7933",
"1+	c #AC7A4F",
"2+	c #B6977D",
"3+	c #B8A99C",
"4+	c #AFA9A5",
"5+	c #AAA9A8",
"6+	c #A9A8A8",
"7+	c #919090",
"8+	c #3C3B3B",
"9+	c #4E4D4D",
"0+	c #4E4843",
"a+	c #908E8C",
"b+	c #B0A59B",
"c+	c #BEA38C",
"d+	c #CD9F76",
"e+	c #DC9A5F",
"f+	c #E8934A",
"g+	c #CE782C",
"h+	c #F7841E",
"i+	c #E18739",
"j+	c #AD7442",
"k+	c #71533A",
"l+	c #493B2E",
"m+	c #27221E",
"n+	c #0F0E0D",
"o+	c #040303",
"p+	c #020101",
"q+	c #474443",
"r+	c #9E8A78",
"s+	c #93765D",
"t+	c #3C2E22",
"u+	c #0C0806",
"v+	c #281C12",
"w+	c #563B22",
"x+	c #89592F",
"y+	c #B26E33",
"z+	c #CF7A30",
"A+	c #EC8529",
"B+	c #67370B",
"C+	c #FB861F",
"D+	c #F2923D",
"E+	c #EA9D59",
"F+	c #E3A874",
"G+	c #DBB18C",
"H+	c #D1B7A1",
"I+	c #C7BCB3",
"J+	c #BEBDBD",
"K+	c #B9B8B7",
"L+	c #C7BAB0",
"M+	c #DBBEA4",
"N+	c #DBB798",
"O+	c #CBA381",
"P+	c #C59872",
"Q+	c #CF9A6B",
"R+	c #DE9F67",
"S+	c #EAA05F",
"T+	c #F39F54",
"U+	c #F79A48",
"V+	c #F9943A",
"W+	c #FD8E2C",
"X+	c #7D3E08",
"Y+	c #FE881F",
"Z+	c #FB973F",
"`+	c #F8A75F",
" @	c #F5B57D",
".@	c #F2C49B",
"+@	c #EED1B7",
"@@	c #E8DBD1",
"#@	c #D1CDCA",
"$@	c #D0C1B6",
"%@	c #ECD4BF",
"&@	c #F5D5B9",
"*@	c #F5CDAB",
"=@	c #EDBF97",
"-@	c #E9B488",
";@	c #EDB17C",
">@	c #F2AD70",
",@	c #F7A964",
"'@	c #FBA458",
")@	c #FC9E4A",
"!@	c #FD963C",
"~@	c #FF902E",
"{@	c #FF881F",
"]@	c #FF8010",
"^@	c #FF7902",
"/@	c #E0C9B5",
"(@	c #BAB7B4",
"_@	c #DDD4CD",
":@	c #FBE9DA",
"<@	c #FDE4CE",
"[@	c #FEDDC0",
"}@	c #FED5B1",
"|@	c #FDCCA2",
"1@	c #FDC593",
"2@	c #FDBD84",
"3@	c #FDB577",
"4@	c #FEAE68",
"5@	c #FFA85A",
"6@	c #FFA04C",
"7@	c #FF983D",
"8@	c #FF8111",
"9@	c #E9B07E",
"0@	c #A49487",
"a@	c #B2B1B1",
"b@	c #F1EFEE",
"c@	c #FFF6EE",
"d@	c #FFEEDF",
"e@	c #FFE6D0",
"f@	c #FFDEC2",
"g@	c #FFD7B3",
"h@	c #FFCFA4",
"i@	c #FFC796",
"j@	c #FFBF87",
"k@	c #FFB778",
"l@	c #FFB069",
"m@	c #FFA85B",
"n@	c #FF983E",
"o@	c #FF912F",
"p@	c #FF7903",
"q@	c #9D7654",
"r@	c #7C7978",
"s@	c #D8D7D7",
"t@	c #FFFEFD",
"u@	c #FFE6D1",
"v@	c #FFCFA5",
"w@	c #FFB879",
"x@	c #FFB06A",
"y@	c #FFA04D",
"z@	c #FF8921",
"A@	c #FF8112",
"B@	c #A85D1B",
"C@	c #50453C",
"D@	c #AFAEAE",
"E@	c #FFF6EF",
"F@	c #FFEEE0",
"G@	c #FFDFC2",
"H@	c #FFD7B4",
"I@	c #FFC797",
"J@	c #FFC088",
"K@	c #FFA85C",
"L@	c #FFA14D",
"M@	c #FF993E",
"N@	c #FF9130",
"O@	c #FF8212",
"P@	c #FF7A04",
"Q@	c #3A1C02",
"R@	c #EFEEEE",
"S@	c #FFEFE0",
"T@	c #FFE7D2",
"U@	c #FFDFC3",
"V@	c #FFD0A6",
"W@	c #FFC897",
"X@	c #FFB87A",
"Y@	c #FFB06B",
"Z@	c #FFA95C",
"`@	c #FFA14E",
" #	c #FF993F",
".#	c #FF8A22",
"+#	c #FF8213",
"@#	c #070300",
"                                    . . . . .     . . . . .     ",
"                                    . . . . .     . . . . .     ",
"                                    .       .     . .   . .     ",
"                                    .       .     . .   . .     ",
"                                    . . . . .     . . . . .     ",
"                              +     @ # $ % & * * = - ; > , * * ",
"        ' ) ! ' ' ' ' ' ' ~ { ] ^ / ( _ : < [ } | 1 2 3 4 5 . * ",
"        ' * 6 7 8 ' ' ' ' ~ 9 0 ^ / a _ : b c d | 1 e f g 5 . * ",
"        ' * h i j k l ' ' m n 0 ^ o a p q r c s t 1 u f g v . * ",
"        ' * . w x y z A ' m n B C o D p E F G s t H u I J K . * ",
"* * * * * * . w L d M N O P Q R C S D T U F G V W H X Y Z ` . * ",
"         .* . w L d ..+.@.#.$.%.&.S *.=.-.;.>.,.W '.X Y ).` . * ",
"        !.* . w ~.{.].^./.(._.:.<.[.}.|.1.2.3.4.5.6.7.8.9.0.a.* ",
"        ' * . b.c.d.e.f.g.h.i.j.k.l.m.n.o.p.q.r.s.t.u.v.w.*     ",
"        ' * . x.y.z.A.B.C.D.E.<.F.G.H.H.I.J.K.L.M.N.O.P.*       ",
"        ' * . Q.R.S.T.U.V.W.X.Y.Z.`. +.+++@+#+$+%+&+*+=+*       ",
"        ' * . -+;+>+,+'+)+!+~+<.{+I.H.H.]+^+/+(+_+:+<+[+*       ",
"        ' * . }+|+1+2+3+4+5+6+6+7+8+9+0+8+a+b+c+d+e+f+g+*       ",
"        ' * . h+i+j+k+l+m+n+o+p+p+q+r+s+t+u+v+w+x+y+z+A+B+*     ",
"        ' * . C+D+E+F+G+H+I+J+K+L+M+N+O+P+Q+R+S+T+U+V+W+C+X+a.* ",
"        ' * . Y+Z+`+ @.@+@@@#@$@%@&@*@=@-@;@>@,@'@)@!@~@{@]@^@* ",
"        ' * . w L d ..+./@(@_@:@<@[@}@|@1@2@3@4@5@6@7@~@w 8@^@* ",
"* * * * * * . w L d 9@0@a@b@c@d@e@f@g@h@i@j@k@l@m@6@n@o@w 8@p@* ",
"         .* . w x q@r@s@' t@c@d@u@f@g@v@i@j@w@x@m@y@n@o@z@A@p@* ",
"        !.* h B@C@D@l ' ' t@E@F@u@G@H@v@I@J@w@x@K@L@M@N@z@O@P@* ",
"        ' * Q@F.R@' ' ' ' ' E@S@T@U@H@V@W@J@X@Y@Z@`@ #N@.#+#P@* ",
"          @#                  +     @ # $ % & * * = - ; > , * * ",
"                                    . . . . .     . . . . .     ",
"                                    .       .     . .   . .     ",
"                                    .       .     . .   . .     ",
"                                    . . . . .     . . . . .     ",
"                                    . . . . .     . . . . .     "};
#endif
