/* XPM */
#ifndef XPMMAIN
extern char * jigsaw_xpm[];

#else
char * jigsaw_xpm[] = {
"16 15 5 1",
" 	c none",
".	c #645264",
"X	c #F4F26c",
"o	c #A44e08",
"O	c #F4F2F4",
"     ....       ",
"   ... ..       ",
" ...   ..       ",
"..     ..       ",
"..     ..      X",
"..     ..     XX",
"..     ..    .X ",
"..     ..  .Xo  ",
"..     .. Oo    ",
"..     ..OO     ",
"..     ..       ",
"..              ",
"..              ",
"..              ",
"                "};
#endif
