/* XPM */
#ifndef XPMMAIN
extern const char *lang_jp_xpm[];

#else
const char * lang_jp_xpm[] = {
"16 16 4 1",
" 	c None",
"#	c #FFFFFF",
"@	c #BE0027",
":	c #DEAAC7",
"                ",
"                ",
"                ",
"################",
"################",
"######:@@:######",
"#####:@@@@:#####",
"#####@@@@@@#####",
"#####@@@@@@#####",
"#####:@@@@:#####",
"######:@@:######",
"################",
"################",
"                ",
"                ",
"                "};
#endif
