/* XPM */
#ifndef XPMMAIN
extern char * library_xpm[];

#else
char * library_xpm[] = {
"16 15 6 1",
"X c Black",
". c None",
"o c Black",
"= c Blue",
"+ c Yellow",
"' c Red",
"........XXXXXX..",
"....ooooX=====X.",
"........X======X",
"........X=======",
"......XXXXXX===X",
"..ooooX+++++X=X.",
"......X++++++X..",
"......X+++++++Xo",
"....XXXXXX+++X..",
"ooooX'''''X+X...",
"....X''''''X....",
"....X'''''''Xooo",
"....X''''''X....",
"ooooX'''''X.....",
"....XXXXXX......"
};
#endif

