/* XPM */
#ifndef XPMMAIN
extern char *morgan1_xpm[];

#else
char * morgan1_xpm[] = {
"16 16 79 1",
" 	c None",
".	c #6361D1",
"+	c #6260D0",
"@	c #5452B1",
"#	c #474596",
"$	c #5B5AC2",
"%	c #5E5CC7",
"&	c #615FCE",
"*	c #302F66",
"=	c #5251AE",
"-	c #514FAB",
";	c #504EA9",
">	c #5A59C0",
",	c #5755B9",
"'	c #D72E2E",
")	c #D72D2D",
"!	c #D62E2E",
"~	c #FEFEFF",
"{	c #FBFBFF",
"]	c #F6F6FF",
"^	c #F1F1FF",
"/	c #EBE9FC",
"(	c #E3C5D9",
"_	c #DA727E",
":	c #D13737",
"<	c #FAFAFF",
"[	c #F5F5FF",
"}	c #F0F0FF",
"|	c #EBEBFF",
"1	c #E6E6FF",
"2	c #E1E1FF",
"3	c #DBDBFF",
"4	c #D65F6B",
"5	c #BE5A5A",
"6	c #9B9B9B",
"7	c #D53131",
"8	c #F4F4FF",
"9	c #EFEFFF",
"0	c #EAEAFF",
"a	c #E5E5FF",
"b	c #E0E0FF",
"c	c #D6D6FF",
"d	c #D398B6",
"e	c #D13838",
"f	c #D43232",
"g	c #E4E4FF",
"h	c #DFDFFF",
"i	c #DADAFF",
"j	c #D5D5FF",
"k	c #D0D0FF",
"l	c #CBBCEC",
"m	c #B5CCFF",
"n	c #D62D2D",
"o	c #E9E9FF",
"p	c #D4D4FF",
"q	c #CFCFFF",
"r	c #CACAFF",
"s	c #CB92B8",
"t	c #D03838",
"u	c #B56A6A",
"v	c #E3E3FF",
"w	c #DEDEFF",
"x	c #D9D9FF",
"y	c #C9C9FF",
"z	c #C4C4FF",
"A	c #CF5C70",
"B	c #BB5E5E",
"C	c #DDDDFF",
"D	c #D8D8FF",
"E	c #D3D3FF",
"F	c #CECEFF",
"G	c #C9C7FC",
"H	c #C6A9DA",
"I	c #CD6983",
"J	c #CE3D3D",
"K	c #9E9494",
"L	c #D52E2E",
"M	c #CD4040",
"N	c #BE5B5B",
"  ....          ",
" .+@#$+%        ",
".&*   =.-   ... ",
".#     .;  .> ,,",
".#     ....&   .",
"                ",
"  ''''''')      ",
"  !~{]^/(_:     ",
"'''<[}|12345    ",
" 67890ab3cdef   ",
"  !90ghijkl!mn''",
"  !oghipqrs:tu66",
"  !vwxpqyzAB6   ",
"'''CDEFGHIJK    ",
" 67''''LMNK6    ",
"   66666666     "};
#endif
