/* XPM */
#ifndef XPMMAIN
extern char *move_xpm[];

#else
char * move_xpm[] = {
"16 16 48 1",
" 	c None",
".	c #000000",
"+	c #31313D",
"@	c #DCDCEF",
"#	c #33333F",
"$	c #595959",
"%	c #84849B",
"&	c #FFFFFF",
"*	c #010101",
"=	c #4B4B4B",
"-	c #9B9B9B",
";	c #F1F1FF",
">	c #464646",
",	c #E7E5FF",
"'	c #5D5D84",
")	c #232332",
"!	c #767676",
"~	c #FBFBFF",
"{	c #EAEAFF",
"]	c #E2E1FF",
"^	c #DBDBFF",
"/	c #D5D3FF",
"(	c #CDCDFF",
"_	c #C8C6FF",
":	c #C1C1FF",
"<	c #BDBBFF",
"[	c #B7B7FF",
"}	c #9594D7",
"|	c #202020",
"1	c #33333E",
"2	c #808099",
"3	c #D2D0FF",
"4	c #53527C",
"5	c #222231",
"6	c #7D7D7D",
"7	c #C8C8FF",
"8	c #6C6C6C",
"9	c #C0BFFF",
"0	c #B8B8FF",
"a	c #B2B0FF",
"b	c #52527B",
"c	c #ABAAFF",
"d	c #4C4C76",
"e	c #3E3E3E",
"f	c #1F1F2F",
"g	c #8887D0",
"h	c #1F1F2E",
"i	c #181818",
"       .        ",
"      +@#$      ",
"     .%&%*=     ",
"      .&.---    ",
"      .&.--     ",
"  .   .;.--  .> ",
" +%....,.....')!",
".@&~;{]^/(_:<[}|",
" 12....3.....456",
"  *---.7.----*8-",
"   -- .9.--   --",
"      .0.--     ",
"      .a.--     ",
"     .bcd*e     ",
"      fgh8--    ",
"       i6--     "};
#endif
