/* XPM */
#ifndef XPMMAIN
extern char *move_polygon_xpm[];

#else
char * move_polygon_xpm[] = {
"16 16 46 1",
" 	c None",
".	c #00009B",
"+	c #000099",
"@	c #00007D",
"#	c #000094",
"$	c #000074",
"%	c #00001E",
"&	c #000066",
"*	c #31313D",
"=	c #DCDCEF",
"-	c #30303E",
";	c #000046",
">	c #000000",
",	c #84849B",
"'	c #FFFFFF",
")	c #000001",
"!	c #00006D",
"~	c #F1F1FF",
"{	c #00007C",
"]	c #E7E5FF",
"^	c #646489",
"/	c #232332",
"(	c #FBFBFF",
"_	c #EAEAFF",
":	c #E2E1FF",
"<	c #DBDBFF",
"[	c #D5D3FF",
"}	c #CDCDFF",
"|	c #C8C6FF",
"1	c #C1C1FF",
"2	c #9F9DDB",
"3	c #30303B",
"4	c #7A7A96",
"5	c #D2D0FF",
"6	c #5A5981",
"7	c #20202F",
"8	c #000062",
"9	c #C8C8FF",
"0	c #000063",
"a	c #00004C",
"b	c #C0BFFF",
"c	c #5C5C82",
"d	c #B8B8FF",
"e	c #56557D",
"f	c #9493D6",
"g	c #1D1D2C",
"........        ",
"........+       ",
"       @.#      ",
"        $%&     ",
"        *=-;    ",
"       >,',)>   ",
"        >'>!>   ",
"     >  >~>{ >  ",
"    *,>>>]>>>^/ ",
"   >=(~_:<[}|12>",
"    34>>>5>>>67 ",
" ...8)!{>9>0>>> ",
" ....a{.>b>{ >  ",
"      >>cde>>   ",
"        7fg>    ",
"         >      "};
#endif
