/* XPM */
#ifndef XPMMAIN
extern char *netlist_xpm[];

#else
char * netlist_xpm[] = {
"16 16 44 1",
" 	c None",
".	c #000000",
"+	c #FFFFFF",
"@	c #BFE5FF",
"#	c #45535D",
"$	c #F6F5F4",
"%	c #6C5B4C",
"&	c #EC8F3D",
"*	c #FF7800",
"=	c #C4DCEB",
"-	c #B6C5CC",
";	c #A6805E",
">	c #FC9F4C",
",	c #FFEAD7",
"'	c #F7E2CF",
")	c #E7C7AB",
"!	c #E1B894",
"~	c #F0DBC8",
"{	c #ABBDC9",
"]	c #FFF4EB",
"^	c #F1DECD",
"/	c #A6B9C4",
"(	c #FFBF87",
"_	c #EECEB2",
":	c #FFFEFD",
"<	c #EDCDB1",
"[	c #DDB187",
"}	c #DCC2AB",
"|	c #DBC2AA",
"1	c #8B8B8B",
"2	c #898989",
"3	c #FFBB80",
"4	c #2C343B",
"5	c #B8BBBD",
"6	c #3A4248",
"7	c #394146",
"8	c #B6B9BB",
"9	c #2E373E",
"0	c #202020",
"a	c #393939",
"b	c #E3E3E3",
"c	c #E2E2E2",
"d	c #353535",
"e	c #262626",
"................",
".+++++.++.+++++.",
".@.@#......#@.@.",
".+++$%&**&%$+++.",
".@.@=-;>>;-=@.@.",
".+++,')!!)~,+++.",
".@.@={]^^]/=@.@.",
".+++(_(::(<(+++.",
".@.@[}(++(|[@.@.",
".++++1++++2++++.",
".@.@*3*++*3*@.@.",
".+++*3*++*3*+++.",
".@.@@456789@@.@.",
".++++0abcde++++.",
".@.@@@@@@@@@@.@.",
"................"};
#endif
