/* XPM */
#ifndef XPMMAIN
extern char *new_library_xpm[];

#else
char * new_library_xpm[] = {
"16 16 133 2",
"  	c None",
". 	c #060708",
"+ 	c #323538",
"@ 	c #1E1E1F",
"# 	c #FFF500",
"$ 	c #0A0D0E",
"% 	c #E4E6E7",
"& 	c #F5F5F5",
"* 	c #919175",
"= 	c #EFE500",
"- 	c #B4B272",
"; 	c #F6F6F6",
"> 	c #D7D7D7",
", 	c #DFE0E1",
"' 	c #636222",
") 	c #F7EE0B",
"! 	c #F7ED0C",
"~ 	c #9B9B9B",
"{ 	c #050608",
"] 	c #E3E6E7",
"^ 	c #D7D8D8",
"/ 	c #D1D1D1",
"( 	c #A9A881",
"_ 	c #070A0D",
": 	c #E5E7E9",
"< 	c #F8F8F8",
"[ 	c #D4D4D4",
"} 	c #BCBCBC",
"| 	c #CCCCCC",
"1 	c #C9C9C9",
"2 	c #B4B172",
"3 	c #F7EE0C",
"4 	c #FBF101",
"5 	c #020305",
"6 	c #9E9E9F",
"7 	c #F4F4F5",
"8 	c #CECECE",
"9 	c #CFCFCF",
"0 	c #B5B5B5",
"a 	c #CBCAAC",
"b 	c #FBF20F",
"c 	c #CBC888",
"d 	c #F6ED0B",
"e 	c #626144",
"f 	c #353535",
"g 	c #0A0A0A",
"h 	c #000000",
"i 	c #838686",
"j 	c #B3B7BB",
"k 	c #DDDDDD",
"l 	c #B7B7B7",
"m 	c #C8C8C8",
"n 	c #C4C4C4",
"o 	c #B7BABD",
"p 	c #A8AA8F",
"q 	c #A1A1A1",
"r 	c #E4E3C6",
"s 	c #A2A2A2",
"t 	c #DFDFDF",
"u 	c #232324",
"v 	c #1B1B1B",
"w 	c #98999B",
"x 	c #BBBBBB",
"y 	c #C3C3C3",
"z 	c #BCBDBE",
"A 	c #A2A5A7",
"B 	c #CECFD0",
"C 	c #DADBDB",
"D 	c #E1E2E3",
"E 	c #F6F7F8",
"F 	c #D6D6D8",
"G 	c #AEB0B1",
"H 	c #7B7E80",
"I 	c #B3B6B8",
"J 	c #BFBFBF",
"K 	c #AEB1B5",
"L 	c #B9BBBC",
"M 	c #F2F2F2",
"N 	c #FBFCFC",
"O 	c #F8FAFB",
"P 	c #F7F8F9",
"Q 	c #CACBCD",
"R 	c #858B91",
"S 	c #171818",
"T 	c #737E87",
"U 	c #B9B9B9",
"V 	c #D8D8D8",
"W 	c #A7AAAC",
"X 	c #E4E4E4",
"Y 	c #E5E5E5",
"Z 	c #E3E4E4",
"` 	c #F9FAFB",
" .	c #DEDFDF",
"..	c #B3B6BA",
"+.	c #171A1D",
"@.	c #414447",
"#.	c #8D9398",
"$.	c #ABADAF",
"%.	c #FEFEFE",
"&.	c #FDFDFD",
"*.	c #F9FAFA",
"=.	c #F9F9FA",
"-.	c #CBCDD0",
";.	c #737B84",
">.	c #626973",
",.	c #868788",
"'.	c #EAEAEA",
").	c #FDFEFE",
"!.	c #FCFDFD",
"~.	c #FAFBFB",
"{.	c #EFF0F0",
"].	c #A8ADB3",
"^.	c #15171A",
"/.	c #11151A",
"(.	c #47515D",
"_.	c #C0C6CC",
":.	c #C4C8CB",
"<.	c #D5D6D7",
"[.	c #DBDBDB",
"}.	c #F3F4F4",
"|.	c #D1D1D2",
"1.	c #798087",
"2.	c #191B1D",
"3.	c #2A2D30",
"4.	c #474D50",
"5.	c #7E8284",
"6.	c #9B9D9F",
"7.	c #9FA5AB",
"8.	c #91989E",
"9.	c #0C0E10",
"0.	c #2A333D",
"a.	c #181D21",
"b.	c #1D2227",
"          . + @     #           ",
"        $ % & * =   # - #       ",
"      $ % ; > , ' ) # !   ~     ",
"    { ] ; ^ / # # # ( # # #     ",
"  _ : < [ } | 1 2 3 # 4 2 ~ ~   ",
"5 6 7 8 9 | 0 a b c # 2 d e f g ",
"h i j k l m n o p q # ~ r s t u ",
"  v w x m y z A B C D ~ E F G h ",
"  h H I t J K L M N O P E Q R h ",
"    S T U V W X Y Z ` P  ...+.  ",
"    h @.#.$.[ %.&.N *.=.-.;.h   ",
"      h >.,.Y '.).!.~.{.].^.    ",
"        /.(._.:.<.[.}.|.1.h     ",
"          2.3.4.5.6.7.8.9.      ",
"                  0.a.b.        ",
"                                "};
#endif
