/* XPM */
#ifndef XPMMAIN
extern char * new_txt_xpm[];

#else
char * new_txt_xpm[] = {
"16 16 78 1",
" 	c None",
".	c #000000",
"+	c #FEFEFE",
"@	c #090909",
"#	c #EEEEEE",
"$	c #F1F1F1",
"%	c #FBFBFB",
"&	c #FBE291",
"*	c #F2CC84",
"=	c #E2B497",
"-	c #F3F3F3",
";	c #767676",
">	c #F3F2F1",
",	c #FCE135",
"'	c #FFC729",
")	c #F6AB5E",
"!	c #F1EBE9",
"~	c #F0F0F0",
"{	c #161616",
"]	c #FCE397",
"^	c #FFDB35",
"/	c #FFC340",
"(	c #EAA871",
"_	c #EFEFEF",
":	c #C4C4C4",
"<	c #F6F6F6",
"[	c #FDE24E",
"}	c #FFCC36",
"|	c #FCAC4C",
"1	c #EEE2D9",
"2	c #ECECEC",
"3	c #FBE8B5",
"4	c #FFE458",
"5	c #FFCD55",
"6	c #EDAA6D",
"7	c #EBEBEB",
"8	c #FEE473",
"9	c #FFD861",
"0	c #FDC16A",
"a	c #EADBD1",
"b	c #EDEDED",
"c	c #EAEAEA",
"d	c #F4E9CE",
"e	c #FEEB80",
"f	c #FFD871",
"g	c #EFB579",
"h	c #E9E9E9",
"i	c #E8E8E8",
"j	c #E3E3E6",
"k	c #DDDDE1",
"l	c #FDFDFD",
"m	c #FBDF8D",
"n	c #FFE389",
"o	c #FED58A",
"p	c #E7C8B2",
"q	c #E2E2E5",
"r	c #DEDEE2",
"s	c #DFDFE2",
"t	c #E7E7E7",
"u	c #FCFCFC",
"v	c #F7D090",
"w	c #FFEAB7",
"x	c #ECB989",
"y	c #E0E0E4",
"z	c #DCDCE1",
"A	c #E6E6E6",
"B	c #E5E5E5",
"C	c #E0B98F",
"D	c #E2AD8A",
"E	c #DBD1D1",
"F	c #DDDDE2",
"G	c #E0E0E3",
"H	c #E4E4E4",
"I	c #DBBDA9",
"J	c #E0DBDC",
"K	c #E1E1E6",
"L	c #E5E5E8",
"M	c #E3E3E3",
" ............   ",
".++++++++++@+.  ",
".+###$$$$$$@%+. ",
".+###&*=-$$@;++.",
".+##>,')!$~@@@{.",
".+#~]^/(-___##:.",
".+#<[}|1_####2:.",
".+#3456~#####7:.",
".+-890a222bccc:.",
".+defghihjkhii:.",
".lmnop7qkrsttt:.",
".uvwxyzzAAAAAB:.",
".uCDEFFGAABBHH:.",
".lIJKL####HMMM:.",
".::::::::::::::.",
" .............. "};
#endif
