/* XPM */
#ifndef XPMMAIN
extern char *options_new_pad_xpm[];

#else
char * options_new_pad_xpm[] = {
"16 16 53 1",
" 	c None",
".	c #000000",
"+	c #FFF500",
"@	c #000200",
"#	c #003B00",
"$	c #006400",
"%	c #007700",
"&	c #1E5000",
"*	c #ECE300",
"=	c #787300",
"-	c #005F00",
";	c #007D00",
">	c #428200",
",	c #EBE200",
"'	c #F6ED00",
")	c #007600",
"!	c #006100",
"~	c #2B2900",
"{	c #427600",
"]	c #EBE600",
"^	c #F8EF00",
"/	c #6A6500",
"(	c #268200",
"_	c #EBEB00",
":	c #428D00",
"<	c #585400",
"[	c #F7ED00",
"}	c #007800",
"|	c #1E8600",
"1	c #003F00",
"2	c #006E00",
"3	c #003800",
"4	c #F0F0F0",
"5	c #DEDEDE",
"6	c #DFDFDF",
"7	c #BFBFBF",
"8	c #C0C0C0",
"9	c #979797",
"0	c #989898",
"a	c #E3E3E3",
"b	c #DDDDDD",
"c	c #C8C8C8",
"d	c #656565",
"e	c #838383",
"f	c #878787",
"g	c #888888",
"h	c #A3A3A3",
"i	c #CECECE",
"j	c #ABABAB",
"k	c #EEEEEE",
"l	c #EDEDED",
"m	c #E9E9E9",
"n	c #C1C1C1",
"   .....  +     ",
"  @#$%$&* +=+   ",
" @-;;;;;>,+'    ",
".#;;)!)+++~+++  ",
".$;)   %{]+^/   ",
".%;!   (_:+<[   ",
".$;)   }|1+.    ",
".#;;%2};;3..    ",
" @-;;...........",
"  @#.45666666666",
"   ..67777778888",
"    .679...08888",
"    .67.abc.defg",
"    .67.b8h.....",
"    .67.ih9.jklm",
"    .680...dennn"};
#endif
