/* XPM */
#ifndef XPMMAIN
extern char *options_arc_xpm[];

#else
char * options_arc_xpm[] = {
"16 16 49 1",
" 	c None",
".	c #00009B",
"+	c #000099",
"@	c #000097",
"#	c #000096",
"$	c #000073",
"%	c #000039",
"&	c #000036",
"*	c #000051",
"=	c #000086",
"-	c #00008E",
";	c #000093",
">	c #000085",
",	c #000074",
"'	c #000095",
")	c #000058",
"!	c #000000",
"~	c #000001",
"{	c #F0F0F0",
"]	c #DEDEDE",
"^	c #DFDFDF",
"/	c #DFDFE0",
"(	c #BFBFBF",
"_	c #C0C0C0",
":	c #C0C0C1",
"<	c #979797",
"[	c #989898",
"}	c #E3E3E3",
"|	c #DDDDDD",
"1	c #C8C8C8",
"2	c #656565",
"3	c #838384",
"4	c #878788",
"5	c #888888",
"6	c #AFAFAF",
"7	c #A3A3A3",
"8	c #F1F1F1",
"9	c #CECECE",
"0	c #ABABAB",
"a	c #EEEEEE",
"b	c #EDEDED",
"c	c #E9E9E9",
"d	c #D9D9D9",
"e	c #838383",
"f	c #C1C1C1",
"g	c #B5B5B5",
"h	c #757575",
"i	c #6B6B6B",
"j	c #777777",
"   .....        ",
" ........+@     ",
"  #$% &*=..-    ",
"          ;.>   ",
"           #.,  ",
"            .'  ",
"            +.) ",
"    !!!!!!!!~~!!",
"   !{]^^^^^^//^^",
"   !^((((((_::__",
"   !^(<!!![_::__",
"   !^(!}|1!23456",
"   !^(!|_7!!!!!8",
"   !^(!97<!0abcd",
"   !^_[!!!2effff",
"   !^_ghi2j5!!!["};
#endif
