/* XPM */
const char *ortho_xpm[]={
"16 15 2 1",
"# c #008080",
". c none",
"................",
"......####......",
".....######.....",
"....###..###....",
"....##....##....",
"...##......##...",
"...##......##...",
"...##......##...",
"...##......##...",
"...##......##...",
"....##....##....",
"....###..###....",
".....######.....",
"......####......",
"................"
};
