/* XPM */
#ifndef XPMMAIN
extern char *paste_xpm[];

#else
char * paste_xpm[] = {
"16 16 54 1",
" 	c None",
".	c #000000",
"+	c #8E8E8E",
"@	c #E3E3E3",
"#	c #696969",
"$	c #F1F0E1",
"%	c #ECE9D5",
"&	c #EDEBD8",
"*	c #2E2D29",
"=	c #7E7D76",
"-	c #5D5C58",
";	c #53534F",
">	c #21211E",
",	c #79776C",
"'	c #979487",
")	c #8C866C",
"!	c #EBE7D3",
"~	c #C1B485",
"{	c #343124",
"]	c #ABA89E",
"^	c #EFECE0",
"/	c #AEABA3",
"(	c #6C6A66",
"_	c #26241A",
":	c #8F8663",
"<	c #7A7251",
"[	c #988E69",
"}	c #353225",
"|	c #26231A",
"1	c #302D21",
"2	c #333023",
"3	c #6E674C",
"4	c #A69B72",
"5	c #7A7051",
"6	c #EBE8D4",
"7	c #D8D0B3",
"8	c #58523D",
"9	c #E9E6D2",
"0	c #FFFFFF",
"a	c #B9B9B9",
"b	c #A1A1A1",
"c	c #AAAAAA",
"d	c #D3D3D3",
"e	c #E9E6D1",
"f	c #E9E6D0",
"g	c #E8E5D0",
"h	c #A39870",
"i	c #EDEAD7",
"j	c #E9E5CE",
"k	c #AEAEAE",
"l	c #898267",
"m	c #746A45",
"n	c #6B623D",
"o	c #655A37",
"     ...        ",
" ....+@#....    ",
".$%&*=-;>,').   ",
".!~{]^^/(_:<.   ",
".%~[}|1|2345.   ",
".6~~78......... ",
".9~[~.000000000.",
".9~~7.0aba0cbd0.",
".e~[~.000000000.",
".f~~7.0abadab00.",
".g~h~.000000000.",
".g~~7.0abba0cd0.",
".i~h~.000000000.",
".j~~~.0dbb0cbk0.",
".lmno.000000000.",
" .............. "};
#endif
