/* XPM */
#ifndef XPMMAIN
extern const char *pin_xpm[];

#else
const char *pin_xpm[] = {
/* columns rows colors const chars-per-pixel */
"16 15 4 1",
"- c Black",
"o c Red",
": c Blue",
"X c None",

/* pixels */
"XXXXXXXoXoooXXXX",
"XXXXXXXooXXXoXXX",
"XXXXXXXooXXXoXXX",
"XXXXXXXoXoooXXXX",
"XXXXXXXoXXXXXXXX",
"X--XXXXoXXXXXXXX",
"-XX-XXXXXXXXXXXX",
"-XXX-----------X",
"-XX-XXXXXXXXXXXX",
"X--XXXXX:XXXXXXX",
"XXXXXXX::XXXXXXX",
"XXXXXX:X:XXXXXXX",
"XXXXXXXX:XXXXXXX",
"XXXXXXXX:XXXXXXX",
"XXXXXXX:::XXXXXX"
};
#endif

