/* XPM */
const char *pinorient_left_xpm[] = {
/* columns rows colors chars-per-pixel */
"15 15 3 1",
"  c none",
"X c #040204",
". c #C4C2C4",
/* pixels */
"               ",
"               ",
"X              ",
"X              ",
"X              ",
"X         XXX  ",
"X        X...X ",
"XXXXXXXXXX...X ",
"X        X...X ",
"X         XXX  ",
"X              ",
"X              ",
"X              ",
"               ",
"               "
};
