/* XPM */
const char *pintype_notspecif_xpm[] = {
/* columns rows colors chars-per-pixel */
"15 15 3 1",
"  c none",
"X c #040204",
". c #C4C2C4",
/* pixels */
"    XXXX       ",
"   X    X      ",
"   X     X     ",
"         X     ",
"       X       ",
"      X        ",
"      X        ",
"XXXXXXXXXXXXXXX",
"               ",
"      X        ",
"      X        ",
"               ",
"               ",
"               ",
"               "
};
