/* XPM */
const char *pintype_powerinput_xpm[] = {
/* columns rows colors chars-per-pixel */
"15 15 3 1",
"  c none",
"X c #040204",
". c #C4C2C4",
/* pixels */
"               ",
"               ",
"              X",
"              X",
"XX       XX   X",
"  XX     .XX  X",
"  XXXXXXXXXXX X",
"   XXXXXXXXXXXX",
"  XXXXXXXXXXX X",
"  XX     .XX  X",
"XX       XX   X",
"              X",
"              X",
"               ",
"               "
};
