/* XPM */
#ifndef XPMMAIN
extern char *plot_HPG_xpm[];

#else
char * plot_HPG_xpm[] = {
"16 16 17 1",
" 	c None",
".	c #000000",
"+	c #C3C3C3",
"@	c #616161",
"#	c #D72E2E",
"$	c #F5F5F5",
"%	c #EBEBEB",
"&	c #E1E1E1",
"*	c #006900",
"=	c #EEEEEE",
"-	c #5B5B5B",
";	c #2B2B2B",
">	c #757575",
",	c #707070",
"'	c #C8C8C8",
")	c #A6A6A6",
"!	c #3C3C3C",
"................",
".++++++++++++++.",
".+..........@#+.",
".+$%%%%%%%%%&++.",
".+$%%%%...%%&*+.",
".+$%%%%%%%%%&++.",
"..$...%...%%&...",
" .=%%%%%%%%%&-. ",
" ..%.%..;%>.,-. ",
" ..%.%.%.%.%&-. ",
" ....%..>%.>.-. ",
" ..%.%.%%%.%.-. ",
" ..%.%.%%%>.,-. ",
" .'))))))))))-. ",
" .-..........-. ",
" .!.        .!. "};
#endif
