/* XPM */
#ifndef XPMMAIN
extern const char *plot_xpm[];

#else
const char * plot_xpm[] = {
"16 16 12 1",
" 	c None",
".	c #000000",
"+	c #C3C3C3",
"@	c #D72E2E",
"#	c #F5F5F5",
"$	c #EBEBEB",
"%	c #E1E1E1",
"&	c #006900",
"*	c #5B5B5B",
"=	c #C8C8C8",
"-	c #A6A6A6",
";	c #3C3C3C",
"................",
".++++++++++++++.",
".+..........+@+.",
".+#$$$$$$$$%+++.",
".+#$$$$...$%+&+.",
".+#$$$$$$$$%+++.",
"..#...$...$%....",
" .#$$$$$$$$%.*. ",
" .#...$...$%.*. ",
" .#$$$$$$$$%.*. ",
" .#$$$$$$$$%.*. ",
" .#$$$$$$$$%.*. ",
" .#$$$$$$$$%.*. ",
" .=---------.*. ",
" .*..........*. ",
" .;.        .;. "};
#endif
