/* XPM */ 
#ifndef XPMMAIN
extern const char *polar_coord_xpm[];

#else
const char * polar_coord_xpm[] = {
"16 16 33 1",
" 	c None",
"!	c black",
"#	c #161616",
"$	c #161513",
"%	c #F2D7C0",
"&	c #F2BC8E",
"'	c #140D07",
"(	c #14111C",
")	c #F2B279",
"*	c #F29647",
"+	c #140A01",
",	c #000075",
"-	c #120A1F",
".	c #130904",
"0	c #00009A",
"1	c #000046",
"2	c #00009B",
"3	c #000066",
"4	c #00007B",
"5	c #000034",
"6	c #000097",
"7	c #000093",
"8	c #000098",
"9	c #000036",
":	c #000088",
";	c #00008D",
"<	c #000052",
"=	c #00006B",
">	c #00006C",
"?	c #000081",
"@	c #000080",
"A	c #000094",
"B	c #121212",
"!         #$    ",
"!        #%&'   ",
"!        ()*+   ",
"!        ,-.!   ",
"!       001     ",
"!      223      ",
"!     224       ",
"!    2205       ",
"!    2627       ",
"!   089:2;      ",
"!  20<  62=     ",
"! 22>    2:     ",
"!?2@     2A     ",
"!2;      28     ",
"!!!!!!!!!!!!!!!B",
"                "};
#endif
