/* XPM */
#ifndef XPMMAIN
extern const char *ratsnest_xpm[];

#else
const char *ratsnest_xpm[] = {
/* columns rows colors const chars-per-pixel */
"16 16 3 1",
"- c White",
"o c Red",
"X c None",

/* pixels */
"XoXXXXXXXXXXXX-o",
"XX-XXXXXXXXXX-XX",
"XXX-XXXXXXXo-XXX",
"XXXX-XXXXXo-oXXX",
"XXXXX-XXXXXo-XXX",
"XXXXXX-XXXXXX-XX",
"XXXXXXX-oXXXX-XX",
"XXXXXXXoooXXXX-o",
"XXXXXXX-oXXXXXo-",
"XXXXXX-XXXXXXXXo",
"XXXXX-XXXXXXXXXX",
"XXXX-oXXXXXXXXXX",
"XXXXooo-XXXXXXXX",
"XXXX-oXXX--XXXXX",
"XXX-XXXXXXXX--XX",
"XX-XXXXXXXXXXXX-"
};
#endif

