/* XPM */
#ifndef XPMMAIN
extern const char *rotate_pos_X_xpm[];

#else
const char *rotate_pos_X_xpm[] = {
/* width height num_colors const chars_per_pixel */
"    16    15        4            1",
/* colors */
". c #000080",
"# c #c0c0c0",
"a c #808080",
"o c #004000",
/* pixels */
"##oo###oo#######",
"###oo#oo########",
"####ooo#########",
"###oo#oo########",
"##oo...oo#######",
"##a.####..###.##",
"##.#######.#..##",
"##.########...##",
"##.#######....##",
"##a.#####.....##",
"###.a###########",
"################",
"################",
"################",
"################"
};

#endif
