/* XPM */
#ifndef XPMMAIN
extern char *rotate_field_xpm[];

#else
char * rotate_field_xpm[] = {
"16 16 76 1",
" 	c None",
".	c #D2D2D2",
"+	c #9D9D9D",
"@	c #DEDEDE",
"#	c #E0E0E0",
"$	c #5C5C5C",
"%	c #000000",
"&	c #EDEDED",
"*	c #939393",
"=	c #FDFDFD",
"-	c #E4E4E4",
";	c #F1F1F1",
">	c #CFCFCF",
",	c #C7C7C7",
"'	c #E7E7E7",
")	c #F4F4F4",
"!	c #8F8F8F",
"~	c #E9E9E9",
"{	c #B1B1B1",
"]	c #373737",
"^	c #67676A",
"/	c #3B3B3B",
"(	c #A3A3A3",
"_	c #D1D1D1",
":	c #FAFAFA",
"<	c #636363",
"[	c #F7F7F8",
"}	c #F8F8FF",
"|	c #EBEBF9",
"1	c #E0E0F3",
"2	c #BFBFD6",
"3	c #8B8BA0",
"4	c #4F4F57",
"5	c #B6B6B6",
"6	c #F0F0F0",
"7	c #9F9F9F",
"8	c #F1F1FF",
"9	c #EBEBFF",
"0	c #E4E4FF",
"a	c #DDDDFF",
"b	c #CECEF4",
"c	c #393945",
"d	c #777777",
"e	c #606060",
"f	c #3A3A3A",
"g	c #69696C",
"h	c #353536",
"i	c #3B3B3E",
"j	c #3F3F45",
"k	c #777789",
"l	c #D4D4FC",
"m	c #8888A7",
"n	c #2E2E2E",
"o	c #9494B0",
"p	c #B8B8E2",
"q	c #A1A1CC",
"r	c #A0A0C4",
"s	c #757594",
"t	c #CFCFFE",
"u	c #7D7D94",
"v	c #383842",
"w	c #2F2F34",
"x	c #1D1D1F",
"y	c #5C5C61",
"z	c #434345",
"A	c #2B2B37",
"B	c #C2C2EE",
"C	c #D7D7FF",
"D	c #F5F5FC",
"E	c #6F6F6F",
"F	c #22222A",
"G	c #83839B",
"H	c #B5B5D1",
"I	c #D8D8F2",
"J	c #E5E5F9",
"K	c #59595E",
".++++++++++++++.",
"+.@@@@@@@@@@@@@+",
"+#$%%$&%%%*&===+",
"+-%;;%;%>,%;===+",
"+'%))%)%%%!)===+",
"+~%%%%{]^/%(_==+",
"+&%::%<[}|12345+",
"+6===7<[}890abcd",
".+++++efghijklmn",
"   %%%  %   %op%",
"   %qr%   %  %%%",
"   %stuvwxyz    ",
"    ABCa098DE   ",
"     FGHIJ8DE%  ",
"       %%%Kz%   ",
"          %%    "};
#endif
