/* XPM */
#ifndef XPMMAIN
extern char *save_cmpstuff_xpm[];

#else
char * save_cmpstuff_xpm[] = {
"16 16 99 2",
"  	c None",
". 	c #160A00",
"+ 	c #FF7800",
"@ 	c #000000",
"# 	c #231000",
"$ 	c #E1DFDE",
"% 	c #44260C",
"& 	c #E86D00",
"* 	c #FFFFFF",
"= 	c #C35B00",
"- 	c #FAF6F3",
"; 	c #A38F7C",
"> 	c #C7B4A5",
", 	c #FDBD85",
"' 	c #FFBF87",
") 	c #FFF3EC",
"! 	c #FEE6D6",
"~ 	c #D8BDA8",
"{ 	c #C7874F",
"] 	c #F9B880",
"^ 	c #FFF5EF",
"/ 	c #FFE8D8",
"( 	c #FFDBC2",
"_ 	c #B9957C",
": 	c #010101",
"< 	c #FFEADC",
"[ 	c #FFDDC5",
"} 	c #FFD0AF",
"| 	c #F6F7F9",
"1 	c #CADCEA",
"2 	c #C78980",
"3 	c #D08E83",
"4 	c #CF8D82",
"5 	c #CF8E82",
"6 	c #FFDFC8",
"7 	c #FFD1B2",
"8 	c #FFC49C",
"9 	c #DAE6EF",
"0 	c #8CA8BC",
"a 	c #B6867D",
"b 	c #C67568",
"c 	c #C67467",
"d 	c #C57366",
"e 	c #C57365",
"f 	c #FFD3B5",
"g 	c #FFC69F",
"h 	c #FFB988",
"i 	c #010100",
"j 	c #CEDFEB",
"k 	c #D6D6D5",
"l 	c #FDFDFD",
"m 	c #FCFCFC",
"n 	c #FFC8A2",
"o 	c #FFBB8C",
"p 	c #FFAE75",
"q 	c #D6D6D6",
"r 	c #D5D5D5",
"s 	c #FFBD8F",
"t 	c #FFB079",
"u 	c #FFA262",
"v 	c #8CA8BD",
"w 	c #FBFBFB",
"x 	c #F3F3F3",
"y 	c #E9E9E9",
"z 	c #FFB27C",
"A 	c #FFA465",
"B 	c #FE9A55",
"C 	c #D6D5D5",
"D 	c #D3D2D2",
"E 	c #C4C3C3",
"F 	c #C4C4C4",
"G 	c #C3C3C3",
"H 	c #FFA669",
"I 	c #FAA162",
"J 	c #A37E60",
"K 	c #CEDFEC",
"L 	c #EDEDED",
"M 	c #F1F0F0",
"N 	c #EAE9E9",
"O 	c #EAEAEA",
"P 	c #E1A074",
"Q 	c #442102",
"R 	c #CEDEEB",
"S 	c #ADBDCB",
"T 	c #C8D4DD",
"U 	c #C5CDD8",
"V 	c #BEC9D4",
"W 	c #BECAD5",
"X 	c #BDC9D4",
"Y 	c #8CA7BC",
"Z 	c #87A4BA",
"` 	c #7E98AC",
" .	c #8098AC",
"..	c #7F98AC",
"+.	c #7D97AB",
"@.	c #8BA6BB",
"#.	c #A6AFBB",
"$.	c #CDCCCC",
"%.	c #9A9B9B",
"  .                   + + +     ",
"  @ #                 + + +     ",
"  @ $ %     & * =     + * + @ @ ",
"  @ * - ; > , ' ' * * + + + * @ ",
"  @ * ) ! ~ { ] ' * * + + + * @ ",
"@ @ ^ / ( _ : : : : : : : : : @ ",
"  @ < [ } : | 1 2 3 3 3 3 4 4 5 ",
"  @ 6 7 8 : 9 0 a b c c c d e d ",
"  @ f g h i j 0 k l l l l m m m ",
"  @ n o p i j 0 q q q q q r r r ",
"@ @ s t u i j v q l l l l w x y ",
"  @ z A B i j v q q q C D E F G ",
"  @ H I J : K v L l l M N N O y ",
"  @ P Q   @ R v S T U V W V X X ",
"  @ #     @ R Y Y Z `  . . ...+.",
"  .       @ R Y @.#.G E $.N r %."};
#endif
