/* XPM */
const char *show_footprint_xpm[] = {
/* columns rows colors chars-per-pixel */
"16 16 16 1",
"* c #4E4F5E",
"O c #797C84",
"; c #4343B7",
"= c #7F7FF8",
". c #AAABB0",
"+ c #7197E4",
"  c None",
"& c #62616F",
"o c #6E92B7",
"X c #95969C",
": c #363557",
"@ c #90C7EA",
"$ c #6B79B8",
"# c #7FACE8",
"% c #B4D8E6",
"- c #424286",
/* pixels */
"   .X..         ",
" .XoooOX        ",
" X+@@@#$X       ",
"Xo#@@@@#X       ",
"X#@%%%@o$&*.    ",
"X#@ oo++$$=$-O  ",
"Xoo####+o=====-O",
"*.###@#+X===$;;:",
"-O.o$+#.%o$-;;-:",
"-;-X..X$&%o--OX*",
":;;;;;$;-& .&:O*",
"O*;;;;-*X&O .:&O",
" .X:;;-:*&:O. &O",
"    O:::*& &X. .",
"      O.&& *O.. ",
"        **   .X "
};
