/* XPM */
#ifndef XPMMAIN
extern const char* Track_Sketch_xpm[];
#else
static const char * Track_Sketch_xpm[] = {
"16 16 5 1",
" 	c None",
".	c #007D00",
"+	c #D72E2E",
"@	c #6B5517",
"#	c #8F481E",
"          .. .. ",
"++++++    .. .. ",
"+++++++   .. .. ",
"     ++   .. .. ",
"++++  ++  .. .. ",
"+++++ ++  .. .. ",
"   ++  +  .. .. ",
"    ++ ++ .. .. ",
"    ++  + .. .. ",
"     +  ++++++++",
"     ++  +@#+@#+",
"      +   .. .. ",
"      ++++++++++",
"       +++@#+@#+",
"          .. .. ",
"          .. .. "};

#endif
