/* XPM */
#ifndef XPMMAIN
extern char *undelete_xpm[];

#else
char * undelete_xpm[] = {
"16 16 93 2",
"  	c None",
". 	c #000000",
"+ 	c #FFFFFF",
"@ 	c #2A2A2A",
"# 	c #EFEFEF",
"$ 	c #267726",
"% 	c #CCCCCC",
"& 	c #0F0F0F",
"* 	c #F4F4F4",
"= 	c #CDCDCA",
"- 	c #A7A7A2",
"; 	c #E1E1E0",
"> 	c #45453F",
", 	c #47473E",
"' 	c #515147",
") 	c #D3D3D2",
"! 	c #5F5F56",
"~ 	c #44443C",
"{ 	c #111111",
"] 	c #919185",
"^ 	c #DADAD7",
"/ 	c #EBEBEB",
"( 	c #EDEDED",
"_ 	c #BBC2CC",
": 	c #1C1C1C",
"< 	c #A6A699",
"[ 	c #828276",
"} 	c #79796E",
"| 	c #4E4E45",
"1 	c #181818",
"2 	c #ADAD9F",
"3 	c #8F8F81",
"4 	c #C6C6BD",
"5 	c #88887B",
"6 	c #090909",
"7 	c #818173",
"8 	c #D1D1C9",
"9 	c #858577",
"0 	c #A4A494",
"a 	c #646454",
"b 	c #7F7F71",
"c 	c #4D4D3F",
"d 	c #68685B",
"e 	c #4A4023",
"f 	c #ABAB9E",
"g 	c #CDCDC6",
"h 	c #A9A999",
"i 	c #666656",
"j 	c #7D7D6F",
"k 	c #49493C",
"l 	c #636358",
"m 	c #5A491D",
"n 	c #ACAC9F",
"o 	c #878779",
"p 	c #CECEC4",
"q 	c #89897D",
"r 	c #A8A89A",
"s 	c #656558",
"t 	c #79796B",
"u 	c #434336",
"v 	c #5D5D53",
"w 	c #5D4B1B",
"x 	c #A9A99B",
"y 	c #CACAC1",
"z 	c #A5A596",
"A 	c #616156",
"B 	c #77776B",
"C 	c #47473B",
"D 	c #535349",
"E 	c #614F20",
"F 	c #C7C7BE",
"G 	c #B1B1A3",
"H 	c #B2B2A9",
"I 	c #8F8F7D",
"J 	c #888880",
"K 	c #67675A",
"L 	c #65655F",
"M 	c #675B36",
"N 	c #493A12",
"O 	c #010101",
"P 	c #8B8B7C",
"Q 	c #79796A",
"R 	c #6C6C5E",
"S 	c #646459",
"T 	c #545448",
"U 	c #424238",
"V 	c #272720",
"W 	c #564210",
"X 	c #020202",
"Y 	c #040404",
"Z 	c #060606",
"` 	c #050505",
" .	c #030303",
"              . . . . . . . . . ",
"              . + + + + + + + . ",
"        @ @ @ . + # $ $ $ $ % . ",
"    & @ * = - . + # # $ $ $ % . ",
"    @ ; > , ' . + # $ $ $ $ % . ",
"    @ ) ! ~ ' . + $ $ $ # $ % . ",
"    { ] ^ / ( . + _ $ # # # % . ",
"    : < [ } | . + % % % % % % 1 ",
"    : 2 3 4 5 . . 6 . . . . . . ",
"    : 2 7 8 9 0 a b c d e .     ",
"    : f 9 g 5 h i j k l m .     ",
"    { n o p q r s t u v w .     ",
"    . x 5 y 5 z A B C D E .     ",
"    . n F G H I J K L M N .     ",
"      O P Q R S T U V W . .     ",
"        X Y Z `  .X . .         "};
#endif
