/* XPM */
#ifndef XPMMAIN
extern char *unit_inch_xpm[];

#else
char * unit_inch_xpm[] = {
"16 16 19 1",
" 	c None",
".	c #3F3F9B",
"+	c #9B9B9B",
"@	c #000000",
"#	c #010101",
"$	c #232323",
"%	c #666666",
"&	c #111111",
"*	c #252525",
"=	c #0D0D0D",
"-	c #747474",
";	c #878787",
">	c #131313",
",	c #585858",
"'	c #565656",
")	c #0B0B0B",
"!	c #272727",
"~	c #5E5E5E",
"{	c #949494",
"                ",
"     ....       ",
"      ..++      ",
"      ..+       ",
"      ..+       ",
"      ..+       ",
"      ..+       ",
"     ....       ",
"      ++++      ",
"   @        #$  ",
"  @%+        &* ",
" @@@@@@@@@@@@@@ ",
"  =-++++++++;>,+",
"  ')        @!+ ",
"   ~{        +  ",
"                "};
#endif
