/* XPM */
#ifndef XPMMAIN
extern const char * unknown_xpm[];
#else
const char * unknown_xpm[] = {
"16 16 49 1",
" 	c None",
".	c #C6C6D5",
"+	c #9494AD",
"@	c #FBFBFC",
"#	c #F8F8FA",
"$	c #F4F4F7",
"%	c #EEEEF2",
"&	c #EAEAF0",
"*	c #DEDEE7",
"=	c #E0E0E9",
"-	c #F5F5F8",
";	c #F0F0F4",
">	c #EDEDF2",
",	c #E1E1E9",
"'	c #C9C9D7",
")	c #E4E4EB",
"!	c #F7F7F9",
"~	c #F1F1F5",
"{	c #E6E6ED",
"]	c #DBDBE5",
"^	c #CDCDDA",
"/	c #BFBFD0",
"(	c #F2F2F6",
"_	c #E7E7EE",
":	c #E3E3EA",
"<	c #D0D0DC",
"[	c #C4C4D3",
"}	c #C2C2D1",
"|	c #FAFAFB",
"1	c #F3F3F6",
"2	c #E8E8EE",
"3	c #CBCBD9",
"4	c #C8C8D6",
"5	c #F9F9FA",
"6	c #DCDCE5",
"7	c #D6D6E1",
"8	c #D2D2DE",
"9	c #D1D1DD",
"0	c #CECEDB",
"a	c #EBEBF1",
"b	c #DADAE4",
"c	c #D4D4E0",
"d	c #E5E5EC",
"e	c #DFDFE8",
"f	c #DDDDE6",
"g	c #D7D7E2",
"h	c #E9E9EF",
"i	c #D9D9E3",
"j	c #EFEFF3",
"  ........+     ",
"  .@#$%&*=.+    ",
"  .@#-;>,=.'+   ",
"  .@#-;%)=++++  ",
"  .@!-~%{=]^/+  ",
"  .@!-(;_:<[}+  ",
"  .|!-1;2=34.+  ",
"  .5$(%&67890+  ",
"  .-(~a:]b7c8+  ",
"  .-$%d:efbg7+  ",
"  .!~h{)=e]i7+  ",
"  .!j2{)=e6bg+  ",
"  .$&2{d:e6bg+  ",
"  .12_d),e]bg+  ",
"  .;22{)=e6bg+  ",
"  ++++++++++++  "};
#endif

