/* XPM */
const char *zoom_out_xpm[] = {
/* columns rows colors chars-per-pixel */
"16 16 16 1",
"# c #9FBDDD",
"- c #9A9E98",
"X c #AFB8BD",
"@ c #D2DDE4",
"$ c #B2CBE2",
"; c #585955",
"o c #C4D5E4",
"  c None",
". c #898B87",
"* c #4C7AB4",
"& c #5682B7",
"% c #8DB1D7",
"= c #767672",
": c #BCC0BE",
"+ c #909490",
"O c #E5E7EC",
/* pixels */
"   ........     ",
"  ..XoOOoX..    ",
" .+o@####o@+.   ",
"..o$#$$$$#$o..  ",
".X@#o@oo$$%oX.  ",
".o#$&&&&&&##o.  ",
".O%&      *%O.  ",
".O%*      *%O.  ",
".@#%******%#@.  ",
".X@#%######OX.  ",
"..@@##$#$#o@.=  ",
" .-@Oooo@O@--;; ",
"  ..:OOO@:..::;;",
"   ..+..+.=;=.X;",
"           ;;=-;",
"            ;;;;"
};
