/* XPM */
const char *zoom_auto_xpm[] = {
/* columns rows colors chars-per-pixel */
"16 16 16 1",
"@ c #A1BDDC",
": c #74726C",
"* c #739AC8",
"% c #5D87BC",
"= c #787A78",
"; c #585955",
"  c None",
"& c #8EB0D2",
"X c #8B918E",
"O c #C0D2E1",
"$ c #537EB4",
"+ c #D9E0E7",
"# c #85A6CD",
"o c #B4BBBD",
"- c #A0A29C",
". c #898A86",
/* pixels */
"   ..X.....     ",
"  X.oO+++o..    ",
" .XO+@@@@O+X.   ",
"..O#$%##%$#OX.  ",
".o+$  &%  $Oo.  ",
"XO@% %&&$ %@+.  ",
"X+&#$&@@#**&+X  ",
".+&***@@*$%&+.  ",
"XO@$ $**$ $@OX  ",
".o+$  $*  $+o.  ",
".X+@$%##$%&+.=  ",
" .X+++O+O++--;; ",
"  .Xo++++o..oo;;",
"   .XXXXXX:;=.o;",
"           ;;=-;",
"            ;;;;"
};
