/* XPM */
#ifndef XPMMAIN
extern char * zoom_page_xpm[];

#else
char * zoom_page_xpm[] = {
"16 16 68 1",
" 	c None",
".	c #000000",
"+	c #262626",
"@	c #C5C5C5",
"#	c #EEEEEE",
"$	c #EDEDED",
"%	c #ABABAB",
"&	c #464646",
"*	c #878787",
"=	c #F1F1F1",
"-	c #FEFEFE",
";	c #FDFDFD",
">	c #FCFCFC",
",	c #EAEAEA",
"'	c #707070",
")	c #2E2E2E",
"!	c #A0A0A0",
"~	c #A9A9A9",
"{	c #E5E5E5",
"]	c #FBFBFB",
"^	c #E8E8E8",
"/	c #AFAFAF",
"(	c #F4F4F4",
"_	c #E9E9E9",
":	c #E1E1E1",
"<	c #FAFAFA",
"[	c #A4A4A4",
"}	c #F9F9F9",
"|	c #A8A8A8",
"1	c #E2E2E2",
"2	c #F8F8F8",
"3	c #D0D0D0",
"4	c #C7C7C7",
"5	c #BDBDBD",
"6	c #A7A7A7",
"7	c #E4E4E4",
"8	c #F7F7F7",
"9	c #F3F3F3",
"0	c #D4D4D4",
"a	c #C0C0C0",
"b	c #AEAEAE",
"c	c #A6A6A6",
"d	c #BABABA",
"e	c #444444",
"f	c #F5F5F5",
"g	c #F6F6F6",
"h	c #E7E7E7",
"i	c #858585",
"j	c #828282",
"k	c #E3E3E3",
"l	c #979797",
"m	c #6D6D6D",
"n	c #D6D6D6",
"o	c #2D2D2D",
"p	c #E0E0E0",
"q	c #DEDEDE",
"r	c #949494",
"s	c #7C7C7C",
"t	c #050505",
"u	c #040404",
"v	c #202020",
"w	c #BBBBBB",
"x	c #686868",
"y	c #343434",
"z	c #C2C2C2",
"A	c #797979",
"B	c #3A3A3A",
"C	c #1F1F1F",
"    ....        ",
"  .+@#$%&.      ",
" .*=--;>,'.     ",
" )!~~~{;]^&     ",
"./;;(_~:><[.    ",
"._}},>:|1<{.    ",
".^2}13456<7.    ",
".|8290abc}d.    ",
".e{fgffhch&     ",
".ijk((9{lm.     ",
".noe!pqr)....   ",
".;{s)tu.  vv..  ",
".;7kkkw.  .xy.. ",
".zwwww!.   .AB..",
" ......     .xC.",
"             .. "};
#endif
