/* XPM */
const char *zoom_in_xpm[] = {
/* columns rows colors chars-per-pixel */
"16 16 16 1",
"# c #2D2D2D",
"@ c #828FB4",
"O c #958B86",
". c #6D6E8C",
"% c #0A0B88",
"+ c #A8CFF7",
"* c #F4C284",
"  c None",
"$ c #CCE6FA",
"o c #9FA7B5",
"& c #3C3EA4",
"X c #585859",
"; c #B23014",
"= c #B45644",
"- c #FCCB43",
": c #E1651E",
/* pixels */
"   .XXXX.       ",
" oXO + @X#o     ",
" X $$ +$ X#     ",
".O+$$%.++o#.    ",
"X++++%.+++X#    ",
"X$o%%%%%&+.#    ",
"X$+..%&.@$.#    ",
"X+$$$%.$$$##    ",
"O.$$$&@$$O#O    ",
" XO$$$$$o.XO    ",
" oX.ooo.#X *=   ",
"   O.XXXoOO--=  ",
"          ;:--= ",
"           ;:--=",
"            ;:-:",
"             ;;="
};
