/* XPM */
#ifndef XPMMAIN
extern const char * zoomplus3d_xpm[];

#else
const char * zoomplus3d_xpm[] = {
"16 16 3 1",
"   c None",
".	c Black",
"X	c Gray100",
"    ....        ",
"  ..XXXX..      ",
" .XXXXXXXX.     ",
" .XXX..XXX.     ",
".XXXX..XXXX.    ",
".XX......XX.    ",
".XX......XX.    ",
".XXXX..XXXX.    ",
" .XXX..XXX.     ",
" .XXXXXXXX.     ",
"  ..XXXX...     ",
"    .... ...    ",
"          ...   ",
"           ...  ",
"            ... ",
"             .. "
};
#endif

