/* XPM */
const char *arrow_bottom_xpm[] = {
/* columns rows colors chars-per-pixel */
"22 22 16 1",
"  c #FCFEFC",
". c #0C3A58",
"= c #23C1D8",
"+ c #DBEDF6",
"# c #040204",
": c #A8D2E0",
"- c #49DBE8",
"% c #14688D",
"* c #0C8EB3",
"o c #89C9DE",
"X c #244862",
"; c #139DC1",
"@ c #317D9C",
"$ c #70C0D8",
"& c #12ADCE",
"O c #C3E1ED",
/* pixels */
"                      ",
"                      ",
"                      ",
"       ..XXX...       ",
"       .oO++O@#       ",
"       .+o$oo%#       ",
"       . O&*=%#       ",
"       . +$*-%#       ",
"       . O=*-%#       ",
"       . $&*=%#       ",
"  ......O$&;=;.X....  ",
"   #@$oo:&**=;&;@%#   ",
"    #@+:$&*;&=-;%#    ",
"     #@ +$;;=-;%#     ",
"      #@ +$$-;%#      ",
"       #@ O-;%#       ",
"        #@+;%#        ",
"         #@%#         ",
"          ##          ",
"                      ",
"                      ",
"                      "
};
