/* XPM */
const char *icon_pcbcalculator_xpm[] = {
/* columns rows colors chars-per-pixel */
"32 32 16 1",
"+ c #F2F3F2",
". c #BEBCBB",
": c #E49E64",
"X c #E6E5E5",
"; c #B07038",
"@ c #978E74",
"# c #A0A97C",
"* c #95918D",
"$ c #7F7B78",
"= c #8C524C",
"  c None",
"% c #686361",
"o c #A9A6A2",
"O c #BAC096",
"& c #494949",
"- c #887A64",
/* pixels */
"                                ",
"                                ",
"             .XXXXXXXXXXXXXXXX. ",
"    .........oX OOOOOOOOOOOO Xo ",
"   .+X++XXXXX.X OOOOOOOOO@@O Xo ",
"    XXXXXXXXX.X OOOOOOOOO##O Xo ",
"    XXXXXXXXX.  OOOOOOOOO@##  o ",
"    XXXXXXXXX.                o ",
"    XXXXXXXXXo  .. ..  .. ..  o ",
"    XXXXXXXXXo $%& &$%*%&.=-= o ",
"    XXXXXXX Xo o%% %%*o%% -%$ * ",
"    XXXXXX .Xo o%% %%*o%%.$%* * ",
"    X XXXX. Xo $$&.&$%$%&.%$- * ",
"    X.XXXX. Xo..*o.o*o.**.ooo.* ",
"   .XXXXXX. Xo.$%&.&%%*&&.%$%.* ",
"   .XXXXXX. Xo.$%&.&%-*%%.--$.* ",
"   .+XXXXX .Xo.o$$.*$oo$@.*@*.* ",
"   .+XXXXXX.X*.%$&.%-%$**o;:;.* ",
"   .+XX+X+X X*.o%-.@$*o$$.@-*.$ ",
"   .+ XXX+X + *ooooooooooooo*** ",
"   .X.XX   X++X..........$oooo  ",
"   .+XXX.X+++++++++++++++*      ",
"   .+X   ++++++++++++++++*      ",
"   .+XX  ++++++++++++++++*      ",
"   .+XXX. X++++   ++   ++*      ",
"   .+XXX .oX+++   X+   ++*      ",
"  .o+XX+++X ++++++ ++++++*.     ",
"  .o+XX++X .X+++++X++++++*.     ",
"  .*XXXXXXXXX++++++++++++$.     ",
"  .o$$$$$$$$$$$$$$$$$$$$$o.     ",
"    .....................       ",
"                                "
};
