/* XPM */
static const char *microstrip_zodd_zeven_xpm[] = {
/* columns rows colors chars-per-pixel */
"119 47 16 1",
"& c #686A26",
"+ c #080808",
"# c #9E9E99",
"@ c #6B5760",
"$ c #272726",
"O c #797071",
"X c #575846",
"; c #990922",
"o c #543C40",
"* c #7D7D03",
"% c #747449",
"  c None",
". c #838382",
"= c #0B209D",
": c #94273A",
"- c #53530F",
/* pixels */
"                        .XooXooo.      O.......                                         O+++++++o              OOOOOOO@",
"                        o+++++++O      ++++++++                                         O+++++++o             #++++++++",
"                        X+oOO.O.#      oXoooo++#                                        O+X                    ++oXoX@X",
"                        o+.                  ++                                         @+@                   #++      ",
"                        o+O                  ++#                                        O+X                   #+$      ",
"                   ##.#.$+.                  ++#                                   @XoXo$+@                   #++      ",
"                  #+++++++.                  +++++++X                              +++++++@              o++++++$      ",
"                  #$$$$o$o#                  $++++++o                              OOOO...#              X++++++$      ",
"                                                                                                                       ",
"                  %%%&%&%%%%%%%X       .%%%%%%%%%%%%X                            #&&&&&&&&&&&&&$       %&%&%&%&%&%%&X  ",
"                 &***&=@******--#     %****X=&*****--                           #&***o==******-&      &***&==X*****-%  ",
"                %**X====*****&*-     .****X==@*****&&                          #***====@*****-*&     &**X====&****-*%  ",
"               &**======*****-**#   .****&===*****&*%                         #&**=====X****-**&    &**&=====****-**%  ",
"              %***X====&****-**&   .****&===*****-**%                        #****X====****-***%   %****o====****-**#  ",
"             &****o====****-***#  .*****===&****-**%                        #&****=====***-***&   %****&====@***-**O   ",
"            %****X===@=***-***.  .*****===X****-**&#                       #*****===X=@***&**&   %*****===&=X**-**&    ",
"           &****&===*****-***.  #*****o==o****-***.                       #&****o==o*****-**&#  %*****===X****-**&     ",
"          %****&===*****-***O  #***X====@*****&**O                       #*****X==@*****-***#  %*****===X****-**&#     ",
"         &*****===&****-***%  #&***=====*****&**%                       #&****&===*****-***.  %*****o==@****-***.      ",
"        %*****===X****-***&  #*****====o****-**&                       #*****&===*****-***.  O*****X===*****&**%       ",
"       &*****@==@****-&**&  #&*****=====&**-***#                      #******===&****-***%  .*****&===*****-**%        ",
"      %*****&==o****&&**&  #&*****X===X***-***.                      #&*****X==&****-***XOOX******@==*****-**&.#### ## ",
"     &*******o@*****-***# #&******XoX****&***O                      #********oX****--**-$o$********o&****--*-$+$+$++++$",
"    &**************-***.  -**************-**X.......OO             .--*-*&*-*&*-*--&**&..X---*--*-*-*-*--***X........$O",
"   %--------*------***++++---------------**-$$$$$o$o$+.            %**************-**-O..X**************-**X........X$ ",
"   .**************-**XO..%**************-*&O........oo             %**************-**O...&**************-*&O........+# ",
"   .**************-*X....X**************-*X........O+#             %**************-*@....X**************--O........o@  ",
"   .**************-X.....X**************-X.........+.              %**************-@.....&**************-@........@+#  ",
"   #%%%O%%O&O%.&$XXO.....OXXXXXXXXXXXXXXo.........oo               #O.....%.X$X@@X@......@@X@@X@X@X@X@X@@.........$.   ",
"          @;O #+O................................@$#                     #;:+O...............O...................X$    ",
"         O;;;.+@.................................+.                      :;;:...................................O+#    ",
"         :;;;;@.................................$X                      @;;;;@.....OOOO.........................$@     ",
"        .::;;;@..@;:;:;..........@:....@;......@$#                      :;;;::...:;;;;:........................@$      ",
"          :;:....O@@:;:..........o;....@;......+.                       .+;:......OO:;@..O...O......O....O.O...+.      ",
"          ;;@.......;;..@:;:..O:::;.O:;:;.....$@                       #+@;:O......@;:..:;;@O;@.:;.:;;@O:::;;.oo       ",
"         $;;@......:;O..;:O::.;:O;:.;:O:;....@+                        $@@;:......O;:..O;.@;.::O;@O;O@;O@;O@;@$#       ",
"        o$:;@.....:;@..@;O.o;O;@.:;.;@.:;...O+#                       o$.O;:.....O;;...:;;:;OO;@;.o;;::O::.O;+O        ",
"       X$.:;@...O@;o...O;@.::.;@.::.;@.:;...$@                       O$..@;:.....:;@@OO@;O@@..;;:.O;OO:.:;.O;$         ",
"      @$O.:;@....:;;;;;.:;;;O.:;;;;.@;;:;..@$                       #+O..@;:.....;;;;;;.:;;o..o;@..:;;o.o:.@;.         ",
"     O$O..:;@O...O@O@@@..O@....OOOO..O@O@.O+#                       +@...O;:.............O..........O......$@          ",
"    .+O:;;;;;;;O..........................$@                       $o.@;;;;;;;@...........................@+           ",
"   .+O.:;;;;;;;O.........................X$                       @$..@;;;;;;;o..........................O$.           ",
"  #+O...OO.O.O..........................O+#                      .+....OOOOOOO...........................oo            ",
" #+@....................................$O                      #+O.....................................O+#            ",
"#$@....................................Xo                       +@......................................$O             ",
"$+$o$o$oooooooooooo$oooo$oo$oo$o$o$oo$$+#                      o$XX@X@X@XX@XX@@X@@@XO@@@O@O@O@O@O@O@O@Oo$              ",
"..OO.OOOOOOOOOOOOOOOOOOOOOOOOOOOOOOOO..#                       Oooooooooooooo$oo$o$o$$o$$$$$$$$$$$$$$$$+#              "
};
