/* XPM */
static char * delete_association_xpm[] = {
"16 16 148 2",
"  	c None",
". 	c #160A00",
"+ 	c #FF7800",
"@ 	c #000000",
"# 	c #231000",
"$ 	c #E1DFDE",
"% 	c #44260C",
"& 	c #E86D00",
"* 	c #FFFFFF",
"= 	c #C35B00",
"- 	c #FAF6F3",
"; 	c #A38F7C",
"> 	c #C7B4A5",
", 	c #FDBD85",
"' 	c #FFBF87",
") 	c #FFF3EC",
"! 	c #FEE6D6",
"~ 	c #D8BDA8",
"{ 	c #C7874F",
"] 	c #F9B880",
"^ 	c #FFF5EF",
"/ 	c #FFE8D8",
"( 	c #FFDBC2",
"_ 	c #FFCEAB",
": 	c #F4C8A9",
"< 	c #D6B69C",
"[ 	c #F6EDE6",
"} 	c #F3F3F3",
"| 	c #878787",
"1 	c #FFEADC",
"2 	c #FFDDC5",
"3 	c #EFC3A4",
"4 	c #B68B6D",
"5 	c #0E0E0E",
"6 	c #424242",
"7 	c #4A4A4A",
"8 	c #3E3E3E",
"9 	c #2C2C2C",
"0 	c #010101",
"a 	c #C1C1C1",
"b 	c #222222",
"c 	c #FFDFC8",
"d 	c #C7A38B",
"e 	c #848270",
"f 	c #EFECD6",
"g 	c #F1F0E7",
"h 	c #EDECE3",
"i 	c #C6C5B9",
"j 	c #535246",
"k 	c #C3A28B",
"l 	c #101010",
"m 	c #C1BFA4",
"n 	c #C0BEA3",
"o 	c #7A7966",
"p 	c #48473F",
"q 	c #272724",
"r 	c #36352E",
"s 	c #868472",
"t 	c #9F9D87",
"u 	c #A2A089",
"v 	c #A3A18A",
"w 	c #2B2B2B",
"x 	c #D2D0BB",
"y 	c #DBD9C2",
"z 	c #E1DFCD",
"A 	c #B8B6A0",
"B 	c #64625A",
"C 	c #393836",
"D 	c #3C3C33",
"E 	c #616053",
"F 	c #999782",
"G 	c #B6B49A",
"H 	c #B1B096",
"I 	c #E7E3D1",
"J 	c #F3F0E7",
"K 	c #F1F0E2",
"L 	c #E9E8D8",
"M 	c #E4E1D1",
"N 	c #D4D1BD",
"O 	c #C2C0A6",
"P 	c #AEAC93",
"Q 	c #BFBDA3",
"R 	c #C5C3AB",
"S 	c #B7B59B",
"T 	c #797766",
"U 	c #010100",
"V 	c #898874",
"W 	c #F0ECD0",
"X 	c #FAF7E7",
"Y 	c #F8F4EB",
"Z 	c #F7F6ED",
"` 	c #F7F6EB",
" .	c #F4F2E5",
"..	c #EBE9D8",
"+.	c #DDDBC9",
"@.	c #9C9987",
"#.	c #636153",
"$.	c #58574A",
"%.	c #7E5234",
"&.	c #525145",
"*.	c #737064",
"=.	c #9E9C90",
"-.	c #E3E0C7",
";.	c #E8E4CE",
">.	c #E1DFCA",
",.	c #D0D0CA",
"'.	c #8D8C7F",
").	c #767463",
"!.	c #686657",
"~.	c #434137",
"{.	c #292822",
"].	c #E1A074",
"^.	c #1E1E1A",
"/.	c #33332F",
"(.	c #4A4843",
"_.	c #686661",
":.	c #706F66",
"<.	c #6B6A63",
"[.	c #6D6B5C",
"}.	c #57564A",
"|.	c #393830",
"1.	c #171615",
"2.	c #1A1915",
"3.	c #1E1D18",
"4.	c #2A2922",
"5.	c #9E9E93",
"6.	c #4C4C3F",
"7.	c #36352F",
"8.	c #2A2925",
"9.	c #2F2E29",
"0.	c #0E0E0C",
"a.	c #0A0A08",
"b.	c #100F0C",
"c.	c #3E3D37",
"d.	c #34332A",
"e.	c #23231E",
"f.	c #2B2A23",
"g.	c #A3A297",
"h.	c #B5B4AC",
"i.	c #716F66",
"j.	c #A09F90",
"k.	c #747262",
"l.	c #3F3F34",
"m.	c #68685A",
"n.	c #39382E",
"o.	c #69685E",
"p.	c #3F3E33",
"q.	c #25251F",
"  .                   + + +     ",
"  @ #                 + + +     ",
"  @ $ %     & * =     + * + @ @ ",
"  @ * - ; > , ' ' * * + + + * @ ",
"  @ * ) ! ~ { ] ' * * + + + * @ ",
"@ @ ^ / ( _ : < [ * * * * } | @ ",
"  @ 1 2 3 4 5 6 7 8 9 0 a b     ",
"  @ c d 0 0 e f g h i j 0 @     ",
"  @ k l m n o p q r s t u v @   ",
"  @ w x y z A B C D E F G H u @ ",
"@ @ 0 I J K L M N O P Q R S T @ ",
"  @ U V W X Y Z `  ...+.@.#.$.@ ",
"  @ %.&.*.=.-.;.>.,.'.).!.~.{.@ ",
"  @ ].^./.(._.:.<.[.}.|.1.2.3.@ ",
"  @ # 4.5.6.7.8.9.0.a.b.c.d.e.  ",
"  .   f.g.h.i.j.k.l.m.n.o.p.q.  "};
