<?xml version="1.0" encoding="UTF-8" standalone="no"?>
<svg
   id="Слой_1"
   data-name="Слой 1"
   viewBox="0 0 256 256"
   version="1.1"
   sodipodi:docname="application-x-kicad-pcb.svg"
   inkscape:version="1.2.2 (b0a8486541, 2022-12-01)"
   width="256"
   height="256"
   inkscape:export-filename="../../128x128/mimetypes/application-x-kicad-pcb.png"
   inkscape:export-xdpi="48"
   inkscape:export-ydpi="48"
   xmlns:inkscape="http://www.inkscape.org/namespaces/inkscape"
   xmlns:sodipodi="http://sodipodi.sourceforge.net/DTD/sodipodi-0.dtd"
   xmlns:xlink="http://www.w3.org/1999/xlink"
   xmlns="http://www.w3.org/2000/svg"
   xmlns:svg="http://www.w3.org/2000/svg"
   xmlns:rdf="http://www.w3.org/1999/02/22-rdf-syntax-ns#"
   xmlns:cc="http://creativecommons.org/ns#"
   xmlns:dc="http://purl.org/dc/elements/1.1/">
  <sodipodi:namedview
     pagecolor="#ffffff"
     bordercolor="#666666"
     borderopacity="1"
     objecttolerance="10"
     gridtolerance="10"
     guidetolerance="10"
     inkscape:pageopacity="0"
     inkscape:pageshadow="2"
     inkscape:window-width="1514"
     inkscape:window-height="1247"
     id="namedview30"
     showgrid="true"
     inkscape:zoom="1.8955546"
     inkscape:cx="60.14071"
     inkscape:cy="109.46664"
     inkscape:window-x="4082"
     inkscape:window-y="210"
     inkscape:window-maximized="0"
     inkscape:document-rotation="0"
     inkscape:current-layer="g4648"
     inkscape:snap-bbox="true"
     inkscape:object-paths="true"
     inkscape:snap-intersection-paths="true"
     inkscape:snap-smooth-nodes="true"
     inkscape:bbox-nodes="false"
     inkscape:snap-bbox-edge-midpoints="false"
     inkscape:bbox-paths="true"
     inkscape:showpageshadow="2"
     inkscape:pagecheckerboard="0"
     inkscape:deskcolor="#d1d1d1">
    <inkscape:grid
       type="xygrid"
       id="grid_kicad"
       spacingx="0.5"
       spacingy="0.5"
       color="#9999ff"
       opacity="0.13"
       empspacing="2" />
  </sodipodi:namedview>
  <metadata
     id="metadata43">
    <rdf:RDF>
      <cc:Work
         rdf:about="">
        <cc:license
           rdf:resource="http://creativecommons.org/licenses/by-sa/4.0/" />
        <dc:format>image/svg+xml</dc:format>
        <dc:type
           rdf:resource="http://purl.org/dc/dcmitype/StillImage" />
        <dc:title>ps_diff_pair_tune_phase</dc:title>
      </cc:Work>
      <cc:License
         rdf:about="http://creativecommons.org/licenses/by-sa/4.0/">
        <cc:permits
           rdf:resource="http://creativecommons.org/ns#Reproduction" />
        <cc:permits
           rdf:resource="http://creativecommons.org/ns#Distribution" />
        <cc:requires
           rdf:resource="http://creativecommons.org/ns#Notice" />
        <cc:requires
           rdf:resource="http://creativecommons.org/ns#Attribution" />
        <cc:permits
           rdf:resource="http://creativecommons.org/ns#DerivativeWorks" />
        <cc:requires
           rdf:resource="http://creativecommons.org/ns#ShareAlike" />
      </cc:License>
    </rdf:RDF>
  </metadata>
  <defs
     id="defs159429">
    <marker
       style="overflow:visible"
       id="marker3727"
       refX="0"
       refY="0"
       orient="auto"
       inkscape:stockid="DotS"
       inkscape:isstock="true">
      <path
         transform="matrix(0.2,0,0,0.2,1.48,0.2)"
         style="fill:#c9ddc9;fill-opacity:1;fill-rule:evenodd;stroke:#c9ddc9;stroke-width:1pt;stroke-opacity:1"
         d="m -2.5,-1 c 0,2.76 -2.24,5 -5,5 -2.76,0 -5,-2.24 -5,-5 0,-2.76 2.24,-5 5,-5 2.76,0 5,2.24 5,5 z"
         id="path3725" />
    </marker>
    <marker
       style="overflow:visible"
       id="marker3403"
       refX="0"
       refY="0"
       orient="auto"
       inkscape:stockid="DotS"
       inkscape:isstock="true"
       inkscape:collect="always">
      <path
         transform="matrix(0.2,0,0,0.2,1.48,0.2)"
         style="fill:#c9ddc9;fill-opacity:1;fill-rule:evenodd;stroke:#c9ddc9;stroke-width:1pt;stroke-opacity:1"
         d="m -2.5,-1 c 0,2.76 -2.24,5 -5,5 -2.76,0 -5,-2.24 -5,-5 0,-2.76 2.24,-5 5,-5 2.76,0 5,2.24 5,5 z"
         id="path3401" />
    </marker>
    <marker
       style="overflow:visible"
       id="marker3269"
       refX="0"
       refY="0"
       orient="auto"
       inkscape:stockid="DotS"
       inkscape:isstock="true"
       inkscape:collect="always">
      <path
         transform="matrix(0.2,0,0,0.2,1.48,0.2)"
         style="fill:#c9ddc9;fill-opacity:1;fill-rule:evenodd;stroke:#c9ddc9;stroke-width:1pt;stroke-opacity:1"
         d="m -2.5,-1 c 0,2.76 -2.24,5 -5,5 -2.76,0 -5,-2.24 -5,-5 0,-2.76 2.24,-5 5,-5 2.76,0 5,2.24 5,5 z"
         id="path3267" />
    </marker>
    <marker
       style="overflow:visible"
       id="marker3125"
       refX="0"
       refY="0"
       orient="auto"
       inkscape:stockid="DotS"
       inkscape:isstock="true"
       inkscape:collect="always">
      <path
         transform="matrix(0.2,0,0,0.2,1.48,0.2)"
         style="fill:#c9ddc9;fill-opacity:1;fill-rule:evenodd;stroke:#c9ddc9;stroke-width:1pt;stroke-opacity:1"
         d="m -2.5,-1 c 0,2.76 -2.24,5 -5,5 -2.76,0 -5,-2.24 -5,-5 0,-2.76 2.24,-5 5,-5 2.76,0 5,2.24 5,5 z"
         id="path3123" />
    </marker>
    <inkscape:path-effect
       effect="fillet_chamfer"
       id="path-effect884"
       is_visible="true"
       lpeversion="1"
       satellites_param="F,0,0,1,0,3,0,1 @ F,0,0,1,0,3,0,1 @ F,0,0,1,0,3,0,1 @ F,0,0,1,0,3,0,1"
       unit="px"
       method="auto"
       mode="F"
       radius="0"
       chamfer_steps="1"
       flexible="false"
       use_knot_distance="true"
       apply_no_radius="true"
       apply_with_radius="true"
       only_selected="false"
       hide_knots="false"
       nodesatellites_param="F,0,0,1,0,3,0,1 @ F,0,0,1,0,3,0,1 @ F,0,0,1,0,3,0,1 @ F,0,0,1,0,3,0,1" />
    <style
       id="style159427">.cls-1{fill:#1a81c4;}</style>
    <linearGradient
       inkscape:collect="always"
       xlink:href="#radialGradient1350"
       id="linearGradient5941"
       gradientUnits="userSpaceOnUse"
       gradientTransform="matrix(3.7245395,0,0,3.7245395,365.2063,282.44422)"
       x1="-160.86667"
       y1="118.53333"
       x2="-67.733337"
       y2="-76.200005" />
    <radialGradient
       id="radialGradient1350"
       cx="50.0093"
       cy="23.271601"
       r="28.023199"
       gradientTransform="matrix(0,-0.45961851,0.81826096,0,80.071454,-81.239161)"
       gradientUnits="userSpaceOnUse">
      <stop
         offset="0"
         stop-color="#2b4bed"
         id="stop1346"
         style="stop-color:#ffffff;stop-opacity:1" />
      <stop
         offset="1"
         stop-color="#2b2fb7"
         id="stop1348"
         style="stop-color:#f3f3f3;stop-opacity:1" />
    </radialGradient>
    <radialGradient
       id="radialGradient1350-3"
       cx="50.0093"
       cy="23.271601"
       r="28.023199"
       gradientTransform="matrix(0,-0.45961851,0.81826096,0,80.071454,-81.239161)"
       gradientUnits="userSpaceOnUse">
      <stop
         offset="0"
         stop-color="#2b4bed"
         id="stop1346-6"
         style="stop-color:#ffffff;stop-opacity:1" />
      <stop
         offset="1"
         stop-color="#2b2fb7"
         id="stop1348-7"
         style="stop-color:#f3f3f3;stop-opacity:1" />
    </radialGradient>
    <linearGradient
       inkscape:collect="always"
       xlink:href="#linearGradient3066"
       id="linearGradient3068"
       x1="-436.03336"
       y1="-160.86667"
       x2="-309.03336"
       y2="-220.13333"
       gradientUnits="userSpaceOnUse"
       gradientTransform="matrix(2.5628208,0,0,2.5628208,1152.1189,608.92097)" />
    <linearGradient
       inkscape:collect="always"
       id="linearGradient3066">
      <stop
         style="stop-color:#489648;stop-opacity:1;"
         offset="0"
         id="stop3062" />
      <stop
         style="stop-color:#489648;stop-opacity:0;"
         offset="1"
         id="stop3064" />
    </linearGradient>
    <clipPath
       clipPathUnits="userSpaceOnUse"
       id="clipPath1720">
      <rect
         style="fill:none;fill-opacity:1;stroke:#333333;stroke-width:2;stroke-linecap:round;stroke-linejoin:round;stroke-miterlimit:4;stroke-dasharray:none;stroke-opacity:1"
         id="rect1722"
         width="16"
         height="16"
         x="8"
         y="4.9999995"
         ry="2.6555922" />
    </clipPath>
    <clipPath
       clipPathUnits="userSpaceOnUse"
       id="clipPath2395">
      <rect
         style="fill:none;fill-opacity:1;stroke:#333333;stroke-width:2;stroke-linecap:round;stroke-linejoin:round;stroke-miterlimit:4;stroke-dasharray:none;stroke-opacity:1"
         id="rect2393"
         width="16"
         height="16"
         x="8"
         y="4.9999995"
         ry="2.6555922" />
    </clipPath>
    <radialGradient
       id="radialGradient1350-5"
       cx="50.0093"
       cy="23.271601"
       r="28.023199"
       gradientTransform="matrix(0,-0.45961851,0.81826096,0,80.071454,-81.239161)"
       gradientUnits="userSpaceOnUse">
      <stop
         offset="0"
         stop-color="#2b4bed"
         id="stop1346-3"
         style="stop-color:#ffffff;stop-opacity:1" />
      <stop
         offset="1"
         stop-color="#2b2fb7"
         id="stop1348-5"
         style="stop-color:#f3f3f3;stop-opacity:1" />
    </radialGradient>
    <radialGradient
       id="radialGradient2461"
       cx="50.0093"
       cy="23.271601"
       r="28.023199"
       gradientTransform="matrix(0,-0.45961851,0.81826096,0,80.071454,-81.239161)"
       gradientUnits="userSpaceOnUse">
      <stop
         offset="0"
         stop-color="#2b4bed"
         id="stop2457"
         style="stop-color:#ffffff;stop-opacity:1" />
      <stop
         offset="1"
         stop-color="#2b2fb7"
         id="stop2459"
         style="stop-color:#f3f3f3;stop-opacity:1" />
    </radialGradient>
    <clipPath
       clipPathUnits="userSpaceOnUse"
       id="clipPath1720-0">
      <rect
         style="fill:none;fill-opacity:1;stroke:#333333;stroke-width:2;stroke-linecap:round;stroke-linejoin:round;stroke-miterlimit:4;stroke-dasharray:none;stroke-opacity:1"
         id="rect1722-9"
         width="16"
         height="16"
         x="8"
         y="4.9999995"
         ry="2.6555922" />
    </clipPath>
    <clipPath
       clipPathUnits="userSpaceOnUse"
       id="clipPath2473">
      <rect
         style="fill:none;fill-opacity:1;stroke:#333333;stroke-width:2;stroke-linecap:round;stroke-linejoin:round;stroke-miterlimit:4;stroke-dasharray:none;stroke-opacity:1"
         id="rect2471"
         width="16"
         height="16"
         x="8"
         y="4.9999995"
         ry="2.6555922" />
    </clipPath>
    <radialGradient
       id="radialGradient1350-7"
       cx="50.0093"
       cy="23.271601"
       r="28.023199"
       gradientTransform="matrix(0,-0.45961851,0.81826096,0,80.071454,-81.239161)"
       gradientUnits="userSpaceOnUse">
      <stop
         offset="0"
         stop-color="#2b4bed"
         id="stop1346-36"
         style="stop-color:#ffffff;stop-opacity:1" />
      <stop
         offset="1"
         stop-color="#2b2fb7"
         id="stop1348-1"
         style="stop-color:#f3f3f3;stop-opacity:1" />
    </radialGradient>
    <radialGradient
       id="radialGradient2612"
       cx="50.0093"
       cy="23.271601"
       r="28.023199"
       gradientTransform="matrix(0,-0.45961851,0.81826096,0,80.071454,-81.239161)"
       gradientUnits="userSpaceOnUse">
      <stop
         offset="0"
         stop-color="#2b4bed"
         id="stop2608"
         style="stop-color:#ffffff;stop-opacity:1" />
      <stop
         offset="1"
         stop-color="#2b2fb7"
         id="stop2610"
         style="stop-color:#f3f3f3;stop-opacity:1" />
    </radialGradient>
    <clipPath
       clipPathUnits="userSpaceOnUse"
       id="clipPath1720-7">
      <rect
         style="fill:none;fill-opacity:1;stroke:#333333;stroke-width:2;stroke-linecap:round;stroke-linejoin:round;stroke-miterlimit:4;stroke-dasharray:none;stroke-opacity:1"
         id="rect1722-8"
         width="16"
         height="16"
         x="8"
         y="4.9999995"
         ry="2.6555922" />
    </clipPath>
    <clipPath
       clipPathUnits="userSpaceOnUse"
       id="clipPath2624">
      <rect
         style="fill:none;fill-opacity:1;stroke:#333333;stroke-width:2;stroke-linecap:round;stroke-linejoin:round;stroke-miterlimit:4;stroke-dasharray:none;stroke-opacity:1"
         id="rect2622"
         width="16"
         height="16"
         x="8"
         y="4.9999995"
         ry="2.6555922" />
    </clipPath>
  </defs>
  <title
     id="title159431">ps_diff_pair_tune_phase</title>
  <g
     id="g4648">
    <path
       id="path5939"
       style="fill:url(#linearGradient5941);fill-opacity:1;stroke:#bebebe;stroke-width:4;stroke-linecap:square;stroke-linejoin:round;stroke-miterlimit:4;stroke-dasharray:none;stroke-dashoffset:0;stroke-opacity:1;paint-order:normal"
       d="m 46,2 h 111 l 63,63 v 174 c 0,8.73506 -7.26521,15 -16,15 H 46 c -8.734786,0 -16,-7.26494 -16,-16 V 18 C 30,9.2649563 37.265221,2.0108911 46,2 Z"
       sodipodi:nodetypes="sccssssss" />
    <path
       id="path5956"
       style="fill:#c9ddc9;fill-opacity:1;stroke:none;stroke-width:0.744908;stroke-linecap:square;stroke-linejoin:round;stroke-miterlimit:4;stroke-dasharray:none;stroke-dashoffset:0;stroke-opacity:1;paint-order:normal"
       d="M 218,172 32,219 v 19 c 0,7.73556 6.264682,14 14,14 h 158 c 7.73527,0 14.04264,-5.26456 14,-13 z M 28.423676,238.37052 v 0.371 c 0,2.2665 0.492013,4.40655 1.345782,6.35064 -0.85761,-2.07323 -1.345782,-4.33886 -1.345782,-6.72164 z"
       sodipodi:nodetypes="ccssssccscc" />
    <path
       style="fill:none;stroke:#c9ddc9;stroke-width:6;stroke-linecap:round;stroke-miterlimit:4;stroke-dasharray:none;stroke-opacity:1;marker-start:url(#marker3125);paint-order:fill markers stroke"
       d="M 130,51 H 77 L 61,66 v 52"
       id="path880"
       sodipodi:nodetypes="cccc" />
    <path
       style="color:#000000;font-style:normal;font-variant:normal;font-weight:normal;font-stretch:normal;font-size:medium;line-height:normal;font-family:sans-serif;font-variant-ligatures:normal;font-variant-position:normal;font-variant-caps:normal;font-variant-numeric:normal;font-variant-alternates:normal;font-variant-east-asian:normal;font-feature-settings:normal;font-variation-settings:normal;text-indent:0;text-align:start;text-decoration:none;text-decoration-line:none;text-decoration-style:solid;text-decoration-color:#000000;letter-spacing:normal;word-spacing:normal;text-transform:none;writing-mode:lr-tb;direction:ltr;text-orientation:mixed;dominant-baseline:auto;baseline-shift:baseline;text-anchor:start;white-space:normal;shape-padding:0;shape-margin:0;inline-size:0;clip-rule:nonzero;display:inline;overflow:visible;visibility:visible;isolation:auto;mix-blend-mode:normal;color-interpolation:sRGB;color-interpolation-filters:linearRGB;solid-color:#000000;solid-opacity:1;vector-effect:none;fill:#000000;fill-opacity:0;fill-rule:nonzero;stroke:none;stroke-width:5.21435;stroke-linecap:round;stroke-linejoin:miter;stroke-miterlimit:4;stroke-dasharray:none;stroke-dashoffset:0;stroke-opacity:1;paint-order:fill markers stroke;color-rendering:auto;image-rendering:auto;shape-rendering:auto;text-rendering:auto;enable-background:accumulate;stop-color:#000000"
       d="m 107.01844,43.577116 h 59.12705 c 1.09189,0 1.97092,0.878989 1.97092,1.970877 v 27.592651 c 0,1.091888 -0.87903,1.970877 -1.97092,1.970877 h -59.12705 c -1.09189,0 -1.97088,-0.878989 -1.97088,-1.970877 V 45.547993 c 0,-1.091888 0.87899,-1.970877 1.97088,-1.970877 z"
       id="path6035" />
    <path
       id="path5943"
       style="fill:#72ad72;fill-opacity:1;stroke:#bebebe;stroke-width:4;stroke-linecap:square;stroke-linejoin:round;stroke-miterlimit:4;stroke-dasharray:none;stroke-dashoffset:0;stroke-opacity:1;paint-order:normal"
       d="m 156,2 v 47 c 0,8.735013 7.26484,16.012659 16,16 h 48 z"
       sodipodi:nodetypes="csscc" />
    <path
       style="color:#000000;font-style:normal;font-variant:normal;font-weight:normal;font-stretch:normal;font-size:medium;line-height:normal;font-family:sans-serif;font-variant-ligatures:normal;font-variant-position:normal;font-variant-caps:normal;font-variant-numeric:normal;font-variant-alternates:normal;font-variant-east-asian:normal;font-feature-settings:normal;font-variation-settings:normal;text-indent:0;text-align:start;text-decoration:none;text-decoration-line:none;text-decoration-style:solid;text-decoration-color:#000000;letter-spacing:normal;word-spacing:normal;text-transform:none;writing-mode:lr-tb;direction:ltr;text-orientation:mixed;dominant-baseline:auto;baseline-shift:baseline;text-anchor:start;white-space:normal;shape-padding:0;shape-margin:0;inline-size:0;clip-rule:nonzero;display:inline;overflow:visible;visibility:visible;isolation:auto;mix-blend-mode:normal;color-interpolation:sRGB;color-interpolation-filters:linearRGB;solid-color:#000000;solid-opacity:1;vector-effect:none;fill:url(#linearGradient3068);fill-opacity:1;fill-rule:nonzero;stroke:none;stroke-width:2;stroke-linecap:round;stroke-linejoin:round;stroke-miterlimit:4;stroke-dasharray:none;stroke-dashoffset:0;stroke-opacity:1;color-rendering:auto;image-rendering:auto;shape-rendering:auto;text-rendering:auto;enable-background:accumulate;stop-color:#000000"
       d="m 12.999998,228 h 23.999995 v -6 c 0,-2.49314 1.506866,-3.99999 4.00001,-3.99999 h 5.000004 c 2.173922,0 3.999994,1.82607 3.999994,3.99999 v 6 h 17.000002 v -6 c 0,-2.26669 0.999994,-3.99999 3.999994,-3.99999 2.999999,0 4.000009,1.9354 4.000009,3.99999 v 14 c 0,3.63896 1.361002,6 4.999989,6 h 15.000012 c 3.638987,0 4.999989,-2.36103 4.999989,-6 v -14 c 0,-2.0006 1.000014,-3.99999 4.000014,-3.99999 C 107,218.00001 108,220 108,222 v 14 c 0,3.63897 2,6 5,6 h 15 c 3,0 5,-3 5,-6 v -10.00001 c 0,-3.99999 3,-7.99998 7,-7.99998 h 5.99995 c 3,0 6,-2.65456 6,-7.00001 v -61 c 0,-3 -1.99999,-5 -4.99999,-5 h -45 c -4.300699,0 -8.650242,-1.5713 -11.917886,-4.36746 L 62.362536,116.91268 c -2.037152,-1.74322 -4.362638,-2.91267 -7.362637,-2.91267 H 20.999896 c -5.000095,0 -7.999898,4.99999 -7.999898,9.99999 z"
       id="path4599" />
    <rect
       style="opacity:0.5;fill:#000000;fill-opacity:1;stroke:none;stroke-width:2.11125;stroke-linecap:round;stroke-linejoin:round;stroke-miterlimit:4;stroke-dasharray:none;stroke-opacity:1;paint-order:fill markers stroke"
       id="rect3222"
       width="14"
       height="14"
       x="21.000008"
       y="122.00002" />
    <path
       style="fill:none;stroke:#c9ddc9;stroke-width:6;stroke-linecap:round;stroke-miterlimit:4;stroke-dasharray:none;stroke-opacity:1;marker-start:url(#marker3269);paint-order:fill markers stroke"
       d="M 186,79 H 116 L 89,51"
       id="path3265"
       sodipodi:nodetypes="ccc" />
    <path
       style="fill:none;stroke:#c9ddc9;stroke-width:6;stroke-linecap:round;stroke-miterlimit:4;stroke-dasharray:none;stroke-opacity:1;marker-start:url(#marker3403);paint-order:fill markers stroke"
       d="M 186,102 H 84"
       id="path3399"
       sodipodi:nodetypes="cc" />
    <path
       style="fill:none;stroke:#c9ddc9;stroke-width:6;stroke-linecap:round;stroke-miterlimit:4;stroke-dasharray:none;stroke-opacity:1;marker-start:url(#marker3727);paint-order:fill markers stroke"
       d="M 186,125 H 84"
       id="path3517"
       sodipodi:nodetypes="cc" />
    <path
       id="path4465"
       style="color:#000000;font-style:normal;font-variant:normal;font-weight:normal;font-stretch:normal;font-size:medium;line-height:normal;font-family:sans-serif;font-variant-ligatures:normal;font-variant-position:normal;font-variant-caps:normal;font-variant-numeric:normal;font-variant-alternates:normal;font-variant-east-asian:normal;font-feature-settings:normal;font-variation-settings:normal;text-indent:0;text-align:start;text-decoration:none;text-decoration-line:none;text-decoration-style:solid;text-decoration-color:#000000;letter-spacing:normal;word-spacing:normal;text-transform:none;writing-mode:lr-tb;direction:ltr;text-orientation:mixed;dominant-baseline:auto;baseline-shift:baseline;text-anchor:start;white-space:normal;shape-padding:0;shape-margin:0;inline-size:0;clip-rule:nonzero;display:inline;overflow:visible;visibility:visible;isolation:auto;mix-blend-mode:normal;color-interpolation:sRGB;color-interpolation-filters:linearRGB;solid-color:#000000;solid-opacity:1;vector-effect:none;fill:#325232;fill-opacity:1;fill-rule:nonzero;stroke:none;stroke-linecap:square;stroke-linejoin:round;stroke-miterlimit:4;stroke-dasharray:none;stroke-dashoffset:0;stroke-opacity:1;paint-order:fill markers stroke;color-rendering:auto;image-rendering:auto;shape-rendering:auto;text-rendering:auto;enable-background:accumulate;stop-color:#000000;stop-opacity:1;opacity:1"
       d="M 58 114.43359 L 58 115 L 58 146.56445 L 28.941406 170 L 16 170 L 13 170 L 13 176 L 16 176 L 30 176 A 3.0003 3.0003 0 0 0 31.882812 175.33594 L 62.882812 150.33594 A 3.0003 3.0003 0 0 0 64 148 L 64 118.3125 L 62.363281 116.91211 C 61.061158 115.79786 59.638576 114.92344 58 114.43359 z " />
    <path
       style="color:#000000;font-style:normal;font-variant:normal;font-weight:normal;font-stretch:normal;font-size:medium;line-height:normal;font-family:sans-serif;font-variant-ligatures:normal;font-variant-position:normal;font-variant-caps:normal;font-variant-numeric:normal;font-variant-alternates:normal;font-variant-east-asian:normal;font-feature-settings:normal;font-variation-settings:normal;text-indent:0;text-align:start;text-decoration:none;text-decoration-line:none;text-decoration-style:solid;text-decoration-color:#000000;letter-spacing:normal;word-spacing:normal;text-transform:none;writing-mode:lr-tb;direction:ltr;text-orientation:mixed;dominant-baseline:auto;baseline-shift:baseline;text-anchor:start;white-space:normal;shape-padding:0;shape-margin:0;inline-size:0;clip-rule:nonzero;display:inline;overflow:visible;visibility:visible;isolation:auto;mix-blend-mode:normal;color-interpolation:sRGB;color-interpolation-filters:linearRGB;solid-color:#000000;solid-opacity:1;vector-effect:none;fill:#4c724c;fill-opacity:1;fill-rule:nonzero;stroke:none;stroke-linecap:round;stroke-linejoin:round;stroke-miterlimit:4;stroke-dasharray:none;stroke-dashoffset:0;stroke-opacity:1;color-rendering:auto;image-rendering:auto;shape-rendering:auto;text-rendering:auto;enable-background:accumulate;stop-color:#000000"
       d="m 21,113 c -2.833374,0 -5.158552,1.45621 -6.681641,3.5332 C 12.795271,118.6102 12,121.30001 12,124 v 104 a 1.0001,1.0001 0 0 0 1,1 h 24 a 1.0001,1.0001 0 0 0 1,-1 v -6 c 0,-1.0451 0.296546,-1.75358 0.771484,-2.22852 C 39.246422,219.29655 39.954894,219 41,219 h 5 c 1.61393,0 3,1.38607 3,3 v 6 a 1.0001,1.0001 0 0 0 1,1 h 17 a 1.0001,1.0001 0 0 0 1,-1 v -6 c 0,-0.98629 0.219953,-1.72443 0.628906,-2.19336 C 69.03786,219.33771 69.692589,219 71,219 c 1.284955,0 1.934971,0.36534 2.359375,0.86914 C 73.783779,220.37294 74,221.12916 74,222 v 14 c 0,1.94415 0.348786,3.66803 1.339844,4.9707 C 76.330901,242.27337 77.964234,243 80,243 h 15 c 2.035765,0 3.669098,-0.72663 4.660156,-2.0293 C 100.65121,239.66803 101,237.94415 101,236 v -14 c 0,-0.83368 0.21352,-1.59456 0.64258,-2.10938 C 102.07163,219.37581 102.72215,219 104,219 c 1.27777,0 1.92833,0.37571 2.35742,0.89062 C 106.78652,220.40554 107,221.16667 107,222 v 14 c 0,2.00269 0.55047,3.7434 1.60742,5.00586 C 109.66438,242.26832 111.23766,243 113,243 h 15 c 1.83333,0 3.38794,-0.94242 4.41406,-2.26172 C 133.44019,239.41898 134,237.72222 134,236 v -10 c 0,-1.74999 0.6715,-3.54409 1.76758,-4.85938 C 136.86365,219.82534 138.33333,219 140,219 h 6 c 3.5899,0 7,-3.1943 7,-8 v -61 c 0,-1.72222 -0.59094,-3.255 -1.66797,-4.33203 C 150.255,144.59094 148.72222,144 147,144 h -45 c -4.057126,0 -8.19239,-1.49548 -11.267578,-4.12695 L 63.013672,116.15234 C 60.858746,114.30834 58.259877,113 55,113 Z m 0,2 h 34 c 2.740121,0 4.793513,1.02944 6.712891,2.67188 l 27.71875,23.7207 C 92.891741,144.35342 97.455728,146 102,146 h 45 c 1.27778,0 2.245,0.40906 2.91797,1.08203 C 150.59094,147.755 151,148.72222 151,150 v 61 c 0,3.8852 -2.5899,6 -5,6 h -6 c -2.33333,0 -4.36365,1.17467 -5.76758,2.85938 C 132.8285,221.54408 132,223.75 132,226 v 10 c 0,1.27778 -0.44019,2.58102 -1.16406,3.51172 C 130.11206,240.44242 129.16667,241 128,241 h -15 c -1.23766,0 -2.16438,-0.44955 -2.85742,-1.27734 C 109.44953,238.89486 109,237.63628 109,236 v -14 c 0,-1.16667 -0.28652,-2.40554 -1.10742,-3.39062 C 107.07168,217.62429 105.72222,217 104,217 c -1.72215,0 -3.07163,0.62434 -3.89258,1.60938 C 99.286471,219.59441 99,220.83308 99,222 v 14 c 0,1.69482 -0.332451,2.97218 -0.931641,3.75977 C 97.469169,240.54735 96.603222,241 95,241 H 80 c -1.603221,0 -2.469169,-0.45264 -3.068359,-1.24023 C 76.33245,238.97218 76,237.69481 76,236 v -14 c 0,-1.19375 -0.283774,-2.43792 -1.109375,-3.41797 C 74.065024,217.60198 72.715044,217 71,217 c -1.692589,0 -3.037863,0.5278 -3.878906,1.49219 C 66.28005,219.45658 66,220.7196 66,222 v 5 H 51 v -5 c 0,-2.73391 -2.266086,-5 -5,-5 h -5 c -1.448038,0 -2.740797,0.45565 -3.642578,1.35742 C 36.455641,219.2592 36,220.55196 36,222 v 5 H 14 V 124 c 0,-2.30001 0.704804,-4.6102 1.931641,-6.2832 C 17.158477,116.04379 18.833279,115 21,115 Z"
       id="path4601" />
    <path
       id="path4494"
       style="opacity:1;fill:#325232;fill-opacity:1;stroke:none;stroke-width:6;stroke-linecap:square;stroke-linejoin:round;stroke-miterlimit:4;stroke-dasharray:none;stroke-opacity:1;paint-order:fill markers stroke"
       d="M 60 166 L 28 190 L 28 228 L 37 228 L 37 222 C 37 219.50686 38.506856 218 41 218 L 46 218 C 48.173922 218 50 219.82608 50 222 L 50 228 L 67 228 L 67 222 C 67 219.73331 68 218 71 218 C 73.999999 218 75 219.93541 75 222 L 75 236 C 75 239.63896 76.361013 242 80 242 L 95 242 C 98.638987 242 100 239.63897 100 236 L 100 222 C 100 219.9994 101 218 104 218 C 106.99999 218 108 220 108 222 L 108 236 C 108 239.63897 110 242 113 242 L 128 242 C 131 242 133 239 133 236 L 133 226 C 133 222.00001 136 218 140 218 L 146 218 C 149 218 152 215.34545 152 211 L 152 166 L 60 166 z " />
    <path
       id="rect880"
       clip-path="url(#clipPath1720)"
       style="fill:#dd8d15;fill-opacity:1;stroke:none;stroke-width:1.34164;stroke-linecap:round;stroke-linejoin:round"
       transform="matrix(0,-5.1063835,-5,0,203,318.70214)"
       d="m 17,15 h 1.154165 v 3 H 17 c -0.554,0 -1,-0.446 -1,-1 v -1 c 0,-0.554 0.446,-1 1,-1 z"
       sodipodi:nodetypes="sccssss" />
    <path
       id="path3057"
       clip-path="url(#clipPath1720)"
       style="fill:#dd8d15;fill-opacity:1;stroke:none;stroke-width:1.34164;stroke-linecap:round;stroke-linejoin:round"
       transform="matrix(0,-5.1063835,-5.0000001,0,170,318.70214)"
       d="m 17,15 h 1.154165 v 3 H 17 c -0.554,0 -1,-0.446 -1,-1 v -1 c 0,-0.554 0.446,-1 1,-1 z"
       sodipodi:nodetypes="sccssss" />
    <rect
       style="opacity:0.5;fill:#000000;fill-opacity:1;stroke:none;stroke-width:3.31766;stroke-linecap:round;stroke-linejoin:round;stroke-miterlimit:4;stroke-dasharray:none;stroke-opacity:1;paint-order:fill markers stroke"
       id="rect3143"
       width="22"
       height="22"
       x="84.000008"
       y="177.99998" />
    <path
       id="rect3206"
       style="fill:none;fill-opacity:1;stroke:#4c724c;stroke-width:2;stroke-linecap:square;stroke-linejoin:miter;stroke-miterlimit:4;stroke-dasharray:none;stroke-dashoffset:0;stroke-opacity:1;paint-order:fill markers stroke"
       d="m 82,176 h 26 v 26 H 82 Z"
       sodipodi:nodetypes="ccccc" />
    <circle
       style="opacity:0.5;fill:#182918;fill-opacity:1;stroke:none;stroke-width:1.88976;stroke-linecap:square;stroke-linejoin:miter;stroke-miterlimit:4;stroke-dasharray:none;stroke-dashoffset:0;stroke-opacity:1;paint-order:fill markers stroke"
       id="circle3214"
       cx="36"
       cy="208"
       r="3.9999998" />
    <circle
       style="opacity:0.5;fill:#182918;fill-opacity:1;stroke:none;stroke-width:1.88976;stroke-linecap:square;stroke-linejoin:miter;stroke-miterlimit:4;stroke-dasharray:none;stroke-dashoffset:0;stroke-opacity:1;paint-order:fill markers stroke"
       id="circle3216"
       cx="63.999992"
       cy="208"
       r="3.9999998" />
  </g>
</svg>
