<?xml version="1.0" encoding="UTF-8" standalone="no"?>
<svg
   id="Слой_1"
   data-name="Слой 1"
   viewBox="0 0 48 48"
   version="1.1"
   sodipodi:docname="application-x-kicad-project-48.svg"
   inkscape:version="1.2.2 (b0a8486541, 2022-12-01)"
   width="48"
   height="48"
   inkscape:export-filename="../../48x48/mimetypes/application-x-kicad-project.png"
   inkscape:export-xdpi="96"
   inkscape:export-ydpi="96"
   xmlns:inkscape="http://www.inkscape.org/namespaces/inkscape"
   xmlns:sodipodi="http://sodipodi.sourceforge.net/DTD/sodipodi-0.dtd"
   xmlns:xlink="http://www.w3.org/1999/xlink"
   xmlns="http://www.w3.org/2000/svg"
   xmlns:svg="http://www.w3.org/2000/svg"
   xmlns:rdf="http://www.w3.org/1999/02/22-rdf-syntax-ns#"
   xmlns:cc="http://creativecommons.org/ns#"
   xmlns:dc="http://purl.org/dc/elements/1.1/">
  <sodipodi:namedview
     pagecolor="#ffffff"
     bordercolor="#666666"
     borderopacity="1"
     objecttolerance="10"
     gridtolerance="10"
     guidetolerance="10"
     inkscape:pageopacity="0"
     inkscape:pageshadow="2"
     inkscape:window-width="3840"
     inkscape:window-height="2109"
     id="namedview30"
     showgrid="true"
     inkscape:zoom="11.313709"
     inkscape:cx="11.22532"
     inkscape:cy="29.919454"
     inkscape:window-x="0"
     inkscape:window-y="27"
     inkscape:window-maximized="1"
     inkscape:document-rotation="0"
     inkscape:current-layer="g21945"
     inkscape:snap-bbox="true"
     inkscape:object-paths="true"
     inkscape:snap-intersection-paths="true"
     inkscape:snap-smooth-nodes="true"
     inkscape:bbox-nodes="false"
     inkscape:snap-bbox-edge-midpoints="false"
     inkscape:bbox-paths="true"
     inkscape:showpageshadow="2"
     inkscape:pagecheckerboard="0"
     inkscape:deskcolor="#d1d1d1">
    <inkscape:grid
       type="xygrid"
       id="grid_kicad"
       spacingx="0.5"
       spacingy="0.5"
       color="#9999ff"
       opacity="0.13"
       empspacing="2"
       originx="0"
       originy="0"
       units="px"
       visible="true" />
  </sodipodi:namedview>
  <metadata
     id="metadata43">
    <rdf:RDF>
      <cc:Work
         rdf:about="">
        <dc:format>image/svg+xml</dc:format>
        <dc:type
           rdf:resource="http://purl.org/dc/dcmitype/StillImage" />
        <dc:title>application-x-kicad-project-48</dc:title>
        <cc:license
           rdf:resource="http://creativecommons.org/licenses/by-sa/4.0/" />
      </cc:Work>
      <cc:License
         rdf:about="http://creativecommons.org/licenses/by-sa/4.0/">
        <cc:permits
           rdf:resource="http://creativecommons.org/ns#Reproduction" />
        <cc:permits
           rdf:resource="http://creativecommons.org/ns#Distribution" />
        <cc:requires
           rdf:resource="http://creativecommons.org/ns#Notice" />
        <cc:requires
           rdf:resource="http://creativecommons.org/ns#Attribution" />
        <cc:permits
           rdf:resource="http://creativecommons.org/ns#DerivativeWorks" />
        <cc:requires
           rdf:resource="http://creativecommons.org/ns#ShareAlike" />
      </cc:License>
    </rdf:RDF>
  </metadata>
  <defs
     id="defs159429">
    <marker
       style="overflow:visible"
       id="marker1956"
       refX="0"
       refY="0"
       orient="auto"
       inkscape:stockid="DotS"
       inkscape:isstock="true"
       inkscape:collect="always">
      <path
         transform="matrix(0.2,0,0,0.2,1.48,0.2)"
         style="fill:#909dd7;fill-opacity:1;fill-rule:evenodd;stroke:#909dd7;stroke-width:1pt;stroke-opacity:1"
         d="m -2.5,-1 c 0,2.76 -2.24,5 -5,5 -2.76,0 -5,-2.24 -5,-5 0,-2.76 2.24,-5 5,-5 2.76,0 5,2.24 5,5 z"
         id="path1954" />
    </marker>
    <marker
       style="overflow:visible"
       id="marker1936"
       refX="0"
       refY="0"
       orient="auto"
       inkscape:stockid="DotS"
       inkscape:isstock="true">
      <path
         transform="matrix(0.2,0,0,0.2,1.48,0.2)"
         style="fill:#909dd7;fill-opacity:1;fill-rule:evenodd;stroke:#909dd7;stroke-width:1pt;stroke-opacity:1"
         d="m -2.5,-1 c 0,2.76 -2.24,5 -5,5 -2.76,0 -5,-2.24 -5,-5 0,-2.76 2.24,-5 5,-5 2.76,0 5,2.24 5,5 z"
         id="path1934" />
    </marker>
    <marker
       style="overflow:visible"
       id="marker1926"
       refX="0"
       refY="0"
       orient="auto"
       inkscape:stockid="DotS"
       inkscape:isstock="true">
      <path
         transform="matrix(0.2,0,0,0.2,1.48,0.2)"
         style="fill:#909dd7;fill-opacity:1;fill-rule:evenodd;stroke:#909dd7;stroke-width:1pt;stroke-opacity:1"
         d="m -2.5,-1 c 0,2.76 -2.24,5 -5,5 -2.76,0 -5,-2.24 -5,-5 0,-2.76 2.24,-5 5,-5 2.76,0 5,2.24 5,5 z"
         id="path1924" />
    </marker>
    <marker
       style="overflow:visible"
       id="marker1676"
       refX="0"
       refY="0"
       orient="auto"
       inkscape:stockid="DotS"
       inkscape:isstock="true"
       inkscape:collect="always">
      <path
         transform="matrix(0.2,0,0,0.2,1.48,0.2)"
         style="fill:#909dd7;fill-opacity:1;fill-rule:evenodd;stroke:#909dd7;stroke-width:1pt;stroke-opacity:1"
         d="m -2.5,-1 c 0,2.76 -2.24,5 -5,5 -2.76,0 -5,-2.24 -5,-5 0,-2.76 2.24,-5 5,-5 2.76,0 5,2.24 5,5 z"
         id="path1674" />
    </marker>
    <marker
       style="overflow:visible"
       id="marker3727"
       refX="0"
       refY="0"
       orient="auto"
       inkscape:stockid="DotS"
       inkscape:isstock="true"
       inkscape:collect="always">
      <path
         transform="matrix(0.2,0,0,0.2,1.48,0.2)"
         style="fill:#909dd7;fill-opacity:1;fill-rule:evenodd;stroke:#909dd7;stroke-width:1pt;stroke-opacity:1"
         d="m -2.5,-1 c 0,2.76 -2.24,5 -5,5 -2.76,0 -5,-2.24 -5,-5 0,-2.76 2.24,-5 5,-5 2.76,0 5,2.24 5,5 z"
         id="path3725" />
    </marker>
    <marker
       style="overflow:visible"
       id="marker3403"
       refX="0"
       refY="0"
       orient="auto"
       inkscape:stockid="DotS"
       inkscape:isstock="true"
       inkscape:collect="always">
      <path
         transform="matrix(0.2,0,0,0.2,1.48,0.2)"
         style="fill:#909dd7;fill-opacity:1;fill-rule:evenodd;stroke:#909dd7;stroke-width:1pt;stroke-opacity:1"
         d="m -2.5,-1 c 0,2.76 -2.24,5 -5,5 -2.76,0 -5,-2.24 -5,-5 0,-2.76 2.24,-5 5,-5 2.76,0 5,2.24 5,5 z"
         id="path3401" />
    </marker>
    <marker
       style="overflow:visible"
       id="marker3269"
       refX="0"
       refY="0"
       orient="auto"
       inkscape:stockid="DotS"
       inkscape:isstock="true"
       inkscape:collect="always">
      <path
         transform="matrix(0.2,0,0,0.2,1.48,0.2)"
         style="fill:#909dd7;fill-opacity:1;fill-rule:evenodd;stroke:#909dd7;stroke-width:1pt;stroke-opacity:1"
         d="m -2.5,-1 c 0,2.76 -2.24,5 -5,5 -2.76,0 -5,-2.24 -5,-5 0,-2.76 2.24,-5 5,-5 2.76,0 5,2.24 5,5 z"
         id="path3267" />
    </marker>
    <style
       id="style159427">.cls-1{fill:#1a81c4;}</style>
    <linearGradient
       inkscape:collect="always"
       xlink:href="#radialGradient1350"
       id="linearGradient5941"
       gradientUnits="userSpaceOnUse"
       gradientTransform="matrix(3.8345631,0,0,3.7338008,381.1359,283.18832)"
       x1="-160.86667"
       y1="118.53333"
       x2="-67.733337"
       y2="-76.200005" />
    <radialGradient
       id="radialGradient1350"
       cx="50.0093"
       cy="23.271601"
       r="28.023199"
       gradientTransform="matrix(0,-0.45961851,0.81826096,0,80.071454,-81.239161)"
       gradientUnits="userSpaceOnUse">
      <stop
         offset="0"
         stop-color="#2b4bed"
         id="stop1346"
         style="stop-color:#ffffff;stop-opacity:1" />
      <stop
         offset="1"
         stop-color="#2b2fb7"
         id="stop1348"
         style="stop-color:#f3f3f3;stop-opacity:1" />
    </radialGradient>
    <linearGradient
       id="Безымянный_градиент_10"
       x1="50.0093"
       x2="50.0093"
       y2="100"
       gradientUnits="userSpaceOnUse"
       gradientTransform="matrix(0.45892372,0,0,0.45961851,76.163443,-114.92042)">
      <stop
         offset="0"
         stop-color="#2b4bb7"
         id="stop5398" />
      <stop
         offset="1"
         stop-color="#2b2fb7"
         id="stop5400" />
    </linearGradient>
    <radialGradient
       id="Безымянный_градиент_28"
       cx="50.0093"
       cy="23.271601"
       r="28.023199"
       gradientTransform="matrix(0,-0.45961851,0.81826096,0,80.071454,-81.239161)"
       gradientUnits="userSpaceOnUse">
      <stop
         offset="0"
         stop-color="#2b4bed"
         id="stop5403" />
      <stop
         offset="1"
         stop-color="#2b2fb7"
         id="stop5405" />
    </radialGradient>
    <radialGradient
       inkscape:collect="always"
       xlink:href="#%D0%91%D0%B5%D0%B7%D1%8B%D0%BC%D1%8F%D0%BD%D0%BD%D1%8B%D0%B9_%D0%B3%D1%80%D0%B0%D0%B4%D0%B8%D0%B5%D0%BD%D1%82_114"
       id="radialGradient6102"
       gradientUnits="userSpaceOnUse"
       cx="47.3605"
       cy="53.197102"
       r="38.302299"
       gradientTransform="matrix(0.45892372,0,0,0.46722157,76.163443,-116.10429)" />
    <radialGradient
       id="Безымянный_градиент_114"
       cx="47.3605"
       cy="53.197102"
       r="38.302299"
       gradientUnits="userSpaceOnUse">
      <stop
         offset="0.0007"
         stop-color="#fff"
         stop-opacity="0"
         id="stop5411" />
      <stop
         offset="0.1476"
         stop-color="#fbfbfb"
         stop-opacity="0.039"
         id="stop5413" />
      <stop
         offset="0.3723"
         stop-color="#f1f1f1"
         stop-opacity="0.1465"
         id="stop5415" />
      <stop
         offset="0.6466"
         stop-color="#e0e0e0"
         stop-opacity="0.3222"
         id="stop5417" />
      <stop
         offset="0.9576"
         stop-color="#c9c9c8"
         stop-opacity="0.5641"
         id="stop5419" />
      <stop
         offset="1"
         stop-color="#c6c6c5"
         stop-opacity="0.6"
         id="stop5421" />
    </radialGradient>
    <radialGradient
       inkscape:collect="always"
       xlink:href="#%D0%91%D0%B5%D0%B7%D1%8B%D0%BC%D1%8F%D0%BD%D0%BD%D1%8B%D0%B9_%D0%B3%D1%80%D0%B0%D0%B4%D0%B8%D0%B5%D0%BD%D1%82_114"
       id="radialGradient6104"
       gradientUnits="userSpaceOnUse"
       cx="47.3605"
       cy="53.197102"
       r="38.302299"
       gradientTransform="matrix(0.45892372,0,0,0.45961851,76.163443,-115.46195)" />
  </defs>
  <title
     id="title159431">application-x-kicad-project-48</title>
  <g
     id="g122"
     transform="matrix(0.25,0,0,0.25,0.74999817,0)">
    <g
       id="g21945"
       transform="matrix(0.74354146,0,0,0.74599266,0.25646888,0.50833633)"
       style="stroke-width:1.3427">
      <path
         id="path5939"
         style="fill:url(#linearGradient5941);fill-opacity:1;stroke:#bebebe;stroke-width:5.45634;stroke-linecap:square;stroke-linejoin:round;stroke-miterlimit:4;stroke-dasharray:none;stroke-dashoffset:0;stroke-opacity:1;paint-order:normal"
         d="M 52.500199,2.046748 H 166.77915 l 62.81804,63.156656 V 239.63607 c 0,8.75679 -7.47983,15.03731 -16.47264,15.03731 H 52.500199 c -8.992813,0 -16.472643,-7.28301 -16.472643,-16.03979 V 18.086533 c 0,-8.7567636 7.479837,-16.0288667 16.472643,-16.039785 z"
         sodipodi:nodetypes="sccssssss" />
      <path
         id="path5956"
         style="fill:#909dd7;fill-opacity:1;stroke:none;stroke-width:1.01611;stroke-linecap:square;stroke-linejoin:round;stroke-miterlimit:4;stroke-dasharray:none;stroke-dashoffset:0;stroke-opacity:1;paint-order:normal"
         d="M 227.65072,172.46947 38.086636,219.58634 v 19.04725 c 0,7.7548 6.449742,14.03481 14.413563,14.03481 H 213.23716 c 7.96377,0 14.41356,-5.27753 14.41356,-13.03233 z M 34.404667,239.00503 v 0.37192 c 0,2.27214 0.506548,4.41751 1.385537,6.36644 -0.882943,-2.07839 -1.385537,-4.34965 -1.385537,-6.73836 z"
         sodipodi:nodetypes="ccssssccscc" />
      <path
         style="color:#000000;font-style:normal;font-variant:normal;font-weight:normal;font-stretch:normal;font-size:medium;line-height:normal;font-family:sans-serif;font-variant-ligatures:normal;font-variant-position:normal;font-variant-caps:normal;font-variant-numeric:normal;font-variant-alternates:normal;font-variant-east-asian:normal;font-feature-settings:normal;font-variation-settings:normal;text-indent:0;text-align:start;text-decoration:none;text-decoration-line:none;text-decoration-style:solid;text-decoration-color:#000000;letter-spacing:normal;word-spacing:normal;text-transform:none;writing-mode:lr-tb;direction:ltr;text-orientation:mixed;dominant-baseline:auto;baseline-shift:baseline;text-anchor:start;white-space:normal;shape-padding:0;shape-margin:0;inline-size:0;clip-rule:nonzero;display:inline;overflow:visible;visibility:visible;isolation:auto;mix-blend-mode:normal;color-interpolation:sRGB;color-interpolation-filters:linearRGB;solid-color:#000000;solid-opacity:1;vector-effect:none;fill:#000000;fill-opacity:0;fill-rule:nonzero;stroke:none;stroke-width:7.1128;stroke-linecap:round;stroke-linejoin:miter;stroke-miterlimit:4;stroke-dasharray:none;stroke-dashoffset:0;stroke-opacity:1;paint-order:fill markers stroke;color-rendering:auto;image-rendering:auto;shape-rendering:auto;text-rendering:auto;enable-background:accumulate;stop-color:#000000"
         d="m 115.32113,43.727249 h 60.87368 c 1.12414,0 2.02914,0.881175 2.02914,1.975779 V 73.36429 c 0,1.094603 -0.905,1.975778 -2.02914,1.975778 h -60.87368 c -1.12414,0 -2.0291,-0.881175 -2.0291,-1.975778 V 45.703028 c 0,-1.094604 0.90496,-1.975779 2.0291,-1.975779 z"
         id="path6035" />
      <path
         style="fill:none;stroke:#909dd7;stroke-width:10.9127;stroke-linecap:round;stroke-miterlimit:4;stroke-dasharray:none;stroke-opacity:1;marker-start:url(#marker3269);marker-end:url(#marker3727);paint-order:fill markers stroke"
         d="M 193.59601,47.736503 H 154.82598 L 121.59452,79.9884 73.091009,80.240702"
         id="path3265"
         sodipodi:nodetypes="cccc" />
      <path
         style="fill:none;stroke:#909dd7;stroke-width:10.9127;stroke-linecap:round;stroke-miterlimit:4;stroke-dasharray:none;stroke-opacity:1;marker-start:url(#marker3403);paint-order:fill markers stroke"
         d="M 117.36643,47.736503 H 68.978052"
         id="path3399"
         sodipodi:nodetypes="cc" />
      <path
         style="fill:none;stroke:#909dd7;stroke-width:10.9127;stroke-linecap:round;stroke-miterlimit:4;stroke-dasharray:none;stroke-opacity:1;marker-start:url(#marker1676);paint-order:fill markers stroke"
         d="m 190.82671,79.9884 h -41.5393"
         id="path1672"
         sodipodi:nodetypes="cc" />
      <path
         style="fill:none;stroke:#909dd7;stroke-width:10.9127;stroke-linecap:round;stroke-miterlimit:4;stroke-dasharray:none;stroke-opacity:1;marker-end:url(#marker1956);paint-order:fill markers stroke"
         d="m 196.47,106.86499 h -41.64402 l -33.23146,26.87657 H 71.747339"
         id="path1918"
         sodipodi:nodetypes="cccc" />
      <path
         style="fill:none;stroke:#909dd7;stroke-width:10.9127;stroke-linecap:round;stroke-miterlimit:4;stroke-dasharray:none;stroke-opacity:1;marker-start:url(#marker1936);paint-order:fill markers stroke"
         d="M 117.36643,106.86499 H 68.978052"
         id="path1920"
         sodipodi:nodetypes="cc" />
      <path
         style="fill:none;stroke:#909dd7;stroke-width:10.9127;stroke-linecap:round;stroke-miterlimit:4;stroke-dasharray:none;stroke-opacity:1;marker-start:url(#marker1926);paint-order:fill markers stroke"
         d="m 190.82671,133.74156 h -41.5393"
         id="path1922"
         sodipodi:nodetypes="cc" />
      <path
         style="fill:none;stroke:#909dd7;stroke-width:10.9127;stroke-linecap:round;stroke-miterlimit:4;stroke-dasharray:none;stroke-opacity:1;paint-order:fill markers stroke"
         d="M 196.36529,160.61814 H 113.28665"
         id="path2280"
         sodipodi:nodetypes="cc" />
      <path
         id="path5943"
         style="fill:#2a42ba;fill-opacity:1;stroke:#bebebe;stroke-width:5.45634;stroke-linecap:square;stroke-linejoin:round;stroke-miterlimit:4;stroke-dasharray:none;stroke-dashoffset:0;stroke-opacity:1;paint-order:normal"
         d="M 163.69055,2.0652576 V 49.182128 c 0,8.756734 7.47944,16.052477 16.47264,16.039785 h 49.41793 z"
         sodipodi:nodetypes="csscc" />
      <g
         id="g1338"
         transform="matrix(2.7891345,0,0,2.7849181,-211.44199,432.04395)"
         style="stroke-width:1.36368">
        <rect
           class="cls-8"
           x="76.167709"
           width="45.892372"
           height="45.961853"
           rx="10.198295"
           id="rect5459"
           y="-114.92042"
           style="fill:url(#%D0%91%D0%B5%D0%B7%D1%8B%D0%BC%D1%8F%D0%BD%D0%BD%D1%8B%D0%B9_%D0%B3%D1%80%D0%B0%D0%B4%D0%B8%D0%B5%D0%BD%D1%82_10);stroke-width:1.36368" />
        <rect
           class="cls-9"
           x="76.167709"
           width="45.892372"
           height="45.961853"
           rx="10.198295"
           id="rect5461"
           y="-114.92042"
           style="mix-blend-mode:saturation;fill:url(#%D0%91%D0%B5%D0%B7%D1%8B%D0%BC%D1%8F%D0%BD%D0%BD%D1%8B%D0%B9_%D0%B3%D1%80%D0%B0%D0%B4%D0%B8%D0%B5%D0%BD%D1%82_28);stroke-width:1.36368" />
        <path
           class="cls-11"
           d="m 90.28844,-95.258996 5.261271,-6.562324 c 1.041359,-1.33775 1.562146,-2.33801 1.56236,-3.00079 0.0072,-0.19683 -0.05043,-0.31492 -0.116284,-0.50013 h 9.001963 c -0.97772,0.65869 -1.91471,1.40665 -2.61518,2.36379 -0.31953,0.38586 -0.79856,0.98283 -1.43707,1.79091 l -6.68005,8.456727 7.97261,11.171595 c 0.37839,0.530452 0.99382,1.289702 1.84629,2.277752 0.27249,0.278741 0.60648,0.655542 0.9134,0.894327 h -9.178473 c 0.06599,-0.241527 0.110531,-0.607742 0.115049,-0.858398 0,-0.662426 -0.449745,-1.62048 -1.349236,-2.87416 l -5.29665,-7.049478 v 7.188024 c 0,1.675177 0.396094,2.919157 1.059055,3.594012 h -8.295929 c 0.443506,-0.436851 0.640235,-1.083223 0.776122,-1.696065 0.08919,-0.628339 0.124798,-1.263357 0.106424,-1.897947 v -19.767089 c 0.01835,-0.6346 -0.01726,-1.26961 -0.106424,-1.89795 -0.135945,-0.61283 -0.332666,-1.25916 -0.776122,-1.69605 h 8.472438 c -0.662961,0.67495 -1.238395,1.76612 -1.235568,3.42903 z"
           id="path5475"
           style="fill:#ffffff;stroke-width:1.36368"
           sodipodi:nodetypes="cccccccccccccccsccccccccsc" />
        <path
           class="cls-11"
           d="m 114.29368,-97.784292 3.2e-4,16.263425 c -0.017,0.558179 0.007,1.116856 0.0708,1.671587 0.10207,0.548213 0.42718,1.107094 0.81175,1.510387 h -7.94291 c 0.38433,-0.403462 0.53257,-0.962268 0.63491,-1.510387 0.063,-0.554822 0.0867,-1.113416 0.0708,-1.671587 v -13.258227 c 0.0165,-0.552196 -0.007,-1.10486 -0.0708,-1.653616 -0.10352,-0.538879 -0.26287,-0.949007 -0.63523,-1.351582 z m -3.08361,-9.424238 c 1.95886,0.006 3.54537,1.5948 3.55124,3.55662 -0.003,4.738807 -7.10539,4.738807 -7.10221,0 -0.0194,-1.97215 1.5818,-3.57589 3.55097,-3.55662 z"
           id="path5477"
           style="fill:#ffffff;stroke-width:1.36368"
           sodipodi:nodetypes="ccccccccccccccc" />
        <path
           class="cls-12"
           d="m 90.28844,-95.258996 5.261271,-6.562324 c 1.041359,-1.33775 1.562146,-2.33801 1.56236,-3.00079 0.0072,-0.19683 -0.05043,-0.31492 -0.116284,-0.50013 h 9.001963 c -0.97772,0.65869 -1.91471,1.4067 -2.61518,2.36384 -0.31953,0.38586 -0.79856,0.98283 -1.43707,1.79091 l -6.68005,8.456727 7.97261,11.171596 c 0.37839,0.530452 0.99382,1.289702 1.84629,2.277752 0.27249,0.27874 0.60648,0.655491 0.9134,0.894276 h -9.178473 c 0.06599,-0.241527 0.110531,-0.607689 0.115049,-0.858345 0,-0.662426 -0.449745,-1.62048 -1.349236,-2.87416 l -5.29665,-7.049529 v 7.188024 c 0,1.675176 0.396094,2.919157 1.059055,3.594012 h -8.295929 c 0.443506,-0.436851 0.640235,-1.083223 0.776122,-1.696065 0.08919,-0.628339 0.124798,-1.263357 0.106424,-1.897947 v -19.767091 c 0.01835,-0.6346 -0.01726,-1.26961 -0.106424,-1.89795 -0.135945,-0.61283 -0.332666,-1.25911 -0.776122,-1.696 h 8.472438 c -0.662961,0.67495 -1.235569,1.76612 -1.235568,3.42903 z"
           id="path5479"
           style="fill:url(#radialGradient6102);stroke-width:1.36368"
           sodipodi:nodetypes="cccccccccccccccsccccccccsc" />
        <path
           class="cls-12"
           d="m 114.29368,-97.784292 3.2e-4,16.263425 c -0.017,0.558179 0.007,1.116856 0.0708,1.671587 0.10207,0.548213 0.42718,1.107094 0.81175,1.510387 h -7.94291 c 0.38434,-0.403462 0.53257,-0.962268 0.63491,-1.510387 0.063,-0.554822 0.0867,-1.113416 0.0708,-1.671587 v -13.258227 c 0.0165,-0.552196 -0.007,-1.10486 -0.0708,-1.653616 -0.10352,-0.538879 -0.26287,-0.949007 -0.63523,-1.351582 z m -3.08361,-9.424238 c 1.95886,0.006 3.54537,1.5948 3.55124,3.55662 -0.003,4.738807 -7.10539,4.738807 -7.10221,0 -0.0194,-1.97215 1.5818,-3.57589 3.55097,-3.55662 z"
           id="path5481"
           style="fill:url(#radialGradient6104);stroke-width:1.36368"
           sodipodi:nodetypes="ccccccccccccccc" />
        <ellipse
           style="fill:#ff6d00;fill-opacity:1;stroke-width:2.72737;stroke-linecap:round;stroke-linejoin:round"
           id="path6063"
           cx="111.0855"
           cy="-103.54778"
           rx="3.7129955"
           ry="3.7186167" />
      </g>
    </g>
  </g>
</svg>
