<?xml version="1.0" encoding="UTF-8" standalone="no"?>
<svg
   id="Слой_1"
   data-name="Слой 1"
   viewBox="0 0 64 64"
   version="1.1"
   sodipodi:docname="application-x-kicad-project-64.svg"
   inkscape:version="1.2.2 (b0a8486541, 2022-12-01)"
   width="64"
   height="64"
   inkscape:export-filename="../../64x64/mimetypes/application-x-kicad-project.png"
   inkscape:export-xdpi="96"
   inkscape:export-ydpi="96"
   xmlns:inkscape="http://www.inkscape.org/namespaces/inkscape"
   xmlns:sodipodi="http://sodipodi.sourceforge.net/DTD/sodipodi-0.dtd"
   xmlns:xlink="http://www.w3.org/1999/xlink"
   xmlns="http://www.w3.org/2000/svg"
   xmlns:svg="http://www.w3.org/2000/svg"
   xmlns:rdf="http://www.w3.org/1999/02/22-rdf-syntax-ns#"
   xmlns:cc="http://creativecommons.org/ns#"
   xmlns:dc="http://purl.org/dc/elements/1.1/">
  <sodipodi:namedview
     pagecolor="#ffffff"
     bordercolor="#666666"
     borderopacity="1"
     objecttolerance="10"
     gridtolerance="10"
     guidetolerance="10"
     inkscape:pageopacity="0"
     inkscape:pageshadow="2"
     inkscape:window-width="3840"
     inkscape:window-height="2109"
     id="namedview30"
     showgrid="true"
     inkscape:zoom="8"
     inkscape:cx="13.25"
     inkscape:cy="32.9375"
     inkscape:window-x="0"
     inkscape:window-y="27"
     inkscape:window-maximized="1"
     inkscape:document-rotation="0"
     inkscape:current-layer="g122"
     inkscape:snap-bbox="true"
     inkscape:object-paths="true"
     inkscape:snap-intersection-paths="true"
     inkscape:snap-smooth-nodes="true"
     inkscape:bbox-nodes="false"
     inkscape:snap-bbox-edge-midpoints="false"
     inkscape:bbox-paths="true"
     inkscape:showpageshadow="2"
     inkscape:pagecheckerboard="0"
     inkscape:deskcolor="#d1d1d1">
    <inkscape:grid
       type="xygrid"
       id="grid_kicad"
       spacingx="0.5"
       spacingy="0.5"
       color="#9999ff"
       opacity="0.13"
       empspacing="2"
       originx="0"
       originy="0"
       units="px"
       visible="true" />
  </sodipodi:namedview>
  <metadata
     id="metadata43">
    <rdf:RDF>
      <cc:Work
         rdf:about="">
        <dc:format>image/svg+xml</dc:format>
        <dc:type
           rdf:resource="http://purl.org/dc/dcmitype/StillImage" />
        <dc:title>application-x-kicad-project-64</dc:title>
        <cc:license
           rdf:resource="http://creativecommons.org/licenses/by-sa/4.0/" />
      </cc:Work>
      <cc:License
         rdf:about="http://creativecommons.org/licenses/by-sa/4.0/">
        <cc:permits
           rdf:resource="http://creativecommons.org/ns#Reproduction" />
        <cc:permits
           rdf:resource="http://creativecommons.org/ns#Distribution" />
        <cc:requires
           rdf:resource="http://creativecommons.org/ns#Notice" />
        <cc:requires
           rdf:resource="http://creativecommons.org/ns#Attribution" />
        <cc:permits
           rdf:resource="http://creativecommons.org/ns#DerivativeWorks" />
        <cc:requires
           rdf:resource="http://creativecommons.org/ns#ShareAlike" />
      </cc:License>
    </rdf:RDF>
  </metadata>
  <defs
     id="defs159429">
    <marker
       style="overflow:visible"
       id="marker1956"
       refX="0"
       refY="0"
       orient="auto"
       inkscape:stockid="DotS"
       inkscape:isstock="true"
       inkscape:collect="always">
      <path
         transform="matrix(0.2,0,0,0.2,1.48,0.2)"
         style="fill:#909dd7;fill-opacity:1;fill-rule:evenodd;stroke:#909dd7;stroke-width:1pt;stroke-opacity:1"
         d="m -2.5,-1 c 0,2.76 -2.24,5 -5,5 -2.76,0 -5,-2.24 -5,-5 0,-2.76 2.24,-5 5,-5 2.76,0 5,2.24 5,5 z"
         id="path1954" />
    </marker>
    <marker
       style="overflow:visible"
       id="marker1936"
       refX="0"
       refY="0"
       orient="auto"
       inkscape:stockid="DotS"
       inkscape:isstock="true">
      <path
         transform="matrix(0.2,0,0,0.2,1.48,0.2)"
         style="fill:#909dd7;fill-opacity:1;fill-rule:evenodd;stroke:#909dd7;stroke-width:1pt;stroke-opacity:1"
         d="m -2.5,-1 c 0,2.76 -2.24,5 -5,5 -2.76,0 -5,-2.24 -5,-5 0,-2.76 2.24,-5 5,-5 2.76,0 5,2.24 5,5 z"
         id="path1934" />
    </marker>
    <marker
       style="overflow:visible"
       id="marker1926"
       refX="0"
       refY="0"
       orient="auto"
       inkscape:stockid="DotS"
       inkscape:isstock="true">
      <path
         transform="matrix(0.2,0,0,0.2,1.48,0.2)"
         style="fill:#909dd7;fill-opacity:1;fill-rule:evenodd;stroke:#909dd7;stroke-width:1pt;stroke-opacity:1"
         d="m -2.5,-1 c 0,2.76 -2.24,5 -5,5 -2.76,0 -5,-2.24 -5,-5 0,-2.76 2.24,-5 5,-5 2.76,0 5,2.24 5,5 z"
         id="path1924" />
    </marker>
    <marker
       style="overflow:visible"
       id="marker1676"
       refX="0"
       refY="0"
       orient="auto"
       inkscape:stockid="DotS"
       inkscape:isstock="true"
       inkscape:collect="always">
      <path
         transform="matrix(0.2,0,0,0.2,1.48,0.2)"
         style="fill:#909dd7;fill-opacity:1;fill-rule:evenodd;stroke:#909dd7;stroke-width:1pt;stroke-opacity:1"
         d="m -2.5,-1 c 0,2.76 -2.24,5 -5,5 -2.76,0 -5,-2.24 -5,-5 0,-2.76 2.24,-5 5,-5 2.76,0 5,2.24 5,5 z"
         id="path1674" />
    </marker>
    <marker
       style="overflow:visible"
       id="marker3727"
       refX="0"
       refY="0"
       orient="auto"
       inkscape:stockid="DotS"
       inkscape:isstock="true"
       inkscape:collect="always">
      <path
         transform="matrix(0.2,0,0,0.2,1.48,0.2)"
         style="fill:#909dd7;fill-opacity:1;fill-rule:evenodd;stroke:#909dd7;stroke-width:1pt;stroke-opacity:1"
         d="m -2.5,-1 c 0,2.76 -2.24,5 -5,5 -2.76,0 -5,-2.24 -5,-5 0,-2.76 2.24,-5 5,-5 2.76,0 5,2.24 5,5 z"
         id="path3725" />
    </marker>
    <marker
       style="overflow:visible"
       id="marker3403"
       refX="0"
       refY="0"
       orient="auto"
       inkscape:stockid="DotS"
       inkscape:isstock="true"
       inkscape:collect="always">
      <path
         transform="matrix(0.2,0,0,0.2,1.48,0.2)"
         style="fill:#909dd7;fill-opacity:1;fill-rule:evenodd;stroke:#909dd7;stroke-width:1pt;stroke-opacity:1"
         d="m -2.5,-1 c 0,2.76 -2.24,5 -5,5 -2.76,0 -5,-2.24 -5,-5 0,-2.76 2.24,-5 5,-5 2.76,0 5,2.24 5,5 z"
         id="path3401" />
    </marker>
    <marker
       style="overflow:visible"
       id="marker3269"
       refX="0"
       refY="0"
       orient="auto"
       inkscape:stockid="DotS"
       inkscape:isstock="true"
       inkscape:collect="always">
      <path
         transform="matrix(0.2,0,0,0.2,1.48,0.2)"
         style="fill:#909dd7;fill-opacity:1;fill-rule:evenodd;stroke:#909dd7;stroke-width:1pt;stroke-opacity:1"
         d="m -2.5,-1 c 0,2.76 -2.24,5 -5,5 -2.76,0 -5,-2.24 -5,-5 0,-2.76 2.24,-5 5,-5 2.76,0 5,2.24 5,5 z"
         id="path3267" />
    </marker>
    <style
       id="style159427">.cls-1{fill:#1a81c4;}</style>
    <linearGradient
       inkscape:collect="always"
       xlink:href="#radialGradient1350"
       id="linearGradient5941"
       gradientUnits="userSpaceOnUse"
       gradientTransform="matrix(3.7256278,0,0,3.7264664,374.23289,282.53412)"
       x1="-160.86667"
       y1="118.53333"
       x2="-67.733337"
       y2="-76.200005" />
    <radialGradient
       id="radialGradient1350"
       cx="50.0093"
       cy="23.271601"
       r="28.023199"
       gradientTransform="matrix(0,-0.45961851,0.81826096,0,80.071454,-81.239161)"
       gradientUnits="userSpaceOnUse">
      <stop
         offset="0"
         stop-color="#2b4bed"
         id="stop1346"
         style="stop-color:#ffffff;stop-opacity:1" />
      <stop
         offset="1"
         stop-color="#2b2fb7"
         id="stop1348"
         style="stop-color:#f3f3f3;stop-opacity:1" />
    </radialGradient>
    <linearGradient
       id="Безымянный_градиент_10"
       x1="50.0093"
       x2="50.0093"
       y2="100"
       gradientUnits="userSpaceOnUse"
       gradientTransform="matrix(0.45892372,0,0,0.45961851,76.163443,-114.92042)">
      <stop
         offset="0"
         stop-color="#2b4bb7"
         id="stop5398" />
      <stop
         offset="1"
         stop-color="#2b2fb7"
         id="stop5400" />
    </linearGradient>
    <radialGradient
       id="Безымянный_градиент_28"
       cx="50.0093"
       cy="23.271601"
       r="28.023199"
       gradientTransform="matrix(0,-0.45961851,0.81826096,0,80.071454,-81.239161)"
       gradientUnits="userSpaceOnUse">
      <stop
         offset="0"
         stop-color="#2b4bed"
         id="stop5403" />
      <stop
         offset="1"
         stop-color="#2b2fb7"
         id="stop5405" />
    </radialGradient>
    <radialGradient
       inkscape:collect="always"
       xlink:href="#%D0%91%D0%B5%D0%B7%D1%8B%D0%BC%D1%8F%D0%BD%D0%BD%D1%8B%D0%B9_%D0%B3%D1%80%D0%B0%D0%B4%D0%B8%D0%B5%D0%BD%D1%82_114"
       id="radialGradient6102"
       gradientUnits="userSpaceOnUse"
       cx="47.3605"
       cy="53.197102"
       r="38.302299"
       gradientTransform="matrix(0.45892372,0,0,0.45961851,76.163443,-114.92042)" />
    <radialGradient
       id="Безымянный_градиент_114"
       cx="47.3605"
       cy="53.197102"
       r="38.302299"
       gradientUnits="userSpaceOnUse">
      <stop
         offset="0.0007"
         stop-color="#fff"
         stop-opacity="0"
         id="stop5411" />
      <stop
         offset="0.1476"
         stop-color="#fbfbfb"
         stop-opacity="0.039"
         id="stop5413" />
      <stop
         offset="0.3723"
         stop-color="#f1f1f1"
         stop-opacity="0.1465"
         id="stop5415" />
      <stop
         offset="0.6466"
         stop-color="#e0e0e0"
         stop-opacity="0.3222"
         id="stop5417" />
      <stop
         offset="0.9576"
         stop-color="#c9c9c8"
         stop-opacity="0.5641"
         id="stop5419" />
      <stop
         offset="1"
         stop-color="#c6c6c5"
         stop-opacity="0.6"
         id="stop5421" />
    </radialGradient>
    <radialGradient
       inkscape:collect="always"
       xlink:href="#%D0%91%D0%B5%D0%B7%D1%8B%D0%BC%D1%8F%D0%BD%D0%BD%D1%8B%D0%B9_%D0%B3%D1%80%D0%B0%D0%B4%D0%B8%D0%B5%D0%BD%D1%82_114"
       id="radialGradient6104"
       gradientUnits="userSpaceOnUse"
       cx="47.3605"
       cy="53.197102"
       r="38.302299"
       gradientTransform="matrix(0.45892372,0,0,0.45961851,76.163443,-114.92042)" />
  </defs>
  <title
     id="title159431">application-x-kicad-project-64</title>
  <g
     id="g122"
     transform="matrix(0.25,0,0,0.25,0.74999817,0)">
    <path
       id="path5939"
       style="fill:url(#linearGradient5941);fill-opacity:1;stroke:#bebebe;stroke-width:4.00162;stroke-linecap:square;stroke-linejoin:round;stroke-miterlimit:4;stroke-dasharray:none;stroke-dashoffset:0;stroke-opacity:1;paint-order:normal"
       d="M 54.933314,1.9448095 H 165.96574 L 226.99919,64.977404 V 239.06742 c 0,8.73958 -7.26732,15.00777 -16.00466,15.00777 H 54.933314 c -8.737338,0 -16.004675,-7.26871 -16.004675,-16.00829 V 17.953087 c 0,-8.7395626 7.267344,-15.9973807 16.004675,-16.0082775 z"
       sodipodi:nodetypes="sccssssss" />
    <path
       id="path5956"
       style="fill:#909dd7;fill-opacity:1;stroke:none;stroke-width:0.745209;stroke-linecap:square;stroke-linejoin:round;stroke-miterlimit:4;stroke-dasharray:none;stroke-dashoffset:0;stroke-opacity:1;paint-order:normal"
       d="M 225.10803,172.03276 40.929224,219.05708 v 19.00982 c 0,7.73957 6.266512,14.00725 14.00409,14.00725 H 211.10394 c 7.73752,0 14.00409,-5.26717 14.00409,-13.00673 z M 37.351854,238.43761 v 0.3712 c 0,2.26768 0.492157,4.40883 1.346176,6.35393 -0.857861,-2.07431 -1.346176,-4.34111 -1.346176,-6.72513 z"
       sodipodi:nodetypes="ccssssccscc" />
    <path
       style="color:#000000;font-style:normal;font-variant:normal;font-weight:normal;font-stretch:normal;font-size:medium;line-height:normal;font-family:sans-serif;font-variant-ligatures:normal;font-variant-position:normal;font-variant-caps:normal;font-variant-numeric:normal;font-variant-alternates:normal;font-variant-east-asian:normal;font-feature-settings:normal;font-variation-settings:normal;text-indent:0;text-align:start;text-decoration:none;text-decoration-line:none;text-decoration-style:solid;text-decoration-color:#000000;letter-spacing:normal;word-spacing:normal;text-transform:none;writing-mode:lr-tb;direction:ltr;text-orientation:mixed;dominant-baseline:auto;baseline-shift:baseline;text-anchor:start;white-space:normal;shape-padding:0;shape-margin:0;inline-size:0;clip-rule:nonzero;display:inline;overflow:visible;visibility:visible;isolation:auto;mix-blend-mode:normal;color-interpolation:sRGB;color-interpolation-filters:linearRGB;solid-color:#000000;solid-opacity:1;vector-effect:none;fill:#000000;fill-opacity:0;fill-rule:nonzero;stroke:none;stroke-width:5.21646;stroke-linecap:round;stroke-linejoin:miter;stroke-miterlimit:4;stroke-dasharray:none;stroke-dashoffset:0;stroke-opacity:1;paint-order:fill markers stroke;color-rendering:auto;image-rendering:auto;shape-rendering:auto;text-rendering:auto;enable-background:accumulate;stop-color:#000000"
       d="m 115.96959,43.543435 h 59.14432 c 1.09221,0 1.9715,0.879444 1.9715,1.971898 v 27.606926 c 0,1.092453 -0.87929,1.971896 -1.9715,1.971896 h -59.14432 c -1.09222,0 -1.97146,-0.879443 -1.97146,-1.971896 V 45.515333 c 0,-1.092454 0.87924,-1.971898 1.97146,-1.971898 z"
       id="path6035" />
    <path
       style="fill:none;stroke:#909dd7;stroke-width:8.00324;stroke-linecap:round;stroke-miterlimit:4;stroke-dasharray:none;stroke-opacity:1;marker-start:url(#marker3269);marker-end:url(#marker3727);paint-order:fill markers stroke"
       d="m 190.97306,55.972747 h -50.0146 L 123.95348,79.985164 H 74.939162"
       id="path3265"
       sodipodi:nodetypes="cccc" />
    <path
       style="fill:none;stroke:#909dd7;stroke-width:8.00324;stroke-linecap:round;stroke-miterlimit:4;stroke-dasharray:none;stroke-opacity:1;marker-start:url(#marker3403);paint-order:fill markers stroke"
       d="M 117.95173,55.972747 H 70.937994"
       id="path3399"
       sodipodi:nodetypes="cc" />
    <path
       style="fill:none;stroke:#909dd7;stroke-width:8.00324;stroke-linecap:round;stroke-miterlimit:4;stroke-dasharray:none;stroke-opacity:1;marker-start:url(#marker1676);paint-order:fill markers stroke"
       d="M 190.97306,79.985164 H 143.95933"
       id="path1672"
       sodipodi:nodetypes="cc" />
    <path
       style="fill:none;stroke:#909dd7;stroke-width:8.00324;stroke-linecap:round;stroke-miterlimit:4;stroke-dasharray:none;stroke-opacity:1;marker-end:url(#marker1956);paint-order:fill markers stroke"
       d="M 194.97423,103.99758 H 140.95846 L 123.95348,128.01 H 74.939162"
       id="path1918"
       sodipodi:nodetypes="cccc" />
    <path
       style="fill:none;stroke:#909dd7;stroke-width:8.00324;stroke-linecap:round;stroke-miterlimit:4;stroke-dasharray:none;stroke-opacity:1;marker-start:url(#marker1936);paint-order:fill markers stroke"
       d="M 117.95173,103.99758 H 70.937994"
       id="path1920"
       sodipodi:nodetypes="cc" />
    <path
       style="fill:none;stroke:#909dd7;stroke-width:8.00324;stroke-linecap:round;stroke-miterlimit:4;stroke-dasharray:none;stroke-opacity:1;marker-start:url(#marker1926);paint-order:fill markers stroke"
       d="M 190.97306,128.01 H 143.95933"
       id="path1922"
       sodipodi:nodetypes="cc" />
    <path
       style="fill:none;stroke:#909dd7;stroke-width:8.00324;stroke-linecap:round;stroke-miterlimit:4;stroke-dasharray:none;stroke-opacity:1;paint-order:fill markers stroke"
       d="M 194.97423,154.02345 H 112.95027"
       id="path2280"
       sodipodi:nodetypes="cc" />
    <path
       id="path5943"
       style="fill:#2b3cb7;fill-opacity:1;stroke:#bebebe;stroke-width:4.00162;stroke-linecap:square;stroke-linejoin:round;stroke-miterlimit:4;stroke-dasharray:none;stroke-dashoffset:0;stroke-opacity:1;paint-order:normal"
       d="M 162.96488,1.9632828 V 48.987599 c 0,8.739532 7.26696,16.020943 16.00468,16.008278 h 48.01402 z"
       sodipodi:nodetypes="csscc" />
    <g
       id="g1338"
       transform="matrix(2.7891345,0,0,2.7849181,-211.44199,432.04395)"
       style="stroke-width:1.01562">
      <rect
         class="cls-8"
         x="76.167709"
         width="45.892372"
         height="45.961853"
         rx="10.198295"
         id="rect5459"
         y="-114.92042"
         style="fill:url(#%D0%91%D0%B5%D0%B7%D1%8B%D0%BC%D1%8F%D0%BD%D0%BD%D1%8B%D0%B9_%D0%B3%D1%80%D0%B0%D0%B4%D0%B8%D0%B5%D0%BD%D1%82_10);stroke-width:1.01562" />
      <rect
         class="cls-9"
         x="76.167709"
         width="45.892372"
         height="45.961853"
         rx="10.198295"
         id="rect5461"
         y="-114.92042"
         style="mix-blend-mode:saturation;fill:url(#%D0%91%D0%B5%D0%B7%D1%8B%D0%BC%D1%8F%D0%BD%D0%BD%D1%8B%D0%B9_%D0%B3%D1%80%D0%B0%D0%B4%D0%B8%D0%B5%D0%BD%D1%82_28);stroke-width:1.01562" />
      <path
         class="cls-11"
         d="m 90.28844,-94.414358 5.261271,-6.455522 c 1.041359,-1.31598 1.562146,-2.29996 1.56236,-2.95195 0.0072,-0.19363 -0.05043,-0.3098 -0.116284,-0.492 h 9.001963 c -0.97772,0.64798 -1.91471,1.38376 -2.61518,2.32533 -0.31953,0.37958 -0.79856,0.96683 -1.43707,1.76176 l -6.68005,8.319098 7.97261,10.989801 c 0.37839,0.52182 0.99382,1.268715 1.84629,2.240686 0.27249,0.274205 0.60648,0.644875 0.9134,0.879774 h -9.178473 c 0.06599,-0.237597 0.110531,-0.597852 0.115049,-0.844429 0,-0.651647 -0.449745,-1.59411 -1.349236,-2.827389 l -5.29665,-6.934763 v 7.071054 c 0,1.647917 0.396094,2.871654 1.059055,3.535527 h -8.295929 c 0.443506,-0.429742 0.640235,-1.065596 0.776122,-1.668465 0.08919,-0.618114 0.124798,-1.242799 0.106424,-1.867062 v -19.445402 c 0.01835,-0.62427 -0.01726,-1.24895 -0.106424,-1.86707 -0.135945,-0.60285 -0.332666,-1.23867 -0.776122,-1.66845 h 8.472438 c -0.662961,0.66397 -1.238395,1.73738 -1.235568,3.37323 z"
         id="path5475"
         style="fill:#ffffff;stroke-width:1.01562"
         sodipodi:nodetypes="cccccccccccccccsccccccccsc" />
      <path
         class="cls-11"
         d="m 114.29368,-97.24278 3.2e-4,16.263425 c -0.017,0.558179 0.007,1.116856 0.0708,1.671587 0.10207,0.548213 0.42718,1.107094 0.81175,1.510387 h -7.94291 c 0.38433,-0.403462 0.53257,-0.962268 0.63491,-1.510387 0.063,-0.554822 0.0867,-1.113416 0.0708,-1.671587 v -13.258227 c 0.0165,-0.552196 -0.007,-1.10486 -0.0708,-1.653616 -0.10352,-0.538879 -0.26287,-0.949007 -0.63523,-1.351582 z m -3.08361,-9.42422 c 1.95886,0.006 3.54537,1.5948 3.55124,3.55662 -0.003,4.738789 -7.10539,4.738789 -7.10221,0 -0.0194,-1.97215 1.5818,-3.57589 3.55097,-3.55662 z"
         id="path5477"
         style="fill:#ffffff;stroke-width:1.01562"
         sodipodi:nodetypes="ccccccccccccccc" />
      <path
         class="cls-12"
         d="m 90.28844,-94.414358 5.261271,-6.455522 c 1.041359,-1.31598 1.562146,-2.29996 1.56236,-2.95195 0.0072,-0.19363 -0.05043,-0.3098 -0.116284,-0.492 h 9.001963 c -0.97772,0.64798 -1.91471,1.38381 -2.61518,2.32538 -0.31953,0.37958 -0.79856,0.96683 -1.43707,1.76176 l -6.68005,8.319098 7.97261,10.989801 c 0.37839,0.52182 0.99382,1.268715 1.84629,2.240686 0.27249,0.274205 0.60648,0.644825 0.9134,0.879724 h -9.178473 c 0.06599,-0.237597 0.110531,-0.5978 0.115049,-0.844377 0,-0.651647 -0.449745,-1.59411 -1.349236,-2.827389 l -5.29665,-6.934813 v 7.071054 c 0,1.647916 0.396094,2.871654 1.059055,3.535527 h -8.295929 c 0.443506,-0.429742 0.640235,-1.065596 0.776122,-1.668465 0.08919,-0.618114 0.124798,-1.242799 0.106424,-1.867062 v -19.445404 c 0.01835,-0.62427 -0.01726,-1.24895 -0.106424,-1.86707 -0.135945,-0.60285 -0.332666,-1.23862 -0.776122,-1.6684 h 8.472438 c -0.662961,0.66397 -1.235569,1.73738 -1.235568,3.37323 z"
         id="path5479"
         style="fill:url(#radialGradient6102);stroke-width:1.01562"
         sodipodi:nodetypes="cccccccccccccccsccccccccsc" />
      <path
         class="cls-12"
         d="m 114.29368,-97.24278 3.2e-4,16.263425 c -0.017,0.558179 0.007,1.116856 0.0708,1.671587 0.10207,0.548213 0.42718,1.107094 0.81175,1.510387 h -7.94291 c 0.38434,-0.403462 0.53257,-0.962268 0.63491,-1.510387 0.063,-0.554822 0.0867,-1.113416 0.0708,-1.671587 v -13.258227 c 0.0165,-0.552196 -0.007,-1.10486 -0.0708,-1.653616 -0.10352,-0.538879 -0.26287,-0.949007 -0.63523,-1.351582 z m -3.08361,-9.42422 c 1.95886,0.006 3.54537,1.5948 3.55124,3.55662 -0.003,4.738789 -7.10539,4.738789 -7.10221,0 -0.0194,-1.97215 1.5818,-3.57589 3.55097,-3.55662 z"
         id="path5481"
         style="fill:url(#radialGradient6104);stroke-width:1.01562"
         sodipodi:nodetypes="ccccccccccccccc" />
      <ellipse
         style="fill:#ff6d00;fill-opacity:1;stroke-width:2.03125;stroke-linecap:round;stroke-linejoin:round"
         id="path6063"
         cx="111.0855"
         cy="-103.00631"
         rx="3.7129955"
         ry="3.7186167" />
    </g>
  </g>
</svg>
