<?xml version="1.0" encoding="UTF-8" standalone="no"?>
<svg
   id="Слой_1"
   data-name="Слой 1"
   viewBox="0 0 64 64"
   version="1.1"
   sodipodi:docname="application-x-kicad-pcb-64.svg"
   inkscape:version="1.2.2 (b0a8486541, 2022-12-01)"
   width="64"
   height="64"
   inkscape:export-filename="../../64x64/mimetypes/application-x-kicad-pcb.png"
   inkscape:export-xdpi="96"
   inkscape:export-ydpi="96"
   xmlns:inkscape="http://www.inkscape.org/namespaces/inkscape"
   xmlns:sodipodi="http://sodipodi.sourceforge.net/DTD/sodipodi-0.dtd"
   xmlns:xlink="http://www.w3.org/1999/xlink"
   xmlns="http://www.w3.org/2000/svg"
   xmlns:svg="http://www.w3.org/2000/svg"
   xmlns:rdf="http://www.w3.org/1999/02/22-rdf-syntax-ns#"
   xmlns:cc="http://creativecommons.org/ns#"
   xmlns:dc="http://purl.org/dc/elements/1.1/">
  <sodipodi:namedview
     pagecolor="#ffffff"
     bordercolor="#666666"
     borderopacity="1"
     objecttolerance="10"
     gridtolerance="10"
     guidetolerance="10"
     inkscape:pageopacity="0"
     inkscape:pageshadow="2"
     inkscape:window-width="2508"
     inkscape:window-height="1591"
     id="namedview30"
     showgrid="true"
     inkscape:zoom="10.722876"
     inkscape:cx="35.158478"
     inkscape:cy="54.416371"
     inkscape:window-x="3908"
     inkscape:window-y="438"
     inkscape:window-maximized="0"
     inkscape:document-rotation="0"
     inkscape:current-layer="g4648"
     inkscape:snap-bbox="true"
     inkscape:object-paths="true"
     inkscape:snap-intersection-paths="true"
     inkscape:snap-smooth-nodes="true"
     inkscape:bbox-nodes="false"
     inkscape:snap-bbox-edge-midpoints="false"
     inkscape:bbox-paths="true"
     inkscape:showpageshadow="2"
     inkscape:pagecheckerboard="0"
     inkscape:deskcolor="#d1d1d1">
    <inkscape:grid
       type="xygrid"
       id="grid_kicad"
       spacingx="0.5"
       spacingy="0.5"
       color="#9999ff"
       opacity="0.13"
       empspacing="2"
       originx="0"
       originy="0" />
  </sodipodi:namedview>
  <metadata
     id="metadata43">
    <rdf:RDF>
      <cc:Work
         rdf:about="">
        <cc:license
           rdf:resource="http://creativecommons.org/licenses/by-sa/4.0/" />
        <dc:format>image/svg+xml</dc:format>
        <dc:type
           rdf:resource="http://purl.org/dc/dcmitype/StillImage" />
        <dc:title>ps_diff_pair_tune_phase</dc:title>
      </cc:Work>
      <cc:License
         rdf:about="http://creativecommons.org/licenses/by-sa/4.0/">
        <cc:permits
           rdf:resource="http://creativecommons.org/ns#Reproduction" />
        <cc:permits
           rdf:resource="http://creativecommons.org/ns#Distribution" />
        <cc:requires
           rdf:resource="http://creativecommons.org/ns#Notice" />
        <cc:requires
           rdf:resource="http://creativecommons.org/ns#Attribution" />
        <cc:permits
           rdf:resource="http://creativecommons.org/ns#DerivativeWorks" />
        <cc:requires
           rdf:resource="http://creativecommons.org/ns#ShareAlike" />
      </cc:License>
    </rdf:RDF>
  </metadata>
  <defs
     id="defs159429">
    <marker
       style="overflow:visible"
       id="marker3727"
       refX="0"
       refY="0"
       orient="auto"
       inkscape:stockid="DotS"
       inkscape:isstock="true">
      <path
         transform="matrix(0.2,0,0,0.2,1.48,0.2)"
         style="fill:#c9ddc9;fill-opacity:1;fill-rule:evenodd;stroke:#c9ddc9;stroke-width:1pt;stroke-opacity:1"
         d="m -2.5,-1 c 0,2.76 -2.24,5 -5,5 -2.76,0 -5,-2.24 -5,-5 0,-2.76 2.24,-5 5,-5 2.76,0 5,2.24 5,5 z"
         id="path3725" />
    </marker>
    <marker
       style="overflow:visible"
       id="marker3403"
       refX="0"
       refY="0"
       orient="auto"
       inkscape:stockid="DotS"
       inkscape:isstock="true"
       inkscape:collect="always">
      <path
         transform="matrix(0.2,0,0,0.2,1.48,0.2)"
         style="fill:#c9ddc9;fill-opacity:1;fill-rule:evenodd;stroke:#c9ddc9;stroke-width:1pt;stroke-opacity:1"
         d="m -2.5,-1 c 0,2.76 -2.24,5 -5,5 -2.76,0 -5,-2.24 -5,-5 0,-2.76 2.24,-5 5,-5 2.76,0 5,2.24 5,5 z"
         id="path3401" />
    </marker>
    <marker
       style="overflow:visible"
       id="marker3269"
       refX="0"
       refY="0"
       orient="auto"
       inkscape:stockid="DotS"
       inkscape:isstock="true"
       inkscape:collect="always">
      <path
         transform="matrix(0.2,0,0,0.2,1.48,0.2)"
         style="fill:#c9ddc9;fill-opacity:1;fill-rule:evenodd;stroke:#c9ddc9;stroke-width:1pt;stroke-opacity:1"
         d="m -2.5,-1 c 0,2.76 -2.24,5 -5,5 -2.76,0 -5,-2.24 -5,-5 0,-2.76 2.24,-5 5,-5 2.76,0 5,2.24 5,5 z"
         id="path3267" />
    </marker>
    <marker
       style="overflow:visible"
       id="marker3125"
       refX="0"
       refY="0"
       orient="auto"
       inkscape:stockid="DotS"
       inkscape:isstock="true"
       inkscape:collect="always">
      <path
         transform="matrix(0.2,0,0,0.2,1.48,0.2)"
         style="fill:#c9ddc9;fill-opacity:1;fill-rule:evenodd;stroke:#c9ddc9;stroke-width:1pt;stroke-opacity:1"
         d="m -2.5,-1 c 0,2.76 -2.24,5 -5,5 -2.76,0 -5,-2.24 -5,-5 0,-2.76 2.24,-5 5,-5 2.76,0 5,2.24 5,5 z"
         id="path3123" />
    </marker>
    <inkscape:path-effect
       effect="fillet_chamfer"
       id="path-effect884"
       is_visible="true"
       lpeversion="1"
       satellites_param="F,0,0,1,0,3,0,1 @ F,0,0,1,0,3,0,1 @ F,0,0,1,0,3,0,1 @ F,0,0,1,0,3,0,1"
       unit="px"
       method="auto"
       mode="F"
       radius="0"
       chamfer_steps="1"
       flexible="false"
       use_knot_distance="true"
       apply_no_radius="true"
       apply_with_radius="true"
       only_selected="false"
       hide_knots="false"
       nodesatellites_param="F,0,0,1,0,3,0,1 @ F,0,0,1,0,3,0,1 @ F,0,0,1,0,3,0,1 @ F,0,0,1,0,3,0,1" />
    <style
       id="style159427">.cls-1{fill:#1a81c4;}</style>
    <linearGradient
       inkscape:collect="always"
       xlink:href="#radialGradient1350"
       id="linearGradient5941"
       gradientUnits="userSpaceOnUse"
       gradientTransform="matrix(3.7245395,0,0,3.7245395,365.2063,282.44422)"
       x1="-160.86667"
       y1="118.53333"
       x2="-67.733337"
       y2="-76.200005" />
    <radialGradient
       id="radialGradient1350"
       cx="50.0093"
       cy="23.271601"
       r="28.023199"
       gradientTransform="matrix(0,-0.45961851,0.81826096,0,80.071454,-81.239161)"
       gradientUnits="userSpaceOnUse">
      <stop
         offset="0"
         stop-color="#2b4bed"
         id="stop1346"
         style="stop-color:#ffffff;stop-opacity:1" />
      <stop
         offset="1"
         stop-color="#2b2fb7"
         id="stop1348"
         style="stop-color:#f3f3f3;stop-opacity:1" />
    </radialGradient>
    <radialGradient
       id="radialGradient1350-3"
       cx="50.0093"
       cy="23.271601"
       r="28.023199"
       gradientTransform="matrix(0,-0.45961851,0.81826096,0,80.071454,-81.239161)"
       gradientUnits="userSpaceOnUse">
      <stop
         offset="0"
         stop-color="#2b4bed"
         id="stop1346-6"
         style="stop-color:#ffffff;stop-opacity:1" />
      <stop
         offset="1"
         stop-color="#2b2fb7"
         id="stop1348-7"
         style="stop-color:#f3f3f3;stop-opacity:1" />
    </radialGradient>
    <clipPath
       clipPathUnits="userSpaceOnUse"
       id="clipPath1720">
      <rect
         style="fill:none;fill-opacity:1;stroke:#333333;stroke-width:2;stroke-linecap:round;stroke-linejoin:round;stroke-miterlimit:4;stroke-dasharray:none;stroke-opacity:1"
         id="rect1722"
         width="16"
         height="16"
         x="8"
         y="4.9999995"
         ry="2.6555922" />
    </clipPath>
    <clipPath
       clipPathUnits="userSpaceOnUse"
       id="clipPath2395">
      <rect
         style="fill:none;fill-opacity:1;stroke:#333333;stroke-width:2;stroke-linecap:round;stroke-linejoin:round;stroke-miterlimit:4;stroke-dasharray:none;stroke-opacity:1"
         id="rect2393"
         width="16"
         height="16"
         x="8"
         y="4.9999995"
         ry="2.6555922" />
    </clipPath>
    <radialGradient
       id="radialGradient1350-5"
       cx="50.0093"
       cy="23.271601"
       r="28.023199"
       gradientTransform="matrix(0,-0.45961851,0.81826096,0,80.071454,-81.239161)"
       gradientUnits="userSpaceOnUse">
      <stop
         offset="0"
         stop-color="#2b4bed"
         id="stop1346-3"
         style="stop-color:#ffffff;stop-opacity:1" />
      <stop
         offset="1"
         stop-color="#2b2fb7"
         id="stop1348-5"
         style="stop-color:#f3f3f3;stop-opacity:1" />
    </radialGradient>
    <radialGradient
       id="radialGradient2461"
       cx="50.0093"
       cy="23.271601"
       r="28.023199"
       gradientTransform="matrix(0,-0.45961851,0.81826096,0,80.071454,-81.239161)"
       gradientUnits="userSpaceOnUse">
      <stop
         offset="0"
         stop-color="#2b4bed"
         id="stop2457"
         style="stop-color:#ffffff;stop-opacity:1" />
      <stop
         offset="1"
         stop-color="#2b2fb7"
         id="stop2459"
         style="stop-color:#f3f3f3;stop-opacity:1" />
    </radialGradient>
    <clipPath
       clipPathUnits="userSpaceOnUse"
       id="clipPath1720-0">
      <rect
         style="fill:none;fill-opacity:1;stroke:#333333;stroke-width:2;stroke-linecap:round;stroke-linejoin:round;stroke-miterlimit:4;stroke-dasharray:none;stroke-opacity:1"
         id="rect1722-9"
         width="16"
         height="16"
         x="8"
         y="4.9999995"
         ry="2.6555922" />
    </clipPath>
    <clipPath
       clipPathUnits="userSpaceOnUse"
       id="clipPath2473">
      <rect
         style="fill:none;fill-opacity:1;stroke:#333333;stroke-width:2;stroke-linecap:round;stroke-linejoin:round;stroke-miterlimit:4;stroke-dasharray:none;stroke-opacity:1"
         id="rect2471"
         width="16"
         height="16"
         x="8"
         y="4.9999995"
         ry="2.6555922" />
    </clipPath>
    <radialGradient
       id="radialGradient1350-7"
       cx="50.0093"
       cy="23.271601"
       r="28.023199"
       gradientTransform="matrix(0,-0.45961851,0.81826096,0,80.071454,-81.239161)"
       gradientUnits="userSpaceOnUse">
      <stop
         offset="0"
         stop-color="#2b4bed"
         id="stop1346-36"
         style="stop-color:#ffffff;stop-opacity:1" />
      <stop
         offset="1"
         stop-color="#2b2fb7"
         id="stop1348-1"
         style="stop-color:#f3f3f3;stop-opacity:1" />
    </radialGradient>
    <radialGradient
       id="radialGradient2612"
       cx="50.0093"
       cy="23.271601"
       r="28.023199"
       gradientTransform="matrix(0,-0.45961851,0.81826096,0,80.071454,-81.239161)"
       gradientUnits="userSpaceOnUse">
      <stop
         offset="0"
         stop-color="#2b4bed"
         id="stop2608"
         style="stop-color:#ffffff;stop-opacity:1" />
      <stop
         offset="1"
         stop-color="#2b2fb7"
         id="stop2610"
         style="stop-color:#f3f3f3;stop-opacity:1" />
    </radialGradient>
    <clipPath
       clipPathUnits="userSpaceOnUse"
       id="clipPath1720-7">
      <rect
         style="fill:none;fill-opacity:1;stroke:#333333;stroke-width:2;stroke-linecap:round;stroke-linejoin:round;stroke-miterlimit:4;stroke-dasharray:none;stroke-opacity:1"
         id="rect1722-8"
         width="16"
         height="16"
         x="8"
         y="4.9999995"
         ry="2.6555922" />
    </clipPath>
    <clipPath
       clipPathUnits="userSpaceOnUse"
       id="clipPath2624">
      <rect
         style="fill:none;fill-opacity:1;stroke:#333333;stroke-width:2;stroke-linecap:round;stroke-linejoin:round;stroke-miterlimit:4;stroke-dasharray:none;stroke-opacity:1"
         id="rect2622"
         width="16"
         height="16"
         x="8"
         y="4.9999995"
         ry="2.6555922" />
    </clipPath>
  </defs>
  <title
     id="title159431">ps_diff_pair_tune_phase</title>
  <g
     id="g4648"
     transform="matrix(0.25,0,0,0.25,2.75,0)">
    <path
       id="path5939"
       style="fill:url(#linearGradient5941);fill-opacity:1;stroke:#bebebe;stroke-width:4;stroke-linecap:square;stroke-linejoin:round;stroke-miterlimit:4;stroke-dasharray:none;stroke-dashoffset:0;stroke-opacity:1;paint-order:normal"
       d="M 46.969,1.9423073 157,2 219,66 v 172 c 0,8.73506 -6.26521,15.99596 -15,16 l -157.073938,0.0727 c -8.734785,0.004 -16.001704,-7.26494 -16,-16 L 30.969,17.942307 c 0.0017,-8.7350433 7.265215,-16.0045797 16,-15.9999997 z"
       sodipodi:nodetypes="sccssssss" />
    <path
       id="path5956"
       style="fill:#c9ddc9;fill-opacity:1;stroke:none;stroke-width:0.744908;stroke-linecap:square;stroke-linejoin:round;stroke-miterlimit:4;stroke-dasharray:none;stroke-dashoffset:0;stroke-opacity:1;paint-order:normal"
       d="M 217,172 32.857269,219 v 19 c 0,7.73556 6.264682,14 14,14 H 204 c 7.73527,0 12.88281,-6.26533 13,-14 z"
       sodipodi:nodetypes="ccssssc" />
    <path
       style="fill:none;stroke:#c9ddc9;stroke-width:8;stroke-linecap:round;stroke-miterlimit:4;stroke-dasharray:none;stroke-opacity:1;marker-start:url(#marker3125);paint-order:fill markers stroke"
       d="M 130,48 H 77 L 61,63 v 55"
       id="path880"
       sodipodi:nodetypes="cccc" />
    <path
       style="color:#000000;font-style:normal;font-variant:normal;font-weight:normal;font-stretch:normal;font-size:medium;line-height:normal;font-family:sans-serif;font-variant-ligatures:normal;font-variant-position:normal;font-variant-caps:normal;font-variant-numeric:normal;font-variant-alternates:normal;font-variant-east-asian:normal;font-feature-settings:normal;font-variation-settings:normal;text-indent:0;text-align:start;text-decoration:none;text-decoration-line:none;text-decoration-style:solid;text-decoration-color:#000000;letter-spacing:normal;word-spacing:normal;text-transform:none;writing-mode:lr-tb;direction:ltr;text-orientation:mixed;dominant-baseline:auto;baseline-shift:baseline;text-anchor:start;white-space:normal;shape-padding:0;shape-margin:0;inline-size:0;clip-rule:nonzero;display:inline;overflow:visible;visibility:visible;isolation:auto;mix-blend-mode:normal;color-interpolation:sRGB;color-interpolation-filters:linearRGB;solid-color:#000000;solid-opacity:1;vector-effect:none;fill:#000000;fill-opacity:0;fill-rule:nonzero;stroke:none;stroke-width:5.21435;stroke-linecap:round;stroke-linejoin:miter;stroke-miterlimit:4;stroke-dasharray:none;stroke-dashoffset:0;stroke-opacity:1;paint-order:fill markers stroke;color-rendering:auto;image-rendering:auto;shape-rendering:auto;text-rendering:auto;enable-background:accumulate;stop-color:#000000"
       d="m 107.01844,43.577116 h 59.12705 c 1.09189,0 1.97092,0.878989 1.97092,1.970877 v 27.592651 c 0,1.091888 -0.87903,1.970877 -1.97092,1.970877 h -59.12705 c -1.09189,0 -1.97088,-0.878989 -1.97088,-1.970877 V 45.547993 c 0,-1.091888 0.87899,-1.970877 1.97088,-1.970877 z"
       id="path6035" />
    <path
       id="path5943"
       style="fill:#498d49;fill-opacity:1;stroke:#bebebe;stroke-width:4;stroke-linecap:square;stroke-linejoin:round;stroke-miterlimit:4;stroke-dasharray:none;stroke-dashoffset:0;stroke-opacity:1;paint-order:normal"
       d="m 155,2 v 46 c 0,8.735013 9.26681,18.185813 18,18 h 46 z"
       sodipodi:nodetypes="csscc" />
    <path
       style="color:#000000;font-style:normal;font-variant:normal;font-weight:normal;font-stretch:normal;font-size:medium;line-height:normal;font-family:sans-serif;font-variant-ligatures:normal;font-variant-position:normal;font-variant-caps:normal;font-variant-numeric:normal;font-variant-alternates:normal;font-variant-east-asian:normal;font-feature-settings:normal;font-variation-settings:normal;text-indent:0;text-align:start;text-decoration:none;text-decoration-line:none;text-decoration-style:solid;text-decoration-color:#000000;letter-spacing:normal;word-spacing:normal;text-transform:none;writing-mode:lr-tb;direction:ltr;text-orientation:mixed;dominant-baseline:auto;baseline-shift:baseline;text-anchor:start;white-space:normal;shape-padding:0;shape-margin:0;inline-size:0;clip-rule:nonzero;display:inline;overflow:visible;visibility:visible;isolation:auto;mix-blend-mode:normal;color-interpolation:sRGB;color-interpolation-filters:linearRGB;solid-color:#000000;solid-opacity:1;fill:#498d49;fill-opacity:1;fill-rule:nonzero;stroke:#4c724c;stroke-width:4;stroke-linecap:round;stroke-linejoin:round;stroke-miterlimit:4;stroke-dasharray:none;stroke-dashoffset:0;stroke-opacity:1;color-rendering:auto;image-rendering:auto;shape-rendering:auto;text-rendering:auto;enable-background:accumulate;stop-color:#000000"
       d="m 20,113 c -2.833374,0 -5.158552,1.45621 -6.681641,3.5332 C 11.795271,118.6102 11,121.30001 11,124 v 104.98916 c 5.5e-5,0.55226 0.447738,0.99994 1,1 h 25 c 0.552262,-6e-5 0.999945,-0.44774 1,-1 V 222 c 0,-1.0451 0.296546,-1.75358 0.771484,-2.22852 C 39.246422,219.29655 39.954894,219 41,219 h 5 c 1.61393,0 3,1.38607 3,3 v 6.98916 c 5.5e-5,0.55226 0.447738,0.99994 1,1 h 17 c 0.552262,-6e-5 0.999945,-0.44774 1,-1 V 222 c 0,-0.98629 0.219953,-1.72443 0.628906,-2.19336 C 69.03786,219.33771 69.692589,219 71,219 c 1.284955,0 1.934971,0.36534 2.359375,0.86914 C 73.783779,220.37294 74,221.12916 74,222 v 13.01084 c 0,1.94415 0.348786,3.66803 1.339844,4.9707 0.991057,1.30267 2.62439,2.0293 4.660156,2.0293 h 15 c 2.035765,0 3.669098,-0.72663 4.660156,-2.0293 C 100.65121,238.67887 101,236.95499 101,235.01084 V 222 c 0,-0.83368 0.21352,-1.59456 0.64258,-2.10938 C 102.07163,219.37581 102.72215,219 104,219 c 1.27777,0 1.92833,0.37571 2.35742,0.89062 C 106.78652,220.40554 107,221.16667 107,222 v 13.01084 c 0,2.00269 0.55047,3.7434 1.60742,5.00586 1.05696,1.26246 2.63024,1.99414 4.39258,1.99414 h 16 c 1.83333,0 3.38794,-0.94242 4.41406,-2.26172 C 134.44019,238.42982 135,236.73306 135,235.01084 V 225 c 0,-1.74999 0.6715,-3.54409 1.76758,-4.85938 C 137.86365,218.82534 139.33333,218 141,218 h 19 c 3.5899,0 7,-3.1943 7,-8 v -62 c 0,-1.72222 -0.59094,-3.255 -1.66797,-4.33203 C 164.255,142.59094 162.72222,142 161,142 h -60 c -4.057126,0 -8.19239,-1.49548 -11.267578,-4.12695 L 63.013672,116.15234 C 60.858746,114.30834 58.259877,113 55,113 Z"
       id="path4601"
       sodipodi:nodetypes="sssccccsssssccccsssssssssssssssssssssssssssssssccss" />
    <rect
       style="opacity:0.5;fill:#000000;fill-opacity:1;stroke:none;stroke-width:2.11125;stroke-linecap:round;stroke-linejoin:round;stroke-miterlimit:4;stroke-dasharray:none;stroke-opacity:1;paint-order:fill markers stroke"
       id="rect3222"
       width="14"
       height="14"
       x="21.000008"
       y="122.00002" />
    <path
       style="fill:none;stroke:#c9ddc9;stroke-width:8;stroke-linecap:round;stroke-miterlimit:4;stroke-dasharray:none;stroke-opacity:1;marker-start:url(#marker3269);paint-order:fill markers stroke"
       d="M 185,80 H 117 L 89,51"
       id="path3265"
       sodipodi:nodetypes="ccc" />
    <path
       style="fill:none;stroke:#c9ddc9;stroke-width:8;stroke-linecap:round;stroke-miterlimit:4;stroke-dasharray:none;stroke-opacity:1;marker-start:url(#marker3403);paint-order:fill markers stroke"
       d="M 185,104 H 97"
       id="path3399"
       sodipodi:nodetypes="cc" />
    <path
       style="fill:none;stroke:#c9ddc9;stroke-width:8;stroke-linecap:round;stroke-miterlimit:4;stroke-dasharray:none;stroke-opacity:1;marker-start:url(#marker3727);paint-order:fill markers stroke"
       d="M 185,128 H 97"
       id="path3517"
       sodipodi:nodetypes="cc" />
    <path
       id="path4465"
       style="color:#000000;font-style:normal;font-variant:normal;font-weight:normal;font-stretch:normal;font-size:medium;line-height:normal;font-family:sans-serif;font-variant-ligatures:normal;font-variant-position:normal;font-variant-caps:normal;font-variant-numeric:normal;font-variant-alternates:normal;font-variant-east-asian:normal;font-feature-settings:normal;font-variation-settings:normal;text-indent:0;text-align:start;text-decoration:none;text-decoration-line:none;text-decoration-style:solid;text-decoration-color:#000000;letter-spacing:normal;word-spacing:normal;text-transform:none;writing-mode:lr-tb;direction:ltr;text-orientation:mixed;dominant-baseline:auto;baseline-shift:baseline;text-anchor:start;white-space:normal;shape-padding:0;shape-margin:0;inline-size:0;clip-rule:nonzero;display:inline;overflow:visible;visibility:visible;opacity:1;isolation:auto;mix-blend-mode:normal;color-interpolation:sRGB;color-interpolation-filters:linearRGB;solid-color:#000000;solid-opacity:1;vector-effect:none;fill:#325232;fill-opacity:1;fill-rule:nonzero;stroke:none;stroke-linecap:square;stroke-linejoin:round;stroke-miterlimit:4;stroke-dasharray:none;stroke-dashoffset:0;stroke-opacity:1;paint-order:fill markers stroke;color-rendering:auto;image-rendering:auto;shape-rendering:auto;text-rendering:auto;enable-background:accumulate;stop-color:#000000;stop-opacity:1"
       d="m 57,115.2055 v 0.56641 29.79254 L 29,168 h -12.941406 -3 L 13,176 h 3 13 c 2,0 5.466605,-1.5702 6,-2 L 63.882812,152.02344 C 64.589332,151.45383 65.00006,150.59504 65,149.6875 v -29.3611 l -2.636719,-2.1553 C 61.061158,117.05685 58.893081,115.43386 57,115.2055 Z"
       sodipodi:nodetypes="ccccccccccccccc" />
    <path
       id="path4494"
       style="opacity:1;fill:#325232;fill-opacity:1;stroke:none;stroke-width:6;stroke-linecap:square;stroke-linejoin:round;stroke-miterlimit:4;stroke-dasharray:none;stroke-opacity:1;paint-order:fill markers stroke"
       d="m 60,166 -32,24 v 38.19589 h 9 V 222 c 0,-2.49314 1.506856,-4 4,-4 h 5 c 2.173922,0 4,1.82608 4,4 v 6 h 17 v -6 c 0,-2.26669 1,-4 4,-4 2.999999,0 4,1.93541 4,4 v 12.15357 c 0,3.63896 1.361013,6 5,6 h 15 c 3.638987,0 5,-2.36103 5,-6 V 222 c 0,-2.0006 1,-4 4,-4 2.99999,0 4,2 4,4 v 12.15357 c 0,3.63897 2,6 5,6 h 15 c 3,0 5,-3 5,-6 V 226 c 0,-10 4,-10 20,-10 h 6 c 3,0 6,-1.65455 6,-6 v -45 z"
       sodipodi:nodetypes="ccccssssccsssssssssssssssssscc" />
    <path
       id="rect880"
       clip-path="url(#clipPath1720)"
       style="fill:#dd8d15;fill-opacity:1;stroke:none;stroke-width:1.34164;stroke-linecap:round;stroke-linejoin:round"
       transform="matrix(0,-5.1063835,-5,0,203,318.70214)"
       d="m 17,14.815357 h 1.154165 V 18 H 17 c -0.554,0 -1,-0.446 -1,-1 v -1.184643 c 0,-0.554 0.446,-1 1,-1 z"
       sodipodi:nodetypes="sccssss" />
    <path
       id="path3057"
       clip-path="url(#clipPath1720)"
       style="fill:#dd8d15;fill-opacity:1;stroke:none;stroke-width:1.34164;stroke-linecap:round;stroke-linejoin:round"
       transform="matrix(0,-5.1063835,-5.0000001,0,170,318.70214)"
       d="m 17,15.369285 h 1.154165 v 2.432884 H 17 c -0.554,0 -1,-0.446 -1,-1 v -0.432884 c 0,-0.554 0.446,-1 1,-1 z"
       sodipodi:nodetypes="sccssss" />
    <rect
       style="opacity:0.5;fill:#000000;fill-opacity:1;stroke:none;stroke-width:3.31766;stroke-linecap:round;stroke-linejoin:round;stroke-miterlimit:4;stroke-dasharray:none;stroke-opacity:1;paint-order:fill markers stroke"
       id="rect3143"
       width="22"
       height="22"
       x="84.000008"
       y="177.99998" />
    <path
       id="rect3206"
       style="fill:none;fill-opacity:1;stroke:#4c724c;stroke-width:2;stroke-linecap:square;stroke-linejoin:miter;stroke-miterlimit:4;stroke-dasharray:none;stroke-dashoffset:0;stroke-opacity:1;paint-order:fill markers stroke"
       d="m 82,176 h 26 v 26 H 82 Z"
       sodipodi:nodetypes="ccccc" />
    <circle
       style="opacity:0.5;fill:#182918;fill-opacity:1;stroke:none;stroke-width:1.88976;stroke-linecap:square;stroke-linejoin:miter;stroke-miterlimit:4;stroke-dasharray:none;stroke-dashoffset:0;stroke-opacity:1;paint-order:fill markers stroke"
       id="circle3214"
       cx="36"
       cy="208"
       r="3.9999998" />
    <circle
       style="opacity:0.5;fill:#182918;fill-opacity:1;stroke:none;stroke-width:1.88976;stroke-linecap:square;stroke-linejoin:miter;stroke-miterlimit:4;stroke-dasharray:none;stroke-dashoffset:0;stroke-opacity:1;paint-order:fill markers stroke"
       id="circle3216"
       cx="63.999992"
       cy="208"
       r="3.9999998" />
  </g>
</svg>
