<?xml version="1.0" encoding="UTF-8" standalone="no"?>
<svg
   xmlns:dc="http://purl.org/dc/elements/1.1/"
   xmlns:cc="http://creativecommons.org/ns#"
   xmlns:rdf="http://www.w3.org/1999/02/22-rdf-syntax-ns#"
   xmlns:svg="http://www.w3.org/2000/svg"
   xmlns="http://www.w3.org/2000/svg"
   xmlns:sodipodi="http://sodipodi.sourceforge.net/DTD/sodipodi-0.dtd"
   xmlns:inkscape="http://www.inkscape.org/namespaces/inkscape"
   id="Слой_1"
   data-name="Слой 1"
   viewBox="0 0 24 24"
   version="1.1"
   sodipodi:docname="directory_browser.svg"
   inkscape:version="1.0.2 (e86c870879, 2021-01-15)">
  <sodipodi:namedview
     pagecolor="#ffffff"
     bordercolor="#666666"
     borderopacity="1"
     objecttolerance="10"
     gridtolerance="10"
     guidetolerance="10"
     inkscape:pageopacity="0"
     inkscape:pageshadow="2"
     inkscape:window-width="3840"
     inkscape:window-height="2099"
     id="namedview30"
     showgrid="true"
     inkscape:zoom="60.67263"
     inkscape:cx="18.953894"
     inkscape:cy="18.381916"
     inkscape:window-x="0"
     inkscape:window-y="37"
     inkscape:window-maximized="1"
     inkscape:document-rotation="0"
     inkscape:current-layer="Слой_1">
    <inkscape:grid
       type="xygrid"
       id="grid_kicad"
       spacingx="0.5"
       spacingy="0.5"
       color="#9999ff"
       opacity="0.13"
       empspacing="2" />
  </sodipodi:namedview>
  <metadata
     id="metadata43">
    <rdf:RDF>
      <cc:Work
         rdf:about="">
        <cc:license
           rdf:resource="http://creativecommons.org/licenses/by-sa/4.0/" />
        <dc:format>image/svg+xml</dc:format>
        <dc:type
           rdf:resource="http://purl.org/dc/dcmitype/StillImage" />
        <dc:title>add_arc</dc:title>
      </cc:Work>
      <cc:License
         rdf:about="http://creativecommons.org/licenses/by-sa/4.0/">
        <cc:permits
           rdf:resource="http://creativecommons.org/ns#Reproduction" />
        <cc:permits
           rdf:resource="http://creativecommons.org/ns#Distribution" />
        <cc:requires
           rdf:resource="http://creativecommons.org/ns#Notice" />
        <cc:requires
           rdf:resource="http://creativecommons.org/ns#Attribution" />
        <cc:permits
           rdf:resource="http://creativecommons.org/ns#DerivativeWorks" />
        <cc:requires
           rdf:resource="http://creativecommons.org/ns#ShareAlike" />
      </cc:License>
    </rdf:RDF>
  </metadata>
  <defs
     id="defs116534">
    <style
       id="style116532">.cls-1{fill:#DED3DD;}.cls-2{fill:#8f8f8f;}.cls-3{fill:#f2647e;}.cls-4{fill:none;stroke:#fff;stroke-linecap:round;stroke-linejoin:round;stroke-width:2px;}</style>
  </defs>
  <title
     id="title116536">directory_browser</title>
  <path
     id="path845"
     style="fill:#DED3DD;fill-opacity:1;stroke:none;stroke-width:0.999995"
     d="m 2.9511719,3.000149 c -1.085455,0.026508 -1.95149553,0.9142215 -1.9511719,2 -1.9869e-4,0.016275 -1.9869e-4,0.032553 0,0.048828 V 19.000149 c 0,1.104569 0.8954305,2 2,2 0.016275,1.99e-4 0.032553,1.99e-4 0.048828,0 H 21 c 1.104569,0 2,-0.895431 2,-2 1.99e-4,-0.01628 1.99e-4,-0.03255 0,-0.04883 V 8.000149 c 0,-1.1045695 -0.895431,-2 -2,-2 -2.833333,0 -8.5,0 -8.5,0 l -3,-3 H 3 c -0.016275,-1.987e-4 -0.032553,-1.987e-4 -0.048828,0 z"
     sodipodi:nodetypes="cccsccsccsccccc" />
  <path
     class="cls-3"
     d="M 24.0065,17 A 7.0065,7.0065 0 1 1 17,10 a 7.0032,7.0032 0 0 1 7.0065,7 z"
     id="path116542"
     style="stroke:none;stroke-opacity:1;stroke-width:1.5;stroke-miterlimit:4;stroke-dasharray:none" />
  <path
     id="polyline116544"
     style="fill:none;stroke:#ffffff;stroke-width:2px;stroke-linecap:round;stroke-linejoin:round"
     d="m 20.851,18.877 c 0,0 -4.136587,0.640163 -5.59087,-0.81412 C 13.937605,16.740355 14.681,13.266 14.681,13.266"
     sodipodi:nodetypes="csc" />
  <polyline
     class="cls-4"
     points="19.473 17.45 21.9 19.877 19.473 22.303"
     id="polyline116546"
     transform="translate(-1,-1)" />
</svg>
