<?xml version="1.0" encoding="UTF-8" standalone="no"?>
<svg
   xmlns:dc="http://purl.org/dc/elements/1.1/"
   xmlns:cc="http://creativecommons.org/ns#"
   xmlns:rdf="http://www.w3.org/1999/02/22-rdf-syntax-ns#"
   xmlns:svg="http://www.w3.org/2000/svg"
   xmlns="http://www.w3.org/2000/svg"
   xmlns:sodipodi="http://sodipodi.sourceforge.net/DTD/sodipodi-0.dtd"
   xmlns:inkscape="http://www.inkscape.org/namespaces/inkscape"
   id="Слой_1"
   data-name="Слой 1"
   viewBox="0 0 24 24"
   version="1.1"
   sodipodi:docname="ercwarn.svg"
   inkscape:version="1.0.1 (3bc2e813f5, 2020-09-07)">
  <sodipodi:namedview
     pagecolor="#111111"
     bordercolor="#666666"
     borderopacity="1"
     objecttolerance="10"
     gridtolerance="10"
     guidetolerance="10"
     inkscape:pageopacity="0"
     inkscape:pageshadow="2"
     inkscape:window-width="1609"
     inkscape:window-height="1286"
     id="namedview30"
     showgrid="true"
     inkscape:zoom="27.961538"
     inkscape:cx="3.3259971"
     inkscape:cy="13"
     inkscape:window-x="0"
     inkscape:window-y="37"
     inkscape:window-maximized="0"
     inkscape:document-rotation="0"
     inkscape:current-layer="Слой_1">
    <inkscape:grid
       type="xygrid"
       id="grid_kicad"
       spacingx="0.5"
       spacingy="0.5"
       color="#9999ff"
       opacity="0.13"
       empspacing="2" />
  </sodipodi:namedview>
  <metadata
     id="metadata43">
    <rdf:RDF>
      <cc:Work
         rdf:about="">
        <cc:license
           rdf:resource="http://creativecommons.org/licenses/by-sa/4.0/" />
        <dc:format>image/svg+xml</dc:format>
        <dc:type
           rdf:resource="http://purl.org/dc/dcmitype/StillImage" />
        <dc:title>add_arc</dc:title>
      </cc:Work>
      <cc:License
         rdf:about="http://creativecommons.org/licenses/by-sa/4.0/">
        <cc:permits
           rdf:resource="http://creativecommons.org/ns#Reproduction" />
        <cc:permits
           rdf:resource="http://creativecommons.org/ns#Distribution" />
        <cc:requires
           rdf:resource="http://creativecommons.org/ns#Notice" />
        <cc:requires
           rdf:resource="http://creativecommons.org/ns#Attribution" />
        <cc:permits
           rdf:resource="http://creativecommons.org/ns#DerivativeWorks" />
        <cc:requires
           rdf:resource="http://creativecommons.org/ns#ShareAlike" />
      </cc:License>
    </rdf:RDF>
  </metadata>
  <defs
     id="defs116919">
    <style
       id="style116917">.cls-1{fill:#f29100;}.cls-2{fill:#111111;}</style>
  </defs>
  <title
     id="title116921">ercwarn</title>
  <path
     class="cls-1"
     d="M 23.7285,19.7433 13.9738,2.1548 a 2.2829,2.2829 0 0 0 -3.97,0.0018 L 0.2705,19.7452 A 2.2071,2.2071 0 0 0 2.2562,23 h 19.4876 a 2.2072,2.2072 0 0 0 1.9847,-3.2567 z"
     id="path116923" />
  <path
     class="cls-2"
     d="m 10.7587,16.7994 a 4.0575,4.0575 0 0 1 0.2778,-1.7264 5.0045,5.0045 0 0 1 1.1952,-1.3042 7.6172,7.6172 0 0 0 1.044,-1.2283 2.3029,2.3029 0 0 0 0.3876,-1.2958 1.7422,1.7422 0 0 0 -0.4418,-1.2705 1.6827,1.6827 0 0 0 -1.2592,-0.4516 1.8626,1.8626 0 0 0 -1.1875,0.3841 1.3583,1.3583 0 0 0 -0.4882,1.1354 h -1.97 L 8.292,10.9915 a 2.7865,2.7865 0 0 1 1.0059,-2.3427 4.0848,4.0848 0 0 1 2.6648,-0.84 3.94,3.94 0 0 1 2.7576,0.9033 3.2227,3.2227 0 0 1 0.9892,2.5072 3.4829,3.4829 0 0 1 -0.6184,1.988 7.6808,7.6808 0 0 1 -1.5625,1.6757 1.9305,1.9305 0 0 0 -0.6014,0.802 3.8483,3.8483 0 0 0 -0.1225,1.1143 z m 2.0794,3.478 H 10.75 V 18.31 h 2.0879 z"
     id="path116925" />
</svg>
