<?xml version="1.0" encoding="UTF-8" standalone="no"?>
<svg
   xmlns:dc="http://purl.org/dc/elements/1.1/"
   xmlns:cc="http://creativecommons.org/ns#"
   xmlns:rdf="http://www.w3.org/1999/02/22-rdf-syntax-ns#"
   xmlns:svg="http://www.w3.org/2000/svg"
   xmlns="http://www.w3.org/2000/svg"
   xmlns:sodipodi="http://sodipodi.sourceforge.net/DTD/sodipodi-0.dtd"
   xmlns:inkscape="http://www.inkscape.org/namespaces/inkscape"
   version="1.1"
   id="Слой_1"
   inkscape:export-filename="/Users/jeff/kicad_dev/kicad/bitmaps_png/png_26/plot.png"
   inkscape:export-xdpi="96"
   inkscape:export-ydpi="96"
   inkscape:version="1.0.1 (c497b03c, 2020-09-10)"
   sodipodi:docname="export_svg.svg"
   x="0px"
   y="0px"
   viewBox="0 0 24 24"
   style="enable-background:new 0 0 24 24;"
   xml:space="preserve"><metadata
   id="metadata851"><rdf:RDF><cc:Work
       rdf:about=""><dc:format>image/svg+xml</dc:format><dc:type
         rdf:resource="http://purl.org/dc/dcmitype/StillImage" /><dc:title>plot</dc:title><cc:license
         rdf:resource="http://creativecommons.org/licenses/by-sa/4.0/" /></cc:Work><cc:License
       rdf:about="http://creativecommons.org/licenses/by-sa/4.0/"><cc:permits
         rdf:resource="http://creativecommons.org/ns#Reproduction" /><cc:permits
         rdf:resource="http://creativecommons.org/ns#Distribution" /><cc:requires
         rdf:resource="http://creativecommons.org/ns#Notice" /><cc:requires
         rdf:resource="http://creativecommons.org/ns#Attribution" /><cc:permits
         rdf:resource="http://creativecommons.org/ns#DerivativeWorks" /><cc:requires
         rdf:resource="http://creativecommons.org/ns#ShareAlike" /></cc:License></rdf:RDF></metadata><defs
   id="defs849" />
<style
   type="text/css"
   id="style833">
	.st0{fill:#545454;stroke:#DED3DD;}
	.st1{fill:#42B8EB;}
	.st2{fill:#727272;}
	.st3{fill:#DED3DD;}
</style>
<sodipodi:namedview
   bordercolor="#666666"
   borderopacity="1"
   gridtolerance="10"
   guidetolerance="10"
   id="namedview30"
   inkscape:current-layer="Слой_1"
   inkscape:cx="14.58389"
   inkscape:cy="11.347732"
   inkscape:document-rotation="0"
   inkscape:pageopacity="0"
   inkscape:pageshadow="2"
   inkscape:window-height="715"
   inkscape:window-maximized="1"
   inkscape:window-width="1280"
   inkscape:window-x="330"
   inkscape:window-y="1103"
   inkscape:zoom="15.359979"
   objecttolerance="10"
   pagecolor="#ffffff"
   showgrid="true">
	<inkscape:grid
   color="#9999ff"
   empspacing="2"
   id="grid_kicad"
   opacity="0.13"
   spacingx="0.5"
   spacingy="0.5"
   type="xygrid">
		</inkscape:grid>
</sodipodi:namedview>
<title
   id="title26467">plot</title>










<path
   class="cls-1"
   d="m 6.0246,0 h 11.95 a 2.9933,2.9933 0 0 1 2.9938,2.9933 V 14.9899 A 2.9934,2.9934 0 0 1 17.975,17.9833 H 6.0246 A 2.9934,2.9934 0 0 1 3.0312,14.9899 V 2.9933 A 2.9934,2.9934 0 0 1 6.0246,0 Z"
   id="path117103"
   style="fill:#8f8f8f" /><rect
   class="cls-2"
   x="-3.9881897e-08"
   y="2.9935999"
   width="18.7099"
   height="9.2299004"
   id="rect117105"
   style="fill:#42B8EB" /><path
   class="cls-3"
   d="M 2.0691,9.6633 H 0.99589997 V 8.6271 H 2.0691 Z"
   id="path117107"
   style="fill:#ffffff" /><path
   class="cls-3"
   d="M 6.117,8.3566 A 0.5043,0.5043 0 0 0 5.9041,7.9425 2.1209,2.1209 0 0 0 5.1098,7.6533 3.2826,3.2826 0 0 1 3.8098,7.1359 1.0847,1.0847 0 0 1 3.3684,6.2218 1.3029,1.3029 0 0 1 3.8784,5.1906 2.0266,2.0266 0 0 1 5.2222,4.7638 2.1011,2.1011 0 0 1 6.6167,5.1974 1.2838,1.2838 0 0 1 7.1098,6.2706 L 7.101,6.298 H 6.0682 A 0.68,0.68 0 0 0 5.8426,5.7863 0.8734,0.8734 0 0 0 5.2215,5.5733 0.8929,0.8929 0 0 0 4.6268,5.7481 0.5476,0.5476 0 0 0 4.4227,6.1781 0.4816,0.4816 0 0 0 4.616,6.5804 2.0677,2.0677 0 0 0 5.3982,6.8451 3.2874,3.2874 0 0 1 6.7398,7.3712 1.1123,1.1123 0 0 1 7.1764,8.298 1.26,1.26 0 0 1 6.6422,9.3517 2.268,2.268 0 0 1 5.234,9.757 2.1466,2.1466 0 0 1 3.7574,9.277 1.3558,1.3558 0 0 1 3.2437,8.1745 L 3.2525,8.1481 h 1.002 A 0.7191,0.7191 0 0 0 4.5562,8.7565 1.2047,1.2047 0 0 0 5.2476,8.9479 1.1065,1.1065 0 0 0 5.8912,8.7879 0.5012,0.5012 0 0 0 6.117,8.3566 Z"
   id="path117109"
   style="fill:#ffffff" /><path
   class="cls-3"
   d="m 9.3491227,6.761 0.47891,1.671567 h 0.0273 L 10.349123,6.761 l 0.543408,-2 h 1.1132 l -1.656608,5 H 9.3491227 l -1.69389,-5 h 1.1132 z"
   id="path27317"
   style="fill:#ffffff;stroke-width:1"
   sodipodi:nodetypes="ccccccccccc" /><path
   class="cls-3"
   d="m 12.666667,7.3923243 a 3.1315,3.2168068 0 0 1 0.502,-1.903992 1.61,1.6538588 0 0 1 1.3916,-0.72626 1.5114,1.5525728 0 0 1 0.7568,0.189526 1.5977,1.6412237 0 0 1 0.5518,0.545773 l 0.1064,-0.64408 h 0.8955 v 4.941648 a 1.8158,1.8652651 0 0 1 -0.5722,1.4746057 2.3664,2.4308643 0 0 1 -1.6231,0.520712 3.177,3.2635462 0 0 1 -0.7558,-0.102725 3.4991,3.5944207 0 0 1 -0.7334,-0.271811 l 0.23,-0.871717 a 2.5879,2.6583983 0 0 0 0.5879,0.220651 2.8033,2.8796661 0 0 0 0.6621,0.08023 1.2333,1.2668969 0 0 0 0.8565,-0.257734 1.0081,1.0355622 0 0 0 0.2705,-0.7925167 v -0.506638 a 1.5212,1.5626398 0 0 1 -0.5342,0.449418 1.6052,1.6489281 0 0 1 -0.708,0.15347 1.6524,1.6974139 0 0 1 -1.3828,-0.663085 2.6766,2.7495146 0 0 1 -0.502,-1.739428 z m 1.0782,0.09636 a 1.8947,1.9463145 0 0 0 0.2636,1.08939 0.9131,0.93797421 0 0 0 0.8184,0.408328 1.0982,1.1281166 0 0 0 0.583,-0.148539 1.0612,1.0901087 0 0 0 0.3838,-0.426305 v -2.165019 a 1.1509,1.1822522 0 0 0 -0.3887,-0.422402 1.0458,1.0742892 0 0 0 -0.5693,-0.15347 0.8841,0.90818421 0 0 0 -0.8223,0.479516 2.4018,2.4672286 0 0 0 -0.2685,1.241935 z"
   id="path27319"
   style="fill:#ffffff;stroke-width:1" /><path
   class="cls-4"
   d="m 23.9822,16.9961 a 6.9925,6.9925 0 1 1 -6.9924,-7.0039 6.9982,6.9982 0 0 1 6.9924,7.0039 z"
   id="path117115"
   style="fill:#f2647e" /><line
   class="cls-5"
   x1="17.0933"
   y1="13.625401"
   x2="17.0933"
   y2="20.629299"
   id="line117117"
   style="fill:none;stroke:#545454;stroke-width:2px;stroke-linecap:round;stroke-linejoin:round" /><polyline
   class="cls-5"
   points="15.344 17.166 18.093 14.413 20.843 17.166"
   id="polyline117119"
   transform="translate(-1.0002,-1.0067)"
   style="fill:none;stroke:#545454;stroke-width:2px;stroke-linecap:round;stroke-linejoin:round" /></svg>
