<?xml version="1.0" encoding="UTF-8" standalone="no"?>
<svg
   xmlns:dc="http://purl.org/dc/elements/1.1/"
   xmlns:cc="http://creativecommons.org/ns#"
   xmlns:rdf="http://www.w3.org/1999/02/22-rdf-syntax-ns#"
   xmlns:svg="http://www.w3.org/2000/svg"
   xmlns="http://www.w3.org/2000/svg"
   xmlns:sodipodi="http://sodipodi.sourceforge.net/DTD/sodipodi-0.dtd"
   xmlns:inkscape="http://www.inkscape.org/namespaces/inkscape"
   id="Слой_1"
   data-name="Слой 1"
   viewBox="0 0 24 24"
   version="1.1"
   sodipodi:docname="file_dsn.svg"
   inkscape:version="1.0.1 (3bc2e813f5, 2020-09-07)">
  <sodipodi:namedview
     pagecolor="#ffffff"
     bordercolor="#666666"
     borderopacity="1"
     objecttolerance="10"
     gridtolerance="10"
     guidetolerance="10"
     inkscape:pageopacity="0"
     inkscape:pageshadow="2"
     inkscape:window-width="2613"
     inkscape:window-height="1710"
     id="namedview30"
     showgrid="true"
     inkscape:zoom="79.087172"
     inkscape:cx="7.9604831"
     inkscape:cy="10.282972"
     inkscape:window-x="0"
     inkscape:window-y="37"
     inkscape:window-maximized="0"
     inkscape:document-rotation="0"
     inkscape:current-layer="Слой_1">
    <inkscape:grid
       type="xygrid"
       id="grid_kicad"
       spacingx="0.5"
       spacingy="0.5"
       color="#9999ff"
       opacity="0.13"
       empspacing="2" />
  </sodipodi:namedview>
  <metadata
     id="metadata43">
    <rdf:RDF>
      <cc:Work
         rdf:about="">
        <cc:license
           rdf:resource="http://creativecommons.org/licenses/by-sa/4.0/" />
        <dc:format>image/svg+xml</dc:format>
        <dc:type
           rdf:resource="http://purl.org/dc/dcmitype/StillImage" />
        <dc:title>export_dsn</dc:title>
      </cc:Work>
      <cc:License
         rdf:about="http://creativecommons.org/licenses/by-sa/4.0/">
        <cc:permits
           rdf:resource="http://creativecommons.org/ns#Reproduction" />
        <cc:permits
           rdf:resource="http://creativecommons.org/ns#Distribution" />
        <cc:requires
           rdf:resource="http://creativecommons.org/ns#Notice" />
        <cc:requires
           rdf:resource="http://creativecommons.org/ns#Attribution" />
        <cc:permits
           rdf:resource="http://creativecommons.org/ns#DerivativeWorks" />
        <cc:requires
           rdf:resource="http://creativecommons.org/ns#ShareAlike" />
      </cc:License>
    </rdf:RDF>
  </metadata>
  <defs
     id="defs24695">
    <style
       id="style24693">.cls-1{fill:#8f8f8f;}.cls-2{fill:#42B8EB;}.cls-3{fill:#fff;}.cls-4{fill:#f2647e;}.cls-5{fill:none;stroke:#545454;stroke-linecap:round;stroke-linejoin:round;stroke-width:2px;}</style>
  </defs>
  <title
     id="title24697">export_dsn</title>
  <path
     class="cls-1"
     d="M 6.504527,5.5731614e-8 H 20.495005 A 3.5044099,3.9947729 0 0 1 24,3.9947729 V 20.005093 A 3.5045269,3.9949063 0 0 1 20.495473,24 H 6.504527 A 3.5045269,3.9949063 0 0 1 3,20.005093 V 3.9947729 A 3.5045269,3.9949063 0 0 1 6.504527,5.5731614e-8 Z"
     id="path24699"
     style="stroke-width:1" />
  <rect
     class="cls-2"
     x="0"
     y="3"
     width="19"
     height="9"
     id="rect24701"
     style="stroke-width:0.999998" />
  <path
     class="cls-3"
     d="M 2.0693,10.6 H 0.9961 V 9.5635 h 1.0732 z"
     id="path24703" />
  <path
     class="cls-3"
     d="m 2.8998294,8.2607 a 3.1756,3.1756 0 0 1 0.4922,-1.8554 1.5908,1.5908 0 0 1 1.3838,-0.7053 1.5091,1.5091 0 0 1 0.6982,0.1582 1.5652,1.5652 0 0 1 0.5341,0.4518 V 3.6641 h 1.0772 V 10.6 h -0.9043 l -0.1064,-0.5957 a 1.5892,1.5892 0 0 1 -0.5537,0.5137 1.5573,1.5573 0 0 1 -0.7539,0.1758 1.6292,1.6292 0 0 1 -1.375,-0.6455 2.7159,2.7159 0 0 1 -0.4922,-1.6934 z m 1.0771,0.0938 a 1.9422,1.9422 0 0 0 0.2549,1.0625 0.893,0.893 0 0 0 0.81,0.3955 1.0826,1.0826 0 0 0 0.5791,-0.1465 1.1149,1.1149 0 0 0 0.3877,-0.418 V 7.1494 a 1.1277,1.1277 0 0 0 -0.3906,-0.415 1.0487,1.0487 0 0 0 -0.5674,-0.1494 0.87,0.87 0 0 0 -0.8116,0.4648 2.46,2.46 0 0 0 -0.2617,1.2109 z"
     id="path24705" />
  <path
     class="cls-3"
     d="M 10.917068,9.293 A 0.53213401,0.5043 0 0 0 10.692417,8.8789 2.2388037,2.1217 0 0 0 9.8546988,8.5898 3.4623004,3.2812 0 0 1 8.4821004,8.0723 1.1449903,1.0851 0 0 1 8.016338,7.1582 1.3746004,1.3027 0 0 1 8.5544866,6.127 2.1379273,2.0261 0 0 1 9.9721418,5.7 2.2168558,2.1009 0 0 1 11.44361,6.1336 1.3543407,1.2835 0 0 1 11.965086,7.2068 l -0.0093,0.0274 H 10.865574 A 0.71753148,0.68 0 0 0 10.627523,6.7225 0.92160588,0.8734 0 0 0 9.9721418,6.5096 0.94228767,0.893 0 0 0 9.3446155,6.6844 a 0.57782389,0.5476 0 0 0 -0.215365,0.43 0.50818112,0.4816 0 0 0 0.2039688,0.4023 2.1802406,2.0662 0 0 0 0.8254817,0.2646 3.4709531,3.2894 0 0 1 1.415858,0.5264 1.1736915,1.1123 0 0 1 0.460592,0.9268 1.3295436,1.26 0 0 1 -0.563685,1.0537 A 2.3929675,2.2678 0 0 1 9.9855433,10.6935 2.2653946,2.1469 0 0 1 8.4274414,10.213 1.4302091,1.3554 0 0 1 7.885494,9.11 L 7.89478,9.0836 H 8.9519782 A 0.7585785,0.7189 0 0 0 9.2704355,9.692 1.2707694,1.2043 0 0 0 9.9999996,9.8834 1.1671493,1.1061 0 0 0 10.679016,9.7234 0.52886291,0.5012 0 0 0 10.917068,9.293 Z"
     id="path24707"
     style="stroke-width:1" />
  <path
     class="cls-3"
     d="m 13.977596,5.7891 0.0625,0.6933 a 1.7072,1.7072 0 0 1 0.5918,-0.5752 1.577,1.577 0 0 1 0.8047,-0.207 1.5089,1.5089 0 0 1 1.1689,0.456 2.0477,2.0477 0 0 1 0.4189,1.42 V 10.6 h -1.0781 V 7.585 a 1.0794,1.0794 0 0 0 -0.2236,-0.7705 0.91,0.91 0 0 0 -0.6807,-0.2295 1.1347,1.1347 0 0 0 -0.5635,0.14 1.1724,1.1724 0 0 0 -0.4072,0.3848 V 10.6 h -1.0781 V 5.79 Z"
     id="path24709" />
</svg>
