<?xml version="1.0" encoding="utf-8"?>
<!-- Generator: Adobe Illustrator 18.0.0, SVG Export Plug-In . SVG Version: 6.00 Build 0)  -->
<!DOCTYPE svg PUBLIC "-//W3C//DTD SVG 1.1//EN" "http://www.w3.org/Graphics/SVG/1.1/DTD/svg11.dtd">
<svg version="1.1" id="Layer_1" xmlns="http://www.w3.org/2000/svg" xmlns:xlink="http://www.w3.org/1999/xlink" x="0px" y="0px"
	 viewBox="0 0 64 64" enable-background="new 0 0 64 64" xml:space="preserve">
<g id="XMLID_9_">
	<g>
		<g>
			<g>
				<polygon fill="#E7BF55" points="63,12 63,50 32,63 32,23 43.6,18.9 44,19 44,29 52,26 52,16 51.9,15.9 				"/>
			</g>
		</g>
		<g>
			<g>
				<polygon fill="#EFC75E" points="63,12 51.9,15.9 22,5 21.9,4.7 32,1 				"/>
			</g>
		</g>
		<g>
			<g>
				<polygon fill="#F7E3AF" points="52,16 52,26 44,29 44,19 43.6,18.9 51.9,15.9 				"/>
			</g>
		</g>
		<g>
			<g>
				<polygon fill="#F7E3AF" points="51.9,15.9 43.6,18.9 14,8 13.9,7.6 21.9,4.7 22,5 				"/>
			</g>
		</g>
		<g>
			<g>
				<polygon fill="#EFC75E" points="43.6,18.9 32,23 1,12.2 13.9,7.6 14,8 				"/>
			</g>
		</g>
		<g>
			<g>
				<polygon fill="#D3A644" points="32,23 32,63 1,50 1,12.2 				"/>
			</g>
		</g>
	</g>
	<g>
		<g>
			<g>
				<path fill="#2C2C3D" d="M32,24c-0.1,0-0.2,0-0.3-0.1l-31-10.8c-0.5-0.2-0.8-0.8-0.6-1.3s0.8-0.8,1.3-0.6L32,21.9l30.7-10.9
					c0.5-0.2,1.1,0.1,1.3,0.6c0.2,0.5-0.1,1.1-0.6,1.3l-31,11C32.2,24,32.1,24,32,24z"/>
			</g>
		</g>
		<g>
			<g>
				<path fill="#2C2C3D" d="M32,64c-0.1,0-0.3,0-0.4-0.1l-31-13C0.2,50.8,0,50.4,0,50V12.2c0-0.4,0.3-0.8,0.7-0.9l31-11.2
					c0.2-0.1,0.5-0.1,0.7,0l31,11c0.4,0.1,0.7,0.5,0.7,0.9v38c0,0.4-0.2,0.8-0.6,0.9l-31,13C32.3,64,32.1,64,32,64z M2,49.3l30,12.6
					l30-12.6V12.7L32,2.1L2,12.9V49.3z"/>
			</g>
		</g>
		<g>
			<g>
				<path fill="#2C2C3D" d="M32,64c-0.6,0-1-0.4-1-1V23c0-0.6,0.4-1,1-1s1,0.4,1,1v40C33,63.6,32.6,64,32,64z"/>
			</g>
		</g>
		<g>
			<g>
				<path fill="#2C2C3D" d="M44,30c-0.2,0-0.4-0.1-0.6-0.2C43.2,29.6,43,29.3,43,29v-9.3L13.7,8.9c-0.5-0.2-0.8-0.8-0.6-1.3
					c0.2-0.5,0.8-0.8,1.3-0.6l30,11c0.4,0.1,0.7,0.5,0.7,0.9v8.6l6-2.2v-8.6L21.7,5.9c-0.5-0.2-0.8-0.8-0.6-1.3
					c0.2-0.5,0.8-0.8,1.3-0.6l30,11c0.4,0.1,0.6,0.5,0.6,0.9v10c0,0.4-0.3,0.8-0.6,0.9l-8,3C44.2,30,44.1,30,44,30z"/>
			</g>
		</g>
	</g>
</g>
</svg>
