<?xml version="1.0" encoding="UTF-8" standalone="no"?>
<svg
   xmlns:dc="http://purl.org/dc/elements/1.1/"
   xmlns:cc="http://creativecommons.org/ns#"
   xmlns:rdf="http://www.w3.org/1999/02/22-rdf-syntax-ns#"
   xmlns:svg="http://www.w3.org/2000/svg"
   xmlns="http://www.w3.org/2000/svg"
   xmlns:sodipodi="http://sodipodi.sourceforge.net/DTD/sodipodi-0.dtd"
   xmlns:inkscape="http://www.inkscape.org/namespaces/inkscape"
   id="Слой_1"
   data-name="Слой 1"
   viewBox="0 0 32 32"
   version="1.1"
   sodipodi:docname="icon_bitmap2component_32.svg"
   inkscape:version="1.0.1 (3bc2e813f5, 2020-09-07)"
   width="32"
   height="32"
   inkscape:export-filename="/Users/jeff/kicad_dev/kicad/bitmaps_png/png_48/icon_bitmap2component.png"
   inkscape:export-xdpi="96"
   inkscape:export-ydpi="96">
  <path
     class="cls-1"
     d="M 5.3333333,-0.0013 H 26.666666 A 5.3333333,5.3511479 0 0 1 32,5.3498479 V 26.75765 a 5.3333333,5.3511479 0 0 1 -5.333334,5.351148 H 5.3333333 A 5.3333333,5.3511479 0 0 1 0,26.75765 V 5.3502493 A 5.3333333,5.3511479 0 0 1 5.3333333,-0.0013 Z"
     id="path157661"
     style="stroke-width:1" />
  <sodipodi:namedview
     pagecolor="#ffffff"
     bordercolor="#666666"
     borderopacity="1"
     objecttolerance="10"
     gridtolerance="10"
     guidetolerance="10"
     inkscape:pageopacity="0"
     inkscape:pageshadow="2"
     inkscape:window-width="2847"
     inkscape:window-height="1534"
     id="namedview30"
     showgrid="true"
     inkscape:zoom="22.627417"
     inkscape:cx="17.959795"
     inkscape:cy="20.428367"
     inkscape:window-x="146"
     inkscape:window-y="501"
     inkscape:window-maximized="0"
     inkscape:document-rotation="0"
     inkscape:current-layer="Слой_1"
     inkscape:snap-global="false">
    <inkscape:grid
       type="xygrid"
       id="grid_kicad"
       spacingx="0.5"
       spacingy="0.5"
       color="#9999ff"
       opacity="0.13"
       empspacing="2" />
  </sodipodi:namedview>
  <metadata
     id="metadata43">
    <rdf:RDF>
      <cc:Work
         rdf:about="">
        <cc:license
           rdf:resource="http://creativecommons.org/licenses/by-sa/4.0/" />
        <dc:format>image/svg+xml</dc:format>
        <dc:type
           rdf:resource="http://purl.org/dc/dcmitype/StillImage" />
        <dc:title>icon_bitmap2component</dc:title>
      </cc:Work>
      <cc:License
         rdf:about="http://creativecommons.org/licenses/by-sa/4.0/">
        <cc:permits
           rdf:resource="http://creativecommons.org/ns#Reproduction" />
        <cc:permits
           rdf:resource="http://creativecommons.org/ns#Distribution" />
        <cc:requires
           rdf:resource="http://creativecommons.org/ns#Notice" />
        <cc:requires
           rdf:resource="http://creativecommons.org/ns#Attribution" />
        <cc:permits
           rdf:resource="http://creativecommons.org/ns#DerivativeWorks" />
        <cc:requires
           rdf:resource="http://creativecommons.org/ns#ShareAlike" />
      </cc:License>
    </rdf:RDF>
  </metadata>
  <defs
     id="defs157657">
    <style
       id="style157655">.cls-1{fill:#b9b9b9;}.cls-2{fill:#545454;}</style>
    <clipPath
       clipPathUnits="userSpaceOnUse"
       id="clipPath879">
      <path
         style="fill:none;stroke:#000000;stroke-width:0.999999px;stroke-linecap:butt;stroke-linejoin:miter;stroke-opacity:1"
         d="M 1.035897,14.594844 17.012646,-1.2720189 0.995494,-1.2495832 Z"
         id="path881" />
    </clipPath>
    <clipPath
       clipPathUnits="userSpaceOnUse"
       id="clipPath885">
      <path
         class="cls-1"
         d="M 8,-0.0013 H 39.999999 A 8,8.0267219 0 0 1 48,8.0254219 V 40.137125 a 8,8.0267219 0 0 1 -8.000001,8.026722 H 8 A 8,8.0267219 0 0 1 0,40.137125 V 8.026024 A 8,8.0267219 0 0 1 8,-0.0013 Z"
         id="path887"
         style="stroke-width:1" />
    </clipPath>
  </defs>
  <title
     id="title157659">icon_bitmap2component</title>
  <g
     id="g4595"
     transform="matrix(0.73535419,0,0,0.73535559,11.371245,13.520579)"
     style="stroke-width:1.35989">
    <g
       id="g964"
       transform="matrix(2.04,0,0,2.04,-24.120841,-16.101471)"
       style="stroke-width:0.666612">
      <path
         class="cls-2"
         d="M 5.6107041,17.382 10.447604,7.9879 a 1.0508,1.0508 0 0 1 1.749,-0.1825 l 4.9165,6.0372 a 1.0509,1.0509 0 0 0 1.5964,0.0388 l 1.32,-1.4693 a 1.0508,1.0508 0 0 1 1.6628,0.13 l 3.1145,4.7944 a 0.5253,0.5253 0 0 1 -0.4406,0.8115 H 6.0778041 a 0.5253,0.5253 0 0 1 -0.4671,-0.766 z"
         id="path4007"
         style="fill:#1a81c4;fill-opacity:1;stroke-width:0.666612"
         inkscape:connector-curvature="0" />
      <circle
         class="cls-2"
         cx="18.745304"
         cy="4.7492037"
         id="circle4009"
         style="fill:#1a81c4;fill-opacity:1;stroke-width:0.666612"
         r="2.6747999" />
    </g>
  </g>
  <g
     id="g983"
     transform="matrix(2,0,0,2.019111,-2,2.5692537)"
     style="stroke-width:0.497628"
     clip-path="url(#clipPath879)">
    <path
       inkscape:connector-curvature="0"
       style="fill:#545454;fill-opacity:1;stroke-width:0.497628"
       id="path4007-6"
       d="M 2.0009299,12.460595 5.6347925,5.3456691 A 0.78944423,0.79585747 0 0 1 6.9487798,5.2074468 l 3.6936642,4.5724694 a 0.78951937,0.7959332 0 0 0 1.199342,0.029388 L 12.833475,8.696482 a 0.78944423,0.79585747 0 0 1 1.249227,0.09846 l 2.33986,3.631194 a 0.39464699,0.397853 0 0 1 -0.331014,0.614616 H 2.3518524 A 0.39464699,0.397853 0 0 1 2.0009299,12.460595 Z"
       class="cls-2" />
    <ellipse
       style="fill:#545454;fill-opacity:1;stroke-width:0.497628"
       id="circle4009-7"
       cy="3.0736003"
       cx="11.82525"
       class="cls-2"
       rx="1.9669253"
       ry="1.9669291" />
    <path
       style="fill:none;stroke:#b9b9b9;stroke-width:0.995253;stroke-linecap:butt;stroke-linejoin:miter;stroke-miterlimit:4;stroke-dasharray:none;stroke-opacity:1"
       d="M 3,13.149416 V 1.1494353"
       id="path918"
       sodipodi:nodetypes="cc" />
    <path
       style="fill:none;stroke:#b9b9b9;stroke-width:0.995253;stroke-linecap:butt;stroke-linejoin:miter;stroke-miterlimit:4;stroke-dasharray:none;stroke-opacity:1"
       d="M 5,13.149416 V 1.1494353"
       id="path922"
       sodipodi:nodetypes="cc" />
    <path
       style="fill:none;stroke:#b9b9b9;stroke-width:0.995253;stroke-linecap:butt;stroke-linejoin:miter;stroke-miterlimit:4;stroke-dasharray:none;stroke-opacity:1"
       d="M 6.9999999,13.149416 V 1.1494353"
       id="path924"
       sodipodi:nodetypes="cc" />
    <path
       style="fill:none;stroke:#b9b9b9;stroke-width:0.995253;stroke-linecap:butt;stroke-linejoin:miter;stroke-miterlimit:4;stroke-dasharray:none;stroke-opacity:1"
       d="M 8.9999999,13.149416 V 1.1494353"
       id="path928"
       sodipodi:nodetypes="cc" />
    <path
       style="fill:none;stroke:#b9b9b9;stroke-width:0.995253;stroke-linecap:butt;stroke-linejoin:miter;stroke-miterlimit:4;stroke-dasharray:none;stroke-opacity:1"
       d="M 10.997627,13.337923 V 0.81610005"
       id="path930"
       sodipodi:nodetypes="cc" />
    <path
       style="fill:none;stroke:#b9b9b9;stroke-width:0.995253;stroke-linecap:butt;stroke-linejoin:miter;stroke-miterlimit:4;stroke-dasharray:none;stroke-opacity:1"
       d="M 12.997627,13.337923 V 0.81610005"
       id="path934"
       sodipodi:nodetypes="cc" />
    <path
       style="fill:none;stroke:#b9b9b9;stroke-width:0.995253;stroke-linecap:butt;stroke-linejoin:miter;stroke-miterlimit:4;stroke-dasharray:none;stroke-opacity:1"
       d="M 14.997627,13.572359 V 0.81610005"
       id="path936"
       sodipodi:nodetypes="cc" />
    <path
       style="fill:none;stroke:#b9b9b9;stroke-width:0.497628px;stroke-linecap:butt;stroke-linejoin:miter;stroke-opacity:1"
       d="M 15.333333,13.242296 H 3.3333333"
       id="path938" />
    <path
       style="fill:none;stroke:#b9b9b9;stroke-width:0.995253;stroke-linecap:butt;stroke-linejoin:miter;stroke-miterlimit:4;stroke-dasharray:none;stroke-opacity:1"
       d="M 16.294849,11.111578 H 2"
       id="path940"
       sodipodi:nodetypes="cc" />
    <path
       style="fill:none;stroke:#b9b9b9;stroke-width:0.995253;stroke-linecap:butt;stroke-linejoin:miter;stroke-miterlimit:4;stroke-dasharray:none;stroke-opacity:1"
       d="M 15,9.1305082 H 3"
       id="path942"
       sodipodi:nodetypes="cc" />
    <path
       style="fill:none;stroke:#b9b9b9;stroke-width:0.995253;stroke-linecap:butt;stroke-linejoin:miter;stroke-miterlimit:4;stroke-dasharray:none;stroke-opacity:1"
       d="M 15,7.1494352 H 3"
       id="path944"
       sodipodi:nodetypes="cc" />
    <path
       style="fill:none;stroke:#b9b9b9;stroke-width:0.995253;stroke-linecap:butt;stroke-linejoin:miter;stroke-miterlimit:4;stroke-dasharray:none;stroke-opacity:1"
       d="M 14.666667,5.1683684 H 2.6666666"
       id="path946"
       sodipodi:nodetypes="cc" />
    <path
       style="fill:none;stroke:#b9b9b9;stroke-width:0.995253;stroke-linecap:butt;stroke-linejoin:miter;stroke-miterlimit:4;stroke-dasharray:none;stroke-opacity:1"
       d="M 14.666667,3.1872985 H 2.6666666"
       id="path948"
       sodipodi:nodetypes="cc" />
    <path
       style="fill:none;stroke:#b9b9b9;stroke-width:0.995253;stroke-linecap:butt;stroke-linejoin:miter;stroke-miterlimit:4;stroke-dasharray:none;stroke-opacity:1"
       d="M 14.666667,1.2062286 H 2.6666666"
       id="path950" />
  </g>
  <path
     style="fill:none;stroke:#545454;stroke-width:2.25;stroke-linecap:round;stroke-linejoin:miter;stroke-miterlimit:4;stroke-dasharray:none;stroke-opacity:1"
     d="m 2.5,45.5 43,-43"
     id="path995"
     sodipodi:nodetypes="cc"
     clip-path="url(#clipPath885)"
     transform="matrix(0.66666666,0,0,0.66666666,0,-4.3333334e-4)" />
</svg>
