<?xml version="1.0" encoding="UTF-8" standalone="no"?>
<svg
   xmlns:dc="http://purl.org/dc/elements/1.1/"
   xmlns:cc="http://creativecommons.org/ns#"
   xmlns:rdf="http://www.w3.org/1999/02/22-rdf-syntax-ns#"
   xmlns:svg="http://www.w3.org/2000/svg"
   xmlns="http://www.w3.org/2000/svg"
   xmlns:sodipodi="http://sodipodi.sourceforge.net/DTD/sodipodi-0.dtd"
   xmlns:inkscape="http://www.inkscape.org/namespaces/inkscape"
   id="Слой_1"
   data-name="Слой 1"
   viewBox="0 0 24 24"
   version="1.1"
   sodipodi:docname="move_exactly.svg"
   inkscape:version="1.0.1 (c497b03c, 2020-09-10)">
  <sodipodi:namedview
     pagecolor="#ffffff"
     bordercolor="#666666"
     borderopacity="1"
     objecttolerance="10"
     gridtolerance="10"
     guidetolerance="10"
     inkscape:pageopacity="0"
     inkscape:pageshadow="2"
     inkscape:window-width="1280"
     inkscape:window-height="715"
     id="namedview30"
     showgrid="true"
     inkscape:zoom="22.257558"
     inkscape:cx="11.508893"
     inkscape:cy="13.468639"
     inkscape:window-x="0"
     inkscape:window-y="23"
     inkscape:window-maximized="0"
     inkscape:document-rotation="0"
     inkscape:current-layer="Слой_1">
    <inkscape:grid
       type="xygrid"
       id="grid_kicad"
       spacingx="0.5"
       spacingy="0.5"
       color="#9999ff"
       opacity="0.13"
       empspacing="2" />
  </sodipodi:namedview>
  <metadata
     id="metadata43">
    <rdf:RDF>
      <cc:Work
         rdf:about="">
        <cc:license
           rdf:resource="http://creativecommons.org/licenses/by-sa/4.0/" />
        <dc:format>image/svg+xml</dc:format>
        <dc:type
           rdf:resource="http://purl.org/dc/dcmitype/StillImage" />
        <dc:title>add_arc</dc:title>
      </cc:Work>
      <cc:License
         rdf:about="http://creativecommons.org/licenses/by-sa/4.0/">
        <cc:permits
           rdf:resource="http://creativecommons.org/ns#Reproduction" />
        <cc:permits
           rdf:resource="http://creativecommons.org/ns#Distribution" />
        <cc:requires
           rdf:resource="http://creativecommons.org/ns#Notice" />
        <cc:requires
           rdf:resource="http://creativecommons.org/ns#Attribution" />
        <cc:permits
           rdf:resource="http://creativecommons.org/ns#DerivativeWorks" />
        <cc:requires
           rdf:resource="http://creativecommons.org/ns#ShareAlike" />
      </cc:License>
    </rdf:RDF>
  </metadata>
  <defs
     id="defs25799">
    <style
       id="style25797">.cls-1{fill:none;stroke:#8f8f8f;stroke-miterlimit:10;}.cls-2{fill:#DED3DD;}.cls-3{fill:#f2647e;}</style>
  </defs>
  <title
     id="title25801">move_exactly</title>
  <line
     class="cls-1"
     x1="12"
     y1="17.8144"
     x2="12"
     y2="6.0826998"
     id="line25803" />
  <line
     class="cls-1"
     x1="6.1342001"
     y1="11.9486"
     x2="17.865801"
     y2="11.9486"
     id="line25805" />
  <circle
     class="cls-1"
     cx="12"
     cy="12"
     r="4"
     id="circle25815" />
  <circle
     class="cls-3"
     cx="12"
     cy="12"
     r="2.0675001"
     id="circle25825" />
  <path
     id="rect25847"
     style="fill:#DED3DD;stroke-width:0.999996"
     d="M 11.994141 0 L 7.2011719 5 L 9.9941406 5 L 9.9941406 6.8789062 A 5.5 5.5 0 0 1 12 6.5 A 5.5 5.5 0 0 1 13.994141 6.875 L 13.994141 5 L 16.787109 5 L 11.994141 0 z M 5 7.2070312 L 0 12 L 5 16.792969 L 5 14 L 6.8769531 14 A 5.5 5.5 0 0 1 6.5 12 A 5.5 5.5 0 0 1 6.8769531 10 L 5 10 L 5 7.2070312 z M 18.994141 7.2070312 L 18.994141 10 L 17.123047 10 A 5.5 5.5 0 0 1 17.5 12 A 5.5 5.5 0 0 1 17.123047 14 L 18.994141 14 L 18.994141 16.792969 L 23.994141 12 L 18.994141 7.2070312 z M 9.9941406 17.121094 L 9.9941406 19 L 7.2011719 19 L 11.994141 24 L 16.787109 19 L 13.994141 19 L 13.994141 17.125 A 5.5 5.5 0 0 1 12 17.5 A 5.5 5.5 0 0 1 9.9941406 17.121094 z " />
</svg>
