<?xml version="1.0" encoding="UTF-8" standalone="no"?>
<svg
   xmlns:dc="http://purl.org/dc/elements/1.1/"
   xmlns:cc="http://creativecommons.org/ns#"
   xmlns:rdf="http://www.w3.org/1999/02/22-rdf-syntax-ns#"
   xmlns:svg="http://www.w3.org/2000/svg"
   xmlns="http://www.w3.org/2000/svg"
   xmlns:sodipodi="http://sodipodi.sourceforge.net/DTD/sodipodi-0.dtd"
   xmlns:inkscape="http://www.inkscape.org/namespaces/inkscape"
   id="Слой_1"
   data-name="Слой 1"
   viewBox="0 0 24 24"
   version="1.1"
   sodipodi:docname="options_board.svg"
   inkscape:version="1.0.1 (c497b03c, 2020-09-10)"
   inkscape:export-filename="/Users/jeff/kicad_dev/kicad/bitmaps_png/png_26/options_board.png"
   inkscape:export-xdpi="96"
   inkscape:export-ydpi="96">
  <sodipodi:namedview
     pagecolor="#ffffff"
     bordercolor="#666666"
     borderopacity="1"
     objecttolerance="10"
     gridtolerance="10"
     guidetolerance="10"
     inkscape:pageopacity="0"
     inkscape:pageshadow="2"
     inkscape:window-width="1433"
     inkscape:window-height="715"
     id="namedview30"
     showgrid="true"
     inkscape:zoom="13.642859"
     inkscape:cx="18.648203"
     inkscape:cy="10.806852"
     inkscape:window-x="127"
     inkscape:window-y="1103"
     inkscape:window-maximized="0"
     inkscape:document-rotation="0"
     inkscape:current-layer="Слой_1"
     inkscape:snap-nodes="false">
    <inkscape:grid
       type="xygrid"
       id="grid_kicad"
       spacingx="0.5"
       spacingy="0.5"
       color="#9999ff"
       opacity="0.13"
       empspacing="2" />
  </sodipodi:namedview>
  <metadata
     id="metadata43">
    <rdf:RDF>
      <cc:Work
         rdf:about="">
        <cc:license
           rdf:resource="http://creativecommons.org/licenses/by-sa/4.0/" />
        <dc:format>image/svg+xml</dc:format>
        <dc:type
           rdf:resource="http://purl.org/dc/dcmitype/StillImage" />
        <dc:title>add_arc</dc:title>
      </cc:Work>
      <cc:License
         rdf:about="http://creativecommons.org/licenses/by-sa/4.0/">
        <cc:permits
           rdf:resource="http://creativecommons.org/ns#Reproduction" />
        <cc:permits
           rdf:resource="http://creativecommons.org/ns#Distribution" />
        <cc:requires
           rdf:resource="http://creativecommons.org/ns#Notice" />
        <cc:requires
           rdf:resource="http://creativecommons.org/ns#Attribution" />
        <cc:permits
           rdf:resource="http://creativecommons.org/ns#DerivativeWorks" />
        <cc:requires
           rdf:resource="http://creativecommons.org/ns#ShareAlike" />
      </cc:License>
    </rdf:RDF>
  </metadata>
  <defs
     id="defs158547">
    <style
       id="style158545">.cls-1{fill:#8f8f8f;}.cls-2{fill:#DED3DD;}.cls-3{fill:none;stroke:#8f8f8f;stroke-miterlimit:10;stroke-width:0.9553px;}.cls-4{fill:#42B8EB;}.cls-5{fill:#fff;}.cls-6{fill:#f2647e;}</style>
    <clipPath
       clipPathUnits="userSpaceOnUse"
       id="clipPath954">
      <rect
         style="fill:#f29100;fill-opacity:1;stroke:none;stroke-width:2;stroke-linecap:round;stroke-linejoin:round;stroke-miterlimit:4;stroke-dasharray:none"
         id="rect956"
         width="21"
         height="21"
         x="-33"
         y="-2"
         ry="3.4854646" />
    </clipPath>
  </defs>
  <title
     id="title158549">options_board</title>
  <g
     id="g952"
     clip-path="url(#clipPath954)"
     transform="matrix(1.047619,0,0,1.047619,35.571429,3.0952381)"
     style="stroke-width:0.954545">
    <rect
       class="cls-1"
       x="1.4020385e-07"
       y="0"
       width="24"
       height="24"
       rx="0"
       id="rect9"
       style="fill:#489648;fill-opacity:1;stroke:none;stroke-width:0.545453;stroke-opacity:1"
       clip-path="none"
       transform="matrix(0.875,0,0,0.875,-33,-2)" />
    <path
       class="cls-2"
       d="m 9.7142857,24 v -1.714286 l 4.0000003,-4 V 12.571429 L 14.285714,12 h 4 l 2.285715,1.714286 H 24 V 4.5714286 H 20.571429 L 18.285714,6.2857143 H 16.571429 L 14.5,4 V 0 C 9.9949374,-0.001605 2.029505,0.001245 -0.0020687,0.001285 0,3.25 0,24 0,24 c 1.5,-0.02777 4.0236148,0 9.7142857,0 z"
       id="path11"
       sodipodi:nodetypes="ccccccccccccccccc"
       style="fill:#006400;fill-opacity:1;stroke-width:0.545453"
       clip-path="none"
       transform="matrix(0.875,0,0,0.875,-33,-2)"
       inkscape:connector-curvature="0" />
    <path
       style="fill:none;stroke:#489648;stroke-width:2.18182;stroke-linecap:butt;stroke-linejoin:miter;stroke-miterlimit:4;stroke-dasharray:none;stroke-opacity:1"
       d="M 20.571429,9.1428571 H 14.857143 L 11.428571,5.7142857 v -6.8571428"
       id="path2253"
       sodipodi:nodetypes="cccc"
       clip-path="none"
       transform="matrix(0.875,0,0,0.875,-33,-2)"
       inkscape:connector-curvature="0" />
    <path
       style="fill:none;stroke:#489648;stroke-width:3.08556;stroke-linecap:butt;stroke-linejoin:miter;stroke-miterlimit:4;stroke-dasharray:none;stroke-opacity:1"
       d="M 0,14.5 H 2"
       id="path892"
       sodipodi:nodetypes="cc"
       clip-path="none"
       transform="matrix(2.1875,0,0,0.875,-33,-2.0750619)"
       inkscape:connector-curvature="0" />
    <path
       style="fill:none;stroke:#489648;stroke-width:2.72727;stroke-linecap:butt;stroke-linejoin:miter;stroke-miterlimit:4;stroke-dasharray:none;stroke-opacity:1"
       d="M 5.2135977,25.142857 V 21.714286 L 9.7850263,17.142857 V 11.428571 L 5.2135977,6.8571429 v -7.42857147"
       id="path2265"
       sodipodi:nodetypes="cccccc"
       clip-path="none"
       transform="matrix(0.875,0,0,0.875,-32.561898,-2)"
       inkscape:connector-curvature="0" />
    <rect
       style="fill:#f29100;fill-opacity:1;stroke:none;stroke-width:1.46361;stroke-linecap:round;stroke-linejoin:round"
       id="rect884"
       width="4"
       height="3"
       x="18"
       y="21"
       rx="0.91980052"
       ry="0.91980052"
       clip-path="none"
       transform="matrix(0.875,0,0,0.875,-33,-1.25)" />
    <path
       style="fill:none;stroke:#2cb22c;stroke-width:1.0909;stroke-linecap:butt;stroke-linejoin:miter;stroke-miterlimit:4;stroke-dasharray:none;stroke-opacity:1"
       d="M 18,16.5 H 16"
       id="path886"
       sodipodi:nodetypes="cc"
       clip-path="none"
       transform="matrix(0.875,0,0,0.875,-33,-1.25)"
       inkscape:connector-curvature="0" />
    <path
       style="fill:none;stroke:#2cb22c;stroke-width:1.0909;stroke-linecap:butt;stroke-linejoin:miter;stroke-miterlimit:4;stroke-dasharray:none;stroke-opacity:1"
       d="M 24,16.5 H 22"
       id="path888"
       sodipodi:nodetypes="cc"
       clip-path="none"
       transform="matrix(0.875,0,0,0.875,-33,-1.25)"
       inkscape:connector-curvature="0" />
    <path
       style="fill:none;stroke:#2cb22c;stroke-width:2.18182;stroke-linecap:butt;stroke-linejoin:miter;stroke-miterlimit:4;stroke-dasharray:none;stroke-opacity:1"
       d="m 20,14 v 1"
       id="path890"
       sodipodi:nodetypes="cc"
       clip-path="none"
       transform="matrix(0.875,0,0,0.875,-33,-1.25)"
       inkscape:connector-curvature="0" />
    <circle
       style="fill:#ffffff;fill-opacity:1;stroke:#ce8a24;stroke-width:0.954545;stroke-linecap:round;stroke-linejoin:round;stroke-miterlimit:4;stroke-dasharray:none;stroke-opacity:1"
       id="path936"
       cx="-29.296165"
       cy="10.615973"
       r="1.6027977"
       clip-path="none" />
    <circle
       style="fill:#ffffff;fill-opacity:1;stroke:#ce8a24;stroke-width:0.954545;stroke-linecap:round;stroke-linejoin:round;stroke-miterlimit:4;stroke-dasharray:none;stroke-opacity:1"
       id="circle938"
       cx="-14.137123"
       cy="5.9967451"
       r="1.6027977"
       clip-path="none" />
  </g>
  <path
     class="cls-9"
     d="m 23.232353,18.0741 -1.2674,-0.907 -0.015,0.027 c 0.03833,-0.2274 0.06148,-0.4572 0.0693,-0.6877 -0.0073,-0.2452 -0.03199,-0.4896 -0.0738,-0.7314 l 0.0074,0.013 1.2576,-0.92 c 0.275446,-0.2018 0.355047,-0.5785 0.1848,-0.8745 l -1.1327,-1.9683 c -0.170254,-0.296 -0.535927,-0.4167 -0.8489,-0.28 l -1.4277,0.6248 0.0124,0.022 c -0.387558,-0.3119 -0.817708,-0.5668 -1.2774,-0.757 l -0.1694,-1.5386 C 18.514053,9.7571 18.227369,9.5002 17.885953,9.5 h -2.271 c -0.341492,10e-5 -0.628287,0.257 -0.6658,0.5964 l -0.17,1.5453 c -0.477874,0.201 -0.923129,0.4721 -1.3211,0.8044 l 0.018,-0.032 -1.4342,-0.61 c -0.31434,-0.1335 -0.678759,-0.01 -0.846,0.2886 l -1.1118,1.98 c -0.167055,0.2979 -0.08336,0.6737 0.1943,0.8725 l 1.2674,0.907 0.0276,-0.049 c -0.03953,0.2327 -0.06322,0.4678 -0.0709,0.7037 0.0069,0.2554 0.03249,0.51 0.0767,0.7616 l -0.021,-0.037 -1.2576,0.9205 c -0.275495,0.2017 -0.355223,0.5783 -0.1851,0.8744 l 1.1327,1.9684 c 0.170418,0.2959 0.536051,0.4162 0.8489,0.2795 l 1.4279,-0.6249 -0.0293,-0.051 c 0.391248,0.32 0.826895,0.5814 1.2933,0.7762 l 0.17,1.5487 c 0.03751,0.3393 0.324184,0.5962 0.6656,0.5964 h 2.271 c 0.341416,-2e-4 0.628095,-0.2571 0.6656,-0.5964 l 0.1705,-1.5484 c 0.47629,-0.1988 0.920456,-0.4672 1.318,-0.7963 l -0.0154,0.027 1.4344,0.61 c 0.314288,0.1334 0.678633,0.01 0.8459,-0.2885 l 1.1117,-1.98 c 0.167077,-0.2977 0.08356,-0.6735 -0.1939,-0.8724 z m -6.4714,0.4685 c -1.656272,0 -2.371671,-2.145 -1.410892,-3.2684 1.001032,-1.1704 3.291346,-0.4321 3.327109,1.1884 0.107235,0.9522 -0.534865,2.0799 -1.916217,2.08 z"
     id="path158639"
     style="fill:#f2647e;stroke:#ffffff;stroke-width:1;stroke-linecap:round;stroke-linejoin:round;stroke-miterlimit:2.3;stroke-dasharray:none;stroke-opacity:1"
     inkscape:connector-curvature="0"
     sodipodi:nodetypes="ccccccccccccccccccccccccccccccccccccccccccccccccscc" />
</svg>
