<?xml version="1.0" encoding="UTF-8" standalone="no"?>
<svg xmlns:dc="http://purl.org/dc/elements/1.1/"
   xmlns:cc="http://creativecommons.org/ns#"
   xmlns:rdf="http://www.w3.org/1999/02/22-rdf-syntax-ns#"
   xmlns:svg="http://www.w3.org/2000/svg"
   xmlns="http://www.w3.org/2000/svg"
   xmlns:xlink="http://www.w3.org/1999/xlink"
   xmlns:sodipodi="http://sodipodi.sourceforge.net/DTD/sodipodi-0.dtd"
   xmlns:inkscape="http://www.inkscape.org/namespaces/inkscape" inkscape:export-ydpi="553.84998" inkscape:export-xdpi="553.84998" inkscape:export-filename="/home/seth/code/kicad/kicad_bare/bitmaps_png/sources/pads_reset_unused.png" height="26" width="26" version="1.1" id="svg2" inkscape:version="1.0 (4035a4fb49, 2020-05-01)" sodipodi:docname="pads_reset_unused.svg">
   <metadata id="metadata40">
      <rdf:RDF>
         <cc:Work rdf:about="">
            <dc:format>image/svg+xml</dc:format>
            <dc:type rdf:resource="http://purl.org/dc/dcmitype/StillImage" />
            <dc:title />
            <cc:license rdf:resource="http://creativecommons.org/licenses/by-sa/4.0/" />
         </cc:Work>
         <cc:License rdf:about="http://creativecommons.org/licenses/by-sa/4.0/">
            <cc:permits rdf:resource="http://creativecommons.org/ns#Reproduction" />
            <cc:permits rdf:resource="http://creativecommons.org/ns#Distribution" />
            <cc:requires rdf:resource="http://creativecommons.org/ns#Notice" />
            <cc:requires rdf:resource="http://creativecommons.org/ns#Attribution" />
            <cc:permits rdf:resource="http://creativecommons.org/ns#DerivativeWorks" />
            <cc:requires rdf:resource="http://creativecommons.org/ns#ShareAlike" />
         </cc:License>
      </rdf:RDF>
   </metadata>
   <sodipodi:namedview pagecolor="#111111" bordercolor="#666666" borderopacity="1" objecttolerance="10" gridtolerance="10" guidetolerance="10" inkscape:pageopacity="0" inkscape:pageshadow="2" inkscape:window-width="3840" inkscape:window-height="2099" id="namedview38" showgrid="true" inkscape:snap-to-guides="false" inkscape:snap-grids="true" inkscape:zoom="45.254834" inkscape:cx="4.4344284" inkscape:cy="16.611474" inkscape:window-x="0" inkscape:window-y="37" inkscape:window-maximized="1" inkscape:current-layer="layer3" inkscape:snap-nodes="true" inkscape:document-rotation="0" showguides="true" inkscape:guide-bbox="true">
      <inkscape:grid type="xygrid" id="grid3017" empspacing="2" visible="true" enabled="true" snapvisiblegridlinesonly="true" spacingx="0.5" spacingy="0.5" originx="0" originy="0" />
      <sodipodi:guide position="8.9926755,14.201282" orientation="1,0" id="guide28127" />
      <sodipodi:guide position="16.882174,14.796777" orientation="1,0" id="guide28129" />
   </sodipodi:namedview>
   <defs id="defs4">
      <linearGradient x1="14.463" y1="12.285" gradientTransform="matrix(1.2419,0,0,1.2419,36.866,-2.4533)" x2="34.534" gradientUnits="userSpaceOnUse" y2="39.685001" id="linearGradient3791">
         <stop id="stop3793" offset="0" stop-color="#c9c9c9" />
         <stop id="stop3795" offset="0.40114263" stop-color="#f8f8f8" />
         <stop id="stop3797" offset="0.72174245" stop-color="#e2e2e2" />
         <stop id="stop3799" offset="0.99654227" stop-color="#b0b0b0" />
         <stop id="stop3801" offset="1" stop-color="#c9c9c9" />
      </linearGradient>
      <filter id="c" height="1.3651" width="1.2097" color-interpolation-filters="sRGB" y="-0.18257" x="-0.10484">
         <feGaussianBlur stdDeviation="1.5978799" id="feGaussianBlur7" />
      </filter>
      <filter id="d" height="1.4696" width="1.4809999" color-interpolation-filters="sRGB" y="-0.23481999" x="-0.24049">
         <feGaussianBlur stdDeviation="1.5978799" id="feGaussianBlur10" />
      </filter>
      <linearGradient inkscape:collect="always" xlink:href="#ad" id="linearGradient3095" gradientUnits="userSpaceOnUse" gradientTransform="matrix(0.41988578,0,0,0.39843199,7.8528064,8.6668249)" x1="14.463" y1="12.285" x2="34.534" y2="39.685001" />
      <linearGradient id="ad" y2="39.685001" gradientUnits="userSpaceOnUse" x2="34.534" gradientTransform="matrix(1.2419,0,0,1.2419,36.866,-2.4533)" y1="12.285" x1="14.463">
         <stop stop-color="#c9c9c9" offset="0" id="stop34" />
         <stop stop-color="#f8f8f8" offset=".25" id="stop36" />
         <stop stop-color="#e2e2e2" offset=".5" id="stop38" />
         <stop stop-color="#b0b0b0" offset=".75" id="stop40" />
         <stop stop-color="#c9c9c9" offset="1" id="stop42" />
      </linearGradient>
      <linearGradient y2="39.685001" x2="34.534" y1="12.285" x1="14.463" gradientTransform="matrix(0.41988578,0,0,0.39843199,7.3514374,8.725974)" gradientUnits="userSpaceOnUse" id="linearGradient3056" xlink:href="#linearGradient3791" inkscape:collect="always" />
      <linearGradient inkscape:collect="always" xlink:href="#linearGradient4067" id="linearGradient4065" gradientUnits="userSpaceOnUse" gradientTransform="matrix(0.41988577,0,0,0.39843198,8.071322,8.7437063)" x1="8.6861582" y1="9.6206512" x2="37.265358" y2="35.973965" />
      <linearGradient id="linearGradient4067" y2="39.685001" gradientUnits="userSpaceOnUse" x2="34.534" gradientTransform="matrix(1.2419,0,0,1.2419,36.866,-2.4533)" y1="12.285" x1="14.463">
         <stop stop-color="#c9c9c9" offset="0" id="stop4069" />
         <stop stop-color="#f8f8f8" offset="0.44999999" id="stop4071" />
         <stop stop-color="#e2e2e2" offset="0.66666645" id="stop4073" />
         <stop stop-color="#b0b0b0" offset="0.95000005" id="stop4075" />
         <stop stop-color="#c9c9c9" offset="1" id="stop4077" />
      </linearGradient>
      <linearGradient inkscape:collect="always" xlink:href="#linearGradient4067" id="linearGradient4083" gradientUnits="userSpaceOnUse" gradientTransform="matrix(-0.97986422,0,0,-0.90274951,37.705175,18.229565)" x1="8.6861582" y1="9.6206512" x2="37.265358" y2="35.973965" />
      <linearGradient id="linearGradient3830" y2="39.685001" gradientUnits="userSpaceOnUse" x2="34.534" gradientTransform="matrix(1.2419,0,0,1.2419,36.866,-2.4533)" y1="12.285" x1="14.463">
         <stop stop-color="#c9c9c9" offset="0" id="stop3832" />
         <stop stop-color="#f8f8f8" offset="0.44999999" id="stop3834" />
         <stop stop-color="#e2e2e2" offset="0.66666645" id="stop3836" />
         <stop stop-color="#b0b0b0" offset="0.95000005" id="stop3838" />
         <stop stop-color="#c9c9c9" offset="1" id="stop3840" />
      </linearGradient>
      <linearGradient y2="35.973965" x2="37.265358" y1="9.6206512" x1="8.6861582" gradientTransform="matrix(0.41988577,0,0,0.39843198,8.071322,8.7437063)" gradientUnits="userSpaceOnUse" id="linearGradient3844" xlink:href="#linearGradient4067" inkscape:collect="always" />
   </defs>
   <g inkscape:groupmode="layer" id="layer2" inkscape:label="BottomPad" style="display:inline">
      <path id="path28015" style="display:inline;fill:#008000;fill-opacity:1;stroke:#008000;stroke-width:0.999998;stroke-linecap:round;stroke-linejoin:round;stroke-miterlimit:4;stroke-dasharray:none;stroke-dashoffset:0;stroke-opacity:1" d="m 12.957202,22.499999 c 0.696265,0 1.279702,0.173238 1.277922,0.320021 -0.0025,0.209007 -0.541688,0.345838 -1.277922,0.345838 -0.675779,0 -1.194806,-0.207532 -1.194806,-0.345838 0,-0.09975 0.519027,-0.320021 1.194806,-0.320021 z m 0.04091,-0.861955 c -2.54827,0 -4.6140603,0.529189 -4.6140603,1.181976 0,0.652788 2.0657903,1.181977 4.6140603,1.181977 2.54828,0 4.61407,-0.529189 4.61407,-1.181977 0,-0.652787 -2.06579,-1.181976 -4.61407,-1.181976 z" />
   </g>
   <g transform="matrix(1.6382539,0,0,1.5572263,1.3665954,0.36314149)" id="g16">
      <rect height="16" width="16" y="0" x="0" id="rect18" style="fill-opacity:0" />
   </g>
   <g inkscape:groupmode="layer" id="layer6" inkscape:label="Conn1" style="display:inline">
      <path d="m 13.9961,18.831948 -2,0.002 0.0039,4.3125 c 0.328426,0.128812 0.678956,0.116149 1.020542,0.130639 0.347149,0.01473 0.671362,-0.02756 0.979458,-0.130639 z" style="display:inline;fill:#008000;fill-opacity:1;stroke:#111111;stroke-width:0.25;stroke-linecap:round;stroke-linejoin:round;stroke-miterlimit:4;stroke-dasharray:none;stroke-opacity:1" id="path28011-2-1-7" sodipodi:nodetypes="cccscc" />
   </g>
   <g inkscape:groupmode="layer" id="layer5" inkscape:label="Pad1">
      <path style="display:inline;fill:#008000;fill-opacity:1;stroke:#008000;stroke-width:1;stroke-linecap:round;stroke-linejoin:round;stroke-miterlimit:4;stroke-dasharray:none;stroke-opacity:1" d="m 12.998117,19 c 2.546856,0 4.611492,-0.528893 4.611492,-1.181316 0,-0.652423 -2.064636,-1.181316 -4.611492,-1.181316 -2.546853,0 -4.6114892,0.528893 -4.6114892,1.181316 C 8.3866278,18.471107 10.451264,19 12.998117,19 Z m 0,-0.861474 c -0.695877,0 -1.278988,-0.17314 -1.277209,-0.319842 0.0025,-0.208889 0.541386,-0.345644 1.277209,-0.345644 0.6754,0 1.194138,0.207415 1.194138,0.345644 0,0.09969 -0.518738,0.319842 -1.194138,0.319842 z" id="path28011-5" inkscape:connector-curvature="0" sodipodi:nodetypes="ssssssssss" />
      <path style="display:inline;fill:none;stroke:#008000;stroke-width:2;stroke-linecap:round;stroke-linejoin:miter;stroke-miterlimit:4;stroke-dasharray:none;stroke-opacity:1" d="M 1,17.828104 H 13.609368" id="path2990-6" inkscape:connector-curvature="0" sodipodi:nodetypes="cc" />
   </g>
   <g inkscape:groupmode="layer" id="layer7" inkscape:label="Conn2">
      <path sodipodi:nodetypes="cccscc" id="path28011-2-1-7-0" style="display:inline;fill:#008000;fill-opacity:1;stroke:#111111;stroke-width:0.25;stroke-linecap:round;stroke-linejoin:round;stroke-miterlimit:4;stroke-dasharray:none;stroke-opacity:1" d="m 13.9961,13.782119 -2,0.002 0.0039,4.3125 c 0.328426,0.128812 0.678956,0.116149 1.020542,0.130639 0.347149,0.01473 0.671362,-0.02756 0.979458,-0.130639 z" />
   </g>
   <g inkscape:groupmode="layer" id="layer4" inkscape:label="Pad2">
      <path style="display:inline;fill:#008000;fill-opacity:1;stroke:#008000;stroke-width:1;stroke-linecap:round;stroke-linejoin:round;stroke-miterlimit:4;stroke-dasharray:none;stroke-opacity:1" d="m 12.998116,11.650933 c -2.510174,0 -4.545076,0.521276 -4.545076,1.164303 0,0.643027 2.034902,1.164303 4.545076,1.164303 2.510178,0 4.54508,-0.521276 4.54508,-1.164303 0,-0.643027 -2.034902,-1.164303 -4.54508,-1.164303 z m 0,0.849067 c 0.685855,0 1.260568,0.170647 1.258814,0.315236 -0.0025,0.205881 -0.533588,0.340666 -1.258814,0.340666 -0.665674,0 -1.176941,-0.204428 -1.176941,-0.340666 0,-0.09826 0.511267,-0.315236 1.176941,-0.315236 z" id="path28011-2" inkscape:connector-curvature="0" sodipodi:nodetypes="ssssssssss" />
   </g>
   <g inkscape:groupmode="layer" id="layer8" inkscape:label="Conn3">
      <path sodipodi:nodetypes="cccscc" id="path28011-2-1-7-9" style="display:inline;fill:#008000;fill-opacity:1;stroke:#111111;stroke-width:0.25;stroke-linecap:round;stroke-linejoin:round;stroke-miterlimit:4;stroke-dasharray:none;stroke-opacity:1" d="m 13.9961,8.6855004 -2,0.002 L 12,13 c 0.328426,0.128812 0.678956,0.116149 1.020542,0.130639 C 13.367691,13.145369 13.691904,13.103079 14,13 Z" />
   </g>
   <g inkscape:groupmode="layer" id="layer3" inkscape:label="Pad3" style="display:inline">
      <path style="display:inline;fill:#008000;fill-opacity:1;stroke:#008000;stroke-width:0.999998;stroke-linecap:round;stroke-linejoin:round;stroke-miterlimit:4;stroke-dasharray:none;stroke-opacity:1" d="m 12.998117,6.6594104 c -2.485111,0 -4.4996959,0.5160712 -4.4996959,1.1526781 0,0.6366069 2.0145839,1.1526792 4.4996959,1.1526792 2.485114,0 4.499698,-0.5160723 4.499698,-1.1526792 0,-0.6366069 -2.014584,-1.1526781 -4.499698,-1.1526781 z m 0,0.8405896 c 0.679007,0 1.247982,0.1689432 1.246245,0.3120885 -0.0025,0.2038254 -0.528261,0.3372646 -1.246245,0.3372646 -0.659028,0 -1.16519,-0.2023871 -1.16519,-0.3372646 C 11.832927,7.7148135 12.339089,7.5 12.998117,7.5 Z" id="path28011-9" inkscape:connector-curvature="0" sodipodi:nodetypes="ssssssssss" />
   </g>
   <g inkscape:groupmode="layer" id="layer9" inkscape:label="Conn4">
      <path sodipodi:nodetypes="cccscc" id="path28011-2-1-7-3" style="display:inline;fill:#008000;fill-opacity:1;stroke:#111111;stroke-width:0.25;stroke-linecap:round;stroke-linejoin:round;stroke-miterlimit:4;stroke-dasharray:none;stroke-opacity:1" d="m 13.9961,3.6855 -2,0.002 L 12,8 c 0.328426,0.128812 0.678956,0.116149 1.020542,0.130639 C 13.367691,8.145369 13.691904,8.103079 14,8 Z" />
   </g>
   <g inkscape:groupmode="layer" id="layer1" inkscape:label="TopPad" style="display:inline">
      <path sodipodi:nodetypes="ssssssssss" inkscape:connector-curvature="0" id="path28011" d="m 12.998117,1.6581699 c -2.488778,0 -4.5063356,0.5168328 -4.5063356,1.1543791 0,0.6375463 2.0175566,1.154379 4.5063356,1.154379 2.488781,0 4.506338,-0.5168327 4.506338,-1.154379 0,-0.6375463 -2.017557,-1.1543791 -4.506338,-1.1543791 z m 0,0.8418301 c 0.680009,0 1.249823,0.1691924 1.248084,0.312549 -0.0025,0.2041261 -0.52904,0.3377622 -1.248084,0.3377622 -0.66,0 -1.166909,-0.2026857 -1.166909,-0.3377622 C 11.831208,2.71513 12.338117,2.5 12.998117,2.5 Z" style="display:inline;fill:#008000;fill-opacity:1;stroke:#008000;stroke-width:1;stroke-linecap:round;stroke-linejoin:round;stroke-miterlimit:4;stroke-dasharray:none;stroke-opacity:1" />
      <path sodipodi:nodetypes="cc" inkscape:connector-curvature="0" id="path2990" d="M 25.109369,2.8517413 H 12.609368" style="display:inline;fill:none;stroke:#008000;stroke-width:2;stroke-linecap:round;stroke-linejoin:miter;stroke-miterlimit:4;stroke-dasharray:none;stroke-opacity:1" />
   </g>
</svg>
