<?xml version="1.0" encoding="UTF-8" standalone="no"?>
<svg xmlns:dc="http://purl.org/dc/elements/1.1/"
   xmlns:cc="http://creativecommons.org/ns#"
   xmlns:rdf="http://www.w3.org/1999/02/22-rdf-syntax-ns#"
   xmlns:svg="http://www.w3.org/2000/svg"
   xmlns="http://www.w3.org/2000/svg"
   xmlns:sodipodi="http://sodipodi.sourceforge.net/DTD/sodipodi-0.dtd"
   xmlns:inkscape="http://www.inkscape.org/namespaces/inkscape" id="Слой_1" data-name="Слой 1" viewBox="0 0 24 24" version="1.1" sodipodi:docname="pintype_notspecif.svg" inkscape:version="1.0.1 (3bc2e813f5, 2020-09-07)">
   <sodipodi:namedview pagecolor="#ffffff" bordercolor="#666666" borderopacity="1" objecttolerance="10" gridtolerance="10" guidetolerance="10" inkscape:pageopacity="0" inkscape:pageshadow="2" inkscape:window-width="1609" inkscape:window-height="1286" id="namedview30" showgrid="true" inkscape:zoom="27.961538" inkscape:cx="3.3259971" inkscape:cy="13" inkscape:window-x="0" inkscape:window-y="37" inkscape:window-maximized="0" inkscape:document-rotation="0" inkscape:current-layer="Слой_1">
      <inkscape:grid type="xygrid" id="grid_kicad" spacingx="0.5" spacingy="0.5" color="#9999ff" opacity="0.13" empspacing="2" />
   </sodipodi:namedview>
   <metadata id="metadata43">
      <rdf:RDF>
         <cc:Work rdf:about="">
            <cc:license rdf:resource="http://creativecommons.org/licenses/by-sa/4.0/" />
            <dc:format>image/svg+xml</dc:format>
            <dc:type rdf:resource="http://purl.org/dc/dcmitype/StillImage" />
            <dc:title>add_arc</dc:title>
         </cc:Work>
         <cc:License rdf:about="http://creativecommons.org/licenses/by-sa/4.0/">
            <cc:permits rdf:resource="http://creativecommons.org/ns#Reproduction" />
            <cc:permits rdf:resource="http://creativecommons.org/ns#Distribution" />
            <cc:requires rdf:resource="http://creativecommons.org/ns#Notice" />
            <cc:requires rdf:resource="http://creativecommons.org/ns#Attribution" />
            <cc:permits rdf:resource="http://creativecommons.org/ns#DerivativeWorks" />
            <cc:requires rdf:resource="http://creativecommons.org/ns#ShareAlike" />
         </cc:License>
      </rdf:RDF>
   </metadata>
   <defs id="defs26383">
      <style id="style26381">.cls-1{fill:#DED3DD;}.cls-2{fill:#f2647e;}.cls-3{fill:#fff;}</style>
   </defs>
   <title id="title26385">pintype_notspecif</title>
   <path class="cls-1" d="M 22,6.9966 H 2 a 1,1 0 0 1 0,-2 h 20 a 1,1 0 0 1 0,2 z" id="path26387" />
   <path class="cls-2" d="m 24.0065,12.0034 a 7.0065,7.0065 0 1 1 -7.0066,-7 7.0032,7.0032 0 0 1 7.0066,7 z" id="path26389" />
   <path class="cls-3" d="m 15.9332,14.1216 a 3.4488,3.4488 0 0 1 0.2364,-1.4659 4.2208,4.2208 0 0 1 1.0156,-1.1084 6.5544,6.5544 0 0 0 0.8867,-1.0429 A 1.96,1.96 0 0 0 18.401,9.4038 1.4789,1.4789 0 0 0 18.025,8.3247 1.427,1.427 0 0 0 16.9557,7.9409 1.5777,1.5777 0 0 0 15.9479,8.2671 1.1511,1.1511 0 0 0 15.5329,9.2319 H 13.859 l -0.0215,-0.043 a 2.37,2.37 0 0 1 0.8545,-1.99 3.4705,3.4705 0 0 1 2.2637,-0.7129 3.346,3.346 0 0 1 2.3428,0.7666 2.7414,2.7414 0 0 1 0.84,2.13 2.9558,2.9558 0 0 1 -0.5254,1.6885 6.51,6.51 0 0 1 -1.3271,1.4228 1.6386,1.6386 0 0 0 -0.5108,0.6817 3.2688,3.2688 0 0 0 -0.1035,0.9463 z M 17.7,17.0757 H 15.9264 V 15.4048 H 17.7 Z" id="path26391" />
</svg>
