<?xml version="1.0" encoding="UTF-8" standalone="no"?>
<svg
   xmlns:dc="http://purl.org/dc/elements/1.1/"
   xmlns:cc="http://creativecommons.org/ns#"
   xmlns:rdf="http://www.w3.org/1999/02/22-rdf-syntax-ns#"
   xmlns:svg="http://www.w3.org/2000/svg"
   xmlns="http://www.w3.org/2000/svg"
   xmlns:sodipodi="http://sodipodi.sourceforge.net/DTD/sodipodi-0.dtd"
   xmlns:inkscape="http://www.inkscape.org/namespaces/inkscape"
   id="Слой_1"
   data-name="Слой 1"
   viewBox="0 0 24 24"
   version="1.1"
   sodipodi:docname="push_pad_settings.svg"
   inkscape:version="1.0.1 (c497b03c, 2020-09-10)">
  <sodipodi:namedview
     pagecolor="#ffffff"
     bordercolor="#666666"
     borderopacity="1"
     objecttolerance="10"
     gridtolerance="10"
     guidetolerance="10"
     inkscape:pageopacity="0"
     inkscape:pageshadow="2"
     inkscape:window-width="1280"
     inkscape:window-height="715"
     id="namedview30"
     showgrid="true"
     inkscape:zoom="17.208099"
     inkscape:cx="10.466574"
     inkscape:cy="14.064853"
     inkscape:window-x="0"
     inkscape:window-y="23"
     inkscape:window-maximized="0"
     inkscape:document-rotation="0"
     inkscape:current-layer="Слой_1">
    <inkscape:grid
       type="xygrid"
       id="grid_kicad"
       spacingx="0.5"
       spacingy="0.5"
       color="#9999ff"
       opacity="0.13"
       empspacing="2" />
  </sodipodi:namedview>
  <metadata
     id="metadata43">
    <rdf:RDF>
      <cc:Work
         rdf:about="">
        <cc:license
           rdf:resource="http://creativecommons.org/licenses/by-sa/4.0/" />
        <dc:format>image/svg+xml</dc:format>
        <dc:type
           rdf:resource="http://purl.org/dc/dcmitype/StillImage" />
        <dc:title>add_arc</dc:title>
      </cc:Work>
      <cc:License
         rdf:about="http://creativecommons.org/licenses/by-sa/4.0/">
        <cc:permits
           rdf:resource="http://creativecommons.org/ns#Reproduction" />
        <cc:permits
           rdf:resource="http://creativecommons.org/ns#Distribution" />
        <cc:requires
           rdf:resource="http://creativecommons.org/ns#Notice" />
        <cc:requires
           rdf:resource="http://creativecommons.org/ns#Attribution" />
        <cc:permits
           rdf:resource="http://creativecommons.org/ns#DerivativeWorks" />
        <cc:requires
           rdf:resource="http://creativecommons.org/ns#ShareAlike" />
      </cc:License>
    </rdf:RDF>
  </metadata>
  <defs
     id="defs26747">
    <style
       id="style26745">.cls-1{fill:#8f8f8f;}.cls-2{fill:#f29100;}.cls-3{fill:#f2647e;}.cls-4{fill:#fff;}</style>
  </defs>
  <title
     id="title26749">push_pad_settings</title>
  <path
     class="cls-1"
     d="M 12.000628,1 A 11,11 0 1 0 23,12 11.012776,11.012776 0 0 0 12.000628,1 Z m 0,21.083413 A 10.083412,10.083412 0 1 1 22.08404,12 10.094722,10.094722 0 0 1 12.000628,22.083622 Z"
     id="path26113"
     style="fill:#f29100;fill-opacity:1;stroke-width:1" />
  <path
     class="cls-1"
     d="m 11.997605,3.4972918 a 8.5,8.5 0 1 0 8.5,8.5000002 8.5091071,8.5091071 0 0 0 -8.5,-8.5000002 z m 0,13.3342182 a 4.8346366,4.8346366 0 1 1 4.834532,-4.834533 4.8403941,4.8403941 0 0 1 -4.834532,4.834533 z"
     id="path26115"
     style="opacity:1;fill:#f29100;stroke-width:0.999998" />
  <path
     class="cls-3"
     d="M 24.0065,17 A 7.0065,7.0065 0 1 1 17,10 a 7.0032,7.0032 0 0 1 7.0065,7 z"
     id="path26757" />
  <path
     class="cls-4"
     d="m 21.1,17.9286 a 4.0851,4.0851 0 0 0 -0.0472,-2.8154 c -0.936,-2.3073 -3.1743,-3.1978 -5.5344,-2.9145 l 2.6042,2.6313 -0.5332,2.349 -2.4241,0.6134 -2.7144,-2.5185 a 4.93,4.93 0 0 0 3.0782,5.4243 4.0474,4.0474 0 0 0 2.54,0.0607 l 2.3523,2.3468 A 7.025,7.025 0 0 0 23.2749,20.1 Z"
     id="path26759" />
</svg>
