<?xml version="1.0" encoding="UTF-8" standalone="no"?>
<svg
   xmlns:dc="http://purl.org/dc/elements/1.1/"
   xmlns:cc="http://creativecommons.org/ns#"
   xmlns:rdf="http://www.w3.org/1999/02/22-rdf-syntax-ns#"
   xmlns:svg="http://www.w3.org/2000/svg"
   xmlns="http://www.w3.org/2000/svg"
   xmlns:sodipodi="http://sodipodi.sourceforge.net/DTD/sodipodi-0.dtd"
   xmlns:inkscape="http://www.inkscape.org/namespaces/inkscape"
   id="Слой_1"
   data-name="Слой 1"
   viewBox="0 0 24 24"
   version="1.1"
   sodipodi:docname="redo.svg"
   inkscape:version="1.0.1 (c497b03c, 2020-09-10)">
  <sodipodi:namedview
     pagecolor="#ffffff"
     bordercolor="#666666"
     borderopacity="1"
     objecttolerance="10"
     gridtolerance="10"
     guidetolerance="10"
     inkscape:pageopacity="0"
     inkscape:pageshadow="2"
     inkscape:window-width="1280"
     inkscape:window-height="755"
     id="namedview30"
     showgrid="true"
     inkscape:zoom="21.157"
     inkscape:cx="11.287365"
     inkscape:cy="12.510378"
     inkscape:window-x="1530"
     inkscape:window-y="137"
     inkscape:window-maximized="0"
     inkscape:document-rotation="0"
     inkscape:current-layer="Слой_1">
    <inkscape:grid
       type="xygrid"
       id="grid_kicad"
       spacingx="0.5"
       spacingy="0.5"
       color="#9999ff"
       opacity="0.13"
       empspacing="2" />
  </sodipodi:namedview>
  <metadata
     id="metadata43">
    <rdf:RDF>
      <cc:Work
         rdf:about="">
        <cc:license
           rdf:resource="http://creativecommons.org/licenses/by-sa/4.0/" />
        <dc:format>image/svg+xml</dc:format>
        <dc:type
           rdf:resource="http://purl.org/dc/dcmitype/StillImage" />
        <dc:title>add_arc</dc:title>
      </cc:Work>
      <cc:License
         rdf:about="http://creativecommons.org/licenses/by-sa/4.0/">
        <cc:permits
           rdf:resource="http://creativecommons.org/ns#Reproduction" />
        <cc:permits
           rdf:resource="http://creativecommons.org/ns#Distribution" />
        <cc:requires
           rdf:resource="http://creativecommons.org/ns#Notice" />
        <cc:requires
           rdf:resource="http://creativecommons.org/ns#Attribution" />
        <cc:permits
           rdf:resource="http://creativecommons.org/ns#DerivativeWorks" />
        <cc:requires
           rdf:resource="http://creativecommons.org/ns#ShareAlike" />
      </cc:License>
    </rdf:RDF>
  </metadata>
  <defs
     id="defs26801">
    <style
       id="style26799">.cls-1{fill:#DED3DD;}</style>
  </defs>
  <title
     id="title26803">redo</title>
  <path
     class="cls-1"
     d="m 13.306734,22 c 0.063,0 0.125147,-9.16e-4 0.189473,-0.0018 A 10.229413,9.8921925 0 0 0 20.731837,18.943852 0.95050541,0.91917122 0 1 0 19.365542,17.665656 8.4240904,8.1463834 0 0 1 7.2574943,6.3362253 8.395779,8.1190053 0 0 1 19.152857,6.1295444 0.9506854,0.91934529 0 0 0 20.471027,4.8045329 10.058698,9.7271045 0 0 0 13.126828,2.0037133 10.326328,9.9859124 0 0 0 3.00191,12.179816 10.324907,9.9845382 0 0 0 13.306734,22 Z"
     id="path26805"
     style="stroke-width:1;stroke-miterlimit:4;stroke-dasharray:none" />
  <path
     class="cls-1"
     d="m 15.3046,9.46 a 0.993,0.993 0 0 0 0.3043,-0.0471 l 5.6935,-1.821 A 1.0049,1.0049 0 0 0 22,6.6346 v -5.63 a 1.0019,1.0019 0 1 0 -2.0038,0 v 4.896 L 15,7.498 a 1.0051,1.0051 0 0 0 0.3043,1.9623 z"
     id="path26807" />
</svg>
