<?xml version="1.0" encoding="UTF-8" standalone="no"?>
<svg xmlns:dc="http://purl.org/dc/elements/1.1/"
   xmlns:cc="http://creativecommons.org/ns#"
   xmlns:rdf="http://www.w3.org/1999/02/22-rdf-syntax-ns#"
   xmlns:svg="http://www.w3.org/2000/svg"
   xmlns="http://www.w3.org/2000/svg"
   xmlns:sodipodi="http://sodipodi.sourceforge.net/DTD/sodipodi-0.dtd"
   xmlns:inkscape="http://www.inkscape.org/namespaces/inkscape" id="Слой_1" data-name="Слой 1" viewBox="0 0 24 24" version="1.1" sodipodi:docname="select_layer_add_via.svg" inkscape:version="1.0.1 (3bc2e813f5, 2020-09-07)">
   <sodipodi:namedview pagecolor="#ffffff" bordercolor="#666666" borderopacity="1" objecttolerance="10" gridtolerance="10" guidetolerance="10" inkscape:pageopacity="0" inkscape:pageshadow="2" inkscape:window-width="1609" inkscape:window-height="1286" id="namedview30" showgrid="true" inkscape:zoom="27.961538" inkscape:cx="3.3259971" inkscape:cy="13" inkscape:window-x="0" inkscape:window-y="37" inkscape:window-maximized="0" inkscape:document-rotation="0" inkscape:current-layer="Слой_1">
      <inkscape:grid type="xygrid" id="grid_kicad" spacingx="0.5" spacingy="0.5" color="#9999ff" opacity="0.13" empspacing="2" />
   </sodipodi:namedview>
   <metadata id="metadata43">
      <rdf:RDF>
         <cc:Work rdf:about="">
            <cc:license rdf:resource="http://creativecommons.org/licenses/by-sa/4.0/" />
            <dc:format>image/svg+xml</dc:format>
            <dc:type rdf:resource="http://purl.org/dc/dcmitype/StillImage" />
            <dc:title>add_arc</dc:title>
         </cc:Work>
         <cc:License rdf:about="http://creativecommons.org/licenses/by-sa/4.0/">
            <cc:permits rdf:resource="http://creativecommons.org/ns#Reproduction" />
            <cc:permits rdf:resource="http://creativecommons.org/ns#Distribution" />
            <cc:requires rdf:resource="http://creativecommons.org/ns#Notice" />
            <cc:requires rdf:resource="http://creativecommons.org/ns#Attribution" />
            <cc:permits rdf:resource="http://creativecommons.org/ns#DerivativeWorks" />
            <cc:requires rdf:resource="http://creativecommons.org/ns#ShareAlike" />
         </cc:License>
      </rdf:RDF>
   </metadata>
   <defs id="defs159677">
      <style id="style159675">.cls-1{fill:#8f8f8f;}.cls-2{fill:#d8d8d8;}.cls-3{fill:#f2647e;}.cls-4{fill:#f29100;}</style>
   </defs>
   <title id="title159679">select_layer_add_via</title>
   <polygon class="cls-1" points="5,18.5 13,12 21,18.5 13,25 " id="polygon159681" transform="translate(-1,-1)" />
   <polygon class="cls-2" points="5,14.833 13,8.333 21,14.833 13,21.333 " id="polygon159683" transform="translate(-1,-1)" />
   <polygon class="cls-3" points="5,11.167 13,4.667 21,11.167 13,17.667 " id="polygon159685" transform="translate(-1,-1)" />
   <polygon class="cls-2" points="5,7.5 13,1 21,7.5 13,14 " id="polygon159687" transform="translate(-1,-1)" />
   <path class="cls-4" d="M 14.7761,3.506 A 4.0949,4.0949 0 0 0 9.4749,3.3233 L 9.4387,3.352 A 4.0950412,4.0950412 0 1 0 14.5266,9.77 L 14.5627,9.7414 A 4.0949,4.0949 0 0 0 14.7761,3.506 Z M 14,9.04 13.9718,9.0623 a 3.1955,3.1955 0 1 1 -3.97,-5.0081 L 10.03,4.0319 A 3.1955,3.1955 0 0 1 14,9.04 Z" id="path159689" />
   <path class="cls-4" d="M 13.6468,4.7432 A 2.4291,2.4291 0 0 0 10.5021,4.6348 l -0.0215,0.017 a 2.4291,2.4291 0 1 0 3.0182,3.8069 L 13.5202,8.4418 A 2.4291,2.4291 0 0 0 13.6468,4.7432 Z M 12.5359,7.215 12.5283,7.221 A 0.8563,0.8563 0 1 1 11.4644,5.879 L 11.472,5.873 a 0.8563,0.8563 0 0 1 1.0639,1.342 z" id="path159691" />
</svg>
