<?xml version="1.0" encoding="UTF-8" standalone="no"?>
<svg
   xmlns:dc="http://purl.org/dc/elements/1.1/"
   xmlns:cc="http://creativecommons.org/ns#"
   xmlns:rdf="http://www.w3.org/1999/02/22-rdf-syntax-ns#"
   xmlns:svg="http://www.w3.org/2000/svg"
   xmlns="http://www.w3.org/2000/svg"
   xmlns:sodipodi="http://sodipodi.sourceforge.net/DTD/sodipodi-0.dtd"
   xmlns:inkscape="http://www.inkscape.org/namespaces/inkscape"
   id="Слой_1"
   data-name="Слой 1"
   viewBox="0 0 24 24"
   version="1.1"
   sodipodi:docname="show_mod_edge.svg"
   inkscape:version="1.0.1 (c497b03c, 2020-09-10)">
  <sodipodi:namedview
     pagecolor="#ffffff"
     bordercolor="#666666"
     borderopacity="1"
     objecttolerance="10"
     gridtolerance="10"
     guidetolerance="10"
     inkscape:pageopacity="0"
     inkscape:pageshadow="2"
     inkscape:window-width="1280"
     inkscape:window-height="755"
     id="namedview30"
     showgrid="true"
     inkscape:zoom="16.265564"
     inkscape:cx="-8.5088213"
     inkscape:cy="13"
     inkscape:window-x="1568"
     inkscape:window-y="105"
     inkscape:window-maximized="0"
     inkscape:document-rotation="0"
     inkscape:current-layer="Слой_1">
    <inkscape:grid
       type="xygrid"
       id="grid_kicad"
       spacingx="0.5"
       spacingy="0.5"
       color="#9999ff"
       opacity="0.13"
       empspacing="2" />
  </sodipodi:namedview>
  <metadata
     id="metadata43">
    <rdf:RDF>
      <cc:Work
         rdf:about="">
        <cc:license
           rdf:resource="http://creativecommons.org/licenses/by-sa/4.0/" />
        <dc:format>image/svg+xml</dc:format>
        <dc:type
           rdf:resource="http://purl.org/dc/dcmitype/StillImage" />
        <dc:title>add_arc</dc:title>
      </cc:Work>
      <cc:License
         rdf:about="http://creativecommons.org/licenses/by-sa/4.0/">
        <cc:permits
           rdf:resource="http://creativecommons.org/ns#Reproduction" />
        <cc:permits
           rdf:resource="http://creativecommons.org/ns#Distribution" />
        <cc:requires
           rdf:resource="http://creativecommons.org/ns#Notice" />
        <cc:requires
           rdf:resource="http://creativecommons.org/ns#Attribution" />
        <cc:permits
           rdf:resource="http://creativecommons.org/ns#DerivativeWorks" />
        <cc:requires
           rdf:resource="http://creativecommons.org/ns#ShareAlike" />
      </cc:License>
    </rdf:RDF>
  </metadata>
  <defs
     id="defs159815">
    <style
       id="style159813">.cls-1{fill:#DED3DD;}.cls-2{fill:#7a7a7a;}.cls-3{fill:#8f8f8f;}.cls-4{fill:#686868;}.cls-5{fill:#329dd8;}.cls-6{fill:#42B8EB;}</style>
  </defs>
  <title
     id="title159817">show_mod_edge</title>
  <path
     class="cls-1"
     d="m 20.9905,7.0012 v 9.9614 H 3.4587 V 7.0012 h 17.5318 m 1,-1 H 2.4587 v 11.9614 h 19.5318 z"
     id="path159819" />
  <path
     class="cls-1"
     d="M 22.9669,4.998 V 18.9741 H 0.9951 V 4.998 h 21.9718 m 1,-1 H -0.0049 v 15.9761 h 23.9718 z"
     id="path159821" />
  <polygon
     class="cls-2"
     points="1.003,21.04 1.003,4.962 20.979,4.962 4.934,21.04 "
     id="polygon159823"
     transform="translate(-1,-1)" />
  <polygon
     class="cls-3"
     points="3.456,18.951 3.456,6.993 18.953,6.993 6.987,18.951 "
     id="polygon159825"
     transform="translate(-1,-1)" />
  <rect
     class="cls-1"
     x="2.4381001"
     y="10.3941"
     width="3.7246001"
     height="3.2133999"
     id="rect159827" />
  <polygon
     class="cls-4"
     points="3.456,6.993 3.456,18.951 1.003,21.04 1.003,4.962 "
     id="polygon159829"
     transform="translate(-1,-1)" />
  <path
     class="cls-5"
     d="m 5.6816,5.8066 a 0.9994,0.9994 0 0 1 -1,-1 V 0.9977 a 1,1 0 0 1 2,0 v 3.8089 a 0.9993,0.9993 0 0 1 -1,1 z"
     id="path159831" />
  <path
     class="cls-5"
     d="m 12.3271,5.8066 a 0.9994,0.9994 0 0 1 -1,-1 V 0.9977 a 1,1 0 0 1 2,0 v 3.8089 a 0.9993,0.9993 0 0 1 -1,1 z"
     id="path159833" />
  <path
     class="cls-5"
     d="M 18.3522,5.59 A 0.998,0.998 0 0 1 17.9736,4.8062 V 0.9977 a 1,1 0 1 1 2,0 v 3.0885 c 0,0 -1.4509,1.6396 -1.6214,1.5038 z"
     id="path159835" />
  <path
     class="cls-6"
     d="m 5.6816,5.8066 a 0.9994,0.9994 0 0 1 -1,-1 v -1.788 a 1,1 0 0 1 2,0 v 1.788 a 0.9993,0.9993 0 0 1 -1,1 z"
     id="path159837" />
  <path
     class="cls-6"
     d="m 12.3271,5.8066 a 0.9994,0.9994 0 0 1 -1,-1 v -1.788 a 1,1 0 0 1 2,0 v 1.788 a 0.9993,0.9993 0 0 1 -1,1 z"
     id="path159839" />
  <path
     class="cls-6"
     d="M 18.2664,5.5139 A 0.9969,0.9969 0 0 1 17.9736,4.8066 v -1.788 a 1,1 0 1 1 2,0 v 0.943 c 0,0 -1.5263,1.7332 -1.7072,1.5523 z"
     id="path159841" />
  <path
     class="cls-1"
     d="m 5.6816,24.0215 a 1,1 0 0 1 -1,-1 v -3.7363 a 1,1 0 0 1 2,0 v 3.7363 a 0.9994,0.9994 0 0 1 -1,1 z"
     id="path159843" />
  <path
     class="cls-1"
     d="m 12.3271,24.0215 a 1,1 0 0 1 -1,-1 v -3.7363 a 1,1 0 0 1 2,0 v 3.7363 a 0.9994,0.9994 0 0 1 -1,1 z"
     id="path159845" />
  <path
     class="cls-1"
     d="m 18.9736,24.0215 a 1,1 0 0 1 -1,-1 v -3.7363 a 1,1 0 0 1 2,0 v 3.7363 a 0.9994,0.9994 0 0 1 -1,1 z"
     id="path159847" />
  <line
     class="cls-3"
     x1="0.5"
     y1="23.5"
     x2="23.5"
     y2="0.5"
     id="line158655"
     style="fill:none;stroke:#DED3DD;stroke-width:1;stroke-linecap:round;stroke-linejoin:round;stroke-miterlimit:4;stroke-dasharray:none;stroke-opacity:1" />
</svg>
