<?xml version="1.0" encoding="UTF-8" standalone="no"?>
<svg
   xmlns:dc="http://purl.org/dc/elements/1.1/"
   xmlns:cc="http://creativecommons.org/ns#"
   xmlns:rdf="http://www.w3.org/1999/02/22-rdf-syntax-ns#"
   xmlns:svg="http://www.w3.org/2000/svg"
   xmlns="http://www.w3.org/2000/svg"
   xmlns:sodipodi="http://sodipodi.sourceforge.net/DTD/sodipodi-0.dtd"
   xmlns:inkscape="http://www.inkscape.org/namespaces/inkscape"
   width="100%"
   height="100%"
   viewBox="0 0 64 16"
   version="1.1"
   xml:space="preserve"
   style="fill-rule:evenodd;clip-rule:evenodd;stroke-linecap:round;stroke-linejoin:round;stroke-miterlimit:1.5;"
   id="svg840"
   sodipodi:docname="stroke_dash.svg"
   inkscape:version="1.0.1 (c497b03c, 2020-09-10)"><defs
   id="defs844" /><sodipodi:namedview
   pagecolor="#ffffff"
   bordercolor="#666666"
   borderopacity="1"
   objecttolerance="10"
   gridtolerance="10"
   guidetolerance="10"
   inkscape:pageopacity="0"
   inkscape:pageshadow="2"
   inkscape:window-width="1280"
   inkscape:window-height="715"
   id="namedview842"
   showgrid="false"
   inkscape:zoom="10.679189"
   inkscape:cx="30.595399"
   inkscape:cy="7.4381596"
   inkscape:window-x="0"
   inkscape:window-y="23"
   inkscape:window-maximized="1"
   inkscape:current-layer="svg840" />
     <metadata
   id="metadata43">
          <rdf:RDF>
               <cc:Work
   rdf:about="">
                    <dc:format>image/svg+xml</dc:format>
                    <dc:type
   rdf:resource="http://purl.org/dc/dcmitype/StillImage" />
                    <dc:title></dc:title>
                    <cc:license
   rdf:resource="http://creativecommons.org/licenses/by-sa/4.0/" />
               </cc:Work>
               
          <cc:License
   rdf:about="http://creativecommons.org/licenses/by-sa/4.0/"><cc:permits
     rdf:resource="http://creativecommons.org/ns#Reproduction" /><cc:permits
     rdf:resource="http://creativecommons.org/ns#Distribution" /><cc:requires
     rdf:resource="http://creativecommons.org/ns#Notice" /><cc:requires
     rdf:resource="http://creativecommons.org/ns#Attribution" /><cc:permits
     rdf:resource="http://creativecommons.org/ns#DerivativeWorks" /><cc:requires
     rdf:resource="http://creativecommons.org/ns#ShareAlike" /></cc:License></rdf:RDF>
     </metadata>
     <path
   d="M41,8c0,-1.648 -1.338,-2.987 -2.987,-2.987l-12.026,0c-1.649,0 -2.987,1.339 -2.987,2.987c0,1.648 1.338,2.987 2.987,2.987l12.026,0c1.649,0 2.987,-1.339 2.987,-2.987Z"
   style="fill:#DED3DD;stroke:#000;stroke-width:0.09000000000000000px;fill-opacity:1"
   id="path834" />
     <path
   d="M19,8c0,-1.656 -1.344,-3 -3,-3l-12,0c-1.656,0 -3,1.344 -3,3c0,1.656 1.344,3 3,3l12,0c1.656,0 3,-1.344 3,-3Z"
   style="fill:#DED3DD;stroke:#000;stroke-width:0.09000000000000000px;fill-opacity:1"
   id="path836" />
     <path
   d="M63,8c0,-1.648 -1.338,-2.987 -2.987,-2.987l-12.026,0c-1.649,0 -2.987,1.339 -2.987,2.987c0,1.648 1.338,2.987 2.987,2.987l12.026,0c1.649,0 2.987,-1.339 2.987,-2.987Z"
   style="fill:#DED3DD;stroke:#000;stroke-width:0.09000000000000000px;fill-opacity:1"
   id="path838" />
</svg>
