<?xml version="1.0" encoding="UTF-8" standalone="no"?>
<svg
   xmlns:dc="http://purl.org/dc/elements/1.1/"
   xmlns:cc="http://creativecommons.org/ns#"
   xmlns:rdf="http://www.w3.org/1999/02/22-rdf-syntax-ns#"
   xmlns:svg="http://www.w3.org/2000/svg"
   xmlns="http://www.w3.org/2000/svg"
   xmlns:sodipodi="http://sodipodi.sourceforge.net/DTD/sodipodi-0.dtd"
   xmlns:inkscape="http://www.inkscape.org/namespaces/inkscape"
   id="Слой_1"
   data-name="Слой 1"
   viewBox="0 0 24 24"
   version="1.1"
   sodipodi:docname="tools.svg"
   inkscape:version="1.0.1 (3bc2e813f5, 2020-09-07)">
  <sodipodi:namedview
     pagecolor="#ffffff"
     bordercolor="#666666"
     borderopacity="1"
     objecttolerance="10"
     gridtolerance="10"
     guidetolerance="10"
     inkscape:pageopacity="0"
     inkscape:pageshadow="2"
     inkscape:window-width="1609"
     inkscape:window-height="1286"
     id="namedview30"
     showgrid="true"
     inkscape:zoom="27.961538"
     inkscape:cx="11.724769"
     inkscape:cy="11.39062"
     inkscape:window-x="0"
     inkscape:window-y="37"
     inkscape:window-maximized="0"
     inkscape:document-rotation="0"
     inkscape:current-layer="Слой_1">
    <inkscape:grid
       type="xygrid"
       id="grid_kicad"
       spacingx="0.5"
       spacingy="0.5"
       color="#9999ff"
       opacity="0.13"
       empspacing="2" />
  </sodipodi:namedview>
  <metadata
     id="metadata43">
    <rdf:RDF>
      <cc:Work
         rdf:about="">
        <cc:license
           rdf:resource="http://creativecommons.org/licenses/by-sa/4.0/" />
        <dc:format>image/svg+xml</dc:format>
        <dc:type
           rdf:resource="http://purl.org/dc/dcmitype/StillImage" />
        <dc:title>add_arc</dc:title>
      </cc:Work>
      <cc:License
         rdf:about="http://creativecommons.org/licenses/by-sa/4.0/">
        <cc:permits
           rdf:resource="http://creativecommons.org/ns#Reproduction" />
        <cc:permits
           rdf:resource="http://creativecommons.org/ns#Distribution" />
        <cc:requires
           rdf:resource="http://creativecommons.org/ns#Notice" />
        <cc:requires
           rdf:resource="http://creativecommons.org/ns#Attribution" />
        <cc:permits
           rdf:resource="http://creativecommons.org/ns#DerivativeWorks" />
        <cc:requires
           rdf:resource="http://creativecommons.org/ns#ShareAlike" />
      </cc:License>
    </rdf:RDF>
  </metadata>
  <defs
     id="defs27383">
    <style
       id="style27381">.cls-1{fill:#42B8EB;}.cls-2{fill:#DED3DD;}</style>
  </defs>
  <title
     id="title27385">tools</title>
  <path
     class="cls-1"
     d="M 21.4039,18.47 10.1376,7.1234 a 4.3823,4.3823 0 0 0 -0.05,-2.9968 C 9.0998,1.6707 6.7376,0.7228 4.2476,1.0244 L 6.9958,3.8251 6.433,6.3251 3.8748,6.978 1.01,4.2976 c -0.2333,2.5061 0.7749,4.85 3.2484,5.7738 a 4.2369,4.2369 0 0 0 2.68,0.0645 l 11.445,11.5167 a 2.1939,2.1939 0 0 0 3.02,-3.1827 z M 20.19,21.325 A 0.9173,0.9173 0 1 1 21.1042,20.4076 0.9158,0.9158 0 0 1 20.19,21.325 Z"
     id="path27387" />
  <path
     class="cls-2"
     d="M 22.6447,3.1955 20.6918,1.2847 A 1.1,1.1 0 0 0 19.1365,1.3 l -5.5089,5.6038 c 0.0872,1.2688 -0.3925,1.6188 -0.3925,1.6188 L 13.8804,9.1221 4.5532,18.48 4.2389,18.1555 3.04,19.3371 1.0556,22.4 l 0.327,0.2844 0.004,-0.0042 0.2918,0.29 2.9892,-2.1051 1.0838,-1.2886 -0.2852,-0.249 9.3268,-9.3575 0.7968,0.74 a 1.9241,1.9241 0 0 1 1.57,-0.35 l 5.5,-5.5953 A 1.1092,1.1092 0 0 0 22.6447,3.1955 Z"
     id="path27389" />
</svg>
