<?xml version="1.0" encoding="UTF-8" standalone="no"?>
<svg
   xmlns:dc="http://purl.org/dc/elements/1.1/"
   xmlns:cc="http://creativecommons.org/ns#"
   xmlns:rdf="http://www.w3.org/1999/02/22-rdf-syntax-ns#"
   xmlns:svg="http://www.w3.org/2000/svg"
   xmlns="http://www.w3.org/2000/svg"
   xmlns:sodipodi="http://sodipodi.sourceforge.net/DTD/sodipodi-0.dtd"
   xmlns:inkscape="http://www.inkscape.org/namespaces/inkscape"
   id="Слой_1"
   data-name="Слой 1"
   viewBox="0 0 24 24"
   version="1.1"
   sodipodi:docname="zoom_fit_to_objects.svg"
   inkscape:version="1.0.1 (c497b03c, 2020-09-10)"
   inkscape:export-filename="/Users/jeff/kicad_dev/kicad/bitmaps_png/png_26/zoom_fit_to_objects.png"
   inkscape:export-xdpi="96"
   inkscape:export-ydpi="96">
  <sodipodi:namedview
     pagecolor="#ffffff"
     bordercolor="#666666"
     borderopacity="1"
     objecttolerance="10"
     gridtolerance="10"
     guidetolerance="10"
     inkscape:pageopacity="0"
     inkscape:pageshadow="2"
     inkscape:window-width="1251"
     inkscape:window-height="755"
     id="namedview30"
     showgrid="true"
     inkscape:zoom="11.643247"
     inkscape:cx="11.989307"
     inkscape:cy="7.8943198"
     inkscape:window-x="0"
     inkscape:window-y="303"
     inkscape:window-maximized="0"
     inkscape:document-rotation="0"
     inkscape:current-layer="Слой_1"
     inkscape:snap-nodes="false">
    <inkscape:grid
       type="xygrid"
       id="grid_kicad"
       spacingx="0.5"
       spacingy="0.5"
       color="#9999ff"
       opacity="0.13"
       empspacing="2" />
  </sodipodi:namedview>
  <metadata
     id="metadata43">
    <rdf:RDF>
      <cc:Work
         rdf:about="">
        <cc:license
           rdf:resource="http://creativecommons.org/licenses/by-sa/4.0/" />
        <dc:format>image/svg+xml</dc:format>
        <dc:type
           rdf:resource="http://purl.org/dc/dcmitype/StillImage" />
        <dc:title>add_arc</dc:title>
      </cc:Work>
      <cc:License
         rdf:about="http://creativecommons.org/licenses/by-sa/4.0/">
        <cc:permits
           rdf:resource="http://creativecommons.org/ns#Reproduction" />
        <cc:permits
           rdf:resource="http://creativecommons.org/ns#Distribution" />
        <cc:requires
           rdf:resource="http://creativecommons.org/ns#Notice" />
        <cc:requires
           rdf:resource="http://creativecommons.org/ns#Attribution" />
        <cc:permits
           rdf:resource="http://creativecommons.org/ns#DerivativeWorks" />
        <cc:requires
           rdf:resource="http://creativecommons.org/ns#ShareAlike" />
      </cc:License>
    </rdf:RDF>
  </metadata>
  <defs
     id="defs160563">
    <style
       id="style160561">.cls-1{fill:#DED3DD;}.cls-2{fill:#8f8f8f;}</style>
  </defs>
  <title
     id="title160565">zoom_fit_to_objects</title>
  <path
     class="cls-1"
     d="M 9.9976484,18.999997 A 8.998129,8.9999987 0 1 1 16.362105,3.6373763 v 0 A 8.9954858,8.9973549 0 0 1 9.9976484,18.999997 Z m 0,-16.2787305 A 7.2800339,7.2815466 0 1 0 15.148695,4.8510385 7.2612755,7.2627843 0 0 0 9.9976484,2.7216076 Z"
     id="path160567"
     style="stroke-width:1;stroke-miterlimit:4;stroke-dasharray:none" />
  <path
     class="cls-1"
     d="M 21.941949,23.012172 A 1.071826,1.071826 0 0 1 21.181811,22.69715 l -6.176896,-6.176896 a 1.0927916,1.0927916 0 0 1 1.520275,-1.520382 l 6.177004,6.176896 a 1.075159,1.075159 0 0 1 -0.760245,1.835404 z"
     id="path160569"
     style="stroke-width:1" />
  <path
     inkscape:connector-curvature="0"
     class="cls-2"
     d="m 4.066527,13.266108 2.90214,-5.6364603 a 0.63048,0.63048 0 0 1 1.0494,-0.1095 l 2.949899,3.6223203 a 0.63054,0.63054 0 0 0 0.95784,0.02328 l 0.792,-0.88158 a 0.63048,0.63048 0 0 1 0.99768,0.078 l 1.8687,2.87664 a 0.31518,0.31518 0 0 1 -0.26436,0.4869 H 4.346787 a 0.31518,0.31518 0 0 1 -0.28026,-0.4596 z"
     id="path157783"
     style="fill:#d0d0d0;fill-opacity:1;stroke-width:1" />
  <circle
     class="cls-2"
     cx="13.680777"
     cy="6.8140607"
     r="1.60488"
     id="circle157785"
     style="fill:#d0d0d0;fill-opacity:1;stroke-width:1" />
</svg>
