/* XPM */
#ifndef XPM_3D_MAIN
extern char *rotate_pos_X_xpm[];

#else
char *rotate_pos_X_xpm[] = {
/* width height num_colors chars_per_pixel */
"    16    15        4            1",
/* colors */
". c #000080",
"# c #c0c0c0",
"a c #808080",
"o c #008000",
/* pixels */
"##oo###oo#######",
"###oo#oo########",
"####ooo#########",
"###oo#oo########",
"##oo###oo...a###",
"##.###...###.a##",
"##..#.#######.##",
"##...########.##",
"##....#######.##",
"##.....#####.a##",
"###########a.###",
"################",
"################",
"################",
"################"
};

#endif
