<?xml version="1.0" encoding="UTF-8" standalone="no"?>
<svg
   xmlns:dc="http://purl.org/dc/elements/1.1/"
   xmlns:cc="http://creativecommons.org/ns#"
   xmlns:rdf="http://www.w3.org/1999/02/22-rdf-syntax-ns#"
   xmlns:svg="http://www.w3.org/2000/svg"
   xmlns="http://www.w3.org/2000/svg"
   xmlns:sodipodi="http://sodipodi.sourceforge.net/DTD/sodipodi-0.dtd"
   xmlns:inkscape="http://www.inkscape.org/namespaces/inkscape"
   id="Слой_1"
   data-name="Слой 1"
   viewBox="0 0 24 24"
   version="1.1"
   sodipodi:docname="drag.svg"
   inkscape:version="1.0.1 (3bc2e813f5, 2020-09-07)">
  <metadata
     id="metadata993">
    <rdf:RDF>
      <cc:Work
         rdf:about="">
        <dc:format>image/svg+xml</dc:format>
        <dc:type
           rdf:resource="http://purl.org/dc/dcmitype/StillImage" />
        <dc:title>drag</dc:title>
      </cc:Work>
    </rdf:RDF>
  </metadata>
  <sodipodi:namedview
     pagecolor="#ffffff"
     bordercolor="#666666"
     borderopacity="1"
     objecttolerance="10"
     gridtolerance="10"
     guidetolerance="10"
     inkscape:pageopacity="0"
     inkscape:pageshadow="2"
     inkscape:window-width="1712"
     inkscape:window-height="1683"
     id="namedview991"
     showgrid="true"
     inkscape:zoom="27.961538"
     inkscape:cx="1.8552441"
     inkscape:cy="10.045252"
     inkscape:window-x="1871"
     inkscape:window-y="108"
     inkscape:window-maximized="0"
     inkscape:current-layer="Слой_1"
     inkscape:document-rotation="0">
    <inkscape:grid
       type="xygrid"
       id="grid1556" />
  </sodipodi:namedview>
  <defs
     id="defs978">
    <style
       id="style976">.cls-1{fill:#DED3DD;}.cls-2{fill:#42B8EB;}.cls-3{fill:none;stroke:#DED3DD;stroke-linecap:round;stroke-linejoin:round;}</style>
  </defs>
  <title
     id="title980">drag</title>
  <path
     style="fill:none;stroke:#DED3DD;stroke-width:2;stroke-linecap:round;stroke-linejoin:miter;stroke-miterlimit:4;stroke-dasharray:none;stroke-opacity:1"
     d="M 3,17 16,12 19.533472,1 v 0"
     id="path1562" />
  <path
     class="cls-2"
     d="m 16,15 a 3,3 0 1 1 3,-3 3,3 0 0 1 -3,3 z"
     id="path984" />
  <path
     class="cls-1"
     d="m 16,12 -0.0011,10.882624 2.415254,-2.312217 c 0.32567,0.741355 0.803184,1.836141 1.22087,2.791856 a 1.2338,1.2338 0 0 0 1.627633,0.634825 v 0 a 1.2337,1.2337 0 0 0 0.63533,-1.624847 c -0.417612,-0.955902 -0.895724,-2.052433 -1.222119,-2.796017 l 3.337756,-0.213065 z"
     id="path986" />
  <path
     class="cls-3"
     d="M 10.3994,14.202 A 6.0022,6.0022 0 0 1 17.7576,6.2955"
     id="path988" />
</svg>
