<?xml version="1.0" encoding="UTF-8" standalone="no"?>
<svg
   xmlns:dc="http://purl.org/dc/elements/1.1/"
   xmlns:cc="http://creativecommons.org/ns#"
   xmlns:rdf="http://www.w3.org/1999/02/22-rdf-syntax-ns#"
   xmlns:svg="http://www.w3.org/2000/svg"
   xmlns="http://www.w3.org/2000/svg"
   xmlns:sodipodi="http://sodipodi.sourceforge.net/DTD/sodipodi-0.dtd"
   xmlns:inkscape="http://www.inkscape.org/namespaces/inkscape"
   id="Слой_1"
   data-name="Слой 1"
   viewBox="0 0 24 24"
   version="1.1"
   sodipodi:docname="file_gbr.svg"
   inkscape:version="1.0.1 (3bc2e813f5, 2020-09-07)"
   inkscape:export-filename="/Users/jeff/kicad_dev/kicad/bitmaps_png/png_26/post_gerber.svg.png"
   inkscape:export-xdpi="96"
   inkscape:export-ydpi="96">
  <sodipodi:namedview
     pagecolor="#ffffff"
     bordercolor="#666666"
     borderopacity="1"
     objecttolerance="10"
     gridtolerance="10"
     guidetolerance="10"
     inkscape:pageopacity="0"
     inkscape:pageshadow="2"
     inkscape:window-width="2248"
     inkscape:window-height="1497"
     id="namedview30"
     showgrid="true"
     inkscape:zoom="39.543586"
     inkscape:cx="10.253345"
     inkscape:cy="11.704022"
     inkscape:window-x="0"
     inkscape:window-y="37"
     inkscape:window-maximized="0"
     inkscape:document-rotation="0"
     inkscape:current-layer="Слой_1">
    <inkscape:grid
       type="xygrid"
       id="grid_kicad"
       spacingx="0.5"
       spacingy="0.5"
       color="#9999ff"
       opacity="0.13"
       empspacing="2" />
  </sodipodi:namedview>
  <metadata
     id="metadata43">
    <rdf:RDF>
      <cc:Work
         rdf:about="">
        <cc:license
           rdf:resource="http://creativecommons.org/licenses/by-sa/4.0/" />
        <dc:format>image/svg+xml</dc:format>
        <dc:type
           rdf:resource="http://purl.org/dc/dcmitype/StillImage" />
        <dc:title>post_gerber</dc:title>
      </cc:Work>
      <cc:License
         rdf:about="http://creativecommons.org/licenses/by-sa/4.0/">
        <cc:permits
           rdf:resource="http://creativecommons.org/ns#Reproduction" />
        <cc:permits
           rdf:resource="http://creativecommons.org/ns#Distribution" />
        <cc:requires
           rdf:resource="http://creativecommons.org/ns#Notice" />
        <cc:requires
           rdf:resource="http://creativecommons.org/ns#Attribution" />
        <cc:permits
           rdf:resource="http://creativecommons.org/ns#DerivativeWorks" />
        <cc:requires
           rdf:resource="http://creativecommons.org/ns#ShareAlike" />
      </cc:License>
    </rdf:RDF>
  </metadata>
  <defs
     id="defs26639">
    <style
       id="style26637">.cls-1{fill:#8f8f8f;}.cls-2{fill:#42B8EB;}.cls-3{fill:#fff;}.cls-4{fill:#f2647e;}.cls-5{fill:none;stroke:#545454;stroke-linecap:round;stroke-linejoin:round;stroke-width:2px;}</style>
    <clipPath
       clipPathUnits="userSpaceOnUse"
       id="clipPath935">
      <rect
         class="cls-1"
         x="3.0000002"
         y="0"
         width="21"
         height="24"
         rx="3.5045271"
         id="rect937"
         style="stroke-width:1" />
    </clipPath>
  </defs>
  <title
     id="title26641">post_gerber</title>
  <rect
     class="cls-1"
     x="3.0000002"
     y="0"
     width="21"
     height="24"
     rx="3.5045271"
     id="rect26643"
     style="stroke-width:1" />
  <rect
     class="cls-2"
     x="0"
     y="2"
     width="19"
     height="9"
     id="rect26645"
     style="stroke-width:0.999998" />
  <path
     class="cls-3"
     d="M 2.0692,8.9369001 H 0.99590001 v -1.0361 H 2.0692 Z"
     id="path26647" />
  <path
     class="cls-3"
     d="m 2.8207824,6.5980001 a 3.1315,3.1315 0 0 1 0.502,-1.8535 1.61,1.61 0 0 1 1.3916,-0.707 1.5107,1.5107 0 0 1 0.7568,0.1846 1.5974,1.5974 0 0 1 0.5518,0.5312 l 0.1064,-0.6269 h 0.8955 v 4.8105 a 1.8154,1.8154 0 0 1 -0.5723,1.4354999 2.366,2.366 0 0 1 -1.623,0.5069 3.1825,3.1825 0 0 1 -0.7559,-0.1 3.5012,3.5012 0 0 1 -0.7334,-0.2647 l 0.23,-0.8486 a 2.5832,2.5832 0 0 0 0.5879,0.2148 2.8033,2.8033 0 0 0 0.6621,0.0782 1.2329,1.2329 0 0 0 0.8565,-0.251 1.0085,1.0085 0 0 0 0.2705,-0.7714999 v -0.4932 a 1.5212,1.5212 0 0 1 -0.5342,0.4375 1.6055,1.6055 0 0 1 -0.708,0.1494 1.6522,1.6522 0 0 1 -1.3828,-0.6455 2.6764,2.6764 0 0 1 -0.502,-1.6933 z m 1.0781,0.0938 a 1.8947,1.8947 0 0 0 0.2637,1.0605 0.913,0.913 0 0 0 0.8184,0.3975 1.0994,1.0994 0 0 0 0.583,-0.1445 1.0615,1.0615 0 0 0 0.3838,-0.4151 v -2.1074 a 1.15,1.15 0 0 0 -0.3887,-0.4111 1.0461,1.0461 0 0 0 -0.5693,-0.1494 0.8839,0.8839 0 0 0 -0.8223,0.4667 2.402,2.402 0 0 0 -0.2686,1.209 z"
     id="path26649" />
  <path
     class="cls-3"
     d="m 12.171164,6.6918001 a 2.7228,2.7228 0 0 1 -0.49,1.6963 1.6369,1.6369 0 0 1 -1.3808,0.6425 1.5894,1.5894 0 0 1 -0.7783924,-0.1826 1.5139,1.5139 0 0 1 -0.551698,-0.5332 l -0.1065,0.6221 h -0.9054 v -6.9355 h 1.0781 v 2.6718 a 1.544,1.544 0 0 1 0.5321976,-0.4707 1.51,1.51 0 0 1 0.7226928,-0.165 1.5953,1.5953 0 0 1 1.39,0.7021 3.1845,3.1845 0 0 1 0.49,1.8584 z m -1.0771,-0.0938 a 2.479,2.479 0 0 0 -0.2578,-1.2129 0.8657,0.8657 0 0 0 -0.8154,-0.4628 1.0705,1.0705 0 0 0 -0.6015908,0.16 1.1169,1.1169 0 0 0 -0.3827996,0.4443 v 2.0187 a 1.06,1.06 0 0 0 0.3808,0.4473 1.114,1.114 0 0 0 0.6122904,0.1572 0.8931,0.8931 0 0 0 0.8116,-0.3936 1.9557,1.9557 0 0 0 0.2529,-1.0644 z"
     id="path26651" />
  <path
     class="cls-3"
     d="m 15.391308,5.1000001 -0.4609,-0.0176 a 0.9606,0.9606 0 0 0 -0.5264,0.1338 0.8794,0.8794 0 0 0 -0.3252,0.377 v 3.3437 h -1.0781 v -4.8105 h 0.9844 l 0.0713,0.6982 a 1.5454,1.5454 0 0 1 0.4677,-0.5781 1.084,1.084 0 0 1 0.6582,-0.209 0.9834,0.9834 0 0 1 0.1827,0.0156 1.4333,1.4333 0 0 1 0.1543,0.0381 z"
     id="path26653" />
  <rect
     class="cls-5"
     x="-15"
     y="6"
     width="3"
     height="2"
     id="rect24945"
     style="fill:#DED3DD;fill-opacity:1;stroke:none"
     transform="rotate(-90)" />
  <path
     class="cls-5"
     d="M 9,15.5 A 0.99999998,0.99999998 0 1 1 8.000106,16.499789 0.99978932,0.99978932 0 0 1 9,15.5 Z"
     id="path24963"
     style="fill:#DED3DD;fill-opacity:1;stroke:none" />
  <rect
     class="cls-5"
     x="-15"
     y="10"
     width="3"
     height="2"
     id="rect909"
     style="fill:#DED3DD;fill-opacity:1;stroke:none"
     transform="rotate(-90)" />
  <rect
     class="cls-5"
     x="-15"
     y="14"
     width="3"
     height="2"
     id="rect911"
     style="fill:#DED3DD;fill-opacity:1;stroke:none"
     transform="rotate(-90)" />
  <rect
     class="cls-5"
     x="-15"
     y="18"
     width="3"
     height="2"
     id="rect913"
     style="fill:#DED3DD;fill-opacity:1;stroke:none"
     transform="rotate(-90)" />
  <rect
     class="cls-5"
     x="-21"
     y="6"
     width="3"
     height="2"
     id="rect917"
     style="fill:#DED3DD;fill-opacity:1;stroke:none"
     transform="rotate(-90)" />
  <rect
     class="cls-5"
     x="-21"
     y="10"
     width="3"
     height="2"
     id="rect919"
     style="fill:#DED3DD;fill-opacity:1;stroke:none"
     transform="rotate(-90)" />
  <rect
     class="cls-5"
     x="-21"
     y="14"
     width="3"
     height="2"
     id="rect921"
     style="fill:#DED3DD;fill-opacity:1;stroke:none"
     transform="rotate(-90)" />
  <rect
     class="cls-5"
     x="-21"
     y="18"
     width="3"
     height="2"
     id="rect923"
     style="fill:#DED3DD;fill-opacity:1;stroke:none"
     transform="rotate(-90)" />
  <path
     style="fill:none;stroke:#DED3DD;stroke-width:1px;stroke-linecap:butt;stroke-linejoin:miter;stroke-opacity:1"
     d="m 3,16.5 h 11 l 1,-1 v -2"
     id="path925"
     sodipodi:nodetypes="cccc" />
  <path
     style="fill:none;stroke:#DED3DD;stroke-width:1px;stroke-linecap:butt;stroke-linejoin:miter;stroke-opacity:1"
     d="m 19,19.5 h 2 3"
     id="path927" />
  <path
     style="fill:none;stroke:#DED3DD;stroke-width:1px;stroke-linecap:butt;stroke-linejoin:miter;stroke-opacity:1"
     d="m 19,13.5 h 1.5 l 2,-2 V 0"
     id="path929"
     clip-path="url(#clipPath935)" />
  <path
     style="fill:none;stroke:#DED3DD;stroke-width:1px;stroke-linecap:butt;stroke-linejoin:miter;stroke-opacity:1"
     d="M 3,13.5 H 5 8"
     id="path931" />
</svg>
