<?xml version="1.0" encoding="UTF-8" standalone="no"?>
<svg
   xmlns:dc="http://purl.org/dc/elements/1.1/"
   xmlns:cc="http://creativecommons.org/ns#"
   xmlns:rdf="http://www.w3.org/1999/02/22-rdf-syntax-ns#"
   xmlns:svg="http://www.w3.org/2000/svg"
   xmlns="http://www.w3.org/2000/svg"
   xmlns:sodipodi="http://sodipodi.sourceforge.net/DTD/sodipodi-0.dtd"
   xmlns:inkscape="http://www.inkscape.org/namespaces/inkscape"
   id="Слой_1"
   data-name="Слой 1"
   viewBox="0 0 24 24"
   version="1.1"
   sodipodi:docname="file_pdf.svg"
   inkscape:version="1.0.1 (3bc2e813f5, 2020-09-07)">
  <sodipodi:namedview
     pagecolor="#ffffff"
     bordercolor="#666666"
     borderopacity="1"
     objecttolerance="10"
     gridtolerance="10"
     guidetolerance="10"
     inkscape:pageopacity="0"
     inkscape:pageshadow="2"
     inkscape:window-width="2481"
     inkscape:window-height="1775"
     id="namedview30"
     showgrid="true"
     inkscape:zoom="111.84615"
     inkscape:cx="14.119112"
     inkscape:cy="8.1583578"
     inkscape:window-x="0"
     inkscape:window-y="37"
     inkscape:window-maximized="0"
     inkscape:document-rotation="0"
     inkscape:current-layer="Слой_1">
    <inkscape:grid
       type="xygrid"
       id="grid_kicad"
       spacingx="0.5"
       spacingy="0.5"
       color="#9999ff"
       opacity="0.13"
       empspacing="2" />
  </sodipodi:namedview>
  <metadata
     id="metadata43">
    <rdf:RDF>
      <cc:Work
         rdf:about="">
        <cc:license
           rdf:resource="http://creativecommons.org/licenses/by-sa/4.0/" />
        <dc:format>image/svg+xml</dc:format>
        <dc:type
           rdf:resource="http://purl.org/dc/dcmitype/StillImage" />
        <dc:title>datasheet</dc:title>
      </cc:Work>
      <cc:License
         rdf:about="http://creativecommons.org/licenses/by-sa/4.0/">
        <cc:permits
           rdf:resource="http://creativecommons.org/ns#Reproduction" />
        <cc:permits
           rdf:resource="http://creativecommons.org/ns#Distribution" />
        <cc:requires
           rdf:resource="http://creativecommons.org/ns#Notice" />
        <cc:requires
           rdf:resource="http://creativecommons.org/ns#Attribution" />
        <cc:permits
           rdf:resource="http://creativecommons.org/ns#DerivativeWorks" />
        <cc:requires
           rdf:resource="http://creativecommons.org/ns#ShareAlike" />
      </cc:License>
    </rdf:RDF>
  </metadata>
  <defs
     id="defs116444">
    <style
       id="style116442">.cls-1{fill:#8f8f8f;}.cls-2{fill:#42B8EB;}.cls-3{fill:#fff;}.cls-4{fill:#f2647e;}.cls-5{fill:none;stroke:#fff;stroke-linecap:round;stroke-linejoin:round;stroke-width:2px;}</style>
  </defs>
  <title
     id="title116446">datasheet</title>
  <path
     class="cls-1"
     d="M 6.5047223,0 H 20.495513 a 3.5044879,3.9947506 0 0 1 3.504488,3.9947506 V 20.005115 a 3.504605,3.994884 0 0 1 -3.504606,3.994884 H 6.5047223 A 3.504605,3.994884 0 0 1 3,20.005115 V 3.994884 A 3.504605,3.994884 0 0 1 6.5047223,0 Z"
     id="path116448"
     style="stroke-width:0.999997" />
  <path
     sodipodi:nodetypes="scccscccscccccssscacccsccccccccccccccccccccaccccccccc"
     inkscape:connector-curvature="0"
     d="m 4.5860063,21.955966 c -1.0718221,-1.071823 0.087809,-2.544659 3.2349003,-4.108647 l 1.9801954,-0.984071 0.771442,-1.687902 c 0.424295,-0.928343 1.057548,-2.443098 1.407234,-3.366107 l 0.635798,-1.678211 -0.438134,-1.2419677 c -0.538726,-1.5271163 -0.730834,-3.8219886 -0.389029,-4.64718 0.462983,-1.1177364 1.979496,-1.003055 2.579882,0.1950954 0.468898,0.9357518 0.420961,2.6303715 -0.134863,4.767542 l -0.455677,1.7521073 0.401375,0.681374 c 0.22076,0.374754 0.865587,1.264585 1.432957,1.977392 l 1.066341,1.326429 1.326909,-0.173155 c 4.215362,-0.550063 5.659167,0.384821 5.659167,1.725259 0,1.691742 -3.30996,1.831382 -6.089488,-0.12084 -0.625399,-0.439253 -1.054878,-0.875601 -1.054878,-0.875601 0,0 -1.741278,0.35449 -2.598602,0.585567 -0.884945,0.238521 -1.326445,0.387902 -2.622742,0.825457 0,0 -0.454823,0.660499 -0.7512,1.14067 -1.102645,1.786433 -2.3900989,3.266906 -3.3095462,3.805742 -1.0294479,0.603298 -2.1086653,0.644423 -2.6520415,0.101047 z M 6.268067,21.355058 C 6.8705558,20.982695 8.0900076,19.540409 8.934146,18.201796 L 9.275915,17.659824 7.7197348,18.44226 c -2.4035047,1.208458 -3.5030599,2.347423 -2.9312962,3.036352 0.3211951,0.387013 0.7054335,0.354925 1.4796284,-0.123554 z M 21.88019,16.972837 c 0.589289,-0.412758 0.503746,-1.244535 -0.162477,-1.579895 -0.518485,-0.260993 -0.936377,-0.314618 -2.283282,-0.294737 -0.827694,0.05643 -2.158644,0.22324 -2.384216,0.273987 0,0 0.731169,0.505328 1.055787,0.691072 0.432138,0.246814 1.482267,0.704971 2.248962,0.939652 0.756286,0.231488 1.193751,0.207081 1.525226,-0.03009 z M 15.602756,14.363759 C 15.246118,13.988857 14.639684,13.206386 14.255137,12.624932 13.752201,11.965345 13.5,11.5 13.5,11.5 c 0,0 -0.367602,1.182376 -0.669189,1.893888 l -0.940902,2.325665 -0.272797,0.527527 c 0,0 1.450281,-0.475521 2.188169,-0.668262 0.781535,-0.204138 2.367687,-0.516041 2.367687,-0.516041 z M 13.579782,6.2511024 c 0.09097,-0.7633855 0.129573,-1.5256372 -0.115699,-1.9100227 -0.680314,-0.7437183 -1.501437,-0.1235172 -1.36235,1.6446228 0.0468,0.5948148 0.194566,1.6116291 0.392119,2.2383482 l 0.359193,1.1394717 0.252803,-0.8582142 C 13.244891,8.0332897 13.45816,7.0188958 13.57978,6.2511024 Z"
     style="fill:#DED3DD;fill-opacity:1;stroke-width:1.4843"
     id="path2697" />
  <rect
     class="cls-2"
     x="0"
     y="2.00019"
     width="19"
     height="9"
     id="rect116450"
     style="stroke-width:1" />
  <path
     class="cls-3"
     d="M 2.0692,9.0645465 H 0.99599995 v -1.0362 H 2.0692 Z"
     id="path116452"
     sodipodi:nodetypes="ccccc" />
  <path
     class="cls-3"
     d="m 7.1570609,6.8194465 c 0.028808,0.603464 -0.1443894,1.1993097 -0.4922,1.6933 -0.3223484,0.4278361 -0.8348503,0.6693105 -1.37,0.6455 -0.2488446,0.00501 -0.495693,-0.045339 -0.7227,-0.1474 -0.2117093,-0.099001 -0.3970663,-0.2465668 -0.541,-0.4307 v 2.3339975 h -1.0779 V 4.2541465 h 0.9092 l 0.1064,0.6045 c 0.1416384,-0.2137488 0.3324313,-0.3904482 0.5564,-0.5153 0.2328874,-0.1221008 0.4929036,-0.1832346 0.7558,-0.1777 0.5516257,-0.020227 1.0744205,0.2465047 1.3818,0.705 0.3526738,0.5525015 0.5253366,1.2007732 0.4942,1.8555 z m -1.0733,-0.0961 c 0.017118,-0.4192812 -0.078649,-0.8354683 -0.2773,-1.2051 -0.1639359,-0.3010165 -0.4846232,-0.4827819 -0.8271,-0.4688 -0.2002442,-0.0065 -0.3982608,0.043618 -0.5713,0.1446 -0.1590836,0.097902 -0.2892127,0.2364188 -0.377,0.4013 v 2.1713 c 0.08735,0.1619027 0.2178417,0.296444 0.377,0.3887 0.1778595,0.095918 0.3780485,0.1427549 0.58,0.1357 0.3269979,0.019928 0.6401492,-0.1345742 0.8233,-0.4062 0.1951912,-0.3210511 0.290045,-0.6930841 0.2724,-1.0684 z"
     id="path116454"
     sodipodi:nodetypes="cccccccccccccccccccccccccc" />
  <path
     class="cls-3"
     d="M 7.9109052,6.9776995 C 7.8796951,6.391004 8.0516136,5.810009 8.4031052,5.3143198 8.7105537,4.9024387 9.2344661,4.6631558 9.7868836,4.6823162 10.028937,4.6786916 10.26841,4.7273341 10.48508,4.824136 c 0.209809,0.096955 0.392433,0.2352032 0.5342,0.4043927 V 2.8569464 h 1.0771 v 6.217481 h -0.9043 L 11.08568,8.5404068 C 10.945101,8.7315641 10.755163,8.8895042 10.53198,9.0008281 10.299484,9.109408 10.040174,9.1636153 9.7780836,9.1584256 9.2413502,9.1806218 8.7269289,8.9641259 8.4031052,8.5797614 8.0552946,8.1369193 7.8820971,7.602768 7.9109052,7.0617873 Z m 1.0771,0.084088 c -0.018463,0.3328205 0.070003,0.6634002 0.2548938,0.9524875 0.1788264,0.2405706 0.4883952,0.3760768 0.809981,0.3545495 0.202947,0.00573 0.403607,-0.039776 0.5791,-0.1313312 0.163256,-0.092696 0.296851,-0.2218191 0.3877,-0.3747199 V 5.9814646 C 10.927162,5.8294945 10.792668,5.701364 10.62908,5.6093445 10.458014,5.517213 10.261176,5.4707506 10.06168,5.4754135 9.7238114,5.4611094 9.4073203,5.6236543 9.250199,5.8921773 9.0610203,6.2280586 8.9708954,6.6017594 8.9884052,6.9776995 Z"
     id="path116456"
     style="stroke-width:0.999998"
     sodipodi:nodetypes="cccccccccccccccccccccccccc" />
  <path
     class="cls-3"
     d="M 14.008888,9.0744274 V 5.9999986 h -0.7315 V 5.0001779 h 0.7315 V 4.260353 c -0.02921,-0.4043632 0.127054,-0.8018815 0.4326,-1.1004931 0.328792,-0.2714561 0.766732,-0.4111577 1.2129,-0.3869117 0.105254,4.307e-4 0.210332,0.00774 0.3144,0.021874 0.1065,0.014881 0.2266,0.035858 0.3594,0.062125 l -0.1113,0.7494397 c -0.0586,-0.010578 -0.125,-0.02017 -0.1973,-0.028059 -0.07712,-0.00831 -0.154727,-0.012408 -0.2324,-0.012281 -0.196137,-0.013102 -0.38863,0.052586 -0.5254,0.1792918 -0.126951,0.1465223 -0.189506,0.3297154 -0.1758,0.5148364 V 5 h 0.9756 v 1 h -0.9756 v 3.0744274 z"
     id="path116458"
     style="stroke-width:0.999998"
     sodipodi:nodetypes="ccccccccccccccccccccc" />
</svg>
