<?xml version="1.0" encoding="UTF-8" standalone="no"?>
<svg
   id="Слой_1"
   data-name="Слой 1"
   viewBox="0 0 24 24"
   version="1.1"
   sodipodi:docname="file_idf.svg"
   inkscape:version="1.2.2 (b0a8486541, 2022-12-01)"
   inkscape:export-filename="/Users/jeff/kicad_dev/kicad/bitmaps_png/png_26/file_idf.png"
   inkscape:export-xdpi="96"
   inkscape:export-ydpi="96"
   xmlns:inkscape="http://www.inkscape.org/namespaces/inkscape"
   xmlns:sodipodi="http://sodipodi.sourceforge.net/DTD/sodipodi-0.dtd"
   xmlns="http://www.w3.org/2000/svg"
   xmlns:svg="http://www.w3.org/2000/svg"
   xmlns:rdf="http://www.w3.org/1999/02/22-rdf-syntax-ns#"
   xmlns:cc="http://creativecommons.org/ns#"
   xmlns:dc="http://purl.org/dc/elements/1.1/">
  <sodipodi:namedview
     pagecolor="#ffffff"
     bordercolor="#666666"
     borderopacity="1"
     objecttolerance="10"
     gridtolerance="10"
     guidetolerance="10"
     inkscape:pageopacity="0"
     inkscape:pageshadow="2"
     inkscape:window-width="1446"
     inkscape:window-height="799"
     id="namedview30"
     showgrid="true"
     inkscape:zoom="27.961538"
     inkscape:cx="17.702889"
     inkscape:cy="12.89271"
     inkscape:window-x="0"
     inkscape:window-y="27"
     inkscape:window-maximized="0"
     inkscape:document-rotation="0"
     inkscape:current-layer="Слой_1"
     inkscape:showpageshadow="2"
     inkscape:pagecheckerboard="0"
     inkscape:deskcolor="#d1d1d1">
    <inkscape:grid
       type="xygrid"
       id="grid_kicad"
       spacingx="0.5"
       spacingy="0.5"
       color="#9999ff"
       opacity="0.13"
       empspacing="2" />
  </sodipodi:namedview>
  <metadata
     id="metadata43">
    <rdf:RDF>
      <cc:Work
         rdf:about="">
        <cc:license
           rdf:resource="http://creativecommons.org/licenses/by-sa/4.0/" />
        <dc:format>image/svg+xml</dc:format>
        <dc:type
           rdf:resource="http://purl.org/dc/dcmitype/StillImage" />
        <dc:title>export_idf</dc:title>
      </cc:Work>
      <cc:License
         rdf:about="http://creativecommons.org/licenses/by-sa/4.0/">
        <cc:permits
           rdf:resource="http://creativecommons.org/ns#Reproduction" />
        <cc:permits
           rdf:resource="http://creativecommons.org/ns#Distribution" />
        <cc:requires
           rdf:resource="http://creativecommons.org/ns#Notice" />
        <cc:requires
           rdf:resource="http://creativecommons.org/ns#Attribution" />
        <cc:permits
           rdf:resource="http://creativecommons.org/ns#DerivativeWorks" />
        <cc:requires
           rdf:resource="http://creativecommons.org/ns#ShareAlike" />
      </cc:License>
    </rdf:RDF>
  </metadata>
  <defs
     id="defs24749">
    <style
       id="style24747">.cls-1{fill:#8f8f8f;}.cls-2{fill:#42B8EB;}.cls-3{fill:#fff;}.cls-4{fill:#f2647e;}.cls-5{fill:none;stroke:#545454;stroke-linecap:round;stroke-linejoin:round;stroke-width:2px;}</style>
  </defs>
  <title
     id="title24751">export_idf</title>
  <rect
     class="cls-1"
     x="3.0000002"
     y="0"
     width="21"
     height="24"
     rx="3.5045271"
     id="rect24753"
     style="stroke-width:1" />
  <path
     style="fill:none;stroke:#ded3dd;stroke-width:1px;stroke-linecap:butt;stroke-linejoin:bevel;stroke-opacity:1"
     d="m 12.1,10.9 -5,1 v 5 l 5,-1 8,2.5 v -5 z"
     id="path859"
     sodipodi:nodetypes="ccccccc"
     inkscape:connector-curvature="0" />
  <path
     style="fill:none;stroke:#ded3dd;stroke-width:1px;stroke-linecap:butt;stroke-linejoin:miter;stroke-opacity:1"
     d="m 12.1,10.9 v 5"
     id="path861"
     inkscape:connector-curvature="0" />
  <rect
     class="cls-2"
     x="0.0055999756"
     y="3.0004001"
     width="19"
     height="9"
     id="rect24755"
     style="stroke-width:0.999998" />
  <path
     class="cls-3"
     d="M 2.0742,10.970815 H 1.001 V 9.934717 h 1.0732 z"
     id="path24757" />
  <path
     class="cls-3"
     d="m 4.0019856,4.982517 h -1.0771 v -0.9473 h 1.0771 z m 0,5.988298 h -1.0771 V 6.160217 h 1.0771 z"
     id="path24759" />
  <path
     class="cls-3"
     d="m 5.7965804,8.631917 a 3.1762,3.1762 0 0 1 0.4922,-1.8554 1.591,1.591 0 0 1 1.3838,-0.7051 1.5085,1.5085 0 0 1 0.6982,0.1582 1.5652,1.5652 0 0 1 0.5338,0.4512 v -2.6456 h 1.0772 v 6.935598 h -0.9039 l -0.1065,-0.5957 a 1.5884,1.5884 0 0 1 -0.5537,0.5137 1.5582,1.5582 0 0 1 -0.7539,0.1757 1.6291,1.6291 0 0 1 -1.375,-0.6455 2.7163,2.7163 0 0 1 -0.4922,-1.693298 z m 1.0772,0.0938 a 1.9413,1.9413 0 0 0 0.2549,1.0625 0.8932,0.8932 0 0 0 0.8095,0.395498 1.0824,1.0824 0 0 0 0.5791,-0.146498 1.1156,1.1156 0 0 0 0.3873,-0.4184 v -2.0982 a 1.1269,1.1269 0 0 0 -0.39,-0.415 1.0476,1.0476 0 0 0 -0.5674,-0.1495 0.87,0.87 0 0 0 -0.8115,0.4649 2.46,2.46 0 0 0 -0.2617,1.2109 z"
     id="path24761" />
  <path
     class="cls-3"
     d="M 11.919134,10.970815 V 6.960817 h -0.7315 v -0.8006 h 0.7315 v -0.5595 a 1.6576,1.6576 0 0 1 0.4326,-1.2276 1.6436,1.6436 0 0 1 1.2129,-0.4316 2.1675,2.1675 0 0 1 0.3145,0.0244 c 0.1064,0.0166 0.2265,0.04 0.3593,0.0693 l -0.1113,0.836 c -0.0586,-0.0117 -0.125,-0.0225 -0.1973,-0.0313 a 1.9182,1.9182 0 0 0 -0.2324,-0.0136 0.6622,0.6622 0 0 0 -0.5254,0.2 0.8447,0.8447 0 0 0 -0.1758,0.5742 v 0.5595 h 0.9756 v 0.8008 h -0.9756 v 4.009998 z"
     id="path24763" />
  <path
     style="fill:none;stroke:#ded3dd;stroke-width:1px;stroke-linecap:round;stroke-linejoin:miter;stroke-opacity:1"
     d="m 7.1,16.9 8.5,2.5 4.5,-1"
     id="path863"
     sodipodi:nodetypes="ccc"
     inkscape:connector-curvature="0" />
</svg>
