<?xml version="1.0" encoding="UTF-8" standalone="no"?>
<svg
   viewBox="0 0 16 16"
   version="1.1"
   id="svg5496"
   sodipodi:docname="icon_kicad_16.svg"
   width="16"
   height="16"
   inkscape:version="1.2.2 (732a01da63, 2022-12-09)"
   xmlns:inkscape="http://www.inkscape.org/namespaces/inkscape"
   xmlns:sodipodi="http://sodipodi.sourceforge.net/DTD/sodipodi-0.dtd"
   xmlns:xlink="http://www.w3.org/1999/xlink"
   xmlns="http://www.w3.org/2000/svg"
   xmlns:svg="http://www.w3.org/2000/svg"
   xmlns:rdf="http://www.w3.org/1999/02/22-rdf-syntax-ns#"
   xmlns:cc="http://creativecommons.org/ns#"
   xmlns:dc="http://purl.org/dc/elements/1.1/">
  <metadata
     id="metadata5500">
    <rdf:RDF>
      <cc:Work
         rdf:about="">
        <dc:title>app_icon</dc:title>
      </cc:Work>
    </rdf:RDF>
  </metadata>
  <sodipodi:namedview
     pagecolor="#ffffff"
     bordercolor="#666666"
     borderopacity="1"
     objecttolerance="10"
     gridtolerance="10"
     guidetolerance="10"
     inkscape:pageopacity="0"
     inkscape:pageshadow="2"
     inkscape:window-width="1920"
     inkscape:window-height="1009"
     id="namedview5498"
     showgrid="true"
     inkscape:zoom="16"
     inkscape:cx="-3.34375"
     inkscape:cy="15.3125"
     inkscape:window-x="344"
     inkscape:window-y="1432"
     inkscape:window-maximized="1"
     inkscape:current-layer="g5494"
     inkscape:document-rotation="0"
     inkscape:showpageshadow="2"
     inkscape:pagecheckerboard="0"
     inkscape:deskcolor="#d1d1d1">
    <inkscape:grid
       type="xygrid"
       id="grid6065"
       spacingx="0.5"
       spacingy="0.5"
       empspacing="2"
       originx="0"
       originy="0" />
  </sodipodi:namedview>
  <defs
     id="defs5435">
    <style
       id="style5390">.cls-1{fill:none;}.cls-2{isolation:isolate;}.cls-15,.cls-3{mix-blend-mode:overlay;}.cls-4{clip-path:url(#clip-path);}.cls-16,.cls-5{opacity:0.75;}.cls-5,.cls-7{mix-blend-mode:multiply;}.cls-6{clip-path:url(#clip-path-2);}.cls-7{opacity:0.6;}.cls-8{fill:url(#Безымянный_градиент_10);}.cls-9{mix-blend-mode:saturation;fill:url(#Безымянный_градиент_28);}.cls-10{clip-path:url(#clip-path-3);}.cls-11,.cls-16{fill:#fff;}.cls-12{fill:url(#Безымянный_градиент_114);}.cls-13{fill:url(#Безымянный_градиент_104);}.cls-14{fill:#ff6d00;}.cls-15{opacity:0.5;}</style>
    <clipPath
       id="clip-path">
      <rect
         class="cls-1"
         y="123.3231"
         width="94"
         height="94"
         rx="20.888901"
         id="rect5392"
         x="0" />
    </clipPath>
    <clipPath
       id="clip-path-2">
      <rect
         class="cls-1"
         x="119.6252"
         width="100"
         height="100"
         rx="22.2222"
         id="rect5395"
         y="0" />
    </clipPath>
    <linearGradient
       id="Безымянный_градиент_10"
       x1="50.0093"
       x2="50.0093"
       y2="100"
       gradientUnits="userSpaceOnUse"
       gradientTransform="matrix(0.35102657,0,0,0.35102656,0.41176032,3.419929)">
      <stop
         offset="0"
         stop-color="#2b4bb7"
         id="stop5398" />
      <stop
         offset="1"
         stop-color="#2b2fb7"
         id="stop5400" />
    </linearGradient>
    <radialGradient
       id="Безымянный_градиент_28"
       cx="50.0093"
       cy="23.271601"
       r="28.023199"
       gradientTransform="matrix(0,-0.35102656,0.62588036,0,3.4009619,29.143473)"
       gradientUnits="userSpaceOnUse">
      <stop
         offset="0"
         stop-color="#2b4bed"
         id="stop5403" />
      <stop
         offset="1"
         stop-color="#2b2fb7"
         id="stop5405" />
    </radialGradient>
    <clipPath
       id="clip-path-3">
      <rect
         class="cls-1"
         x="0.0093"
         width="100"
         height="100"
         rx="22.2222"
         id="rect5408"
         y="0" />
    </clipPath>
    <radialGradient
       id="Безымянный_градиент_114"
       cx="47.3605"
       cy="53.197102"
       r="38.302299"
       gradientUnits="userSpaceOnUse">
      <stop
         offset="0.0007"
         stop-color="#fff"
         stop-opacity="0"
         id="stop5411" />
      <stop
         offset="0.1476"
         stop-color="#fbfbfb"
         stop-opacity="0.039"
         id="stop5413" />
      <stop
         offset="0.3723"
         stop-color="#f1f1f1"
         stop-opacity="0.1465"
         id="stop5415" />
      <stop
         offset="0.6466"
         stop-color="#e0e0e0"
         stop-opacity="0.3222"
         id="stop5417" />
      <stop
         offset="0.9576"
         stop-color="#c9c9c8"
         stop-opacity="0.5641"
         id="stop5419" />
      <stop
         offset="1"
         stop-color="#c6c6c5"
         stop-opacity="0.6"
         id="stop5421" />
    </radialGradient>
    <linearGradient
       id="Безымянный_градиент_104"
       x1="76.367302"
       y1="17.9571"
       x2="76.367302"
       y2="33.4328"
       gradientUnits="userSpaceOnUse">
      <stop
         offset="0"
         stop-color="#ff6d00"
         id="stop5424" />
      <stop
         offset="0.3523"
         stop-color="#ff8a33"
         id="stop5426" />
      <stop
         offset="0.8443"
         stop-color="#ff5c00"
         id="stop5428" />
      <stop
         offset="0.9688"
         stop-color="#ff4800"
         id="stop5430" />
      <stop
         offset="1"
         stop-color="#ff5c00"
         id="stop5432" />
    </linearGradient>
    <radialGradient
       inkscape:collect="always"
       xlink:href="#%D0%91%D0%B5%D0%B7%D1%8B%D0%BC%D1%8F%D0%BD%D0%BD%D1%8B%D0%B9_%D0%B3%D1%80%D0%B0%D0%B4%D0%B8%D0%B5%D0%BD%D1%82_114"
       id="radialGradient6102"
       gradientUnits="userSpaceOnUse"
       cx="47.3605"
       cy="53.197102"
       r="38.302299"
       gradientTransform="matrix(0.35102657,0,0,0.35102656,0.41176032,3.419929)" />
    <radialGradient
       inkscape:collect="always"
       xlink:href="#%D0%91%D0%B5%D0%B7%D1%8B%D0%BC%D1%8F%D0%BD%D0%BD%D1%8B%D0%B9_%D0%B3%D1%80%D0%B0%D0%B4%D0%B8%D0%B5%D0%BD%D1%82_114"
       id="radialGradient6104"
       gradientUnits="userSpaceOnUse"
       cx="47.3605"
       cy="53.197102"
       r="38.302299"
       gradientTransform="matrix(0.35102657,0,0,0.35102656,0.41176032,3.419929)" />
  </defs>
  <title
     id="title5437">app_icon</title>
  <g
     class="cls-2"
     id="g5494"
     transform="matrix(0.45580592,0,0,0.45580592,0.19877576,-1.2081645)"
     style="stroke-width:2.19392">
    <rect
       class="cls-8"
       x="-0.43609735"
       width="35.102657"
       height="35.102661"
       rx="7.8005829"
       id="rect5459"
       y="2.6506116"
       style="fill:url(#%D0%91%D0%B5%D0%B7%D1%8B%D0%BC%D1%8F%D0%BD%D0%BD%D1%8B%D0%B9_%D0%B3%D1%80%D0%B0%D0%B4%D0%B8%D0%B5%D0%BD%D1%82_10);stroke-width:0.764313"
       ry="7.7887912" />
    <rect
       class="cls-9"
       x="-0.43609735"
       width="35.102657"
       height="35.102661"
       rx="7.8005829"
       id="rect5461"
       y="2.6506116"
       style="fill:url(#%D0%91%D0%B5%D0%B7%D1%8B%D0%BC%D1%8F%D0%BD%D0%BD%D1%8B%D0%B9_%D0%B3%D1%80%D0%B0%D0%B4%D0%B8%D0%B5%D0%BD%D1%82_28);stroke-width:0.764313"
       ry="7.7887912" />
    <g
       class="cls-3"
       id="g5469"
       style="stroke-width:2.17737"
       transform="matrix(1.0068401,0,0,1.0083645,-0.44546094,2.6506114)">
      <g
         class="cls-10"
         clip-path="url(#clip-path-3)"
         id="g5467"
         style="stroke-width:2.17737">
        <g
           class="cls-5"
           id="g5465"
           style="stroke-width:2.17737" />
      </g>
    </g>
    <g
       class="cls-7"
       id="g5473"
       style="stroke-width:2.18767"
       transform="matrix(1.0057237,0,0,1,-0.48582001,2.6345743)" />
    <path
       class="cls-11"
       d="m 10.491149,18.311487 3.897869,-4.929993 q 1.194789,-1.507589 1.195035,-2.254503 a 1.1506651,1.1506651 0 0 0 -0.06789,-0.434606 h 6.804158 a 7.7587399,7.7587402 0 0 0 -1.940018,1.83478 q -0.366613,0.434852 -1.099205,1.345521 l -5.109507,6.35358 6.098173,8.393293 q 0.43415,0.597798 1.412216,1.711289 a 6.5505766,6.5505774 0 0 0 0.665546,0.583897 h -6.980654 a 2.2307036,2.2307037 0 0 0 0.08123,-0.556903 q 0,-0.746528 -1.032019,-2.159375 L 10.49115,22.847698 v 5.418693 q 0,1.887856 0.760639,2.64839 H 4.868546 a 2.4247861,2.4247863 0 0 0 0.6792359,-1.208726 8.2666752,8.2666756 0 0 0 0.081403,-1.42594 V 13.32719 A 8.2705019,8.2705022 0 0 0 5.5477819,11.90125 2.4255935,2.4255937 0 0 0 4.868546,10.692525 h 6.383242 q -0.760639,0.76064 -0.760639,2.634665 z"
       id="path5475"
       style="stroke-width:0.764313" />
    <path
       class="cls-11"
       d="M 28.730945,16.057018 V 28.5245 a 8.7707846,8.7707856 0 0 0 0.05417,1.276649 2.1950042,2.1950043 0 0 0 0.570418,1.113632 h -5.975736 a 2.1988304,2.1988305 0 0 0 0.570418,-1.113632 9.0280872,9.0280876 0 0 0 0.05417,-1.276649 V 18.420094 A 8.6987892,8.6987896 0 0 0 23.950209,17.157171 2.2422523,2.2422525 0 0 0 23.39327,16.057018 Z M 26.367483,8.9540307 a 2.7244926,2.7244929 0 0 1 2.716314,2.7163143 2.7162086,2.7162089 0 0 1 -5.432417,0 2.6899516,2.6899518 0 0 1 2.716103,-2.7163143 z"
       id="path5477"
       style="stroke-width:0.764313" />
    <path
       class="cls-12"
       d="m 10.491149,18.311487 3.897869,-4.929993 q 1.194789,-1.507589 1.195035,-2.254503 a 1.1506651,1.1506651 0 0 0 -0.06789,-0.434606 h 6.804158 a 7.7587399,7.7587402 0 0 0 -1.940018,1.83478 q -0.366613,0.434852 -1.099205,1.345521 l -5.109507,6.35358 6.098173,8.393293 q 0.43415,0.597798 1.412216,1.711289 a 6.5505766,6.5505774 0 0 0 0.665546,0.583897 h -6.980654 a 2.2307036,2.2307037 0 0 0 0.08123,-0.556903 q 0,-0.746528 -1.032019,-2.159375 L 10.49115,22.847698 v 5.418693 q 0,1.887856 0.760639,2.64839 H 4.868546 a 2.4247861,2.4247863 0 0 0 0.6792359,-1.208726 8.2666752,8.2666756 0 0 0 0.081403,-1.42594 V 13.32719 A 8.2705019,8.2705022 0 0 0 5.5477819,11.90125 2.4255935,2.4255937 0 0 0 4.868546,10.692525 h 6.383242 q -0.760639,0.76064 -0.760639,2.634665 z"
       id="path5479"
       style="fill:url(#radialGradient6102);stroke-width:0.764313" />
    <path
       class="cls-12"
       d="M 28.730945,16.057018 V 28.5245 a 8.7707846,8.7707856 0 0 0 0.05417,1.276649 2.1950042,2.1950043 0 0 0 0.570418,1.113632 h -5.975736 a 2.1988304,2.1988305 0 0 0 0.570418,-1.113632 9.0280872,9.0280876 0 0 0 0.05417,-1.276649 V 18.420094 A 8.6987892,8.6987896 0 0 0 23.950209,17.157171 2.2422523,2.2422525 0 0 0 23.39327,16.057018 Z M 26.367483,8.9540307 a 2.7244926,2.7244929 0 0 1 2.716314,2.7163143 2.7162086,2.7162089 0 0 1 -5.432417,0 2.6899516,2.6899518 0 0 1 2.716103,-2.7163143 z"
       id="path5481"
       style="fill:url(#radialGradient6104);stroke-width:0.764313" />
    <g
       class="cls-15"
       id="g5489"
       style="stroke-width:2.18767"
       transform="matrix(1.0057237,0,0,1,-0.48582001,2.6345743)" />
    <path
       class="cls-16"
       d="m 5.6296065,13.374263 c -0.02959,-0.452824 -0.073716,-0.905017 -0.115031,-1.354401 A 1.5111342,1.5111343 0 0 0 5.359948,11.388014 5.3974897,5.3974899 0 0 0 5.0058325,10.822054 l -0.084739,-0.119349 0.1470455,-0.0035 q 1.5453946,-0.03861 3.0913153,-0.04159 c 0.515202,-0.007 1.0306486,0.0031 1.5459906,0.005 0.5153411,6.66e-4 1.0309301,0.02081 1.5463421,0.03029 -0.514991,0.02349 -1.02984,0.0576 -1.5449381,0.07235 -0.515096,0.0159 -1.0300866,0.03995 -1.5452886,0.04704 q -1.5454293,0.03823 -3.0913153,0.04255 l 0.062273,-0.12286 a 4.2415241,4.2415242 0 0 1 0.3524305,0.59492 1.0636105,1.0636106 0 0 1 0.106923,0.341339 c 0.015585,0.116119 0.02229,0.229571 0.028925,0.343585 0.02745,0.454439 0.014605,0.908737 0.00881,1.362475 z"
       id="path5491"
       style="stroke-width:0.764313" />
    <circle
       style="fill:#ff6d00;fill-opacity:1;stroke-width:1.52863;stroke-linecap:round;stroke-linejoin:round"
       id="path6063"
       cx="26.272205"
       cy="11.749831"
       r="2.8400364" />
  </g>
</svg>
