<?xml version="1.0" encoding="UTF-8" standalone="no"?>
<svg
   viewBox="0 0 24 24"
   version="1.1"
   id="svg5496"
   sodipodi:docname="icon_kicad_24.svg"
   width="24"
   height="24"
   inkscape:version="1.2.2 (732a01da63, 2022-12-09)"
   xmlns:inkscape="http://www.inkscape.org/namespaces/inkscape"
   xmlns:sodipodi="http://sodipodi.sourceforge.net/DTD/sodipodi-0.dtd"
   xmlns:xlink="http://www.w3.org/1999/xlink"
   xmlns="http://www.w3.org/2000/svg"
   xmlns:svg="http://www.w3.org/2000/svg"
   xmlns:rdf="http://www.w3.org/1999/02/22-rdf-syntax-ns#"
   xmlns:cc="http://creativecommons.org/ns#"
   xmlns:dc="http://purl.org/dc/elements/1.1/">
  <metadata
     id="metadata5500">
    <rdf:RDF>
      <cc:Work
         rdf:about="">
        <dc:title>app_icon</dc:title>
      </cc:Work>
    </rdf:RDF>
  </metadata>
  <sodipodi:namedview
     pagecolor="#ffffff"
     bordercolor="#666666"
     borderopacity="1"
     objecttolerance="10"
     gridtolerance="10"
     guidetolerance="10"
     inkscape:pageopacity="0"
     inkscape:pageshadow="2"
     inkscape:window-width="1920"
     inkscape:window-height="1009"
     id="namedview5498"
     showgrid="true"
     inkscape:zoom="16"
     inkscape:cx="4.59375"
     inkscape:cy="15.3125"
     inkscape:window-x="344"
     inkscape:window-y="1432"
     inkscape:window-maximized="1"
     inkscape:current-layer="g5494"
     inkscape:document-rotation="0"
     inkscape:showpageshadow="2"
     inkscape:pagecheckerboard="0"
     inkscape:deskcolor="#d1d1d1">
    <inkscape:grid
       type="xygrid"
       id="grid6065"
       spacingx="0.5"
       spacingy="0.5"
       empspacing="2"
       originx="0"
       originy="0" />
  </sodipodi:namedview>
  <defs
     id="defs5435">
    <style
       id="style5390">.cls-1{fill:none;}.cls-2{isolation:isolate;}.cls-15,.cls-3{mix-blend-mode:overlay;}.cls-4{clip-path:url(#clip-path);}.cls-16,.cls-5{opacity:0.75;}.cls-5,.cls-7{mix-blend-mode:multiply;}.cls-6{clip-path:url(#clip-path-2);}.cls-7{opacity:0.6;}.cls-8{fill:url(#Безымянный_градиент_10);}.cls-9{mix-blend-mode:saturation;fill:url(#Безымянный_градиент_28);}.cls-10{clip-path:url(#clip-path-3);}.cls-11,.cls-16{fill:#fff;}.cls-12{fill:url(#Безымянный_градиент_114);}.cls-13{fill:url(#Безымянный_градиент_104);}.cls-14{fill:#ff6d00;}.cls-15{opacity:0.5;}</style>
    <clipPath
       id="clip-path">
      <rect
         class="cls-1"
         y="123.3231"
         width="94"
         height="94"
         rx="20.888901"
         id="rect5392"
         x="0" />
    </clipPath>
    <clipPath
       id="clip-path-2">
      <rect
         class="cls-1"
         x="119.6252"
         width="100"
         height="100"
         rx="22.2222"
         id="rect5395"
         y="0" />
    </clipPath>
    <linearGradient
       id="Безымянный_градиент_10"
       x1="50.0093"
       x2="50.0093"
       y2="100"
       gradientUnits="userSpaceOnUse"
       gradientTransform="matrix(0.52653986,0,0,0.52653983,0.83568917,3.8045877)">
      <stop
         offset="0"
         stop-color="#2b4bb7"
         id="stop5398" />
      <stop
         offset="1"
         stop-color="#2b2fb7"
         id="stop5400" />
    </linearGradient>
    <radialGradient
       id="Безымянный_градиент_28"
       cx="50.0093"
       cy="23.271601"
       r="28.023199"
       gradientTransform="matrix(0,-0.52653983,0.93882055,0,5.3194916,42.389903)"
       gradientUnits="userSpaceOnUse">
      <stop
         offset="0"
         stop-color="#2b4bed"
         id="stop5403" />
      <stop
         offset="1"
         stop-color="#2b2fb7"
         id="stop5405" />
    </radialGradient>
    <clipPath
       id="clip-path-3">
      <rect
         class="cls-1"
         x="0.0093"
         width="100"
         height="100"
         rx="22.2222"
         id="rect5408"
         y="0" />
    </clipPath>
    <radialGradient
       id="Безымянный_градиент_114"
       cx="47.3605"
       cy="53.197102"
       r="38.302299"
       gradientUnits="userSpaceOnUse">
      <stop
         offset="0.0007"
         stop-color="#fff"
         stop-opacity="0"
         id="stop5411" />
      <stop
         offset="0.1476"
         stop-color="#fbfbfb"
         stop-opacity="0.039"
         id="stop5413" />
      <stop
         offset="0.3723"
         stop-color="#f1f1f1"
         stop-opacity="0.1465"
         id="stop5415" />
      <stop
         offset="0.6466"
         stop-color="#e0e0e0"
         stop-opacity="0.3222"
         id="stop5417" />
      <stop
         offset="0.9576"
         stop-color="#c9c9c8"
         stop-opacity="0.5641"
         id="stop5419" />
      <stop
         offset="1"
         stop-color="#c6c6c5"
         stop-opacity="0.6"
         id="stop5421" />
    </radialGradient>
    <linearGradient
       id="Безымянный_градиент_104"
       x1="76.367302"
       y1="17.9571"
       x2="76.367302"
       y2="33.4328"
       gradientUnits="userSpaceOnUse">
      <stop
         offset="0"
         stop-color="#ff6d00"
         id="stop5424" />
      <stop
         offset="0.3523"
         stop-color="#ff8a33"
         id="stop5426" />
      <stop
         offset="0.8443"
         stop-color="#ff5c00"
         id="stop5428" />
      <stop
         offset="0.9688"
         stop-color="#ff4800"
         id="stop5430" />
      <stop
         offset="1"
         stop-color="#ff5c00"
         id="stop5432" />
    </linearGradient>
    <radialGradient
       inkscape:collect="always"
       xlink:href="#%D0%91%D0%B5%D0%B7%D1%8B%D0%BC%D1%8F%D0%BD%D0%BD%D1%8B%D0%B9_%D0%B3%D1%80%D0%B0%D0%B4%D0%B8%D0%B5%D0%BD%D1%82_114"
       id="radialGradient6102"
       gradientUnits="userSpaceOnUse"
       cx="47.3605"
       cy="53.197102"
       r="38.302299"
       gradientTransform="matrix(0.52653986,0,0,0.52653983,0.83568917,3.8045877)" />
    <radialGradient
       inkscape:collect="always"
       xlink:href="#%D0%91%D0%B5%D0%B7%D1%8B%D0%BC%D1%8F%D0%BD%D0%BD%D1%8B%D0%B9_%D0%B3%D1%80%D0%B0%D0%B4%D0%B8%D0%B5%D0%BD%D1%82_114"
       id="radialGradient6104"
       gradientUnits="userSpaceOnUse"
       cx="47.3605"
       cy="53.197102"
       r="38.302299"
       gradientTransform="matrix(0.52653986,0,0,0.52653983,0.83568917,3.8045877)" />
  </defs>
  <title
     id="title5437">app_icon</title>
  <g
     class="cls-2"
     id="g5494"
     transform="matrix(0.45580592,0,0,0.45580592,0.19877576,-1.2081645)"
     style="stroke-width:2.19392">
    <rect
       class="cls-8"
       x="-0.43609735"
       width="52.653988"
       height="52.653988"
       rx="11.700874"
       id="rect5459"
       y="2.6506116"
       style="fill:url(#%D0%91%D0%B5%D0%B7%D1%8B%D0%BC%D1%8F%D0%BD%D0%BD%D1%8B%D0%B9_%D0%B3%D1%80%D0%B0%D0%B4%D0%B8%D0%B5%D0%BD%D1%82_10);stroke-width:1.14647"
       ry="11.683187" />
    <rect
       class="cls-9"
       x="-0.43609735"
       width="52.653988"
       height="52.653988"
       rx="11.700874"
       id="rect5461"
       y="2.6506116"
       style="fill:url(#%D0%91%D0%B5%D0%B7%D1%8B%D0%BC%D1%8F%D0%BD%D0%BD%D1%8B%D0%B9_%D0%B3%D1%80%D0%B0%D0%B4%D0%B8%D0%B5%D0%BD%D1%82_28);stroke-width:1.14647"
       ry="11.683187" />
    <g
       class="cls-3"
       id="g5469"
       style="stroke-width:2.17737"
       transform="matrix(1.0068401,0,0,1.0083645,-0.44546094,2.6506114)">
      <g
         class="cls-10"
         clip-path="url(#clip-path-3)"
         id="g5467"
         style="stroke-width:2.17737">
        <g
           class="cls-5"
           id="g5465"
           style="stroke-width:2.17737" />
      </g>
    </g>
    <g
       class="cls-7"
       id="g5473"
       style="stroke-width:2.18767"
       transform="matrix(1.0057237,0,0,1,-0.48582001,2.6345743)" />
    <path
       class="cls-11"
       d="m 15.954772,26.141924 5.846804,-7.394989 q 1.792183,-2.261383 1.792552,-3.381755 a 1.7259976,1.7259976 0 0 0 -0.101833,-0.651909 h 10.206237 a 11.63811,11.63811 0 0 0 -2.910027,2.752171 q -0.549919,0.652278 -1.648807,2.01828 l -7.664261,9.530371 9.14726,12.589938 q 0.651225,0.896697 2.118323,2.566934 a 9.825865,9.8258658 0 0 0 0.99832,0.875846 H 23.268358 A 3.3460554,3.3460555 0 0 0 23.3902,44.211456 q 0,-1.119792 -1.548028,-3.239063 l -5.8874,-8.026152 v 8.128038 q 0,2.831784 1.140959,3.972585 H 7.5208678 a 3.6371792,3.6371794 0 0 0 1.0188539,-1.813088 12.400013,12.400013 0 0 0 0.1221045,-2.13891 V 18.665479 A 12.405753,12.405753 0 0 0 8.5397217,16.526569 3.6383903,3.6383905 0 0 0 7.5208678,14.713482 h 9.5748632 q -1.140959,1.140959 -1.140959,3.951997 z"
       id="path5475"
       style="stroke-width:1.14647" />
    <path
       class="cls-11"
       d="m 43.314466,22.760221 v 18.701222 a 13.156177,13.156178 0 0 0 0.08125,1.914973 3.2925063,3.2925064 0 0 0 0.855627,1.670448 h -8.963604 a 3.2982456,3.2982457 0 0 0 0.855627,-1.670448 13.542131,13.542131 0 0 0 0.08125,-1.914973 V 26.304835 A 13.048184,13.048184 0 0 0 36.143362,24.41045 3.3633785,3.3633787 0 0 0 35.307954,22.760221 Z M 39.769273,12.10574 a 4.086739,4.0867392 0 0 1 4.074472,4.074472 4.074313,4.0743132 0 0 1 -8.148626,0 4.0349274,4.0349276 0 0 1 4.074154,-4.074472 z"
       id="path5477"
       style="stroke-width:1.14647" />
    <path
       class="cls-12"
       d="m 15.954772,26.141924 5.846804,-7.394989 q 1.792183,-2.261383 1.792552,-3.381755 a 1.7259976,1.7259976 0 0 0 -0.101833,-0.651909 h 10.206237 a 11.63811,11.63811 0 0 0 -2.910027,2.752171 q -0.549919,0.652278 -1.648807,2.01828 l -7.664261,9.530371 9.14726,12.589938 q 0.651225,0.896697 2.118323,2.566934 a 9.825865,9.8258658 0 0 0 0.99832,0.875846 H 23.268358 A 3.3460554,3.3460555 0 0 0 23.3902,44.211456 q 0,-1.119792 -1.548028,-3.239063 l -5.8874,-8.026152 v 8.128038 q 0,2.831784 1.140959,3.972585 H 7.5208678 a 3.6371792,3.6371794 0 0 0 1.0188539,-1.813088 12.400013,12.400013 0 0 0 0.1221045,-2.13891 V 18.665479 A 12.405753,12.405753 0 0 0 8.5397217,16.526569 3.6383903,3.6383905 0 0 0 7.5208678,14.713482 h 9.5748632 q -1.140959,1.140959 -1.140959,3.951997 z"
       id="path5479"
       style="fill:url(#radialGradient6102);stroke-width:1.14647" />
    <path
       class="cls-12"
       d="m 43.314466,22.760221 v 18.701222 a 13.156177,13.156178 0 0 0 0.08125,1.914973 3.2925063,3.2925064 0 0 0 0.855627,1.670448 h -8.963604 a 3.2982456,3.2982457 0 0 0 0.855627,-1.670448 13.542131,13.542131 0 0 0 0.08125,-1.914973 V 26.304835 A 13.048184,13.048184 0 0 0 36.143362,24.41045 3.3633785,3.3633787 0 0 0 35.307954,22.760221 Z M 39.769273,12.10574 a 4.086739,4.0867392 0 0 1 4.074472,4.074472 4.074313,4.0743132 0 0 1 -8.148626,0 4.0349274,4.0349276 0 0 1 4.074154,-4.074472 z"
       id="path5481"
       style="fill:url(#radialGradient6104);stroke-width:1.14647" />
    <g
       class="cls-15"
       id="g5489"
       style="stroke-width:2.18767"
       transform="matrix(1.0057237,0,0,1,-0.48582001,2.6345743)" />
    <path
       class="cls-16"
       d="M 8.6624585,18.736088 C 8.6180735,18.056852 8.5518845,17.378563 8.489912,16.704487 A 2.2667013,2.2667014 0 0 0 8.2579708,15.756715 8.0962346,8.0962346 0 0 0 7.7267975,14.907775 l -0.1271077,-0.179023 0.2205682,-0.0053 q 2.318092,-0.05792 4.636973,-0.06239 c 0.772803,-0.01053 1.545973,0.0047 2.318986,0.0075 0.773013,0.001 1.546395,0.03122 2.319514,0.04544 -0.772486,0.03523 -1.544762,0.0864 -2.317408,0.108519 -0.772644,0.02385 -1.54513,0.05992 -2.317933,0.07056 q -2.318144,0.05734 -4.636973,0.06382 l 0.093409,-0.184289 a 6.3622862,6.3622862 0 0 1 0.5286457,0.89238 1.5954157,1.5954158 0 0 1 0.1603845,0.512008 c 0.023378,0.174179 0.033435,0.344357 0.043388,0.515377 0.041175,0.681659 0.021907,1.363106 0.013215,2.043712 z"
       id="path5491"
       style="stroke-width:1.14647" />
    <circle
       style="fill:#ff6d00;fill-opacity:1;stroke-width:2.29294;stroke-linecap:round;stroke-linejoin:round"
       id="path6063"
       cx="39.626358"
       cy="16.29944"
       r="4.2600546" />
  </g>
</svg>
