<?xml version="1.0" encoding="UTF-8" standalone="no"?>
<svg
   viewBox="0 0 32 32"
   version="1.1"
   id="svg5496"
   sodipodi:docname="icon_kicad_nightly_32.svg"
   width="32"
   height="32"
   inkscape:version="1.2.2 (732a01da63, 2022-12-09)"
   xmlns:inkscape="http://www.inkscape.org/namespaces/inkscape"
   xmlns:sodipodi="http://sodipodi.sourceforge.net/DTD/sodipodi-0.dtd"
   xmlns:xlink="http://www.w3.org/1999/xlink"
   xmlns="http://www.w3.org/2000/svg"
   xmlns:svg="http://www.w3.org/2000/svg"
   xmlns:rdf="http://www.w3.org/1999/02/22-rdf-syntax-ns#"
   xmlns:cc="http://creativecommons.org/ns#"
   xmlns:dc="http://purl.org/dc/elements/1.1/">
  <metadata
     id="metadata5500">
    <rdf:RDF>
      <cc:Work
         rdf:about="">
        <dc:format>image/svg+xml</dc:format>
        <dc:type
           rdf:resource="http://purl.org/dc/dcmitype/StillImage" />
        <dc:title>app_icon</dc:title>
        <cc:license
           rdf:resource="http://creativecommons.org/licenses/by-sa/4.0/" />
      </cc:Work>
      <cc:License
         rdf:about="http://creativecommons.org/licenses/by-sa/4.0/">
        <cc:permits
           rdf:resource="http://creativecommons.org/ns#Reproduction" />
        <cc:permits
           rdf:resource="http://creativecommons.org/ns#Distribution" />
        <cc:requires
           rdf:resource="http://creativecommons.org/ns#Notice" />
        <cc:requires
           rdf:resource="http://creativecommons.org/ns#Attribution" />
        <cc:permits
           rdf:resource="http://creativecommons.org/ns#DerivativeWorks" />
        <cc:requires
           rdf:resource="http://creativecommons.org/ns#ShareAlike" />
      </cc:License>
    </rdf:RDF>
  </metadata>
  <sodipodi:namedview
     pagecolor="#ffffff"
     bordercolor="#666666"
     borderopacity="1"
     objecttolerance="10"
     gridtolerance="10"
     guidetolerance="10"
     inkscape:pageopacity="0"
     inkscape:pageshadow="2"
     inkscape:window-width="1920"
     inkscape:window-height="1009"
     id="namedview5498"
     showgrid="true"
     inkscape:zoom="11.313708"
     inkscape:cx="16.661204"
     inkscape:cy="24.571961"
     inkscape:window-x="344"
     inkscape:window-y="1432"
     inkscape:window-maximized="1"
     inkscape:current-layer="g5494"
     inkscape:pagecheckerboard="0"
     inkscape:showpageshadow="2"
     inkscape:deskcolor="#d1d1d1">
    <inkscape:grid
       type="xygrid"
       id="grid6065"
       spacingx="0.5"
       spacingy="0.5"
       empspacing="2"
       originx="0"
       originy="0" />
  </sodipodi:namedview>
  <defs
     id="defs5435">
    <style
       id="style5390">.cls-1{fill:none;}.cls-2{isolation:isolate;}.cls-15,.cls-3{mix-blend-mode:overlay;}.cls-4{clip-path:url(#clip-path);}.cls-16,.cls-5{opacity:0.75;}.cls-5,.cls-7{mix-blend-mode:multiply;}.cls-6{clip-path:url(#clip-path-2);}.cls-7{opacity:0.6;}.cls-8{fill:url(#Безымянный_градиент_10);}.cls-9{mix-blend-mode:saturation;fill:url(#Безымянный_градиент_28);}.cls-10{clip-path:url(#clip-path-3);}.cls-11,.cls-16{fill:#fff;}.cls-12{fill:url(#Безымянный_градиент_114);}.cls-13{fill:url(#Безымянный_градиент_104);}.cls-14{fill:#ff6d00;}.cls-15{opacity:0.5;}</style>
    <linearGradient
       id="Безымянный_градиент_10"
       x1="50.0093"
       x2="50.0093"
       y2="100"
       gradientUnits="userSpaceOnUse"
       gradientTransform="matrix(0.70205319,0,0,0.70205314,-2.8838775,0.44065786)">
      <stop
         offset="0"
         stop-color="#2b4bb7"
         id="stop5398"
         style="stop-color:#404040;stop-opacity:1" />
      <stop
         offset="1"
         stop-color="#2b2fb7"
         id="stop5400"
         style="stop-color:#262626;stop-opacity:1" />
    </linearGradient>
    <radialGradient
       id="Безымянный_градиент_28"
       cx="50.0093"
       cy="23.271601"
       r="28.023199"
       gradientTransform="matrix(0,-0.70205314,1.2517608,0,3.094525,51.887748)"
       gradientUnits="userSpaceOnUse">
      <stop
         offset="0"
         stop-color="#2b4bed"
         id="stop5403"
         style="stop-color:#666666;stop-opacity:1" />
      <stop
         offset="1"
         stop-color="#2b2fb7"
         id="stop5405"
         style="stop-color:#404040;stop-opacity:1" />
    </radialGradient>
    <radialGradient
       id="Безымянный_градиент_114"
       cx="47.3605"
       cy="53.197102"
       r="38.302299"
       gradientUnits="userSpaceOnUse">
      <stop
         offset="0.0007"
         stop-color="#fff"
         stop-opacity="0"
         id="stop5411" />
      <stop
         offset="0.1476"
         stop-color="#fbfbfb"
         stop-opacity="0.039"
         id="stop5413" />
      <stop
         offset="0.3723"
         stop-color="#f1f1f1"
         stop-opacity="0.1465"
         id="stop5415" />
      <stop
         offset="0.6466"
         stop-color="#e0e0e0"
         stop-opacity="0.3222"
         id="stop5417" />
      <stop
         offset="0.9576"
         stop-color="#c9c9c8"
         stop-opacity="0.5641"
         id="stop5419" />
      <stop
         offset="1"
         stop-color="#c6c6c5"
         stop-opacity="0.6"
         id="stop5421" />
    </radialGradient>
    <radialGradient
       inkscape:collect="always"
       xlink:href="#%D0%91%D0%B5%D0%B7%D1%8B%D0%BC%D1%8F%D0%BD%D0%BD%D1%8B%D0%B9_%D0%B3%D1%80%D0%B0%D0%B4%D0%B8%D0%B5%D0%BD%D1%82_114"
       id="radialGradient6102"
       gradientUnits="userSpaceOnUse"
       cx="47.3605"
       cy="53.197102"
       r="38.302299"
       gradientTransform="matrix(0.70205319,0,0,0.70205314,-2.7937381,0.42268998)" />
    <radialGradient
       inkscape:collect="always"
       xlink:href="#%D0%91%D0%B5%D0%B7%D1%8B%D0%BC%D1%8F%D0%BD%D0%BD%D1%8B%D0%B9_%D0%B3%D1%80%D0%B0%D0%B4%D0%B8%D0%B5%D0%BD%D1%82_114"
       id="radialGradient6104"
       gradientUnits="userSpaceOnUse"
       cx="47.3605"
       cy="53.197102"
       r="38.302299"
       gradientTransform="matrix(0.70205319,0,0,0.70205314,-2.7937381,0.42268998)" />
  </defs>
  <title
     id="title5437">app_icon</title>
  <g
     class="cls-2"
     id="g5494"
     transform="matrix(0.45580592,0,0,0.45580592,1.3115126,-0.20085455)"
     style="stroke-width:2.19392">
    <rect
       class="cls-8"
       x="-2.8773487"
       width="70.205322"
       height="70.205322"
       rx="15.601167"
       id="rect5459"
       y="0.44065806"
       style="fill:url(#%D0%91%D0%B5%D0%B7%D1%8B%D0%BC%D1%8F%D0%BD%D0%BD%D1%8B%D0%B9_%D0%B3%D1%80%D0%B0%D0%B4%D0%B8%D0%B5%D0%BD%D1%82_10);stroke-width:1.52863" />
    <rect
       class="cls-9"
       x="-2.8773487"
       width="70.205322"
       height="70.205322"
       rx="15.601167"
       id="rect5461"
       y="0.44065806"
       style="fill:url(#%D0%91%D0%B5%D0%B7%D1%8B%D0%BC%D1%8F%D0%BD%D0%BD%D1%8B%D0%B9_%D0%B3%D1%80%D0%B0%D0%B4%D0%B8%D0%B5%D0%BD%D1%82_28);stroke-width:1.52863" />
    <path
       class="cls-11"
       d="m 19.067285,31.744441 7.795738,-9.859985 q 2.389578,-3.015179 2.390069,-4.509007 a 2.3013302,2.3013303 0 0 0 -0.135777,-0.869212 h 13.608318 a 15.517481,15.517481 0 0 0 -3.880037,3.669562 q -0.733224,0.869703 -2.198409,2.691039 L 26.428171,35.574001 38.62452,52.360584 q 0.868299,1.195596 2.82443,3.422579 a 13.101154,13.101155 0 0 0 1.331093,1.167795 H 28.818732 a 4.4614074,4.4614076 0 0 0 0.162456,-1.113807 q 0,-1.493056 -2.064037,-4.31875 L 19.067285,40.816864 v 10.837384 q 0,3.775712 1.521278,5.296781 H 7.8220779 a 4.8495726,4.8495727 0 0 0 1.3584724,-2.41745 16.533351,16.533352 0 0 0 0.162806,-2.851881 V 21.775848 A 16.541005,16.541004 0 0 0 9.1805503,18.923967 4.8511873,4.8511874 0 0 0 7.8220779,16.506517 H 20.588563 q -1.521278,1.52128 -1.521278,5.269331 z"
       id="path5475"
       style="stroke-width:1.52863" />
    <path
       class="cls-11"
       d="m 55.546879,27.235505 v 24.934963 a 17.541571,17.541571 0 0 0 0.108327,2.553297 4.3900086,4.3900087 0 0 0 1.140837,2.227264 H 44.844571 a 4.397661,4.3976611 0 0 0 1.140836,-2.227264 18.056175,18.056175 0 0 0 0.108326,-2.553297 V 31.961656 A 17.397579,17.397579 0 0 0 45.985407,29.435809 4.484505,4.4845051 0 0 0 44.871529,27.235505 Z M 50.819955,13.029529 a 5.4489856,5.4489858 0 0 1 5.432628,5.432628 5.4324172,5.4324173 0 0 1 -10.864834,0 5.3799036,5.3799037 0 0 1 5.432206,-5.432628 z"
       id="path5477"
       style="stroke-width:1.52863" />
    <path
       class="cls-12"
       d="m 19.067285,31.744441 7.795738,-9.859985 q 2.389578,-3.015179 2.390069,-4.509007 a 2.3013302,2.3013303 0 0 0 -0.135777,-0.869212 h 13.608318 a 15.517481,15.517481 0 0 0 -3.880037,3.669562 q -0.733224,0.869703 -2.198409,2.691039 L 26.428171,35.574001 38.62452,52.360584 q 0.868299,1.195596 2.82443,3.422579 a 13.101154,13.101155 0 0 0 1.331093,1.167795 H 28.818732 a 4.4614074,4.4614076 0 0 0 0.162456,-1.113807 q 0,-1.493056 -2.064037,-4.31875 L 19.067285,40.816864 v 10.837384 q 0,3.775712 1.521278,5.296781 H 7.8220779 a 4.8495726,4.8495727 0 0 0 1.3584724,-2.41745 16.533351,16.533352 0 0 0 0.162806,-2.851881 V 21.775848 A 16.541005,16.541004 0 0 0 9.1805503,18.923967 4.8511873,4.8511874 0 0 0 7.8220779,16.506517 H 20.588563 q -1.521278,1.52128 -1.521278,5.269331 z"
       id="path5479"
       style="fill:url(#radialGradient6102);stroke-width:1.52863" />
    <path
       class="cls-12"
       d="m 55.546879,27.235505 v 24.934963 a 17.541571,17.541571 0 0 0 0.108327,2.553297 4.3900086,4.3900087 0 0 0 1.140837,2.227264 H 44.844571 a 4.397661,4.3976611 0 0 0 1.140836,-2.227264 18.056175,18.056175 0 0 0 0.108326,-2.553297 V 31.961656 A 17.397579,17.397579 0 0 0 45.985407,29.435809 4.484505,4.4845051 0 0 0 44.871529,27.235505 Z M 50.819955,13.029529 a 5.4489856,5.4489858 0 0 1 5.432628,5.432628 5.4324172,5.4324173 0 0 1 -10.864834,0 5.3799036,5.3799037 0 0 1 5.432206,-5.432628 z"
       id="path5481"
       style="fill:url(#radialGradient6104);stroke-width:1.52863" />
    <g
       class="cls-15"
       id="g5489"
       style="stroke-width:2.18767"
       transform="matrix(1.0057237,0,0,1,-0.48582001,2.6345743)" />
    <path
       class="cls-16"
       d="M 9.3441993,21.869994 C 9.2850208,20.964345 9.1967677,20.05996 9.1141368,19.161191 a 3.0222687,3.0222687 0 0 0 -0.309255,-1.263696 10.79498,10.79498 0 0 0 -0.708231,-1.13192 l -0.1694762,-0.238698 0.2940905,-0.007 q 3.0907889,-0.07723 6.1826309,-0.08319 c 1.030404,-0.01404 2.061298,0.0063 3.091983,0.01 1.030684,0.0014 2.06186,0.04163 3.092684,0.06059 -1.029982,0.04697 -2.059683,0.115207 -3.089876,0.144693 -1.030193,0.0318 -2.060175,0.07989 -3.090578,0.09408 q -3.09086,0.07646 -6.1826316,0.0851 l 0.1245447,-0.245719 a 8.4830488,8.4830486 0 0 1 0.704861,1.18984 2.1272211,2.1272211 0 0 1 0.2138457,0.682677 c 0.031169,0.232238 0.044577,0.459142 0.057847,0.687169 0.054904,0.908878 0.029209,1.817475 0.01762,2.72495 z"
       id="path5491"
       style="stroke-width:1.52863" />
    <ellipse
       style="fill:#ff6d00;fill-opacity:1;stroke-width:3.05726;stroke-linecap:round;stroke-linejoin:round"
       id="path6063"
       cx="50.629398"
       cy="18.62113"
       rx="5.6800733"
       ry="5.6800728" />
  </g>
</svg>
