<?xml version="1.0" encoding="UTF-8" standalone="no"?>
<svg
   viewBox="0 0 16 16"
   version="1.1"
   id="svg5496"
   sodipodi:docname="icon_kicad_nightly_16.svg"
   width="16"
   height="16"
   inkscape:version="1.2.2 (732a01da63, 2022-12-09)"
   xmlns:inkscape="http://www.inkscape.org/namespaces/inkscape"
   xmlns:sodipodi="http://sodipodi.sourceforge.net/DTD/sodipodi-0.dtd"
   xmlns:xlink="http://www.w3.org/1999/xlink"
   xmlns="http://www.w3.org/2000/svg"
   xmlns:svg="http://www.w3.org/2000/svg"
   xmlns:rdf="http://www.w3.org/1999/02/22-rdf-syntax-ns#"
   xmlns:cc="http://creativecommons.org/ns#"
   xmlns:dc="http://purl.org/dc/elements/1.1/">
  <metadata
     id="metadata5500">
    <rdf:RDF>
      <cc:Work
         rdf:about="">
        <dc:format>image/svg+xml</dc:format>
        <dc:type
           rdf:resource="http://purl.org/dc/dcmitype/StillImage" />
        <dc:title>app_icon</dc:title>
        <cc:license
           rdf:resource="http://creativecommons.org/licenses/by-sa/4.0/" />
      </cc:Work>
      <cc:License
         rdf:about="http://creativecommons.org/licenses/by-sa/4.0/">
        <cc:permits
           rdf:resource="http://creativecommons.org/ns#Reproduction" />
        <cc:permits
           rdf:resource="http://creativecommons.org/ns#Distribution" />
        <cc:requires
           rdf:resource="http://creativecommons.org/ns#Notice" />
        <cc:requires
           rdf:resource="http://creativecommons.org/ns#Attribution" />
        <cc:permits
           rdf:resource="http://creativecommons.org/ns#DerivativeWorks" />
        <cc:requires
           rdf:resource="http://creativecommons.org/ns#ShareAlike" />
      </cc:License>
    </rdf:RDF>
  </metadata>
  <sodipodi:namedview
     pagecolor="#ffffff"
     bordercolor="#666666"
     borderopacity="1"
     objecttolerance="10"
     gridtolerance="10"
     guidetolerance="10"
     inkscape:pageopacity="0"
     inkscape:pageshadow="2"
     inkscape:window-width="1920"
     inkscape:window-height="1009"
     id="namedview5498"
     showgrid="true"
     inkscape:zoom="11.313708"
     inkscape:cx="-5.789437"
     inkscape:cy="24.66035"
     inkscape:window-x="344"
     inkscape:window-y="1432"
     inkscape:window-maximized="1"
     inkscape:current-layer="g5494"
     inkscape:pagecheckerboard="0"
     inkscape:showpageshadow="2"
     inkscape:deskcolor="#d1d1d1">
    <inkscape:grid
       type="xygrid"
       id="grid6065"
       spacingx="0.5"
       spacingy="0.5"
       empspacing="2"
       originx="0"
       originy="0" />
  </sodipodi:namedview>
  <defs
     id="defs5435">
    <style
       id="style5390">.cls-1{fill:none;}.cls-2{isolation:isolate;}.cls-15,.cls-3{mix-blend-mode:overlay;}.cls-4{clip-path:url(#clip-path);}.cls-16,.cls-5{opacity:0.75;}.cls-5,.cls-7{mix-blend-mode:multiply;}.cls-6{clip-path:url(#clip-path-2);}.cls-7{opacity:0.6;}.cls-8{fill:url(#Безымянный_градиент_10);}.cls-9{mix-blend-mode:saturation;fill:url(#Безымянный_градиент_28);}.cls-10{clip-path:url(#clip-path-3);}.cls-11,.cls-16{fill:#fff;}.cls-12{fill:url(#Безымянный_градиент_114);}.cls-13{fill:url(#Безымянный_градиент_104);}.cls-14{fill:#ff6d00;}.cls-15{opacity:0.5;}</style>
    <linearGradient
       id="Безымянный_градиент_10"
       x1="50.0093"
       x2="50.0093"
       y2="100"
       gradientUnits="userSpaceOnUse"
       gradientTransform="matrix(0.35102658,0,0,0.35102656,-2.8806131,0.44065796)">
      <stop
         offset="0"
         stop-color="#2b4bb7"
         id="stop5398"
         style="stop-color:#404040;stop-opacity:1" />
      <stop
         offset="1"
         stop-color="#2b2fb7"
         id="stop5400"
         style="stop-color:#262626;stop-opacity:1" />
    </linearGradient>
    <radialGradient
       id="Безымянный_градиент_28"
       cx="50.0093"
       cy="23.271601"
       r="28.023199"
       gradientTransform="matrix(0,-0.35102656,0.62588038,0,0.10858811,26.164202)"
       gradientUnits="userSpaceOnUse">
      <stop
         offset="0"
         stop-color="#2b4bed"
         id="stop5403"
         style="stop-color:#666666;stop-opacity:1" />
      <stop
         offset="1"
         stop-color="#2b2fb7"
         id="stop5405"
         style="stop-color:#404040;stop-opacity:1" />
    </radialGradient>
    <radialGradient
       id="Безымянный_градиент_114"
       cx="47.3605"
       cy="53.197102"
       r="38.302299"
       gradientUnits="userSpaceOnUse">
      <stop
         offset="0.0007"
         stop-color="#fff"
         stop-opacity="0"
         id="stop5411" />
      <stop
         offset="0.1476"
         stop-color="#fbfbfb"
         stop-opacity="0.039"
         id="stop5413" />
      <stop
         offset="0.3723"
         stop-color="#f1f1f1"
         stop-opacity="0.1465"
         id="stop5415" />
      <stop
         offset="0.6466"
         stop-color="#e0e0e0"
         stop-opacity="0.3222"
         id="stop5417" />
      <stop
         offset="0.9576"
         stop-color="#c9c9c8"
         stop-opacity="0.5641"
         id="stop5419" />
      <stop
         offset="1"
         stop-color="#c6c6c5"
         stop-opacity="0.6"
         id="stop5421" />
    </radialGradient>
    <radialGradient
       inkscape:collect="always"
       xlink:href="#%D0%91%D0%B5%D0%B7%D1%8B%D0%BC%D1%8F%D0%BD%D0%BD%D1%8B%D0%B9_%D0%B3%D1%80%D0%B0%D0%B4%D0%B8%D0%B5%D0%BD%D1%82_114"
       id="radialGradient6102"
       gradientUnits="userSpaceOnUse"
       cx="47.3605"
       cy="53.197102"
       r="38.302299"
       gradientTransform="matrix(0.35102658,0,0,0.35102656,-2.8355434,0.43167402)" />
    <radialGradient
       inkscape:collect="always"
       xlink:href="#%D0%91%D0%B5%D0%B7%D1%8B%D0%BC%D1%8F%D0%BD%D0%BD%D1%8B%D0%B9_%D0%B3%D1%80%D0%B0%D0%B4%D0%B8%D0%B5%D0%BD%D1%82_114"
       id="radialGradient6104"
       gradientUnits="userSpaceOnUse"
       cx="47.3605"
       cy="53.197102"
       r="38.302299"
       gradientTransform="matrix(0.35102658,0,0,0.35102656,-2.8355434,0.43167402)" />
  </defs>
  <title
     id="title5437">app_icon</title>
  <g
     class="cls-2"
     id="g5494"
     transform="matrix(0.45580592,0,0,0.45580592,1.3115126,-0.20085455)"
     style="stroke-width:2.19392">
    <rect
       class="cls-8"
       x="-2.8773487"
       width="35.102661"
       height="35.102661"
       rx="7.8005829"
       id="rect5459"
       y="0.44065806"
       style="fill:url(#%D0%91%D0%B5%D0%B7%D1%8B%D0%BC%D1%8F%D0%BD%D0%BD%D1%8B%D0%B9_%D0%B3%D1%80%D0%B0%D0%B4%D0%B8%D0%B5%D0%BD%D1%82_10);stroke-width:0.764313" />
    <rect
       class="cls-9"
       x="-2.8773487"
       width="35.102661"
       height="35.102661"
       rx="7.8005829"
       id="rect5461"
       y="0.44065806"
       style="fill:url(#%D0%91%D0%B5%D0%B7%D1%8B%D0%BC%D1%8F%D0%BD%D0%BD%D1%8B%D0%B9_%D0%B3%D1%80%D0%B0%D0%B4%D0%B8%D0%B5%D0%BD%D1%82_28);stroke-width:0.764313" />
    <path
       class="cls-11"
       d="m 8.094968,16.092549 3.897869,-4.929992 q 1.194788,-1.5075894 1.195034,-2.2545034 a 1.1506651,1.1506651 0 0 0 -0.06789,-0.434606 h 6.804159 a 7.7587402,7.7587402 0 0 0 -1.940019,1.8347804 q -0.366612,0.434852 -1.099204,1.34552 l -5.109508,6.353581 6.098174,8.393292 q 0.43415,0.597798 1.412215,1.711289 a 6.5505768,6.5505774 0 0 0 0.665546,0.583897 h -6.980655 a 2.2307037,2.2307037 0 0 0 0.08123,-0.556903 q 0,-0.746528 -1.032018,-2.159375 L 8.094968,20.628761 v 5.418692 q 0,1.887856 0.7606387,2.64839 H 2.4723645 a 2.4247863,2.4247863 0 0 0 0.6792361,-1.208725 8.2666755,8.2666755 0 0 0 0.081403,-1.425941 V 11.108253 A 8.2705022,8.2705015 0 0 0 3.1516006,9.6823123 2.4255936,2.4255937 0 0 0 2.4723645,8.4735876 H 8.8556067 Q 8.094968,9.2342276 8.094968,11.108253 Z"
       id="path5475"
       style="stroke-width:0.764313" />
    <path
       class="cls-11"
       d="m 26.334764,13.838081 v 12.467482 a 8.7707855,8.7707856 0 0 0 0.05416,1.276648 2.1950042,2.1950043 0 0 0 0.570419,1.113632 h -5.975736 a 2.1988304,2.1988305 0 0 0 0.570418,-1.113632 9.0280875,9.0280876 0 0 0 0.05416,-1.276648 V 16.201156 A 8.6987895,8.6987896 0 0 0 21.554028,14.938233 2.2422525,2.2422525 0 0 0 20.99709,13.838081 Z M 23.971302,6.7350934 a 2.7244927,2.7244929 0 0 1 2.716314,2.7163142 2.7162085,2.7162086 0 0 1 -5.432416,0 2.6899517,2.6899518 0 0 1 2.716102,-2.7163142 z"
       id="path5477"
       style="stroke-width:0.764313" />
    <path
       class="cls-12"
       d="m 8.094968,16.092549 3.897869,-4.929992 q 1.194788,-1.5075894 1.195034,-2.2545034 a 1.1506651,1.1506651 0 0 0 -0.06789,-0.434606 h 6.804159 a 7.7587402,7.7587402 0 0 0 -1.940019,1.8347804 q -0.366612,0.434852 -1.099204,1.34552 l -5.109508,6.353581 6.098174,8.393292 q 0.43415,0.597798 1.412215,1.711289 a 6.5505768,6.5505774 0 0 0 0.665546,0.583897 h -6.980655 a 2.2307037,2.2307037 0 0 0 0.08123,-0.556903 q 0,-0.746528 -1.032018,-2.159375 L 8.094968,20.628761 v 5.418692 q 0,1.887856 0.7606387,2.64839 H 2.4723645 a 2.4247863,2.4247863 0 0 0 0.6792361,-1.208725 8.2666755,8.2666755 0 0 0 0.081403,-1.425941 V 11.108253 A 8.2705022,8.2705015 0 0 0 3.1516006,9.6823123 2.4255936,2.4255937 0 0 0 2.4723645,8.4735876 H 8.8556067 Q 8.094968,9.2342276 8.094968,11.108253 Z"
       id="path5479"
       style="fill:url(#radialGradient6102);stroke-width:0.764313" />
    <path
       class="cls-12"
       d="m 26.334764,13.838081 v 12.467482 a 8.7707855,8.7707856 0 0 0 0.05416,1.276648 2.1950042,2.1950043 0 0 0 0.570419,1.113632 h -5.975736 a 2.1988304,2.1988305 0 0 0 0.570418,-1.113632 9.0280875,9.0280876 0 0 0 0.05416,-1.276648 V 16.201156 A 8.6987895,8.6987896 0 0 0 21.554028,14.938233 2.2422525,2.2422525 0 0 0 20.99709,13.838081 Z M 23.971302,6.7350934 a 2.7244927,2.7244929 0 0 1 2.716314,2.7163142 2.7162085,2.7162086 0 0 1 -5.432416,0 2.6899517,2.6899518 0 0 1 2.716102,-2.7163142 z"
       id="path5481"
       style="fill:url(#radialGradient6104);stroke-width:0.764313" />
    <g
       class="cls-15"
       id="g5489"
       style="stroke-width:2.18767"
       transform="matrix(1.0057237,0,0,1,-0.48582001,2.6345743)" />
    <path
       class="cls-16"
       d="M 3.2334252,11.155326 C 3.2038359,10.702502 3.1597094,10.250309 3.1183939,9.8009243 A 1.5111343,1.5111343 0 0 0 2.9637664,9.1690762 5.3974899,5.3974899 0 0 0 2.6096509,8.6031162 l -0.084738,-0.1193486 0.1470453,-0.00353 q 1.5453944,-0.038613 3.0913152,-0.041593 c 0.515202,-0.00702 1.0306494,0.00313 1.5459914,0.005 0.515342,7.333e-4 1.03093,0.020813 1.546342,0.030293 -0.5149907,0.023487 -1.0298413,0.0576 -1.544938,0.072346 -0.515096,0.0159 -1.0300874,0.039947 -1.5452887,0.04704 q -1.54543,0.038227 -3.0913158,0.042547 l 0.062273,-0.1228593 a 4.2415243,4.2415242 0 0 1 0.3524305,0.59492 1.0636105,1.0636105 0 0 1 0.1069228,0.3413386 c 0.015585,0.1161187 0.022289,0.2295707 0.028923,0.3435847 0.027452,0.4544394 0.014605,0.9087374 0.00881,1.3624754 z"
       id="path5491"
       style="stroke-width:0.764313" />
    <circle
       style="fill:#ff6d00;fill-opacity:1;stroke-width:1.52863;stroke-linecap:round;stroke-linejoin:round"
       id="path6063"
       cx="23.876024"
       cy="9.5308943"
       r="2.8400364" />
  </g>
</svg>
