<?xml version="1.0" encoding="UTF-8" standalone="no"?>
<svg
   xmlns:dc="http://purl.org/dc/elements/1.1/"
   xmlns:cc="http://creativecommons.org/ns#"
   xmlns:rdf="http://www.w3.org/1999/02/22-rdf-syntax-ns#"
   xmlns:svg="http://www.w3.org/2000/svg"
   xmlns="http://www.w3.org/2000/svg"
   xmlns:sodipodi="http://sodipodi.sourceforge.net/DTD/sodipodi-0.dtd"
   xmlns:inkscape="http://www.inkscape.org/namespaces/inkscape"
   id="Слой_1"
   data-name="Слой 1"
   viewBox="0 0 24 24"
   version="1.1"
   sodipodi:docname="list_nets.svg"
   inkscape:version="1.0.1 (3bc2e813f5, 2020-09-07)">
  <sodipodi:namedview
     pagecolor="#ffffff"
     bordercolor="#666666"
     borderopacity="1"
     objecttolerance="10"
     gridtolerance="10"
     guidetolerance="10"
     inkscape:pageopacity="0"
     inkscape:pageshadow="2"
     inkscape:window-width="1920"
     inkscape:window-height="1017"
     id="namedview30"
     showgrid="true"
     inkscape:zoom="29.813295"
     inkscape:cx="12.730744"
     inkscape:cy="10.216007"
     inkscape:window-x="-8"
     inkscape:window-y="-8"
     inkscape:window-maximized="1"
     inkscape:document-rotation="0"
     inkscape:current-layer="Слой_1">
    <inkscape:grid
       type="xygrid"
       id="grid_kicad"
       spacingx="0.5"
       spacingy="0.5"
       color="#9999ff"
       opacity="0.13"
       empspacing="2" />
  </sodipodi:namedview>
  <metadata
     id="metadata43">
    <rdf:RDF>
      <cc:Work
         rdf:about="">
        <cc:license
           rdf:resource="http://creativecommons.org/licenses/by-sa/4.0/" />
        <dc:format>image/svg+xml</dc:format>
        <dc:type
           rdf:resource="http://purl.org/dc/dcmitype/StillImage" />
        <dc:title>add_arc</dc:title>
      </cc:Work>
      <cc:License
         rdf:about="http://creativecommons.org/licenses/by-sa/4.0/">
        <cc:permits
           rdf:resource="http://creativecommons.org/ns#Reproduction" />
        <cc:permits
           rdf:resource="http://creativecommons.org/ns#Distribution" />
        <cc:requires
           rdf:resource="http://creativecommons.org/ns#Notice" />
        <cc:requires
           rdf:resource="http://creativecommons.org/ns#Attribution" />
        <cc:permits
           rdf:resource="http://creativecommons.org/ns#DerivativeWorks" />
        <cc:requires
           rdf:resource="http://creativecommons.org/ns#ShareAlike" />
      </cc:License>
    </rdf:RDF>
  </metadata>
  <defs
     id="defs158172">
    <style
       id="style158170">.cls-1{fill:#8f8f8f;}.cls-2{fill:none;stroke:#DED3DD;stroke-linecap:round;stroke-miterlimit:10;stroke-width:2px;}.cls-3{fill:#f2647e;}.cls-4{fill:#fff;}</style>
  </defs>
  <title
     id="title158174">list_nets</title>
  <path
     class="cls-1"
     d="m 3.4939,0 h 13.9816 a 3.4978,3.4978 0 0 1 3.4978,3.4978 v 14.0013 a 3.4978,3.4978 0 0 1 -3.4978,3.4978 H 3.4938 A 3.4978,3.4978 0 0 1 -0.004,17.4991 V 3.4979 A 3.4979,3.4979 0 0 1 3.4939,0 Z"
     id="path158176"
     style="fill:#F0EBF0;fill-opacity:1" />
  <line
     class="cls-2"
     x1="7.4452"
     y1="4.5"
     x2="16.653799"
     y2="4.5"
     id="line158178"
     style="stroke:#ffffff;stroke-opacity:1" />
  <line
     class="cls-2"
     x1="7.4452"
     y1="8.6529999"
     x2="16.653799"
     y2="8.6529999"
     id="line158180"
     style="stroke:#ffffff;stroke-opacity:1" />
  <line
     class="cls-2"
     x1="7.4452"
     y1="12.806"
     x2="16.653799"
     y2="12.806"
     id="line158182"
     style="stroke:#ffffff;stroke-opacity:1" />
  <line
     class="cls-2"
     x1="7.4452"
     y1="16.959"
     x2="16.653799"
     y2="16.959"
     id="line158184"
     style="stroke:#ffffff;stroke-opacity:1" />
  <line
     class="cls-2"
     x1="4.6875"
     y1="4.5"
     x2="4.7351999"
     y2="4.5"
     id="line158186"
     style="stroke:#ffffff;stroke-opacity:1" />
  <line
     class="cls-2"
     x1="4.6875"
     y1="8.6529999"
     x2="4.7351999"
     y2="8.6529999"
     id="line158188"
     style="stroke:#ffffff;stroke-opacity:1" />
  <line
     class="cls-2"
     x1="4.6875"
     y1="12.806"
     x2="4.7351999"
     y2="12.806"
     id="line158190"
     style="stroke:#ffffff;stroke-opacity:1" />
  <line
     class="cls-2"
     x1="4.6875"
     y1="16.959"
     x2="4.7351999"
     y2="16.959"
     id="line158192"
     style="stroke:#ffffff;stroke-opacity:1" />
  <path
     class="cls-3"
     d="M 24.0065,17 A 7.0065,7.0065 0 1 1 17,10 a 7.0032,7.0032 0 0 1 7.0065,7 z"
     id="path158194"
     style="stroke:none;stroke-opacity:1" />
  <path
     class="cls-4"
     d="m 18.1812,21.12 c -0.495,-0.0342 -0.6439,-0.2322 -0.62,-0.7329 a 1.8728,1.8728 0 0 1 0.059,-0.3966 c 0.2283,-0.8479 0.4846,-1.6887 0.6905,-2.5418 0.4377,-1.8138 -0.7687,-2.3591 -1.9426,-2.0709 -0.3443,0.0845 -0.6851,0.1771 -1.0309,0.2829 -0.37,0.1129 -0.6326,0.2629 -0.594,0.73 a 0.9721,0.9721 0 0 0 0.134,-0.0158 c 1.2077,-0.3226 1.55,-0.0031 1.2495,1.1973 -0.21,0.8372 -0.4823,1.6591 -0.6782,2.4992 a 1.4729,1.4729 0 0 0 1.6874,1.965 7.1579,7.1579 0 0 0 1.5124,-0.3626 0.523,0.523 0 0 0 0.4356,-0.6244 5.9829,5.9829 0 0 1 -0.9027,0.0706 z"
     id="path158196" />
  <path
     class="cls-4"
     d="m 17.9864,14.2819 a 1.2053,1.2053 0 0 0 1.2742,-1.1561 1.2256,1.2256 0 0 0 -1.271,-1.17 1.2448,1.2448 0 0 0 -1.3062,1.1876 1.2358,1.2358 0 0 0 1.303,1.1385 z"
     id="path158198" />
</svg>
