<?xml version="1.0" encoding="UTF-8" standalone="no"?>
<svg
   xmlns:dc="http://purl.org/dc/elements/1.1/"
   xmlns:cc="http://creativecommons.org/ns#"
   xmlns:rdf="http://www.w3.org/1999/02/22-rdf-syntax-ns#"
   xmlns:svg="http://www.w3.org/2000/svg"
   xmlns="http://www.w3.org/2000/svg"
   xmlns:sodipodi="http://sodipodi.sourceforge.net/DTD/sodipodi-0.dtd"
   xmlns:inkscape="http://www.inkscape.org/namespaces/inkscape"
   id="Слой_1"
   data-name="Слой 1"
   viewBox="0 0 24 24"
   version="1.1"
   sodipodi:docname="pintype_poweroutput.svg"
   inkscape:version="1.0.1 (3bc2e813f5, 2020-09-07)">
  <sodipodi:namedview
     pagecolor="#ffffff"
     bordercolor="#666666"
     borderopacity="1"
     objecttolerance="10"
     gridtolerance="10"
     guidetolerance="10"
     inkscape:pageopacity="0"
     inkscape:pageshadow="2"
     inkscape:window-width="1609"
     inkscape:window-height="1286"
     id="namedview30"
     showgrid="true"
     inkscape:zoom="27.961538"
     inkscape:cx="3.3259971"
     inkscape:cy="13"
     inkscape:window-x="0"
     inkscape:window-y="37"
     inkscape:window-maximized="0"
     inkscape:document-rotation="0"
     inkscape:current-layer="Слой_1">
    <inkscape:grid
       type="xygrid"
       id="grid_kicad"
       spacingx="0.5"
       spacingy="0.5"
       color="#9999ff"
       opacity="0.13"
       empspacing="2" />
  </sodipodi:namedview>
  <metadata
     id="metadata43">
    <rdf:RDF>
      <cc:Work
         rdf:about="">
        <cc:license
           rdf:resource="http://creativecommons.org/licenses/by-sa/4.0/" />
        <dc:format>image/svg+xml</dc:format>
        <dc:type
           rdf:resource="http://purl.org/dc/dcmitype/StillImage" />
        <dc:title>add_arc</dc:title>
      </cc:Work>
      <cc:License
         rdf:about="http://creativecommons.org/licenses/by-sa/4.0/">
        <cc:permits
           rdf:resource="http://creativecommons.org/ns#Reproduction" />
        <cc:permits
           rdf:resource="http://creativecommons.org/ns#Distribution" />
        <cc:requires
           rdf:resource="http://creativecommons.org/ns#Notice" />
        <cc:requires
           rdf:resource="http://creativecommons.org/ns#Attribution" />
        <cc:permits
           rdf:resource="http://creativecommons.org/ns#DerivativeWorks" />
        <cc:requires
           rdf:resource="http://creativecommons.org/ns#ShareAlike" />
      </cc:License>
    </rdf:RDF>
  </metadata>
  <defs
     id="defs26451">
    <style
       id="style26449">.cls-1{fill:#DED3DD;}.cls-2{fill:none;stroke:#DED3DD;stroke-linecap:round;stroke-linejoin:round;stroke-width:2px;}</style>
  </defs>
  <title
     id="title26453">pintype_poweroutput</title>
  <path
     class="cls-1"
     d="m 23.64,13.3854 c 0.0378,-0.0569 0.0637,-0.1188 0.0967,-0.178 a 2.4671,2.4671 0 0 0 0.1325,-0.2521 2.41,2.41 0 0 0 0.076,-0.2447 c 0.0222,-0.0739 0.05,-0.1447 0.0656,-0.2213 a 2.51,2.51 0 0 0 0,-0.9786 C 23.9957,11.434 23.9671,11.3629 23.9449,11.2888 a 2.3978,2.3978 0 0 0 -0.0757,-0.2441 2.4364,2.4364 0 0 0 -0.133,-0.253 c -0.0327,-0.059 -0.0584,-0.12 -0.0962,-0.1771 A 2.5219,2.5219 0 0 0 23.3253,10.2299 L 17.2744,4.1787 A 2.5,2.5 0 0 0 13.7393,7.7139 L 15.5254,9.5 H 1.76 c -1.3809,0 -1.1637,1.1191 -1.1637,2.5 0,1.3809 -0.2174,2.5 1.1637,2.5 h 13.7654 l -1.7861,1.7861 a 2.5,2.5 0 1 0 3.5351,3.5352 L 23.3257,13.77 A 2.5219,2.5219 0 0 0 23.64,13.3854 Z"
     id="path26455" />
  <line
     class="cls-2"
     x1="1.0030999"
     y1="23"
     x2="1.0030999"
     y2="1"
     id="line26457" />
</svg>
