<?xml version="1.0" encoding="UTF-8" standalone="no"?>
<svg
   id="Слой_1"
   data-name="Слой 1"
   viewBox="0 0 24 24"
   version="1.1"
   sodipodi:docname="post_odb.svg"
   inkscape:version="1.3.2 (091e20e, 2023-11-25, custom)"
   xmlns:inkscape="http://www.inkscape.org/namespaces/inkscape"
   xmlns:sodipodi="http://sodipodi.sourceforge.net/DTD/sodipodi-0.dtd"
   xmlns="http://www.w3.org/2000/svg"
   xmlns:svg="http://www.w3.org/2000/svg"
   xmlns:rdf="http://www.w3.org/1999/02/22-rdf-syntax-ns#"
   xmlns:cc="http://creativecommons.org/ns#"
   xmlns:dc="http://purl.org/dc/elements/1.1/">
  <sodipodi:namedview
     pagecolor="#ffffff"
     bordercolor="#666666"
     borderopacity="1"
     objecttolerance="10"
     gridtolerance="10"
     guidetolerance="10"
     inkscape:pageopacity="0"
     inkscape:pageshadow="2"
     inkscape:window-width="1920"
     inkscape:window-height="1017"
     id="namedview159354"
     showgrid="true"
     inkscape:zoom="30.291667"
     inkscape:cx="13.171939"
     inkscape:cy="13.980743"
     inkscape:window-x="-8"
     inkscape:window-y="-8"
     inkscape:window-maximized="1"
     inkscape:current-layer="text5854"
     inkscape:showpageshadow="2"
     inkscape:pagecheckerboard="0"
     inkscape:deskcolor="#d1d1d1">
    <inkscape:grid
       type="xygrid"
       id="grid6877"
       empspacing="2"
       spacingx="0.5"
       spacingy="0.5"
       originx="0"
       originy="0"
       units="px"
       visible="true" />
  </sodipodi:namedview>
  <metadata
     id="metadata43">
    <rdf:RDF>
      <cc:Work
         rdf:about="">
        <dc:format>image/svg+xml</dc:format>
        <dc:type
           rdf:resource="http://purl.org/dc/dcmitype/StillImage" />
        <dc:title>post_odb</dc:title>
        <cc:license
           rdf:resource="http://creativecommons.org/licenses/by-sa/4.0/" />
      </cc:Work>
      <cc:License
         rdf:about="http://creativecommons.org/licenses/by-sa/4.0/">
        <cc:permits
           rdf:resource="http://creativecommons.org/ns#Reproduction" />
        <cc:permits
           rdf:resource="http://creativecommons.org/ns#Distribution" />
        <cc:requires
           rdf:resource="http://creativecommons.org/ns#Notice" />
        <cc:requires
           rdf:resource="http://creativecommons.org/ns#Attribution" />
        <cc:permits
           rdf:resource="http://creativecommons.org/ns#DerivativeWorks" />
        <cc:requires
           rdf:resource="http://creativecommons.org/ns#ShareAlike" />
      </cc:License>
    </rdf:RDF>
  </metadata>
  <defs
     id="defs159331">
    <style
       id="style159329">.cls-1{fill:#b9b9b9;}.cls-2{fill:#1a81c4;}.cls-3{fill:#fff;}.cls-4{fill:#bf2641;}.cls-5{fill:none;stroke:#f5f5f5;stroke-linecap:round;stroke-linejoin:round;stroke-width:2px;}</style>
  </defs>
  <title
     id="title159333">post_odb</title>
  <rect
     class="cls-1"
     x="3.0489998"
     y="0"
     width="17.937201"
     height="17.983299"
     rx="2.9934001"
     id="rect159335"
     style="fill:#8f8f8f;fill-opacity:1" />
  <rect
     class="cls-2"
     x="0.00010001659"
     y="2.9995"
     width="18.7099"
     height="9.2299004"
     id="rect159337"
     style="fill:#42b8eb;fill-opacity:1" />
  <g
     aria-label="xml"
     id="text5854"
     style="font-size:8.52777px;line-height:1.25;font-family:'Tiresias LPfont';-inkscape-font-specification:'Tiresias LPfont';stroke-width:0.700254">
    <path
       class="cls-3"
       d="M 2.4739587,7.5242975 A 2.4445396,2.4329348 0 0 1 3.0182779,5.8948399 1.8741713,1.8652742 0 0 1 4.515156,5.2568698 1.8667734,1.8579115 0 0 1 6.0200571,5.8948399 2.4198452,2.4083576 0 0 1 6.5685442,7.5242975 v 0.086072 A 2.4325571,2.4210092 0 0 1 6.0200571,9.2479159 1.8705245,1.8616447 0 0 1 4.5232833,9.8768639 1.8812567,1.8723259 0 0 1 3.0182779,9.2442863 2.4406843,2.4290979 0 0 1 2.4739587,7.6103695 Z m 1.0022601,0.084102 a 2.003791,1.9942786 0 0 0 0.2553842,1.0602415 0.9640203,0.95944389 0 0 0 1.5751291,0 1.948463,1.9392132 0 0 0 0.2636156,-1.0602415 V 7.5223272 A 1.9218931,1.9127694 0 0 0 5.3067321,6.474115 a 0.95193358,0.94741455 0 0 0 -1.5751291,0 1.98837,1.9789308 0 0 0 -0.2556967,1.0482122 z"
       id="path26539"
       style="fill:#ffffff;stroke-width:0.727902" />
    <path
       class="cls-3"
       d="M 7.5318324,7.805352 A 3.2017341,2.8187362 0 0 1 8.0279112,6.1589374 1.6036387,1.4118082 0 0 1 9.4226163,5.5333798 1.5206901,1.3387821 0 0 1 10.126319,5.6737531 1.5772322,1.3885606 0 0 1 10.664728,6.0740213 v -2.347749 h 1.085588 V 9.880695 H 10.83899 L 10.731651,9.3518548 A 1.6005143,1.4090576 0 0 1 10.173588,9.8075802 1.5695724,1.381817 0 0 1 9.413747,9.9635702 1.6418374,1.4454375 0 0 1 8.0279112,9.3908079 2.7377059,2.410216 0 0 1 7.5318324,7.888316 Z m 1.0856889,0.08323 a 1.9575056,1.7233448 0 0 0 0.256808,0.9427733 0.90044047,0.79272798 0 0 0 0.8163832,0.3509334 1.0920386,0.96140672 0 0 0 0.5836635,-0.1299918 1.1243915,0.98988956 0 0 0 0.390755,-0.370898 V 6.8192779 A 1.1368892,1.0008923 0 0 0 10.271453,6.4509531 1.0569643,0.93052813 0 0 0 9.6995819,6.3183881 0.87685606,0.77196479 0 0 0 8.8816868,6.7309012 2.4783782,2.1819097 0 0 0 8.6179245,7.805352 Z"
       id="path26593"
       style="fill:#ffffff;stroke-width:0.662215" />
    <path
       class="cls-3"
       d="m 16.749071,7.8650048 a 2.4272,2.4272 0 0 1 -0.4373,1.5137 1.4574,1.4574 0 0 1 -1.2324,0.5733 1.414,1.414 0 0 1 -0.6943,-0.1621 1.3569,1.3569 0 0 1 -0.4922,-0.4766 l -0.0957,0.5557 h -0.8068 v -6.1895 h 0.9614 v 2.3848 a 1.3812,1.3812 0 0 1 0.4756,-0.4209 1.3576,1.3576 0 0 1 0.6444,-0.1465 1.4227,1.4227 0 0 1 1.24,0.6269 2.84,2.84 0 0 1 0.4375,1.6582 z m -0.9609,-0.083 a 2.2162,2.2162 0 0 0 -0.2305,-1.0825 0.7714,0.7714 0 0 0 -0.7275,-0.4121 0.9453,0.9453 0 0 0 -0.5361,0.1421 1.0023,1.0023 0 0 0 -0.3428,0.3965 v 1.8008 a 0.9408,0.9408 0 0 0 0.3408,0.3994 0.9862,0.9862 0 0 0 0.5459,0.1406 0.7975,0.7975 0 0 0 0.7246,-0.3516 1.74,1.74 0 0 0 0.2256,-0.95 z"
       id="path26537"
       style="fill:#ffffff" />
  </g>
  <path
     class="cls-3"
     d="M 2.07,9.9365 H 0.9965 V 8.9 H 2.07 Z"
     id="path159339" />
  <ellipse
     class="cls-4"
     cx="17.0075"
     cy="16.996099"
     rx="6.9924002"
     ry="7.0039001"
     id="ellipse159347"
     style="fill:#f2647e;fill-opacity:1" />
  <line
     class="cls-5"
     x1="17.1112"
     y1="13.6254"
     x2="17.1112"
     y2="20.629299"
     id="line159349" />
  <polyline
     class="cls-5"
     points="15.362 17.16 18.111 14.406 20.861 17.16"
     id="polyline159351"
     transform="translate(-1,-1)" />
</svg>
