<?xml version="1.0" encoding="UTF-8" standalone="no"?>
<svg
   xmlns:dc="http://purl.org/dc/elements/1.1/"
   xmlns:cc="http://creativecommons.org/ns#"
   xmlns:rdf="http://www.w3.org/1999/02/22-rdf-syntax-ns#"
   xmlns:svg="http://www.w3.org/2000/svg"
   xmlns="http://www.w3.org/2000/svg"
   xmlns:sodipodi="http://sodipodi.sourceforge.net/DTD/sodipodi-0.dtd"
   xmlns:inkscape="http://www.inkscape.org/namespaces/inkscape"
   id="Слой_1"
   data-name="Слой 1"
   viewBox="0 0 24 24"
   version="1.1"
   sodipodi:docname="ps_diff_pair_tune_phase.svg"
   inkscape:version="1.0.1 (3bc2e813f5, 2020-09-07)">
  <sodipodi:namedview
     pagecolor="#ffffff"
     bordercolor="#666666"
     borderopacity="1"
     objecttolerance="10"
     gridtolerance="10"
     guidetolerance="10"
     inkscape:pageopacity="0"
     inkscape:pageshadow="2"
     inkscape:window-width="1609"
     inkscape:window-height="1286"
     id="namedview30"
     showgrid="true"
     inkscape:zoom="27.961538"
     inkscape:cx="3.3259971"
     inkscape:cy="13"
     inkscape:window-x="0"
     inkscape:window-y="37"
     inkscape:window-maximized="0"
     inkscape:document-rotation="0"
     inkscape:current-layer="Слой_1">
    <inkscape:grid
       type="xygrid"
       id="grid_kicad"
       spacingx="0.5"
       spacingy="0.5"
       color="#9999ff"
       opacity="0.13"
       empspacing="2" />
  </sodipodi:namedview>
  <metadata
     id="metadata43">
    <rdf:RDF>
      <cc:Work
         rdf:about="">
        <cc:license
           rdf:resource="http://creativecommons.org/licenses/by-sa/4.0/" />
        <dc:format>image/svg+xml</dc:format>
        <dc:type
           rdf:resource="http://purl.org/dc/dcmitype/StillImage" />
        <dc:title>add_arc</dc:title>
      </cc:Work>
      <cc:License
         rdf:about="http://creativecommons.org/licenses/by-sa/4.0/">
        <cc:permits
           rdf:resource="http://creativecommons.org/ns#Reproduction" />
        <cc:permits
           rdf:resource="http://creativecommons.org/ns#Distribution" />
        <cc:requires
           rdf:resource="http://creativecommons.org/ns#Notice" />
        <cc:requires
           rdf:resource="http://creativecommons.org/ns#Attribution" />
        <cc:permits
           rdf:resource="http://creativecommons.org/ns#DerivativeWorks" />
        <cc:requires
           rdf:resource="http://creativecommons.org/ns#ShareAlike" />
      </cc:License>
    </rdf:RDF>
  </metadata>
  <defs
     id="defs159429">
    <style
       id="style159427">.cls-1{fill:#42B8EB;}</style>
  </defs>
  <title
     id="title159431">ps_diff_pair_tune_phase</title>
  <path
     class="cls-1"
     d="m 23.9951,13.0157 a 1.0019,1.0019 0 0 1 -1,1.0049 h -1.3672 a 3.05,3.05 0 0 1 -3.04,-3.0549 V 10.055 a 1.041,1.041 0 1 0 -2.082,0 v 0.9107 a 3.05,3.05 0 0 1 -3.04,3.0549 H 1.0049 a 1.005,1.005 0 0 1 0,-2.01 h 12.4609 a 1.0441,1.0441 0 0 0 1.04,-1.0451 V 10.055 a 3.041,3.041 0 1 1 6.082,0 v 0.9107 a 1.0441,1.0441 0 0 0 1.04,1.0451 h 1.3672 a 1.0019,1.0019 0 0 1 1.0001,1.0049 z"
     id="path159433" />
  <path
     class="cls-1"
     d="m 23.9951,15.9951 a 1.0019,1.0019 0 0 1 -1,1.0049 H 1.0049 a 1.005,1.005 0 0 1 0,-2.01 h 21.99 a 1.0018,1.0018 0 0 1 1.0002,1.0051 z"
     id="path159435" />
</svg>
