<?xml version="1.0" encoding="UTF-8" standalone="no"?>
<svg
   xmlns:dc="http://purl.org/dc/elements/1.1/"
   xmlns:cc="http://creativecommons.org/ns#"
   xmlns:rdf="http://www.w3.org/1999/02/22-rdf-syntax-ns#"
   xmlns:svg="http://www.w3.org/2000/svg"
   xmlns="http://www.w3.org/2000/svg"
   xmlns:sodipodi="http://sodipodi.sourceforge.net/DTD/sodipodi-0.dtd"
   xmlns:inkscape="http://www.inkscape.org/namespaces/inkscape"
   id="Слой_1"
   data-name="Слой 1"
   viewBox="0 0 24 24"
   version="1.1"
   sodipodi:docname="swap_layer.svg"
   inkscape:version="1.0.1 (3bc2e813f5, 2020-09-07)">
  <sodipodi:namedview
     pagecolor="#ffffff"
     bordercolor="#666666"
     borderopacity="1"
     objecttolerance="10"
     gridtolerance="10"
     guidetolerance="10"
     inkscape:pageopacity="0"
     inkscape:pageshadow="2"
     inkscape:window-width="1609"
     inkscape:window-height="1286"
     id="namedview30"
     showgrid="true"
     inkscape:zoom="27.961538"
     inkscape:cx="9.7496114"
     inkscape:cy="14.311326"
     inkscape:window-x="0"
     inkscape:window-y="37"
     inkscape:window-maximized="0"
     inkscape:document-rotation="0"
     inkscape:current-layer="Слой_1">
    <inkscape:grid
       type="xygrid"
       id="grid_kicad"
       spacingx="0.5"
       spacingy="0.5"
       color="#9999ff"
       opacity="0.13"
       empspacing="2" />
  </sodipodi:namedview>
  <metadata
     id="metadata43">
    <rdf:RDF>
      <cc:Work
         rdf:about="">
        <cc:license
           rdf:resource="http://creativecommons.org/licenses/by-sa/4.0/" />
        <dc:format>image/svg+xml</dc:format>
        <dc:type
           rdf:resource="http://purl.org/dc/dcmitype/StillImage" />
        <dc:title>add_arc</dc:title>
      </cc:Work>
      <cc:License
         rdf:about="http://creativecommons.org/licenses/by-sa/4.0/">
        <cc:permits
           rdf:resource="http://creativecommons.org/ns#Reproduction" />
        <cc:permits
           rdf:resource="http://creativecommons.org/ns#Distribution" />
        <cc:requires
           rdf:resource="http://creativecommons.org/ns#Notice" />
        <cc:requires
           rdf:resource="http://creativecommons.org/ns#Attribution" />
        <cc:permits
           rdf:resource="http://creativecommons.org/ns#DerivativeWorks" />
        <cc:requires
           rdf:resource="http://creativecommons.org/ns#ShareAlike" />
      </cc:License>
    </rdf:RDF>
  </metadata>
  <defs
     id="defs27327">
    <style
       id="style27325">.cls-1{fill:#8f8f8f;}.cls-2{fill:#d8d8d8;}.cls-3{fill:#42B8EB;}.cls-4{fill:#DED3DD;}</style>
  </defs>
  <title
     id="title27329">swap_layer</title>
  <polygon
     class="cls-1"
     points="5,18.5 13,12 21,18.5 13,25 "
     id="polygon27331"
     transform="translate(-1,-1)" />
  <polygon
     class="cls-2"
     points="5,14.833 13,8.333 21,14.833 13,21.333 "
     id="polygon27333"
     transform="translate(-1,-1)" />
  <polygon
     class="cls-3"
     points="5,11.167 13,4.667 21,11.167 13,17.667 "
     id="polygon27335"
     transform="translate(-1,-1)" />
  <polygon
     class="cls-2"
     points="5,7.5 13,1 21,7.5 13,14 "
     id="polygon27337"
     transform="translate(-1,-1)" />
  <path
     class="cls-4"
     d="m 23.98,11.9784 c 0,-2.1608 -1.37,-4.1629 -3.7766,-5.6053 L 20.5197,5.3279 14.9141,5.0549 19.6382,8.24 19.8945,7.3928 c 1.9725,1.2356 3.085,2.868 3.085,4.586 0,1.7664 -1.2231,3.4855 -3.3209,4.7313 L 19.413,15.8471 14.6368,18.9455 20.2462,18.7744 19.9491,17.73 C 22.5158,16.2805 23.98,14.2246 23.98,11.9784 Z"
     id="path27339" />
  <path
     class="cls-4"
     d="m 4.2557,7.4258 0.25,0.8591 4.7577,-3.13 -5.6082,0.2081 0.304,1.0442 c -2.5091,1.4486 -3.9387,3.4854 -3.9387,5.7 a 6.3344,6.3344 0 0 0 2.9145,5.039 L 2.55,18.1705 8.1249,18.8449 3.6177,15.3288 3.3159,16.1321 A 5.2108,5.2108 0 0 1 1.0205,12.1069 c 0,-1.7669 1.1654,-3.4355 3.2352,-4.6811 z"
     id="path27341" />
</svg>
