<?xml version="1.0" encoding="UTF-8" standalone="no"?>
<svg
   xmlns:dc="http://purl.org/dc/elements/1.1/"
   xmlns:cc="http://creativecommons.org/ns#"
   xmlns:rdf="http://www.w3.org/1999/02/22-rdf-syntax-ns#"
   xmlns:svg="http://www.w3.org/2000/svg"
   xmlns="http://www.w3.org/2000/svg"
   xmlns:sodipodi="http://sodipodi.sourceforge.net/DTD/sodipodi-0.dtd"
   xmlns:inkscape="http://www.inkscape.org/namespaces/inkscape"
   id="Слой_1"
   data-name="Слой 1"
   viewBox="0 0 24 24"
   version="1.1"
   sodipodi:docname="unknown.svg"
   inkscape:version="1.0.1 (3bc2e813f5, 2020-09-07)">
  <sodipodi:namedview
     pagecolor="#ffffff"
     bordercolor="#666666"
     borderopacity="1"
     objecttolerance="10"
     gridtolerance="10"
     guidetolerance="10"
     inkscape:pageopacity="0"
     inkscape:pageshadow="2"
     inkscape:window-width="1609"
     inkscape:window-height="1286"
     id="namedview30"
     showgrid="true"
     inkscape:zoom="27.961538"
     inkscape:cx="10.03999"
     inkscape:cy="12.253195"
     inkscape:window-x="0"
     inkscape:window-y="37"
     inkscape:window-maximized="0"
     inkscape:document-rotation="0"
     inkscape:current-layer="Слой_1">
    <inkscape:grid
       type="xygrid"
       id="grid_kicad"
       spacingx="0.5"
       spacingy="0.5"
       color="#9999ff"
       opacity="0.13"
       empspacing="2" />
  </sodipodi:namedview>
  <metadata
     id="metadata43">
    <rdf:RDF>
      <cc:Work
         rdf:about="">
        <cc:license
           rdf:resource="http://creativecommons.org/licenses/by-sa/4.0/" />
        <dc:format>image/svg+xml</dc:format>
        <dc:type
           rdf:resource="http://purl.org/dc/dcmitype/StillImage" />
        <dc:title>add_arc</dc:title>
      </cc:Work>
      <cc:License
         rdf:about="http://creativecommons.org/licenses/by-sa/4.0/">
        <cc:permits
           rdf:resource="http://creativecommons.org/ns#Reproduction" />
        <cc:permits
           rdf:resource="http://creativecommons.org/ns#Distribution" />
        <cc:requires
           rdf:resource="http://creativecommons.org/ns#Notice" />
        <cc:requires
           rdf:resource="http://creativecommons.org/ns#Attribution" />
        <cc:permits
           rdf:resource="http://creativecommons.org/ns#DerivativeWorks" />
        <cc:requires
           rdf:resource="http://creativecommons.org/ns#ShareAlike" />
      </cc:License>
    </rdf:RDF>
  </metadata>
  <defs
     id="defs160153">
    <style
       id="style160151">.cls-1{fill:#8f8f8f;}.cls-2{fill:#42B8EB;}.cls-3{fill:#fff;}</style>
  </defs>
  <title
     id="title160155">unknown</title>
  <rect
     class="cls-1"
     x="2.0637"
     y="1.0043001"
     width="21.935101"
     height="21.9914"
     rx="3.6605"
     id="rect160157" />
  <rect
     class="cls-2"
     x="0.0011999607"
     y="5.5005999"
     width="18.7099"
     height="9.2299004"
     id="rect160159" />
  <path
     class="cls-3"
     d="M 4.0781,11.4648 A 2.1457,2.1457 0 0 1 4.2246,10.5557 2.65,2.65 0 0 1 4.8546,9.8691 4.074,4.074 0 0 0 5.4046,9.2227 1.2158,1.2158 0 0 0 5.6084,8.54 0.9142,0.9142 0 0 0 5.375,7.8711 0.8834,0.8834 0 0 0 4.7119,7.6328 0.9813,0.9813 0 0 0 4.0869,7.835 0.713,0.713 0 0 0 3.8301,8.4336 H 2.792 L 2.7783,8.4062 a 1.4677,1.4677 0 0 1 0.53,-1.2333 2.1514,2.1514 0 0 1 1.4033,-0.4424 2.0718,2.0718 0 0 1 1.4522,0.4756 1.6983,1.6983 0 0 1 0.5214,1.32 1.8276,1.8276 0 0 1 -0.3261,1.0468 4.0109,4.0109 0 0 1 -0.8223,0.8829 1.02,1.02 0 0 0 -0.3174,0.4218 2.0328,2.0328 0 0 0 -0.0644,0.5869 z m 1.0948,1.8321 h -1.1 v -1.0362 h 1.1 z"
     id="path160161" />
  <path
     class="cls-3"
     d="M 8.4951,11.4648 A 2.1442,2.1442 0 0 1 8.6416,10.5557 2.65,2.65 0 0 1 9.2716,9.8691 4.074,4.074 0 0 0 9.8216,9.2227 1.2158,1.2158 0 0 0 10.0257,8.54 0.9142,0.9142 0 0 0 9.7923,7.8711 0.8834,0.8834 0 0 0 9.1292,7.6328 0.9813,0.9813 0 0 0 8.5042,7.835 0.713,0.713 0 0 0 8.2474,8.4336 H 7.209 L 7.1953,8.4062 a 1.4677,1.4677 0 0 1 0.53,-1.2333 2.1514,2.1514 0 0 1 1.4033,-0.4424 2.0718,2.0718 0 0 1 1.4522,0.4756 1.6983,1.6983 0 0 1 0.5214,1.32 1.8276,1.8276 0 0 1 -0.3261,1.0468 4.0109,4.0109 0 0 1 -0.8223,0.8829 1.02,1.02 0 0 0 -0.3174,0.4218 2.0328,2.0328 0 0 0 -0.0644,0.5869 z M 9.59,13.2969 h -1.1 v -1.0362 h 1.1 z"
     id="path160163" />
  <path
     class="cls-3"
     d="m 12.9111,11.4648 a 2.1457,2.1457 0 0 1 0.1465,-0.9091 2.65,2.65 0 0 1 0.63,-0.6866 4.074,4.074 0 0 0 0.55,-0.6464 A 1.2158,1.2158 0 0 0 14.4417,8.54 0.9142,0.9142 0 0 0 14.2083,7.8711 0.8834,0.8834 0 0 0 13.5452,7.6328 0.9813,0.9813 0 0 0 12.9202,7.835 0.713,0.713 0 0 0 12.6634,8.4336 H 11.625 L 11.6113,8.4062 a 1.4677,1.4677 0 0 1 0.53,-1.2333 2.1514,2.1514 0 0 1 1.4033,-0.4424 2.0718,2.0718 0 0 1 1.4522,0.4756 1.6983,1.6983 0 0 1 0.5215,1.32 1.8269,1.8269 0 0 1 -0.3262,1.0468 4.0109,4.0109 0 0 1 -0.8223,0.8829 1.02,1.02 0 0 0 -0.3174,0.4218 2.0328,2.0328 0 0 0 -0.0644,0.5869 z m 1.0948,1.8321 h -1.1 v -1.0362 h 1.1 z"
     id="path160165" />
</svg>
