/* XPM */
static char * add_tracks_xpm[] = {
"16 16 16 1",
" 	c None",
".	c #007D00",
"+	c #006100",
"@	c #004400",
"#	c #007800",
"$	c #007B00",
"%	c #004000",
"&	c #007C00",
"*	c #006500",
"=	c #007A00",
"-	c #004600",
";	c #D72E2E",
">	c #A32222",
",	c #C22929",
"'	c #D22D2D",
")	c #6D1717",
"                ",
"........        ",
"........+       ",
"      @.#       ",
"       $.%      ",
"       &.*      ",
"        .=      ",
"        $.-     ",
"  ;;;   ........",
" ;;;;;   .......",
";;> >;,         ",
";;   ;'         ",
";;> ;;,         ",
" ;;;;;)         ",
"  ,',)          ",
"                "};
