/* XPM */
static char * Delete_Pad_xpm[] = {
"16 16 120 2",
"  	c None",
". 	c #000000",
"+ 	c #000200",
"@ 	c #003B00",
"# 	c #006400",
"$ 	c #007700",
"% 	c #005F00",
"& 	c #007D00",
"* 	c #007600",
"= 	c #006100",
"- 	c #006E00",
"; 	c #0D0D0D",
"> 	c #414141",
", 	c #494949",
"' 	c #3D3D3D",
") 	c #2B2B2B",
"! 	c #016201",
"~ 	c #838170",
"{ 	c #EEEBD6",
"] 	c #F0EFE7",
"^ 	c #ECEBE2",
"/ 	c #C5C4B8",
"( 	c #525145",
"_ 	c #014901",
": 	c #0F0F0F",
"< 	c #C0BEA3",
"[ 	c #BFBDA3",
"} 	c #797866",
"| 	c #47463F",
"1 	c #262624",
"2 	c #35342D",
"3 	c #858371",
"4 	c #9E9C86",
"5 	c #A19F88",
"6 	c #A3A18A",
"7 	c #2A2A2A",
"8 	c #D1CFBA",
"9 	c #DAD8C2",
"0 	c #E0DECD",
"a 	c #B7B5A0",
"b 	c #63615A",
"c 	c #383735",
"d 	c #3B3B32",
"e 	c #605F52",
"f 	c #989681",
"g 	c #B5B399",
"h 	c #B1B096",
"i 	c #A2A089",
"j 	c #E6E2D1",
"k 	c #F2EFE7",
"l 	c #F0EFE2",
"m 	c #E8E7D8",
"n 	c #E3E0D0",
"o 	c #D3D0BC",
"p 	c #C1BFA5",
"q 	c #ADAB92",
"r 	c #BEBCA2",
"s 	c #C4C2AA",
"t 	c #B6B49A",
"u 	c #787665",
"v 	c #888774",
"w 	c #EFEBD0",
"x 	c #F9F6E7",
"y 	c #F7F3EB",
"z 	c #F6F5EC",
"A 	c #F6F5EA",
"B 	c #F3F1E4",
"C 	c #EAE8D7",
"D 	c #DCDBC9",
"E 	c #9B9987",
"F 	c #626153",
"G 	c #575649",
"H 	c #515045",
"I 	c #727064",
"J 	c #9D9B8F",
"K 	c #E2DFC6",
"L 	c #E7E3CD",
"M 	c #E0DEC9",
"N 	c #CFCFC9",
"O 	c #8C8B7E",
"P 	c #757463",
"Q 	c #676657",
"R 	c #424137",
"S 	c #282721",
"T 	c #1E1E1A",
"U 	c #33332F",
"V 	c #4A4843",
"W 	c #676661",
"X 	c #6F6E65",
"Y 	c #6A6A63",
"Z 	c #6D6B5C",
"` 	c #57564A",
" .	c #383830",
"..	c #161514",
"+.	c #191915",
"@.	c #1E1D18",
"#.	c #292922",
"$.	c #9E9E93",
"%.	c #4C4C3F",
"&.	c #35352F",
"*.	c #292925",
"=.	c #2E2E29",
"-.	c #0E0E0C",
";.	c #0A0A08",
">.	c #0F0F0C",
",.	c #3D3D37",
"'.	c #33332A",
").	c #23231E",
"!.	c #2A2A23",
"~.	c #A3A297",
"{.	c #B5B4AC",
"].	c #706F66",
"^.	c #9F9F90",
"/.	c #737262",
"(.	c #3F3F34",
"_.	c #68685A",
":.	c #38382E",
"<.	c #68685E",
"[.	c #3E3E33",
"}.	c #25251F",
"      . . . . .                 ",
"    + @ # $ # @ +               ",
"  + % & & & & & % +             ",
". @ & & * = * & & @ .           ",
". # & *       $ & # .           ",
". $ & =       - & $ .           ",
". # & *     ; > , ' ) .         ",
". @ & ! . . ~ { ] ^ / ( . .     ",
"  + _ : < [ } | 1 2 3 4 5 6 .   ",
"    7 8 9 0 a b c d e f g h i . ",
"    . j k l m n o p q r s t u . ",
"    . v w x y z A B C D E F G . ",
"    . H I J K L M N O P Q R S . ",
"      T U V W X Y Z `  ...+.@.  ",
"      #.$.%.&.*.=.-.;.>.,.'.).  ",
"      !.~.{.].^./.(._.:.<.[.}.  "};
