/* XPM */
static char * Delete_Net_xpm[] = {
"16 16 128 2",
"  	c None",
". 	c #005900",
"+ 	c #007D00",
"@ 	c #003500",
"# 	c #002C00",
"$ 	c #004000",
"% 	c #005200",
"& 	c #595959",
"* 	c #E4CBB6",
"= 	c #594534",
"- 	c #006500",
"; 	c #004E00",
"> 	c #9D8570",
", 	c #FFBC80",
"' 	c #9D622E",
") 	c #151608",
"! 	c #643A15",
"~ 	c #141C00",
"{ 	c #006700",
"] 	c #0D0D0D",
"^ 	c #414141",
"/ 	c #494949",
"( 	c #3D3D3D",
"_ 	c #2B2B2B",
": 	c #000000",
"< 	c #838170",
"[ 	c #EEEBD6",
"} 	c #F0EFE7",
"| 	c #ECEBE2",
"1 	c #C5C4B8",
"2 	c #525145",
"3 	c #0F0F0F",
"4 	c #C0BEA3",
"5 	c #BFBDA3",
"6 	c #797866",
"7 	c #47463F",
"8 	c #262624",
"9 	c #35342D",
"0 	c #858371",
"a 	c #9E9C86",
"b 	c #A19F88",
"c 	c #A3A18A",
"d 	c #006D00",
"e 	c #2A2A2A",
"f 	c #D1CFBA",
"g 	c #DAD8C2",
"h 	c #E0DECD",
"i 	c #B7B5A0",
"j 	c #63615A",
"k 	c #383735",
"l 	c #3B3B32",
"m 	c #605F52",
"n 	c #989681",
"o 	c #B5B399",
"p 	c #B1B096",
"q 	c #A2A089",
"r 	c #E6E2D1",
"s 	c #F2EFE7",
"t 	c #F0EFE2",
"u 	c #E8E7D8",
"v 	c #E3E0D0",
"w 	c #D3D0BC",
"x 	c #C1BFA5",
"y 	c #ADAB92",
"z 	c #BEBCA2",
"A 	c #C4C2AA",
"B 	c #B6B49A",
"C 	c #787665",
"D 	c #888774",
"E 	c #EFEBD0",
"F 	c #F9F6E7",
"G 	c #F7F3EB",
"H 	c #F6F5EC",
"I 	c #F6F5EA",
"J 	c #F3F1E4",
"K 	c #EAE8D7",
"L 	c #DCDBC9",
"M 	c #9B9987",
"N 	c #626153",
"O 	c #575649",
"P 	c #515045",
"Q 	c #727064",
"R 	c #9D9B8F",
"S 	c #E2DFC6",
"T 	c #E7E3CD",
"U 	c #E0DEC9",
"V 	c #CFCFC9",
"W 	c #8C8B7E",
"X 	c #757463",
"Y 	c #676657",
"Z 	c #424137",
"` 	c #282721",
" .	c #1E1E1A",
"..	c #33332F",
"+.	c #4A4843",
"@.	c #676661",
"#.	c #6F6E65",
"$.	c #6A6A63",
"%.	c #6D6B5C",
"&.	c #57564A",
"*.	c #383830",
"=.	c #161514",
"-.	c #191915",
";.	c #1E1D18",
">.	c #292922",
",.	c #9E9E93",
"'.	c #4C4C3F",
").	c #35352F",
"!.	c #292925",
"~.	c #2E2E29",
"{.	c #0E0E0C",
"].	c #0A0A08",
"^.	c #0F0F0C",
"/.	c #3D3D37",
"(.	c #33332A",
"_.	c #23231E",
":.	c #2A2A23",
"<.	c #A3A297",
"[.	c #B5B4AC",
"}.	c #706F66",
"|.	c #9F9F90",
"1.	c #737262",
"2.	c #3F3F34",
"3.	c #68685A",
"4.	c #38382E",
"5.	c #68685E",
"6.	c #3E3E33",
"7.	c #25251F",
"                . + +           ",
"                @ # $           ",
"+ + + + + + + % & * = - + + + + ",
"+ + + + + + + ; > , ' ; + + + + ",
"                ) ! ~           ",
"                  { +           ",
"            ] ^ / ( _ :         ",
"        : : < [ } | 1 2 : :     ",
"      3 4 5 6 7 8 9 0 a b c : d ",
"    e f g h i j k l m n o p q : ",
"    : r s t u v w x y z A B C : ",
"    : D E F G H I J K L M N O : ",
"    : P Q R S T U V W X Y Z ` : ",
"       ...+.@.#.$.%.&.*.=.-.;.  ",
"      >.,.'.).!.~.{.].^./.(._.  ",
"      :.<.[.}.|.1.2.3.4.5.6.7.  "};
