/* XPM */
static char * Edges_Sketch_xpm[] = {
"16 16 3 1",
" 	c None",
".	c #D72E2E",
"+	c #00009B",
"...+++   +++... ",
". .+  +++  +. . ",
"...+       +... ",
"   +       +    ",
"...+       +... ",
". .+       +. . ",
"...+       +... ",
"   +       +    ",
"...+       +... ",
". .+       +. . ",
"...+       +... ",
"   +       +    ",
"...+       +... ",
". .+       +. . ",
"...+++++++++... ",
"                "};
