/* XPM */
static char * export_module_xpm[] = {
"16 16 86 1",
" 	c None",
".	c #000000",
"+	c #F3F3F3",
"@	c #1B1B1B",
"#	c #1A1A1B",
"$	c #E7E7F3",
"%	c #002000",
"&	c #D72E2E",
"*	c #FFFFFF",
"=	c #E0E0E0",
"-	c #C8C8C8",
";	c #C3C3C8",
">	c #D4D4E0",
",	c #E7E6FB",
"'	c #350B0B",
")	c #110802",
"!	c #000E00",
"~	c #00AB00",
"{	c #001E00",
"]	c #FDFDFF",
"^	c #F7F7FF",
"/	c #F0F0FF",
"(	c #D9D8ED",
"_	c #292A2F",
":	c #005800",
"<	c #009A00",
"[	c #00BC00",
"}	c #00B700",
"|	c #00BD00",
"1	c #009200",
"2	c #FCFCFF",
"3	c #F6F6FF",
"4	c #EFEFFF",
"5	c #E8E8FF",
"6	c #61616E",
"7	c #007900",
"8	c #004400",
"9	c #001700",
"0	c #000100",
"a	c #00A000",
"b	c #001600",
"c	c #F5F4FF",
"d	c #EEEEFF",
"e	c #E7E7FF",
"f	c #D2D1EE",
"g	c #031403",
"h	c #005D00",
"i	c #2A0808",
"j	c #651515",
"k	c #001000",
"l	c #EDECFF",
"m	c #E6E6FF",
"n	c #E0DFFF",
"o	c #ABABCA",
"p	c #004000",
"q	c #002200",
"r	c #7D1A1A",
"s	c #8B1D1D",
"t	c #E5E5FF",
"u	c #DFDEFF",
"v	c #D8D7FF",
"w	c #8989A8",
"x	c #DDDDFF",
"y	c #D7D6FF",
"z	c #D0CFFF",
"A	c #CAC8FF",
"B	c #8180A9",
"C	c #72719B",
"D	c #C02929",
"E	c #D6D5FF",
"F	c #CFCEFF",
"G	c #C8C7FF",
"H	c #C2C0FF",
"I	c #9796CF",
"J	c #918FCD",
"K	c #D52D2D",
"L	c #CECDFF",
"M	c #C7C6FF",
"N	c #C1BFFF",
"O	c #BAB8FF",
"P	c #B4B2FF",
"Q	c #AFADFF",
"R	c #C6C5FF",
"S	c #C0BEFF",
"T	c #B9B7FF",
"U	c #B2B1FF",
"                ",
"  ...  ...  .   ",
"  .+@..#$.  .%  ",
"&&.*=-;>,.')!~{ ",
"&&.*]^/(_:<[}|1.",
"  .234567}890ab ",
"&&.cdefg|hij.k. ",
"&&.lmnop|qrs..  ",
"  .tuvw.... .   ",
"&&.xyzABC.D&    ",
"&&.EFGHIJ.K&    ",
"  .LMNOPQ.      ",
"  .RSTUQQ.      ",
"  ........      ",
"                ",
"                "};
