/* XPM */
static char * general_ratsnet_xpm[] = {
"16 16 41 1",
" 	c None",
".	c #FFFFFF",
"+	c #2F2F2F",
"@	c #444342",
"#	c #AEAEAE",
"$	c #1D1D1D",
"%	c #F2D7C1",
"&	c #F2BD8E",
"*	c #3C3631",
"=	c #403D3B",
"-	c #F2B279",
";	c #F29747",
">	c #443B33",
",	c #B1B1B1",
"'	c #444444",
")	c #333231",
"!	c #C3C3C3",
"~	c #372E28",
"{	c #3C3129",
"]	c #413B36",
"^	c #423F3D",
"/	c #382F29",
"(	c #1C1006",
"_	c #323232",
":	c #161514",
"<	c #181818",
"[	c #3B3A39",
"}	c #3F3F3F",
"|	c #171009",
"1	c #F2D7C0",
"2	c #F2BC8E",
"3	c #3D3731",
"4	c #1D1917",
"5	c #2A1F16",
"6	c #413E3C",
"7	c #F29647",
"8	c #1B1007",
"9	c #261D16",
"0	c #443A32",
"a	c #BBBBBB",
"b	c #1A1109",
"    ...  ...    ",
"    ..    ..    ",
"   +@#    ...   ",
"  $%&*     ..   ",
"  =-;>.....,')  ",
"..!~{!.....'%&].",
"..   ...   ^-;>.",
".     ... .!/(  ",
"       .....    ",
"        ...     ",
"       .....    ",
"      ... .!_:  ",
"    <[!.   }%&| ",
"...'123    4-;5 ",
"...6-78     90a ",
"    b(       .. "};
