/* XPM */
static char * local_ratsnet_xpm[] = {
"16 16 61 1",
" 	c None",
".	c #FFFFFF",
"+	c #000000",
"@	c #040404",
"#	c #C3C3C3",
"$	c #080808",
"%	c #BBBBC3",
"&	c #FF7800",
"*	c #F5F4FF",
"=	c #EBEAFF",
"-	c #747479",
";	c #DADAED",
">	c #E1E1FF",
",	c #F6F5FF",
"'	c #323135",
")	c #3D3D3F",
"!	c #9493AF",
"~	c #ECECFF",
"{	c #323237",
"]	c #F9F9F9",
"^	c #7B7B7B",
"/	c #EC6F00",
"(	c #E3E2FF",
"_	c #2F2F37",
":	c #BFBFCD",
"<	c #382F2D",
"[	c #A8A8A8",
"}	c #D9D8FF",
"|	c #363542",
"1	c #F4F4F4",
"2	c #F7F7FF",
"3	c #E6E6FF",
"4	c #D1D1F9",
"5	c #5A5A74",
"6	c #D0CFFF",
"7	c #3E3E50",
"8	c #E5E5E5",
"9	c #F0F0FF",
"0	c #D3D3F1",
"a	c #4F4F62",
"b	c #2C2C30",
"c	c #C1C0F8",
"d	c #43435B",
"e	c #D2D2D7",
"f	c #7F7F8C",
"g	c #9999B6",
"h	c #444457",
"i	c #737373",
"j	c #A4A4A4",
"k	c #E2E2E2",
"l	c #363639",
"m	c #33333E",
"n	c #B2B2EE",
"o	c #1A1A24",
"p	c #EBEBEB",
"q	c #9090C8",
"r	c #7C7CBD",
"s	c #010101",
"t	c #393952",
"u	c #6969A7",
"v	c #09090E",
"                ",
"                ",
".    +@  @+    .",
"...  +#$$%+  ...",
" ...&+..*=+&... ",
"   .&+.-;>+&.   ",
"     +,')!+     ",
"....&+~{]^@/....",
"....&+(_..:<[...",
"     +}|12345+  ",
"   .&+67890ab   ",
" ...&+cdefghijk ",
"...  +++l+mnop..",
".       + +qrs .",
"           tuv  ",
"           ++   "};
