/* XPM */
static char * Locked_xpm[] = {
"16 16 90 1",
" 	c None",
".	c #000000",
"+	c #1E1E1E",
"@	c #7A7A7A",
"#	c #D2D2D2",
"$	c #DBDBDB",
"%	c #BCBCBC",
"&	c #727272",
"*	c #080808",
"=	c #848484",
"-	c #BEBEBE",
";	c #383838",
">	c #1C1C1C",
",	c #4D4D4D",
"'	c #B1B1B1",
")	c #2D2D2D",
"!	c #C2C2C2",
"~	c #090909",
"{	c #2E2E2E",
"]	c #AAAAAA",
"^	c #2B2B2B",
"/	c #C0C0C0",
"(	c #161616",
"_	c #C1C0C0",
":	c #13110E",
"<	c #9B9794",
"[	c #201D1C",
"}	c #0B0B07",
"|	c #040302",
"1	c #050403",
"2	c #2F2921",
"3	c #A8A39E",
"4	c #1A130B",
"5	c #A59176",
"6	c #E0C4A0",
"7	c #DFC4A3",
"8	c #DABE9A",
"9	c #D6BA94",
"0	c #CDA676",
"a	c #815A2B",
"b	c #E2C5A1",
"c	c #D8B58C",
"d	c #CA9F68",
"e	c #AC8758",
"f	c #A78252",
"g	c #A78253",
"h	c #A37B4B",
"i	c #BC8849",
"j	c #AC712E",
"k	c #E3C6A2",
"l	c #D5AE7E",
"m	c #B08D5F",
"n	c #D5B284",
"o	c #CFAB7C",
"p	c #CFAC7B",
"q	c #CBA471",
"r	c #BC8746",
"s	c #AA6F2B",
"t	c #E1C4A0",
"u	c #D0A674",
"v	c #C79B64",
"w	c #AA8455",
"x	c #A47E4E",
"y	c #A07744",
"z	c #BA8442",
"A	c #E1C29C",
"B	c #CEA470",
"C	c #AD8D64",
"D	c #D2B289",
"E	c #CDAC83",
"F	c #CEAD83",
"G	c #CCA77B",
"H	c #B8803E",
"I	c #AD7332",
"J	c #E0C29E",
"K	c #D4AC79",
"L	c #CDA66E",
"M	c #AF8D5E",
"N	c #AB8758",
"O	c #AB8858",
"P	c #A8814C",
"Q	c #B47E3E",
"R	c #D0A874",
"S	c #C6965D",
"T	c #BE8D50",
"U	c #BA894B",
"V	c #BD8C4E",
"W	c #BC8A4C",
"X	c #BA8647",
"Y	c #A47136",
"                ",
"      ....      ",
"    +@#$$%&*    ",
"    =-;>>,'=    ",
"   )!~    {].   ",
"   ^/.    (_.   ",
"   :<[}||1234   ",
"  .567788890a.  ",
"  .bcdeffghij.  ",
"  .klmnoopqrs.  ",
"  .tuvwxxxyzj.  ",
"  .ABCDEEFGHI.  ",
"  .JKLMNNOPrQ.  ",
"  .RSTTUUVWXY.  ",
"   ..........   ",
"                "};
