/* XPM */
static char * mode_module_xpm[] = {
"16 16 96 2",
"  	c None",
". 	c #D72E2E",
"+ 	c #000000",
"@ 	c #F8F8F8",
"# 	c #B8B8B8",
"$ 	c #A9A9B8",
"% 	c #DAD9F8",
"& 	c #D42D2D",
"* 	c #FFFFFF",
"= 	c #C9C9C9",
"- 	c #2F2F31",
"; 	c #AEADBD",
"> 	c #E1E0FF",
", 	c #D7D6FF",
"' 	c #D12C2C",
") 	c #B3B3B3",
"! 	c #373742",
"~ 	c #DCDCEF",
"{ 	c #343441",
"] 	c #8887A2",
"^ 	c #CDCCFF",
"/ 	c #D62D2D",
"( 	c #929292",
"_ 	c #020202",
": 	c #84849B",
"< 	c #010101",
"[ 	c #605F7D",
"} 	c #E0E0E9",
"| 	c #BDBDCD",
"1 	c #8A89B4",
"2 	c #9594CD",
"3 	c #962020",
"4 	c #BEBDCD",
"5 	c #E3E2FF",
"6 	c #F1F1FF",
"7 	c #9694CD",
"8 	c #B1AFFF",
"9 	c #811B1B",
"0 	c #CF2C2C",
"a 	c #140303",
"b 	c #31313C",
"c 	c #E7E5FF",
"d 	c #646489",
"e 	c #232332",
"f 	c #170404",
"g 	c #2A0909",
"h 	c #FBFBFF",
"i 	c #EAEAFF",
"j 	c #E2E1FF",
"k 	c #DBDBFF",
"l 	c #D5D3FF",
"m 	c #CDCDFF",
"n 	c #C8C6FF",
"o 	c #C1C1FF",
"p 	c #9F9DDB",
"q 	c #1C0505",
"r 	c #C92B2B",
"s 	c #080101",
"t 	c #342F3B",
"u 	c #7A7A96",
"v 	c #D2D0FF",
"w 	c #5A5981",
"x 	c #241F2E",
"y 	c #090101",
"z 	c #CA2B2B",
"A 	c #881C1C",
"B 	c #8C8BB4",
"C 	c #9796CD",
"D 	c #C8C8FF",
"E 	c #706FA4",
"F 	c #8C8BCD",
"G 	c #5C1313",
"H 	c #BC2727",
"I 	c #9897CD",
"J 	c #B4B2FF",
"K 	c #C0BFFF",
"L 	c #AFADFF",
"M 	c #150404",
"N 	c #5D5C85",
"O 	c #010102",
"P 	c #5C5C82",
"Q 	c #B8B8FF",
"R 	c #56557D",
"S 	c #504F75",
"T 	c #696799",
"U 	c #232234",
"V 	c #9493D6",
"W 	c #1F1F31",
"X 	c #4B4A6E",
"Y 	c #9694DB",
"Z 	c #050508",
"` 	c #030305",
" .	c #000001",
"..	c #020204",
"+.	c #040407",
"@.	c #CE2C2C",
". . . + + +       + + + . . .   ",
".   . + @ # + + + $ % + .   .   ",
". & . + * * = - ; > , + . ' .   ",
"      + * ) ! ~ { ] ^ +         ",
". / / + ( _ : * : < [ + ' / /   ",
".   . + } | + * + 1 2 + .   .   ",
". ' 3 + 4 5 + 6 + 7 8 + 9 0 .   ",
"  a b : + + + c + + + d e f     ",
". g ~ h 6 i j k l m n o p q r   ",
". s t u + + + v + + + w x y z   ",
". & A + B C + D + E F + G H .   ",
"      + I J + K + F L + M       ",
". / / + N O P Q R O S + ' / /   ",
".   . + L T U V W X Y + .   .   ",
". ' . + Z Z `  ...+.Z + . @..   ",
"                                "};
