/* XPM */
static char * module_check_xpm[] = {
"16 16 129 2",
"  	c None",
". 	c #D72E2E",
"+ 	c #000000",
"@ 	c #691717",
"# 	c #380C0C",
"$ 	c #F8F8F8",
"% 	c #B8B8B8",
"& 	c #A9A9B8",
"* 	c #DAD9F8",
"= 	c #3B0D0D",
"- 	c #353F4D",
"; 	c #477096",
"> 	c #D42D2D",
", 	c #FFFFFF",
"' 	c #EEEDF8",
") 	c #E5E4F8",
"! 	c #E1E0FF",
"~ 	c #D7D6FF",
"{ 	c #536980",
"] 	c #8EACC8",
"^ 	c #0D1217",
"/ 	c #FCFCFC",
"( 	c #FEFEFE",
"_ 	c #F5F5FF",
": 	c #EBEBFF",
"< 	c #E1E1FF",
"[ 	c #696983",
"} 	c #253341",
"| 	c #BFD0E0",
"1 	c #31506C",
"2 	c #050101",
"3 	c #D62D2D",
"4 	c #CD2B2B",
"5 	c #3D6283",
"6 	c #2D353B",
"7 	c #C9C8D0",
"8 	c #E7E6FA",
"9 	c #E2E1FF",
"0 	c #D8D7FF",
"a 	c #8685A6",
"b 	c #3F4557",
"c 	c #96AFC7",
"d 	c #628BB3",
"e 	c #5D1414",
"f 	c #C72B2B",
"g 	c #16222D",
"h 	c #D6E1EB",
"i 	c #26384A",
"j 	c #9191A4",
"k 	c #CFCEF4",
"l 	c #CECDFF",
"m 	c #23222D",
"n 	c #638AB1",
"o 	c #A2BBD3",
"p 	c #355573",
"q 	c #911F1F",
"r 	c #D12C2C",
"s 	c #D52E2E",
"t 	c #5885B0",
"u 	c #B1C6DA",
"v 	c #273C51",
"w 	c #777793",
"x 	c #52516A",
"y 	c #3E495E",
"z 	c #131D27",
"A 	c #470F0F",
"B 	c #B32626",
"C 	c #373B44",
"D 	c #7A9EC0",
"E 	c #769BBE",
"F 	c #233649",
"G 	c #41445C",
"H 	c #8AAAC8",
"I 	c #7298BC",
"J 	c #3B5F7F",
"K 	c #020100",
"L 	c #1B0505",
"M 	c #BAB9D9",
"N 	c #253849",
"O 	c #779CBF",
"P 	c #638DB5",
"Q 	c #33506A",
"R 	c #5482AE",
"S 	c #1B2C3C",
"T 	c #330B0B",
"U 	c #A42323",
"V 	c #D12D2D",
"W 	c #CCCBFA",
"X 	c #48495E",
"Y 	c #48739A",
"Z 	c #668FB6",
"` 	c #ACC2D7",
" .	c #42698C",
"..	c #05090B",
"+.	c #6D1717",
"@.	c #D62E2E",
"#.	c #C7C6FF",
"$.	c #B1AFEF",
"%.	c #202A38",
"&.	c #5D89B3",
"*.	c #49749B",
"=.	c #426A8E",
"-.	c #263C51",
";.	c #962020",
">.	c #C82A2A",
",.	c #BEBCFF",
"'.	c #B2B0FC",
").	c #7372A8",
"!.	c #243A4F",
"~.	c #294158",
"{.	c #0C141B",
"].	c #190505",
"^.	c #B4B2FF",
"/.	c #AFADFF",
"(.	c #A8A6F5",
"_.	c #2A2D41",
":.	c #1B2B3A",
"<.	c #0C0C11",
"[.	c #C32929",
"}.	c #AEACFE",
"|.	c #9B99E2",
"1.	c #060609",
"2.	c #373650",
"3.	c #D32D2D",
"4.	c #050508",
"5.	c #040407",
"6.	c #020204",
"7.	c #030305",
"8.	c #CE2C2C",
". . . + + +       + + + . @ #   ",
".   . + $ % + + + & * + = - ; + ",
". > . + , , $ ' ) ! ~ + { ] ^ + ",
"      + / ( _ : < ~ [ } | 1 2 + ",
". 3 4 5 6 7 8 9 0 a b c d ^ e   ",
".   f g h i j k l m n o p 2 q   ",
". r s + t u v w x y o t z A B   ",
"      + C D E F G H I J K L     ",
". . . + M N O P Q u R S T U V   ",
".   . + W X Y Z ` P  ...+.  @.  ",
". > . + #.$.%.&.*.=.-.+ ;.>..   ",
"      + ,.'.).!.5 ~.{.+ ].      ",
". 3 3 + ^./.(._.:.{.<.+ [.3 3   ",
".   . + /./.}.|.1.<.2.+ 3.  .   ",
". r . + 4.4.4.4.5.6.7.+ . 8..   ",
"                    +           "};
