/* XPM */
static char * Move_Pin_xpm[] = {
"16 16 56 1",
" 	c None",
".	c #D72E2E",
"+	c #DE676B",
"@	c #DA636B",
"#	c #D62E2E",
"$	c #E5E5FF",
"%	c #D7D7FF",
"&	c #D25B6B",
"*	c #D23535",
"=	c #CACAFF",
"-	c #CE576B",
";	c #D03939",
">	c #B96464",
",	c #965151",
"'	c #241313",
")	c #8D4C4C",
"!	c #9B9B9B",
"~	c #C35151",
"{	c #B17171",
"]	c #535353",
"^	c #32323E",
"/	c #DCDCEF",
"(	c #484848",
"_	c #B36E6E",
":	c #CA4444",
"<	c #9C9898",
"[	c #000000",
"}	c #84849B",
"|	c #FFFFFF",
"1	c #1B1B1B",
"2	c #F1F1FF",
"3	c #31313D",
"4	c #E7E5FF",
"5	c #646489",
"6	c #232332",
"7	c #FBFBFF",
"8	c #EAEAFF",
"9	c #E2E1FF",
"0	c #DBDBFF",
"a	c #D5D3FF",
"b	c #CDCDFF",
"c	c #C8C6FF",
"d	c #C1C1FF",
"e	c #9F9DDB",
"f	c #30303B",
"g	c #7A7A96",
"h	c #D2D0FF",
"i	c #5A5981",
"j	c #20202F",
"k	c #C8C8FF",
"l	c #C0BFFF",
"m	c #5C5C82",
"n	c #B8B8FF",
"o	c #56557D",
"p	c #9493D6",
"q	c #1D1D2C",
"  ..            ",
" .+@.           ",
"#+$%&.........  ",
"*@%=-;>>,')>>>! ",
"~.&-.{!]^/^(!!! ",
" _::{< [}|}[[   ",
"  !!!1  [|[     ",
"     [  [2[  [  ",
"    3}[[[4[[[56 ",
"   [/72890abcde[",
"    fg[[[h[[[ij ",
"     [  [k[  [[ ",
"     [  [l[  [  ",
"       [mno[[   ",
"        jpq[    ",
"         [      "};
