/* XPM */
static char * mw_Add_Line_xpm[] = {
"16 16 6 1",
" 	c None",
".	c #D72E2E",
"+	c #9B9B9B",
"@	c #000000",
"#	c #2E2E2E",
"$	c #5F5F5F",
" ... ... ...    ",
" .+.+.+.+.+.+   ",
" .+.+.+.+.+.+   ",
" .+.+.+.+.+.+   ",
" .+.+.+.+.+.+   ",
"..+.+.+.+.+.+...",
"+++.+.+.+.+.+.++",
"   .+.+.+.+.+.+ ",
"   .+.+.+.+.+.+ ",
"   .+.+.+.+.+.+ ",
"   ...+...+...+ ",
"   @+++ +++ #$+ ",
"  @          @  ",
" @@@@@@@@@@@@@@ ",
"  @          @  ",
"   @        @   "};
