/* XPM */
static char * mw_Add_Gap_xpm[] = {
"16 16 13 1",
" 	c None",
".	c #D72E2E",
"+	c #9B9B9B",
"@	c #3737FF",
"#	c #000000",
"$	c #9A9A9A",
"%	c #080808",
"&	c #3B3B3B",
"*	c #0F0F0F",
"=	c #818181",
"-	c #828282",
";	c #5E5E5E",
">	c #434343",
"                ",
"                ",
"....       .... ",
"....+  @   ....+",
"....+ @@@  ....+",
"....+  @   ....+",
"....+      ....+",
" ++++       ++++",
"                ",
"                ",
"     #   #      ",
"    # $   %&    ",
"   #########    ",
"    *=+++-*;$   ",
"    &>   # +    ",
"      +   +     "};
