/* XPM */
static char * Net_UnLocked_xpm[] = {
"16 16 90 1",
" 	c None",
".	c #007D00",
"+	c #007000",
"@	c #333533",
"#	c #A4A3A3",
"$	c #33322D",
"%	c #004B00",
"&	c #FFE3CB",
"*	c #A48060",
"=	c #332D24",
"-	c #A47952",
";	c #33210F",
">	c #004800",
",	c #000000",
"'	c #006100",
")	c #006300",
"!	c #111111",
"~	c #777777",
"{	c #D0D0D0",
"]	c #D9D9D9",
"^	c #6A716A",
"/	c #044004",
"(	c #003900",
"_	c #818181",
":	c #B6B6B6",
"<	c #353535",
"[	c #1C1C1C",
"}	c #AFAFAF",
"|	c #7E837E",
"1	c #000100",
"2	c #293329",
"3	c #BEBFBE",
"4	c #071807",
"5	c #2D2F2D",
"6	c #A8A9A8",
"7	c #2A2C2A",
"8	c #BCBEBC",
"9	c #001200",
"0	c #151815",
"a	c #BFBEBE",
"b	c #12100D",
"c	c #999592",
"d	c #1F1C1B",
"e	c #0A0A06",
"f	c #030201",
"g	c #040302",
"h	c #0C0B08",
"i	c #272523",
"j	c #19120A",
"k	c #A38F75",
"l	c #DEC29E",
"m	c #DDC2A1",
"n	c #D8BC98",
"o	c #D4B892",
"p	c #CBA475",
"q	c #7F592A",
"r	c #E0C39F",
"s	c #D6B38A",
"t	c #C89D67",
"u	c #AA8557",
"v	c #A58051",
"w	c #A58052",
"x	c #A17A4A",
"y	c #BA8648",
"z	c #AA702D",
"A	c #E1C4A0",
"B	c #D3AC7D",
"C	c #AE8B5E",
"D	c #D3B082",
"E	c #CDA97B",
"F	c #CDAA7A",
"G	c #C9A270",
"H	c #BA8545",
"I	c #A86E2A",
"J	c #DFC29E",
"K	c #CEA473",
"L	c #C59963",
"M	c #A88254",
"N	c #A27D4D",
"O	c #9E7643",
"P	c #B88241",
"Q	c #DFC09A",
"R	c #CCA26F",
"S	c #AB8B63",
"T	c #D0B087",
"U	c #CBAA81",
"V	c #CCAB81",
"W	c #CAA57A",
"X	c #B67F3D",
"Y	c #AB7231",
"                ",
".....+@#$+......",
".....%#&*%......",
"      =-;       ",
"      +>        ",
"   ,,'.)        ",
" !~{]^/(        ",
" _:<[}|1        ",
"234..56,        ",
"789..0a,        ",
"    ,bcdeffghij ",
"    ,klmmnnnopq,",
"    ,rstuvvwxyz,",
"    ,ABCDEEFGHI,",
"    ,JKLMNNNOPz,",
"    ,QRSTUUVWXY,"};
