/* XPM */
static char * Options_Track_xpm[] = {
"16 16 45 1",
" 	c None",
".	c #007D00",
"+	c #006100",
"@	c #004400",
"#	c #007800",
"$	c #007B00",
"%	c #004000",
"&	c #007C00",
"*	c #006500",
"=	c #D72E2E",
"-	c #007A00",
";	c #004600",
">	c #010000",
",	c #000000",
"'	c #F1F0F0",
")	c #DFDEDE",
"!	c #E0DFDF",
"~	c #DFDFDF",
"{	c #C0BFBF",
"]	c #BFBFBF",
"^	c #C0C0C0",
"/	c #989797",
"(	c #989898",
"_	c #E3E3E3",
":	c #DDDDDD",
"<	c #C8C8C8",
"[	c #656565",
"}	c #838383",
"|	c #878787",
"1	c #888888",
"2	c #AFAFAF",
"3	c #A3A3A3",
"4	c #F1F1F1",
"5	c #CECECE",
"6	c #979797",
"7	c #ABABAB",
"8	c #EEEEEE",
"9	c #EDEDED",
"0	c #E9E9E9",
"a	c #D9D9D9",
"b	c #C1C1C1",
"c	c #B5B5B5",
"d	c #757575",
"e	c #6B6B6B",
"f	c #777777",
"........        ",
"........+       ",
"      @.#       ",
"       $.%      ",
"       &.*      ",
"  ===   .-      ",
" =====  $.;     ",
"=== >>>,,,,,,,,,",
"== ,')!~~~~~~~~~",
"===>!{{]]]]^^^^^",
" ==>!{/,,,(^^^^^",
"  =>!{,_:<,[}|12",
"   ,~],:^3,,,,,4",
"   ,~],536,7890a",
"   ,~^(,,,[}bbbb",
"   ,~^cde[f1,,,("};
