/* XPM */
static char * Options_Module_xpm[] = {
"16 16 53 1",
" 	c None",
".	c #000000",
"+	c #C0C0C0",
"@	c #B8B8C0",
"#	c #D72E2E",
"$	c #FFFFFF",
"%	c #F5F4FF",
"&	c #EBEAFF",
"*	c #F5F5FF",
"=	c #EBEBFF",
"-	c #E1E1FF",
";	c #F6F5FF",
">	c #ECEBFF",
",	c #E2E1FF",
"'	c #D8D7FF",
")	c #ECECFF",
"!	c #E2E2FF",
"~	c #CECDFF",
"{	c #E3E2FF",
"]	c #D9D8FF",
"^	c #CFCEFF",
"/	c #C5C4FF",
"(	c #010101",
"_	c #D0CFFF",
":	c #F1F1F1",
"<	c #DFDFDF",
"[	c #E0DFDF",
"}	c #C6C5FF",
"|	c #E0E0E0",
"1	c #BFBFBF",
"2	c #C0BFBF",
"3	c #979797",
"4	c #989898",
"5	c #E3E3E3",
"6	c #DDDDDD",
"7	c #C8C8C8",
"8	c #656565",
"9	c #838383",
"0	c #878787",
"a	c #888888",
"b	c #AFAFAF",
"c	c #A3A3A3",
"d	c #CECECE",
"e	c #ABABAB",
"f	c #EEEEEE",
"g	c #EDEDED",
"h	c #E9E9E9",
"i	c #D9D9D9",
"j	c #C1C1C1",
"k	c #B5B5B5",
"l	c #757575",
"m	c #6B6B6B",
"n	c #777777",
" ..  ..         ",
" .+..@.         ",
"#.$$%&.#        ",
"#.$*=-.#        ",
" .;>,'.         ",
"#.)!'~.#        ",
"#.{]^/.#        ",
" .]^((..........",
"#._(:<<[<<<<<<<<",
"#.}(|+12111+++++",
" ...<13...4+++++",
"   .<1.567.890ab",
"   .<1.6+c.....:",
"   .<1.dc3.efghi",
"   .<+4...89jjjj",
"   .<+klm8na...4"};
