/* XPM */
static char * Post_Module_xpm[] = {
"16 16 52 1",
" 	c None",
".	c #000000",
"+	c #FFFFFF",
"@	c #FEFEFE",
"#	c #FDFDFD",
"$	c #FCFCFC",
"%	c #FBFBFB",
"&	c #FAFAFA",
"*	c #F9F9F9",
"=	c #F8F8F8",
"-	c #7C7C7C",
";	c #232323",
">	c #EBEBEB",
",	c #B5B5B5",
"'	c #BEBEBE",
")	c #424242",
"!	c #B0B0B0",
"~	c #A5A5A5",
"{	c #B8B8B8",
"]	c #282828",
"^	c #C0C0C0",
"/	c #B8B8C0",
"(	c #D3D3D3",
"_	c #B1B1B1",
":	c #838383",
"<	c #FF7800",
"[	c #F5F4FF",
"}	c #EBEAFF",
"|	c #CDCDCD",
"1	c #AFAFAF",
"2	c #F5F5FF",
"3	c #EBEBFF",
"4	c #E1E1FF",
"5	c #F6F5FF",
"6	c #ECEBFF",
"7	c #E2E1FF",
"8	c #D8D7FF",
"9	c #ECECFF",
"0	c #E2E2FF",
"a	c #CECDFF",
"b	c #E3E2FF",
"c	c #D9D8FF",
"d	c #CFCEFF",
"e	c #C5C4FF",
"f	c #BBBAFF",
"g	c #D0CFFF",
"h	c #C6C5FF",
"i	c #BCBAFF",
"j	c #B2B0FF",
"k	c #BCBBFF",
"l	c #B3B1FF",
"m	c #AFADFF",
"...........     ",
".+@#$%&*=-;.    ",
".+>>>>>>>,').   ",
".+>..!!..,~{].  ",
".+>.^../.(__:.  ",
".@<.++[}.<||1.  ",
".@<.+234.<>>1.  ",
".@>.5678.>>>1.  ",
".@<.908a.<>>1.  ",
".#<.bcde.<>>1.  ",
".#>.cdef.>>>1.  ",
".#<.ghij.<>>1.  ",
".#<.hklm.<>>1.  ",
".#>......>>>1.  ",
".111111111111.  ",
"..............  "};
