/* XPM */
static char * post_drill_xpm[] = {
"16 16 35 1",
" 	c None",
".	c #000000",
"+	c #FFFFFF",
"@	c #FEFEFE",
"#	c #FDFDFD",
"$	c #FCFCFC",
"%	c #FBFBFB",
"&	c #696969",
"*	c #F9F9F9",
"=	c #F8F8F8",
"-	c #7C7C7C",
";	c #232323",
">	c #EBEBEB",
",	c #9E9E9E",
"'	c #B5B5B5",
")	c #BEBEBE",
"!	c #424242",
"~	c #A5A5A5",
"{	c #B8B8B8",
"]	c #282828",
"^	c #A6A6A6",
"/	c #303030",
"(	c #0B0B0B",
"_	c #D3D3D3",
":	c #B1B1B1",
"<	c #838383",
"[	c #1A1A1A",
"}	c #8C8C8C",
"|	c #9C9C9C",
"1	c #CDCDCD",
"2	c #AFAFAF",
"3	c #AAAAAA",
"4	c #5E5E5E",
"5	c #7A7A7A",
"6	c #101010",
"...........     ",
".+@#$%&*=-;.    ",
".+>>>>&,>')!.   ",
".+>>>>>,>'~{].  ",
".+>>^/(/^_::<.  ",
".@>^[}_}[|112.  ",
".@>/}>&>}/>>2.  ",
"&&>(_&&&_(>&&.  ",
".3,/}>&,4/>>56  ",
".#>^[}_4[^>>2.  ",
".#>>^/(/^>>>2.  ",
".#>>>>>>>>>>2.  ",
".#>>>>&>>>>>2.  ",
".#>>>>&,>>>>2.  ",
".222222522222.  ",
"..............  "};
