/* XPM */
static char * post_compo_xpm[] = {
"16 16 62 1",
" 	c None",
".	c #000000",
"+	c #FFFFFF",
"@	c #FEFEFE",
"#	c #FDFDFD",
"$	c #FCFCFC",
"%	c #FBFBFB",
"&	c #FAFAFA",
"*	c #F9F9F9",
"=	c #F8F8F8",
"-	c #7C7C7C",
";	c #232323",
">	c #EBEBEB",
",	c #B5B5B5",
"'	c #BEBEBE",
")	c #424242",
"!	c #454545",
"~	c #C9C9C9",
"{	c #A5A5A5",
"]	c #B8B8B8",
"^	c #282828",
"/	c #050505",
"(	c #6E6E6E",
"_	c #DFDFDF",
":	c #D3D3D3",
"<	c #B1B1B1",
"[	c #838383",
"}	c #BABABA",
"|	c #2E2E30",
"1	c #181818",
"2	c #989898",
"3	c #DCDCDC",
"4	c #CDCDCD",
"5	c #AFAFAF",
"6	c #F4F4FF",
"7	c #E9E9FE",
"8	c #8E8EA2",
"9	c #1A1A1F",
"0	c #373737",
"a	c #919191",
"b	c #313131",
"c	c #B3B3B3",
"d	c #EAEAFF",
"e	c #E0DFFF",
"f	c #D6D5FF",
"g	c #C6C4F8",
"h	c #6A698B",
"i	c #020203",
"j	c #A4A3B4",
"k	c #242424",
"l	c #575757",
"m	c #E0E0FF",
"n	c #CCCBFF",
"o	c #BDBBF8",
"p	c #64638B",
"q	c #A8A7B8",
"r	c #9494B4",
"s	c #CBCAFE",
"t	c #7B7AA2",
"u	c #16161F",
"v	c #9594BA",
"w	c #252430",
"...........     ",
".+@#$%&*=-;.    ",
".+>>>>>>>,').   ",
".+!~>>>>>,{]^.  ",
".+./(_>>>:<<[.  ",
"...}|12>>3445.  ",
".@.67890abbc5.  ",
".@.defghi]jkl.  ",
".@.mfnopiqrkl.  ",
".#.fstu0abbc5.  ",
"...vw12>>>>>5.  ",
".#./(_>>>>>>5.  ",
".#!~>>>>>>>>5.  ",
".#>>>>>>>>>>5.  ",
".555555555555.  ",
"..............  "};
