/* XPM */
static char * repl_module_board_xpm[] = {
"16 16 81 1",
" 	c None",
".	c #000000",
"+	c #FEFEFF",
"@	c #F9AB7F",
"#	c #F55A00",
"$	c #EFEFF0",
"%	c #AFAFB0",
"&	c #080808",
"*	c #FFFFFF",
"=	c #ED5700",
"-	c #3B1500",
";	c #7E7E7F",
">	c #070707",
",	c #008100",
"'	c #009F00",
")	c #FBFBFC",
"!	c #4E4E4F",
"~	c #001000",
"{	c #535353",
"]	c #030303",
"^	c #000700",
"/	c #00B400",
"(	c #006F00",
"_	c #5F4130",
":	c #005800",
"<	c #005E00",
"[	c #000A00",
"}	c #002500",
"|	c #008700",
"1	c #00B100",
"2	c #002700",
"3	c #AA3E00",
"4	c #003400",
"5	c #00BD00",
"6	c #00B800",
"7	c #008200",
"8	c #001F00",
"9	c #FDFDFE",
"0	c #503628",
"a	c #006A00",
"b	c #006600",
"c	c #010B02",
"d	c #000100",
"e	c #F5F5FA",
"f	c #313133",
"g	c #002000",
"h	c #4C4C52",
"i	c #040404",
"j	c #E65400",
"k	c #210C00",
"l	c #4B4B52",
"m	c #050506",
"n	c #F9F9FF",
"o	c #F5F5FF",
"p	c #F1F1FF",
"q	c #EEEEFF",
"r	c #CFCFE2",
"s	c #676773",
"t	c #FCFCFF",
"u	c #F8F8FF",
"v	c #F1A37F",
"w	c #ED9F7F",
"x	c #DADAF7",
"y	c #060606",
"z	c #DEDEFF",
"A	c #070708",
"B	c #FBFBFF",
"C	c #F7F7FF",
"D	c #F4F4FF",
"E	c #F0F0FF",
"F	c #ECECFF",
"G	c #E9E9FF",
"H	c #E99B7F",
"I	c #DADAFF",
"J	c #F3F3FF",
"K	c #E8E8FF",
"L	c #E4E4FF",
"M	c #E1E1FF",
"N	c #DDDDFF",
"O	c #D9D9FF",
"P	c #D5D5FF",
"............    ",
".+@#@++++$%& ...",
".+#*####=-;>.,'.",
".+@#@++)!~{]^/(.",
".++++++_:<[}|12 ",
".+####34565178. ",
".+++++90abcd..  ",
".+@#@++efghi.   ",
".+#*####jklm    ",
".+@#@nopqrsm    ",
".++tuopv#wxy    ",
".+######*#zA    ",
".BCDEFGw#HIA    ",
".CJEFKLMNOPA    ",
"............    ",
"                "};
