/* XPM */
static char * Select_W_Layer_xpm[] = {
"16 16 24 1",
" 	c None",
".	c #000000",
"+	c #959595",
"@	c #FFFFFF",
"#	c #D9D9D9",
"$	c #111111",
"%	c #040404",
"&	c #BBBBBB",
"*	c #720000",
"=	c #630000",
"-	c #030000",
";	c #8F0000",
">	c #A10000",
",	c #760000",
"'	c #560000",
")	c #010000",
"!	c #0D0000",
"~	c #A60000",
"{	c #C30000",
"]	c #828282",
"^	c #D3D3D3",
"/	c #9B9B9B",
"(	c #717171",
"_	c #020202",
"............    ",
" .+@@@@@@@@#$   ",
"  %&@@@@@@@@&%  ",
"...$#@@@@@@@@+. ",
" .*=............",
"  -;>,,,,,,,')  ",
"...!~{{{{{{{{*. ",
" .+]............",
"  %&^///////(_  ",
"...$#@@@@@@@@+. ",
" .+]............",
"  %&^///////(_  ",
"   $#@@@@@@@@+. ",
"    ............",
"                ",
"                "};
