/* XPM */
static char * tool_ratsnet_xpm[] = {
"16 16 53 1",
" 	c None",
".	c #FFFFFF",
"+	c #161616",
"@	c #161513",
"#	c #3E3E3E",
"$	c #D9C1AD",
"%	c #CCA078",
"&	c #443E39",
"*	c #3F3C3A",
"=	c #CC9666",
"-	c #0E0B09",
";	c #211C18",
">	c #FAFAFA",
",	c #C3C3C3",
"'	c #362F29",
")	c #636363",
"!	c #9A9A9A",
"~	c #111112",
"{	c #F6F6F6",
"]	c #555555",
"^	c #D5D5E4",
"/	c #42424C",
"(	c #474747",
"_	c #F7F7FF",
":	c #E6E6FF",
"<	c #D6D6FF",
"[	c #7F7FA4",
"}	c #0F0F17",
"|	c #404040",
"1	c #F0F0FF",
"2	c #DFDFFF",
"3	c #C3C3F2",
"4	c #75759D",
"5	c #232334",
"6	c #3A3A3B",
"7	c #E8E8FF",
"8	c #9898B4",
"9	c #9E9ECB",
"0	c #040405",
"a	c #353536",
"b	c #656572",
"c	c #000000",
"d	c #8787B4",
"e	c #5B5B85",
"f	c #2C2C3E",
"g	c #A6A6FD",
"h	c #25253D",
"i	c #BBBBBB",
"j	c #7C7CC5",
"k	c #6C6CB1",
"l	c #E0E0E0",
"m	c #12121D",
"n	c #020203",
"                ",
"                ",
"..           ...",
".... +@  .......",
"  ..#$%&.....   ",
"   .*=-;>       ",
"   .,')!~       ",
"  ...{].^/      ",
".... .(_:<[}    ",
"...  .|12345    ",
".    .67890     ",
"     .abcdec    ",
"     .|c fgh    ",
"     .i  cjkc   ",
"     .l   mn    ",
"     ..   c     "};
