/* XPM */ 
static const char * width_vias_xpm[] = {
"16 16 5 1",
" 	c None",
"!	c black",
"#	c #FF0000",
"$	c #0046D9",
"%	c #00FF00",
"   !    ###     ",
"   !   #   #    ",
" ! ! ! #   #    ",
" !!!!! #   #    ",
"  !!!   ###     ",
" !!!!!          ",
"                ",
"       $$$      ",
" !!!!!$   $     ",
"  !!! $   $     ",
" !!!!!$   $ %%  ",
" ! ! ! $$$ %  % ",
"   !      %    %",
"   !      %    %",
"   !       %  % ",
"            %%  "};
