<?xml version="1.0" encoding="UTF-8" standalone="no"?>
<svg xmlns:dc="http://purl.org/dc/elements/1.1/"
   xmlns:cc="http://creativecommons.org/ns#"
   xmlns:rdf="http://www.w3.org/1999/02/22-rdf-syntax-ns#"
   xmlns:svg="http://www.w3.org/2000/svg"
   xmlns="http://www.w3.org/2000/svg"
   xmlns:sodipodi="http://sodipodi.sourceforge.net/DTD/sodipodi-0.dtd"
   xmlns:inkscape="http://www.inkscape.org/namespaces/inkscape" id="Слой_1" data-name="Слой 1" viewBox="0 0 24 24" version="1.1" sodipodi:docname="export_idf.svg" inkscape:version="1.0.1 (3bc2e813f5, 2020-09-07)">
   <sodipodi:namedview pagecolor="#ffffff" bordercolor="#666666" borderopacity="1" objecttolerance="10" gridtolerance="10" guidetolerance="10" inkscape:pageopacity="0" inkscape:pageshadow="2" inkscape:window-width="1609" inkscape:window-height="1286" id="namedview30" showgrid="true" inkscape:zoom="27.961538" inkscape:cx="8.8084087" inkscape:cy="10.662313" inkscape:window-x="0" inkscape:window-y="37" inkscape:window-maximized="0" inkscape:document-rotation="0" inkscape:current-layer="Слой_1">
      <inkscape:grid type="xygrid" id="grid_kicad" spacingx="0.5" spacingy="0.5" color="#9999ff" opacity="0.13" empspacing="2" />
   </sodipodi:namedview>
   <metadata id="metadata43">
      <rdf:RDF>
         <cc:Work rdf:about="">
            <cc:license rdf:resource="http://creativecommons.org/licenses/by-sa/4.0/" />
            <dc:format>image/svg+xml</dc:format>
            <dc:type rdf:resource="http://purl.org/dc/dcmitype/StillImage" />
            <dc:title>add_arc</dc:title>
         </cc:Work>
         <cc:License rdf:about="http://creativecommons.org/licenses/by-sa/4.0/">
            <cc:permits rdf:resource="http://creativecommons.org/ns#Reproduction" />
            <cc:permits rdf:resource="http://creativecommons.org/ns#Distribution" />
            <cc:requires rdf:resource="http://creativecommons.org/ns#Notice" />
            <cc:requires rdf:resource="http://creativecommons.org/ns#Attribution" />
            <cc:permits rdf:resource="http://creativecommons.org/ns#DerivativeWorks" />
            <cc:requires rdf:resource="http://creativecommons.org/ns#ShareAlike" />
         </cc:License>
      </rdf:RDF>
   </metadata>
   <defs id="defs24749">
      <style id="style24747">.cls-1{fill:#b9b9b9;}.cls-2{fill:#1a81c4;}.cls-3{fill:#fff;}.cls-4{fill:#bf2641;}.cls-5{fill:none;stroke:#f5f5f5;stroke-linecap:round;stroke-linejoin:round;stroke-width:2px;}</style>
   </defs>
   <title id="title24751">export_idf</title>
   <rect class="cls-1" x="3.0489998" y="0" width="17.937201" height="17.983299" rx="2.9934001" id="rect24753" />
   <rect class="cls-2" x="0.0055999756" y="3.0004001" width="18.709999" height="9.2299004" id="rect24755" />
   <path class="cls-3" d="M 2.0742,10.792 H 1.001 V 9.7559 h 1.0732 z" id="path24757" />
   <path class="cls-3" d="M 4.5742,4.8037 H 3.4971 V 3.8564 h 1.0771 z m 0,5.9883 H 3.4971 V 5.9814 h 1.0771 z" id="path24759" />
   <path class="cls-3" d="M 5.582,8.4531 A 3.1762,3.1762 0 0 1 6.0742,6.5977 1.591,1.591 0 0 1 7.458,5.8926 1.5085,1.5085 0 0 1 8.1562,6.0508 1.5652,1.5652 0 0 1 8.69,6.502 V 3.8564 H 9.7672 V 10.792 H 8.8633 L 8.7568,10.1963 A 1.5884,1.5884 0 0 1 8.2031,10.71 1.5582,1.5582 0 0 1 7.4492,10.8857 1.6291,1.6291 0 0 1 6.0742,10.2402 2.7163,2.7163 0 0 1 5.582,8.5469 Z M 6.6592,8.5469 A 1.9413,1.9413 0 0 0 6.9141,9.6094 0.8932,0.8932 0 0 0 7.7236,10.0049 1.0824,1.0824 0 0 0 8.3027,9.8584 1.1156,1.1156 0 0 0 8.69,9.44 V 7.3418 A 1.1269,1.1269 0 0 0 8.3,6.9268 1.0476,1.0476 0 0 0 7.7326,6.7773 0.87,0.87 0 0 0 6.9211,7.2422 2.46,2.46 0 0 0 6.6594,8.4531 Z" id="path24761" />
   <path class="cls-3" d="M 11.2754,10.792 V 6.782 H 10.5439 V 5.9814 h 0.7315 V 5.4219 a 1.6576,1.6576 0 0 1 0.4326,-1.2276 1.6436,1.6436 0 0 1 1.2129,-0.4316 2.1675,2.1675 0 0 1 0.3145,0.0244 c 0.1064,0.0166 0.2265,0.04 0.3593,0.0693 l -0.1113,0.836 C 13.4248,4.6807 13.3584,4.6699 13.2861,4.6611 a 1.9182,1.9182 0 0 0 -0.2324,-0.0136 0.6622,0.6622 0 0 0 -0.5254,0.2 0.8447,0.8447 0 0 0 -0.1758,0.5742 v 0.5595 h 0.9756 V 6.782 h -0.9756 v 4.01 z" id="path24763" />
   <path class="cls-4" d="M 24,16.9961 A 6.9925,6.9925 0 1 1 17.0075,9.9922 6.9981,6.9981 0 0 1 24,16.9961 Z" id="path24765" />
   <line class="cls-5" x1="17.1112" y1="13.6254" x2="17.1112" y2="20.629299" id="line24767" />
   <polyline class="cls-5" points="15.362 17.16 18.111 14.406 20.861 17.16" id="polyline24769" transform="translate(-1,-1)" />
</svg>
