<?xml version="1.0" encoding="UTF-8" standalone="no"?>
<svg
   xmlns:dc="http://purl.org/dc/elements/1.1/"
   xmlns:cc="http://creativecommons.org/ns#"
   xmlns:rdf="http://www.w3.org/1999/02/22-rdf-syntax-ns#"
   xmlns:svg="http://www.w3.org/2000/svg"
   xmlns="http://www.w3.org/2000/svg"
   xmlns:sodipodi="http://sodipodi.sourceforge.net/DTD/sodipodi-0.dtd"
   xmlns:inkscape="http://www.inkscape.org/namespaces/inkscape"
   id="Слой_1"
   data-name="Слой 1"
   viewBox="0 0 24 24"
   version="1.1"
   sodipodi:docname="file_drl.svg"
   inkscape:version="1.0.1 (3bc2e813f5, 2020-09-07)">
  <sodipodi:namedview
     pagecolor="#ffffff"
     bordercolor="#666666"
     borderopacity="1"
     objecttolerance="10"
     gridtolerance="10"
     guidetolerance="10"
     inkscape:pageopacity="0"
     inkscape:pageshadow="2"
     inkscape:window-width="2279"
     inkscape:window-height="1737"
     id="namedview30"
     showgrid="true"
     inkscape:zoom="32"
     inkscape:cx="20.181049"
     inkscape:cy="8.936224"
     inkscape:window-x="0"
     inkscape:window-y="37"
     inkscape:window-maximized="0"
     inkscape:document-rotation="0"
     inkscape:current-layer="g868">
    <inkscape:grid
       type="xygrid"
       id="grid_kicad"
       spacingx="0.5"
       spacingy="0.5"
       color="#9999ff"
       opacity="0.13"
       empspacing="2" />
  </sodipodi:namedview>
  <metadata
     id="metadata43">
    <rdf:RDF>
      <cc:Work
         rdf:about="">
        <cc:license
           rdf:resource="http://creativecommons.org/licenses/by-sa/4.0/" />
        <dc:format>image/svg+xml</dc:format>
        <dc:type
           rdf:resource="http://purl.org/dc/dcmitype/StillImage" />
        <dc:title>post_drill</dc:title>
      </cc:Work>
      <cc:License
         rdf:about="http://creativecommons.org/licenses/by-sa/4.0/">
        <cc:permits
           rdf:resource="http://creativecommons.org/ns#Reproduction" />
        <cc:permits
           rdf:resource="http://creativecommons.org/ns#Distribution" />
        <cc:requires
           rdf:resource="http://creativecommons.org/ns#Notice" />
        <cc:requires
           rdf:resource="http://creativecommons.org/ns#Attribution" />
        <cc:permits
           rdf:resource="http://creativecommons.org/ns#DerivativeWorks" />
        <cc:requires
           rdf:resource="http://creativecommons.org/ns#ShareAlike" />
      </cc:License>
    </rdf:RDF>
  </metadata>
  <defs
     id="defs26583">
    <style
       id="style26581">.cls-1{fill:#b9b9b9;}.cls-2{fill:#1a81c4;}.cls-3{fill:#fff;}.cls-4{fill:#bf2641;}.cls-5{fill:none;stroke:#f5f5f5;stroke-linecap:round;stroke-linejoin:round;stroke-width:2px;}</style>
  </defs>
  <title
     id="title26585">post_drill</title>
  <rect
     class="cls-1"
     x="3"
     y="0"
     width="21"
     height="24"
     rx="3.5045271"
     id="rect26587"
     style="stroke-width:1" />
  <g
     id="g868">
    <circle
       style="fill:none;stroke:#545454;stroke-width:1.5;stroke-linecap:round;stroke-linejoin:round;stroke-miterlimit:4;stroke-dasharray:none;stroke-opacity:1"
       id="path859"
       cx="15.5"
       cy="16.5"
       r="3.5" />
    <path
       style="fill:none;stroke:#545454;stroke-width:1;stroke-linecap:butt;stroke-linejoin:miter;stroke-miterlimit:4;stroke-dasharray:none;stroke-opacity:1"
       d="m 9.5,16.5 h 12"
       id="path861"
       sodipodi:nodetypes="cc" />
    <path
       style="fill:none;stroke:#545454;stroke-width:1;stroke-linecap:butt;stroke-linejoin:miter;stroke-miterlimit:4;stroke-dasharray:none;stroke-opacity:1"
       d="M 15.5,22.5 V 9.5"
       id="path863"
       sodipodi:nodetypes="cc" />
  </g>
  <rect
     class="cls-2"
     x="0"
     y="2"
     width="18.709999"
     height="9.2298002"
     id="rect26589" />
  <path
     class="cls-3"
     d="M 2.0733,10.036 H 1 V 9 h 1.0733 z"
     id="path26591" />
  <path
     class="cls-3"
     d="M 2.8506,7.6971 A 3.1767,3.1767 0 0 1 3.3428,5.8416 1.5911,1.5911 0 0 1 4.7266,5.1366 1.5088,1.5088 0 0 1 5.4248,5.2948 1.5649,1.5649 0 0 1 5.959,5.7459 V 3.1 h 1.0771 v 6.936 H 6.1319 L 6.0254,9.4399998 A 1.588,1.588 0 0 1 5.4717,9.9535998 1.5573,1.5573 0 0 1 4.7178,10.1294 1.629,1.629 0 0 1 3.3428,9.4838998 2.7163,2.7163 0 0 1 2.8506,7.7906 Z M 3.9278,7.7909 A 1.9422,1.9422 0 0 0 4.1826,8.8534 0.8934,0.8934 0 0 0 4.9926,9.2488998 1.0835,1.0835 0 0 0 5.5717,9.1024 1.1156,1.1156 0 0 0 5.9594,8.6844 V 6.5858 A 1.128,1.128 0 0 0 5.5688,6.1707 1.0487,1.0487 0 0 0 5.0014,6.0213 0.87,0.87 0 0 0 4.1899,6.4862 2.459,2.459 0 0 0 3.9282,7.6971 Z"
     id="path26593" />
  <path
     class="cls-3"
     d="M 10.769079,6.1991 10.218346,6.1815 A 1.1461468,0.9594 0 0 0 9.5896019,6.3153 1.0493802,0.8784 0 0 0 9.2011018,6.6922 V 10.036 H 7.9131501 V 5.2254 h 1.1758936 l 0.085179,0.6983 a 1.8477645,1.5467 0 0 1 0.5588566,-0.5782 1.2951196,1.0841 0 0 1 0.7863187,-0.2089 1.1633498,0.9738 0 0 1 0.218143,0.0156 1.6776464,1.4043 0 0 1 0.184334,0.0381 z"
     id="path26595"
     style="stroke-width:1" />
  <path
     class="cls-3"
     d="m 13.064425,10.036 h -1.0771 V 3.1 h 1.0771 z"
     id="path26597" />
</svg>
