<?xml version="1.0" encoding="UTF-8" standalone="no"?>
<svg
   xmlns:dc="http://purl.org/dc/elements/1.1/"
   xmlns:cc="http://creativecommons.org/ns#"
   xmlns:rdf="http://www.w3.org/1999/02/22-rdf-syntax-ns#"
   xmlns:svg="http://www.w3.org/2000/svg"
   xmlns="http://www.w3.org/2000/svg"
   xmlns:sodipodi="http://sodipodi.sourceforge.net/DTD/sodipodi-0.dtd"
   xmlns:inkscape="http://www.inkscape.org/namespaces/inkscape"
   id="Слой_1"
   data-name="Слой 1"
   viewBox="0 0 48 48"
   version="1.1"
   sodipodi:docname="icon_pcbnew.svg"
   inkscape:version="1.0.1 (3bc2e813f5, 2020-09-07)"
   inkscape:export-filename="/Users/jeff/kicad_dev/kicad/bitmaps_png/png_48/icon_pcbnew.png"
   inkscape:export-xdpi="96"
   inkscape:export-ydpi="96"
   width="48"
   height="48">
  <sodipodi:namedview
     pagecolor="#ffffff"
     bordercolor="#666666"
     borderopacity="1"
     objecttolerance="10"
     gridtolerance="10"
     guidetolerance="10"
     inkscape:pageopacity="0"
     inkscape:pageshadow="2"
     inkscape:window-width="3002"
     inkscape:window-height="1747"
     id="namedview30"
     showgrid="true"
     inkscape:zoom="32"
     inkscape:cx="19.392205"
     inkscape:cy="25.62247"
     inkscape:window-x="41"
     inkscape:window-y="37"
     inkscape:window-maximized="0"
     inkscape:current-layer="g895"
     inkscape:document-rotation="0">
    <inkscape:grid
       type="xygrid"
       id="grid2239"
       spacingx="0.5"
       spacingy="0.5"
       color="#8383ff"
       opacity="0.1254902"
       empspacing="2" />
  </sodipodi:namedview>
  <metadata
     id="metadata43">
    <rdf:RDF>
      <cc:Work
         rdf:about="">
        <cc:license
           rdf:resource="http://creativecommons.org/licenses/by-sa/4.0/" />
        <dc:format>image/svg+xml</dc:format>
        <dc:type
           rdf:resource="http://purl.org/dc/dcmitype/StillImage" />
        <dc:title>add_arc</dc:title>
      </cc:Work>
      <cc:License
         rdf:about="http://creativecommons.org/licenses/by-sa/4.0/">
        <cc:permits
           rdf:resource="http://creativecommons.org/ns#Reproduction" />
        <cc:permits
           rdf:resource="http://creativecommons.org/ns#Distribution" />
        <cc:requires
           rdf:resource="http://creativecommons.org/ns#Notice" />
        <cc:requires
           rdf:resource="http://creativecommons.org/ns#Attribution" />
        <cc:permits
           rdf:resource="http://creativecommons.org/ns#DerivativeWorks" />
        <cc:requires
           rdf:resource="http://creativecommons.org/ns#ShareAlike" />
      </cc:License>
    </rdf:RDF>
  </metadata>
  <defs
     id="defs5">
    <style
       id="style3">.cls-1{fill:#b9b9b9;}.cls-2{fill:#545454;}.cls-3{fill:#1a81c4;}</style>
    <clipPath
       clipPathUnits="userSpaceOnUse"
       id="clipPath897">
      <rect
         style="fill:#f2f2f2;stroke:none;stroke-linejoin:round"
         id="rect899"
         width="48"
         height="48"
         x="0"
         y="0"
         rx="7.8340001" />
    </clipPath>
    <clipPath
       clipPathUnits="userSpaceOnUse"
       id="clipPath1736">
      <rect
         style="fill:none;fill-opacity:1;stroke:#333333;stroke-width:2;stroke-linecap:round;stroke-linejoin:round;stroke-miterlimit:4;stroke-dasharray:none;stroke-opacity:1"
         id="rect1738"
         width="24"
         height="16"
         x="0"
         y="8.5"
         ry="2.6555922" />
    </clipPath>
    <clipPath
       clipPathUnits="userSpaceOnUse"
       id="clipPath1720">
      <rect
         style="fill:none;fill-opacity:1;stroke:#333333;stroke-width:2;stroke-linecap:round;stroke-linejoin:round;stroke-miterlimit:4;stroke-dasharray:none;stroke-opacity:1"
         id="rect1722"
         width="16"
         height="16"
         x="8"
         y="4.9999995"
         ry="2.6555922" />
    </clipPath>
    <clipPath
       clipPathUnits="userSpaceOnUse"
       id="clipPath1732">
      <rect
         style="fill:none;fill-opacity:1;stroke:#333333;stroke-width:1.99999;stroke-linecap:round;stroke-linejoin:round;stroke-miterlimit:4;stroke-dasharray:none;stroke-opacity:1"
         id="rect1734"
         width="24"
         height="24"
         x="0"
         y="1.5000001"
         ry="3.9833882" />
    </clipPath>
    <clipPath
       clipPathUnits="userSpaceOnUse"
       id="clipPath1724">
      <rect
         style="fill:none;fill-opacity:1;stroke:#333333;stroke-width:1.99999;stroke-linecap:round;stroke-linejoin:round;stroke-miterlimit:4;stroke-dasharray:none;stroke-opacity:1"
         id="rect1726"
         width="24"
         height="24"
         x="0"
         y="1.5000001"
         ry="3.9833882" />
    </clipPath>
    <clipPath
       clipPathUnits="userSpaceOnUse"
       id="clipPath906">
      <rect
         style="fill:none;fill-opacity:1;stroke:#333333;stroke-width:1.99999;stroke-linecap:round;stroke-linejoin:round;stroke-miterlimit:4;stroke-dasharray:none;stroke-opacity:1"
         id="rect904"
         width="24"
         height="24"
         x="0"
         y="1.5000001"
         ry="3.9833882" />
    </clipPath>
    <clipPath
       clipPathUnits="userSpaceOnUse"
       id="clipPath910">
      <rect
         style="fill:none;fill-opacity:1;stroke:#333333;stroke-width:1.99999;stroke-linecap:round;stroke-linejoin:round;stroke-miterlimit:4;stroke-dasharray:none;stroke-opacity:1"
         id="rect908"
         width="24"
         height="24"
         x="0"
         y="1.5000001"
         ry="3.9833882" />
    </clipPath>
  </defs>
  <title
     id="title7">icon_pcbnew</title>
  <g
     id="g1563"
     clip-path="url(#clipPath1565)">
    <g
       id="g895"
       clip-path="url(#clipPath897)">
      <rect
         class="cls-1"
         x="0"
         y="0"
         width="48"
         height="48"
         rx="0"
         id="rect9"
         style="fill:#489648;fill-opacity:1;stroke:none;stroke-width:0.99999899;stroke-opacity:1" />
      <path
         class="cls-2"
         d="m 19,48 v -4 l 8,-5.970568 V 25 l 1,-1 h 6 c 0,0 1.128958,1.639203 2,2 2.771639,1.14805 6.228361,1.14805 9,0 1.306563,-0.541196 2.458804,-1.693437 3,-3 -0.26761,-2.960808 0.962324,-7.38699 0,-10 -0.541196,-1.306563 -1.693437,-2.458804 -3,-3 -2.771639,-1.1480503 -6.228361,-1.1480503 -9,0 -0.435521,0.180399 -1,1 -1,1 H 32 L 29,8 V 0 C 19.989874,-0.00320694 4.05901,0.00249473 -0.00413753,0.00257361 0,6.5 -1e-8,48 -1e-8,48 3,47.944449 7.618659,48 19,48 Z"
         id="path11"
         sodipodi:nodetypes="ccccccaaccaaccccccc"
         style="fill:#006400;fill-opacity:1;stroke-width:0.999999"
         inkscape:connector-curvature="0" />
      <path
         style="fill:none;stroke:#489648;stroke-width:4;stroke-linecap:butt;stroke-linejoin:miter;stroke-miterlimit:4;stroke-dasharray:none;stroke-opacity:1"
         d="M 40.5,18 H 29 L 22,11 V -0.5"
         id="path2253"
         sodipodi:nodetypes="cccc"
         inkscape:connector-curvature="0" />
      <g
         id="g2245"
         transform="matrix(2.1007353,0,0,2.0007002,-5.8158181,-1.3489937)"
         style="stroke-width:0.48777926">
        <path
           id="path25"
           style="fill:#f29100;fill-opacity:1;stroke-width:0.48777926"
           d="m 24.0464,9.6716 c 0.01666,0.92263 -0.689803,1.788674 -1.596971,1.9577 -0.900331,0.202302 -1.891005,-0.315085 -2.239427,-1.169559 -0.379637,-0.8410705 -0.07257,-1.9157025 0.694131,-2.4292153 0.755018,-0.5479002 1.884301,-0.4542902 2.539321,0.2096171 0.38285,0.3706695 0.605209,0.8985716 0.602946,1.4314572 z"
           inkscape:connector-curvature="0" />
        <path
           id="path27"
           style="fill:#f2f2f2;fill-opacity:1;stroke-width:0.48777926"
           d="m 23.0471,9.671111 c 0.01721,0.575481 -0.54098,1.074706 -1.110978,0.993612 -0.573846,-0.04664 -1.008169,-0.656695 -0.864436,-1.214203 0.109783,-0.5668907 0.767417,-0.92955 1.30554,-0.7235365 0.39433,0.1323668 0.675168,0.5281566 0.669874,0.9441275 z"
           inkscape:connector-curvature="0" />
      </g>
      <path
         style="fill:none;stroke:#489648;stroke-width:4;stroke-linecap:butt;stroke-linejoin:miter;stroke-miterlimit:4;stroke-dasharray:none;stroke-opacity:1"
         d="m 7,29 h -18.000001 -1.5"
         id="path2255"
         sodipodi:nodetypes="ccc"
         inkscape:transform-center-x="9.6390115"
         inkscape:transform-center-y="-0.0417481"
         inkscape:connector-curvature="0" />
      <g
         id="g2251"
         transform="matrix(2.1007353,0,0,2.0007002,-39.467859,9.5821874)"
         style="stroke-width:0.48777926">
        <path
           class="cls-3"
           d="m 24.0464,9.6716 a 1.9993,1.9993 0 1 1 -1.9992,-2 1.9995,1.9995 0 0 1 1.9992,2 z"
           id="path2247"
           style="fill:#f29100;fill-opacity:1;stroke-width:0.48777926"
           inkscape:connector-curvature="0" />
        <path
           class="cls-1"
           d="M 23.0471,9.671111 A 1,1 0 1 1 22.04717,8.6709 1.0000702,1.0000702 0 0 1 23.0471,9.671111 Z"
           id="path2249"
           style="fill:#ffffff;fill-opacity:1;stroke-width:0.48777926"
           inkscape:connector-curvature="0" />
      </g>
      <path
         style="fill:none;stroke:#489648;stroke-width:2;stroke-linecap:butt;stroke-linejoin:miter;stroke-miterlimit:4;stroke-dasharray:none;stroke-opacity:1"
         d="m 7,48 v -9 l 8,-6 V 26 L 7,18 V -0.5"
         id="path2263"
         sodipodi:nodetypes="cccccc"
         inkscape:connector-curvature="0" />
      <path
         style="fill:none;stroke:#489648;stroke-width:2;stroke-linecap:butt;stroke-linejoin:miter;stroke-miterlimit:4;stroke-dasharray:none;stroke-opacity:1"
         d="m 11,48 v -7 l 8,-6 V 24 L 11,16 V -0.5"
         id="path2265"
         sodipodi:nodetypes="cccccc"
         inkscape:connector-curvature="0" />
      <path
         style="fill:none;stroke:#489648;stroke-width:2;stroke-linecap:butt;stroke-linejoin:miter;stroke-miterlimit:4;stroke-dasharray:none;stroke-opacity:1"
         d="m 15,48 v -5 l 8,-6 V 22 L 15,14 V -0.5"
         id="path2267"
         sodipodi:nodetypes="cccccc"
         inkscape:connector-curvature="0" />
      <g
         id="g913"
         transform="matrix(2,0,0,2,-12,-13)"
         clip-path="none">
        <rect
           style="fill:#006400;fill-opacity:1;stroke:none;stroke-width:1.81332;stroke-linecap:round;stroke-linejoin:round"
           id="rect878"
           width="8.1934328"
           height="3.9016349"
           x="13.136076"
           y="17.057377"
           rx="1.5000001"
           ry="1"
           clip-path="url(#clipPath1736)"
           transform="matrix(-0.85434278,0,0,1.2815141,40.222712,-0.85926913)" />
        <rect
           style="fill:#dd8d15;fill-opacity:1;stroke:none;stroke-width:1.34164;stroke-linecap:round;stroke-linejoin:round"
           id="rect880"
           width="5"
           height="3"
           x="17"
           y="15"
           rx="0"
           ry="1"
           clip-path="url(#clipPath1720)"
           transform="matrix(-1,0,0,0.99999997,45,7.0000004)" />
        <path
           style="fill:none;stroke:#489648;stroke-width:2.99999999;stroke-linecap:butt;stroke-linejoin:miter;stroke-miterlimit:4;stroke-dasharray:none;stroke-opacity:1"
           d="m 18,21 v 3"
           id="path886"
           sodipodi:nodetypes="cc"
           clip-path="url(#clipPath1732)"
           transform="matrix(-0.66666667,0,0,0.66666667,37.5,11)" />
        <path
           style="fill:none;stroke:#489648;stroke-width:1.5;stroke-linecap:butt;stroke-linejoin:miter;stroke-miterlimit:4;stroke-dasharray:none;stroke-opacity:1"
           d="M 23.25,18.75 H 19.5"
           id="path1080"
           sodipodi:nodetypes="cc"
           clip-path="url(#clipPath1724)"
           transform="matrix(-0.66666667,0,0,0.66666667,36,11)" />
        <path
           style="fill:none;stroke:#489648;stroke-width:1.5;stroke-linecap:butt;stroke-linejoin:miter;stroke-miterlimit:4;stroke-dasharray:none;stroke-opacity:1"
           d="M 23.25,18.75 H 19.5"
           id="path903"
           sodipodi:nodetypes="cc"
           clip-path="url(#clipPath1724)"
           transform="matrix(-0.66666667,0,0,0.66666667,43.5,11)" />
        <path
           style="fill:none;stroke:#489648;stroke-width:2.99999999;stroke-linecap:butt;stroke-linejoin:miter;stroke-miterlimit:4;stroke-dasharray:none;stroke-opacity:1"
           d="m 18,21 v 3"
           id="path905"
           sodipodi:nodetypes="cc"
           clip-path="url(#clipPath1732)"
           transform="matrix(-0.66666667,0,0,0.66666667,37.5,5.9999999)" />
      </g>
      <g
         id="g927"
         transform="matrix(2,0,0,2,-12,-4.0000001)"
         clip-path="none">
        <rect
           style="fill:#006400;fill-opacity:1;stroke:none;stroke-width:1.81332;stroke-linecap:round;stroke-linejoin:round"
           id="rect915"
           width="8.1934328"
           height="3.9016349"
           x="13.136076"
           y="17.057377"
           rx="1.5000001"
           ry="1"
           clip-path="url(#clipPath935)"
           transform="matrix(-0.85434278,0,0,1.2815141,40.222712,1.140731)" />
        <rect
           style="fill:#dd8d15;fill-opacity:1;stroke:none;stroke-width:1.34164;stroke-linecap:round;stroke-linejoin:round"
           id="rect917"
           width="5"
           height="3"
           x="17"
           y="15"
           rx="0"
           ry="1"
           clip-path="url(#clipPath931)"
           transform="matrix(-1,0,0,0.99999997,45,9.0000005)" />
      </g>
    </g>
  </g>
</svg>
