<?xml version="1.0" encoding="UTF-8" standalone="no"?>
<svg
   viewBox="0 0 32 32"
   version="1.1"
   id="svg5496"
   sodipodi:docname="icon_kicad_32.svg"
   width="32"
   height="32"
   inkscape:version="1.2.2 (732a01da63, 2022-12-09)"
   xmlns:inkscape="http://www.inkscape.org/namespaces/inkscape"
   xmlns:sodipodi="http://sodipodi.sourceforge.net/DTD/sodipodi-0.dtd"
   xmlns:xlink="http://www.w3.org/1999/xlink"
   xmlns="http://www.w3.org/2000/svg"
   xmlns:svg="http://www.w3.org/2000/svg"
   xmlns:rdf="http://www.w3.org/1999/02/22-rdf-syntax-ns#"
   xmlns:cc="http://creativecommons.org/ns#"
   xmlns:dc="http://purl.org/dc/elements/1.1/">
  <metadata
     id="metadata5500">
    <rdf:RDF>
      <cc:Work
         rdf:about="">
        <dc:title>app_icon</dc:title>
      </cc:Work>
    </rdf:RDF>
  </metadata>
  <sodipodi:namedview
     pagecolor="#ffffff"
     bordercolor="#666666"
     borderopacity="1"
     objecttolerance="10"
     gridtolerance="10"
     guidetolerance="10"
     inkscape:pageopacity="0"
     inkscape:pageshadow="2"
     inkscape:window-width="1920"
     inkscape:window-height="1009"
     id="namedview5498"
     showgrid="true"
     inkscape:zoom="16"
     inkscape:cx="12.53125"
     inkscape:cy="15.3125"
     inkscape:window-x="344"
     inkscape:window-y="1432"
     inkscape:window-maximized="1"
     inkscape:current-layer="g5494"
     inkscape:document-rotation="0"
     inkscape:showpageshadow="2"
     inkscape:pagecheckerboard="0"
     inkscape:deskcolor="#d1d1d1">
    <inkscape:grid
       type="xygrid"
       id="grid6065"
       spacingx="0.5"
       spacingy="0.5"
       empspacing="2"
       originx="0"
       originy="0" />
  </sodipodi:namedview>
  <defs
     id="defs5435">
    <style
       id="style5390">.cls-1{fill:none;}.cls-2{isolation:isolate;}.cls-15,.cls-3{mix-blend-mode:overlay;}.cls-4{clip-path:url(#clip-path);}.cls-16,.cls-5{opacity:0.75;}.cls-5,.cls-7{mix-blend-mode:multiply;}.cls-6{clip-path:url(#clip-path-2);}.cls-7{opacity:0.6;}.cls-8{fill:url(#Безымянный_градиент_10);}.cls-9{mix-blend-mode:saturation;fill:url(#Безымянный_градиент_28);}.cls-10{clip-path:url(#clip-path-3);}.cls-11,.cls-16{fill:#fff;}.cls-12{fill:url(#Безымянный_градиент_114);}.cls-13{fill:url(#Безымянный_градиент_104);}.cls-14{fill:#ff6d00;}.cls-15{opacity:0.5;}</style>
    <clipPath
       id="clip-path">
      <rect
         class="cls-1"
         y="123.3231"
         width="94"
         height="94"
         rx="20.888901"
         id="rect5392"
         x="0" />
    </clipPath>
    <clipPath
       id="clip-path-2">
      <rect
         class="cls-1"
         x="119.6252"
         width="100"
         height="100"
         rx="22.2222"
         id="rect5395"
         y="0" />
    </clipPath>
    <linearGradient
       id="Безымянный_градиент_10"
       x1="50.0093"
       x2="50.0093"
       y2="100"
       gradientUnits="userSpaceOnUse"
       gradientTransform="matrix(0.70205318,0,0,0.70205314,1.2596181,4.1892464)">
      <stop
         offset="0"
         stop-color="#2b4bb7"
         id="stop5398" />
      <stop
         offset="1"
         stop-color="#2b2fb7"
         id="stop5400" />
    </linearGradient>
    <radialGradient
       id="Безымянный_градиент_28"
       cx="50.0093"
       cy="23.271601"
       r="28.023199"
       gradientTransform="matrix(0,-0.70205314,1.2517608,0,7.2380216,55.636335)"
       gradientUnits="userSpaceOnUse">
      <stop
         offset="0"
         stop-color="#2b4bed"
         id="stop5403" />
      <stop
         offset="1"
         stop-color="#2b2fb7"
         id="stop5405" />
    </radialGradient>
    <clipPath
       id="clip-path-3">
      <rect
         class="cls-1"
         x="0.0093"
         width="100"
         height="100"
         rx="22.2222"
         id="rect5408"
         y="0" />
    </clipPath>
    <radialGradient
       id="Безымянный_градиент_114"
       cx="47.3605"
       cy="53.197102"
       r="38.302299"
       gradientUnits="userSpaceOnUse">
      <stop
         offset="0.0007"
         stop-color="#fff"
         stop-opacity="0"
         id="stop5411" />
      <stop
         offset="0.1476"
         stop-color="#fbfbfb"
         stop-opacity="0.039"
         id="stop5413" />
      <stop
         offset="0.3723"
         stop-color="#f1f1f1"
         stop-opacity="0.1465"
         id="stop5415" />
      <stop
         offset="0.6466"
         stop-color="#e0e0e0"
         stop-opacity="0.3222"
         id="stop5417" />
      <stop
         offset="0.9576"
         stop-color="#c9c9c8"
         stop-opacity="0.5641"
         id="stop5419" />
      <stop
         offset="1"
         stop-color="#c6c6c5"
         stop-opacity="0.6"
         id="stop5421" />
    </radialGradient>
    <linearGradient
       id="Безымянный_градиент_104"
       x1="76.367302"
       y1="17.9571"
       x2="76.367302"
       y2="33.4328"
       gradientUnits="userSpaceOnUse">
      <stop
         offset="0"
         stop-color="#ff6d00"
         id="stop5424" />
      <stop
         offset="0.3523"
         stop-color="#ff8a33"
         id="stop5426" />
      <stop
         offset="0.8443"
         stop-color="#ff5c00"
         id="stop5428" />
      <stop
         offset="0.9688"
         stop-color="#ff4800"
         id="stop5430" />
      <stop
         offset="1"
         stop-color="#ff5c00"
         id="stop5432" />
    </linearGradient>
    <radialGradient
       inkscape:collect="always"
       xlink:href="#%D0%91%D0%B5%D0%B7%D1%8B%D0%BC%D1%8F%D0%BD%D0%BD%D1%8B%D0%B9_%D0%B3%D1%80%D0%B0%D0%B4%D0%B8%D0%B5%D0%BD%D1%82_114"
       id="radialGradient6102"
       gradientUnits="userSpaceOnUse"
       cx="47.3605"
       cy="53.197102"
       r="38.302299"
       gradientTransform="matrix(0.70205318,0,0,0.70205314,1.2596181,4.1892464)" />
    <radialGradient
       inkscape:collect="always"
       xlink:href="#%D0%91%D0%B5%D0%B7%D1%8B%D0%BC%D1%8F%D0%BD%D0%BD%D1%8B%D0%B9_%D0%B3%D1%80%D0%B0%D0%B4%D0%B8%D0%B5%D0%BD%D1%82_114"
       id="radialGradient6104"
       gradientUnits="userSpaceOnUse"
       cx="47.3605"
       cy="53.197102"
       r="38.302299"
       gradientTransform="matrix(0.70205318,0,0,0.70205314,1.2596181,4.1892464)" />
  </defs>
  <title
     id="title5437">app_icon</title>
  <g
     class="cls-2"
     id="g5494"
     transform="matrix(0.45580592,0,0,0.45580592,0.19877576,-1.2081645)"
     style="stroke-width:2.19392">
    <rect
       class="cls-8"
       x="-0.43609735"
       width="70.205322"
       height="70.205322"
       rx="15.601167"
       id="rect5459"
       y="2.6506116"
       style="fill:url(#%D0%91%D0%B5%D0%B7%D1%8B%D0%BC%D1%8F%D0%BD%D0%BD%D1%8B%D0%B9_%D0%B3%D1%80%D0%B0%D0%B4%D0%B8%D0%B5%D0%BD%D1%82_10);stroke-width:1.52863"
       ry="15.577582" />
    <rect
       class="cls-9"
       x="-0.43609735"
       width="70.205322"
       height="70.205322"
       rx="15.601167"
       id="rect5461"
       y="2.6506116"
       style="fill:url(#%D0%91%D0%B5%D0%B7%D1%8B%D0%BC%D1%8F%D0%BD%D0%BD%D1%8B%D0%B9_%D0%B3%D1%80%D0%B0%D0%B4%D0%B8%D0%B5%D0%BD%D1%82_28);stroke-width:1.52863"
       ry="15.577582" />
    <g
       class="cls-3"
       id="g5469"
       style="stroke-width:2.17737"
       transform="matrix(1.0068401,0,0,1.0083645,-0.44546094,2.6506114)">
      <g
         class="cls-10"
         clip-path="url(#clip-path-3)"
         id="g5467"
         style="stroke-width:2.17737">
        <g
           class="cls-5"
           id="g5465"
           style="stroke-width:2.17737" />
      </g>
    </g>
    <g
       class="cls-7"
       id="g5473"
       style="stroke-width:2.18767"
       transform="matrix(1.0057237,0,0,1,-0.48582001,2.6345743)" />
    <path
       class="cls-11"
       d="m 21.418396,33.972363 7.795739,-9.859986 q 2.389577,-3.015178 2.390069,-4.509007 a 2.3013302,2.3013303 0 0 0 -0.135777,-0.869212 h 13.608317 a 15.517481,15.517481 0 0 0 -3.880036,3.669562 q -0.733225,0.869704 -2.19841,2.69104 L 28.779283,37.801922 40.975631,54.588506 q 0.868299,1.195596 2.82443,3.422579 a 13.101154,13.101155 0 0 0 1.331093,1.167795 H 31.169844 A 4.4614074,4.4614076 0 0 0 31.3323,58.065073 q 0,-1.493056 -2.064037,-4.318751 L 21.418396,43.044786 V 53.88217 q 0,3.775712 1.521279,5.296781 H 10.17319 A 4.8495725,4.8495728 0 0 0 11.531662,56.7615 16.533351,16.533352 0 0 0 11.694468,53.90962 V 24.003769 a 16.541005,16.541005 0 0 0 -0.162806,-2.85188 4.8511873,4.8511875 0 0 0 -1.358472,-2.41745 h 12.766485 q -1.521279,1.521279 -1.521279,5.26933 z"
       id="path5475"
       style="stroke-width:1.52863" />
    <path
       class="cls-11"
       d="m 57.89799,29.463426 v 24.934963 a 17.54157,17.541571 0 0 0 0.108328,2.553298 4.3900086,4.3900087 0 0 0 1.140836,2.227264 H 47.195682 a 4.397661,4.3976611 0 0 0 1.140836,-2.227264 18.056175,18.056175 0 0 0 0.108327,-2.553298 V 34.189578 A 17.397579,17.397579 0 0 0 48.336518,31.663731 4.4845049,4.4845051 0 0 0 47.22264,29.463426 Z M 53.171066,15.25745 a 5.4489856,5.4489858 0 0 1 5.432629,5.432629 5.4324175,5.4324177 0 0 1 -10.864835,0 5.3799035,5.3799037 0 0 1 5.432206,-5.432629 z"
       id="path5477"
       style="stroke-width:1.52863" />
    <path
       class="cls-12"
       d="m 21.418396,33.972363 7.795739,-9.859986 q 2.389577,-3.015178 2.390069,-4.509007 a 2.3013302,2.3013303 0 0 0 -0.135777,-0.869212 h 13.608317 a 15.517481,15.517481 0 0 0 -3.880036,3.669562 q -0.733225,0.869704 -2.19841,2.69104 L 28.779283,37.801922 40.975631,54.588506 q 0.868299,1.195596 2.82443,3.422579 a 13.101154,13.101155 0 0 0 1.331093,1.167795 H 31.169844 A 4.4614074,4.4614076 0 0 0 31.3323,58.065073 q 0,-1.493056 -2.064037,-4.318751 L 21.418396,43.044786 V 53.88217 q 0,3.775712 1.521279,5.296781 H 10.17319 A 4.8495725,4.8495728 0 0 0 11.531662,56.7615 16.533351,16.533352 0 0 0 11.694468,53.90962 V 24.003769 a 16.541005,16.541005 0 0 0 -0.162806,-2.85188 4.8511873,4.8511875 0 0 0 -1.358472,-2.41745 h 12.766485 q -1.521279,1.521279 -1.521279,5.26933 z"
       id="path5479"
       style="fill:url(#radialGradient6102);stroke-width:1.52863" />
    <path
       class="cls-12"
       d="m 57.89799,29.463426 v 24.934963 a 17.54157,17.541571 0 0 0 0.108328,2.553298 4.3900086,4.3900087 0 0 0 1.140836,2.227264 H 47.195682 a 4.397661,4.3976611 0 0 0 1.140836,-2.227264 18.056175,18.056175 0 0 0 0.108327,-2.553298 V 34.189578 A 17.397579,17.397579 0 0 0 48.336518,31.663731 4.4845049,4.4845051 0 0 0 47.22264,29.463426 Z M 53.171066,15.25745 a 5.4489856,5.4489858 0 0 1 5.432629,5.432629 5.4324175,5.4324177 0 0 1 -10.864835,0 5.3799035,5.3799037 0 0 1 5.432206,-5.432629 z"
       id="path5481"
       style="fill:url(#radialGradient6104);stroke-width:1.52863" />
    <g
       class="cls-15"
       id="g5489"
       style="stroke-width:2.18767"
       transform="matrix(1.0057237,0,0,1,-0.48582001,2.6345743)" />
    <path
       class="cls-16"
       d="m 11.695311,24.097915 c -0.05918,-0.905649 -0.147432,-1.810034 -0.230062,-2.708802 a 3.0222686,3.0222687 0 0 0 -0.309255,-1.263696 10.79498,10.79498 0 0 0 -0.708231,-1.13192 l -0.169477,-0.238698 0.294091,-0.007 q 3.090789,-0.07723 6.182631,-0.08319 c 1.030404,-0.01404 2.061298,0.0063 3.091982,0.01 1.030684,0.0014 2.06186,0.04163 3.092685,0.06059 -1.029982,0.04697 -2.059683,0.115206 -3.089877,0.144693 -1.030192,0.0318 -2.060174,0.07989 -3.090578,0.09408 q -3.090859,0.07646 -6.182631,0.0851 l 0.124545,-0.245719 a 8.4830487,8.4830486 0 0 1 0.704861,1.18984 2.1272211,2.1272211 0 0 1 0.213846,0.682677 c 0.03117,0.232239 0.04458,0.459143 0.05785,0.68717 0.0549,0.908878 0.02921,1.817475 0.01762,2.724949 z"
       id="path5491"
       style="stroke-width:1.52863" />
    <circle
       style="fill:#ff6d00;fill-opacity:1;stroke-width:3.05726;stroke-linecap:round;stroke-linejoin:round"
       id="path6063"
       cx="52.980511"
       cy="20.849051"
       r="5.6800728" />
  </g>
</svg>
