<?xml version="1.0" encoding="UTF-8" standalone="no"?>
<svg
   id="Слой_1"
   data-name="Слой 1"
   viewBox="0 0 24 24"
   version="1.1"
   sodipodi:docname="import_hierarchical_label.svg"
   inkscape:version="1.4.2 (ebf0e940d0, 2025-05-08)"
   inkscape:export-filename="/Users/jeff/kicad_dev/kicad/bitmaps_png/png_26/import_hierarchical_label.png"
   inkscape:export-xdpi="96"
   inkscape:export-ydpi="96"
   xmlns:inkscape="http://www.inkscape.org/namespaces/inkscape"
   xmlns:sodipodi="http://sodipodi.sourceforge.net/DTD/sodipodi-0.dtd"
   xmlns="http://www.w3.org/2000/svg"
   xmlns:svg="http://www.w3.org/2000/svg"
   xmlns:rdf="http://www.w3.org/1999/02/22-rdf-syntax-ns#"
   xmlns:cc="http://creativecommons.org/ns#"
   xmlns:dc="http://purl.org/dc/elements/1.1/">
  <sodipodi:namedview
     pagecolor="#ffffff"
     bordercolor="#666666"
     borderopacity="1"
     objecttolerance="10"
     gridtolerance="10"
     guidetolerance="10"
     inkscape:pageopacity="0"
     inkscape:pageshadow="2"
     inkscape:window-width="2560"
     inkscape:window-height="1357"
     id="namedview30"
     showgrid="true"
     inkscape:zoom="32.10638"
     inkscape:cx="20.868127"
     inkscape:cy="11.882374"
     inkscape:window-x="1440"
     inkscape:window-y="0"
     inkscape:window-maximized="1"
     inkscape:document-rotation="0"
     inkscape:current-layer="Слой_1"
     inkscape:showpageshadow="2"
     inkscape:pagecheckerboard="0"
     inkscape:deskcolor="#d1d1d1">
    <inkscape:grid
       type="xygrid"
       id="grid_kicad"
       spacingx="0.5"
       spacingy="0.5"
       color="#9999ff"
       opacity="0.13"
       empspacing="2"
       originx="0"
       originy="0"
       units="px" />
  </sodipodi:namedview>
  <metadata
     id="metadata43">
    <rdf:RDF>
      <cc:Work
         rdf:about="">
        <cc:license
           rdf:resource="http://creativecommons.org/licenses/by-sa/4.0/" />
        <dc:format>image/svg+xml</dc:format>
        <dc:type
           rdf:resource="http://purl.org/dc/dcmitype/StillImage" />
        <dc:title>add_arc</dc:title>
      </cc:Work>
      <cc:License
         rdf:about="http://creativecommons.org/licenses/by-sa/4.0/">
        <cc:permits
           rdf:resource="http://creativecommons.org/ns#Reproduction" />
        <cc:permits
           rdf:resource="http://creativecommons.org/ns#Distribution" />
        <cc:requires
           rdf:resource="http://creativecommons.org/ns#Notice" />
        <cc:requires
           rdf:resource="http://creativecommons.org/ns#Attribution" />
        <cc:permits
           rdf:resource="http://creativecommons.org/ns#DerivativeWorks" />
        <cc:requires
           rdf:resource="http://creativecommons.org/ns#ShareAlike" />
      </cc:License>
    </rdf:RDF>
  </metadata>
  <defs
     id="defs25427">
    <style
       id="style25425">.cls-1{fill:#b9b9b9;}.cls-2{fill:#1a81c4;}.cls-3,.cls-4,.cls-7{fill:none;stroke-linejoin:round;}.cls-3{stroke:#1a81c4;}.cls-4{stroke:#545454;}.cls-4,.cls-7{stroke-linecap:round;}.cls-5{fill:#545454;}.cls-6{fill:#bf2641;}.cls-7{stroke:#f5f5f5;stroke-width:2px;}</style>
    <clipPath
       clipPathUnits="userSpaceOnUse"
       id="clipPath855">
      <rect
         style="fill:#d0c5ac;fill-opacity:1;stroke:none;stroke-width:1;stroke-linecap:square;stroke-linejoin:round;stroke-miterlimit:0;stroke-dasharray:none;stroke-opacity:1;paint-order:markers fill stroke"
         id="rect857"
         width="20"
         height="19"
         x="0"
         y="0"
         ry="0" />
    </clipPath>
  </defs>
  <title
     id="title25429">import_hierarchical_label</title>
  <path
     id="polygon200"
     style="fill:none;stroke:#545454;stroke-width:2;stroke-linecap:square;stroke-linejoin:miter;stroke-miterlimit:4;stroke-dasharray:none;stroke-opacity:1"
     d="m 20.35763,7 -4.5,5 -4.5,-5 4.5,-5 z"
     class="cls-4"
     sodipodi:nodetypes="ccccc" />
  <path
     style="fill:none;stroke:#545454;stroke-width:2;stroke-linecap:butt;stroke-linejoin:miter;stroke-miterlimit:4;stroke-dasharray:none;stroke-opacity:1"
     d="m 20.35763,7 h 4.28474"
     id="path12817" />
  <path
     id="rect1"
     style="fill:#d0c5ac;fill-opacity:1;stroke:none;stroke-width:1;stroke-opacity:1"
     d="M 5,22.5 C 3.061,22.5 1.5,20.939 1.5,19 V 5 C 1.5,3.061 3.061,1.5 5,1.5 h 2 l 7.693359,21 z"
     sodipodi:nodetypes="ssssccs" />
  <path
     id="path2"
     style="fill:none;fill-opacity:1;stroke:#545454;stroke-width:1;stroke-opacity:1"
     d="M 14.693359,22.5 H 5 C 3.061,22.5 1.5,20.939 1.5,19 V 5 C 1.5,3.061 3.061,1.5 5,1.5 h 2"
     sodipodi:nodetypes="cssssc" />
  <path
     style="fill:none;stroke:#1a81c4;stroke-width:1.00157;stroke-linecap:round;stroke-linejoin:round;stroke-dasharray:none;stroke-opacity:1"
     d="M 1.5,18.5 H 5 l 4,-4 -4,-4 H 1.5 Z"
     id="path1" />
  <g
     id="g51"
     transform="matrix(3.7795276,0,0,3.7795276,-39.108167,-174.41716)">
    <ellipse
       style="fill:none;stroke:#ffffff;stroke-width:0.264583;stroke-linecap:round;stroke-linejoin:round"
       id="ellipse3"
       cx="14.845286"
       cy="50.646648"
       rx="1.9861583"
       ry="1.9852337" />
    <path
       class="cls-6"
       d="m 16.697369,50.64579 a 1.8520833,1.8520832 0 1 1 -1.852083,-1.850365 1.851211,1.8512109 0 0 1 1.852083,1.850365 z"
       id="path49"
       style="fill:#bf2641;fill-opacity:1;stroke-width:0.264582" />
    <ellipse
       style="fill:#bf2641;stroke:none;stroke-width:0.0264583;stroke-linecap:round;stroke-linejoin:round"
       id="path3"
       cx="14.845286"
       cy="50.646648"
       rx="1.852083"
       ry="1.8512242" />
    <path
       id="path50"
       style="display:inline;fill:#ffffff;fill-opacity:1;stroke:none;stroke-width:0.264582"
       d="m 14.519597,50.237458 c 0,0 -0.01193,0.0094 -0.04484,0.042 -0.310948,0.308059 -0.313218,0.810806 -0.0084,1.114142 5.29e-4,5.89e-4 0.0014,0.0014 0.002,0.002 l 0.349907,0.345891 c 0.308474,0.305283 0.810151,0.305241 1.118579,0 0.308473,-0.305231 0.308479,-0.801785 0,-1.10701 l -0.178556,-0.185426 -0.155336,0.432265 0.03603,0.0412 c 0.145872,0.144354 0.150432,0.379212 0.006,0.524978 -0.145857,0.147183 -0.385495,0.148221 -0.532466,0.0028 L 14.763009,51.10401 c -0.146721,-0.145204 -0.146107,-0.37959 0,-0.524185 0.01926,-0.01903 0.05365,-0.04438 0.05365,-0.04438 z"
       sodipodi:nodetypes="cccccccccccccccc" />
    <path
       id="path51"
       style="display:inline;fill:#ffffff;fill-opacity:1;stroke:none;stroke-width:0.264582"
       d="m 14.313017,49.32459 c -0.202581,6e-6 -0.405076,0.07639 -0.55929,0.22901 -0.308473,0.30523 -0.308479,0.801784 0,1.10701 l 0.178556,0.185426 0.155336,-0.432265 -0.03603,-0.04121 c -0.145872,-0.144354 -0.150432,-0.379212 -0.006,-0.524978 0.145857,-0.147183 0.385495,-0.14822 0.532466,-0.0028 l 0.349906,0.346287 c 0.146721,0.145205 0.146108,0.37959 0,0.524186 -0.01926,0.01903 -0.05405,0.04438 -0.05405,0.04438 l 0.29706,0.29795 c 0,0 0.01193,-0.0094 0.04484,-0.042 0.310948,-0.30806 0.313218,-0.810806 0.0084,-1.114142 -5.29e-4,-5.89e-4 -0.0014,-0.0014 -0.002,-0.002 l -0.3499,-0.345885 C 14.718069,49.400958 14.515597,49.324585 14.313017,49.32459 Z"
       sodipodi:nodetypes="scccccccccccccccs" />
  </g>
</svg>
