<?xml version="1.0" encoding="UTF-8" standalone="no"?>
<svg
   id="Слой_1"
   data-name="Слой 1"
   viewBox="0 0 24 24"
   version="1.1"
   sodipodi:docname="jobset.svg"
   inkscape:version="1.4 (e7c3feb, 2024-10-09)"
   xml:space="preserve"
   width="24"
   height="24"
   xmlns:inkscape="http://www.inkscape.org/namespaces/inkscape"
   xmlns:sodipodi="http://sodipodi.sourceforge.net/DTD/sodipodi-0.dtd"
   xmlns="http://www.w3.org/2000/svg"
   xmlns:svg="http://www.w3.org/2000/svg"
   xmlns:rdf="http://www.w3.org/1999/02/22-rdf-syntax-ns#"
   xmlns:cc="http://creativecommons.org/ns#"
   xmlns:dc="http://purl.org/dc/elements/1.1/"><sodipodi:namedview
     pagecolor="#ffffff"
     bordercolor="#666666"
     borderopacity="1"
     objecttolerance="10"
     gridtolerance="10"
     guidetolerance="10"
     inkscape:pageopacity="0"
     inkscape:pageshadow="2"
     inkscape:window-width="2560"
     inkscape:window-height="1570"
     id="namedview30"
     showgrid="false"
     inkscape:zoom="4"
     inkscape:cx="1.5"
     inkscape:cy="100.75"
     inkscape:window-x="0"
     inkscape:window-y="30"
     inkscape:window-maximized="1"
     inkscape:document-rotation="0"
     inkscape:current-layer="Слой_1"
     inkscape:showpageshadow="2"
     inkscape:pagecheckerboard="0"
     inkscape:deskcolor="#d1d1d1"
     showguides="true"><inkscape:grid
       type="xygrid"
       id="grid_kicad"
       spacingx="0.5"
       spacingy="0.5"
       color="#9999ff"
       opacity="0.13"
       empspacing="2"
       originx="-102"
       originy="-68"
       units="px"
       visible="false" /><inkscape:page
       x="0"
       y="0"
       width="24"
       height="24"
       id="page89"
       margin="0"
       bleed="0" /></sodipodi:namedview><metadata
     id="metadata43"><rdf:RDF><cc:Work
         rdf:about=""><cc:license
           rdf:resource="http://creativecommons.org/licenses/by-sa/4.0/" /><dc:format>image/svg+xml</dc:format><dc:type
           rdf:resource="http://purl.org/dc/dcmitype/StillImage" /><dc:title>about</dc:title></cc:Work><cc:License
         rdf:about="http://creativecommons.org/licenses/by-sa/4.0/"><cc:permits
           rdf:resource="http://creativecommons.org/ns#Reproduction" /><cc:permits
           rdf:resource="http://creativecommons.org/ns#Distribution" /><cc:requires
           rdf:resource="http://creativecommons.org/ns#Notice" /><cc:requires
           rdf:resource="http://creativecommons.org/ns#Attribution" /><cc:permits
           rdf:resource="http://creativecommons.org/ns#DerivativeWorks" /><cc:requires
           rdf:resource="http://creativecommons.org/ns#ShareAlike" /></cc:License></rdf:RDF></metadata><defs
     id="defs60"><style
       id="style58">.cls-1,.cls-2{fill:none;stroke:#545454;stroke-linecap:round;stroke-linejoin:round;}.cls-1{stroke-width:2px;}.cls-2{stroke-width:4px;}</style><style
       id="style28017">.cls-1{fill:none;stroke:#545454;stroke-linecap:round;stroke-linejoin:round;stroke-width:2px;}.cls-2{fill:#1a81c4;}</style><style
       id="style220">.cls-1{fill:none;stroke:#bf2641;stroke-linecap:round;stroke-linejoin:round;}.cls-2{fill:#d8d8d8;}.cls-3{fill:#333;}.cls-4{fill:#545454;}.cls-5{fill:#1a81c4;}.cls-6{fill:#b9b9b9;}.cls-7{fill:#bf2641;}</style><style
       id="style115733">.cls-1{fill:none;stroke:#545454;stroke-linecap:round;stroke-linejoin:round;stroke-width:2px;}.cls-2{fill:#1a81c4;}</style><style
       id="style115838">.cls-1{fill:#545454;}.cls-2{fill:#1a81c4;}</style><style
       id="style944">.cls-1{fill:none;stroke:#bf2641;stroke-linecap:round;stroke-linejoin:round;}.cls-2{fill:#bf2641;}.cls-3{fill:#b9b9b9;}.cls-4{fill:#545454;}</style><style
       id="style115920">.cls-1{fill:#1a81c4;}.cls-2{fill:#545454;}</style><style
       id="style27838">.cls-1{fill:#b9b9b9;}.cls-2{fill:#545454;}.cls-3,.cls-6{fill:none;}.cls-3{stroke:#b9b9b9;stroke-miterlimit:10;stroke-width:0.9553px;}.cls-4{fill:#1a81c4;}.cls-5{fill:#bf2641;}.cls-6{stroke:#f5f5f5;stroke-linecap:round;stroke-linejoin:round;stroke-width:2px;}</style><style
       id="style116483">.cls-1{fill:#b9b9b9;}.cls-2,.cls-3,.cls-4,.cls-7{fill:none;stroke-linecap:round;stroke-linejoin:round;}.cls-2{stroke:#bf2641;}.cls-2,.cls-3,.cls-4{stroke-width:0.9549px;}.cls-3{stroke:#1a81c4;}.cls-4{stroke:#0f71a8;}.cls-5{fill:#1a81c4;}.cls-6{fill:#bf2641;}.cls-7{stroke:#f5f5f5;stroke-width:2px;}</style><style
       id="style24549">.cls-1{fill:#545454;}</style><style
       id="style158807">.cls-1{fill:#b9b9b9;}.cls-2{fill:#f29100;}.cls-3{fill:#545454;}</style><style
       id="style10156">.cls-1{fill:#545454;}.cls-2{fill:#b9b9b9;}</style><style
       id="style2419">.cls-1{fill:#ededed;}.cls-2{fill:#d8d8d8;}.cls-3{fill:#b9b9b9;}.cls-4{fill:#1a81c4;}.cls-5,.cls-7{fill:none;stroke-linecap:round;stroke-linejoin:round;}.cls-5{stroke:#545454;}.cls-6{fill:#bf2641;}.cls-7{stroke:#f5f5f5;stroke-width:2px;}</style><style
       id="style117073">.cls-1{fill:#b9b9b9;}.cls-2{fill:#545454;}.cls-3{fill:#bf2641;}.cls-4{fill:none;stroke:#f5f5f5;stroke-linecap:round;stroke-linejoin:round;stroke-width:2px;}</style><style
       id="style117073-1">.cls-1{fill:#b9b9b9;}.cls-2{fill:#545454;}.cls-3{fill:#bf2641;}.cls-4{fill:none;stroke:#f5f5f5;stroke-linecap:round;stroke-linejoin:round;stroke-width:2px;}</style><style
       id="style2419-6">.cls-1{fill:#ededed;}.cls-2{fill:#d8d8d8;}.cls-3{fill:#b9b9b9;}.cls-4{fill:#1a81c4;}.cls-5,.cls-7{fill:none;stroke-linecap:round;stroke-linejoin:round;}.cls-5{stroke:#545454;}.cls-6{fill:#bf2641;}.cls-7{stroke:#f5f5f5;stroke-width:2px;}</style><style
       id="style27079">.cls-1{fill:#b9b9b9;}.cls-2{fill:none;stroke:#1a81c4;stroke-linecap:round;stroke-linejoin:round;stroke-width:2px;}.cls-3{fill:#fff;}.cls-4{fill:#bf2641;}</style><style
       id="style27997">.cls-1{fill:#8f8f8f;stroke:#DED3DD;stroke-linecap:round;stroke-linejoin:round;stroke-width:2px;}.cls-2{fill:#42B8EB;}</style><style
       id="style2419-62">.cls-1{fill:#ededed;}.cls-2{fill:#d8d8d8;}.cls-3{fill:#8f8f8f;}.cls-4{fill:#42B8EB;}.cls-5,.cls-7{fill:none;stroke-linecap:round;stroke-linejoin:round;}.cls-5{stroke:#DED3DD;}.cls-6{fill:#f2647e;}.cls-7{stroke:#545454;stroke-width:2px;}</style><style
       id="style158484">.cls-1{fill:#ededed;}.cls-2{fill:#d8d8d8;}.cls-3{fill:#8f8f8f;}.cls-4{fill:#42B8EB;}.cls-5,.cls-7{fill:none;stroke-linecap:round;stroke-linejoin:round;}.cls-5{stroke:#DED3DD;}.cls-6{fill:#f2647e;}.cls-7{stroke:#545454;stroke-width:2px;}</style><style
       id="style24549-2">.cls-1{fill:#DED3DD;}</style></defs><title
     id="title62">about</title><style
     type="text/css"
     id="style833">
	.st0{fill:#545454;}
	.st1{fill:none;stroke:#545454;}
</style><g
     id="g2"
     transform="translate(190,-78)"
     style="display:inline" /><g
     id="g61"
     transform="translate(190,-78)"
     style="display:inline" /><g
     id="g62"
     transform="translate(190,-78)"
     style="display:inline" /><g
     id="g63"
     transform="translate(190,-78)"
     style="display:inline" /><path
     id="rect158494-1"
     style="display:inline;fill:#545454;fill-opacity:1;stroke:none;stroke-width:1"
     d="m 116,79 v 22 h 17 V 79 Z"
     sodipodi:nodetypes="ccccc"
     transform="translate(-112,-78)" /><path
     class="cls-4"
     d="M 117.1113,82.9758 H 115 a 1,1 0 0 1 0,-2 h 2.1113 a 1,1 0 0 1 0,2 z"
     id="path158496-5"
     style="display:inline;fill:#1a81c4;fill-opacity:1;stroke:none"
     transform="translate(-112,-78)" /><path
     class="cls-4"
     d="M 117.1113,87.9963 H 115 a 1,1 0 0 1 0,-2 h 2.1113 a 1,1 0 0 1 0,2 z"
     id="path158498-5"
     style="display:inline;fill:#1a81c4;fill-opacity:1;stroke:none"
     transform="translate(-112,-78)" /><path
     class="cls-4"
     d="M 117.1113,94.0178 H 115 a 1,1 0 0 1 0,-2 h 2.1113 a 1,1 0 0 1 0,2 z"
     id="path158500-4"
     style="display:inline;fill:#1a81c4;fill-opacity:1;stroke:none"
     transform="translate(-112,-78)" /><path
     class="cls-4"
     d="M 117.1113,99.0392 H 115 a 1,1 0 0 1 0,-2 h 2.1113 a 1,1 0 0 1 0,2 z"
     id="path158502-7"
     style="display:inline;fill:#1a81c4;fill-opacity:1;stroke:none"
     transform="translate(-112,-78)" /><path
     style="display:inline;fill:none;stroke:#f3f3f3;stroke-width:1;stroke-linecap:butt;stroke-linejoin:miter;stroke-miterlimit:4;stroke-dasharray:none;stroke-opacity:1"
     d="m 120,84.5 h 6"
     id="path3404"
     transform="translate(-112,-78)" /><path
     style="display:inline;fill:none;stroke:#f3f3f3;stroke-width:1;stroke-linecap:butt;stroke-linejoin:miter;stroke-miterlimit:4;stroke-dasharray:none;stroke-opacity:1"
     d="m 120,87.5 h 10"
     id="path3406"
     sodipodi:nodetypes="cc"
     transform="translate(-112,-78)" /><path
     style="display:inline;fill:none;stroke:#f3f3f3;stroke-width:1;stroke-linecap:butt;stroke-linejoin:miter;stroke-miterlimit:4;stroke-dasharray:none;stroke-opacity:1"
     d="m 120,90.5 h 10"
     id="path3408"
     sodipodi:nodetypes="cc"
     transform="translate(-112,-78)" /><g
     id="g201"
     transform="translate(-10,-180)"
     style="display:inline"><rect
       style="fill:#ffffff;fill-opacity:1;stroke:none;stroke-width:1;stroke-linecap:round;stroke-linejoin:round"
       id="rect175"
       width="3"
       height="11"
       x="184"
       y="-34"
       transform="rotate(90)" /><rect
       style="fill:#ffffff;fill-opacity:1;stroke:none;stroke-width:1;stroke-linecap:round;stroke-linejoin:round"
       id="rect176"
       width="3"
       height="11"
       x="109.51576"
       y="-156.82085"
       transform="rotate(135)" /><rect
       style="fill:#ffffff;fill-opacity:1;stroke:none;stroke-width:1;stroke-linecap:round;stroke-linejoin:round"
       id="rect177"
       width="3"
       height="11"
       x="149.82085"
       y="-116.51576"
       transform="matrix(0.70710678,0.70710678,0.70710678,-0.70710678,0,0)" /><rect
       style="fill:#ffffff;fill-opacity:1;stroke:none;stroke-width:1;stroke-linecap:round;stroke-linejoin:round"
       id="rect178"
       width="3"
       height="11"
       x="27"
       y="180" /><path
       style="fill:none;stroke:#f29100;stroke-width:1px;stroke-linecap:butt;stroke-linejoin:miter;stroke-opacity:1"
       d="m 28.5,190 v -9"
       id="path178"
       sodipodi:nodetypes="cc" /><rect
       style="fill:#f29100;fill-opacity:1;stroke:none;stroke-width:1.5;stroke-linecap:round;stroke-linejoin:round;stroke-miterlimit:4;stroke-dasharray:none;stroke-opacity:1"
       id="rect179"
       width="1"
       height="2"
       x="110.51576"
       y="-148.82085"
       transform="rotate(135)" /><rect
       style="fill:#f29100;fill-opacity:1;stroke:none;stroke-width:1.5;stroke-linecap:round;stroke-linejoin:round;stroke-miterlimit:4;stroke-dasharray:none;stroke-opacity:1"
       id="rect180"
       width="2"
       height="1"
       x="106.51576"
       y="-151.82085"
       transform="rotate(135)" /><rect
       style="fill:#f29100;fill-opacity:1;stroke:none;stroke-width:1.5;stroke-linecap:round;stroke-linejoin:round;stroke-miterlimit:4;stroke-dasharray:none;stroke-opacity:1"
       id="rect181"
       width="2"
       height="1"
       x="113.51576"
       y="-151.82085"
       transform="rotate(135)" /><rect
       style="fill:#f29100;fill-opacity:1;stroke:none;stroke-width:1.5;stroke-linecap:round;stroke-linejoin:round;stroke-miterlimit:4;stroke-dasharray:none;stroke-opacity:1"
       id="rect182"
       width="1"
       height="2"
       x="110.51576"
       y="-155.82085"
       transform="rotate(135)" /><path
       style="display:inline;fill:none;stroke:#f29100;stroke-width:1px;stroke-linecap:butt;stroke-linejoin:miter;stroke-opacity:1"
       d="m 24,185.5 h 9"
       id="path182"
       sodipodi:nodetypes="cc" /><circle
       style="fill:#ffffff;fill-opacity:1;stroke:#f29100;stroke-width:1;stroke-linecap:round;stroke-linejoin:round"
       id="circle182"
       cx="28.499998"
       cy="185.5"
       r="1.5" /></g><path
     class="cls-4"
     d="m 128.696,96.89305 -0.7232,-0.51755 -0.009,0.0154 a 2.9658439,2.9658439 0 0 0 0.0395,-0.39242 2.9689253,2.9689253 0 0 0 -0.0421,-0.41735 l 0.004,0.007 0.71761,-0.52497 a 0.38231404,0.38231404 0 0 0 0.10545,-0.49901 L 128.14192,93.441 a 0.38231404,0.38231404 0 0 0 -0.48439,-0.1598 l -0.81467,0.35653 0.007,0.0123 a 2.9790252,2.9790252 0 0 0 -0.72891,-0.43196 l -0.0967,-0.87795 A 0.38231404,0.38231404 0 0 0 125.64525,92 h -1.29587 a 0.38231404,0.38231404 0 0 0 -0.37992,0.34032 l -0.097,0.88177 a 2.9781693,2.9781693 0 0 0 -0.75384,0.45901 l 0.0103,-0.0184 -0.81838,-0.34808 a 0.38231404,0.38231404 0 0 0 -0.48274,0.16468 l -0.63442,1.12982 a 0.38231404,0.38231404 0 0 0 0.11087,0.49787 l 0.72321,0.51755 0.0157,-0.0281 a 2.9752591,2.9752591 0 0 0 -0.0405,0.40154 2.9729196,2.9729196 0 0 0 0.0438,0.43459 l -0.012,-0.0209 -0.71761,0.52525 a 0.38231404,0.38231404 0 0 0 -0.10563,0.49895 l 0.64634,1.1232 a 0.38231404,0.38231404 0 0 0 0.4844,0.15949 l 0.81479,-0.35658 -0.0167,-0.0289 a 2.9786257,2.9786257 0 0 0 0.73798,0.44291 l 0.097,0.88372 a 0.38231404,0.38231404 0 0 0 0.3798,0.34032 h 1.29587 a 0.38231404,0.38231404 0 0 0 0.37981,-0.34032 l 0.0973,-0.88354 a 2.9781122,2.9781122 0 0 0 0.75207,-0.45439 l -0.009,0.0155 0.81849,0.34808 a 0.38231404,0.38231404 0 0 0 0.48269,-0.16462 l 0.63436,-1.12983 a 0.38231404,0.38231404 0 0 0 -0.11063,-0.4978 z m -3.69269,0.53261 a 1.4272297,1.4272297 0 1 1 1.42723,-1.42723 1.4272867,1.4272867 0 0 1 -1.42723,1.42723 z"
     id="path27091"
     style="display:inline;fill:#39b4ea;fill-opacity:1;stroke:none"
     transform="translate(-112,-78)" /><style
     type="text/css"
     id="style833-0">
	.st0{fill:#727272;stroke:#DED3DD;stroke-linecap:round;stroke-linejoin:bevel;}
	.st1{fill:#545454;}
	.st2{fill:#DED3DD;}
	.st3{fill:none;stroke:#727272;stroke-linejoin:round;}
</style></svg>
