<?xml version="1.0" encoding="UTF-8" standalone="no"?>
<svg
   xmlns:dc="http://purl.org/dc/elements/1.1/"
   xmlns:cc="http://creativecommons.org/ns#"
   xmlns:rdf="http://www.w3.org/1999/02/22-rdf-syntax-ns#"
   xmlns:svg="http://www.w3.org/2000/svg"
   xmlns="http://www.w3.org/2000/svg"
   xmlns:sodipodi="http://sodipodi.sourceforge.net/DTD/sodipodi-0.dtd"
   xmlns:inkscape="http://www.inkscape.org/namespaces/inkscape"
   id="Слой_1"
   data-name="Слой 1"
   viewBox="0 0 24 24"
   version="1.1"
   sodipodi:docname="pin2pin.svg"
   inkscape:version="1.0.1 (c497b03c, 2020-09-10)">
  <sodipodi:namedview
     pagecolor="#ffffff"
     bordercolor="#666666"
     borderopacity="1"
     objecttolerance="10"
     gridtolerance="10"
     guidetolerance="10"
     inkscape:pageopacity="0"
     inkscape:pageshadow="2"
     inkscape:window-width="1280"
     inkscape:window-height="715"
     id="namedview30"
     showgrid="true"
     inkscape:zoom="19.756254"
     inkscape:cx="10.287127"
     inkscape:cy="12.625769"
     inkscape:window-x="0"
     inkscape:window-y="23"
     inkscape:window-maximized="0"
     inkscape:document-rotation="0"
     inkscape:current-layer="Слой_1">
    <inkscape:grid
       type="xygrid"
       id="grid_kicad"
       spacingx="0.5"
       spacingy="0.5"
       color="#9999ff"
       opacity="0.13"
       empspacing="2" />
  </sodipodi:namedview>
  <metadata
     id="metadata43">
    <rdf:RDF>
      <cc:Work
         rdf:about="">
        <cc:license
           rdf:resource="http://creativecommons.org/licenses/by-sa/4.0/" />
        <dc:format>image/svg+xml</dc:format>
        <dc:type
           rdf:resource="http://purl.org/dc/dcmitype/StillImage" />
        <dc:title>add_arc</dc:title>
      </cc:Work>
      <cc:License
         rdf:about="http://creativecommons.org/licenses/by-sa/4.0/">
        <cc:permits
           rdf:resource="http://creativecommons.org/ns#Reproduction" />
        <cc:permits
           rdf:resource="http://creativecommons.org/ns#Distribution" />
        <cc:requires
           rdf:resource="http://creativecommons.org/ns#Notice" />
        <cc:requires
           rdf:resource="http://creativecommons.org/ns#Attribution" />
        <cc:permits
           rdf:resource="http://creativecommons.org/ns#DerivativeWorks" />
        <cc:requires
           rdf:resource="http://creativecommons.org/ns#ShareAlike" />
      </cc:License>
    </rdf:RDF>
  </metadata>
  <defs
     id="defs26229">
    <style
       id="style26227">.cls-1{fill:#b9b9b9;}.cls-2{fill:#545454;}.cls-3{fill:#bf2641;}.cls-4{fill:none;stroke:#fff;stroke-linecap:round;stroke-linejoin:round;stroke-width:2px;}</style>
  </defs>
  <title
     id="title26231">pin2pin</title>
  <path
     id="path852-8"
     style="fill:#1a81c4;fill-opacity:1;stroke:none;stroke-width:0.999997"
     d="m 14.857201,11 c -0.988297,2.6e-5 -1.976176,0.376559 -2.728516,1.128906 -1.504898,1.504642 -1.504928,3.952415 0,5.457032 L 12.999779,18.5 13.757591,16.369141 13.58181,16.166016 c -0.711641,-0.711595 -0.733888,-1.869333 -0.0293,-2.587891 0.711572,-0.725542 1.880652,-0.730657 2.597657,-0.01367 l 1.707031,1.707031 c 0.715785,0.715788 0.71279,1.871196 0,2.583985 -0.09397,0.09381 -0.263672,0.21875 -0.263672,0.21875 l 1.449219,1.46875 c 0,0 0.05821,-0.0465 0.21875,-0.207031 1.516971,-1.518587 1.528046,-3.996887 0.04102,-5.492188 -0.0026,-0.0029 -0.007,-0.007 -0.0098,-0.0098 L 17.585717,12.128906 C 16.833264,11.376456 15.845498,10.999974 14.857201,11 Z m 1.007812,4.5 c 0,0 -0.05821,0.0465 -0.21875,0.207031 -1.516971,1.518587 -1.528046,3.996887 -0.04101,5.492188 0.0026,0.0029 0.007,0.007 0.0098,0.0098 l 1.707032,1.705078 c 1.504906,1.504902 3.952352,1.504695 5.457031,0 1.504898,-1.504642 1.504928,-3.952414 0,-5.457031 l -0.871094,-0.914062 -0.757812,2.130859 0.175781,0.203125 c 0.711641,0.711595 0.733888,1.869333 0.0293,2.587891 -0.711572,0.725542 -1.880651,0.730657 -2.597657,0.01367 l -1.705078,-1.707032 c -0.715785,-0.715788 -0.71279,-1.871195 0,-2.583984 0.09397,-0.09381 0.261719,-0.21875 0.261719,-0.21875 z" />
  <circle
     style="fill:none;stroke:#545454;stroke-width:2;stroke-linecap:round;stroke-linejoin:round;stroke-miterlimit:4;stroke-dasharray:none;stroke-opacity:1"
     id="path3297"
     cx="6"
     cy="9"
     r="3" />
  <path
     style="fill:none;stroke:#545454;stroke-width:2;stroke-linecap:round;stroke-linejoin:miter;stroke-miterlimit:4;stroke-dasharray:none;stroke-opacity:1"
     d="M 9.5,9 H 18 v 0 0"
     id="path3299" />
</svg>
