<?xml version="1.0" encoding="UTF-8" standalone="no"?>
<svg
   xmlns:dc="http://purl.org/dc/elements/1.1/"
   xmlns:cc="http://creativecommons.org/ns#"
   xmlns:rdf="http://www.w3.org/1999/02/22-rdf-syntax-ns#"
   xmlns:svg="http://www.w3.org/2000/svg"
   xmlns="http://www.w3.org/2000/svg"
   xmlns:xlink="http://www.w3.org/1999/xlink"
   xmlns:sodipodi="http://sodipodi.sourceforge.net/DTD/sodipodi-0.dtd"
   xmlns:inkscape="http://www.inkscape.org/namespaces/inkscape"
   height="48"
   width="48"
   version="1.1"
   id="svg2"
   inkscape:version="0.91 r13725"
   sodipodi:docname="icon_pcbcalculator.svg"
   inkscape:export-filename="F:\kicad-launchpad\testing\bitmaps_png\sources\icon_pcbcalculator.png"
   inkscape:export-xdpi="60"
   inkscape:export-ydpi="60">
  <metadata
     id="metadata297">
    <rdf:RDF>
      <cc:Work
         rdf:about="">
        <dc:format>image/svg+xml</dc:format>
        <dc:type
           rdf:resource="http://purl.org/dc/dcmitype/StillImage" />
        <dc:title />
      </cc:Work>
    </rdf:RDF>
  </metadata>
  <sodipodi:namedview
     pagecolor="#ffffff"
     bordercolor="#666666"
     borderopacity="1"
     objecttolerance="10"
     gridtolerance="10"
     guidetolerance="10"
     inkscape:pageopacity="0"
     inkscape:pageshadow="2"
     inkscape:window-width="928"
     inkscape:window-height="1028"
     id="namedview295"
     showgrid="false"
     inkscape:zoom="7.7487119"
     inkscape:cx="32.611183"
     inkscape:cy="16.360183"
     inkscape:window-x="992"
     inkscape:window-y="24"
     inkscape:window-maximized="0"
     inkscape:current-layer="g179" />
  <defs
     id="defs4">
    <radialGradient
       id="ay"
       xlink:href="#ap"
       gradientUnits="userSpaceOnUse"
       cy="486.65"
       cx="605.71"
       gradientTransform="matrix(-2.7744,0,0,1.9697,112.76,-872.89)"
       r="117.14" />
    <linearGradient
       id="ap">
      <stop
         offset="0"
         id="stop8" />
      <stop
         stop-opacity="0"
         offset="1"
         id="stop10" />
    </linearGradient>
    <radialGradient
       id="ax"
       xlink:href="#ap"
       gradientUnits="userSpaceOnUse"
       cy="486.65"
       cx="605.71"
       gradientTransform="matrix(2.7744,0,0,1.9697,-1891.6,-872.89)"
       r="117.14" />
    <linearGradient
       id="aq"
       y2="609.51"
       gradientUnits="userSpaceOnUse"
       x2="302.86"
       gradientTransform="matrix(2.7744,0,0,1.9697,-1892.2,-872.89)"
       y1="366.65"
       x1="302.86">
      <stop
         stop-opacity="0"
         offset="0"
         id="stop14" />
      <stop
         offset=".5"
         id="stop16" />
      <stop
         stop-opacity="0"
         offset="1"
         id="stop18" />
    </linearGradient>
    <radialGradient
       id="ar"
       gradientUnits="userSpaceOnUse"
       cy="3.7561"
       cx="8.8244"
       gradientTransform="matrix(.96827 0 0 1.0328 3.3536 .64645)"
       r="37.752">
      <stop
         stop-color="#a3a3a3"
         offset="0"
         id="stop21" />
      <stop
         stop-color="#4c4c4c"
         offset="1"
         id="stop23" />
    </radialGradient>
    <radialGradient
       id="as"
       gradientUnits="userSpaceOnUse"
       cy="35.737"
       cx="33.967"
       gradientTransform="scale(.96049 1.0411)"
       r="86.708">
      <stop
         stop-color="#fafafa"
         offset="0"
         id="stop26" />
      <stop
         stop-color="#bbb"
         offset="1"
         id="stop28" />
    </radialGradient>
    <radialGradient
       id="at"
       gradientUnits="userSpaceOnUse"
       cy="7.2679"
       cx="8.1436"
       gradientTransform="matrix(.96827 0 0 1.0328 3.3536 .64645)"
       r="38.159">
      <stop
         stop-color="#fff"
         offset="0"
         id="stop31" />
      <stop
         stop-color="#f8f8f8"
         offset="1"
         id="stop33" />
    </radialGradient>
    <radialGradient
       id="au"
       gradientUnits="userSpaceOnUse"
       cy="114.57"
       cx="20.892"
       gradientTransform="matrix(.2297 0 0 .2297 4.6135 3.9798)"
       r="5.256">
      <stop
         stop-color="#f0f0f0"
         offset="0"
         id="stop36" />
      <stop
         stop-color="#9a9a9a"
         offset="1"
         id="stop38" />
    </radialGradient>
    <radialGradient
       id="av"
       gradientUnits="userSpaceOnUse"
       cy="64.568"
       cx="20.892"
       gradientTransform="matrix(.2297 0 0 .2297 4.6135 3.9798)"
       r="5.257">
      <stop
         stop-color="#f0f0f0"
         offset="0"
         id="stop41" />
      <stop
         stop-color="#9a9a9a"
         offset="1"
         id="stop43" />
    </radialGradient>
    <linearGradient
       id="al"
       y2="90.239"
       xlink:href="#an"
       gradientUnits="userSpaceOnUse"
       x2="32.251"
       gradientTransform="matrix(1.0238,0,0,1.0119,-1.1429,-98.071)"
       y1="6.1317"
       x1="32.251" />
    <linearGradient
       id="an"
       y2="7.0165"
       gradientUnits="userSpaceOnUse"
       x2="45.448"
       gradientTransform="matrix(1.0059 0 0 .99417 100 0)"
       y1="92.54"
       x1="45.448">
      <stop
         offset="0"
         id="stop47" />
      <stop
         stop-opacity=".58824"
         offset="1"
         id="stop49" />
    </linearGradient>
    <linearGradient
       id="bu"
       y2="49"
       xlink:href="#ao"
       gradientUnits="userSpaceOnUse"
       x2="37"
       y1="16"
       x1="37"
       gradientTransform="matrix(0.34827,0,0,0.37406,84.233,30.234)" />
    <linearGradient
       id="ao">
      <stop
         stop-color="#717249"
         offset="0"
         id="stop53" />
      <stop
         stop-color="#717249"
         stop-opacity="0"
         offset="1"
         id="stop55" />
    </linearGradient>
    <linearGradient
       id="bt"
       y2="39"
       xlink:href="#ao"
       gradientUnits="userSpaceOnUse"
       x2="34"
       y1="14"
       x1="34"
       gradientTransform="matrix(0.34827,0,0,0.37406,84.233,30.234)" />
    <linearGradient
       id="bb"
       y2="5.9877"
       gradientUnits="userSpaceOnUse"
       x2="48"
       y1="90"
       x1="48">
      <stop
         stop-color="#bcb5ac"
         offset="0"
         id="stop59" />
      <stop
         stop-color="#e9e7e4"
         offset="1"
         id="stop61" />
    </linearGradient>
    <linearGradient
       id="az"
       y2="63.893"
       gradientUnits="userSpaceOnUse"
       x2="36.357"
       y1="6"
       x1="36.357">
      <stop
         stop-color="#fff"
         offset="0"
         id="stop64" />
      <stop
         stop-color="#fff"
         stop-opacity="0"
         offset="1"
         id="stop66" />
    </linearGradient>
    <linearGradient
       id="bs"
       y2="35.771"
       gradientUnits="userSpaceOnUse"
       x2="64"
       gradientTransform="matrix(1.025,0,0,1.0625,-9.6,-4)"
       y1="15.5"
       x1="64">
      <stop
         stop-color="#ccc7c1"
         offset="0"
         id="stop69" />
      <stop
         stop-color="#fefefd"
         stop-opacity=".58015"
         offset="1"
         id="stop71" />
    </linearGradient>
    <radialGradient
       id="aw"
       gradientUnits="userSpaceOnUse"
       cy="90.172"
       cx="48"
       gradientTransform="matrix(1.1573,0,0,0.99591,-7.551,0.19713)"
       r="42">
      <stop
         stop-color="#fff"
         offset="0"
         id="stop74" />
      <stop
         stop-color="#fff"
         stop-opacity="0"
         offset="1"
         id="stop76" />
    </radialGradient>
    <linearGradient
       id="bk"
       y2="112"
       xlink:href="#a"
       gradientUnits="userSpaceOnUse"
       x2="30.247"
       gradientTransform="matrix(0.75,0,0,0.75,-3,-12.75)"
       y1="102"
       x1="30.247" />
    <linearGradient
       id="a">
      <stop
         stop-color="#323232"
         offset="0"
         id="stop80" />
      <stop
         stop-color="#505050"
         offset="1"
         id="stop82" />
    </linearGradient>
    <linearGradient
       id="bl"
       y2="112"
       xlink:href="#a"
       gradientUnits="userSpaceOnUse"
       x2="30.247"
       gradientTransform="matrix(0.75,0,0,0.75,15,-12.75)"
       y1="102"
       x1="30.247" />
    <linearGradient
       id="bm"
       y2="112"
       xlink:href="#a"
       gradientUnits="userSpaceOnUse"
       x2="30.247"
       gradientTransform="matrix(0.75,0,0,0.75,33,-12.75)"
       y1="102"
       x1="30.247" />
    <linearGradient
       id="bn"
       y2="85.997"
       xlink:href="#am"
       gradientUnits="userSpaceOnUse"
       x2="95.746"
       gradientTransform="matrix(0.75,0,0,0.75,3,-0.75002)"
       y1="96"
       x1="95.746" />
    <linearGradient
       id="am">
      <stop
         stop-color="#928075"
         offset="0"
         id="stop88" />
      <stop
         stop-color="#5b4f48"
         offset="1"
         id="stop90" />
    </linearGradient>
    <linearGradient
       id="bg"
       y2="112"
       xlink:href="#a"
       gradientUnits="userSpaceOnUse"
       x2="30.247"
       gradientTransform="matrix(0.75,0,0,0.75,-3,-24.75)"
       y1="102"
       x1="30.247" />
    <linearGradient
       id="bh"
       y2="112"
       xlink:href="#a"
       gradientUnits="userSpaceOnUse"
       x2="30.247"
       gradientTransform="matrix(0.75,0,0,0.75,15,-24.75)"
       y1="102"
       x1="30.247" />
    <linearGradient
       id="bi"
       y2="112"
       xlink:href="#a"
       gradientUnits="userSpaceOnUse"
       x2="30.247"
       gradientTransform="matrix(0.75,0,0,0.75,33,-24.75)"
       y1="102"
       x1="30.247" />
    <linearGradient
       id="bj"
       y2="70"
       xlink:href="#am"
       gradientUnits="userSpaceOnUse"
       x2="96"
       gradientTransform="matrix(0.75,0,0,0.75,3,-0.75001)"
       y1="80"
       x1="96" />
    <linearGradient
       id="bc"
       y2="112"
       xlink:href="#a"
       gradientUnits="userSpaceOnUse"
       x2="30.247"
       gradientTransform="matrix(0.75,0,0,0.75,-3,-36.75)"
       y1="102"
       x1="30.247" />
    <linearGradient
       id="bd"
       y2="112"
       xlink:href="#a"
       gradientUnits="userSpaceOnUse"
       x2="30.247"
       gradientTransform="matrix(0.75,0,0,0.75,15,-36.75)"
       y1="102"
       x1="30.247" />
    <linearGradient
       id="be"
       y2="112"
       xlink:href="#a"
       gradientUnits="userSpaceOnUse"
       x2="30.247"
       gradientTransform="matrix(0.75,0,0,0.75,33,-36.75)"
       y1="102"
       x1="30.247" />
    <linearGradient
       id="bf"
       y2="64"
       gradientUnits="userSpaceOnUse"
       x2="93.747"
       gradientTransform="matrix(0.75,0,0,0.75,3,-0.75001)"
       y1="54"
       x1="93.747">
      <stop
         stop-color="#802b27"
         offset="0"
         id="stop100" />
      <stop
         stop-color="#a93833"
         offset="1"
         id="stop102" />
    </linearGradient>
    <linearGradient
       id="bo"
       y2="112"
       xlink:href="#a"
       gradientUnits="userSpaceOnUse"
       x2="30.247"
       gradientTransform="matrix(0.75,0,0,0.75,-3,-0.75002)"
       y1="102"
       x1="30.247" />
    <linearGradient
       id="bp"
       y2="112"
       xlink:href="#am"
       gradientUnits="userSpaceOnUse"
       x2="53.333"
       gradientTransform="matrix(0.75,0,0,0.75,-0.99999,-159.75)"
       y1="102"
       x1="53.333" />
    <linearGradient
       id="bq"
       y2="102"
       xlink:href="#am"
       gradientUnits="userSpaceOnUse"
       x2="74.667"
       gradientTransform="matrix(0.75,0,0,0.75,1,-0.75002)"
       y1="112"
       x1="74.667" />
    <linearGradient
       id="br"
       y2="112.05"
       gradientUnits="userSpaceOnUse"
       x2="94.746"
       gradientTransform="matrix(0.75,0,0,0.75,3,-0.75002)"
       y1="102"
       x1="94.746">
      <stop
         stop-color="#c06517"
         offset="0"
         id="stop108" />
      <stop
         stop-color="#e88b3b"
         offset="1"
         id="stop110" />
    </linearGradient>
    <linearGradient
       id="ba"
       y2="90.239"
       xlink:href="#an"
       gradientUnits="userSpaceOnUse"
       x2="32.251"
       gradientTransform="translate(0,-97)"
       y1="6.1317"
       x1="32.251" />
    <linearGradient
       inkscape:collect="always"
       xlink:href="#an"
       id="linearGradient4296"
       gradientUnits="userSpaceOnUse"
       gradientTransform="matrix(1.0238,0,0,1.0119,-1.1429,-98.071)"
       x1="32.250999"
       y1="6.1317"
       x2="32.250999"
       y2="90.238998" />
    <linearGradient
       inkscape:collect="always"
       xlink:href="#an"
       id="linearGradient4298"
       gradientUnits="userSpaceOnUse"
       gradientTransform="matrix(1.0238,0,0,1.0119,-1.1429,-98.071)"
       x1="32.250999"
       y1="6.1317"
       x2="32.250999"
       y2="90.238998" />
    <linearGradient
       id="linearGradient5301"
       y2="90.238998"
       xlink:href="#an"
       gradientUnits="userSpaceOnUse"
       x2="32.250999"
       gradientTransform="matrix(1.0238,0,0,1.0119,-1.1429,-98.071)"
       y1="6.1317"
       x1="32.250999" />
    <linearGradient
       id="linearGradient5303"
       y2="90.238998"
       xlink:href="#an"
       gradientUnits="userSpaceOnUse"
       x2="32.250999"
       gradientTransform="translate(0,-97)"
       y1="6.1317"
       x1="32.250999" />
    <linearGradient
       id="linearGradient5305"
       y2="39"
       xlink:href="#ao"
       gradientUnits="userSpaceOnUse"
       x2="34"
       y1="14"
       x1="34" />
    <radialGradient
       id="aw-2"
       gradientUnits="userSpaceOnUse"
       cy="90.171997"
       cx="48"
       gradientTransform="matrix(1.1573,0,0,0.99591,-7.551,0.19713)"
       r="42">
      <stop
         stop-color="#fff"
         offset="0"
         id="stop74-7" />
      <stop
         stop-color="#fff"
         stop-opacity="0"
         offset="1"
         id="stop76-0" />
    </radialGradient>
    <linearGradient
       id="linearGradient5310"
       y2="112"
       xlink:href="#a"
       gradientUnits="userSpaceOnUse"
       x2="30.247"
       gradientTransform="matrix(0.75,0,0,0.75,15,-12.75)"
       y1="102"
       x1="30.247" />
    <linearGradient
       id="linearGradient5312"
       y2="112"
       xlink:href="#a"
       gradientUnits="userSpaceOnUse"
       x2="30.247"
       gradientTransform="matrix(0.75,0,0,0.75,33,-12.75)"
       y1="102"
       x1="30.247" />
    <linearGradient
       id="linearGradient5314"
       y2="112"
       xlink:href="#a"
       gradientUnits="userSpaceOnUse"
       x2="30.247"
       gradientTransform="matrix(0.75,0,0,0.75,-3,-24.75)"
       y1="102"
       x1="30.247" />
    <linearGradient
       id="linearGradient5316"
       y2="112"
       xlink:href="#a"
       gradientUnits="userSpaceOnUse"
       x2="30.247"
       gradientTransform="matrix(0.75,0,0,0.75,15,-24.75)"
       y1="102"
       x1="30.247" />
    <linearGradient
       id="linearGradient5318"
       y2="112"
       xlink:href="#a"
       gradientUnits="userSpaceOnUse"
       x2="30.247"
       gradientTransform="matrix(0.75,0,0,0.75,33,-24.75)"
       y1="102"
       x1="30.247" />
    <linearGradient
       id="linearGradient5320"
       y2="70"
       xlink:href="#am"
       gradientUnits="userSpaceOnUse"
       x2="96"
       gradientTransform="matrix(0.75,0,0,0.75,3,-0.75001)"
       y1="80"
       x1="96" />
    <linearGradient
       id="linearGradient5322"
       y2="112"
       xlink:href="#a"
       gradientUnits="userSpaceOnUse"
       x2="30.247"
       gradientTransform="matrix(0.75,0,0,0.75,-3,-36.75)"
       y1="102"
       x1="30.247" />
    <linearGradient
       id="linearGradient5324"
       y2="112"
       xlink:href="#a"
       gradientUnits="userSpaceOnUse"
       x2="30.247"
       gradientTransform="matrix(0.75,0,0,0.75,15,-36.75)"
       y1="102"
       x1="30.247" />
    <linearGradient
       id="linearGradient5326"
       y2="112"
       xlink:href="#a"
       gradientUnits="userSpaceOnUse"
       x2="30.247"
       gradientTransform="matrix(0.75,0,0,0.75,33,-36.75)"
       y1="102"
       x1="30.247" />
    <linearGradient
       id="linearGradient5328"
       y2="112"
       xlink:href="#a"
       gradientUnits="userSpaceOnUse"
       x2="30.247"
       gradientTransform="matrix(0.75,0,0,0.75,-3,-0.75002)"
       y1="102"
       x1="30.247" />
    <linearGradient
       id="linearGradient5330"
       y2="112"
       xlink:href="#am"
       gradientUnits="userSpaceOnUse"
       x2="53.333"
       gradientTransform="matrix(0.75,0,0,0.75,-0.99999,-159.75)"
       y1="102"
       x1="53.333" />
    <linearGradient
       id="linearGradient5332"
       y2="102"
       xlink:href="#am"
       gradientUnits="userSpaceOnUse"
       x2="74.667"
       gradientTransform="matrix(0.75,0,0,0.75,1,-0.75002)"
       y1="112"
       x1="74.667" />
    <linearGradient
       inkscape:collect="always"
       xlink:href="#an"
       id="linearGradient5392"
       gradientUnits="userSpaceOnUse"
       gradientTransform="matrix(1.0238,0,0,1.0119,-1.1429,-98.071)"
       x1="32.251"
       y1="6.1317"
       x2="32.251"
       y2="90.239" />
  </defs>
  <g
     transform="matrix(1.2791628,0,0,1.311435,-105.13144,-39.932416)"
     id="g179">
    <g
       transform="matrix(0.34827,0,0,0.37406,84.233,30.234)"
       id="g181">
      <path
         d="m 12,-95.031 c -5.5111,0 -10.031,4.5202 -10.031,10.031 l 0,71 c 0,5.5111 4.5202,10.031 10.031,10.031 l 72,0 c 5.5111,0 10.031,-4.5202 10.031,-10.031 l 0,-71 c 0,-5.5111 -4.5202,-10.031 -10.031,-10.031 l -72,0 z"
         transform="scale(1,-1)"
         id="path183"
         style="opacity:0.07999998;fill:url(#linearGradient5392)"
         inkscape:connector-curvature="0" />
      <path
         d="m 12,-94.031 c -4.9716,0 -9.0312,4.0596 -9.0312,9.0312 l 0,71 c 0,4.9716 4.0596,9.0312 9.0312,9.0312 l 72,0 c 4.9716,0 9.0312,-4.0596 9.0312,-9.0312 l 0,-71 c 0,-4.9716 -4.0596,-9.0312 -9.0312,-9.0312 l -72,0 z"
         transform="scale(1,-1)"
         id="path185"
         style="opacity:0.1;fill:url(#linearGradient4296)"
         inkscape:connector-curvature="0" />
      <path
         d="m 12,-93 c -4.4091,0 -8,3.5909 -8,8 l 0,71 c 0,4.4091 3.5909,8 8,8 l 72,0 c 4.4091,0 8,-3.5909 8,-8 l 0,-71 c 0,-4.4091 -3.5909,-8 -8,-8 l -72,0 z"
         transform="scale(1,-1)"
         id="path187"
         style="opacity:0.2;fill:url(#linearGradient4298)"
         inkscape:connector-curvature="0" />
      <rect
         transform="scale(1,-1)"
         rx="7"
         ry="7"
         height="85"
         width="86"
         y="-92"
         x="5"
         id="rect189"
         style="opacity:0.3;fill:url(#al)" />
      <rect
         transform="scale(1,-1)"
         rx="6"
         ry="6"
         height="84"
         width="84"
         y="-91"
         x="6"
         id="rect191"
         style="opacity:0.45;fill:url(#ba)" />
    </g>
    <rect
       style="fill:#d2d7b3;fill-opacity:1"
       id="rect195"
       x="88.90992"
       y="34.24168"
       width="23.819229"
       height="9.7655849"
       ry="0.91551185"
       rx="0.89320803" />
    <g
       id="g197"
       transform="matrix(0.27053265,0,0,0.29056607,90.592062,32.237877)">
      <path
         style="opacity:0.5"
         inkscape:connector-curvature="0"
         id="path199"
         d="m 68.217,22.238 -1.896,1.496 -1.921,-1.496 0,-3.0174 1.921,-1.496 1.896,1.496 0,3.0174 m -2.2204,-4.7417 -1.896,1.5214 -3.817,0 -1.896,-1.5214 1.896,-1.496 3.817,0 1.896,1.496 m 2.2204,11.208 -1.896,1.496 -1.921,-1.496 0,-3.0174 1.921,-1.496 1.896,1.496 0,3.0174 m -8.183,-6.4659 -1.896,1.496 -1.921,-1.496 0,-3.017 1.921,-1.496 1.896,1.496 0,3.0174 m 5.963,8.266 -1.921,1.496 -3.7921,0 -1.921,-1.496 1.921,-1.5214 3.7921,0 1.921,1.5214 m -5.9626,-1.8003 -1.896,1.496 -1.921,-1.496 0,-3.0174 1.921,-1.496 1.896,1.496 0,3.0174" />
      <path
         style="opacity:0.5"
         inkscape:connector-curvature="0"
         id="path201"
         d="M 74.139,30.473 72.095,32 l -1.8893,-1.5269 1.9669,-1.5528 1.9669,1.5528" />
    </g>
    <path
       inkscape:connector-curvature="0"
       id="path203"
       d="m 90.15359,35.47084 c -0.192942,0 -0.34827,0.166831 -0.34827,0.37406 l 0,6.73308 c 0,0.207229 0.155328,0.37406 0.34827,0.37406 l 21.59274,0 c 0.19294,0 0.34827,-0.166831 0.34827,-0.37406 l 0,-6.73308 c 0,-0.207229 -0.15533,-0.37406 -0.34827,-0.37406 z m 0.359136,0.759791 20.874604,0 0,5.961768 -20.874604,0 z"
       style="color:#000000;opacity:0.3;fill:url(#bu)" />
    <path
       inkscape:connector-curvature="0"
       id="path205"
       d="m 90.15359,35.47084 c -0.192942,0 -0.34827,0.166831 -0.34827,0.37406 l 0,6.73308 c 0,0.207229 0.155328,0.37406 0.34827,0.37406 l 21.59274,0 c 0.19294,0 0.34827,-0.166831 0.34827,-0.37406 l 0,-6.73308 c 0,-0.207229 -0.15533,-0.37406 -0.34827,-0.37406 z m 0.01088,0.385731 21.571147,0 0,6.709888 -21.571147,0 z"
       style="color:#000000;opacity:0.6;fill:url(#bt)" />
    <g
       transform="matrix(0.34827,0,0,0.37406,84.233,30.234)"
       id="g207">
      <path
         d="M 12,6 C 8.676,6 6,8.676 6,12 l 0,72 c 0,3.324 2.676,6 6,6 l 72,0 c 3.324,0 6,-2.676 6,-6 L 90,12 C 90,8.676 87.324,6 84,6 L 12,6 Z m 6,7 60,0 c 1.108,0 2,0.892 2,2 l 0,18 c 0,1.108 -0.892,2 -2,2 l -60,0 c -1.108,0 -2,-0.892 -2,-2 l 0,-18 c 0,-1.108 0.892,-2 2,-2 z"
         id="path209"
         style="fill:url(#bb)"
         inkscape:connector-curvature="0" />
      <path
         d="M 12,6 C 8.676,6 6,8.676 6,12 l 0,72 c 0,0.33472 0.04135,0.6507 0.09375,0.96875 0.0487,0.2956 0.09704,0.59692 0.1875,0.875 0.00988,0.03038 0.020892,0.0636 0.03125,0.09375 0.098865,0.28777 0.23488,0.54745 0.375,0.8125 0.14459,0.27351 0.31562,0.53562 0.5,0.78125 0.18438,0.24564 0.37378,0.47347 0.59375,0.6875 0.43995,0.42806 0.94291,0.81453 1.5,1.0938 0.27854,0.13961 0.57347,0.24695 0.875,0.34375 -0.2562,-0.10022 -0.48671,-0.23627 -0.71875,-0.375 -0.00741,-0.0044 -0.023866,0.0045 -0.03125,0 -0.0319,-0.019 -0.0622,-0.042 -0.0937,-0.062 -0.1204,-0.077 -0.231,-0.164 -0.3437,-0.25 -0.1062,-0.081 -0.2133,-0.161 -0.3126,-0.25 -0.1778,-0.162 -0.3473,-0.346 -0.4999,-0.531 -0.1075,-0.131 -0.2183,-0.266 -0.3124,-0.407 -0.0251,-0.038 -0.0385,-0.086 -0.0626,-0.125 -0.0647,-0.103 -0.1302,-0.204 -0.1874,-0.312 -0.1011,-0.195 -0.2057,-0.416 -0.2813,-0.625 -0.008,-0.022 -0.0236,-0.041 -0.0313,-0.063 -0.0318,-0.092 -0.0358,-0.187 -0.0624,-0.281 -0.0304,-0.107 -0.0704,-0.203 -0.0938,-0.313 -0.0729,-0.341 -0.125,-0.698 -0.125,-1.062 l 0,-72 c 0,-2.782 2.2182,-5 5,-5 l 72,0 c 2.7818,0 5,2.2182 5,5 l 0,72 c 0,0.3643 -0.05212,0.72099 -0.125,1.0625 -0.04415,0.20689 -0.08838,0.39766 -0.15625,0.59375 -0.0077,0.02195 -0.0233,0.04069 -0.03125,0.0625 -0.06274,0.17374 -0.13838,0.36745 -0.21875,0.53125 -0.04158,0.0828 -0.07904,0.16995 -0.125,0.25 -0.0546,0.09721 -0.12677,0.18835 -0.1875,0.28125 -0.09411,0.14096 -0.20492,0.276 -0.3125,0.40625 -0.14317,0.17445 -0.30314,0.347 -0.46875,0.5 -0.01117,0.0102 -0.01998,0.02115 -0.03125,0.03125 -0.13839,0.12556 -0.28509,0.23444 -0.4375,0.34375 -0.10257,0.07315 -0.20432,0.15336 -0.3125,0.21875 -0.0074,0.0045 -0.02384,-0.0044 -0.03125,0 -0.23204,0.13873 -0.46255,0.27478 -0.71875,0.375 0.30153,-0.0968 0.59646,-0.20414 0.875,-0.34375 0.55709,-0.27922 1.0601,-0.66569 1.5,-1.0938 0.21997,-0.21403 0.40937,-0.44186 0.59375,-0.6875 0.18438,-0.24564 0.35541,-0.50774 0.5,-0.78125 0.14012,-0.26505 0.27614,-0.52473 0.375,-0.8125 0.01041,-0.03078 0.02133,-0.06274 0.03125,-0.09375 0.09046,-0.27808 0.1388,-0.5794 0.1875,-0.875 0.053,-0.318 0.094,-0.634 0.094,-0.969 l 0,-72 c 0,-3.324 -2.676,-6 -6,-6 l -72,0 z"
         id="path211"
         style="opacity:0.5;fill:url(#az)"
         inkscape:connector-curvature="0" />
      <rect
         rx="2"
         ry="2"
         height="22"
         width="66"
         y="13"
         x="15"
         id="rect213"
         style="fill:none;stroke:url(#bs);stroke-width:2;stroke-linecap:square;stroke-linejoin:round" />
      <path
         d="M 12,90 C 8.676,90 6,87.324 6,84 L 6,12 c 0,-0.33472 0.04135,-0.6507 0.09375,-0.96875 0.0487,-0.2956 0.09704,-0.59692 0.1875,-0.875 0.01,-0.03 0.0209,-0.063 0.0313,-0.094 0.0989,-0.2873 0.2349,-0.547 0.375,-0.812 0.1446,-0.2735 0.3156,-0.5356 0.5,-0.7812 0.1844,-0.2457 0.3738,-0.4735 0.5937,-0.6876 0.44,-0.428 0.943,-0.8145 1.5,-1.0937 0.2786,-0.1396 0.5735,-0.2469 0.8748,-0.3437 -0.256,0.1002 -0.4865,0.2362 -0.7185,0.375 -0.0074,0.0044 -0.02387,-0.0045 -0.03125,0 -0.03193,0.0193 -0.06229,0.04251 -0.09375,0.0625 -0.1204,0.0767 -0.23102,0.16351 -0.34375,0.25 -0.10617,0.0808 -0.21328,0.16111 -0.3125,0.25 -0.1779,0.1614 -0.3474,0.3453 -0.5,0.5312 -0.1075,0.1303 -0.2183,0.2653 -0.3124,0.4063 -0.0251,0.0383 -0.0385,0.0858 -0.0626,0.125 -0.0647,0.103 -0.1302,0.2045 -0.1874,0.3124 -0.1011,0.1948 -0.2057,0.4158 -0.2813,0.625 -0.008,0.0219 -0.0236,0.0406 -0.0313,0.0626 -0.0318,0.0919 -0.0358,0.1868 -0.0624,0.2812 -0.0304,0.1066 -0.0704,0.203 -0.0938,0.3125 -0.0729,0.3415 -0.125,0.6985 -0.125,1.0625 l 0,72 c 0,2.7818 2.2182,5 5,5 l 72,0 c 2.7818,0 5,-2.2182 5,-5 l 0,-72 c 0,-0.364 -0.052,-0.721 -0.125,-1.0625 -0.044,-0.2069 -0.088,-0.3977 -0.156,-0.5937 -0.008,-0.022 -0.024,-0.0407 -0.031,-0.0626 -0.063,-0.1737 -0.139,-0.3674 -0.219,-0.5312 -0.042,-0.0828 -0.079,-0.17 -0.125,-0.25 -0.055,-0.0972 -0.127,-0.1884 -0.188,-0.2812 -0.094,-0.141 -0.205,-0.276 -0.312,-0.4063 -0.143,-0.1745 -0.303,-0.347 -0.469,-0.5 -0.011,-0.0102 -0.02,-0.0211 -0.031,-0.0313 -0.139,-0.1255 -0.285,-0.2344 -0.438,-0.3437 -0.102,-0.0731 -0.204,-0.1534 -0.312,-0.2187 -0.0074,-0.0045 -0.02384,0.0044 -0.03125,0 -0.23204,-0.13873 -0.46255,-0.27478 -0.71875,-0.375 0.30153,0.0968 0.59646,0.20414 0.875,0.34375 0.55709,0.27922 1.0601,0.66569 1.5,1.0938 0.21997,0.21403 0.40937,0.44186 0.59375,0.6875 0.18438,0.24564 0.35541,0.50774 0.5,0.78125 0.14012,0.26505 0.27614,0.52473 0.375,0.8125 0.01041,0.03078 0.02133,0.06274 0.03125,0.09375 0.09046,0.27808 0.1388,0.5794 0.1875,0.875 0.053,0.318 0.094,0.634 0.094,0.969 l 0,72 c 0,3.324 -2.676,6 -6,6 l -72,0 z"
         id="path215"
         style="opacity:0.5;fill:url(#aw-2)"
         inkscape:connector-curvature="0" />
    </g>
    <g
       transform="matrix(0.34827,0,0,0.37406,84.233,30.234)"
       id="g217">
      <path
         d="m 16.125,39.844 c -0.97087,0 -1.7812,0.81038 -1.7812,1.7812 l 0,5.25 c 0,0.97087 0.81038,1.7813 1.7812,1.7812 l 9.75,0 c 0.97087,0 1.7812,-0.81038 1.7812,-1.7812 l 0,-5.25 c 0,-0.97087 -0.81038,-1.7812 -1.7812,-1.7812 l -9.75,0 z m 18,0 c -0.97087,0 -1.7812,0.81038 -1.7812,1.7812 l 0,5.25 c 0,0.97087 0.81038,1.7813 1.7812,1.7812 l 9.75,0 c 0.97087,0 1.7812,-0.81038 1.7812,-1.7812 l 0,-5.25 c 0,-0.97087 -0.81038,-1.7812 -1.7812,-1.7812 l -9.75,0 z m 18,0 c -0.97087,0 -1.7812,0.81038 -1.7812,1.7812 l 0,5.25 c 0,0.97087 0.81038,1.7813 1.7812,1.7812 l 9.75,0 c 0.97087,0 1.7812,-0.81038 1.7812,-1.7812 l 0,-5.25 c 0,-0.97087 -0.81038,-1.7812 -1.7812,-1.7812 l -9.75,0 z m 18,0 c -0.97087,0 -1.7812,0.81038 -1.7812,1.7812 l 0,5.25 c 0,0.97087 0.81038,1.7813 1.7812,1.7812 l 9.75,0 c 0.97087,0 1.7812,-0.81038 1.7812,-1.7812 l 0,-5.25 c 0,-0.97087 -0.81038,-1.7812 -1.7812,-1.7812 l -9.75,0 z m -54,12 c -0.97087,0 -1.7812,0.81038 -1.7812,1.7812 l 0,5.25 c 0,0.97087 0.81038,1.7813 1.7812,1.7812 l 9.75,0 c 0.97087,0 1.7812,-0.81038 1.7812,-1.7812 l 0,-5.25 c 0,-0.97087 -0.81038,-1.7812 -1.7812,-1.7812 l -9.75,0 z m 18,0 c -0.97087,0 -1.7812,0.81038 -1.7812,1.7812 l 0,5.25 c 0,0.97087 0.81038,1.7813 1.7812,1.7812 l 9.75,0 c 0.97087,0 1.7812,-0.81038 1.7812,-1.7812 l 0,-5.25 c 0,-0.97087 -0.81038,-1.7812 -1.7812,-1.7812 l -9.75,0 z m 18,0 c -0.97087,0 -1.7812,0.81038 -1.7812,1.7812 l 0,5.25 c 0,0.97087 0.81038,1.7813 1.7812,1.7812 l 9.75,0 c 0.97087,0 1.7812,-0.81038 1.7812,-1.7812 l 0,-5.25 c 0,-0.97087 -0.81038,-1.7812 -1.7812,-1.7812 l -9.75,0 z m 18,0 c -0.97087,0 -1.7812,0.81038 -1.7812,1.7812 l 0,5.25 c 0,0.97087 0.81038,1.7813 1.7812,1.7812 l 9.75,0 c 0.97087,0 1.7812,-0.81038 1.7812,-1.7812 l 0,-5.25 c 0,-0.97087 -0.81038,-1.7812 -1.7812,-1.7812 l -9.75,0 z m -54,12 c -0.97087,0 -1.7812,0.81038 -1.7812,1.7812 l 0,5.25 c 0,0.97087 0.81038,1.7813 1.7812,1.7812 l 9.75,0 c 0.97087,0 1.7812,-0.81038 1.7812,-1.7812 l 0,-5.25 c 0,-0.97087 -0.81038,-1.7812 -1.7812,-1.7812 l -9.75,0 z m 18,0 c -0.97087,0 -1.7812,0.81038 -1.7812,1.7812 l 0,5.25 c 0,0.97087 0.81038,1.7813 1.7812,1.7812 l 9.75,0 c 0.97087,0 1.7812,-0.81038 1.7812,-1.7812 l 0,-5.25 c 0,-0.97087 -0.81038,-1.7812 -1.7812,-1.7812 l -9.75,0 z m 18,0 c -0.97087,0 -1.7812,0.81038 -1.7812,1.7812 l 0,5.25 c 0,0.97087 0.81038,1.7813 1.7812,1.7812 l 9.75,0 c 0.97087,0 1.7812,-0.81038 1.7812,-1.7812 l 0,-5.25 c 0,-0.97087 -0.81038,-1.7812 -1.7812,-1.7812 l -9.75,0 z m 18,0 c -0.97087,0 -1.7812,0.81038 -1.7812,1.7812 l 0,5.25 c 0,0.97087 0.81038,1.7813 1.7812,1.7812 l 9.75,0 c 0.97087,0 1.7812,-0.81038 1.7812,-1.7812 l 0,-5.25 c 0,-0.97087 -0.81038,-1.7812 -1.7812,-1.7812 l -9.75,0 z m -54,12 c -0.97087,0 -1.7812,0.81038 -1.7812,1.7812 l 0,5.25 c 0,0.97087 0.81038,1.7813 1.7812,1.7812 l 9.75,0 c 0.97087,0 1.7812,-0.81038 1.7812,-1.7812 l 0,-5.25 c 0,-0.97087 -0.81038,-1.7812 -1.7812,-1.7812 l -9.75,0 z m 18,0 c -0.97088,-2e-6 -1.7812,0.81038 -1.7812,1.7812 l 0,5.25 c 0,0.97087 0.81038,1.7812 1.7812,1.7812 l 9.75,0 c 0.97087,0 1.7812,-0.81038 1.7812,-1.7812 l 0,-5.25 c -2e-6,-0.97087 -0.81038,-1.7812 -1.7812,-1.7812 l -9.75,0 z m 18,0 c -0.97087,0 -1.7812,0.81038 -1.7812,1.7812 l 0,5.25 c 0,0.97087 0.81038,1.7813 1.7812,1.7812 l 9.75,0 c 0.97087,0 1.7812,-0.81038 1.7812,-1.7812 l 0,-5.25 c 0,-0.97087 -0.81038,-1.7812 -1.7812,-1.7812 l -9.75,0 z m 18,0 c -0.97087,0 -1.7812,0.81038 -1.7812,1.7812 l 0,5.25 c 0,0.97087 0.81038,1.7813 1.7812,1.7812 l 9.75,0 c 0.97087,0 1.7812,-0.81038 1.7812,-1.7812 l 0,-5.25 c 0,-0.97087 -0.81038,-1.7812 -1.7812,-1.7812 l -9.75,0 z"
         id="path219"
         inkscape:connector-curvature="0"
         style="opacity:0.2" />
      <path
         d="M 16.125,40.5 C 15.502,40.5 15,41.002 15,41.625 l 0,5.25 C 15,47.498 15.502,48 16.125,48 l 9.75,0 C 26.498,48 27,47.498 27,46.875 l 0,-5.25 C 27,41.002 26.498,40.5 25.875,40.5 l -9.75,0 z m 18,0 C 33.502,40.5 33,41.002 33,41.625 l 0,5.25 C 33,47.498 33.502,48 34.125,48 l 9.75,0 C 44.498,48 45,47.498 45,46.875 l 0,-5.25 C 45,41.002 44.498,40.5 43.875,40.5 l -9.75,0 z m 18,0 C 51.502,40.5 51,41.002 51,41.625 l 0,5.25 C 51,47.498 51.502,48 52.125,48 l 9.75,0 C 62.498,48 63,47.498 63,46.875 l 0,-5.25 C 63,41.002 62.498,40.5 61.875,40.5 l -9.75,0 z m 18,0 C 69.502,40.5 69,41.002 69,41.625 l 0,5.25 C 69,47.498 69.502,48 70.125,48 l 9.75,0 C 80.498,48 81,47.498 81,46.875 l 0,-5.25 C 81,41.002 80.498,40.5 79.875,40.5 l -9.75,0 z m -54,12 C 15.502,52.5 15,53.002 15,53.625 l 0,5.25 C 15,59.498 15.502,60 16.125,60 l 9.75,0 C 26.498,60 27,59.498 27,58.875 l 0,-5.25 C 27,53.002 26.498,52.5 25.875,52.5 l -9.75,0 z m 18,0 C 33.502,52.5 33,53.002 33,53.625 l 0,5.25 C 33,59.498 33.502,60 34.125,60 l 9.75,0 C 44.498,60 45,59.498 45,58.875 l 0,-5.25 C 45,53.002 44.498,52.5 43.875,52.5 l -9.75,0 z m 18,0 C 51.502,52.5 51,53.002 51,53.625 l 0,5.25 C 51,59.498 51.502,60 52.125,60 l 9.75,0 C 62.498,60 63,59.498 63,58.875 l 0,-5.25 C 63,53.002 62.498,52.5 61.875,52.5 l -9.75,0 z m 18,0 C 69.502,52.5 69,53.002 69,53.625 l 0,5.25 C 69,59.498 69.502,60 70.125,60 l 9.75,0 C 80.498,60 81,59.498 81,58.875 l 0,-5.25 C 81,53.002 80.498,52.5 79.875,52.5 l -9.75,0 z m -54,12 C 15.502,64.5 15,65.002 15,65.625 l 0,5.25 C 15,71.498 15.502,72 16.125,72 l 9.75,0 C 26.498,72 27,71.498 27,70.875 l 0,-5.25 C 27,65.002 26.498,64.5 25.875,64.5 l -9.75,0 z m 18,0 C 33.502,64.5 33,65.002 33,65.625 l 0,5.25 C 33,71.498 33.502,72 34.125,72 l 9.75,0 C 44.498,72 45,71.498 45,70.875 l 0,-5.25 C 45,65.002 44.498,64.5 43.875,64.5 l -9.75,0 z m 18,0 C 51.502,64.5 51,65.002 51,65.625 l 0,5.25 C 51,71.498 51.502,72 52.125,72 l 9.75,0 C 62.498,72 63,71.498 63,70.875 l 0,-5.25 C 63,65.002 62.498,64.5 61.875,64.5 l -9.75,0 z m 18,0 C 69.502,64.5 69,65.002 69,65.625 l 0,5.25 C 69,71.498 69.502,72 70.125,72 l 9.75,0 C 80.498,72 81,71.498 81,70.875 l 0,-5.25 C 81,65.002 80.498,64.5 79.875,64.5 l -9.75,0 z m -54,12 C 15.502,76.5 15,77.002 15,77.625 l 0,5.25 C 15,83.498 15.502,84 16.125,84 l 9.75,0 C 26.498,84 27,83.498 27,82.875 l 0,-5.25 C 27,77.002 26.498,76.5 25.875,76.5 l -9.75,0 z m 18,0 C 33.502,76.5 33,77.002 33,77.625 l 0,5.25 C 33,83.498 33.502,84 34.125,84 l 9.75,0 C 44.498,84 45,83.498 45,82.875 l 0,-5.25 C 45,77.002 44.498,76.5 43.875,76.5 l -9.75,0 z m 18,0 C 51.502,76.5 51,77.002 51,77.625 l 0,5.25 C 51,83.498 51.502,84 52.125,84 l 9.75,0 C 62.498,84 63,83.498 63,82.875 l 0,-5.25 C 63,77.002 62.498,76.5 61.875,76.5 l -9.75,0 z m 18,0 C 69.502,76.5 69,77.002 69,77.625 l 0,5.25 C 69,83.498 69.502,84 70.125,84 l 9.75,0 C 80.498,84 81,83.498 81,82.875 l 0,-5.25 C 81,77.002 80.498,76.5 79.875,76.5 l -9.75,0 z"
         id="path221"
         inkscape:connector-curvature="0"
         style="opacity:0.6" />
      <g
         transform="translate(0,0.25)"
         id="g223">
        <rect
           rx="1.125"
           ry="1.125"
           height="7.5"
           width="12"
           y="63.75"
           x="15"
           id="rect225"
           style="fill:url(#bk)" />
        <path
           d="m 19.43,69.822 0,-0.68884 1.1503,0 0,-3.1674 -1.114,0.69543 0,-0.728 1.1635,-0.75476 0.87671,0 0,3.9551 1.0646,0 0,0.68884 -3.141,0"
           id="path227"
           inkscape:connector-curvature="0"
           style="fill:#ffffff" />
        <rect
           rx="1.125"
           ry="1.125"
           height="7.5"
           width="12"
           y="63.75"
           x="33"
           id="rect229"
           style="fill:url(#bl)" />
        <path
           d="m 37.375,69.857 0,-0.6427 c 0.10547,-0.23071 0.23401,-0.43835 0.38562,-0.62292 0.15161,-0.18677 0.30981,-0.35705 0.47461,-0.51086 0.16699,-0.15601 0.33179,-0.29993 0.49438,-0.43176 0.16479,-0.13403 0.31201,-0.26257 0.44165,-0.38562 0.13183,-0.12524 0.2384,-0.25049 0.3197,-0.37573 0.08129,-0.12524 0.12194,-0.25818 0.12195,-0.3988 -7e-6,-0.20654 -0.05164,-0.35925 -0.15491,-0.45813 -0.10327,-0.09887 -0.25488,-0.14831 -0.45483,-0.14832 -0.19776,5e-6 -0.34937,0.05384 -0.45483,0.1615 -0.10327,0.10547 -0.17029,0.26477 -0.20105,0.4779 l -0.93274,-0.05273 c 0.02197,-0.18237 0.06702,-0.35376 0.13513,-0.51416 0.06811,-0.1604 0.16479,-0.30102 0.29004,-0.42188 0.12744,-0.12084 0.28564,-0.21533 0.47461,-0.28345 0.19116,-0.07031 0.41858,-0.10546 0.68225,-0.10547 0.25048,4e-6 0.47241,0.02967 0.66577,0.08899 0.19335,0.05713 0.35595,0.14173 0.48779,0.25378 0.13183,0.11206 0.2318,0.24939 0.29992,0.41199 0.06811,0.1604 0.10216,0.34388 0.10217,0.55042 -7e-6,0.21753 -0.04285,0.41419 -0.12854,0.58997 -0.0857,0.17578 -0.19556,0.33838 -0.32959,0.48779 -0.13404,0.14722 -0.28345,0.28565 -0.44824,0.41528 -0.1626,0.12964 -0.3208,0.25598 -0.47461,0.37903 -0.15381,0.12305 -0.29444,0.24719 -0.42188,0.37244 -0.12524,0.12525 -0.21863,0.25928 -0.28015,0.4021 l 2.1555,0 0,0.76135 -3.2498,0"
           id="path231"
           inkscape:connector-curvature="0"
           style="fill:#ffffff" />
        <rect
           rx="1.125"
           ry="1.125"
           height="7.5"
           width="12"
           y="63.75"
           x="51"
           id="rect233"
           style="fill:url(#bm)" />
        <path
           d="m 58.678,68.53 c 0,0.21094 -0.03516,0.401 -0.10547,0.57019 -0.06813,0.16699 -0.17139,0.30981 -0.30982,0.42847 -0.13842,0.11865 -0.31092,0.20984 -0.51746,0.27356 -0.20434,0.06152 -0.44274,0.09229 -0.71521,0.09229 -0.30322,0 -0.55921,-0.03845 -0.76794,-0.11536 -0.20654,-0.0769 -0.37683,-0.17798 -0.51087,-0.30322 -0.13183,-0.12744 -0.23181,-0.27136 -0.29992,-0.43176 -0.06592,-0.1604 -0.10877,-0.323 -0.12854,-0.48779 l 0.94263,-0.0824 c 0.01318,0.09888 0.03735,0.19006 0.07251,0.27356 0.03735,0.0813 0.08679,0.15161 0.14831,0.21094 0.06152,0.05933 0.13623,0.10547 0.22412,0.13843 0.09008,0.03076 0.19556,0.04614 0.3164,0.04614 0.22192,10e-7 0.39442,-0.05493 0.51746,-0.1648 0.12304,-0.10986 0.18457,-0.27795 0.18458,-0.50427 -8e-6,-0.13843 -0.02967,-0.24939 -0.08899,-0.33289 -0.05713,-0.08349 -0.13073,-0.14722 -0.22082,-0.19116 -0.08789,-0.04614 -0.18348,-0.0769 -0.28674,-0.09228 -0.10328,-0.01538 -0.20105,-0.02307 -0.29334,-0.02307 l -0.324,0 0,-0.74817 0.30323,0 c 0.09228,4e-6 0.18566,-0.0088 0.28015,-0.02637 0.09667,-0.01758 0.18347,-0.04944 0.26038,-0.09558 0.0769,-0.04614 0.13952,-0.10986 0.18787,-0.19116 0.04833,-0.08349 0.07251,-0.18896 0.07251,-0.31641 0,-0.19116 -0.05383,-0.34057 -0.1615,-0.44824 -0.10547,-0.10986 -0.26038,-0.16479 -0.46472,-0.1648 -0.19117,3e-6 -0.34608,0.05274 -0.46472,0.1582 -0.11646,0.10547 -0.18348,0.25489 -0.20105,0.44824 l -0.926,-0.067 c 0.02637,-0.21752 0.0857,-0.40649 0.17798,-0.5669 0.09449,-0.1604 0.21204,-0.29333 0.35267,-0.3988 0.14282,-0.10546 0.30652,-0.18347 0.49108,-0.23401 0.18458,-0.05273 0.38013,-0.0791 0.58668,-0.0791 0.27246,5e-6 0.50647,0.03296 0.70203,0.09888 0.19554,0.06592 0.35595,0.15491 0.4812,0.26697 0.12523,0.11206 0.21752,0.2428 0.27685,0.39221 0.05932,0.14942 0.08899,0.30872 0.08899,0.4779 0,0.13623 -0.01978,0.26368 -0.05933,0.38232 -0.03956,0.11646 -0.09998,0.22193 -0.18128,0.31641 -0.07911,0.09229 -0.18128,0.17249 -0.30652,0.2406 -0.12525,0.06592 -0.27357,0.11536 -0.44495,0.14832 l 0,0.01318 c 0.19116,0.02197 0.35706,0.06592 0.49768,0.13184 0.14062,0.06372 0.25598,0.14392 0.34607,0.2406 0.09008,0.09668 0.1571,0.20654 0.20105,0.32959 0.04394,0.12085 0.06592,0.24939 0.06592,0.38562"
           id="path235"
           inkscape:connector-curvature="0"
           style="fill:#ffffff" />
        <rect
           rx="1.125"
           ry="1.125"
           height="7.5"
           width="12"
           y="63.75"
           x="69"
           id="rect237"
           style="fill:url(#bn)" />
        <path
           d="m 75.408,67.91 0,1.4941 -0.828,0 0,-1.494 -1.461,0 0,-0.82 1.461,0 0,-1.494 0.828,0 0,1.4941 1.4722,0 0,0.82 -1.472,0"
           id="path239"
           inkscape:connector-curvature="0"
           style="fill:#ffffff" />
      </g>
      <g
         transform="translate(0,0.25)"
         id="g241">
        <rect
           rx="1.125"
           ry="1.125"
           height="7.5"
           width="12"
           y="51.75"
           x="15"
           id="rect243"
           style="fill:url(#bg)" />
        <path
           d="m 22.188,56.876 0,0.94592 -0.883,0 0,-0.946 -2.113,0 0,-0.69543 1.9611,-3.0026 1.0349,0 0,3.0092 0.61963,0 0,0.68884 -0.62,0 m -0.8833,-2.2083 c -3e-6,-0.03735 -3e-6,-0.08569 0,-0.14502 0.0022,-0.06152 0.0044,-0.12414 0.0066,-0.18787 0.0044,-0.06372 0.0077,-0.12414 0.0099,-0.18127 0.0044,-0.05932 0.0088,-0.10546 0.01318,-0.13843 -0.01099,0.02417 -0.02857,0.05933 -0.05273,0.10547 -0.02417,0.04395 -0.05164,0.09229 -0.0824,0.14502 -0.02857,0.05054 -0.05933,0.10108 -0.09229,0.15161 -0.03076,0.05054 -0.05823,0.09449 -0.0824,0.13184 l -1.0778,1.6381 1.3579,0 0,-1.5194"
           id="path245"
           inkscape:connector-curvature="0"
           style="fill:#ffffff" />
        <rect
           rx="1.125"
           ry="1.125"
           height="7.5"
           width="12"
           y="51.75"
           x="33"
           id="rect247"
           style="fill:url(#bh)" />
        <path
           d="m 40.679,56.243 c -8e-6,0.23291 -0.03736,0.44824 -0.11206,0.646 -0.07251,0.19556 -0.18128,0.36585 -0.32629,0.51087 -0.14503,0.14282 -0.3252,0.25488 -0.54053,0.33618 -0.21314,0.0791 -0.46033,0.11865 -0.74158,0.11865 -0.25928,-1e-6 -0.4856,-0.03076 -0.67895,-0.09228 -0.19336,-0.06372 -0.35706,-0.15051 -0.49109,-0.26038 -0.13184,-0.11206 -0.23621,-0.2428 -0.31311,-0.39221 -0.07471,-0.14941 -0.12634,-0.30981 -0.15491,-0.4812 l 0.92615,-0.07581 c 0.01758,0.07251 0.04175,0.14282 0.07251,0.21094 0.03296,0.06812 0.078,0.12854 0.13513,0.18127 0.05713,0.05274 0.12744,0.09558 0.21094,0.12854 0.0835,0.03076 0.18457,0.04614 0.30322,0.04614 0.23071,1e-6 0.41418,-0.07361 0.55041,-0.22082 0.13843,-0.14722 0.20764,-0.35925 0.20764,-0.63611 0,-0.12304 -0.01758,-0.23401 -0.05273,-0.33289 -0.03296,-0.09887 -0.08131,-0.18347 -0.14502,-0.25378 -0.06153,-0.07031 -0.13844,-0.12414 -0.23072,-0.1615 -0.09009,-0.03735 -0.19336,-0.05603 -0.30981,-0.05603 -0.15381,3e-6 -0.28015,0.02967 -0.37903,0.08899 -0.09888,0.05713 -0.18237,0.12744 -0.25049,0.21094 l -0.902,0 0.1615,-2.6136 2.7916,0 0,0.68884 -1.9512,0 -0.07581,1.1733 c 0.09228,-0.0813 0.20874,-0.15051 0.34936,-0.20764 0.14062,-0.05932 0.30432,-0.08899 0.49109,-0.08899 0.22851,3e-6 0.43286,0.03736 0.61304,0.11206 0.18017,0.07471 0.33288,0.17908 0.45813,0.31311 0.12524,0.13404 0.22082,0.29553 0.28674,0.4845 0.06592,0.18677 0.09887,0.39441 0.09888,0.62292"
           id="path249"
           inkscape:connector-curvature="0"
           style="fill:#ffffff" />
        <rect
           rx="1.125"
           ry="1.125"
           height="7.5"
           width="12"
           y="51.75"
           x="51"
           id="rect251"
           style="fill:url(#bi)" />
        <path
           d="m 58.631,56.304 c -8e-6,0.23291 -0.03297,0.44714 -0.09888,0.6427 -0.06592,0.19336 -0.16479,0.36035 -0.29662,0.50098 -0.12964,0.13843 -0.29224,0.24719 -0.48779,0.3263 -0.19556,0.0769 -0.42188,0.11536 -0.67896,0.11536 -0.54712,0 -0.9679,-0.19116 -1.2623,-0.57349 -0.29223,-0.38452 -0.43836,-0.95361 -0.43836,-1.7073 0,-0.82837 0.14832,-1.4513 0.44495,-1.8688 0.29882,-0.41967 0.72509,-0.62951 1.2788,-0.62952 0.18458,4e-6 0.35267,0.01978 0.50428,0.05933 0.1516,0.03736 0.28674,0.09888 0.40539,0.18457 0.11865,0.0857 0.21972,0.19666 0.30322,0.33289 0.08348,0.13404 0.15051,0.29774 0.20105,0.49109 l -0.87342,0.12195 c -0.04395,-0.16259 -0.11536,-0.27905 -0.21423,-0.34937 -0.09888,-0.07251 -0.21424,-0.10876 -0.34607,-0.10876 -0.24829,3e-6 -0.44385,0.12415 -0.58668,0.37244 -0.14062,0.2483 -0.21093,0.62513 -0.21093,1.1305 0.09887,-0.16479 0.2362,-0.29114 0.41199,-0.37903 0.17578,-0.08789 0.37463,-0.13183 0.59656,-0.13184 0.20433,3e-6 0.38891,0.03406 0.55371,0.10217 0.16698,0.06592 0.30871,0.1626 0.42517,0.29004 0.11865,0.12525 0.20983,0.27906 0.27356,0.46142 0.06372,0.18238 0.09558,0.38782 0.09558,0.61633 m -0.92944,0.02637 c 0,-0.12524 -0.01428,-0.2373 -0.04285,-0.33618 -0.02857,-0.10107 -0.07251,-0.18677 -0.13183,-0.25708 -0.05713,-0.07031 -0.12854,-0.12414 -0.21423,-0.1615 -0.08569,-0.03955 -0.18458,-0.05932 -0.29663,-0.05933 -0.0813,10e-7 -0.1626,0.01319 -0.2439,0.03955 -0.0813,0.02637 -0.15381,0.06921 -0.21753,0.12854 -0.06372,0.05713 -0.11536,0.13074 -0.15491,0.22082 -0.03955,0.09009 -0.05933,0.19885 -0.05933,0.32629 0,0.13184 0.01647,0.25488 0.04944,0.36914 0.03295,0.11426 0.0791,0.21424 0.13842,0.29993 0.06152,0.0835 0.13512,0.14942 0.22082,0.19775 0.08569,0.04614 0.18237,0.06921 0.29004,0.06921 0.20873,10e-7 0.37133,-0.07361 0.48779,-0.22082 0.11645,-0.14941 0.17468,-0.35486 0.17468,-0.61633"
           id="path253"
           inkscape:connector-curvature="0"
           style="fill:#ffffff" />
        <rect
           rx="1.125"
           ry="1.125"
           height="7.5"
           width="12"
           y="51.75"
           x="69"
           id="rect255"
           style="fill:url(#bj)" />
        <path
           d="m 73.385,55.947 0,-0.89356 3.2294,0 0,0.894 -3.229,0"
           id="path257"
           inkscape:connector-curvature="0"
           style="fill:#ffffff" />
      </g>
      <g
         transform="translate(0,0.25)"
         id="g259">
        <rect
           rx="1.125"
           ry="1.125"
           height="7.5"
           width="12"
           y="39.75"
           x="15"
           id="rect261"
           style="fill:url(#bc)" />
        <path
           d="m 22.584,41.913 c -0.20874,0.32959 -0.4065,0.6493 -0.59326,0.95911 -0.18457,0.30982 -0.34607,0.62183 -0.4845,0.93604 -0.13843,0.31201 -0.24829,0.63391 -0.32959,0.9657 -0.0791,0.32959 -0.11865,0.67896 -0.11865,1.0481 l -0.9657,0 c -1e-6,-0.36694 0.04285,-0.71521 0.12854,-1.0448 0.08789,-0.33179 0.20654,-0.65478 0.35596,-0.96899 0.14941,-0.31421 0.323,-0.62402 0.52075,-0.92944 0.19775,-0.30761 0.40649,-0.62072 0.62622,-0.93933 l -2.3071,0 0,-0.76135 3.1674,0 0,0.73498"
           id="path263"
           inkscape:connector-curvature="0"
           style="fill:#ffffff" />
        <rect
           rx="1.125"
           ry="1.125"
           height="7.5"
           width="12"
           y="39.75"
           x="33"
           id="rect265"
           style="fill:url(#bd)" />
        <path
           d="m 40.666,44.515 c 0,0.19995 -0.03296,0.38452 -0.09888,0.55371 -0.06592,0.16699 -0.167,0.31201 -0.30322,0.43506 -0.13624,0.12085 -0.30872,0.21533 -0.51746,0.28345 -0.20875,0.06811 -0.45704,0.10217 -0.74488,0.10217 -0.28565,0 -0.53394,-0.03406 -0.74487,-0.10217 -0.20874,-0.06812 -0.38232,-0.1626 -0.52075,-0.28345 -0.13623,-0.12305 -0.2373,-0.26807 -0.30322,-0.43506 -0.06592,-0.16699 -0.09888,-0.34936 -0.09888,-0.54712 -1e-6,-0.16919 0.02637,-0.3186 0.0791,-0.44824 0.05273,-0.13183 0.12305,-0.24499 0.21094,-0.33948 0.08789,-0.09448 0.18896,-0.16919 0.30322,-0.22412 0.11426,-0.05713 0.23181,-0.09558 0.35266,-0.11536 l 0,-0.01318 c -0.12964,-0.02856 -0.2461,-0.0758 -0.34936,-0.14172 -0.10327,-0.06591 -0.19116,-0.14502 -0.26367,-0.2373 -0.07251,-0.09228 -0.12854,-0.19446 -0.16809,-0.30652 -0.03735,-0.11425 -0.05603,-0.23291 -0.05603,-0.35596 0,-0.18457 0.03296,-0.35266 0.09888,-0.50427 0.06811,-0.15161 0.16699,-0.28124 0.29663,-0.38892 0.12964,-0.10766 0.29004,-0.19006 0.4812,-0.24719 0.19336,-0.05932 0.41638,-0.08898 0.66907,-0.08899 0.27026,4e-6 0.50317,0.03077 0.69873,0.09229 0.19775,0.05933 0.36035,0.14392 0.48779,0.25378 0.12744,0.10767 0.22192,0.23731 0.28345,0.38892 0.06152,0.15162 0.09229,0.31861 0.09229,0.50098 0,0.12085 -0.01978,0.23841 -0.05933,0.35266 -0.03736,0.11206 -0.09229,0.21424 -0.1648,0.30652 -0.07251,0.09229 -0.1615,0.17029 -0.26696,0.23401 -0.10328,0.06372 -0.22083,0.10877 -0.35266,0.13513 l 0,0.01318 c 0.13623,0.02197 0.26258,0.06262 0.37903,0.12195 0.11865,0.05713 0.22082,0.13294 0.30652,0.22742 0.08569,0.09229 0.15271,0.20435 0.20105,0.33618 0.04834,0.12964 0.07251,0.27686 0.07251,0.44165 m -1.068,-2.118 c 0,-0.09228 -0.0099,-0.17688 -0.02966,-0.25378 -0.01978,-0.0791 -0.05273,-0.14611 -0.09887,-0.20105 -0.04615,-0.05713 -0.10877,-0.10107 -0.18787,-0.13184 -0.07691,-0.03295 -0.17469,-0.04943 -0.29334,-0.04944 -0.11426,4e-6 -0.20984,0.01648 -0.28674,0.04944 -0.07691,0.03077 -0.13843,0.07471 -0.18457,0.13184 -0.04614,0.05494 -0.0791,0.12195 -0.09888,0.20105 -0.01978,0.07691 -0.02966,0.1615 -0.02966,0.25378 -2e-6,0.0813 0.0077,0.1615 0.02307,0.2406 0.01758,0.0791 0.04834,0.15052 0.09229,0.21423 0.04394,0.06153 0.10547,0.11206 0.18457,0.15161 0.0791,0.03955 0.18127,0.05933 0.30652,0.05933 0.13183,2e-6 0.2373,-0.01977 0.31641,-0.05933 0.08129,-0.03955 0.14282,-0.09118 0.18457,-0.15491 0.04175,-0.06372 0.06921,-0.13513 0.0824,-0.21423 0.01319,-0.0791 0.01978,-0.1582 0.01978,-0.2373 m 0.10876,2.0435 c 0,-0.09448 -0.01099,-0.18567 -0.03296,-0.27356 -0.01978,-0.08789 -0.05713,-0.16479 -0.11206,-0.23071 -0.05273,-0.06811 -0.12634,-0.12195 -0.22082,-0.1615 -0.09448,-0.04175 -0.21424,-0.06262 -0.35925,-0.06262 -0.13184,3e-6 -0.2428,0.02088 -0.33289,0.06262 -0.08789,0.03955 -0.1593,0.09339 -0.21423,0.1615 -0.05274,0.06812 -0.09119,0.14722 -0.11536,0.2373 -0.02197,0.08789 -0.03296,0.18128 -0.03296,0.28015 -10e-7,0.11646 0.01098,0.22302 0.03296,0.3197 0.02417,0.09668 0.06372,0.18018 0.11865,0.25049 0.05713,0.06812 0.13184,0.12085 0.22412,0.1582 0.09228,0.03735 0.20764,0.05603 0.34607,0.05603 0.13843,1e-6 0.25268,-0.01868 0.34277,-0.05603 0.09009,-0.03955 0.1615,-0.09448 0.21424,-0.1648 0.05273,-0.07031 0.08899,-0.15381 0.10876,-0.25049 0.02197,-0.09887 0.03296,-0.20764 0.03296,-0.32629"
           id="path267"
           inkscape:connector-curvature="0"
           style="fill:#ffffff" />
        <rect
           rx="1.125"
           ry="1.125"
           height="7.5"
           width="12"
           y="39.75"
           x="51"
           id="rect269"
           style="fill:url(#be)" />
        <path
           d="m 58.635,43.427 c 0,0.82398 -0.15051,1.4403 -0.45153,1.849 -0.30103,0.40869 -0.7284,0.61304 -1.2821,0.61304 -0.19995,0 -0.38012,-0.02087 -0.54052,-0.06262 -0.1582,-0.04175 -0.29663,-0.10657 -0.41528,-0.19446 -0.11866,-0.08789 -0.21972,-0.20105 -0.30322,-0.33948 -0.0813,-0.13843 -0.14611,-0.30322 -0.19446,-0.49438 l 0.87012,-0.12195 c 0.04394,0.1648 0.11535,0.28674 0.21422,0.36584 0.10108,0.0791 0.22742,0.11865 0.37903,0.11865 0.12525,10e-7 0.23731,-0.02966 0.33619,-0.08899 0.09887,-0.05932 0.18347,-0.14941 0.25378,-0.27026 0.07031,-0.12085 0.12414,-0.27356 0.1615,-0.45813 0.03955,-0.18677 0.06042,-0.40649 0.06262,-0.65918 -0.04394,0.0857 -0.10218,0.1615 -0.17468,0.22742 -0.07251,0.06592 -0.15491,0.12085 -0.24719,0.1648 -0.09009,0.04395 -0.18677,0.078 -0.29004,0.10217 -0.10327,0.02197 -0.20763,0.03296 -0.31311,0.03296 -0.20215,2e-6 -0.38562,-0.03515 -0.55041,-0.10547 -0.1648,-0.07251 -0.30542,-0.17578 -0.42188,-0.30982 -0.11646,-0.13403 -0.20654,-0.29553 -0.27027,-0.4845 -0.06152,-0.19116 -0.09228,-0.40649 -0.09228,-0.646 0,-0.24609 0.03625,-0.46582 0.10877,-0.65918 0.0747,-0.19336 0.18128,-0.35595 0.3197,-0.48779 0.13842,-0.13403 0.30761,-0.2351 0.50757,-0.30322 0.20215,-0.07031 0.43066,-0.10546 0.68555,-0.10547 0.26806,4e-6 0.50427,0.04615 0.70861,0.13843 0.20655,0.09009 0.37903,0.23072 0.51746,0.42188 0.13842,0.18897 0.2428,0.42957 0.31311,0.7218 0.07251,0.29004 0.10877,0.63501 0.10877,1.0349 m -0.979,-0.649 c -8e-6,-0.13183 -0.01538,-0.25488 -0.04615,-0.36914 -0.02856,-0.11645 -0.07251,-0.21643 -0.13183,-0.29993 -0.05933,-0.08569 -0.13183,-0.15271 -0.21753,-0.20105 -0.08569,-0.04834 -0.18457,-0.0725 -0.29662,-0.07251 -0.10328,5e-6 -0.19556,0.01978 -0.27685,0.05933 -0.0813,0.03736 -0.15052,0.09229 -0.20765,0.1648 -0.05713,0.07251 -0.10108,0.1604 -0.13183,0.26367 -0.02857,0.10328 -0.04285,0.21973 -0.04285,0.34937 0,0.12085 0.01428,0.23401 0.04285,0.33948 0.02856,0.10327 0.07032,0.19336 0.12524,0.27026 0.05493,0.07471 0.12415,0.13404 0.20765,0.17798 0.08348,0.04175 0.17907,0.06262 0.28673,0.06262 0.0857,2e-6 0.16919,-0.01538 0.25049,-0.04614 0.08349,-0.03076 0.15711,-0.0769 0.22082,-0.13843 0.06592,-0.06152 0.11865,-0.13842 0.15821,-0.23071 0.03954,-0.09448 0.05932,-0.20434 0.05932,-0.32959"
           id="path271"
           inkscape:connector-curvature="0"
           style="fill:#ffffff" />
        <rect
           rx="1.125"
           ry="1.125"
           height="7.5"
           width="12"
           y="39.75"
           x="69"
           id="rect273"
           style="fill:url(#bf)" />
        <path
           d="m 73.154,44.944 c 0.16211,10e-7 0.30176,-0.02246 0.41895,-0.06738 0.11913,-0.04687 0.22168,-0.10742 0.30761,-0.18164 0.08789,-0.07422 0.16016,-0.1582 0.21681,-0.25195 0.05858,-0.09375 0.10643,-0.18848 0.14355,-0.28418 l 0.75292,0.28418 c -0.06054,0.14844 -0.13965,0.29395 -0.2373,0.43652 -0.09766,0.14258 -0.21973,0.26855 -0.36622,0.37793 -0.14648,0.10938 -0.32129,0.19824 -0.52441,0.2666 -0.20118,0.06641 -0.43848,0.09961 -0.71192,0.09961 -0.35742,0 -0.66699,-0.05273 -0.92871,-0.1582 -0.26172,-0.10742 -0.47852,-0.25586 -0.65039,-0.44531 -0.16992,-0.19141 -0.29688,-0.41797 -0.38086,-0.67969 -0.08203,-0.26172 -0.12305,-0.54785 -0.12305,-0.8584 0,-0.32226 0.04102,-0.61328 0.12305,-0.87305 0.08398,-0.25976 0.20996,-0.48046 0.37793,-0.66211 0.16797,-0.18359 0.37988,-0.32422 0.63574,-0.42188 0.25781,-0.09961 0.56054,-0.14941 0.9082,-0.14941 0.26953,4e-6 0.50488,0.02832 0.70605,0.08496 0.20312,0.05665 0.37792,0.13672 0.52442,0.24023 0.14843,0.10157 0.27051,0.22266 0.36621,0.36328 0.09765,0.13868 0.17383,0.292 0.22852,0.45996 l -0.76172,0.20801 c -0.02735,-0.08789 -0.06934,-0.17187 -0.12598,-0.25195 -0.05664,-0.08203 -0.12892,-0.15429 -0.2168,-0.2168 -0.08594,-0.0625 -0.1875,-0.1123 -0.30468,-0.14941 -0.11719,-0.03906 -0.25001,-0.05859 -0.39844,-0.05859 -0.20898,2e-6 -0.38867,0.03418 -0.53906,0.10254 -0.15039,0.06641 -0.27442,0.16211 -0.37207,0.28711 -0.09571,0.125 -0.167,0.27539 -0.21388,0.45117 -0.04492,0.17383 -0.06737,0.36914 -0.06737,0.58594 0,0.21484 0.02245,0.41211 0.06737,0.5918 0.04687,0.17774 0.11914,0.33106 0.2168,0.45996 0.09766,0.12891 0.22266,0.22949 0.375,0.30176 0.15429,0.07227 0.33886,0.1084 0.55371,0.1084 m 2.4082,0.62109 0,-4.1279 3.2461,0 0,0.66797 -2.3818,0 0,1.0371 2.2031,0 0,0.66797 -2.2031,0 0,1.0869 2.502,0 0,0.66797 -3.3662,0"
           id="path275"
           inkscape:connector-curvature="0"
           style="fill:#ffffff" />
      </g>
      <g
         transform="translate(0,0.25)"
         id="g277">
        <rect
           rx="1.125"
           ry="1.125"
           height="7.5"
           width="12"
           y="75.75"
           x="15"
           id="rect279"
           style="fill:url(#bo)" />
        <path
           d="m 22.605,79.5 c -3e-6,0.44385 -0.04065,0.81848 -0.12195,1.1239 -0.0813,0.30322 -0.19446,0.54932 -0.33948,0.73828 -0.14282,0.18677 -0.31311,0.3219 -0.51086,0.4054 -0.19556,0.0813 -0.40979,0.12195 -0.6427,0.12195 -0.23291,0 -0.44714,-0.04065 -0.6427,-0.12195 -0.19556,-0.0813 -0.36365,-0.21533 -0.50427,-0.4021 -0.141,-0.189 -0.25,-0.436 -0.33,-0.739 -0.079,-0.305 -0.118,-0.681 -0.118,-1.127 0,-0.46802 0.03845,-0.85473 0.11536,-1.1602 0.0791,-0.30761 0.19006,-0.55261 0.33289,-0.73498 0.14282,-0.18237 0.31311,-0.30981 0.51086,-0.38233 0.19995,-0.0747 0.42077,-0.11206 0.66248,-0.11206 0.22632,0 0.43616,0.03736 0.62952,0.11206 0.19555,0.07252 0.36364,0.19996 0.50427,0.38233 0.14282,0.18238 0.25378,0.42737 0.33289,0.73498 0.08129,0.30542 0.12194,0.69214 0.12195,1.1602 m -0.92944,0 c -2e-6,-0.32739 -0.01209,-0.59765 -0.03626,-0.81079 -0.02417,-0.21533 -0.06262,-0.38562 -0.11536,-0.51086 -0.05274,-0.12744 -0.12195,-0.21643 -0.20764,-0.26697 -0.0835,-0.05053 -0.18567,-0.0758 -0.30652,-0.07581 -0.12964,8e-6 -0.23841,0.02638 -0.32629,0.0791 -0.08789,0.05054 -0.1593,0.13953 -0.21423,0.26697 -0.05274,0.12745 -0.09119,0.29883 -0.11536,0.51416 -0.02197,0.21314 -0.03296,0.4812 -0.03296,0.8042 -1e-6,0.31861 0.01208,0.58448 0.03625,0.79761 0.02417,0.21314 0.06262,0.38452 0.11536,0.51416 0.05273,0.12744 0.12195,0.21753 0.20764,0.27026 0.08569,0.05273 0.19116,0.0791 0.31641,0.0791 0.12085,0 0.22412,-0.02637 0.30982,-0.0791 0.08569,-0.05273 0.156,-0.14282 0.21094,-0.27026 0.05493,-0.12964 0.09448,-0.30103 0.11865,-0.51416 0.02636,-0.21314 0.03955,-0.479 0.03955,-0.79761"
           id="path281"
           inkscape:connector-curvature="0"
           style="fill:#ffffff" />
        <rect
           transform="scale(1,-1)"
           rx="1.125"
           ry="1.125"
           height="7.5"
           width="12"
           y="-83.25"
           x="33"
           id="rect283"
           style="fill:url(#bp)" />
        <path
           d="m 38.471,81.558 0,-1.1169 1.0583,0 0,1.117 -1.058,0"
           id="path285"
           inkscape:connector-curvature="0"
           style="fill:#ffffff" />
        <rect
           rx="1.125"
           ry="1.125"
           height="7.5"
           width="12"
           y="75.75"
           x="51"
           id="rect287"
           style="fill:url(#bq)" />
        <path
           d="m 59.828,80.398 c 0,0.27466 -0.03077,0.50647 -0.09228,0.69544 -0.06153,0.18896 -0.14502,0.34167 -0.25049,0.45813 -0.10548,0.11426 -0.22962,0.19665 -0.37243,0.24719 -0.14063,0.05054 -0.29114,0.0758 -0.45154,0.0758 -0.16479,0 -0.3186,-0.02527 -0.46142,-0.0758 -0.14063,-0.05054 -0.26368,-0.13294 -0.36914,-0.24719 -0.10328,-0.11646 -0.18568,-0.26917 -0.24719,-0.45813 -0.05933,-0.18897 -0.089,-0.42078 -0.08899,-0.69544 -8e-6,-0.29004 0.02966,-0.52954 0.08899,-0.71851 0.06152,-0.19116 0.14501,-0.34277 0.25048,-0.45483 0.10547,-0.11426 0.22961,-0.19336 0.37244,-0.23731 0.14501,-0.04614 0.30102,-0.06921 0.46802,-0.06921 0.15819,0 0.30761,0.02307 0.44823,0.06921 0.14062,0.04395 0.26258,0.12305 0.36585,0.23731 0.10547,0.11206 0.18786,0.26367 0.24719,0.45483 0.06152,0.18897 0.09228,0.42847 0.09228,0.71851 m -4.0045,1.4238 -0.67895,0 3.0322,-4.6439 0.68885,0 -3.0421,4.6439 m -0.47461,-4.6967 c 0.1582,7e-6 0.30762,0.02308 0.44824,0.06922 0.14062,0.04395 0.26367,0.12195 0.36914,0.23401 0.10547,0.11206 0.18897,0.26368 0.25048,0.45483 0.06153,0.18897 0.09229,0.42848 0.09229,0.71851 0,0.27467 -0.03077,0.50648 -0.09229,0.69544 -0.06152,0.18896 -0.14612,0.34168 -0.25378,0.45813 -0.10548,0.11645 -0.22962,0.19995 -0.37244,0.25048 -0.14282,0.05054 -0.29553,0.07581 -0.45813,0.0758 -0.16039,7e-6 -0.31201,-0.02526 -0.45482,-0.0758 -0.14062,-0.05054 -0.26368,-0.13293 -0.36914,-0.24719 -0.10328,-0.11645 -0.18568,-0.26916 -0.2472,-0.45813 -0.05933,-0.18896 -0.08898,-0.42188 -0.08898,-0.69873 0,-0.29003 0.02966,-0.52954 0.08898,-0.71851 0.05932,-0.19115 0.14173,-0.34276 0.2472,-0.45483 0.10547,-0.11206 0.22961,-0.19006 0.37243,-0.23401 0.14502,-0.04614 0.30102,-0.06921 0.46802,-0.06922 m 3.7705,3.2728 c -8e-6,-0.19116 -0.0099,-0.34936 -0.02966,-0.47461 -0.01758,-0.12524 -0.04506,-0.22412 -0.0824,-0.29663 -0.03737,-0.07471 -0.0835,-0.12634 -0.13842,-0.1549 -0.05494,-0.03077 -0.11976,-0.04614 -0.19446,-0.04615 -0.08131,7e-6 -0.15162,0.01538 -0.21094,0.04615 -0.05713,0.02857 -0.10438,0.0802 -0.14172,0.1549 -0.03736,0.07471 -0.06592,0.17468 -0.08569,0.29993 -0.01758,0.12525 -0.02637,0.28235 -0.02637,0.47132 -8e-6,0.18458 0.0088,0.33838 0.02637,0.46142 0.01758,0.12086 0.04504,0.21863 0.0824,0.29334 0.03954,0.07471 0.08788,0.12744 0.14502,0.1582 0.05712,0.03077 0.12523,0.04615 0.20435,0.04615 0.0725,0 0.13622,-0.01538 0.19116,-0.04615 0.05712,-0.03076 0.10437,-0.0824 0.14172,-0.1549 0.03954,-0.07471 0.06921,-0.17358 0.08899,-0.29663 0.01977,-0.12304 0.02965,-0.27685 0.02966,-0.46142 m -3.326,-1.796 c 0,-0.18896 -0.0099,-0.34497 -0.02967,-0.46802 -0.01758,-0.12524 -0.04504,-0.22412 -0.0824,-0.29663 -0.03735,-0.0747 -0.0835,-0.12634 -0.13842,-0.1549 -0.05493,-0.03076 -0.11976,-0.04614 -0.19446,-0.04615 -0.0813,8e-6 -0.15161,0.01539 -0.21093,0.04615 -0.05933,0.03076 -0.10767,0.0835 -0.14502,0.1582 -0.03736,0.07252 -0.06593,0.17139 -0.0857,0.29663 -0.01758,0.12305 -0.02637,0.27796 -0.02637,0.46472 0,0.18458 0.0088,0.33839 0.02637,0.46142 0.01977,0.12305 0.04834,0.22193 0.0857,0.29663 0.03954,0.07471 0.08788,0.12854 0.14502,0.1615 0.05712,0.03077 0.12524,0.04615 0.20434,0.04615 0.0747,0 0.13952,-0.01538 0.19446,-0.04615 0.05712,-0.03076 0.10437,-0.08349 0.14172,-0.1582 0.03955,-0.07471 0.06812,-0.17358 0.08569,-0.29663 0.01978,-0.12524 0.02967,-0.28015 0.02967,-0.46472"
           id="path289"
           inkscape:connector-curvature="0"
           style="fill:#ffffff" />
        <rect
           rx="1.125"
           ry="1.125"
           height="7.5"
           width="12"
           y="75.75"
           x="69"
           id="rect291"
           style="fill:url(#br)" />
        <path
           d="m 73.12,78.899 0,-0.81665 3.761,0 0,0.817 -3.761,0 m 0,2.0178 0,-0.80932 3.761,0 0,0.809 -3.761,0"
           id="path293"
           inkscape:connector-curvature="0"
           style="fill:#ffffff" />
      </g>
    </g>
  </g>
</svg>
